/*
 * Song: Carry On by Angra
 *
 *	Melody 0 | P1 Kiko Loureiro Guitar
 *	Melody 1 | P1 Kiko Loureiro Guitar
 *	Melody 2 | P2 Rafael Bittencourt Guitar
 *	Melody 3 | P2 Rafael Bittencourt Guitar
 *	Melody 4 | P3 Luis Mariutti Bass
*/

#include <Arduino.h>
#include "notes.h"

const Note melody0[] PROGMEM = {
	{ NOTE_GS4, 182 }, 
	{ NOTE_B4, 91 }, 
	{ NOTE_AS4, 91 }, 
	{ NOTE_B4, 182 }, 
	{ NOTE_GS4, 182 }, 
	{ NOTE_B4, 91 }, 
	{ NOTE_AS4, 91 }, 
	{ NOTE_B4, 182 }, 
	{ NOTE_GS4, 182 }, 
	{ NOTE_B4, 91 }, 
	{ NOTE_AS4, 90 }, 
	{ NOTE_B4, 182 }, 
	{ NOTE_GS4, 182 }, 
	{ NOTE_B4, 91 }, 
	{ NOTE_AS4, 91 }, 
	{ NOTE_B4, 182 }, 
	{ NOTE_CS4, 364 }, 
	{ NOTE_CS4, 363 }, 
	{ NOTE_GS4, 182 }, 
	{ NOTE_B4, 91 }, 
	{ NOTE_AS4, 91 }, 
	{ NOTE_B4, 182 }, 
	{ NOTE_GS4, 182 }, 
	{ NOTE_B4, 91 }, 
	{ NOTE_AS4, 91 }, 
	{ NOTE_B4, 182 }, 
	{ NOTE_GS4, 182 }, 
	{ NOTE_B4, 91 }, 
	{ NOTE_AS4, 90 }, 
	{ NOTE_B4, 182 }, 
	{ NOTE_GS4, 182 }, 
	{ NOTE_B4, 91 }, 
	{ NOTE_AS4, 91 }, 
	{ NOTE_B4, 182 }, 
	{ NOTE_B3, 91 }, 
	{ NOTE_B3, 91 }, 
	{ NOTE_B3, 182 }, 
	{ NOTE_AS3, 91 }, 
	{ NOTE_AS3, 91 }, 
	{ NOTE_AS3, 181 }, 
	{ NOTE_GS4, 182 }, 
	{ NOTE_B4, 91 }, 
	{ NOTE_AS4, 91 }, 
	{ NOTE_B4, 182 }, 
	{ NOTE_GS4, 182 }, 
	{ NOTE_B4, 91 }, 
	{ NOTE_AS4, 91 }, 
	{ NOTE_B4, 182 }, 
	{ NOTE_GS4, 182 }, 
	{ NOTE_B4, 91 }, 
	{ NOTE_AS4, 90 }, 
	{ NOTE_B4, 182 }, 
	{ NOTE_GS4, 182 }, 
	{ NOTE_B4, 91 }, 
	{ NOTE_AS4, 91 }, 
	{ NOTE_B4, 182 }, 
	{ NOTE_CS4, 364 }, 
	{ NOTE_CS4, 363 }, 
	{ NOTE_CS5, 727 }, 
	{ NOTE_CS5, 242 }, 
	{ NOTE_DS5, 242 }, 
	{ NOTE_E5, 244 }, 
	{ NOTE_DS5, 727 }, 
	{ NOTE_DS5, 242 }, 
	{ NOTE_F5, 242 }, 
	{ NOTE_G5, 244 }, 
	{ NOTE_GS4, 182 }, 
	{ NOTE_B4, 91 }, 
	{ NOTE_AS4, 91 }, 
	{ NOTE_B4, 182 }, 
	{ NOTE_GS4, 182 }, 
	{ NOTE_B4, 91 }, 
	{ NOTE_AS4, 91 }, 
	{ NOTE_B4, 182 }, 
	{ NOTE_GS4, 182 }, 
	{ NOTE_B4, 91 }, 
	{ NOTE_AS4, 90 }, 
	{ NOTE_B4, 182 }, 
	{ NOTE_GS4, 182 }, 
	{ NOTE_B4, 91 }, 
	{ NOTE_AS4, 91 }, 
	{ NOTE_B4, 182 }, 
	{ NOTE_CS4, 364 }, 
	{ NOTE_CS4, 363 }, 
	{ NOTE_GS4, 182 }, 
	{ NOTE_B4, 91 }, 
	{ NOTE_AS4, 91 }, 
	{ NOTE_B4, 182 }, 
	{ NOTE_GS4, 182 }, 
	{ NOTE_B4, 91 }, 
	{ NOTE_AS4, 91 }, 
	{ NOTE_B4, 182 }, 
	{ NOTE_GS4, 182 }, 
	{ NOTE_B4, 91 }, 
	{ NOTE_AS4, 90 }, 
	{ NOTE_B4, 182 }, 
	{ NOTE_GS4, 182 }, 
	{ NOTE_B4, 91 }, 
	{ NOTE_AS4, 91 }, 
	{ NOTE_B4, 182 }, 
	{ NOTE_B3, 91 }, 
	{ NOTE_B3, 91 }, 
	{ NOTE_B3, 182 }, 
	{ NOTE_AS3, 91 }, 
	{ NOTE_AS3, 91 }, 
	{ NOTE_AS3, 181 }, 
	{ NOTE_GS4, 182 }, 
	{ NOTE_B4, 91 }, 
	{ NOTE_AS4, 91 }, 
	{ NOTE_B4, 182 }, 
	{ NOTE_GS4, 182 }, 
	{ NOTE_B4, 91 }, 
	{ NOTE_AS4, 91 }, 
	{ NOTE_B4, 182 }, 
	{ NOTE_GS4, 182 }, 
	{ NOTE_B4, 91 }, 
	{ NOTE_AS4, 90 }, 
	{ NOTE_B4, 182 }, 
	{ NOTE_GS4, 182 }, 
	{ NOTE_B4, 91 }, 
	{ NOTE_AS4, 91 }, 
	{ NOTE_B4, 182 }, 
	{ NOTE_CS4, 364 }, 
	{ NOTE_CS4, 363 }, 
	{ NOTE_CS5, 727 }, 
	{ NOTE_CS5, 242 }, 
	{ NOTE_DS5, 242 }, 
	{ NOTE_E5, 244 }, 
	{ NOTE_DS5, 727 }, 
	{ NOTE_DS5, 242 }, 
	{ NOTE_F5, 242 }, 
	{ NOTE_G5, 244 }, 
	{ NOTE_DS6, 91 }, 
	{ NOTE_GS6, 91 }, 
	{ NOTE_DS6, 91 }, 
	{ NOTE_B5, 91 }, 
	{ NOTE_DS6, 91 }, 
	{ NOTE_B5, 91 }, 
	{ NOTE_GS5, 91 }, 
	{ NOTE_B5, 91 }, 
	{ NOTE_GS5, 91 }, 
	{ NOTE_DS5, 91 }, 
	{ NOTE_GS5, 91 }, 
	{ NOTE_DS5, 91 }, 
	{ NOTE_GS5, 91 }, 
	{ NOTE_B5, 91 }, 
	{ NOTE_GS5, 91 }, 
	{ NOTE_B5, 90 }, 
	{ NOTE_CS6, 91 }, 
	{ NOTE_FS6, 91 }, 
	{ NOTE_CS6, 91 }, 
	{ NOTE_AS5, 91 }, 
	{ NOTE_CS6, 91 }, 
	{ NOTE_AS5, 91 }, 
	{ NOTE_FS5, 91 }, 
	{ NOTE_AS5, 91 }, 
	{ NOTE_FS5, 91 }, 
	{ NOTE_CS5, 91 }, 
	{ NOTE_FS5, 91 }, 
	{ NOTE_CS5, 91 }, 
	{ NOTE_FS5, 91 }, 
	{ NOTE_AS5, 91 }, 
	{ NOTE_FS5, 91 }, 
	{ NOTE_AS5, 90 }, 
	{ NOTE_CS5, 727 }, 
	{ NOTE_CS5, 242 }, 
	{ NOTE_DS5, 242 }, 
	{ NOTE_E5, 244 }, 
	{ NOTE_DS5, 727 }, 
	{ NOTE_DS5, 242 }, 
	{ NOTE_F5, 242 }, 
	{ NOTE_G5, 244 }, 
	{ NOTE_E6, 91 }, 
	{ NOTE_DS6, 91 }, 
	{ NOTE_CS6, 91 }, 
	{ NOTE_B5, 91 }, 
	{ NOTE_AS5, 91 }, 
	{ NOTE_GS5, 91 }, 
	{ NOTE_G5, 91 }, 
	{ NOTE_GS5, 91 }, 
	{ NOTE_AS5, 91 }, 
	{ NOTE_GS5, 91 }, 
	{ NOTE_G5, 91 }, 
	{ NOTE_E5, 91 }, 
	{ NOTE_DS5, 91 }, 
	{ NOTE_CS5, 91 }, 
	{ NOTE_B4, 91 }, 
	{ NOTE_AS4, 90 }, 
	{ NOTE_E5, 91 }, 
	{ NOTE_DS5, 91 }, 
	{ NOTE_CS5, 91 }, 
	{ NOTE_B4, 91 }, 
	{ NOTE_AS4, 91 }, 
	{ NOTE_GS4, 91 }, 
	{ NOTE_G4, 91 }, 
	{ NOTE_GS4, 91 }, 
	{ NOTE_AS4, 91 }, 
	{ NOTE_GS4, 91 }, 
	{ NOTE_G4, 91 }, 
	{ NOTE_E4, 91 }, 
	{ NOTE_DS4, 91 }, 
	{ NOTE_CS4, 91 }, 
	{ NOTE_B3, 91 }, 
	{ NOTE_AS3, 90 }, 
	{ NOTE_GS3, 2910 }, 
	{ NOTE_CS4, 121 }, 
	{ NOTE_CS4, 121 }, 
	{ NOTE_CS4, 121 }, 
	{ NOTE_CS4, 121 }, 
	{ NOTE_CS4, 121 }, 
	{ NOTE_CS4, 121 }, 
	{ NOTE_CS4, 121 }, 
	{ NOTE_CS4, 121 }, 
	{ NOTE_CS4, 121 }, 
	{ NOTE_CS4, 121 }, 
	{ NOTE_CS4, 121 }, 
	{ NOTE_CS4, 124 }, 
	{ NOTE_CS4, 121 }, 
	{ NOTE_CS4, 121 }, 
	{ NOTE_CS4, 121 }, 
	{ NOTE_CS4, 121 }, 
	{ NOTE_CS4, 121 }, 
	{ NOTE_CS4, 121 }, 
	{ NOTE_CS4, 121 }, 
	{ NOTE_CS4, 121 }, 
	{ NOTE_CS4, 121 }, 
	{ NOTE_CS4, 121 }, 
	{ NOTE_CS4, 121 }, 
	{ NOTE_CS4, 124 }, 
	{ NOTE_CS4, 121 }, 
	{ NOTE_CS4, 121 }, 
	{ NOTE_CS4, 121 }, 
	{ NOTE_CS4, 121 }, 
	{ NOTE_CS4, 121 }, 
	{ NOTE_CS4, 121 }, 
	{ NOTE_CS4, 121 }, 
	{ NOTE_CS4, 121 }, 
	{ NOTE_CS4, 121 }, 
	{ NOTE_CS4, 121 }, 
	{ NOTE_CS4, 121 }, 
	{ NOTE_CS4, 124 }, 
	{ NOTE_CS4, 121 }, 
	{ NOTE_CS4, 121 }, 
	{ NOTE_CS4, 121 }, 
	{ NOTE_CS4, 121 }, 
	{ NOTE_CS4, 121 }, 
	{ NOTE_CS4, 121 }, 
	{ NOTE_CS4, 121 }, 
	{ NOTE_CS4, 121 }, 
	{ NOTE_CS4, 121 }, 
	{ NOTE_CS4, 121 }, 
	{ NOTE_CS4, 121 }, 
	{ NOTE_CS4, 124 }, 
	{ NOTE_DS3, 364 }, 
	{ NOTE_REST, 363 }, 
	{ NOTE_GS3, 182 }, 
	{ NOTE_GS3, 91 }, 
	{ NOTE_GS3, 91 }, 
	{ NOTE_GS3, 91 }, 
	{ NOTE_GS3, 91 }, 
	{ NOTE_GS3, 182 }, 
	{ NOTE_GS3, 182 }, 
	{ NOTE_GS3, 91 }, 
	{ NOTE_GS3, 91 }, 
	{ NOTE_GS3, 91 }, 
	{ NOTE_GS3, 91 }, 
	{ NOTE_GS3, 91 }, 
	{ NOTE_GS3, 90 }, 
	{ NOTE_GS3, 182 }, 
	{ NOTE_GS3, 91 }, 
	{ NOTE_GS3, 91 }, 
	{ NOTE_GS3, 91 }, 
	{ NOTE_GS3, 91 }, 
	{ NOTE_GS3, 182 }, 
	{ NOTE_GS3, 182 }, 
	{ NOTE_GS3, 91 }, 
	{ NOTE_GS3, 91 }, 
	{ NOTE_GS3, 91 }, 
	{ NOTE_GS3, 91 }, 
	{ NOTE_GS3, 181 }, 
	{ NOTE_GS3, 909 }, 
	{ NOTE_GS3, 364 }, 
	{ NOTE_GS3, 182 }, 
	{ NOTE_B3, 182 }, 
	{ NOTE_B3, 91 }, 
	{ NOTE_B3, 91 }, 
	{ NOTE_B3, 91 }, 
	{ NOTE_B3, 91 }, 
	{ NOTE_B3, 182 }, 
	{ NOTE_FS3, 182 }, 
	{ NOTE_FS3, 182 }, 
	{ NOTE_FS3, 182 }, 
	{ NOTE_FS3, 181 }, 
	{ NOTE_GS3, 182 }, 
	{ NOTE_GS3, 91 }, 
	{ NOTE_GS3, 91 }, 
	{ NOTE_GS3, 91 }, 
	{ NOTE_GS3, 91 }, 
	{ NOTE_GS3, 182 }, 
	{ NOTE_GS3, 182 }, 
	{ NOTE_GS3, 91 }, 
	{ NOTE_GS3, 91 }, 
	{ NOTE_GS3, 91 }, 
	{ NOTE_GS3, 91 }, 
	{ NOTE_GS3, 181 }, 
	{ NOTE_GS3, 182 }, 
	{ NOTE_GS3, 91 }, 
	{ NOTE_GS3, 91 }, 
	{ NOTE_GS3, 91 }, 
	{ NOTE_GS3, 91 }, 
	{ NOTE_GS3, 182 }, 
	{ NOTE_GS3, 182 }, 
	{ NOTE_GS3, 91 }, 
	{ NOTE_GS3, 91 }, 
	{ NOTE_GS3, 91 }, 
	{ NOTE_GS3, 91 }, 
	{ NOTE_GS3, 181 }, 
	{ NOTE_E3, 182 }, 
	{ NOTE_E3, 91 }, 
	{ NOTE_E3, 91 }, 
	{ NOTE_E3, 182 }, 
	{ NOTE_E3, 91 }, 
	{ NOTE_E3, 91 }, 
	{ NOTE_E3, 182 }, 
	{ NOTE_E3, 91 }, 
	{ NOTE_E3, 91 }, 
	{ NOTE_E3, 182 }, 
	{ NOTE_E3, 91 }, 
	{ NOTE_E3, 90 }, 
	{ NOTE_CS4, 91 }, 
	{ NOTE_CS4, 91 }, 
	{ NOTE_CS4, 91 }, 
	{ NOTE_CS4, 91 }, 
	{ NOTE_CS4, 91 }, 
	{ NOTE_CS4, 91 }, 
	{ NOTE_CS4, 91 }, 
	{ NOTE_CS4, 91 }, 
	{ NOTE_FS3, 91 }, 
	{ NOTE_FS3, 91 }, 
	{ NOTE_FS3, 91 }, 
	{ NOTE_FS3, 91 }, 
	{ NOTE_FS3, 91 }, 
	{ NOTE_FS3, 91 }, 
	{ NOTE_FS3, 91 }, 
	{ NOTE_FS3, 90 }, 
	{ NOTE_GS3, 182 }, 
	{ NOTE_GS3, 91 }, 
	{ NOTE_GS3, 91 }, 
	{ NOTE_GS3, 91 }, 
	{ NOTE_GS3, 91 }, 
	{ NOTE_GS3, 182 }, 
	{ NOTE_GS3, 182 }, 
	{ NOTE_GS3, 91 }, 
	{ NOTE_GS3, 91 }, 
	{ NOTE_GS3, 91 }, 
	{ NOTE_GS3, 91 }, 
	{ NOTE_GS3, 181 }, 
	{ NOTE_GS3, 182 }, 
	{ NOTE_GS3, 91 }, 
	{ NOTE_GS3, 91 }, 
	{ NOTE_GS3, 91 }, 
	{ NOTE_GS3, 91 }, 
	{ NOTE_GS3, 182 }, 
	{ NOTE_GS3, 182 }, 
	{ NOTE_GS3, 91 }, 
	{ NOTE_GS3, 91 }, 
	{ NOTE_GS3, 91 }, 
	{ NOTE_GS3, 91 }, 
	{ NOTE_GS3, 181 }, 
	{ NOTE_GS3, 909 }, 
	{ NOTE_GS3, 364 }, 
	{ NOTE_GS3, 182 }, 
	{ NOTE_B3, 182 }, 
	{ NOTE_B3, 91 }, 
	{ NOTE_B3, 91 }, 
	{ NOTE_B3, 91 }, 
	{ NOTE_B3, 91 }, 
	{ NOTE_B3, 182 }, 
	{ NOTE_FS3, 182 }, 
	{ NOTE_FS3, 182 }, 
	{ NOTE_FS3, 182 }, 
	{ NOTE_FS3, 181 }, 
	{ NOTE_GS3, 182 }, 
	{ NOTE_GS3, 91 }, 
	{ NOTE_GS3, 91 }, 
	{ NOTE_GS3, 91 }, 
	{ NOTE_GS3, 91 }, 
	{ NOTE_GS3, 182 }, 
	{ NOTE_GS3, 182 }, 
	{ NOTE_GS3, 91 }, 
	{ NOTE_GS3, 91 }, 
	{ NOTE_GS3, 91 }, 
	{ NOTE_GS3, 91 }, 
	{ NOTE_GS3, 181 }, 
	{ NOTE_GS3, 182 }, 
	{ NOTE_GS3, 91 }, 
	{ NOTE_GS3, 91 }, 
	{ NOTE_GS3, 91 }, 
	{ NOTE_GS3, 91 }, 
	{ NOTE_GS3, 182 }, 
	{ NOTE_GS3, 182 }, 
	{ NOTE_GS3, 91 }, 
	{ NOTE_GS3, 91 }, 
	{ NOTE_GS3, 91 }, 
	{ NOTE_GS3, 91 }, 
	{ NOTE_GS3, 181 }, 
	{ NOTE_E3, 182 }, 
	{ NOTE_E3, 91 }, 
	{ NOTE_E3, 91 }, 
	{ NOTE_E3, 182 }, 
	{ NOTE_E3, 91 }, 
	{ NOTE_E3, 91 }, 
	{ NOTE_E3, 182 }, 
	{ NOTE_E3, 91 }, 
	{ NOTE_E3, 91 }, 
	{ NOTE_E3, 182 }, 
	{ NOTE_E3, 91 }, 
	{ NOTE_E3, 90 }, 
	{ NOTE_CS4, 91 }, 
	{ NOTE_CS4, 91 }, 
	{ NOTE_CS4, 91 }, 
	{ NOTE_CS4, 91 }, 
	{ NOTE_CS4, 91 }, 
	{ NOTE_CS4, 91 }, 
	{ NOTE_CS4, 91 }, 
	{ NOTE_CS4, 91 }, 
	{ NOTE_FS3, 91 }, 
	{ NOTE_FS3, 91 }, 
	{ NOTE_FS3, 91 }, 
	{ NOTE_FS3, 91 }, 
	{ NOTE_FS3, 91 }, 
	{ NOTE_FS3, 91 }, 
	{ NOTE_FS3, 91 }, 
	{ NOTE_FS3, 90 }, 
	{ NOTE_CS4, 1455 }, 
	{ NOTE_GS3, 727 }, 
	{ NOTE_FS3, 182 }, 
	{ NOTE_REST, 182 }, 
	{ NOTE_FS3, 364 }, 
	{ NOTE_E3, 182 }, 
	{ NOTE_E3, 91 }, 
	{ NOTE_E3, 91 }, 
	{ NOTE_E3, 91 }, 
	{ NOTE_E3, 91 }, 
	{ NOTE_E3, 182 }, 
	{ NOTE_E3, 182 }, 
	{ NOTE_E3, 91 }, 
	{ NOTE_E3, 91 }, 
	{ NOTE_E3, 91 }, 
	{ NOTE_E3, 91 }, 
	{ NOTE_E3, 181 }, 
	{ NOTE_B3, 727 }, 
	{ NOTE_FS3, 182 }, 
	{ NOTE_REST, 182 }, 
	{ NOTE_FS3, 364 }, 
	{ NOTE_E3, 91 }, 
	{ NOTE_E3, 91 }, 
	{ NOTE_E3, 182 }, 
	{ NOTE_E3, 91 }, 
	{ NOTE_E3, 91 }, 
	{ NOTE_E3, 182 }, 
	{ NOTE_E3, 91 }, 
	{ NOTE_E3, 91 }, 
	{ NOTE_E3, 182 }, 
	{ NOTE_E3, 91 }, 
	{ NOTE_E3, 91 }, 
	{ NOTE_E3, 181 }, 
	{ NOTE_GS3, 727 }, 
	{ NOTE_FS3, 182 }, 
	{ NOTE_REST, 182 }, 
	{ NOTE_FS3, 364 }, 
	{ NOTE_E3, 182 }, 
	{ NOTE_E3, 91 }, 
	{ NOTE_E3, 91 }, 
	{ NOTE_E3, 91 }, 
	{ NOTE_E3, 91 }, 
	{ NOTE_E3, 182 }, 
	{ NOTE_E3, 182 }, 
	{ NOTE_E3, 91 }, 
	{ NOTE_E3, 91 }, 
	{ NOTE_E3, 91 }, 
	{ NOTE_E3, 91 }, 
	{ NOTE_E3, 181 }, 
	{ NOTE_DS3, 182 }, 
	{ NOTE_DS3, 182 }, 
	{ NOTE_DS3, 182 }, 
	{ NOTE_DS3, 182 }, 
	{ NOTE_DS3, 364 }, 
	{ NOTE_REST, 363 }, 
	{ NOTE_GS4, 182 }, 
	{ NOTE_B4, 91 }, 
	{ NOTE_AS4, 91 }, 
	{ NOTE_B4, 182 }, 
	{ NOTE_GS4, 182 }, 
	{ NOTE_B4, 91 }, 
	{ NOTE_AS4, 91 }, 
	{ NOTE_B4, 182 }, 
	{ NOTE_GS4, 182 }, 
	{ NOTE_B4, 91 }, 
	{ NOTE_AS4, 90 }, 
	{ NOTE_B4, 182 }, 
	{ NOTE_GS4, 182 }, 
	{ NOTE_B4, 91 }, 
	{ NOTE_AS4, 91 }, 
	{ NOTE_B4, 182 }, 
	{ NOTE_CS4, 364 }, 
	{ NOTE_CS4, 363 }, 
	{ NOTE_GS4, 182 }, 
	{ NOTE_B4, 91 }, 
	{ NOTE_AS4, 91 }, 
	{ NOTE_B4, 182 }, 
	{ NOTE_GS4, 182 }, 
	{ NOTE_B4, 91 }, 
	{ NOTE_AS4, 91 }, 
	{ NOTE_B4, 182 }, 
	{ NOTE_GS4, 182 }, 
	{ NOTE_B4, 91 }, 
	{ NOTE_AS4, 90 }, 
	{ NOTE_B4, 182 }, 
	{ NOTE_GS4, 182 }, 
	{ NOTE_B4, 91 }, 
	{ NOTE_AS4, 91 }, 
	{ NOTE_B4, 182 }, 
	{ NOTE_B3, 91 }, 
	{ NOTE_B3, 91 }, 
	{ NOTE_B3, 182 }, 
	{ NOTE_AS3, 91 }, 
	{ NOTE_AS3, 91 }, 
	{ NOTE_AS3, 181 }, 
	{ NOTE_GS4, 182 }, 
	{ NOTE_B4, 91 }, 
	{ NOTE_AS4, 91 }, 
	{ NOTE_B4, 182 }, 
	{ NOTE_GS4, 182 }, 
	{ NOTE_B4, 91 }, 
	{ NOTE_AS4, 91 }, 
	{ NOTE_B4, 182 }, 
	{ NOTE_GS4, 182 }, 
	{ NOTE_B4, 91 }, 
	{ NOTE_AS4, 90 }, 
	{ NOTE_B4, 182 }, 
	{ NOTE_GS4, 182 }, 
	{ NOTE_B4, 91 }, 
	{ NOTE_AS4, 91 }, 
	{ NOTE_B4, 182 }, 
	{ NOTE_CS4, 364 }, 
	{ NOTE_CS4, 363 }, 
	{ NOTE_CS5, 727 }, 
	{ NOTE_CS5, 242 }, 
	{ NOTE_DS5, 242 }, 
	{ NOTE_E5, 244 }, 
	{ NOTE_DS5, 727 }, 
	{ NOTE_DS5, 242 }, 
	{ NOTE_F5, 242 }, 
	{ NOTE_G5, 244 }, 
	{ NOTE_GS3, 182 }, 
	{ NOTE_GS3, 91 }, 
	{ NOTE_GS3, 91 }, 
	{ NOTE_GS3, 91 }, 
	{ NOTE_GS3, 91 }, 
	{ NOTE_GS3, 182 }, 
	{ NOTE_GS3, 182 }, 
	{ NOTE_GS3, 91 }, 
	{ NOTE_GS3, 91 }, 
	{ NOTE_GS3, 91 }, 
	{ NOTE_GS3, 91 }, 
	{ NOTE_GS3, 181 }, 
	{ NOTE_GS3, 182 }, 
	{ NOTE_GS3, 91 }, 
	{ NOTE_GS3, 91 }, 
	{ NOTE_GS3, 91 }, 
	{ NOTE_GS3, 91 }, 
	{ NOTE_GS3, 182 }, 
	{ NOTE_GS3, 182 }, 
	{ NOTE_GS3, 91 }, 
	{ NOTE_GS3, 91 }, 
	{ NOTE_GS3, 91 }, 
	{ NOTE_GS3, 91 }, 
	{ NOTE_GS3, 181 }, 
	{ NOTE_GS3, 909 }, 
	{ NOTE_GS3, 364 }, 
	{ NOTE_GS3, 182 }, 
	{ NOTE_B3, 182 }, 
	{ NOTE_B3, 91 }, 
	{ NOTE_B3, 91 }, 
	{ NOTE_B3, 91 }, 
	{ NOTE_B3, 91 }, 
	{ NOTE_B3, 182 }, 
	{ NOTE_FS3, 182 }, 
	{ NOTE_FS3, 182 }, 
	{ NOTE_FS3, 182 }, 
	{ NOTE_FS3, 181 }, 
	{ NOTE_GS3, 182 }, 
	{ NOTE_GS3, 91 }, 
	{ NOTE_GS3, 91 }, 
	{ NOTE_GS3, 91 }, 
	{ NOTE_GS3, 91 }, 
	{ NOTE_GS3, 182 }, 
	{ NOTE_GS3, 182 }, 
	{ NOTE_GS3, 91 }, 
	{ NOTE_GS3, 91 }, 
	{ NOTE_GS3, 91 }, 
	{ NOTE_GS3, 91 }, 
	{ NOTE_GS3, 181 }, 
	{ NOTE_GS3, 182 }, 
	{ NOTE_GS3, 91 }, 
	{ NOTE_GS3, 91 }, 
	{ NOTE_GS3, 91 }, 
	{ NOTE_GS3, 91 }, 
	{ NOTE_GS3, 182 }, 
	{ NOTE_GS3, 182 }, 
	{ NOTE_GS3, 91 }, 
	{ NOTE_GS3, 91 }, 
	{ NOTE_GS3, 91 }, 
	{ NOTE_GS3, 91 }, 
	{ NOTE_GS3, 181 }, 
	{ NOTE_E3, 182 }, 
	{ NOTE_E3, 91 }, 
	{ NOTE_E3, 91 }, 
	{ NOTE_E3, 182 }, 
	{ NOTE_E3, 91 }, 
	{ NOTE_E3, 91 }, 
	{ NOTE_E3, 182 }, 
	{ NOTE_E3, 91 }, 
	{ NOTE_E3, 91 }, 
	{ NOTE_E3, 182 }, 
	{ NOTE_E3, 91 }, 
	{ NOTE_E3, 90 }, 
	{ NOTE_CS4, 91 }, 
	{ NOTE_CS4, 91 }, 
	{ NOTE_CS4, 91 }, 
	{ NOTE_CS4, 91 }, 
	{ NOTE_CS4, 91 }, 
	{ NOTE_CS4, 91 }, 
	{ NOTE_CS4, 91 }, 
	{ NOTE_CS4, 91 }, 
	{ NOTE_FS3, 91 }, 
	{ NOTE_FS3, 91 }, 
	{ NOTE_FS3, 91 }, 
	{ NOTE_FS3, 91 }, 
	{ NOTE_FS3, 91 }, 
	{ NOTE_FS3, 91 }, 
	{ NOTE_FS3, 91 }, 
	{ NOTE_FS3, 90 }, 
	{ NOTE_GS3, 182 }, 
	{ NOTE_GS3, 91 }, 
	{ NOTE_GS3, 91 }, 
	{ NOTE_GS3, 91 }, 
	{ NOTE_GS3, 91 }, 
	{ NOTE_GS3, 182 }, 
	{ NOTE_GS3, 182 }, 
	{ NOTE_GS3, 91 }, 
	{ NOTE_GS3, 91 }, 
	{ NOTE_GS3, 91 }, 
	{ NOTE_GS3, 91 }, 
	{ NOTE_GS3, 181 }, 
	{ NOTE_GS3, 182 }, 
	{ NOTE_GS3, 91 }, 
	{ NOTE_GS3, 91 }, 
	{ NOTE_GS3, 91 }, 
	{ NOTE_GS3, 91 }, 
	{ NOTE_GS3, 182 }, 
	{ NOTE_GS3, 182 }, 
	{ NOTE_GS3, 91 }, 
	{ NOTE_GS3, 91 }, 
	{ NOTE_GS3, 91 }, 
	{ NOTE_GS3, 91 }, 
	{ NOTE_GS3, 181 }, 
	{ NOTE_GS3, 909 }, 
	{ NOTE_GS3, 364 }, 
	{ NOTE_GS3, 182 }, 
	{ NOTE_B3, 182 }, 
	{ NOTE_B3, 91 }, 
	{ NOTE_B3, 91 }, 
	{ NOTE_B3, 91 }, 
	{ NOTE_B3, 91 }, 
	{ NOTE_B3, 182 }, 
	{ NOTE_FS3, 182 }, 
	{ NOTE_FS3, 182 }, 
	{ NOTE_FS3, 182 }, 
	{ NOTE_FS3, 181 }, 
	{ NOTE_GS3, 182 }, 
	{ NOTE_GS3, 91 }, 
	{ NOTE_GS3, 91 }, 
	{ NOTE_GS3, 91 }, 
	{ NOTE_GS3, 91 }, 
	{ NOTE_GS3, 182 }, 
	{ NOTE_GS3, 182 }, 
	{ NOTE_GS3, 91 }, 
	{ NOTE_GS3, 91 }, 
	{ NOTE_GS3, 91 }, 
	{ NOTE_GS3, 91 }, 
	{ NOTE_GS3, 181 }, 
	{ NOTE_GS3, 182 }, 
	{ NOTE_GS3, 91 }, 
	{ NOTE_GS3, 91 }, 
	{ NOTE_GS3, 91 }, 
	{ NOTE_GS3, 91 }, 
	{ NOTE_GS3, 182 }, 
	{ NOTE_GS3, 182 }, 
	{ NOTE_GS3, 91 }, 
	{ NOTE_GS3, 91 }, 
	{ NOTE_GS3, 91 }, 
	{ NOTE_GS3, 91 }, 
	{ NOTE_GS3, 181 }, 
	{ NOTE_E3, 182 }, 
	{ NOTE_E3, 91 }, 
	{ NOTE_E3, 91 }, 
	{ NOTE_E3, 182 }, 
	{ NOTE_E3, 91 }, 
	{ NOTE_E3, 91 }, 
	{ NOTE_E3, 182 }, 
	{ NOTE_E3, 91 }, 
	{ NOTE_E3, 91 }, 
	{ NOTE_E3, 182 }, 
	{ NOTE_E3, 91 }, 
	{ NOTE_E3, 90 }, 
	{ NOTE_CS4, 91 }, 
	{ NOTE_CS4, 91 }, 
	{ NOTE_CS4, 91 }, 
	{ NOTE_CS4, 91 }, 
	{ NOTE_CS4, 91 }, 
	{ NOTE_CS4, 91 }, 
	{ NOTE_CS4, 91 }, 
	{ NOTE_CS4, 91 }, 
	{ NOTE_FS3, 91 }, 
	{ NOTE_FS3, 91 }, 
	{ NOTE_FS3, 91 }, 
	{ NOTE_FS3, 91 }, 
	{ NOTE_FS3, 91 }, 
	{ NOTE_FS3, 91 }, 
	{ NOTE_FS3, 91 }, 
	{ NOTE_FS3, 90 }, 
	{ NOTE_CS4, 1455 }, 
	{ NOTE_GS3, 727 }, 
	{ NOTE_FS3, 182 }, 
	{ NOTE_REST, 182 }, 
	{ NOTE_FS3, 364 }, 
	{ NOTE_E3, 182 }, 
	{ NOTE_E3, 91 }, 
	{ NOTE_E3, 91 }, 
	{ NOTE_E3, 91 }, 
	{ NOTE_E3, 91 }, 
	{ NOTE_E3, 182 }, 
	{ NOTE_E3, 182 }, 
	{ NOTE_E3, 91 }, 
	{ NOTE_E3, 91 }, 
	{ NOTE_E3, 91 }, 
	{ NOTE_E3, 91 }, 
	{ NOTE_E3, 181 }, 
	{ NOTE_B3, 727 }, 
	{ NOTE_FS3, 182 }, 
	{ NOTE_REST, 182 }, 
	{ NOTE_FS3, 364 }, 
	{ NOTE_E3, 91 }, 
	{ NOTE_E3, 91 }, 
	{ NOTE_E3, 182 }, 
	{ NOTE_E3, 91 }, 
	{ NOTE_E3, 91 }, 
	{ NOTE_E3, 182 }, 
	{ NOTE_E3, 91 }, 
	{ NOTE_E3, 91 }, 
	{ NOTE_E3, 182 }, 
	{ NOTE_E3, 91 }, 
	{ NOTE_E3, 91 }, 
	{ NOTE_E3, 181 }, 
	{ NOTE_GS3, 727 }, 
	{ NOTE_FS3, 182 }, 
	{ NOTE_REST, 182 }, 
	{ NOTE_FS3, 364 }, 
	{ NOTE_E3, 182 }, 
	{ NOTE_E3, 91 }, 
	{ NOTE_E3, 91 }, 
	{ NOTE_E3, 91 }, 
	{ NOTE_E3, 91 }, 
	{ NOTE_E3, 182 }, 
	{ NOTE_E3, 182 }, 
	{ NOTE_E3, 91 }, 
	{ NOTE_E3, 91 }, 
	{ NOTE_E3, 91 }, 
	{ NOTE_E3, 91 }, 
	{ NOTE_E3, 181 }, 
	{ NOTE_FS3, 182 }, 
	{ NOTE_FS3, 182 }, 
	{ NOTE_FS3, 182 }, 
	{ NOTE_FS3, 182 }, 
	{ NOTE_FS3, 364 }, 
	{ NOTE_REST, 363 }, 
	{ NOTE_B3, 1455 }, 
	{ NOTE_FS3, 1455 }, 
	{ NOTE_GS3, 1455 }, 
	{ NOTE_DS4, 1455 }, 
	{ NOTE_E3, 182 }, 
	{ NOTE_E3, 91 }, 
	{ NOTE_E3, 91 }, 
	{ NOTE_E3, 91 }, 
	{ NOTE_E3, 91 }, 
	{ NOTE_E3, 182 }, 
	{ NOTE_E3, 182 }, 
	{ NOTE_E3, 91 }, 
	{ NOTE_E3, 91 }, 
	{ NOTE_E3, 91 }, 
	{ NOTE_E3, 91 }, 
	{ NOTE_E3, 181 }, 
	{ NOTE_B3, 182 }, 
	{ NOTE_B3, 91 }, 
	{ NOTE_B3, 91 }, 
	{ NOTE_B3, 91 }, 
	{ NOTE_B3, 91 }, 
	{ NOTE_B3, 182 }, 
	{ NOTE_B3, 182 }, 
	{ NOTE_B3, 91 }, 
	{ NOTE_B3, 91 }, 
	{ NOTE_B3, 91 }, 
	{ NOTE_B3, 91 }, 
	{ NOTE_B3, 181 }, 
	{ NOTE_FS3, 91 }, 
	{ NOTE_FS3, 91 }, 
	{ NOTE_FS3, 91 }, 
	{ NOTE_FS3, 91 }, 
	{ NOTE_FS3, 91 }, 
	{ NOTE_FS3, 91 }, 
	{ NOTE_FS3, 91 }, 
	{ NOTE_FS3, 91 }, 
	{ NOTE_FS3, 91 }, 
	{ NOTE_FS3, 91 }, 
	{ NOTE_FS3, 91 }, 
	{ NOTE_FS3, 91 }, 
	{ NOTE_FS3, 91 }, 
	{ NOTE_FS3, 91 }, 
	{ NOTE_FS3, 91 }, 
	{ NOTE_FS3, 90 }, 
	{ NOTE_FS3, 91 }, 
	{ NOTE_FS3, 91 }, 
	{ NOTE_FS3, 91 }, 
	{ NOTE_FS3, 91 }, 
	{ NOTE_FS3, 91 }, 
	{ NOTE_FS3, 91 }, 
	{ NOTE_FS3, 91 }, 
	{ NOTE_FS3, 91 }, 
	{ NOTE_FS3, 91 }, 
	{ NOTE_FS3, 91 }, 
	{ NOTE_FS3, 91 }, 
	{ NOTE_FS3, 91 }, 
	{ NOTE_FS3, 91 }, 
	{ NOTE_FS3, 91 }, 
	{ NOTE_FS3, 91 }, 
	{ NOTE_FS3, 90 }, 
	{ NOTE_B3, 1455 }, 
	{ NOTE_AS3, 727 }, 
	{ NOTE_FS3, 728 }, 
	{ NOTE_GS3, 727 }, 
	{ NOTE_AS3, 364 }, 
	{ NOTE_B3, 364 }, 
	{ NOTE_FS3, 727 }, 
	{ NOTE_DS3, 728 }, 
	{ NOTE_E3, 182 }, 
	{ NOTE_E3, 91 }, 
	{ NOTE_E3, 91 }, 
	{ NOTE_E3, 91 }, 
	{ NOTE_E3, 91 }, 
	{ NOTE_E3, 182 }, 
	{ NOTE_E3, 182 }, 
	{ NOTE_E3, 91 }, 
	{ NOTE_E3, 91 }, 
	{ NOTE_E3, 91 }, 
	{ NOTE_E3, 91 }, 
	{ NOTE_E3, 91 }, 
	{ NOTE_E3, 90 }, 
	{ NOTE_FS3, 364 }, 
	{ NOTE_REST, 364 }, 
	{ NOTE_REST, 727 }, 
	{ NOTE_GS4, 182 }, 
	{ NOTE_B4, 91 }, 
	{ NOTE_AS4, 91 }, 
	{ NOTE_B4, 182 }, 
	{ NOTE_GS4, 182 }, 
	{ NOTE_B4, 91 }, 
	{ NOTE_AS4, 91 }, 
	{ NOTE_B4, 182 }, 
	{ NOTE_GS4, 182 }, 
	{ NOTE_B4, 91 }, 
	{ NOTE_AS4, 90 }, 
	{ NOTE_B4, 182 }, 
	{ NOTE_GS4, 182 }, 
	{ NOTE_B4, 91 }, 
	{ NOTE_AS4, 91 }, 
	{ NOTE_B4, 182 }, 
	{ NOTE_GS4, 364 }, 
	{ NOTE_GS4, 363 }, 
	{ NOTE_E5, 545 }, 
	{ NOTE_E5, 545 }, 
	{ NOTE_FS5, 182 }, 
	{ NOTE_FS5, 183 }, 
	{ NOTE_FS5, 1455 }, 
	{ NOTE_E5, 545 }, 
	{ NOTE_E5, 545 }, 
	{ NOTE_FS5, 182 }, 
	{ NOTE_GS5, 183 }, 
	{ NOTE_B5, 1455 }, 
	{ NOTE_GS5, 182 }, 
	{ NOTE_E5, 182 }, 
	{ NOTE_E5, 182 }, 
	{ NOTE_A5, 182 }, 
	{ NOTE_E5, 182 }, 
	{ NOTE_E5, 182 }, 
	{ NOTE_A5, 182 }, 
	{ NOTE_B5, 181 }, 
	{ NOTE_FS5, 545 }, 
	{ NOTE_FS5, 91 }, 
	{ NOTE_E5, 91 }, 
	{ NOTE_FS5, 728 }, 
	{ NOTE_E5, 182 }, 
	{ NOTE_CS5, 182 }, 
	{ NOTE_CS5, 182 }, 
	{ NOTE_FS5, 182 }, 
	{ NOTE_CS5, 182 }, 
	{ NOTE_CS5, 182 }, 
	{ NOTE_FS5, 182 }, 
	{ NOTE_GS5, 181 }, 
	{ NOTE_C6, 91 }, 
	{ NOTE_GS5, 91 }, 
	{ NOTE_A5, 91 }, 
	{ NOTE_C6, 91 }, 
	{ NOTE_CS6, 91 }, 
	{ NOTE_A5, 91 }, 
	{ NOTE_C6, 91 }, 
	{ NOTE_CS6, 91 }, 
	{ NOTE_DS6, 91 }, 
	{ NOTE_CS6, 91 }, 
	{ NOTE_C6, 91 }, 
	{ NOTE_A5, 91 }, 
	{ NOTE_GS5, 91 }, 
	{ NOTE_FS5, 91 }, 
	{ NOTE_E5, 91 }, 
	{ NOTE_DS5, 90 }, 
	{ NOTE_E5, 545 }, 
	{ NOTE_E5, 545 }, 
	{ NOTE_FS5, 182 }, 
	{ NOTE_FS5, 183 }, 
	{ NOTE_FS5, 1455 }, 
	{ NOTE_E5, 545 }, 
	{ NOTE_E5, 545 }, 
	{ NOTE_FS5, 182 }, 
	{ NOTE_GS5, 183 }, 
	{ NOTE_FS5, 1455 }, 
	{ NOTE_GS5, 182 }, 
	{ NOTE_E5, 182 }, 
	{ NOTE_E5, 182 }, 
	{ NOTE_A5, 182 }, 
	{ NOTE_E5, 182 }, 
	{ NOTE_E5, 182 }, 
	{ NOTE_A5, 182 }, 
	{ NOTE_B5, 181 }, 
	{ NOTE_FS5, 545 }, 
	{ NOTE_FS5, 91 }, 
	{ NOTE_E5, 91 }, 
	{ NOTE_FS5, 728 }, 
	{ NOTE_E5, 545 }, 
	{ NOTE_FS5, 182 }, 
	{ NOTE_FS5, 545 }, 
	{ NOTE_FS5, 91 }, 
	{ NOTE_E5, 92 }, 
	{ NOTE_G5, 545 }, 
	{ NOTE_GS5, 182 }, 
	{ NOTE_AS5, 728 }, 
	{ NOTE_FS4, 91 }, 
	{ NOTE_G4, 91 }, 
	{ NOTE_GS4, 727 }, 
	{ NOTE_B4, 91 }, 
	{ NOTE_DS5, 91 }, 
	{ NOTE_GS5, 91 }, 
	{ NOTE_B5, 91 }, 
	{ NOTE_DS6, 91 }, 
	{ NOTE_GS6, 91 }, 
	{ NOTE_AS6, 61 }, 
	{ NOTE_B6, 61 }, 
	{ NOTE_AS6, 61 }, 
	{ NOTE_GS6, 91 }, 
	{ NOTE_FS6, 91 }, 
	{ NOTE_GS6, 91 }, 
	{ NOTE_FS6, 1181 }, 
	{ NOTE_GS6, 91 }, 
	{ NOTE_FS6, 91 }, 
	{ NOTE_DS6, 91 }, 
	{ NOTE_B6, 91 }, 
	{ NOTE_GS6, 91 }, 
	{ NOTE_FS6, 91 }, 
	{ NOTE_GS6, 91 }, 
	{ NOTE_FS6, 91 }, 
	{ NOTE_DS6, 91 }, 
	{ NOTE_D6, 91 }, 
	{ NOTE_DS6, 91 }, 
	{ NOTE_D6, 91 }, 
	{ NOTE_CS6, 91 }, 
	{ NOTE_B5, 90 }, 
	{ NOTE_CS6, 91 }, 
	{ NOTE_D6, 91 }, 
	{ NOTE_DS6, 61 }, 
	{ NOTE_FS6, 61 }, 
	{ NOTE_DS6, 61 }, 
	{ NOTE_D6, 91 }, 
	{ NOTE_CS6, 91 }, 
	{ NOTE_DS6, 91 }, 
	{ NOTE_D6, 91 }, 
	{ NOTE_CS6, 91 }, 
	{ NOTE_B5, 91 }, 
	{ NOTE_CS6, 544 }, 
	{ NOTE_REST, 182 }, 
	{ NOTE_DS5, 91 }, 
	{ NOTE_E5, 91 }, 
	{ NOTE_FS5, 91 }, 
	{ NOTE_GS5, 91 }, 
	{ NOTE_FS5, 91 }, 
	{ NOTE_E5, 91 }, 
	{ NOTE_DS5, 91 }, 
	{ NOTE_E5, 91 }, 
	{ NOTE_FS5, 91 }, 
	{ NOTE_AS5, 91 }, 
	{ NOTE_B5, 91 }, 
	{ NOTE_GS5, 91 }, 
	{ NOTE_AS5, 91 }, 
	{ NOTE_FS6, 90 }, 
	{ NOTE_B5, 61 }, 
	{ NOTE_AS5, 61 }, 
	{ NOTE_GS5, 61 }, 
	{ NOTE_B5, 61 }, 
	{ NOTE_AS5, 61 }, 
	{ NOTE_A5, 61 }, 
	{ NOTE_B5, 91 }, 
	{ NOTE_GS6, 91 }, 
	{ NOTE_B5, 61 }, 
	{ NOTE_AS5, 61 }, 
	{ NOTE_GS5, 61 }, 
	{ NOTE_B5, 91 }, 
	{ NOTE_FS6, 91 }, 
	{ NOTE_B5, 61 }, 
	{ NOTE_AS5, 61 }, 
	{ NOTE_GS5, 61 }, 
	{ NOTE_B5, 601 }, 
	{ NOTE_AS5, 242 }, 
	{ NOTE_B5, 242 }, 
	{ NOTE_DS6, 182 }, 
	{ NOTE_E6, 182 }, 
	{ NOTE_GS6, 182 }, 
	{ NOTE_AS6, 183 }, 
	{ NOTE_B6, 182 }, 
	{ NOTE_CS7, 1273 }, 
	{ NOTE_E3, 91 }, 
	{ NOTE_E3, 91 }, 
	{ NOTE_E3, 91 }, 
	{ NOTE_E3, 91 }, 
	{ NOTE_E3, 91 }, 
	{ NOTE_E3, 91 }, 
	{ NOTE_E3, 91 }, 
	{ NOTE_E3, 91 }, 
	{ NOTE_E3, 91 }, 
	{ NOTE_E3, 91 }, 
	{ NOTE_E3, 91 }, 
	{ NOTE_E3, 91 }, 
	{ NOTE_E3, 91 }, 
	{ NOTE_E3, 91 }, 
	{ NOTE_E3, 91 }, 
	{ NOTE_E3, 90 }, 
	{ NOTE_E3, 91 }, 
	{ NOTE_E3, 91 }, 
	{ NOTE_E3, 91 }, 
	{ NOTE_E3, 91 }, 
	{ NOTE_E3, 91 }, 
	{ NOTE_E3, 91 }, 
	{ NOTE_E3, 91 }, 
	{ NOTE_E3, 91 }, 
	{ NOTE_E3, 91 }, 
	{ NOTE_E3, 91 }, 
	{ NOTE_E3, 91 }, 
	{ NOTE_E3, 91 }, 
	{ NOTE_E3, 91 }, 
	{ NOTE_E3, 91 }, 
	{ NOTE_E3, 91 }, 
	{ NOTE_E3, 90 }, 
	{ NOTE_B3, 727 }, 
	{ NOTE_AS3, 728 }, 
	{ NOTE_B3, 727 }, 
	{ NOTE_FS3, 728 }, 
	{ NOTE_E3, 91 }, 
	{ NOTE_E3, 91 }, 
	{ NOTE_E3, 91 }, 
	{ NOTE_E3, 91 }, 
	{ NOTE_E3, 91 }, 
	{ NOTE_E3, 91 }, 
	{ NOTE_E3, 91 }, 
	{ NOTE_E3, 91 }, 
	{ NOTE_E3, 91 }, 
	{ NOTE_E3, 91 }, 
	{ NOTE_E3, 91 }, 
	{ NOTE_E3, 91 }, 
	{ NOTE_E3, 91 }, 
	{ NOTE_E3, 91 }, 
	{ NOTE_E3, 91 }, 
	{ NOTE_E3, 90 }, 
	{ NOTE_CS4, 91 }, 
	{ NOTE_CS4, 91 }, 
	{ NOTE_CS4, 91 }, 
	{ NOTE_CS4, 91 }, 
	{ NOTE_CS4, 91 }, 
	{ NOTE_CS4, 91 }, 
	{ NOTE_CS4, 91 }, 
	{ NOTE_CS4, 91 }, 
	{ NOTE_CS4, 91 }, 
	{ NOTE_CS4, 91 }, 
	{ NOTE_CS4, 91 }, 
	{ NOTE_CS4, 91 }, 
	{ NOTE_CS4, 91 }, 
	{ NOTE_CS4, 91 }, 
	{ NOTE_CS4, 91 }, 
	{ NOTE_CS4, 90 }, 
	{ NOTE_B4, 242 }, 
	{ NOTE_DS5, 242 }, 
	{ NOTE_G5, 242 }, 
	{ NOTE_B5, 242 }, 
	{ NOTE_C6, 242 }, 
	{ NOTE_DS6, 245 }, 
	{ NOTE_DS6, 1455 }, 
	{ NOTE_REST, 1455 }, 
	{ NOTE_REST, 1455 }, 
	{ NOTE_REST, 1455 }, 
	{ NOTE_REST, 1455 }, 
	{ NOTE_DS3, 91 }, 
	{ NOTE_DS3, 91 }, 
	{ NOTE_DS3, 91 }, 
	{ NOTE_DS3, 91 }, 
	{ NOTE_CS4, 182 }, 
	{ NOTE_B3, 182 }, 
	{ NOTE_DS3, 91 }, 
	{ NOTE_DS3, 91 }, 
	{ NOTE_DS3, 91 }, 
	{ NOTE_DS3, 91 }, 
	{ NOTE_DS4, 91 }, 
	{ NOTE_F4, 91 }, 
	{ NOTE_DS3, 91 }, 
	{ NOTE_DS3, 90 }, 
	{ NOTE_F4, 91 }, 
	{ NOTE_FS4, 91 }, 
	{ NOTE_DS3, 91 }, 
	{ NOTE_DS3, 91 }, 
	{ NOTE_DS3, 91 }, 
	{ NOTE_DS3, 91 }, 
	{ NOTE_GS4, 91 }, 
	{ NOTE_FS4, 91 }, 
	{ NOTE_DS3, 91 }, 
	{ NOTE_DS3, 91 }, 
	{ NOTE_DS3, 91 }, 
	{ NOTE_DS3, 91 }, 
	{ NOTE_DS4, 91 }, 
	{ NOTE_CS4, 91 }, 
	{ NOTE_AS3, 91 }, 
	{ NOTE_GS3, 90 }, 
	{ NOTE_DS3, 91 }, 
	{ NOTE_DS3, 91 }, 
	{ NOTE_DS3, 91 }, 
	{ NOTE_DS3, 91 }, 
	{ NOTE_CS4, 182 }, 
	{ NOTE_B3, 182 }, 
	{ NOTE_DS3, 91 }, 
	{ NOTE_DS3, 91 }, 
	{ NOTE_DS3, 91 }, 
	{ NOTE_DS3, 91 }, 
	{ NOTE_DS4, 91 }, 
	{ NOTE_F4, 91 }, 
	{ NOTE_DS3, 91 }, 
	{ NOTE_DS3, 90 }, 
	{ NOTE_F4, 91 }, 
	{ NOTE_FS4, 91 }, 
	{ NOTE_DS3, 91 }, 
	{ NOTE_DS3, 91 }, 
	{ NOTE_FS3, 182 }, 
	{ NOTE_GS3, 182 }, 
	{ NOTE_AS3, 182 }, 
	{ NOTE_GS3, 182 }, 
	{ NOTE_CS4, 182 }, 
	{ NOTE_C4, 908 }, 
	{ NOTE_AS4, 242 }, 
	{ NOTE_AS4, 242 }, 
	{ NOTE_C5, 244 }, 
	{ NOTE_C5, 182 }, 
	{ NOTE_D5, 242 }, 
	{ NOTE_C5, 242 }, 
	{ NOTE_AS4, 242 }, 
	{ NOTE_AS4, 182 }, 
	{ NOTE_G4, 182 }, 
	{ NOTE_DS3, 183 }, 
	{ NOTE_DS3, 91 }, 
	{ NOTE_DS3, 91 }, 
	{ NOTE_DS3, 91 }, 
	{ NOTE_DS3, 91 }, 
	{ NOTE_CS4, 182 }, 
	{ NOTE_B3, 182 }, 
	{ NOTE_DS3, 91 }, 
	{ NOTE_DS3, 91 }, 
	{ NOTE_DS3, 91 }, 
	{ NOTE_DS3, 91 }, 
	{ NOTE_DS4, 91 }, 
	{ NOTE_F4, 91 }, 
	{ NOTE_DS3, 91 }, 
	{ NOTE_DS3, 90 }, 
	{ NOTE_F4, 91 }, 
	{ NOTE_FS4, 91 }, 
	{ NOTE_DS3, 91 }, 
	{ NOTE_DS3, 91 }, 
	{ NOTE_DS3, 91 }, 
	{ NOTE_DS3, 91 }, 
	{ NOTE_GS4, 91 }, 
	{ NOTE_FS4, 91 }, 
	{ NOTE_DS3, 91 }, 
	{ NOTE_DS3, 91 }, 
	{ NOTE_DS3, 91 }, 
	{ NOTE_DS3, 91 }, 
	{ NOTE_DS4, 91 }, 
	{ NOTE_CS4, 91 }, 
	{ NOTE_AS3, 91 }, 
	{ NOTE_GS3, 90 }, 
	{ NOTE_DS3, 91 }, 
	{ NOTE_DS3, 91 }, 
	{ NOTE_DS3, 91 }, 
	{ NOTE_DS3, 91 }, 
	{ NOTE_CS4, 182 }, 
	{ NOTE_B3, 182 }, 
	{ NOTE_DS3, 91 }, 
	{ NOTE_DS3, 91 }, 
	{ NOTE_DS3, 91 }, 
	{ NOTE_DS3, 91 }, 
	{ NOTE_DS4, 91 }, 
	{ NOTE_F4, 91 }, 
	{ NOTE_DS3, 91 }, 
	{ NOTE_DS3, 90 }, 
	{ NOTE_F4, 91 }, 
	{ NOTE_FS4, 91 }, 
	{ NOTE_DS3, 91 }, 
	{ NOTE_DS3, 91 }, 
	{ NOTE_FS3, 182 }, 
	{ NOTE_GS3, 182 }, 
	{ NOTE_AS3, 182 }, 
	{ NOTE_GS3, 182 }, 
	{ NOTE_CS4, 182 }, 
	{ NOTE_C4, 908 }, 
	{ NOTE_AS4, 242 }, 
	{ NOTE_AS4, 242 }, 
	{ NOTE_C5, 244 }, 
	{ NOTE_C5, 182 }, 
	{ NOTE_D5, 242 }, 
	{ NOTE_C5, 242 }, 
	{ NOTE_AS4, 242 }, 
	{ NOTE_AS4, 182 }, 
	{ NOTE_G4, 182 }, 
	{ NOTE_CS4, 910 }, 
	{ NOTE_CS5, 242 }, 
	{ NOTE_CS5, 242 }, 
	{ NOTE_DS5, 244 }, 
	{ NOTE_DS5, 242 }, 
	{ NOTE_DS5, 242 }, 
	{ NOTE_DS5, 242 }, 
	{ NOTE_DS5, 364 }, 
	{ NOTE_DS5, 365 }, 
	{ NOTE_DS5, 364 }, 
	{ NOTE_REST, 364 }, 
	{ NOTE_REST, 727 }, 
	{ NOTE_REST, 1455 }, 
	{ NOTE_CS4, 1455 }, 
	{ NOTE_GS3, 727 }, 
	{ NOTE_FS3, 182 }, 
	{ NOTE_REST, 182 }, 
	{ NOTE_FS3, 364 }, 
	{ NOTE_E3, 182 }, 
	{ NOTE_E3, 91 }, 
	{ NOTE_E3, 91 }, 
	{ NOTE_E3, 91 }, 
	{ NOTE_E3, 91 }, 
	{ NOTE_E3, 182 }, 
	{ NOTE_E3, 182 }, 
	{ NOTE_E3, 91 }, 
	{ NOTE_E3, 91 }, 
	{ NOTE_E3, 91 }, 
	{ NOTE_E3, 91 }, 
	{ NOTE_E3, 181 }, 
	{ NOTE_B3, 727 }, 
	{ NOTE_FS3, 182 }, 
	{ NOTE_REST, 182 }, 
	{ NOTE_FS3, 364 }, 
	{ NOTE_E3, 91 }, 
	{ NOTE_E3, 91 }, 
	{ NOTE_E3, 182 }, 
	{ NOTE_E3, 91 }, 
	{ NOTE_E3, 91 }, 
	{ NOTE_E3, 182 }, 
	{ NOTE_E3, 91 }, 
	{ NOTE_E3, 91 }, 
	{ NOTE_E3, 182 }, 
	{ NOTE_E3, 91 }, 
	{ NOTE_E3, 91 }, 
	{ NOTE_E3, 181 }, 
	{ NOTE_GS3, 727 }, 
	{ NOTE_FS3, 182 }, 
	{ NOTE_REST, 182 }, 
	{ NOTE_FS3, 364 }, 
	{ NOTE_E3, 182 }, 
	{ NOTE_E3, 91 }, 
	{ NOTE_E3, 91 }, 
	{ NOTE_E3, 91 }, 
	{ NOTE_E3, 91 }, 
	{ NOTE_E3, 182 }, 
	{ NOTE_E3, 182 }, 
	{ NOTE_E3, 91 }, 
	{ NOTE_E3, 91 }, 
	{ NOTE_E3, 91 }, 
	{ NOTE_E3, 91 }, 
	{ NOTE_E3, 181 }, 
	{ NOTE_FS3, 182 }, 
	{ NOTE_FS3, 182 }, 
	{ NOTE_FS3, 182 }, 
	{ NOTE_FS3, 182 }, 
	{ NOTE_FS3, 364 }, 
	{ NOTE_REST, 363 }, 
	{ NOTE_B3, 1455 }, 
	{ NOTE_FS3, 1455 }, 
	{ NOTE_GS3, 1455 }, 
	{ NOTE_DS4, 1455 }, 
	{ NOTE_E3, 182 }, 
	{ NOTE_E3, 91 }, 
	{ NOTE_E3, 91 }, 
	{ NOTE_E3, 91 }, 
	{ NOTE_E3, 91 }, 
	{ NOTE_E3, 182 }, 
	{ NOTE_E3, 182 }, 
	{ NOTE_E3, 91 }, 
	{ NOTE_E3, 91 }, 
	{ NOTE_E3, 91 }, 
	{ NOTE_E3, 91 }, 
	{ NOTE_E3, 181 }, 
	{ NOTE_B3, 182 }, 
	{ NOTE_B3, 91 }, 
	{ NOTE_B3, 91 }, 
	{ NOTE_B3, 91 }, 
	{ NOTE_B3, 91 }, 
	{ NOTE_B3, 182 }, 
	{ NOTE_B3, 182 }, 
	{ NOTE_B3, 91 }, 
	{ NOTE_B3, 91 }, 
	{ NOTE_B3, 91 }, 
	{ NOTE_B3, 91 }, 
	{ NOTE_B3, 181 }, 
	{ NOTE_FS3, 91 }, 
	{ NOTE_FS3, 91 }, 
	{ NOTE_FS3, 91 }, 
	{ NOTE_FS3, 91 }, 
	{ NOTE_FS3, 91 }, 
	{ NOTE_FS3, 91 }, 
	{ NOTE_FS3, 91 }, 
	{ NOTE_FS3, 91 }, 
	{ NOTE_FS3, 91 }, 
	{ NOTE_FS3, 91 }, 
	{ NOTE_FS3, 91 }, 
	{ NOTE_FS3, 91 }, 
	{ NOTE_FS3, 91 }, 
	{ NOTE_FS3, 91 }, 
	{ NOTE_FS3, 91 }, 
	{ NOTE_FS3, 90 }, 
	{ NOTE_FS3, 91 }, 
	{ NOTE_FS3, 91 }, 
	{ NOTE_FS3, 91 }, 
	{ NOTE_FS3, 91 }, 
	{ NOTE_FS3, 91 }, 
	{ NOTE_FS3, 91 }, 
	{ NOTE_FS3, 91 }, 
	{ NOTE_FS3, 91 }, 
	{ NOTE_FS3, 91 }, 
	{ NOTE_FS3, 91 }, 
	{ NOTE_FS3, 91 }, 
	{ NOTE_FS3, 91 }, 
	{ NOTE_FS3, 91 }, 
	{ NOTE_FS3, 91 }, 
	{ NOTE_FS3, 91 }, 
	{ NOTE_FS3, 90 }, 
	{ NOTE_B3, 1455 }, 
	{ NOTE_AS3, 727 }, 
	{ NOTE_FS3, 728 }, 
	{ NOTE_GS3, 727 }, 
	{ NOTE_AS3, 364 }, 
	{ NOTE_B3, 364 }, 
	{ NOTE_FS3, 727 }, 
	{ NOTE_DS3, 728 }, 
	{ NOTE_E3, 182 }, 
	{ NOTE_E3, 91 }, 
	{ NOTE_E3, 91 }, 
	{ NOTE_E3, 91 }, 
	{ NOTE_E3, 91 }, 
	{ NOTE_E3, 182 }, 
	{ NOTE_E3, 182 }, 
	{ NOTE_E3, 91 }, 
	{ NOTE_E3, 91 }, 
	{ NOTE_E3, 91 }, 
	{ NOTE_E3, 91 }, 
	{ NOTE_E3, 91 }, 
	{ NOTE_E3, 90 }, 
	{ NOTE_FS3, 364 }, 
	{ NOTE_REST, 364 }, 
	{ NOTE_REST, 727 }, 
	{ NOTE_CS4, 1455 }, 
	{ NOTE_GS3, 1455 }, 
	{ NOTE_AS3, 1455 }, 
	{ NOTE_F3, 1455 }, 
	{ NOTE_FS3, 182 }, 
	{ NOTE_FS3, 91 }, 
	{ NOTE_FS3, 91 }, 
	{ NOTE_FS3, 91 }, 
	{ NOTE_FS3, 91 }, 
	{ NOTE_FS3, 91 }, 
	{ NOTE_FS3, 91 }, 
	{ NOTE_FS3, 182 }, 
	{ NOTE_FS3, 91 }, 
	{ NOTE_FS3, 91 }, 
	{ NOTE_FS3, 91 }, 
	{ NOTE_FS3, 91 }, 
	{ NOTE_FS3, 91 }, 
	{ NOTE_FS3, 90 }, 
	{ NOTE_CS4, 91 }, 
	{ NOTE_CS4, 91 }, 
	{ NOTE_CS4, 91 }, 
	{ NOTE_CS4, 91 }, 
	{ NOTE_CS4, 91 }, 
	{ NOTE_CS4, 91 }, 
	{ NOTE_CS4, 91 }, 
	{ NOTE_CS4, 91 }, 
	{ NOTE_CS4, 91 }, 
	{ NOTE_CS4, 91 }, 
	{ NOTE_CS4, 91 }, 
	{ NOTE_CS4, 91 }, 
	{ NOTE_CS4, 91 }, 
	{ NOTE_CS4, 91 }, 
	{ NOTE_CS4, 91 }, 
	{ NOTE_CS4, 90 }, 
	{ NOTE_GS3, 364 }, 
	{ NOTE_GS3, 727 }, 
	{ NOTE_GS3, 364 }, 
	{ NOTE_GS3, 91 }, 
	{ NOTE_GS3, 91 }, 
	{ NOTE_GS3, 91 }, 
	{ NOTE_GS3, 91 }, 
	{ NOTE_GS3, 91 }, 
	{ NOTE_GS3, 91 }, 
	{ NOTE_GS3, 91 }, 
	{ NOTE_GS3, 91 }, 
	{ NOTE_GS3, 91 }, 
	{ NOTE_GS3, 91 }, 
	{ NOTE_GS3, 91 }, 
	{ NOTE_GS3, 91 }, 
	{ NOTE_GS3, 91 }, 
	{ NOTE_GS3, 91 }, 
	{ NOTE_GS3, 91 }, 
	{ NOTE_GS3, 90 }, 
	{ NOTE_CS4, 1455 }, 
	{ NOTE_C4, 727 }, 
	{ NOTE_GS3, 728 }, 
	{ NOTE_AS3, 727 }, 
	{ NOTE_C4, 364 }, 
	{ NOTE_CS4, 364 }, 
	{ NOTE_GS3, 727 }, 
	{ NOTE_F3, 728 }, 
	{ NOTE_FS3, 182 }, 
	{ NOTE_FS3, 91 }, 
	{ NOTE_FS3, 91 }, 
	{ NOTE_FS3, 91 }, 
	{ NOTE_FS3, 91 }, 
	{ NOTE_FS3, 91 }, 
	{ NOTE_FS3, 91 }, 
	{ NOTE_FS3, 182 }, 
	{ NOTE_FS3, 91 }, 
	{ NOTE_FS3, 91 }, 
	{ NOTE_FS3, 91 }, 
	{ NOTE_FS3, 91 }, 
	{ NOTE_FS3, 91 }, 
	{ NOTE_FS3, 90 }, 
	{ NOTE_GS3, 1455 }, 
	{ NOTE_CS4, 1455 }, 
	{ NOTE_C4, 727 }, 
	{ NOTE_GS3, 728 }, 
	{ NOTE_AS3, 727 }, 
	{ NOTE_C4, 364 }, 
	{ NOTE_CS4, 364 }, 
	{ NOTE_GS3, 727 }, 
	{ NOTE_F3, 728 }, 
	{ NOTE_FS3, 182 }, 
	{ NOTE_FS3, 91 }, 
	{ NOTE_FS3, 91 }, 
	{ NOTE_FS3, 91 }, 
	{ NOTE_FS3, 91 }, 
	{ NOTE_FS3, 91 }, 
	{ NOTE_FS3, 91 }, 
	{ NOTE_FS3, 182 }, 
	{ NOTE_FS3, 91 }, 
	{ NOTE_FS3, 91 }, 
	{ NOTE_FS3, 91 }, 
	{ NOTE_FS3, 91 }, 
	{ NOTE_FS3, 91 }, 
	{ NOTE_FS3, 90 }, 
	{ NOTE_GS3, 182 }, 
	{ NOTE_GS3, 91 }, 
	{ NOTE_GS3, 91 }, 
	{ NOTE_GS3, 91 }, 
	{ NOTE_GS3, 91 }, 
	{ NOTE_GS3, 91 }, 
	{ NOTE_GS3, 91 }, 
	{ NOTE_GS3, 182 }, 
	{ NOTE_GS3, 91 }, 
	{ NOTE_GS3, 91 }, 
	{ NOTE_GS3, 91 }, 
	{ NOTE_GS3, 91 }, 
	{ NOTE_GS3, 91 }, 
	{ NOTE_GS3, 90 }, 
	{ NOTE_AS4, 182 }, 
	{ NOTE_CS5, 91 }, 
	{ NOTE_C5, 91 }, 
	{ NOTE_CS5, 182 }, 
	{ NOTE_AS4, 182 }, 
	{ NOTE_CS5, 91 }, 
	{ NOTE_C5, 91 }, 
	{ NOTE_CS5, 182 }, 
	{ NOTE_AS4, 182 }, 
	{ NOTE_CS5, 91 }, 
	{ NOTE_C5, 90 }, 
	{ NOTE_CS5, 182 }, 
	{ NOTE_AS4, 182 }, 
	{ NOTE_CS5, 91 }, 
	{ NOTE_C5, 91 }, 
	{ NOTE_CS5, 182 }, 
	{ NOTE_AS4, 364 }, 
	{ NOTE_GS4, 363 }, 
	{ NOTE_FS3, 182 }, 
	{ NOTE_FS3, 182 }, 
	{ NOTE_FS3, 182 }, 
	{ NOTE_FS3, 182 }, 
	{ NOTE_FS3, 182 }, 
	{ NOTE_FS3, 182 }, 
	{ NOTE_FS3, 182 }, 
	{ NOTE_FS3, 181 }, 
	{ NOTE_GS3, 182 }, 
	{ NOTE_GS3, 91 }, 
	{ NOTE_GS3, 91 }, 
	{ NOTE_GS3, 91 }, 
	{ NOTE_GS3, 91 }, 
	{ NOTE_GS3, 182 }, 
	{ NOTE_GS3, 182 }, 
	{ NOTE_GS3, 91 }, 
	{ NOTE_GS3, 91 }, 
	{ NOTE_GS3, 91 }, 
	{ NOTE_GS3, 91 }, 
	{ NOTE_GS3, 181 }, 
	{ NOTE_AS4, 182 }, 
	{ NOTE_CS5, 91 }, 
	{ NOTE_C5, 91 }, 
	{ NOTE_CS5, 182 }, 
	{ NOTE_AS4, 182 }, 
	{ NOTE_CS5, 91 }, 
	{ NOTE_C5, 91 }, 
	{ NOTE_CS5, 182 }, 
	{ NOTE_AS4, 182 }, 
	{ NOTE_CS5, 91 }, 
	{ NOTE_C5, 90 }, 
	{ NOTE_CS5, 182 }, 
	{ NOTE_AS4, 182 }, 
	{ NOTE_CS5, 91 }, 
	{ NOTE_C5, 91 }, 
	{ NOTE_CS5, 182 }, 
	{ NOTE_AS4, 364 }, 
	{ NOTE_GS4, 363 }, 
	{ NOTE_FS3, 182 }, 
	{ NOTE_FS3, 91 }, 
	{ NOTE_FS3, 91 }, 
	{ NOTE_FS3, 91 }, 
	{ NOTE_FS3, 91 }, 
	{ NOTE_FS3, 91 }, 
	{ NOTE_FS3, 91 }, 
	{ NOTE_FS3, 182 }, 
	{ NOTE_FS3, 91 }, 
	{ NOTE_FS3, 91 }, 
	{ NOTE_FS3, 91 }, 
	{ NOTE_FS3, 91 }, 
	{ NOTE_FS3, 91 }, 
	{ NOTE_FS3, 90 }, 
	{ NOTE_GS3, 364 }, 
	{ NOTE_REST, 364 }, 
	{ NOTE_REST, 727 }, 
};
const uint16_t NUM_OF_NOTES0 = sizeof(melody0)/sizeof(melody0[0]);

const Note melody1[] PROGMEM = {
	{ NOTE_GS4, 182 }, 
	{ NOTE_B4, 91 }, 
	{ NOTE_AS4, 91 }, 
	{ NOTE_B4, 182 }, 
	{ NOTE_GS4, 182 }, 
	{ NOTE_B4, 91 }, 
	{ NOTE_AS4, 91 }, 
	{ NOTE_B4, 182 }, 
	{ NOTE_GS4, 182 }, 
	{ NOTE_B4, 91 }, 
	{ NOTE_AS4, 90 }, 
	{ NOTE_B4, 182 }, 
	{ NOTE_GS4, 182 }, 
	{ NOTE_B4, 91 }, 
	{ NOTE_AS4, 91 }, 
	{ NOTE_B4, 182 }, 
	{ NOTE_GS4, 364 }, 
	{ NOTE_GS4, 363 }, 
	{ NOTE_GS4, 182 }, 
	{ NOTE_B4, 91 }, 
	{ NOTE_AS4, 91 }, 
	{ NOTE_B4, 182 }, 
	{ NOTE_GS4, 182 }, 
	{ NOTE_B4, 91 }, 
	{ NOTE_AS4, 91 }, 
	{ NOTE_B4, 182 }, 
	{ NOTE_GS4, 182 }, 
	{ NOTE_B4, 91 }, 
	{ NOTE_AS4, 90 }, 
	{ NOTE_B4, 182 }, 
	{ NOTE_GS4, 182 }, 
	{ NOTE_B4, 91 }, 
	{ NOTE_AS4, 91 }, 
	{ NOTE_B4, 182 }, 
	{ NOTE_B3, 91 }, 
	{ NOTE_B3, 91 }, 
	{ NOTE_FS4, 182 }, 
	{ NOTE_AS3, 91 }, 
	{ NOTE_AS3, 91 }, 
	{ NOTE_FS4, 181 }, 
	{ NOTE_GS4, 182 }, 
	{ NOTE_B4, 91 }, 
	{ NOTE_AS4, 91 }, 
	{ NOTE_B4, 182 }, 
	{ NOTE_GS4, 182 }, 
	{ NOTE_B4, 91 }, 
	{ NOTE_AS4, 91 }, 
	{ NOTE_B4, 182 }, 
	{ NOTE_GS4, 182 }, 
	{ NOTE_B4, 91 }, 
	{ NOTE_AS4, 90 }, 
	{ NOTE_B4, 182 }, 
	{ NOTE_GS4, 182 }, 
	{ NOTE_B4, 91 }, 
	{ NOTE_AS4, 91 }, 
	{ NOTE_B4, 182 }, 
	{ NOTE_GS4, 364 }, 
	{ NOTE_GS4, 363 }, 
	{ NOTE_CS5, 727 }, 
	{ NOTE_CS5, 242 }, 
	{ NOTE_DS5, 242 }, 
	{ NOTE_E5, 244 }, 
	{ NOTE_DS5, 727 }, 
	{ NOTE_DS5, 242 }, 
	{ NOTE_F5, 242 }, 
	{ NOTE_G5, 244 }, 
	{ NOTE_GS4, 182 }, 
	{ NOTE_B4, 91 }, 
	{ NOTE_AS4, 91 }, 
	{ NOTE_B4, 182 }, 
	{ NOTE_GS4, 182 }, 
	{ NOTE_B4, 91 }, 
	{ NOTE_AS4, 91 }, 
	{ NOTE_B4, 182 }, 
	{ NOTE_GS4, 182 }, 
	{ NOTE_B4, 91 }, 
	{ NOTE_AS4, 90 }, 
	{ NOTE_B4, 182 }, 
	{ NOTE_GS4, 182 }, 
	{ NOTE_B4, 91 }, 
	{ NOTE_AS4, 91 }, 
	{ NOTE_B4, 182 }, 
	{ NOTE_GS4, 364 }, 
	{ NOTE_GS4, 363 }, 
	{ NOTE_GS4, 182 }, 
	{ NOTE_B4, 91 }, 
	{ NOTE_AS4, 91 }, 
	{ NOTE_B4, 182 }, 
	{ NOTE_GS4, 182 }, 
	{ NOTE_B4, 91 }, 
	{ NOTE_AS4, 91 }, 
	{ NOTE_B4, 182 }, 
	{ NOTE_GS4, 182 }, 
	{ NOTE_B4, 91 }, 
	{ NOTE_AS4, 90 }, 
	{ NOTE_B4, 182 }, 
	{ NOTE_GS4, 182 }, 
	{ NOTE_B4, 91 }, 
	{ NOTE_AS4, 91 }, 
	{ NOTE_B4, 182 }, 
	{ NOTE_B3, 91 }, 
	{ NOTE_B3, 91 }, 
	{ NOTE_FS4, 182 }, 
	{ NOTE_AS3, 91 }, 
	{ NOTE_AS3, 91 }, 
	{ NOTE_FS4, 181 }, 
	{ NOTE_GS4, 182 }, 
	{ NOTE_B4, 91 }, 
	{ NOTE_AS4, 91 }, 
	{ NOTE_B4, 182 }, 
	{ NOTE_GS4, 182 }, 
	{ NOTE_B4, 91 }, 
	{ NOTE_AS4, 91 }, 
	{ NOTE_B4, 182 }, 
	{ NOTE_GS4, 182 }, 
	{ NOTE_B4, 91 }, 
	{ NOTE_AS4, 90 }, 
	{ NOTE_B4, 182 }, 
	{ NOTE_GS4, 182 }, 
	{ NOTE_B4, 91 }, 
	{ NOTE_AS4, 91 }, 
	{ NOTE_B4, 182 }, 
	{ NOTE_GS4, 364 }, 
	{ NOTE_GS4, 363 }, 
	{ NOTE_CS5, 727 }, 
	{ NOTE_CS5, 242 }, 
	{ NOTE_DS5, 242 }, 
	{ NOTE_E5, 244 }, 
	{ NOTE_DS5, 727 }, 
	{ NOTE_DS5, 242 }, 
	{ NOTE_F5, 242 }, 
	{ NOTE_G5, 244 }, 
	{ NOTE_DS6, 91 }, 
	{ NOTE_GS6, 91 }, 
	{ NOTE_DS6, 91 }, 
	{ NOTE_B5, 91 }, 
	{ NOTE_DS6, 91 }, 
	{ NOTE_B5, 91 }, 
	{ NOTE_GS5, 91 }, 
	{ NOTE_B5, 91 }, 
	{ NOTE_GS5, 91 }, 
	{ NOTE_DS5, 91 }, 
	{ NOTE_GS5, 91 }, 
	{ NOTE_DS5, 91 }, 
	{ NOTE_GS5, 91 }, 
	{ NOTE_B5, 91 }, 
	{ NOTE_GS5, 91 }, 
	{ NOTE_B5, 90 }, 
	{ NOTE_CS6, 91 }, 
	{ NOTE_FS6, 91 }, 
	{ NOTE_CS6, 91 }, 
	{ NOTE_AS5, 91 }, 
	{ NOTE_CS6, 91 }, 
	{ NOTE_AS5, 91 }, 
	{ NOTE_FS5, 91 }, 
	{ NOTE_AS5, 91 }, 
	{ NOTE_FS5, 91 }, 
	{ NOTE_CS5, 91 }, 
	{ NOTE_FS5, 91 }, 
	{ NOTE_CS5, 91 }, 
	{ NOTE_FS5, 91 }, 
	{ NOTE_AS5, 91 }, 
	{ NOTE_FS5, 91 }, 
	{ NOTE_AS5, 90 }, 
	{ NOTE_CS5, 727 }, 
	{ NOTE_CS5, 242 }, 
	{ NOTE_DS5, 242 }, 
	{ NOTE_E5, 244 }, 
	{ NOTE_DS5, 727 }, 
	{ NOTE_DS5, 242 }, 
	{ NOTE_F5, 242 }, 
	{ NOTE_G5, 244 }, 
	{ NOTE_E6, 91 }, 
	{ NOTE_DS6, 91 }, 
	{ NOTE_CS6, 91 }, 
	{ NOTE_B5, 91 }, 
	{ NOTE_AS5, 91 }, 
	{ NOTE_GS5, 91 }, 
	{ NOTE_G5, 91 }, 
	{ NOTE_GS5, 91 }, 
	{ NOTE_AS5, 91 }, 
	{ NOTE_GS5, 91 }, 
	{ NOTE_G5, 91 }, 
	{ NOTE_E5, 91 }, 
	{ NOTE_DS5, 91 }, 
	{ NOTE_CS5, 91 }, 
	{ NOTE_B4, 91 }, 
	{ NOTE_AS4, 90 }, 
	{ NOTE_E5, 91 }, 
	{ NOTE_DS5, 91 }, 
	{ NOTE_CS5, 91 }, 
	{ NOTE_B4, 91 }, 
	{ NOTE_AS4, 91 }, 
	{ NOTE_GS4, 91 }, 
	{ NOTE_G4, 91 }, 
	{ NOTE_GS4, 91 }, 
	{ NOTE_AS4, 91 }, 
	{ NOTE_GS4, 91 }, 
	{ NOTE_G4, 91 }, 
	{ NOTE_E4, 91 }, 
	{ NOTE_DS4, 91 }, 
	{ NOTE_CS4, 91 }, 
	{ NOTE_B3, 91 }, 
	{ NOTE_AS3, 90 }, 
	{ NOTE_GS3, 2910 }, 
	{ NOTE_CS4, 121 }, 
	{ NOTE_CS4, 121 }, 
	{ NOTE_CS4, 121 }, 
	{ NOTE_CS4, 121 }, 
	{ NOTE_CS4, 121 }, 
	{ NOTE_CS4, 121 }, 
	{ NOTE_CS4, 121 }, 
	{ NOTE_CS4, 121 }, 
	{ NOTE_CS4, 121 }, 
	{ NOTE_CS4, 121 }, 
	{ NOTE_CS4, 121 }, 
	{ NOTE_CS4, 124 }, 
	{ NOTE_CS4, 121 }, 
	{ NOTE_CS4, 121 }, 
	{ NOTE_CS4, 121 }, 
	{ NOTE_CS4, 121 }, 
	{ NOTE_CS4, 121 }, 
	{ NOTE_CS4, 121 }, 
	{ NOTE_CS4, 121 }, 
	{ NOTE_CS4, 121 }, 
	{ NOTE_CS4, 121 }, 
	{ NOTE_CS4, 121 }, 
	{ NOTE_CS4, 121 }, 
	{ NOTE_CS4, 124 }, 
	{ NOTE_CS4, 121 }, 
	{ NOTE_CS4, 121 }, 
	{ NOTE_CS4, 121 }, 
	{ NOTE_CS4, 121 }, 
	{ NOTE_CS4, 121 }, 
	{ NOTE_CS4, 121 }, 
	{ NOTE_CS4, 121 }, 
	{ NOTE_CS4, 121 }, 
	{ NOTE_CS4, 121 }, 
	{ NOTE_CS4, 121 }, 
	{ NOTE_CS4, 121 }, 
	{ NOTE_CS4, 124 }, 
	{ NOTE_CS4, 121 }, 
	{ NOTE_CS4, 121 }, 
	{ NOTE_CS4, 121 }, 
	{ NOTE_CS4, 121 }, 
	{ NOTE_CS4, 121 }, 
	{ NOTE_CS4, 121 }, 
	{ NOTE_CS4, 121 }, 
	{ NOTE_CS4, 121 }, 
	{ NOTE_CS4, 121 }, 
	{ NOTE_CS4, 121 }, 
	{ NOTE_CS4, 121 }, 
	{ NOTE_CS4, 124 }, 
	{ NOTE_AS3, 364 }, 
	{ NOTE_REST, 363 }, 
	{ NOTE_DS4, 182 }, 
	{ NOTE_GS3, 91 }, 
	{ NOTE_GS3, 91 }, 
	{ NOTE_GS3, 91 }, 
	{ NOTE_GS3, 91 }, 
	{ NOTE_DS4, 182 }, 
	{ NOTE_DS4, 182 }, 
	{ NOTE_GS3, 91 }, 
	{ NOTE_GS3, 91 }, 
	{ NOTE_GS3, 91 }, 
	{ NOTE_GS3, 91 }, 
	{ NOTE_GS3, 91 }, 
	{ NOTE_GS3, 90 }, 
	{ NOTE_DS4, 182 }, 
	{ NOTE_GS3, 91 }, 
	{ NOTE_GS3, 91 }, 
	{ NOTE_GS3, 91 }, 
	{ NOTE_GS3, 91 }, 
	{ NOTE_DS4, 182 }, 
	{ NOTE_DS4, 182 }, 
	{ NOTE_GS3, 91 }, 
	{ NOTE_GS3, 91 }, 
	{ NOTE_GS3, 91 }, 
	{ NOTE_GS3, 91 }, 
	{ NOTE_DS4, 181 }, 
	{ NOTE_CS4, 909 }, 
	{ NOTE_CS4, 364 }, 
	{ NOTE_CS4, 182 }, 
	{ NOTE_FS4, 182 }, 
	{ NOTE_B3, 91 }, 
	{ NOTE_B3, 91 }, 
	{ NOTE_B3, 91 }, 
	{ NOTE_B3, 91 }, 
	{ NOTE_FS4, 182 }, 
	{ NOTE_CS4, 182 }, 
	{ NOTE_CS4, 182 }, 
	{ NOTE_CS4, 182 }, 
	{ NOTE_CS4, 181 }, 
	{ NOTE_DS4, 182 }, 
	{ NOTE_GS3, 91 }, 
	{ NOTE_GS3, 91 }, 
	{ NOTE_GS3, 91 }, 
	{ NOTE_GS3, 91 }, 
	{ NOTE_DS4, 182 }, 
	{ NOTE_DS4, 182 }, 
	{ NOTE_GS3, 91 }, 
	{ NOTE_GS3, 91 }, 
	{ NOTE_GS3, 91 }, 
	{ NOTE_GS3, 91 }, 
	{ NOTE_DS4, 181 }, 
	{ NOTE_DS4, 182 }, 
	{ NOTE_GS3, 91 }, 
	{ NOTE_GS3, 91 }, 
	{ NOTE_GS3, 91 }, 
	{ NOTE_GS3, 91 }, 
	{ NOTE_DS4, 182 }, 
	{ NOTE_DS4, 182 }, 
	{ NOTE_GS3, 91 }, 
	{ NOTE_GS3, 91 }, 
	{ NOTE_GS3, 91 }, 
	{ NOTE_GS3, 91 }, 
	{ NOTE_DS4, 181 }, 
	{ NOTE_B3, 182 }, 
	{ NOTE_E3, 91 }, 
	{ NOTE_E3, 91 }, 
	{ NOTE_B3, 182 }, 
	{ NOTE_E3, 91 }, 
	{ NOTE_E3, 91 }, 
	{ NOTE_B3, 182 }, 
	{ NOTE_E3, 91 }, 
	{ NOTE_E3, 91 }, 
	{ NOTE_B3, 182 }, 
	{ NOTE_E3, 91 }, 
	{ NOTE_E3, 90 }, 
	{ NOTE_CS4, 91 }, 
	{ NOTE_CS4, 91 }, 
	{ NOTE_CS4, 91 }, 
	{ NOTE_CS4, 91 }, 
	{ NOTE_CS4, 91 }, 
	{ NOTE_CS4, 91 }, 
	{ NOTE_CS4, 91 }, 
	{ NOTE_CS4, 91 }, 
	{ NOTE_FS3, 91 }, 
	{ NOTE_FS3, 91 }, 
	{ NOTE_FS3, 91 }, 
	{ NOTE_FS3, 91 }, 
	{ NOTE_FS3, 91 }, 
	{ NOTE_FS3, 91 }, 
	{ NOTE_FS3, 91 }, 
	{ NOTE_FS3, 90 }, 
	{ NOTE_DS4, 182 }, 
	{ NOTE_GS3, 91 }, 
	{ NOTE_GS3, 91 }, 
	{ NOTE_GS3, 91 }, 
	{ NOTE_GS3, 91 }, 
	{ NOTE_DS4, 182 }, 
	{ NOTE_DS4, 182 }, 
	{ NOTE_GS3, 91 }, 
	{ NOTE_GS3, 91 }, 
	{ NOTE_GS3, 91 }, 
	{ NOTE_GS3, 91 }, 
	{ NOTE_DS4, 181 }, 
	{ NOTE_DS4, 182 }, 
	{ NOTE_GS3, 91 }, 
	{ NOTE_GS3, 91 }, 
	{ NOTE_GS3, 91 }, 
	{ NOTE_GS3, 91 }, 
	{ NOTE_DS4, 182 }, 
	{ NOTE_DS4, 182 }, 
	{ NOTE_GS3, 91 }, 
	{ NOTE_GS3, 91 }, 
	{ NOTE_GS3, 91 }, 
	{ NOTE_GS3, 91 }, 
	{ NOTE_DS4, 181 }, 
	{ NOTE_CS4, 909 }, 
	{ NOTE_CS4, 364 }, 
	{ NOTE_CS4, 182 }, 
	{ NOTE_FS4, 182 }, 
	{ NOTE_B3, 91 }, 
	{ NOTE_B3, 91 }, 
	{ NOTE_B3, 91 }, 
	{ NOTE_B3, 91 }, 
	{ NOTE_FS4, 182 }, 
	{ NOTE_CS4, 182 }, 
	{ NOTE_CS4, 182 }, 
	{ NOTE_CS4, 182 }, 
	{ NOTE_CS4, 181 }, 
	{ NOTE_DS4, 182 }, 
	{ NOTE_GS3, 91 }, 
	{ NOTE_GS3, 91 }, 
	{ NOTE_GS3, 91 }, 
	{ NOTE_GS3, 91 }, 
	{ NOTE_DS4, 182 }, 
	{ NOTE_DS4, 182 }, 
	{ NOTE_GS3, 91 }, 
	{ NOTE_GS3, 91 }, 
	{ NOTE_GS3, 91 }, 
	{ NOTE_GS3, 91 }, 
	{ NOTE_DS4, 181 }, 
	{ NOTE_DS4, 182 }, 
	{ NOTE_GS3, 91 }, 
	{ NOTE_GS3, 91 }, 
	{ NOTE_GS3, 91 }, 
	{ NOTE_GS3, 91 }, 
	{ NOTE_DS4, 182 }, 
	{ NOTE_DS4, 182 }, 
	{ NOTE_GS3, 91 }, 
	{ NOTE_GS3, 91 }, 
	{ NOTE_GS3, 91 }, 
	{ NOTE_GS3, 91 }, 
	{ NOTE_DS4, 181 }, 
	{ NOTE_B3, 182 }, 
	{ NOTE_E3, 91 }, 
	{ NOTE_E3, 91 }, 
	{ NOTE_B3, 182 }, 
	{ NOTE_E3, 91 }, 
	{ NOTE_E3, 91 }, 
	{ NOTE_B3, 182 }, 
	{ NOTE_E3, 91 }, 
	{ NOTE_E3, 91 }, 
	{ NOTE_B3, 182 }, 
	{ NOTE_E3, 91 }, 
	{ NOTE_E3, 90 }, 
	{ NOTE_CS4, 91 }, 
	{ NOTE_CS4, 91 }, 
	{ NOTE_CS4, 91 }, 
	{ NOTE_CS4, 91 }, 
	{ NOTE_CS4, 91 }, 
	{ NOTE_CS4, 91 }, 
	{ NOTE_CS4, 91 }, 
	{ NOTE_CS4, 91 }, 
	{ NOTE_FS3, 91 }, 
	{ NOTE_FS3, 91 }, 
	{ NOTE_FS3, 91 }, 
	{ NOTE_FS3, 91 }, 
	{ NOTE_FS3, 91 }, 
	{ NOTE_FS3, 91 }, 
	{ NOTE_FS3, 91 }, 
	{ NOTE_FS3, 90 }, 
	{ NOTE_GS4, 1455 }, 
	{ NOTE_DS4, 727 }, 
	{ NOTE_CS4, 182 }, 
	{ NOTE_REST, 182 }, 
	{ NOTE_CS4, 364 }, 
	{ NOTE_B3, 182 }, 
	{ NOTE_E3, 91 }, 
	{ NOTE_E3, 91 }, 
	{ NOTE_E3, 91 }, 
	{ NOTE_E3, 91 }, 
	{ NOTE_B3, 182 }, 
	{ NOTE_B3, 182 }, 
	{ NOTE_E3, 91 }, 
	{ NOTE_E3, 91 }, 
	{ NOTE_E3, 91 }, 
	{ NOTE_E3, 91 }, 
	{ NOTE_B3, 181 }, 
	{ NOTE_FS4, 727 }, 
	{ NOTE_CS4, 182 }, 
	{ NOTE_REST, 182 }, 
	{ NOTE_CS4, 364 }, 
	{ NOTE_E3, 91 }, 
	{ NOTE_E3, 91 }, 
	{ NOTE_B3, 182 }, 
	{ NOTE_E3, 91 }, 
	{ NOTE_E3, 91 }, 
	{ NOTE_B3, 182 }, 
	{ NOTE_E3, 91 }, 
	{ NOTE_E3, 91 }, 
	{ NOTE_B3, 182 }, 
	{ NOTE_E3, 91 }, 
	{ NOTE_E3, 91 }, 
	{ NOTE_B3, 181 }, 
	{ NOTE_DS4, 727 }, 
	{ NOTE_CS4, 182 }, 
	{ NOTE_REST, 182 }, 
	{ NOTE_CS4, 364 }, 
	{ NOTE_B3, 182 }, 
	{ NOTE_E3, 91 }, 
	{ NOTE_E3, 91 }, 
	{ NOTE_E3, 91 }, 
	{ NOTE_E3, 91 }, 
	{ NOTE_B3, 182 }, 
	{ NOTE_B3, 182 }, 
	{ NOTE_E3, 91 }, 
	{ NOTE_E3, 91 }, 
	{ NOTE_E3, 91 }, 
	{ NOTE_E3, 91 }, 
	{ NOTE_B3, 181 }, 
	{ NOTE_AS3, 182 }, 
	{ NOTE_AS3, 182 }, 
	{ NOTE_AS3, 182 }, 
	{ NOTE_AS3, 182 }, 
	{ NOTE_AS3, 364 }, 
	{ NOTE_REST, 363 }, 
	{ NOTE_GS4, 182 }, 
	{ NOTE_B4, 91 }, 
	{ NOTE_AS4, 91 }, 
	{ NOTE_B4, 182 }, 
	{ NOTE_GS4, 182 }, 
	{ NOTE_B4, 91 }, 
	{ NOTE_AS4, 91 }, 
	{ NOTE_B4, 182 }, 
	{ NOTE_GS4, 182 }, 
	{ NOTE_B4, 91 }, 
	{ NOTE_AS4, 90 }, 
	{ NOTE_B4, 182 }, 
	{ NOTE_GS4, 182 }, 
	{ NOTE_B4, 91 }, 
	{ NOTE_AS4, 91 }, 
	{ NOTE_B4, 182 }, 
	{ NOTE_GS4, 364 }, 
	{ NOTE_GS4, 363 }, 
	{ NOTE_GS4, 182 }, 
	{ NOTE_B4, 91 }, 
	{ NOTE_AS4, 91 }, 
	{ NOTE_B4, 182 }, 
	{ NOTE_GS4, 182 }, 
	{ NOTE_B4, 91 }, 
	{ NOTE_AS4, 91 }, 
	{ NOTE_B4, 182 }, 
	{ NOTE_GS4, 182 }, 
	{ NOTE_B4, 91 }, 
	{ NOTE_AS4, 90 }, 
	{ NOTE_B4, 182 }, 
	{ NOTE_GS4, 182 }, 
	{ NOTE_B4, 91 }, 
	{ NOTE_AS4, 91 }, 
	{ NOTE_B4, 182 }, 
	{ NOTE_B3, 91 }, 
	{ NOTE_B3, 91 }, 
	{ NOTE_FS4, 182 }, 
	{ NOTE_AS3, 91 }, 
	{ NOTE_AS3, 91 }, 
	{ NOTE_FS4, 181 }, 
	{ NOTE_GS4, 182 }, 
	{ NOTE_B4, 91 }, 
	{ NOTE_AS4, 91 }, 
	{ NOTE_B4, 182 }, 
	{ NOTE_GS4, 182 }, 
	{ NOTE_B4, 91 }, 
	{ NOTE_AS4, 91 }, 
	{ NOTE_B4, 182 }, 
	{ NOTE_GS4, 182 }, 
	{ NOTE_B4, 91 }, 
	{ NOTE_AS4, 90 }, 
	{ NOTE_B4, 182 }, 
	{ NOTE_GS4, 182 }, 
	{ NOTE_B4, 91 }, 
	{ NOTE_AS4, 91 }, 
	{ NOTE_B4, 182 }, 
	{ NOTE_GS4, 364 }, 
	{ NOTE_GS4, 363 }, 
	{ NOTE_CS5, 727 }, 
	{ NOTE_CS5, 242 }, 
	{ NOTE_DS5, 242 }, 
	{ NOTE_E5, 244 }, 
	{ NOTE_DS5, 727 }, 
	{ NOTE_DS5, 242 }, 
	{ NOTE_F5, 242 }, 
	{ NOTE_G5, 244 }, 
	{ NOTE_DS4, 182 }, 
	{ NOTE_GS3, 91 }, 
	{ NOTE_GS3, 91 }, 
	{ NOTE_GS3, 91 }, 
	{ NOTE_GS3, 91 }, 
	{ NOTE_DS4, 182 }, 
	{ NOTE_DS4, 182 }, 
	{ NOTE_GS3, 91 }, 
	{ NOTE_GS3, 91 }, 
	{ NOTE_GS3, 91 }, 
	{ NOTE_GS3, 91 }, 
	{ NOTE_DS4, 181 }, 
	{ NOTE_DS4, 182 }, 
	{ NOTE_GS3, 91 }, 
	{ NOTE_GS3, 91 }, 
	{ NOTE_GS3, 91 }, 
	{ NOTE_GS3, 91 }, 
	{ NOTE_DS4, 182 }, 
	{ NOTE_DS4, 182 }, 
	{ NOTE_GS3, 91 }, 
	{ NOTE_GS3, 91 }, 
	{ NOTE_GS3, 91 }, 
	{ NOTE_GS3, 91 }, 
	{ NOTE_DS4, 181 }, 
	{ NOTE_CS4, 909 }, 
	{ NOTE_CS4, 364 }, 
	{ NOTE_CS4, 182 }, 
	{ NOTE_FS4, 182 }, 
	{ NOTE_B3, 91 }, 
	{ NOTE_B3, 91 }, 
	{ NOTE_B3, 91 }, 
	{ NOTE_B3, 91 }, 
	{ NOTE_FS4, 182 }, 
	{ NOTE_CS4, 182 }, 
	{ NOTE_CS4, 182 }, 
	{ NOTE_CS4, 182 }, 
	{ NOTE_CS4, 181 }, 
	{ NOTE_DS4, 182 }, 
	{ NOTE_GS3, 91 }, 
	{ NOTE_GS3, 91 }, 
	{ NOTE_GS3, 91 }, 
	{ NOTE_GS3, 91 }, 
	{ NOTE_DS4, 182 }, 
	{ NOTE_DS4, 182 }, 
	{ NOTE_GS3, 91 }, 
	{ NOTE_GS3, 91 }, 
	{ NOTE_GS3, 91 }, 
	{ NOTE_GS3, 91 }, 
	{ NOTE_DS4, 181 }, 
	{ NOTE_DS4, 182 }, 
	{ NOTE_GS3, 91 }, 
	{ NOTE_GS3, 91 }, 
	{ NOTE_GS3, 91 }, 
	{ NOTE_GS3, 91 }, 
	{ NOTE_DS4, 182 }, 
	{ NOTE_DS4, 182 }, 
	{ NOTE_GS3, 91 }, 
	{ NOTE_GS3, 91 }, 
	{ NOTE_GS3, 91 }, 
	{ NOTE_GS3, 91 }, 
	{ NOTE_DS4, 181 }, 
	{ NOTE_B3, 182 }, 
	{ NOTE_E3, 91 }, 
	{ NOTE_E3, 91 }, 
	{ NOTE_B3, 182 }, 
	{ NOTE_E3, 91 }, 
	{ NOTE_E3, 91 }, 
	{ NOTE_B3, 182 }, 
	{ NOTE_E3, 91 }, 
	{ NOTE_E3, 91 }, 
	{ NOTE_B3, 182 }, 
	{ NOTE_E3, 91 }, 
	{ NOTE_E3, 90 }, 
	{ NOTE_CS4, 91 }, 
	{ NOTE_CS4, 91 }, 
	{ NOTE_CS4, 91 }, 
	{ NOTE_CS4, 91 }, 
	{ NOTE_CS4, 91 }, 
	{ NOTE_CS4, 91 }, 
	{ NOTE_CS4, 91 }, 
	{ NOTE_CS4, 91 }, 
	{ NOTE_FS3, 91 }, 
	{ NOTE_FS3, 91 }, 
	{ NOTE_FS3, 91 }, 
	{ NOTE_FS3, 91 }, 
	{ NOTE_FS3, 91 }, 
	{ NOTE_FS3, 91 }, 
	{ NOTE_FS3, 91 }, 
	{ NOTE_FS3, 90 }, 
	{ NOTE_DS4, 182 }, 
	{ NOTE_GS3, 91 }, 
	{ NOTE_GS3, 91 }, 
	{ NOTE_GS3, 91 }, 
	{ NOTE_GS3, 91 }, 
	{ NOTE_DS4, 182 }, 
	{ NOTE_DS4, 182 }, 
	{ NOTE_GS3, 91 }, 
	{ NOTE_GS3, 91 }, 
	{ NOTE_GS3, 91 }, 
	{ NOTE_GS3, 91 }, 
	{ NOTE_DS4, 181 }, 
	{ NOTE_DS4, 182 }, 
	{ NOTE_GS3, 91 }, 
	{ NOTE_GS3, 91 }, 
	{ NOTE_GS3, 91 }, 
	{ NOTE_GS3, 91 }, 
	{ NOTE_DS4, 182 }, 
	{ NOTE_DS4, 182 }, 
	{ NOTE_GS3, 91 }, 
	{ NOTE_GS3, 91 }, 
	{ NOTE_GS3, 91 }, 
	{ NOTE_GS3, 91 }, 
	{ NOTE_DS4, 181 }, 
	{ NOTE_CS4, 909 }, 
	{ NOTE_CS4, 364 }, 
	{ NOTE_CS4, 182 }, 
	{ NOTE_FS4, 182 }, 
	{ NOTE_B3, 91 }, 
	{ NOTE_B3, 91 }, 
	{ NOTE_B3, 91 }, 
	{ NOTE_B3, 91 }, 
	{ NOTE_FS4, 182 }, 
	{ NOTE_CS4, 182 }, 
	{ NOTE_CS4, 182 }, 
	{ NOTE_CS4, 182 }, 
	{ NOTE_CS4, 181 }, 
	{ NOTE_DS4, 182 }, 
	{ NOTE_GS3, 91 }, 
	{ NOTE_GS3, 91 }, 
	{ NOTE_GS3, 91 }, 
	{ NOTE_GS3, 91 }, 
	{ NOTE_DS4, 182 }, 
	{ NOTE_DS4, 182 }, 
	{ NOTE_GS3, 91 }, 
	{ NOTE_GS3, 91 }, 
	{ NOTE_GS3, 91 }, 
	{ NOTE_GS3, 91 }, 
	{ NOTE_DS4, 181 }, 
	{ NOTE_DS4, 182 }, 
	{ NOTE_GS3, 91 }, 
	{ NOTE_GS3, 91 }, 
	{ NOTE_GS3, 91 }, 
	{ NOTE_GS3, 91 }, 
	{ NOTE_DS4, 182 }, 
	{ NOTE_DS4, 182 }, 
	{ NOTE_GS3, 91 }, 
	{ NOTE_GS3, 91 }, 
	{ NOTE_GS3, 91 }, 
	{ NOTE_GS3, 91 }, 
	{ NOTE_DS4, 181 }, 
	{ NOTE_B3, 182 }, 
	{ NOTE_E3, 91 }, 
	{ NOTE_E3, 91 }, 
	{ NOTE_B3, 182 }, 
	{ NOTE_E3, 91 }, 
	{ NOTE_E3, 91 }, 
	{ NOTE_B3, 182 }, 
	{ NOTE_E3, 91 }, 
	{ NOTE_E3, 91 }, 
	{ NOTE_B3, 182 }, 
	{ NOTE_E3, 91 }, 
	{ NOTE_E3, 90 }, 
	{ NOTE_CS4, 91 }, 
	{ NOTE_CS4, 91 }, 
	{ NOTE_CS4, 91 }, 
	{ NOTE_CS4, 91 }, 
	{ NOTE_CS4, 91 }, 
	{ NOTE_CS4, 91 }, 
	{ NOTE_CS4, 91 }, 
	{ NOTE_CS4, 91 }, 
	{ NOTE_FS3, 91 }, 
	{ NOTE_FS3, 91 }, 
	{ NOTE_FS3, 91 }, 
	{ NOTE_FS3, 91 }, 
	{ NOTE_FS3, 91 }, 
	{ NOTE_FS3, 91 }, 
	{ NOTE_FS3, 91 }, 
	{ NOTE_FS3, 90 }, 
	{ NOTE_GS4, 1455 }, 
	{ NOTE_DS4, 727 }, 
	{ NOTE_CS4, 182 }, 
	{ NOTE_REST, 182 }, 
	{ NOTE_CS4, 364 }, 
	{ NOTE_B3, 182 }, 
	{ NOTE_E3, 91 }, 
	{ NOTE_E3, 91 }, 
	{ NOTE_E3, 91 }, 
	{ NOTE_E3, 91 }, 
	{ NOTE_B3, 182 }, 
	{ NOTE_B3, 182 }, 
	{ NOTE_E3, 91 }, 
	{ NOTE_E3, 91 }, 
	{ NOTE_E3, 91 }, 
	{ NOTE_E3, 91 }, 
	{ NOTE_B3, 181 }, 
	{ NOTE_FS4, 727 }, 
	{ NOTE_CS4, 182 }, 
	{ NOTE_REST, 182 }, 
	{ NOTE_CS4, 364 }, 
	{ NOTE_E3, 91 }, 
	{ NOTE_E3, 91 }, 
	{ NOTE_B3, 182 }, 
	{ NOTE_E3, 91 }, 
	{ NOTE_E3, 91 }, 
	{ NOTE_B3, 182 }, 
	{ NOTE_E3, 91 }, 
	{ NOTE_E3, 91 }, 
	{ NOTE_B3, 182 }, 
	{ NOTE_E3, 91 }, 
	{ NOTE_E3, 91 }, 
	{ NOTE_B3, 181 }, 
	{ NOTE_DS4, 727 }, 
	{ NOTE_CS4, 182 }, 
	{ NOTE_REST, 182 }, 
	{ NOTE_CS4, 364 }, 
	{ NOTE_B3, 182 }, 
	{ NOTE_E3, 91 }, 
	{ NOTE_E3, 91 }, 
	{ NOTE_E3, 91 }, 
	{ NOTE_E3, 91 }, 
	{ NOTE_B3, 182 }, 
	{ NOTE_B3, 182 }, 
	{ NOTE_E3, 91 }, 
	{ NOTE_E3, 91 }, 
	{ NOTE_E3, 91 }, 
	{ NOTE_E3, 91 }, 
	{ NOTE_B3, 181 }, 
	{ NOTE_CS4, 182 }, 
	{ NOTE_CS4, 182 }, 
	{ NOTE_CS4, 182 }, 
	{ NOTE_CS4, 182 }, 
	{ NOTE_CS4, 364 }, 
	{ NOTE_REST, 363 }, 
	{ NOTE_FS4, 1455 }, 
	{ NOTE_CS4, 1455 }, 
	{ NOTE_DS4, 1455 }, 
	{ NOTE_AS4, 1455 }, 
	{ NOTE_B3, 182 }, 
	{ NOTE_E3, 91 }, 
	{ NOTE_E3, 91 }, 
	{ NOTE_E3, 91 }, 
	{ NOTE_E3, 91 }, 
	{ NOTE_B3, 182 }, 
	{ NOTE_B3, 182 }, 
	{ NOTE_E3, 91 }, 
	{ NOTE_E3, 91 }, 
	{ NOTE_E3, 91 }, 
	{ NOTE_E3, 91 }, 
	{ NOTE_B3, 181 }, 
	{ NOTE_FS4, 182 }, 
	{ NOTE_B3, 91 }, 
	{ NOTE_B3, 91 }, 
	{ NOTE_B3, 91 }, 
	{ NOTE_B3, 91 }, 
	{ NOTE_FS4, 182 }, 
	{ NOTE_FS4, 182 }, 
	{ NOTE_B3, 91 }, 
	{ NOTE_B3, 91 }, 
	{ NOTE_B3, 91 }, 
	{ NOTE_B3, 91 }, 
	{ NOTE_FS4, 181 }, 
	{ NOTE_FS3, 91 }, 
	{ NOTE_FS3, 91 }, 
	{ NOTE_FS3, 91 }, 
	{ NOTE_FS3, 91 }, 
	{ NOTE_FS3, 91 }, 
	{ NOTE_FS3, 91 }, 
	{ NOTE_FS3, 91 }, 
	{ NOTE_FS3, 91 }, 
	{ NOTE_FS3, 91 }, 
	{ NOTE_FS3, 91 }, 
	{ NOTE_FS3, 91 }, 
	{ NOTE_FS3, 91 }, 
	{ NOTE_FS3, 91 }, 
	{ NOTE_FS3, 91 }, 
	{ NOTE_FS3, 91 }, 
	{ NOTE_FS3, 90 }, 
	{ NOTE_FS3, 91 }, 
	{ NOTE_FS3, 91 }, 
	{ NOTE_FS3, 91 }, 
	{ NOTE_FS3, 91 }, 
	{ NOTE_FS3, 91 }, 
	{ NOTE_FS3, 91 }, 
	{ NOTE_FS3, 91 }, 
	{ NOTE_FS3, 91 }, 
	{ NOTE_FS3, 91 }, 
	{ NOTE_FS3, 91 }, 
	{ NOTE_FS3, 91 }, 
	{ NOTE_FS3, 91 }, 
	{ NOTE_FS3, 91 }, 
	{ NOTE_FS3, 91 }, 
	{ NOTE_FS3, 91 }, 
	{ NOTE_FS3, 90 }, 
	{ NOTE_FS4, 1455 }, 
	{ NOTE_FS4, 727 }, 
	{ NOTE_FS3, 728 }, 
	{ NOTE_DS4, 727 }, 
	{ NOTE_AS4, 364 }, 
	{ NOTE_B4, 364 }, 
	{ NOTE_AS3, 727 }, 
	{ NOTE_AS3, 728 }, 
	{ NOTE_B3, 182 }, 
	{ NOTE_E3, 91 }, 
	{ NOTE_E3, 91 }, 
	{ NOTE_E3, 91 }, 
	{ NOTE_E3, 91 }, 
	{ NOTE_B3, 182 }, 
	{ NOTE_B3, 182 }, 
	{ NOTE_E3, 91 }, 
	{ NOTE_E3, 91 }, 
	{ NOTE_E3, 91 }, 
	{ NOTE_E3, 91 }, 
	{ NOTE_E3, 91 }, 
	{ NOTE_E3, 90 }, 
	{ NOTE_CS4, 364 }, 
	{ NOTE_REST, 364 }, 
	{ NOTE_REST, 727 }, 
	{ NOTE_GS4, 182 }, 
	{ NOTE_B4, 91 }, 
	{ NOTE_AS4, 91 }, 
	{ NOTE_B4, 182 }, 
	{ NOTE_GS4, 182 }, 
	{ NOTE_B4, 91 }, 
	{ NOTE_AS4, 91 }, 
	{ NOTE_B4, 182 }, 
	{ NOTE_GS4, 182 }, 
	{ NOTE_B4, 91 }, 
	{ NOTE_AS4, 90 }, 
	{ NOTE_B4, 182 }, 
	{ NOTE_GS4, 182 }, 
	{ NOTE_B4, 91 }, 
	{ NOTE_AS4, 91 }, 
	{ NOTE_B4, 182 }, 
	{ NOTE_B4, 364 }, 
	{ NOTE_B4, 363 }, 
	{ NOTE_E5, 545 }, 
	{ NOTE_E5, 545 }, 
	{ NOTE_FS5, 182 }, 
	{ NOTE_FS5, 183 }, 
	{ NOTE_FS5, 1455 }, 
	{ NOTE_E5, 545 }, 
	{ NOTE_E6, 545 }, 
	{ NOTE_FS5, 182 }, 
	{ NOTE_GS5, 183 }, 
	{ NOTE_B6, 1455 }, 
	{ NOTE_GS5, 182 }, 
	{ NOTE_E5, 182 }, 
	{ NOTE_E5, 182 }, 
	{ NOTE_A5, 182 }, 
	{ NOTE_E5, 182 }, 
	{ NOTE_E5, 182 }, 
	{ NOTE_A5, 182 }, 
	{ NOTE_B5, 181 }, 
	{ NOTE_FS5, 545 }, 
	{ NOTE_FS5, 91 }, 
	{ NOTE_E5, 91 }, 
	{ NOTE_FS5, 728 }, 
	{ NOTE_E5, 182 }, 
	{ NOTE_CS5, 182 }, 
	{ NOTE_CS5, 182 }, 
	{ NOTE_FS5, 182 }, 
	{ NOTE_CS5, 182 }, 
	{ NOTE_CS5, 182 }, 
	{ NOTE_FS5, 182 }, 
	{ NOTE_GS5, 181 }, 
	{ NOTE_C6, 91 }, 
	{ NOTE_GS5, 91 }, 
	{ NOTE_A5, 91 }, 
	{ NOTE_C6, 91 }, 
	{ NOTE_CS6, 91 }, 
	{ NOTE_A5, 91 }, 
	{ NOTE_C6, 91 }, 
	{ NOTE_CS6, 91 }, 
	{ NOTE_DS6, 91 }, 
	{ NOTE_CS6, 91 }, 
	{ NOTE_C6, 91 }, 
	{ NOTE_A5, 91 }, 
	{ NOTE_GS5, 91 }, 
	{ NOTE_FS5, 91 }, 
	{ NOTE_E5, 91 }, 
	{ NOTE_DS5, 90 }, 
	{ NOTE_E5, 545 }, 
	{ NOTE_E5, 545 }, 
	{ NOTE_FS5, 182 }, 
	{ NOTE_FS5, 183 }, 
	{ NOTE_FS5, 1455 }, 
	{ NOTE_E5, 545 }, 
	{ NOTE_E5, 545 }, 
	{ NOTE_FS5, 182 }, 
	{ NOTE_GS5, 183 }, 
	{ NOTE_FS5, 1455 }, 
	{ NOTE_GS5, 182 }, 
	{ NOTE_E5, 182 }, 
	{ NOTE_E5, 182 }, 
	{ NOTE_A5, 182 }, 
	{ NOTE_E5, 182 }, 
	{ NOTE_E5, 182 }, 
	{ NOTE_A5, 182 }, 
	{ NOTE_B5, 181 }, 
	{ NOTE_FS5, 545 }, 
	{ NOTE_FS5, 91 }, 
	{ NOTE_E5, 91 }, 
	{ NOTE_FS5, 728 }, 
	{ NOTE_E5, 545 }, 
	{ NOTE_FS5, 182 }, 
	{ NOTE_FS5, 545 }, 
	{ NOTE_FS5, 91 }, 
	{ NOTE_E5, 92 }, 
	{ NOTE_G5, 545 }, 
	{ NOTE_GS5, 182 }, 
	{ NOTE_AS5, 728 }, 
	{ NOTE_FS4, 91 }, 
	{ NOTE_G4, 91 }, 
	{ NOTE_GS4, 727 }, 
	{ NOTE_B4, 91 }, 
	{ NOTE_DS5, 91 }, 
	{ NOTE_GS5, 91 }, 
	{ NOTE_B5, 91 }, 
	{ NOTE_DS6, 91 }, 
	{ NOTE_GS6, 91 }, 
	{ NOTE_AS6, 61 }, 
	{ NOTE_B6, 61 }, 
	{ NOTE_AS6, 61 }, 
	{ NOTE_GS6, 91 }, 
	{ NOTE_FS6, 91 }, 
	{ NOTE_GS6, 91 }, 
	{ NOTE_FS6, 1181 }, 
	{ NOTE_GS6, 91 }, 
	{ NOTE_FS6, 91 }, 
	{ NOTE_DS6, 91 }, 
	{ NOTE_B6, 91 }, 
	{ NOTE_GS6, 91 }, 
	{ NOTE_FS6, 91 }, 
	{ NOTE_GS6, 91 }, 
	{ NOTE_FS6, 91 }, 
	{ NOTE_DS6, 91 }, 
	{ NOTE_D6, 91 }, 
	{ NOTE_DS6, 91 }, 
	{ NOTE_D6, 91 }, 
	{ NOTE_CS6, 91 }, 
	{ NOTE_B5, 90 }, 
	{ NOTE_CS6, 91 }, 
	{ NOTE_D6, 91 }, 
	{ NOTE_DS6, 61 }, 
	{ NOTE_FS6, 61 }, 
	{ NOTE_DS6, 61 }, 
	{ NOTE_D6, 91 }, 
	{ NOTE_CS6, 91 }, 
	{ NOTE_DS6, 91 }, 
	{ NOTE_D6, 91 }, 
	{ NOTE_CS6, 91 }, 
	{ NOTE_B5, 91 }, 
	{ NOTE_CS6, 544 }, 
	{ NOTE_REST, 182 }, 
	{ NOTE_DS5, 91 }, 
	{ NOTE_E5, 91 }, 
	{ NOTE_FS5, 91 }, 
	{ NOTE_GS5, 91 }, 
	{ NOTE_FS5, 91 }, 
	{ NOTE_E5, 91 }, 
	{ NOTE_DS5, 91 }, 
	{ NOTE_E5, 91 }, 
	{ NOTE_FS5, 91 }, 
	{ NOTE_AS5, 91 }, 
	{ NOTE_B5, 91 }, 
	{ NOTE_GS5, 91 }, 
	{ NOTE_AS5, 91 }, 
	{ NOTE_FS6, 90 }, 
	{ NOTE_B5, 61 }, 
	{ NOTE_AS5, 61 }, 
	{ NOTE_GS5, 61 }, 
	{ NOTE_B5, 61 }, 
	{ NOTE_AS5, 61 }, 
	{ NOTE_A5, 61 }, 
	{ NOTE_B5, 91 }, 
	{ NOTE_GS6, 91 }, 
	{ NOTE_B5, 61 }, 
	{ NOTE_AS5, 61 }, 
	{ NOTE_GS5, 61 }, 
	{ NOTE_B5, 91 }, 
	{ NOTE_FS6, 91 }, 
	{ NOTE_B5, 61 }, 
	{ NOTE_AS5, 61 }, 
	{ NOTE_GS5, 61 }, 
	{ NOTE_B5, 601 }, 
	{ NOTE_AS5, 242 }, 
	{ NOTE_B5, 242 }, 
	{ NOTE_DS6, 182 }, 
	{ NOTE_E6, 182 }, 
	{ NOTE_GS6, 182 }, 
	{ NOTE_AS6, 183 }, 
	{ NOTE_B6, 182 }, 
	{ NOTE_CS7, 1273 }, 
	{ NOTE_E3, 91 }, 
	{ NOTE_E3, 91 }, 
	{ NOTE_E3, 91 }, 
	{ NOTE_E3, 91 }, 
	{ NOTE_E3, 91 }, 
	{ NOTE_E3, 91 }, 
	{ NOTE_E3, 91 }, 
	{ NOTE_E3, 91 }, 
	{ NOTE_E3, 91 }, 
	{ NOTE_E3, 91 }, 
	{ NOTE_E3, 91 }, 
	{ NOTE_E3, 91 }, 
	{ NOTE_E3, 91 }, 
	{ NOTE_E3, 91 }, 
	{ NOTE_E3, 91 }, 
	{ NOTE_E3, 90 }, 
	{ NOTE_E3, 91 }, 
	{ NOTE_E3, 91 }, 
	{ NOTE_E3, 91 }, 
	{ NOTE_E3, 91 }, 
	{ NOTE_E3, 91 }, 
	{ NOTE_E3, 91 }, 
	{ NOTE_E3, 91 }, 
	{ NOTE_E3, 91 }, 
	{ NOTE_E3, 91 }, 
	{ NOTE_E3, 91 }, 
	{ NOTE_E3, 91 }, 
	{ NOTE_E3, 91 }, 
	{ NOTE_E3, 91 }, 
	{ NOTE_E3, 91 }, 
	{ NOTE_E3, 91 }, 
	{ NOTE_E3, 90 }, 
	{ NOTE_FS4, 727 }, 
	{ NOTE_FS4, 728 }, 
	{ NOTE_FS4, 727 }, 
	{ NOTE_CS4, 728 }, 
	{ NOTE_E3, 91 }, 
	{ NOTE_E3, 91 }, 
	{ NOTE_E3, 91 }, 
	{ NOTE_E3, 91 }, 
	{ NOTE_E3, 91 }, 
	{ NOTE_E3, 91 }, 
	{ NOTE_E3, 91 }, 
	{ NOTE_E3, 91 }, 
	{ NOTE_E3, 91 }, 
	{ NOTE_E3, 91 }, 
	{ NOTE_E3, 91 }, 
	{ NOTE_E3, 91 }, 
	{ NOTE_E3, 91 }, 
	{ NOTE_E3, 91 }, 
	{ NOTE_E3, 91 }, 
	{ NOTE_E3, 90 }, 
	{ NOTE_CS4, 91 }, 
	{ NOTE_CS4, 91 }, 
	{ NOTE_CS4, 91 }, 
	{ NOTE_CS4, 91 }, 
	{ NOTE_CS4, 91 }, 
	{ NOTE_CS4, 91 }, 
	{ NOTE_CS4, 91 }, 
	{ NOTE_CS4, 91 }, 
	{ NOTE_CS4, 91 }, 
	{ NOTE_CS4, 91 }, 
	{ NOTE_CS4, 91 }, 
	{ NOTE_CS4, 91 }, 
	{ NOTE_CS4, 91 }, 
	{ NOTE_CS4, 91 }, 
	{ NOTE_CS4, 91 }, 
	{ NOTE_CS4, 90 }, 
	{ NOTE_B4, 242 }, 
	{ NOTE_DS5, 242 }, 
	{ NOTE_G5, 242 }, 
	{ NOTE_B5, 242 }, 
	{ NOTE_C6, 242 }, 
	{ NOTE_DS6, 245 }, 
	{ NOTE_DS6, 1455 }, 
	{ NOTE_REST, 1455 }, 
	{ NOTE_REST, 1455 }, 
	{ NOTE_REST, 1455 }, 
	{ NOTE_REST, 1455 }, 
	{ NOTE_DS3, 91 }, 
	{ NOTE_DS3, 91 }, 
	{ NOTE_DS3, 91 }, 
	{ NOTE_DS3, 91 }, 
	{ NOTE_CS5, 182 }, 
	{ NOTE_B4, 182 }, 
	{ NOTE_DS3, 91 }, 
	{ NOTE_DS3, 91 }, 
	{ NOTE_DS3, 91 }, 
	{ NOTE_DS3, 91 }, 
	{ NOTE_DS5, 91 }, 
	{ NOTE_F5, 91 }, 
	{ NOTE_DS3, 91 }, 
	{ NOTE_DS3, 90 }, 
	{ NOTE_F5, 91 }, 
	{ NOTE_FS5, 91 }, 
	{ NOTE_DS3, 91 }, 
	{ NOTE_DS3, 91 }, 
	{ NOTE_DS3, 91 }, 
	{ NOTE_DS3, 91 }, 
	{ NOTE_GS5, 91 }, 
	{ NOTE_FS5, 91 }, 
	{ NOTE_DS3, 91 }, 
	{ NOTE_DS3, 91 }, 
	{ NOTE_DS3, 91 }, 
	{ NOTE_DS3, 91 }, 
	{ NOTE_DS4, 91 }, 
	{ NOTE_CS4, 91 }, 
	{ NOTE_AS3, 91 }, 
	{ NOTE_GS3, 90 }, 
	{ NOTE_DS3, 91 }, 
	{ NOTE_DS3, 91 }, 
	{ NOTE_DS3, 91 }, 
	{ NOTE_DS3, 91 }, 
	{ NOTE_CS5, 182 }, 
	{ NOTE_B4, 182 }, 
	{ NOTE_DS3, 91 }, 
	{ NOTE_DS3, 91 }, 
	{ NOTE_DS3, 91 }, 
	{ NOTE_DS3, 91 }, 
	{ NOTE_DS5, 91 }, 
	{ NOTE_F5, 91 }, 
	{ NOTE_DS3, 91 }, 
	{ NOTE_DS3, 90 }, 
	{ NOTE_F5, 91 }, 
	{ NOTE_FS5, 91 }, 
	{ NOTE_DS3, 91 }, 
	{ NOTE_DS3, 91 }, 
	{ NOTE_FS3, 182 }, 
	{ NOTE_GS3, 182 }, 
	{ NOTE_AS3, 182 }, 
	{ NOTE_GS3, 182 }, 
	{ NOTE_GS4, 182 }, 
	{ NOTE_G4, 908 }, 
	{ NOTE_AS4, 242 }, 
	{ NOTE_AS4, 242 }, 
	{ NOTE_C5, 244 }, 
	{ NOTE_C5, 182 }, 
	{ NOTE_D5, 242 }, 
	{ NOTE_C5, 242 }, 
	{ NOTE_AS4, 242 }, 
	{ NOTE_AS4, 182 }, 
	{ NOTE_G4, 182 }, 
	{ NOTE_DS3, 183 }, 
	{ NOTE_DS3, 91 }, 
	{ NOTE_DS3, 91 }, 
	{ NOTE_DS3, 91 }, 
	{ NOTE_DS3, 91 }, 
	{ NOTE_CS4, 182 }, 
	{ NOTE_B3, 182 }, 
	{ NOTE_DS3, 91 }, 
	{ NOTE_DS3, 91 }, 
	{ NOTE_DS3, 91 }, 
	{ NOTE_DS3, 91 }, 
	{ NOTE_DS4, 91 }, 
	{ NOTE_F4, 91 }, 
	{ NOTE_DS3, 91 }, 
	{ NOTE_DS3, 90 }, 
	{ NOTE_F4, 91 }, 
	{ NOTE_FS4, 91 }, 
	{ NOTE_DS3, 91 }, 
	{ NOTE_DS3, 91 }, 
	{ NOTE_DS3, 91 }, 
	{ NOTE_DS3, 91 }, 
	{ NOTE_GS4, 91 }, 
	{ NOTE_FS4, 91 }, 
	{ NOTE_DS3, 91 }, 
	{ NOTE_DS3, 91 }, 
	{ NOTE_DS3, 91 }, 
	{ NOTE_DS3, 91 }, 
	{ NOTE_DS4, 91 }, 
	{ NOTE_CS4, 91 }, 
	{ NOTE_AS3, 91 }, 
	{ NOTE_GS3, 90 }, 
	{ NOTE_DS3, 91 }, 
	{ NOTE_DS3, 91 }, 
	{ NOTE_DS3, 91 }, 
	{ NOTE_DS3, 91 }, 
	{ NOTE_CS4, 182 }, 
	{ NOTE_B3, 182 }, 
	{ NOTE_DS3, 91 }, 
	{ NOTE_DS3, 91 }, 
	{ NOTE_DS3, 91 }, 
	{ NOTE_DS3, 91 }, 
	{ NOTE_DS4, 91 }, 
	{ NOTE_F4, 91 }, 
	{ NOTE_DS3, 91 }, 
	{ NOTE_DS3, 90 }, 
	{ NOTE_F4, 91 }, 
	{ NOTE_FS4, 91 }, 
	{ NOTE_DS3, 91 }, 
	{ NOTE_DS3, 91 }, 
	{ NOTE_FS3, 182 }, 
	{ NOTE_GS3, 182 }, 
	{ NOTE_AS3, 182 }, 
	{ NOTE_GS3, 182 }, 
	{ NOTE_GS4, 182 }, 
	{ NOTE_FS4, 908 }, 
	{ NOTE_AS4, 242 }, 
	{ NOTE_AS4, 242 }, 
	{ NOTE_C5, 244 }, 
	{ NOTE_C5, 182 }, 
	{ NOTE_D5, 242 }, 
	{ NOTE_C5, 242 }, 
	{ NOTE_AS4, 242 }, 
	{ NOTE_AS4, 182 }, 
	{ NOTE_G4, 182 }, 
	{ NOTE_CS4, 910 }, 
	{ NOTE_CS5, 242 }, 
	{ NOTE_CS5, 242 }, 
	{ NOTE_DS5, 244 }, 
	{ NOTE_DS5, 242 }, 
	{ NOTE_DS5, 242 }, 
	{ NOTE_DS5, 242 }, 
	{ NOTE_DS5, 364 }, 
	{ NOTE_DS5, 365 }, 
	{ NOTE_DS5, 364 }, 
	{ NOTE_REST, 364 }, 
	{ NOTE_REST, 727 }, 
	{ NOTE_REST, 1455 }, 
	{ NOTE_GS4, 1455 }, 
	{ NOTE_DS4, 727 }, 
	{ NOTE_CS4, 182 }, 
	{ NOTE_REST, 182 }, 
	{ NOTE_CS4, 364 }, 
	{ NOTE_B3, 182 }, 
	{ NOTE_E3, 91 }, 
	{ NOTE_E3, 91 }, 
	{ NOTE_E3, 91 }, 
	{ NOTE_E3, 91 }, 
	{ NOTE_B3, 182 }, 
	{ NOTE_B3, 182 }, 
	{ NOTE_E3, 91 }, 
	{ NOTE_E3, 91 }, 
	{ NOTE_E3, 91 }, 
	{ NOTE_E3, 91 }, 
	{ NOTE_B3, 181 }, 
	{ NOTE_FS4, 727 }, 
	{ NOTE_CS4, 182 }, 
	{ NOTE_REST, 182 }, 
	{ NOTE_CS4, 364 }, 
	{ NOTE_E3, 91 }, 
	{ NOTE_E3, 91 }, 
	{ NOTE_B3, 182 }, 
	{ NOTE_E3, 91 }, 
	{ NOTE_E3, 91 }, 
	{ NOTE_B3, 182 }, 
	{ NOTE_E3, 91 }, 
	{ NOTE_E3, 91 }, 
	{ NOTE_B3, 182 }, 
	{ NOTE_E3, 91 }, 
	{ NOTE_E3, 91 }, 
	{ NOTE_B3, 181 }, 
	{ NOTE_DS4, 727 }, 
	{ NOTE_CS4, 182 }, 
	{ NOTE_REST, 182 }, 
	{ NOTE_CS4, 364 }, 
	{ NOTE_B3, 182 }, 
	{ NOTE_E3, 91 }, 
	{ NOTE_E3, 91 }, 
	{ NOTE_E3, 91 }, 
	{ NOTE_E3, 91 }, 
	{ NOTE_B3, 182 }, 
	{ NOTE_B3, 182 }, 
	{ NOTE_E3, 91 }, 
	{ NOTE_E3, 91 }, 
	{ NOTE_E3, 91 }, 
	{ NOTE_E3, 91 }, 
	{ NOTE_B3, 181 }, 
	{ NOTE_CS4, 182 }, 
	{ NOTE_CS4, 182 }, 
	{ NOTE_CS4, 182 }, 
	{ NOTE_CS4, 182 }, 
	{ NOTE_CS4, 364 }, 
	{ NOTE_REST, 363 }, 
	{ NOTE_FS4, 1455 }, 
	{ NOTE_CS4, 1455 }, 
	{ NOTE_DS4, 1455 }, 
	{ NOTE_AS4, 1455 }, 
	{ NOTE_B3, 182 }, 
	{ NOTE_E3, 91 }, 
	{ NOTE_E3, 91 }, 
	{ NOTE_E3, 91 }, 
	{ NOTE_E3, 91 }, 
	{ NOTE_B3, 182 }, 
	{ NOTE_B3, 182 }, 
	{ NOTE_E3, 91 }, 
	{ NOTE_E3, 91 }, 
	{ NOTE_E3, 91 }, 
	{ NOTE_E3, 91 }, 
	{ NOTE_B3, 181 }, 
	{ NOTE_FS4, 182 }, 
	{ NOTE_B3, 91 }, 
	{ NOTE_B3, 91 }, 
	{ NOTE_B3, 91 }, 
	{ NOTE_B3, 91 }, 
	{ NOTE_FS4, 182 }, 
	{ NOTE_FS4, 182 }, 
	{ NOTE_B3, 91 }, 
	{ NOTE_B3, 91 }, 
	{ NOTE_B3, 91 }, 
	{ NOTE_B3, 91 }, 
	{ NOTE_FS4, 181 }, 
	{ NOTE_FS3, 91 }, 
	{ NOTE_FS3, 91 }, 
	{ NOTE_FS3, 91 }, 
	{ NOTE_FS3, 91 }, 
	{ NOTE_FS3, 91 }, 
	{ NOTE_FS3, 91 }, 
	{ NOTE_FS3, 91 }, 
	{ NOTE_FS3, 91 }, 
	{ NOTE_FS3, 91 }, 
	{ NOTE_FS3, 91 }, 
	{ NOTE_FS3, 91 }, 
	{ NOTE_FS3, 91 }, 
	{ NOTE_FS3, 91 }, 
	{ NOTE_FS3, 91 }, 
	{ NOTE_FS3, 91 }, 
	{ NOTE_FS3, 90 }, 
	{ NOTE_FS3, 91 }, 
	{ NOTE_FS3, 91 }, 
	{ NOTE_FS3, 91 }, 
	{ NOTE_FS3, 91 }, 
	{ NOTE_FS3, 91 }, 
	{ NOTE_FS3, 91 }, 
	{ NOTE_FS3, 91 }, 
	{ NOTE_FS3, 91 }, 
	{ NOTE_FS3, 91 }, 
	{ NOTE_FS3, 91 }, 
	{ NOTE_FS3, 91 }, 
	{ NOTE_FS3, 91 }, 
	{ NOTE_FS3, 91 }, 
	{ NOTE_FS3, 91 }, 
	{ NOTE_FS3, 91 }, 
	{ NOTE_FS3, 90 }, 
	{ NOTE_FS4, 1455 }, 
	{ NOTE_FS4, 727 }, 
	{ NOTE_FS3, 728 }, 
	{ NOTE_DS4, 727 }, 
	{ NOTE_AS4, 364 }, 
	{ NOTE_B4, 364 }, 
	{ NOTE_AS3, 727 }, 
	{ NOTE_AS3, 728 }, 
	{ NOTE_B3, 182 }, 
	{ NOTE_E3, 91 }, 
	{ NOTE_E3, 91 }, 
	{ NOTE_E3, 91 }, 
	{ NOTE_E3, 91 }, 
	{ NOTE_B3, 182 }, 
	{ NOTE_B3, 182 }, 
	{ NOTE_E3, 91 }, 
	{ NOTE_E3, 91 }, 
	{ NOTE_E3, 91 }, 
	{ NOTE_E3, 91 }, 
	{ NOTE_E3, 91 }, 
	{ NOTE_E3, 90 }, 
	{ NOTE_CS4, 364 }, 
	{ NOTE_REST, 364 }, 
	{ NOTE_REST, 727 }, 
	{ NOTE_GS4, 1455 }, 
	{ NOTE_DS4, 1455 }, 
	{ NOTE_F4, 1455 }, 
	{ NOTE_C4, 1455 }, 
	{ NOTE_CS4, 182 }, 
	{ NOTE_FS3, 91 }, 
	{ NOTE_FS3, 91 }, 
	{ NOTE_FS3, 91 }, 
	{ NOTE_FS3, 91 }, 
	{ NOTE_FS3, 91 }, 
	{ NOTE_FS3, 91 }, 
	{ NOTE_CS4, 182 }, 
	{ NOTE_FS3, 91 }, 
	{ NOTE_FS3, 91 }, 
	{ NOTE_FS3, 91 }, 
	{ NOTE_FS3, 91 }, 
	{ NOTE_FS3, 91 }, 
	{ NOTE_FS3, 90 }, 
	{ NOTE_CS4, 91 }, 
	{ NOTE_CS4, 91 }, 
	{ NOTE_CS4, 91 }, 
	{ NOTE_CS4, 91 }, 
	{ NOTE_CS4, 91 }, 
	{ NOTE_CS4, 91 }, 
	{ NOTE_CS4, 91 }, 
	{ NOTE_CS4, 91 }, 
	{ NOTE_CS4, 91 }, 
	{ NOTE_CS4, 91 }, 
	{ NOTE_CS4, 91 }, 
	{ NOTE_CS4, 91 }, 
	{ NOTE_CS4, 91 }, 
	{ NOTE_CS4, 91 }, 
	{ NOTE_CS4, 91 }, 
	{ NOTE_CS4, 90 }, 
	{ NOTE_DS4, 364 }, 
	{ NOTE_DS4, 727 }, 
	{ NOTE_DS4, 364 }, 
	{ NOTE_GS3, 91 }, 
	{ NOTE_GS3, 91 }, 
	{ NOTE_GS3, 91 }, 
	{ NOTE_GS3, 91 }, 
	{ NOTE_GS3, 91 }, 
	{ NOTE_GS3, 91 }, 
	{ NOTE_GS3, 91 }, 
	{ NOTE_GS3, 91 }, 
	{ NOTE_GS3, 91 }, 
	{ NOTE_GS3, 91 }, 
	{ NOTE_GS3, 91 }, 
	{ NOTE_GS3, 91 }, 
	{ NOTE_GS3, 91 }, 
	{ NOTE_GS3, 91 }, 
	{ NOTE_GS3, 91 }, 
	{ NOTE_GS3, 90 }, 
	{ NOTE_GS4, 1455 }, 
	{ NOTE_DS4, 727 }, 
	{ NOTE_GS3, 728 }, 
	{ NOTE_F4, 727 }, 
	{ NOTE_C5, 364 }, 
	{ NOTE_CS5, 364 }, 
	{ NOTE_GS3, 727 }, 
	{ NOTE_C4, 728 }, 
	{ NOTE_CS4, 182 }, 
	{ NOTE_FS3, 91 }, 
	{ NOTE_FS3, 91 }, 
	{ NOTE_FS3, 91 }, 
	{ NOTE_FS3, 91 }, 
	{ NOTE_FS3, 91 }, 
	{ NOTE_FS3, 91 }, 
	{ NOTE_CS4, 182 }, 
	{ NOTE_FS3, 91 }, 
	{ NOTE_FS3, 91 }, 
	{ NOTE_FS3, 91 }, 
	{ NOTE_FS3, 91 }, 
	{ NOTE_FS3, 91 }, 
	{ NOTE_FS3, 90 }, 
	{ NOTE_DS4, 1455 }, 
	{ NOTE_GS4, 1455 }, 
	{ NOTE_DS4, 727 }, 
	{ NOTE_GS3, 728 }, 
	{ NOTE_F4, 727 }, 
	{ NOTE_C5, 364 }, 
	{ NOTE_CS5, 364 }, 
	{ NOTE_GS3, 727 }, 
	{ NOTE_C4, 728 }, 
	{ NOTE_CS4, 182 }, 
	{ NOTE_FS3, 91 }, 
	{ NOTE_FS3, 91 }, 
	{ NOTE_FS3, 91 }, 
	{ NOTE_FS3, 91 }, 
	{ NOTE_FS3, 91 }, 
	{ NOTE_FS3, 91 }, 
	{ NOTE_CS4, 182 }, 
	{ NOTE_FS3, 91 }, 
	{ NOTE_FS3, 91 }, 
	{ NOTE_FS3, 91 }, 
	{ NOTE_FS3, 91 }, 
	{ NOTE_FS3, 91 }, 
	{ NOTE_FS3, 90 }, 
	{ NOTE_DS4, 182 }, 
	{ NOTE_GS3, 91 }, 
	{ NOTE_GS3, 91 }, 
	{ NOTE_GS3, 91 }, 
	{ NOTE_GS3, 91 }, 
	{ NOTE_GS3, 91 }, 
	{ NOTE_GS3, 91 }, 
	{ NOTE_DS4, 182 }, 
	{ NOTE_GS3, 91 }, 
	{ NOTE_GS3, 91 }, 
	{ NOTE_GS3, 91 }, 
	{ NOTE_GS3, 91 }, 
	{ NOTE_GS3, 91 }, 
	{ NOTE_GS3, 90 }, 
	{ NOTE_AS4, 182 }, 
	{ NOTE_CS5, 91 }, 
	{ NOTE_C5, 91 }, 
	{ NOTE_CS5, 182 }, 
	{ NOTE_AS4, 182 }, 
	{ NOTE_CS5, 91 }, 
	{ NOTE_C5, 91 }, 
	{ NOTE_CS5, 182 }, 
	{ NOTE_AS4, 182 }, 
	{ NOTE_CS5, 91 }, 
	{ NOTE_C5, 90 }, 
	{ NOTE_CS5, 182 }, 
	{ NOTE_AS4, 182 }, 
	{ NOTE_CS5, 91 }, 
	{ NOTE_C5, 91 }, 
	{ NOTE_CS5, 182 }, 
	{ NOTE_AS4, 364 }, 
	{ NOTE_GS4, 363 }, 
	{ NOTE_CS4, 182 }, 
	{ NOTE_CS4, 182 }, 
	{ NOTE_CS4, 182 }, 
	{ NOTE_CS4, 182 }, 
	{ NOTE_CS4, 182 }, 
	{ NOTE_CS4, 182 }, 
	{ NOTE_CS4, 182 }, 
	{ NOTE_CS4, 181 }, 
	{ NOTE_DS4, 182 }, 
	{ NOTE_GS3, 91 }, 
	{ NOTE_GS3, 91 }, 
	{ NOTE_GS3, 91 }, 
	{ NOTE_GS3, 91 }, 
	{ NOTE_DS4, 182 }, 
	{ NOTE_DS4, 182 }, 
	{ NOTE_GS3, 91 }, 
	{ NOTE_GS3, 91 }, 
	{ NOTE_GS3, 91 }, 
	{ NOTE_GS3, 91 }, 
	{ NOTE_DS4, 181 }, 
	{ NOTE_AS4, 182 }, 
	{ NOTE_CS5, 91 }, 
	{ NOTE_C5, 91 }, 
	{ NOTE_CS5, 182 }, 
	{ NOTE_AS4, 182 }, 
	{ NOTE_CS5, 91 }, 
	{ NOTE_C5, 91 }, 
	{ NOTE_CS5, 182 }, 
	{ NOTE_AS4, 182 }, 
	{ NOTE_CS5, 91 }, 
	{ NOTE_C5, 90 }, 
	{ NOTE_CS5, 182 }, 
	{ NOTE_AS4, 182 }, 
	{ NOTE_CS5, 91 }, 
	{ NOTE_C5, 91 }, 
	{ NOTE_CS5, 182 }, 
	{ NOTE_AS4, 364 }, 
	{ NOTE_GS4, 363 }, 
	{ NOTE_CS4, 182 }, 
	{ NOTE_FS3, 91 }, 
	{ NOTE_FS3, 91 }, 
	{ NOTE_FS3, 91 }, 
	{ NOTE_FS3, 91 }, 
	{ NOTE_FS3, 91 }, 
	{ NOTE_FS3, 91 }, 
	{ NOTE_CS4, 182 }, 
	{ NOTE_FS3, 91 }, 
	{ NOTE_FS3, 91 }, 
	{ NOTE_FS3, 91 }, 
	{ NOTE_FS3, 91 }, 
	{ NOTE_FS3, 91 }, 
	{ NOTE_FS3, 90 }, 
	{ NOTE_DS4, 364 }, 
	{ NOTE_REST, 364 }, 
	{ NOTE_REST, 727 }, 
};
const uint16_t NUM_OF_NOTES1 = sizeof(melody1)/sizeof(melody1[0]);

const Note melody2[] PROGMEM = {
	{ NOTE_GS4, 182 }, 
	{ NOTE_DS5, 91 }, 
	{ NOTE_CS5, 91 }, 
	{ NOTE_DS5, 182 }, 
	{ NOTE_GS4, 182 }, 
	{ NOTE_DS5, 91 }, 
	{ NOTE_CS5, 91 }, 
	{ NOTE_DS5, 182 }, 
	{ NOTE_GS4, 182 }, 
	{ NOTE_DS5, 91 }, 
	{ NOTE_CS5, 90 }, 
	{ NOTE_DS5, 182 }, 
	{ NOTE_GS4, 182 }, 
	{ NOTE_DS5, 91 }, 
	{ NOTE_CS5, 91 }, 
	{ NOTE_DS5, 182 }, 
	{ NOTE_CS4, 364 }, 
	{ NOTE_CS4, 363 }, 
	{ NOTE_GS4, 182 }, 
	{ NOTE_DS5, 91 }, 
	{ NOTE_CS5, 91 }, 
	{ NOTE_DS5, 182 }, 
	{ NOTE_GS4, 182 }, 
	{ NOTE_DS5, 91 }, 
	{ NOTE_CS5, 91 }, 
	{ NOTE_DS5, 182 }, 
	{ NOTE_GS4, 182 }, 
	{ NOTE_DS5, 91 }, 
	{ NOTE_CS5, 90 }, 
	{ NOTE_DS5, 182 }, 
	{ NOTE_GS4, 182 }, 
	{ NOTE_DS5, 91 }, 
	{ NOTE_CS5, 91 }, 
	{ NOTE_DS5, 182 }, 
	{ NOTE_B3, 91 }, 
	{ NOTE_B3, 91 }, 
	{ NOTE_B3, 182 }, 
	{ NOTE_AS3, 91 }, 
	{ NOTE_AS3, 91 }, 
	{ NOTE_AS3, 181 }, 
	{ NOTE_GS4, 182 }, 
	{ NOTE_DS5, 91 }, 
	{ NOTE_CS5, 91 }, 
	{ NOTE_DS5, 182 }, 
	{ NOTE_GS4, 182 }, 
	{ NOTE_DS5, 91 }, 
	{ NOTE_CS5, 91 }, 
	{ NOTE_DS5, 182 }, 
	{ NOTE_GS4, 182 }, 
	{ NOTE_DS5, 91 }, 
	{ NOTE_CS5, 90 }, 
	{ NOTE_DS5, 182 }, 
	{ NOTE_GS4, 182 }, 
	{ NOTE_DS5, 91 }, 
	{ NOTE_CS5, 91 }, 
	{ NOTE_DS5, 182 }, 
	{ NOTE_CS4, 364 }, 
	{ NOTE_CS4, 363 }, 
	{ NOTE_E5, 727 }, 
	{ NOTE_E5, 242 }, 
	{ NOTE_FS5, 242 }, 
	{ NOTE_GS5, 244 }, 
	{ NOTE_G5, 727 }, 
	{ NOTE_G5, 242 }, 
	{ NOTE_GS5, 242 }, 
	{ NOTE_AS5, 244 }, 
	{ NOTE_GS4, 182 }, 
	{ NOTE_DS5, 91 }, 
	{ NOTE_CS5, 91 }, 
	{ NOTE_DS5, 182 }, 
	{ NOTE_GS4, 182 }, 
	{ NOTE_DS5, 91 }, 
	{ NOTE_CS5, 91 }, 
	{ NOTE_DS5, 182 }, 
	{ NOTE_GS4, 182 }, 
	{ NOTE_DS5, 91 }, 
	{ NOTE_CS5, 90 }, 
	{ NOTE_DS5, 182 }, 
	{ NOTE_GS4, 182 }, 
	{ NOTE_DS5, 91 }, 
	{ NOTE_CS5, 91 }, 
	{ NOTE_DS5, 182 }, 
	{ NOTE_CS4, 364 }, 
	{ NOTE_CS4, 363 }, 
	{ NOTE_GS4, 182 }, 
	{ NOTE_DS5, 91 }, 
	{ NOTE_CS5, 91 }, 
	{ NOTE_DS5, 182 }, 
	{ NOTE_GS4, 182 }, 
	{ NOTE_DS5, 91 }, 
	{ NOTE_CS5, 91 }, 
	{ NOTE_DS5, 182 }, 
	{ NOTE_GS4, 182 }, 
	{ NOTE_DS5, 91 }, 
	{ NOTE_CS5, 90 }, 
	{ NOTE_DS5, 182 }, 
	{ NOTE_GS4, 182 }, 
	{ NOTE_DS5, 91 }, 
	{ NOTE_CS5, 91 }, 
	{ NOTE_DS5, 182 }, 
	{ NOTE_B3, 91 }, 
	{ NOTE_B3, 91 }, 
	{ NOTE_B3, 182 }, 
	{ NOTE_AS3, 91 }, 
	{ NOTE_AS3, 91 }, 
	{ NOTE_AS3, 181 }, 
	{ NOTE_GS4, 182 }, 
	{ NOTE_DS5, 91 }, 
	{ NOTE_CS5, 91 }, 
	{ NOTE_DS5, 182 }, 
	{ NOTE_GS4, 182 }, 
	{ NOTE_DS5, 91 }, 
	{ NOTE_CS5, 91 }, 
	{ NOTE_DS5, 182 }, 
	{ NOTE_GS4, 182 }, 
	{ NOTE_DS5, 91 }, 
	{ NOTE_CS5, 90 }, 
	{ NOTE_DS5, 182 }, 
	{ NOTE_GS4, 182 }, 
	{ NOTE_DS5, 91 }, 
	{ NOTE_CS5, 91 }, 
	{ NOTE_DS5, 182 }, 
	{ NOTE_CS4, 364 }, 
	{ NOTE_CS4, 363 }, 
	{ NOTE_E5, 727 }, 
	{ NOTE_E5, 242 }, 
	{ NOTE_FS5, 242 }, 
	{ NOTE_GS5, 244 }, 
	{ NOTE_G5, 727 }, 
	{ NOTE_G5, 242 }, 
	{ NOTE_GS5, 242 }, 
	{ NOTE_AS5, 244 }, 
	{ NOTE_GS3, 1455 }, 
	{ NOTE_FS3, 1455 }, 
	{ NOTE_E5, 727 }, 
	{ NOTE_E5, 242 }, 
	{ NOTE_FS5, 242 }, 
	{ NOTE_GS5, 244 }, 
	{ NOTE_G5, 727 }, 
	{ NOTE_G5, 242 }, 
	{ NOTE_GS5, 242 }, 
	{ NOTE_AS5, 244 }, 
	{ NOTE_GS6, 91 }, 
	{ NOTE_G6, 91 }, 
	{ NOTE_E6, 91 }, 
	{ NOTE_DS6, 91 }, 
	{ NOTE_CS6, 91 }, 
	{ NOTE_B5, 91 }, 
	{ NOTE_AS5, 91 }, 
	{ NOTE_B5, 91 }, 
	{ NOTE_CS6, 91 }, 
	{ NOTE_B5, 91 }, 
	{ NOTE_AS5, 91 }, 
	{ NOTE_GS5, 91 }, 
	{ NOTE_G5, 91 }, 
	{ NOTE_E5, 91 }, 
	{ NOTE_DS5, 91 }, 
	{ NOTE_CS5, 90 }, 
	{ NOTE_GS5, 91 }, 
	{ NOTE_G5, 91 }, 
	{ NOTE_E5, 91 }, 
	{ NOTE_DS5, 91 }, 
	{ NOTE_CS5, 91 }, 
	{ NOTE_B4, 91 }, 
	{ NOTE_AS4, 91 }, 
	{ NOTE_B4, 91 }, 
	{ NOTE_CS5, 91 }, 
	{ NOTE_B4, 91 }, 
	{ NOTE_AS4, 91 }, 
	{ NOTE_GS4, 91 }, 
	{ NOTE_G4, 91 }, 
	{ NOTE_E4, 91 }, 
	{ NOTE_DS4, 91 }, 
	{ NOTE_CS4, 90 }, 
	{ NOTE_B3, 2910 }, 
	{ NOTE_CS4, 121 }, 
	{ NOTE_CS4, 121 }, 
	{ NOTE_CS4, 121 }, 
	{ NOTE_CS4, 121 }, 
	{ NOTE_CS4, 121 }, 
	{ NOTE_CS4, 121 }, 
	{ NOTE_CS4, 121 }, 
	{ NOTE_CS4, 121 }, 
	{ NOTE_CS4, 121 }, 
	{ NOTE_CS4, 121 }, 
	{ NOTE_CS4, 121 }, 
	{ NOTE_CS4, 124 }, 
	{ NOTE_CS4, 121 }, 
	{ NOTE_CS4, 121 }, 
	{ NOTE_CS4, 121 }, 
	{ NOTE_CS4, 121 }, 
	{ NOTE_CS4, 121 }, 
	{ NOTE_CS4, 121 }, 
	{ NOTE_CS4, 121 }, 
	{ NOTE_CS4, 121 }, 
	{ NOTE_CS4, 121 }, 
	{ NOTE_CS4, 121 }, 
	{ NOTE_CS4, 121 }, 
	{ NOTE_CS4, 124 }, 
	{ NOTE_CS4, 121 }, 
	{ NOTE_CS4, 121 }, 
	{ NOTE_CS4, 121 }, 
	{ NOTE_CS4, 121 }, 
	{ NOTE_CS4, 121 }, 
	{ NOTE_CS4, 121 }, 
	{ NOTE_CS4, 121 }, 
	{ NOTE_CS4, 121 }, 
	{ NOTE_CS4, 121 }, 
	{ NOTE_CS4, 121 }, 
	{ NOTE_CS4, 121 }, 
	{ NOTE_CS4, 124 }, 
	{ NOTE_CS4, 121 }, 
	{ NOTE_CS4, 121 }, 
	{ NOTE_CS4, 121 }, 
	{ NOTE_CS4, 121 }, 
	{ NOTE_CS4, 121 }, 
	{ NOTE_CS4, 121 }, 
	{ NOTE_CS4, 121 }, 
	{ NOTE_CS4, 121 }, 
	{ NOTE_CS4, 121 }, 
	{ NOTE_CS4, 121 }, 
	{ NOTE_CS4, 121 }, 
	{ NOTE_CS4, 124 }, 
	{ NOTE_DS3, 364 }, 
	{ NOTE_REST, 363 }, 
	{ NOTE_GS3, 182 }, 
	{ NOTE_GS3, 91 }, 
	{ NOTE_GS3, 91 }, 
	{ NOTE_GS3, 91 }, 
	{ NOTE_GS3, 91 }, 
	{ NOTE_GS3, 182 }, 
	{ NOTE_GS3, 182 }, 
	{ NOTE_GS3, 91 }, 
	{ NOTE_GS3, 91 }, 
	{ NOTE_GS3, 91 }, 
	{ NOTE_GS3, 91 }, 
	{ NOTE_GS3, 91 }, 
	{ NOTE_GS3, 90 }, 
	{ NOTE_GS3, 182 }, 
	{ NOTE_GS3, 91 }, 
	{ NOTE_GS3, 91 }, 
	{ NOTE_GS3, 91 }, 
	{ NOTE_GS3, 91 }, 
	{ NOTE_GS3, 182 }, 
	{ NOTE_GS3, 182 }, 
	{ NOTE_GS3, 91 }, 
	{ NOTE_GS3, 91 }, 
	{ NOTE_GS3, 91 }, 
	{ NOTE_GS3, 91 }, 
	{ NOTE_GS3, 181 }, 
	{ NOTE_GS3, 909 }, 
	{ NOTE_GS3, 364 }, 
	{ NOTE_GS3, 182 }, 
	{ NOTE_B3, 182 }, 
	{ NOTE_B3, 91 }, 
	{ NOTE_B3, 91 }, 
	{ NOTE_B3, 91 }, 
	{ NOTE_B3, 91 }, 
	{ NOTE_B3, 182 }, 
	{ NOTE_FS3, 182 }, 
	{ NOTE_FS3, 182 }, 
	{ NOTE_FS3, 182 }, 
	{ NOTE_FS3, 181 }, 
	{ NOTE_GS3, 182 }, 
	{ NOTE_GS3, 91 }, 
	{ NOTE_GS3, 91 }, 
	{ NOTE_GS3, 91 }, 
	{ NOTE_GS3, 91 }, 
	{ NOTE_GS3, 182 }, 
	{ NOTE_GS3, 182 }, 
	{ NOTE_GS3, 91 }, 
	{ NOTE_GS3, 91 }, 
	{ NOTE_GS3, 91 }, 
	{ NOTE_GS3, 91 }, 
	{ NOTE_GS3, 181 }, 
	{ NOTE_GS3, 182 }, 
	{ NOTE_GS3, 91 }, 
	{ NOTE_GS3, 91 }, 
	{ NOTE_GS3, 91 }, 
	{ NOTE_GS3, 91 }, 
	{ NOTE_GS3, 182 }, 
	{ NOTE_GS3, 182 }, 
	{ NOTE_GS3, 91 }, 
	{ NOTE_GS3, 91 }, 
	{ NOTE_GS3, 91 }, 
	{ NOTE_GS3, 91 }, 
	{ NOTE_GS3, 181 }, 
	{ NOTE_E3, 182 }, 
	{ NOTE_E3, 91 }, 
	{ NOTE_E3, 91 }, 
	{ NOTE_E3, 182 }, 
	{ NOTE_E3, 91 }, 
	{ NOTE_E3, 91 }, 
	{ NOTE_E3, 182 }, 
	{ NOTE_E3, 91 }, 
	{ NOTE_E3, 91 }, 
	{ NOTE_E3, 182 }, 
	{ NOTE_E3, 91 }, 
	{ NOTE_E3, 90 }, 
	{ NOTE_CS4, 91 }, 
	{ NOTE_CS4, 91 }, 
	{ NOTE_CS4, 91 }, 
	{ NOTE_CS4, 91 }, 
	{ NOTE_CS4, 91 }, 
	{ NOTE_CS4, 91 }, 
	{ NOTE_CS4, 91 }, 
	{ NOTE_CS4, 91 }, 
	{ NOTE_FS3, 91 }, 
	{ NOTE_FS3, 91 }, 
	{ NOTE_FS3, 91 }, 
	{ NOTE_FS3, 91 }, 
	{ NOTE_FS3, 91 }, 
	{ NOTE_FS3, 91 }, 
	{ NOTE_FS3, 91 }, 
	{ NOTE_FS3, 90 }, 
	{ NOTE_GS3, 182 }, 
	{ NOTE_GS3, 91 }, 
	{ NOTE_GS3, 91 }, 
	{ NOTE_GS3, 91 }, 
	{ NOTE_GS3, 91 }, 
	{ NOTE_GS3, 182 }, 
	{ NOTE_GS3, 182 }, 
	{ NOTE_GS3, 91 }, 
	{ NOTE_GS3, 91 }, 
	{ NOTE_GS3, 91 }, 
	{ NOTE_GS3, 91 }, 
	{ NOTE_GS3, 181 }, 
	{ NOTE_GS3, 182 }, 
	{ NOTE_GS3, 91 }, 
	{ NOTE_GS3, 91 }, 
	{ NOTE_GS3, 91 }, 
	{ NOTE_GS3, 91 }, 
	{ NOTE_GS3, 182 }, 
	{ NOTE_GS3, 182 }, 
	{ NOTE_GS3, 91 }, 
	{ NOTE_GS3, 91 }, 
	{ NOTE_GS3, 91 }, 
	{ NOTE_GS3, 91 }, 
	{ NOTE_GS3, 181 }, 
	{ NOTE_GS3, 909 }, 
	{ NOTE_GS3, 364 }, 
	{ NOTE_GS3, 182 }, 
	{ NOTE_B3, 182 }, 
	{ NOTE_B3, 91 }, 
	{ NOTE_B3, 91 }, 
	{ NOTE_B3, 91 }, 
	{ NOTE_B3, 91 }, 
	{ NOTE_B3, 182 }, 
	{ NOTE_FS3, 182 }, 
	{ NOTE_FS3, 182 }, 
	{ NOTE_FS3, 182 }, 
	{ NOTE_FS3, 181 }, 
	{ NOTE_GS3, 182 }, 
	{ NOTE_GS3, 91 }, 
	{ NOTE_GS3, 91 }, 
	{ NOTE_GS3, 91 }, 
	{ NOTE_GS3, 91 }, 
	{ NOTE_GS3, 182 }, 
	{ NOTE_GS3, 182 }, 
	{ NOTE_GS3, 91 }, 
	{ NOTE_GS3, 91 }, 
	{ NOTE_GS3, 91 }, 
	{ NOTE_GS3, 91 }, 
	{ NOTE_GS3, 181 }, 
	{ NOTE_GS3, 182 }, 
	{ NOTE_GS3, 91 }, 
	{ NOTE_GS3, 91 }, 
	{ NOTE_GS3, 91 }, 
	{ NOTE_GS3, 91 }, 
	{ NOTE_GS3, 182 }, 
	{ NOTE_GS3, 182 }, 
	{ NOTE_GS3, 91 }, 
	{ NOTE_GS3, 91 }, 
	{ NOTE_GS3, 91 }, 
	{ NOTE_GS3, 91 }, 
	{ NOTE_GS3, 181 }, 
	{ NOTE_E3, 182 }, 
	{ NOTE_E3, 91 }, 
	{ NOTE_E3, 91 }, 
	{ NOTE_E3, 182 }, 
	{ NOTE_E3, 91 }, 
	{ NOTE_E3, 91 }, 
	{ NOTE_E3, 182 }, 
	{ NOTE_E3, 91 }, 
	{ NOTE_E3, 91 }, 
	{ NOTE_E3, 182 }, 
	{ NOTE_E3, 91 }, 
	{ NOTE_E3, 90 }, 
	{ NOTE_CS4, 91 }, 
	{ NOTE_CS4, 91 }, 
	{ NOTE_CS4, 91 }, 
	{ NOTE_CS4, 91 }, 
	{ NOTE_CS4, 91 }, 
	{ NOTE_CS4, 91 }, 
	{ NOTE_CS4, 91 }, 
	{ NOTE_CS4, 91 }, 
	{ NOTE_FS3, 91 }, 
	{ NOTE_FS3, 91 }, 
	{ NOTE_FS3, 91 }, 
	{ NOTE_FS3, 91 }, 
	{ NOTE_FS3, 91 }, 
	{ NOTE_FS3, 91 }, 
	{ NOTE_FS3, 91 }, 
	{ NOTE_FS3, 90 }, 
	{ NOTE_CS4, 1455 }, 
	{ NOTE_GS3, 727 }, 
	{ NOTE_FS3, 182 }, 
	{ NOTE_REST, 182 }, 
	{ NOTE_FS3, 364 }, 
	{ NOTE_E3, 182 }, 
	{ NOTE_E3, 91 }, 
	{ NOTE_E3, 91 }, 
	{ NOTE_E3, 91 }, 
	{ NOTE_E3, 91 }, 
	{ NOTE_E3, 182 }, 
	{ NOTE_E3, 182 }, 
	{ NOTE_E3, 91 }, 
	{ NOTE_E3, 91 }, 
	{ NOTE_E3, 91 }, 
	{ NOTE_E3, 91 }, 
	{ NOTE_E3, 181 }, 
	{ NOTE_B3, 727 }, 
	{ NOTE_FS3, 182 }, 
	{ NOTE_REST, 182 }, 
	{ NOTE_FS3, 364 }, 
	{ NOTE_E3, 91 }, 
	{ NOTE_E3, 91 }, 
	{ NOTE_E3, 182 }, 
	{ NOTE_E3, 91 }, 
	{ NOTE_E3, 91 }, 
	{ NOTE_E3, 182 }, 
	{ NOTE_E3, 91 }, 
	{ NOTE_E3, 91 }, 
	{ NOTE_E3, 182 }, 
	{ NOTE_E3, 91 }, 
	{ NOTE_E3, 91 }, 
	{ NOTE_E3, 181 }, 
	{ NOTE_GS3, 727 }, 
	{ NOTE_FS3, 182 }, 
	{ NOTE_REST, 182 }, 
	{ NOTE_FS3, 364 }, 
	{ NOTE_E3, 182 }, 
	{ NOTE_E3, 91 }, 
	{ NOTE_E3, 91 }, 
	{ NOTE_E3, 91 }, 
	{ NOTE_E3, 91 }, 
	{ NOTE_E3, 182 }, 
	{ NOTE_E3, 182 }, 
	{ NOTE_E3, 91 }, 
	{ NOTE_E3, 91 }, 
	{ NOTE_E3, 91 }, 
	{ NOTE_E3, 91 }, 
	{ NOTE_E3, 181 }, 
	{ NOTE_DS3, 182 }, 
	{ NOTE_DS3, 182 }, 
	{ NOTE_DS3, 182 }, 
	{ NOTE_DS3, 182 }, 
	{ NOTE_DS3, 364 }, 
	{ NOTE_REST, 363 }, 
	{ NOTE_GS4, 182 }, 
	{ NOTE_DS5, 91 }, 
	{ NOTE_CS5, 91 }, 
	{ NOTE_DS5, 182 }, 
	{ NOTE_GS4, 182 }, 
	{ NOTE_DS5, 91 }, 
	{ NOTE_CS5, 91 }, 
	{ NOTE_DS5, 182 }, 
	{ NOTE_GS4, 182 }, 
	{ NOTE_DS5, 91 }, 
	{ NOTE_CS5, 90 }, 
	{ NOTE_DS5, 182 }, 
	{ NOTE_GS4, 182 }, 
	{ NOTE_DS5, 91 }, 
	{ NOTE_CS5, 91 }, 
	{ NOTE_DS5, 182 }, 
	{ NOTE_CS4, 364 }, 
	{ NOTE_CS4, 363 }, 
	{ NOTE_GS4, 182 }, 
	{ NOTE_DS5, 91 }, 
	{ NOTE_CS5, 91 }, 
	{ NOTE_DS5, 182 }, 
	{ NOTE_GS4, 182 }, 
	{ NOTE_DS5, 91 }, 
	{ NOTE_CS5, 91 }, 
	{ NOTE_DS5, 182 }, 
	{ NOTE_GS4, 182 }, 
	{ NOTE_DS5, 91 }, 
	{ NOTE_CS5, 90 }, 
	{ NOTE_DS5, 182 }, 
	{ NOTE_GS4, 182 }, 
	{ NOTE_DS5, 91 }, 
	{ NOTE_CS5, 91 }, 
	{ NOTE_DS5, 182 }, 
	{ NOTE_B3, 91 }, 
	{ NOTE_B3, 91 }, 
	{ NOTE_B3, 182 }, 
	{ NOTE_AS3, 91 }, 
	{ NOTE_AS3, 91 }, 
	{ NOTE_AS3, 181 }, 
	{ NOTE_GS4, 182 }, 
	{ NOTE_DS5, 91 }, 
	{ NOTE_CS5, 91 }, 
	{ NOTE_DS5, 182 }, 
	{ NOTE_GS4, 182 }, 
	{ NOTE_DS5, 91 }, 
	{ NOTE_CS5, 91 }, 
	{ NOTE_DS5, 182 }, 
	{ NOTE_GS4, 182 }, 
	{ NOTE_DS5, 91 }, 
	{ NOTE_CS5, 90 }, 
	{ NOTE_DS5, 182 }, 
	{ NOTE_GS4, 182 }, 
	{ NOTE_DS5, 91 }, 
	{ NOTE_CS5, 91 }, 
	{ NOTE_DS5, 182 }, 
	{ NOTE_CS4, 364 }, 
	{ NOTE_CS4, 363 }, 
	{ NOTE_E5, 727 }, 
	{ NOTE_E5, 242 }, 
	{ NOTE_FS5, 242 }, 
	{ NOTE_GS5, 244 }, 
	{ NOTE_G5, 727 }, 
	{ NOTE_G5, 242 }, 
	{ NOTE_GS5, 242 }, 
	{ NOTE_AS5, 244 }, 
	{ NOTE_GS3, 182 }, 
	{ NOTE_GS3, 91 }, 
	{ NOTE_GS3, 91 }, 
	{ NOTE_GS3, 91 }, 
	{ NOTE_GS3, 91 }, 
	{ NOTE_GS3, 182 }, 
	{ NOTE_GS3, 182 }, 
	{ NOTE_GS3, 91 }, 
	{ NOTE_GS3, 91 }, 
	{ NOTE_GS3, 91 }, 
	{ NOTE_GS3, 91 }, 
	{ NOTE_GS3, 91 }, 
	{ NOTE_GS3, 90 }, 
	{ NOTE_GS3, 182 }, 
	{ NOTE_GS3, 91 }, 
	{ NOTE_GS3, 91 }, 
	{ NOTE_GS3, 91 }, 
	{ NOTE_GS3, 91 }, 
	{ NOTE_GS3, 182 }, 
	{ NOTE_GS3, 182 }, 
	{ NOTE_GS3, 91 }, 
	{ NOTE_GS3, 91 }, 
	{ NOTE_GS3, 91 }, 
	{ NOTE_GS3, 91 }, 
	{ NOTE_GS3, 181 }, 
	{ NOTE_GS3, 909 }, 
	{ NOTE_GS3, 364 }, 
	{ NOTE_GS3, 182 }, 
	{ NOTE_B3, 182 }, 
	{ NOTE_B3, 91 }, 
	{ NOTE_B3, 91 }, 
	{ NOTE_B3, 91 }, 
	{ NOTE_B3, 91 }, 
	{ NOTE_B3, 182 }, 
	{ NOTE_FS3, 182 }, 
	{ NOTE_FS3, 182 }, 
	{ NOTE_FS3, 182 }, 
	{ NOTE_FS3, 181 }, 
	{ NOTE_GS3, 182 }, 
	{ NOTE_GS3, 91 }, 
	{ NOTE_GS3, 91 }, 
	{ NOTE_GS3, 91 }, 
	{ NOTE_GS3, 91 }, 
	{ NOTE_GS3, 182 }, 
	{ NOTE_GS3, 182 }, 
	{ NOTE_GS3, 91 }, 
	{ NOTE_GS3, 91 }, 
	{ NOTE_GS3, 91 }, 
	{ NOTE_GS3, 91 }, 
	{ NOTE_GS3, 181 }, 
	{ NOTE_GS3, 182 }, 
	{ NOTE_GS3, 91 }, 
	{ NOTE_GS3, 91 }, 
	{ NOTE_GS3, 91 }, 
	{ NOTE_GS3, 91 }, 
	{ NOTE_GS3, 182 }, 
	{ NOTE_GS3, 182 }, 
	{ NOTE_GS3, 91 }, 
	{ NOTE_GS3, 91 }, 
	{ NOTE_GS3, 91 }, 
	{ NOTE_GS3, 91 }, 
	{ NOTE_GS3, 181 }, 
	{ NOTE_E3, 182 }, 
	{ NOTE_E3, 91 }, 
	{ NOTE_E3, 91 }, 
	{ NOTE_E3, 182 }, 
	{ NOTE_E3, 91 }, 
	{ NOTE_E3, 91 }, 
	{ NOTE_E3, 182 }, 
	{ NOTE_E3, 91 }, 
	{ NOTE_E3, 91 }, 
	{ NOTE_E3, 182 }, 
	{ NOTE_E3, 91 }, 
	{ NOTE_E3, 90 }, 
	{ NOTE_CS4, 91 }, 
	{ NOTE_CS4, 91 }, 
	{ NOTE_CS4, 91 }, 
	{ NOTE_CS4, 91 }, 
	{ NOTE_CS4, 91 }, 
	{ NOTE_CS4, 91 }, 
	{ NOTE_CS4, 91 }, 
	{ NOTE_CS4, 91 }, 
	{ NOTE_FS3, 91 }, 
	{ NOTE_FS3, 91 }, 
	{ NOTE_FS3, 91 }, 
	{ NOTE_FS3, 91 }, 
	{ NOTE_FS3, 91 }, 
	{ NOTE_FS3, 91 }, 
	{ NOTE_FS3, 91 }, 
	{ NOTE_FS3, 90 }, 
	{ NOTE_GS3, 182 }, 
	{ NOTE_GS3, 91 }, 
	{ NOTE_GS3, 91 }, 
	{ NOTE_GS3, 91 }, 
	{ NOTE_GS3, 91 }, 
	{ NOTE_GS3, 182 }, 
	{ NOTE_GS3, 182 }, 
	{ NOTE_GS3, 91 }, 
	{ NOTE_GS3, 91 }, 
	{ NOTE_GS3, 91 }, 
	{ NOTE_GS3, 91 }, 
	{ NOTE_GS3, 181 }, 
	{ NOTE_GS3, 182 }, 
	{ NOTE_GS3, 91 }, 
	{ NOTE_GS3, 91 }, 
	{ NOTE_GS3, 91 }, 
	{ NOTE_GS3, 91 }, 
	{ NOTE_GS3, 182 }, 
	{ NOTE_GS3, 182 }, 
	{ NOTE_GS3, 91 }, 
	{ NOTE_GS3, 91 }, 
	{ NOTE_GS3, 91 }, 
	{ NOTE_GS3, 91 }, 
	{ NOTE_GS3, 181 }, 
	{ NOTE_GS3, 909 }, 
	{ NOTE_GS3, 364 }, 
	{ NOTE_GS3, 182 }, 
	{ NOTE_B3, 182 }, 
	{ NOTE_B3, 91 }, 
	{ NOTE_B3, 91 }, 
	{ NOTE_B3, 91 }, 
	{ NOTE_B3, 91 }, 
	{ NOTE_B3, 182 }, 
	{ NOTE_FS3, 182 }, 
	{ NOTE_FS3, 182 }, 
	{ NOTE_FS3, 182 }, 
	{ NOTE_FS3, 181 }, 
	{ NOTE_GS3, 182 }, 
	{ NOTE_GS3, 91 }, 
	{ NOTE_GS3, 91 }, 
	{ NOTE_GS3, 91 }, 
	{ NOTE_GS3, 91 }, 
	{ NOTE_GS3, 182 }, 
	{ NOTE_GS3, 182 }, 
	{ NOTE_GS3, 91 }, 
	{ NOTE_GS3, 91 }, 
	{ NOTE_GS3, 91 }, 
	{ NOTE_GS3, 91 }, 
	{ NOTE_GS3, 181 }, 
	{ NOTE_GS3, 182 }, 
	{ NOTE_GS3, 91 }, 
	{ NOTE_GS3, 91 }, 
	{ NOTE_GS3, 91 }, 
	{ NOTE_GS3, 91 }, 
	{ NOTE_GS3, 182 }, 
	{ NOTE_GS3, 182 }, 
	{ NOTE_GS3, 91 }, 
	{ NOTE_GS3, 91 }, 
	{ NOTE_GS3, 91 }, 
	{ NOTE_GS3, 91 }, 
	{ NOTE_GS3, 181 }, 
	{ NOTE_E3, 182 }, 
	{ NOTE_E3, 91 }, 
	{ NOTE_E3, 91 }, 
	{ NOTE_E3, 182 }, 
	{ NOTE_E3, 91 }, 
	{ NOTE_E3, 91 }, 
	{ NOTE_E3, 182 }, 
	{ NOTE_E3, 91 }, 
	{ NOTE_E3, 91 }, 
	{ NOTE_E3, 182 }, 
	{ NOTE_E3, 91 }, 
	{ NOTE_E3, 90 }, 
	{ NOTE_CS4, 91 }, 
	{ NOTE_CS4, 91 }, 
	{ NOTE_CS4, 91 }, 
	{ NOTE_CS4, 91 }, 
	{ NOTE_CS4, 91 }, 
	{ NOTE_CS4, 91 }, 
	{ NOTE_CS4, 91 }, 
	{ NOTE_CS4, 91 }, 
	{ NOTE_FS3, 91 }, 
	{ NOTE_FS3, 91 }, 
	{ NOTE_FS3, 91 }, 
	{ NOTE_FS3, 91 }, 
	{ NOTE_FS3, 91 }, 
	{ NOTE_FS3, 91 }, 
	{ NOTE_FS3, 91 }, 
	{ NOTE_FS3, 90 }, 
	{ NOTE_CS4, 1455 }, 
	{ NOTE_GS3, 727 }, 
	{ NOTE_FS3, 182 }, 
	{ NOTE_REST, 182 }, 
	{ NOTE_FS3, 364 }, 
	{ NOTE_E3, 182 }, 
	{ NOTE_E3, 91 }, 
	{ NOTE_E3, 91 }, 
	{ NOTE_E3, 91 }, 
	{ NOTE_E3, 91 }, 
	{ NOTE_E3, 182 }, 
	{ NOTE_E3, 182 }, 
	{ NOTE_E3, 91 }, 
	{ NOTE_E3, 91 }, 
	{ NOTE_E3, 91 }, 
	{ NOTE_E3, 91 }, 
	{ NOTE_E3, 181 }, 
	{ NOTE_B3, 727 }, 
	{ NOTE_FS3, 182 }, 
	{ NOTE_REST, 182 }, 
	{ NOTE_FS3, 364 }, 
	{ NOTE_E3, 91 }, 
	{ NOTE_E3, 91 }, 
	{ NOTE_E3, 182 }, 
	{ NOTE_E3, 91 }, 
	{ NOTE_E3, 91 }, 
	{ NOTE_E3, 182 }, 
	{ NOTE_E3, 91 }, 
	{ NOTE_E3, 91 }, 
	{ NOTE_E3, 182 }, 
	{ NOTE_E3, 91 }, 
	{ NOTE_E3, 91 }, 
	{ NOTE_E3, 181 }, 
	{ NOTE_GS3, 727 }, 
	{ NOTE_FS3, 182 }, 
	{ NOTE_REST, 182 }, 
	{ NOTE_FS3, 364 }, 
	{ NOTE_E3, 182 }, 
	{ NOTE_E3, 91 }, 
	{ NOTE_E3, 91 }, 
	{ NOTE_E3, 91 }, 
	{ NOTE_E3, 91 }, 
	{ NOTE_E3, 182 }, 
	{ NOTE_E3, 182 }, 
	{ NOTE_E3, 91 }, 
	{ NOTE_E3, 91 }, 
	{ NOTE_E3, 91 }, 
	{ NOTE_E3, 91 }, 
	{ NOTE_E3, 181 }, 
	{ NOTE_FS3, 182 }, 
	{ NOTE_FS3, 182 }, 
	{ NOTE_FS3, 182 }, 
	{ NOTE_FS3, 182 }, 
	{ NOTE_FS3, 364 }, 
	{ NOTE_REST, 363 }, 
	{ NOTE_B3, 1455 }, 
	{ NOTE_FS3, 1455 }, 
	{ NOTE_GS3, 1455 }, 
	{ NOTE_DS4, 1455 }, 
	{ NOTE_E3, 182 }, 
	{ NOTE_E3, 91 }, 
	{ NOTE_E3, 91 }, 
	{ NOTE_E3, 91 }, 
	{ NOTE_E3, 91 }, 
	{ NOTE_E3, 182 }, 
	{ NOTE_E3, 182 }, 
	{ NOTE_E3, 91 }, 
	{ NOTE_E3, 91 }, 
	{ NOTE_E3, 91 }, 
	{ NOTE_E3, 91 }, 
	{ NOTE_E3, 181 }, 
	{ NOTE_B3, 182 }, 
	{ NOTE_B3, 91 }, 
	{ NOTE_B3, 91 }, 
	{ NOTE_B3, 91 }, 
	{ NOTE_B3, 91 }, 
	{ NOTE_B3, 182 }, 
	{ NOTE_B3, 182 }, 
	{ NOTE_B3, 91 }, 
	{ NOTE_B3, 91 }, 
	{ NOTE_B3, 91 }, 
	{ NOTE_B3, 91 }, 
	{ NOTE_B3, 181 }, 
	{ NOTE_FS3, 91 }, 
	{ NOTE_FS3, 91 }, 
	{ NOTE_FS3, 91 }, 
	{ NOTE_FS3, 91 }, 
	{ NOTE_FS3, 91 }, 
	{ NOTE_FS3, 91 }, 
	{ NOTE_FS3, 91 }, 
	{ NOTE_FS3, 91 }, 
	{ NOTE_FS3, 91 }, 
	{ NOTE_FS3, 91 }, 
	{ NOTE_FS3, 91 }, 
	{ NOTE_FS3, 91 }, 
	{ NOTE_FS3, 91 }, 
	{ NOTE_FS3, 91 }, 
	{ NOTE_FS3, 91 }, 
	{ NOTE_FS3, 90 }, 
	{ NOTE_FS3, 91 }, 
	{ NOTE_FS3, 91 }, 
	{ NOTE_FS3, 91 }, 
	{ NOTE_FS3, 91 }, 
	{ NOTE_FS3, 91 }, 
	{ NOTE_FS3, 91 }, 
	{ NOTE_FS3, 91 }, 
	{ NOTE_FS3, 91 }, 
	{ NOTE_FS3, 91 }, 
	{ NOTE_FS3, 91 }, 
	{ NOTE_FS3, 91 }, 
	{ NOTE_FS3, 91 }, 
	{ NOTE_FS3, 91 }, 
	{ NOTE_FS3, 91 }, 
	{ NOTE_FS3, 91 }, 
	{ NOTE_FS3, 90 }, 
	{ NOTE_B3, 1455 }, 
	{ NOTE_AS3, 727 }, 
	{ NOTE_FS3, 728 }, 
	{ NOTE_GS3, 727 }, 
	{ NOTE_AS3, 364 }, 
	{ NOTE_B3, 364 }, 
	{ NOTE_FS3, 727 }, 
	{ NOTE_DS3, 728 }, 
	{ NOTE_E3, 182 }, 
	{ NOTE_E3, 91 }, 
	{ NOTE_E3, 91 }, 
	{ NOTE_E3, 91 }, 
	{ NOTE_E3, 91 }, 
	{ NOTE_E3, 182 }, 
	{ NOTE_E3, 182 }, 
	{ NOTE_E3, 91 }, 
	{ NOTE_E3, 91 }, 
	{ NOTE_E3, 91 }, 
	{ NOTE_E3, 91 }, 
	{ NOTE_E3, 91 }, 
	{ NOTE_E3, 90 }, 
	{ NOTE_FS3, 364 }, 
	{ NOTE_REST, 364 }, 
	{ NOTE_REST, 727 }, 
	{ NOTE_GS4, 182 }, 
	{ NOTE_DS5, 91 }, 
	{ NOTE_CS5, 91 }, 
	{ NOTE_DS5, 182 }, 
	{ NOTE_GS4, 182 }, 
	{ NOTE_DS5, 91 }, 
	{ NOTE_CS5, 91 }, 
	{ NOTE_DS5, 182 }, 
	{ NOTE_GS4, 182 }, 
	{ NOTE_DS5, 91 }, 
	{ NOTE_CS5, 90 }, 
	{ NOTE_DS5, 182 }, 
	{ NOTE_GS4, 182 }, 
	{ NOTE_DS5, 91 }, 
	{ NOTE_CS5, 91 }, 
	{ NOTE_DS5, 182 }, 
	{ NOTE_GS4, 364 }, 
	{ NOTE_GS4, 363 }, 
	{ NOTE_CS4, 182 }, 
	{ NOTE_CS4, 91 }, 
	{ NOTE_CS4, 91 }, 
	{ NOTE_CS4, 91 }, 
	{ NOTE_CS4, 91 }, 
	{ NOTE_CS4, 182 }, 
	{ NOTE_CS4, 182 }, 
	{ NOTE_CS4, 91 }, 
	{ NOTE_CS4, 91 }, 
	{ NOTE_CS4, 91 }, 
	{ NOTE_CS4, 91 }, 
	{ NOTE_CS4, 181 }, 
	{ NOTE_C4, 1455 }, 
	{ NOTE_CS4, 182 }, 
	{ NOTE_CS4, 91 }, 
	{ NOTE_CS4, 91 }, 
	{ NOTE_CS4, 91 }, 
	{ NOTE_CS4, 91 }, 
	{ NOTE_CS4, 182 }, 
	{ NOTE_CS4, 182 }, 
	{ NOTE_CS4, 91 }, 
	{ NOTE_CS4, 91 }, 
	{ NOTE_CS4, 91 }, 
	{ NOTE_CS4, 91 }, 
	{ NOTE_CS4, 181 }, 
	{ NOTE_B3, 1455 }, 
	{ NOTE_E4, 182 }, 
	{ NOTE_E4, 91 }, 
	{ NOTE_E4, 91 }, 
	{ NOTE_E4, 91 }, 
	{ NOTE_E4, 91 }, 
	{ NOTE_E4, 182 }, 
	{ NOTE_E4, 182 }, 
	{ NOTE_E4, 91 }, 
	{ NOTE_E4, 91 }, 
	{ NOTE_E4, 91 }, 
	{ NOTE_E4, 91 }, 
	{ NOTE_E4, 181 }, 
	{ NOTE_B3, 1455 }, 
	{ NOTE_A3, 182 }, 
	{ NOTE_A3, 91 }, 
	{ NOTE_A3, 91 }, 
	{ NOTE_A3, 91 }, 
	{ NOTE_A3, 91 }, 
	{ NOTE_A3, 182 }, 
	{ NOTE_GS3, 0 }, 
	{ NOTE_A3, 182 }, 
	{ NOTE_GS3, 0 }, 
	{ NOTE_A3, 182 }, 
	{ NOTE_GS3, 0 }, 
	{ NOTE_A3, 182 }, 
	{ NOTE_GS3, 0 }, 
	{ NOTE_A3, 181 }, 
	{ NOTE_GS5, 91 }, 
	{ NOTE_E5, 91 }, 
	{ NOTE_FS5, 91 }, 
	{ NOTE_GS5, 91 }, 
	{ NOTE_A5, 91 }, 
	{ NOTE_FS5, 91 }, 
	{ NOTE_GS5, 91 }, 
	{ NOTE_B5, 91 }, 
	{ NOTE_C6, 91 }, 
	{ NOTE_AS5, 91 }, 
	{ NOTE_GS5, 91 }, 
	{ NOTE_FS5, 91 }, 
	{ NOTE_E5, 91 }, 
	{ NOTE_DS5, 91 }, 
	{ NOTE_CS5, 91 }, 
	{ NOTE_C5, 90 }, 
	{ NOTE_CS5, 545 }, 
	{ NOTE_CS5, 545 }, 
	{ NOTE_DS5, 182 }, 
	{ NOTE_DS5, 183 }, 
	{ NOTE_DS5, 1455 }, 
	{ NOTE_GS5, 545 }, 
	{ NOTE_GS5, 545 }, 
	{ NOTE_B5, 182 }, 
	{ NOTE_CS6, 183 }, 
	{ NOTE_B5, 1455 }, 
	{ NOTE_B5, 182 }, 
	{ NOTE_GS5, 182 }, 
	{ NOTE_GS5, 182 }, 
	{ NOTE_CS6, 182 }, 
	{ NOTE_GS5, 182 }, 
	{ NOTE_GS5, 182 }, 
	{ NOTE_DS6, 182 }, 
	{ NOTE_E6, 181 }, 
	{ NOTE_B5, 545 }, 
	{ NOTE_B5, 91 }, 
	{ NOTE_A5, 91 }, 
	{ NOTE_B5, 728 }, 
	{ NOTE_GS5, 545 }, 
	{ NOTE_A5, 182 }, 
	{ NOTE_A5, 545 }, 
	{ NOTE_A5, 91 }, 
	{ NOTE_GS5, 92 }, 
	{ NOTE_AS5, 545 }, 
	{ NOTE_B5, 182 }, 
	{ NOTE_CS6, 728 }, 
	{ NOTE_E3, 91 }, 
	{ NOTE_E3, 91 }, 
	{ NOTE_E3, 91 }, 
	{ NOTE_E3, 91 }, 
	{ NOTE_E3, 91 }, 
	{ NOTE_E3, 91 }, 
	{ NOTE_E3, 91 }, 
	{ NOTE_E3, 91 }, 
	{ NOTE_E3, 91 }, 
	{ NOTE_E3, 91 }, 
	{ NOTE_E3, 91 }, 
	{ NOTE_E3, 91 }, 
	{ NOTE_E3, 91 }, 
	{ NOTE_E3, 91 }, 
	{ NOTE_E3, 91 }, 
	{ NOTE_E3, 90 }, 
	{ NOTE_E3, 91 }, 
	{ NOTE_E3, 91 }, 
	{ NOTE_E3, 91 }, 
	{ NOTE_E3, 91 }, 
	{ NOTE_E3, 91 }, 
	{ NOTE_E3, 91 }, 
	{ NOTE_E3, 91 }, 
	{ NOTE_E3, 91 }, 
	{ NOTE_E3, 91 }, 
	{ NOTE_E3, 91 }, 
	{ NOTE_E3, 91 }, 
	{ NOTE_E3, 91 }, 
	{ NOTE_E3, 91 }, 
	{ NOTE_E3, 91 }, 
	{ NOTE_E3, 91 }, 
	{ NOTE_E3, 90 }, 
	{ NOTE_B3, 727 }, 
	{ NOTE_AS3, 728 }, 
	{ NOTE_B3, 727 }, 
	{ NOTE_FS3, 728 }, 
	{ NOTE_E3, 91 }, 
	{ NOTE_E3, 91 }, 
	{ NOTE_E3, 91 }, 
	{ NOTE_E3, 91 }, 
	{ NOTE_E3, 91 }, 
	{ NOTE_E3, 91 }, 
	{ NOTE_E3, 91 }, 
	{ NOTE_E3, 91 }, 
	{ NOTE_E3, 91 }, 
	{ NOTE_E3, 91 }, 
	{ NOTE_E3, 91 }, 
	{ NOTE_E3, 91 }, 
	{ NOTE_E3, 91 }, 
	{ NOTE_E3, 91 }, 
	{ NOTE_E3, 91 }, 
	{ NOTE_E3, 90 }, 
	{ NOTE_CS4, 91 }, 
	{ NOTE_CS4, 91 }, 
	{ NOTE_CS4, 91 }, 
	{ NOTE_CS4, 91 }, 
	{ NOTE_CS4, 91 }, 
	{ NOTE_CS4, 91 }, 
	{ NOTE_CS4, 91 }, 
	{ NOTE_CS4, 91 }, 
	{ NOTE_CS4, 91 }, 
	{ NOTE_CS4, 91 }, 
	{ NOTE_CS4, 91 }, 
	{ NOTE_CS4, 91 }, 
	{ NOTE_CS4, 91 }, 
	{ NOTE_CS4, 91 }, 
	{ NOTE_CS4, 91 }, 
	{ NOTE_CS4, 90 }, 
	{ NOTE_FS3, 91 }, 
	{ NOTE_FS3, 91 }, 
	{ NOTE_FS3, 91 }, 
	{ NOTE_FS3, 91 }, 
	{ NOTE_FS3, 91 }, 
	{ NOTE_FS3, 91 }, 
	{ NOTE_FS3, 91 }, 
	{ NOTE_FS3, 91 }, 
	{ NOTE_FS3, 91 }, 
	{ NOTE_FS3, 91 }, 
	{ NOTE_FS3, 91 }, 
	{ NOTE_FS3, 91 }, 
	{ NOTE_FS3, 91 }, 
	{ NOTE_FS3, 91 }, 
	{ NOTE_FS3, 91 }, 
	{ NOTE_FS3, 90 }, 
	{ NOTE_GS3, 727 }, 
	{ NOTE_FS3, 728 }, 
	{ NOTE_GS6, 91 }, 
	{ NOTE_E6, 91 }, 
	{ NOTE_CS6, 91 }, 
	{ NOTE_GS5, 91 }, 
	{ NOTE_GS6, 91 }, 
	{ NOTE_E6, 91 }, 
	{ NOTE_GS6, 91 }, 
	{ NOTE_E6, 91 }, 
	{ NOTE_FS6, 91 }, 
	{ NOTE_DS6, 91 }, 
	{ NOTE_B5, 91 }, 
	{ NOTE_GS5, 91 }, 
	{ NOTE_FS6, 91 }, 
	{ NOTE_DS6, 91 }, 
	{ NOTE_B5, 91 }, 
	{ NOTE_GS5, 90 }, 
	{ NOTE_GS6, 91 }, 
	{ NOTE_E6, 91 }, 
	{ NOTE_CS6, 91 }, 
	{ NOTE_GS5, 91 }, 
	{ NOTE_GS6, 91 }, 
	{ NOTE_E6, 91 }, 
	{ NOTE_GS6, 91 }, 
	{ NOTE_E6, 91 }, 
	{ NOTE_FS6, 91 }, 
	{ NOTE_DS6, 91 }, 
	{ NOTE_B5, 91 }, 
	{ NOTE_GS5, 91 }, 
	{ NOTE_FS6, 91 }, 
	{ NOTE_DS6, 91 }, 
	{ NOTE_B5, 91 }, 
	{ NOTE_GS5, 90 }, 
	{ NOTE_CS6, 182 }, 
	{ NOTE_DS6, 182 }, 
	{ NOTE_DS6, 182 }, 
	{ NOTE_FS6, 182 }, 
	{ NOTE_CS6, 364 }, 
	{ NOTE_CS6, 363 }, 
	{ NOTE_AS6, 91 }, 
	{ NOTE_B6, 91 }, 
	{ NOTE_B6, 61 }, 
	{ NOTE_AS6, 61 }, 
	{ NOTE_AS6, 61 }, 
	{ NOTE_GS6, 182 }, 
	{ NOTE_AS6, 182 }, 
	{ NOTE_B6, 182 }, 
	{ NOTE_AS6, 182 }, 
	{ NOTE_FS6, 362 }, 
	{ NOTE_B6, 91 }, 
	{ NOTE_GS6, 91 }, 
	{ NOTE_E6, 91 }, 
	{ NOTE_CS6, 91 }, 
	{ NOTE_B6, 91 }, 
	{ NOTE_GS6, 91 }, 
	{ NOTE_E6, 91 }, 
	{ NOTE_CS6, 91 }, 
	{ NOTE_GS5, 91 }, 
	{ NOTE_E5, 91 }, 
	{ NOTE_CS5, 91 }, 
	{ NOTE_E5, 91 }, 
	{ NOTE_GS5, 91 }, 
	{ NOTE_FS5, 91 }, 
	{ NOTE_CS6, 91 }, 
	{ NOTE_E6, 90 }, 
	{ NOTE_GS6, 91 }, 
	{ NOTE_E6, 91 }, 
	{ NOTE_FS6, 91 }, 
	{ NOTE_GS6, 91 }, 
	{ NOTE_E6, 91 }, 
	{ NOTE_CS6, 91 }, 
	{ NOTE_GS5, 91 }, 
	{ NOTE_E5, 91 }, 
	{ NOTE_CS5, 91 }, 
	{ NOTE_E5, 91 }, 
	{ NOTE_GS5, 91 }, 
	{ NOTE_B5, 91 }, 
	{ NOTE_AS5, 91 }, 
	{ NOTE_B5, 91 }, 
	{ NOTE_AS5, 61 }, 
	{ NOTE_B5, 61 }, 
	{ NOTE_AS5, 59 }, 
	{ NOTE_DS5, 242 }, 
	{ NOTE_G5, 242 }, 
	{ NOTE_AS5, 242 }, 
	{ NOTE_DS6, 242 }, 
	{ NOTE_F6, 242 }, 
	{ NOTE_G6, 245 }, 
	{ NOTE_G6, 1455 }, 
	{ NOTE_REST, 1455 }, 
	{ NOTE_REST, 1455 }, 
	{ NOTE_REST, 1455 }, 
	{ NOTE_REST, 1455 }, 
	{ NOTE_DS3, 91 }, 
	{ NOTE_DS3, 91 }, 
	{ NOTE_DS3, 91 }, 
	{ NOTE_DS3, 91 }, 
	{ NOTE_CS4, 182 }, 
	{ NOTE_B3, 182 }, 
	{ NOTE_DS3, 91 }, 
	{ NOTE_DS3, 91 }, 
	{ NOTE_DS3, 91 }, 
	{ NOTE_DS3, 91 }, 
	{ NOTE_DS4, 91 }, 
	{ NOTE_F4, 91 }, 
	{ NOTE_DS3, 91 }, 
	{ NOTE_DS3, 90 }, 
	{ NOTE_F4, 91 }, 
	{ NOTE_FS4, 91 }, 
	{ NOTE_DS3, 91 }, 
	{ NOTE_DS3, 91 }, 
	{ NOTE_DS3, 91 }, 
	{ NOTE_DS3, 91 }, 
	{ NOTE_GS4, 91 }, 
	{ NOTE_FS4, 91 }, 
	{ NOTE_DS3, 91 }, 
	{ NOTE_DS3, 91 }, 
	{ NOTE_DS3, 91 }, 
	{ NOTE_DS3, 91 }, 
	{ NOTE_DS4, 91 }, 
	{ NOTE_CS4, 91 }, 
	{ NOTE_AS3, 91 }, 
	{ NOTE_GS3, 90 }, 
	{ NOTE_DS3, 91 }, 
	{ NOTE_DS3, 91 }, 
	{ NOTE_DS3, 91 }, 
	{ NOTE_DS3, 91 }, 
	{ NOTE_CS4, 182 }, 
	{ NOTE_B3, 182 }, 
	{ NOTE_DS3, 91 }, 
	{ NOTE_DS3, 91 }, 
	{ NOTE_DS3, 91 }, 
	{ NOTE_DS3, 91 }, 
	{ NOTE_DS4, 91 }, 
	{ NOTE_F4, 91 }, 
	{ NOTE_DS3, 91 }, 
	{ NOTE_DS3, 90 }, 
	{ NOTE_F4, 91 }, 
	{ NOTE_FS4, 91 }, 
	{ NOTE_DS3, 91 }, 
	{ NOTE_DS3, 91 }, 
	{ NOTE_FS3, 182 }, 
	{ NOTE_GS3, 182 }, 
	{ NOTE_AS3, 182 }, 
	{ NOTE_GS3, 182 }, 
	{ NOTE_CS4, 182 }, 
	{ NOTE_C4, 908 }, 
	{ NOTE_D5, 242 }, 
	{ NOTE_DS5, 242 }, 
	{ NOTE_F5, 244 }, 
	{ NOTE_F5, 182 }, 
	{ NOTE_G5, 242 }, 
	{ NOTE_F5, 242 }, 
	{ NOTE_DS5, 242 }, 
	{ NOTE_D5, 182 }, 
	{ NOTE_C5, 182 }, 
	{ NOTE_DS3, 183 }, 
	{ NOTE_DS3, 91 }, 
	{ NOTE_DS3, 91 }, 
	{ NOTE_DS3, 91 }, 
	{ NOTE_DS3, 91 }, 
	{ NOTE_CS4, 182 }, 
	{ NOTE_B3, 182 }, 
	{ NOTE_DS3, 91 }, 
	{ NOTE_DS3, 91 }, 
	{ NOTE_DS3, 91 }, 
	{ NOTE_DS3, 91 }, 
	{ NOTE_DS4, 91 }, 
	{ NOTE_F4, 91 }, 
	{ NOTE_DS3, 91 }, 
	{ NOTE_DS3, 90 }, 
	{ NOTE_F4, 91 }, 
	{ NOTE_FS4, 91 }, 
	{ NOTE_DS3, 91 }, 
	{ NOTE_DS3, 91 }, 
	{ NOTE_DS3, 91 }, 
	{ NOTE_DS3, 91 }, 
	{ NOTE_GS4, 91 }, 
	{ NOTE_FS4, 91 }, 
	{ NOTE_DS3, 91 }, 
	{ NOTE_DS3, 91 }, 
	{ NOTE_DS3, 91 }, 
	{ NOTE_DS3, 91 }, 
	{ NOTE_DS4, 91 }, 
	{ NOTE_CS4, 91 }, 
	{ NOTE_AS3, 91 }, 
	{ NOTE_GS3, 90 }, 
	{ NOTE_DS3, 91 }, 
	{ NOTE_DS3, 91 }, 
	{ NOTE_DS3, 91 }, 
	{ NOTE_DS3, 91 }, 
	{ NOTE_CS4, 182 }, 
	{ NOTE_B3, 182 }, 
	{ NOTE_DS3, 91 }, 
	{ NOTE_DS3, 91 }, 
	{ NOTE_DS3, 91 }, 
	{ NOTE_DS3, 91 }, 
	{ NOTE_DS4, 91 }, 
	{ NOTE_F4, 91 }, 
	{ NOTE_DS3, 91 }, 
	{ NOTE_DS3, 90 }, 
	{ NOTE_F4, 91 }, 
	{ NOTE_FS4, 91 }, 
	{ NOTE_DS3, 91 }, 
	{ NOTE_DS3, 91 }, 
	{ NOTE_FS3, 182 }, 
	{ NOTE_GS3, 182 }, 
	{ NOTE_AS3, 182 }, 
	{ NOTE_GS3, 182 }, 
	{ NOTE_CS4, 182 }, 
	{ NOTE_C4, 908 }, 
	{ NOTE_D5, 242 }, 
	{ NOTE_DS5, 242 }, 
	{ NOTE_F5, 244 }, 
	{ NOTE_F5, 182 }, 
	{ NOTE_G5, 242 }, 
	{ NOTE_F5, 242 }, 
	{ NOTE_DS5, 242 }, 
	{ NOTE_D5, 182 }, 
	{ NOTE_C5, 182 }, 
	{ NOTE_GS4, 910 }, 
	{ NOTE_CS5, 242 }, 
	{ NOTE_F5, 242 }, 
	{ NOTE_G5, 244 }, 
	{ NOTE_GS5, 242 }, 
	{ NOTE_G5, 242 }, 
	{ NOTE_F5, 242 }, 
	{ NOTE_G5, 364 }, 
	{ NOTE_GS5, 365 }, 
	{ NOTE_GS5, 364 }, 
	{ NOTE_REST, 364 }, 
	{ NOTE_REST, 727 }, 
	{ NOTE_REST, 1455 }, 
	{ NOTE_CS4, 1455 }, 
	{ NOTE_GS3, 727 }, 
	{ NOTE_FS3, 182 }, 
	{ NOTE_REST, 182 }, 
	{ NOTE_FS3, 364 }, 
	{ NOTE_E3, 182 }, 
	{ NOTE_E3, 91 }, 
	{ NOTE_E3, 91 }, 
	{ NOTE_E3, 91 }, 
	{ NOTE_E3, 91 }, 
	{ NOTE_E3, 182 }, 
	{ NOTE_E3, 182 }, 
	{ NOTE_E3, 91 }, 
	{ NOTE_E3, 91 }, 
	{ NOTE_E3, 91 }, 
	{ NOTE_E3, 91 }, 
	{ NOTE_E3, 181 }, 
	{ NOTE_B3, 727 }, 
	{ NOTE_FS3, 182 }, 
	{ NOTE_REST, 182 }, 
	{ NOTE_FS3, 364 }, 
	{ NOTE_E3, 91 }, 
	{ NOTE_E3, 91 }, 
	{ NOTE_E3, 182 }, 
	{ NOTE_E3, 91 }, 
	{ NOTE_E3, 91 }, 
	{ NOTE_E3, 182 }, 
	{ NOTE_E3, 91 }, 
	{ NOTE_E3, 91 }, 
	{ NOTE_E3, 182 }, 
	{ NOTE_E3, 91 }, 
	{ NOTE_E3, 91 }, 
	{ NOTE_E3, 181 }, 
	{ NOTE_GS3, 727 }, 
	{ NOTE_FS3, 182 }, 
	{ NOTE_REST, 182 }, 
	{ NOTE_FS3, 364 }, 
	{ NOTE_E3, 182 }, 
	{ NOTE_E3, 91 }, 
	{ NOTE_E3, 91 }, 
	{ NOTE_E3, 91 }, 
	{ NOTE_E3, 91 }, 
	{ NOTE_E3, 182 }, 
	{ NOTE_E3, 182 }, 
	{ NOTE_E3, 91 }, 
	{ NOTE_E3, 91 }, 
	{ NOTE_E3, 91 }, 
	{ NOTE_E3, 91 }, 
	{ NOTE_E3, 181 }, 
	{ NOTE_FS3, 182 }, 
	{ NOTE_FS3, 182 }, 
	{ NOTE_FS3, 182 }, 
	{ NOTE_FS3, 182 }, 
	{ NOTE_FS3, 364 }, 
	{ NOTE_REST, 363 }, 
	{ NOTE_B3, 1455 }, 
	{ NOTE_FS3, 1455 }, 
	{ NOTE_GS3, 1455 }, 
	{ NOTE_DS4, 1455 }, 
	{ NOTE_E3, 182 }, 
	{ NOTE_E3, 91 }, 
	{ NOTE_E3, 91 }, 
	{ NOTE_E3, 91 }, 
	{ NOTE_E3, 91 }, 
	{ NOTE_E3, 182 }, 
	{ NOTE_E3, 182 }, 
	{ NOTE_E3, 91 }, 
	{ NOTE_E3, 91 }, 
	{ NOTE_E3, 91 }, 
	{ NOTE_E3, 91 }, 
	{ NOTE_E3, 181 }, 
	{ NOTE_B3, 182 }, 
	{ NOTE_B3, 91 }, 
	{ NOTE_B3, 91 }, 
	{ NOTE_B3, 91 }, 
	{ NOTE_B3, 91 }, 
	{ NOTE_B3, 182 }, 
	{ NOTE_B3, 182 }, 
	{ NOTE_B3, 91 }, 
	{ NOTE_B3, 91 }, 
	{ NOTE_B3, 91 }, 
	{ NOTE_B3, 91 }, 
	{ NOTE_B3, 181 }, 
	{ NOTE_FS3, 91 }, 
	{ NOTE_FS3, 91 }, 
	{ NOTE_FS3, 91 }, 
	{ NOTE_FS3, 91 }, 
	{ NOTE_FS3, 91 }, 
	{ NOTE_FS3, 91 }, 
	{ NOTE_FS3, 91 }, 
	{ NOTE_FS3, 91 }, 
	{ NOTE_FS3, 91 }, 
	{ NOTE_FS3, 91 }, 
	{ NOTE_FS3, 91 }, 
	{ NOTE_FS3, 91 }, 
	{ NOTE_FS3, 91 }, 
	{ NOTE_FS3, 91 }, 
	{ NOTE_FS3, 91 }, 
	{ NOTE_FS3, 90 }, 
	{ NOTE_FS3, 91 }, 
	{ NOTE_FS3, 91 }, 
	{ NOTE_FS3, 91 }, 
	{ NOTE_FS3, 91 }, 
	{ NOTE_FS3, 91 }, 
	{ NOTE_FS3, 91 }, 
	{ NOTE_FS3, 91 }, 
	{ NOTE_FS3, 91 }, 
	{ NOTE_FS3, 91 }, 
	{ NOTE_FS3, 91 }, 
	{ NOTE_FS3, 91 }, 
	{ NOTE_FS3, 91 }, 
	{ NOTE_FS3, 91 }, 
	{ NOTE_FS3, 91 }, 
	{ NOTE_FS3, 91 }, 
	{ NOTE_FS3, 90 }, 
	{ NOTE_B3, 1455 }, 
	{ NOTE_AS3, 727 }, 
	{ NOTE_FS3, 728 }, 
	{ NOTE_GS3, 727 }, 
	{ NOTE_AS3, 364 }, 
	{ NOTE_B3, 364 }, 
	{ NOTE_FS3, 727 }, 
	{ NOTE_DS3, 728 }, 
	{ NOTE_E3, 182 }, 
	{ NOTE_E3, 91 }, 
	{ NOTE_E3, 91 }, 
	{ NOTE_E3, 91 }, 
	{ NOTE_E3, 91 }, 
	{ NOTE_E3, 182 }, 
	{ NOTE_E3, 182 }, 
	{ NOTE_E3, 91 }, 
	{ NOTE_E3, 91 }, 
	{ NOTE_E3, 91 }, 
	{ NOTE_E3, 91 }, 
	{ NOTE_E3, 91 }, 
	{ NOTE_E3, 90 }, 
	{ NOTE_FS3, 364 }, 
	{ NOTE_REST, 364 }, 
	{ NOTE_REST, 727 }, 
	{ NOTE_CS4, 1455 }, 
	{ NOTE_GS3, 1455 }, 
	{ NOTE_AS3, 1455 }, 
	{ NOTE_F3, 1455 }, 
	{ NOTE_FS3, 182 }, 
	{ NOTE_FS3, 91 }, 
	{ NOTE_FS3, 91 }, 
	{ NOTE_FS3, 91 }, 
	{ NOTE_FS3, 91 }, 
	{ NOTE_FS3, 91 }, 
	{ NOTE_FS3, 91 }, 
	{ NOTE_FS3, 182 }, 
	{ NOTE_FS3, 91 }, 
	{ NOTE_FS3, 91 }, 
	{ NOTE_FS3, 91 }, 
	{ NOTE_FS3, 91 }, 
	{ NOTE_FS3, 91 }, 
	{ NOTE_FS3, 90 }, 
	{ NOTE_CS4, 91 }, 
	{ NOTE_CS4, 91 }, 
	{ NOTE_CS4, 91 }, 
	{ NOTE_CS4, 91 }, 
	{ NOTE_CS4, 91 }, 
	{ NOTE_CS4, 91 }, 
	{ NOTE_CS4, 91 }, 
	{ NOTE_CS4, 91 }, 
	{ NOTE_CS4, 91 }, 
	{ NOTE_CS4, 91 }, 
	{ NOTE_CS4, 91 }, 
	{ NOTE_CS4, 91 }, 
	{ NOTE_CS4, 91 }, 
	{ NOTE_CS4, 91 }, 
	{ NOTE_CS4, 91 }, 
	{ NOTE_CS4, 90 }, 
	{ NOTE_GS3, 364 }, 
	{ NOTE_GS3, 727 }, 
	{ NOTE_GS3, 364 }, 
	{ NOTE_GS3, 91 }, 
	{ NOTE_GS3, 91 }, 
	{ NOTE_GS3, 91 }, 
	{ NOTE_GS3, 91 }, 
	{ NOTE_GS3, 91 }, 
	{ NOTE_GS3, 91 }, 
	{ NOTE_GS3, 91 }, 
	{ NOTE_GS3, 91 }, 
	{ NOTE_GS3, 91 }, 
	{ NOTE_GS3, 91 }, 
	{ NOTE_GS3, 91 }, 
	{ NOTE_GS3, 91 }, 
	{ NOTE_GS3, 91 }, 
	{ NOTE_GS3, 91 }, 
	{ NOTE_GS3, 91 }, 
	{ NOTE_GS3, 90 }, 
	{ NOTE_CS4, 1455 }, 
	{ NOTE_C4, 727 }, 
	{ NOTE_GS3, 728 }, 
	{ NOTE_AS3, 727 }, 
	{ NOTE_C4, 364 }, 
	{ NOTE_CS4, 364 }, 
	{ NOTE_GS3, 727 }, 
	{ NOTE_F3, 728 }, 
	{ NOTE_FS3, 182 }, 
	{ NOTE_FS3, 91 }, 
	{ NOTE_FS3, 91 }, 
	{ NOTE_FS3, 91 }, 
	{ NOTE_FS3, 91 }, 
	{ NOTE_FS3, 91 }, 
	{ NOTE_FS3, 91 }, 
	{ NOTE_FS3, 182 }, 
	{ NOTE_FS3, 91 }, 
	{ NOTE_FS3, 91 }, 
	{ NOTE_FS3, 91 }, 
	{ NOTE_FS3, 91 }, 
	{ NOTE_FS3, 91 }, 
	{ NOTE_FS3, 90 }, 
	{ NOTE_GS3, 1455 }, 
	{ NOTE_CS4, 1455 }, 
	{ NOTE_C4, 727 }, 
	{ NOTE_GS3, 728 }, 
	{ NOTE_AS3, 727 }, 
	{ NOTE_C4, 364 }, 
	{ NOTE_CS4, 364 }, 
	{ NOTE_GS3, 727 }, 
	{ NOTE_F3, 728 }, 
	{ NOTE_FS3, 182 }, 
	{ NOTE_FS3, 91 }, 
	{ NOTE_FS3, 91 }, 
	{ NOTE_FS3, 91 }, 
	{ NOTE_FS3, 91 }, 
	{ NOTE_FS3, 91 }, 
	{ NOTE_FS3, 91 }, 
	{ NOTE_FS3, 182 }, 
	{ NOTE_FS3, 91 }, 
	{ NOTE_FS3, 91 }, 
	{ NOTE_FS3, 91 }, 
	{ NOTE_FS3, 91 }, 
	{ NOTE_FS3, 91 }, 
	{ NOTE_FS3, 90 }, 
	{ NOTE_GS3, 1455 }, 
	{ NOTE_CS5, 182 }, 
	{ NOTE_F5, 91 }, 
	{ NOTE_DS5, 91 }, 
	{ NOTE_F5, 182 }, 
	{ NOTE_CS5, 182 }, 
	{ NOTE_F5, 91 }, 
	{ NOTE_DS5, 91 }, 
	{ NOTE_F5, 182 }, 
	{ NOTE_CS5, 182 }, 
	{ NOTE_F5, 91 }, 
	{ NOTE_DS5, 90 }, 
	{ NOTE_F5, 182 }, 
	{ NOTE_CS5, 182 }, 
	{ NOTE_F5, 91 }, 
	{ NOTE_DS5, 91 }, 
	{ NOTE_F5, 182 }, 
	{ NOTE_CS5, 364 }, 
	{ NOTE_C5, 363 }, 
	{ NOTE_FS3, 1455 }, 
	{ NOTE_GS3, 1455 }, 
	{ NOTE_CS5, 182 }, 
	{ NOTE_F5, 91 }, 
	{ NOTE_DS5, 91 }, 
	{ NOTE_F5, 182 }, 
	{ NOTE_CS5, 182 }, 
	{ NOTE_F5, 91 }, 
	{ NOTE_DS5, 91 }, 
	{ NOTE_F5, 182 }, 
	{ NOTE_CS5, 182 }, 
	{ NOTE_F5, 91 }, 
	{ NOTE_DS5, 90 }, 
	{ NOTE_F5, 182 }, 
	{ NOTE_CS5, 182 }, 
	{ NOTE_F5, 91 }, 
	{ NOTE_DS5, 91 }, 
	{ NOTE_F5, 182 }, 
	{ NOTE_CS5, 364 }, 
	{ NOTE_C5, 363 }, 
	{ NOTE_FS3, 1455 }, 
	{ NOTE_GS3, 364 }, 
	{ NOTE_REST, 364 }, 
	{ NOTE_REST, 727 }, 
};
const uint16_t NUM_OF_NOTES2 = sizeof(melody2)/sizeof(melody2[0]);

const Note melody3[] PROGMEM = {
	{ NOTE_GS4, 182 }, 
	{ NOTE_DS5, 91 }, 
	{ NOTE_CS5, 91 }, 
	{ NOTE_DS5, 182 }, 
	{ NOTE_GS4, 182 }, 
	{ NOTE_DS5, 91 }, 
	{ NOTE_CS5, 91 }, 
	{ NOTE_DS5, 182 }, 
	{ NOTE_GS4, 182 }, 
	{ NOTE_DS5, 91 }, 
	{ NOTE_CS5, 90 }, 
	{ NOTE_DS5, 182 }, 
	{ NOTE_GS4, 182 }, 
	{ NOTE_DS5, 91 }, 
	{ NOTE_CS5, 91 }, 
	{ NOTE_DS5, 182 }, 
	{ NOTE_CS5, 364 }, 
	{ NOTE_CS5, 363 }, 
	{ NOTE_GS4, 182 }, 
	{ NOTE_DS5, 91 }, 
	{ NOTE_CS5, 91 }, 
	{ NOTE_DS5, 182 }, 
	{ NOTE_GS4, 182 }, 
	{ NOTE_DS5, 91 }, 
	{ NOTE_CS5, 91 }, 
	{ NOTE_DS5, 182 }, 
	{ NOTE_GS4, 182 }, 
	{ NOTE_DS5, 91 }, 
	{ NOTE_CS5, 90 }, 
	{ NOTE_DS5, 182 }, 
	{ NOTE_GS4, 182 }, 
	{ NOTE_DS5, 91 }, 
	{ NOTE_CS5, 91 }, 
	{ NOTE_DS5, 182 }, 
	{ NOTE_B3, 91 }, 
	{ NOTE_B3, 91 }, 
	{ NOTE_B4, 182 }, 
	{ NOTE_AS3, 91 }, 
	{ NOTE_AS3, 91 }, 
	{ NOTE_AS4, 181 }, 
	{ NOTE_GS4, 182 }, 
	{ NOTE_DS5, 91 }, 
	{ NOTE_CS5, 91 }, 
	{ NOTE_DS5, 182 }, 
	{ NOTE_GS4, 182 }, 
	{ NOTE_DS5, 91 }, 
	{ NOTE_CS5, 91 }, 
	{ NOTE_DS5, 182 }, 
	{ NOTE_GS4, 182 }, 
	{ NOTE_DS5, 91 }, 
	{ NOTE_CS5, 90 }, 
	{ NOTE_DS5, 182 }, 
	{ NOTE_GS4, 182 }, 
	{ NOTE_DS5, 91 }, 
	{ NOTE_CS5, 91 }, 
	{ NOTE_DS5, 182 }, 
	{ NOTE_CS5, 364 }, 
	{ NOTE_CS5, 363 }, 
	{ NOTE_E5, 727 }, 
	{ NOTE_E5, 242 }, 
	{ NOTE_FS5, 242 }, 
	{ NOTE_GS5, 244 }, 
	{ NOTE_G5, 727 }, 
	{ NOTE_G5, 242 }, 
	{ NOTE_GS5, 242 }, 
	{ NOTE_AS5, 244 }, 
	{ NOTE_GS4, 182 }, 
	{ NOTE_DS5, 91 }, 
	{ NOTE_CS5, 91 }, 
	{ NOTE_DS5, 182 }, 
	{ NOTE_GS4, 182 }, 
	{ NOTE_DS5, 91 }, 
	{ NOTE_CS5, 91 }, 
	{ NOTE_DS5, 182 }, 
	{ NOTE_GS4, 182 }, 
	{ NOTE_DS5, 91 }, 
	{ NOTE_CS5, 90 }, 
	{ NOTE_DS5, 182 }, 
	{ NOTE_GS4, 182 }, 
	{ NOTE_DS5, 91 }, 
	{ NOTE_CS5, 91 }, 
	{ NOTE_DS5, 182 }, 
	{ NOTE_CS5, 364 }, 
	{ NOTE_CS5, 363 }, 
	{ NOTE_GS4, 182 }, 
	{ NOTE_DS5, 91 }, 
	{ NOTE_CS5, 91 }, 
	{ NOTE_DS5, 182 }, 
	{ NOTE_GS4, 182 }, 
	{ NOTE_DS5, 91 }, 
	{ NOTE_CS5, 91 }, 
	{ NOTE_DS5, 182 }, 
	{ NOTE_GS4, 182 }, 
	{ NOTE_DS5, 91 }, 
	{ NOTE_CS5, 90 }, 
	{ NOTE_DS5, 182 }, 
	{ NOTE_GS4, 182 }, 
	{ NOTE_DS5, 91 }, 
	{ NOTE_CS5, 91 }, 
	{ NOTE_DS5, 182 }, 
	{ NOTE_B3, 91 }, 
	{ NOTE_B3, 91 }, 
	{ NOTE_B4, 182 }, 
	{ NOTE_AS3, 91 }, 
	{ NOTE_AS3, 91 }, 
	{ NOTE_AS4, 181 }, 
	{ NOTE_GS4, 182 }, 
	{ NOTE_DS5, 91 }, 
	{ NOTE_CS5, 91 }, 
	{ NOTE_DS5, 182 }, 
	{ NOTE_GS4, 182 }, 
	{ NOTE_DS5, 91 }, 
	{ NOTE_CS5, 91 }, 
	{ NOTE_DS5, 182 }, 
	{ NOTE_GS4, 182 }, 
	{ NOTE_DS5, 91 }, 
	{ NOTE_CS5, 90 }, 
	{ NOTE_DS5, 182 }, 
	{ NOTE_GS4, 182 }, 
	{ NOTE_DS5, 91 }, 
	{ NOTE_CS5, 91 }, 
	{ NOTE_DS5, 182 }, 
	{ NOTE_CS5, 364 }, 
	{ NOTE_CS5, 363 }, 
	{ NOTE_E5, 727 }, 
	{ NOTE_E5, 242 }, 
	{ NOTE_FS5, 242 }, 
	{ NOTE_GS5, 244 }, 
	{ NOTE_G5, 727 }, 
	{ NOTE_G5, 242 }, 
	{ NOTE_GS5, 242 }, 
	{ NOTE_AS5, 244 }, 
	{ NOTE_GS4, 1455 }, 
	{ NOTE_FS4, 1455 }, 
	{ NOTE_E5, 727 }, 
	{ NOTE_E5, 242 }, 
	{ NOTE_FS5, 242 }, 
	{ NOTE_GS5, 244 }, 
	{ NOTE_G5, 727 }, 
	{ NOTE_G5, 242 }, 
	{ NOTE_GS5, 242 }, 
	{ NOTE_AS5, 244 }, 
	{ NOTE_GS6, 91 }, 
	{ NOTE_G6, 91 }, 
	{ NOTE_E6, 91 }, 
	{ NOTE_DS6, 91 }, 
	{ NOTE_CS6, 91 }, 
	{ NOTE_B5, 91 }, 
	{ NOTE_AS5, 91 }, 
	{ NOTE_B5, 91 }, 
	{ NOTE_CS6, 91 }, 
	{ NOTE_B5, 91 }, 
	{ NOTE_AS5, 91 }, 
	{ NOTE_GS5, 91 }, 
	{ NOTE_G5, 91 }, 
	{ NOTE_E5, 91 }, 
	{ NOTE_DS5, 91 }, 
	{ NOTE_CS5, 90 }, 
	{ NOTE_GS5, 91 }, 
	{ NOTE_G5, 91 }, 
	{ NOTE_E5, 91 }, 
	{ NOTE_DS5, 91 }, 
	{ NOTE_CS5, 91 }, 
	{ NOTE_B4, 91 }, 
	{ NOTE_AS4, 91 }, 
	{ NOTE_B4, 91 }, 
	{ NOTE_CS5, 91 }, 
	{ NOTE_B4, 91 }, 
	{ NOTE_AS4, 91 }, 
	{ NOTE_GS4, 91 }, 
	{ NOTE_G4, 91 }, 
	{ NOTE_E4, 91 }, 
	{ NOTE_DS4, 91 }, 
	{ NOTE_CS4, 90 }, 
	{ NOTE_B3, 2910 }, 
	{ NOTE_CS4, 121 }, 
	{ NOTE_CS4, 121 }, 
	{ NOTE_CS4, 121 }, 
	{ NOTE_CS4, 121 }, 
	{ NOTE_CS4, 121 }, 
	{ NOTE_CS4, 121 }, 
	{ NOTE_CS4, 121 }, 
	{ NOTE_CS4, 121 }, 
	{ NOTE_CS4, 121 }, 
	{ NOTE_CS4, 121 }, 
	{ NOTE_CS4, 121 }, 
	{ NOTE_CS4, 124 }, 
	{ NOTE_CS4, 121 }, 
	{ NOTE_CS4, 121 }, 
	{ NOTE_CS4, 121 }, 
	{ NOTE_CS4, 121 }, 
	{ NOTE_CS4, 121 }, 
	{ NOTE_CS4, 121 }, 
	{ NOTE_CS4, 121 }, 
	{ NOTE_CS4, 121 }, 
	{ NOTE_CS4, 121 }, 
	{ NOTE_CS4, 121 }, 
	{ NOTE_CS4, 121 }, 
	{ NOTE_CS4, 124 }, 
	{ NOTE_CS4, 121 }, 
	{ NOTE_CS4, 121 }, 
	{ NOTE_CS4, 121 }, 
	{ NOTE_CS4, 121 }, 
	{ NOTE_CS4, 121 }, 
	{ NOTE_CS4, 121 }, 
	{ NOTE_CS4, 121 }, 
	{ NOTE_CS4, 121 }, 
	{ NOTE_CS4, 121 }, 
	{ NOTE_CS4, 121 }, 
	{ NOTE_CS4, 121 }, 
	{ NOTE_CS4, 124 }, 
	{ NOTE_CS4, 121 }, 
	{ NOTE_CS4, 121 }, 
	{ NOTE_CS4, 121 }, 
	{ NOTE_CS4, 121 }, 
	{ NOTE_CS4, 121 }, 
	{ NOTE_CS4, 121 }, 
	{ NOTE_CS4, 121 }, 
	{ NOTE_CS4, 121 }, 
	{ NOTE_CS4, 121 }, 
	{ NOTE_CS4, 121 }, 
	{ NOTE_CS4, 121 }, 
	{ NOTE_CS4, 124 }, 
	{ NOTE_DS4, 364 }, 
	{ NOTE_REST, 363 }, 
	{ NOTE_GS4, 182 }, 
	{ NOTE_GS3, 91 }, 
	{ NOTE_GS3, 91 }, 
	{ NOTE_GS3, 91 }, 
	{ NOTE_GS3, 91 }, 
	{ NOTE_GS4, 182 }, 
	{ NOTE_GS4, 182 }, 
	{ NOTE_GS3, 91 }, 
	{ NOTE_GS3, 91 }, 
	{ NOTE_GS3, 91 }, 
	{ NOTE_GS3, 91 }, 
	{ NOTE_GS3, 91 }, 
	{ NOTE_GS3, 90 }, 
	{ NOTE_GS4, 182 }, 
	{ NOTE_GS3, 91 }, 
	{ NOTE_GS3, 91 }, 
	{ NOTE_GS3, 91 }, 
	{ NOTE_GS3, 91 }, 
	{ NOTE_GS4, 182 }, 
	{ NOTE_GS4, 182 }, 
	{ NOTE_GS3, 91 }, 
	{ NOTE_GS3, 91 }, 
	{ NOTE_GS3, 91 }, 
	{ NOTE_GS3, 91 }, 
	{ NOTE_GS4, 181 }, 
	{ NOTE_GS4, 909 }, 
	{ NOTE_GS4, 364 }, 
	{ NOTE_GS4, 182 }, 
	{ NOTE_B4, 182 }, 
	{ NOTE_B3, 91 }, 
	{ NOTE_B3, 91 }, 
	{ NOTE_B3, 91 }, 
	{ NOTE_B3, 91 }, 
	{ NOTE_B4, 182 }, 
	{ NOTE_CS4, 182 }, 
	{ NOTE_CS4, 182 }, 
	{ NOTE_CS4, 182 }, 
	{ NOTE_CS4, 181 }, 
	{ NOTE_GS4, 182 }, 
	{ NOTE_GS3, 91 }, 
	{ NOTE_GS3, 91 }, 
	{ NOTE_GS3, 91 }, 
	{ NOTE_GS3, 91 }, 
	{ NOTE_GS4, 182 }, 
	{ NOTE_GS4, 182 }, 
	{ NOTE_GS3, 91 }, 
	{ NOTE_GS3, 91 }, 
	{ NOTE_GS3, 91 }, 
	{ NOTE_GS3, 91 }, 
	{ NOTE_GS4, 181 }, 
	{ NOTE_GS4, 182 }, 
	{ NOTE_GS3, 91 }, 
	{ NOTE_GS3, 91 }, 
	{ NOTE_GS3, 91 }, 
	{ NOTE_GS3, 91 }, 
	{ NOTE_GS4, 182 }, 
	{ NOTE_GS4, 182 }, 
	{ NOTE_GS3, 91 }, 
	{ NOTE_GS3, 91 }, 
	{ NOTE_GS3, 91 }, 
	{ NOTE_GS3, 91 }, 
	{ NOTE_GS4, 181 }, 
	{ NOTE_B3, 182 }, 
	{ NOTE_E3, 91 }, 
	{ NOTE_E3, 91 }, 
	{ NOTE_B3, 182 }, 
	{ NOTE_E3, 91 }, 
	{ NOTE_E3, 91 }, 
	{ NOTE_B3, 182 }, 
	{ NOTE_E3, 91 }, 
	{ NOTE_E3, 91 }, 
	{ NOTE_B3, 182 }, 
	{ NOTE_E3, 91 }, 
	{ NOTE_E3, 90 }, 
	{ NOTE_CS4, 91 }, 
	{ NOTE_CS4, 91 }, 
	{ NOTE_CS4, 91 }, 
	{ NOTE_CS4, 91 }, 
	{ NOTE_CS4, 91 }, 
	{ NOTE_CS4, 91 }, 
	{ NOTE_CS4, 91 }, 
	{ NOTE_CS4, 91 }, 
	{ NOTE_FS3, 91 }, 
	{ NOTE_FS3, 91 }, 
	{ NOTE_FS3, 91 }, 
	{ NOTE_FS3, 91 }, 
	{ NOTE_FS3, 91 }, 
	{ NOTE_FS3, 91 }, 
	{ NOTE_FS3, 91 }, 
	{ NOTE_FS3, 90 }, 
	{ NOTE_GS4, 182 }, 
	{ NOTE_GS3, 91 }, 
	{ NOTE_GS3, 91 }, 
	{ NOTE_GS3, 91 }, 
	{ NOTE_GS3, 91 }, 
	{ NOTE_GS4, 182 }, 
	{ NOTE_GS4, 182 }, 
	{ NOTE_GS3, 91 }, 
	{ NOTE_GS3, 91 }, 
	{ NOTE_GS3, 91 }, 
	{ NOTE_GS3, 91 }, 
	{ NOTE_GS4, 181 }, 
	{ NOTE_GS4, 182 }, 
	{ NOTE_GS3, 91 }, 
	{ NOTE_GS3, 91 }, 
	{ NOTE_GS3, 91 }, 
	{ NOTE_GS3, 91 }, 
	{ NOTE_GS4, 182 }, 
	{ NOTE_GS4, 182 }, 
	{ NOTE_GS3, 91 }, 
	{ NOTE_GS3, 91 }, 
	{ NOTE_GS3, 91 }, 
	{ NOTE_GS3, 91 }, 
	{ NOTE_GS4, 181 }, 
	{ NOTE_GS4, 909 }, 
	{ NOTE_GS4, 364 }, 
	{ NOTE_GS4, 182 }, 
	{ NOTE_B4, 182 }, 
	{ NOTE_B3, 91 }, 
	{ NOTE_B3, 91 }, 
	{ NOTE_B3, 91 }, 
	{ NOTE_B3, 91 }, 
	{ NOTE_B4, 182 }, 
	{ NOTE_CS4, 182 }, 
	{ NOTE_CS4, 182 }, 
	{ NOTE_CS4, 182 }, 
	{ NOTE_CS4, 181 }, 
	{ NOTE_GS4, 182 }, 
	{ NOTE_GS3, 91 }, 
	{ NOTE_GS3, 91 }, 
	{ NOTE_GS3, 91 }, 
	{ NOTE_GS3, 91 }, 
	{ NOTE_GS4, 182 }, 
	{ NOTE_GS4, 182 }, 
	{ NOTE_GS3, 91 }, 
	{ NOTE_GS3, 91 }, 
	{ NOTE_GS3, 91 }, 
	{ NOTE_GS3, 91 }, 
	{ NOTE_GS4, 181 }, 
	{ NOTE_GS4, 182 }, 
	{ NOTE_GS3, 91 }, 
	{ NOTE_GS3, 91 }, 
	{ NOTE_GS3, 91 }, 
	{ NOTE_GS3, 91 }, 
	{ NOTE_GS4, 182 }, 
	{ NOTE_GS4, 182 }, 
	{ NOTE_GS3, 91 }, 
	{ NOTE_GS3, 91 }, 
	{ NOTE_GS3, 91 }, 
	{ NOTE_GS3, 91 }, 
	{ NOTE_GS4, 181 }, 
	{ NOTE_B3, 182 }, 
	{ NOTE_E3, 91 }, 
	{ NOTE_E3, 91 }, 
	{ NOTE_B3, 182 }, 
	{ NOTE_E3, 91 }, 
	{ NOTE_E3, 91 }, 
	{ NOTE_B3, 182 }, 
	{ NOTE_E3, 91 }, 
	{ NOTE_E3, 91 }, 
	{ NOTE_B3, 182 }, 
	{ NOTE_E3, 91 }, 
	{ NOTE_E3, 90 }, 
	{ NOTE_CS4, 91 }, 
	{ NOTE_CS4, 91 }, 
	{ NOTE_CS4, 91 }, 
	{ NOTE_CS4, 91 }, 
	{ NOTE_CS4, 91 }, 
	{ NOTE_CS4, 91 }, 
	{ NOTE_CS4, 91 }, 
	{ NOTE_CS4, 91 }, 
	{ NOTE_FS3, 91 }, 
	{ NOTE_FS3, 91 }, 
	{ NOTE_FS3, 91 }, 
	{ NOTE_FS3, 91 }, 
	{ NOTE_FS3, 91 }, 
	{ NOTE_FS3, 91 }, 
	{ NOTE_FS3, 91 }, 
	{ NOTE_FS3, 90 }, 
	{ NOTE_CS5, 1455 }, 
	{ NOTE_GS4, 727 }, 
	{ NOTE_FS4, 182 }, 
	{ NOTE_REST, 182 }, 
	{ NOTE_FS4, 364 }, 
	{ NOTE_B3, 182 }, 
	{ NOTE_E3, 91 }, 
	{ NOTE_E3, 91 }, 
	{ NOTE_E3, 91 }, 
	{ NOTE_E3, 91 }, 
	{ NOTE_B3, 182 }, 
	{ NOTE_B3, 182 }, 
	{ NOTE_E3, 91 }, 
	{ NOTE_E3, 91 }, 
	{ NOTE_E3, 91 }, 
	{ NOTE_E3, 91 }, 
	{ NOTE_B3, 181 }, 
	{ NOTE_B4, 727 }, 
	{ NOTE_FS4, 182 }, 
	{ NOTE_REST, 182 }, 
	{ NOTE_FS4, 364 }, 
	{ NOTE_E3, 91 }, 
	{ NOTE_E3, 91 }, 
	{ NOTE_B3, 182 }, 
	{ NOTE_E3, 91 }, 
	{ NOTE_E3, 91 }, 
	{ NOTE_B3, 182 }, 
	{ NOTE_E3, 91 }, 
	{ NOTE_E3, 91 }, 
	{ NOTE_B3, 182 }, 
	{ NOTE_E3, 91 }, 
	{ NOTE_E3, 91 }, 
	{ NOTE_B3, 181 }, 
	{ NOTE_GS4, 727 }, 
	{ NOTE_FS4, 182 }, 
	{ NOTE_REST, 182 }, 
	{ NOTE_FS4, 364 }, 
	{ NOTE_B3, 182 }, 
	{ NOTE_E3, 91 }, 
	{ NOTE_E3, 91 }, 
	{ NOTE_E3, 91 }, 
	{ NOTE_E3, 91 }, 
	{ NOTE_B3, 182 }, 
	{ NOTE_B3, 182 }, 
	{ NOTE_E3, 91 }, 
	{ NOTE_E3, 91 }, 
	{ NOTE_E3, 91 }, 
	{ NOTE_E3, 91 }, 
	{ NOTE_B3, 181 }, 
	{ NOTE_AS3, 182 }, 
	{ NOTE_AS3, 182 }, 
	{ NOTE_AS3, 182 }, 
	{ NOTE_AS3, 182 }, 
	{ NOTE_AS3, 364 }, 
	{ NOTE_REST, 363 }, 
	{ NOTE_GS4, 182 }, 
	{ NOTE_DS5, 91 }, 
	{ NOTE_CS5, 91 }, 
	{ NOTE_DS5, 182 }, 
	{ NOTE_GS4, 182 }, 
	{ NOTE_DS5, 91 }, 
	{ NOTE_CS5, 91 }, 
	{ NOTE_DS5, 182 }, 
	{ NOTE_GS4, 182 }, 
	{ NOTE_DS5, 91 }, 
	{ NOTE_CS5, 90 }, 
	{ NOTE_DS5, 182 }, 
	{ NOTE_GS4, 182 }, 
	{ NOTE_DS5, 91 }, 
	{ NOTE_CS5, 91 }, 
	{ NOTE_DS5, 182 }, 
	{ NOTE_CS5, 364 }, 
	{ NOTE_CS5, 363 }, 
	{ NOTE_GS4, 182 }, 
	{ NOTE_DS5, 91 }, 
	{ NOTE_CS5, 91 }, 
	{ NOTE_DS5, 182 }, 
	{ NOTE_GS4, 182 }, 
	{ NOTE_DS5, 91 }, 
	{ NOTE_CS5, 91 }, 
	{ NOTE_DS5, 182 }, 
	{ NOTE_GS4, 182 }, 
	{ NOTE_DS5, 91 }, 
	{ NOTE_CS5, 90 }, 
	{ NOTE_DS5, 182 }, 
	{ NOTE_GS4, 182 }, 
	{ NOTE_DS5, 91 }, 
	{ NOTE_CS5, 91 }, 
	{ NOTE_DS5, 182 }, 
	{ NOTE_B3, 91 }, 
	{ NOTE_B3, 91 }, 
	{ NOTE_B4, 182 }, 
	{ NOTE_AS3, 91 }, 
	{ NOTE_AS3, 91 }, 
	{ NOTE_AS4, 181 }, 
	{ NOTE_GS4, 182 }, 
	{ NOTE_DS5, 91 }, 
	{ NOTE_CS5, 91 }, 
	{ NOTE_DS5, 182 }, 
	{ NOTE_GS4, 182 }, 
	{ NOTE_DS5, 91 }, 
	{ NOTE_CS5, 91 }, 
	{ NOTE_DS5, 182 }, 
	{ NOTE_GS4, 182 }, 
	{ NOTE_DS5, 91 }, 
	{ NOTE_CS5, 90 }, 
	{ NOTE_DS5, 182 }, 
	{ NOTE_GS4, 182 }, 
	{ NOTE_DS5, 91 }, 
	{ NOTE_CS5, 91 }, 
	{ NOTE_DS5, 182 }, 
	{ NOTE_CS5, 364 }, 
	{ NOTE_CS5, 363 }, 
	{ NOTE_E5, 727 }, 
	{ NOTE_E5, 242 }, 
	{ NOTE_FS5, 242 }, 
	{ NOTE_GS5, 244 }, 
	{ NOTE_G5, 727 }, 
	{ NOTE_G5, 242 }, 
	{ NOTE_GS5, 242 }, 
	{ NOTE_AS5, 244 }, 
	{ NOTE_GS4, 182 }, 
	{ NOTE_GS3, 91 }, 
	{ NOTE_GS3, 91 }, 
	{ NOTE_GS3, 91 }, 
	{ NOTE_GS3, 91 }, 
	{ NOTE_GS4, 182 }, 
	{ NOTE_GS4, 182 }, 
	{ NOTE_GS3, 91 }, 
	{ NOTE_GS3, 91 }, 
	{ NOTE_GS3, 91 }, 
	{ NOTE_GS3, 91 }, 
	{ NOTE_GS3, 91 }, 
	{ NOTE_GS3, 90 }, 
	{ NOTE_GS4, 182 }, 
	{ NOTE_GS3, 91 }, 
	{ NOTE_GS3, 91 }, 
	{ NOTE_GS3, 91 }, 
	{ NOTE_GS3, 91 }, 
	{ NOTE_GS4, 182 }, 
	{ NOTE_GS4, 182 }, 
	{ NOTE_GS3, 91 }, 
	{ NOTE_GS3, 91 }, 
	{ NOTE_GS3, 91 }, 
	{ NOTE_GS3, 91 }, 
	{ NOTE_GS4, 181 }, 
	{ NOTE_GS4, 909 }, 
	{ NOTE_GS4, 364 }, 
	{ NOTE_GS4, 182 }, 
	{ NOTE_B4, 182 }, 
	{ NOTE_B3, 91 }, 
	{ NOTE_B3, 91 }, 
	{ NOTE_B3, 91 }, 
	{ NOTE_B3, 91 }, 
	{ NOTE_B4, 182 }, 
	{ NOTE_CS4, 182 }, 
	{ NOTE_CS4, 182 }, 
	{ NOTE_CS4, 182 }, 
	{ NOTE_CS4, 181 }, 
	{ NOTE_GS4, 182 }, 
	{ NOTE_GS3, 91 }, 
	{ NOTE_GS3, 91 }, 
	{ NOTE_GS3, 91 }, 
	{ NOTE_GS3, 91 }, 
	{ NOTE_GS4, 182 }, 
	{ NOTE_GS4, 182 }, 
	{ NOTE_GS3, 91 }, 
	{ NOTE_GS3, 91 }, 
	{ NOTE_GS3, 91 }, 
	{ NOTE_GS3, 91 }, 
	{ NOTE_GS4, 181 }, 
	{ NOTE_GS4, 182 }, 
	{ NOTE_GS3, 91 }, 
	{ NOTE_GS3, 91 }, 
	{ NOTE_GS3, 91 }, 
	{ NOTE_GS3, 91 }, 
	{ NOTE_GS4, 182 }, 
	{ NOTE_GS4, 182 }, 
	{ NOTE_GS3, 91 }, 
	{ NOTE_GS3, 91 }, 
	{ NOTE_GS3, 91 }, 
	{ NOTE_GS3, 91 }, 
	{ NOTE_GS4, 181 }, 
	{ NOTE_B3, 182 }, 
	{ NOTE_E3, 91 }, 
	{ NOTE_E3, 91 }, 
	{ NOTE_B3, 182 }, 
	{ NOTE_E3, 91 }, 
	{ NOTE_E3, 91 }, 
	{ NOTE_B3, 182 }, 
	{ NOTE_E3, 91 }, 
	{ NOTE_E3, 91 }, 
	{ NOTE_B3, 182 }, 
	{ NOTE_E3, 91 }, 
	{ NOTE_E3, 90 }, 
	{ NOTE_CS4, 91 }, 
	{ NOTE_CS4, 91 }, 
	{ NOTE_CS4, 91 }, 
	{ NOTE_CS4, 91 }, 
	{ NOTE_CS4, 91 }, 
	{ NOTE_CS4, 91 }, 
	{ NOTE_CS4, 91 }, 
	{ NOTE_CS4, 91 }, 
	{ NOTE_FS3, 91 }, 
	{ NOTE_FS3, 91 }, 
	{ NOTE_FS3, 91 }, 
	{ NOTE_FS3, 91 }, 
	{ NOTE_FS3, 91 }, 
	{ NOTE_FS3, 91 }, 
	{ NOTE_FS3, 91 }, 
	{ NOTE_FS3, 90 }, 
	{ NOTE_GS4, 182 }, 
	{ NOTE_GS3, 91 }, 
	{ NOTE_GS3, 91 }, 
	{ NOTE_GS3, 91 }, 
	{ NOTE_GS3, 91 }, 
	{ NOTE_GS4, 182 }, 
	{ NOTE_GS4, 182 }, 
	{ NOTE_GS3, 91 }, 
	{ NOTE_GS3, 91 }, 
	{ NOTE_GS3, 91 }, 
	{ NOTE_GS3, 91 }, 
	{ NOTE_GS4, 181 }, 
	{ NOTE_GS4, 182 }, 
	{ NOTE_GS3, 91 }, 
	{ NOTE_GS3, 91 }, 
	{ NOTE_GS3, 91 }, 
	{ NOTE_GS3, 91 }, 
	{ NOTE_GS4, 182 }, 
	{ NOTE_GS4, 182 }, 
	{ NOTE_GS3, 91 }, 
	{ NOTE_GS3, 91 }, 
	{ NOTE_GS3, 91 }, 
	{ NOTE_GS3, 91 }, 
	{ NOTE_GS4, 181 }, 
	{ NOTE_GS4, 909 }, 
	{ NOTE_GS4, 364 }, 
	{ NOTE_GS4, 182 }, 
	{ NOTE_B4, 182 }, 
	{ NOTE_B3, 91 }, 
	{ NOTE_B3, 91 }, 
	{ NOTE_B3, 91 }, 
	{ NOTE_B3, 91 }, 
	{ NOTE_B4, 182 }, 
	{ NOTE_CS4, 182 }, 
	{ NOTE_CS4, 182 }, 
	{ NOTE_CS4, 182 }, 
	{ NOTE_CS4, 181 }, 
	{ NOTE_GS4, 182 }, 
	{ NOTE_GS3, 91 }, 
	{ NOTE_GS3, 91 }, 
	{ NOTE_GS3, 91 }, 
	{ NOTE_GS3, 91 }, 
	{ NOTE_GS4, 182 }, 
	{ NOTE_GS4, 182 }, 
	{ NOTE_GS3, 91 }, 
	{ NOTE_GS3, 91 }, 
	{ NOTE_GS3, 91 }, 
	{ NOTE_GS3, 91 }, 
	{ NOTE_GS4, 181 }, 
	{ NOTE_GS4, 182 }, 
	{ NOTE_GS3, 91 }, 
	{ NOTE_GS3, 91 }, 
	{ NOTE_GS3, 91 }, 
	{ NOTE_GS3, 91 }, 
	{ NOTE_GS4, 182 }, 
	{ NOTE_GS4, 182 }, 
	{ NOTE_GS3, 91 }, 
	{ NOTE_GS3, 91 }, 
	{ NOTE_GS3, 91 }, 
	{ NOTE_GS3, 91 }, 
	{ NOTE_GS4, 181 }, 
	{ NOTE_B3, 182 }, 
	{ NOTE_E3, 91 }, 
	{ NOTE_E3, 91 }, 
	{ NOTE_B3, 182 }, 
	{ NOTE_E3, 91 }, 
	{ NOTE_E3, 91 }, 
	{ NOTE_B3, 182 }, 
	{ NOTE_E3, 91 }, 
	{ NOTE_E3, 91 }, 
	{ NOTE_B3, 182 }, 
	{ NOTE_E3, 91 }, 
	{ NOTE_E3, 90 }, 
	{ NOTE_CS4, 91 }, 
	{ NOTE_CS4, 91 }, 
	{ NOTE_CS4, 91 }, 
	{ NOTE_CS4, 91 }, 
	{ NOTE_CS4, 91 }, 
	{ NOTE_CS4, 91 }, 
	{ NOTE_CS4, 91 }, 
	{ NOTE_CS4, 91 }, 
	{ NOTE_FS3, 91 }, 
	{ NOTE_FS3, 91 }, 
	{ NOTE_FS3, 91 }, 
	{ NOTE_FS3, 91 }, 
	{ NOTE_FS3, 91 }, 
	{ NOTE_FS3, 91 }, 
	{ NOTE_FS3, 91 }, 
	{ NOTE_FS3, 90 }, 
	{ NOTE_CS5, 1455 }, 
	{ NOTE_GS4, 727 }, 
	{ NOTE_FS4, 182 }, 
	{ NOTE_REST, 182 }, 
	{ NOTE_FS4, 364 }, 
	{ NOTE_B3, 182 }, 
	{ NOTE_E3, 91 }, 
	{ NOTE_E3, 91 }, 
	{ NOTE_E3, 91 }, 
	{ NOTE_E3, 91 }, 
	{ NOTE_B3, 182 }, 
	{ NOTE_B3, 182 }, 
	{ NOTE_E3, 91 }, 
	{ NOTE_E3, 91 }, 
	{ NOTE_E3, 91 }, 
	{ NOTE_E3, 91 }, 
	{ NOTE_B3, 181 }, 
	{ NOTE_B4, 727 }, 
	{ NOTE_FS4, 182 }, 
	{ NOTE_REST, 182 }, 
	{ NOTE_FS4, 364 }, 
	{ NOTE_E3, 91 }, 
	{ NOTE_E3, 91 }, 
	{ NOTE_B3, 182 }, 
	{ NOTE_E3, 91 }, 
	{ NOTE_E3, 91 }, 
	{ NOTE_B3, 182 }, 
	{ NOTE_E3, 91 }, 
	{ NOTE_E3, 91 }, 
	{ NOTE_B3, 182 }, 
	{ NOTE_E3, 91 }, 
	{ NOTE_E3, 91 }, 
	{ NOTE_B3, 181 }, 
	{ NOTE_GS4, 727 }, 
	{ NOTE_FS4, 182 }, 
	{ NOTE_REST, 182 }, 
	{ NOTE_FS4, 364 }, 
	{ NOTE_B3, 182 }, 
	{ NOTE_E3, 91 }, 
	{ NOTE_E3, 91 }, 
	{ NOTE_E3, 91 }, 
	{ NOTE_E3, 91 }, 
	{ NOTE_B3, 182 }, 
	{ NOTE_B3, 182 }, 
	{ NOTE_E3, 91 }, 
	{ NOTE_E3, 91 }, 
	{ NOTE_E3, 91 }, 
	{ NOTE_E3, 91 }, 
	{ NOTE_B3, 181 }, 
	{ NOTE_CS4, 182 }, 
	{ NOTE_CS4, 182 }, 
	{ NOTE_CS4, 182 }, 
	{ NOTE_CS4, 182 }, 
	{ NOTE_CS4, 364 }, 
	{ NOTE_REST, 363 }, 
	{ NOTE_B4, 1455 }, 
	{ NOTE_FS4, 1455 }, 
	{ NOTE_GS4, 1455 }, 
	{ NOTE_DS5, 1455 }, 
	{ NOTE_B3, 182 }, 
	{ NOTE_E3, 91 }, 
	{ NOTE_E3, 91 }, 
	{ NOTE_E3, 91 }, 
	{ NOTE_E3, 91 }, 
	{ NOTE_B3, 182 }, 
	{ NOTE_B3, 182 }, 
	{ NOTE_E3, 91 }, 
	{ NOTE_E3, 91 }, 
	{ NOTE_E3, 91 }, 
	{ NOTE_E3, 91 }, 
	{ NOTE_B3, 181 }, 
	{ NOTE_FS4, 182 }, 
	{ NOTE_B3, 91 }, 
	{ NOTE_B3, 91 }, 
	{ NOTE_B3, 91 }, 
	{ NOTE_B3, 91 }, 
	{ NOTE_FS4, 182 }, 
	{ NOTE_FS4, 182 }, 
	{ NOTE_B3, 91 }, 
	{ NOTE_B3, 91 }, 
	{ NOTE_B3, 91 }, 
	{ NOTE_B3, 91 }, 
	{ NOTE_FS4, 181 }, 
	{ NOTE_FS3, 91 }, 
	{ NOTE_FS3, 91 }, 
	{ NOTE_FS3, 91 }, 
	{ NOTE_FS3, 91 }, 
	{ NOTE_FS3, 91 }, 
	{ NOTE_FS3, 91 }, 
	{ NOTE_FS3, 91 }, 
	{ NOTE_FS3, 91 }, 
	{ NOTE_FS3, 91 }, 
	{ NOTE_FS3, 91 }, 
	{ NOTE_FS3, 91 }, 
	{ NOTE_FS3, 91 }, 
	{ NOTE_FS3, 91 }, 
	{ NOTE_FS3, 91 }, 
	{ NOTE_FS3, 91 }, 
	{ NOTE_FS3, 90 }, 
	{ NOTE_FS3, 91 }, 
	{ NOTE_FS3, 91 }, 
	{ NOTE_FS3, 91 }, 
	{ NOTE_FS3, 91 }, 
	{ NOTE_FS3, 91 }, 
	{ NOTE_FS3, 91 }, 
	{ NOTE_FS3, 91 }, 
	{ NOTE_FS3, 91 }, 
	{ NOTE_FS3, 91 }, 
	{ NOTE_FS3, 91 }, 
	{ NOTE_FS3, 91 }, 
	{ NOTE_FS3, 91 }, 
	{ NOTE_FS3, 91 }, 
	{ NOTE_FS3, 91 }, 
	{ NOTE_FS3, 91 }, 
	{ NOTE_FS3, 90 }, 
	{ NOTE_B4, 1455 }, 
	{ NOTE_FS4, 727 }, 
	{ NOTE_FS3, 728 }, 
	{ NOTE_DS4, 727 }, 
	{ NOTE_AS4, 364 }, 
	{ NOTE_B4, 364 }, 
	{ NOTE_AS3, 727 }, 
	{ NOTE_AS3, 728 }, 
	{ NOTE_B3, 182 }, 
	{ NOTE_E3, 91 }, 
	{ NOTE_E3, 91 }, 
	{ NOTE_E3, 91 }, 
	{ NOTE_E3, 91 }, 
	{ NOTE_B3, 182 }, 
	{ NOTE_B3, 182 }, 
	{ NOTE_E3, 91 }, 
	{ NOTE_E3, 91 }, 
	{ NOTE_E3, 91 }, 
	{ NOTE_E3, 91 }, 
	{ NOTE_E3, 91 }, 
	{ NOTE_E3, 90 }, 
	{ NOTE_CS4, 364 }, 
	{ NOTE_REST, 364 }, 
	{ NOTE_REST, 727 }, 
	{ NOTE_GS4, 182 }, 
	{ NOTE_DS5, 91 }, 
	{ NOTE_CS5, 91 }, 
	{ NOTE_DS5, 182 }, 
	{ NOTE_GS4, 182 }, 
	{ NOTE_DS5, 91 }, 
	{ NOTE_CS5, 91 }, 
	{ NOTE_DS5, 182 }, 
	{ NOTE_GS4, 182 }, 
	{ NOTE_DS5, 91 }, 
	{ NOTE_CS5, 90 }, 
	{ NOTE_DS5, 182 }, 
	{ NOTE_GS4, 182 }, 
	{ NOTE_DS5, 91 }, 
	{ NOTE_CS5, 91 }, 
	{ NOTE_DS5, 182 }, 
	{ NOTE_DS5, 364 }, 
	{ NOTE_DS5, 363 }, 
	{ NOTE_CS5, 182 }, 
	{ NOTE_CS4, 91 }, 
	{ NOTE_CS4, 91 }, 
	{ NOTE_CS4, 91 }, 
	{ NOTE_CS4, 91 }, 
	{ NOTE_CS5, 182 }, 
	{ NOTE_CS5, 182 }, 
	{ NOTE_CS4, 91 }, 
	{ NOTE_CS4, 91 }, 
	{ NOTE_CS4, 91 }, 
	{ NOTE_CS4, 91 }, 
	{ NOTE_CS5, 181 }, 
	{ NOTE_C5, 1455 }, 
	{ NOTE_CS5, 182 }, 
	{ NOTE_CS4, 91 }, 
	{ NOTE_CS4, 91 }, 
	{ NOTE_CS4, 91 }, 
	{ NOTE_CS4, 91 }, 
	{ NOTE_CS5, 182 }, 
	{ NOTE_CS5, 182 }, 
	{ NOTE_CS4, 91 }, 
	{ NOTE_CS4, 91 }, 
	{ NOTE_CS4, 91 }, 
	{ NOTE_CS4, 91 }, 
	{ NOTE_CS5, 181 }, 
	{ NOTE_B4, 1455 }, 
	{ NOTE_E5, 182 }, 
	{ NOTE_E4, 91 }, 
	{ NOTE_E4, 91 }, 
	{ NOTE_E4, 91 }, 
	{ NOTE_E4, 91 }, 
	{ NOTE_E5, 182 }, 
	{ NOTE_E5, 182 }, 
	{ NOTE_E4, 91 }, 
	{ NOTE_E4, 91 }, 
	{ NOTE_E4, 91 }, 
	{ NOTE_E4, 91 }, 
	{ NOTE_E5, 181 }, 
	{ NOTE_B4, 1455 }, 
	{ NOTE_A4, 182 }, 
	{ NOTE_A3, 91 }, 
	{ NOTE_A3, 91 }, 
	{ NOTE_A3, 91 }, 
	{ NOTE_A3, 91 }, 
	{ NOTE_A4, 182 }, 
	{ NOTE_FS4, 0 }, 
	{ NOTE_A4, 182 }, 
	{ NOTE_FS4, 0 }, 
	{ NOTE_A4, 182 }, 
	{ NOTE_FS4, 0 }, 
	{ NOTE_A4, 182 }, 
	{ NOTE_FS4, 0 }, 
	{ NOTE_A4, 181 }, 
	{ NOTE_GS5, 91 }, 
	{ NOTE_E5, 91 }, 
	{ NOTE_FS5, 91 }, 
	{ NOTE_GS5, 91 }, 
	{ NOTE_A5, 91 }, 
	{ NOTE_FS5, 91 }, 
	{ NOTE_GS5, 91 }, 
	{ NOTE_B5, 91 }, 
	{ NOTE_C6, 91 }, 
	{ NOTE_AS5, 91 }, 
	{ NOTE_GS5, 91 }, 
	{ NOTE_FS5, 91 }, 
	{ NOTE_E5, 91 }, 
	{ NOTE_DS5, 91 }, 
	{ NOTE_CS5, 91 }, 
	{ NOTE_C5, 90 }, 
	{ NOTE_CS5, 545 }, 
	{ NOTE_CS5, 545 }, 
	{ NOTE_DS5, 182 }, 
	{ NOTE_DS5, 183 }, 
	{ NOTE_DS5, 1455 }, 
	{ NOTE_GS5, 545 }, 
	{ NOTE_GS5, 545 }, 
	{ NOTE_B5, 182 }, 
	{ NOTE_CS6, 183 }, 
	{ NOTE_B5, 1455 }, 
	{ NOTE_B5, 182 }, 
	{ NOTE_GS5, 182 }, 
	{ NOTE_GS5, 182 }, 
	{ NOTE_CS6, 182 }, 
	{ NOTE_GS5, 182 }, 
	{ NOTE_GS5, 182 }, 
	{ NOTE_DS6, 182 }, 
	{ NOTE_E6, 181 }, 
	{ NOTE_B5, 545 }, 
	{ NOTE_B5, 91 }, 
	{ NOTE_A5, 91 }, 
	{ NOTE_B5, 728 }, 
	{ NOTE_GS5, 545 }, 
	{ NOTE_A5, 182 }, 
	{ NOTE_A5, 545 }, 
	{ NOTE_A5, 91 }, 
	{ NOTE_GS5, 92 }, 
	{ NOTE_AS5, 545 }, 
	{ NOTE_B5, 182 }, 
	{ NOTE_CS6, 728 }, 
	{ NOTE_E3, 91 }, 
	{ NOTE_E3, 91 }, 
	{ NOTE_E3, 91 }, 
	{ NOTE_E3, 91 }, 
	{ NOTE_E3, 91 }, 
	{ NOTE_E3, 91 }, 
	{ NOTE_E3, 91 }, 
	{ NOTE_E3, 91 }, 
	{ NOTE_E3, 91 }, 
	{ NOTE_E3, 91 }, 
	{ NOTE_E3, 91 }, 
	{ NOTE_E3, 91 }, 
	{ NOTE_E3, 91 }, 
	{ NOTE_E3, 91 }, 
	{ NOTE_E3, 91 }, 
	{ NOTE_E3, 90 }, 
	{ NOTE_E3, 91 }, 
	{ NOTE_E3, 91 }, 
	{ NOTE_E3, 91 }, 
	{ NOTE_E3, 91 }, 
	{ NOTE_E3, 91 }, 
	{ NOTE_E3, 91 }, 
	{ NOTE_E3, 91 }, 
	{ NOTE_E3, 91 }, 
	{ NOTE_E3, 91 }, 
	{ NOTE_E3, 91 }, 
	{ NOTE_E3, 91 }, 
	{ NOTE_E3, 91 }, 
	{ NOTE_E3, 91 }, 
	{ NOTE_E3, 91 }, 
	{ NOTE_E3, 91 }, 
	{ NOTE_E3, 90 }, 
	{ NOTE_B4, 727 }, 
	{ NOTE_AS4, 728 }, 
	{ NOTE_B4, 727 }, 
	{ NOTE_FS4, 728 }, 
	{ NOTE_E3, 91 }, 
	{ NOTE_E3, 91 }, 
	{ NOTE_E3, 91 }, 
	{ NOTE_E3, 91 }, 
	{ NOTE_E3, 91 }, 
	{ NOTE_E3, 91 }, 
	{ NOTE_E3, 91 }, 
	{ NOTE_E3, 91 }, 
	{ NOTE_E3, 91 }, 
	{ NOTE_E3, 91 }, 
	{ NOTE_E3, 91 }, 
	{ NOTE_E3, 91 }, 
	{ NOTE_E3, 91 }, 
	{ NOTE_E3, 91 }, 
	{ NOTE_E3, 91 }, 
	{ NOTE_E3, 90 }, 
	{ NOTE_CS4, 91 }, 
	{ NOTE_CS4, 91 }, 
	{ NOTE_CS4, 91 }, 
	{ NOTE_CS4, 91 }, 
	{ NOTE_CS4, 91 }, 
	{ NOTE_CS4, 91 }, 
	{ NOTE_CS4, 91 }, 
	{ NOTE_CS4, 91 }, 
	{ NOTE_CS4, 91 }, 
	{ NOTE_CS4, 91 }, 
	{ NOTE_CS4, 91 }, 
	{ NOTE_CS4, 91 }, 
	{ NOTE_CS4, 91 }, 
	{ NOTE_CS4, 91 }, 
	{ NOTE_CS4, 91 }, 
	{ NOTE_CS4, 90 }, 
	{ NOTE_FS3, 91 }, 
	{ NOTE_FS3, 91 }, 
	{ NOTE_FS3, 91 }, 
	{ NOTE_FS3, 91 }, 
	{ NOTE_FS3, 91 }, 
	{ NOTE_FS3, 91 }, 
	{ NOTE_FS3, 91 }, 
	{ NOTE_FS3, 91 }, 
	{ NOTE_FS3, 91 }, 
	{ NOTE_FS3, 91 }, 
	{ NOTE_FS3, 91 }, 
	{ NOTE_FS3, 91 }, 
	{ NOTE_FS3, 91 }, 
	{ NOTE_FS3, 91 }, 
	{ NOTE_FS3, 91 }, 
	{ NOTE_FS3, 90 }, 
	{ NOTE_GS4, 727 }, 
	{ NOTE_FS4, 728 }, 
	{ NOTE_GS6, 91 }, 
	{ NOTE_E6, 91 }, 
	{ NOTE_CS6, 91 }, 
	{ NOTE_GS5, 91 }, 
	{ NOTE_GS6, 91 }, 
	{ NOTE_E6, 91 }, 
	{ NOTE_GS6, 91 }, 
	{ NOTE_E6, 91 }, 
	{ NOTE_FS6, 91 }, 
	{ NOTE_DS6, 91 }, 
	{ NOTE_B5, 91 }, 
	{ NOTE_GS5, 91 }, 
	{ NOTE_FS6, 91 }, 
	{ NOTE_DS6, 91 }, 
	{ NOTE_B5, 91 }, 
	{ NOTE_GS5, 90 }, 
	{ NOTE_GS6, 91 }, 
	{ NOTE_E6, 91 }, 
	{ NOTE_CS6, 91 }, 
	{ NOTE_GS5, 91 }, 
	{ NOTE_GS6, 91 }, 
	{ NOTE_E6, 91 }, 
	{ NOTE_GS6, 91 }, 
	{ NOTE_E6, 91 }, 
	{ NOTE_FS6, 91 }, 
	{ NOTE_DS6, 91 }, 
	{ NOTE_B5, 91 }, 
	{ NOTE_GS5, 91 }, 
	{ NOTE_FS6, 91 }, 
	{ NOTE_DS6, 91 }, 
	{ NOTE_B5, 91 }, 
	{ NOTE_GS5, 90 }, 
	{ NOTE_CS6, 182 }, 
	{ NOTE_DS6, 182 }, 
	{ NOTE_DS6, 182 }, 
	{ NOTE_FS6, 182 }, 
	{ NOTE_CS6, 364 }, 
	{ NOTE_CS6, 363 }, 
	{ NOTE_AS6, 91 }, 
	{ NOTE_B6, 91 }, 
	{ NOTE_B6, 61 }, 
	{ NOTE_AS6, 61 }, 
	{ NOTE_AS6, 61 }, 
	{ NOTE_GS6, 182 }, 
	{ NOTE_AS6, 182 }, 
	{ NOTE_B6, 182 }, 
	{ NOTE_AS6, 182 }, 
	{ NOTE_FS6, 362 }, 
	{ NOTE_B6, 91 }, 
	{ NOTE_GS6, 91 }, 
	{ NOTE_E6, 91 }, 
	{ NOTE_CS6, 91 }, 
	{ NOTE_B6, 91 }, 
	{ NOTE_GS6, 91 }, 
	{ NOTE_E6, 91 }, 
	{ NOTE_CS6, 91 }, 
	{ NOTE_GS5, 91 }, 
	{ NOTE_E5, 91 }, 
	{ NOTE_CS5, 91 }, 
	{ NOTE_E5, 91 }, 
	{ NOTE_GS5, 91 }, 
	{ NOTE_FS5, 91 }, 
	{ NOTE_CS6, 91 }, 
	{ NOTE_E6, 90 }, 
	{ NOTE_GS6, 91 }, 
	{ NOTE_E6, 91 }, 
	{ NOTE_FS6, 91 }, 
	{ NOTE_GS6, 91 }, 
	{ NOTE_E6, 91 }, 
	{ NOTE_CS6, 91 }, 
	{ NOTE_GS5, 91 }, 
	{ NOTE_E5, 91 }, 
	{ NOTE_CS5, 91 }, 
	{ NOTE_E5, 91 }, 
	{ NOTE_GS5, 91 }, 
	{ NOTE_B5, 91 }, 
	{ NOTE_AS5, 91 }, 
	{ NOTE_B5, 91 }, 
	{ NOTE_AS5, 61 }, 
	{ NOTE_B5, 61 }, 
	{ NOTE_AS5, 59 }, 
	{ NOTE_DS5, 242 }, 
	{ NOTE_G5, 242 }, 
	{ NOTE_AS5, 242 }, 
	{ NOTE_DS6, 242 }, 
	{ NOTE_F6, 242 }, 
	{ NOTE_G6, 245 }, 
	{ NOTE_G6, 1455 }, 
	{ NOTE_REST, 1455 }, 
	{ NOTE_REST, 1455 }, 
	{ NOTE_REST, 1455 }, 
	{ NOTE_REST, 1455 }, 
	{ NOTE_DS3, 91 }, 
	{ NOTE_DS3, 91 }, 
	{ NOTE_DS3, 91 }, 
	{ NOTE_DS3, 91 }, 
	{ NOTE_CS5, 182 }, 
	{ NOTE_B4, 182 }, 
	{ NOTE_DS3, 91 }, 
	{ NOTE_DS3, 91 }, 
	{ NOTE_DS3, 91 }, 
	{ NOTE_DS3, 91 }, 
	{ NOTE_DS5, 91 }, 
	{ NOTE_F5, 91 }, 
	{ NOTE_DS3, 91 }, 
	{ NOTE_DS3, 90 }, 
	{ NOTE_F5, 91 }, 
	{ NOTE_FS5, 91 }, 
	{ NOTE_DS3, 91 }, 
	{ NOTE_DS3, 91 }, 
	{ NOTE_DS3, 91 }, 
	{ NOTE_DS3, 91 }, 
	{ NOTE_GS5, 91 }, 
	{ NOTE_FS5, 91 }, 
	{ NOTE_DS3, 91 }, 
	{ NOTE_DS3, 91 }, 
	{ NOTE_DS3, 91 }, 
	{ NOTE_DS3, 91 }, 
	{ NOTE_DS4, 91 }, 
	{ NOTE_CS4, 91 }, 
	{ NOTE_AS3, 91 }, 
	{ NOTE_GS3, 90 }, 
	{ NOTE_DS3, 91 }, 
	{ NOTE_DS3, 91 }, 
	{ NOTE_DS3, 91 }, 
	{ NOTE_DS3, 91 }, 
	{ NOTE_CS5, 182 }, 
	{ NOTE_B4, 182 }, 
	{ NOTE_DS3, 91 }, 
	{ NOTE_DS3, 91 }, 
	{ NOTE_DS3, 91 }, 
	{ NOTE_DS3, 91 }, 
	{ NOTE_DS5, 91 }, 
	{ NOTE_F5, 91 }, 
	{ NOTE_DS3, 91 }, 
	{ NOTE_DS3, 90 }, 
	{ NOTE_F5, 91 }, 
	{ NOTE_FS5, 91 }, 
	{ NOTE_DS3, 91 }, 
	{ NOTE_DS3, 91 }, 
	{ NOTE_FS3, 182 }, 
	{ NOTE_GS3, 182 }, 
	{ NOTE_AS3, 182 }, 
	{ NOTE_GS3, 182 }, 
	{ NOTE_GS4, 182 }, 
	{ NOTE_G4, 908 }, 
	{ NOTE_D5, 242 }, 
	{ NOTE_DS5, 242 }, 
	{ NOTE_F5, 244 }, 
	{ NOTE_F5, 182 }, 
	{ NOTE_G5, 242 }, 
	{ NOTE_F5, 242 }, 
	{ NOTE_DS5, 242 }, 
	{ NOTE_D5, 182 }, 
	{ NOTE_C5, 182 }, 
	{ NOTE_DS3, 183 }, 
	{ NOTE_DS3, 91 }, 
	{ NOTE_DS3, 91 }, 
	{ NOTE_DS3, 91 }, 
	{ NOTE_DS3, 91 }, 
	{ NOTE_CS5, 182 }, 
	{ NOTE_B4, 182 }, 
	{ NOTE_DS3, 91 }, 
	{ NOTE_DS3, 91 }, 
	{ NOTE_DS3, 91 }, 
	{ NOTE_DS3, 91 }, 
	{ NOTE_DS5, 91 }, 
	{ NOTE_F5, 91 }, 
	{ NOTE_DS3, 91 }, 
	{ NOTE_DS3, 90 }, 
	{ NOTE_F5, 91 }, 
	{ NOTE_FS5, 91 }, 
	{ NOTE_DS3, 91 }, 
	{ NOTE_DS3, 91 }, 
	{ NOTE_DS3, 91 }, 
	{ NOTE_DS3, 91 }, 
	{ NOTE_GS5, 91 }, 
	{ NOTE_FS5, 91 }, 
	{ NOTE_DS3, 91 }, 
	{ NOTE_DS3, 91 }, 
	{ NOTE_DS3, 91 }, 
	{ NOTE_DS3, 91 }, 
	{ NOTE_DS4, 91 }, 
	{ NOTE_CS4, 91 }, 
	{ NOTE_AS3, 91 }, 
	{ NOTE_GS3, 90 }, 
	{ NOTE_DS3, 91 }, 
	{ NOTE_DS3, 91 }, 
	{ NOTE_DS3, 91 }, 
	{ NOTE_DS3, 91 }, 
	{ NOTE_CS5, 182 }, 
	{ NOTE_B4, 182 }, 
	{ NOTE_DS3, 91 }, 
	{ NOTE_DS3, 91 }, 
	{ NOTE_DS3, 91 }, 
	{ NOTE_DS3, 91 }, 
	{ NOTE_DS5, 91 }, 
	{ NOTE_F5, 91 }, 
	{ NOTE_DS3, 91 }, 
	{ NOTE_DS3, 90 }, 
	{ NOTE_F5, 91 }, 
	{ NOTE_FS5, 91 }, 
	{ NOTE_DS3, 91 }, 
	{ NOTE_DS3, 91 }, 
	{ NOTE_FS3, 182 }, 
	{ NOTE_GS3, 182 }, 
	{ NOTE_AS3, 182 }, 
	{ NOTE_GS3, 182 }, 
	{ NOTE_GS4, 182 }, 
	{ NOTE_G4, 908 }, 
	{ NOTE_D5, 242 }, 
	{ NOTE_DS5, 242 }, 
	{ NOTE_F5, 244 }, 
	{ NOTE_F5, 182 }, 
	{ NOTE_G5, 242 }, 
	{ NOTE_F5, 242 }, 
	{ NOTE_DS5, 242 }, 
	{ NOTE_D5, 182 }, 
	{ NOTE_C5, 182 }, 
	{ NOTE_GS4, 910 }, 
	{ NOTE_CS5, 242 }, 
	{ NOTE_F5, 242 }, 
	{ NOTE_G5, 244 }, 
	{ NOTE_GS5, 242 }, 
	{ NOTE_G5, 242 }, 
	{ NOTE_F5, 242 }, 
	{ NOTE_G5, 364 }, 
	{ NOTE_GS5, 365 }, 
	{ NOTE_GS5, 364 }, 
	{ NOTE_REST, 364 }, 
	{ NOTE_REST, 727 }, 
	{ NOTE_REST, 1455 }, 
	{ NOTE_CS5, 1455 }, 
	{ NOTE_GS4, 727 }, 
	{ NOTE_FS4, 182 }, 
	{ NOTE_REST, 182 }, 
	{ NOTE_FS4, 364 }, 
	{ NOTE_B3, 182 }, 
	{ NOTE_E3, 91 }, 
	{ NOTE_E3, 91 }, 
	{ NOTE_E3, 91 }, 
	{ NOTE_E3, 91 }, 
	{ NOTE_B3, 182 }, 
	{ NOTE_B3, 182 }, 
	{ NOTE_E3, 91 }, 
	{ NOTE_E3, 91 }, 
	{ NOTE_E3, 91 }, 
	{ NOTE_E3, 91 }, 
	{ NOTE_B3, 181 }, 
	{ NOTE_B4, 727 }, 
	{ NOTE_FS4, 182 }, 
	{ NOTE_REST, 182 }, 
	{ NOTE_FS4, 364 }, 
	{ NOTE_E3, 91 }, 
	{ NOTE_E3, 91 }, 
	{ NOTE_B3, 182 }, 
	{ NOTE_E3, 91 }, 
	{ NOTE_E3, 91 }, 
	{ NOTE_B3, 182 }, 
	{ NOTE_E3, 91 }, 
	{ NOTE_E3, 91 }, 
	{ NOTE_B3, 182 }, 
	{ NOTE_E3, 91 }, 
	{ NOTE_E3, 91 }, 
	{ NOTE_B3, 181 }, 
	{ NOTE_GS4, 727 }, 
	{ NOTE_FS4, 182 }, 
	{ NOTE_REST, 182 }, 
	{ NOTE_FS4, 364 }, 
	{ NOTE_B3, 182 }, 
	{ NOTE_E3, 91 }, 
	{ NOTE_E3, 91 }, 
	{ NOTE_E3, 91 }, 
	{ NOTE_E3, 91 }, 
	{ NOTE_B3, 182 }, 
	{ NOTE_B3, 182 }, 
	{ NOTE_E3, 91 }, 
	{ NOTE_E3, 91 }, 
	{ NOTE_E3, 91 }, 
	{ NOTE_E3, 91 }, 
	{ NOTE_B3, 181 }, 
	{ NOTE_CS4, 182 }, 
	{ NOTE_CS4, 182 }, 
	{ NOTE_CS4, 182 }, 
	{ NOTE_CS4, 182 }, 
	{ NOTE_CS4, 364 }, 
	{ NOTE_REST, 363 }, 
	{ NOTE_B4, 1455 }, 
	{ NOTE_FS4, 1455 }, 
	{ NOTE_GS4, 1455 }, 
	{ NOTE_DS5, 1455 }, 
	{ NOTE_B3, 182 }, 
	{ NOTE_E3, 91 }, 
	{ NOTE_E3, 91 }, 
	{ NOTE_E3, 91 }, 
	{ NOTE_E3, 91 }, 
	{ NOTE_B3, 182 }, 
	{ NOTE_B3, 182 }, 
	{ NOTE_E3, 91 }, 
	{ NOTE_E3, 91 }, 
	{ NOTE_E3, 91 }, 
	{ NOTE_E3, 91 }, 
	{ NOTE_B3, 181 }, 
	{ NOTE_FS4, 182 }, 
	{ NOTE_B3, 91 }, 
	{ NOTE_B3, 91 }, 
	{ NOTE_B3, 91 }, 
	{ NOTE_B3, 91 }, 
	{ NOTE_FS4, 182 }, 
	{ NOTE_FS4, 182 }, 
	{ NOTE_B3, 91 }, 
	{ NOTE_B3, 91 }, 
	{ NOTE_B3, 91 }, 
	{ NOTE_B3, 91 }, 
	{ NOTE_FS4, 181 }, 
	{ NOTE_FS3, 91 }, 
	{ NOTE_FS3, 91 }, 
	{ NOTE_FS3, 91 }, 
	{ NOTE_FS3, 91 }, 
	{ NOTE_FS3, 91 }, 
	{ NOTE_FS3, 91 }, 
	{ NOTE_FS3, 91 }, 
	{ NOTE_FS3, 91 }, 
	{ NOTE_FS3, 91 }, 
	{ NOTE_FS3, 91 }, 
	{ NOTE_FS3, 91 }, 
	{ NOTE_FS3, 91 }, 
	{ NOTE_FS3, 91 }, 
	{ NOTE_FS3, 91 }, 
	{ NOTE_FS3, 91 }, 
	{ NOTE_FS3, 90 }, 
	{ NOTE_FS3, 91 }, 
	{ NOTE_FS3, 91 }, 
	{ NOTE_FS3, 91 }, 
	{ NOTE_FS3, 91 }, 
	{ NOTE_FS3, 91 }, 
	{ NOTE_FS3, 91 }, 
	{ NOTE_FS3, 91 }, 
	{ NOTE_FS3, 91 }, 
	{ NOTE_FS3, 91 }, 
	{ NOTE_FS3, 91 }, 
	{ NOTE_FS3, 91 }, 
	{ NOTE_FS3, 91 }, 
	{ NOTE_FS3, 91 }, 
	{ NOTE_FS3, 91 }, 
	{ NOTE_FS3, 91 }, 
	{ NOTE_FS3, 90 }, 
	{ NOTE_B4, 1455 }, 
	{ NOTE_FS4, 727 }, 
	{ NOTE_FS3, 728 }, 
	{ NOTE_DS4, 727 }, 
	{ NOTE_AS4, 364 }, 
	{ NOTE_B4, 364 }, 
	{ NOTE_AS3, 727 }, 
	{ NOTE_AS3, 728 }, 
	{ NOTE_B3, 182 }, 
	{ NOTE_E3, 91 }, 
	{ NOTE_E3, 91 }, 
	{ NOTE_E3, 91 }, 
	{ NOTE_E3, 91 }, 
	{ NOTE_B3, 182 }, 
	{ NOTE_B3, 182 }, 
	{ NOTE_E3, 91 }, 
	{ NOTE_E3, 91 }, 
	{ NOTE_E3, 91 }, 
	{ NOTE_E3, 91 }, 
	{ NOTE_E3, 91 }, 
	{ NOTE_E3, 90 }, 
	{ NOTE_CS4, 364 }, 
	{ NOTE_REST, 364 }, 
	{ NOTE_REST, 727 }, 
	{ NOTE_CS5, 1455 }, 
	{ NOTE_GS4, 1455 }, 
	{ NOTE_AS4, 1455 }, 
	{ NOTE_F4, 1455 }, 
	{ NOTE_FS4, 182 }, 
	{ NOTE_FS3, 91 }, 
	{ NOTE_FS3, 91 }, 
	{ NOTE_FS3, 91 }, 
	{ NOTE_FS3, 91 }, 
	{ NOTE_FS3, 91 }, 
	{ NOTE_FS3, 91 }, 
	{ NOTE_CS4, 182 }, 
	{ NOTE_FS3, 91 }, 
	{ NOTE_FS3, 91 }, 
	{ NOTE_FS3, 91 }, 
	{ NOTE_FS3, 91 }, 
	{ NOTE_FS3, 91 }, 
	{ NOTE_FS3, 90 }, 
	{ NOTE_CS4, 91 }, 
	{ NOTE_CS4, 91 }, 
	{ NOTE_CS4, 91 }, 
	{ NOTE_CS4, 91 }, 
	{ NOTE_CS4, 91 }, 
	{ NOTE_CS4, 91 }, 
	{ NOTE_CS4, 91 }, 
	{ NOTE_CS4, 91 }, 
	{ NOTE_CS4, 91 }, 
	{ NOTE_CS4, 91 }, 
	{ NOTE_CS4, 91 }, 
	{ NOTE_CS4, 91 }, 
	{ NOTE_CS4, 91 }, 
	{ NOTE_CS4, 91 }, 
	{ NOTE_CS4, 91 }, 
	{ NOTE_CS4, 90 }, 
	{ NOTE_GS4, 364 }, 
	{ NOTE_GS4, 727 }, 
	{ NOTE_GS4, 364 }, 
	{ NOTE_GS3, 91 }, 
	{ NOTE_GS3, 91 }, 
	{ NOTE_GS3, 91 }, 
	{ NOTE_GS3, 91 }, 
	{ NOTE_GS3, 91 }, 
	{ NOTE_GS3, 91 }, 
	{ NOTE_GS3, 91 }, 
	{ NOTE_GS3, 91 }, 
	{ NOTE_GS3, 91 }, 
	{ NOTE_GS3, 91 }, 
	{ NOTE_GS3, 91 }, 
	{ NOTE_GS3, 91 }, 
	{ NOTE_GS3, 91 }, 
	{ NOTE_GS3, 91 }, 
	{ NOTE_GS3, 91 }, 
	{ NOTE_GS3, 90 }, 
	{ NOTE_CS5, 1455 }, 
	{ NOTE_GS4, 727 }, 
	{ NOTE_GS3, 728 }, 
	{ NOTE_F4, 727 }, 
	{ NOTE_C5, 364 }, 
	{ NOTE_CS5, 364 }, 
	{ NOTE_GS3, 727 }, 
	{ NOTE_C4, 728 }, 
	{ NOTE_FS4, 182 }, 
	{ NOTE_FS3, 91 }, 
	{ NOTE_FS3, 91 }, 
	{ NOTE_FS3, 91 }, 
	{ NOTE_FS3, 91 }, 
	{ NOTE_FS3, 91 }, 
	{ NOTE_FS3, 91 }, 
	{ NOTE_CS4, 182 }, 
	{ NOTE_FS3, 91 }, 
	{ NOTE_FS3, 91 }, 
	{ NOTE_FS3, 91 }, 
	{ NOTE_FS3, 91 }, 
	{ NOTE_FS3, 91 }, 
	{ NOTE_FS3, 90 }, 
	{ NOTE_DS4, 1455 }, 
	{ NOTE_CS5, 1455 }, 
	{ NOTE_GS4, 727 }, 
	{ NOTE_GS3, 728 }, 
	{ NOTE_F4, 727 }, 
	{ NOTE_C5, 364 }, 
	{ NOTE_CS5, 364 }, 
	{ NOTE_GS3, 727 }, 
	{ NOTE_C4, 728 }, 
	{ NOTE_FS4, 182 }, 
	{ NOTE_FS3, 91 }, 
	{ NOTE_FS3, 91 }, 
	{ NOTE_FS3, 91 }, 
	{ NOTE_FS3, 91 }, 
	{ NOTE_FS3, 91 }, 
	{ NOTE_FS3, 91 }, 
	{ NOTE_CS4, 182 }, 
	{ NOTE_FS3, 91 }, 
	{ NOTE_FS3, 91 }, 
	{ NOTE_FS3, 91 }, 
	{ NOTE_FS3, 91 }, 
	{ NOTE_FS3, 91 }, 
	{ NOTE_FS3, 90 }, 
	{ NOTE_GS4, 1455 }, 
	{ NOTE_CS5, 182 }, 
	{ NOTE_F5, 91 }, 
	{ NOTE_DS5, 91 }, 
	{ NOTE_F5, 182 }, 
	{ NOTE_CS5, 182 }, 
	{ NOTE_F5, 91 }, 
	{ NOTE_DS5, 91 }, 
	{ NOTE_F5, 182 }, 
	{ NOTE_CS5, 182 }, 
	{ NOTE_F5, 91 }, 
	{ NOTE_DS5, 90 }, 
	{ NOTE_F5, 182 }, 
	{ NOTE_CS5, 182 }, 
	{ NOTE_F5, 91 }, 
	{ NOTE_DS5, 91 }, 
	{ NOTE_F5, 182 }, 
	{ NOTE_CS5, 364 }, 
	{ NOTE_C5, 363 }, 
	{ NOTE_CS4, 1455 }, 
	{ NOTE_GS4, 1455 }, 
	{ NOTE_CS5, 182 }, 
	{ NOTE_F5, 91 }, 
	{ NOTE_DS5, 91 }, 
	{ NOTE_F5, 182 }, 
	{ NOTE_CS5, 182 }, 
	{ NOTE_F5, 91 }, 
	{ NOTE_DS5, 91 }, 
	{ NOTE_F5, 182 }, 
	{ NOTE_CS5, 182 }, 
	{ NOTE_F5, 91 }, 
	{ NOTE_DS5, 90 }, 
	{ NOTE_F5, 182 }, 
	{ NOTE_CS5, 182 }, 
	{ NOTE_F5, 91 }, 
	{ NOTE_DS5, 91 }, 
	{ NOTE_F5, 182 }, 
	{ NOTE_CS5, 364 }, 
	{ NOTE_C5, 363 }, 
	{ NOTE_FS4, 1455 }, 
	{ NOTE_DS4, 364 }, 
	{ NOTE_REST, 364 }, 
	{ NOTE_REST, 727 }, 
};
const uint16_t NUM_OF_NOTES3 = sizeof(melody3)/sizeof(melody3[0]);

const Note melody4[] PROGMEM = {
	{ NOTE_GS3, 182 }, 
	{ NOTE_REST, 364 }, 
	{ NOTE_GS3, 182 }, 
	{ NOTE_REST, 364 }, 
	{ NOTE_GS3, 182 }, 
	{ NOTE_REST, 181 }, 
	{ NOTE_REST, 182 }, 
	{ NOTE_GS3, 182 }, 
	{ NOTE_REST, 364 }, 
	{ NOTE_CS4, 364 }, 
	{ NOTE_CS4, 363 }, 
	{ NOTE_GS3, 182 }, 
	{ NOTE_REST, 364 }, 
	{ NOTE_GS3, 182 }, 
	{ NOTE_REST, 364 }, 
	{ NOTE_GS3, 182 }, 
	{ NOTE_REST, 181 }, 
	{ NOTE_REST, 182 }, 
	{ NOTE_GS3, 182 }, 
	{ NOTE_REST, 364 }, 
	{ NOTE_B3, 91 }, 
	{ NOTE_B3, 91 }, 
	{ NOTE_B3, 182 }, 
	{ NOTE_AS3, 91 }, 
	{ NOTE_AS3, 91 }, 
	{ NOTE_AS3, 181 }, 
	{ NOTE_GS3, 182 }, 
	{ NOTE_REST, 364 }, 
	{ NOTE_GS3, 182 }, 
	{ NOTE_REST, 364 }, 
	{ NOTE_GS3, 182 }, 
	{ NOTE_REST, 181 }, 
	{ NOTE_REST, 182 }, 
	{ NOTE_GS3, 182 }, 
	{ NOTE_REST, 364 }, 
	{ NOTE_CS4, 364 }, 
	{ NOTE_CS4, 363 }, 
	{ NOTE_CS4, 91 }, 
	{ NOTE_CS4, 91 }, 
	{ NOTE_CS4, 91 }, 
	{ NOTE_CS4, 91 }, 
	{ NOTE_CS4, 91 }, 
	{ NOTE_CS4, 91 }, 
	{ NOTE_CS4, 91 }, 
	{ NOTE_CS4, 91 }, 
	{ NOTE_CS4, 91 }, 
	{ NOTE_CS4, 91 }, 
	{ NOTE_CS4, 91 }, 
	{ NOTE_CS4, 91 }, 
	{ NOTE_CS4, 91 }, 
	{ NOTE_CS4, 91 }, 
	{ NOTE_CS4, 91 }, 
	{ NOTE_CS4, 90 }, 
	{ NOTE_DS4, 91 }, 
	{ NOTE_DS4, 91 }, 
	{ NOTE_DS4, 91 }, 
	{ NOTE_DS4, 91 }, 
	{ NOTE_DS4, 91 }, 
	{ NOTE_DS4, 91 }, 
	{ NOTE_DS4, 91 }, 
	{ NOTE_DS4, 91 }, 
	{ NOTE_DS4, 91 }, 
	{ NOTE_DS4, 91 }, 
	{ NOTE_DS4, 91 }, 
	{ NOTE_DS4, 91 }, 
	{ NOTE_DS4, 91 }, 
	{ NOTE_DS4, 91 }, 
	{ NOTE_DS4, 91 }, 
	{ NOTE_DS4, 90 }, 
	{ NOTE_GS3, 182 }, 
	{ NOTE_REST, 364 }, 
	{ NOTE_GS3, 182 }, 
	{ NOTE_REST, 364 }, 
	{ NOTE_GS3, 182 }, 
	{ NOTE_REST, 181 }, 
	{ NOTE_REST, 182 }, 
	{ NOTE_GS3, 182 }, 
	{ NOTE_REST, 364 }, 
	{ NOTE_CS4, 364 }, 
	{ NOTE_CS4, 363 }, 
	{ NOTE_GS3, 182 }, 
	{ NOTE_REST, 364 }, 
	{ NOTE_GS3, 182 }, 
	{ NOTE_REST, 364 }, 
	{ NOTE_GS3, 182 }, 
	{ NOTE_REST, 181 }, 
	{ NOTE_REST, 182 }, 
	{ NOTE_GS3, 182 }, 
	{ NOTE_REST, 364 }, 
	{ NOTE_B3, 91 }, 
	{ NOTE_B3, 91 }, 
	{ NOTE_B3, 182 }, 
	{ NOTE_AS3, 91 }, 
	{ NOTE_AS3, 91 }, 
	{ NOTE_AS3, 181 }, 
	{ NOTE_GS3, 182 }, 
	{ NOTE_REST, 364 }, 
	{ NOTE_GS3, 182 }, 
	{ NOTE_REST, 364 }, 
	{ NOTE_GS3, 182 }, 
	{ NOTE_REST, 181 }, 
	{ NOTE_REST, 182 }, 
	{ NOTE_GS3, 182 }, 
	{ NOTE_REST, 364 }, 
	{ NOTE_CS4, 364 }, 
	{ NOTE_CS4, 363 }, 
	{ NOTE_CS4, 91 }, 
	{ NOTE_CS4, 91 }, 
	{ NOTE_CS4, 91 }, 
	{ NOTE_CS4, 91 }, 
	{ NOTE_CS4, 91 }, 
	{ NOTE_CS4, 91 }, 
	{ NOTE_CS4, 91 }, 
	{ NOTE_CS4, 91 }, 
	{ NOTE_CS4, 91 }, 
	{ NOTE_CS4, 91 }, 
	{ NOTE_CS4, 91 }, 
	{ NOTE_CS4, 91 }, 
	{ NOTE_CS4, 91 }, 
	{ NOTE_CS4, 91 }, 
	{ NOTE_CS4, 91 }, 
	{ NOTE_CS4, 90 }, 
	{ NOTE_DS4, 91 }, 
	{ NOTE_DS4, 91 }, 
	{ NOTE_DS4, 91 }, 
	{ NOTE_DS4, 91 }, 
	{ NOTE_DS4, 91 }, 
	{ NOTE_DS4, 91 }, 
	{ NOTE_DS4, 91 }, 
	{ NOTE_DS4, 91 }, 
	{ NOTE_DS4, 91 }, 
	{ NOTE_DS4, 91 }, 
	{ NOTE_DS4, 91 }, 
	{ NOTE_DS4, 91 }, 
	{ NOTE_DS4, 91 }, 
	{ NOTE_DS4, 91 }, 
	{ NOTE_DS4, 91 }, 
	{ NOTE_DS4, 90 }, 
	{ NOTE_GS4, 91 }, 
	{ NOTE_GS4, 91 }, 
	{ NOTE_GS4, 91 }, 
	{ NOTE_GS4, 91 }, 
	{ NOTE_GS4, 91 }, 
	{ NOTE_GS4, 91 }, 
	{ NOTE_GS4, 91 }, 
	{ NOTE_GS4, 91 }, 
	{ NOTE_GS4, 91 }, 
	{ NOTE_GS4, 91 }, 
	{ NOTE_GS4, 91 }, 
	{ NOTE_GS4, 91 }, 
	{ NOTE_GS4, 91 }, 
	{ NOTE_GS4, 91 }, 
	{ NOTE_GS4, 91 }, 
	{ NOTE_GS4, 90 }, 
	{ NOTE_FS4, 91 }, 
	{ NOTE_FS4, 91 }, 
	{ NOTE_FS4, 91 }, 
	{ NOTE_FS4, 91 }, 
	{ NOTE_FS4, 91 }, 
	{ NOTE_FS4, 91 }, 
	{ NOTE_FS4, 91 }, 
	{ NOTE_FS4, 91 }, 
	{ NOTE_FS4, 91 }, 
	{ NOTE_FS4, 91 }, 
	{ NOTE_FS4, 91 }, 
	{ NOTE_FS4, 91 }, 
	{ NOTE_FS4, 91 }, 
	{ NOTE_FS4, 91 }, 
	{ NOTE_FS4, 91 }, 
	{ NOTE_FS4, 90 }, 
	{ NOTE_CS4, 91 }, 
	{ NOTE_CS4, 91 }, 
	{ NOTE_CS4, 91 }, 
	{ NOTE_CS4, 91 }, 
	{ NOTE_CS4, 91 }, 
	{ NOTE_CS4, 91 }, 
	{ NOTE_CS4, 91 }, 
	{ NOTE_CS4, 91 }, 
	{ NOTE_CS4, 91 }, 
	{ NOTE_CS4, 91 }, 
	{ NOTE_CS4, 91 }, 
	{ NOTE_CS4, 91 }, 
	{ NOTE_CS4, 91 }, 
	{ NOTE_CS4, 91 }, 
	{ NOTE_CS4, 91 }, 
	{ NOTE_CS4, 90 }, 
	{ NOTE_DS4, 91 }, 
	{ NOTE_DS4, 91 }, 
	{ NOTE_DS4, 91 }, 
	{ NOTE_DS4, 91 }, 
	{ NOTE_DS4, 91 }, 
	{ NOTE_DS4, 91 }, 
	{ NOTE_DS4, 91 }, 
	{ NOTE_DS4, 91 }, 
	{ NOTE_DS4, 91 }, 
	{ NOTE_DS4, 91 }, 
	{ NOTE_DS4, 91 }, 
	{ NOTE_DS4, 91 }, 
	{ NOTE_DS4, 91 }, 
	{ NOTE_DS4, 91 }, 
	{ NOTE_DS4, 91 }, 
	{ NOTE_DS4, 90 }, 
	{ NOTE_DS3, 182 }, 
	{ NOTE_REST, 1091 }, 
	{ NOTE_REST, 182 }, 
	{ NOTE_E5, 91 }, 
	{ NOTE_DS5, 91 }, 
	{ NOTE_CS5, 91 }, 
	{ NOTE_B4, 91 }, 
	{ NOTE_AS4, 91 }, 
	{ NOTE_GS4, 91 }, 
	{ NOTE_G4, 91 }, 
	{ NOTE_GS4, 91 }, 
	{ NOTE_AS4, 91 }, 
	{ NOTE_GS4, 91 }, 
	{ NOTE_FS4, 91 }, 
	{ NOTE_E4, 91 }, 
	{ NOTE_DS4, 91 }, 
	{ NOTE_CS4, 91 }, 
	{ NOTE_B3, 91 }, 
	{ NOTE_AS3, 90 }, 
	{ NOTE_GS3, 364 }, 
	{ NOTE_GS3, 121 }, 
	{ NOTE_GS3, 121 }, 
	{ NOTE_GS3, 121 }, 
	{ NOTE_GS3, 364 }, 
	{ NOTE_GS3, 364 }, 
	{ NOTE_GS3, 364 }, 
	{ NOTE_GS3, 364 }, 
	{ NOTE_GS3, 364 }, 
	{ NOTE_GS3, 363 }, 
	{ NOTE_E5, 121 }, 
	{ NOTE_CS5, 121 }, 
	{ NOTE_CS4, 121 }, 
	{ NOTE_AS3, 121 }, 
	{ NOTE_CS4, 121 }, 
	{ NOTE_CS5, 121 }, 
	{ NOTE_E5, 121 }, 
	{ NOTE_CS5, 121 }, 
	{ NOTE_CS4, 121 }, 
	{ NOTE_AS3, 121 }, 
	{ NOTE_CS4, 121 }, 
	{ NOTE_E5, 124 }, 
	{ NOTE_G5, 121 }, 
	{ NOTE_E5, 121 }, 
	{ NOTE_E4, 121 }, 
	{ NOTE_CS4, 121 }, 
	{ NOTE_E4, 121 }, 
	{ NOTE_E5, 121 }, 
	{ NOTE_G5, 121 }, 
	{ NOTE_E5, 121 }, 
	{ NOTE_E4, 121 }, 
	{ NOTE_CS4, 121 }, 
	{ NOTE_E4, 121 }, 
	{ NOTE_G5, 124 }, 
	{ NOTE_AS5, 121 }, 
	{ NOTE_G5, 121 }, 
	{ NOTE_G4, 121 }, 
	{ NOTE_E4, 121 }, 
	{ NOTE_G4, 121 }, 
	{ NOTE_G5, 121 }, 
	{ NOTE_AS5, 121 }, 
	{ NOTE_G5, 121 }, 
	{ NOTE_G4, 121 }, 
	{ NOTE_E4, 121 }, 
	{ NOTE_G4, 121 }, 
	{ NOTE_AS5, 124 }, 
	{ NOTE_CS6, 121 }, 
	{ NOTE_AS5, 121 }, 
	{ NOTE_AS4, 121 }, 
	{ NOTE_G4, 121 }, 
	{ NOTE_AS4, 121 }, 
	{ NOTE_AS5, 121 }, 
	{ NOTE_CS6, 121 }, 
	{ NOTE_AS5, 121 }, 
	{ NOTE_AS4, 121 }, 
	{ NOTE_G4, 121 }, 
	{ NOTE_AS4, 121 }, 
	{ NOTE_AS5, 124 }, 
	{ NOTE_DS3, 182 }, 
	{ NOTE_REST, 545 }, 
	{ NOTE_GS3, 182 }, 
	{ NOTE_GS3, 91 }, 
	{ NOTE_GS3, 91 }, 
	{ NOTE_GS3, 91 }, 
	{ NOTE_GS3, 91 }, 
	{ NOTE_GS3, 182 }, 
	{ NOTE_GS3, 182 }, 
	{ NOTE_GS3, 91 }, 
	{ NOTE_GS3, 91 }, 
	{ NOTE_GS3, 91 }, 
	{ NOTE_GS3, 91 }, 
	{ NOTE_GS3, 181 }, 
	{ NOTE_GS3, 182 }, 
	{ NOTE_GS3, 91 }, 
	{ NOTE_GS3, 91 }, 
	{ NOTE_GS3, 91 }, 
	{ NOTE_GS3, 91 }, 
	{ NOTE_GS3, 182 }, 
	{ NOTE_GS3, 182 }, 
	{ NOTE_GS3, 91 }, 
	{ NOTE_GS3, 91 }, 
	{ NOTE_GS3, 91 }, 
	{ NOTE_GS3, 91 }, 
	{ NOTE_GS3, 181 }, 
	{ NOTE_CS4, 1455 }, 
	{ NOTE_B3, 182 }, 
	{ NOTE_B3, 91 }, 
	{ NOTE_B3, 91 }, 
	{ NOTE_B3, 91 }, 
	{ NOTE_B3, 91 }, 
	{ NOTE_B3, 182 }, 
	{ NOTE_FS3, 182 }, 
	{ NOTE_FS3, 182 }, 
	{ NOTE_FS3, 182 }, 
	{ NOTE_FS3, 181 }, 
	{ NOTE_GS3, 182 }, 
	{ NOTE_GS3, 91 }, 
	{ NOTE_GS3, 91 }, 
	{ NOTE_GS3, 91 }, 
	{ NOTE_GS3, 91 }, 
	{ NOTE_GS3, 182 }, 
	{ NOTE_GS3, 182 }, 
	{ NOTE_GS3, 91 }, 
	{ NOTE_GS3, 91 }, 
	{ NOTE_GS3, 91 }, 
	{ NOTE_GS3, 91 }, 
	{ NOTE_GS3, 181 }, 
	{ NOTE_GS3, 182 }, 
	{ NOTE_GS3, 91 }, 
	{ NOTE_GS3, 91 }, 
	{ NOTE_GS3, 91 }, 
	{ NOTE_GS3, 91 }, 
	{ NOTE_GS3, 182 }, 
	{ NOTE_GS3, 182 }, 
	{ NOTE_GS3, 91 }, 
	{ NOTE_GS3, 91 }, 
	{ NOTE_CS4, 182 }, 
	{ NOTE_DS4, 181 }, 
	{ NOTE_E4, 182 }, 
	{ NOTE_E4, 91 }, 
	{ NOTE_E4, 91 }, 
	{ NOTE_E4, 91 }, 
	{ NOTE_E4, 91 }, 
	{ NOTE_E4, 182 }, 
	{ NOTE_E4, 182 }, 
	{ NOTE_E4, 91 }, 
	{ NOTE_E4, 91 }, 
	{ NOTE_E4, 91 }, 
	{ NOTE_E4, 91 }, 
	{ NOTE_E4, 181 }, 
	{ NOTE_CS4, 91 }, 
	{ NOTE_CS4, 91 }, 
	{ NOTE_CS4, 91 }, 
	{ NOTE_CS4, 91 }, 
	{ NOTE_CS4, 91 }, 
	{ NOTE_CS4, 91 }, 
	{ NOTE_CS4, 91 }, 
	{ NOTE_CS4, 91 }, 
	{ NOTE_FS3, 91 }, 
	{ NOTE_FS3, 91 }, 
	{ NOTE_FS3, 91 }, 
	{ NOTE_FS3, 91 }, 
	{ NOTE_FS3, 91 }, 
	{ NOTE_FS3, 91 }, 
	{ NOTE_FS3, 91 }, 
	{ NOTE_FS3, 90 }, 
	{ NOTE_GS3, 182 }, 
	{ NOTE_GS3, 91 }, 
	{ NOTE_GS3, 91 }, 
	{ NOTE_GS3, 91 }, 
	{ NOTE_GS3, 91 }, 
	{ NOTE_GS3, 182 }, 
	{ NOTE_GS3, 182 }, 
	{ NOTE_GS3, 91 }, 
	{ NOTE_GS3, 91 }, 
	{ NOTE_GS3, 91 }, 
	{ NOTE_GS3, 91 }, 
	{ NOTE_GS3, 181 }, 
	{ NOTE_GS3, 182 }, 
	{ NOTE_GS3, 91 }, 
	{ NOTE_GS3, 91 }, 
	{ NOTE_GS3, 91 }, 
	{ NOTE_GS3, 91 }, 
	{ NOTE_GS3, 182 }, 
	{ NOTE_GS3, 182 }, 
	{ NOTE_GS3, 91 }, 
	{ NOTE_GS3, 91 }, 
	{ NOTE_GS3, 91 }, 
	{ NOTE_GS3, 91 }, 
	{ NOTE_GS3, 181 }, 
	{ NOTE_CS4, 1455 }, 
	{ NOTE_B3, 182 }, 
	{ NOTE_B3, 91 }, 
	{ NOTE_B3, 91 }, 
	{ NOTE_B3, 91 }, 
	{ NOTE_B3, 91 }, 
	{ NOTE_B3, 182 }, 
	{ NOTE_FS3, 182 }, 
	{ NOTE_FS3, 182 }, 
	{ NOTE_FS3, 182 }, 
	{ NOTE_FS3, 181 }, 
	{ NOTE_GS3, 182 }, 
	{ NOTE_GS3, 91 }, 
	{ NOTE_GS3, 91 }, 
	{ NOTE_GS3, 91 }, 
	{ NOTE_GS3, 91 }, 
	{ NOTE_GS3, 182 }, 
	{ NOTE_GS3, 182 }, 
	{ NOTE_GS3, 91 }, 
	{ NOTE_GS3, 91 }, 
	{ NOTE_GS3, 91 }, 
	{ NOTE_GS3, 91 }, 
	{ NOTE_GS3, 181 }, 
	{ NOTE_GS3, 182 }, 
	{ NOTE_GS3, 91 }, 
	{ NOTE_GS3, 91 }, 
	{ NOTE_GS3, 91 }, 
	{ NOTE_GS3, 91 }, 
	{ NOTE_GS3, 182 }, 
	{ NOTE_GS3, 182 }, 
	{ NOTE_GS3, 91 }, 
	{ NOTE_GS3, 91 }, 
	{ NOTE_CS4, 182 }, 
	{ NOTE_DS4, 181 }, 
	{ NOTE_E4, 182 }, 
	{ NOTE_E4, 91 }, 
	{ NOTE_E4, 91 }, 
	{ NOTE_E4, 91 }, 
	{ NOTE_E4, 91 }, 
	{ NOTE_E4, 182 }, 
	{ NOTE_E4, 182 }, 
	{ NOTE_E4, 91 }, 
	{ NOTE_E4, 91 }, 
	{ NOTE_E4, 91 }, 
	{ NOTE_E4, 91 }, 
	{ NOTE_E4, 181 }, 
	{ NOTE_CS4, 91 }, 
	{ NOTE_CS4, 91 }, 
	{ NOTE_CS4, 91 }, 
	{ NOTE_CS4, 91 }, 
	{ NOTE_CS4, 91 }, 
	{ NOTE_CS4, 91 }, 
	{ NOTE_CS4, 91 }, 
	{ NOTE_CS4, 91 }, 
	{ NOTE_FS3, 91 }, 
	{ NOTE_FS3, 91 }, 
	{ NOTE_FS3, 91 }, 
	{ NOTE_FS3, 91 }, 
	{ NOTE_FS3, 91 }, 
	{ NOTE_FS3, 91 }, 
	{ NOTE_FS3, 91 }, 
	{ NOTE_FS3, 90 }, 
	{ NOTE_CS4, 182 }, 
	{ NOTE_CS4, 91 }, 
	{ NOTE_CS4, 91 }, 
	{ NOTE_CS4, 91 }, 
	{ NOTE_CS4, 91 }, 
	{ NOTE_CS4, 182 }, 
	{ NOTE_CS5, 273 }, 
	{ NOTE_B4, 273 }, 
	{ NOTE_GS4, 91 }, 
	{ NOTE_FS4, 90 }, 
	{ NOTE_GS4, 364 }, 
	{ NOTE_GS3, 364 }, 
	{ NOTE_FS3, 182 }, 
	{ NOTE_REST, 182 }, 
	{ NOTE_FS3, 182 }, 
	{ NOTE_REST, 181 }, 
	{ NOTE_E3, 182 }, 
	{ NOTE_E3, 91 }, 
	{ NOTE_E3, 91 }, 
	{ NOTE_E3, 91 }, 
	{ NOTE_E3, 91 }, 
	{ NOTE_E3, 182 }, 
	{ NOTE_E3, 182 }, 
	{ NOTE_E3, 91 }, 
	{ NOTE_E3, 91 }, 
	{ NOTE_E3, 91 }, 
	{ NOTE_E3, 91 }, 
	{ NOTE_E3, 181 }, 
	{ NOTE_B3, 727 }, 
	{ NOTE_FS3, 182 }, 
	{ NOTE_REST, 182 }, 
	{ NOTE_FS3, 182 }, 
	{ NOTE_REST, 182 }, 
	{ NOTE_E4, 91 }, 
	{ NOTE_E4, 91 }, 
	{ NOTE_E4, 182 }, 
	{ NOTE_E4, 91 }, 
	{ NOTE_E4, 91 }, 
	{ NOTE_E4, 182 }, 
	{ NOTE_E4, 91 }, 
	{ NOTE_E4, 91 }, 
	{ NOTE_E4, 182 }, 
	{ NOTE_E4, 91 }, 
	{ NOTE_E4, 91 }, 
	{ NOTE_E4, 181 }, 
	{ NOTE_GS3, 727 }, 
	{ NOTE_FS3, 182 }, 
	{ NOTE_REST, 182 }, 
	{ NOTE_FS3, 182 }, 
	{ NOTE_REST, 182 }, 
	{ NOTE_E3, 182 }, 
	{ NOTE_E3, 91 }, 
	{ NOTE_E3, 91 }, 
	{ NOTE_E3, 91 }, 
	{ NOTE_E3, 91 }, 
	{ NOTE_E3, 182 }, 
	{ NOTE_E3, 182 }, 
	{ NOTE_E3, 91 }, 
	{ NOTE_E3, 91 }, 
	{ NOTE_E3, 91 }, 
	{ NOTE_E3, 91 }, 
	{ NOTE_E3, 181 }, 
	{ NOTE_DS3, 182 }, 
	{ NOTE_DS3, 182 }, 
	{ NOTE_DS3, 182 }, 
	{ NOTE_DS3, 182 }, 
	{ NOTE_DS3, 182 }, 
	{ NOTE_REST, 545 }, 
	{ NOTE_GS4, 91 }, 
	{ NOTE_GS4, 91 }, 
	{ NOTE_GS4, 91 }, 
	{ NOTE_GS4, 91 }, 
	{ NOTE_GS4, 91 }, 
	{ NOTE_GS4, 91 }, 
	{ NOTE_GS4, 91 }, 
	{ NOTE_GS4, 91 }, 
	{ NOTE_GS4, 91 }, 
	{ NOTE_GS4, 91 }, 
	{ NOTE_GS4, 91 }, 
	{ NOTE_GS4, 91 }, 
	{ NOTE_GS4, 91 }, 
	{ NOTE_GS4, 91 }, 
	{ NOTE_GS4, 91 }, 
	{ NOTE_GS4, 90 }, 
	{ NOTE_GS4, 91 }, 
	{ NOTE_GS4, 91 }, 
	{ NOTE_GS4, 91 }, 
	{ NOTE_GS4, 91 }, 
	{ NOTE_GS4, 91 }, 
	{ NOTE_GS4, 91 }, 
	{ NOTE_GS4, 91 }, 
	{ NOTE_GS4, 91 }, 
	{ NOTE_CS4, 91 }, 
	{ NOTE_CS4, 91 }, 
	{ NOTE_CS4, 91 }, 
	{ NOTE_CS4, 91 }, 
	{ NOTE_CS4, 91 }, 
	{ NOTE_CS4, 91 }, 
	{ NOTE_CS4, 91 }, 
	{ NOTE_CS4, 90 }, 
	{ NOTE_GS4, 91 }, 
	{ NOTE_GS4, 91 }, 
	{ NOTE_GS4, 91 }, 
	{ NOTE_GS4, 91 }, 
	{ NOTE_GS4, 91 }, 
	{ NOTE_GS4, 91 }, 
	{ NOTE_GS4, 91 }, 
	{ NOTE_GS4, 91 }, 
	{ NOTE_GS4, 91 }, 
	{ NOTE_GS4, 91 }, 
	{ NOTE_GS4, 91 }, 
	{ NOTE_GS4, 91 }, 
	{ NOTE_GS4, 91 }, 
	{ NOTE_GS4, 91 }, 
	{ NOTE_GS4, 91 }, 
	{ NOTE_GS4, 90 }, 
	{ NOTE_GS4, 91 }, 
	{ NOTE_GS4, 91 }, 
	{ NOTE_GS4, 91 }, 
	{ NOTE_GS4, 91 }, 
	{ NOTE_GS4, 91 }, 
	{ NOTE_GS4, 91 }, 
	{ NOTE_GS4, 91 }, 
	{ NOTE_GS4, 91 }, 
	{ NOTE_B3, 91 }, 
	{ NOTE_B3, 91 }, 
	{ NOTE_B3, 182 }, 
	{ NOTE_AS3, 91 }, 
	{ NOTE_AS3, 91 }, 
	{ NOTE_AS3, 181 }, 
	{ NOTE_GS4, 91 }, 
	{ NOTE_GS4, 91 }, 
	{ NOTE_GS4, 91 }, 
	{ NOTE_GS4, 91 }, 
	{ NOTE_GS4, 91 }, 
	{ NOTE_GS4, 91 }, 
	{ NOTE_GS4, 91 }, 
	{ NOTE_GS4, 91 }, 
	{ NOTE_GS4, 91 }, 
	{ NOTE_GS4, 91 }, 
	{ NOTE_GS4, 91 }, 
	{ NOTE_GS4, 91 }, 
	{ NOTE_GS4, 91 }, 
	{ NOTE_GS4, 91 }, 
	{ NOTE_GS4, 91 }, 
	{ NOTE_GS4, 90 }, 
	{ NOTE_GS4, 91 }, 
	{ NOTE_GS4, 91 }, 
	{ NOTE_GS4, 91 }, 
	{ NOTE_GS4, 91 }, 
	{ NOTE_GS4, 91 }, 
	{ NOTE_GS4, 91 }, 
	{ NOTE_GS4, 91 }, 
	{ NOTE_GS4, 91 }, 
	{ NOTE_CS4, 91 }, 
	{ NOTE_CS4, 91 }, 
	{ NOTE_CS4, 91 }, 
	{ NOTE_CS4, 91 }, 
	{ NOTE_CS4, 91 }, 
	{ NOTE_CS4, 91 }, 
	{ NOTE_CS4, 91 }, 
	{ NOTE_CS4, 90 }, 
	{ NOTE_CS4, 91 }, 
	{ NOTE_CS4, 91 }, 
	{ NOTE_CS4, 91 }, 
	{ NOTE_CS4, 91 }, 
	{ NOTE_CS4, 91 }, 
	{ NOTE_CS4, 91 }, 
	{ NOTE_CS4, 91 }, 
	{ NOTE_CS4, 91 }, 
	{ NOTE_CS4, 91 }, 
	{ NOTE_CS4, 91 }, 
	{ NOTE_CS4, 91 }, 
	{ NOTE_CS4, 91 }, 
	{ NOTE_CS4, 91 }, 
	{ NOTE_CS4, 91 }, 
	{ NOTE_CS4, 91 }, 
	{ NOTE_CS4, 90 }, 
	{ NOTE_DS4, 91 }, 
	{ NOTE_DS4, 91 }, 
	{ NOTE_DS4, 91 }, 
	{ NOTE_DS4, 91 }, 
	{ NOTE_DS4, 91 }, 
	{ NOTE_DS4, 91 }, 
	{ NOTE_DS4, 91 }, 
	{ NOTE_DS4, 91 }, 
	{ NOTE_DS4, 91 }, 
	{ NOTE_DS4, 91 }, 
	{ NOTE_DS4, 91 }, 
	{ NOTE_DS4, 91 }, 
	{ NOTE_DS4, 91 }, 
	{ NOTE_DS4, 91 }, 
	{ NOTE_DS4, 91 }, 
	{ NOTE_DS4, 90 }, 
	{ NOTE_GS3, 182 }, 
	{ NOTE_GS3, 91 }, 
	{ NOTE_GS3, 91 }, 
	{ NOTE_GS3, 91 }, 
	{ NOTE_GS3, 91 }, 
	{ NOTE_GS3, 182 }, 
	{ NOTE_GS3, 182 }, 
	{ NOTE_GS3, 91 }, 
	{ NOTE_GS3, 91 }, 
	{ NOTE_GS3, 91 }, 
	{ NOTE_GS3, 91 }, 
	{ NOTE_GS3, 181 }, 
	{ NOTE_GS3, 182 }, 
	{ NOTE_GS3, 91 }, 
	{ NOTE_GS3, 91 }, 
	{ NOTE_GS3, 91 }, 
	{ NOTE_GS3, 91 }, 
	{ NOTE_GS3, 182 }, 
	{ NOTE_GS3, 182 }, 
	{ NOTE_GS3, 91 }, 
	{ NOTE_GS3, 91 }, 
	{ NOTE_GS3, 91 }, 
	{ NOTE_GS3, 91 }, 
	{ NOTE_GS3, 181 }, 
	{ NOTE_CS4, 1455 }, 
	{ NOTE_B3, 182 }, 
	{ NOTE_B3, 91 }, 
	{ NOTE_B3, 91 }, 
	{ NOTE_B3, 91 }, 
	{ NOTE_B3, 91 }, 
	{ NOTE_B3, 182 }, 
	{ NOTE_FS3, 182 }, 
	{ NOTE_FS3, 182 }, 
	{ NOTE_FS3, 182 }, 
	{ NOTE_FS3, 181 }, 
	{ NOTE_GS3, 182 }, 
	{ NOTE_GS3, 91 }, 
	{ NOTE_GS3, 91 }, 
	{ NOTE_GS3, 91 }, 
	{ NOTE_GS3, 91 }, 
	{ NOTE_GS3, 182 }, 
	{ NOTE_GS3, 182 }, 
	{ NOTE_GS3, 91 }, 
	{ NOTE_GS3, 91 }, 
	{ NOTE_GS3, 91 }, 
	{ NOTE_GS3, 91 }, 
	{ NOTE_GS3, 181 }, 
	{ NOTE_GS3, 182 }, 
	{ NOTE_GS3, 91 }, 
	{ NOTE_GS3, 91 }, 
	{ NOTE_GS3, 91 }, 
	{ NOTE_GS3, 91 }, 
	{ NOTE_GS3, 182 }, 
	{ NOTE_GS3, 182 }, 
	{ NOTE_GS3, 91 }, 
	{ NOTE_GS3, 91 }, 
	{ NOTE_CS4, 182 }, 
	{ NOTE_DS4, 181 }, 
	{ NOTE_E4, 182 }, 
	{ NOTE_E4, 91 }, 
	{ NOTE_E4, 91 }, 
	{ NOTE_E4, 91 }, 
	{ NOTE_E4, 91 }, 
	{ NOTE_E4, 182 }, 
	{ NOTE_E4, 182 }, 
	{ NOTE_E4, 91 }, 
	{ NOTE_E4, 91 }, 
	{ NOTE_E4, 91 }, 
	{ NOTE_E4, 91 }, 
	{ NOTE_E4, 181 }, 
	{ NOTE_CS4, 91 }, 
	{ NOTE_CS4, 91 }, 
	{ NOTE_CS4, 91 }, 
	{ NOTE_CS4, 91 }, 
	{ NOTE_CS4, 91 }, 
	{ NOTE_CS4, 91 }, 
	{ NOTE_CS4, 91 }, 
	{ NOTE_CS4, 91 }, 
	{ NOTE_FS3, 91 }, 
	{ NOTE_FS3, 91 }, 
	{ NOTE_FS3, 91 }, 
	{ NOTE_FS3, 91 }, 
	{ NOTE_FS3, 91 }, 
	{ NOTE_FS3, 91 }, 
	{ NOTE_FS3, 91 }, 
	{ NOTE_FS3, 90 }, 
	{ NOTE_GS3, 182 }, 
	{ NOTE_GS3, 91 }, 
	{ NOTE_GS3, 91 }, 
	{ NOTE_GS3, 91 }, 
	{ NOTE_GS3, 91 }, 
	{ NOTE_GS3, 182 }, 
	{ NOTE_GS3, 182 }, 
	{ NOTE_GS3, 91 }, 
	{ NOTE_GS3, 91 }, 
	{ NOTE_GS3, 91 }, 
	{ NOTE_GS3, 91 }, 
	{ NOTE_GS3, 181 }, 
	{ NOTE_GS3, 182 }, 
	{ NOTE_GS3, 91 }, 
	{ NOTE_GS3, 91 }, 
	{ NOTE_GS3, 91 }, 
	{ NOTE_GS3, 91 }, 
	{ NOTE_GS3, 182 }, 
	{ NOTE_GS3, 182 }, 
	{ NOTE_GS3, 91 }, 
	{ NOTE_GS3, 91 }, 
	{ NOTE_GS3, 91 }, 
	{ NOTE_GS3, 91 }, 
	{ NOTE_GS3, 181 }, 
	{ NOTE_CS4, 1455 }, 
	{ NOTE_B3, 182 }, 
	{ NOTE_B3, 91 }, 
	{ NOTE_B3, 91 }, 
	{ NOTE_B3, 91 }, 
	{ NOTE_B3, 91 }, 
	{ NOTE_B3, 182 }, 
	{ NOTE_FS3, 182 }, 
	{ NOTE_FS3, 182 }, 
	{ NOTE_FS3, 182 }, 
	{ NOTE_FS3, 181 }, 
	{ NOTE_GS3, 182 }, 
	{ NOTE_GS3, 91 }, 
	{ NOTE_GS3, 91 }, 
	{ NOTE_GS3, 91 }, 
	{ NOTE_GS3, 91 }, 
	{ NOTE_GS3, 182 }, 
	{ NOTE_GS3, 182 }, 
	{ NOTE_GS3, 91 }, 
	{ NOTE_GS3, 91 }, 
	{ NOTE_GS3, 91 }, 
	{ NOTE_GS3, 91 }, 
	{ NOTE_GS3, 181 }, 
	{ NOTE_GS3, 182 }, 
	{ NOTE_GS3, 91 }, 
	{ NOTE_GS3, 91 }, 
	{ NOTE_GS3, 91 }, 
	{ NOTE_GS3, 91 }, 
	{ NOTE_GS3, 182 }, 
	{ NOTE_GS3, 182 }, 
	{ NOTE_GS3, 91 }, 
	{ NOTE_GS3, 91 }, 
	{ NOTE_CS4, 182 }, 
	{ NOTE_DS4, 181 }, 
	{ NOTE_E4, 182 }, 
	{ NOTE_E4, 91 }, 
	{ NOTE_E4, 91 }, 
	{ NOTE_E4, 91 }, 
	{ NOTE_E4, 91 }, 
	{ NOTE_E4, 182 }, 
	{ NOTE_E4, 182 }, 
	{ NOTE_E4, 91 }, 
	{ NOTE_E4, 91 }, 
	{ NOTE_E4, 91 }, 
	{ NOTE_E4, 91 }, 
	{ NOTE_E4, 181 }, 
	{ NOTE_CS4, 91 }, 
	{ NOTE_CS4, 91 }, 
	{ NOTE_CS4, 91 }, 
	{ NOTE_CS4, 91 }, 
	{ NOTE_CS4, 91 }, 
	{ NOTE_CS4, 91 }, 
	{ NOTE_CS4, 91 }, 
	{ NOTE_CS4, 91 }, 
	{ NOTE_FS3, 91 }, 
	{ NOTE_FS3, 91 }, 
	{ NOTE_FS3, 91 }, 
	{ NOTE_FS3, 91 }, 
	{ NOTE_FS3, 91 }, 
	{ NOTE_FS3, 91 }, 
	{ NOTE_FS3, 91 }, 
	{ NOTE_FS3, 90 }, 
	{ NOTE_CS4, 182 }, 
	{ NOTE_CS4, 91 }, 
	{ NOTE_CS4, 91 }, 
	{ NOTE_CS4, 91 }, 
	{ NOTE_CS4, 91 }, 
	{ NOTE_CS4, 182 }, 
	{ NOTE_CS5, 273 }, 
	{ NOTE_B4, 273 }, 
	{ NOTE_GS4, 91 }, 
	{ NOTE_FS4, 90 }, 
	{ NOTE_GS4, 364 }, 
	{ NOTE_GS3, 364 }, 
	{ NOTE_FS3, 182 }, 
	{ NOTE_REST, 182 }, 
	{ NOTE_FS3, 182 }, 
	{ NOTE_REST, 181 }, 
	{ NOTE_E3, 182 }, 
	{ NOTE_E3, 91 }, 
	{ NOTE_E3, 91 }, 
	{ NOTE_E3, 91 }, 
	{ NOTE_E3, 91 }, 
	{ NOTE_E3, 182 }, 
	{ NOTE_E3, 182 }, 
	{ NOTE_E3, 91 }, 
	{ NOTE_E3, 91 }, 
	{ NOTE_E3, 91 }, 
	{ NOTE_E3, 91 }, 
	{ NOTE_E3, 181 }, 
	{ NOTE_B3, 727 }, 
	{ NOTE_FS3, 182 }, 
	{ NOTE_REST, 182 }, 
	{ NOTE_FS3, 182 }, 
	{ NOTE_REST, 182 }, 
	{ NOTE_E4, 91 }, 
	{ NOTE_E4, 91 }, 
	{ NOTE_E4, 182 }, 
	{ NOTE_E4, 91 }, 
	{ NOTE_E4, 91 }, 
	{ NOTE_E4, 182 }, 
	{ NOTE_E4, 91 }, 
	{ NOTE_E4, 91 }, 
	{ NOTE_E4, 182 }, 
	{ NOTE_E4, 91 }, 
	{ NOTE_E4, 91 }, 
	{ NOTE_E4, 181 }, 
	{ NOTE_GS3, 727 }, 
	{ NOTE_FS3, 182 }, 
	{ NOTE_REST, 182 }, 
	{ NOTE_FS3, 182 }, 
	{ NOTE_REST, 182 }, 
	{ NOTE_E3, 182 }, 
	{ NOTE_E3, 91 }, 
	{ NOTE_E3, 91 }, 
	{ NOTE_E3, 91 }, 
	{ NOTE_E3, 91 }, 
	{ NOTE_E3, 182 }, 
	{ NOTE_E3, 182 }, 
	{ NOTE_E3, 91 }, 
	{ NOTE_E3, 91 }, 
	{ NOTE_E3, 91 }, 
	{ NOTE_E3, 91 }, 
	{ NOTE_E3, 181 }, 
	{ NOTE_FS3, 182 }, 
	{ NOTE_FS3, 182 }, 
	{ NOTE_FS3, 182 }, 
	{ NOTE_FS3, 182 }, 
	{ NOTE_FS3, 182 }, 
	{ NOTE_REST, 545 }, 
	{ NOTE_B3, 91 }, 
	{ NOTE_B3, 91 }, 
	{ NOTE_B3, 91 }, 
	{ NOTE_B3, 91 }, 
	{ NOTE_B3, 91 }, 
	{ NOTE_B3, 91 }, 
	{ NOTE_B3, 91 }, 
	{ NOTE_B3, 91 }, 
	{ NOTE_B3, 91 }, 
	{ NOTE_B3, 91 }, 
	{ NOTE_B3, 91 }, 
	{ NOTE_B3, 91 }, 
	{ NOTE_B3, 91 }, 
	{ NOTE_B3, 91 }, 
	{ NOTE_B3, 91 }, 
	{ NOTE_B3, 90 }, 
	{ NOTE_FS3, 91 }, 
	{ NOTE_FS3, 91 }, 
	{ NOTE_FS3, 91 }, 
	{ NOTE_FS3, 91 }, 
	{ NOTE_FS3, 91 }, 
	{ NOTE_FS3, 91 }, 
	{ NOTE_FS3, 91 }, 
	{ NOTE_FS3, 91 }, 
	{ NOTE_FS3, 91 }, 
	{ NOTE_FS3, 91 }, 
	{ NOTE_FS3, 91 }, 
	{ NOTE_FS3, 91 }, 
	{ NOTE_FS3, 91 }, 
	{ NOTE_FS3, 91 }, 
	{ NOTE_FS3, 91 }, 
	{ NOTE_FS3, 90 }, 
	{ NOTE_GS3, 91 }, 
	{ NOTE_GS3, 91 }, 
	{ NOTE_GS3, 91 }, 
	{ NOTE_GS3, 91 }, 
	{ NOTE_GS3, 91 }, 
	{ NOTE_GS3, 91 }, 
	{ NOTE_GS3, 91 }, 
	{ NOTE_GS3, 91 }, 
	{ NOTE_GS3, 91 }, 
	{ NOTE_GS3, 91 }, 
	{ NOTE_GS3, 91 }, 
	{ NOTE_GS3, 91 }, 
	{ NOTE_GS3, 91 }, 
	{ NOTE_GS3, 91 }, 
	{ NOTE_GS3, 91 }, 
	{ NOTE_GS3, 90 }, 
	{ NOTE_DS4, 91 }, 
	{ NOTE_DS4, 91 }, 
	{ NOTE_DS4, 91 }, 
	{ NOTE_DS4, 91 }, 
	{ NOTE_DS4, 91 }, 
	{ NOTE_DS4, 91 }, 
	{ NOTE_DS4, 91 }, 
	{ NOTE_DS4, 91 }, 
	{ NOTE_DS4, 91 }, 
	{ NOTE_DS4, 91 }, 
	{ NOTE_DS4, 91 }, 
	{ NOTE_DS4, 91 }, 
	{ NOTE_DS4, 91 }, 
	{ NOTE_DS4, 91 }, 
	{ NOTE_DS4, 91 }, 
	{ NOTE_DS4, 90 }, 
	{ NOTE_E4, 91 }, 
	{ NOTE_E4, 91 }, 
	{ NOTE_E4, 91 }, 
	{ NOTE_E4, 91 }, 
	{ NOTE_E4, 91 }, 
	{ NOTE_E4, 91 }, 
	{ NOTE_E4, 91 }, 
	{ NOTE_E4, 91 }, 
	{ NOTE_E4, 91 }, 
	{ NOTE_E4, 91 }, 
	{ NOTE_E4, 91 }, 
	{ NOTE_E4, 91 }, 
	{ NOTE_E4, 91 }, 
	{ NOTE_E4, 91 }, 
	{ NOTE_E4, 91 }, 
	{ NOTE_E4, 90 }, 
	{ NOTE_B3, 91 }, 
	{ NOTE_B3, 91 }, 
	{ NOTE_B3, 91 }, 
	{ NOTE_B3, 91 }, 
	{ NOTE_B3, 91 }, 
	{ NOTE_B3, 91 }, 
	{ NOTE_B3, 91 }, 
	{ NOTE_B3, 91 }, 
	{ NOTE_B3, 91 }, 
	{ NOTE_B3, 91 }, 
	{ NOTE_B3, 91 }, 
	{ NOTE_B3, 91 }, 
	{ NOTE_B3, 91 }, 
	{ NOTE_B3, 91 }, 
	{ NOTE_B3, 91 }, 
	{ NOTE_B3, 90 }, 
	{ NOTE_FS4, 91 }, 
	{ NOTE_FS4, 91 }, 
	{ NOTE_FS4, 91 }, 
	{ NOTE_FS4, 91 }, 
	{ NOTE_FS4, 91 }, 
	{ NOTE_FS4, 91 }, 
	{ NOTE_FS4, 91 }, 
	{ NOTE_FS4, 91 }, 
	{ NOTE_FS4, 91 }, 
	{ NOTE_FS4, 91 }, 
	{ NOTE_FS4, 91 }, 
	{ NOTE_FS4, 91 }, 
	{ NOTE_FS4, 91 }, 
	{ NOTE_FS4, 91 }, 
	{ NOTE_FS4, 91 }, 
	{ NOTE_FS4, 90 }, 
	{ NOTE_FS4, 91 }, 
	{ NOTE_FS4, 91 }, 
	{ NOTE_FS4, 91 }, 
	{ NOTE_FS4, 91 }, 
	{ NOTE_FS4, 91 }, 
	{ NOTE_FS4, 91 }, 
	{ NOTE_FS4, 91 }, 
	{ NOTE_FS4, 91 }, 
	{ NOTE_FS4, 91 }, 
	{ NOTE_FS4, 91 }, 
	{ NOTE_FS4, 91 }, 
	{ NOTE_FS4, 91 }, 
	{ NOTE_FS4, 91 }, 
	{ NOTE_FS4, 91 }, 
	{ NOTE_FS4, 91 }, 
	{ NOTE_FS4, 90 }, 
	{ NOTE_B4, 91 }, 
	{ NOTE_B4, 91 }, 
	{ NOTE_B4, 91 }, 
	{ NOTE_B4, 91 }, 
	{ NOTE_B4, 91 }, 
	{ NOTE_B4, 91 }, 
	{ NOTE_B4, 91 }, 
	{ NOTE_B4, 91 }, 
	{ NOTE_B4, 91 }, 
	{ NOTE_B4, 91 }, 
	{ NOTE_B4, 91 }, 
	{ NOTE_B4, 91 }, 
	{ NOTE_B4, 91 }, 
	{ NOTE_B4, 91 }, 
	{ NOTE_B4, 91 }, 
	{ NOTE_B4, 90 }, 
	{ NOTE_AS4, 91 }, 
	{ NOTE_AS4, 91 }, 
	{ NOTE_AS4, 91 }, 
	{ NOTE_AS4, 91 }, 
	{ NOTE_AS4, 91 }, 
	{ NOTE_AS4, 91 }, 
	{ NOTE_AS4, 91 }, 
	{ NOTE_AS4, 91 }, 
	{ NOTE_FS4, 91 }, 
	{ NOTE_FS4, 91 }, 
	{ NOTE_FS4, 91 }, 
	{ NOTE_FS4, 91 }, 
	{ NOTE_FS4, 91 }, 
	{ NOTE_FS4, 91 }, 
	{ NOTE_FS4, 91 }, 
	{ NOTE_FS4, 90 }, 
	{ NOTE_GS4, 91 }, 
	{ NOTE_GS4, 91 }, 
	{ NOTE_GS4, 91 }, 
	{ NOTE_GS4, 91 }, 
	{ NOTE_GS4, 91 }, 
	{ NOTE_GS4, 91 }, 
	{ NOTE_GS4, 91 }, 
	{ NOTE_GS4, 91 }, 
	{ NOTE_AS4, 91 }, 
	{ NOTE_AS4, 91 }, 
	{ NOTE_AS4, 91 }, 
	{ NOTE_AS4, 91 }, 
	{ NOTE_GS4, 91 }, 
	{ NOTE_GS4, 91 }, 
	{ NOTE_GS4, 91 }, 
	{ NOTE_GS4, 90 }, 
	{ NOTE_FS4, 91 }, 
	{ NOTE_FS4, 91 }, 
	{ NOTE_FS4, 91 }, 
	{ NOTE_FS4, 91 }, 
	{ NOTE_FS4, 91 }, 
	{ NOTE_FS4, 91 }, 
	{ NOTE_FS4, 91 }, 
	{ NOTE_FS4, 91 }, 
	{ NOTE_DS4, 91 }, 
	{ NOTE_DS4, 91 }, 
	{ NOTE_DS4, 91 }, 
	{ NOTE_DS4, 91 }, 
	{ NOTE_DS4, 91 }, 
	{ NOTE_DS4, 91 }, 
	{ NOTE_DS4, 91 }, 
	{ NOTE_DS4, 90 }, 
	{ NOTE_E4, 91 }, 
	{ NOTE_E4, 91 }, 
	{ NOTE_E4, 91 }, 
	{ NOTE_E4, 91 }, 
	{ NOTE_E4, 91 }, 
	{ NOTE_E4, 91 }, 
	{ NOTE_E4, 91 }, 
	{ NOTE_E4, 91 }, 
	{ NOTE_E4, 91 }, 
	{ NOTE_E4, 91 }, 
	{ NOTE_E4, 91 }, 
	{ NOTE_E4, 91 }, 
	{ NOTE_E4, 91 }, 
	{ NOTE_E4, 91 }, 
	{ NOTE_E4, 91 }, 
	{ NOTE_E4, 90 }, 
	{ NOTE_FS4, 182 }, 
	{ NOTE_REST, 1091 }, 
	{ NOTE_REST, 182 }, 
	{ NOTE_GS3, 182 }, 
	{ NOTE_REST, 364 }, 
	{ NOTE_GS3, 182 }, 
	{ NOTE_REST, 364 }, 
	{ NOTE_GS3, 182 }, 
	{ NOTE_REST, 181 }, 
	{ NOTE_REST, 182 }, 
	{ NOTE_GS3, 182 }, 
	{ NOTE_REST, 364 }, 
	{ NOTE_GS3, 364 }, 
	{ NOTE_GS3, 363 }, 
	{ NOTE_CS4, 182 }, 
	{ NOTE_CS4, 91 }, 
	{ NOTE_CS4, 91 }, 
	{ NOTE_CS4, 91 }, 
	{ NOTE_CS4, 91 }, 
	{ NOTE_CS4, 182 }, 
	{ NOTE_CS4, 182 }, 
	{ NOTE_CS4, 91 }, 
	{ NOTE_CS4, 91 }, 
	{ NOTE_CS4, 91 }, 
	{ NOTE_CS4, 91 }, 
	{ NOTE_CS4, 181 }, 
	{ NOTE_C4, 1455 }, 
	{ NOTE_CS4, 182 }, 
	{ NOTE_CS4, 91 }, 
	{ NOTE_CS4, 91 }, 
	{ NOTE_CS4, 91 }, 
	{ NOTE_CS4, 91 }, 
	{ NOTE_CS4, 182 }, 
	{ NOTE_CS4, 182 }, 
	{ NOTE_CS4, 91 }, 
	{ NOTE_CS4, 91 }, 
	{ NOTE_CS4, 91 }, 
	{ NOTE_CS4, 91 }, 
	{ NOTE_CS4, 181 }, 
	{ NOTE_B3, 1455 }, 
	{ NOTE_E4, 182 }, 
	{ NOTE_E4, 91 }, 
	{ NOTE_E4, 91 }, 
	{ NOTE_E4, 91 }, 
	{ NOTE_E4, 91 }, 
	{ NOTE_E4, 182 }, 
	{ NOTE_E4, 182 }, 
	{ NOTE_E4, 91 }, 
	{ NOTE_E4, 91 }, 
	{ NOTE_E4, 91 }, 
	{ NOTE_E4, 91 }, 
	{ NOTE_E4, 181 }, 
	{ NOTE_B3, 1455 }, 
	{ NOTE_A3, 182 }, 
	{ NOTE_A3, 91 }, 
	{ NOTE_A3, 91 }, 
	{ NOTE_A3, 91 }, 
	{ NOTE_A3, 91 }, 
	{ NOTE_A3, 182 }, 
	{ NOTE_A3, 182 }, 
	{ NOTE_A3, 91 }, 
	{ NOTE_A3, 91 }, 
	{ NOTE_A3, 91 }, 
	{ NOTE_A3, 91 }, 
	{ NOTE_A3, 181 }, 
	{ NOTE_GS3, 1455 }, 
	{ NOTE_CS4, 182 }, 
	{ NOTE_CS4, 91 }, 
	{ NOTE_CS4, 91 }, 
	{ NOTE_CS4, 91 }, 
	{ NOTE_CS4, 91 }, 
	{ NOTE_CS4, 182 }, 
	{ NOTE_CS4, 182 }, 
	{ NOTE_CS4, 91 }, 
	{ NOTE_CS4, 91 }, 
	{ NOTE_CS4, 91 }, 
	{ NOTE_CS4, 91 }, 
	{ NOTE_CS4, 181 }, 
	{ NOTE_C4, 1455 }, 
	{ NOTE_CS4, 182 }, 
	{ NOTE_CS4, 91 }, 
	{ NOTE_CS4, 91 }, 
	{ NOTE_CS4, 91 }, 
	{ NOTE_CS4, 91 }, 
	{ NOTE_CS4, 182 }, 
	{ NOTE_CS4, 182 }, 
	{ NOTE_CS4, 91 }, 
	{ NOTE_CS4, 91 }, 
	{ NOTE_CS4, 91 }, 
	{ NOTE_CS4, 91 }, 
	{ NOTE_CS4, 181 }, 
	{ NOTE_B3, 1455 }, 
	{ NOTE_E4, 182 }, 
	{ NOTE_E4, 91 }, 
	{ NOTE_E4, 91 }, 
	{ NOTE_E4, 91 }, 
	{ NOTE_E4, 91 }, 
	{ NOTE_E4, 182 }, 
	{ NOTE_E4, 182 }, 
	{ NOTE_E4, 91 }, 
	{ NOTE_E4, 91 }, 
	{ NOTE_E4, 91 }, 
	{ NOTE_E4, 91 }, 
	{ NOTE_E4, 181 }, 
	{ NOTE_B3, 1455 }, 
	{ NOTE_A3, 182 }, 
	{ NOTE_A3, 91 }, 
	{ NOTE_A3, 91 }, 
	{ NOTE_A3, 91 }, 
	{ NOTE_A3, 91 }, 
	{ NOTE_A3, 182 }, 
	{ NOTE_A3, 182 }, 
	{ NOTE_A3, 91 }, 
	{ NOTE_A3, 91 }, 
	{ NOTE_A3, 91 }, 
	{ NOTE_A3, 91 }, 
	{ NOTE_A3, 181 }, 
	{ NOTE_DS4, 91 }, 
	{ NOTE_DS4, 91 }, 
	{ NOTE_REST, 91 }, 
	{ NOTE_DS4, 91 }, 
	{ NOTE_DS4, 91 }, 
	{ NOTE_REST, 91 }, 
	{ NOTE_DS4, 91 }, 
	{ NOTE_DS4, 91 }, 
	{ NOTE_REST, 91 }, 
	{ NOTE_DS4, 91 }, 
	{ NOTE_DS4, 91 }, 
	{ NOTE_REST, 91 }, 
	{ NOTE_DS4, 91 }, 
	{ NOTE_DS4, 91 }, 
	{ NOTE_DS4, 91 }, 
	{ NOTE_DS4, 90 }, 
	{ NOTE_E4, 91 }, 
	{ NOTE_E4, 91 }, 
	{ NOTE_E4, 91 }, 
	{ NOTE_E4, 91 }, 
	{ NOTE_E4, 91 }, 
	{ NOTE_E4, 91 }, 
	{ NOTE_E4, 91 }, 
	{ NOTE_E4, 91 }, 
	{ NOTE_E4, 91 }, 
	{ NOTE_E4, 91 }, 
	{ NOTE_E4, 91 }, 
	{ NOTE_E4, 91 }, 
	{ NOTE_E4, 91 }, 
	{ NOTE_E4, 91 }, 
	{ NOTE_E4, 91 }, 
	{ NOTE_E4, 90 }, 
	{ NOTE_E4, 91 }, 
	{ NOTE_E4, 91 }, 
	{ NOTE_E4, 91 }, 
	{ NOTE_E4, 91 }, 
	{ NOTE_E4, 91 }, 
	{ NOTE_E4, 91 }, 
	{ NOTE_E4, 91 }, 
	{ NOTE_E4, 91 }, 
	{ NOTE_E4, 91 }, 
	{ NOTE_E4, 91 }, 
	{ NOTE_E4, 91 }, 
	{ NOTE_E4, 91 }, 
	{ NOTE_E4, 91 }, 
	{ NOTE_E4, 91 }, 
	{ NOTE_E4, 91 }, 
	{ NOTE_E4, 90 }, 
	{ NOTE_B3, 182 }, 
	{ NOTE_B3, 182 }, 
	{ NOTE_B3, 182 }, 
	{ NOTE_B3, 182 }, 
	{ NOTE_FS3, 182 }, 
	{ NOTE_FS3, 182 }, 
	{ NOTE_FS3, 182 }, 
	{ NOTE_FS3, 181 }, 
	{ NOTE_GS3, 182 }, 
	{ NOTE_GS3, 182 }, 
	{ NOTE_GS3, 182 }, 
	{ NOTE_GS3, 182 }, 
	{ NOTE_FS3, 727 }, 
	{ NOTE_E4, 91 }, 
	{ NOTE_E4, 91 }, 
	{ NOTE_E4, 91 }, 
	{ NOTE_E4, 91 }, 
	{ NOTE_E4, 91 }, 
	{ NOTE_E4, 91 }, 
	{ NOTE_E4, 91 }, 
	{ NOTE_E4, 91 }, 
	{ NOTE_E4, 91 }, 
	{ NOTE_E4, 91 }, 
	{ NOTE_E4, 91 }, 
	{ NOTE_E4, 91 }, 
	{ NOTE_E4, 91 }, 
	{ NOTE_E4, 91 }, 
	{ NOTE_E4, 91 }, 
	{ NOTE_E4, 90 }, 
	{ NOTE_CS4, 91 }, 
	{ NOTE_CS4, 91 }, 
	{ NOTE_CS4, 91 }, 
	{ NOTE_CS4, 91 }, 
	{ NOTE_CS4, 91 }, 
	{ NOTE_CS4, 91 }, 
	{ NOTE_CS4, 91 }, 
	{ NOTE_CS4, 91 }, 
	{ NOTE_CS4, 91 }, 
	{ NOTE_CS4, 91 }, 
	{ NOTE_CS4, 91 }, 
	{ NOTE_CS4, 91 }, 
	{ NOTE_CS4, 91 }, 
	{ NOTE_CS4, 91 }, 
	{ NOTE_CS4, 91 }, 
	{ NOTE_CS4, 90 }, 
	{ NOTE_FS4, 91 }, 
	{ NOTE_FS4, 91 }, 
	{ NOTE_FS4, 91 }, 
	{ NOTE_FS4, 91 }, 
	{ NOTE_FS4, 91 }, 
	{ NOTE_FS4, 91 }, 
	{ NOTE_FS4, 91 }, 
	{ NOTE_FS4, 91 }, 
	{ NOTE_FS4, 91 }, 
	{ NOTE_FS4, 91 }, 
	{ NOTE_FS4, 91 }, 
	{ NOTE_FS4, 91 }, 
	{ NOTE_FS4, 91 }, 
	{ NOTE_FS4, 91 }, 
	{ NOTE_FS4, 91 }, 
	{ NOTE_FS4, 90 }, 
	{ NOTE_GS4, 91 }, 
	{ NOTE_GS4, 91 }, 
	{ NOTE_GS4, 91 }, 
	{ NOTE_GS4, 91 }, 
	{ NOTE_GS4, 91 }, 
	{ NOTE_GS4, 91 }, 
	{ NOTE_GS4, 91 }, 
	{ NOTE_GS4, 91 }, 
	{ NOTE_FS4, 91 }, 
	{ NOTE_FS4, 91 }, 
	{ NOTE_FS4, 91 }, 
	{ NOTE_FS4, 91 }, 
	{ NOTE_FS4, 91 }, 
	{ NOTE_FS4, 91 }, 
	{ NOTE_FS4, 91 }, 
	{ NOTE_FS4, 90 }, 
	{ NOTE_E4, 91 }, 
	{ NOTE_E4, 91 }, 
	{ NOTE_E4, 91 }, 
	{ NOTE_E4, 91 }, 
	{ NOTE_E4, 91 }, 
	{ NOTE_E4, 91 }, 
	{ NOTE_E4, 91 }, 
	{ NOTE_E4, 91 }, 
	{ NOTE_E4, 91 }, 
	{ NOTE_E4, 91 }, 
	{ NOTE_E4, 91 }, 
	{ NOTE_E4, 91 }, 
	{ NOTE_E4, 91 }, 
	{ NOTE_E4, 91 }, 
	{ NOTE_E4, 91 }, 
	{ NOTE_E4, 90 }, 
	{ NOTE_E4, 91 }, 
	{ NOTE_E4, 91 }, 
	{ NOTE_E4, 91 }, 
	{ NOTE_E4, 91 }, 
	{ NOTE_E4, 91 }, 
	{ NOTE_E4, 91 }, 
	{ NOTE_E4, 91 }, 
	{ NOTE_E4, 91 }, 
	{ NOTE_E4, 91 }, 
	{ NOTE_E4, 91 }, 
	{ NOTE_E4, 91 }, 
	{ NOTE_E4, 91 }, 
	{ NOTE_E4, 91 }, 
	{ NOTE_E4, 91 }, 
	{ NOTE_E4, 91 }, 
	{ NOTE_E4, 90 }, 
	{ NOTE_B3, 182 }, 
	{ NOTE_B3, 182 }, 
	{ NOTE_B3, 182 }, 
	{ NOTE_B3, 182 }, 
	{ NOTE_AS3, 182 }, 
	{ NOTE_AS3, 182 }, 
	{ NOTE_FS3, 182 }, 
	{ NOTE_FS3, 181 }, 
	{ NOTE_DS4, 182 }, 
	{ NOTE_DS4, 182 }, 
	{ NOTE_DS4, 182 }, 
	{ NOTE_DS4, 182 }, 
	{ NOTE_CS4, 182 }, 
	{ NOTE_CS4, 182 }, 
	{ NOTE_CS4, 182 }, 
	{ NOTE_CS4, 181 }, 
	{ NOTE_E4, 91 }, 
	{ NOTE_E4, 91 }, 
	{ NOTE_E4, 91 }, 
	{ NOTE_E4, 91 }, 
	{ NOTE_E4, 91 }, 
	{ NOTE_E4, 91 }, 
	{ NOTE_E4, 91 }, 
	{ NOTE_E4, 91 }, 
	{ NOTE_E4, 91 }, 
	{ NOTE_E4, 91 }, 
	{ NOTE_E4, 91 }, 
	{ NOTE_E4, 91 }, 
	{ NOTE_E4, 91 }, 
	{ NOTE_E4, 91 }, 
	{ NOTE_E4, 91 }, 
	{ NOTE_E4, 90 }, 
	{ NOTE_CS4, 91 }, 
	{ NOTE_CS4, 91 }, 
	{ NOTE_CS4, 91 }, 
	{ NOTE_CS4, 91 }, 
	{ NOTE_CS4, 91 }, 
	{ NOTE_CS4, 91 }, 
	{ NOTE_CS4, 91 }, 
	{ NOTE_CS4, 91 }, 
	{ NOTE_CS4, 91 }, 
	{ NOTE_CS4, 91 }, 
	{ NOTE_CS4, 91 }, 
	{ NOTE_CS4, 91 }, 
	{ NOTE_CS4, 91 }, 
	{ NOTE_CS4, 91 }, 
	{ NOTE_CS4, 91 }, 
	{ NOTE_CS4, 90 }, 
	{ NOTE_DS4, 242 }, 
	{ NOTE_DS4, 242 }, 
	{ NOTE_DS4, 242 }, 
	{ NOTE_DS4, 242 }, 
	{ NOTE_DS4, 242 }, 
	{ NOTE_DS4, 245 }, 
	{ NOTE_DS4, 364 }, 
	{ NOTE_REST, 1091 }, 
	{ NOTE_DS3, 91 }, 
	{ NOTE_DS3, 91 }, 
	{ NOTE_DS3, 91 }, 
	{ NOTE_DS3, 91 }, 
	{ NOTE_CS4, 182 }, 
	{ NOTE_B3, 182 }, 
	{ NOTE_DS3, 91 }, 
	{ NOTE_DS3, 91 }, 
	{ NOTE_DS3, 91 }, 
	{ NOTE_DS3, 91 }, 
	{ NOTE_DS4, 91 }, 
	{ NOTE_F4, 91 }, 
	{ NOTE_DS3, 91 }, 
	{ NOTE_DS3, 90 }, 
	{ NOTE_F4, 91 }, 
	{ NOTE_FS4, 91 }, 
	{ NOTE_DS3, 91 }, 
	{ NOTE_DS3, 91 }, 
	{ NOTE_DS3, 91 }, 
	{ NOTE_DS3, 91 }, 
	{ NOTE_GS4, 91 }, 
	{ NOTE_FS4, 91 }, 
	{ NOTE_DS3, 91 }, 
	{ NOTE_DS3, 91 }, 
	{ NOTE_DS3, 91 }, 
	{ NOTE_DS3, 91 }, 
	{ NOTE_DS4, 91 }, 
	{ NOTE_CS4, 91 }, 
	{ NOTE_AS3, 91 }, 
	{ NOTE_GS3, 90 }, 
	{ NOTE_DS3, 91 }, 
	{ NOTE_DS3, 91 }, 
	{ NOTE_DS3, 91 }, 
	{ NOTE_DS3, 91 }, 
	{ NOTE_CS4, 182 }, 
	{ NOTE_B3, 182 }, 
	{ NOTE_DS3, 91 }, 
	{ NOTE_DS3, 91 }, 
	{ NOTE_DS3, 91 }, 
	{ NOTE_DS3, 91 }, 
	{ NOTE_DS4, 91 }, 
	{ NOTE_F4, 91 }, 
	{ NOTE_DS3, 91 }, 
	{ NOTE_DS3, 90 }, 
	{ NOTE_F4, 91 }, 
	{ NOTE_FS4, 91 }, 
	{ NOTE_DS3, 91 }, 
	{ NOTE_DS3, 91 }, 
	{ NOTE_DS3, 91 }, 
	{ NOTE_DS3, 91 }, 
	{ NOTE_GS4, 91 }, 
	{ NOTE_FS4, 91 }, 
	{ NOTE_DS3, 91 }, 
	{ NOTE_DS3, 91 }, 
	{ NOTE_DS3, 91 }, 
	{ NOTE_DS3, 91 }, 
	{ NOTE_DS3, 182 }, 
	{ NOTE_REST, 181 }, 
	{ NOTE_DS3, 91 }, 
	{ NOTE_DS3, 91 }, 
	{ NOTE_DS3, 91 }, 
	{ NOTE_DS3, 91 }, 
	{ NOTE_CS4, 182 }, 
	{ NOTE_B3, 182 }, 
	{ NOTE_DS3, 91 }, 
	{ NOTE_DS3, 91 }, 
	{ NOTE_DS3, 91 }, 
	{ NOTE_DS3, 91 }, 
	{ NOTE_DS4, 91 }, 
	{ NOTE_F4, 91 }, 
	{ NOTE_DS3, 91 }, 
	{ NOTE_DS3, 90 }, 
	{ NOTE_F4, 91 }, 
	{ NOTE_FS4, 91 }, 
	{ NOTE_DS3, 91 }, 
	{ NOTE_DS3, 91 }, 
	{ NOTE_DS3, 91 }, 
	{ NOTE_DS3, 91 }, 
	{ NOTE_GS4, 91 }, 
	{ NOTE_FS4, 91 }, 
	{ NOTE_DS3, 91 }, 
	{ NOTE_DS3, 91 }, 
	{ NOTE_DS3, 91 }, 
	{ NOTE_DS3, 91 }, 
	{ NOTE_DS4, 91 }, 
	{ NOTE_CS4, 91 }, 
	{ NOTE_AS3, 91 }, 
	{ NOTE_GS3, 90 }, 
	{ NOTE_DS3, 91 }, 
	{ NOTE_DS3, 91 }, 
	{ NOTE_DS3, 91 }, 
	{ NOTE_DS3, 91 }, 
	{ NOTE_CS4, 182 }, 
	{ NOTE_B3, 182 }, 
	{ NOTE_DS3, 91 }, 
	{ NOTE_DS3, 91 }, 
	{ NOTE_DS3, 91 }, 
	{ NOTE_DS3, 91 }, 
	{ NOTE_DS4, 91 }, 
	{ NOTE_F4, 91 }, 
	{ NOTE_DS3, 91 }, 
	{ NOTE_DS3, 90 }, 
	{ NOTE_F4, 91 }, 
	{ NOTE_FS4, 91 }, 
	{ NOTE_DS3, 91 }, 
	{ NOTE_DS3, 91 }, 
	{ NOTE_FS3, 182 }, 
	{ NOTE_GS3, 182 }, 
	{ NOTE_AS3, 182 }, 
	{ NOTE_GS3, 182 }, 
	{ NOTE_CS4, 182 }, 
	{ NOTE_C4, 908 }, 
	{ NOTE_C4, 242 }, 
	{ NOTE_C4, 242 }, 
	{ NOTE_C4, 244 }, 
	{ NOTE_C4, 242 }, 
	{ NOTE_C4, 242 }, 
	{ NOTE_C4, 242 }, 
	{ NOTE_C4, 364 }, 
	{ NOTE_B3, 182 }, 
	{ NOTE_DS3, 365 }, 
	{ NOTE_DS3, 91 }, 
	{ NOTE_DS3, 91 }, 
	{ NOTE_CS4, 182 }, 
	{ NOTE_B3, 182 }, 
	{ NOTE_DS3, 91 }, 
	{ NOTE_DS3, 91 }, 
	{ NOTE_DS3, 91 }, 
	{ NOTE_DS3, 91 }, 
	{ NOTE_DS4, 91 }, 
	{ NOTE_F4, 91 }, 
	{ NOTE_DS3, 91 }, 
	{ NOTE_DS3, 90 }, 
	{ NOTE_F4, 91 }, 
	{ NOTE_FS4, 91 }, 
	{ NOTE_DS3, 91 }, 
	{ NOTE_DS3, 91 }, 
	{ NOTE_DS3, 91 }, 
	{ NOTE_DS3, 91 }, 
	{ NOTE_GS4, 91 }, 
	{ NOTE_FS4, 91 }, 
	{ NOTE_DS3, 91 }, 
	{ NOTE_DS3, 91 }, 
	{ NOTE_DS3, 91 }, 
	{ NOTE_DS3, 91 }, 
	{ NOTE_DS4, 91 }, 
	{ NOTE_CS4, 91 }, 
	{ NOTE_AS3, 91 }, 
	{ NOTE_GS3, 90 }, 
	{ NOTE_DS3, 91 }, 
	{ NOTE_DS3, 91 }, 
	{ NOTE_DS3, 91 }, 
	{ NOTE_DS3, 91 }, 
	{ NOTE_CS4, 182 }, 
	{ NOTE_B3, 182 }, 
	{ NOTE_DS3, 91 }, 
	{ NOTE_DS3, 91 }, 
	{ NOTE_DS3, 91 }, 
	{ NOTE_DS3, 91 }, 
	{ NOTE_DS4, 91 }, 
	{ NOTE_F4, 91 }, 
	{ NOTE_DS3, 91 }, 
	{ NOTE_DS3, 90 }, 
	{ NOTE_F4, 91 }, 
	{ NOTE_FS4, 91 }, 
	{ NOTE_DS3, 91 }, 
	{ NOTE_DS3, 91 }, 
	{ NOTE_FS3, 182 }, 
	{ NOTE_GS3, 182 }, 
	{ NOTE_AS3, 182 }, 
	{ NOTE_GS3, 182 }, 
	{ NOTE_CS4, 182 }, 
	{ NOTE_C4, 908 }, 
	{ NOTE_C4, 364 }, 
	{ NOTE_C4, 364 }, 
	{ NOTE_C4, 364 }, 
	{ NOTE_C4, 364 }, 
	{ NOTE_C4, 364 }, 
	{ NOTE_C4, 182 }, 
	{ NOTE_CS4, 181 }, 
	{ NOTE_CS4, 182 }, 
	{ NOTE_CS4, 182 }, 
	{ NOTE_CS4, 182 }, 
	{ NOTE_CS4, 182 }, 
	{ NOTE_CS4, 182 }, 
	{ NOTE_CS4, 182 }, 
	{ NOTE_CS4, 182 }, 
	{ NOTE_DS4, 545 }, 
	{ NOTE_DS4, 364 }, 
	{ NOTE_DS4, 364 }, 
	{ NOTE_DS4, 363 }, 
	{ NOTE_GS3, 182 }, 
	{ NOTE_REST, 1091 }, 
	{ NOTE_REST, 182 }, 
	{ NOTE_REST, 1455 }, 
	{ NOTE_CS4, 182 }, 
	{ NOTE_CS4, 91 }, 
	{ NOTE_CS4, 91 }, 
	{ NOTE_CS4, 91 }, 
	{ NOTE_CS4, 91 }, 
	{ NOTE_CS4, 182 }, 
	{ NOTE_CS5, 273 }, 
	{ NOTE_B4, 273 }, 
	{ NOTE_GS4, 91 }, 
	{ NOTE_FS4, 90 }, 
	{ NOTE_GS4, 364 }, 
	{ NOTE_GS3, 364 }, 
	{ NOTE_FS3, 182 }, 
	{ NOTE_REST, 182 }, 
	{ NOTE_FS3, 182 }, 
	{ NOTE_REST, 181 }, 
	{ NOTE_E3, 182 }, 
	{ NOTE_E3, 91 }, 
	{ NOTE_E3, 91 }, 
	{ NOTE_E3, 91 }, 
	{ NOTE_E3, 91 }, 
	{ NOTE_E3, 182 }, 
	{ NOTE_E3, 182 }, 
	{ NOTE_E3, 91 }, 
	{ NOTE_E3, 91 }, 
	{ NOTE_E3, 91 }, 
	{ NOTE_E3, 91 }, 
	{ NOTE_E3, 181 }, 
	{ NOTE_B3, 727 }, 
	{ NOTE_FS3, 182 }, 
	{ NOTE_REST, 182 }, 
	{ NOTE_FS3, 182 }, 
	{ NOTE_REST, 182 }, 
	{ NOTE_E4, 91 }, 
	{ NOTE_E4, 91 }, 
	{ NOTE_E4, 182 }, 
	{ NOTE_E4, 91 }, 
	{ NOTE_E4, 91 }, 
	{ NOTE_E4, 182 }, 
	{ NOTE_E4, 91 }, 
	{ NOTE_E4, 91 }, 
	{ NOTE_E4, 182 }, 
	{ NOTE_E4, 91 }, 
	{ NOTE_E4, 91 }, 
	{ NOTE_E4, 181 }, 
	{ NOTE_GS3, 727 }, 
	{ NOTE_FS3, 182 }, 
	{ NOTE_REST, 182 }, 
	{ NOTE_FS3, 182 }, 
	{ NOTE_REST, 182 }, 
	{ NOTE_E3, 182 }, 
	{ NOTE_E3, 91 }, 
	{ NOTE_E3, 91 }, 
	{ NOTE_E3, 91 }, 
	{ NOTE_E3, 91 }, 
	{ NOTE_E3, 182 }, 
	{ NOTE_E3, 182 }, 
	{ NOTE_E3, 91 }, 
	{ NOTE_E3, 91 }, 
	{ NOTE_E3, 91 }, 
	{ NOTE_E3, 91 }, 
	{ NOTE_E3, 181 }, 
	{ NOTE_FS3, 182 }, 
	{ NOTE_FS3, 182 }, 
	{ NOTE_FS3, 182 }, 
	{ NOTE_FS3, 182 }, 
	{ NOTE_FS3, 182 }, 
	{ NOTE_FS3, 182 }, 
	{ NOTE_FS3, 182 }, 
	{ NOTE_FS3, 181 }, 
	{ NOTE_B3, 91 }, 
	{ NOTE_B3, 91 }, 
	{ NOTE_B3, 91 }, 
	{ NOTE_B3, 91 }, 
	{ NOTE_B3, 91 }, 
	{ NOTE_B3, 91 }, 
	{ NOTE_B3, 91 }, 
	{ NOTE_B3, 91 }, 
	{ NOTE_B3, 91 }, 
	{ NOTE_B3, 91 }, 
	{ NOTE_B3, 91 }, 
	{ NOTE_B3, 91 }, 
	{ NOTE_B3, 91 }, 
	{ NOTE_B3, 91 }, 
	{ NOTE_B3, 91 }, 
	{ NOTE_B3, 90 }, 
	{ NOTE_FS3, 91 }, 
	{ NOTE_FS3, 91 }, 
	{ NOTE_FS3, 91 }, 
	{ NOTE_FS3, 91 }, 
	{ NOTE_FS3, 91 }, 
	{ NOTE_FS3, 91 }, 
	{ NOTE_FS3, 91 }, 
	{ NOTE_FS3, 91 }, 
	{ NOTE_FS3, 91 }, 
	{ NOTE_FS3, 91 }, 
	{ NOTE_FS3, 91 }, 
	{ NOTE_FS3, 91 }, 
	{ NOTE_FS3, 91 }, 
	{ NOTE_FS3, 91 }, 
	{ NOTE_FS3, 91 }, 
	{ NOTE_FS3, 90 }, 
	{ NOTE_GS3, 91 }, 
	{ NOTE_GS3, 91 }, 
	{ NOTE_GS3, 91 }, 
	{ NOTE_GS3, 91 }, 
	{ NOTE_GS3, 91 }, 
	{ NOTE_GS3, 91 }, 
	{ NOTE_GS3, 91 }, 
	{ NOTE_GS3, 91 }, 
	{ NOTE_GS3, 91 }, 
	{ NOTE_GS3, 91 }, 
	{ NOTE_GS3, 91 }, 
	{ NOTE_GS3, 91 }, 
	{ NOTE_GS3, 91 }, 
	{ NOTE_GS3, 91 }, 
	{ NOTE_GS3, 91 }, 
	{ NOTE_GS3, 90 }, 
	{ NOTE_DS4, 91 }, 
	{ NOTE_DS4, 91 }, 
	{ NOTE_DS4, 91 }, 
	{ NOTE_DS4, 91 }, 
	{ NOTE_DS4, 91 }, 
	{ NOTE_DS4, 91 }, 
	{ NOTE_DS4, 91 }, 
	{ NOTE_DS4, 91 }, 
	{ NOTE_DS4, 91 }, 
	{ NOTE_DS4, 91 }, 
	{ NOTE_DS4, 91 }, 
	{ NOTE_DS4, 91 }, 
	{ NOTE_DS4, 91 }, 
	{ NOTE_DS4, 91 }, 
	{ NOTE_DS4, 91 }, 
	{ NOTE_DS4, 90 }, 
	{ NOTE_E4, 91 }, 
	{ NOTE_E4, 91 }, 
	{ NOTE_E4, 91 }, 
	{ NOTE_E4, 91 }, 
	{ NOTE_E4, 91 }, 
	{ NOTE_E4, 91 }, 
	{ NOTE_E4, 91 }, 
	{ NOTE_E4, 91 }, 
	{ NOTE_E4, 91 }, 
	{ NOTE_E4, 91 }, 
	{ NOTE_E4, 91 }, 
	{ NOTE_E4, 91 }, 
	{ NOTE_E4, 91 }, 
	{ NOTE_E4, 91 }, 
	{ NOTE_E4, 91 }, 
	{ NOTE_E4, 90 }, 
	{ NOTE_B3, 91 }, 
	{ NOTE_B3, 91 }, 
	{ NOTE_B3, 91 }, 
	{ NOTE_B3, 91 }, 
	{ NOTE_B3, 91 }, 
	{ NOTE_B3, 91 }, 
	{ NOTE_B3, 91 }, 
	{ NOTE_B3, 91 }, 
	{ NOTE_B3, 91 }, 
	{ NOTE_B3, 91 }, 
	{ NOTE_B3, 91 }, 
	{ NOTE_B3, 91 }, 
	{ NOTE_B3, 91 }, 
	{ NOTE_B3, 91 }, 
	{ NOTE_B3, 91 }, 
	{ NOTE_B3, 90 }, 
	{ NOTE_FS4, 91 }, 
	{ NOTE_FS4, 91 }, 
	{ NOTE_FS4, 91 }, 
	{ NOTE_FS4, 91 }, 
	{ NOTE_FS4, 91 }, 
	{ NOTE_FS4, 91 }, 
	{ NOTE_FS4, 91 }, 
	{ NOTE_FS4, 91 }, 
	{ NOTE_FS4, 91 }, 
	{ NOTE_FS4, 91 }, 
	{ NOTE_FS4, 91 }, 
	{ NOTE_FS4, 91 }, 
	{ NOTE_FS4, 91 }, 
	{ NOTE_FS4, 91 }, 
	{ NOTE_FS4, 91 }, 
	{ NOTE_FS4, 90 }, 
	{ NOTE_FS4, 91 }, 
	{ NOTE_FS4, 91 }, 
	{ NOTE_FS4, 91 }, 
	{ NOTE_FS4, 91 }, 
	{ NOTE_FS4, 91 }, 
	{ NOTE_FS4, 91 }, 
	{ NOTE_FS4, 91 }, 
	{ NOTE_FS4, 91 }, 
	{ NOTE_FS4, 91 }, 
	{ NOTE_FS4, 91 }, 
	{ NOTE_FS4, 91 }, 
	{ NOTE_FS4, 91 }, 
	{ NOTE_FS4, 91 }, 
	{ NOTE_FS4, 91 }, 
	{ NOTE_FS4, 91 }, 
	{ NOTE_FS4, 90 }, 
	{ NOTE_B4, 91 }, 
	{ NOTE_B4, 91 }, 
	{ NOTE_B4, 91 }, 
	{ NOTE_B4, 91 }, 
	{ NOTE_B4, 91 }, 
	{ NOTE_B4, 91 }, 
	{ NOTE_B4, 91 }, 
	{ NOTE_B4, 91 }, 
	{ NOTE_B4, 91 }, 
	{ NOTE_B4, 91 }, 
	{ NOTE_B4, 91 }, 
	{ NOTE_B4, 91 }, 
	{ NOTE_B4, 91 }, 
	{ NOTE_B4, 91 }, 
	{ NOTE_B4, 91 }, 
	{ NOTE_B4, 90 }, 
	{ NOTE_AS4, 91 }, 
	{ NOTE_AS4, 91 }, 
	{ NOTE_AS4, 91 }, 
	{ NOTE_AS4, 91 }, 
	{ NOTE_AS4, 91 }, 
	{ NOTE_AS4, 91 }, 
	{ NOTE_AS4, 91 }, 
	{ NOTE_AS4, 91 }, 
	{ NOTE_FS4, 91 }, 
	{ NOTE_FS4, 91 }, 
	{ NOTE_FS4, 91 }, 
	{ NOTE_FS4, 91 }, 
	{ NOTE_FS4, 91 }, 
	{ NOTE_FS4, 91 }, 
	{ NOTE_FS4, 91 }, 
	{ NOTE_FS4, 90 }, 
	{ NOTE_GS4, 91 }, 
	{ NOTE_GS4, 91 }, 
	{ NOTE_GS4, 91 }, 
	{ NOTE_GS4, 91 }, 
	{ NOTE_GS4, 91 }, 
	{ NOTE_GS4, 91 }, 
	{ NOTE_GS4, 91 }, 
	{ NOTE_GS4, 91 }, 
	{ NOTE_AS4, 91 }, 
	{ NOTE_AS4, 91 }, 
	{ NOTE_AS4, 91 }, 
	{ NOTE_AS4, 91 }, 
	{ NOTE_GS4, 91 }, 
	{ NOTE_GS4, 91 }, 
	{ NOTE_GS4, 91 }, 
	{ NOTE_GS4, 90 }, 
	{ NOTE_FS4, 91 }, 
	{ NOTE_FS4, 91 }, 
	{ NOTE_FS4, 91 }, 
	{ NOTE_FS4, 91 }, 
	{ NOTE_FS4, 91 }, 
	{ NOTE_FS4, 91 }, 
	{ NOTE_FS4, 91 }, 
	{ NOTE_FS4, 91 }, 
	{ NOTE_DS4, 91 }, 
	{ NOTE_DS4, 91 }, 
	{ NOTE_DS4, 91 }, 
	{ NOTE_DS4, 91 }, 
	{ NOTE_DS4, 91 }, 
	{ NOTE_DS4, 91 }, 
	{ NOTE_DS4, 91 }, 
	{ NOTE_DS4, 90 }, 
	{ NOTE_E4, 91 }, 
	{ NOTE_E4, 91 }, 
	{ NOTE_E4, 91 }, 
	{ NOTE_E4, 91 }, 
	{ NOTE_E4, 91 }, 
	{ NOTE_E4, 91 }, 
	{ NOTE_E4, 91 }, 
	{ NOTE_E4, 91 }, 
	{ NOTE_E4, 91 }, 
	{ NOTE_E4, 91 }, 
	{ NOTE_E4, 91 }, 
	{ NOTE_E4, 91 }, 
	{ NOTE_E4, 91 }, 
	{ NOTE_E4, 91 }, 
	{ NOTE_E4, 91 }, 
	{ NOTE_E4, 90 }, 
	{ NOTE_FS4, 364 }, 
	{ NOTE_REST, 1091 }, 
	{ NOTE_CS4, 182 }, 
	{ NOTE_CS4, 182 }, 
	{ NOTE_CS4, 182 }, 
	{ NOTE_CS4, 182 }, 
	{ NOTE_CS4, 182 }, 
	{ NOTE_CS4, 182 }, 
	{ NOTE_CS4, 182 }, 
	{ NOTE_CS4, 181 }, 
	{ NOTE_GS3, 182 }, 
	{ NOTE_GS3, 182 }, 
	{ NOTE_GS3, 182 }, 
	{ NOTE_GS3, 182 }, 
	{ NOTE_GS3, 182 }, 
	{ NOTE_GS3, 182 }, 
	{ NOTE_GS3, 182 }, 
	{ NOTE_GS3, 181 }, 
	{ NOTE_AS3, 182 }, 
	{ NOTE_AS3, 182 }, 
	{ NOTE_AS3, 182 }, 
	{ NOTE_AS3, 182 }, 
	{ NOTE_AS3, 182 }, 
	{ NOTE_AS3, 182 }, 
	{ NOTE_AS3, 182 }, 
	{ NOTE_AS3, 181 }, 
	{ NOTE_F3, 182 }, 
	{ NOTE_F3, 182 }, 
	{ NOTE_F3, 182 }, 
	{ NOTE_F3, 182 }, 
	{ NOTE_F3, 182 }, 
	{ NOTE_F3, 182 }, 
	{ NOTE_F3, 182 }, 
	{ NOTE_F3, 181 }, 
	{ NOTE_FS3, 182 }, 
	{ NOTE_FS3, 182 }, 
	{ NOTE_FS3, 182 }, 
	{ NOTE_FS3, 182 }, 
	{ NOTE_FS3, 182 }, 
	{ NOTE_FS3, 182 }, 
	{ NOTE_FS3, 182 }, 
	{ NOTE_FS3, 181 }, 
	{ NOTE_CS4, 182 }, 
	{ NOTE_CS4, 182 }, 
	{ NOTE_CS4, 182 }, 
	{ NOTE_CS4, 182 }, 
	{ NOTE_CS4, 182 }, 
	{ NOTE_CS4, 182 }, 
	{ NOTE_CS4, 182 }, 
	{ NOTE_CS4, 181 }, 
	{ NOTE_GS3, 182 }, 
	{ NOTE_GS3, 182 }, 
	{ NOTE_GS3, 182 }, 
	{ NOTE_GS3, 182 }, 
	{ NOTE_GS3, 182 }, 
	{ NOTE_GS3, 182 }, 
	{ NOTE_GS3, 182 }, 
	{ NOTE_GS3, 181 }, 
	{ NOTE_GS3, 182 }, 
	{ NOTE_GS3, 182 }, 
	{ NOTE_GS3, 182 }, 
	{ NOTE_GS3, 182 }, 
	{ NOTE_GS3, 182 }, 
	{ NOTE_GS3, 182 }, 
	{ NOTE_GS3, 182 }, 
	{ NOTE_GS3, 181 }, 
	{ NOTE_CS4, 182 }, 
	{ NOTE_CS4, 182 }, 
	{ NOTE_CS4, 182 }, 
	{ NOTE_CS4, 182 }, 
	{ NOTE_CS4, 182 }, 
	{ NOTE_CS4, 182 }, 
	{ NOTE_CS4, 182 }, 
	{ NOTE_CS4, 181 }, 
	{ NOTE_C4, 182 }, 
	{ NOTE_C4, 182 }, 
	{ NOTE_C4, 182 }, 
	{ NOTE_C4, 182 }, 
	{ NOTE_GS3, 182 }, 
	{ NOTE_GS3, 182 }, 
	{ NOTE_GS3, 182 }, 
	{ NOTE_GS3, 181 }, 
	{ NOTE_AS3, 182 }, 
	{ NOTE_AS3, 182 }, 
	{ NOTE_AS3, 182 }, 
	{ NOTE_AS3, 182 }, 
	{ NOTE_C4, 182 }, 
	{ NOTE_C4, 182 }, 
	{ NOTE_CS4, 182 }, 
	{ NOTE_CS4, 181 }, 
	{ NOTE_GS3, 182 }, 
	{ NOTE_GS3, 182 }, 
	{ NOTE_GS3, 182 }, 
	{ NOTE_GS3, 182 }, 
	{ NOTE_F3, 182 }, 
	{ NOTE_F3, 182 }, 
	{ NOTE_F3, 182 }, 
	{ NOTE_F3, 181 }, 
	{ NOTE_FS3, 182 }, 
	{ NOTE_FS3, 182 }, 
	{ NOTE_FS3, 182 }, 
	{ NOTE_FS3, 182 }, 
	{ NOTE_FS3, 182 }, 
	{ NOTE_FS3, 182 }, 
	{ NOTE_FS3, 182 }, 
	{ NOTE_FS3, 181 }, 
	{ NOTE_GS3, 182 }, 
	{ NOTE_GS3, 182 }, 
	{ NOTE_GS3, 182 }, 
	{ NOTE_GS3, 182 }, 
	{ NOTE_GS3, 182 }, 
	{ NOTE_GS3, 182 }, 
	{ NOTE_GS3, 182 }, 
	{ NOTE_GS3, 181 }, 
	{ NOTE_CS4, 182 }, 
	{ NOTE_CS4, 182 }, 
	{ NOTE_CS4, 182 }, 
	{ NOTE_CS4, 182 }, 
	{ NOTE_CS4, 182 }, 
	{ NOTE_CS4, 182 }, 
	{ NOTE_CS4, 182 }, 
	{ NOTE_CS4, 181 }, 
	{ NOTE_C4, 182 }, 
	{ NOTE_C4, 182 }, 
	{ NOTE_C4, 182 }, 
	{ NOTE_C4, 182 }, 
	{ NOTE_GS3, 182 }, 
	{ NOTE_GS3, 182 }, 
	{ NOTE_GS3, 182 }, 
	{ NOTE_GS3, 181 }, 
	{ NOTE_AS3, 182 }, 
	{ NOTE_AS3, 182 }, 
	{ NOTE_AS3, 182 }, 
	{ NOTE_AS3, 182 }, 
	{ NOTE_C4, 182 }, 
	{ NOTE_C4, 182 }, 
	{ NOTE_CS4, 182 }, 
	{ NOTE_CS4, 181 }, 
	{ NOTE_GS3, 182 }, 
	{ NOTE_GS3, 182 }, 
	{ NOTE_GS3, 182 }, 
	{ NOTE_GS3, 182 }, 
	{ NOTE_F3, 182 }, 
	{ NOTE_F3, 182 }, 
	{ NOTE_F3, 182 }, 
	{ NOTE_F3, 181 }, 
	{ NOTE_FS3, 182 }, 
	{ NOTE_FS3, 182 }, 
	{ NOTE_FS3, 182 }, 
	{ NOTE_FS3, 182 }, 
	{ NOTE_FS3, 182 }, 
	{ NOTE_FS3, 182 }, 
	{ NOTE_FS3, 182 }, 
	{ NOTE_FS3, 181 }, 
	{ NOTE_GS3, 182 }, 
	{ NOTE_GS3, 182 }, 
	{ NOTE_GS3, 182 }, 
	{ NOTE_GS3, 182 }, 
	{ NOTE_GS3, 182 }, 
	{ NOTE_GS3, 182 }, 
	{ NOTE_GS3, 182 }, 
	{ NOTE_GS3, 181 }, 
	{ NOTE_AS3, 91 }, 
	{ NOTE_AS3, 91 }, 
	{ NOTE_AS3, 91 }, 
	{ NOTE_AS3, 91 }, 
	{ NOTE_AS3, 91 }, 
	{ NOTE_AS3, 91 }, 
	{ NOTE_AS3, 91 }, 
	{ NOTE_AS3, 91 }, 
	{ NOTE_AS3, 91 }, 
	{ NOTE_AS3, 91 }, 
	{ NOTE_AS3, 91 }, 
	{ NOTE_AS3, 91 }, 
	{ NOTE_AS3, 91 }, 
	{ NOTE_AS3, 91 }, 
	{ NOTE_AS3, 91 }, 
	{ NOTE_AS3, 90 }, 
	{ NOTE_AS3, 91 }, 
	{ NOTE_AS3, 91 }, 
	{ NOTE_AS3, 91 }, 
	{ NOTE_AS3, 91 }, 
	{ NOTE_AS3, 91 }, 
	{ NOTE_AS3, 91 }, 
	{ NOTE_AS3, 91 }, 
	{ NOTE_AS3, 91 }, 
	{ NOTE_AS3, 364 }, 
	{ NOTE_GS3, 363 }, 
	{ NOTE_FS3, 182 }, 
	{ NOTE_FS3, 182 }, 
	{ NOTE_FS3, 182 }, 
	{ NOTE_CS4, 182 }, 
	{ NOTE_CS4, 182 }, 
	{ NOTE_FS3, 182 }, 
	{ NOTE_FS3, 182 }, 
	{ NOTE_FS3, 181 }, 
	{ NOTE_GS3, 182 }, 
	{ NOTE_GS3, 182 }, 
	{ NOTE_GS3, 182 }, 
	{ NOTE_GS3, 182 }, 
	{ NOTE_GS3, 182 }, 
	{ NOTE_GS3, 182 }, 
	{ NOTE_GS3, 182 }, 
	{ NOTE_GS3, 181 }, 
	{ NOTE_AS3, 91 }, 
	{ NOTE_AS3, 91 }, 
	{ NOTE_AS3, 91 }, 
	{ NOTE_AS3, 91 }, 
	{ NOTE_AS3, 91 }, 
	{ NOTE_AS3, 91 }, 
	{ NOTE_AS3, 91 }, 
	{ NOTE_AS3, 91 }, 
	{ NOTE_AS3, 91 }, 
	{ NOTE_AS3, 91 }, 
	{ NOTE_AS3, 91 }, 
	{ NOTE_AS3, 91 }, 
	{ NOTE_AS3, 91 }, 
	{ NOTE_AS3, 91 }, 
	{ NOTE_AS3, 91 }, 
	{ NOTE_AS3, 90 }, 
	{ NOTE_AS3, 91 }, 
	{ NOTE_AS3, 91 }, 
	{ NOTE_AS3, 91 }, 
	{ NOTE_AS3, 91 }, 
	{ NOTE_AS3, 91 }, 
	{ NOTE_AS3, 91 }, 
	{ NOTE_AS3, 91 }, 
	{ NOTE_AS3, 91 }, 
	{ NOTE_AS3, 364 }, 
	{ NOTE_GS3, 363 }, 
	{ NOTE_FS3, 182 }, 
	{ NOTE_FS3, 182 }, 
	{ NOTE_FS3, 182 }, 
	{ NOTE_FS3, 182 }, 
	{ NOTE_FS3, 182 }, 
	{ NOTE_FS3, 182 }, 
	{ NOTE_FS3, 182 }, 
	{ NOTE_FS3, 181 }, 
	{ NOTE_GS3, 364 }, 
	{ NOTE_REST, 727 }, 
	{ NOTE_REST, 364 }, 
};
const uint16_t NUM_OF_NOTES4 = sizeof(melody4)/sizeof(melody4[0]);

