/*
 * Song: Moonlight Sonata (3rd Movement) by Beethoven
 *
 *	Melody 0 | Piano Right Hand
 *	Melody 1 | Piano Right Hand
 *	Melody 2 | Piano Right Hand
 *	Melody 3 | Piano Left Hand
 *	Melody 4 | Piano Left Hand
*/

#include <Arduino.h>
#include "notes.h"

const Note melody0[] PROGMEM = {
	{ NOTE_REST, 88 }, 
	{ NOTE_GS2, 88 }, 
	{ NOTE_CS3, 88 }, 
	{ NOTE_E3, 88 }, 
	{ NOTE_GS3, 88 }, 
	{ NOTE_CS3, 88 }, 
	{ NOTE_E3, 88 }, 
	{ NOTE_GS3, 88 }, 
	{ NOTE_CS4, 88 }, 
	{ NOTE_E3, 88 }, 
	{ NOTE_GS3, 88 }, 
	{ NOTE_CS4, 88 }, 
	{ NOTE_E4, 88 }, 
	{ NOTE_E3, 88 }, 
	{ NOTE_CS4, 88 }, 
	{ NOTE_E4, 92 }, 
	{ NOTE_GS4, 88 }, 
	{ NOTE_CS4, 88 }, 
	{ NOTE_E4, 88 }, 
	{ NOTE_GS4, 88 }, 
	{ NOTE_CS5, 88 }, 
	{ NOTE_E4, 88 }, 
	{ NOTE_GS4, 88 }, 
	{ NOTE_CS5, 88 }, 
	{ NOTE_E5, 88 }, 
	{ NOTE_GS4, 88 }, 
	{ NOTE_CS5, 88 }, 
	{ NOTE_E5, 88 }, 
	{ NOTE_GS4, 176 }, 
	{ NOTE_GS4, 180 }, 
	{ NOTE_REST, 88 }, 
	{ NOTE_GS2, 88 }, 
	{ NOTE_C3, 88 }, 
	{ NOTE_DS3, 88 }, 
	{ NOTE_GS3, 88 }, 
	{ NOTE_C3, 88 }, 
	{ NOTE_DS3, 88 }, 
	{ NOTE_GS3, 88 }, 
	{ NOTE_C4, 88 }, 
	{ NOTE_DS3, 88 }, 
	{ NOTE_GS3, 88 }, 
	{ NOTE_C4, 88 }, 
	{ NOTE_DS4, 88 }, 
	{ NOTE_GS3, 88 }, 
	{ NOTE_C4, 88 }, 
	{ NOTE_DS4, 92 }, 
	{ NOTE_GS4, 88 }, 
	{ NOTE_C4, 88 }, 
	{ NOTE_DS4, 88 }, 
	{ NOTE_GS4, 88 }, 
	{ NOTE_C5, 88 }, 
	{ NOTE_DS4, 88 }, 
	{ NOTE_GS4, 88 }, 
	{ NOTE_C5, 88 }, 
	{ NOTE_DS5, 88 }, 
	{ NOTE_GS4, 88 }, 
	{ NOTE_C5, 88 }, 
	{ NOTE_DS5, 88 }, 
	{ NOTE_GS4, 176 }, 
	{ NOTE_GS4, 180 }, 
	{ NOTE_REST, 88 }, 
	{ NOTE_CS3, 88 }, 
	{ NOTE_F3, 88 }, 
	{ NOTE_GS3, 88 }, 
	{ NOTE_CS4, 88 }, 
	{ NOTE_F3, 88 }, 
	{ NOTE_GS3, 88 }, 
	{ NOTE_CS4, 88 }, 
	{ NOTE_F4, 88 }, 
	{ NOTE_GS3, 88 }, 
	{ NOTE_CS4, 88 }, 
	{ NOTE_F4, 88 }, 
	{ NOTE_GS4, 88 }, 
	{ NOTE_CS4, 88 }, 
	{ NOTE_F4, 88 }, 
	{ NOTE_GS4, 92 }, 
	{ NOTE_CS5, 88 }, 
	{ NOTE_F4, 88 }, 
	{ NOTE_GS4, 88 }, 
	{ NOTE_CS5, 88 }, 
	{ NOTE_F5, 88 }, 
	{ NOTE_GS4, 88 }, 
	{ NOTE_CS5, 88 }, 
	{ NOTE_F5, 88 }, 
	{ NOTE_GS5, 88 }, 
	{ NOTE_CS5, 88 }, 
	{ NOTE_F5, 88 }, 
	{ NOTE_GS5, 88 }, 
	{ NOTE_CS5, 176 }, 
	{ NOTE_CS5, 180 }, 
	{ NOTE_REST, 88 }, 
	{ NOTE_CS3, 88 }, 
	{ NOTE_FS3, 88 }, 
	{ NOTE_A3, 88 }, 
	{ NOTE_CS4, 88 }, 
	{ NOTE_CS4, 88 }, 
	{ NOTE_FS4, 88 }, 
	{ NOTE_A4, 88 }, 
	{ NOTE_CS5, 88 }, 
	{ NOTE_CS5, 88 }, 
	{ NOTE_FS5, 88 }, 
	{ NOTE_A5, 88 }, 
	{ NOTE_CS5, 176 }, 
	{ NOTE_CS5, 180 }, 
	{ NOTE_REST, 88 }, 
	{ NOTE_CS3, 88 }, 
	{ NOTE_E3, 88 }, 
	{ NOTE_G3, 88 }, 
	{ NOTE_CS4, 88 }, 
	{ NOTE_CS4, 88 }, 
	{ NOTE_E4, 88 }, 
	{ NOTE_G4, 88 }, 
	{ NOTE_CS5, 88 }, 
	{ NOTE_CS5, 88 }, 
	{ NOTE_E5, 88 }, 
	{ NOTE_G5, 88 }, 
	{ NOTE_CS5, 176 }, 
	{ NOTE_CS5, 180 }, 
	{ NOTE_C5, 176 }, 
	{ NOTE_GS4, 88 }, 
	{ NOTE_GS5, 88 }, 
	{ NOTE_GS4, 88 }, 
	{ NOTE_GS5, 88 }, 
	{ NOTE_AS4, 88 }, 
	{ NOTE_GS5, 88 }, 
	{ NOTE_C5, 88 }, 
	{ NOTE_GS5, 88 }, 
	{ NOTE_CS5, 88 }, 
	{ NOTE_GS5, 88 }, 
	{ NOTE_DS5, 88 }, 
	{ NOTE_GS5, 88 }, 
	{ NOTE_C5, 88 }, 
	{ NOTE_GS5, 92 }, 
	{ NOTE_DS5, 88 }, 
	{ NOTE_GS5, 88 }, 
	{ NOTE_CS5, 88 }, 
	{ NOTE_GS5, 88 }, 
	{ NOTE_FS5, 88 }, 
	{ NOTE_GS5, 88 }, 
	{ NOTE_E5, 88 }, 
	{ NOTE_GS5, 88 }, 
	{ NOTE_DS5, 88 }, 
	{ NOTE_GS5, 88 }, 
	{ NOTE_CS5, 88 }, 
	{ NOTE_GS5, 88 }, 
	{ NOTE_C5, 88 }, 
	{ NOTE_GS5, 88 }, 
	{ NOTE_A4, 88 }, 
	{ NOTE_G5, 92 }, 
	{ NOTE_GS4, 88 }, 
	{ NOTE_GS5, 88 }, 
	{ NOTE_GS4, 88 }, 
	{ NOTE_GS5, 88 }, 
	{ NOTE_GS4, 88 }, 
	{ NOTE_GS5, 88 }, 
	{ NOTE_AS4, 88 }, 
	{ NOTE_GS5, 88 }, 
	{ NOTE_C5, 88 }, 
	{ NOTE_GS5, 88 }, 
	{ NOTE_CS5, 88 }, 
	{ NOTE_GS5, 88 }, 
	{ NOTE_DS5, 88 }, 
	{ NOTE_GS5, 88 }, 
	{ NOTE_C5, 88 }, 
	{ NOTE_GS5, 92 }, 
	{ NOTE_DS5, 88 }, 
	{ NOTE_GS5, 88 }, 
	{ NOTE_CS5, 88 }, 
	{ NOTE_GS5, 88 }, 
	{ NOTE_FS5, 88 }, 
	{ NOTE_GS5, 88 }, 
	{ NOTE_E5, 88 }, 
	{ NOTE_GS5, 88 }, 
	{ NOTE_DS5, 88 }, 
	{ NOTE_GS5, 88 }, 
	{ NOTE_CS5, 88 }, 
	{ NOTE_GS5, 88 }, 
	{ NOTE_C5, 88 }, 
	{ NOTE_GS5, 88 }, 
	{ NOTE_A4, 88 }, 
	{ NOTE_G5, 92 }, 
	{ NOTE_GS4, 88 }, 
	{ NOTE_GS5, 88 }, 
	{ NOTE_A4, 88 }, 
	{ NOTE_G5, 88 }, 
	{ NOTE_GS4, 88 }, 
	{ NOTE_GS5, 88 }, 
	{ NOTE_A4, 88 }, 
	{ NOTE_G5, 88 }, 
	{ NOTE_GS4, 88 }, 
	{ NOTE_GS5, 88 }, 
	{ NOTE_A4, 88 }, 
	{ NOTE_G5, 88 }, 
	{ NOTE_GS4, 88 }, 
	{ NOTE_GS5, 88 }, 
	{ NOTE_A4, 88 }, 
	{ NOTE_G5, 92 }, 
	{ NOTE_GS4, 353 }, 
	{ NOTE_GS3, 1059 }, 
	{ NOTE_REST, 88 }, 
	{ NOTE_GS2, 88 }, 
	{ NOTE_CS3, 88 }, 
	{ NOTE_E3, 88 }, 
	{ NOTE_GS3, 88 }, 
	{ NOTE_CS3, 88 }, 
	{ NOTE_E3, 88 }, 
	{ NOTE_GS3, 88 }, 
	{ NOTE_CS4, 88 }, 
	{ NOTE_E3, 88 }, 
	{ NOTE_GS3, 88 }, 
	{ NOTE_CS4, 88 }, 
	{ NOTE_E4, 88 }, 
	{ NOTE_E3, 88 }, 
	{ NOTE_CS4, 88 }, 
	{ NOTE_E4, 92 }, 
	{ NOTE_GS4, 88 }, 
	{ NOTE_CS4, 88 }, 
	{ NOTE_E4, 88 }, 
	{ NOTE_GS4, 88 }, 
	{ NOTE_CS5, 88 }, 
	{ NOTE_E4, 88 }, 
	{ NOTE_GS4, 88 }, 
	{ NOTE_CS5, 88 }, 
	{ NOTE_E5, 88 }, 
	{ NOTE_E5, 88 }, 
	{ NOTE_GS5, 88 }, 
	{ NOTE_CS6, 88 }, 
	{ NOTE_E5, 176 }, 
	{ NOTE_E5, 180 }, 
	{ NOTE_REST, 88 }, 
	{ NOTE_E3, 88 }, 
	{ NOTE_G3, 88 }, 
	{ NOTE_CS4, 88 }, 
	{ NOTE_E4, 88 }, 
	{ NOTE_G3, 88 }, 
	{ NOTE_CS4, 88 }, 
	{ NOTE_E4, 88 }, 
	{ NOTE_G4, 88 }, 
	{ NOTE_CS4, 88 }, 
	{ NOTE_E4, 88 }, 
	{ NOTE_G4, 88 }, 
	{ NOTE_CS5, 88 }, 
	{ NOTE_E4, 88 }, 
	{ NOTE_G4, 88 }, 
	{ NOTE_CS5, 92 }, 
	{ NOTE_E5, 88 }, 
	{ NOTE_G4, 88 }, 
	{ NOTE_CS5, 88 }, 
	{ NOTE_E5, 88 }, 
	{ NOTE_G5, 88 }, 
	{ NOTE_CS5, 88 }, 
	{ NOTE_E5, 88 }, 
	{ NOTE_G5, 88 }, 
	{ NOTE_CS6, 88 }, 
	{ NOTE_E5, 88 }, 
	{ NOTE_G5, 88 }, 
	{ NOTE_CS6, 88 }, 
	{ NOTE_E5, 176 }, 
	{ NOTE_E5, 180 }, 
	{ NOTE_REST, 88 }, 
	{ NOTE_DS3, 88 }, 
	{ NOTE_AS3, 88 }, 
	{ NOTE_CS4, 88 }, 
	{ NOTE_DS4, 88 }, 
	{ NOTE_AS3, 88 }, 
	{ NOTE_CS4, 88 }, 
	{ NOTE_DS4, 88 }, 
	{ NOTE_AS4, 88 }, 
	{ NOTE_CS4, 88 }, 
	{ NOTE_DS4, 88 }, 
	{ NOTE_AS4, 88 }, 
	{ NOTE_CS5, 88 }, 
	{ NOTE_DS4, 88 }, 
	{ NOTE_AS4, 88 }, 
	{ NOTE_CS5, 92 }, 
	{ NOTE_DS5, 88 }, 
	{ NOTE_AS4, 88 }, 
	{ NOTE_CS5, 88 }, 
	{ NOTE_DS5, 88 }, 
	{ NOTE_AS5, 88 }, 
	{ NOTE_CS5, 88 }, 
	{ NOTE_DS5, 88 }, 
	{ NOTE_AS5, 88 }, 
	{ NOTE_CS6, 88 }, 
	{ NOTE_AS5, 88 }, 
	{ NOTE_DS5, 88 }, 
	{ NOTE_CS5, 88 }, 
	{ NOTE_AS5, 88 }, 
	{ NOTE_DS5, 88 }, 
	{ NOTE_CS5, 88 }, 
	{ NOTE_AS4, 92 }, 
	{ NOTE_B4, 353 }, 
	{ NOTE_DS5, 706 }, 
	{ NOTE_B4, 265 }, 
	{ NOTE_GS4, 88 }, 
	{ NOTE_G4, 59 }, 
	{ NOTE_GS4, 59 }, 
	{ NOTE_AS4, 59 }, 
	{ NOTE_GS4, 176 }, 
	{ NOTE_G4, 529 }, 
	{ NOTE_G4, 176 }, 
	{ NOTE_DS5, 265 }, 
	{ NOTE_G4, 89 }, 
	{ NOTE_AS4, 353 }, 
	{ NOTE_GS4, 529 }, 
	{ NOTE_GS4, 176 }, 
	{ NOTE_DS5, 265 }, 
	{ NOTE_GS4, 89 }, 
	{ NOTE_B4, 353 }, 
	{ NOTE_AS4, 529 }, 
	{ NOTE_AS4, 176 }, 
	{ NOTE_DS5, 265 }, 
	{ NOTE_AS4, 89 }, 
	{ NOTE_B4, 176 }, 
	{ NOTE_DS5, 353 }, 
	{ NOTE_DS5, 353 }, 
	{ NOTE_DS5, 176 }, 
	{ NOTE_B4, 176 }, 
	{ NOTE_GS4, 178 }, 
	{ NOTE_GS4, 176 }, 
	{ NOTE_G4, 353 }, 
	{ NOTE_G4, 353 }, 
	{ NOTE_G4, 176 }, 
	{ NOTE_DS5, 176 }, 
	{ NOTE_G4, 178 }, 
	{ NOTE_AS4, 176 }, 
	{ NOTE_GS4, 353 }, 
	{ NOTE_GS4, 353 }, 
	{ NOTE_GS4, 176 }, 
	{ NOTE_DS5, 176 }, 
	{ NOTE_GS4, 178 }, 
	{ NOTE_B4, 176 }, 
	{ NOTE_AS4, 353 }, 
	{ NOTE_AS4, 353 }, 
	{ NOTE_AS4, 176 }, 
	{ NOTE_DS5, 176 }, 
	{ NOTE_AS4, 178 }, 
	{ NOTE_C5, 706 }, 
	{ NOTE_CS5, 706 }, 
	{ NOTE_AS4, 88 }, 
	{ NOTE_GS5, 88 }, 
	{ NOTE_AS5, 88 }, 
	{ NOTE_GS5, 88 }, 
	{ NOTE_B4, 1060 }, 
	{ NOTE_GS4, 706 }, 
	{ NOTE_A4, 706 }, 
	{ NOTE_G4, 88 }, 
	{ NOTE_F5, 88 }, 
	{ NOTE_G5, 88 }, 
	{ NOTE_F5, 88 }, 
	{ NOTE_GS4, 1060 }, 
	{ NOTE_A4, 794 }, 
	{ NOTE_E5, 88 }, 
	{ NOTE_FS5, 88 }, 
	{ NOTE_GS5, 88 }, 
	{ NOTE_A5, 88 }, 
	{ NOTE_B5, 88 }, 
	{ NOTE_CS6, 88 }, 
	{ NOTE_B5, 90 }, 
	{ NOTE_A5, 88 }, 
	{ NOTE_E5, 88 }, 
	{ NOTE_FS5, 88 }, 
	{ NOTE_GS5, 88 }, 
	{ NOTE_A5, 88 }, 
	{ NOTE_B5, 88 }, 
	{ NOTE_CS6, 88 }, 
	{ NOTE_B5, 88 }, 
	{ NOTE_A5, 88 }, 
	{ NOTE_E5, 88 }, 
	{ NOTE_FS5, 88 }, 
	{ NOTE_GS5, 88 }, 
	{ NOTE_A5, 88 }, 
	{ NOTE_B5, 88 }, 
	{ NOTE_CS6, 88 }, 
	{ NOTE_B5, 92 }, 
	{ NOTE_A5, 88 }, 
	{ NOTE_A3, 3530 }, 
	{ NOTE_E4, 88 }, 
	{ NOTE_FS4, 88 }, 
	{ NOTE_GS4, 88 }, 
	{ NOTE_A4, 88 }, 
	{ NOTE_B4, 88 }, 
	{ NOTE_CS5, 88 }, 
	{ NOTE_B4, 90 }, 
	{ NOTE_A4, 88 }, 
	{ NOTE_E4, 88 }, 
	{ NOTE_FS4, 88 }, 
	{ NOTE_GS4, 88 }, 
	{ NOTE_A4, 88 }, 
	{ NOTE_B4, 88 }, 
	{ NOTE_CS5, 88 }, 
	{ NOTE_B4, 88 }, 
	{ NOTE_A4, 88 }, 
	{ NOTE_E4, 88 }, 
	{ NOTE_FS4, 88 }, 
	{ NOTE_GS4, 88 }, 
	{ NOTE_A4, 88 }, 
	{ NOTE_B4, 88 }, 
	{ NOTE_CS5, 88 }, 
	{ NOTE_B4, 92 }, 
	{ NOTE_A4, 88 }, 
	{ NOTE_E4, 88 }, 
	{ NOTE_FS4, 88 }, 
	{ NOTE_GS4, 88 }, 
	{ NOTE_A4, 88 }, 
	{ NOTE_B4, 88 }, 
	{ NOTE_CS5, 88 }, 
	{ NOTE_B4, 88 }, 
	{ NOTE_A4, 88 }, 
	{ NOTE_E4, 88 }, 
	{ NOTE_FS4, 88 }, 
	{ NOTE_GS4, 88 }, 
	{ NOTE_A4, 88 }, 
	{ NOTE_B4, 88 }, 
	{ NOTE_CS5, 88 }, 
	{ NOTE_B4, 92 }, 
	{ NOTE_A4, 88 }, 
	{ NOTE_E4, 88 }, 
	{ NOTE_FS4, 88 }, 
	{ NOTE_GS4, 88 }, 
	{ NOTE_A4, 88 }, 
	{ NOTE_B4, 88 }, 
	{ NOTE_CS5, 88 }, 
	{ NOTE_D5, 88 }, 
	{ NOTE_E5, 88 }, 
	{ NOTE_FS5, 88 }, 
	{ NOTE_GS5, 88 }, 
	{ NOTE_A5, 88 }, 
	{ NOTE_B5, 88 }, 
	{ NOTE_CS6, 88 }, 
	{ NOTE_D6, 88 }, 
	{ NOTE_DS6, 92 }, 
	{ NOTE_E5, 706 }, 
	{ NOTE_GS4, 706 }, 
	{ NOTE_B4, 706 }, 
	{ NOTE_G3, 706 }, 
	{ NOTE_GS3, 176 }, 
	{ NOTE_DS4, 176 }, 
	{ NOTE_DS4, 176 }, 
	{ NOTE_DS4, 176 }, 
	{ NOTE_DS4, 176 }, 
	{ NOTE_DS4, 176 }, 
	{ NOTE_DS4, 176 }, 
	{ NOTE_DS4, 180 }, 
	{ NOTE_DS4, 176 }, 
	{ NOTE_G4, 176 }, 
	{ NOTE_G4, 176 }, 
	{ NOTE_G4, 176 }, 
	{ NOTE_G4, 176 }, 
	{ NOTE_G4, 176 }, 
	{ NOTE_GS4, 176 }, 
	{ NOTE_AS4, 180 }, 
	{ NOTE_B4, 176 }, 
	{ NOTE_DS4, 176 }, 
	{ NOTE_DS4, 176 }, 
	{ NOTE_DS4, 176 }, 
	{ NOTE_DS4, 176 }, 
	{ NOTE_DS4, 176 }, 
	{ NOTE_DS4, 176 }, 
	{ NOTE_DS4, 180 }, 
	{ NOTE_DS4, 176 }, 
	{ NOTE_G4, 176 }, 
	{ NOTE_G4, 176 }, 
	{ NOTE_G4, 176 }, 
	{ NOTE_G4, 176 }, 
	{ NOTE_G4, 176 }, 
	{ NOTE_GS4, 176 }, 
	{ NOTE_AS4, 180 }, 
	{ NOTE_B4, 176 }, 
	{ NOTE_B4, 176 }, 
	{ NOTE_B4, 176 }, 
	{ NOTE_GS4, 176 }, 
	{ NOTE_REST, 176 }, 
	{ NOTE_CS5, 176 }, 
	{ NOTE_CS5, 176 }, 
	{ NOTE_GS4, 180 }, 
	{ NOTE_REST, 176 }, 
	{ NOTE_B4, 176 }, 
	{ NOTE_B4, 176 }, 
	{ NOTE_GS4, 176 }, 
	{ NOTE_REST, 176 }, 
	{ NOTE_AS4, 176 }, 
	{ NOTE_AS4, 176 }, 
	{ NOTE_G4, 180 }, 
	{ NOTE_GS4, 176 }, 
	{ NOTE_B4, 176 }, 
	{ NOTE_B4, 176 }, 
	{ NOTE_B4, 176 }, 
	{ NOTE_B4, 176 }, 
	{ NOTE_B4, 176 }, 
	{ NOTE_AS4, 176 }, 
	{ NOTE_GS4, 180 }, 
	{ NOTE_G4, 176 }, 
	{ NOTE_E5, 176 }, 
	{ NOTE_E5, 176 }, 
	{ NOTE_E5, 176 }, 
	{ NOTE_E5, 176 }, 
	{ NOTE_E5, 176 }, 
	{ NOTE_DS5, 176 }, 
	{ NOTE_CS5, 180 }, 
	{ NOTE_B4, 176 }, 
	{ NOTE_B4, 176 }, 
	{ NOTE_B4, 176 }, 
	{ NOTE_B4, 176 }, 
	{ NOTE_B4, 176 }, 
	{ NOTE_B4, 176 }, 
	{ NOTE_AS4, 176 }, 
	{ NOTE_GS4, 180 }, 
	{ NOTE_G4, 176 }, 
	{ NOTE_E5, 176 }, 
	{ NOTE_E5, 176 }, 
	{ NOTE_E5, 176 }, 
	{ NOTE_E5, 176 }, 
	{ NOTE_E5, 176 }, 
	{ NOTE_DS5, 176 }, 
	{ NOTE_CS5, 180 }, 
	{ NOTE_B4, 176 }, 
	{ NOTE_GS5, 176 }, 
	{ NOTE_GS5, 176 }, 
	{ NOTE_B5, 176 }, 
	{ NOTE_REST, 176 }, 
	{ NOTE_GS5, 176 }, 
	{ NOTE_GS5, 176 }, 
	{ NOTE_CS6, 180 }, 
	{ NOTE_REST, 176 }, 
	{ NOTE_GS5, 176 }, 
	{ NOTE_GS5, 176 }, 
	{ NOTE_B5, 176 }, 
	{ NOTE_REST, 176 }, 
	{ NOTE_FS5, 176 }, 
	{ NOTE_FS5, 176 }, 
	{ NOTE_AS5, 180 }, 
	{ NOTE_REST, 176 }, 
	{ NOTE_DS5, 176 }, 
	{ NOTE_DS5, 176 }, 
	{ NOTE_GS5, 176 }, 
	{ NOTE_REST, 176 }, 
	{ NOTE_CS5, 176 }, 
	{ NOTE_CS5, 176 }, 
	{ NOTE_E5, 180 }, 
	{ NOTE_REST, 176 }, 
	{ NOTE_B4, 176 }, 
	{ NOTE_B4, 176 }, 
	{ NOTE_DS5, 176 }, 
	{ NOTE_REST, 176 }, 
	{ NOTE_AS4, 176 }, 
	{ NOTE_AS4, 176 }, 
	{ NOTE_CS5, 180 }, 
	{ NOTE_B4, 353 }, 
	{ NOTE_REST, 353 }, 
	{ NOTE_REST, 353 }, 
	{ NOTE_B4, 265 }, 
	{ NOTE_GS4, 88 }, 
	{ NOTE_G4, 353 }, 
	{ NOTE_CS4, 353 }, 
	{ NOTE_CS4, 353 }, 
	{ NOTE_CS4, 353 }, 
	{ NOTE_E4, 0 }, 
	{ NOTE_DS5, 1059 }, 
	{ NOTE_B5, 265 }, 
	{ NOTE_GS5, 88 }, 
	{ NOTE_G5, 353 }, 
	{ NOTE_CS5, 353 }, 
	{ NOTE_CS5, 353 }, 
	{ NOTE_CS5, 353 }, 
	{ NOTE_B4, 44 }, 
	{ NOTE_GS5, 44 }, 
	{ NOTE_DS6, 618 }, 
	{ NOTE_CS5, 44 }, 
	{ NOTE_G5, 44 }, 
	{ NOTE_DS6, 618 }, 
	{ NOTE_B4, 44 }, 
	{ NOTE_GS5, 44 }, 
	{ NOTE_DS6, 618 }, 
	{ NOTE_CS5, 44 }, 
	{ NOTE_G5, 44 }, 
	{ NOTE_DS6, 618 }, 
	{ NOTE_B3, 88 }, 
	{ NOTE_GS4, 88 }, 
	{ NOTE_DS4, 88 }, 
	{ NOTE_GS4, 88 }, 
	{ NOTE_B3, 88 }, 
	{ NOTE_GS4, 88 }, 
	{ NOTE_DS4, 88 }, 
	{ NOTE_GS4, 88 }, 
	{ NOTE_B3, 88 }, 
	{ NOTE_GS4, 88 }, 
	{ NOTE_DS4, 88 }, 
	{ NOTE_GS4, 88 }, 
	{ NOTE_B3, 88 }, 
	{ NOTE_GS4, 88 }, 
	{ NOTE_DS4, 88 }, 
	{ NOTE_GS4, 92 }, 
	{ NOTE_C4, 88 }, 
	{ NOTE_FS4, 88 }, 
	{ NOTE_DS4, 88 }, 
	{ NOTE_FS4, 88 }, 
	{ NOTE_C4, 88 }, 
	{ NOTE_FS4, 88 }, 
	{ NOTE_DS4, 88 }, 
	{ NOTE_FS4, 88 }, 
	{ NOTE_C4, 88 }, 
	{ NOTE_FS4, 88 }, 
	{ NOTE_DS4, 88 }, 
	{ NOTE_FS4, 88 }, 
	{ NOTE_C4, 88 }, 
	{ NOTE_FS4, 88 }, 
	{ NOTE_DS4, 88 }, 
	{ NOTE_FS4, 92 }, 
	{ NOTE_E3, 88 }, 
	{ NOTE_GS2, 88 }, 
	{ NOTE_CS3, 88 }, 
	{ NOTE_E3, 88 }, 
	{ NOTE_GS3, 88 }, 
	{ NOTE_CS3, 88 }, 
	{ NOTE_E3, 88 }, 
	{ NOTE_GS3, 88 }, 
	{ NOTE_CS4, 88 }, 
	{ NOTE_E3, 88 }, 
	{ NOTE_GS3, 88 }, 
	{ NOTE_CS4, 88 }, 
	{ NOTE_E4, 88 }, 
	{ NOTE_GS3, 88 }, 
	{ NOTE_CS4, 88 }, 
	{ NOTE_E4, 92 }, 
	{ NOTE_F3, 88 }, 
	{ NOTE_CS3, 88 }, 
	{ NOTE_E3, 88 }, 
	{ NOTE_GS3, 88 }, 
	{ NOTE_CS4, 88 }, 
	{ NOTE_E3, 88 }, 
	{ NOTE_GS3, 88 }, 
	{ NOTE_CS4, 88 }, 
	{ NOTE_F4, 88 }, 
	{ NOTE_GS3, 88 }, 
	{ NOTE_CS4, 88 }, 
	{ NOTE_F4, 88 }, 
	{ NOTE_GS4, 88 }, 
	{ NOTE_CS4, 88 }, 
	{ NOTE_F4, 88 }, 
	{ NOTE_GS4, 92 }, 
	{ NOTE_CS5, 88 }, 
	{ NOTE_F4, 88 }, 
	{ NOTE_GS4, 88 }, 
	{ NOTE_CS5, 88 }, 
	{ NOTE_F5, 88 }, 
	{ NOTE_GS4, 88 }, 
	{ NOTE_CS5, 88 }, 
	{ NOTE_F5, 88 }, 
	{ NOTE_GS5, 88 }, 
	{ NOTE_CS5, 88 }, 
	{ NOTE_F5, 88 }, 
	{ NOTE_GS5, 88 }, 
	{ NOTE_CS5, 176 }, 
	{ NOTE_CS5, 180 }, 
	{ NOTE_REST, 88 }, 
	{ NOTE_CS3, 88 }, 
	{ NOTE_F3, 88 }, 
	{ NOTE_GS3, 88 }, 
	{ NOTE_CS4, 88 }, 
	{ NOTE_F3, 88 }, 
	{ NOTE_GS3, 88 }, 
	{ NOTE_CS4, 88 }, 
	{ NOTE_F4, 88 }, 
	{ NOTE_GS3, 88 }, 
	{ NOTE_CS4, 88 }, 
	{ NOTE_F4, 88 }, 
	{ NOTE_GS4, 88 }, 
	{ NOTE_CS4, 88 }, 
	{ NOTE_F4, 88 }, 
	{ NOTE_GS4, 92 }, 
	{ NOTE_CS5, 88 }, 
	{ NOTE_F4, 88 }, 
	{ NOTE_GS4, 88 }, 
	{ NOTE_CS5, 88 }, 
	{ NOTE_F5, 88 }, 
	{ NOTE_GS4, 88 }, 
	{ NOTE_CS5, 88 }, 
	{ NOTE_F5, 88 }, 
	{ NOTE_GS5, 88 }, 
	{ NOTE_CS5, 88 }, 
	{ NOTE_F5, 88 }, 
	{ NOTE_GS5, 88 }, 
	{ NOTE_CS5, 176 }, 
	{ NOTE_CS5, 180 }, 
	{ NOTE_REST, 88 }, 
	{ NOTE_CS3, 88 }, 
	{ NOTE_FS3, 88 }, 
	{ NOTE_A3, 88 }, 
	{ NOTE_CS4, 88 }, 
	{ NOTE_CS4, 88 }, 
	{ NOTE_FS4, 88 }, 
	{ NOTE_A4, 88 }, 
	{ NOTE_CS5, 88 }, 
	{ NOTE_CS5, 88 }, 
	{ NOTE_FS5, 88 }, 
	{ NOTE_A5, 88 }, 
	{ NOTE_CS5, 176 }, 
	{ NOTE_CS5, 180 }, 
	{ NOTE_REST, 88 }, 
	{ NOTE_CS3, 88 }, 
	{ NOTE_GS3, 88 }, 
	{ NOTE_B3, 88 }, 
	{ NOTE_CS4, 88 }, 
	{ NOTE_CS4, 88 }, 
	{ NOTE_GS4, 88 }, 
	{ NOTE_B4, 88 }, 
	{ NOTE_CS5, 88 }, 
	{ NOTE_CS5, 88 }, 
	{ NOTE_GS5, 88 }, 
	{ NOTE_B5, 88 }, 
	{ NOTE_CS5, 176 }, 
	{ NOTE_CS5, 180 }, 
	{ NOTE_CS5, 353 }, 
	{ NOTE_CS5, 706 }, 
	{ NOTE_A4, 265 }, 
	{ NOTE_FS4, 88 }, 
	{ NOTE_F4, 59 }, 
	{ NOTE_FS4, 59 }, 
	{ NOTE_GS4, 59 }, 
	{ NOTE_FS4, 176 }, 
	{ NOTE_F4, 529 }, 
	{ NOTE_F4, 176 }, 
	{ NOTE_CS5, 265 }, 
	{ NOTE_F4, 89 }, 
	{ NOTE_GS4, 353 }, 
	{ NOTE_FS4, 529 }, 
	{ NOTE_FS4, 176 }, 
	{ NOTE_CS5, 265 }, 
	{ NOTE_FS4, 89 }, 
	{ NOTE_A4, 353 }, 
	{ NOTE_GS4, 529 }, 
	{ NOTE_GS4, 176 }, 
	{ NOTE_CS5, 265 }, 
	{ NOTE_GS4, 89 }, 
	{ NOTE_A4, 88 }, 
	{ NOTE_CS5, 88 }, 
	{ NOTE_A4, 88 }, 
	{ NOTE_CS5, 88 }, 
	{ NOTE_FS4, 88 }, 
	{ NOTE_CS5, 88 }, 
	{ NOTE_A4, 88 }, 
	{ NOTE_CS5, 88 }, 
	{ NOTE_FS4, 88 }, 
	{ NOTE_CS5, 88 }, 
	{ NOTE_A4, 88 }, 
	{ NOTE_CS5, 88 }, 
	{ NOTE_FS4, 88 }, 
	{ NOTE_CS5, 88 }, 
	{ NOTE_A4, 88 }, 
	{ NOTE_CS5, 92 }, 
	{ NOTE_GS4, 88 }, 
	{ NOTE_CS5, 88 }, 
	{ NOTE_B4, 88 }, 
	{ NOTE_CS5, 88 }, 
	{ NOTE_GS4, 88 }, 
	{ NOTE_CS5, 88 }, 
	{ NOTE_B4, 88 }, 
	{ NOTE_CS5, 88 }, 
	{ NOTE_GS4, 88 }, 
	{ NOTE_CS5, 88 }, 
	{ NOTE_B4, 88 }, 
	{ NOTE_CS5, 88 }, 
	{ NOTE_GS4, 88 }, 
	{ NOTE_CS5, 88 }, 
	{ NOTE_B4, 88 }, 
	{ NOTE_CS5, 92 }, 
	{ NOTE_FS4, 88 }, 
	{ NOTE_CS5, 88 }, 
	{ NOTE_A4, 88 }, 
	{ NOTE_CS5, 88 }, 
	{ NOTE_FS4, 88 }, 
	{ NOTE_CS5, 88 }, 
	{ NOTE_A4, 88 }, 
	{ NOTE_CS5, 88 }, 
	{ NOTE_FS4, 88 }, 
	{ NOTE_CS5, 88 }, 
	{ NOTE_A4, 88 }, 
	{ NOTE_CS5, 88 }, 
	{ NOTE_FS4, 88 }, 
	{ NOTE_CS5, 88 }, 
	{ NOTE_A4, 88 }, 
	{ NOTE_CS5, 92 }, 
	{ NOTE_FS4, 88 }, 
	{ NOTE_D5, 88 }, 
	{ NOTE_A4, 88 }, 
	{ NOTE_D5, 88 }, 
	{ NOTE_FS4, 88 }, 
	{ NOTE_D5, 88 }, 
	{ NOTE_A4, 88 }, 
	{ NOTE_D5, 88 }, 
	{ NOTE_A4, 88 }, 
	{ NOTE_D5, 88 }, 
	{ NOTE_C5, 88 }, 
	{ NOTE_D5, 88 }, 
	{ NOTE_A4, 88 }, 
	{ NOTE_D5, 88 }, 
	{ NOTE_C5, 88 }, 
	{ NOTE_D5, 92 }, 
	{ NOTE_G4, 88 }, 
	{ NOTE_D5, 88 }, 
	{ NOTE_B4, 88 }, 
	{ NOTE_D5, 88 }, 
	{ NOTE_G4, 88 }, 
	{ NOTE_D5, 88 }, 
	{ NOTE_B4, 88 }, 
	{ NOTE_D5, 88 }, 
	{ NOTE_G4, 88 }, 
	{ NOTE_D5, 88 }, 
	{ NOTE_B4, 88 }, 
	{ NOTE_D5, 88 }, 
	{ NOTE_G4, 88 }, 
	{ NOTE_D5, 88 }, 
	{ NOTE_B4, 88 }, 
	{ NOTE_D5, 92 }, 
	{ NOTE_A4, 88 }, 
	{ NOTE_D5, 88 }, 
	{ NOTE_C5, 88 }, 
	{ NOTE_D5, 88 }, 
	{ NOTE_A4, 88 }, 
	{ NOTE_D5, 88 }, 
	{ NOTE_C5, 88 }, 
	{ NOTE_D5, 88 }, 
	{ NOTE_A4, 88 }, 
	{ NOTE_D5, 88 }, 
	{ NOTE_C5, 88 }, 
	{ NOTE_D5, 88 }, 
	{ NOTE_A4, 88 }, 
	{ NOTE_D5, 88 }, 
	{ NOTE_C5, 88 }, 
	{ NOTE_D5, 92 }, 
	{ NOTE_G4, 88 }, 
	{ NOTE_D5, 88 }, 
	{ NOTE_B4, 88 }, 
	{ NOTE_D5, 88 }, 
	{ NOTE_G4, 88 }, 
	{ NOTE_D5, 88 }, 
	{ NOTE_B4, 88 }, 
	{ NOTE_D5, 88 }, 
	{ NOTE_G4, 88 }, 
	{ NOTE_D5, 88 }, 
	{ NOTE_B4, 88 }, 
	{ NOTE_D5, 88 }, 
	{ NOTE_FS4, 88 }, 
	{ NOTE_D5, 88 }, 
	{ NOTE_B4, 88 }, 
	{ NOTE_D5, 92 }, 
	{ NOTE_GS4, 88 }, 
	{ NOTE_D5, 88 }, 
	{ NOTE_B4, 88 }, 
	{ NOTE_D5, 88 }, 
	{ NOTE_GS4, 88 }, 
	{ NOTE_CS5, 88 }, 
	{ NOTE_B4, 88 }, 
	{ NOTE_CS5, 88 }, 
	{ NOTE_GS4, 88 }, 
	{ NOTE_CS5, 88 }, 
	{ NOTE_B4, 88 }, 
	{ NOTE_CS5, 88 }, 
	{ NOTE_GS4, 88 }, 
	{ NOTE_CS5, 88 }, 
	{ NOTE_B4, 88 }, 
	{ NOTE_CS5, 92 }, 
	{ NOTE_FS4, 88 }, 
	{ NOTE_CS5, 88 }, 
	{ NOTE_A4, 88 }, 
	{ NOTE_CS5, 88 }, 
	{ NOTE_FS4, 88 }, 
	{ NOTE_CS5, 88 }, 
	{ NOTE_A4, 88 }, 
	{ NOTE_CS5, 88 }, 
	{ NOTE_FS4, 88 }, 
	{ NOTE_FS5, 88 }, 
	{ NOTE_A4, 88 }, 
	{ NOTE_FS5, 88 }, 
	{ NOTE_FS4, 88 }, 
	{ NOTE_FS5, 88 }, 
	{ NOTE_A4, 88 }, 
	{ NOTE_FS5, 92 }, 
	{ NOTE_FS4, 88 }, 
	{ NOTE_FS5, 88 }, 
	{ NOTE_GS4, 88 }, 
	{ NOTE_FS5, 88 }, 
	{ NOTE_FS4, 88 }, 
	{ NOTE_FS5, 88 }, 
	{ NOTE_GS4, 88 }, 
	{ NOTE_FS5, 88 }, 
	{ NOTE_FS4, 88 }, 
	{ NOTE_FS5, 88 }, 
	{ NOTE_GS4, 88 }, 
	{ NOTE_FS5, 88 }, 
	{ NOTE_FS4, 88 }, 
	{ NOTE_FS5, 88 }, 
	{ NOTE_GS4, 88 }, 
	{ NOTE_FS5, 92 }, 
	{ NOTE_E4, 88 }, 
	{ NOTE_E5, 88 }, 
	{ NOTE_CS5, 88 }, 
	{ NOTE_E5, 88 }, 
	{ NOTE_E4, 88 }, 
	{ NOTE_E5, 88 }, 
	{ NOTE_CS5, 88 }, 
	{ NOTE_E5, 88 }, 
	{ NOTE_E4, 88 }, 
	{ NOTE_E5, 88 }, 
	{ NOTE_CS5, 88 }, 
	{ NOTE_E5, 88 }, 
	{ NOTE_E4, 88 }, 
	{ NOTE_E5, 88 }, 
	{ NOTE_CS5, 88 }, 
	{ NOTE_E5, 92 }, 
	{ NOTE_DS4, 88 }, 
	{ NOTE_DS5, 88 }, 
	{ NOTE_CS5, 88 }, 
	{ NOTE_DS5, 88 }, 
	{ NOTE_DS4, 88 }, 
	{ NOTE_DS5, 88 }, 
	{ NOTE_CS5, 88 }, 
	{ NOTE_DS5, 88 }, 
	{ NOTE_DS4, 88 }, 
	{ NOTE_DS5, 88 }, 
	{ NOTE_CS5, 88 }, 
	{ NOTE_DS5, 88 }, 
	{ NOTE_DS4, 88 }, 
	{ NOTE_DS5, 88 }, 
	{ NOTE_CS5, 88 }, 
	{ NOTE_DS5, 92 }, 
	{ NOTE_DS4, 353 }, 
	{ NOTE_GS4, 706 }, 
	{ NOTE_A4, 176 }, 
	{ NOTE_GS4, 177 }, 
	{ NOTE_A3, 353 }, 
	{ NOTE_GS4, 176 }, 
	{ NOTE_FS4, 176 }, 
	{ NOTE_GS3, 353 }, 
	{ NOTE_FS4, 176 }, 
	{ NOTE_E4, 178 }, 
	{ NOTE_FS3, 353 }, 
	{ NOTE_E4, 176 }, 
	{ NOTE_DS4, 176 }, 
	{ NOTE_E3, 353 }, 
	{ NOTE_DS4, 176 }, 
	{ NOTE_CS4, 178 }, 
	{ NOTE_DS3, 706 }, 
	{ NOTE_CS3, 706 }, 
	{ NOTE_C3, 44 }, 
	{ NOTE_GS3, 44 }, 
	{ NOTE_DS4, 265 }, 
	{ NOTE_GS5, 529 }, 
	{ NOTE_GS5, 176 }, 
	{ NOTE_A5, 176 }, 
	{ NOTE_GS5, 178 }, 
	{ NOTE_FS5, 176 }, 
	{ NOTE_A4, 176 }, 
	{ NOTE_B4, 176 }, 
	{ NOTE_A4, 176 }, 
	{ NOTE_GS4, 176 }, 
	{ NOTE_GS4, 176 }, 
	{ NOTE_A4, 176 }, 
	{ NOTE_GS4, 180 }, 
	{ NOTE_FS4, 176 }, 
	{ NOTE_FS4, 176 }, 
	{ NOTE_GS4, 176 }, 
	{ NOTE_FS4, 176 }, 
	{ NOTE_E4, 176 }, 
	{ NOTE_E4, 176 }, 
	{ NOTE_FS4, 176 }, 
	{ NOTE_E4, 180 }, 
	{ NOTE_DS4, 706 }, 
	{ NOTE_CS4, 706 }, 
	{ NOTE_C4, 44 }, 
	{ NOTE_FS4, 44 }, 
	{ NOTE_FS4, 971 }, 
	{ NOTE_CS4, 353 }, 
	{ NOTE_DS4, 353 }, 
	{ NOTE_DS4, 353 }, 
	{ NOTE_CS4, 353 }, 
	{ NOTE_CS4, 353 }, 
	{ NOTE_C4, 44 }, 
	{ NOTE_FS4, 44 }, 
	{ NOTE_FS4, 971 }, 
	{ NOTE_CS4, 176 }, 
	{ NOTE_CS5, 177 }, 
	{ NOTE_DS4, 176 }, 
	{ NOTE_C5, 176 }, 
	{ NOTE_DS4, 176 }, 
	{ NOTE_C5, 176 }, 
	{ NOTE_CS4, 176 }, 
	{ NOTE_CS5, 176 }, 
	{ NOTE_CS4, 176 }, 
	{ NOTE_CS5, 180 }, 
	{ NOTE_C4, 176 }, 
	{ NOTE_DS5, 176 }, 
	{ NOTE_C4, 176 }, 
	{ NOTE_DS5, 176 }, 
	{ NOTE_CS4, 176 }, 
	{ NOTE_CS5, 176 }, 
	{ NOTE_CS4, 176 }, 
	{ NOTE_CS5, 180 }, 
	{ NOTE_A3, 1412 }, 
	{ NOTE_GS3, 1412 }, 
	{ NOTE_REST, 88 }, 
	{ NOTE_GS2, 88 }, 
	{ NOTE_CS3, 88 }, 
	{ NOTE_E3, 88 }, 
	{ NOTE_GS3, 88 }, 
	{ NOTE_CS3, 88 }, 
	{ NOTE_E3, 88 }, 
	{ NOTE_GS3, 88 }, 
	{ NOTE_CS4, 88 }, 
	{ NOTE_E3, 88 }, 
	{ NOTE_GS3, 88 }, 
	{ NOTE_CS4, 88 }, 
	{ NOTE_E4, 88 }, 
	{ NOTE_E3, 88 }, 
	{ NOTE_CS4, 88 }, 
	{ NOTE_E4, 92 }, 
	{ NOTE_GS4, 88 }, 
	{ NOTE_CS4, 88 }, 
	{ NOTE_E4, 88 }, 
	{ NOTE_GS4, 88 }, 
	{ NOTE_CS5, 88 }, 
	{ NOTE_E4, 88 }, 
	{ NOTE_GS4, 88 }, 
	{ NOTE_CS5, 88 }, 
	{ NOTE_E5, 88 }, 
	{ NOTE_GS4, 88 }, 
	{ NOTE_CS5, 88 }, 
	{ NOTE_E5, 88 }, 
	{ NOTE_GS4, 176 }, 
	{ NOTE_GS4, 180 }, 
	{ NOTE_REST, 88 }, 
	{ NOTE_GS2, 88 }, 
	{ NOTE_C3, 88 }, 
	{ NOTE_DS3, 88 }, 
	{ NOTE_GS3, 88 }, 
	{ NOTE_C3, 88 }, 
	{ NOTE_DS3, 88 }, 
	{ NOTE_GS3, 88 }, 
	{ NOTE_C4, 88 }, 
	{ NOTE_DS3, 88 }, 
	{ NOTE_GS3, 88 }, 
	{ NOTE_C4, 88 }, 
	{ NOTE_DS4, 88 }, 
	{ NOTE_GS3, 88 }, 
	{ NOTE_C4, 88 }, 
	{ NOTE_DS4, 92 }, 
	{ NOTE_GS4, 88 }, 
	{ NOTE_C4, 88 }, 
	{ NOTE_DS4, 88 }, 
	{ NOTE_GS4, 88 }, 
	{ NOTE_C5, 88 }, 
	{ NOTE_DS4, 88 }, 
	{ NOTE_GS4, 88 }, 
	{ NOTE_C5, 88 }, 
	{ NOTE_DS5, 88 }, 
	{ NOTE_GS4, 88 }, 
	{ NOTE_C5, 88 }, 
	{ NOTE_DS5, 88 }, 
	{ NOTE_GS4, 176 }, 
	{ NOTE_GS4, 180 }, 
	{ NOTE_REST, 88 }, 
	{ NOTE_CS3, 88 }, 
	{ NOTE_F3, 88 }, 
	{ NOTE_GS3, 88 }, 
	{ NOTE_CS4, 88 }, 
	{ NOTE_F3, 88 }, 
	{ NOTE_GS3, 88 }, 
	{ NOTE_CS4, 88 }, 
	{ NOTE_F4, 88 }, 
	{ NOTE_GS3, 88 }, 
	{ NOTE_CS4, 88 }, 
	{ NOTE_F4, 88 }, 
	{ NOTE_GS4, 88 }, 
	{ NOTE_CS4, 88 }, 
	{ NOTE_F4, 88 }, 
	{ NOTE_GS4, 92 }, 
	{ NOTE_CS5, 88 }, 
	{ NOTE_F4, 88 }, 
	{ NOTE_GS4, 88 }, 
	{ NOTE_CS5, 88 }, 
	{ NOTE_F5, 88 }, 
	{ NOTE_GS4, 88 }, 
	{ NOTE_CS5, 88 }, 
	{ NOTE_F5, 88 }, 
	{ NOTE_GS5, 88 }, 
	{ NOTE_CS5, 88 }, 
	{ NOTE_F5, 88 }, 
	{ NOTE_GS5, 88 }, 
	{ NOTE_CS5, 176 }, 
	{ NOTE_CS5, 180 }, 
	{ NOTE_REST, 88 }, 
	{ NOTE_CS3, 88 }, 
	{ NOTE_FS3, 88 }, 
	{ NOTE_A3, 88 }, 
	{ NOTE_CS4, 88 }, 
	{ NOTE_CS4, 88 }, 
	{ NOTE_FS4, 88 }, 
	{ NOTE_A4, 88 }, 
	{ NOTE_CS5, 88 }, 
	{ NOTE_CS5, 88 }, 
	{ NOTE_FS5, 88 }, 
	{ NOTE_A5, 88 }, 
	{ NOTE_CS5, 176 }, 
	{ NOTE_CS5, 180 }, 
	{ NOTE_REST, 88 }, 
	{ NOTE_CS3, 88 }, 
	{ NOTE_E3, 88 }, 
	{ NOTE_G3, 88 }, 
	{ NOTE_CS4, 88 }, 
	{ NOTE_CS4, 88 }, 
	{ NOTE_E4, 88 }, 
	{ NOTE_G4, 88 }, 
	{ NOTE_CS5, 88 }, 
	{ NOTE_CS5, 88 }, 
	{ NOTE_E5, 88 }, 
	{ NOTE_G5, 88 }, 
	{ NOTE_CS5, 176 }, 
	{ NOTE_CS5, 180 }, 
	{ NOTE_C5, 176 }, 
	{ NOTE_GS4, 88 }, 
	{ NOTE_GS5, 88 }, 
	{ NOTE_GS4, 88 }, 
	{ NOTE_GS5, 88 }, 
	{ NOTE_AS4, 88 }, 
	{ NOTE_GS5, 88 }, 
	{ NOTE_C5, 88 }, 
	{ NOTE_GS5, 88 }, 
	{ NOTE_CS5, 88 }, 
	{ NOTE_GS5, 88 }, 
	{ NOTE_DS5, 88 }, 
	{ NOTE_GS5, 88 }, 
	{ NOTE_C5, 88 }, 
	{ NOTE_GS5, 92 }, 
	{ NOTE_DS5, 88 }, 
	{ NOTE_GS5, 88 }, 
	{ NOTE_CS5, 88 }, 
	{ NOTE_GS5, 88 }, 
	{ NOTE_FS5, 88 }, 
	{ NOTE_GS5, 88 }, 
	{ NOTE_E5, 88 }, 
	{ NOTE_GS5, 88 }, 
	{ NOTE_DS5, 88 }, 
	{ NOTE_GS5, 88 }, 
	{ NOTE_CS5, 88 }, 
	{ NOTE_GS5, 88 }, 
	{ NOTE_C5, 88 }, 
	{ NOTE_GS5, 88 }, 
	{ NOTE_A4, 88 }, 
	{ NOTE_G5, 92 }, 
	{ NOTE_GS4, 88 }, 
	{ NOTE_GS5, 88 }, 
	{ NOTE_GS4, 88 }, 
	{ NOTE_GS5, 88 }, 
	{ NOTE_GS4, 88 }, 
	{ NOTE_GS5, 88 }, 
	{ NOTE_AS4, 88 }, 
	{ NOTE_GS5, 88 }, 
	{ NOTE_C5, 88 }, 
	{ NOTE_GS5, 88 }, 
	{ NOTE_CS5, 88 }, 
	{ NOTE_GS5, 88 }, 
	{ NOTE_DS5, 88 }, 
	{ NOTE_GS5, 88 }, 
	{ NOTE_C5, 88 }, 
	{ NOTE_GS5, 92 }, 
	{ NOTE_DS5, 88 }, 
	{ NOTE_GS5, 88 }, 
	{ NOTE_CS5, 88 }, 
	{ NOTE_GS5, 88 }, 
	{ NOTE_FS5, 88 }, 
	{ NOTE_GS5, 88 }, 
	{ NOTE_E5, 88 }, 
	{ NOTE_GS5, 88 }, 
	{ NOTE_DS5, 88 }, 
	{ NOTE_GS5, 88 }, 
	{ NOTE_CS5, 88 }, 
	{ NOTE_GS5, 88 }, 
	{ NOTE_C5, 88 }, 
	{ NOTE_GS5, 88 }, 
	{ NOTE_A4, 88 }, 
	{ NOTE_G5, 92 }, 
	{ NOTE_GS4, 88 }, 
	{ NOTE_GS5, 88 }, 
	{ NOTE_A4, 88 }, 
	{ NOTE_G5, 88 }, 
	{ NOTE_GS4, 88 }, 
	{ NOTE_GS5, 88 }, 
	{ NOTE_A4, 88 }, 
	{ NOTE_G5, 88 }, 
	{ NOTE_GS4, 88 }, 
	{ NOTE_GS5, 88 }, 
	{ NOTE_A4, 88 }, 
	{ NOTE_G5, 88 }, 
	{ NOTE_GS4, 88 }, 
	{ NOTE_GS5, 88 }, 
	{ NOTE_A4, 88 }, 
	{ NOTE_G5, 92 }, 
	{ NOTE_GS4, 353 }, 
	{ NOTE_GS3, 1059 }, 
	{ NOTE_REST, 353 }, 
	{ NOTE_GS4, 706 }, 
	{ NOTE_E4, 265 }, 
	{ NOTE_CS4, 88 }, 
	{ NOTE_C4, 59 }, 
	{ NOTE_CS4, 59 }, 
	{ NOTE_DS4, 59 }, 
	{ NOTE_CS4, 176 }, 
	{ NOTE_C4, 529 }, 
	{ NOTE_C4, 176 }, 
	{ NOTE_GS4, 265 }, 
	{ NOTE_C4, 89 }, 
	{ NOTE_DS4, 353 }, 
	{ NOTE_CS4, 529 }, 
	{ NOTE_CS4, 176 }, 
	{ NOTE_GS4, 265 }, 
	{ NOTE_CS4, 89 }, 
	{ NOTE_E4, 353 }, 
	{ NOTE_DS4, 529 }, 
	{ NOTE_DS4, 176 }, 
	{ NOTE_GS4, 265 }, 
	{ NOTE_DS4, 89 }, 
	{ NOTE_E4, 176 }, 
	{ NOTE_GS4, 353 }, 
	{ NOTE_GS4, 353 }, 
	{ NOTE_GS4, 176 }, 
	{ NOTE_E4, 176 }, 
	{ NOTE_CS4, 178 }, 
	{ NOTE_CS4, 176 }, 
	{ NOTE_C4, 353 }, 
	{ NOTE_C4, 353 }, 
	{ NOTE_C4, 176 }, 
	{ NOTE_GS4, 176 }, 
	{ NOTE_C4, 178 }, 
	{ NOTE_DS4, 176 }, 
	{ NOTE_CS4, 353 }, 
	{ NOTE_CS4, 353 }, 
	{ NOTE_CS4, 176 }, 
	{ NOTE_GS4, 176 }, 
	{ NOTE_CS4, 178 }, 
	{ NOTE_E4, 176 }, 
	{ NOTE_DS4, 353 }, 
	{ NOTE_DS4, 353 }, 
	{ NOTE_DS4, 176 }, 
	{ NOTE_GS4, 176 }, 
	{ NOTE_DS4, 178 }, 
	{ NOTE_F4, 706 }, 
	{ NOTE_FS4, 706 }, 
	{ NOTE_DS4, 88 }, 
	{ NOTE_CS5, 88 }, 
	{ NOTE_DS5, 88 }, 
	{ NOTE_CS5, 88 }, 
	{ NOTE_E4, 1060 }, 
	{ NOTE_CS4, 706 }, 
	{ NOTE_D4, 706 }, 
	{ NOTE_C4, 88 }, 
	{ NOTE_AS4, 88 }, 
	{ NOTE_C5, 88 }, 
	{ NOTE_AS4, 88 }, 
	{ NOTE_CS4, 1060 }, 
	{ NOTE_D4, 794 }, 
	{ NOTE_A4, 88 }, 
	{ NOTE_B4, 88 }, 
	{ NOTE_CS5, 88 }, 
	{ NOTE_D5, 88 }, 
	{ NOTE_E5, 88 }, 
	{ NOTE_FS5, 88 }, 
	{ NOTE_E5, 90 }, 
	{ NOTE_D5, 88 }, 
	{ NOTE_A4, 88 }, 
	{ NOTE_B4, 88 }, 
	{ NOTE_CS5, 88 }, 
	{ NOTE_D5, 88 }, 
	{ NOTE_E5, 88 }, 
	{ NOTE_FS5, 88 }, 
	{ NOTE_E5, 88 }, 
	{ NOTE_D5, 88 }, 
	{ NOTE_A4, 88 }, 
	{ NOTE_B4, 88 }, 
	{ NOTE_CS5, 88 }, 
	{ NOTE_D5, 88 }, 
	{ NOTE_E5, 88 }, 
	{ NOTE_FS5, 88 }, 
	{ NOTE_E5, 92 }, 
	{ NOTE_D5, 88 }, 
	{ NOTE_FS3, 3530 }, 
	{ NOTE_A3, 88 }, 
	{ NOTE_B3, 88 }, 
	{ NOTE_CS4, 88 }, 
	{ NOTE_D4, 88 }, 
	{ NOTE_E4, 88 }, 
	{ NOTE_FS4, 88 }, 
	{ NOTE_E4, 90 }, 
	{ NOTE_D4, 88 }, 
	{ NOTE_A3, 88 }, 
	{ NOTE_B3, 88 }, 
	{ NOTE_CS4, 88 }, 
	{ NOTE_D4, 88 }, 
	{ NOTE_E4, 88 }, 
	{ NOTE_FS4, 88 }, 
	{ NOTE_E4, 88 }, 
	{ NOTE_D4, 88 }, 
	{ NOTE_A3, 88 }, 
	{ NOTE_B3, 88 }, 
	{ NOTE_CS4, 88 }, 
	{ NOTE_D4, 88 }, 
	{ NOTE_E4, 88 }, 
	{ NOTE_FS4, 88 }, 
	{ NOTE_E4, 92 }, 
	{ NOTE_D4, 88 }, 
	{ NOTE_A3, 88 }, 
	{ NOTE_B3, 88 }, 
	{ NOTE_CS4, 88 }, 
	{ NOTE_D4, 88 }, 
	{ NOTE_E4, 88 }, 
	{ NOTE_FS4, 88 }, 
	{ NOTE_G4, 88 }, 
	{ NOTE_A4, 88 }, 
	{ NOTE_B4, 88 }, 
	{ NOTE_CS5, 88 }, 
	{ NOTE_D5, 88 }, 
	{ NOTE_E5, 88 }, 
	{ NOTE_FS5, 88 }, 
	{ NOTE_G5, 88 }, 
	{ NOTE_GS5, 92 }, 
	{ NOTE_A4, 706 }, 
	{ NOTE_CS4, 706 }, 
	{ NOTE_E4, 706 }, 
	{ NOTE_FS3, 706 }, 
	{ NOTE_CS4, 176 }, 
	{ NOTE_GS3, 176 }, 
	{ NOTE_GS3, 176 }, 
	{ NOTE_GS3, 176 }, 
	{ NOTE_GS3, 176 }, 
	{ NOTE_GS3, 176 }, 
	{ NOTE_GS3, 176 }, 
	{ NOTE_GS3, 180 }, 
	{ NOTE_GS3, 176 }, 
	{ NOTE_C4, 176 }, 
	{ NOTE_C4, 176 }, 
	{ NOTE_C4, 176 }, 
	{ NOTE_C4, 176 }, 
	{ NOTE_C4, 176 }, 
	{ NOTE_CS4, 176 }, 
	{ NOTE_DS4, 180 }, 
	{ NOTE_E4, 176 }, 
	{ NOTE_GS3, 176 }, 
	{ NOTE_GS3, 176 }, 
	{ NOTE_GS3, 176 }, 
	{ NOTE_GS3, 176 }, 
	{ NOTE_GS3, 176 }, 
	{ NOTE_GS3, 176 }, 
	{ NOTE_GS3, 180 }, 
	{ NOTE_GS3, 176 }, 
	{ NOTE_C4, 176 }, 
	{ NOTE_C4, 176 }, 
	{ NOTE_C4, 176 }, 
	{ NOTE_C4, 176 }, 
	{ NOTE_C4, 176 }, 
	{ NOTE_CS4, 176 }, 
	{ NOTE_DS4, 180 }, 
	{ NOTE_E4, 176 }, 
	{ NOTE_E4, 176 }, 
	{ NOTE_E4, 176 }, 
	{ NOTE_CS4, 176 }, 
	{ NOTE_REST, 176 }, 
	{ NOTE_FS4, 176 }, 
	{ NOTE_FS4, 176 }, 
	{ NOTE_CS4, 180 }, 
	{ NOTE_REST, 176 }, 
	{ NOTE_E4, 176 }, 
	{ NOTE_E4, 176 }, 
	{ NOTE_CS4, 176 }, 
	{ NOTE_REST, 176 }, 
	{ NOTE_DS4, 176 }, 
	{ NOTE_DS4, 176 }, 
	{ NOTE_C4, 180 }, 
	{ NOTE_CS4, 176 }, 
	{ NOTE_E4, 176 }, 
	{ NOTE_E4, 176 }, 
	{ NOTE_E4, 176 }, 
	{ NOTE_E4, 176 }, 
	{ NOTE_E4, 176 }, 
	{ NOTE_DS4, 176 }, 
	{ NOTE_CS4, 180 }, 
	{ NOTE_C4, 176 }, 
	{ NOTE_C5, 176 }, 
	{ NOTE_C5, 176 }, 
	{ NOTE_C5, 176 }, 
	{ NOTE_C5, 176 }, 
	{ NOTE_C5, 176 }, 
	{ NOTE_CS5, 176 }, 
	{ NOTE_DS5, 180 }, 
	{ NOTE_E5, 176 }, 
	{ NOTE_E4, 176 }, 
	{ NOTE_E4, 176 }, 
	{ NOTE_E4, 176 }, 
	{ NOTE_E4, 176 }, 
	{ NOTE_E4, 176 }, 
	{ NOTE_DS4, 176 }, 
	{ NOTE_CS4, 180 }, 
	{ NOTE_C4, 176 }, 
	{ NOTE_C5, 176 }, 
	{ NOTE_C5, 176 }, 
	{ NOTE_C5, 176 }, 
	{ NOTE_C5, 176 }, 
	{ NOTE_C5, 176 }, 
	{ NOTE_CS5, 176 }, 
	{ NOTE_DS5, 180 }, 
	{ NOTE_E5, 176 }, 
	{ NOTE_GS5, 176 }, 
	{ NOTE_GS5, 176 }, 
	{ NOTE_E5, 176 }, 
	{ NOTE_REST, 176 }, 
	{ NOTE_A5, 176 }, 
	{ NOTE_A5, 176 }, 
	{ NOTE_FS5, 180 }, 
	{ NOTE_REST, 176 }, 
	{ NOTE_E5, 176 }, 
	{ NOTE_E5, 176 }, 
	{ NOTE_CS5, 176 }, 
	{ NOTE_REST, 176 }, 
	{ NOTE_DS5, 176 }, 
	{ NOTE_DS5, 176 }, 
	{ NOTE_C5, 180 }, 
	{ NOTE_REST, 176 }, 
	{ NOTE_CS5, 176 }, 
	{ NOTE_CS5, 176 }, 
	{ NOTE_GS4, 176 }, 
	{ NOTE_REST, 176 }, 
	{ NOTE_A4, 176 }, 
	{ NOTE_A4, 176 }, 
	{ NOTE_FS4, 180 }, 
	{ NOTE_REST, 176 }, 
	{ NOTE_GS4, 176 }, 
	{ NOTE_GS4, 176 }, 
	{ NOTE_E4, 176 }, 
	{ NOTE_REST, 176 }, 
	{ NOTE_FS4, 176 }, 
	{ NOTE_FS4, 176 }, 
	{ NOTE_DS4, 180 }, 
	{ NOTE_E4, 353 }, 
	{ NOTE_REST, 353 }, 
	{ NOTE_REST, 353 }, 
	{ NOTE_E4, 265 }, 
	{ NOTE_CS4, 88 }, 
	{ NOTE_C4, 353 }, 
	{ NOTE_FS3, 353 }, 
	{ NOTE_FS3, 353 }, 
	{ NOTE_FS3, 353 }, 
	{ NOTE_E3, 44 }, 
	{ NOTE_CS4, 44 }, 
	{ NOTE_GS4, 971 }, 
	{ NOTE_E5, 265 }, 
	{ NOTE_CS5, 88 }, 
	{ NOTE_C5, 353 }, 
	{ NOTE_FS4, 353 }, 
	{ NOTE_FS4, 353 }, 
	{ NOTE_FS4, 353 }, 
	{ NOTE_E4, 44 }, 
	{ NOTE_CS5, 44 }, 
	{ NOTE_GS5, 618 }, 
	{ NOTE_FS4, 44 }, 
	{ NOTE_C5, 44 }, 
	{ NOTE_GS5, 618 }, 
	{ NOTE_E4, 44 }, 
	{ NOTE_CS5, 44 }, 
	{ NOTE_GS5, 618 }, 
	{ NOTE_FS4, 44 }, 
	{ NOTE_C5, 44 }, 
	{ NOTE_GS5, 618 }, 
	{ NOTE_E3, 88 }, 
	{ NOTE_CS4, 88 }, 
	{ NOTE_GS3, 88 }, 
	{ NOTE_CS4, 88 }, 
	{ NOTE_E3, 88 }, 
	{ NOTE_CS4, 88 }, 
	{ NOTE_GS3, 88 }, 
	{ NOTE_CS4, 88 }, 
	{ NOTE_E3, 88 }, 
	{ NOTE_CS4, 88 }, 
	{ NOTE_GS3, 88 }, 
	{ NOTE_CS4, 88 }, 
	{ NOTE_E3, 88 }, 
	{ NOTE_CS4, 88 }, 
	{ NOTE_GS3, 88 }, 
	{ NOTE_CS4, 92 }, 
	{ NOTE_F3, 88 }, 
	{ NOTE_CS4, 88 }, 
	{ NOTE_GS3, 88 }, 
	{ NOTE_CS4, 88 }, 
	{ NOTE_F3, 88 }, 
	{ NOTE_CS4, 88 }, 
	{ NOTE_GS3, 88 }, 
	{ NOTE_CS4, 88 }, 
	{ NOTE_F3, 88 }, 
	{ NOTE_CS4, 88 }, 
	{ NOTE_GS3, 88 }, 
	{ NOTE_CS4, 88 }, 
	{ NOTE_F3, 88 }, 
	{ NOTE_CS4, 88 }, 
	{ NOTE_GS3, 88 }, 
	{ NOTE_CS4, 92 }, 
	{ NOTE_CS3, 88 }, 
	{ NOTE_CS3, 88 }, 
	{ NOTE_FS3, 88 }, 
	{ NOTE_A3, 88 }, 
	{ NOTE_CS4, 88 }, 
	{ NOTE_FS3, 88 }, 
	{ NOTE_A3, 88 }, 
	{ NOTE_CS4, 88 }, 
	{ NOTE_FS4, 88 }, 
	{ NOTE_A3, 88 }, 
	{ NOTE_CS4, 88 }, 
	{ NOTE_FS4, 88 }, 
	{ NOTE_A4, 88 }, 
	{ NOTE_CS4, 88 }, 
	{ NOTE_FS4, 88 }, 
	{ NOTE_A4, 92 }, 
	{ NOTE_CS5, 88 }, 
	{ NOTE_FS4, 88 }, 
	{ NOTE_A4, 88 }, 
	{ NOTE_CS5, 88 }, 
	{ NOTE_FS5, 88 }, 
	{ NOTE_A4, 88 }, 
	{ NOTE_CS5, 88 }, 
	{ NOTE_FS5, 88 }, 
	{ NOTE_A5, 88 }, 
	{ NOTE_CS5, 88 }, 
	{ NOTE_FS5, 88 }, 
	{ NOTE_A5, 88 }, 
	{ NOTE_CS5, 176 }, 
	{ NOTE_CS5, 180 }, 
	{ NOTE_REST, 88 }, 
	{ NOTE_CS3, 88 }, 
	{ NOTE_E3, 88 }, 
	{ NOTE_GS3, 88 }, 
	{ NOTE_CS4, 88 }, 
	{ NOTE_E3, 88 }, 
	{ NOTE_GS3, 88 }, 
	{ NOTE_CS4, 88 }, 
	{ NOTE_E4, 88 }, 
	{ NOTE_GS3, 88 }, 
	{ NOTE_CS4, 88 }, 
	{ NOTE_E4, 88 }, 
	{ NOTE_GS4, 88 }, 
	{ NOTE_CS4, 88 }, 
	{ NOTE_E4, 88 }, 
	{ NOTE_GS4, 92 }, 
	{ NOTE_CS5, 88 }, 
	{ NOTE_E4, 88 }, 
	{ NOTE_GS4, 88 }, 
	{ NOTE_CS5, 88 }, 
	{ NOTE_E5, 88 }, 
	{ NOTE_GS4, 88 }, 
	{ NOTE_CS5, 88 }, 
	{ NOTE_E5, 88 }, 
	{ NOTE_GS5, 88 }, 
	{ NOTE_CS5, 88 }, 
	{ NOTE_E5, 88 }, 
	{ NOTE_GS5, 88 }, 
	{ NOTE_CS5, 176 }, 
	{ NOTE_CS5, 180 }, 
	{ NOTE_REST, 176 }, 
	{ NOTE_CS4, 44 }, 
	{ NOTE_E4, 44 }, 
	{ NOTE_G4, 44 }, 
	{ NOTE_AS4, 44 }, 
	{ NOTE_CS4, 529 }, 
	{ NOTE_CS5, 44 }, 
	{ NOTE_E5, 44 }, 
	{ NOTE_G5, 44 }, 
	{ NOTE_AS5, 44 }, 
	{ NOTE_CS5, 531 }, 
	{ NOTE_CS6, 44 }, 
	{ NOTE_E6, 44 }, 
	{ NOTE_G6, 44 }, 
	{ NOTE_A6, 44 }, 
	{ NOTE_G4, 1060 }, 
	{ NOTE_REST, 176 }, 
	{ NOTE_A3, 44 }, 
	{ NOTE_C4, 44 }, 
	{ NOTE_DS4, 44 }, 
	{ NOTE_FS4, 44 }, 
	{ NOTE_A3, 529 }, 
	{ NOTE_A4, 44 }, 
	{ NOTE_C5, 44 }, 
	{ NOTE_DS5, 44 }, 
	{ NOTE_FS5, 44 }, 
	{ NOTE_A4, 443 }, 
	{ NOTE_A5, 88 }, 
	{ NOTE_C6, 88 }, 
	{ NOTE_DS6, 88 }, 
	{ NOTE_FS4, 1060 }, 
	{ NOTE_REST, 88 }, 
	{ NOTE_GS4, 88 }, 
	{ NOTE_E4, 88 }, 
	{ NOTE_GS4, 88 }, 
	{ NOTE_CS4, 88 }, 
	{ NOTE_GS4, 88 }, 
	{ NOTE_E4, 88 }, 
	{ NOTE_GS4, 88 }, 
	{ NOTE_CS4, 88 }, 
	{ NOTE_GS4, 88 }, 
	{ NOTE_E4, 88 }, 
	{ NOTE_GS4, 88 }, 
	{ NOTE_CS4, 88 }, 
	{ NOTE_GS4, 88 }, 
	{ NOTE_E4, 88 }, 
	{ NOTE_GS4, 92 }, 
	{ NOTE_DS4, 88 }, 
	{ NOTE_GS4, 88 }, 
	{ NOTE_FS4, 88 }, 
	{ NOTE_GS4, 88 }, 
	{ NOTE_DS4, 88 }, 
	{ NOTE_GS4, 88 }, 
	{ NOTE_FS4, 88 }, 
	{ NOTE_GS4, 88 }, 
	{ NOTE_DS4, 88 }, 
	{ NOTE_GS4, 88 }, 
	{ NOTE_FS4, 88 }, 
	{ NOTE_GS4, 88 }, 
	{ NOTE_DS4, 88 }, 
	{ NOTE_GS4, 88 }, 
	{ NOTE_FS4, 88 }, 
	{ NOTE_GS4, 92 }, 
	{ NOTE_CS4, 88 }, 
	{ NOTE_GS4, 88 }, 
	{ NOTE_E4, 88 }, 
	{ NOTE_GS4, 88 }, 
	{ NOTE_CS4, 88 }, 
	{ NOTE_GS4, 88 }, 
	{ NOTE_E4, 88 }, 
	{ NOTE_GS4, 88 }, 
	{ NOTE_CS4, 88 }, 
	{ NOTE_GS4, 88 }, 
	{ NOTE_E4, 88 }, 
	{ NOTE_GS4, 88 }, 
	{ NOTE_CS4, 88 }, 
	{ NOTE_GS4, 88 }, 
	{ NOTE_E4, 88 }, 
	{ NOTE_GS4, 92 }, 
	{ NOTE_C4, 88 }, 
	{ NOTE_GS4, 88 }, 
	{ NOTE_FS4, 88 }, 
	{ NOTE_GS4, 88 }, 
	{ NOTE_C4, 88 }, 
	{ NOTE_GS4, 88 }, 
	{ NOTE_FS4, 88 }, 
	{ NOTE_GS4, 88 }, 
	{ NOTE_C4, 88 }, 
	{ NOTE_GS4, 88 }, 
	{ NOTE_FS4, 88 }, 
	{ NOTE_GS4, 88 }, 
	{ NOTE_C4, 88 }, 
	{ NOTE_GS4, 88 }, 
	{ NOTE_FS4, 88 }, 
	{ NOTE_GS4, 92 }, 
	{ NOTE_CS4, 353 }, 
	{ NOTE_GS4, 706 }, 
	{ NOTE_E4, 265 }, 
	{ NOTE_CS4, 88 }, 
	{ NOTE_CS4, 353 }, 
	{ NOTE_C4, 529 }, 
	{ NOTE_C4, 176 }, 
	{ NOTE_GS4, 265 }, 
	{ NOTE_C4, 89 }, 
	{ NOTE_DS4, 353 }, 
	{ NOTE_CS4, 529 }, 
	{ NOTE_CS4, 176 }, 
	{ NOTE_GS4, 265 }, 
	{ NOTE_CS4, 89 }, 
	{ NOTE_E4, 353 }, 
	{ NOTE_DS4, 529 }, 
	{ NOTE_DS4, 176 }, 
	{ NOTE_GS4, 265 }, 
	{ NOTE_DS4, 89 }, 
	{ NOTE_FS4, 176 }, 
	{ NOTE_E4, 176 }, 
	{ NOTE_CS5, 176 }, 
	{ NOTE_E4, 176 }, 
	{ NOTE_FS4, 176 }, 
	{ NOTE_F4, 176 }, 
	{ NOTE_CS5, 176 }, 
	{ NOTE_F4, 180 }, 
	{ NOTE_GS4, 176 }, 
	{ NOTE_FS4, 176 }, 
	{ NOTE_CS5, 176 }, 
	{ NOTE_FS4, 176 }, 
	{ NOTE_A4, 176 }, 
	{ NOTE_GS4, 176 }, 
	{ NOTE_CS5, 176 }, 
	{ NOTE_GS4, 180 }, 
	{ NOTE_A5, 118 }, 
	{ NOTE_FS5, 118 }, 
	{ NOTE_CS5, 118 }, 
	{ NOTE_A4, 118 }, 
	{ NOTE_FS4, 118 }, 
	{ NOTE_CS4, 118 }, 
	{ NOTE_A4, 118 }, 
	{ NOTE_FS4, 118 }, 
	{ NOTE_CS4, 118 }, 
	{ NOTE_A3, 118 }, 
	{ NOTE_FS3, 118 }, 
	{ NOTE_CS3, 114 }, 
	{ NOTE_A3, 88 }, 
	{ NOTE_FS3, 88 }, 
	{ NOTE_CS3, 88 }, 
	{ NOTE_A2, 88 }, 
	{ NOTE_CS3, 88 }, 
	{ NOTE_FS3, 88 }, 
	{ NOTE_A3, 88 }, 
	{ NOTE_CS4, 88 }, 
	{ NOTE_FS4, 88 }, 
	{ NOTE_A4, 88 }, 
	{ NOTE_CS5, 88 }, 
	{ NOTE_FS5, 88 }, 
	{ NOTE_A5, 88 }, 
	{ NOTE_FS5, 88 }, 
	{ NOTE_CS5, 88 }, 
	{ NOTE_A4, 92 }, 
	{ NOTE_A5, 118 }, 
	{ NOTE_FS5, 118 }, 
	{ NOTE_D5, 118 }, 
	{ NOTE_A4, 118 }, 
	{ NOTE_FS4, 118 }, 
	{ NOTE_D4, 118 }, 
	{ NOTE_A4, 118 }, 
	{ NOTE_FS4, 118 }, 
	{ NOTE_D4, 118 }, 
	{ NOTE_A3, 118 }, 
	{ NOTE_FS3, 118 }, 
	{ NOTE_D3, 114 }, 
	{ NOTE_A3, 88 }, 
	{ NOTE_FS3, 88 }, 
	{ NOTE_D3, 88 }, 
	{ NOTE_A2, 88 }, 
	{ NOTE_D3, 88 }, 
	{ NOTE_FS3, 88 }, 
	{ NOTE_A3, 88 }, 
	{ NOTE_E4, 88 }, 
	{ NOTE_FS4, 88 }, 
	{ NOTE_A4, 88 }, 
	{ NOTE_D5, 88 }, 
	{ NOTE_FS5, 88 }, 
	{ NOTE_A5, 88 }, 
	{ NOTE_FS5, 88 }, 
	{ NOTE_D5, 88 }, 
	{ NOTE_A4, 92 }, 
	{ NOTE_CS6, 118 }, 
	{ NOTE_AS5, 118 }, 
	{ NOTE_G5, 118 }, 
	{ NOTE_E5, 118 }, 
	{ NOTE_CS5, 118 }, 
	{ NOTE_AS4, 118 }, 
	{ NOTE_E5, 118 }, 
	{ NOTE_CS5, 118 }, 
	{ NOTE_AS4, 118 }, 
	{ NOTE_G4, 88 }, 
	{ NOTE_E4, 88 }, 
	{ NOTE_CS4, 88 }, 
	{ NOTE_AS3, 86 }, 
	{ NOTE_E4, 88 }, 
	{ NOTE_CS4, 88 }, 
	{ NOTE_AS3, 88 }, 
	{ NOTE_G3, 88 }, 
	{ NOTE_E3, 88 }, 
	{ NOTE_CS3, 88 }, 
	{ NOTE_E3, 88 }, 
	{ NOTE_G3, 88 }, 
	{ NOTE_AS3, 59 }, 
	{ NOTE_CS4, 59 }, 
	{ NOTE_E4, 59 }, 
	{ NOTE_G4, 59 }, 
	{ NOTE_AS4, 59 }, 
	{ NOTE_CS5, 59 }, 
	{ NOTE_E5, 59 }, 
	{ NOTE_G5, 59 }, 
	{ NOTE_AS5, 59 }, 
	{ NOTE_CS6, 59 }, 
	{ NOTE_AS5, 59 }, 
	{ NOTE_E5, 59 }, 
	{ NOTE_E6, 118 }, 
	{ NOTE_CS6, 118 }, 
	{ NOTE_GS5, 118 }, 
	{ NOTE_E5, 118 }, 
	{ NOTE_CS5, 118 }, 
	{ NOTE_GS4, 118 }, 
	{ NOTE_E5, 118 }, 
	{ NOTE_CS5, 118 }, 
	{ NOTE_GS4, 118 }, 
	{ NOTE_E4, 88 }, 
	{ NOTE_CS5, 88 }, 
	{ NOTE_GS4, 88 }, 
	{ NOTE_E4, 86 }, 
	{ NOTE_CS4, 88 }, 
	{ NOTE_GS4, 88 }, 
	{ NOTE_E4, 88 }, 
	{ NOTE_CS4, 88 }, 
	{ NOTE_GS3, 88 }, 
	{ NOTE_E4, 88 }, 
	{ NOTE_CS4, 88 }, 
	{ NOTE_GS3, 88 }, 
	{ NOTE_E3, 88 }, 
	{ NOTE_CS4, 88 }, 
	{ NOTE_GS3, 88 }, 
	{ NOTE_E3, 88 }, 
	{ NOTE_CS3, 88 }, 
	{ NOTE_GS3, 88 }, 
	{ NOTE_E3, 88 }, 
	{ NOTE_CS3, 92 }, 
	{ NOTE_REST, 1412 }, 
	{ NOTE_REST, 706 }, 
	{ NOTE_A4, 71 }, 
	{ NOTE_AS4, 71 }, 
	{ NOTE_B4, 71 }, 
	{ NOTE_C5, 71 }, 
	{ NOTE_CS5, 71 }, 
	{ NOTE_D5, 59 }, 
	{ NOTE_DS5, 59 }, 
	{ NOTE_E5, 59 }, 
	{ NOTE_F5, 44 }, 
	{ NOTE_FS5, 44 }, 
	{ NOTE_G5, 44 }, 
	{ NOTE_GS5, 42 }, 
	{ NOTE_A5, 353 }, 
	{ NOTE_GS5, 353 }, 
	{ NOTE_A5, 265 }, 
	{ NOTE_GS5, 265 }, 
	{ NOTE_A5, 176 }, 
	{ NOTE_GS5, 176 }, 
	{ NOTE_A5, 132 }, 
	{ NOTE_GS5, 132 }, 
	{ NOTE_A5, 88 }, 
	{ NOTE_GS5, 88 }, 
	{ NOTE_A5, 88 }, 
	{ NOTE_GS5, 88 }, 
	{ NOTE_A5, 88 }, 
	{ NOTE_GS5, 88 }, 
	{ NOTE_A5, 88 }, 
	{ NOTE_A5, 88 }, 
	{ NOTE_GS5, 88 }, 
	{ NOTE_A5, 88 }, 
	{ NOTE_GS5, 92 }, 
	{ NOTE_GS5, 176 }, 
	{ NOTE_FS5, 176 }, 
	{ NOTE_E5, 176 }, 
	{ NOTE_DS5, 176 }, 
	{ NOTE_FS5, 176 }, 
	{ NOTE_CS5, 176 }, 
	{ NOTE_C5, 176 }, 
	{ NOTE_DS5, 180 }, 
	{ NOTE_A4, 176 }, 
	{ NOTE_GS4, 176 }, 
	{ NOTE_FS4, 176 }, 
	{ NOTE_A4, 176 }, 
	{ NOTE_E4, 176 }, 
	{ NOTE_DS4, 176 }, 
	{ NOTE_FS4, 176 }, 
	{ NOTE_CS4, 180 }, 
	{ NOTE_C4, 176 }, 
	{ NOTE_DS4, 176 }, 
	{ NOTE_A3, 176 }, 
	{ NOTE_GS3, 176 }, 
	{ NOTE_FS3, 176 }, 
	{ NOTE_A3, 176 }, 
	{ NOTE_E3, 176 }, 
	{ NOTE_DS3, 180 }, 
	{ NOTE_FS3, 176 }, 
	{ NOTE_CS3, 265 }, 
	{ NOTE_C3, 265 }, 
	{ NOTE_DS3, 235 }, 
	{ NOTE_A2, 235 }, 
	{ NOTE_GS2, 236 }, 
	{ NOTE_REST, 1412 }, 
	{ NOTE_REST, 1412 }, 
	{ NOTE_CS3, 1059 }, 
	{ NOTE_E4, 265 }, 
	{ NOTE_CS4, 88 }, 
	{ NOTE_C4, 353 }, 
	{ NOTE_FS3, 353 }, 
	{ NOTE_FS3, 353 }, 
	{ NOTE_FS3, 353 }, 
	{ NOTE_E3, 44 }, 
	{ NOTE_CS4, 44 }, 
	{ NOTE_GS4, 971 }, 
	{ NOTE_E5, 265 }, 
	{ NOTE_CS5, 88 }, 
	{ NOTE_C5, 353 }, 
	{ NOTE_FS4, 353 }, 
	{ NOTE_FS4, 353 }, 
	{ NOTE_FS4, 353 }, 
	{ NOTE_E4, 44 }, 
	{ NOTE_CS5, 44 }, 
	{ NOTE_GS5, 618 }, 
	{ NOTE_FS4, 44 }, 
	{ NOTE_C5, 44 }, 
	{ NOTE_GS5, 618 }, 
	{ NOTE_E4, 44 }, 
	{ NOTE_CS5, 44 }, 
	{ NOTE_GS5, 618 }, 
	{ NOTE_FS4, 44 }, 
	{ NOTE_C5, 44 }, 
	{ NOTE_GS5, 618 }, 
	{ NOTE_GS5, 88 }, 
	{ NOTE_E4, 88 }, 
	{ NOTE_GS4, 88 }, 
	{ NOTE_CS5, 88 }, 
	{ NOTE_E5, 88 }, 
	{ NOTE_GS4, 88 }, 
	{ NOTE_CS5, 88 }, 
	{ NOTE_E5, 88 }, 
	{ NOTE_GS5, 88 }, 
	{ NOTE_CS5, 88 }, 
	{ NOTE_E5, 88 }, 
	{ NOTE_GS5, 88 }, 
	{ NOTE_CS6, 88 }, 
	{ NOTE_E5, 88 }, 
	{ NOTE_GS5, 88 }, 
	{ NOTE_CS6, 92 }, 
	{ NOTE_E6, 88 }, 
	{ NOTE_CS6, 88 }, 
	{ NOTE_GS5, 88 }, 
	{ NOTE_E5, 88 }, 
	{ NOTE_CS6, 88 }, 
	{ NOTE_GS5, 88 }, 
	{ NOTE_E5, 88 }, 
	{ NOTE_CS5, 88 }, 
	{ NOTE_GS5, 88 }, 
	{ NOTE_E5, 88 }, 
	{ NOTE_CS5, 88 }, 
	{ NOTE_GS4, 88 }, 
	{ NOTE_E5, 88 }, 
	{ NOTE_CS5, 88 }, 
	{ NOTE_GS4, 88 }, 
	{ NOTE_E4, 92 }, 
	{ NOTE_CS5, 88 }, 
	{ NOTE_GS4, 88 }, 
	{ NOTE_E4, 88 }, 
	{ NOTE_CS4, 88 }, 
	{ NOTE_GS4, 88 }, 
	{ NOTE_E4, 88 }, 
	{ NOTE_CS4, 88 }, 
	{ NOTE_GS3, 88 }, 
	{ NOTE_E4, 88 }, 
	{ NOTE_CS4, 88 }, 
	{ NOTE_GS3, 88 }, 
	{ NOTE_E3, 88 }, 
	{ NOTE_CS4, 88 }, 
	{ NOTE_GS3, 88 }, 
	{ NOTE_E3, 88 }, 
	{ NOTE_GS3, 92 }, 
	{ NOTE_REST, 706 }, 
	{ NOTE_CS5, 353 }, 
	{ NOTE_REST, 353 }, 
	{ NOTE_CS4, 353 }, 
	{ NOTE_REST, 353 }, 
	{ NOTE_REST, 706 }, 
	{ NOTE_REST, 1412 }, 
};
const uint16_t NUM_OF_NOTES0 = sizeof(melody0)/sizeof(melody0[0]);

const Note melody1[] PROGMEM = {
	{ NOTE_REST, 88 }, 
	{ NOTE_GS2, 88 }, 
	{ NOTE_CS3, 88 }, 
	{ NOTE_E3, 88 }, 
	{ NOTE_GS3, 88 }, 
	{ NOTE_CS3, 88 }, 
	{ NOTE_E3, 88 }, 
	{ NOTE_GS3, 88 }, 
	{ NOTE_CS4, 88 }, 
	{ NOTE_E3, 88 }, 
	{ NOTE_GS3, 88 }, 
	{ NOTE_CS4, 88 }, 
	{ NOTE_E4, 88 }, 
	{ NOTE_E3, 88 }, 
	{ NOTE_CS4, 88 }, 
	{ NOTE_E4, 92 }, 
	{ NOTE_GS4, 88 }, 
	{ NOTE_CS4, 88 }, 
	{ NOTE_E4, 88 }, 
	{ NOTE_GS4, 88 }, 
	{ NOTE_CS5, 88 }, 
	{ NOTE_E4, 88 }, 
	{ NOTE_GS4, 88 }, 
	{ NOTE_CS5, 88 }, 
	{ NOTE_E5, 88 }, 
	{ NOTE_GS4, 88 }, 
	{ NOTE_CS5, 88 }, 
	{ NOTE_E5, 88 }, 
	{ NOTE_CS5, 176 }, 
	{ NOTE_CS5, 180 }, 
	{ NOTE_REST, 88 }, 
	{ NOTE_GS2, 88 }, 
	{ NOTE_C3, 88 }, 
	{ NOTE_DS3, 88 }, 
	{ NOTE_GS3, 88 }, 
	{ NOTE_C3, 88 }, 
	{ NOTE_DS3, 88 }, 
	{ NOTE_GS3, 88 }, 
	{ NOTE_C4, 88 }, 
	{ NOTE_DS3, 88 }, 
	{ NOTE_GS3, 88 }, 
	{ NOTE_C4, 88 }, 
	{ NOTE_DS4, 88 }, 
	{ NOTE_GS3, 88 }, 
	{ NOTE_C4, 88 }, 
	{ NOTE_DS4, 92 }, 
	{ NOTE_GS4, 88 }, 
	{ NOTE_C4, 88 }, 
	{ NOTE_DS4, 88 }, 
	{ NOTE_GS4, 88 }, 
	{ NOTE_C5, 88 }, 
	{ NOTE_DS4, 88 }, 
	{ NOTE_GS4, 88 }, 
	{ NOTE_C5, 88 }, 
	{ NOTE_DS5, 88 }, 
	{ NOTE_GS4, 88 }, 
	{ NOTE_C5, 88 }, 
	{ NOTE_DS5, 88 }, 
	{ NOTE_C5, 176 }, 
	{ NOTE_C5, 180 }, 
	{ NOTE_REST, 88 }, 
	{ NOTE_CS3, 88 }, 
	{ NOTE_F3, 88 }, 
	{ NOTE_GS3, 88 }, 
	{ NOTE_CS4, 88 }, 
	{ NOTE_F3, 88 }, 
	{ NOTE_GS3, 88 }, 
	{ NOTE_CS4, 88 }, 
	{ NOTE_F4, 88 }, 
	{ NOTE_GS3, 88 }, 
	{ NOTE_CS4, 88 }, 
	{ NOTE_F4, 88 }, 
	{ NOTE_GS4, 88 }, 
	{ NOTE_CS4, 88 }, 
	{ NOTE_F4, 88 }, 
	{ NOTE_GS4, 92 }, 
	{ NOTE_CS5, 88 }, 
	{ NOTE_F4, 88 }, 
	{ NOTE_GS4, 88 }, 
	{ NOTE_CS5, 88 }, 
	{ NOTE_F5, 88 }, 
	{ NOTE_GS4, 88 }, 
	{ NOTE_CS5, 88 }, 
	{ NOTE_F5, 88 }, 
	{ NOTE_GS5, 88 }, 
	{ NOTE_CS5, 88 }, 
	{ NOTE_F5, 88 }, 
	{ NOTE_GS5, 88 }, 
	{ NOTE_F5, 176 }, 
	{ NOTE_F5, 180 }, 
	{ NOTE_REST, 88 }, 
	{ NOTE_CS3, 88 }, 
	{ NOTE_FS3, 88 }, 
	{ NOTE_A3, 88 }, 
	{ NOTE_CS4, 88 }, 
	{ NOTE_CS4, 88 }, 
	{ NOTE_FS4, 88 }, 
	{ NOTE_A4, 88 }, 
	{ NOTE_CS5, 88 }, 
	{ NOTE_CS5, 88 }, 
	{ NOTE_FS5, 88 }, 
	{ NOTE_A5, 88 }, 
	{ NOTE_FS5, 176 }, 
	{ NOTE_FS5, 180 }, 
	{ NOTE_REST, 88 }, 
	{ NOTE_CS3, 88 }, 
	{ NOTE_E3, 88 }, 
	{ NOTE_G3, 88 }, 
	{ NOTE_CS4, 88 }, 
	{ NOTE_CS4, 88 }, 
	{ NOTE_E4, 88 }, 
	{ NOTE_G4, 88 }, 
	{ NOTE_CS5, 88 }, 
	{ NOTE_CS5, 88 }, 
	{ NOTE_E5, 88 }, 
	{ NOTE_G5, 88 }, 
	{ NOTE_G5, 176 }, 
	{ NOTE_G5, 180 }, 
	{ NOTE_GS5, 176 }, 
	{ NOTE_GS4, 88 }, 
	{ NOTE_GS5, 88 }, 
	{ NOTE_GS4, 88 }, 
	{ NOTE_GS5, 88 }, 
	{ NOTE_AS4, 88 }, 
	{ NOTE_GS5, 88 }, 
	{ NOTE_C5, 88 }, 
	{ NOTE_GS5, 88 }, 
	{ NOTE_CS5, 88 }, 
	{ NOTE_GS5, 88 }, 
	{ NOTE_DS5, 88 }, 
	{ NOTE_GS5, 88 }, 
	{ NOTE_C5, 88 }, 
	{ NOTE_GS5, 92 }, 
	{ NOTE_DS5, 88 }, 
	{ NOTE_GS5, 88 }, 
	{ NOTE_CS5, 88 }, 
	{ NOTE_GS5, 88 }, 
	{ NOTE_FS5, 88 }, 
	{ NOTE_GS5, 88 }, 
	{ NOTE_E5, 88 }, 
	{ NOTE_GS5, 88 }, 
	{ NOTE_DS5, 88 }, 
	{ NOTE_GS5, 88 }, 
	{ NOTE_CS5, 88 }, 
	{ NOTE_GS5, 88 }, 
	{ NOTE_C5, 88 }, 
	{ NOTE_GS5, 88 }, 
	{ NOTE_A4, 88 }, 
	{ NOTE_G5, 92 }, 
	{ NOTE_GS4, 88 }, 
	{ NOTE_GS5, 88 }, 
	{ NOTE_GS4, 88 }, 
	{ NOTE_GS5, 88 }, 
	{ NOTE_GS4, 88 }, 
	{ NOTE_GS5, 88 }, 
	{ NOTE_AS4, 88 }, 
	{ NOTE_GS5, 88 }, 
	{ NOTE_C5, 88 }, 
	{ NOTE_GS5, 88 }, 
	{ NOTE_CS5, 88 }, 
	{ NOTE_GS5, 88 }, 
	{ NOTE_DS5, 88 }, 
	{ NOTE_GS5, 88 }, 
	{ NOTE_C5, 88 }, 
	{ NOTE_GS5, 92 }, 
	{ NOTE_DS5, 88 }, 
	{ NOTE_GS5, 88 }, 
	{ NOTE_CS5, 88 }, 
	{ NOTE_GS5, 88 }, 
	{ NOTE_FS5, 88 }, 
	{ NOTE_GS5, 88 }, 
	{ NOTE_E5, 88 }, 
	{ NOTE_GS5, 88 }, 
	{ NOTE_DS5, 88 }, 
	{ NOTE_GS5, 88 }, 
	{ NOTE_CS5, 88 }, 
	{ NOTE_GS5, 88 }, 
	{ NOTE_C5, 88 }, 
	{ NOTE_GS5, 88 }, 
	{ NOTE_A4, 88 }, 
	{ NOTE_G5, 92 }, 
	{ NOTE_GS4, 88 }, 
	{ NOTE_GS5, 88 }, 
	{ NOTE_A4, 88 }, 
	{ NOTE_G5, 88 }, 
	{ NOTE_GS4, 88 }, 
	{ NOTE_GS5, 88 }, 
	{ NOTE_A4, 88 }, 
	{ NOTE_G5, 88 }, 
	{ NOTE_GS4, 88 }, 
	{ NOTE_GS5, 88 }, 
	{ NOTE_A4, 88 }, 
	{ NOTE_G5, 88 }, 
	{ NOTE_GS4, 88 }, 
	{ NOTE_GS5, 88 }, 
	{ NOTE_A4, 88 }, 
	{ NOTE_G5, 92 }, 
	{ NOTE_GS5, 353 }, 
	{ NOTE_GS3, 1059 }, 
	{ NOTE_REST, 88 }, 
	{ NOTE_GS2, 88 }, 
	{ NOTE_CS3, 88 }, 
	{ NOTE_E3, 88 }, 
	{ NOTE_GS3, 88 }, 
	{ NOTE_CS3, 88 }, 
	{ NOTE_E3, 88 }, 
	{ NOTE_GS3, 88 }, 
	{ NOTE_CS4, 88 }, 
	{ NOTE_E3, 88 }, 
	{ NOTE_GS3, 88 }, 
	{ NOTE_CS4, 88 }, 
	{ NOTE_E4, 88 }, 
	{ NOTE_E3, 88 }, 
	{ NOTE_CS4, 88 }, 
	{ NOTE_E4, 92 }, 
	{ NOTE_GS4, 88 }, 
	{ NOTE_CS4, 88 }, 
	{ NOTE_E4, 88 }, 
	{ NOTE_GS4, 88 }, 
	{ NOTE_CS5, 88 }, 
	{ NOTE_E4, 88 }, 
	{ NOTE_GS4, 88 }, 
	{ NOTE_CS5, 88 }, 
	{ NOTE_E5, 88 }, 
	{ NOTE_E5, 88 }, 
	{ NOTE_GS5, 88 }, 
	{ NOTE_CS6, 88 }, 
	{ NOTE_E6, 176 }, 
	{ NOTE_E6, 180 }, 
	{ NOTE_REST, 88 }, 
	{ NOTE_E3, 88 }, 
	{ NOTE_G3, 88 }, 
	{ NOTE_CS4, 88 }, 
	{ NOTE_E4, 88 }, 
	{ NOTE_G3, 88 }, 
	{ NOTE_CS4, 88 }, 
	{ NOTE_E4, 88 }, 
	{ NOTE_G4, 88 }, 
	{ NOTE_CS4, 88 }, 
	{ NOTE_E4, 88 }, 
	{ NOTE_G4, 88 }, 
	{ NOTE_CS5, 88 }, 
	{ NOTE_E4, 88 }, 
	{ NOTE_G4, 88 }, 
	{ NOTE_CS5, 92 }, 
	{ NOTE_E5, 88 }, 
	{ NOTE_G4, 88 }, 
	{ NOTE_CS5, 88 }, 
	{ NOTE_E5, 88 }, 
	{ NOTE_G5, 88 }, 
	{ NOTE_CS5, 88 }, 
	{ NOTE_E5, 88 }, 
	{ NOTE_G5, 88 }, 
	{ NOTE_CS6, 88 }, 
	{ NOTE_E5, 88 }, 
	{ NOTE_G5, 88 }, 
	{ NOTE_CS6, 88 }, 
	{ NOTE_E6, 176 }, 
	{ NOTE_E6, 180 }, 
	{ NOTE_REST, 88 }, 
	{ NOTE_DS3, 88 }, 
	{ NOTE_AS3, 88 }, 
	{ NOTE_CS4, 88 }, 
	{ NOTE_DS4, 88 }, 
	{ NOTE_AS3, 88 }, 
	{ NOTE_CS4, 88 }, 
	{ NOTE_DS4, 88 }, 
	{ NOTE_AS4, 88 }, 
	{ NOTE_CS4, 88 }, 
	{ NOTE_DS4, 88 }, 
	{ NOTE_AS4, 88 }, 
	{ NOTE_CS5, 88 }, 
	{ NOTE_DS4, 88 }, 
	{ NOTE_AS4, 88 }, 
	{ NOTE_CS5, 92 }, 
	{ NOTE_DS5, 88 }, 
	{ NOTE_AS4, 88 }, 
	{ NOTE_CS5, 88 }, 
	{ NOTE_DS5, 88 }, 
	{ NOTE_AS5, 88 }, 
	{ NOTE_CS5, 88 }, 
	{ NOTE_DS5, 88 }, 
	{ NOTE_AS5, 88 }, 
	{ NOTE_CS6, 88 }, 
	{ NOTE_AS5, 88 }, 
	{ NOTE_DS5, 88 }, 
	{ NOTE_CS5, 88 }, 
	{ NOTE_AS5, 88 }, 
	{ NOTE_DS5, 88 }, 
	{ NOTE_CS5, 88 }, 
	{ NOTE_AS4, 92 }, 
	{ NOTE_B4, 353 }, 
	{ NOTE_DS5, 706 }, 
	{ NOTE_B4, 265 }, 
	{ NOTE_GS4, 88 }, 
	{ NOTE_G4, 59 }, 
	{ NOTE_GS4, 59 }, 
	{ NOTE_AS4, 59 }, 
	{ NOTE_GS4, 176 }, 
	{ NOTE_G4, 529 }, 
	{ NOTE_G4, 176 }, 
	{ NOTE_DS5, 265 }, 
	{ NOTE_G4, 89 }, 
	{ NOTE_AS4, 353 }, 
	{ NOTE_GS4, 529 }, 
	{ NOTE_GS4, 176 }, 
	{ NOTE_DS5, 265 }, 
	{ NOTE_GS4, 89 }, 
	{ NOTE_B4, 353 }, 
	{ NOTE_AS4, 529 }, 
	{ NOTE_AS4, 176 }, 
	{ NOTE_DS5, 265 }, 
	{ NOTE_AS4, 89 }, 
	{ NOTE_B4, 176 }, 
	{ NOTE_DS6, 353 }, 
	{ NOTE_DS6, 353 }, 
	{ NOTE_DS6, 176 }, 
	{ NOTE_B5, 176 }, 
	{ NOTE_GS5, 178 }, 
	{ NOTE_GS5, 176 }, 
	{ NOTE_G5, 353 }, 
	{ NOTE_G5, 353 }, 
	{ NOTE_G5, 176 }, 
	{ NOTE_DS6, 176 }, 
	{ NOTE_G5, 178 }, 
	{ NOTE_AS5, 176 }, 
	{ NOTE_GS5, 353 }, 
	{ NOTE_GS5, 353 }, 
	{ NOTE_GS5, 176 }, 
	{ NOTE_DS6, 176 }, 
	{ NOTE_GS5, 178 }, 
	{ NOTE_B5, 176 }, 
	{ NOTE_AS5, 353 }, 
	{ NOTE_AS5, 353 }, 
	{ NOTE_AS5, 176 }, 
	{ NOTE_DS6, 176 }, 
	{ NOTE_AS5, 178 }, 
	{ NOTE_C6, 706 }, 
	{ NOTE_CS6, 706 }, 
	{ NOTE_AS5, 88 }, 
	{ NOTE_GS5, 88 }, 
	{ NOTE_AS5, 88 }, 
	{ NOTE_GS5, 88 }, 
	{ NOTE_B5, 1060 }, 
	{ NOTE_GS5, 706 }, 
	{ NOTE_A5, 706 }, 
	{ NOTE_G5, 88 }, 
	{ NOTE_F5, 88 }, 
	{ NOTE_G5, 88 }, 
	{ NOTE_F5, 88 }, 
	{ NOTE_GS5, 1060 }, 
	{ NOTE_CS5, 794 }, 
	{ NOTE_E5, 88 }, 
	{ NOTE_FS5, 88 }, 
	{ NOTE_GS5, 88 }, 
	{ NOTE_A5, 88 }, 
	{ NOTE_B5, 88 }, 
	{ NOTE_CS6, 88 }, 
	{ NOTE_B5, 90 }, 
	{ NOTE_A5, 88 }, 
	{ NOTE_E5, 88 }, 
	{ NOTE_FS5, 88 }, 
	{ NOTE_GS5, 88 }, 
	{ NOTE_A5, 88 }, 
	{ NOTE_B5, 88 }, 
	{ NOTE_CS6, 88 }, 
	{ NOTE_B5, 88 }, 
	{ NOTE_A5, 88 }, 
	{ NOTE_E5, 88 }, 
	{ NOTE_FS5, 88 }, 
	{ NOTE_GS5, 88 }, 
	{ NOTE_A5, 88 }, 
	{ NOTE_B5, 88 }, 
	{ NOTE_CS6, 88 }, 
	{ NOTE_B5, 92 }, 
	{ NOTE_A5, 88 }, 
	{ NOTE_E4, 3530 }, 
	{ NOTE_E4, 88 }, 
	{ NOTE_FS4, 88 }, 
	{ NOTE_GS4, 88 }, 
	{ NOTE_A4, 88 }, 
	{ NOTE_B4, 88 }, 
	{ NOTE_CS5, 88 }, 
	{ NOTE_B4, 90 }, 
	{ NOTE_A4, 88 }, 
	{ NOTE_E4, 88 }, 
	{ NOTE_FS4, 88 }, 
	{ NOTE_GS4, 88 }, 
	{ NOTE_A4, 88 }, 
	{ NOTE_B4, 88 }, 
	{ NOTE_CS5, 88 }, 
	{ NOTE_B4, 88 }, 
	{ NOTE_A4, 88 }, 
	{ NOTE_E4, 88 }, 
	{ NOTE_FS4, 88 }, 
	{ NOTE_GS4, 88 }, 
	{ NOTE_A4, 88 }, 
	{ NOTE_B4, 88 }, 
	{ NOTE_CS5, 88 }, 
	{ NOTE_B4, 92 }, 
	{ NOTE_A4, 88 }, 
	{ NOTE_E4, 88 }, 
	{ NOTE_FS4, 88 }, 
	{ NOTE_GS4, 88 }, 
	{ NOTE_A4, 88 }, 
	{ NOTE_B4, 88 }, 
	{ NOTE_CS5, 88 }, 
	{ NOTE_B4, 88 }, 
	{ NOTE_A4, 88 }, 
	{ NOTE_E4, 88 }, 
	{ NOTE_FS4, 88 }, 
	{ NOTE_GS4, 88 }, 
	{ NOTE_A4, 88 }, 
	{ NOTE_B4, 88 }, 
	{ NOTE_CS5, 88 }, 
	{ NOTE_B4, 92 }, 
	{ NOTE_A4, 88 }, 
	{ NOTE_E4, 88 }, 
	{ NOTE_FS4, 88 }, 
	{ NOTE_GS4, 88 }, 
	{ NOTE_A4, 88 }, 
	{ NOTE_B4, 88 }, 
	{ NOTE_CS5, 88 }, 
	{ NOTE_D5, 88 }, 
	{ NOTE_E5, 88 }, 
	{ NOTE_FS5, 88 }, 
	{ NOTE_GS5, 88 }, 
	{ NOTE_A5, 88 }, 
	{ NOTE_B5, 88 }, 
	{ NOTE_CS6, 88 }, 
	{ NOTE_D6, 88 }, 
	{ NOTE_DS6, 92 }, 
	{ NOTE_E6, 706 }, 
	{ NOTE_GS5, 706 }, 
	{ NOTE_B5, 706 }, 
	{ NOTE_CS4, 706 }, 
	{ NOTE_B3, 176 }, 
	{ NOTE_B4, 176 }, 
	{ NOTE_B4, 176 }, 
	{ NOTE_B4, 176 }, 
	{ NOTE_B4, 176 }, 
	{ NOTE_B4, 176 }, 
	{ NOTE_AS4, 176 }, 
	{ NOTE_GS4, 180 }, 
	{ NOTE_G4, 176 }, 
	{ NOTE_DS5, 176 }, 
	{ NOTE_DS5, 176 }, 
	{ NOTE_DS5, 176 }, 
	{ NOTE_DS5, 176 }, 
	{ NOTE_DS5, 176 }, 
	{ NOTE_DS5, 176 }, 
	{ NOTE_DS5, 180 }, 
	{ NOTE_DS5, 176 }, 
	{ NOTE_B4, 176 }, 
	{ NOTE_B4, 176 }, 
	{ NOTE_B4, 176 }, 
	{ NOTE_B4, 176 }, 
	{ NOTE_B4, 176 }, 
	{ NOTE_AS4, 176 }, 
	{ NOTE_GS4, 180 }, 
	{ NOTE_G4, 176 }, 
	{ NOTE_DS5, 176 }, 
	{ NOTE_DS5, 176 }, 
	{ NOTE_DS5, 176 }, 
	{ NOTE_DS5, 176 }, 
	{ NOTE_DS5, 176 }, 
	{ NOTE_DS5, 176 }, 
	{ NOTE_DS5, 180 }, 
	{ NOTE_DS5, 176 }, 
	{ NOTE_DS5, 176 }, 
	{ NOTE_DS5, 176 }, 
	{ NOTE_B4, 176 }, 
	{ NOTE_REST, 176 }, 
	{ NOTE_E5, 176 }, 
	{ NOTE_E5, 176 }, 
	{ NOTE_CS5, 180 }, 
	{ NOTE_REST, 176 }, 
	{ NOTE_DS5, 176 }, 
	{ NOTE_DS5, 176 }, 
	{ NOTE_B4, 176 }, 
	{ NOTE_REST, 176 }, 
	{ NOTE_DS5, 176 }, 
	{ NOTE_DS5, 176 }, 
	{ NOTE_AS4, 180 }, 
	{ NOTE_B4, 176 }, 
	{ NOTE_DS5, 176 }, 
	{ NOTE_DS5, 176 }, 
	{ NOTE_DS5, 176 }, 
	{ NOTE_DS5, 176 }, 
	{ NOTE_DS5, 176 }, 
	{ NOTE_CS5, 176 }, 
	{ NOTE_B4, 180 }, 
	{ NOTE_AS4, 176 }, 
	{ NOTE_G5, 176 }, 
	{ NOTE_G5, 176 }, 
	{ NOTE_G5, 176 }, 
	{ NOTE_G5, 176 }, 
	{ NOTE_G5, 176 }, 
	{ NOTE_G5, 176 }, 
	{ NOTE_G5, 180 }, 
	{ NOTE_GS5, 176 }, 
	{ NOTE_DS5, 176 }, 
	{ NOTE_DS5, 176 }, 
	{ NOTE_DS5, 176 }, 
	{ NOTE_DS5, 176 }, 
	{ NOTE_DS5, 176 }, 
	{ NOTE_CS5, 176 }, 
	{ NOTE_B4, 180 }, 
	{ NOTE_AS4, 176 }, 
	{ NOTE_G5, 176 }, 
	{ NOTE_G5, 176 }, 
	{ NOTE_G5, 176 }, 
	{ NOTE_G5, 176 }, 
	{ NOTE_G5, 176 }, 
	{ NOTE_G5, 176 }, 
	{ NOTE_G5, 180 }, 
	{ NOTE_GS5, 176 }, 
	{ NOTE_B5, 176 }, 
	{ NOTE_B5, 176 }, 
	{ NOTE_DS6, 176 }, 
	{ NOTE_REST, 176 }, 
	{ NOTE_CS6, 176 }, 
	{ NOTE_CS6, 176 }, 
	{ NOTE_E6, 180 }, 
	{ NOTE_REST, 176 }, 
	{ NOTE_B5, 176 }, 
	{ NOTE_B5, 176 }, 
	{ NOTE_DS6, 176 }, 
	{ NOTE_REST, 176 }, 
	{ NOTE_AS5, 176 }, 
	{ NOTE_AS5, 176 }, 
	{ NOTE_DS6, 180 }, 
	{ NOTE_REST, 176 }, 
	{ NOTE_B5, 176 }, 
	{ NOTE_B5, 176 }, 
	{ NOTE_DS6, 176 }, 
	{ NOTE_REST, 176 }, 
	{ NOTE_A5, 176 }, 
	{ NOTE_A5, 176 }, 
	{ NOTE_CS6, 180 }, 
	{ NOTE_REST, 176 }, 
	{ NOTE_GS5, 176 }, 
	{ NOTE_GS5, 176 }, 
	{ NOTE_B5, 176 }, 
	{ NOTE_REST, 176 }, 
	{ NOTE_G5, 176 }, 
	{ NOTE_G5, 176 }, 
	{ NOTE_AS5, 180 }, 
	{ NOTE_GS5, 353 }, 
	{ NOTE_REST, 353 }, 
	{ NOTE_REST, 353 }, 
	{ NOTE_B4, 265 }, 
	{ NOTE_GS4, 88 }, 
	{ NOTE_G4, 353 }, 
	{ NOTE_G4, 353 }, 
	{ NOTE_G4, 353 }, 
	{ NOTE_G4, 353 }, 
	{ NOTE_E4, 0 }, 
	{ NOTE_DS5, 1059 }, 
	{ NOTE_B5, 265 }, 
	{ NOTE_GS5, 88 }, 
	{ NOTE_G5, 353 }, 
	{ NOTE_G5, 353 }, 
	{ NOTE_G5, 353 }, 
	{ NOTE_G5, 353 }, 
	{ NOTE_B4, 44 }, 
	{ NOTE_GS5, 44 }, 
	{ NOTE_DS6, 618 }, 
	{ NOTE_CS5, 44 }, 
	{ NOTE_G5, 44 }, 
	{ NOTE_DS6, 618 }, 
	{ NOTE_B4, 44 }, 
	{ NOTE_GS5, 44 }, 
	{ NOTE_DS6, 618 }, 
	{ NOTE_CS5, 44 }, 
	{ NOTE_G5, 44 }, 
	{ NOTE_DS6, 618 }, 
	{ NOTE_B3, 88 }, 
	{ NOTE_GS4, 88 }, 
	{ NOTE_DS4, 88 }, 
	{ NOTE_GS4, 88 }, 
	{ NOTE_B3, 88 }, 
	{ NOTE_GS4, 88 }, 
	{ NOTE_DS4, 88 }, 
	{ NOTE_GS4, 88 }, 
	{ NOTE_B3, 88 }, 
	{ NOTE_GS4, 88 }, 
	{ NOTE_DS4, 88 }, 
	{ NOTE_GS4, 88 }, 
	{ NOTE_B3, 88 }, 
	{ NOTE_GS4, 88 }, 
	{ NOTE_DS4, 88 }, 
	{ NOTE_GS4, 92 }, 
	{ NOTE_C4, 88 }, 
	{ NOTE_FS4, 88 }, 
	{ NOTE_DS4, 88 }, 
	{ NOTE_FS4, 88 }, 
	{ NOTE_C4, 88 }, 
	{ NOTE_FS4, 88 }, 
	{ NOTE_DS4, 88 }, 
	{ NOTE_FS4, 88 }, 
	{ NOTE_C4, 88 }, 
	{ NOTE_FS4, 88 }, 
	{ NOTE_DS4, 88 }, 
	{ NOTE_FS4, 88 }, 
	{ NOTE_C4, 88 }, 
	{ NOTE_FS4, 88 }, 
	{ NOTE_DS4, 88 }, 
	{ NOTE_FS4, 92 }, 
	{ NOTE_GS3, 88 }, 
	{ NOTE_GS2, 88 }, 
	{ NOTE_CS3, 88 }, 
	{ NOTE_E3, 88 }, 
	{ NOTE_GS3, 88 }, 
	{ NOTE_CS3, 88 }, 
	{ NOTE_E3, 88 }, 
	{ NOTE_GS3, 88 }, 
	{ NOTE_CS4, 88 }, 
	{ NOTE_E3, 88 }, 
	{ NOTE_GS3, 88 }, 
	{ NOTE_CS4, 88 }, 
	{ NOTE_E4, 88 }, 
	{ NOTE_GS3, 88 }, 
	{ NOTE_CS4, 88 }, 
	{ NOTE_E4, 92 }, 
	{ NOTE_GS3, 88 }, 
	{ NOTE_CS3, 88 }, 
	{ NOTE_E3, 88 }, 
	{ NOTE_GS3, 88 }, 
	{ NOTE_CS4, 88 }, 
	{ NOTE_E3, 88 }, 
	{ NOTE_GS3, 88 }, 
	{ NOTE_CS4, 88 }, 
	{ NOTE_F4, 88 }, 
	{ NOTE_GS3, 88 }, 
	{ NOTE_CS4, 88 }, 
	{ NOTE_F4, 88 }, 
	{ NOTE_GS4, 88 }, 
	{ NOTE_CS4, 88 }, 
	{ NOTE_F4, 88 }, 
	{ NOTE_GS4, 92 }, 
	{ NOTE_CS5, 88 }, 
	{ NOTE_F4, 88 }, 
	{ NOTE_GS4, 88 }, 
	{ NOTE_CS5, 88 }, 
	{ NOTE_F5, 88 }, 
	{ NOTE_GS4, 88 }, 
	{ NOTE_CS5, 88 }, 
	{ NOTE_F5, 88 }, 
	{ NOTE_GS5, 88 }, 
	{ NOTE_CS5, 88 }, 
	{ NOTE_F5, 88 }, 
	{ NOTE_GS5, 88 }, 
	{ NOTE_F5, 176 }, 
	{ NOTE_F5, 180 }, 
	{ NOTE_REST, 88 }, 
	{ NOTE_CS3, 88 }, 
	{ NOTE_F3, 88 }, 
	{ NOTE_GS3, 88 }, 
	{ NOTE_CS4, 88 }, 
	{ NOTE_F3, 88 }, 
	{ NOTE_GS3, 88 }, 
	{ NOTE_CS4, 88 }, 
	{ NOTE_F4, 88 }, 
	{ NOTE_GS3, 88 }, 
	{ NOTE_CS4, 88 }, 
	{ NOTE_F4, 88 }, 
	{ NOTE_GS4, 88 }, 
	{ NOTE_CS4, 88 }, 
	{ NOTE_F4, 88 }, 
	{ NOTE_GS4, 92 }, 
	{ NOTE_CS5, 88 }, 
	{ NOTE_F4, 88 }, 
	{ NOTE_GS4, 88 }, 
	{ NOTE_CS5, 88 }, 
	{ NOTE_F5, 88 }, 
	{ NOTE_GS4, 88 }, 
	{ NOTE_CS5, 88 }, 
	{ NOTE_F5, 88 }, 
	{ NOTE_GS5, 88 }, 
	{ NOTE_CS5, 88 }, 
	{ NOTE_F5, 88 }, 
	{ NOTE_GS5, 88 }, 
	{ NOTE_F5, 176 }, 
	{ NOTE_F5, 180 }, 
	{ NOTE_REST, 88 }, 
	{ NOTE_CS3, 88 }, 
	{ NOTE_FS3, 88 }, 
	{ NOTE_A3, 88 }, 
	{ NOTE_CS4, 88 }, 
	{ NOTE_CS4, 88 }, 
	{ NOTE_FS4, 88 }, 
	{ NOTE_A4, 88 }, 
	{ NOTE_CS5, 88 }, 
	{ NOTE_CS5, 88 }, 
	{ NOTE_FS5, 88 }, 
	{ NOTE_A5, 88 }, 
	{ NOTE_FS5, 176 }, 
	{ NOTE_FS5, 180 }, 
	{ NOTE_REST, 88 }, 
	{ NOTE_CS3, 88 }, 
	{ NOTE_GS3, 88 }, 
	{ NOTE_B3, 88 }, 
	{ NOTE_CS4, 88 }, 
	{ NOTE_CS4, 88 }, 
	{ NOTE_GS4, 88 }, 
	{ NOTE_B4, 88 }, 
	{ NOTE_CS5, 88 }, 
	{ NOTE_CS5, 88 }, 
	{ NOTE_GS5, 88 }, 
	{ NOTE_B5, 88 }, 
	{ NOTE_GS5, 176 }, 
	{ NOTE_GS5, 180 }, 
	{ NOTE_FS5, 353 }, 
	{ NOTE_CS5, 706 }, 
	{ NOTE_A4, 265 }, 
	{ NOTE_FS4, 88 }, 
	{ NOTE_F4, 59 }, 
	{ NOTE_FS4, 59 }, 
	{ NOTE_GS4, 59 }, 
	{ NOTE_FS4, 176 }, 
	{ NOTE_F4, 529 }, 
	{ NOTE_F4, 176 }, 
	{ NOTE_CS5, 265 }, 
	{ NOTE_F4, 89 }, 
	{ NOTE_GS4, 353 }, 
	{ NOTE_FS4, 529 }, 
	{ NOTE_FS4, 176 }, 
	{ NOTE_CS5, 265 }, 
	{ NOTE_FS4, 89 }, 
	{ NOTE_A4, 353 }, 
	{ NOTE_GS4, 529 }, 
	{ NOTE_GS4, 176 }, 
	{ NOTE_CS5, 265 }, 
	{ NOTE_GS4, 89 }, 
	{ NOTE_A4, 88 }, 
	{ NOTE_CS5, 88 }, 
	{ NOTE_A4, 88 }, 
	{ NOTE_CS5, 88 }, 
	{ NOTE_FS4, 88 }, 
	{ NOTE_CS5, 88 }, 
	{ NOTE_A4, 88 }, 
	{ NOTE_CS5, 88 }, 
	{ NOTE_FS4, 88 }, 
	{ NOTE_CS5, 88 }, 
	{ NOTE_A4, 88 }, 
	{ NOTE_CS5, 88 }, 
	{ NOTE_FS4, 88 }, 
	{ NOTE_CS5, 88 }, 
	{ NOTE_A4, 88 }, 
	{ NOTE_CS5, 92 }, 
	{ NOTE_GS4, 88 }, 
	{ NOTE_CS5, 88 }, 
	{ NOTE_B4, 88 }, 
	{ NOTE_CS5, 88 }, 
	{ NOTE_GS4, 88 }, 
	{ NOTE_CS5, 88 }, 
	{ NOTE_B4, 88 }, 
	{ NOTE_CS5, 88 }, 
	{ NOTE_GS4, 88 }, 
	{ NOTE_CS5, 88 }, 
	{ NOTE_B4, 88 }, 
	{ NOTE_CS5, 88 }, 
	{ NOTE_GS4, 88 }, 
	{ NOTE_CS5, 88 }, 
	{ NOTE_B4, 88 }, 
	{ NOTE_CS5, 92 }, 
	{ NOTE_FS4, 88 }, 
	{ NOTE_CS5, 88 }, 
	{ NOTE_A4, 88 }, 
	{ NOTE_CS5, 88 }, 
	{ NOTE_FS4, 88 }, 
	{ NOTE_CS5, 88 }, 
	{ NOTE_A4, 88 }, 
	{ NOTE_CS5, 88 }, 
	{ NOTE_FS4, 88 }, 
	{ NOTE_CS5, 88 }, 
	{ NOTE_A4, 88 }, 
	{ NOTE_CS5, 88 }, 
	{ NOTE_FS4, 88 }, 
	{ NOTE_CS5, 88 }, 
	{ NOTE_A4, 88 }, 
	{ NOTE_CS5, 92 }, 
	{ NOTE_FS4, 88 }, 
	{ NOTE_D5, 88 }, 
	{ NOTE_A4, 88 }, 
	{ NOTE_D5, 88 }, 
	{ NOTE_FS4, 88 }, 
	{ NOTE_D5, 88 }, 
	{ NOTE_A4, 88 }, 
	{ NOTE_D5, 88 }, 
	{ NOTE_A4, 88 }, 
	{ NOTE_D5, 88 }, 
	{ NOTE_C5, 88 }, 
	{ NOTE_D5, 88 }, 
	{ NOTE_A4, 88 }, 
	{ NOTE_D5, 88 }, 
	{ NOTE_C5, 88 }, 
	{ NOTE_D5, 92 }, 
	{ NOTE_G4, 88 }, 
	{ NOTE_D5, 88 }, 
	{ NOTE_B4, 88 }, 
	{ NOTE_D5, 88 }, 
	{ NOTE_G4, 88 }, 
	{ NOTE_D5, 88 }, 
	{ NOTE_B4, 88 }, 
	{ NOTE_D5, 88 }, 
	{ NOTE_G4, 88 }, 
	{ NOTE_D5, 88 }, 
	{ NOTE_B4, 88 }, 
	{ NOTE_D5, 88 }, 
	{ NOTE_G4, 88 }, 
	{ NOTE_D5, 88 }, 
	{ NOTE_B4, 88 }, 
	{ NOTE_D5, 92 }, 
	{ NOTE_A4, 88 }, 
	{ NOTE_D5, 88 }, 
	{ NOTE_C5, 88 }, 
	{ NOTE_D5, 88 }, 
	{ NOTE_A4, 88 }, 
	{ NOTE_D5, 88 }, 
	{ NOTE_C5, 88 }, 
	{ NOTE_D5, 88 }, 
	{ NOTE_A4, 88 }, 
	{ NOTE_D5, 88 }, 
	{ NOTE_C5, 88 }, 
	{ NOTE_D5, 88 }, 
	{ NOTE_A4, 88 }, 
	{ NOTE_D5, 88 }, 
	{ NOTE_C5, 88 }, 
	{ NOTE_D5, 92 }, 
	{ NOTE_G4, 88 }, 
	{ NOTE_D5, 88 }, 
	{ NOTE_B4, 88 }, 
	{ NOTE_D5, 88 }, 
	{ NOTE_G4, 88 }, 
	{ NOTE_D5, 88 }, 
	{ NOTE_B4, 88 }, 
	{ NOTE_D5, 88 }, 
	{ NOTE_G4, 88 }, 
	{ NOTE_D5, 88 }, 
	{ NOTE_B4, 88 }, 
	{ NOTE_D5, 88 }, 
	{ NOTE_FS4, 88 }, 
	{ NOTE_D5, 88 }, 
	{ NOTE_B4, 88 }, 
	{ NOTE_D5, 92 }, 
	{ NOTE_GS4, 88 }, 
	{ NOTE_D5, 88 }, 
	{ NOTE_B4, 88 }, 
	{ NOTE_D5, 88 }, 
	{ NOTE_GS4, 88 }, 
	{ NOTE_CS5, 88 }, 
	{ NOTE_B4, 88 }, 
	{ NOTE_CS5, 88 }, 
	{ NOTE_GS4, 88 }, 
	{ NOTE_CS5, 88 }, 
	{ NOTE_B4, 88 }, 
	{ NOTE_CS5, 88 }, 
	{ NOTE_GS4, 88 }, 
	{ NOTE_CS5, 88 }, 
	{ NOTE_B4, 88 }, 
	{ NOTE_CS5, 92 }, 
	{ NOTE_FS4, 88 }, 
	{ NOTE_CS5, 88 }, 
	{ NOTE_A4, 88 }, 
	{ NOTE_CS5, 88 }, 
	{ NOTE_FS4, 88 }, 
	{ NOTE_CS5, 88 }, 
	{ NOTE_A4, 88 }, 
	{ NOTE_CS5, 88 }, 
	{ NOTE_FS4, 88 }, 
	{ NOTE_FS5, 88 }, 
	{ NOTE_A4, 88 }, 
	{ NOTE_FS5, 88 }, 
	{ NOTE_FS4, 88 }, 
	{ NOTE_FS5, 88 }, 
	{ NOTE_A4, 88 }, 
	{ NOTE_FS5, 92 }, 
	{ NOTE_FS4, 88 }, 
	{ NOTE_FS5, 88 }, 
	{ NOTE_DS5, 88 }, 
	{ NOTE_FS5, 88 }, 
	{ NOTE_FS4, 88 }, 
	{ NOTE_FS5, 88 }, 
	{ NOTE_DS5, 88 }, 
	{ NOTE_FS5, 88 }, 
	{ NOTE_FS4, 88 }, 
	{ NOTE_FS5, 88 }, 
	{ NOTE_DS5, 88 }, 
	{ NOTE_FS5, 88 }, 
	{ NOTE_FS4, 88 }, 
	{ NOTE_FS5, 88 }, 
	{ NOTE_DS5, 88 }, 
	{ NOTE_FS5, 92 }, 
	{ NOTE_E4, 88 }, 
	{ NOTE_E5, 88 }, 
	{ NOTE_CS5, 88 }, 
	{ NOTE_E5, 88 }, 
	{ NOTE_E4, 88 }, 
	{ NOTE_E5, 88 }, 
	{ NOTE_CS5, 88 }, 
	{ NOTE_E5, 88 }, 
	{ NOTE_E4, 88 }, 
	{ NOTE_E5, 88 }, 
	{ NOTE_CS5, 88 }, 
	{ NOTE_E5, 88 }, 
	{ NOTE_E4, 88 }, 
	{ NOTE_E5, 88 }, 
	{ NOTE_CS5, 88 }, 
	{ NOTE_E5, 92 }, 
	{ NOTE_DS4, 88 }, 
	{ NOTE_DS5, 88 }, 
	{ NOTE_CS5, 88 }, 
	{ NOTE_DS5, 88 }, 
	{ NOTE_DS4, 88 }, 
	{ NOTE_DS5, 88 }, 
	{ NOTE_CS5, 88 }, 
	{ NOTE_DS5, 88 }, 
	{ NOTE_DS4, 88 }, 
	{ NOTE_DS5, 88 }, 
	{ NOTE_CS5, 88 }, 
	{ NOTE_DS5, 88 }, 
	{ NOTE_DS4, 88 }, 
	{ NOTE_DS5, 88 }, 
	{ NOTE_CS5, 88 }, 
	{ NOTE_DS5, 92 }, 
	{ NOTE_C5, 353 }, 
	{ NOTE_GS4, 706 }, 
	{ NOTE_A4, 176 }, 
	{ NOTE_GS4, 177 }, 
	{ NOTE_CS4, 353 }, 
	{ NOTE_GS4, 176 }, 
	{ NOTE_FS4, 176 }, 
	{ NOTE_B3, 353 }, 
	{ NOTE_FS4, 176 }, 
	{ NOTE_E4, 178 }, 
	{ NOTE_A3, 353 }, 
	{ NOTE_E4, 176 }, 
	{ NOTE_DS4, 176 }, 
	{ NOTE_GS3, 353 }, 
	{ NOTE_DS4, 176 }, 
	{ NOTE_CS4, 178 }, 
	{ NOTE_FS3, 706 }, 
	{ NOTE_E3, 706 }, 
	{ NOTE_C3, 44 }, 
	{ NOTE_GS3, 44 }, 
	{ NOTE_DS4, 265 }, 
	{ NOTE_GS5, 529 }, 
	{ NOTE_GS5, 176 }, 
	{ NOTE_A5, 176 }, 
	{ NOTE_GS5, 178 }, 
	{ NOTE_FS5, 176 }, 
	{ NOTE_CS5, 176 }, 
	{ NOTE_DS5, 176 }, 
	{ NOTE_CS5, 176 }, 
	{ NOTE_B4, 176 }, 
	{ NOTE_B4, 176 }, 
	{ NOTE_CS5, 176 }, 
	{ NOTE_B4, 180 }, 
	{ NOTE_A4, 176 }, 
	{ NOTE_A4, 176 }, 
	{ NOTE_B4, 176 }, 
	{ NOTE_A4, 176 }, 
	{ NOTE_GS4, 176 }, 
	{ NOTE_GS4, 176 }, 
	{ NOTE_A4, 176 }, 
	{ NOTE_GS4, 180 }, 
	{ NOTE_FS4, 706 }, 
	{ NOTE_E4, 706 }, 
	{ NOTE_C4, 44 }, 
	{ NOTE_FS4, 44 }, 
	{ NOTE_DS5, 971 }, 
	{ NOTE_E4, 353 }, 
	{ NOTE_FS4, 353 }, 
	{ NOTE_FS4, 353 }, 
	{ NOTE_E4, 353 }, 
	{ NOTE_E4, 353 }, 
	{ NOTE_C4, 44 }, 
	{ NOTE_FS4, 44 }, 
	{ NOTE_DS5, 971 }, 
	{ NOTE_E4, 176 }, 
	{ NOTE_CS5, 177 }, 
	{ NOTE_FS4, 176 }, 
	{ NOTE_C5, 176 }, 
	{ NOTE_FS4, 176 }, 
	{ NOTE_C5, 176 }, 
	{ NOTE_E4, 176 }, 
	{ NOTE_CS5, 176 }, 
	{ NOTE_E4, 176 }, 
	{ NOTE_CS5, 180 }, 
	{ NOTE_FS4, 176 }, 
	{ NOTE_DS5, 176 }, 
	{ NOTE_FS4, 176 }, 
	{ NOTE_DS5, 176 }, 
	{ NOTE_E4, 176 }, 
	{ NOTE_CS5, 176 }, 
	{ NOTE_E4, 176 }, 
	{ NOTE_CS5, 180 }, 
	{ NOTE_CS4, 1412 }, 
	{ NOTE_C4, 1412 }, 
	{ NOTE_REST, 88 }, 
	{ NOTE_GS2, 88 }, 
	{ NOTE_CS3, 88 }, 
	{ NOTE_E3, 88 }, 
	{ NOTE_GS3, 88 }, 
	{ NOTE_CS3, 88 }, 
	{ NOTE_E3, 88 }, 
	{ NOTE_GS3, 88 }, 
	{ NOTE_CS4, 88 }, 
	{ NOTE_E3, 88 }, 
	{ NOTE_GS3, 88 }, 
	{ NOTE_CS4, 88 }, 
	{ NOTE_E4, 88 }, 
	{ NOTE_E3, 88 }, 
	{ NOTE_CS4, 88 }, 
	{ NOTE_E4, 92 }, 
	{ NOTE_GS4, 88 }, 
	{ NOTE_CS4, 88 }, 
	{ NOTE_E4, 88 }, 
	{ NOTE_GS4, 88 }, 
	{ NOTE_CS5, 88 }, 
	{ NOTE_E4, 88 }, 
	{ NOTE_GS4, 88 }, 
	{ NOTE_CS5, 88 }, 
	{ NOTE_E5, 88 }, 
	{ NOTE_GS4, 88 }, 
	{ NOTE_CS5, 88 }, 
	{ NOTE_E5, 88 }, 
	{ NOTE_CS5, 176 }, 
	{ NOTE_CS5, 180 }, 
	{ NOTE_REST, 88 }, 
	{ NOTE_GS2, 88 }, 
	{ NOTE_C3, 88 }, 
	{ NOTE_DS3, 88 }, 
	{ NOTE_GS3, 88 }, 
	{ NOTE_C3, 88 }, 
	{ NOTE_DS3, 88 }, 
	{ NOTE_GS3, 88 }, 
	{ NOTE_C4, 88 }, 
	{ NOTE_DS3, 88 }, 
	{ NOTE_GS3, 88 }, 
	{ NOTE_C4, 88 }, 
	{ NOTE_DS4, 88 }, 
	{ NOTE_GS3, 88 }, 
	{ NOTE_C4, 88 }, 
	{ NOTE_DS4, 92 }, 
	{ NOTE_GS4, 88 }, 
	{ NOTE_C4, 88 }, 
	{ NOTE_DS4, 88 }, 
	{ NOTE_GS4, 88 }, 
	{ NOTE_C5, 88 }, 
	{ NOTE_DS4, 88 }, 
	{ NOTE_GS4, 88 }, 
	{ NOTE_C5, 88 }, 
	{ NOTE_DS5, 88 }, 
	{ NOTE_GS4, 88 }, 
	{ NOTE_C5, 88 }, 
	{ NOTE_DS5, 88 }, 
	{ NOTE_C5, 176 }, 
	{ NOTE_C5, 180 }, 
	{ NOTE_REST, 88 }, 
	{ NOTE_CS3, 88 }, 
	{ NOTE_F3, 88 }, 
	{ NOTE_GS3, 88 }, 
	{ NOTE_CS4, 88 }, 
	{ NOTE_F3, 88 }, 
	{ NOTE_GS3, 88 }, 
	{ NOTE_CS4, 88 }, 
	{ NOTE_F4, 88 }, 
	{ NOTE_GS3, 88 }, 
	{ NOTE_CS4, 88 }, 
	{ NOTE_F4, 88 }, 
	{ NOTE_GS4, 88 }, 
	{ NOTE_CS4, 88 }, 
	{ NOTE_F4, 88 }, 
	{ NOTE_GS4, 92 }, 
	{ NOTE_CS5, 88 }, 
	{ NOTE_F4, 88 }, 
	{ NOTE_GS4, 88 }, 
	{ NOTE_CS5, 88 }, 
	{ NOTE_F5, 88 }, 
	{ NOTE_GS4, 88 }, 
	{ NOTE_CS5, 88 }, 
	{ NOTE_F5, 88 }, 
	{ NOTE_GS5, 88 }, 
	{ NOTE_CS5, 88 }, 
	{ NOTE_F5, 88 }, 
	{ NOTE_GS5, 88 }, 
	{ NOTE_F5, 176 }, 
	{ NOTE_F5, 180 }, 
	{ NOTE_REST, 88 }, 
	{ NOTE_CS3, 88 }, 
	{ NOTE_FS3, 88 }, 
	{ NOTE_A3, 88 }, 
	{ NOTE_CS4, 88 }, 
	{ NOTE_CS4, 88 }, 
	{ NOTE_FS4, 88 }, 
	{ NOTE_A4, 88 }, 
	{ NOTE_CS5, 88 }, 
	{ NOTE_CS5, 88 }, 
	{ NOTE_FS5, 88 }, 
	{ NOTE_A5, 88 }, 
	{ NOTE_FS5, 176 }, 
	{ NOTE_FS5, 180 }, 
	{ NOTE_REST, 88 }, 
	{ NOTE_CS3, 88 }, 
	{ NOTE_E3, 88 }, 
	{ NOTE_G3, 88 }, 
	{ NOTE_CS4, 88 }, 
	{ NOTE_CS4, 88 }, 
	{ NOTE_E4, 88 }, 
	{ NOTE_G4, 88 }, 
	{ NOTE_CS5, 88 }, 
	{ NOTE_CS5, 88 }, 
	{ NOTE_E5, 88 }, 
	{ NOTE_G5, 88 }, 
	{ NOTE_G5, 176 }, 
	{ NOTE_G5, 180 }, 
	{ NOTE_GS5, 176 }, 
	{ NOTE_GS4, 88 }, 
	{ NOTE_GS5, 88 }, 
	{ NOTE_GS4, 88 }, 
	{ NOTE_GS5, 88 }, 
	{ NOTE_AS4, 88 }, 
	{ NOTE_GS5, 88 }, 
	{ NOTE_C5, 88 }, 
	{ NOTE_GS5, 88 }, 
	{ NOTE_CS5, 88 }, 
	{ NOTE_GS5, 88 }, 
	{ NOTE_DS5, 88 }, 
	{ NOTE_GS5, 88 }, 
	{ NOTE_C5, 88 }, 
	{ NOTE_GS5, 92 }, 
	{ NOTE_DS5, 88 }, 
	{ NOTE_GS5, 88 }, 
	{ NOTE_CS5, 88 }, 
	{ NOTE_GS5, 88 }, 
	{ NOTE_FS5, 88 }, 
	{ NOTE_GS5, 88 }, 
	{ NOTE_E5, 88 }, 
	{ NOTE_GS5, 88 }, 
	{ NOTE_DS5, 88 }, 
	{ NOTE_GS5, 88 }, 
	{ NOTE_CS5, 88 }, 
	{ NOTE_GS5, 88 }, 
	{ NOTE_C5, 88 }, 
	{ NOTE_GS5, 88 }, 
	{ NOTE_A4, 88 }, 
	{ NOTE_G5, 92 }, 
	{ NOTE_GS4, 88 }, 
	{ NOTE_GS5, 88 }, 
	{ NOTE_GS4, 88 }, 
	{ NOTE_GS5, 88 }, 
	{ NOTE_GS4, 88 }, 
	{ NOTE_GS5, 88 }, 
	{ NOTE_AS4, 88 }, 
	{ NOTE_GS5, 88 }, 
	{ NOTE_C5, 88 }, 
	{ NOTE_GS5, 88 }, 
	{ NOTE_CS5, 88 }, 
	{ NOTE_GS5, 88 }, 
	{ NOTE_DS5, 88 }, 
	{ NOTE_GS5, 88 }, 
	{ NOTE_C5, 88 }, 
	{ NOTE_GS5, 92 }, 
	{ NOTE_DS5, 88 }, 
	{ NOTE_GS5, 88 }, 
	{ NOTE_CS5, 88 }, 
	{ NOTE_GS5, 88 }, 
	{ NOTE_FS5, 88 }, 
	{ NOTE_GS5, 88 }, 
	{ NOTE_E5, 88 }, 
	{ NOTE_GS5, 88 }, 
	{ NOTE_DS5, 88 }, 
	{ NOTE_GS5, 88 }, 
	{ NOTE_CS5, 88 }, 
	{ NOTE_GS5, 88 }, 
	{ NOTE_C5, 88 }, 
	{ NOTE_GS5, 88 }, 
	{ NOTE_A4, 88 }, 
	{ NOTE_G5, 92 }, 
	{ NOTE_GS4, 88 }, 
	{ NOTE_GS5, 88 }, 
	{ NOTE_A4, 88 }, 
	{ NOTE_G5, 88 }, 
	{ NOTE_GS4, 88 }, 
	{ NOTE_GS5, 88 }, 
	{ NOTE_A4, 88 }, 
	{ NOTE_G5, 88 }, 
	{ NOTE_GS4, 88 }, 
	{ NOTE_GS5, 88 }, 
	{ NOTE_A4, 88 }, 
	{ NOTE_G5, 88 }, 
	{ NOTE_GS4, 88 }, 
	{ NOTE_GS5, 88 }, 
	{ NOTE_A4, 88 }, 
	{ NOTE_G5, 92 }, 
	{ NOTE_GS5, 353 }, 
	{ NOTE_GS3, 1059 }, 
	{ NOTE_REST, 353 }, 
	{ NOTE_GS4, 706 }, 
	{ NOTE_E4, 265 }, 
	{ NOTE_CS4, 88 }, 
	{ NOTE_C4, 59 }, 
	{ NOTE_CS4, 59 }, 
	{ NOTE_DS4, 59 }, 
	{ NOTE_CS4, 176 }, 
	{ NOTE_C4, 529 }, 
	{ NOTE_C4, 176 }, 
	{ NOTE_GS4, 265 }, 
	{ NOTE_C4, 89 }, 
	{ NOTE_DS4, 353 }, 
	{ NOTE_CS4, 529 }, 
	{ NOTE_CS4, 176 }, 
	{ NOTE_GS4, 265 }, 
	{ NOTE_CS4, 89 }, 
	{ NOTE_E4, 353 }, 
	{ NOTE_DS4, 529 }, 
	{ NOTE_DS4, 176 }, 
	{ NOTE_GS4, 265 }, 
	{ NOTE_DS4, 89 }, 
	{ NOTE_E4, 176 }, 
	{ NOTE_GS5, 353 }, 
	{ NOTE_GS5, 353 }, 
	{ NOTE_GS5, 176 }, 
	{ NOTE_E5, 176 }, 
	{ NOTE_CS5, 178 }, 
	{ NOTE_CS5, 176 }, 
	{ NOTE_C5, 353 }, 
	{ NOTE_C5, 353 }, 
	{ NOTE_C5, 176 }, 
	{ NOTE_GS5, 176 }, 
	{ NOTE_C5, 178 }, 
	{ NOTE_DS5, 176 }, 
	{ NOTE_CS5, 353 }, 
	{ NOTE_CS5, 353 }, 
	{ NOTE_CS5, 176 }, 
	{ NOTE_GS5, 176 }, 
	{ NOTE_CS5, 178 }, 
	{ NOTE_E5, 176 }, 
	{ NOTE_DS5, 353 }, 
	{ NOTE_DS5, 353 }, 
	{ NOTE_DS5, 176 }, 
	{ NOTE_GS5, 176 }, 
	{ NOTE_DS5, 178 }, 
	{ NOTE_F5, 706 }, 
	{ NOTE_FS5, 706 }, 
	{ NOTE_DS5, 88 }, 
	{ NOTE_CS5, 88 }, 
	{ NOTE_DS5, 88 }, 
	{ NOTE_CS5, 88 }, 
	{ NOTE_E5, 1060 }, 
	{ NOTE_CS5, 706 }, 
	{ NOTE_D5, 706 }, 
	{ NOTE_C5, 88 }, 
	{ NOTE_AS4, 88 }, 
	{ NOTE_C5, 88 }, 
	{ NOTE_AS4, 88 }, 
	{ NOTE_CS5, 1060 }, 
	{ NOTE_FS4, 794 }, 
	{ NOTE_A4, 88 }, 
	{ NOTE_B4, 88 }, 
	{ NOTE_CS5, 88 }, 
	{ NOTE_D5, 88 }, 
	{ NOTE_E5, 88 }, 
	{ NOTE_FS5, 88 }, 
	{ NOTE_E5, 90 }, 
	{ NOTE_D5, 88 }, 
	{ NOTE_A4, 88 }, 
	{ NOTE_B4, 88 }, 
	{ NOTE_CS5, 88 }, 
	{ NOTE_D5, 88 }, 
	{ NOTE_E5, 88 }, 
	{ NOTE_FS5, 88 }, 
	{ NOTE_E5, 88 }, 
	{ NOTE_D5, 88 }, 
	{ NOTE_A4, 88 }, 
	{ NOTE_B4, 88 }, 
	{ NOTE_CS5, 88 }, 
	{ NOTE_D5, 88 }, 
	{ NOTE_E5, 88 }, 
	{ NOTE_FS5, 88 }, 
	{ NOTE_E5, 92 }, 
	{ NOTE_D5, 88 }, 
	{ NOTE_D4, 3530 }, 
	{ NOTE_A3, 88 }, 
	{ NOTE_B3, 88 }, 
	{ NOTE_CS4, 88 }, 
	{ NOTE_D4, 88 }, 
	{ NOTE_E4, 88 }, 
	{ NOTE_FS4, 88 }, 
	{ NOTE_E4, 90 }, 
	{ NOTE_D4, 88 }, 
	{ NOTE_A3, 88 }, 
	{ NOTE_B3, 88 }, 
	{ NOTE_CS4, 88 }, 
	{ NOTE_D4, 88 }, 
	{ NOTE_E4, 88 }, 
	{ NOTE_FS4, 88 }, 
	{ NOTE_E4, 88 }, 
	{ NOTE_D4, 88 }, 
	{ NOTE_A3, 88 }, 
	{ NOTE_B3, 88 }, 
	{ NOTE_CS4, 88 }, 
	{ NOTE_D4, 88 }, 
	{ NOTE_E4, 88 }, 
	{ NOTE_FS4, 88 }, 
	{ NOTE_E4, 92 }, 
	{ NOTE_D4, 88 }, 
	{ NOTE_A3, 88 }, 
	{ NOTE_B3, 88 }, 
	{ NOTE_CS4, 88 }, 
	{ NOTE_D4, 88 }, 
	{ NOTE_E4, 88 }, 
	{ NOTE_FS4, 88 }, 
	{ NOTE_G4, 88 }, 
	{ NOTE_A4, 88 }, 
	{ NOTE_B4, 88 }, 
	{ NOTE_CS5, 88 }, 
	{ NOTE_D5, 88 }, 
	{ NOTE_E5, 88 }, 
	{ NOTE_FS5, 88 }, 
	{ NOTE_G5, 88 }, 
	{ NOTE_GS5, 92 }, 
	{ NOTE_A5, 706 }, 
	{ NOTE_CS5, 706 }, 
	{ NOTE_E5, 706 }, 
	{ NOTE_C4, 706 }, 
	{ NOTE_CS4, 176 }, 
	{ NOTE_E4, 176 }, 
	{ NOTE_E4, 176 }, 
	{ NOTE_E4, 176 }, 
	{ NOTE_E4, 176 }, 
	{ NOTE_E4, 176 }, 
	{ NOTE_DS4, 176 }, 
	{ NOTE_CS4, 180 }, 
	{ NOTE_C4, 176 }, 
	{ NOTE_GS4, 176 }, 
	{ NOTE_GS4, 176 }, 
	{ NOTE_GS4, 176 }, 
	{ NOTE_GS4, 176 }, 
	{ NOTE_GS4, 176 }, 
	{ NOTE_GS4, 176 }, 
	{ NOTE_GS4, 180 }, 
	{ NOTE_GS4, 176 }, 
	{ NOTE_E4, 176 }, 
	{ NOTE_E4, 176 }, 
	{ NOTE_E4, 176 }, 
	{ NOTE_E4, 176 }, 
	{ NOTE_E4, 176 }, 
	{ NOTE_DS4, 176 }, 
	{ NOTE_CS4, 180 }, 
	{ NOTE_C4, 176 }, 
	{ NOTE_GS4, 176 }, 
	{ NOTE_GS4, 176 }, 
	{ NOTE_GS4, 176 }, 
	{ NOTE_GS4, 176 }, 
	{ NOTE_GS4, 176 }, 
	{ NOTE_GS4, 176 }, 
	{ NOTE_GS4, 180 }, 
	{ NOTE_GS4, 176 }, 
	{ NOTE_GS4, 176 }, 
	{ NOTE_GS4, 176 }, 
	{ NOTE_E4, 176 }, 
	{ NOTE_REST, 176 }, 
	{ NOTE_A4, 176 }, 
	{ NOTE_A4, 176 }, 
	{ NOTE_FS4, 180 }, 
	{ NOTE_REST, 176 }, 
	{ NOTE_GS4, 176 }, 
	{ NOTE_GS4, 176 }, 
	{ NOTE_E4, 176 }, 
	{ NOTE_REST, 176 }, 
	{ NOTE_GS4, 176 }, 
	{ NOTE_GS4, 176 }, 
	{ NOTE_DS4, 180 }, 
	{ NOTE_E4, 176 }, 
	{ NOTE_GS4, 176 }, 
	{ NOTE_GS4, 176 }, 
	{ NOTE_GS4, 176 }, 
	{ NOTE_GS4, 176 }, 
	{ NOTE_GS4, 176 }, 
	{ NOTE_FS4, 176 }, 
	{ NOTE_E4, 180 }, 
	{ NOTE_DS4, 176 }, 
	{ NOTE_DS5, 176 }, 
	{ NOTE_DS5, 176 }, 
	{ NOTE_DS5, 176 }, 
	{ NOTE_DS5, 176 }, 
	{ NOTE_DS5, 176 }, 
	{ NOTE_E5, 176 }, 
	{ NOTE_FS5, 180 }, 
	{ NOTE_GS5, 176 }, 
	{ NOTE_GS4, 176 }, 
	{ NOTE_GS4, 176 }, 
	{ NOTE_GS4, 176 }, 
	{ NOTE_GS4, 176 }, 
	{ NOTE_GS4, 176 }, 
	{ NOTE_FS4, 176 }, 
	{ NOTE_E4, 180 }, 
	{ NOTE_DS4, 176 }, 
	{ NOTE_DS5, 176 }, 
	{ NOTE_DS5, 176 }, 
	{ NOTE_DS5, 176 }, 
	{ NOTE_DS5, 176 }, 
	{ NOTE_DS5, 176 }, 
	{ NOTE_E5, 176 }, 
	{ NOTE_FS5, 180 }, 
	{ NOTE_GS5, 176 }, 
	{ NOTE_CS6, 176 }, 
	{ NOTE_CS6, 176 }, 
	{ NOTE_GS5, 176 }, 
	{ NOTE_REST, 176 }, 
	{ NOTE_CS6, 176 }, 
	{ NOTE_CS6, 176 }, 
	{ NOTE_A5, 180 }, 
	{ NOTE_REST, 176 }, 
	{ NOTE_GS5, 176 }, 
	{ NOTE_GS5, 176 }, 
	{ NOTE_E5, 176 }, 
	{ NOTE_REST, 176 }, 
	{ NOTE_GS5, 176 }, 
	{ NOTE_GS5, 176 }, 
	{ NOTE_DS5, 180 }, 
	{ NOTE_REST, 176 }, 
	{ NOTE_GS5, 176 }, 
	{ NOTE_GS5, 176 }, 
	{ NOTE_E5, 176 }, 
	{ NOTE_REST, 176 }, 
	{ NOTE_FS5, 176 }, 
	{ NOTE_FS5, 176 }, 
	{ NOTE_D5, 180 }, 
	{ NOTE_REST, 176 }, 
	{ NOTE_E5, 176 }, 
	{ NOTE_E5, 176 }, 
	{ NOTE_CS5, 176 }, 
	{ NOTE_REST, 176 }, 
	{ NOTE_DS5, 176 }, 
	{ NOTE_DS5, 176 }, 
	{ NOTE_C5, 180 }, 
	{ NOTE_CS5, 353 }, 
	{ NOTE_REST, 353 }, 
	{ NOTE_REST, 353 }, 
	{ NOTE_E4, 265 }, 
	{ NOTE_CS4, 88 }, 
	{ NOTE_C4, 353 }, 
	{ NOTE_C4, 353 }, 
	{ NOTE_C4, 353 }, 
	{ NOTE_C4, 353 }, 
	{ NOTE_E3, 44 }, 
	{ NOTE_CS4, 44 }, 
	{ NOTE_GS4, 971 }, 
	{ NOTE_E5, 265 }, 
	{ NOTE_CS5, 88 }, 
	{ NOTE_C5, 353 }, 
	{ NOTE_C5, 353 }, 
	{ NOTE_C5, 353 }, 
	{ NOTE_C5, 353 }, 
	{ NOTE_E4, 44 }, 
	{ NOTE_CS5, 44 }, 
	{ NOTE_GS5, 618 }, 
	{ NOTE_FS4, 44 }, 
	{ NOTE_C5, 44 }, 
	{ NOTE_GS5, 618 }, 
	{ NOTE_E4, 44 }, 
	{ NOTE_CS5, 44 }, 
	{ NOTE_GS5, 618 }, 
	{ NOTE_FS4, 44 }, 
	{ NOTE_C5, 44 }, 
	{ NOTE_GS5, 618 }, 
	{ NOTE_E3, 88 }, 
	{ NOTE_CS4, 88 }, 
	{ NOTE_GS3, 88 }, 
	{ NOTE_CS4, 88 }, 
	{ NOTE_E3, 88 }, 
	{ NOTE_CS4, 88 }, 
	{ NOTE_GS3, 88 }, 
	{ NOTE_CS4, 88 }, 
	{ NOTE_E3, 88 }, 
	{ NOTE_CS4, 88 }, 
	{ NOTE_GS3, 88 }, 
	{ NOTE_CS4, 88 }, 
	{ NOTE_E3, 88 }, 
	{ NOTE_CS4, 88 }, 
	{ NOTE_GS3, 88 }, 
	{ NOTE_CS4, 92 }, 
	{ NOTE_F3, 88 }, 
	{ NOTE_CS4, 88 }, 
	{ NOTE_GS3, 88 }, 
	{ NOTE_CS4, 88 }, 
	{ NOTE_F3, 88 }, 
	{ NOTE_CS4, 88 }, 
	{ NOTE_GS3, 88 }, 
	{ NOTE_CS4, 88 }, 
	{ NOTE_F3, 88 }, 
	{ NOTE_CS4, 88 }, 
	{ NOTE_GS3, 88 }, 
	{ NOTE_CS4, 88 }, 
	{ NOTE_F3, 88 }, 
	{ NOTE_CS4, 88 }, 
	{ NOTE_GS3, 88 }, 
	{ NOTE_CS4, 92 }, 
	{ NOTE_FS3, 88 }, 
	{ NOTE_CS3, 88 }, 
	{ NOTE_FS3, 88 }, 
	{ NOTE_A3, 88 }, 
	{ NOTE_CS4, 88 }, 
	{ NOTE_FS3, 88 }, 
	{ NOTE_A3, 88 }, 
	{ NOTE_CS4, 88 }, 
	{ NOTE_FS4, 88 }, 
	{ NOTE_A3, 88 }, 
	{ NOTE_CS4, 88 }, 
	{ NOTE_FS4, 88 }, 
	{ NOTE_A4, 88 }, 
	{ NOTE_CS4, 88 }, 
	{ NOTE_FS4, 88 }, 
	{ NOTE_A4, 92 }, 
	{ NOTE_CS5, 88 }, 
	{ NOTE_FS4, 88 }, 
	{ NOTE_A4, 88 }, 
	{ NOTE_CS5, 88 }, 
	{ NOTE_FS5, 88 }, 
	{ NOTE_A4, 88 }, 
	{ NOTE_CS5, 88 }, 
	{ NOTE_FS5, 88 }, 
	{ NOTE_A5, 88 }, 
	{ NOTE_CS5, 88 }, 
	{ NOTE_FS5, 88 }, 
	{ NOTE_A5, 88 }, 
	{ NOTE_FS5, 176 }, 
	{ NOTE_FS5, 180 }, 
	{ NOTE_REST, 88 }, 
	{ NOTE_CS3, 88 }, 
	{ NOTE_E3, 88 }, 
	{ NOTE_GS3, 88 }, 
	{ NOTE_CS4, 88 }, 
	{ NOTE_E3, 88 }, 
	{ NOTE_GS3, 88 }, 
	{ NOTE_CS4, 88 }, 
	{ NOTE_E4, 88 }, 
	{ NOTE_GS3, 88 }, 
	{ NOTE_CS4, 88 }, 
	{ NOTE_E4, 88 }, 
	{ NOTE_GS4, 88 }, 
	{ NOTE_CS4, 88 }, 
	{ NOTE_E4, 88 }, 
	{ NOTE_GS4, 92 }, 
	{ NOTE_CS5, 88 }, 
	{ NOTE_E4, 88 }, 
	{ NOTE_GS4, 88 }, 
	{ NOTE_CS5, 88 }, 
	{ NOTE_E5, 88 }, 
	{ NOTE_GS4, 88 }, 
	{ NOTE_CS5, 88 }, 
	{ NOTE_E5, 88 }, 
	{ NOTE_GS5, 88 }, 
	{ NOTE_CS5, 88 }, 
	{ NOTE_E5, 88 }, 
	{ NOTE_GS5, 88 }, 
	{ NOTE_E5, 176 }, 
	{ NOTE_E5, 180 }, 
	{ NOTE_REST, 176 }, 
	{ NOTE_CS4, 44 }, 
	{ NOTE_E4, 44 }, 
	{ NOTE_G4, 44 }, 
	{ NOTE_AS4, 44 }, 
	{ NOTE_CS4, 529 }, 
	{ NOTE_CS5, 44 }, 
	{ NOTE_E5, 44 }, 
	{ NOTE_G5, 44 }, 
	{ NOTE_AS5, 44 }, 
	{ NOTE_E5, 531 }, 
	{ NOTE_CS6, 44 }, 
	{ NOTE_E6, 44 }, 
	{ NOTE_G6, 44 }, 
	{ NOTE_A6, 44 }, 
	{ NOTE_CS6, 1060 }, 
	{ NOTE_REST, 176 }, 
	{ NOTE_A3, 44 }, 
	{ NOTE_C4, 44 }, 
	{ NOTE_DS4, 44 }, 
	{ NOTE_FS4, 44 }, 
	{ NOTE_C4, 529 }, 
	{ NOTE_A4, 44 }, 
	{ NOTE_C5, 44 }, 
	{ NOTE_DS5, 44 }, 
	{ NOTE_FS5, 44 }, 
	{ NOTE_C5, 443 }, 
	{ NOTE_A5, 88 }, 
	{ NOTE_C6, 88 }, 
	{ NOTE_DS6, 88 }, 
	{ NOTE_FS4, 1060 }, 
	{ NOTE_REST, 88 }, 
	{ NOTE_GS4, 88 }, 
	{ NOTE_E4, 88 }, 
	{ NOTE_GS4, 88 }, 
	{ NOTE_CS4, 88 }, 
	{ NOTE_GS4, 88 }, 
	{ NOTE_E4, 88 }, 
	{ NOTE_GS4, 88 }, 
	{ NOTE_CS4, 88 }, 
	{ NOTE_GS4, 88 }, 
	{ NOTE_E4, 88 }, 
	{ NOTE_GS4, 88 }, 
	{ NOTE_CS4, 88 }, 
	{ NOTE_GS4, 88 }, 
	{ NOTE_E4, 88 }, 
	{ NOTE_GS4, 92 }, 
	{ NOTE_DS4, 88 }, 
	{ NOTE_GS4, 88 }, 
	{ NOTE_FS4, 88 }, 
	{ NOTE_GS4, 88 }, 
	{ NOTE_DS4, 88 }, 
	{ NOTE_GS4, 88 }, 
	{ NOTE_FS4, 88 }, 
	{ NOTE_GS4, 88 }, 
	{ NOTE_DS4, 88 }, 
	{ NOTE_GS4, 88 }, 
	{ NOTE_FS4, 88 }, 
	{ NOTE_GS4, 88 }, 
	{ NOTE_DS4, 88 }, 
	{ NOTE_GS4, 88 }, 
	{ NOTE_FS4, 88 }, 
	{ NOTE_GS4, 92 }, 
	{ NOTE_CS4, 88 }, 
	{ NOTE_GS4, 88 }, 
	{ NOTE_E4, 88 }, 
	{ NOTE_GS4, 88 }, 
	{ NOTE_CS4, 88 }, 
	{ NOTE_GS4, 88 }, 
	{ NOTE_E4, 88 }, 
	{ NOTE_GS4, 88 }, 
	{ NOTE_CS4, 88 }, 
	{ NOTE_GS4, 88 }, 
	{ NOTE_E4, 88 }, 
	{ NOTE_GS4, 88 }, 
	{ NOTE_CS4, 88 }, 
	{ NOTE_GS4, 88 }, 
	{ NOTE_E4, 88 }, 
	{ NOTE_GS4, 92 }, 
	{ NOTE_C4, 88 }, 
	{ NOTE_GS4, 88 }, 
	{ NOTE_FS4, 88 }, 
	{ NOTE_GS4, 88 }, 
	{ NOTE_C4, 88 }, 
	{ NOTE_GS4, 88 }, 
	{ NOTE_FS4, 88 }, 
	{ NOTE_GS4, 88 }, 
	{ NOTE_C4, 88 }, 
	{ NOTE_GS4, 88 }, 
	{ NOTE_FS4, 88 }, 
	{ NOTE_GS4, 88 }, 
	{ NOTE_C4, 88 }, 
	{ NOTE_GS4, 88 }, 
	{ NOTE_FS4, 88 }, 
	{ NOTE_GS4, 92 }, 
	{ NOTE_E4, 353 }, 
	{ NOTE_GS5, 706 }, 
	{ NOTE_E5, 265 }, 
	{ NOTE_CS5, 88 }, 
	{ NOTE_CS5, 353 }, 
	{ NOTE_C5, 529 }, 
	{ NOTE_C5, 176 }, 
	{ NOTE_GS5, 265 }, 
	{ NOTE_C5, 89 }, 
	{ NOTE_DS5, 353 }, 
	{ NOTE_CS5, 529 }, 
	{ NOTE_CS5, 176 }, 
	{ NOTE_GS5, 265 }, 
	{ NOTE_CS5, 89 }, 
	{ NOTE_E5, 353 }, 
	{ NOTE_DS5, 529 }, 
	{ NOTE_DS5, 176 }, 
	{ NOTE_GS5, 265 }, 
	{ NOTE_DS5, 89 }, 
	{ NOTE_FS5, 176 }, 
	{ NOTE_E5, 176 }, 
	{ NOTE_CS6, 176 }, 
	{ NOTE_E5, 176 }, 
	{ NOTE_FS5, 176 }, 
	{ NOTE_F5, 176 }, 
	{ NOTE_CS6, 176 }, 
	{ NOTE_F5, 180 }, 
	{ NOTE_GS5, 176 }, 
	{ NOTE_FS5, 176 }, 
	{ NOTE_CS6, 176 }, 
	{ NOTE_FS5, 176 }, 
	{ NOTE_A5, 176 }, 
	{ NOTE_GS5, 176 }, 
	{ NOTE_CS6, 176 }, 
	{ NOTE_GS5, 180 }, 
	{ NOTE_A5, 118 }, 
	{ NOTE_FS5, 118 }, 
	{ NOTE_CS5, 118 }, 
	{ NOTE_A4, 118 }, 
	{ NOTE_FS4, 118 }, 
	{ NOTE_CS4, 118 }, 
	{ NOTE_A4, 118 }, 
	{ NOTE_FS4, 118 }, 
	{ NOTE_CS4, 118 }, 
	{ NOTE_A3, 118 }, 
	{ NOTE_FS3, 118 }, 
	{ NOTE_CS3, 114 }, 
	{ NOTE_A3, 88 }, 
	{ NOTE_FS3, 88 }, 
	{ NOTE_CS3, 88 }, 
	{ NOTE_A2, 88 }, 
	{ NOTE_CS3, 88 }, 
	{ NOTE_FS3, 88 }, 
	{ NOTE_A3, 88 }, 
	{ NOTE_CS4, 88 }, 
	{ NOTE_FS4, 88 }, 
	{ NOTE_A4, 88 }, 
	{ NOTE_CS5, 88 }, 
	{ NOTE_FS5, 88 }, 
	{ NOTE_A5, 88 }, 
	{ NOTE_FS5, 88 }, 
	{ NOTE_CS5, 88 }, 
	{ NOTE_A4, 92 }, 
	{ NOTE_A5, 118 }, 
	{ NOTE_FS5, 118 }, 
	{ NOTE_D5, 118 }, 
	{ NOTE_A4, 118 }, 
	{ NOTE_FS4, 118 }, 
	{ NOTE_D4, 118 }, 
	{ NOTE_A4, 118 }, 
	{ NOTE_FS4, 118 }, 
	{ NOTE_D4, 118 }, 
	{ NOTE_A3, 118 }, 
	{ NOTE_FS3, 118 }, 
	{ NOTE_D3, 114 }, 
	{ NOTE_A3, 88 }, 
	{ NOTE_FS3, 88 }, 
	{ NOTE_D3, 88 }, 
	{ NOTE_A2, 88 }, 
	{ NOTE_D3, 88 }, 
	{ NOTE_FS3, 88 }, 
	{ NOTE_A3, 88 }, 
	{ NOTE_E4, 88 }, 
	{ NOTE_FS4, 88 }, 
	{ NOTE_A4, 88 }, 
	{ NOTE_D5, 88 }, 
	{ NOTE_FS5, 88 }, 
	{ NOTE_A5, 88 }, 
	{ NOTE_FS5, 88 }, 
	{ NOTE_D5, 88 }, 
	{ NOTE_A4, 92 }, 
	{ NOTE_CS6, 118 }, 
	{ NOTE_AS5, 118 }, 
	{ NOTE_G5, 118 }, 
	{ NOTE_E5, 118 }, 
	{ NOTE_CS5, 118 }, 
	{ NOTE_AS4, 118 }, 
	{ NOTE_E5, 118 }, 
	{ NOTE_CS5, 118 }, 
	{ NOTE_AS4, 118 }, 
	{ NOTE_G4, 88 }, 
	{ NOTE_E4, 88 }, 
	{ NOTE_CS4, 88 }, 
	{ NOTE_AS3, 86 }, 
	{ NOTE_E4, 88 }, 
	{ NOTE_CS4, 88 }, 
	{ NOTE_AS3, 88 }, 
	{ NOTE_G3, 88 }, 
	{ NOTE_E3, 88 }, 
	{ NOTE_CS3, 88 }, 
	{ NOTE_E3, 88 }, 
	{ NOTE_G3, 88 }, 
	{ NOTE_AS3, 59 }, 
	{ NOTE_CS4, 59 }, 
	{ NOTE_E4, 59 }, 
	{ NOTE_G4, 59 }, 
	{ NOTE_AS4, 59 }, 
	{ NOTE_CS5, 59 }, 
	{ NOTE_E5, 59 }, 
	{ NOTE_G5, 59 }, 
	{ NOTE_AS5, 59 }, 
	{ NOTE_CS6, 59 }, 
	{ NOTE_AS5, 59 }, 
	{ NOTE_E5, 59 }, 
	{ NOTE_E6, 118 }, 
	{ NOTE_CS6, 118 }, 
	{ NOTE_GS5, 118 }, 
	{ NOTE_E5, 118 }, 
	{ NOTE_CS5, 118 }, 
	{ NOTE_GS4, 118 }, 
	{ NOTE_E5, 118 }, 
	{ NOTE_CS5, 118 }, 
	{ NOTE_GS4, 118 }, 
	{ NOTE_E4, 88 }, 
	{ NOTE_CS5, 88 }, 
	{ NOTE_GS4, 88 }, 
	{ NOTE_E4, 86 }, 
	{ NOTE_CS4, 88 }, 
	{ NOTE_GS4, 88 }, 
	{ NOTE_E4, 88 }, 
	{ NOTE_CS4, 88 }, 
	{ NOTE_GS3, 88 }, 
	{ NOTE_E4, 88 }, 
	{ NOTE_CS4, 88 }, 
	{ NOTE_GS3, 88 }, 
	{ NOTE_E3, 88 }, 
	{ NOTE_CS4, 88 }, 
	{ NOTE_GS3, 88 }, 
	{ NOTE_E3, 88 }, 
	{ NOTE_CS3, 88 }, 
	{ NOTE_GS3, 88 }, 
	{ NOTE_E3, 88 }, 
	{ NOTE_CS3, 92 }, 
	{ NOTE_REST, 1412 }, 
	{ NOTE_REST, 706 }, 
	{ NOTE_A4, 71 }, 
	{ NOTE_AS4, 71 }, 
	{ NOTE_B4, 71 }, 
	{ NOTE_C5, 71 }, 
	{ NOTE_CS5, 71 }, 
	{ NOTE_D5, 59 }, 
	{ NOTE_DS5, 59 }, 
	{ NOTE_E5, 59 }, 
	{ NOTE_F5, 44 }, 
	{ NOTE_FS5, 44 }, 
	{ NOTE_G5, 44 }, 
	{ NOTE_GS5, 42 }, 
	{ NOTE_A5, 353 }, 
	{ NOTE_GS5, 353 }, 
	{ NOTE_A5, 265 }, 
	{ NOTE_GS5, 265 }, 
	{ NOTE_A5, 176 }, 
	{ NOTE_GS5, 176 }, 
	{ NOTE_A5, 132 }, 
	{ NOTE_GS5, 132 }, 
	{ NOTE_A5, 88 }, 
	{ NOTE_GS5, 88 }, 
	{ NOTE_A5, 88 }, 
	{ NOTE_GS5, 88 }, 
	{ NOTE_A5, 88 }, 
	{ NOTE_GS5, 88 }, 
	{ NOTE_A5, 88 }, 
	{ NOTE_A5, 88 }, 
	{ NOTE_GS5, 88 }, 
	{ NOTE_A5, 88 }, 
	{ NOTE_GS5, 92 }, 
	{ NOTE_GS5, 176 }, 
	{ NOTE_FS5, 176 }, 
	{ NOTE_E5, 176 }, 
	{ NOTE_DS5, 176 }, 
	{ NOTE_FS5, 176 }, 
	{ NOTE_CS5, 176 }, 
	{ NOTE_C5, 176 }, 
	{ NOTE_DS5, 180 }, 
	{ NOTE_A4, 176 }, 
	{ NOTE_GS4, 176 }, 
	{ NOTE_FS4, 176 }, 
	{ NOTE_A4, 176 }, 
	{ NOTE_E4, 176 }, 
	{ NOTE_DS4, 176 }, 
	{ NOTE_FS4, 176 }, 
	{ NOTE_CS4, 180 }, 
	{ NOTE_C4, 176 }, 
	{ NOTE_DS4, 176 }, 
	{ NOTE_A3, 176 }, 
	{ NOTE_GS3, 176 }, 
	{ NOTE_FS3, 176 }, 
	{ NOTE_A3, 176 }, 
	{ NOTE_E3, 176 }, 
	{ NOTE_DS3, 180 }, 
	{ NOTE_FS3, 176 }, 
	{ NOTE_CS3, 265 }, 
	{ NOTE_C3, 265 }, 
	{ NOTE_DS3, 235 }, 
	{ NOTE_A2, 235 }, 
	{ NOTE_GS2, 236 }, 
	{ NOTE_REST, 1412 }, 
	{ NOTE_REST, 1412 }, 
	{ NOTE_CS3, 1059 }, 
	{ NOTE_E4, 265 }, 
	{ NOTE_CS4, 88 }, 
	{ NOTE_C4, 353 }, 
	{ NOTE_C4, 353 }, 
	{ NOTE_C4, 353 }, 
	{ NOTE_C4, 353 }, 
	{ NOTE_E3, 44 }, 
	{ NOTE_CS4, 44 }, 
	{ NOTE_GS4, 971 }, 
	{ NOTE_E5, 265 }, 
	{ NOTE_CS5, 88 }, 
	{ NOTE_C5, 353 }, 
	{ NOTE_C5, 353 }, 
	{ NOTE_C5, 353 }, 
	{ NOTE_C5, 353 }, 
	{ NOTE_E4, 44 }, 
	{ NOTE_CS5, 44 }, 
	{ NOTE_GS5, 618 }, 
	{ NOTE_FS4, 44 }, 
	{ NOTE_C5, 44 }, 
	{ NOTE_GS5, 618 }, 
	{ NOTE_E4, 44 }, 
	{ NOTE_CS5, 44 }, 
	{ NOTE_GS5, 618 }, 
	{ NOTE_FS4, 44 }, 
	{ NOTE_C5, 44 }, 
	{ NOTE_GS5, 618 }, 
	{ NOTE_GS5, 88 }, 
	{ NOTE_E4, 88 }, 
	{ NOTE_GS4, 88 }, 
	{ NOTE_CS5, 88 }, 
	{ NOTE_E5, 88 }, 
	{ NOTE_GS4, 88 }, 
	{ NOTE_CS5, 88 }, 
	{ NOTE_E5, 88 }, 
	{ NOTE_GS5, 88 }, 
	{ NOTE_CS5, 88 }, 
	{ NOTE_E5, 88 }, 
	{ NOTE_GS5, 88 }, 
	{ NOTE_CS6, 88 }, 
	{ NOTE_E5, 88 }, 
	{ NOTE_GS5, 88 }, 
	{ NOTE_CS6, 92 }, 
	{ NOTE_E6, 88 }, 
	{ NOTE_CS6, 88 }, 
	{ NOTE_GS5, 88 }, 
	{ NOTE_E5, 88 }, 
	{ NOTE_CS6, 88 }, 
	{ NOTE_GS5, 88 }, 
	{ NOTE_E5, 88 }, 
	{ NOTE_CS5, 88 }, 
	{ NOTE_GS5, 88 }, 
	{ NOTE_E5, 88 }, 
	{ NOTE_CS5, 88 }, 
	{ NOTE_GS4, 88 }, 
	{ NOTE_E5, 88 }, 
	{ NOTE_CS5, 88 }, 
	{ NOTE_GS4, 88 }, 
	{ NOTE_E4, 92 }, 
	{ NOTE_CS5, 88 }, 
	{ NOTE_GS4, 88 }, 
	{ NOTE_E4, 88 }, 
	{ NOTE_CS4, 88 }, 
	{ NOTE_GS4, 88 }, 
	{ NOTE_E4, 88 }, 
	{ NOTE_CS4, 88 }, 
	{ NOTE_GS3, 88 }, 
	{ NOTE_E4, 88 }, 
	{ NOTE_CS4, 88 }, 
	{ NOTE_GS3, 88 }, 
	{ NOTE_E3, 88 }, 
	{ NOTE_CS4, 88 }, 
	{ NOTE_GS3, 88 }, 
	{ NOTE_E3, 88 }, 
	{ NOTE_GS3, 92 }, 
	{ NOTE_REST, 706 }, 
	{ NOTE_E5, 353 }, 
	{ NOTE_REST, 353 }, 
	{ NOTE_E4, 353 }, 
	{ NOTE_REST, 353 }, 
	{ NOTE_REST, 706 }, 
	{ NOTE_REST, 1412 }, 
};
const uint16_t NUM_OF_NOTES1 = sizeof(melody1)/sizeof(melody1[0]);

const Note melody2[] PROGMEM = {
	{ NOTE_REST, 88 }, 
	{ NOTE_GS2, 88 }, 
	{ NOTE_CS3, 88 }, 
	{ NOTE_E3, 88 }, 
	{ NOTE_GS3, 88 }, 
	{ NOTE_CS3, 88 }, 
	{ NOTE_E3, 88 }, 
	{ NOTE_GS3, 88 }, 
	{ NOTE_CS4, 88 }, 
	{ NOTE_E3, 88 }, 
	{ NOTE_GS3, 88 }, 
	{ NOTE_CS4, 88 }, 
	{ NOTE_E4, 88 }, 
	{ NOTE_E3, 88 }, 
	{ NOTE_CS4, 88 }, 
	{ NOTE_E4, 92 }, 
	{ NOTE_GS4, 88 }, 
	{ NOTE_CS4, 88 }, 
	{ NOTE_E4, 88 }, 
	{ NOTE_GS4, 88 }, 
	{ NOTE_CS5, 88 }, 
	{ NOTE_E4, 88 }, 
	{ NOTE_GS4, 88 }, 
	{ NOTE_CS5, 88 }, 
	{ NOTE_E5, 88 }, 
	{ NOTE_GS4, 88 }, 
	{ NOTE_CS5, 88 }, 
	{ NOTE_E5, 88 }, 
	{ NOTE_E5, 176 }, 
	{ NOTE_E5, 180 }, 
	{ NOTE_REST, 88 }, 
	{ NOTE_GS2, 88 }, 
	{ NOTE_C3, 88 }, 
	{ NOTE_DS3, 88 }, 
	{ NOTE_GS3, 88 }, 
	{ NOTE_C3, 88 }, 
	{ NOTE_DS3, 88 }, 
	{ NOTE_GS3, 88 }, 
	{ NOTE_C4, 88 }, 
	{ NOTE_DS3, 88 }, 
	{ NOTE_GS3, 88 }, 
	{ NOTE_C4, 88 }, 
	{ NOTE_DS4, 88 }, 
	{ NOTE_GS3, 88 }, 
	{ NOTE_C4, 88 }, 
	{ NOTE_DS4, 92 }, 
	{ NOTE_GS4, 88 }, 
	{ NOTE_C4, 88 }, 
	{ NOTE_DS4, 88 }, 
	{ NOTE_GS4, 88 }, 
	{ NOTE_C5, 88 }, 
	{ NOTE_DS4, 88 }, 
	{ NOTE_GS4, 88 }, 
	{ NOTE_C5, 88 }, 
	{ NOTE_DS5, 88 }, 
	{ NOTE_GS4, 88 }, 
	{ NOTE_C5, 88 }, 
	{ NOTE_DS5, 88 }, 
	{ NOTE_DS5, 176 }, 
	{ NOTE_DS5, 180 }, 
	{ NOTE_REST, 88 }, 
	{ NOTE_CS3, 88 }, 
	{ NOTE_F3, 88 }, 
	{ NOTE_GS3, 88 }, 
	{ NOTE_CS4, 88 }, 
	{ NOTE_F3, 88 }, 
	{ NOTE_GS3, 88 }, 
	{ NOTE_CS4, 88 }, 
	{ NOTE_F4, 88 }, 
	{ NOTE_GS3, 88 }, 
	{ NOTE_CS4, 88 }, 
	{ NOTE_F4, 88 }, 
	{ NOTE_GS4, 88 }, 
	{ NOTE_CS4, 88 }, 
	{ NOTE_F4, 88 }, 
	{ NOTE_GS4, 92 }, 
	{ NOTE_CS5, 88 }, 
	{ NOTE_F4, 88 }, 
	{ NOTE_GS4, 88 }, 
	{ NOTE_CS5, 88 }, 
	{ NOTE_F5, 88 }, 
	{ NOTE_GS4, 88 }, 
	{ NOTE_CS5, 88 }, 
	{ NOTE_F5, 88 }, 
	{ NOTE_GS5, 88 }, 
	{ NOTE_CS5, 88 }, 
	{ NOTE_F5, 88 }, 
	{ NOTE_GS5, 88 }, 
	{ NOTE_GS5, 176 }, 
	{ NOTE_GS5, 180 }, 
	{ NOTE_REST, 88 }, 
	{ NOTE_CS3, 88 }, 
	{ NOTE_FS3, 88 }, 
	{ NOTE_A3, 88 }, 
	{ NOTE_CS4, 88 }, 
	{ NOTE_CS4, 88 }, 
	{ NOTE_FS4, 88 }, 
	{ NOTE_A4, 88 }, 
	{ NOTE_CS5, 88 }, 
	{ NOTE_CS5, 88 }, 
	{ NOTE_FS5, 88 }, 
	{ NOTE_A5, 88 }, 
	{ NOTE_CS6, 176 }, 
	{ NOTE_CS6, 180 }, 
	{ NOTE_REST, 88 }, 
	{ NOTE_CS3, 88 }, 
	{ NOTE_E3, 88 }, 
	{ NOTE_G3, 88 }, 
	{ NOTE_CS4, 88 }, 
	{ NOTE_CS4, 88 }, 
	{ NOTE_E4, 88 }, 
	{ NOTE_G4, 88 }, 
	{ NOTE_CS5, 88 }, 
	{ NOTE_CS5, 88 }, 
	{ NOTE_E5, 88 }, 
	{ NOTE_G5, 88 }, 
	{ NOTE_CS6, 176 }, 
	{ NOTE_CS6, 180 }, 
	{ NOTE_C6, 176 }, 
	{ NOTE_GS4, 88 }, 
	{ NOTE_GS5, 88 }, 
	{ NOTE_GS4, 88 }, 
	{ NOTE_GS5, 88 }, 
	{ NOTE_AS4, 88 }, 
	{ NOTE_GS5, 88 }, 
	{ NOTE_C5, 88 }, 
	{ NOTE_GS5, 88 }, 
	{ NOTE_CS5, 88 }, 
	{ NOTE_GS5, 88 }, 
	{ NOTE_DS5, 88 }, 
	{ NOTE_GS5, 88 }, 
	{ NOTE_C5, 88 }, 
	{ NOTE_GS5, 92 }, 
	{ NOTE_DS5, 88 }, 
	{ NOTE_GS5, 88 }, 
	{ NOTE_CS5, 88 }, 
	{ NOTE_GS5, 88 }, 
	{ NOTE_FS5, 88 }, 
	{ NOTE_GS5, 88 }, 
	{ NOTE_E5, 88 }, 
	{ NOTE_GS5, 88 }, 
	{ NOTE_DS5, 88 }, 
	{ NOTE_GS5, 88 }, 
	{ NOTE_CS5, 88 }, 
	{ NOTE_GS5, 88 }, 
	{ NOTE_C5, 88 }, 
	{ NOTE_GS5, 88 }, 
	{ NOTE_A4, 88 }, 
	{ NOTE_G5, 92 }, 
	{ NOTE_GS4, 88 }, 
	{ NOTE_GS5, 88 }, 
	{ NOTE_GS4, 88 }, 
	{ NOTE_GS5, 88 }, 
	{ NOTE_GS4, 88 }, 
	{ NOTE_GS5, 88 }, 
	{ NOTE_AS4, 88 }, 
	{ NOTE_GS5, 88 }, 
	{ NOTE_C5, 88 }, 
	{ NOTE_GS5, 88 }, 
	{ NOTE_CS5, 88 }, 
	{ NOTE_GS5, 88 }, 
	{ NOTE_DS5, 88 }, 
	{ NOTE_GS5, 88 }, 
	{ NOTE_C5, 88 }, 
	{ NOTE_GS5, 92 }, 
	{ NOTE_DS5, 88 }, 
	{ NOTE_GS5, 88 }, 
	{ NOTE_CS5, 88 }, 
	{ NOTE_GS5, 88 }, 
	{ NOTE_FS5, 88 }, 
	{ NOTE_GS5, 88 }, 
	{ NOTE_E5, 88 }, 
	{ NOTE_GS5, 88 }, 
	{ NOTE_DS5, 88 }, 
	{ NOTE_GS5, 88 }, 
	{ NOTE_CS5, 88 }, 
	{ NOTE_GS5, 88 }, 
	{ NOTE_C5, 88 }, 
	{ NOTE_GS5, 88 }, 
	{ NOTE_A4, 88 }, 
	{ NOTE_G5, 92 }, 
	{ NOTE_GS4, 88 }, 
	{ NOTE_GS5, 88 }, 
	{ NOTE_A4, 88 }, 
	{ NOTE_G5, 88 }, 
	{ NOTE_GS4, 88 }, 
	{ NOTE_GS5, 88 }, 
	{ NOTE_A4, 88 }, 
	{ NOTE_G5, 88 }, 
	{ NOTE_GS4, 88 }, 
	{ NOTE_GS5, 88 }, 
	{ NOTE_A4, 88 }, 
	{ NOTE_G5, 88 }, 
	{ NOTE_GS4, 88 }, 
	{ NOTE_GS5, 88 }, 
	{ NOTE_A4, 88 }, 
	{ NOTE_G5, 92 }, 
	{ NOTE_REST, 353 }, 
	{ NOTE_GS3, 1059 }, 
	{ NOTE_REST, 88 }, 
	{ NOTE_GS2, 88 }, 
	{ NOTE_CS3, 88 }, 
	{ NOTE_E3, 88 }, 
	{ NOTE_GS3, 88 }, 
	{ NOTE_CS3, 88 }, 
	{ NOTE_E3, 88 }, 
	{ NOTE_GS3, 88 }, 
	{ NOTE_CS4, 88 }, 
	{ NOTE_E3, 88 }, 
	{ NOTE_GS3, 88 }, 
	{ NOTE_CS4, 88 }, 
	{ NOTE_E4, 88 }, 
	{ NOTE_E3, 88 }, 
	{ NOTE_CS4, 88 }, 
	{ NOTE_E4, 92 }, 
	{ NOTE_GS4, 88 }, 
	{ NOTE_CS4, 88 }, 
	{ NOTE_E4, 88 }, 
	{ NOTE_GS4, 88 }, 
	{ NOTE_CS5, 88 }, 
	{ NOTE_E4, 88 }, 
	{ NOTE_GS4, 88 }, 
	{ NOTE_CS5, 88 }, 
	{ NOTE_E5, 88 }, 
	{ NOTE_E5, 88 }, 
	{ NOTE_GS5, 88 }, 
	{ NOTE_CS6, 88 }, 
	{ NOTE_REST, 176 }, 
	{ NOTE_REST, 180 }, 
	{ NOTE_REST, 88 }, 
	{ NOTE_E3, 88 }, 
	{ NOTE_G3, 88 }, 
	{ NOTE_CS4, 88 }, 
	{ NOTE_E4, 88 }, 
	{ NOTE_G3, 88 }, 
	{ NOTE_CS4, 88 }, 
	{ NOTE_E4, 88 }, 
	{ NOTE_G4, 88 }, 
	{ NOTE_CS4, 88 }, 
	{ NOTE_E4, 88 }, 
	{ NOTE_G4, 88 }, 
	{ NOTE_CS5, 88 }, 
	{ NOTE_E4, 88 }, 
	{ NOTE_G4, 88 }, 
	{ NOTE_CS5, 92 }, 
	{ NOTE_E5, 88 }, 
	{ NOTE_G4, 88 }, 
	{ NOTE_CS5, 88 }, 
	{ NOTE_E5, 88 }, 
	{ NOTE_G5, 88 }, 
	{ NOTE_CS5, 88 }, 
	{ NOTE_E5, 88 }, 
	{ NOTE_G5, 88 }, 
	{ NOTE_CS6, 88 }, 
	{ NOTE_E5, 88 }, 
	{ NOTE_G5, 88 }, 
	{ NOTE_CS6, 88 }, 
	{ NOTE_REST, 176 }, 
	{ NOTE_REST, 180 }, 
	{ NOTE_REST, 88 }, 
	{ NOTE_DS3, 88 }, 
	{ NOTE_AS3, 88 }, 
	{ NOTE_CS4, 88 }, 
	{ NOTE_DS4, 88 }, 
	{ NOTE_AS3, 88 }, 
	{ NOTE_CS4, 88 }, 
	{ NOTE_DS4, 88 }, 
	{ NOTE_AS4, 88 }, 
	{ NOTE_CS4, 88 }, 
	{ NOTE_DS4, 88 }, 
	{ NOTE_AS4, 88 }, 
	{ NOTE_CS5, 88 }, 
	{ NOTE_DS4, 88 }, 
	{ NOTE_AS4, 88 }, 
	{ NOTE_CS5, 92 }, 
	{ NOTE_DS5, 88 }, 
	{ NOTE_AS4, 88 }, 
	{ NOTE_CS5, 88 }, 
	{ NOTE_DS5, 88 }, 
	{ NOTE_AS5, 88 }, 
	{ NOTE_CS5, 88 }, 
	{ NOTE_DS5, 88 }, 
	{ NOTE_AS5, 88 }, 
	{ NOTE_CS6, 88 }, 
	{ NOTE_AS5, 88 }, 
	{ NOTE_DS5, 88 }, 
	{ NOTE_CS5, 88 }, 
	{ NOTE_AS5, 88 }, 
	{ NOTE_DS5, 88 }, 
	{ NOTE_CS5, 88 }, 
	{ NOTE_AS4, 92 }, 
	{ NOTE_B4, 353 }, 
	{ NOTE_DS5, 706 }, 
	{ NOTE_B4, 265 }, 
	{ NOTE_GS4, 88 }, 
	{ NOTE_G4, 59 }, 
	{ NOTE_GS4, 59 }, 
	{ NOTE_AS4, 59 }, 
	{ NOTE_GS4, 176 }, 
	{ NOTE_G4, 529 }, 
	{ NOTE_G4, 176 }, 
	{ NOTE_DS5, 265 }, 
	{ NOTE_G4, 89 }, 
	{ NOTE_AS4, 353 }, 
	{ NOTE_GS4, 529 }, 
	{ NOTE_GS4, 176 }, 
	{ NOTE_DS5, 265 }, 
	{ NOTE_GS4, 89 }, 
	{ NOTE_B4, 353 }, 
	{ NOTE_AS4, 529 }, 
	{ NOTE_AS4, 176 }, 
	{ NOTE_DS5, 265 }, 
	{ NOTE_AS4, 89 }, 
	{ NOTE_B4, 176 }, 
	{ NOTE_REST, 353 }, 
	{ NOTE_REST, 353 }, 
	{ NOTE_REST, 176 }, 
	{ NOTE_REST, 176 }, 
	{ NOTE_REST, 178 }, 
	{ NOTE_REST, 176 }, 
	{ NOTE_REST, 353 }, 
	{ NOTE_REST, 353 }, 
	{ NOTE_REST, 176 }, 
	{ NOTE_REST, 176 }, 
	{ NOTE_REST, 178 }, 
	{ NOTE_REST, 176 }, 
	{ NOTE_REST, 353 }, 
	{ NOTE_REST, 353 }, 
	{ NOTE_REST, 176 }, 
	{ NOTE_REST, 176 }, 
	{ NOTE_REST, 178 }, 
	{ NOTE_REST, 176 }, 
	{ NOTE_REST, 353 }, 
	{ NOTE_REST, 353 }, 
	{ NOTE_REST, 176 }, 
	{ NOTE_REST, 176 }, 
	{ NOTE_REST, 178 }, 
	{ NOTE_REST, 706 }, 
	{ NOTE_REST, 706 }, 
	{ NOTE_REST, 88 }, 
	{ NOTE_GS5, 88 }, 
	{ NOTE_AS5, 88 }, 
	{ NOTE_GS5, 88 }, 
	{ NOTE_REST, 1060 }, 
	{ NOTE_REST, 706 }, 
	{ NOTE_REST, 706 }, 
	{ NOTE_REST, 88 }, 
	{ NOTE_F5, 88 }, 
	{ NOTE_G5, 88 }, 
	{ NOTE_F5, 88 }, 
	{ NOTE_REST, 1060 }, 
	{ NOTE_E5, 794 }, 
	{ NOTE_E5, 88 }, 
	{ NOTE_FS5, 88 }, 
	{ NOTE_GS5, 88 }, 
	{ NOTE_A5, 88 }, 
	{ NOTE_B5, 88 }, 
	{ NOTE_CS6, 88 }, 
	{ NOTE_B5, 90 }, 
	{ NOTE_A5, 88 }, 
	{ NOTE_E5, 88 }, 
	{ NOTE_FS5, 88 }, 
	{ NOTE_GS5, 88 }, 
	{ NOTE_A5, 88 }, 
	{ NOTE_B5, 88 }, 
	{ NOTE_CS6, 88 }, 
	{ NOTE_B5, 88 }, 
	{ NOTE_A5, 88 }, 
	{ NOTE_E5, 88 }, 
	{ NOTE_FS5, 88 }, 
	{ NOTE_GS5, 88 }, 
	{ NOTE_A5, 88 }, 
	{ NOTE_B5, 88 }, 
	{ NOTE_CS6, 88 }, 
	{ NOTE_B5, 92 }, 
	{ NOTE_A5, 88 }, 
	{ NOTE_A4, 3530 }, 
	{ NOTE_E4, 88 }, 
	{ NOTE_FS4, 88 }, 
	{ NOTE_GS4, 88 }, 
	{ NOTE_A4, 88 }, 
	{ NOTE_B4, 88 }, 
	{ NOTE_CS5, 88 }, 
	{ NOTE_B4, 90 }, 
	{ NOTE_A4, 88 }, 
	{ NOTE_E4, 88 }, 
	{ NOTE_FS4, 88 }, 
	{ NOTE_GS4, 88 }, 
	{ NOTE_A4, 88 }, 
	{ NOTE_B4, 88 }, 
	{ NOTE_CS5, 88 }, 
	{ NOTE_B4, 88 }, 
	{ NOTE_A4, 88 }, 
	{ NOTE_E4, 88 }, 
	{ NOTE_FS4, 88 }, 
	{ NOTE_GS4, 88 }, 
	{ NOTE_A4, 88 }, 
	{ NOTE_B4, 88 }, 
	{ NOTE_CS5, 88 }, 
	{ NOTE_B4, 92 }, 
	{ NOTE_A4, 88 }, 
	{ NOTE_E4, 88 }, 
	{ NOTE_FS4, 88 }, 
	{ NOTE_GS4, 88 }, 
	{ NOTE_A4, 88 }, 
	{ NOTE_B4, 88 }, 
	{ NOTE_CS5, 88 }, 
	{ NOTE_B4, 88 }, 
	{ NOTE_A4, 88 }, 
	{ NOTE_E4, 88 }, 
	{ NOTE_FS4, 88 }, 
	{ NOTE_GS4, 88 }, 
	{ NOTE_A4, 88 }, 
	{ NOTE_B4, 88 }, 
	{ NOTE_CS5, 88 }, 
	{ NOTE_B4, 92 }, 
	{ NOTE_A4, 88 }, 
	{ NOTE_E4, 88 }, 
	{ NOTE_FS4, 88 }, 
	{ NOTE_GS4, 88 }, 
	{ NOTE_A4, 88 }, 
	{ NOTE_B4, 88 }, 
	{ NOTE_CS5, 88 }, 
	{ NOTE_D5, 88 }, 
	{ NOTE_E5, 88 }, 
	{ NOTE_FS5, 88 }, 
	{ NOTE_GS5, 88 }, 
	{ NOTE_A5, 88 }, 
	{ NOTE_B5, 88 }, 
	{ NOTE_CS6, 88 }, 
	{ NOTE_D6, 88 }, 
	{ NOTE_DS6, 92 }, 
	{ NOTE_REST, 706 }, 
	{ NOTE_REST, 706 }, 
	{ NOTE_REST, 706 }, 
	{ NOTE_G4, 706 }, 
	{ NOTE_GS4, 176 }, 
	{ NOTE_REST, 176 }, 
	{ NOTE_REST, 176 }, 
	{ NOTE_REST, 176 }, 
	{ NOTE_REST, 176 }, 
	{ NOTE_REST, 176 }, 
	{ NOTE_REST, 176 }, 
	{ NOTE_REST, 180 }, 
	{ NOTE_REST, 176 }, 
	{ NOTE_REST, 176 }, 
	{ NOTE_REST, 176 }, 
	{ NOTE_REST, 176 }, 
	{ NOTE_REST, 176 }, 
	{ NOTE_REST, 176 }, 
	{ NOTE_REST, 176 }, 
	{ NOTE_REST, 180 }, 
	{ NOTE_REST, 176 }, 
	{ NOTE_REST, 176 }, 
	{ NOTE_REST, 176 }, 
	{ NOTE_REST, 176 }, 
	{ NOTE_REST, 176 }, 
	{ NOTE_REST, 176 }, 
	{ NOTE_REST, 176 }, 
	{ NOTE_REST, 180 }, 
	{ NOTE_REST, 176 }, 
	{ NOTE_REST, 176 }, 
	{ NOTE_REST, 176 }, 
	{ NOTE_REST, 176 }, 
	{ NOTE_REST, 176 }, 
	{ NOTE_REST, 176 }, 
	{ NOTE_REST, 176 }, 
	{ NOTE_REST, 180 }, 
	{ NOTE_REST, 176 }, 
	{ NOTE_REST, 176 }, 
	{ NOTE_REST, 176 }, 
	{ NOTE_REST, 176 }, 
	{ NOTE_REST, 176 }, 
	{ NOTE_REST, 176 }, 
	{ NOTE_REST, 176 }, 
	{ NOTE_REST, 180 }, 
	{ NOTE_REST, 176 }, 
	{ NOTE_REST, 176 }, 
	{ NOTE_REST, 176 }, 
	{ NOTE_REST, 176 }, 
	{ NOTE_REST, 176 }, 
	{ NOTE_REST, 176 }, 
	{ NOTE_REST, 176 }, 
	{ NOTE_REST, 180 }, 
	{ NOTE_REST, 176 }, 
	{ NOTE_B5, 176 }, 
	{ NOTE_B5, 176 }, 
	{ NOTE_B5, 176 }, 
	{ NOTE_B5, 176 }, 
	{ NOTE_B5, 176 }, 
	{ NOTE_AS5, 176 }, 
	{ NOTE_GS5, 180 }, 
	{ NOTE_G5, 176 }, 
	{ NOTE_E6, 176 }, 
	{ NOTE_E6, 176 }, 
	{ NOTE_E6, 176 }, 
	{ NOTE_E6, 176 }, 
	{ NOTE_E6, 176 }, 
	{ NOTE_DS6, 176 }, 
	{ NOTE_CS6, 180 }, 
	{ NOTE_B5, 176 }, 
	{ NOTE_B5, 176 }, 
	{ NOTE_B5, 176 }, 
	{ NOTE_B5, 176 }, 
	{ NOTE_B5, 176 }, 
	{ NOTE_B5, 176 }, 
	{ NOTE_AS5, 176 }, 
	{ NOTE_GS5, 180 }, 
	{ NOTE_G5, 176 }, 
	{ NOTE_E6, 176 }, 
	{ NOTE_E6, 176 }, 
	{ NOTE_E6, 176 }, 
	{ NOTE_E6, 176 }, 
	{ NOTE_E6, 176 }, 
	{ NOTE_DS6, 176 }, 
	{ NOTE_CS6, 180 }, 
	{ NOTE_B5, 176 }, 
	{ NOTE_REST, 176 }, 
	{ NOTE_REST, 176 }, 
	{ NOTE_REST, 176 }, 
	{ NOTE_REST, 176 }, 
	{ NOTE_REST, 176 }, 
	{ NOTE_REST, 176 }, 
	{ NOTE_REST, 180 }, 
	{ NOTE_REST, 176 }, 
	{ NOTE_REST, 176 }, 
	{ NOTE_REST, 176 }, 
	{ NOTE_REST, 176 }, 
	{ NOTE_REST, 176 }, 
	{ NOTE_REST, 176 }, 
	{ NOTE_REST, 176 }, 
	{ NOTE_REST, 180 }, 
	{ NOTE_REST, 176 }, 
	{ NOTE_REST, 176 }, 
	{ NOTE_REST, 176 }, 
	{ NOTE_REST, 176 }, 
	{ NOTE_REST, 176 }, 
	{ NOTE_REST, 176 }, 
	{ NOTE_REST, 176 }, 
	{ NOTE_REST, 180 }, 
	{ NOTE_REST, 176 }, 
	{ NOTE_REST, 176 }, 
	{ NOTE_REST, 176 }, 
	{ NOTE_REST, 176 }, 
	{ NOTE_REST, 176 }, 
	{ NOTE_REST, 176 }, 
	{ NOTE_REST, 176 }, 
	{ NOTE_REST, 180 }, 
	{ NOTE_REST, 353 }, 
	{ NOTE_REST, 353 }, 
	{ NOTE_REST, 353 }, 
	{ NOTE_B4, 265 }, 
	{ NOTE_GS4, 88 }, 
	{ NOTE_G4, 353 }, 
	{ NOTE_DS5, 353 }, 
	{ NOTE_DS5, 353 }, 
	{ NOTE_DS5, 353 }, 
	{ NOTE_E4, 0 }, 
	{ NOTE_DS5, 1059 }, 
	{ NOTE_B5, 265 }, 
	{ NOTE_GS5, 88 }, 
	{ NOTE_G5, 353 }, 
	{ NOTE_DS6, 353 }, 
	{ NOTE_DS6, 353 }, 
	{ NOTE_DS6, 353 }, 
	{ NOTE_B4, 44 }, 
	{ NOTE_GS5, 44 }, 
	{ NOTE_DS6, 618 }, 
	{ NOTE_CS5, 44 }, 
	{ NOTE_G5, 44 }, 
	{ NOTE_DS6, 618 }, 
	{ NOTE_B4, 44 }, 
	{ NOTE_GS5, 44 }, 
	{ NOTE_DS6, 618 }, 
	{ NOTE_CS5, 44 }, 
	{ NOTE_G5, 44 }, 
	{ NOTE_DS6, 618 }, 
	{ NOTE_B3, 88 }, 
	{ NOTE_GS4, 88 }, 
	{ NOTE_DS4, 88 }, 
	{ NOTE_GS4, 88 }, 
	{ NOTE_B3, 88 }, 
	{ NOTE_GS4, 88 }, 
	{ NOTE_DS4, 88 }, 
	{ NOTE_GS4, 88 }, 
	{ NOTE_B3, 88 }, 
	{ NOTE_GS4, 88 }, 
	{ NOTE_DS4, 88 }, 
	{ NOTE_GS4, 88 }, 
	{ NOTE_B3, 88 }, 
	{ NOTE_GS4, 88 }, 
	{ NOTE_DS4, 88 }, 
	{ NOTE_GS4, 92 }, 
	{ NOTE_C4, 88 }, 
	{ NOTE_FS4, 88 }, 
	{ NOTE_DS4, 88 }, 
	{ NOTE_FS4, 88 }, 
	{ NOTE_C4, 88 }, 
	{ NOTE_FS4, 88 }, 
	{ NOTE_DS4, 88 }, 
	{ NOTE_FS4, 88 }, 
	{ NOTE_C4, 88 }, 
	{ NOTE_FS4, 88 }, 
	{ NOTE_DS4, 88 }, 
	{ NOTE_FS4, 88 }, 
	{ NOTE_C4, 88 }, 
	{ NOTE_FS4, 88 }, 
	{ NOTE_DS4, 88 }, 
	{ NOTE_FS4, 92 }, 
	{ NOTE_CS4, 88 }, 
	{ NOTE_GS2, 88 }, 
	{ NOTE_CS3, 88 }, 
	{ NOTE_E3, 88 }, 
	{ NOTE_GS3, 88 }, 
	{ NOTE_CS3, 88 }, 
	{ NOTE_E3, 88 }, 
	{ NOTE_GS3, 88 }, 
	{ NOTE_CS4, 88 }, 
	{ NOTE_E3, 88 }, 
	{ NOTE_GS3, 88 }, 
	{ NOTE_CS4, 88 }, 
	{ NOTE_E4, 88 }, 
	{ NOTE_GS3, 88 }, 
	{ NOTE_CS4, 88 }, 
	{ NOTE_E4, 92 }, 
	{ NOTE_CS4, 88 }, 
	{ NOTE_CS3, 88 }, 
	{ NOTE_E3, 88 }, 
	{ NOTE_GS3, 88 }, 
	{ NOTE_CS4, 88 }, 
	{ NOTE_E3, 88 }, 
	{ NOTE_GS3, 88 }, 
	{ NOTE_CS4, 88 }, 
	{ NOTE_F4, 88 }, 
	{ NOTE_GS3, 88 }, 
	{ NOTE_CS4, 88 }, 
	{ NOTE_F4, 88 }, 
	{ NOTE_GS4, 88 }, 
	{ NOTE_CS4, 88 }, 
	{ NOTE_F4, 88 }, 
	{ NOTE_GS4, 92 }, 
	{ NOTE_CS5, 88 }, 
	{ NOTE_F4, 88 }, 
	{ NOTE_GS4, 88 }, 
	{ NOTE_CS5, 88 }, 
	{ NOTE_F5, 88 }, 
	{ NOTE_GS4, 88 }, 
	{ NOTE_CS5, 88 }, 
	{ NOTE_F5, 88 }, 
	{ NOTE_GS5, 88 }, 
	{ NOTE_CS5, 88 }, 
	{ NOTE_F5, 88 }, 
	{ NOTE_GS5, 88 }, 
	{ NOTE_GS5, 176 }, 
	{ NOTE_GS5, 180 }, 
	{ NOTE_REST, 88 }, 
	{ NOTE_CS3, 88 }, 
	{ NOTE_F3, 88 }, 
	{ NOTE_GS3, 88 }, 
	{ NOTE_CS4, 88 }, 
	{ NOTE_F3, 88 }, 
	{ NOTE_GS3, 88 }, 
	{ NOTE_CS4, 88 }, 
	{ NOTE_F4, 88 }, 
	{ NOTE_GS3, 88 }, 
	{ NOTE_CS4, 88 }, 
	{ NOTE_F4, 88 }, 
	{ NOTE_GS4, 88 }, 
	{ NOTE_CS4, 88 }, 
	{ NOTE_F4, 88 }, 
	{ NOTE_GS4, 92 }, 
	{ NOTE_CS5, 88 }, 
	{ NOTE_F4, 88 }, 
	{ NOTE_GS4, 88 }, 
	{ NOTE_CS5, 88 }, 
	{ NOTE_F5, 88 }, 
	{ NOTE_GS4, 88 }, 
	{ NOTE_CS5, 88 }, 
	{ NOTE_F5, 88 }, 
	{ NOTE_GS5, 88 }, 
	{ NOTE_CS5, 88 }, 
	{ NOTE_F5, 88 }, 
	{ NOTE_GS5, 88 }, 
	{ NOTE_GS5, 176 }, 
	{ NOTE_GS5, 180 }, 
	{ NOTE_REST, 88 }, 
	{ NOTE_CS3, 88 }, 
	{ NOTE_FS3, 88 }, 
	{ NOTE_A3, 88 }, 
	{ NOTE_CS4, 88 }, 
	{ NOTE_CS4, 88 }, 
	{ NOTE_FS4, 88 }, 
	{ NOTE_A4, 88 }, 
	{ NOTE_CS5, 88 }, 
	{ NOTE_CS5, 88 }, 
	{ NOTE_FS5, 88 }, 
	{ NOTE_A5, 88 }, 
	{ NOTE_A5, 176 }, 
	{ NOTE_A5, 180 }, 
	{ NOTE_REST, 88 }, 
	{ NOTE_CS3, 88 }, 
	{ NOTE_GS3, 88 }, 
	{ NOTE_B3, 88 }, 
	{ NOTE_CS4, 88 }, 
	{ NOTE_CS4, 88 }, 
	{ NOTE_GS4, 88 }, 
	{ NOTE_B4, 88 }, 
	{ NOTE_CS5, 88 }, 
	{ NOTE_CS5, 88 }, 
	{ NOTE_GS5, 88 }, 
	{ NOTE_B5, 88 }, 
	{ NOTE_B5, 176 }, 
	{ NOTE_B5, 180 }, 
	{ NOTE_A5, 353 }, 
	{ NOTE_CS5, 706 }, 
	{ NOTE_A4, 265 }, 
	{ NOTE_FS4, 88 }, 
	{ NOTE_F4, 59 }, 
	{ NOTE_FS4, 59 }, 
	{ NOTE_GS4, 59 }, 
	{ NOTE_FS4, 176 }, 
	{ NOTE_F4, 529 }, 
	{ NOTE_F4, 176 }, 
	{ NOTE_CS5, 265 }, 
	{ NOTE_F4, 89 }, 
	{ NOTE_GS4, 353 }, 
	{ NOTE_FS4, 529 }, 
	{ NOTE_FS4, 176 }, 
	{ NOTE_CS5, 265 }, 
	{ NOTE_FS4, 89 }, 
	{ NOTE_A4, 353 }, 
	{ NOTE_GS4, 529 }, 
	{ NOTE_GS4, 176 }, 
	{ NOTE_CS5, 265 }, 
	{ NOTE_GS4, 89 }, 
	{ NOTE_A4, 88 }, 
	{ NOTE_CS5, 88 }, 
	{ NOTE_A4, 88 }, 
	{ NOTE_CS5, 88 }, 
	{ NOTE_FS4, 88 }, 
	{ NOTE_CS5, 88 }, 
	{ NOTE_A4, 88 }, 
	{ NOTE_CS5, 88 }, 
	{ NOTE_FS4, 88 }, 
	{ NOTE_CS5, 88 }, 
	{ NOTE_A4, 88 }, 
	{ NOTE_CS5, 88 }, 
	{ NOTE_FS4, 88 }, 
	{ NOTE_CS5, 88 }, 
	{ NOTE_A4, 88 }, 
	{ NOTE_CS5, 92 }, 
	{ NOTE_GS4, 88 }, 
	{ NOTE_CS5, 88 }, 
	{ NOTE_B4, 88 }, 
	{ NOTE_CS5, 88 }, 
	{ NOTE_GS4, 88 }, 
	{ NOTE_CS5, 88 }, 
	{ NOTE_B4, 88 }, 
	{ NOTE_CS5, 88 }, 
	{ NOTE_GS4, 88 }, 
	{ NOTE_CS5, 88 }, 
	{ NOTE_B4, 88 }, 
	{ NOTE_CS5, 88 }, 
	{ NOTE_GS4, 88 }, 
	{ NOTE_CS5, 88 }, 
	{ NOTE_B4, 88 }, 
	{ NOTE_CS5, 92 }, 
	{ NOTE_FS4, 88 }, 
	{ NOTE_CS5, 88 }, 
	{ NOTE_A4, 88 }, 
	{ NOTE_CS5, 88 }, 
	{ NOTE_FS4, 88 }, 
	{ NOTE_CS5, 88 }, 
	{ NOTE_A4, 88 }, 
	{ NOTE_CS5, 88 }, 
	{ NOTE_FS4, 88 }, 
	{ NOTE_CS5, 88 }, 
	{ NOTE_A4, 88 }, 
	{ NOTE_CS5, 88 }, 
	{ NOTE_FS4, 88 }, 
	{ NOTE_CS5, 88 }, 
	{ NOTE_A4, 88 }, 
	{ NOTE_CS5, 92 }, 
	{ NOTE_FS4, 88 }, 
	{ NOTE_D5, 88 }, 
	{ NOTE_A4, 88 }, 
	{ NOTE_D5, 88 }, 
	{ NOTE_FS4, 88 }, 
	{ NOTE_D5, 88 }, 
	{ NOTE_A4, 88 }, 
	{ NOTE_D5, 88 }, 
	{ NOTE_A4, 88 }, 
	{ NOTE_D5, 88 }, 
	{ NOTE_C5, 88 }, 
	{ NOTE_D5, 88 }, 
	{ NOTE_A4, 88 }, 
	{ NOTE_D5, 88 }, 
	{ NOTE_C5, 88 }, 
	{ NOTE_D5, 92 }, 
	{ NOTE_G4, 88 }, 
	{ NOTE_D5, 88 }, 
	{ NOTE_B4, 88 }, 
	{ NOTE_D5, 88 }, 
	{ NOTE_G4, 88 }, 
	{ NOTE_D5, 88 }, 
	{ NOTE_B4, 88 }, 
	{ NOTE_D5, 88 }, 
	{ NOTE_G4, 88 }, 
	{ NOTE_D5, 88 }, 
	{ NOTE_B4, 88 }, 
	{ NOTE_D5, 88 }, 
	{ NOTE_G4, 88 }, 
	{ NOTE_D5, 88 }, 
	{ NOTE_B4, 88 }, 
	{ NOTE_D5, 92 }, 
	{ NOTE_A4, 88 }, 
	{ NOTE_D5, 88 }, 
	{ NOTE_C5, 88 }, 
	{ NOTE_D5, 88 }, 
	{ NOTE_A4, 88 }, 
	{ NOTE_D5, 88 }, 
	{ NOTE_C5, 88 }, 
	{ NOTE_D5, 88 }, 
	{ NOTE_A4, 88 }, 
	{ NOTE_D5, 88 }, 
	{ NOTE_C5, 88 }, 
	{ NOTE_D5, 88 }, 
	{ NOTE_A4, 88 }, 
	{ NOTE_D5, 88 }, 
	{ NOTE_C5, 88 }, 
	{ NOTE_D5, 92 }, 
	{ NOTE_G4, 88 }, 
	{ NOTE_D5, 88 }, 
	{ NOTE_B4, 88 }, 
	{ NOTE_D5, 88 }, 
	{ NOTE_G4, 88 }, 
	{ NOTE_D5, 88 }, 
	{ NOTE_B4, 88 }, 
	{ NOTE_D5, 88 }, 
	{ NOTE_G4, 88 }, 
	{ NOTE_D5, 88 }, 
	{ NOTE_B4, 88 }, 
	{ NOTE_D5, 88 }, 
	{ NOTE_FS4, 88 }, 
	{ NOTE_D5, 88 }, 
	{ NOTE_B4, 88 }, 
	{ NOTE_D5, 92 }, 
	{ NOTE_GS4, 88 }, 
	{ NOTE_D5, 88 }, 
	{ NOTE_B4, 88 }, 
	{ NOTE_D5, 88 }, 
	{ NOTE_GS4, 88 }, 
	{ NOTE_CS5, 88 }, 
	{ NOTE_B4, 88 }, 
	{ NOTE_CS5, 88 }, 
	{ NOTE_GS4, 88 }, 
	{ NOTE_CS5, 88 }, 
	{ NOTE_B4, 88 }, 
	{ NOTE_CS5, 88 }, 
	{ NOTE_GS4, 88 }, 
	{ NOTE_CS5, 88 }, 
	{ NOTE_B4, 88 }, 
	{ NOTE_CS5, 92 }, 
	{ NOTE_FS4, 88 }, 
	{ NOTE_CS5, 88 }, 
	{ NOTE_A4, 88 }, 
	{ NOTE_CS5, 88 }, 
	{ NOTE_FS4, 88 }, 
	{ NOTE_CS5, 88 }, 
	{ NOTE_A4, 88 }, 
	{ NOTE_CS5, 88 }, 
	{ NOTE_FS4, 88 }, 
	{ NOTE_FS5, 88 }, 
	{ NOTE_A4, 88 }, 
	{ NOTE_FS5, 88 }, 
	{ NOTE_FS4, 88 }, 
	{ NOTE_FS5, 88 }, 
	{ NOTE_A4, 88 }, 
	{ NOTE_FS5, 92 }, 
	{ NOTE_FS4, 88 }, 
	{ NOTE_FS5, 88 }, 
	{ NOTE_REST, 88 }, 
	{ NOTE_FS5, 88 }, 
	{ NOTE_FS4, 88 }, 
	{ NOTE_FS5, 88 }, 
	{ NOTE_REST, 88 }, 
	{ NOTE_FS5, 88 }, 
	{ NOTE_FS4, 88 }, 
	{ NOTE_FS5, 88 }, 
	{ NOTE_REST, 88 }, 
	{ NOTE_FS5, 88 }, 
	{ NOTE_FS4, 88 }, 
	{ NOTE_FS5, 88 }, 
	{ NOTE_REST, 88 }, 
	{ NOTE_FS5, 92 }, 
	{ NOTE_E4, 88 }, 
	{ NOTE_E5, 88 }, 
	{ NOTE_CS5, 88 }, 
	{ NOTE_E5, 88 }, 
	{ NOTE_E4, 88 }, 
	{ NOTE_E5, 88 }, 
	{ NOTE_CS5, 88 }, 
	{ NOTE_E5, 88 }, 
	{ NOTE_E4, 88 }, 
	{ NOTE_E5, 88 }, 
	{ NOTE_CS5, 88 }, 
	{ NOTE_E5, 88 }, 
	{ NOTE_E4, 88 }, 
	{ NOTE_E5, 88 }, 
	{ NOTE_CS5, 88 }, 
	{ NOTE_E5, 92 }, 
	{ NOTE_DS4, 88 }, 
	{ NOTE_DS5, 88 }, 
	{ NOTE_CS5, 88 }, 
	{ NOTE_DS5, 88 }, 
	{ NOTE_DS4, 88 }, 
	{ NOTE_DS5, 88 }, 
	{ NOTE_CS5, 88 }, 
	{ NOTE_DS5, 88 }, 
	{ NOTE_DS4, 88 }, 
	{ NOTE_DS5, 88 }, 
	{ NOTE_CS5, 88 }, 
	{ NOTE_DS5, 88 }, 
	{ NOTE_DS4, 88 }, 
	{ NOTE_DS5, 88 }, 
	{ NOTE_CS5, 88 }, 
	{ NOTE_DS5, 92 }, 
	{ NOTE_DS5, 353 }, 
	{ NOTE_GS4, 706 }, 
	{ NOTE_A4, 176 }, 
	{ NOTE_GS4, 177 }, 
	{ NOTE_FS4, 353 }, 
	{ NOTE_GS4, 176 }, 
	{ NOTE_FS4, 176 }, 
	{ NOTE_E4, 353 }, 
	{ NOTE_FS4, 176 }, 
	{ NOTE_E4, 178 }, 
	{ NOTE_DS4, 353 }, 
	{ NOTE_E4, 176 }, 
	{ NOTE_DS4, 176 }, 
	{ NOTE_CS4, 353 }, 
	{ NOTE_DS4, 176 }, 
	{ NOTE_CS4, 178 }, 
	{ NOTE_C4, 706 }, 
	{ NOTE_CS4, 706 }, 
	{ NOTE_C3, 44 }, 
	{ NOTE_GS3, 44 }, 
	{ NOTE_DS4, 265 }, 
	{ NOTE_GS5, 529 }, 
	{ NOTE_GS5, 176 }, 
	{ NOTE_A5, 176 }, 
	{ NOTE_GS5, 178 }, 
	{ NOTE_FS5, 176 }, 
	{ NOTE_FS5, 176 }, 
	{ NOTE_GS5, 176 }, 
	{ NOTE_FS5, 176 }, 
	{ NOTE_E5, 176 }, 
	{ NOTE_E5, 176 }, 
	{ NOTE_FS5, 176 }, 
	{ NOTE_E5, 180 }, 
	{ NOTE_DS5, 176 }, 
	{ NOTE_DS5, 176 }, 
	{ NOTE_E5, 176 }, 
	{ NOTE_DS5, 176 }, 
	{ NOTE_CS5, 176 }, 
	{ NOTE_CS5, 176 }, 
	{ NOTE_DS5, 176 }, 
	{ NOTE_CS5, 180 }, 
	{ NOTE_C5, 706 }, 
	{ NOTE_CS5, 706 }, 
	{ NOTE_C4, 44 }, 
	{ NOTE_FS4, 44 }, 
	{ NOTE_REST, 971 }, 
	{ NOTE_CS5, 353 }, 
	{ NOTE_C5, 353 }, 
	{ NOTE_C5, 353 }, 
	{ NOTE_CS5, 353 }, 
	{ NOTE_CS5, 353 }, 
	{ NOTE_C4, 44 }, 
	{ NOTE_FS4, 44 }, 
	{ NOTE_REST, 971 }, 
	{ NOTE_REST, 176 }, 
	{ NOTE_CS5, 177 }, 
	{ NOTE_REST, 176 }, 
	{ NOTE_C5, 176 }, 
	{ NOTE_REST, 176 }, 
	{ NOTE_C5, 176 }, 
	{ NOTE_REST, 176 }, 
	{ NOTE_CS5, 176 }, 
	{ NOTE_REST, 176 }, 
	{ NOTE_CS5, 180 }, 
	{ NOTE_REST, 176 }, 
	{ NOTE_DS5, 176 }, 
	{ NOTE_REST, 176 }, 
	{ NOTE_DS5, 176 }, 
	{ NOTE_REST, 176 }, 
	{ NOTE_CS5, 176 }, 
	{ NOTE_REST, 176 }, 
	{ NOTE_CS5, 180 }, 
	{ NOTE_DS4, 1412 }, 
	{ NOTE_DS4, 1412 }, 
	{ NOTE_REST, 88 }, 
	{ NOTE_GS2, 88 }, 
	{ NOTE_CS3, 88 }, 
	{ NOTE_E3, 88 }, 
	{ NOTE_GS3, 88 }, 
	{ NOTE_CS3, 88 }, 
	{ NOTE_E3, 88 }, 
	{ NOTE_GS3, 88 }, 
	{ NOTE_CS4, 88 }, 
	{ NOTE_E3, 88 }, 
	{ NOTE_GS3, 88 }, 
	{ NOTE_CS4, 88 }, 
	{ NOTE_E4, 88 }, 
	{ NOTE_E3, 88 }, 
	{ NOTE_CS4, 88 }, 
	{ NOTE_E4, 92 }, 
	{ NOTE_GS4, 88 }, 
	{ NOTE_CS4, 88 }, 
	{ NOTE_E4, 88 }, 
	{ NOTE_GS4, 88 }, 
	{ NOTE_CS5, 88 }, 
	{ NOTE_E4, 88 }, 
	{ NOTE_GS4, 88 }, 
	{ NOTE_CS5, 88 }, 
	{ NOTE_E5, 88 }, 
	{ NOTE_GS4, 88 }, 
	{ NOTE_CS5, 88 }, 
	{ NOTE_E5, 88 }, 
	{ NOTE_E5, 176 }, 
	{ NOTE_E5, 180 }, 
	{ NOTE_REST, 88 }, 
	{ NOTE_GS2, 88 }, 
	{ NOTE_C3, 88 }, 
	{ NOTE_DS3, 88 }, 
	{ NOTE_GS3, 88 }, 
	{ NOTE_C3, 88 }, 
	{ NOTE_DS3, 88 }, 
	{ NOTE_GS3, 88 }, 
	{ NOTE_C4, 88 }, 
	{ NOTE_DS3, 88 }, 
	{ NOTE_GS3, 88 }, 
	{ NOTE_C4, 88 }, 
	{ NOTE_DS4, 88 }, 
	{ NOTE_GS3, 88 }, 
	{ NOTE_C4, 88 }, 
	{ NOTE_DS4, 92 }, 
	{ NOTE_GS4, 88 }, 
	{ NOTE_C4, 88 }, 
	{ NOTE_DS4, 88 }, 
	{ NOTE_GS4, 88 }, 
	{ NOTE_C5, 88 }, 
	{ NOTE_DS4, 88 }, 
	{ NOTE_GS4, 88 }, 
	{ NOTE_C5, 88 }, 
	{ NOTE_DS5, 88 }, 
	{ NOTE_GS4, 88 }, 
	{ NOTE_C5, 88 }, 
	{ NOTE_DS5, 88 }, 
	{ NOTE_DS5, 176 }, 
	{ NOTE_DS5, 180 }, 
	{ NOTE_REST, 88 }, 
	{ NOTE_CS3, 88 }, 
	{ NOTE_F3, 88 }, 
	{ NOTE_GS3, 88 }, 
	{ NOTE_CS4, 88 }, 
	{ NOTE_F3, 88 }, 
	{ NOTE_GS3, 88 }, 
	{ NOTE_CS4, 88 }, 
	{ NOTE_F4, 88 }, 
	{ NOTE_GS3, 88 }, 
	{ NOTE_CS4, 88 }, 
	{ NOTE_F4, 88 }, 
	{ NOTE_GS4, 88 }, 
	{ NOTE_CS4, 88 }, 
	{ NOTE_F4, 88 }, 
	{ NOTE_GS4, 92 }, 
	{ NOTE_CS5, 88 }, 
	{ NOTE_F4, 88 }, 
	{ NOTE_GS4, 88 }, 
	{ NOTE_CS5, 88 }, 
	{ NOTE_F5, 88 }, 
	{ NOTE_GS4, 88 }, 
	{ NOTE_CS5, 88 }, 
	{ NOTE_F5, 88 }, 
	{ NOTE_GS5, 88 }, 
	{ NOTE_CS5, 88 }, 
	{ NOTE_F5, 88 }, 
	{ NOTE_GS5, 88 }, 
	{ NOTE_GS5, 176 }, 
	{ NOTE_GS5, 180 }, 
	{ NOTE_REST, 88 }, 
	{ NOTE_CS3, 88 }, 
	{ NOTE_FS3, 88 }, 
	{ NOTE_A3, 88 }, 
	{ NOTE_CS4, 88 }, 
	{ NOTE_CS4, 88 }, 
	{ NOTE_FS4, 88 }, 
	{ NOTE_A4, 88 }, 
	{ NOTE_CS5, 88 }, 
	{ NOTE_CS5, 88 }, 
	{ NOTE_FS5, 88 }, 
	{ NOTE_A5, 88 }, 
	{ NOTE_CS6, 176 }, 
	{ NOTE_CS6, 180 }, 
	{ NOTE_REST, 88 }, 
	{ NOTE_CS3, 88 }, 
	{ NOTE_E3, 88 }, 
	{ NOTE_G3, 88 }, 
	{ NOTE_CS4, 88 }, 
	{ NOTE_CS4, 88 }, 
	{ NOTE_E4, 88 }, 
	{ NOTE_G4, 88 }, 
	{ NOTE_CS5, 88 }, 
	{ NOTE_CS5, 88 }, 
	{ NOTE_E5, 88 }, 
	{ NOTE_G5, 88 }, 
	{ NOTE_CS6, 176 }, 
	{ NOTE_CS6, 180 }, 
	{ NOTE_C6, 176 }, 
	{ NOTE_GS4, 88 }, 
	{ NOTE_GS5, 88 }, 
	{ NOTE_GS4, 88 }, 
	{ NOTE_GS5, 88 }, 
	{ NOTE_AS4, 88 }, 
	{ NOTE_GS5, 88 }, 
	{ NOTE_C5, 88 }, 
	{ NOTE_GS5, 88 }, 
	{ NOTE_CS5, 88 }, 
	{ NOTE_GS5, 88 }, 
	{ NOTE_DS5, 88 }, 
	{ NOTE_GS5, 88 }, 
	{ NOTE_C5, 88 }, 
	{ NOTE_GS5, 92 }, 
	{ NOTE_DS5, 88 }, 
	{ NOTE_GS5, 88 }, 
	{ NOTE_CS5, 88 }, 
	{ NOTE_GS5, 88 }, 
	{ NOTE_FS5, 88 }, 
	{ NOTE_GS5, 88 }, 
	{ NOTE_E5, 88 }, 
	{ NOTE_GS5, 88 }, 
	{ NOTE_DS5, 88 }, 
	{ NOTE_GS5, 88 }, 
	{ NOTE_CS5, 88 }, 
	{ NOTE_GS5, 88 }, 
	{ NOTE_C5, 88 }, 
	{ NOTE_GS5, 88 }, 
	{ NOTE_A4, 88 }, 
	{ NOTE_G5, 92 }, 
	{ NOTE_GS4, 88 }, 
	{ NOTE_GS5, 88 }, 
	{ NOTE_GS4, 88 }, 
	{ NOTE_GS5, 88 }, 
	{ NOTE_GS4, 88 }, 
	{ NOTE_GS5, 88 }, 
	{ NOTE_AS4, 88 }, 
	{ NOTE_GS5, 88 }, 
	{ NOTE_C5, 88 }, 
	{ NOTE_GS5, 88 }, 
	{ NOTE_CS5, 88 }, 
	{ NOTE_GS5, 88 }, 
	{ NOTE_DS5, 88 }, 
	{ NOTE_GS5, 88 }, 
	{ NOTE_C5, 88 }, 
	{ NOTE_GS5, 92 }, 
	{ NOTE_DS5, 88 }, 
	{ NOTE_GS5, 88 }, 
	{ NOTE_CS5, 88 }, 
	{ NOTE_GS5, 88 }, 
	{ NOTE_FS5, 88 }, 
	{ NOTE_GS5, 88 }, 
	{ NOTE_E5, 88 }, 
	{ NOTE_GS5, 88 }, 
	{ NOTE_DS5, 88 }, 
	{ NOTE_GS5, 88 }, 
	{ NOTE_CS5, 88 }, 
	{ NOTE_GS5, 88 }, 
	{ NOTE_C5, 88 }, 
	{ NOTE_GS5, 88 }, 
	{ NOTE_A4, 88 }, 
	{ NOTE_G5, 92 }, 
	{ NOTE_GS4, 88 }, 
	{ NOTE_GS5, 88 }, 
	{ NOTE_A4, 88 }, 
	{ NOTE_G5, 88 }, 
	{ NOTE_GS4, 88 }, 
	{ NOTE_GS5, 88 }, 
	{ NOTE_A4, 88 }, 
	{ NOTE_G5, 88 }, 
	{ NOTE_GS4, 88 }, 
	{ NOTE_GS5, 88 }, 
	{ NOTE_A4, 88 }, 
	{ NOTE_G5, 88 }, 
	{ NOTE_GS4, 88 }, 
	{ NOTE_GS5, 88 }, 
	{ NOTE_A4, 88 }, 
	{ NOTE_G5, 92 }, 
	{ NOTE_REST, 353 }, 
	{ NOTE_GS3, 1059 }, 
	{ NOTE_REST, 353 }, 
	{ NOTE_GS4, 706 }, 
	{ NOTE_E4, 265 }, 
	{ NOTE_CS4, 88 }, 
	{ NOTE_C4, 59 }, 
	{ NOTE_CS4, 59 }, 
	{ NOTE_DS4, 59 }, 
	{ NOTE_CS4, 176 }, 
	{ NOTE_C4, 529 }, 
	{ NOTE_C4, 176 }, 
	{ NOTE_GS4, 265 }, 
	{ NOTE_C4, 89 }, 
	{ NOTE_DS4, 353 }, 
	{ NOTE_CS4, 529 }, 
	{ NOTE_CS4, 176 }, 
	{ NOTE_GS4, 265 }, 
	{ NOTE_CS4, 89 }, 
	{ NOTE_E4, 353 }, 
	{ NOTE_DS4, 529 }, 
	{ NOTE_DS4, 176 }, 
	{ NOTE_GS4, 265 }, 
	{ NOTE_DS4, 89 }, 
	{ NOTE_E4, 176 }, 
	{ NOTE_REST, 353 }, 
	{ NOTE_REST, 353 }, 
	{ NOTE_REST, 176 }, 
	{ NOTE_REST, 176 }, 
	{ NOTE_REST, 178 }, 
	{ NOTE_REST, 176 }, 
	{ NOTE_REST, 353 }, 
	{ NOTE_REST, 353 }, 
	{ NOTE_REST, 176 }, 
	{ NOTE_REST, 176 }, 
	{ NOTE_REST, 178 }, 
	{ NOTE_REST, 176 }, 
	{ NOTE_REST, 353 }, 
	{ NOTE_REST, 353 }, 
	{ NOTE_REST, 176 }, 
	{ NOTE_REST, 176 }, 
	{ NOTE_REST, 178 }, 
	{ NOTE_REST, 176 }, 
	{ NOTE_REST, 353 }, 
	{ NOTE_REST, 353 }, 
	{ NOTE_REST, 176 }, 
	{ NOTE_REST, 176 }, 
	{ NOTE_REST, 178 }, 
	{ NOTE_REST, 706 }, 
	{ NOTE_REST, 706 }, 
	{ NOTE_REST, 88 }, 
	{ NOTE_CS5, 88 }, 
	{ NOTE_DS5, 88 }, 
	{ NOTE_CS5, 88 }, 
	{ NOTE_REST, 1060 }, 
	{ NOTE_REST, 706 }, 
	{ NOTE_REST, 706 }, 
	{ NOTE_REST, 88 }, 
	{ NOTE_AS4, 88 }, 
	{ NOTE_C5, 88 }, 
	{ NOTE_AS4, 88 }, 
	{ NOTE_REST, 1060 }, 
	{ NOTE_A4, 794 }, 
	{ NOTE_A4, 88 }, 
	{ NOTE_B4, 88 }, 
	{ NOTE_CS5, 88 }, 
	{ NOTE_D5, 88 }, 
	{ NOTE_E5, 88 }, 
	{ NOTE_FS5, 88 }, 
	{ NOTE_E5, 90 }, 
	{ NOTE_D5, 88 }, 
	{ NOTE_A4, 88 }, 
	{ NOTE_B4, 88 }, 
	{ NOTE_CS5, 88 }, 
	{ NOTE_D5, 88 }, 
	{ NOTE_E5, 88 }, 
	{ NOTE_FS5, 88 }, 
	{ NOTE_E5, 88 }, 
	{ NOTE_D5, 88 }, 
	{ NOTE_A4, 88 }, 
	{ NOTE_B4, 88 }, 
	{ NOTE_CS5, 88 }, 
	{ NOTE_D5, 88 }, 
	{ NOTE_E5, 88 }, 
	{ NOTE_FS5, 88 }, 
	{ NOTE_E5, 92 }, 
	{ NOTE_D5, 88 }, 
	{ NOTE_A4, 3530 }, 
	{ NOTE_A3, 88 }, 
	{ NOTE_B3, 88 }, 
	{ NOTE_CS4, 88 }, 
	{ NOTE_D4, 88 }, 
	{ NOTE_E4, 88 }, 
	{ NOTE_FS4, 88 }, 
	{ NOTE_E4, 90 }, 
	{ NOTE_D4, 88 }, 
	{ NOTE_A3, 88 }, 
	{ NOTE_B3, 88 }, 
	{ NOTE_CS4, 88 }, 
	{ NOTE_D4, 88 }, 
	{ NOTE_E4, 88 }, 
	{ NOTE_FS4, 88 }, 
	{ NOTE_E4, 88 }, 
	{ NOTE_D4, 88 }, 
	{ NOTE_A3, 88 }, 
	{ NOTE_B3, 88 }, 
	{ NOTE_CS4, 88 }, 
	{ NOTE_D4, 88 }, 
	{ NOTE_E4, 88 }, 
	{ NOTE_FS4, 88 }, 
	{ NOTE_E4, 92 }, 
	{ NOTE_D4, 88 }, 
	{ NOTE_A3, 88 }, 
	{ NOTE_B3, 88 }, 
	{ NOTE_CS4, 88 }, 
	{ NOTE_D4, 88 }, 
	{ NOTE_E4, 88 }, 
	{ NOTE_FS4, 88 }, 
	{ NOTE_G4, 88 }, 
	{ NOTE_A4, 88 }, 
	{ NOTE_B4, 88 }, 
	{ NOTE_CS5, 88 }, 
	{ NOTE_D5, 88 }, 
	{ NOTE_E5, 88 }, 
	{ NOTE_FS5, 88 }, 
	{ NOTE_G5, 88 }, 
	{ NOTE_GS5, 92 }, 
	{ NOTE_REST, 706 }, 
	{ NOTE_REST, 706 }, 
	{ NOTE_REST, 706 }, 
	{ NOTE_REST, 706 }, 
	{ NOTE_CS4, 176 }, 
	{ NOTE_REST, 176 }, 
	{ NOTE_REST, 176 }, 
	{ NOTE_REST, 176 }, 
	{ NOTE_REST, 176 }, 
	{ NOTE_REST, 176 }, 
	{ NOTE_REST, 176 }, 
	{ NOTE_REST, 180 }, 
	{ NOTE_REST, 176 }, 
	{ NOTE_REST, 176 }, 
	{ NOTE_REST, 176 }, 
	{ NOTE_REST, 176 }, 
	{ NOTE_REST, 176 }, 
	{ NOTE_REST, 176 }, 
	{ NOTE_REST, 176 }, 
	{ NOTE_REST, 180 }, 
	{ NOTE_REST, 176 }, 
	{ NOTE_REST, 176 }, 
	{ NOTE_REST, 176 }, 
	{ NOTE_REST, 176 }, 
	{ NOTE_REST, 176 }, 
	{ NOTE_REST, 176 }, 
	{ NOTE_REST, 176 }, 
	{ NOTE_REST, 180 }, 
	{ NOTE_REST, 176 }, 
	{ NOTE_REST, 176 }, 
	{ NOTE_REST, 176 }, 
	{ NOTE_REST, 176 }, 
	{ NOTE_REST, 176 }, 
	{ NOTE_REST, 176 }, 
	{ NOTE_REST, 176 }, 
	{ NOTE_REST, 180 }, 
	{ NOTE_REST, 176 }, 
	{ NOTE_REST, 176 }, 
	{ NOTE_REST, 176 }, 
	{ NOTE_REST, 176 }, 
	{ NOTE_REST, 176 }, 
	{ NOTE_REST, 176 }, 
	{ NOTE_REST, 176 }, 
	{ NOTE_REST, 180 }, 
	{ NOTE_REST, 176 }, 
	{ NOTE_REST, 176 }, 
	{ NOTE_REST, 176 }, 
	{ NOTE_REST, 176 }, 
	{ NOTE_REST, 176 }, 
	{ NOTE_REST, 176 }, 
	{ NOTE_REST, 176 }, 
	{ NOTE_REST, 180 }, 
	{ NOTE_REST, 176 }, 
	{ NOTE_E5, 176 }, 
	{ NOTE_E5, 176 }, 
	{ NOTE_E5, 176 }, 
	{ NOTE_E5, 176 }, 
	{ NOTE_E5, 176 }, 
	{ NOTE_DS5, 176 }, 
	{ NOTE_CS5, 180 }, 
	{ NOTE_C5, 176 }, 
	{ NOTE_C6, 176 }, 
	{ NOTE_C6, 176 }, 
	{ NOTE_C6, 176 }, 
	{ NOTE_C6, 176 }, 
	{ NOTE_C6, 176 }, 
	{ NOTE_CS6, 176 }, 
	{ NOTE_DS6, 180 }, 
	{ NOTE_E6, 176 }, 
	{ NOTE_E5, 176 }, 
	{ NOTE_E5, 176 }, 
	{ NOTE_E5, 176 }, 
	{ NOTE_E5, 176 }, 
	{ NOTE_E5, 176 }, 
	{ NOTE_DS5, 176 }, 
	{ NOTE_CS5, 180 }, 
	{ NOTE_C5, 176 }, 
	{ NOTE_C6, 176 }, 
	{ NOTE_C6, 176 }, 
	{ NOTE_C6, 176 }, 
	{ NOTE_C6, 176 }, 
	{ NOTE_C6, 176 }, 
	{ NOTE_CS6, 176 }, 
	{ NOTE_DS6, 180 }, 
	{ NOTE_E6, 176 }, 
	{ NOTE_REST, 176 }, 
	{ NOTE_REST, 176 }, 
	{ NOTE_REST, 176 }, 
	{ NOTE_REST, 176 }, 
	{ NOTE_REST, 176 }, 
	{ NOTE_REST, 176 }, 
	{ NOTE_REST, 180 }, 
	{ NOTE_REST, 176 }, 
	{ NOTE_REST, 176 }, 
	{ NOTE_REST, 176 }, 
	{ NOTE_REST, 176 }, 
	{ NOTE_REST, 176 }, 
	{ NOTE_REST, 176 }, 
	{ NOTE_REST, 176 }, 
	{ NOTE_REST, 180 }, 
	{ NOTE_REST, 176 }, 
	{ NOTE_REST, 176 }, 
	{ NOTE_REST, 176 }, 
	{ NOTE_REST, 176 }, 
	{ NOTE_REST, 176 }, 
	{ NOTE_REST, 176 }, 
	{ NOTE_REST, 176 }, 
	{ NOTE_REST, 180 }, 
	{ NOTE_REST, 176 }, 
	{ NOTE_REST, 176 }, 
	{ NOTE_REST, 176 }, 
	{ NOTE_REST, 176 }, 
	{ NOTE_REST, 176 }, 
	{ NOTE_REST, 176 }, 
	{ NOTE_REST, 176 }, 
	{ NOTE_REST, 180 }, 
	{ NOTE_REST, 353 }, 
	{ NOTE_REST, 353 }, 
	{ NOTE_REST, 353 }, 
	{ NOTE_E4, 265 }, 
	{ NOTE_CS4, 88 }, 
	{ NOTE_C4, 353 }, 
	{ NOTE_GS4, 353 }, 
	{ NOTE_GS4, 353 }, 
	{ NOTE_GS4, 353 }, 
	{ NOTE_E3, 44 }, 
	{ NOTE_CS4, 44 }, 
	{ NOTE_GS4, 971 }, 
	{ NOTE_E5, 265 }, 
	{ NOTE_CS5, 88 }, 
	{ NOTE_C5, 353 }, 
	{ NOTE_GS5, 353 }, 
	{ NOTE_GS5, 353 }, 
	{ NOTE_GS5, 353 }, 
	{ NOTE_E4, 44 }, 
	{ NOTE_CS5, 44 }, 
	{ NOTE_GS5, 618 }, 
	{ NOTE_FS4, 44 }, 
	{ NOTE_C5, 44 }, 
	{ NOTE_GS5, 618 }, 
	{ NOTE_E4, 44 }, 
	{ NOTE_CS5, 44 }, 
	{ NOTE_GS5, 618 }, 
	{ NOTE_FS4, 44 }, 
	{ NOTE_C5, 44 }, 
	{ NOTE_GS5, 618 }, 
	{ NOTE_E3, 88 }, 
	{ NOTE_CS4, 88 }, 
	{ NOTE_GS3, 88 }, 
	{ NOTE_CS4, 88 }, 
	{ NOTE_E3, 88 }, 
	{ NOTE_CS4, 88 }, 
	{ NOTE_GS3, 88 }, 
	{ NOTE_CS4, 88 }, 
	{ NOTE_E3, 88 }, 
	{ NOTE_CS4, 88 }, 
	{ NOTE_GS3, 88 }, 
	{ NOTE_CS4, 88 }, 
	{ NOTE_E3, 88 }, 
	{ NOTE_CS4, 88 }, 
	{ NOTE_GS3, 88 }, 
	{ NOTE_CS4, 92 }, 
	{ NOTE_F3, 88 }, 
	{ NOTE_CS4, 88 }, 
	{ NOTE_GS3, 88 }, 
	{ NOTE_CS4, 88 }, 
	{ NOTE_F3, 88 }, 
	{ NOTE_CS4, 88 }, 
	{ NOTE_GS3, 88 }, 
	{ NOTE_CS4, 88 }, 
	{ NOTE_F3, 88 }, 
	{ NOTE_CS4, 88 }, 
	{ NOTE_GS3, 88 }, 
	{ NOTE_CS4, 88 }, 
	{ NOTE_F3, 88 }, 
	{ NOTE_CS4, 88 }, 
	{ NOTE_GS3, 88 }, 
	{ NOTE_CS4, 92 }, 
	{ NOTE_A3, 88 }, 
	{ NOTE_CS3, 88 }, 
	{ NOTE_FS3, 88 }, 
	{ NOTE_A3, 88 }, 
	{ NOTE_CS4, 88 }, 
	{ NOTE_FS3, 88 }, 
	{ NOTE_A3, 88 }, 
	{ NOTE_CS4, 88 }, 
	{ NOTE_FS4, 88 }, 
	{ NOTE_A3, 88 }, 
	{ NOTE_CS4, 88 }, 
	{ NOTE_FS4, 88 }, 
	{ NOTE_A4, 88 }, 
	{ NOTE_CS4, 88 }, 
	{ NOTE_FS4, 88 }, 
	{ NOTE_A4, 92 }, 
	{ NOTE_CS5, 88 }, 
	{ NOTE_FS4, 88 }, 
	{ NOTE_A4, 88 }, 
	{ NOTE_CS5, 88 }, 
	{ NOTE_FS5, 88 }, 
	{ NOTE_A4, 88 }, 
	{ NOTE_CS5, 88 }, 
	{ NOTE_FS5, 88 }, 
	{ NOTE_A5, 88 }, 
	{ NOTE_CS5, 88 }, 
	{ NOTE_FS5, 88 }, 
	{ NOTE_A5, 88 }, 
	{ NOTE_A5, 176 }, 
	{ NOTE_A5, 180 }, 
	{ NOTE_REST, 88 }, 
	{ NOTE_CS3, 88 }, 
	{ NOTE_E3, 88 }, 
	{ NOTE_GS3, 88 }, 
	{ NOTE_CS4, 88 }, 
	{ NOTE_E3, 88 }, 
	{ NOTE_GS3, 88 }, 
	{ NOTE_CS4, 88 }, 
	{ NOTE_E4, 88 }, 
	{ NOTE_GS3, 88 }, 
	{ NOTE_CS4, 88 }, 
	{ NOTE_E4, 88 }, 
	{ NOTE_GS4, 88 }, 
	{ NOTE_CS4, 88 }, 
	{ NOTE_E4, 88 }, 
	{ NOTE_GS4, 92 }, 
	{ NOTE_CS5, 88 }, 
	{ NOTE_E4, 88 }, 
	{ NOTE_GS4, 88 }, 
	{ NOTE_CS5, 88 }, 
	{ NOTE_E5, 88 }, 
	{ NOTE_GS4, 88 }, 
	{ NOTE_CS5, 88 }, 
	{ NOTE_E5, 88 }, 
	{ NOTE_GS5, 88 }, 
	{ NOTE_CS5, 88 }, 
	{ NOTE_E5, 88 }, 
	{ NOTE_GS5, 88 }, 
	{ NOTE_GS5, 176 }, 
	{ NOTE_GS5, 180 }, 
	{ NOTE_REST, 176 }, 
	{ NOTE_CS4, 44 }, 
	{ NOTE_E4, 44 }, 
	{ NOTE_G4, 44 }, 
	{ NOTE_AS4, 44 }, 
	{ NOTE_E4, 529 }, 
	{ NOTE_CS5, 44 }, 
	{ NOTE_E5, 44 }, 
	{ NOTE_G5, 44 }, 
	{ NOTE_AS5, 44 }, 
	{ NOTE_G5, 531 }, 
	{ NOTE_CS6, 44 }, 
	{ NOTE_E6, 44 }, 
	{ NOTE_G6, 44 }, 
	{ NOTE_A6, 44 }, 
	{ NOTE_E6, 1060 }, 
	{ NOTE_REST, 176 }, 
	{ NOTE_A3, 44 }, 
	{ NOTE_C4, 44 }, 
	{ NOTE_DS4, 44 }, 
	{ NOTE_FS4, 44 }, 
	{ NOTE_DS4, 529 }, 
	{ NOTE_A4, 44 }, 
	{ NOTE_C5, 44 }, 
	{ NOTE_DS5, 44 }, 
	{ NOTE_FS5, 44 }, 
	{ NOTE_DS5, 443 }, 
	{ NOTE_A5, 88 }, 
	{ NOTE_C6, 88 }, 
	{ NOTE_DS6, 88 }, 
	{ NOTE_FS4, 1060 }, 
	{ NOTE_REST, 88 }, 
	{ NOTE_GS4, 88 }, 
	{ NOTE_E4, 88 }, 
	{ NOTE_GS4, 88 }, 
	{ NOTE_CS4, 88 }, 
	{ NOTE_GS4, 88 }, 
	{ NOTE_E4, 88 }, 
	{ NOTE_GS4, 88 }, 
	{ NOTE_CS4, 88 }, 
	{ NOTE_GS4, 88 }, 
	{ NOTE_E4, 88 }, 
	{ NOTE_GS4, 88 }, 
	{ NOTE_CS4, 88 }, 
	{ NOTE_GS4, 88 }, 
	{ NOTE_E4, 88 }, 
	{ NOTE_GS4, 92 }, 
	{ NOTE_DS4, 88 }, 
	{ NOTE_GS4, 88 }, 
	{ NOTE_FS4, 88 }, 
	{ NOTE_GS4, 88 }, 
	{ NOTE_DS4, 88 }, 
	{ NOTE_GS4, 88 }, 
	{ NOTE_FS4, 88 }, 
	{ NOTE_GS4, 88 }, 
	{ NOTE_DS4, 88 }, 
	{ NOTE_GS4, 88 }, 
	{ NOTE_FS4, 88 }, 
	{ NOTE_GS4, 88 }, 
	{ NOTE_DS4, 88 }, 
	{ NOTE_GS4, 88 }, 
	{ NOTE_FS4, 88 }, 
	{ NOTE_GS4, 92 }, 
	{ NOTE_CS4, 88 }, 
	{ NOTE_GS4, 88 }, 
	{ NOTE_E4, 88 }, 
	{ NOTE_GS4, 88 }, 
	{ NOTE_CS4, 88 }, 
	{ NOTE_GS4, 88 }, 
	{ NOTE_E4, 88 }, 
	{ NOTE_GS4, 88 }, 
	{ NOTE_CS4, 88 }, 
	{ NOTE_GS4, 88 }, 
	{ NOTE_E4, 88 }, 
	{ NOTE_GS4, 88 }, 
	{ NOTE_CS4, 88 }, 
	{ NOTE_GS4, 88 }, 
	{ NOTE_E4, 88 }, 
	{ NOTE_GS4, 92 }, 
	{ NOTE_C4, 88 }, 
	{ NOTE_GS4, 88 }, 
	{ NOTE_FS4, 88 }, 
	{ NOTE_GS4, 88 }, 
	{ NOTE_C4, 88 }, 
	{ NOTE_GS4, 88 }, 
	{ NOTE_FS4, 88 }, 
	{ NOTE_GS4, 88 }, 
	{ NOTE_C4, 88 }, 
	{ NOTE_GS4, 88 }, 
	{ NOTE_FS4, 88 }, 
	{ NOTE_GS4, 88 }, 
	{ NOTE_C4, 88 }, 
	{ NOTE_GS4, 88 }, 
	{ NOTE_FS4, 88 }, 
	{ NOTE_GS4, 92 }, 
	{ NOTE_GS4, 353 }, 
	{ NOTE_REST, 706 }, 
	{ NOTE_REST, 265 }, 
	{ NOTE_REST, 88 }, 
	{ NOTE_REST, 353 }, 
	{ NOTE_REST, 529 }, 
	{ NOTE_REST, 176 }, 
	{ NOTE_REST, 265 }, 
	{ NOTE_REST, 89 }, 
	{ NOTE_REST, 353 }, 
	{ NOTE_REST, 529 }, 
	{ NOTE_REST, 176 }, 
	{ NOTE_REST, 265 }, 
	{ NOTE_REST, 89 }, 
	{ NOTE_REST, 353 }, 
	{ NOTE_REST, 529 }, 
	{ NOTE_REST, 176 }, 
	{ NOTE_REST, 265 }, 
	{ NOTE_REST, 89 }, 
	{ NOTE_REST, 176 }, 
	{ NOTE_REST, 176 }, 
	{ NOTE_REST, 176 }, 
	{ NOTE_REST, 176 }, 
	{ NOTE_REST, 176 }, 
	{ NOTE_REST, 176 }, 
	{ NOTE_REST, 176 }, 
	{ NOTE_REST, 180 }, 
	{ NOTE_REST, 176 }, 
	{ NOTE_REST, 176 }, 
	{ NOTE_REST, 176 }, 
	{ NOTE_REST, 176 }, 
	{ NOTE_REST, 176 }, 
	{ NOTE_REST, 176 }, 
	{ NOTE_REST, 176 }, 
	{ NOTE_REST, 180 }, 
	{ NOTE_A5, 118 }, 
	{ NOTE_FS5, 118 }, 
	{ NOTE_CS5, 118 }, 
	{ NOTE_A4, 118 }, 
	{ NOTE_FS4, 118 }, 
	{ NOTE_CS4, 118 }, 
	{ NOTE_A4, 118 }, 
	{ NOTE_FS4, 118 }, 
	{ NOTE_CS4, 118 }, 
	{ NOTE_A3, 118 }, 
	{ NOTE_FS3, 118 }, 
	{ NOTE_CS3, 114 }, 
	{ NOTE_A3, 88 }, 
	{ NOTE_FS3, 88 }, 
	{ NOTE_CS3, 88 }, 
	{ NOTE_A2, 88 }, 
	{ NOTE_CS3, 88 }, 
	{ NOTE_FS3, 88 }, 
	{ NOTE_A3, 88 }, 
	{ NOTE_CS4, 88 }, 
	{ NOTE_FS4, 88 }, 
	{ NOTE_A4, 88 }, 
	{ NOTE_CS5, 88 }, 
	{ NOTE_FS5, 88 }, 
	{ NOTE_A5, 88 }, 
	{ NOTE_FS5, 88 }, 
	{ NOTE_CS5, 88 }, 
	{ NOTE_A4, 92 }, 
	{ NOTE_A5, 118 }, 
	{ NOTE_FS5, 118 }, 
	{ NOTE_D5, 118 }, 
	{ NOTE_A4, 118 }, 
	{ NOTE_FS4, 118 }, 
	{ NOTE_D4, 118 }, 
	{ NOTE_A4, 118 }, 
	{ NOTE_FS4, 118 }, 
	{ NOTE_D4, 118 }, 
	{ NOTE_A3, 118 }, 
	{ NOTE_FS3, 118 }, 
	{ NOTE_D3, 114 }, 
	{ NOTE_A3, 88 }, 
	{ NOTE_FS3, 88 }, 
	{ NOTE_D3, 88 }, 
	{ NOTE_A2, 88 }, 
	{ NOTE_D3, 88 }, 
	{ NOTE_FS3, 88 }, 
	{ NOTE_A3, 88 }, 
	{ NOTE_E4, 88 }, 
	{ NOTE_FS4, 88 }, 
	{ NOTE_A4, 88 }, 
	{ NOTE_D5, 88 }, 
	{ NOTE_FS5, 88 }, 
	{ NOTE_A5, 88 }, 
	{ NOTE_FS5, 88 }, 
	{ NOTE_D5, 88 }, 
	{ NOTE_A4, 92 }, 
	{ NOTE_CS6, 118 }, 
	{ NOTE_AS5, 118 }, 
	{ NOTE_G5, 118 }, 
	{ NOTE_E5, 118 }, 
	{ NOTE_CS5, 118 }, 
	{ NOTE_AS4, 118 }, 
	{ NOTE_E5, 118 }, 
	{ NOTE_CS5, 118 }, 
	{ NOTE_AS4, 118 }, 
	{ NOTE_G4, 88 }, 
	{ NOTE_E4, 88 }, 
	{ NOTE_CS4, 88 }, 
	{ NOTE_AS3, 86 }, 
	{ NOTE_E4, 88 }, 
	{ NOTE_CS4, 88 }, 
	{ NOTE_AS3, 88 }, 
	{ NOTE_G3, 88 }, 
	{ NOTE_E3, 88 }, 
	{ NOTE_CS3, 88 }, 
	{ NOTE_E3, 88 }, 
	{ NOTE_G3, 88 }, 
	{ NOTE_AS3, 59 }, 
	{ NOTE_CS4, 59 }, 
	{ NOTE_E4, 59 }, 
	{ NOTE_G4, 59 }, 
	{ NOTE_AS4, 59 }, 
	{ NOTE_CS5, 59 }, 
	{ NOTE_E5, 59 }, 
	{ NOTE_G5, 59 }, 
	{ NOTE_AS5, 59 }, 
	{ NOTE_CS6, 59 }, 
	{ NOTE_AS5, 59 }, 
	{ NOTE_E5, 59 }, 
	{ NOTE_E6, 118 }, 
	{ NOTE_CS6, 118 }, 
	{ NOTE_GS5, 118 }, 
	{ NOTE_E5, 118 }, 
	{ NOTE_CS5, 118 }, 
	{ NOTE_GS4, 118 }, 
	{ NOTE_E5, 118 }, 
	{ NOTE_CS5, 118 }, 
	{ NOTE_GS4, 118 }, 
	{ NOTE_E4, 88 }, 
	{ NOTE_CS5, 88 }, 
	{ NOTE_GS4, 88 }, 
	{ NOTE_E4, 86 }, 
	{ NOTE_CS4, 88 }, 
	{ NOTE_GS4, 88 }, 
	{ NOTE_E4, 88 }, 
	{ NOTE_CS4, 88 }, 
	{ NOTE_GS3, 88 }, 
	{ NOTE_E4, 88 }, 
	{ NOTE_CS4, 88 }, 
	{ NOTE_GS3, 88 }, 
	{ NOTE_E3, 88 }, 
	{ NOTE_CS4, 88 }, 
	{ NOTE_GS3, 88 }, 
	{ NOTE_E3, 88 }, 
	{ NOTE_CS3, 88 }, 
	{ NOTE_GS3, 88 }, 
	{ NOTE_E3, 88 }, 
	{ NOTE_CS3, 92 }, 
	{ NOTE_REST, 1412 }, 
	{ NOTE_REST, 706 }, 
	{ NOTE_A4, 71 }, 
	{ NOTE_AS4, 71 }, 
	{ NOTE_B4, 71 }, 
	{ NOTE_C5, 71 }, 
	{ NOTE_CS5, 71 }, 
	{ NOTE_D5, 59 }, 
	{ NOTE_DS5, 59 }, 
	{ NOTE_E5, 59 }, 
	{ NOTE_F5, 44 }, 
	{ NOTE_FS5, 44 }, 
	{ NOTE_G5, 44 }, 
	{ NOTE_GS5, 42 }, 
	{ NOTE_A5, 353 }, 
	{ NOTE_GS5, 353 }, 
	{ NOTE_A5, 265 }, 
	{ NOTE_GS5, 265 }, 
	{ NOTE_A5, 176 }, 
	{ NOTE_GS5, 176 }, 
	{ NOTE_A5, 132 }, 
	{ NOTE_GS5, 132 }, 
	{ NOTE_A5, 88 }, 
	{ NOTE_GS5, 88 }, 
	{ NOTE_A5, 88 }, 
	{ NOTE_GS5, 88 }, 
	{ NOTE_A5, 88 }, 
	{ NOTE_GS5, 88 }, 
	{ NOTE_A5, 88 }, 
	{ NOTE_A5, 88 }, 
	{ NOTE_GS5, 88 }, 
	{ NOTE_A5, 88 }, 
	{ NOTE_GS5, 92 }, 
	{ NOTE_GS5, 176 }, 
	{ NOTE_FS5, 176 }, 
	{ NOTE_E5, 176 }, 
	{ NOTE_DS5, 176 }, 
	{ NOTE_FS5, 176 }, 
	{ NOTE_CS5, 176 }, 
	{ NOTE_C5, 176 }, 
	{ NOTE_DS5, 180 }, 
	{ NOTE_A4, 176 }, 
	{ NOTE_GS4, 176 }, 
	{ NOTE_FS4, 176 }, 
	{ NOTE_A4, 176 }, 
	{ NOTE_E4, 176 }, 
	{ NOTE_DS4, 176 }, 
	{ NOTE_FS4, 176 }, 
	{ NOTE_CS4, 180 }, 
	{ NOTE_C4, 176 }, 
	{ NOTE_DS4, 176 }, 
	{ NOTE_A3, 176 }, 
	{ NOTE_GS3, 176 }, 
	{ NOTE_FS3, 176 }, 
	{ NOTE_A3, 176 }, 
	{ NOTE_E3, 176 }, 
	{ NOTE_DS3, 180 }, 
	{ NOTE_FS3, 176 }, 
	{ NOTE_CS3, 265 }, 
	{ NOTE_C3, 265 }, 
	{ NOTE_DS3, 235 }, 
	{ NOTE_A2, 235 }, 
	{ NOTE_GS2, 236 }, 
	{ NOTE_REST, 1412 }, 
	{ NOTE_REST, 1412 }, 
	{ NOTE_CS3, 1059 }, 
	{ NOTE_E4, 265 }, 
	{ NOTE_CS4, 88 }, 
	{ NOTE_C4, 353 }, 
	{ NOTE_GS4, 353 }, 
	{ NOTE_GS4, 353 }, 
	{ NOTE_GS4, 353 }, 
	{ NOTE_E3, 44 }, 
	{ NOTE_CS4, 44 }, 
	{ NOTE_GS4, 971 }, 
	{ NOTE_E5, 265 }, 
	{ NOTE_CS5, 88 }, 
	{ NOTE_C5, 353 }, 
	{ NOTE_GS5, 353 }, 
	{ NOTE_GS5, 353 }, 
	{ NOTE_GS5, 353 }, 
	{ NOTE_E4, 44 }, 
	{ NOTE_CS5, 44 }, 
	{ NOTE_GS5, 618 }, 
	{ NOTE_FS4, 44 }, 
	{ NOTE_C5, 44 }, 
	{ NOTE_GS5, 618 }, 
	{ NOTE_E4, 44 }, 
	{ NOTE_CS5, 44 }, 
	{ NOTE_GS5, 618 }, 
	{ NOTE_FS4, 44 }, 
	{ NOTE_C5, 44 }, 
	{ NOTE_GS5, 618 }, 
	{ NOTE_GS5, 88 }, 
	{ NOTE_E4, 88 }, 
	{ NOTE_GS4, 88 }, 
	{ NOTE_CS5, 88 }, 
	{ NOTE_E5, 88 }, 
	{ NOTE_GS4, 88 }, 
	{ NOTE_CS5, 88 }, 
	{ NOTE_E5, 88 }, 
	{ NOTE_GS5, 88 }, 
	{ NOTE_CS5, 88 }, 
	{ NOTE_E5, 88 }, 
	{ NOTE_GS5, 88 }, 
	{ NOTE_CS6, 88 }, 
	{ NOTE_E5, 88 }, 
	{ NOTE_GS5, 88 }, 
	{ NOTE_CS6, 92 }, 
	{ NOTE_E6, 88 }, 
	{ NOTE_CS6, 88 }, 
	{ NOTE_GS5, 88 }, 
	{ NOTE_E5, 88 }, 
	{ NOTE_CS6, 88 }, 
	{ NOTE_GS5, 88 }, 
	{ NOTE_E5, 88 }, 
	{ NOTE_CS5, 88 }, 
	{ NOTE_GS5, 88 }, 
	{ NOTE_E5, 88 }, 
	{ NOTE_CS5, 88 }, 
	{ NOTE_GS4, 88 }, 
	{ NOTE_E5, 88 }, 
	{ NOTE_CS5, 88 }, 
	{ NOTE_GS4, 88 }, 
	{ NOTE_E4, 92 }, 
	{ NOTE_CS5, 88 }, 
	{ NOTE_GS4, 88 }, 
	{ NOTE_E4, 88 }, 
	{ NOTE_CS4, 88 }, 
	{ NOTE_GS4, 88 }, 
	{ NOTE_E4, 88 }, 
	{ NOTE_CS4, 88 }, 
	{ NOTE_GS3, 88 }, 
	{ NOTE_E4, 88 }, 
	{ NOTE_CS4, 88 }, 
	{ NOTE_GS3, 88 }, 
	{ NOTE_E3, 88 }, 
	{ NOTE_CS4, 88 }, 
	{ NOTE_GS3, 88 }, 
	{ NOTE_E3, 88 }, 
	{ NOTE_GS3, 92 }, 
	{ NOTE_REST, 706 }, 
	{ NOTE_GS5, 353 }, 
	{ NOTE_REST, 353 }, 
	{ NOTE_GS4, 353 }, 
	{ NOTE_REST, 353 }, 
	{ NOTE_REST, 706 }, 
	{ NOTE_REST, 1412 }, 
};
const uint16_t NUM_OF_NOTES2 = sizeof(melody2)/sizeof(melody2[0]);

const Note melody3[] PROGMEM = {
	{ NOTE_CS3, 176 }, 
	{ NOTE_GS3, 176 }, 
	{ NOTE_CS3, 176 }, 
	{ NOTE_GS3, 176 }, 
	{ NOTE_CS3, 176 }, 
	{ NOTE_GS3, 176 }, 
	{ NOTE_CS3, 176 }, 
	{ NOTE_GS3, 180 }, 
	{ NOTE_CS3, 176 }, 
	{ NOTE_GS3, 176 }, 
	{ NOTE_CS3, 176 }, 
	{ NOTE_GS3, 176 }, 
	{ NOTE_CS3, 176 }, 
	{ NOTE_GS3, 176 }, 
	{ NOTE_CS3, 176 }, 
	{ NOTE_GS3, 180 }, 
	{ NOTE_C3, 176 }, 
	{ NOTE_GS3, 176 }, 
	{ NOTE_C3, 176 }, 
	{ NOTE_GS3, 176 }, 
	{ NOTE_C3, 176 }, 
	{ NOTE_GS3, 176 }, 
	{ NOTE_C3, 176 }, 
	{ NOTE_GS3, 180 }, 
	{ NOTE_C3, 176 }, 
	{ NOTE_GS3, 176 }, 
	{ NOTE_C3, 176 }, 
	{ NOTE_GS3, 176 }, 
	{ NOTE_C3, 176 }, 
	{ NOTE_GS3, 176 }, 
	{ NOTE_C3, 176 }, 
	{ NOTE_GS3, 180 }, 
	{ NOTE_B2, 176 }, 
	{ NOTE_GS3, 176 }, 
	{ NOTE_B2, 176 }, 
	{ NOTE_GS3, 176 }, 
	{ NOTE_B2, 176 }, 
	{ NOTE_GS3, 176 }, 
	{ NOTE_B2, 176 }, 
	{ NOTE_GS3, 180 }, 
	{ NOTE_B2, 176 }, 
	{ NOTE_GS3, 176 }, 
	{ NOTE_B2, 176 }, 
	{ NOTE_GS3, 176 }, 
	{ NOTE_B2, 176 }, 
	{ NOTE_GS3, 176 }, 
	{ NOTE_B2, 176 }, 
	{ NOTE_GS3, 180 }, 
	{ NOTE_A3, 176 }, 
	{ NOTE_A4, 176 }, 
	{ NOTE_A3, 176 }, 
	{ NOTE_A4, 176 }, 
	{ NOTE_A3, 176 }, 
	{ NOTE_A4, 176 }, 
	{ NOTE_A3, 176 }, 
	{ NOTE_A4, 180 }, 
	{ NOTE_A3, 176 }, 
	{ NOTE_A4, 176 }, 
	{ NOTE_A3, 176 }, 
	{ NOTE_A4, 176 }, 
	{ NOTE_A3, 176 }, 
	{ NOTE_A4, 176 }, 
	{ NOTE_A3, 176 }, 
	{ NOTE_A4, 180 }, 
	{ NOTE_GS3, 176 }, 
	{ NOTE_GS4, 2648 }, 
	{ NOTE_GS4, 2824 }, 
	{ NOTE_GS4, 176 }, 
	{ NOTE_GS4, 176 }, 
	{ NOTE_GS4, 176 }, 
	{ NOTE_GS4, 176 }, 
	{ NOTE_GS4, 176 }, 
	{ NOTE_GS4, 176 }, 
	{ NOTE_GS4, 176 }, 
	{ NOTE_GS4, 180 }, 
	{ NOTE_GS4, 353 }, 
	{ NOTE_GS3, 1059 }, 
	{ NOTE_CS3, 176 }, 
	{ NOTE_GS3, 176 }, 
	{ NOTE_CS3, 176 }, 
	{ NOTE_GS3, 176 }, 
	{ NOTE_CS3, 176 }, 
	{ NOTE_GS3, 176 }, 
	{ NOTE_CS3, 176 }, 
	{ NOTE_GS3, 180 }, 
	{ NOTE_CS3, 176 }, 
	{ NOTE_GS3, 176 }, 
	{ NOTE_CS3, 176 }, 
	{ NOTE_GS3, 176 }, 
	{ NOTE_CS3, 176 }, 
	{ NOTE_GS3, 176 }, 
	{ NOTE_CS3, 176 }, 
	{ NOTE_GS3, 180 }, 
	{ NOTE_AS3, 176 }, 
	{ NOTE_CS4, 176 }, 
	{ NOTE_AS3, 176 }, 
	{ NOTE_CS4, 176 }, 
	{ NOTE_AS3, 176 }, 
	{ NOTE_CS4, 176 }, 
	{ NOTE_AS3, 176 }, 
	{ NOTE_CS4, 180 }, 
	{ NOTE_AS3, 176 }, 
	{ NOTE_CS4, 176 }, 
	{ NOTE_AS3, 176 }, 
	{ NOTE_CS4, 176 }, 
	{ NOTE_AS3, 176 }, 
	{ NOTE_CS4, 176 }, 
	{ NOTE_AS3, 176 }, 
	{ NOTE_CS4, 180 }, 
	{ NOTE_G3, 176 }, 
	{ NOTE_DS4, 176 }, 
	{ NOTE_G3, 176 }, 
	{ NOTE_DS4, 176 }, 
	{ NOTE_G3, 176 }, 
	{ NOTE_DS4, 176 }, 
	{ NOTE_G3, 176 }, 
	{ NOTE_DS4, 180 }, 
	{ NOTE_G3, 176 }, 
	{ NOTE_DS4, 176 }, 
	{ NOTE_G3, 176 }, 
	{ NOTE_DS4, 176 }, 
	{ NOTE_G3, 176 }, 
	{ NOTE_DS4, 176 }, 
	{ NOTE_G3, 176 }, 
	{ NOTE_DS4, 180 }, 
	{ NOTE_GS3, 88 }, 
	{ NOTE_DS4, 88 }, 
	{ NOTE_B3, 88 }, 
	{ NOTE_DS4, 88 }, 
	{ NOTE_GS3, 88 }, 
	{ NOTE_DS4, 88 }, 
	{ NOTE_B3, 88 }, 
	{ NOTE_DS4, 88 }, 
	{ NOTE_GS3, 88 }, 
	{ NOTE_DS4, 88 }, 
	{ NOTE_B3, 88 }, 
	{ NOTE_DS4, 88 }, 
	{ NOTE_GS3, 88 }, 
	{ NOTE_DS4, 88 }, 
	{ NOTE_B3, 88 }, 
	{ NOTE_DS4, 92 }, 
	{ NOTE_AS3, 88 }, 
	{ NOTE_DS4, 88 }, 
	{ NOTE_CS4, 88 }, 
	{ NOTE_DS4, 88 }, 
	{ NOTE_AS3, 88 }, 
	{ NOTE_DS4, 88 }, 
	{ NOTE_CS4, 88 }, 
	{ NOTE_DS4, 88 }, 
	{ NOTE_AS3, 88 }, 
	{ NOTE_DS4, 88 }, 
	{ NOTE_CS4, 88 }, 
	{ NOTE_DS4, 88 }, 
	{ NOTE_AS3, 88 }, 
	{ NOTE_DS4, 88 }, 
	{ NOTE_CS4, 88 }, 
	{ NOTE_DS4, 92 }, 
	{ NOTE_B3, 88 }, 
	{ NOTE_DS4, 88 }, 
	{ NOTE_B3, 88 }, 
	{ NOTE_DS4, 88 }, 
	{ NOTE_B3, 88 }, 
	{ NOTE_DS4, 88 }, 
	{ NOTE_B3, 88 }, 
	{ NOTE_DS4, 88 }, 
	{ NOTE_B3, 88 }, 
	{ NOTE_DS4, 88 }, 
	{ NOTE_B3, 88 }, 
	{ NOTE_DS4, 88 }, 
	{ NOTE_B3, 88 }, 
	{ NOTE_DS4, 88 }, 
	{ NOTE_B3, 88 }, 
	{ NOTE_DS4, 92 }, 
	{ NOTE_G3, 88 }, 
	{ NOTE_DS4, 88 }, 
	{ NOTE_G3, 88 }, 
	{ NOTE_DS4, 88 }, 
	{ NOTE_G3, 88 }, 
	{ NOTE_DS4, 88 }, 
	{ NOTE_G3, 88 }, 
	{ NOTE_DS4, 88 }, 
	{ NOTE_G3, 88 }, 
	{ NOTE_DS4, 88 }, 
	{ NOTE_G3, 88 }, 
	{ NOTE_DS4, 88 }, 
	{ NOTE_G3, 88 }, 
	{ NOTE_DS4, 88 }, 
	{ NOTE_G3, 88 }, 
	{ NOTE_DS4, 92 }, 
	{ NOTE_GS3, 88 }, 
	{ NOTE_DS4, 88 }, 
	{ NOTE_B3, 88 }, 
	{ NOTE_DS4, 88 }, 
	{ NOTE_GS3, 88 }, 
	{ NOTE_DS4, 88 }, 
	{ NOTE_B3, 88 }, 
	{ NOTE_DS4, 88 }, 
	{ NOTE_GS3, 88 }, 
	{ NOTE_DS4, 88 }, 
	{ NOTE_B3, 88 }, 
	{ NOTE_DS4, 88 }, 
	{ NOTE_GS3, 88 }, 
	{ NOTE_DS4, 88 }, 
	{ NOTE_B3, 88 }, 
	{ NOTE_DS4, 92 }, 
	{ NOTE_AS3, 88 }, 
	{ NOTE_DS4, 88 }, 
	{ NOTE_CS4, 88 }, 
	{ NOTE_DS4, 88 }, 
	{ NOTE_AS3, 88 }, 
	{ NOTE_DS4, 88 }, 
	{ NOTE_CS4, 88 }, 
	{ NOTE_DS4, 88 }, 
	{ NOTE_AS3, 88 }, 
	{ NOTE_DS4, 88 }, 
	{ NOTE_CS4, 88 }, 
	{ NOTE_DS4, 88 }, 
	{ NOTE_AS3, 88 }, 
	{ NOTE_DS4, 88 }, 
	{ NOTE_CS4, 88 }, 
	{ NOTE_DS4, 92 }, 
	{ NOTE_B3, 88 }, 
	{ NOTE_DS4, 88 }, 
	{ NOTE_B3, 88 }, 
	{ NOTE_DS4, 88 }, 
	{ NOTE_B3, 88 }, 
	{ NOTE_DS4, 88 }, 
	{ NOTE_B3, 88 }, 
	{ NOTE_DS4, 88 }, 
	{ NOTE_B3, 88 }, 
	{ NOTE_DS4, 88 }, 
	{ NOTE_B3, 88 }, 
	{ NOTE_DS4, 88 }, 
	{ NOTE_B3, 88 }, 
	{ NOTE_DS4, 88 }, 
	{ NOTE_B3, 88 }, 
	{ NOTE_DS4, 92 }, 
	{ NOTE_G3, 88 }, 
	{ NOTE_DS4, 88 }, 
	{ NOTE_G3, 88 }, 
	{ NOTE_DS4, 88 }, 
	{ NOTE_G3, 88 }, 
	{ NOTE_DS4, 88 }, 
	{ NOTE_G3, 88 }, 
	{ NOTE_DS4, 88 }, 
	{ NOTE_G3, 88 }, 
	{ NOTE_DS4, 88 }, 
	{ NOTE_G3, 88 }, 
	{ NOTE_DS4, 88 }, 
	{ NOTE_G3, 88 }, 
	{ NOTE_DS4, 88 }, 
	{ NOTE_G3, 88 }, 
	{ NOTE_DS4, 92 }, 
	{ NOTE_FS3, 88 }, 
	{ NOTE_DS4, 88 }, 
	{ NOTE_GS3, 88 }, 
	{ NOTE_DS4, 88 }, 
	{ NOTE_FS3, 88 }, 
	{ NOTE_DS4, 88 }, 
	{ NOTE_GS3, 88 }, 
	{ NOTE_DS4, 88 }, 
	{ NOTE_E3, 88 }, 
	{ NOTE_DS4, 88 }, 
	{ NOTE_GS3, 88 }, 
	{ NOTE_DS4, 88 }, 
	{ NOTE_E3, 88 }, 
	{ NOTE_DS4, 88 }, 
	{ NOTE_GS3, 88 }, 
	{ NOTE_DS4, 92 }, 
	{ NOTE_E3, 88 }, 
	{ NOTE_DS4, 88 }, 
	{ NOTE_FS3, 88 }, 
	{ NOTE_DS4, 88 }, 
	{ NOTE_DS3, 88 }, 
	{ NOTE_DS4, 88 }, 
	{ NOTE_FS3, 88 }, 
	{ NOTE_DS4, 88 }, 
	{ NOTE_DS3, 88 }, 
	{ NOTE_DS4, 88 }, 
	{ NOTE_FS3, 88 }, 
	{ NOTE_DS4, 88 }, 
	{ NOTE_DS3, 88 }, 
	{ NOTE_DS4, 88 }, 
	{ NOTE_FS3, 88 }, 
	{ NOTE_DS4, 92 }, 
	{ NOTE_D3, 88 }, 
	{ NOTE_B3, 88 }, 
	{ NOTE_E3, 88 }, 
	{ NOTE_B3, 88 }, 
	{ NOTE_D3, 88 }, 
	{ NOTE_B3, 88 }, 
	{ NOTE_E3, 88 }, 
	{ NOTE_B3, 88 }, 
	{ NOTE_CS3, 88 }, 
	{ NOTE_B3, 88 }, 
	{ NOTE_E3, 88 }, 
	{ NOTE_B3, 88 }, 
	{ NOTE_CS3, 88 }, 
	{ NOTE_B3, 88 }, 
	{ NOTE_E3, 88 }, 
	{ NOTE_B3, 92 }, 
	{ NOTE_CS3, 88 }, 
	{ NOTE_AS3, 88 }, 
	{ NOTE_DS3, 88 }, 
	{ NOTE_AS3, 88 }, 
	{ NOTE_B2, 88 }, 
	{ NOTE_AS3, 88 }, 
	{ NOTE_DS3, 88 }, 
	{ NOTE_AS3, 88 }, 
	{ NOTE_B2, 88 }, 
	{ NOTE_AS3, 88 }, 
	{ NOTE_DS3, 88 }, 
	{ NOTE_AS3, 88 }, 
	{ NOTE_B2, 88 }, 
	{ NOTE_AS3, 88 }, 
	{ NOTE_DS3, 88 }, 
	{ NOTE_AS3, 92 }, 
	{ NOTE_CS3, 1059 }, 
	{ NOTE_REST, 353 }, 
	{ NOTE_CS5, 353 }, 
	{ NOTE_REST, 353 }, 
	{ NOTE_CS5, 353 }, 
	{ NOTE_REST, 353 }, 
	{ NOTE_CS5, 353 }, 
	{ NOTE_CS5, 353 }, 
	{ NOTE_CS5, 353 }, 
	{ NOTE_CS5, 353 }, 
	{ NOTE_DS5, 88 }, 
	{ NOTE_B5, 88 }, 
	{ NOTE_GS5, 88 }, 
	{ NOTE_B5, 88 }, 
	{ NOTE_DS5, 88 }, 
	{ NOTE_B5, 88 }, 
	{ NOTE_GS5, 88 }, 
	{ NOTE_B5, 88 }, 
	{ NOTE_DS5, 88 }, 
	{ NOTE_CS6, 88 }, 
	{ NOTE_G5, 88 }, 
	{ NOTE_CS6, 88 }, 
	{ NOTE_DS5, 88 }, 
	{ NOTE_CS6, 88 }, 
	{ NOTE_G5, 88 }, 
	{ NOTE_CS6, 445 }, 
	{ NOTE_CS3, 706 }, 
	{ NOTE_REST, 353 }, 
	{ NOTE_REST, 353 }, 
	{ NOTE_CS4, 353 }, 
	{ NOTE_REST, 353 }, 
	{ NOTE_CS4, 353 }, 
	{ NOTE_REST, 176 }, 
	{ NOTE_CS4, 176 }, 
	{ NOTE_REST, 176 }, 
	{ NOTE_CS4, 176 }, 
	{ NOTE_REST, 176 }, 
	{ NOTE_CS4, 176 }, 
	{ NOTE_REST, 176 }, 
	{ NOTE_CS4, 180 }, 
	{ NOTE_CS4, 353 }, 
	{ NOTE_REST, 353 }, 
	{ NOTE_REST, 706 }, 
	{ NOTE_CS4, 88 }, 
	{ NOTE_A4, 88 }, 
	{ NOTE_E4, 88 }, 
	{ NOTE_A4, 88 }, 
	{ NOTE_CS4, 88 }, 
	{ NOTE_A4, 88 }, 
	{ NOTE_E4, 88 }, 
	{ NOTE_A4, 88 }, 
	{ NOTE_D4, 88 }, 
	{ NOTE_B4, 88 }, 
	{ NOTE_F4, 88 }, 
	{ NOTE_B4, 88 }, 
	{ NOTE_D4, 88 }, 
	{ NOTE_B4, 88 }, 
	{ NOTE_F4, 88 }, 
	{ NOTE_B4, 92 }, 
	{ NOTE_DS4, 88 }, 
	{ NOTE_B4, 88 }, 
	{ NOTE_GS4, 88 }, 
	{ NOTE_B4, 88 }, 
	{ NOTE_DS4, 88 }, 
	{ NOTE_B4, 88 }, 
	{ NOTE_GS4, 88 }, 
	{ NOTE_B4, 88 }, 
	{ NOTE_DS3, 88 }, 
	{ NOTE_DS4, 88 }, 
	{ NOTE_D4, 88 }, 
	{ NOTE_DS4, 88 }, 
	{ NOTE_D4, 88 }, 
	{ NOTE_DS4, 88 }, 
	{ NOTE_D4, 88 }, 
	{ NOTE_DS4, 92 }, 
	{ NOTE_GS3, 176 }, 
	{ NOTE_GS4, 176 }, 
	{ NOTE_GS4, 176 }, 
	{ NOTE_GS4, 176 }, 
	{ NOTE_GS4, 176 }, 
	{ NOTE_GS4, 176 }, 
	{ NOTE_AS4, 176 }, 
	{ NOTE_B4, 180 }, 
	{ NOTE_DS4, 176 }, 
	{ NOTE_CS5, 176 }, 
	{ NOTE_CS5, 176 }, 
	{ NOTE_CS5, 176 }, 
	{ NOTE_CS5, 176 }, 
	{ NOTE_CS5, 176 }, 
	{ NOTE_B4, 176 }, 
	{ NOTE_AS4, 180 }, 
	{ NOTE_GS3, 176 }, 
	{ NOTE_GS4, 176 }, 
	{ NOTE_GS4, 176 }, 
	{ NOTE_GS4, 176 }, 
	{ NOTE_GS4, 176 }, 
	{ NOTE_GS4, 176 }, 
	{ NOTE_AS4, 176 }, 
	{ NOTE_B4, 180 }, 
	{ NOTE_DS4, 176 }, 
	{ NOTE_CS5, 176 }, 
	{ NOTE_CS5, 176 }, 
	{ NOTE_CS5, 176 }, 
	{ NOTE_CS5, 176 }, 
	{ NOTE_CS5, 176 }, 
	{ NOTE_B4, 176 }, 
	{ NOTE_AS4, 180 }, 
	{ NOTE_GS3, 176 }, 
	{ NOTE_GS4, 176 }, 
	{ NOTE_GS4, 176 }, 
	{ NOTE_B4, 176 }, 
	{ NOTE_CS4, 176 }, 
	{ NOTE_GS4, 176 }, 
	{ NOTE_GS4, 176 }, 
	{ NOTE_CS5, 180 }, 
	{ NOTE_DS4, 176 }, 
	{ NOTE_GS4, 176 }, 
	{ NOTE_GS4, 176 }, 
	{ NOTE_B4, 176 }, 
	{ NOTE_DS4, 176 }, 
	{ NOTE_G4, 176 }, 
	{ NOTE_G4, 176 }, 
	{ NOTE_AS4, 180 }, 
	{ NOTE_GS3, 176 }, 
	{ NOTE_GS3, 176 }, 
	{ NOTE_GS3, 176 }, 
	{ NOTE_GS3, 176 }, 
	{ NOTE_GS3, 176 }, 
	{ NOTE_GS3, 176 }, 
	{ NOTE_AS3, 176 }, 
	{ NOTE_B3, 180 }, 
	{ NOTE_DS3, 176 }, 
	{ NOTE_DS4, 176 }, 
	{ NOTE_DS4, 176 }, 
	{ NOTE_DS4, 176 }, 
	{ NOTE_DS4, 176 }, 
	{ NOTE_DS4, 176 }, 
	{ NOTE_DS4, 176 }, 
	{ NOTE_DS4, 180 }, 
	{ NOTE_GS3, 176 }, 
	{ NOTE_GS3, 176 }, 
	{ NOTE_GS3, 176 }, 
	{ NOTE_GS3, 176 }, 
	{ NOTE_GS3, 176 }, 
	{ NOTE_GS3, 176 }, 
	{ NOTE_AS3, 176 }, 
	{ NOTE_B3, 180 }, 
	{ NOTE_DS3, 176 }, 
	{ NOTE_DS4, 176 }, 
	{ NOTE_DS4, 176 }, 
	{ NOTE_DS4, 176 }, 
	{ NOTE_DS4, 176 }, 
	{ NOTE_DS4, 176 }, 
	{ NOTE_DS4, 176 }, 
	{ NOTE_DS4, 180 }, 
	{ NOTE_GS3, 176 }, 
	{ NOTE_B4, 176 }, 
	{ NOTE_B4, 176 }, 
	{ NOTE_GS4, 176 }, 
	{ NOTE_CS4, 176 }, 
	{ NOTE_CS5, 176 }, 
	{ NOTE_CS5, 176 }, 
	{ NOTE_GS4, 180 }, 
	{ NOTE_DS4, 176 }, 
	{ NOTE_B4, 176 }, 
	{ NOTE_B4, 176 }, 
	{ NOTE_GS4, 176 }, 
	{ NOTE_CS4, 176 }, 
	{ NOTE_AS4, 176 }, 
	{ NOTE_AS4, 176 }, 
	{ NOTE_G4, 180 }, 
	{ NOTE_B3, 176 }, 
	{ NOTE_DS5, 176 }, 
	{ NOTE_DS5, 176 }, 
	{ NOTE_B4, 176 }, 
	{ NOTE_CS4, 176 }, 
	{ NOTE_E5, 176 }, 
	{ NOTE_E5, 176 }, 
	{ NOTE_CS5, 180 }, 
	{ NOTE_DS4, 176 }, 
	{ NOTE_DS5, 176 }, 
	{ NOTE_DS5, 176 }, 
	{ NOTE_B4, 176 }, 
	{ NOTE_DS4, 176 }, 
	{ NOTE_CS5, 176 }, 
	{ NOTE_CS5, 176 }, 
	{ NOTE_AS4, 180 }, 
	{ NOTE_GS3, 88 }, 
	{ NOTE_GS4, 88 }, 
	{ NOTE_DS4, 88 }, 
	{ NOTE_GS4, 88 }, 
	{ NOTE_GS3, 88 }, 
	{ NOTE_GS4, 88 }, 
	{ NOTE_DS4, 88 }, 
	{ NOTE_GS4, 88 }, 
	{ NOTE_GS3, 88 }, 
	{ NOTE_GS4, 88 }, 
	{ NOTE_DS4, 88 }, 
	{ NOTE_GS4, 88 }, 
	{ NOTE_GS3, 88 }, 
	{ NOTE_GS4, 88 }, 
	{ NOTE_DS4, 88 }, 
	{ NOTE_GS4, 92 }, 
	{ NOTE_GS3, 88 }, 
	{ NOTE_AS4, 88 }, 
	{ NOTE_DS4, 88 }, 
	{ NOTE_AS4, 88 }, 
	{ NOTE_GS3, 88 }, 
	{ NOTE_AS4, 88 }, 
	{ NOTE_DS4, 88 }, 
	{ NOTE_AS4, 88 }, 
	{ NOTE_GS3, 88 }, 
	{ NOTE_AS4, 88 }, 
	{ NOTE_DS4, 88 }, 
	{ NOTE_AS4, 88 }, 
	{ NOTE_GS3, 88 }, 
	{ NOTE_AS4, 88 }, 
	{ NOTE_DS4, 88 }, 
	{ NOTE_AS4, 92 }, 
	{ NOTE_GS3, 88 }, 
	{ NOTE_GS4, 88 }, 
	{ NOTE_DS4, 88 }, 
	{ NOTE_GS4, 88 }, 
	{ NOTE_GS3, 88 }, 
	{ NOTE_GS4, 88 }, 
	{ NOTE_DS4, 88 }, 
	{ NOTE_GS4, 88 }, 
	{ NOTE_GS3, 88 }, 
	{ NOTE_GS4, 88 }, 
	{ NOTE_DS4, 88 }, 
	{ NOTE_GS4, 88 }, 
	{ NOTE_GS3, 88 }, 
	{ NOTE_GS4, 88 }, 
	{ NOTE_DS4, 88 }, 
	{ NOTE_GS4, 92 }, 
	{ NOTE_GS3, 88 }, 
	{ NOTE_AS4, 88 }, 
	{ NOTE_DS4, 88 }, 
	{ NOTE_AS4, 88 }, 
	{ NOTE_GS3, 88 }, 
	{ NOTE_AS4, 88 }, 
	{ NOTE_DS4, 88 }, 
	{ NOTE_AS4, 88 }, 
	{ NOTE_GS3, 88 }, 
	{ NOTE_AS4, 88 }, 
	{ NOTE_DS4, 88 }, 
	{ NOTE_AS4, 88 }, 
	{ NOTE_GS3, 88 }, 
	{ NOTE_AS4, 88 }, 
	{ NOTE_DS4, 88 }, 
	{ NOTE_AS4, 92 }, 
	{ NOTE_GS3, 88 }, 
	{ NOTE_GS4, 88 }, 
	{ NOTE_DS4, 88 }, 
	{ NOTE_GS4, 88 }, 
	{ NOTE_GS3, 88 }, 
	{ NOTE_GS4, 88 }, 
	{ NOTE_DS4, 88 }, 
	{ NOTE_GS4, 88 }, 
	{ NOTE_GS3, 88 }, 
	{ NOTE_AS4, 88 }, 
	{ NOTE_DS4, 88 }, 
	{ NOTE_AS4, 88 }, 
	{ NOTE_GS3, 88 }, 
	{ NOTE_AS4, 88 }, 
	{ NOTE_DS4, 88 }, 
	{ NOTE_AS4, 92 }, 
	{ NOTE_GS3, 88 }, 
	{ NOTE_GS4, 88 }, 
	{ NOTE_DS4, 88 }, 
	{ NOTE_GS4, 88 }, 
	{ NOTE_GS3, 88 }, 
	{ NOTE_GS4, 88 }, 
	{ NOTE_DS4, 88 }, 
	{ NOTE_GS4, 88 }, 
	{ NOTE_GS3, 88 }, 
	{ NOTE_AS4, 88 }, 
	{ NOTE_DS4, 88 }, 
	{ NOTE_AS4, 88 }, 
	{ NOTE_GS3, 88 }, 
	{ NOTE_AS4, 88 }, 
	{ NOTE_DS4, 88 }, 
	{ NOTE_AS4, 92 }, 
	{ NOTE_GS3, 88 }, 
	{ NOTE_GS4, 88 }, 
	{ NOTE_DS4, 88 }, 
	{ NOTE_GS4, 88 }, 
	{ NOTE_GS3, 88 }, 
	{ NOTE_GS4, 88 }, 
	{ NOTE_DS4, 88 }, 
	{ NOTE_GS4, 88 }, 
	{ NOTE_GS3, 88 }, 
	{ NOTE_GS4, 88 }, 
	{ NOTE_DS4, 88 }, 
	{ NOTE_GS4, 88 }, 
	{ NOTE_GS3, 88 }, 
	{ NOTE_GS4, 88 }, 
	{ NOTE_DS4, 88 }, 
	{ NOTE_GS4, 92 }, 
	{ NOTE_GS3, 88 }, 
	{ NOTE_FS4, 88 }, 
	{ NOTE_DS4, 88 }, 
	{ NOTE_FS4, 88 }, 
	{ NOTE_GS3, 88 }, 
	{ NOTE_FS4, 88 }, 
	{ NOTE_DS4, 88 }, 
	{ NOTE_FS4, 88 }, 
	{ NOTE_GS3, 88 }, 
	{ NOTE_FS4, 88 }, 
	{ NOTE_DS4, 88 }, 
	{ NOTE_FS4, 88 }, 
	{ NOTE_GS3, 88 }, 
	{ NOTE_FS4, 88 }, 
	{ NOTE_DS4, 88 }, 
	{ NOTE_FS4, 92 }, 
	{ NOTE_CS3, 176 }, 
	{ NOTE_GS3, 176 }, 
	{ NOTE_CS3, 176 }, 
	{ NOTE_GS3, 176 }, 
	{ NOTE_CS3, 176 }, 
	{ NOTE_GS3, 176 }, 
	{ NOTE_CS3, 176 }, 
	{ NOTE_GS3, 180 }, 
	{ NOTE_CS3, 176 }, 
	{ NOTE_GS3, 176 }, 
	{ NOTE_CS3, 176 }, 
	{ NOTE_GS3, 176 }, 
	{ NOTE_CS3, 176 }, 
	{ NOTE_GS3, 176 }, 
	{ NOTE_CS3, 176 }, 
	{ NOTE_GS3, 180 }, 
	{ NOTE_CS3, 176 }, 
	{ NOTE_GS3, 176 }, 
	{ NOTE_CS3, 176 }, 
	{ NOTE_GS3, 176 }, 
	{ NOTE_CS3, 176 }, 
	{ NOTE_GS3, 176 }, 
	{ NOTE_CS3, 176 }, 
	{ NOTE_GS3, 180 }, 
	{ NOTE_B2, 176 }, 
	{ NOTE_GS3, 176 }, 
	{ NOTE_B2, 176 }, 
	{ NOTE_GS3, 176 }, 
	{ NOTE_B2, 176 }, 
	{ NOTE_GS3, 176 }, 
	{ NOTE_B2, 176 }, 
	{ NOTE_GS3, 180 }, 
	{ NOTE_B2, 176 }, 
	{ NOTE_GS3, 176 }, 
	{ NOTE_B2, 176 }, 
	{ NOTE_GS3, 176 }, 
	{ NOTE_B2, 176 }, 
	{ NOTE_GS3, 176 }, 
	{ NOTE_B2, 176 }, 
	{ NOTE_GS3, 180 }, 
	{ NOTE_A3, 176 }, 
	{ NOTE_A4, 176 }, 
	{ NOTE_A3, 176 }, 
	{ NOTE_A4, 176 }, 
	{ NOTE_A3, 176 }, 
	{ NOTE_A4, 176 }, 
	{ NOTE_A3, 176 }, 
	{ NOTE_A4, 180 }, 
	{ NOTE_F3, 176 }, 
	{ NOTE_F4, 176 }, 
	{ NOTE_F3, 176 }, 
	{ NOTE_F4, 176 }, 
	{ NOTE_F3, 176 }, 
	{ NOTE_F4, 176 }, 
	{ NOTE_F3, 176 }, 
	{ NOTE_F4, 180 }, 
	{ NOTE_FS3, 88 }, 
	{ NOTE_CS5, 88 }, 
	{ NOTE_A4, 88 }, 
	{ NOTE_CS5, 88 }, 
	{ NOTE_FS4, 88 }, 
	{ NOTE_CS5, 88 }, 
	{ NOTE_A4, 88 }, 
	{ NOTE_CS5, 88 }, 
	{ NOTE_FS4, 88 }, 
	{ NOTE_CS5, 88 }, 
	{ NOTE_A4, 88 }, 
	{ NOTE_CS5, 88 }, 
	{ NOTE_FS4, 88 }, 
	{ NOTE_CS5, 88 }, 
	{ NOTE_A4, 88 }, 
	{ NOTE_CS5, 92 }, 
	{ NOTE_GS4, 88 }, 
	{ NOTE_CS5, 88 }, 
	{ NOTE_B4, 88 }, 
	{ NOTE_CS5, 88 }, 
	{ NOTE_GS4, 88 }, 
	{ NOTE_CS5, 88 }, 
	{ NOTE_B4, 88 }, 
	{ NOTE_CS5, 88 }, 
	{ NOTE_GS4, 88 }, 
	{ NOTE_CS5, 88 }, 
	{ NOTE_B4, 88 }, 
	{ NOTE_CS5, 88 }, 
	{ NOTE_GS4, 88 }, 
	{ NOTE_CS5, 88 }, 
	{ NOTE_B4, 88 }, 
	{ NOTE_CS5, 92 }, 
	{ NOTE_A4, 88 }, 
	{ NOTE_CS5, 88 }, 
	{ NOTE_A4, 88 }, 
	{ NOTE_CS5, 88 }, 
	{ NOTE_A4, 88 }, 
	{ NOTE_CS5, 88 }, 
	{ NOTE_A4, 88 }, 
	{ NOTE_CS5, 88 }, 
	{ NOTE_A4, 88 }, 
	{ NOTE_CS5, 88 }, 
	{ NOTE_A4, 88 }, 
	{ NOTE_CS5, 88 }, 
	{ NOTE_A4, 88 }, 
	{ NOTE_CS5, 88 }, 
	{ NOTE_A4, 88 }, 
	{ NOTE_CS5, 92 }, 
	{ NOTE_F4, 88 }, 
	{ NOTE_CS5, 88 }, 
	{ NOTE_F4, 88 }, 
	{ NOTE_CS5, 88 }, 
	{ NOTE_F4, 88 }, 
	{ NOTE_CS5, 88 }, 
	{ NOTE_F4, 88 }, 
	{ NOTE_CS5, 88 }, 
	{ NOTE_F4, 88 }, 
	{ NOTE_CS5, 88 }, 
	{ NOTE_F4, 88 }, 
	{ NOTE_CS5, 88 }, 
	{ NOTE_F4, 88 }, 
	{ NOTE_CS5, 88 }, 
	{ NOTE_F4, 88 }, 
	{ NOTE_CS5, 92 }, 
	{ NOTE_FS4, 353 }, 
	{ NOTE_CS5, 706 }, 
	{ NOTE_A4, 265 }, 
	{ NOTE_FS4, 88 }, 
	{ NOTE_FS4, 353 }, 
	{ NOTE_F4, 529 }, 
	{ NOTE_F4, 176 }, 
	{ NOTE_CS5, 265 }, 
	{ NOTE_F4, 89 }, 
	{ NOTE_GS4, 353 }, 
	{ NOTE_FS4, 529 }, 
	{ NOTE_FS4, 176 }, 
	{ NOTE_CS5, 176 }, 
	{ NOTE_FS4, 178 }, 
	{ NOTE_FS4, 176 }, 
	{ NOTE_FS4, 176 }, 
	{ NOTE_D5, 265 }, 
	{ NOTE_FS4, 88 }, 
	{ NOTE_FS4, 176 }, 
	{ NOTE_FS4, 176 }, 
	{ NOTE_D5, 265 }, 
	{ NOTE_FS4, 90 }, 
	{ NOTE_G4, 353 }, 
	{ NOTE_D4, 706 }, 
	{ NOTE_B3, 265 }, 
	{ NOTE_G3, 88 }, 
	{ NOTE_G3, 353 }, 
	{ NOTE_FS3, 529 }, 
	{ NOTE_FS3, 176 }, 
	{ NOTE_D4, 265 }, 
	{ NOTE_FS3, 89 }, 
	{ NOTE_A3, 353 }, 
	{ NOTE_G3, 529 }, 
	{ NOTE_G3, 176 }, 
	{ NOTE_D4, 265 }, 
	{ NOTE_FS3, 89 }, 
	{ NOTE_FS3, 353 }, 
	{ NOTE_F3, 529 }, 
	{ NOTE_F3, 176 }, 
	{ NOTE_CS4, 176 }, 
	{ NOTE_F3, 178 }, 
	{ NOTE_FS3, 176 }, 
	{ NOTE_FS3, 176 }, 
	{ NOTE_A3, 176 }, 
	{ NOTE_FS3, 176 }, 
	{ NOTE_D3, 176 }, 
	{ NOTE_D3, 176 }, 
	{ NOTE_FS3, 176 }, 
	{ NOTE_D3, 180 }, 
	{ NOTE_C3, 706 }, 
	{ NOTE_C3, 176 }, 
	{ NOTE_C3, 176 }, 
	{ NOTE_DS3, 176 }, 
	{ NOTE_C3, 178 }, 
	{ NOTE_CS4, 176 }, 
	{ NOTE_CS4, 176 }, 
	{ NOTE_E4, 176 }, 
	{ NOTE_CS4, 176 }, 
	{ NOTE_A3, 176 }, 
	{ NOTE_A3, 176 }, 
	{ NOTE_CS4, 176 }, 
	{ NOTE_A3, 180 }, 
	{ NOTE_FS3, 176 }, 
	{ NOTE_FS3, 176 }, 
	{ NOTE_A3, 176 }, 
	{ NOTE_FS3, 176 }, 
	{ NOTE_G3, 176 }, 
	{ NOTE_G3, 176 }, 
	{ NOTE_AS3, 176 }, 
	{ NOTE_G3, 180 }, 
	{ NOTE_GS3, 88 }, 
	{ NOTE_GS4, 88 }, 
	{ NOTE_GS3, 88 }, 
	{ NOTE_GS4, 88 }, 
	{ NOTE_GS3, 88 }, 
	{ NOTE_GS4, 88 }, 
	{ NOTE_GS3, 88 }, 
	{ NOTE_GS4, 88 }, 
	{ NOTE_GS3, 88 }, 
	{ NOTE_GS4, 88 }, 
	{ NOTE_GS3, 88 }, 
	{ NOTE_GS4, 88 }, 
	{ NOTE_GS3, 88 }, 
	{ NOTE_GS4, 88 }, 
	{ NOTE_GS3, 88 }, 
	{ NOTE_GS4, 92 }, 
	{ NOTE_GS3, 88 }, 
	{ NOTE_GS4, 88 }, 
	{ NOTE_GS3, 88 }, 
	{ NOTE_GS4, 88 }, 
	{ NOTE_GS3, 88 }, 
	{ NOTE_GS4, 88 }, 
	{ NOTE_GS3, 88 }, 
	{ NOTE_GS4, 88 }, 
	{ NOTE_GS3, 88 }, 
	{ NOTE_GS4, 88 }, 
	{ NOTE_GS3, 88 }, 
	{ NOTE_GS4, 88 }, 
	{ NOTE_GS3, 88 }, 
	{ NOTE_GS4, 88 }, 
	{ NOTE_GS3, 88 }, 
	{ NOTE_GS4, 92 }, 
	{ NOTE_GS3, 88 }, 
	{ NOTE_GS4, 88 }, 
	{ NOTE_GS3, 88 }, 
	{ NOTE_GS4, 88 }, 
	{ NOTE_GS3, 88 }, 
	{ NOTE_GS4, 88 }, 
	{ NOTE_GS3, 88 }, 
	{ NOTE_GS4, 88 }, 
	{ NOTE_GS3, 88 }, 
	{ NOTE_GS4, 88 }, 
	{ NOTE_GS3, 88 }, 
	{ NOTE_GS4, 88 }, 
	{ NOTE_GS3, 88 }, 
	{ NOTE_GS4, 88 }, 
	{ NOTE_GS3, 88 }, 
	{ NOTE_GS4, 92 }, 
	{ NOTE_GS3, 88 }, 
	{ NOTE_GS4, 88 }, 
	{ NOTE_GS3, 88 }, 
	{ NOTE_GS4, 88 }, 
	{ NOTE_GS3, 88 }, 
	{ NOTE_GS4, 88 }, 
	{ NOTE_GS3, 88 }, 
	{ NOTE_GS4, 88 }, 
	{ NOTE_GS3, 88 }, 
	{ NOTE_GS4, 88 }, 
	{ NOTE_GS3, 88 }, 
	{ NOTE_GS4, 88 }, 
	{ NOTE_GS3, 88 }, 
	{ NOTE_GS4, 88 }, 
	{ NOTE_GS3, 88 }, 
	{ NOTE_GS4, 92 }, 
	{ NOTE_GS3, 88 }, 
	{ NOTE_GS4, 88 }, 
	{ NOTE_GS3, 88 }, 
	{ NOTE_GS4, 88 }, 
	{ NOTE_GS3, 88 }, 
	{ NOTE_GS4, 88 }, 
	{ NOTE_GS3, 88 }, 
	{ NOTE_GS4, 88 }, 
	{ NOTE_GS3, 88 }, 
	{ NOTE_GS4, 88 }, 
	{ NOTE_GS3, 88 }, 
	{ NOTE_GS4, 88 }, 
	{ NOTE_GS3, 88 }, 
	{ NOTE_GS4, 88 }, 
	{ NOTE_GS3, 88 }, 
	{ NOTE_GS4, 92 }, 
	{ NOTE_GS3, 88 }, 
	{ NOTE_GS4, 88 }, 
	{ NOTE_GS3, 88 }, 
	{ NOTE_GS4, 88 }, 
	{ NOTE_GS3, 88 }, 
	{ NOTE_GS4, 88 }, 
	{ NOTE_GS3, 88 }, 
	{ NOTE_GS4, 88 }, 
	{ NOTE_GS3, 88 }, 
	{ NOTE_GS4, 88 }, 
	{ NOTE_GS3, 88 }, 
	{ NOTE_GS4, 88 }, 
	{ NOTE_GS3, 88 }, 
	{ NOTE_GS4, 88 }, 
	{ NOTE_GS3, 88 }, 
	{ NOTE_GS4, 92 }, 
	{ NOTE_GS3, 88 }, 
	{ NOTE_GS4, 88 }, 
	{ NOTE_GS3, 88 }, 
	{ NOTE_GS4, 88 }, 
	{ NOTE_GS3, 88 }, 
	{ NOTE_GS4, 88 }, 
	{ NOTE_GS3, 88 }, 
	{ NOTE_GS4, 88 }, 
	{ NOTE_GS3, 88 }, 
	{ NOTE_GS4, 88 }, 
	{ NOTE_GS3, 88 }, 
	{ NOTE_GS4, 88 }, 
	{ NOTE_GS3, 88 }, 
	{ NOTE_GS4, 88 }, 
	{ NOTE_GS3, 88 }, 
	{ NOTE_GS4, 92 }, 
	{ NOTE_GS3, 88 }, 
	{ NOTE_GS4, 88 }, 
	{ NOTE_GS3, 88 }, 
	{ NOTE_GS4, 88 }, 
	{ NOTE_GS3, 88 }, 
	{ NOTE_GS4, 88 }, 
	{ NOTE_GS3, 88 }, 
	{ NOTE_GS4, 88 }, 
	{ NOTE_GS3, 88 }, 
	{ NOTE_GS4, 88 }, 
	{ NOTE_GS3, 88 }, 
	{ NOTE_GS4, 88 }, 
	{ NOTE_GS3, 88 }, 
	{ NOTE_GS4, 88 }, 
	{ NOTE_GS3, 88 }, 
	{ NOTE_GS4, 92 }, 
	{ NOTE_GS3, 88 }, 
	{ NOTE_GS4, 88 }, 
	{ NOTE_GS3, 88 }, 
	{ NOTE_GS4, 88 }, 
	{ NOTE_GS3, 88 }, 
	{ NOTE_GS4, 88 }, 
	{ NOTE_GS3, 88 }, 
	{ NOTE_GS4, 88 }, 
	{ NOTE_GS3, 88 }, 
	{ NOTE_GS4, 88 }, 
	{ NOTE_GS3, 88 }, 
	{ NOTE_GS4, 88 }, 
	{ NOTE_GS3, 88 }, 
	{ NOTE_GS4, 88 }, 
	{ NOTE_GS3, 88 }, 
	{ NOTE_GS4, 92 }, 
	{ NOTE_GS3, 88 }, 
	{ NOTE_GS4, 88 }, 
	{ NOTE_GS3, 88 }, 
	{ NOTE_GS4, 88 }, 
	{ NOTE_GS3, 88 }, 
	{ NOTE_GS4, 88 }, 
	{ NOTE_GS3, 88 }, 
	{ NOTE_GS4, 88 }, 
	{ NOTE_GS3, 88 }, 
	{ NOTE_GS4, 88 }, 
	{ NOTE_GS3, 88 }, 
	{ NOTE_GS4, 88 }, 
	{ NOTE_GS3, 88 }, 
	{ NOTE_GS4, 88 }, 
	{ NOTE_GS3, 88 }, 
	{ NOTE_GS4, 92 }, 
	{ NOTE_GS3, 88 }, 
	{ NOTE_GS4, 88 }, 
	{ NOTE_GS3, 88 }, 
	{ NOTE_GS4, 88 }, 
	{ NOTE_GS3, 88 }, 
	{ NOTE_GS4, 88 }, 
	{ NOTE_GS3, 88 }, 
	{ NOTE_GS4, 88 }, 
	{ NOTE_GS3, 88 }, 
	{ NOTE_GS4, 88 }, 
	{ NOTE_GS3, 88 }, 
	{ NOTE_GS4, 88 }, 
	{ NOTE_GS3, 88 }, 
	{ NOTE_GS4, 88 }, 
	{ NOTE_GS3, 88 }, 
	{ NOTE_GS4, 92 }, 
	{ NOTE_GS3, 88 }, 
	{ NOTE_GS4, 88 }, 
	{ NOTE_GS3, 88 }, 
	{ NOTE_GS4, 88 }, 
	{ NOTE_GS3, 88 }, 
	{ NOTE_GS4, 88 }, 
	{ NOTE_GS3, 88 }, 
	{ NOTE_GS4, 88 }, 
	{ NOTE_GS3, 88 }, 
	{ NOTE_GS4, 88 }, 
	{ NOTE_GS3, 88 }, 
	{ NOTE_GS4, 88 }, 
	{ NOTE_GS3, 88 }, 
	{ NOTE_GS4, 88 }, 
	{ NOTE_GS3, 88 }, 
	{ NOTE_GS4, 92 }, 
	{ NOTE_GS3, 88 }, 
	{ NOTE_GS4, 88 }, 
	{ NOTE_GS3, 88 }, 
	{ NOTE_GS4, 88 }, 
	{ NOTE_GS3, 88 }, 
	{ NOTE_GS4, 88 }, 
	{ NOTE_GS3, 88 }, 
	{ NOTE_GS4, 88 }, 
	{ NOTE_GS3, 88 }, 
	{ NOTE_GS4, 88 }, 
	{ NOTE_GS3, 88 }, 
	{ NOTE_GS4, 88 }, 
	{ NOTE_GS3, 88 }, 
	{ NOTE_GS4, 88 }, 
	{ NOTE_GS3, 88 }, 
	{ NOTE_GS4, 92 }, 
	{ NOTE_FS3, 1412 }, 
	{ NOTE_GS3, 1412 }, 
	{ NOTE_CS3, 176 }, 
	{ NOTE_GS3, 176 }, 
	{ NOTE_CS3, 176 }, 
	{ NOTE_GS3, 176 }, 
	{ NOTE_CS3, 176 }, 
	{ NOTE_GS3, 176 }, 
	{ NOTE_CS3, 176 }, 
	{ NOTE_GS3, 180 }, 
	{ NOTE_CS3, 176 }, 
	{ NOTE_GS3, 176 }, 
	{ NOTE_CS3, 176 }, 
	{ NOTE_GS3, 176 }, 
	{ NOTE_CS3, 176 }, 
	{ NOTE_GS3, 176 }, 
	{ NOTE_CS3, 176 }, 
	{ NOTE_GS3, 180 }, 
	{ NOTE_C3, 176 }, 
	{ NOTE_GS3, 176 }, 
	{ NOTE_C3, 176 }, 
	{ NOTE_GS3, 176 }, 
	{ NOTE_C3, 176 }, 
	{ NOTE_GS3, 176 }, 
	{ NOTE_C3, 176 }, 
	{ NOTE_GS3, 180 }, 
	{ NOTE_C3, 176 }, 
	{ NOTE_GS3, 176 }, 
	{ NOTE_C3, 176 }, 
	{ NOTE_GS3, 176 }, 
	{ NOTE_C3, 176 }, 
	{ NOTE_GS3, 176 }, 
	{ NOTE_C3, 176 }, 
	{ NOTE_GS3, 180 }, 
	{ NOTE_B2, 176 }, 
	{ NOTE_GS3, 176 }, 
	{ NOTE_B2, 176 }, 
	{ NOTE_GS3, 176 }, 
	{ NOTE_B2, 176 }, 
	{ NOTE_GS3, 176 }, 
	{ NOTE_B2, 176 }, 
	{ NOTE_GS3, 180 }, 
	{ NOTE_B2, 176 }, 
	{ NOTE_GS3, 176 }, 
	{ NOTE_B2, 176 }, 
	{ NOTE_GS3, 176 }, 
	{ NOTE_B2, 176 }, 
	{ NOTE_GS3, 176 }, 
	{ NOTE_B2, 176 }, 
	{ NOTE_GS3, 180 }, 
	{ NOTE_A3, 176 }, 
	{ NOTE_A4, 176 }, 
	{ NOTE_A3, 176 }, 
	{ NOTE_A4, 176 }, 
	{ NOTE_A3, 176 }, 
	{ NOTE_A4, 176 }, 
	{ NOTE_A3, 176 }, 
	{ NOTE_A4, 180 }, 
	{ NOTE_A3, 176 }, 
	{ NOTE_A4, 176 }, 
	{ NOTE_A3, 176 }, 
	{ NOTE_A4, 176 }, 
	{ NOTE_A3, 176 }, 
	{ NOTE_A4, 176 }, 
	{ NOTE_A3, 176 }, 
	{ NOTE_A4, 180 }, 
	{ NOTE_GS3, 176 }, 
	{ NOTE_GS4, 2648 }, 
	{ NOTE_GS4, 2824 }, 
	{ NOTE_GS4, 176 }, 
	{ NOTE_GS4, 176 }, 
	{ NOTE_GS4, 176 }, 
	{ NOTE_GS4, 176 }, 
	{ NOTE_GS4, 176 }, 
	{ NOTE_GS4, 176 }, 
	{ NOTE_GS4, 176 }, 
	{ NOTE_GS4, 180 }, 
	{ NOTE_GS4, 353 }, 
	{ NOTE_GS3, 1059 }, 
	{ NOTE_CS4, 88 }, 
	{ NOTE_GS4, 88 }, 
	{ NOTE_E4, 88 }, 
	{ NOTE_GS4, 88 }, 
	{ NOTE_CS4, 88 }, 
	{ NOTE_GS4, 88 }, 
	{ NOTE_E4, 88 }, 
	{ NOTE_GS4, 88 }, 
	{ NOTE_CS4, 88 }, 
	{ NOTE_GS4, 88 }, 
	{ NOTE_E4, 88 }, 
	{ NOTE_GS4, 88 }, 
	{ NOTE_CS4, 88 }, 
	{ NOTE_GS4, 88 }, 
	{ NOTE_E4, 88 }, 
	{ NOTE_GS4, 92 }, 
	{ NOTE_DS4, 88 }, 
	{ NOTE_GS4, 88 }, 
	{ NOTE_FS4, 88 }, 
	{ NOTE_GS4, 88 }, 
	{ NOTE_DS4, 88 }, 
	{ NOTE_GS4, 88 }, 
	{ NOTE_FS4, 88 }, 
	{ NOTE_GS4, 88 }, 
	{ NOTE_DS4, 88 }, 
	{ NOTE_GS4, 88 }, 
	{ NOTE_FS4, 88 }, 
	{ NOTE_GS4, 88 }, 
	{ NOTE_DS4, 88 }, 
	{ NOTE_GS4, 88 }, 
	{ NOTE_FS4, 88 }, 
	{ NOTE_GS4, 92 }, 
	{ NOTE_E4, 88 }, 
	{ NOTE_GS4, 88 }, 
	{ NOTE_E4, 88 }, 
	{ NOTE_GS4, 88 }, 
	{ NOTE_E4, 88 }, 
	{ NOTE_GS4, 88 }, 
	{ NOTE_E4, 88 }, 
	{ NOTE_GS4, 88 }, 
	{ NOTE_E4, 88 }, 
	{ NOTE_GS4, 88 }, 
	{ NOTE_E4, 88 }, 
	{ NOTE_GS4, 88 }, 
	{ NOTE_E4, 88 }, 
	{ NOTE_GS4, 88 }, 
	{ NOTE_E4, 88 }, 
	{ NOTE_GS4, 92 }, 
	{ NOTE_C4, 88 }, 
	{ NOTE_GS4, 88 }, 
	{ NOTE_C4, 88 }, 
	{ NOTE_GS4, 88 }, 
	{ NOTE_C4, 88 }, 
	{ NOTE_GS4, 88 }, 
	{ NOTE_C4, 88 }, 
	{ NOTE_GS4, 88 }, 
	{ NOTE_C4, 88 }, 
	{ NOTE_GS4, 88 }, 
	{ NOTE_C4, 88 }, 
	{ NOTE_GS4, 88 }, 
	{ NOTE_C4, 88 }, 
	{ NOTE_GS4, 88 }, 
	{ NOTE_C4, 88 }, 
	{ NOTE_GS4, 92 }, 
	{ NOTE_CS4, 88 }, 
	{ NOTE_GS4, 88 }, 
	{ NOTE_E4, 88 }, 
	{ NOTE_GS4, 88 }, 
	{ NOTE_CS4, 88 }, 
	{ NOTE_GS4, 88 }, 
	{ NOTE_E4, 88 }, 
	{ NOTE_GS4, 88 }, 
	{ NOTE_CS4, 88 }, 
	{ NOTE_GS4, 88 }, 
	{ NOTE_E4, 88 }, 
	{ NOTE_GS4, 88 }, 
	{ NOTE_CS4, 88 }, 
	{ NOTE_GS4, 88 }, 
	{ NOTE_E4, 88 }, 
	{ NOTE_GS4, 92 }, 
	{ NOTE_DS4, 88 }, 
	{ NOTE_GS4, 88 }, 
	{ NOTE_FS4, 88 }, 
	{ NOTE_GS4, 88 }, 
	{ NOTE_DS4, 88 }, 
	{ NOTE_GS4, 88 }, 
	{ NOTE_FS4, 88 }, 
	{ NOTE_GS4, 88 }, 
	{ NOTE_DS4, 88 }, 
	{ NOTE_GS4, 88 }, 
	{ NOTE_FS4, 88 }, 
	{ NOTE_GS4, 88 }, 
	{ NOTE_DS4, 88 }, 
	{ NOTE_GS4, 88 }, 
	{ NOTE_FS4, 88 }, 
	{ NOTE_GS4, 92 }, 
	{ NOTE_E4, 88 }, 
	{ NOTE_GS4, 88 }, 
	{ NOTE_E4, 88 }, 
	{ NOTE_GS4, 88 }, 
	{ NOTE_E4, 88 }, 
	{ NOTE_GS4, 88 }, 
	{ NOTE_E4, 88 }, 
	{ NOTE_GS4, 88 }, 
	{ NOTE_E4, 88 }, 
	{ NOTE_GS4, 88 }, 
	{ NOTE_E4, 88 }, 
	{ NOTE_GS4, 88 }, 
	{ NOTE_E4, 88 }, 
	{ NOTE_GS4, 88 }, 
	{ NOTE_E4, 88 }, 
	{ NOTE_GS4, 92 }, 
	{ NOTE_C4, 88 }, 
	{ NOTE_GS4, 88 }, 
	{ NOTE_C4, 88 }, 
	{ NOTE_GS4, 88 }, 
	{ NOTE_C4, 88 }, 
	{ NOTE_GS4, 88 }, 
	{ NOTE_C4, 88 }, 
	{ NOTE_GS4, 88 }, 
	{ NOTE_C4, 88 }, 
	{ NOTE_GS4, 88 }, 
	{ NOTE_C4, 88 }, 
	{ NOTE_GS4, 88 }, 
	{ NOTE_C4, 88 }, 
	{ NOTE_GS4, 88 }, 
	{ NOTE_C4, 88 }, 
	{ NOTE_GS4, 92 }, 
	{ NOTE_B3, 88 }, 
	{ NOTE_GS4, 88 }, 
	{ NOTE_CS4, 88 }, 
	{ NOTE_GS4, 88 }, 
	{ NOTE_B3, 88 }, 
	{ NOTE_GS4, 88 }, 
	{ NOTE_CS4, 88 }, 
	{ NOTE_GS4, 88 }, 
	{ NOTE_A3, 88 }, 
	{ NOTE_FS4, 88 }, 
	{ NOTE_CS4, 88 }, 
	{ NOTE_FS4, 88 }, 
	{ NOTE_A3, 88 }, 
	{ NOTE_FS4, 88 }, 
	{ NOTE_CS4, 88 }, 
	{ NOTE_FS4, 92 }, 
	{ NOTE_A3, 88 }, 
	{ NOTE_FS4, 88 }, 
	{ NOTE_B3, 88 }, 
	{ NOTE_FS4, 88 }, 
	{ NOTE_GS3, 88 }, 
	{ NOTE_FS4, 88 }, 
	{ NOTE_B3, 88 }, 
	{ NOTE_FS4, 88 }, 
	{ NOTE_GS3, 88 }, 
	{ NOTE_FS4, 88 }, 
	{ NOTE_B3, 88 }, 
	{ NOTE_FS4, 88 }, 
	{ NOTE_GS3, 88 }, 
	{ NOTE_FS4, 88 }, 
	{ NOTE_B3, 88 }, 
	{ NOTE_FS4, 92 }, 
	{ NOTE_G3, 88 }, 
	{ NOTE_E4, 88 }, 
	{ NOTE_A3, 88 }, 
	{ NOTE_E4, 88 }, 
	{ NOTE_G3, 88 }, 
	{ NOTE_E4, 88 }, 
	{ NOTE_A3, 88 }, 
	{ NOTE_E4, 88 }, 
	{ NOTE_FS3, 88 }, 
	{ NOTE_D4, 88 }, 
	{ NOTE_A3, 88 }, 
	{ NOTE_D4, 88 }, 
	{ NOTE_FS3, 88 }, 
	{ NOTE_D4, 88 }, 
	{ NOTE_A3, 88 }, 
	{ NOTE_D4, 92 }, 
	{ NOTE_FS3, 88 }, 
	{ NOTE_DS4, 88 }, 
	{ NOTE_GS3, 88 }, 
	{ NOTE_DS4, 88 }, 
	{ NOTE_E3, 88 }, 
	{ NOTE_CS4, 88 }, 
	{ NOTE_GS3, 88 }, 
	{ NOTE_CS4, 88 }, 
	{ NOTE_E3, 88 }, 
	{ NOTE_CS4, 88 }, 
	{ NOTE_GS3, 88 }, 
	{ NOTE_CS4, 88 }, 
	{ NOTE_E3, 88 }, 
	{ NOTE_CS4, 88 }, 
	{ NOTE_GS3, 88 }, 
	{ NOTE_CS4, 92 }, 
	{ NOTE_FS3, 1059 }, 
	{ NOTE_REST, 353 }, 
	{ NOTE_FS4, 353 }, 
	{ NOTE_REST, 353 }, 
	{ NOTE_FS4, 353 }, 
	{ NOTE_REST, 353 }, 
	{ NOTE_FS4, 353 }, 
	{ NOTE_FS4, 353 }, 
	{ NOTE_FS4, 353 }, 
	{ NOTE_FS4, 353 }, 
	{ NOTE_GS4, 88 }, 
	{ NOTE_E5, 88 }, 
	{ NOTE_CS5, 88 }, 
	{ NOTE_E5, 88 }, 
	{ NOTE_GS4, 88 }, 
	{ NOTE_E5, 88 }, 
	{ NOTE_CS5, 88 }, 
	{ NOTE_E5, 88 }, 
	{ NOTE_GS4, 88 }, 
	{ NOTE_E5, 88 }, 
	{ NOTE_CS5, 88 }, 
	{ NOTE_E5, 88 }, 
	{ NOTE_GS4, 88 }, 
	{ NOTE_E5, 88 }, 
	{ NOTE_CS5, 88 }, 
	{ NOTE_E5, 92 }, 
	{ NOTE_A4, 353 }, 
	{ NOTE_D3, 706 }, 
	{ NOTE_REST, 353 }, 
	{ NOTE_REST, 353 }, 
	{ NOTE_FS3, 353 }, 
	{ NOTE_REST, 353 }, 
	{ NOTE_FS3, 353 }, 
	{ NOTE_REST, 176 }, 
	{ NOTE_FS3, 176 }, 
	{ NOTE_REST, 176 }, 
	{ NOTE_FS3, 176 }, 
	{ NOTE_REST, 176 }, 
	{ NOTE_FS3, 176 }, 
	{ NOTE_REST, 176 }, 
	{ NOTE_FS3, 180 }, 
	{ NOTE_FS3, 88 }, 
	{ NOTE_D4, 88 }, 
	{ NOTE_A3, 88 }, 
	{ NOTE_D4, 88 }, 
	{ NOTE_FS3, 88 }, 
	{ NOTE_D4, 88 }, 
	{ NOTE_A3, 88 }, 
	{ NOTE_D4, 88 }, 
	{ NOTE_G3, 88 }, 
	{ NOTE_E4, 88 }, 
	{ NOTE_AS3, 88 }, 
	{ NOTE_E4, 88 }, 
	{ NOTE_G3, 88 }, 
	{ NOTE_E4, 88 }, 
	{ NOTE_AS3, 88 }, 
	{ NOTE_E4, 92 }, 
	{ NOTE_GS3, 88 }, 
	{ NOTE_E4, 88 }, 
	{ NOTE_CS4, 88 }, 
	{ NOTE_E4, 88 }, 
	{ NOTE_GS3, 88 }, 
	{ NOTE_E4, 88 }, 
	{ NOTE_CS4, 88 }, 
	{ NOTE_E4, 88 }, 
	{ NOTE_GS3, 88 }, 
	{ NOTE_GS3, 88 }, 
	{ NOTE_G3, 88 }, 
	{ NOTE_GS3, 88 }, 
	{ NOTE_G3, 88 }, 
	{ NOTE_GS3, 88 }, 
	{ NOTE_G3, 88 }, 
	{ NOTE_GS3, 92 }, 
	{ NOTE_CS3, 176 }, 
	{ NOTE_CS4, 176 }, 
	{ NOTE_CS4, 176 }, 
	{ NOTE_CS4, 176 }, 
	{ NOTE_CS4, 176 }, 
	{ NOTE_CS4, 176 }, 
	{ NOTE_DS4, 176 }, 
	{ NOTE_E4, 180 }, 
	{ NOTE_GS3, 176 }, 
	{ NOTE_FS4, 176 }, 
	{ NOTE_FS4, 176 }, 
	{ NOTE_FS4, 176 }, 
	{ NOTE_FS4, 176 }, 
	{ NOTE_FS4, 176 }, 
	{ NOTE_E4, 176 }, 
	{ NOTE_DS4, 180 }, 
	{ NOTE_CS3, 176 }, 
	{ NOTE_CS4, 176 }, 
	{ NOTE_CS4, 176 }, 
	{ NOTE_CS4, 176 }, 
	{ NOTE_CS4, 176 }, 
	{ NOTE_CS4, 176 }, 
	{ NOTE_DS4, 176 }, 
	{ NOTE_E4, 180 }, 
	{ NOTE_GS3, 176 }, 
	{ NOTE_FS4, 176 }, 
	{ NOTE_FS4, 176 }, 
	{ NOTE_FS4, 176 }, 
	{ NOTE_FS4, 176 }, 
	{ NOTE_FS4, 176 }, 
	{ NOTE_E4, 176 }, 
	{ NOTE_DS4, 180 }, 
	{ NOTE_CS3, 176 }, 
	{ NOTE_CS4, 176 }, 
	{ NOTE_CS4, 176 }, 
	{ NOTE_E4, 176 }, 
	{ NOTE_FS3, 176 }, 
	{ NOTE_CS4, 176 }, 
	{ NOTE_CS4, 176 }, 
	{ NOTE_FS4, 180 }, 
	{ NOTE_GS3, 176 }, 
	{ NOTE_CS4, 176 }, 
	{ NOTE_CS4, 176 }, 
	{ NOTE_E4, 176 }, 
	{ NOTE_GS3, 176 }, 
	{ NOTE_C4, 176 }, 
	{ NOTE_C4, 176 }, 
	{ NOTE_DS4, 180 }, 
	{ NOTE_CS3, 176 }, 
	{ NOTE_CS4, 176 }, 
	{ NOTE_CS4, 176 }, 
	{ NOTE_CS4, 176 }, 
	{ NOTE_CS4, 176 }, 
	{ NOTE_CS4, 176 }, 
	{ NOTE_DS4, 176 }, 
	{ NOTE_E4, 180 }, 
	{ NOTE_GS3, 176 }, 
	{ NOTE_GS4, 176 }, 
	{ NOTE_GS4, 176 }, 
	{ NOTE_GS4, 176 }, 
	{ NOTE_GS4, 176 }, 
	{ NOTE_GS4, 176 }, 
	{ NOTE_GS4, 176 }, 
	{ NOTE_GS4, 180 }, 
	{ NOTE_CS3, 176 }, 
	{ NOTE_CS4, 176 }, 
	{ NOTE_CS4, 176 }, 
	{ NOTE_CS4, 176 }, 
	{ NOTE_CS4, 176 }, 
	{ NOTE_CS4, 176 }, 
	{ NOTE_DS4, 176 }, 
	{ NOTE_E4, 180 }, 
	{ NOTE_GS3, 176 }, 
	{ NOTE_GS4, 176 }, 
	{ NOTE_GS4, 176 }, 
	{ NOTE_GS4, 176 }, 
	{ NOTE_GS4, 176 }, 
	{ NOTE_GS4, 176 }, 
	{ NOTE_GS4, 176 }, 
	{ NOTE_GS4, 180 }, 
	{ NOTE_CS4, 176 }, 
	{ NOTE_CS5, 176 }, 
	{ NOTE_CS5, 176 }, 
	{ NOTE_E5, 176 }, 
	{ NOTE_FS4, 176 }, 
	{ NOTE_CS5, 176 }, 
	{ NOTE_CS5, 176 }, 
	{ NOTE_FS5, 180 }, 
	{ NOTE_GS4, 176 }, 
	{ NOTE_CS5, 176 }, 
	{ NOTE_CS5, 176 }, 
	{ NOTE_E5, 176 }, 
	{ NOTE_FS4, 176 }, 
	{ NOTE_C5, 176 }, 
	{ NOTE_C5, 176 }, 
	{ NOTE_DS5, 180 }, 
	{ NOTE_E4, 176 }, 
	{ NOTE_GS4, 176 }, 
	{ NOTE_GS4, 176 }, 
	{ NOTE_CS5, 176 }, 
	{ NOTE_FS3, 176 }, 
	{ NOTE_FS4, 176 }, 
	{ NOTE_FS4, 176 }, 
	{ NOTE_A4, 180 }, 
	{ NOTE_GS3, 176 }, 
	{ NOTE_E4, 176 }, 
	{ NOTE_E4, 176 }, 
	{ NOTE_GS4, 176 }, 
	{ NOTE_GS3, 176 }, 
	{ NOTE_DS4, 176 }, 
	{ NOTE_DS4, 176 }, 
	{ NOTE_FS4, 180 }, 
	{ NOTE_CS3, 88 }, 
	{ NOTE_CS4, 88 }, 
	{ NOTE_GS3, 88 }, 
	{ NOTE_CS4, 88 }, 
	{ NOTE_CS3, 88 }, 
	{ NOTE_CS4, 88 }, 
	{ NOTE_GS3, 88 }, 
	{ NOTE_CS4, 88 }, 
	{ NOTE_CS3, 88 }, 
	{ NOTE_CS4, 88 }, 
	{ NOTE_GS3, 88 }, 
	{ NOTE_CS4, 88 }, 
	{ NOTE_CS3, 88 }, 
	{ NOTE_CS4, 88 }, 
	{ NOTE_GS3, 88 }, 
	{ NOTE_CS4, 92 }, 
	{ NOTE_CS3, 88 }, 
	{ NOTE_DS4, 88 }, 
	{ NOTE_GS3, 88 }, 
	{ NOTE_DS4, 88 }, 
	{ NOTE_CS3, 88 }, 
	{ NOTE_DS4, 88 }, 
	{ NOTE_GS3, 88 }, 
	{ NOTE_DS4, 88 }, 
	{ NOTE_CS3, 88 }, 
	{ NOTE_DS4, 88 }, 
	{ NOTE_GS3, 88 }, 
	{ NOTE_DS4, 88 }, 
	{ NOTE_CS3, 88 }, 
	{ NOTE_DS4, 88 }, 
	{ NOTE_GS3, 88 }, 
	{ NOTE_DS4, 92 }, 
	{ NOTE_CS3, 88 }, 
	{ NOTE_CS4, 88 }, 
	{ NOTE_GS3, 88 }, 
	{ NOTE_CS4, 88 }, 
	{ NOTE_CS3, 88 }, 
	{ NOTE_CS4, 88 }, 
	{ NOTE_GS3, 88 }, 
	{ NOTE_CS4, 88 }, 
	{ NOTE_CS3, 88 }, 
	{ NOTE_CS4, 88 }, 
	{ NOTE_GS3, 88 }, 
	{ NOTE_CS4, 88 }, 
	{ NOTE_CS3, 88 }, 
	{ NOTE_CS4, 88 }, 
	{ NOTE_GS3, 88 }, 
	{ NOTE_CS4, 92 }, 
	{ NOTE_CS3, 88 }, 
	{ NOTE_DS4, 88 }, 
	{ NOTE_GS3, 88 }, 
	{ NOTE_DS4, 88 }, 
	{ NOTE_CS3, 88 }, 
	{ NOTE_DS4, 88 }, 
	{ NOTE_GS3, 88 }, 
	{ NOTE_DS4, 88 }, 
	{ NOTE_CS3, 88 }, 
	{ NOTE_DS4, 88 }, 
	{ NOTE_GS3, 88 }, 
	{ NOTE_DS4, 88 }, 
	{ NOTE_CS3, 88 }, 
	{ NOTE_DS4, 88 }, 
	{ NOTE_GS3, 88 }, 
	{ NOTE_DS4, 92 }, 
	{ NOTE_CS3, 88 }, 
	{ NOTE_CS4, 88 }, 
	{ NOTE_GS3, 88 }, 
	{ NOTE_CS4, 88 }, 
	{ NOTE_CS3, 88 }, 
	{ NOTE_CS4, 88 }, 
	{ NOTE_GS3, 88 }, 
	{ NOTE_CS4, 88 }, 
	{ NOTE_CS3, 88 }, 
	{ NOTE_DS4, 88 }, 
	{ NOTE_GS3, 88 }, 
	{ NOTE_DS4, 88 }, 
	{ NOTE_CS3, 88 }, 
	{ NOTE_DS4, 88 }, 
	{ NOTE_GS3, 88 }, 
	{ NOTE_DS4, 92 }, 
	{ NOTE_CS3, 88 }, 
	{ NOTE_CS4, 88 }, 
	{ NOTE_GS3, 88 }, 
	{ NOTE_CS4, 88 }, 
	{ NOTE_CS3, 88 }, 
	{ NOTE_CS4, 88 }, 
	{ NOTE_GS3, 88 }, 
	{ NOTE_CS4, 88 }, 
	{ NOTE_CS3, 88 }, 
	{ NOTE_DS4, 88 }, 
	{ NOTE_GS3, 88 }, 
	{ NOTE_DS4, 88 }, 
	{ NOTE_CS3, 88 }, 
	{ NOTE_DS4, 88 }, 
	{ NOTE_GS3, 88 }, 
	{ NOTE_DS4, 92 }, 
	{ NOTE_CS3, 88 }, 
	{ NOTE_CS4, 88 }, 
	{ NOTE_GS3, 88 }, 
	{ NOTE_CS4, 88 }, 
	{ NOTE_CS3, 88 }, 
	{ NOTE_CS4, 88 }, 
	{ NOTE_GS3, 88 }, 
	{ NOTE_CS4, 88 }, 
	{ NOTE_CS3, 88 }, 
	{ NOTE_CS4, 88 }, 
	{ NOTE_GS3, 88 }, 
	{ NOTE_CS4, 88 }, 
	{ NOTE_CS3, 88 }, 
	{ NOTE_CS4, 88 }, 
	{ NOTE_GS3, 88 }, 
	{ NOTE_CS4, 92 }, 
	{ NOTE_B2, 88 }, 
	{ NOTE_B3, 88 }, 
	{ NOTE_CS3, 88 }, 
	{ NOTE_B3, 88 }, 
	{ NOTE_B2, 88 }, 
	{ NOTE_B3, 88 }, 
	{ NOTE_CS3, 88 }, 
	{ NOTE_B3, 88 }, 
	{ NOTE_B2, 88 }, 
	{ NOTE_B3, 88 }, 
	{ NOTE_CS3, 88 }, 
	{ NOTE_B3, 88 }, 
	{ NOTE_B2, 88 }, 
	{ NOTE_B3, 88 }, 
	{ NOTE_CS3, 88 }, 
	{ NOTE_B3, 92 }, 
	{ NOTE_A3, 176 }, 
	{ NOTE_FS4, 176 }, 
	{ NOTE_A3, 176 }, 
	{ NOTE_FS4, 176 }, 
	{ NOTE_A3, 176 }, 
	{ NOTE_FS4, 176 }, 
	{ NOTE_A3, 176 }, 
	{ NOTE_FS4, 180 }, 
	{ NOTE_A3, 176 }, 
	{ NOTE_FS4, 176 }, 
	{ NOTE_A3, 176 }, 
	{ NOTE_FS4, 176 }, 
	{ NOTE_A3, 176 }, 
	{ NOTE_FS4, 176 }, 
	{ NOTE_A3, 176 }, 
	{ NOTE_FS4, 180 }, 
	{ NOTE_GS3, 176 }, 
	{ NOTE_E4, 176 }, 
	{ NOTE_GS3, 176 }, 
	{ NOTE_E4, 176 }, 
	{ NOTE_GS3, 176 }, 
	{ NOTE_E4, 176 }, 
	{ NOTE_GS3, 176 }, 
	{ NOTE_E4, 180 }, 
	{ NOTE_GS3, 176 }, 
	{ NOTE_E4, 176 }, 
	{ NOTE_GS3, 176 }, 
	{ NOTE_E4, 176 }, 
	{ NOTE_GS3, 176 }, 
	{ NOTE_E4, 176 }, 
	{ NOTE_GS3, 176 }, 
	{ NOTE_E4, 180 }, 
	{ NOTE_G3, 529 }, 
	{ NOTE_G3, 44 }, 
	{ NOTE_AS3, 44 }, 
	{ NOTE_CS4, 44 }, 
	{ NOTE_E4, 44 }, 
	{ NOTE_G3, 529 }, 
	{ NOTE_G4, 44 }, 
	{ NOTE_AS4, 44 }, 
	{ NOTE_CS5, 44 }, 
	{ NOTE_E5, 46 }, 
	{ NOTE_G4, 353 }, 
	{ NOTE_REST, 1059 }, 
	{ NOTE_FS3, 529 }, 
	{ NOTE_FS3, 44 }, 
	{ NOTE_A3, 44 }, 
	{ NOTE_C4, 44 }, 
	{ NOTE_DS4, 44 }, 
	{ NOTE_FS3, 529 }, 
	{ NOTE_FS4, 44 }, 
	{ NOTE_A4, 44 }, 
	{ NOTE_C5, 44 }, 
	{ NOTE_DS5, 46 }, 
	{ NOTE_FS5, 353 }, 
	{ NOTE_REST, 1059 }, 
	{ NOTE_CS4, 353 }, 
	{ NOTE_GS4, 706 }, 
	{ NOTE_E4, 265 }, 
	{ NOTE_CS4, 88 }, 
	{ NOTE_CS4, 353 }, 
	{ NOTE_C4, 529 }, 
	{ NOTE_C4, 176 }, 
	{ NOTE_GS4, 265 }, 
	{ NOTE_C4, 89 }, 
	{ NOTE_DS4, 353 }, 
	{ NOTE_CS4, 529 }, 
	{ NOTE_CS4, 176 }, 
	{ NOTE_GS4, 265 }, 
	{ NOTE_CS4, 89 }, 
	{ NOTE_E4, 353 }, 
	{ NOTE_DS4, 529 }, 
	{ NOTE_DS4, 176 }, 
	{ NOTE_GS4, 265 }, 
	{ NOTE_DS4, 89 }, 
	{ NOTE_E4, 88 }, 
	{ NOTE_GS4, 88 }, 
	{ NOTE_E4, 88 }, 
	{ NOTE_GS4, 88 }, 
	{ NOTE_E4, 88 }, 
	{ NOTE_GS4, 88 }, 
	{ NOTE_E4, 88 }, 
	{ NOTE_GS4, 88 }, 
	{ NOTE_E4, 88 }, 
	{ NOTE_GS4, 88 }, 
	{ NOTE_E4, 88 }, 
	{ NOTE_GS4, 88 }, 
	{ NOTE_E4, 88 }, 
	{ NOTE_GS4, 88 }, 
	{ NOTE_E4, 88 }, 
	{ NOTE_GS4, 92 }, 
	{ NOTE_FS4, 88 }, 
	{ NOTE_GS4, 88 }, 
	{ NOTE_FS4, 88 }, 
	{ NOTE_GS4, 88 }, 
	{ NOTE_FS4, 88 }, 
	{ NOTE_GS4, 88 }, 
	{ NOTE_FS4, 88 }, 
	{ NOTE_GS4, 88 }, 
	{ NOTE_FS4, 88 }, 
	{ NOTE_GS4, 88 }, 
	{ NOTE_FS4, 88 }, 
	{ NOTE_GS4, 88 }, 
	{ NOTE_FS4, 88 }, 
	{ NOTE_GS4, 88 }, 
	{ NOTE_FS4, 88 }, 
	{ NOTE_GS4, 92 }, 
	{ NOTE_E4, 88 }, 
	{ NOTE_GS4, 88 }, 
	{ NOTE_E4, 88 }, 
	{ NOTE_GS4, 88 }, 
	{ NOTE_E4, 88 }, 
	{ NOTE_GS4, 88 }, 
	{ NOTE_E4, 88 }, 
	{ NOTE_GS4, 88 }, 
	{ NOTE_E4, 88 }, 
	{ NOTE_GS4, 88 }, 
	{ NOTE_E4, 88 }, 
	{ NOTE_GS4, 88 }, 
	{ NOTE_E4, 88 }, 
	{ NOTE_GS4, 88 }, 
	{ NOTE_E4, 88 }, 
	{ NOTE_GS4, 92 }, 
	{ NOTE_C4, 88 }, 
	{ NOTE_GS4, 88 }, 
	{ NOTE_C4, 88 }, 
	{ NOTE_GS4, 88 }, 
	{ NOTE_C4, 88 }, 
	{ NOTE_GS4, 88 }, 
	{ NOTE_C4, 88 }, 
	{ NOTE_GS4, 88 }, 
	{ NOTE_C4, 88 }, 
	{ NOTE_GS4, 88 }, 
	{ NOTE_C4, 88 }, 
	{ NOTE_GS4, 88 }, 
	{ NOTE_C4, 88 }, 
	{ NOTE_GS4, 88 }, 
	{ NOTE_C4, 88 }, 
	{ NOTE_GS4, 92 }, 
	{ NOTE_CS4, 88 }, 
	{ NOTE_GS4, 88 }, 
	{ NOTE_CS4, 88 }, 
	{ NOTE_GS4, 88 }, 
	{ NOTE_CS4, 88 }, 
	{ NOTE_GS4, 88 }, 
	{ NOTE_CS4, 88 }, 
	{ NOTE_GS4, 88 }, 
	{ NOTE_B3, 88 }, 
	{ NOTE_CS4, 88 }, 
	{ NOTE_B3, 88 }, 
	{ NOTE_CS4, 88 }, 
	{ NOTE_B3, 88 }, 
	{ NOTE_CS4, 88 }, 
	{ NOTE_B3, 88 }, 
	{ NOTE_CS4, 92 }, 
	{ NOTE_A3, 88 }, 
	{ NOTE_CS4, 88 }, 
	{ NOTE_A3, 88 }, 
	{ NOTE_CS4, 88 }, 
	{ NOTE_A3, 88 }, 
	{ NOTE_CS4, 88 }, 
	{ NOTE_A3, 88 }, 
	{ NOTE_CS4, 88 }, 
	{ NOTE_F3, 88 }, 
	{ NOTE_CS4, 88 }, 
	{ NOTE_F3, 88 }, 
	{ NOTE_CS4, 88 }, 
	{ NOTE_F3, 88 }, 
	{ NOTE_CS4, 88 }, 
	{ NOTE_F3, 88 }, 
	{ NOTE_CS4, 92 }, 
	{ NOTE_FS3, 2824 }, 
	{ NOTE_FS3, 2824 }, 
	{ NOTE_G3, 2824 }, 
	{ NOTE_GS3, 2824 }, 
	{ NOTE_GS3, 88 }, 
	{ NOTE_A3, 88 }, 
	{ NOTE_AS3, 88 }, 
	{ NOTE_B3, 88 }, 
	{ NOTE_C4, 88 }, 
	{ NOTE_CS4, 88 }, 
	{ NOTE_D4, 88 }, 
	{ NOTE_DS4, 88 }, 
	{ NOTE_E4, 88 }, 
	{ NOTE_F4, 88 }, 
	{ NOTE_FS4, 88 }, 
	{ NOTE_G4, 88 }, 
	{ NOTE_GS4, 88 }, 
	{ NOTE_A4, 88 }, 
	{ NOTE_AS4, 88 }, 
	{ NOTE_B4, 92 }, 
	{ NOTE_C5, 88 }, 
	{ NOTE_CS5, 88 }, 
	{ NOTE_D5, 88 }, 
	{ NOTE_DS5, 88 }, 
	{ NOTE_E5, 71 }, 
	{ NOTE_F5, 71 }, 
	{ NOTE_FS5, 71 }, 
	{ NOTE_G5, 71 }, 
	{ NOTE_GS5, 71 }, 
	{ NOTE_REST, 705 }, 
	{ NOTE_REST, 1412 }, 
	{ NOTE_REST, 1412 }, 
	{ NOTE_REST, 1412 }, 
	{ NOTE_REST, 1412 }, 
	{ NOTE_REST, 1412 }, 
	{ NOTE_REST, 1412 }, 
	{ NOTE_G3, 1412 }, 
	{ NOTE_GS3, 1412 }, 
	{ NOTE_CS3, 88 }, 
	{ NOTE_CS4, 88 }, 
	{ NOTE_GS3, 88 }, 
	{ NOTE_CS4, 88 }, 
	{ NOTE_CS3, 88 }, 
	{ NOTE_CS4, 88 }, 
	{ NOTE_GS3, 88 }, 
	{ NOTE_CS4, 88 }, 
	{ NOTE_CS3, 88 }, 
	{ NOTE_CS4, 88 }, 
	{ NOTE_GS3, 88 }, 
	{ NOTE_CS4, 88 }, 
	{ NOTE_CS3, 88 }, 
	{ NOTE_CS4, 88 }, 
	{ NOTE_GS3, 88 }, 
	{ NOTE_CS4, 92 }, 
	{ NOTE_CS3, 88 }, 
	{ NOTE_DS4, 88 }, 
	{ NOTE_GS3, 88 }, 
	{ NOTE_DS4, 88 }, 
	{ NOTE_CS3, 88 }, 
	{ NOTE_DS4, 88 }, 
	{ NOTE_GS3, 88 }, 
	{ NOTE_DS4, 88 }, 
	{ NOTE_CS3, 88 }, 
	{ NOTE_DS4, 88 }, 
	{ NOTE_GS3, 88 }, 
	{ NOTE_DS4, 88 }, 
	{ NOTE_CS3, 88 }, 
	{ NOTE_DS4, 88 }, 
	{ NOTE_GS3, 88 }, 
	{ NOTE_DS4, 92 }, 
	{ NOTE_CS3, 88 }, 
	{ NOTE_CS4, 88 }, 
	{ NOTE_GS3, 88 }, 
	{ NOTE_CS4, 88 }, 
	{ NOTE_CS3, 88 }, 
	{ NOTE_CS4, 88 }, 
	{ NOTE_GS3, 88 }, 
	{ NOTE_CS4, 88 }, 
	{ NOTE_CS3, 88 }, 
	{ NOTE_CS4, 88 }, 
	{ NOTE_GS3, 88 }, 
	{ NOTE_CS4, 88 }, 
	{ NOTE_CS3, 88 }, 
	{ NOTE_CS4, 88 }, 
	{ NOTE_GS3, 88 }, 
	{ NOTE_CS4, 92 }, 
	{ NOTE_CS3, 88 }, 
	{ NOTE_DS4, 88 }, 
	{ NOTE_GS3, 88 }, 
	{ NOTE_DS4, 88 }, 
	{ NOTE_CS3, 88 }, 
	{ NOTE_DS4, 88 }, 
	{ NOTE_GS3, 88 }, 
	{ NOTE_DS4, 88 }, 
	{ NOTE_CS3, 88 }, 
	{ NOTE_DS4, 88 }, 
	{ NOTE_GS3, 88 }, 
	{ NOTE_DS4, 88 }, 
	{ NOTE_CS3, 88 }, 
	{ NOTE_DS4, 88 }, 
	{ NOTE_GS3, 88 }, 
	{ NOTE_DS4, 92 }, 
	{ NOTE_CS3, 88 }, 
	{ NOTE_CS4, 88 }, 
	{ NOTE_GS3, 88 }, 
	{ NOTE_CS4, 88 }, 
	{ NOTE_CS3, 88 }, 
	{ NOTE_CS4, 88 }, 
	{ NOTE_GS3, 88 }, 
	{ NOTE_CS4, 88 }, 
	{ NOTE_CS3, 88 }, 
	{ NOTE_DS4, 88 }, 
	{ NOTE_GS3, 88 }, 
	{ NOTE_DS4, 88 }, 
	{ NOTE_CS3, 88 }, 
	{ NOTE_DS4, 88 }, 
	{ NOTE_GS3, 88 }, 
	{ NOTE_DS4, 92 }, 
	{ NOTE_CS3, 88 }, 
	{ NOTE_CS4, 88 }, 
	{ NOTE_GS3, 88 }, 
	{ NOTE_CS4, 88 }, 
	{ NOTE_CS3, 88 }, 
	{ NOTE_CS4, 88 }, 
	{ NOTE_GS3, 88 }, 
	{ NOTE_CS4, 88 }, 
	{ NOTE_CS3, 88 }, 
	{ NOTE_DS4, 88 }, 
	{ NOTE_GS3, 88 }, 
	{ NOTE_DS4, 88 }, 
	{ NOTE_CS3, 88 }, 
	{ NOTE_DS4, 88 }, 
	{ NOTE_GS3, 88 }, 
	{ NOTE_DS4, 92 }, 
	{ NOTE_CS3, 88 }, 
	{ NOTE_E4, 88 }, 
	{ NOTE_GS4, 88 }, 
	{ NOTE_CS5, 88 }, 
	{ NOTE_E5, 88 }, 
	{ NOTE_GS4, 88 }, 
	{ NOTE_CS5, 88 }, 
	{ NOTE_E5, 88 }, 
	{ NOTE_GS5, 88 }, 
	{ NOTE_CS5, 88 }, 
	{ NOTE_E5, 88 }, 
	{ NOTE_GS5, 88 }, 
	{ NOTE_CS6, 88 }, 
	{ NOTE_E5, 88 }, 
	{ NOTE_GS5, 88 }, 
	{ NOTE_CS6, 92 }, 
	{ NOTE_REST, 88 }, 
	{ NOTE_CS6, 88 }, 
	{ NOTE_GS5, 88 }, 
	{ NOTE_E5, 88 }, 
	{ NOTE_CS6, 88 }, 
	{ NOTE_GS5, 88 }, 
	{ NOTE_E5, 88 }, 
	{ NOTE_CS5, 88 }, 
	{ NOTE_GS5, 88 }, 
	{ NOTE_E5, 88 }, 
	{ NOTE_CS5, 88 }, 
	{ NOTE_GS4, 88 }, 
	{ NOTE_E5, 88 }, 
	{ NOTE_CS5, 88 }, 
	{ NOTE_GS4, 88 }, 
	{ NOTE_E4, 92 }, 
	{ NOTE_CS5, 88 }, 
	{ NOTE_GS4, 88 }, 
	{ NOTE_E4, 88 }, 
	{ NOTE_CS4, 88 }, 
	{ NOTE_GS4, 88 }, 
	{ NOTE_E4, 88 }, 
	{ NOTE_CS4, 88 }, 
	{ NOTE_GS3, 88 }, 
	{ NOTE_E4, 88 }, 
	{ NOTE_CS4, 88 }, 
	{ NOTE_GS3, 88 }, 
	{ NOTE_E3, 88 }, 
	{ NOTE_CS4, 88 }, 
	{ NOTE_GS3, 88 }, 
	{ NOTE_E3, 88 }, 
	{ NOTE_GS3, 92 }, 
	{ NOTE_CS3, 353 }, 
	{ NOTE_REST, 353 }, 
	{ NOTE_CS3, 353 }, 
	{ NOTE_REST, 353 }, 
	{ NOTE_CS3, 353 }, 
	{ NOTE_REST, 353 }, 
	{ NOTE_REST, 706 }, 
	{ NOTE_REST, 1412 }, 
};
const uint16_t NUM_OF_NOTES3 = sizeof(melody3)/sizeof(melody3[0]);

const Note melody4[] PROGMEM = {
	{ NOTE_CS3, 176 }, 
	{ NOTE_GS3, 176 }, 
	{ NOTE_CS3, 176 }, 
	{ NOTE_GS3, 176 }, 
	{ NOTE_CS3, 176 }, 
	{ NOTE_GS3, 176 }, 
	{ NOTE_CS3, 176 }, 
	{ NOTE_GS3, 180 }, 
	{ NOTE_CS3, 176 }, 
	{ NOTE_GS3, 176 }, 
	{ NOTE_CS3, 176 }, 
	{ NOTE_GS3, 176 }, 
	{ NOTE_CS3, 176 }, 
	{ NOTE_GS3, 176 }, 
	{ NOTE_CS4, 176 }, 
	{ NOTE_GS3, 180 }, 
	{ NOTE_C3, 176 }, 
	{ NOTE_GS3, 176 }, 
	{ NOTE_C3, 176 }, 
	{ NOTE_GS3, 176 }, 
	{ NOTE_C3, 176 }, 
	{ NOTE_GS3, 176 }, 
	{ NOTE_C3, 176 }, 
	{ NOTE_GS3, 180 }, 
	{ NOTE_C3, 176 }, 
	{ NOTE_GS3, 176 }, 
	{ NOTE_C3, 176 }, 
	{ NOTE_GS3, 176 }, 
	{ NOTE_C3, 176 }, 
	{ NOTE_GS3, 176 }, 
	{ NOTE_C4, 176 }, 
	{ NOTE_GS3, 180 }, 
	{ NOTE_B2, 176 }, 
	{ NOTE_GS3, 176 }, 
	{ NOTE_B2, 176 }, 
	{ NOTE_GS3, 176 }, 
	{ NOTE_B2, 176 }, 
	{ NOTE_GS3, 176 }, 
	{ NOTE_B2, 176 }, 
	{ NOTE_GS3, 180 }, 
	{ NOTE_B2, 176 }, 
	{ NOTE_GS3, 176 }, 
	{ NOTE_B2, 176 }, 
	{ NOTE_GS3, 176 }, 
	{ NOTE_B2, 176 }, 
	{ NOTE_GS3, 176 }, 
	{ NOTE_B3, 176 }, 
	{ NOTE_GS3, 180 }, 
	{ NOTE_A3, 176 }, 
	{ NOTE_A4, 176 }, 
	{ NOTE_A3, 176 }, 
	{ NOTE_A4, 176 }, 
	{ NOTE_A3, 176 }, 
	{ NOTE_A4, 176 }, 
	{ NOTE_A3, 176 }, 
	{ NOTE_A4, 180 }, 
	{ NOTE_A3, 176 }, 
	{ NOTE_A4, 176 }, 
	{ NOTE_A3, 176 }, 
	{ NOTE_A4, 176 }, 
	{ NOTE_A3, 176 }, 
	{ NOTE_A4, 176 }, 
	{ NOTE_A3, 176 }, 
	{ NOTE_A4, 180 }, 
	{ NOTE_GS3, 176 }, 
	{ NOTE_CS5, 2648 }, 
	{ NOTE_CS5, 2824 }, 
	{ NOTE_C5, 176 }, 
	{ NOTE_CS5, 176 }, 
	{ NOTE_C5, 176 }, 
	{ NOTE_CS5, 176 }, 
	{ NOTE_C5, 176 }, 
	{ NOTE_CS5, 176 }, 
	{ NOTE_C5, 176 }, 
	{ NOTE_CS5, 180 }, 
	{ NOTE_C5, 353 }, 
	{ NOTE_GS3, 1059 }, 
	{ NOTE_CS3, 176 }, 
	{ NOTE_GS3, 176 }, 
	{ NOTE_CS3, 176 }, 
	{ NOTE_GS3, 176 }, 
	{ NOTE_CS3, 176 }, 
	{ NOTE_GS3, 176 }, 
	{ NOTE_CS3, 176 }, 
	{ NOTE_GS3, 180 }, 
	{ NOTE_CS3, 176 }, 
	{ NOTE_GS3, 176 }, 
	{ NOTE_CS3, 176 }, 
	{ NOTE_GS3, 176 }, 
	{ NOTE_CS3, 176 }, 
	{ NOTE_GS3, 176 }, 
	{ NOTE_CS4, 176 }, 
	{ NOTE_GS3, 180 }, 
	{ NOTE_AS3, 176 }, 
	{ NOTE_CS4, 176 }, 
	{ NOTE_AS3, 176 }, 
	{ NOTE_CS4, 176 }, 
	{ NOTE_AS3, 176 }, 
	{ NOTE_CS4, 176 }, 
	{ NOTE_AS3, 176 }, 
	{ NOTE_CS4, 180 }, 
	{ NOTE_AS3, 176 }, 
	{ NOTE_CS4, 176 }, 
	{ NOTE_AS3, 176 }, 
	{ NOTE_CS4, 176 }, 
	{ NOTE_AS3, 176 }, 
	{ NOTE_CS4, 176 }, 
	{ NOTE_AS4, 176 }, 
	{ NOTE_CS4, 180 }, 
	{ NOTE_G3, 176 }, 
	{ NOTE_DS4, 176 }, 
	{ NOTE_G3, 176 }, 
	{ NOTE_DS4, 176 }, 
	{ NOTE_G3, 176 }, 
	{ NOTE_DS4, 176 }, 
	{ NOTE_G3, 176 }, 
	{ NOTE_DS4, 180 }, 
	{ NOTE_G3, 176 }, 
	{ NOTE_DS4, 176 }, 
	{ NOTE_G3, 176 }, 
	{ NOTE_DS4, 176 }, 
	{ NOTE_G3, 176 }, 
	{ NOTE_DS4, 176 }, 
	{ NOTE_G3, 176 }, 
	{ NOTE_DS4, 180 }, 
	{ NOTE_GS3, 88 }, 
	{ NOTE_DS4, 88 }, 
	{ NOTE_B3, 88 }, 
	{ NOTE_DS4, 88 }, 
	{ NOTE_GS3, 88 }, 
	{ NOTE_DS4, 88 }, 
	{ NOTE_B3, 88 }, 
	{ NOTE_DS4, 88 }, 
	{ NOTE_GS3, 88 }, 
	{ NOTE_DS4, 88 }, 
	{ NOTE_B3, 88 }, 
	{ NOTE_DS4, 88 }, 
	{ NOTE_GS3, 88 }, 
	{ NOTE_DS4, 88 }, 
	{ NOTE_B3, 88 }, 
	{ NOTE_DS4, 92 }, 
	{ NOTE_AS3, 88 }, 
	{ NOTE_DS4, 88 }, 
	{ NOTE_CS4, 88 }, 
	{ NOTE_DS4, 88 }, 
	{ NOTE_AS3, 88 }, 
	{ NOTE_DS4, 88 }, 
	{ NOTE_CS4, 88 }, 
	{ NOTE_DS4, 88 }, 
	{ NOTE_AS3, 88 }, 
	{ NOTE_DS4, 88 }, 
	{ NOTE_CS4, 88 }, 
	{ NOTE_DS4, 88 }, 
	{ NOTE_AS3, 88 }, 
	{ NOTE_DS4, 88 }, 
	{ NOTE_CS4, 88 }, 
	{ NOTE_DS4, 92 }, 
	{ NOTE_B3, 88 }, 
	{ NOTE_DS4, 88 }, 
	{ NOTE_B3, 88 }, 
	{ NOTE_DS4, 88 }, 
	{ NOTE_B3, 88 }, 
	{ NOTE_DS4, 88 }, 
	{ NOTE_B3, 88 }, 
	{ NOTE_DS4, 88 }, 
	{ NOTE_B3, 88 }, 
	{ NOTE_DS4, 88 }, 
	{ NOTE_B3, 88 }, 
	{ NOTE_DS4, 88 }, 
	{ NOTE_B3, 88 }, 
	{ NOTE_DS4, 88 }, 
	{ NOTE_B3, 88 }, 
	{ NOTE_DS4, 92 }, 
	{ NOTE_G3, 88 }, 
	{ NOTE_DS4, 88 }, 
	{ NOTE_G3, 88 }, 
	{ NOTE_DS4, 88 }, 
	{ NOTE_G3, 88 }, 
	{ NOTE_DS4, 88 }, 
	{ NOTE_G3, 88 }, 
	{ NOTE_DS4, 88 }, 
	{ NOTE_G3, 88 }, 
	{ NOTE_DS4, 88 }, 
	{ NOTE_G3, 88 }, 
	{ NOTE_DS4, 88 }, 
	{ NOTE_G3, 88 }, 
	{ NOTE_DS4, 88 }, 
	{ NOTE_G3, 88 }, 
	{ NOTE_DS4, 92 }, 
	{ NOTE_GS3, 88 }, 
	{ NOTE_DS4, 88 }, 
	{ NOTE_B3, 88 }, 
	{ NOTE_DS4, 88 }, 
	{ NOTE_GS3, 88 }, 
	{ NOTE_DS4, 88 }, 
	{ NOTE_B3, 88 }, 
	{ NOTE_DS4, 88 }, 
	{ NOTE_GS3, 88 }, 
	{ NOTE_DS4, 88 }, 
	{ NOTE_B3, 88 }, 
	{ NOTE_DS4, 88 }, 
	{ NOTE_GS3, 88 }, 
	{ NOTE_DS4, 88 }, 
	{ NOTE_B3, 88 }, 
	{ NOTE_DS4, 92 }, 
	{ NOTE_AS3, 88 }, 
	{ NOTE_DS4, 88 }, 
	{ NOTE_CS4, 88 }, 
	{ NOTE_DS4, 88 }, 
	{ NOTE_AS3, 88 }, 
	{ NOTE_DS4, 88 }, 
	{ NOTE_CS4, 88 }, 
	{ NOTE_DS4, 88 }, 
	{ NOTE_AS3, 88 }, 
	{ NOTE_DS4, 88 }, 
	{ NOTE_CS4, 88 }, 
	{ NOTE_DS4, 88 }, 
	{ NOTE_AS3, 88 }, 
	{ NOTE_DS4, 88 }, 
	{ NOTE_CS4, 88 }, 
	{ NOTE_DS4, 92 }, 
	{ NOTE_B3, 88 }, 
	{ NOTE_DS4, 88 }, 
	{ NOTE_B3, 88 }, 
	{ NOTE_DS4, 88 }, 
	{ NOTE_B3, 88 }, 
	{ NOTE_DS4, 88 }, 
	{ NOTE_B3, 88 }, 
	{ NOTE_DS4, 88 }, 
	{ NOTE_B3, 88 }, 
	{ NOTE_DS4, 88 }, 
	{ NOTE_B3, 88 }, 
	{ NOTE_DS4, 88 }, 
	{ NOTE_B3, 88 }, 
	{ NOTE_DS4, 88 }, 
	{ NOTE_B3, 88 }, 
	{ NOTE_DS4, 92 }, 
	{ NOTE_G3, 88 }, 
	{ NOTE_DS4, 88 }, 
	{ NOTE_G3, 88 }, 
	{ NOTE_DS4, 88 }, 
	{ NOTE_G3, 88 }, 
	{ NOTE_DS4, 88 }, 
	{ NOTE_G3, 88 }, 
	{ NOTE_DS4, 88 }, 
	{ NOTE_G3, 88 }, 
	{ NOTE_DS4, 88 }, 
	{ NOTE_G3, 88 }, 
	{ NOTE_DS4, 88 }, 
	{ NOTE_G3, 88 }, 
	{ NOTE_DS4, 88 }, 
	{ NOTE_G3, 88 }, 
	{ NOTE_DS4, 92 }, 
	{ NOTE_FS3, 88 }, 
	{ NOTE_DS4, 88 }, 
	{ NOTE_GS3, 88 }, 
	{ NOTE_DS4, 88 }, 
	{ NOTE_FS3, 88 }, 
	{ NOTE_DS4, 88 }, 
	{ NOTE_GS3, 88 }, 
	{ NOTE_DS4, 88 }, 
	{ NOTE_E3, 88 }, 
	{ NOTE_DS4, 88 }, 
	{ NOTE_GS3, 88 }, 
	{ NOTE_DS4, 88 }, 
	{ NOTE_E3, 88 }, 
	{ NOTE_DS4, 88 }, 
	{ NOTE_GS3, 88 }, 
	{ NOTE_DS4, 92 }, 
	{ NOTE_E3, 88 }, 
	{ NOTE_DS4, 88 }, 
	{ NOTE_FS3, 88 }, 
	{ NOTE_DS4, 88 }, 
	{ NOTE_DS3, 88 }, 
	{ NOTE_DS4, 88 }, 
	{ NOTE_FS3, 88 }, 
	{ NOTE_DS4, 88 }, 
	{ NOTE_DS3, 88 }, 
	{ NOTE_DS4, 88 }, 
	{ NOTE_FS3, 88 }, 
	{ NOTE_DS4, 88 }, 
	{ NOTE_DS3, 88 }, 
	{ NOTE_DS4, 88 }, 
	{ NOTE_FS3, 88 }, 
	{ NOTE_DS4, 92 }, 
	{ NOTE_D3, 88 }, 
	{ NOTE_B3, 88 }, 
	{ NOTE_E3, 88 }, 
	{ NOTE_B3, 88 }, 
	{ NOTE_D3, 88 }, 
	{ NOTE_B3, 88 }, 
	{ NOTE_E3, 88 }, 
	{ NOTE_B3, 88 }, 
	{ NOTE_CS3, 88 }, 
	{ NOTE_B3, 88 }, 
	{ NOTE_E3, 88 }, 
	{ NOTE_B3, 88 }, 
	{ NOTE_CS3, 88 }, 
	{ NOTE_B3, 88 }, 
	{ NOTE_E3, 88 }, 
	{ NOTE_B3, 92 }, 
	{ NOTE_CS3, 88 }, 
	{ NOTE_AS3, 88 }, 
	{ NOTE_DS3, 88 }, 
	{ NOTE_AS3, 88 }, 
	{ NOTE_B2, 88 }, 
	{ NOTE_AS3, 88 }, 
	{ NOTE_DS3, 88 }, 
	{ NOTE_AS3, 88 }, 
	{ NOTE_B2, 88 }, 
	{ NOTE_AS3, 88 }, 
	{ NOTE_DS3, 88 }, 
	{ NOTE_AS3, 88 }, 
	{ NOTE_B2, 88 }, 
	{ NOTE_AS3, 88 }, 
	{ NOTE_DS3, 88 }, 
	{ NOTE_AS3, 92 }, 
	{ NOTE_A3, 1059 }, 
	{ NOTE_REST, 353 }, 
	{ NOTE_E5, 353 }, 
	{ NOTE_REST, 353 }, 
	{ NOTE_E5, 353 }, 
	{ NOTE_REST, 353 }, 
	{ NOTE_E5, 353 }, 
	{ NOTE_E5, 353 }, 
	{ NOTE_E5, 353 }, 
	{ NOTE_E5, 353 }, 
	{ NOTE_DS5, 88 }, 
	{ NOTE_B5, 88 }, 
	{ NOTE_GS5, 88 }, 
	{ NOTE_B5, 88 }, 
	{ NOTE_DS5, 88 }, 
	{ NOTE_B5, 88 }, 
	{ NOTE_GS5, 88 }, 
	{ NOTE_B5, 88 }, 
	{ NOTE_DS5, 88 }, 
	{ NOTE_CS6, 88 }, 
	{ NOTE_G5, 88 }, 
	{ NOTE_CS6, 88 }, 
	{ NOTE_DS5, 88 }, 
	{ NOTE_CS6, 88 }, 
	{ NOTE_G5, 88 }, 
	{ NOTE_CS6, 445 }, 
	{ NOTE_A3, 706 }, 
	{ NOTE_REST, 353 }, 
	{ NOTE_REST, 353 }, 
	{ NOTE_E4, 353 }, 
	{ NOTE_REST, 353 }, 
	{ NOTE_E4, 353 }, 
	{ NOTE_REST, 176 }, 
	{ NOTE_E4, 176 }, 
	{ NOTE_REST, 176 }, 
	{ NOTE_E4, 176 }, 
	{ NOTE_REST, 176 }, 
	{ NOTE_E4, 176 }, 
	{ NOTE_REST, 176 }, 
	{ NOTE_E4, 180 }, 
	{ NOTE_E4, 353 }, 
	{ NOTE_REST, 353 }, 
	{ NOTE_REST, 706 }, 
	{ NOTE_CS4, 88 }, 
	{ NOTE_A4, 88 }, 
	{ NOTE_E4, 88 }, 
	{ NOTE_A4, 88 }, 
	{ NOTE_CS4, 88 }, 
	{ NOTE_A4, 88 }, 
	{ NOTE_E4, 88 }, 
	{ NOTE_A4, 88 }, 
	{ NOTE_D4, 88 }, 
	{ NOTE_B4, 88 }, 
	{ NOTE_F4, 88 }, 
	{ NOTE_B4, 88 }, 
	{ NOTE_D4, 88 }, 
	{ NOTE_B4, 88 }, 
	{ NOTE_F4, 88 }, 
	{ NOTE_B4, 92 }, 
	{ NOTE_DS4, 88 }, 
	{ NOTE_B4, 88 }, 
	{ NOTE_GS4, 88 }, 
	{ NOTE_B4, 88 }, 
	{ NOTE_DS4, 88 }, 
	{ NOTE_B4, 88 }, 
	{ NOTE_GS4, 88 }, 
	{ NOTE_B4, 88 }, 
	{ NOTE_DS3, 88 }, 
	{ NOTE_DS4, 88 }, 
	{ NOTE_D4, 88 }, 
	{ NOTE_DS4, 88 }, 
	{ NOTE_D4, 88 }, 
	{ NOTE_DS4, 88 }, 
	{ NOTE_D4, 88 }, 
	{ NOTE_DS4, 92 }, 
	{ NOTE_GS3, 176 }, 
	{ NOTE_GS4, 176 }, 
	{ NOTE_GS4, 176 }, 
	{ NOTE_GS4, 176 }, 
	{ NOTE_GS4, 176 }, 
	{ NOTE_GS4, 176 }, 
	{ NOTE_AS4, 176 }, 
	{ NOTE_B4, 180 }, 
	{ NOTE_CS5, 176 }, 
	{ NOTE_DS5, 176 }, 
	{ NOTE_DS5, 176 }, 
	{ NOTE_DS5, 176 }, 
	{ NOTE_DS5, 176 }, 
	{ NOTE_DS5, 176 }, 
	{ NOTE_DS5, 176 }, 
	{ NOTE_DS5, 180 }, 
	{ NOTE_GS4, 176 }, 
	{ NOTE_GS4, 176 }, 
	{ NOTE_GS4, 176 }, 
	{ NOTE_GS4, 176 }, 
	{ NOTE_GS4, 176 }, 
	{ NOTE_GS4, 176 }, 
	{ NOTE_AS4, 176 }, 
	{ NOTE_B4, 180 }, 
	{ NOTE_CS5, 176 }, 
	{ NOTE_DS5, 176 }, 
	{ NOTE_DS5, 176 }, 
	{ NOTE_DS5, 176 }, 
	{ NOTE_DS5, 176 }, 
	{ NOTE_DS5, 176 }, 
	{ NOTE_DS5, 176 }, 
	{ NOTE_DS5, 180 }, 
	{ NOTE_GS3, 176 }, 
	{ NOTE_B4, 176 }, 
	{ NOTE_B4, 176 }, 
	{ NOTE_DS5, 176 }, 
	{ NOTE_CS4, 176 }, 
	{ NOTE_CS5, 176 }, 
	{ NOTE_CS5, 176 }, 
	{ NOTE_E5, 180 }, 
	{ NOTE_DS4, 176 }, 
	{ NOTE_B4, 176 }, 
	{ NOTE_B4, 176 }, 
	{ NOTE_DS5, 176 }, 
	{ NOTE_DS4, 176 }, 
	{ NOTE_AS4, 176 }, 
	{ NOTE_AS4, 176 }, 
	{ NOTE_DS5, 180 }, 
	{ NOTE_GS3, 176 }, 
	{ NOTE_DS4, 176 }, 
	{ NOTE_DS4, 176 }, 
	{ NOTE_DS4, 176 }, 
	{ NOTE_DS4, 176 }, 
	{ NOTE_DS4, 176 }, 
	{ NOTE_DS4, 176 }, 
	{ NOTE_DS4, 180 }, 
	{ NOTE_CS4, 176 }, 
	{ NOTE_CS5, 176 }, 
	{ NOTE_CS5, 176 }, 
	{ NOTE_CS5, 176 }, 
	{ NOTE_CS5, 176 }, 
	{ NOTE_CS5, 176 }, 
	{ NOTE_B4, 176 }, 
	{ NOTE_AS4, 180 }, 
	{ NOTE_GS3, 176 }, 
	{ NOTE_DS4, 176 }, 
	{ NOTE_DS4, 176 }, 
	{ NOTE_DS4, 176 }, 
	{ NOTE_DS4, 176 }, 
	{ NOTE_DS4, 176 }, 
	{ NOTE_DS4, 176 }, 
	{ NOTE_DS4, 180 }, 
	{ NOTE_CS4, 176 }, 
	{ NOTE_CS5, 176 }, 
	{ NOTE_CS5, 176 }, 
	{ NOTE_CS5, 176 }, 
	{ NOTE_CS5, 176 }, 
	{ NOTE_CS5, 176 }, 
	{ NOTE_B4, 176 }, 
	{ NOTE_AS4, 180 }, 
	{ NOTE_GS4, 176 }, 
	{ NOTE_DS5, 176 }, 
	{ NOTE_DS5, 176 }, 
	{ NOTE_B4, 176 }, 
	{ NOTE_CS4, 176 }, 
	{ NOTE_E5, 176 }, 
	{ NOTE_E5, 176 }, 
	{ NOTE_CS5, 180 }, 
	{ NOTE_DS4, 176 }, 
	{ NOTE_DS5, 176 }, 
	{ NOTE_DS5, 176 }, 
	{ NOTE_B4, 176 }, 
	{ NOTE_CS4, 176 }, 
	{ NOTE_DS5, 176 }, 
	{ NOTE_DS5, 176 }, 
	{ NOTE_AS4, 180 }, 
	{ NOTE_B3, 176 }, 
	{ NOTE_GS5, 176 }, 
	{ NOTE_GS5, 176 }, 
	{ NOTE_DS5, 176 }, 
	{ NOTE_CS4, 176 }, 
	{ NOTE_A5, 176 }, 
	{ NOTE_A5, 176 }, 
	{ NOTE_E5, 180 }, 
	{ NOTE_DS4, 176 }, 
	{ NOTE_GS5, 176 }, 
	{ NOTE_GS5, 176 }, 
	{ NOTE_DS5, 176 }, 
	{ NOTE_DS4, 176 }, 
	{ NOTE_G5, 176 }, 
	{ NOTE_G5, 176 }, 
	{ NOTE_CS5, 180 }, 
	{ NOTE_GS3, 88 }, 
	{ NOTE_GS4, 88 }, 
	{ NOTE_DS4, 88 }, 
	{ NOTE_GS4, 88 }, 
	{ NOTE_GS3, 88 }, 
	{ NOTE_GS4, 88 }, 
	{ NOTE_DS4, 88 }, 
	{ NOTE_GS4, 88 }, 
	{ NOTE_GS3, 88 }, 
	{ NOTE_GS4, 88 }, 
	{ NOTE_DS4, 88 }, 
	{ NOTE_GS4, 88 }, 
	{ NOTE_GS3, 88 }, 
	{ NOTE_GS4, 88 }, 
	{ NOTE_DS4, 88 }, 
	{ NOTE_GS4, 92 }, 
	{ NOTE_GS3, 88 }, 
	{ NOTE_AS4, 88 }, 
	{ NOTE_DS4, 88 }, 
	{ NOTE_AS4, 88 }, 
	{ NOTE_GS3, 88 }, 
	{ NOTE_AS4, 88 }, 
	{ NOTE_DS4, 88 }, 
	{ NOTE_AS4, 88 }, 
	{ NOTE_GS3, 88 }, 
	{ NOTE_AS4, 88 }, 
	{ NOTE_DS4, 88 }, 
	{ NOTE_AS4, 88 }, 
	{ NOTE_GS3, 88 }, 
	{ NOTE_AS4, 88 }, 
	{ NOTE_DS4, 88 }, 
	{ NOTE_AS4, 92 }, 
	{ NOTE_GS3, 88 }, 
	{ NOTE_GS4, 88 }, 
	{ NOTE_DS4, 88 }, 
	{ NOTE_GS4, 88 }, 
	{ NOTE_GS3, 88 }, 
	{ NOTE_GS4, 88 }, 
	{ NOTE_DS4, 88 }, 
	{ NOTE_GS4, 88 }, 
	{ NOTE_GS3, 88 }, 
	{ NOTE_GS4, 88 }, 
	{ NOTE_DS4, 88 }, 
	{ NOTE_GS4, 88 }, 
	{ NOTE_GS3, 88 }, 
	{ NOTE_GS4, 88 }, 
	{ NOTE_DS4, 88 }, 
	{ NOTE_GS4, 92 }, 
	{ NOTE_GS3, 88 }, 
	{ NOTE_AS4, 88 }, 
	{ NOTE_DS4, 88 }, 
	{ NOTE_AS4, 88 }, 
	{ NOTE_GS3, 88 }, 
	{ NOTE_AS4, 88 }, 
	{ NOTE_DS4, 88 }, 
	{ NOTE_AS4, 88 }, 
	{ NOTE_GS3, 88 }, 
	{ NOTE_AS4, 88 }, 
	{ NOTE_DS4, 88 }, 
	{ NOTE_AS4, 88 }, 
	{ NOTE_GS3, 88 }, 
	{ NOTE_AS4, 88 }, 
	{ NOTE_DS4, 88 }, 
	{ NOTE_AS4, 92 }, 
	{ NOTE_GS3, 88 }, 
	{ NOTE_GS4, 88 }, 
	{ NOTE_DS4, 88 }, 
	{ NOTE_GS4, 88 }, 
	{ NOTE_GS3, 88 }, 
	{ NOTE_GS4, 88 }, 
	{ NOTE_DS4, 88 }, 
	{ NOTE_GS4, 88 }, 
	{ NOTE_GS3, 88 }, 
	{ NOTE_AS4, 88 }, 
	{ NOTE_DS4, 88 }, 
	{ NOTE_AS4, 88 }, 
	{ NOTE_GS3, 88 }, 
	{ NOTE_AS4, 88 }, 
	{ NOTE_DS4, 88 }, 
	{ NOTE_AS4, 92 }, 
	{ NOTE_GS3, 88 }, 
	{ NOTE_GS4, 88 }, 
	{ NOTE_DS4, 88 }, 
	{ NOTE_GS4, 88 }, 
	{ NOTE_GS3, 88 }, 
	{ NOTE_GS4, 88 }, 
	{ NOTE_DS4, 88 }, 
	{ NOTE_GS4, 88 }, 
	{ NOTE_GS3, 88 }, 
	{ NOTE_AS4, 88 }, 
	{ NOTE_DS4, 88 }, 
	{ NOTE_AS4, 88 }, 
	{ NOTE_GS3, 88 }, 
	{ NOTE_AS4, 88 }, 
	{ NOTE_DS4, 88 }, 
	{ NOTE_AS4, 92 }, 
	{ NOTE_GS3, 88 }, 
	{ NOTE_GS4, 88 }, 
	{ NOTE_DS4, 88 }, 
	{ NOTE_GS4, 88 }, 
	{ NOTE_GS3, 88 }, 
	{ NOTE_GS4, 88 }, 
	{ NOTE_DS4, 88 }, 
	{ NOTE_GS4, 88 }, 
	{ NOTE_GS3, 88 }, 
	{ NOTE_GS4, 88 }, 
	{ NOTE_DS4, 88 }, 
	{ NOTE_GS4, 88 }, 
	{ NOTE_GS3, 88 }, 
	{ NOTE_GS4, 88 }, 
	{ NOTE_DS4, 88 }, 
	{ NOTE_GS4, 92 }, 
	{ NOTE_GS3, 88 }, 
	{ NOTE_FS4, 88 }, 
	{ NOTE_DS4, 88 }, 
	{ NOTE_FS4, 88 }, 
	{ NOTE_GS3, 88 }, 
	{ NOTE_FS4, 88 }, 
	{ NOTE_DS4, 88 }, 
	{ NOTE_FS4, 88 }, 
	{ NOTE_GS3, 88 }, 
	{ NOTE_FS4, 88 }, 
	{ NOTE_DS4, 88 }, 
	{ NOTE_FS4, 88 }, 
	{ NOTE_GS3, 88 }, 
	{ NOTE_FS4, 88 }, 
	{ NOTE_DS4, 88 }, 
	{ NOTE_FS4, 92 }, 
	{ NOTE_CS3, 176 }, 
	{ NOTE_GS3, 176 }, 
	{ NOTE_CS3, 176 }, 
	{ NOTE_GS3, 176 }, 
	{ NOTE_CS3, 176 }, 
	{ NOTE_GS3, 176 }, 
	{ NOTE_CS3, 176 }, 
	{ NOTE_GS3, 180 }, 
	{ NOTE_CS3, 176 }, 
	{ NOTE_GS3, 176 }, 
	{ NOTE_CS3, 176 }, 
	{ NOTE_GS3, 176 }, 
	{ NOTE_CS3, 176 }, 
	{ NOTE_GS3, 176 }, 
	{ NOTE_CS3, 176 }, 
	{ NOTE_GS3, 180 }, 
	{ NOTE_CS3, 176 }, 
	{ NOTE_GS3, 176 }, 
	{ NOTE_CS3, 176 }, 
	{ NOTE_GS3, 176 }, 
	{ NOTE_CS3, 176 }, 
	{ NOTE_GS3, 176 }, 
	{ NOTE_CS4, 176 }, 
	{ NOTE_GS3, 180 }, 
	{ NOTE_B2, 176 }, 
	{ NOTE_GS3, 176 }, 
	{ NOTE_B2, 176 }, 
	{ NOTE_GS3, 176 }, 
	{ NOTE_B2, 176 }, 
	{ NOTE_GS3, 176 }, 
	{ NOTE_B2, 176 }, 
	{ NOTE_GS3, 180 }, 
	{ NOTE_B2, 176 }, 
	{ NOTE_GS3, 176 }, 
	{ NOTE_B2, 176 }, 
	{ NOTE_GS3, 176 }, 
	{ NOTE_B2, 176 }, 
	{ NOTE_GS3, 176 }, 
	{ NOTE_B3, 176 }, 
	{ NOTE_GS3, 180 }, 
	{ NOTE_A3, 176 }, 
	{ NOTE_A4, 176 }, 
	{ NOTE_A3, 176 }, 
	{ NOTE_A4, 176 }, 
	{ NOTE_A3, 176 }, 
	{ NOTE_A4, 176 }, 
	{ NOTE_A3, 176 }, 
	{ NOTE_A4, 180 }, 
	{ NOTE_F3, 176 }, 
	{ NOTE_F4, 176 }, 
	{ NOTE_F3, 176 }, 
	{ NOTE_F4, 176 }, 
	{ NOTE_F3, 176 }, 
	{ NOTE_F4, 176 }, 
	{ NOTE_F3, 176 }, 
	{ NOTE_F4, 180 }, 
	{ NOTE_FS3, 88 }, 
	{ NOTE_CS5, 88 }, 
	{ NOTE_A4, 88 }, 
	{ NOTE_CS5, 88 }, 
	{ NOTE_FS4, 88 }, 
	{ NOTE_CS5, 88 }, 
	{ NOTE_A4, 88 }, 
	{ NOTE_CS5, 88 }, 
	{ NOTE_FS4, 88 }, 
	{ NOTE_CS5, 88 }, 
	{ NOTE_A4, 88 }, 
	{ NOTE_CS5, 88 }, 
	{ NOTE_FS4, 88 }, 
	{ NOTE_CS5, 88 }, 
	{ NOTE_A4, 88 }, 
	{ NOTE_CS5, 92 }, 
	{ NOTE_GS4, 88 }, 
	{ NOTE_CS5, 88 }, 
	{ NOTE_B4, 88 }, 
	{ NOTE_CS5, 88 }, 
	{ NOTE_GS4, 88 }, 
	{ NOTE_CS5, 88 }, 
	{ NOTE_B4, 88 }, 
	{ NOTE_CS5, 88 }, 
	{ NOTE_GS4, 88 }, 
	{ NOTE_CS5, 88 }, 
	{ NOTE_B4, 88 }, 
	{ NOTE_CS5, 88 }, 
	{ NOTE_GS4, 88 }, 
	{ NOTE_CS5, 88 }, 
	{ NOTE_B4, 88 }, 
	{ NOTE_CS5, 92 }, 
	{ NOTE_A4, 88 }, 
	{ NOTE_CS5, 88 }, 
	{ NOTE_A4, 88 }, 
	{ NOTE_CS5, 88 }, 
	{ NOTE_A4, 88 }, 
	{ NOTE_CS5, 88 }, 
	{ NOTE_A4, 88 }, 
	{ NOTE_CS5, 88 }, 
	{ NOTE_A4, 88 }, 
	{ NOTE_CS5, 88 }, 
	{ NOTE_A4, 88 }, 
	{ NOTE_CS5, 88 }, 
	{ NOTE_A4, 88 }, 
	{ NOTE_CS5, 88 }, 
	{ NOTE_A4, 88 }, 
	{ NOTE_CS5, 92 }, 
	{ NOTE_F4, 88 }, 
	{ NOTE_CS5, 88 }, 
	{ NOTE_F4, 88 }, 
	{ NOTE_CS5, 88 }, 
	{ NOTE_F4, 88 }, 
	{ NOTE_CS5, 88 }, 
	{ NOTE_F4, 88 }, 
	{ NOTE_CS5, 88 }, 
	{ NOTE_F4, 88 }, 
	{ NOTE_CS5, 88 }, 
	{ NOTE_F4, 88 }, 
	{ NOTE_CS5, 88 }, 
	{ NOTE_F4, 88 }, 
	{ NOTE_CS5, 88 }, 
	{ NOTE_F4, 88 }, 
	{ NOTE_CS5, 92 }, 
	{ NOTE_FS4, 353 }, 
	{ NOTE_CS5, 706 }, 
	{ NOTE_A4, 265 }, 
	{ NOTE_FS4, 88 }, 
	{ NOTE_FS4, 353 }, 
	{ NOTE_F4, 529 }, 
	{ NOTE_F4, 176 }, 
	{ NOTE_CS5, 265 }, 
	{ NOTE_F4, 89 }, 
	{ NOTE_GS4, 353 }, 
	{ NOTE_FS4, 529 }, 
	{ NOTE_FS4, 176 }, 
	{ NOTE_CS5, 176 }, 
	{ NOTE_FS4, 178 }, 
	{ NOTE_FS4, 176 }, 
	{ NOTE_FS4, 176 }, 
	{ NOTE_D5, 265 }, 
	{ NOTE_FS4, 88 }, 
	{ NOTE_FS4, 176 }, 
	{ NOTE_FS4, 176 }, 
	{ NOTE_D5, 265 }, 
	{ NOTE_FS4, 90 }, 
	{ NOTE_G4, 353 }, 
	{ NOTE_D4, 706 }, 
	{ NOTE_B3, 265 }, 
	{ NOTE_G3, 88 }, 
	{ NOTE_G3, 353 }, 
	{ NOTE_FS3, 529 }, 
	{ NOTE_FS3, 176 }, 
	{ NOTE_D4, 265 }, 
	{ NOTE_FS3, 89 }, 
	{ NOTE_A3, 353 }, 
	{ NOTE_G3, 529 }, 
	{ NOTE_G3, 176 }, 
	{ NOTE_D4, 265 }, 
	{ NOTE_FS3, 89 }, 
	{ NOTE_FS3, 353 }, 
	{ NOTE_F3, 529 }, 
	{ NOTE_F3, 176 }, 
	{ NOTE_CS4, 176 }, 
	{ NOTE_F3, 178 }, 
	{ NOTE_FS3, 176 }, 
	{ NOTE_FS3, 176 }, 
	{ NOTE_A3, 176 }, 
	{ NOTE_FS3, 176 }, 
	{ NOTE_D3, 176 }, 
	{ NOTE_D3, 176 }, 
	{ NOTE_FS3, 176 }, 
	{ NOTE_D3, 180 }, 
	{ NOTE_C3, 706 }, 
	{ NOTE_C3, 176 }, 
	{ NOTE_C3, 176 }, 
	{ NOTE_DS3, 176 }, 
	{ NOTE_C3, 178 }, 
	{ NOTE_CS4, 176 }, 
	{ NOTE_CS4, 176 }, 
	{ NOTE_E4, 176 }, 
	{ NOTE_CS4, 176 }, 
	{ NOTE_A3, 176 }, 
	{ NOTE_A3, 176 }, 
	{ NOTE_CS4, 176 }, 
	{ NOTE_A3, 180 }, 
	{ NOTE_FS3, 176 }, 
	{ NOTE_FS3, 176 }, 
	{ NOTE_A3, 176 }, 
	{ NOTE_FS3, 176 }, 
	{ NOTE_G3, 176 }, 
	{ NOTE_G3, 176 }, 
	{ NOTE_AS3, 176 }, 
	{ NOTE_G3, 180 }, 
	{ NOTE_GS3, 88 }, 
	{ NOTE_GS4, 88 }, 
	{ NOTE_GS3, 88 }, 
	{ NOTE_GS4, 88 }, 
	{ NOTE_GS3, 88 }, 
	{ NOTE_GS4, 88 }, 
	{ NOTE_GS3, 88 }, 
	{ NOTE_GS4, 88 }, 
	{ NOTE_GS3, 88 }, 
	{ NOTE_GS4, 88 }, 
	{ NOTE_GS3, 88 }, 
	{ NOTE_GS4, 88 }, 
	{ NOTE_GS3, 88 }, 
	{ NOTE_GS4, 88 }, 
	{ NOTE_GS3, 88 }, 
	{ NOTE_GS4, 92 }, 
	{ NOTE_GS3, 88 }, 
	{ NOTE_GS4, 88 }, 
	{ NOTE_GS3, 88 }, 
	{ NOTE_GS4, 88 }, 
	{ NOTE_GS3, 88 }, 
	{ NOTE_GS4, 88 }, 
	{ NOTE_GS3, 88 }, 
	{ NOTE_GS4, 88 }, 
	{ NOTE_GS3, 88 }, 
	{ NOTE_GS4, 88 }, 
	{ NOTE_GS3, 88 }, 
	{ NOTE_GS4, 88 }, 
	{ NOTE_GS3, 88 }, 
	{ NOTE_GS4, 88 }, 
	{ NOTE_GS3, 88 }, 
	{ NOTE_GS4, 92 }, 
	{ NOTE_GS3, 88 }, 
	{ NOTE_GS4, 88 }, 
	{ NOTE_GS3, 88 }, 
	{ NOTE_GS4, 88 }, 
	{ NOTE_GS3, 88 }, 
	{ NOTE_GS4, 88 }, 
	{ NOTE_GS3, 88 }, 
	{ NOTE_GS4, 88 }, 
	{ NOTE_GS3, 88 }, 
	{ NOTE_GS4, 88 }, 
	{ NOTE_GS3, 88 }, 
	{ NOTE_GS4, 88 }, 
	{ NOTE_GS3, 88 }, 
	{ NOTE_GS4, 88 }, 
	{ NOTE_GS3, 88 }, 
	{ NOTE_GS4, 92 }, 
	{ NOTE_GS3, 88 }, 
	{ NOTE_GS4, 88 }, 
	{ NOTE_GS3, 88 }, 
	{ NOTE_GS4, 88 }, 
	{ NOTE_GS3, 88 }, 
	{ NOTE_GS4, 88 }, 
	{ NOTE_GS3, 88 }, 
	{ NOTE_GS4, 88 }, 
	{ NOTE_GS3, 88 }, 
	{ NOTE_GS4, 88 }, 
	{ NOTE_GS3, 88 }, 
	{ NOTE_GS4, 88 }, 
	{ NOTE_GS3, 88 }, 
	{ NOTE_GS4, 88 }, 
	{ NOTE_GS3, 88 }, 
	{ NOTE_GS4, 92 }, 
	{ NOTE_GS3, 88 }, 
	{ NOTE_GS4, 88 }, 
	{ NOTE_GS3, 88 }, 
	{ NOTE_GS4, 88 }, 
	{ NOTE_GS3, 88 }, 
	{ NOTE_GS4, 88 }, 
	{ NOTE_GS3, 88 }, 
	{ NOTE_GS4, 88 }, 
	{ NOTE_GS3, 88 }, 
	{ NOTE_GS4, 88 }, 
	{ NOTE_GS3, 88 }, 
	{ NOTE_GS4, 88 }, 
	{ NOTE_GS3, 88 }, 
	{ NOTE_GS4, 88 }, 
	{ NOTE_GS3, 88 }, 
	{ NOTE_GS4, 92 }, 
	{ NOTE_GS3, 88 }, 
	{ NOTE_GS4, 88 }, 
	{ NOTE_GS3, 88 }, 
	{ NOTE_GS4, 88 }, 
	{ NOTE_GS3, 88 }, 
	{ NOTE_GS4, 88 }, 
	{ NOTE_GS3, 88 }, 
	{ NOTE_GS4, 88 }, 
	{ NOTE_GS3, 88 }, 
	{ NOTE_GS4, 88 }, 
	{ NOTE_GS3, 88 }, 
	{ NOTE_GS4, 88 }, 
	{ NOTE_GS3, 88 }, 
	{ NOTE_GS4, 88 }, 
	{ NOTE_GS3, 88 }, 
	{ NOTE_GS4, 92 }, 
	{ NOTE_GS3, 88 }, 
	{ NOTE_GS4, 88 }, 
	{ NOTE_GS3, 88 }, 
	{ NOTE_GS4, 88 }, 
	{ NOTE_GS3, 88 }, 
	{ NOTE_GS4, 88 }, 
	{ NOTE_GS3, 88 }, 
	{ NOTE_GS4, 88 }, 
	{ NOTE_GS3, 88 }, 
	{ NOTE_GS4, 88 }, 
	{ NOTE_GS3, 88 }, 
	{ NOTE_GS4, 88 }, 
	{ NOTE_GS3, 88 }, 
	{ NOTE_GS4, 88 }, 
	{ NOTE_GS3, 88 }, 
	{ NOTE_GS4, 92 }, 
	{ NOTE_GS3, 88 }, 
	{ NOTE_GS4, 88 }, 
	{ NOTE_GS3, 88 }, 
	{ NOTE_GS4, 88 }, 
	{ NOTE_GS3, 88 }, 
	{ NOTE_GS4, 88 }, 
	{ NOTE_GS3, 88 }, 
	{ NOTE_GS4, 88 }, 
	{ NOTE_GS3, 88 }, 
	{ NOTE_GS4, 88 }, 
	{ NOTE_GS3, 88 }, 
	{ NOTE_GS4, 88 }, 
	{ NOTE_GS3, 88 }, 
	{ NOTE_GS4, 88 }, 
	{ NOTE_GS3, 88 }, 
	{ NOTE_GS4, 92 }, 
	{ NOTE_GS3, 88 }, 
	{ NOTE_GS4, 88 }, 
	{ NOTE_GS3, 88 }, 
	{ NOTE_GS4, 88 }, 
	{ NOTE_GS3, 88 }, 
	{ NOTE_GS4, 88 }, 
	{ NOTE_GS3, 88 }, 
	{ NOTE_GS4, 88 }, 
	{ NOTE_GS3, 88 }, 
	{ NOTE_GS4, 88 }, 
	{ NOTE_GS3, 88 }, 
	{ NOTE_GS4, 88 }, 
	{ NOTE_GS3, 88 }, 
	{ NOTE_GS4, 88 }, 
	{ NOTE_GS3, 88 }, 
	{ NOTE_GS4, 92 }, 
	{ NOTE_GS3, 88 }, 
	{ NOTE_GS4, 88 }, 
	{ NOTE_GS3, 88 }, 
	{ NOTE_GS4, 88 }, 
	{ NOTE_GS3, 88 }, 
	{ NOTE_GS4, 88 }, 
	{ NOTE_GS3, 88 }, 
	{ NOTE_GS4, 88 }, 
	{ NOTE_GS3, 88 }, 
	{ NOTE_GS4, 88 }, 
	{ NOTE_GS3, 88 }, 
	{ NOTE_GS4, 88 }, 
	{ NOTE_GS3, 88 }, 
	{ NOTE_GS4, 88 }, 
	{ NOTE_GS3, 88 }, 
	{ NOTE_GS4, 92 }, 
	{ NOTE_GS3, 88 }, 
	{ NOTE_GS4, 88 }, 
	{ NOTE_GS3, 88 }, 
	{ NOTE_GS4, 88 }, 
	{ NOTE_GS3, 88 }, 
	{ NOTE_GS4, 88 }, 
	{ NOTE_GS3, 88 }, 
	{ NOTE_GS4, 88 }, 
	{ NOTE_GS3, 88 }, 
	{ NOTE_GS4, 88 }, 
	{ NOTE_GS3, 88 }, 
	{ NOTE_GS4, 88 }, 
	{ NOTE_GS3, 88 }, 
	{ NOTE_GS4, 88 }, 
	{ NOTE_GS3, 88 }, 
	{ NOTE_GS4, 92 }, 
	{ NOTE_GS3, 88 }, 
	{ NOTE_GS4, 88 }, 
	{ NOTE_GS3, 88 }, 
	{ NOTE_GS4, 88 }, 
	{ NOTE_GS3, 88 }, 
	{ NOTE_GS4, 88 }, 
	{ NOTE_GS3, 88 }, 
	{ NOTE_GS4, 88 }, 
	{ NOTE_GS3, 88 }, 
	{ NOTE_GS4, 88 }, 
	{ NOTE_GS3, 88 }, 
	{ NOTE_GS4, 88 }, 
	{ NOTE_GS3, 88 }, 
	{ NOTE_GS4, 88 }, 
	{ NOTE_GS3, 88 }, 
	{ NOTE_GS4, 92 }, 
	{ NOTE_GS3, 88 }, 
	{ NOTE_GS4, 88 }, 
	{ NOTE_GS3, 88 }, 
	{ NOTE_GS4, 88 }, 
	{ NOTE_GS3, 88 }, 
	{ NOTE_GS4, 88 }, 
	{ NOTE_GS3, 88 }, 
	{ NOTE_GS4, 88 }, 
	{ NOTE_GS3, 88 }, 
	{ NOTE_GS4, 88 }, 
	{ NOTE_GS3, 88 }, 
	{ NOTE_GS4, 88 }, 
	{ NOTE_GS3, 88 }, 
	{ NOTE_GS4, 88 }, 
	{ NOTE_GS3, 88 }, 
	{ NOTE_GS4, 92 }, 
	{ NOTE_FS4, 1412 }, 
	{ NOTE_GS4, 1412 }, 
	{ NOTE_CS3, 176 }, 
	{ NOTE_GS3, 176 }, 
	{ NOTE_CS3, 176 }, 
	{ NOTE_GS3, 176 }, 
	{ NOTE_CS3, 176 }, 
	{ NOTE_GS3, 176 }, 
	{ NOTE_CS3, 176 }, 
	{ NOTE_GS3, 180 }, 
	{ NOTE_CS3, 176 }, 
	{ NOTE_GS3, 176 }, 
	{ NOTE_CS3, 176 }, 
	{ NOTE_GS3, 176 }, 
	{ NOTE_CS3, 176 }, 
	{ NOTE_GS3, 176 }, 
	{ NOTE_CS4, 176 }, 
	{ NOTE_GS3, 180 }, 
	{ NOTE_C3, 176 }, 
	{ NOTE_GS3, 176 }, 
	{ NOTE_C3, 176 }, 
	{ NOTE_GS3, 176 }, 
	{ NOTE_C3, 176 }, 
	{ NOTE_GS3, 176 }, 
	{ NOTE_C3, 176 }, 
	{ NOTE_GS3, 180 }, 
	{ NOTE_C3, 176 }, 
	{ NOTE_GS3, 176 }, 
	{ NOTE_C3, 176 }, 
	{ NOTE_GS3, 176 }, 
	{ NOTE_C3, 176 }, 
	{ NOTE_GS3, 176 }, 
	{ NOTE_C4, 176 }, 
	{ NOTE_GS3, 180 }, 
	{ NOTE_B2, 176 }, 
	{ NOTE_GS3, 176 }, 
	{ NOTE_B2, 176 }, 
	{ NOTE_GS3, 176 }, 
	{ NOTE_B2, 176 }, 
	{ NOTE_GS3, 176 }, 
	{ NOTE_B2, 176 }, 
	{ NOTE_GS3, 180 }, 
	{ NOTE_B2, 176 }, 
	{ NOTE_GS3, 176 }, 
	{ NOTE_B2, 176 }, 
	{ NOTE_GS3, 176 }, 
	{ NOTE_B2, 176 }, 
	{ NOTE_GS3, 176 }, 
	{ NOTE_B3, 176 }, 
	{ NOTE_GS3, 180 }, 
	{ NOTE_A3, 176 }, 
	{ NOTE_A4, 176 }, 
	{ NOTE_A3, 176 }, 
	{ NOTE_A4, 176 }, 
	{ NOTE_A3, 176 }, 
	{ NOTE_A4, 176 }, 
	{ NOTE_A3, 176 }, 
	{ NOTE_A4, 180 }, 
	{ NOTE_A3, 176 }, 
	{ NOTE_A4, 176 }, 
	{ NOTE_A3, 176 }, 
	{ NOTE_A4, 176 }, 
	{ NOTE_A3, 176 }, 
	{ NOTE_A4, 176 }, 
	{ NOTE_A3, 176 }, 
	{ NOTE_A4, 180 }, 
	{ NOTE_GS3, 176 }, 
	{ NOTE_CS5, 2648 }, 
	{ NOTE_CS5, 2824 }, 
	{ NOTE_C5, 176 }, 
	{ NOTE_CS5, 176 }, 
	{ NOTE_C5, 176 }, 
	{ NOTE_CS5, 176 }, 
	{ NOTE_C5, 176 }, 
	{ NOTE_CS5, 176 }, 
	{ NOTE_C5, 176 }, 
	{ NOTE_CS5, 180 }, 
	{ NOTE_C5, 353 }, 
	{ NOTE_GS3, 1059 }, 
	{ NOTE_CS4, 88 }, 
	{ NOTE_GS4, 88 }, 
	{ NOTE_E4, 88 }, 
	{ NOTE_GS4, 88 }, 
	{ NOTE_CS4, 88 }, 
	{ NOTE_GS4, 88 }, 
	{ NOTE_E4, 88 }, 
	{ NOTE_GS4, 88 }, 
	{ NOTE_CS4, 88 }, 
	{ NOTE_GS4, 88 }, 
	{ NOTE_E4, 88 }, 
	{ NOTE_GS4, 88 }, 
	{ NOTE_CS4, 88 }, 
	{ NOTE_GS4, 88 }, 
	{ NOTE_E4, 88 }, 
	{ NOTE_GS4, 92 }, 
	{ NOTE_DS4, 88 }, 
	{ NOTE_GS4, 88 }, 
	{ NOTE_FS4, 88 }, 
	{ NOTE_GS4, 88 }, 
	{ NOTE_DS4, 88 }, 
	{ NOTE_GS4, 88 }, 
	{ NOTE_FS4, 88 }, 
	{ NOTE_GS4, 88 }, 
	{ NOTE_DS4, 88 }, 
	{ NOTE_GS4, 88 }, 
	{ NOTE_FS4, 88 }, 
	{ NOTE_GS4, 88 }, 
	{ NOTE_DS4, 88 }, 
	{ NOTE_GS4, 88 }, 
	{ NOTE_FS4, 88 }, 
	{ NOTE_GS4, 92 }, 
	{ NOTE_E4, 88 }, 
	{ NOTE_GS4, 88 }, 
	{ NOTE_E4, 88 }, 
	{ NOTE_GS4, 88 }, 
	{ NOTE_E4, 88 }, 
	{ NOTE_GS4, 88 }, 
	{ NOTE_E4, 88 }, 
	{ NOTE_GS4, 88 }, 
	{ NOTE_E4, 88 }, 
	{ NOTE_GS4, 88 }, 
	{ NOTE_E4, 88 }, 
	{ NOTE_GS4, 88 }, 
	{ NOTE_E4, 88 }, 
	{ NOTE_GS4, 88 }, 
	{ NOTE_E4, 88 }, 
	{ NOTE_GS4, 92 }, 
	{ NOTE_C4, 88 }, 
	{ NOTE_GS4, 88 }, 
	{ NOTE_C4, 88 }, 
	{ NOTE_GS4, 88 }, 
	{ NOTE_C4, 88 }, 
	{ NOTE_GS4, 88 }, 
	{ NOTE_C4, 88 }, 
	{ NOTE_GS4, 88 }, 
	{ NOTE_C4, 88 }, 
	{ NOTE_GS4, 88 }, 
	{ NOTE_C4, 88 }, 
	{ NOTE_GS4, 88 }, 
	{ NOTE_C4, 88 }, 
	{ NOTE_GS4, 88 }, 
	{ NOTE_C4, 88 }, 
	{ NOTE_GS4, 92 }, 
	{ NOTE_CS4, 88 }, 
	{ NOTE_GS4, 88 }, 
	{ NOTE_E4, 88 }, 
	{ NOTE_GS4, 88 }, 
	{ NOTE_CS4, 88 }, 
	{ NOTE_GS4, 88 }, 
	{ NOTE_E4, 88 }, 
	{ NOTE_GS4, 88 }, 
	{ NOTE_CS4, 88 }, 
	{ NOTE_GS4, 88 }, 
	{ NOTE_E4, 88 }, 
	{ NOTE_GS4, 88 }, 
	{ NOTE_CS4, 88 }, 
	{ NOTE_GS4, 88 }, 
	{ NOTE_E4, 88 }, 
	{ NOTE_GS4, 92 }, 
	{ NOTE_DS4, 88 }, 
	{ NOTE_GS4, 88 }, 
	{ NOTE_FS4, 88 }, 
	{ NOTE_GS4, 88 }, 
	{ NOTE_DS4, 88 }, 
	{ NOTE_GS4, 88 }, 
	{ NOTE_FS4, 88 }, 
	{ NOTE_GS4, 88 }, 
	{ NOTE_DS4, 88 }, 
	{ NOTE_GS4, 88 }, 
	{ NOTE_FS4, 88 }, 
	{ NOTE_GS4, 88 }, 
	{ NOTE_DS4, 88 }, 
	{ NOTE_GS4, 88 }, 
	{ NOTE_FS4, 88 }, 
	{ NOTE_GS4, 92 }, 
	{ NOTE_E4, 88 }, 
	{ NOTE_GS4, 88 }, 
	{ NOTE_E4, 88 }, 
	{ NOTE_GS4, 88 }, 
	{ NOTE_E4, 88 }, 
	{ NOTE_GS4, 88 }, 
	{ NOTE_E4, 88 }, 
	{ NOTE_GS4, 88 }, 
	{ NOTE_E4, 88 }, 
	{ NOTE_GS4, 88 }, 
	{ NOTE_E4, 88 }, 
	{ NOTE_GS4, 88 }, 
	{ NOTE_E4, 88 }, 
	{ NOTE_GS4, 88 }, 
	{ NOTE_E4, 88 }, 
	{ NOTE_GS4, 92 }, 
	{ NOTE_C4, 88 }, 
	{ NOTE_GS4, 88 }, 
	{ NOTE_C4, 88 }, 
	{ NOTE_GS4, 88 }, 
	{ NOTE_C4, 88 }, 
	{ NOTE_GS4, 88 }, 
	{ NOTE_C4, 88 }, 
	{ NOTE_GS4, 88 }, 
	{ NOTE_C4, 88 }, 
	{ NOTE_GS4, 88 }, 
	{ NOTE_C4, 88 }, 
	{ NOTE_GS4, 88 }, 
	{ NOTE_C4, 88 }, 
	{ NOTE_GS4, 88 }, 
	{ NOTE_C4, 88 }, 
	{ NOTE_GS4, 92 }, 
	{ NOTE_B3, 88 }, 
	{ NOTE_GS4, 88 }, 
	{ NOTE_CS4, 88 }, 
	{ NOTE_GS4, 88 }, 
	{ NOTE_B3, 88 }, 
	{ NOTE_GS4, 88 }, 
	{ NOTE_CS4, 88 }, 
	{ NOTE_GS4, 88 }, 
	{ NOTE_A3, 88 }, 
	{ NOTE_FS4, 88 }, 
	{ NOTE_CS4, 88 }, 
	{ NOTE_FS4, 88 }, 
	{ NOTE_A3, 88 }, 
	{ NOTE_FS4, 88 }, 
	{ NOTE_CS4, 88 }, 
	{ NOTE_FS4, 92 }, 
	{ NOTE_A3, 88 }, 
	{ NOTE_FS4, 88 }, 
	{ NOTE_B3, 88 }, 
	{ NOTE_FS4, 88 }, 
	{ NOTE_GS3, 88 }, 
	{ NOTE_FS4, 88 }, 
	{ NOTE_B3, 88 }, 
	{ NOTE_FS4, 88 }, 
	{ NOTE_GS3, 88 }, 
	{ NOTE_FS4, 88 }, 
	{ NOTE_B3, 88 }, 
	{ NOTE_FS4, 88 }, 
	{ NOTE_GS3, 88 }, 
	{ NOTE_FS4, 88 }, 
	{ NOTE_B3, 88 }, 
	{ NOTE_FS4, 92 }, 
	{ NOTE_G3, 88 }, 
	{ NOTE_E4, 88 }, 
	{ NOTE_A3, 88 }, 
	{ NOTE_E4, 88 }, 
	{ NOTE_G3, 88 }, 
	{ NOTE_E4, 88 }, 
	{ NOTE_A3, 88 }, 
	{ NOTE_E4, 88 }, 
	{ NOTE_FS3, 88 }, 
	{ NOTE_D4, 88 }, 
	{ NOTE_A3, 88 }, 
	{ NOTE_D4, 88 }, 
	{ NOTE_FS3, 88 }, 
	{ NOTE_D4, 88 }, 
	{ NOTE_A3, 88 }, 
	{ NOTE_D4, 92 }, 
	{ NOTE_FS3, 88 }, 
	{ NOTE_DS4, 88 }, 
	{ NOTE_GS3, 88 }, 
	{ NOTE_DS4, 88 }, 
	{ NOTE_E3, 88 }, 
	{ NOTE_CS4, 88 }, 
	{ NOTE_GS3, 88 }, 
	{ NOTE_CS4, 88 }, 
	{ NOTE_E3, 88 }, 
	{ NOTE_CS4, 88 }, 
	{ NOTE_GS3, 88 }, 
	{ NOTE_CS4, 88 }, 
	{ NOTE_E3, 88 }, 
	{ NOTE_CS4, 88 }, 
	{ NOTE_GS3, 88 }, 
	{ NOTE_CS4, 92 }, 
	{ NOTE_A3, 1059 }, 
	{ NOTE_REST, 353 }, 
	{ NOTE_A4, 353 }, 
	{ NOTE_REST, 353 }, 
	{ NOTE_A4, 353 }, 
	{ NOTE_REST, 353 }, 
	{ NOTE_A4, 353 }, 
	{ NOTE_A4, 353 }, 
	{ NOTE_A4, 353 }, 
	{ NOTE_A4, 353 }, 
	{ NOTE_GS4, 88 }, 
	{ NOTE_E5, 88 }, 
	{ NOTE_CS5, 88 }, 
	{ NOTE_E5, 88 }, 
	{ NOTE_GS4, 88 }, 
	{ NOTE_E5, 88 }, 
	{ NOTE_CS5, 88 }, 
	{ NOTE_E5, 88 }, 
	{ NOTE_GS4, 88 }, 
	{ NOTE_E5, 88 }, 
	{ NOTE_CS5, 88 }, 
	{ NOTE_E5, 88 }, 
	{ NOTE_GS4, 88 }, 
	{ NOTE_E5, 88 }, 
	{ NOTE_CS5, 88 }, 
	{ NOTE_E5, 92 }, 
	{ NOTE_CS5, 353 }, 
	{ NOTE_FS3, 706 }, 
	{ NOTE_REST, 353 }, 
	{ NOTE_REST, 353 }, 
	{ NOTE_A3, 353 }, 
	{ NOTE_REST, 353 }, 
	{ NOTE_A3, 353 }, 
	{ NOTE_REST, 176 }, 
	{ NOTE_A3, 176 }, 
	{ NOTE_REST, 176 }, 
	{ NOTE_A3, 176 }, 
	{ NOTE_REST, 176 }, 
	{ NOTE_A3, 176 }, 
	{ NOTE_REST, 176 }, 
	{ NOTE_A3, 180 }, 
	{ NOTE_FS3, 88 }, 
	{ NOTE_D4, 88 }, 
	{ NOTE_A3, 88 }, 
	{ NOTE_D4, 88 }, 
	{ NOTE_FS3, 88 }, 
	{ NOTE_D4, 88 }, 
	{ NOTE_A3, 88 }, 
	{ NOTE_D4, 88 }, 
	{ NOTE_G3, 88 }, 
	{ NOTE_E4, 88 }, 
	{ NOTE_AS3, 88 }, 
	{ NOTE_E4, 88 }, 
	{ NOTE_G3, 88 }, 
	{ NOTE_E4, 88 }, 
	{ NOTE_AS3, 88 }, 
	{ NOTE_E4, 92 }, 
	{ NOTE_GS3, 88 }, 
	{ NOTE_E4, 88 }, 
	{ NOTE_CS4, 88 }, 
	{ NOTE_E4, 88 }, 
	{ NOTE_GS3, 88 }, 
	{ NOTE_E4, 88 }, 
	{ NOTE_CS4, 88 }, 
	{ NOTE_E4, 88 }, 
	{ NOTE_C4, 88 }, 
	{ NOTE_GS3, 88 }, 
	{ NOTE_G3, 88 }, 
	{ NOTE_GS3, 88 }, 
	{ NOTE_G3, 88 }, 
	{ NOTE_GS3, 88 }, 
	{ NOTE_G3, 88 }, 
	{ NOTE_GS3, 92 }, 
	{ NOTE_CS4, 176 }, 
	{ NOTE_CS4, 176 }, 
	{ NOTE_CS4, 176 }, 
	{ NOTE_CS4, 176 }, 
	{ NOTE_CS4, 176 }, 
	{ NOTE_CS4, 176 }, 
	{ NOTE_DS4, 176 }, 
	{ NOTE_E4, 180 }, 
	{ NOTE_FS4, 176 }, 
	{ NOTE_GS4, 176 }, 
	{ NOTE_GS4, 176 }, 
	{ NOTE_GS4, 176 }, 
	{ NOTE_GS4, 176 }, 
	{ NOTE_GS4, 176 }, 
	{ NOTE_GS4, 176 }, 
	{ NOTE_GS4, 180 }, 
	{ NOTE_CS4, 176 }, 
	{ NOTE_CS4, 176 }, 
	{ NOTE_CS4, 176 }, 
	{ NOTE_CS4, 176 }, 
	{ NOTE_CS4, 176 }, 
	{ NOTE_CS4, 176 }, 
	{ NOTE_DS4, 176 }, 
	{ NOTE_E4, 180 }, 
	{ NOTE_FS4, 176 }, 
	{ NOTE_GS4, 176 }, 
	{ NOTE_GS4, 176 }, 
	{ NOTE_GS4, 176 }, 
	{ NOTE_GS4, 176 }, 
	{ NOTE_GS4, 176 }, 
	{ NOTE_GS4, 176 }, 
	{ NOTE_GS4, 180 }, 
	{ NOTE_CS4, 176 }, 
	{ NOTE_E4, 176 }, 
	{ NOTE_E4, 176 }, 
	{ NOTE_GS4, 176 }, 
	{ NOTE_FS3, 176 }, 
	{ NOTE_FS4, 176 }, 
	{ NOTE_FS4, 176 }, 
	{ NOTE_A4, 180 }, 
	{ NOTE_GS3, 176 }, 
	{ NOTE_E4, 176 }, 
	{ NOTE_E4, 176 }, 
	{ NOTE_GS4, 176 }, 
	{ NOTE_GS3, 176 }, 
	{ NOTE_DS4, 176 }, 
	{ NOTE_DS4, 176 }, 
	{ NOTE_GS4, 180 }, 
	{ NOTE_CS4, 176 }, 
	{ NOTE_GS4, 176 }, 
	{ NOTE_GS4, 176 }, 
	{ NOTE_GS4, 176 }, 
	{ NOTE_GS4, 176 }, 
	{ NOTE_GS4, 176 }, 
	{ NOTE_GS4, 176 }, 
	{ NOTE_GS4, 180 }, 
	{ NOTE_FS4, 176 }, 
	{ NOTE_FS5, 176 }, 
	{ NOTE_FS5, 176 }, 
	{ NOTE_FS5, 176 }, 
	{ NOTE_FS5, 176 }, 
	{ NOTE_FS5, 176 }, 
	{ NOTE_E5, 176 }, 
	{ NOTE_DS5, 180 }, 
	{ NOTE_CS4, 176 }, 
	{ NOTE_GS4, 176 }, 
	{ NOTE_GS4, 176 }, 
	{ NOTE_GS4, 176 }, 
	{ NOTE_GS4, 176 }, 
	{ NOTE_GS4, 176 }, 
	{ NOTE_GS4, 176 }, 
	{ NOTE_GS4, 180 }, 
	{ NOTE_FS4, 176 }, 
	{ NOTE_FS5, 176 }, 
	{ NOTE_FS5, 176 }, 
	{ NOTE_FS5, 176 }, 
	{ NOTE_FS5, 176 }, 
	{ NOTE_FS5, 176 }, 
	{ NOTE_E5, 176 }, 
	{ NOTE_DS5, 180 }, 
	{ NOTE_CS5, 176 }, 
	{ NOTE_E5, 176 }, 
	{ NOTE_E5, 176 }, 
	{ NOTE_GS5, 176 }, 
	{ NOTE_FS4, 176 }, 
	{ NOTE_FS5, 176 }, 
	{ NOTE_FS5, 176 }, 
	{ NOTE_A5, 180 }, 
	{ NOTE_GS4, 176 }, 
	{ NOTE_E5, 176 }, 
	{ NOTE_E5, 176 }, 
	{ NOTE_GS5, 176 }, 
	{ NOTE_FS4, 176 }, 
	{ NOTE_DS5, 176 }, 
	{ NOTE_DS5, 176 }, 
	{ NOTE_GS5, 180 }, 
	{ NOTE_E4, 176 }, 
	{ NOTE_CS5, 176 }, 
	{ NOTE_CS5, 176 }, 
	{ NOTE_E5, 176 }, 
	{ NOTE_FS3, 176 }, 
	{ NOTE_A4, 176 }, 
	{ NOTE_A4, 176 }, 
	{ NOTE_D5, 180 }, 
	{ NOTE_GS3, 176 }, 
	{ NOTE_GS4, 176 }, 
	{ NOTE_GS4, 176 }, 
	{ NOTE_CS5, 176 }, 
	{ NOTE_GS3, 176 }, 
	{ NOTE_FS4, 176 }, 
	{ NOTE_FS4, 176 }, 
	{ NOTE_C5, 180 }, 
	{ NOTE_CS3, 88 }, 
	{ NOTE_CS4, 88 }, 
	{ NOTE_GS3, 88 }, 
	{ NOTE_CS4, 88 }, 
	{ NOTE_CS3, 88 }, 
	{ NOTE_CS4, 88 }, 
	{ NOTE_GS3, 88 }, 
	{ NOTE_CS4, 88 }, 
	{ NOTE_CS3, 88 }, 
	{ NOTE_CS4, 88 }, 
	{ NOTE_GS3, 88 }, 
	{ NOTE_CS4, 88 }, 
	{ NOTE_CS3, 88 }, 
	{ NOTE_CS4, 88 }, 
	{ NOTE_GS3, 88 }, 
	{ NOTE_CS4, 92 }, 
	{ NOTE_CS3, 88 }, 
	{ NOTE_DS4, 88 }, 
	{ NOTE_GS3, 88 }, 
	{ NOTE_DS4, 88 }, 
	{ NOTE_CS3, 88 }, 
	{ NOTE_DS4, 88 }, 
	{ NOTE_GS3, 88 }, 
	{ NOTE_DS4, 88 }, 
	{ NOTE_CS3, 88 }, 
	{ NOTE_DS4, 88 }, 
	{ NOTE_GS3, 88 }, 
	{ NOTE_DS4, 88 }, 
	{ NOTE_CS3, 88 }, 
	{ NOTE_DS4, 88 }, 
	{ NOTE_GS3, 88 }, 
	{ NOTE_DS4, 92 }, 
	{ NOTE_CS3, 88 }, 
	{ NOTE_CS4, 88 }, 
	{ NOTE_GS3, 88 }, 
	{ NOTE_CS4, 88 }, 
	{ NOTE_CS3, 88 }, 
	{ NOTE_CS4, 88 }, 
	{ NOTE_GS3, 88 }, 
	{ NOTE_CS4, 88 }, 
	{ NOTE_CS3, 88 }, 
	{ NOTE_CS4, 88 }, 
	{ NOTE_GS3, 88 }, 
	{ NOTE_CS4, 88 }, 
	{ NOTE_CS3, 88 }, 
	{ NOTE_CS4, 88 }, 
	{ NOTE_GS3, 88 }, 
	{ NOTE_CS4, 92 }, 
	{ NOTE_CS3, 88 }, 
	{ NOTE_DS4, 88 }, 
	{ NOTE_GS3, 88 }, 
	{ NOTE_DS4, 88 }, 
	{ NOTE_CS3, 88 }, 
	{ NOTE_DS4, 88 }, 
	{ NOTE_GS3, 88 }, 
	{ NOTE_DS4, 88 }, 
	{ NOTE_CS3, 88 }, 
	{ NOTE_DS4, 88 }, 
	{ NOTE_GS3, 88 }, 
	{ NOTE_DS4, 88 }, 
	{ NOTE_CS3, 88 }, 
	{ NOTE_DS4, 88 }, 
	{ NOTE_GS3, 88 }, 
	{ NOTE_DS4, 92 }, 
	{ NOTE_CS3, 88 }, 
	{ NOTE_CS4, 88 }, 
	{ NOTE_GS3, 88 }, 
	{ NOTE_CS4, 88 }, 
	{ NOTE_CS3, 88 }, 
	{ NOTE_CS4, 88 }, 
	{ NOTE_GS3, 88 }, 
	{ NOTE_CS4, 88 }, 
	{ NOTE_CS3, 88 }, 
	{ NOTE_DS4, 88 }, 
	{ NOTE_GS3, 88 }, 
	{ NOTE_DS4, 88 }, 
	{ NOTE_CS3, 88 }, 
	{ NOTE_DS4, 88 }, 
	{ NOTE_GS3, 88 }, 
	{ NOTE_DS4, 92 }, 
	{ NOTE_CS3, 88 }, 
	{ NOTE_CS4, 88 }, 
	{ NOTE_GS3, 88 }, 
	{ NOTE_CS4, 88 }, 
	{ NOTE_CS3, 88 }, 
	{ NOTE_CS4, 88 }, 
	{ NOTE_GS3, 88 }, 
	{ NOTE_CS4, 88 }, 
	{ NOTE_CS3, 88 }, 
	{ NOTE_DS4, 88 }, 
	{ NOTE_GS3, 88 }, 
	{ NOTE_DS4, 88 }, 
	{ NOTE_CS3, 88 }, 
	{ NOTE_DS4, 88 }, 
	{ NOTE_GS3, 88 }, 
	{ NOTE_DS4, 92 }, 
	{ NOTE_CS3, 88 }, 
	{ NOTE_CS4, 88 }, 
	{ NOTE_GS3, 88 }, 
	{ NOTE_CS4, 88 }, 
	{ NOTE_CS3, 88 }, 
	{ NOTE_CS4, 88 }, 
	{ NOTE_GS3, 88 }, 
	{ NOTE_CS4, 88 }, 
	{ NOTE_CS3, 88 }, 
	{ NOTE_CS4, 88 }, 
	{ NOTE_GS3, 88 }, 
	{ NOTE_CS4, 88 }, 
	{ NOTE_CS3, 88 }, 
	{ NOTE_CS4, 88 }, 
	{ NOTE_GS3, 88 }, 
	{ NOTE_CS4, 92 }, 
	{ NOTE_CS4, 88 }, 
	{ NOTE_B3, 88 }, 
	{ NOTE_CS3, 88 }, 
	{ NOTE_B3, 88 }, 
	{ NOTE_CS4, 88 }, 
	{ NOTE_B3, 88 }, 
	{ NOTE_CS3, 88 }, 
	{ NOTE_B3, 88 }, 
	{ NOTE_CS4, 88 }, 
	{ NOTE_B3, 88 }, 
	{ NOTE_CS3, 88 }, 
	{ NOTE_B3, 88 }, 
	{ NOTE_CS4, 88 }, 
	{ NOTE_B3, 88 }, 
	{ NOTE_CS3, 88 }, 
	{ NOTE_B3, 92 }, 
	{ NOTE_A3, 176 }, 
	{ NOTE_FS4, 176 }, 
	{ NOTE_A3, 176 }, 
	{ NOTE_FS4, 176 }, 
	{ NOTE_A3, 176 }, 
	{ NOTE_FS4, 176 }, 
	{ NOTE_A3, 176 }, 
	{ NOTE_FS4, 180 }, 
	{ NOTE_A3, 176 }, 
	{ NOTE_FS4, 176 }, 
	{ NOTE_A3, 176 }, 
	{ NOTE_FS4, 176 }, 
	{ NOTE_A3, 176 }, 
	{ NOTE_FS4, 176 }, 
	{ NOTE_A4, 176 }, 
	{ NOTE_FS4, 180 }, 
	{ NOTE_GS3, 176 }, 
	{ NOTE_E4, 176 }, 
	{ NOTE_GS3, 176 }, 
	{ NOTE_E4, 176 }, 
	{ NOTE_GS3, 176 }, 
	{ NOTE_E4, 176 }, 
	{ NOTE_GS3, 176 }, 
	{ NOTE_E4, 180 }, 
	{ NOTE_GS3, 176 }, 
	{ NOTE_E4, 176 }, 
	{ NOTE_GS3, 176 }, 
	{ NOTE_E4, 176 }, 
	{ NOTE_GS3, 176 }, 
	{ NOTE_E4, 176 }, 
	{ NOTE_GS4, 176 }, 
	{ NOTE_E4, 180 }, 
	{ NOTE_G3, 529 }, 
	{ NOTE_G3, 44 }, 
	{ NOTE_AS3, 44 }, 
	{ NOTE_CS4, 44 }, 
	{ NOTE_E4, 44 }, 
	{ NOTE_AS3, 529 }, 
	{ NOTE_G4, 44 }, 
	{ NOTE_AS4, 44 }, 
	{ NOTE_CS5, 44 }, 
	{ NOTE_E5, 46 }, 
	{ NOTE_AS4, 353 }, 
	{ NOTE_REST, 1059 }, 
	{ NOTE_FS3, 529 }, 
	{ NOTE_FS3, 44 }, 
	{ NOTE_A3, 44 }, 
	{ NOTE_C4, 44 }, 
	{ NOTE_DS4, 44 }, 
	{ NOTE_A3, 529 }, 
	{ NOTE_FS4, 44 }, 
	{ NOTE_A4, 44 }, 
	{ NOTE_C5, 44 }, 
	{ NOTE_DS5, 46 }, 
	{ NOTE_FS5, 353 }, 
	{ NOTE_REST, 1059 }, 
	{ NOTE_CS4, 353 }, 
	{ NOTE_GS4, 706 }, 
	{ NOTE_E4, 265 }, 
	{ NOTE_CS4, 88 }, 
	{ NOTE_CS4, 353 }, 
	{ NOTE_C4, 529 }, 
	{ NOTE_C4, 176 }, 
	{ NOTE_GS4, 265 }, 
	{ NOTE_C4, 89 }, 
	{ NOTE_DS4, 353 }, 
	{ NOTE_CS4, 529 }, 
	{ NOTE_CS4, 176 }, 
	{ NOTE_GS4, 265 }, 
	{ NOTE_CS4, 89 }, 
	{ NOTE_E4, 353 }, 
	{ NOTE_DS4, 529 }, 
	{ NOTE_DS4, 176 }, 
	{ NOTE_GS4, 265 }, 
	{ NOTE_DS4, 89 }, 
	{ NOTE_E4, 88 }, 
	{ NOTE_GS4, 88 }, 
	{ NOTE_E4, 88 }, 
	{ NOTE_GS4, 88 }, 
	{ NOTE_E4, 88 }, 
	{ NOTE_GS4, 88 }, 
	{ NOTE_E4, 88 }, 
	{ NOTE_GS4, 88 }, 
	{ NOTE_E4, 88 }, 
	{ NOTE_GS4, 88 }, 
	{ NOTE_E4, 88 }, 
	{ NOTE_GS4, 88 }, 
	{ NOTE_E4, 88 }, 
	{ NOTE_GS4, 88 }, 
	{ NOTE_E4, 88 }, 
	{ NOTE_GS4, 92 }, 
	{ NOTE_FS4, 88 }, 
	{ NOTE_GS4, 88 }, 
	{ NOTE_FS4, 88 }, 
	{ NOTE_GS4, 88 }, 
	{ NOTE_FS4, 88 }, 
	{ NOTE_GS4, 88 }, 
	{ NOTE_FS4, 88 }, 
	{ NOTE_GS4, 88 }, 
	{ NOTE_FS4, 88 }, 
	{ NOTE_GS4, 88 }, 
	{ NOTE_FS4, 88 }, 
	{ NOTE_GS4, 88 }, 
	{ NOTE_FS4, 88 }, 
	{ NOTE_GS4, 88 }, 
	{ NOTE_FS4, 88 }, 
	{ NOTE_GS4, 92 }, 
	{ NOTE_E4, 88 }, 
	{ NOTE_GS4, 88 }, 
	{ NOTE_E4, 88 }, 
	{ NOTE_GS4, 88 }, 
	{ NOTE_E4, 88 }, 
	{ NOTE_GS4, 88 }, 
	{ NOTE_E4, 88 }, 
	{ NOTE_GS4, 88 }, 
	{ NOTE_E4, 88 }, 
	{ NOTE_GS4, 88 }, 
	{ NOTE_E4, 88 }, 
	{ NOTE_GS4, 88 }, 
	{ NOTE_E4, 88 }, 
	{ NOTE_GS4, 88 }, 
	{ NOTE_E4, 88 }, 
	{ NOTE_GS4, 92 }, 
	{ NOTE_C4, 88 }, 
	{ NOTE_GS4, 88 }, 
	{ NOTE_C4, 88 }, 
	{ NOTE_GS4, 88 }, 
	{ NOTE_C4, 88 }, 
	{ NOTE_GS4, 88 }, 
	{ NOTE_C4, 88 }, 
	{ NOTE_GS4, 88 }, 
	{ NOTE_C4, 88 }, 
	{ NOTE_GS4, 88 }, 
	{ NOTE_C4, 88 }, 
	{ NOTE_GS4, 88 }, 
	{ NOTE_C4, 88 }, 
	{ NOTE_GS4, 88 }, 
	{ NOTE_C4, 88 }, 
	{ NOTE_GS4, 92 }, 
	{ NOTE_CS4, 88 }, 
	{ NOTE_GS4, 88 }, 
	{ NOTE_CS4, 88 }, 
	{ NOTE_GS4, 88 }, 
	{ NOTE_CS4, 88 }, 
	{ NOTE_GS4, 88 }, 
	{ NOTE_CS4, 88 }, 
	{ NOTE_GS4, 88 }, 
	{ NOTE_B3, 88 }, 
	{ NOTE_CS4, 88 }, 
	{ NOTE_B3, 88 }, 
	{ NOTE_CS4, 88 }, 
	{ NOTE_B3, 88 }, 
	{ NOTE_CS4, 88 }, 
	{ NOTE_B3, 88 }, 
	{ NOTE_CS4, 92 }, 
	{ NOTE_A3, 88 }, 
	{ NOTE_CS4, 88 }, 
	{ NOTE_A3, 88 }, 
	{ NOTE_CS4, 88 }, 
	{ NOTE_A3, 88 }, 
	{ NOTE_CS4, 88 }, 
	{ NOTE_A3, 88 }, 
	{ NOTE_CS4, 88 }, 
	{ NOTE_F3, 88 }, 
	{ NOTE_CS4, 88 }, 
	{ NOTE_F3, 88 }, 
	{ NOTE_CS4, 88 }, 
	{ NOTE_F3, 88 }, 
	{ NOTE_CS4, 88 }, 
	{ NOTE_F3, 88 }, 
	{ NOTE_CS4, 92 }, 
	{ NOTE_CS4, 2824 }, 
	{ NOTE_D4, 2824 }, 
	{ NOTE_CS4, 2824 }, 
	{ NOTE_CS4, 2824 }, 
	{ NOTE_GS3, 88 }, 
	{ NOTE_A3, 88 }, 
	{ NOTE_AS3, 88 }, 
	{ NOTE_B3, 88 }, 
	{ NOTE_C4, 88 }, 
	{ NOTE_CS4, 88 }, 
	{ NOTE_D4, 88 }, 
	{ NOTE_DS4, 88 }, 
	{ NOTE_E4, 88 }, 
	{ NOTE_F4, 88 }, 
	{ NOTE_FS4, 88 }, 
	{ NOTE_G4, 88 }, 
	{ NOTE_GS4, 88 }, 
	{ NOTE_A4, 88 }, 
	{ NOTE_AS4, 88 }, 
	{ NOTE_B4, 92 }, 
	{ NOTE_C5, 88 }, 
	{ NOTE_CS5, 88 }, 
	{ NOTE_D5, 88 }, 
	{ NOTE_DS5, 88 }, 
	{ NOTE_E5, 71 }, 
	{ NOTE_F5, 71 }, 
	{ NOTE_FS5, 71 }, 
	{ NOTE_G5, 71 }, 
	{ NOTE_GS5, 71 }, 
	{ NOTE_REST, 705 }, 
	{ NOTE_REST, 1412 }, 
	{ NOTE_REST, 1412 }, 
	{ NOTE_REST, 1412 }, 
	{ NOTE_REST, 1412 }, 
	{ NOTE_REST, 1412 }, 
	{ NOTE_REST, 1412 }, 
	{ NOTE_G4, 1412 }, 
	{ NOTE_GS4, 1412 }, 
	{ NOTE_CS3, 88 }, 
	{ NOTE_CS4, 88 }, 
	{ NOTE_GS3, 88 }, 
	{ NOTE_CS4, 88 }, 
	{ NOTE_CS3, 88 }, 
	{ NOTE_CS4, 88 }, 
	{ NOTE_GS3, 88 }, 
	{ NOTE_CS4, 88 }, 
	{ NOTE_CS3, 88 }, 
	{ NOTE_CS4, 88 }, 
	{ NOTE_GS3, 88 }, 
	{ NOTE_CS4, 88 }, 
	{ NOTE_CS3, 88 }, 
	{ NOTE_CS4, 88 }, 
	{ NOTE_GS3, 88 }, 
	{ NOTE_CS4, 92 }, 
	{ NOTE_CS3, 88 }, 
	{ NOTE_DS4, 88 }, 
	{ NOTE_GS3, 88 }, 
	{ NOTE_DS4, 88 }, 
	{ NOTE_CS3, 88 }, 
	{ NOTE_DS4, 88 }, 
	{ NOTE_GS3, 88 }, 
	{ NOTE_DS4, 88 }, 
	{ NOTE_CS3, 88 }, 
	{ NOTE_DS4, 88 }, 
	{ NOTE_GS3, 88 }, 
	{ NOTE_DS4, 88 }, 
	{ NOTE_CS3, 88 }, 
	{ NOTE_DS4, 88 }, 
	{ NOTE_GS3, 88 }, 
	{ NOTE_DS4, 92 }, 
	{ NOTE_CS3, 88 }, 
	{ NOTE_CS4, 88 }, 
	{ NOTE_GS3, 88 }, 
	{ NOTE_CS4, 88 }, 
	{ NOTE_CS3, 88 }, 
	{ NOTE_CS4, 88 }, 
	{ NOTE_GS3, 88 }, 
	{ NOTE_CS4, 88 }, 
	{ NOTE_CS3, 88 }, 
	{ NOTE_CS4, 88 }, 
	{ NOTE_GS3, 88 }, 
	{ NOTE_CS4, 88 }, 
	{ NOTE_CS3, 88 }, 
	{ NOTE_CS4, 88 }, 
	{ NOTE_GS3, 88 }, 
	{ NOTE_CS4, 92 }, 
	{ NOTE_CS3, 88 }, 
	{ NOTE_DS4, 88 }, 
	{ NOTE_GS3, 88 }, 
	{ NOTE_DS4, 88 }, 
	{ NOTE_CS3, 88 }, 
	{ NOTE_DS4, 88 }, 
	{ NOTE_GS3, 88 }, 
	{ NOTE_DS4, 88 }, 
	{ NOTE_CS3, 88 }, 
	{ NOTE_DS4, 88 }, 
	{ NOTE_GS3, 88 }, 
	{ NOTE_DS4, 88 }, 
	{ NOTE_CS3, 88 }, 
	{ NOTE_DS4, 88 }, 
	{ NOTE_GS3, 88 }, 
	{ NOTE_DS4, 92 }, 
	{ NOTE_CS3, 88 }, 
	{ NOTE_CS4, 88 }, 
	{ NOTE_GS3, 88 }, 
	{ NOTE_CS4, 88 }, 
	{ NOTE_CS3, 88 }, 
	{ NOTE_CS4, 88 }, 
	{ NOTE_GS3, 88 }, 
	{ NOTE_CS4, 88 }, 
	{ NOTE_CS3, 88 }, 
	{ NOTE_DS4, 88 }, 
	{ NOTE_GS3, 88 }, 
	{ NOTE_DS4, 88 }, 
	{ NOTE_CS3, 88 }, 
	{ NOTE_DS4, 88 }, 
	{ NOTE_GS3, 88 }, 
	{ NOTE_DS4, 92 }, 
	{ NOTE_CS3, 88 }, 
	{ NOTE_CS4, 88 }, 
	{ NOTE_GS3, 88 }, 
	{ NOTE_CS4, 88 }, 
	{ NOTE_CS3, 88 }, 
	{ NOTE_CS4, 88 }, 
	{ NOTE_GS3, 88 }, 
	{ NOTE_CS4, 88 }, 
	{ NOTE_CS3, 88 }, 
	{ NOTE_DS4, 88 }, 
	{ NOTE_GS3, 88 }, 
	{ NOTE_DS4, 88 }, 
	{ NOTE_CS3, 88 }, 
	{ NOTE_DS4, 88 }, 
	{ NOTE_GS3, 88 }, 
	{ NOTE_DS4, 92 }, 
	{ NOTE_GS3, 88 }, 
	{ NOTE_E4, 88 }, 
	{ NOTE_GS4, 88 }, 
	{ NOTE_CS5, 88 }, 
	{ NOTE_E5, 88 }, 
	{ NOTE_GS4, 88 }, 
	{ NOTE_CS5, 88 }, 
	{ NOTE_E5, 88 }, 
	{ NOTE_GS5, 88 }, 
	{ NOTE_CS5, 88 }, 
	{ NOTE_E5, 88 }, 
	{ NOTE_GS5, 88 }, 
	{ NOTE_CS6, 88 }, 
	{ NOTE_E5, 88 }, 
	{ NOTE_GS5, 88 }, 
	{ NOTE_CS6, 92 }, 
	{ NOTE_REST, 88 }, 
	{ NOTE_CS6, 88 }, 
	{ NOTE_GS5, 88 }, 
	{ NOTE_E5, 88 }, 
	{ NOTE_CS6, 88 }, 
	{ NOTE_GS5, 88 }, 
	{ NOTE_E5, 88 }, 
	{ NOTE_CS5, 88 }, 
	{ NOTE_GS5, 88 }, 
	{ NOTE_E5, 88 }, 
	{ NOTE_CS5, 88 }, 
	{ NOTE_GS4, 88 }, 
	{ NOTE_E5, 88 }, 
	{ NOTE_CS5, 88 }, 
	{ NOTE_GS4, 88 }, 
	{ NOTE_E4, 92 }, 
	{ NOTE_CS5, 88 }, 
	{ NOTE_GS4, 88 }, 
	{ NOTE_E4, 88 }, 
	{ NOTE_CS4, 88 }, 
	{ NOTE_GS4, 88 }, 
	{ NOTE_E4, 88 }, 
	{ NOTE_CS4, 88 }, 
	{ NOTE_GS3, 88 }, 
	{ NOTE_E4, 88 }, 
	{ NOTE_CS4, 88 }, 
	{ NOTE_GS3, 88 }, 
	{ NOTE_E3, 88 }, 
	{ NOTE_CS4, 88 }, 
	{ NOTE_GS3, 88 }, 
	{ NOTE_E3, 88 }, 
	{ NOTE_GS3, 92 }, 
	{ NOTE_CS4, 353 }, 
	{ NOTE_REST, 353 }, 
	{ NOTE_GS3, 353 }, 
	{ NOTE_REST, 353 }, 
	{ NOTE_GS3, 353 }, 
	{ NOTE_REST, 353 }, 
	{ NOTE_REST, 706 }, 
	{ NOTE_REST, 1412 }, 
};
const uint16_t NUM_OF_NOTES4 = sizeof(melody4)/sizeof(melody4[0]);

