/*
 * Song: Hungarian Dance No. 5 in G Minor by Brahms
 *
 *	Melody 0 | Piano Right Hand
 *	Melody 1 | Piano Right Hand
 *	Melody 2 | Piano Right Hand
 *	Melody 3 | Piano Left Hand
 *	Melody 4 | Piano Left Hand
*/

#include <Arduino.h>
#include "notes.h"

const Note melody0[] PROGMEM = {
	{ NOTE_D4, 692 }, 
	{ NOTE_G4, 231 }, 
	{ NOTE_BB4, 692 }, 
	{ NOTE_G4, 231 }, 
	{ NOTE_FS4, 692 }, 
	{ NOTE_G4, 115 }, 
	{ NOTE_A4, 116 }, 
	{ NOTE_G4, 923 }, 
	{ NOTE_EB4, 692 }, 
	{ NOTE_F4, 115 }, 
	{ NOTE_G4, 116 }, 
	{ NOTE_D4, 923 }, 
	{ NOTE_C4, 115 }, 
	{ NOTE_BB3, 115 }, 
	{ NOTE_BB3, 115 }, 
	{ NOTE_A3, 115 }, 
	{ NOTE_A3, 346 }, 
	{ NOTE_D4, 117 }, 
	{ NOTE_G3, 923 }, 
	{ NOTE_D4, 692 }, 
	{ NOTE_G4, 115 }, 
	{ NOTE_BB4, 116 }, 
	{ NOTE_D5, 692 }, 
	{ NOTE_BB4, 231 }, 
	{ NOTE_EB4, 692 }, 
	{ NOTE_BB4, 115 }, 
	{ NOTE_C5, 116 }, 
	{ NOTE_D4, 923 }, 
	{ NOTE_EB5, 115 }, 
	{ NOTE_F5, 115 }, 
	{ NOTE_G5, 115 }, 
	{ NOTE_EB5, 115 }, 
	{ NOTE_D5, 115 }, 
	{ NOTE_EB5, 115 }, 
	{ NOTE_F5, 115 }, 
	{ NOTE_D5, 118 }, 
	{ NOTE_C5, 115 }, 
	{ NOTE_D5, 115 }, 
	{ NOTE_EB5, 115 }, 
	{ NOTE_C5, 115 }, 
	{ NOTE_BB4, 115 }, 
	{ NOTE_C5, 115 }, 
	{ NOTE_D5, 115 }, 
	{ NOTE_BB4, 118 }, 
	{ NOTE_C5, 115 }, 
	{ NOTE_BB4, 115 }, 
	{ NOTE_BB4, 115 }, 
	{ NOTE_A4, 115 }, 
	{ NOTE_A4, 346 }, 
	{ NOTE_D5, 117 }, 
	{ NOTE_G4, 462 }, 
	{ NOTE_G4, 231 }, 
	{ NOTE_REST, 230 }, 
	{ NOTE_BB4, 692 }, 
	{ NOTE_BB4, 231 }, 
	{ NOTE_D5, 692 }, 
	{ NOTE_D5, 231 }, 
	{ NOTE_C5, 692 }, 
	{ NOTE_G5, 115 }, 
	{ NOTE_A5, 116 }, 
	{ NOTE_BB4, 923 }, 
	{ NOTE_C5, 692 }, 
	{ NOTE_D5, 115 }, 
	{ NOTE_EB5, 116 }, 
	{ NOTE_BB4, 923 }, 
	{ NOTE_C5, 115 }, 
	{ NOTE_BB4, 115 }, 
	{ NOTE_BB4, 115 }, 
	{ NOTE_A4, 115 }, 
	{ NOTE_A4, 346 }, 
	{ NOTE_D5, 117 }, 
	{ NOTE_G4, 923 }, 
	{ NOTE_D4, 346 }, 
	{ NOTE_G4, 115 }, 
	{ NOTE_BB4, 115 }, 
	{ NOTE_D5, 115 }, 
	{ NOTE_G5, 115 }, 
	{ NOTE_BB5, 117 }, 
	{ NOTE_D6, 692 }, 
	{ NOTE_BB5, 231 }, 
	{ NOTE_C5, 692 }, 
	{ NOTE_BB5, 115 }, 
	{ NOTE_C6, 116 }, 
	{ NOTE_BB4, 923 }, 
	{ NOTE_EB6, 115 }, 
	{ NOTE_F6, 115 }, 
	{ NOTE_G6, 115 }, 
	{ NOTE_EB6, 115 }, 
	{ NOTE_D6, 115 }, 
	{ NOTE_EB6, 115 }, 
	{ NOTE_F6, 115 }, 
	{ NOTE_D6, 118 }, 
	{ NOTE_C6, 115 }, 
	{ NOTE_D6, 115 }, 
	{ NOTE_EB6, 115 }, 
	{ NOTE_C6, 115 }, 
	{ NOTE_BB5, 115 }, 
	{ NOTE_C6, 115 }, 
	{ NOTE_D6, 115 }, 
	{ NOTE_BB5, 118 }, 
	{ NOTE_C6, 115 }, 
	{ NOTE_BB5, 115 }, 
	{ NOTE_BB5, 115 }, 
	{ NOTE_A5, 115 }, 
	{ NOTE_A5, 346 }, 
	{ NOTE_D6, 117 }, 
	{ NOTE_G4, 462 }, 
	{ NOTE_G5, 231 }, 
	{ NOTE_REST, 230 }, 
	{ NOTE_F5, 462 }, 
	{ NOTE_F5, 461 }, 
	{ NOTE_G5, 692 }, 
	{ NOTE_F5, 231 }, 
	{ NOTE_REST, 231 }, 
	{ NOTE_EB5, 462 }, 
	{ NOTE_B5, 115 }, 
	{ NOTE_C6, 115 }, 
	{ NOTE_D6, 115 }, 
	{ NOTE_C6, 115 }, 
	{ NOTE_B5, 115 }, 
	{ NOTE_D6, 115 }, 
	{ NOTE_C6, 463 }, 
	{ NOTE_EB5, 462 }, 
	{ NOTE_EB5, 461 }, 
	{ NOTE_F5, 692 }, 
	{ NOTE_EB5, 231 }, 
	{ NOTE_REST, 231 }, 
	{ NOTE_D5, 462 }, 
	{ NOTE_D5, 230 }, 
	{ NOTE_D5, 231 }, 
	{ NOTE_REST, 231 }, 
	{ NOTE_D5, 231 }, 
	{ NOTE_REST, 230 }, 
	{ NOTE_C5, 750 }, 
	{ NOTE_C5, 750 }, 
	{ NOTE_EB5, 375 }, 
	{ NOTE_D5, 750 }, 
	{ NOTE_C5, 375 }, 
	{ NOTE_C5, 500 }, 
	{ NOTE_BB4, 1000 }, 
	{ NOTE_A4, 250 }, 
	{ NOTE_BB4, 250 }, 
	{ NOTE_C5, 750 }, 
	{ NOTE_BB4, 750 }, 
	{ NOTE_A4, 750 }, 
	{ NOTE_C5, 750 }, 
	{ NOTE_BB4, 1500 }, 
	{ NOTE_REST, 1500 }, 
	{ NOTE_D5, 231 }, 
	{ NOTE_REST, 231 }, 
	{ NOTE_REST, 346 }, 
	{ NOTE_D4, 115 }, 
	{ NOTE_E4, 231 }, 
	{ NOTE_REST, 231 }, 
	{ NOTE_FS4, 231 }, 
	{ NOTE_REST, 230 }, 
	{ NOTE_A5, 0 }, 
	{ NOTE_G5, 231 }, 
	{ NOTE_BB4, 462 }, 
	{ NOTE_FS5, 115 }, 
	{ NOTE_G5, 115 }, 
	{ NOTE_C5, 92 }, 
	{ NOTE_G5, 92 }, 
	{ NOTE_FS5, 92 }, 
	{ NOTE_G5, 92 }, 
	{ NOTE_A5, 92 }, 
	{ NOTE_BB4, 231 }, 
	{ NOTE_REST, 232 }, 
	{ NOTE_D5, 214 }, 
	{ NOTE_B4, 214 }, 
	{ NOTE_B4, 214 }, 
	{ NOTE_B4, 215 }, 
	{ NOTE_B4, 214 }, 
	{ NOTE_A4, 214 }, 
	{ NOTE_G4, 214 }, 
	{ NOTE_A4, 215 }, 
	{ NOTE_G4, 214 }, 
	{ NOTE_G4, 214 }, 
	{ NOTE_G4, 214 }, 
	{ NOTE_G4, 215 }, 
	{ NOTE_D5, 214 }, 
	{ NOTE_B4, 214 }, 
	{ NOTE_B4, 214 }, 
	{ NOTE_B4, 215 }, 
	{ NOTE_B4, 214 }, 
	{ NOTE_A4, 214 }, 
	{ NOTE_G4, 214 }, 
	{ NOTE_FS4, 215 }, 
	{ NOTE_B3, 214 }, 
	{ NOTE_B3, 214 }, 
	{ NOTE_B3, 214 }, 
	{ NOTE_B3, 215 }, 
	{ NOTE_D5, 214 }, 
	{ NOTE_B4, 214 }, 
	{ NOTE_B4, 214 }, 
	{ NOTE_B4, 215 }, 
	{ NOTE_B4, 214 }, 
	{ NOTE_A4, 214 }, 
	{ NOTE_G4, 214 }, 
	{ NOTE_A4, 215 }, 
	{ NOTE_G4, 214 }, 
	{ NOTE_G4, 214 }, 
	{ NOTE_G4, 214 }, 
	{ NOTE_G4, 215 }, 
	{ NOTE_D5, 214 }, 
	{ NOTE_B4, 214 }, 
	{ NOTE_B4, 214 }, 
	{ NOTE_B4, 215 }, 
	{ NOTE_B4, 214 }, 
	{ NOTE_A4, 214 }, 
	{ NOTE_G4, 214 }, 
	{ NOTE_FS4, 215 }, 
	{ NOTE_B3, 750 }, 
	{ NOTE_B3, 750 }, 
	{ NOTE_B3, 750 }, 
	{ NOTE_B3, 750 }, 
	{ NOTE_B4, 1000 }, 
	{ NOTE_C5, 1000 }, 
	{ NOTE_B4, 3000 }, 
	{ NOTE_A4, 3000 }, 
	{ NOTE_B4, 214 }, 
	{ NOTE_B4, 214 }, 
	{ NOTE_C5, 214 }, 
	{ NOTE_C5, 215 }, 
	{ NOTE_D5, 214 }, 
	{ NOTE_G5, 214 }, 
	{ NOTE_D5, 429 }, 
	{ NOTE_B4, 1000 }, 
	{ NOTE_C5, 1000 }, 
	{ NOTE_D5, 3000 }, 
	{ NOTE_D5, 3000 }, 
	{ NOTE_D5, 214 }, 
	{ NOTE_C5, 214 }, 
	{ NOTE_B4, 214 }, 
	{ NOTE_A4, 215 }, 
	{ NOTE_G4, 750 }, 
	{ NOTE_G5, 750 }, 
	{ NOTE_REST, 1500 }, 
	{ NOTE_D4, 692 }, 
	{ NOTE_G4, 231 }, 
	{ NOTE_BB4, 692 }, 
	{ NOTE_G4, 231 }, 
	{ NOTE_FS4, 692 }, 
	{ NOTE_G4, 115 }, 
	{ NOTE_A4, 116 }, 
	{ NOTE_G4, 923 }, 
	{ NOTE_EB4, 692 }, 
	{ NOTE_F4, 115 }, 
	{ NOTE_G4, 116 }, 
	{ NOTE_D4, 923 }, 
	{ NOTE_C4, 115 }, 
	{ NOTE_BB3, 115 }, 
	{ NOTE_BB3, 115 }, 
	{ NOTE_A3, 115 }, 
	{ NOTE_A3, 346 }, 
	{ NOTE_D4, 117 }, 
	{ NOTE_G3, 923 }, 
	{ NOTE_D4, 346 }, 
	{ NOTE_G4, 115 }, 
	{ NOTE_BB4, 115 }, 
	{ NOTE_D5, 115 }, 
	{ NOTE_G5, 115 }, 
	{ NOTE_BB5, 117 }, 
	{ NOTE_D6, 692 }, 
	{ NOTE_BB5, 231 }, 
	{ NOTE_C5, 692 }, 
	{ NOTE_BB5, 115 }, 
	{ NOTE_C6, 116 }, 
	{ NOTE_BB4, 923 }, 
	{ NOTE_EB6, 115 }, 
	{ NOTE_F6, 115 }, 
	{ NOTE_G6, 115 }, 
	{ NOTE_EB6, 115 }, 
	{ NOTE_D6, 115 }, 
	{ NOTE_EB6, 115 }, 
	{ NOTE_F6, 115 }, 
	{ NOTE_D6, 118 }, 
	{ NOTE_C6, 115 }, 
	{ NOTE_D6, 115 }, 
	{ NOTE_EB6, 115 }, 
	{ NOTE_C6, 115 }, 
	{ NOTE_BB5, 115 }, 
	{ NOTE_C6, 115 }, 
	{ NOTE_D6, 115 }, 
	{ NOTE_BB5, 118 }, 
	{ NOTE_C6, 115 }, 
	{ NOTE_BB5, 115 }, 
	{ NOTE_BB5, 115 }, 
	{ NOTE_A5, 115 }, 
	{ NOTE_A5, 346 }, 
	{ NOTE_D6, 117 }, 
	{ NOTE_G4, 462 }, 
	{ NOTE_G5, 231 }, 
	{ NOTE_REST, 230 }, 
	{ NOTE_F5, 462 }, 
	{ NOTE_F5, 461 }, 
	{ NOTE_G5, 692 }, 
	{ NOTE_F5, 231 }, 
	{ NOTE_REST, 231 }, 
	{ NOTE_EB5, 462 }, 
	{ NOTE_B5, 115 }, 
	{ NOTE_C6, 115 }, 
	{ NOTE_D6, 115 }, 
	{ NOTE_C6, 115 }, 
	{ NOTE_B5, 115 }, 
	{ NOTE_D6, 115 }, 
	{ NOTE_C6, 463 }, 
	{ NOTE_EB5, 462 }, 
	{ NOTE_EB5, 461 }, 
	{ NOTE_F5, 692 }, 
	{ NOTE_EB5, 231 }, 
	{ NOTE_REST, 231 }, 
	{ NOTE_D5, 462 }, 
	{ NOTE_D5, 230 }, 
	{ NOTE_D5, 231 }, 
	{ NOTE_REST, 231 }, 
	{ NOTE_D5, 231 }, 
	{ NOTE_REST, 230 }, 
	{ NOTE_C5, 667 }, 
	{ NOTE_C5, 666 }, 
	{ NOTE_EB5, 429 }, 
	{ NOTE_D5, 857 }, 
	{ NOTE_C5, 428 }, 
	{ NOTE_C5, 500 }, 
	{ NOTE_BB4, 1000 }, 
	{ NOTE_A4, 250 }, 
	{ NOTE_BB4, 250 }, 
	{ NOTE_C5, 750 }, 
	{ NOTE_BB4, 750 }, 
	{ NOTE_A4, 750 }, 
	{ NOTE_C5, 750 }, 
	{ NOTE_BB4, 1500 }, 
	{ NOTE_REST, 1500 }, 
	{ NOTE_D5, 231 }, 
	{ NOTE_REST, 231 }, 
	{ NOTE_REST, 346 }, 
	{ NOTE_D4, 115 }, 
	{ NOTE_E4, 231 }, 
	{ NOTE_REST, 231 }, 
	{ NOTE_FS4, 231 }, 
	{ NOTE_REST, 230 }, 
	{ NOTE_A5, 0 }, 
	{ NOTE_G5, 231 }, 
	{ NOTE_BB4, 462 }, 
	{ NOTE_FS5, 115 }, 
	{ NOTE_G5, 115 }, 
	{ NOTE_C5, 92 }, 
	{ NOTE_G5, 92 }, 
	{ NOTE_FS5, 92 }, 
	{ NOTE_G5, 92 }, 
	{ NOTE_A5, 92 }, 
	{ NOTE_BB4, 231 }, 
	{ NOTE_REST, 232 }, 
	{ NOTE_G5, 231 }, 
	{ NOTE_REST, 231 }, 
	{ NOTE_D5, 231 }, 
	{ NOTE_REST, 230 }, 
	{ NOTE_G4, 923 }, 
};
const uint16_t NUM_OF_NOTES0 = sizeof(melody0)/sizeof(melody0[0]);

const Note melody1[] PROGMEM = {
	{ NOTE_D4, 692 }, 
	{ NOTE_G4, 231 }, 
	{ NOTE_BB4, 692 }, 
	{ NOTE_G4, 231 }, 
	{ NOTE_FS4, 692 }, 
	{ NOTE_G4, 115 }, 
	{ NOTE_A4, 116 }, 
	{ NOTE_G4, 923 }, 
	{ NOTE_EB4, 692 }, 
	{ NOTE_F4, 115 }, 
	{ NOTE_G4, 116 }, 
	{ NOTE_D4, 923 }, 
	{ NOTE_C4, 115 }, 
	{ NOTE_BB3, 115 }, 
	{ NOTE_BB3, 115 }, 
	{ NOTE_A3, 115 }, 
	{ NOTE_A3, 346 }, 
	{ NOTE_D4, 117 }, 
	{ NOTE_G3, 923 }, 
	{ NOTE_D4, 692 }, 
	{ NOTE_G4, 115 }, 
	{ NOTE_BB4, 116 }, 
	{ NOTE_D5, 692 }, 
	{ NOTE_BB4, 231 }, 
	{ NOTE_A4, 692 }, 
	{ NOTE_BB4, 115 }, 
	{ NOTE_C5, 116 }, 
	{ NOTE_BB4, 923 }, 
	{ NOTE_EB5, 115 }, 
	{ NOTE_F5, 115 }, 
	{ NOTE_G5, 115 }, 
	{ NOTE_EB5, 115 }, 
	{ NOTE_D5, 115 }, 
	{ NOTE_EB5, 115 }, 
	{ NOTE_F5, 115 }, 
	{ NOTE_D5, 118 }, 
	{ NOTE_C5, 115 }, 
	{ NOTE_D5, 115 }, 
	{ NOTE_EB5, 115 }, 
	{ NOTE_C5, 115 }, 
	{ NOTE_BB4, 115 }, 
	{ NOTE_C5, 115 }, 
	{ NOTE_D5, 115 }, 
	{ NOTE_BB4, 118 }, 
	{ NOTE_C5, 115 }, 
	{ NOTE_BB4, 115 }, 
	{ NOTE_BB4, 115 }, 
	{ NOTE_A4, 115 }, 
	{ NOTE_A4, 346 }, 
	{ NOTE_D5, 117 }, 
	{ NOTE_G4, 462 }, 
	{ NOTE_BB4, 231 }, 
	{ NOTE_REST, 230 }, 
	{ NOTE_D5, 692 }, 
	{ NOTE_G5, 231 }, 
	{ NOTE_BB5, 692 }, 
	{ NOTE_G5, 231 }, 
	{ NOTE_EB5, 692 }, 
	{ NOTE_G5, 115 }, 
	{ NOTE_A5, 116 }, 
	{ NOTE_D5, 923 }, 
	{ NOTE_EB5, 692 }, 
	{ NOTE_F5, 115 }, 
	{ NOTE_G5, 116 }, 
	{ NOTE_D5, 923 }, 
	{ NOTE_C5, 115 }, 
	{ NOTE_BB4, 115 }, 
	{ NOTE_BB4, 115 }, 
	{ NOTE_A4, 115 }, 
	{ NOTE_A4, 346 }, 
	{ NOTE_D5, 117 }, 
	{ NOTE_G4, 923 }, 
	{ NOTE_D4, 346 }, 
	{ NOTE_G4, 115 }, 
	{ NOTE_BB4, 115 }, 
	{ NOTE_D5, 115 }, 
	{ NOTE_G5, 115 }, 
	{ NOTE_BB5, 117 }, 
	{ NOTE_D6, 692 }, 
	{ NOTE_BB5, 231 }, 
	{ NOTE_EB5, 692 }, 
	{ NOTE_BB5, 115 }, 
	{ NOTE_C6, 116 }, 
	{ NOTE_D5, 923 }, 
	{ NOTE_EB6, 115 }, 
	{ NOTE_F6, 115 }, 
	{ NOTE_G6, 115 }, 
	{ NOTE_EB6, 115 }, 
	{ NOTE_D6, 115 }, 
	{ NOTE_EB6, 115 }, 
	{ NOTE_F6, 115 }, 
	{ NOTE_D6, 118 }, 
	{ NOTE_C6, 115 }, 
	{ NOTE_D6, 115 }, 
	{ NOTE_EB6, 115 }, 
	{ NOTE_C6, 115 }, 
	{ NOTE_BB5, 115 }, 
	{ NOTE_C6, 115 }, 
	{ NOTE_D6, 115 }, 
	{ NOTE_BB5, 118 }, 
	{ NOTE_C6, 115 }, 
	{ NOTE_BB5, 115 }, 
	{ NOTE_BB5, 115 }, 
	{ NOTE_A5, 115 }, 
	{ NOTE_A5, 346 }, 
	{ NOTE_D6, 117 }, 
	{ NOTE_G5, 462 }, 
	{ NOTE_BB5, 231 }, 
	{ NOTE_REST, 230 }, 
	{ NOTE_D6, 462 }, 
	{ NOTE_D6, 461 }, 
	{ NOTE_EB6, 692 }, 
	{ NOTE_D6, 231 }, 
	{ NOTE_REST, 231 }, 
	{ NOTE_C6, 462 }, 
	{ NOTE_B5, 115 }, 
	{ NOTE_C6, 115 }, 
	{ NOTE_D6, 115 }, 
	{ NOTE_C6, 115 }, 
	{ NOTE_B5, 115 }, 
	{ NOTE_D6, 115 }, 
	{ NOTE_C6, 463 }, 
	{ NOTE_C6, 462 }, 
	{ NOTE_C6, 461 }, 
	{ NOTE_D6, 692 }, 
	{ NOTE_C6, 231 }, 
	{ NOTE_REST, 231 }, 
	{ NOTE_BB5, 462 }, 
	{ NOTE_D5, 230 }, 
	{ NOTE_D5, 231 }, 
	{ NOTE_REST, 231 }, 
	{ NOTE_D5, 231 }, 
	{ NOTE_REST, 230 }, 
	{ NOTE_A5, 750 }, 
	{ NOTE_A5, 750 }, 
	{ NOTE_C6, 375 }, 
	{ NOTE_BB5, 750 }, 
	{ NOTE_A5, 375 }, 
	{ NOTE_A5, 500 }, 
	{ NOTE_G5, 1000 }, 
	{ NOTE_FS5, 250 }, 
	{ NOTE_G5, 250 }, 
	{ NOTE_A5, 750 }, 
	{ NOTE_G5, 750 }, 
	{ NOTE_FS5, 750 }, 
	{ NOTE_A5, 750 }, 
	{ NOTE_D5, 1500 }, 
	{ NOTE_REST, 1500 }, 
	{ NOTE_FS5, 231 }, 
	{ NOTE_REST, 231 }, 
	{ NOTE_REST, 346 }, 
	{ NOTE_D5, 115 }, 
	{ NOTE_E5, 231 }, 
	{ NOTE_REST, 231 }, 
	{ NOTE_FS5, 231 }, 
	{ NOTE_REST, 230 }, 
	{ NOTE_A5, 0 }, 
	{ NOTE_G5, 231 }, 
	{ NOTE_G5, 462 }, 
	{ NOTE_FS5, 115 }, 
	{ NOTE_G5, 115 }, 
	{ NOTE_A5, 92 }, 
	{ NOTE_G5, 92 }, 
	{ NOTE_FS5, 92 }, 
	{ NOTE_G5, 92 }, 
	{ NOTE_A5, 92 }, 
	{ NOTE_G5, 231 }, 
	{ NOTE_REST, 232 }, 
	{ NOTE_G5, 214 }, 
	{ NOTE_D5, 214 }, 
	{ NOTE_D5, 214 }, 
	{ NOTE_D5, 215 }, 
	{ NOTE_D5, 214 }, 
	{ NOTE_C5, 214 }, 
	{ NOTE_B4, 214 }, 
	{ NOTE_C5, 215 }, 
	{ NOTE_B4, 214 }, 
	{ NOTE_B4, 214 }, 
	{ NOTE_B4, 214 }, 
	{ NOTE_B4, 215 }, 
	{ NOTE_G5, 214 }, 
	{ NOTE_D5, 214 }, 
	{ NOTE_D5, 214 }, 
	{ NOTE_D5, 215 }, 
	{ NOTE_D5, 214 }, 
	{ NOTE_C5, 214 }, 
	{ NOTE_B4, 214 }, 
	{ NOTE_A4, 215 }, 
	{ NOTE_D4, 214 }, 
	{ NOTE_D4, 214 }, 
	{ NOTE_D4, 214 }, 
	{ NOTE_D4, 215 }, 
	{ NOTE_G5, 214 }, 
	{ NOTE_D5, 214 }, 
	{ NOTE_D5, 214 }, 
	{ NOTE_D5, 215 }, 
	{ NOTE_D5, 214 }, 
	{ NOTE_C5, 214 }, 
	{ NOTE_B4, 214 }, 
	{ NOTE_C5, 215 }, 
	{ NOTE_B4, 214 }, 
	{ NOTE_B4, 214 }, 
	{ NOTE_B4, 214 }, 
	{ NOTE_B4, 215 }, 
	{ NOTE_G5, 214 }, 
	{ NOTE_D5, 214 }, 
	{ NOTE_D5, 214 }, 
	{ NOTE_D5, 215 }, 
	{ NOTE_D5, 214 }, 
	{ NOTE_C5, 214 }, 
	{ NOTE_B4, 214 }, 
	{ NOTE_A4, 215 }, 
	{ NOTE_D4, 750 }, 
	{ NOTE_D4, 750 }, 
	{ NOTE_D4, 750 }, 
	{ NOTE_D4, 750 }, 
	{ NOTE_B4, 1000 }, 
	{ NOTE_C5, 1000 }, 
	{ NOTE_B4, 3000 }, 
	{ NOTE_A4, 3000 }, 
	{ NOTE_G5, 214 }, 
	{ NOTE_G5, 214 }, 
	{ NOTE_A5, 214 }, 
	{ NOTE_A5, 215 }, 
	{ NOTE_B5, 214 }, 
	{ NOTE_B5, 214 }, 
	{ NOTE_B5, 429 }, 
	{ NOTE_B4, 1000 }, 
	{ NOTE_C5, 1000 }, 
	{ NOTE_D5, 3000 }, 
	{ NOTE_D5, 3000 }, 
	{ NOTE_B5, 214 }, 
	{ NOTE_A5, 214 }, 
	{ NOTE_G5, 214 }, 
	{ NOTE_FS5, 215 }, 
	{ NOTE_B4, 750 }, 
	{ NOTE_B5, 750 }, 
	{ NOTE_REST, 1500 }, 
	{ NOTE_D4, 692 }, 
	{ NOTE_G4, 231 }, 
	{ NOTE_BB4, 692 }, 
	{ NOTE_G4, 231 }, 
	{ NOTE_FS4, 692 }, 
	{ NOTE_G4, 115 }, 
	{ NOTE_A4, 116 }, 
	{ NOTE_G4, 923 }, 
	{ NOTE_EB4, 692 }, 
	{ NOTE_F4, 115 }, 
	{ NOTE_G4, 116 }, 
	{ NOTE_D4, 923 }, 
	{ NOTE_C4, 115 }, 
	{ NOTE_BB3, 115 }, 
	{ NOTE_BB3, 115 }, 
	{ NOTE_A3, 115 }, 
	{ NOTE_A3, 346 }, 
	{ NOTE_D4, 117 }, 
	{ NOTE_G3, 923 }, 
	{ NOTE_D4, 346 }, 
	{ NOTE_G4, 115 }, 
	{ NOTE_BB4, 115 }, 
	{ NOTE_D5, 115 }, 
	{ NOTE_G5, 115 }, 
	{ NOTE_BB5, 117 }, 
	{ NOTE_D6, 692 }, 
	{ NOTE_BB5, 231 }, 
	{ NOTE_EB5, 692 }, 
	{ NOTE_BB5, 115 }, 
	{ NOTE_C6, 116 }, 
	{ NOTE_D5, 923 }, 
	{ NOTE_EB6, 115 }, 
	{ NOTE_F6, 115 }, 
	{ NOTE_G6, 115 }, 
	{ NOTE_EB6, 115 }, 
	{ NOTE_D6, 115 }, 
	{ NOTE_EB6, 115 }, 
	{ NOTE_F6, 115 }, 
	{ NOTE_D6, 118 }, 
	{ NOTE_C6, 115 }, 
	{ NOTE_D6, 115 }, 
	{ NOTE_EB6, 115 }, 
	{ NOTE_C6, 115 }, 
	{ NOTE_BB5, 115 }, 
	{ NOTE_C6, 115 }, 
	{ NOTE_D6, 115 }, 
	{ NOTE_BB5, 118 }, 
	{ NOTE_C6, 115 }, 
	{ NOTE_BB5, 115 }, 
	{ NOTE_BB5, 115 }, 
	{ NOTE_A5, 115 }, 
	{ NOTE_A5, 346 }, 
	{ NOTE_D6, 117 }, 
	{ NOTE_G5, 462 }, 
	{ NOTE_BB5, 231 }, 
	{ NOTE_REST, 230 }, 
	{ NOTE_D6, 462 }, 
	{ NOTE_D6, 461 }, 
	{ NOTE_EB6, 692 }, 
	{ NOTE_D6, 231 }, 
	{ NOTE_REST, 231 }, 
	{ NOTE_C6, 462 }, 
	{ NOTE_B5, 115 }, 
	{ NOTE_C6, 115 }, 
	{ NOTE_D6, 115 }, 
	{ NOTE_C6, 115 }, 
	{ NOTE_B5, 115 }, 
	{ NOTE_D6, 115 }, 
	{ NOTE_C6, 463 }, 
	{ NOTE_C6, 462 }, 
	{ NOTE_C6, 461 }, 
	{ NOTE_D6, 692 }, 
	{ NOTE_C6, 231 }, 
	{ NOTE_REST, 231 }, 
	{ NOTE_BB5, 462 }, 
	{ NOTE_D5, 230 }, 
	{ NOTE_D5, 231 }, 
	{ NOTE_REST, 231 }, 
	{ NOTE_D5, 231 }, 
	{ NOTE_REST, 230 }, 
	{ NOTE_A5, 667 }, 
	{ NOTE_A5, 666 }, 
	{ NOTE_C6, 429 }, 
	{ NOTE_BB5, 857 }, 
	{ NOTE_A5, 428 }, 
	{ NOTE_A5, 500 }, 
	{ NOTE_G5, 1000 }, 
	{ NOTE_FS5, 250 }, 
	{ NOTE_G5, 250 }, 
	{ NOTE_A5, 750 }, 
	{ NOTE_G5, 750 }, 
	{ NOTE_FS5, 750 }, 
	{ NOTE_A5, 750 }, 
	{ NOTE_D5, 1500 }, 
	{ NOTE_REST, 1500 }, 
	{ NOTE_FS5, 231 }, 
	{ NOTE_REST, 231 }, 
	{ NOTE_REST, 346 }, 
	{ NOTE_D5, 115 }, 
	{ NOTE_E5, 231 }, 
	{ NOTE_REST, 231 }, 
	{ NOTE_FS5, 231 }, 
	{ NOTE_REST, 230 }, 
	{ NOTE_A5, 0 }, 
	{ NOTE_G5, 231 }, 
	{ NOTE_G5, 462 }, 
	{ NOTE_FS5, 115 }, 
	{ NOTE_G5, 115 }, 
	{ NOTE_A5, 92 }, 
	{ NOTE_G5, 92 }, 
	{ NOTE_FS5, 92 }, 
	{ NOTE_G5, 92 }, 
	{ NOTE_A5, 92 }, 
	{ NOTE_G5, 231 }, 
	{ NOTE_REST, 232 }, 
	{ NOTE_A5, 231 }, 
	{ NOTE_REST, 231 }, 
	{ NOTE_FS5, 231 }, 
	{ NOTE_REST, 230 }, 
	{ NOTE_BB4, 923 }, 
};
const uint16_t NUM_OF_NOTES1 = sizeof(melody1)/sizeof(melody1[0]);

const Note melody2[] PROGMEM = {
	{ NOTE_D4, 692 }, 
	{ NOTE_G4, 231 }, 
	{ NOTE_BB4, 692 }, 
	{ NOTE_G4, 231 }, 
	{ NOTE_FS4, 692 }, 
	{ NOTE_G4, 115 }, 
	{ NOTE_A4, 116 }, 
	{ NOTE_G4, 923 }, 
	{ NOTE_EB4, 692 }, 
	{ NOTE_F4, 115 }, 
	{ NOTE_G4, 116 }, 
	{ NOTE_D4, 923 }, 
	{ NOTE_C4, 115 }, 
	{ NOTE_BB3, 115 }, 
	{ NOTE_BB3, 115 }, 
	{ NOTE_A3, 115 }, 
	{ NOTE_A3, 346 }, 
	{ NOTE_D4, 117 }, 
	{ NOTE_G3, 923 }, 
	{ NOTE_D4, 692 }, 
	{ NOTE_G4, 115 }, 
	{ NOTE_BB4, 116 }, 
	{ NOTE_D5, 692 }, 
	{ NOTE_BB4, 231 }, 
	{ NOTE_REST, 692 }, 
	{ NOTE_BB4, 115 }, 
	{ NOTE_C5, 116 }, 
	{ NOTE_REST, 923 }, 
	{ NOTE_EB5, 115 }, 
	{ NOTE_F5, 115 }, 
	{ NOTE_G5, 115 }, 
	{ NOTE_EB5, 115 }, 
	{ NOTE_D5, 115 }, 
	{ NOTE_EB5, 115 }, 
	{ NOTE_F5, 115 }, 
	{ NOTE_D5, 118 }, 
	{ NOTE_C5, 115 }, 
	{ NOTE_D5, 115 }, 
	{ NOTE_EB5, 115 }, 
	{ NOTE_C5, 115 }, 
	{ NOTE_BB4, 115 }, 
	{ NOTE_C5, 115 }, 
	{ NOTE_D5, 115 }, 
	{ NOTE_BB4, 118 }, 
	{ NOTE_C5, 115 }, 
	{ NOTE_BB4, 115 }, 
	{ NOTE_BB4, 115 }, 
	{ NOTE_A4, 115 }, 
	{ NOTE_A4, 346 }, 
	{ NOTE_D5, 117 }, 
	{ NOTE_G4, 462 }, 
	{ NOTE_D5, 231 }, 
	{ NOTE_REST, 230 }, 
	{ NOTE_REST, 692 }, 
	{ NOTE_REST, 231 }, 
	{ NOTE_REST, 692 }, 
	{ NOTE_REST, 231 }, 
	{ NOTE_FS5, 692 }, 
	{ NOTE_G5, 115 }, 
	{ NOTE_A5, 116 }, 
	{ NOTE_G5, 923 }, 
	{ NOTE_REST, 692 }, 
	{ NOTE_REST, 115 }, 
	{ NOTE_REST, 116 }, 
	{ NOTE_REST, 923 }, 
	{ NOTE_C5, 115 }, 
	{ NOTE_BB4, 115 }, 
	{ NOTE_BB4, 115 }, 
	{ NOTE_A4, 115 }, 
	{ NOTE_A4, 346 }, 
	{ NOTE_D5, 117 }, 
	{ NOTE_G4, 923 }, 
	{ NOTE_D4, 346 }, 
	{ NOTE_G4, 115 }, 
	{ NOTE_BB4, 115 }, 
	{ NOTE_D5, 115 }, 
	{ NOTE_G5, 115 }, 
	{ NOTE_BB5, 117 }, 
	{ NOTE_D6, 692 }, 
	{ NOTE_BB5, 231 }, 
	{ NOTE_FS5, 692 }, 
	{ NOTE_BB5, 115 }, 
	{ NOTE_C6, 116 }, 
	{ NOTE_G5, 923 }, 
	{ NOTE_EB6, 115 }, 
	{ NOTE_F6, 115 }, 
	{ NOTE_G6, 115 }, 
	{ NOTE_EB6, 115 }, 
	{ NOTE_D6, 115 }, 
	{ NOTE_EB6, 115 }, 
	{ NOTE_F6, 115 }, 
	{ NOTE_D6, 118 }, 
	{ NOTE_C6, 115 }, 
	{ NOTE_D6, 115 }, 
	{ NOTE_EB6, 115 }, 
	{ NOTE_C6, 115 }, 
	{ NOTE_BB5, 115 }, 
	{ NOTE_C6, 115 }, 
	{ NOTE_D6, 115 }, 
	{ NOTE_BB5, 118 }, 
	{ NOTE_C6, 115 }, 
	{ NOTE_BB5, 115 }, 
	{ NOTE_BB5, 115 }, 
	{ NOTE_A5, 115 }, 
	{ NOTE_A5, 346 }, 
	{ NOTE_D6, 117 }, 
	{ NOTE_REST, 462 }, 
	{ NOTE_D6, 231 }, 
	{ NOTE_REST, 230 }, 
	{ NOTE_REST, 462 }, 
	{ NOTE_REST, 461 }, 
	{ NOTE_REST, 692 }, 
	{ NOTE_REST, 231 }, 
	{ NOTE_REST, 231 }, 
	{ NOTE_REST, 462 }, 
	{ NOTE_B5, 115 }, 
	{ NOTE_C6, 115 }, 
	{ NOTE_D6, 115 }, 
	{ NOTE_C6, 115 }, 
	{ NOTE_B5, 115 }, 
	{ NOTE_D6, 115 }, 
	{ NOTE_C6, 463 }, 
	{ NOTE_REST, 462 }, 
	{ NOTE_REST, 461 }, 
	{ NOTE_REST, 692 }, 
	{ NOTE_REST, 231 }, 
	{ NOTE_REST, 231 }, 
	{ NOTE_REST, 462 }, 
	{ NOTE_D5, 230 }, 
	{ NOTE_D5, 231 }, 
	{ NOTE_REST, 231 }, 
	{ NOTE_D5, 231 }, 
	{ NOTE_REST, 230 }, 
	{ NOTE_REST, 750 }, 
	{ NOTE_REST, 750 }, 
	{ NOTE_REST, 375 }, 
	{ NOTE_REST, 750 }, 
	{ NOTE_REST, 375 }, 
	{ NOTE_REST, 500 }, 
	{ NOTE_REST, 1000 }, 
	{ NOTE_REST, 250 }, 
	{ NOTE_REST, 250 }, 
	{ NOTE_REST, 750 }, 
	{ NOTE_REST, 750 }, 
	{ NOTE_REST, 750 }, 
	{ NOTE_REST, 750 }, 
	{ NOTE_G5, 1500 }, 
	{ NOTE_REST, 1500 }, 
	{ NOTE_A5, 231 }, 
	{ NOTE_REST, 231 }, 
	{ NOTE_REST, 346 }, 
	{ NOTE_REST, 115 }, 
	{ NOTE_REST, 231 }, 
	{ NOTE_REST, 231 }, 
	{ NOTE_REST, 231 }, 
	{ NOTE_REST, 230 }, 
	{ NOTE_A5, 0 }, 
	{ NOTE_G5, 231 }, 
	{ NOTE_REST, 462 }, 
	{ NOTE_FS5, 115 }, 
	{ NOTE_G5, 115 }, 
	{ NOTE_REST, 92 }, 
	{ NOTE_G5, 92 }, 
	{ NOTE_FS5, 92 }, 
	{ NOTE_G5, 92 }, 
	{ NOTE_A5, 92 }, 
	{ NOTE_REST, 231 }, 
	{ NOTE_REST, 232 }, 
	{ NOTE_REST, 214 }, 
	{ NOTE_REST, 214 }, 
	{ NOTE_REST, 214 }, 
	{ NOTE_REST, 215 }, 
	{ NOTE_REST, 214 }, 
	{ NOTE_REST, 214 }, 
	{ NOTE_REST, 214 }, 
	{ NOTE_REST, 215 }, 
	{ NOTE_D5, 214 }, 
	{ NOTE_D5, 214 }, 
	{ NOTE_D5, 214 }, 
	{ NOTE_D5, 215 }, 
	{ NOTE_REST, 214 }, 
	{ NOTE_REST, 214 }, 
	{ NOTE_REST, 214 }, 
	{ NOTE_REST, 215 }, 
	{ NOTE_REST, 214 }, 
	{ NOTE_REST, 214 }, 
	{ NOTE_REST, 214 }, 
	{ NOTE_REST, 215 }, 
	{ NOTE_G4, 214 }, 
	{ NOTE_G4, 214 }, 
	{ NOTE_G4, 214 }, 
	{ NOTE_G4, 215 }, 
	{ NOTE_REST, 214 }, 
	{ NOTE_REST, 214 }, 
	{ NOTE_REST, 214 }, 
	{ NOTE_REST, 215 }, 
	{ NOTE_REST, 214 }, 
	{ NOTE_REST, 214 }, 
	{ NOTE_REST, 214 }, 
	{ NOTE_REST, 215 }, 
	{ NOTE_D5, 214 }, 
	{ NOTE_D5, 214 }, 
	{ NOTE_D5, 214 }, 
	{ NOTE_D5, 215 }, 
	{ NOTE_REST, 214 }, 
	{ NOTE_REST, 214 }, 
	{ NOTE_REST, 214 }, 
	{ NOTE_REST, 215 }, 
	{ NOTE_REST, 214 }, 
	{ NOTE_REST, 214 }, 
	{ NOTE_REST, 214 }, 
	{ NOTE_REST, 215 }, 
	{ NOTE_G4, 750 }, 
	{ NOTE_G4, 750 }, 
	{ NOTE_G4, 750 }, 
	{ NOTE_G4, 750 }, 
	{ NOTE_B4, 1000 }, 
	{ NOTE_C5, 1000 }, 
	{ NOTE_B4, 3000 }, 
	{ NOTE_A4, 3000 }, 
	{ NOTE_B5, 214 }, 
	{ NOTE_B5, 214 }, 
	{ NOTE_C6, 214 }, 
	{ NOTE_C6, 215 }, 
	{ NOTE_D6, 214 }, 
	{ NOTE_G6, 214 }, 
	{ NOTE_D6, 429 }, 
	{ NOTE_B4, 1000 }, 
	{ NOTE_C5, 1000 }, 
	{ NOTE_D5, 3000 }, 
	{ NOTE_D5, 3000 }, 
	{ NOTE_D6, 214 }, 
	{ NOTE_C6, 214 }, 
	{ NOTE_B5, 214 }, 
	{ NOTE_A5, 215 }, 
	{ NOTE_D5, 750 }, 
	{ NOTE_D6, 750 }, 
	{ NOTE_REST, 1500 }, 
	{ NOTE_D4, 692 }, 
	{ NOTE_G4, 231 }, 
	{ NOTE_BB4, 692 }, 
	{ NOTE_G4, 231 }, 
	{ NOTE_FS4, 692 }, 
	{ NOTE_G4, 115 }, 
	{ NOTE_A4, 116 }, 
	{ NOTE_G4, 923 }, 
	{ NOTE_EB4, 692 }, 
	{ NOTE_F4, 115 }, 
	{ NOTE_G4, 116 }, 
	{ NOTE_D4, 923 }, 
	{ NOTE_C4, 115 }, 
	{ NOTE_BB3, 115 }, 
	{ NOTE_BB3, 115 }, 
	{ NOTE_A3, 115 }, 
	{ NOTE_A3, 346 }, 
	{ NOTE_D4, 117 }, 
	{ NOTE_G3, 923 }, 
	{ NOTE_D4, 346 }, 
	{ NOTE_G4, 115 }, 
	{ NOTE_BB4, 115 }, 
	{ NOTE_D5, 115 }, 
	{ NOTE_G5, 115 }, 
	{ NOTE_BB5, 117 }, 
	{ NOTE_D6, 692 }, 
	{ NOTE_BB5, 231 }, 
	{ NOTE_FS5, 692 }, 
	{ NOTE_BB5, 115 }, 
	{ NOTE_C6, 116 }, 
	{ NOTE_G5, 923 }, 
	{ NOTE_EB6, 115 }, 
	{ NOTE_F6, 115 }, 
	{ NOTE_G6, 115 }, 
	{ NOTE_EB6, 115 }, 
	{ NOTE_D6, 115 }, 
	{ NOTE_EB6, 115 }, 
	{ NOTE_F6, 115 }, 
	{ NOTE_D6, 118 }, 
	{ NOTE_C6, 115 }, 
	{ NOTE_D6, 115 }, 
	{ NOTE_EB6, 115 }, 
	{ NOTE_C6, 115 }, 
	{ NOTE_BB5, 115 }, 
	{ NOTE_C6, 115 }, 
	{ NOTE_D6, 115 }, 
	{ NOTE_BB5, 118 }, 
	{ NOTE_C6, 115 }, 
	{ NOTE_BB5, 115 }, 
	{ NOTE_BB5, 115 }, 
	{ NOTE_A5, 115 }, 
	{ NOTE_A5, 346 }, 
	{ NOTE_D6, 117 }, 
	{ NOTE_REST, 462 }, 
	{ NOTE_D6, 231 }, 
	{ NOTE_REST, 230 }, 
	{ NOTE_REST, 462 }, 
	{ NOTE_REST, 461 }, 
	{ NOTE_REST, 692 }, 
	{ NOTE_REST, 231 }, 
	{ NOTE_REST, 231 }, 
	{ NOTE_REST, 462 }, 
	{ NOTE_B5, 115 }, 
	{ NOTE_C6, 115 }, 
	{ NOTE_D6, 115 }, 
	{ NOTE_C6, 115 }, 
	{ NOTE_B5, 115 }, 
	{ NOTE_D6, 115 }, 
	{ NOTE_C6, 463 }, 
	{ NOTE_REST, 462 }, 
	{ NOTE_REST, 461 }, 
	{ NOTE_REST, 692 }, 
	{ NOTE_REST, 231 }, 
	{ NOTE_REST, 231 }, 
	{ NOTE_REST, 462 }, 
	{ NOTE_D5, 230 }, 
	{ NOTE_D5, 231 }, 
	{ NOTE_REST, 231 }, 
	{ NOTE_D5, 231 }, 
	{ NOTE_REST, 230 }, 
	{ NOTE_REST, 667 }, 
	{ NOTE_REST, 666 }, 
	{ NOTE_REST, 429 }, 
	{ NOTE_REST, 857 }, 
	{ NOTE_REST, 428 }, 
	{ NOTE_REST, 500 }, 
	{ NOTE_REST, 1000 }, 
	{ NOTE_REST, 250 }, 
	{ NOTE_REST, 250 }, 
	{ NOTE_REST, 750 }, 
	{ NOTE_REST, 750 }, 
	{ NOTE_REST, 750 }, 
	{ NOTE_REST, 750 }, 
	{ NOTE_G5, 1500 }, 
	{ NOTE_REST, 1500 }, 
	{ NOTE_A5, 231 }, 
	{ NOTE_REST, 231 }, 
	{ NOTE_REST, 346 }, 
	{ NOTE_REST, 115 }, 
	{ NOTE_REST, 231 }, 
	{ NOTE_REST, 231 }, 
	{ NOTE_REST, 231 }, 
	{ NOTE_REST, 230 }, 
	{ NOTE_A5, 0 }, 
	{ NOTE_G5, 231 }, 
	{ NOTE_REST, 462 }, 
	{ NOTE_FS5, 115 }, 
	{ NOTE_G5, 115 }, 
	{ NOTE_REST, 92 }, 
	{ NOTE_G5, 92 }, 
	{ NOTE_FS5, 92 }, 
	{ NOTE_G5, 92 }, 
	{ NOTE_A5, 92 }, 
	{ NOTE_REST, 231 }, 
	{ NOTE_REST, 232 }, 
	{ NOTE_EB6, 231 }, 
	{ NOTE_REST, 231 }, 
	{ NOTE_A5, 231 }, 
	{ NOTE_REST, 230 }, 
	{ NOTE_D5, 923 }, 
};
const uint16_t NUM_OF_NOTES2 = sizeof(melody2)/sizeof(melody2[0]);

const Note melody3[] PROGMEM = {
	{ NOTE_G3, 231 }, 
	{ NOTE_BB3, 231 }, 
	{ NOTE_D3, 231 }, 
	{ NOTE_BB3, 230 }, 
	{ NOTE_G3, 231 }, 
	{ NOTE_BB3, 231 }, 
	{ NOTE_D3, 231 }, 
	{ NOTE_BB3, 230 }, 
	{ NOTE_G3, 231 }, 
	{ NOTE_C4, 231 }, 
	{ NOTE_C3, 231 }, 
	{ NOTE_C4, 230 }, 
	{ NOTE_G3, 231 }, 
	{ NOTE_BB3, 231 }, 
	{ NOTE_D3, 231 }, 
	{ NOTE_BB3, 230 }, 
	{ NOTE_G3, 231 }, 
	{ NOTE_C4, 231 }, 
	{ NOTE_C3, 231 }, 
	{ NOTE_C4, 230 }, 
	{ NOTE_G3, 231 }, 
	{ NOTE_BB3, 231 }, 
	{ NOTE_D3, 231 }, 
	{ NOTE_BB3, 230 }, 
	{ NOTE_FS3, 231 }, 
	{ NOTE_C4, 231 }, 
	{ NOTE_D3, 231 }, 
	{ NOTE_C4, 230 }, 
	{ NOTE_G3, 231 }, 
	{ NOTE_BB3, 231 }, 
	{ NOTE_D3, 231 }, 
	{ NOTE_BB3, 230 }, 
	{ NOTE_G3, 231 }, 
	{ NOTE_BB3, 231 }, 
	{ NOTE_D3, 231 }, 
	{ NOTE_BB3, 230 }, 
	{ NOTE_G3, 231 }, 
	{ NOTE_BB3, 231 }, 
	{ NOTE_D3, 231 }, 
	{ NOTE_BB3, 230 }, 
	{ NOTE_G3, 231 }, 
	{ NOTE_C4, 231 }, 
	{ NOTE_C3, 231 }, 
	{ NOTE_C4, 230 }, 
	{ NOTE_G3, 231 }, 
	{ NOTE_BB3, 231 }, 
	{ NOTE_D3, 231 }, 
	{ NOTE_BB3, 230 }, 
	{ NOTE_G4, 231 }, 
	{ NOTE_BB4, 231 }, 
	{ NOTE_F4, 231 }, 
	{ NOTE_A4, 230 }, 
	{ NOTE_EB4, 231 }, 
	{ NOTE_G4, 231 }, 
	{ NOTE_D4, 231 }, 
	{ NOTE_G4, 230 }, 
	{ NOTE_D3, 231 }, 
	{ NOTE_FS4, 231 }, 
	{ NOTE_REST, 231 }, 
	{ NOTE_D4, 230 }, 
	{ NOTE_G4, 462 }, 
	{ NOTE_G3, 231 }, 
	{ NOTE_REST, 230 }, 
	{ NOTE_G3, 231 }, 
	{ NOTE_BB3, 231 }, 
	{ NOTE_D3, 231 }, 
	{ NOTE_BB3, 230 }, 
	{ NOTE_G3, 231 }, 
	{ NOTE_BB3, 231 }, 
	{ NOTE_D3, 231 }, 
	{ NOTE_BB3, 230 }, 
	{ NOTE_G3, 231 }, 
	{ NOTE_C4, 231 }, 
	{ NOTE_C3, 231 }, 
	{ NOTE_C4, 230 }, 
	{ NOTE_G3, 231 }, 
	{ NOTE_BB3, 231 }, 
	{ NOTE_D3, 231 }, 
	{ NOTE_BB3, 230 }, 
	{ NOTE_G3, 231 }, 
	{ NOTE_C4, 231 }, 
	{ NOTE_C3, 231 }, 
	{ NOTE_C4, 230 }, 
	{ NOTE_G3, 231 }, 
	{ NOTE_BB3, 231 }, 
	{ NOTE_D3, 231 }, 
	{ NOTE_BB3, 230 }, 
	{ NOTE_FS3, 231 }, 
	{ NOTE_C4, 231 }, 
	{ NOTE_D3, 231 }, 
	{ NOTE_C4, 230 }, 
	{ NOTE_G3, 231 }, 
	{ NOTE_BB3, 231 }, 
	{ NOTE_D3, 231 }, 
	{ NOTE_BB3, 230 }, 
	{ NOTE_G3, 231 }, 
	{ NOTE_BB3, 231 }, 
	{ NOTE_D3, 231 }, 
	{ NOTE_BB3, 230 }, 
	{ NOTE_G3, 231 }, 
	{ NOTE_BB3, 231 }, 
	{ NOTE_D3, 231 }, 
	{ NOTE_BB3, 230 }, 
	{ NOTE_G3, 231 }, 
	{ NOTE_C4, 231 }, 
	{ NOTE_C3, 231 }, 
	{ NOTE_C4, 230 }, 
	{ NOTE_G3, 231 }, 
	{ NOTE_BB3, 231 }, 
	{ NOTE_D3, 231 }, 
	{ NOTE_BB3, 230 }, 
	{ NOTE_G4, 231 }, 
	{ NOTE_BB4, 231 }, 
	{ NOTE_F4, 231 }, 
	{ NOTE_A4, 230 }, 
	{ NOTE_EB4, 231 }, 
	{ NOTE_G4, 231 }, 
	{ NOTE_D4, 231 }, 
	{ NOTE_G4, 230 }, 
	{ NOTE_D3, 231 }, 
	{ NOTE_FS4, 231 }, 
	{ NOTE_REST, 231 }, 
	{ NOTE_D4, 230 }, 
	{ NOTE_G3, 462 }, 
	{ NOTE_G2, 461 }, 
	{ NOTE_B3, 231 }, 
	{ NOTE_F4, 231 }, 
	{ NOTE_G3, 231 }, 
	{ NOTE_F4, 230 }, 
	{ NOTE_B3, 231 }, 
	{ NOTE_G4, 231 }, 
	{ NOTE_G3, 231 }, 
	{ NOTE_F4, 230 }, 
	{ NOTE_C4, 231 }, 
	{ NOTE_EB4, 231 }, 
	{ NOTE_G3, 231 }, 
	{ NOTE_EB4, 230 }, 
	{ NOTE_C4, 231 }, 
	{ NOTE_EB4, 231 }, 
	{ NOTE_BB3, 231 }, 
	{ NOTE_C4, 230 }, 
	{ NOTE_A3, 231 }, 
	{ NOTE_EB4, 231 }, 
	{ NOTE_F3, 231 }, 
	{ NOTE_EB4, 230 }, 
	{ NOTE_A3, 231 }, 
	{ NOTE_F4, 231 }, 
	{ NOTE_F3, 231 }, 
	{ NOTE_EB4, 230 }, 
	{ NOTE_BB3, 231 }, 
	{ NOTE_D4, 231 }, 
	{ NOTE_F3, 231 }, 
	{ NOTE_D4, 230 }, 
	{ NOTE_BB3, 231 }, 
	{ NOTE_D4, 231 }, 
	{ NOTE_F3, 231 }, 
	{ NOTE_D4, 230 }, 
	{ NOTE_FS4, 375 }, 
	{ NOTE_A4, 375 }, 
	{ NOTE_D4, 375 }, 
	{ NOTE_A4, 375 }, 
	{ NOTE_FS4, 375 }, 
	{ NOTE_A4, 375 }, 
	{ NOTE_D4, 375 }, 
	{ NOTE_A4, 375 }, 
	{ NOTE_EB4, 500 }, 
	{ NOTE_G4, 500 }, 
	{ NOTE_BB3, 500 }, 
	{ NOTE_G4, 500 }, 
	{ NOTE_EB4, 1500 }, 
	{ NOTE_G4, 1500 }, 
	{ NOTE_BB3, 1500 }, 
	{ NOTE_G4, 1500 }, 
	{ NOTE_FS3, 462 }, 
	{ NOTE_REST, 346 }, 
	{ NOTE_D3, 115 }, 
	{ NOTE_E3, 231 }, 
	{ NOTE_REST, 231 }, 
	{ NOTE_FS3, 231 }, 
	{ NOTE_REST, 230 }, 
	{ NOTE_G2, 231 }, 
	{ NOTE_D4, 462 }, 
	{ NOTE_REST, 230 }, 
	{ NOTE_C4, 462 }, 
	{ NOTE_G3, 461 }, 
	{ NOTE_G3, 214 }, 
	{ NOTE_D4, 214 }, 
	{ NOTE_G3, 214 }, 
	{ NOTE_D4, 215 }, 
	{ NOTE_G3, 214 }, 
	{ NOTE_D4, 214 }, 
	{ NOTE_G3, 214 }, 
	{ NOTE_D4, 215 }, 
	{ NOTE_G3, 214 }, 
	{ NOTE_D4, 214 }, 
	{ NOTE_G3, 214 }, 
	{ NOTE_D4, 215 }, 
	{ NOTE_G3, 214 }, 
	{ NOTE_D4, 214 }, 
	{ NOTE_G3, 214 }, 
	{ NOTE_D4, 215 }, 
	{ NOTE_G3, 214 }, 
	{ NOTE_D4, 214 }, 
	{ NOTE_G3, 214 }, 
	{ NOTE_D4, 215 }, 
	{ NOTE_G3, 214 }, 
	{ NOTE_D4, 214 }, 
	{ NOTE_G3, 214 }, 
	{ NOTE_D4, 215 }, 
	{ NOTE_G3, 214 }, 
	{ NOTE_D4, 214 }, 
	{ NOTE_G3, 214 }, 
	{ NOTE_D4, 215 }, 
	{ NOTE_G3, 214 }, 
	{ NOTE_D4, 214 }, 
	{ NOTE_G3, 214 }, 
	{ NOTE_D4, 215 }, 
	{ NOTE_G3, 214 }, 
	{ NOTE_D4, 214 }, 
	{ NOTE_G3, 214 }, 
	{ NOTE_D4, 215 }, 
	{ NOTE_G3, 214 }, 
	{ NOTE_D4, 214 }, 
	{ NOTE_G3, 214 }, 
	{ NOTE_D4, 215 }, 
	{ NOTE_G3, 214 }, 
	{ NOTE_D4, 214 }, 
	{ NOTE_G3, 214 }, 
	{ NOTE_D4, 215 }, 
	{ NOTE_G3, 750 }, 
	{ NOTE_D4, 750 }, 
	{ NOTE_G3, 750 }, 
	{ NOTE_D4, 750 }, 
	{ NOTE_G3, 500 }, 
	{ NOTE_G3, 500 }, 
	{ NOTE_G3, 500 }, 
	{ NOTE_G3, 500 }, 
	{ NOTE_G3, 1500 }, 
	{ NOTE_G3, 1500 }, 
	{ NOTE_G3, 1500 }, 
	{ NOTE_G3, 1500 }, 
	{ NOTE_G3, 214 }, 
	{ NOTE_G4, 214 }, 
	{ NOTE_E4, 214 }, 
	{ NOTE_C4, 215 }, 
	{ NOTE_G3, 214 }, 
	{ NOTE_G4, 214 }, 
	{ NOTE_REST, 214 }, 
	{ NOTE_G4, 215 }, 
	{ NOTE_G3, 500 }, 
	{ NOTE_G3, 500 }, 
	{ NOTE_G3, 500 }, 
	{ NOTE_G3, 500 }, 
	{ NOTE_G3, 1500 }, 
	{ NOTE_G3, 1500 }, 
	{ NOTE_G3, 1500 }, 
	{ NOTE_G3, 1500 }, 
	{ NOTE_G3, 214 }, 
	{ NOTE_C4, 214 }, 
	{ NOTE_D4, 214 }, 
	{ NOTE_D4, 215 }, 
	{ NOTE_G3, 1500 }, 
	{ NOTE_G4, 750 }, 
	{ NOTE_REST, 750 }, 
	{ NOTE_G3, 231 }, 
	{ NOTE_BB3, 231 }, 
	{ NOTE_D3, 231 }, 
	{ NOTE_BB3, 230 }, 
	{ NOTE_G3, 231 }, 
	{ NOTE_BB3, 231 }, 
	{ NOTE_D3, 231 }, 
	{ NOTE_BB3, 230 }, 
	{ NOTE_G3, 231 }, 
	{ NOTE_C4, 231 }, 
	{ NOTE_C3, 231 }, 
	{ NOTE_C4, 230 }, 
	{ NOTE_G3, 231 }, 
	{ NOTE_BB3, 231 }, 
	{ NOTE_D3, 231 }, 
	{ NOTE_BB3, 230 }, 
	{ NOTE_G3, 231 }, 
	{ NOTE_C4, 231 }, 
	{ NOTE_C3, 231 }, 
	{ NOTE_C4, 230 }, 
	{ NOTE_G3, 231 }, 
	{ NOTE_BB3, 231 }, 
	{ NOTE_D3, 231 }, 
	{ NOTE_BB3, 230 }, 
	{ NOTE_FS3, 231 }, 
	{ NOTE_C4, 231 }, 
	{ NOTE_D3, 231 }, 
	{ NOTE_C4, 230 }, 
	{ NOTE_G3, 231 }, 
	{ NOTE_BB3, 231 }, 
	{ NOTE_D3, 231 }, 
	{ NOTE_BB3, 230 }, 
	{ NOTE_G3, 231 }, 
	{ NOTE_BB3, 231 }, 
	{ NOTE_D3, 231 }, 
	{ NOTE_BB3, 230 }, 
	{ NOTE_G3, 231 }, 
	{ NOTE_BB3, 231 }, 
	{ NOTE_D3, 231 }, 
	{ NOTE_BB3, 230 }, 
	{ NOTE_G3, 231 }, 
	{ NOTE_C4, 231 }, 
	{ NOTE_C3, 231 }, 
	{ NOTE_C4, 230 }, 
	{ NOTE_G3, 231 }, 
	{ NOTE_BB3, 231 }, 
	{ NOTE_D3, 231 }, 
	{ NOTE_BB3, 230 }, 
	{ NOTE_G4, 231 }, 
	{ NOTE_BB4, 231 }, 
	{ NOTE_F4, 231 }, 
	{ NOTE_A4, 230 }, 
	{ NOTE_EB4, 231 }, 
	{ NOTE_G4, 231 }, 
	{ NOTE_D4, 231 }, 
	{ NOTE_G4, 230 }, 
	{ NOTE_D3, 231 }, 
	{ NOTE_FS4, 231 }, 
	{ NOTE_REST, 231 }, 
	{ NOTE_D4, 230 }, 
	{ NOTE_G3, 462 }, 
	{ NOTE_G2, 461 }, 
	{ NOTE_B3, 231 }, 
	{ NOTE_F4, 231 }, 
	{ NOTE_G3, 231 }, 
	{ NOTE_F4, 230 }, 
	{ NOTE_B3, 231 }, 
	{ NOTE_G4, 231 }, 
	{ NOTE_G3, 231 }, 
	{ NOTE_F4, 230 }, 
	{ NOTE_C4, 231 }, 
	{ NOTE_EB4, 231 }, 
	{ NOTE_G3, 231 }, 
	{ NOTE_EB4, 230 }, 
	{ NOTE_C4, 231 }, 
	{ NOTE_EB4, 231 }, 
	{ NOTE_BB3, 231 }, 
	{ NOTE_C4, 230 }, 
	{ NOTE_A3, 231 }, 
	{ NOTE_EB4, 231 }, 
	{ NOTE_F3, 231 }, 
	{ NOTE_EB4, 230 }, 
	{ NOTE_A3, 231 }, 
	{ NOTE_F4, 231 }, 
	{ NOTE_F3, 231 }, 
	{ NOTE_EB4, 230 }, 
	{ NOTE_BB3, 231 }, 
	{ NOTE_D4, 231 }, 
	{ NOTE_F3, 231 }, 
	{ NOTE_D4, 230 }, 
	{ NOTE_BB3, 231 }, 
	{ NOTE_D4, 231 }, 
	{ NOTE_F3, 231 }, 
	{ NOTE_D4, 230 }, 
	{ NOTE_FS4, 333 }, 
	{ NOTE_A4, 333 }, 
	{ NOTE_D4, 333 }, 
	{ NOTE_A4, 334 }, 
	{ NOTE_FS4, 429 }, 
	{ NOTE_A4, 429 }, 
	{ NOTE_D4, 429 }, 
	{ NOTE_A4, 427 }, 
	{ NOTE_EB4, 500 }, 
	{ NOTE_G4, 500 }, 
	{ NOTE_BB3, 500 }, 
	{ NOTE_G4, 500 }, 
	{ NOTE_EB4, 1500 }, 
	{ NOTE_G4, 1500 }, 
	{ NOTE_BB3, 1500 }, 
	{ NOTE_G4, 1500 }, 
	{ NOTE_FS3, 462 }, 
	{ NOTE_REST, 346 }, 
	{ NOTE_D3, 115 }, 
	{ NOTE_E3, 231 }, 
	{ NOTE_REST, 231 }, 
	{ NOTE_FS3, 231 }, 
	{ NOTE_REST, 230 }, 
	{ NOTE_G2, 231 }, 
	{ NOTE_D4, 462 }, 
	{ NOTE_REST, 230 }, 
	{ NOTE_C4, 462 }, 
	{ NOTE_G3, 461 }, 
	{ NOTE_C3, 231 }, 
	{ NOTE_REST, 231 }, 
	{ NOTE_D3, 231 }, 
	{ NOTE_REST, 230 }, 
	{ NOTE_G3, 923 }, 
};
const uint16_t NUM_OF_NOTES3 = sizeof(melody3)/sizeof(melody3[0]);

const Note melody4[] PROGMEM = {
	{ NOTE_G3, 231 }, 
	{ NOTE_D4, 231 }, 
	{ NOTE_D3, 231 }, 
	{ NOTE_D4, 230 }, 
	{ NOTE_G3, 231 }, 
	{ NOTE_D4, 231 }, 
	{ NOTE_D3, 231 }, 
	{ NOTE_D4, 230 }, 
	{ NOTE_G3, 231 }, 
	{ NOTE_EB4, 231 }, 
	{ NOTE_C3, 231 }, 
	{ NOTE_EB4, 230 }, 
	{ NOTE_G3, 231 }, 
	{ NOTE_D4, 231 }, 
	{ NOTE_D3, 231 }, 
	{ NOTE_D4, 230 }, 
	{ NOTE_G3, 231 }, 
	{ NOTE_EB4, 231 }, 
	{ NOTE_C3, 231 }, 
	{ NOTE_EB4, 230 }, 
	{ NOTE_G3, 231 }, 
	{ NOTE_D4, 231 }, 
	{ NOTE_D3, 231 }, 
	{ NOTE_D4, 230 }, 
	{ NOTE_FS3, 231 }, 
	{ NOTE_D4, 231 }, 
	{ NOTE_D3, 231 }, 
	{ NOTE_D4, 230 }, 
	{ NOTE_G3, 231 }, 
	{ NOTE_D4, 231 }, 
	{ NOTE_D3, 231 }, 
	{ NOTE_D4, 230 }, 
	{ NOTE_G3, 231 }, 
	{ NOTE_D4, 231 }, 
	{ NOTE_D3, 231 }, 
	{ NOTE_D4, 230 }, 
	{ NOTE_G3, 231 }, 
	{ NOTE_D4, 231 }, 
	{ NOTE_D3, 231 }, 
	{ NOTE_D4, 230 }, 
	{ NOTE_G3, 231 }, 
	{ NOTE_EB4, 231 }, 
	{ NOTE_C3, 231 }, 
	{ NOTE_EB4, 230 }, 
	{ NOTE_G3, 231 }, 
	{ NOTE_D4, 231 }, 
	{ NOTE_D3, 231 }, 
	{ NOTE_D4, 230 }, 
	{ NOTE_G4, 231 }, 
	{ NOTE_EB5, 231 }, 
	{ NOTE_F4, 231 }, 
	{ NOTE_D5, 230 }, 
	{ NOTE_EB4, 231 }, 
	{ NOTE_C5, 231 }, 
	{ NOTE_D4, 231 }, 
	{ NOTE_BB4, 230 }, 
	{ NOTE_D3, 231 }, 
	{ NOTE_D5, 231 }, 
	{ NOTE_REST, 231 }, 
	{ NOTE_FS4, 230 }, 
	{ NOTE_G4, 462 }, 
	{ NOTE_D4, 231 }, 
	{ NOTE_REST, 230 }, 
	{ NOTE_G3, 231 }, 
	{ NOTE_D4, 231 }, 
	{ NOTE_D3, 231 }, 
	{ NOTE_D4, 230 }, 
	{ NOTE_G3, 231 }, 
	{ NOTE_D4, 231 }, 
	{ NOTE_D3, 231 }, 
	{ NOTE_D4, 230 }, 
	{ NOTE_G3, 231 }, 
	{ NOTE_EB4, 231 }, 
	{ NOTE_C3, 231 }, 
	{ NOTE_EB4, 230 }, 
	{ NOTE_G3, 231 }, 
	{ NOTE_D4, 231 }, 
	{ NOTE_D3, 231 }, 
	{ NOTE_D4, 230 }, 
	{ NOTE_G3, 231 }, 
	{ NOTE_EB4, 231 }, 
	{ NOTE_C3, 231 }, 
	{ NOTE_EB4, 230 }, 
	{ NOTE_G3, 231 }, 
	{ NOTE_D4, 231 }, 
	{ NOTE_D3, 231 }, 
	{ NOTE_D4, 230 }, 
	{ NOTE_FS3, 231 }, 
	{ NOTE_D4, 231 }, 
	{ NOTE_D3, 231 }, 
	{ NOTE_D4, 230 }, 
	{ NOTE_G3, 231 }, 
	{ NOTE_D4, 231 }, 
	{ NOTE_D3, 231 }, 
	{ NOTE_D4, 230 }, 
	{ NOTE_G3, 231 }, 
	{ NOTE_D4, 231 }, 
	{ NOTE_D3, 231 }, 
	{ NOTE_D4, 230 }, 
	{ NOTE_G3, 231 }, 
	{ NOTE_D4, 231 }, 
	{ NOTE_D3, 231 }, 
	{ NOTE_D4, 230 }, 
	{ NOTE_G3, 231 }, 
	{ NOTE_EB4, 231 }, 
	{ NOTE_C3, 231 }, 
	{ NOTE_EB4, 230 }, 
	{ NOTE_G3, 231 }, 
	{ NOTE_D4, 231 }, 
	{ NOTE_D3, 231 }, 
	{ NOTE_D4, 230 }, 
	{ NOTE_G4, 231 }, 
	{ NOTE_EB5, 231 }, 
	{ NOTE_F4, 231 }, 
	{ NOTE_D5, 230 }, 
	{ NOTE_EB4, 231 }, 
	{ NOTE_C5, 231 }, 
	{ NOTE_D4, 231 }, 
	{ NOTE_BB4, 230 }, 
	{ NOTE_D3, 231 }, 
	{ NOTE_D5, 231 }, 
	{ NOTE_REST, 231 }, 
	{ NOTE_FS4, 230 }, 
	{ NOTE_G4, 462 }, 
	{ NOTE_G3, 461 }, 
	{ NOTE_B3, 231 }, 
	{ NOTE_G4, 231 }, 
	{ NOTE_G3, 231 }, 
	{ NOTE_G4, 230 }, 
	{ NOTE_B3, 231 }, 
	{ NOTE_B4, 231 }, 
	{ NOTE_G3, 231 }, 
	{ NOTE_G4, 230 }, 
	{ NOTE_C4, 231 }, 
	{ NOTE_G4, 231 }, 
	{ NOTE_G3, 231 }, 
	{ NOTE_G4, 230 }, 
	{ NOTE_C4, 231 }, 
	{ NOTE_G4, 231 }, 
	{ NOTE_BB3, 231 }, 
	{ NOTE_EB4, 230 }, 
	{ NOTE_A3, 231 }, 
	{ NOTE_F4, 231 }, 
	{ NOTE_F3, 231 }, 
	{ NOTE_F4, 230 }, 
	{ NOTE_A3, 231 }, 
	{ NOTE_A4, 231 }, 
	{ NOTE_F3, 231 }, 
	{ NOTE_F4, 230 }, 
	{ NOTE_BB3, 231 }, 
	{ NOTE_F4, 231 }, 
	{ NOTE_F3, 231 }, 
	{ NOTE_F4, 230 }, 
	{ NOTE_BB3, 231 }, 
	{ NOTE_F4, 231 }, 
	{ NOTE_F3, 231 }, 
	{ NOTE_F4, 230 }, 
	{ NOTE_FS4, 375 }, 
	{ NOTE_C5, 375 }, 
	{ NOTE_D4, 375 }, 
	{ NOTE_C5, 375 }, 
	{ NOTE_FS4, 375 }, 
	{ NOTE_D5, 375 }, 
	{ NOTE_D4, 375 }, 
	{ NOTE_C5, 375 }, 
	{ NOTE_EB4, 500 }, 
	{ NOTE_BB4, 500 }, 
	{ NOTE_BB3, 500 }, 
	{ NOTE_BB4, 500 }, 
	{ NOTE_EB4, 1500 }, 
	{ NOTE_BB4, 1500 }, 
	{ NOTE_BB3, 1500 }, 
	{ NOTE_BB4, 1500 }, 
	{ NOTE_FS4, 462 }, 
	{ NOTE_REST, 346 }, 
	{ NOTE_D4, 115 }, 
	{ NOTE_E4, 231 }, 
	{ NOTE_REST, 231 }, 
	{ NOTE_FS4, 231 }, 
	{ NOTE_REST, 230 }, 
	{ NOTE_G3, 231 }, 
	{ NOTE_G4, 462 }, 
	{ NOTE_REST, 230 }, 
	{ NOTE_EB4, 462 }, 
	{ NOTE_BB3, 461 }, 
	{ NOTE_G4, 214 }, 
	{ NOTE_D4, 214 }, 
	{ NOTE_G4, 214 }, 
	{ NOTE_D4, 215 }, 
	{ NOTE_G4, 214 }, 
	{ NOTE_D4, 214 }, 
	{ NOTE_G4, 214 }, 
	{ NOTE_D4, 215 }, 
	{ NOTE_G4, 214 }, 
	{ NOTE_D4, 214 }, 
	{ NOTE_G4, 214 }, 
	{ NOTE_D4, 215 }, 
	{ NOTE_G4, 214 }, 
	{ NOTE_D4, 214 }, 
	{ NOTE_G4, 214 }, 
	{ NOTE_D4, 215 }, 
	{ NOTE_G4, 214 }, 
	{ NOTE_D4, 214 }, 
	{ NOTE_G4, 214 }, 
	{ NOTE_D4, 215 }, 
	{ NOTE_G4, 214 }, 
	{ NOTE_D4, 214 }, 
	{ NOTE_G4, 214 }, 
	{ NOTE_D4, 215 }, 
	{ NOTE_G4, 214 }, 
	{ NOTE_D4, 214 }, 
	{ NOTE_G4, 214 }, 
	{ NOTE_D4, 215 }, 
	{ NOTE_G4, 214 }, 
	{ NOTE_D4, 214 }, 
	{ NOTE_G4, 214 }, 
	{ NOTE_D4, 215 }, 
	{ NOTE_G4, 214 }, 
	{ NOTE_D4, 214 }, 
	{ NOTE_G4, 214 }, 
	{ NOTE_D4, 215 }, 
	{ NOTE_G4, 214 }, 
	{ NOTE_D4, 214 }, 
	{ NOTE_G4, 214 }, 
	{ NOTE_D4, 215 }, 
	{ NOTE_G4, 214 }, 
	{ NOTE_D4, 214 }, 
	{ NOTE_G4, 214 }, 
	{ NOTE_D4, 215 }, 
	{ NOTE_G4, 750 }, 
	{ NOTE_D4, 750 }, 
	{ NOTE_G4, 750 }, 
	{ NOTE_D4, 750 }, 
	{ NOTE_G3, 500 }, 
	{ NOTE_D4, 500 }, 
	{ NOTE_G3, 500 }, 
	{ NOTE_D4, 500 }, 
	{ NOTE_G3, 1500 }, 
	{ NOTE_D4, 1500 }, 
	{ NOTE_G3, 1500 }, 
	{ NOTE_D4, 1500 }, 
	{ NOTE_G3, 214 }, 
	{ NOTE_G4, 214 }, 
	{ NOTE_E4, 214 }, 
	{ NOTE_C4, 215 }, 
	{ NOTE_G4, 214 }, 
	{ NOTE_B4, 214 }, 
	{ NOTE_REST, 214 }, 
	{ NOTE_B4, 215 }, 
	{ NOTE_G3, 500 }, 
	{ NOTE_D4, 500 }, 
	{ NOTE_G3, 500 }, 
	{ NOTE_D4, 500 }, 
	{ NOTE_G3, 1500 }, 
	{ NOTE_D4, 1500 }, 
	{ NOTE_G3, 1500 }, 
	{ NOTE_D4, 1500 }, 
	{ NOTE_G3, 214 }, 
	{ NOTE_C4, 214 }, 
	{ NOTE_D4, 214 }, 
	{ NOTE_D4, 215 }, 
	{ NOTE_D4, 1500 }, 
	{ NOTE_B4, 750 }, 
	{ NOTE_REST, 750 }, 
	{ NOTE_G3, 231 }, 
	{ NOTE_D4, 231 }, 
	{ NOTE_D3, 231 }, 
	{ NOTE_D4, 230 }, 
	{ NOTE_G3, 231 }, 
	{ NOTE_D4, 231 }, 
	{ NOTE_D3, 231 }, 
	{ NOTE_D4, 230 }, 
	{ NOTE_G3, 231 }, 
	{ NOTE_EB4, 231 }, 
	{ NOTE_C3, 231 }, 
	{ NOTE_EB4, 230 }, 
	{ NOTE_G3, 231 }, 
	{ NOTE_D4, 231 }, 
	{ NOTE_D3, 231 }, 
	{ NOTE_D4, 230 }, 
	{ NOTE_G3, 231 }, 
	{ NOTE_EB4, 231 }, 
	{ NOTE_C3, 231 }, 
	{ NOTE_EB4, 230 }, 
	{ NOTE_G3, 231 }, 
	{ NOTE_D4, 231 }, 
	{ NOTE_D3, 231 }, 
	{ NOTE_D4, 230 }, 
	{ NOTE_FS3, 231 }, 
	{ NOTE_D4, 231 }, 
	{ NOTE_D3, 231 }, 
	{ NOTE_D4, 230 }, 
	{ NOTE_G3, 231 }, 
	{ NOTE_D4, 231 }, 
	{ NOTE_D3, 231 }, 
	{ NOTE_D4, 230 }, 
	{ NOTE_G3, 231 }, 
	{ NOTE_D4, 231 }, 
	{ NOTE_D3, 231 }, 
	{ NOTE_D4, 230 }, 
	{ NOTE_G3, 231 }, 
	{ NOTE_D4, 231 }, 
	{ NOTE_D3, 231 }, 
	{ NOTE_D4, 230 }, 
	{ NOTE_G3, 231 }, 
	{ NOTE_EB4, 231 }, 
	{ NOTE_C3, 231 }, 
	{ NOTE_EB4, 230 }, 
	{ NOTE_G3, 231 }, 
	{ NOTE_D4, 231 }, 
	{ NOTE_D3, 231 }, 
	{ NOTE_D4, 230 }, 
	{ NOTE_G4, 231 }, 
	{ NOTE_EB5, 231 }, 
	{ NOTE_F4, 231 }, 
	{ NOTE_D5, 230 }, 
	{ NOTE_EB4, 231 }, 
	{ NOTE_C5, 231 }, 
	{ NOTE_D4, 231 }, 
	{ NOTE_BB4, 230 }, 
	{ NOTE_D3, 231 }, 
	{ NOTE_D5, 231 }, 
	{ NOTE_REST, 231 }, 
	{ NOTE_FS4, 230 }, 
	{ NOTE_G4, 462 }, 
	{ NOTE_G3, 461 }, 
	{ NOTE_B3, 231 }, 
	{ NOTE_G4, 231 }, 
	{ NOTE_G3, 231 }, 
	{ NOTE_G4, 230 }, 
	{ NOTE_B3, 231 }, 
	{ NOTE_B4, 231 }, 
	{ NOTE_G3, 231 }, 
	{ NOTE_G4, 230 }, 
	{ NOTE_C4, 231 }, 
	{ NOTE_G4, 231 }, 
	{ NOTE_G3, 231 }, 
	{ NOTE_G4, 230 }, 
	{ NOTE_C4, 231 }, 
	{ NOTE_G4, 231 }, 
	{ NOTE_BB3, 231 }, 
	{ NOTE_EB4, 230 }, 
	{ NOTE_A3, 231 }, 
	{ NOTE_F4, 231 }, 
	{ NOTE_F3, 231 }, 
	{ NOTE_F4, 230 }, 
	{ NOTE_A3, 231 }, 
	{ NOTE_A4, 231 }, 
	{ NOTE_F3, 231 }, 
	{ NOTE_F4, 230 }, 
	{ NOTE_BB3, 231 }, 
	{ NOTE_F4, 231 }, 
	{ NOTE_F3, 231 }, 
	{ NOTE_F4, 230 }, 
	{ NOTE_BB3, 231 }, 
	{ NOTE_F4, 231 }, 
	{ NOTE_F3, 231 }, 
	{ NOTE_F4, 230 }, 
	{ NOTE_FS4, 333 }, 
	{ NOTE_C5, 333 }, 
	{ NOTE_D4, 333 }, 
	{ NOTE_C5, 334 }, 
	{ NOTE_FS4, 429 }, 
	{ NOTE_D5, 429 }, 
	{ NOTE_D4, 429 }, 
	{ NOTE_C5, 427 }, 
	{ NOTE_EB4, 500 }, 
	{ NOTE_BB4, 500 }, 
	{ NOTE_BB3, 500 }, 
	{ NOTE_BB4, 500 }, 
	{ NOTE_EB4, 1500 }, 
	{ NOTE_BB4, 1500 }, 
	{ NOTE_BB3, 1500 }, 
	{ NOTE_BB4, 1500 }, 
	{ NOTE_FS4, 462 }, 
	{ NOTE_REST, 346 }, 
	{ NOTE_D4, 115 }, 
	{ NOTE_E4, 231 }, 
	{ NOTE_REST, 231 }, 
	{ NOTE_FS4, 231 }, 
	{ NOTE_REST, 230 }, 
	{ NOTE_G3, 231 }, 
	{ NOTE_G4, 462 }, 
	{ NOTE_REST, 230 }, 
	{ NOTE_EB4, 462 }, 
	{ NOTE_BB3, 461 }, 
	{ NOTE_A3, 231 }, 
	{ NOTE_REST, 231 }, 
	{ NOTE_A3, 231 }, 
	{ NOTE_REST, 230 }, 
	{ NOTE_BB3, 923 }, 
};
const uint16_t NUM_OF_NOTES4 = sizeof(melody4)/sizeof(melody4[0]);

