/*
 * Song: The Dance Of Eternity by Dream Theater
 *
 *	Melody 0 | John Myung Bass
 *	Melody 1 | John Petrucci Guitar 1 (main)
 *	Melody 2 | Jordan Right Hand
 *	Melody 3 | Jordan Right Hand
 *	Melody 4 | Jordan Left Hand
*/

#include <Arduino.h>
#include "notes.h"

const Note melody0[] PROGMEM = {
	{ NOTE_D3, 96 }, 
	{ NOTE_D3, 96 }, 
	{ NOTE_D3, 96 }, 
	{ NOTE_D3, 288 }, 
	{ NOTE_REST, 288 }, 
	{ NOTE_D3, 288 }, 
	{ NOTE_REST, 288 }, 
	{ NOTE_D3, 288 }, 
	{ NOTE_D3, 96 }, 
	{ NOTE_D3, 96 }, 
	{ NOTE_D3, 96 }, 
	{ NOTE_D3, 292 }, 
	{ NOTE_D3, 96 }, 
	{ NOTE_D3, 96 }, 
	{ NOTE_D3, 96 }, 
	{ NOTE_D3, 288 }, 
	{ NOTE_REST, 288 }, 
	{ NOTE_D3, 288 }, 
	{ NOTE_REST, 288 }, 
	{ NOTE_D3, 288 }, 
	{ NOTE_D3, 96 }, 
	{ NOTE_D3, 96 }, 
	{ NOTE_D3, 96 }, 
	{ NOTE_D3, 292 }, 
	{ NOTE_D3, 96 }, 
	{ NOTE_D3, 96 }, 
	{ NOTE_D3, 96 }, 
	{ NOTE_D3, 288 }, 
	{ NOTE_REST, 288 }, 
	{ NOTE_D3, 288 }, 
	{ NOTE_REST, 288 }, 
	{ NOTE_D3, 288 }, 
	{ NOTE_D3, 96 }, 
	{ NOTE_D3, 96 }, 
	{ NOTE_D3, 96 }, 
	{ NOTE_D3, 292 }, 
	{ NOTE_D3, 96 }, 
	{ NOTE_D3, 96 }, 
	{ NOTE_D3, 96 }, 
	{ NOTE_D3, 288 }, 
	{ NOTE_REST, 288 }, 
	{ NOTE_D3, 96 }, 
	{ NOTE_D3, 96 }, 
	{ NOTE_D3, 96 }, 
	{ NOTE_D3, 96 }, 
	{ NOTE_D3, 96 }, 
	{ NOTE_D3, 96 }, 
	{ NOTE_D3, 288 }, 
	{ NOTE_D3, 96 }, 
	{ NOTE_D3, 96 }, 
	{ NOTE_D3, 96 }, 
	{ NOTE_D3, 292 }, 
	{ NOTE_G3, 1210 }, 
	{ NOTE_AB3, 725 }, 
	{ NOTE_G3, 1210 }, 
	{ NOTE_F3, 484 }, 
	{ NOTE_E3, 1452 }, 
	{ NOTE_C3, 726 }, 
	{ NOTE_GB3, 726 }, 
	{ NOTE_G3, 1210 }, 
	{ NOTE_AB3, 725 }, 
	{ NOTE_G3, 1210 }, 
	{ NOTE_F3, 484 }, 
	{ NOTE_E3, 1452 }, 
	{ NOTE_C3, 726 }, 
	{ NOTE_EB3, 726 }, 
	{ NOTE_G3, 242 }, 
	{ NOTE_D4, 242 }, 
	{ NOTE_G4, 242 }, 
	{ NOTE_D4, 242 }, 
	{ NOTE_F4, 242 }, 
	{ NOTE_AB4, 242 }, 
	{ NOTE_G4, 242 }, 
	{ NOTE_EB4, 241 }, 
	{ NOTE_D4, 242 }, 
	{ NOTE_G3, 242 }, 
	{ NOTE_D4, 242 }, 
	{ NOTE_EB4, 121 }, 
	{ NOTE_F4, 121 }, 
	{ NOTE_G4, 242 }, 
	{ NOTE_C4, 242 }, 
	{ NOTE_F3, 242 }, 
	{ NOTE_E3, 242 }, 
	{ NOTE_B3, 242 }, 
	{ NOTE_E4, 242 }, 
	{ NOTE_F4, 242 }, 
	{ NOTE_E4, 242 }, 
	{ NOTE_B4, 242 }, 
	{ NOTE_C5, 242 }, 
	{ NOTE_C4, 242 }, 
	{ NOTE_G4, 242 }, 
	{ NOTE_DB4, 242 }, 
	{ NOTE_GB3, 242 }, 
	{ NOTE_AB4, 242 }, 
	{ NOTE_AB3, 242 }, 
	{ NOTE_G3, 242 }, 
	{ NOTE_D4, 242 }, 
	{ NOTE_G4, 242 }, 
	{ NOTE_D4, 242 }, 
	{ NOTE_F4, 242 }, 
	{ NOTE_AB4, 242 }, 
	{ NOTE_G4, 242 }, 
	{ NOTE_EB4, 241 }, 
	{ NOTE_D4, 242 }, 
	{ NOTE_G3, 242 }, 
	{ NOTE_D4, 242 }, 
	{ NOTE_EB4, 121 }, 
	{ NOTE_F4, 121 }, 
	{ NOTE_G4, 242 }, 
	{ NOTE_C4, 242 }, 
	{ NOTE_F3, 242 }, 
	{ NOTE_E3, 242 }, 
	{ NOTE_B3, 242 }, 
	{ NOTE_E4, 242 }, 
	{ NOTE_F4, 242 }, 
	{ NOTE_E4, 242 }, 
	{ NOTE_B4, 242 }, 
	{ NOTE_C5, 242 }, 
	{ NOTE_C4, 81 }, 
	{ NOTE_D4, 81 }, 
	{ NOTE_EB4, 81 }, 
	{ NOTE_G4, 242 }, 
	{ NOTE_EB4, 242 }, 
	{ NOTE_EB3, 242 }, 
	{ NOTE_BB3, 242 }, 
	{ NOTE_AB3, 241 }, 
	{ NOTE_G3, 242 }, 
	{ NOTE_AB3, 121 }, 
	{ NOTE_G3, 242 }, 
	{ NOTE_AB3, 121 }, 
	{ NOTE_G3, 121 }, 
	{ NOTE_AB3, 121 }, 
	{ NOTE_C4, 121 }, 
	{ NOTE_D4, 121 }, 
	{ NOTE_F4, 121 }, 
	{ NOTE_G4, 121 }, 
	{ NOTE_AB4, 121 }, 
	{ NOTE_G3, 242 }, 
	{ NOTE_AB3, 121 }, 
	{ NOTE_G3, 242 }, 
	{ NOTE_AB3, 121 }, 
	{ NOTE_G3, 242 }, 
	{ NOTE_D4, 121 }, 
	{ NOTE_C4, 121 }, 
	{ NOTE_AB3, 121 }, 
	{ NOTE_G3, 121 }, 
	{ NOTE_F3, 121 }, 
	{ NOTE_EB3, 121 }, 
	{ NOTE_D3, 121 }, 
	{ NOTE_G3, 242 }, 
	{ NOTE_AB3, 121 }, 
	{ NOTE_G3, 242 }, 
	{ NOTE_AB3, 121 }, 
	{ NOTE_G3, 242 }, 
	{ NOTE_AB3, 242 }, 
	{ NOTE_G3, 121 }, 
	{ NOTE_AB3, 121 }, 
	{ NOTE_C4, 121 }, 
	{ NOTE_D4, 121 }, 
	{ NOTE_F4, 121 }, 
	{ NOTE_G4, 121 }, 
	{ NOTE_AB4, 120 }, 
	{ NOTE_G3, 242 }, 
	{ NOTE_AB3, 121 }, 
	{ NOTE_G3, 242 }, 
	{ NOTE_AB3, 121 }, 
	{ NOTE_G3, 121 }, 
	{ NOTE_AB3, 121 }, 
	{ NOTE_D4, 121 }, 
	{ NOTE_C4, 121 }, 
	{ NOTE_AB3, 121 }, 
	{ NOTE_G3, 121 }, 
	{ NOTE_F3, 121 }, 
	{ NOTE_EB3, 121 }, 
	{ NOTE_D3, 1210 }, 
	{ NOTE_EB3, 725 }, 
	{ NOTE_D3, 1210 }, 
	{ NOTE_C3, 484 }, 
	{ NOTE_B2, 1452 }, 
	{ NOTE_G3, 726 }, 
	{ NOTE_DB3, 726 }, 
	{ NOTE_D3, 1210 }, 
	{ NOTE_EB3, 725 }, 
	{ NOTE_D3, 1210 }, 
	{ NOTE_C4, 484 }, 
	{ NOTE_AB3, 1935 }, 
	{ NOTE_G3, 484 }, 
	{ NOTE_REST, 484 }, 
	{ NOTE_REST, 484 }, 
	{ NOTE_REST, 967 }, 
	{ NOTE_G3, 242 }, 
	{ NOTE_AB3, 121 }, 
	{ NOTE_G3, 242 }, 
	{ NOTE_AB3, 121 }, 
	{ NOTE_G3, 242 }, 
	{ NOTE_AB3, 242 }, 
	{ NOTE_G3, 121 }, 
	{ NOTE_AB3, 121 }, 
	{ NOTE_C4, 121 }, 
	{ NOTE_D4, 121 }, 
	{ NOTE_F4, 121 }, 
	{ NOTE_G4, 121 }, 
	{ NOTE_AB4, 120 }, 
	{ NOTE_G3, 242 }, 
	{ NOTE_AB3, 121 }, 
	{ NOTE_G3, 242 }, 
	{ NOTE_AB3, 121 }, 
	{ NOTE_G3, 242 }, 
	{ NOTE_D4, 121 }, 
	{ NOTE_C4, 121 }, 
	{ NOTE_AB3, 121 }, 
	{ NOTE_G3, 121 }, 
	{ NOTE_F3, 121 }, 
	{ NOTE_EB3, 121 }, 
	{ NOTE_D3, 121 }, 
	{ NOTE_G3, 242 }, 
	{ NOTE_AB3, 121 }, 
	{ NOTE_G3, 242 }, 
	{ NOTE_AB3, 121 }, 
	{ NOTE_G3, 121 }, 
	{ NOTE_AB3, 121 }, 
	{ NOTE_C4, 121 }, 
	{ NOTE_D4, 121 }, 
	{ NOTE_F4, 121 }, 
	{ NOTE_G4, 121 }, 
	{ NOTE_AB4, 121 }, 
	{ NOTE_BB3, 726 }, 
	{ NOTE_AB3, 726 }, 
	{ NOTE_D3, 483 }, 
	{ NOTE_E3, 121 }, 
	{ NOTE_E4, 121 }, 
	{ NOTE_E5, 121 }, 
	{ NOTE_B5, 242 }, 
	{ NOTE_A4, 121 }, 
	{ NOTE_C5, 242 }, 
	{ NOTE_F5, 242 }, 
	{ NOTE_G5, 242 }, 
	{ NOTE_REST, 1452 }, 
	{ NOTE_GB3, 125 }, 
	{ NOTE_GB3, 125 }, 
	{ NOTE_GB3, 125 }, 
	{ NOTE_GB4, 125 }, 
	{ NOTE_GB4, 125 }, 
	{ NOTE_GB4, 125 }, 
	{ NOTE_GB3, 125 }, 
	{ NOTE_GB3, 125 }, 
	{ NOTE_GB3, 125 }, 
	{ NOTE_GB4, 125 }, 
	{ NOTE_GB4, 125 }, 
	{ NOTE_GB4, 125 }, 
	{ NOTE_DB4, 250 }, 
	{ NOTE_GB4, 250 }, 
	{ NOTE_G4, 250 }, 
	{ NOTE_C4, 250 }, 
	{ NOTE_AB3, 125 }, 
	{ NOTE_D4, 125 }, 
	{ NOTE_AB4, 125 }, 
	{ NOTE_D5, 125 }, 
	{ NOTE_BB4, 125 }, 
	{ NOTE_GB4, 125 }, 
	{ NOTE_D4, 125 }, 
	{ NOTE_BB3, 125 }, 
	{ NOTE_GB3, 125 }, 
	{ NOTE_GB3, 125 }, 
	{ NOTE_GB3, 125 }, 
	{ NOTE_GB4, 125 }, 
	{ NOTE_GB4, 125 }, 
	{ NOTE_GB4, 125 }, 
	{ NOTE_GB3, 125 }, 
	{ NOTE_GB3, 125 }, 
	{ NOTE_GB3, 125 }, 
	{ NOTE_GB4, 125 }, 
	{ NOTE_GB4, 125 }, 
	{ NOTE_GB4, 125 }, 
	{ NOTE_DB4, 250 }, 
	{ NOTE_GB4, 250 }, 
	{ NOTE_G4, 250 }, 
	{ NOTE_C4, 250 }, 
	{ NOTE_D5, 125 }, 
	{ NOTE_AB4, 125 }, 
	{ NOTE_D4, 125 }, 
	{ NOTE_BB4, 125 }, 
	{ NOTE_GB4, 125 }, 
	{ NOTE_D4, 125 }, 
	{ NOTE_G3, 125 }, 
	{ NOTE_DB4, 125 }, 
	{ NOTE_GB3, 125 }, 
	{ NOTE_GB3, 125 }, 
	{ NOTE_GB3, 125 }, 
	{ NOTE_GB4, 125 }, 
	{ NOTE_GB4, 125 }, 
	{ NOTE_GB4, 125 }, 
	{ NOTE_GB3, 125 }, 
	{ NOTE_GB3, 125 }, 
	{ NOTE_GB3, 125 }, 
	{ NOTE_GB4, 125 }, 
	{ NOTE_GB4, 125 }, 
	{ NOTE_GB4, 125 }, 
	{ NOTE_DB4, 250 }, 
	{ NOTE_GB4, 250 }, 
	{ NOTE_G4, 250 }, 
	{ NOTE_C4, 250 }, 
	{ NOTE_BB3, 125 }, 
	{ NOTE_GB4, 125 }, 
	{ NOTE_BB4, 125 }, 
	{ NOTE_D5, 125 }, 
	{ NOTE_E4, 125 }, 
	{ NOTE_AB4, 125 }, 
	{ NOTE_D4, 125 }, 
	{ NOTE_AB3, 125 }, 
	{ NOTE_GB3, 125 }, 
	{ NOTE_GB3, 125 }, 
	{ NOTE_GB3, 125 }, 
	{ NOTE_GB4, 125 }, 
	{ NOTE_GB4, 125 }, 
	{ NOTE_GB4, 125 }, 
	{ NOTE_GB3, 125 }, 
	{ NOTE_GB3, 125 }, 
	{ NOTE_GB3, 125 }, 
	{ NOTE_GB4, 125 }, 
	{ NOTE_GB4, 125 }, 
	{ NOTE_GB4, 125 }, 
	{ NOTE_DB4, 250 }, 
	{ NOTE_GB4, 250 }, 
	{ NOTE_G4, 250 }, 
	{ NOTE_C4, 250 }, 
	{ NOTE_A3, 83 }, 
	{ NOTE_AB3, 83 }, 
	{ NOTE_AB3, 83 }, 
	{ NOTE_G3, 83 }, 
	{ NOTE_G3, 83 }, 
	{ NOTE_GB3, 83 }, 
	{ NOTE_F3, 250 }, 
	{ NOTE_E3, 83 }, 
	{ NOTE_EB3, 83 }, 
	{ NOTE_D3, 83 }, 
	{ NOTE_D3, 83 }, 
	{ NOTE_DB3, 83 }, 
	{ NOTE_DB3, 87 }, 
	{ NOTE_B2, 121 }, 
	{ NOTE_B2, 121 }, 
	{ NOTE_B2, 121 }, 
	{ NOTE_B2, 121 }, 
	{ NOTE_REST, 121 }, 
	{ NOTE_B2, 121 }, 
	{ NOTE_B2, 121 }, 
	{ NOTE_B2, 121 }, 
	{ NOTE_B2, 121 }, 
	{ NOTE_REST, 121 }, 
	{ NOTE_B2, 121 }, 
	{ NOTE_B2, 121 }, 
	{ NOTE_B2, 121 }, 
	{ NOTE_B2, 121 }, 
	{ NOTE_REST, 121 }, 
	{ NOTE_B2, 121 }, 
	{ NOTE_B2, 121 }, 
	{ NOTE_B2, 121 }, 
	{ NOTE_B2, 121 }, 
	{ NOTE_REST, 121 }, 
	{ NOTE_B2, 121 }, 
	{ NOTE_B2, 121 }, 
	{ NOTE_B2, 121 }, 
	{ NOTE_B2, 121 }, 
	{ NOTE_REST, 121 }, 
	{ NOTE_B2, 121 }, 
	{ NOTE_B2, 121 }, 
	{ NOTE_B2, 121 }, 
	{ NOTE_B2, 121 }, 
	{ NOTE_REST, 121 }, 
	{ NOTE_B2, 121 }, 
	{ NOTE_B2, 121 }, 
	{ NOTE_B2, 121 }, 
	{ NOTE_B2, 121 }, 
	{ NOTE_REST, 121 }, 
	{ NOTE_B2, 121 }, 
	{ NOTE_B2, 121 }, 
	{ NOTE_B2, 121 }, 
	{ NOTE_B2, 121 }, 
	{ NOTE_REST, 121 }, 
	{ NOTE_B2, 121 }, 
	{ NOTE_B2, 121 }, 
	{ NOTE_B2, 121 }, 
	{ NOTE_REST, 120 }, 
	{ NOTE_B2, 121 }, 
	{ NOTE_B2, 121 }, 
	{ NOTE_B2, 121 }, 
	{ NOTE_B2, 121 }, 
	{ NOTE_REST, 121 }, 
	{ NOTE_B2, 121 }, 
	{ NOTE_B2, 121 }, 
	{ NOTE_B2, 121 }, 
	{ NOTE_B2, 121 }, 
	{ NOTE_REST, 121 }, 
	{ NOTE_B2, 121 }, 
	{ NOTE_B2, 121 }, 
	{ NOTE_B2, 121 }, 
	{ NOTE_B2, 121 }, 
	{ NOTE_REST, 121 }, 
	{ NOTE_B2, 121 }, 
	{ NOTE_B2, 121 }, 
	{ NOTE_B2, 121 }, 
	{ NOTE_B2, 121 }, 
	{ NOTE_REST, 121 }, 
	{ NOTE_B2, 121 }, 
	{ NOTE_B2, 121 }, 
	{ NOTE_B2, 121 }, 
	{ NOTE_B2, 121 }, 
	{ NOTE_REST, 121 }, 
	{ NOTE_B2, 121 }, 
	{ NOTE_B2, 121 }, 
	{ NOTE_B2, 121 }, 
	{ NOTE_B2, 121 }, 
	{ NOTE_REST, 121 }, 
	{ NOTE_B2, 121 }, 
	{ NOTE_B2, 121 }, 
	{ NOTE_B2, 121 }, 
	{ NOTE_B2, 121 }, 
	{ NOTE_REST, 121 }, 
	{ NOTE_B2, 121 }, 
	{ NOTE_B2, 121 }, 
	{ NOTE_B2, 121 }, 
	{ NOTE_B2, 121 }, 
	{ NOTE_REST, 121 }, 
	{ NOTE_B2, 121 }, 
	{ NOTE_B2, 121 }, 
	{ NOTE_B2, 121 }, 
	{ NOTE_REST, 120 }, 
	{ NOTE_B3, 121 }, 
	{ NOTE_B3, 121 }, 
	{ NOTE_B3, 121 }, 
	{ NOTE_B3, 121 }, 
	{ NOTE_REST, 121 }, 
	{ NOTE_B3, 121 }, 
	{ NOTE_B3, 121 }, 
	{ NOTE_B3, 121 }, 
	{ NOTE_B3, 121 }, 
	{ NOTE_REST, 121 }, 
	{ NOTE_B3, 121 }, 
	{ NOTE_B3, 121 }, 
	{ NOTE_B3, 121 }, 
	{ NOTE_B3, 121 }, 
	{ NOTE_REST, 121 }, 
	{ NOTE_B3, 121 }, 
	{ NOTE_B3, 121 }, 
	{ NOTE_B3, 121 }, 
	{ NOTE_B3, 121 }, 
	{ NOTE_REST, 121 }, 
	{ NOTE_B3, 121 }, 
	{ NOTE_B3, 121 }, 
	{ NOTE_B3, 121 }, 
	{ NOTE_B3, 121 }, 
	{ NOTE_REST, 121 }, 
	{ NOTE_B3, 121 }, 
	{ NOTE_B3, 121 }, 
	{ NOTE_B3, 121 }, 
	{ NOTE_B3, 121 }, 
	{ NOTE_REST, 121 }, 
	{ NOTE_B3, 121 }, 
	{ NOTE_B3, 121 }, 
	{ NOTE_B3, 121 }, 
	{ NOTE_B3, 121 }, 
	{ NOTE_REST, 121 }, 
	{ NOTE_B3, 121 }, 
	{ NOTE_B3, 121 }, 
	{ NOTE_B3, 121 }, 
	{ NOTE_B3, 121 }, 
	{ NOTE_REST, 121 }, 
	{ NOTE_B3, 121 }, 
	{ NOTE_B3, 121 }, 
	{ NOTE_B3, 121 }, 
	{ NOTE_REST, 120 }, 
	{ NOTE_B3, 121 }, 
	{ NOTE_B3, 121 }, 
	{ NOTE_B3, 121 }, 
	{ NOTE_B3, 242 }, 
	{ NOTE_B3, 121 }, 
	{ NOTE_B3, 121 }, 
	{ NOTE_B3, 121 }, 
	{ NOTE_B3, 242 }, 
	{ NOTE_B3, 121 }, 
	{ NOTE_B3, 121 }, 
	{ NOTE_B3, 121 }, 
	{ NOTE_B3, 242 }, 
	{ NOTE_B3, 121 }, 
	{ NOTE_B3, 121 }, 
	{ NOTE_B3, 121 }, 
	{ NOTE_B3, 242 }, 
	{ NOTE_B3, 121 }, 
	{ NOTE_B3, 121 }, 
	{ NOTE_B3, 121 }, 
	{ NOTE_B3, 242 }, 
	{ NOTE_B3, 121 }, 
	{ NOTE_B3, 121 }, 
	{ NOTE_B3, 121 }, 
	{ NOTE_B3, 242 }, 
	{ NOTE_B3, 121 }, 
	{ NOTE_B3, 121 }, 
	{ NOTE_B3, 121 }, 
	{ NOTE_B3, 242 }, 
	{ NOTE_REST, 120 }, 
	{ NOTE_B3, 968 }, 
	{ NOTE_E3, 121 }, 
	{ NOTE_E3, 121 }, 
	{ NOTE_E3, 121 }, 
	{ NOTE_E3, 121 }, 
	{ NOTE_REST, 121 }, 
	{ NOTE_E3, 121 }, 
	{ NOTE_E3, 121 }, 
	{ NOTE_E3, 121 }, 
	{ NOTE_E3, 121 }, 
	{ NOTE_REST, 121 }, 
	{ NOTE_E3, 121 }, 
	{ NOTE_E3, 121 }, 
	{ NOTE_E3, 121 }, 
	{ NOTE_E3, 121 }, 
	{ NOTE_REST, 121 }, 
	{ NOTE_E3, 121 }, 
	{ NOTE_E3, 121 }, 
	{ NOTE_E3, 121 }, 
	{ NOTE_E3, 121 }, 
	{ NOTE_REST, 121 }, 
	{ NOTE_E3, 121 }, 
	{ NOTE_E3, 121 }, 
	{ NOTE_E3, 121 }, 
	{ NOTE_E3, 121 }, 
	{ NOTE_REST, 121 }, 
	{ NOTE_E3, 121 }, 
	{ NOTE_E3, 121 }, 
	{ NOTE_E3, 121 }, 
	{ NOTE_E3, 121 }, 
	{ NOTE_REST, 121 }, 
	{ NOTE_E3, 121 }, 
	{ NOTE_E3, 121 }, 
	{ NOTE_E3, 121 }, 
	{ NOTE_E3, 121 }, 
	{ NOTE_REST, 121 }, 
	{ NOTE_E3, 121 }, 
	{ NOTE_E3, 121 }, 
	{ NOTE_E3, 121 }, 
	{ NOTE_E3, 121 }, 
	{ NOTE_REST, 121 }, 
	{ NOTE_E3, 121 }, 
	{ NOTE_E3, 121 }, 
	{ NOTE_E3, 121 }, 
	{ NOTE_REST, 120 }, 
	{ NOTE_E4, 121 }, 
	{ NOTE_E4, 121 }, 
	{ NOTE_E4, 121 }, 
	{ NOTE_E4, 121 }, 
	{ NOTE_REST, 121 }, 
	{ NOTE_E4, 121 }, 
	{ NOTE_E4, 121 }, 
	{ NOTE_E4, 121 }, 
	{ NOTE_E4, 121 }, 
	{ NOTE_REST, 121 }, 
	{ NOTE_GB4, 121 }, 
	{ NOTE_GB4, 121 }, 
	{ NOTE_GB4, 121 }, 
	{ NOTE_GB4, 121 }, 
	{ NOTE_REST, 121 }, 
	{ NOTE_A4, 121 }, 
	{ NOTE_A4, 121 }, 
	{ NOTE_A4, 121 }, 
	{ NOTE_A4, 121 }, 
	{ NOTE_REST, 121 }, 
	{ NOTE_E4, 121 }, 
	{ NOTE_E4, 121 }, 
	{ NOTE_E4, 121 }, 
	{ NOTE_E4, 121 }, 
	{ NOTE_REST, 121 }, 
	{ NOTE_E4, 121 }, 
	{ NOTE_E4, 121 }, 
	{ NOTE_E4, 121 }, 
	{ NOTE_E4, 121 }, 
	{ NOTE_REST, 121 }, 
	{ NOTE_GB4, 121 }, 
	{ NOTE_GB4, 121 }, 
	{ NOTE_GB4, 121 }, 
	{ NOTE_GB4, 121 }, 
	{ NOTE_REST, 121 }, 
	{ NOTE_GB4, 121 }, 
	{ NOTE_GB4, 121 }, 
	{ NOTE_GB4, 121 }, 
	{ NOTE_GB4, 121 }, 
	{ NOTE_REST, 121 }, 
	{ NOTE_A4, 121 }, 
	{ NOTE_A4, 121 }, 
	{ NOTE_A4, 121 }, 
	{ NOTE_REST, 120 }, 
	{ NOTE_E4, 121 }, 
	{ NOTE_B3, 121 }, 
	{ NOTE_E3, 121 }, 
	{ NOTE_EB4, 121 }, 
	{ NOTE_B3, 121 }, 
	{ NOTE_E3, 121 }, 
	{ NOTE_REST, 121 }, 
	{ NOTE_D4, 121 }, 
	{ NOTE_DB4, 121 }, 
	{ NOTE_E3, 121 }, 
	{ NOTE_C4, 121 }, 
	{ NOTE_B3, 121 }, 
	{ NOTE_E3, 121 }, 
	{ NOTE_BB3, 121 }, 
	{ NOTE_A3, 121 }, 
	{ NOTE_GB3, 120 }, 
	{ NOTE_DB4, 484 }, 
	{ NOTE_G3, 484 }, 
	{ NOTE_C4, 484 }, 
	{ NOTE_GB3, 483 }, 
	{ NOTE_E4, 121 }, 
	{ NOTE_B3, 121 }, 
	{ NOTE_E3, 121 }, 
	{ NOTE_EB4, 121 }, 
	{ NOTE_B3, 121 }, 
	{ NOTE_E3, 121 }, 
	{ NOTE_REST, 121 }, 
	{ NOTE_D4, 121 }, 
	{ NOTE_DB4, 121 }, 
	{ NOTE_E3, 121 }, 
	{ NOTE_C4, 121 }, 
	{ NOTE_B3, 121 }, 
	{ NOTE_E3, 121 }, 
	{ NOTE_BB3, 121 }, 
	{ NOTE_A3, 121 }, 
	{ NOTE_GB3, 120 }, 
	{ NOTE_G4, 121 }, 
	{ NOTE_C4, 121 }, 
	{ NOTE_DB4, 121 }, 
	{ NOTE_EB4, 121 }, 
	{ NOTE_E4, 121 }, 
	{ NOTE_A3, 121 }, 
	{ NOTE_BB3, 121 }, 
	{ NOTE_C4, 121 }, 
	{ NOTE_DB4, 121 }, 
	{ NOTE_GB3, 121 }, 
	{ NOTE_G3, 121 }, 
	{ NOTE_A3, 121 }, 
	{ NOTE_BB3, 121 }, 
	{ NOTE_A3, 121 }, 
	{ NOTE_G3, 121 }, 
	{ NOTE_GB3, 120 }, 
	{ NOTE_E4, 121 }, 
	{ NOTE_B3, 121 }, 
	{ NOTE_E3, 121 }, 
	{ NOTE_EB4, 121 }, 
	{ NOTE_B3, 121 }, 
	{ NOTE_E3, 121 }, 
	{ NOTE_REST, 121 }, 
	{ NOTE_D4, 121 }, 
	{ NOTE_DB4, 121 }, 
	{ NOTE_E3, 121 }, 
	{ NOTE_C4, 121 }, 
	{ NOTE_B3, 121 }, 
	{ NOTE_E3, 121 }, 
	{ NOTE_BB3, 121 }, 
	{ NOTE_A3, 121 }, 
	{ NOTE_GB3, 120 }, 
	{ NOTE_G3, 121 }, 
	{ NOTE_FS3, 121 }, 
	{ NOTE_E3, 121 }, 
	{ NOTE_FS3, 121 }, 
	{ NOTE_DS3, 121 }, 
	{ NOTE_E3, 121 }, 
	{ NOTE_FS3, 121 }, 
	{ NOTE_G3, 121 }, 
	{ NOTE_B3, 121 }, 
	{ NOTE_C4, 121 }, 
	{ NOTE_CS4, 121 }, 
	{ NOTE_D4, 121 }, 
	{ NOTE_DS4, 121 }, 
	{ NOTE_B3, 121 }, 
	{ NOTE_DS4, 121 }, 
	{ NOTE_FS4, 120 }, 
	{ NOTE_E4, 121 }, 
	{ NOTE_B3, 121 }, 
	{ NOTE_E3, 121 }, 
	{ NOTE_DS4, 121 }, 
	{ NOTE_B3, 121 }, 
	{ NOTE_E3, 121 }, 
	{ NOTE_REST, 121 }, 
	{ NOTE_D4, 121 }, 
	{ NOTE_CS4, 121 }, 
	{ NOTE_E3, 121 }, 
	{ NOTE_C4, 121 }, 
	{ NOTE_B3, 121 }, 
	{ NOTE_E3, 121 }, 
	{ NOTE_AS3, 121 }, 
	{ NOTE_A3, 121 }, 
	{ NOTE_FS3, 120 }, 
	{ NOTE_C4, 242 }, 
	{ NOTE_C4, 242 }, 
	{ NOTE_C4, 121 }, 
	{ NOTE_C4, 242 }, 
	{ NOTE_B3, 1088 }, 
	{ NOTE_E3, 227 }, 
	{ NOTE_E3, 227 }, 
	{ NOTE_B2, 227 }, 
	{ NOTE_B2, 114 }, 
	{ NOTE_E3, 228 }, 
	{ NOTE_E3, 227 }, 
	{ NOTE_E3, 114 }, 
	{ NOTE_B2, 227 }, 
	{ NOTE_B2, 227 }, 
	{ NOTE_CS3, 227 }, 
	{ NOTE_CS3, 227 }, 
	{ NOTE_C3, 114 }, 
	{ NOTE_C3, 114 }, 
	{ NOTE_REST, 114 }, 
	{ NOTE_B2, 228 }, 
	{ NOTE_B2, 114 }, 
	{ NOTE_B2, 227 }, 
	{ NOTE_D3, 227 }, 
	{ NOTE_DS3, 226 }, 
	{ NOTE_E3, 227 }, 
	{ NOTE_E3, 227 }, 
	{ NOTE_B2, 227 }, 
	{ NOTE_B2, 114 }, 
	{ NOTE_E3, 228 }, 
	{ NOTE_E3, 227 }, 
	{ NOTE_E3, 114 }, 
	{ NOTE_B2, 227 }, 
	{ NOTE_B2, 227 }, 
	{ NOTE_FS3, 227 }, 
	{ NOTE_FS3, 227 }, 
	{ NOTE_FS3, 114 }, 
	{ NOTE_FS3, 114 }, 
	{ NOTE_REST, 114 }, 
	{ NOTE_B2, 228 }, 
	{ NOTE_B2, 114 }, 
	{ NOTE_G3, 227 }, 
	{ NOTE_FS3, 227 }, 
	{ NOTE_F3, 226 }, 
	{ NOTE_E3, 227 }, 
	{ NOTE_B2, 114 }, 
	{ NOTE_B2, 114 }, 
	{ NOTE_DS3, 227 }, 
	{ NOTE_B2, 114 }, 
	{ NOTE_B2, 114 }, 
	{ NOTE_D3, 227 }, 
	{ NOTE_B2, 114 }, 
	{ NOTE_B2, 114 }, 
	{ NOTE_CS3, 227 }, 
	{ NOTE_B2, 114 }, 
	{ NOTE_B2, 112 }, 
	{ NOTE_C3, 227 }, 
	{ NOTE_C3, 227 }, 
	{ NOTE_C3, 114 }, 
	{ NOTE_C3, 114 }, 
	{ NOTE_REST, 114 }, 
	{ NOTE_B2, 228 }, 
	{ NOTE_B2, 114 }, 
	{ NOTE_B2, 227 }, 
	{ NOTE_D3, 227 }, 
	{ NOTE_DS3, 226 }, 
	{ NOTE_E3, 227 }, 
	{ NOTE_B2, 114 }, 
	{ NOTE_B2, 114 }, 
	{ NOTE_FS3, 227 }, 
	{ NOTE_B2, 114 }, 
	{ NOTE_B2, 114 }, 
	{ NOTE_G3, 227 }, 
	{ NOTE_B2, 114 }, 
	{ NOTE_B2, 114 }, 
	{ NOTE_GS3, 227 }, 
	{ NOTE_B2, 226 }, 
	{ NOTE_A3, 341 }, 
	{ NOTE_A3, 341 }, 
	{ NOTE_A3, 341 }, 
	{ NOTE_A3, 341 }, 
	{ NOTE_A3, 454 }, 
	{ NOTE_B3, 455 }, 
	{ NOTE_REST, 455 }, 
	{ NOTE_REST, 908 }, 
	{ NOTE_E4, 114 }, 
	{ NOTE_E4, 114 }, 
	{ NOTE_E4, 114 }, 
	{ NOTE_E4, 114 }, 
	{ NOTE_E4, 114 }, 
	{ NOTE_E4, 114 }, 
	{ NOTE_E4, 114 }, 
	{ NOTE_E4, 114 }, 
	{ NOTE_E4, 114 }, 
	{ NOTE_E4, 114 }, 
	{ NOTE_E4, 114 }, 
	{ NOTE_E4, 114 }, 
	{ NOTE_E4, 114 }, 
	{ NOTE_E4, 114 }, 
	{ NOTE_E4, 114 }, 
	{ NOTE_E4, 108 }, 
	{ NOTE_D4, 114 }, 
	{ NOTE_D4, 114 }, 
	{ NOTE_D4, 114 }, 
	{ NOTE_D4, 114 }, 
	{ NOTE_D4, 114 }, 
	{ NOTE_D4, 114 }, 
	{ NOTE_D4, 114 }, 
	{ NOTE_D4, 114 }, 
	{ NOTE_D4, 114 }, 
	{ NOTE_D4, 114 }, 
	{ NOTE_D4, 114 }, 
	{ NOTE_D4, 114 }, 
	{ NOTE_D4, 114 }, 
	{ NOTE_D4, 114 }, 
	{ NOTE_D4, 114 }, 
	{ NOTE_D4, 108 }, 
	{ NOTE_A3, 114 }, 
	{ NOTE_A3, 114 }, 
	{ NOTE_A3, 114 }, 
	{ NOTE_A3, 114 }, 
	{ NOTE_A3, 114 }, 
	{ NOTE_A3, 114 }, 
	{ NOTE_A3, 114 }, 
	{ NOTE_A3, 114 }, 
	{ NOTE_A3, 114 }, 
	{ NOTE_A3, 114 }, 
	{ NOTE_A3, 114 }, 
	{ NOTE_A3, 114 }, 
	{ NOTE_A3, 114 }, 
	{ NOTE_A3, 114 }, 
	{ NOTE_A3, 114 }, 
	{ NOTE_A3, 108 }, 
	{ NOTE_F3, 114 }, 
	{ NOTE_F3, 114 }, 
	{ NOTE_F3, 114 }, 
	{ NOTE_F3, 114 }, 
	{ NOTE_F3, 114 }, 
	{ NOTE_F3, 114 }, 
	{ NOTE_F3, 114 }, 
	{ NOTE_F3, 114 }, 
	{ NOTE_F3, 114 }, 
	{ NOTE_F3, 114 }, 
	{ NOTE_F3, 114 }, 
	{ NOTE_F3, 114 }, 
	{ NOTE_F3, 114 }, 
	{ NOTE_F3, 114 }, 
	{ NOTE_F3, 114 }, 
	{ NOTE_F3, 108 }, 
	{ NOTE_E4, 114 }, 
	{ NOTE_E4, 114 }, 
	{ NOTE_E4, 114 }, 
	{ NOTE_E4, 114 }, 
	{ NOTE_E4, 114 }, 
	{ NOTE_E4, 114 }, 
	{ NOTE_E4, 114 }, 
	{ NOTE_E4, 114 }, 
	{ NOTE_E4, 114 }, 
	{ NOTE_E4, 114 }, 
	{ NOTE_E4, 114 }, 
	{ NOTE_E4, 114 }, 
	{ NOTE_E4, 114 }, 
	{ NOTE_E4, 114 }, 
	{ NOTE_E4, 114 }, 
	{ NOTE_E4, 108 }, 
	{ NOTE_D4, 114 }, 
	{ NOTE_D4, 114 }, 
	{ NOTE_D4, 114 }, 
	{ NOTE_D4, 114 }, 
	{ NOTE_D4, 114 }, 
	{ NOTE_D4, 114 }, 
	{ NOTE_D4, 114 }, 
	{ NOTE_D4, 114 }, 
	{ NOTE_D4, 114 }, 
	{ NOTE_D4, 114 }, 
	{ NOTE_D4, 114 }, 
	{ NOTE_D4, 114 }, 
	{ NOTE_D4, 114 }, 
	{ NOTE_D4, 114 }, 
	{ NOTE_D4, 114 }, 
	{ NOTE_D4, 108 }, 
	{ NOTE_A3, 114 }, 
	{ NOTE_A3, 114 }, 
	{ NOTE_A3, 114 }, 
	{ NOTE_A3, 114 }, 
	{ NOTE_A3, 114 }, 
	{ NOTE_A3, 114 }, 
	{ NOTE_A3, 114 }, 
	{ NOTE_A3, 114 }, 
	{ NOTE_A3, 114 }, 
	{ NOTE_A3, 114 }, 
	{ NOTE_A3, 114 }, 
	{ NOTE_A3, 114 }, 
	{ NOTE_A3, 114 }, 
	{ NOTE_A3, 114 }, 
	{ NOTE_A3, 114 }, 
	{ NOTE_A3, 108 }, 
	{ NOTE_F3, 114 }, 
	{ NOTE_F3, 114 }, 
	{ NOTE_F3, 114 }, 
	{ NOTE_F3, 114 }, 
	{ NOTE_F3, 114 }, 
	{ NOTE_F3, 114 }, 
	{ NOTE_F3, 114 }, 
	{ NOTE_F3, 114 }, 
	{ NOTE_F3, 114 }, 
	{ NOTE_F3, 114 }, 
	{ NOTE_F3, 114 }, 
	{ NOTE_F3, 114 }, 
	{ NOTE_F3, 114 }, 
	{ NOTE_F3, 114 }, 
	{ NOTE_F3, 114 }, 
	{ NOTE_F3, 108 }, 
	{ NOTE_E3, 114 }, 
	{ NOTE_E3, 114 }, 
	{ NOTE_E3, 114 }, 
	{ NOTE_E3, 114 }, 
	{ NOTE_E3, 114 }, 
	{ NOTE_E3, 114 }, 
	{ NOTE_E3, 114 }, 
	{ NOTE_E3, 114 }, 
	{ NOTE_E3, 114 }, 
	{ NOTE_E3, 114 }, 
	{ NOTE_E3, 114 }, 
	{ NOTE_E3, 114 }, 
	{ NOTE_E3, 114 }, 
	{ NOTE_E3, 114 }, 
	{ NOTE_E3, 114 }, 
	{ NOTE_E3, 108 }, 
	{ NOTE_F3, 114 }, 
	{ NOTE_F3, 114 }, 
	{ NOTE_F3, 114 }, 
	{ NOTE_F3, 114 }, 
	{ NOTE_F3, 114 }, 
	{ NOTE_F3, 114 }, 
	{ NOTE_F3, 114 }, 
	{ NOTE_F3, 114 }, 
	{ NOTE_G3, 114 }, 
	{ NOTE_G3, 114 }, 
	{ NOTE_G3, 114 }, 
	{ NOTE_G3, 114 }, 
	{ NOTE_G3, 114 }, 
	{ NOTE_G3, 114 }, 
	{ NOTE_G3, 114 }, 
	{ NOTE_G3, 108 }, 
	{ NOTE_G4, 76 }, 
	{ NOTE_A4, 76 }, 
	{ NOTE_A4, 76 }, 
	{ NOTE_A4, 76 }, 
	{ NOTE_A4, 76 }, 
	{ NOTE_A4, 76 }, 
	{ NOTE_G4, 76 }, 
	{ NOTE_A4, 76 }, 
	{ NOTE_A4, 76 }, 
	{ NOTE_A4, 76 }, 
	{ NOTE_A4, 152 }, 
	{ NOTE_G4, 91 }, 
	{ NOTE_A4, 91 }, 
	{ NOTE_A4, 91 }, 
	{ NOTE_C5, 182 }, 
	{ NOTE_A4, 114 }, 
	{ NOTE_A4, 114 }, 
	{ NOTE_A4, 114 }, 
	{ NOTE_A4, 109 }, 
	{ NOTE_G4, 91 }, 
	{ NOTE_A4, 91 }, 
	{ NOTE_C5, 91 }, 
	{ NOTE_D5, 91 }, 
	{ NOTE_D5, 91 }, 
	{ NOTE_E5, 114 }, 
	{ NOTE_E5, 114 }, 
	{ NOTE_D5, 114 }, 
	{ NOTE_C5, 114 }, 
	{ NOTE_A4, 114 }, 
	{ NOTE_G4, 114 }, 
	{ NOTE_A4, 57 }, 
	{ NOTE_C5, 57 }, 
	{ NOTE_D5, 57 }, 
	{ NOTE_D5, 57 }, 
	{ NOTE_F5, 76 }, 
	{ NOTE_F5, 76 }, 
	{ NOTE_F5, 76 }, 
	{ NOTE_C5, 76 }, 
	{ NOTE_A4, 76 }, 
	{ NOTE_A4, 71 }, 
	{ NOTE_G4, 114 }, 
	{ NOTE_A4, 114 }, 
	{ NOTE_C5, 57 }, 
	{ NOTE_D5, 57 }, 
	{ NOTE_E5, 57 }, 
	{ NOTE_F5, 57 }, 
	{ NOTE_G5, 76 }, 
	{ NOTE_G5, 76 }, 
	{ NOTE_G5, 76 }, 
	{ NOTE_C5, 76 }, 
	{ NOTE_A4, 76 }, 
	{ NOTE_A4, 76 }, 
	{ NOTE_G4, 91 }, 
	{ NOTE_A4, 91 }, 
	{ NOTE_D5, 91 }, 
	{ NOTE_F5, 91 }, 
	{ NOTE_G5, 91 }, 
	{ NOTE_GS5, 114 }, 
	{ NOTE_GS5, 114 }, 
	{ NOTE_GS5, 114 }, 
	{ NOTE_C5, 109 }, 
	{ NOTE_A4, 114 }, 
	{ NOTE_F5, 114 }, 
	{ NOTE_G5, 114 }, 
	{ NOTE_GS5, 114 }, 
	{ NOTE_A5, 341 }, 
	{ NOTE_A5, 57 }, 
	{ NOTE_A5, 57 }, 
	{ NOTE_B5, 114 }, 
	{ NOTE_D6, 114 }, 
	{ NOTE_B5, 76 }, 
	{ NOTE_C6, 76 }, 
	{ NOTE_D6, 76 }, 
	{ NOTE_E6, 76 }, 
	{ NOTE_F6, 76 }, 
	{ NOTE_E6, 76 }, 
	{ NOTE_E6, 76 }, 
	{ NOTE_C6, 76 }, 
	{ NOTE_B5, 71 }, 
	{ NOTE_A5, 91 }, 
	{ NOTE_G5, 91 }, 
	{ NOTE_F5, 91 }, 
	{ NOTE_F5, 182 }, 
	{ NOTE_G5, 114 }, 
	{ NOTE_A5, 114 }, 
	{ NOTE_F5, 114 }, 
	{ NOTE_E5, 114 }, 
	{ NOTE_D5, 91 }, 
	{ NOTE_B4, 91 }, 
	{ NOTE_B4, 91 }, 
	{ NOTE_C5, 91 }, 
	{ NOTE_D5, 91 }, 
	{ NOTE_E5, 114 }, 
	{ NOTE_D5, 114 }, 
	{ NOTE_C5, 114 }, 
	{ NOTE_B4, 110 }, 
	{ NOTE_D5, 91 }, 
	{ NOTE_E5, 91 }, 
	{ NOTE_F5, 91 }, 
	{ NOTE_G5, 91 }, 
	{ NOTE_F5, 91 }, 
	{ NOTE_G5, 76 }, 
	{ NOTE_A5, 76 }, 
	{ NOTE_B5, 76 }, 
	{ NOTE_C6, 76 }, 
	{ NOTE_D6, 76 }, 
	{ NOTE_E6, 76 }, 
	{ NOTE_FS6, 91 }, 
	{ NOTE_E6, 91 }, 
	{ NOTE_D6, 91 }, 
	{ NOTE_C6, 91 }, 
	{ NOTE_B5, 205 }, 
	{ NOTE_A5, 114 }, 
	{ NOTE_F5, 114 }, 
	{ NOTE_E5, 110 }, 
	{ NOTE_D5, 114 }, 
	{ NOTE_C5, 341 }, 
	{ NOTE_B4, 114 }, 
	{ NOTE_A4, 341 }, 
	{ NOTE_A4, 114 }, 
	{ NOTE_A4, 114 }, 
	{ NOTE_B4, 114 }, 
	{ NOTE_A4, 114 }, 
	{ NOTE_A4, 114 }, 
	{ NOTE_B4, 114 }, 
	{ NOTE_B4, 114 }, 
	{ NOTE_C5, 110 }, 
	{ NOTE_C5, 114 }, 
	{ NOTE_B4, 114 }, 
	{ NOTE_B4, 114 }, 
	{ NOTE_B4, 114 }, 
	{ NOTE_C5, 114 }, 
	{ NOTE_C5, 114 }, 
	{ NOTE_D5, 114 }, 
	{ NOTE_D5, 114 }, 
	{ NOTE_C5, 455 }, 
	{ NOTE_A3, 227 }, 
	{ NOTE_G3, 114 }, 
	{ NOTE_F3, 110 }, 
	{ NOTE_E3, 227 }, 
	{ NOTE_A3, 114 }, 
	{ NOTE_B3, 227 }, 
	{ NOTE_G3, 114 }, 
	{ NOTE_E3, 227 }, 
	{ NOTE_F3, 114 }, 
	{ NOTE_G3, 114 }, 
	{ NOTE_F3, 114 }, 
	{ NOTE_E3, 114 }, 
	{ NOTE_A3, 227 }, 
	{ NOTE_G3, 114 }, 
	{ NOTE_F3, 112 }, 
	{ NOTE_E3, 227 }, 
	{ NOTE_B3, 114 }, 
	{ NOTE_C4, 227 }, 
	{ NOTE_G3, 114 }, 
	{ NOTE_E3, 227 }, 
	{ NOTE_D4, 114 }, 
	{ NOTE_E4, 114 }, 
	{ NOTE_D4, 114 }, 
	{ NOTE_E4, 114 }, 
	{ NOTE_A3, 227 }, 
	{ NOTE_G3, 114 }, 
	{ NOTE_F3, 112 }, 
	{ NOTE_E3, 227 }, 
	{ NOTE_A3, 114 }, 
	{ NOTE_B3, 227 }, 
	{ NOTE_G3, 114 }, 
	{ NOTE_E3, 227 }, 
	{ NOTE_F3, 114 }, 
	{ NOTE_G3, 114 }, 
	{ NOTE_F3, 114 }, 
	{ NOTE_E3, 113 }, 
	{ NOTE_REST, 114 }, 
	{ NOTE_A3, 114 }, 
	{ NOTE_B3, 227 }, 
	{ NOTE_G3, 114 }, 
	{ NOTE_E3, 114 }, 
	{ NOTE_REST, 114 }, 
	{ NOTE_D4, 114 }, 
	{ NOTE_E4, 114 }, 
	{ NOTE_REST, 114 }, 
	{ NOTE_F4, 114 }, 
	{ NOTE_E4, 341 }, 
	{ NOTE_C4, 114 }, 
	{ NOTE_B3, 114 }, 
	{ NOTE_A3, 227 }, 
	{ NOTE_G3, 114 }, 
	{ NOTE_F3, 110 }, 
	{ NOTE_E3, 227 }, 
	{ NOTE_A3, 114 }, 
	{ NOTE_B3, 227 }, 
	{ NOTE_G3, 114 }, 
	{ NOTE_E3, 227 }, 
	{ NOTE_F3, 114 }, 
	{ NOTE_G3, 114 }, 
	{ NOTE_F3, 114 }, 
	{ NOTE_E3, 114 }, 
	{ NOTE_A3, 227 }, 
	{ NOTE_G3, 114 }, 
	{ NOTE_F3, 112 }, 
	{ NOTE_E3, 227 }, 
	{ NOTE_B3, 114 }, 
	{ NOTE_C4, 227 }, 
	{ NOTE_G3, 114 }, 
	{ NOTE_E3, 227 }, 
	{ NOTE_D4, 114 }, 
	{ NOTE_E4, 114 }, 
	{ NOTE_D4, 114 }, 
	{ NOTE_E4, 114 }, 
	{ NOTE_A3, 227 }, 
	{ NOTE_G3, 114 }, 
	{ NOTE_F3, 112 }, 
	{ NOTE_E3, 227 }, 
	{ NOTE_A3, 114 }, 
	{ NOTE_B3, 227 }, 
	{ NOTE_G3, 114 }, 
	{ NOTE_E3, 227 }, 
	{ NOTE_F3, 114 }, 
	{ NOTE_G3, 114 }, 
	{ NOTE_F3, 114 }, 
	{ NOTE_E3, 113 }, 
	{ NOTE_REST, 114 }, 
	{ NOTE_A3, 114 }, 
	{ NOTE_B3, 227 }, 
	{ NOTE_G3, 114 }, 
	{ NOTE_E3, 114 }, 
	{ NOTE_REST, 114 }, 
	{ NOTE_D4, 114 }, 
	{ NOTE_E4, 227 }, 
	{ NOTE_F4, 114 }, 
	{ NOTE_E4, 341 }, 
	{ NOTE_C4, 114 }, 
	{ NOTE_B3, 111 }, 
	{ NOTE_A3, 114 }, 
	{ NOTE_E3, 114 }, 
	{ NOTE_G3, 114 }, 
	{ NOTE_F3, 114 }, 
	{ NOTE_E3, 114 }, 
	{ NOTE_E3, 114 }, 
	{ NOTE_A3, 114 }, 
	{ NOTE_B3, 114 }, 
	{ NOTE_E3, 114 }, 
	{ NOTE_G3, 114 }, 
	{ NOTE_E3, 114 }, 
	{ NOTE_E3, 114 }, 
	{ NOTE_F3, 114 }, 
	{ NOTE_G3, 114 }, 
	{ NOTE_F3, 114 }, 
	{ NOTE_E3, 108 }, 
	{ NOTE_A3, 114 }, 
	{ NOTE_E3, 114 }, 
	{ NOTE_G3, 114 }, 
	{ NOTE_F3, 114 }, 
	{ NOTE_E3, 114 }, 
	{ NOTE_E3, 114 }, 
	{ NOTE_A3, 114 }, 
	{ NOTE_B3, 114 }, 
	{ NOTE_E3, 114 }, 
	{ NOTE_G3, 114 }, 
	{ NOTE_E3, 114 }, 
	{ NOTE_E3, 114 }, 
	{ NOTE_F3, 114 }, 
	{ NOTE_G3, 114 }, 
	{ NOTE_F3, 114 }, 
	{ NOTE_E3, 108 }, 
	{ NOTE_A3, 114 }, 
	{ NOTE_E3, 114 }, 
	{ NOTE_G3, 114 }, 
	{ NOTE_F3, 114 }, 
	{ NOTE_E3, 114 }, 
	{ NOTE_E3, 114 }, 
	{ NOTE_A3, 114 }, 
	{ NOTE_B3, 114 }, 
	{ NOTE_E3, 114 }, 
	{ NOTE_G3, 114 }, 
	{ NOTE_E3, 114 }, 
	{ NOTE_E3, 114 }, 
	{ NOTE_F3, 114 }, 
	{ NOTE_G3, 114 }, 
	{ NOTE_F3, 114 }, 
	{ NOTE_E3, 108 }, 
	{ NOTE_A3, 114 }, 
	{ NOTE_E3, 114 }, 
	{ NOTE_G3, 114 }, 
	{ NOTE_F3, 114 }, 
	{ NOTE_E3, 114 }, 
	{ NOTE_E3, 114 }, 
	{ NOTE_A3, 114 }, 
	{ NOTE_B3, 114 }, 
	{ NOTE_E3, 114 }, 
	{ NOTE_G3, 114 }, 
	{ NOTE_E3, 114 }, 
	{ NOTE_E3, 114 }, 
	{ NOTE_F3, 114 }, 
	{ NOTE_G3, 114 }, 
	{ NOTE_F3, 114 }, 
	{ NOTE_E3, 108 }, 
	{ NOTE_A3, 114 }, 
	{ NOTE_E3, 114 }, 
	{ NOTE_G3, 114 }, 
	{ NOTE_F3, 114 }, 
	{ NOTE_E3, 114 }, 
	{ NOTE_E3, 114 }, 
	{ NOTE_A3, 114 }, 
	{ NOTE_B3, 114 }, 
	{ NOTE_E3, 114 }, 
	{ NOTE_G3, 114 }, 
	{ NOTE_E3, 114 }, 
	{ NOTE_E3, 114 }, 
	{ NOTE_F3, 114 }, 
	{ NOTE_G3, 114 }, 
	{ NOTE_F3, 114 }, 
	{ NOTE_E3, 108 }, 
	{ NOTE_A3, 114 }, 
	{ NOTE_E3, 114 }, 
	{ NOTE_G3, 114 }, 
	{ NOTE_F3, 114 }, 
	{ NOTE_E3, 114 }, 
	{ NOTE_E3, 114 }, 
	{ NOTE_B3, 114 }, 
	{ NOTE_C4, 114 }, 
	{ NOTE_E3, 114 }, 
	{ NOTE_G3, 114 }, 
	{ NOTE_E3, 114 }, 
	{ NOTE_E3, 114 }, 
	{ NOTE_D4, 114 }, 
	{ NOTE_E4, 114 }, 
	{ NOTE_D4, 114 }, 
	{ NOTE_E4, 108 }, 
	{ NOTE_A3, 114 }, 
	{ NOTE_E3, 114 }, 
	{ NOTE_G3, 114 }, 
	{ NOTE_F3, 114 }, 
	{ NOTE_E3, 114 }, 
	{ NOTE_E3, 114 }, 
	{ NOTE_A3, 114 }, 
	{ NOTE_B3, 114 }, 
	{ NOTE_E3, 114 }, 
	{ NOTE_G3, 114 }, 
	{ NOTE_E3, 114 }, 
	{ NOTE_E3, 114 }, 
	{ NOTE_F3, 114 }, 
	{ NOTE_G3, 114 }, 
	{ NOTE_F3, 114 }, 
	{ NOTE_E3, 108 }, 
	{ NOTE_E3, 114 }, 
	{ NOTE_A3, 114 }, 
	{ NOTE_B3, 114 }, 
	{ NOTE_E3, 114 }, 
	{ NOTE_G3, 114 }, 
	{ NOTE_E3, 114 }, 
	{ NOTE_E3, 114 }, 
	{ NOTE_D4, 114 }, 
	{ NOTE_E4, 114 }, 
	{ NOTE_E3, 114 }, 
	{ NOTE_F4, 114 }, 
	{ NOTE_E4, 341 }, 
	{ NOTE_F4, 114 }, 
	{ NOTE_E4, 109 }, 
	{ NOTE_D4, 114 }, 
	{ NOTE_A3, 114 }, 
	{ NOTE_C4, 114 }, 
	{ NOTE_B3, 114 }, 
	{ NOTE_A3, 114 }, 
	{ NOTE_A3, 114 }, 
	{ NOTE_D4, 114 }, 
	{ NOTE_E4, 114 }, 
	{ NOTE_A3, 114 }, 
	{ NOTE_C4, 114 }, 
	{ NOTE_A3, 114 }, 
	{ NOTE_A3, 114 }, 
	{ NOTE_B3, 114 }, 
	{ NOTE_C4, 114 }, 
	{ NOTE_B3, 114 }, 
	{ NOTE_A3, 108 }, 
	{ NOTE_D4, 114 }, 
	{ NOTE_A3, 114 }, 
	{ NOTE_C4, 114 }, 
	{ NOTE_B3, 114 }, 
	{ NOTE_A3, 114 }, 
	{ NOTE_A3, 114 }, 
	{ NOTE_D4, 114 }, 
	{ NOTE_E4, 114 }, 
	{ NOTE_A3, 114 }, 
	{ NOTE_C4, 114 }, 
	{ NOTE_A3, 114 }, 
	{ NOTE_A3, 114 }, 
	{ NOTE_B3, 114 }, 
	{ NOTE_C4, 114 }, 
	{ NOTE_B3, 114 }, 
	{ NOTE_A3, 108 }, 
	{ NOTE_D4, 114 }, 
	{ NOTE_A3, 114 }, 
	{ NOTE_C4, 114 }, 
	{ NOTE_B3, 114 }, 
	{ NOTE_A3, 114 }, 
	{ NOTE_A3, 114 }, 
	{ NOTE_D4, 114 }, 
	{ NOTE_E4, 114 }, 
	{ NOTE_A3, 114 }, 
	{ NOTE_C4, 114 }, 
	{ NOTE_A3, 114 }, 
	{ NOTE_A3, 114 }, 
	{ NOTE_B3, 114 }, 
	{ NOTE_C4, 114 }, 
	{ NOTE_B3, 114 }, 
	{ NOTE_A3, 108 }, 
	{ NOTE_D4, 114 }, 
	{ NOTE_A3, 114 }, 
	{ NOTE_C4, 114 }, 
	{ NOTE_B3, 114 }, 
	{ NOTE_A3, 114 }, 
	{ NOTE_A3, 114 }, 
	{ NOTE_D4, 114 }, 
	{ NOTE_E4, 114 }, 
	{ NOTE_A3, 114 }, 
	{ NOTE_C4, 114 }, 
	{ NOTE_A3, 114 }, 
	{ NOTE_A3, 114 }, 
	{ NOTE_B3, 114 }, 
	{ NOTE_C4, 114 }, 
	{ NOTE_B3, 114 }, 
	{ NOTE_A3, 108 }, 
	{ NOTE_D4, 114 }, 
	{ NOTE_A3, 114 }, 
	{ NOTE_C4, 114 }, 
	{ NOTE_B3, 114 }, 
	{ NOTE_A3, 114 }, 
	{ NOTE_A3, 114 }, 
	{ NOTE_D4, 114 }, 
	{ NOTE_E4, 114 }, 
	{ NOTE_A3, 114 }, 
	{ NOTE_C4, 114 }, 
	{ NOTE_A3, 114 }, 
	{ NOTE_A3, 114 }, 
	{ NOTE_B3, 114 }, 
	{ NOTE_C4, 114 }, 
	{ NOTE_B3, 114 }, 
	{ NOTE_A3, 108 }, 
	{ NOTE_D4, 114 }, 
	{ NOTE_A3, 114 }, 
	{ NOTE_C4, 114 }, 
	{ NOTE_B3, 114 }, 
	{ NOTE_A3, 114 }, 
	{ NOTE_A3, 114 }, 
	{ NOTE_D4, 114 }, 
	{ NOTE_A4, 114 }, 
	{ NOTE_G4, 114 }, 
	{ NOTE_E4, 114 }, 
	{ NOTE_G4, 114 }, 
	{ NOTE_E4, 114 }, 
	{ NOTE_D4, 114 }, 
	{ NOTE_E4, 114 }, 
	{ NOTE_D4, 114 }, 
	{ NOTE_C4, 108 }, 
	{ NOTE_D4, 114 }, 
	{ NOTE_A3, 114 }, 
	{ NOTE_C4, 114 }, 
	{ NOTE_B3, 114 }, 
	{ NOTE_A3, 114 }, 
	{ NOTE_A3, 114 }, 
	{ NOTE_D4, 114 }, 
	{ NOTE_E4, 114 }, 
	{ NOTE_A3, 114 }, 
	{ NOTE_C4, 114 }, 
	{ NOTE_A3, 114 }, 
	{ NOTE_A3, 114 }, 
	{ NOTE_B3, 114 }, 
	{ NOTE_C4, 114 }, 
	{ NOTE_B3, 114 }, 
	{ NOTE_A3, 108 }, 
	{ NOTE_D4, 114 }, 
	{ NOTE_A3, 114 }, 
	{ NOTE_C4, 114 }, 
	{ NOTE_B3, 114 }, 
	{ NOTE_A3, 114 }, 
	{ NOTE_A3, 114 }, 
	{ NOTE_D4, 114 }, 
	{ NOTE_A4, 114 }, 
	{ NOTE_REST, 114 }, 
	{ NOTE_G4, 114 }, 
	{ NOTE_REST, 114 }, 
	{ NOTE_D4, 114 }, 
	{ NOTE_REST, 114 }, 
	{ NOTE_D4, 114 }, 
	{ NOTE_B3, 114 }, 
	{ NOTE_A3, 108 }, 
	{ NOTE_D4, 114 }, 
	{ NOTE_A3, 114 }, 
	{ NOTE_C4, 114 }, 
	{ NOTE_B3, 114 }, 
	{ NOTE_A3, 114 }, 
	{ NOTE_A3, 114 }, 
	{ NOTE_D4, 114 }, 
	{ NOTE_E4, 114 }, 
	{ NOTE_A3, 114 }, 
	{ NOTE_C4, 114 }, 
	{ NOTE_A3, 114 }, 
	{ NOTE_A3, 114 }, 
	{ NOTE_B3, 114 }, 
	{ NOTE_C4, 114 }, 
	{ NOTE_B3, 114 }, 
	{ NOTE_A3, 108 }, 
	{ NOTE_E4, 114 }, 
	{ NOTE_A3, 114 }, 
	{ NOTE_D4, 114 }, 
	{ NOTE_C4, 114 }, 
	{ NOTE_A3, 114 }, 
	{ NOTE_A3, 114 }, 
	{ NOTE_E4, 114 }, 
	{ NOTE_F4, 114 }, 
	{ NOTE_A3, 114 }, 
	{ NOTE_D4, 114 }, 
	{ NOTE_A3, 114 }, 
	{ NOTE_A3, 114 }, 
	{ NOTE_C4, 114 }, 
	{ NOTE_D4, 114 }, 
	{ NOTE_C4, 114 }, 
	{ NOTE_A3, 108 }, 
	{ NOTE_F4, 114 }, 
	{ NOTE_A3, 114 }, 
	{ NOTE_E4, 114 }, 
	{ NOTE_D4, 114 }, 
	{ NOTE_A3, 114 }, 
	{ NOTE_A3, 114 }, 
	{ NOTE_F4, 114 }, 
	{ NOTE_G4, 114 }, 
	{ NOTE_A3, 114 }, 
	{ NOTE_E4, 114 }, 
	{ NOTE_A3, 114 }, 
	{ NOTE_A3, 114 }, 
	{ NOTE_D4, 114 }, 
	{ NOTE_E4, 114 }, 
	{ NOTE_D4, 114 }, 
	{ NOTE_A3, 108 }, 
	{ NOTE_G4, 114 }, 
	{ NOTE_A3, 114 }, 
	{ NOTE_F4, 114 }, 
	{ NOTE_E4, 114 }, 
	{ NOTE_A3, 114 }, 
	{ NOTE_A3, 114 }, 
	{ NOTE_G4, 114 }, 
	{ NOTE_A4, 114 }, 
	{ NOTE_A3, 114 }, 
	{ NOTE_F4, 114 }, 
	{ NOTE_A3, 114 }, 
	{ NOTE_A3, 114 }, 
	{ NOTE_E4, 114 }, 
	{ NOTE_F4, 114 }, 
	{ NOTE_E4, 114 }, 
	{ NOTE_A3, 108 }, 
	{ NOTE_A4, 114 }, 
	{ NOTE_A3, 114 }, 
	{ NOTE_G4, 114 }, 
	{ NOTE_F4, 114 }, 
	{ NOTE_A3, 114 }, 
	{ NOTE_A3, 114 }, 
	{ NOTE_A4, 111 }, 
	{ NOTE_B4, 114 }, 
	{ NOTE_A3, 114 }, 
	{ NOTE_A4, 114 }, 
	{ NOTE_G4, 114 }, 
	{ NOTE_A3, 114 }, 
	{ NOTE_A3, 114 }, 
	{ NOTE_B4, 111 }, 
	{ NOTE_C5, 114 }, 
	{ NOTE_A3, 114 }, 
	{ NOTE_B4, 114 }, 
	{ NOTE_A4, 114 }, 
	{ NOTE_A3, 114 }, 
	{ NOTE_A3, 114 }, 
	{ NOTE_C5, 111 }, 
	{ NOTE_D5, 114 }, 
	{ NOTE_A3, 114 }, 
	{ NOTE_C5, 114 }, 
	{ NOTE_B4, 114 }, 
	{ NOTE_A3, 114 }, 
	{ NOTE_A3, 114 }, 
	{ NOTE_D5, 111 }, 
	{ NOTE_E5, 114 }, 
	{ NOTE_A3, 114 }, 
	{ NOTE_D5, 114 }, 
	{ NOTE_C5, 114 }, 
	{ NOTE_A3, 114 }, 
	{ NOTE_E5, 112 }, 
	{ NOTE_F5, 114 }, 
	{ NOTE_A3, 114 }, 
	{ NOTE_E5, 114 }, 
	{ NOTE_D5, 114 }, 
	{ NOTE_A3, 114 }, 
	{ NOTE_F5, 112 }, 
	{ NOTE_G5, 114 }, 
	{ NOTE_A3, 114 }, 
	{ NOTE_F5, 114 }, 
	{ NOTE_E5, 114 }, 
	{ NOTE_A3, 114 }, 
	{ NOTE_G5, 112 }, 
	{ NOTE_A5, 114 }, 
	{ NOTE_A3, 114 }, 
	{ NOTE_G5, 114 }, 
	{ NOTE_A5, 114 }, 
	{ NOTE_A3, 114 }, 
	{ NOTE_G5, 112 }, 
	{ NOTE_A5, 114 }, 
	{ NOTE_A3, 114 }, 
	{ NOTE_G5, 114 }, 
	{ NOTE_A5, 340 }, 
	{ NOTE_E3, 114 }, 
	{ NOTE_F3, 114 }, 
	{ NOTE_C4, 114 }, 
	{ NOTE_B3, 114 }, 
	{ NOTE_B3, 114 }, 
	{ NOTE_C4, 114 }, 
	{ NOTE_F4, 111 }, 
	{ NOTE_E4, 114 }, 
	{ NOTE_F4, 114 }, 
	{ NOTE_C5, 114 }, 
	{ NOTE_B4, 114 }, 
	{ NOTE_B4, 114 }, 
	{ NOTE_C5, 114 }, 
	{ NOTE_F5, 111 }, 
	{ NOTE_E5, 114 }, 
	{ NOTE_F5, 114 }, 
	{ NOTE_C6, 114 }, 
	{ NOTE_B5, 114 }, 
	{ NOTE_B5, 114 }, 
	{ NOTE_C6, 114 }, 
	{ NOTE_F6, 111 }, 
	{ NOTE_E6, 1818 }, 
	{ NOTE_A5, 147 }, 
	{ NOTE_A3, 147 }, 
	{ NOTE_A5, 147 }, 
	{ NOTE_A3, 147 }, 
	{ NOTE_A3, 147 }, 
	{ NOTE_A5, 147 }, 
	{ NOTE_A3, 147 }, 
	{ NOTE_A5, 147 }, 
	{ NOTE_A3, 147 }, 
	{ NOTE_A3, 147 }, 
	{ NOTE_A5, 147 }, 
	{ NOTE_A3, 147 }, 
	{ NOTE_A5, 147 }, 
	{ NOTE_A3, 147 }, 
	{ NOTE_A5, 147 }, 
	{ NOTE_A3, 147 }, 
	{ NOTE_A3, 147 }, 
	{ NOTE_A5, 147 }, 
	{ NOTE_A3, 147 }, 
	{ NOTE_A5, 147 }, 
	{ NOTE_A3, 147 }, 
	{ NOTE_A3, 147 }, 
	{ NOTE_A5, 147 }, 
	{ NOTE_A3, 147 }, 
	{ NOTE_A5, 147 }, 
	{ NOTE_A3, 147 }, 
	{ NOTE_A5, 147 }, 
	{ NOTE_A3, 147 }, 
	{ NOTE_A3, 147 }, 
	{ NOTE_A5, 147 }, 
	{ NOTE_A3, 147 }, 
	{ NOTE_A5, 147 }, 
	{ NOTE_A3, 147 }, 
	{ NOTE_A3, 147 }, 
	{ NOTE_A5, 147 }, 
	{ NOTE_A3, 147 }, 
	{ NOTE_A5, 147 }, 
	{ NOTE_A3, 147 }, 
	{ NOTE_A3, 147 }, 
	{ NOTE_A5, 147 }, 
	{ NOTE_A3, 147 }, 
	{ NOTE_A5, 147 }, 
	{ NOTE_A3, 147 }, 
	{ NOTE_A5, 147 }, 
	{ NOTE_A3, 147 }, 
	{ NOTE_A3, 147 }, 
	{ NOTE_A3, 147 }, 
	{ NOTE_A4, 147 }, 
	{ NOTE_REST, 147 }, 
	{ NOTE_E3, 147 }, 
	{ NOTE_F4, 441 }, 
	{ NOTE_C4, 442 }, 
	{ NOTE_A3, 441 }, 
	{ NOTE_REST, 147 }, 
	{ NOTE_A4, 147 }, 
	{ NOTE_A4, 147 }, 
	{ NOTE_REST, 147 }, 
	{ NOTE_F4, 442 }, 
	{ NOTE_G3, 1210 }, 
	{ NOTE_AB3, 725 }, 
	{ NOTE_G3, 1210 }, 
	{ NOTE_F3, 484 }, 
	{ NOTE_E3, 1452 }, 
	{ NOTE_C3, 726 }, 
	{ NOTE_GB3, 726 }, 
	{ NOTE_G3, 1210 }, 
	{ NOTE_AB3, 725 }, 
	{ NOTE_G3, 1210 }, 
	{ NOTE_F3, 484 }, 
	{ NOTE_E4, 1017 }, 
	{ NOTE_F4, 508 }, 
	{ NOTE_D4, 1017 }, 
	{ NOTE_DB4, 508 }, 
	{ NOTE_A3, 508 }, 
	{ NOTE_F3, 509 }, 
	{ NOTE_E4, 1017 }, 
	{ NOTE_F4, 508 }, 
	{ NOTE_D4, 1017 }, 
	{ NOTE_DB4, 847 }, 
	{ NOTE_A3, 508 }, 
	{ NOTE_AB3, 677 }, 
	{ NOTE_GB3, 510 }, 
	{ NOTE_E4, 1017 }, 
	{ NOTE_F4, 508 }, 
	{ NOTE_D4, 1017 }, 
	{ NOTE_DB4, 508 }, 
	{ NOTE_A3, 508 }, 
	{ NOTE_F3, 509 }, 
	{ NOTE_E4, 1017 }, 
	{ NOTE_F4, 508 }, 
	{ NOTE_D4, 1017 }, 
	{ NOTE_DB4, 847 }, 
	{ NOTE_A3, 508 }, 
	{ NOTE_AB3, 677 }, 
	{ NOTE_GB3, 169 }, 
	{ NOTE_GB3, 169 }, 
	{ NOTE_GB3, 172 }, 
	{ NOTE_E4, 1017 }, 
	{ NOTE_F4, 508 }, 
	{ NOTE_D4, 508 }, 
	{ NOTE_DB4, 508 }, 
	{ NOTE_A3, 1017 }, 
	{ NOTE_E4, 677 }, 
	{ NOTE_F4, 340 }, 
	{ NOTE_D4, 339 }, 
	{ NOTE_DB4, 339 }, 
	{ NOTE_A3, 339 }, 
	{ NOTE_BB3, 339 }, 
	{ NOTE_E4, 1017 }, 
	{ NOTE_F4, 508 }, 
	{ NOTE_D4, 508 }, 
	{ NOTE_DB4, 508 }, 
	{ NOTE_A3, 1017 }, 
	{ NOTE_E4, 677 }, 
	{ NOTE_F4, 340 }, 
	{ NOTE_D4, 339 }, 
	{ NOTE_DB4, 339 }, 
	{ NOTE_A3, 339 }, 
	{ NOTE_BB3, 339 }, 
	{ NOTE_E4, 134 }, 
	{ NOTE_GB4, 134 }, 
	{ NOTE_AB4, 134 }, 
	{ NOTE_EB5, 134 }, 
	{ NOTE_AB4, 134 }, 
	{ NOTE_D5, 134 }, 
	{ NOTE_BB4, 134 }, 
	{ NOTE_B4, 134 }, 
	{ NOTE_B4, 134 }, 
	{ NOTE_C5, 134 }, 
	{ NOTE_AB4, 134 }, 
	{ NOTE_A4, 133 }, 
	{ NOTE_E4, 134 }, 
	{ NOTE_GB4, 134 }, 
	{ NOTE_AB4, 134 }, 
	{ NOTE_EB5, 134 }, 
	{ NOTE_AB4, 134 }, 
	{ NOTE_D5, 134 }, 
	{ NOTE_BB4, 134 }, 
	{ NOTE_B4, 134 }, 
	{ NOTE_B4, 134 }, 
	{ NOTE_C5, 134 }, 
	{ NOTE_AB4, 134 }, 
	{ NOTE_A4, 134 }, 
	{ NOTE_BB4, 134 }, 
	{ NOTE_B4, 134 }, 
	{ NOTE_G4, 134 }, 
	{ NOTE_AB4, 133 }, 
	{ NOTE_E4, 134 }, 
	{ NOTE_GB4, 134 }, 
	{ NOTE_AB4, 134 }, 
	{ NOTE_EB5, 134 }, 
	{ NOTE_AB4, 134 }, 
	{ NOTE_D5, 134 }, 
	{ NOTE_BB4, 134 }, 
	{ NOTE_B4, 134 }, 
	{ NOTE_B4, 134 }, 
	{ NOTE_C5, 134 }, 
	{ NOTE_AB4, 134 }, 
	{ NOTE_A4, 133 }, 
	{ NOTE_E4, 134 }, 
	{ NOTE_GB4, 134 }, 
	{ NOTE_AB4, 134 }, 
	{ NOTE_EB5, 134 }, 
	{ NOTE_AB4, 134 }, 
	{ NOTE_D5, 134 }, 
	{ NOTE_BB4, 134 }, 
	{ NOTE_B4, 134 }, 
	{ NOTE_C5, 134 }, 
	{ NOTE_DB5, 134 }, 
	{ NOTE_D5, 134 }, 
	{ NOTE_EB5, 134 }, 
	{ NOTE_E5, 134 }, 
	{ NOTE_GB5, 134 }, 
	{ NOTE_G5, 134 }, 
	{ NOTE_AB5, 133 }, 
	{ NOTE_E4, 134 }, 
	{ NOTE_GB4, 134 }, 
	{ NOTE_AB4, 134 }, 
	{ NOTE_EB5, 134 }, 
	{ NOTE_AB4, 134 }, 
	{ NOTE_D5, 134 }, 
	{ NOTE_BB4, 134 }, 
	{ NOTE_B4, 134 }, 
	{ NOTE_B4, 134 }, 
	{ NOTE_C5, 134 }, 
	{ NOTE_AB4, 134 }, 
	{ NOTE_A4, 133 }, 
	{ NOTE_E4, 134 }, 
	{ NOTE_GB4, 134 }, 
	{ NOTE_AB4, 134 }, 
	{ NOTE_EB5, 134 }, 
	{ NOTE_AB4, 134 }, 
	{ NOTE_D5, 134 }, 
	{ NOTE_B4, 134 }, 
	{ NOTE_C5, 134 }, 
	{ NOTE_AB4, 134 }, 
	{ NOTE_A4, 133 }, 
	{ NOTE_E4, 134 }, 
	{ NOTE_GB4, 134 }, 
	{ NOTE_AB4, 134 }, 
	{ NOTE_EB5, 134 }, 
	{ NOTE_AB4, 134 }, 
	{ NOTE_D5, 134 }, 
	{ NOTE_BB4, 134 }, 
	{ NOTE_B4, 134 }, 
	{ NOTE_B4, 134 }, 
	{ NOTE_C5, 134 }, 
	{ NOTE_AB4, 134 }, 
	{ NOTE_A4, 133 }, 
	{ NOTE_E4, 134 }, 
	{ NOTE_GB4, 134 }, 
	{ NOTE_AB4, 134 }, 
	{ NOTE_EB5, 134 }, 
	{ NOTE_AB4, 134 }, 
	{ NOTE_D5, 134 }, 
	{ NOTE_B4, 134 }, 
	{ NOTE_C5, 134 }, 
	{ NOTE_AB4, 134 }, 
	{ NOTE_A4, 134 }, 
	{ NOTE_BB4, 134 }, 
	{ NOTE_B4, 134 }, 
	{ NOTE_G4, 134 }, 
	{ NOTE_AB4, 133 }, 
	{ NOTE_B4, 134 }, 
	{ NOTE_AB4, 134 }, 
	{ NOTE_BB4, 134 }, 
	{ NOTE_AB4, 134 }, 
	{ NOTE_E3, 134 }, 
	{ NOTE_B4, 134 }, 
	{ NOTE_AB4, 134 }, 
	{ NOTE_BB4, 134 }, 
	{ NOTE_AB4, 134 }, 
	{ NOTE_E3, 134 }, 
	{ NOTE_B4, 134 }, 
	{ NOTE_AB4, 134 }, 
	{ NOTE_BB4, 134 }, 
	{ NOTE_AB4, 134 }, 
	{ NOTE_E3, 134 }, 
	{ NOTE_G4, 134 }, 
	{ NOTE_AB4, 134 }, 
	{ NOTE_BB4, 134 }, 
	{ NOTE_B4, 134 }, 
	{ NOTE_DB5, 134 }, 
	{ NOTE_D5, 134 }, 
	{ NOTE_E3, 134 }, 
	{ NOTE_GB3, 134 }, 
	{ NOTE_AB3, 134 }, 
	{ NOTE_EB4, 134 }, 
	{ NOTE_AB3, 134 }, 
	{ NOTE_D4, 134 }, 
	{ NOTE_BB3, 134 }, 
	{ NOTE_B3, 134 }, 
	{ NOTE_B3, 134 }, 
	{ NOTE_C4, 134 }, 
	{ NOTE_AB3, 134 }, 
	{ NOTE_A3, 133 }, 
	{ NOTE_E3, 134 }, 
	{ NOTE_GB3, 134 }, 
	{ NOTE_AB3, 134 }, 
	{ NOTE_EB4, 134 }, 
	{ NOTE_AB3, 134 }, 
	{ NOTE_D4, 134 }, 
	{ NOTE_BB3, 134 }, 
	{ NOTE_B3, 134 }, 
	{ NOTE_B3, 134 }, 
	{ NOTE_C4, 134 }, 
	{ NOTE_AB3, 134 }, 
	{ NOTE_A3, 134 }, 
	{ NOTE_BB3, 134 }, 
	{ NOTE_B3, 134 }, 
	{ NOTE_G3, 134 }, 
	{ NOTE_AB3, 133 }, 
	{ NOTE_E3, 134 }, 
	{ NOTE_GB3, 134 }, 
	{ NOTE_AB3, 134 }, 
	{ NOTE_EB4, 134 }, 
	{ NOTE_AB3, 134 }, 
	{ NOTE_D4, 134 }, 
	{ NOTE_BB3, 134 }, 
	{ NOTE_B3, 134 }, 
	{ NOTE_B3, 134 }, 
	{ NOTE_C4, 134 }, 
	{ NOTE_AB3, 134 }, 
	{ NOTE_A3, 133 }, 
	{ NOTE_E3, 134 }, 
	{ NOTE_GB3, 134 }, 
	{ NOTE_AB3, 134 }, 
	{ NOTE_EB4, 134 }, 
	{ NOTE_AB3, 134 }, 
	{ NOTE_D4, 134 }, 
	{ NOTE_BB3, 134 }, 
	{ NOTE_B3, 134 }, 
	{ NOTE_C4, 134 }, 
	{ NOTE_DB4, 134 }, 
	{ NOTE_D4, 134 }, 
	{ NOTE_EB4, 134 }, 
	{ NOTE_E4, 134 }, 
	{ NOTE_GB4, 134 }, 
	{ NOTE_G4, 134 }, 
	{ NOTE_AB4, 133 }, 
	{ NOTE_E3, 134 }, 
	{ NOTE_GB3, 134 }, 
	{ NOTE_AB3, 134 }, 
	{ NOTE_EB4, 134 }, 
	{ NOTE_AB3, 134 }, 
	{ NOTE_D4, 134 }, 
	{ NOTE_BB3, 134 }, 
	{ NOTE_B3, 134 }, 
	{ NOTE_B3, 134 }, 
	{ NOTE_C4, 134 }, 
	{ NOTE_AB3, 134 }, 
	{ NOTE_A3, 133 }, 
	{ NOTE_E3, 134 }, 
	{ NOTE_GB3, 134 }, 
	{ NOTE_AB3, 134 }, 
	{ NOTE_EB4, 134 }, 
	{ NOTE_AB3, 134 }, 
	{ NOTE_D4, 134 }, 
	{ NOTE_B3, 134 }, 
	{ NOTE_C4, 134 }, 
	{ NOTE_AB3, 134 }, 
	{ NOTE_A3, 133 }, 
	{ NOTE_E3, 134 }, 
	{ NOTE_GB3, 134 }, 
	{ NOTE_AB3, 134 }, 
	{ NOTE_EB4, 134 }, 
	{ NOTE_AB3, 134 }, 
	{ NOTE_D4, 134 }, 
	{ NOTE_BB3, 134 }, 
	{ NOTE_B3, 134 }, 
	{ NOTE_B3, 134 }, 
	{ NOTE_C4, 134 }, 
	{ NOTE_AB3, 134 }, 
	{ NOTE_A3, 133 }, 
	{ NOTE_E3, 134 }, 
	{ NOTE_GB3, 134 }, 
	{ NOTE_AB3, 134 }, 
	{ NOTE_EB4, 134 }, 
	{ NOTE_AB3, 134 }, 
	{ NOTE_D4, 134 }, 
	{ NOTE_B3, 134 }, 
	{ NOTE_C4, 134 }, 
	{ NOTE_AB3, 134 }, 
	{ NOTE_A3, 134 }, 
	{ NOTE_BB3, 134 }, 
	{ NOTE_B3, 134 }, 
	{ NOTE_G3, 134 }, 
	{ NOTE_AB3, 133 }, 
	{ NOTE_B3, 134 }, 
	{ NOTE_AB3, 134 }, 
	{ NOTE_BB3, 134 }, 
	{ NOTE_AB3, 134 }, 
	{ NOTE_E3, 134 }, 
	{ NOTE_B3, 134 }, 
	{ NOTE_AB3, 134 }, 
	{ NOTE_BB3, 134 }, 
	{ NOTE_AB3, 134 }, 
	{ NOTE_E3, 134 }, 
	{ NOTE_B3, 134 }, 
	{ NOTE_AB3, 134 }, 
	{ NOTE_BB3, 134 }, 
	{ NOTE_AB3, 134 }, 
	{ NOTE_E3, 134 }, 
	{ NOTE_G3, 134 }, 
	{ NOTE_AB3, 134 }, 
	{ NOTE_BB3, 134 }, 
	{ NOTE_B3, 134 }, 
	{ NOTE_DB4, 134 }, 
	{ NOTE_D4, 134 }, 
	{ NOTE_E4, 134 }, 
	{ NOTE_DB4, 134 }, 
	{ NOTE_EB4, 134 }, 
	{ NOTE_DB4, 134 }, 
	{ NOTE_A3, 134 }, 
	{ NOTE_E4, 134 }, 
	{ NOTE_DB4, 134 }, 
	{ NOTE_EB4, 134 }, 
	{ NOTE_DB4, 134 }, 
	{ NOTE_A3, 134 }, 
	{ NOTE_E4, 134 }, 
	{ NOTE_DB4, 134 }, 
	{ NOTE_EB4, 134 }, 
	{ NOTE_DB4, 134 }, 
	{ NOTE_A3, 134 }, 
	{ NOTE_C4, 134 }, 
	{ NOTE_DB4, 134 }, 
	{ NOTE_EB4, 134 }, 
	{ NOTE_E4, 134 }, 
	{ NOTE_GB4, 134 }, 
	{ NOTE_G4, 134 }, 
	{ NOTE_E4, 134 }, 
	{ NOTE_GB4, 134 }, 
	{ NOTE_E4, 134 }, 
	{ NOTE_C4, 134 }, 
	{ NOTE_G4, 134 }, 
	{ NOTE_E4, 134 }, 
	{ NOTE_GB4, 134 }, 
	{ NOTE_E4, 134 }, 
	{ NOTE_GB4, 134 }, 
	{ NOTE_E4, 134 }, 
	{ NOTE_C4, 133 }, 
	{ NOTE_G4, 134 }, 
	{ NOTE_E4, 134 }, 
	{ NOTE_GB4, 134 }, 
	{ NOTE_E4, 134 }, 
	{ NOTE_C4, 134 }, 
	{ NOTE_E4, 134 }, 
	{ NOTE_GB4, 134 }, 
	{ NOTE_G4, 134 }, 
	{ NOTE_A4, 134 }, 
	{ NOTE_BB4, 134 }, 
	{ NOTE_C5, 134 }, 
	{ NOTE_DB5, 134 }, 
	{ NOTE_BB4, 134 }, 
	{ NOTE_C5, 134 }, 
	{ NOTE_AB4, 134 }, 
	{ NOTE_F4, 134 }, 
	{ NOTE_DB5, 134 }, 
	{ NOTE_BB4, 134 }, 
	{ NOTE_C5, 134 }, 
	{ NOTE_AB4, 134 }, 
	{ NOTE_F4, 134 }, 
	{ NOTE_DB5, 134 }, 
	{ NOTE_BB4, 134 }, 
	{ NOTE_C5, 134 }, 
	{ NOTE_AB4, 134 }, 
	{ NOTE_F4, 134 }, 
	{ NOTE_G4, 144 }, 
	{ NOTE_AB4, 144 }, 
	{ NOTE_G4, 144 }, 
	{ NOTE_F4, 144 }, 
	{ NOTE_EB4, 144 }, 
	{ NOTE_DB4, 144 }, 
	{ NOTE_C4, 146 }, 
	{ NOTE_B3, 433 }, 
	{ NOTE_GB4, 288 }, 
	{ NOTE_B3, 144 }, 
	{ NOTE_F4, 288 }, 
	{ NOTE_EB4, 288 }, 
	{ NOTE_DB4, 290 }, 
	{ NOTE_B3, 433 }, 
	{ NOTE_GB4, 288 }, 
	{ NOTE_B3, 144 }, 
	{ NOTE_F4, 144 }, 
	{ NOTE_GB4, 72 }, 
	{ NOTE_F4, 72 }, 
	{ NOTE_EB4, 144 }, 
	{ NOTE_DB4, 144 }, 
	{ NOTE_B3, 144 }, 
	{ NOTE_AB3, 146 }, 
	{ NOTE_DB4, 433 }, 
	{ NOTE_AB4, 288 }, 
	{ NOTE_DB4, 144 }, 
	{ NOTE_GB4, 288 }, 
	{ NOTE_F4, 288 }, 
	{ NOTE_EB4, 290 }, 
	{ NOTE_DB4, 433 }, 
	{ NOTE_AB4, 288 }, 
	{ NOTE_DB4, 144 }, 
	{ NOTE_GB4, 144 }, 
	{ NOTE_AB4, 72 }, 
	{ NOTE_GB4, 72 }, 
	{ NOTE_F4, 144 }, 
	{ NOTE_EB4, 144 }, 
	{ NOTE_DB4, 144 }, 
	{ NOTE_B3, 144 }, 
	{ NOTE_DB4, 144 }, 
	{ NOTE_EB4, 146 }, 
	{ NOTE_A3, 450 }, 
	{ NOTE_E4, 300 }, 
	{ NOTE_A3, 150 }, 
	{ NOTE_EB4, 300 }, 
	{ NOTE_DB4, 300 }, 
	{ NOTE_B3, 300 }, 
	{ NOTE_A3, 450 }, 
	{ NOTE_E4, 300 }, 
	{ NOTE_A3, 150 }, 
	{ NOTE_GB4, 150 }, 
	{ NOTE_E4, 150 }, 
	{ NOTE_EB4, 150 }, 
	{ NOTE_DB4, 150 }, 
	{ NOTE_B3, 150 }, 
	{ NOTE_A3, 150 }, 
	{ NOTE_GB3, 450 }, 
	{ NOTE_DB4, 300 }, 
	{ NOTE_GB3, 150 }, 
	{ NOTE_C4, 300 }, 
	{ NOTE_BB3, 300 }, 
	{ NOTE_AB3, 300 }, 
	{ NOTE_GB3, 750 }, 
	{ NOTE_DB4, 500 }, 
	{ NOTE_GB3, 250 }, 
	{ NOTE_EB4, 250 }, 
	{ NOTE_DB4, 250 }, 
	{ NOTE_C4, 250 }, 
	{ NOTE_BB3, 250 }, 
	{ NOTE_AB3, 250 }, 
	{ NOTE_GB3, 250 }, 
	{ NOTE_E3, 484 }, 
	{ NOTE_E3, 242 }, 
	{ NOTE_E3, 242 }, 
	{ NOTE_E3, 242 }, 
	{ NOTE_B3, 484 }, 
	{ NOTE_B3, 484 }, 
	{ NOTE_B3, 484 }, 
};
const uint16_t NUM_OF_NOTES0 = sizeof(melody0)/sizeof(melody0[0]);

const Note melody1[] PROGMEM = {
	{ NOTE_D4, 96 }, 
	{ NOTE_D4, 96 }, 
	{ NOTE_D4, 96 }, 
	{ NOTE_D4, 288 }, 
	{ NOTE_REST, 288 }, 
	{ NOTE_D4, 288 }, 
	{ NOTE_REST, 288 }, 
	{ NOTE_D4, 288 }, 
	{ NOTE_D4, 96 }, 
	{ NOTE_D4, 96 }, 
	{ NOTE_D4, 96 }, 
	{ NOTE_D4, 292 }, 
	{ NOTE_D4, 96 }, 
	{ NOTE_D4, 96 }, 
	{ NOTE_D4, 96 }, 
	{ NOTE_D4, 288 }, 
	{ NOTE_REST, 288 }, 
	{ NOTE_D4, 288 }, 
	{ NOTE_REST, 288 }, 
	{ NOTE_D4, 288 }, 
	{ NOTE_D4, 96 }, 
	{ NOTE_D4, 96 }, 
	{ NOTE_D4, 96 }, 
	{ NOTE_D4, 292 }, 
	{ NOTE_D4, 96 }, 
	{ NOTE_D4, 96 }, 
	{ NOTE_D4, 96 }, 
	{ NOTE_D4, 288 }, 
	{ NOTE_REST, 288 }, 
	{ NOTE_D4, 288 }, 
	{ NOTE_REST, 288 }, 
	{ NOTE_D4, 288 }, 
	{ NOTE_D4, 96 }, 
	{ NOTE_D4, 96 }, 
	{ NOTE_D4, 96 }, 
	{ NOTE_D4, 292 }, 
	{ NOTE_D4, 96 }, 
	{ NOTE_D4, 96 }, 
	{ NOTE_D4, 96 }, 
	{ NOTE_D4, 288 }, 
	{ NOTE_REST, 288 }, 
	{ NOTE_D4, 96 }, 
	{ NOTE_D4, 96 }, 
	{ NOTE_D4, 96 }, 
	{ NOTE_D4, 96 }, 
	{ NOTE_D4, 96 }, 
	{ NOTE_D4, 96 }, 
	{ NOTE_D4, 288 }, 
	{ NOTE_D4, 96 }, 
	{ NOTE_D4, 96 }, 
	{ NOTE_D4, 96 }, 
	{ NOTE_D4, 292 }, 
	{ NOTE_D4, 1210 }, 
	{ NOTE_EB4, 725 }, 
	{ NOTE_D4, 1210 }, 
	{ NOTE_C4, 484 }, 
	{ NOTE_B3, 1452 }, 
	{ NOTE_G3, 726 }, 
	{ NOTE_DB4, 726 }, 
	{ NOTE_D4, 1210 }, 
	{ NOTE_EB4, 725 }, 
	{ NOTE_D4, 1210 }, 
	{ NOTE_C4, 484 }, 
	{ NOTE_B3, 1452 }, 
	{ NOTE_G3, 726 }, 
	{ NOTE_BB3, 726 }, 
	{ NOTE_G3, 242 }, 
	{ NOTE_D4, 242 }, 
	{ NOTE_G4, 242 }, 
	{ NOTE_D4, 242 }, 
	{ NOTE_F4, 242 }, 
	{ NOTE_AB4, 242 }, 
	{ NOTE_G4, 242 }, 
	{ NOTE_EB4, 241 }, 
	{ NOTE_D4, 242 }, 
	{ NOTE_G3, 242 }, 
	{ NOTE_D4, 242 }, 
	{ NOTE_EB4, 121 }, 
	{ NOTE_F4, 121 }, 
	{ NOTE_G4, 242 }, 
	{ NOTE_C4, 242 }, 
	{ NOTE_F3, 242 }, 
	{ NOTE_E3, 242 }, 
	{ NOTE_B3, 242 }, 
	{ NOTE_E4, 242 }, 
	{ NOTE_F4, 242 }, 
	{ NOTE_E4, 242 }, 
	{ NOTE_B4, 242 }, 
	{ NOTE_C5, 242 }, 
	{ NOTE_C4, 242 }, 
	{ NOTE_G4, 242 }, 
	{ NOTE_DB4, 242 }, 
	{ NOTE_GB3, 242 }, 
	{ NOTE_AB4, 242 }, 
	{ NOTE_AB3, 242 }, 
	{ NOTE_G3, 242 }, 
	{ NOTE_D4, 242 }, 
	{ NOTE_G4, 242 }, 
	{ NOTE_D4, 242 }, 
	{ NOTE_F4, 242 }, 
	{ NOTE_AB4, 242 }, 
	{ NOTE_G4, 242 }, 
	{ NOTE_EB4, 241 }, 
	{ NOTE_D4, 242 }, 
	{ NOTE_G3, 242 }, 
	{ NOTE_D4, 242 }, 
	{ NOTE_EB4, 121 }, 
	{ NOTE_F4, 121 }, 
	{ NOTE_G4, 242 }, 
	{ NOTE_C4, 242 }, 
	{ NOTE_F3, 242 }, 
	{ NOTE_E3, 242 }, 
	{ NOTE_B3, 242 }, 
	{ NOTE_E4, 242 }, 
	{ NOTE_F4, 242 }, 
	{ NOTE_E4, 242 }, 
	{ NOTE_B4, 242 }, 
	{ NOTE_C5, 242 }, 
	{ NOTE_C4, 81 }, 
	{ NOTE_D4, 81 }, 
	{ NOTE_EB4, 81 }, 
	{ NOTE_G4, 242 }, 
	{ NOTE_EB4, 242 }, 
	{ NOTE_EB3, 242 }, 
	{ NOTE_BB3, 242 }, 
	{ NOTE_AB3, 241 }, 
	{ NOTE_G3, 242 }, 
	{ NOTE_AB3, 121 }, 
	{ NOTE_G3, 242 }, 
	{ NOTE_AB3, 121 }, 
	{ NOTE_G3, 121 }, 
	{ NOTE_AB3, 121 }, 
	{ NOTE_C4, 121 }, 
	{ NOTE_D4, 121 }, 
	{ NOTE_F4, 121 }, 
	{ NOTE_G4, 121 }, 
	{ NOTE_AB4, 121 }, 
	{ NOTE_G3, 242 }, 
	{ NOTE_AB3, 121 }, 
	{ NOTE_G3, 242 }, 
	{ NOTE_AB3, 121 }, 
	{ NOTE_G3, 242 }, 
	{ NOTE_D4, 121 }, 
	{ NOTE_C4, 121 }, 
	{ NOTE_AB3, 121 }, 
	{ NOTE_G3, 121 }, 
	{ NOTE_F3, 121 }, 
	{ NOTE_EB3, 121 }, 
	{ NOTE_D3, 121 }, 
	{ NOTE_G3, 242 }, 
	{ NOTE_AB3, 121 }, 
	{ NOTE_G3, 242 }, 
	{ NOTE_AB3, 121 }, 
	{ NOTE_G3, 242 }, 
	{ NOTE_AB3, 242 }, 
	{ NOTE_G3, 121 }, 
	{ NOTE_AB3, 121 }, 
	{ NOTE_C4, 121 }, 
	{ NOTE_D4, 121 }, 
	{ NOTE_F4, 121 }, 
	{ NOTE_G4, 121 }, 
	{ NOTE_AB4, 120 }, 
	{ NOTE_G3, 242 }, 
	{ NOTE_AB3, 121 }, 
	{ NOTE_G3, 242 }, 
	{ NOTE_AB3, 121 }, 
	{ NOTE_G3, 121 }, 
	{ NOTE_AB3, 121 }, 
	{ NOTE_D4, 121 }, 
	{ NOTE_C4, 121 }, 
	{ NOTE_AB3, 121 }, 
	{ NOTE_G3, 121 }, 
	{ NOTE_F3, 121 }, 
	{ NOTE_EB3, 121 }, 
	{ NOTE_A3, 1210 }, 
	{ NOTE_BB3, 725 }, 
	{ NOTE_A3, 1210 }, 
	{ NOTE_G3, 484 }, 
	{ NOTE_GB3, 1452 }, 
	{ NOTE_A3, 726 }, 
	{ NOTE_AB3, 726 }, 
	{ NOTE_A3, 1210 }, 
	{ NOTE_BB3, 725 }, 
	{ NOTE_A3, 1210 }, 
	{ NOTE_G3, 484 }, 
	{ NOTE_EB4, 1935 }, 
	{ NOTE_D4, 242 }, 
	{ NOTE_REST, 242 }, 
	{ NOTE_REST, 484 }, 
	{ NOTE_REST, 484 }, 
	{ NOTE_REST, 967 }, 
	{ NOTE_G3, 242 }, 
	{ NOTE_AB3, 121 }, 
	{ NOTE_G3, 242 }, 
	{ NOTE_AB3, 121 }, 
	{ NOTE_G3, 242 }, 
	{ NOTE_AB3, 242 }, 
	{ NOTE_G3, 121 }, 
	{ NOTE_AB3, 121 }, 
	{ NOTE_C4, 121 }, 
	{ NOTE_D4, 121 }, 
	{ NOTE_F4, 121 }, 
	{ NOTE_G4, 121 }, 
	{ NOTE_AB4, 120 }, 
	{ NOTE_G3, 242 }, 
	{ NOTE_AB3, 121 }, 
	{ NOTE_G3, 242 }, 
	{ NOTE_AB3, 121 }, 
	{ NOTE_G3, 242 }, 
	{ NOTE_D4, 121 }, 
	{ NOTE_C4, 121 }, 
	{ NOTE_AB3, 121 }, 
	{ NOTE_G3, 121 }, 
	{ NOTE_F3, 121 }, 
	{ NOTE_EB3, 121 }, 
	{ NOTE_D3, 121 }, 
	{ NOTE_G3, 242 }, 
	{ NOTE_AB3, 121 }, 
	{ NOTE_G3, 242 }, 
	{ NOTE_AB3, 121 }, 
	{ NOTE_G3, 121 }, 
	{ NOTE_AB3, 121 }, 
	{ NOTE_C4, 121 }, 
	{ NOTE_D4, 121 }, 
	{ NOTE_F4, 121 }, 
	{ NOTE_G4, 121 }, 
	{ NOTE_AB4, 121 }, 
	{ NOTE_F4, 726 }, 
	{ NOTE_EB4, 726 }, 
	{ NOTE_A3, 483 }, 
	{ NOTE_B3, 242 }, 
	{ NOTE_REST, 242 }, 
	{ NOTE_REST, 242 }, 
	{ NOTE_REST, 726 }, 
	{ NOTE_B3, 242 }, 
	{ NOTE_REST, 242 }, 
	{ NOTE_REST, 242 }, 
	{ NOTE_REST, 726 }, 
	{ NOTE_GB3, 125 }, 
	{ NOTE_GB3, 125 }, 
	{ NOTE_GB3, 125 }, 
	{ NOTE_GB4, 125 }, 
	{ NOTE_GB4, 125 }, 
	{ NOTE_GB4, 125 }, 
	{ NOTE_GB3, 125 }, 
	{ NOTE_GB3, 125 }, 
	{ NOTE_GB3, 125 }, 
	{ NOTE_GB4, 125 }, 
	{ NOTE_GB4, 125 }, 
	{ NOTE_GB4, 125 }, 
	{ NOTE_DB4, 250 }, 
	{ NOTE_GB4, 250 }, 
	{ NOTE_G4, 250 }, 
	{ NOTE_C4, 250 }, 
	{ NOTE_AB3, 125 }, 
	{ NOTE_D4, 125 }, 
	{ NOTE_AB4, 125 }, 
	{ NOTE_D5, 125 }, 
	{ NOTE_BB4, 125 }, 
	{ NOTE_GB4, 125 }, 
	{ NOTE_D4, 125 }, 
	{ NOTE_BB3, 125 }, 
	{ NOTE_GB3, 125 }, 
	{ NOTE_GB3, 125 }, 
	{ NOTE_GB3, 125 }, 
	{ NOTE_GB4, 125 }, 
	{ NOTE_GB4, 125 }, 
	{ NOTE_GB4, 125 }, 
	{ NOTE_GB3, 125 }, 
	{ NOTE_GB3, 125 }, 
	{ NOTE_GB3, 125 }, 
	{ NOTE_GB4, 125 }, 
	{ NOTE_GB4, 125 }, 
	{ NOTE_GB4, 125 }, 
	{ NOTE_DB4, 250 }, 
	{ NOTE_GB4, 250 }, 
	{ NOTE_G4, 250 }, 
	{ NOTE_C4, 250 }, 
	{ NOTE_D5, 125 }, 
	{ NOTE_AB4, 125 }, 
	{ NOTE_D4, 125 }, 
	{ NOTE_BB4, 125 }, 
	{ NOTE_GB4, 125 }, 
	{ NOTE_D4, 125 }, 
	{ NOTE_G3, 125 }, 
	{ NOTE_DB4, 125 }, 
	{ NOTE_GB3, 125 }, 
	{ NOTE_GB3, 125 }, 
	{ NOTE_GB3, 125 }, 
	{ NOTE_GB4, 125 }, 
	{ NOTE_GB4, 125 }, 
	{ NOTE_GB4, 125 }, 
	{ NOTE_GB3, 125 }, 
	{ NOTE_GB3, 125 }, 
	{ NOTE_GB3, 125 }, 
	{ NOTE_GB4, 125 }, 
	{ NOTE_GB4, 125 }, 
	{ NOTE_GB4, 125 }, 
	{ NOTE_DB4, 250 }, 
	{ NOTE_GB4, 250 }, 
	{ NOTE_G4, 250 }, 
	{ NOTE_C4, 250 }, 
	{ NOTE_BB3, 125 }, 
	{ NOTE_GB4, 125 }, 
	{ NOTE_BB4, 125 }, 
	{ NOTE_D5, 125 }, 
	{ NOTE_E5, 125 }, 
	{ NOTE_AB4, 125 }, 
	{ NOTE_D4, 125 }, 
	{ NOTE_AB3, 125 }, 
	{ NOTE_GB3, 125 }, 
	{ NOTE_GB3, 125 }, 
	{ NOTE_GB3, 125 }, 
	{ NOTE_GB4, 125 }, 
	{ NOTE_GB4, 125 }, 
	{ NOTE_GB4, 125 }, 
	{ NOTE_GB3, 125 }, 
	{ NOTE_GB3, 125 }, 
	{ NOTE_GB3, 125 }, 
	{ NOTE_GB4, 125 }, 
	{ NOTE_GB4, 125 }, 
	{ NOTE_GB4, 125 }, 
	{ NOTE_DB4, 250 }, 
	{ NOTE_GB4, 250 }, 
	{ NOTE_G4, 250 }, 
	{ NOTE_C4, 250 }, 
	{ NOTE_A3, 83 }, 
	{ NOTE_AB3, 83 }, 
	{ NOTE_AB3, 83 }, 
	{ NOTE_G3, 83 }, 
	{ NOTE_G3, 83 }, 
	{ NOTE_GB3, 83 }, 
	{ NOTE_F3, 250 }, 
	{ NOTE_E3, 83 }, 
	{ NOTE_EB3, 83 }, 
	{ NOTE_D3, 83 }, 
	{ NOTE_D3, 83 }, 
	{ NOTE_DB3, 83 }, 
	{ NOTE_DB3, 87 }, 
	{ NOTE_B2, 121 }, 
	{ NOTE_B2, 121 }, 
	{ NOTE_B2, 121 }, 
	{ NOTE_B2, 121 }, 
	{ NOTE_REST, 121 }, 
	{ NOTE_B2, 121 }, 
	{ NOTE_B2, 121 }, 
	{ NOTE_B2, 121 }, 
	{ NOTE_B2, 121 }, 
	{ NOTE_REST, 121 }, 
	{ NOTE_B2, 121 }, 
	{ NOTE_B2, 121 }, 
	{ NOTE_B2, 121 }, 
	{ NOTE_B2, 121 }, 
	{ NOTE_REST, 121 }, 
	{ NOTE_B2, 121 }, 
	{ NOTE_B2, 121 }, 
	{ NOTE_B2, 121 }, 
	{ NOTE_B2, 121 }, 
	{ NOTE_REST, 121 }, 
	{ NOTE_B2, 121 }, 
	{ NOTE_B2, 121 }, 
	{ NOTE_B2, 121 }, 
	{ NOTE_B2, 121 }, 
	{ NOTE_REST, 121 }, 
	{ NOTE_B2, 121 }, 
	{ NOTE_B2, 121 }, 
	{ NOTE_B2, 121 }, 
	{ NOTE_B2, 121 }, 
	{ NOTE_REST, 121 }, 
	{ NOTE_B2, 121 }, 
	{ NOTE_B2, 121 }, 
	{ NOTE_B2, 121 }, 
	{ NOTE_B2, 121 }, 
	{ NOTE_REST, 121 }, 
	{ NOTE_B2, 121 }, 
	{ NOTE_B2, 121 }, 
	{ NOTE_B2, 121 }, 
	{ NOTE_B2, 121 }, 
	{ NOTE_REST, 121 }, 
	{ NOTE_B2, 121 }, 
	{ NOTE_B2, 121 }, 
	{ NOTE_B2, 121 }, 
	{ NOTE_REST, 120 }, 
	{ NOTE_B2, 121 }, 
	{ NOTE_B2, 121 }, 
	{ NOTE_B2, 121 }, 
	{ NOTE_B2, 121 }, 
	{ NOTE_REST, 121 }, 
	{ NOTE_B2, 121 }, 
	{ NOTE_B2, 121 }, 
	{ NOTE_B2, 121 }, 
	{ NOTE_B2, 121 }, 
	{ NOTE_REST, 121 }, 
	{ NOTE_B2, 121 }, 
	{ NOTE_B2, 121 }, 
	{ NOTE_B2, 121 }, 
	{ NOTE_B2, 121 }, 
	{ NOTE_REST, 121 }, 
	{ NOTE_B2, 121 }, 
	{ NOTE_B2, 121 }, 
	{ NOTE_B2, 121 }, 
	{ NOTE_B2, 121 }, 
	{ NOTE_REST, 121 }, 
	{ NOTE_B2, 121 }, 
	{ NOTE_B2, 121 }, 
	{ NOTE_B2, 121 }, 
	{ NOTE_B2, 121 }, 
	{ NOTE_REST, 121 }, 
	{ NOTE_B2, 121 }, 
	{ NOTE_B2, 121 }, 
	{ NOTE_B2, 121 }, 
	{ NOTE_B2, 121 }, 
	{ NOTE_REST, 121 }, 
	{ NOTE_B2, 121 }, 
	{ NOTE_B2, 121 }, 
	{ NOTE_B2, 121 }, 
	{ NOTE_B2, 121 }, 
	{ NOTE_REST, 121 }, 
	{ NOTE_B2, 121 }, 
	{ NOTE_B2, 121 }, 
	{ NOTE_B2, 121 }, 
	{ NOTE_B2, 121 }, 
	{ NOTE_REST, 121 }, 
	{ NOTE_B2, 121 }, 
	{ NOTE_B2, 121 }, 
	{ NOTE_B2, 121 }, 
	{ NOTE_REST, 120 }, 
	{ NOTE_B3, 121 }, 
	{ NOTE_B3, 121 }, 
	{ NOTE_B3, 121 }, 
	{ NOTE_B3, 121 }, 
	{ NOTE_REST, 121 }, 
	{ NOTE_B3, 121 }, 
	{ NOTE_B3, 121 }, 
	{ NOTE_B3, 121 }, 
	{ NOTE_B3, 121 }, 
	{ NOTE_REST, 121 }, 
	{ NOTE_B3, 121 }, 
	{ NOTE_B3, 121 }, 
	{ NOTE_B3, 121 }, 
	{ NOTE_B3, 121 }, 
	{ NOTE_REST, 121 }, 
	{ NOTE_B3, 121 }, 
	{ NOTE_B3, 121 }, 
	{ NOTE_B3, 121 }, 
	{ NOTE_B3, 121 }, 
	{ NOTE_REST, 121 }, 
	{ NOTE_B3, 121 }, 
	{ NOTE_B3, 121 }, 
	{ NOTE_B3, 121 }, 
	{ NOTE_B3, 121 }, 
	{ NOTE_REST, 121 }, 
	{ NOTE_B3, 121 }, 
	{ NOTE_B3, 121 }, 
	{ NOTE_B3, 121 }, 
	{ NOTE_B3, 121 }, 
	{ NOTE_REST, 121 }, 
	{ NOTE_B3, 121 }, 
	{ NOTE_B3, 121 }, 
	{ NOTE_B3, 121 }, 
	{ NOTE_B3, 121 }, 
	{ NOTE_REST, 121 }, 
	{ NOTE_B3, 121 }, 
	{ NOTE_B3, 121 }, 
	{ NOTE_B3, 121 }, 
	{ NOTE_B3, 121 }, 
	{ NOTE_REST, 121 }, 
	{ NOTE_B3, 121 }, 
	{ NOTE_B3, 121 }, 
	{ NOTE_B3, 121 }, 
	{ NOTE_REST, 120 }, 
	{ NOTE_B3, 121 }, 
	{ NOTE_B3, 121 }, 
	{ NOTE_B3, 121 }, 
	{ NOTE_B3, 242 }, 
	{ NOTE_B3, 121 }, 
	{ NOTE_B3, 121 }, 
	{ NOTE_B3, 121 }, 
	{ NOTE_B3, 242 }, 
	{ NOTE_B3, 121 }, 
	{ NOTE_B3, 121 }, 
	{ NOTE_B3, 121 }, 
	{ NOTE_B3, 242 }, 
	{ NOTE_B3, 121 }, 
	{ NOTE_B3, 121 }, 
	{ NOTE_B3, 121 }, 
	{ NOTE_B3, 242 }, 
	{ NOTE_B3, 121 }, 
	{ NOTE_B3, 121 }, 
	{ NOTE_B3, 121 }, 
	{ NOTE_B3, 242 }, 
	{ NOTE_B3, 121 }, 
	{ NOTE_B3, 121 }, 
	{ NOTE_B3, 121 }, 
	{ NOTE_B3, 242 }, 
	{ NOTE_B3, 121 }, 
	{ NOTE_B3, 121 }, 
	{ NOTE_B3, 121 }, 
	{ NOTE_B3, 242 }, 
	{ NOTE_REST, 120 }, 
	{ NOTE_B4, 81 }, 
	{ NOTE_C5, 81 }, 
	{ NOTE_D5, 81 }, 
	{ NOTE_E5, 81 }, 
	{ NOTE_GB5, 81 }, 
	{ NOTE_G5, 81 }, 
	{ NOTE_B5, 81 }, 
	{ NOTE_C6, 81 }, 
	{ NOTE_D6, 81 }, 
	{ NOTE_E6, 81 }, 
	{ NOTE_F6, 81 }, 
	{ NOTE_GB6, 77 }, 
	{ NOTE_G6, 121 }, 
	{ NOTE_E6, 121 }, 
	{ NOTE_B5, 121 }, 
	{ NOTE_G5, 121 }, 
	{ NOTE_REST, 121 }, 
	{ NOTE_E6, 121 }, 
	{ NOTE_B5, 121 }, 
	{ NOTE_G5, 121 }, 
	{ NOTE_E5, 121 }, 
	{ NOTE_REST, 121 }, 
	{ NOTE_GB6, 121 }, 
	{ NOTE_DB6, 121 }, 
	{ NOTE_BB5, 121 }, 
	{ NOTE_GB5, 121 }, 
	{ NOTE_REST, 121 }, 
	{ NOTE_E6, 121 }, 
	{ NOTE_C6, 121 }, 
	{ NOTE_A5, 121 }, 
	{ NOTE_E5, 121 }, 
	{ NOTE_REST, 121 }, 
	{ NOTE_E6, 121 }, 
	{ NOTE_B5, 121 }, 
	{ NOTE_G5, 121 }, 
	{ NOTE_E5, 121 }, 
	{ NOTE_REST, 121 }, 
	{ NOTE_B5, 121 }, 
	{ NOTE_G5, 121 }, 
	{ NOTE_E5, 121 }, 
	{ NOTE_B4, 121 }, 
	{ NOTE_REST, 121 }, 
	{ NOTE_DB6, 121 }, 
	{ NOTE_BB5, 121 }, 
	{ NOTE_GB5, 121 }, 
	{ NOTE_DB5, 121 }, 
	{ NOTE_REST, 121 }, 
	{ NOTE_BB5, 121 }, 
	{ NOTE_GB5, 121 }, 
	{ NOTE_DB5, 121 }, 
	{ NOTE_BB4, 121 }, 
	{ NOTE_REST, 121 }, 
	{ NOTE_C6, 121 }, 
	{ NOTE_A5, 121 }, 
	{ NOTE_E5, 121 }, 
	{ NOTE_REST, 120 }, 
	{ NOTE_G6, 121 }, 
	{ NOTE_E6, 121 }, 
	{ NOTE_B5, 121 }, 
	{ NOTE_G5, 121 }, 
	{ NOTE_REST, 121 }, 
	{ NOTE_E6, 121 }, 
	{ NOTE_B5, 121 }, 
	{ NOTE_G5, 121 }, 
	{ NOTE_E5, 121 }, 
	{ NOTE_REST, 121 }, 
	{ NOTE_GB6, 121 }, 
	{ NOTE_DB6, 121 }, 
	{ NOTE_BB5, 121 }, 
	{ NOTE_GB5, 121 }, 
	{ NOTE_REST, 121 }, 
	{ NOTE_E6, 121 }, 
	{ NOTE_C6, 121 }, 
	{ NOTE_A5, 121 }, 
	{ NOTE_E5, 121 }, 
	{ NOTE_REST, 121 }, 
	{ NOTE_E6, 121 }, 
	{ NOTE_B5, 121 }, 
	{ NOTE_G5, 121 }, 
	{ NOTE_E5, 121 }, 
	{ NOTE_REST, 121 }, 
	{ NOTE_B5, 121 }, 
	{ NOTE_G5, 121 }, 
	{ NOTE_E5, 121 }, 
	{ NOTE_B4, 121 }, 
	{ NOTE_REST, 121 }, 
	{ NOTE_DB6, 121 }, 
	{ NOTE_BB5, 121 }, 
	{ NOTE_GB5, 121 }, 
	{ NOTE_DB5, 121 }, 
	{ NOTE_REST, 121 }, 
	{ NOTE_BB5, 121 }, 
	{ NOTE_GB5, 121 }, 
	{ NOTE_DB5, 121 }, 
	{ NOTE_BB4, 121 }, 
	{ NOTE_REST, 121 }, 
	{ NOTE_C6, 121 }, 
	{ NOTE_A5, 121 }, 
	{ NOTE_E5, 121 }, 
	{ NOTE_REST, 120 }, 
	{ NOTE_E6, 121 }, 
	{ NOTE_B5, 121 }, 
	{ NOTE_E5, 121 }, 
	{ NOTE_EB6, 121 }, 
	{ NOTE_B5, 121 }, 
	{ NOTE_E5, 121 }, 
	{ NOTE_REST, 121 }, 
	{ NOTE_D6, 121 }, 
	{ NOTE_DB6, 121 }, 
	{ NOTE_E5, 121 }, 
	{ NOTE_C6, 121 }, 
	{ NOTE_B5, 121 }, 
	{ NOTE_E5, 121 }, 
	{ NOTE_BB5, 121 }, 
	{ NOTE_A5, 121 }, 
	{ NOTE_GB5, 120 }, 
	{ NOTE_G5, 121 }, 
	{ NOTE_EB5, 121 }, 
	{ NOTE_E5, 121 }, 
	{ NOTE_GB5, 121 }, 
	{ NOTE_G5, 121 }, 
	{ NOTE_B5, 121 }, 
	{ NOTE_GB6, 121 }, 
	{ NOTE_G6, 121 }, 
	{ NOTE_E6, 121 }, 
	{ NOTE_BB5, 121 }, 
	{ NOTE_E6, 121 }, 
	{ NOTE_BB5, 121 }, 
	{ NOTE_A5, 121 }, 
	{ NOTE_E6, 121 }, 
	{ NOTE_G5, 121 }, 
	{ NOTE_GB5, 120 }, 
	{ NOTE_E6, 121 }, 
	{ NOTE_B5, 121 }, 
	{ NOTE_E5, 121 }, 
	{ NOTE_EB6, 121 }, 
	{ NOTE_B5, 121 }, 
	{ NOTE_E5, 121 }, 
	{ NOTE_REST, 121 }, 
	{ NOTE_D6, 121 }, 
	{ NOTE_DB6, 121 }, 
	{ NOTE_E5, 121 }, 
	{ NOTE_C6, 121 }, 
	{ NOTE_B5, 121 }, 
	{ NOTE_E5, 121 }, 
	{ NOTE_BB5, 121 }, 
	{ NOTE_A5, 121 }, 
	{ NOTE_GB5, 120 }, 
	{ NOTE_G5, 121 }, 
	{ NOTE_C5, 121 }, 
	{ NOTE_DB5, 121 }, 
	{ NOTE_EB5, 121 }, 
	{ NOTE_E5, 121 }, 
	{ NOTE_A4, 121 }, 
	{ NOTE_BB4, 121 }, 
	{ NOTE_C5, 121 }, 
	{ NOTE_DB5, 121 }, 
	{ NOTE_GB4, 121 }, 
	{ NOTE_G4, 121 }, 
	{ NOTE_A4, 121 }, 
	{ NOTE_BB4, 121 }, 
	{ NOTE_A4, 121 }, 
	{ NOTE_G4, 121 }, 
	{ NOTE_GB4, 120 }, 
	{ NOTE_E4, 121 }, 
	{ NOTE_B3, 121 }, 
	{ NOTE_E3, 121 }, 
	{ NOTE_EB4, 121 }, 
	{ NOTE_B3, 121 }, 
	{ NOTE_E3, 121 }, 
	{ NOTE_REST, 121 }, 
	{ NOTE_D4, 121 }, 
	{ NOTE_DB4, 121 }, 
	{ NOTE_E3, 121 }, 
	{ NOTE_C4, 121 }, 
	{ NOTE_B3, 121 }, 
	{ NOTE_E3, 121 }, 
	{ NOTE_BB3, 121 }, 
	{ NOTE_A3, 121 }, 
	{ NOTE_GB3, 120 }, 
	{ NOTE_G3, 121 }, 
	{ NOTE_FS3, 121 }, 
	{ NOTE_E3, 121 }, 
	{ NOTE_FS3, 121 }, 
	{ NOTE_DS3, 121 }, 
	{ NOTE_E3, 121 }, 
	{ NOTE_FS3, 121 }, 
	{ NOTE_G3, 121 }, 
	{ NOTE_B3, 121 }, 
	{ NOTE_C4, 121 }, 
	{ NOTE_CS4, 121 }, 
	{ NOTE_D4, 121 }, 
	{ NOTE_DS4, 121 }, 
	{ NOTE_B3, 121 }, 
	{ NOTE_DS4, 121 }, 
	{ NOTE_FS4, 120 }, 
	{ NOTE_E4, 121 }, 
	{ NOTE_B3, 121 }, 
	{ NOTE_E3, 121 }, 
	{ NOTE_DS4, 121 }, 
	{ NOTE_B3, 121 }, 
	{ NOTE_E3, 121 }, 
	{ NOTE_REST, 121 }, 
	{ NOTE_D4, 121 }, 
	{ NOTE_CS4, 121 }, 
	{ NOTE_E3, 121 }, 
	{ NOTE_C4, 121 }, 
	{ NOTE_B3, 121 }, 
	{ NOTE_E3, 121 }, 
	{ NOTE_AS3, 121 }, 
	{ NOTE_A3, 121 }, 
	{ NOTE_FS3, 120 }, 
	{ NOTE_G3, 242 }, 
	{ NOTE_G3, 242 }, 
	{ NOTE_G3, 121 }, 
	{ NOTE_G3, 242 }, 
	{ NOTE_FS3, 1088 }, 
	{ NOTE_B3, 227 }, 
	{ NOTE_B3, 227 }, 
	{ NOTE_B2, 227 }, 
	{ NOTE_FS3, 114 }, 
	{ NOTE_B3, 228 }, 
	{ NOTE_B3, 227 }, 
	{ NOTE_B3, 114 }, 
	{ NOTE_B2, 227 }, 
	{ NOTE_B2, 227 }, 
	{ NOTE_GS3, 227 }, 
	{ NOTE_GS3, 227 }, 
	{ NOTE_G3, 114 }, 
	{ NOTE_G3, 114 }, 
	{ NOTE_REST, 114 }, 
	{ NOTE_FS3, 228 }, 
	{ NOTE_B2, 114 }, 
	{ NOTE_B2, 227 }, 
	{ NOTE_A3, 227 }, 
	{ NOTE_AS3, 226 }, 
	{ NOTE_B3, 227 }, 
	{ NOTE_B3, 227 }, 
	{ NOTE_B2, 227 }, 
	{ NOTE_B2, 114 }, 
	{ NOTE_B3, 228 }, 
	{ NOTE_B3, 227 }, 
	{ NOTE_B3, 114 }, 
	{ NOTE_B2, 227 }, 
	{ NOTE_B2, 227 }, 
	{ NOTE_CS4, 227 }, 
	{ NOTE_CS4, 227 }, 
	{ NOTE_CS4, 114 }, 
	{ NOTE_CS4, 114 }, 
	{ NOTE_REST, 114 }, 
	{ NOTE_B2, 228 }, 
	{ NOTE_B2, 114 }, 
	{ NOTE_D4, 227 }, 
	{ NOTE_CS4, 227 }, 
	{ NOTE_C4, 226 }, 
	{ NOTE_B3, 227 }, 
	{ NOTE_B2, 114 }, 
	{ NOTE_B2, 114 }, 
	{ NOTE_AS3, 227 }, 
	{ NOTE_B2, 114 }, 
	{ NOTE_B2, 114 }, 
	{ NOTE_A3, 227 }, 
	{ NOTE_B2, 114 }, 
	{ NOTE_CS3, 228 }, 
	{ NOTE_GS3, 227 }, 
	{ NOTE_B2, 112 }, 
	{ NOTE_G3, 227 }, 
	{ NOTE_G3, 227 }, 
	{ NOTE_G3, 114 }, 
	{ NOTE_G3, 114 }, 
	{ NOTE_REST, 114 }, 
	{ NOTE_B2, 228 }, 
	{ NOTE_B2, 114 }, 
	{ NOTE_B2, 227 }, 
	{ NOTE_A3, 227 }, 
	{ NOTE_AS3, 226 }, 
	{ NOTE_B3, 227 }, 
	{ NOTE_B2, 114 }, 
	{ NOTE_B2, 114 }, 
	{ NOTE_CS4, 227 }, 
	{ NOTE_B2, 114 }, 
	{ NOTE_B2, 114 }, 
	{ NOTE_D4, 227 }, 
	{ NOTE_B2, 114 }, 
	{ NOTE_DS4, 228 }, 
	{ NOTE_DS4, 339 }, 
	{ NOTE_B2, 114 }, 
	{ NOTE_E4, 227 }, 
	{ NOTE_B2, 114 }, 
	{ NOTE_E4, 227 }, 
	{ NOTE_B2, 114 }, 
	{ NOTE_E4, 228 }, 
	{ NOTE_B2, 114 }, 
	{ NOTE_E4, 227 }, 
	{ NOTE_B2, 114 }, 
	{ NOTE_E4, 227 }, 
	{ NOTE_B2, 112 }, 
	{ NOTE_FS4, 909 }, 
	{ NOTE_E4, 455 }, 
	{ NOTE_B3, 454 }, 
	{ NOTE_E4, 114 }, 
	{ NOTE_F4, 114 }, 
	{ NOTE_B4, 114 }, 
	{ NOTE_C5, 114 }, 
	{ NOTE_E5, 114 }, 
	{ NOTE_F5, 114 }, 
	{ NOTE_E5, 114 }, 
	{ NOTE_C5, 114 }, 
	{ NOTE_E5, 114 }, 
	{ NOTE_B4, 114 }, 
	{ NOTE_C5, 114 }, 
	{ NOTE_E5, 114 }, 
	{ NOTE_F5, 114 }, 
	{ NOTE_E6, 114 }, 
	{ NOTE_E5, 114 }, 
	{ NOTE_F5, 108 }, 
	{ NOTE_D6, 114 }, 
	{ NOTE_E5, 114 }, 
	{ NOTE_F5, 114 }, 
	{ NOTE_B5, 114 }, 
	{ NOTE_C6, 114 }, 
	{ NOTE_D6, 114 }, 
	{ NOTE_C6, 114 }, 
	{ NOTE_B5, 114 }, 
	{ NOTE_C6, 114 }, 
	{ NOTE_F5, 114 }, 
	{ NOTE_E5, 114 }, 
	{ NOTE_B5, 114 }, 
	{ NOTE_E5, 114 }, 
	{ NOTE_D5, 114 }, 
	{ NOTE_C5, 114 }, 
	{ NOTE_B4, 108 }, 
	{ NOTE_E4, 114 }, 
	{ NOTE_F4, 114 }, 
	{ NOTE_B4, 114 }, 
	{ NOTE_C5, 114 }, 
	{ NOTE_E5, 114 }, 
	{ NOTE_F5, 114 }, 
	{ NOTE_E5, 114 }, 
	{ NOTE_C5, 114 }, 
	{ NOTE_E5, 114 }, 
	{ NOTE_B4, 114 }, 
	{ NOTE_C5, 114 }, 
	{ NOTE_E5, 114 }, 
	{ NOTE_F5, 114 }, 
	{ NOTE_B5, 114 }, 
	{ NOTE_C6, 114 }, 
	{ NOTE_G6, 108 }, 
	{ NOTE_A6, 114 }, 
	{ NOTE_D6, 114 }, 
	{ NOTE_C6, 114 }, 
	{ NOTE_G6, 114 }, 
	{ NOTE_C6, 114 }, 
	{ NOTE_B5, 114 }, 
	{ NOTE_A5, 114 }, 
	{ NOTE_D6, 114 }, 
	{ NOTE_C6, 114 }, 
	{ NOTE_G5, 114 }, 
	{ NOTE_F5, 114 }, 
	{ NOTE_E5, 114 }, 
	{ NOTE_D5, 114 }, 
	{ NOTE_G5, 114 }, 
	{ NOTE_C5, 114 }, 
	{ NOTE_B4, 108 }, 
	{ NOTE_E4, 114 }, 
	{ NOTE_F4, 114 }, 
	{ NOTE_B4, 114 }, 
	{ NOTE_C5, 114 }, 
	{ NOTE_E5, 114 }, 
	{ NOTE_F5, 114 }, 
	{ NOTE_E5, 114 }, 
	{ NOTE_C5, 114 }, 
	{ NOTE_E5, 114 }, 
	{ NOTE_B4, 114 }, 
	{ NOTE_C5, 114 }, 
	{ NOTE_E5, 114 }, 
	{ NOTE_F5, 114 }, 
	{ NOTE_E6, 114 }, 
	{ NOTE_E5, 114 }, 
	{ NOTE_F5, 108 }, 
	{ NOTE_D6, 114 }, 
	{ NOTE_E5, 114 }, 
	{ NOTE_F5, 114 }, 
	{ NOTE_B5, 114 }, 
	{ NOTE_C6, 114 }, 
	{ NOTE_D6, 114 }, 
	{ NOTE_C6, 114 }, 
	{ NOTE_B5, 114 }, 
	{ NOTE_C6, 114 }, 
	{ NOTE_F5, 114 }, 
	{ NOTE_E5, 114 }, 
	{ NOTE_B5, 114 }, 
	{ NOTE_E5, 114 }, 
	{ NOTE_D5, 114 }, 
	{ NOTE_C5, 114 }, 
	{ NOTE_B4, 108 }, 
	{ NOTE_E4, 114 }, 
	{ NOTE_F4, 114 }, 
	{ NOTE_B4, 114 }, 
	{ NOTE_C5, 114 }, 
	{ NOTE_E5, 114 }, 
	{ NOTE_F5, 114 }, 
	{ NOTE_E5, 114 }, 
	{ NOTE_C5, 114 }, 
	{ NOTE_E5, 114 }, 
	{ NOTE_B4, 114 }, 
	{ NOTE_C5, 114 }, 
	{ NOTE_E5, 114 }, 
	{ NOTE_F5, 114 }, 
	{ NOTE_B5, 114 }, 
	{ NOTE_C6, 114 }, 
	{ NOTE_G6, 108 }, 
	{ NOTE_A6, 76 }, 
	{ NOTE_E6, 76 }, 
	{ NOTE_D6, 76 }, 
	{ NOTE_A6, 76 }, 
	{ NOTE_D6, 76 }, 
	{ NOTE_E6, 76 }, 
	{ NOTE_B6, 76 }, 
	{ NOTE_E6, 76 }, 
	{ NOTE_D6, 76 }, 
	{ NOTE_B6, 76 }, 
	{ NOTE_D6, 76 }, 
	{ NOTE_E6, 76 }, 
	{ NOTE_C7, 76 }, 
	{ NOTE_G6, 76 }, 
	{ NOTE_F6, 76 }, 
	{ NOTE_C7, 76 }, 
	{ NOTE_F6, 76 }, 
	{ NOTE_G6, 76 }, 
	{ NOTE_D7, 76 }, 
	{ NOTE_G6, 76 }, 
	{ NOTE_F6, 76 }, 
	{ NOTE_D7, 76 }, 
	{ NOTE_F6, 76 }, 
	{ NOTE_G6, 70 }, 
	{ NOTE_E7, 76 }, 
	{ NOTE_B6, 76 }, 
	{ NOTE_A6, 76 }, 
	{ NOTE_E7, 76 }, 
	{ NOTE_A6, 76 }, 
	{ NOTE_B6, 76 }, 
	{ NOTE_E7, 76 }, 
	{ NOTE_B6, 76 }, 
	{ NOTE_A6, 76 }, 
	{ NOTE_E6, 76 }, 
	{ NOTE_A6, 76 }, 
	{ NOTE_B6, 76 }, 
	{ NOTE_E7, 76 }, 
	{ NOTE_B6, 76 }, 
	{ NOTE_A6, 76 }, 
	{ NOTE_E7, 76 }, 
	{ NOTE_A6, 76 }, 
	{ NOTE_B6, 76 }, 
	{ NOTE_E7, 76 }, 
	{ NOTE_B6, 76 }, 
	{ NOTE_A6, 76 }, 
	{ NOTE_E6, 76 }, 
	{ NOTE_A6, 76 }, 
	{ NOTE_B6, 70 }, 
	{ NOTE_E6, 76 }, 
	{ NOTE_B5, 76 }, 
	{ NOTE_A5, 76 }, 
	{ NOTE_E6, 76 }, 
	{ NOTE_A5, 76 }, 
	{ NOTE_B5, 76 }, 
	{ NOTE_E6, 76 }, 
	{ NOTE_B5, 76 }, 
	{ NOTE_A5, 76 }, 
	{ NOTE_E5, 76 }, 
	{ NOTE_A5, 76 }, 
	{ NOTE_B5, 76 }, 
	{ NOTE_E6, 76 }, 
	{ NOTE_B5, 76 }, 
	{ NOTE_A5, 76 }, 
	{ NOTE_E5, 76 }, 
	{ NOTE_A5, 76 }, 
	{ NOTE_E5, 76 }, 
	{ NOTE_D5, 76 }, 
	{ NOTE_E5, 76 }, 
	{ NOTE_C5, 76 }, 
	{ NOTE_B4, 76 }, 
	{ NOTE_E5, 76 }, 
	{ NOTE_B4, 70 }, 
	{ NOTE_E4, 455 }, 
	{ NOTE_REST, 455 }, 
	{ NOTE_REST, 455 }, 
	{ NOTE_REST, 227 }, 
	{ NOTE_E4, 114 }, 
	{ NOTE_E4, 226 }, 
	{ NOTE_E4, 114 }, 
	{ NOTE_E4, 227 }, 
	{ NOTE_REST, 455 }, 
	{ NOTE_REST, 455 }, 
	{ NOTE_REST, 227 }, 
	{ NOTE_E4, 681 }, 
	{ NOTE_REST, 455 }, 
	{ NOTE_REST, 455 }, 
	{ NOTE_REST, 227 }, 
	{ NOTE_E4, 114 }, 
	{ NOTE_E4, 226 }, 
	{ NOTE_E4, 114 }, 
	{ NOTE_E4, 227 }, 
	{ NOTE_REST, 455 }, 
	{ NOTE_REST, 455 }, 
	{ NOTE_REST, 227 }, 
	{ NOTE_E5, 681 }, 
	{ NOTE_REST, 455 }, 
	{ NOTE_REST, 455 }, 
	{ NOTE_REST, 227 }, 
	{ NOTE_E5, 114 }, 
	{ NOTE_E5, 226 }, 
	{ NOTE_E5, 114 }, 
	{ NOTE_E5, 227 }, 
	{ NOTE_REST, 455 }, 
	{ NOTE_REST, 455 }, 
	{ NOTE_REST, 227 }, 
	{ NOTE_E5, 681 }, 
	{ NOTE_REST, 455 }, 
	{ NOTE_REST, 455 }, 
	{ NOTE_REST, 227 }, 
	{ NOTE_E5, 114 }, 
	{ NOTE_E5, 226 }, 
	{ NOTE_E5, 114 }, 
	{ NOTE_E5, 227 }, 
	{ NOTE_REST, 455 }, 
	{ NOTE_REST, 455 }, 
	{ NOTE_A3, 227 }, 
	{ NOTE_G3, 114 }, 
	{ NOTE_F3, 112 }, 
	{ NOTE_E3, 227 }, 
	{ NOTE_A3, 114 }, 
	{ NOTE_B3, 228 }, 
	{ NOTE_G3, 114 }, 
	{ NOTE_E3, 227 }, 
	{ NOTE_F3, 114 }, 
	{ NOTE_G3, 114 }, 
	{ NOTE_F3, 114 }, 
	{ NOTE_E3, 114 }, 
	{ NOTE_A3, 227 }, 
	{ NOTE_G3, 114 }, 
	{ NOTE_F3, 111 }, 
	{ NOTE_E3, 227 }, 
	{ NOTE_B3, 114 }, 
	{ NOTE_C4, 228 }, 
	{ NOTE_G3, 114 }, 
	{ NOTE_E3, 227 }, 
	{ NOTE_D4, 114 }, 
	{ NOTE_E4, 114 }, 
	{ NOTE_D4, 114 }, 
	{ NOTE_E4, 114 }, 
	{ NOTE_A3, 227 }, 
	{ NOTE_G3, 114 }, 
	{ NOTE_F3, 111 }, 
	{ NOTE_E3, 227 }, 
	{ NOTE_A3, 114 }, 
	{ NOTE_B3, 228 }, 
	{ NOTE_G3, 114 }, 
	{ NOTE_E3, 227 }, 
	{ NOTE_F3, 114 }, 
	{ NOTE_G3, 114 }, 
	{ NOTE_F3, 114 }, 
	{ NOTE_E3, 112 }, 
	{ NOTE_REST, 114 }, 
	{ NOTE_A3, 114 }, 
	{ NOTE_B3, 227 }, 
	{ NOTE_G3, 114 }, 
	{ NOTE_E3, 114 }, 
	{ NOTE_REST, 114 }, 
	{ NOTE_D4, 114 }, 
	{ NOTE_E4, 114 }, 
	{ NOTE_REST, 114 }, 
	{ NOTE_F4, 114 }, 
	{ NOTE_E4, 341 }, 
	{ NOTE_C5, 114 }, 
	{ NOTE_B4, 114 }, 
	{ NOTE_A4, 227 }, 
	{ NOTE_G4, 114 }, 
	{ NOTE_F4, 110 }, 
	{ NOTE_E4, 227 }, 
	{ NOTE_A4, 114 }, 
	{ NOTE_B4, 228 }, 
	{ NOTE_G4, 114 }, 
	{ NOTE_E4, 227 }, 
	{ NOTE_F4, 114 }, 
	{ NOTE_G4, 114 }, 
	{ NOTE_F4, 114 }, 
	{ NOTE_E4, 114 }, 
	{ NOTE_A4, 227 }, 
	{ NOTE_G4, 114 }, 
	{ NOTE_F4, 111 }, 
	{ NOTE_E4, 227 }, 
	{ NOTE_B4, 114 }, 
	{ NOTE_C5, 228 }, 
	{ NOTE_G4, 114 }, 
	{ NOTE_E4, 227 }, 
	{ NOTE_D5, 114 }, 
	{ NOTE_E5, 114 }, 
	{ NOTE_D5, 114 }, 
	{ NOTE_E5, 114 }, 
	{ NOTE_A4, 227 }, 
	{ NOTE_G4, 114 }, 
	{ NOTE_F4, 111 }, 
	{ NOTE_E4, 227 }, 
	{ NOTE_A4, 114 }, 
	{ NOTE_B4, 228 }, 
	{ NOTE_G4, 114 }, 
	{ NOTE_E4, 227 }, 
	{ NOTE_F4, 114 }, 
	{ NOTE_G4, 114 }, 
	{ NOTE_F4, 114 }, 
	{ NOTE_E4, 112 }, 
	{ NOTE_REST, 114 }, 
	{ NOTE_A4, 114 }, 
	{ NOTE_B4, 227 }, 
	{ NOTE_G4, 114 }, 
	{ NOTE_E4, 114 }, 
	{ NOTE_REST, 114 }, 
	{ NOTE_D5, 114 }, 
	{ NOTE_E5, 227 }, 
	{ NOTE_F5, 114 }, 
	{ NOTE_E5, 341 }, 
	{ NOTE_C4, 114 }, 
	{ NOTE_B3, 111 }, 
	{ NOTE_A3, 114 }, 
	{ NOTE_E3, 114 }, 
	{ NOTE_G3, 114 }, 
	{ NOTE_F3, 114 }, 
	{ NOTE_E3, 114 }, 
	{ NOTE_E3, 114 }, 
	{ NOTE_A3, 114 }, 
	{ NOTE_B3, 114 }, 
	{ NOTE_E3, 114 }, 
	{ NOTE_G3, 114 }, 
	{ NOTE_E3, 114 }, 
	{ NOTE_E3, 114 }, 
	{ NOTE_F3, 114 }, 
	{ NOTE_G3, 114 }, 
	{ NOTE_F3, 114 }, 
	{ NOTE_E3, 108 }, 
	{ NOTE_A3, 114 }, 
	{ NOTE_E3, 114 }, 
	{ NOTE_G3, 114 }, 
	{ NOTE_F3, 114 }, 
	{ NOTE_E3, 114 }, 
	{ NOTE_E3, 114 }, 
	{ NOTE_A3, 114 }, 
	{ NOTE_B3, 114 }, 
	{ NOTE_E3, 114 }, 
	{ NOTE_G3, 114 }, 
	{ NOTE_E3, 114 }, 
	{ NOTE_E3, 114 }, 
	{ NOTE_F3, 114 }, 
	{ NOTE_G3, 114 }, 
	{ NOTE_F3, 114 }, 
	{ NOTE_E3, 108 }, 
	{ NOTE_A3, 114 }, 
	{ NOTE_E3, 114 }, 
	{ NOTE_G3, 114 }, 
	{ NOTE_F3, 114 }, 
	{ NOTE_E3, 114 }, 
	{ NOTE_E3, 114 }, 
	{ NOTE_A3, 114 }, 
	{ NOTE_B3, 114 }, 
	{ NOTE_E3, 114 }, 
	{ NOTE_G3, 114 }, 
	{ NOTE_E3, 114 }, 
	{ NOTE_E3, 114 }, 
	{ NOTE_F3, 114 }, 
	{ NOTE_G3, 114 }, 
	{ NOTE_F3, 114 }, 
	{ NOTE_E3, 108 }, 
	{ NOTE_A3, 114 }, 
	{ NOTE_E3, 114 }, 
	{ NOTE_G3, 114 }, 
	{ NOTE_F3, 114 }, 
	{ NOTE_E3, 114 }, 
	{ NOTE_E3, 114 }, 
	{ NOTE_A3, 114 }, 
	{ NOTE_B3, 114 }, 
	{ NOTE_E3, 114 }, 
	{ NOTE_G3, 114 }, 
	{ NOTE_E3, 114 }, 
	{ NOTE_E3, 114 }, 
	{ NOTE_F3, 114 }, 
	{ NOTE_G3, 114 }, 
	{ NOTE_F3, 114 }, 
	{ NOTE_E3, 108 }, 
	{ NOTE_A3, 114 }, 
	{ NOTE_E3, 114 }, 
	{ NOTE_G3, 114 }, 
	{ NOTE_F3, 114 }, 
	{ NOTE_E3, 114 }, 
	{ NOTE_E3, 114 }, 
	{ NOTE_A3, 114 }, 
	{ NOTE_B3, 114 }, 
	{ NOTE_E3, 114 }, 
	{ NOTE_G3, 114 }, 
	{ NOTE_E3, 114 }, 
	{ NOTE_E3, 114 }, 
	{ NOTE_F3, 114 }, 
	{ NOTE_G3, 114 }, 
	{ NOTE_F3, 114 }, 
	{ NOTE_E3, 108 }, 
	{ NOTE_A3, 114 }, 
	{ NOTE_E3, 114 }, 
	{ NOTE_G3, 114 }, 
	{ NOTE_F3, 114 }, 
	{ NOTE_E3, 114 }, 
	{ NOTE_E3, 114 }, 
	{ NOTE_B3, 114 }, 
	{ NOTE_C4, 114 }, 
	{ NOTE_E3, 114 }, 
	{ NOTE_G3, 114 }, 
	{ NOTE_E3, 114 }, 
	{ NOTE_E3, 114 }, 
	{ NOTE_D4, 114 }, 
	{ NOTE_E4, 114 }, 
	{ NOTE_D4, 114 }, 
	{ NOTE_E4, 108 }, 
	{ NOTE_A3, 114 }, 
	{ NOTE_E3, 114 }, 
	{ NOTE_G3, 114 }, 
	{ NOTE_F3, 114 }, 
	{ NOTE_E3, 114 }, 
	{ NOTE_E3, 114 }, 
	{ NOTE_A3, 114 }, 
	{ NOTE_B3, 114 }, 
	{ NOTE_E3, 114 }, 
	{ NOTE_G3, 114 }, 
	{ NOTE_E3, 114 }, 
	{ NOTE_E3, 114 }, 
	{ NOTE_F3, 114 }, 
	{ NOTE_G3, 114 }, 
	{ NOTE_F3, 114 }, 
	{ NOTE_E3, 108 }, 
	{ NOTE_E3, 114 }, 
	{ NOTE_A3, 114 }, 
	{ NOTE_B3, 114 }, 
	{ NOTE_E3, 114 }, 
	{ NOTE_G3, 114 }, 
	{ NOTE_E3, 114 }, 
	{ NOTE_E3, 114 }, 
	{ NOTE_D4, 114 }, 
	{ NOTE_E4, 114 }, 
	{ NOTE_E3, 114 }, 
	{ NOTE_F4, 114 }, 
	{ NOTE_E4, 114 }, 
	{ NOTE_E3, 114 }, 
	{ NOTE_E3, 114 }, 
	{ NOTE_F4, 114 }, 
	{ NOTE_E4, 108 }, 
	{ NOTE_D4, 114 }, 
	{ NOTE_A3, 114 }, 
	{ NOTE_C4, 114 }, 
	{ NOTE_B3, 114 }, 
	{ NOTE_A3, 114 }, 
	{ NOTE_A3, 114 }, 
	{ NOTE_D4, 114 }, 
	{ NOTE_E4, 114 }, 
	{ NOTE_A3, 114 }, 
	{ NOTE_C4, 114 }, 
	{ NOTE_A3, 114 }, 
	{ NOTE_A3, 114 }, 
	{ NOTE_B3, 114 }, 
	{ NOTE_C4, 114 }, 
	{ NOTE_B3, 114 }, 
	{ NOTE_A3, 108 }, 
	{ NOTE_D4, 114 }, 
	{ NOTE_A3, 114 }, 
	{ NOTE_C4, 114 }, 
	{ NOTE_B3, 114 }, 
	{ NOTE_A3, 114 }, 
	{ NOTE_A3, 114 }, 
	{ NOTE_D4, 114 }, 
	{ NOTE_E4, 114 }, 
	{ NOTE_A3, 114 }, 
	{ NOTE_C4, 114 }, 
	{ NOTE_A3, 114 }, 
	{ NOTE_A3, 114 }, 
	{ NOTE_B3, 114 }, 
	{ NOTE_C4, 114 }, 
	{ NOTE_B3, 114 }, 
	{ NOTE_A3, 108 }, 
	{ NOTE_D4, 114 }, 
	{ NOTE_A3, 114 }, 
	{ NOTE_C4, 114 }, 
	{ NOTE_B3, 114 }, 
	{ NOTE_A3, 114 }, 
	{ NOTE_A3, 114 }, 
	{ NOTE_D4, 114 }, 
	{ NOTE_E4, 114 }, 
	{ NOTE_A3, 114 }, 
	{ NOTE_C4, 114 }, 
	{ NOTE_A3, 114 }, 
	{ NOTE_A3, 114 }, 
	{ NOTE_B3, 114 }, 
	{ NOTE_C4, 114 }, 
	{ NOTE_B3, 114 }, 
	{ NOTE_A3, 108 }, 
	{ NOTE_D4, 114 }, 
	{ NOTE_A3, 114 }, 
	{ NOTE_C4, 114 }, 
	{ NOTE_B3, 114 }, 
	{ NOTE_A3, 114 }, 
	{ NOTE_A3, 114 }, 
	{ NOTE_D4, 114 }, 
	{ NOTE_E4, 114 }, 
	{ NOTE_A3, 114 }, 
	{ NOTE_C4, 114 }, 
	{ NOTE_A3, 114 }, 
	{ NOTE_A3, 114 }, 
	{ NOTE_B3, 114 }, 
	{ NOTE_C4, 114 }, 
	{ NOTE_B3, 114 }, 
	{ NOTE_A3, 108 }, 
	{ NOTE_D4, 114 }, 
	{ NOTE_A3, 114 }, 
	{ NOTE_C4, 114 }, 
	{ NOTE_B3, 114 }, 
	{ NOTE_A3, 114 }, 
	{ NOTE_A3, 114 }, 
	{ NOTE_D4, 114 }, 
	{ NOTE_E4, 114 }, 
	{ NOTE_A3, 114 }, 
	{ NOTE_C4, 114 }, 
	{ NOTE_A3, 114 }, 
	{ NOTE_A3, 114 }, 
	{ NOTE_B3, 114 }, 
	{ NOTE_C4, 114 }, 
	{ NOTE_B3, 114 }, 
	{ NOTE_A3, 108 }, 
	{ NOTE_D4, 114 }, 
	{ NOTE_A3, 114 }, 
	{ NOTE_C4, 114 }, 
	{ NOTE_B3, 114 }, 
	{ NOTE_A3, 114 }, 
	{ NOTE_A3, 114 }, 
	{ NOTE_D4, 114 }, 
	{ NOTE_A4, 114 }, 
	{ NOTE_G4, 114 }, 
	{ NOTE_E4, 114 }, 
	{ NOTE_G4, 114 }, 
	{ NOTE_E4, 114 }, 
	{ NOTE_D4, 114 }, 
	{ NOTE_E4, 114 }, 
	{ NOTE_D4, 114 }, 
	{ NOTE_C4, 108 }, 
	{ NOTE_D4, 114 }, 
	{ NOTE_A3, 114 }, 
	{ NOTE_C4, 114 }, 
	{ NOTE_B3, 114 }, 
	{ NOTE_A3, 114 }, 
	{ NOTE_A3, 114 }, 
	{ NOTE_D4, 114 }, 
	{ NOTE_E4, 114 }, 
	{ NOTE_A3, 114 }, 
	{ NOTE_C4, 114 }, 
	{ NOTE_A3, 114 }, 
	{ NOTE_A3, 114 }, 
	{ NOTE_B3, 114 }, 
	{ NOTE_C4, 114 }, 
	{ NOTE_B3, 114 }, 
	{ NOTE_A3, 108 }, 
	{ NOTE_D4, 114 }, 
	{ NOTE_A3, 114 }, 
	{ NOTE_C4, 114 }, 
	{ NOTE_B3, 114 }, 
	{ NOTE_A3, 114 }, 
	{ NOTE_A3, 114 }, 
	{ NOTE_D4, 114 }, 
	{ NOTE_A4, 114 }, 
	{ NOTE_REST, 114 }, 
	{ NOTE_G4, 114 }, 
	{ NOTE_REST, 114 }, 
	{ NOTE_D4, 114 }, 
	{ NOTE_REST, 114 }, 
	{ NOTE_D4, 114 }, 
	{ NOTE_B3, 114 }, 
	{ NOTE_A3, 108 }, 
	{ NOTE_D4, 114 }, 
	{ NOTE_A3, 114 }, 
	{ NOTE_C4, 114 }, 
	{ NOTE_B3, 114 }, 
	{ NOTE_A3, 114 }, 
	{ NOTE_A3, 114 }, 
	{ NOTE_D4, 114 }, 
	{ NOTE_E4, 114 }, 
	{ NOTE_A3, 114 }, 
	{ NOTE_C4, 114 }, 
	{ NOTE_A3, 114 }, 
	{ NOTE_A3, 114 }, 
	{ NOTE_B3, 114 }, 
	{ NOTE_C4, 114 }, 
	{ NOTE_B3, 114 }, 
	{ NOTE_A3, 108 }, 
	{ NOTE_E4, 114 }, 
	{ NOTE_A3, 114 }, 
	{ NOTE_D4, 114 }, 
	{ NOTE_C4, 114 }, 
	{ NOTE_A3, 114 }, 
	{ NOTE_A3, 114 }, 
	{ NOTE_E4, 114 }, 
	{ NOTE_F4, 114 }, 
	{ NOTE_A3, 114 }, 
	{ NOTE_D4, 114 }, 
	{ NOTE_A3, 114 }, 
	{ NOTE_A3, 114 }, 
	{ NOTE_C4, 114 }, 
	{ NOTE_D4, 114 }, 
	{ NOTE_C4, 114 }, 
	{ NOTE_A3, 108 }, 
	{ NOTE_F4, 114 }, 
	{ NOTE_A3, 114 }, 
	{ NOTE_E4, 114 }, 
	{ NOTE_D4, 114 }, 
	{ NOTE_A3, 114 }, 
	{ NOTE_A3, 114 }, 
	{ NOTE_F4, 114 }, 
	{ NOTE_G4, 114 }, 
	{ NOTE_A3, 114 }, 
	{ NOTE_E4, 114 }, 
	{ NOTE_A3, 114 }, 
	{ NOTE_A3, 114 }, 
	{ NOTE_D4, 114 }, 
	{ NOTE_E4, 114 }, 
	{ NOTE_D4, 114 }, 
	{ NOTE_A3, 108 }, 
	{ NOTE_G4, 114 }, 
	{ NOTE_A3, 114 }, 
	{ NOTE_F4, 114 }, 
	{ NOTE_E4, 114 }, 
	{ NOTE_A3, 114 }, 
	{ NOTE_A3, 114 }, 
	{ NOTE_G4, 114 }, 
	{ NOTE_A4, 114 }, 
	{ NOTE_A3, 114 }, 
	{ NOTE_F4, 114 }, 
	{ NOTE_A3, 114 }, 
	{ NOTE_A3, 114 }, 
	{ NOTE_E4, 114 }, 
	{ NOTE_F4, 114 }, 
	{ NOTE_E4, 114 }, 
	{ NOTE_A3, 108 }, 
	{ NOTE_A4, 114 }, 
	{ NOTE_A3, 114 }, 
	{ NOTE_G4, 114 }, 
	{ NOTE_F4, 114 }, 
	{ NOTE_A3, 114 }, 
	{ NOTE_A3, 114 }, 
	{ NOTE_A4, 111 }, 
	{ NOTE_B4, 114 }, 
	{ NOTE_A3, 114 }, 
	{ NOTE_A4, 114 }, 
	{ NOTE_G4, 114 }, 
	{ NOTE_A3, 114 }, 
	{ NOTE_A3, 114 }, 
	{ NOTE_B4, 111 }, 
	{ NOTE_C5, 114 }, 
	{ NOTE_A3, 114 }, 
	{ NOTE_B4, 114 }, 
	{ NOTE_A4, 114 }, 
	{ NOTE_A3, 114 }, 
	{ NOTE_A3, 114 }, 
	{ NOTE_C5, 111 }, 
	{ NOTE_D5, 114 }, 
	{ NOTE_A3, 114 }, 
	{ NOTE_C5, 114 }, 
	{ NOTE_B4, 114 }, 
	{ NOTE_A3, 114 }, 
	{ NOTE_A3, 114 }, 
	{ NOTE_D5, 111 }, 
	{ NOTE_E5, 114 }, 
	{ NOTE_A3, 114 }, 
	{ NOTE_D5, 114 }, 
	{ NOTE_C5, 114 }, 
	{ NOTE_A3, 114 }, 
	{ NOTE_E5, 112 }, 
	{ NOTE_F5, 114 }, 
	{ NOTE_A3, 114 }, 
	{ NOTE_E5, 114 }, 
	{ NOTE_D5, 114 }, 
	{ NOTE_A3, 114 }, 
	{ NOTE_F5, 112 }, 
	{ NOTE_G5, 114 }, 
	{ NOTE_A3, 114 }, 
	{ NOTE_F5, 114 }, 
	{ NOTE_E5, 114 }, 
	{ NOTE_A3, 114 }, 
	{ NOTE_G5, 112 }, 
	{ NOTE_A5, 114 }, 
	{ NOTE_A3, 114 }, 
	{ NOTE_G5, 114 }, 
	{ NOTE_A5, 114 }, 
	{ NOTE_A3, 114 }, 
	{ NOTE_G5, 112 }, 
	{ NOTE_A5, 114 }, 
	{ NOTE_A3, 114 }, 
	{ NOTE_G5, 114 }, 
	{ NOTE_A5, 114 }, 
	{ NOTE_A3, 114 }, 
	{ NOTE_G5, 112 }, 
	{ NOTE_E3, 114 }, 
	{ NOTE_F3, 114 }, 
	{ NOTE_C4, 114 }, 
	{ NOTE_B3, 114 }, 
	{ NOTE_B3, 114 }, 
	{ NOTE_C4, 114 }, 
	{ NOTE_F4, 111 }, 
	{ NOTE_E4, 114 }, 
	{ NOTE_F4, 114 }, 
	{ NOTE_C5, 114 }, 
	{ NOTE_B4, 114 }, 
	{ NOTE_B4, 114 }, 
	{ NOTE_C5, 114 }, 
	{ NOTE_F5, 111 }, 
	{ NOTE_E5, 114 }, 
	{ NOTE_F5, 114 }, 
	{ NOTE_C6, 114 }, 
	{ NOTE_B5, 114 }, 
	{ NOTE_B5, 114 }, 
	{ NOTE_C6, 114 }, 
	{ NOTE_F6, 111 }, 
	{ NOTE_E6, 1818 }, 
	{ NOTE_A4, 147 }, 
	{ NOTE_A3, 147 }, 
	{ NOTE_A4, 147 }, 
	{ NOTE_A3, 147 }, 
	{ NOTE_A3, 147 }, 
	{ NOTE_A4, 147 }, 
	{ NOTE_A3, 147 }, 
	{ NOTE_A4, 147 }, 
	{ NOTE_A3, 147 }, 
	{ NOTE_A3, 147 }, 
	{ NOTE_A4, 147 }, 
	{ NOTE_A3, 147 }, 
	{ NOTE_A4, 147 }, 
	{ NOTE_A3, 147 }, 
	{ NOTE_A4, 147 }, 
	{ NOTE_A3, 147 }, 
	{ NOTE_A3, 147 }, 
	{ NOTE_A5, 147 }, 
	{ NOTE_A3, 147 }, 
	{ NOTE_A5, 147 }, 
	{ NOTE_A3, 147 }, 
	{ NOTE_A3, 147 }, 
	{ NOTE_A5, 147 }, 
	{ NOTE_A3, 147 }, 
	{ NOTE_A5, 147 }, 
	{ NOTE_A3, 147 }, 
	{ NOTE_A5, 147 }, 
	{ NOTE_A3, 147 }, 
	{ NOTE_A3, 147 }, 
	{ NOTE_A5, 147 }, 
	{ NOTE_A3, 147 }, 
	{ NOTE_A5, 147 }, 
	{ NOTE_A3, 147 }, 
	{ NOTE_A3, 147 }, 
	{ NOTE_A5, 147 }, 
	{ NOTE_A3, 147 }, 
	{ NOTE_A5, 147 }, 
	{ NOTE_A3, 147 }, 
	{ NOTE_A3, 147 }, 
	{ NOTE_A5, 147 }, 
	{ NOTE_A3, 147 }, 
	{ NOTE_A5, 147 }, 
	{ NOTE_A3, 147 }, 
	{ NOTE_A5, 147 }, 
	{ NOTE_A3, 147 }, 
	{ NOTE_A3, 147 }, 
	{ NOTE_A6, 147 }, 
	{ NOTE_E6, 147 }, 
	{ NOTE_F6, 147 }, 
	{ NOTE_G6, 147 }, 
	{ NOTE_F6, 147 }, 
	{ NOTE_E6, 147 }, 
	{ NOTE_D6, 147 }, 
	{ NOTE_C6, 147 }, 
	{ NOTE_D6, 147 }, 
	{ NOTE_B5, 148 }, 
	{ NOTE_A5, 147 }, 
	{ NOTE_E5, 147 }, 
	{ NOTE_F5, 147 }, 
	{ NOTE_G5, 147 }, 
	{ NOTE_F5, 147 }, 
	{ NOTE_E5, 147 }, 
	{ NOTE_D5, 147 }, 
	{ NOTE_C5, 147 }, 
	{ NOTE_D5, 147 }, 
	{ NOTE_B4, 148 }, 
	{ NOTE_G4, 121 }, 
	{ NOTE_AB4, 121 }, 
	{ NOTE_C5, 121 }, 
	{ NOTE_D5, 121 }, 
	{ NOTE_G5, 121 }, 
	{ NOTE_AB5, 121 }, 
	{ NOTE_C6, 121 }, 
	{ NOTE_D6, 121 }, 
	{ NOTE_C6, 121 }, 
	{ NOTE_AB5, 121 }, 
	{ NOTE_G5, 121 }, 
	{ NOTE_F5, 121 }, 
	{ NOTE_D5, 121 }, 
	{ NOTE_C5, 121 }, 
	{ NOTE_BB4, 121 }, 
	{ NOTE_AB4, 120 }, 
	{ NOTE_G4, 121 }, 
	{ NOTE_AB4, 121 }, 
	{ NOTE_C5, 121 }, 
	{ NOTE_D5, 121 }, 
	{ NOTE_G5, 121 }, 
	{ NOTE_AB5, 121 }, 
	{ NOTE_C6, 121 }, 
	{ NOTE_D6, 121 }, 
	{ NOTE_C6, 121 }, 
	{ NOTE_AB5, 121 }, 
	{ NOTE_G5, 121 }, 
	{ NOTE_F5, 121 }, 
	{ NOTE_D5, 60 }, 
	{ NOTE_C5, 60 }, 
	{ NOTE_BB4, 60 }, 
	{ NOTE_AB4, 62 }, 
	{ NOTE_G4, 121 }, 
	{ NOTE_AB4, 121 }, 
	{ NOTE_C5, 121 }, 
	{ NOTE_D5, 121 }, 
	{ NOTE_G5, 121 }, 
	{ NOTE_AB5, 121 }, 
	{ NOTE_C6, 121 }, 
	{ NOTE_D6, 121 }, 
	{ NOTE_C6, 121 }, 
	{ NOTE_AB5, 121 }, 
	{ NOTE_G5, 121 }, 
	{ NOTE_F5, 121 }, 
	{ NOTE_E5, 121 }, 
	{ NOTE_D5, 121 }, 
	{ NOTE_BB4, 121 }, 
	{ NOTE_AB4, 121 }, 
	{ NOTE_GB5, 121 }, 
	{ NOTE_E5, 121 }, 
	{ NOTE_C5, 121 }, 
	{ NOTE_BB4, 121 }, 
	{ NOTE_BB5, 81 }, 
	{ NOTE_AB5, 81 }, 
	{ NOTE_GB5, 81 }, 
	{ NOTE_F5, 81 }, 
	{ NOTE_EB5, 81 }, 
	{ NOTE_DB5, 79 }, 
	{ NOTE_G4, 121 }, 
	{ NOTE_AB4, 121 }, 
	{ NOTE_C5, 121 }, 
	{ NOTE_D5, 121 }, 
	{ NOTE_G5, 121 }, 
	{ NOTE_AB5, 121 }, 
	{ NOTE_C6, 121 }, 
	{ NOTE_D6, 121 }, 
	{ NOTE_C6, 121 }, 
	{ NOTE_AB5, 121 }, 
	{ NOTE_G5, 121 }, 
	{ NOTE_F5, 121 }, 
	{ NOTE_D5, 121 }, 
	{ NOTE_C5, 121 }, 
	{ NOTE_BB4, 121 }, 
	{ NOTE_AB4, 120 }, 
	{ NOTE_G4, 121 }, 
	{ NOTE_AB4, 121 }, 
	{ NOTE_C5, 121 }, 
	{ NOTE_D5, 121 }, 
	{ NOTE_G5, 121 }, 
	{ NOTE_AB5, 121 }, 
	{ NOTE_C6, 121 }, 
	{ NOTE_D6, 121 }, 
	{ NOTE_C6, 121 }, 
	{ NOTE_AB5, 121 }, 
	{ NOTE_G5, 121 }, 
	{ NOTE_F5, 121 }, 
	{ NOTE_D5, 60 }, 
	{ NOTE_C5, 60 }, 
	{ NOTE_BB4, 60 }, 
	{ NOTE_AB4, 62 }, 
	{ NOTE_G4, 169 }, 
	{ NOTE_A4, 169 }, 
	{ NOTE_B4, 169 }, 
	{ NOTE_F5, 169 }, 
	{ NOTE_D5, 169 }, 
	{ NOTE_E5, 338 }, 
	{ NOTE_F5, 169 }, 
	{ NOTE_E5, 342 }, 
	{ NOTE_D5, 169 }, 
	{ NOTE_C5, 169 }, 
	{ NOTE_B4, 169 }, 
	{ NOTE_C5, 169 }, 
	{ NOTE_F4, 338 }, 
	{ NOTE_G4, 169 }, 
	{ NOTE_A4, 342 }, 
	{ NOTE_B4, 169 }, 
	{ NOTE_DB5, 169 }, 
	{ NOTE_EB5, 169 }, 
	{ NOTE_F5, 169 }, 
	{ NOTE_G5, 172 }, 
	{ NOTE_REST, 169 }, 
	{ NOTE_A4, 169 }, 
	{ NOTE_B4, 169 }, 
	{ NOTE_F5, 169 }, 
	{ NOTE_D5, 169 }, 
	{ NOTE_E5, 338 }, 
	{ NOTE_F5, 169 }, 
	{ NOTE_E5, 342 }, 
	{ NOTE_D5, 169 }, 
	{ NOTE_C5, 169 }, 
	{ NOTE_B4, 169 }, 
	{ NOTE_C5, 169 }, 
	{ NOTE_F4, 341 }, 
	{ NOTE_G6, 169 }, 
	{ NOTE_F6, 169 }, 
	{ NOTE_EB6, 169 }, 
	{ NOTE_B5, 169 }, 
	{ NOTE_DB6, 169 }, 
	{ NOTE_B5, 169 }, 
	{ NOTE_A5, 169 }, 
	{ NOTE_G5, 169 }, 
	{ NOTE_D5, 169 }, 
	{ NOTE_EB5, 169 }, 
	{ NOTE_BB5, 169 }, 
	{ NOTE_EB5, 169 }, 
	{ NOTE_DB5, 169 }, 
	{ NOTE_AB4, 176 }, 
	{ NOTE_E3, 169 }, 
	{ NOTE_A4, 169 }, 
	{ NOTE_B4, 169 }, 
	{ NOTE_F5, 169 }, 
	{ NOTE_D5, 169 }, 
	{ NOTE_E5, 338 }, 
	{ NOTE_F5, 169 }, 
	{ NOTE_E5, 342 }, 
	{ NOTE_D5, 169 }, 
	{ NOTE_C5, 169 }, 
	{ NOTE_B4, 169 }, 
	{ NOTE_C5, 169 }, 
	{ NOTE_F4, 338 }, 
	{ NOTE_G4, 169 }, 
	{ NOTE_A4, 342 }, 
	{ NOTE_B4, 169 }, 
	{ NOTE_DB5, 169 }, 
	{ NOTE_EB5, 169 }, 
	{ NOTE_F5, 169 }, 
	{ NOTE_G5, 172 }, 
	{ NOTE_REST, 169 }, 
	{ NOTE_A4, 169 }, 
	{ NOTE_B4, 169 }, 
	{ NOTE_F5, 169 }, 
	{ NOTE_D5, 169 }, 
	{ NOTE_E5, 338 }, 
	{ NOTE_F5, 169 }, 
	{ NOTE_E5, 342 }, 
	{ NOTE_D5, 169 }, 
	{ NOTE_C5, 169 }, 
	{ NOTE_B4, 169 }, 
	{ NOTE_C5, 169 }, 
	{ NOTE_F4, 341 }, 
	{ NOTE_G6, 169 }, 
	{ NOTE_F6, 169 }, 
	{ NOTE_EB6, 169 }, 
	{ NOTE_B5, 169 }, 
	{ NOTE_DB6, 169 }, 
	{ NOTE_B5, 169 }, 
	{ NOTE_A5, 169 }, 
	{ NOTE_G5, 169 }, 
	{ NOTE_D5, 169 }, 
	{ NOTE_EB5, 169 }, 
	{ NOTE_BB5, 169 }, 
	{ NOTE_EB5, 169 }, 
	{ NOTE_DB5, 169 }, 
	{ NOTE_AB4, 176 }, 
	{ NOTE_E3, 169 }, 
	{ NOTE_GB4, 169 }, 
	{ NOTE_AB4, 169 }, 
	{ NOTE_EB5, 169 }, 
	{ NOTE_AB4, 169 }, 
	{ NOTE_D5, 338 }, 
	{ NOTE_BB4, 169 }, 
	{ NOTE_B4, 342 }, 
	{ NOTE_B4, 169 }, 
	{ NOTE_C5, 338 }, 
	{ NOTE_AB4, 169 }, 
	{ NOTE_A4, 338 }, 
	{ NOTE_GB4, 169 }, 
	{ NOTE_AB4, 173 }, 
	{ NOTE_EB5, 169 }, 
	{ NOTE_AB4, 169 }, 
	{ NOTE_D5, 338 }, 
	{ NOTE_BB4, 169 }, 
	{ NOTE_B4, 338 }, 
	{ NOTE_B4, 169 }, 
	{ NOTE_C5, 173 }, 
	{ NOTE_DB5, 169 }, 
	{ NOTE_D5, 169 }, 
	{ NOTE_E5, 169 }, 
	{ NOTE_F5, 169 }, 
	{ NOTE_G5, 169 }, 
	{ NOTE_AB5, 169 }, 
	{ NOTE_E5, 169 }, 
	{ NOTE_F5, 173 }, 
	{ NOTE_E3, 169 }, 
	{ NOTE_GB4, 169 }, 
	{ NOTE_AB4, 169 }, 
	{ NOTE_EB5, 169 }, 
	{ NOTE_AB4, 169 }, 
	{ NOTE_D5, 338 }, 
	{ NOTE_BB4, 169 }, 
	{ NOTE_B4, 342 }, 
	{ NOTE_B4, 169 }, 
	{ NOTE_C5, 338 }, 
	{ NOTE_AB4, 169 }, 
	{ NOTE_A4, 338 }, 
	{ NOTE_GB4, 169 }, 
	{ NOTE_AB4, 173 }, 
	{ NOTE_EB5, 169 }, 
	{ NOTE_AB4, 169 }, 
	{ NOTE_D5, 338 }, 
	{ NOTE_BB4, 169 }, 
	{ NOTE_B4, 338 }, 
	{ NOTE_B4, 169 }, 
	{ NOTE_C5, 173 }, 
	{ NOTE_DB5, 169 }, 
	{ NOTE_D5, 169 }, 
	{ NOTE_E5, 169 }, 
	{ NOTE_F5, 169 }, 
	{ NOTE_G5, 169 }, 
	{ NOTE_AB5, 169 }, 
	{ NOTE_E5, 169 }, 
	{ NOTE_F5, 173 }, 
	{ NOTE_E3, 134 }, 
	{ NOTE_GB4, 134 }, 
	{ NOTE_AB4, 134 }, 
	{ NOTE_EB5, 134 }, 
	{ NOTE_AB4, 134 }, 
	{ NOTE_D5, 134 }, 
	{ NOTE_BB4, 134 }, 
	{ NOTE_B4, 134 }, 
	{ NOTE_B4, 134 }, 
	{ NOTE_C5, 134 }, 
	{ NOTE_AB4, 134 }, 
	{ NOTE_A4, 133 }, 
	{ NOTE_E3, 134 }, 
	{ NOTE_GB4, 134 }, 
	{ NOTE_AB4, 134 }, 
	{ NOTE_EB5, 134 }, 
	{ NOTE_AB4, 134 }, 
	{ NOTE_D5, 134 }, 
	{ NOTE_BB4, 134 }, 
	{ NOTE_B4, 134 }, 
	{ NOTE_B4, 134 }, 
	{ NOTE_C5, 134 }, 
	{ NOTE_AB4, 134 }, 
	{ NOTE_A4, 134 }, 
	{ NOTE_BB4, 134 }, 
	{ NOTE_B4, 134 }, 
	{ NOTE_G4, 134 }, 
	{ NOTE_AB4, 133 }, 
	{ NOTE_E3, 134 }, 
	{ NOTE_GB4, 134 }, 
	{ NOTE_AB4, 134 }, 
	{ NOTE_EB5, 134 }, 
	{ NOTE_AB4, 134 }, 
	{ NOTE_D5, 134 }, 
	{ NOTE_BB4, 134 }, 
	{ NOTE_B4, 134 }, 
	{ NOTE_B4, 134 }, 
	{ NOTE_C5, 134 }, 
	{ NOTE_AB4, 134 }, 
	{ NOTE_A4, 133 }, 
	{ NOTE_E3, 134 }, 
	{ NOTE_GB4, 134 }, 
	{ NOTE_AB4, 134 }, 
	{ NOTE_EB5, 134 }, 
	{ NOTE_AB4, 134 }, 
	{ NOTE_D5, 134 }, 
	{ NOTE_BB4, 134 }, 
	{ NOTE_B4, 134 }, 
	{ NOTE_C5, 134 }, 
	{ NOTE_DB5, 134 }, 
	{ NOTE_D5, 134 }, 
	{ NOTE_EB5, 134 }, 
	{ NOTE_E5, 134 }, 
	{ NOTE_GB5, 134 }, 
	{ NOTE_G5, 134 }, 
	{ NOTE_AB5, 133 }, 
	{ NOTE_E3, 134 }, 
	{ NOTE_GB4, 134 }, 
	{ NOTE_AB4, 134 }, 
	{ NOTE_EB5, 134 }, 
	{ NOTE_AB4, 134 }, 
	{ NOTE_D5, 134 }, 
	{ NOTE_BB4, 134 }, 
	{ NOTE_B4, 134 }, 
	{ NOTE_B4, 134 }, 
	{ NOTE_C5, 134 }, 
	{ NOTE_AB4, 134 }, 
	{ NOTE_A4, 133 }, 
	{ NOTE_E3, 134 }, 
	{ NOTE_GB4, 134 }, 
	{ NOTE_AB4, 134 }, 
	{ NOTE_EB5, 134 }, 
	{ NOTE_AB4, 134 }, 
	{ NOTE_D5, 134 }, 
	{ NOTE_B4, 134 }, 
	{ NOTE_C5, 134 }, 
	{ NOTE_AB4, 134 }, 
	{ NOTE_A4, 133 }, 
	{ NOTE_E3, 134 }, 
	{ NOTE_GB4, 134 }, 
	{ NOTE_AB4, 134 }, 
	{ NOTE_EB5, 134 }, 
	{ NOTE_AB4, 134 }, 
	{ NOTE_D5, 134 }, 
	{ NOTE_BB4, 134 }, 
	{ NOTE_B4, 134 }, 
	{ NOTE_B4, 134 }, 
	{ NOTE_C5, 134 }, 
	{ NOTE_AB4, 134 }, 
	{ NOTE_A4, 133 }, 
	{ NOTE_E3, 134 }, 
	{ NOTE_GB4, 134 }, 
	{ NOTE_AB4, 134 }, 
	{ NOTE_EB5, 134 }, 
	{ NOTE_AB4, 134 }, 
	{ NOTE_D5, 134 }, 
	{ NOTE_B4, 134 }, 
	{ NOTE_C5, 134 }, 
	{ NOTE_AB4, 134 }, 
	{ NOTE_A4, 134 }, 
	{ NOTE_BB4, 134 }, 
	{ NOTE_B4, 134 }, 
	{ NOTE_G4, 134 }, 
	{ NOTE_AB4, 133 }, 
	{ NOTE_B4, 134 }, 
	{ NOTE_AB4, 134 }, 
	{ NOTE_BB4, 134 }, 
	{ NOTE_AB4, 134 }, 
	{ NOTE_E3, 134 }, 
	{ NOTE_B4, 134 }, 
	{ NOTE_AB4, 134 }, 
	{ NOTE_BB4, 134 }, 
	{ NOTE_AB4, 134 }, 
	{ NOTE_E3, 134 }, 
	{ NOTE_B4, 134 }, 
	{ NOTE_AB4, 134 }, 
	{ NOTE_BB4, 134 }, 
	{ NOTE_AB4, 134 }, 
	{ NOTE_E3, 134 }, 
	{ NOTE_G4, 134 }, 
	{ NOTE_AB4, 134 }, 
	{ NOTE_BB4, 134 }, 
	{ NOTE_B4, 134 }, 
	{ NOTE_DB5, 134 }, 
	{ NOTE_D5, 134 }, 
	{ NOTE_E3, 134 }, 
	{ NOTE_GB3, 134 }, 
	{ NOTE_AB3, 134 }, 
	{ NOTE_EB4, 134 }, 
	{ NOTE_AB3, 134 }, 
	{ NOTE_D4, 134 }, 
	{ NOTE_BB3, 134 }, 
	{ NOTE_B3, 134 }, 
	{ NOTE_B3, 134 }, 
	{ NOTE_C4, 134 }, 
	{ NOTE_AB3, 134 }, 
	{ NOTE_A3, 133 }, 
	{ NOTE_E3, 134 }, 
	{ NOTE_GB3, 134 }, 
	{ NOTE_AB3, 134 }, 
	{ NOTE_EB4, 134 }, 
	{ NOTE_AB3, 134 }, 
	{ NOTE_D4, 134 }, 
	{ NOTE_BB3, 134 }, 
	{ NOTE_B3, 134 }, 
	{ NOTE_B3, 134 }, 
	{ NOTE_C4, 134 }, 
	{ NOTE_AB3, 134 }, 
	{ NOTE_A3, 134 }, 
	{ NOTE_BB3, 134 }, 
	{ NOTE_B3, 134 }, 
	{ NOTE_G3, 134 }, 
	{ NOTE_AB3, 133 }, 
	{ NOTE_E3, 134 }, 
	{ NOTE_GB3, 134 }, 
	{ NOTE_AB3, 134 }, 
	{ NOTE_EB4, 134 }, 
	{ NOTE_AB3, 134 }, 
	{ NOTE_D4, 134 }, 
	{ NOTE_BB3, 134 }, 
	{ NOTE_B3, 134 }, 
	{ NOTE_B3, 134 }, 
	{ NOTE_C4, 134 }, 
	{ NOTE_AB3, 134 }, 
	{ NOTE_A3, 133 }, 
	{ NOTE_E3, 134 }, 
	{ NOTE_GB3, 134 }, 
	{ NOTE_AB3, 134 }, 
	{ NOTE_EB4, 134 }, 
	{ NOTE_AB3, 134 }, 
	{ NOTE_D4, 134 }, 
	{ NOTE_BB3, 134 }, 
	{ NOTE_B3, 134 }, 
	{ NOTE_C4, 134 }, 
	{ NOTE_DB4, 134 }, 
	{ NOTE_D4, 134 }, 
	{ NOTE_EB4, 134 }, 
	{ NOTE_E4, 134 }, 
	{ NOTE_GB4, 134 }, 
	{ NOTE_G4, 134 }, 
	{ NOTE_AB4, 133 }, 
	{ NOTE_E3, 134 }, 
	{ NOTE_GB3, 134 }, 
	{ NOTE_AB3, 134 }, 
	{ NOTE_EB4, 134 }, 
	{ NOTE_AB3, 134 }, 
	{ NOTE_D4, 134 }, 
	{ NOTE_BB3, 134 }, 
	{ NOTE_B3, 134 }, 
	{ NOTE_B3, 134 }, 
	{ NOTE_C4, 134 }, 
	{ NOTE_AB3, 134 }, 
	{ NOTE_A3, 133 }, 
	{ NOTE_E3, 134 }, 
	{ NOTE_GB3, 134 }, 
	{ NOTE_AB3, 134 }, 
	{ NOTE_EB4, 134 }, 
	{ NOTE_AB3, 134 }, 
	{ NOTE_D4, 134 }, 
	{ NOTE_B3, 134 }, 
	{ NOTE_C4, 134 }, 
	{ NOTE_AB3, 134 }, 
	{ NOTE_A3, 133 }, 
	{ NOTE_E3, 134 }, 
	{ NOTE_GB3, 134 }, 
	{ NOTE_AB3, 134 }, 
	{ NOTE_EB4, 134 }, 
	{ NOTE_AB3, 134 }, 
	{ NOTE_D4, 134 }, 
	{ NOTE_BB3, 134 }, 
	{ NOTE_B3, 134 }, 
	{ NOTE_B3, 134 }, 
	{ NOTE_C4, 134 }, 
	{ NOTE_AB3, 134 }, 
	{ NOTE_A3, 133 }, 
	{ NOTE_E3, 134 }, 
	{ NOTE_GB3, 134 }, 
	{ NOTE_AB3, 134 }, 
	{ NOTE_EB4, 134 }, 
	{ NOTE_AB3, 134 }, 
	{ NOTE_D4, 134 }, 
	{ NOTE_B3, 134 }, 
	{ NOTE_C4, 134 }, 
	{ NOTE_AB3, 134 }, 
	{ NOTE_A3, 134 }, 
	{ NOTE_BB3, 134 }, 
	{ NOTE_B3, 134 }, 
	{ NOTE_G3, 134 }, 
	{ NOTE_AB3, 133 }, 
	{ NOTE_B3, 134 }, 
	{ NOTE_AB3, 134 }, 
	{ NOTE_BB3, 134 }, 
	{ NOTE_AB3, 134 }, 
	{ NOTE_E3, 134 }, 
	{ NOTE_B3, 134 }, 
	{ NOTE_AB3, 134 }, 
	{ NOTE_BB3, 134 }, 
	{ NOTE_AB3, 134 }, 
	{ NOTE_E3, 134 }, 
	{ NOTE_B3, 134 }, 
	{ NOTE_AB3, 134 }, 
	{ NOTE_BB3, 134 }, 
	{ NOTE_AB3, 134 }, 
	{ NOTE_E3, 134 }, 
	{ NOTE_G3, 134 }, 
	{ NOTE_AB3, 134 }, 
	{ NOTE_BB3, 134 }, 
	{ NOTE_B3, 134 }, 
	{ NOTE_DB4, 134 }, 
	{ NOTE_D4, 134 }, 
	{ NOTE_E4, 134 }, 
	{ NOTE_DB4, 134 }, 
	{ NOTE_EB4, 134 }, 
	{ NOTE_DB4, 134 }, 
	{ NOTE_A3, 134 }, 
	{ NOTE_E4, 134 }, 
	{ NOTE_DB4, 134 }, 
	{ NOTE_EB4, 134 }, 
	{ NOTE_DB4, 134 }, 
	{ NOTE_A3, 134 }, 
	{ NOTE_E4, 134 }, 
	{ NOTE_DB4, 134 }, 
	{ NOTE_EB4, 134 }, 
	{ NOTE_DB4, 134 }, 
	{ NOTE_A3, 134 }, 
	{ NOTE_C4, 134 }, 
	{ NOTE_DB4, 134 }, 
	{ NOTE_EB4, 134 }, 
	{ NOTE_E4, 134 }, 
	{ NOTE_GB4, 134 }, 
	{ NOTE_G4, 134 }, 
	{ NOTE_E4, 134 }, 
	{ NOTE_GB4, 134 }, 
	{ NOTE_E4, 134 }, 
	{ NOTE_C4, 134 }, 
	{ NOTE_G4, 134 }, 
	{ NOTE_E4, 134 }, 
	{ NOTE_GB4, 134 }, 
	{ NOTE_E4, 134 }, 
	{ NOTE_GB4, 134 }, 
	{ NOTE_E4, 134 }, 
	{ NOTE_C4, 133 }, 
	{ NOTE_G4, 134 }, 
	{ NOTE_E4, 134 }, 
	{ NOTE_GB4, 134 }, 
	{ NOTE_E4, 134 }, 
	{ NOTE_C4, 134 }, 
	{ NOTE_E4, 134 }, 
	{ NOTE_GB4, 134 }, 
	{ NOTE_G4, 134 }, 
	{ NOTE_A4, 134 }, 
	{ NOTE_BB4, 134 }, 
	{ NOTE_C5, 134 }, 
	{ NOTE_DB5, 134 }, 
	{ NOTE_BB4, 134 }, 
	{ NOTE_C5, 134 }, 
	{ NOTE_AB4, 134 }, 
	{ NOTE_F4, 134 }, 
	{ NOTE_DB5, 134 }, 
	{ NOTE_BB4, 134 }, 
	{ NOTE_C5, 134 }, 
	{ NOTE_AB4, 134 }, 
	{ NOTE_F4, 134 }, 
	{ NOTE_DB5, 134 }, 
	{ NOTE_BB4, 134 }, 
	{ NOTE_C5, 134 }, 
	{ NOTE_AB4, 134 }, 
	{ NOTE_F4, 134 }, 
	{ NOTE_G4, 144 }, 
	{ NOTE_AB4, 144 }, 
	{ NOTE_G4, 144 }, 
	{ NOTE_F4, 144 }, 
	{ NOTE_EB4, 144 }, 
	{ NOTE_DB4, 144 }, 
	{ NOTE_C4, 146 }, 
	{ NOTE_B3, 433 }, 
	{ NOTE_GB4, 288 }, 
	{ NOTE_B3, 144 }, 
	{ NOTE_F4, 288 }, 
	{ NOTE_EB4, 288 }, 
	{ NOTE_DB4, 290 }, 
	{ NOTE_B3, 433 }, 
	{ NOTE_GB4, 288 }, 
	{ NOTE_B3, 144 }, 
	{ NOTE_F4, 144 }, 
	{ NOTE_GB4, 72 }, 
	{ NOTE_F4, 72 }, 
	{ NOTE_EB4, 144 }, 
	{ NOTE_DB4, 144 }, 
	{ NOTE_B3, 144 }, 
	{ NOTE_AB3, 146 }, 
	{ NOTE_DB4, 433 }, 
	{ NOTE_AB4, 288 }, 
	{ NOTE_DB4, 144 }, 
	{ NOTE_GB4, 288 }, 
	{ NOTE_F4, 288 }, 
	{ NOTE_EB4, 290 }, 
	{ NOTE_DB4, 433 }, 
	{ NOTE_AB4, 288 }, 
	{ NOTE_DB4, 144 }, 
	{ NOTE_GB4, 144 }, 
	{ NOTE_AB4, 72 }, 
	{ NOTE_GB4, 72 }, 
	{ NOTE_F4, 144 }, 
	{ NOTE_EB4, 144 }, 
	{ NOTE_DB4, 144 }, 
	{ NOTE_B3, 144 }, 
	{ NOTE_DB4, 144 }, 
	{ NOTE_EB4, 146 }, 
	{ NOTE_A3, 450 }, 
	{ NOTE_E4, 300 }, 
	{ NOTE_A3, 150 }, 
	{ NOTE_EB4, 300 }, 
	{ NOTE_DB4, 300 }, 
	{ NOTE_B3, 300 }, 
	{ NOTE_A3, 450 }, 
	{ NOTE_E4, 300 }, 
	{ NOTE_A3, 150 }, 
	{ NOTE_GB4, 150 }, 
	{ NOTE_E4, 150 }, 
	{ NOTE_EB4, 150 }, 
	{ NOTE_DB4, 150 }, 
	{ NOTE_B3, 150 }, 
	{ NOTE_A3, 150 }, 
	{ NOTE_GB3, 450 }, 
	{ NOTE_DB4, 300 }, 
	{ NOTE_GB3, 150 }, 
	{ NOTE_C4, 300 }, 
	{ NOTE_BB3, 300 }, 
	{ NOTE_AB3, 300 }, 
	{ NOTE_GB3, 750 }, 
	{ NOTE_DB4, 500 }, 
	{ NOTE_GB3, 250 }, 
	{ NOTE_EB4, 250 }, 
	{ NOTE_DB4, 250 }, 
	{ NOTE_C4, 250 }, 
	{ NOTE_BB3, 250 }, 
	{ NOTE_AB3, 250 }, 
	{ NOTE_GB3, 250 }, 
	{ NOTE_E3, 484 }, 
	{ NOTE_B3, 242 }, 
	{ NOTE_B3, 242 }, 
	{ NOTE_B3, 242 }, 
	{ NOTE_GB4, 484 }, 
	{ NOTE_GB4, 484 }, 
	{ NOTE_GB4, 484 }, 
};
const uint16_t NUM_OF_NOTES1 = sizeof(melody1)/sizeof(melody1[0]);

const Note melody2[] PROGMEM = {
	{ NOTE_REST, 2308 }, 
	{ NOTE_REST, 2308 }, 
	{ NOTE_REST, 2308 }, 
	{ NOTE_REST, 2308 }, 
	{ NOTE_REST, 121 }, 
	{ NOTE_REST, 121 }, 
	{ NOTE_REST, 121 }, 
	{ NOTE_REST, 121 }, 
	{ NOTE_REST, 121 }, 
	{ NOTE_REST, 121 }, 
	{ NOTE_REST, 121 }, 
	{ NOTE_REST, 121 }, 
	{ NOTE_REST, 121 }, 
	{ NOTE_REST, 121 }, 
	{ NOTE_REST, 121 }, 
	{ NOTE_REST, 121 }, 
	{ NOTE_REST, 121 }, 
	{ NOTE_REST, 121 }, 
	{ NOTE_REST, 121 }, 
	{ NOTE_REST, 120 }, 
	{ NOTE_REST, 121 }, 
	{ NOTE_REST, 121 }, 
	{ NOTE_REST, 121 }, 
	{ NOTE_REST, 121 }, 
	{ NOTE_REST, 121 }, 
	{ NOTE_REST, 121 }, 
	{ NOTE_REST, 121 }, 
	{ NOTE_REST, 121 }, 
	{ NOTE_REST, 121 }, 
	{ NOTE_REST, 121 }, 
	{ NOTE_REST, 121 }, 
	{ NOTE_REST, 121 }, 
	{ NOTE_REST, 60 }, 
	{ NOTE_REST, 60 }, 
	{ NOTE_REST, 60 }, 
	{ NOTE_REST, 62 }, 
	{ NOTE_REST, 121 }, 
	{ NOTE_REST, 121 }, 
	{ NOTE_REST, 121 }, 
	{ NOTE_REST, 121 }, 
	{ NOTE_REST, 121 }, 
	{ NOTE_REST, 121 }, 
	{ NOTE_REST, 121 }, 
	{ NOTE_REST, 121 }, 
	{ NOTE_REST, 121 }, 
	{ NOTE_REST, 121 }, 
	{ NOTE_REST, 121 }, 
	{ NOTE_REST, 121 }, 
	{ NOTE_REST, 121 }, 
	{ NOTE_REST, 121 }, 
	{ NOTE_REST, 121 }, 
	{ NOTE_REST, 121 }, 
	{ NOTE_REST, 121 }, 
	{ NOTE_REST, 121 }, 
	{ NOTE_REST, 121 }, 
	{ NOTE_REST, 121 }, 
	{ NOTE_REST, 60 }, 
	{ NOTE_REST, 60 }, 
	{ NOTE_REST, 60 }, 
	{ NOTE_REST, 60 }, 
	{ NOTE_REST, 81 }, 
	{ NOTE_REST, 81 }, 
	{ NOTE_REST, 82 }, 
	{ NOTE_REST, 121 }, 
	{ NOTE_REST, 121 }, 
	{ NOTE_REST, 121 }, 
	{ NOTE_REST, 121 }, 
	{ NOTE_REST, 121 }, 
	{ NOTE_REST, 121 }, 
	{ NOTE_REST, 121 }, 
	{ NOTE_REST, 121 }, 
	{ NOTE_REST, 121 }, 
	{ NOTE_REST, 121 }, 
	{ NOTE_REST, 121 }, 
	{ NOTE_REST, 121 }, 
	{ NOTE_REST, 121 }, 
	{ NOTE_REST, 121 }, 
	{ NOTE_REST, 121 }, 
	{ NOTE_REST, 120 }, 
	{ NOTE_REST, 121 }, 
	{ NOTE_REST, 121 }, 
	{ NOTE_REST, 121 }, 
	{ NOTE_REST, 121 }, 
	{ NOTE_REST, 121 }, 
	{ NOTE_REST, 121 }, 
	{ NOTE_REST, 121 }, 
	{ NOTE_REST, 121 }, 
	{ NOTE_REST, 121 }, 
	{ NOTE_REST, 121 }, 
	{ NOTE_REST, 121 }, 
	{ NOTE_REST, 121 }, 
	{ NOTE_REST, 60 }, 
	{ NOTE_REST, 60 }, 
	{ NOTE_REST, 60 }, 
	{ NOTE_REST, 62 }, 
	{ NOTE_REST, 121 }, 
	{ NOTE_REST, 121 }, 
	{ NOTE_REST, 121 }, 
	{ NOTE_REST, 121 }, 
	{ NOTE_REST, 121 }, 
	{ NOTE_REST, 121 }, 
	{ NOTE_REST, 121 }, 
	{ NOTE_REST, 121 }, 
	{ NOTE_REST, 121 }, 
	{ NOTE_REST, 121 }, 
	{ NOTE_REST, 121 }, 
	{ NOTE_REST, 121 }, 
	{ NOTE_REST, 121 }, 
	{ NOTE_REST, 121 }, 
	{ NOTE_REST, 121 }, 
	{ NOTE_REST, 121 }, 
	{ NOTE_REST, 121 }, 
	{ NOTE_REST, 121 }, 
	{ NOTE_REST, 121 }, 
	{ NOTE_REST, 121 }, 
	{ NOTE_REST, 121 }, 
	{ NOTE_REST, 121 }, 
	{ NOTE_REST, 121 }, 
	{ NOTE_REST, 121 }, 
	{ NOTE_D5, 1210 }, 
	{ NOTE_G4, 725 }, 
	{ NOTE_D4, 1694 }, 
	{ NOTE_E4, 1452 }, 
	{ NOTE_G4, 726 }, 
	{ NOTE_DB6, 968 }, 
	{ NOTE_D5, 1210 }, 
	{ NOTE_G4, 725 }, 
	{ NOTE_D4, 1694 }, 
	{ NOTE_E4, 1452 }, 
	{ NOTE_G5, 727 }, 
	{ NOTE_DB6, 967 }, 
	{ NOTE_G3, 242 }, 
	{ NOTE_AB3, 121 }, 
	{ NOTE_G3, 242 }, 
	{ NOTE_AB3, 121 }, 
	{ NOTE_G3, 121 }, 
	{ NOTE_AB3, 121 }, 
	{ NOTE_C4, 121 }, 
	{ NOTE_D4, 121 }, 
	{ NOTE_F4, 121 }, 
	{ NOTE_G4, 121 }, 
	{ NOTE_AB4, 121 }, 
	{ NOTE_G3, 242 }, 
	{ NOTE_AB3, 121 }, 
	{ NOTE_G3, 242 }, 
	{ NOTE_AB3, 121 }, 
	{ NOTE_G3, 242 }, 
	{ NOTE_D4, 121 }, 
	{ NOTE_C4, 121 }, 
	{ NOTE_AB3, 121 }, 
	{ NOTE_G3, 121 }, 
	{ NOTE_F3, 121 }, 
	{ NOTE_EB3, 121 }, 
	{ NOTE_D3, 121 }, 
	{ NOTE_G3, 242 }, 
	{ NOTE_AB3, 121 }, 
	{ NOTE_G3, 242 }, 
	{ NOTE_AB3, 121 }, 
	{ NOTE_G3, 242 }, 
	{ NOTE_AB3, 242 }, 
	{ NOTE_G3, 121 }, 
	{ NOTE_AB3, 121 }, 
	{ NOTE_C4, 121 }, 
	{ NOTE_D4, 121 }, 
	{ NOTE_F4, 121 }, 
	{ NOTE_G4, 121 }, 
	{ NOTE_AB4, 120 }, 
	{ NOTE_G3, 242 }, 
	{ NOTE_AB3, 121 }, 
	{ NOTE_G3, 242 }, 
	{ NOTE_AB3, 121 }, 
	{ NOTE_G3, 121 }, 
	{ NOTE_AB3, 121 }, 
	{ NOTE_D4, 121 }, 
	{ NOTE_C4, 121 }, 
	{ NOTE_AB3, 121 }, 
	{ NOTE_G3, 121 }, 
	{ NOTE_F3, 121 }, 
	{ NOTE_EB3, 121 }, 
	{ NOTE_D4, 121 }, 
	{ NOTE_EB4, 121 }, 
	{ NOTE_G4, 121 }, 
	{ NOTE_A4, 121 }, 
	{ NOTE_D5, 121 }, 
	{ NOTE_EB5, 121 }, 
	{ NOTE_G5, 121 }, 
	{ NOTE_A5, 121 }, 
	{ NOTE_G5, 121 }, 
	{ NOTE_EB5, 121 }, 
	{ NOTE_D5, 121 }, 
	{ NOTE_C5, 121 }, 
	{ NOTE_A4, 121 }, 
	{ NOTE_G4, 121 }, 
	{ NOTE_F4, 121 }, 
	{ NOTE_EB4, 120 }, 
	{ NOTE_D4, 121 }, 
	{ NOTE_EB4, 121 }, 
	{ NOTE_G4, 121 }, 
	{ NOTE_A4, 121 }, 
	{ NOTE_D5, 121 }, 
	{ NOTE_EB5, 121 }, 
	{ NOTE_G5, 121 }, 
	{ NOTE_A5, 121 }, 
	{ NOTE_G5, 121 }, 
	{ NOTE_EB5, 121 }, 
	{ NOTE_D5, 121 }, 
	{ NOTE_C5, 121 }, 
	{ NOTE_A4, 60 }, 
	{ NOTE_G4, 60 }, 
	{ NOTE_F4, 60 }, 
	{ NOTE_EB4, 62 }, 
	{ NOTE_D4, 121 }, 
	{ NOTE_EB4, 121 }, 
	{ NOTE_G4, 121 }, 
	{ NOTE_A4, 121 }, 
	{ NOTE_D5, 121 }, 
	{ NOTE_EB5, 121 }, 
	{ NOTE_G5, 121 }, 
	{ NOTE_A5, 121 }, 
	{ NOTE_G5, 121 }, 
	{ NOTE_EB5, 121 }, 
	{ NOTE_D5, 121 }, 
	{ NOTE_C5, 121 }, 
	{ NOTE_B4, 121 }, 
	{ NOTE_A4, 121 }, 
	{ NOTE_F4, 121 }, 
	{ NOTE_EB4, 121 }, 
	{ NOTE_DB5, 121 }, 
	{ NOTE_B4, 121 }, 
	{ NOTE_G4, 121 }, 
	{ NOTE_F4, 121 }, 
	{ NOTE_F5, 60 }, 
	{ NOTE_EB5, 60 }, 
	{ NOTE_B4, 60 }, 
	{ NOTE_A4, 60 }, 
	{ NOTE_G4, 81 }, 
	{ NOTE_F4, 81 }, 
	{ NOTE_EB4, 82 }, 
	{ NOTE_D4, 121 }, 
	{ NOTE_EB4, 121 }, 
	{ NOTE_G4, 121 }, 
	{ NOTE_A4, 121 }, 
	{ NOTE_D5, 121 }, 
	{ NOTE_EB5, 121 }, 
	{ NOTE_G5, 121 }, 
	{ NOTE_A5, 121 }, 
	{ NOTE_G5, 121 }, 
	{ NOTE_EB5, 121 }, 
	{ NOTE_D5, 121 }, 
	{ NOTE_C5, 121 }, 
	{ NOTE_A4, 121 }, 
	{ NOTE_G4, 121 }, 
	{ NOTE_F4, 121 }, 
	{ NOTE_EB4, 120 }, 
	{ NOTE_D4, 121 }, 
	{ NOTE_EB4, 121 }, 
	{ NOTE_G4, 121 }, 
	{ NOTE_A4, 121 }, 
	{ NOTE_D5, 121 }, 
	{ NOTE_EB5, 121 }, 
	{ NOTE_G5, 121 }, 
	{ NOTE_A5, 121 }, 
	{ NOTE_G5, 121 }, 
	{ NOTE_EB5, 121 }, 
	{ NOTE_D5, 121 }, 
	{ NOTE_C5, 121 }, 
	{ NOTE_A4, 60 }, 
	{ NOTE_G4, 60 }, 
	{ NOTE_F4, 60 }, 
	{ NOTE_EB4, 62 }, 
	{ NOTE_D4, 81 }, 
	{ NOTE_EB4, 81 }, 
	{ NOTE_D4, 81 }, 
	{ NOTE_C4, 81 }, 
	{ NOTE_D4, 81 }, 
	{ NOTE_EB4, 81 }, 
	{ NOTE_F4, 81 }, 
	{ NOTE_GB4, 81 }, 
	{ NOTE_AB4, 81 }, 
	{ NOTE_A4, 81 }, 
	{ NOTE_B4, 81 }, 
	{ NOTE_C5, 81 }, 
	{ NOTE_D5, 81 }, 
	{ NOTE_EB5, 81 }, 
	{ NOTE_D5, 81 }, 
	{ NOTE_C5, 81 }, 
	{ NOTE_D5, 81 }, 
	{ NOTE_EB5, 81 }, 
	{ NOTE_F5, 81 }, 
	{ NOTE_GB5, 81 }, 
	{ NOTE_AB5, 81 }, 
	{ NOTE_A5, 81 }, 
	{ NOTE_B5, 81 }, 
	{ NOTE_C6, 72 }, 
	{ NOTE_D6, 121 }, 
	{ NOTE_D5, 121 }, 
	{ NOTE_REST, 121 }, 
	{ NOTE_C6, 121 }, 
	{ NOTE_C5, 121 }, 
	{ NOTE_AB5, 121 }, 
	{ NOTE_AB4, 121 }, 
	{ NOTE_G5, 121 }, 
	{ NOTE_G4, 121 }, 
	{ NOTE_C5, 121 }, 
	{ NOTE_EB5, 121 }, 
	{ NOTE_EB4, 121 }, 
	{ NOTE_DB5, 121 }, 
	{ NOTE_DB4, 121 }, 
	{ NOTE_C5, 121 }, 
	{ NOTE_C4, 121 }, 
	{ NOTE_F4, 121 }, 
	{ NOTE_AB4, 121 }, 
	{ NOTE_AB3, 121 }, 
	{ NOTE_DB4, 120 }, 
	{ NOTE_G3, 242 }, 
	{ NOTE_AB3, 121 }, 
	{ NOTE_G3, 242 }, 
	{ NOTE_AB3, 121 }, 
	{ NOTE_G3, 242 }, 
	{ NOTE_AB3, 242 }, 
	{ NOTE_G3, 121 }, 
	{ NOTE_AB3, 121 }, 
	{ NOTE_C4, 121 }, 
	{ NOTE_D4, 121 }, 
	{ NOTE_F4, 121 }, 
	{ NOTE_G4, 121 }, 
	{ NOTE_AB4, 120 }, 
	{ NOTE_G3, 242 }, 
	{ NOTE_AB3, 121 }, 
	{ NOTE_G3, 242 }, 
	{ NOTE_AB3, 121 }, 
	{ NOTE_G3, 242 }, 
	{ NOTE_D4, 121 }, 
	{ NOTE_C4, 121 }, 
	{ NOTE_AB3, 121 }, 
	{ NOTE_G3, 121 }, 
	{ NOTE_F3, 121 }, 
	{ NOTE_EB3, 121 }, 
	{ NOTE_D3, 121 }, 
	{ NOTE_G3, 242 }, 
	{ NOTE_AB3, 121 }, 
	{ NOTE_G3, 242 }, 
	{ NOTE_AB3, 121 }, 
	{ NOTE_G3, 121 }, 
	{ NOTE_AB3, 121 }, 
	{ NOTE_C4, 121 }, 
	{ NOTE_D4, 121 }, 
	{ NOTE_F4, 121 }, 
	{ NOTE_G4, 121 }, 
	{ NOTE_AB4, 121 }, 
	{ NOTE_E5, 97 }, 
	{ NOTE_D5, 97 }, 
	{ NOTE_C5, 97 }, 
	{ NOTE_BB4, 97 }, 
	{ NOTE_AB4, 97 }, 
	{ NOTE_GB5, 121 }, 
	{ NOTE_E5, 121 }, 
	{ NOTE_D5, 121 }, 
	{ NOTE_C5, 121 }, 
	{ NOTE_BB4, 81 }, 
	{ NOTE_AB4, 81 }, 
	{ NOTE_GB4, 81 }, 
	{ NOTE_E4, 81 }, 
	{ NOTE_D4, 81 }, 
	{ NOTE_C4, 81 }, 
	{ NOTE_GB4, 81 }, 
	{ NOTE_E4, 81 }, 
	{ NOTE_D4, 81 }, 
	{ NOTE_C4, 81 }, 
	{ NOTE_BB3, 81 }, 
	{ NOTE_AB3, 75 }, 
	{ NOTE_G3, 121 }, 
	{ NOTE_REST, 121 }, 
	{ NOTE_REST, 242 }, 
	{ NOTE_REST, 242 }, 
	{ NOTE_REST, 726 }, 
	{ NOTE_REST, 1452 }, 
	{ NOTE_GB5, 125 }, 
	{ NOTE_DB5, 125 }, 
	{ NOTE_B4, 125 }, 
	{ NOTE_DB5, 125 }, 
	{ NOTE_B4, 125 }, 
	{ NOTE_GB4, 125 }, 
	{ NOTE_GB5, 125 }, 
	{ NOTE_DB5, 125 }, 
	{ NOTE_B4, 125 }, 
	{ NOTE_DB5, 125 }, 
	{ NOTE_B4, 125 }, 
	{ NOTE_GB4, 125 }, 
	{ NOTE_DB4, 83 }, 
	{ NOTE_GB4, 83 }, 
	{ NOTE_AB4, 83 }, 
	{ NOTE_DB5, 83 }, 
	{ NOTE_EB5, 83 }, 
	{ NOTE_AB5, 83 }, 
	{ NOTE_G5, 83 }, 
	{ NOTE_D5, 83 }, 
	{ NOTE_C5, 83 }, 
	{ NOTE_G4, 83 }, 
	{ NOTE_D4, 83 }, 
	{ NOTE_C4, 87 }, 
	{ NOTE_AB3, 125 }, 
	{ NOTE_D4, 125 }, 
	{ NOTE_AB4, 125 }, 
	{ NOTE_D5, 125 }, 
	{ NOTE_BB4, 125 }, 
	{ NOTE_GB4, 125 }, 
	{ NOTE_D4, 125 }, 
	{ NOTE_BB3, 125 }, 
	{ NOTE_GB5, 125 }, 
	{ NOTE_DB5, 125 }, 
	{ NOTE_B4, 125 }, 
	{ NOTE_DB5, 125 }, 
	{ NOTE_B4, 125 }, 
	{ NOTE_GB4, 125 }, 
	{ NOTE_GB5, 125 }, 
	{ NOTE_DB5, 125 }, 
	{ NOTE_B4, 125 }, 
	{ NOTE_DB5, 125 }, 
	{ NOTE_B4, 125 }, 
	{ NOTE_GB4, 125 }, 
	{ NOTE_AB5, 83 }, 
	{ NOTE_EB5, 83 }, 
	{ NOTE_DB5, 83 }, 
	{ NOTE_AB4, 83 }, 
	{ NOTE_GB4, 83 }, 
	{ NOTE_DB4, 83 }, 
	{ NOTE_G5, 83 }, 
	{ NOTE_D5, 83 }, 
	{ NOTE_C5, 83 }, 
	{ NOTE_D5, 83 }, 
	{ NOTE_C5, 83 }, 
	{ NOTE_G4, 87 }, 
	{ NOTE_D5, 125 }, 
	{ NOTE_AB4, 125 }, 
	{ NOTE_D4, 125 }, 
	{ NOTE_BB4, 125 }, 
	{ NOTE_GB4, 125 }, 
	{ NOTE_D4, 125 }, 
	{ NOTE_G3, 125 }, 
	{ NOTE_DB4, 125 }, 
	{ NOTE_GB5, 125 }, 
	{ NOTE_DB5, 125 }, 
	{ NOTE_B4, 125 }, 
	{ NOTE_DB5, 125 }, 
	{ NOTE_B4, 125 }, 
	{ NOTE_GB4, 125 }, 
	{ NOTE_GB5, 125 }, 
	{ NOTE_DB5, 125 }, 
	{ NOTE_B4, 125 }, 
	{ NOTE_DB5, 125 }, 
	{ NOTE_B4, 125 }, 
	{ NOTE_GB4, 125 }, 
	{ NOTE_DB4, 83 }, 
	{ NOTE_GB4, 83 }, 
	{ NOTE_AB4, 83 }, 
	{ NOTE_DB5, 83 }, 
	{ NOTE_EB5, 83 }, 
	{ NOTE_AB5, 83 }, 
	{ NOTE_G5, 83 }, 
	{ NOTE_D5, 83 }, 
	{ NOTE_C5, 83 }, 
	{ NOTE_G4, 83 }, 
	{ NOTE_D4, 83 }, 
	{ NOTE_C4, 87 }, 
	{ NOTE_BB3, 125 }, 
	{ NOTE_GB4, 125 }, 
	{ NOTE_BB4, 125 }, 
	{ NOTE_D5, 125 }, 
	{ NOTE_E5, 125 }, 
	{ NOTE_AB4, 125 }, 
	{ NOTE_D4, 125 }, 
	{ NOTE_AB3, 125 }, 
	{ NOTE_GB5, 125 }, 
	{ NOTE_DB5, 125 }, 
	{ NOTE_B4, 125 }, 
	{ NOTE_DB5, 125 }, 
	{ NOTE_B4, 125 }, 
	{ NOTE_GB4, 125 }, 
	{ NOTE_GB5, 125 }, 
	{ NOTE_DB5, 125 }, 
	{ NOTE_B4, 125 }, 
	{ NOTE_DB5, 125 }, 
	{ NOTE_B4, 125 }, 
	{ NOTE_GB4, 125 }, 
	{ NOTE_AB5, 83 }, 
	{ NOTE_EB5, 83 }, 
	{ NOTE_DB5, 83 }, 
	{ NOTE_EB5, 83 }, 
	{ NOTE_DB5, 83 }, 
	{ NOTE_AB4, 83 }, 
	{ NOTE_G5, 83 }, 
	{ NOTE_D5, 83 }, 
	{ NOTE_C5, 83 }, 
	{ NOTE_D5, 83 }, 
	{ NOTE_C5, 83 }, 
	{ NOTE_G4, 87 }, 
	{ NOTE_REST, 1250 }, 
	{ NOTE_REST, 5323 }, 
	{ NOTE_REST, 5323 }, 
	{ NOTE_REST, 5323 }, 
	{ NOTE_REST, 4355 }, 
	{ NOTE_B3, 81 }, 
	{ NOTE_C4, 81 }, 
	{ NOTE_D4, 81 }, 
	{ NOTE_E4, 81 }, 
	{ NOTE_GB4, 81 }, 
	{ NOTE_G4, 81 }, 
	{ NOTE_B4, 81 }, 
	{ NOTE_C5, 81 }, 
	{ NOTE_D5, 81 }, 
	{ NOTE_E5, 81 }, 
	{ NOTE_F5, 81 }, 
	{ NOTE_GB5, 77 }, 
	{ NOTE_G5, 121 }, 
	{ NOTE_E5, 121 }, 
	{ NOTE_B4, 121 }, 
	{ NOTE_G4, 121 }, 
	{ NOTE_REST, 121 }, 
	{ NOTE_E5, 121 }, 
	{ NOTE_B4, 121 }, 
	{ NOTE_G4, 121 }, 
	{ NOTE_E4, 121 }, 
	{ NOTE_REST, 121 }, 
	{ NOTE_GB5, 121 }, 
	{ NOTE_DB5, 121 }, 
	{ NOTE_BB4, 121 }, 
	{ NOTE_GB4, 121 }, 
	{ NOTE_REST, 121 }, 
	{ NOTE_E5, 121 }, 
	{ NOTE_C5, 121 }, 
	{ NOTE_A4, 121 }, 
	{ NOTE_E4, 121 }, 
	{ NOTE_REST, 121 }, 
	{ NOTE_E5, 121 }, 
	{ NOTE_B4, 121 }, 
	{ NOTE_G4, 121 }, 
	{ NOTE_E4, 121 }, 
	{ NOTE_REST, 121 }, 
	{ NOTE_B4, 121 }, 
	{ NOTE_G4, 121 }, 
	{ NOTE_E4, 121 }, 
	{ NOTE_B3, 121 }, 
	{ NOTE_REST, 121 }, 
	{ NOTE_DB5, 121 }, 
	{ NOTE_BB4, 121 }, 
	{ NOTE_GB4, 121 }, 
	{ NOTE_DB4, 121 }, 
	{ NOTE_REST, 121 }, 
	{ NOTE_BB4, 121 }, 
	{ NOTE_GB4, 121 }, 
	{ NOTE_DB4, 121 }, 
	{ NOTE_BB3, 121 }, 
	{ NOTE_REST, 121 }, 
	{ NOTE_A4, 121 }, 
	{ NOTE_E4, 121 }, 
	{ NOTE_C4, 121 }, 
	{ NOTE_REST, 120 }, 
	{ NOTE_G5, 121 }, 
	{ NOTE_E5, 121 }, 
	{ NOTE_B4, 121 }, 
	{ NOTE_G4, 121 }, 
	{ NOTE_REST, 121 }, 
	{ NOTE_E5, 121 }, 
	{ NOTE_B4, 121 }, 
	{ NOTE_G4, 121 }, 
	{ NOTE_E4, 121 }, 
	{ NOTE_REST, 121 }, 
	{ NOTE_GB5, 121 }, 
	{ NOTE_DB5, 121 }, 
	{ NOTE_BB4, 121 }, 
	{ NOTE_GB4, 121 }, 
	{ NOTE_REST, 121 }, 
	{ NOTE_E5, 121 }, 
	{ NOTE_C5, 121 }, 
	{ NOTE_A4, 121 }, 
	{ NOTE_E4, 121 }, 
	{ NOTE_REST, 121 }, 
	{ NOTE_E5, 121 }, 
	{ NOTE_B4, 121 }, 
	{ NOTE_G4, 121 }, 
	{ NOTE_E4, 121 }, 
	{ NOTE_REST, 121 }, 
	{ NOTE_B4, 121 }, 
	{ NOTE_G4, 121 }, 
	{ NOTE_E4, 121 }, 
	{ NOTE_B3, 121 }, 
	{ NOTE_REST, 121 }, 
	{ NOTE_DB5, 121 }, 
	{ NOTE_BB4, 121 }, 
	{ NOTE_GB4, 121 }, 
	{ NOTE_DB4, 121 }, 
	{ NOTE_REST, 121 }, 
	{ NOTE_BB4, 121 }, 
	{ NOTE_GB4, 121 }, 
	{ NOTE_DB4, 121 }, 
	{ NOTE_BB3, 121 }, 
	{ NOTE_REST, 121 }, 
	{ NOTE_A4, 121 }, 
	{ NOTE_E4, 121 }, 
	{ NOTE_C4, 121 }, 
	{ NOTE_REST, 120 }, 
	{ NOTE_E5, 121 }, 
	{ NOTE_B4, 121 }, 
	{ NOTE_E4, 121 }, 
	{ NOTE_EB5, 121 }, 
	{ NOTE_B4, 121 }, 
	{ NOTE_E4, 121 }, 
	{ NOTE_REST, 121 }, 
	{ NOTE_D5, 121 }, 
	{ NOTE_DB5, 121 }, 
	{ NOTE_E4, 121 }, 
	{ NOTE_C5, 121 }, 
	{ NOTE_B4, 121 }, 
	{ NOTE_E4, 121 }, 
	{ NOTE_BB4, 121 }, 
	{ NOTE_A4, 121 }, 
	{ NOTE_GB4, 120 }, 
	{ NOTE_G4, 121 }, 
	{ NOTE_EB4, 121 }, 
	{ NOTE_E4, 121 }, 
	{ NOTE_GB4, 121 }, 
	{ NOTE_G4, 121 }, 
	{ NOTE_B4, 121 }, 
	{ NOTE_GB5, 121 }, 
	{ NOTE_G5, 121 }, 
	{ NOTE_E5, 121 }, 
	{ NOTE_BB4, 121 }, 
	{ NOTE_E5, 121 }, 
	{ NOTE_BB4, 121 }, 
	{ NOTE_A4, 121 }, 
	{ NOTE_E5, 121 }, 
	{ NOTE_G4, 121 }, 
	{ NOTE_GB4, 120 }, 
	{ NOTE_E5, 121 }, 
	{ NOTE_B4, 121 }, 
	{ NOTE_E4, 121 }, 
	{ NOTE_EB5, 121 }, 
	{ NOTE_B4, 121 }, 
	{ NOTE_E4, 121 }, 
	{ NOTE_REST, 121 }, 
	{ NOTE_D5, 121 }, 
	{ NOTE_DB5, 121 }, 
	{ NOTE_E4, 121 }, 
	{ NOTE_C5, 121 }, 
	{ NOTE_B4, 121 }, 
	{ NOTE_E4, 121 }, 
	{ NOTE_BB4, 121 }, 
	{ NOTE_A4, 121 }, 
	{ NOTE_GB4, 120 }, 
	{ NOTE_G4, 121 }, 
	{ NOTE_C4, 121 }, 
	{ NOTE_DB4, 121 }, 
	{ NOTE_EB4, 121 }, 
	{ NOTE_E4, 121 }, 
	{ NOTE_A3, 121 }, 
	{ NOTE_BB3, 121 }, 
	{ NOTE_C4, 121 }, 
	{ NOTE_DB4, 121 }, 
	{ NOTE_GB3, 121 }, 
	{ NOTE_G3, 121 }, 
	{ NOTE_A3, 121 }, 
	{ NOTE_BB3, 121 }, 
	{ NOTE_A3, 121 }, 
	{ NOTE_G3, 121 }, 
	{ NOTE_GB3, 120 }, 
	{ NOTE_E4, 121 }, 
	{ NOTE_B3, 121 }, 
	{ NOTE_E3, 121 }, 
	{ NOTE_EB4, 121 }, 
	{ NOTE_B3, 121 }, 
	{ NOTE_E3, 121 }, 
	{ NOTE_REST, 121 }, 
	{ NOTE_D4, 121 }, 
	{ NOTE_DB4, 121 }, 
	{ NOTE_E3, 121 }, 
	{ NOTE_C4, 121 }, 
	{ NOTE_B3, 121 }, 
	{ NOTE_E3, 121 }, 
	{ NOTE_BB3, 121 }, 
	{ NOTE_A3, 121 }, 
	{ NOTE_GB3, 120 }, 
	{ NOTE_G3, 121 }, 
	{ NOTE_FS3, 121 }, 
	{ NOTE_E3, 121 }, 
	{ NOTE_FS3, 121 }, 
	{ NOTE_DS3, 121 }, 
	{ NOTE_E3, 121 }, 
	{ NOTE_FS3, 121 }, 
	{ NOTE_G3, 121 }, 
	{ NOTE_B3, 121 }, 
	{ NOTE_C4, 121 }, 
	{ NOTE_CS4, 121 }, 
	{ NOTE_D4, 121 }, 
	{ NOTE_DS4, 121 }, 
	{ NOTE_B3, 121 }, 
	{ NOTE_DS4, 121 }, 
	{ NOTE_FS4, 120 }, 
	{ NOTE_E4, 121 }, 
	{ NOTE_B3, 121 }, 
	{ NOTE_E3, 121 }, 
	{ NOTE_DS4, 121 }, 
	{ NOTE_B3, 121 }, 
	{ NOTE_E3, 121 }, 
	{ NOTE_REST, 121 }, 
	{ NOTE_D4, 121 }, 
	{ NOTE_CS4, 121 }, 
	{ NOTE_E3, 121 }, 
	{ NOTE_C4, 121 }, 
	{ NOTE_B3, 121 }, 
	{ NOTE_E3, 121 }, 
	{ NOTE_AS3, 121 }, 
	{ NOTE_A3, 121 }, 
	{ NOTE_FS3, 120 }, 
	{ NOTE_G4, 242 }, 
	{ NOTE_G4, 242 }, 
	{ NOTE_G4, 121 }, 
	{ NOTE_G4, 242 }, 
	{ NOTE_FS4, 605 }, 
	{ NOTE_FS5, 483 }, 
	{ NOTE_G4, 114 }, 
	{ NOTE_DS4, 114 }, 
	{ NOTE_E4, 114 }, 
	{ NOTE_FS4, 114 }, 
	{ NOTE_G4, 114 }, 
	{ NOTE_B4, 114 }, 
	{ NOTE_FS5, 114 }, 
	{ NOTE_G5, 114 }, 
	{ NOTE_E5, 114 }, 
	{ NOTE_B4, 114 }, 
	{ NOTE_REST, 114 }, 
	{ NOTE_REST, 228 }, 
	{ NOTE_REST, 227 }, 
	{ NOTE_REST, 109 }, 
	{ NOTE_CS6, 227 }, 
	{ NOTE_CS6, 227 }, 
	{ NOTE_REST, 114 }, 
	{ NOTE_REST, 227 }, 
	{ NOTE_B5, 114 }, 
	{ NOTE_B4, 76 }, 
	{ NOTE_DS5, 76 }, 
	{ NOTE_FS5, 76 }, 
	{ NOTE_B5, 76 }, 
	{ NOTE_DS6, 76 }, 
	{ NOTE_FS6, 76 }, 
	{ NOTE_B6, 38 }, 
	{ NOTE_FS6, 38 }, 
	{ NOTE_DS6, 38 }, 
	{ NOTE_B5, 114 }, 
	{ NOTE_FS5, 76 }, 
	{ NOTE_DS5, 76 }, 
	{ NOTE_B4, 73 }, 
	{ NOTE_G4, 114 }, 
	{ NOTE_DS4, 114 }, 
	{ NOTE_E4, 114 }, 
	{ NOTE_FS4, 114 }, 
	{ NOTE_G4, 114 }, 
	{ NOTE_B4, 114 }, 
	{ NOTE_FS5, 114 }, 
	{ NOTE_G5, 114 }, 
	{ NOTE_E5, 114 }, 
	{ NOTE_B4, 114 }, 
	{ NOTE_REST, 114 }, 
	{ NOTE_REST, 228 }, 
	{ NOTE_REST, 114 }, 
	{ NOTE_REST, 114 }, 
	{ NOTE_REST, 108 }, 
	{ NOTE_REST, 114 }, 
	{ NOTE_REST, 114 }, 
	{ NOTE_REST, 114 }, 
	{ NOTE_REST, 114 }, 
	{ NOTE_REST, 114 }, 
	{ NOTE_REST, 114 }, 
	{ NOTE_REST, 114 }, 
	{ NOTE_B4, 114 }, 
	{ NOTE_B5, 57 }, 
	{ NOTE_B4, 57 }, 
	{ NOTE_B5, 57 }, 
	{ NOTE_B4, 57 }, 
	{ NOTE_B5, 57 }, 
	{ NOTE_B4, 57 }, 
	{ NOTE_B5, 57 }, 
	{ NOTE_B4, 57 }, 
	{ NOTE_B5, 57 }, 
	{ NOTE_B4, 57 }, 
	{ NOTE_B5, 57 }, 
	{ NOTE_B4, 57 }, 
	{ NOTE_B5, 57 }, 
	{ NOTE_B4, 57 }, 
	{ NOTE_B5, 108 }, 
	{ NOTE_REST, 114 }, 
	{ NOTE_G4, 227 }, 
	{ NOTE_G3, 114 }, 
	{ NOTE_G4, 227 }, 
	{ NOTE_G3, 114 }, 
	{ NOTE_B3, 114 }, 
	{ NOTE_G4, 114 }, 
	{ NOTE_G3, 114 }, 
	{ NOTE_B3, 114 }, 
	{ NOTE_G4, 114 }, 
	{ NOTE_REST, 114 }, 
	{ NOTE_G4, 227 }, 
	{ NOTE_G3, 111 }, 
	{ NOTE_REST, 114 }, 
	{ NOTE_E4, 227 }, 
	{ NOTE_G3, 114 }, 
	{ NOTE_E4, 227 }, 
	{ NOTE_B3, 114 }, 
	{ NOTE_FS4, 114 }, 
	{ NOTE_REST, 114 }, 
	{ NOTE_DS5, 114 }, 
	{ NOTE_REST, 114 }, 
	{ NOTE_DS5, 114 }, 
	{ NOTE_B4, 57 }, 
	{ NOTE_B5, 57 }, 
	{ NOTE_B4, 57 }, 
	{ NOTE_B5, 57 }, 
	{ NOTE_B4, 57 }, 
	{ NOTE_B5, 57 }, 
	{ NOTE_B4, 110 }, 
	{ NOTE_REST, 114 }, 
	{ NOTE_G4, 227 }, 
	{ NOTE_E3, 114 }, 
	{ NOTE_A4, 227 }, 
	{ NOTE_A3, 114 }, 
	{ NOTE_DS4, 114 }, 
	{ NOTE_REST, 114 }, 
	{ NOTE_E5, 114 }, 
	{ NOTE_D5, 114 }, 
	{ NOTE_FS5, 114 }, 
	{ NOTE_REST, 114 }, 
	{ NOTE_FS5, 338 }, 
	{ NOTE_REST, 114 }, 
	{ NOTE_FS5, 341 }, 
	{ NOTE_FS4, 341 }, 
	{ NOTE_FS5, 341 }, 
	{ NOTE_FS4, 341 }, 
	{ NOTE_FS5, 340 }, 
	{ NOTE_F5, 112 }, 
	{ NOTE_E5, 28 }, 
	{ NOTE_D5, 28 }, 
	{ NOTE_C5, 28 }, 
	{ NOTE_B4, 28 }, 
	{ NOTE_A4, 28 }, 
	{ NOTE_G4, 28 }, 
	{ NOTE_F4, 28 }, 
	{ NOTE_E4, 28 }, 
	{ NOTE_D4, 28 }, 
	{ NOTE_C4, 28 }, 
	{ NOTE_B3, 28 }, 
	{ NOTE_A3, 28 }, 
	{ NOTE_G3, 28 }, 
	{ NOTE_F3, 28 }, 
	{ NOTE_E3, 28 }, 
	{ NOTE_D3, 28 }, 
	{ NOTE_C3, 28 }, 
	{ NOTE_B2, 28 }, 
	{ NOTE_REST, 57 }, 
	{ NOTE_REST, 227 }, 
	{ NOTE_REST, 918 }, 
	{ NOTE_E3, 114 }, 
	{ NOTE_F3, 114 }, 
	{ NOTE_B3, 114 }, 
	{ NOTE_C4, 114 }, 
	{ NOTE_E4, 114 }, 
	{ NOTE_F4, 114 }, 
	{ NOTE_E4, 114 }, 
	{ NOTE_C4, 114 }, 
	{ NOTE_E4, 114 }, 
	{ NOTE_B3, 114 }, 
	{ NOTE_C4, 114 }, 
	{ NOTE_E4, 114 }, 
	{ NOTE_F4, 114 }, 
	{ NOTE_E5, 114 }, 
	{ NOTE_E4, 114 }, 
	{ NOTE_F4, 108 }, 
	{ NOTE_D5, 114 }, 
	{ NOTE_E4, 114 }, 
	{ NOTE_F4, 114 }, 
	{ NOTE_B4, 114 }, 
	{ NOTE_C5, 114 }, 
	{ NOTE_D5, 114 }, 
	{ NOTE_C5, 114 }, 
	{ NOTE_B4, 114 }, 
	{ NOTE_C5, 114 }, 
	{ NOTE_F4, 114 }, 
	{ NOTE_E4, 114 }, 
	{ NOTE_B4, 114 }, 
	{ NOTE_E4, 114 }, 
	{ NOTE_D4, 114 }, 
	{ NOTE_C4, 114 }, 
	{ NOTE_B3, 108 }, 
	{ NOTE_E3, 114 }, 
	{ NOTE_F3, 114 }, 
	{ NOTE_B3, 114 }, 
	{ NOTE_C4, 114 }, 
	{ NOTE_E4, 114 }, 
	{ NOTE_F4, 114 }, 
	{ NOTE_E4, 114 }, 
	{ NOTE_C4, 114 }, 
	{ NOTE_E4, 114 }, 
	{ NOTE_B3, 114 }, 
	{ NOTE_C4, 114 }, 
	{ NOTE_E4, 114 }, 
	{ NOTE_F4, 114 }, 
	{ NOTE_G4, 114 }, 
	{ NOTE_A4, 114 }, 
	{ NOTE_B4, 108 }, 
	{ NOTE_C5, 114 }, 
	{ NOTE_B4, 114 }, 
	{ NOTE_A4, 114 }, 
	{ NOTE_E5, 114 }, 
	{ NOTE_A4, 114 }, 
	{ NOTE_G4, 114 }, 
	{ NOTE_F4, 114 }, 
	{ NOTE_F5, 114 }, 
	{ NOTE_E5, 114 }, 
	{ NOTE_B4, 114 }, 
	{ NOTE_A4, 114 }, 
	{ NOTE_G4, 114 }, 
	{ NOTE_F4, 114 }, 
	{ NOTE_B4, 114 }, 
	{ NOTE_E4, 114 }, 
	{ NOTE_D4, 108 }, 
	{ NOTE_E3, 114 }, 
	{ NOTE_F3, 114 }, 
	{ NOTE_B3, 114 }, 
	{ NOTE_C4, 114 }, 
	{ NOTE_E4, 114 }, 
	{ NOTE_F4, 114 }, 
	{ NOTE_E4, 114 }, 
	{ NOTE_C4, 114 }, 
	{ NOTE_E4, 114 }, 
	{ NOTE_B3, 114 }, 
	{ NOTE_C4, 114 }, 
	{ NOTE_E4, 114 }, 
	{ NOTE_F4, 114 }, 
	{ NOTE_E5, 114 }, 
	{ NOTE_G4, 114 }, 
	{ NOTE_A4, 108 }, 
	{ NOTE_F5, 114 }, 
	{ NOTE_G4, 114 }, 
	{ NOTE_A4, 114 }, 
	{ NOTE_D5, 114 }, 
	{ NOTE_E5, 114 }, 
	{ NOTE_F5, 114 }, 
	{ NOTE_E5, 114 }, 
	{ NOTE_D5, 114 }, 
	{ NOTE_E5, 114 }, 
	{ NOTE_A4, 114 }, 
	{ NOTE_G4, 114 }, 
	{ NOTE_D5, 114 }, 
	{ NOTE_G4, 114 }, 
	{ NOTE_F4, 114 }, 
	{ NOTE_E4, 114 }, 
	{ NOTE_D4, 108 }, 
	{ NOTE_E3, 114 }, 
	{ NOTE_F3, 114 }, 
	{ NOTE_B3, 114 }, 
	{ NOTE_C4, 114 }, 
	{ NOTE_E4, 114 }, 
	{ NOTE_F4, 114 }, 
	{ NOTE_E4, 114 }, 
	{ NOTE_C4, 114 }, 
	{ NOTE_E4, 114 }, 
	{ NOTE_B3, 114 }, 
	{ NOTE_C4, 114 }, 
	{ NOTE_E4, 114 }, 
	{ NOTE_F4, 114 }, 
	{ NOTE_G4, 114 }, 
	{ NOTE_A4, 114 }, 
	{ NOTE_C5, 108 }, 
	{ NOTE_F5, 76 }, 
	{ NOTE_C5, 76 }, 
	{ NOTE_B4, 76 }, 
	{ NOTE_F5, 76 }, 
	{ NOTE_B4, 76 }, 
	{ NOTE_C5, 76 }, 
	{ NOTE_G5, 76 }, 
	{ NOTE_C5, 76 }, 
	{ NOTE_B4, 76 }, 
	{ NOTE_G5, 76 }, 
	{ NOTE_B4, 76 }, 
	{ NOTE_C5, 76 }, 
	{ NOTE_A5, 76 }, 
	{ NOTE_E5, 76 }, 
	{ NOTE_D5, 76 }, 
	{ NOTE_A5, 76 }, 
	{ NOTE_D5, 76 }, 
	{ NOTE_E5, 76 }, 
	{ NOTE_B5, 76 }, 
	{ NOTE_E5, 76 }, 
	{ NOTE_D5, 76 }, 
	{ NOTE_B5, 76 }, 
	{ NOTE_E5, 76 }, 
	{ NOTE_D5, 70 }, 
	{ NOTE_E6, 76 }, 
	{ NOTE_B5, 76 }, 
	{ NOTE_A5, 76 }, 
	{ NOTE_E5, 76 }, 
	{ NOTE_B4, 76 }, 
	{ NOTE_A4, 76 }, 
	{ NOTE_E4, 76 }, 
	{ NOTE_B3, 76 }, 
	{ NOTE_A3, 76 }, 
	{ NOTE_E3, 76 }, 
	{ NOTE_A3, 76 }, 
	{ NOTE_B3, 76 }, 
	{ NOTE_E4, 76 }, 
	{ NOTE_A4, 76 }, 
	{ NOTE_B4, 76 }, 
	{ NOTE_E5, 76 }, 
	{ NOTE_A5, 76 }, 
	{ NOTE_B5, 76 }, 
	{ NOTE_E6, 76 }, 
	{ NOTE_B5, 76 }, 
	{ NOTE_A5, 76 }, 
	{ NOTE_E5, 76 }, 
	{ NOTE_B4, 76 }, 
	{ NOTE_A4, 70 }, 
	{ NOTE_E4, 76 }, 
	{ NOTE_B3, 76 }, 
	{ NOTE_A3, 76 }, 
	{ NOTE_E3, 76 }, 
	{ NOTE_A3, 76 }, 
	{ NOTE_B3, 76 }, 
	{ NOTE_E4, 76 }, 
	{ NOTE_A4, 76 }, 
	{ NOTE_B4, 76 }, 
	{ NOTE_E5, 76 }, 
	{ NOTE_A5, 76 }, 
	{ NOTE_B5, 76 }, 
	{ NOTE_E6, 76 }, 
	{ NOTE_B5, 76 }, 
	{ NOTE_A5, 76 }, 
	{ NOTE_E5, 76 }, 
	{ NOTE_B4, 76 }, 
	{ NOTE_A4, 76 }, 
	{ NOTE_E5, 76 }, 
	{ NOTE_B4, 76 }, 
	{ NOTE_A4, 76 }, 
	{ NOTE_E4, 76 }, 
	{ NOTE_D4, 76 }, 
	{ NOTE_B3, 70 }, 
	{ NOTE_REST, 1818 }, 
	{ NOTE_REST, 1818 }, 
	{ NOTE_REST, 1818 }, 
	{ NOTE_REST, 1818 }, 
	{ NOTE_REST, 1818 }, 
	{ NOTE_REST, 1818 }, 
	{ NOTE_REST, 1818 }, 
	{ NOTE_REST, 1818 }, 
	{ NOTE_REST, 1818 }, 
	{ NOTE_REST, 1818 }, 
	{ NOTE_REST, 1364 }, 
	{ NOTE_REST, 2273 }, 
	{ NOTE_REST, 1818 }, 
	{ NOTE_REST, 1818 }, 
	{ NOTE_REST, 1364 }, 
	{ NOTE_REST, 1818 }, 
	{ NOTE_REST, 1818 }, 
	{ NOTE_REST, 1818 }, 
	{ NOTE_REST, 1818 }, 
	{ NOTE_REST, 1818 }, 
	{ NOTE_REST, 1818 }, 
	{ NOTE_REST, 1818 }, 
	{ NOTE_REST, 1818 }, 
	{ NOTE_REST, 1818 }, 
	{ NOTE_REST, 114 }, 
	{ NOTE_E4, 114 }, 
	{ NOTE_D4, 114 }, 
	{ NOTE_E4, 114 }, 
	{ NOTE_REST, 114 }, 
	{ NOTE_E4, 114 }, 
	{ NOTE_D4, 114 }, 
	{ NOTE_REST, 114 }, 
	{ NOTE_D4, 114 }, 
	{ NOTE_C4, 114 }, 
	{ NOTE_D4, 114 }, 
	{ NOTE_REST, 114 }, 
	{ NOTE_REST, 114 }, 
	{ NOTE_REST, 114 }, 
	{ NOTE_D4, 114 }, 
	{ NOTE_C4, 108 }, 
	{ NOTE_REST, 114 }, 
	{ NOTE_E4, 114 }, 
	{ NOTE_D4, 114 }, 
	{ NOTE_E4, 114 }, 
	{ NOTE_REST, 114 }, 
	{ NOTE_E4, 114 }, 
	{ NOTE_D4, 114 }, 
	{ NOTE_REST, 114 }, 
	{ NOTE_G4, 114 }, 
	{ NOTE_E4, 114 }, 
	{ NOTE_REST, 114 }, 
	{ NOTE_E4, 114 }, 
	{ NOTE_D4, 114 }, 
	{ NOTE_REST, 114 }, 
	{ NOTE_D4, 114 }, 
	{ NOTE_C4, 108 }, 
	{ NOTE_REST, 114 }, 
	{ NOTE_E4, 114 }, 
	{ NOTE_D4, 114 }, 
	{ NOTE_E4, 114 }, 
	{ NOTE_REST, 114 }, 
	{ NOTE_E4, 114 }, 
	{ NOTE_D4, 114 }, 
	{ NOTE_REST, 114 }, 
	{ NOTE_D4, 114 }, 
	{ NOTE_C4, 114 }, 
	{ NOTE_D4, 114 }, 
	{ NOTE_REST, 114 }, 
	{ NOTE_REST, 114 }, 
	{ NOTE_REST, 114 }, 
	{ NOTE_D4, 114 }, 
	{ NOTE_C4, 108 }, 
	{ NOTE_REST, 114 }, 
	{ NOTE_E4, 114 }, 
	{ NOTE_D4, 114 }, 
	{ NOTE_E4, 114 }, 
	{ NOTE_REST, 114 }, 
	{ NOTE_E4, 114 }, 
	{ NOTE_D4, 114 }, 
	{ NOTE_REST, 114 }, 
	{ NOTE_E4, 114 }, 
	{ NOTE_REST, 114 }, 
	{ NOTE_E4, 114 }, 
	{ NOTE_REST, 114 }, 
	{ NOTE_B3, 114 }, 
	{ NOTE_REST, 114 }, 
	{ NOTE_B3, 114 }, 
	{ NOTE_A3, 108 }, 
	{ NOTE_REST, 114 }, 
	{ NOTE_E4, 114 }, 
	{ NOTE_D4, 114 }, 
	{ NOTE_E4, 114 }, 
	{ NOTE_REST, 114 }, 
	{ NOTE_E4, 114 }, 
	{ NOTE_D4, 114 }, 
	{ NOTE_REST, 114 }, 
	{ NOTE_D4, 114 }, 
	{ NOTE_C4, 114 }, 
	{ NOTE_D4, 114 }, 
	{ NOTE_REST, 114 }, 
	{ NOTE_REST, 114 }, 
	{ NOTE_REST, 114 }, 
	{ NOTE_D4, 114 }, 
	{ NOTE_C4, 108 }, 
	{ NOTE_REST, 114 }, 
	{ NOTE_E4, 114 }, 
	{ NOTE_D4, 114 }, 
	{ NOTE_E4, 114 }, 
	{ NOTE_REST, 114 }, 
	{ NOTE_E4, 114 }, 
	{ NOTE_D4, 114 }, 
	{ NOTE_REST, 114 }, 
	{ NOTE_G4, 114 }, 
	{ NOTE_E4, 114 }, 
	{ NOTE_REST, 114 }, 
	{ NOTE_E4, 114 }, 
	{ NOTE_D4, 114 }, 
	{ NOTE_REST, 114 }, 
	{ NOTE_D4, 114 }, 
	{ NOTE_C4, 108 }, 
	{ NOTE_REST, 114 }, 
	{ NOTE_E4, 114 }, 
	{ NOTE_D4, 114 }, 
	{ NOTE_E4, 114 }, 
	{ NOTE_REST, 114 }, 
	{ NOTE_E4, 114 }, 
	{ NOTE_D4, 114 }, 
	{ NOTE_REST, 114 }, 
	{ NOTE_D4, 114 }, 
	{ NOTE_C4, 114 }, 
	{ NOTE_D4, 114 }, 
	{ NOTE_REST, 114 }, 
	{ NOTE_REST, 114 }, 
	{ NOTE_REST, 114 }, 
	{ NOTE_D4, 114 }, 
	{ NOTE_C4, 108 }, 
	{ NOTE_REST, 114 }, 
	{ NOTE_E4, 114 }, 
	{ NOTE_D4, 114 }, 
	{ NOTE_E4, 114 }, 
	{ NOTE_REST, 114 }, 
	{ NOTE_E4, 114 }, 
	{ NOTE_D4, 114 }, 
	{ NOTE_REST, 114 }, 
	{ NOTE_E4, 114 }, 
	{ NOTE_REST, 114 }, 
	{ NOTE_E4, 114 }, 
	{ NOTE_REST, 114 }, 
	{ NOTE_C4, 114 }, 
	{ NOTE_REST, 114 }, 
	{ NOTE_B3, 114 }, 
	{ NOTE_A3, 108 }, 
	{ NOTE_REST, 114 }, 
	{ NOTE_REST, 114 }, 
	{ NOTE_REST, 114 }, 
	{ NOTE_REST, 114 }, 
	{ NOTE_REST, 114 }, 
	{ NOTE_A3, 114 }, 
	{ NOTE_REST, 114 }, 
	{ NOTE_REST, 114 }, 
	{ NOTE_REST, 114 }, 
	{ NOTE_REST, 114 }, 
	{ NOTE_REST, 114 }, 
	{ NOTE_REST, 114 }, 
	{ NOTE_REST, 114 }, 
	{ NOTE_REST, 114 }, 
	{ NOTE_REST, 114 }, 
	{ NOTE_C4, 108 }, 
	{ NOTE_REST, 114 }, 
	{ NOTE_REST, 114 }, 
	{ NOTE_REST, 114 }, 
	{ NOTE_REST, 114 }, 
	{ NOTE_REST, 114 }, 
	{ NOTE_C4, 114 }, 
	{ NOTE_REST, 114 }, 
	{ NOTE_REST, 114 }, 
	{ NOTE_REST, 114 }, 
	{ NOTE_REST, 114 }, 
	{ NOTE_REST, 114 }, 
	{ NOTE_REST, 114 }, 
	{ NOTE_REST, 114 }, 
	{ NOTE_REST, 114 }, 
	{ NOTE_REST, 114 }, 
	{ NOTE_D4, 108 }, 
	{ NOTE_REST, 114 }, 
	{ NOTE_REST, 114 }, 
	{ NOTE_REST, 114 }, 
	{ NOTE_REST, 114 }, 
	{ NOTE_REST, 114 }, 
	{ NOTE_D4, 114 }, 
	{ NOTE_REST, 114 }, 
	{ NOTE_REST, 114 }, 
	{ NOTE_REST, 114 }, 
	{ NOTE_REST, 114 }, 
	{ NOTE_REST, 114 }, 
	{ NOTE_REST, 114 }, 
	{ NOTE_REST, 114 }, 
	{ NOTE_REST, 114 }, 
	{ NOTE_REST, 114 }, 
	{ NOTE_E4, 108 }, 
	{ NOTE_REST, 114 }, 
	{ NOTE_REST, 114 }, 
	{ NOTE_REST, 114 }, 
	{ NOTE_REST, 114 }, 
	{ NOTE_REST, 114 }, 
	{ NOTE_E4, 114 }, 
	{ NOTE_REST, 114 }, 
	{ NOTE_REST, 114 }, 
	{ NOTE_REST, 114 }, 
	{ NOTE_REST, 114 }, 
	{ NOTE_REST, 114 }, 
	{ NOTE_REST, 114 }, 
	{ NOTE_REST, 114 }, 
	{ NOTE_REST, 114 }, 
	{ NOTE_REST, 114 }, 
	{ NOTE_F4, 108 }, 
	{ NOTE_REST, 114 }, 
	{ NOTE_REST, 114 }, 
	{ NOTE_REST, 114 }, 
	{ NOTE_REST, 114 }, 
	{ NOTE_REST, 114 }, 
	{ NOTE_REST, 114 }, 
	{ NOTE_REST, 111 }, 
	{ NOTE_REST, 114 }, 
	{ NOTE_REST, 114 }, 
	{ NOTE_REST, 114 }, 
	{ NOTE_REST, 114 }, 
	{ NOTE_REST, 114 }, 
	{ NOTE_REST, 114 }, 
	{ NOTE_REST, 111 }, 
	{ NOTE_REST, 114 }, 
	{ NOTE_REST, 114 }, 
	{ NOTE_REST, 114 }, 
	{ NOTE_REST, 114 }, 
	{ NOTE_REST, 114 }, 
	{ NOTE_REST, 114 }, 
	{ NOTE_REST, 111 }, 
	{ NOTE_REST, 114 }, 
	{ NOTE_REST, 114 }, 
	{ NOTE_REST, 114 }, 
	{ NOTE_REST, 114 }, 
	{ NOTE_REST, 114 }, 
	{ NOTE_REST, 114 }, 
	{ NOTE_REST, 111 }, 
	{ NOTE_REST, 114 }, 
	{ NOTE_REST, 114 }, 
	{ NOTE_REST, 114 }, 
	{ NOTE_REST, 114 }, 
	{ NOTE_REST, 114 }, 
	{ NOTE_REST, 112 }, 
	{ NOTE_REST, 114 }, 
	{ NOTE_REST, 114 }, 
	{ NOTE_REST, 114 }, 
	{ NOTE_REST, 114 }, 
	{ NOTE_REST, 114 }, 
	{ NOTE_REST, 112 }, 
	{ NOTE_REST, 114 }, 
	{ NOTE_REST, 114 }, 
	{ NOTE_REST, 114 }, 
	{ NOTE_REST, 114 }, 
	{ NOTE_REST, 114 }, 
	{ NOTE_REST, 112 }, 
	{ NOTE_REST, 114 }, 
	{ NOTE_REST, 114 }, 
	{ NOTE_REST, 114 }, 
	{ NOTE_REST, 114 }, 
	{ NOTE_REST, 114 }, 
	{ NOTE_REST, 112 }, 
	{ NOTE_REST, 114 }, 
	{ NOTE_REST, 114 }, 
	{ NOTE_REST, 114 }, 
	{ NOTE_REST, 114 }, 
	{ NOTE_REST, 114 }, 
	{ NOTE_REST, 112 }, 
	{ NOTE_E3, 114 }, 
	{ NOTE_F3, 114 }, 
	{ NOTE_C4, 114 }, 
	{ NOTE_B3, 114 }, 
	{ NOTE_B3, 114 }, 
	{ NOTE_C4, 114 }, 
	{ NOTE_F4, 111 }, 
	{ NOTE_E4, 114 }, 
	{ NOTE_F4, 114 }, 
	{ NOTE_C5, 114 }, 
	{ NOTE_B4, 114 }, 
	{ NOTE_B4, 114 }, 
	{ NOTE_C5, 114 }, 
	{ NOTE_F5, 111 }, 
	{ NOTE_E5, 114 }, 
	{ NOTE_F5, 114 }, 
	{ NOTE_C6, 114 }, 
	{ NOTE_B5, 114 }, 
	{ NOTE_B5, 114 }, 
	{ NOTE_C6, 114 }, 
	{ NOTE_F6, 111 }, 
	{ NOTE_E6, 1591 }, 
	{ NOTE_E6, 76 }, 
	{ NOTE_F6, 76 }, 
	{ NOTE_G6, 75 }, 
	{ NOTE_A5, 735 }, 
	{ NOTE_BB5, 735 }, 
	{ NOTE_A5, 1029 }, 
	{ NOTE_BB5, 735 }, 
	{ NOTE_C6, 1029 }, 
	{ NOTE_D6, 735 }, 
	{ NOTE_EB6, 735 }, 
	{ NOTE_A6, 1029 }, 
	{ NOTE_A6, 147 }, 
	{ NOTE_E6, 147 }, 
	{ NOTE_F6, 147 }, 
	{ NOTE_G6, 147 }, 
	{ NOTE_F6, 147 }, 
	{ NOTE_E6, 147 }, 
	{ NOTE_D6, 147 }, 
	{ NOTE_C6, 147 }, 
	{ NOTE_D6, 147 }, 
	{ NOTE_B5, 148 }, 
	{ NOTE_A5, 147 }, 
	{ NOTE_E5, 147 }, 
	{ NOTE_F5, 147 }, 
	{ NOTE_G5, 147 }, 
	{ NOTE_F5, 147 }, 
	{ NOTE_E5, 147 }, 
	{ NOTE_D5, 147 }, 
	{ NOTE_C5, 147 }, 
	{ NOTE_D5, 147 }, 
	{ NOTE_B4, 148 }, 
	{ NOTE_REST, 1935 }, 
	{ NOTE_REST, 1694 }, 
	{ NOTE_REST, 1452 }, 
	{ NOTE_REST, 1452 }, 
	{ NOTE_REST, 1935 }, 
	{ NOTE_REST, 1694 }, 
	{ NOTE_REST, 1525 }, 
	{ NOTE_REST, 1525 }, 
	{ NOTE_REST, 1017 }, 
	{ NOTE_REST, 1525 }, 
	{ NOTE_REST, 1017 }, 
	{ NOTE_REST, 2542 }, 
	{ NOTE_REST, 169 }, 
	{ NOTE_A3, 169 }, 
	{ NOTE_B3, 169 }, 
	{ NOTE_F4, 169 }, 
	{ NOTE_D4, 169 }, 
	{ NOTE_E4, 338 }, 
	{ NOTE_F4, 169 }, 
	{ NOTE_E4, 342 }, 
	{ NOTE_D4, 169 }, 
	{ NOTE_C4, 169 }, 
	{ NOTE_B3, 169 }, 
	{ NOTE_C4, 169 }, 
	{ NOTE_F3, 338 }, 
	{ NOTE_G3, 169 }, 
	{ NOTE_A3, 342 }, 
	{ NOTE_REST, 169 }, 
	{ NOTE_REST, 169 }, 
	{ NOTE_REST, 169 }, 
	{ NOTE_REST, 169 }, 
	{ NOTE_REST, 172 }, 
	{ NOTE_REST, 169 }, 
	{ NOTE_A3, 169 }, 
	{ NOTE_B3, 169 }, 
	{ NOTE_F4, 169 }, 
	{ NOTE_D4, 169 }, 
	{ NOTE_E4, 338 }, 
	{ NOTE_F4, 169 }, 
	{ NOTE_E4, 342 }, 
	{ NOTE_D4, 169 }, 
	{ NOTE_C4, 169 }, 
	{ NOTE_B3, 169 }, 
	{ NOTE_C4, 169 }, 
	{ NOTE_F3, 341 }, 
	{ NOTE_REST, 169 }, 
	{ NOTE_REST, 169 }, 
	{ NOTE_REST, 169 }, 
	{ NOTE_REST, 169 }, 
	{ NOTE_REST, 169 }, 
	{ NOTE_REST, 169 }, 
	{ NOTE_REST, 169 }, 
	{ NOTE_REST, 169 }, 
	{ NOTE_REST, 169 }, 
	{ NOTE_REST, 169 }, 
	{ NOTE_REST, 1866 }, 
	{ NOTE_REST, 511 }, 
	{ NOTE_REST, 507 }, 
	{ NOTE_REST, 507 }, 
	{ NOTE_REST, 1018 }, 
	{ NOTE_REST, 507 }, 
	{ NOTE_REST, 2881 }, 
	{ NOTE_REST, 511 }, 
	{ NOTE_REST, 507 }, 
	{ NOTE_REST, 507 }, 
	{ NOTE_REST, 1018 }, 
	{ NOTE_REST, 169 }, 
	{ NOTE_REST, 338 }, 
	{ NOTE_REST, 169 }, 
	{ NOTE_REST, 173 }, 
	{ NOTE_REST, 169 }, 
	{ NOTE_REST, 169 }, 
	{ NOTE_REST, 169 }, 
	{ NOTE_REST, 169 }, 
	{ NOTE_REST, 169 }, 
	{ NOTE_REST, 169 }, 
	{ NOTE_REST, 169 }, 
	{ NOTE_REST, 173 }, 
	{ NOTE_REST, 1607 }, 
	{ NOTE_REST, 2143 }, 
	{ NOTE_REST, 1607 }, 
	{ NOTE_REST, 2143 }, 
	{ NOTE_REST, 1607 }, 
	{ NOTE_REST, 1339 }, 
	{ NOTE_REST, 1607 }, 
	{ NOTE_REST, 1875 }, 
	{ NOTE_REST, 670 }, 
	{ NOTE_REST, 670 }, 
	{ NOTE_REST, 670 }, 
	{ NOTE_REST, 804 }, 
	{ NOTE_REST, 134 }, 
	{ NOTE_GB3, 134 }, 
	{ NOTE_AB3, 134 }, 
	{ NOTE_EB4, 134 }, 
	{ NOTE_AB3, 134 }, 
	{ NOTE_D4, 134 }, 
	{ NOTE_BB3, 134 }, 
	{ NOTE_B3, 134 }, 
	{ NOTE_B3, 134 }, 
	{ NOTE_C4, 134 }, 
	{ NOTE_AB3, 134 }, 
	{ NOTE_A3, 267 }, 
	{ NOTE_GB3, 134 }, 
	{ NOTE_AB3, 134 }, 
	{ NOTE_EB4, 134 }, 
	{ NOTE_AB3, 134 }, 
	{ NOTE_D4, 134 }, 
	{ NOTE_BB3, 134 }, 
	{ NOTE_B3, 134 }, 
	{ NOTE_B3, 134 }, 
	{ NOTE_C4, 134 }, 
	{ NOTE_AB3, 134 }, 
	{ NOTE_A3, 134 }, 
	{ NOTE_BB3, 134 }, 
	{ NOTE_B3, 134 }, 
	{ NOTE_G3, 134 }, 
	{ NOTE_AB3, 267 }, 
	{ NOTE_GB3, 134 }, 
	{ NOTE_AB3, 134 }, 
	{ NOTE_EB4, 134 }, 
	{ NOTE_AB3, 134 }, 
	{ NOTE_D4, 134 }, 
	{ NOTE_BB3, 134 }, 
	{ NOTE_B3, 134 }, 
	{ NOTE_B3, 134 }, 
	{ NOTE_C4, 134 }, 
	{ NOTE_AB3, 134 }, 
	{ NOTE_A3, 267 }, 
	{ NOTE_GB3, 134 }, 
	{ NOTE_AB3, 134 }, 
	{ NOTE_EB4, 134 }, 
	{ NOTE_AB3, 134 }, 
	{ NOTE_D4, 134 }, 
	{ NOTE_BB3, 134 }, 
	{ NOTE_B3, 134 }, 
	{ NOTE_C4, 134 }, 
	{ NOTE_DB4, 134 }, 
	{ NOTE_D4, 134 }, 
	{ NOTE_EB4, 134 }, 
	{ NOTE_E4, 134 }, 
	{ NOTE_GB4, 134 }, 
	{ NOTE_G4, 134 }, 
	{ NOTE_AB4, 267 }, 
	{ NOTE_GB3, 134 }, 
	{ NOTE_AB3, 134 }, 
	{ NOTE_EB4, 134 }, 
	{ NOTE_AB3, 134 }, 
	{ NOTE_D4, 134 }, 
	{ NOTE_BB3, 134 }, 
	{ NOTE_B3, 134 }, 
	{ NOTE_B3, 134 }, 
	{ NOTE_C4, 134 }, 
	{ NOTE_AB3, 134 }, 
	{ NOTE_A3, 267 }, 
	{ NOTE_GB3, 134 }, 
	{ NOTE_AB3, 134 }, 
	{ NOTE_EB4, 134 }, 
	{ NOTE_AB3, 134 }, 
	{ NOTE_D4, 134 }, 
	{ NOTE_B3, 134 }, 
	{ NOTE_C4, 134 }, 
	{ NOTE_AB3, 134 }, 
	{ NOTE_A3, 267 }, 
	{ NOTE_GB4, 134 }, 
	{ NOTE_AB4, 134 }, 
	{ NOTE_EB5, 134 }, 
	{ NOTE_AB4, 134 }, 
	{ NOTE_D5, 134 }, 
	{ NOTE_BB4, 134 }, 
	{ NOTE_B4, 134 }, 
	{ NOTE_B4, 134 }, 
	{ NOTE_C5, 134 }, 
	{ NOTE_AB4, 134 }, 
	{ NOTE_A4, 267 }, 
	{ NOTE_GB4, 134 }, 
	{ NOTE_AB4, 134 }, 
	{ NOTE_EB5, 134 }, 
	{ NOTE_AB4, 134 }, 
	{ NOTE_D5, 134 }, 
	{ NOTE_B4, 134 }, 
	{ NOTE_C5, 134 }, 
	{ NOTE_AB4, 134 }, 
	{ NOTE_A4, 134 }, 
	{ NOTE_BB4, 134 }, 
	{ NOTE_B4, 134 }, 
	{ NOTE_G4, 134 }, 
	{ NOTE_AB4, 133 }, 
	{ NOTE_B4, 134 }, 
	{ NOTE_AB4, 134 }, 
	{ NOTE_BB4, 134 }, 
	{ NOTE_AB4, 134 }, 
	{ NOTE_E4, 134 }, 
	{ NOTE_B3, 134 }, 
	{ NOTE_AB3, 134 }, 
	{ NOTE_BB3, 134 }, 
	{ NOTE_AB3, 134 }, 
	{ NOTE_E3, 134 }, 
	{ NOTE_REST, 670 }, 
	{ NOTE_G3, 134 }, 
	{ NOTE_AB3, 134 }, 
	{ NOTE_BB3, 134 }, 
	{ NOTE_B3, 134 }, 
	{ NOTE_DB4, 134 }, 
	{ NOTE_D4, 134 }, 
	{ NOTE_E4, 134 }, 
	{ NOTE_DB4, 134 }, 
	{ NOTE_EB4, 134 }, 
	{ NOTE_DB4, 134 }, 
	{ NOTE_A3, 134 }, 
	{ NOTE_E5, 134 }, 
	{ NOTE_DB5, 134 }, 
	{ NOTE_EB5, 134 }, 
	{ NOTE_DB5, 134 }, 
	{ NOTE_A4, 134 }, 
	{ NOTE_E6, 134 }, 
	{ NOTE_DB6, 134 }, 
	{ NOTE_EB6, 134 }, 
	{ NOTE_DB6, 134 }, 
	{ NOTE_A5, 134 }, 
	{ NOTE_C4, 134 }, 
	{ NOTE_DB4, 134 }, 
	{ NOTE_EB4, 134 }, 
	{ NOTE_E4, 134 }, 
	{ NOTE_GB4, 134 }, 
	{ NOTE_G4, 134 }, 
	{ NOTE_E4, 134 }, 
	{ NOTE_GB4, 134 }, 
	{ NOTE_E4, 134 }, 
	{ NOTE_C4, 134 }, 
	{ NOTE_G5, 134 }, 
	{ NOTE_E5, 134 }, 
	{ NOTE_GB5, 134 }, 
	{ NOTE_E5, 134 }, 
	{ NOTE_GB5, 134 }, 
	{ NOTE_E5, 134 }, 
	{ NOTE_C5, 133 }, 
	{ NOTE_G3, 134 }, 
	{ NOTE_E3, 134 }, 
	{ NOTE_GB3, 134 }, 
	{ NOTE_E3, 134 }, 
	{ NOTE_C3, 134 }, 
	{ NOTE_E4, 134 }, 
	{ NOTE_GB4, 134 }, 
	{ NOTE_G4, 134 }, 
	{ NOTE_A4, 134 }, 
	{ NOTE_BB4, 134 }, 
	{ NOTE_C5, 134 }, 
	{ NOTE_DB5, 134 }, 
	{ NOTE_BB4, 134 }, 
	{ NOTE_C5, 134 }, 
	{ NOTE_AB4, 134 }, 
	{ NOTE_F4, 134 }, 
	{ NOTE_DB4, 134 }, 
	{ NOTE_BB3, 134 }, 
	{ NOTE_C4, 134 }, 
	{ NOTE_AB3, 134 }, 
	{ NOTE_F3, 134 }, 
	{ NOTE_REST, 670 }, 
	{ NOTE_REST, 1010 }, 
	{ NOTE_REST, 433 }, 
	{ NOTE_REST, 1298 }, 
	{ NOTE_REST, 1731 }, 
	{ NOTE_REST, 1731 }, 
	{ NOTE_REST, 865 }, 
	{ NOTE_GB5, 144 }, 
	{ NOTE_AB5, 72 }, 
	{ NOTE_GB5, 72 }, 
	{ NOTE_F5, 144 }, 
	{ NOTE_EB5, 144 }, 
	{ NOTE_DB5, 144 }, 
	{ NOTE_B4, 144 }, 
	{ NOTE_DB5, 144 }, 
	{ NOTE_EB5, 146 }, 
	{ NOTE_REST, 1800 }, 
	{ NOTE_REST, 1800 }, 
	{ NOTE_REST, 450 }, 
	{ NOTE_DB5, 300 }, 
	{ NOTE_GB4, 150 }, 
	{ NOTE_C5, 300 }, 
	{ NOTE_BB4, 300 }, 
	{ NOTE_AB4, 300 }, 
	{ NOTE_REST, 750 }, 
	{ NOTE_DB4, 500 }, 
	{ NOTE_GB3, 250 }, 
	{ NOTE_EB4, 250 }, 
	{ NOTE_DB4, 250 }, 
	{ NOTE_C4, 250 }, 
	{ NOTE_BB3, 250 }, 
	{ NOTE_AB3, 250 }, 
	{ NOTE_GB3, 250 }, 
	{ NOTE_E3, 484 }, 
	{ NOTE_REST, 726 }, 
	{ NOTE_B2, 484 }, 
	{ NOTE_B2, 484 }, 
	{ NOTE_B2, 484 }, 
};
const uint16_t NUM_OF_NOTES2 = sizeof(melody2)/sizeof(melody2[0]);

const Note melody3[] PROGMEM = {
	{ NOTE_REST, 2308 }, 
	{ NOTE_REST, 2308 }, 
	{ NOTE_REST, 2308 }, 
	{ NOTE_REST, 2308 }, 
	{ NOTE_G3, 121 }, 
	{ NOTE_AB3, 121 }, 
	{ NOTE_C4, 121 }, 
	{ NOTE_D4, 121 }, 
	{ NOTE_G4, 121 }, 
	{ NOTE_AB4, 121 }, 
	{ NOTE_C5, 121 }, 
	{ NOTE_D5, 121 }, 
	{ NOTE_C5, 121 }, 
	{ NOTE_AB4, 121 }, 
	{ NOTE_G4, 121 }, 
	{ NOTE_F4, 121 }, 
	{ NOTE_D4, 121 }, 
	{ NOTE_C4, 121 }, 
	{ NOTE_BB3, 121 }, 
	{ NOTE_AB3, 120 }, 
	{ NOTE_G3, 121 }, 
	{ NOTE_AB3, 121 }, 
	{ NOTE_C4, 121 }, 
	{ NOTE_D4, 121 }, 
	{ NOTE_G4, 121 }, 
	{ NOTE_AB4, 121 }, 
	{ NOTE_C5, 121 }, 
	{ NOTE_D5, 121 }, 
	{ NOTE_C5, 121 }, 
	{ NOTE_AB4, 121 }, 
	{ NOTE_G4, 121 }, 
	{ NOTE_F4, 121 }, 
	{ NOTE_D4, 60 }, 
	{ NOTE_C4, 60 }, 
	{ NOTE_BB3, 60 }, 
	{ NOTE_AB3, 62 }, 
	{ NOTE_G3, 121 }, 
	{ NOTE_AB3, 121 }, 
	{ NOTE_C4, 121 }, 
	{ NOTE_D4, 121 }, 
	{ NOTE_G4, 121 }, 
	{ NOTE_AB4, 121 }, 
	{ NOTE_C5, 121 }, 
	{ NOTE_D5, 121 }, 
	{ NOTE_C5, 121 }, 
	{ NOTE_AB4, 121 }, 
	{ NOTE_G4, 121 }, 
	{ NOTE_F4, 121 }, 
	{ NOTE_E4, 121 }, 
	{ NOTE_D4, 121 }, 
	{ NOTE_BB3, 121 }, 
	{ NOTE_AB3, 121 }, 
	{ NOTE_GB4, 121 }, 
	{ NOTE_E4, 121 }, 
	{ NOTE_C4, 121 }, 
	{ NOTE_BB3, 121 }, 
	{ NOTE_BB4, 60 }, 
	{ NOTE_AB4, 60 }, 
	{ NOTE_E4, 60 }, 
	{ NOTE_D4, 60 }, 
	{ NOTE_C4, 81 }, 
	{ NOTE_BB3, 81 }, 
	{ NOTE_AB3, 82 }, 
	{ NOTE_G3, 121 }, 
	{ NOTE_AB3, 121 }, 
	{ NOTE_C4, 121 }, 
	{ NOTE_D4, 121 }, 
	{ NOTE_G4, 121 }, 
	{ NOTE_AB4, 121 }, 
	{ NOTE_C5, 121 }, 
	{ NOTE_D5, 121 }, 
	{ NOTE_C5, 121 }, 
	{ NOTE_AB4, 121 }, 
	{ NOTE_G4, 121 }, 
	{ NOTE_F4, 121 }, 
	{ NOTE_D4, 121 }, 
	{ NOTE_C4, 121 }, 
	{ NOTE_BB3, 121 }, 
	{ NOTE_AB3, 120 }, 
	{ NOTE_G3, 121 }, 
	{ NOTE_AB3, 121 }, 
	{ NOTE_C4, 121 }, 
	{ NOTE_D4, 121 }, 
	{ NOTE_G4, 121 }, 
	{ NOTE_AB4, 121 }, 
	{ NOTE_C5, 121 }, 
	{ NOTE_D5, 121 }, 
	{ NOTE_C5, 121 }, 
	{ NOTE_AB4, 121 }, 
	{ NOTE_G4, 121 }, 
	{ NOTE_F4, 121 }, 
	{ NOTE_D4, 60 }, 
	{ NOTE_C4, 60 }, 
	{ NOTE_BB3, 60 }, 
	{ NOTE_AB3, 62 }, 
	{ NOTE_G3, 121 }, 
	{ NOTE_AB3, 121 }, 
	{ NOTE_C4, 121 }, 
	{ NOTE_D4, 121 }, 
	{ NOTE_G4, 121 }, 
	{ NOTE_AB4, 121 }, 
	{ NOTE_C5, 121 }, 
	{ NOTE_D5, 121 }, 
	{ NOTE_C5, 121 }, 
	{ NOTE_AB4, 121 }, 
	{ NOTE_G4, 121 }, 
	{ NOTE_F4, 121 }, 
	{ NOTE_E4, 121 }, 
	{ NOTE_D4, 121 }, 
	{ NOTE_BB3, 121 }, 
	{ NOTE_AB3, 121 }, 
	{ NOTE_EB4, 121 }, 
	{ NOTE_E4, 121 }, 
	{ NOTE_GB4, 121 }, 
	{ NOTE_G4, 121 }, 
	{ NOTE_A4, 121 }, 
	{ NOTE_BB4, 121 }, 
	{ NOTE_C5, 121 }, 
	{ NOTE_DB5, 121 }, 
	{ NOTE_D4, 1210 }, 
	{ NOTE_C4, 725 }, 
	{ NOTE_AB3, 1694 }, 
	{ NOTE_A3, 1452 }, 
	{ NOTE_C4, 726 }, 
	{ NOTE_DB4, 968 }, 
	{ NOTE_D4, 1210 }, 
	{ NOTE_C4, 725 }, 
	{ NOTE_AB3, 1694 }, 
	{ NOTE_A3, 1452 }, 
	{ NOTE_C4, 727 }, 
	{ NOTE_DB4, 967 }, 
	{ NOTE_G3, 242 }, 
	{ NOTE_AB3, 121 }, 
	{ NOTE_G3, 242 }, 
	{ NOTE_AB3, 121 }, 
	{ NOTE_G3, 121 }, 
	{ NOTE_AB3, 121 }, 
	{ NOTE_C4, 121 }, 
	{ NOTE_D4, 121 }, 
	{ NOTE_F4, 121 }, 
	{ NOTE_G4, 121 }, 
	{ NOTE_AB4, 121 }, 
	{ NOTE_G3, 242 }, 
	{ NOTE_AB3, 121 }, 
	{ NOTE_G3, 242 }, 
	{ NOTE_AB3, 121 }, 
	{ NOTE_G3, 242 }, 
	{ NOTE_D4, 121 }, 
	{ NOTE_C4, 121 }, 
	{ NOTE_AB3, 121 }, 
	{ NOTE_G3, 121 }, 
	{ NOTE_F3, 121 }, 
	{ NOTE_EB3, 121 }, 
	{ NOTE_D3, 121 }, 
	{ NOTE_G3, 242 }, 
	{ NOTE_AB3, 121 }, 
	{ NOTE_G3, 242 }, 
	{ NOTE_AB3, 121 }, 
	{ NOTE_G3, 242 }, 
	{ NOTE_AB3, 242 }, 
	{ NOTE_G3, 121 }, 
	{ NOTE_AB3, 121 }, 
	{ NOTE_C4, 121 }, 
	{ NOTE_D4, 121 }, 
	{ NOTE_F4, 121 }, 
	{ NOTE_G4, 121 }, 
	{ NOTE_AB4, 120 }, 
	{ NOTE_G3, 242 }, 
	{ NOTE_AB3, 121 }, 
	{ NOTE_G3, 242 }, 
	{ NOTE_AB3, 121 }, 
	{ NOTE_G3, 121 }, 
	{ NOTE_AB3, 121 }, 
	{ NOTE_D4, 121 }, 
	{ NOTE_C4, 121 }, 
	{ NOTE_AB3, 121 }, 
	{ NOTE_G3, 121 }, 
	{ NOTE_F3, 121 }, 
	{ NOTE_EB3, 121 }, 
	{ NOTE_D4, 121 }, 
	{ NOTE_EB4, 121 }, 
	{ NOTE_G4, 121 }, 
	{ NOTE_A4, 121 }, 
	{ NOTE_D5, 121 }, 
	{ NOTE_EB5, 121 }, 
	{ NOTE_G5, 121 }, 
	{ NOTE_A5, 121 }, 
	{ NOTE_G5, 121 }, 
	{ NOTE_EB5, 121 }, 
	{ NOTE_D5, 121 }, 
	{ NOTE_C5, 121 }, 
	{ NOTE_A4, 121 }, 
	{ NOTE_G4, 121 }, 
	{ NOTE_F4, 121 }, 
	{ NOTE_EB4, 120 }, 
	{ NOTE_D4, 121 }, 
	{ NOTE_EB4, 121 }, 
	{ NOTE_G4, 121 }, 
	{ NOTE_A4, 121 }, 
	{ NOTE_D5, 121 }, 
	{ NOTE_EB5, 121 }, 
	{ NOTE_G5, 121 }, 
	{ NOTE_A5, 121 }, 
	{ NOTE_G5, 121 }, 
	{ NOTE_EB5, 121 }, 
	{ NOTE_D5, 121 }, 
	{ NOTE_C5, 121 }, 
	{ NOTE_A4, 60 }, 
	{ NOTE_G4, 60 }, 
	{ NOTE_F4, 60 }, 
	{ NOTE_EB4, 62 }, 
	{ NOTE_D4, 121 }, 
	{ NOTE_EB4, 121 }, 
	{ NOTE_G4, 121 }, 
	{ NOTE_A4, 121 }, 
	{ NOTE_D5, 121 }, 
	{ NOTE_EB5, 121 }, 
	{ NOTE_G5, 121 }, 
	{ NOTE_A5, 121 }, 
	{ NOTE_G5, 121 }, 
	{ NOTE_EB5, 121 }, 
	{ NOTE_D5, 121 }, 
	{ NOTE_C5, 121 }, 
	{ NOTE_B4, 121 }, 
	{ NOTE_A4, 121 }, 
	{ NOTE_F4, 121 }, 
	{ NOTE_EB4, 121 }, 
	{ NOTE_DB5, 121 }, 
	{ NOTE_B4, 121 }, 
	{ NOTE_G4, 121 }, 
	{ NOTE_F4, 121 }, 
	{ NOTE_F5, 60 }, 
	{ NOTE_EB5, 60 }, 
	{ NOTE_B4, 60 }, 
	{ NOTE_A4, 60 }, 
	{ NOTE_G4, 81 }, 
	{ NOTE_F4, 81 }, 
	{ NOTE_EB4, 82 }, 
	{ NOTE_D4, 121 }, 
	{ NOTE_EB4, 121 }, 
	{ NOTE_G4, 121 }, 
	{ NOTE_A4, 121 }, 
	{ NOTE_D5, 121 }, 
	{ NOTE_EB5, 121 }, 
	{ NOTE_G5, 121 }, 
	{ NOTE_A5, 121 }, 
	{ NOTE_G5, 121 }, 
	{ NOTE_EB5, 121 }, 
	{ NOTE_D5, 121 }, 
	{ NOTE_C5, 121 }, 
	{ NOTE_A4, 121 }, 
	{ NOTE_G4, 121 }, 
	{ NOTE_F4, 121 }, 
	{ NOTE_EB4, 120 }, 
	{ NOTE_D4, 121 }, 
	{ NOTE_EB4, 121 }, 
	{ NOTE_G4, 121 }, 
	{ NOTE_A4, 121 }, 
	{ NOTE_D5, 121 }, 
	{ NOTE_EB5, 121 }, 
	{ NOTE_G5, 121 }, 
	{ NOTE_A5, 121 }, 
	{ NOTE_G5, 121 }, 
	{ NOTE_EB5, 121 }, 
	{ NOTE_D5, 121 }, 
	{ NOTE_C5, 121 }, 
	{ NOTE_A4, 60 }, 
	{ NOTE_G4, 60 }, 
	{ NOTE_F4, 60 }, 
	{ NOTE_EB4, 62 }, 
	{ NOTE_D4, 81 }, 
	{ NOTE_EB4, 81 }, 
	{ NOTE_D4, 81 }, 
	{ NOTE_C4, 81 }, 
	{ NOTE_D4, 81 }, 
	{ NOTE_EB4, 81 }, 
	{ NOTE_F4, 81 }, 
	{ NOTE_GB4, 81 }, 
	{ NOTE_AB4, 81 }, 
	{ NOTE_A4, 81 }, 
	{ NOTE_B4, 81 }, 
	{ NOTE_C5, 81 }, 
	{ NOTE_D5, 81 }, 
	{ NOTE_EB5, 81 }, 
	{ NOTE_D5, 81 }, 
	{ NOTE_C5, 81 }, 
	{ NOTE_D5, 81 }, 
	{ NOTE_EB5, 81 }, 
	{ NOTE_F5, 81 }, 
	{ NOTE_GB5, 81 }, 
	{ NOTE_AB5, 81 }, 
	{ NOTE_A5, 81 }, 
	{ NOTE_B5, 81 }, 
	{ NOTE_C6, 72 }, 
	{ NOTE_G5, 121 }, 
	{ NOTE_D5, 121 }, 
	{ NOTE_G5, 121 }, 
	{ NOTE_F5, 121 }, 
	{ NOTE_C5, 121 }, 
	{ NOTE_DB5, 121 }, 
	{ NOTE_AB4, 121 }, 
	{ NOTE_C5, 121 }, 
	{ NOTE_G4, 121 }, 
	{ NOTE_C5, 121 }, 
	{ NOTE_AB4, 121 }, 
	{ NOTE_EB4, 121 }, 
	{ NOTE_GB4, 121 }, 
	{ NOTE_DB4, 121 }, 
	{ NOTE_F4, 121 }, 
	{ NOTE_C4, 121 }, 
	{ NOTE_F4, 121 }, 
	{ NOTE_DB4, 121 }, 
	{ NOTE_AB3, 121 }, 
	{ NOTE_DB4, 120 }, 
	{ NOTE_G3, 242 }, 
	{ NOTE_AB3, 121 }, 
	{ NOTE_G3, 242 }, 
	{ NOTE_AB3, 121 }, 
	{ NOTE_G3, 242 }, 
	{ NOTE_AB3, 242 }, 
	{ NOTE_G3, 121 }, 
	{ NOTE_AB3, 121 }, 
	{ NOTE_C4, 121 }, 
	{ NOTE_D4, 121 }, 
	{ NOTE_F4, 121 }, 
	{ NOTE_G4, 121 }, 
	{ NOTE_AB4, 120 }, 
	{ NOTE_G3, 242 }, 
	{ NOTE_AB3, 121 }, 
	{ NOTE_G3, 242 }, 
	{ NOTE_AB3, 121 }, 
	{ NOTE_G3, 242 }, 
	{ NOTE_D4, 121 }, 
	{ NOTE_C4, 121 }, 
	{ NOTE_AB3, 121 }, 
	{ NOTE_G3, 121 }, 
	{ NOTE_F3, 121 }, 
	{ NOTE_EB3, 121 }, 
	{ NOTE_D3, 121 }, 
	{ NOTE_G3, 242 }, 
	{ NOTE_AB3, 121 }, 
	{ NOTE_G3, 242 }, 
	{ NOTE_AB3, 121 }, 
	{ NOTE_G3, 121 }, 
	{ NOTE_AB3, 121 }, 
	{ NOTE_C4, 121 }, 
	{ NOTE_D4, 121 }, 
	{ NOTE_F4, 121 }, 
	{ NOTE_G4, 121 }, 
	{ NOTE_AB4, 121 }, 
	{ NOTE_E5, 97 }, 
	{ NOTE_D5, 97 }, 
	{ NOTE_C5, 97 }, 
	{ NOTE_BB4, 97 }, 
	{ NOTE_AB4, 97 }, 
	{ NOTE_GB5, 121 }, 
	{ NOTE_E5, 121 }, 
	{ NOTE_D5, 121 }, 
	{ NOTE_C5, 121 }, 
	{ NOTE_BB4, 81 }, 
	{ NOTE_AB4, 81 }, 
	{ NOTE_GB4, 81 }, 
	{ NOTE_E4, 81 }, 
	{ NOTE_D4, 81 }, 
	{ NOTE_C4, 81 }, 
	{ NOTE_GB4, 81 }, 
	{ NOTE_E4, 81 }, 
	{ NOTE_D4, 81 }, 
	{ NOTE_C4, 81 }, 
	{ NOTE_BB3, 81 }, 
	{ NOTE_AB3, 75 }, 
	{ NOTE_G3, 121 }, 
	{ NOTE_REST, 121 }, 
	{ NOTE_REST, 242 }, 
	{ NOTE_REST, 242 }, 
	{ NOTE_REST, 726 }, 
	{ NOTE_REST, 1452 }, 
	{ NOTE_GB5, 125 }, 
	{ NOTE_DB5, 125 }, 
	{ NOTE_B4, 125 }, 
	{ NOTE_DB5, 125 }, 
	{ NOTE_B4, 125 }, 
	{ NOTE_GB4, 125 }, 
	{ NOTE_GB5, 125 }, 
	{ NOTE_DB5, 125 }, 
	{ NOTE_B4, 125 }, 
	{ NOTE_DB5, 125 }, 
	{ NOTE_B4, 125 }, 
	{ NOTE_GB4, 125 }, 
	{ NOTE_DB4, 83 }, 
	{ NOTE_GB4, 83 }, 
	{ NOTE_AB4, 83 }, 
	{ NOTE_DB5, 83 }, 
	{ NOTE_EB5, 83 }, 
	{ NOTE_AB5, 83 }, 
	{ NOTE_G5, 83 }, 
	{ NOTE_D5, 83 }, 
	{ NOTE_C5, 83 }, 
	{ NOTE_G4, 83 }, 
	{ NOTE_D4, 83 }, 
	{ NOTE_C4, 87 }, 
	{ NOTE_AB3, 125 }, 
	{ NOTE_D4, 125 }, 
	{ NOTE_AB4, 125 }, 
	{ NOTE_D5, 125 }, 
	{ NOTE_BB4, 125 }, 
	{ NOTE_GB4, 125 }, 
	{ NOTE_D4, 125 }, 
	{ NOTE_BB3, 125 }, 
	{ NOTE_GB5, 125 }, 
	{ NOTE_DB5, 125 }, 
	{ NOTE_B4, 125 }, 
	{ NOTE_DB5, 125 }, 
	{ NOTE_B4, 125 }, 
	{ NOTE_GB4, 125 }, 
	{ NOTE_GB5, 125 }, 
	{ NOTE_DB5, 125 }, 
	{ NOTE_B4, 125 }, 
	{ NOTE_DB5, 125 }, 
	{ NOTE_B4, 125 }, 
	{ NOTE_GB4, 125 }, 
	{ NOTE_AB5, 83 }, 
	{ NOTE_EB5, 83 }, 
	{ NOTE_DB5, 83 }, 
	{ NOTE_AB4, 83 }, 
	{ NOTE_GB4, 83 }, 
	{ NOTE_DB4, 83 }, 
	{ NOTE_G5, 83 }, 
	{ NOTE_D5, 83 }, 
	{ NOTE_C5, 83 }, 
	{ NOTE_D5, 83 }, 
	{ NOTE_C5, 83 }, 
	{ NOTE_G4, 87 }, 
	{ NOTE_D5, 125 }, 
	{ NOTE_AB4, 125 }, 
	{ NOTE_D4, 125 }, 
	{ NOTE_BB4, 125 }, 
	{ NOTE_GB4, 125 }, 
	{ NOTE_D4, 125 }, 
	{ NOTE_G3, 125 }, 
	{ NOTE_DB4, 125 }, 
	{ NOTE_GB5, 125 }, 
	{ NOTE_DB5, 125 }, 
	{ NOTE_B4, 125 }, 
	{ NOTE_DB5, 125 }, 
	{ NOTE_B4, 125 }, 
	{ NOTE_GB4, 125 }, 
	{ NOTE_GB5, 125 }, 
	{ NOTE_DB5, 125 }, 
	{ NOTE_B4, 125 }, 
	{ NOTE_DB5, 125 }, 
	{ NOTE_B4, 125 }, 
	{ NOTE_GB4, 125 }, 
	{ NOTE_DB4, 83 }, 
	{ NOTE_GB4, 83 }, 
	{ NOTE_AB4, 83 }, 
	{ NOTE_DB5, 83 }, 
	{ NOTE_EB5, 83 }, 
	{ NOTE_AB5, 83 }, 
	{ NOTE_G5, 83 }, 
	{ NOTE_D5, 83 }, 
	{ NOTE_C5, 83 }, 
	{ NOTE_G4, 83 }, 
	{ NOTE_D4, 83 }, 
	{ NOTE_C4, 87 }, 
	{ NOTE_BB3, 125 }, 
	{ NOTE_GB4, 125 }, 
	{ NOTE_BB4, 125 }, 
	{ NOTE_D5, 125 }, 
	{ NOTE_E5, 125 }, 
	{ NOTE_AB4, 125 }, 
	{ NOTE_D4, 125 }, 
	{ NOTE_AB3, 125 }, 
	{ NOTE_GB5, 125 }, 
	{ NOTE_DB5, 125 }, 
	{ NOTE_B4, 125 }, 
	{ NOTE_DB5, 125 }, 
	{ NOTE_B4, 125 }, 
	{ NOTE_GB4, 125 }, 
	{ NOTE_GB5, 125 }, 
	{ NOTE_DB5, 125 }, 
	{ NOTE_B4, 125 }, 
	{ NOTE_DB5, 125 }, 
	{ NOTE_B4, 125 }, 
	{ NOTE_GB4, 125 }, 
	{ NOTE_AB5, 83 }, 
	{ NOTE_EB5, 83 }, 
	{ NOTE_DB5, 83 }, 
	{ NOTE_EB5, 83 }, 
	{ NOTE_DB5, 83 }, 
	{ NOTE_AB4, 83 }, 
	{ NOTE_G5, 83 }, 
	{ NOTE_D5, 83 }, 
	{ NOTE_C5, 83 }, 
	{ NOTE_D5, 83 }, 
	{ NOTE_C5, 83 }, 
	{ NOTE_G4, 87 }, 
	{ NOTE_REST, 1250 }, 
	{ NOTE_REST, 5323 }, 
	{ NOTE_REST, 5323 }, 
	{ NOTE_REST, 5323 }, 
	{ NOTE_REST, 4355 }, 
	{ NOTE_B3, 81 }, 
	{ NOTE_C4, 81 }, 
	{ NOTE_D4, 81 }, 
	{ NOTE_E4, 81 }, 
	{ NOTE_GB4, 81 }, 
	{ NOTE_G4, 81 }, 
	{ NOTE_B4, 81 }, 
	{ NOTE_C5, 81 }, 
	{ NOTE_D5, 81 }, 
	{ NOTE_E5, 81 }, 
	{ NOTE_F5, 81 }, 
	{ NOTE_GB5, 77 }, 
	{ NOTE_G5, 121 }, 
	{ NOTE_E5, 121 }, 
	{ NOTE_B4, 121 }, 
	{ NOTE_G4, 121 }, 
	{ NOTE_REST, 121 }, 
	{ NOTE_E5, 121 }, 
	{ NOTE_B4, 121 }, 
	{ NOTE_G4, 121 }, 
	{ NOTE_E4, 121 }, 
	{ NOTE_REST, 121 }, 
	{ NOTE_GB5, 121 }, 
	{ NOTE_DB5, 121 }, 
	{ NOTE_BB4, 121 }, 
	{ NOTE_GB4, 121 }, 
	{ NOTE_REST, 121 }, 
	{ NOTE_E5, 121 }, 
	{ NOTE_C5, 121 }, 
	{ NOTE_A4, 121 }, 
	{ NOTE_E4, 121 }, 
	{ NOTE_REST, 121 }, 
	{ NOTE_E5, 121 }, 
	{ NOTE_B4, 121 }, 
	{ NOTE_G4, 121 }, 
	{ NOTE_E4, 121 }, 
	{ NOTE_REST, 121 }, 
	{ NOTE_B4, 121 }, 
	{ NOTE_G4, 121 }, 
	{ NOTE_E4, 121 }, 
	{ NOTE_B3, 121 }, 
	{ NOTE_REST, 121 }, 
	{ NOTE_DB5, 121 }, 
	{ NOTE_BB4, 121 }, 
	{ NOTE_GB4, 121 }, 
	{ NOTE_DB4, 121 }, 
	{ NOTE_REST, 121 }, 
	{ NOTE_BB4, 121 }, 
	{ NOTE_GB4, 121 }, 
	{ NOTE_DB4, 121 }, 
	{ NOTE_BB3, 121 }, 
	{ NOTE_REST, 121 }, 
	{ NOTE_A4, 121 }, 
	{ NOTE_E4, 121 }, 
	{ NOTE_C4, 121 }, 
	{ NOTE_REST, 120 }, 
	{ NOTE_G5, 121 }, 
	{ NOTE_E5, 121 }, 
	{ NOTE_B4, 121 }, 
	{ NOTE_G4, 121 }, 
	{ NOTE_REST, 121 }, 
	{ NOTE_E5, 121 }, 
	{ NOTE_B4, 121 }, 
	{ NOTE_G4, 121 }, 
	{ NOTE_E4, 121 }, 
	{ NOTE_REST, 121 }, 
	{ NOTE_GB5, 121 }, 
	{ NOTE_DB5, 121 }, 
	{ NOTE_BB4, 121 }, 
	{ NOTE_GB4, 121 }, 
	{ NOTE_REST, 121 }, 
	{ NOTE_E5, 121 }, 
	{ NOTE_C5, 121 }, 
	{ NOTE_A4, 121 }, 
	{ NOTE_E4, 121 }, 
	{ NOTE_REST, 121 }, 
	{ NOTE_E5, 121 }, 
	{ NOTE_B4, 121 }, 
	{ NOTE_G4, 121 }, 
	{ NOTE_E4, 121 }, 
	{ NOTE_REST, 121 }, 
	{ NOTE_B4, 121 }, 
	{ NOTE_G4, 121 }, 
	{ NOTE_E4, 121 }, 
	{ NOTE_B3, 121 }, 
	{ NOTE_REST, 121 }, 
	{ NOTE_DB5, 121 }, 
	{ NOTE_BB4, 121 }, 
	{ NOTE_GB4, 121 }, 
	{ NOTE_DB4, 121 }, 
	{ NOTE_REST, 121 }, 
	{ NOTE_BB4, 121 }, 
	{ NOTE_GB4, 121 }, 
	{ NOTE_DB4, 121 }, 
	{ NOTE_BB3, 121 }, 
	{ NOTE_REST, 121 }, 
	{ NOTE_A4, 121 }, 
	{ NOTE_E4, 121 }, 
	{ NOTE_C4, 121 }, 
	{ NOTE_REST, 120 }, 
	{ NOTE_E5, 121 }, 
	{ NOTE_B4, 121 }, 
	{ NOTE_E4, 121 }, 
	{ NOTE_EB5, 121 }, 
	{ NOTE_B4, 121 }, 
	{ NOTE_E4, 121 }, 
	{ NOTE_REST, 121 }, 
	{ NOTE_D5, 121 }, 
	{ NOTE_DB5, 121 }, 
	{ NOTE_E4, 121 }, 
	{ NOTE_C5, 121 }, 
	{ NOTE_B4, 121 }, 
	{ NOTE_E4, 121 }, 
	{ NOTE_BB4, 121 }, 
	{ NOTE_A4, 121 }, 
	{ NOTE_GB4, 120 }, 
	{ NOTE_G4, 121 }, 
	{ NOTE_EB4, 121 }, 
	{ NOTE_E4, 121 }, 
	{ NOTE_GB4, 121 }, 
	{ NOTE_G4, 121 }, 
	{ NOTE_B4, 121 }, 
	{ NOTE_GB5, 121 }, 
	{ NOTE_G5, 121 }, 
	{ NOTE_E5, 121 }, 
	{ NOTE_BB4, 121 }, 
	{ NOTE_E5, 121 }, 
	{ NOTE_BB4, 121 }, 
	{ NOTE_A4, 121 }, 
	{ NOTE_E5, 121 }, 
	{ NOTE_G4, 121 }, 
	{ NOTE_GB4, 120 }, 
	{ NOTE_E5, 121 }, 
	{ NOTE_B4, 121 }, 
	{ NOTE_E4, 121 }, 
	{ NOTE_EB5, 121 }, 
	{ NOTE_B4, 121 }, 
	{ NOTE_E4, 121 }, 
	{ NOTE_REST, 121 }, 
	{ NOTE_D5, 121 }, 
	{ NOTE_DB5, 121 }, 
	{ NOTE_E4, 121 }, 
	{ NOTE_C5, 121 }, 
	{ NOTE_B4, 121 }, 
	{ NOTE_E4, 121 }, 
	{ NOTE_BB4, 121 }, 
	{ NOTE_A4, 121 }, 
	{ NOTE_GB4, 120 }, 
	{ NOTE_G4, 121 }, 
	{ NOTE_C4, 121 }, 
	{ NOTE_DB4, 121 }, 
	{ NOTE_EB4, 121 }, 
	{ NOTE_E4, 121 }, 
	{ NOTE_A3, 121 }, 
	{ NOTE_BB3, 121 }, 
	{ NOTE_C4, 121 }, 
	{ NOTE_DB4, 121 }, 
	{ NOTE_GB3, 121 }, 
	{ NOTE_G3, 121 }, 
	{ NOTE_A3, 121 }, 
	{ NOTE_BB3, 121 }, 
	{ NOTE_A3, 121 }, 
	{ NOTE_G3, 121 }, 
	{ NOTE_GB3, 120 }, 
	{ NOTE_E4, 121 }, 
	{ NOTE_B3, 121 }, 
	{ NOTE_E3, 121 }, 
	{ NOTE_EB4, 121 }, 
	{ NOTE_B3, 121 }, 
	{ NOTE_E3, 121 }, 
	{ NOTE_REST, 121 }, 
	{ NOTE_D4, 121 }, 
	{ NOTE_DB4, 121 }, 
	{ NOTE_E3, 121 }, 
	{ NOTE_C4, 121 }, 
	{ NOTE_B3, 121 }, 
	{ NOTE_E3, 121 }, 
	{ NOTE_BB3, 121 }, 
	{ NOTE_A3, 121 }, 
	{ NOTE_GB3, 120 }, 
	{ NOTE_G3, 121 }, 
	{ NOTE_FS3, 121 }, 
	{ NOTE_E3, 121 }, 
	{ NOTE_FS3, 121 }, 
	{ NOTE_DS3, 121 }, 
	{ NOTE_E3, 121 }, 
	{ NOTE_FS3, 121 }, 
	{ NOTE_G3, 121 }, 
	{ NOTE_B3, 121 }, 
	{ NOTE_C4, 121 }, 
	{ NOTE_CS4, 121 }, 
	{ NOTE_D4, 121 }, 
	{ NOTE_DS4, 121 }, 
	{ NOTE_B3, 121 }, 
	{ NOTE_DS4, 121 }, 
	{ NOTE_FS4, 120 }, 
	{ NOTE_E4, 121 }, 
	{ NOTE_B3, 121 }, 
	{ NOTE_E3, 121 }, 
	{ NOTE_DS4, 121 }, 
	{ NOTE_B3, 121 }, 
	{ NOTE_E3, 121 }, 
	{ NOTE_REST, 121 }, 
	{ NOTE_D4, 121 }, 
	{ NOTE_CS4, 121 }, 
	{ NOTE_E3, 121 }, 
	{ NOTE_C4, 121 }, 
	{ NOTE_B3, 121 }, 
	{ NOTE_E3, 121 }, 
	{ NOTE_AS3, 121 }, 
	{ NOTE_A3, 121 }, 
	{ NOTE_FS3, 120 }, 
	{ NOTE_AS3, 242 }, 
	{ NOTE_AS3, 242 }, 
	{ NOTE_AS3, 121 }, 
	{ NOTE_AS3, 242 }, 
	{ NOTE_A3, 605 }, 
	{ NOTE_A4, 483 }, 
	{ NOTE_G4, 114 }, 
	{ NOTE_DS4, 114 }, 
	{ NOTE_E4, 114 }, 
	{ NOTE_FS4, 114 }, 
	{ NOTE_G4, 114 }, 
	{ NOTE_B4, 114 }, 
	{ NOTE_FS5, 114 }, 
	{ NOTE_G5, 114 }, 
	{ NOTE_E5, 114 }, 
	{ NOTE_B4, 114 }, 
	{ NOTE_REST, 114 }, 
	{ NOTE_DS5, 228 }, 
	{ NOTE_D5, 227 }, 
	{ NOTE_D5, 109 }, 
	{ NOTE_CS5, 227 }, 
	{ NOTE_CS5, 227 }, 
	{ NOTE_C5, 114 }, 
	{ NOTE_C5, 227 }, 
	{ NOTE_B5, 114 }, 
	{ NOTE_B4, 76 }, 
	{ NOTE_DS5, 76 }, 
	{ NOTE_FS5, 76 }, 
	{ NOTE_B5, 76 }, 
	{ NOTE_DS6, 76 }, 
	{ NOTE_FS6, 76 }, 
	{ NOTE_B6, 38 }, 
	{ NOTE_FS6, 38 }, 
	{ NOTE_DS6, 38 }, 
	{ NOTE_B5, 114 }, 
	{ NOTE_FS5, 76 }, 
	{ NOTE_DS5, 76 }, 
	{ NOTE_B4, 73 }, 
	{ NOTE_G4, 114 }, 
	{ NOTE_DS4, 114 }, 
	{ NOTE_E4, 114 }, 
	{ NOTE_FS4, 114 }, 
	{ NOTE_G4, 114 }, 
	{ NOTE_B4, 114 }, 
	{ NOTE_FS5, 114 }, 
	{ NOTE_G5, 114 }, 
	{ NOTE_E5, 114 }, 
	{ NOTE_B4, 114 }, 
	{ NOTE_REST, 114 }, 
	{ NOTE_E5, 228 }, 
	{ NOTE_FS4, 114 }, 
	{ NOTE_G4, 114 }, 
	{ NOTE_AS4, 108 }, 
	{ NOTE_B4, 114 }, 
	{ NOTE_CS5, 114 }, 
	{ NOTE_D5, 114 }, 
	{ NOTE_DS5, 114 }, 
	{ NOTE_E5, 114 }, 
	{ NOTE_F5, 114 }, 
	{ NOTE_FS5, 114 }, 
	{ NOTE_B4, 114 }, 
	{ NOTE_B5, 57 }, 
	{ NOTE_B4, 57 }, 
	{ NOTE_B5, 57 }, 
	{ NOTE_B4, 57 }, 
	{ NOTE_B5, 57 }, 
	{ NOTE_B4, 57 }, 
	{ NOTE_B5, 57 }, 
	{ NOTE_B4, 57 }, 
	{ NOTE_B5, 57 }, 
	{ NOTE_B4, 57 }, 
	{ NOTE_B5, 57 }, 
	{ NOTE_B4, 57 }, 
	{ NOTE_B5, 57 }, 
	{ NOTE_B4, 57 }, 
	{ NOTE_B5, 108 }, 
	{ NOTE_REST, 114 }, 
	{ NOTE_B3, 227 }, 
	{ NOTE_G3, 114 }, 
	{ NOTE_B3, 227 }, 
	{ NOTE_G3, 114 }, 
	{ NOTE_B3, 114 }, 
	{ NOTE_B3, 114 }, 
	{ NOTE_G3, 114 }, 
	{ NOTE_B3, 114 }, 
	{ NOTE_B3, 114 }, 
	{ NOTE_REST, 114 }, 
	{ NOTE_B3, 227 }, 
	{ NOTE_G3, 111 }, 
	{ NOTE_REST, 114 }, 
	{ NOTE_AS3, 227 }, 
	{ NOTE_G3, 114 }, 
	{ NOTE_AS3, 227 }, 
	{ NOTE_B3, 114 }, 
	{ NOTE_A3, 114 }, 
	{ NOTE_REST, 114 }, 
	{ NOTE_A4, 114 }, 
	{ NOTE_REST, 114 }, 
	{ NOTE_A4, 114 }, 
	{ NOTE_B4, 57 }, 
	{ NOTE_B5, 57 }, 
	{ NOTE_B4, 57 }, 
	{ NOTE_B5, 57 }, 
	{ NOTE_B4, 57 }, 
	{ NOTE_B5, 57 }, 
	{ NOTE_B4, 110 }, 
	{ NOTE_REST, 114 }, 
	{ NOTE_B3, 227 }, 
	{ NOTE_E3, 114 }, 
	{ NOTE_DS4, 227 }, 
	{ NOTE_A3, 114 }, 
	{ NOTE_DS4, 114 }, 
	{ NOTE_AS4, 114 }, 
	{ NOTE_E5, 114 }, 
	{ NOTE_D5, 114 }, 
	{ NOTE_B4, 114 }, 
	{ NOTE_REST, 114 }, 
	{ NOTE_B4, 338 }, 
	{ NOTE_REST, 114 }, 
	{ NOTE_C5, 341 }, 
	{ NOTE_C4, 341 }, 
	{ NOTE_C5, 341 }, 
	{ NOTE_C4, 341 }, 
	{ NOTE_C5, 340 }, 
	{ NOTE_B4, 112 }, 
	{ NOTE_E5, 28 }, 
	{ NOTE_D5, 28 }, 
	{ NOTE_C5, 28 }, 
	{ NOTE_B4, 28 }, 
	{ NOTE_A4, 28 }, 
	{ NOTE_G4, 28 }, 
	{ NOTE_F4, 28 }, 
	{ NOTE_E4, 28 }, 
	{ NOTE_D4, 28 }, 
	{ NOTE_C4, 28 }, 
	{ NOTE_B3, 28 }, 
	{ NOTE_A3, 28 }, 
	{ NOTE_G3, 28 }, 
	{ NOTE_F3, 28 }, 
	{ NOTE_E3, 28 }, 
	{ NOTE_D3, 28 }, 
	{ NOTE_C3, 28 }, 
	{ NOTE_B2, 28 }, 
	{ NOTE_REST, 57 }, 
	{ NOTE_REST, 227 }, 
	{ NOTE_REST, 918 }, 
	{ NOTE_E3, 114 }, 
	{ NOTE_F3, 114 }, 
	{ NOTE_B3, 114 }, 
	{ NOTE_C4, 114 }, 
	{ NOTE_E4, 114 }, 
	{ NOTE_F4, 114 }, 
	{ NOTE_E4, 114 }, 
	{ NOTE_C4, 114 }, 
	{ NOTE_E4, 114 }, 
	{ NOTE_B3, 114 }, 
	{ NOTE_C4, 114 }, 
	{ NOTE_E4, 114 }, 
	{ NOTE_F4, 114 }, 
	{ NOTE_E5, 114 }, 
	{ NOTE_E4, 114 }, 
	{ NOTE_F4, 108 }, 
	{ NOTE_D5, 114 }, 
	{ NOTE_E4, 114 }, 
	{ NOTE_F4, 114 }, 
	{ NOTE_B4, 114 }, 
	{ NOTE_C5, 114 }, 
	{ NOTE_D5, 114 }, 
	{ NOTE_C5, 114 }, 
	{ NOTE_B4, 114 }, 
	{ NOTE_C5, 114 }, 
	{ NOTE_F4, 114 }, 
	{ NOTE_E4, 114 }, 
	{ NOTE_B4, 114 }, 
	{ NOTE_E4, 114 }, 
	{ NOTE_D4, 114 }, 
	{ NOTE_C4, 114 }, 
	{ NOTE_B3, 108 }, 
	{ NOTE_E3, 114 }, 
	{ NOTE_F3, 114 }, 
	{ NOTE_B3, 114 }, 
	{ NOTE_C4, 114 }, 
	{ NOTE_E4, 114 }, 
	{ NOTE_F4, 114 }, 
	{ NOTE_E4, 114 }, 
	{ NOTE_C4, 114 }, 
	{ NOTE_E4, 114 }, 
	{ NOTE_B3, 114 }, 
	{ NOTE_C4, 114 }, 
	{ NOTE_E4, 114 }, 
	{ NOTE_F4, 114 }, 
	{ NOTE_G4, 114 }, 
	{ NOTE_A4, 114 }, 
	{ NOTE_B4, 108 }, 
	{ NOTE_C5, 114 }, 
	{ NOTE_B4, 114 }, 
	{ NOTE_A4, 114 }, 
	{ NOTE_E5, 114 }, 
	{ NOTE_A4, 114 }, 
	{ NOTE_G4, 114 }, 
	{ NOTE_F4, 114 }, 
	{ NOTE_F5, 114 }, 
	{ NOTE_E5, 114 }, 
	{ NOTE_B4, 114 }, 
	{ NOTE_A4, 114 }, 
	{ NOTE_G4, 114 }, 
	{ NOTE_F4, 114 }, 
	{ NOTE_B4, 114 }, 
	{ NOTE_E4, 114 }, 
	{ NOTE_D4, 108 }, 
	{ NOTE_E3, 114 }, 
	{ NOTE_F3, 114 }, 
	{ NOTE_B3, 114 }, 
	{ NOTE_C4, 114 }, 
	{ NOTE_E4, 114 }, 
	{ NOTE_F4, 114 }, 
	{ NOTE_E4, 114 }, 
	{ NOTE_C4, 114 }, 
	{ NOTE_E4, 114 }, 
	{ NOTE_B3, 114 }, 
	{ NOTE_C4, 114 }, 
	{ NOTE_E4, 114 }, 
	{ NOTE_F4, 114 }, 
	{ NOTE_E5, 114 }, 
	{ NOTE_G4, 114 }, 
	{ NOTE_A4, 108 }, 
	{ NOTE_F5, 114 }, 
	{ NOTE_G4, 114 }, 
	{ NOTE_A4, 114 }, 
	{ NOTE_D5, 114 }, 
	{ NOTE_E5, 114 }, 
	{ NOTE_F5, 114 }, 
	{ NOTE_E5, 114 }, 
	{ NOTE_D5, 114 }, 
	{ NOTE_E5, 114 }, 
	{ NOTE_A4, 114 }, 
	{ NOTE_G4, 114 }, 
	{ NOTE_D5, 114 }, 
	{ NOTE_G4, 114 }, 
	{ NOTE_F4, 114 }, 
	{ NOTE_E4, 114 }, 
	{ NOTE_D4, 108 }, 
	{ NOTE_E3, 114 }, 
	{ NOTE_F3, 114 }, 
	{ NOTE_B3, 114 }, 
	{ NOTE_C4, 114 }, 
	{ NOTE_E4, 114 }, 
	{ NOTE_F4, 114 }, 
	{ NOTE_E4, 114 }, 
	{ NOTE_C4, 114 }, 
	{ NOTE_E4, 114 }, 
	{ NOTE_B3, 114 }, 
	{ NOTE_C4, 114 }, 
	{ NOTE_E4, 114 }, 
	{ NOTE_F4, 114 }, 
	{ NOTE_G4, 114 }, 
	{ NOTE_A4, 114 }, 
	{ NOTE_C5, 108 }, 
	{ NOTE_F5, 76 }, 
	{ NOTE_C5, 76 }, 
	{ NOTE_B4, 76 }, 
	{ NOTE_F5, 76 }, 
	{ NOTE_B4, 76 }, 
	{ NOTE_C5, 76 }, 
	{ NOTE_G5, 76 }, 
	{ NOTE_C5, 76 }, 
	{ NOTE_B4, 76 }, 
	{ NOTE_G5, 76 }, 
	{ NOTE_B4, 76 }, 
	{ NOTE_C5, 76 }, 
	{ NOTE_A5, 76 }, 
	{ NOTE_E5, 76 }, 
	{ NOTE_D5, 76 }, 
	{ NOTE_A5, 76 }, 
	{ NOTE_D5, 76 }, 
	{ NOTE_E5, 76 }, 
	{ NOTE_B5, 76 }, 
	{ NOTE_E5, 76 }, 
	{ NOTE_D5, 76 }, 
	{ NOTE_B5, 76 }, 
	{ NOTE_E5, 76 }, 
	{ NOTE_D5, 70 }, 
	{ NOTE_E6, 76 }, 
	{ NOTE_B5, 76 }, 
	{ NOTE_A5, 76 }, 
	{ NOTE_E5, 76 }, 
	{ NOTE_B4, 76 }, 
	{ NOTE_A4, 76 }, 
	{ NOTE_E4, 76 }, 
	{ NOTE_B3, 76 }, 
	{ NOTE_A3, 76 }, 
	{ NOTE_E3, 76 }, 
	{ NOTE_A3, 76 }, 
	{ NOTE_B3, 76 }, 
	{ NOTE_E4, 76 }, 
	{ NOTE_A4, 76 }, 
	{ NOTE_B4, 76 }, 
	{ NOTE_E5, 76 }, 
	{ NOTE_A5, 76 }, 
	{ NOTE_B5, 76 }, 
	{ NOTE_E6, 76 }, 
	{ NOTE_B5, 76 }, 
	{ NOTE_A5, 76 }, 
	{ NOTE_E5, 76 }, 
	{ NOTE_B4, 76 }, 
	{ NOTE_A4, 70 }, 
	{ NOTE_E4, 76 }, 
	{ NOTE_B3, 76 }, 
	{ NOTE_A3, 76 }, 
	{ NOTE_E3, 76 }, 
	{ NOTE_A3, 76 }, 
	{ NOTE_B3, 76 }, 
	{ NOTE_E4, 76 }, 
	{ NOTE_A4, 76 }, 
	{ NOTE_B4, 76 }, 
	{ NOTE_E5, 76 }, 
	{ NOTE_A5, 76 }, 
	{ NOTE_B5, 76 }, 
	{ NOTE_E6, 76 }, 
	{ NOTE_B5, 76 }, 
	{ NOTE_A5, 76 }, 
	{ NOTE_E5, 76 }, 
	{ NOTE_B4, 76 }, 
	{ NOTE_A4, 76 }, 
	{ NOTE_E5, 76 }, 
	{ NOTE_B4, 76 }, 
	{ NOTE_A4, 76 }, 
	{ NOTE_E4, 76 }, 
	{ NOTE_D4, 76 }, 
	{ NOTE_B3, 70 }, 
	{ NOTE_REST, 1818 }, 
	{ NOTE_REST, 1818 }, 
	{ NOTE_REST, 1818 }, 
	{ NOTE_REST, 1818 }, 
	{ NOTE_REST, 1818 }, 
	{ NOTE_REST, 1818 }, 
	{ NOTE_REST, 1818 }, 
	{ NOTE_REST, 1818 }, 
	{ NOTE_REST, 1818 }, 
	{ NOTE_REST, 1818 }, 
	{ NOTE_REST, 1364 }, 
	{ NOTE_REST, 2273 }, 
	{ NOTE_REST, 1818 }, 
	{ NOTE_REST, 1818 }, 
	{ NOTE_REST, 1364 }, 
	{ NOTE_REST, 1818 }, 
	{ NOTE_REST, 1818 }, 
	{ NOTE_REST, 1818 }, 
	{ NOTE_REST, 1818 }, 
	{ NOTE_REST, 1818 }, 
	{ NOTE_REST, 1818 }, 
	{ NOTE_REST, 1818 }, 
	{ NOTE_REST, 1818 }, 
	{ NOTE_REST, 1818 }, 
	{ NOTE_F4, 114 }, 
	{ NOTE_E4, 114 }, 
	{ NOTE_D4, 114 }, 
	{ NOTE_E4, 114 }, 
	{ NOTE_F4, 114 }, 
	{ NOTE_E4, 114 }, 
	{ NOTE_D4, 114 }, 
	{ NOTE_E4, 114 }, 
	{ NOTE_D4, 114 }, 
	{ NOTE_C4, 114 }, 
	{ NOTE_D4, 114 }, 
	{ NOTE_E4, 114 }, 
	{ NOTE_REST, 114 }, 
	{ NOTE_E4, 114 }, 
	{ NOTE_D4, 114 }, 
	{ NOTE_C4, 108 }, 
	{ NOTE_F4, 114 }, 
	{ NOTE_E4, 114 }, 
	{ NOTE_D4, 114 }, 
	{ NOTE_E4, 114 }, 
	{ NOTE_F4, 114 }, 
	{ NOTE_E4, 114 }, 
	{ NOTE_D4, 114 }, 
	{ NOTE_A4, 114 }, 
	{ NOTE_G4, 114 }, 
	{ NOTE_E4, 114 }, 
	{ NOTE_G4, 114 }, 
	{ NOTE_E4, 114 }, 
	{ NOTE_D4, 114 }, 
	{ NOTE_E4, 114 }, 
	{ NOTE_D4, 114 }, 
	{ NOTE_C4, 108 }, 
	{ NOTE_F4, 114 }, 
	{ NOTE_E4, 114 }, 
	{ NOTE_D4, 114 }, 
	{ NOTE_E4, 114 }, 
	{ NOTE_F4, 114 }, 
	{ NOTE_E4, 114 }, 
	{ NOTE_D4, 114 }, 
	{ NOTE_E4, 114 }, 
	{ NOTE_D4, 114 }, 
	{ NOTE_C4, 114 }, 
	{ NOTE_D4, 114 }, 
	{ NOTE_E4, 114 }, 
	{ NOTE_REST, 114 }, 
	{ NOTE_E4, 114 }, 
	{ NOTE_D4, 114 }, 
	{ NOTE_C4, 108 }, 
	{ NOTE_F4, 114 }, 
	{ NOTE_E4, 114 }, 
	{ NOTE_D4, 114 }, 
	{ NOTE_E4, 114 }, 
	{ NOTE_F4, 114 }, 
	{ NOTE_E4, 114 }, 
	{ NOTE_D4, 114 }, 
	{ NOTE_A4, 114 }, 
	{ NOTE_E4, 114 }, 
	{ NOTE_G4, 114 }, 
	{ NOTE_E4, 114 }, 
	{ NOTE_E4, 114 }, 
	{ NOTE_B3, 114 }, 
	{ NOTE_C4, 114 }, 
	{ NOTE_B3, 114 }, 
	{ NOTE_A3, 108 }, 
	{ NOTE_F4, 114 }, 
	{ NOTE_E4, 114 }, 
	{ NOTE_D4, 114 }, 
	{ NOTE_E4, 114 }, 
	{ NOTE_F4, 114 }, 
	{ NOTE_E4, 114 }, 
	{ NOTE_D4, 114 }, 
	{ NOTE_E4, 114 }, 
	{ NOTE_D4, 114 }, 
	{ NOTE_C4, 114 }, 
	{ NOTE_D4, 114 }, 
	{ NOTE_E4, 114 }, 
	{ NOTE_REST, 114 }, 
	{ NOTE_E4, 114 }, 
	{ NOTE_D4, 114 }, 
	{ NOTE_C4, 108 }, 
	{ NOTE_F4, 114 }, 
	{ NOTE_E4, 114 }, 
	{ NOTE_D4, 114 }, 
	{ NOTE_E4, 114 }, 
	{ NOTE_F4, 114 }, 
	{ NOTE_E4, 114 }, 
	{ NOTE_D4, 114 }, 
	{ NOTE_A4, 114 }, 
	{ NOTE_G4, 114 }, 
	{ NOTE_E4, 114 }, 
	{ NOTE_G4, 114 }, 
	{ NOTE_E4, 114 }, 
	{ NOTE_D4, 114 }, 
	{ NOTE_E4, 114 }, 
	{ NOTE_D4, 114 }, 
	{ NOTE_C4, 108 }, 
	{ NOTE_F4, 114 }, 
	{ NOTE_E4, 114 }, 
	{ NOTE_D4, 114 }, 
	{ NOTE_E4, 114 }, 
	{ NOTE_F4, 114 }, 
	{ NOTE_E4, 114 }, 
	{ NOTE_D4, 114 }, 
	{ NOTE_E4, 114 }, 
	{ NOTE_D4, 114 }, 
	{ NOTE_C4, 114 }, 
	{ NOTE_D4, 114 }, 
	{ NOTE_E4, 114 }, 
	{ NOTE_REST, 114 }, 
	{ NOTE_E4, 114 }, 
	{ NOTE_D4, 114 }, 
	{ NOTE_C4, 108 }, 
	{ NOTE_F4, 114 }, 
	{ NOTE_E4, 114 }, 
	{ NOTE_D4, 114 }, 
	{ NOTE_E4, 114 }, 
	{ NOTE_F4, 114 }, 
	{ NOTE_E4, 114 }, 
	{ NOTE_D4, 114 }, 
	{ NOTE_A4, 114 }, 
	{ NOTE_E4, 114 }, 
	{ NOTE_G4, 114 }, 
	{ NOTE_E4, 114 }, 
	{ NOTE_E4, 114 }, 
	{ NOTE_C4, 114 }, 
	{ NOTE_C4, 114 }, 
	{ NOTE_B3, 114 }, 
	{ NOTE_A3, 108 }, 
	{ NOTE_D4, 114 }, 
	{ NOTE_C4, 114 }, 
	{ NOTE_A3, 114 }, 
	{ NOTE_C4, 114 }, 
	{ NOTE_D4, 114 }, 
	{ NOTE_A3, 114 }, 
	{ NOTE_D4, 114 }, 
	{ NOTE_E4, 114 }, 
	{ NOTE_D4, 114 }, 
	{ NOTE_C4, 114 }, 
	{ NOTE_D4, 114 }, 
	{ NOTE_E4, 114 }, 
	{ NOTE_REST, 114 }, 
	{ NOTE_E4, 114 }, 
	{ NOTE_D4, 114 }, 
	{ NOTE_C4, 108 }, 
	{ NOTE_E4, 114 }, 
	{ NOTE_D4, 114 }, 
	{ NOTE_C4, 114 }, 
	{ NOTE_D4, 114 }, 
	{ NOTE_E4, 114 }, 
	{ NOTE_C4, 114 }, 
	{ NOTE_E4, 114 }, 
	{ NOTE_F4, 114 }, 
	{ NOTE_E4, 114 }, 
	{ NOTE_D4, 114 }, 
	{ NOTE_E4, 114 }, 
	{ NOTE_F4, 114 }, 
	{ NOTE_REST, 114 }, 
	{ NOTE_F4, 114 }, 
	{ NOTE_E4, 114 }, 
	{ NOTE_D4, 108 }, 
	{ NOTE_F4, 114 }, 
	{ NOTE_E4, 114 }, 
	{ NOTE_D4, 114 }, 
	{ NOTE_E4, 114 }, 
	{ NOTE_F4, 114 }, 
	{ NOTE_D4, 114 }, 
	{ NOTE_F4, 114 }, 
	{ NOTE_G4, 114 }, 
	{ NOTE_F4, 114 }, 
	{ NOTE_E4, 114 }, 
	{ NOTE_F4, 114 }, 
	{ NOTE_G4, 114 }, 
	{ NOTE_REST, 114 }, 
	{ NOTE_G4, 114 }, 
	{ NOTE_F4, 114 }, 
	{ NOTE_E4, 108 }, 
	{ NOTE_G4, 114 }, 
	{ NOTE_F4, 114 }, 
	{ NOTE_E4, 114 }, 
	{ NOTE_F4, 114 }, 
	{ NOTE_G4, 114 }, 
	{ NOTE_E4, 114 }, 
	{ NOTE_G4, 114 }, 
	{ NOTE_A4, 114 }, 
	{ NOTE_G4, 114 }, 
	{ NOTE_F4, 114 }, 
	{ NOTE_G4, 114 }, 
	{ NOTE_A4, 114 }, 
	{ NOTE_REST, 114 }, 
	{ NOTE_A4, 114 }, 
	{ NOTE_G4, 114 }, 
	{ NOTE_F4, 108 }, 
	{ NOTE_C4, 114 }, 
	{ NOTE_REST, 114 }, 
	{ NOTE_G4, 114 }, 
	{ NOTE_A4, 114 }, 
	{ NOTE_REST, 114 }, 
	{ NOTE_REST, 114 }, 
	{ NOTE_A4, 111 }, 
	{ NOTE_G4, 114 }, 
	{ NOTE_REST, 114 }, 
	{ NOTE_A4, 114 }, 
	{ NOTE_B4, 114 }, 
	{ NOTE_REST, 114 }, 
	{ NOTE_REST, 114 }, 
	{ NOTE_B4, 111 }, 
	{ NOTE_A4, 114 }, 
	{ NOTE_REST, 114 }, 
	{ NOTE_B4, 114 }, 
	{ NOTE_C5, 114 }, 
	{ NOTE_REST, 114 }, 
	{ NOTE_REST, 114 }, 
	{ NOTE_C5, 111 }, 
	{ NOTE_B4, 114 }, 
	{ NOTE_REST, 114 }, 
	{ NOTE_C5, 114 }, 
	{ NOTE_D5, 114 }, 
	{ NOTE_REST, 114 }, 
	{ NOTE_REST, 114 }, 
	{ NOTE_D5, 111 }, 
	{ NOTE_C5, 114 }, 
	{ NOTE_REST, 114 }, 
	{ NOTE_B4, 114 }, 
	{ NOTE_A4, 114 }, 
	{ NOTE_REST, 114 }, 
	{ NOTE_C5, 112 }, 
	{ NOTE_D5, 114 }, 
	{ NOTE_REST, 114 }, 
	{ NOTE_C5, 114 }, 
	{ NOTE_B4, 114 }, 
	{ NOTE_REST, 114 }, 
	{ NOTE_D5, 112 }, 
	{ NOTE_E5, 114 }, 
	{ NOTE_REST, 114 }, 
	{ NOTE_D5, 114 }, 
	{ NOTE_C5, 114 }, 
	{ NOTE_REST, 114 }, 
	{ NOTE_E5, 112 }, 
	{ NOTE_A4, 114 }, 
	{ NOTE_REST, 114 }, 
	{ NOTE_E5, 114 }, 
	{ NOTE_A4, 114 }, 
	{ NOTE_REST, 114 }, 
	{ NOTE_E5, 112 }, 
	{ NOTE_A4, 114 }, 
	{ NOTE_REST, 114 }, 
	{ NOTE_E5, 114 }, 
	{ NOTE_A4, 114 }, 
	{ NOTE_REST, 114 }, 
	{ NOTE_E5, 112 }, 
	{ NOTE_E3, 114 }, 
	{ NOTE_F3, 114 }, 
	{ NOTE_C4, 114 }, 
	{ NOTE_B3, 114 }, 
	{ NOTE_B3, 114 }, 
	{ NOTE_C4, 114 }, 
	{ NOTE_F4, 111 }, 
	{ NOTE_E4, 114 }, 
	{ NOTE_F4, 114 }, 
	{ NOTE_C5, 114 }, 
	{ NOTE_B4, 114 }, 
	{ NOTE_B4, 114 }, 
	{ NOTE_C5, 114 }, 
	{ NOTE_F5, 111 }, 
	{ NOTE_E5, 114 }, 
	{ NOTE_F5, 114 }, 
	{ NOTE_C6, 114 }, 
	{ NOTE_B5, 114 }, 
	{ NOTE_B5, 114 }, 
	{ NOTE_C6, 114 }, 
	{ NOTE_F6, 111 }, 
	{ NOTE_E6, 1591 }, 
	{ NOTE_E6, 76 }, 
	{ NOTE_F6, 76 }, 
	{ NOTE_G6, 75 }, 
	{ NOTE_A4, 735 }, 
	{ NOTE_BB4, 735 }, 
	{ NOTE_C5, 1029 }, 
	{ NOTE_D5, 735 }, 
	{ NOTE_E5, 1029 }, 
	{ NOTE_F5, 735 }, 
	{ NOTE_G5, 735 }, 
	{ NOTE_A5, 1029 }, 
	{ NOTE_A6, 147 }, 
	{ NOTE_E6, 147 }, 
	{ NOTE_F6, 147 }, 
	{ NOTE_G6, 147 }, 
	{ NOTE_F6, 147 }, 
	{ NOTE_E6, 147 }, 
	{ NOTE_D6, 147 }, 
	{ NOTE_C6, 147 }, 
	{ NOTE_D6, 147 }, 
	{ NOTE_B5, 148 }, 
	{ NOTE_A5, 147 }, 
	{ NOTE_E5, 147 }, 
	{ NOTE_F5, 147 }, 
	{ NOTE_G5, 147 }, 
	{ NOTE_F5, 147 }, 
	{ NOTE_E5, 147 }, 
	{ NOTE_D5, 147 }, 
	{ NOTE_C5, 147 }, 
	{ NOTE_D5, 147 }, 
	{ NOTE_B4, 148 }, 
	{ NOTE_REST, 1935 }, 
	{ NOTE_REST, 1694 }, 
	{ NOTE_REST, 1452 }, 
	{ NOTE_REST, 1452 }, 
	{ NOTE_REST, 1935 }, 
	{ NOTE_REST, 1694 }, 
	{ NOTE_REST, 1525 }, 
	{ NOTE_REST, 1525 }, 
	{ NOTE_REST, 1017 }, 
	{ NOTE_REST, 1525 }, 
	{ NOTE_REST, 1017 }, 
	{ NOTE_REST, 2542 }, 
	{ NOTE_REST, 169 }, 
	{ NOTE_A3, 169 }, 
	{ NOTE_B3, 169 }, 
	{ NOTE_F4, 169 }, 
	{ NOTE_D4, 169 }, 
	{ NOTE_E4, 338 }, 
	{ NOTE_F4, 169 }, 
	{ NOTE_E4, 342 }, 
	{ NOTE_D4, 169 }, 
	{ NOTE_C4, 169 }, 
	{ NOTE_B3, 169 }, 
	{ NOTE_C4, 169 }, 
	{ NOTE_F3, 338 }, 
	{ NOTE_G3, 169 }, 
	{ NOTE_A3, 342 }, 
	{ NOTE_B3, 169 }, 
	{ NOTE_DB4, 169 }, 
	{ NOTE_EB4, 169 }, 
	{ NOTE_F4, 169 }, 
	{ NOTE_G4, 172 }, 
	{ NOTE_REST, 169 }, 
	{ NOTE_A3, 169 }, 
	{ NOTE_B3, 169 }, 
	{ NOTE_F4, 169 }, 
	{ NOTE_D4, 169 }, 
	{ NOTE_E4, 338 }, 
	{ NOTE_F4, 169 }, 
	{ NOTE_E4, 342 }, 
	{ NOTE_D4, 169 }, 
	{ NOTE_C4, 169 }, 
	{ NOTE_B3, 169 }, 
	{ NOTE_C4, 169 }, 
	{ NOTE_F3, 341 }, 
	{ NOTE_G5, 169 }, 
	{ NOTE_F5, 169 }, 
	{ NOTE_EB5, 169 }, 
	{ NOTE_B4, 169 }, 
	{ NOTE_DB5, 169 }, 
	{ NOTE_B4, 169 }, 
	{ NOTE_A4, 169 }, 
	{ NOTE_G4, 169 }, 
	{ NOTE_D4, 169 }, 
	{ NOTE_EB4, 169 }, 
	{ NOTE_D4, 1866 }, 
	{ NOTE_B3, 511 }, 
	{ NOTE_C4, 507 }, 
	{ NOTE_A3, 507 }, 
	{ NOTE_D4, 1018 }, 
	{ NOTE_B3, 507 }, 
	{ NOTE_D4, 2881 }, 
	{ NOTE_B3, 511 }, 
	{ NOTE_C4, 507 }, 
	{ NOTE_A3, 507 }, 
	{ NOTE_G4, 1018 }, 
	{ NOTE_D4, 169 }, 
	{ NOTE_EB4, 338 }, 
	{ NOTE_EB4, 169 }, 
	{ NOTE_E4, 173 }, 
	{ NOTE_E4, 169 }, 
	{ NOTE_F4, 169 }, 
	{ NOTE_G4, 169 }, 
	{ NOTE_AB4, 169 }, 
	{ NOTE_B4, 169 }, 
	{ NOTE_C5, 169 }, 
	{ NOTE_DB5, 169 }, 
	{ NOTE_D5, 173 }, 
	{ NOTE_REST, 1607 }, 
	{ NOTE_REST, 2143 }, 
	{ NOTE_REST, 1607 }, 
	{ NOTE_REST, 2143 }, 
	{ NOTE_REST, 1607 }, 
	{ NOTE_REST, 1339 }, 
	{ NOTE_REST, 1607 }, 
	{ NOTE_REST, 1875 }, 
	{ NOTE_REST, 670 }, 
	{ NOTE_REST, 670 }, 
	{ NOTE_REST, 670 }, 
	{ NOTE_REST, 804 }, 
	{ NOTE_REST, 134 }, 
	{ NOTE_GB3, 134 }, 
	{ NOTE_AB3, 134 }, 
	{ NOTE_EB4, 134 }, 
	{ NOTE_AB3, 134 }, 
	{ NOTE_D4, 134 }, 
	{ NOTE_BB3, 134 }, 
	{ NOTE_B3, 134 }, 
	{ NOTE_B3, 134 }, 
	{ NOTE_C4, 134 }, 
	{ NOTE_AB3, 134 }, 
	{ NOTE_A3, 267 }, 
	{ NOTE_GB3, 134 }, 
	{ NOTE_AB3, 134 }, 
	{ NOTE_EB4, 134 }, 
	{ NOTE_AB3, 134 }, 
	{ NOTE_D4, 134 }, 
	{ NOTE_BB3, 134 }, 
	{ NOTE_B3, 134 }, 
	{ NOTE_B3, 134 }, 
	{ NOTE_C4, 134 }, 
	{ NOTE_AB3, 134 }, 
	{ NOTE_A3, 134 }, 
	{ NOTE_BB3, 134 }, 
	{ NOTE_B3, 134 }, 
	{ NOTE_G3, 134 }, 
	{ NOTE_AB3, 267 }, 
	{ NOTE_GB3, 134 }, 
	{ NOTE_AB3, 134 }, 
	{ NOTE_EB4, 134 }, 
	{ NOTE_AB3, 134 }, 
	{ NOTE_D4, 134 }, 
	{ NOTE_BB3, 134 }, 
	{ NOTE_B3, 134 }, 
	{ NOTE_B3, 134 }, 
	{ NOTE_C4, 134 }, 
	{ NOTE_AB3, 134 }, 
	{ NOTE_A3, 267 }, 
	{ NOTE_GB3, 134 }, 
	{ NOTE_AB3, 134 }, 
	{ NOTE_EB4, 134 }, 
	{ NOTE_AB3, 134 }, 
	{ NOTE_D4, 134 }, 
	{ NOTE_BB3, 134 }, 
	{ NOTE_B3, 134 }, 
	{ NOTE_C4, 134 }, 
	{ NOTE_DB4, 134 }, 
	{ NOTE_D4, 134 }, 
	{ NOTE_EB4, 134 }, 
	{ NOTE_E4, 134 }, 
	{ NOTE_GB4, 134 }, 
	{ NOTE_G4, 134 }, 
	{ NOTE_AB4, 267 }, 
	{ NOTE_GB3, 134 }, 
	{ NOTE_AB3, 134 }, 
	{ NOTE_EB4, 134 }, 
	{ NOTE_AB3, 134 }, 
	{ NOTE_D4, 134 }, 
	{ NOTE_BB3, 134 }, 
	{ NOTE_B3, 134 }, 
	{ NOTE_B3, 134 }, 
	{ NOTE_C4, 134 }, 
	{ NOTE_AB3, 134 }, 
	{ NOTE_A3, 267 }, 
	{ NOTE_GB3, 134 }, 
	{ NOTE_AB3, 134 }, 
	{ NOTE_EB4, 134 }, 
	{ NOTE_AB3, 134 }, 
	{ NOTE_D4, 134 }, 
	{ NOTE_B3, 134 }, 
	{ NOTE_C4, 134 }, 
	{ NOTE_AB3, 134 }, 
	{ NOTE_A3, 267 }, 
	{ NOTE_GB4, 134 }, 
	{ NOTE_AB4, 134 }, 
	{ NOTE_EB5, 134 }, 
	{ NOTE_AB4, 134 }, 
	{ NOTE_D5, 134 }, 
	{ NOTE_BB4, 134 }, 
	{ NOTE_B4, 134 }, 
	{ NOTE_B4, 134 }, 
	{ NOTE_C5, 134 }, 
	{ NOTE_AB4, 134 }, 
	{ NOTE_A4, 267 }, 
	{ NOTE_GB4, 134 }, 
	{ NOTE_AB4, 134 }, 
	{ NOTE_EB5, 134 }, 
	{ NOTE_AB4, 134 }, 
	{ NOTE_D5, 134 }, 
	{ NOTE_B4, 134 }, 
	{ NOTE_C5, 134 }, 
	{ NOTE_AB4, 134 }, 
	{ NOTE_A4, 134 }, 
	{ NOTE_BB4, 134 }, 
	{ NOTE_B4, 134 }, 
	{ NOTE_G4, 134 }, 
	{ NOTE_AB4, 133 }, 
	{ NOTE_B4, 134 }, 
	{ NOTE_AB4, 134 }, 
	{ NOTE_BB4, 134 }, 
	{ NOTE_AB4, 134 }, 
	{ NOTE_E4, 134 }, 
	{ NOTE_B3, 134 }, 
	{ NOTE_AB3, 134 }, 
	{ NOTE_BB3, 134 }, 
	{ NOTE_AB3, 134 }, 
	{ NOTE_E3, 134 }, 
	{ NOTE_REST, 670 }, 
	{ NOTE_G3, 134 }, 
	{ NOTE_AB3, 134 }, 
	{ NOTE_BB3, 134 }, 
	{ NOTE_B3, 134 }, 
	{ NOTE_DB4, 134 }, 
	{ NOTE_D4, 134 }, 
	{ NOTE_E4, 134 }, 
	{ NOTE_DB4, 134 }, 
	{ NOTE_EB4, 134 }, 
	{ NOTE_DB4, 134 }, 
	{ NOTE_A3, 134 }, 
	{ NOTE_E5, 134 }, 
	{ NOTE_DB5, 134 }, 
	{ NOTE_EB5, 134 }, 
	{ NOTE_DB5, 134 }, 
	{ NOTE_A4, 134 }, 
	{ NOTE_E6, 134 }, 
	{ NOTE_DB6, 134 }, 
	{ NOTE_EB6, 134 }, 
	{ NOTE_DB6, 134 }, 
	{ NOTE_A5, 134 }, 
	{ NOTE_C4, 134 }, 
	{ NOTE_DB4, 134 }, 
	{ NOTE_EB4, 134 }, 
	{ NOTE_E4, 134 }, 
	{ NOTE_GB4, 134 }, 
	{ NOTE_G4, 134 }, 
	{ NOTE_E4, 134 }, 
	{ NOTE_GB4, 134 }, 
	{ NOTE_E4, 134 }, 
	{ NOTE_C4, 134 }, 
	{ NOTE_G5, 134 }, 
	{ NOTE_E5, 134 }, 
	{ NOTE_GB5, 134 }, 
	{ NOTE_E5, 134 }, 
	{ NOTE_GB5, 134 }, 
	{ NOTE_E5, 134 }, 
	{ NOTE_C5, 133 }, 
	{ NOTE_G3, 134 }, 
	{ NOTE_E3, 134 }, 
	{ NOTE_GB3, 134 }, 
	{ NOTE_E3, 134 }, 
	{ NOTE_C3, 134 }, 
	{ NOTE_E4, 134 }, 
	{ NOTE_GB4, 134 }, 
	{ NOTE_G4, 134 }, 
	{ NOTE_A4, 134 }, 
	{ NOTE_BB4, 134 }, 
	{ NOTE_C5, 134 }, 
	{ NOTE_DB5, 134 }, 
	{ NOTE_BB4, 134 }, 
	{ NOTE_C5, 134 }, 
	{ NOTE_AB4, 134 }, 
	{ NOTE_F4, 134 }, 
	{ NOTE_DB4, 134 }, 
	{ NOTE_BB3, 134 }, 
	{ NOTE_C4, 134 }, 
	{ NOTE_AB3, 134 }, 
	{ NOTE_F3, 134 }, 
	{ NOTE_REST, 670 }, 
	{ NOTE_REST, 1010 }, 
	{ NOTE_REST, 433 }, 
	{ NOTE_GB3, 1298 }, 
	{ NOTE_GB3, 1731 }, 
	{ NOTE_AB3, 1731 }, 
	{ NOTE_AB3, 865 }, 
	{ NOTE_GB5, 144 }, 
	{ NOTE_AB5, 72 }, 
	{ NOTE_GB5, 72 }, 
	{ NOTE_F5, 144 }, 
	{ NOTE_EB5, 144 }, 
	{ NOTE_DB5, 144 }, 
	{ NOTE_B4, 144 }, 
	{ NOTE_DB5, 144 }, 
	{ NOTE_EB5, 146 }, 
	{ NOTE_E3, 1800 }, 
	{ NOTE_E3, 1800 }, 
	{ NOTE_GB4, 450 }, 
	{ NOTE_DB5, 300 }, 
	{ NOTE_GB4, 150 }, 
	{ NOTE_C5, 300 }, 
	{ NOTE_BB4, 300 }, 
	{ NOTE_AB4, 300 }, 
	{ NOTE_GB4, 750 }, 
	{ NOTE_DB4, 500 }, 
	{ NOTE_GB3, 250 }, 
	{ NOTE_EB4, 250 }, 
	{ NOTE_DB4, 250 }, 
	{ NOTE_C4, 250 }, 
	{ NOTE_BB3, 250 }, 
	{ NOTE_AB3, 250 }, 
	{ NOTE_GB3, 250 }, 
	{ NOTE_E3, 484 }, 
	{ NOTE_REST, 726 }, 
	{ NOTE_B2, 484 }, 
	{ NOTE_B2, 484 }, 
	{ NOTE_B2, 484 }, 
};
const uint16_t NUM_OF_NOTES3 = sizeof(melody3)/sizeof(melody3[0]);

const Note melody4[] PROGMEM = {
	{ NOTE_REST, 2308 }, 
	{ NOTE_REST, 2308 }, 
	{ NOTE_REST, 2308 }, 
	{ NOTE_REST, 2308 }, 
	{ NOTE_REST, 1935 }, 
	{ NOTE_REST, 1694 }, 
	{ NOTE_REST, 1452 }, 
	{ NOTE_REST, 1452 }, 
	{ NOTE_REST, 1935 }, 
	{ NOTE_REST, 1694 }, 
	{ NOTE_REST, 1452 }, 
	{ NOTE_REST, 1452 }, 
	{ NOTE_REST, 1935 }, 
	{ NOTE_REST, 1694 }, 
	{ NOTE_REST, 1452 }, 
	{ NOTE_REST, 1694 }, 
	{ NOTE_REST, 1935 }, 
	{ NOTE_REST, 1694 }, 
	{ NOTE_REST, 1452 }, 
	{ NOTE_REST, 1694 }, 
	{ NOTE_REST, 1573 }, 
	{ NOTE_REST, 1815 }, 
	{ NOTE_REST, 2056 }, 
	{ NOTE_REST, 1694 }, 
	{ NOTE_REST, 1935 }, 
	{ NOTE_REST, 1694 }, 
	{ NOTE_REST, 1452 }, 
	{ NOTE_REST, 1452 }, 
	{ NOTE_REST, 1935 }, 
	{ NOTE_REST, 1694 }, 
	{ NOTE_REST, 1935 }, 
	{ NOTE_REST, 2419 }, 
	{ NOTE_REST, 2056 }, 
	{ NOTE_REST, 1815 }, 
	{ NOTE_REST, 1573 }, 
	{ NOTE_REST, 1935 }, 
	{ NOTE_REST, 1452 }, 
	{ NOTE_E2, 121 }, 
	{ NOTE_B2, 121 }, 
	{ NOTE_E3, 121 }, 
	{ NOTE_B3, 121 }, 
	{ NOTE_REST, 121 }, 
	{ NOTE_A2, 121 }, 
	{ NOTE_C3, 242 }, 
	{ NOTE_F3, 242 }, 
	{ NOTE_G3, 242 }, 
	{ NOTE_REST, 2500 }, 
	{ NOTE_REST, 1000 }, 
	{ NOTE_REST, 2500 }, 
	{ NOTE_REST, 1000 }, 
	{ NOTE_REST, 2500 }, 
	{ NOTE_REST, 1000 }, 
	{ NOTE_REST, 2500 }, 
	{ NOTE_REST, 1250 }, 
	{ NOTE_REST, 5323 }, 
	{ NOTE_REST, 5323 }, 
	{ NOTE_REST, 1452 }, 
	{ NOTE_REST, 968 }, 
	{ NOTE_B3, 2903 }, 
	{ NOTE_B2, 121 }, 
	{ NOTE_B2, 121 }, 
	{ NOTE_B2, 121 }, 
	{ NOTE_B2, 242 }, 
	{ NOTE_B2, 121 }, 
	{ NOTE_B2, 121 }, 
	{ NOTE_B2, 121 }, 
	{ NOTE_B2, 242 }, 
	{ NOTE_B2, 121 }, 
	{ NOTE_B2, 121 }, 
	{ NOTE_B2, 121 }, 
	{ NOTE_B2, 242 }, 
	{ NOTE_B2, 121 }, 
	{ NOTE_B2, 121 }, 
	{ NOTE_B2, 121 }, 
	{ NOTE_B2, 242 }, 
	{ NOTE_B2, 121 }, 
	{ NOTE_B2, 121 }, 
	{ NOTE_B2, 121 }, 
	{ NOTE_B2, 242 }, 
	{ NOTE_B2, 121 }, 
	{ NOTE_B2, 121 }, 
	{ NOTE_B2, 121 }, 
	{ NOTE_B2, 242 }, 
	{ NOTE_B2, 121 }, 
	{ NOTE_B2, 121 }, 
	{ NOTE_B2, 121 }, 
	{ NOTE_B2, 242 }, 
	{ NOTE_REST, 120 }, 
	{ NOTE_B2, 968 }, 
	{ NOTE_E4, 121 }, 
	{ NOTE_B3, 121 }, 
	{ NOTE_G3, 121 }, 
	{ NOTE_E3, 121 }, 
	{ NOTE_REST, 121 }, 
	{ NOTE_B3, 121 }, 
	{ NOTE_G3, 121 }, 
	{ NOTE_E3, 121 }, 
	{ NOTE_B2, 121 }, 
	{ NOTE_REST, 121 }, 
	{ NOTE_DB4, 121 }, 
	{ NOTE_BB3, 121 }, 
	{ NOTE_GB3, 121 }, 
	{ NOTE_DB3, 121 }, 
	{ NOTE_REST, 121 }, 
	{ NOTE_C4, 121 }, 
	{ NOTE_A3, 121 }, 
	{ NOTE_E3, 121 }, 
	{ NOTE_C3, 121 }, 
	{ NOTE_REST, 121 }, 
	{ NOTE_B3, 121 }, 
	{ NOTE_G3, 121 }, 
	{ NOTE_E3, 121 }, 
	{ NOTE_B2, 121 }, 
	{ NOTE_REST, 121 }, 
	{ NOTE_G3, 121 }, 
	{ NOTE_E3, 121 }, 
	{ NOTE_B2, 121 }, 
	{ NOTE_G2, 121 }, 
	{ NOTE_REST, 121 }, 
	{ NOTE_BB3, 121 }, 
	{ NOTE_GB3, 121 }, 
	{ NOTE_DB3, 121 }, 
	{ NOTE_BB2, 121 }, 
	{ NOTE_REST, 121 }, 
	{ NOTE_GB3, 121 }, 
	{ NOTE_DB3, 121 }, 
	{ NOTE_BB2, 121 }, 
	{ NOTE_GB2, 121 }, 
	{ NOTE_REST, 121 }, 
	{ NOTE_E3, 121 }, 
	{ NOTE_C3, 121 }, 
	{ NOTE_A2, 121 }, 
	{ NOTE_REST, 120 }, 
	{ NOTE_E4, 121 }, 
	{ NOTE_B3, 121 }, 
	{ NOTE_G3, 121 }, 
	{ NOTE_E3, 121 }, 
	{ NOTE_REST, 121 }, 
	{ NOTE_B3, 121 }, 
	{ NOTE_G3, 121 }, 
	{ NOTE_E3, 121 }, 
	{ NOTE_B2, 121 }, 
	{ NOTE_REST, 121 }, 
	{ NOTE_DB4, 121 }, 
	{ NOTE_BB3, 121 }, 
	{ NOTE_GB3, 121 }, 
	{ NOTE_DB3, 121 }, 
	{ NOTE_REST, 121 }, 
	{ NOTE_C4, 121 }, 
	{ NOTE_A3, 121 }, 
	{ NOTE_E3, 121 }, 
	{ NOTE_C3, 121 }, 
	{ NOTE_REST, 121 }, 
	{ NOTE_B3, 121 }, 
	{ NOTE_G3, 121 }, 
	{ NOTE_E3, 121 }, 
	{ NOTE_B2, 121 }, 
	{ NOTE_REST, 121 }, 
	{ NOTE_G3, 121 }, 
	{ NOTE_E3, 121 }, 
	{ NOTE_B2, 121 }, 
	{ NOTE_G2, 121 }, 
	{ NOTE_REST, 121 }, 
	{ NOTE_BB3, 121 }, 
	{ NOTE_GB3, 121 }, 
	{ NOTE_DB3, 121 }, 
	{ NOTE_BB2, 121 }, 
	{ NOTE_REST, 121 }, 
	{ NOTE_GB3, 121 }, 
	{ NOTE_DB3, 121 }, 
	{ NOTE_BB2, 121 }, 
	{ NOTE_GB2, 121 }, 
	{ NOTE_REST, 121 }, 
	{ NOTE_E3, 121 }, 
	{ NOTE_C3, 121 }, 
	{ NOTE_A2, 121 }, 
	{ NOTE_REST, 120 }, 
	{ NOTE_REST, 1935 }, 
	{ NOTE_REST, 1935 }, 
	{ NOTE_REST, 1935 }, 
	{ NOTE_REST, 1935 }, 
	{ NOTE_REST, 1935 }, 
	{ NOTE_C4, 968 }, 
	{ NOTE_B3, 967 }, 
	{ NOTE_B3, 1935 }, 
	{ NOTE_C3, 242 }, 
	{ NOTE_C3, 242 }, 
	{ NOTE_C3, 121 }, 
	{ NOTE_C3, 242 }, 
	{ NOTE_B2, 121 }, 
	{ NOTE_REST, 967 }, 
	{ NOTE_E2, 227 }, 
	{ NOTE_B3, 227 }, 
	{ NOTE_E3, 227 }, 
	{ NOTE_B3, 227 }, 
	{ NOTE_E2, 227 }, 
	{ NOTE_B3, 227 }, 
	{ NOTE_E3, 227 }, 
	{ NOTE_B3, 229 }, 
	{ NOTE_CS2, 227 }, 
	{ NOTE_AS3, 227 }, 
	{ NOTE_C3, 227 }, 
	{ NOTE_AS3, 227 }, 
	{ NOTE_B2, 227 }, 
	{ NOTE_FS3, 683 }, 
	{ NOTE_E2, 227 }, 
	{ NOTE_B3, 227 }, 
	{ NOTE_E3, 227 }, 
	{ NOTE_B3, 227 }, 
	{ NOTE_E2, 227 }, 
	{ NOTE_B3, 227 }, 
	{ NOTE_E3, 227 }, 
	{ NOTE_B3, 229 }, 
	{ NOTE_FS2, 227 }, 
	{ NOTE_AS3, 227 }, 
	{ NOTE_CS3, 227 }, 
	{ NOTE_AS3, 227 }, 
	{ NOTE_B2, 227 }, 
	{ NOTE_A3, 227 }, 
	{ NOTE_B2, 227 }, 
	{ NOTE_A3, 229 }, 
	{ NOTE_E2, 227 }, 
	{ NOTE_E3, 227 }, 
	{ NOTE_DS2, 227 }, 
	{ NOTE_DS3, 227 }, 
	{ NOTE_D2, 227 }, 
	{ NOTE_D3, 227 }, 
	{ NOTE_CS2, 227 }, 
	{ NOTE_CS3, 229 }, 
	{ NOTE_C2, 227 }, 
	{ NOTE_C3, 227 }, 
	{ NOTE_C2, 227 }, 
	{ NOTE_C3, 227 }, 
	{ NOTE_B1, 227 }, 
	{ NOTE_B2, 227 }, 
	{ NOTE_B1, 341 }, 
	{ NOTE_E3, 115 }, 
	{ NOTE_E2, 227 }, 
	{ NOTE_E3, 227 }, 
	{ NOTE_FS2, 227 }, 
	{ NOTE_FS3, 227 }, 
	{ NOTE_G2, 227 }, 
	{ NOTE_G3, 227 }, 
	{ NOTE_GS2, 227 }, 
	{ NOTE_GS3, 114 }, 
	{ NOTE_E3, 115 }, 
	{ NOTE_A2, 114 }, 
	{ NOTE_A3, 227 }, 
	{ NOTE_A2, 114 }, 
	{ NOTE_A3, 227 }, 
	{ NOTE_A2, 114 }, 
	{ NOTE_A3, 227 }, 
	{ NOTE_A2, 114 }, 
	{ NOTE_A3, 227 }, 
	{ NOTE_A2, 114 }, 
	{ NOTE_A3, 227 }, 
	{ NOTE_A2, 113 }, 
	{ NOTE_B3, 227 }, 
	{ NOTE_REST, 227 }, 
	{ NOTE_REST, 114 }, 
	{ NOTE_REST, 57 }, 
	{ NOTE_A3, 28 }, 
	{ NOTE_G3, 28 }, 
	{ NOTE_F3, 28 }, 
	{ NOTE_E3, 28 }, 
	{ NOTE_D3, 28 }, 
	{ NOTE_C3, 28 }, 
	{ NOTE_B2, 57 }, 
	{ NOTE_REST, 57 }, 
	{ NOTE_REST, 911 }, 
	{ NOTE_REST, 1818 }, 
	{ NOTE_REST, 1818 }, 
	{ NOTE_REST, 1818 }, 
	{ NOTE_REST, 1818 }, 
	{ NOTE_REST, 1818 }, 
	{ NOTE_REST, 1818 }, 
	{ NOTE_REST, 1818 }, 
	{ NOTE_REST, 1818 }, 
	{ NOTE_REST, 1818 }, 
	{ NOTE_REST, 1818 }, 
	{ NOTE_REST, 1818 }, 
	{ NOTE_REST, 1818 }, 
	{ NOTE_REST, 1818 }, 
	{ NOTE_REST, 1818 }, 
	{ NOTE_REST, 1818 }, 
	{ NOTE_REST, 1818 }, 
	{ NOTE_REST, 1818 }, 
	{ NOTE_REST, 1818 }, 
	{ NOTE_REST, 1818 }, 
	{ NOTE_REST, 1818 }, 
	{ NOTE_REST, 1364 }, 
	{ NOTE_REST, 1818 }, 
	{ NOTE_A2, 227 }, 
	{ NOTE_G2, 114 }, 
	{ NOTE_F2, 114 }, 
	{ NOTE_E2, 227 }, 
	{ NOTE_A2, 114 }, 
	{ NOTE_B2, 227 }, 
	{ NOTE_G2, 114 }, 
	{ NOTE_E2, 227 }, 
	{ NOTE_F2, 114 }, 
	{ NOTE_G2, 114 }, 
	{ NOTE_F2, 114 }, 
	{ NOTE_E2, 114 }, 
	{ NOTE_A2, 227 }, 
	{ NOTE_G2, 114 }, 
	{ NOTE_F2, 112 }, 
	{ NOTE_E2, 227 }, 
	{ NOTE_B2, 114 }, 
	{ NOTE_C3, 227 }, 
	{ NOTE_G2, 114 }, 
	{ NOTE_E2, 227 }, 
	{ NOTE_D3, 114 }, 
	{ NOTE_E3, 114 }, 
	{ NOTE_D3, 114 }, 
	{ NOTE_E3, 114 }, 
	{ NOTE_A2, 227 }, 
	{ NOTE_G2, 114 }, 
	{ NOTE_F2, 112 }, 
	{ NOTE_E2, 227 }, 
	{ NOTE_A2, 114 }, 
	{ NOTE_B2, 227 }, 
	{ NOTE_G2, 114 }, 
	{ NOTE_E2, 227 }, 
	{ NOTE_F2, 114 }, 
	{ NOTE_G2, 114 }, 
	{ NOTE_F2, 114 }, 
	{ NOTE_E2, 113 }, 
	{ NOTE_REST, 114 }, 
	{ NOTE_A2, 114 }, 
	{ NOTE_B2, 227 }, 
	{ NOTE_G2, 114 }, 
	{ NOTE_E2, 114 }, 
	{ NOTE_REST, 114 }, 
	{ NOTE_D3, 114 }, 
	{ NOTE_E3, 227 }, 
	{ NOTE_F3, 114 }, 
	{ NOTE_E3, 341 }, 
	{ NOTE_C3, 114 }, 
	{ NOTE_B2, 111 }, 
	{ NOTE_A2, 114 }, 
	{ NOTE_E3, 114 }, 
	{ NOTE_G2, 114 }, 
	{ NOTE_F2, 114 }, 
	{ NOTE_E2, 114 }, 
	{ NOTE_E3, 114 }, 
	{ NOTE_A2, 114 }, 
	{ NOTE_B2, 114 }, 
	{ NOTE_E3, 114 }, 
	{ NOTE_G2, 114 }, 
	{ NOTE_E2, 114 }, 
	{ NOTE_E3, 114 }, 
	{ NOTE_F2, 114 }, 
	{ NOTE_G2, 114 }, 
	{ NOTE_F2, 114 }, 
	{ NOTE_E2, 108 }, 
	{ NOTE_A2, 114 }, 
	{ NOTE_E3, 114 }, 
	{ NOTE_G2, 114 }, 
	{ NOTE_F2, 114 }, 
	{ NOTE_E2, 114 }, 
	{ NOTE_E3, 114 }, 
	{ NOTE_A2, 114 }, 
	{ NOTE_B2, 114 }, 
	{ NOTE_E3, 114 }, 
	{ NOTE_G2, 114 }, 
	{ NOTE_E2, 114 }, 
	{ NOTE_E3, 114 }, 
	{ NOTE_F2, 114 }, 
	{ NOTE_G2, 114 }, 
	{ NOTE_F2, 114 }, 
	{ NOTE_E2, 108 }, 
	{ NOTE_A2, 114 }, 
	{ NOTE_E3, 114 }, 
	{ NOTE_G2, 114 }, 
	{ NOTE_F2, 114 }, 
	{ NOTE_E2, 114 }, 
	{ NOTE_E3, 114 }, 
	{ NOTE_A2, 114 }, 
	{ NOTE_B2, 114 }, 
	{ NOTE_E3, 114 }, 
	{ NOTE_G2, 114 }, 
	{ NOTE_E2, 114 }, 
	{ NOTE_E3, 114 }, 
	{ NOTE_F2, 114 }, 
	{ NOTE_G2, 114 }, 
	{ NOTE_F2, 114 }, 
	{ NOTE_E2, 108 }, 
	{ NOTE_A2, 114 }, 
	{ NOTE_E3, 114 }, 
	{ NOTE_G2, 114 }, 
	{ NOTE_F2, 114 }, 
	{ NOTE_E2, 114 }, 
	{ NOTE_E3, 114 }, 
	{ NOTE_A2, 114 }, 
	{ NOTE_B2, 114 }, 
	{ NOTE_E3, 114 }, 
	{ NOTE_G2, 114 }, 
	{ NOTE_E2, 114 }, 
	{ NOTE_E3, 114 }, 
	{ NOTE_F2, 114 }, 
	{ NOTE_G2, 114 }, 
	{ NOTE_F2, 114 }, 
	{ NOTE_E2, 108 }, 
	{ NOTE_A2, 114 }, 
	{ NOTE_E3, 114 }, 
	{ NOTE_G2, 114 }, 
	{ NOTE_F2, 114 }, 
	{ NOTE_E2, 114 }, 
	{ NOTE_E3, 114 }, 
	{ NOTE_A2, 114 }, 
	{ NOTE_B2, 114 }, 
	{ NOTE_E3, 114 }, 
	{ NOTE_G2, 114 }, 
	{ NOTE_E2, 114 }, 
	{ NOTE_E3, 114 }, 
	{ NOTE_F2, 114 }, 
	{ NOTE_G2, 114 }, 
	{ NOTE_F2, 114 }, 
	{ NOTE_E2, 108 }, 
	{ NOTE_A2, 114 }, 
	{ NOTE_E3, 114 }, 
	{ NOTE_G2, 114 }, 
	{ NOTE_F2, 114 }, 
	{ NOTE_E2, 114 }, 
	{ NOTE_E3, 114 }, 
	{ NOTE_B2, 114 }, 
	{ NOTE_C3, 114 }, 
	{ NOTE_E3, 114 }, 
	{ NOTE_G2, 114 }, 
	{ NOTE_E2, 114 }, 
	{ NOTE_E3, 114 }, 
	{ NOTE_D3, 114 }, 
	{ NOTE_E3, 114 }, 
	{ NOTE_D3, 114 }, 
	{ NOTE_E3, 108 }, 
	{ NOTE_A2, 114 }, 
	{ NOTE_E3, 114 }, 
	{ NOTE_G2, 114 }, 
	{ NOTE_F2, 114 }, 
	{ NOTE_E2, 114 }, 
	{ NOTE_E3, 114 }, 
	{ NOTE_A2, 114 }, 
	{ NOTE_B2, 114 }, 
	{ NOTE_E3, 114 }, 
	{ NOTE_G2, 114 }, 
	{ NOTE_E2, 114 }, 
	{ NOTE_E3, 114 }, 
	{ NOTE_F2, 114 }, 
	{ NOTE_G2, 114 }, 
	{ NOTE_F2, 114 }, 
	{ NOTE_E2, 108 }, 
	{ NOTE_E3, 114 }, 
	{ NOTE_A2, 114 }, 
	{ NOTE_B2, 114 }, 
	{ NOTE_E3, 114 }, 
	{ NOTE_G2, 114 }, 
	{ NOTE_E2, 114 }, 
	{ NOTE_E3, 114 }, 
	{ NOTE_D3, 114 }, 
	{ NOTE_E3, 114 }, 
	{ NOTE_E2, 114 }, 
	{ NOTE_F3, 114 }, 
	{ NOTE_E3, 341 }, 
	{ NOTE_F3, 114 }, 
	{ NOTE_E3, 109 }, 
	{ NOTE_D3, 114 }, 
	{ NOTE_A3, 114 }, 
	{ NOTE_C3, 114 }, 
	{ NOTE_B2, 114 }, 
	{ NOTE_A2, 114 }, 
	{ NOTE_A3, 114 }, 
	{ NOTE_D3, 114 }, 
	{ NOTE_E3, 114 }, 
	{ NOTE_A3, 114 }, 
	{ NOTE_C3, 114 }, 
	{ NOTE_A2, 114 }, 
	{ NOTE_A3, 114 }, 
	{ NOTE_B2, 114 }, 
	{ NOTE_C3, 114 }, 
	{ NOTE_B2, 114 }, 
	{ NOTE_A2, 108 }, 
	{ NOTE_D3, 114 }, 
	{ NOTE_A3, 114 }, 
	{ NOTE_C3, 114 }, 
	{ NOTE_B2, 114 }, 
	{ NOTE_A2, 114 }, 
	{ NOTE_A3, 114 }, 
	{ NOTE_D3, 114 }, 
	{ NOTE_E3, 114 }, 
	{ NOTE_A3, 114 }, 
	{ NOTE_C3, 114 }, 
	{ NOTE_A2, 114 }, 
	{ NOTE_A3, 114 }, 
	{ NOTE_B2, 114 }, 
	{ NOTE_C3, 114 }, 
	{ NOTE_B2, 114 }, 
	{ NOTE_A2, 108 }, 
	{ NOTE_D3, 114 }, 
	{ NOTE_A3, 114 }, 
	{ NOTE_C3, 114 }, 
	{ NOTE_B2, 114 }, 
	{ NOTE_A2, 114 }, 
	{ NOTE_A3, 114 }, 
	{ NOTE_D3, 114 }, 
	{ NOTE_E3, 114 }, 
	{ NOTE_A3, 114 }, 
	{ NOTE_C3, 114 }, 
	{ NOTE_A2, 114 }, 
	{ NOTE_A3, 114 }, 
	{ NOTE_B2, 114 }, 
	{ NOTE_C3, 114 }, 
	{ NOTE_B2, 114 }, 
	{ NOTE_A2, 108 }, 
	{ NOTE_D3, 114 }, 
	{ NOTE_A3, 114 }, 
	{ NOTE_C3, 114 }, 
	{ NOTE_B2, 114 }, 
	{ NOTE_A2, 114 }, 
	{ NOTE_A3, 114 }, 
	{ NOTE_D3, 114 }, 
	{ NOTE_E3, 114 }, 
	{ NOTE_A3, 114 }, 
	{ NOTE_C3, 114 }, 
	{ NOTE_A2, 114 }, 
	{ NOTE_A3, 114 }, 
	{ NOTE_B2, 114 }, 
	{ NOTE_C3, 114 }, 
	{ NOTE_B2, 114 }, 
	{ NOTE_A2, 108 }, 
	{ NOTE_D3, 114 }, 
	{ NOTE_A3, 114 }, 
	{ NOTE_C3, 114 }, 
	{ NOTE_B2, 114 }, 
	{ NOTE_A2, 114 }, 
	{ NOTE_A3, 114 }, 
	{ NOTE_D3, 114 }, 
	{ NOTE_E3, 114 }, 
	{ NOTE_A3, 114 }, 
	{ NOTE_C3, 114 }, 
	{ NOTE_A2, 114 }, 
	{ NOTE_A3, 114 }, 
	{ NOTE_B2, 114 }, 
	{ NOTE_C3, 114 }, 
	{ NOTE_B2, 114 }, 
	{ NOTE_A2, 108 }, 
	{ NOTE_D3, 114 }, 
	{ NOTE_A3, 114 }, 
	{ NOTE_C3, 114 }, 
	{ NOTE_B2, 114 }, 
	{ NOTE_A2, 114 }, 
	{ NOTE_A3, 114 }, 
	{ NOTE_D3, 114 }, 
	{ NOTE_A3, 114 }, 
	{ NOTE_G3, 114 }, 
	{ NOTE_E3, 114 }, 
	{ NOTE_G3, 114 }, 
	{ NOTE_E3, 114 }, 
	{ NOTE_D3, 114 }, 
	{ NOTE_E3, 114 }, 
	{ NOTE_D3, 114 }, 
	{ NOTE_C3, 108 }, 
	{ NOTE_D3, 114 }, 
	{ NOTE_A3, 114 }, 
	{ NOTE_C3, 114 }, 
	{ NOTE_B2, 114 }, 
	{ NOTE_A2, 114 }, 
	{ NOTE_A3, 114 }, 
	{ NOTE_D3, 114 }, 
	{ NOTE_E3, 114 }, 
	{ NOTE_A3, 114 }, 
	{ NOTE_C3, 114 }, 
	{ NOTE_A2, 114 }, 
	{ NOTE_A3, 114 }, 
	{ NOTE_B2, 114 }, 
	{ NOTE_C3, 114 }, 
	{ NOTE_B2, 114 }, 
	{ NOTE_A2, 108 }, 
	{ NOTE_D3, 114 }, 
	{ NOTE_A3, 114 }, 
	{ NOTE_C3, 114 }, 
	{ NOTE_B2, 114 }, 
	{ NOTE_A2, 114 }, 
	{ NOTE_A3, 114 }, 
	{ NOTE_D3, 114 }, 
	{ NOTE_A3, 114 }, 
	{ NOTE_REST, 114 }, 
	{ NOTE_G3, 114 }, 
	{ NOTE_REST, 114 }, 
	{ NOTE_D3, 114 }, 
	{ NOTE_REST, 114 }, 
	{ NOTE_C3, 114 }, 
	{ NOTE_B2, 114 }, 
	{ NOTE_A2, 108 }, 
	{ NOTE_D3, 114 }, 
	{ NOTE_A3, 114 }, 
	{ NOTE_C3, 114 }, 
	{ NOTE_B2, 114 }, 
	{ NOTE_A2, 114 }, 
	{ NOTE_A3, 114 }, 
	{ NOTE_D3, 114 }, 
	{ NOTE_E3, 114 }, 
	{ NOTE_A3, 114 }, 
	{ NOTE_C3, 114 }, 
	{ NOTE_A2, 114 }, 
	{ NOTE_A3, 114 }, 
	{ NOTE_B2, 114 }, 
	{ NOTE_C3, 114 }, 
	{ NOTE_B2, 114 }, 
	{ NOTE_A2, 108 }, 
	{ NOTE_E3, 114 }, 
	{ NOTE_A3, 114 }, 
	{ NOTE_D3, 114 }, 
	{ NOTE_C3, 114 }, 
	{ NOTE_A2, 114 }, 
	{ NOTE_A3, 114 }, 
	{ NOTE_E3, 114 }, 
	{ NOTE_F3, 114 }, 
	{ NOTE_A3, 114 }, 
	{ NOTE_D3, 114 }, 
	{ NOTE_A2, 114 }, 
	{ NOTE_A3, 114 }, 
	{ NOTE_C3, 114 }, 
	{ NOTE_D3, 114 }, 
	{ NOTE_C3, 114 }, 
	{ NOTE_B2, 108 }, 
	{ NOTE_F3, 114 }, 
	{ NOTE_A3, 114 }, 
	{ NOTE_E3, 114 }, 
	{ NOTE_D3, 114 }, 
	{ NOTE_A2, 114 }, 
	{ NOTE_A3, 114 }, 
	{ NOTE_F3, 114 }, 
	{ NOTE_G3, 114 }, 
	{ NOTE_A3, 114 }, 
	{ NOTE_E3, 114 }, 
	{ NOTE_A2, 114 }, 
	{ NOTE_A3, 114 }, 
	{ NOTE_D3, 114 }, 
	{ NOTE_E3, 114 }, 
	{ NOTE_D3, 114 }, 
	{ NOTE_C3, 108 }, 
	{ NOTE_G3, 114 }, 
	{ NOTE_A3, 114 }, 
	{ NOTE_F3, 114 }, 
	{ NOTE_E3, 114 }, 
	{ NOTE_A2, 114 }, 
	{ NOTE_A3, 114 }, 
	{ NOTE_G3, 114 }, 
	{ NOTE_A3, 228 }, 
	{ NOTE_F3, 114 }, 
	{ NOTE_A2, 114 }, 
	{ NOTE_A3, 114 }, 
	{ NOTE_E3, 114 }, 
	{ NOTE_F3, 114 }, 
	{ NOTE_E3, 114 }, 
	{ NOTE_A2, 108 }, 
	{ NOTE_REST, 114 }, 
	{ NOTE_A3, 114 }, 
	{ NOTE_REST, 114 }, 
	{ NOTE_REST, 114 }, 
	{ NOTE_A3, 114 }, 
	{ NOTE_A2, 114 }, 
	{ NOTE_REST, 111 }, 
	{ NOTE_REST, 114 }, 
	{ NOTE_A3, 114 }, 
	{ NOTE_REST, 114 }, 
	{ NOTE_REST, 114 }, 
	{ NOTE_A3, 114 }, 
	{ NOTE_A2, 114 }, 
	{ NOTE_REST, 111 }, 
	{ NOTE_REST, 114 }, 
	{ NOTE_A3, 114 }, 
	{ NOTE_REST, 114 }, 
	{ NOTE_REST, 114 }, 
	{ NOTE_A3, 114 }, 
	{ NOTE_A2, 114 }, 
	{ NOTE_REST, 111 }, 
	{ NOTE_REST, 114 }, 
	{ NOTE_A3, 114 }, 
	{ NOTE_REST, 114 }, 
	{ NOTE_REST, 114 }, 
	{ NOTE_A3, 114 }, 
	{ NOTE_A2, 114 }, 
	{ NOTE_REST, 111 }, 
	{ NOTE_REST, 114 }, 
	{ NOTE_A3, 114 }, 
	{ NOTE_REST, 114 }, 
	{ NOTE_REST, 114 }, 
	{ NOTE_A3, 114 }, 
	{ NOTE_REST, 112 }, 
	{ NOTE_REST, 114 }, 
	{ NOTE_A3, 114 }, 
	{ NOTE_REST, 114 }, 
	{ NOTE_REST, 114 }, 
	{ NOTE_A3, 114 }, 
	{ NOTE_REST, 112 }, 
	{ NOTE_REST, 114 }, 
	{ NOTE_A3, 114 }, 
	{ NOTE_REST, 114 }, 
	{ NOTE_REST, 114 }, 
	{ NOTE_A3, 114 }, 
	{ NOTE_REST, 112 }, 
	{ NOTE_REST, 114 }, 
	{ NOTE_A3, 114 }, 
	{ NOTE_REST, 114 }, 
	{ NOTE_REST, 114 }, 
	{ NOTE_A3, 114 }, 
	{ NOTE_REST, 112 }, 
	{ NOTE_REST, 114 }, 
	{ NOTE_A3, 114 }, 
	{ NOTE_REST, 114 }, 
	{ NOTE_REST, 114 }, 
	{ NOTE_A3, 114 }, 
	{ NOTE_REST, 112 }, 
	{ NOTE_REST, 795 }, 
	{ NOTE_REST, 795 }, 
	{ NOTE_REST, 795 }, 
	{ NOTE_REST, 1818 }, 
	{ NOTE_A3, 147 }, 
	{ NOTE_A2, 147 }, 
	{ NOTE_A3, 147 }, 
	{ NOTE_A2, 147 }, 
	{ NOTE_A2, 147 }, 
	{ NOTE_A3, 147 }, 
	{ NOTE_A2, 147 }, 
	{ NOTE_A3, 147 }, 
	{ NOTE_A2, 147 }, 
	{ NOTE_A2, 147 }, 
	{ NOTE_A3, 147 }, 
	{ NOTE_A2, 147 }, 
	{ NOTE_A3, 147 }, 
	{ NOTE_A2, 147 }, 
	{ NOTE_A3, 147 }, 
	{ NOTE_A2, 147 }, 
	{ NOTE_A2, 147 }, 
	{ NOTE_A3, 147 }, 
	{ NOTE_A2, 147 }, 
	{ NOTE_A3, 147 }, 
	{ NOTE_A2, 147 }, 
	{ NOTE_A2, 147 }, 
	{ NOTE_A3, 147 }, 
	{ NOTE_A2, 147 }, 
	{ NOTE_A3, 147 }, 
	{ NOTE_A2, 147 }, 
	{ NOTE_A3, 147 }, 
	{ NOTE_A2, 147 }, 
	{ NOTE_A2, 147 }, 
	{ NOTE_A3, 147 }, 
	{ NOTE_A2, 147 }, 
	{ NOTE_A3, 147 }, 
	{ NOTE_A2, 147 }, 
	{ NOTE_A2, 147 }, 
	{ NOTE_A3, 147 }, 
	{ NOTE_A2, 147 }, 
	{ NOTE_A3, 147 }, 
	{ NOTE_A2, 147 }, 
	{ NOTE_A2, 147 }, 
	{ NOTE_A3, 147 }, 
	{ NOTE_A2, 147 }, 
	{ NOTE_A3, 147 }, 
	{ NOTE_A2, 147 }, 
	{ NOTE_A3, 147 }, 
	{ NOTE_A2, 147 }, 
	{ NOTE_A2, 147 }, 
	{ NOTE_REST, 1471 }, 
	{ NOTE_REST, 1471 }, 
	{ NOTE_REST, 1935 }, 
	{ NOTE_REST, 1694 }, 
	{ NOTE_REST, 1452 }, 
	{ NOTE_REST, 1452 }, 
	{ NOTE_REST, 1935 }, 
	{ NOTE_REST, 1694 }, 
	{ NOTE_REST, 1525 }, 
	{ NOTE_REST, 1525 }, 
	{ NOTE_REST, 1017 }, 
	{ NOTE_REST, 1525 }, 
	{ NOTE_REST, 1017 }, 
	{ NOTE_REST, 2542 }, 
	{ NOTE_REST, 1525 }, 
	{ NOTE_REST, 1525 }, 
	{ NOTE_REST, 1017 }, 
	{ NOTE_REST, 1525 }, 
	{ NOTE_REST, 1017 }, 
	{ NOTE_REST, 2542 }, 
	{ NOTE_REST, 1525 }, 
	{ NOTE_REST, 1525 }, 
	{ NOTE_REST, 1525 }, 
	{ NOTE_REST, 1356 }, 
	{ NOTE_REST, 1525 }, 
	{ NOTE_REST, 1525 }, 
	{ NOTE_REST, 1525 }, 
	{ NOTE_REST, 1356 }, 
	{ NOTE_REST, 1607 }, 
	{ NOTE_REST, 2143 }, 
	{ NOTE_REST, 1607 }, 
	{ NOTE_REST, 2143 }, 
	{ NOTE_REST, 1607 }, 
	{ NOTE_REST, 1339 }, 
	{ NOTE_REST, 1607 }, 
	{ NOTE_REST, 1875 }, 
	{ NOTE_REST, 670 }, 
	{ NOTE_REST, 670 }, 
	{ NOTE_REST, 670 }, 
	{ NOTE_REST, 804 }, 
	{ NOTE_REST, 1607 }, 
	{ NOTE_REST, 2143 }, 
	{ NOTE_REST, 1607 }, 
	{ NOTE_REST, 2143 }, 
	{ NOTE_REST, 1607 }, 
	{ NOTE_REST, 1339 }, 
	{ NOTE_REST, 1607 }, 
	{ NOTE_REST, 1875 }, 
	{ NOTE_REST, 670 }, 
	{ NOTE_REST, 670 }, 
	{ NOTE_B3, 134 }, 
	{ NOTE_AB3, 134 }, 
	{ NOTE_BB3, 134 }, 
	{ NOTE_AB3, 134 }, 
	{ NOTE_E3, 134 }, 
	{ NOTE_REST, 804 }, 
	{ NOTE_REST, 670 }, 
	{ NOTE_REST, 670 }, 
	{ NOTE_REST, 670 }, 
	{ NOTE_REST, 670 }, 
	{ NOTE_REST, 670 }, 
	{ NOTE_REST, 937 }, 
	{ NOTE_REST, 670 }, 
	{ NOTE_REST, 804 }, 
	{ NOTE_REST, 670 }, 
	{ NOTE_REST, 670 }, 
	{ NOTE_DB4, 134 }, 
	{ NOTE_BB3, 134 }, 
	{ NOTE_C4, 134 }, 
	{ NOTE_AB3, 134 }, 
	{ NOTE_F3, 134 }, 
	{ NOTE_G3, 144 }, 
	{ NOTE_AB3, 144 }, 
	{ NOTE_G3, 144 }, 
	{ NOTE_F3, 144 }, 
	{ NOTE_EB3, 144 }, 
	{ NOTE_DB3, 144 }, 
	{ NOTE_C3, 146 }, 
	{ NOTE_B2, 433 }, 
	{ NOTE_REST, 433 }, 
	{ NOTE_REST, 865 }, 
	{ NOTE_REST, 1731 }, 
	{ NOTE_REST, 1731 }, 
	{ NOTE_REST, 2019 }, 
	{ NOTE_REST, 1800 }, 
	{ NOTE_REST, 1800 }, 
	{ NOTE_REST, 1800 }, 
	{ NOTE_REST, 3000 }, 
	{ NOTE_REST, 484 }, 
	{ NOTE_E3, 242 }, 
	{ NOTE_E3, 242 }, 
	{ NOTE_E3, 242 }, 
	{ NOTE_REST, 1452 }, 
};
const uint16_t NUM_OF_NOTES4 = sizeof(melody4)/sizeof(melody4[0]);

