/*
 * Song: Game Of Thrones
 *
 *	Melody 0 | Track 1
 *	Melody 1 | Track 2
 *	Melody 2 | Violin
 *	Melody 3 | Big Wood
 *	Melody 4 | Big Wood
*/

#include <Arduino.h>
#include "notes.h"

const Note melody0[] PROGMEM = {
	{ NOTE_REST, 2118 }, 
	{ NOTE_REST, 2118 }, 
	{ NOTE_REST, 2118 }, 
	{ NOTE_REST, 2118 }, 
	{ NOTE_REST, 2118 }, 
	{ NOTE_REST, 2118 }, 
	{ NOTE_D4, 353 }, 
	{ NOTE_G3, 353 }, 
	{ NOTE_BB3, 176 }, 
	{ NOTE_C4, 176 }, 
	{ NOTE_D4, 353 }, 
	{ NOTE_G3, 353 }, 
	{ NOTE_BB3, 176 }, 
	{ NOTE_C4, 178 }, 
	{ NOTE_D4, 353 }, 
	{ NOTE_G3, 353 }, 
	{ NOTE_BB3, 176 }, 
	{ NOTE_C4, 176 }, 
	{ NOTE_D4, 353 }, 
	{ NOTE_G3, 353 }, 
	{ NOTE_BB3, 354 }, 
	{ NOTE_REST, 2118 }, 
	{ NOTE_REST, 2118 }, 
	{ NOTE_REST, 2118 }, 
	{ NOTE_REST, 2118 }, 
	{ NOTE_G4, 1059 }, 
	{ NOTE_C4, 1059 }, 
	{ NOTE_EB4, 176 }, 
	{ NOTE_F4, 176 }, 
	{ NOTE_G4, 706 }, 
	{ NOTE_C4, 706 }, 
	{ NOTE_EB4, 176 }, 
	{ NOTE_F4, 178 }, 
	{ NOTE_D4, 353 }, 
	{ NOTE_G3, 353 }, 
	{ NOTE_BB3, 176 }, 
	{ NOTE_C4, 176 }, 
	{ NOTE_D4, 353 }, 
	{ NOTE_G3, 353 }, 
	{ NOTE_BB3, 176 }, 
	{ NOTE_C4, 178 }, 
	{ NOTE_D4, 353 }, 
	{ NOTE_G3, 353 }, 
	{ NOTE_BB3, 176 }, 
	{ NOTE_C4, 176 }, 
	{ NOTE_D4, 353 }, 
	{ NOTE_G3, 353 }, 
	{ NOTE_BB3, 354 }, 
	{ NOTE_F4, 1059 }, 
	{ NOTE_BB3, 1059 }, 
	{ NOTE_EB4, 176 }, 
	{ NOTE_D4, 176 }, 
	{ NOTE_F4, 706 }, 
	{ NOTE_BB3, 706 }, 
	{ NOTE_EB4, 176 }, 
	{ NOTE_D4, 178 }, 
	{ NOTE_C4, 353 }, 
	{ NOTE_REST, 353 }, 
	{ NOTE_AB3, 176 }, 
	{ NOTE_BB3, 176 }, 
	{ NOTE_C4, 353 }, 
	{ NOTE_REST, 353 }, 
	{ NOTE_AB3, 176 }, 
	{ NOTE_BB3, 178 }, 
	{ NOTE_C4, 353 }, 
	{ NOTE_REST, 353 }, 
	{ NOTE_AB3, 176 }, 
	{ NOTE_BB3, 176 }, 
	{ NOTE_C4, 353 }, 
	{ NOTE_REST, 353 }, 
	{ NOTE_AB3, 176 }, 
	{ NOTE_BB3, 178 }, 
	{ NOTE_G5, 1059 }, 
	{ NOTE_C5, 1059 }, 
	{ NOTE_EB5, 176 }, 
	{ NOTE_F5, 176 }, 
	{ NOTE_G5, 706 }, 
	{ NOTE_C5, 706 }, 
	{ NOTE_EB5, 176 }, 
	{ NOTE_F5, 178 }, 
	{ NOTE_D5, 4236 }, 
	{ NOTE_F5, 1059 }, 
	{ NOTE_BB4, 1059 }, 
	{ NOTE_D5, 706 }, 
	{ NOTE_EB5, 353 }, 
	{ NOTE_D5, 706 }, 
	{ NOTE_BB4, 353 }, 
	{ NOTE_REST, 1059 }, 
	{ NOTE_REST, 353 }, 
	{ NOTE_REST, 353 }, 
	{ NOTE_AB5, 176 }, 
	{ NOTE_BB5, 177 }, 
	{ NOTE_C6, 353 }, 
	{ NOTE_G5, 353 }, 
	{ NOTE_AB5, 176 }, 
	{ NOTE_BB5, 176 }, 
	{ NOTE_C6, 353 }, 
	{ NOTE_G5, 353 }, 
	{ NOTE_AB5, 176 }, 
	{ NOTE_BB5, 178 }, 
	{ NOTE_C5, 353 }, 
	{ NOTE_EB4, 353 }, 
	{ NOTE_AB4, 176 }, 
	{ NOTE_BB4, 176 }, 
	{ NOTE_C5, 353 }, 
	{ NOTE_EB4, 353 }, 
	{ NOTE_BB4, 176 }, 
	{ NOTE_C5, 178 }, 
	{ NOTE_BB4, 353 }, 
	{ NOTE_EB4, 353 }, 
	{ NOTE_G4, 176 }, 
	{ NOTE_AB4, 176 }, 
	{ NOTE_BB4, 353 }, 
	{ NOTE_EB4, 353 }, 
	{ NOTE_G4, 176 }, 
	{ NOTE_BB4, 178 }, 
	{ NOTE_AB4, 353 }, 
	{ NOTE_C4, 353 }, 
	{ NOTE_F4, 176 }, 
	{ NOTE_G4, 176 }, 
	{ NOTE_AB4, 353 }, 
	{ NOTE_C4, 353 }, 
	{ NOTE_G4, 176 }, 
	{ NOTE_AB4, 178 }, 
	{ NOTE_G4, 353 }, 
	{ NOTE_C4, 353 }, 
	{ NOTE_EB4, 176 }, 
	{ NOTE_F4, 176 }, 
	{ NOTE_G4, 353 }, 
	{ NOTE_C4, 353 }, 
	{ NOTE_EB4, 176 }, 
	{ NOTE_F4, 178 }, 
	{ NOTE_EB4, 353 }, 
	{ NOTE_AB3, 353 }, 
	{ NOTE_C4, 176 }, 
	{ NOTE_D4, 176 }, 
	{ NOTE_EB4, 353 }, 
	{ NOTE_AB3, 353 }, 
	{ NOTE_C4, 176 }, 
	{ NOTE_D4, 178 }, 
	{ NOTE_EB4, 353 }, 
	{ NOTE_AB3, 353 }, 
	{ NOTE_C4, 353 }, 
	{ NOTE_F4, 353 }, 
	{ NOTE_BB3, 353 }, 
	{ NOTE_F4, 353 }, 
	{ NOTE_C4, 353 }, 
	{ NOTE_G3, 353 }, 
	{ NOTE_AB3, 176 }, 
	{ NOTE_BB3, 176 }, 
	{ NOTE_C4, 353 }, 
	{ NOTE_G3, 353 }, 
	{ NOTE_AB4, 176 }, 
	{ NOTE_BB4, 178 }, 
	{ NOTE_C5, 353 }, 
	{ NOTE_G4, 353 }, 
	{ NOTE_AB5, 176 }, 
	{ NOTE_BB5, 176 }, 
	{ NOTE_C6, 353 }, 
	{ NOTE_G5, 353 }, 
	{ NOTE_AB5, 354 }, 
	{ NOTE_C5, 1765 }, 
	{ NOTE_BB4, 176 }, 
	{ NOTE_C5, 177 }, 
	{ NOTE_BB4, 2118 }, 
	{ NOTE_AB4, 353 }, 
	{ NOTE_C4, 1412 }, 
	{ NOTE_G4, 176 }, 
	{ NOTE_AB4, 177 }, 
	{ NOTE_G4, 2118 }, 
	{ NOTE_EB4, 353 }, 
	{ NOTE_AB3, 1765 }, 
	{ NOTE_EB4, 1059 }, 
	{ NOTE_D4, 1059 }, 
	{ NOTE_C4, 706 }, 
	{ NOTE_AB5, 176 }, 
	{ NOTE_BB5, 176 }, 
	{ NOTE_C6, 353 }, 
	{ NOTE_G5, 353 }, 
	{ NOTE_AB5, 176 }, 
	{ NOTE_BB5, 178 }, 
	{ NOTE_C6, 353 }, 
	{ NOTE_G5, 353 }, 
	{ NOTE_AB5, 176 }, 
	{ NOTE_BB5, 176 }, 
	{ NOTE_C6, 353 }, 
	{ NOTE_G5, 353 }, 
	{ NOTE_AB5, 176 }, 
	{ NOTE_BB5, 178 }, 
	{ NOTE_REST, 706 }, 
	{ NOTE_AB4, 176 }, 
	{ NOTE_BB4, 176 }, 
	{ NOTE_C5, 353 }, 
	{ NOTE_G4, 353 }, 
	{ NOTE_AB4, 176 }, 
	{ NOTE_BB4, 178 }, 
	{ NOTE_C5, 353 }, 
	{ NOTE_G4, 353 }, 
	{ NOTE_AB4, 176 }, 
	{ NOTE_BB4, 176 }, 
	{ NOTE_C5, 353 }, 
	{ NOTE_REST, 353 }, 
	{ NOTE_REST, 354 }, 
};
const uint16_t NUM_OF_NOTES0 = sizeof(melody0)/sizeof(melody0[0]);

const Note melody1[] PROGMEM = {
	{ NOTE_REST, 353 }, 
	{ NOTE_REST, 353 }, 
	{ NOTE_EB4, 176 }, 
	{ NOTE_F4, 176 }, 
	{ NOTE_G4, 353 }, 
	{ NOTE_C4, 353 }, 
	{ NOTE_EB4, 176 }, 
	{ NOTE_F4, 178 }, 
	{ NOTE_G4, 353 }, 
	{ NOTE_C4, 353 }, 
	{ NOTE_EB4, 176 }, 
	{ NOTE_F4, 176 }, 
	{ NOTE_G4, 353 }, 
	{ NOTE_C4, 353 }, 
	{ NOTE_EB4, 176 }, 
	{ NOTE_F4, 178 }, 
	{ NOTE_G4, 353 }, 
	{ NOTE_C4, 353 }, 
	{ NOTE_E4, 176 }, 
	{ NOTE_F4, 176 }, 
	{ NOTE_G4, 353 }, 
	{ NOTE_C4, 353 }, 
	{ NOTE_E4, 176 }, 
	{ NOTE_F4, 178 }, 
	{ NOTE_G4, 353 }, 
	{ NOTE_C4, 353 }, 
	{ NOTE_E4, 176 }, 
	{ NOTE_F4, 176 }, 
	{ NOTE_G4, 353 }, 
	{ NOTE_C4, 353 }, 
	{ NOTE_E4, 176 }, 
	{ NOTE_F4, 178 }, 
	{ NOTE_G4, 4236 }, 
	{ NOTE_D4, 4236 }, 
	{ NOTE_F4, 4236 }, 
	{ NOTE_C4, 353 }, 
	{ NOTE_C4, 353 }, 
	{ NOTE_C4, 176 }, 
	{ NOTE_C4, 176 }, 
	{ NOTE_C4, 353 }, 
	{ NOTE_C4, 353 }, 
	{ NOTE_C4, 354 }, 
	{ NOTE_C4, 353 }, 
	{ NOTE_C4, 353 }, 
	{ NOTE_C4, 176 }, 
	{ NOTE_C4, 176 }, 
	{ NOTE_C4, 353 }, 
	{ NOTE_C4, 353 }, 
	{ NOTE_C4, 354 }, 
	{ NOTE_G4, 4236 }, 
	{ NOTE_D4, 353 }, 
	{ NOTE_D4, 353 }, 
	{ NOTE_D4, 176 }, 
	{ NOTE_D4, 176 }, 
	{ NOTE_D4, 353 }, 
	{ NOTE_D4, 353 }, 
	{ NOTE_D4, 354 }, 
	{ NOTE_D4, 353 }, 
	{ NOTE_D4, 353 }, 
	{ NOTE_D4, 176 }, 
	{ NOTE_D4, 176 }, 
	{ NOTE_D4, 353 }, 
	{ NOTE_D4, 353 }, 
	{ NOTE_D4, 354 }, 
	{ NOTE_F4, 4236 }, 
	{ NOTE_C4, 353 }, 
	{ NOTE_C4, 353 }, 
	{ NOTE_C4, 176 }, 
	{ NOTE_C4, 176 }, 
	{ NOTE_C4, 353 }, 
	{ NOTE_C4, 353 }, 
	{ NOTE_C4, 354 }, 
	{ NOTE_C4, 353 }, 
	{ NOTE_C4, 353 }, 
	{ NOTE_C4, 176 }, 
	{ NOTE_C4, 176 }, 
	{ NOTE_C4, 353 }, 
	{ NOTE_C4, 353 }, 
	{ NOTE_C4, 354 }, 
	{ NOTE_G4, 353 }, 
	{ NOTE_C4, 353 }, 
	{ NOTE_EB4, 176 }, 
	{ NOTE_F4, 176 }, 
	{ NOTE_G4, 353 }, 
	{ NOTE_C4, 353 }, 
	{ NOTE_EB4, 176 }, 
	{ NOTE_F4, 178 }, 
	{ NOTE_G4, 353 }, 
	{ NOTE_C4, 353 }, 
	{ NOTE_EB4, 176 }, 
	{ NOTE_F4, 176 }, 
	{ NOTE_G4, 353 }, 
	{ NOTE_C4, 353 }, 
	{ NOTE_EB4, 176 }, 
	{ NOTE_F4, 178 }, 
	{ NOTE_D5, 353 }, 
	{ NOTE_G4, 353 }, 
	{ NOTE_BB4, 176 }, 
	{ NOTE_C5, 176 }, 
	{ NOTE_D5, 353 }, 
	{ NOTE_G4, 353 }, 
	{ NOTE_BB4, 176 }, 
	{ NOTE_C5, 178 }, 
	{ NOTE_D5, 353 }, 
	{ NOTE_G4, 353 }, 
	{ NOTE_BB4, 176 }, 
	{ NOTE_C5, 176 }, 
	{ NOTE_D5, 353 }, 
	{ NOTE_G4, 353 }, 
	{ NOTE_BB4, 354 }, 
	{ NOTE_D5, 353 }, 
	{ NOTE_F4, 353 }, 
	{ NOTE_BB4, 176 }, 
	{ NOTE_C5, 176 }, 
	{ NOTE_D5, 353 }, 
	{ NOTE_F4, 353 }, 
	{ NOTE_BB4, 176 }, 
	{ NOTE_C5, 178 }, 
	{ NOTE_D5, 353 }, 
	{ NOTE_F4, 353 }, 
	{ NOTE_BB4, 176 }, 
	{ NOTE_C5, 176 }, 
	{ NOTE_D5, 353 }, 
	{ NOTE_F4, 353 }, 
	{ NOTE_BB4, 354 }, 
	{ NOTE_C5, 353 }, 
	{ NOTE_G4, 353 }, 
	{ NOTE_AB4, 176 }, 
	{ NOTE_BB4, 176 }, 
	{ NOTE_C5, 353 }, 
	{ NOTE_G4, 353 }, 
	{ NOTE_AB4, 176 }, 
	{ NOTE_BB4, 178 }, 
	{ NOTE_C5, 353 }, 
	{ NOTE_G4, 353 }, 
	{ NOTE_AB4, 176 }, 
	{ NOTE_BB4, 176 }, 
	{ NOTE_C5, 353 }, 
	{ NOTE_C5, 353 }, 
	{ NOTE_C5, 354 }, 
	{ NOTE_C5, 353 }, 
	{ NOTE_EB4, 353 }, 
	{ NOTE_AB4, 176 }, 
	{ NOTE_BB4, 176 }, 
	{ NOTE_C5, 353 }, 
	{ NOTE_EB4, 353 }, 
	{ NOTE_BB4, 176 }, 
	{ NOTE_C5, 178 }, 
	{ NOTE_BB4, 353 }, 
	{ NOTE_EB4, 353 }, 
	{ NOTE_G4, 176 }, 
	{ NOTE_AB4, 176 }, 
	{ NOTE_BB4, 353 }, 
	{ NOTE_EB4, 353 }, 
	{ NOTE_G4, 176 }, 
	{ NOTE_BB4, 178 }, 
	{ NOTE_AB4, 353 }, 
	{ NOTE_C4, 353 }, 
	{ NOTE_F4, 176 }, 
	{ NOTE_G4, 176 }, 
	{ NOTE_AB4, 353 }, 
	{ NOTE_C4, 353 }, 
	{ NOTE_G4, 176 }, 
	{ NOTE_AB4, 178 }, 
	{ NOTE_G4, 353 }, 
	{ NOTE_C4, 353 }, 
	{ NOTE_EB4, 176 }, 
	{ NOTE_F4, 176 }, 
	{ NOTE_G4, 353 }, 
	{ NOTE_C4, 353 }, 
	{ NOTE_EB4, 176 }, 
	{ NOTE_F4, 178 }, 
	{ NOTE_EB4, 353 }, 
	{ NOTE_AB3, 353 }, 
	{ NOTE_C4, 176 }, 
	{ NOTE_D4, 176 }, 
	{ NOTE_EB4, 353 }, 
	{ NOTE_AB3, 353 }, 
	{ NOTE_C4, 176 }, 
	{ NOTE_D4, 178 }, 
	{ NOTE_EB4, 353 }, 
	{ NOTE_AB3, 353 }, 
	{ NOTE_C4, 353 }, 
	{ NOTE_F4, 353 }, 
	{ NOTE_BB3, 353 }, 
	{ NOTE_F4, 353 }, 
	{ NOTE_C4, 353 }, 
	{ NOTE_G3, 353 }, 
	{ NOTE_AB3, 176 }, 
	{ NOTE_BB3, 176 }, 
	{ NOTE_C4, 353 }, 
	{ NOTE_G3, 353 }, 
	{ NOTE_AB3, 176 }, 
	{ NOTE_BB3, 178 }, 
	{ NOTE_C4, 353 }, 
	{ NOTE_G3, 353 }, 
	{ NOTE_AB3, 176 }, 
	{ NOTE_BB3, 176 }, 
	{ NOTE_C4, 353 }, 
	{ NOTE_G3, 353 }, 
	{ NOTE_AB3, 354 }, 
	{ NOTE_C5, 353 }, 
	{ NOTE_EB4, 353 }, 
	{ NOTE_AB4, 176 }, 
	{ NOTE_BB4, 176 }, 
	{ NOTE_C5, 353 }, 
	{ NOTE_EB4, 353 }, 
	{ NOTE_BB4, 176 }, 
	{ NOTE_C5, 178 }, 
	{ NOTE_BB4, 353 }, 
	{ NOTE_EB4, 353 }, 
	{ NOTE_G4, 176 }, 
	{ NOTE_AB4, 176 }, 
	{ NOTE_BB4, 353 }, 
	{ NOTE_EB4, 353 }, 
	{ NOTE_G4, 176 }, 
	{ NOTE_BB4, 178 }, 
	{ NOTE_AB4, 353 }, 
	{ NOTE_C4, 353 }, 
	{ NOTE_F4, 176 }, 
	{ NOTE_G4, 176 }, 
	{ NOTE_AB4, 353 }, 
	{ NOTE_C4, 353 }, 
	{ NOTE_G4, 176 }, 
	{ NOTE_AB4, 178 }, 
	{ NOTE_G4, 353 }, 
	{ NOTE_C4, 353 }, 
	{ NOTE_EB4, 176 }, 
	{ NOTE_F4, 176 }, 
	{ NOTE_G4, 353 }, 
	{ NOTE_C4, 353 }, 
	{ NOTE_EB4, 176 }, 
	{ NOTE_F4, 178 }, 
	{ NOTE_EB4, 353 }, 
	{ NOTE_AB3, 353 }, 
	{ NOTE_C4, 176 }, 
	{ NOTE_D4, 176 }, 
	{ NOTE_EB4, 353 }, 
	{ NOTE_AB3, 353 }, 
	{ NOTE_C4, 176 }, 
	{ NOTE_D4, 178 }, 
	{ NOTE_EB4, 353 }, 
	{ NOTE_AB3, 353 }, 
	{ NOTE_C4, 353 }, 
	{ NOTE_F4, 353 }, 
	{ NOTE_BB3, 353 }, 
	{ NOTE_D4, 353 }, 
	{ NOTE_C5, 353 }, 
	{ NOTE_G4, 353 }, 
	{ NOTE_AB4, 176 }, 
	{ NOTE_BB4, 176 }, 
	{ NOTE_C5, 353 }, 
	{ NOTE_G4, 353 }, 
	{ NOTE_AB4, 176 }, 
	{ NOTE_BB4, 178 }, 
	{ NOTE_C5, 353 }, 
	{ NOTE_G4, 353 }, 
	{ NOTE_AB4, 176 }, 
	{ NOTE_BB4, 176 }, 
	{ NOTE_C5, 353 }, 
	{ NOTE_G4, 353 }, 
	{ NOTE_AB4, 176 }, 
	{ NOTE_BB4, 178 }, 
	{ NOTE_C4, 3530 }, 
	{ NOTE_REST, 353 }, 
	{ NOTE_REST, 353 }, 
};
const uint16_t NUM_OF_NOTES1 = sizeof(melody1)/sizeof(melody1[0]);

const Note melody2[] PROGMEM = {
	{ NOTE_C4, 353 }, 
	{ NOTE_C4, 353 }, 
	{ NOTE_C4, 176 }, 
	{ NOTE_C4, 176 }, 
	{ NOTE_C4, 353 }, 
	{ NOTE_C4, 353 }, 
	{ NOTE_C4, 354 }, 
	{ NOTE_C4, 353 }, 
	{ NOTE_C4, 353 }, 
	{ NOTE_C4, 176 }, 
	{ NOTE_C4, 176 }, 
	{ NOTE_C4, 353 }, 
	{ NOTE_C4, 353 }, 
	{ NOTE_C4, 354 }, 
	{ NOTE_C4, 353 }, 
	{ NOTE_C4, 353 }, 
	{ NOTE_C4, 176 }, 
	{ NOTE_C4, 176 }, 
	{ NOTE_C4, 353 }, 
	{ NOTE_C4, 353 }, 
	{ NOTE_C4, 354 }, 
	{ NOTE_C4, 353 }, 
	{ NOTE_C4, 353 }, 
	{ NOTE_C4, 176 }, 
	{ NOTE_C4, 176 }, 
	{ NOTE_C4, 353 }, 
	{ NOTE_C4, 353 }, 
	{ NOTE_C4, 354 }, 
	{ NOTE_C4, 353 }, 
	{ NOTE_C4, 353 }, 
	{ NOTE_C4, 176 }, 
	{ NOTE_C4, 176 }, 
	{ NOTE_C4, 353 }, 
	{ NOTE_C4, 353 }, 
	{ NOTE_C4, 354 }, 
	{ NOTE_C4, 353 }, 
	{ NOTE_C4, 353 }, 
	{ NOTE_C4, 176 }, 
	{ NOTE_C4, 176 }, 
	{ NOTE_C4, 353 }, 
	{ NOTE_C4, 353 }, 
	{ NOTE_C4, 354 }, 
	{ NOTE_BB3, 353 }, 
	{ NOTE_BB3, 353 }, 
	{ NOTE_BB3, 176 }, 
	{ NOTE_BB3, 176 }, 
	{ NOTE_BB3, 353 }, 
	{ NOTE_BB3, 353 }, 
	{ NOTE_BB3, 354 }, 
	{ NOTE_BB3, 353 }, 
	{ NOTE_BB3, 353 }, 
	{ NOTE_BB3, 176 }, 
	{ NOTE_BB3, 176 }, 
	{ NOTE_BB3, 353 }, 
	{ NOTE_BB3, 353 }, 
	{ NOTE_BB3, 354 }, 
	{ NOTE_BB3, 353 }, 
	{ NOTE_BB3, 353 }, 
	{ NOTE_BB3, 176 }, 
	{ NOTE_BB3, 176 }, 
	{ NOTE_BB3, 353 }, 
	{ NOTE_BB3, 353 }, 
	{ NOTE_BB3, 354 }, 
	{ NOTE_BB3, 353 }, 
	{ NOTE_BB3, 353 }, 
	{ NOTE_BB3, 176 }, 
	{ NOTE_BB3, 176 }, 
	{ NOTE_BB3, 353 }, 
	{ NOTE_BB3, 353 }, 
	{ NOTE_BB3, 354 }, 
	{ NOTE_C4, 353 }, 
	{ NOTE_F3, 353 }, 
	{ NOTE_AB3, 176 }, 
	{ NOTE_BB3, 176 }, 
	{ NOTE_C4, 353 }, 
	{ NOTE_F3, 353 }, 
	{ NOTE_AB3, 176 }, 
	{ NOTE_BB3, 178 }, 
	{ NOTE_C4, 353 }, 
	{ NOTE_F3, 353 }, 
	{ NOTE_AB3, 176 }, 
	{ NOTE_BB3, 176 }, 
	{ NOTE_C4, 353 }, 
	{ NOTE_F3, 353 }, 
	{ NOTE_AB3, 354 }, 
	{ NOTE_C4, 353 }, 
	{ NOTE_C4, 353 }, 
	{ NOTE_C4, 176 }, 
	{ NOTE_C4, 176 }, 
	{ NOTE_C4, 353 }, 
	{ NOTE_C4, 353 }, 
	{ NOTE_C4, 354 }, 
	{ NOTE_C4, 353 }, 
	{ NOTE_C4, 353 }, 
	{ NOTE_C4, 176 }, 
	{ NOTE_C4, 176 }, 
	{ NOTE_C4, 353 }, 
	{ NOTE_C4, 353 }, 
	{ NOTE_C4, 354 }, 
	{ NOTE_D4, 353 }, 
	{ NOTE_G3, 353 }, 
	{ NOTE_BB3, 176 }, 
	{ NOTE_C4, 176 }, 
	{ NOTE_D4, 353 }, 
	{ NOTE_G3, 353 }, 
	{ NOTE_BB3, 176 }, 
	{ NOTE_C4, 178 }, 
	{ NOTE_D4, 353 }, 
	{ NOTE_G3, 353 }, 
	{ NOTE_BB3, 176 }, 
	{ NOTE_C4, 176 }, 
	{ NOTE_D4, 353 }, 
	{ NOTE_G3, 353 }, 
	{ NOTE_BB3, 354 }, 
	{ NOTE_BB3, 353 }, 
	{ NOTE_BB3, 353 }, 
	{ NOTE_BB3, 176 }, 
	{ NOTE_BB3, 176 }, 
	{ NOTE_BB3, 353 }, 
	{ NOTE_BB3, 353 }, 
	{ NOTE_BB3, 354 }, 
	{ NOTE_BB3, 353 }, 
	{ NOTE_BB3, 353 }, 
	{ NOTE_BB3, 176 }, 
	{ NOTE_BB3, 176 }, 
	{ NOTE_BB3, 353 }, 
	{ NOTE_BB3, 353 }, 
	{ NOTE_BB3, 354 }, 
	{ NOTE_C4, 353 }, 
	{ NOTE_F3, 353 }, 
	{ NOTE_AB3, 176 }, 
	{ NOTE_BB3, 176 }, 
	{ NOTE_C4, 353 }, 
	{ NOTE_F3, 353 }, 
	{ NOTE_AB3, 176 }, 
	{ NOTE_BB3, 178 }, 
	{ NOTE_C4, 353 }, 
	{ NOTE_F3, 353 }, 
	{ NOTE_AB3, 176 }, 
	{ NOTE_BB3, 176 }, 
	{ NOTE_C4, 353 }, 
	{ NOTE_F3, 353 }, 
	{ NOTE_AB3, 354 }, 
	{ NOTE_G4, 353 }, 
	{ NOTE_C4, 353 }, 
	{ NOTE_EB4, 176 }, 
	{ NOTE_F4, 176 }, 
	{ NOTE_G4, 353 }, 
	{ NOTE_C4, 353 }, 
	{ NOTE_EB4, 176 }, 
	{ NOTE_F4, 178 }, 
	{ NOTE_G4, 353 }, 
	{ NOTE_C4, 353 }, 
	{ NOTE_EB4, 176 }, 
	{ NOTE_F4, 176 }, 
	{ NOTE_G4, 353 }, 
	{ NOTE_C4, 353 }, 
	{ NOTE_EB4, 176 }, 
	{ NOTE_F4, 178 }, 
	{ NOTE_D5, 353 }, 
	{ NOTE_G4, 353 }, 
	{ NOTE_BB4, 176 }, 
	{ NOTE_C5, 176 }, 
	{ NOTE_D5, 353 }, 
	{ NOTE_G4, 353 }, 
	{ NOTE_BB4, 176 }, 
	{ NOTE_C5, 178 }, 
	{ NOTE_D5, 353 }, 
	{ NOTE_G4, 353 }, 
	{ NOTE_BB4, 176 }, 
	{ NOTE_C5, 176 }, 
	{ NOTE_D5, 353 }, 
	{ NOTE_G4, 353 }, 
	{ NOTE_BB4, 354 }, 
	{ NOTE_D5, 353 }, 
	{ NOTE_F4, 353 }, 
	{ NOTE_BB4, 176 }, 
	{ NOTE_C5, 176 }, 
	{ NOTE_D5, 353 }, 
	{ NOTE_F4, 353 }, 
	{ NOTE_BB4, 176 }, 
	{ NOTE_C5, 178 }, 
	{ NOTE_D5, 353 }, 
	{ NOTE_F4, 353 }, 
	{ NOTE_BB4, 176 }, 
	{ NOTE_C5, 176 }, 
	{ NOTE_D5, 353 }, 
	{ NOTE_F4, 353 }, 
	{ NOTE_BB4, 354 }, 
	{ NOTE_C5, 353 }, 
	{ NOTE_G4, 353 }, 
	{ NOTE_AB4, 176 }, 
	{ NOTE_BB4, 176 }, 
	{ NOTE_C5, 353 }, 
	{ NOTE_G4, 353 }, 
	{ NOTE_AB4, 176 }, 
	{ NOTE_BB4, 178 }, 
	{ NOTE_C5, 353 }, 
	{ NOTE_G4, 353 }, 
	{ NOTE_AB4, 176 }, 
	{ NOTE_BB4, 176 }, 
	{ NOTE_C4, 353 }, 
	{ NOTE_C4, 353 }, 
	{ NOTE_C4, 354 }, 
	{ NOTE_C5, 1765 }, 
	{ NOTE_BB4, 176 }, 
	{ NOTE_C5, 177 }, 
	{ NOTE_BB4, 2118 }, 
	{ NOTE_AB4, 353 }, 
	{ NOTE_C4, 1412 }, 
	{ NOTE_G4, 176 }, 
	{ NOTE_AB4, 177 }, 
	{ NOTE_G4, 2118 }, 
	{ NOTE_EB4, 353 }, 
	{ NOTE_AB3, 1765 }, 
	{ NOTE_EB4, 1059 }, 
	{ NOTE_F4, 1059 }, 
	{ NOTE_G4, 4236 }, 
	{ NOTE_C5, 353 }, 
	{ NOTE_EB4, 353 }, 
	{ NOTE_AB4, 176 }, 
	{ NOTE_BB4, 176 }, 
	{ NOTE_C5, 353 }, 
	{ NOTE_EB4, 353 }, 
	{ NOTE_BB4, 176 }, 
	{ NOTE_C5, 178 }, 
	{ NOTE_BB4, 353 }, 
	{ NOTE_EB4, 353 }, 
	{ NOTE_G4, 176 }, 
	{ NOTE_AB4, 176 }, 
	{ NOTE_BB4, 353 }, 
	{ NOTE_EB4, 353 }, 
	{ NOTE_G4, 176 }, 
	{ NOTE_BB4, 178 }, 
	{ NOTE_AB4, 353 }, 
	{ NOTE_C4, 353 }, 
	{ NOTE_F4, 176 }, 
	{ NOTE_G4, 176 }, 
	{ NOTE_AB4, 353 }, 
	{ NOTE_C4, 353 }, 
	{ NOTE_G4, 176 }, 
	{ NOTE_AB4, 178 }, 
	{ NOTE_G4, 353 }, 
	{ NOTE_C4, 353 }, 
	{ NOTE_EB4, 176 }, 
	{ NOTE_F4, 176 }, 
	{ NOTE_G4, 353 }, 
	{ NOTE_C4, 353 }, 
	{ NOTE_EB4, 176 }, 
	{ NOTE_F4, 178 }, 
	{ NOTE_EB4, 353 }, 
	{ NOTE_AB3, 353 }, 
	{ NOTE_C4, 176 }, 
	{ NOTE_D4, 176 }, 
	{ NOTE_EB4, 353 }, 
	{ NOTE_AB3, 353 }, 
	{ NOTE_C4, 176 }, 
	{ NOTE_D4, 178 }, 
	{ NOTE_EB4, 353 }, 
	{ NOTE_AB3, 353 }, 
	{ NOTE_C4, 353 }, 
	{ NOTE_F4, 353 }, 
	{ NOTE_BB3, 353 }, 
	{ NOTE_D4, 353 }, 
	{ NOTE_C4, 353 }, 
	{ NOTE_G3, 353 }, 
	{ NOTE_AB3, 176 }, 
	{ NOTE_BB3, 176 }, 
	{ NOTE_C4, 353 }, 
	{ NOTE_G3, 353 }, 
	{ NOTE_AB3, 176 }, 
	{ NOTE_BB3, 178 }, 
	{ NOTE_C4, 353 }, 
	{ NOTE_G3, 353 }, 
	{ NOTE_AB3, 176 }, 
	{ NOTE_BB3, 176 }, 
	{ NOTE_C4, 353 }, 
	{ NOTE_G3, 353 }, 
	{ NOTE_AB3, 176 }, 
	{ NOTE_BB3, 178 }, 
	{ NOTE_C4, 3530 }, 
	{ NOTE_REST, 353 }, 
	{ NOTE_REST, 353 }, 
};
const uint16_t NUM_OF_NOTES2 = sizeof(melody2)/sizeof(melody2[0]);

const Note melody3[] PROGMEM = {
	{ NOTE_C2, 4236 }, 
	{ NOTE_C2, 4236 }, 
	{ NOTE_G3, 1059 }, 
	{ NOTE_C3, 1059 }, 
	{ NOTE_EB3, 176 }, 
	{ NOTE_F3, 176 }, 
	{ NOTE_G3, 706 }, 
	{ NOTE_C3, 706 }, 
	{ NOTE_EB3, 176 }, 
	{ NOTE_F3, 178 }, 
	{ NOTE_D3, 4236 }, 
	{ NOTE_F3, 1059 }, 
	{ NOTE_BB2, 1059 }, 
	{ NOTE_EB3, 176 }, 
	{ NOTE_D3, 176 }, 
	{ NOTE_F3, 706 }, 
	{ NOTE_BB2, 1060 }, 
	{ NOTE_EB3, 176 }, 
	{ NOTE_D3, 176 }, 
	{ NOTE_C3, 3884 }, 
	{ NOTE_G3, 1059 }, 
	{ NOTE_C3, 1059 }, 
	{ NOTE_EB3, 176 }, 
	{ NOTE_F3, 176 }, 
	{ NOTE_G3, 706 }, 
	{ NOTE_C3, 706 }, 
	{ NOTE_EB3, 176 }, 
	{ NOTE_F3, 178 }, 
	{ NOTE_D3, 4236 }, 
	{ NOTE_F3, 1059 }, 
	{ NOTE_BB2, 1059 }, 
	{ NOTE_EB3, 176 }, 
	{ NOTE_D3, 176 }, 
	{ NOTE_F3, 706 }, 
	{ NOTE_BB2, 706 }, 
	{ NOTE_EB3, 176 }, 
	{ NOTE_D3, 178 }, 
	{ NOTE_C3, 4236 }, 
	{ NOTE_G3, 1059 }, 
	{ NOTE_C3, 1059 }, 
	{ NOTE_EB3, 176 }, 
	{ NOTE_F3, 176 }, 
	{ NOTE_G3, 706 }, 
	{ NOTE_C3, 706 }, 
	{ NOTE_EB3, 176 }, 
	{ NOTE_F3, 178 }, 
	{ NOTE_D3, 4236 }, 
	{ NOTE_F3, 1059 }, 
	{ NOTE_BB2, 1059 }, 
	{ NOTE_D3, 706 }, 
	{ NOTE_EB3, 353 }, 
	{ NOTE_D3, 706 }, 
	{ NOTE_BB2, 353 }, 
	{ NOTE_C3, 2118 }, 
	{ NOTE_C3, 1059 }, 
	{ NOTE_C3, 353 }, 
	{ NOTE_C3, 353 }, 
	{ NOTE_C3, 353 }, 
	{ NOTE_C4, 1765 }, 
	{ NOTE_BB3, 176 }, 
	{ NOTE_C4, 177 }, 
	{ NOTE_BB3, 2118 }, 
	{ NOTE_AB3, 353 }, 
	{ NOTE_C3, 1412 }, 
	{ NOTE_G3, 176 }, 
	{ NOTE_AB3, 177 }, 
	{ NOTE_G3, 2118 }, 
	{ NOTE_EB3, 353 }, 
	{ NOTE_AB2, 1765 }, 
	{ NOTE_EB3, 1059 }, 
	{ NOTE_F3, 1059 }, 
	{ NOTE_G3, 4236 }, 
	{ NOTE_C4, 1765 }, 
	{ NOTE_BB3, 176 }, 
	{ NOTE_C4, 177 }, 
	{ NOTE_BB3, 2118 }, 
	{ NOTE_AB3, 353 }, 
	{ NOTE_C3, 1412 }, 
	{ NOTE_G3, 176 }, 
	{ NOTE_AB3, 177 }, 
	{ NOTE_G3, 2118 }, 
	{ NOTE_EB3, 353 }, 
	{ NOTE_AB2, 1765 }, 
	{ NOTE_EB3, 1059 }, 
	{ NOTE_D3, 1059 }, 
	{ NOTE_C3, 4236 }, 
	{ NOTE_C3, 3530 }, 
	{ NOTE_REST, 353 }, 
	{ NOTE_REST, 353 }, 
};
const uint16_t NUM_OF_NOTES3 = sizeof(melody3)/sizeof(melody3[0]);

const Note melody4[] PROGMEM = {
	{ NOTE_C3, 4236 }, 
	{ NOTE_C3, 4236 }, 
	{ NOTE_G4, 1059 }, 
	{ NOTE_C4, 1059 }, 
	{ NOTE_EB4, 176 }, 
	{ NOTE_F4, 176 }, 
	{ NOTE_G4, 706 }, 
	{ NOTE_C4, 706 }, 
	{ NOTE_EB4, 176 }, 
	{ NOTE_F4, 178 }, 
	{ NOTE_D4, 4236 }, 
	{ NOTE_F4, 1059 }, 
	{ NOTE_BB3, 1059 }, 
	{ NOTE_EB4, 176 }, 
	{ NOTE_D4, 176 }, 
	{ NOTE_F4, 706 }, 
	{ NOTE_BB3, 1060 }, 
	{ NOTE_EB4, 176 }, 
	{ NOTE_D4, 176 }, 
	{ NOTE_C4, 3884 }, 
	{ NOTE_G4, 1059 }, 
	{ NOTE_C4, 1059 }, 
	{ NOTE_EB4, 176 }, 
	{ NOTE_F4, 176 }, 
	{ NOTE_G4, 706 }, 
	{ NOTE_C4, 706 }, 
	{ NOTE_EB4, 176 }, 
	{ NOTE_F4, 178 }, 
	{ NOTE_D4, 4236 }, 
	{ NOTE_F4, 1059 }, 
	{ NOTE_BB3, 1059 }, 
	{ NOTE_EB4, 176 }, 
	{ NOTE_D4, 176 }, 
	{ NOTE_F4, 706 }, 
	{ NOTE_BB3, 706 }, 
	{ NOTE_EB4, 176 }, 
	{ NOTE_D4, 178 }, 
	{ NOTE_C4, 4236 }, 
	{ NOTE_G4, 1059 }, 
	{ NOTE_C4, 1059 }, 
	{ NOTE_EB4, 176 }, 
	{ NOTE_F4, 176 }, 
	{ NOTE_G4, 706 }, 
	{ NOTE_C4, 706 }, 
	{ NOTE_EB4, 176 }, 
	{ NOTE_F4, 178 }, 
	{ NOTE_D4, 4236 }, 
	{ NOTE_F4, 1059 }, 
	{ NOTE_BB3, 1059 }, 
	{ NOTE_D4, 706 }, 
	{ NOTE_EB4, 353 }, 
	{ NOTE_D4, 706 }, 
	{ NOTE_BB3, 353 }, 
	{ NOTE_C4, 2118 }, 
	{ NOTE_C4, 1059 }, 
	{ NOTE_C4, 353 }, 
	{ NOTE_C4, 353 }, 
	{ NOTE_C4, 353 }, 
	{ NOTE_C5, 1765 }, 
	{ NOTE_BB4, 176 }, 
	{ NOTE_C5, 177 }, 
	{ NOTE_BB4, 2118 }, 
	{ NOTE_AB4, 353 }, 
	{ NOTE_C4, 1412 }, 
	{ NOTE_G4, 176 }, 
	{ NOTE_AB4, 177 }, 
	{ NOTE_G4, 2118 }, 
	{ NOTE_EB4, 353 }, 
	{ NOTE_AB3, 1765 }, 
	{ NOTE_EB4, 1059 }, 
	{ NOTE_F4, 1059 }, 
	{ NOTE_G4, 4236 }, 
	{ NOTE_C5, 1765 }, 
	{ NOTE_BB4, 176 }, 
	{ NOTE_C5, 177 }, 
	{ NOTE_BB4, 2118 }, 
	{ NOTE_AB4, 353 }, 
	{ NOTE_C4, 1412 }, 
	{ NOTE_G4, 176 }, 
	{ NOTE_AB4, 177 }, 
	{ NOTE_G4, 2118 }, 
	{ NOTE_EB4, 353 }, 
	{ NOTE_AB3, 1765 }, 
	{ NOTE_EB4, 1059 }, 
	{ NOTE_D4, 1059 }, 
	{ NOTE_C4, 4236 }, 
	{ NOTE_C4, 3530 }, 
	{ NOTE_REST, 353 }, 
	{ NOTE_REST, 353 }, 
};
const uint16_t NUM_OF_NOTES4 = sizeof(melody4)/sizeof(melody4[0]);

