/*
 * Song: The Trooper by Iron Maiden
 *
 *	Melody 0 | Guitar 1
 *	Melody 1 | Guitar 1
 *	Melody 2 | Guitar 2
 *	Melody 3 | Guitar 2
 *	Melody 4 | Bass
*/

#include <Arduino.h>
#include "notes.h"

const Note melody0[] PROGMEM = {
	{ NOTE_REST, 1500 }, 
	{ NOTE_E4, 188 }, 
	{ NOTE_E4, 188 }, 
	{ NOTE_E4, 94 }, 
	{ NOTE_D4, 94 }, 
	{ NOTE_B3, 188 }, 
	{ NOTE_D4, 188 }, 
	{ NOTE_D4, 188 }, 
	{ NOTE_D4, 94 }, 
	{ NOTE_C4, 94 }, 
	{ NOTE_A3, 184 }, 
	{ NOTE_C4, 188 }, 
	{ NOTE_C4, 188 }, 
	{ NOTE_C4, 94 }, 
	{ NOTE_B3, 94 }, 
	{ NOTE_G3, 188 }, 
	{ NOTE_D4, 188 }, 
	{ NOTE_G4, 188 }, 
	{ NOTE_D4, 188 }, 
	{ NOTE_E4, 372 }, 
	{ NOTE_E4, 188 }, 
	{ NOTE_E4, 94 }, 
	{ NOTE_D4, 94 }, 
	{ NOTE_B3, 188 }, 
	{ NOTE_D4, 188 }, 
	{ NOTE_D4, 188 }, 
	{ NOTE_D4, 94 }, 
	{ NOTE_C4, 94 }, 
	{ NOTE_A3, 184 }, 
	{ NOTE_C4, 188 }, 
	{ NOTE_C4, 188 }, 
	{ NOTE_C4, 94 }, 
	{ NOTE_B3, 94 }, 
	{ NOTE_G3, 188 }, 
	{ NOTE_D4, 188 }, 
	{ NOTE_G4, 188 }, 
	{ NOTE_D4, 188 }, 
	{ NOTE_E4, 372 }, 
	{ NOTE_E4, 188 }, 
	{ NOTE_E4, 94 }, 
	{ NOTE_D4, 94 }, 
	{ NOTE_B3, 188 }, 
	{ NOTE_D4, 188 }, 
	{ NOTE_D4, 188 }, 
	{ NOTE_D4, 94 }, 
	{ NOTE_C4, 94 }, 
	{ NOTE_A3, 184 }, 
	{ NOTE_C4, 188 }, 
	{ NOTE_C4, 188 }, 
	{ NOTE_C4, 94 }, 
	{ NOTE_B3, 94 }, 
	{ NOTE_G3, 188 }, 
	{ NOTE_D4, 188 }, 
	{ NOTE_G4, 188 }, 
	{ NOTE_D4, 188 }, 
	{ NOTE_E4, 184 }, 
	{ NOTE_E4, 188 }, 
	{ NOTE_E4, 188 }, 
	{ NOTE_E4, 94 }, 
	{ NOTE_D4, 94 }, 
	{ NOTE_B3, 188 }, 
	{ NOTE_D4, 188 }, 
	{ NOTE_D4, 188 }, 
	{ NOTE_D4, 94 }, 
	{ NOTE_C4, 94 }, 
	{ NOTE_A3, 184 }, 
	{ NOTE_C4, 188 }, 
	{ NOTE_C4, 188 }, 
	{ NOTE_C4, 94 }, 
	{ NOTE_B3, 94 }, 
	{ NOTE_G3, 188 }, 
	{ NOTE_D4, 188 }, 
	{ NOTE_G4, 188 }, 
	{ NOTE_D4, 188 }, 
	{ NOTE_E4, 184 }, 
	{ NOTE_E4, 188 }, 
	{ NOTE_G5, 188 }, 
	{ NOTE_FS5, 62 }, 
	{ NOTE_G5, 62 }, 
	{ NOTE_FS5, 62 }, 
	{ NOTE_G5, 62 }, 
	{ NOTE_FS5, 62 }, 
	{ NOTE_G5, 62 }, 
	{ NOTE_B5, 188 }, 
	{ NOTE_G5, 188 }, 
	{ NOTE_FS5, 62 }, 
	{ NOTE_G5, 62 }, 
	{ NOTE_FS5, 62 }, 
	{ NOTE_G5, 62 }, 
	{ NOTE_FS5, 62 }, 
	{ NOTE_G5, 66 }, 
	{ NOTE_G5, 188 }, 
	{ NOTE_E5, 188 }, 
	{ NOTE_E5, 375 }, 
	{ NOTE_D5, 188 }, 
	{ NOTE_G5, 188 }, 
	{ NOTE_D5, 188 }, 
	{ NOTE_E5, 373 }, 
	{ NOTE_G5, 188 }, 
	{ NOTE_FS5, 62 }, 
	{ NOTE_G5, 62 }, 
	{ NOTE_FS5, 62 }, 
	{ NOTE_G5, 62 }, 
	{ NOTE_FS5, 62 }, 
	{ NOTE_G5, 62 }, 
	{ NOTE_B5, 188 }, 
	{ NOTE_G5, 188 }, 
	{ NOTE_FS5, 62 }, 
	{ NOTE_G5, 62 }, 
	{ NOTE_FS5, 62 }, 
	{ NOTE_G5, 62 }, 
	{ NOTE_FS5, 62 }, 
	{ NOTE_G5, 66 }, 
	{ NOTE_G5, 188 }, 
	{ NOTE_E5, 188 }, 
	{ NOTE_E5, 375 }, 
	{ NOTE_D5, 188 }, 
	{ NOTE_G5, 188 }, 
	{ NOTE_D5, 188 }, 
	{ NOTE_E5, 373 }, 
	{ NOTE_G5, 188 }, 
	{ NOTE_FS5, 62 }, 
	{ NOTE_G5, 62 }, 
	{ NOTE_FS5, 62 }, 
	{ NOTE_G5, 62 }, 
	{ NOTE_FS5, 62 }, 
	{ NOTE_G5, 62 }, 
	{ NOTE_B5, 188 }, 
	{ NOTE_G5, 188 }, 
	{ NOTE_FS5, 62 }, 
	{ NOTE_G5, 62 }, 
	{ NOTE_FS5, 62 }, 
	{ NOTE_G5, 62 }, 
	{ NOTE_FS5, 62 }, 
	{ NOTE_G5, 66 }, 
	{ NOTE_G5, 188 }, 
	{ NOTE_E5, 188 }, 
	{ NOTE_E5, 375 }, 
	{ NOTE_D5, 188 }, 
	{ NOTE_G5, 188 }, 
	{ NOTE_D5, 188 }, 
	{ NOTE_E5, 373 }, 
	{ NOTE_G5, 188 }, 
	{ NOTE_FS5, 62 }, 
	{ NOTE_G5, 62 }, 
	{ NOTE_FS5, 62 }, 
	{ NOTE_G5, 62 }, 
	{ NOTE_FS5, 62 }, 
	{ NOTE_G5, 62 }, 
	{ NOTE_B5, 188 }, 
	{ NOTE_G5, 188 }, 
	{ NOTE_FS5, 62 }, 
	{ NOTE_G5, 62 }, 
	{ NOTE_FS5, 62 }, 
	{ NOTE_G5, 62 }, 
	{ NOTE_FS5, 62 }, 
	{ NOTE_G5, 66 }, 
	{ NOTE_G5, 188 }, 
	{ NOTE_E5, 188 }, 
	{ NOTE_E5, 375 }, 
	{ NOTE_D5, 188 }, 
	{ NOTE_G5, 188 }, 
	{ NOTE_D5, 188 }, 
	{ NOTE_E5, 373 }, 
	{ NOTE_G5, 188 }, 
	{ NOTE_FS5, 62 }, 
	{ NOTE_G5, 62 }, 
	{ NOTE_FS5, 62 }, 
	{ NOTE_G5, 62 }, 
	{ NOTE_FS5, 62 }, 
	{ NOTE_G5, 62 }, 
	{ NOTE_B5, 188 }, 
	{ NOTE_G5, 188 }, 
	{ NOTE_FS5, 62 }, 
	{ NOTE_G5, 62 }, 
	{ NOTE_FS5, 62 }, 
	{ NOTE_G5, 62 }, 
	{ NOTE_FS5, 62 }, 
	{ NOTE_G5, 66 }, 
	{ NOTE_G5, 188 }, 
	{ NOTE_E5, 188 }, 
	{ NOTE_E5, 375 }, 
	{ NOTE_D5, 188 }, 
	{ NOTE_G5, 188 }, 
	{ NOTE_D5, 188 }, 
	{ NOTE_E5, 373 }, 
	{ NOTE_G5, 188 }, 
	{ NOTE_FS5, 62 }, 
	{ NOTE_G5, 62 }, 
	{ NOTE_FS5, 62 }, 
	{ NOTE_G5, 62 }, 
	{ NOTE_FS5, 62 }, 
	{ NOTE_G5, 62 }, 
	{ NOTE_B5, 188 }, 
	{ NOTE_G5, 188 }, 
	{ NOTE_FS5, 62 }, 
	{ NOTE_G5, 62 }, 
	{ NOTE_FS5, 62 }, 
	{ NOTE_G5, 62 }, 
	{ NOTE_FS5, 62 }, 
	{ NOTE_G5, 66 }, 
	{ NOTE_G5, 188 }, 
	{ NOTE_E5, 188 }, 
	{ NOTE_E5, 375 }, 
	{ NOTE_D5, 188 }, 
	{ NOTE_G5, 188 }, 
	{ NOTE_D5, 188 }, 
	{ NOTE_E5, 373 }, 
	{ NOTE_G5, 188 }, 
	{ NOTE_FS5, 62 }, 
	{ NOTE_G5, 62 }, 
	{ NOTE_FS5, 62 }, 
	{ NOTE_G5, 62 }, 
	{ NOTE_FS5, 62 }, 
	{ NOTE_G5, 62 }, 
	{ NOTE_B5, 188 }, 
	{ NOTE_G5, 188 }, 
	{ NOTE_FS5, 62 }, 
	{ NOTE_G5, 62 }, 
	{ NOTE_FS5, 62 }, 
	{ NOTE_G5, 62 }, 
	{ NOTE_FS5, 62 }, 
	{ NOTE_G5, 66 }, 
	{ NOTE_G5, 188 }, 
	{ NOTE_E5, 188 }, 
	{ NOTE_E5, 375 }, 
	{ NOTE_D5, 188 }, 
	{ NOTE_G5, 188 }, 
	{ NOTE_D5, 188 }, 
	{ NOTE_E5, 373 }, 
	{ NOTE_G5, 188 }, 
	{ NOTE_FS5, 62 }, 
	{ NOTE_G5, 62 }, 
	{ NOTE_FS5, 62 }, 
	{ NOTE_G5, 62 }, 
	{ NOTE_FS5, 62 }, 
	{ NOTE_G5, 62 }, 
	{ NOTE_B5, 188 }, 
	{ NOTE_G5, 188 }, 
	{ NOTE_FS5, 62 }, 
	{ NOTE_G5, 62 }, 
	{ NOTE_FS5, 62 }, 
	{ NOTE_G5, 62 }, 
	{ NOTE_FS5, 62 }, 
	{ NOTE_G5, 66 }, 
	{ NOTE_G5, 188 }, 
	{ NOTE_E5, 188 }, 
	{ NOTE_E5, 375 }, 
	{ NOTE_D4, 188 }, 
	{ NOTE_G4, 188 }, 
	{ NOTE_D4, 188 }, 
	{ NOTE_E4, 373 }, 
	{ NOTE_REST, 750 }, 
	{ NOTE_REST, 375 }, 
	{ NOTE_REST, 187 }, 
	{ NOTE_REST, 750 }, 
	{ NOTE_D4, 188 }, 
	{ NOTE_G4, 188 }, 
	{ NOTE_D4, 188 }, 
	{ NOTE_E4, 374 }, 
	{ NOTE_REST, 750 }, 
	{ NOTE_REST, 375 }, 
	{ NOTE_REST, 187 }, 
	{ NOTE_REST, 750 }, 
	{ NOTE_D4, 188 }, 
	{ NOTE_G4, 188 }, 
	{ NOTE_D4, 188 }, 
	{ NOTE_C4, 374 }, 
	{ NOTE_REST, 750 }, 
	{ NOTE_REST, 375 }, 
	{ NOTE_REST, 187 }, 
	{ NOTE_REST, 750 }, 
	{ NOTE_D4, 188 }, 
	{ NOTE_G4, 188 }, 
	{ NOTE_D4, 188 }, 
	{ NOTE_E4, 374 }, 
	{ NOTE_REST, 750 }, 
	{ NOTE_REST, 375 }, 
	{ NOTE_REST, 187 }, 
	{ NOTE_REST, 750 }, 
	{ NOTE_D4, 188 }, 
	{ NOTE_G4, 188 }, 
	{ NOTE_D4, 188 }, 
	{ NOTE_E4, 374 }, 
	{ NOTE_E4, 94 }, 
	{ NOTE_E4, 94 }, 
	{ NOTE_E4, 188 }, 
	{ NOTE_E4, 94 }, 
	{ NOTE_E4, 94 }, 
	{ NOTE_E4, 188 }, 
	{ NOTE_E4, 94 }, 
	{ NOTE_E4, 94 }, 
	{ NOTE_E4, 188 }, 
	{ NOTE_E4, 94 }, 
	{ NOTE_E4, 90 }, 
	{ NOTE_E4, 188 }, 
	{ NOTE_E4, 94 }, 
	{ NOTE_E4, 94 }, 
	{ NOTE_E4, 188 }, 
	{ NOTE_E4, 94 }, 
	{ NOTE_E4, 94 }, 
	{ NOTE_D4, 188 }, 
	{ NOTE_G4, 188 }, 
	{ NOTE_D4, 188 }, 
	{ NOTE_E4, 372 }, 
	{ NOTE_E4, 94 }, 
	{ NOTE_E4, 94 }, 
	{ NOTE_E4, 188 }, 
	{ NOTE_E4, 94 }, 
	{ NOTE_E4, 94 }, 
	{ NOTE_E4, 188 }, 
	{ NOTE_E4, 94 }, 
	{ NOTE_E4, 94 }, 
	{ NOTE_E4, 188 }, 
	{ NOTE_E4, 94 }, 
	{ NOTE_E4, 90 }, 
	{ NOTE_E4, 188 }, 
	{ NOTE_E4, 94 }, 
	{ NOTE_E4, 94 }, 
	{ NOTE_E4, 188 }, 
	{ NOTE_E4, 94 }, 
	{ NOTE_E4, 94 }, 
	{ NOTE_D4, 188 }, 
	{ NOTE_G4, 188 }, 
	{ NOTE_D4, 188 }, 
	{ NOTE_C4, 372 }, 
	{ NOTE_C4, 94 }, 
	{ NOTE_C4, 94 }, 
	{ NOTE_C4, 188 }, 
	{ NOTE_C4, 94 }, 
	{ NOTE_C4, 94 }, 
	{ NOTE_C4, 188 }, 
	{ NOTE_C4, 94 }, 
	{ NOTE_C4, 94 }, 
	{ NOTE_C4, 188 }, 
	{ NOTE_C4, 94 }, 
	{ NOTE_C4, 90 }, 
	{ NOTE_C4, 188 }, 
	{ NOTE_C4, 94 }, 
	{ NOTE_C4, 94 }, 
	{ NOTE_C4, 188 }, 
	{ NOTE_C4, 94 }, 
	{ NOTE_C4, 94 }, 
	{ NOTE_D4, 188 }, 
	{ NOTE_G4, 188 }, 
	{ NOTE_D4, 188 }, 
	{ NOTE_E4, 372 }, 
	{ NOTE_E4, 94 }, 
	{ NOTE_E4, 94 }, 
	{ NOTE_E4, 188 }, 
	{ NOTE_E4, 94 }, 
	{ NOTE_E4, 94 }, 
	{ NOTE_E4, 188 }, 
	{ NOTE_E4, 94 }, 
	{ NOTE_E4, 94 }, 
	{ NOTE_E4, 188 }, 
	{ NOTE_E4, 94 }, 
	{ NOTE_E4, 90 }, 
	{ NOTE_E4, 188 }, 
	{ NOTE_E4, 94 }, 
	{ NOTE_E4, 94 }, 
	{ NOTE_E4, 188 }, 
	{ NOTE_E4, 94 }, 
	{ NOTE_E4, 94 }, 
	{ NOTE_D4, 188 }, 
	{ NOTE_G4, 188 }, 
	{ NOTE_D4, 188 }, 
	{ NOTE_D4, 2903 }, 
	{ NOTE_REST, 94 }, 
	{ NOTE_E3, 375 }, 
	{ NOTE_E3, 94 }, 
	{ NOTE_E3, 94 }, 
	{ NOTE_E3, 188 }, 
	{ NOTE_E3, 94 }, 
	{ NOTE_E3, 94 }, 
	{ NOTE_E3, 188 }, 
	{ NOTE_E3, 94 }, 
	{ NOTE_E3, 94 }, 
	{ NOTE_E3, 188 }, 
	{ NOTE_E3, 94 }, 
	{ NOTE_E3, 90 }, 
	{ NOTE_E3, 188 }, 
	{ NOTE_E3, 94 }, 
	{ NOTE_E3, 94 }, 
	{ NOTE_E3, 188 }, 
	{ NOTE_E3, 94 }, 
	{ NOTE_E3, 94 }, 
	{ NOTE_E3, 188 }, 
	{ NOTE_E3, 94 }, 
	{ NOTE_E3, 94 }, 
	{ NOTE_E3, 188 }, 
	{ NOTE_D4, 2903 }, 
	{ NOTE_REST, 94 }, 
	{ NOTE_E3, 375 }, 
	{ NOTE_E3, 94 }, 
	{ NOTE_E3, 94 }, 
	{ NOTE_E3, 188 }, 
	{ NOTE_E3, 94 }, 
	{ NOTE_E3, 94 }, 
	{ NOTE_E3, 188 }, 
	{ NOTE_E3, 94 }, 
	{ NOTE_E3, 94 }, 
	{ NOTE_E3, 188 }, 
	{ NOTE_E3, 94 }, 
	{ NOTE_E3, 90 }, 
	{ NOTE_E3, 188 }, 
	{ NOTE_E3, 94 }, 
	{ NOTE_E3, 94 }, 
	{ NOTE_E3, 375 }, 
	{ NOTE_D4, 188 }, 
	{ NOTE_G4, 188 }, 
	{ NOTE_D4, 188 }, 
	{ NOTE_E4, 373 }, 
	{ NOTE_G5, 188 }, 
	{ NOTE_FS5, 62 }, 
	{ NOTE_G5, 62 }, 
	{ NOTE_FS5, 62 }, 
	{ NOTE_G5, 62 }, 
	{ NOTE_FS5, 62 }, 
	{ NOTE_G5, 62 }, 
	{ NOTE_B5, 188 }, 
	{ NOTE_G5, 188 }, 
	{ NOTE_FS5, 62 }, 
	{ NOTE_G5, 62 }, 
	{ NOTE_FS5, 62 }, 
	{ NOTE_G5, 62 }, 
	{ NOTE_FS5, 62 }, 
	{ NOTE_G5, 66 }, 
	{ NOTE_G5, 188 }, 
	{ NOTE_E5, 188 }, 
	{ NOTE_E5, 375 }, 
	{ NOTE_D5, 188 }, 
	{ NOTE_G5, 188 }, 
	{ NOTE_D5, 188 }, 
	{ NOTE_E5, 373 }, 
	{ NOTE_G5, 188 }, 
	{ NOTE_FS5, 62 }, 
	{ NOTE_G5, 62 }, 
	{ NOTE_FS5, 62 }, 
	{ NOTE_G5, 62 }, 
	{ NOTE_FS5, 62 }, 
	{ NOTE_G5, 62 }, 
	{ NOTE_B5, 188 }, 
	{ NOTE_G5, 188 }, 
	{ NOTE_FS5, 62 }, 
	{ NOTE_G5, 62 }, 
	{ NOTE_FS5, 62 }, 
	{ NOTE_G5, 62 }, 
	{ NOTE_FS5, 62 }, 
	{ NOTE_G5, 66 }, 
	{ NOTE_G5, 188 }, 
	{ NOTE_E5, 188 }, 
	{ NOTE_E5, 375 }, 
	{ NOTE_D5, 188 }, 
	{ NOTE_G5, 188 }, 
	{ NOTE_D5, 188 }, 
	{ NOTE_E5, 373 }, 
	{ NOTE_G5, 188 }, 
	{ NOTE_FS5, 62 }, 
	{ NOTE_G5, 62 }, 
	{ NOTE_FS5, 62 }, 
	{ NOTE_G5, 62 }, 
	{ NOTE_FS5, 62 }, 
	{ NOTE_G5, 62 }, 
	{ NOTE_B5, 188 }, 
	{ NOTE_G5, 188 }, 
	{ NOTE_FS5, 62 }, 
	{ NOTE_G5, 62 }, 
	{ NOTE_FS5, 62 }, 
	{ NOTE_G5, 62 }, 
	{ NOTE_FS5, 62 }, 
	{ NOTE_G5, 66 }, 
	{ NOTE_G5, 188 }, 
	{ NOTE_E5, 188 }, 
	{ NOTE_E5, 375 }, 
	{ NOTE_D5, 188 }, 
	{ NOTE_G5, 188 }, 
	{ NOTE_D5, 188 }, 
	{ NOTE_E5, 373 }, 
	{ NOTE_G5, 188 }, 
	{ NOTE_FS5, 62 }, 
	{ NOTE_G5, 62 }, 
	{ NOTE_FS5, 62 }, 
	{ NOTE_G5, 62 }, 
	{ NOTE_FS5, 62 }, 
	{ NOTE_G5, 62 }, 
	{ NOTE_B5, 188 }, 
	{ NOTE_G5, 188 }, 
	{ NOTE_FS5, 62 }, 
	{ NOTE_G5, 62 }, 
	{ NOTE_FS5, 62 }, 
	{ NOTE_G5, 62 }, 
	{ NOTE_FS5, 62 }, 
	{ NOTE_G5, 66 }, 
	{ NOTE_G5, 188 }, 
	{ NOTE_E5, 188 }, 
	{ NOTE_E5, 375 }, 
	{ NOTE_D5, 188 }, 
	{ NOTE_G5, 188 }, 
	{ NOTE_D5, 188 }, 
	{ NOTE_E5, 373 }, 
	{ NOTE_G5, 188 }, 
	{ NOTE_FS5, 62 }, 
	{ NOTE_G5, 62 }, 
	{ NOTE_FS5, 62 }, 
	{ NOTE_G5, 62 }, 
	{ NOTE_FS5, 62 }, 
	{ NOTE_G5, 62 }, 
	{ NOTE_B5, 188 }, 
	{ NOTE_G5, 188 }, 
	{ NOTE_FS5, 62 }, 
	{ NOTE_G5, 62 }, 
	{ NOTE_FS5, 62 }, 
	{ NOTE_G5, 62 }, 
	{ NOTE_FS5, 62 }, 
	{ NOTE_G5, 66 }, 
	{ NOTE_G5, 188 }, 
	{ NOTE_E5, 188 }, 
	{ NOTE_E5, 375 }, 
	{ NOTE_D5, 188 }, 
	{ NOTE_G5, 188 }, 
	{ NOTE_D5, 188 }, 
	{ NOTE_E5, 373 }, 
	{ NOTE_G5, 188 }, 
	{ NOTE_FS5, 62 }, 
	{ NOTE_G5, 62 }, 
	{ NOTE_FS5, 62 }, 
	{ NOTE_G5, 62 }, 
	{ NOTE_FS5, 62 }, 
	{ NOTE_G5, 62 }, 
	{ NOTE_B5, 188 }, 
	{ NOTE_G5, 188 }, 
	{ NOTE_FS5, 62 }, 
	{ NOTE_G5, 62 }, 
	{ NOTE_FS5, 62 }, 
	{ NOTE_G5, 62 }, 
	{ NOTE_FS5, 62 }, 
	{ NOTE_G5, 66 }, 
	{ NOTE_G5, 188 }, 
	{ NOTE_E5, 188 }, 
	{ NOTE_E5, 375 }, 
	{ NOTE_D5, 188 }, 
	{ NOTE_G5, 188 }, 
	{ NOTE_D5, 188 }, 
	{ NOTE_E5, 373 }, 
	{ NOTE_G5, 188 }, 
	{ NOTE_FS5, 62 }, 
	{ NOTE_G5, 62 }, 
	{ NOTE_FS5, 62 }, 
	{ NOTE_G5, 62 }, 
	{ NOTE_FS5, 62 }, 
	{ NOTE_G5, 62 }, 
	{ NOTE_B5, 188 }, 
	{ NOTE_G5, 188 }, 
	{ NOTE_FS5, 62 }, 
	{ NOTE_G5, 62 }, 
	{ NOTE_FS5, 62 }, 
	{ NOTE_G5, 62 }, 
	{ NOTE_FS5, 62 }, 
	{ NOTE_G5, 66 }, 
	{ NOTE_G5, 188 }, 
	{ NOTE_E5, 188 }, 
	{ NOTE_E5, 375 }, 
	{ NOTE_D5, 188 }, 
	{ NOTE_G5, 188 }, 
	{ NOTE_D5, 188 }, 
	{ NOTE_E5, 373 }, 
	{ NOTE_G5, 188 }, 
	{ NOTE_FS5, 62 }, 
	{ NOTE_G5, 62 }, 
	{ NOTE_FS5, 62 }, 
	{ NOTE_G5, 62 }, 
	{ NOTE_FS5, 62 }, 
	{ NOTE_G5, 62 }, 
	{ NOTE_B5, 188 }, 
	{ NOTE_G5, 188 }, 
	{ NOTE_FS5, 62 }, 
	{ NOTE_G5, 62 }, 
	{ NOTE_FS5, 62 }, 
	{ NOTE_G5, 62 }, 
	{ NOTE_FS5, 62 }, 
	{ NOTE_G5, 66 }, 
	{ NOTE_G5, 188 }, 
	{ NOTE_E5, 188 }, 
	{ NOTE_E5, 375 }, 
	{ NOTE_D4, 188 }, 
	{ NOTE_G4, 188 }, 
	{ NOTE_D4, 188 }, 
	{ NOTE_B4, 373 }, 
	{ NOTE_E4, 94 }, 
	{ NOTE_E4, 94 }, 
	{ NOTE_E4, 188 }, 
	{ NOTE_E4, 94 }, 
	{ NOTE_E4, 94 }, 
	{ NOTE_E4, 188 }, 
	{ NOTE_E4, 94 }, 
	{ NOTE_E4, 94 }, 
	{ NOTE_E4, 188 }, 
	{ NOTE_E4, 94 }, 
	{ NOTE_E4, 90 }, 
	{ NOTE_E4, 188 }, 
	{ NOTE_E4, 94 }, 
	{ NOTE_E4, 94 }, 
	{ NOTE_E4, 188 }, 
	{ NOTE_E4, 94 }, 
	{ NOTE_E4, 94 }, 
	{ NOTE_D4, 188 }, 
	{ NOTE_G4, 188 }, 
	{ NOTE_D4, 188 }, 
	{ NOTE_E4, 372 }, 
	{ NOTE_E4, 94 }, 
	{ NOTE_E4, 94 }, 
	{ NOTE_E4, 188 }, 
	{ NOTE_E4, 94 }, 
	{ NOTE_E4, 94 }, 
	{ NOTE_E4, 188 }, 
	{ NOTE_E4, 94 }, 
	{ NOTE_E4, 94 }, 
	{ NOTE_E4, 188 }, 
	{ NOTE_E4, 94 }, 
	{ NOTE_E4, 90 }, 
	{ NOTE_E4, 188 }, 
	{ NOTE_E4, 94 }, 
	{ NOTE_E4, 94 }, 
	{ NOTE_E4, 188 }, 
	{ NOTE_E4, 94 }, 
	{ NOTE_E4, 94 }, 
	{ NOTE_D4, 188 }, 
	{ NOTE_G4, 188 }, 
	{ NOTE_D4, 188 }, 
	{ NOTE_C4, 372 }, 
	{ NOTE_C4, 94 }, 
	{ NOTE_C4, 94 }, 
	{ NOTE_C4, 188 }, 
	{ NOTE_C4, 94 }, 
	{ NOTE_C4, 94 }, 
	{ NOTE_C4, 188 }, 
	{ NOTE_C4, 94 }, 
	{ NOTE_C4, 94 }, 
	{ NOTE_C4, 188 }, 
	{ NOTE_C4, 94 }, 
	{ NOTE_C4, 90 }, 
	{ NOTE_C4, 188 }, 
	{ NOTE_C4, 94 }, 
	{ NOTE_C4, 94 }, 
	{ NOTE_C4, 188 }, 
	{ NOTE_C4, 94 }, 
	{ NOTE_C4, 94 }, 
	{ NOTE_D4, 188 }, 
	{ NOTE_G4, 188 }, 
	{ NOTE_D4, 188 }, 
	{ NOTE_E4, 372 }, 
	{ NOTE_E4, 94 }, 
	{ NOTE_E4, 94 }, 
	{ NOTE_E4, 188 }, 
	{ NOTE_E4, 94 }, 
	{ NOTE_E4, 94 }, 
	{ NOTE_E4, 188 }, 
	{ NOTE_E4, 94 }, 
	{ NOTE_E4, 94 }, 
	{ NOTE_E4, 188 }, 
	{ NOTE_E4, 94 }, 
	{ NOTE_E4, 90 }, 
	{ NOTE_E4, 188 }, 
	{ NOTE_E4, 94 }, 
	{ NOTE_E4, 94 }, 
	{ NOTE_E4, 188 }, 
	{ NOTE_E4, 94 }, 
	{ NOTE_E4, 94 }, 
	{ NOTE_D4, 188 }, 
	{ NOTE_G4, 188 }, 
	{ NOTE_D4, 188 }, 
	{ NOTE_E4, 372 }, 
	{ NOTE_E4, 94 }, 
	{ NOTE_E4, 94 }, 
	{ NOTE_E4, 188 }, 
	{ NOTE_E4, 94 }, 
	{ NOTE_E4, 94 }, 
	{ NOTE_E4, 188 }, 
	{ NOTE_E4, 94 }, 
	{ NOTE_E4, 94 }, 
	{ NOTE_E4, 188 }, 
	{ NOTE_E4, 94 }, 
	{ NOTE_E4, 90 }, 
	{ NOTE_E4, 188 }, 
	{ NOTE_E4, 94 }, 
	{ NOTE_E4, 94 }, 
	{ NOTE_E4, 188 }, 
	{ NOTE_E4, 94 }, 
	{ NOTE_E4, 94 }, 
	{ NOTE_D4, 188 }, 
	{ NOTE_G4, 188 }, 
	{ NOTE_D4, 188 }, 
	{ NOTE_E4, 372 }, 
	{ NOTE_E4, 94 }, 
	{ NOTE_E4, 94 }, 
	{ NOTE_E4, 188 }, 
	{ NOTE_E4, 94 }, 
	{ NOTE_E4, 94 }, 
	{ NOTE_E4, 188 }, 
	{ NOTE_E4, 94 }, 
	{ NOTE_E4, 94 }, 
	{ NOTE_E4, 188 }, 
	{ NOTE_E4, 94 }, 
	{ NOTE_E4, 90 }, 
	{ NOTE_E4, 188 }, 
	{ NOTE_E4, 94 }, 
	{ NOTE_E4, 94 }, 
	{ NOTE_E4, 188 }, 
	{ NOTE_E4, 94 }, 
	{ NOTE_E4, 94 }, 
	{ NOTE_D4, 188 }, 
	{ NOTE_G4, 188 }, 
	{ NOTE_D4, 188 }, 
	{ NOTE_C4, 372 }, 
	{ NOTE_C4, 94 }, 
	{ NOTE_C4, 94 }, 
	{ NOTE_C4, 188 }, 
	{ NOTE_C4, 94 }, 
	{ NOTE_C4, 94 }, 
	{ NOTE_C4, 188 }, 
	{ NOTE_C4, 94 }, 
	{ NOTE_C4, 94 }, 
	{ NOTE_C4, 188 }, 
	{ NOTE_C4, 94 }, 
	{ NOTE_C4, 90 }, 
	{ NOTE_C4, 188 }, 
	{ NOTE_C4, 94 }, 
	{ NOTE_C4, 94 }, 
	{ NOTE_C4, 188 }, 
	{ NOTE_C4, 94 }, 
	{ NOTE_C4, 94 }, 
	{ NOTE_D4, 188 }, 
	{ NOTE_G4, 188 }, 
	{ NOTE_D4, 188 }, 
	{ NOTE_E4, 372 }, 
	{ NOTE_E4, 94 }, 
	{ NOTE_E4, 94 }, 
	{ NOTE_E4, 188 }, 
	{ NOTE_E4, 94 }, 
	{ NOTE_E4, 94 }, 
	{ NOTE_E4, 188 }, 
	{ NOTE_E4, 94 }, 
	{ NOTE_E4, 94 }, 
	{ NOTE_E4, 188 }, 
	{ NOTE_E4, 94 }, 
	{ NOTE_E4, 90 }, 
	{ NOTE_E4, 188 }, 
	{ NOTE_E4, 94 }, 
	{ NOTE_E4, 94 }, 
	{ NOTE_E4, 188 }, 
	{ NOTE_E4, 94 }, 
	{ NOTE_E4, 94 }, 
	{ NOTE_D4, 188 }, 
	{ NOTE_G4, 188 }, 
	{ NOTE_D4, 188 }, 
	{ NOTE_D4, 2903 }, 
	{ NOTE_REST, 94 }, 
	{ NOTE_E3, 375 }, 
	{ NOTE_E3, 94 }, 
	{ NOTE_E3, 94 }, 
	{ NOTE_E3, 188 }, 
	{ NOTE_E3, 94 }, 
	{ NOTE_E3, 94 }, 
	{ NOTE_E3, 188 }, 
	{ NOTE_E3, 94 }, 
	{ NOTE_E3, 94 }, 
	{ NOTE_E3, 188 }, 
	{ NOTE_E3, 94 }, 
	{ NOTE_E3, 90 }, 
	{ NOTE_E3, 188 }, 
	{ NOTE_E3, 94 }, 
	{ NOTE_E3, 94 }, 
	{ NOTE_E3, 188 }, 
	{ NOTE_E3, 94 }, 
	{ NOTE_E3, 94 }, 
	{ NOTE_E3, 188 }, 
	{ NOTE_E3, 94 }, 
	{ NOTE_E3, 94 }, 
	{ NOTE_E3, 188 }, 
	{ NOTE_D4, 2903 }, 
	{ NOTE_REST, 94 }, 
	{ NOTE_E3, 375 }, 
	{ NOTE_E3, 94 }, 
	{ NOTE_E3, 94 }, 
	{ NOTE_E3, 188 }, 
	{ NOTE_E3, 94 }, 
	{ NOTE_E3, 94 }, 
	{ NOTE_E3, 188 }, 
	{ NOTE_E3, 94 }, 
	{ NOTE_E3, 94 }, 
	{ NOTE_B3, 3560 }, 
	{ NOTE_D6, 937 }, 
	{ NOTE_B5, 188 }, 
	{ NOTE_G6, 937 }, 
	{ NOTE_G6, 94 }, 
	{ NOTE_E6, 94 }, 
	{ NOTE_AS5, 188 }, 
	{ NOTE_A5, 94 }, 
	{ NOTE_G5, 94 }, 
	{ NOTE_E5, 561 }, 
	{ NOTE_D5, 94 }, 
	{ NOTE_C5, 94 }, 
	{ NOTE_B4, 4031 }, 
	{ NOTE_B5, 94 }, 
	{ NOTE_D6, 94 }, 
	{ NOTE_A5, 94 }, 
	{ NOTE_B5, 94 }, 
	{ NOTE_D6, 94 }, 
	{ NOTE_A5, 94 }, 
	{ NOTE_B5, 94 }, 
	{ NOTE_D6, 94 }, 
	{ NOTE_A5, 94 }, 
	{ NOTE_B5, 94 }, 
	{ NOTE_D6, 94 }, 
	{ NOTE_A5, 186 }, 
	{ NOTE_G5, 94 }, 
	{ NOTE_E5, 92 }, 
	{ NOTE_E5, 188 }, 
	{ NOTE_D5, 1124 }, 
	{ NOTE_E6, 282 }, 
	{ NOTE_G6, 94 }, 
	{ NOTE_B6, 94 }, 
	{ NOTE_G6, 94 }, 
	{ NOTE_A6, 94 }, 
	{ NOTE_G6, 94 }, 
	{ NOTE_E6, 94 }, 
	{ NOTE_G6, 94 }, 
	{ NOTE_B6, 94 }, 
	{ NOTE_G6, 94 }, 
	{ NOTE_A6, 94 }, 
	{ NOTE_G6, 94 }, 
	{ NOTE_E6, 94 }, 
	{ NOTE_G6, 94 }, 
	{ NOTE_B6, 94 }, 
	{ NOTE_G6, 90 }, 
	{ NOTE_A6, 94 }, 
	{ NOTE_G6, 94 }, 
	{ NOTE_E6, 94 }, 
	{ NOTE_G6, 94 }, 
	{ NOTE_B6, 94 }, 
	{ NOTE_G6, 94 }, 
	{ NOTE_A6, 94 }, 
	{ NOTE_G6, 94 }, 
	{ NOTE_E6, 94 }, 
	{ NOTE_G6, 94 }, 
	{ NOTE_B6, 94 }, 
	{ NOTE_G6, 94 }, 
	{ NOTE_A6, 94 }, 
	{ NOTE_G6, 94 }, 
	{ NOTE_E6, 94 }, 
	{ NOTE_G6, 90 }, 
	{ NOTE_B6, 94 }, 
	{ NOTE_G6, 94 }, 
	{ NOTE_A6, 94 }, 
	{ NOTE_G6, 94 }, 
	{ NOTE_E6, 94 }, 
	{ NOTE_G6, 94 }, 
	{ NOTE_B6, 94 }, 
	{ NOTE_G6, 94 }, 
	{ NOTE_A6, 94 }, 
	{ NOTE_G6, 94 }, 
	{ NOTE_E6, 94 }, 
	{ NOTE_G6, 94 }, 
	{ NOTE_C7, 372 }, 
	{ NOTE_C7, 188 }, 
	{ NOTE_C7, 375 }, 
	{ NOTE_C7, 188 }, 
	{ NOTE_C7, 188 }, 
	{ NOTE_C7, 375 }, 
	{ NOTE_C7, 186 }, 
	{ NOTE_C7, 94 }, 
	{ NOTE_C7, 94 }, 
	{ NOTE_C7, 562 }, 
	{ NOTE_B6, 188 }, 
	{ NOTE_C7, 94 }, 
	{ NOTE_A6, 94 }, 
	{ NOTE_B6, 188 }, 
	{ NOTE_G6, 94 }, 
	{ NOTE_A6, 92 }, 
	{ NOTE_FS6, 94 }, 
	{ NOTE_G6, 94 }, 
	{ NOTE_E6, 188 }, 
	{ NOTE_E6, 1124 }, 
	{ NOTE_REST, 188 }, 
	{ NOTE_A5, 188 }, 
	{ NOTE_B5, 188 }, 
	{ NOTE_E6, 188 }, 
	{ NOTE_D6, 375 }, 
	{ NOTE_E6, 94 }, 
	{ NOTE_D6, 94 }, 
	{ NOTE_B5, 185 }, 
	{ NOTE_D6, 188 }, 
	{ NOTE_B5, 188 }, 
	{ NOTE_A5, 94 }, 
	{ NOTE_G5, 94 }, 
	{ NOTE_E5, 188 }, 
	{ NOTE_B4, 562 }, 
	{ NOTE_E5, 94 }, 
	{ NOTE_G5, 92 }, 
	{ NOTE_C6, 94 }, 
	{ NOTE_A5, 94 }, 
	{ NOTE_C6, 94 }, 
	{ NOTE_A5, 94 }, 
	{ NOTE_C6, 94 }, 
	{ NOTE_A5, 94 }, 
	{ NOTE_C6, 94 }, 
	{ NOTE_A5, 94 }, 
	{ NOTE_G5, 94 }, 
	{ NOTE_E5, 94 }, 
	{ NOTE_G5, 94 }, 
	{ NOTE_E5, 94 }, 
	{ NOTE_G5, 94 }, 
	{ NOTE_E5, 94 }, 
	{ NOTE_G5, 94 }, 
	{ NOTE_E5, 90 }, 
	{ NOTE_D5, 938 }, 
	{ NOTE_D5, 188 }, 
	{ NOTE_CS5, 188 }, 
	{ NOTE_C5, 186 }, 
	{ NOTE_A4, 188 }, 
	{ NOTE_CS5, 188 }, 
	{ NOTE_C5, 188 }, 
	{ NOTE_A4, 188 }, 
	{ NOTE_D4, 188 }, 
	{ NOTE_CS4, 188 }, 
	{ NOTE_C4, 188 }, 
	{ NOTE_A3, 1309 }, 
	{ NOTE_A3, 188 }, 
	{ NOTE_E5, 94 }, 
	{ NOTE_FS5, 93 }, 
	{ NOTE_E5, 94 }, 
	{ NOTE_FS5, 94 }, 
	{ NOTE_E5, 94 }, 
	{ NOTE_FS5, 94 }, 
	{ NOTE_E5, 188 }, 
	{ NOTE_A5, 94 }, 
	{ NOTE_B5, 94 }, 
	{ NOTE_A5, 94 }, 
	{ NOTE_B5, 94 }, 
	{ NOTE_A5, 94 }, 
	{ NOTE_B5, 94 }, 
	{ NOTE_A5, 188 }, 
	{ NOTE_E5, 94 }, 
	{ NOTE_FS5, 90 }, 
	{ NOTE_E5, 188 }, 
	{ NOTE_A5, 94 }, 
	{ NOTE_B5, 94 }, 
	{ NOTE_A5, 94 }, 
	{ NOTE_B5, 94 }, 
	{ NOTE_A5, 94 }, 
	{ NOTE_B5, 94 }, 
	{ NOTE_C6, 94 }, 
	{ NOTE_B5, 94 }, 
	{ NOTE_C6, 94 }, 
	{ NOTE_B5, 94 }, 
	{ NOTE_C6, 94 }, 
	{ NOTE_A5, 94 }, 
	{ NOTE_D6, 559 }, 
	{ NOTE_D6, 188 }, 
	{ NOTE_D6, 376 }, 
	{ NOTE_D6, 188 }, 
	{ NOTE_C6, 188 }, 
	{ NOTE_D6, 560 }, 
	{ NOTE_REST, 375 }, 
	{ NOTE_E6, 94 }, 
	{ NOTE_G6, 94 }, 
	{ NOTE_E6, 94 }, 
	{ NOTE_G6, 94 }, 
	{ NOTE_E6, 94 }, 
	{ NOTE_G6, 94 }, 
	{ NOTE_E6, 94 }, 
	{ NOTE_G6, 92 }, 
	{ NOTE_E6, 94 }, 
	{ NOTE_G6, 94 }, 
	{ NOTE_E6, 94 }, 
	{ NOTE_G6, 94 }, 
	{ NOTE_D6, 188 }, 
	{ NOTE_C6, 94 }, 
	{ NOTE_B5, 94 }, 
	{ NOTE_C6, 188 }, 
	{ NOTE_REST, 188 }, 
	{ NOTE_REST, 188 }, 
	{ NOTE_B5, 184 }, 
	{ NOTE_D6, 94 }, 
	{ NOTE_E6, 94 }, 
	{ NOTE_D6, 94 }, 
	{ NOTE_E6, 94 }, 
	{ NOTE_D6, 94 }, 
	{ NOTE_C6, 657 }, 
	{ NOTE_E5, 1123 }, 
	{ NOTE_D6, 2626 }, 
	{ NOTE_E6, 752 }, 
	{ NOTE_E6, 188 }, 
	{ NOTE_C7, 560 }, 
	{ NOTE_A6, 188 }, 
	{ NOTE_G6, 563 }, 
	{ NOTE_E6, 188 }, 
	{ NOTE_C7, 373 }, 
	{ NOTE_C7, 188 }, 
	{ NOTE_B6, 188 }, 
	{ NOTE_A6, 188 }, 
	{ NOTE_G6, 188 }, 
	{ NOTE_D6, 936 }, 
	{ NOTE_C6, 188 }, 
	{ NOTE_C6, 188 }, 
	{ NOTE_A5, 936 }, 
	{ NOTE_G5, 188 }, 
	{ NOTE_FS5, 62 }, 
	{ NOTE_G5, 62 }, 
	{ NOTE_FS5, 62 }, 
	{ NOTE_G5, 62 }, 
	{ NOTE_FS5, 62 }, 
	{ NOTE_G5, 62 }, 
	{ NOTE_B5, 188 }, 
	{ NOTE_G5, 188 }, 
	{ NOTE_FS5, 62 }, 
	{ NOTE_G5, 62 }, 
	{ NOTE_FS5, 62 }, 
	{ NOTE_G5, 62 }, 
	{ NOTE_FS5, 62 }, 
	{ NOTE_G5, 66 }, 
	{ NOTE_G5, 188 }, 
	{ NOTE_E5, 188 }, 
	{ NOTE_E5, 375 }, 
	{ NOTE_D5, 188 }, 
	{ NOTE_G5, 188 }, 
	{ NOTE_D5, 188 }, 
	{ NOTE_E5, 373 }, 
	{ NOTE_G5, 188 }, 
	{ NOTE_FS5, 62 }, 
	{ NOTE_G5, 62 }, 
	{ NOTE_FS5, 62 }, 
	{ NOTE_G5, 62 }, 
	{ NOTE_FS5, 62 }, 
	{ NOTE_G5, 62 }, 
	{ NOTE_B5, 188 }, 
	{ NOTE_G5, 188 }, 
	{ NOTE_FS5, 62 }, 
	{ NOTE_G5, 62 }, 
	{ NOTE_FS5, 62 }, 
	{ NOTE_G5, 62 }, 
	{ NOTE_FS5, 62 }, 
	{ NOTE_G5, 66 }, 
	{ NOTE_G5, 188 }, 
	{ NOTE_E5, 188 }, 
	{ NOTE_E5, 375 }, 
	{ NOTE_D5, 188 }, 
	{ NOTE_G5, 188 }, 
	{ NOTE_D5, 188 }, 
	{ NOTE_E5, 373 }, 
	{ NOTE_G5, 188 }, 
	{ NOTE_FS5, 62 }, 
	{ NOTE_G5, 62 }, 
	{ NOTE_FS5, 62 }, 
	{ NOTE_G5, 62 }, 
	{ NOTE_FS5, 62 }, 
	{ NOTE_G5, 62 }, 
	{ NOTE_B5, 188 }, 
	{ NOTE_G5, 188 }, 
	{ NOTE_FS5, 62 }, 
	{ NOTE_G5, 62 }, 
	{ NOTE_FS5, 62 }, 
	{ NOTE_G5, 62 }, 
	{ NOTE_FS5, 62 }, 
	{ NOTE_G5, 66 }, 
	{ NOTE_G5, 188 }, 
	{ NOTE_E5, 188 }, 
	{ NOTE_E5, 375 }, 
	{ NOTE_D5, 188 }, 
	{ NOTE_G5, 188 }, 
	{ NOTE_D5, 188 }, 
	{ NOTE_E5, 373 }, 
	{ NOTE_G5, 188 }, 
	{ NOTE_FS5, 62 }, 
	{ NOTE_G5, 62 }, 
	{ NOTE_FS5, 62 }, 
	{ NOTE_G5, 62 }, 
	{ NOTE_FS5, 62 }, 
	{ NOTE_G5, 62 }, 
	{ NOTE_B5, 188 }, 
	{ NOTE_G5, 188 }, 
	{ NOTE_FS5, 62 }, 
	{ NOTE_G5, 62 }, 
	{ NOTE_FS5, 62 }, 
	{ NOTE_G5, 62 }, 
	{ NOTE_FS5, 62 }, 
	{ NOTE_G5, 66 }, 
	{ NOTE_G5, 188 }, 
	{ NOTE_E5, 188 }, 
	{ NOTE_E5, 375 }, 
	{ NOTE_D5, 188 }, 
	{ NOTE_G5, 188 }, 
	{ NOTE_D5, 188 }, 
	{ NOTE_E5, 373 }, 
	{ NOTE_G5, 188 }, 
	{ NOTE_FS5, 62 }, 
	{ NOTE_G5, 62 }, 
	{ NOTE_FS5, 62 }, 
	{ NOTE_G5, 62 }, 
	{ NOTE_FS5, 62 }, 
	{ NOTE_G5, 62 }, 
	{ NOTE_B5, 188 }, 
	{ NOTE_G5, 188 }, 
	{ NOTE_FS5, 62 }, 
	{ NOTE_G5, 62 }, 
	{ NOTE_FS5, 62 }, 
	{ NOTE_G5, 62 }, 
	{ NOTE_FS5, 62 }, 
	{ NOTE_G5, 66 }, 
	{ NOTE_G5, 188 }, 
	{ NOTE_E5, 188 }, 
	{ NOTE_E5, 375 }, 
	{ NOTE_D5, 188 }, 
	{ NOTE_G5, 188 }, 
	{ NOTE_D5, 188 }, 
	{ NOTE_E5, 373 }, 
	{ NOTE_G5, 188 }, 
	{ NOTE_FS5, 62 }, 
	{ NOTE_G5, 62 }, 
	{ NOTE_FS5, 62 }, 
	{ NOTE_G5, 62 }, 
	{ NOTE_FS5, 62 }, 
	{ NOTE_G5, 62 }, 
	{ NOTE_B5, 188 }, 
	{ NOTE_G5, 188 }, 
	{ NOTE_FS5, 62 }, 
	{ NOTE_G5, 62 }, 
	{ NOTE_FS5, 62 }, 
	{ NOTE_G5, 62 }, 
	{ NOTE_FS5, 62 }, 
	{ NOTE_G5, 66 }, 
	{ NOTE_G5, 188 }, 
	{ NOTE_E5, 188 }, 
	{ NOTE_E5, 375 }, 
	{ NOTE_D5, 188 }, 
	{ NOTE_G5, 188 }, 
	{ NOTE_D5, 188 }, 
	{ NOTE_E5, 373 }, 
	{ NOTE_G5, 188 }, 
	{ NOTE_FS5, 62 }, 
	{ NOTE_G5, 62 }, 
	{ NOTE_FS5, 62 }, 
	{ NOTE_G5, 62 }, 
	{ NOTE_FS5, 62 }, 
	{ NOTE_G5, 62 }, 
	{ NOTE_B5, 188 }, 
	{ NOTE_G5, 188 }, 
	{ NOTE_FS5, 62 }, 
	{ NOTE_G5, 62 }, 
	{ NOTE_FS5, 62 }, 
	{ NOTE_G5, 62 }, 
	{ NOTE_FS5, 62 }, 
	{ NOTE_G5, 66 }, 
	{ NOTE_G5, 188 }, 
	{ NOTE_E5, 188 }, 
	{ NOTE_E5, 375 }, 
	{ NOTE_D5, 188 }, 
	{ NOTE_G5, 188 }, 
	{ NOTE_D5, 188 }, 
	{ NOTE_E5, 373 }, 
	{ NOTE_G5, 188 }, 
	{ NOTE_FS5, 62 }, 
	{ NOTE_G5, 62 }, 
	{ NOTE_FS5, 62 }, 
	{ NOTE_G5, 62 }, 
	{ NOTE_FS5, 62 }, 
	{ NOTE_G5, 62 }, 
	{ NOTE_B5, 188 }, 
	{ NOTE_G5, 188 }, 
	{ NOTE_FS5, 62 }, 
	{ NOTE_G5, 62 }, 
	{ NOTE_FS5, 62 }, 
	{ NOTE_G5, 62 }, 
	{ NOTE_FS5, 62 }, 
	{ NOTE_G5, 66 }, 
	{ NOTE_G5, 188 }, 
	{ NOTE_E5, 188 }, 
	{ NOTE_E5, 375 }, 
	{ NOTE_D4, 188 }, 
	{ NOTE_G4, 188 }, 
	{ NOTE_D4, 188 }, 
	{ NOTE_E4, 373 }, 
	{ NOTE_E4, 94 }, 
	{ NOTE_E4, 94 }, 
	{ NOTE_E4, 188 }, 
	{ NOTE_E4, 94 }, 
	{ NOTE_E4, 94 }, 
	{ NOTE_E4, 188 }, 
	{ NOTE_E4, 94 }, 
	{ NOTE_E4, 94 }, 
	{ NOTE_E4, 188 }, 
	{ NOTE_E4, 94 }, 
	{ NOTE_E4, 90 }, 
	{ NOTE_E4, 188 }, 
	{ NOTE_E4, 94 }, 
	{ NOTE_E4, 94 }, 
	{ NOTE_E4, 188 }, 
	{ NOTE_E4, 94 }, 
	{ NOTE_E4, 94 }, 
	{ NOTE_D4, 188 }, 
	{ NOTE_G4, 188 }, 
	{ NOTE_D4, 188 }, 
	{ NOTE_E4, 372 }, 
	{ NOTE_E4, 94 }, 
	{ NOTE_E4, 94 }, 
	{ NOTE_E4, 188 }, 
	{ NOTE_E4, 94 }, 
	{ NOTE_E4, 94 }, 
	{ NOTE_E4, 188 }, 
	{ NOTE_E4, 94 }, 
	{ NOTE_E4, 94 }, 
	{ NOTE_E4, 188 }, 
	{ NOTE_E4, 94 }, 
	{ NOTE_E4, 90 }, 
	{ NOTE_E4, 188 }, 
	{ NOTE_E4, 94 }, 
	{ NOTE_E4, 94 }, 
	{ NOTE_E4, 188 }, 
	{ NOTE_E4, 94 }, 
	{ NOTE_E4, 94 }, 
	{ NOTE_D4, 188 }, 
	{ NOTE_G4, 188 }, 
	{ NOTE_D4, 188 }, 
	{ NOTE_C4, 372 }, 
	{ NOTE_C4, 94 }, 
	{ NOTE_C4, 94 }, 
	{ NOTE_C4, 188 }, 
	{ NOTE_C4, 94 }, 
	{ NOTE_C4, 94 }, 
	{ NOTE_C4, 188 }, 
	{ NOTE_C4, 94 }, 
	{ NOTE_C4, 94 }, 
	{ NOTE_C4, 188 }, 
	{ NOTE_C4, 94 }, 
	{ NOTE_C4, 90 }, 
	{ NOTE_C4, 188 }, 
	{ NOTE_C4, 94 }, 
	{ NOTE_C4, 94 }, 
	{ NOTE_C4, 188 }, 
	{ NOTE_C4, 94 }, 
	{ NOTE_C4, 94 }, 
	{ NOTE_D4, 188 }, 
	{ NOTE_G4, 188 }, 
	{ NOTE_D4, 188 }, 
	{ NOTE_E4, 372 }, 
	{ NOTE_E4, 94 }, 
	{ NOTE_E4, 94 }, 
	{ NOTE_E4, 188 }, 
	{ NOTE_E4, 94 }, 
	{ NOTE_E4, 94 }, 
	{ NOTE_E4, 188 }, 
	{ NOTE_E4, 94 }, 
	{ NOTE_E4, 94 }, 
	{ NOTE_E4, 188 }, 
	{ NOTE_E4, 94 }, 
	{ NOTE_E4, 90 }, 
	{ NOTE_E4, 188 }, 
	{ NOTE_E4, 94 }, 
	{ NOTE_E4, 94 }, 
	{ NOTE_E4, 188 }, 
	{ NOTE_E4, 94 }, 
	{ NOTE_E4, 94 }, 
	{ NOTE_D4, 188 }, 
	{ NOTE_G4, 188 }, 
	{ NOTE_D4, 188 }, 
	{ NOTE_E4, 372 }, 
	{ NOTE_E4, 94 }, 
	{ NOTE_E4, 94 }, 
	{ NOTE_E4, 188 }, 
	{ NOTE_E4, 94 }, 
	{ NOTE_E4, 94 }, 
	{ NOTE_E4, 188 }, 
	{ NOTE_E4, 94 }, 
	{ NOTE_E4, 94 }, 
	{ NOTE_E4, 188 }, 
	{ NOTE_E4, 94 }, 
	{ NOTE_E4, 90 }, 
	{ NOTE_E4, 188 }, 
	{ NOTE_E4, 94 }, 
	{ NOTE_E4, 94 }, 
	{ NOTE_E4, 188 }, 
	{ NOTE_E4, 94 }, 
	{ NOTE_E4, 94 }, 
	{ NOTE_D4, 188 }, 
	{ NOTE_G4, 188 }, 
	{ NOTE_D4, 188 }, 
	{ NOTE_E4, 372 }, 
	{ NOTE_E4, 94 }, 
	{ NOTE_E4, 94 }, 
	{ NOTE_E4, 188 }, 
	{ NOTE_E4, 94 }, 
	{ NOTE_E4, 94 }, 
	{ NOTE_E4, 188 }, 
	{ NOTE_E4, 94 }, 
	{ NOTE_E4, 94 }, 
	{ NOTE_E4, 188 }, 
	{ NOTE_E4, 94 }, 
	{ NOTE_E4, 90 }, 
	{ NOTE_E4, 188 }, 
	{ NOTE_E4, 94 }, 
	{ NOTE_E4, 94 }, 
	{ NOTE_E4, 188 }, 
	{ NOTE_E4, 94 }, 
	{ NOTE_E4, 94 }, 
	{ NOTE_D4, 188 }, 
	{ NOTE_G4, 188 }, 
	{ NOTE_D4, 188 }, 
	{ NOTE_C4, 372 }, 
	{ NOTE_C4, 94 }, 
	{ NOTE_C4, 94 }, 
	{ NOTE_C4, 188 }, 
	{ NOTE_C4, 94 }, 
	{ NOTE_C4, 94 }, 
	{ NOTE_C4, 188 }, 
	{ NOTE_C4, 94 }, 
	{ NOTE_C4, 94 }, 
	{ NOTE_C4, 188 }, 
	{ NOTE_C4, 94 }, 
	{ NOTE_C4, 90 }, 
	{ NOTE_C4, 188 }, 
	{ NOTE_C4, 94 }, 
	{ NOTE_C4, 94 }, 
	{ NOTE_C4, 188 }, 
	{ NOTE_C4, 94 }, 
	{ NOTE_C4, 94 }, 
	{ NOTE_D4, 188 }, 
	{ NOTE_G4, 188 }, 
	{ NOTE_D4, 188 }, 
	{ NOTE_E4, 372 }, 
	{ NOTE_E4, 94 }, 
	{ NOTE_E4, 94 }, 
	{ NOTE_E4, 188 }, 
	{ NOTE_E4, 94 }, 
	{ NOTE_E4, 94 }, 
	{ NOTE_E4, 188 }, 
	{ NOTE_E4, 94 }, 
	{ NOTE_E4, 94 }, 
	{ NOTE_E4, 188 }, 
	{ NOTE_E4, 94 }, 
	{ NOTE_E4, 90 }, 
	{ NOTE_E4, 188 }, 
	{ NOTE_E4, 94 }, 
	{ NOTE_E4, 94 }, 
	{ NOTE_E4, 188 }, 
	{ NOTE_E4, 94 }, 
	{ NOTE_E4, 94 }, 
	{ NOTE_D4, 188 }, 
	{ NOTE_G4, 188 }, 
	{ NOTE_D4, 188 }, 
	{ NOTE_D4, 2903 }, 
	{ NOTE_REST, 94 }, 
	{ NOTE_E3, 375 }, 
	{ NOTE_E3, 94 }, 
	{ NOTE_E3, 94 }, 
	{ NOTE_E3, 188 }, 
	{ NOTE_E3, 94 }, 
	{ NOTE_E3, 94 }, 
	{ NOTE_E3, 188 }, 
	{ NOTE_E3, 94 }, 
	{ NOTE_E3, 94 }, 
	{ NOTE_E3, 188 }, 
	{ NOTE_E3, 94 }, 
	{ NOTE_E3, 90 }, 
	{ NOTE_E3, 188 }, 
	{ NOTE_E3, 94 }, 
	{ NOTE_E3, 94 }, 
	{ NOTE_E3, 188 }, 
	{ NOTE_E3, 94 }, 
	{ NOTE_E3, 94 }, 
	{ NOTE_E3, 188 }, 
	{ NOTE_E3, 94 }, 
	{ NOTE_E3, 94 }, 
	{ NOTE_E3, 188 }, 
	{ NOTE_D4, 2903 }, 
	{ NOTE_REST, 94 }, 
	{ NOTE_E3, 375 }, 
	{ NOTE_E3, 94 }, 
	{ NOTE_E3, 94 }, 
	{ NOTE_E3, 188 }, 
	{ NOTE_E3, 94 }, 
	{ NOTE_E3, 94 }, 
	{ NOTE_E3, 188 }, 
	{ NOTE_E3, 94 }, 
	{ NOTE_E3, 94 }, 
	{ NOTE_E3, 188 }, 
	{ NOTE_E3, 94 }, 
	{ NOTE_E3, 90 }, 
	{ NOTE_E3, 188 }, 
	{ NOTE_E3, 94 }, 
	{ NOTE_E3, 94 }, 
	{ NOTE_E3, 375 }, 
	{ NOTE_D4, 188 }, 
	{ NOTE_G4, 188 }, 
	{ NOTE_D4, 188 }, 
	{ NOTE_E4, 373 }, 
	{ NOTE_E4, 188 }, 
	{ NOTE_E4, 94 }, 
	{ NOTE_D4, 94 }, 
	{ NOTE_B3, 188 }, 
	{ NOTE_D4, 188 }, 
	{ NOTE_D4, 188 }, 
	{ NOTE_D4, 94 }, 
	{ NOTE_C4, 94 }, 
	{ NOTE_A3, 184 }, 
	{ NOTE_C4, 188 }, 
	{ NOTE_C4, 188 }, 
	{ NOTE_C4, 94 }, 
	{ NOTE_B3, 94 }, 
	{ NOTE_G3, 188 }, 
	{ NOTE_D4, 188 }, 
	{ NOTE_G4, 188 }, 
	{ NOTE_D4, 188 }, 
	{ NOTE_E4, 372 }, 
	{ NOTE_E4, 188 }, 
	{ NOTE_E4, 94 }, 
	{ NOTE_D4, 94 }, 
	{ NOTE_B3, 188 }, 
	{ NOTE_D4, 188 }, 
	{ NOTE_D4, 188 }, 
	{ NOTE_D4, 94 }, 
	{ NOTE_C4, 94 }, 
	{ NOTE_A3, 184 }, 
	{ NOTE_C4, 188 }, 
	{ NOTE_C4, 188 }, 
	{ NOTE_C4, 94 }, 
	{ NOTE_B3, 94 }, 
	{ NOTE_G3, 188 }, 
	{ NOTE_D4, 188 }, 
	{ NOTE_G4, 188 }, 
	{ NOTE_D4, 188 }, 
	{ NOTE_E4, 372 }, 
	{ NOTE_E4, 188 }, 
	{ NOTE_E4, 94 }, 
	{ NOTE_D4, 94 }, 
	{ NOTE_B3, 188 }, 
	{ NOTE_D4, 188 }, 
	{ NOTE_D4, 188 }, 
	{ NOTE_D4, 94 }, 
	{ NOTE_C4, 94 }, 
	{ NOTE_A3, 184 }, 
	{ NOTE_C4, 188 }, 
	{ NOTE_C4, 188 }, 
	{ NOTE_C4, 94 }, 
	{ NOTE_B3, 94 }, 
	{ NOTE_G3, 188 }, 
	{ NOTE_D4, 188 }, 
	{ NOTE_G4, 188 }, 
	{ NOTE_D4, 188 }, 
	{ NOTE_E4, 372 }, 
	{ NOTE_E4, 188 }, 
	{ NOTE_E4, 94 }, 
	{ NOTE_D4, 94 }, 
	{ NOTE_B3, 188 }, 
	{ NOTE_D4, 188 }, 
	{ NOTE_D4, 188 }, 
	{ NOTE_D4, 94 }, 
	{ NOTE_C4, 94 }, 
	{ NOTE_A3, 184 }, 
	{ NOTE_C4, 188 }, 
	{ NOTE_C4, 188 }, 
	{ NOTE_C4, 94 }, 
	{ NOTE_B3, 94 }, 
	{ NOTE_G3, 188 }, 
	{ NOTE_D4, 188 }, 
	{ NOTE_G4, 188 }, 
	{ NOTE_D4, 188 }, 
	{ NOTE_E4, 559 }, 
	{ NOTE_REST, 750 }, 
	{ NOTE_REST, 375 }, 
	{ NOTE_REST, 1500 }, 
};
const uint16_t NUM_OF_NOTES0 = sizeof(melody0)/sizeof(melody0[0]);

const Note melody1[] PROGMEM = {
	{ NOTE_REST, 1500 }, 
	{ NOTE_E4, 188 }, 
	{ NOTE_E4, 188 }, 
	{ NOTE_E4, 94 }, 
	{ NOTE_D4, 94 }, 
	{ NOTE_B3, 188 }, 
	{ NOTE_D4, 188 }, 
	{ NOTE_D4, 188 }, 
	{ NOTE_D4, 94 }, 
	{ NOTE_C4, 94 }, 
	{ NOTE_A3, 184 }, 
	{ NOTE_C4, 188 }, 
	{ NOTE_C4, 188 }, 
	{ NOTE_C4, 94 }, 
	{ NOTE_B3, 94 }, 
	{ NOTE_G3, 188 }, 
	{ NOTE_D4, 188 }, 
	{ NOTE_G4, 188 }, 
	{ NOTE_D4, 188 }, 
	{ NOTE_E4, 372 }, 
	{ NOTE_E4, 188 }, 
	{ NOTE_E4, 94 }, 
	{ NOTE_D4, 94 }, 
	{ NOTE_B3, 188 }, 
	{ NOTE_D4, 188 }, 
	{ NOTE_D4, 188 }, 
	{ NOTE_D4, 94 }, 
	{ NOTE_C4, 94 }, 
	{ NOTE_A3, 184 }, 
	{ NOTE_C4, 188 }, 
	{ NOTE_C4, 188 }, 
	{ NOTE_C4, 94 }, 
	{ NOTE_B3, 94 }, 
	{ NOTE_G3, 188 }, 
	{ NOTE_D4, 188 }, 
	{ NOTE_G4, 188 }, 
	{ NOTE_D4, 188 }, 
	{ NOTE_E4, 372 }, 
	{ NOTE_E4, 188 }, 
	{ NOTE_E4, 94 }, 
	{ NOTE_D4, 94 }, 
	{ NOTE_B3, 188 }, 
	{ NOTE_D4, 188 }, 
	{ NOTE_D4, 188 }, 
	{ NOTE_D4, 94 }, 
	{ NOTE_C4, 94 }, 
	{ NOTE_A3, 184 }, 
	{ NOTE_C4, 188 }, 
	{ NOTE_C4, 188 }, 
	{ NOTE_C4, 94 }, 
	{ NOTE_B3, 94 }, 
	{ NOTE_G3, 188 }, 
	{ NOTE_D4, 188 }, 
	{ NOTE_G4, 188 }, 
	{ NOTE_D4, 188 }, 
	{ NOTE_E4, 184 }, 
	{ NOTE_E4, 188 }, 
	{ NOTE_E4, 188 }, 
	{ NOTE_E4, 94 }, 
	{ NOTE_D4, 94 }, 
	{ NOTE_B3, 188 }, 
	{ NOTE_D4, 188 }, 
	{ NOTE_D4, 188 }, 
	{ NOTE_D4, 94 }, 
	{ NOTE_C4, 94 }, 
	{ NOTE_A3, 184 }, 
	{ NOTE_C4, 188 }, 
	{ NOTE_C4, 188 }, 
	{ NOTE_C4, 94 }, 
	{ NOTE_B3, 94 }, 
	{ NOTE_G3, 188 }, 
	{ NOTE_D4, 188 }, 
	{ NOTE_G4, 188 }, 
	{ NOTE_D4, 188 }, 
	{ NOTE_E4, 184 }, 
	{ NOTE_E4, 188 }, 
	{ NOTE_G5, 188 }, 
	{ NOTE_FS5, 62 }, 
	{ NOTE_G5, 62 }, 
	{ NOTE_FS5, 62 }, 
	{ NOTE_G5, 62 }, 
	{ NOTE_FS5, 62 }, 
	{ NOTE_G5, 62 }, 
	{ NOTE_B5, 188 }, 
	{ NOTE_G5, 188 }, 
	{ NOTE_FS5, 62 }, 
	{ NOTE_G5, 62 }, 
	{ NOTE_FS5, 62 }, 
	{ NOTE_G5, 62 }, 
	{ NOTE_FS5, 62 }, 
	{ NOTE_G5, 66 }, 
	{ NOTE_G5, 188 }, 
	{ NOTE_E5, 188 }, 
	{ NOTE_E5, 375 }, 
	{ NOTE_D5, 188 }, 
	{ NOTE_G5, 188 }, 
	{ NOTE_D5, 188 }, 
	{ NOTE_E5, 373 }, 
	{ NOTE_G5, 188 }, 
	{ NOTE_FS5, 62 }, 
	{ NOTE_G5, 62 }, 
	{ NOTE_FS5, 62 }, 
	{ NOTE_G5, 62 }, 
	{ NOTE_FS5, 62 }, 
	{ NOTE_G5, 62 }, 
	{ NOTE_B5, 188 }, 
	{ NOTE_G5, 188 }, 
	{ NOTE_FS5, 62 }, 
	{ NOTE_G5, 62 }, 
	{ NOTE_FS5, 62 }, 
	{ NOTE_G5, 62 }, 
	{ NOTE_FS5, 62 }, 
	{ NOTE_G5, 66 }, 
	{ NOTE_G5, 188 }, 
	{ NOTE_E5, 188 }, 
	{ NOTE_E5, 375 }, 
	{ NOTE_D5, 188 }, 
	{ NOTE_G5, 188 }, 
	{ NOTE_D5, 188 }, 
	{ NOTE_E5, 373 }, 
	{ NOTE_G5, 188 }, 
	{ NOTE_FS5, 62 }, 
	{ NOTE_G5, 62 }, 
	{ NOTE_FS5, 62 }, 
	{ NOTE_G5, 62 }, 
	{ NOTE_FS5, 62 }, 
	{ NOTE_G5, 62 }, 
	{ NOTE_B5, 188 }, 
	{ NOTE_G5, 188 }, 
	{ NOTE_FS5, 62 }, 
	{ NOTE_G5, 62 }, 
	{ NOTE_FS5, 62 }, 
	{ NOTE_G5, 62 }, 
	{ NOTE_FS5, 62 }, 
	{ NOTE_G5, 66 }, 
	{ NOTE_G5, 188 }, 
	{ NOTE_E5, 188 }, 
	{ NOTE_E5, 375 }, 
	{ NOTE_D5, 188 }, 
	{ NOTE_G5, 188 }, 
	{ NOTE_D5, 188 }, 
	{ NOTE_E5, 373 }, 
	{ NOTE_G5, 188 }, 
	{ NOTE_FS5, 62 }, 
	{ NOTE_G5, 62 }, 
	{ NOTE_FS5, 62 }, 
	{ NOTE_G5, 62 }, 
	{ NOTE_FS5, 62 }, 
	{ NOTE_G5, 62 }, 
	{ NOTE_B5, 188 }, 
	{ NOTE_G5, 188 }, 
	{ NOTE_FS5, 62 }, 
	{ NOTE_G5, 62 }, 
	{ NOTE_FS5, 62 }, 
	{ NOTE_G5, 62 }, 
	{ NOTE_FS5, 62 }, 
	{ NOTE_G5, 66 }, 
	{ NOTE_G5, 188 }, 
	{ NOTE_E5, 188 }, 
	{ NOTE_E5, 375 }, 
	{ NOTE_D5, 188 }, 
	{ NOTE_G5, 188 }, 
	{ NOTE_D5, 188 }, 
	{ NOTE_E5, 373 }, 
	{ NOTE_G5, 188 }, 
	{ NOTE_FS5, 62 }, 
	{ NOTE_G5, 62 }, 
	{ NOTE_FS5, 62 }, 
	{ NOTE_G5, 62 }, 
	{ NOTE_FS5, 62 }, 
	{ NOTE_G5, 62 }, 
	{ NOTE_B5, 188 }, 
	{ NOTE_G5, 188 }, 
	{ NOTE_FS5, 62 }, 
	{ NOTE_G5, 62 }, 
	{ NOTE_FS5, 62 }, 
	{ NOTE_G5, 62 }, 
	{ NOTE_FS5, 62 }, 
	{ NOTE_G5, 66 }, 
	{ NOTE_G5, 188 }, 
	{ NOTE_E5, 188 }, 
	{ NOTE_E5, 375 }, 
	{ NOTE_D5, 188 }, 
	{ NOTE_G5, 188 }, 
	{ NOTE_D5, 188 }, 
	{ NOTE_E5, 373 }, 
	{ NOTE_G5, 188 }, 
	{ NOTE_FS5, 62 }, 
	{ NOTE_G5, 62 }, 
	{ NOTE_FS5, 62 }, 
	{ NOTE_G5, 62 }, 
	{ NOTE_FS5, 62 }, 
	{ NOTE_G5, 62 }, 
	{ NOTE_B5, 188 }, 
	{ NOTE_G5, 188 }, 
	{ NOTE_FS5, 62 }, 
	{ NOTE_G5, 62 }, 
	{ NOTE_FS5, 62 }, 
	{ NOTE_G5, 62 }, 
	{ NOTE_FS5, 62 }, 
	{ NOTE_G5, 66 }, 
	{ NOTE_G5, 188 }, 
	{ NOTE_E5, 188 }, 
	{ NOTE_E5, 375 }, 
	{ NOTE_D5, 188 }, 
	{ NOTE_G5, 188 }, 
	{ NOTE_D5, 188 }, 
	{ NOTE_E5, 373 }, 
	{ NOTE_G5, 188 }, 
	{ NOTE_FS5, 62 }, 
	{ NOTE_G5, 62 }, 
	{ NOTE_FS5, 62 }, 
	{ NOTE_G5, 62 }, 
	{ NOTE_FS5, 62 }, 
	{ NOTE_G5, 62 }, 
	{ NOTE_B5, 188 }, 
	{ NOTE_G5, 188 }, 
	{ NOTE_FS5, 62 }, 
	{ NOTE_G5, 62 }, 
	{ NOTE_FS5, 62 }, 
	{ NOTE_G5, 62 }, 
	{ NOTE_FS5, 62 }, 
	{ NOTE_G5, 66 }, 
	{ NOTE_G5, 188 }, 
	{ NOTE_E5, 188 }, 
	{ NOTE_E5, 375 }, 
	{ NOTE_D5, 188 }, 
	{ NOTE_G5, 188 }, 
	{ NOTE_D5, 188 }, 
	{ NOTE_E5, 373 }, 
	{ NOTE_G5, 188 }, 
	{ NOTE_FS5, 62 }, 
	{ NOTE_G5, 62 }, 
	{ NOTE_FS5, 62 }, 
	{ NOTE_G5, 62 }, 
	{ NOTE_FS5, 62 }, 
	{ NOTE_G5, 62 }, 
	{ NOTE_B5, 188 }, 
	{ NOTE_G5, 188 }, 
	{ NOTE_FS5, 62 }, 
	{ NOTE_G5, 62 }, 
	{ NOTE_FS5, 62 }, 
	{ NOTE_G5, 62 }, 
	{ NOTE_FS5, 62 }, 
	{ NOTE_G5, 66 }, 
	{ NOTE_G5, 188 }, 
	{ NOTE_E5, 188 }, 
	{ NOTE_E5, 375 }, 
	{ NOTE_A4, 188 }, 
	{ NOTE_D5, 188 }, 
	{ NOTE_A4, 188 }, 
	{ NOTE_B4, 373 }, 
	{ NOTE_REST, 750 }, 
	{ NOTE_REST, 375 }, 
	{ NOTE_REST, 187 }, 
	{ NOTE_REST, 750 }, 
	{ NOTE_A4, 188 }, 
	{ NOTE_D5, 188 }, 
	{ NOTE_A4, 188 }, 
	{ NOTE_B4, 374 }, 
	{ NOTE_REST, 750 }, 
	{ NOTE_REST, 375 }, 
	{ NOTE_REST, 187 }, 
	{ NOTE_REST, 750 }, 
	{ NOTE_A4, 188 }, 
	{ NOTE_D5, 188 }, 
	{ NOTE_A4, 188 }, 
	{ NOTE_G4, 374 }, 
	{ NOTE_REST, 750 }, 
	{ NOTE_REST, 375 }, 
	{ NOTE_REST, 187 }, 
	{ NOTE_REST, 750 }, 
	{ NOTE_A4, 188 }, 
	{ NOTE_D5, 188 }, 
	{ NOTE_A4, 188 }, 
	{ NOTE_B4, 374 }, 
	{ NOTE_REST, 750 }, 
	{ NOTE_REST, 375 }, 
	{ NOTE_REST, 187 }, 
	{ NOTE_REST, 750 }, 
	{ NOTE_A4, 188 }, 
	{ NOTE_D5, 188 }, 
	{ NOTE_A4, 188 }, 
	{ NOTE_B4, 374 }, 
	{ NOTE_E4, 94 }, 
	{ NOTE_E4, 94 }, 
	{ NOTE_B4, 188 }, 
	{ NOTE_E4, 94 }, 
	{ NOTE_E4, 94 }, 
	{ NOTE_B4, 188 }, 
	{ NOTE_E4, 94 }, 
	{ NOTE_E4, 94 }, 
	{ NOTE_B4, 188 }, 
	{ NOTE_E4, 94 }, 
	{ NOTE_E4, 90 }, 
	{ NOTE_B4, 188 }, 
	{ NOTE_E4, 94 }, 
	{ NOTE_E4, 94 }, 
	{ NOTE_B4, 188 }, 
	{ NOTE_E4, 94 }, 
	{ NOTE_E4, 94 }, 
	{ NOTE_A4, 188 }, 
	{ NOTE_D5, 188 }, 
	{ NOTE_A4, 188 }, 
	{ NOTE_B4, 372 }, 
	{ NOTE_E4, 94 }, 
	{ NOTE_E4, 94 }, 
	{ NOTE_B4, 188 }, 
	{ NOTE_E4, 94 }, 
	{ NOTE_E4, 94 }, 
	{ NOTE_B4, 188 }, 
	{ NOTE_E4, 94 }, 
	{ NOTE_E4, 94 }, 
	{ NOTE_B4, 188 }, 
	{ NOTE_E4, 94 }, 
	{ NOTE_E4, 90 }, 
	{ NOTE_B4, 188 }, 
	{ NOTE_E4, 94 }, 
	{ NOTE_E4, 94 }, 
	{ NOTE_B4, 188 }, 
	{ NOTE_E4, 94 }, 
	{ NOTE_E4, 94 }, 
	{ NOTE_A4, 188 }, 
	{ NOTE_D5, 188 }, 
	{ NOTE_A4, 188 }, 
	{ NOTE_G4, 372 }, 
	{ NOTE_C4, 94 }, 
	{ NOTE_C4, 94 }, 
	{ NOTE_G4, 188 }, 
	{ NOTE_C4, 94 }, 
	{ NOTE_C4, 94 }, 
	{ NOTE_G4, 188 }, 
	{ NOTE_C4, 94 }, 
	{ NOTE_C4, 94 }, 
	{ NOTE_G4, 188 }, 
	{ NOTE_C4, 94 }, 
	{ NOTE_C4, 90 }, 
	{ NOTE_G4, 188 }, 
	{ NOTE_C4, 94 }, 
	{ NOTE_C4, 94 }, 
	{ NOTE_G4, 188 }, 
	{ NOTE_C4, 94 }, 
	{ NOTE_C4, 94 }, 
	{ NOTE_A4, 188 }, 
	{ NOTE_D5, 188 }, 
	{ NOTE_A4, 188 }, 
	{ NOTE_B4, 372 }, 
	{ NOTE_E4, 94 }, 
	{ NOTE_E4, 94 }, 
	{ NOTE_B4, 188 }, 
	{ NOTE_E4, 94 }, 
	{ NOTE_E4, 94 }, 
	{ NOTE_B4, 188 }, 
	{ NOTE_E4, 94 }, 
	{ NOTE_E4, 94 }, 
	{ NOTE_B4, 188 }, 
	{ NOTE_E4, 94 }, 
	{ NOTE_E4, 90 }, 
	{ NOTE_B4, 188 }, 
	{ NOTE_E4, 94 }, 
	{ NOTE_E4, 94 }, 
	{ NOTE_B4, 188 }, 
	{ NOTE_E4, 94 }, 
	{ NOTE_E4, 94 }, 
	{ NOTE_A4, 188 }, 
	{ NOTE_D5, 188 }, 
	{ NOTE_A4, 188 }, 
	{ NOTE_A4, 2903 }, 
	{ NOTE_REST, 94 }, 
	{ NOTE_B3, 375 }, 
	{ NOTE_E3, 94 }, 
	{ NOTE_E3, 94 }, 
	{ NOTE_B3, 188 }, 
	{ NOTE_E3, 94 }, 
	{ NOTE_E3, 94 }, 
	{ NOTE_B3, 188 }, 
	{ NOTE_E3, 94 }, 
	{ NOTE_E3, 94 }, 
	{ NOTE_B3, 188 }, 
	{ NOTE_E3, 94 }, 
	{ NOTE_E3, 90 }, 
	{ NOTE_B3, 188 }, 
	{ NOTE_E3, 94 }, 
	{ NOTE_E3, 94 }, 
	{ NOTE_B3, 188 }, 
	{ NOTE_E3, 94 }, 
	{ NOTE_E3, 94 }, 
	{ NOTE_B3, 188 }, 
	{ NOTE_E3, 94 }, 
	{ NOTE_E3, 94 }, 
	{ NOTE_B3, 188 }, 
	{ NOTE_A4, 2903 }, 
	{ NOTE_REST, 94 }, 
	{ NOTE_B3, 375 }, 
	{ NOTE_E3, 94 }, 
	{ NOTE_E3, 94 }, 
	{ NOTE_B3, 188 }, 
	{ NOTE_E3, 94 }, 
	{ NOTE_E3, 94 }, 
	{ NOTE_B3, 188 }, 
	{ NOTE_E3, 94 }, 
	{ NOTE_E3, 94 }, 
	{ NOTE_B3, 188 }, 
	{ NOTE_E3, 94 }, 
	{ NOTE_E3, 90 }, 
	{ NOTE_B3, 188 }, 
	{ NOTE_E3, 94 }, 
	{ NOTE_E3, 94 }, 
	{ NOTE_B3, 375 }, 
	{ NOTE_A4, 188 }, 
	{ NOTE_D5, 188 }, 
	{ NOTE_A4, 188 }, 
	{ NOTE_B4, 373 }, 
	{ NOTE_G5, 188 }, 
	{ NOTE_FS5, 62 }, 
	{ NOTE_G5, 62 }, 
	{ NOTE_FS5, 62 }, 
	{ NOTE_G5, 62 }, 
	{ NOTE_FS5, 62 }, 
	{ NOTE_G5, 62 }, 
	{ NOTE_B5, 188 }, 
	{ NOTE_G5, 188 }, 
	{ NOTE_FS5, 62 }, 
	{ NOTE_G5, 62 }, 
	{ NOTE_FS5, 62 }, 
	{ NOTE_G5, 62 }, 
	{ NOTE_FS5, 62 }, 
	{ NOTE_G5, 66 }, 
	{ NOTE_G5, 188 }, 
	{ NOTE_E5, 188 }, 
	{ NOTE_E5, 375 }, 
	{ NOTE_D5, 188 }, 
	{ NOTE_G5, 188 }, 
	{ NOTE_D5, 188 }, 
	{ NOTE_E5, 373 }, 
	{ NOTE_G5, 188 }, 
	{ NOTE_FS5, 62 }, 
	{ NOTE_G5, 62 }, 
	{ NOTE_FS5, 62 }, 
	{ NOTE_G5, 62 }, 
	{ NOTE_FS5, 62 }, 
	{ NOTE_G5, 62 }, 
	{ NOTE_B5, 188 }, 
	{ NOTE_G5, 188 }, 
	{ NOTE_FS5, 62 }, 
	{ NOTE_G5, 62 }, 
	{ NOTE_FS5, 62 }, 
	{ NOTE_G5, 62 }, 
	{ NOTE_FS5, 62 }, 
	{ NOTE_G5, 66 }, 
	{ NOTE_G5, 188 }, 
	{ NOTE_E5, 188 }, 
	{ NOTE_E5, 375 }, 
	{ NOTE_D5, 188 }, 
	{ NOTE_G5, 188 }, 
	{ NOTE_D5, 188 }, 
	{ NOTE_E5, 373 }, 
	{ NOTE_G5, 188 }, 
	{ NOTE_FS5, 62 }, 
	{ NOTE_G5, 62 }, 
	{ NOTE_FS5, 62 }, 
	{ NOTE_G5, 62 }, 
	{ NOTE_FS5, 62 }, 
	{ NOTE_G5, 62 }, 
	{ NOTE_B5, 188 }, 
	{ NOTE_G5, 188 }, 
	{ NOTE_FS5, 62 }, 
	{ NOTE_G5, 62 }, 
	{ NOTE_FS5, 62 }, 
	{ NOTE_G5, 62 }, 
	{ NOTE_FS5, 62 }, 
	{ NOTE_G5, 66 }, 
	{ NOTE_G5, 188 }, 
	{ NOTE_E5, 188 }, 
	{ NOTE_E5, 375 }, 
	{ NOTE_D5, 188 }, 
	{ NOTE_G5, 188 }, 
	{ NOTE_D5, 188 }, 
	{ NOTE_E5, 373 }, 
	{ NOTE_G5, 188 }, 
	{ NOTE_FS5, 62 }, 
	{ NOTE_G5, 62 }, 
	{ NOTE_FS5, 62 }, 
	{ NOTE_G5, 62 }, 
	{ NOTE_FS5, 62 }, 
	{ NOTE_G5, 62 }, 
	{ NOTE_B5, 188 }, 
	{ NOTE_G5, 188 }, 
	{ NOTE_FS5, 62 }, 
	{ NOTE_G5, 62 }, 
	{ NOTE_FS5, 62 }, 
	{ NOTE_G5, 62 }, 
	{ NOTE_FS5, 62 }, 
	{ NOTE_G5, 66 }, 
	{ NOTE_G5, 188 }, 
	{ NOTE_E5, 188 }, 
	{ NOTE_E5, 375 }, 
	{ NOTE_D5, 188 }, 
	{ NOTE_G5, 188 }, 
	{ NOTE_D5, 188 }, 
	{ NOTE_E5, 373 }, 
	{ NOTE_G5, 188 }, 
	{ NOTE_FS5, 62 }, 
	{ NOTE_G5, 62 }, 
	{ NOTE_FS5, 62 }, 
	{ NOTE_G5, 62 }, 
	{ NOTE_FS5, 62 }, 
	{ NOTE_G5, 62 }, 
	{ NOTE_B5, 188 }, 
	{ NOTE_G5, 188 }, 
	{ NOTE_FS5, 62 }, 
	{ NOTE_G5, 62 }, 
	{ NOTE_FS5, 62 }, 
	{ NOTE_G5, 62 }, 
	{ NOTE_FS5, 62 }, 
	{ NOTE_G5, 66 }, 
	{ NOTE_G5, 188 }, 
	{ NOTE_E5, 188 }, 
	{ NOTE_E5, 375 }, 
	{ NOTE_D5, 188 }, 
	{ NOTE_G5, 188 }, 
	{ NOTE_D5, 188 }, 
	{ NOTE_E5, 373 }, 
	{ NOTE_G5, 188 }, 
	{ NOTE_FS5, 62 }, 
	{ NOTE_G5, 62 }, 
	{ NOTE_FS5, 62 }, 
	{ NOTE_G5, 62 }, 
	{ NOTE_FS5, 62 }, 
	{ NOTE_G5, 62 }, 
	{ NOTE_B5, 188 }, 
	{ NOTE_G5, 188 }, 
	{ NOTE_FS5, 62 }, 
	{ NOTE_G5, 62 }, 
	{ NOTE_FS5, 62 }, 
	{ NOTE_G5, 62 }, 
	{ NOTE_FS5, 62 }, 
	{ NOTE_G5, 66 }, 
	{ NOTE_G5, 188 }, 
	{ NOTE_E5, 188 }, 
	{ NOTE_E5, 375 }, 
	{ NOTE_D5, 188 }, 
	{ NOTE_G5, 188 }, 
	{ NOTE_D5, 188 }, 
	{ NOTE_E5, 373 }, 
	{ NOTE_G5, 188 }, 
	{ NOTE_FS5, 62 }, 
	{ NOTE_G5, 62 }, 
	{ NOTE_FS5, 62 }, 
	{ NOTE_G5, 62 }, 
	{ NOTE_FS5, 62 }, 
	{ NOTE_G5, 62 }, 
	{ NOTE_B5, 188 }, 
	{ NOTE_G5, 188 }, 
	{ NOTE_FS5, 62 }, 
	{ NOTE_G5, 62 }, 
	{ NOTE_FS5, 62 }, 
	{ NOTE_G5, 62 }, 
	{ NOTE_FS5, 62 }, 
	{ NOTE_G5, 66 }, 
	{ NOTE_G5, 188 }, 
	{ NOTE_E5, 188 }, 
	{ NOTE_E5, 375 }, 
	{ NOTE_D5, 188 }, 
	{ NOTE_G5, 188 }, 
	{ NOTE_D5, 188 }, 
	{ NOTE_E5, 373 }, 
	{ NOTE_G5, 188 }, 
	{ NOTE_FS5, 62 }, 
	{ NOTE_G5, 62 }, 
	{ NOTE_FS5, 62 }, 
	{ NOTE_G5, 62 }, 
	{ NOTE_FS5, 62 }, 
	{ NOTE_G5, 62 }, 
	{ NOTE_B5, 188 }, 
	{ NOTE_G5, 188 }, 
	{ NOTE_FS5, 62 }, 
	{ NOTE_G5, 62 }, 
	{ NOTE_FS5, 62 }, 
	{ NOTE_G5, 62 }, 
	{ NOTE_FS5, 62 }, 
	{ NOTE_G5, 66 }, 
	{ NOTE_G5, 188 }, 
	{ NOTE_E5, 188 }, 
	{ NOTE_E5, 375 }, 
	{ NOTE_A4, 188 }, 
	{ NOTE_D5, 188 }, 
	{ NOTE_A4, 188 }, 
	{ NOTE_B4, 373 }, 
	{ NOTE_E4, 94 }, 
	{ NOTE_E4, 94 }, 
	{ NOTE_B4, 188 }, 
	{ NOTE_E4, 94 }, 
	{ NOTE_E4, 94 }, 
	{ NOTE_B4, 188 }, 
	{ NOTE_E4, 94 }, 
	{ NOTE_E4, 94 }, 
	{ NOTE_B4, 188 }, 
	{ NOTE_E4, 94 }, 
	{ NOTE_E4, 90 }, 
	{ NOTE_B4, 188 }, 
	{ NOTE_E4, 94 }, 
	{ NOTE_E4, 94 }, 
	{ NOTE_B4, 188 }, 
	{ NOTE_E4, 94 }, 
	{ NOTE_E4, 94 }, 
	{ NOTE_A4, 188 }, 
	{ NOTE_D5, 188 }, 
	{ NOTE_A4, 188 }, 
	{ NOTE_B4, 372 }, 
	{ NOTE_E4, 94 }, 
	{ NOTE_E4, 94 }, 
	{ NOTE_B4, 188 }, 
	{ NOTE_E4, 94 }, 
	{ NOTE_E4, 94 }, 
	{ NOTE_B4, 188 }, 
	{ NOTE_E4, 94 }, 
	{ NOTE_E4, 94 }, 
	{ NOTE_B4, 188 }, 
	{ NOTE_E4, 94 }, 
	{ NOTE_E4, 90 }, 
	{ NOTE_B4, 188 }, 
	{ NOTE_E4, 94 }, 
	{ NOTE_E4, 94 }, 
	{ NOTE_B4, 188 }, 
	{ NOTE_E4, 94 }, 
	{ NOTE_E4, 94 }, 
	{ NOTE_A4, 188 }, 
	{ NOTE_D5, 188 }, 
	{ NOTE_A4, 188 }, 
	{ NOTE_G4, 372 }, 
	{ NOTE_C4, 94 }, 
	{ NOTE_C4, 94 }, 
	{ NOTE_G4, 188 }, 
	{ NOTE_C4, 94 }, 
	{ NOTE_C4, 94 }, 
	{ NOTE_G4, 188 }, 
	{ NOTE_C4, 94 }, 
	{ NOTE_C4, 94 }, 
	{ NOTE_G4, 188 }, 
	{ NOTE_C4, 94 }, 
	{ NOTE_C4, 90 }, 
	{ NOTE_G4, 188 }, 
	{ NOTE_C4, 94 }, 
	{ NOTE_C4, 94 }, 
	{ NOTE_G4, 188 }, 
	{ NOTE_C4, 94 }, 
	{ NOTE_C4, 94 }, 
	{ NOTE_A4, 188 }, 
	{ NOTE_D5, 188 }, 
	{ NOTE_A4, 188 }, 
	{ NOTE_B4, 372 }, 
	{ NOTE_E4, 94 }, 
	{ NOTE_E4, 94 }, 
	{ NOTE_B4, 188 }, 
	{ NOTE_E4, 94 }, 
	{ NOTE_E4, 94 }, 
	{ NOTE_B4, 188 }, 
	{ NOTE_E4, 94 }, 
	{ NOTE_E4, 94 }, 
	{ NOTE_B4, 188 }, 
	{ NOTE_E4, 94 }, 
	{ NOTE_E4, 90 }, 
	{ NOTE_B4, 188 }, 
	{ NOTE_E4, 94 }, 
	{ NOTE_E4, 94 }, 
	{ NOTE_B4, 188 }, 
	{ NOTE_E4, 94 }, 
	{ NOTE_E4, 94 }, 
	{ NOTE_A4, 188 }, 
	{ NOTE_D5, 188 }, 
	{ NOTE_A4, 188 }, 
	{ NOTE_B4, 372 }, 
	{ NOTE_E4, 94 }, 
	{ NOTE_E4, 94 }, 
	{ NOTE_B4, 188 }, 
	{ NOTE_E4, 94 }, 
	{ NOTE_E4, 94 }, 
	{ NOTE_B4, 188 }, 
	{ NOTE_E4, 94 }, 
	{ NOTE_E4, 94 }, 
	{ NOTE_B4, 188 }, 
	{ NOTE_E4, 94 }, 
	{ NOTE_E4, 90 }, 
	{ NOTE_B4, 188 }, 
	{ NOTE_E4, 94 }, 
	{ NOTE_E4, 94 }, 
	{ NOTE_B4, 188 }, 
	{ NOTE_E4, 94 }, 
	{ NOTE_E4, 94 }, 
	{ NOTE_A4, 188 }, 
	{ NOTE_D5, 188 }, 
	{ NOTE_A4, 188 }, 
	{ NOTE_B4, 372 }, 
	{ NOTE_E4, 94 }, 
	{ NOTE_E4, 94 }, 
	{ NOTE_B4, 188 }, 
	{ NOTE_E4, 94 }, 
	{ NOTE_E4, 94 }, 
	{ NOTE_B4, 188 }, 
	{ NOTE_E4, 94 }, 
	{ NOTE_E4, 94 }, 
	{ NOTE_B4, 188 }, 
	{ NOTE_E4, 94 }, 
	{ NOTE_E4, 90 }, 
	{ NOTE_B4, 188 }, 
	{ NOTE_E4, 94 }, 
	{ NOTE_E4, 94 }, 
	{ NOTE_B4, 188 }, 
	{ NOTE_E4, 94 }, 
	{ NOTE_E4, 94 }, 
	{ NOTE_A4, 188 }, 
	{ NOTE_D5, 188 }, 
	{ NOTE_A4, 188 }, 
	{ NOTE_G4, 372 }, 
	{ NOTE_C4, 94 }, 
	{ NOTE_C4, 94 }, 
	{ NOTE_G4, 188 }, 
	{ NOTE_C4, 94 }, 
	{ NOTE_C4, 94 }, 
	{ NOTE_G4, 188 }, 
	{ NOTE_C4, 94 }, 
	{ NOTE_C4, 94 }, 
	{ NOTE_G4, 188 }, 
	{ NOTE_C4, 94 }, 
	{ NOTE_C4, 90 }, 
	{ NOTE_G4, 188 }, 
	{ NOTE_C4, 94 }, 
	{ NOTE_C4, 94 }, 
	{ NOTE_G4, 188 }, 
	{ NOTE_C4, 94 }, 
	{ NOTE_C4, 94 }, 
	{ NOTE_A4, 188 }, 
	{ NOTE_D5, 188 }, 
	{ NOTE_A4, 188 }, 
	{ NOTE_B4, 372 }, 
	{ NOTE_E4, 94 }, 
	{ NOTE_E4, 94 }, 
	{ NOTE_B4, 188 }, 
	{ NOTE_E4, 94 }, 
	{ NOTE_E4, 94 }, 
	{ NOTE_B4, 188 }, 
	{ NOTE_E4, 94 }, 
	{ NOTE_E4, 94 }, 
	{ NOTE_B4, 188 }, 
	{ NOTE_E4, 94 }, 
	{ NOTE_E4, 90 }, 
	{ NOTE_B4, 188 }, 
	{ NOTE_E4, 94 }, 
	{ NOTE_E4, 94 }, 
	{ NOTE_B4, 188 }, 
	{ NOTE_E4, 94 }, 
	{ NOTE_E4, 94 }, 
	{ NOTE_A4, 188 }, 
	{ NOTE_D5, 188 }, 
	{ NOTE_A4, 188 }, 
	{ NOTE_A4, 2903 }, 
	{ NOTE_REST, 94 }, 
	{ NOTE_B3, 375 }, 
	{ NOTE_E3, 94 }, 
	{ NOTE_E3, 94 }, 
	{ NOTE_B3, 188 }, 
	{ NOTE_E3, 94 }, 
	{ NOTE_E3, 94 }, 
	{ NOTE_B3, 188 }, 
	{ NOTE_E3, 94 }, 
	{ NOTE_E3, 94 }, 
	{ NOTE_B3, 188 }, 
	{ NOTE_E3, 94 }, 
	{ NOTE_E3, 90 }, 
	{ NOTE_B3, 188 }, 
	{ NOTE_E3, 94 }, 
	{ NOTE_E3, 94 }, 
	{ NOTE_B3, 188 }, 
	{ NOTE_E3, 94 }, 
	{ NOTE_E3, 94 }, 
	{ NOTE_B3, 188 }, 
	{ NOTE_E3, 94 }, 
	{ NOTE_E3, 94 }, 
	{ NOTE_B3, 188 }, 
	{ NOTE_A4, 2903 }, 
	{ NOTE_REST, 94 }, 
	{ NOTE_B3, 375 }, 
	{ NOTE_E3, 94 }, 
	{ NOTE_E3, 94 }, 
	{ NOTE_B3, 188 }, 
	{ NOTE_E3, 94 }, 
	{ NOTE_E3, 94 }, 
	{ NOTE_B3, 188 }, 
	{ NOTE_E3, 94 }, 
	{ NOTE_E3, 94 }, 
	{ NOTE_E4, 3560 }, 
	{ NOTE_D6, 937 }, 
	{ NOTE_B5, 188 }, 
	{ NOTE_G6, 937 }, 
	{ NOTE_G6, 94 }, 
	{ NOTE_E6, 94 }, 
	{ NOTE_AS5, 188 }, 
	{ NOTE_A5, 94 }, 
	{ NOTE_G5, 94 }, 
	{ NOTE_E5, 561 }, 
	{ NOTE_D5, 94 }, 
	{ NOTE_C5, 94 }, 
	{ NOTE_A5, 4031 }, 
	{ NOTE_B5, 94 }, 
	{ NOTE_D6, 94 }, 
	{ NOTE_A5, 94 }, 
	{ NOTE_B5, 94 }, 
	{ NOTE_D6, 94 }, 
	{ NOTE_A5, 94 }, 
	{ NOTE_B5, 94 }, 
	{ NOTE_D6, 94 }, 
	{ NOTE_A5, 94 }, 
	{ NOTE_B5, 94 }, 
	{ NOTE_D6, 94 }, 
	{ NOTE_A5, 186 }, 
	{ NOTE_G5, 94 }, 
	{ NOTE_E5, 92 }, 
	{ NOTE_E5, 188 }, 
	{ NOTE_D5, 1124 }, 
	{ NOTE_E6, 282 }, 
	{ NOTE_G6, 94 }, 
	{ NOTE_B6, 94 }, 
	{ NOTE_G6, 94 }, 
	{ NOTE_A6, 94 }, 
	{ NOTE_G6, 94 }, 
	{ NOTE_E6, 94 }, 
	{ NOTE_G6, 94 }, 
	{ NOTE_B6, 94 }, 
	{ NOTE_G6, 94 }, 
	{ NOTE_A6, 94 }, 
	{ NOTE_G6, 94 }, 
	{ NOTE_E6, 94 }, 
	{ NOTE_G6, 94 }, 
	{ NOTE_B6, 94 }, 
	{ NOTE_G6, 90 }, 
	{ NOTE_A6, 94 }, 
	{ NOTE_G6, 94 }, 
	{ NOTE_E6, 94 }, 
	{ NOTE_G6, 94 }, 
	{ NOTE_B6, 94 }, 
	{ NOTE_G6, 94 }, 
	{ NOTE_A6, 94 }, 
	{ NOTE_G6, 94 }, 
	{ NOTE_E6, 94 }, 
	{ NOTE_G6, 94 }, 
	{ NOTE_B6, 94 }, 
	{ NOTE_G6, 94 }, 
	{ NOTE_A6, 94 }, 
	{ NOTE_G6, 94 }, 
	{ NOTE_E6, 94 }, 
	{ NOTE_G6, 90 }, 
	{ NOTE_B6, 94 }, 
	{ NOTE_G6, 94 }, 
	{ NOTE_A6, 94 }, 
	{ NOTE_G6, 94 }, 
	{ NOTE_E6, 94 }, 
	{ NOTE_G6, 94 }, 
	{ NOTE_B6, 94 }, 
	{ NOTE_G6, 94 }, 
	{ NOTE_A6, 94 }, 
	{ NOTE_G6, 94 }, 
	{ NOTE_E6, 94 }, 
	{ NOTE_G6, 94 }, 
	{ NOTE_C7, 372 }, 
	{ NOTE_C7, 188 }, 
	{ NOTE_C7, 375 }, 
	{ NOTE_C7, 188 }, 
	{ NOTE_C7, 188 }, 
	{ NOTE_C7, 375 }, 
	{ NOTE_C7, 186 }, 
	{ NOTE_C7, 94 }, 
	{ NOTE_C7, 94 }, 
	{ NOTE_C7, 562 }, 
	{ NOTE_B6, 188 }, 
	{ NOTE_C7, 94 }, 
	{ NOTE_A6, 94 }, 
	{ NOTE_B6, 188 }, 
	{ NOTE_G6, 94 }, 
	{ NOTE_A6, 92 }, 
	{ NOTE_FS6, 94 }, 
	{ NOTE_G6, 94 }, 
	{ NOTE_E6, 188 }, 
	{ NOTE_E6, 1124 }, 
	{ NOTE_REST, 188 }, 
	{ NOTE_A5, 188 }, 
	{ NOTE_B5, 188 }, 
	{ NOTE_E6, 188 }, 
	{ NOTE_D6, 375 }, 
	{ NOTE_E6, 94 }, 
	{ NOTE_D6, 94 }, 
	{ NOTE_B5, 185 }, 
	{ NOTE_D6, 188 }, 
	{ NOTE_B5, 188 }, 
	{ NOTE_A5, 94 }, 
	{ NOTE_G5, 94 }, 
	{ NOTE_E5, 188 }, 
	{ NOTE_B4, 562 }, 
	{ NOTE_E5, 94 }, 
	{ NOTE_G5, 92 }, 
	{ NOTE_C6, 94 }, 
	{ NOTE_A5, 94 }, 
	{ NOTE_C6, 94 }, 
	{ NOTE_A5, 94 }, 
	{ NOTE_C6, 94 }, 
	{ NOTE_A5, 94 }, 
	{ NOTE_C6, 94 }, 
	{ NOTE_A5, 94 }, 
	{ NOTE_G5, 94 }, 
	{ NOTE_E5, 94 }, 
	{ NOTE_G5, 94 }, 
	{ NOTE_E5, 94 }, 
	{ NOTE_G5, 94 }, 
	{ NOTE_E5, 94 }, 
	{ NOTE_G5, 94 }, 
	{ NOTE_E5, 90 }, 
	{ NOTE_D5, 938 }, 
	{ NOTE_D5, 188 }, 
	{ NOTE_CS5, 188 }, 
	{ NOTE_C5, 186 }, 
	{ NOTE_A4, 188 }, 
	{ NOTE_CS5, 188 }, 
	{ NOTE_C5, 188 }, 
	{ NOTE_A4, 188 }, 
	{ NOTE_D4, 188 }, 
	{ NOTE_CS4, 188 }, 
	{ NOTE_C4, 188 }, 
	{ NOTE_A3, 1309 }, 
	{ NOTE_A3, 188 }, 
	{ NOTE_E5, 94 }, 
	{ NOTE_FS5, 93 }, 
	{ NOTE_E5, 94 }, 
	{ NOTE_FS5, 94 }, 
	{ NOTE_E5, 94 }, 
	{ NOTE_FS5, 94 }, 
	{ NOTE_E5, 188 }, 
	{ NOTE_A5, 94 }, 
	{ NOTE_B5, 94 }, 
	{ NOTE_A5, 94 }, 
	{ NOTE_B5, 94 }, 
	{ NOTE_A5, 94 }, 
	{ NOTE_B5, 94 }, 
	{ NOTE_A5, 188 }, 
	{ NOTE_E5, 94 }, 
	{ NOTE_FS5, 90 }, 
	{ NOTE_E5, 188 }, 
	{ NOTE_A5, 94 }, 
	{ NOTE_B5, 94 }, 
	{ NOTE_A5, 94 }, 
	{ NOTE_B5, 94 }, 
	{ NOTE_A5, 94 }, 
	{ NOTE_B5, 94 }, 
	{ NOTE_C6, 94 }, 
	{ NOTE_B5, 94 }, 
	{ NOTE_C6, 94 }, 
	{ NOTE_B5, 94 }, 
	{ NOTE_C6, 94 }, 
	{ NOTE_A5, 94 }, 
	{ NOTE_D6, 559 }, 
	{ NOTE_D6, 188 }, 
	{ NOTE_D6, 376 }, 
	{ NOTE_D6, 188 }, 
	{ NOTE_C6, 188 }, 
	{ NOTE_D6, 560 }, 
	{ NOTE_REST, 375 }, 
	{ NOTE_E6, 94 }, 
	{ NOTE_G6, 94 }, 
	{ NOTE_E6, 94 }, 
	{ NOTE_G6, 94 }, 
	{ NOTE_E6, 94 }, 
	{ NOTE_G6, 94 }, 
	{ NOTE_E6, 94 }, 
	{ NOTE_G6, 92 }, 
	{ NOTE_E6, 94 }, 
	{ NOTE_G6, 94 }, 
	{ NOTE_E6, 94 }, 
	{ NOTE_G6, 94 }, 
	{ NOTE_D6, 188 }, 
	{ NOTE_C6, 94 }, 
	{ NOTE_B5, 94 }, 
	{ NOTE_C6, 188 }, 
	{ NOTE_REST, 188 }, 
	{ NOTE_REST, 188 }, 
	{ NOTE_B5, 184 }, 
	{ NOTE_D6, 94 }, 
	{ NOTE_E6, 94 }, 
	{ NOTE_D6, 94 }, 
	{ NOTE_E6, 94 }, 
	{ NOTE_D6, 94 }, 
	{ NOTE_E6, 657 }, 
	{ NOTE_E6, 1123 }, 
	{ NOTE_E6, 2626 }, 
	{ NOTE_E6, 752 }, 
	{ NOTE_E6, 188 }, 
	{ NOTE_C7, 560 }, 
	{ NOTE_A6, 188 }, 
	{ NOTE_G6, 563 }, 
	{ NOTE_E6, 188 }, 
	{ NOTE_C7, 373 }, 
	{ NOTE_C7, 188 }, 
	{ NOTE_B6, 188 }, 
	{ NOTE_A6, 188 }, 
	{ NOTE_G6, 188 }, 
	{ NOTE_D6, 936 }, 
	{ NOTE_C6, 188 }, 
	{ NOTE_C6, 188 }, 
	{ NOTE_A5, 936 }, 
	{ NOTE_G5, 188 }, 
	{ NOTE_FS5, 62 }, 
	{ NOTE_G5, 62 }, 
	{ NOTE_FS5, 62 }, 
	{ NOTE_G5, 62 }, 
	{ NOTE_FS5, 62 }, 
	{ NOTE_G5, 62 }, 
	{ NOTE_B5, 188 }, 
	{ NOTE_G5, 188 }, 
	{ NOTE_FS5, 62 }, 
	{ NOTE_G5, 62 }, 
	{ NOTE_FS5, 62 }, 
	{ NOTE_G5, 62 }, 
	{ NOTE_FS5, 62 }, 
	{ NOTE_G5, 66 }, 
	{ NOTE_G5, 188 }, 
	{ NOTE_E5, 188 }, 
	{ NOTE_E5, 375 }, 
	{ NOTE_D5, 188 }, 
	{ NOTE_G5, 188 }, 
	{ NOTE_D5, 188 }, 
	{ NOTE_E5, 373 }, 
	{ NOTE_G5, 188 }, 
	{ NOTE_FS5, 62 }, 
	{ NOTE_G5, 62 }, 
	{ NOTE_FS5, 62 }, 
	{ NOTE_G5, 62 }, 
	{ NOTE_FS5, 62 }, 
	{ NOTE_G5, 62 }, 
	{ NOTE_B5, 188 }, 
	{ NOTE_G5, 188 }, 
	{ NOTE_FS5, 62 }, 
	{ NOTE_G5, 62 }, 
	{ NOTE_FS5, 62 }, 
	{ NOTE_G5, 62 }, 
	{ NOTE_FS5, 62 }, 
	{ NOTE_G5, 66 }, 
	{ NOTE_G5, 188 }, 
	{ NOTE_E5, 188 }, 
	{ NOTE_E5, 375 }, 
	{ NOTE_D5, 188 }, 
	{ NOTE_G5, 188 }, 
	{ NOTE_D5, 188 }, 
	{ NOTE_E5, 373 }, 
	{ NOTE_G5, 188 }, 
	{ NOTE_FS5, 62 }, 
	{ NOTE_G5, 62 }, 
	{ NOTE_FS5, 62 }, 
	{ NOTE_G5, 62 }, 
	{ NOTE_FS5, 62 }, 
	{ NOTE_G5, 62 }, 
	{ NOTE_B5, 188 }, 
	{ NOTE_G5, 188 }, 
	{ NOTE_FS5, 62 }, 
	{ NOTE_G5, 62 }, 
	{ NOTE_FS5, 62 }, 
	{ NOTE_G5, 62 }, 
	{ NOTE_FS5, 62 }, 
	{ NOTE_G5, 66 }, 
	{ NOTE_G5, 188 }, 
	{ NOTE_E5, 188 }, 
	{ NOTE_E5, 375 }, 
	{ NOTE_D5, 188 }, 
	{ NOTE_G5, 188 }, 
	{ NOTE_D5, 188 }, 
	{ NOTE_E5, 373 }, 
	{ NOTE_G5, 188 }, 
	{ NOTE_FS5, 62 }, 
	{ NOTE_G5, 62 }, 
	{ NOTE_FS5, 62 }, 
	{ NOTE_G5, 62 }, 
	{ NOTE_FS5, 62 }, 
	{ NOTE_G5, 62 }, 
	{ NOTE_B5, 188 }, 
	{ NOTE_G5, 188 }, 
	{ NOTE_FS5, 62 }, 
	{ NOTE_G5, 62 }, 
	{ NOTE_FS5, 62 }, 
	{ NOTE_G5, 62 }, 
	{ NOTE_FS5, 62 }, 
	{ NOTE_G5, 66 }, 
	{ NOTE_G5, 188 }, 
	{ NOTE_E5, 188 }, 
	{ NOTE_E5, 375 }, 
	{ NOTE_D5, 188 }, 
	{ NOTE_G5, 188 }, 
	{ NOTE_D5, 188 }, 
	{ NOTE_E5, 373 }, 
	{ NOTE_G5, 188 }, 
	{ NOTE_FS5, 62 }, 
	{ NOTE_G5, 62 }, 
	{ NOTE_FS5, 62 }, 
	{ NOTE_G5, 62 }, 
	{ NOTE_FS5, 62 }, 
	{ NOTE_G5, 62 }, 
	{ NOTE_B5, 188 }, 
	{ NOTE_G5, 188 }, 
	{ NOTE_FS5, 62 }, 
	{ NOTE_G5, 62 }, 
	{ NOTE_FS5, 62 }, 
	{ NOTE_G5, 62 }, 
	{ NOTE_FS5, 62 }, 
	{ NOTE_G5, 66 }, 
	{ NOTE_G5, 188 }, 
	{ NOTE_E5, 188 }, 
	{ NOTE_E5, 375 }, 
	{ NOTE_D5, 188 }, 
	{ NOTE_G5, 188 }, 
	{ NOTE_D5, 188 }, 
	{ NOTE_E5, 373 }, 
	{ NOTE_G5, 188 }, 
	{ NOTE_FS5, 62 }, 
	{ NOTE_G5, 62 }, 
	{ NOTE_FS5, 62 }, 
	{ NOTE_G5, 62 }, 
	{ NOTE_FS5, 62 }, 
	{ NOTE_G5, 62 }, 
	{ NOTE_B5, 188 }, 
	{ NOTE_G5, 188 }, 
	{ NOTE_FS5, 62 }, 
	{ NOTE_G5, 62 }, 
	{ NOTE_FS5, 62 }, 
	{ NOTE_G5, 62 }, 
	{ NOTE_FS5, 62 }, 
	{ NOTE_G5, 66 }, 
	{ NOTE_G5, 188 }, 
	{ NOTE_E5, 188 }, 
	{ NOTE_E5, 375 }, 
	{ NOTE_D5, 188 }, 
	{ NOTE_G5, 188 }, 
	{ NOTE_D5, 188 }, 
	{ NOTE_E5, 373 }, 
	{ NOTE_G5, 188 }, 
	{ NOTE_FS5, 62 }, 
	{ NOTE_G5, 62 }, 
	{ NOTE_FS5, 62 }, 
	{ NOTE_G5, 62 }, 
	{ NOTE_FS5, 62 }, 
	{ NOTE_G5, 62 }, 
	{ NOTE_B5, 188 }, 
	{ NOTE_G5, 188 }, 
	{ NOTE_FS5, 62 }, 
	{ NOTE_G5, 62 }, 
	{ NOTE_FS5, 62 }, 
	{ NOTE_G5, 62 }, 
	{ NOTE_FS5, 62 }, 
	{ NOTE_G5, 66 }, 
	{ NOTE_G5, 188 }, 
	{ NOTE_E5, 188 }, 
	{ NOTE_E5, 375 }, 
	{ NOTE_D5, 188 }, 
	{ NOTE_G5, 188 }, 
	{ NOTE_D5, 188 }, 
	{ NOTE_E5, 373 }, 
	{ NOTE_G5, 188 }, 
	{ NOTE_FS5, 62 }, 
	{ NOTE_G5, 62 }, 
	{ NOTE_FS5, 62 }, 
	{ NOTE_G5, 62 }, 
	{ NOTE_FS5, 62 }, 
	{ NOTE_G5, 62 }, 
	{ NOTE_B5, 188 }, 
	{ NOTE_G5, 188 }, 
	{ NOTE_FS5, 62 }, 
	{ NOTE_G5, 62 }, 
	{ NOTE_FS5, 62 }, 
	{ NOTE_G5, 62 }, 
	{ NOTE_FS5, 62 }, 
	{ NOTE_G5, 66 }, 
	{ NOTE_G5, 188 }, 
	{ NOTE_E5, 188 }, 
	{ NOTE_E5, 375 }, 
	{ NOTE_A4, 188 }, 
	{ NOTE_D5, 188 }, 
	{ NOTE_A4, 188 }, 
	{ NOTE_B4, 373 }, 
	{ NOTE_E4, 94 }, 
	{ NOTE_E4, 94 }, 
	{ NOTE_B4, 188 }, 
	{ NOTE_E4, 94 }, 
	{ NOTE_E4, 94 }, 
	{ NOTE_B4, 188 }, 
	{ NOTE_E4, 94 }, 
	{ NOTE_E4, 94 }, 
	{ NOTE_B4, 188 }, 
	{ NOTE_E4, 94 }, 
	{ NOTE_E4, 90 }, 
	{ NOTE_B4, 188 }, 
	{ NOTE_E4, 94 }, 
	{ NOTE_E4, 94 }, 
	{ NOTE_B4, 188 }, 
	{ NOTE_E4, 94 }, 
	{ NOTE_E4, 94 }, 
	{ NOTE_A4, 188 }, 
	{ NOTE_D5, 188 }, 
	{ NOTE_A4, 188 }, 
	{ NOTE_B4, 372 }, 
	{ NOTE_E4, 94 }, 
	{ NOTE_E4, 94 }, 
	{ NOTE_B4, 188 }, 
	{ NOTE_E4, 94 }, 
	{ NOTE_E4, 94 }, 
	{ NOTE_B4, 188 }, 
	{ NOTE_E4, 94 }, 
	{ NOTE_E4, 94 }, 
	{ NOTE_B4, 188 }, 
	{ NOTE_E4, 94 }, 
	{ NOTE_E4, 90 }, 
	{ NOTE_B4, 188 }, 
	{ NOTE_E4, 94 }, 
	{ NOTE_E4, 94 }, 
	{ NOTE_B4, 188 }, 
	{ NOTE_E4, 94 }, 
	{ NOTE_E4, 94 }, 
	{ NOTE_A4, 188 }, 
	{ NOTE_D5, 188 }, 
	{ NOTE_A4, 188 }, 
	{ NOTE_G4, 372 }, 
	{ NOTE_C4, 94 }, 
	{ NOTE_C4, 94 }, 
	{ NOTE_G4, 188 }, 
	{ NOTE_C4, 94 }, 
	{ NOTE_C4, 94 }, 
	{ NOTE_G4, 188 }, 
	{ NOTE_C4, 94 }, 
	{ NOTE_C4, 94 }, 
	{ NOTE_G4, 188 }, 
	{ NOTE_C4, 94 }, 
	{ NOTE_C4, 90 }, 
	{ NOTE_G4, 188 }, 
	{ NOTE_C4, 94 }, 
	{ NOTE_C4, 94 }, 
	{ NOTE_G4, 188 }, 
	{ NOTE_C4, 94 }, 
	{ NOTE_C4, 94 }, 
	{ NOTE_A4, 188 }, 
	{ NOTE_D5, 188 }, 
	{ NOTE_A4, 188 }, 
	{ NOTE_B4, 372 }, 
	{ NOTE_E4, 94 }, 
	{ NOTE_E4, 94 }, 
	{ NOTE_B4, 188 }, 
	{ NOTE_E4, 94 }, 
	{ NOTE_E4, 94 }, 
	{ NOTE_B4, 188 }, 
	{ NOTE_E4, 94 }, 
	{ NOTE_E4, 94 }, 
	{ NOTE_B4, 188 }, 
	{ NOTE_E4, 94 }, 
	{ NOTE_E4, 90 }, 
	{ NOTE_B4, 188 }, 
	{ NOTE_E4, 94 }, 
	{ NOTE_E4, 94 }, 
	{ NOTE_B4, 188 }, 
	{ NOTE_E4, 94 }, 
	{ NOTE_E4, 94 }, 
	{ NOTE_A4, 188 }, 
	{ NOTE_D5, 188 }, 
	{ NOTE_A4, 188 }, 
	{ NOTE_B4, 372 }, 
	{ NOTE_E4, 94 }, 
	{ NOTE_E4, 94 }, 
	{ NOTE_B4, 188 }, 
	{ NOTE_E4, 94 }, 
	{ NOTE_E4, 94 }, 
	{ NOTE_B4, 188 }, 
	{ NOTE_E4, 94 }, 
	{ NOTE_E4, 94 }, 
	{ NOTE_B4, 188 }, 
	{ NOTE_E4, 94 }, 
	{ NOTE_E4, 90 }, 
	{ NOTE_B4, 188 }, 
	{ NOTE_E4, 94 }, 
	{ NOTE_E4, 94 }, 
	{ NOTE_B4, 188 }, 
	{ NOTE_E4, 94 }, 
	{ NOTE_E4, 94 }, 
	{ NOTE_A4, 188 }, 
	{ NOTE_D5, 188 }, 
	{ NOTE_A4, 188 }, 
	{ NOTE_B4, 372 }, 
	{ NOTE_E4, 94 }, 
	{ NOTE_E4, 94 }, 
	{ NOTE_B4, 188 }, 
	{ NOTE_E4, 94 }, 
	{ NOTE_E4, 94 }, 
	{ NOTE_B4, 188 }, 
	{ NOTE_E4, 94 }, 
	{ NOTE_E4, 94 }, 
	{ NOTE_B4, 188 }, 
	{ NOTE_E4, 94 }, 
	{ NOTE_E4, 90 }, 
	{ NOTE_B4, 188 }, 
	{ NOTE_E4, 94 }, 
	{ NOTE_E4, 94 }, 
	{ NOTE_B4, 188 }, 
	{ NOTE_E4, 94 }, 
	{ NOTE_E4, 94 }, 
	{ NOTE_A4, 188 }, 
	{ NOTE_D5, 188 }, 
	{ NOTE_A4, 188 }, 
	{ NOTE_G4, 372 }, 
	{ NOTE_C4, 94 }, 
	{ NOTE_C4, 94 }, 
	{ NOTE_G4, 188 }, 
	{ NOTE_C4, 94 }, 
	{ NOTE_C4, 94 }, 
	{ NOTE_G4, 188 }, 
	{ NOTE_C4, 94 }, 
	{ NOTE_C4, 94 }, 
	{ NOTE_G4, 188 }, 
	{ NOTE_C4, 94 }, 
	{ NOTE_C4, 90 }, 
	{ NOTE_G4, 188 }, 
	{ NOTE_C4, 94 }, 
	{ NOTE_C4, 94 }, 
	{ NOTE_G4, 188 }, 
	{ NOTE_C4, 94 }, 
	{ NOTE_C4, 94 }, 
	{ NOTE_A4, 188 }, 
	{ NOTE_D5, 188 }, 
	{ NOTE_A4, 188 }, 
	{ NOTE_B4, 372 }, 
	{ NOTE_E4, 94 }, 
	{ NOTE_E4, 94 }, 
	{ NOTE_B4, 188 }, 
	{ NOTE_E4, 94 }, 
	{ NOTE_E4, 94 }, 
	{ NOTE_B4, 188 }, 
	{ NOTE_E4, 94 }, 
	{ NOTE_E4, 94 }, 
	{ NOTE_B4, 188 }, 
	{ NOTE_E4, 94 }, 
	{ NOTE_E4, 90 }, 
	{ NOTE_B4, 188 }, 
	{ NOTE_E4, 94 }, 
	{ NOTE_E4, 94 }, 
	{ NOTE_B4, 188 }, 
	{ NOTE_E4, 94 }, 
	{ NOTE_E4, 94 }, 
	{ NOTE_A4, 188 }, 
	{ NOTE_D5, 188 }, 
	{ NOTE_A4, 188 }, 
	{ NOTE_A4, 2903 }, 
	{ NOTE_REST, 94 }, 
	{ NOTE_B3, 375 }, 
	{ NOTE_E3, 94 }, 
	{ NOTE_E3, 94 }, 
	{ NOTE_B3, 188 }, 
	{ NOTE_E3, 94 }, 
	{ NOTE_E3, 94 }, 
	{ NOTE_B3, 188 }, 
	{ NOTE_E3, 94 }, 
	{ NOTE_E3, 94 }, 
	{ NOTE_B3, 188 }, 
	{ NOTE_E3, 94 }, 
	{ NOTE_E3, 90 }, 
	{ NOTE_B3, 188 }, 
	{ NOTE_E3, 94 }, 
	{ NOTE_E3, 94 }, 
	{ NOTE_B3, 188 }, 
	{ NOTE_E3, 94 }, 
	{ NOTE_E3, 94 }, 
	{ NOTE_B3, 188 }, 
	{ NOTE_E3, 94 }, 
	{ NOTE_E3, 94 }, 
	{ NOTE_B3, 188 }, 
	{ NOTE_A4, 2903 }, 
	{ NOTE_REST, 94 }, 
	{ NOTE_B3, 375 }, 
	{ NOTE_E3, 94 }, 
	{ NOTE_E3, 94 }, 
	{ NOTE_B3, 188 }, 
	{ NOTE_E3, 94 }, 
	{ NOTE_E3, 94 }, 
	{ NOTE_B3, 188 }, 
	{ NOTE_E3, 94 }, 
	{ NOTE_E3, 94 }, 
	{ NOTE_B3, 188 }, 
	{ NOTE_E3, 94 }, 
	{ NOTE_E3, 90 }, 
	{ NOTE_B3, 188 }, 
	{ NOTE_E3, 94 }, 
	{ NOTE_E3, 94 }, 
	{ NOTE_B3, 375 }, 
	{ NOTE_A4, 188 }, 
	{ NOTE_D5, 188 }, 
	{ NOTE_A4, 188 }, 
	{ NOTE_B4, 373 }, 
	{ NOTE_E4, 188 }, 
	{ NOTE_E4, 94 }, 
	{ NOTE_D4, 94 }, 
	{ NOTE_B3, 188 }, 
	{ NOTE_D4, 188 }, 
	{ NOTE_D4, 188 }, 
	{ NOTE_D4, 94 }, 
	{ NOTE_C4, 94 }, 
	{ NOTE_A3, 184 }, 
	{ NOTE_C4, 188 }, 
	{ NOTE_C4, 188 }, 
	{ NOTE_C4, 94 }, 
	{ NOTE_B3, 94 }, 
	{ NOTE_G3, 188 }, 
	{ NOTE_D4, 188 }, 
	{ NOTE_G4, 188 }, 
	{ NOTE_D4, 188 }, 
	{ NOTE_E4, 372 }, 
	{ NOTE_E4, 188 }, 
	{ NOTE_E4, 94 }, 
	{ NOTE_D4, 94 }, 
	{ NOTE_B3, 188 }, 
	{ NOTE_D4, 188 }, 
	{ NOTE_D4, 188 }, 
	{ NOTE_D4, 94 }, 
	{ NOTE_C4, 94 }, 
	{ NOTE_A3, 184 }, 
	{ NOTE_C4, 188 }, 
	{ NOTE_C4, 188 }, 
	{ NOTE_C4, 94 }, 
	{ NOTE_B3, 94 }, 
	{ NOTE_G3, 188 }, 
	{ NOTE_D4, 188 }, 
	{ NOTE_G4, 188 }, 
	{ NOTE_D4, 188 }, 
	{ NOTE_E4, 372 }, 
	{ NOTE_E4, 188 }, 
	{ NOTE_E4, 94 }, 
	{ NOTE_D4, 94 }, 
	{ NOTE_B3, 188 }, 
	{ NOTE_D4, 188 }, 
	{ NOTE_D4, 188 }, 
	{ NOTE_D4, 94 }, 
	{ NOTE_C4, 94 }, 
	{ NOTE_A3, 184 }, 
	{ NOTE_C4, 188 }, 
	{ NOTE_C4, 188 }, 
	{ NOTE_C4, 94 }, 
	{ NOTE_B3, 94 }, 
	{ NOTE_G3, 188 }, 
	{ NOTE_D4, 188 }, 
	{ NOTE_G4, 188 }, 
	{ NOTE_D4, 188 }, 
	{ NOTE_E4, 372 }, 
	{ NOTE_E4, 188 }, 
	{ NOTE_E4, 94 }, 
	{ NOTE_D4, 94 }, 
	{ NOTE_B3, 188 }, 
	{ NOTE_D4, 188 }, 
	{ NOTE_D4, 188 }, 
	{ NOTE_D4, 94 }, 
	{ NOTE_C4, 94 }, 
	{ NOTE_A3, 184 }, 
	{ NOTE_C4, 188 }, 
	{ NOTE_C4, 188 }, 
	{ NOTE_C4, 94 }, 
	{ NOTE_B3, 94 }, 
	{ NOTE_G3, 188 }, 
	{ NOTE_A4, 188 }, 
	{ NOTE_D5, 188 }, 
	{ NOTE_A4, 188 }, 
	{ NOTE_B4, 559 }, 
	{ NOTE_REST, 750 }, 
	{ NOTE_REST, 375 }, 
	{ NOTE_REST, 1500 }, 
};
const uint16_t NUM_OF_NOTES1 = sizeof(melody1)/sizeof(melody1[0]);

const Note melody2[] PROGMEM = {
	{ NOTE_REST, 1500 }, 
	{ NOTE_REST, 1500 }, 
	{ NOTE_REST, 1500 }, 
	{ NOTE_REST, 1500 }, 
	{ NOTE_REST, 1125 }, 
	{ NOTE_REST, 188 }, 
	{ NOTE_G4, 375 }, 
	{ NOTE_G4, 188 }, 
	{ NOTE_G4, 94 }, 
	{ NOTE_FS4, 94 }, 
	{ NOTE_D4, 188 }, 
	{ NOTE_FS4, 188 }, 
	{ NOTE_FS4, 188 }, 
	{ NOTE_FS4, 94 }, 
	{ NOTE_E4, 94 }, 
	{ NOTE_C4, 184 }, 
	{ NOTE_E4, 188 }, 
	{ NOTE_E4, 188 }, 
	{ NOTE_E4, 94 }, 
	{ NOTE_D4, 94 }, 
	{ NOTE_B3, 188 }, 
	{ NOTE_FS4, 188 }, 
	{ NOTE_B4, 188 }, 
	{ NOTE_FS4, 188 }, 
	{ NOTE_G4, 372 }, 
	{ NOTE_G4, 188 }, 
	{ NOTE_G4, 94 }, 
	{ NOTE_FS4, 94 }, 
	{ NOTE_D4, 188 }, 
	{ NOTE_FS4, 188 }, 
	{ NOTE_FS4, 188 }, 
	{ NOTE_FS4, 94 }, 
	{ NOTE_E4, 94 }, 
	{ NOTE_C4, 184 }, 
	{ NOTE_E4, 188 }, 
	{ NOTE_E4, 188 }, 
	{ NOTE_E4, 94 }, 
	{ NOTE_D4, 94 }, 
	{ NOTE_B3, 188 }, 
	{ NOTE_FS4, 188 }, 
	{ NOTE_B4, 188 }, 
	{ NOTE_FS4, 188 }, 
	{ NOTE_G4, 372 }, 
	{ NOTE_B4, 188 }, 
	{ NOTE_A4, 62 }, 
	{ NOTE_B4, 62 }, 
	{ NOTE_A4, 62 }, 
	{ NOTE_B4, 62 }, 
	{ NOTE_A4, 62 }, 
	{ NOTE_B4, 62 }, 
	{ NOTE_D5, 188 }, 
	{ NOTE_B4, 188 }, 
	{ NOTE_A4, 62 }, 
	{ NOTE_B4, 62 }, 
	{ NOTE_A4, 62 }, 
	{ NOTE_B4, 62 }, 
	{ NOTE_A4, 62 }, 
	{ NOTE_B4, 66 }, 
	{ NOTE_B4, 188 }, 
	{ NOTE_G4, 188 }, 
	{ NOTE_G4, 375 }, 
	{ NOTE_FS4, 188 }, 
	{ NOTE_G4, 188 }, 
	{ NOTE_FS4, 188 }, 
	{ NOTE_G4, 373 }, 
	{ NOTE_B4, 188 }, 
	{ NOTE_A4, 62 }, 
	{ NOTE_B4, 62 }, 
	{ NOTE_A4, 62 }, 
	{ NOTE_B4, 62 }, 
	{ NOTE_A4, 62 }, 
	{ NOTE_B4, 62 }, 
	{ NOTE_D5, 188 }, 
	{ NOTE_B4, 188 }, 
	{ NOTE_A4, 62 }, 
	{ NOTE_B4, 62 }, 
	{ NOTE_A4, 62 }, 
	{ NOTE_B4, 62 }, 
	{ NOTE_A4, 62 }, 
	{ NOTE_B4, 66 }, 
	{ NOTE_B4, 188 }, 
	{ NOTE_G4, 188 }, 
	{ NOTE_G4, 375 }, 
	{ NOTE_FS4, 188 }, 
	{ NOTE_G4, 188 }, 
	{ NOTE_FS4, 188 }, 
	{ NOTE_G4, 373 }, 
	{ NOTE_B4, 188 }, 
	{ NOTE_A4, 62 }, 
	{ NOTE_B4, 62 }, 
	{ NOTE_A4, 62 }, 
	{ NOTE_B4, 62 }, 
	{ NOTE_A4, 62 }, 
	{ NOTE_B4, 62 }, 
	{ NOTE_D5, 188 }, 
	{ NOTE_B4, 188 }, 
	{ NOTE_A4, 62 }, 
	{ NOTE_B4, 62 }, 
	{ NOTE_A4, 62 }, 
	{ NOTE_B4, 62 }, 
	{ NOTE_A4, 62 }, 
	{ NOTE_B4, 66 }, 
	{ NOTE_B4, 188 }, 
	{ NOTE_G4, 188 }, 
	{ NOTE_G4, 375 }, 
	{ NOTE_FS4, 188 }, 
	{ NOTE_G4, 188 }, 
	{ NOTE_FS4, 188 }, 
	{ NOTE_G4, 373 }, 
	{ NOTE_B4, 188 }, 
	{ NOTE_A4, 62 }, 
	{ NOTE_B4, 62 }, 
	{ NOTE_A4, 62 }, 
	{ NOTE_B4, 62 }, 
	{ NOTE_A4, 62 }, 
	{ NOTE_B4, 62 }, 
	{ NOTE_D5, 188 }, 
	{ NOTE_B4, 188 }, 
	{ NOTE_A4, 62 }, 
	{ NOTE_B4, 62 }, 
	{ NOTE_A4, 62 }, 
	{ NOTE_B4, 62 }, 
	{ NOTE_A4, 62 }, 
	{ NOTE_B4, 66 }, 
	{ NOTE_B4, 188 }, 
	{ NOTE_G4, 188 }, 
	{ NOTE_G4, 375 }, 
	{ NOTE_FS4, 188 }, 
	{ NOTE_G4, 188 }, 
	{ NOTE_FS4, 188 }, 
	{ NOTE_G4, 373 }, 
	{ NOTE_B4, 188 }, 
	{ NOTE_A4, 62 }, 
	{ NOTE_B4, 62 }, 
	{ NOTE_A4, 62 }, 
	{ NOTE_B4, 62 }, 
	{ NOTE_A4, 62 }, 
	{ NOTE_B4, 62 }, 
	{ NOTE_D5, 188 }, 
	{ NOTE_B4, 188 }, 
	{ NOTE_A4, 62 }, 
	{ NOTE_B4, 62 }, 
	{ NOTE_A4, 62 }, 
	{ NOTE_B4, 62 }, 
	{ NOTE_A4, 62 }, 
	{ NOTE_B4, 66 }, 
	{ NOTE_B4, 188 }, 
	{ NOTE_G4, 188 }, 
	{ NOTE_G4, 375 }, 
	{ NOTE_FS4, 188 }, 
	{ NOTE_G4, 188 }, 
	{ NOTE_FS4, 188 }, 
	{ NOTE_G4, 373 }, 
	{ NOTE_B4, 188 }, 
	{ NOTE_A4, 62 }, 
	{ NOTE_B4, 62 }, 
	{ NOTE_A4, 62 }, 
	{ NOTE_B4, 62 }, 
	{ NOTE_A4, 62 }, 
	{ NOTE_B4, 62 }, 
	{ NOTE_D5, 188 }, 
	{ NOTE_B4, 188 }, 
	{ NOTE_A4, 62 }, 
	{ NOTE_B4, 62 }, 
	{ NOTE_A4, 62 }, 
	{ NOTE_B4, 62 }, 
	{ NOTE_A4, 62 }, 
	{ NOTE_B4, 66 }, 
	{ NOTE_B4, 188 }, 
	{ NOTE_G4, 188 }, 
	{ NOTE_G4, 375 }, 
	{ NOTE_FS4, 188 }, 
	{ NOTE_G4, 188 }, 
	{ NOTE_FS4, 188 }, 
	{ NOTE_G4, 373 }, 
	{ NOTE_B4, 188 }, 
	{ NOTE_A4, 62 }, 
	{ NOTE_B4, 62 }, 
	{ NOTE_A4, 62 }, 
	{ NOTE_B4, 62 }, 
	{ NOTE_A4, 62 }, 
	{ NOTE_B4, 62 }, 
	{ NOTE_D5, 188 }, 
	{ NOTE_B4, 188 }, 
	{ NOTE_A4, 62 }, 
	{ NOTE_B4, 62 }, 
	{ NOTE_A4, 62 }, 
	{ NOTE_B4, 62 }, 
	{ NOTE_A4, 62 }, 
	{ NOTE_B4, 66 }, 
	{ NOTE_B4, 188 }, 
	{ NOTE_G4, 188 }, 
	{ NOTE_G4, 375 }, 
	{ NOTE_FS4, 188 }, 
	{ NOTE_G4, 188 }, 
	{ NOTE_FS4, 188 }, 
	{ NOTE_G4, 373 }, 
	{ NOTE_B4, 188 }, 
	{ NOTE_A4, 62 }, 
	{ NOTE_B4, 62 }, 
	{ NOTE_A4, 62 }, 
	{ NOTE_B4, 62 }, 
	{ NOTE_A4, 62 }, 
	{ NOTE_B4, 62 }, 
	{ NOTE_D5, 188 }, 
	{ NOTE_B4, 188 }, 
	{ NOTE_A4, 62 }, 
	{ NOTE_B4, 62 }, 
	{ NOTE_A4, 62 }, 
	{ NOTE_B4, 62 }, 
	{ NOTE_A4, 62 }, 
	{ NOTE_B4, 66 }, 
	{ NOTE_B4, 188 }, 
	{ NOTE_G4, 188 }, 
	{ NOTE_G4, 375 }, 
	{ NOTE_REST, 188 }, 
	{ NOTE_REST, 188 }, 
	{ NOTE_REST, 188 }, 
	{ NOTE_REST, 373 }, 
	{ NOTE_REST, 750 }, 
	{ NOTE_REST, 375 }, 
	{ NOTE_REST, 187 }, 
	{ NOTE_REST, 750 }, 
	{ NOTE_REST, 188 }, 
	{ NOTE_REST, 188 }, 
	{ NOTE_REST, 188 }, 
	{ NOTE_REST, 374 }, 
	{ NOTE_REST, 188 }, 
	{ NOTE_REST, 750 }, 
	{ NOTE_REST, 374 }, 
	{ NOTE_REST, 750 }, 
	{ NOTE_REST, 188 }, 
	{ NOTE_REST, 188 }, 
	{ NOTE_REST, 188 }, 
	{ NOTE_REST, 374 }, 
	{ NOTE_REST, 750 }, 
	{ NOTE_REST, 375 }, 
	{ NOTE_REST, 187 }, 
	{ NOTE_REST, 750 }, 
	{ NOTE_REST, 188 }, 
	{ NOTE_REST, 188 }, 
	{ NOTE_REST, 188 }, 
	{ NOTE_REST, 374 }, 
	{ NOTE_REST, 750 }, 
	{ NOTE_REST, 375 }, 
	{ NOTE_REST, 187 }, 
	{ NOTE_REST, 750 }, 
	{ NOTE_REST, 188 }, 
	{ NOTE_REST, 188 }, 
	{ NOTE_REST, 188 }, 
	{ NOTE_REST, 374 }, 
	{ NOTE_E4, 94 }, 
	{ NOTE_E4, 94 }, 
	{ NOTE_REST, 188 }, 
	{ NOTE_E4, 94 }, 
	{ NOTE_E4, 94 }, 
	{ NOTE_REST, 188 }, 
	{ NOTE_E4, 94 }, 
	{ NOTE_E4, 94 }, 
	{ NOTE_REST, 188 }, 
	{ NOTE_E4, 94 }, 
	{ NOTE_E4, 90 }, 
	{ NOTE_REST, 188 }, 
	{ NOTE_E4, 94 }, 
	{ NOTE_E4, 94 }, 
	{ NOTE_REST, 188 }, 
	{ NOTE_E4, 94 }, 
	{ NOTE_E4, 94 }, 
	{ NOTE_REST, 188 }, 
	{ NOTE_REST, 188 }, 
	{ NOTE_REST, 188 }, 
	{ NOTE_REST, 372 }, 
	{ NOTE_E4, 94 }, 
	{ NOTE_E4, 94 }, 
	{ NOTE_REST, 188 }, 
	{ NOTE_E4, 94 }, 
	{ NOTE_E4, 94 }, 
	{ NOTE_REST, 188 }, 
	{ NOTE_E4, 94 }, 
	{ NOTE_E4, 94 }, 
	{ NOTE_REST, 188 }, 
	{ NOTE_E4, 94 }, 
	{ NOTE_E4, 90 }, 
	{ NOTE_REST, 188 }, 
	{ NOTE_E4, 94 }, 
	{ NOTE_E4, 94 }, 
	{ NOTE_REST, 188 }, 
	{ NOTE_E4, 94 }, 
	{ NOTE_E4, 94 }, 
	{ NOTE_REST, 188 }, 
	{ NOTE_REST, 188 }, 
	{ NOTE_REST, 188 }, 
	{ NOTE_REST, 372 }, 
	{ NOTE_C4, 94 }, 
	{ NOTE_C4, 94 }, 
	{ NOTE_REST, 188 }, 
	{ NOTE_C4, 94 }, 
	{ NOTE_C4, 94 }, 
	{ NOTE_REST, 188 }, 
	{ NOTE_C4, 94 }, 
	{ NOTE_C4, 94 }, 
	{ NOTE_REST, 188 }, 
	{ NOTE_C4, 94 }, 
	{ NOTE_C4, 90 }, 
	{ NOTE_REST, 188 }, 
	{ NOTE_C4, 94 }, 
	{ NOTE_C4, 94 }, 
	{ NOTE_REST, 188 }, 
	{ NOTE_C4, 94 }, 
	{ NOTE_C4, 94 }, 
	{ NOTE_REST, 188 }, 
	{ NOTE_REST, 188 }, 
	{ NOTE_REST, 188 }, 
	{ NOTE_REST, 372 }, 
	{ NOTE_E4, 94 }, 
	{ NOTE_E4, 94 }, 
	{ NOTE_REST, 188 }, 
	{ NOTE_E4, 94 }, 
	{ NOTE_E4, 94 }, 
	{ NOTE_REST, 188 }, 
	{ NOTE_E4, 94 }, 
	{ NOTE_E4, 94 }, 
	{ NOTE_REST, 188 }, 
	{ NOTE_E4, 94 }, 
	{ NOTE_E4, 90 }, 
	{ NOTE_REST, 188 }, 
	{ NOTE_E4, 94 }, 
	{ NOTE_E4, 94 }, 
	{ NOTE_REST, 188 }, 
	{ NOTE_E4, 94 }, 
	{ NOTE_E4, 94 }, 
	{ NOTE_REST, 188 }, 
	{ NOTE_REST, 188 }, 
	{ NOTE_REST, 188 }, 
	{ NOTE_REST, 1872 }, 
	{ NOTE_D4, 94 }, 
	{ NOTE_D4, 94 }, 
	{ NOTE_REST, 188 }, 
	{ NOTE_D4, 94 }, 
	{ NOTE_D4, 94 }, 
	{ NOTE_REST, 562 }, 
	{ NOTE_B4, 2999 }, 
	{ NOTE_REST, 1875 }, 
	{ NOTE_D4, 94 }, 
	{ NOTE_D4, 94 }, 
	{ NOTE_REST, 938 }, 
	{ NOTE_E4, 374 }, 
	{ NOTE_E3, 94 }, 
	{ NOTE_E3, 94 }, 
	{ NOTE_E4, 188 }, 
	{ NOTE_E3, 94 }, 
	{ NOTE_E3, 94 }, 
	{ NOTE_E4, 188 }, 
	{ NOTE_E3, 94 }, 
	{ NOTE_E3, 94 }, 
	{ NOTE_E4, 188 }, 
	{ NOTE_E3, 94 }, 
	{ NOTE_E3, 90 }, 
	{ NOTE_E4, 188 }, 
	{ NOTE_E3, 94 }, 
	{ NOTE_E3, 94 }, 
	{ NOTE_E4, 375 }, 
	{ NOTE_REST, 188 }, 
	{ NOTE_REST, 188 }, 
	{ NOTE_REST, 188 }, 
	{ NOTE_REST, 373 }, 
	{ NOTE_B4, 188 }, 
	{ NOTE_A4, 62 }, 
	{ NOTE_B4, 62 }, 
	{ NOTE_A4, 62 }, 
	{ NOTE_B4, 62 }, 
	{ NOTE_A4, 62 }, 
	{ NOTE_B4, 62 }, 
	{ NOTE_D5, 188 }, 
	{ NOTE_B4, 188 }, 
	{ NOTE_A4, 62 }, 
	{ NOTE_B4, 62 }, 
	{ NOTE_A4, 62 }, 
	{ NOTE_B4, 62 }, 
	{ NOTE_A4, 62 }, 
	{ NOTE_B4, 66 }, 
	{ NOTE_B4, 188 }, 
	{ NOTE_G4, 188 }, 
	{ NOTE_G4, 375 }, 
	{ NOTE_FS4, 188 }, 
	{ NOTE_G4, 188 }, 
	{ NOTE_FS4, 188 }, 
	{ NOTE_G4, 373 }, 
	{ NOTE_B4, 188 }, 
	{ NOTE_A4, 62 }, 
	{ NOTE_B4, 62 }, 
	{ NOTE_A4, 62 }, 
	{ NOTE_B4, 62 }, 
	{ NOTE_A4, 62 }, 
	{ NOTE_B4, 62 }, 
	{ NOTE_D5, 188 }, 
	{ NOTE_B4, 188 }, 
	{ NOTE_A4, 62 }, 
	{ NOTE_B4, 62 }, 
	{ NOTE_A4, 62 }, 
	{ NOTE_B4, 62 }, 
	{ NOTE_A4, 62 }, 
	{ NOTE_B4, 66 }, 
	{ NOTE_B4, 188 }, 
	{ NOTE_G4, 188 }, 
	{ NOTE_G4, 375 }, 
	{ NOTE_FS4, 188 }, 
	{ NOTE_G4, 188 }, 
	{ NOTE_FS4, 188 }, 
	{ NOTE_G4, 373 }, 
	{ NOTE_B4, 188 }, 
	{ NOTE_A4, 62 }, 
	{ NOTE_B4, 62 }, 
	{ NOTE_A4, 62 }, 
	{ NOTE_B4, 62 }, 
	{ NOTE_A4, 62 }, 
	{ NOTE_B4, 62 }, 
	{ NOTE_D5, 188 }, 
	{ NOTE_B4, 188 }, 
	{ NOTE_A4, 62 }, 
	{ NOTE_B4, 62 }, 
	{ NOTE_A4, 62 }, 
	{ NOTE_B4, 62 }, 
	{ NOTE_A4, 62 }, 
	{ NOTE_B4, 66 }, 
	{ NOTE_B4, 188 }, 
	{ NOTE_G4, 188 }, 
	{ NOTE_G4, 375 }, 
	{ NOTE_FS4, 188 }, 
	{ NOTE_G4, 188 }, 
	{ NOTE_FS4, 188 }, 
	{ NOTE_G4, 373 }, 
	{ NOTE_B4, 188 }, 
	{ NOTE_A4, 62 }, 
	{ NOTE_B4, 62 }, 
	{ NOTE_A4, 62 }, 
	{ NOTE_B4, 62 }, 
	{ NOTE_A4, 62 }, 
	{ NOTE_B4, 62 }, 
	{ NOTE_D5, 188 }, 
	{ NOTE_B4, 188 }, 
	{ NOTE_A4, 62 }, 
	{ NOTE_B4, 62 }, 
	{ NOTE_A4, 62 }, 
	{ NOTE_B4, 62 }, 
	{ NOTE_A4, 62 }, 
	{ NOTE_B4, 66 }, 
	{ NOTE_B4, 188 }, 
	{ NOTE_G4, 188 }, 
	{ NOTE_G4, 375 }, 
	{ NOTE_FS4, 188 }, 
	{ NOTE_G4, 188 }, 
	{ NOTE_FS4, 188 }, 
	{ NOTE_G4, 373 }, 
	{ NOTE_B4, 188 }, 
	{ NOTE_A4, 62 }, 
	{ NOTE_B4, 62 }, 
	{ NOTE_A4, 62 }, 
	{ NOTE_B4, 62 }, 
	{ NOTE_A4, 62 }, 
	{ NOTE_B4, 62 }, 
	{ NOTE_D5, 188 }, 
	{ NOTE_B4, 188 }, 
	{ NOTE_A4, 62 }, 
	{ NOTE_B4, 62 }, 
	{ NOTE_A4, 62 }, 
	{ NOTE_B4, 62 }, 
	{ NOTE_A4, 62 }, 
	{ NOTE_B4, 66 }, 
	{ NOTE_B4, 188 }, 
	{ NOTE_G4, 188 }, 
	{ NOTE_G4, 375 }, 
	{ NOTE_FS4, 188 }, 
	{ NOTE_G4, 188 }, 
	{ NOTE_FS4, 188 }, 
	{ NOTE_G4, 373 }, 
	{ NOTE_B4, 188 }, 
	{ NOTE_A4, 62 }, 
	{ NOTE_B4, 62 }, 
	{ NOTE_A4, 62 }, 
	{ NOTE_B4, 62 }, 
	{ NOTE_A4, 62 }, 
	{ NOTE_B4, 62 }, 
	{ NOTE_D5, 188 }, 
	{ NOTE_B4, 188 }, 
	{ NOTE_A4, 62 }, 
	{ NOTE_B4, 62 }, 
	{ NOTE_A4, 62 }, 
	{ NOTE_B4, 62 }, 
	{ NOTE_A4, 62 }, 
	{ NOTE_B4, 66 }, 
	{ NOTE_B4, 188 }, 
	{ NOTE_G4, 188 }, 
	{ NOTE_G4, 375 }, 
	{ NOTE_FS4, 188 }, 
	{ NOTE_G4, 188 }, 
	{ NOTE_FS4, 188 }, 
	{ NOTE_G4, 373 }, 
	{ NOTE_B4, 188 }, 
	{ NOTE_A4, 62 }, 
	{ NOTE_B4, 62 }, 
	{ NOTE_A4, 62 }, 
	{ NOTE_B4, 62 }, 
	{ NOTE_A4, 62 }, 
	{ NOTE_B4, 62 }, 
	{ NOTE_D5, 188 }, 
	{ NOTE_B4, 188 }, 
	{ NOTE_A4, 62 }, 
	{ NOTE_B4, 62 }, 
	{ NOTE_A4, 62 }, 
	{ NOTE_B4, 62 }, 
	{ NOTE_A4, 62 }, 
	{ NOTE_B4, 66 }, 
	{ NOTE_B4, 188 }, 
	{ NOTE_G4, 188 }, 
	{ NOTE_G4, 375 }, 
	{ NOTE_FS4, 188 }, 
	{ NOTE_G4, 188 }, 
	{ NOTE_FS4, 188 }, 
	{ NOTE_G4, 373 }, 
	{ NOTE_B4, 188 }, 
	{ NOTE_A4, 62 }, 
	{ NOTE_B4, 62 }, 
	{ NOTE_A4, 62 }, 
	{ NOTE_B4, 62 }, 
	{ NOTE_A4, 62 }, 
	{ NOTE_B4, 62 }, 
	{ NOTE_D5, 188 }, 
	{ NOTE_B4, 188 }, 
	{ NOTE_A4, 62 }, 
	{ NOTE_B4, 62 }, 
	{ NOTE_A4, 62 }, 
	{ NOTE_B4, 62 }, 
	{ NOTE_A4, 62 }, 
	{ NOTE_B4, 66 }, 
	{ NOTE_B4, 188 }, 
	{ NOTE_G4, 188 }, 
	{ NOTE_G4, 375 }, 
	{ NOTE_REST, 188 }, 
	{ NOTE_REST, 188 }, 
	{ NOTE_REST, 188 }, 
	{ NOTE_REST, 373 }, 
	{ NOTE_E4, 94 }, 
	{ NOTE_E4, 94 }, 
	{ NOTE_REST, 188 }, 
	{ NOTE_E4, 94 }, 
	{ NOTE_E4, 94 }, 
	{ NOTE_REST, 188 }, 
	{ NOTE_E4, 94 }, 
	{ NOTE_E4, 94 }, 
	{ NOTE_REST, 188 }, 
	{ NOTE_E4, 94 }, 
	{ NOTE_E4, 90 }, 
	{ NOTE_REST, 188 }, 
	{ NOTE_E4, 94 }, 
	{ NOTE_E4, 94 }, 
	{ NOTE_REST, 188 }, 
	{ NOTE_E4, 94 }, 
	{ NOTE_E4, 94 }, 
	{ NOTE_REST, 188 }, 
	{ NOTE_REST, 188 }, 
	{ NOTE_REST, 188 }, 
	{ NOTE_REST, 372 }, 
	{ NOTE_E4, 94 }, 
	{ NOTE_E4, 94 }, 
	{ NOTE_REST, 188 }, 
	{ NOTE_E4, 94 }, 
	{ NOTE_E4, 94 }, 
	{ NOTE_REST, 188 }, 
	{ NOTE_E4, 94 }, 
	{ NOTE_E4, 94 }, 
	{ NOTE_REST, 188 }, 
	{ NOTE_E4, 94 }, 
	{ NOTE_E4, 90 }, 
	{ NOTE_REST, 188 }, 
	{ NOTE_E4, 94 }, 
	{ NOTE_E4, 94 }, 
	{ NOTE_REST, 188 }, 
	{ NOTE_E4, 94 }, 
	{ NOTE_E4, 94 }, 
	{ NOTE_REST, 188 }, 
	{ NOTE_REST, 188 }, 
	{ NOTE_REST, 188 }, 
	{ NOTE_REST, 372 }, 
	{ NOTE_C4, 94 }, 
	{ NOTE_C4, 94 }, 
	{ NOTE_REST, 188 }, 
	{ NOTE_C4, 94 }, 
	{ NOTE_C4, 94 }, 
	{ NOTE_REST, 188 }, 
	{ NOTE_C4, 94 }, 
	{ NOTE_C4, 94 }, 
	{ NOTE_REST, 188 }, 
	{ NOTE_C4, 94 }, 
	{ NOTE_C4, 90 }, 
	{ NOTE_REST, 188 }, 
	{ NOTE_C4, 94 }, 
	{ NOTE_C4, 94 }, 
	{ NOTE_REST, 188 }, 
	{ NOTE_C4, 94 }, 
	{ NOTE_C4, 94 }, 
	{ NOTE_REST, 188 }, 
	{ NOTE_REST, 188 }, 
	{ NOTE_REST, 188 }, 
	{ NOTE_REST, 372 }, 
	{ NOTE_E4, 94 }, 
	{ NOTE_E4, 94 }, 
	{ NOTE_REST, 188 }, 
	{ NOTE_E4, 94 }, 
	{ NOTE_E4, 94 }, 
	{ NOTE_REST, 188 }, 
	{ NOTE_E4, 94 }, 
	{ NOTE_E4, 94 }, 
	{ NOTE_REST, 188 }, 
	{ NOTE_E4, 94 }, 
	{ NOTE_E4, 90 }, 
	{ NOTE_REST, 188 }, 
	{ NOTE_E4, 94 }, 
	{ NOTE_E4, 94 }, 
	{ NOTE_REST, 188 }, 
	{ NOTE_E4, 94 }, 
	{ NOTE_E4, 94 }, 
	{ NOTE_REST, 188 }, 
	{ NOTE_REST, 188 }, 
	{ NOTE_REST, 188 }, 
	{ NOTE_REST, 372 }, 
	{ NOTE_E4, 94 }, 
	{ NOTE_E4, 94 }, 
	{ NOTE_REST, 188 }, 
	{ NOTE_E4, 94 }, 
	{ NOTE_E4, 94 }, 
	{ NOTE_REST, 188 }, 
	{ NOTE_E4, 94 }, 
	{ NOTE_E4, 94 }, 
	{ NOTE_REST, 188 }, 
	{ NOTE_E4, 94 }, 
	{ NOTE_E4, 90 }, 
	{ NOTE_REST, 188 }, 
	{ NOTE_E4, 94 }, 
	{ NOTE_E4, 94 }, 
	{ NOTE_REST, 188 }, 
	{ NOTE_E4, 94 }, 
	{ NOTE_E4, 94 }, 
	{ NOTE_REST, 188 }, 
	{ NOTE_REST, 188 }, 
	{ NOTE_REST, 188 }, 
	{ NOTE_REST, 372 }, 
	{ NOTE_E4, 94 }, 
	{ NOTE_E4, 94 }, 
	{ NOTE_REST, 188 }, 
	{ NOTE_E4, 94 }, 
	{ NOTE_E4, 94 }, 
	{ NOTE_REST, 188 }, 
	{ NOTE_E4, 94 }, 
	{ NOTE_E4, 94 }, 
	{ NOTE_REST, 188 }, 
	{ NOTE_E4, 94 }, 
	{ NOTE_E4, 90 }, 
	{ NOTE_REST, 188 }, 
	{ NOTE_E4, 94 }, 
	{ NOTE_E4, 94 }, 
	{ NOTE_REST, 188 }, 
	{ NOTE_E4, 94 }, 
	{ NOTE_E4, 94 }, 
	{ NOTE_REST, 188 }, 
	{ NOTE_REST, 188 }, 
	{ NOTE_REST, 188 }, 
	{ NOTE_REST, 372 }, 
	{ NOTE_C4, 94 }, 
	{ NOTE_C4, 94 }, 
	{ NOTE_REST, 188 }, 
	{ NOTE_C4, 94 }, 
	{ NOTE_C4, 94 }, 
	{ NOTE_REST, 188 }, 
	{ NOTE_C4, 94 }, 
	{ NOTE_C4, 94 }, 
	{ NOTE_REST, 188 }, 
	{ NOTE_C4, 94 }, 
	{ NOTE_C4, 90 }, 
	{ NOTE_REST, 188 }, 
	{ NOTE_C4, 94 }, 
	{ NOTE_C4, 94 }, 
	{ NOTE_REST, 188 }, 
	{ NOTE_C4, 94 }, 
	{ NOTE_C4, 94 }, 
	{ NOTE_REST, 188 }, 
	{ NOTE_REST, 188 }, 
	{ NOTE_REST, 188 }, 
	{ NOTE_REST, 372 }, 
	{ NOTE_E4, 94 }, 
	{ NOTE_E4, 94 }, 
	{ NOTE_REST, 188 }, 
	{ NOTE_E4, 94 }, 
	{ NOTE_E4, 94 }, 
	{ NOTE_REST, 188 }, 
	{ NOTE_E4, 94 }, 
	{ NOTE_E4, 94 }, 
	{ NOTE_REST, 188 }, 
	{ NOTE_E4, 94 }, 
	{ NOTE_E4, 90 }, 
	{ NOTE_REST, 188 }, 
	{ NOTE_E4, 94 }, 
	{ NOTE_E4, 94 }, 
	{ NOTE_REST, 188 }, 
	{ NOTE_E4, 94 }, 
	{ NOTE_E4, 94 }, 
	{ NOTE_REST, 188 }, 
	{ NOTE_REST, 188 }, 
	{ NOTE_REST, 188 }, 
	{ NOTE_REST, 1872 }, 
	{ NOTE_D4, 94 }, 
	{ NOTE_D4, 94 }, 
	{ NOTE_REST, 188 }, 
	{ NOTE_D4, 94 }, 
	{ NOTE_D4, 94 }, 
	{ NOTE_REST, 562 }, 
	{ NOTE_B4, 2999 }, 
	{ NOTE_REST, 1875 }, 
	{ NOTE_D4, 94 }, 
	{ NOTE_D4, 94 }, 
	{ NOTE_REST, 938 }, 
	{ NOTE_E4, 374 }, 
	{ NOTE_E3, 94 }, 
	{ NOTE_E3, 94 }, 
	{ NOTE_E4, 188 }, 
	{ NOTE_E3, 94 }, 
	{ NOTE_E3, 94 }, 
	{ NOTE_E4, 188 }, 
	{ NOTE_E3, 94 }, 
	{ NOTE_E3, 94 }, 
	{ NOTE_E4, 188 }, 
	{ NOTE_E3, 94 }, 
	{ NOTE_E3, 90 }, 
	{ NOTE_E4, 188 }, 
	{ NOTE_E3, 94 }, 
	{ NOTE_E3, 94 }, 
	{ NOTE_E4, 375 }, 
	{ NOTE_REST, 188 }, 
	{ NOTE_REST, 188 }, 
	{ NOTE_REST, 188 }, 
	{ NOTE_REST, 1591 }, 
	{ NOTE_REST, 94 }, 
	{ NOTE_REST, 1406 }, 
	{ NOTE_REST, 94 }, 
	{ NOTE_REST, 1406 }, 
	{ NOTE_REST, 94 }, 
	{ NOTE_REST, 656 }, 
	{ NOTE_REST, 94 }, 
	{ NOTE_REST, 656 }, 
	{ NOTE_REST, 94 }, 
	{ NOTE_REST, 1406 }, 
	{ NOTE_REST, 94 }, 
	{ NOTE_REST, 1406 }, 
	{ NOTE_REST, 94 }, 
	{ NOTE_REST, 1406 }, 
	{ NOTE_REST, 94 }, 
	{ NOTE_REST, 656 }, 
	{ NOTE_REST, 94 }, 
	{ NOTE_REST, 656 }, 
	{ NOTE_REST, 94 }, 
	{ NOTE_REST, 1406 }, 
	{ NOTE_REST, 94 }, 
	{ NOTE_REST, 1406 }, 
	{ NOTE_REST, 94 }, 
	{ NOTE_REST, 1406 }, 
	{ NOTE_REST, 94 }, 
	{ NOTE_REST, 656 }, 
	{ NOTE_REST, 94 }, 
	{ NOTE_REST, 656 }, 
	{ NOTE_REST, 94 }, 
	{ NOTE_REST, 1406 }, 
	{ NOTE_REST, 94 }, 
	{ NOTE_REST, 1406 }, 
	{ NOTE_REST, 94 }, 
	{ NOTE_REST, 1406 }, 
	{ NOTE_REST, 94 }, 
	{ NOTE_REST, 656 }, 
	{ NOTE_REST, 94 }, 
	{ NOTE_REST, 562 }, 
	{ NOTE_E5, 94 }, 
	{ NOTE_G5, 94 }, 
	{ NOTE_REST, 1500 }, 
	{ NOTE_REST, 1500 }, 
	{ NOTE_REST, 1500 }, 
	{ NOTE_F4, 750 }, 
	{ NOTE_REST, 750 }, 
	{ NOTE_REST, 1500 }, 
	{ NOTE_REST, 1500 }, 
	{ NOTE_REST, 1500 }, 
	{ NOTE_F4, 750 }, 
	{ NOTE_REST, 750 }, 
	{ NOTE_REST, 1500 }, 
	{ NOTE_REST, 1500 }, 
	{ NOTE_REST, 1500 }, 
	{ NOTE_REST, 750 }, 
	{ NOTE_REST, 750 }, 
	{ NOTE_REST, 1500 }, 
	{ NOTE_REST, 1500 }, 
	{ NOTE_REST, 1500 }, 
	{ NOTE_REST, 750 }, 
	{ NOTE_REST, 188 }, 
	{ NOTE_REST, 188 }, 
	{ NOTE_REST, 188 }, 
	{ NOTE_REST, 374 }, 
	{ NOTE_B4, 188 }, 
	{ NOTE_A4, 62 }, 
	{ NOTE_B4, 62 }, 
	{ NOTE_A4, 62 }, 
	{ NOTE_B4, 62 }, 
	{ NOTE_A4, 62 }, 
	{ NOTE_B4, 62 }, 
	{ NOTE_D5, 188 }, 
	{ NOTE_B4, 188 }, 
	{ NOTE_A4, 62 }, 
	{ NOTE_B4, 62 }, 
	{ NOTE_A4, 62 }, 
	{ NOTE_B4, 62 }, 
	{ NOTE_A4, 62 }, 
	{ NOTE_B4, 66 }, 
	{ NOTE_B4, 188 }, 
	{ NOTE_G4, 188 }, 
	{ NOTE_G4, 375 }, 
	{ NOTE_FS4, 188 }, 
	{ NOTE_G4, 188 }, 
	{ NOTE_FS4, 188 }, 
	{ NOTE_G4, 373 }, 
	{ NOTE_B4, 188 }, 
	{ NOTE_A4, 62 }, 
	{ NOTE_B4, 62 }, 
	{ NOTE_A4, 62 }, 
	{ NOTE_B4, 62 }, 
	{ NOTE_A4, 62 }, 
	{ NOTE_B4, 62 }, 
	{ NOTE_D5, 188 }, 
	{ NOTE_B4, 188 }, 
	{ NOTE_A4, 62 }, 
	{ NOTE_B4, 62 }, 
	{ NOTE_A4, 62 }, 
	{ NOTE_B4, 62 }, 
	{ NOTE_A4, 62 }, 
	{ NOTE_B4, 66 }, 
	{ NOTE_B4, 188 }, 
	{ NOTE_G4, 188 }, 
	{ NOTE_G4, 375 }, 
	{ NOTE_FS4, 188 }, 
	{ NOTE_G4, 188 }, 
	{ NOTE_FS4, 188 }, 
	{ NOTE_G4, 373 }, 
	{ NOTE_B4, 188 }, 
	{ NOTE_A4, 62 }, 
	{ NOTE_B4, 62 }, 
	{ NOTE_A4, 62 }, 
	{ NOTE_B4, 62 }, 
	{ NOTE_A4, 62 }, 
	{ NOTE_B4, 62 }, 
	{ NOTE_D5, 188 }, 
	{ NOTE_B4, 188 }, 
	{ NOTE_A4, 62 }, 
	{ NOTE_B4, 62 }, 
	{ NOTE_A4, 62 }, 
	{ NOTE_B4, 62 }, 
	{ NOTE_A4, 62 }, 
	{ NOTE_B4, 66 }, 
	{ NOTE_B4, 188 }, 
	{ NOTE_G4, 188 }, 
	{ NOTE_G4, 375 }, 
	{ NOTE_FS4, 188 }, 
	{ NOTE_G4, 188 }, 
	{ NOTE_FS4, 188 }, 
	{ NOTE_G4, 373 }, 
	{ NOTE_B4, 188 }, 
	{ NOTE_A4, 62 }, 
	{ NOTE_B4, 62 }, 
	{ NOTE_A4, 62 }, 
	{ NOTE_B4, 62 }, 
	{ NOTE_A4, 62 }, 
	{ NOTE_B4, 62 }, 
	{ NOTE_D5, 188 }, 
	{ NOTE_B4, 188 }, 
	{ NOTE_A4, 62 }, 
	{ NOTE_B4, 62 }, 
	{ NOTE_A4, 62 }, 
	{ NOTE_B4, 62 }, 
	{ NOTE_A4, 62 }, 
	{ NOTE_B4, 66 }, 
	{ NOTE_B4, 188 }, 
	{ NOTE_G4, 188 }, 
	{ NOTE_G4, 375 }, 
	{ NOTE_FS4, 188 }, 
	{ NOTE_G4, 188 }, 
	{ NOTE_FS4, 188 }, 
	{ NOTE_G4, 373 }, 
	{ NOTE_B4, 188 }, 
	{ NOTE_A4, 62 }, 
	{ NOTE_B4, 62 }, 
	{ NOTE_A4, 62 }, 
	{ NOTE_B4, 62 }, 
	{ NOTE_A4, 62 }, 
	{ NOTE_B4, 62 }, 
	{ NOTE_D5, 188 }, 
	{ NOTE_B4, 188 }, 
	{ NOTE_A4, 62 }, 
	{ NOTE_B4, 62 }, 
	{ NOTE_A4, 62 }, 
	{ NOTE_B4, 62 }, 
	{ NOTE_A4, 62 }, 
	{ NOTE_B4, 66 }, 
	{ NOTE_B4, 188 }, 
	{ NOTE_G4, 188 }, 
	{ NOTE_G4, 375 }, 
	{ NOTE_FS4, 188 }, 
	{ NOTE_G4, 188 }, 
	{ NOTE_FS4, 188 }, 
	{ NOTE_G4, 373 }, 
	{ NOTE_B4, 188 }, 
	{ NOTE_A4, 62 }, 
	{ NOTE_B4, 62 }, 
	{ NOTE_A4, 62 }, 
	{ NOTE_B4, 62 }, 
	{ NOTE_A4, 62 }, 
	{ NOTE_B4, 62 }, 
	{ NOTE_D5, 188 }, 
	{ NOTE_B4, 188 }, 
	{ NOTE_A4, 62 }, 
	{ NOTE_B4, 62 }, 
	{ NOTE_A4, 62 }, 
	{ NOTE_B4, 62 }, 
	{ NOTE_A4, 62 }, 
	{ NOTE_B4, 66 }, 
	{ NOTE_B4, 188 }, 
	{ NOTE_G4, 188 }, 
	{ NOTE_G4, 375 }, 
	{ NOTE_FS4, 188 }, 
	{ NOTE_G4, 188 }, 
	{ NOTE_FS4, 188 }, 
	{ NOTE_G4, 373 }, 
	{ NOTE_B4, 188 }, 
	{ NOTE_A4, 62 }, 
	{ NOTE_B4, 62 }, 
	{ NOTE_A4, 62 }, 
	{ NOTE_B4, 62 }, 
	{ NOTE_A4, 62 }, 
	{ NOTE_B4, 62 }, 
	{ NOTE_D5, 188 }, 
	{ NOTE_B4, 188 }, 
	{ NOTE_A4, 62 }, 
	{ NOTE_B4, 62 }, 
	{ NOTE_A4, 62 }, 
	{ NOTE_B4, 62 }, 
	{ NOTE_A4, 62 }, 
	{ NOTE_B4, 66 }, 
	{ NOTE_B4, 188 }, 
	{ NOTE_G4, 188 }, 
	{ NOTE_G4, 375 }, 
	{ NOTE_FS4, 188 }, 
	{ NOTE_G4, 188 }, 
	{ NOTE_FS4, 188 }, 
	{ NOTE_G4, 373 }, 
	{ NOTE_B4, 188 }, 
	{ NOTE_A4, 62 }, 
	{ NOTE_B4, 62 }, 
	{ NOTE_A4, 62 }, 
	{ NOTE_B4, 62 }, 
	{ NOTE_A4, 62 }, 
	{ NOTE_B4, 62 }, 
	{ NOTE_D5, 188 }, 
	{ NOTE_B4, 188 }, 
	{ NOTE_A4, 62 }, 
	{ NOTE_B4, 62 }, 
	{ NOTE_A4, 62 }, 
	{ NOTE_B4, 62 }, 
	{ NOTE_A4, 62 }, 
	{ NOTE_B4, 66 }, 
	{ NOTE_B4, 188 }, 
	{ NOTE_G4, 188 }, 
	{ NOTE_G4, 375 }, 
	{ NOTE_REST, 188 }, 
	{ NOTE_REST, 188 }, 
	{ NOTE_REST, 188 }, 
	{ NOTE_REST, 373 }, 
	{ NOTE_E4, 94 }, 
	{ NOTE_E4, 94 }, 
	{ NOTE_REST, 188 }, 
	{ NOTE_E4, 94 }, 
	{ NOTE_E4, 94 }, 
	{ NOTE_REST, 188 }, 
	{ NOTE_E4, 94 }, 
	{ NOTE_E4, 94 }, 
	{ NOTE_REST, 188 }, 
	{ NOTE_E4, 94 }, 
	{ NOTE_E4, 90 }, 
	{ NOTE_REST, 188 }, 
	{ NOTE_E4, 94 }, 
	{ NOTE_E4, 94 }, 
	{ NOTE_REST, 188 }, 
	{ NOTE_E4, 94 }, 
	{ NOTE_E4, 94 }, 
	{ NOTE_REST, 188 }, 
	{ NOTE_REST, 188 }, 
	{ NOTE_REST, 188 }, 
	{ NOTE_REST, 372 }, 
	{ NOTE_E4, 94 }, 
	{ NOTE_E4, 94 }, 
	{ NOTE_REST, 188 }, 
	{ NOTE_E4, 94 }, 
	{ NOTE_E4, 94 }, 
	{ NOTE_REST, 188 }, 
	{ NOTE_E4, 94 }, 
	{ NOTE_E4, 94 }, 
	{ NOTE_REST, 188 }, 
	{ NOTE_E4, 94 }, 
	{ NOTE_E4, 90 }, 
	{ NOTE_REST, 188 }, 
	{ NOTE_E4, 94 }, 
	{ NOTE_E4, 94 }, 
	{ NOTE_REST, 188 }, 
	{ NOTE_E4, 94 }, 
	{ NOTE_E4, 94 }, 
	{ NOTE_REST, 188 }, 
	{ NOTE_REST, 188 }, 
	{ NOTE_REST, 188 }, 
	{ NOTE_REST, 372 }, 
	{ NOTE_C4, 94 }, 
	{ NOTE_C4, 94 }, 
	{ NOTE_REST, 188 }, 
	{ NOTE_C4, 94 }, 
	{ NOTE_C4, 94 }, 
	{ NOTE_REST, 188 }, 
	{ NOTE_C4, 94 }, 
	{ NOTE_C4, 94 }, 
	{ NOTE_REST, 188 }, 
	{ NOTE_C4, 94 }, 
	{ NOTE_C4, 90 }, 
	{ NOTE_REST, 188 }, 
	{ NOTE_C4, 94 }, 
	{ NOTE_C4, 94 }, 
	{ NOTE_REST, 188 }, 
	{ NOTE_C4, 94 }, 
	{ NOTE_C4, 94 }, 
	{ NOTE_REST, 188 }, 
	{ NOTE_REST, 188 }, 
	{ NOTE_REST, 188 }, 
	{ NOTE_REST, 372 }, 
	{ NOTE_E4, 94 }, 
	{ NOTE_E4, 94 }, 
	{ NOTE_REST, 188 }, 
	{ NOTE_E4, 94 }, 
	{ NOTE_E4, 94 }, 
	{ NOTE_REST, 188 }, 
	{ NOTE_E4, 94 }, 
	{ NOTE_E4, 94 }, 
	{ NOTE_REST, 188 }, 
	{ NOTE_E4, 94 }, 
	{ NOTE_E4, 90 }, 
	{ NOTE_REST, 188 }, 
	{ NOTE_E4, 94 }, 
	{ NOTE_E4, 94 }, 
	{ NOTE_REST, 188 }, 
	{ NOTE_E4, 94 }, 
	{ NOTE_E4, 94 }, 
	{ NOTE_REST, 188 }, 
	{ NOTE_REST, 188 }, 
	{ NOTE_REST, 188 }, 
	{ NOTE_REST, 372 }, 
	{ NOTE_E4, 94 }, 
	{ NOTE_E4, 94 }, 
	{ NOTE_REST, 188 }, 
	{ NOTE_E4, 94 }, 
	{ NOTE_E4, 94 }, 
	{ NOTE_REST, 188 }, 
	{ NOTE_E4, 94 }, 
	{ NOTE_E4, 94 }, 
	{ NOTE_REST, 188 }, 
	{ NOTE_E4, 94 }, 
	{ NOTE_E4, 90 }, 
	{ NOTE_REST, 188 }, 
	{ NOTE_E4, 94 }, 
	{ NOTE_E4, 94 }, 
	{ NOTE_REST, 188 }, 
	{ NOTE_E4, 94 }, 
	{ NOTE_E4, 94 }, 
	{ NOTE_REST, 188 }, 
	{ NOTE_REST, 188 }, 
	{ NOTE_REST, 188 }, 
	{ NOTE_REST, 372 }, 
	{ NOTE_E4, 94 }, 
	{ NOTE_E4, 94 }, 
	{ NOTE_REST, 188 }, 
	{ NOTE_E4, 94 }, 
	{ NOTE_E4, 94 }, 
	{ NOTE_REST, 188 }, 
	{ NOTE_E4, 94 }, 
	{ NOTE_E4, 94 }, 
	{ NOTE_REST, 188 }, 
	{ NOTE_E4, 94 }, 
	{ NOTE_E4, 90 }, 
	{ NOTE_REST, 188 }, 
	{ NOTE_E4, 94 }, 
	{ NOTE_E4, 94 }, 
	{ NOTE_REST, 188 }, 
	{ NOTE_E4, 94 }, 
	{ NOTE_E4, 94 }, 
	{ NOTE_REST, 188 }, 
	{ NOTE_REST, 188 }, 
	{ NOTE_REST, 188 }, 
	{ NOTE_REST, 372 }, 
	{ NOTE_C4, 94 }, 
	{ NOTE_C4, 94 }, 
	{ NOTE_REST, 188 }, 
	{ NOTE_C4, 94 }, 
	{ NOTE_C4, 94 }, 
	{ NOTE_REST, 188 }, 
	{ NOTE_C4, 94 }, 
	{ NOTE_C4, 94 }, 
	{ NOTE_REST, 188 }, 
	{ NOTE_C4, 94 }, 
	{ NOTE_C4, 90 }, 
	{ NOTE_REST, 188 }, 
	{ NOTE_C4, 94 }, 
	{ NOTE_C4, 94 }, 
	{ NOTE_REST, 188 }, 
	{ NOTE_C4, 94 }, 
	{ NOTE_C4, 94 }, 
	{ NOTE_REST, 188 }, 
	{ NOTE_REST, 188 }, 
	{ NOTE_REST, 188 }, 
	{ NOTE_REST, 372 }, 
	{ NOTE_E4, 94 }, 
	{ NOTE_E4, 94 }, 
	{ NOTE_REST, 188 }, 
	{ NOTE_E4, 94 }, 
	{ NOTE_E4, 94 }, 
	{ NOTE_REST, 188 }, 
	{ NOTE_E4, 94 }, 
	{ NOTE_E4, 94 }, 
	{ NOTE_REST, 188 }, 
	{ NOTE_E4, 94 }, 
	{ NOTE_E4, 90 }, 
	{ NOTE_REST, 188 }, 
	{ NOTE_E4, 94 }, 
	{ NOTE_E4, 94 }, 
	{ NOTE_REST, 188 }, 
	{ NOTE_E4, 94 }, 
	{ NOTE_E4, 94 }, 
	{ NOTE_REST, 188 }, 
	{ NOTE_REST, 188 }, 
	{ NOTE_REST, 188 }, 
	{ NOTE_REST, 1872 }, 
	{ NOTE_D4, 94 }, 
	{ NOTE_D4, 94 }, 
	{ NOTE_REST, 188 }, 
	{ NOTE_D4, 94 }, 
	{ NOTE_D4, 94 }, 
	{ NOTE_REST, 562 }, 
	{ NOTE_B4, 2999 }, 
	{ NOTE_REST, 1875 }, 
	{ NOTE_D4, 94 }, 
	{ NOTE_D4, 94 }, 
	{ NOTE_REST, 938 }, 
	{ NOTE_E4, 374 }, 
	{ NOTE_E3, 94 }, 
	{ NOTE_E3, 94 }, 
	{ NOTE_E4, 188 }, 
	{ NOTE_E3, 94 }, 
	{ NOTE_E3, 94 }, 
	{ NOTE_E4, 188 }, 
	{ NOTE_E3, 94 }, 
	{ NOTE_E3, 94 }, 
	{ NOTE_E4, 188 }, 
	{ NOTE_E3, 94 }, 
	{ NOTE_E3, 90 }, 
	{ NOTE_E4, 188 }, 
	{ NOTE_E3, 94 }, 
	{ NOTE_E3, 94 }, 
	{ NOTE_E4, 375 }, 
	{ NOTE_REST, 188 }, 
	{ NOTE_REST, 188 }, 
	{ NOTE_REST, 188 }, 
	{ NOTE_REST, 185 }, 
	{ NOTE_REST, 1500 }, 
	{ NOTE_REST, 1500 }, 
	{ NOTE_REST, 1500 }, 
	{ NOTE_REST, 1125 }, 
	{ NOTE_REST, 188 }, 
	{ NOTE_G4, 375 }, 
	{ NOTE_G4, 188 }, 
	{ NOTE_G4, 94 }, 
	{ NOTE_FS4, 94 }, 
	{ NOTE_D4, 188 }, 
	{ NOTE_FS4, 188 }, 
	{ NOTE_FS4, 188 }, 
	{ NOTE_FS4, 94 }, 
	{ NOTE_E4, 94 }, 
	{ NOTE_C4, 184 }, 
	{ NOTE_E4, 188 }, 
	{ NOTE_E4, 188 }, 
	{ NOTE_E4, 94 }, 
	{ NOTE_D4, 94 }, 
	{ NOTE_B3, 188 }, 
	{ NOTE_FS4, 188 }, 
	{ NOTE_B4, 188 }, 
	{ NOTE_FS4, 188 }, 
	{ NOTE_G4, 372 }, 
	{ NOTE_G4, 188 }, 
	{ NOTE_G4, 94 }, 
	{ NOTE_FS4, 94 }, 
	{ NOTE_D4, 188 }, 
	{ NOTE_FS4, 188 }, 
	{ NOTE_FS4, 188 }, 
	{ NOTE_FS4, 94 }, 
	{ NOTE_E4, 94 }, 
	{ NOTE_C4, 184 }, 
	{ NOTE_E4, 188 }, 
	{ NOTE_E4, 188 }, 
	{ NOTE_E4, 94 }, 
	{ NOTE_D4, 94 }, 
	{ NOTE_B3, 188 }, 
	{ NOTE_REST, 188 }, 
	{ NOTE_REST, 188 }, 
	{ NOTE_REST, 188 }, 
	{ NOTE_REST, 559 }, 
	{ NOTE_REST, 750 }, 
	{ NOTE_REST, 375 }, 
	{ NOTE_REST, 1500 }, 
};
const uint16_t NUM_OF_NOTES2 = sizeof(melody2)/sizeof(melody2[0]);

const Note melody3[] PROGMEM = {
	{ NOTE_REST, 1500 }, 
	{ NOTE_REST, 1500 }, 
	{ NOTE_REST, 1500 }, 
	{ NOTE_REST, 1500 }, 
	{ NOTE_REST, 1125 }, 
	{ NOTE_REST, 188 }, 
	{ NOTE_G4, 375 }, 
	{ NOTE_G4, 188 }, 
	{ NOTE_G4, 94 }, 
	{ NOTE_FS4, 94 }, 
	{ NOTE_D4, 188 }, 
	{ NOTE_FS4, 188 }, 
	{ NOTE_FS4, 188 }, 
	{ NOTE_FS4, 94 }, 
	{ NOTE_E4, 94 }, 
	{ NOTE_C4, 184 }, 
	{ NOTE_E4, 188 }, 
	{ NOTE_E4, 188 }, 
	{ NOTE_E4, 94 }, 
	{ NOTE_D4, 94 }, 
	{ NOTE_B3, 188 }, 
	{ NOTE_FS4, 188 }, 
	{ NOTE_B4, 188 }, 
	{ NOTE_FS4, 188 }, 
	{ NOTE_G4, 372 }, 
	{ NOTE_G4, 188 }, 
	{ NOTE_G4, 94 }, 
	{ NOTE_FS4, 94 }, 
	{ NOTE_D4, 188 }, 
	{ NOTE_FS4, 188 }, 
	{ NOTE_FS4, 188 }, 
	{ NOTE_FS4, 94 }, 
	{ NOTE_E4, 94 }, 
	{ NOTE_C4, 184 }, 
	{ NOTE_E4, 188 }, 
	{ NOTE_E4, 188 }, 
	{ NOTE_E4, 94 }, 
	{ NOTE_D4, 94 }, 
	{ NOTE_B3, 188 }, 
	{ NOTE_FS4, 188 }, 
	{ NOTE_B4, 188 }, 
	{ NOTE_FS4, 188 }, 
	{ NOTE_G4, 372 }, 
	{ NOTE_B4, 188 }, 
	{ NOTE_A4, 62 }, 
	{ NOTE_B4, 62 }, 
	{ NOTE_A4, 62 }, 
	{ NOTE_B4, 62 }, 
	{ NOTE_A4, 62 }, 
	{ NOTE_B4, 62 }, 
	{ NOTE_D5, 188 }, 
	{ NOTE_B4, 188 }, 
	{ NOTE_A4, 62 }, 
	{ NOTE_B4, 62 }, 
	{ NOTE_A4, 62 }, 
	{ NOTE_B4, 62 }, 
	{ NOTE_A4, 62 }, 
	{ NOTE_B4, 66 }, 
	{ NOTE_B4, 188 }, 
	{ NOTE_G4, 188 }, 
	{ NOTE_G4, 375 }, 
	{ NOTE_FS4, 188 }, 
	{ NOTE_G4, 188 }, 
	{ NOTE_FS4, 188 }, 
	{ NOTE_G4, 373 }, 
	{ NOTE_B4, 188 }, 
	{ NOTE_A4, 62 }, 
	{ NOTE_B4, 62 }, 
	{ NOTE_A4, 62 }, 
	{ NOTE_B4, 62 }, 
	{ NOTE_A4, 62 }, 
	{ NOTE_B4, 62 }, 
	{ NOTE_D5, 188 }, 
	{ NOTE_B4, 188 }, 
	{ NOTE_A4, 62 }, 
	{ NOTE_B4, 62 }, 
	{ NOTE_A4, 62 }, 
	{ NOTE_B4, 62 }, 
	{ NOTE_A4, 62 }, 
	{ NOTE_B4, 66 }, 
	{ NOTE_B4, 188 }, 
	{ NOTE_G4, 188 }, 
	{ NOTE_G4, 375 }, 
	{ NOTE_FS4, 188 }, 
	{ NOTE_G4, 188 }, 
	{ NOTE_FS4, 188 }, 
	{ NOTE_G4, 373 }, 
	{ NOTE_B4, 188 }, 
	{ NOTE_A4, 62 }, 
	{ NOTE_B4, 62 }, 
	{ NOTE_A4, 62 }, 
	{ NOTE_B4, 62 }, 
	{ NOTE_A4, 62 }, 
	{ NOTE_B4, 62 }, 
	{ NOTE_D5, 188 }, 
	{ NOTE_B4, 188 }, 
	{ NOTE_A4, 62 }, 
	{ NOTE_B4, 62 }, 
	{ NOTE_A4, 62 }, 
	{ NOTE_B4, 62 }, 
	{ NOTE_A4, 62 }, 
	{ NOTE_B4, 66 }, 
	{ NOTE_B4, 188 }, 
	{ NOTE_G4, 188 }, 
	{ NOTE_G4, 375 }, 
	{ NOTE_FS4, 188 }, 
	{ NOTE_G4, 188 }, 
	{ NOTE_FS4, 188 }, 
	{ NOTE_G4, 373 }, 
	{ NOTE_B4, 188 }, 
	{ NOTE_A4, 62 }, 
	{ NOTE_B4, 62 }, 
	{ NOTE_A4, 62 }, 
	{ NOTE_B4, 62 }, 
	{ NOTE_A4, 62 }, 
	{ NOTE_B4, 62 }, 
	{ NOTE_D5, 188 }, 
	{ NOTE_B4, 188 }, 
	{ NOTE_A4, 62 }, 
	{ NOTE_B4, 62 }, 
	{ NOTE_A4, 62 }, 
	{ NOTE_B4, 62 }, 
	{ NOTE_A4, 62 }, 
	{ NOTE_B4, 66 }, 
	{ NOTE_B4, 188 }, 
	{ NOTE_G4, 188 }, 
	{ NOTE_G4, 375 }, 
	{ NOTE_FS4, 188 }, 
	{ NOTE_G4, 188 }, 
	{ NOTE_FS4, 188 }, 
	{ NOTE_G4, 373 }, 
	{ NOTE_B4, 188 }, 
	{ NOTE_A4, 62 }, 
	{ NOTE_B4, 62 }, 
	{ NOTE_A4, 62 }, 
	{ NOTE_B4, 62 }, 
	{ NOTE_A4, 62 }, 
	{ NOTE_B4, 62 }, 
	{ NOTE_D5, 188 }, 
	{ NOTE_B4, 188 }, 
	{ NOTE_A4, 62 }, 
	{ NOTE_B4, 62 }, 
	{ NOTE_A4, 62 }, 
	{ NOTE_B4, 62 }, 
	{ NOTE_A4, 62 }, 
	{ NOTE_B4, 66 }, 
	{ NOTE_B4, 188 }, 
	{ NOTE_G4, 188 }, 
	{ NOTE_G4, 375 }, 
	{ NOTE_FS4, 188 }, 
	{ NOTE_G4, 188 }, 
	{ NOTE_FS4, 188 }, 
	{ NOTE_G4, 373 }, 
	{ NOTE_B4, 188 }, 
	{ NOTE_A4, 62 }, 
	{ NOTE_B4, 62 }, 
	{ NOTE_A4, 62 }, 
	{ NOTE_B4, 62 }, 
	{ NOTE_A4, 62 }, 
	{ NOTE_B4, 62 }, 
	{ NOTE_D5, 188 }, 
	{ NOTE_B4, 188 }, 
	{ NOTE_A4, 62 }, 
	{ NOTE_B4, 62 }, 
	{ NOTE_A4, 62 }, 
	{ NOTE_B4, 62 }, 
	{ NOTE_A4, 62 }, 
	{ NOTE_B4, 66 }, 
	{ NOTE_B4, 188 }, 
	{ NOTE_G4, 188 }, 
	{ NOTE_G4, 375 }, 
	{ NOTE_FS4, 188 }, 
	{ NOTE_G4, 188 }, 
	{ NOTE_FS4, 188 }, 
	{ NOTE_G4, 373 }, 
	{ NOTE_B4, 188 }, 
	{ NOTE_A4, 62 }, 
	{ NOTE_B4, 62 }, 
	{ NOTE_A4, 62 }, 
	{ NOTE_B4, 62 }, 
	{ NOTE_A4, 62 }, 
	{ NOTE_B4, 62 }, 
	{ NOTE_D5, 188 }, 
	{ NOTE_B4, 188 }, 
	{ NOTE_A4, 62 }, 
	{ NOTE_B4, 62 }, 
	{ NOTE_A4, 62 }, 
	{ NOTE_B4, 62 }, 
	{ NOTE_A4, 62 }, 
	{ NOTE_B4, 66 }, 
	{ NOTE_B4, 188 }, 
	{ NOTE_G4, 188 }, 
	{ NOTE_G4, 375 }, 
	{ NOTE_FS4, 188 }, 
	{ NOTE_G4, 188 }, 
	{ NOTE_FS4, 188 }, 
	{ NOTE_G4, 373 }, 
	{ NOTE_B4, 188 }, 
	{ NOTE_A4, 62 }, 
	{ NOTE_B4, 62 }, 
	{ NOTE_A4, 62 }, 
	{ NOTE_B4, 62 }, 
	{ NOTE_A4, 62 }, 
	{ NOTE_B4, 62 }, 
	{ NOTE_D5, 188 }, 
	{ NOTE_B4, 188 }, 
	{ NOTE_A4, 62 }, 
	{ NOTE_B4, 62 }, 
	{ NOTE_A4, 62 }, 
	{ NOTE_B4, 62 }, 
	{ NOTE_A4, 62 }, 
	{ NOTE_B4, 66 }, 
	{ NOTE_B4, 188 }, 
	{ NOTE_G4, 188 }, 
	{ NOTE_G4, 375 }, 
	{ NOTE_D4, 188 }, 
	{ NOTE_G4, 188 }, 
	{ NOTE_D4, 188 }, 
	{ NOTE_E4, 373 }, 
	{ NOTE_REST, 750 }, 
	{ NOTE_REST, 375 }, 
	{ NOTE_REST, 187 }, 
	{ NOTE_REST, 750 }, 
	{ NOTE_D4, 188 }, 
	{ NOTE_G4, 188 }, 
	{ NOTE_D4, 188 }, 
	{ NOTE_E4, 374 }, 
	{ NOTE_REST, 188 }, 
	{ NOTE_REST, 750 }, 
	{ NOTE_REST, 374 }, 
	{ NOTE_REST, 750 }, 
	{ NOTE_D4, 188 }, 
	{ NOTE_G4, 188 }, 
	{ NOTE_D4, 188 }, 
	{ NOTE_C4, 374 }, 
	{ NOTE_REST, 750 }, 
	{ NOTE_REST, 375 }, 
	{ NOTE_REST, 187 }, 
	{ NOTE_REST, 750 }, 
	{ NOTE_D4, 188 }, 
	{ NOTE_G4, 188 }, 
	{ NOTE_D4, 188 }, 
	{ NOTE_E4, 374 }, 
	{ NOTE_REST, 750 }, 
	{ NOTE_REST, 375 }, 
	{ NOTE_REST, 187 }, 
	{ NOTE_REST, 750 }, 
	{ NOTE_D4, 188 }, 
	{ NOTE_G4, 188 }, 
	{ NOTE_D4, 188 }, 
	{ NOTE_E4, 374 }, 
	{ NOTE_E4, 94 }, 
	{ NOTE_E4, 94 }, 
	{ NOTE_E4, 188 }, 
	{ NOTE_E4, 94 }, 
	{ NOTE_E4, 94 }, 
	{ NOTE_E4, 188 }, 
	{ NOTE_E4, 94 }, 
	{ NOTE_E4, 94 }, 
	{ NOTE_E4, 188 }, 
	{ NOTE_E4, 94 }, 
	{ NOTE_E4, 90 }, 
	{ NOTE_E4, 188 }, 
	{ NOTE_E4, 94 }, 
	{ NOTE_E4, 94 }, 
	{ NOTE_E4, 188 }, 
	{ NOTE_E4, 94 }, 
	{ NOTE_E4, 94 }, 
	{ NOTE_D4, 188 }, 
	{ NOTE_G4, 188 }, 
	{ NOTE_D4, 188 }, 
	{ NOTE_E4, 372 }, 
	{ NOTE_E4, 94 }, 
	{ NOTE_E4, 94 }, 
	{ NOTE_E4, 188 }, 
	{ NOTE_E4, 94 }, 
	{ NOTE_E4, 94 }, 
	{ NOTE_E4, 188 }, 
	{ NOTE_E4, 94 }, 
	{ NOTE_E4, 94 }, 
	{ NOTE_E4, 188 }, 
	{ NOTE_E4, 94 }, 
	{ NOTE_E4, 90 }, 
	{ NOTE_E4, 188 }, 
	{ NOTE_E4, 94 }, 
	{ NOTE_E4, 94 }, 
	{ NOTE_E4, 188 }, 
	{ NOTE_E4, 94 }, 
	{ NOTE_E4, 94 }, 
	{ NOTE_D4, 188 }, 
	{ NOTE_G4, 188 }, 
	{ NOTE_D4, 188 }, 
	{ NOTE_C4, 372 }, 
	{ NOTE_C4, 94 }, 
	{ NOTE_C4, 94 }, 
	{ NOTE_C4, 188 }, 
	{ NOTE_C4, 94 }, 
	{ NOTE_C4, 94 }, 
	{ NOTE_C4, 188 }, 
	{ NOTE_C4, 94 }, 
	{ NOTE_C4, 94 }, 
	{ NOTE_C4, 188 }, 
	{ NOTE_C4, 94 }, 
	{ NOTE_C4, 90 }, 
	{ NOTE_C4, 188 }, 
	{ NOTE_C4, 94 }, 
	{ NOTE_C4, 94 }, 
	{ NOTE_C4, 188 }, 
	{ NOTE_C4, 94 }, 
	{ NOTE_C4, 94 }, 
	{ NOTE_D4, 188 }, 
	{ NOTE_G4, 188 }, 
	{ NOTE_D4, 188 }, 
	{ NOTE_E4, 372 }, 
	{ NOTE_E4, 94 }, 
	{ NOTE_E4, 94 }, 
	{ NOTE_E4, 188 }, 
	{ NOTE_E4, 94 }, 
	{ NOTE_E4, 94 }, 
	{ NOTE_E4, 188 }, 
	{ NOTE_E4, 94 }, 
	{ NOTE_E4, 94 }, 
	{ NOTE_E4, 188 }, 
	{ NOTE_E4, 94 }, 
	{ NOTE_E4, 90 }, 
	{ NOTE_E4, 188 }, 
	{ NOTE_E4, 94 }, 
	{ NOTE_E4, 94 }, 
	{ NOTE_E4, 188 }, 
	{ NOTE_E4, 94 }, 
	{ NOTE_E4, 94 }, 
	{ NOTE_D4, 188 }, 
	{ NOTE_G4, 188 }, 
	{ NOTE_D4, 188 }, 
	{ NOTE_D4, 1872 }, 
	{ NOTE_D4, 94 }, 
	{ NOTE_D4, 94 }, 
	{ NOTE_D4, 188 }, 
	{ NOTE_D4, 94 }, 
	{ NOTE_D4, 94 }, 
	{ NOTE_D4, 562 }, 
	{ NOTE_E3, 2999 }, 
	{ NOTE_D4, 1875 }, 
	{ NOTE_D4, 94 }, 
	{ NOTE_D4, 94 }, 
	{ NOTE_D4, 938 }, 
	{ NOTE_E3, 374 }, 
	{ NOTE_E3, 94 }, 
	{ NOTE_E3, 94 }, 
	{ NOTE_E3, 188 }, 
	{ NOTE_E3, 94 }, 
	{ NOTE_E3, 94 }, 
	{ NOTE_E3, 188 }, 
	{ NOTE_E3, 94 }, 
	{ NOTE_E3, 94 }, 
	{ NOTE_E3, 188 }, 
	{ NOTE_E3, 94 }, 
	{ NOTE_E3, 90 }, 
	{ NOTE_E3, 188 }, 
	{ NOTE_E3, 94 }, 
	{ NOTE_E3, 94 }, 
	{ NOTE_E3, 375 }, 
	{ NOTE_D4, 188 }, 
	{ NOTE_G4, 188 }, 
	{ NOTE_D4, 188 }, 
	{ NOTE_E4, 373 }, 
	{ NOTE_B4, 188 }, 
	{ NOTE_A4, 62 }, 
	{ NOTE_B4, 62 }, 
	{ NOTE_A4, 62 }, 
	{ NOTE_B4, 62 }, 
	{ NOTE_A4, 62 }, 
	{ NOTE_B4, 62 }, 
	{ NOTE_D5, 188 }, 
	{ NOTE_B4, 188 }, 
	{ NOTE_A4, 62 }, 
	{ NOTE_B4, 62 }, 
	{ NOTE_A4, 62 }, 
	{ NOTE_B4, 62 }, 
	{ NOTE_A4, 62 }, 
	{ NOTE_B4, 66 }, 
	{ NOTE_B4, 188 }, 
	{ NOTE_G4, 188 }, 
	{ NOTE_G4, 375 }, 
	{ NOTE_FS4, 188 }, 
	{ NOTE_G4, 188 }, 
	{ NOTE_FS4, 188 }, 
	{ NOTE_G4, 373 }, 
	{ NOTE_B4, 188 }, 
	{ NOTE_A4, 62 }, 
	{ NOTE_B4, 62 }, 
	{ NOTE_A4, 62 }, 
	{ NOTE_B4, 62 }, 
	{ NOTE_A4, 62 }, 
	{ NOTE_B4, 62 }, 
	{ NOTE_D5, 188 }, 
	{ NOTE_B4, 188 }, 
	{ NOTE_A4, 62 }, 
	{ NOTE_B4, 62 }, 
	{ NOTE_A4, 62 }, 
	{ NOTE_B4, 62 }, 
	{ NOTE_A4, 62 }, 
	{ NOTE_B4, 66 }, 
	{ NOTE_B4, 188 }, 
	{ NOTE_G4, 188 }, 
	{ NOTE_G4, 375 }, 
	{ NOTE_FS4, 188 }, 
	{ NOTE_G4, 188 }, 
	{ NOTE_FS4, 188 }, 
	{ NOTE_G4, 373 }, 
	{ NOTE_B4, 188 }, 
	{ NOTE_A4, 62 }, 
	{ NOTE_B4, 62 }, 
	{ NOTE_A4, 62 }, 
	{ NOTE_B4, 62 }, 
	{ NOTE_A4, 62 }, 
	{ NOTE_B4, 62 }, 
	{ NOTE_D5, 188 }, 
	{ NOTE_B4, 188 }, 
	{ NOTE_A4, 62 }, 
	{ NOTE_B4, 62 }, 
	{ NOTE_A4, 62 }, 
	{ NOTE_B4, 62 }, 
	{ NOTE_A4, 62 }, 
	{ NOTE_B4, 66 }, 
	{ NOTE_B4, 188 }, 
	{ NOTE_G4, 188 }, 
	{ NOTE_G4, 375 }, 
	{ NOTE_FS4, 188 }, 
	{ NOTE_G4, 188 }, 
	{ NOTE_FS4, 188 }, 
	{ NOTE_G4, 373 }, 
	{ NOTE_B4, 188 }, 
	{ NOTE_A4, 62 }, 
	{ NOTE_B4, 62 }, 
	{ NOTE_A4, 62 }, 
	{ NOTE_B4, 62 }, 
	{ NOTE_A4, 62 }, 
	{ NOTE_B4, 62 }, 
	{ NOTE_D5, 188 }, 
	{ NOTE_B4, 188 }, 
	{ NOTE_A4, 62 }, 
	{ NOTE_B4, 62 }, 
	{ NOTE_A4, 62 }, 
	{ NOTE_B4, 62 }, 
	{ NOTE_A4, 62 }, 
	{ NOTE_B4, 66 }, 
	{ NOTE_B4, 188 }, 
	{ NOTE_G4, 188 }, 
	{ NOTE_G4, 375 }, 
	{ NOTE_FS4, 188 }, 
	{ NOTE_G4, 188 }, 
	{ NOTE_FS4, 188 }, 
	{ NOTE_G4, 373 }, 
	{ NOTE_B4, 188 }, 
	{ NOTE_A4, 62 }, 
	{ NOTE_B4, 62 }, 
	{ NOTE_A4, 62 }, 
	{ NOTE_B4, 62 }, 
	{ NOTE_A4, 62 }, 
	{ NOTE_B4, 62 }, 
	{ NOTE_D5, 188 }, 
	{ NOTE_B4, 188 }, 
	{ NOTE_A4, 62 }, 
	{ NOTE_B4, 62 }, 
	{ NOTE_A4, 62 }, 
	{ NOTE_B4, 62 }, 
	{ NOTE_A4, 62 }, 
	{ NOTE_B4, 66 }, 
	{ NOTE_B4, 188 }, 
	{ NOTE_G4, 188 }, 
	{ NOTE_G4, 375 }, 
	{ NOTE_FS4, 188 }, 
	{ NOTE_G4, 188 }, 
	{ NOTE_FS4, 188 }, 
	{ NOTE_G4, 373 }, 
	{ NOTE_B4, 188 }, 
	{ NOTE_A4, 62 }, 
	{ NOTE_B4, 62 }, 
	{ NOTE_A4, 62 }, 
	{ NOTE_B4, 62 }, 
	{ NOTE_A4, 62 }, 
	{ NOTE_B4, 62 }, 
	{ NOTE_D5, 188 }, 
	{ NOTE_B4, 188 }, 
	{ NOTE_A4, 62 }, 
	{ NOTE_B4, 62 }, 
	{ NOTE_A4, 62 }, 
	{ NOTE_B4, 62 }, 
	{ NOTE_A4, 62 }, 
	{ NOTE_B4, 66 }, 
	{ NOTE_B4, 188 }, 
	{ NOTE_G4, 188 }, 
	{ NOTE_G4, 375 }, 
	{ NOTE_FS4, 188 }, 
	{ NOTE_G4, 188 }, 
	{ NOTE_FS4, 188 }, 
	{ NOTE_G4, 373 }, 
	{ NOTE_B4, 188 }, 
	{ NOTE_A4, 62 }, 
	{ NOTE_B4, 62 }, 
	{ NOTE_A4, 62 }, 
	{ NOTE_B4, 62 }, 
	{ NOTE_A4, 62 }, 
	{ NOTE_B4, 62 }, 
	{ NOTE_D5, 188 }, 
	{ NOTE_B4, 188 }, 
	{ NOTE_A4, 62 }, 
	{ NOTE_B4, 62 }, 
	{ NOTE_A4, 62 }, 
	{ NOTE_B4, 62 }, 
	{ NOTE_A4, 62 }, 
	{ NOTE_B4, 66 }, 
	{ NOTE_B4, 188 }, 
	{ NOTE_G4, 188 }, 
	{ NOTE_G4, 375 }, 
	{ NOTE_FS4, 188 }, 
	{ NOTE_G4, 188 }, 
	{ NOTE_FS4, 188 }, 
	{ NOTE_G4, 373 }, 
	{ NOTE_B4, 188 }, 
	{ NOTE_A4, 62 }, 
	{ NOTE_B4, 62 }, 
	{ NOTE_A4, 62 }, 
	{ NOTE_B4, 62 }, 
	{ NOTE_A4, 62 }, 
	{ NOTE_B4, 62 }, 
	{ NOTE_D5, 188 }, 
	{ NOTE_B4, 188 }, 
	{ NOTE_A4, 62 }, 
	{ NOTE_B4, 62 }, 
	{ NOTE_A4, 62 }, 
	{ NOTE_B4, 62 }, 
	{ NOTE_A4, 62 }, 
	{ NOTE_B4, 66 }, 
	{ NOTE_B4, 188 }, 
	{ NOTE_G4, 188 }, 
	{ NOTE_G4, 375 }, 
	{ NOTE_D4, 188 }, 
	{ NOTE_G4, 188 }, 
	{ NOTE_D4, 188 }, 
	{ NOTE_E4, 373 }, 
	{ NOTE_E4, 94 }, 
	{ NOTE_E4, 94 }, 
	{ NOTE_E4, 188 }, 
	{ NOTE_E4, 94 }, 
	{ NOTE_E4, 94 }, 
	{ NOTE_E4, 188 }, 
	{ NOTE_E4, 94 }, 
	{ NOTE_E4, 94 }, 
	{ NOTE_E4, 188 }, 
	{ NOTE_E4, 94 }, 
	{ NOTE_E4, 90 }, 
	{ NOTE_E4, 188 }, 
	{ NOTE_E4, 94 }, 
	{ NOTE_E4, 94 }, 
	{ NOTE_E4, 188 }, 
	{ NOTE_E4, 94 }, 
	{ NOTE_E4, 94 }, 
	{ NOTE_D4, 188 }, 
	{ NOTE_G4, 188 }, 
	{ NOTE_D4, 188 }, 
	{ NOTE_E4, 372 }, 
	{ NOTE_E4, 94 }, 
	{ NOTE_E4, 94 }, 
	{ NOTE_E4, 188 }, 
	{ NOTE_E4, 94 }, 
	{ NOTE_E4, 94 }, 
	{ NOTE_E4, 188 }, 
	{ NOTE_E4, 94 }, 
	{ NOTE_E4, 94 }, 
	{ NOTE_E4, 188 }, 
	{ NOTE_E4, 94 }, 
	{ NOTE_E4, 90 }, 
	{ NOTE_E4, 188 }, 
	{ NOTE_E4, 94 }, 
	{ NOTE_E4, 94 }, 
	{ NOTE_E4, 188 }, 
	{ NOTE_E4, 94 }, 
	{ NOTE_E4, 94 }, 
	{ NOTE_D4, 188 }, 
	{ NOTE_G4, 188 }, 
	{ NOTE_D4, 188 }, 
	{ NOTE_C4, 372 }, 
	{ NOTE_C4, 94 }, 
	{ NOTE_C4, 94 }, 
	{ NOTE_C4, 188 }, 
	{ NOTE_C4, 94 }, 
	{ NOTE_C4, 94 }, 
	{ NOTE_C4, 188 }, 
	{ NOTE_C4, 94 }, 
	{ NOTE_C4, 94 }, 
	{ NOTE_C4, 188 }, 
	{ NOTE_C4, 94 }, 
	{ NOTE_C4, 90 }, 
	{ NOTE_C4, 188 }, 
	{ NOTE_C4, 94 }, 
	{ NOTE_C4, 94 }, 
	{ NOTE_C4, 188 }, 
	{ NOTE_C4, 94 }, 
	{ NOTE_C4, 94 }, 
	{ NOTE_D4, 188 }, 
	{ NOTE_G4, 188 }, 
	{ NOTE_D4, 188 }, 
	{ NOTE_E4, 372 }, 
	{ NOTE_E4, 94 }, 
	{ NOTE_E4, 94 }, 
	{ NOTE_E4, 188 }, 
	{ NOTE_E4, 94 }, 
	{ NOTE_E4, 94 }, 
	{ NOTE_E4, 188 }, 
	{ NOTE_E4, 94 }, 
	{ NOTE_E4, 94 }, 
	{ NOTE_E4, 188 }, 
	{ NOTE_E4, 94 }, 
	{ NOTE_E4, 90 }, 
	{ NOTE_E4, 188 }, 
	{ NOTE_E4, 94 }, 
	{ NOTE_E4, 94 }, 
	{ NOTE_E4, 188 }, 
	{ NOTE_E4, 94 }, 
	{ NOTE_E4, 94 }, 
	{ NOTE_D4, 188 }, 
	{ NOTE_G4, 188 }, 
	{ NOTE_D4, 188 }, 
	{ NOTE_E4, 372 }, 
	{ NOTE_E4, 94 }, 
	{ NOTE_E4, 94 }, 
	{ NOTE_E4, 188 }, 
	{ NOTE_E4, 94 }, 
	{ NOTE_E4, 94 }, 
	{ NOTE_E4, 188 }, 
	{ NOTE_E4, 94 }, 
	{ NOTE_E4, 94 }, 
	{ NOTE_E4, 188 }, 
	{ NOTE_E4, 94 }, 
	{ NOTE_E4, 90 }, 
	{ NOTE_E4, 188 }, 
	{ NOTE_E4, 94 }, 
	{ NOTE_E4, 94 }, 
	{ NOTE_E4, 188 }, 
	{ NOTE_E4, 94 }, 
	{ NOTE_E4, 94 }, 
	{ NOTE_D4, 188 }, 
	{ NOTE_G4, 188 }, 
	{ NOTE_D4, 188 }, 
	{ NOTE_E4, 372 }, 
	{ NOTE_E4, 94 }, 
	{ NOTE_E4, 94 }, 
	{ NOTE_E4, 188 }, 
	{ NOTE_E4, 94 }, 
	{ NOTE_E4, 94 }, 
	{ NOTE_E4, 188 }, 
	{ NOTE_E4, 94 }, 
	{ NOTE_E4, 94 }, 
	{ NOTE_E4, 188 }, 
	{ NOTE_E4, 94 }, 
	{ NOTE_E4, 90 }, 
	{ NOTE_E4, 188 }, 
	{ NOTE_E4, 94 }, 
	{ NOTE_E4, 94 }, 
	{ NOTE_E4, 188 }, 
	{ NOTE_E4, 94 }, 
	{ NOTE_E4, 94 }, 
	{ NOTE_D4, 188 }, 
	{ NOTE_G4, 188 }, 
	{ NOTE_D4, 188 }, 
	{ NOTE_C4, 372 }, 
	{ NOTE_C4, 94 }, 
	{ NOTE_C4, 94 }, 
	{ NOTE_C4, 188 }, 
	{ NOTE_C4, 94 }, 
	{ NOTE_C4, 94 }, 
	{ NOTE_C4, 188 }, 
	{ NOTE_C4, 94 }, 
	{ NOTE_C4, 94 }, 
	{ NOTE_C4, 188 }, 
	{ NOTE_C4, 94 }, 
	{ NOTE_C4, 90 }, 
	{ NOTE_C4, 188 }, 
	{ NOTE_C4, 94 }, 
	{ NOTE_C4, 94 }, 
	{ NOTE_C4, 188 }, 
	{ NOTE_C4, 94 }, 
	{ NOTE_C4, 94 }, 
	{ NOTE_D4, 188 }, 
	{ NOTE_G4, 188 }, 
	{ NOTE_D4, 188 }, 
	{ NOTE_E4, 372 }, 
	{ NOTE_E4, 94 }, 
	{ NOTE_E4, 94 }, 
	{ NOTE_E4, 188 }, 
	{ NOTE_E4, 94 }, 
	{ NOTE_E4, 94 }, 
	{ NOTE_E4, 188 }, 
	{ NOTE_E4, 94 }, 
	{ NOTE_E4, 94 }, 
	{ NOTE_E4, 188 }, 
	{ NOTE_E4, 94 }, 
	{ NOTE_E4, 90 }, 
	{ NOTE_E4, 188 }, 
	{ NOTE_E4, 94 }, 
	{ NOTE_E4, 94 }, 
	{ NOTE_E4, 188 }, 
	{ NOTE_E4, 94 }, 
	{ NOTE_E4, 94 }, 
	{ NOTE_D4, 188 }, 
	{ NOTE_G4, 188 }, 
	{ NOTE_D4, 188 }, 
	{ NOTE_D4, 1872 }, 
	{ NOTE_D4, 94 }, 
	{ NOTE_D4, 94 }, 
	{ NOTE_D4, 188 }, 
	{ NOTE_D4, 94 }, 
	{ NOTE_D4, 94 }, 
	{ NOTE_D4, 562 }, 
	{ NOTE_E3, 2999 }, 
	{ NOTE_D4, 1875 }, 
	{ NOTE_D4, 94 }, 
	{ NOTE_D4, 94 }, 
	{ NOTE_D4, 938 }, 
	{ NOTE_E3, 374 }, 
	{ NOTE_E3, 94 }, 
	{ NOTE_E3, 94 }, 
	{ NOTE_E3, 188 }, 
	{ NOTE_E3, 94 }, 
	{ NOTE_E3, 94 }, 
	{ NOTE_E3, 188 }, 
	{ NOTE_E3, 94 }, 
	{ NOTE_E3, 94 }, 
	{ NOTE_E3, 188 }, 
	{ NOTE_E3, 94 }, 
	{ NOTE_E3, 90 }, 
	{ NOTE_E3, 188 }, 
	{ NOTE_E3, 94 }, 
	{ NOTE_E3, 94 }, 
	{ NOTE_E3, 375 }, 
	{ NOTE_D4, 188 }, 
	{ NOTE_G4, 188 }, 
	{ NOTE_D4, 188 }, 
	{ NOTE_E4, 1591 }, 
	{ NOTE_REST, 94 }, 
	{ NOTE_D4, 1406 }, 
	{ NOTE_REST, 94 }, 
	{ NOTE_B3, 1406 }, 
	{ NOTE_REST, 94 }, 
	{ NOTE_C4, 656 }, 
	{ NOTE_REST, 94 }, 
	{ NOTE_D4, 656 }, 
	{ NOTE_REST, 94 }, 
	{ NOTE_E4, 1406 }, 
	{ NOTE_REST, 94 }, 
	{ NOTE_D4, 1406 }, 
	{ NOTE_REST, 94 }, 
	{ NOTE_B3, 1406 }, 
	{ NOTE_REST, 94 }, 
	{ NOTE_C4, 656 }, 
	{ NOTE_REST, 94 }, 
	{ NOTE_D4, 656 }, 
	{ NOTE_REST, 94 }, 
	{ NOTE_E4, 1406 }, 
	{ NOTE_REST, 94 }, 
	{ NOTE_D4, 1406 }, 
	{ NOTE_REST, 94 }, 
	{ NOTE_B3, 1406 }, 
	{ NOTE_REST, 94 }, 
	{ NOTE_C4, 656 }, 
	{ NOTE_REST, 94 }, 
	{ NOTE_D4, 656 }, 
	{ NOTE_REST, 94 }, 
	{ NOTE_E4, 1406 }, 
	{ NOTE_REST, 94 }, 
	{ NOTE_D4, 1406 }, 
	{ NOTE_REST, 94 }, 
	{ NOTE_B3, 1406 }, 
	{ NOTE_REST, 94 }, 
	{ NOTE_C4, 656 }, 
	{ NOTE_REST, 94 }, 
	{ NOTE_D4, 562 }, 
	{ NOTE_E5, 94 }, 
	{ NOTE_G5, 94 }, 
	{ NOTE_A3, 1500 }, 
	{ NOTE_G3, 1500 }, 
	{ NOTE_E3, 1500 }, 
	{ NOTE_F3, 750 }, 
	{ NOTE_G3, 750 }, 
	{ NOTE_A3, 1500 }, 
	{ NOTE_G3, 1500 }, 
	{ NOTE_E3, 1500 }, 
	{ NOTE_F3, 750 }, 
	{ NOTE_G3, 750 }, 
	{ NOTE_A3, 1500 }, 
	{ NOTE_G3, 1500 }, 
	{ NOTE_E3, 1500 }, 
	{ NOTE_F3, 750 }, 
	{ NOTE_G3, 750 }, 
	{ NOTE_A3, 1500 }, 
	{ NOTE_G3, 1500 }, 
	{ NOTE_E3, 1500 }, 
	{ NOTE_F3, 750 }, 
	{ NOTE_D4, 188 }, 
	{ NOTE_G4, 188 }, 
	{ NOTE_D4, 188 }, 
	{ NOTE_E4, 374 }, 
	{ NOTE_B4, 188 }, 
	{ NOTE_A4, 62 }, 
	{ NOTE_B4, 62 }, 
	{ NOTE_A4, 62 }, 
	{ NOTE_B4, 62 }, 
	{ NOTE_A4, 62 }, 
	{ NOTE_B4, 62 }, 
	{ NOTE_D5, 188 }, 
	{ NOTE_B4, 188 }, 
	{ NOTE_A4, 62 }, 
	{ NOTE_B4, 62 }, 
	{ NOTE_A4, 62 }, 
	{ NOTE_B4, 62 }, 
	{ NOTE_A4, 62 }, 
	{ NOTE_B4, 66 }, 
	{ NOTE_B4, 188 }, 
	{ NOTE_G4, 188 }, 
	{ NOTE_G4, 375 }, 
	{ NOTE_FS4, 188 }, 
	{ NOTE_G4, 188 }, 
	{ NOTE_FS4, 188 }, 
	{ NOTE_G4, 373 }, 
	{ NOTE_B4, 188 }, 
	{ NOTE_A4, 62 }, 
	{ NOTE_B4, 62 }, 
	{ NOTE_A4, 62 }, 
	{ NOTE_B4, 62 }, 
	{ NOTE_A4, 62 }, 
	{ NOTE_B4, 62 }, 
	{ NOTE_D5, 188 }, 
	{ NOTE_B4, 188 }, 
	{ NOTE_A4, 62 }, 
	{ NOTE_B4, 62 }, 
	{ NOTE_A4, 62 }, 
	{ NOTE_B4, 62 }, 
	{ NOTE_A4, 62 }, 
	{ NOTE_B4, 66 }, 
	{ NOTE_B4, 188 }, 
	{ NOTE_G4, 188 }, 
	{ NOTE_G4, 375 }, 
	{ NOTE_FS4, 188 }, 
	{ NOTE_G4, 188 }, 
	{ NOTE_FS4, 188 }, 
	{ NOTE_G4, 373 }, 
	{ NOTE_B4, 188 }, 
	{ NOTE_A4, 62 }, 
	{ NOTE_B4, 62 }, 
	{ NOTE_A4, 62 }, 
	{ NOTE_B4, 62 }, 
	{ NOTE_A4, 62 }, 
	{ NOTE_B4, 62 }, 
	{ NOTE_D5, 188 }, 
	{ NOTE_B4, 188 }, 
	{ NOTE_A4, 62 }, 
	{ NOTE_B4, 62 }, 
	{ NOTE_A4, 62 }, 
	{ NOTE_B4, 62 }, 
	{ NOTE_A4, 62 }, 
	{ NOTE_B4, 66 }, 
	{ NOTE_B4, 188 }, 
	{ NOTE_G4, 188 }, 
	{ NOTE_G4, 375 }, 
	{ NOTE_FS4, 188 }, 
	{ NOTE_G4, 188 }, 
	{ NOTE_FS4, 188 }, 
	{ NOTE_G4, 373 }, 
	{ NOTE_B4, 188 }, 
	{ NOTE_A4, 62 }, 
	{ NOTE_B4, 62 }, 
	{ NOTE_A4, 62 }, 
	{ NOTE_B4, 62 }, 
	{ NOTE_A4, 62 }, 
	{ NOTE_B4, 62 }, 
	{ NOTE_D5, 188 }, 
	{ NOTE_B4, 188 }, 
	{ NOTE_A4, 62 }, 
	{ NOTE_B4, 62 }, 
	{ NOTE_A4, 62 }, 
	{ NOTE_B4, 62 }, 
	{ NOTE_A4, 62 }, 
	{ NOTE_B4, 66 }, 
	{ NOTE_B4, 188 }, 
	{ NOTE_G4, 188 }, 
	{ NOTE_G4, 375 }, 
	{ NOTE_FS4, 188 }, 
	{ NOTE_G4, 188 }, 
	{ NOTE_FS4, 188 }, 
	{ NOTE_G4, 373 }, 
	{ NOTE_B4, 188 }, 
	{ NOTE_A4, 62 }, 
	{ NOTE_B4, 62 }, 
	{ NOTE_A4, 62 }, 
	{ NOTE_B4, 62 }, 
	{ NOTE_A4, 62 }, 
	{ NOTE_B4, 62 }, 
	{ NOTE_D5, 188 }, 
	{ NOTE_B4, 188 }, 
	{ NOTE_A4, 62 }, 
	{ NOTE_B4, 62 }, 
	{ NOTE_A4, 62 }, 
	{ NOTE_B4, 62 }, 
	{ NOTE_A4, 62 }, 
	{ NOTE_B4, 66 }, 
	{ NOTE_B4, 188 }, 
	{ NOTE_G4, 188 }, 
	{ NOTE_G4, 375 }, 
	{ NOTE_FS4, 188 }, 
	{ NOTE_G4, 188 }, 
	{ NOTE_FS4, 188 }, 
	{ NOTE_G4, 373 }, 
	{ NOTE_B4, 188 }, 
	{ NOTE_A4, 62 }, 
	{ NOTE_B4, 62 }, 
	{ NOTE_A4, 62 }, 
	{ NOTE_B4, 62 }, 
	{ NOTE_A4, 62 }, 
	{ NOTE_B4, 62 }, 
	{ NOTE_D5, 188 }, 
	{ NOTE_B4, 188 }, 
	{ NOTE_A4, 62 }, 
	{ NOTE_B4, 62 }, 
	{ NOTE_A4, 62 }, 
	{ NOTE_B4, 62 }, 
	{ NOTE_A4, 62 }, 
	{ NOTE_B4, 66 }, 
	{ NOTE_B4, 188 }, 
	{ NOTE_G4, 188 }, 
	{ NOTE_G4, 375 }, 
	{ NOTE_FS4, 188 }, 
	{ NOTE_G4, 188 }, 
	{ NOTE_FS4, 188 }, 
	{ NOTE_G4, 373 }, 
	{ NOTE_B4, 188 }, 
	{ NOTE_A4, 62 }, 
	{ NOTE_B4, 62 }, 
	{ NOTE_A4, 62 }, 
	{ NOTE_B4, 62 }, 
	{ NOTE_A4, 62 }, 
	{ NOTE_B4, 62 }, 
	{ NOTE_D5, 188 }, 
	{ NOTE_B4, 188 }, 
	{ NOTE_A4, 62 }, 
	{ NOTE_B4, 62 }, 
	{ NOTE_A4, 62 }, 
	{ NOTE_B4, 62 }, 
	{ NOTE_A4, 62 }, 
	{ NOTE_B4, 66 }, 
	{ NOTE_B4, 188 }, 
	{ NOTE_G4, 188 }, 
	{ NOTE_G4, 375 }, 
	{ NOTE_FS4, 188 }, 
	{ NOTE_G4, 188 }, 
	{ NOTE_FS4, 188 }, 
	{ NOTE_G4, 373 }, 
	{ NOTE_B4, 188 }, 
	{ NOTE_A4, 62 }, 
	{ NOTE_B4, 62 }, 
	{ NOTE_A4, 62 }, 
	{ NOTE_B4, 62 }, 
	{ NOTE_A4, 62 }, 
	{ NOTE_B4, 62 }, 
	{ NOTE_D5, 188 }, 
	{ NOTE_B4, 188 }, 
	{ NOTE_A4, 62 }, 
	{ NOTE_B4, 62 }, 
	{ NOTE_A4, 62 }, 
	{ NOTE_B4, 62 }, 
	{ NOTE_A4, 62 }, 
	{ NOTE_B4, 66 }, 
	{ NOTE_B4, 188 }, 
	{ NOTE_G4, 188 }, 
	{ NOTE_G4, 375 }, 
	{ NOTE_D4, 188 }, 
	{ NOTE_G4, 188 }, 
	{ NOTE_D4, 188 }, 
	{ NOTE_E4, 373 }, 
	{ NOTE_E4, 94 }, 
	{ NOTE_E4, 94 }, 
	{ NOTE_E4, 188 }, 
	{ NOTE_E4, 94 }, 
	{ NOTE_E4, 94 }, 
	{ NOTE_E4, 188 }, 
	{ NOTE_E4, 94 }, 
	{ NOTE_E4, 94 }, 
	{ NOTE_E4, 188 }, 
	{ NOTE_E4, 94 }, 
	{ NOTE_E4, 90 }, 
	{ NOTE_E4, 188 }, 
	{ NOTE_E4, 94 }, 
	{ NOTE_E4, 94 }, 
	{ NOTE_E4, 188 }, 
	{ NOTE_E4, 94 }, 
	{ NOTE_E4, 94 }, 
	{ NOTE_D4, 188 }, 
	{ NOTE_G4, 188 }, 
	{ NOTE_D4, 188 }, 
	{ NOTE_E4, 372 }, 
	{ NOTE_E4, 94 }, 
	{ NOTE_E4, 94 }, 
	{ NOTE_E4, 188 }, 
	{ NOTE_E4, 94 }, 
	{ NOTE_E4, 94 }, 
	{ NOTE_E4, 188 }, 
	{ NOTE_E4, 94 }, 
	{ NOTE_E4, 94 }, 
	{ NOTE_E4, 188 }, 
	{ NOTE_E4, 94 }, 
	{ NOTE_E4, 90 }, 
	{ NOTE_E4, 188 }, 
	{ NOTE_E4, 94 }, 
	{ NOTE_E4, 94 }, 
	{ NOTE_E4, 188 }, 
	{ NOTE_E4, 94 }, 
	{ NOTE_E4, 94 }, 
	{ NOTE_D4, 188 }, 
	{ NOTE_G4, 188 }, 
	{ NOTE_D4, 188 }, 
	{ NOTE_C4, 372 }, 
	{ NOTE_C4, 94 }, 
	{ NOTE_C4, 94 }, 
	{ NOTE_C4, 188 }, 
	{ NOTE_C4, 94 }, 
	{ NOTE_C4, 94 }, 
	{ NOTE_C4, 188 }, 
	{ NOTE_C4, 94 }, 
	{ NOTE_C4, 94 }, 
	{ NOTE_C4, 188 }, 
	{ NOTE_C4, 94 }, 
	{ NOTE_C4, 90 }, 
	{ NOTE_C4, 188 }, 
	{ NOTE_C4, 94 }, 
	{ NOTE_C4, 94 }, 
	{ NOTE_C4, 188 }, 
	{ NOTE_C4, 94 }, 
	{ NOTE_C4, 94 }, 
	{ NOTE_D4, 188 }, 
	{ NOTE_G4, 188 }, 
	{ NOTE_D4, 188 }, 
	{ NOTE_E4, 372 }, 
	{ NOTE_E4, 94 }, 
	{ NOTE_E4, 94 }, 
	{ NOTE_E4, 188 }, 
	{ NOTE_E4, 94 }, 
	{ NOTE_E4, 94 }, 
	{ NOTE_E4, 188 }, 
	{ NOTE_E4, 94 }, 
	{ NOTE_E4, 94 }, 
	{ NOTE_E4, 188 }, 
	{ NOTE_E4, 94 }, 
	{ NOTE_E4, 90 }, 
	{ NOTE_E4, 188 }, 
	{ NOTE_E4, 94 }, 
	{ NOTE_E4, 94 }, 
	{ NOTE_E4, 188 }, 
	{ NOTE_E4, 94 }, 
	{ NOTE_E4, 94 }, 
	{ NOTE_D4, 188 }, 
	{ NOTE_G4, 188 }, 
	{ NOTE_D4, 188 }, 
	{ NOTE_E4, 372 }, 
	{ NOTE_E4, 94 }, 
	{ NOTE_E4, 94 }, 
	{ NOTE_E4, 188 }, 
	{ NOTE_E4, 94 }, 
	{ NOTE_E4, 94 }, 
	{ NOTE_E4, 188 }, 
	{ NOTE_E4, 94 }, 
	{ NOTE_E4, 94 }, 
	{ NOTE_E4, 188 }, 
	{ NOTE_E4, 94 }, 
	{ NOTE_E4, 90 }, 
	{ NOTE_E4, 188 }, 
	{ NOTE_E4, 94 }, 
	{ NOTE_E4, 94 }, 
	{ NOTE_E4, 188 }, 
	{ NOTE_E4, 94 }, 
	{ NOTE_E4, 94 }, 
	{ NOTE_D4, 188 }, 
	{ NOTE_G4, 188 }, 
	{ NOTE_D4, 188 }, 
	{ NOTE_E4, 372 }, 
	{ NOTE_E4, 94 }, 
	{ NOTE_E4, 94 }, 
	{ NOTE_E4, 188 }, 
	{ NOTE_E4, 94 }, 
	{ NOTE_E4, 94 }, 
	{ NOTE_E4, 188 }, 
	{ NOTE_E4, 94 }, 
	{ NOTE_E4, 94 }, 
	{ NOTE_E4, 188 }, 
	{ NOTE_E4, 94 }, 
	{ NOTE_E4, 90 }, 
	{ NOTE_E4, 188 }, 
	{ NOTE_E4, 94 }, 
	{ NOTE_E4, 94 }, 
	{ NOTE_E4, 188 }, 
	{ NOTE_E4, 94 }, 
	{ NOTE_E4, 94 }, 
	{ NOTE_D4, 188 }, 
	{ NOTE_G4, 188 }, 
	{ NOTE_D4, 188 }, 
	{ NOTE_C4, 372 }, 
	{ NOTE_C4, 94 }, 
	{ NOTE_C4, 94 }, 
	{ NOTE_C4, 188 }, 
	{ NOTE_C4, 94 }, 
	{ NOTE_C4, 94 }, 
	{ NOTE_C4, 188 }, 
	{ NOTE_C4, 94 }, 
	{ NOTE_C4, 94 }, 
	{ NOTE_C4, 188 }, 
	{ NOTE_C4, 94 }, 
	{ NOTE_C4, 90 }, 
	{ NOTE_C4, 188 }, 
	{ NOTE_C4, 94 }, 
	{ NOTE_C4, 94 }, 
	{ NOTE_C4, 188 }, 
	{ NOTE_C4, 94 }, 
	{ NOTE_C4, 94 }, 
	{ NOTE_D4, 188 }, 
	{ NOTE_G4, 188 }, 
	{ NOTE_D4, 188 }, 
	{ NOTE_E4, 372 }, 
	{ NOTE_E4, 94 }, 
	{ NOTE_E4, 94 }, 
	{ NOTE_E4, 188 }, 
	{ NOTE_E4, 94 }, 
	{ NOTE_E4, 94 }, 
	{ NOTE_E4, 188 }, 
	{ NOTE_E4, 94 }, 
	{ NOTE_E4, 94 }, 
	{ NOTE_E4, 188 }, 
	{ NOTE_E4, 94 }, 
	{ NOTE_E4, 90 }, 
	{ NOTE_E4, 188 }, 
	{ NOTE_E4, 94 }, 
	{ NOTE_E4, 94 }, 
	{ NOTE_E4, 188 }, 
	{ NOTE_E4, 94 }, 
	{ NOTE_E4, 94 }, 
	{ NOTE_D4, 188 }, 
	{ NOTE_G4, 188 }, 
	{ NOTE_D4, 188 }, 
	{ NOTE_D4, 1872 }, 
	{ NOTE_D4, 94 }, 
	{ NOTE_D4, 94 }, 
	{ NOTE_D4, 188 }, 
	{ NOTE_D4, 94 }, 
	{ NOTE_D4, 94 }, 
	{ NOTE_D4, 562 }, 
	{ NOTE_E3, 2999 }, 
	{ NOTE_D4, 1875 }, 
	{ NOTE_D4, 94 }, 
	{ NOTE_D4, 94 }, 
	{ NOTE_D4, 938 }, 
	{ NOTE_E3, 374 }, 
	{ NOTE_E3, 94 }, 
	{ NOTE_E3, 94 }, 
	{ NOTE_E3, 188 }, 
	{ NOTE_E3, 94 }, 
	{ NOTE_E3, 94 }, 
	{ NOTE_E3, 188 }, 
	{ NOTE_E3, 94 }, 
	{ NOTE_E3, 94 }, 
	{ NOTE_E3, 188 }, 
	{ NOTE_E3, 94 }, 
	{ NOTE_E3, 90 }, 
	{ NOTE_E3, 188 }, 
	{ NOTE_E3, 94 }, 
	{ NOTE_E3, 94 }, 
	{ NOTE_E3, 375 }, 
	{ NOTE_D4, 188 }, 
	{ NOTE_G4, 188 }, 
	{ NOTE_D4, 188 }, 
	{ NOTE_E4, 185 }, 
	{ NOTE_REST, 1500 }, 
	{ NOTE_REST, 1500 }, 
	{ NOTE_REST, 1500 }, 
	{ NOTE_REST, 1125 }, 
	{ NOTE_REST, 188 }, 
	{ NOTE_G4, 375 }, 
	{ NOTE_G4, 188 }, 
	{ NOTE_G4, 94 }, 
	{ NOTE_FS4, 94 }, 
	{ NOTE_D4, 188 }, 
	{ NOTE_FS4, 188 }, 
	{ NOTE_FS4, 188 }, 
	{ NOTE_FS4, 94 }, 
	{ NOTE_E4, 94 }, 
	{ NOTE_C4, 184 }, 
	{ NOTE_E4, 188 }, 
	{ NOTE_E4, 188 }, 
	{ NOTE_E4, 94 }, 
	{ NOTE_D4, 94 }, 
	{ NOTE_B3, 188 }, 
	{ NOTE_FS4, 188 }, 
	{ NOTE_B4, 188 }, 
	{ NOTE_FS4, 188 }, 
	{ NOTE_G4, 372 }, 
	{ NOTE_G4, 188 }, 
	{ NOTE_G4, 94 }, 
	{ NOTE_FS4, 94 }, 
	{ NOTE_D4, 188 }, 
	{ NOTE_FS4, 188 }, 
	{ NOTE_FS4, 188 }, 
	{ NOTE_FS4, 94 }, 
	{ NOTE_E4, 94 }, 
	{ NOTE_C4, 184 }, 
	{ NOTE_E4, 188 }, 
	{ NOTE_E4, 188 }, 
	{ NOTE_E4, 94 }, 
	{ NOTE_D4, 94 }, 
	{ NOTE_B3, 188 }, 
	{ NOTE_D4, 188 }, 
	{ NOTE_G4, 188 }, 
	{ NOTE_D4, 188 }, 
	{ NOTE_E4, 559 }, 
	{ NOTE_REST, 750 }, 
	{ NOTE_REST, 375 }, 
	{ NOTE_REST, 1500 }, 
};
const uint16_t NUM_OF_NOTES3 = sizeof(melody3)/sizeof(melody3[0]);

const Note melody4[] PROGMEM = {
	{ NOTE_REST, 1500 }, 
	{ NOTE_E4, 375 }, 
	{ NOTE_REST, 750 }, 
	{ NOTE_REST, 375 }, 
	{ NOTE_REST, 750 }, 
	{ NOTE_D4, 188 }, 
	{ NOTE_G4, 188 }, 
	{ NOTE_D4, 188 }, 
	{ NOTE_E4, 374 }, 
	{ NOTE_REST, 750 }, 
	{ NOTE_REST, 562 }, 
	{ NOTE_REST, 750 }, 
	{ NOTE_D4, 188 }, 
	{ NOTE_G4, 188 }, 
	{ NOTE_D4, 188 }, 
	{ NOTE_E4, 374 }, 
	{ NOTE_REST, 750 }, 
	{ NOTE_REST, 562 }, 
	{ NOTE_REST, 750 }, 
	{ NOTE_D4, 188 }, 
	{ NOTE_G4, 188 }, 
	{ NOTE_D4, 188 }, 
	{ NOTE_E4, 374 }, 
	{ NOTE_REST, 750 }, 
	{ NOTE_REST, 562 }, 
	{ NOTE_REST, 750 }, 
	{ NOTE_D4, 188 }, 
	{ NOTE_G4, 188 }, 
	{ NOTE_D4, 188 }, 
	{ NOTE_E4, 374 }, 
	{ NOTE_E4, 188 }, 
	{ NOTE_E4, 188 }, 
	{ NOTE_E4, 94 }, 
	{ NOTE_E4, 94 }, 
	{ NOTE_E4, 188 }, 
	{ NOTE_E4, 94 }, 
	{ NOTE_E4, 94 }, 
	{ NOTE_E4, 188 }, 
	{ NOTE_E4, 94 }, 
	{ NOTE_E4, 90 }, 
	{ NOTE_E4, 188 }, 
	{ NOTE_E4, 94 }, 
	{ NOTE_E4, 94 }, 
	{ NOTE_E4, 188 }, 
	{ NOTE_E4, 94 }, 
	{ NOTE_E4, 94 }, 
	{ NOTE_D4, 188 }, 
	{ NOTE_G4, 188 }, 
	{ NOTE_D4, 188 }, 
	{ NOTE_E4, 372 }, 
	{ NOTE_E4, 188 }, 
	{ NOTE_E4, 188 }, 
	{ NOTE_E4, 94 }, 
	{ NOTE_E4, 94 }, 
	{ NOTE_E4, 188 }, 
	{ NOTE_E4, 94 }, 
	{ NOTE_E4, 94 }, 
	{ NOTE_E4, 188 }, 
	{ NOTE_E4, 94 }, 
	{ NOTE_E4, 90 }, 
	{ NOTE_E4, 188 }, 
	{ NOTE_E4, 94 }, 
	{ NOTE_E4, 94 }, 
	{ NOTE_E4, 188 }, 
	{ NOTE_E4, 94 }, 
	{ NOTE_E4, 94 }, 
	{ NOTE_D4, 188 }, 
	{ NOTE_G4, 188 }, 
	{ NOTE_D4, 188 }, 
	{ NOTE_C4, 372 }, 
	{ NOTE_C4, 188 }, 
	{ NOTE_C4, 188 }, 
	{ NOTE_C4, 94 }, 
	{ NOTE_C4, 94 }, 
	{ NOTE_C4, 188 }, 
	{ NOTE_C4, 94 }, 
	{ NOTE_C4, 94 }, 
	{ NOTE_C4, 188 }, 
	{ NOTE_C4, 94 }, 
	{ NOTE_C4, 90 }, 
	{ NOTE_C4, 188 }, 
	{ NOTE_C4, 94 }, 
	{ NOTE_C4, 94 }, 
	{ NOTE_C4, 188 }, 
	{ NOTE_C4, 94 }, 
	{ NOTE_C4, 94 }, 
	{ NOTE_D4, 188 }, 
	{ NOTE_G4, 188 }, 
	{ NOTE_D4, 188 }, 
	{ NOTE_E4, 372 }, 
	{ NOTE_E4, 188 }, 
	{ NOTE_E4, 188 }, 
	{ NOTE_E4, 94 }, 
	{ NOTE_E4, 94 }, 
	{ NOTE_E4, 188 }, 
	{ NOTE_E4, 94 }, 
	{ NOTE_E4, 94 }, 
	{ NOTE_E4, 188 }, 
	{ NOTE_E4, 94 }, 
	{ NOTE_E4, 90 }, 
	{ NOTE_E4, 188 }, 
	{ NOTE_E4, 94 }, 
	{ NOTE_E4, 94 }, 
	{ NOTE_E4, 188 }, 
	{ NOTE_E4, 94 }, 
	{ NOTE_E4, 94 }, 
	{ NOTE_D4, 188 }, 
	{ NOTE_G4, 188 }, 
	{ NOTE_D4, 188 }, 
	{ NOTE_E4, 372 }, 
	{ NOTE_E4, 188 }, 
	{ NOTE_E4, 188 }, 
	{ NOTE_E4, 94 }, 
	{ NOTE_E4, 94 }, 
	{ NOTE_E4, 188 }, 
	{ NOTE_E4, 94 }, 
	{ NOTE_E4, 94 }, 
	{ NOTE_E4, 188 }, 
	{ NOTE_E4, 94 }, 
	{ NOTE_E4, 90 }, 
	{ NOTE_E4, 188 }, 
	{ NOTE_E4, 94 }, 
	{ NOTE_E4, 94 }, 
	{ NOTE_E4, 188 }, 
	{ NOTE_E4, 94 }, 
	{ NOTE_E4, 94 }, 
	{ NOTE_D4, 188 }, 
	{ NOTE_G4, 188 }, 
	{ NOTE_D4, 188 }, 
	{ NOTE_E4, 372 }, 
	{ NOTE_E4, 188 }, 
	{ NOTE_E4, 188 }, 
	{ NOTE_E4, 94 }, 
	{ NOTE_E4, 94 }, 
	{ NOTE_E4, 188 }, 
	{ NOTE_E4, 94 }, 
	{ NOTE_E4, 94 }, 
	{ NOTE_E4, 188 }, 
	{ NOTE_E4, 94 }, 
	{ NOTE_E4, 90 }, 
	{ NOTE_E4, 188 }, 
	{ NOTE_E4, 94 }, 
	{ NOTE_E4, 94 }, 
	{ NOTE_E4, 188 }, 
	{ NOTE_E4, 94 }, 
	{ NOTE_E4, 94 }, 
	{ NOTE_D4, 188 }, 
	{ NOTE_G4, 188 }, 
	{ NOTE_D4, 188 }, 
	{ NOTE_C4, 372 }, 
	{ NOTE_C4, 188 }, 
	{ NOTE_C4, 188 }, 
	{ NOTE_C4, 94 }, 
	{ NOTE_C4, 94 }, 
	{ NOTE_C4, 188 }, 
	{ NOTE_C4, 94 }, 
	{ NOTE_C4, 94 }, 
	{ NOTE_C4, 188 }, 
	{ NOTE_C4, 94 }, 
	{ NOTE_C4, 90 }, 
	{ NOTE_C4, 188 }, 
	{ NOTE_C4, 94 }, 
	{ NOTE_C4, 94 }, 
	{ NOTE_C4, 188 }, 
	{ NOTE_C4, 94 }, 
	{ NOTE_C4, 94 }, 
	{ NOTE_D4, 188 }, 
	{ NOTE_G4, 188 }, 
	{ NOTE_D4, 188 }, 
	{ NOTE_E4, 372 }, 
	{ NOTE_E4, 188 }, 
	{ NOTE_E4, 188 }, 
	{ NOTE_E4, 94 }, 
	{ NOTE_E4, 94 }, 
	{ NOTE_E4, 188 }, 
	{ NOTE_E4, 94 }, 
	{ NOTE_E4, 94 }, 
	{ NOTE_E4, 188 }, 
	{ NOTE_E4, 94 }, 
	{ NOTE_E4, 90 }, 
	{ NOTE_E4, 188 }, 
	{ NOTE_E4, 94 }, 
	{ NOTE_E4, 94 }, 
	{ NOTE_E4, 188 }, 
	{ NOTE_E4, 94 }, 
	{ NOTE_E4, 94 }, 
	{ NOTE_D4, 188 }, 
	{ NOTE_G4, 188 }, 
	{ NOTE_D4, 188 }, 
	{ NOTE_E4, 372 }, 
	{ NOTE_REST, 750 }, 
	{ NOTE_REST, 375 }, 
	{ NOTE_REST, 187 }, 
	{ NOTE_REST, 750 }, 
	{ NOTE_D4, 188 }, 
	{ NOTE_G4, 188 }, 
	{ NOTE_D4, 188 }, 
	{ NOTE_E4, 374 }, 
	{ NOTE_REST, 750 }, 
	{ NOTE_REST, 375 }, 
	{ NOTE_REST, 187 }, 
	{ NOTE_REST, 750 }, 
	{ NOTE_D4, 188 }, 
	{ NOTE_G4, 188 }, 
	{ NOTE_D4, 188 }, 
	{ NOTE_C4, 374 }, 
	{ NOTE_REST, 750 }, 
	{ NOTE_REST, 375 }, 
	{ NOTE_REST, 187 }, 
	{ NOTE_REST, 750 }, 
	{ NOTE_D4, 188 }, 
	{ NOTE_G4, 188 }, 
	{ NOTE_D4, 188 }, 
	{ NOTE_E4, 374 }, 
	{ NOTE_REST, 750 }, 
	{ NOTE_REST, 375 }, 
	{ NOTE_REST, 187 }, 
	{ NOTE_REST, 750 }, 
	{ NOTE_D4, 188 }, 
	{ NOTE_G4, 188 }, 
	{ NOTE_D4, 188 }, 
	{ NOTE_E4, 374 }, 
	{ NOTE_E4, 188 }, 
	{ NOTE_E4, 188 }, 
	{ NOTE_E4, 94 }, 
	{ NOTE_E4, 94 }, 
	{ NOTE_E4, 188 }, 
	{ NOTE_E4, 94 }, 
	{ NOTE_E4, 94 }, 
	{ NOTE_E4, 188 }, 
	{ NOTE_E4, 94 }, 
	{ NOTE_E4, 90 }, 
	{ NOTE_E4, 188 }, 
	{ NOTE_E4, 94 }, 
	{ NOTE_E4, 94 }, 
	{ NOTE_E4, 188 }, 
	{ NOTE_E4, 94 }, 
	{ NOTE_E4, 94 }, 
	{ NOTE_D4, 188 }, 
	{ NOTE_G4, 188 }, 
	{ NOTE_D4, 188 }, 
	{ NOTE_E4, 372 }, 
	{ NOTE_E4, 94 }, 
	{ NOTE_E4, 94 }, 
	{ NOTE_E4, 188 }, 
	{ NOTE_E4, 94 }, 
	{ NOTE_E4, 94 }, 
	{ NOTE_E4, 188 }, 
	{ NOTE_E4, 94 }, 
	{ NOTE_E4, 94 }, 
	{ NOTE_E4, 188 }, 
	{ NOTE_E4, 94 }, 
	{ NOTE_E4, 90 }, 
	{ NOTE_E4, 188 }, 
	{ NOTE_E4, 94 }, 
	{ NOTE_E4, 94 }, 
	{ NOTE_E4, 188 }, 
	{ NOTE_E4, 94 }, 
	{ NOTE_E4, 94 }, 
	{ NOTE_D4, 188 }, 
	{ NOTE_G4, 188 }, 
	{ NOTE_D4, 188 }, 
	{ NOTE_C4, 372 }, 
	{ NOTE_C4, 94 }, 
	{ NOTE_C4, 94 }, 
	{ NOTE_C4, 188 }, 
	{ NOTE_C4, 94 }, 
	{ NOTE_C4, 94 }, 
	{ NOTE_C4, 188 }, 
	{ NOTE_C4, 94 }, 
	{ NOTE_C4, 94 }, 
	{ NOTE_C4, 188 }, 
	{ NOTE_C4, 94 }, 
	{ NOTE_C4, 90 }, 
	{ NOTE_C4, 188 }, 
	{ NOTE_C4, 94 }, 
	{ NOTE_C4, 94 }, 
	{ NOTE_C4, 188 }, 
	{ NOTE_C4, 94 }, 
	{ NOTE_C4, 94 }, 
	{ NOTE_D4, 188 }, 
	{ NOTE_G4, 188 }, 
	{ NOTE_D4, 188 }, 
	{ NOTE_E4, 372 }, 
	{ NOTE_E4, 94 }, 
	{ NOTE_E4, 94 }, 
	{ NOTE_E4, 188 }, 
	{ NOTE_E4, 94 }, 
	{ NOTE_E4, 94 }, 
	{ NOTE_E4, 188 }, 
	{ NOTE_E4, 94 }, 
	{ NOTE_E4, 94 }, 
	{ NOTE_E4, 188 }, 
	{ NOTE_E4, 94 }, 
	{ NOTE_E4, 90 }, 
	{ NOTE_E4, 188 }, 
	{ NOTE_E4, 94 }, 
	{ NOTE_E4, 94 }, 
	{ NOTE_E4, 188 }, 
	{ NOTE_E4, 94 }, 
	{ NOTE_E4, 94 }, 
	{ NOTE_D4, 188 }, 
	{ NOTE_G4, 188 }, 
	{ NOTE_D4, 188 }, 
	{ NOTE_D4, 372 }, 
	{ NOTE_D4, 94 }, 
	{ NOTE_D4, 94 }, 
	{ NOTE_D4, 188 }, 
	{ NOTE_D4, 94 }, 
	{ NOTE_D4, 94 }, 
	{ NOTE_D4, 188 }, 
	{ NOTE_D4, 94 }, 
	{ NOTE_D4, 94 }, 
	{ NOTE_D4, 188 }, 
	{ NOTE_D4, 94 }, 
	{ NOTE_D4, 90 }, 
	{ NOTE_D4, 188 }, 
	{ NOTE_D4, 94 }, 
	{ NOTE_D4, 94 }, 
	{ NOTE_D4, 188 }, 
	{ NOTE_D4, 94 }, 
	{ NOTE_D4, 94 }, 
	{ NOTE_D4, 188 }, 
	{ NOTE_D4, 94 }, 
	{ NOTE_D4, 94 }, 
	{ NOTE_D4, 188 }, 
	{ NOTE_E4, 184 }, 
	{ NOTE_E4, 188 }, 
	{ NOTE_E4, 94 }, 
	{ NOTE_E4, 94 }, 
	{ NOTE_E4, 188 }, 
	{ NOTE_E4, 94 }, 
	{ NOTE_E4, 94 }, 
	{ NOTE_E4, 188 }, 
	{ NOTE_E4, 94 }, 
	{ NOTE_E4, 94 }, 
	{ NOTE_E4, 188 }, 
	{ NOTE_E4, 94 }, 
	{ NOTE_E4, 90 }, 
	{ NOTE_E4, 188 }, 
	{ NOTE_E4, 94 }, 
	{ NOTE_E4, 94 }, 
	{ NOTE_E4, 188 }, 
	{ NOTE_E4, 94 }, 
	{ NOTE_E4, 94 }, 
	{ NOTE_E4, 188 }, 
	{ NOTE_E4, 94 }, 
	{ NOTE_E4, 94 }, 
	{ NOTE_E4, 188 }, 
	{ NOTE_D4, 372 }, 
	{ NOTE_D4, 94 }, 
	{ NOTE_D4, 94 }, 
	{ NOTE_D4, 188 }, 
	{ NOTE_D4, 94 }, 
	{ NOTE_D4, 94 }, 
	{ NOTE_D4, 188 }, 
	{ NOTE_D4, 94 }, 
	{ NOTE_D4, 94 }, 
	{ NOTE_D4, 188 }, 
	{ NOTE_D4, 94 }, 
	{ NOTE_D4, 90 }, 
	{ NOTE_D4, 188 }, 
	{ NOTE_D4, 94 }, 
	{ NOTE_D4, 94 }, 
	{ NOTE_D4, 188 }, 
	{ NOTE_D4, 94 }, 
	{ NOTE_D4, 94 }, 
	{ NOTE_D4, 188 }, 
	{ NOTE_D4, 94 }, 
	{ NOTE_D4, 94 }, 
	{ NOTE_D4, 188 }, 
	{ NOTE_E4, 372 }, 
	{ NOTE_E4, 94 }, 
	{ NOTE_E4, 94 }, 
	{ NOTE_E4, 188 }, 
	{ NOTE_E4, 94 }, 
	{ NOTE_E4, 94 }, 
	{ NOTE_E4, 188 }, 
	{ NOTE_E4, 94 }, 
	{ NOTE_E4, 94 }, 
	{ NOTE_E4, 188 }, 
	{ NOTE_E4, 94 }, 
	{ NOTE_E4, 90 }, 
	{ NOTE_E4, 188 }, 
	{ NOTE_E4, 94 }, 
	{ NOTE_E4, 94 }, 
	{ NOTE_E4, 188 }, 
	{ NOTE_E4, 94 }, 
	{ NOTE_E4, 94 }, 
	{ NOTE_D4, 188 }, 
	{ NOTE_G4, 188 }, 
	{ NOTE_D4, 188 }, 
	{ NOTE_E4, 372 }, 
	{ NOTE_E4, 188 }, 
	{ NOTE_E4, 188 }, 
	{ NOTE_E4, 94 }, 
	{ NOTE_E4, 94 }, 
	{ NOTE_E4, 188 }, 
	{ NOTE_E4, 94 }, 
	{ NOTE_E4, 94 }, 
	{ NOTE_E4, 188 }, 
	{ NOTE_E4, 94 }, 
	{ NOTE_E4, 90 }, 
	{ NOTE_E4, 188 }, 
	{ NOTE_E4, 94 }, 
	{ NOTE_E4, 94 }, 
	{ NOTE_E4, 188 }, 
	{ NOTE_E4, 94 }, 
	{ NOTE_E4, 94 }, 
	{ NOTE_D4, 188 }, 
	{ NOTE_G4, 188 }, 
	{ NOTE_D4, 188 }, 
	{ NOTE_E4, 372 }, 
	{ NOTE_E4, 94 }, 
	{ NOTE_E4, 94 }, 
	{ NOTE_E4, 188 }, 
	{ NOTE_E4, 94 }, 
	{ NOTE_E4, 94 }, 
	{ NOTE_E4, 188 }, 
	{ NOTE_E4, 94 }, 
	{ NOTE_E4, 94 }, 
	{ NOTE_E4, 188 }, 
	{ NOTE_E4, 94 }, 
	{ NOTE_E4, 90 }, 
	{ NOTE_E4, 188 }, 
	{ NOTE_E4, 94 }, 
	{ NOTE_E4, 94 }, 
	{ NOTE_E4, 188 }, 
	{ NOTE_E4, 94 }, 
	{ NOTE_E4, 94 }, 
	{ NOTE_D4, 188 }, 
	{ NOTE_G4, 188 }, 
	{ NOTE_D4, 188 }, 
	{ NOTE_C4, 372 }, 
	{ NOTE_C4, 94 }, 
	{ NOTE_C4, 94 }, 
	{ NOTE_C4, 188 }, 
	{ NOTE_C4, 94 }, 
	{ NOTE_C4, 94 }, 
	{ NOTE_C4, 188 }, 
	{ NOTE_C4, 94 }, 
	{ NOTE_C4, 94 }, 
	{ NOTE_C4, 188 }, 
	{ NOTE_C4, 94 }, 
	{ NOTE_C4, 90 }, 
	{ NOTE_C4, 188 }, 
	{ NOTE_C4, 94 }, 
	{ NOTE_C4, 94 }, 
	{ NOTE_C4, 188 }, 
	{ NOTE_C4, 94 }, 
	{ NOTE_C4, 94 }, 
	{ NOTE_D4, 188 }, 
	{ NOTE_G4, 188 }, 
	{ NOTE_D4, 188 }, 
	{ NOTE_E4, 372 }, 
	{ NOTE_E4, 94 }, 
	{ NOTE_E4, 94 }, 
	{ NOTE_E4, 188 }, 
	{ NOTE_E4, 94 }, 
	{ NOTE_E4, 94 }, 
	{ NOTE_E4, 188 }, 
	{ NOTE_E4, 94 }, 
	{ NOTE_E4, 94 }, 
	{ NOTE_E4, 188 }, 
	{ NOTE_E4, 94 }, 
	{ NOTE_E4, 90 }, 
	{ NOTE_E4, 188 }, 
	{ NOTE_E4, 94 }, 
	{ NOTE_E4, 94 }, 
	{ NOTE_E4, 188 }, 
	{ NOTE_E4, 94 }, 
	{ NOTE_E4, 94 }, 
	{ NOTE_D4, 188 }, 
	{ NOTE_G4, 188 }, 
	{ NOTE_D4, 188 }, 
	{ NOTE_E4, 372 }, 
	{ NOTE_E4, 94 }, 
	{ NOTE_E4, 94 }, 
	{ NOTE_E4, 188 }, 
	{ NOTE_E4, 94 }, 
	{ NOTE_E4, 94 }, 
	{ NOTE_E4, 188 }, 
	{ NOTE_E4, 94 }, 
	{ NOTE_E4, 94 }, 
	{ NOTE_E4, 188 }, 
	{ NOTE_E4, 94 }, 
	{ NOTE_E4, 90 }, 
	{ NOTE_E4, 188 }, 
	{ NOTE_E4, 94 }, 
	{ NOTE_E4, 94 }, 
	{ NOTE_E4, 188 }, 
	{ NOTE_E4, 94 }, 
	{ NOTE_E4, 94 }, 
	{ NOTE_D4, 188 }, 
	{ NOTE_G4, 188 }, 
	{ NOTE_D4, 188 }, 
	{ NOTE_E4, 372 }, 
	{ NOTE_E4, 94 }, 
	{ NOTE_E4, 94 }, 
	{ NOTE_E4, 188 }, 
	{ NOTE_E4, 94 }, 
	{ NOTE_E4, 94 }, 
	{ NOTE_E4, 188 }, 
	{ NOTE_E4, 94 }, 
	{ NOTE_E4, 94 }, 
	{ NOTE_E4, 188 }, 
	{ NOTE_E4, 94 }, 
	{ NOTE_E4, 90 }, 
	{ NOTE_E4, 188 }, 
	{ NOTE_E4, 94 }, 
	{ NOTE_E4, 94 }, 
	{ NOTE_E4, 188 }, 
	{ NOTE_E4, 94 }, 
	{ NOTE_E4, 94 }, 
	{ NOTE_D4, 188 }, 
	{ NOTE_G4, 188 }, 
	{ NOTE_D4, 188 }, 
	{ NOTE_C4, 372 }, 
	{ NOTE_C4, 94 }, 
	{ NOTE_C4, 94 }, 
	{ NOTE_C4, 188 }, 
	{ NOTE_C4, 94 }, 
	{ NOTE_C4, 94 }, 
	{ NOTE_C4, 188 }, 
	{ NOTE_C4, 94 }, 
	{ NOTE_C4, 94 }, 
	{ NOTE_C4, 188 }, 
	{ NOTE_C4, 94 }, 
	{ NOTE_C4, 90 }, 
	{ NOTE_C4, 188 }, 
	{ NOTE_C4, 94 }, 
	{ NOTE_C4, 94 }, 
	{ NOTE_C4, 188 }, 
	{ NOTE_C4, 94 }, 
	{ NOTE_C4, 94 }, 
	{ NOTE_D4, 188 }, 
	{ NOTE_G4, 188 }, 
	{ NOTE_D4, 188 }, 
	{ NOTE_E4, 372 }, 
	{ NOTE_E4, 94 }, 
	{ NOTE_E4, 94 }, 
	{ NOTE_E4, 188 }, 
	{ NOTE_E4, 94 }, 
	{ NOTE_E4, 94 }, 
	{ NOTE_E4, 188 }, 
	{ NOTE_E4, 94 }, 
	{ NOTE_E4, 94 }, 
	{ NOTE_E4, 188 }, 
	{ NOTE_E4, 94 }, 
	{ NOTE_E4, 90 }, 
	{ NOTE_E4, 188 }, 
	{ NOTE_E4, 94 }, 
	{ NOTE_E4, 94 }, 
	{ NOTE_E4, 188 }, 
	{ NOTE_E4, 94 }, 
	{ NOTE_E4, 94 }, 
	{ NOTE_D4, 188 }, 
	{ NOTE_G4, 188 }, 
	{ NOTE_D4, 188 }, 
	{ NOTE_E4, 372 }, 
	{ NOTE_E4, 94 }, 
	{ NOTE_E4, 94 }, 
	{ NOTE_E4, 188 }, 
	{ NOTE_E4, 94 }, 
	{ NOTE_E4, 94 }, 
	{ NOTE_E4, 188 }, 
	{ NOTE_E4, 94 }, 
	{ NOTE_E4, 94 }, 
	{ NOTE_E4, 188 }, 
	{ NOTE_E4, 94 }, 
	{ NOTE_E4, 90 }, 
	{ NOTE_E4, 188 }, 
	{ NOTE_E4, 94 }, 
	{ NOTE_E4, 94 }, 
	{ NOTE_E4, 188 }, 
	{ NOTE_E4, 94 }, 
	{ NOTE_E4, 94 }, 
	{ NOTE_D4, 188 }, 
	{ NOTE_G4, 188 }, 
	{ NOTE_D4, 188 }, 
	{ NOTE_E4, 372 }, 
	{ NOTE_E4, 94 }, 
	{ NOTE_E4, 94 }, 
	{ NOTE_E4, 188 }, 
	{ NOTE_E4, 94 }, 
	{ NOTE_E4, 94 }, 
	{ NOTE_E4, 188 }, 
	{ NOTE_E4, 94 }, 
	{ NOTE_E4, 94 }, 
	{ NOTE_E4, 188 }, 
	{ NOTE_E4, 94 }, 
	{ NOTE_E4, 90 }, 
	{ NOTE_E4, 188 }, 
	{ NOTE_E4, 94 }, 
	{ NOTE_E4, 94 }, 
	{ NOTE_E4, 188 }, 
	{ NOTE_E4, 94 }, 
	{ NOTE_E4, 94 }, 
	{ NOTE_D4, 188 }, 
	{ NOTE_G4, 188 }, 
	{ NOTE_D4, 188 }, 
	{ NOTE_C4, 372 }, 
	{ NOTE_C4, 94 }, 
	{ NOTE_C4, 94 }, 
	{ NOTE_C4, 188 }, 
	{ NOTE_C4, 94 }, 
	{ NOTE_C4, 94 }, 
	{ NOTE_C4, 188 }, 
	{ NOTE_C4, 94 }, 
	{ NOTE_C4, 94 }, 
	{ NOTE_C4, 188 }, 
	{ NOTE_C4, 94 }, 
	{ NOTE_C4, 90 }, 
	{ NOTE_C4, 188 }, 
	{ NOTE_C4, 94 }, 
	{ NOTE_C4, 94 }, 
	{ NOTE_C4, 188 }, 
	{ NOTE_C4, 94 }, 
	{ NOTE_C4, 94 }, 
	{ NOTE_D4, 188 }, 
	{ NOTE_G4, 188 }, 
	{ NOTE_D4, 188 }, 
	{ NOTE_E4, 372 }, 
	{ NOTE_E4, 94 }, 
	{ NOTE_E4, 94 }, 
	{ NOTE_E4, 188 }, 
	{ NOTE_E4, 94 }, 
	{ NOTE_E4, 94 }, 
	{ NOTE_E4, 188 }, 
	{ NOTE_E4, 94 }, 
	{ NOTE_E4, 94 }, 
	{ NOTE_E4, 188 }, 
	{ NOTE_E4, 94 }, 
	{ NOTE_E4, 90 }, 
	{ NOTE_E4, 188 }, 
	{ NOTE_E4, 94 }, 
	{ NOTE_E4, 94 }, 
	{ NOTE_E4, 188 }, 
	{ NOTE_E4, 94 }, 
	{ NOTE_E4, 94 }, 
	{ NOTE_D4, 188 }, 
	{ NOTE_G4, 188 }, 
	{ NOTE_D4, 188 }, 
	{ NOTE_E4, 372 }, 
	{ NOTE_E4, 94 }, 
	{ NOTE_E4, 94 }, 
	{ NOTE_E4, 188 }, 
	{ NOTE_E4, 94 }, 
	{ NOTE_E4, 94 }, 
	{ NOTE_E4, 188 }, 
	{ NOTE_E4, 94 }, 
	{ NOTE_E4, 94 }, 
	{ NOTE_E4, 188 }, 
	{ NOTE_E4, 94 }, 
	{ NOTE_E4, 90 }, 
	{ NOTE_E4, 188 }, 
	{ NOTE_E4, 94 }, 
	{ NOTE_E4, 94 }, 
	{ NOTE_E4, 188 }, 
	{ NOTE_E4, 94 }, 
	{ NOTE_E4, 94 }, 
	{ NOTE_D4, 188 }, 
	{ NOTE_G4, 188 }, 
	{ NOTE_D4, 188 }, 
	{ NOTE_E4, 372 }, 
	{ NOTE_E4, 94 }, 
	{ NOTE_E4, 94 }, 
	{ NOTE_E4, 188 }, 
	{ NOTE_E4, 94 }, 
	{ NOTE_E4, 94 }, 
	{ NOTE_E4, 188 }, 
	{ NOTE_E4, 94 }, 
	{ NOTE_E4, 94 }, 
	{ NOTE_E4, 188 }, 
	{ NOTE_E4, 94 }, 
	{ NOTE_E4, 90 }, 
	{ NOTE_E4, 188 }, 
	{ NOTE_E4, 94 }, 
	{ NOTE_E4, 94 }, 
	{ NOTE_E4, 188 }, 
	{ NOTE_E4, 94 }, 
	{ NOTE_E4, 94 }, 
	{ NOTE_D4, 188 }, 
	{ NOTE_G4, 188 }, 
	{ NOTE_D4, 188 }, 
	{ NOTE_C4, 372 }, 
	{ NOTE_C4, 94 }, 
	{ NOTE_C4, 94 }, 
	{ NOTE_C4, 188 }, 
	{ NOTE_C4, 94 }, 
	{ NOTE_C4, 94 }, 
	{ NOTE_C4, 188 }, 
	{ NOTE_C4, 94 }, 
	{ NOTE_C4, 94 }, 
	{ NOTE_C4, 188 }, 
	{ NOTE_C4, 94 }, 
	{ NOTE_C4, 90 }, 
	{ NOTE_C4, 188 }, 
	{ NOTE_C4, 94 }, 
	{ NOTE_C4, 94 }, 
	{ NOTE_C4, 188 }, 
	{ NOTE_C4, 94 }, 
	{ NOTE_C4, 94 }, 
	{ NOTE_D4, 188 }, 
	{ NOTE_G4, 188 }, 
	{ NOTE_D4, 188 }, 
	{ NOTE_E4, 372 }, 
	{ NOTE_E4, 94 }, 
	{ NOTE_E4, 94 }, 
	{ NOTE_E4, 188 }, 
	{ NOTE_E4, 94 }, 
	{ NOTE_E4, 94 }, 
	{ NOTE_E4, 188 }, 
	{ NOTE_E4, 94 }, 
	{ NOTE_E4, 94 }, 
	{ NOTE_E4, 188 }, 
	{ NOTE_E4, 94 }, 
	{ NOTE_E4, 90 }, 
	{ NOTE_E4, 188 }, 
	{ NOTE_E4, 94 }, 
	{ NOTE_E4, 94 }, 
	{ NOTE_E4, 188 }, 
	{ NOTE_E4, 94 }, 
	{ NOTE_E4, 94 }, 
	{ NOTE_D4, 188 }, 
	{ NOTE_G4, 188 }, 
	{ NOTE_D4, 188 }, 
	{ NOTE_D4, 372 }, 
	{ NOTE_D4, 94 }, 
	{ NOTE_D4, 94 }, 
	{ NOTE_D4, 188 }, 
	{ NOTE_D4, 94 }, 
	{ NOTE_D4, 94 }, 
	{ NOTE_D4, 188 }, 
	{ NOTE_D4, 94 }, 
	{ NOTE_D4, 94 }, 
	{ NOTE_D4, 188 }, 
	{ NOTE_D4, 94 }, 
	{ NOTE_D4, 90 }, 
	{ NOTE_D4, 188 }, 
	{ NOTE_D4, 94 }, 
	{ NOTE_D4, 94 }, 
	{ NOTE_D4, 188 }, 
	{ NOTE_D4, 94 }, 
	{ NOTE_D4, 94 }, 
	{ NOTE_D4, 188 }, 
	{ NOTE_D4, 94 }, 
	{ NOTE_D4, 94 }, 
	{ NOTE_D4, 188 }, 
	{ NOTE_E4, 372 }, 
	{ NOTE_E4, 94 }, 
	{ NOTE_E4, 94 }, 
	{ NOTE_E4, 188 }, 
	{ NOTE_E4, 94 }, 
	{ NOTE_E4, 94 }, 
	{ NOTE_E4, 188 }, 
	{ NOTE_E4, 94 }, 
	{ NOTE_E4, 94 }, 
	{ NOTE_E4, 188 }, 
	{ NOTE_E4, 94 }, 
	{ NOTE_E4, 90 }, 
	{ NOTE_E4, 188 }, 
	{ NOTE_E4, 94 }, 
	{ NOTE_E4, 94 }, 
	{ NOTE_E4, 188 }, 
	{ NOTE_E4, 94 }, 
	{ NOTE_E4, 94 }, 
	{ NOTE_E4, 188 }, 
	{ NOTE_E4, 94 }, 
	{ NOTE_E4, 94 }, 
	{ NOTE_E4, 188 }, 
	{ NOTE_D4, 372 }, 
	{ NOTE_D4, 94 }, 
	{ NOTE_D4, 94 }, 
	{ NOTE_D4, 188 }, 
	{ NOTE_D4, 94 }, 
	{ NOTE_D4, 94 }, 
	{ NOTE_D4, 188 }, 
	{ NOTE_D4, 94 }, 
	{ NOTE_D4, 94 }, 
	{ NOTE_D4, 188 }, 
	{ NOTE_D4, 94 }, 
	{ NOTE_D4, 90 }, 
	{ NOTE_D4, 188 }, 
	{ NOTE_D4, 94 }, 
	{ NOTE_D4, 94 }, 
	{ NOTE_D4, 188 }, 
	{ NOTE_D4, 94 }, 
	{ NOTE_D4, 94 }, 
	{ NOTE_D4, 188 }, 
	{ NOTE_D4, 94 }, 
	{ NOTE_D4, 94 }, 
	{ NOTE_D4, 188 }, 
	{ NOTE_E4, 372 }, 
	{ NOTE_E4, 94 }, 
	{ NOTE_E4, 94 }, 
	{ NOTE_E4, 188 }, 
	{ NOTE_E4, 94 }, 
	{ NOTE_E4, 94 }, 
	{ NOTE_E4, 188 }, 
	{ NOTE_E4, 94 }, 
	{ NOTE_E4, 94 }, 
	{ NOTE_E4, 188 }, 
	{ NOTE_E4, 94 }, 
	{ NOTE_E4, 90 }, 
	{ NOTE_E4, 188 }, 
	{ NOTE_E4, 94 }, 
	{ NOTE_E4, 94 }, 
	{ NOTE_E4, 188 }, 
	{ NOTE_E4, 94 }, 
	{ NOTE_E4, 94 }, 
	{ NOTE_D4, 188 }, 
	{ NOTE_G4, 188 }, 
	{ NOTE_D4, 188 }, 
	{ NOTE_D4, 372 }, 
	{ NOTE_E4, 94 }, 
	{ NOTE_E4, 94 }, 
	{ NOTE_E4, 188 }, 
	{ NOTE_E4, 94 }, 
	{ NOTE_E4, 94 }, 
	{ NOTE_E4, 188 }, 
	{ NOTE_E4, 94 }, 
	{ NOTE_E4, 94 }, 
	{ NOTE_E4, 188 }, 
	{ NOTE_E4, 94 }, 
	{ NOTE_E4, 90 }, 
	{ NOTE_D4, 188 }, 
	{ NOTE_D4, 94 }, 
	{ NOTE_D4, 94 }, 
	{ NOTE_D4, 188 }, 
	{ NOTE_D4, 94 }, 
	{ NOTE_D4, 94 }, 
	{ NOTE_D4, 188 }, 
	{ NOTE_D4, 94 }, 
	{ NOTE_D4, 94 }, 
	{ NOTE_D4, 188 }, 
	{ NOTE_D4, 94 }, 
	{ NOTE_D4, 90 }, 
	{ NOTE_B3, 188 }, 
	{ NOTE_B3, 94 }, 
	{ NOTE_B3, 94 }, 
	{ NOTE_B3, 188 }, 
	{ NOTE_B3, 94 }, 
	{ NOTE_B3, 94 }, 
	{ NOTE_B3, 188 }, 
	{ NOTE_B3, 94 }, 
	{ NOTE_B3, 94 }, 
	{ NOTE_B3, 188 }, 
	{ NOTE_B3, 94 }, 
	{ NOTE_B3, 90 }, 
	{ NOTE_C4, 188 }, 
	{ NOTE_C4, 94 }, 
	{ NOTE_C4, 94 }, 
	{ NOTE_C4, 188 }, 
	{ NOTE_C4, 94 }, 
	{ NOTE_C4, 94 }, 
	{ NOTE_D4, 188 }, 
	{ NOTE_D4, 94 }, 
	{ NOTE_D4, 94 }, 
	{ NOTE_D4, 188 }, 
	{ NOTE_D4, 94 }, 
	{ NOTE_D4, 90 }, 
	{ NOTE_E4, 188 }, 
	{ NOTE_E4, 94 }, 
	{ NOTE_E4, 94 }, 
	{ NOTE_E4, 188 }, 
	{ NOTE_E4, 94 }, 
	{ NOTE_E4, 94 }, 
	{ NOTE_E4, 188 }, 
	{ NOTE_E4, 94 }, 
	{ NOTE_E4, 94 }, 
	{ NOTE_E4, 188 }, 
	{ NOTE_E4, 94 }, 
	{ NOTE_E4, 90 }, 
	{ NOTE_D4, 188 }, 
	{ NOTE_D4, 94 }, 
	{ NOTE_D4, 94 }, 
	{ NOTE_D4, 188 }, 
	{ NOTE_D4, 94 }, 
	{ NOTE_D4, 94 }, 
	{ NOTE_D4, 188 }, 
	{ NOTE_D4, 94 }, 
	{ NOTE_D4, 94 }, 
	{ NOTE_D4, 188 }, 
	{ NOTE_D4, 94 }, 
	{ NOTE_D4, 90 }, 
	{ NOTE_B3, 188 }, 
	{ NOTE_B3, 94 }, 
	{ NOTE_B3, 94 }, 
	{ NOTE_B3, 188 }, 
	{ NOTE_B3, 94 }, 
	{ NOTE_B3, 94 }, 
	{ NOTE_B3, 188 }, 
	{ NOTE_B3, 94 }, 
	{ NOTE_B3, 94 }, 
	{ NOTE_B3, 188 }, 
	{ NOTE_B3, 94 }, 
	{ NOTE_B3, 90 }, 
	{ NOTE_C4, 188 }, 
	{ NOTE_C4, 94 }, 
	{ NOTE_C4, 94 }, 
	{ NOTE_C4, 188 }, 
	{ NOTE_C4, 94 }, 
	{ NOTE_C4, 94 }, 
	{ NOTE_D4, 188 }, 
	{ NOTE_D4, 94 }, 
	{ NOTE_D4, 94 }, 
	{ NOTE_D4, 188 }, 
	{ NOTE_D4, 94 }, 
	{ NOTE_D4, 90 }, 
	{ NOTE_E4, 188 }, 
	{ NOTE_E4, 94 }, 
	{ NOTE_E4, 94 }, 
	{ NOTE_E4, 188 }, 
	{ NOTE_E4, 94 }, 
	{ NOTE_E4, 94 }, 
	{ NOTE_E4, 188 }, 
	{ NOTE_E4, 94 }, 
	{ NOTE_E4, 94 }, 
	{ NOTE_E4, 188 }, 
	{ NOTE_E4, 94 }, 
	{ NOTE_E4, 90 }, 
	{ NOTE_D4, 188 }, 
	{ NOTE_D4, 94 }, 
	{ NOTE_D4, 94 }, 
	{ NOTE_D4, 188 }, 
	{ NOTE_D4, 94 }, 
	{ NOTE_D4, 94 }, 
	{ NOTE_D4, 188 }, 
	{ NOTE_D4, 94 }, 
	{ NOTE_D4, 94 }, 
	{ NOTE_D4, 188 }, 
	{ NOTE_D4, 94 }, 
	{ NOTE_D4, 90 }, 
	{ NOTE_B3, 188 }, 
	{ NOTE_B3, 94 }, 
	{ NOTE_B3, 94 }, 
	{ NOTE_B3, 188 }, 
	{ NOTE_B3, 94 }, 
	{ NOTE_B3, 94 }, 
	{ NOTE_B3, 188 }, 
	{ NOTE_B3, 94 }, 
	{ NOTE_B3, 94 }, 
	{ NOTE_B3, 188 }, 
	{ NOTE_B3, 94 }, 
	{ NOTE_B3, 90 }, 
	{ NOTE_C4, 188 }, 
	{ NOTE_C4, 94 }, 
	{ NOTE_C4, 94 }, 
	{ NOTE_C4, 188 }, 
	{ NOTE_C4, 94 }, 
	{ NOTE_C4, 94 }, 
	{ NOTE_D4, 188 }, 
	{ NOTE_D4, 94 }, 
	{ NOTE_D4, 94 }, 
	{ NOTE_D4, 188 }, 
	{ NOTE_D4, 94 }, 
	{ NOTE_D4, 90 }, 
	{ NOTE_E4, 188 }, 
	{ NOTE_E4, 94 }, 
	{ NOTE_E4, 94 }, 
	{ NOTE_E4, 188 }, 
	{ NOTE_E4, 94 }, 
	{ NOTE_E4, 94 }, 
	{ NOTE_E4, 188 }, 
	{ NOTE_E4, 94 }, 
	{ NOTE_E4, 94 }, 
	{ NOTE_E4, 188 }, 
	{ NOTE_E4, 94 }, 
	{ NOTE_E4, 90 }, 
	{ NOTE_D4, 188 }, 
	{ NOTE_D4, 94 }, 
	{ NOTE_D4, 94 }, 
	{ NOTE_D4, 188 }, 
	{ NOTE_D4, 94 }, 
	{ NOTE_D4, 94 }, 
	{ NOTE_D4, 188 }, 
	{ NOTE_D4, 94 }, 
	{ NOTE_D4, 94 }, 
	{ NOTE_D4, 188 }, 
	{ NOTE_D4, 94 }, 
	{ NOTE_D4, 90 }, 
	{ NOTE_B3, 188 }, 
	{ NOTE_B3, 94 }, 
	{ NOTE_B3, 94 }, 
	{ NOTE_B3, 188 }, 
	{ NOTE_B3, 94 }, 
	{ NOTE_B3, 94 }, 
	{ NOTE_B3, 188 }, 
	{ NOTE_B3, 94 }, 
	{ NOTE_B3, 94 }, 
	{ NOTE_B3, 188 }, 
	{ NOTE_B3, 94 }, 
	{ NOTE_B3, 90 }, 
	{ NOTE_C4, 188 }, 
	{ NOTE_C4, 94 }, 
	{ NOTE_C4, 94 }, 
	{ NOTE_C4, 188 }, 
	{ NOTE_C4, 94 }, 
	{ NOTE_C4, 94 }, 
	{ NOTE_D4, 188 }, 
	{ NOTE_D4, 94 }, 
	{ NOTE_D4, 94 }, 
	{ NOTE_D4, 188 }, 
	{ NOTE_D4, 94 }, 
	{ NOTE_D4, 90 }, 
	{ NOTE_A3, 188 }, 
	{ NOTE_A3, 94 }, 
	{ NOTE_A3, 94 }, 
	{ NOTE_A3, 188 }, 
	{ NOTE_A3, 94 }, 
	{ NOTE_A3, 94 }, 
	{ NOTE_A3, 188 }, 
	{ NOTE_A3, 94 }, 
	{ NOTE_A3, 94 }, 
	{ NOTE_A3, 188 }, 
	{ NOTE_A3, 94 }, 
	{ NOTE_A3, 90 }, 
	{ NOTE_G3, 188 }, 
	{ NOTE_G3, 94 }, 
	{ NOTE_G3, 94 }, 
	{ NOTE_G3, 188 }, 
	{ NOTE_G3, 94 }, 
	{ NOTE_G3, 94 }, 
	{ NOTE_G3, 188 }, 
	{ NOTE_G3, 94 }, 
	{ NOTE_G3, 94 }, 
	{ NOTE_G3, 188 }, 
	{ NOTE_G3, 94 }, 
	{ NOTE_G3, 90 }, 
	{ NOTE_E3, 188 }, 
	{ NOTE_E3, 94 }, 
	{ NOTE_E3, 94 }, 
	{ NOTE_E3, 188 }, 
	{ NOTE_E3, 94 }, 
	{ NOTE_E3, 94 }, 
	{ NOTE_E3, 188 }, 
	{ NOTE_E3, 94 }, 
	{ NOTE_E3, 94 }, 
	{ NOTE_E3, 188 }, 
	{ NOTE_E3, 94 }, 
	{ NOTE_E3, 90 }, 
	{ NOTE_F3, 188 }, 
	{ NOTE_F3, 94 }, 
	{ NOTE_F3, 94 }, 
	{ NOTE_F3, 188 }, 
	{ NOTE_F3, 94 }, 
	{ NOTE_F3, 94 }, 
	{ NOTE_G3, 188 }, 
	{ NOTE_G3, 94 }, 
	{ NOTE_G3, 94 }, 
	{ NOTE_G3, 188 }, 
	{ NOTE_G3, 94 }, 
	{ NOTE_G3, 90 }, 
	{ NOTE_A3, 188 }, 
	{ NOTE_A3, 94 }, 
	{ NOTE_A3, 94 }, 
	{ NOTE_A3, 188 }, 
	{ NOTE_A3, 94 }, 
	{ NOTE_A3, 94 }, 
	{ NOTE_A3, 188 }, 
	{ NOTE_A3, 94 }, 
	{ NOTE_A3, 94 }, 
	{ NOTE_A3, 188 }, 
	{ NOTE_A3, 94 }, 
	{ NOTE_A3, 90 }, 
	{ NOTE_G3, 188 }, 
	{ NOTE_G3, 94 }, 
	{ NOTE_G3, 94 }, 
	{ NOTE_G3, 188 }, 
	{ NOTE_G3, 94 }, 
	{ NOTE_G3, 94 }, 
	{ NOTE_G3, 188 }, 
	{ NOTE_G3, 94 }, 
	{ NOTE_G3, 94 }, 
	{ NOTE_G3, 188 }, 
	{ NOTE_G3, 94 }, 
	{ NOTE_G3, 90 }, 
	{ NOTE_E3, 188 }, 
	{ NOTE_E3, 94 }, 
	{ NOTE_E3, 94 }, 
	{ NOTE_E3, 188 }, 
	{ NOTE_E3, 94 }, 
	{ NOTE_E3, 94 }, 
	{ NOTE_E3, 188 }, 
	{ NOTE_E3, 94 }, 
	{ NOTE_E3, 94 }, 
	{ NOTE_E3, 188 }, 
	{ NOTE_E3, 94 }, 
	{ NOTE_E3, 90 }, 
	{ NOTE_F3, 188 }, 
	{ NOTE_F3, 94 }, 
	{ NOTE_F3, 94 }, 
	{ NOTE_F3, 188 }, 
	{ NOTE_F3, 94 }, 
	{ NOTE_F3, 94 }, 
	{ NOTE_G3, 188 }, 
	{ NOTE_G3, 94 }, 
	{ NOTE_G3, 94 }, 
	{ NOTE_G3, 188 }, 
	{ NOTE_G3, 94 }, 
	{ NOTE_G3, 90 }, 
	{ NOTE_A3, 188 }, 
	{ NOTE_A3, 94 }, 
	{ NOTE_A3, 94 }, 
	{ NOTE_A3, 188 }, 
	{ NOTE_A3, 94 }, 
	{ NOTE_A3, 94 }, 
	{ NOTE_A3, 188 }, 
	{ NOTE_A3, 94 }, 
	{ NOTE_A3, 94 }, 
	{ NOTE_A3, 188 }, 
	{ NOTE_A3, 94 }, 
	{ NOTE_A3, 90 }, 
	{ NOTE_G3, 188 }, 
	{ NOTE_G3, 94 }, 
	{ NOTE_G3, 94 }, 
	{ NOTE_G3, 188 }, 
	{ NOTE_G3, 94 }, 
	{ NOTE_G3, 94 }, 
	{ NOTE_G3, 188 }, 
	{ NOTE_G3, 94 }, 
	{ NOTE_G3, 94 }, 
	{ NOTE_G3, 188 }, 
	{ NOTE_G3, 94 }, 
	{ NOTE_G3, 90 }, 
	{ NOTE_E3, 188 }, 
	{ NOTE_E3, 94 }, 
	{ NOTE_E3, 94 }, 
	{ NOTE_E3, 188 }, 
	{ NOTE_E3, 94 }, 
	{ NOTE_E3, 94 }, 
	{ NOTE_E3, 188 }, 
	{ NOTE_E3, 94 }, 
	{ NOTE_E3, 94 }, 
	{ NOTE_E3, 188 }, 
	{ NOTE_E3, 94 }, 
	{ NOTE_E3, 90 }, 
	{ NOTE_F3, 188 }, 
	{ NOTE_F3, 94 }, 
	{ NOTE_F3, 94 }, 
	{ NOTE_F3, 188 }, 
	{ NOTE_F3, 94 }, 
	{ NOTE_F3, 94 }, 
	{ NOTE_G3, 188 }, 
	{ NOTE_G3, 94 }, 
	{ NOTE_G3, 94 }, 
	{ NOTE_G3, 188 }, 
	{ NOTE_G3, 94 }, 
	{ NOTE_G3, 90 }, 
	{ NOTE_A3, 188 }, 
	{ NOTE_A3, 94 }, 
	{ NOTE_A3, 94 }, 
	{ NOTE_A3, 188 }, 
	{ NOTE_A3, 94 }, 
	{ NOTE_A3, 94 }, 
	{ NOTE_A3, 188 }, 
	{ NOTE_A3, 94 }, 
	{ NOTE_A3, 94 }, 
	{ NOTE_A3, 188 }, 
	{ NOTE_A3, 94 }, 
	{ NOTE_A3, 90 }, 
	{ NOTE_G3, 188 }, 
	{ NOTE_G3, 94 }, 
	{ NOTE_G3, 94 }, 
	{ NOTE_G3, 188 }, 
	{ NOTE_G3, 94 }, 
	{ NOTE_G3, 94 }, 
	{ NOTE_G3, 188 }, 
	{ NOTE_G3, 94 }, 
	{ NOTE_G3, 94 }, 
	{ NOTE_G3, 188 }, 
	{ NOTE_G3, 94 }, 
	{ NOTE_G3, 90 }, 
	{ NOTE_E3, 188 }, 
	{ NOTE_E3, 94 }, 
	{ NOTE_E3, 94 }, 
	{ NOTE_E3, 188 }, 
	{ NOTE_E3, 94 }, 
	{ NOTE_E3, 94 }, 
	{ NOTE_E3, 188 }, 
	{ NOTE_E3, 94 }, 
	{ NOTE_E3, 94 }, 
	{ NOTE_E3, 188 }, 
	{ NOTE_E3, 94 }, 
	{ NOTE_E3, 90 }, 
	{ NOTE_F3, 188 }, 
	{ NOTE_F3, 94 }, 
	{ NOTE_F3, 94 }, 
	{ NOTE_F3, 188 }, 
	{ NOTE_F3, 94 }, 
	{ NOTE_F3, 94 }, 
	{ NOTE_D4, 188 }, 
	{ NOTE_G4, 188 }, 
	{ NOTE_D4, 188 }, 
	{ NOTE_E4, 372 }, 
	{ NOTE_E4, 94 }, 
	{ NOTE_E4, 94 }, 
	{ NOTE_E4, 188 }, 
	{ NOTE_E4, 94 }, 
	{ NOTE_E4, 94 }, 
	{ NOTE_E4, 188 }, 
	{ NOTE_E4, 94 }, 
	{ NOTE_E4, 94 }, 
	{ NOTE_E4, 188 }, 
	{ NOTE_E4, 94 }, 
	{ NOTE_E4, 90 }, 
	{ NOTE_E4, 188 }, 
	{ NOTE_E4, 94 }, 
	{ NOTE_E4, 94 }, 
	{ NOTE_E4, 188 }, 
	{ NOTE_E4, 94 }, 
	{ NOTE_E4, 94 }, 
	{ NOTE_D4, 188 }, 
	{ NOTE_G4, 188 }, 
	{ NOTE_D4, 188 }, 
	{ NOTE_E4, 372 }, 
	{ NOTE_E4, 94 }, 
	{ NOTE_E4, 94 }, 
	{ NOTE_E4, 188 }, 
	{ NOTE_E4, 94 }, 
	{ NOTE_E4, 94 }, 
	{ NOTE_E4, 188 }, 
	{ NOTE_E4, 94 }, 
	{ NOTE_E4, 94 }, 
	{ NOTE_E4, 188 }, 
	{ NOTE_E4, 94 }, 
	{ NOTE_E4, 90 }, 
	{ NOTE_E4, 188 }, 
	{ NOTE_E4, 94 }, 
	{ NOTE_E4, 94 }, 
	{ NOTE_E4, 188 }, 
	{ NOTE_E4, 94 }, 
	{ NOTE_E4, 94 }, 
	{ NOTE_D4, 188 }, 
	{ NOTE_G4, 188 }, 
	{ NOTE_D4, 188 }, 
	{ NOTE_C4, 372 }, 
	{ NOTE_C4, 94 }, 
	{ NOTE_C4, 94 }, 
	{ NOTE_C4, 188 }, 
	{ NOTE_C4, 94 }, 
	{ NOTE_C4, 94 }, 
	{ NOTE_C4, 188 }, 
	{ NOTE_C4, 94 }, 
	{ NOTE_C4, 94 }, 
	{ NOTE_C4, 188 }, 
	{ NOTE_C4, 94 }, 
	{ NOTE_C4, 90 }, 
	{ NOTE_C4, 188 }, 
	{ NOTE_C4, 94 }, 
	{ NOTE_C4, 94 }, 
	{ NOTE_C4, 188 }, 
	{ NOTE_C4, 94 }, 
	{ NOTE_C4, 94 }, 
	{ NOTE_D4, 188 }, 
	{ NOTE_G4, 188 }, 
	{ NOTE_D4, 188 }, 
	{ NOTE_E4, 372 }, 
	{ NOTE_E4, 94 }, 
	{ NOTE_E4, 94 }, 
	{ NOTE_E4, 188 }, 
	{ NOTE_E4, 94 }, 
	{ NOTE_E4, 94 }, 
	{ NOTE_E4, 188 }, 
	{ NOTE_E4, 94 }, 
	{ NOTE_E4, 94 }, 
	{ NOTE_E4, 188 }, 
	{ NOTE_E4, 94 }, 
	{ NOTE_E4, 90 }, 
	{ NOTE_E4, 188 }, 
	{ NOTE_E4, 94 }, 
	{ NOTE_E4, 94 }, 
	{ NOTE_E4, 188 }, 
	{ NOTE_E4, 94 }, 
	{ NOTE_E4, 94 }, 
	{ NOTE_D4, 188 }, 
	{ NOTE_G4, 188 }, 
	{ NOTE_D4, 188 }, 
	{ NOTE_E4, 372 }, 
	{ NOTE_E4, 188 }, 
	{ NOTE_E4, 188 }, 
	{ NOTE_E4, 94 }, 
	{ NOTE_E4, 94 }, 
	{ NOTE_E4, 188 }, 
	{ NOTE_E4, 94 }, 
	{ NOTE_E4, 94 }, 
	{ NOTE_E4, 188 }, 
	{ NOTE_E4, 94 }, 
	{ NOTE_E4, 90 }, 
	{ NOTE_E4, 188 }, 
	{ NOTE_E4, 94 }, 
	{ NOTE_E4, 94 }, 
	{ NOTE_E4, 188 }, 
	{ NOTE_E4, 94 }, 
	{ NOTE_E4, 94 }, 
	{ NOTE_D4, 188 }, 
	{ NOTE_G4, 188 }, 
	{ NOTE_D4, 188 }, 
	{ NOTE_E4, 372 }, 
	{ NOTE_E4, 94 }, 
	{ NOTE_E4, 94 }, 
	{ NOTE_E4, 188 }, 
	{ NOTE_E4, 94 }, 
	{ NOTE_E4, 94 }, 
	{ NOTE_E4, 188 }, 
	{ NOTE_E4, 94 }, 
	{ NOTE_E4, 94 }, 
	{ NOTE_E4, 188 }, 
	{ NOTE_E4, 94 }, 
	{ NOTE_E4, 90 }, 
	{ NOTE_E4, 188 }, 
	{ NOTE_E4, 94 }, 
	{ NOTE_E4, 94 }, 
	{ NOTE_E4, 188 }, 
	{ NOTE_E4, 94 }, 
	{ NOTE_E4, 94 }, 
	{ NOTE_D4, 188 }, 
	{ NOTE_G4, 188 }, 
	{ NOTE_D4, 188 }, 
	{ NOTE_C4, 372 }, 
	{ NOTE_C4, 94 }, 
	{ NOTE_C4, 94 }, 
	{ NOTE_C4, 188 }, 
	{ NOTE_C4, 94 }, 
	{ NOTE_C4, 94 }, 
	{ NOTE_C4, 188 }, 
	{ NOTE_C4, 94 }, 
	{ NOTE_C4, 94 }, 
	{ NOTE_C4, 188 }, 
	{ NOTE_C4, 94 }, 
	{ NOTE_C4, 90 }, 
	{ NOTE_C4, 188 }, 
	{ NOTE_C4, 94 }, 
	{ NOTE_C4, 94 }, 
	{ NOTE_C4, 188 }, 
	{ NOTE_C4, 94 }, 
	{ NOTE_C4, 94 }, 
	{ NOTE_D4, 188 }, 
	{ NOTE_G4, 188 }, 
	{ NOTE_D4, 188 }, 
	{ NOTE_E4, 372 }, 
	{ NOTE_E4, 94 }, 
	{ NOTE_E4, 94 }, 
	{ NOTE_E4, 188 }, 
	{ NOTE_E4, 94 }, 
	{ NOTE_E4, 94 }, 
	{ NOTE_E4, 188 }, 
	{ NOTE_E4, 94 }, 
	{ NOTE_E4, 94 }, 
	{ NOTE_E4, 188 }, 
	{ NOTE_E4, 94 }, 
	{ NOTE_E4, 90 }, 
	{ NOTE_E4, 188 }, 
	{ NOTE_E4, 94 }, 
	{ NOTE_E4, 94 }, 
	{ NOTE_E4, 188 }, 
	{ NOTE_E4, 94 }, 
	{ NOTE_E4, 94 }, 
	{ NOTE_D4, 188 }, 
	{ NOTE_G4, 188 }, 
	{ NOTE_D4, 188 }, 
	{ NOTE_E4, 372 }, 
	{ NOTE_E4, 188 }, 
	{ NOTE_E4, 188 }, 
	{ NOTE_E4, 94 }, 
	{ NOTE_E4, 94 }, 
	{ NOTE_E4, 188 }, 
	{ NOTE_E4, 94 }, 
	{ NOTE_E4, 94 }, 
	{ NOTE_E4, 188 }, 
	{ NOTE_E4, 94 }, 
	{ NOTE_E4, 90 }, 
	{ NOTE_E4, 188 }, 
	{ NOTE_E4, 94 }, 
	{ NOTE_E4, 94 }, 
	{ NOTE_E4, 188 }, 
	{ NOTE_E4, 94 }, 
	{ NOTE_E4, 94 }, 
	{ NOTE_D4, 188 }, 
	{ NOTE_G4, 188 }, 
	{ NOTE_D4, 188 }, 
	{ NOTE_E4, 372 }, 
	{ NOTE_E4, 94 }, 
	{ NOTE_E4, 94 }, 
	{ NOTE_E4, 188 }, 
	{ NOTE_E4, 94 }, 
	{ NOTE_E4, 94 }, 
	{ NOTE_E4, 188 }, 
	{ NOTE_E4, 94 }, 
	{ NOTE_E4, 94 }, 
	{ NOTE_E4, 188 }, 
	{ NOTE_E4, 94 }, 
	{ NOTE_E4, 90 }, 
	{ NOTE_E4, 188 }, 
	{ NOTE_E4, 94 }, 
	{ NOTE_E4, 94 }, 
	{ NOTE_E4, 188 }, 
	{ NOTE_E4, 94 }, 
	{ NOTE_E4, 94 }, 
	{ NOTE_D4, 188 }, 
	{ NOTE_G4, 188 }, 
	{ NOTE_D4, 188 }, 
	{ NOTE_C4, 372 }, 
	{ NOTE_C4, 94 }, 
	{ NOTE_C4, 94 }, 
	{ NOTE_C4, 188 }, 
	{ NOTE_C4, 94 }, 
	{ NOTE_C4, 94 }, 
	{ NOTE_C4, 188 }, 
	{ NOTE_C4, 94 }, 
	{ NOTE_C4, 94 }, 
	{ NOTE_C4, 188 }, 
	{ NOTE_C4, 94 }, 
	{ NOTE_C4, 90 }, 
	{ NOTE_C4, 188 }, 
	{ NOTE_C4, 94 }, 
	{ NOTE_C4, 94 }, 
	{ NOTE_C4, 188 }, 
	{ NOTE_C4, 94 }, 
	{ NOTE_C4, 94 }, 
	{ NOTE_D4, 188 }, 
	{ NOTE_G4, 188 }, 
	{ NOTE_D4, 188 }, 
	{ NOTE_E4, 372 }, 
	{ NOTE_E4, 94 }, 
	{ NOTE_E4, 94 }, 
	{ NOTE_E4, 188 }, 
	{ NOTE_E4, 94 }, 
	{ NOTE_E4, 94 }, 
	{ NOTE_E4, 188 }, 
	{ NOTE_E4, 94 }, 
	{ NOTE_E4, 94 }, 
	{ NOTE_E4, 188 }, 
	{ NOTE_E4, 94 }, 
	{ NOTE_E4, 90 }, 
	{ NOTE_E4, 188 }, 
	{ NOTE_E4, 94 }, 
	{ NOTE_E4, 94 }, 
	{ NOTE_E4, 188 }, 
	{ NOTE_E4, 94 }, 
	{ NOTE_E4, 94 }, 
	{ NOTE_D4, 188 }, 
	{ NOTE_G4, 188 }, 
	{ NOTE_D4, 188 }, 
	{ NOTE_E4, 372 }, 
	{ NOTE_E4, 94 }, 
	{ NOTE_E4, 94 }, 
	{ NOTE_E4, 188 }, 
	{ NOTE_E4, 94 }, 
	{ NOTE_E4, 94 }, 
	{ NOTE_E4, 188 }, 
	{ NOTE_E4, 94 }, 
	{ NOTE_E4, 94 }, 
	{ NOTE_E4, 188 }, 
	{ NOTE_E4, 94 }, 
	{ NOTE_E4, 90 }, 
	{ NOTE_E4, 188 }, 
	{ NOTE_E4, 94 }, 
	{ NOTE_E4, 94 }, 
	{ NOTE_E4, 188 }, 
	{ NOTE_E4, 94 }, 
	{ NOTE_E4, 94 }, 
	{ NOTE_D4, 188 }, 
	{ NOTE_G4, 188 }, 
	{ NOTE_D4, 188 }, 
	{ NOTE_E4, 372 }, 
	{ NOTE_E4, 94 }, 
	{ NOTE_E4, 94 }, 
	{ NOTE_E4, 188 }, 
	{ NOTE_E4, 94 }, 
	{ NOTE_E4, 94 }, 
	{ NOTE_E4, 188 }, 
	{ NOTE_E4, 94 }, 
	{ NOTE_E4, 94 }, 
	{ NOTE_E4, 188 }, 
	{ NOTE_E4, 94 }, 
	{ NOTE_E4, 90 }, 
	{ NOTE_E4, 188 }, 
	{ NOTE_E4, 94 }, 
	{ NOTE_E4, 94 }, 
	{ NOTE_E4, 188 }, 
	{ NOTE_E4, 94 }, 
	{ NOTE_E4, 94 }, 
	{ NOTE_D4, 188 }, 
	{ NOTE_G4, 188 }, 
	{ NOTE_D4, 188 }, 
	{ NOTE_C4, 372 }, 
	{ NOTE_C4, 94 }, 
	{ NOTE_C4, 94 }, 
	{ NOTE_C4, 188 }, 
	{ NOTE_C4, 94 }, 
	{ NOTE_C4, 94 }, 
	{ NOTE_C4, 188 }, 
	{ NOTE_C4, 94 }, 
	{ NOTE_C4, 94 }, 
	{ NOTE_C4, 188 }, 
	{ NOTE_C4, 94 }, 
	{ NOTE_C4, 90 }, 
	{ NOTE_C4, 188 }, 
	{ NOTE_C4, 94 }, 
	{ NOTE_C4, 94 }, 
	{ NOTE_C4, 188 }, 
	{ NOTE_C4, 94 }, 
	{ NOTE_C4, 94 }, 
	{ NOTE_D4, 188 }, 
	{ NOTE_G4, 188 }, 
	{ NOTE_D4, 188 }, 
	{ NOTE_E4, 372 }, 
	{ NOTE_E4, 94 }, 
	{ NOTE_E4, 94 }, 
	{ NOTE_E4, 188 }, 
	{ NOTE_E4, 94 }, 
	{ NOTE_E4, 94 }, 
	{ NOTE_E4, 188 }, 
	{ NOTE_E4, 94 }, 
	{ NOTE_E4, 94 }, 
	{ NOTE_E4, 188 }, 
	{ NOTE_E4, 94 }, 
	{ NOTE_E4, 90 }, 
	{ NOTE_E4, 188 }, 
	{ NOTE_E4, 94 }, 
	{ NOTE_E4, 94 }, 
	{ NOTE_E4, 188 }, 
	{ NOTE_E4, 94 }, 
	{ NOTE_E4, 94 }, 
	{ NOTE_D4, 188 }, 
	{ NOTE_G4, 188 }, 
	{ NOTE_D4, 188 }, 
	{ NOTE_D4, 372 }, 
	{ NOTE_D4, 94 }, 
	{ NOTE_D4, 94 }, 
	{ NOTE_D4, 188 }, 
	{ NOTE_D4, 94 }, 
	{ NOTE_D4, 94 }, 
	{ NOTE_D4, 188 }, 
	{ NOTE_D4, 94 }, 
	{ NOTE_D4, 94 }, 
	{ NOTE_D4, 188 }, 
	{ NOTE_D4, 94 }, 
	{ NOTE_D4, 90 }, 
	{ NOTE_D4, 188 }, 
	{ NOTE_D4, 94 }, 
	{ NOTE_D4, 94 }, 
	{ NOTE_D4, 188 }, 
	{ NOTE_D4, 94 }, 
	{ NOTE_D4, 94 }, 
	{ NOTE_D4, 188 }, 
	{ NOTE_D4, 94 }, 
	{ NOTE_D4, 94 }, 
	{ NOTE_D4, 188 }, 
	{ NOTE_E4, 372 }, 
	{ NOTE_E4, 94 }, 
	{ NOTE_E4, 94 }, 
	{ NOTE_E4, 188 }, 
	{ NOTE_E4, 94 }, 
	{ NOTE_E4, 94 }, 
	{ NOTE_E4, 188 }, 
	{ NOTE_E4, 94 }, 
	{ NOTE_E4, 94 }, 
	{ NOTE_E4, 188 }, 
	{ NOTE_E4, 94 }, 
	{ NOTE_E4, 90 }, 
	{ NOTE_E4, 188 }, 
	{ NOTE_E4, 94 }, 
	{ NOTE_E4, 94 }, 
	{ NOTE_E4, 188 }, 
	{ NOTE_E4, 94 }, 
	{ NOTE_E4, 94 }, 
	{ NOTE_E4, 188 }, 
	{ NOTE_E4, 94 }, 
	{ NOTE_E4, 94 }, 
	{ NOTE_E4, 188 }, 
	{ NOTE_D4, 372 }, 
	{ NOTE_D4, 94 }, 
	{ NOTE_D4, 94 }, 
	{ NOTE_D4, 188 }, 
	{ NOTE_D4, 94 }, 
	{ NOTE_D4, 94 }, 
	{ NOTE_D4, 188 }, 
	{ NOTE_D4, 94 }, 
	{ NOTE_D4, 94 }, 
	{ NOTE_D4, 188 }, 
	{ NOTE_D4, 94 }, 
	{ NOTE_D4, 90 }, 
	{ NOTE_D4, 188 }, 
	{ NOTE_D4, 94 }, 
	{ NOTE_D4, 94 }, 
	{ NOTE_D4, 188 }, 
	{ NOTE_D4, 94 }, 
	{ NOTE_D4, 94 }, 
	{ NOTE_D4, 188 }, 
	{ NOTE_D4, 94 }, 
	{ NOTE_D4, 94 }, 
	{ NOTE_D4, 188 }, 
	{ NOTE_E4, 372 }, 
	{ NOTE_E4, 94 }, 
	{ NOTE_E4, 94 }, 
	{ NOTE_E4, 188 }, 
	{ NOTE_E4, 94 }, 
	{ NOTE_E4, 94 }, 
	{ NOTE_E4, 188 }, 
	{ NOTE_E4, 94 }, 
	{ NOTE_E4, 94 }, 
	{ NOTE_E4, 188 }, 
	{ NOTE_E4, 94 }, 
	{ NOTE_E4, 90 }, 
	{ NOTE_E4, 188 }, 
	{ NOTE_E4, 94 }, 
	{ NOTE_E4, 94 }, 
	{ NOTE_E4, 188 }, 
	{ NOTE_E4, 94 }, 
	{ NOTE_E4, 94 }, 
	{ NOTE_D4, 188 }, 
	{ NOTE_G4, 188 }, 
	{ NOTE_D4, 188 }, 
	{ NOTE_E4, 372 }, 
	{ NOTE_REST, 750 }, 
	{ NOTE_REST, 562 }, 
	{ NOTE_REST, 750 }, 
	{ NOTE_D4, 188 }, 
	{ NOTE_G4, 188 }, 
	{ NOTE_D4, 188 }, 
	{ NOTE_E4, 374 }, 
	{ NOTE_REST, 750 }, 
	{ NOTE_REST, 562 }, 
	{ NOTE_REST, 750 }, 
	{ NOTE_D4, 188 }, 
	{ NOTE_G4, 188 }, 
	{ NOTE_D4, 188 }, 
	{ NOTE_E4, 374 }, 
	{ NOTE_REST, 750 }, 
	{ NOTE_REST, 562 }, 
	{ NOTE_REST, 750 }, 
	{ NOTE_D4, 188 }, 
	{ NOTE_G4, 188 }, 
	{ NOTE_D4, 188 }, 
	{ NOTE_E4, 374 }, 
	{ NOTE_REST, 750 }, 
	{ NOTE_REST, 562 }, 
	{ NOTE_REST, 750 }, 
	{ NOTE_D4, 188 }, 
	{ NOTE_G4, 188 }, 
	{ NOTE_D4, 188 }, 
	{ NOTE_E4, 374 }, 
	{ NOTE_REST, 750 }, 
	{ NOTE_REST, 375 }, 
	{ NOTE_REST, 187 }, 
	{ NOTE_REST, 1500 }, 
};
const uint16_t NUM_OF_NOTES4 = sizeof(melody4)/sizeof(melody4[0]);

