/*
 * Song: Aces High by Iron Maiden
 *
 *	Melody 0 | Guitar 1
 *	Melody 1 | Guitar 1
 *	Melody 2 | Guitar 2
 *	Melody 3 | Guitar 2
 *	Melody 4 | Bass
*/

#include <Arduino.h>
#include "notes.h"

const Note melody0[] PROGMEM = {
	{ NOTE_REST, 750 }, 
	{ NOTE_REST, 375 }, 
	{ NOTE_REST, 188 }, 
	{ NOTE_GS4, 187 }, 
	{ NOTE_A4, 188 }, 
	{ NOTE_B4, 188 }, 
	{ NOTE_A4, 188 }, 
	{ NOTE_CS5, 188 }, 
	{ NOTE_REST, 188 }, 
	{ NOTE_B4, 188 }, 
	{ NOTE_A4, 188 }, 
	{ NOTE_GS4, 184 }, 
	{ NOTE_A4, 188 }, 
	{ NOTE_B4, 188 }, 
	{ NOTE_A4, 188 }, 
	{ NOTE_CS5, 188 }, 
	{ NOTE_REST, 188 }, 
	{ NOTE_B4, 188 }, 
	{ NOTE_REST, 188 }, 
	{ NOTE_GS4, 184 }, 
	{ NOTE_A4, 188 }, 
	{ NOTE_B4, 188 }, 
	{ NOTE_A4, 188 }, 
	{ NOTE_CS5, 188 }, 
	{ NOTE_REST, 188 }, 
	{ NOTE_B4, 188 }, 
	{ NOTE_REST, 188 }, 
	{ NOTE_GS4, 184 }, 
	{ NOTE_A4, 188 }, 
	{ NOTE_B4, 188 }, 
	{ NOTE_A4, 188 }, 
	{ NOTE_CS5, 188 }, 
	{ NOTE_REST, 188 }, 
	{ NOTE_B4, 188 }, 
	{ NOTE_REST, 188 }, 
	{ NOTE_GS4, 184 }, 
	{ NOTE_A4, 188 }, 
	{ NOTE_B4, 188 }, 
	{ NOTE_A4, 188 }, 
	{ NOTE_CS5, 188 }, 
	{ NOTE_REST, 188 }, 
	{ NOTE_B4, 188 }, 
	{ NOTE_A4, 188 }, 
	{ NOTE_GS4, 184 }, 
	{ NOTE_A4, 188 }, 
	{ NOTE_B4, 188 }, 
	{ NOTE_A4, 188 }, 
	{ NOTE_CS5, 188 }, 
	{ NOTE_REST, 188 }, 
	{ NOTE_B4, 188 }, 
	{ NOTE_REST, 188 }, 
	{ NOTE_GS4, 184 }, 
	{ NOTE_A4, 188 }, 
	{ NOTE_B4, 188 }, 
	{ NOTE_A4, 188 }, 
	{ NOTE_CS5, 188 }, 
	{ NOTE_REST, 188 }, 
	{ NOTE_B4, 188 }, 
	{ NOTE_REST, 188 }, 
	{ NOTE_GS4, 184 }, 
	{ NOTE_A4, 188 }, 
	{ NOTE_B4, 188 }, 
	{ NOTE_A4, 188 }, 
	{ NOTE_CS5, 188 }, 
	{ NOTE_REST, 188 }, 
	{ NOTE_B4, 188 }, 
	{ NOTE_REST, 188 }, 
	{ NOTE_GS4, 184 }, 
	{ NOTE_A4, 188 }, 
	{ NOTE_B4, 188 }, 
	{ NOTE_A4, 188 }, 
	{ NOTE_CS5, 188 }, 
	{ NOTE_REST, 188 }, 
	{ NOTE_B4, 188 }, 
	{ NOTE_A4, 188 }, 
	{ NOTE_GS4, 184 }, 
	{ NOTE_A4, 188 }, 
	{ NOTE_B4, 188 }, 
	{ NOTE_A4, 188 }, 
	{ NOTE_CS5, 188 }, 
	{ NOTE_REST, 188 }, 
	{ NOTE_B4, 188 }, 
	{ NOTE_REST, 188 }, 
	{ NOTE_GS4, 184 }, 
	{ NOTE_A4, 188 }, 
	{ NOTE_B4, 188 }, 
	{ NOTE_A4, 188 }, 
	{ NOTE_CS5, 188 }, 
	{ NOTE_REST, 188 }, 
	{ NOTE_B4, 188 }, 
	{ NOTE_REST, 188 }, 
	{ NOTE_GS4, 184 }, 
	{ NOTE_A4, 188 }, 
	{ NOTE_B4, 188 }, 
	{ NOTE_A4, 188 }, 
	{ NOTE_CS5, 188 }, 
	{ NOTE_REST, 188 }, 
	{ NOTE_B4, 188 }, 
	{ NOTE_REST, 188 }, 
	{ NOTE_GS4, 184 }, 
	{ NOTE_A4, 188 }, 
	{ NOTE_B4, 188 }, 
	{ NOTE_A4, 188 }, 
	{ NOTE_CS5, 188 }, 
	{ NOTE_REST, 188 }, 
	{ NOTE_B4, 188 }, 
	{ NOTE_A4, 188 }, 
	{ NOTE_GS4, 184 }, 
	{ NOTE_A4, 188 }, 
	{ NOTE_B4, 188 }, 
	{ NOTE_A4, 188 }, 
	{ NOTE_CS5, 188 }, 
	{ NOTE_REST, 188 }, 
	{ NOTE_B4, 188 }, 
	{ NOTE_REST, 188 }, 
	{ NOTE_GS4, 184 }, 
	{ NOTE_A4, 188 }, 
	{ NOTE_B4, 188 }, 
	{ NOTE_A4, 188 }, 
	{ NOTE_CS5, 188 }, 
	{ NOTE_REST, 188 }, 
	{ NOTE_B4, 188 }, 
	{ NOTE_REST, 188 }, 
	{ NOTE_GS4, 184 }, 
	{ NOTE_A4, 188 }, 
	{ NOTE_B4, 188 }, 
	{ NOTE_A4, 188 }, 
	{ NOTE_GS4, 936 }, 
	{ NOTE_C5, 391 }, 
	{ NOTE_B4, 130 }, 
	{ NOTE_C5, 130 }, 
	{ NOTE_B4, 130 }, 
	{ NOTE_C5, 130 }, 
	{ NOTE_B4, 132 }, 
	{ NOTE_E5, 261 }, 
	{ NOTE_E5, 261 }, 
	{ NOTE_C5, 521 }, 
	{ NOTE_C5, 391 }, 
	{ NOTE_B4, 130 }, 
	{ NOTE_C5, 130 }, 
	{ NOTE_B4, 130 }, 
	{ NOTE_C5, 130 }, 
	{ NOTE_B4, 132 }, 
	{ NOTE_B4, 130 }, 
	{ NOTE_D5, 130 }, 
	{ NOTE_D5, 130 }, 
	{ NOTE_D5, 130 }, 
	{ NOTE_E5, 130 }, 
	{ NOTE_D5, 130 }, 
	{ NOTE_C5, 130 }, 
	{ NOTE_B4, 133 }, 
	{ NOTE_C5, 357 }, 
	{ NOTE_B4, 119 }, 
	{ NOTE_C5, 119 }, 
	{ NOTE_B4, 119 }, 
	{ NOTE_C5, 119 }, 
	{ NOTE_B4, 119 }, 
	{ NOTE_E5, 238 }, 
	{ NOTE_E5, 238 }, 
	{ NOTE_C5, 476 }, 
	{ NOTE_C5, 357 }, 
	{ NOTE_B4, 119 }, 
	{ NOTE_C5, 119 }, 
	{ NOTE_B4, 119 }, 
	{ NOTE_C5, 119 }, 
	{ NOTE_B4, 119 }, 
	{ NOTE_B4, 119 }, 
	{ NOTE_D5, 119 }, 
	{ NOTE_D5, 119 }, 
	{ NOTE_D5, 119 }, 
	{ NOTE_E5, 119 }, 
	{ NOTE_D5, 119 }, 
	{ NOTE_C5, 119 }, 
	{ NOTE_B4, 119 }, 
	{ NOTE_C5, 357 }, 
	{ NOTE_B4, 119 }, 
	{ NOTE_C5, 119 }, 
	{ NOTE_B4, 119 }, 
	{ NOTE_C5, 119 }, 
	{ NOTE_B4, 119 }, 
	{ NOTE_E5, 238 }, 
	{ NOTE_E5, 238 }, 
	{ NOTE_C5, 476 }, 
	{ NOTE_C5, 357 }, 
	{ NOTE_B4, 119 }, 
	{ NOTE_C5, 119 }, 
	{ NOTE_B4, 119 }, 
	{ NOTE_C5, 119 }, 
	{ NOTE_B4, 119 }, 
	{ NOTE_B4, 119 }, 
	{ NOTE_D5, 119 }, 
	{ NOTE_D5, 119 }, 
	{ NOTE_D5, 119 }, 
	{ NOTE_E5, 119 }, 
	{ NOTE_D5, 119 }, 
	{ NOTE_C5, 119 }, 
	{ NOTE_B4, 119 }, 
	{ NOTE_C5, 357 }, 
	{ NOTE_B4, 119 }, 
	{ NOTE_C5, 119 }, 
	{ NOTE_B4, 119 }, 
	{ NOTE_C5, 119 }, 
	{ NOTE_B4, 119 }, 
	{ NOTE_E5, 238 }, 
	{ NOTE_E5, 238 }, 
	{ NOTE_C5, 476 }, 
	{ NOTE_C5, 357 }, 
	{ NOTE_B4, 119 }, 
	{ NOTE_C5, 119 }, 
	{ NOTE_B4, 119 }, 
	{ NOTE_C5, 119 }, 
	{ NOTE_B4, 119 }, 
	{ NOTE_B4, 119 }, 
	{ NOTE_D5, 119 }, 
	{ NOTE_D5, 119 }, 
	{ NOTE_D5, 119 }, 
	{ NOTE_E5, 119 }, 
	{ NOTE_D5, 119 }, 
	{ NOTE_C5, 119 }, 
	{ NOTE_B4, 119 }, 
	{ NOTE_E4, 357 }, 
	{ NOTE_FS4, 357 }, 
	{ NOTE_G4, 238 }, 
	{ NOTE_A4, 357 }, 
	{ NOTE_G4, 357 }, 
	{ NOTE_FS4, 238 }, 
	{ NOTE_E4, 357 }, 
	{ NOTE_G4, 357 }, 
	{ NOTE_FS4, 238 }, 
	{ NOTE_D4, 357 }, 
	{ NOTE_FS4, 357 }, 
	{ NOTE_D4, 238 }, 
	{ NOTE_E4, 357 }, 
	{ NOTE_FS4, 357 }, 
	{ NOTE_G4, 238 }, 
	{ NOTE_A4, 357 }, 
	{ NOTE_G4, 357 }, 
	{ NOTE_FS4, 238 }, 
	{ NOTE_E4, 357 }, 
	{ NOTE_G4, 357 }, 
	{ NOTE_FS4, 238 }, 
	{ NOTE_D4, 952 }, 
	{ NOTE_E4, 357 }, 
	{ NOTE_FS4, 357 }, 
	{ NOTE_G4, 238 }, 
	{ NOTE_A4, 357 }, 
	{ NOTE_G4, 357 }, 
	{ NOTE_FS4, 238 }, 
	{ NOTE_E4, 357 }, 
	{ NOTE_G4, 357 }, 
	{ NOTE_FS4, 238 }, 
	{ NOTE_D4, 357 }, 
	{ NOTE_FS4, 357 }, 
	{ NOTE_D4, 238 }, 
	{ NOTE_E4, 357 }, 
	{ NOTE_FS4, 357 }, 
	{ NOTE_G4, 238 }, 
	{ NOTE_A4, 357 }, 
	{ NOTE_G4, 357 }, 
	{ NOTE_FS4, 238 }, 
	{ NOTE_E4, 357 }, 
	{ NOTE_G4, 357 }, 
	{ NOTE_FS4, 238 }, 
	{ NOTE_D4, 952 }, 
	{ NOTE_A3, 357 }, 
	{ NOTE_B3, 357 }, 
	{ NOTE_C4, 238 }, 
	{ NOTE_D4, 357 }, 
	{ NOTE_C4, 357 }, 
	{ NOTE_B3, 238 }, 
	{ NOTE_A3, 357 }, 
	{ NOTE_C4, 357 }, 
	{ NOTE_B3, 238 }, 
	{ NOTE_G3, 357 }, 
	{ NOTE_B3, 357 }, 
	{ NOTE_G3, 238 }, 
	{ NOTE_A3, 357 }, 
	{ NOTE_B3, 357 }, 
	{ NOTE_C4, 238 }, 
	{ NOTE_D4, 357 }, 
	{ NOTE_C4, 357 }, 
	{ NOTE_B3, 238 }, 
	{ NOTE_A3, 357 }, 
	{ NOTE_C4, 357 }, 
	{ NOTE_B3, 238 }, 
	{ NOTE_G3, 952 }, 
	{ NOTE_A3, 357 }, 
	{ NOTE_B3, 357 }, 
	{ NOTE_C4, 238 }, 
	{ NOTE_D4, 357 }, 
	{ NOTE_C4, 357 }, 
	{ NOTE_B3, 238 }, 
	{ NOTE_A3, 357 }, 
	{ NOTE_C4, 357 }, 
	{ NOTE_B3, 238 }, 
	{ NOTE_G3, 357 }, 
	{ NOTE_B3, 357 }, 
	{ NOTE_G3, 238 }, 
	{ NOTE_A3, 357 }, 
	{ NOTE_B3, 357 }, 
	{ NOTE_C4, 238 }, 
	{ NOTE_D4, 357 }, 
	{ NOTE_C4, 357 }, 
	{ NOTE_B3, 238 }, 
	{ NOTE_A3, 357 }, 
	{ NOTE_C4, 357 }, 
	{ NOTE_B3, 238 }, 
	{ NOTE_G3, 952 }, 
	{ NOTE_D4, 119 }, 
	{ NOTE_E4, 119 }, 
	{ NOTE_REST, 119 }, 
	{ NOTE_E4, 119 }, 
	{ NOTE_REST, 119 }, 
	{ NOTE_E4, 119 }, 
	{ NOTE_E4, 238 }, 
	{ NOTE_G4, 119 }, 
	{ NOTE_E4, 119 }, 
	{ NOTE_REST, 119 }, 
	{ NOTE_E4, 119 }, 
	{ NOTE_REST, 119 }, 
	{ NOTE_E4, 119 }, 
	{ NOTE_E4, 238 }, 
	{ NOTE_A4, 119 }, 
	{ NOTE_E4, 119 }, 
	{ NOTE_REST, 119 }, 
	{ NOTE_E4, 119 }, 
	{ NOTE_REST, 119 }, 
	{ NOTE_E4, 119 }, 
	{ NOTE_E4, 238 }, 
	{ NOTE_C5, 119 }, 
	{ NOTE_B4, 119 }, 
	{ NOTE_A4, 119 }, 
	{ NOTE_G4, 119 }, 
	{ NOTE_B4, 119 }, 
	{ NOTE_A4, 119 }, 
	{ NOTE_G4, 119 }, 
	{ NOTE_D4, 119 }, 
	{ NOTE_D4, 119 }, 
	{ NOTE_E4, 119 }, 
	{ NOTE_REST, 119 }, 
	{ NOTE_E4, 119 }, 
	{ NOTE_REST, 119 }, 
	{ NOTE_E4, 119 }, 
	{ NOTE_E4, 238 }, 
	{ NOTE_G4, 119 }, 
	{ NOTE_E4, 119 }, 
	{ NOTE_REST, 119 }, 
	{ NOTE_E4, 119 }, 
	{ NOTE_REST, 119 }, 
	{ NOTE_E4, 119 }, 
	{ NOTE_E4, 238 }, 
	{ NOTE_A4, 119 }, 
	{ NOTE_E4, 119 }, 
	{ NOTE_REST, 119 }, 
	{ NOTE_E4, 119 }, 
	{ NOTE_REST, 119 }, 
	{ NOTE_E4, 119 }, 
	{ NOTE_E4, 238 }, 
	{ NOTE_C5, 119 }, 
	{ NOTE_B4, 119 }, 
	{ NOTE_A4, 119 }, 
	{ NOTE_G4, 119 }, 
	{ NOTE_A4, 476 }, 
	{ NOTE_D4, 119 }, 
	{ NOTE_E4, 119 }, 
	{ NOTE_REST, 119 }, 
	{ NOTE_E4, 119 }, 
	{ NOTE_REST, 119 }, 
	{ NOTE_E4, 119 }, 
	{ NOTE_E4, 238 }, 
	{ NOTE_G4, 119 }, 
	{ NOTE_E4, 119 }, 
	{ NOTE_REST, 119 }, 
	{ NOTE_E4, 119 }, 
	{ NOTE_REST, 119 }, 
	{ NOTE_E4, 119 }, 
	{ NOTE_E4, 238 }, 
	{ NOTE_A4, 119 }, 
	{ NOTE_E4, 119 }, 
	{ NOTE_REST, 119 }, 
	{ NOTE_E4, 119 }, 
	{ NOTE_REST, 119 }, 
	{ NOTE_E4, 119 }, 
	{ NOTE_E4, 238 }, 
	{ NOTE_C5, 119 }, 
	{ NOTE_B4, 119 }, 
	{ NOTE_A4, 119 }, 
	{ NOTE_G4, 119 }, 
	{ NOTE_B4, 119 }, 
	{ NOTE_A4, 119 }, 
	{ NOTE_G4, 119 }, 
	{ NOTE_D4, 119 }, 
	{ NOTE_D4, 119 }, 
	{ NOTE_E4, 119 }, 
	{ NOTE_REST, 119 }, 
	{ NOTE_E4, 119 }, 
	{ NOTE_REST, 119 }, 
	{ NOTE_E4, 119 }, 
	{ NOTE_E4, 238 }, 
	{ NOTE_G4, 119 }, 
	{ NOTE_E4, 119 }, 
	{ NOTE_REST, 119 }, 
	{ NOTE_E4, 119 }, 
	{ NOTE_REST, 119 }, 
	{ NOTE_E4, 119 }, 
	{ NOTE_E4, 238 }, 
	{ NOTE_A4, 119 }, 
	{ NOTE_E4, 119 }, 
	{ NOTE_REST, 119 }, 
	{ NOTE_E4, 119 }, 
	{ NOTE_REST, 119 }, 
	{ NOTE_E4, 119 }, 
	{ NOTE_E4, 238 }, 
	{ NOTE_C5, 119 }, 
	{ NOTE_B4, 119 }, 
	{ NOTE_A4, 119 }, 
	{ NOTE_G4, 119 }, 
	{ NOTE_A4, 476 }, 
	{ NOTE_E4, 1904 }, 
	{ NOTE_C4, 952 }, 
	{ NOTE_D4, 952 }, 
	{ NOTE_E4, 1904 }, 
	{ NOTE_C4, 952 }, 
	{ NOTE_D4, 952 }, 
	{ NOTE_E4, 1904 }, 
	{ NOTE_C4, 952 }, 
	{ NOTE_D4, 952 }, 
	{ NOTE_E4, 1904 }, 
	{ NOTE_C4, 952 }, 
	{ NOTE_D4, 952 }, 
	{ NOTE_G4, 1904 }, 
	{ NOTE_DS4, 952 }, 
	{ NOTE_F4, 952 }, 
	{ NOTE_REST, 476 }, 
	{ NOTE_G4, 159 }, 
	{ NOTE_C5, 5077 }, 
	{ NOTE_DS4, 952 }, 
	{ NOTE_F4, 952 }, 
	{ NOTE_G4, 1904 }, 
	{ NOTE_DS4, 952 }, 
	{ NOTE_F4, 952 }, 
	{ NOTE_A3, 238 }, 
	{ NOTE_C4, 119 }, 
	{ NOTE_C4, 119 }, 
	{ NOTE_REST, 119 }, 
	{ NOTE_A3, 119 }, 
	{ NOTE_A3, 238 }, 
	{ NOTE_C4, 119 }, 
	{ NOTE_B3, 119 }, 
	{ NOTE_A3, 238 }, 
	{ NOTE_D4, 238 }, 
	{ NOTE_D4, 238 }, 
	{ NOTE_A3, 238 }, 
	{ NOTE_C4, 119 }, 
	{ NOTE_C4, 119 }, 
	{ NOTE_REST, 119 }, 
	{ NOTE_A3, 119 }, 
	{ NOTE_A3, 238 }, 
	{ NOTE_C4, 119 }, 
	{ NOTE_B3, 119 }, 
	{ NOTE_A3, 119 }, 
	{ NOTE_G3, 119 }, 
	{ NOTE_A3, 238 }, 
	{ NOTE_A3, 238 }, 
	{ NOTE_A3, 238 }, 
	{ NOTE_C4, 119 }, 
	{ NOTE_C4, 119 }, 
	{ NOTE_REST, 119 }, 
	{ NOTE_A3, 119 }, 
	{ NOTE_A3, 238 }, 
	{ NOTE_C4, 119 }, 
	{ NOTE_B3, 119 }, 
	{ NOTE_A3, 238 }, 
	{ NOTE_D4, 238 }, 
	{ NOTE_D4, 238 }, 
	{ NOTE_A3, 238 }, 
	{ NOTE_C4, 119 }, 
	{ NOTE_C4, 119 }, 
	{ NOTE_REST, 119 }, 
	{ NOTE_A3, 119 }, 
	{ NOTE_A3, 238 }, 
	{ NOTE_C4, 119 }, 
	{ NOTE_B3, 119 }, 
	{ NOTE_A3, 119 }, 
	{ NOTE_G3, 119 }, 
	{ NOTE_A3, 119 }, 
	{ NOTE_REST, 119 }, 
	{ NOTE_REST, 238 }, 
	{ NOTE_A3, 238 }, 
	{ NOTE_C4, 119 }, 
	{ NOTE_C4, 119 }, 
	{ NOTE_REST, 119 }, 
	{ NOTE_A3, 119 }, 
	{ NOTE_A3, 238 }, 
	{ NOTE_C4, 119 }, 
	{ NOTE_B3, 119 }, 
	{ NOTE_A3, 238 }, 
	{ NOTE_D4, 238 }, 
	{ NOTE_D4, 238 }, 
	{ NOTE_A3, 238 }, 
	{ NOTE_C4, 119 }, 
	{ NOTE_C4, 119 }, 
	{ NOTE_REST, 119 }, 
	{ NOTE_A3, 119 }, 
	{ NOTE_A3, 238 }, 
	{ NOTE_C4, 119 }, 
	{ NOTE_B3, 119 }, 
	{ NOTE_A3, 119 }, 
	{ NOTE_G3, 119 }, 
	{ NOTE_A3, 238 }, 
	{ NOTE_A3, 238 }, 
	{ NOTE_A3, 238 }, 
	{ NOTE_C4, 119 }, 
	{ NOTE_C4, 119 }, 
	{ NOTE_REST, 119 }, 
	{ NOTE_A3, 119 }, 
	{ NOTE_A3, 238 }, 
	{ NOTE_C4, 119 }, 
	{ NOTE_B3, 119 }, 
	{ NOTE_A3, 238 }, 
	{ NOTE_D4, 238 }, 
	{ NOTE_D4, 238 }, 
	{ NOTE_A3, 238 }, 
	{ NOTE_C4, 119 }, 
	{ NOTE_C4, 119 }, 
	{ NOTE_REST, 119 }, 
	{ NOTE_A3, 119 }, 
	{ NOTE_A3, 238 }, 
	{ NOTE_C4, 119 }, 
	{ NOTE_B3, 119 }, 
	{ NOTE_A3, 119 }, 
	{ NOTE_G3, 119 }, 
	{ NOTE_A3, 119 }, 
	{ NOTE_REST, 119 }, 
	{ NOTE_REST, 238 }, 
	{ NOTE_A3, 1904 }, 
	{ NOTE_F3, 952 }, 
	{ NOTE_G3, 952 }, 
	{ NOTE_A3, 1904 }, 
	{ NOTE_C4, 952 }, 
	{ NOTE_D4, 952 }, 
	{ NOTE_A3, 1904 }, 
	{ NOTE_F3, 952 }, 
	{ NOTE_G3, 952 }, 
	{ NOTE_A3, 1904 }, 
	{ NOTE_C4, 952 }, 
	{ NOTE_D4, 952 }, 
	{ NOTE_D6, 119 }, 
	{ NOTE_B5, 119 }, 
	{ NOTE_B4, 119 }, 
	{ NOTE_D6, 119 }, 
	{ NOTE_CS6, 119 }, 
	{ NOTE_B5, 119 }, 
	{ NOTE_D6, 119 }, 
	{ NOTE_B5, 119 }, 
	{ NOTE_B4, 119 }, 
	{ NOTE_D6, 119 }, 
	{ NOTE_CS6, 119 }, 
	{ NOTE_B5, 119 }, 
	{ NOTE_D6, 119 }, 
	{ NOTE_B5, 119 }, 
	{ NOTE_B4, 119 }, 
	{ NOTE_D6, 119 }, 
	{ NOTE_CS6, 119 }, 
	{ NOTE_B5, 119 }, 
	{ NOTE_D6, 119 }, 
	{ NOTE_B5, 119 }, 
	{ NOTE_B4, 119 }, 
	{ NOTE_D6, 119 }, 
	{ NOTE_CS6, 119 }, 
	{ NOTE_B5, 119 }, 
	{ NOTE_D6, 119 }, 
	{ NOTE_B5, 119 }, 
	{ NOTE_B4, 119 }, 
	{ NOTE_D6, 119 }, 
	{ NOTE_CS6, 119 }, 
	{ NOTE_B5, 119 }, 
	{ NOTE_B4, 119 }, 
	{ NOTE_B4, 119 }, 
	{ NOTE_B5, 119 }, 
	{ NOTE_B4, 119 }, 
	{ NOTE_A5, 119 }, 
	{ NOTE_B4, 119 }, 
	{ NOTE_G5, 119 }, 
	{ NOTE_B4, 119 }, 
	{ NOTE_A5, 119 }, 
	{ NOTE_B4, 119 }, 
	{ NOTE_G5, 119 }, 
	{ NOTE_B4, 119 }, 
	{ NOTE_FS5, 119 }, 
	{ NOTE_B4, 119 }, 
	{ NOTE_G5, 119 }, 
	{ NOTE_B4, 119 }, 
	{ NOTE_FS5, 119 }, 
	{ NOTE_B4, 119 }, 
	{ NOTE_E5, 119 }, 
	{ NOTE_B4, 119 }, 
	{ NOTE_FS5, 119 }, 
	{ NOTE_B4, 119 }, 
	{ NOTE_G5, 119 }, 
	{ NOTE_B4, 119 }, 
	{ NOTE_FS5, 119 }, 
	{ NOTE_B4, 119 }, 
	{ NOTE_CS5, 952 }, 
	{ NOTE_A4, 0 }, 
	{ NOTE_B4, 714 }, 
	{ NOTE_B4, 79 }, 
	{ NOTE_D5, 79 }, 
	{ NOTE_C5, 80 }, 
	{ NOTE_A5, 119 }, 
	{ NOTE_GS5, 119 }, 
	{ NOTE_FS5, 119 }, 
	{ NOTE_E5, 119 }, 
	{ NOTE_GS5, 119 }, 
	{ NOTE_FS5, 119 }, 
	{ NOTE_E5, 119 }, 
	{ NOTE_E5, 198 }, 
	{ NOTE_E5, 79 }, 
	{ NOTE_D5, 79 }, 
	{ NOTE_B4, 119 }, 
	{ NOTE_E5, 119 }, 
	{ NOTE_D5, 119 }, 
	{ NOTE_B4, 119 }, 
	{ NOTE_A4, 119 }, 
	{ NOTE_FS4, 120 }, 
	{ NOTE_D4, 595 }, 
	{ NOTE_B3, 119 }, 
	{ NOTE_A3, 238 }, 
	{ NOTE_FS5, 159 }, 
	{ NOTE_F5, 159 }, 
	{ NOTE_D5, 159 }, 
	{ NOTE_E5, 238 }, 
	{ NOTE_B4, 119 }, 
	{ NOTE_AS4, 118 }, 
	{ NOTE_A4, 238 }, 
	{ NOTE_FS4, 119 }, 
	{ NOTE_F4, 119 }, 
	{ NOTE_E4, 239 }, 
	{ NOTE_E4, 237 }, 
	{ NOTE_G4, 0 }, 
	{ NOTE_B5, 238 }, 
	{ NOTE_D6, 119 }, 
	{ NOTE_E6, 119 }, 
	{ NOTE_E6, 318 }, 
	{ NOTE_D6, 158 }, 
	{ NOTE_A6, 952 }, 
	{ NOTE_A3, 238 }, 
	{ NOTE_C4, 119 }, 
	{ NOTE_C4, 119 }, 
	{ NOTE_REST, 119 }, 
	{ NOTE_A3, 119 }, 
	{ NOTE_A3, 238 }, 
	{ NOTE_C4, 119 }, 
	{ NOTE_B3, 119 }, 
	{ NOTE_A3, 238 }, 
	{ NOTE_D4, 238 }, 
	{ NOTE_D4, 238 }, 
	{ NOTE_A3, 238 }, 
	{ NOTE_C4, 119 }, 
	{ NOTE_C4, 119 }, 
	{ NOTE_REST, 119 }, 
	{ NOTE_A3, 119 }, 
	{ NOTE_A3, 238 }, 
	{ NOTE_C4, 119 }, 
	{ NOTE_B3, 119 }, 
	{ NOTE_A3, 119 }, 
	{ NOTE_G3, 119 }, 
	{ NOTE_A3, 238 }, 
	{ NOTE_A3, 238 }, 
	{ NOTE_A3, 238 }, 
	{ NOTE_C4, 119 }, 
	{ NOTE_C4, 119 }, 
	{ NOTE_REST, 119 }, 
	{ NOTE_A3, 119 }, 
	{ NOTE_A3, 238 }, 
	{ NOTE_C4, 119 }, 
	{ NOTE_B3, 119 }, 
	{ NOTE_A3, 238 }, 
	{ NOTE_D4, 238 }, 
	{ NOTE_D4, 238 }, 
	{ NOTE_A3, 238 }, 
	{ NOTE_C4, 119 }, 
	{ NOTE_C4, 119 }, 
	{ NOTE_REST, 119 }, 
	{ NOTE_A3, 119 }, 
	{ NOTE_A3, 238 }, 
	{ NOTE_C4, 119 }, 
	{ NOTE_B3, 119 }, 
	{ NOTE_A3, 119 }, 
	{ NOTE_G3, 119 }, 
	{ NOTE_A3, 119 }, 
	{ NOTE_REST, 119 }, 
	{ NOTE_REST, 238 }, 
	{ NOTE_A3, 238 }, 
	{ NOTE_C4, 119 }, 
	{ NOTE_C4, 119 }, 
	{ NOTE_REST, 119 }, 
	{ NOTE_A3, 119 }, 
	{ NOTE_A3, 238 }, 
	{ NOTE_C4, 119 }, 
	{ NOTE_B3, 119 }, 
	{ NOTE_A3, 238 }, 
	{ NOTE_D4, 238 }, 
	{ NOTE_D4, 238 }, 
	{ NOTE_A3, 238 }, 
	{ NOTE_C4, 119 }, 
	{ NOTE_C4, 119 }, 
	{ NOTE_REST, 119 }, 
	{ NOTE_A3, 119 }, 
	{ NOTE_A3, 238 }, 
	{ NOTE_C4, 119 }, 
	{ NOTE_B3, 119 }, 
	{ NOTE_A3, 119 }, 
	{ NOTE_G3, 119 }, 
	{ NOTE_A3, 238 }, 
	{ NOTE_A3, 238 }, 
	{ NOTE_A3, 238 }, 
	{ NOTE_C4, 119 }, 
	{ NOTE_C4, 119 }, 
	{ NOTE_REST, 119 }, 
	{ NOTE_A3, 119 }, 
	{ NOTE_A3, 238 }, 
	{ NOTE_C4, 119 }, 
	{ NOTE_B3, 119 }, 
	{ NOTE_A3, 238 }, 
	{ NOTE_D4, 238 }, 
	{ NOTE_D4, 238 }, 
	{ NOTE_A3, 238 }, 
	{ NOTE_C4, 119 }, 
	{ NOTE_C4, 119 }, 
	{ NOTE_REST, 119 }, 
	{ NOTE_A3, 119 }, 
	{ NOTE_A3, 238 }, 
	{ NOTE_C4, 119 }, 
	{ NOTE_B3, 119 }, 
	{ NOTE_A3, 119 }, 
	{ NOTE_G3, 119 }, 
	{ NOTE_A3, 119 }, 
	{ NOTE_REST, 119 }, 
	{ NOTE_REST, 238 }, 
	{ NOTE_E4, 357 }, 
	{ NOTE_FS4, 357 }, 
	{ NOTE_G4, 238 }, 
	{ NOTE_A4, 357 }, 
	{ NOTE_G4, 357 }, 
	{ NOTE_FS4, 238 }, 
	{ NOTE_E4, 357 }, 
	{ NOTE_G4, 357 }, 
	{ NOTE_FS4, 238 }, 
	{ NOTE_D4, 357 }, 
	{ NOTE_FS4, 357 }, 
	{ NOTE_D4, 238 }, 
	{ NOTE_E4, 357 }, 
	{ NOTE_FS4, 357 }, 
	{ NOTE_G4, 238 }, 
	{ NOTE_A4, 357 }, 
	{ NOTE_G4, 357 }, 
	{ NOTE_FS4, 238 }, 
	{ NOTE_E4, 357 }, 
	{ NOTE_G4, 357 }, 
	{ NOTE_FS4, 238 }, 
	{ NOTE_D4, 952 }, 
	{ NOTE_E4, 357 }, 
	{ NOTE_FS4, 357 }, 
	{ NOTE_G4, 238 }, 
	{ NOTE_A4, 357 }, 
	{ NOTE_G4, 357 }, 
	{ NOTE_FS4, 238 }, 
	{ NOTE_E4, 357 }, 
	{ NOTE_G4, 357 }, 
	{ NOTE_FS4, 238 }, 
	{ NOTE_D4, 357 }, 
	{ NOTE_FS4, 357 }, 
	{ NOTE_D4, 238 }, 
	{ NOTE_E4, 357 }, 
	{ NOTE_FS4, 357 }, 
	{ NOTE_G4, 238 }, 
	{ NOTE_A4, 357 }, 
	{ NOTE_G4, 357 }, 
	{ NOTE_FS4, 238 }, 
	{ NOTE_E4, 357 }, 
	{ NOTE_G4, 357 }, 
	{ NOTE_FS4, 238 }, 
	{ NOTE_D4, 952 }, 
	{ NOTE_A3, 357 }, 
	{ NOTE_B3, 357 }, 
	{ NOTE_C4, 238 }, 
	{ NOTE_D4, 357 }, 
	{ NOTE_C4, 357 }, 
	{ NOTE_B3, 238 }, 
	{ NOTE_A3, 357 }, 
	{ NOTE_C4, 357 }, 
	{ NOTE_B3, 238 }, 
	{ NOTE_G3, 357 }, 
	{ NOTE_B3, 357 }, 
	{ NOTE_G3, 238 }, 
	{ NOTE_A3, 357 }, 
	{ NOTE_B3, 357 }, 
	{ NOTE_C4, 238 }, 
	{ NOTE_D4, 357 }, 
	{ NOTE_C4, 357 }, 
	{ NOTE_B3, 238 }, 
	{ NOTE_A3, 357 }, 
	{ NOTE_C4, 357 }, 
	{ NOTE_B3, 238 }, 
	{ NOTE_G3, 952 }, 
	{ NOTE_A3, 357 }, 
	{ NOTE_B3, 357 }, 
	{ NOTE_C4, 238 }, 
	{ NOTE_D4, 357 }, 
	{ NOTE_C4, 357 }, 
	{ NOTE_B3, 238 }, 
	{ NOTE_A3, 357 }, 
	{ NOTE_C4, 357 }, 
	{ NOTE_B3, 238 }, 
	{ NOTE_G3, 357 }, 
	{ NOTE_B3, 357 }, 
	{ NOTE_G3, 238 }, 
	{ NOTE_A3, 357 }, 
	{ NOTE_B3, 357 }, 
	{ NOTE_C4, 238 }, 
	{ NOTE_D4, 357 }, 
	{ NOTE_C4, 357 }, 
	{ NOTE_B3, 238 }, 
	{ NOTE_A3, 357 }, 
	{ NOTE_C4, 357 }, 
	{ NOTE_B3, 238 }, 
	{ NOTE_G3, 952 }, 
	{ NOTE_D4, 119 }, 
	{ NOTE_E4, 119 }, 
	{ NOTE_REST, 119 }, 
	{ NOTE_E4, 119 }, 
	{ NOTE_REST, 119 }, 
	{ NOTE_E4, 119 }, 
	{ NOTE_E4, 238 }, 
	{ NOTE_G4, 119 }, 
	{ NOTE_E4, 119 }, 
	{ NOTE_REST, 119 }, 
	{ NOTE_E4, 119 }, 
	{ NOTE_REST, 119 }, 
	{ NOTE_E4, 119 }, 
	{ NOTE_E4, 238 }, 
	{ NOTE_A4, 119 }, 
	{ NOTE_E4, 119 }, 
	{ NOTE_REST, 119 }, 
	{ NOTE_E4, 119 }, 
	{ NOTE_REST, 119 }, 
	{ NOTE_E4, 119 }, 
	{ NOTE_E4, 238 }, 
	{ NOTE_C5, 119 }, 
	{ NOTE_B4, 119 }, 
	{ NOTE_A4, 119 }, 
	{ NOTE_G4, 119 }, 
	{ NOTE_B4, 119 }, 
	{ NOTE_A4, 119 }, 
	{ NOTE_G4, 119 }, 
	{ NOTE_D4, 119 }, 
	{ NOTE_D4, 119 }, 
	{ NOTE_E4, 119 }, 
	{ NOTE_REST, 119 }, 
	{ NOTE_E4, 119 }, 
	{ NOTE_REST, 119 }, 
	{ NOTE_E4, 119 }, 
	{ NOTE_E4, 238 }, 
	{ NOTE_G4, 119 }, 
	{ NOTE_E4, 119 }, 
	{ NOTE_REST, 119 }, 
	{ NOTE_E4, 119 }, 
	{ NOTE_REST, 119 }, 
	{ NOTE_E4, 119 }, 
	{ NOTE_E4, 238 }, 
	{ NOTE_A4, 119 }, 
	{ NOTE_E4, 119 }, 
	{ NOTE_REST, 119 }, 
	{ NOTE_E4, 119 }, 
	{ NOTE_REST, 119 }, 
	{ NOTE_E4, 119 }, 
	{ NOTE_E4, 238 }, 
	{ NOTE_C5, 119 }, 
	{ NOTE_B4, 119 }, 
	{ NOTE_A4, 119 }, 
	{ NOTE_G4, 119 }, 
	{ NOTE_A4, 476 }, 
	{ NOTE_D4, 119 }, 
	{ NOTE_E4, 119 }, 
	{ NOTE_REST, 119 }, 
	{ NOTE_E4, 119 }, 
	{ NOTE_REST, 119 }, 
	{ NOTE_E4, 119 }, 
	{ NOTE_E4, 238 }, 
	{ NOTE_G4, 119 }, 
	{ NOTE_E4, 119 }, 
	{ NOTE_REST, 119 }, 
	{ NOTE_E4, 119 }, 
	{ NOTE_REST, 119 }, 
	{ NOTE_E4, 119 }, 
	{ NOTE_E4, 238 }, 
	{ NOTE_A4, 119 }, 
	{ NOTE_E4, 119 }, 
	{ NOTE_REST, 119 }, 
	{ NOTE_E4, 119 }, 
	{ NOTE_REST, 119 }, 
	{ NOTE_E4, 119 }, 
	{ NOTE_E4, 238 }, 
	{ NOTE_C5, 119 }, 
	{ NOTE_B4, 119 }, 
	{ NOTE_A4, 119 }, 
	{ NOTE_G4, 119 }, 
	{ NOTE_B4, 119 }, 
	{ NOTE_A4, 119 }, 
	{ NOTE_G4, 119 }, 
	{ NOTE_D4, 119 }, 
	{ NOTE_D4, 119 }, 
	{ NOTE_E4, 119 }, 
	{ NOTE_REST, 119 }, 
	{ NOTE_E4, 119 }, 
	{ NOTE_REST, 119 }, 
	{ NOTE_E4, 119 }, 
	{ NOTE_E4, 238 }, 
	{ NOTE_G4, 119 }, 
	{ NOTE_E4, 119 }, 
	{ NOTE_REST, 119 }, 
	{ NOTE_E4, 119 }, 
	{ NOTE_REST, 119 }, 
	{ NOTE_E4, 119 }, 
	{ NOTE_E4, 238 }, 
	{ NOTE_A4, 119 }, 
	{ NOTE_E4, 119 }, 
	{ NOTE_REST, 119 }, 
	{ NOTE_E4, 119 }, 
	{ NOTE_REST, 119 }, 
	{ NOTE_E4, 119 }, 
	{ NOTE_E4, 238 }, 
	{ NOTE_C5, 119 }, 
	{ NOTE_B4, 119 }, 
	{ NOTE_A4, 119 }, 
	{ NOTE_G4, 119 }, 
	{ NOTE_A4, 476 }, 
	{ NOTE_E4, 1904 }, 
	{ NOTE_C4, 952 }, 
	{ NOTE_D4, 952 }, 
	{ NOTE_E4, 1904 }, 
	{ NOTE_C4, 952 }, 
	{ NOTE_D4, 952 }, 
	{ NOTE_E4, 1904 }, 
	{ NOTE_C4, 952 }, 
	{ NOTE_D4, 952 }, 
	{ NOTE_E4, 1904 }, 
	{ NOTE_C4, 952 }, 
	{ NOTE_D4, 952 }, 
	{ NOTE_G4, 1904 }, 
	{ NOTE_DS4, 952 }, 
	{ NOTE_F4, 952 }, 
	{ NOTE_REST, 476 }, 
	{ NOTE_G4, 159 }, 
	{ NOTE_C5, 5077 }, 
	{ NOTE_DS4, 952 }, 
	{ NOTE_F4, 952 }, 
	{ NOTE_G4, 1904 }, 
	{ NOTE_DS4, 952 }, 
	{ NOTE_F4, 952 }, 
	{ NOTE_C5, 357 }, 
	{ NOTE_B4, 119 }, 
	{ NOTE_C5, 119 }, 
	{ NOTE_B4, 119 }, 
	{ NOTE_C5, 119 }, 
	{ NOTE_B4, 119 }, 
	{ NOTE_E5, 238 }, 
	{ NOTE_E5, 238 }, 
	{ NOTE_C5, 476 }, 
	{ NOTE_C5, 357 }, 
	{ NOTE_B4, 119 }, 
	{ NOTE_C5, 119 }, 
	{ NOTE_B4, 119 }, 
	{ NOTE_C5, 119 }, 
	{ NOTE_B4, 119 }, 
	{ NOTE_B4, 119 }, 
	{ NOTE_D5, 119 }, 
	{ NOTE_D5, 119 }, 
	{ NOTE_D5, 119 }, 
	{ NOTE_E5, 119 }, 
	{ NOTE_D5, 119 }, 
	{ NOTE_C5, 119 }, 
	{ NOTE_B4, 119 }, 
	{ NOTE_C5, 357 }, 
	{ NOTE_B4, 119 }, 
	{ NOTE_C5, 119 }, 
	{ NOTE_B4, 119 }, 
	{ NOTE_C5, 119 }, 
	{ NOTE_B4, 119 }, 
	{ NOTE_E5, 238 }, 
	{ NOTE_E5, 238 }, 
	{ NOTE_C5, 476 }, 
	{ NOTE_C5, 357 }, 
	{ NOTE_B4, 119 }, 
	{ NOTE_C5, 119 }, 
	{ NOTE_B4, 119 }, 
	{ NOTE_C5, 119 }, 
	{ NOTE_B4, 119 }, 
	{ NOTE_B4, 119 }, 
	{ NOTE_D5, 119 }, 
	{ NOTE_D5, 119 }, 
	{ NOTE_D5, 119 }, 
	{ NOTE_E5, 119 }, 
	{ NOTE_D5, 119 }, 
	{ NOTE_C5, 119 }, 
	{ NOTE_B4, 119 }, 
	{ NOTE_C5, 357 }, 
	{ NOTE_B4, 119 }, 
	{ NOTE_C5, 119 }, 
	{ NOTE_B4, 119 }, 
	{ NOTE_C5, 119 }, 
	{ NOTE_B4, 119 }, 
	{ NOTE_E5, 238 }, 
	{ NOTE_E5, 238 }, 
	{ NOTE_C5, 476 }, 
	{ NOTE_C5, 357 }, 
	{ NOTE_B4, 119 }, 
	{ NOTE_C5, 119 }, 
	{ NOTE_B4, 119 }, 
	{ NOTE_C5, 119 }, 
	{ NOTE_B4, 119 }, 
	{ NOTE_B4, 119 }, 
	{ NOTE_D5, 119 }, 
	{ NOTE_D5, 119 }, 
	{ NOTE_D5, 119 }, 
	{ NOTE_E5, 119 }, 
	{ NOTE_D5, 119 }, 
	{ NOTE_C5, 119 }, 
	{ NOTE_B4, 119 }, 
	{ NOTE_C5, 450 }, 
	{ NOTE_B4, 150 }, 
	{ NOTE_C5, 150 }, 
	{ NOTE_B4, 150 }, 
	{ NOTE_C5, 150 }, 
	{ NOTE_B4, 150 }, 
	{ NOTE_E5, 300 }, 
	{ NOTE_E5, 300 }, 
	{ NOTE_C5, 600 }, 
	{ NOTE_C5, 562 }, 
	{ NOTE_B4, 188 }, 
	{ NOTE_C5, 188 }, 
	{ NOTE_B4, 188 }, 
	{ NOTE_C5, 188 }, 
	{ NOTE_B4, 186 }, 
	{ NOTE_B4, 188 }, 
	{ NOTE_B4, 0 }, 
	{ NOTE_D5, 188 }, 
	{ NOTE_D5, 188 }, 
	{ NOTE_D5, 188 }, 
	{ NOTE_E5, 188 }, 
	{ NOTE_D5, 62 }, 
	{ NOTE_E5, 62 }, 
	{ NOTE_D5, 62 }, 
	{ NOTE_C5, 188 }, 
	{ NOTE_B4, 186 }, 
	{ NOTE_C5, 562 }, 
	{ NOTE_F5, 62 }, 
	{ NOTE_G5, 62 }, 
	{ NOTE_F5, 62 }, 
	{ NOTE_E5, 375 }, 
	{ NOTE_FS5, 377 }, 
	{ NOTE_E5, 375 }, 
	{ NOTE_F5, 375 }, 
	{ NOTE_E5, 375 }, 
	{ NOTE_D5, 375 }, 
	{ NOTE_C5, 750 }, 
	{ NOTE_A3, 375 }, 
	{ NOTE_REST, 375 }, 
	{ NOTE_REST, 1500 }, 
	{ NOTE_REST, 1500 }, 
};
const uint16_t NUM_OF_NOTES0 = sizeof(melody0)/sizeof(melody0[0]);

const Note melody1[] PROGMEM = {
	{ NOTE_REST, 750 }, 
	{ NOTE_REST, 375 }, 
	{ NOTE_REST, 188 }, 
	{ NOTE_GS4, 187 }, 
	{ NOTE_A4, 188 }, 
	{ NOTE_B4, 188 }, 
	{ NOTE_A4, 188 }, 
	{ NOTE_CS5, 188 }, 
	{ NOTE_REST, 188 }, 
	{ NOTE_B4, 188 }, 
	{ NOTE_A4, 188 }, 
	{ NOTE_GS4, 184 }, 
	{ NOTE_A4, 188 }, 
	{ NOTE_B4, 188 }, 
	{ NOTE_A4, 188 }, 
	{ NOTE_CS5, 188 }, 
	{ NOTE_REST, 188 }, 
	{ NOTE_B4, 188 }, 
	{ NOTE_REST, 188 }, 
	{ NOTE_GS4, 184 }, 
	{ NOTE_A4, 188 }, 
	{ NOTE_B4, 188 }, 
	{ NOTE_A4, 188 }, 
	{ NOTE_CS5, 188 }, 
	{ NOTE_REST, 188 }, 
	{ NOTE_B4, 188 }, 
	{ NOTE_REST, 188 }, 
	{ NOTE_GS4, 184 }, 
	{ NOTE_A4, 188 }, 
	{ NOTE_B4, 188 }, 
	{ NOTE_A4, 188 }, 
	{ NOTE_CS5, 188 }, 
	{ NOTE_REST, 188 }, 
	{ NOTE_B4, 188 }, 
	{ NOTE_REST, 188 }, 
	{ NOTE_GS4, 184 }, 
	{ NOTE_A4, 188 }, 
	{ NOTE_B4, 188 }, 
	{ NOTE_A4, 188 }, 
	{ NOTE_CS5, 188 }, 
	{ NOTE_REST, 188 }, 
	{ NOTE_B4, 188 }, 
	{ NOTE_A4, 188 }, 
	{ NOTE_GS4, 184 }, 
	{ NOTE_A4, 188 }, 
	{ NOTE_B4, 188 }, 
	{ NOTE_A4, 188 }, 
	{ NOTE_CS5, 188 }, 
	{ NOTE_REST, 188 }, 
	{ NOTE_B4, 188 }, 
	{ NOTE_REST, 188 }, 
	{ NOTE_GS4, 184 }, 
	{ NOTE_A4, 188 }, 
	{ NOTE_B4, 188 }, 
	{ NOTE_A4, 188 }, 
	{ NOTE_CS5, 188 }, 
	{ NOTE_REST, 188 }, 
	{ NOTE_B4, 188 }, 
	{ NOTE_REST, 188 }, 
	{ NOTE_GS4, 184 }, 
	{ NOTE_A4, 188 }, 
	{ NOTE_B4, 188 }, 
	{ NOTE_A4, 188 }, 
	{ NOTE_CS5, 188 }, 
	{ NOTE_REST, 188 }, 
	{ NOTE_B4, 188 }, 
	{ NOTE_REST, 188 }, 
	{ NOTE_GS4, 184 }, 
	{ NOTE_A4, 188 }, 
	{ NOTE_B4, 188 }, 
	{ NOTE_A4, 188 }, 
	{ NOTE_CS5, 188 }, 
	{ NOTE_REST, 188 }, 
	{ NOTE_B4, 188 }, 
	{ NOTE_A4, 188 }, 
	{ NOTE_GS4, 184 }, 
	{ NOTE_A4, 188 }, 
	{ NOTE_B4, 188 }, 
	{ NOTE_A4, 188 }, 
	{ NOTE_CS5, 188 }, 
	{ NOTE_REST, 188 }, 
	{ NOTE_B4, 188 }, 
	{ NOTE_REST, 188 }, 
	{ NOTE_GS4, 184 }, 
	{ NOTE_A4, 188 }, 
	{ NOTE_B4, 188 }, 
	{ NOTE_A4, 188 }, 
	{ NOTE_CS5, 188 }, 
	{ NOTE_REST, 188 }, 
	{ NOTE_B4, 188 }, 
	{ NOTE_REST, 188 }, 
	{ NOTE_GS4, 184 }, 
	{ NOTE_A4, 188 }, 
	{ NOTE_B4, 188 }, 
	{ NOTE_A4, 188 }, 
	{ NOTE_CS5, 188 }, 
	{ NOTE_REST, 188 }, 
	{ NOTE_B4, 188 }, 
	{ NOTE_REST, 188 }, 
	{ NOTE_GS4, 184 }, 
	{ NOTE_A4, 188 }, 
	{ NOTE_B4, 188 }, 
	{ NOTE_A4, 188 }, 
	{ NOTE_CS5, 188 }, 
	{ NOTE_REST, 188 }, 
	{ NOTE_B4, 188 }, 
	{ NOTE_A4, 188 }, 
	{ NOTE_GS4, 184 }, 
	{ NOTE_A4, 188 }, 
	{ NOTE_B4, 188 }, 
	{ NOTE_A4, 188 }, 
	{ NOTE_CS5, 188 }, 
	{ NOTE_REST, 188 }, 
	{ NOTE_B4, 188 }, 
	{ NOTE_REST, 188 }, 
	{ NOTE_GS4, 184 }, 
	{ NOTE_A4, 188 }, 
	{ NOTE_B4, 188 }, 
	{ NOTE_A4, 188 }, 
	{ NOTE_CS5, 188 }, 
	{ NOTE_REST, 188 }, 
	{ NOTE_B4, 188 }, 
	{ NOTE_REST, 188 }, 
	{ NOTE_GS4, 184 }, 
	{ NOTE_A4, 188 }, 
	{ NOTE_B4, 188 }, 
	{ NOTE_A4, 188 }, 
	{ NOTE_GS4, 936 }, 
	{ NOTE_C5, 391 }, 
	{ NOTE_B4, 130 }, 
	{ NOTE_C5, 130 }, 
	{ NOTE_B4, 130 }, 
	{ NOTE_C5, 130 }, 
	{ NOTE_B4, 132 }, 
	{ NOTE_E5, 261 }, 
	{ NOTE_E5, 261 }, 
	{ NOTE_C5, 521 }, 
	{ NOTE_C5, 391 }, 
	{ NOTE_B4, 130 }, 
	{ NOTE_C5, 130 }, 
	{ NOTE_B4, 130 }, 
	{ NOTE_C5, 130 }, 
	{ NOTE_B4, 132 }, 
	{ NOTE_B4, 130 }, 
	{ NOTE_D5, 130 }, 
	{ NOTE_D5, 130 }, 
	{ NOTE_D5, 130 }, 
	{ NOTE_E5, 130 }, 
	{ NOTE_D5, 130 }, 
	{ NOTE_C5, 130 }, 
	{ NOTE_B4, 133 }, 
	{ NOTE_C5, 357 }, 
	{ NOTE_B4, 119 }, 
	{ NOTE_C5, 119 }, 
	{ NOTE_B4, 119 }, 
	{ NOTE_C5, 119 }, 
	{ NOTE_B4, 119 }, 
	{ NOTE_E5, 238 }, 
	{ NOTE_E5, 238 }, 
	{ NOTE_C5, 476 }, 
	{ NOTE_C5, 357 }, 
	{ NOTE_B4, 119 }, 
	{ NOTE_C5, 119 }, 
	{ NOTE_B4, 119 }, 
	{ NOTE_C5, 119 }, 
	{ NOTE_B4, 119 }, 
	{ NOTE_B4, 119 }, 
	{ NOTE_D5, 119 }, 
	{ NOTE_D5, 119 }, 
	{ NOTE_D5, 119 }, 
	{ NOTE_E5, 119 }, 
	{ NOTE_D5, 119 }, 
	{ NOTE_C5, 119 }, 
	{ NOTE_B4, 119 }, 
	{ NOTE_C5, 357 }, 
	{ NOTE_B4, 119 }, 
	{ NOTE_C5, 119 }, 
	{ NOTE_B4, 119 }, 
	{ NOTE_C5, 119 }, 
	{ NOTE_B4, 119 }, 
	{ NOTE_E5, 238 }, 
	{ NOTE_E5, 238 }, 
	{ NOTE_C5, 476 }, 
	{ NOTE_C5, 357 }, 
	{ NOTE_B4, 119 }, 
	{ NOTE_C5, 119 }, 
	{ NOTE_B4, 119 }, 
	{ NOTE_C5, 119 }, 
	{ NOTE_B4, 119 }, 
	{ NOTE_B4, 119 }, 
	{ NOTE_D5, 119 }, 
	{ NOTE_D5, 119 }, 
	{ NOTE_D5, 119 }, 
	{ NOTE_E5, 119 }, 
	{ NOTE_D5, 119 }, 
	{ NOTE_C5, 119 }, 
	{ NOTE_B4, 119 }, 
	{ NOTE_C5, 357 }, 
	{ NOTE_B4, 119 }, 
	{ NOTE_C5, 119 }, 
	{ NOTE_B4, 119 }, 
	{ NOTE_C5, 119 }, 
	{ NOTE_B4, 119 }, 
	{ NOTE_E5, 238 }, 
	{ NOTE_E5, 238 }, 
	{ NOTE_C5, 476 }, 
	{ NOTE_C5, 357 }, 
	{ NOTE_B4, 119 }, 
	{ NOTE_C5, 119 }, 
	{ NOTE_B4, 119 }, 
	{ NOTE_C5, 119 }, 
	{ NOTE_B4, 119 }, 
	{ NOTE_B4, 119 }, 
	{ NOTE_D5, 119 }, 
	{ NOTE_D5, 119 }, 
	{ NOTE_D5, 119 }, 
	{ NOTE_E5, 119 }, 
	{ NOTE_D5, 119 }, 
	{ NOTE_C5, 119 }, 
	{ NOTE_B4, 119 }, 
	{ NOTE_B4, 357 }, 
	{ NOTE_CS5, 357 }, 
	{ NOTE_D5, 238 }, 
	{ NOTE_E5, 357 }, 
	{ NOTE_D5, 357 }, 
	{ NOTE_CS5, 238 }, 
	{ NOTE_B4, 357 }, 
	{ NOTE_D5, 357 }, 
	{ NOTE_CS5, 238 }, 
	{ NOTE_A4, 357 }, 
	{ NOTE_CS5, 357 }, 
	{ NOTE_A4, 238 }, 
	{ NOTE_B4, 357 }, 
	{ NOTE_CS5, 357 }, 
	{ NOTE_D5, 238 }, 
	{ NOTE_E5, 357 }, 
	{ NOTE_D5, 357 }, 
	{ NOTE_CS5, 238 }, 
	{ NOTE_B4, 357 }, 
	{ NOTE_D5, 357 }, 
	{ NOTE_CS5, 238 }, 
	{ NOTE_A4, 952 }, 
	{ NOTE_B4, 357 }, 
	{ NOTE_CS5, 357 }, 
	{ NOTE_D5, 238 }, 
	{ NOTE_E5, 357 }, 
	{ NOTE_D5, 357 }, 
	{ NOTE_CS5, 238 }, 
	{ NOTE_B4, 357 }, 
	{ NOTE_D5, 357 }, 
	{ NOTE_CS5, 238 }, 
	{ NOTE_A4, 357 }, 
	{ NOTE_CS5, 357 }, 
	{ NOTE_A4, 238 }, 
	{ NOTE_B4, 357 }, 
	{ NOTE_CS5, 357 }, 
	{ NOTE_D5, 238 }, 
	{ NOTE_E5, 357 }, 
	{ NOTE_D5, 357 }, 
	{ NOTE_CS5, 238 }, 
	{ NOTE_B4, 357 }, 
	{ NOTE_D5, 357 }, 
	{ NOTE_CS5, 238 }, 
	{ NOTE_A4, 952 }, 
	{ NOTE_E4, 357 }, 
	{ NOTE_FS4, 357 }, 
	{ NOTE_G4, 238 }, 
	{ NOTE_A4, 357 }, 
	{ NOTE_G4, 357 }, 
	{ NOTE_FS4, 238 }, 
	{ NOTE_E4, 357 }, 
	{ NOTE_G4, 357 }, 
	{ NOTE_FS4, 238 }, 
	{ NOTE_D4, 357 }, 
	{ NOTE_FS4, 357 }, 
	{ NOTE_D4, 238 }, 
	{ NOTE_E4, 357 }, 
	{ NOTE_FS4, 357 }, 
	{ NOTE_G4, 238 }, 
	{ NOTE_A4, 357 }, 
	{ NOTE_G4, 357 }, 
	{ NOTE_FS4, 238 }, 
	{ NOTE_E4, 357 }, 
	{ NOTE_G4, 357 }, 
	{ NOTE_FS4, 238 }, 
	{ NOTE_D4, 952 }, 
	{ NOTE_E4, 357 }, 
	{ NOTE_FS4, 357 }, 
	{ NOTE_G4, 238 }, 
	{ NOTE_A4, 357 }, 
	{ NOTE_G4, 357 }, 
	{ NOTE_FS4, 238 }, 
	{ NOTE_E4, 357 }, 
	{ NOTE_G4, 357 }, 
	{ NOTE_FS4, 238 }, 
	{ NOTE_D4, 357 }, 
	{ NOTE_FS4, 357 }, 
	{ NOTE_D4, 238 }, 
	{ NOTE_E4, 357 }, 
	{ NOTE_FS4, 357 }, 
	{ NOTE_G4, 238 }, 
	{ NOTE_A4, 357 }, 
	{ NOTE_G4, 357 }, 
	{ NOTE_FS4, 238 }, 
	{ NOTE_E4, 357 }, 
	{ NOTE_G4, 357 }, 
	{ NOTE_FS4, 238 }, 
	{ NOTE_D4, 952 }, 
	{ NOTE_D4, 119 }, 
	{ NOTE_E4, 119 }, 
	{ NOTE_REST, 119 }, 
	{ NOTE_E4, 119 }, 
	{ NOTE_REST, 119 }, 
	{ NOTE_E4, 119 }, 
	{ NOTE_E4, 238 }, 
	{ NOTE_G4, 119 }, 
	{ NOTE_E4, 119 }, 
	{ NOTE_REST, 119 }, 
	{ NOTE_E4, 119 }, 
	{ NOTE_REST, 119 }, 
	{ NOTE_E4, 119 }, 
	{ NOTE_E4, 238 }, 
	{ NOTE_A4, 119 }, 
	{ NOTE_E4, 119 }, 
	{ NOTE_REST, 119 }, 
	{ NOTE_E4, 119 }, 
	{ NOTE_REST, 119 }, 
	{ NOTE_E4, 119 }, 
	{ NOTE_E4, 238 }, 
	{ NOTE_C5, 119 }, 
	{ NOTE_B4, 119 }, 
	{ NOTE_A4, 119 }, 
	{ NOTE_G4, 119 }, 
	{ NOTE_B4, 119 }, 
	{ NOTE_A4, 119 }, 
	{ NOTE_G4, 119 }, 
	{ NOTE_D4, 119 }, 
	{ NOTE_D4, 119 }, 
	{ NOTE_E4, 119 }, 
	{ NOTE_REST, 119 }, 
	{ NOTE_E4, 119 }, 
	{ NOTE_REST, 119 }, 
	{ NOTE_E4, 119 }, 
	{ NOTE_E4, 238 }, 
	{ NOTE_G4, 119 }, 
	{ NOTE_E4, 119 }, 
	{ NOTE_REST, 119 }, 
	{ NOTE_E4, 119 }, 
	{ NOTE_REST, 119 }, 
	{ NOTE_E4, 119 }, 
	{ NOTE_E4, 238 }, 
	{ NOTE_A4, 119 }, 
	{ NOTE_E4, 119 }, 
	{ NOTE_REST, 119 }, 
	{ NOTE_E4, 119 }, 
	{ NOTE_REST, 119 }, 
	{ NOTE_E4, 119 }, 
	{ NOTE_E4, 238 }, 
	{ NOTE_C5, 119 }, 
	{ NOTE_B4, 119 }, 
	{ NOTE_A4, 119 }, 
	{ NOTE_G4, 119 }, 
	{ NOTE_A4, 476 }, 
	{ NOTE_D4, 119 }, 
	{ NOTE_E4, 119 }, 
	{ NOTE_REST, 119 }, 
	{ NOTE_E4, 119 }, 
	{ NOTE_REST, 119 }, 
	{ NOTE_E4, 119 }, 
	{ NOTE_E4, 238 }, 
	{ NOTE_G4, 119 }, 
	{ NOTE_E4, 119 }, 
	{ NOTE_REST, 119 }, 
	{ NOTE_E4, 119 }, 
	{ NOTE_REST, 119 }, 
	{ NOTE_E4, 119 }, 
	{ NOTE_E4, 238 }, 
	{ NOTE_A4, 119 }, 
	{ NOTE_E4, 119 }, 
	{ NOTE_REST, 119 }, 
	{ NOTE_E4, 119 }, 
	{ NOTE_REST, 119 }, 
	{ NOTE_E4, 119 }, 
	{ NOTE_E4, 238 }, 
	{ NOTE_C5, 119 }, 
	{ NOTE_B4, 119 }, 
	{ NOTE_A4, 119 }, 
	{ NOTE_G4, 119 }, 
	{ NOTE_B4, 119 }, 
	{ NOTE_A4, 119 }, 
	{ NOTE_G4, 119 }, 
	{ NOTE_D4, 119 }, 
	{ NOTE_D4, 119 }, 
	{ NOTE_E4, 119 }, 
	{ NOTE_REST, 119 }, 
	{ NOTE_E4, 119 }, 
	{ NOTE_REST, 119 }, 
	{ NOTE_E4, 119 }, 
	{ NOTE_E4, 238 }, 
	{ NOTE_G4, 119 }, 
	{ NOTE_E4, 119 }, 
	{ NOTE_REST, 119 }, 
	{ NOTE_E4, 119 }, 
	{ NOTE_REST, 119 }, 
	{ NOTE_E4, 119 }, 
	{ NOTE_E4, 238 }, 
	{ NOTE_A4, 119 }, 
	{ NOTE_E4, 119 }, 
	{ NOTE_REST, 119 }, 
	{ NOTE_E4, 119 }, 
	{ NOTE_REST, 119 }, 
	{ NOTE_E4, 119 }, 
	{ NOTE_E4, 238 }, 
	{ NOTE_C5, 119 }, 
	{ NOTE_B4, 119 }, 
	{ NOTE_A4, 119 }, 
	{ NOTE_G4, 119 }, 
	{ NOTE_A4, 476 }, 
	{ NOTE_B4, 1904 }, 
	{ NOTE_G4, 952 }, 
	{ NOTE_A4, 952 }, 
	{ NOTE_B4, 1904 }, 
	{ NOTE_G4, 952 }, 
	{ NOTE_A4, 952 }, 
	{ NOTE_B4, 1904 }, 
	{ NOTE_G4, 952 }, 
	{ NOTE_A4, 952 }, 
	{ NOTE_B4, 1904 }, 
	{ NOTE_G4, 952 }, 
	{ NOTE_A4, 952 }, 
	{ NOTE_D5, 1904 }, 
	{ NOTE_AS4, 952 }, 
	{ NOTE_C5, 952 }, 
	{ NOTE_REST, 476 }, 
	{ NOTE_G5, 159 }, 
	{ NOTE_C6, 5077 }, 
	{ NOTE_AS4, 952 }, 
	{ NOTE_C5, 952 }, 
	{ NOTE_D5, 1904 }, 
	{ NOTE_AS4, 952 }, 
	{ NOTE_C5, 952 }, 
	{ NOTE_A3, 238 }, 
	{ NOTE_C4, 119 }, 
	{ NOTE_C4, 119 }, 
	{ NOTE_REST, 119 }, 
	{ NOTE_A3, 119 }, 
	{ NOTE_A3, 238 }, 
	{ NOTE_C4, 119 }, 
	{ NOTE_B3, 119 }, 
	{ NOTE_A3, 238 }, 
	{ NOTE_A4, 238 }, 
	{ NOTE_A4, 238 }, 
	{ NOTE_A3, 238 }, 
	{ NOTE_C4, 119 }, 
	{ NOTE_C4, 119 }, 
	{ NOTE_REST, 119 }, 
	{ NOTE_A3, 119 }, 
	{ NOTE_A3, 238 }, 
	{ NOTE_C4, 119 }, 
	{ NOTE_B3, 119 }, 
	{ NOTE_A3, 119 }, 
	{ NOTE_G3, 119 }, 
	{ NOTE_E4, 238 }, 
	{ NOTE_E4, 238 }, 
	{ NOTE_A3, 238 }, 
	{ NOTE_C4, 119 }, 
	{ NOTE_C4, 119 }, 
	{ NOTE_REST, 119 }, 
	{ NOTE_A3, 119 }, 
	{ NOTE_A3, 238 }, 
	{ NOTE_C4, 119 }, 
	{ NOTE_B3, 119 }, 
	{ NOTE_A3, 238 }, 
	{ NOTE_A4, 238 }, 
	{ NOTE_A4, 238 }, 
	{ NOTE_A3, 238 }, 
	{ NOTE_C4, 119 }, 
	{ NOTE_C4, 119 }, 
	{ NOTE_REST, 119 }, 
	{ NOTE_A3, 119 }, 
	{ NOTE_A3, 238 }, 
	{ NOTE_C4, 119 }, 
	{ NOTE_B3, 119 }, 
	{ NOTE_A3, 119 }, 
	{ NOTE_G3, 119 }, 
	{ NOTE_E4, 119 }, 
	{ NOTE_REST, 119 }, 
	{ NOTE_REST, 238 }, 
	{ NOTE_A3, 238 }, 
	{ NOTE_C4, 119 }, 
	{ NOTE_C4, 119 }, 
	{ NOTE_REST, 119 }, 
	{ NOTE_A3, 119 }, 
	{ NOTE_A3, 238 }, 
	{ NOTE_C4, 119 }, 
	{ NOTE_B3, 119 }, 
	{ NOTE_A3, 238 }, 
	{ NOTE_A4, 238 }, 
	{ NOTE_A4, 238 }, 
	{ NOTE_A3, 238 }, 
	{ NOTE_C4, 119 }, 
	{ NOTE_C4, 119 }, 
	{ NOTE_REST, 119 }, 
	{ NOTE_A3, 119 }, 
	{ NOTE_A3, 238 }, 
	{ NOTE_C4, 119 }, 
	{ NOTE_B3, 119 }, 
	{ NOTE_A3, 119 }, 
	{ NOTE_G3, 119 }, 
	{ NOTE_E4, 238 }, 
	{ NOTE_E4, 238 }, 
	{ NOTE_A3, 238 }, 
	{ NOTE_C4, 119 }, 
	{ NOTE_C4, 119 }, 
	{ NOTE_REST, 119 }, 
	{ NOTE_A3, 119 }, 
	{ NOTE_A3, 238 }, 
	{ NOTE_C4, 119 }, 
	{ NOTE_B3, 119 }, 
	{ NOTE_A3, 238 }, 
	{ NOTE_A4, 238 }, 
	{ NOTE_A4, 238 }, 
	{ NOTE_A3, 238 }, 
	{ NOTE_C4, 119 }, 
	{ NOTE_C4, 119 }, 
	{ NOTE_REST, 119 }, 
	{ NOTE_A3, 119 }, 
	{ NOTE_A3, 238 }, 
	{ NOTE_C4, 119 }, 
	{ NOTE_B3, 119 }, 
	{ NOTE_A3, 119 }, 
	{ NOTE_G3, 119 }, 
	{ NOTE_E4, 119 }, 
	{ NOTE_REST, 119 }, 
	{ NOTE_REST, 238 }, 
	{ NOTE_E4, 1904 }, 
	{ NOTE_C4, 952 }, 
	{ NOTE_D4, 952 }, 
	{ NOTE_E4, 1904 }, 
	{ NOTE_G4, 952 }, 
	{ NOTE_A4, 952 }, 
	{ NOTE_E4, 1904 }, 
	{ NOTE_C4, 952 }, 
	{ NOTE_D4, 952 }, 
	{ NOTE_E4, 1904 }, 
	{ NOTE_G4, 952 }, 
	{ NOTE_A4, 952 }, 
	{ NOTE_D6, 119 }, 
	{ NOTE_B5, 119 }, 
	{ NOTE_B4, 119 }, 
	{ NOTE_D6, 119 }, 
	{ NOTE_CS6, 119 }, 
	{ NOTE_B5, 119 }, 
	{ NOTE_D6, 119 }, 
	{ NOTE_B5, 119 }, 
	{ NOTE_B4, 119 }, 
	{ NOTE_D6, 119 }, 
	{ NOTE_CS6, 119 }, 
	{ NOTE_B5, 119 }, 
	{ NOTE_D6, 119 }, 
	{ NOTE_B5, 119 }, 
	{ NOTE_B4, 119 }, 
	{ NOTE_D6, 119 }, 
	{ NOTE_CS6, 119 }, 
	{ NOTE_B5, 119 }, 
	{ NOTE_D6, 119 }, 
	{ NOTE_B5, 119 }, 
	{ NOTE_B4, 119 }, 
	{ NOTE_D6, 119 }, 
	{ NOTE_CS6, 119 }, 
	{ NOTE_B5, 119 }, 
	{ NOTE_D6, 119 }, 
	{ NOTE_B5, 119 }, 
	{ NOTE_B4, 119 }, 
	{ NOTE_D6, 119 }, 
	{ NOTE_CS6, 119 }, 
	{ NOTE_B5, 119 }, 
	{ NOTE_B4, 119 }, 
	{ NOTE_B4, 119 }, 
	{ NOTE_B5, 119 }, 
	{ NOTE_B4, 119 }, 
	{ NOTE_A5, 119 }, 
	{ NOTE_B4, 119 }, 
	{ NOTE_G5, 119 }, 
	{ NOTE_B4, 119 }, 
	{ NOTE_A5, 119 }, 
	{ NOTE_B4, 119 }, 
	{ NOTE_G5, 119 }, 
	{ NOTE_B4, 119 }, 
	{ NOTE_FS5, 119 }, 
	{ NOTE_B4, 119 }, 
	{ NOTE_G5, 119 }, 
	{ NOTE_B4, 119 }, 
	{ NOTE_FS5, 119 }, 
	{ NOTE_B4, 119 }, 
	{ NOTE_E5, 119 }, 
	{ NOTE_B4, 119 }, 
	{ NOTE_FS5, 119 }, 
	{ NOTE_B4, 119 }, 
	{ NOTE_G5, 119 }, 
	{ NOTE_B4, 119 }, 
	{ NOTE_FS5, 119 }, 
	{ NOTE_B4, 119 }, 
	{ NOTE_CS5, 952 }, 
	{ NOTE_A4, 0 }, 
	{ NOTE_B4, 714 }, 
	{ NOTE_B4, 79 }, 
	{ NOTE_D5, 79 }, 
	{ NOTE_C5, 80 }, 
	{ NOTE_A5, 119 }, 
	{ NOTE_GS5, 119 }, 
	{ NOTE_FS5, 119 }, 
	{ NOTE_E5, 119 }, 
	{ NOTE_GS5, 119 }, 
	{ NOTE_FS5, 119 }, 
	{ NOTE_E5, 119 }, 
	{ NOTE_E5, 198 }, 
	{ NOTE_E5, 79 }, 
	{ NOTE_D5, 79 }, 
	{ NOTE_B4, 119 }, 
	{ NOTE_E5, 119 }, 
	{ NOTE_D5, 119 }, 
	{ NOTE_B4, 119 }, 
	{ NOTE_A4, 119 }, 
	{ NOTE_FS4, 120 }, 
	{ NOTE_D4, 595 }, 
	{ NOTE_B3, 119 }, 
	{ NOTE_A3, 238 }, 
	{ NOTE_FS5, 159 }, 
	{ NOTE_F5, 159 }, 
	{ NOTE_D5, 159 }, 
	{ NOTE_E5, 238 }, 
	{ NOTE_B4, 119 }, 
	{ NOTE_AS4, 118 }, 
	{ NOTE_A4, 238 }, 
	{ NOTE_FS4, 119 }, 
	{ NOTE_F4, 119 }, 
	{ NOTE_E4, 239 }, 
	{ NOTE_E4, 237 }, 
	{ NOTE_G4, 0 }, 
	{ NOTE_B5, 238 }, 
	{ NOTE_D6, 119 }, 
	{ NOTE_E6, 119 }, 
	{ NOTE_E6, 318 }, 
	{ NOTE_D6, 158 }, 
	{ NOTE_A6, 952 }, 
	{ NOTE_A3, 238 }, 
	{ NOTE_C4, 119 }, 
	{ NOTE_C4, 119 }, 
	{ NOTE_REST, 119 }, 
	{ NOTE_A3, 119 }, 
	{ NOTE_A3, 238 }, 
	{ NOTE_C4, 119 }, 
	{ NOTE_B3, 119 }, 
	{ NOTE_A3, 238 }, 
	{ NOTE_A4, 238 }, 
	{ NOTE_A4, 238 }, 
	{ NOTE_A3, 238 }, 
	{ NOTE_C4, 119 }, 
	{ NOTE_C4, 119 }, 
	{ NOTE_REST, 119 }, 
	{ NOTE_A3, 119 }, 
	{ NOTE_A3, 238 }, 
	{ NOTE_C4, 119 }, 
	{ NOTE_B3, 119 }, 
	{ NOTE_A3, 119 }, 
	{ NOTE_G3, 119 }, 
	{ NOTE_E4, 238 }, 
	{ NOTE_E4, 238 }, 
	{ NOTE_A3, 238 }, 
	{ NOTE_C4, 119 }, 
	{ NOTE_C4, 119 }, 
	{ NOTE_REST, 119 }, 
	{ NOTE_A3, 119 }, 
	{ NOTE_A3, 238 }, 
	{ NOTE_C4, 119 }, 
	{ NOTE_B3, 119 }, 
	{ NOTE_A3, 238 }, 
	{ NOTE_A4, 238 }, 
	{ NOTE_A4, 238 }, 
	{ NOTE_A3, 238 }, 
	{ NOTE_C4, 119 }, 
	{ NOTE_C4, 119 }, 
	{ NOTE_REST, 119 }, 
	{ NOTE_A3, 119 }, 
	{ NOTE_A3, 238 }, 
	{ NOTE_C4, 119 }, 
	{ NOTE_B3, 119 }, 
	{ NOTE_A3, 119 }, 
	{ NOTE_G3, 119 }, 
	{ NOTE_E4, 119 }, 
	{ NOTE_REST, 119 }, 
	{ NOTE_REST, 238 }, 
	{ NOTE_A3, 238 }, 
	{ NOTE_C4, 119 }, 
	{ NOTE_C4, 119 }, 
	{ NOTE_REST, 119 }, 
	{ NOTE_A3, 119 }, 
	{ NOTE_A3, 238 }, 
	{ NOTE_C4, 119 }, 
	{ NOTE_B3, 119 }, 
	{ NOTE_A3, 238 }, 
	{ NOTE_A4, 238 }, 
	{ NOTE_A4, 238 }, 
	{ NOTE_A3, 238 }, 
	{ NOTE_C4, 119 }, 
	{ NOTE_C4, 119 }, 
	{ NOTE_REST, 119 }, 
	{ NOTE_A3, 119 }, 
	{ NOTE_A3, 238 }, 
	{ NOTE_C4, 119 }, 
	{ NOTE_B3, 119 }, 
	{ NOTE_A3, 119 }, 
	{ NOTE_G3, 119 }, 
	{ NOTE_E4, 238 }, 
	{ NOTE_E4, 238 }, 
	{ NOTE_A3, 238 }, 
	{ NOTE_C4, 119 }, 
	{ NOTE_C4, 119 }, 
	{ NOTE_REST, 119 }, 
	{ NOTE_A3, 119 }, 
	{ NOTE_A3, 238 }, 
	{ NOTE_C4, 119 }, 
	{ NOTE_B3, 119 }, 
	{ NOTE_A3, 238 }, 
	{ NOTE_A4, 238 }, 
	{ NOTE_A4, 238 }, 
	{ NOTE_A3, 238 }, 
	{ NOTE_C4, 119 }, 
	{ NOTE_C4, 119 }, 
	{ NOTE_REST, 119 }, 
	{ NOTE_A3, 119 }, 
	{ NOTE_A3, 238 }, 
	{ NOTE_C4, 119 }, 
	{ NOTE_B3, 119 }, 
	{ NOTE_A3, 119 }, 
	{ NOTE_G3, 119 }, 
	{ NOTE_E4, 119 }, 
	{ NOTE_REST, 119 }, 
	{ NOTE_REST, 238 }, 
	{ NOTE_B4, 357 }, 
	{ NOTE_CS5, 357 }, 
	{ NOTE_D5, 238 }, 
	{ NOTE_E5, 357 }, 
	{ NOTE_D5, 357 }, 
	{ NOTE_CS5, 238 }, 
	{ NOTE_B4, 357 }, 
	{ NOTE_D5, 357 }, 
	{ NOTE_CS5, 238 }, 
	{ NOTE_A4, 357 }, 
	{ NOTE_CS5, 357 }, 
	{ NOTE_A4, 238 }, 
	{ NOTE_B4, 357 }, 
	{ NOTE_CS5, 357 }, 
	{ NOTE_D5, 238 }, 
	{ NOTE_E5, 357 }, 
	{ NOTE_D5, 357 }, 
	{ NOTE_CS5, 238 }, 
	{ NOTE_B4, 357 }, 
	{ NOTE_D5, 357 }, 
	{ NOTE_CS5, 238 }, 
	{ NOTE_A4, 952 }, 
	{ NOTE_B4, 357 }, 
	{ NOTE_CS5, 357 }, 
	{ NOTE_D5, 238 }, 
	{ NOTE_E5, 357 }, 
	{ NOTE_D5, 357 }, 
	{ NOTE_CS5, 238 }, 
	{ NOTE_B4, 357 }, 
	{ NOTE_D5, 357 }, 
	{ NOTE_CS5, 238 }, 
	{ NOTE_A4, 357 }, 
	{ NOTE_CS5, 357 }, 
	{ NOTE_A4, 238 }, 
	{ NOTE_B4, 357 }, 
	{ NOTE_CS5, 357 }, 
	{ NOTE_D5, 238 }, 
	{ NOTE_E5, 357 }, 
	{ NOTE_D5, 357 }, 
	{ NOTE_CS5, 238 }, 
	{ NOTE_B4, 357 }, 
	{ NOTE_D5, 357 }, 
	{ NOTE_CS5, 238 }, 
	{ NOTE_A4, 952 }, 
	{ NOTE_E4, 357 }, 
	{ NOTE_FS4, 357 }, 
	{ NOTE_G4, 238 }, 
	{ NOTE_A4, 357 }, 
	{ NOTE_G4, 357 }, 
	{ NOTE_FS4, 238 }, 
	{ NOTE_E4, 357 }, 
	{ NOTE_G4, 357 }, 
	{ NOTE_FS4, 238 }, 
	{ NOTE_D4, 357 }, 
	{ NOTE_FS4, 357 }, 
	{ NOTE_D4, 238 }, 
	{ NOTE_E4, 357 }, 
	{ NOTE_FS4, 357 }, 
	{ NOTE_G4, 238 }, 
	{ NOTE_A4, 357 }, 
	{ NOTE_G4, 357 }, 
	{ NOTE_FS4, 238 }, 
	{ NOTE_E4, 357 }, 
	{ NOTE_G4, 357 }, 
	{ NOTE_FS4, 238 }, 
	{ NOTE_D4, 952 }, 
	{ NOTE_E4, 357 }, 
	{ NOTE_FS4, 357 }, 
	{ NOTE_G4, 238 }, 
	{ NOTE_A4, 357 }, 
	{ NOTE_G4, 357 }, 
	{ NOTE_FS4, 238 }, 
	{ NOTE_E4, 357 }, 
	{ NOTE_G4, 357 }, 
	{ NOTE_FS4, 238 }, 
	{ NOTE_D4, 357 }, 
	{ NOTE_FS4, 357 }, 
	{ NOTE_D4, 238 }, 
	{ NOTE_E4, 357 }, 
	{ NOTE_FS4, 357 }, 
	{ NOTE_G4, 238 }, 
	{ NOTE_A4, 357 }, 
	{ NOTE_G4, 357 }, 
	{ NOTE_FS4, 238 }, 
	{ NOTE_E4, 357 }, 
	{ NOTE_G4, 357 }, 
	{ NOTE_FS4, 238 }, 
	{ NOTE_D4, 952 }, 
	{ NOTE_D4, 119 }, 
	{ NOTE_E4, 119 }, 
	{ NOTE_REST, 119 }, 
	{ NOTE_E4, 119 }, 
	{ NOTE_REST, 119 }, 
	{ NOTE_E4, 119 }, 
	{ NOTE_E4, 238 }, 
	{ NOTE_G4, 119 }, 
	{ NOTE_E4, 119 }, 
	{ NOTE_REST, 119 }, 
	{ NOTE_E4, 119 }, 
	{ NOTE_REST, 119 }, 
	{ NOTE_E4, 119 }, 
	{ NOTE_E4, 238 }, 
	{ NOTE_A4, 119 }, 
	{ NOTE_E4, 119 }, 
	{ NOTE_REST, 119 }, 
	{ NOTE_E4, 119 }, 
	{ NOTE_REST, 119 }, 
	{ NOTE_E4, 119 }, 
	{ NOTE_E4, 238 }, 
	{ NOTE_C5, 119 }, 
	{ NOTE_B4, 119 }, 
	{ NOTE_A4, 119 }, 
	{ NOTE_G4, 119 }, 
	{ NOTE_B4, 119 }, 
	{ NOTE_A4, 119 }, 
	{ NOTE_G4, 119 }, 
	{ NOTE_D4, 119 }, 
	{ NOTE_D4, 119 }, 
	{ NOTE_E4, 119 }, 
	{ NOTE_REST, 119 }, 
	{ NOTE_E4, 119 }, 
	{ NOTE_REST, 119 }, 
	{ NOTE_E4, 119 }, 
	{ NOTE_E4, 238 }, 
	{ NOTE_G4, 119 }, 
	{ NOTE_E4, 119 }, 
	{ NOTE_REST, 119 }, 
	{ NOTE_E4, 119 }, 
	{ NOTE_REST, 119 }, 
	{ NOTE_E4, 119 }, 
	{ NOTE_E4, 238 }, 
	{ NOTE_A4, 119 }, 
	{ NOTE_E4, 119 }, 
	{ NOTE_REST, 119 }, 
	{ NOTE_E4, 119 }, 
	{ NOTE_REST, 119 }, 
	{ NOTE_E4, 119 }, 
	{ NOTE_E4, 238 }, 
	{ NOTE_C5, 119 }, 
	{ NOTE_B4, 119 }, 
	{ NOTE_A4, 119 }, 
	{ NOTE_G4, 119 }, 
	{ NOTE_A4, 476 }, 
	{ NOTE_D4, 119 }, 
	{ NOTE_E4, 119 }, 
	{ NOTE_REST, 119 }, 
	{ NOTE_E4, 119 }, 
	{ NOTE_REST, 119 }, 
	{ NOTE_E4, 119 }, 
	{ NOTE_E4, 238 }, 
	{ NOTE_G4, 119 }, 
	{ NOTE_E4, 119 }, 
	{ NOTE_REST, 119 }, 
	{ NOTE_E4, 119 }, 
	{ NOTE_REST, 119 }, 
	{ NOTE_E4, 119 }, 
	{ NOTE_E4, 238 }, 
	{ NOTE_A4, 119 }, 
	{ NOTE_E4, 119 }, 
	{ NOTE_REST, 119 }, 
	{ NOTE_E4, 119 }, 
	{ NOTE_REST, 119 }, 
	{ NOTE_E4, 119 }, 
	{ NOTE_E4, 238 }, 
	{ NOTE_C5, 119 }, 
	{ NOTE_B4, 119 }, 
	{ NOTE_A4, 119 }, 
	{ NOTE_G4, 119 }, 
	{ NOTE_B4, 119 }, 
	{ NOTE_A4, 119 }, 
	{ NOTE_G4, 119 }, 
	{ NOTE_D4, 119 }, 
	{ NOTE_D4, 119 }, 
	{ NOTE_E4, 119 }, 
	{ NOTE_REST, 119 }, 
	{ NOTE_E4, 119 }, 
	{ NOTE_REST, 119 }, 
	{ NOTE_E4, 119 }, 
	{ NOTE_E4, 238 }, 
	{ NOTE_G4, 119 }, 
	{ NOTE_E4, 119 }, 
	{ NOTE_REST, 119 }, 
	{ NOTE_E4, 119 }, 
	{ NOTE_REST, 119 }, 
	{ NOTE_E4, 119 }, 
	{ NOTE_E4, 238 }, 
	{ NOTE_A4, 119 }, 
	{ NOTE_E4, 119 }, 
	{ NOTE_REST, 119 }, 
	{ NOTE_E4, 119 }, 
	{ NOTE_REST, 119 }, 
	{ NOTE_E4, 119 }, 
	{ NOTE_E4, 238 }, 
	{ NOTE_C5, 119 }, 
	{ NOTE_B4, 119 }, 
	{ NOTE_A4, 119 }, 
	{ NOTE_G4, 119 }, 
	{ NOTE_A4, 476 }, 
	{ NOTE_B4, 1904 }, 
	{ NOTE_G4, 952 }, 
	{ NOTE_A4, 952 }, 
	{ NOTE_B4, 1904 }, 
	{ NOTE_G4, 952 }, 
	{ NOTE_A4, 952 }, 
	{ NOTE_B4, 1904 }, 
	{ NOTE_G4, 952 }, 
	{ NOTE_A4, 952 }, 
	{ NOTE_B4, 1904 }, 
	{ NOTE_G4, 952 }, 
	{ NOTE_A4, 952 }, 
	{ NOTE_D5, 1904 }, 
	{ NOTE_AS4, 952 }, 
	{ NOTE_C5, 952 }, 
	{ NOTE_REST, 476 }, 
	{ NOTE_G5, 159 }, 
	{ NOTE_C6, 5077 }, 
	{ NOTE_AS4, 952 }, 
	{ NOTE_C5, 952 }, 
	{ NOTE_D5, 1904 }, 
	{ NOTE_AS4, 952 }, 
	{ NOTE_C5, 952 }, 
	{ NOTE_C5, 357 }, 
	{ NOTE_B4, 119 }, 
	{ NOTE_C5, 119 }, 
	{ NOTE_B4, 119 }, 
	{ NOTE_C5, 119 }, 
	{ NOTE_B4, 119 }, 
	{ NOTE_E5, 238 }, 
	{ NOTE_E5, 238 }, 
	{ NOTE_C5, 476 }, 
	{ NOTE_C5, 357 }, 
	{ NOTE_B4, 119 }, 
	{ NOTE_C5, 119 }, 
	{ NOTE_B4, 119 }, 
	{ NOTE_C5, 119 }, 
	{ NOTE_B4, 119 }, 
	{ NOTE_B4, 119 }, 
	{ NOTE_D5, 119 }, 
	{ NOTE_D5, 119 }, 
	{ NOTE_D5, 119 }, 
	{ NOTE_E5, 119 }, 
	{ NOTE_D5, 119 }, 
	{ NOTE_C5, 119 }, 
	{ NOTE_B4, 119 }, 
	{ NOTE_C5, 357 }, 
	{ NOTE_B4, 119 }, 
	{ NOTE_C5, 119 }, 
	{ NOTE_B4, 119 }, 
	{ NOTE_C5, 119 }, 
	{ NOTE_B4, 119 }, 
	{ NOTE_E5, 238 }, 
	{ NOTE_E5, 238 }, 
	{ NOTE_C5, 476 }, 
	{ NOTE_C5, 357 }, 
	{ NOTE_B4, 119 }, 
	{ NOTE_C5, 119 }, 
	{ NOTE_B4, 119 }, 
	{ NOTE_C5, 119 }, 
	{ NOTE_B4, 119 }, 
	{ NOTE_B4, 119 }, 
	{ NOTE_D5, 119 }, 
	{ NOTE_D5, 119 }, 
	{ NOTE_D5, 119 }, 
	{ NOTE_E5, 119 }, 
	{ NOTE_D5, 119 }, 
	{ NOTE_C5, 119 }, 
	{ NOTE_B4, 119 }, 
	{ NOTE_C5, 357 }, 
	{ NOTE_B4, 119 }, 
	{ NOTE_C5, 119 }, 
	{ NOTE_B4, 119 }, 
	{ NOTE_C5, 119 }, 
	{ NOTE_B4, 119 }, 
	{ NOTE_E5, 238 }, 
	{ NOTE_E5, 238 }, 
	{ NOTE_C5, 476 }, 
	{ NOTE_C5, 357 }, 
	{ NOTE_B4, 119 }, 
	{ NOTE_C5, 119 }, 
	{ NOTE_B4, 119 }, 
	{ NOTE_C5, 119 }, 
	{ NOTE_B4, 119 }, 
	{ NOTE_B4, 119 }, 
	{ NOTE_D5, 119 }, 
	{ NOTE_D5, 119 }, 
	{ NOTE_D5, 119 }, 
	{ NOTE_E5, 119 }, 
	{ NOTE_D5, 119 }, 
	{ NOTE_C5, 119 }, 
	{ NOTE_B4, 119 }, 
	{ NOTE_C5, 450 }, 
	{ NOTE_B4, 150 }, 
	{ NOTE_C5, 150 }, 
	{ NOTE_B4, 150 }, 
	{ NOTE_C5, 150 }, 
	{ NOTE_B4, 150 }, 
	{ NOTE_E5, 300 }, 
	{ NOTE_E5, 300 }, 
	{ NOTE_C5, 600 }, 
	{ NOTE_C5, 562 }, 
	{ NOTE_B4, 188 }, 
	{ NOTE_C5, 188 }, 
	{ NOTE_B4, 188 }, 
	{ NOTE_C5, 188 }, 
	{ NOTE_B4, 186 }, 
	{ NOTE_B4, 188 }, 
	{ NOTE_B4, 0 }, 
	{ NOTE_D5, 188 }, 
	{ NOTE_D5, 188 }, 
	{ NOTE_D5, 188 }, 
	{ NOTE_E5, 188 }, 
	{ NOTE_D5, 62 }, 
	{ NOTE_E5, 62 }, 
	{ NOTE_D5, 62 }, 
	{ NOTE_C5, 188 }, 
	{ NOTE_B4, 186 }, 
	{ NOTE_G5, 562 }, 
	{ NOTE_F5, 62 }, 
	{ NOTE_G5, 62 }, 
	{ NOTE_F5, 62 }, 
	{ NOTE_E5, 375 }, 
	{ NOTE_FS5, 377 }, 
	{ NOTE_E5, 375 }, 
	{ NOTE_F5, 375 }, 
	{ NOTE_E5, 375 }, 
	{ NOTE_D5, 375 }, 
	{ NOTE_C5, 750 }, 
	{ NOTE_E4, 375 }, 
	{ NOTE_REST, 375 }, 
	{ NOTE_REST, 1500 }, 
	{ NOTE_REST, 1500 }, 
};
const uint16_t NUM_OF_NOTES1 = sizeof(melody1)/sizeof(melody1[0]);

const Note melody2[] PROGMEM = {
	{ NOTE_REST, 750 }, 
	{ NOTE_REST, 375 }, 
	{ NOTE_REST, 188 }, 
	{ NOTE_E4, 187 }, 
	{ NOTE_FS4, 188 }, 
	{ NOTE_GS4, 188 }, 
	{ NOTE_FS4, 188 }, 
	{ NOTE_A4, 188 }, 
	{ NOTE_REST, 188 }, 
	{ NOTE_GS4, 188 }, 
	{ NOTE_FS4, 188 }, 
	{ NOTE_E4, 184 }, 
	{ NOTE_FS4, 188 }, 
	{ NOTE_GS4, 188 }, 
	{ NOTE_FS4, 188 }, 
	{ NOTE_A4, 188 }, 
	{ NOTE_REST, 188 }, 
	{ NOTE_GS4, 188 }, 
	{ NOTE_REST, 188 }, 
	{ NOTE_E4, 184 }, 
	{ NOTE_FS4, 188 }, 
	{ NOTE_GS4, 188 }, 
	{ NOTE_FS4, 188 }, 
	{ NOTE_A4, 188 }, 
	{ NOTE_REST, 188 }, 
	{ NOTE_GS4, 188 }, 
	{ NOTE_REST, 188 }, 
	{ NOTE_E4, 184 }, 
	{ NOTE_FS4, 188 }, 
	{ NOTE_GS4, 188 }, 
	{ NOTE_FS4, 188 }, 
	{ NOTE_A4, 188 }, 
	{ NOTE_REST, 188 }, 
	{ NOTE_GS4, 188 }, 
	{ NOTE_REST, 188 }, 
	{ NOTE_E4, 184 }, 
	{ NOTE_FS4, 188 }, 
	{ NOTE_GS4, 188 }, 
	{ NOTE_FS4, 188 }, 
	{ NOTE_A4, 188 }, 
	{ NOTE_REST, 188 }, 
	{ NOTE_GS4, 188 }, 
	{ NOTE_FS4, 188 }, 
	{ NOTE_E4, 184 }, 
	{ NOTE_FS4, 188 }, 
	{ NOTE_GS4, 188 }, 
	{ NOTE_FS4, 188 }, 
	{ NOTE_A4, 188 }, 
	{ NOTE_REST, 188 }, 
	{ NOTE_GS4, 188 }, 
	{ NOTE_REST, 188 }, 
	{ NOTE_E4, 184 }, 
	{ NOTE_FS4, 188 }, 
	{ NOTE_GS4, 188 }, 
	{ NOTE_FS4, 188 }, 
	{ NOTE_A4, 188 }, 
	{ NOTE_REST, 188 }, 
	{ NOTE_GS4, 188 }, 
	{ NOTE_REST, 188 }, 
	{ NOTE_E4, 184 }, 
	{ NOTE_FS4, 188 }, 
	{ NOTE_GS4, 188 }, 
	{ NOTE_FS4, 188 }, 
	{ NOTE_A4, 188 }, 
	{ NOTE_REST, 188 }, 
	{ NOTE_GS4, 188 }, 
	{ NOTE_REST, 188 }, 
	{ NOTE_E4, 184 }, 
	{ NOTE_FS4, 188 }, 
	{ NOTE_GS4, 188 }, 
	{ NOTE_FS4, 188 }, 
	{ NOTE_A4, 188 }, 
	{ NOTE_REST, 188 }, 
	{ NOTE_GS4, 188 }, 
	{ NOTE_FS4, 188 }, 
	{ NOTE_E4, 184 }, 
	{ NOTE_FS4, 188 }, 
	{ NOTE_GS4, 188 }, 
	{ NOTE_FS4, 188 }, 
	{ NOTE_A4, 188 }, 
	{ NOTE_REST, 188 }, 
	{ NOTE_GS4, 188 }, 
	{ NOTE_REST, 188 }, 
	{ NOTE_E4, 184 }, 
	{ NOTE_FS4, 188 }, 
	{ NOTE_GS4, 188 }, 
	{ NOTE_FS4, 188 }, 
	{ NOTE_A4, 188 }, 
	{ NOTE_REST, 188 }, 
	{ NOTE_GS4, 188 }, 
	{ NOTE_REST, 188 }, 
	{ NOTE_E4, 184 }, 
	{ NOTE_FS4, 188 }, 
	{ NOTE_GS4, 188 }, 
	{ NOTE_FS4, 188 }, 
	{ NOTE_A4, 188 }, 
	{ NOTE_REST, 188 }, 
	{ NOTE_GS4, 188 }, 
	{ NOTE_REST, 188 }, 
	{ NOTE_E4, 184 }, 
	{ NOTE_FS4, 188 }, 
	{ NOTE_GS4, 188 }, 
	{ NOTE_FS4, 188 }, 
	{ NOTE_A4, 188 }, 
	{ NOTE_REST, 188 }, 
	{ NOTE_GS4, 188 }, 
	{ NOTE_FS4, 188 }, 
	{ NOTE_E4, 184 }, 
	{ NOTE_FS4, 188 }, 
	{ NOTE_GS4, 188 }, 
	{ NOTE_FS4, 188 }, 
	{ NOTE_A4, 188 }, 
	{ NOTE_REST, 188 }, 
	{ NOTE_GS4, 188 }, 
	{ NOTE_REST, 188 }, 
	{ NOTE_E4, 184 }, 
	{ NOTE_FS4, 188 }, 
	{ NOTE_GS4, 188 }, 
	{ NOTE_FS4, 188 }, 
	{ NOTE_A4, 188 }, 
	{ NOTE_REST, 188 }, 
	{ NOTE_GS4, 188 }, 
	{ NOTE_REST, 188 }, 
	{ NOTE_E4, 184 }, 
	{ NOTE_FS4, 188 }, 
	{ NOTE_GS4, 188 }, 
	{ NOTE_FS4, 188 }, 
	{ NOTE_A4, 936 }, 
	{ NOTE_A4, 391 }, 
	{ NOTE_G4, 130 }, 
	{ NOTE_A4, 130 }, 
	{ NOTE_G4, 130 }, 
	{ NOTE_A4, 130 }, 
	{ NOTE_G4, 132 }, 
	{ NOTE_C5, 261 }, 
	{ NOTE_C5, 261 }, 
	{ NOTE_A4, 521 }, 
	{ NOTE_A4, 391 }, 
	{ NOTE_G4, 130 }, 
	{ NOTE_A4, 130 }, 
	{ NOTE_G4, 130 }, 
	{ NOTE_A4, 130 }, 
	{ NOTE_G4, 132 }, 
	{ NOTE_G4, 130 }, 
	{ NOTE_B4, 130 }, 
	{ NOTE_B4, 130 }, 
	{ NOTE_B4, 130 }, 
	{ NOTE_C5, 130 }, 
	{ NOTE_B4, 130 }, 
	{ NOTE_A4, 130 }, 
	{ NOTE_G4, 133 }, 
	{ NOTE_A4, 357 }, 
	{ NOTE_G4, 119 }, 
	{ NOTE_A4, 119 }, 
	{ NOTE_G4, 119 }, 
	{ NOTE_A4, 119 }, 
	{ NOTE_G4, 119 }, 
	{ NOTE_C5, 238 }, 
	{ NOTE_C5, 238 }, 
	{ NOTE_A4, 476 }, 
	{ NOTE_A4, 357 }, 
	{ NOTE_G4, 119 }, 
	{ NOTE_A4, 119 }, 
	{ NOTE_G4, 119 }, 
	{ NOTE_A4, 119 }, 
	{ NOTE_G4, 119 }, 
	{ NOTE_G4, 119 }, 
	{ NOTE_B4, 119 }, 
	{ NOTE_B4, 119 }, 
	{ NOTE_B4, 119 }, 
	{ NOTE_C5, 119 }, 
	{ NOTE_B4, 119 }, 
	{ NOTE_A4, 119 }, 
	{ NOTE_G4, 119 }, 
	{ NOTE_A4, 357 }, 
	{ NOTE_G4, 119 }, 
	{ NOTE_A4, 119 }, 
	{ NOTE_G4, 119 }, 
	{ NOTE_A4, 119 }, 
	{ NOTE_G4, 119 }, 
	{ NOTE_C5, 238 }, 
	{ NOTE_C5, 238 }, 
	{ NOTE_A4, 476 }, 
	{ NOTE_A4, 357 }, 
	{ NOTE_G4, 119 }, 
	{ NOTE_A4, 119 }, 
	{ NOTE_G4, 119 }, 
	{ NOTE_A4, 119 }, 
	{ NOTE_G4, 119 }, 
	{ NOTE_G4, 119 }, 
	{ NOTE_B4, 119 }, 
	{ NOTE_B4, 119 }, 
	{ NOTE_B4, 119 }, 
	{ NOTE_C5, 119 }, 
	{ NOTE_B4, 119 }, 
	{ NOTE_A4, 119 }, 
	{ NOTE_G4, 119 }, 
	{ NOTE_A4, 357 }, 
	{ NOTE_G4, 119 }, 
	{ NOTE_A4, 119 }, 
	{ NOTE_G4, 119 }, 
	{ NOTE_A4, 119 }, 
	{ NOTE_G4, 119 }, 
	{ NOTE_C5, 238 }, 
	{ NOTE_C5, 238 }, 
	{ NOTE_A4, 476 }, 
	{ NOTE_A4, 357 }, 
	{ NOTE_G4, 119 }, 
	{ NOTE_A4, 119 }, 
	{ NOTE_G4, 119 }, 
	{ NOTE_A4, 119 }, 
	{ NOTE_G4, 119 }, 
	{ NOTE_G4, 119 }, 
	{ NOTE_B4, 119 }, 
	{ NOTE_B4, 119 }, 
	{ NOTE_B4, 119 }, 
	{ NOTE_C5, 119 }, 
	{ NOTE_B4, 119 }, 
	{ NOTE_A4, 119 }, 
	{ NOTE_G4, 119 }, 
	{ NOTE_REST, 357 }, 
	{ NOTE_REST, 357 }, 
	{ NOTE_REST, 238 }, 
	{ NOTE_REST, 357 }, 
	{ NOTE_REST, 357 }, 
	{ NOTE_REST, 238 }, 
	{ NOTE_REST, 357 }, 
	{ NOTE_REST, 357 }, 
	{ NOTE_REST, 238 }, 
	{ NOTE_REST, 357 }, 
	{ NOTE_REST, 357 }, 
	{ NOTE_REST, 238 }, 
	{ NOTE_REST, 357 }, 
	{ NOTE_REST, 357 }, 
	{ NOTE_REST, 238 }, 
	{ NOTE_REST, 357 }, 
	{ NOTE_REST, 357 }, 
	{ NOTE_REST, 238 }, 
	{ NOTE_REST, 357 }, 
	{ NOTE_REST, 357 }, 
	{ NOTE_REST, 238 }, 
	{ NOTE_REST, 952 }, 
	{ NOTE_REST, 357 }, 
	{ NOTE_REST, 357 }, 
	{ NOTE_REST, 238 }, 
	{ NOTE_REST, 357 }, 
	{ NOTE_REST, 357 }, 
	{ NOTE_REST, 238 }, 
	{ NOTE_REST, 357 }, 
	{ NOTE_REST, 357 }, 
	{ NOTE_REST, 238 }, 
	{ NOTE_REST, 357 }, 
	{ NOTE_REST, 357 }, 
	{ NOTE_REST, 238 }, 
	{ NOTE_REST, 357 }, 
	{ NOTE_REST, 357 }, 
	{ NOTE_REST, 238 }, 
	{ NOTE_REST, 357 }, 
	{ NOTE_REST, 357 }, 
	{ NOTE_REST, 238 }, 
	{ NOTE_REST, 357 }, 
	{ NOTE_REST, 357 }, 
	{ NOTE_REST, 238 }, 
	{ NOTE_REST, 952 }, 
	{ NOTE_REST, 357 }, 
	{ NOTE_REST, 357 }, 
	{ NOTE_REST, 238 }, 
	{ NOTE_REST, 357 }, 
	{ NOTE_REST, 357 }, 
	{ NOTE_REST, 238 }, 
	{ NOTE_REST, 357 }, 
	{ NOTE_REST, 357 }, 
	{ NOTE_REST, 238 }, 
	{ NOTE_REST, 357 }, 
	{ NOTE_REST, 357 }, 
	{ NOTE_REST, 238 }, 
	{ NOTE_REST, 357 }, 
	{ NOTE_REST, 357 }, 
	{ NOTE_REST, 238 }, 
	{ NOTE_REST, 357 }, 
	{ NOTE_REST, 357 }, 
	{ NOTE_REST, 238 }, 
	{ NOTE_REST, 357 }, 
	{ NOTE_REST, 357 }, 
	{ NOTE_REST, 238 }, 
	{ NOTE_REST, 952 }, 
	{ NOTE_REST, 357 }, 
	{ NOTE_REST, 357 }, 
	{ NOTE_REST, 238 }, 
	{ NOTE_REST, 357 }, 
	{ NOTE_REST, 357 }, 
	{ NOTE_REST, 238 }, 
	{ NOTE_REST, 357 }, 
	{ NOTE_REST, 357 }, 
	{ NOTE_REST, 238 }, 
	{ NOTE_REST, 357 }, 
	{ NOTE_REST, 357 }, 
	{ NOTE_REST, 238 }, 
	{ NOTE_REST, 357 }, 
	{ NOTE_REST, 357 }, 
	{ NOTE_REST, 238 }, 
	{ NOTE_REST, 357 }, 
	{ NOTE_REST, 357 }, 
	{ NOTE_REST, 238 }, 
	{ NOTE_REST, 357 }, 
	{ NOTE_REST, 357 }, 
	{ NOTE_REST, 238 }, 
	{ NOTE_REST, 952 }, 
	{ NOTE_D4, 119 }, 
	{ NOTE_E4, 119 }, 
	{ NOTE_REST, 119 }, 
	{ NOTE_E4, 119 }, 
	{ NOTE_REST, 119 }, 
	{ NOTE_E4, 119 }, 
	{ NOTE_E4, 238 }, 
	{ NOTE_G4, 119 }, 
	{ NOTE_E4, 119 }, 
	{ NOTE_REST, 119 }, 
	{ NOTE_E4, 119 }, 
	{ NOTE_REST, 119 }, 
	{ NOTE_E4, 119 }, 
	{ NOTE_E4, 238 }, 
	{ NOTE_A4, 119 }, 
	{ NOTE_E4, 119 }, 
	{ NOTE_REST, 119 }, 
	{ NOTE_E4, 119 }, 
	{ NOTE_REST, 119 }, 
	{ NOTE_E4, 119 }, 
	{ NOTE_E4, 238 }, 
	{ NOTE_C5, 119 }, 
	{ NOTE_B4, 119 }, 
	{ NOTE_A4, 119 }, 
	{ NOTE_G4, 119 }, 
	{ NOTE_B4, 119 }, 
	{ NOTE_A4, 119 }, 
	{ NOTE_G4, 119 }, 
	{ NOTE_D4, 119 }, 
	{ NOTE_D4, 119 }, 
	{ NOTE_E4, 119 }, 
	{ NOTE_REST, 119 }, 
	{ NOTE_E4, 119 }, 
	{ NOTE_REST, 119 }, 
	{ NOTE_E4, 119 }, 
	{ NOTE_E4, 238 }, 
	{ NOTE_G4, 119 }, 
	{ NOTE_E4, 119 }, 
	{ NOTE_REST, 119 }, 
	{ NOTE_E4, 119 }, 
	{ NOTE_REST, 119 }, 
	{ NOTE_E4, 119 }, 
	{ NOTE_E4, 238 }, 
	{ NOTE_A4, 119 }, 
	{ NOTE_E4, 119 }, 
	{ NOTE_REST, 119 }, 
	{ NOTE_E4, 119 }, 
	{ NOTE_REST, 119 }, 
	{ NOTE_E4, 119 }, 
	{ NOTE_E4, 238 }, 
	{ NOTE_C5, 119 }, 
	{ NOTE_B4, 119 }, 
	{ NOTE_A4, 119 }, 
	{ NOTE_G4, 119 }, 
	{ NOTE_A4, 476 }, 
	{ NOTE_D4, 119 }, 
	{ NOTE_E4, 119 }, 
	{ NOTE_REST, 119 }, 
	{ NOTE_E4, 119 }, 
	{ NOTE_REST, 119 }, 
	{ NOTE_E4, 119 }, 
	{ NOTE_E4, 238 }, 
	{ NOTE_G4, 119 }, 
	{ NOTE_E4, 119 }, 
	{ NOTE_REST, 119 }, 
	{ NOTE_E4, 119 }, 
	{ NOTE_REST, 119 }, 
	{ NOTE_E4, 119 }, 
	{ NOTE_E4, 238 }, 
	{ NOTE_A4, 119 }, 
	{ NOTE_E4, 119 }, 
	{ NOTE_REST, 119 }, 
	{ NOTE_E4, 119 }, 
	{ NOTE_REST, 119 }, 
	{ NOTE_E4, 119 }, 
	{ NOTE_E4, 238 }, 
	{ NOTE_C5, 119 }, 
	{ NOTE_B4, 119 }, 
	{ NOTE_A4, 119 }, 
	{ NOTE_G4, 119 }, 
	{ NOTE_B4, 119 }, 
	{ NOTE_A4, 119 }, 
	{ NOTE_G4, 119 }, 
	{ NOTE_D4, 119 }, 
	{ NOTE_D4, 119 }, 
	{ NOTE_E4, 119 }, 
	{ NOTE_REST, 119 }, 
	{ NOTE_E4, 119 }, 
	{ NOTE_REST, 119 }, 
	{ NOTE_E4, 119 }, 
	{ NOTE_E4, 238 }, 
	{ NOTE_G4, 119 }, 
	{ NOTE_E4, 119 }, 
	{ NOTE_REST, 119 }, 
	{ NOTE_E4, 119 }, 
	{ NOTE_REST, 119 }, 
	{ NOTE_E4, 119 }, 
	{ NOTE_E4, 238 }, 
	{ NOTE_A4, 119 }, 
	{ NOTE_E4, 119 }, 
	{ NOTE_REST, 119 }, 
	{ NOTE_E4, 119 }, 
	{ NOTE_REST, 119 }, 
	{ NOTE_E4, 119 }, 
	{ NOTE_E4, 238 }, 
	{ NOTE_C5, 119 }, 
	{ NOTE_B4, 119 }, 
	{ NOTE_A4, 119 }, 
	{ NOTE_G4, 119 }, 
	{ NOTE_A4, 476 }, 
	{ NOTE_E5, 1904 }, 
	{ NOTE_C5, 952 }, 
	{ NOTE_D5, 952 }, 
	{ NOTE_E5, 1904 }, 
	{ NOTE_C5, 952 }, 
	{ NOTE_D5, 952 }, 
	{ NOTE_E5, 1904 }, 
	{ NOTE_C5, 952 }, 
	{ NOTE_D5, 952 }, 
	{ NOTE_E5, 1904 }, 
	{ NOTE_C5, 952 }, 
	{ NOTE_D5, 952 }, 
	{ NOTE_G5, 1904 }, 
	{ NOTE_DS5, 952 }, 
	{ NOTE_F5, 952 }, 
	{ NOTE_G5, 1904 }, 
	{ NOTE_DS5, 952 }, 
	{ NOTE_F5, 952 }, 
	{ NOTE_G5, 1904 }, 
	{ NOTE_DS5, 952 }, 
	{ NOTE_F5, 952 }, 
	{ NOTE_G5, 1904 }, 
	{ NOTE_DS5, 952 }, 
	{ NOTE_F5, 952 }, 
	{ NOTE_A3, 238 }, 
	{ NOTE_C4, 119 }, 
	{ NOTE_C4, 119 }, 
	{ NOTE_REST, 119 }, 
	{ NOTE_A3, 119 }, 
	{ NOTE_A3, 238 }, 
	{ NOTE_C4, 119 }, 
	{ NOTE_B3, 119 }, 
	{ NOTE_A3, 238 }, 
	{ NOTE_D5, 238 }, 
	{ NOTE_D5, 238 }, 
	{ NOTE_A3, 238 }, 
	{ NOTE_C4, 119 }, 
	{ NOTE_C4, 119 }, 
	{ NOTE_REST, 119 }, 
	{ NOTE_A3, 119 }, 
	{ NOTE_A3, 238 }, 
	{ NOTE_C4, 119 }, 
	{ NOTE_B3, 119 }, 
	{ NOTE_A3, 119 }, 
	{ NOTE_G3, 119 }, 
	{ NOTE_A4, 238 }, 
	{ NOTE_A4, 238 }, 
	{ NOTE_A3, 238 }, 
	{ NOTE_C4, 119 }, 
	{ NOTE_C4, 119 }, 
	{ NOTE_REST, 119 }, 
	{ NOTE_A3, 119 }, 
	{ NOTE_A3, 238 }, 
	{ NOTE_C4, 119 }, 
	{ NOTE_B3, 119 }, 
	{ NOTE_A3, 238 }, 
	{ NOTE_D5, 238 }, 
	{ NOTE_D5, 238 }, 
	{ NOTE_A3, 238 }, 
	{ NOTE_C4, 119 }, 
	{ NOTE_C4, 119 }, 
	{ NOTE_REST, 119 }, 
	{ NOTE_A3, 119 }, 
	{ NOTE_A3, 238 }, 
	{ NOTE_C4, 119 }, 
	{ NOTE_B3, 119 }, 
	{ NOTE_A3, 119 }, 
	{ NOTE_G3, 119 }, 
	{ NOTE_A4, 119 }, 
	{ NOTE_REST, 119 }, 
	{ NOTE_REST, 238 }, 
	{ NOTE_A3, 238 }, 
	{ NOTE_C4, 119 }, 
	{ NOTE_C4, 119 }, 
	{ NOTE_REST, 119 }, 
	{ NOTE_A3, 119 }, 
	{ NOTE_A3, 238 }, 
	{ NOTE_C4, 119 }, 
	{ NOTE_B3, 119 }, 
	{ NOTE_A3, 238 }, 
	{ NOTE_D5, 238 }, 
	{ NOTE_D5, 238 }, 
	{ NOTE_A3, 238 }, 
	{ NOTE_C4, 119 }, 
	{ NOTE_C4, 119 }, 
	{ NOTE_REST, 119 }, 
	{ NOTE_A3, 119 }, 
	{ NOTE_A3, 238 }, 
	{ NOTE_C4, 119 }, 
	{ NOTE_B3, 119 }, 
	{ NOTE_A3, 119 }, 
	{ NOTE_G3, 119 }, 
	{ NOTE_A4, 238 }, 
	{ NOTE_A4, 238 }, 
	{ NOTE_A3, 238 }, 
	{ NOTE_C4, 119 }, 
	{ NOTE_C4, 119 }, 
	{ NOTE_REST, 119 }, 
	{ NOTE_A3, 119 }, 
	{ NOTE_A3, 238 }, 
	{ NOTE_C4, 119 }, 
	{ NOTE_B3, 119 }, 
	{ NOTE_A3, 238 }, 
	{ NOTE_D5, 238 }, 
	{ NOTE_D5, 238 }, 
	{ NOTE_A3, 238 }, 
	{ NOTE_C4, 119 }, 
	{ NOTE_C4, 119 }, 
	{ NOTE_REST, 119 }, 
	{ NOTE_A3, 119 }, 
	{ NOTE_A3, 238 }, 
	{ NOTE_C4, 119 }, 
	{ NOTE_B3, 119 }, 
	{ NOTE_A3, 119 }, 
	{ NOTE_G3, 119 }, 
	{ NOTE_A4, 119 }, 
	{ NOTE_REST, 119 }, 
	{ NOTE_REST, 238 }, 
	{ NOTE_D5, 357 }, 
	{ NOTE_D5, 238 }, 
	{ NOTE_D5, 119 }, 
	{ NOTE_D5, 79 }, 
	{ NOTE_D5, 79 }, 
	{ NOTE_D5, 80 }, 
	{ NOTE_D5, 79 }, 
	{ NOTE_D5, 79 }, 
	{ NOTE_D5, 79 }, 
	{ NOTE_D5, 79 }, 
	{ NOTE_D5, 79 }, 
	{ NOTE_D5, 79 }, 
	{ NOTE_D5, 79 }, 
	{ NOTE_D5, 79 }, 
	{ NOTE_D5, 79 }, 
	{ NOTE_D5, 79 }, 
	{ NOTE_D5, 79 }, 
	{ NOTE_D5, 83 }, 
	{ NOTE_D5, 79 }, 
	{ NOTE_D5, 79 }, 
	{ NOTE_D5, 79 }, 
	{ NOTE_D5, 79 }, 
	{ NOTE_D5, 79 }, 
	{ NOTE_D5, 79 }, 
	{ NOTE_D5, 79 }, 
	{ NOTE_D5, 79 }, 
	{ NOTE_D5, 79 }, 
	{ NOTE_D5, 79 }, 
	{ NOTE_D5, 79 }, 
	{ NOTE_D5, 83 }, 
	{ NOTE_D5, 635 }, 
	{ NOTE_E5, 159 }, 
	{ NOTE_G5, 1348 }, 
	{ NOTE_G5, 119 }, 
	{ NOTE_E5, 119 }, 
	{ NOTE_D5, 119 }, 
	{ NOTE_E5, 119 }, 
	{ NOTE_D5, 119 }, 
	{ NOTE_C5, 119 }, 
	{ NOTE_D5, 119 }, 
	{ NOTE_C5, 119 }, 
	{ NOTE_A4, 119 }, 
	{ NOTE_C5, 119 }, 
	{ NOTE_A4, 119 }, 
	{ NOTE_G4, 119 }, 
	{ NOTE_A4, 119 }, 
	{ NOTE_G4, 119 }, 
	{ NOTE_E4, 714 }, 
	{ NOTE_E5, 238 }, 
	{ NOTE_C6, 79 }, 
	{ NOTE_A5, 79 }, 
	{ NOTE_E5, 79 }, 
	{ NOTE_B5, 79 }, 
	{ NOTE_A5, 79 }, 
	{ NOTE_E5, 79 }, 
	{ NOTE_C6, 79 }, 
	{ NOTE_A5, 79 }, 
	{ NOTE_E5, 79 }, 
	{ NOTE_B5, 79 }, 
	{ NOTE_A5, 79 }, 
	{ NOTE_E5, 83 }, 
	{ NOTE_C6, 79 }, 
	{ NOTE_A5, 79 }, 
	{ NOTE_E5, 79 }, 
	{ NOTE_B5, 79 }, 
	{ NOTE_A5, 79 }, 
	{ NOTE_E5, 79 }, 
	{ NOTE_C6, 79 }, 
	{ NOTE_A5, 79 }, 
	{ NOTE_E5, 79 }, 
	{ NOTE_B5, 79 }, 
	{ NOTE_A5, 79 }, 
	{ NOTE_E5, 83 }, 
	{ NOTE_C6, 79 }, 
	{ NOTE_A5, 79 }, 
	{ NOTE_E5, 79 }, 
	{ NOTE_B5, 79 }, 
	{ NOTE_A5, 79 }, 
	{ NOTE_E5, 79 }, 
	{ NOTE_C6, 79 }, 
	{ NOTE_A5, 79 }, 
	{ NOTE_E5, 79 }, 
	{ NOTE_B5, 79 }, 
	{ NOTE_A5, 79 }, 
	{ NOTE_E5, 83 }, 
	{ NOTE_G5, 0 }, 
	{ NOTE_A5, 833 }, 
	{ NOTE_REST, 60 }, 
	{ NOTE_A5, 59 }, 
	{ NOTE_G5, 79 }, 
	{ NOTE_A5, 79 }, 
	{ NOTE_G5, 79 }, 
	{ NOTE_E5, 79 }, 
	{ NOTE_G5, 79 }, 
	{ NOTE_A5, 79 }, 
	{ NOTE_REST, 79 }, 
	{ NOTE_B5, 79 }, 
	{ NOTE_C6, 79 }, 
	{ NOTE_B5, 60 }, 
	{ NOTE_A5, 119 }, 
	{ NOTE_B5, 62 }, 
	{ NOTE_D6, 159 }, 
	{ NOTE_E6, 79 }, 
	{ NOTE_F6, 79 }, 
	{ NOTE_E6, 79 }, 
	{ NOTE_G6, 2460 }, 
	{ NOTE_B4, 1904 }, 
	{ NOTE_G4, 952 }, 
	{ NOTE_A4, 952 }, 
	{ NOTE_B4, 1904 }, 
	{ NOTE_D5, 952 }, 
	{ NOTE_E5, 952 }, 
	{ NOTE_B4, 1904 }, 
	{ NOTE_G4, 952 }, 
	{ NOTE_A4, 952 }, 
	{ NOTE_B4, 1904 }, 
	{ NOTE_D5, 952 }, 
	{ NOTE_E5, 952 }, 
	{ NOTE_A3, 238 }, 
	{ NOTE_C4, 119 }, 
	{ NOTE_C4, 119 }, 
	{ NOTE_REST, 119 }, 
	{ NOTE_A3, 119 }, 
	{ NOTE_A3, 238 }, 
	{ NOTE_C4, 119 }, 
	{ NOTE_B3, 119 }, 
	{ NOTE_A3, 238 }, 
	{ NOTE_D5, 238 }, 
	{ NOTE_D5, 238 }, 
	{ NOTE_A3, 238 }, 
	{ NOTE_C4, 119 }, 
	{ NOTE_C4, 119 }, 
	{ NOTE_REST, 119 }, 
	{ NOTE_A3, 119 }, 
	{ NOTE_A3, 238 }, 
	{ NOTE_C4, 119 }, 
	{ NOTE_B3, 119 }, 
	{ NOTE_A3, 119 }, 
	{ NOTE_G3, 119 }, 
	{ NOTE_A4, 238 }, 
	{ NOTE_A4, 238 }, 
	{ NOTE_A3, 238 }, 
	{ NOTE_C4, 119 }, 
	{ NOTE_C4, 119 }, 
	{ NOTE_REST, 119 }, 
	{ NOTE_A3, 119 }, 
	{ NOTE_A3, 238 }, 
	{ NOTE_C4, 119 }, 
	{ NOTE_B3, 119 }, 
	{ NOTE_A3, 238 }, 
	{ NOTE_D5, 238 }, 
	{ NOTE_D5, 238 }, 
	{ NOTE_A3, 238 }, 
	{ NOTE_C4, 119 }, 
	{ NOTE_C4, 119 }, 
	{ NOTE_REST, 119 }, 
	{ NOTE_A3, 119 }, 
	{ NOTE_A3, 238 }, 
	{ NOTE_C4, 119 }, 
	{ NOTE_B3, 119 }, 
	{ NOTE_A3, 119 }, 
	{ NOTE_G3, 119 }, 
	{ NOTE_A4, 119 }, 
	{ NOTE_REST, 119 }, 
	{ NOTE_REST, 238 }, 
	{ NOTE_A3, 238 }, 
	{ NOTE_C4, 119 }, 
	{ NOTE_C4, 119 }, 
	{ NOTE_REST, 119 }, 
	{ NOTE_A3, 119 }, 
	{ NOTE_A3, 238 }, 
	{ NOTE_C4, 119 }, 
	{ NOTE_B3, 119 }, 
	{ NOTE_A3, 238 }, 
	{ NOTE_D5, 238 }, 
	{ NOTE_D5, 238 }, 
	{ NOTE_A3, 238 }, 
	{ NOTE_C4, 119 }, 
	{ NOTE_C4, 119 }, 
	{ NOTE_REST, 119 }, 
	{ NOTE_A3, 119 }, 
	{ NOTE_A3, 238 }, 
	{ NOTE_C4, 119 }, 
	{ NOTE_B3, 119 }, 
	{ NOTE_A3, 119 }, 
	{ NOTE_G3, 119 }, 
	{ NOTE_A4, 238 }, 
	{ NOTE_A4, 238 }, 
	{ NOTE_A3, 238 }, 
	{ NOTE_C4, 119 }, 
	{ NOTE_C4, 119 }, 
	{ NOTE_REST, 119 }, 
	{ NOTE_A3, 119 }, 
	{ NOTE_A3, 238 }, 
	{ NOTE_C4, 119 }, 
	{ NOTE_B3, 119 }, 
	{ NOTE_A3, 238 }, 
	{ NOTE_D5, 238 }, 
	{ NOTE_D5, 238 }, 
	{ NOTE_A3, 238 }, 
	{ NOTE_C4, 119 }, 
	{ NOTE_C4, 119 }, 
	{ NOTE_REST, 119 }, 
	{ NOTE_A3, 119 }, 
	{ NOTE_A3, 238 }, 
	{ NOTE_C4, 119 }, 
	{ NOTE_B3, 119 }, 
	{ NOTE_A3, 119 }, 
	{ NOTE_G3, 119 }, 
	{ NOTE_A4, 119 }, 
	{ NOTE_REST, 119 }, 
	{ NOTE_REST, 238 }, 
	{ NOTE_REST, 357 }, 
	{ NOTE_REST, 357 }, 
	{ NOTE_REST, 238 }, 
	{ NOTE_REST, 357 }, 
	{ NOTE_REST, 357 }, 
	{ NOTE_REST, 238 }, 
	{ NOTE_REST, 357 }, 
	{ NOTE_REST, 357 }, 
	{ NOTE_REST, 238 }, 
	{ NOTE_REST, 357 }, 
	{ NOTE_REST, 357 }, 
	{ NOTE_REST, 238 }, 
	{ NOTE_REST, 357 }, 
	{ NOTE_REST, 357 }, 
	{ NOTE_REST, 238 }, 
	{ NOTE_REST, 357 }, 
	{ NOTE_REST, 357 }, 
	{ NOTE_REST, 238 }, 
	{ NOTE_REST, 357 }, 
	{ NOTE_REST, 357 }, 
	{ NOTE_REST, 238 }, 
	{ NOTE_REST, 952 }, 
	{ NOTE_REST, 357 }, 
	{ NOTE_REST, 357 }, 
	{ NOTE_REST, 238 }, 
	{ NOTE_REST, 357 }, 
	{ NOTE_REST, 357 }, 
	{ NOTE_REST, 238 }, 
	{ NOTE_REST, 357 }, 
	{ NOTE_REST, 357 }, 
	{ NOTE_REST, 238 }, 
	{ NOTE_REST, 357 }, 
	{ NOTE_REST, 357 }, 
	{ NOTE_REST, 238 }, 
	{ NOTE_REST, 357 }, 
	{ NOTE_REST, 357 }, 
	{ NOTE_REST, 238 }, 
	{ NOTE_REST, 357 }, 
	{ NOTE_REST, 357 }, 
	{ NOTE_REST, 238 }, 
	{ NOTE_REST, 357 }, 
	{ NOTE_REST, 357 }, 
	{ NOTE_REST, 238 }, 
	{ NOTE_REST, 952 }, 
	{ NOTE_REST, 357 }, 
	{ NOTE_REST, 357 }, 
	{ NOTE_REST, 238 }, 
	{ NOTE_REST, 357 }, 
	{ NOTE_REST, 357 }, 
	{ NOTE_REST, 238 }, 
	{ NOTE_REST, 357 }, 
	{ NOTE_REST, 357 }, 
	{ NOTE_REST, 238 }, 
	{ NOTE_REST, 357 }, 
	{ NOTE_REST, 357 }, 
	{ NOTE_REST, 238 }, 
	{ NOTE_REST, 357 }, 
	{ NOTE_REST, 357 }, 
	{ NOTE_REST, 238 }, 
	{ NOTE_REST, 357 }, 
	{ NOTE_REST, 357 }, 
	{ NOTE_REST, 238 }, 
	{ NOTE_REST, 357 }, 
	{ NOTE_REST, 357 }, 
	{ NOTE_REST, 238 }, 
	{ NOTE_REST, 952 }, 
	{ NOTE_REST, 357 }, 
	{ NOTE_REST, 357 }, 
	{ NOTE_REST, 238 }, 
	{ NOTE_REST, 357 }, 
	{ NOTE_REST, 357 }, 
	{ NOTE_REST, 238 }, 
	{ NOTE_REST, 357 }, 
	{ NOTE_REST, 357 }, 
	{ NOTE_REST, 238 }, 
	{ NOTE_REST, 357 }, 
	{ NOTE_REST, 357 }, 
	{ NOTE_REST, 238 }, 
	{ NOTE_REST, 357 }, 
	{ NOTE_REST, 357 }, 
	{ NOTE_REST, 238 }, 
	{ NOTE_REST, 357 }, 
	{ NOTE_REST, 357 }, 
	{ NOTE_REST, 238 }, 
	{ NOTE_REST, 357 }, 
	{ NOTE_REST, 357 }, 
	{ NOTE_REST, 238 }, 
	{ NOTE_REST, 952 }, 
	{ NOTE_D4, 119 }, 
	{ NOTE_E4, 119 }, 
	{ NOTE_REST, 119 }, 
	{ NOTE_E4, 119 }, 
	{ NOTE_REST, 119 }, 
	{ NOTE_E4, 119 }, 
	{ NOTE_E4, 238 }, 
	{ NOTE_G4, 119 }, 
	{ NOTE_E4, 119 }, 
	{ NOTE_REST, 119 }, 
	{ NOTE_E4, 119 }, 
	{ NOTE_REST, 119 }, 
	{ NOTE_E4, 119 }, 
	{ NOTE_E4, 238 }, 
	{ NOTE_A4, 119 }, 
	{ NOTE_E4, 119 }, 
	{ NOTE_REST, 119 }, 
	{ NOTE_E4, 119 }, 
	{ NOTE_REST, 119 }, 
	{ NOTE_E4, 119 }, 
	{ NOTE_E4, 238 }, 
	{ NOTE_C5, 119 }, 
	{ NOTE_B4, 119 }, 
	{ NOTE_A4, 119 }, 
	{ NOTE_G4, 119 }, 
	{ NOTE_B4, 119 }, 
	{ NOTE_A4, 119 }, 
	{ NOTE_G4, 119 }, 
	{ NOTE_D4, 119 }, 
	{ NOTE_D4, 119 }, 
	{ NOTE_E4, 119 }, 
	{ NOTE_REST, 119 }, 
	{ NOTE_E4, 119 }, 
	{ NOTE_REST, 119 }, 
	{ NOTE_E4, 119 }, 
	{ NOTE_E4, 238 }, 
	{ NOTE_G4, 119 }, 
	{ NOTE_E4, 119 }, 
	{ NOTE_REST, 119 }, 
	{ NOTE_E4, 119 }, 
	{ NOTE_REST, 119 }, 
	{ NOTE_E4, 119 }, 
	{ NOTE_E4, 238 }, 
	{ NOTE_A4, 119 }, 
	{ NOTE_E4, 119 }, 
	{ NOTE_REST, 119 }, 
	{ NOTE_E4, 119 }, 
	{ NOTE_REST, 119 }, 
	{ NOTE_E4, 119 }, 
	{ NOTE_E4, 238 }, 
	{ NOTE_E5, 119 }, 
	{ NOTE_D5, 119 }, 
	{ NOTE_C5, 119 }, 
	{ NOTE_B4, 119 }, 
	{ NOTE_C5, 476 }, 
	{ NOTE_D4, 119 }, 
	{ NOTE_E4, 119 }, 
	{ NOTE_REST, 119 }, 
	{ NOTE_E4, 119 }, 
	{ NOTE_REST, 119 }, 
	{ NOTE_E4, 119 }, 
	{ NOTE_E4, 238 }, 
	{ NOTE_G4, 119 }, 
	{ NOTE_E4, 119 }, 
	{ NOTE_REST, 119 }, 
	{ NOTE_E4, 119 }, 
	{ NOTE_REST, 119 }, 
	{ NOTE_E4, 119 }, 
	{ NOTE_E4, 238 }, 
	{ NOTE_A4, 119 }, 
	{ NOTE_E4, 119 }, 
	{ NOTE_REST, 119 }, 
	{ NOTE_E4, 119 }, 
	{ NOTE_REST, 119 }, 
	{ NOTE_E4, 119 }, 
	{ NOTE_E4, 238 }, 
	{ NOTE_C5, 119 }, 
	{ NOTE_B4, 119 }, 
	{ NOTE_A4, 119 }, 
	{ NOTE_G4, 119 }, 
	{ NOTE_B4, 119 }, 
	{ NOTE_A4, 119 }, 
	{ NOTE_G4, 119 }, 
	{ NOTE_D4, 119 }, 
	{ NOTE_D4, 119 }, 
	{ NOTE_E4, 119 }, 
	{ NOTE_REST, 119 }, 
	{ NOTE_E4, 119 }, 
	{ NOTE_REST, 119 }, 
	{ NOTE_E4, 119 }, 
	{ NOTE_E4, 238 }, 
	{ NOTE_G4, 119 }, 
	{ NOTE_E4, 119 }, 
	{ NOTE_REST, 119 }, 
	{ NOTE_E4, 119 }, 
	{ NOTE_REST, 119 }, 
	{ NOTE_E4, 119 }, 
	{ NOTE_E4, 238 }, 
	{ NOTE_A4, 119 }, 
	{ NOTE_E4, 119 }, 
	{ NOTE_REST, 119 }, 
	{ NOTE_E4, 119 }, 
	{ NOTE_REST, 119 }, 
	{ NOTE_E4, 119 }, 
	{ NOTE_E4, 238 }, 
	{ NOTE_E5, 119 }, 
	{ NOTE_D5, 119 }, 
	{ NOTE_C5, 119 }, 
	{ NOTE_B4, 119 }, 
	{ NOTE_C5, 476 }, 
	{ NOTE_E5, 1904 }, 
	{ NOTE_C5, 952 }, 
	{ NOTE_D5, 952 }, 
	{ NOTE_E5, 1904 }, 
	{ NOTE_C5, 952 }, 
	{ NOTE_D5, 952 }, 
	{ NOTE_E5, 1904 }, 
	{ NOTE_C5, 952 }, 
	{ NOTE_D5, 952 }, 
	{ NOTE_E5, 1904 }, 
	{ NOTE_C5, 952 }, 
	{ NOTE_D5, 952 }, 
	{ NOTE_G5, 1904 }, 
	{ NOTE_DS5, 952 }, 
	{ NOTE_F5, 952 }, 
	{ NOTE_G5, 1904 }, 
	{ NOTE_DS5, 952 }, 
	{ NOTE_F5, 952 }, 
	{ NOTE_G5, 1904 }, 
	{ NOTE_DS5, 952 }, 
	{ NOTE_F5, 952 }, 
	{ NOTE_G5, 1904 }, 
	{ NOTE_DS5, 952 }, 
	{ NOTE_F5, 952 }, 
	{ NOTE_A4, 357 }, 
	{ NOTE_G4, 119 }, 
	{ NOTE_A4, 119 }, 
	{ NOTE_G4, 119 }, 
	{ NOTE_A4, 119 }, 
	{ NOTE_G4, 119 }, 
	{ NOTE_C5, 238 }, 
	{ NOTE_C5, 238 }, 
	{ NOTE_A4, 476 }, 
	{ NOTE_A4, 357 }, 
	{ NOTE_G4, 119 }, 
	{ NOTE_A4, 119 }, 
	{ NOTE_G4, 119 }, 
	{ NOTE_A4, 119 }, 
	{ NOTE_G4, 119 }, 
	{ NOTE_G4, 119 }, 
	{ NOTE_B4, 119 }, 
	{ NOTE_B4, 119 }, 
	{ NOTE_B4, 119 }, 
	{ NOTE_C5, 119 }, 
	{ NOTE_B4, 119 }, 
	{ NOTE_A4, 119 }, 
	{ NOTE_G4, 119 }, 
	{ NOTE_A4, 357 }, 
	{ NOTE_G4, 119 }, 
	{ NOTE_A4, 119 }, 
	{ NOTE_G4, 119 }, 
	{ NOTE_A4, 119 }, 
	{ NOTE_G4, 119 }, 
	{ NOTE_C5, 238 }, 
	{ NOTE_C5, 238 }, 
	{ NOTE_A4, 476 }, 
	{ NOTE_A4, 357 }, 
	{ NOTE_G4, 119 }, 
	{ NOTE_A4, 119 }, 
	{ NOTE_G4, 119 }, 
	{ NOTE_A4, 119 }, 
	{ NOTE_G4, 119 }, 
	{ NOTE_G4, 119 }, 
	{ NOTE_B4, 119 }, 
	{ NOTE_B4, 119 }, 
	{ NOTE_B4, 119 }, 
	{ NOTE_C5, 119 }, 
	{ NOTE_B4, 119 }, 
	{ NOTE_A4, 119 }, 
	{ NOTE_G4, 119 }, 
	{ NOTE_A4, 357 }, 
	{ NOTE_G4, 119 }, 
	{ NOTE_A4, 119 }, 
	{ NOTE_G4, 119 }, 
	{ NOTE_A4, 119 }, 
	{ NOTE_G4, 119 }, 
	{ NOTE_C5, 238 }, 
	{ NOTE_C5, 238 }, 
	{ NOTE_A4, 476 }, 
	{ NOTE_A4, 357 }, 
	{ NOTE_G4, 119 }, 
	{ NOTE_A4, 119 }, 
	{ NOTE_G4, 119 }, 
	{ NOTE_A4, 119 }, 
	{ NOTE_G4, 119 }, 
	{ NOTE_G4, 119 }, 
	{ NOTE_B4, 119 }, 
	{ NOTE_B4, 119 }, 
	{ NOTE_B4, 119 }, 
	{ NOTE_C5, 119 }, 
	{ NOTE_B4, 119 }, 
	{ NOTE_A4, 119 }, 
	{ NOTE_G4, 119 }, 
	{ NOTE_A4, 450 }, 
	{ NOTE_G4, 150 }, 
	{ NOTE_A4, 150 }, 
	{ NOTE_G4, 150 }, 
	{ NOTE_A4, 150 }, 
	{ NOTE_G4, 150 }, 
	{ NOTE_C5, 300 }, 
	{ NOTE_C5, 300 }, 
	{ NOTE_A4, 600 }, 
	{ NOTE_A4, 562 }, 
	{ NOTE_G4, 188 }, 
	{ NOTE_A4, 188 }, 
	{ NOTE_G4, 188 }, 
	{ NOTE_A4, 188 }, 
	{ NOTE_G4, 186 }, 
	{ NOTE_G4, 188 }, 
	{ NOTE_G4, 0 }, 
	{ NOTE_B4, 188 }, 
	{ NOTE_B4, 188 }, 
	{ NOTE_B4, 188 }, 
	{ NOTE_C5, 188 }, 
	{ NOTE_B4, 62 }, 
	{ NOTE_C5, 62 }, 
	{ NOTE_B4, 62 }, 
	{ NOTE_A4, 188 }, 
	{ NOTE_G4, 186 }, 
	{ NOTE_REST, 562 }, 
	{ NOTE_D5, 62 }, 
	{ NOTE_E5, 62 }, 
	{ NOTE_D5, 62 }, 
	{ NOTE_C5, 375 }, 
	{ NOTE_B4, 377 }, 
	{ NOTE_C5, 375 }, 
	{ NOTE_D5, 375 }, 
	{ NOTE_C5, 375 }, 
	{ NOTE_B4, 375 }, 
	{ NOTE_A4, 750 }, 
	{ NOTE_A4, 375 }, 
	{ NOTE_REST, 375 }, 
	{ NOTE_REST, 1500 }, 
	{ NOTE_REST, 1500 }, 
};
const uint16_t NUM_OF_NOTES2 = sizeof(melody2)/sizeof(melody2[0]);

const Note melody3[] PROGMEM = {
	{ NOTE_REST, 750 }, 
	{ NOTE_REST, 375 }, 
	{ NOTE_REST, 188 }, 
	{ NOTE_E4, 187 }, 
	{ NOTE_FS4, 188 }, 
	{ NOTE_GS4, 188 }, 
	{ NOTE_FS4, 188 }, 
	{ NOTE_A4, 188 }, 
	{ NOTE_REST, 188 }, 
	{ NOTE_GS4, 188 }, 
	{ NOTE_FS4, 188 }, 
	{ NOTE_E4, 184 }, 
	{ NOTE_FS4, 188 }, 
	{ NOTE_GS4, 188 }, 
	{ NOTE_FS4, 188 }, 
	{ NOTE_A4, 188 }, 
	{ NOTE_REST, 188 }, 
	{ NOTE_GS4, 188 }, 
	{ NOTE_REST, 188 }, 
	{ NOTE_E4, 184 }, 
	{ NOTE_FS4, 188 }, 
	{ NOTE_GS4, 188 }, 
	{ NOTE_FS4, 188 }, 
	{ NOTE_A4, 188 }, 
	{ NOTE_REST, 188 }, 
	{ NOTE_GS4, 188 }, 
	{ NOTE_REST, 188 }, 
	{ NOTE_E4, 184 }, 
	{ NOTE_FS4, 188 }, 
	{ NOTE_GS4, 188 }, 
	{ NOTE_FS4, 188 }, 
	{ NOTE_A4, 188 }, 
	{ NOTE_REST, 188 }, 
	{ NOTE_GS4, 188 }, 
	{ NOTE_REST, 188 }, 
	{ NOTE_E4, 184 }, 
	{ NOTE_FS4, 188 }, 
	{ NOTE_GS4, 188 }, 
	{ NOTE_FS4, 188 }, 
	{ NOTE_A4, 188 }, 
	{ NOTE_REST, 188 }, 
	{ NOTE_GS4, 188 }, 
	{ NOTE_FS4, 188 }, 
	{ NOTE_E4, 184 }, 
	{ NOTE_FS4, 188 }, 
	{ NOTE_GS4, 188 }, 
	{ NOTE_FS4, 188 }, 
	{ NOTE_A4, 188 }, 
	{ NOTE_REST, 188 }, 
	{ NOTE_GS4, 188 }, 
	{ NOTE_REST, 188 }, 
	{ NOTE_E4, 184 }, 
	{ NOTE_FS4, 188 }, 
	{ NOTE_GS4, 188 }, 
	{ NOTE_FS4, 188 }, 
	{ NOTE_A4, 188 }, 
	{ NOTE_REST, 188 }, 
	{ NOTE_GS4, 188 }, 
	{ NOTE_REST, 188 }, 
	{ NOTE_E4, 184 }, 
	{ NOTE_FS4, 188 }, 
	{ NOTE_GS4, 188 }, 
	{ NOTE_FS4, 188 }, 
	{ NOTE_A4, 188 }, 
	{ NOTE_REST, 188 }, 
	{ NOTE_GS4, 188 }, 
	{ NOTE_REST, 188 }, 
	{ NOTE_E4, 184 }, 
	{ NOTE_FS4, 188 }, 
	{ NOTE_GS4, 188 }, 
	{ NOTE_FS4, 188 }, 
	{ NOTE_A4, 188 }, 
	{ NOTE_REST, 188 }, 
	{ NOTE_GS4, 188 }, 
	{ NOTE_FS4, 188 }, 
	{ NOTE_E4, 184 }, 
	{ NOTE_FS4, 188 }, 
	{ NOTE_GS4, 188 }, 
	{ NOTE_FS4, 188 }, 
	{ NOTE_A4, 188 }, 
	{ NOTE_REST, 188 }, 
	{ NOTE_GS4, 188 }, 
	{ NOTE_REST, 188 }, 
	{ NOTE_E4, 184 }, 
	{ NOTE_FS4, 188 }, 
	{ NOTE_GS4, 188 }, 
	{ NOTE_FS4, 188 }, 
	{ NOTE_A4, 188 }, 
	{ NOTE_REST, 188 }, 
	{ NOTE_GS4, 188 }, 
	{ NOTE_REST, 188 }, 
	{ NOTE_E4, 184 }, 
	{ NOTE_FS4, 188 }, 
	{ NOTE_GS4, 188 }, 
	{ NOTE_FS4, 188 }, 
	{ NOTE_A4, 188 }, 
	{ NOTE_REST, 188 }, 
	{ NOTE_GS4, 188 }, 
	{ NOTE_REST, 188 }, 
	{ NOTE_E4, 184 }, 
	{ NOTE_FS4, 188 }, 
	{ NOTE_GS4, 188 }, 
	{ NOTE_FS4, 188 }, 
	{ NOTE_A4, 188 }, 
	{ NOTE_REST, 188 }, 
	{ NOTE_GS4, 188 }, 
	{ NOTE_FS4, 188 }, 
	{ NOTE_E4, 184 }, 
	{ NOTE_FS4, 188 }, 
	{ NOTE_GS4, 188 }, 
	{ NOTE_FS4, 188 }, 
	{ NOTE_A4, 188 }, 
	{ NOTE_REST, 188 }, 
	{ NOTE_GS4, 188 }, 
	{ NOTE_REST, 188 }, 
	{ NOTE_E4, 184 }, 
	{ NOTE_FS4, 188 }, 
	{ NOTE_GS4, 188 }, 
	{ NOTE_FS4, 188 }, 
	{ NOTE_A4, 188 }, 
	{ NOTE_REST, 188 }, 
	{ NOTE_GS4, 188 }, 
	{ NOTE_REST, 188 }, 
	{ NOTE_E4, 184 }, 
	{ NOTE_FS4, 188 }, 
	{ NOTE_GS4, 188 }, 
	{ NOTE_FS4, 188 }, 
	{ NOTE_A4, 936 }, 
	{ NOTE_A4, 391 }, 
	{ NOTE_G4, 130 }, 
	{ NOTE_A4, 130 }, 
	{ NOTE_G4, 130 }, 
	{ NOTE_A4, 130 }, 
	{ NOTE_G4, 132 }, 
	{ NOTE_C5, 261 }, 
	{ NOTE_C5, 261 }, 
	{ NOTE_A4, 521 }, 
	{ NOTE_A4, 391 }, 
	{ NOTE_G4, 130 }, 
	{ NOTE_A4, 130 }, 
	{ NOTE_G4, 130 }, 
	{ NOTE_A4, 130 }, 
	{ NOTE_G4, 132 }, 
	{ NOTE_G4, 130 }, 
	{ NOTE_B4, 130 }, 
	{ NOTE_B4, 130 }, 
	{ NOTE_B4, 130 }, 
	{ NOTE_C5, 130 }, 
	{ NOTE_B4, 130 }, 
	{ NOTE_A4, 130 }, 
	{ NOTE_G4, 133 }, 
	{ NOTE_A4, 357 }, 
	{ NOTE_G4, 119 }, 
	{ NOTE_A4, 119 }, 
	{ NOTE_G4, 119 }, 
	{ NOTE_A4, 119 }, 
	{ NOTE_G4, 119 }, 
	{ NOTE_C5, 238 }, 
	{ NOTE_C5, 238 }, 
	{ NOTE_A4, 476 }, 
	{ NOTE_A4, 357 }, 
	{ NOTE_G4, 119 }, 
	{ NOTE_A4, 119 }, 
	{ NOTE_G4, 119 }, 
	{ NOTE_A4, 119 }, 
	{ NOTE_G4, 119 }, 
	{ NOTE_G4, 119 }, 
	{ NOTE_B4, 119 }, 
	{ NOTE_B4, 119 }, 
	{ NOTE_B4, 119 }, 
	{ NOTE_C5, 119 }, 
	{ NOTE_B4, 119 }, 
	{ NOTE_A4, 119 }, 
	{ NOTE_G4, 119 }, 
	{ NOTE_A4, 357 }, 
	{ NOTE_G4, 119 }, 
	{ NOTE_A4, 119 }, 
	{ NOTE_G4, 119 }, 
	{ NOTE_A4, 119 }, 
	{ NOTE_G4, 119 }, 
	{ NOTE_C5, 238 }, 
	{ NOTE_C5, 238 }, 
	{ NOTE_A4, 476 }, 
	{ NOTE_A4, 357 }, 
	{ NOTE_G4, 119 }, 
	{ NOTE_A4, 119 }, 
	{ NOTE_G4, 119 }, 
	{ NOTE_A4, 119 }, 
	{ NOTE_G4, 119 }, 
	{ NOTE_G4, 119 }, 
	{ NOTE_B4, 119 }, 
	{ NOTE_B4, 119 }, 
	{ NOTE_B4, 119 }, 
	{ NOTE_C5, 119 }, 
	{ NOTE_B4, 119 }, 
	{ NOTE_A4, 119 }, 
	{ NOTE_G4, 119 }, 
	{ NOTE_A4, 357 }, 
	{ NOTE_G4, 119 }, 
	{ NOTE_A4, 119 }, 
	{ NOTE_G4, 119 }, 
	{ NOTE_A4, 119 }, 
	{ NOTE_G4, 119 }, 
	{ NOTE_C5, 238 }, 
	{ NOTE_C5, 238 }, 
	{ NOTE_A4, 476 }, 
	{ NOTE_A4, 357 }, 
	{ NOTE_G4, 119 }, 
	{ NOTE_A4, 119 }, 
	{ NOTE_G4, 119 }, 
	{ NOTE_A4, 119 }, 
	{ NOTE_G4, 119 }, 
	{ NOTE_G4, 119 }, 
	{ NOTE_B4, 119 }, 
	{ NOTE_B4, 119 }, 
	{ NOTE_B4, 119 }, 
	{ NOTE_C5, 119 }, 
	{ NOTE_B4, 119 }, 
	{ NOTE_A4, 119 }, 
	{ NOTE_G4, 119 }, 
	{ NOTE_E4, 357 }, 
	{ NOTE_FS4, 357 }, 
	{ NOTE_G4, 238 }, 
	{ NOTE_A4, 357 }, 
	{ NOTE_G4, 357 }, 
	{ NOTE_FS4, 238 }, 
	{ NOTE_E4, 357 }, 
	{ NOTE_G4, 357 }, 
	{ NOTE_FS4, 238 }, 
	{ NOTE_D4, 357 }, 
	{ NOTE_FS4, 357 }, 
	{ NOTE_D4, 238 }, 
	{ NOTE_E4, 357 }, 
	{ NOTE_FS4, 357 }, 
	{ NOTE_G4, 238 }, 
	{ NOTE_A4, 357 }, 
	{ NOTE_G4, 357 }, 
	{ NOTE_FS4, 238 }, 
	{ NOTE_E4, 357 }, 
	{ NOTE_G4, 357 }, 
	{ NOTE_FS4, 238 }, 
	{ NOTE_D4, 952 }, 
	{ NOTE_E4, 357 }, 
	{ NOTE_FS4, 357 }, 
	{ NOTE_G4, 238 }, 
	{ NOTE_A4, 357 }, 
	{ NOTE_G4, 357 }, 
	{ NOTE_FS4, 238 }, 
	{ NOTE_E4, 357 }, 
	{ NOTE_G4, 357 }, 
	{ NOTE_FS4, 238 }, 
	{ NOTE_D4, 357 }, 
	{ NOTE_FS4, 357 }, 
	{ NOTE_D4, 238 }, 
	{ NOTE_E4, 357 }, 
	{ NOTE_FS4, 357 }, 
	{ NOTE_G4, 238 }, 
	{ NOTE_A4, 357 }, 
	{ NOTE_G4, 357 }, 
	{ NOTE_FS4, 238 }, 
	{ NOTE_E4, 357 }, 
	{ NOTE_G4, 357 }, 
	{ NOTE_FS4, 238 }, 
	{ NOTE_D4, 952 }, 
	{ NOTE_A3, 357 }, 
	{ NOTE_B3, 357 }, 
	{ NOTE_C4, 238 }, 
	{ NOTE_D4, 357 }, 
	{ NOTE_C4, 357 }, 
	{ NOTE_B3, 238 }, 
	{ NOTE_A3, 357 }, 
	{ NOTE_C4, 357 }, 
	{ NOTE_B3, 238 }, 
	{ NOTE_G3, 357 }, 
	{ NOTE_B3, 357 }, 
	{ NOTE_G3, 238 }, 
	{ NOTE_A3, 357 }, 
	{ NOTE_B3, 357 }, 
	{ NOTE_C4, 238 }, 
	{ NOTE_D4, 357 }, 
	{ NOTE_C4, 357 }, 
	{ NOTE_B3, 238 }, 
	{ NOTE_A3, 357 }, 
	{ NOTE_C4, 357 }, 
	{ NOTE_B3, 238 }, 
	{ NOTE_G3, 952 }, 
	{ NOTE_A3, 357 }, 
	{ NOTE_B3, 357 }, 
	{ NOTE_C4, 238 }, 
	{ NOTE_D4, 357 }, 
	{ NOTE_C4, 357 }, 
	{ NOTE_B3, 238 }, 
	{ NOTE_A3, 357 }, 
	{ NOTE_C4, 357 }, 
	{ NOTE_B3, 238 }, 
	{ NOTE_G3, 357 }, 
	{ NOTE_B3, 357 }, 
	{ NOTE_G3, 238 }, 
	{ NOTE_A3, 357 }, 
	{ NOTE_B3, 357 }, 
	{ NOTE_C4, 238 }, 
	{ NOTE_D4, 357 }, 
	{ NOTE_C4, 357 }, 
	{ NOTE_B3, 238 }, 
	{ NOTE_A3, 357 }, 
	{ NOTE_C4, 357 }, 
	{ NOTE_B3, 238 }, 
	{ NOTE_G3, 952 }, 
	{ NOTE_D4, 119 }, 
	{ NOTE_E4, 119 }, 
	{ NOTE_REST, 119 }, 
	{ NOTE_E4, 119 }, 
	{ NOTE_REST, 119 }, 
	{ NOTE_E4, 119 }, 
	{ NOTE_E4, 238 }, 
	{ NOTE_G4, 119 }, 
	{ NOTE_E4, 119 }, 
	{ NOTE_REST, 119 }, 
	{ NOTE_E4, 119 }, 
	{ NOTE_REST, 119 }, 
	{ NOTE_E4, 119 }, 
	{ NOTE_E4, 238 }, 
	{ NOTE_A4, 119 }, 
	{ NOTE_E4, 119 }, 
	{ NOTE_REST, 119 }, 
	{ NOTE_E4, 119 }, 
	{ NOTE_REST, 119 }, 
	{ NOTE_E4, 119 }, 
	{ NOTE_E4, 238 }, 
	{ NOTE_C5, 119 }, 
	{ NOTE_B4, 119 }, 
	{ NOTE_A4, 119 }, 
	{ NOTE_G4, 119 }, 
	{ NOTE_B4, 119 }, 
	{ NOTE_A4, 119 }, 
	{ NOTE_G4, 119 }, 
	{ NOTE_D4, 119 }, 
	{ NOTE_D4, 119 }, 
	{ NOTE_E4, 119 }, 
	{ NOTE_REST, 119 }, 
	{ NOTE_E4, 119 }, 
	{ NOTE_REST, 119 }, 
	{ NOTE_E4, 119 }, 
	{ NOTE_E4, 238 }, 
	{ NOTE_G4, 119 }, 
	{ NOTE_E4, 119 }, 
	{ NOTE_REST, 119 }, 
	{ NOTE_E4, 119 }, 
	{ NOTE_REST, 119 }, 
	{ NOTE_E4, 119 }, 
	{ NOTE_E4, 238 }, 
	{ NOTE_A4, 119 }, 
	{ NOTE_E4, 119 }, 
	{ NOTE_REST, 119 }, 
	{ NOTE_E4, 119 }, 
	{ NOTE_REST, 119 }, 
	{ NOTE_E4, 119 }, 
	{ NOTE_E4, 238 }, 
	{ NOTE_C5, 119 }, 
	{ NOTE_B4, 119 }, 
	{ NOTE_A4, 119 }, 
	{ NOTE_G4, 119 }, 
	{ NOTE_A4, 476 }, 
	{ NOTE_D4, 119 }, 
	{ NOTE_E4, 119 }, 
	{ NOTE_REST, 119 }, 
	{ NOTE_E4, 119 }, 
	{ NOTE_REST, 119 }, 
	{ NOTE_E4, 119 }, 
	{ NOTE_E4, 238 }, 
	{ NOTE_G4, 119 }, 
	{ NOTE_E4, 119 }, 
	{ NOTE_REST, 119 }, 
	{ NOTE_E4, 119 }, 
	{ NOTE_REST, 119 }, 
	{ NOTE_E4, 119 }, 
	{ NOTE_E4, 238 }, 
	{ NOTE_A4, 119 }, 
	{ NOTE_E4, 119 }, 
	{ NOTE_REST, 119 }, 
	{ NOTE_E4, 119 }, 
	{ NOTE_REST, 119 }, 
	{ NOTE_E4, 119 }, 
	{ NOTE_E4, 238 }, 
	{ NOTE_C5, 119 }, 
	{ NOTE_B4, 119 }, 
	{ NOTE_A4, 119 }, 
	{ NOTE_G4, 119 }, 
	{ NOTE_B4, 119 }, 
	{ NOTE_A4, 119 }, 
	{ NOTE_G4, 119 }, 
	{ NOTE_D4, 119 }, 
	{ NOTE_D4, 119 }, 
	{ NOTE_E4, 119 }, 
	{ NOTE_REST, 119 }, 
	{ NOTE_E4, 119 }, 
	{ NOTE_REST, 119 }, 
	{ NOTE_E4, 119 }, 
	{ NOTE_E4, 238 }, 
	{ NOTE_G4, 119 }, 
	{ NOTE_E4, 119 }, 
	{ NOTE_REST, 119 }, 
	{ NOTE_E4, 119 }, 
	{ NOTE_REST, 119 }, 
	{ NOTE_E4, 119 }, 
	{ NOTE_E4, 238 }, 
	{ NOTE_A4, 119 }, 
	{ NOTE_E4, 119 }, 
	{ NOTE_REST, 119 }, 
	{ NOTE_E4, 119 }, 
	{ NOTE_REST, 119 }, 
	{ NOTE_E4, 119 }, 
	{ NOTE_E4, 238 }, 
	{ NOTE_C5, 119 }, 
	{ NOTE_B4, 119 }, 
	{ NOTE_A4, 119 }, 
	{ NOTE_G4, 119 }, 
	{ NOTE_A4, 476 }, 
	{ NOTE_E4, 1904 }, 
	{ NOTE_C4, 952 }, 
	{ NOTE_D4, 952 }, 
	{ NOTE_E4, 1904 }, 
	{ NOTE_C4, 952 }, 
	{ NOTE_D4, 952 }, 
	{ NOTE_E4, 1904 }, 
	{ NOTE_C4, 952 }, 
	{ NOTE_D4, 952 }, 
	{ NOTE_E4, 1904 }, 
	{ NOTE_C4, 952 }, 
	{ NOTE_D4, 952 }, 
	{ NOTE_G4, 1904 }, 
	{ NOTE_DS4, 952 }, 
	{ NOTE_F4, 952 }, 
	{ NOTE_G4, 1904 }, 
	{ NOTE_DS4, 952 }, 
	{ NOTE_F4, 952 }, 
	{ NOTE_G4, 1904 }, 
	{ NOTE_DS4, 952 }, 
	{ NOTE_F4, 952 }, 
	{ NOTE_G4, 1904 }, 
	{ NOTE_DS4, 952 }, 
	{ NOTE_F4, 952 }, 
	{ NOTE_A3, 238 }, 
	{ NOTE_C4, 119 }, 
	{ NOTE_C4, 119 }, 
	{ NOTE_REST, 119 }, 
	{ NOTE_A3, 119 }, 
	{ NOTE_A3, 238 }, 
	{ NOTE_C4, 119 }, 
	{ NOTE_B3, 119 }, 
	{ NOTE_A3, 238 }, 
	{ NOTE_D4, 238 }, 
	{ NOTE_D4, 238 }, 
	{ NOTE_A3, 238 }, 
	{ NOTE_C4, 119 }, 
	{ NOTE_C4, 119 }, 
	{ NOTE_REST, 119 }, 
	{ NOTE_A3, 119 }, 
	{ NOTE_A3, 238 }, 
	{ NOTE_C4, 119 }, 
	{ NOTE_B3, 119 }, 
	{ NOTE_A3, 119 }, 
	{ NOTE_G3, 119 }, 
	{ NOTE_A3, 238 }, 
	{ NOTE_A3, 238 }, 
	{ NOTE_A3, 238 }, 
	{ NOTE_C4, 119 }, 
	{ NOTE_C4, 119 }, 
	{ NOTE_REST, 119 }, 
	{ NOTE_A3, 119 }, 
	{ NOTE_A3, 238 }, 
	{ NOTE_C4, 119 }, 
	{ NOTE_B3, 119 }, 
	{ NOTE_A3, 238 }, 
	{ NOTE_D4, 238 }, 
	{ NOTE_D4, 238 }, 
	{ NOTE_A3, 238 }, 
	{ NOTE_C4, 119 }, 
	{ NOTE_C4, 119 }, 
	{ NOTE_REST, 119 }, 
	{ NOTE_A3, 119 }, 
	{ NOTE_A3, 238 }, 
	{ NOTE_C4, 119 }, 
	{ NOTE_B3, 119 }, 
	{ NOTE_A3, 119 }, 
	{ NOTE_G3, 119 }, 
	{ NOTE_A3, 119 }, 
	{ NOTE_REST, 119 }, 
	{ NOTE_REST, 238 }, 
	{ NOTE_A3, 238 }, 
	{ NOTE_C4, 119 }, 
	{ NOTE_C4, 119 }, 
	{ NOTE_REST, 119 }, 
	{ NOTE_A3, 119 }, 
	{ NOTE_A3, 238 }, 
	{ NOTE_C4, 119 }, 
	{ NOTE_B3, 119 }, 
	{ NOTE_A3, 238 }, 
	{ NOTE_D4, 238 }, 
	{ NOTE_D4, 238 }, 
	{ NOTE_A3, 238 }, 
	{ NOTE_C4, 119 }, 
	{ NOTE_C4, 119 }, 
	{ NOTE_REST, 119 }, 
	{ NOTE_A3, 119 }, 
	{ NOTE_A3, 238 }, 
	{ NOTE_C4, 119 }, 
	{ NOTE_B3, 119 }, 
	{ NOTE_A3, 119 }, 
	{ NOTE_G3, 119 }, 
	{ NOTE_A3, 238 }, 
	{ NOTE_A3, 238 }, 
	{ NOTE_A3, 238 }, 
	{ NOTE_C4, 119 }, 
	{ NOTE_C4, 119 }, 
	{ NOTE_REST, 119 }, 
	{ NOTE_A3, 119 }, 
	{ NOTE_A3, 238 }, 
	{ NOTE_C4, 119 }, 
	{ NOTE_B3, 119 }, 
	{ NOTE_A3, 238 }, 
	{ NOTE_D4, 238 }, 
	{ NOTE_D4, 238 }, 
	{ NOTE_A3, 238 }, 
	{ NOTE_C4, 119 }, 
	{ NOTE_C4, 119 }, 
	{ NOTE_REST, 119 }, 
	{ NOTE_A3, 119 }, 
	{ NOTE_A3, 238 }, 
	{ NOTE_C4, 119 }, 
	{ NOTE_B3, 119 }, 
	{ NOTE_A3, 119 }, 
	{ NOTE_G3, 119 }, 
	{ NOTE_A3, 119 }, 
	{ NOTE_REST, 119 }, 
	{ NOTE_REST, 238 }, 
	{ NOTE_D5, 357 }, 
	{ NOTE_D5, 238 }, 
	{ NOTE_D5, 119 }, 
	{ NOTE_D5, 79 }, 
	{ NOTE_D5, 79 }, 
	{ NOTE_D5, 80 }, 
	{ NOTE_D5, 79 }, 
	{ NOTE_D5, 79 }, 
	{ NOTE_D5, 79 }, 
	{ NOTE_D5, 79 }, 
	{ NOTE_D5, 79 }, 
	{ NOTE_D5, 79 }, 
	{ NOTE_D5, 79 }, 
	{ NOTE_D5, 79 }, 
	{ NOTE_D5, 79 }, 
	{ NOTE_D5, 79 }, 
	{ NOTE_D5, 79 }, 
	{ NOTE_D5, 83 }, 
	{ NOTE_D5, 79 }, 
	{ NOTE_D5, 79 }, 
	{ NOTE_D5, 79 }, 
	{ NOTE_D5, 79 }, 
	{ NOTE_D5, 79 }, 
	{ NOTE_D5, 79 }, 
	{ NOTE_D5, 79 }, 
	{ NOTE_D5, 79 }, 
	{ NOTE_D5, 79 }, 
	{ NOTE_D5, 79 }, 
	{ NOTE_D5, 79 }, 
	{ NOTE_D5, 83 }, 
	{ NOTE_D5, 635 }, 
	{ NOTE_E5, 159 }, 
	{ NOTE_G5, 1348 }, 
	{ NOTE_G5, 119 }, 
	{ NOTE_E5, 119 }, 
	{ NOTE_D5, 119 }, 
	{ NOTE_E5, 119 }, 
	{ NOTE_D5, 119 }, 
	{ NOTE_C5, 119 }, 
	{ NOTE_D5, 119 }, 
	{ NOTE_C5, 119 }, 
	{ NOTE_A4, 119 }, 
	{ NOTE_C5, 119 }, 
	{ NOTE_A4, 119 }, 
	{ NOTE_G4, 119 }, 
	{ NOTE_A4, 119 }, 
	{ NOTE_G4, 119 }, 
	{ NOTE_E4, 714 }, 
	{ NOTE_E5, 238 }, 
	{ NOTE_C6, 79 }, 
	{ NOTE_A5, 79 }, 
	{ NOTE_E5, 79 }, 
	{ NOTE_B5, 79 }, 
	{ NOTE_A5, 79 }, 
	{ NOTE_E5, 79 }, 
	{ NOTE_C6, 79 }, 
	{ NOTE_A5, 79 }, 
	{ NOTE_E5, 79 }, 
	{ NOTE_B5, 79 }, 
	{ NOTE_A5, 79 }, 
	{ NOTE_E5, 83 }, 
	{ NOTE_C6, 79 }, 
	{ NOTE_A5, 79 }, 
	{ NOTE_E5, 79 }, 
	{ NOTE_B5, 79 }, 
	{ NOTE_A5, 79 }, 
	{ NOTE_E5, 79 }, 
	{ NOTE_C6, 79 }, 
	{ NOTE_A5, 79 }, 
	{ NOTE_E5, 79 }, 
	{ NOTE_B5, 79 }, 
	{ NOTE_A5, 79 }, 
	{ NOTE_E5, 83 }, 
	{ NOTE_C6, 79 }, 
	{ NOTE_A5, 79 }, 
	{ NOTE_E5, 79 }, 
	{ NOTE_B5, 79 }, 
	{ NOTE_A5, 79 }, 
	{ NOTE_E5, 79 }, 
	{ NOTE_C6, 79 }, 
	{ NOTE_A5, 79 }, 
	{ NOTE_E5, 79 }, 
	{ NOTE_B5, 79 }, 
	{ NOTE_A5, 79 }, 
	{ NOTE_E5, 83 }, 
	{ NOTE_G5, 0 }, 
	{ NOTE_A5, 833 }, 
	{ NOTE_REST, 60 }, 
	{ NOTE_A5, 59 }, 
	{ NOTE_G5, 79 }, 
	{ NOTE_A5, 79 }, 
	{ NOTE_G5, 79 }, 
	{ NOTE_E5, 79 }, 
	{ NOTE_G5, 79 }, 
	{ NOTE_A5, 79 }, 
	{ NOTE_REST, 79 }, 
	{ NOTE_B5, 79 }, 
	{ NOTE_C6, 79 }, 
	{ NOTE_B5, 60 }, 
	{ NOTE_A5, 119 }, 
	{ NOTE_B5, 62 }, 
	{ NOTE_D6, 159 }, 
	{ NOTE_E6, 79 }, 
	{ NOTE_F6, 79 }, 
	{ NOTE_E6, 79 }, 
	{ NOTE_G6, 2460 }, 
	{ NOTE_B3, 1904 }, 
	{ NOTE_G3, 952 }, 
	{ NOTE_A3, 952 }, 
	{ NOTE_B3, 1904 }, 
	{ NOTE_D4, 952 }, 
	{ NOTE_E4, 952 }, 
	{ NOTE_B3, 1904 }, 
	{ NOTE_G3, 952 }, 
	{ NOTE_A3, 952 }, 
	{ NOTE_B3, 1904 }, 
	{ NOTE_D4, 952 }, 
	{ NOTE_E4, 952 }, 
	{ NOTE_A3, 238 }, 
	{ NOTE_C4, 119 }, 
	{ NOTE_C4, 119 }, 
	{ NOTE_REST, 119 }, 
	{ NOTE_A3, 119 }, 
	{ NOTE_A3, 238 }, 
	{ NOTE_C4, 119 }, 
	{ NOTE_B3, 119 }, 
	{ NOTE_A3, 238 }, 
	{ NOTE_D4, 238 }, 
	{ NOTE_D4, 238 }, 
	{ NOTE_A3, 238 }, 
	{ NOTE_C4, 119 }, 
	{ NOTE_C4, 119 }, 
	{ NOTE_REST, 119 }, 
	{ NOTE_A3, 119 }, 
	{ NOTE_A3, 238 }, 
	{ NOTE_C4, 119 }, 
	{ NOTE_B3, 119 }, 
	{ NOTE_A3, 119 }, 
	{ NOTE_G3, 119 }, 
	{ NOTE_A3, 238 }, 
	{ NOTE_A3, 238 }, 
	{ NOTE_A3, 238 }, 
	{ NOTE_C4, 119 }, 
	{ NOTE_C4, 119 }, 
	{ NOTE_REST, 119 }, 
	{ NOTE_A3, 119 }, 
	{ NOTE_A3, 238 }, 
	{ NOTE_C4, 119 }, 
	{ NOTE_B3, 119 }, 
	{ NOTE_A3, 238 }, 
	{ NOTE_D4, 238 }, 
	{ NOTE_D4, 238 }, 
	{ NOTE_A3, 238 }, 
	{ NOTE_C4, 119 }, 
	{ NOTE_C4, 119 }, 
	{ NOTE_REST, 119 }, 
	{ NOTE_A3, 119 }, 
	{ NOTE_A3, 238 }, 
	{ NOTE_C4, 119 }, 
	{ NOTE_B3, 119 }, 
	{ NOTE_A3, 119 }, 
	{ NOTE_G3, 119 }, 
	{ NOTE_A3, 119 }, 
	{ NOTE_REST, 119 }, 
	{ NOTE_REST, 238 }, 
	{ NOTE_A3, 238 }, 
	{ NOTE_C4, 119 }, 
	{ NOTE_C4, 119 }, 
	{ NOTE_REST, 119 }, 
	{ NOTE_A3, 119 }, 
	{ NOTE_A3, 238 }, 
	{ NOTE_C4, 119 }, 
	{ NOTE_B3, 119 }, 
	{ NOTE_A3, 238 }, 
	{ NOTE_D4, 238 }, 
	{ NOTE_D4, 238 }, 
	{ NOTE_A3, 238 }, 
	{ NOTE_C4, 119 }, 
	{ NOTE_C4, 119 }, 
	{ NOTE_REST, 119 }, 
	{ NOTE_A3, 119 }, 
	{ NOTE_A3, 238 }, 
	{ NOTE_C4, 119 }, 
	{ NOTE_B3, 119 }, 
	{ NOTE_A3, 119 }, 
	{ NOTE_G3, 119 }, 
	{ NOTE_A3, 238 }, 
	{ NOTE_A3, 238 }, 
	{ NOTE_A3, 238 }, 
	{ NOTE_C4, 119 }, 
	{ NOTE_C4, 119 }, 
	{ NOTE_REST, 119 }, 
	{ NOTE_A3, 119 }, 
	{ NOTE_A3, 238 }, 
	{ NOTE_C4, 119 }, 
	{ NOTE_B3, 119 }, 
	{ NOTE_A3, 238 }, 
	{ NOTE_D4, 238 }, 
	{ NOTE_D4, 238 }, 
	{ NOTE_A3, 238 }, 
	{ NOTE_C4, 119 }, 
	{ NOTE_C4, 119 }, 
	{ NOTE_REST, 119 }, 
	{ NOTE_A3, 119 }, 
	{ NOTE_A3, 238 }, 
	{ NOTE_C4, 119 }, 
	{ NOTE_B3, 119 }, 
	{ NOTE_A3, 119 }, 
	{ NOTE_G3, 119 }, 
	{ NOTE_A3, 119 }, 
	{ NOTE_REST, 119 }, 
	{ NOTE_REST, 238 }, 
	{ NOTE_E4, 357 }, 
	{ NOTE_FS4, 357 }, 
	{ NOTE_G4, 238 }, 
	{ NOTE_A4, 357 }, 
	{ NOTE_G4, 357 }, 
	{ NOTE_FS4, 238 }, 
	{ NOTE_E4, 357 }, 
	{ NOTE_G4, 357 }, 
	{ NOTE_FS4, 238 }, 
	{ NOTE_D4, 357 }, 
	{ NOTE_FS4, 357 }, 
	{ NOTE_D4, 238 }, 
	{ NOTE_E4, 357 }, 
	{ NOTE_FS4, 357 }, 
	{ NOTE_G4, 238 }, 
	{ NOTE_A4, 357 }, 
	{ NOTE_G4, 357 }, 
	{ NOTE_FS4, 238 }, 
	{ NOTE_E4, 357 }, 
	{ NOTE_G4, 357 }, 
	{ NOTE_FS4, 238 }, 
	{ NOTE_D4, 952 }, 
	{ NOTE_E4, 357 }, 
	{ NOTE_FS4, 357 }, 
	{ NOTE_G4, 238 }, 
	{ NOTE_A4, 357 }, 
	{ NOTE_G4, 357 }, 
	{ NOTE_FS4, 238 }, 
	{ NOTE_E4, 357 }, 
	{ NOTE_G4, 357 }, 
	{ NOTE_FS4, 238 }, 
	{ NOTE_D4, 357 }, 
	{ NOTE_FS4, 357 }, 
	{ NOTE_D4, 238 }, 
	{ NOTE_E4, 357 }, 
	{ NOTE_FS4, 357 }, 
	{ NOTE_G4, 238 }, 
	{ NOTE_A4, 357 }, 
	{ NOTE_G4, 357 }, 
	{ NOTE_FS4, 238 }, 
	{ NOTE_E4, 357 }, 
	{ NOTE_G4, 357 }, 
	{ NOTE_FS4, 238 }, 
	{ NOTE_D4, 952 }, 
	{ NOTE_A3, 357 }, 
	{ NOTE_B3, 357 }, 
	{ NOTE_C4, 238 }, 
	{ NOTE_D4, 357 }, 
	{ NOTE_C4, 357 }, 
	{ NOTE_B3, 238 }, 
	{ NOTE_A3, 357 }, 
	{ NOTE_C4, 357 }, 
	{ NOTE_B3, 238 }, 
	{ NOTE_G3, 357 }, 
	{ NOTE_B3, 357 }, 
	{ NOTE_G3, 238 }, 
	{ NOTE_A3, 357 }, 
	{ NOTE_B3, 357 }, 
	{ NOTE_C4, 238 }, 
	{ NOTE_D4, 357 }, 
	{ NOTE_C4, 357 }, 
	{ NOTE_B3, 238 }, 
	{ NOTE_A3, 357 }, 
	{ NOTE_C4, 357 }, 
	{ NOTE_B3, 238 }, 
	{ NOTE_G3, 952 }, 
	{ NOTE_A3, 357 }, 
	{ NOTE_B3, 357 }, 
	{ NOTE_C4, 238 }, 
	{ NOTE_D4, 357 }, 
	{ NOTE_C4, 357 }, 
	{ NOTE_B3, 238 }, 
	{ NOTE_A3, 357 }, 
	{ NOTE_C4, 357 }, 
	{ NOTE_B3, 238 }, 
	{ NOTE_G3, 357 }, 
	{ NOTE_B3, 357 }, 
	{ NOTE_G3, 238 }, 
	{ NOTE_A3, 357 }, 
	{ NOTE_B3, 357 }, 
	{ NOTE_C4, 238 }, 
	{ NOTE_D4, 357 }, 
	{ NOTE_C4, 357 }, 
	{ NOTE_B3, 238 }, 
	{ NOTE_A3, 357 }, 
	{ NOTE_C4, 357 }, 
	{ NOTE_B3, 238 }, 
	{ NOTE_G3, 952 }, 
	{ NOTE_D4, 119 }, 
	{ NOTE_E4, 119 }, 
	{ NOTE_REST, 119 }, 
	{ NOTE_E4, 119 }, 
	{ NOTE_REST, 119 }, 
	{ NOTE_E4, 119 }, 
	{ NOTE_E4, 238 }, 
	{ NOTE_G4, 119 }, 
	{ NOTE_E4, 119 }, 
	{ NOTE_REST, 119 }, 
	{ NOTE_E4, 119 }, 
	{ NOTE_REST, 119 }, 
	{ NOTE_E4, 119 }, 
	{ NOTE_E4, 238 }, 
	{ NOTE_A4, 119 }, 
	{ NOTE_E4, 119 }, 
	{ NOTE_REST, 119 }, 
	{ NOTE_E4, 119 }, 
	{ NOTE_REST, 119 }, 
	{ NOTE_E4, 119 }, 
	{ NOTE_E4, 238 }, 
	{ NOTE_C5, 119 }, 
	{ NOTE_B4, 119 }, 
	{ NOTE_A4, 119 }, 
	{ NOTE_G4, 119 }, 
	{ NOTE_B4, 119 }, 
	{ NOTE_A4, 119 }, 
	{ NOTE_G4, 119 }, 
	{ NOTE_D4, 119 }, 
	{ NOTE_D4, 119 }, 
	{ NOTE_E4, 119 }, 
	{ NOTE_REST, 119 }, 
	{ NOTE_E4, 119 }, 
	{ NOTE_REST, 119 }, 
	{ NOTE_E4, 119 }, 
	{ NOTE_E4, 238 }, 
	{ NOTE_G4, 119 }, 
	{ NOTE_E4, 119 }, 
	{ NOTE_REST, 119 }, 
	{ NOTE_E4, 119 }, 
	{ NOTE_REST, 119 }, 
	{ NOTE_E4, 119 }, 
	{ NOTE_E4, 238 }, 
	{ NOTE_A4, 119 }, 
	{ NOTE_E4, 119 }, 
	{ NOTE_REST, 119 }, 
	{ NOTE_E4, 119 }, 
	{ NOTE_REST, 119 }, 
	{ NOTE_E4, 119 }, 
	{ NOTE_E4, 238 }, 
	{ NOTE_E5, 119 }, 
	{ NOTE_D5, 119 }, 
	{ NOTE_C5, 119 }, 
	{ NOTE_B4, 119 }, 
	{ NOTE_C5, 476 }, 
	{ NOTE_D4, 119 }, 
	{ NOTE_E4, 119 }, 
	{ NOTE_REST, 119 }, 
	{ NOTE_E4, 119 }, 
	{ NOTE_REST, 119 }, 
	{ NOTE_E4, 119 }, 
	{ NOTE_E4, 238 }, 
	{ NOTE_G4, 119 }, 
	{ NOTE_E4, 119 }, 
	{ NOTE_REST, 119 }, 
	{ NOTE_E4, 119 }, 
	{ NOTE_REST, 119 }, 
	{ NOTE_E4, 119 }, 
	{ NOTE_E4, 238 }, 
	{ NOTE_A4, 119 }, 
	{ NOTE_E4, 119 }, 
	{ NOTE_REST, 119 }, 
	{ NOTE_E4, 119 }, 
	{ NOTE_REST, 119 }, 
	{ NOTE_E4, 119 }, 
	{ NOTE_E4, 238 }, 
	{ NOTE_C5, 119 }, 
	{ NOTE_B4, 119 }, 
	{ NOTE_A4, 119 }, 
	{ NOTE_G4, 119 }, 
	{ NOTE_B4, 119 }, 
	{ NOTE_A4, 119 }, 
	{ NOTE_G4, 119 }, 
	{ NOTE_D4, 119 }, 
	{ NOTE_D4, 119 }, 
	{ NOTE_E4, 119 }, 
	{ NOTE_REST, 119 }, 
	{ NOTE_E4, 119 }, 
	{ NOTE_REST, 119 }, 
	{ NOTE_E4, 119 }, 
	{ NOTE_E4, 238 }, 
	{ NOTE_G4, 119 }, 
	{ NOTE_E4, 119 }, 
	{ NOTE_REST, 119 }, 
	{ NOTE_E4, 119 }, 
	{ NOTE_REST, 119 }, 
	{ NOTE_E4, 119 }, 
	{ NOTE_E4, 238 }, 
	{ NOTE_A4, 119 }, 
	{ NOTE_E4, 119 }, 
	{ NOTE_REST, 119 }, 
	{ NOTE_E4, 119 }, 
	{ NOTE_REST, 119 }, 
	{ NOTE_E4, 119 }, 
	{ NOTE_E4, 238 }, 
	{ NOTE_E5, 119 }, 
	{ NOTE_D5, 119 }, 
	{ NOTE_C5, 119 }, 
	{ NOTE_B4, 119 }, 
	{ NOTE_C5, 476 }, 
	{ NOTE_E4, 1904 }, 
	{ NOTE_C4, 952 }, 
	{ NOTE_D4, 952 }, 
	{ NOTE_E4, 1904 }, 
	{ NOTE_C4, 952 }, 
	{ NOTE_D4, 952 }, 
	{ NOTE_E4, 1904 }, 
	{ NOTE_C4, 952 }, 
	{ NOTE_D4, 952 }, 
	{ NOTE_E4, 1904 }, 
	{ NOTE_C4, 952 }, 
	{ NOTE_D4, 952 }, 
	{ NOTE_G4, 1904 }, 
	{ NOTE_DS4, 952 }, 
	{ NOTE_F4, 952 }, 
	{ NOTE_G4, 1904 }, 
	{ NOTE_DS4, 952 }, 
	{ NOTE_F4, 952 }, 
	{ NOTE_G4, 1904 }, 
	{ NOTE_DS4, 952 }, 
	{ NOTE_F4, 952 }, 
	{ NOTE_G4, 1904 }, 
	{ NOTE_DS4, 952 }, 
	{ NOTE_F4, 952 }, 
	{ NOTE_A4, 357 }, 
	{ NOTE_G4, 119 }, 
	{ NOTE_A4, 119 }, 
	{ NOTE_G4, 119 }, 
	{ NOTE_A4, 119 }, 
	{ NOTE_G4, 119 }, 
	{ NOTE_C5, 238 }, 
	{ NOTE_C5, 238 }, 
	{ NOTE_A4, 476 }, 
	{ NOTE_A4, 357 }, 
	{ NOTE_G4, 119 }, 
	{ NOTE_A4, 119 }, 
	{ NOTE_G4, 119 }, 
	{ NOTE_A4, 119 }, 
	{ NOTE_G4, 119 }, 
	{ NOTE_G4, 119 }, 
	{ NOTE_B4, 119 }, 
	{ NOTE_B4, 119 }, 
	{ NOTE_B4, 119 }, 
	{ NOTE_C5, 119 }, 
	{ NOTE_B4, 119 }, 
	{ NOTE_A4, 119 }, 
	{ NOTE_G4, 119 }, 
	{ NOTE_A4, 357 }, 
	{ NOTE_G4, 119 }, 
	{ NOTE_A4, 119 }, 
	{ NOTE_G4, 119 }, 
	{ NOTE_A4, 119 }, 
	{ NOTE_G4, 119 }, 
	{ NOTE_C5, 238 }, 
	{ NOTE_C5, 238 }, 
	{ NOTE_A4, 476 }, 
	{ NOTE_A4, 357 }, 
	{ NOTE_G4, 119 }, 
	{ NOTE_A4, 119 }, 
	{ NOTE_G4, 119 }, 
	{ NOTE_A4, 119 }, 
	{ NOTE_G4, 119 }, 
	{ NOTE_G4, 119 }, 
	{ NOTE_B4, 119 }, 
	{ NOTE_B4, 119 }, 
	{ NOTE_B4, 119 }, 
	{ NOTE_C5, 119 }, 
	{ NOTE_B4, 119 }, 
	{ NOTE_A4, 119 }, 
	{ NOTE_G4, 119 }, 
	{ NOTE_A4, 357 }, 
	{ NOTE_G4, 119 }, 
	{ NOTE_A4, 119 }, 
	{ NOTE_G4, 119 }, 
	{ NOTE_A4, 119 }, 
	{ NOTE_G4, 119 }, 
	{ NOTE_C5, 238 }, 
	{ NOTE_C5, 238 }, 
	{ NOTE_A4, 476 }, 
	{ NOTE_A4, 357 }, 
	{ NOTE_G4, 119 }, 
	{ NOTE_A4, 119 }, 
	{ NOTE_G4, 119 }, 
	{ NOTE_A4, 119 }, 
	{ NOTE_G4, 119 }, 
	{ NOTE_G4, 119 }, 
	{ NOTE_B4, 119 }, 
	{ NOTE_B4, 119 }, 
	{ NOTE_B4, 119 }, 
	{ NOTE_C5, 119 }, 
	{ NOTE_B4, 119 }, 
	{ NOTE_A4, 119 }, 
	{ NOTE_G4, 119 }, 
	{ NOTE_A4, 450 }, 
	{ NOTE_G4, 150 }, 
	{ NOTE_A4, 150 }, 
	{ NOTE_G4, 150 }, 
	{ NOTE_A4, 150 }, 
	{ NOTE_G4, 150 }, 
	{ NOTE_C5, 300 }, 
	{ NOTE_C5, 300 }, 
	{ NOTE_A4, 600 }, 
	{ NOTE_A4, 562 }, 
	{ NOTE_G4, 188 }, 
	{ NOTE_A4, 188 }, 
	{ NOTE_G4, 188 }, 
	{ NOTE_A4, 188 }, 
	{ NOTE_G4, 186 }, 
	{ NOTE_G4, 188 }, 
	{ NOTE_G4, 0 }, 
	{ NOTE_B4, 188 }, 
	{ NOTE_B4, 188 }, 
	{ NOTE_B4, 188 }, 
	{ NOTE_C5, 188 }, 
	{ NOTE_B4, 62 }, 
	{ NOTE_C5, 62 }, 
	{ NOTE_B4, 62 }, 
	{ NOTE_A4, 188 }, 
	{ NOTE_G4, 186 }, 
	{ NOTE_A4, 562 }, 
	{ NOTE_D5, 62 }, 
	{ NOTE_E5, 62 }, 
	{ NOTE_D5, 62 }, 
	{ NOTE_C5, 375 }, 
	{ NOTE_B4, 377 }, 
	{ NOTE_C5, 375 }, 
	{ NOTE_D5, 375 }, 
	{ NOTE_C5, 375 }, 
	{ NOTE_B4, 375 }, 
	{ NOTE_A4, 750 }, 
	{ NOTE_A3, 375 }, 
	{ NOTE_REST, 375 }, 
	{ NOTE_REST, 1500 }, 
	{ NOTE_REST, 1500 }, 
};
const uint16_t NUM_OF_NOTES3 = sizeof(melody3)/sizeof(melody3[0]);

const Note melody4[] PROGMEM = {
	{ NOTE_REST, 750 }, 
	{ NOTE_REST, 375 }, 
	{ NOTE_REST, 188 }, 
	{ NOTE_FS4, 187 }, 
	{ NOTE_FS4, 1313 }, 
	{ NOTE_FS4, 94 }, 
	{ NOTE_FS4, 93 }, 
	{ NOTE_FS4, 188 }, 
	{ NOTE_REST, 750 }, 
	{ NOTE_REST, 375 }, 
	{ NOTE_REST, 187 }, 
	{ NOTE_D4, 1313 }, 
	{ NOTE_D4, 94 }, 
	{ NOTE_D4, 93 }, 
	{ NOTE_E4, 188 }, 
	{ NOTE_REST, 750 }, 
	{ NOTE_REST, 375 }, 
	{ NOTE_REST, 187 }, 
	{ NOTE_FS4, 1313 }, 
	{ NOTE_FS4, 94 }, 
	{ NOTE_FS4, 93 }, 
	{ NOTE_FS4, 188 }, 
	{ NOTE_REST, 750 }, 
	{ NOTE_REST, 375 }, 
	{ NOTE_REST, 187 }, 
	{ NOTE_D4, 1313 }, 
	{ NOTE_D4, 94 }, 
	{ NOTE_D4, 93 }, 
	{ NOTE_E4, 188 }, 
	{ NOTE_REST, 750 }, 
	{ NOTE_REST, 375 }, 
	{ NOTE_REST, 187 }, 
	{ NOTE_FS4, 1313 }, 
	{ NOTE_FS4, 94 }, 
	{ NOTE_FS4, 93 }, 
	{ NOTE_FS4, 188 }, 
	{ NOTE_REST, 750 }, 
	{ NOTE_REST, 375 }, 
	{ NOTE_REST, 187 }, 
	{ NOTE_D4, 1313 }, 
	{ NOTE_D4, 94 }, 
	{ NOTE_D4, 93 }, 
	{ NOTE_E4, 188 }, 
	{ NOTE_REST, 750 }, 
	{ NOTE_REST, 375 }, 
	{ NOTE_REST, 187 }, 
	{ NOTE_FS4, 1313 }, 
	{ NOTE_FS4, 94 }, 
	{ NOTE_FS4, 93 }, 
	{ NOTE_FS4, 188 }, 
	{ NOTE_REST, 750 }, 
	{ NOTE_REST, 375 }, 
	{ NOTE_REST, 187 }, 
	{ NOTE_D4, 1313 }, 
	{ NOTE_D4, 94 }, 
	{ NOTE_D4, 93 }, 
	{ NOTE_E4, 1500 }, 
	{ NOTE_A4, 130 }, 
	{ NOTE_A4, 196 }, 
	{ NOTE_REST, 65 }, 
	{ NOTE_A4, 130 }, 
	{ NOTE_A4, 130 }, 
	{ NOTE_A4, 130 }, 
	{ NOTE_A4, 130 }, 
	{ NOTE_A4, 132 }, 
	{ NOTE_A4, 196 }, 
	{ NOTE_REST, 65 }, 
	{ NOTE_A4, 196 }, 
	{ NOTE_REST, 65 }, 
	{ NOTE_A4, 130 }, 
	{ NOTE_A4, 130 }, 
	{ NOTE_A4, 196 }, 
	{ NOTE_REST, 65 }, 
	{ NOTE_F4, 261 }, 
	{ NOTE_F4, 65 }, 
	{ NOTE_REST, 65 }, 
	{ NOTE_F4, 130 }, 
	{ NOTE_F4, 130 }, 
	{ NOTE_F4, 130 }, 
	{ NOTE_F4, 130 }, 
	{ NOTE_F4, 132 }, 
	{ NOTE_G4, 130 }, 
	{ NOTE_G4, 130 }, 
	{ NOTE_G4, 130 }, 
	{ NOTE_G4, 130 }, 
	{ NOTE_G4, 130 }, 
	{ NOTE_G4, 130 }, 
	{ NOTE_G4, 130 }, 
	{ NOTE_G4, 133 }, 
	{ NOTE_A4, 119 }, 
	{ NOTE_A4, 179 }, 
	{ NOTE_REST, 60 }, 
	{ NOTE_A4, 119 }, 
	{ NOTE_A4, 119 }, 
	{ NOTE_A4, 119 }, 
	{ NOTE_A4, 119 }, 
	{ NOTE_A4, 118 }, 
	{ NOTE_A4, 179 }, 
	{ NOTE_REST, 60 }, 
	{ NOTE_A4, 179 }, 
	{ NOTE_REST, 60 }, 
	{ NOTE_A4, 119 }, 
	{ NOTE_A4, 119 }, 
	{ NOTE_A4, 179 }, 
	{ NOTE_REST, 57 }, 
	{ NOTE_F4, 238 }, 
	{ NOTE_F4, 60 }, 
	{ NOTE_REST, 60 }, 
	{ NOTE_F4, 119 }, 
	{ NOTE_F4, 119 }, 
	{ NOTE_F4, 119 }, 
	{ NOTE_F4, 119 }, 
	{ NOTE_F4, 118 }, 
	{ NOTE_G4, 119 }, 
	{ NOTE_G4, 119 }, 
	{ NOTE_G4, 119 }, 
	{ NOTE_G4, 119 }, 
	{ NOTE_G4, 119 }, 
	{ NOTE_G4, 119 }, 
	{ NOTE_G4, 119 }, 
	{ NOTE_G4, 119 }, 
	{ NOTE_A4, 119 }, 
	{ NOTE_A4, 179 }, 
	{ NOTE_REST, 60 }, 
	{ NOTE_A4, 119 }, 
	{ NOTE_A4, 119 }, 
	{ NOTE_A4, 119 }, 
	{ NOTE_A4, 119 }, 
	{ NOTE_A4, 118 }, 
	{ NOTE_A4, 179 }, 
	{ NOTE_REST, 60 }, 
	{ NOTE_A4, 179 }, 
	{ NOTE_REST, 60 }, 
	{ NOTE_A4, 119 }, 
	{ NOTE_A4, 119 }, 
	{ NOTE_A4, 179 }, 
	{ NOTE_REST, 57 }, 
	{ NOTE_F4, 238 }, 
	{ NOTE_F4, 60 }, 
	{ NOTE_REST, 60 }, 
	{ NOTE_F4, 119 }, 
	{ NOTE_F4, 119 }, 
	{ NOTE_F4, 119 }, 
	{ NOTE_F4, 119 }, 
	{ NOTE_F4, 118 }, 
	{ NOTE_G4, 119 }, 
	{ NOTE_G4, 119 }, 
	{ NOTE_G4, 119 }, 
	{ NOTE_G4, 119 }, 
	{ NOTE_G4, 119 }, 
	{ NOTE_G4, 119 }, 
	{ NOTE_G4, 119 }, 
	{ NOTE_G4, 119 }, 
	{ NOTE_A4, 119 }, 
	{ NOTE_A4, 179 }, 
	{ NOTE_REST, 60 }, 
	{ NOTE_A4, 119 }, 
	{ NOTE_A4, 119 }, 
	{ NOTE_A4, 119 }, 
	{ NOTE_A4, 119 }, 
	{ NOTE_A4, 118 }, 
	{ NOTE_A4, 179 }, 
	{ NOTE_REST, 60 }, 
	{ NOTE_A4, 179 }, 
	{ NOTE_REST, 60 }, 
	{ NOTE_A4, 119 }, 
	{ NOTE_A4, 119 }, 
	{ NOTE_A4, 179 }, 
	{ NOTE_REST, 57 }, 
	{ NOTE_F3, 238 }, 
	{ NOTE_F4, 60 }, 
	{ NOTE_REST, 60 }, 
	{ NOTE_F3, 119 }, 
	{ NOTE_F4, 119 }, 
	{ NOTE_F4, 119 }, 
	{ NOTE_F4, 119 }, 
	{ NOTE_F4, 118 }, 
	{ NOTE_G4, 119 }, 
	{ NOTE_G4, 119 }, 
	{ NOTE_G4, 119 }, 
	{ NOTE_G4, 119 }, 
	{ NOTE_G4, 119 }, 
	{ NOTE_G4, 119 }, 
	{ NOTE_G4, 119 }, 
	{ NOTE_G4, 119 }, 
	{ NOTE_D4, 119 }, 
	{ NOTE_E4, 119 }, 
	{ NOTE_E4, 119 }, 
	{ NOTE_E4, 179 }, 
	{ NOTE_REST, 60 }, 
	{ NOTE_E4, 119 }, 
	{ NOTE_E4, 179 }, 
	{ NOTE_REST, 58 }, 
	{ NOTE_D4, 119 }, 
	{ NOTE_E4, 119 }, 
	{ NOTE_E4, 119 }, 
	{ NOTE_E4, 179 }, 
	{ NOTE_REST, 60 }, 
	{ NOTE_E4, 119 }, 
	{ NOTE_E4, 179 }, 
	{ NOTE_REST, 58 }, 
	{ NOTE_D4, 119 }, 
	{ NOTE_E4, 119 }, 
	{ NOTE_E4, 119 }, 
	{ NOTE_E4, 179 }, 
	{ NOTE_REST, 60 }, 
	{ NOTE_E4, 119 }, 
	{ NOTE_E4, 179 }, 
	{ NOTE_REST, 58 }, 
	{ NOTE_D4, 179 }, 
	{ NOTE_REST, 60 }, 
	{ NOTE_D4, 119 }, 
	{ NOTE_FS4, 179 }, 
	{ NOTE_REST, 60 }, 
	{ NOTE_E4, 119 }, 
	{ NOTE_D4, 179 }, 
	{ NOTE_REST, 57 }, 
	{ NOTE_D4, 119 }, 
	{ NOTE_E4, 119 }, 
	{ NOTE_E4, 119 }, 
	{ NOTE_E4, 179 }, 
	{ NOTE_REST, 60 }, 
	{ NOTE_E4, 119 }, 
	{ NOTE_E4, 179 }, 
	{ NOTE_REST, 58 }, 
	{ NOTE_D4, 119 }, 
	{ NOTE_E4, 119 }, 
	{ NOTE_E4, 119 }, 
	{ NOTE_E4, 179 }, 
	{ NOTE_REST, 60 }, 
	{ NOTE_E4, 119 }, 
	{ NOTE_E4, 179 }, 
	{ NOTE_REST, 58 }, 
	{ NOTE_D4, 119 }, 
	{ NOTE_E4, 119 }, 
	{ NOTE_E4, 119 }, 
	{ NOTE_E4, 179 }, 
	{ NOTE_REST, 60 }, 
	{ NOTE_E4, 119 }, 
	{ NOTE_E4, 179 }, 
	{ NOTE_REST, 58 }, 
	{ NOTE_D4, 179 }, 
	{ NOTE_REST, 60 }, 
	{ NOTE_D4, 119 }, 
	{ NOTE_D4, 179 }, 
	{ NOTE_REST, 60 }, 
	{ NOTE_D4, 119 }, 
	{ NOTE_D4, 179 }, 
	{ NOTE_REST, 57 }, 
	{ NOTE_D4, 119 }, 
	{ NOTE_E4, 119 }, 
	{ NOTE_E4, 119 }, 
	{ NOTE_E4, 179 }, 
	{ NOTE_REST, 60 }, 
	{ NOTE_E4, 119 }, 
	{ NOTE_E4, 179 }, 
	{ NOTE_REST, 58 }, 
	{ NOTE_D4, 119 }, 
	{ NOTE_E4, 119 }, 
	{ NOTE_E4, 119 }, 
	{ NOTE_E4, 179 }, 
	{ NOTE_REST, 60 }, 
	{ NOTE_E4, 119 }, 
	{ NOTE_E4, 179 }, 
	{ NOTE_REST, 58 }, 
	{ NOTE_D4, 119 }, 
	{ NOTE_E4, 119 }, 
	{ NOTE_E4, 119 }, 
	{ NOTE_E4, 179 }, 
	{ NOTE_REST, 60 }, 
	{ NOTE_E4, 119 }, 
	{ NOTE_E4, 179 }, 
	{ NOTE_REST, 58 }, 
	{ NOTE_D4, 179 }, 
	{ NOTE_REST, 60 }, 
	{ NOTE_D4, 119 }, 
	{ NOTE_FS4, 179 }, 
	{ NOTE_REST, 60 }, 
	{ NOTE_E4, 119 }, 
	{ NOTE_D4, 179 }, 
	{ NOTE_REST, 57 }, 
	{ NOTE_D4, 119 }, 
	{ NOTE_E4, 119 }, 
	{ NOTE_E4, 119 }, 
	{ NOTE_E4, 179 }, 
	{ NOTE_REST, 60 }, 
	{ NOTE_E4, 119 }, 
	{ NOTE_E4, 179 }, 
	{ NOTE_REST, 58 }, 
	{ NOTE_D4, 119 }, 
	{ NOTE_E4, 119 }, 
	{ NOTE_E4, 119 }, 
	{ NOTE_E4, 179 }, 
	{ NOTE_REST, 60 }, 
	{ NOTE_E4, 119 }, 
	{ NOTE_E4, 179 }, 
	{ NOTE_REST, 58 }, 
	{ NOTE_D4, 119 }, 
	{ NOTE_E4, 119 }, 
	{ NOTE_E4, 119 }, 
	{ NOTE_E4, 179 }, 
	{ NOTE_REST, 60 }, 
	{ NOTE_E4, 119 }, 
	{ NOTE_E4, 179 }, 
	{ NOTE_REST, 58 }, 
	{ NOTE_D4, 179 }, 
	{ NOTE_REST, 60 }, 
	{ NOTE_D4, 119 }, 
	{ NOTE_D4, 179 }, 
	{ NOTE_REST, 60 }, 
	{ NOTE_D4, 119 }, 
	{ NOTE_D4, 179 }, 
	{ NOTE_REST, 57 }, 
	{ NOTE_G4, 119 }, 
	{ NOTE_A4, 119 }, 
	{ NOTE_A4, 119 }, 
	{ NOTE_A4, 179 }, 
	{ NOTE_REST, 60 }, 
	{ NOTE_A4, 119 }, 
	{ NOTE_A4, 179 }, 
	{ NOTE_REST, 58 }, 
	{ NOTE_G4, 119 }, 
	{ NOTE_A4, 119 }, 
	{ NOTE_A4, 119 }, 
	{ NOTE_A4, 179 }, 
	{ NOTE_REST, 60 }, 
	{ NOTE_A4, 119 }, 
	{ NOTE_A4, 179 }, 
	{ NOTE_REST, 58 }, 
	{ NOTE_G4, 119 }, 
	{ NOTE_A4, 119 }, 
	{ NOTE_A4, 119 }, 
	{ NOTE_A4, 179 }, 
	{ NOTE_REST, 60 }, 
	{ NOTE_A4, 119 }, 
	{ NOTE_A4, 179 }, 
	{ NOTE_REST, 58 }, 
	{ NOTE_G4, 179 }, 
	{ NOTE_REST, 60 }, 
	{ NOTE_G4, 119 }, 
	{ NOTE_B4, 179 }, 
	{ NOTE_REST, 60 }, 
	{ NOTE_A4, 119 }, 
	{ NOTE_G4, 179 }, 
	{ NOTE_REST, 57 }, 
	{ NOTE_G4, 119 }, 
	{ NOTE_A4, 119 }, 
	{ NOTE_A4, 119 }, 
	{ NOTE_A4, 179 }, 
	{ NOTE_REST, 60 }, 
	{ NOTE_A4, 119 }, 
	{ NOTE_A4, 179 }, 
	{ NOTE_REST, 58 }, 
	{ NOTE_G4, 119 }, 
	{ NOTE_A4, 119 }, 
	{ NOTE_A4, 119 }, 
	{ NOTE_A4, 179 }, 
	{ NOTE_REST, 60 }, 
	{ NOTE_A4, 119 }, 
	{ NOTE_A4, 179 }, 
	{ NOTE_REST, 58 }, 
	{ NOTE_G4, 119 }, 
	{ NOTE_A4, 119 }, 
	{ NOTE_A4, 119 }, 
	{ NOTE_A4, 179 }, 
	{ NOTE_REST, 60 }, 
	{ NOTE_A4, 119 }, 
	{ NOTE_A4, 179 }, 
	{ NOTE_REST, 58 }, 
	{ NOTE_G4, 179 }, 
	{ NOTE_REST, 60 }, 
	{ NOTE_G4, 119 }, 
	{ NOTE_G4, 179 }, 
	{ NOTE_REST, 60 }, 
	{ NOTE_G4, 119 }, 
	{ NOTE_G4, 179 }, 
	{ NOTE_REST, 57 }, 
	{ NOTE_G4, 119 }, 
	{ NOTE_A4, 119 }, 
	{ NOTE_A4, 119 }, 
	{ NOTE_A4, 179 }, 
	{ NOTE_REST, 60 }, 
	{ NOTE_A4, 119 }, 
	{ NOTE_A4, 179 }, 
	{ NOTE_REST, 58 }, 
	{ NOTE_G4, 119 }, 
	{ NOTE_A4, 119 }, 
	{ NOTE_A4, 119 }, 
	{ NOTE_A4, 179 }, 
	{ NOTE_REST, 60 }, 
	{ NOTE_A4, 119 }, 
	{ NOTE_A4, 179 }, 
	{ NOTE_REST, 58 }, 
	{ NOTE_G4, 119 }, 
	{ NOTE_A4, 119 }, 
	{ NOTE_A4, 119 }, 
	{ NOTE_A4, 179 }, 
	{ NOTE_REST, 60 }, 
	{ NOTE_A4, 119 }, 
	{ NOTE_A4, 179 }, 
	{ NOTE_REST, 58 }, 
	{ NOTE_G4, 179 }, 
	{ NOTE_REST, 60 }, 
	{ NOTE_G4, 119 }, 
	{ NOTE_B4, 179 }, 
	{ NOTE_REST, 60 }, 
	{ NOTE_A4, 119 }, 
	{ NOTE_G4, 179 }, 
	{ NOTE_REST, 57 }, 
	{ NOTE_G4, 119 }, 
	{ NOTE_A4, 119 }, 
	{ NOTE_A4, 119 }, 
	{ NOTE_A4, 179 }, 
	{ NOTE_REST, 60 }, 
	{ NOTE_A4, 119 }, 
	{ NOTE_A4, 179 }, 
	{ NOTE_REST, 58 }, 
	{ NOTE_G4, 119 }, 
	{ NOTE_A4, 119 }, 
	{ NOTE_A4, 119 }, 
	{ NOTE_A4, 179 }, 
	{ NOTE_REST, 60 }, 
	{ NOTE_A4, 119 }, 
	{ NOTE_A4, 179 }, 
	{ NOTE_REST, 58 }, 
	{ NOTE_G4, 119 }, 
	{ NOTE_A4, 119 }, 
	{ NOTE_A4, 119 }, 
	{ NOTE_A4, 179 }, 
	{ NOTE_REST, 60 }, 
	{ NOTE_A4, 119 }, 
	{ NOTE_A4, 179 }, 
	{ NOTE_REST, 58 }, 
	{ NOTE_G4, 179 }, 
	{ NOTE_REST, 60 }, 
	{ NOTE_G4, 119 }, 
	{ NOTE_G4, 179 }, 
	{ NOTE_REST, 60 }, 
	{ NOTE_G3, 119 }, 
	{ NOTE_G3, 179 }, 
	{ NOTE_REST, 57 }, 
	{ NOTE_D4, 119 }, 
	{ NOTE_E4, 119 }, 
	{ NOTE_REST, 119 }, 
	{ NOTE_E4, 119 }, 
	{ NOTE_REST, 119 }, 
	{ NOTE_E4, 119 }, 
	{ NOTE_E4, 179 }, 
	{ NOTE_REST, 59 }, 
	{ NOTE_G4, 119 }, 
	{ NOTE_E4, 119 }, 
	{ NOTE_REST, 119 }, 
	{ NOTE_E4, 119 }, 
	{ NOTE_REST, 119 }, 
	{ NOTE_E4, 119 }, 
	{ NOTE_E4, 179 }, 
	{ NOTE_REST, 59 }, 
	{ NOTE_A4, 119 }, 
	{ NOTE_E4, 119 }, 
	{ NOTE_REST, 119 }, 
	{ NOTE_E4, 119 }, 
	{ NOTE_REST, 119 }, 
	{ NOTE_E4, 119 }, 
	{ NOTE_E4, 179 }, 
	{ NOTE_REST, 59 }, 
	{ NOTE_C5, 119 }, 
	{ NOTE_B4, 119 }, 
	{ NOTE_A4, 119 }, 
	{ NOTE_G4, 119 }, 
	{ NOTE_B4, 119 }, 
	{ NOTE_A4, 119 }, 
	{ NOTE_G4, 119 }, 
	{ NOTE_D4, 119 }, 
	{ NOTE_D4, 119 }, 
	{ NOTE_E4, 119 }, 
	{ NOTE_REST, 119 }, 
	{ NOTE_E4, 119 }, 
	{ NOTE_REST, 119 }, 
	{ NOTE_E4, 119 }, 
	{ NOTE_E4, 179 }, 
	{ NOTE_REST, 59 }, 
	{ NOTE_G4, 119 }, 
	{ NOTE_E4, 119 }, 
	{ NOTE_REST, 119 }, 
	{ NOTE_E4, 119 }, 
	{ NOTE_REST, 119 }, 
	{ NOTE_E4, 119 }, 
	{ NOTE_E4, 179 }, 
	{ NOTE_REST, 59 }, 
	{ NOTE_A4, 119 }, 
	{ NOTE_E4, 119 }, 
	{ NOTE_REST, 119 }, 
	{ NOTE_E4, 119 }, 
	{ NOTE_REST, 119 }, 
	{ NOTE_E4, 119 }, 
	{ NOTE_E4, 179 }, 
	{ NOTE_REST, 59 }, 
	{ NOTE_C5, 119 }, 
	{ NOTE_B4, 119 }, 
	{ NOTE_A4, 119 }, 
	{ NOTE_G4, 119 }, 
	{ NOTE_A4, 417 }, 
	{ NOTE_REST, 59 }, 
	{ NOTE_D4, 119 }, 
	{ NOTE_E4, 119 }, 
	{ NOTE_REST, 119 }, 
	{ NOTE_E4, 119 }, 
	{ NOTE_REST, 119 }, 
	{ NOTE_E4, 119 }, 
	{ NOTE_E4, 179 }, 
	{ NOTE_REST, 59 }, 
	{ NOTE_G4, 119 }, 
	{ NOTE_E4, 119 }, 
	{ NOTE_REST, 119 }, 
	{ NOTE_E4, 119 }, 
	{ NOTE_REST, 119 }, 
	{ NOTE_E4, 119 }, 
	{ NOTE_E4, 179 }, 
	{ NOTE_REST, 59 }, 
	{ NOTE_A4, 119 }, 
	{ NOTE_E4, 119 }, 
	{ NOTE_REST, 119 }, 
	{ NOTE_E4, 119 }, 
	{ NOTE_REST, 119 }, 
	{ NOTE_E4, 119 }, 
	{ NOTE_E4, 179 }, 
	{ NOTE_REST, 59 }, 
	{ NOTE_C5, 119 }, 
	{ NOTE_B4, 119 }, 
	{ NOTE_A4, 119 }, 
	{ NOTE_G4, 119 }, 
	{ NOTE_B4, 119 }, 
	{ NOTE_A4, 119 }, 
	{ NOTE_G4, 119 }, 
	{ NOTE_D4, 119 }, 
	{ NOTE_D4, 119 }, 
	{ NOTE_E4, 119 }, 
	{ NOTE_REST, 119 }, 
	{ NOTE_E4, 119 }, 
	{ NOTE_REST, 119 }, 
	{ NOTE_E4, 119 }, 
	{ NOTE_E4, 179 }, 
	{ NOTE_REST, 59 }, 
	{ NOTE_G4, 119 }, 
	{ NOTE_E4, 119 }, 
	{ NOTE_REST, 119 }, 
	{ NOTE_E4, 119 }, 
	{ NOTE_REST, 119 }, 
	{ NOTE_E4, 119 }, 
	{ NOTE_E4, 179 }, 
	{ NOTE_REST, 59 }, 
	{ NOTE_A4, 119 }, 
	{ NOTE_E4, 119 }, 
	{ NOTE_REST, 119 }, 
	{ NOTE_E4, 119 }, 
	{ NOTE_REST, 119 }, 
	{ NOTE_E4, 119 }, 
	{ NOTE_E4, 179 }, 
	{ NOTE_REST, 59 }, 
	{ NOTE_C5, 119 }, 
	{ NOTE_B4, 119 }, 
	{ NOTE_A4, 119 }, 
	{ NOTE_G4, 119 }, 
	{ NOTE_A4, 417 }, 
	{ NOTE_REST, 59 }, 
	{ NOTE_E4, 179 }, 
	{ NOTE_REST, 60 }, 
	{ NOTE_E4, 119 }, 
	{ NOTE_E4, 238 }, 
	{ NOTE_E4, 119 }, 
	{ NOTE_E4, 179 }, 
	{ NOTE_REST, 58 }, 
	{ NOTE_E4, 119 }, 
	{ NOTE_E4, 179 }, 
	{ NOTE_REST, 60 }, 
	{ NOTE_E4, 298 }, 
	{ NOTE_REST, 60 }, 
	{ NOTE_D4, 179 }, 
	{ NOTE_REST, 57 }, 
	{ NOTE_C4, 179 }, 
	{ NOTE_REST, 60 }, 
	{ NOTE_C4, 119 }, 
	{ NOTE_C4, 238 }, 
	{ NOTE_C4, 119 }, 
	{ NOTE_C4, 179 }, 
	{ NOTE_REST, 58 }, 
	{ NOTE_D4, 179 }, 
	{ NOTE_REST, 60 }, 
	{ NOTE_D4, 119 }, 
	{ NOTE_D4, 238 }, 
	{ NOTE_D4, 119 }, 
	{ NOTE_D4, 179 }, 
	{ NOTE_REST, 58 }, 
	{ NOTE_E4, 179 }, 
	{ NOTE_REST, 60 }, 
	{ NOTE_E4, 119 }, 
	{ NOTE_E4, 238 }, 
	{ NOTE_E4, 119 }, 
	{ NOTE_E4, 179 }, 
	{ NOTE_REST, 58 }, 
	{ NOTE_E4, 119 }, 
	{ NOTE_E4, 179 }, 
	{ NOTE_REST, 60 }, 
	{ NOTE_E4, 298 }, 
	{ NOTE_REST, 60 }, 
	{ NOTE_D4, 179 }, 
	{ NOTE_REST, 57 }, 
	{ NOTE_C4, 179 }, 
	{ NOTE_REST, 60 }, 
	{ NOTE_C4, 119 }, 
	{ NOTE_C4, 238 }, 
	{ NOTE_C4, 119 }, 
	{ NOTE_C4, 179 }, 
	{ NOTE_REST, 58 }, 
	{ NOTE_D4, 179 }, 
	{ NOTE_REST, 60 }, 
	{ NOTE_D4, 119 }, 
	{ NOTE_D4, 238 }, 
	{ NOTE_D4, 119 }, 
	{ NOTE_D4, 179 }, 
	{ NOTE_REST, 58 }, 
	{ NOTE_E4, 179 }, 
	{ NOTE_REST, 60 }, 
	{ NOTE_E4, 119 }, 
	{ NOTE_E4, 238 }, 
	{ NOTE_E4, 119 }, 
	{ NOTE_E4, 179 }, 
	{ NOTE_REST, 58 }, 
	{ NOTE_E4, 119 }, 
	{ NOTE_E4, 179 }, 
	{ NOTE_REST, 60 }, 
	{ NOTE_E4, 298 }, 
	{ NOTE_REST, 60 }, 
	{ NOTE_D4, 179 }, 
	{ NOTE_REST, 57 }, 
	{ NOTE_C4, 179 }, 
	{ NOTE_REST, 60 }, 
	{ NOTE_C4, 119 }, 
	{ NOTE_C4, 238 }, 
	{ NOTE_C4, 119 }, 
	{ NOTE_C4, 179 }, 
	{ NOTE_REST, 58 }, 
	{ NOTE_D4, 179 }, 
	{ NOTE_REST, 60 }, 
	{ NOTE_D4, 119 }, 
	{ NOTE_D4, 238 }, 
	{ NOTE_D4, 119 }, 
	{ NOTE_D4, 179 }, 
	{ NOTE_REST, 58 }, 
	{ NOTE_E4, 179 }, 
	{ NOTE_REST, 60 }, 
	{ NOTE_E4, 119 }, 
	{ NOTE_E4, 238 }, 
	{ NOTE_E4, 119 }, 
	{ NOTE_E4, 179 }, 
	{ NOTE_REST, 58 }, 
	{ NOTE_E4, 119 }, 
	{ NOTE_E4, 179 }, 
	{ NOTE_REST, 60 }, 
	{ NOTE_E4, 298 }, 
	{ NOTE_REST, 60 }, 
	{ NOTE_D4, 179 }, 
	{ NOTE_REST, 57 }, 
	{ NOTE_C4, 179 }, 
	{ NOTE_REST, 60 }, 
	{ NOTE_C4, 119 }, 
	{ NOTE_C4, 238 }, 
	{ NOTE_C4, 119 }, 
	{ NOTE_C4, 179 }, 
	{ NOTE_REST, 58 }, 
	{ NOTE_D4, 179 }, 
	{ NOTE_REST, 60 }, 
	{ NOTE_D4, 119 }, 
	{ NOTE_D4, 238 }, 
	{ NOTE_D4, 119 }, 
	{ NOTE_D4, 179 }, 
	{ NOTE_REST, 58 }, 
	{ NOTE_G3, 179 }, 
	{ NOTE_REST, 60 }, 
	{ NOTE_G3, 119 }, 
	{ NOTE_G3, 238 }, 
	{ NOTE_G3, 119 }, 
	{ NOTE_G3, 179 }, 
	{ NOTE_REST, 58 }, 
	{ NOTE_G3, 119 }, 
	{ NOTE_G3, 179 }, 
	{ NOTE_REST, 60 }, 
	{ NOTE_G3, 298 }, 
	{ NOTE_REST, 60 }, 
	{ NOTE_F3, 179 }, 
	{ NOTE_REST, 57 }, 
	{ NOTE_REST, 952 }, 
	{ NOTE_F3, 179 }, 
	{ NOTE_REST, 60 }, 
	{ NOTE_F3, 119 }, 
	{ NOTE_F3, 238 }, 
	{ NOTE_F3, 119 }, 
	{ NOTE_F3, 179 }, 
	{ NOTE_REST, 58 }, 
	{ NOTE_G3, 179 }, 
	{ NOTE_REST, 60 }, 
	{ NOTE_G3, 119 }, 
	{ NOTE_G3, 238 }, 
	{ NOTE_G3, 119 }, 
	{ NOTE_G3, 179 }, 
	{ NOTE_REST, 58 }, 
	{ NOTE_G3, 119 }, 
	{ NOTE_G3, 179 }, 
	{ NOTE_REST, 60 }, 
	{ NOTE_G3, 298 }, 
	{ NOTE_REST, 60 }, 
	{ NOTE_F3, 179 }, 
	{ NOTE_REST, 57 }, 
	{ NOTE_REST, 952 }, 
	{ NOTE_F3, 179 }, 
	{ NOTE_REST, 60 }, 
	{ NOTE_F3, 119 }, 
	{ NOTE_F3, 238 }, 
	{ NOTE_F3, 119 }, 
	{ NOTE_F3, 179 }, 
	{ NOTE_REST, 58 }, 
	{ NOTE_G3, 179 }, 
	{ NOTE_REST, 60 }, 
	{ NOTE_G3, 119 }, 
	{ NOTE_G3, 238 }, 
	{ NOTE_G3, 119 }, 
	{ NOTE_G3, 179 }, 
	{ NOTE_REST, 58 }, 
	{ NOTE_G3, 119 }, 
	{ NOTE_G3, 179 }, 
	{ NOTE_REST, 60 }, 
	{ NOTE_G3, 298 }, 
	{ NOTE_REST, 60 }, 
	{ NOTE_F3, 179 }, 
	{ NOTE_REST, 57 }, 
	{ NOTE_REST, 952 }, 
	{ NOTE_F3, 179 }, 
	{ NOTE_REST, 60 }, 
	{ NOTE_F3, 119 }, 
	{ NOTE_F3, 238 }, 
	{ NOTE_F3, 119 }, 
	{ NOTE_F3, 179 }, 
	{ NOTE_REST, 58 }, 
	{ NOTE_G3, 179 }, 
	{ NOTE_REST, 60 }, 
	{ NOTE_G3, 119 }, 
	{ NOTE_G3, 238 }, 
	{ NOTE_G3, 119 }, 
	{ NOTE_G3, 179 }, 
	{ NOTE_REST, 58 }, 
	{ NOTE_G3, 119 }, 
	{ NOTE_G3, 179 }, 
	{ NOTE_REST, 60 }, 
	{ NOTE_G3, 298 }, 
	{ NOTE_REST, 60 }, 
	{ NOTE_F3, 179 }, 
	{ NOTE_REST, 57 }, 
	{ NOTE_REST, 952 }, 
	{ NOTE_F3, 179 }, 
	{ NOTE_REST, 60 }, 
	{ NOTE_F3, 119 }, 
	{ NOTE_F3, 238 }, 
	{ NOTE_F3, 119 }, 
	{ NOTE_F3, 179 }, 
	{ NOTE_REST, 58 }, 
	{ NOTE_A3, 179 }, 
	{ NOTE_REST, 60 }, 
	{ NOTE_C4, 119 }, 
	{ NOTE_C4, 119 }, 
	{ NOTE_REST, 119 }, 
	{ NOTE_A3, 119 }, 
	{ NOTE_A3, 179 }, 
	{ NOTE_REST, 58 }, 
	{ NOTE_C4, 119 }, 
	{ NOTE_B3, 119 }, 
	{ NOTE_A3, 179 }, 
	{ NOTE_REST, 60 }, 
	{ NOTE_D4, 179 }, 
	{ NOTE_REST, 60 }, 
	{ NOTE_D4, 179 }, 
	{ NOTE_REST, 57 }, 
	{ NOTE_A3, 179 }, 
	{ NOTE_REST, 60 }, 
	{ NOTE_C4, 119 }, 
	{ NOTE_C4, 119 }, 
	{ NOTE_REST, 119 }, 
	{ NOTE_A3, 119 }, 
	{ NOTE_A3, 179 }, 
	{ NOTE_REST, 58 }, 
	{ NOTE_C4, 119 }, 
	{ NOTE_B3, 119 }, 
	{ NOTE_A3, 119 }, 
	{ NOTE_G3, 119 }, 
	{ NOTE_A3, 179 }, 
	{ NOTE_REST, 60 }, 
	{ NOTE_A3, 179 }, 
	{ NOTE_REST, 58 }, 
	{ NOTE_A3, 179 }, 
	{ NOTE_REST, 60 }, 
	{ NOTE_C4, 119 }, 
	{ NOTE_C4, 119 }, 
	{ NOTE_REST, 119 }, 
	{ NOTE_A3, 119 }, 
	{ NOTE_A3, 179 }, 
	{ NOTE_REST, 58 }, 
	{ NOTE_C4, 119 }, 
	{ NOTE_B3, 119 }, 
	{ NOTE_A3, 179 }, 
	{ NOTE_REST, 60 }, 
	{ NOTE_D4, 179 }, 
	{ NOTE_REST, 60 }, 
	{ NOTE_D4, 179 }, 
	{ NOTE_REST, 57 }, 
	{ NOTE_A3, 179 }, 
	{ NOTE_REST, 60 }, 
	{ NOTE_C4, 119 }, 
	{ NOTE_C4, 119 }, 
	{ NOTE_REST, 119 }, 
	{ NOTE_A3, 119 }, 
	{ NOTE_A3, 179 }, 
	{ NOTE_REST, 58 }, 
	{ NOTE_C4, 119 }, 
	{ NOTE_B3, 119 }, 
	{ NOTE_A3, 119 }, 
	{ NOTE_G3, 119 }, 
	{ NOTE_A3, 119 }, 
	{ NOTE_REST, 357 }, 
	{ NOTE_A3, 179 }, 
	{ NOTE_REST, 60 }, 
	{ NOTE_C4, 119 }, 
	{ NOTE_C4, 119 }, 
	{ NOTE_REST, 119 }, 
	{ NOTE_A3, 119 }, 
	{ NOTE_A3, 179 }, 
	{ NOTE_REST, 58 }, 
	{ NOTE_C4, 119 }, 
	{ NOTE_B3, 119 }, 
	{ NOTE_A3, 179 }, 
	{ NOTE_REST, 60 }, 
	{ NOTE_D4, 179 }, 
	{ NOTE_REST, 60 }, 
	{ NOTE_D4, 179 }, 
	{ NOTE_REST, 57 }, 
	{ NOTE_A3, 179 }, 
	{ NOTE_REST, 60 }, 
	{ NOTE_C4, 119 }, 
	{ NOTE_C4, 119 }, 
	{ NOTE_REST, 119 }, 
	{ NOTE_A3, 119 }, 
	{ NOTE_A3, 179 }, 
	{ NOTE_REST, 58 }, 
	{ NOTE_C4, 119 }, 
	{ NOTE_B3, 119 }, 
	{ NOTE_A3, 119 }, 
	{ NOTE_G3, 119 }, 
	{ NOTE_A3, 179 }, 
	{ NOTE_REST, 60 }, 
	{ NOTE_A3, 179 }, 
	{ NOTE_REST, 58 }, 
	{ NOTE_A3, 179 }, 
	{ NOTE_REST, 60 }, 
	{ NOTE_C4, 119 }, 
	{ NOTE_C4, 119 }, 
	{ NOTE_REST, 119 }, 
	{ NOTE_A3, 119 }, 
	{ NOTE_A3, 179 }, 
	{ NOTE_REST, 58 }, 
	{ NOTE_C4, 119 }, 
	{ NOTE_B3, 119 }, 
	{ NOTE_A3, 179 }, 
	{ NOTE_REST, 60 }, 
	{ NOTE_D4, 179 }, 
	{ NOTE_REST, 60 }, 
	{ NOTE_D4, 179 }, 
	{ NOTE_REST, 57 }, 
	{ NOTE_A3, 179 }, 
	{ NOTE_REST, 60 }, 
	{ NOTE_C4, 119 }, 
	{ NOTE_C4, 119 }, 
	{ NOTE_REST, 119 }, 
	{ NOTE_A3, 119 }, 
	{ NOTE_A3, 179 }, 
	{ NOTE_REST, 58 }, 
	{ NOTE_C4, 119 }, 
	{ NOTE_B3, 119 }, 
	{ NOTE_A3, 119 }, 
	{ NOTE_G3, 119 }, 
	{ NOTE_A3, 119 }, 
	{ NOTE_REST, 357 }, 
	{ NOTE_A3, 179 }, 
	{ NOTE_REST, 60 }, 
	{ NOTE_A3, 119 }, 
	{ NOTE_A3, 238 }, 
	{ NOTE_A3, 119 }, 
	{ NOTE_A3, 179 }, 
	{ NOTE_REST, 58 }, 
	{ NOTE_A3, 119 }, 
	{ NOTE_A3, 119 }, 
	{ NOTE_A3, 119 }, 
	{ NOTE_A3, 119 }, 
	{ NOTE_A3, 179 }, 
	{ NOTE_REST, 60 }, 
	{ NOTE_G3, 179 }, 
	{ NOTE_REST, 58 }, 
	{ NOTE_F3, 179 }, 
	{ NOTE_REST, 60 }, 
	{ NOTE_F3, 119 }, 
	{ NOTE_F3, 238 }, 
	{ NOTE_F3, 119 }, 
	{ NOTE_F3, 179 }, 
	{ NOTE_REST, 58 }, 
	{ NOTE_G3, 179 }, 
	{ NOTE_REST, 60 }, 
	{ NOTE_G3, 119 }, 
	{ NOTE_G3, 238 }, 
	{ NOTE_G3, 119 }, 
	{ NOTE_G3, 179 }, 
	{ NOTE_REST, 58 }, 
	{ NOTE_A3, 179 }, 
	{ NOTE_REST, 60 }, 
	{ NOTE_A3, 119 }, 
	{ NOTE_A3, 238 }, 
	{ NOTE_A3, 119 }, 
	{ NOTE_A3, 179 }, 
	{ NOTE_REST, 58 }, 
	{ NOTE_A3, 119 }, 
	{ NOTE_A3, 119 }, 
	{ NOTE_A3, 119 }, 
	{ NOTE_A3, 119 }, 
	{ NOTE_A3, 179 }, 
	{ NOTE_REST, 60 }, 
	{ NOTE_G3, 179 }, 
	{ NOTE_REST, 58 }, 
	{ NOTE_F3, 179 }, 
	{ NOTE_REST, 60 }, 
	{ NOTE_F3, 119 }, 
	{ NOTE_F3, 238 }, 
	{ NOTE_F3, 119 }, 
	{ NOTE_F3, 179 }, 
	{ NOTE_REST, 58 }, 
	{ NOTE_G3, 179 }, 
	{ NOTE_REST, 60 }, 
	{ NOTE_G3, 119 }, 
	{ NOTE_G3, 238 }, 
	{ NOTE_G3, 119 }, 
	{ NOTE_G3, 179 }, 
	{ NOTE_REST, 58 }, 
	{ NOTE_A3, 179 }, 
	{ NOTE_REST, 60 }, 
	{ NOTE_A3, 119 }, 
	{ NOTE_A3, 238 }, 
	{ NOTE_A3, 119 }, 
	{ NOTE_A3, 179 }, 
	{ NOTE_REST, 58 }, 
	{ NOTE_A3, 119 }, 
	{ NOTE_A3, 119 }, 
	{ NOTE_A3, 119 }, 
	{ NOTE_A3, 119 }, 
	{ NOTE_A3, 179 }, 
	{ NOTE_REST, 60 }, 
	{ NOTE_G3, 179 }, 
	{ NOTE_REST, 58 }, 
	{ NOTE_F3, 179 }, 
	{ NOTE_REST, 60 }, 
	{ NOTE_F3, 119 }, 
	{ NOTE_F3, 238 }, 
	{ NOTE_F3, 119 }, 
	{ NOTE_F3, 179 }, 
	{ NOTE_REST, 58 }, 
	{ NOTE_G3, 179 }, 
	{ NOTE_REST, 60 }, 
	{ NOTE_G3, 119 }, 
	{ NOTE_G3, 238 }, 
	{ NOTE_G3, 119 }, 
	{ NOTE_G3, 179 }, 
	{ NOTE_REST, 58 }, 
	{ NOTE_A3, 179 }, 
	{ NOTE_REST, 60 }, 
	{ NOTE_A3, 119 }, 
	{ NOTE_A3, 238 }, 
	{ NOTE_A3, 119 }, 
	{ NOTE_A3, 179 }, 
	{ NOTE_REST, 58 }, 
	{ NOTE_A3, 119 }, 
	{ NOTE_A3, 119 }, 
	{ NOTE_A3, 119 }, 
	{ NOTE_A3, 119 }, 
	{ NOTE_A3, 179 }, 
	{ NOTE_REST, 60 }, 
	{ NOTE_G3, 179 }, 
	{ NOTE_REST, 58 }, 
	{ NOTE_F3, 179 }, 
	{ NOTE_REST, 60 }, 
	{ NOTE_F3, 119 }, 
	{ NOTE_F3, 238 }, 
	{ NOTE_F3, 119 }, 
	{ NOTE_F3, 179 }, 
	{ NOTE_REST, 58 }, 
	{ NOTE_G3, 179 }, 
	{ NOTE_REST, 60 }, 
	{ NOTE_G3, 119 }, 
	{ NOTE_G3, 238 }, 
	{ NOTE_G3, 119 }, 
	{ NOTE_G3, 179 }, 
	{ NOTE_REST, 58 }, 
	{ NOTE_B3, 179 }, 
	{ NOTE_REST, 60 }, 
	{ NOTE_B3, 119 }, 
	{ NOTE_B3, 238 }, 
	{ NOTE_B3, 119 }, 
	{ NOTE_B3, 179 }, 
	{ NOTE_REST, 58 }, 
	{ NOTE_B3, 119 }, 
	{ NOTE_B3, 119 }, 
	{ NOTE_B3, 119 }, 
	{ NOTE_B3, 119 }, 
	{ NOTE_B3, 179 }, 
	{ NOTE_REST, 60 }, 
	{ NOTE_A3, 179 }, 
	{ NOTE_REST, 58 }, 
	{ NOTE_G3, 179 }, 
	{ NOTE_REST, 60 }, 
	{ NOTE_G3, 119 }, 
	{ NOTE_G3, 238 }, 
	{ NOTE_G3, 119 }, 
	{ NOTE_G3, 179 }, 
	{ NOTE_REST, 58 }, 
	{ NOTE_A3, 179 }, 
	{ NOTE_REST, 60 }, 
	{ NOTE_A3, 119 }, 
	{ NOTE_A3, 238 }, 
	{ NOTE_A3, 119 }, 
	{ NOTE_A3, 179 }, 
	{ NOTE_REST, 58 }, 
	{ NOTE_B3, 179 }, 
	{ NOTE_REST, 60 }, 
	{ NOTE_B3, 119 }, 
	{ NOTE_B3, 238 }, 
	{ NOTE_B3, 119 }, 
	{ NOTE_B3, 179 }, 
	{ NOTE_REST, 58 }, 
	{ NOTE_B3, 119 }, 
	{ NOTE_B3, 119 }, 
	{ NOTE_B3, 119 }, 
	{ NOTE_B3, 119 }, 
	{ NOTE_B3, 179 }, 
	{ NOTE_REST, 60 }, 
	{ NOTE_A3, 179 }, 
	{ NOTE_REST, 58 }, 
	{ NOTE_G3, 179 }, 
	{ NOTE_REST, 60 }, 
	{ NOTE_G3, 119 }, 
	{ NOTE_G3, 238 }, 
	{ NOTE_G3, 119 }, 
	{ NOTE_G3, 179 }, 
	{ NOTE_REST, 58 }, 
	{ NOTE_A3, 179 }, 
	{ NOTE_REST, 60 }, 
	{ NOTE_A3, 119 }, 
	{ NOTE_A3, 238 }, 
	{ NOTE_A3, 119 }, 
	{ NOTE_A3, 179 }, 
	{ NOTE_REST, 58 }, 
	{ NOTE_B3, 179 }, 
	{ NOTE_REST, 60 }, 
	{ NOTE_B3, 119 }, 
	{ NOTE_B3, 238 }, 
	{ NOTE_B3, 119 }, 
	{ NOTE_B3, 179 }, 
	{ NOTE_REST, 58 }, 
	{ NOTE_B3, 119 }, 
	{ NOTE_B3, 119 }, 
	{ NOTE_B3, 119 }, 
	{ NOTE_B3, 119 }, 
	{ NOTE_B3, 179 }, 
	{ NOTE_REST, 60 }, 
	{ NOTE_A3, 179 }, 
	{ NOTE_REST, 58 }, 
	{ NOTE_G3, 179 }, 
	{ NOTE_REST, 60 }, 
	{ NOTE_G3, 119 }, 
	{ NOTE_G3, 238 }, 
	{ NOTE_G3, 119 }, 
	{ NOTE_G3, 179 }, 
	{ NOTE_REST, 58 }, 
	{ NOTE_A3, 179 }, 
	{ NOTE_REST, 60 }, 
	{ NOTE_A3, 119 }, 
	{ NOTE_A3, 238 }, 
	{ NOTE_A3, 119 }, 
	{ NOTE_A3, 179 }, 
	{ NOTE_REST, 58 }, 
	{ NOTE_B3, 179 }, 
	{ NOTE_REST, 60 }, 
	{ NOTE_B3, 119 }, 
	{ NOTE_B3, 238 }, 
	{ NOTE_B3, 119 }, 
	{ NOTE_B3, 179 }, 
	{ NOTE_REST, 58 }, 
	{ NOTE_B3, 119 }, 
	{ NOTE_B3, 119 }, 
	{ NOTE_B3, 119 }, 
	{ NOTE_B3, 119 }, 
	{ NOTE_B3, 179 }, 
	{ NOTE_REST, 60 }, 
	{ NOTE_A3, 179 }, 
	{ NOTE_REST, 58 }, 
	{ NOTE_G3, 179 }, 
	{ NOTE_REST, 60 }, 
	{ NOTE_G3, 119 }, 
	{ NOTE_G3, 238 }, 
	{ NOTE_G3, 119 }, 
	{ NOTE_G3, 179 }, 
	{ NOTE_REST, 58 }, 
	{ NOTE_A3, 179 }, 
	{ NOTE_REST, 60 }, 
	{ NOTE_A3, 119 }, 
	{ NOTE_A3, 238 }, 
	{ NOTE_A3, 119 }, 
	{ NOTE_A3, 179 }, 
	{ NOTE_REST, 58 }, 
	{ NOTE_A3, 179 }, 
	{ NOTE_REST, 60 }, 
	{ NOTE_C4, 119 }, 
	{ NOTE_C4, 119 }, 
	{ NOTE_REST, 119 }, 
	{ NOTE_A3, 119 }, 
	{ NOTE_A3, 179 }, 
	{ NOTE_REST, 58 }, 
	{ NOTE_C4, 119 }, 
	{ NOTE_B3, 119 }, 
	{ NOTE_A3, 179 }, 
	{ NOTE_REST, 60 }, 
	{ NOTE_D4, 179 }, 
	{ NOTE_REST, 60 }, 
	{ NOTE_D4, 179 }, 
	{ NOTE_REST, 57 }, 
	{ NOTE_A3, 179 }, 
	{ NOTE_REST, 60 }, 
	{ NOTE_C4, 119 }, 
	{ NOTE_C4, 119 }, 
	{ NOTE_REST, 119 }, 
	{ NOTE_A3, 119 }, 
	{ NOTE_A3, 179 }, 
	{ NOTE_REST, 58 }, 
	{ NOTE_C4, 119 }, 
	{ NOTE_B3, 119 }, 
	{ NOTE_A3, 119 }, 
	{ NOTE_G3, 119 }, 
	{ NOTE_A3, 179 }, 
	{ NOTE_REST, 60 }, 
	{ NOTE_A3, 179 }, 
	{ NOTE_REST, 58 }, 
	{ NOTE_A3, 179 }, 
	{ NOTE_REST, 60 }, 
	{ NOTE_C4, 119 }, 
	{ NOTE_C4, 119 }, 
	{ NOTE_REST, 119 }, 
	{ NOTE_A3, 119 }, 
	{ NOTE_A3, 179 }, 
	{ NOTE_REST, 58 }, 
	{ NOTE_C4, 119 }, 
	{ NOTE_B3, 119 }, 
	{ NOTE_A3, 179 }, 
	{ NOTE_REST, 60 }, 
	{ NOTE_D4, 179 }, 
	{ NOTE_REST, 60 }, 
	{ NOTE_D4, 179 }, 
	{ NOTE_REST, 57 }, 
	{ NOTE_A3, 179 }, 
	{ NOTE_REST, 60 }, 
	{ NOTE_C4, 119 }, 
	{ NOTE_C4, 119 }, 
	{ NOTE_REST, 119 }, 
	{ NOTE_A3, 119 }, 
	{ NOTE_A3, 179 }, 
	{ NOTE_REST, 58 }, 
	{ NOTE_C4, 119 }, 
	{ NOTE_B3, 119 }, 
	{ NOTE_A3, 119 }, 
	{ NOTE_G3, 119 }, 
	{ NOTE_A3, 119 }, 
	{ NOTE_REST, 357 }, 
	{ NOTE_A3, 179 }, 
	{ NOTE_REST, 60 }, 
	{ NOTE_C4, 119 }, 
	{ NOTE_C4, 119 }, 
	{ NOTE_REST, 119 }, 
	{ NOTE_A3, 119 }, 
	{ NOTE_A3, 179 }, 
	{ NOTE_REST, 58 }, 
	{ NOTE_C4, 119 }, 
	{ NOTE_B3, 119 }, 
	{ NOTE_A3, 179 }, 
	{ NOTE_REST, 60 }, 
	{ NOTE_D4, 179 }, 
	{ NOTE_REST, 60 }, 
	{ NOTE_D4, 179 }, 
	{ NOTE_REST, 57 }, 
	{ NOTE_A3, 179 }, 
	{ NOTE_REST, 60 }, 
	{ NOTE_C4, 119 }, 
	{ NOTE_C4, 119 }, 
	{ NOTE_REST, 119 }, 
	{ NOTE_A3, 119 }, 
	{ NOTE_A3, 179 }, 
	{ NOTE_REST, 58 }, 
	{ NOTE_C4, 119 }, 
	{ NOTE_B3, 119 }, 
	{ NOTE_A3, 119 }, 
	{ NOTE_G3, 119 }, 
	{ NOTE_A3, 179 }, 
	{ NOTE_REST, 60 }, 
	{ NOTE_A3, 179 }, 
	{ NOTE_REST, 58 }, 
	{ NOTE_A3, 179 }, 
	{ NOTE_REST, 60 }, 
	{ NOTE_C4, 119 }, 
	{ NOTE_C4, 119 }, 
	{ NOTE_REST, 119 }, 
	{ NOTE_A3, 119 }, 
	{ NOTE_A3, 179 }, 
	{ NOTE_REST, 58 }, 
	{ NOTE_C4, 119 }, 
	{ NOTE_B3, 119 }, 
	{ NOTE_A3, 179 }, 
	{ NOTE_REST, 60 }, 
	{ NOTE_D4, 179 }, 
	{ NOTE_REST, 60 }, 
	{ NOTE_D4, 179 }, 
	{ NOTE_REST, 57 }, 
	{ NOTE_A3, 179 }, 
	{ NOTE_REST, 60 }, 
	{ NOTE_C4, 119 }, 
	{ NOTE_C4, 119 }, 
	{ NOTE_REST, 119 }, 
	{ NOTE_A3, 119 }, 
	{ NOTE_A3, 179 }, 
	{ NOTE_REST, 58 }, 
	{ NOTE_C4, 119 }, 
	{ NOTE_B3, 119 }, 
	{ NOTE_A3, 119 }, 
	{ NOTE_G3, 119 }, 
	{ NOTE_A3, 119 }, 
	{ NOTE_REST, 357 }, 
	{ NOTE_D4, 119 }, 
	{ NOTE_E4, 119 }, 
	{ NOTE_E4, 119 }, 
	{ NOTE_E4, 179 }, 
	{ NOTE_REST, 60 }, 
	{ NOTE_E4, 119 }, 
	{ NOTE_E4, 179 }, 
	{ NOTE_REST, 58 }, 
	{ NOTE_D4, 119 }, 
	{ NOTE_E4, 119 }, 
	{ NOTE_E4, 119 }, 
	{ NOTE_E4, 179 }, 
	{ NOTE_REST, 60 }, 
	{ NOTE_E4, 119 }, 
	{ NOTE_E4, 179 }, 
	{ NOTE_REST, 58 }, 
	{ NOTE_D4, 119 }, 
	{ NOTE_E4, 119 }, 
	{ NOTE_E4, 119 }, 
	{ NOTE_E4, 179 }, 
	{ NOTE_REST, 60 }, 
	{ NOTE_E4, 119 }, 
	{ NOTE_E4, 179 }, 
	{ NOTE_REST, 58 }, 
	{ NOTE_D4, 179 }, 
	{ NOTE_REST, 60 }, 
	{ NOTE_D4, 119 }, 
	{ NOTE_FS4, 179 }, 
	{ NOTE_REST, 60 }, 
	{ NOTE_E4, 119 }, 
	{ NOTE_D4, 179 }, 
	{ NOTE_REST, 57 }, 
	{ NOTE_D4, 119 }, 
	{ NOTE_E4, 119 }, 
	{ NOTE_E4, 119 }, 
	{ NOTE_E4, 179 }, 
	{ NOTE_REST, 60 }, 
	{ NOTE_E4, 119 }, 
	{ NOTE_E4, 179 }, 
	{ NOTE_REST, 58 }, 
	{ NOTE_D4, 119 }, 
	{ NOTE_E4, 119 }, 
	{ NOTE_E4, 119 }, 
	{ NOTE_E4, 179 }, 
	{ NOTE_REST, 60 }, 
	{ NOTE_E4, 119 }, 
	{ NOTE_E4, 179 }, 
	{ NOTE_REST, 58 }, 
	{ NOTE_D4, 119 }, 
	{ NOTE_E4, 119 }, 
	{ NOTE_E4, 119 }, 
	{ NOTE_E4, 179 }, 
	{ NOTE_REST, 60 }, 
	{ NOTE_E4, 119 }, 
	{ NOTE_E4, 179 }, 
	{ NOTE_REST, 58 }, 
	{ NOTE_D4, 179 }, 
	{ NOTE_REST, 60 }, 
	{ NOTE_D4, 119 }, 
	{ NOTE_D4, 179 }, 
	{ NOTE_REST, 60 }, 
	{ NOTE_D4, 119 }, 
	{ NOTE_D4, 179 }, 
	{ NOTE_REST, 57 }, 
	{ NOTE_D4, 119 }, 
	{ NOTE_E4, 119 }, 
	{ NOTE_E4, 119 }, 
	{ NOTE_E4, 179 }, 
	{ NOTE_REST, 60 }, 
	{ NOTE_E4, 119 }, 
	{ NOTE_E4, 179 }, 
	{ NOTE_REST, 58 }, 
	{ NOTE_D4, 119 }, 
	{ NOTE_E4, 119 }, 
	{ NOTE_E4, 119 }, 
	{ NOTE_E4, 179 }, 
	{ NOTE_REST, 60 }, 
	{ NOTE_E4, 119 }, 
	{ NOTE_E4, 179 }, 
	{ NOTE_REST, 58 }, 
	{ NOTE_D4, 119 }, 
	{ NOTE_E4, 119 }, 
	{ NOTE_E4, 119 }, 
	{ NOTE_E4, 179 }, 
	{ NOTE_REST, 60 }, 
	{ NOTE_E4, 119 }, 
	{ NOTE_E4, 179 }, 
	{ NOTE_REST, 58 }, 
	{ NOTE_D4, 179 }, 
	{ NOTE_REST, 60 }, 
	{ NOTE_D4, 119 }, 
	{ NOTE_FS4, 179 }, 
	{ NOTE_REST, 60 }, 
	{ NOTE_E4, 119 }, 
	{ NOTE_D4, 179 }, 
	{ NOTE_REST, 57 }, 
	{ NOTE_D4, 119 }, 
	{ NOTE_E4, 119 }, 
	{ NOTE_E4, 119 }, 
	{ NOTE_E4, 179 }, 
	{ NOTE_REST, 60 }, 
	{ NOTE_E4, 119 }, 
	{ NOTE_E4, 179 }, 
	{ NOTE_REST, 58 }, 
	{ NOTE_D4, 119 }, 
	{ NOTE_E4, 119 }, 
	{ NOTE_E4, 119 }, 
	{ NOTE_E4, 179 }, 
	{ NOTE_REST, 60 }, 
	{ NOTE_E4, 119 }, 
	{ NOTE_E4, 179 }, 
	{ NOTE_REST, 58 }, 
	{ NOTE_D4, 119 }, 
	{ NOTE_E4, 119 }, 
	{ NOTE_E4, 119 }, 
	{ NOTE_E4, 179 }, 
	{ NOTE_REST, 60 }, 
	{ NOTE_E4, 119 }, 
	{ NOTE_E4, 179 }, 
	{ NOTE_REST, 58 }, 
	{ NOTE_D4, 179 }, 
	{ NOTE_REST, 60 }, 
	{ NOTE_D4, 119 }, 
	{ NOTE_D4, 179 }, 
	{ NOTE_REST, 60 }, 
	{ NOTE_D4, 119 }, 
	{ NOTE_D4, 179 }, 
	{ NOTE_REST, 57 }, 
	{ NOTE_G3, 119 }, 
	{ NOTE_A3, 119 }, 
	{ NOTE_A3, 119 }, 
	{ NOTE_A3, 179 }, 
	{ NOTE_REST, 60 }, 
	{ NOTE_A3, 119 }, 
	{ NOTE_A3, 179 }, 
	{ NOTE_REST, 58 }, 
	{ NOTE_G3, 119 }, 
	{ NOTE_A3, 119 }, 
	{ NOTE_A3, 119 }, 
	{ NOTE_A3, 179 }, 
	{ NOTE_REST, 60 }, 
	{ NOTE_A3, 119 }, 
	{ NOTE_A3, 179 }, 
	{ NOTE_REST, 58 }, 
	{ NOTE_G3, 119 }, 
	{ NOTE_A3, 119 }, 
	{ NOTE_A3, 119 }, 
	{ NOTE_A3, 179 }, 
	{ NOTE_REST, 60 }, 
	{ NOTE_A3, 119 }, 
	{ NOTE_A3, 179 }, 
	{ NOTE_REST, 58 }, 
	{ NOTE_G3, 179 }, 
	{ NOTE_REST, 60 }, 
	{ NOTE_G3, 119 }, 
	{ NOTE_B3, 179 }, 
	{ NOTE_REST, 60 }, 
	{ NOTE_A3, 119 }, 
	{ NOTE_G3, 179 }, 
	{ NOTE_REST, 57 }, 
	{ NOTE_G3, 119 }, 
	{ NOTE_A3, 119 }, 
	{ NOTE_A3, 119 }, 
	{ NOTE_A3, 179 }, 
	{ NOTE_REST, 60 }, 
	{ NOTE_A3, 119 }, 
	{ NOTE_A3, 179 }, 
	{ NOTE_REST, 58 }, 
	{ NOTE_G3, 119 }, 
	{ NOTE_A3, 119 }, 
	{ NOTE_A3, 119 }, 
	{ NOTE_A3, 179 }, 
	{ NOTE_REST, 60 }, 
	{ NOTE_A3, 119 }, 
	{ NOTE_A3, 179 }, 
	{ NOTE_REST, 58 }, 
	{ NOTE_G3, 119 }, 
	{ NOTE_A3, 119 }, 
	{ NOTE_A3, 119 }, 
	{ NOTE_A3, 179 }, 
	{ NOTE_REST, 60 }, 
	{ NOTE_A3, 119 }, 
	{ NOTE_A3, 179 }, 
	{ NOTE_REST, 58 }, 
	{ NOTE_G3, 179 }, 
	{ NOTE_REST, 60 }, 
	{ NOTE_G3, 119 }, 
	{ NOTE_G3, 179 }, 
	{ NOTE_REST, 60 }, 
	{ NOTE_G3, 119 }, 
	{ NOTE_G3, 179 }, 
	{ NOTE_REST, 57 }, 
	{ NOTE_G3, 119 }, 
	{ NOTE_A3, 119 }, 
	{ NOTE_A3, 119 }, 
	{ NOTE_A3, 179 }, 
	{ NOTE_REST, 60 }, 
	{ NOTE_A3, 119 }, 
	{ NOTE_A3, 179 }, 
	{ NOTE_REST, 58 }, 
	{ NOTE_G3, 119 }, 
	{ NOTE_A3, 119 }, 
	{ NOTE_A3, 119 }, 
	{ NOTE_A3, 179 }, 
	{ NOTE_REST, 60 }, 
	{ NOTE_A3, 119 }, 
	{ NOTE_A3, 179 }, 
	{ NOTE_REST, 58 }, 
	{ NOTE_G3, 119 }, 
	{ NOTE_A3, 119 }, 
	{ NOTE_A3, 119 }, 
	{ NOTE_A3, 179 }, 
	{ NOTE_REST, 60 }, 
	{ NOTE_A3, 119 }, 
	{ NOTE_A3, 179 }, 
	{ NOTE_REST, 58 }, 
	{ NOTE_G3, 179 }, 
	{ NOTE_REST, 60 }, 
	{ NOTE_G3, 119 }, 
	{ NOTE_B3, 179 }, 
	{ NOTE_REST, 60 }, 
	{ NOTE_A3, 119 }, 
	{ NOTE_G3, 179 }, 
	{ NOTE_REST, 57 }, 
	{ NOTE_G3, 119 }, 
	{ NOTE_A3, 119 }, 
	{ NOTE_A3, 119 }, 
	{ NOTE_A3, 179 }, 
	{ NOTE_REST, 60 }, 
	{ NOTE_A3, 119 }, 
	{ NOTE_A3, 179 }, 
	{ NOTE_REST, 58 }, 
	{ NOTE_G3, 119 }, 
	{ NOTE_A3, 119 }, 
	{ NOTE_A3, 119 }, 
	{ NOTE_A3, 179 }, 
	{ NOTE_REST, 60 }, 
	{ NOTE_A3, 119 }, 
	{ NOTE_A3, 179 }, 
	{ NOTE_REST, 58 }, 
	{ NOTE_G3, 119 }, 
	{ NOTE_A3, 119 }, 
	{ NOTE_A3, 119 }, 
	{ NOTE_A3, 179 }, 
	{ NOTE_REST, 60 }, 
	{ NOTE_A3, 119 }, 
	{ NOTE_A3, 179 }, 
	{ NOTE_REST, 58 }, 
	{ NOTE_G3, 179 }, 
	{ NOTE_REST, 60 }, 
	{ NOTE_G3, 119 }, 
	{ NOTE_G3, 179 }, 
	{ NOTE_REST, 60 }, 
	{ NOTE_G3, 119 }, 
	{ NOTE_G3, 179 }, 
	{ NOTE_REST, 57 }, 
	{ NOTE_D4, 119 }, 
	{ NOTE_E4, 119 }, 
	{ NOTE_REST, 119 }, 
	{ NOTE_E4, 119 }, 
	{ NOTE_REST, 119 }, 
	{ NOTE_E4, 119 }, 
	{ NOTE_E4, 179 }, 
	{ NOTE_REST, 59 }, 
	{ NOTE_G4, 119 }, 
	{ NOTE_E4, 119 }, 
	{ NOTE_REST, 119 }, 
	{ NOTE_E4, 119 }, 
	{ NOTE_REST, 119 }, 
	{ NOTE_E4, 119 }, 
	{ NOTE_E4, 179 }, 
	{ NOTE_REST, 59 }, 
	{ NOTE_A4, 119 }, 
	{ NOTE_E4, 119 }, 
	{ NOTE_REST, 119 }, 
	{ NOTE_E4, 119 }, 
	{ NOTE_REST, 119 }, 
	{ NOTE_E4, 119 }, 
	{ NOTE_E4, 179 }, 
	{ NOTE_REST, 59 }, 
	{ NOTE_C5, 119 }, 
	{ NOTE_B4, 119 }, 
	{ NOTE_A4, 119 }, 
	{ NOTE_G4, 119 }, 
	{ NOTE_B4, 119 }, 
	{ NOTE_A4, 119 }, 
	{ NOTE_G4, 119 }, 
	{ NOTE_D4, 119 }, 
	{ NOTE_D4, 119 }, 
	{ NOTE_E4, 119 }, 
	{ NOTE_REST, 119 }, 
	{ NOTE_E4, 119 }, 
	{ NOTE_REST, 119 }, 
	{ NOTE_E4, 119 }, 
	{ NOTE_E4, 179 }, 
	{ NOTE_REST, 59 }, 
	{ NOTE_G4, 119 }, 
	{ NOTE_E4, 119 }, 
	{ NOTE_REST, 119 }, 
	{ NOTE_E4, 119 }, 
	{ NOTE_REST, 119 }, 
	{ NOTE_E4, 119 }, 
	{ NOTE_E4, 179 }, 
	{ NOTE_REST, 59 }, 
	{ NOTE_A4, 119 }, 
	{ NOTE_E4, 119 }, 
	{ NOTE_REST, 119 }, 
	{ NOTE_E4, 119 }, 
	{ NOTE_REST, 119 }, 
	{ NOTE_E4, 119 }, 
	{ NOTE_E4, 179 }, 
	{ NOTE_REST, 59 }, 
	{ NOTE_C5, 119 }, 
	{ NOTE_B4, 119 }, 
	{ NOTE_A4, 119 }, 
	{ NOTE_G4, 119 }, 
	{ NOTE_A4, 417 }, 
	{ NOTE_REST, 59 }, 
	{ NOTE_D4, 119 }, 
	{ NOTE_E4, 119 }, 
	{ NOTE_REST, 119 }, 
	{ NOTE_E4, 119 }, 
	{ NOTE_REST, 119 }, 
	{ NOTE_E4, 119 }, 
	{ NOTE_E4, 179 }, 
	{ NOTE_REST, 59 }, 
	{ NOTE_G4, 119 }, 
	{ NOTE_E4, 119 }, 
	{ NOTE_REST, 119 }, 
	{ NOTE_E4, 119 }, 
	{ NOTE_REST, 119 }, 
	{ NOTE_E4, 119 }, 
	{ NOTE_E4, 179 }, 
	{ NOTE_REST, 59 }, 
	{ NOTE_A4, 119 }, 
	{ NOTE_E4, 119 }, 
	{ NOTE_REST, 119 }, 
	{ NOTE_E4, 119 }, 
	{ NOTE_REST, 119 }, 
	{ NOTE_E4, 119 }, 
	{ NOTE_E4, 179 }, 
	{ NOTE_REST, 59 }, 
	{ NOTE_C5, 119 }, 
	{ NOTE_B4, 119 }, 
	{ NOTE_A4, 119 }, 
	{ NOTE_G4, 119 }, 
	{ NOTE_B4, 119 }, 
	{ NOTE_A4, 119 }, 
	{ NOTE_G4, 119 }, 
	{ NOTE_D4, 119 }, 
	{ NOTE_D4, 119 }, 
	{ NOTE_E4, 119 }, 
	{ NOTE_REST, 119 }, 
	{ NOTE_E4, 119 }, 
	{ NOTE_REST, 119 }, 
	{ NOTE_E4, 119 }, 
	{ NOTE_E4, 179 }, 
	{ NOTE_REST, 59 }, 
	{ NOTE_G4, 119 }, 
	{ NOTE_E4, 119 }, 
	{ NOTE_REST, 119 }, 
	{ NOTE_E4, 119 }, 
	{ NOTE_REST, 119 }, 
	{ NOTE_E4, 119 }, 
	{ NOTE_E4, 179 }, 
	{ NOTE_REST, 59 }, 
	{ NOTE_A4, 119 }, 
	{ NOTE_E4, 119 }, 
	{ NOTE_REST, 119 }, 
	{ NOTE_E4, 119 }, 
	{ NOTE_REST, 119 }, 
	{ NOTE_E4, 119 }, 
	{ NOTE_E4, 179 }, 
	{ NOTE_REST, 59 }, 
	{ NOTE_C5, 119 }, 
	{ NOTE_B4, 119 }, 
	{ NOTE_A4, 119 }, 
	{ NOTE_G4, 119 }, 
	{ NOTE_A4, 417 }, 
	{ NOTE_REST, 59 }, 
	{ NOTE_E4, 179 }, 
	{ NOTE_REST, 60 }, 
	{ NOTE_E4, 119 }, 
	{ NOTE_E4, 238 }, 
	{ NOTE_E4, 119 }, 
	{ NOTE_E4, 179 }, 
	{ NOTE_REST, 58 }, 
	{ NOTE_E4, 119 }, 
	{ NOTE_E4, 179 }, 
	{ NOTE_REST, 60 }, 
	{ NOTE_E4, 298 }, 
	{ NOTE_REST, 60 }, 
	{ NOTE_D4, 179 }, 
	{ NOTE_REST, 57 }, 
	{ NOTE_C4, 179 }, 
	{ NOTE_REST, 60 }, 
	{ NOTE_C4, 119 }, 
	{ NOTE_C4, 238 }, 
	{ NOTE_C4, 119 }, 
	{ NOTE_C4, 179 }, 
	{ NOTE_REST, 58 }, 
	{ NOTE_D4, 179 }, 
	{ NOTE_REST, 60 }, 
	{ NOTE_D4, 119 }, 
	{ NOTE_D4, 238 }, 
	{ NOTE_D4, 119 }, 
	{ NOTE_D4, 179 }, 
	{ NOTE_REST, 58 }, 
	{ NOTE_E4, 179 }, 
	{ NOTE_REST, 60 }, 
	{ NOTE_E4, 119 }, 
	{ NOTE_E4, 238 }, 
	{ NOTE_E4, 119 }, 
	{ NOTE_E4, 179 }, 
	{ NOTE_REST, 58 }, 
	{ NOTE_E4, 119 }, 
	{ NOTE_E4, 179 }, 
	{ NOTE_REST, 60 }, 
	{ NOTE_E4, 298 }, 
	{ NOTE_REST, 60 }, 
	{ NOTE_D4, 179 }, 
	{ NOTE_REST, 57 }, 
	{ NOTE_C4, 179 }, 
	{ NOTE_REST, 60 }, 
	{ NOTE_C4, 119 }, 
	{ NOTE_C4, 238 }, 
	{ NOTE_C4, 119 }, 
	{ NOTE_C4, 179 }, 
	{ NOTE_REST, 58 }, 
	{ NOTE_D4, 179 }, 
	{ NOTE_REST, 60 }, 
	{ NOTE_D4, 119 }, 
	{ NOTE_D4, 238 }, 
	{ NOTE_D4, 119 }, 
	{ NOTE_D4, 179 }, 
	{ NOTE_REST, 58 }, 
	{ NOTE_E4, 179 }, 
	{ NOTE_REST, 60 }, 
	{ NOTE_E4, 119 }, 
	{ NOTE_E4, 238 }, 
	{ NOTE_E4, 119 }, 
	{ NOTE_E4, 179 }, 
	{ NOTE_REST, 58 }, 
	{ NOTE_E4, 119 }, 
	{ NOTE_E4, 179 }, 
	{ NOTE_REST, 60 }, 
	{ NOTE_E4, 298 }, 
	{ NOTE_REST, 60 }, 
	{ NOTE_D4, 179 }, 
	{ NOTE_REST, 57 }, 
	{ NOTE_C4, 179 }, 
	{ NOTE_REST, 60 }, 
	{ NOTE_C4, 119 }, 
	{ NOTE_C4, 238 }, 
	{ NOTE_C4, 119 }, 
	{ NOTE_C4, 179 }, 
	{ NOTE_REST, 58 }, 
	{ NOTE_D4, 179 }, 
	{ NOTE_REST, 60 }, 
	{ NOTE_D4, 119 }, 
	{ NOTE_D4, 238 }, 
	{ NOTE_D4, 119 }, 
	{ NOTE_D4, 179 }, 
	{ NOTE_REST, 58 }, 
	{ NOTE_E4, 179 }, 
	{ NOTE_REST, 60 }, 
	{ NOTE_E4, 119 }, 
	{ NOTE_E4, 238 }, 
	{ NOTE_E4, 119 }, 
	{ NOTE_E4, 179 }, 
	{ NOTE_REST, 58 }, 
	{ NOTE_E4, 119 }, 
	{ NOTE_E4, 179 }, 
	{ NOTE_REST, 60 }, 
	{ NOTE_E4, 298 }, 
	{ NOTE_REST, 60 }, 
	{ NOTE_D4, 179 }, 
	{ NOTE_REST, 57 }, 
	{ NOTE_C4, 179 }, 
	{ NOTE_REST, 60 }, 
	{ NOTE_C4, 119 }, 
	{ NOTE_C4, 238 }, 
	{ NOTE_C4, 119 }, 
	{ NOTE_C4, 179 }, 
	{ NOTE_REST, 58 }, 
	{ NOTE_D4, 179 }, 
	{ NOTE_REST, 60 }, 
	{ NOTE_D4, 119 }, 
	{ NOTE_D4, 238 }, 
	{ NOTE_D4, 119 }, 
	{ NOTE_D4, 179 }, 
	{ NOTE_REST, 58 }, 
	{ NOTE_G3, 179 }, 
	{ NOTE_REST, 60 }, 
	{ NOTE_G3, 119 }, 
	{ NOTE_G3, 238 }, 
	{ NOTE_G3, 119 }, 
	{ NOTE_G3, 179 }, 
	{ NOTE_REST, 58 }, 
	{ NOTE_G3, 119 }, 
	{ NOTE_G3, 179 }, 
	{ NOTE_REST, 60 }, 
	{ NOTE_G3, 298 }, 
	{ NOTE_REST, 60 }, 
	{ NOTE_F3, 179 }, 
	{ NOTE_REST, 57 }, 
	{ NOTE_REST, 952 }, 
	{ NOTE_F3, 179 }, 
	{ NOTE_REST, 60 }, 
	{ NOTE_F3, 119 }, 
	{ NOTE_F3, 238 }, 
	{ NOTE_F3, 119 }, 
	{ NOTE_F3, 179 }, 
	{ NOTE_REST, 58 }, 
	{ NOTE_G3, 179 }, 
	{ NOTE_REST, 60 }, 
	{ NOTE_G3, 119 }, 
	{ NOTE_G3, 238 }, 
	{ NOTE_G3, 119 }, 
	{ NOTE_G3, 179 }, 
	{ NOTE_REST, 58 }, 
	{ NOTE_G3, 119 }, 
	{ NOTE_G3, 179 }, 
	{ NOTE_REST, 60 }, 
	{ NOTE_G3, 298 }, 
	{ NOTE_REST, 60 }, 
	{ NOTE_F3, 179 }, 
	{ NOTE_REST, 57 }, 
	{ NOTE_REST, 952 }, 
	{ NOTE_F3, 179 }, 
	{ NOTE_REST, 60 }, 
	{ NOTE_F3, 119 }, 
	{ NOTE_F3, 238 }, 
	{ NOTE_F3, 119 }, 
	{ NOTE_F3, 179 }, 
	{ NOTE_REST, 58 }, 
	{ NOTE_G3, 179 }, 
	{ NOTE_REST, 60 }, 
	{ NOTE_G3, 119 }, 
	{ NOTE_G3, 238 }, 
	{ NOTE_G3, 119 }, 
	{ NOTE_G3, 179 }, 
	{ NOTE_REST, 58 }, 
	{ NOTE_G3, 119 }, 
	{ NOTE_G3, 179 }, 
	{ NOTE_REST, 60 }, 
	{ NOTE_G3, 298 }, 
	{ NOTE_REST, 60 }, 
	{ NOTE_F3, 179 }, 
	{ NOTE_REST, 57 }, 
	{ NOTE_REST, 952 }, 
	{ NOTE_F3, 179 }, 
	{ NOTE_REST, 60 }, 
	{ NOTE_F3, 119 }, 
	{ NOTE_F3, 238 }, 
	{ NOTE_F3, 119 }, 
	{ NOTE_F3, 179 }, 
	{ NOTE_REST, 58 }, 
	{ NOTE_G3, 179 }, 
	{ NOTE_REST, 60 }, 
	{ NOTE_G3, 119 }, 
	{ NOTE_G3, 238 }, 
	{ NOTE_G3, 119 }, 
	{ NOTE_G3, 179 }, 
	{ NOTE_REST, 58 }, 
	{ NOTE_G3, 119 }, 
	{ NOTE_G3, 179 }, 
	{ NOTE_REST, 60 }, 
	{ NOTE_G3, 298 }, 
	{ NOTE_REST, 60 }, 
	{ NOTE_F3, 179 }, 
	{ NOTE_REST, 57 }, 
	{ NOTE_REST, 952 }, 
	{ NOTE_F3, 179 }, 
	{ NOTE_REST, 60 }, 
	{ NOTE_F3, 119 }, 
	{ NOTE_F3, 238 }, 
	{ NOTE_F3, 119 }, 
	{ NOTE_F3, 179 }, 
	{ NOTE_REST, 58 }, 
	{ NOTE_A3, 119 }, 
	{ NOTE_A3, 179 }, 
	{ NOTE_REST, 60 }, 
	{ NOTE_A3, 119 }, 
	{ NOTE_A3, 119 }, 
	{ NOTE_A3, 119 }, 
	{ NOTE_A3, 119 }, 
	{ NOTE_A3, 118 }, 
	{ NOTE_A3, 179 }, 
	{ NOTE_REST, 60 }, 
	{ NOTE_A3, 179 }, 
	{ NOTE_REST, 60 }, 
	{ NOTE_A3, 119 }, 
	{ NOTE_A3, 119 }, 
	{ NOTE_A3, 179 }, 
	{ NOTE_REST, 57 }, 
	{ NOTE_F3, 298 }, 
	{ NOTE_REST, 60 }, 
	{ NOTE_F3, 119 }, 
	{ NOTE_F3, 119 }, 
	{ NOTE_F3, 119 }, 
	{ NOTE_F3, 119 }, 
	{ NOTE_F3, 118 }, 
	{ NOTE_G3, 119 }, 
	{ NOTE_G3, 119 }, 
	{ NOTE_G3, 119 }, 
	{ NOTE_G3, 119 }, 
	{ NOTE_G3, 119 }, 
	{ NOTE_G3, 119 }, 
	{ NOTE_G3, 119 }, 
	{ NOTE_G3, 119 }, 
	{ NOTE_A3, 119 }, 
	{ NOTE_A3, 179 }, 
	{ NOTE_REST, 60 }, 
	{ NOTE_A3, 119 }, 
	{ NOTE_A3, 119 }, 
	{ NOTE_A3, 119 }, 
	{ NOTE_A3, 119 }, 
	{ NOTE_A3, 118 }, 
	{ NOTE_A3, 179 }, 
	{ NOTE_REST, 60 }, 
	{ NOTE_A3, 179 }, 
	{ NOTE_REST, 60 }, 
	{ NOTE_A3, 119 }, 
	{ NOTE_A3, 119 }, 
	{ NOTE_A3, 179 }, 
	{ NOTE_REST, 57 }, 
	{ NOTE_F3, 298 }, 
	{ NOTE_REST, 60 }, 
	{ NOTE_F3, 119 }, 
	{ NOTE_F3, 119 }, 
	{ NOTE_F3, 119 }, 
	{ NOTE_F3, 119 }, 
	{ NOTE_F3, 118 }, 
	{ NOTE_G3, 119 }, 
	{ NOTE_G3, 119 }, 
	{ NOTE_G3, 119 }, 
	{ NOTE_G3, 119 }, 
	{ NOTE_G3, 119 }, 
	{ NOTE_G3, 119 }, 
	{ NOTE_G3, 119 }, 
	{ NOTE_G3, 119 }, 
	{ NOTE_A3, 119 }, 
	{ NOTE_A3, 179 }, 
	{ NOTE_REST, 60 }, 
	{ NOTE_A3, 119 }, 
	{ NOTE_A3, 119 }, 
	{ NOTE_A3, 119 }, 
	{ NOTE_A3, 119 }, 
	{ NOTE_A3, 118 }, 
	{ NOTE_A3, 179 }, 
	{ NOTE_REST, 60 }, 
	{ NOTE_A3, 179 }, 
	{ NOTE_REST, 60 }, 
	{ NOTE_A3, 119 }, 
	{ NOTE_A3, 119 }, 
	{ NOTE_A3, 179 }, 
	{ NOTE_REST, 57 }, 
	{ NOTE_F3, 298 }, 
	{ NOTE_REST, 60 }, 
	{ NOTE_F3, 119 }, 
	{ NOTE_F3, 119 }, 
	{ NOTE_F3, 119 }, 
	{ NOTE_F3, 119 }, 
	{ NOTE_F3, 118 }, 
	{ NOTE_G3, 119 }, 
	{ NOTE_G3, 119 }, 
	{ NOTE_G3, 119 }, 
	{ NOTE_G3, 119 }, 
	{ NOTE_G3, 119 }, 
	{ NOTE_G3, 119 }, 
	{ NOTE_G3, 119 }, 
	{ NOTE_G3, 119 }, 
	{ NOTE_A3, 150 }, 
	{ NOTE_A3, 225 }, 
	{ NOTE_REST, 75 }, 
	{ NOTE_A3, 150 }, 
	{ NOTE_A3, 150 }, 
	{ NOTE_A3, 150 }, 
	{ NOTE_A3, 150 }, 
	{ NOTE_A3, 150 }, 
	{ NOTE_A3, 225 }, 
	{ NOTE_REST, 75 }, 
	{ NOTE_A3, 225 }, 
	{ NOTE_REST, 75 }, 
	{ NOTE_A3, 150 }, 
	{ NOTE_A3, 150 }, 
	{ NOTE_A3, 225 }, 
	{ NOTE_REST, 75 }, 
	{ NOTE_F3, 1406 }, 
	{ NOTE_REST, 94 }, 
	{ NOTE_A3, 281 }, 
	{ NOTE_REST, 94 }, 
	{ NOTE_A3, 281 }, 
	{ NOTE_REST, 94 }, 
	{ NOTE_A3, 188 }, 
	{ NOTE_A3, 188 }, 
	{ NOTE_A3, 281 }, 
	{ NOTE_REST, 93 }, 
	{ NOTE_F3, 1406 }, 
	{ NOTE_REST, 94 }, 
	{ NOTE_G3, 1219 }, 
	{ NOTE_REST, 94 }, 
	{ NOTE_A3, 187 }, 
	{ NOTE_A3, 1500 }, 
	{ NOTE_REST, 1500 }, 
	{ NOTE_REST, 1500 }, 
};
const uint16_t NUM_OF_NOTES4 = sizeof(melody4)/sizeof(melody4[0]);

