/*
 * Song: Carry On My Wayward Son by Kansas
 *
 *	Melody 0 | Guitar 1 / Lead
 *	Melody 1 | Guitar 1 / Lead
 *	Melody 2 | Rock Organ
 *	Melody 3 | Rock Organ
 *	Melody 4 | Bass
*/

#include <Arduino.h>
#include "notes.h"

const Note melody0[] PROGMEM = {
	{ NOTE_DS5, 250 }, 
	{ NOTE_FS5, 250 }, 
	{ NOTE_FS5, 250 }, 
	{ NOTE_B5, 500 }, 
	{ NOTE_AS5, 500 }, 
	{ NOTE_FS5, 250 }, 
	{ NOTE_REST, 250 }, 
	{ NOTE_FS5, 500 }, 
	{ NOTE_GS5, 125 }, 
	{ NOTE_FS5, 125 }, 
	{ NOTE_E5, 1000 }, 
	{ NOTE_DS5, 250 }, 
	{ NOTE_FS5, 250 }, 
	{ NOTE_FS5, 250 }, 
	{ NOTE_B5, 500 }, 
	{ NOTE_AS5, 500 }, 
	{ NOTE_FS5, 500 }, 
	{ NOTE_DS5, 250 }, 
	{ NOTE_CS5, 1500 }, 
	{ NOTE_DS5, 250 }, 
	{ NOTE_FS5, 250 }, 
	{ NOTE_FS5, 250 }, 
	{ NOTE_B5, 500 }, 
	{ NOTE_AS5, 500 }, 
	{ NOTE_FS5, 500 }, 
	{ NOTE_FS5, 500 }, 
	{ NOTE_GS5, 125 }, 
	{ NOTE_FS5, 125 }, 
	{ NOTE_E5, 1000 }, 
	{ NOTE_DS5, 250 }, 
	{ NOTE_AS4, 250 }, 
	{ NOTE_DS5, 500 }, 
	{ NOTE_CS5, 500 }, 
	{ NOTE_B4, 2000 }, 
	{ NOTE_GS3, 125 }, 
	{ NOTE_REST, 125 }, 
	{ NOTE_FS3, 125 }, 
	{ NOTE_REST, 125 }, 
	{ NOTE_GS3, 125 }, 
	{ NOTE_REST, 125 }, 
	{ NOTE_B3, 750 }, 
	{ NOTE_GS3, 125 }, 
	{ NOTE_REST, 125 }, 
	{ NOTE_FS3, 125 }, 
	{ NOTE_REST, 125 }, 
	{ NOTE_GS3, 125 }, 
	{ NOTE_REST, 125 }, 
	{ NOTE_CS4, 750 }, 
	{ NOTE_CS4, 0 }, 
	{ NOTE_DS4, 250 }, 
	{ NOTE_FS4, 250 }, 
	{ NOTE_DS4, 125 }, 
	{ NOTE_CS4, 125 }, 
	{ NOTE_B3, 250 }, 
	{ NOTE_CS4, 250 }, 
	{ NOTE_FS3, 750 }, 
	{ NOTE_CS4, 250 }, 
	{ NOTE_F3, 750 }, 
	{ NOTE_GS3, 125 }, 
	{ NOTE_REST, 125 }, 
	{ NOTE_FS3, 125 }, 
	{ NOTE_REST, 125 }, 
	{ NOTE_GS3, 125 }, 
	{ NOTE_REST, 125 }, 
	{ NOTE_B3, 750 }, 
	{ NOTE_GS3, 125 }, 
	{ NOTE_REST, 125 }, 
	{ NOTE_FS3, 125 }, 
	{ NOTE_REST, 125 }, 
	{ NOTE_GS3, 125 }, 
	{ NOTE_REST, 125 }, 
	{ NOTE_CS4, 750 }, 
	{ NOTE_CS4, 0 }, 
	{ NOTE_DS4, 250 }, 
	{ NOTE_FS4, 250 }, 
	{ NOTE_DS4, 125 }, 
	{ NOTE_CS4, 125 }, 
	{ NOTE_B3, 250 }, 
	{ NOTE_CS4, 250 }, 
	{ NOTE_FS3, 750 }, 
	{ NOTE_CS4, 250 }, 
	{ NOTE_F3, 750 }, 
	{ NOTE_DS3, 375 }, 
	{ NOTE_DS3, 1000 }, 
	{ NOTE_REST, 125 }, 
	{ NOTE_CS5, 375 }, 
	{ NOTE_CS5, 937 }, 
	{ NOTE_DS3, 188 }, 
	{ NOTE_GS3, 167 }, 
	{ NOTE_AS3, 167 }, 
	{ NOTE_CS4, 167 }, 
	{ NOTE_FS4, 167 }, 
	{ NOTE_CS4, 167 }, 
	{ NOTE_DS4, 165 }, 
	{ NOTE_DS3, 375 }, 
	{ NOTE_DS3, 1000 }, 
	{ NOTE_REST, 125 }, 
	{ NOTE_CS5, 0 }, 
	{ NOTE_DS5, 375 }, 
	{ NOTE_CS5, 937 }, 
	{ NOTE_DS3, 188 }, 
	{ NOTE_GS3, 167 }, 
	{ NOTE_AS3, 167 }, 
	{ NOTE_CS4, 167 }, 
	{ NOTE_FS4, 167 }, 
	{ NOTE_CS4, 167 }, 
	{ NOTE_DS4, 165 }, 
	{ NOTE_DS3, 375 }, 
	{ NOTE_DS3, 1000 }, 
	{ NOTE_REST, 125 }, 
	{ NOTE_CS5, 375 }, 
	{ NOTE_CS5, 937 }, 
	{ NOTE_REST, 188 }, 
	{ NOTE_GS3, 167 }, 
	{ NOTE_AS3, 167 }, 
	{ NOTE_CS4, 167 }, 
	{ NOTE_FS4, 333 }, 
	{ NOTE_DS4, 166 }, 
	{ NOTE_DS3, 375 }, 
	{ NOTE_DS3, 1000 }, 
	{ NOTE_REST, 125 }, 
	{ NOTE_CS5, 0 }, 
	{ NOTE_DS5, 375 }, 
	{ NOTE_CS5, 2125 }, 
	{ NOTE_GS3, 125 }, 
	{ NOTE_REST, 125 }, 
	{ NOTE_FS3, 125 }, 
	{ NOTE_REST, 125 }, 
	{ NOTE_GS3, 125 }, 
	{ NOTE_REST, 125 }, 
	{ NOTE_B3, 750 }, 
	{ NOTE_GS3, 125 }, 
	{ NOTE_REST, 125 }, 
	{ NOTE_FS3, 125 }, 
	{ NOTE_REST, 125 }, 
	{ NOTE_GS3, 125 }, 
	{ NOTE_REST, 125 }, 
	{ NOTE_CS4, 750 }, 
	{ NOTE_CS4, 0 }, 
	{ NOTE_DS4, 250 }, 
	{ NOTE_FS4, 250 }, 
	{ NOTE_DS4, 125 }, 
	{ NOTE_CS4, 125 }, 
	{ NOTE_B3, 250 }, 
	{ NOTE_CS4, 250 }, 
	{ NOTE_FS3, 750 }, 
	{ NOTE_CS4, 250 }, 
	{ NOTE_F3, 750 }, 
	{ NOTE_GS3, 125 }, 
	{ NOTE_REST, 125 }, 
	{ NOTE_FS3, 125 }, 
	{ NOTE_REST, 125 }, 
	{ NOTE_GS3, 125 }, 
	{ NOTE_REST, 125 }, 
	{ NOTE_B3, 750 }, 
	{ NOTE_GS3, 125 }, 
	{ NOTE_REST, 125 }, 
	{ NOTE_FS3, 125 }, 
	{ NOTE_REST, 125 }, 
	{ NOTE_GS3, 125 }, 
	{ NOTE_REST, 125 }, 
	{ NOTE_CS4, 750 }, 
	{ NOTE_CS4, 0 }, 
	{ NOTE_DS4, 250 }, 
	{ NOTE_FS4, 250 }, 
	{ NOTE_DS4, 125 }, 
	{ NOTE_CS4, 125 }, 
	{ NOTE_B3, 250 }, 
	{ NOTE_CS4, 250 }, 
	{ NOTE_FS3, 750 }, 
	{ NOTE_CS4, 250 }, 
	{ NOTE_F3, 750 }, 
	{ NOTE_DS3, 375 }, 
	{ NOTE_DS3, 1000 }, 
	{ NOTE_REST, 125 }, 
	{ NOTE_CS5, 375 }, 
	{ NOTE_CS5, 937 }, 
	{ NOTE_DS3, 188 }, 
	{ NOTE_GS3, 167 }, 
	{ NOTE_AS3, 167 }, 
	{ NOTE_CS4, 167 }, 
	{ NOTE_FS4, 167 }, 
	{ NOTE_CS4, 167 }, 
	{ NOTE_DS4, 165 }, 
	{ NOTE_DS3, 375 }, 
	{ NOTE_DS3, 1000 }, 
	{ NOTE_REST, 125 }, 
	{ NOTE_CS5, 0 }, 
	{ NOTE_DS5, 375 }, 
	{ NOTE_CS5, 937 }, 
	{ NOTE_DS3, 188 }, 
	{ NOTE_GS3, 167 }, 
	{ NOTE_AS3, 167 }, 
	{ NOTE_CS4, 167 }, 
	{ NOTE_FS4, 167 }, 
	{ NOTE_CS4, 167 }, 
	{ NOTE_DS4, 165 }, 
	{ NOTE_DS3, 375 }, 
	{ NOTE_DS3, 1000 }, 
	{ NOTE_REST, 125 }, 
	{ NOTE_CS5, 375 }, 
	{ NOTE_CS5, 937 }, 
	{ NOTE_DS3, 188 }, 
	{ NOTE_GS3, 167 }, 
	{ NOTE_AS3, 167 }, 
	{ NOTE_CS4, 167 }, 
	{ NOTE_FS4, 167 }, 
	{ NOTE_CS4, 167 }, 
	{ NOTE_DS4, 165 }, 
	{ NOTE_DS3, 375 }, 
	{ NOTE_DS3, 1000 }, 
	{ NOTE_REST, 125 }, 
	{ NOTE_CS5, 0 }, 
	{ NOTE_DS5, 375 }, 
	{ NOTE_FS5, 2125 }, 
	{ NOTE_GS5, 333 }, 
	{ NOTE_DS5, 333 }, 
	{ NOTE_GS5, 333 }, 
	{ NOTE_AS5, 333 }, 
	{ NOTE_GS5, 333 }, 
	{ NOTE_AS5, 335 }, 
	{ NOTE_B5, 2000 }, 
	{ NOTE_GS3, 250 }, 
	{ NOTE_DS4, 250 }, 
	{ NOTE_DS5, 250 }, 
	{ NOTE_GS5, 250 }, 
	{ NOTE_FS3, 250 }, 
	{ NOTE_AS3, 250 }, 
	{ NOTE_CS5, 250 }, 
	{ NOTE_B4, 250 }, 
	{ NOTE_E3, 250 }, 
	{ NOTE_B3, 250 }, 
	{ NOTE_CS5, 250 }, 
	{ NOTE_B4, 250 }, 
	{ NOTE_FS3, 250 }, 
	{ NOTE_CS4, 250 }, 
	{ NOTE_FS4, 250 }, 
	{ NOTE_CS5, 250 }, 
	{ NOTE_GS3, 250 }, 
	{ NOTE_DS4, 250 }, 
	{ NOTE_DS5, 250 }, 
	{ NOTE_GS5, 250 }, 
	{ NOTE_FS3, 250 }, 
	{ NOTE_AS3, 250 }, 
	{ NOTE_CS5, 250 }, 
	{ NOTE_B4, 250 }, 
	{ NOTE_E3, 250 }, 
	{ NOTE_B3, 250 }, 
	{ NOTE_CS5, 250 }, 
	{ NOTE_B4, 250 }, 
	{ NOTE_FS3, 250 }, 
	{ NOTE_CS4, 250 }, 
	{ NOTE_FS4, 250 }, 
	{ NOTE_FS5, 250 }, 
	{ NOTE_CS4, 250 }, 
	{ NOTE_GS4, 250 }, 
	{ NOTE_CS5, 250 }, 
	{ NOTE_E5, 250 }, 
	{ NOTE_B3, 250 }, 
	{ NOTE_DS4, 250 }, 
	{ NOTE_FS4, 250 }, 
	{ NOTE_B4, 250 }, 
	{ NOTE_A3, 250 }, 
	{ NOTE_E4, 250 }, 
	{ NOTE_A4, 250 }, 
	{ NOTE_CS5, 250 }, 
	{ NOTE_A4, 250 }, 
	{ NOTE_E4, 250 }, 
	{ NOTE_B3, 250 }, 
	{ NOTE_FS4, 250 }, 
	{ NOTE_CS4, 250 }, 
	{ NOTE_GS4, 250 }, 
	{ NOTE_CS5, 250 }, 
	{ NOTE_E5, 250 }, 
	{ NOTE_B3, 250 }, 
	{ NOTE_DS4, 250 }, 
	{ NOTE_FS4, 250 }, 
	{ NOTE_B4, 250 }, 
	{ NOTE_FS3, 250 }, 
	{ NOTE_AS3, 250 }, 
	{ NOTE_AS4, 250 }, 
	{ NOTE_B4, 250 }, 
	{ NOTE_AS4, 250 }, 
	{ NOTE_FS4, 250 }, 
	{ NOTE_AS4, 250 }, 
	{ NOTE_FS4, 250 }, 
	{ NOTE_GS3, 250 }, 
	{ NOTE_DS4, 250 }, 
	{ NOTE_DS5, 250 }, 
	{ NOTE_GS5, 250 }, 
	{ NOTE_FS3, 250 }, 
	{ NOTE_AS3, 250 }, 
	{ NOTE_CS5, 250 }, 
	{ NOTE_B4, 250 }, 
	{ NOTE_E3, 250 }, 
	{ NOTE_B3, 250 }, 
	{ NOTE_CS5, 250 }, 
	{ NOTE_B4, 250 }, 
	{ NOTE_FS3, 250 }, 
	{ NOTE_CS4, 250 }, 
	{ NOTE_FS4, 250 }, 
	{ NOTE_CS5, 250 }, 
	{ NOTE_GS3, 250 }, 
	{ NOTE_DS4, 250 }, 
	{ NOTE_DS5, 250 }, 
	{ NOTE_GS5, 250 }, 
	{ NOTE_FS3, 250 }, 
	{ NOTE_AS3, 250 }, 
	{ NOTE_CS5, 250 }, 
	{ NOTE_B4, 250 }, 
	{ NOTE_E3, 250 }, 
	{ NOTE_B3, 250 }, 
	{ NOTE_CS5, 250 }, 
	{ NOTE_B4, 250 }, 
	{ NOTE_FS3, 250 }, 
	{ NOTE_CS4, 250 }, 
	{ NOTE_FS4, 250 }, 
	{ NOTE_FS5, 250 }, 
	{ NOTE_CS4, 250 }, 
	{ NOTE_GS4, 250 }, 
	{ NOTE_CS5, 250 }, 
	{ NOTE_E5, 250 }, 
	{ NOTE_B3, 250 }, 
	{ NOTE_DS4, 250 }, 
	{ NOTE_FS4, 250 }, 
	{ NOTE_B4, 250 }, 
	{ NOTE_A3, 250 }, 
	{ NOTE_E4, 250 }, 
	{ NOTE_A4, 250 }, 
	{ NOTE_CS5, 250 }, 
	{ NOTE_A4, 250 }, 
	{ NOTE_E4, 250 }, 
	{ NOTE_B3, 250 }, 
	{ NOTE_FS4, 250 }, 
	{ NOTE_CS4, 250 }, 
	{ NOTE_GS4, 250 }, 
	{ NOTE_CS5, 250 }, 
	{ NOTE_E5, 250 }, 
	{ NOTE_B3, 250 }, 
	{ NOTE_DS4, 250 }, 
	{ NOTE_FS4, 250 }, 
	{ NOTE_B4, 250 }, 
	{ NOTE_FS3, 250 }, 
	{ NOTE_AS3, 250 }, 
	{ NOTE_AS4, 250 }, 
	{ NOTE_B4, 250 }, 
	{ NOTE_AS4, 250 }, 
	{ NOTE_FS4, 250 }, 
	{ NOTE_AS4, 250 }, 
	{ NOTE_FS4, 250 }, 
	{ NOTE_GS3, 250 }, 
	{ NOTE_DS4, 250 }, 
	{ NOTE_GS4, 250 }, 
	{ NOTE_AS3, 250 }, 
	{ NOTE_B3, 250 }, 
	{ NOTE_DS4, 250 }, 
	{ NOTE_FS4, 250 }, 
	{ NOTE_FS3, 500 }, 
	{ NOTE_FS3, 500 }, 
	{ NOTE_FS4, 250 }, 
	{ NOTE_E3, 250 }, 
	{ NOTE_B3, 250 }, 
	{ NOTE_E4, 250 }, 
	{ NOTE_FS4, 250 }, 
	{ NOTE_GS3, 250 }, 
	{ NOTE_DS4, 250 }, 
	{ NOTE_GS4, 250 }, 
	{ NOTE_AS3, 250 }, 
	{ NOTE_B3, 250 }, 
	{ NOTE_DS4, 250 }, 
	{ NOTE_FS4, 250 }, 
	{ NOTE_FS3, 500 }, 
	{ NOTE_FS3, 500 }, 
	{ NOTE_GS4, 250 }, 
	{ NOTE_FS4, 250 }, 
	{ NOTE_CS4, 250 }, 
	{ NOTE_AS3, 250 }, 
	{ NOTE_FS3, 250 }, 
	{ NOTE_GS3, 250 }, 
	{ NOTE_DS4, 250 }, 
	{ NOTE_GS4, 250 }, 
	{ NOTE_AS3, 250 }, 
	{ NOTE_B3, 250 }, 
	{ NOTE_DS4, 250 }, 
	{ NOTE_FS4, 250 }, 
	{ NOTE_FS3, 500 }, 
	{ NOTE_FS3, 500 }, 
	{ NOTE_FS4, 250 }, 
	{ NOTE_E3, 250 }, 
	{ NOTE_B3, 250 }, 
	{ NOTE_E4, 250 }, 
	{ NOTE_FS4, 250 }, 
	{ NOTE_E3, 500 }, 
	{ NOTE_REST, 500 }, 
	{ NOTE_CS4, 500 }, 
	{ NOTE_B3, 500 }, 
	{ NOTE_GS3, 125 }, 
	{ NOTE_REST, 125 }, 
	{ NOTE_FS3, 125 }, 
	{ NOTE_REST, 125 }, 
	{ NOTE_GS3, 125 }, 
	{ NOTE_REST, 125 }, 
	{ NOTE_B3, 750 }, 
	{ NOTE_GS3, 125 }, 
	{ NOTE_REST, 125 }, 
	{ NOTE_FS3, 125 }, 
	{ NOTE_REST, 125 }, 
	{ NOTE_GS3, 125 }, 
	{ NOTE_REST, 125 }, 
	{ NOTE_CS4, 750 }, 
	{ NOTE_CS4, 0 }, 
	{ NOTE_DS4, 250 }, 
	{ NOTE_FS4, 250 }, 
	{ NOTE_DS4, 125 }, 
	{ NOTE_CS4, 125 }, 
	{ NOTE_B3, 250 }, 
	{ NOTE_CS4, 250 }, 
	{ NOTE_FS3, 750 }, 
	{ NOTE_CS4, 250 }, 
	{ NOTE_F3, 750 }, 
	{ NOTE_GS3, 125 }, 
	{ NOTE_REST, 125 }, 
	{ NOTE_FS3, 125 }, 
	{ NOTE_REST, 125 }, 
	{ NOTE_GS3, 125 }, 
	{ NOTE_REST, 125 }, 
	{ NOTE_B3, 750 }, 
	{ NOTE_GS3, 125 }, 
	{ NOTE_REST, 125 }, 
	{ NOTE_FS3, 125 }, 
	{ NOTE_REST, 125 }, 
	{ NOTE_GS3, 125 }, 
	{ NOTE_REST, 125 }, 
	{ NOTE_CS4, 750 }, 
	{ NOTE_CS4, 0 }, 
	{ NOTE_DS4, 250 }, 
	{ NOTE_FS4, 250 }, 
	{ NOTE_DS4, 125 }, 
	{ NOTE_CS4, 125 }, 
	{ NOTE_B3, 250 }, 
	{ NOTE_CS4, 250 }, 
	{ NOTE_FS3, 750 }, 
	{ NOTE_CS4, 250 }, 
	{ NOTE_F3, 750 }, 
	{ NOTE_GS3, 250 }, 
	{ NOTE_DS4, 250 }, 
	{ NOTE_DS5, 250 }, 
	{ NOTE_GS5, 250 }, 
	{ NOTE_FS3, 250 }, 
	{ NOTE_AS3, 250 }, 
	{ NOTE_CS5, 250 }, 
	{ NOTE_B4, 250 }, 
	{ NOTE_E3, 250 }, 
	{ NOTE_B3, 250 }, 
	{ NOTE_CS5, 250 }, 
	{ NOTE_B4, 250 }, 
	{ NOTE_FS3, 250 }, 
	{ NOTE_CS4, 250 }, 
	{ NOTE_FS4, 250 }, 
	{ NOTE_CS5, 250 }, 
	{ NOTE_GS3, 250 }, 
	{ NOTE_DS4, 250 }, 
	{ NOTE_DS5, 250 }, 
	{ NOTE_GS5, 250 }, 
	{ NOTE_FS3, 250 }, 
	{ NOTE_AS3, 250 }, 
	{ NOTE_CS5, 250 }, 
	{ NOTE_B4, 250 }, 
	{ NOTE_E3, 250 }, 
	{ NOTE_B3, 250 }, 
	{ NOTE_CS5, 250 }, 
	{ NOTE_B4, 250 }, 
	{ NOTE_FS3, 250 }, 
	{ NOTE_CS4, 250 }, 
	{ NOTE_FS4, 250 }, 
	{ NOTE_FS5, 250 }, 
	{ NOTE_CS4, 250 }, 
	{ NOTE_GS4, 250 }, 
	{ NOTE_CS5, 250 }, 
	{ NOTE_E5, 250 }, 
	{ NOTE_B3, 250 }, 
	{ NOTE_DS4, 250 }, 
	{ NOTE_FS4, 250 }, 
	{ NOTE_B4, 250 }, 
	{ NOTE_A3, 250 }, 
	{ NOTE_E4, 250 }, 
	{ NOTE_A4, 250 }, 
	{ NOTE_CS5, 250 }, 
	{ NOTE_A4, 250 }, 
	{ NOTE_E4, 250 }, 
	{ NOTE_B3, 250 }, 
	{ NOTE_FS4, 250 }, 
	{ NOTE_CS4, 250 }, 
	{ NOTE_GS4, 250 }, 
	{ NOTE_CS5, 250 }, 
	{ NOTE_E5, 250 }, 
	{ NOTE_B3, 250 }, 
	{ NOTE_DS4, 250 }, 
	{ NOTE_FS4, 250 }, 
	{ NOTE_B4, 250 }, 
	{ NOTE_FS3, 250 }, 
	{ NOTE_AS3, 250 }, 
	{ NOTE_AS4, 250 }, 
	{ NOTE_B4, 250 }, 
	{ NOTE_AS4, 250 }, 
	{ NOTE_FS4, 250 }, 
	{ NOTE_AS4, 250 }, 
	{ NOTE_FS4, 250 }, 
	{ NOTE_GS3, 250 }, 
	{ NOTE_DS4, 250 }, 
	{ NOTE_DS5, 250 }, 
	{ NOTE_GS5, 250 }, 
	{ NOTE_FS3, 250 }, 
	{ NOTE_AS3, 250 }, 
	{ NOTE_CS5, 250 }, 
	{ NOTE_B4, 250 }, 
	{ NOTE_E3, 250 }, 
	{ NOTE_B3, 250 }, 
	{ NOTE_CS5, 250 }, 
	{ NOTE_B4, 250 }, 
	{ NOTE_FS3, 250 }, 
	{ NOTE_CS4, 250 }, 
	{ NOTE_FS4, 250 }, 
	{ NOTE_CS5, 250 }, 
	{ NOTE_GS3, 250 }, 
	{ NOTE_DS4, 250 }, 
	{ NOTE_DS5, 250 }, 
	{ NOTE_GS5, 250 }, 
	{ NOTE_FS3, 250 }, 
	{ NOTE_AS3, 250 }, 
	{ NOTE_CS5, 250 }, 
	{ NOTE_B4, 250 }, 
	{ NOTE_E3, 250 }, 
	{ NOTE_B3, 250 }, 
	{ NOTE_CS5, 250 }, 
	{ NOTE_B4, 250 }, 
	{ NOTE_FS3, 250 }, 
	{ NOTE_CS4, 250 }, 
	{ NOTE_FS4, 250 }, 
	{ NOTE_FS5, 250 }, 
	{ NOTE_CS4, 250 }, 
	{ NOTE_GS4, 250 }, 
	{ NOTE_CS5, 250 }, 
	{ NOTE_E5, 250 }, 
	{ NOTE_B3, 250 }, 
	{ NOTE_DS4, 250 }, 
	{ NOTE_FS4, 250 }, 
	{ NOTE_B4, 250 }, 
	{ NOTE_A3, 250 }, 
	{ NOTE_E4, 250 }, 
	{ NOTE_A4, 250 }, 
	{ NOTE_CS5, 250 }, 
	{ NOTE_A4, 250 }, 
	{ NOTE_E4, 250 }, 
	{ NOTE_B3, 250 }, 
	{ NOTE_FS4, 250 }, 
	{ NOTE_CS4, 250 }, 
	{ NOTE_GS4, 250 }, 
	{ NOTE_CS5, 250 }, 
	{ NOTE_E5, 250 }, 
	{ NOTE_B3, 250 }, 
	{ NOTE_DS4, 250 }, 
	{ NOTE_FS4, 250 }, 
	{ NOTE_B4, 250 }, 
	{ NOTE_FS3, 250 }, 
	{ NOTE_AS3, 250 }, 
	{ NOTE_AS4, 250 }, 
	{ NOTE_B4, 250 }, 
	{ NOTE_AS4, 250 }, 
	{ NOTE_FS4, 250 }, 
	{ NOTE_AS4, 250 }, 
	{ NOTE_FS4, 250 }, 
	{ NOTE_GS3, 250 }, 
	{ NOTE_DS4, 250 }, 
	{ NOTE_GS4, 250 }, 
	{ NOTE_AS3, 250 }, 
	{ NOTE_B3, 250 }, 
	{ NOTE_DS4, 250 }, 
	{ NOTE_FS4, 250 }, 
	{ NOTE_FS3, 500 }, 
	{ NOTE_FS3, 500 }, 
	{ NOTE_FS4, 250 }, 
	{ NOTE_E3, 250 }, 
	{ NOTE_B3, 250 }, 
	{ NOTE_E4, 250 }, 
	{ NOTE_FS4, 250 }, 
	{ NOTE_GS3, 250 }, 
	{ NOTE_DS4, 250 }, 
	{ NOTE_GS4, 250 }, 
	{ NOTE_AS3, 250 }, 
	{ NOTE_B3, 250 }, 
	{ NOTE_DS4, 250 }, 
	{ NOTE_FS4, 250 }, 
	{ NOTE_FS3, 500 }, 
	{ NOTE_FS3, 500 }, 
	{ NOTE_GS4, 250 }, 
	{ NOTE_FS4, 250 }, 
	{ NOTE_CS4, 250 }, 
	{ NOTE_AS3, 250 }, 
	{ NOTE_FS3, 250 }, 
	{ NOTE_GS3, 125 }, 
	{ NOTE_GS3, 125 }, 
	{ NOTE_DS4, 250 }, 
	{ NOTE_GS4, 250 }, 
	{ NOTE_AS3, 250 }, 
	{ NOTE_B3, 250 }, 
	{ NOTE_DS4, 250 }, 
	{ NOTE_FS4, 250 }, 
	{ NOTE_FS3, 500 }, 
	{ NOTE_FS3, 500 }, 
	{ NOTE_FS4, 250 }, 
	{ NOTE_E3, 250 }, 
	{ NOTE_B3, 250 }, 
	{ NOTE_E4, 250 }, 
	{ NOTE_FS4, 250 }, 
	{ NOTE_E3, 500 }, 
	{ NOTE_REST, 2000 }, 
	{ NOTE_REST, 500 }, 
	{ NOTE_GS3, 125 }, 
	{ NOTE_REST, 125 }, 
	{ NOTE_GS4, 125 }, 
	{ NOTE_FS4, 125 }, 
	{ NOTE_DS4, 125 }, 
	{ NOTE_CS4, 125 }, 
	{ NOTE_B3, 125 }, 
	{ NOTE_GS3, 125 }, 
	{ NOTE_B3, 250 }, 
	{ NOTE_CS4, 250 }, 
	{ NOTE_REST, 250 }, 
	{ NOTE_FS3, 250 }, 
	{ NOTE_REST, 250 }, 
	{ NOTE_GS3, 250 }, 
	{ NOTE_REST, 250 }, 
	{ NOTE_CS4, 250 }, 
	{ NOTE_REST, 250 }, 
	{ NOTE_B3, 750 }, 
	{ NOTE_GS3, 125 }, 
	{ NOTE_REST, 125 }, 
	{ NOTE_GS4, 125 }, 
	{ NOTE_FS4, 125 }, 
	{ NOTE_DS4, 125 }, 
	{ NOTE_CS4, 125 }, 
	{ NOTE_B3, 125 }, 
	{ NOTE_GS3, 125 }, 
	{ NOTE_B3, 250 }, 
	{ NOTE_CS4, 250 }, 
	{ NOTE_REST, 250 }, 
	{ NOTE_FS3, 250 }, 
	{ NOTE_REST, 250 }, 
	{ NOTE_GS3, 250 }, 
	{ NOTE_REST, 250 }, 
	{ NOTE_CS4, 1000 }, 
	{ NOTE_REST, 250 }, 
	{ NOTE_GS3, 125 }, 
	{ NOTE_REST, 125 }, 
	{ NOTE_GS4, 125 }, 
	{ NOTE_FS4, 125 }, 
	{ NOTE_DS4, 125 }, 
	{ NOTE_CS4, 125 }, 
	{ NOTE_B3, 125 }, 
	{ NOTE_GS3, 125 }, 
	{ NOTE_B3, 250 }, 
	{ NOTE_CS4, 250 }, 
	{ NOTE_REST, 250 }, 
	{ NOTE_FS3, 250 }, 
	{ NOTE_REST, 250 }, 
	{ NOTE_GS3, 250 }, 
	{ NOTE_REST, 250 }, 
	{ NOTE_CS4, 250 }, 
	{ NOTE_REST, 250 }, 
	{ NOTE_B3, 750 }, 
	{ NOTE_GS3, 125 }, 
	{ NOTE_REST, 125 }, 
	{ NOTE_GS4, 125 }, 
	{ NOTE_FS4, 125 }, 
	{ NOTE_DS4, 125 }, 
	{ NOTE_CS4, 125 }, 
	{ NOTE_B3, 125 }, 
	{ NOTE_GS3, 125 }, 
	{ NOTE_B3, 250 }, 
	{ NOTE_CS4, 250 }, 
	{ NOTE_REST, 250 }, 
	{ NOTE_FS3, 250 }, 
	{ NOTE_REST, 250 }, 
	{ NOTE_GS3, 250 }, 
	{ NOTE_REST, 250 }, 
	{ NOTE_CS4, 1000 }, 
	{ NOTE_REST, 250 }, 
	{ NOTE_GS3, 250 }, 
	{ NOTE_GS4, 250 }, 
	{ NOTE_REST, 250 }, 
	{ NOTE_FS4, 250 }, 
	{ NOTE_REST, 250 }, 
	{ NOTE_F4, 250 }, 
	{ NOTE_REST, 250 }, 
	{ NOTE_DS4, 250 }, 
	{ NOTE_REST, 250 }, 
	{ NOTE_CS4, 250 }, 
	{ NOTE_REST, 250 }, 
	{ NOTE_B3, 250 }, 
	{ NOTE_REST, 250 }, 
	{ NOTE_FS3, 250 }, 
	{ NOTE_REST, 125 }, 
	{ NOTE_GS4, 375 }, 
	{ NOTE_GS3, 250 }, 
	{ NOTE_GS4, 250 }, 
	{ NOTE_REST, 250 }, 
	{ NOTE_FS4, 250 }, 
	{ NOTE_REST, 250 }, 
	{ NOTE_F4, 250 }, 
	{ NOTE_REST, 250 }, 
	{ NOTE_DS4, 250 }, 
	{ NOTE_CS4, 250 }, 
	{ NOTE_FS3, 500 }, 
	{ NOTE_G3, 500 }, 
	{ NOTE_GS3, 500 }, 
	{ NOTE_B3, 250 }, 
	{ NOTE_GS3, 250 }, 
	{ NOTE_GS4, 250 }, 
	{ NOTE_REST, 250 }, 
	{ NOTE_FS4, 250 }, 
	{ NOTE_REST, 250 }, 
	{ NOTE_F4, 250 }, 
	{ NOTE_REST, 250 }, 
	{ NOTE_DS4, 250 }, 
	{ NOTE_REST, 250 }, 
	{ NOTE_CS4, 250 }, 
	{ NOTE_REST, 250 }, 
	{ NOTE_B3, 250 }, 
	{ NOTE_REST, 250 }, 
	{ NOTE_FS3, 250 }, 
	{ NOTE_REST, 125 }, 
	{ NOTE_GS4, 375 }, 
	{ NOTE_GS3, 250 }, 
	{ NOTE_GS4, 250 }, 
	{ NOTE_REST, 250 }, 
	{ NOTE_FS4, 250 }, 
	{ NOTE_REST, 250 }, 
	{ NOTE_F4, 250 }, 
	{ NOTE_REST, 250 }, 
	{ NOTE_DS4, 250 }, 
	{ NOTE_CS4, 250 }, 
	{ NOTE_FS3, 500 }, 
	{ NOTE_G3, 500 }, 
	{ NOTE_GS3, 500 }, 
	{ NOTE_B3, 250 }, 
	{ NOTE_GS3, 125 }, 
	{ NOTE_REST, 125 }, 
	{ NOTE_FS3, 125 }, 
	{ NOTE_REST, 125 }, 
	{ NOTE_GS3, 125 }, 
	{ NOTE_REST, 125 }, 
	{ NOTE_B3, 750 }, 
	{ NOTE_GS3, 125 }, 
	{ NOTE_REST, 125 }, 
	{ NOTE_FS3, 125 }, 
	{ NOTE_REST, 125 }, 
	{ NOTE_GS3, 125 }, 
	{ NOTE_REST, 125 }, 
	{ NOTE_CS4, 750 }, 
	{ NOTE_CS4, 0 }, 
	{ NOTE_DS4, 250 }, 
	{ NOTE_FS4, 250 }, 
	{ NOTE_DS4, 125 }, 
	{ NOTE_CS4, 125 }, 
	{ NOTE_B3, 250 }, 
	{ NOTE_CS4, 250 }, 
	{ NOTE_FS3, 750 }, 
	{ NOTE_CS4, 250 }, 
	{ NOTE_F3, 750 }, 
	{ NOTE_GS3, 125 }, 
	{ NOTE_REST, 125 }, 
	{ NOTE_FS3, 125 }, 
	{ NOTE_REST, 125 }, 
	{ NOTE_GS3, 125 }, 
	{ NOTE_REST, 125 }, 
	{ NOTE_B3, 750 }, 
	{ NOTE_GS3, 125 }, 
	{ NOTE_REST, 125 }, 
	{ NOTE_FS3, 125 }, 
	{ NOTE_REST, 125 }, 
	{ NOTE_GS3, 125 }, 
	{ NOTE_REST, 125 }, 
	{ NOTE_CS4, 750 }, 
	{ NOTE_CS4, 0 }, 
	{ NOTE_DS4, 250 }, 
	{ NOTE_FS4, 250 }, 
	{ NOTE_DS4, 125 }, 
	{ NOTE_CS4, 125 }, 
	{ NOTE_B3, 250 }, 
	{ NOTE_CS4, 250 }, 
	{ NOTE_FS3, 750 }, 
	{ NOTE_CS4, 250 }, 
	{ NOTE_F3, 750 }, 
	{ NOTE_GS3, 250 }, 
	{ NOTE_GS3, 250 }, 
	{ NOTE_REST, 1000 }, 
	{ NOTE_FS3, 250 }, 
	{ NOTE_REST, 250 }, 
	{ NOTE_E3, 1500 }, 
	{ NOTE_FS3, 500 }, 
	{ NOTE_GS3, 250 }, 
	{ NOTE_GS3, 250 }, 
	{ NOTE_REST, 1000 }, 
	{ NOTE_FS3, 250 }, 
	{ NOTE_REST, 250 }, 
	{ NOTE_E3, 1500 }, 
	{ NOTE_FS3, 500 }, 
	{ NOTE_CS4, 250 }, 
	{ NOTE_GS4, 250 }, 
	{ NOTE_CS5, 250 }, 
	{ NOTE_E5, 250 }, 
	{ NOTE_B3, 250 }, 
	{ NOTE_DS4, 250 }, 
	{ NOTE_FS4, 250 }, 
	{ NOTE_B4, 250 }, 
	{ NOTE_A3, 250 }, 
	{ NOTE_E4, 250 }, 
	{ NOTE_A4, 250 }, 
	{ NOTE_CS5, 250 }, 
	{ NOTE_A4, 250 }, 
	{ NOTE_E4, 250 }, 
	{ NOTE_B3, 250 }, 
	{ NOTE_FS4, 250 }, 
	{ NOTE_CS4, 250 }, 
	{ NOTE_GS4, 250 }, 
	{ NOTE_CS5, 250 }, 
	{ NOTE_E5, 250 }, 
	{ NOTE_B3, 250 }, 
	{ NOTE_DS4, 250 }, 
	{ NOTE_FS4, 250 }, 
	{ NOTE_B4, 250 }, 
	{ NOTE_FS3, 250 }, 
	{ NOTE_AS3, 250 }, 
	{ NOTE_AS4, 250 }, 
	{ NOTE_B4, 250 }, 
	{ NOTE_AS4, 250 }, 
	{ NOTE_FS4, 250 }, 
	{ NOTE_AS4, 250 }, 
	{ NOTE_FS4, 250 }, 
	{ NOTE_GS3, 250 }, 
	{ NOTE_DS4, 250 }, 
	{ NOTE_GS4, 250 }, 
	{ NOTE_AS3, 250 }, 
	{ NOTE_B3, 250 }, 
	{ NOTE_DS4, 250 }, 
	{ NOTE_FS4, 250 }, 
	{ NOTE_FS3, 500 }, 
	{ NOTE_FS3, 500 }, 
	{ NOTE_FS4, 250 }, 
	{ NOTE_E3, 250 }, 
	{ NOTE_B3, 250 }, 
	{ NOTE_E4, 250 }, 
	{ NOTE_FS4, 250 }, 
	{ NOTE_GS3, 250 }, 
	{ NOTE_DS4, 250 }, 
	{ NOTE_GS4, 250 }, 
	{ NOTE_AS3, 250 }, 
	{ NOTE_B3, 250 }, 
	{ NOTE_DS4, 250 }, 
	{ NOTE_FS4, 250 }, 
	{ NOTE_FS3, 500 }, 
	{ NOTE_FS3, 500 }, 
	{ NOTE_GS4, 250 }, 
	{ NOTE_FS4, 250 }, 
	{ NOTE_CS4, 250 }, 
	{ NOTE_AS3, 250 }, 
	{ NOTE_FS3, 250 }, 
	{ NOTE_GS3, 250 }, 
	{ NOTE_DS4, 250 }, 
	{ NOTE_GS4, 250 }, 
	{ NOTE_AS3, 250 }, 
	{ NOTE_B3, 250 }, 
	{ NOTE_DS4, 250 }, 
	{ NOTE_FS4, 250 }, 
	{ NOTE_FS3, 500 }, 
	{ NOTE_FS3, 500 }, 
	{ NOTE_FS4, 250 }, 
	{ NOTE_E3, 250 }, 
	{ NOTE_B3, 250 }, 
	{ NOTE_E4, 250 }, 
	{ NOTE_FS4, 250 }, 
	{ NOTE_E3, 500 }, 
	{ NOTE_REST, 500 }, 
	{ NOTE_CS4, 500 }, 
	{ NOTE_B3, 500 }, 
	{ NOTE_GS3, 125 }, 
	{ NOTE_REST, 125 }, 
	{ NOTE_FS3, 125 }, 
	{ NOTE_REST, 125 }, 
	{ NOTE_GS3, 125 }, 
	{ NOTE_REST, 125 }, 
	{ NOTE_B3, 750 }, 
	{ NOTE_GS3, 125 }, 
	{ NOTE_REST, 125 }, 
	{ NOTE_FS3, 125 }, 
	{ NOTE_REST, 125 }, 
	{ NOTE_GS3, 125 }, 
	{ NOTE_REST, 125 }, 
	{ NOTE_CS4, 750 }, 
	{ NOTE_CS4, 0 }, 
	{ NOTE_DS4, 250 }, 
	{ NOTE_FS4, 250 }, 
	{ NOTE_DS4, 125 }, 
	{ NOTE_CS4, 125 }, 
	{ NOTE_B3, 250 }, 
	{ NOTE_CS4, 250 }, 
	{ NOTE_FS3, 750 }, 
	{ NOTE_CS4, 250 }, 
	{ NOTE_F3, 750 }, 
	{ NOTE_GS3, 125 }, 
	{ NOTE_REST, 125 }, 
	{ NOTE_FS3, 125 }, 
	{ NOTE_REST, 125 }, 
	{ NOTE_GS3, 125 }, 
	{ NOTE_REST, 125 }, 
	{ NOTE_B3, 750 }, 
	{ NOTE_GS3, 125 }, 
	{ NOTE_REST, 125 }, 
	{ NOTE_FS3, 125 }, 
	{ NOTE_REST, 125 }, 
	{ NOTE_GS3, 125 }, 
	{ NOTE_REST, 125 }, 
	{ NOTE_CS4, 750 }, 
	{ NOTE_CS4, 0 }, 
	{ NOTE_DS4, 250 }, 
	{ NOTE_FS4, 250 }, 
	{ NOTE_DS4, 125 }, 
	{ NOTE_CS4, 125 }, 
	{ NOTE_B3, 250 }, 
	{ NOTE_CS4, 250 }, 
	{ NOTE_FS3, 750 }, 
	{ NOTE_CS4, 250 }, 
	{ NOTE_F3, 750 }, 
	{ NOTE_DS3, 375 }, 
	{ NOTE_DS3, 1000 }, 
	{ NOTE_REST, 125 }, 
	{ NOTE_CS5, 375 }, 
	{ NOTE_CS5, 937 }, 
	{ NOTE_DS3, 188 }, 
	{ NOTE_GS3, 167 }, 
	{ NOTE_AS3, 167 }, 
	{ NOTE_CS4, 167 }, 
	{ NOTE_FS4, 167 }, 
	{ NOTE_CS4, 167 }, 
	{ NOTE_DS4, 165 }, 
	{ NOTE_DS3, 375 }, 
	{ NOTE_DS3, 1000 }, 
	{ NOTE_REST, 125 }, 
	{ NOTE_CS5, 0 }, 
	{ NOTE_DS5, 375 }, 
	{ NOTE_FS5, 2125 }, 
	{ NOTE_GS5, 333 }, 
	{ NOTE_DS5, 333 }, 
	{ NOTE_GS5, 333 }, 
	{ NOTE_AS5, 333 }, 
	{ NOTE_GS5, 333 }, 
	{ NOTE_AS5, 335 }, 
	{ NOTE_B5, 3500 }, 
	{ NOTE_REST, 3500 }, 
};
const uint16_t NUM_OF_NOTES0 = sizeof(melody0)/sizeof(melody0[0]);

const Note melody1[] PROGMEM = {
	{ NOTE_DS5, 250 }, 
	{ NOTE_FS5, 250 }, 
	{ NOTE_FS5, 250 }, 
	{ NOTE_B5, 500 }, 
	{ NOTE_AS5, 500 }, 
	{ NOTE_FS5, 250 }, 
	{ NOTE_REST, 250 }, 
	{ NOTE_FS5, 500 }, 
	{ NOTE_GS5, 125 }, 
	{ NOTE_FS5, 125 }, 
	{ NOTE_E5, 1000 }, 
	{ NOTE_DS5, 250 }, 
	{ NOTE_FS5, 250 }, 
	{ NOTE_FS5, 250 }, 
	{ NOTE_B5, 500 }, 
	{ NOTE_AS5, 500 }, 
	{ NOTE_FS5, 500 }, 
	{ NOTE_DS5, 250 }, 
	{ NOTE_CS5, 1500 }, 
	{ NOTE_DS5, 250 }, 
	{ NOTE_FS5, 250 }, 
	{ NOTE_FS5, 250 }, 
	{ NOTE_B5, 500 }, 
	{ NOTE_AS5, 500 }, 
	{ NOTE_FS5, 500 }, 
	{ NOTE_FS5, 500 }, 
	{ NOTE_GS5, 125 }, 
	{ NOTE_FS5, 125 }, 
	{ NOTE_E5, 1000 }, 
	{ NOTE_DS5, 250 }, 
	{ NOTE_AS4, 250 }, 
	{ NOTE_DS5, 500 }, 
	{ NOTE_CS5, 500 }, 
	{ NOTE_B4, 2000 }, 
	{ NOTE_GS3, 125 }, 
	{ NOTE_REST, 125 }, 
	{ NOTE_FS3, 125 }, 
	{ NOTE_REST, 125 }, 
	{ NOTE_GS3, 125 }, 
	{ NOTE_REST, 125 }, 
	{ NOTE_B3, 750 }, 
	{ NOTE_GS3, 125 }, 
	{ NOTE_REST, 125 }, 
	{ NOTE_FS3, 125 }, 
	{ NOTE_REST, 125 }, 
	{ NOTE_GS3, 125 }, 
	{ NOTE_REST, 125 }, 
	{ NOTE_CS4, 750 }, 
	{ NOTE_CS4, 0 }, 
	{ NOTE_DS4, 250 }, 
	{ NOTE_FS4, 250 }, 
	{ NOTE_DS4, 125 }, 
	{ NOTE_CS4, 125 }, 
	{ NOTE_B3, 250 }, 
	{ NOTE_CS4, 250 }, 
	{ NOTE_FS3, 750 }, 
	{ NOTE_CS4, 250 }, 
	{ NOTE_F3, 750 }, 
	{ NOTE_GS3, 125 }, 
	{ NOTE_REST, 125 }, 
	{ NOTE_FS3, 125 }, 
	{ NOTE_REST, 125 }, 
	{ NOTE_GS3, 125 }, 
	{ NOTE_REST, 125 }, 
	{ NOTE_B3, 750 }, 
	{ NOTE_GS3, 125 }, 
	{ NOTE_REST, 125 }, 
	{ NOTE_FS3, 125 }, 
	{ NOTE_REST, 125 }, 
	{ NOTE_GS3, 125 }, 
	{ NOTE_REST, 125 }, 
	{ NOTE_CS4, 750 }, 
	{ NOTE_CS4, 0 }, 
	{ NOTE_DS4, 250 }, 
	{ NOTE_FS4, 250 }, 
	{ NOTE_DS4, 125 }, 
	{ NOTE_CS4, 125 }, 
	{ NOTE_B3, 250 }, 
	{ NOTE_CS4, 250 }, 
	{ NOTE_FS3, 750 }, 
	{ NOTE_CS4, 250 }, 
	{ NOTE_F3, 750 }, 
	{ NOTE_AS3, 375 }, 
	{ NOTE_AS3, 1000 }, 
	{ NOTE_REST, 125 }, 
	{ NOTE_FS5, 375 }, 
	{ NOTE_FS5, 937 }, 
	{ NOTE_DS3, 188 }, 
	{ NOTE_GS3, 167 }, 
	{ NOTE_AS3, 167 }, 
	{ NOTE_CS4, 167 }, 
	{ NOTE_FS4, 167 }, 
	{ NOTE_CS4, 167 }, 
	{ NOTE_DS4, 165 }, 
	{ NOTE_AS3, 375 }, 
	{ NOTE_AS3, 1000 }, 
	{ NOTE_REST, 125 }, 
	{ NOTE_FS5, 0 }, 
	{ NOTE_GS5, 375 }, 
	{ NOTE_FS5, 937 }, 
	{ NOTE_DS3, 188 }, 
	{ NOTE_GS3, 167 }, 
	{ NOTE_AS3, 167 }, 
	{ NOTE_CS4, 167 }, 
	{ NOTE_FS4, 167 }, 
	{ NOTE_CS4, 167 }, 
	{ NOTE_DS4, 165 }, 
	{ NOTE_AS3, 375 }, 
	{ NOTE_AS3, 1000 }, 
	{ NOTE_REST, 125 }, 
	{ NOTE_FS5, 375 }, 
	{ NOTE_FS5, 937 }, 
	{ NOTE_REST, 188 }, 
	{ NOTE_GS3, 167 }, 
	{ NOTE_AS3, 167 }, 
	{ NOTE_CS4, 167 }, 
	{ NOTE_FS4, 333 }, 
	{ NOTE_DS4, 166 }, 
	{ NOTE_AS3, 375 }, 
	{ NOTE_AS3, 1000 }, 
	{ NOTE_REST, 125 }, 
	{ NOTE_FS5, 0 }, 
	{ NOTE_GS5, 375 }, 
	{ NOTE_FS5, 2125 }, 
	{ NOTE_GS3, 125 }, 
	{ NOTE_REST, 125 }, 
	{ NOTE_FS3, 125 }, 
	{ NOTE_REST, 125 }, 
	{ NOTE_GS3, 125 }, 
	{ NOTE_REST, 125 }, 
	{ NOTE_B3, 750 }, 
	{ NOTE_GS3, 125 }, 
	{ NOTE_REST, 125 }, 
	{ NOTE_FS3, 125 }, 
	{ NOTE_REST, 125 }, 
	{ NOTE_GS3, 125 }, 
	{ NOTE_REST, 125 }, 
	{ NOTE_CS4, 750 }, 
	{ NOTE_CS4, 0 }, 
	{ NOTE_DS4, 250 }, 
	{ NOTE_FS4, 250 }, 
	{ NOTE_DS4, 125 }, 
	{ NOTE_CS4, 125 }, 
	{ NOTE_B3, 250 }, 
	{ NOTE_CS4, 250 }, 
	{ NOTE_FS3, 750 }, 
	{ NOTE_CS4, 250 }, 
	{ NOTE_F3, 750 }, 
	{ NOTE_GS3, 125 }, 
	{ NOTE_REST, 125 }, 
	{ NOTE_FS3, 125 }, 
	{ NOTE_REST, 125 }, 
	{ NOTE_GS3, 125 }, 
	{ NOTE_REST, 125 }, 
	{ NOTE_B3, 750 }, 
	{ NOTE_GS3, 125 }, 
	{ NOTE_REST, 125 }, 
	{ NOTE_FS3, 125 }, 
	{ NOTE_REST, 125 }, 
	{ NOTE_GS3, 125 }, 
	{ NOTE_REST, 125 }, 
	{ NOTE_CS4, 750 }, 
	{ NOTE_CS4, 0 }, 
	{ NOTE_DS4, 250 }, 
	{ NOTE_FS4, 250 }, 
	{ NOTE_DS4, 125 }, 
	{ NOTE_CS4, 125 }, 
	{ NOTE_B3, 250 }, 
	{ NOTE_CS4, 250 }, 
	{ NOTE_FS3, 750 }, 
	{ NOTE_CS4, 250 }, 
	{ NOTE_F3, 750 }, 
	{ NOTE_AS3, 375 }, 
	{ NOTE_AS3, 1000 }, 
	{ NOTE_REST, 125 }, 
	{ NOTE_FS5, 375 }, 
	{ NOTE_FS5, 937 }, 
	{ NOTE_DS3, 188 }, 
	{ NOTE_GS3, 167 }, 
	{ NOTE_AS3, 167 }, 
	{ NOTE_CS4, 167 }, 
	{ NOTE_FS4, 167 }, 
	{ NOTE_CS4, 167 }, 
	{ NOTE_DS4, 165 }, 
	{ NOTE_AS3, 375 }, 
	{ NOTE_AS3, 1000 }, 
	{ NOTE_REST, 125 }, 
	{ NOTE_FS5, 0 }, 
	{ NOTE_GS5, 375 }, 
	{ NOTE_FS5, 937 }, 
	{ NOTE_DS3, 188 }, 
	{ NOTE_GS3, 167 }, 
	{ NOTE_AS3, 167 }, 
	{ NOTE_CS4, 167 }, 
	{ NOTE_FS4, 167 }, 
	{ NOTE_CS4, 167 }, 
	{ NOTE_DS4, 165 }, 
	{ NOTE_AS3, 375 }, 
	{ NOTE_AS3, 1000 }, 
	{ NOTE_REST, 125 }, 
	{ NOTE_FS5, 375 }, 
	{ NOTE_FS5, 937 }, 
	{ NOTE_DS3, 188 }, 
	{ NOTE_GS3, 167 }, 
	{ NOTE_AS3, 167 }, 
	{ NOTE_CS4, 167 }, 
	{ NOTE_FS4, 167 }, 
	{ NOTE_CS4, 167 }, 
	{ NOTE_DS4, 165 }, 
	{ NOTE_AS3, 375 }, 
	{ NOTE_AS3, 1000 }, 
	{ NOTE_REST, 125 }, 
	{ NOTE_FS5, 0 }, 
	{ NOTE_GS5, 375 }, 
	{ NOTE_AS5, 2125 }, 
	{ NOTE_GS5, 333 }, 
	{ NOTE_DS5, 333 }, 
	{ NOTE_GS5, 333 }, 
	{ NOTE_AS5, 333 }, 
	{ NOTE_GS5, 333 }, 
	{ NOTE_AS5, 335 }, 
	{ NOTE_B5, 2000 }, 
	{ NOTE_GS3, 250 }, 
	{ NOTE_DS4, 250 }, 
	{ NOTE_DS5, 250 }, 
	{ NOTE_GS5, 250 }, 
	{ NOTE_FS3, 250 }, 
	{ NOTE_AS3, 250 }, 
	{ NOTE_CS5, 250 }, 
	{ NOTE_B4, 250 }, 
	{ NOTE_E3, 250 }, 
	{ NOTE_B3, 250 }, 
	{ NOTE_CS5, 250 }, 
	{ NOTE_B4, 250 }, 
	{ NOTE_FS3, 250 }, 
	{ NOTE_CS4, 250 }, 
	{ NOTE_FS4, 250 }, 
	{ NOTE_CS5, 250 }, 
	{ NOTE_GS3, 250 }, 
	{ NOTE_DS4, 250 }, 
	{ NOTE_DS5, 250 }, 
	{ NOTE_GS5, 250 }, 
	{ NOTE_FS3, 250 }, 
	{ NOTE_AS3, 250 }, 
	{ NOTE_CS5, 250 }, 
	{ NOTE_B4, 250 }, 
	{ NOTE_E3, 250 }, 
	{ NOTE_B3, 250 }, 
	{ NOTE_CS5, 250 }, 
	{ NOTE_B4, 250 }, 
	{ NOTE_FS3, 250 }, 
	{ NOTE_CS4, 250 }, 
	{ NOTE_FS4, 250 }, 
	{ NOTE_FS5, 250 }, 
	{ NOTE_CS4, 250 }, 
	{ NOTE_GS4, 250 }, 
	{ NOTE_CS5, 250 }, 
	{ NOTE_E5, 250 }, 
	{ NOTE_B3, 250 }, 
	{ NOTE_DS4, 250 }, 
	{ NOTE_FS4, 250 }, 
	{ NOTE_FS5, 250 }, 
	{ NOTE_A3, 250 }, 
	{ NOTE_E4, 250 }, 
	{ NOTE_A4, 250 }, 
	{ NOTE_CS5, 250 }, 
	{ NOTE_A4, 250 }, 
	{ NOTE_E4, 250 }, 
	{ NOTE_B3, 250 }, 
	{ NOTE_FS4, 250 }, 
	{ NOTE_CS4, 250 }, 
	{ NOTE_GS4, 250 }, 
	{ NOTE_CS5, 250 }, 
	{ NOTE_E5, 250 }, 
	{ NOTE_B3, 250 }, 
	{ NOTE_DS4, 250 }, 
	{ NOTE_FS4, 250 }, 
	{ NOTE_B4, 250 }, 
	{ NOTE_FS3, 250 }, 
	{ NOTE_AS3, 250 }, 
	{ NOTE_AS4, 250 }, 
	{ NOTE_B4, 250 }, 
	{ NOTE_AS4, 250 }, 
	{ NOTE_FS4, 250 }, 
	{ NOTE_AS4, 250 }, 
	{ NOTE_FS4, 250 }, 
	{ NOTE_GS3, 250 }, 
	{ NOTE_DS4, 250 }, 
	{ NOTE_DS5, 250 }, 
	{ NOTE_GS5, 250 }, 
	{ NOTE_FS3, 250 }, 
	{ NOTE_AS3, 250 }, 
	{ NOTE_CS5, 250 }, 
	{ NOTE_B4, 250 }, 
	{ NOTE_E3, 250 }, 
	{ NOTE_B3, 250 }, 
	{ NOTE_CS5, 250 }, 
	{ NOTE_B4, 250 }, 
	{ NOTE_FS3, 250 }, 
	{ NOTE_CS4, 250 }, 
	{ NOTE_FS4, 250 }, 
	{ NOTE_CS5, 250 }, 
	{ NOTE_GS3, 250 }, 
	{ NOTE_DS4, 250 }, 
	{ NOTE_DS5, 250 }, 
	{ NOTE_GS5, 250 }, 
	{ NOTE_FS3, 250 }, 
	{ NOTE_AS3, 250 }, 
	{ NOTE_CS5, 250 }, 
	{ NOTE_B4, 250 }, 
	{ NOTE_E3, 250 }, 
	{ NOTE_B3, 250 }, 
	{ NOTE_CS5, 250 }, 
	{ NOTE_B4, 250 }, 
	{ NOTE_FS3, 250 }, 
	{ NOTE_CS4, 250 }, 
	{ NOTE_FS4, 250 }, 
	{ NOTE_FS5, 250 }, 
	{ NOTE_CS4, 250 }, 
	{ NOTE_GS4, 250 }, 
	{ NOTE_CS5, 250 }, 
	{ NOTE_E5, 250 }, 
	{ NOTE_B3, 250 }, 
	{ NOTE_DS4, 250 }, 
	{ NOTE_FS4, 250 }, 
	{ NOTE_FS5, 250 }, 
	{ NOTE_A3, 250 }, 
	{ NOTE_E4, 250 }, 
	{ NOTE_A4, 250 }, 
	{ NOTE_CS5, 250 }, 
	{ NOTE_A4, 250 }, 
	{ NOTE_E4, 250 }, 
	{ NOTE_B3, 250 }, 
	{ NOTE_FS4, 250 }, 
	{ NOTE_CS4, 250 }, 
	{ NOTE_GS4, 250 }, 
	{ NOTE_CS5, 250 }, 
	{ NOTE_E5, 250 }, 
	{ NOTE_B3, 250 }, 
	{ NOTE_DS4, 250 }, 
	{ NOTE_FS4, 250 }, 
	{ NOTE_B4, 250 }, 
	{ NOTE_FS3, 250 }, 
	{ NOTE_AS3, 250 }, 
	{ NOTE_AS4, 250 }, 
	{ NOTE_B4, 250 }, 
	{ NOTE_AS4, 250 }, 
	{ NOTE_FS4, 250 }, 
	{ NOTE_AS4, 250 }, 
	{ NOTE_FS4, 250 }, 
	{ NOTE_GS3, 250 }, 
	{ NOTE_DS4, 250 }, 
	{ NOTE_GS4, 250 }, 
	{ NOTE_AS3, 250 }, 
	{ NOTE_B3, 250 }, 
	{ NOTE_DS4, 250 }, 
	{ NOTE_FS4, 250 }, 
	{ NOTE_FS3, 500 }, 
	{ NOTE_FS3, 500 }, 
	{ NOTE_FS4, 250 }, 
	{ NOTE_E3, 250 }, 
	{ NOTE_B3, 250 }, 
	{ NOTE_E4, 250 }, 
	{ NOTE_FS4, 250 }, 
	{ NOTE_GS3, 250 }, 
	{ NOTE_DS4, 250 }, 
	{ NOTE_GS4, 250 }, 
	{ NOTE_AS3, 250 }, 
	{ NOTE_B3, 250 }, 
	{ NOTE_DS4, 250 }, 
	{ NOTE_FS4, 250 }, 
	{ NOTE_FS3, 500 }, 
	{ NOTE_FS3, 500 }, 
	{ NOTE_GS4, 250 }, 
	{ NOTE_FS4, 250 }, 
	{ NOTE_CS4, 250 }, 
	{ NOTE_AS3, 250 }, 
	{ NOTE_FS3, 250 }, 
	{ NOTE_GS3, 250 }, 
	{ NOTE_DS4, 250 }, 
	{ NOTE_GS4, 250 }, 
	{ NOTE_AS3, 250 }, 
	{ NOTE_B3, 250 }, 
	{ NOTE_DS4, 250 }, 
	{ NOTE_FS4, 250 }, 
	{ NOTE_FS3, 500 }, 
	{ NOTE_FS3, 500 }, 
	{ NOTE_FS4, 250 }, 
	{ NOTE_E3, 250 }, 
	{ NOTE_B3, 250 }, 
	{ NOTE_E4, 250 }, 
	{ NOTE_FS4, 250 }, 
	{ NOTE_B3, 500 }, 
	{ NOTE_REST, 500 }, 
	{ NOTE_GS4, 500 }, 
	{ NOTE_FS4, 500 }, 
	{ NOTE_GS3, 125 }, 
	{ NOTE_REST, 125 }, 
	{ NOTE_FS3, 125 }, 
	{ NOTE_REST, 125 }, 
	{ NOTE_GS3, 125 }, 
	{ NOTE_REST, 125 }, 
	{ NOTE_B3, 750 }, 
	{ NOTE_GS3, 125 }, 
	{ NOTE_REST, 125 }, 
	{ NOTE_FS3, 125 }, 
	{ NOTE_REST, 125 }, 
	{ NOTE_GS3, 125 }, 
	{ NOTE_REST, 125 }, 
	{ NOTE_CS4, 750 }, 
	{ NOTE_CS4, 0 }, 
	{ NOTE_DS4, 250 }, 
	{ NOTE_FS4, 250 }, 
	{ NOTE_DS4, 125 }, 
	{ NOTE_CS4, 125 }, 
	{ NOTE_B3, 250 }, 
	{ NOTE_CS4, 250 }, 
	{ NOTE_FS3, 750 }, 
	{ NOTE_CS4, 250 }, 
	{ NOTE_F3, 750 }, 
	{ NOTE_GS3, 125 }, 
	{ NOTE_REST, 125 }, 
	{ NOTE_FS3, 125 }, 
	{ NOTE_REST, 125 }, 
	{ NOTE_GS3, 125 }, 
	{ NOTE_REST, 125 }, 
	{ NOTE_B3, 750 }, 
	{ NOTE_GS3, 125 }, 
	{ NOTE_REST, 125 }, 
	{ NOTE_FS3, 125 }, 
	{ NOTE_REST, 125 }, 
	{ NOTE_GS3, 125 }, 
	{ NOTE_REST, 125 }, 
	{ NOTE_CS4, 750 }, 
	{ NOTE_CS4, 0 }, 
	{ NOTE_DS4, 250 }, 
	{ NOTE_FS4, 250 }, 
	{ NOTE_DS4, 125 }, 
	{ NOTE_CS4, 125 }, 
	{ NOTE_B3, 250 }, 
	{ NOTE_CS4, 250 }, 
	{ NOTE_FS3, 750 }, 
	{ NOTE_CS4, 250 }, 
	{ NOTE_F3, 750 }, 
	{ NOTE_GS3, 250 }, 
	{ NOTE_DS4, 250 }, 
	{ NOTE_DS5, 250 }, 
	{ NOTE_GS5, 250 }, 
	{ NOTE_FS3, 250 }, 
	{ NOTE_AS3, 250 }, 
	{ NOTE_CS5, 250 }, 
	{ NOTE_B4, 250 }, 
	{ NOTE_E3, 250 }, 
	{ NOTE_B3, 250 }, 
	{ NOTE_CS5, 250 }, 
	{ NOTE_B4, 250 }, 
	{ NOTE_FS3, 250 }, 
	{ NOTE_CS4, 250 }, 
	{ NOTE_FS4, 250 }, 
	{ NOTE_CS5, 250 }, 
	{ NOTE_GS3, 250 }, 
	{ NOTE_DS4, 250 }, 
	{ NOTE_DS5, 250 }, 
	{ NOTE_GS5, 250 }, 
	{ NOTE_FS3, 250 }, 
	{ NOTE_AS3, 250 }, 
	{ NOTE_CS5, 250 }, 
	{ NOTE_B4, 250 }, 
	{ NOTE_E3, 250 }, 
	{ NOTE_B3, 250 }, 
	{ NOTE_CS5, 250 }, 
	{ NOTE_B4, 250 }, 
	{ NOTE_FS3, 250 }, 
	{ NOTE_CS4, 250 }, 
	{ NOTE_FS4, 250 }, 
	{ NOTE_FS5, 250 }, 
	{ NOTE_CS4, 250 }, 
	{ NOTE_GS4, 250 }, 
	{ NOTE_CS5, 250 }, 
	{ NOTE_E5, 250 }, 
	{ NOTE_B3, 250 }, 
	{ NOTE_DS4, 250 }, 
	{ NOTE_FS4, 250 }, 
	{ NOTE_FS5, 250 }, 
	{ NOTE_A3, 250 }, 
	{ NOTE_E4, 250 }, 
	{ NOTE_A4, 250 }, 
	{ NOTE_CS5, 250 }, 
	{ NOTE_A4, 250 }, 
	{ NOTE_E4, 250 }, 
	{ NOTE_B3, 250 }, 
	{ NOTE_FS4, 250 }, 
	{ NOTE_CS4, 250 }, 
	{ NOTE_GS4, 250 }, 
	{ NOTE_CS5, 250 }, 
	{ NOTE_E5, 250 }, 
	{ NOTE_B3, 250 }, 
	{ NOTE_DS4, 250 }, 
	{ NOTE_FS4, 250 }, 
	{ NOTE_B4, 250 }, 
	{ NOTE_FS3, 250 }, 
	{ NOTE_AS3, 250 }, 
	{ NOTE_AS4, 250 }, 
	{ NOTE_B4, 250 }, 
	{ NOTE_AS4, 250 }, 
	{ NOTE_FS4, 250 }, 
	{ NOTE_AS4, 250 }, 
	{ NOTE_FS4, 250 }, 
	{ NOTE_GS3, 250 }, 
	{ NOTE_DS4, 250 }, 
	{ NOTE_DS5, 250 }, 
	{ NOTE_GS5, 250 }, 
	{ NOTE_FS3, 250 }, 
	{ NOTE_AS3, 250 }, 
	{ NOTE_CS5, 250 }, 
	{ NOTE_B4, 250 }, 
	{ NOTE_E3, 250 }, 
	{ NOTE_B3, 250 }, 
	{ NOTE_CS5, 250 }, 
	{ NOTE_B4, 250 }, 
	{ NOTE_FS3, 250 }, 
	{ NOTE_CS4, 250 }, 
	{ NOTE_FS4, 250 }, 
	{ NOTE_CS5, 250 }, 
	{ NOTE_GS3, 250 }, 
	{ NOTE_DS4, 250 }, 
	{ NOTE_DS5, 250 }, 
	{ NOTE_GS5, 250 }, 
	{ NOTE_FS3, 250 }, 
	{ NOTE_AS3, 250 }, 
	{ NOTE_CS5, 250 }, 
	{ NOTE_B4, 250 }, 
	{ NOTE_E3, 250 }, 
	{ NOTE_B3, 250 }, 
	{ NOTE_CS5, 250 }, 
	{ NOTE_B4, 250 }, 
	{ NOTE_FS3, 250 }, 
	{ NOTE_CS4, 250 }, 
	{ NOTE_FS4, 250 }, 
	{ NOTE_FS5, 250 }, 
	{ NOTE_CS4, 250 }, 
	{ NOTE_GS4, 250 }, 
	{ NOTE_CS5, 250 }, 
	{ NOTE_E5, 250 }, 
	{ NOTE_B3, 250 }, 
	{ NOTE_DS4, 250 }, 
	{ NOTE_FS4, 250 }, 
	{ NOTE_FS5, 250 }, 
	{ NOTE_A3, 250 }, 
	{ NOTE_E4, 250 }, 
	{ NOTE_A4, 250 }, 
	{ NOTE_CS5, 250 }, 
	{ NOTE_A4, 250 }, 
	{ NOTE_E4, 250 }, 
	{ NOTE_B3, 250 }, 
	{ NOTE_FS4, 250 }, 
	{ NOTE_CS4, 250 }, 
	{ NOTE_GS4, 250 }, 
	{ NOTE_CS5, 250 }, 
	{ NOTE_E5, 250 }, 
	{ NOTE_B3, 250 }, 
	{ NOTE_DS4, 250 }, 
	{ NOTE_FS4, 250 }, 
	{ NOTE_B4, 250 }, 
	{ NOTE_FS3, 250 }, 
	{ NOTE_AS3, 250 }, 
	{ NOTE_AS4, 250 }, 
	{ NOTE_B4, 250 }, 
	{ NOTE_AS4, 250 }, 
	{ NOTE_FS4, 250 }, 
	{ NOTE_AS4, 250 }, 
	{ NOTE_FS4, 250 }, 
	{ NOTE_GS3, 250 }, 
	{ NOTE_DS4, 250 }, 
	{ NOTE_GS4, 250 }, 
	{ NOTE_AS3, 250 }, 
	{ NOTE_B3, 250 }, 
	{ NOTE_DS4, 250 }, 
	{ NOTE_FS4, 250 }, 
	{ NOTE_FS3, 500 }, 
	{ NOTE_FS3, 500 }, 
	{ NOTE_FS4, 250 }, 
	{ NOTE_E3, 250 }, 
	{ NOTE_B3, 250 }, 
	{ NOTE_E4, 250 }, 
	{ NOTE_FS4, 250 }, 
	{ NOTE_GS3, 250 }, 
	{ NOTE_DS4, 250 }, 
	{ NOTE_GS4, 250 }, 
	{ NOTE_AS3, 250 }, 
	{ NOTE_B3, 250 }, 
	{ NOTE_DS4, 250 }, 
	{ NOTE_FS4, 250 }, 
	{ NOTE_FS3, 500 }, 
	{ NOTE_FS3, 500 }, 
	{ NOTE_GS4, 250 }, 
	{ NOTE_FS4, 250 }, 
	{ NOTE_CS4, 250 }, 
	{ NOTE_AS3, 250 }, 
	{ NOTE_FS3, 250 }, 
	{ NOTE_GS3, 125 }, 
	{ NOTE_GS3, 125 }, 
	{ NOTE_DS4, 250 }, 
	{ NOTE_GS4, 250 }, 
	{ NOTE_AS3, 250 }, 
	{ NOTE_B3, 250 }, 
	{ NOTE_DS4, 250 }, 
	{ NOTE_FS4, 250 }, 
	{ NOTE_FS3, 500 }, 
	{ NOTE_FS3, 500 }, 
	{ NOTE_FS4, 250 }, 
	{ NOTE_E3, 250 }, 
	{ NOTE_B3, 250 }, 
	{ NOTE_E4, 250 }, 
	{ NOTE_FS4, 250 }, 
	{ NOTE_B3, 500 }, 
	{ NOTE_REST, 2000 }, 
	{ NOTE_REST, 500 }, 
	{ NOTE_GS3, 125 }, 
	{ NOTE_REST, 125 }, 
	{ NOTE_GS4, 125 }, 
	{ NOTE_FS4, 125 }, 
	{ NOTE_DS4, 125 }, 
	{ NOTE_CS4, 125 }, 
	{ NOTE_B3, 125 }, 
	{ NOTE_GS3, 125 }, 
	{ NOTE_B3, 250 }, 
	{ NOTE_CS4, 250 }, 
	{ NOTE_REST, 250 }, 
	{ NOTE_FS3, 250 }, 
	{ NOTE_REST, 250 }, 
	{ NOTE_DS4, 250 }, 
	{ NOTE_REST, 250 }, 
	{ NOTE_GS4, 250 }, 
	{ NOTE_REST, 250 }, 
	{ NOTE_FS4, 750 }, 
	{ NOTE_GS3, 125 }, 
	{ NOTE_REST, 125 }, 
	{ NOTE_GS4, 125 }, 
	{ NOTE_FS4, 125 }, 
	{ NOTE_DS4, 125 }, 
	{ NOTE_CS4, 125 }, 
	{ NOTE_B3, 125 }, 
	{ NOTE_GS3, 125 }, 
	{ NOTE_B3, 250 }, 
	{ NOTE_CS4, 250 }, 
	{ NOTE_REST, 250 }, 
	{ NOTE_FS3, 250 }, 
	{ NOTE_REST, 250 }, 
	{ NOTE_DS4, 250 }, 
	{ NOTE_REST, 250 }, 
	{ NOTE_GS4, 1000 }, 
	{ NOTE_REST, 250 }, 
	{ NOTE_GS3, 125 }, 
	{ NOTE_REST, 125 }, 
	{ NOTE_GS4, 125 }, 
	{ NOTE_FS4, 125 }, 
	{ NOTE_DS4, 125 }, 
	{ NOTE_CS4, 125 }, 
	{ NOTE_B3, 125 }, 
	{ NOTE_GS3, 125 }, 
	{ NOTE_B3, 250 }, 
	{ NOTE_CS4, 250 }, 
	{ NOTE_REST, 250 }, 
	{ NOTE_FS3, 250 }, 
	{ NOTE_REST, 250 }, 
	{ NOTE_DS4, 250 }, 
	{ NOTE_REST, 250 }, 
	{ NOTE_GS4, 250 }, 
	{ NOTE_REST, 250 }, 
	{ NOTE_FS4, 750 }, 
	{ NOTE_GS3, 125 }, 
	{ NOTE_REST, 125 }, 
	{ NOTE_GS4, 125 }, 
	{ NOTE_FS4, 125 }, 
	{ NOTE_DS4, 125 }, 
	{ NOTE_CS4, 125 }, 
	{ NOTE_B3, 125 }, 
	{ NOTE_GS3, 125 }, 
	{ NOTE_B3, 250 }, 
	{ NOTE_CS4, 250 }, 
	{ NOTE_REST, 250 }, 
	{ NOTE_FS3, 250 }, 
	{ NOTE_REST, 250 }, 
	{ NOTE_DS4, 250 }, 
	{ NOTE_REST, 250 }, 
	{ NOTE_GS4, 1000 }, 
	{ NOTE_REST, 250 }, 
	{ NOTE_GS3, 250 }, 
	{ NOTE_GS4, 250 }, 
	{ NOTE_REST, 250 }, 
	{ NOTE_FS4, 250 }, 
	{ NOTE_REST, 250 }, 
	{ NOTE_F4, 250 }, 
	{ NOTE_REST, 250 }, 
	{ NOTE_DS4, 250 }, 
	{ NOTE_REST, 250 }, 
	{ NOTE_CS4, 250 }, 
	{ NOTE_REST, 250 }, 
	{ NOTE_B3, 250 }, 
	{ NOTE_REST, 250 }, 
	{ NOTE_FS3, 250 }, 
	{ NOTE_REST, 125 }, 
	{ NOTE_GS4, 375 }, 
	{ NOTE_GS3, 250 }, 
	{ NOTE_GS4, 250 }, 
	{ NOTE_REST, 250 }, 
	{ NOTE_FS4, 250 }, 
	{ NOTE_REST, 250 }, 
	{ NOTE_F4, 250 }, 
	{ NOTE_REST, 250 }, 
	{ NOTE_DS4, 250 }, 
	{ NOTE_CS4, 250 }, 
	{ NOTE_FS3, 500 }, 
	{ NOTE_G3, 500 }, 
	{ NOTE_GS3, 500 }, 
	{ NOTE_B3, 250 }, 
	{ NOTE_GS3, 250 }, 
	{ NOTE_GS4, 250 }, 
	{ NOTE_REST, 250 }, 
	{ NOTE_FS4, 250 }, 
	{ NOTE_REST, 250 }, 
	{ NOTE_F4, 250 }, 
	{ NOTE_REST, 250 }, 
	{ NOTE_DS4, 250 }, 
	{ NOTE_REST, 250 }, 
	{ NOTE_CS4, 250 }, 
	{ NOTE_REST, 250 }, 
	{ NOTE_B3, 250 }, 
	{ NOTE_REST, 250 }, 
	{ NOTE_FS3, 250 }, 
	{ NOTE_REST, 125 }, 
	{ NOTE_GS4, 375 }, 
	{ NOTE_GS3, 250 }, 
	{ NOTE_GS4, 250 }, 
	{ NOTE_REST, 250 }, 
	{ NOTE_FS4, 250 }, 
	{ NOTE_REST, 250 }, 
	{ NOTE_F4, 250 }, 
	{ NOTE_REST, 250 }, 
	{ NOTE_DS4, 250 }, 
	{ NOTE_CS4, 250 }, 
	{ NOTE_FS3, 500 }, 
	{ NOTE_G3, 500 }, 
	{ NOTE_GS3, 500 }, 
	{ NOTE_B3, 250 }, 
	{ NOTE_GS3, 125 }, 
	{ NOTE_REST, 125 }, 
	{ NOTE_FS3, 125 }, 
	{ NOTE_REST, 125 }, 
	{ NOTE_GS3, 125 }, 
	{ NOTE_REST, 125 }, 
	{ NOTE_B3, 750 }, 
	{ NOTE_GS3, 125 }, 
	{ NOTE_REST, 125 }, 
	{ NOTE_FS3, 125 }, 
	{ NOTE_REST, 125 }, 
	{ NOTE_GS3, 125 }, 
	{ NOTE_REST, 125 }, 
	{ NOTE_CS4, 750 }, 
	{ NOTE_CS4, 0 }, 
	{ NOTE_DS4, 250 }, 
	{ NOTE_FS4, 250 }, 
	{ NOTE_DS4, 125 }, 
	{ NOTE_CS4, 125 }, 
	{ NOTE_B3, 250 }, 
	{ NOTE_CS4, 250 }, 
	{ NOTE_FS3, 750 }, 
	{ NOTE_CS4, 250 }, 
	{ NOTE_F3, 750 }, 
	{ NOTE_GS3, 125 }, 
	{ NOTE_REST, 125 }, 
	{ NOTE_FS3, 125 }, 
	{ NOTE_REST, 125 }, 
	{ NOTE_GS3, 125 }, 
	{ NOTE_REST, 125 }, 
	{ NOTE_B3, 750 }, 
	{ NOTE_GS3, 125 }, 
	{ NOTE_REST, 125 }, 
	{ NOTE_FS3, 125 }, 
	{ NOTE_REST, 125 }, 
	{ NOTE_GS3, 125 }, 
	{ NOTE_REST, 125 }, 
	{ NOTE_CS4, 750 }, 
	{ NOTE_CS4, 0 }, 
	{ NOTE_DS4, 250 }, 
	{ NOTE_FS4, 250 }, 
	{ NOTE_DS4, 125 }, 
	{ NOTE_CS4, 125 }, 
	{ NOTE_B3, 250 }, 
	{ NOTE_CS4, 250 }, 
	{ NOTE_FS3, 750 }, 
	{ NOTE_CS4, 250 }, 
	{ NOTE_F3, 750 }, 
	{ NOTE_DS4, 250 }, 
	{ NOTE_DS4, 250 }, 
	{ NOTE_REST, 1000 }, 
	{ NOTE_CS4, 250 }, 
	{ NOTE_REST, 250 }, 
	{ NOTE_B3, 1500 }, 
	{ NOTE_CS4, 500 }, 
	{ NOTE_DS4, 250 }, 
	{ NOTE_DS4, 250 }, 
	{ NOTE_REST, 1000 }, 
	{ NOTE_CS4, 250 }, 
	{ NOTE_REST, 250 }, 
	{ NOTE_B3, 1500 }, 
	{ NOTE_CS4, 500 }, 
	{ NOTE_CS4, 250 }, 
	{ NOTE_GS4, 250 }, 
	{ NOTE_CS5, 250 }, 
	{ NOTE_E5, 250 }, 
	{ NOTE_B3, 250 }, 
	{ NOTE_DS4, 250 }, 
	{ NOTE_FS4, 250 }, 
	{ NOTE_FS5, 250 }, 
	{ NOTE_A3, 250 }, 
	{ NOTE_E4, 250 }, 
	{ NOTE_A4, 250 }, 
	{ NOTE_CS5, 250 }, 
	{ NOTE_A4, 250 }, 
	{ NOTE_E4, 250 }, 
	{ NOTE_B3, 250 }, 
	{ NOTE_FS4, 250 }, 
	{ NOTE_CS4, 250 }, 
	{ NOTE_GS4, 250 }, 
	{ NOTE_CS5, 250 }, 
	{ NOTE_E5, 250 }, 
	{ NOTE_B3, 250 }, 
	{ NOTE_DS4, 250 }, 
	{ NOTE_FS4, 250 }, 
	{ NOTE_B4, 250 }, 
	{ NOTE_FS3, 250 }, 
	{ NOTE_AS3, 250 }, 
	{ NOTE_AS4, 250 }, 
	{ NOTE_B4, 250 }, 
	{ NOTE_AS4, 250 }, 
	{ NOTE_FS4, 250 }, 
	{ NOTE_AS4, 250 }, 
	{ NOTE_FS4, 250 }, 
	{ NOTE_GS3, 250 }, 
	{ NOTE_DS4, 250 }, 
	{ NOTE_GS4, 250 }, 
	{ NOTE_AS3, 250 }, 
	{ NOTE_B3, 250 }, 
	{ NOTE_DS4, 250 }, 
	{ NOTE_FS4, 250 }, 
	{ NOTE_FS3, 500 }, 
	{ NOTE_FS3, 500 }, 
	{ NOTE_FS4, 250 }, 
	{ NOTE_E3, 250 }, 
	{ NOTE_B3, 250 }, 
	{ NOTE_E4, 250 }, 
	{ NOTE_FS4, 250 }, 
	{ NOTE_GS3, 250 }, 
	{ NOTE_DS4, 250 }, 
	{ NOTE_GS4, 250 }, 
	{ NOTE_AS3, 250 }, 
	{ NOTE_B3, 250 }, 
	{ NOTE_DS4, 250 }, 
	{ NOTE_FS4, 250 }, 
	{ NOTE_FS3, 500 }, 
	{ NOTE_FS3, 500 }, 
	{ NOTE_GS4, 250 }, 
	{ NOTE_FS4, 250 }, 
	{ NOTE_CS4, 250 }, 
	{ NOTE_AS3, 250 }, 
	{ NOTE_FS3, 250 }, 
	{ NOTE_GS3, 250 }, 
	{ NOTE_DS4, 250 }, 
	{ NOTE_GS4, 250 }, 
	{ NOTE_AS3, 250 }, 
	{ NOTE_B3, 250 }, 
	{ NOTE_DS4, 250 }, 
	{ NOTE_FS4, 250 }, 
	{ NOTE_FS3, 500 }, 
	{ NOTE_FS3, 500 }, 
	{ NOTE_FS4, 250 }, 
	{ NOTE_E3, 250 }, 
	{ NOTE_B3, 250 }, 
	{ NOTE_E4, 250 }, 
	{ NOTE_FS4, 250 }, 
	{ NOTE_B3, 500 }, 
	{ NOTE_REST, 500 }, 
	{ NOTE_GS4, 500 }, 
	{ NOTE_FS4, 500 }, 
	{ NOTE_GS3, 125 }, 
	{ NOTE_REST, 125 }, 
	{ NOTE_FS3, 125 }, 
	{ NOTE_REST, 125 }, 
	{ NOTE_GS3, 125 }, 
	{ NOTE_REST, 125 }, 
	{ NOTE_B3, 750 }, 
	{ NOTE_GS3, 125 }, 
	{ NOTE_REST, 125 }, 
	{ NOTE_FS3, 125 }, 
	{ NOTE_REST, 125 }, 
	{ NOTE_GS3, 125 }, 
	{ NOTE_REST, 125 }, 
	{ NOTE_CS4, 750 }, 
	{ NOTE_CS4, 0 }, 
	{ NOTE_DS4, 250 }, 
	{ NOTE_FS4, 250 }, 
	{ NOTE_DS4, 125 }, 
	{ NOTE_CS4, 125 }, 
	{ NOTE_B3, 250 }, 
	{ NOTE_CS4, 250 }, 
	{ NOTE_FS3, 750 }, 
	{ NOTE_CS4, 250 }, 
	{ NOTE_F3, 750 }, 
	{ NOTE_GS3, 125 }, 
	{ NOTE_REST, 125 }, 
	{ NOTE_FS3, 125 }, 
	{ NOTE_REST, 125 }, 
	{ NOTE_GS3, 125 }, 
	{ NOTE_REST, 125 }, 
	{ NOTE_B3, 750 }, 
	{ NOTE_GS3, 125 }, 
	{ NOTE_REST, 125 }, 
	{ NOTE_FS3, 125 }, 
	{ NOTE_REST, 125 }, 
	{ NOTE_GS3, 125 }, 
	{ NOTE_REST, 125 }, 
	{ NOTE_CS4, 750 }, 
	{ NOTE_CS4, 0 }, 
	{ NOTE_DS4, 250 }, 
	{ NOTE_FS4, 250 }, 
	{ NOTE_DS4, 125 }, 
	{ NOTE_CS4, 125 }, 
	{ NOTE_B3, 250 }, 
	{ NOTE_CS4, 250 }, 
	{ NOTE_FS3, 750 }, 
	{ NOTE_CS4, 250 }, 
	{ NOTE_F3, 750 }, 
	{ NOTE_AS3, 375 }, 
	{ NOTE_AS3, 1000 }, 
	{ NOTE_REST, 125 }, 
	{ NOTE_FS5, 375 }, 
	{ NOTE_FS5, 937 }, 
	{ NOTE_DS3, 188 }, 
	{ NOTE_GS3, 167 }, 
	{ NOTE_AS3, 167 }, 
	{ NOTE_CS4, 167 }, 
	{ NOTE_FS4, 167 }, 
	{ NOTE_CS4, 167 }, 
	{ NOTE_DS4, 165 }, 
	{ NOTE_AS3, 375 }, 
	{ NOTE_AS3, 1000 }, 
	{ NOTE_REST, 125 }, 
	{ NOTE_FS5, 0 }, 
	{ NOTE_GS5, 375 }, 
	{ NOTE_AS5, 2125 }, 
	{ NOTE_GS5, 333 }, 
	{ NOTE_DS5, 333 }, 
	{ NOTE_GS5, 333 }, 
	{ NOTE_AS5, 333 }, 
	{ NOTE_GS5, 333 }, 
	{ NOTE_AS5, 335 }, 
	{ NOTE_B5, 3500 }, 
	{ NOTE_REST, 3500 }, 
};
const uint16_t NUM_OF_NOTES1 = sizeof(melody1)/sizeof(melody1[0]);

const Note melody2[] PROGMEM = {
	{ NOTE_B3, 250 }, 
	{ NOTE_DS4, 250 }, 
	{ NOTE_DS4, 250 }, 
	{ NOTE_FS4, 500 }, 
	{ NOTE_AS3, 500 }, 
	{ NOTE_CS4, 250 }, 
	{ NOTE_REST, 250 }, 
	{ NOTE_CS4, 500 }, 
	{ NOTE_E4, 125 }, 
	{ NOTE_DS4, 125 }, 
	{ NOTE_B3, 1000 }, 
	{ NOTE_B3, 250 }, 
	{ NOTE_DS4, 250 }, 
	{ NOTE_DS4, 250 }, 
	{ NOTE_FS4, 500 }, 
	{ NOTE_AS3, 500 }, 
	{ NOTE_CS4, 500 }, 
	{ NOTE_B3, 250 }, 
	{ NOTE_AS3, 1500 }, 
	{ NOTE_B3, 250 }, 
	{ NOTE_DS4, 250 }, 
	{ NOTE_DS4, 250 }, 
	{ NOTE_FS4, 500 }, 
	{ NOTE_AS3, 500 }, 
	{ NOTE_CS4, 500 }, 
	{ NOTE_CS4, 500 }, 
	{ NOTE_E4, 125 }, 
	{ NOTE_DS4, 125 }, 
	{ NOTE_B3, 1000 }, 
	{ NOTE_B3, 250 }, 
	{ NOTE_FS3, 250 }, 
	{ NOTE_B3, 500 }, 
	{ NOTE_AS3, 500 }, 
	{ NOTE_GS3, 2000 }, 
	{ NOTE_REST, 1000 }, 
	{ NOTE_B3, 500 }, 
	{ NOTE_REST, 500 }, 
	{ NOTE_REST, 500 }, 
	{ NOTE_CS4, 500 }, 
	{ NOTE_REST, 1000 }, 
	{ NOTE_REST, 500 }, 
	{ NOTE_CS4, 500 }, 
	{ NOTE_REST, 500 }, 
	{ NOTE_CS4, 500 }, 
	{ NOTE_REST, 1000 }, 
	{ NOTE_B3, 500 }, 
	{ NOTE_REST, 500 }, 
	{ NOTE_REST, 500 }, 
	{ NOTE_CS4, 500 }, 
	{ NOTE_REST, 1000 }, 
	{ NOTE_REST, 500 }, 
	{ NOTE_CS4, 500 }, 
	{ NOTE_REST, 500 }, 
	{ NOTE_CS4, 500 }, 
	{ NOTE_REST, 1000 }, 
	{ NOTE_REST, 500 }, 
	{ NOTE_CS4, 375 }, 
	{ NOTE_FS4, 625 }, 
	{ NOTE_REST, 500 }, 
	{ NOTE_REST, 1000 }, 
	{ NOTE_REST, 1000 }, 
	{ NOTE_REST, 500 }, 
	{ NOTE_FS4, 0 }, 
	{ NOTE_DS4, 375 }, 
	{ NOTE_CS4, 625 }, 
	{ NOTE_REST, 1500 }, 
	{ NOTE_REST, 1000 }, 
	{ NOTE_REST, 500 }, 
	{ NOTE_CS4, 375 }, 
	{ NOTE_CS4, 625 }, 
	{ NOTE_REST, 1500 }, 
	{ NOTE_REST, 1000 }, 
	{ NOTE_REST, 500 }, 
	{ NOTE_FS4, 0 }, 
	{ NOTE_DS4, 375 }, 
	{ NOTE_CS4, 625 }, 
	{ NOTE_REST, 1500 }, 
	{ NOTE_REST, 1000 }, 
	{ NOTE_B3, 500 }, 
	{ NOTE_REST, 500 }, 
	{ NOTE_REST, 500 }, 
	{ NOTE_CS4, 500 }, 
	{ NOTE_REST, 1000 }, 
	{ NOTE_REST, 500 }, 
	{ NOTE_CS4, 500 }, 
	{ NOTE_REST, 500 }, 
	{ NOTE_CS4, 500 }, 
	{ NOTE_REST, 1000 }, 
	{ NOTE_B3, 500 }, 
	{ NOTE_REST, 500 }, 
	{ NOTE_REST, 500 }, 
	{ NOTE_CS4, 500 }, 
	{ NOTE_REST, 1000 }, 
	{ NOTE_REST, 500 }, 
	{ NOTE_CS4, 500 }, 
	{ NOTE_REST, 500 }, 
	{ NOTE_CS4, 500 }, 
	{ NOTE_REST, 1000 }, 
	{ NOTE_REST, 500 }, 
	{ NOTE_CS4, 375 }, 
	{ NOTE_FS4, 625 }, 
	{ NOTE_REST, 500 }, 
	{ NOTE_REST, 1000 }, 
	{ NOTE_REST, 1000 }, 
	{ NOTE_REST, 500 }, 
	{ NOTE_FS4, 0 }, 
	{ NOTE_DS4, 375 }, 
	{ NOTE_CS4, 625 }, 
	{ NOTE_REST, 1500 }, 
	{ NOTE_REST, 1000 }, 
	{ NOTE_REST, 500 }, 
	{ NOTE_CS4, 375 }, 
	{ NOTE_FS4, 625 }, 
	{ NOTE_REST, 500 }, 
	{ NOTE_REST, 1000 }, 
	{ NOTE_REST, 1000 }, 
	{ NOTE_REST, 500 }, 
	{ NOTE_FS4, 0 }, 
	{ NOTE_DS4, 375 }, 
	{ NOTE_CS4, 625 }, 
	{ NOTE_REST, 1500 }, 
	{ NOTE_B3, 333 }, 
	{ NOTE_DS4, 333 }, 
	{ NOTE_GS4, 333 }, 
	{ NOTE_FS4, 333 }, 
	{ NOTE_CS4, 333 }, 
	{ NOTE_AS3, 335 }, 
	{ NOTE_GS3, 2000 }, 
	{ NOTE_REST, 2000 }, 
	{ NOTE_REST, 2000 }, 
	{ NOTE_REST, 2000 }, 
	{ NOTE_REST, 2000 }, 
	{ NOTE_REST, 2000 }, 
	{ NOTE_REST, 2000 }, 
	{ NOTE_REST, 2000 }, 
	{ NOTE_REST, 2000 }, 
	{ NOTE_DS4, 1000 }, 
	{ NOTE_CS4, 1000 }, 
	{ NOTE_E4, 1000 }, 
	{ NOTE_CS4, 1000 }, 
	{ NOTE_DS4, 1000 }, 
	{ NOTE_CS4, 1000 }, 
	{ NOTE_E4, 1000 }, 
	{ NOTE_CS4, 1000 }, 
	{ NOTE_GS4, 1000 }, 
	{ NOTE_FS4, 1000 }, 
	{ NOTE_E4, 1500 }, 
	{ NOTE_FS4, 500 }, 
	{ NOTE_GS4, 1000 }, 
	{ NOTE_FS4, 1000 }, 
	{ NOTE_CS4, 2000 }, 
	{ NOTE_DS4, 1000 }, 
	{ NOTE_DS4, 1000 }, 
	{ NOTE_CS4, 1000 }, 
	{ NOTE_E4, 1000 }, 
	{ NOTE_DS4, 1000 }, 
	{ NOTE_DS4, 1000 }, 
	{ NOTE_CS4, 2000 }, 
	{ NOTE_DS4, 1000 }, 
	{ NOTE_DS4, 1000 }, 
	{ NOTE_CS4, 1000 }, 
	{ NOTE_E4, 1000 }, 
	{ NOTE_REST, 2000 }, 
	{ NOTE_REST, 1000 }, 
	{ NOTE_B3, 500 }, 
	{ NOTE_REST, 500 }, 
	{ NOTE_REST, 500 }, 
	{ NOTE_CS4, 500 }, 
	{ NOTE_REST, 1000 }, 
	{ NOTE_REST, 500 }, 
	{ NOTE_CS4, 500 }, 
	{ NOTE_REST, 500 }, 
	{ NOTE_CS4, 500 }, 
	{ NOTE_REST, 1000 }, 
	{ NOTE_B3, 500 }, 
	{ NOTE_REST, 500 }, 
	{ NOTE_REST, 500 }, 
	{ NOTE_CS4, 500 }, 
	{ NOTE_REST, 1000 }, 
	{ NOTE_REST, 500 }, 
	{ NOTE_CS4, 500 }, 
	{ NOTE_REST, 500 }, 
	{ NOTE_CS4, 500 }, 
	{ NOTE_REST, 2000 }, 
	{ NOTE_REST, 2000 }, 
	{ NOTE_REST, 2000 }, 
	{ NOTE_REST, 2000 }, 
	{ NOTE_GS4, 1000 }, 
	{ NOTE_FS4, 1000 }, 
	{ NOTE_E4, 1500 }, 
	{ NOTE_FS4, 500 }, 
	{ NOTE_GS4, 1000 }, 
	{ NOTE_FS4, 1000 }, 
	{ NOTE_CS4, 2000 }, 
	{ NOTE_DS4, 1000 }, 
	{ NOTE_CS4, 1000 }, 
	{ NOTE_E4, 1000 }, 
	{ NOTE_CS4, 1000 }, 
	{ NOTE_DS4, 1000 }, 
	{ NOTE_CS4, 1000 }, 
	{ NOTE_E4, 1000 }, 
	{ NOTE_CS4, 1000 }, 
	{ NOTE_GS4, 1000 }, 
	{ NOTE_FS4, 1000 }, 
	{ NOTE_E4, 1500 }, 
	{ NOTE_FS4, 500 }, 
	{ NOTE_GS4, 1000 }, 
	{ NOTE_FS4, 1000 }, 
	{ NOTE_CS4, 2000 }, 
	{ NOTE_DS4, 1000 }, 
	{ NOTE_DS4, 1000 }, 
	{ NOTE_CS4, 1000 }, 
	{ NOTE_E4, 1000 }, 
	{ NOTE_DS4, 1000 }, 
	{ NOTE_DS4, 1000 }, 
	{ NOTE_CS4, 2000 }, 
	{ NOTE_DS4, 1000 }, 
	{ NOTE_DS4, 1000 }, 
	{ NOTE_CS4, 1000 }, 
	{ NOTE_E4, 1000 }, 
	{ NOTE_REST, 3000 }, 
	{ NOTE_REST, 2000 }, 
	{ NOTE_REST, 2000 }, 
	{ NOTE_REST, 2000 }, 
	{ NOTE_REST, 2000 }, 
	{ NOTE_REST, 2000 }, 
	{ NOTE_REST, 2000 }, 
	{ NOTE_REST, 2000 }, 
	{ NOTE_REST, 2000 }, 
	{ NOTE_GS5, 500 }, 
	{ NOTE_E6, 125 }, 
	{ NOTE_DS6, 125 }, 
	{ NOTE_G6, 125 }, 
	{ NOTE_GS6, 125 }, 
	{ NOTE_G6, 125 }, 
	{ NOTE_E6, 125 }, 
	{ NOTE_AS6, 125 }, 
	{ NOTE_GS6, 125 }, 
	{ NOTE_G6, 125 }, 
	{ NOTE_E6, 125 }, 
	{ NOTE_DS6, 125 }, 
	{ NOTE_CS6, 125 }, 
	{ NOTE_AS5, 125 }, 
	{ NOTE_B5, 125 }, 
	{ NOTE_AS5, 125 }, 
	{ NOTE_GS5, 125 }, 
	{ NOTE_G5, 125 }, 
	{ NOTE_GS5, 125 }, 
	{ NOTE_E5, 125 }, 
	{ NOTE_GS5, 125 }, 
	{ NOTE_DS5, 125 }, 
	{ NOTE_E5, 125 }, 
	{ NOTE_DS5, 750 }, 
	{ NOTE_REST, 500 }, 
	{ NOTE_DS5, 125 }, 
	{ NOTE_E5, 125 }, 
	{ NOTE_DS5, 125 }, 
	{ NOTE_E5, 125 }, 
	{ NOTE_DS5, 250 }, 
	{ NOTE_CS5, 250 }, 
	{ NOTE_DS5, 250 }, 
	{ NOTE_AS4, 250 }, 
	{ NOTE_CS5, 250 }, 
	{ NOTE_FS4, 500 }, 
	{ NOTE_G4, 500 }, 
	{ NOTE_GS4, 500 }, 
	{ NOTE_REST, 250 }, 
	{ NOTE_REST, 500 }, 
	{ NOTE_AS6, 62 }, 
	{ NOTE_B6, 62 }, 
	{ NOTE_AS6, 62 }, 
	{ NOTE_B6, 62 }, 
	{ NOTE_AS6, 62 }, 
	{ NOTE_B6, 62 }, 
	{ NOTE_AS6, 62 }, 
	{ NOTE_B6, 62 }, 
	{ NOTE_AS6, 125 }, 
	{ NOTE_GS6, 125 }, 
	{ NOTE_G6, 125 }, 
	{ NOTE_GS6, 125 }, 
	{ NOTE_G6, 125 }, 
	{ NOTE_GS6, 125 }, 
	{ NOTE_G6, 125 }, 
	{ NOTE_E6, 129 }, 
	{ NOTE_G6, 125 }, 
	{ NOTE_GS6, 125 }, 
	{ NOTE_AS6, 125 }, 
	{ NOTE_GS6, 125 }, 
	{ NOTE_G6, 125 }, 
	{ NOTE_GS6, 1000 }, 
	{ NOTE_REST, 375 }, 
	{ NOTE_GS6, 500 }, 
	{ NOTE_GS6, 125 }, 
	{ NOTE_AS6, 125 }, 
	{ NOTE_GS6, 125 }, 
	{ NOTE_G6, 125 }, 
	{ NOTE_GS6, 125 }, 
	{ NOTE_E6, 125 }, 
	{ NOTE_G6, 125 }, 
	{ NOTE_E6, 125 }, 
	{ NOTE_DS6, 125 }, 
	{ NOTE_E6, 125 }, 
	{ NOTE_DS6, 125 }, 
	{ NOTE_CS6, 125 }, 
	{ NOTE_CS6, 250 }, 
	{ NOTE_FS5, 500 }, 
	{ NOTE_G5, 500 }, 
	{ NOTE_GS5, 500 }, 
	{ NOTE_B5, 250 }, 
	{ NOTE_REST, 1000 }, 
	{ NOTE_B3, 500 }, 
	{ NOTE_REST, 500 }, 
	{ NOTE_REST, 500 }, 
	{ NOTE_CS4, 500 }, 
	{ NOTE_REST, 1000 }, 
	{ NOTE_REST, 500 }, 
	{ NOTE_CS4, 500 }, 
	{ NOTE_REST, 500 }, 
	{ NOTE_CS4, 500 }, 
	{ NOTE_REST, 1000 }, 
	{ NOTE_B3, 500 }, 
	{ NOTE_REST, 500 }, 
	{ NOTE_REST, 500 }, 
	{ NOTE_CS4, 500 }, 
	{ NOTE_REST, 1000 }, 
	{ NOTE_REST, 500 }, 
	{ NOTE_CS4, 500 }, 
	{ NOTE_REST, 500 }, 
	{ NOTE_CS4, 500 }, 
	{ NOTE_REST, 2000 }, 
	{ NOTE_REST, 2000 }, 
	{ NOTE_REST, 2000 }, 
	{ NOTE_REST, 2000 }, 
	{ NOTE_GS4, 1000 }, 
	{ NOTE_FS4, 1000 }, 
	{ NOTE_E4, 1500 }, 
	{ NOTE_FS4, 500 }, 
	{ NOTE_GS4, 1000 }, 
	{ NOTE_FS4, 1000 }, 
	{ NOTE_CS4, 2000 }, 
	{ NOTE_DS4, 1000 }, 
	{ NOTE_DS4, 1000 }, 
	{ NOTE_CS4, 1000 }, 
	{ NOTE_E4, 1000 }, 
	{ NOTE_DS4, 1000 }, 
	{ NOTE_DS4, 1000 }, 
	{ NOTE_CS4, 2000 }, 
	{ NOTE_DS4, 1000 }, 
	{ NOTE_DS4, 1000 }, 
	{ NOTE_CS4, 1000 }, 
	{ NOTE_E4, 1000 }, 
	{ NOTE_REST, 2000 }, 
	{ NOTE_REST, 1000 }, 
	{ NOTE_B3, 500 }, 
	{ NOTE_REST, 500 }, 
	{ NOTE_REST, 500 }, 
	{ NOTE_CS4, 500 }, 
	{ NOTE_REST, 1000 }, 
	{ NOTE_REST, 500 }, 
	{ NOTE_CS4, 500 }, 
	{ NOTE_REST, 500 }, 
	{ NOTE_CS4, 500 }, 
	{ NOTE_REST, 1000 }, 
	{ NOTE_B3, 500 }, 
	{ NOTE_REST, 500 }, 
	{ NOTE_REST, 500 }, 
	{ NOTE_CS4, 500 }, 
	{ NOTE_REST, 1000 }, 
	{ NOTE_REST, 500 }, 
	{ NOTE_CS4, 500 }, 
	{ NOTE_REST, 500 }, 
	{ NOTE_CS4, 500 }, 
	{ NOTE_REST, 1000 }, 
	{ NOTE_REST, 500 }, 
	{ NOTE_CS4, 375 }, 
	{ NOTE_FS4, 625 }, 
	{ NOTE_REST, 500 }, 
	{ NOTE_REST, 1000 }, 
	{ NOTE_REST, 1000 }, 
	{ NOTE_REST, 500 }, 
	{ NOTE_FS4, 0 }, 
	{ NOTE_DS4, 375 }, 
	{ NOTE_CS4, 625 }, 
	{ NOTE_REST, 1500 }, 
	{ NOTE_B3, 333 }, 
	{ NOTE_DS4, 333 }, 
	{ NOTE_GS4, 333 }, 
	{ NOTE_FS4, 333 }, 
	{ NOTE_CS4, 333 }, 
	{ NOTE_AS3, 335 }, 
	{ NOTE_B4, 3500 }, 
	{ NOTE_REST, 3500 }, 
};
const uint16_t NUM_OF_NOTES2 = sizeof(melody2)/sizeof(melody2[0]);

const Note melody3[] PROGMEM = {
	{ NOTE_B3, 250 }, 
	{ NOTE_DS4, 250 }, 
	{ NOTE_DS4, 250 }, 
	{ NOTE_FS4, 500 }, 
	{ NOTE_AS3, 500 }, 
	{ NOTE_CS4, 250 }, 
	{ NOTE_REST, 250 }, 
	{ NOTE_CS4, 500 }, 
	{ NOTE_E4, 125 }, 
	{ NOTE_DS4, 125 }, 
	{ NOTE_B3, 1000 }, 
	{ NOTE_B3, 250 }, 
	{ NOTE_DS4, 250 }, 
	{ NOTE_DS4, 250 }, 
	{ NOTE_FS4, 500 }, 
	{ NOTE_AS3, 500 }, 
	{ NOTE_CS4, 500 }, 
	{ NOTE_B3, 250 }, 
	{ NOTE_AS3, 1500 }, 
	{ NOTE_B3, 250 }, 
	{ NOTE_DS4, 250 }, 
	{ NOTE_DS4, 250 }, 
	{ NOTE_FS4, 500 }, 
	{ NOTE_AS3, 500 }, 
	{ NOTE_CS4, 500 }, 
	{ NOTE_CS4, 500 }, 
	{ NOTE_E4, 125 }, 
	{ NOTE_DS4, 125 }, 
	{ NOTE_B3, 1000 }, 
	{ NOTE_B3, 250 }, 
	{ NOTE_FS3, 250 }, 
	{ NOTE_B3, 500 }, 
	{ NOTE_AS3, 500 }, 
	{ NOTE_GS3, 2000 }, 
	{ NOTE_REST, 1000 }, 
	{ NOTE_FS4, 500 }, 
	{ NOTE_REST, 500 }, 
	{ NOTE_REST, 500 }, 
	{ NOTE_GS4, 500 }, 
	{ NOTE_REST, 1000 }, 
	{ NOTE_REST, 500 }, 
	{ NOTE_FS4, 500 }, 
	{ NOTE_REST, 500 }, 
	{ NOTE_F4, 500 }, 
	{ NOTE_REST, 1000 }, 
	{ NOTE_FS4, 500 }, 
	{ NOTE_REST, 500 }, 
	{ NOTE_REST, 500 }, 
	{ NOTE_GS4, 500 }, 
	{ NOTE_REST, 1000 }, 
	{ NOTE_REST, 500 }, 
	{ NOTE_FS4, 500 }, 
	{ NOTE_REST, 500 }, 
	{ NOTE_F4, 500 }, 
	{ NOTE_REST, 1000 }, 
	{ NOTE_REST, 500 }, 
	{ NOTE_FS4, 375 }, 
	{ NOTE_FS4, 625 }, 
	{ NOTE_REST, 500 }, 
	{ NOTE_REST, 1000 }, 
	{ NOTE_REST, 1000 }, 
	{ NOTE_REST, 500 }, 
	{ NOTE_FS4, 0 }, 
	{ NOTE_GS4, 375 }, 
	{ NOTE_FS4, 625 }, 
	{ NOTE_REST, 1500 }, 
	{ NOTE_REST, 1000 }, 
	{ NOTE_REST, 500 }, 
	{ NOTE_FS4, 375 }, 
	{ NOTE_FS4, 625 }, 
	{ NOTE_REST, 1500 }, 
	{ NOTE_REST, 1000 }, 
	{ NOTE_REST, 500 }, 
	{ NOTE_FS4, 0 }, 
	{ NOTE_GS4, 375 }, 
	{ NOTE_FS4, 625 }, 
	{ NOTE_REST, 1500 }, 
	{ NOTE_REST, 1000 }, 
	{ NOTE_FS4, 500 }, 
	{ NOTE_REST, 500 }, 
	{ NOTE_REST, 500 }, 
	{ NOTE_GS4, 500 }, 
	{ NOTE_REST, 1000 }, 
	{ NOTE_REST, 500 }, 
	{ NOTE_FS4, 500 }, 
	{ NOTE_REST, 500 }, 
	{ NOTE_F4, 500 }, 
	{ NOTE_REST, 1000 }, 
	{ NOTE_FS4, 500 }, 
	{ NOTE_REST, 500 }, 
	{ NOTE_REST, 500 }, 
	{ NOTE_GS4, 500 }, 
	{ NOTE_REST, 1000 }, 
	{ NOTE_REST, 500 }, 
	{ NOTE_FS4, 500 }, 
	{ NOTE_REST, 500 }, 
	{ NOTE_F4, 500 }, 
	{ NOTE_REST, 1000 }, 
	{ NOTE_REST, 500 }, 
	{ NOTE_FS4, 375 }, 
	{ NOTE_FS4, 625 }, 
	{ NOTE_REST, 500 }, 
	{ NOTE_REST, 1000 }, 
	{ NOTE_REST, 1000 }, 
	{ NOTE_REST, 500 }, 
	{ NOTE_FS4, 0 }, 
	{ NOTE_GS4, 375 }, 
	{ NOTE_FS4, 625 }, 
	{ NOTE_REST, 1500 }, 
	{ NOTE_REST, 1000 }, 
	{ NOTE_REST, 500 }, 
	{ NOTE_FS4, 375 }, 
	{ NOTE_FS4, 625 }, 
	{ NOTE_REST, 500 }, 
	{ NOTE_REST, 1000 }, 
	{ NOTE_REST, 1000 }, 
	{ NOTE_REST, 500 }, 
	{ NOTE_FS4, 0 }, 
	{ NOTE_GS4, 375 }, 
	{ NOTE_FS4, 625 }, 
	{ NOTE_REST, 1500 }, 
	{ NOTE_B3, 333 }, 
	{ NOTE_DS4, 333 }, 
	{ NOTE_GS4, 333 }, 
	{ NOTE_FS4, 333 }, 
	{ NOTE_CS4, 333 }, 
	{ NOTE_AS3, 335 }, 
	{ NOTE_GS3, 2000 }, 
	{ NOTE_REST, 2000 }, 
	{ NOTE_REST, 2000 }, 
	{ NOTE_REST, 2000 }, 
	{ NOTE_REST, 2000 }, 
	{ NOTE_REST, 2000 }, 
	{ NOTE_REST, 2000 }, 
	{ NOTE_REST, 2000 }, 
	{ NOTE_REST, 2000 }, 
	{ NOTE_GS4, 1000 }, 
	{ NOTE_FS4, 1000 }, 
	{ NOTE_GS4, 1000 }, 
	{ NOTE_FS4, 1000 }, 
	{ NOTE_GS4, 1000 }, 
	{ NOTE_FS4, 1000 }, 
	{ NOTE_GS4, 1000 }, 
	{ NOTE_FS4, 1000 }, 
	{ NOTE_CS5, 1000 }, 
	{ NOTE_B4, 1000 }, 
	{ NOTE_A4, 1500 }, 
	{ NOTE_B4, 500 }, 
	{ NOTE_CS5, 1000 }, 
	{ NOTE_B4, 1000 }, 
	{ NOTE_FS4, 2000 }, 
	{ NOTE_GS4, 1000 }, 
	{ NOTE_FS4, 1000 }, 
	{ NOTE_FS4, 1000 }, 
	{ NOTE_GS4, 1000 }, 
	{ NOTE_GS4, 1000 }, 
	{ NOTE_FS4, 1000 }, 
	{ NOTE_FS4, 2000 }, 
	{ NOTE_GS4, 1000 }, 
	{ NOTE_FS4, 1000 }, 
	{ NOTE_FS4, 1000 }, 
	{ NOTE_GS4, 1000 }, 
	{ NOTE_REST, 2000 }, 
	{ NOTE_REST, 1000 }, 
	{ NOTE_FS4, 500 }, 
	{ NOTE_REST, 500 }, 
	{ NOTE_REST, 500 }, 
	{ NOTE_GS4, 500 }, 
	{ NOTE_REST, 1000 }, 
	{ NOTE_REST, 500 }, 
	{ NOTE_FS4, 500 }, 
	{ NOTE_REST, 500 }, 
	{ NOTE_F4, 500 }, 
	{ NOTE_REST, 1000 }, 
	{ NOTE_FS4, 500 }, 
	{ NOTE_REST, 500 }, 
	{ NOTE_REST, 500 }, 
	{ NOTE_GS4, 500 }, 
	{ NOTE_REST, 1000 }, 
	{ NOTE_REST, 500 }, 
	{ NOTE_FS4, 500 }, 
	{ NOTE_REST, 500 }, 
	{ NOTE_F4, 500 }, 
	{ NOTE_REST, 2000 }, 
	{ NOTE_REST, 2000 }, 
	{ NOTE_REST, 2000 }, 
	{ NOTE_REST, 2000 }, 
	{ NOTE_CS5, 1000 }, 
	{ NOTE_B4, 1000 }, 
	{ NOTE_A4, 1500 }, 
	{ NOTE_B4, 500 }, 
	{ NOTE_CS5, 1000 }, 
	{ NOTE_B4, 1000 }, 
	{ NOTE_FS4, 2000 }, 
	{ NOTE_GS4, 1000 }, 
	{ NOTE_FS4, 1000 }, 
	{ NOTE_GS4, 1000 }, 
	{ NOTE_FS4, 1000 }, 
	{ NOTE_GS4, 1000 }, 
	{ NOTE_FS4, 1000 }, 
	{ NOTE_GS4, 1000 }, 
	{ NOTE_FS4, 1000 }, 
	{ NOTE_CS5, 1000 }, 
	{ NOTE_B4, 1000 }, 
	{ NOTE_A4, 1500 }, 
	{ NOTE_B4, 500 }, 
	{ NOTE_CS5, 1000 }, 
	{ NOTE_B4, 1000 }, 
	{ NOTE_FS4, 2000 }, 
	{ NOTE_GS4, 1000 }, 
	{ NOTE_FS4, 1000 }, 
	{ NOTE_FS4, 1000 }, 
	{ NOTE_GS4, 1000 }, 
	{ NOTE_GS4, 1000 }, 
	{ NOTE_FS4, 1000 }, 
	{ NOTE_FS4, 2000 }, 
	{ NOTE_GS4, 1000 }, 
	{ NOTE_FS4, 1000 }, 
	{ NOTE_FS4, 1000 }, 
	{ NOTE_GS4, 1000 }, 
	{ NOTE_REST, 3000 }, 
	{ NOTE_REST, 2000 }, 
	{ NOTE_REST, 2000 }, 
	{ NOTE_REST, 2000 }, 
	{ NOTE_REST, 2000 }, 
	{ NOTE_REST, 2000 }, 
	{ NOTE_REST, 2000 }, 
	{ NOTE_REST, 2000 }, 
	{ NOTE_REST, 2000 }, 
	{ NOTE_B5, 500 }, 
	{ NOTE_E6, 125 }, 
	{ NOTE_DS6, 125 }, 
	{ NOTE_G6, 125 }, 
	{ NOTE_GS6, 125 }, 
	{ NOTE_G6, 125 }, 
	{ NOTE_E6, 125 }, 
	{ NOTE_AS6, 125 }, 
	{ NOTE_GS6, 125 }, 
	{ NOTE_G6, 125 }, 
	{ NOTE_E6, 125 }, 
	{ NOTE_DS6, 125 }, 
	{ NOTE_CS6, 125 }, 
	{ NOTE_AS5, 125 }, 
	{ NOTE_B5, 125 }, 
	{ NOTE_AS5, 125 }, 
	{ NOTE_GS5, 125 }, 
	{ NOTE_G5, 125 }, 
	{ NOTE_GS5, 125 }, 
	{ NOTE_E5, 125 }, 
	{ NOTE_GS5, 125 }, 
	{ NOTE_DS5, 125 }, 
	{ NOTE_E5, 125 }, 
	{ NOTE_DS5, 750 }, 
	{ NOTE_REST, 500 }, 
	{ NOTE_DS5, 125 }, 
	{ NOTE_E5, 125 }, 
	{ NOTE_DS5, 125 }, 
	{ NOTE_E5, 125 }, 
	{ NOTE_DS5, 250 }, 
	{ NOTE_CS5, 250 }, 
	{ NOTE_DS5, 250 }, 
	{ NOTE_AS4, 250 }, 
	{ NOTE_CS5, 250 }, 
	{ NOTE_FS4, 500 }, 
	{ NOTE_G4, 500 }, 
	{ NOTE_GS4, 500 }, 
	{ NOTE_REST, 250 }, 
	{ NOTE_REST, 500 }, 
	{ NOTE_AS6, 62 }, 
	{ NOTE_B6, 62 }, 
	{ NOTE_AS6, 62 }, 
	{ NOTE_B6, 62 }, 
	{ NOTE_AS6, 62 }, 
	{ NOTE_B6, 62 }, 
	{ NOTE_AS6, 62 }, 
	{ NOTE_B6, 62 }, 
	{ NOTE_AS6, 125 }, 
	{ NOTE_GS6, 125 }, 
	{ NOTE_G6, 125 }, 
	{ NOTE_GS6, 125 }, 
	{ NOTE_G6, 125 }, 
	{ NOTE_GS6, 125 }, 
	{ NOTE_G6, 125 }, 
	{ NOTE_E6, 129 }, 
	{ NOTE_G6, 125 }, 
	{ NOTE_GS6, 125 }, 
	{ NOTE_AS6, 125 }, 
	{ NOTE_GS6, 125 }, 
	{ NOTE_G6, 125 }, 
	{ NOTE_GS6, 1000 }, 
	{ NOTE_REST, 375 }, 
	{ NOTE_GS6, 500 }, 
	{ NOTE_GS6, 125 }, 
	{ NOTE_AS6, 125 }, 
	{ NOTE_GS6, 125 }, 
	{ NOTE_G6, 125 }, 
	{ NOTE_GS6, 125 }, 
	{ NOTE_E6, 125 }, 
	{ NOTE_G6, 125 }, 
	{ NOTE_E6, 125 }, 
	{ NOTE_DS6, 125 }, 
	{ NOTE_E6, 125 }, 
	{ NOTE_DS6, 125 }, 
	{ NOTE_CS6, 125 }, 
	{ NOTE_CS6, 250 }, 
	{ NOTE_FS5, 500 }, 
	{ NOTE_G5, 500 }, 
	{ NOTE_GS5, 500 }, 
	{ NOTE_B5, 250 }, 
	{ NOTE_REST, 1000 }, 
	{ NOTE_FS4, 500 }, 
	{ NOTE_REST, 500 }, 
	{ NOTE_REST, 500 }, 
	{ NOTE_GS4, 500 }, 
	{ NOTE_REST, 1000 }, 
	{ NOTE_REST, 500 }, 
	{ NOTE_FS4, 500 }, 
	{ NOTE_REST, 500 }, 
	{ NOTE_F4, 500 }, 
	{ NOTE_REST, 1000 }, 
	{ NOTE_FS4, 500 }, 
	{ NOTE_REST, 500 }, 
	{ NOTE_REST, 500 }, 
	{ NOTE_GS4, 500 }, 
	{ NOTE_REST, 1000 }, 
	{ NOTE_REST, 500 }, 
	{ NOTE_FS4, 500 }, 
	{ NOTE_REST, 500 }, 
	{ NOTE_F4, 500 }, 
	{ NOTE_REST, 2000 }, 
	{ NOTE_REST, 2000 }, 
	{ NOTE_REST, 2000 }, 
	{ NOTE_REST, 2000 }, 
	{ NOTE_CS5, 1000 }, 
	{ NOTE_B4, 1000 }, 
	{ NOTE_A4, 1500 }, 
	{ NOTE_B4, 500 }, 
	{ NOTE_CS5, 1000 }, 
	{ NOTE_B4, 1000 }, 
	{ NOTE_FS4, 2000 }, 
	{ NOTE_GS4, 1000 }, 
	{ NOTE_FS4, 1000 }, 
	{ NOTE_FS4, 1000 }, 
	{ NOTE_GS4, 1000 }, 
	{ NOTE_GS4, 1000 }, 
	{ NOTE_FS4, 1000 }, 
	{ NOTE_FS4, 2000 }, 
	{ NOTE_GS4, 1000 }, 
	{ NOTE_FS4, 1000 }, 
	{ NOTE_FS4, 1000 }, 
	{ NOTE_GS4, 1000 }, 
	{ NOTE_REST, 2000 }, 
	{ NOTE_REST, 1000 }, 
	{ NOTE_FS4, 500 }, 
	{ NOTE_REST, 500 }, 
	{ NOTE_REST, 500 }, 
	{ NOTE_GS4, 500 }, 
	{ NOTE_REST, 1000 }, 
	{ NOTE_REST, 500 }, 
	{ NOTE_FS4, 500 }, 
	{ NOTE_REST, 500 }, 
	{ NOTE_F4, 500 }, 
	{ NOTE_REST, 1000 }, 
	{ NOTE_FS4, 500 }, 
	{ NOTE_REST, 500 }, 
	{ NOTE_REST, 500 }, 
	{ NOTE_GS4, 500 }, 
	{ NOTE_REST, 1000 }, 
	{ NOTE_REST, 500 }, 
	{ NOTE_FS4, 500 }, 
	{ NOTE_REST, 500 }, 
	{ NOTE_F4, 500 }, 
	{ NOTE_REST, 1000 }, 
	{ NOTE_REST, 500 }, 
	{ NOTE_FS4, 375 }, 
	{ NOTE_FS4, 625 }, 
	{ NOTE_REST, 500 }, 
	{ NOTE_REST, 1000 }, 
	{ NOTE_REST, 1000 }, 
	{ NOTE_REST, 500 }, 
	{ NOTE_FS4, 0 }, 
	{ NOTE_GS4, 375 }, 
	{ NOTE_FS4, 625 }, 
	{ NOTE_REST, 1500 }, 
	{ NOTE_B3, 333 }, 
	{ NOTE_DS4, 333 }, 
	{ NOTE_GS4, 333 }, 
	{ NOTE_FS4, 333 }, 
	{ NOTE_CS4, 333 }, 
	{ NOTE_AS3, 335 }, 
	{ NOTE_DS5, 3500 }, 
	{ NOTE_REST, 3500 }, 
};
const uint16_t NUM_OF_NOTES3 = sizeof(melody3)/sizeof(melody3[0]);

const Note melody4[] PROGMEM = {
	{ NOTE_FS5, 250 }, 
	{ NOTE_B5, 250 }, 
	{ NOTE_B5, 250 }, 
	{ NOTE_DS6, 500 }, 
	{ NOTE_CS6, 500 }, 
	{ NOTE_AS5, 500 }, 
	{ NOTE_AS5, 500 }, 
	{ NOTE_B5, 125 }, 
	{ NOTE_B5, 125 }, 
	{ NOTE_GS5, 1000 }, 
	{ NOTE_FS5, 250 }, 
	{ NOTE_B5, 250 }, 
	{ NOTE_B5, 250 }, 
	{ NOTE_DS6, 500 }, 
	{ NOTE_CS6, 500 }, 
	{ NOTE_AS5, 500 }, 
	{ NOTE_FS5, 250 }, 
	{ NOTE_FS5, 1500 }, 
	{ NOTE_FS5, 250 }, 
	{ NOTE_B5, 250 }, 
	{ NOTE_B5, 250 }, 
	{ NOTE_DS6, 500 }, 
	{ NOTE_CS6, 500 }, 
	{ NOTE_AS5, 500 }, 
	{ NOTE_AS5, 500 }, 
	{ NOTE_B5, 125 }, 
	{ NOTE_B5, 125 }, 
	{ NOTE_GS5, 1000 }, 
	{ NOTE_FS5, 250 }, 
	{ NOTE_CS6, 250 }, 
	{ NOTE_FS5, 500 }, 
	{ NOTE_FS5, 500 }, 
	{ NOTE_DS5, 2000 }, 
	{ NOTE_GS3, 250 }, 
	{ NOTE_FS3, 250 }, 
	{ NOTE_GS3, 250 }, 
	{ NOTE_B3, 750 }, 
	{ NOTE_GS3, 250 }, 
	{ NOTE_FS3, 250 }, 
	{ NOTE_GS3, 250 }, 
	{ NOTE_CS4, 750 }, 
	{ NOTE_DS4, 250 }, 
	{ NOTE_FS4, 250 }, 
	{ NOTE_DS4, 125 }, 
	{ NOTE_CS4, 125 }, 
	{ NOTE_B3, 250 }, 
	{ NOTE_CS4, 250 }, 
	{ NOTE_FS3, 750 }, 
	{ NOTE_CS4, 250 }, 
	{ NOTE_F3, 750 }, 
	{ NOTE_GS3, 250 }, 
	{ NOTE_FS3, 250 }, 
	{ NOTE_GS3, 250 }, 
	{ NOTE_B3, 750 }, 
	{ NOTE_GS3, 250 }, 
	{ NOTE_FS3, 250 }, 
	{ NOTE_GS3, 250 }, 
	{ NOTE_CS4, 750 }, 
	{ NOTE_DS4, 250 }, 
	{ NOTE_FS4, 250 }, 
	{ NOTE_DS4, 125 }, 
	{ NOTE_CS4, 125 }, 
	{ NOTE_B3, 250 }, 
	{ NOTE_CS4, 250 }, 
	{ NOTE_FS3, 750 }, 
	{ NOTE_CS4, 250 }, 
	{ NOTE_F3, 750 }, 
	{ NOTE_DS3, 375 }, 
	{ NOTE_DS3, 1000 }, 
	{ NOTE_DS3, 250 }, 
	{ NOTE_DS4, 250 }, 
	{ NOTE_DS4, 937 }, 
	{ NOTE_DS3, 188 }, 
	{ NOTE_GS3, 167 }, 
	{ NOTE_AS3, 167 }, 
	{ NOTE_CS4, 167 }, 
	{ NOTE_FS4, 167 }, 
	{ NOTE_CS4, 167 }, 
	{ NOTE_DS4, 165 }, 
	{ NOTE_DS3, 375 }, 
	{ NOTE_DS3, 1000 }, 
	{ NOTE_DS3, 250 }, 
	{ NOTE_DS4, 250 }, 
	{ NOTE_DS4, 937 }, 
	{ NOTE_DS3, 188 }, 
	{ NOTE_GS3, 167 }, 
	{ NOTE_AS3, 167 }, 
	{ NOTE_CS4, 167 }, 
	{ NOTE_FS4, 167 }, 
	{ NOTE_CS4, 167 }, 
	{ NOTE_DS4, 165 }, 
	{ NOTE_DS3, 375 }, 
	{ NOTE_DS3, 1000 }, 
	{ NOTE_DS3, 250 }, 
	{ NOTE_DS4, 250 }, 
	{ NOTE_DS4, 937 }, 
	{ NOTE_REST, 188 }, 
	{ NOTE_GS3, 167 }, 
	{ NOTE_AS3, 167 }, 
	{ NOTE_CS4, 167 }, 
	{ NOTE_FS4, 333 }, 
	{ NOTE_DS4, 166 }, 
	{ NOTE_DS3, 375 }, 
	{ NOTE_DS3, 1000 }, 
	{ NOTE_DS3, 250 }, 
	{ NOTE_DS4, 250 }, 
	{ NOTE_DS4, 2125 }, 
	{ NOTE_GS3, 250 }, 
	{ NOTE_FS3, 250 }, 
	{ NOTE_GS3, 250 }, 
	{ NOTE_B3, 750 }, 
	{ NOTE_GS3, 250 }, 
	{ NOTE_FS3, 250 }, 
	{ NOTE_GS3, 250 }, 
	{ NOTE_CS4, 750 }, 
	{ NOTE_DS4, 250 }, 
	{ NOTE_FS4, 250 }, 
	{ NOTE_DS4, 125 }, 
	{ NOTE_CS4, 125 }, 
	{ NOTE_B3, 250 }, 
	{ NOTE_CS4, 250 }, 
	{ NOTE_FS3, 750 }, 
	{ NOTE_CS4, 250 }, 
	{ NOTE_F3, 750 }, 
	{ NOTE_GS3, 250 }, 
	{ NOTE_FS3, 250 }, 
	{ NOTE_GS3, 250 }, 
	{ NOTE_B3, 750 }, 
	{ NOTE_GS3, 250 }, 
	{ NOTE_FS3, 250 }, 
	{ NOTE_GS3, 250 }, 
	{ NOTE_CS4, 750 }, 
	{ NOTE_DS4, 250 }, 
	{ NOTE_FS4, 250 }, 
	{ NOTE_DS4, 125 }, 
	{ NOTE_CS4, 125 }, 
	{ NOTE_B3, 250 }, 
	{ NOTE_CS4, 250 }, 
	{ NOTE_FS3, 750 }, 
	{ NOTE_CS4, 250 }, 
	{ NOTE_F3, 750 }, 
	{ NOTE_DS3, 375 }, 
	{ NOTE_DS3, 1000 }, 
	{ NOTE_DS3, 250 }, 
	{ NOTE_DS4, 250 }, 
	{ NOTE_DS4, 937 }, 
	{ NOTE_DS3, 188 }, 
	{ NOTE_GS3, 167 }, 
	{ NOTE_AS3, 167 }, 
	{ NOTE_CS4, 167 }, 
	{ NOTE_FS4, 167 }, 
	{ NOTE_CS4, 167 }, 
	{ NOTE_DS4, 165 }, 
	{ NOTE_DS3, 375 }, 
	{ NOTE_DS3, 1000 }, 
	{ NOTE_DS3, 250 }, 
	{ NOTE_DS4, 250 }, 
	{ NOTE_DS4, 937 }, 
	{ NOTE_DS3, 188 }, 
	{ NOTE_GS3, 167 }, 
	{ NOTE_AS3, 167 }, 
	{ NOTE_CS4, 167 }, 
	{ NOTE_FS4, 167 }, 
	{ NOTE_CS4, 167 }, 
	{ NOTE_DS4, 165 }, 
	{ NOTE_DS3, 375 }, 
	{ NOTE_DS3, 1000 }, 
	{ NOTE_DS3, 250 }, 
	{ NOTE_DS4, 250 }, 
	{ NOTE_DS4, 937 }, 
	{ NOTE_DS3, 188 }, 
	{ NOTE_GS3, 167 }, 
	{ NOTE_AS3, 167 }, 
	{ NOTE_CS4, 167 }, 
	{ NOTE_FS4, 167 }, 
	{ NOTE_CS4, 167 }, 
	{ NOTE_DS4, 165 }, 
	{ NOTE_DS3, 375 }, 
	{ NOTE_DS3, 1000 }, 
	{ NOTE_DS3, 250 }, 
	{ NOTE_DS4, 250 }, 
	{ NOTE_DS4, 2125 }, 
	{ NOTE_DS3, 333 }, 
	{ NOTE_DS4, 333 }, 
	{ NOTE_GS4, 333 }, 
	{ NOTE_FS4, 333 }, 
	{ NOTE_CS4, 333 }, 
	{ NOTE_AS3, 335 }, 
	{ NOTE_GS3, 2000 }, 
	{ NOTE_REST, 2000 }, 
	{ NOTE_REST, 2000 }, 
	{ NOTE_REST, 2000 }, 
	{ NOTE_REST, 2000 }, 
	{ NOTE_REST, 2000 }, 
	{ NOTE_REST, 2000 }, 
	{ NOTE_REST, 2000 }, 
	{ NOTE_REST, 1000 }, 
	{ NOTE_REST, 250 }, 
	{ NOTE_AS4, 125 }, 
	{ NOTE_B4, 125 }, 
	{ NOTE_AS4, 250 }, 
	{ NOTE_FS4, 250 }, 
	{ NOTE_GS4, 750 }, 
	{ NOTE_GS4, 250 }, 
	{ NOTE_FS4, 1000 }, 
	{ NOTE_E4, 1000 }, 
	{ NOTE_FS4, 1000 }, 
	{ NOTE_GS4, 1000 }, 
	{ NOTE_FS4, 1000 }, 
	{ NOTE_E4, 250 }, 
	{ NOTE_E4, 500 }, 
	{ NOTE_E4, 250 }, 
	{ NOTE_FS4, 500 }, 
	{ NOTE_AS4, 500 }, 
	{ NOTE_CS5, 750 }, 
	{ NOTE_CS5, 250 }, 
	{ NOTE_B4, 750 }, 
	{ NOTE_B4, 250 }, 
	{ NOTE_A4, 1000 }, 
	{ NOTE_A4, 500 }, 
	{ NOTE_B4, 500 }, 
	{ NOTE_CS5, 750 }, 
	{ NOTE_CS5, 250 }, 
	{ NOTE_B4, 750 }, 
	{ NOTE_B4, 250 }, 
	{ NOTE_FS4, 250 }, 
	{ NOTE_FS4, 250 }, 
	{ NOTE_FS4, 250 }, 
	{ NOTE_FS4, 250 }, 
	{ NOTE_FS4, 250 }, 
	{ NOTE_FS4, 250 }, 
	{ NOTE_FS4, 250 }, 
	{ NOTE_FS4, 250 }, 
	{ NOTE_GS3, 750 }, 
	{ NOTE_AS3, 250 }, 
	{ NOTE_B3, 750 }, 
	{ NOTE_FS3, 500 }, 
	{ NOTE_FS3, 750 }, 
	{ NOTE_E3, 250 }, 
	{ NOTE_E3, 500 }, 
	{ NOTE_E3, 250 }, 
	{ NOTE_GS3, 750 }, 
	{ NOTE_AS3, 250 }, 
	{ NOTE_B3, 750 }, 
	{ NOTE_FS3, 500 }, 
	{ NOTE_FS3, 500 }, 
	{ NOTE_FS3, 250 }, 
	{ NOTE_FS4, 250 }, 
	{ NOTE_DS4, 250 }, 
	{ NOTE_FS4, 250 }, 
	{ NOTE_AS4, 250 }, 
	{ NOTE_GS4, 750 }, 
	{ NOTE_AS3, 250 }, 
	{ NOTE_B3, 750 }, 
	{ NOTE_FS3, 500 }, 
	{ NOTE_FS3, 750 }, 
	{ NOTE_E3, 250 }, 
	{ NOTE_E3, 750 }, 
	{ NOTE_E3, 500 }, 
	{ NOTE_REST, 500 }, 
	{ NOTE_CS4, 500 }, 
	{ NOTE_B3, 500 }, 
	{ NOTE_GS3, 250 }, 
	{ NOTE_FS3, 250 }, 
	{ NOTE_GS3, 250 }, 
	{ NOTE_B3, 750 }, 
	{ NOTE_GS3, 250 }, 
	{ NOTE_FS3, 250 }, 
	{ NOTE_GS3, 250 }, 
	{ NOTE_CS4, 750 }, 
	{ NOTE_DS4, 250 }, 
	{ NOTE_FS4, 250 }, 
	{ NOTE_DS4, 125 }, 
	{ NOTE_CS4, 125 }, 
	{ NOTE_B3, 250 }, 
	{ NOTE_CS4, 250 }, 
	{ NOTE_FS3, 750 }, 
	{ NOTE_CS4, 250 }, 
	{ NOTE_F3, 750 }, 
	{ NOTE_GS3, 250 }, 
	{ NOTE_FS3, 250 }, 
	{ NOTE_GS3, 250 }, 
	{ NOTE_B3, 750 }, 
	{ NOTE_GS3, 250 }, 
	{ NOTE_FS3, 250 }, 
	{ NOTE_GS3, 250 }, 
	{ NOTE_CS4, 750 }, 
	{ NOTE_DS4, 250 }, 
	{ NOTE_FS4, 250 }, 
	{ NOTE_DS4, 125 }, 
	{ NOTE_CS4, 125 }, 
	{ NOTE_B3, 250 }, 
	{ NOTE_CS4, 250 }, 
	{ NOTE_FS3, 750 }, 
	{ NOTE_CS4, 250 }, 
	{ NOTE_F3, 750 }, 
	{ NOTE_GS4, 750 }, 
	{ NOTE_GS4, 250 }, 
	{ NOTE_FS4, 1000 }, 
	{ NOTE_E4, 1000 }, 
	{ NOTE_FS4, 1000 }, 
	{ NOTE_GS4, 1000 }, 
	{ NOTE_FS4, 1000 }, 
	{ NOTE_E4, 250 }, 
	{ NOTE_E4, 500 }, 
	{ NOTE_E4, 250 }, 
	{ NOTE_FS4, 500 }, 
	{ NOTE_AS4, 500 }, 
	{ NOTE_CS5, 750 }, 
	{ NOTE_CS5, 250 }, 
	{ NOTE_B4, 750 }, 
	{ NOTE_B4, 250 }, 
	{ NOTE_A4, 1000 }, 
	{ NOTE_A4, 500 }, 
	{ NOTE_B4, 500 }, 
	{ NOTE_CS5, 750 }, 
	{ NOTE_CS5, 250 }, 
	{ NOTE_B4, 750 }, 
	{ NOTE_B4, 250 }, 
	{ NOTE_FS4, 250 }, 
	{ NOTE_FS4, 250 }, 
	{ NOTE_FS4, 250 }, 
	{ NOTE_FS4, 250 }, 
	{ NOTE_FS4, 250 }, 
	{ NOTE_FS4, 250 }, 
	{ NOTE_FS4, 250 }, 
	{ NOTE_FS4, 250 }, 
	{ NOTE_GS4, 750 }, 
	{ NOTE_GS4, 250 }, 
	{ NOTE_FS4, 1000 }, 
	{ NOTE_E4, 1000 }, 
	{ NOTE_FS4, 1000 }, 
	{ NOTE_GS4, 1000 }, 
	{ NOTE_FS4, 1000 }, 
	{ NOTE_E4, 250 }, 
	{ NOTE_E4, 500 }, 
	{ NOTE_E4, 250 }, 
	{ NOTE_FS4, 500 }, 
	{ NOTE_AS4, 500 }, 
	{ NOTE_CS5, 750 }, 
	{ NOTE_CS5, 250 }, 
	{ NOTE_B4, 750 }, 
	{ NOTE_B4, 250 }, 
	{ NOTE_A4, 1000 }, 
	{ NOTE_A4, 500 }, 
	{ NOTE_B4, 500 }, 
	{ NOTE_CS5, 750 }, 
	{ NOTE_CS5, 250 }, 
	{ NOTE_B4, 750 }, 
	{ NOTE_B4, 250 }, 
	{ NOTE_FS4, 250 }, 
	{ NOTE_FS4, 250 }, 
	{ NOTE_FS4, 250 }, 
	{ NOTE_FS4, 250 }, 
	{ NOTE_FS4, 250 }, 
	{ NOTE_FS4, 250 }, 
	{ NOTE_FS4, 250 }, 
	{ NOTE_FS4, 250 }, 
	{ NOTE_GS3, 750 }, 
	{ NOTE_AS3, 250 }, 
	{ NOTE_B3, 750 }, 
	{ NOTE_FS3, 500 }, 
	{ NOTE_FS3, 750 }, 
	{ NOTE_E3, 250 }, 
	{ NOTE_E3, 500 }, 
	{ NOTE_E3, 250 }, 
	{ NOTE_GS3, 750 }, 
	{ NOTE_AS3, 250 }, 
	{ NOTE_B3, 750 }, 
	{ NOTE_FS3, 500 }, 
	{ NOTE_FS3, 500 }, 
	{ NOTE_FS3, 250 }, 
	{ NOTE_FS4, 250 }, 
	{ NOTE_DS4, 250 }, 
	{ NOTE_FS4, 250 }, 
	{ NOTE_AS4, 250 }, 
	{ NOTE_GS4, 750 }, 
	{ NOTE_AS3, 250 }, 
	{ NOTE_B3, 750 }, 
	{ NOTE_FS3, 500 }, 
	{ NOTE_FS3, 750 }, 
	{ NOTE_E3, 250 }, 
	{ NOTE_E3, 750 }, 
	{ NOTE_E3, 500 }, 
	{ NOTE_REST, 2000 }, 
	{ NOTE_REST, 500 }, 
	{ NOTE_GS3, 125 }, 
	{ NOTE_REST, 125 }, 
	{ NOTE_GS4, 125 }, 
	{ NOTE_FS4, 125 }, 
	{ NOTE_DS4, 125 }, 
	{ NOTE_CS4, 125 }, 
	{ NOTE_B3, 125 }, 
	{ NOTE_GS3, 125 }, 
	{ NOTE_B3, 250 }, 
	{ NOTE_CS4, 250 }, 
	{ NOTE_REST, 250 }, 
	{ NOTE_FS3, 250 }, 
	{ NOTE_REST, 250 }, 
	{ NOTE_GS3, 250 }, 
	{ NOTE_REST, 250 }, 
	{ NOTE_CS4, 250 }, 
	{ NOTE_REST, 250 }, 
	{ NOTE_B3, 250 }, 
	{ NOTE_REST, 500 }, 
	{ NOTE_GS3, 125 }, 
	{ NOTE_REST, 125 }, 
	{ NOTE_GS4, 125 }, 
	{ NOTE_FS4, 125 }, 
	{ NOTE_DS4, 125 }, 
	{ NOTE_CS4, 125 }, 
	{ NOTE_B3, 125 }, 
	{ NOTE_GS3, 125 }, 
	{ NOTE_B3, 250 }, 
	{ NOTE_CS4, 250 }, 
	{ NOTE_REST, 250 }, 
	{ NOTE_FS3, 250 }, 
	{ NOTE_REST, 250 }, 
	{ NOTE_GS3, 250 }, 
	{ NOTE_REST, 250 }, 
	{ NOTE_CS4, 1000 }, 
	{ NOTE_REST, 250 }, 
	{ NOTE_GS3, 125 }, 
	{ NOTE_REST, 125 }, 
	{ NOTE_GS4, 125 }, 
	{ NOTE_FS4, 125 }, 
	{ NOTE_DS4, 125 }, 
	{ NOTE_CS4, 125 }, 
	{ NOTE_B3, 125 }, 
	{ NOTE_GS3, 125 }, 
	{ NOTE_B3, 250 }, 
	{ NOTE_CS4, 250 }, 
	{ NOTE_REST, 250 }, 
	{ NOTE_FS3, 250 }, 
	{ NOTE_REST, 250 }, 
	{ NOTE_GS3, 250 }, 
	{ NOTE_REST, 250 }, 
	{ NOTE_CS4, 250 }, 
	{ NOTE_REST, 250 }, 
	{ NOTE_B3, 250 }, 
	{ NOTE_REST, 500 }, 
	{ NOTE_GS3, 125 }, 
	{ NOTE_REST, 125 }, 
	{ NOTE_GS4, 125 }, 
	{ NOTE_FS4, 125 }, 
	{ NOTE_DS4, 125 }, 
	{ NOTE_CS4, 125 }, 
	{ NOTE_B3, 125 }, 
	{ NOTE_GS3, 125 }, 
	{ NOTE_B3, 250 }, 
	{ NOTE_CS4, 250 }, 
	{ NOTE_REST, 250 }, 
	{ NOTE_FS3, 250 }, 
	{ NOTE_REST, 250 }, 
	{ NOTE_GS3, 250 }, 
	{ NOTE_REST, 250 }, 
	{ NOTE_CS4, 1000 }, 
	{ NOTE_REST, 250 }, 
	{ NOTE_GS3, 250 }, 
	{ NOTE_GS4, 250 }, 
	{ NOTE_REST, 250 }, 
	{ NOTE_FS4, 250 }, 
	{ NOTE_REST, 250 }, 
	{ NOTE_F4, 250 }, 
	{ NOTE_REST, 250 }, 
	{ NOTE_DS4, 250 }, 
	{ NOTE_REST, 250 }, 
	{ NOTE_CS4, 250 }, 
	{ NOTE_REST, 250 }, 
	{ NOTE_B3, 250 }, 
	{ NOTE_REST, 250 }, 
	{ NOTE_FS3, 250 }, 
	{ NOTE_REST, 125 }, 
	{ NOTE_GS4, 375 }, 
	{ NOTE_GS3, 250 }, 
	{ NOTE_GS4, 250 }, 
	{ NOTE_REST, 250 }, 
	{ NOTE_FS4, 250 }, 
	{ NOTE_REST, 250 }, 
	{ NOTE_F4, 250 }, 
	{ NOTE_REST, 250 }, 
	{ NOTE_DS4, 250 }, 
	{ NOTE_CS4, 250 }, 
	{ NOTE_FS3, 500 }, 
	{ NOTE_G3, 500 }, 
	{ NOTE_GS3, 500 }, 
	{ NOTE_B3, 250 }, 
	{ NOTE_GS3, 250 }, 
	{ NOTE_GS4, 250 }, 
	{ NOTE_REST, 250 }, 
	{ NOTE_FS4, 250 }, 
	{ NOTE_REST, 250 }, 
	{ NOTE_F4, 250 }, 
	{ NOTE_REST, 250 }, 
	{ NOTE_DS4, 250 }, 
	{ NOTE_REST, 250 }, 
	{ NOTE_CS4, 250 }, 
	{ NOTE_REST, 250 }, 
	{ NOTE_B3, 250 }, 
	{ NOTE_REST, 250 }, 
	{ NOTE_FS3, 250 }, 
	{ NOTE_REST, 125 }, 
	{ NOTE_GS4, 375 }, 
	{ NOTE_GS3, 250 }, 
	{ NOTE_GS4, 250 }, 
	{ NOTE_REST, 250 }, 
	{ NOTE_FS4, 250 }, 
	{ NOTE_REST, 250 }, 
	{ NOTE_F4, 250 }, 
	{ NOTE_REST, 250 }, 
	{ NOTE_DS4, 250 }, 
	{ NOTE_CS4, 250 }, 
	{ NOTE_FS3, 500 }, 
	{ NOTE_G3, 500 }, 
	{ NOTE_GS3, 500 }, 
	{ NOTE_B3, 250 }, 
	{ NOTE_GS3, 250 }, 
	{ NOTE_FS3, 250 }, 
	{ NOTE_GS3, 250 }, 
	{ NOTE_B3, 750 }, 
	{ NOTE_GS3, 250 }, 
	{ NOTE_FS3, 250 }, 
	{ NOTE_GS3, 250 }, 
	{ NOTE_CS4, 750 }, 
	{ NOTE_DS4, 250 }, 
	{ NOTE_FS4, 250 }, 
	{ NOTE_DS4, 125 }, 
	{ NOTE_CS4, 125 }, 
	{ NOTE_B3, 250 }, 
	{ NOTE_CS4, 250 }, 
	{ NOTE_FS3, 750 }, 
	{ NOTE_CS4, 250 }, 
	{ NOTE_F3, 750 }, 
	{ NOTE_GS3, 250 }, 
	{ NOTE_FS3, 250 }, 
	{ NOTE_GS3, 250 }, 
	{ NOTE_B3, 750 }, 
	{ NOTE_GS3, 250 }, 
	{ NOTE_FS3, 250 }, 
	{ NOTE_GS3, 250 }, 
	{ NOTE_CS4, 750 }, 
	{ NOTE_DS4, 250 }, 
	{ NOTE_FS4, 250 }, 
	{ NOTE_DS4, 125 }, 
	{ NOTE_CS4, 125 }, 
	{ NOTE_B3, 250 }, 
	{ NOTE_CS4, 250 }, 
	{ NOTE_FS3, 750 }, 
	{ NOTE_CS4, 250 }, 
	{ NOTE_F3, 750 }, 
	{ NOTE_GS3, 250 }, 
	{ NOTE_GS3, 250 }, 
	{ NOTE_REST, 1000 }, 
	{ NOTE_FS3, 250 }, 
	{ NOTE_REST, 250 }, 
	{ NOTE_E3, 1500 }, 
	{ NOTE_FS3, 500 }, 
	{ NOTE_GS3, 250 }, 
	{ NOTE_GS3, 250 }, 
	{ NOTE_REST, 1000 }, 
	{ NOTE_FS3, 250 }, 
	{ NOTE_REST, 250 }, 
	{ NOTE_E3, 1500 }, 
	{ NOTE_FS3, 500 }, 
	{ NOTE_CS5, 750 }, 
	{ NOTE_CS5, 250 }, 
	{ NOTE_B4, 750 }, 
	{ NOTE_B4, 250 }, 
	{ NOTE_A4, 1000 }, 
	{ NOTE_A4, 500 }, 
	{ NOTE_B4, 500 }, 
	{ NOTE_CS5, 750 }, 
	{ NOTE_CS5, 250 }, 
	{ NOTE_B4, 750 }, 
	{ NOTE_B4, 250 }, 
	{ NOTE_FS4, 250 }, 
	{ NOTE_FS4, 250 }, 
	{ NOTE_FS4, 250 }, 
	{ NOTE_FS4, 250 }, 
	{ NOTE_FS4, 250 }, 
	{ NOTE_FS4, 250 }, 
	{ NOTE_FS4, 250 }, 
	{ NOTE_FS4, 250 }, 
	{ NOTE_GS3, 750 }, 
	{ NOTE_AS3, 250 }, 
	{ NOTE_B3, 750 }, 
	{ NOTE_FS3, 500 }, 
	{ NOTE_FS3, 750 }, 
	{ NOTE_E3, 250 }, 
	{ NOTE_E3, 500 }, 
	{ NOTE_E3, 250 }, 
	{ NOTE_GS3, 750 }, 
	{ NOTE_AS3, 250 }, 
	{ NOTE_B3, 750 }, 
	{ NOTE_FS3, 500 }, 
	{ NOTE_FS3, 500 }, 
	{ NOTE_FS3, 250 }, 
	{ NOTE_FS4, 250 }, 
	{ NOTE_DS4, 250 }, 
	{ NOTE_FS4, 250 }, 
	{ NOTE_AS4, 250 }, 
	{ NOTE_GS4, 750 }, 
	{ NOTE_AS3, 250 }, 
	{ NOTE_B3, 750 }, 
	{ NOTE_FS3, 500 }, 
	{ NOTE_FS3, 750 }, 
	{ NOTE_E3, 250 }, 
	{ NOTE_E3, 750 }, 
	{ NOTE_E3, 500 }, 
	{ NOTE_REST, 500 }, 
	{ NOTE_CS4, 500 }, 
	{ NOTE_B3, 500 }, 
	{ NOTE_GS3, 250 }, 
	{ NOTE_FS3, 250 }, 
	{ NOTE_GS3, 250 }, 
	{ NOTE_B3, 750 }, 
	{ NOTE_GS3, 250 }, 
	{ NOTE_FS3, 250 }, 
	{ NOTE_GS3, 250 }, 
	{ NOTE_CS4, 750 }, 
	{ NOTE_DS4, 250 }, 
	{ NOTE_FS4, 250 }, 
	{ NOTE_DS4, 125 }, 
	{ NOTE_CS4, 125 }, 
	{ NOTE_B3, 250 }, 
	{ NOTE_CS4, 250 }, 
	{ NOTE_FS3, 750 }, 
	{ NOTE_CS4, 250 }, 
	{ NOTE_F3, 750 }, 
	{ NOTE_GS3, 250 }, 
	{ NOTE_FS3, 250 }, 
	{ NOTE_GS3, 250 }, 
	{ NOTE_B3, 750 }, 
	{ NOTE_GS3, 250 }, 
	{ NOTE_FS3, 250 }, 
	{ NOTE_GS3, 250 }, 
	{ NOTE_CS4, 750 }, 
	{ NOTE_DS4, 250 }, 
	{ NOTE_FS4, 250 }, 
	{ NOTE_DS4, 125 }, 
	{ NOTE_CS4, 125 }, 
	{ NOTE_B3, 250 }, 
	{ NOTE_CS4, 250 }, 
	{ NOTE_FS3, 750 }, 
	{ NOTE_CS4, 250 }, 
	{ NOTE_F3, 750 }, 
	{ NOTE_DS3, 375 }, 
	{ NOTE_DS3, 1000 }, 
	{ NOTE_DS3, 250 }, 
	{ NOTE_DS4, 250 }, 
	{ NOTE_DS4, 937 }, 
	{ NOTE_DS3, 188 }, 
	{ NOTE_GS3, 167 }, 
	{ NOTE_AS3, 167 }, 
	{ NOTE_CS4, 167 }, 
	{ NOTE_FS4, 167 }, 
	{ NOTE_CS4, 167 }, 
	{ NOTE_DS4, 165 }, 
	{ NOTE_DS3, 375 }, 
	{ NOTE_DS3, 1000 }, 
	{ NOTE_DS3, 250 }, 
	{ NOTE_DS4, 250 }, 
	{ NOTE_DS4, 2125 }, 
	{ NOTE_DS3, 333 }, 
	{ NOTE_DS4, 333 }, 
	{ NOTE_GS4, 333 }, 
	{ NOTE_FS4, 333 }, 
	{ NOTE_CS4, 333 }, 
	{ NOTE_AS3, 335 }, 
	{ NOTE_GS3, 2000 }, 
	{ NOTE_REST, 1500 }, 
	{ NOTE_REST, 3500 }, 
};
const uint16_t NUM_OF_NOTES4 = sizeof(melody4)/sizeof(melody4[0]);

