/*
 * Song: Black Dog by Led Zeppelin
 *
 *	Melody 0 | Guitar 1
 *	Melody 1 | Guitar 1
 *	Melody 2 | Guitar 2/Solo
 *	Melody 3 | Voice
 *	Melody 4 | Bass
*/

#include <Arduino.h>
#include "notes.h"

const Note melody0[] PROGMEM = {
	{ NOTE_REST, 1500 }, 
	{ NOTE_REST, 0 }, 
	{ NOTE_REST, 1500 }, 
	{ NOTE_REST, 1500 }, 
	{ NOTE_REST, 1500 }, 
	{ NOTE_REST, 375 }, 
	{ NOTE_REST, 188 }, 
	{ NOTE_E4, 188 }, 
	{ NOTE_G4, 188 }, 
	{ NOTE_GS4, 188 }, 
	{ NOTE_A4, 188 }, 
	{ NOTE_E4, 185 }, 
	{ NOTE_C5, 375 }, 
	{ NOTE_A4, 375 }, 
	{ NOTE_D5, 188 }, 
	{ NOTE_E5, 188 }, 
	{ NOTE_C5, 125 }, 
	{ NOTE_D5, 125 }, 
	{ NOTE_C5, 124 }, 
	{ NOTE_A4, 188 }, 
	{ NOTE_A4, 188 }, 
	{ NOTE_C5, 375 }, 
	{ NOTE_A4, 375 }, 
	{ NOTE_G4, 188 }, 
	{ NOTE_A4, 186 }, 
	{ NOTE_A4, 188 }, 
	{ NOTE_D4, 188 }, 
	{ NOTE_E4, 94 }, 
	{ NOTE_D4, 94 }, 
	{ NOTE_C4, 188 }, 
	{ NOTE_D4, 188 }, 
	{ NOTE_A3, 560 }, 
	{ NOTE_A3, 5813 }, 
	{ NOTE_E4, 188 }, 
	{ NOTE_G4, 188 }, 
	{ NOTE_GS4, 188 }, 
	{ NOTE_A4, 188 }, 
	{ NOTE_E4, 185 }, 
	{ NOTE_C5, 375 }, 
	{ NOTE_A4, 375 }, 
	{ NOTE_D5, 188 }, 
	{ NOTE_E5, 188 }, 
	{ NOTE_C5, 125 }, 
	{ NOTE_D5, 125 }, 
	{ NOTE_C5, 124 }, 
	{ NOTE_A4, 188 }, 
	{ NOTE_A4, 188 }, 
	{ NOTE_C5, 375 }, 
	{ NOTE_A4, 375 }, 
	{ NOTE_G4, 188 }, 
	{ NOTE_A4, 186 }, 
	{ NOTE_A4, 188 }, 
	{ NOTE_D4, 188 }, 
	{ NOTE_E4, 94 }, 
	{ NOTE_D4, 94 }, 
	{ NOTE_C4, 188 }, 
	{ NOTE_D4, 188 }, 
	{ NOTE_A3, 560 }, 
	{ NOTE_A3, 5813 }, 
	{ NOTE_E4, 188 }, 
	{ NOTE_G4, 188 }, 
	{ NOTE_GS4, 188 }, 
	{ NOTE_A4, 188 }, 
	{ NOTE_E4, 185 }, 
	{ NOTE_C5, 375 }, 
	{ NOTE_A4, 375 }, 
	{ NOTE_D5, 188 }, 
	{ NOTE_E5, 188 }, 
	{ NOTE_C5, 125 }, 
	{ NOTE_D5, 125 }, 
	{ NOTE_C5, 124 }, 
	{ NOTE_A4, 188 }, 
	{ NOTE_A4, 188 }, 
	{ NOTE_C5, 375 }, 
	{ NOTE_A4, 375 }, 
	{ NOTE_G4, 188 }, 
	{ NOTE_A4, 186 }, 
	{ NOTE_A4, 188 }, 
	{ NOTE_D4, 188 }, 
	{ NOTE_E4, 94 }, 
	{ NOTE_D4, 94 }, 
	{ NOTE_C4, 188 }, 
	{ NOTE_D4, 188 }, 
	{ NOTE_A3, 560 }, 
	{ NOTE_A3, 563 }, 
	{ NOTE_B3, 188 }, 
	{ NOTE_D4, 188 }, 
	{ NOTE_DS4, 188 }, 
	{ NOTE_E4, 188 }, 
	{ NOTE_B3, 185 }, 
	{ NOTE_G4, 375 }, 
	{ NOTE_E4, 375 }, 
	{ NOTE_B3, 188 }, 
	{ NOTE_D4, 188 }, 
	{ NOTE_DS4, 188 }, 
	{ NOTE_E4, 186 }, 
	{ NOTE_B3, 188 }, 
	{ NOTE_G4, 375 }, 
	{ NOTE_E4, 375 }, 
	{ NOTE_B3, 188 }, 
	{ NOTE_D4, 188 }, 
	{ NOTE_DS4, 186 }, 
	{ NOTE_E4, 188 }, 
	{ NOTE_B3, 188 }, 
	{ NOTE_G4, 375 }, 
	{ NOTE_E4, 375 }, 
	{ NOTE_B3, 188 }, 
	{ NOTE_D4, 186 }, 
	{ NOTE_DS4, 188 }, 
	{ NOTE_E4, 188 }, 
	{ NOTE_D4, 188 }, 
	{ NOTE_E4, 188 }, 
	{ NOTE_G4, 188 }, 
	{ NOTE_GS4, 188 }, 
	{ NOTE_A4, 188 }, 
	{ NOTE_E4, 184 }, 
	{ NOTE_C5, 375 }, 
	{ NOTE_A4, 375 }, 
	{ NOTE_D5, 188 }, 
	{ NOTE_E5, 188 }, 
	{ NOTE_C5, 125 }, 
	{ NOTE_D5, 125 }, 
	{ NOTE_C5, 124 }, 
	{ NOTE_A4, 188 }, 
	{ NOTE_A4, 188 }, 
	{ NOTE_C5, 375 }, 
	{ NOTE_A4, 375 }, 
	{ NOTE_G4, 188 }, 
	{ NOTE_A4, 186 }, 
	{ NOTE_A4, 188 }, 
	{ NOTE_D4, 188 }, 
	{ NOTE_E4, 94 }, 
	{ NOTE_D4, 94 }, 
	{ NOTE_C4, 188 }, 
	{ NOTE_D4, 188 }, 
	{ NOTE_A3, 560 }, 
	{ NOTE_A3, 562 }, 
	{ NOTE_A3, 188 }, 
	{ NOTE_C4, 188 }, 
	{ NOTE_E4, 562 }, 
	{ NOTE_B4, 281 }, 
	{ NOTE_A4, 94 }, 
	{ NOTE_B4, 188 }, 
	{ NOTE_A4, 188 }, 
	{ NOTE_C4, 188 }, 
	{ NOTE_A3, 561 }, 
	{ NOTE_B4, 281 }, 
	{ NOTE_A4, 94 }, 
	{ NOTE_B4, 188 }, 
	{ NOTE_A4, 188 }, 
	{ NOTE_C4, 188 }, 
	{ NOTE_A3, 561 }, 
	{ NOTE_A3, 188 }, 
	{ NOTE_G4, 562 }, 
	{ NOTE_A3, 188 }, 
	{ NOTE_E4, 562 }, 
	{ NOTE_B4, 281 }, 
	{ NOTE_A4, 94 }, 
	{ NOTE_B4, 188 }, 
	{ NOTE_A4, 188 }, 
	{ NOTE_C4, 188 }, 
	{ NOTE_A3, 561 }, 
	{ NOTE_B4, 281 }, 
	{ NOTE_A4, 94 }, 
	{ NOTE_B4, 188 }, 
	{ NOTE_A4, 188 }, 
	{ NOTE_C4, 188 }, 
	{ NOTE_A3, 561 }, 
	{ NOTE_B4, 281 }, 
	{ NOTE_A4, 94 }, 
	{ NOTE_B4, 188 }, 
	{ NOTE_A4, 188 }, 
	{ NOTE_C4, 188 }, 
	{ NOTE_A3, 561 }, 
	{ NOTE_A3, 188 }, 
	{ NOTE_G4, 562 }, 
	{ NOTE_A3, 188 }, 
	{ NOTE_E4, 562 }, 
	{ NOTE_A3, 5063 }, 
	{ NOTE_E4, 188 }, 
	{ NOTE_G4, 188 }, 
	{ NOTE_GS4, 188 }, 
	{ NOTE_A4, 188 }, 
	{ NOTE_E4, 185 }, 
	{ NOTE_C5, 375 }, 
	{ NOTE_A4, 375 }, 
	{ NOTE_D5, 188 }, 
	{ NOTE_E5, 188 }, 
	{ NOTE_C5, 125 }, 
	{ NOTE_D5, 125 }, 
	{ NOTE_C5, 124 }, 
	{ NOTE_A4, 188 }, 
	{ NOTE_A4, 188 }, 
	{ NOTE_C5, 375 }, 
	{ NOTE_A4, 375 }, 
	{ NOTE_G4, 188 }, 
	{ NOTE_A4, 186 }, 
	{ NOTE_A4, 188 }, 
	{ NOTE_D4, 188 }, 
	{ NOTE_E4, 94 }, 
	{ NOTE_D4, 94 }, 
	{ NOTE_C4, 188 }, 
	{ NOTE_D4, 188 }, 
	{ NOTE_A3, 560 }, 
	{ NOTE_A3, 5813 }, 
	{ NOTE_E4, 188 }, 
	{ NOTE_G4, 188 }, 
	{ NOTE_GS4, 188 }, 
	{ NOTE_A4, 188 }, 
	{ NOTE_E4, 185 }, 
	{ NOTE_C5, 375 }, 
	{ NOTE_A4, 375 }, 
	{ NOTE_D5, 188 }, 
	{ NOTE_E5, 188 }, 
	{ NOTE_C5, 125 }, 
	{ NOTE_D5, 125 }, 
	{ NOTE_C5, 124 }, 
	{ NOTE_A4, 188 }, 
	{ NOTE_A4, 188 }, 
	{ NOTE_C5, 375 }, 
	{ NOTE_A4, 375 }, 
	{ NOTE_G4, 188 }, 
	{ NOTE_A4, 186 }, 
	{ NOTE_A4, 188 }, 
	{ NOTE_D4, 188 }, 
	{ NOTE_E4, 94 }, 
	{ NOTE_D4, 94 }, 
	{ NOTE_C4, 188 }, 
	{ NOTE_D4, 188 }, 
	{ NOTE_A3, 560 }, 
	{ NOTE_A3, 12563 }, 
	{ NOTE_A3, 187 }, 
	{ NOTE_G3, 188 }, 
	{ NOTE_E3, 188 }, 
	{ NOTE_A3, 375 }, 
	{ NOTE_FS3, 188 }, 
	{ NOTE_REST, 375 }, 
	{ NOTE_A3, 186 }, 
	{ NOTE_G3, 188 }, 
	{ NOTE_A3, 188 }, 
	{ NOTE_G4, 375 }, 
	{ NOTE_A3, 188 }, 
	{ NOTE_REST, 375 }, 
	{ NOTE_A3, 186 }, 
	{ NOTE_G3, 188 }, 
	{ NOTE_E3, 188 }, 
	{ NOTE_A3, 375 }, 
	{ NOTE_FS3, 188 }, 
	{ NOTE_REST, 375 }, 
	{ NOTE_D4, 748 }, 
	{ NOTE_D4, 750 }, 
	{ NOTE_A3, 188 }, 
	{ NOTE_G3, 188 }, 
	{ NOTE_E3, 188 }, 
	{ NOTE_A3, 375 }, 
	{ NOTE_FS3, 188 }, 
	{ NOTE_REST, 375 }, 
	{ NOTE_A3, 186 }, 
	{ NOTE_G3, 188 }, 
	{ NOTE_A3, 188 }, 
	{ NOTE_G4, 375 }, 
	{ NOTE_A3, 188 }, 
	{ NOTE_REST, 375 }, 
	{ NOTE_A3, 186 }, 
	{ NOTE_G3, 188 }, 
	{ NOTE_E3, 188 }, 
	{ NOTE_A3, 375 }, 
	{ NOTE_FS3, 188 }, 
	{ NOTE_FS3, 188 }, 
	{ NOTE_REST, 188 }, 
	{ NOTE_D4, 747 }, 
	{ NOTE_D4, 750 }, 
	{ NOTE_A3, 188 }, 
	{ NOTE_G3, 188 }, 
	{ NOTE_E3, 188 }, 
	{ NOTE_A3, 375 }, 
	{ NOTE_FS3, 188 }, 
	{ NOTE_REST, 375 }, 
	{ NOTE_A3, 186 }, 
	{ NOTE_G3, 188 }, 
	{ NOTE_A3, 188 }, 
	{ NOTE_G4, 375 }, 
	{ NOTE_A3, 188 }, 
	{ NOTE_REST, 375 }, 
	{ NOTE_A3, 186 }, 
	{ NOTE_G3, 188 }, 
	{ NOTE_E3, 188 }, 
	{ NOTE_A3, 375 }, 
	{ NOTE_FS3, 188 }, 
	{ NOTE_FS3, 188 }, 
	{ NOTE_REST, 188 }, 
	{ NOTE_D4, 747 }, 
	{ NOTE_D4, 750 }, 
	{ NOTE_A3, 188 }, 
	{ NOTE_G3, 188 }, 
	{ NOTE_E3, 188 }, 
	{ NOTE_A3, 375 }, 
	{ NOTE_FS3, 188 }, 
	{ NOTE_REST, 375 }, 
	{ NOTE_A3, 186 }, 
	{ NOTE_G3, 188 }, 
	{ NOTE_A3, 188 }, 
	{ NOTE_G4, 375 }, 
	{ NOTE_A3, 188 }, 
	{ NOTE_REST, 375 }, 
	{ NOTE_A3, 186 }, 
	{ NOTE_G3, 188 }, 
	{ NOTE_E3, 188 }, 
	{ NOTE_A3, 375 }, 
	{ NOTE_FS3, 188 }, 
	{ NOTE_FS3, 188 }, 
	{ NOTE_REST, 188 }, 
	{ NOTE_D4, 747 }, 
	{ NOTE_D4, 750 }, 
	{ NOTE_A3, 6751 }, 
	{ NOTE_E4, 188 }, 
	{ NOTE_G4, 188 }, 
	{ NOTE_GS4, 188 }, 
	{ NOTE_A4, 188 }, 
	{ NOTE_E4, 185 }, 
	{ NOTE_C5, 375 }, 
	{ NOTE_A4, 375 }, 
	{ NOTE_D5, 188 }, 
	{ NOTE_E5, 188 }, 
	{ NOTE_C5, 125 }, 
	{ NOTE_D5, 125 }, 
	{ NOTE_C5, 124 }, 
	{ NOTE_A4, 188 }, 
	{ NOTE_A4, 188 }, 
	{ NOTE_C5, 375 }, 
	{ NOTE_A4, 375 }, 
	{ NOTE_G4, 188 }, 
	{ NOTE_A4, 186 }, 
	{ NOTE_A4, 188 }, 
	{ NOTE_D4, 188 }, 
	{ NOTE_E4, 94 }, 
	{ NOTE_D4, 94 }, 
	{ NOTE_C4, 188 }, 
	{ NOTE_D4, 188 }, 
	{ NOTE_A3, 560 }, 
	{ NOTE_A3, 5813 }, 
	{ NOTE_E4, 188 }, 
	{ NOTE_G4, 188 }, 
	{ NOTE_GS4, 188 }, 
	{ NOTE_A4, 188 }, 
	{ NOTE_E4, 185 }, 
	{ NOTE_C5, 375 }, 
	{ NOTE_A4, 375 }, 
	{ NOTE_D5, 188 }, 
	{ NOTE_E5, 188 }, 
	{ NOTE_C5, 125 }, 
	{ NOTE_D5, 125 }, 
	{ NOTE_C5, 124 }, 
	{ NOTE_A4, 188 }, 
	{ NOTE_A4, 188 }, 
	{ NOTE_C5, 375 }, 
	{ NOTE_A4, 375 }, 
	{ NOTE_G4, 188 }, 
	{ NOTE_A4, 186 }, 
	{ NOTE_A4, 188 }, 
	{ NOTE_D4, 188 }, 
	{ NOTE_E4, 94 }, 
	{ NOTE_D4, 94 }, 
	{ NOTE_C4, 188 }, 
	{ NOTE_D4, 188 }, 
	{ NOTE_A3, 560 }, 
	{ NOTE_A3, 5813 }, 
	{ NOTE_E4, 188 }, 
	{ NOTE_G4, 188 }, 
	{ NOTE_GS4, 188 }, 
	{ NOTE_A4, 188 }, 
	{ NOTE_E4, 185 }, 
	{ NOTE_C5, 375 }, 
	{ NOTE_A4, 375 }, 
	{ NOTE_D5, 188 }, 
	{ NOTE_E5, 188 }, 
	{ NOTE_C5, 125 }, 
	{ NOTE_D5, 125 }, 
	{ NOTE_C5, 124 }, 
	{ NOTE_A4, 188 }, 
	{ NOTE_A4, 188 }, 
	{ NOTE_C5, 375 }, 
	{ NOTE_A4, 375 }, 
	{ NOTE_G4, 188 }, 
	{ NOTE_A4, 186 }, 
	{ NOTE_A4, 188 }, 
	{ NOTE_D4, 188 }, 
	{ NOTE_E4, 94 }, 
	{ NOTE_D4, 94 }, 
	{ NOTE_C4, 188 }, 
	{ NOTE_D4, 188 }, 
	{ NOTE_A3, 560 }, 
	{ NOTE_A3, 563 }, 
	{ NOTE_B3, 188 }, 
	{ NOTE_D4, 188 }, 
	{ NOTE_DS4, 188 }, 
	{ NOTE_E4, 188 }, 
	{ NOTE_B3, 185 }, 
	{ NOTE_G4, 375 }, 
	{ NOTE_E4, 375 }, 
	{ NOTE_B3, 188 }, 
	{ NOTE_D4, 188 }, 
	{ NOTE_DS4, 188 }, 
	{ NOTE_E4, 186 }, 
	{ NOTE_B3, 188 }, 
	{ NOTE_G4, 375 }, 
	{ NOTE_E4, 375 }, 
	{ NOTE_B3, 188 }, 
	{ NOTE_D4, 188 }, 
	{ NOTE_DS4, 186 }, 
	{ NOTE_E4, 188 }, 
	{ NOTE_B3, 188 }, 
	{ NOTE_G4, 375 }, 
	{ NOTE_E4, 375 }, 
	{ NOTE_B3, 188 }, 
	{ NOTE_D4, 186 }, 
	{ NOTE_DS4, 188 }, 
	{ NOTE_E4, 188 }, 
	{ NOTE_D4, 188 }, 
	{ NOTE_E4, 188 }, 
	{ NOTE_G4, 188 }, 
	{ NOTE_GS4, 188 }, 
	{ NOTE_A4, 188 }, 
	{ NOTE_E4, 184 }, 
	{ NOTE_C5, 375 }, 
	{ NOTE_A4, 375 }, 
	{ NOTE_D5, 188 }, 
	{ NOTE_E5, 188 }, 
	{ NOTE_C5, 125 }, 
	{ NOTE_D5, 125 }, 
	{ NOTE_C5, 124 }, 
	{ NOTE_A4, 188 }, 
	{ NOTE_A4, 188 }, 
	{ NOTE_C5, 375 }, 
	{ NOTE_A4, 375 }, 
	{ NOTE_G4, 188 }, 
	{ NOTE_A4, 186 }, 
	{ NOTE_A4, 188 }, 
	{ NOTE_D4, 188 }, 
	{ NOTE_E4, 94 }, 
	{ NOTE_D4, 94 }, 
	{ NOTE_C4, 188 }, 
	{ NOTE_D4, 188 }, 
	{ NOTE_A3, 560 }, 
	{ NOTE_A3, 562 }, 
	{ NOTE_A3, 188 }, 
	{ NOTE_C4, 188 }, 
	{ NOTE_E4, 562 }, 
	{ NOTE_B4, 281 }, 
	{ NOTE_A4, 94 }, 
	{ NOTE_B4, 188 }, 
	{ NOTE_A4, 188 }, 
	{ NOTE_C4, 188 }, 
	{ NOTE_A3, 561 }, 
	{ NOTE_B4, 281 }, 
	{ NOTE_A4, 94 }, 
	{ NOTE_B4, 188 }, 
	{ NOTE_A4, 188 }, 
	{ NOTE_C4, 188 }, 
	{ NOTE_A3, 561 }, 
	{ NOTE_A3, 188 }, 
	{ NOTE_G4, 562 }, 
	{ NOTE_A3, 188 }, 
	{ NOTE_E4, 562 }, 
	{ NOTE_B4, 281 }, 
	{ NOTE_A4, 94 }, 
	{ NOTE_B4, 188 }, 
	{ NOTE_A4, 188 }, 
	{ NOTE_C4, 188 }, 
	{ NOTE_A3, 561 }, 
	{ NOTE_B4, 281 }, 
	{ NOTE_A4, 94 }, 
	{ NOTE_B4, 188 }, 
	{ NOTE_A4, 188 }, 
	{ NOTE_C4, 188 }, 
	{ NOTE_A3, 561 }, 
	{ NOTE_B4, 281 }, 
	{ NOTE_A4, 94 }, 
	{ NOTE_B4, 188 }, 
	{ NOTE_A4, 188 }, 
	{ NOTE_C4, 188 }, 
	{ NOTE_A3, 561 }, 
	{ NOTE_A3, 188 }, 
	{ NOTE_G4, 562 }, 
	{ NOTE_A3, 188 }, 
	{ NOTE_E4, 562 }, 
	{ NOTE_A3, 5813 }, 
	{ NOTE_E4, 188 }, 
	{ NOTE_G4, 188 }, 
	{ NOTE_GS4, 188 }, 
	{ NOTE_A4, 188 }, 
	{ NOTE_E4, 185 }, 
	{ NOTE_C5, 375 }, 
	{ NOTE_A4, 375 }, 
	{ NOTE_D5, 188 }, 
	{ NOTE_E5, 188 }, 
	{ NOTE_C5, 125 }, 
	{ NOTE_D5, 125 }, 
	{ NOTE_C5, 124 }, 
	{ NOTE_A4, 188 }, 
	{ NOTE_A4, 188 }, 
	{ NOTE_C5, 375 }, 
	{ NOTE_A4, 375 }, 
	{ NOTE_G4, 188 }, 
	{ NOTE_A4, 186 }, 
	{ NOTE_A4, 188 }, 
	{ NOTE_D4, 188 }, 
	{ NOTE_E4, 94 }, 
	{ NOTE_D4, 94 }, 
	{ NOTE_C4, 188 }, 
	{ NOTE_D4, 188 }, 
	{ NOTE_A3, 560 }, 
	{ NOTE_A3, 5813 }, 
	{ NOTE_E4, 188 }, 
	{ NOTE_G4, 188 }, 
	{ NOTE_GS4, 188 }, 
	{ NOTE_A4, 188 }, 
	{ NOTE_E4, 185 }, 
	{ NOTE_C5, 375 }, 
	{ NOTE_A4, 375 }, 
	{ NOTE_D5, 188 }, 
	{ NOTE_E5, 188 }, 
	{ NOTE_C5, 125 }, 
	{ NOTE_D5, 125 }, 
	{ NOTE_C5, 124 }, 
	{ NOTE_A4, 188 }, 
	{ NOTE_A4, 188 }, 
	{ NOTE_C5, 375 }, 
	{ NOTE_A4, 375 }, 
	{ NOTE_G4, 188 }, 
	{ NOTE_A4, 186 }, 
	{ NOTE_A4, 188 }, 
	{ NOTE_D4, 188 }, 
	{ NOTE_E4, 94 }, 
	{ NOTE_D4, 94 }, 
	{ NOTE_C4, 188 }, 
	{ NOTE_D4, 188 }, 
	{ NOTE_A3, 560 }, 
	{ NOTE_A3, 12188 }, 
	{ NOTE_A3, 187 }, 
	{ NOTE_G3, 188 }, 
	{ NOTE_E3, 188 }, 
	{ NOTE_A3, 375 }, 
	{ NOTE_FS3, 188 }, 
	{ NOTE_REST, 375 }, 
	{ NOTE_A3, 186 }, 
	{ NOTE_G3, 188 }, 
	{ NOTE_A3, 188 }, 
	{ NOTE_G4, 375 }, 
	{ NOTE_A3, 188 }, 
	{ NOTE_REST, 375 }, 
	{ NOTE_A3, 186 }, 
	{ NOTE_G3, 188 }, 
	{ NOTE_E3, 188 }, 
	{ NOTE_A3, 375 }, 
	{ NOTE_FS3, 188 }, 
	{ NOTE_REST, 375 }, 
	{ NOTE_D4, 748 }, 
	{ NOTE_D4, 750 }, 
	{ NOTE_A3, 188 }, 
	{ NOTE_G3, 188 }, 
	{ NOTE_E3, 188 }, 
	{ NOTE_A3, 375 }, 
	{ NOTE_FS3, 188 }, 
	{ NOTE_REST, 375 }, 
	{ NOTE_A3, 186 }, 
	{ NOTE_G3, 188 }, 
	{ NOTE_A3, 188 }, 
	{ NOTE_G4, 375 }, 
	{ NOTE_A3, 188 }, 
	{ NOTE_REST, 375 }, 
	{ NOTE_A3, 186 }, 
	{ NOTE_G3, 188 }, 
	{ NOTE_E3, 188 }, 
	{ NOTE_A3, 375 }, 
	{ NOTE_FS3, 188 }, 
	{ NOTE_FS3, 188 }, 
	{ NOTE_REST, 188 }, 
	{ NOTE_D4, 747 }, 
	{ NOTE_D4, 750 }, 
	{ NOTE_A3, 188 }, 
	{ NOTE_G3, 188 }, 
	{ NOTE_E3, 188 }, 
	{ NOTE_A3, 375 }, 
	{ NOTE_FS3, 188 }, 
	{ NOTE_REST, 375 }, 
	{ NOTE_A3, 186 }, 
	{ NOTE_G3, 188 }, 
	{ NOTE_A3, 188 }, 
	{ NOTE_G4, 375 }, 
	{ NOTE_A3, 188 }, 
	{ NOTE_REST, 375 }, 
	{ NOTE_A3, 186 }, 
	{ NOTE_G3, 188 }, 
	{ NOTE_E3, 188 }, 
	{ NOTE_A3, 375 }, 
	{ NOTE_FS3, 188 }, 
	{ NOTE_FS3, 188 }, 
	{ NOTE_REST, 188 }, 
	{ NOTE_D4, 747 }, 
	{ NOTE_D4, 750 }, 
	{ NOTE_A3, 188 }, 
	{ NOTE_G3, 188 }, 
	{ NOTE_E3, 188 }, 
	{ NOTE_A3, 375 }, 
	{ NOTE_FS3, 188 }, 
	{ NOTE_REST, 375 }, 
	{ NOTE_A3, 186 }, 
	{ NOTE_G3, 188 }, 
	{ NOTE_A3, 188 }, 
	{ NOTE_G4, 375 }, 
	{ NOTE_A3, 188 }, 
	{ NOTE_REST, 375 }, 
	{ NOTE_A3, 186 }, 
	{ NOTE_G3, 188 }, 
	{ NOTE_E3, 188 }, 
	{ NOTE_A3, 375 }, 
	{ NOTE_FS3, 188 }, 
	{ NOTE_FS3, 188 }, 
	{ NOTE_REST, 188 }, 
	{ NOTE_D4, 747 }, 
	{ NOTE_D4, 750 }, 
	{ NOTE_A3, 188 }, 
	{ NOTE_G3, 188 }, 
	{ NOTE_E3, 188 }, 
	{ NOTE_A3, 375 }, 
	{ NOTE_FS3, 188 }, 
	{ NOTE_REST, 375 }, 
	{ NOTE_A3, 186 }, 
	{ NOTE_G3, 188 }, 
	{ NOTE_A3, 188 }, 
	{ NOTE_G4, 375 }, 
	{ NOTE_A3, 188 }, 
	{ NOTE_REST, 375 }, 
	{ NOTE_A3, 186 }, 
	{ NOTE_G3, 188 }, 
	{ NOTE_E3, 188 }, 
	{ NOTE_A3, 375 }, 
	{ NOTE_FS3, 188 }, 
	{ NOTE_REST, 375 }, 
	{ NOTE_D4, 748 }, 
	{ NOTE_D4, 750 }, 
	{ NOTE_A3, 188 }, 
	{ NOTE_G3, 188 }, 
	{ NOTE_E3, 188 }, 
	{ NOTE_A3, 375 }, 
	{ NOTE_FS3, 188 }, 
	{ NOTE_REST, 375 }, 
	{ NOTE_A3, 186 }, 
	{ NOTE_G3, 188 }, 
	{ NOTE_A3, 188 }, 
	{ NOTE_G4, 375 }, 
	{ NOTE_A3, 188 }, 
	{ NOTE_REST, 375 }, 
	{ NOTE_A3, 186 }, 
	{ NOTE_G3, 188 }, 
	{ NOTE_E3, 188 }, 
	{ NOTE_A3, 375 }, 
	{ NOTE_FS3, 188 }, 
	{ NOTE_FS3, 188 }, 
	{ NOTE_REST, 188 }, 
	{ NOTE_D4, 747 }, 
	{ NOTE_D4, 750 }, 
	{ NOTE_A3, 188 }, 
	{ NOTE_G3, 188 }, 
	{ NOTE_E3, 188 }, 
	{ NOTE_A3, 375 }, 
	{ NOTE_FS3, 188 }, 
	{ NOTE_REST, 375 }, 
	{ NOTE_A3, 186 }, 
	{ NOTE_G3, 188 }, 
	{ NOTE_A3, 188 }, 
	{ NOTE_G4, 375 }, 
	{ NOTE_A3, 188 }, 
	{ NOTE_REST, 375 }, 
	{ NOTE_A3, 186 }, 
	{ NOTE_G3, 188 }, 
	{ NOTE_E3, 188 }, 
	{ NOTE_A3, 375 }, 
	{ NOTE_FS3, 188 }, 
	{ NOTE_FS3, 188 }, 
	{ NOTE_REST, 188 }, 
	{ NOTE_D4, 747 }, 
	{ NOTE_D4, 750 }, 
	{ NOTE_A3, 188 }, 
	{ NOTE_G3, 188 }, 
	{ NOTE_E3, 188 }, 
	{ NOTE_A3, 375 }, 
	{ NOTE_FS3, 188 }, 
	{ NOTE_REST, 375 }, 
	{ NOTE_A3, 186 }, 
	{ NOTE_G3, 188 }, 
	{ NOTE_A3, 188 }, 
	{ NOTE_G4, 375 }, 
	{ NOTE_A3, 188 }, 
	{ NOTE_REST, 375 }, 
	{ NOTE_A3, 186 }, 
	{ NOTE_G3, 188 }, 
	{ NOTE_E3, 188 }, 
	{ NOTE_A3, 375 }, 
	{ NOTE_FS3, 188 }, 
	{ NOTE_FS3, 188 }, 
	{ NOTE_REST, 188 }, 
	{ NOTE_D4, 747 }, 
	{ NOTE_D4, 750 }, 
	{ NOTE_A3, 188 }, 
	{ NOTE_G3, 188 }, 
	{ NOTE_E3, 188 }, 
	{ NOTE_A3, 375 }, 
	{ NOTE_FS3, 188 }, 
	{ NOTE_REST, 375 }, 
	{ NOTE_A3, 186 }, 
	{ NOTE_G3, 188 }, 
	{ NOTE_A3, 188 }, 
	{ NOTE_G4, 375 }, 
	{ NOTE_A3, 188 }, 
	{ NOTE_REST, 375 }, 
	{ NOTE_A3, 186 }, 
	{ NOTE_G3, 188 }, 
	{ NOTE_E3, 188 }, 
	{ NOTE_A3, 375 }, 
	{ NOTE_FS3, 188 }, 
	{ NOTE_REST, 375 }, 
	{ NOTE_D4, 748 }, 
	{ NOTE_D4, 750 }, 
	{ NOTE_A3, 188 }, 
	{ NOTE_G3, 188 }, 
	{ NOTE_E3, 188 }, 
	{ NOTE_A3, 375 }, 
	{ NOTE_FS3, 188 }, 
	{ NOTE_REST, 375 }, 
	{ NOTE_A3, 186 }, 
	{ NOTE_G3, 188 }, 
	{ NOTE_A3, 188 }, 
	{ NOTE_G4, 375 }, 
	{ NOTE_A3, 188 }, 
	{ NOTE_REST, 375 }, 
	{ NOTE_A3, 186 }, 
	{ NOTE_G3, 188 }, 
	{ NOTE_E3, 188 }, 
	{ NOTE_A3, 375 }, 
	{ NOTE_FS3, 188 }, 
	{ NOTE_FS3, 188 }, 
	{ NOTE_REST, 188 }, 
	{ NOTE_D4, 747 }, 
	{ NOTE_D4, 750 }, 
	{ NOTE_A3, 188 }, 
	{ NOTE_G3, 188 }, 
	{ NOTE_E3, 188 }, 
	{ NOTE_A3, 375 }, 
	{ NOTE_FS3, 188 }, 
	{ NOTE_REST, 375 }, 
	{ NOTE_A3, 186 }, 
	{ NOTE_G3, 188 }, 
	{ NOTE_A3, 188 }, 
	{ NOTE_G4, 375 }, 
	{ NOTE_A3, 188 }, 
	{ NOTE_REST, 375 }, 
	{ NOTE_A3, 186 }, 
	{ NOTE_G3, 188 }, 
	{ NOTE_E3, 188 }, 
	{ NOTE_A3, 375 }, 
	{ NOTE_FS3, 188 }, 
	{ NOTE_FS3, 188 }, 
	{ NOTE_REST, 188 }, 
	{ NOTE_D4, 747 }, 
	{ NOTE_D4, 750 }, 
	{ NOTE_A3, 188 }, 
	{ NOTE_G3, 188 }, 
	{ NOTE_E3, 188 }, 
	{ NOTE_A3, 375 }, 
	{ NOTE_FS3, 188 }, 
	{ NOTE_REST, 375 }, 
	{ NOTE_A3, 186 }, 
	{ NOTE_G3, 188 }, 
	{ NOTE_A3, 188 }, 
	{ NOTE_G4, 375 }, 
	{ NOTE_A3, 188 }, 
	{ NOTE_REST, 375 }, 
	{ NOTE_A3, 186 }, 
	{ NOTE_G3, 188 }, 
	{ NOTE_E3, 188 }, 
	{ NOTE_A3, 375 }, 
	{ NOTE_FS3, 188 }, 
	{ NOTE_FS3, 188 }, 
	{ NOTE_REST, 188 }, 
	{ NOTE_D4, 747 }, 
	{ NOTE_D4, 750 }, 
	{ NOTE_A3, 188 }, 
	{ NOTE_G3, 188 }, 
	{ NOTE_E3, 188 }, 
	{ NOTE_A3, 375 }, 
	{ NOTE_FS3, 188 }, 
	{ NOTE_REST, 375 }, 
	{ NOTE_A3, 186 }, 
	{ NOTE_G3, 188 }, 
	{ NOTE_A3, 188 }, 
	{ NOTE_G4, 375 }, 
	{ NOTE_A3, 188 }, 
	{ NOTE_REST, 375 }, 
	{ NOTE_A3, 186 }, 
	{ NOTE_G3, 188 }, 
	{ NOTE_E3, 188 }, 
	{ NOTE_A3, 375 }, 
	{ NOTE_FS3, 188 }, 
	{ NOTE_REST, 375 }, 
	{ NOTE_D4, 748 }, 
	{ NOTE_D4, 750 }, 
	{ NOTE_A3, 188 }, 
	{ NOTE_REST, 1500 }, 
};
const uint16_t NUM_OF_NOTES0 = sizeof(melody0)/sizeof(melody0[0]);

const Note melody1[] PROGMEM = {
	{ NOTE_REST, 1500 }, 
	{ NOTE_REST, 0 }, 
	{ NOTE_REST, 1500 }, 
	{ NOTE_REST, 1500 }, 
	{ NOTE_REST, 1500 }, 
	{ NOTE_REST, 375 }, 
	{ NOTE_REST, 188 }, 
	{ NOTE_E4, 188 }, 
	{ NOTE_G4, 188 }, 
	{ NOTE_GS4, 188 }, 
	{ NOTE_A4, 188 }, 
	{ NOTE_E4, 185 }, 
	{ NOTE_C5, 375 }, 
	{ NOTE_A4, 375 }, 
	{ NOTE_D5, 188 }, 
	{ NOTE_E5, 188 }, 
	{ NOTE_C5, 125 }, 
	{ NOTE_D5, 125 }, 
	{ NOTE_C5, 124 }, 
	{ NOTE_A4, 188 }, 
	{ NOTE_A4, 188 }, 
	{ NOTE_C5, 375 }, 
	{ NOTE_A4, 375 }, 
	{ NOTE_G4, 188 }, 
	{ NOTE_A4, 186 }, 
	{ NOTE_A4, 188 }, 
	{ NOTE_D4, 188 }, 
	{ NOTE_E4, 94 }, 
	{ NOTE_D4, 94 }, 
	{ NOTE_C4, 188 }, 
	{ NOTE_D4, 188 }, 
	{ NOTE_E4, 560 }, 
	{ NOTE_E4, 5813 }, 
	{ NOTE_E4, 188 }, 
	{ NOTE_G4, 188 }, 
	{ NOTE_GS4, 188 }, 
	{ NOTE_A4, 188 }, 
	{ NOTE_E4, 185 }, 
	{ NOTE_C5, 375 }, 
	{ NOTE_A4, 375 }, 
	{ NOTE_D5, 188 }, 
	{ NOTE_E5, 188 }, 
	{ NOTE_C5, 125 }, 
	{ NOTE_D5, 125 }, 
	{ NOTE_C5, 124 }, 
	{ NOTE_A4, 188 }, 
	{ NOTE_A4, 188 }, 
	{ NOTE_C5, 375 }, 
	{ NOTE_A4, 375 }, 
	{ NOTE_G4, 188 }, 
	{ NOTE_A4, 186 }, 
	{ NOTE_A4, 188 }, 
	{ NOTE_D4, 188 }, 
	{ NOTE_E4, 94 }, 
	{ NOTE_D4, 94 }, 
	{ NOTE_C4, 188 }, 
	{ NOTE_D4, 188 }, 
	{ NOTE_E4, 560 }, 
	{ NOTE_E4, 5813 }, 
	{ NOTE_E4, 188 }, 
	{ NOTE_G4, 188 }, 
	{ NOTE_GS4, 188 }, 
	{ NOTE_A4, 188 }, 
	{ NOTE_E4, 185 }, 
	{ NOTE_C5, 375 }, 
	{ NOTE_A4, 375 }, 
	{ NOTE_D5, 188 }, 
	{ NOTE_E5, 188 }, 
	{ NOTE_C5, 125 }, 
	{ NOTE_D5, 125 }, 
	{ NOTE_C5, 124 }, 
	{ NOTE_A4, 188 }, 
	{ NOTE_A4, 188 }, 
	{ NOTE_C5, 375 }, 
	{ NOTE_A4, 375 }, 
	{ NOTE_G4, 188 }, 
	{ NOTE_A4, 186 }, 
	{ NOTE_A4, 188 }, 
	{ NOTE_D4, 188 }, 
	{ NOTE_E4, 94 }, 
	{ NOTE_D4, 94 }, 
	{ NOTE_C4, 188 }, 
	{ NOTE_D4, 188 }, 
	{ NOTE_E4, 560 }, 
	{ NOTE_E4, 563 }, 
	{ NOTE_B3, 188 }, 
	{ NOTE_D4, 188 }, 
	{ NOTE_DS4, 188 }, 
	{ NOTE_E4, 188 }, 
	{ NOTE_B3, 185 }, 
	{ NOTE_G4, 375 }, 
	{ NOTE_E4, 375 }, 
	{ NOTE_B3, 188 }, 
	{ NOTE_D4, 188 }, 
	{ NOTE_DS4, 188 }, 
	{ NOTE_E4, 186 }, 
	{ NOTE_B3, 188 }, 
	{ NOTE_G4, 375 }, 
	{ NOTE_E4, 375 }, 
	{ NOTE_B3, 188 }, 
	{ NOTE_D4, 188 }, 
	{ NOTE_DS4, 186 }, 
	{ NOTE_E4, 188 }, 
	{ NOTE_B3, 188 }, 
	{ NOTE_G4, 375 }, 
	{ NOTE_E4, 375 }, 
	{ NOTE_B3, 188 }, 
	{ NOTE_D4, 186 }, 
	{ NOTE_DS4, 188 }, 
	{ NOTE_E4, 188 }, 
	{ NOTE_D4, 188 }, 
	{ NOTE_E4, 188 }, 
	{ NOTE_G4, 188 }, 
	{ NOTE_GS4, 188 }, 
	{ NOTE_A4, 188 }, 
	{ NOTE_E4, 184 }, 
	{ NOTE_C5, 375 }, 
	{ NOTE_A4, 375 }, 
	{ NOTE_D5, 188 }, 
	{ NOTE_E5, 188 }, 
	{ NOTE_C5, 125 }, 
	{ NOTE_D5, 125 }, 
	{ NOTE_C5, 124 }, 
	{ NOTE_A4, 188 }, 
	{ NOTE_A4, 188 }, 
	{ NOTE_C5, 375 }, 
	{ NOTE_A4, 375 }, 
	{ NOTE_G4, 188 }, 
	{ NOTE_A4, 186 }, 
	{ NOTE_A4, 188 }, 
	{ NOTE_D4, 188 }, 
	{ NOTE_E4, 94 }, 
	{ NOTE_D4, 94 }, 
	{ NOTE_C4, 188 }, 
	{ NOTE_D4, 188 }, 
	{ NOTE_E4, 560 }, 
	{ NOTE_E4, 562 }, 
	{ NOTE_E4, 188 }, 
	{ NOTE_C4, 188 }, 
	{ NOTE_A4, 562 }, 
	{ NOTE_B4, 281 }, 
	{ NOTE_A4, 94 }, 
	{ NOTE_B4, 188 }, 
	{ NOTE_A4, 188 }, 
	{ NOTE_C4, 188 }, 
	{ NOTE_E4, 561 }, 
	{ NOTE_B4, 281 }, 
	{ NOTE_A4, 94 }, 
	{ NOTE_B4, 188 }, 
	{ NOTE_A4, 188 }, 
	{ NOTE_C4, 188 }, 
	{ NOTE_E4, 561 }, 
	{ NOTE_A3, 188 }, 
	{ NOTE_C5, 562 }, 
	{ NOTE_A3, 188 }, 
	{ NOTE_A4, 562 }, 
	{ NOTE_B4, 281 }, 
	{ NOTE_A4, 94 }, 
	{ NOTE_B4, 188 }, 
	{ NOTE_A4, 188 }, 
	{ NOTE_C4, 188 }, 
	{ NOTE_E4, 561 }, 
	{ NOTE_B4, 281 }, 
	{ NOTE_A4, 94 }, 
	{ NOTE_B4, 188 }, 
	{ NOTE_A4, 188 }, 
	{ NOTE_C4, 188 }, 
	{ NOTE_E4, 561 }, 
	{ NOTE_B4, 281 }, 
	{ NOTE_A4, 94 }, 
	{ NOTE_B4, 188 }, 
	{ NOTE_A4, 188 }, 
	{ NOTE_C4, 188 }, 
	{ NOTE_E4, 561 }, 
	{ NOTE_A3, 188 }, 
	{ NOTE_C5, 562 }, 
	{ NOTE_A3, 188 }, 
	{ NOTE_A4, 562 }, 
	{ NOTE_E4, 5063 }, 
	{ NOTE_E4, 188 }, 
	{ NOTE_G4, 188 }, 
	{ NOTE_GS4, 188 }, 
	{ NOTE_A4, 188 }, 
	{ NOTE_E4, 185 }, 
	{ NOTE_C5, 375 }, 
	{ NOTE_A4, 375 }, 
	{ NOTE_D5, 188 }, 
	{ NOTE_E5, 188 }, 
	{ NOTE_C5, 125 }, 
	{ NOTE_D5, 125 }, 
	{ NOTE_C5, 124 }, 
	{ NOTE_A4, 188 }, 
	{ NOTE_A4, 188 }, 
	{ NOTE_C5, 375 }, 
	{ NOTE_A4, 375 }, 
	{ NOTE_G4, 188 }, 
	{ NOTE_A4, 186 }, 
	{ NOTE_A4, 188 }, 
	{ NOTE_D4, 188 }, 
	{ NOTE_E4, 94 }, 
	{ NOTE_D4, 94 }, 
	{ NOTE_C4, 188 }, 
	{ NOTE_D4, 188 }, 
	{ NOTE_E4, 560 }, 
	{ NOTE_E4, 5813 }, 
	{ NOTE_E4, 188 }, 
	{ NOTE_G4, 188 }, 
	{ NOTE_GS4, 188 }, 
	{ NOTE_A4, 188 }, 
	{ NOTE_E4, 185 }, 
	{ NOTE_C5, 375 }, 
	{ NOTE_A4, 375 }, 
	{ NOTE_D5, 188 }, 
	{ NOTE_E5, 188 }, 
	{ NOTE_C5, 125 }, 
	{ NOTE_D5, 125 }, 
	{ NOTE_C5, 124 }, 
	{ NOTE_A4, 188 }, 
	{ NOTE_A4, 188 }, 
	{ NOTE_C5, 375 }, 
	{ NOTE_A4, 375 }, 
	{ NOTE_G4, 188 }, 
	{ NOTE_A4, 186 }, 
	{ NOTE_A4, 188 }, 
	{ NOTE_D4, 188 }, 
	{ NOTE_E4, 94 }, 
	{ NOTE_D4, 94 }, 
	{ NOTE_C4, 188 }, 
	{ NOTE_D4, 188 }, 
	{ NOTE_E4, 560 }, 
	{ NOTE_E4, 12563 }, 
	{ NOTE_E4, 187 }, 
	{ NOTE_G3, 188 }, 
	{ NOTE_E3, 188 }, 
	{ NOTE_E4, 375 }, 
	{ NOTE_FS3, 188 }, 
	{ NOTE_REST, 375 }, 
	{ NOTE_E4, 186 }, 
	{ NOTE_G3, 188 }, 
	{ NOTE_E4, 188 }, 
	{ NOTE_C5, 375 }, 
	{ NOTE_E4, 188 }, 
	{ NOTE_REST, 375 }, 
	{ NOTE_E4, 186 }, 
	{ NOTE_G3, 188 }, 
	{ NOTE_E3, 188 }, 
	{ NOTE_E4, 375 }, 
	{ NOTE_A3, 188 }, 
	{ NOTE_REST, 375 }, 
	{ NOTE_A4, 748 }, 
	{ NOTE_A4, 750 }, 
	{ NOTE_E4, 188 }, 
	{ NOTE_G3, 188 }, 
	{ NOTE_E3, 188 }, 
	{ NOTE_E4, 375 }, 
	{ NOTE_FS3, 188 }, 
	{ NOTE_REST, 375 }, 
	{ NOTE_E4, 186 }, 
	{ NOTE_G3, 188 }, 
	{ NOTE_E4, 188 }, 
	{ NOTE_C5, 375 }, 
	{ NOTE_E4, 188 }, 
	{ NOTE_REST, 375 }, 
	{ NOTE_E4, 186 }, 
	{ NOTE_G3, 188 }, 
	{ NOTE_E3, 188 }, 
	{ NOTE_E4, 375 }, 
	{ NOTE_A3, 188 }, 
	{ NOTE_A3, 188 }, 
	{ NOTE_REST, 188 }, 
	{ NOTE_A4, 747 }, 
	{ NOTE_A4, 750 }, 
	{ NOTE_E4, 188 }, 
	{ NOTE_G3, 188 }, 
	{ NOTE_E3, 188 }, 
	{ NOTE_E4, 375 }, 
	{ NOTE_FS3, 188 }, 
	{ NOTE_REST, 375 }, 
	{ NOTE_E4, 186 }, 
	{ NOTE_G3, 188 }, 
	{ NOTE_E4, 188 }, 
	{ NOTE_C5, 375 }, 
	{ NOTE_E4, 188 }, 
	{ NOTE_REST, 375 }, 
	{ NOTE_E4, 186 }, 
	{ NOTE_G3, 188 }, 
	{ NOTE_E3, 188 }, 
	{ NOTE_E4, 375 }, 
	{ NOTE_A3, 188 }, 
	{ NOTE_A3, 188 }, 
	{ NOTE_REST, 188 }, 
	{ NOTE_A4, 747 }, 
	{ NOTE_A4, 750 }, 
	{ NOTE_E4, 188 }, 
	{ NOTE_G3, 188 }, 
	{ NOTE_E3, 188 }, 
	{ NOTE_E4, 375 }, 
	{ NOTE_FS3, 188 }, 
	{ NOTE_REST, 375 }, 
	{ NOTE_E4, 186 }, 
	{ NOTE_G3, 188 }, 
	{ NOTE_E4, 188 }, 
	{ NOTE_C5, 375 }, 
	{ NOTE_E4, 188 }, 
	{ NOTE_REST, 375 }, 
	{ NOTE_E4, 186 }, 
	{ NOTE_G3, 188 }, 
	{ NOTE_E3, 188 }, 
	{ NOTE_E4, 375 }, 
	{ NOTE_A3, 188 }, 
	{ NOTE_A3, 188 }, 
	{ NOTE_REST, 188 }, 
	{ NOTE_A4, 747 }, 
	{ NOTE_A4, 750 }, 
	{ NOTE_E4, 6751 }, 
	{ NOTE_E4, 188 }, 
	{ NOTE_G4, 188 }, 
	{ NOTE_GS4, 188 }, 
	{ NOTE_A4, 188 }, 
	{ NOTE_E4, 185 }, 
	{ NOTE_C5, 375 }, 
	{ NOTE_A4, 375 }, 
	{ NOTE_D5, 188 }, 
	{ NOTE_E5, 188 }, 
	{ NOTE_C5, 125 }, 
	{ NOTE_D5, 125 }, 
	{ NOTE_C5, 124 }, 
	{ NOTE_A4, 188 }, 
	{ NOTE_A4, 188 }, 
	{ NOTE_C5, 375 }, 
	{ NOTE_A4, 375 }, 
	{ NOTE_G4, 188 }, 
	{ NOTE_A4, 186 }, 
	{ NOTE_A4, 188 }, 
	{ NOTE_D4, 188 }, 
	{ NOTE_E4, 94 }, 
	{ NOTE_D4, 94 }, 
	{ NOTE_C4, 188 }, 
	{ NOTE_D4, 188 }, 
	{ NOTE_E4, 560 }, 
	{ NOTE_E4, 5813 }, 
	{ NOTE_E4, 188 }, 
	{ NOTE_G4, 188 }, 
	{ NOTE_GS4, 188 }, 
	{ NOTE_A4, 188 }, 
	{ NOTE_E4, 185 }, 
	{ NOTE_C5, 375 }, 
	{ NOTE_A4, 375 }, 
	{ NOTE_D5, 188 }, 
	{ NOTE_E5, 188 }, 
	{ NOTE_C5, 125 }, 
	{ NOTE_D5, 125 }, 
	{ NOTE_C5, 124 }, 
	{ NOTE_A4, 188 }, 
	{ NOTE_A4, 188 }, 
	{ NOTE_C5, 375 }, 
	{ NOTE_A4, 375 }, 
	{ NOTE_G4, 188 }, 
	{ NOTE_A4, 186 }, 
	{ NOTE_A4, 188 }, 
	{ NOTE_D4, 188 }, 
	{ NOTE_E4, 94 }, 
	{ NOTE_D4, 94 }, 
	{ NOTE_C4, 188 }, 
	{ NOTE_D4, 188 }, 
	{ NOTE_E4, 560 }, 
	{ NOTE_E4, 5813 }, 
	{ NOTE_E4, 188 }, 
	{ NOTE_G4, 188 }, 
	{ NOTE_GS4, 188 }, 
	{ NOTE_A4, 188 }, 
	{ NOTE_E4, 185 }, 
	{ NOTE_C5, 375 }, 
	{ NOTE_A4, 375 }, 
	{ NOTE_D5, 188 }, 
	{ NOTE_E5, 188 }, 
	{ NOTE_C5, 125 }, 
	{ NOTE_D5, 125 }, 
	{ NOTE_C5, 124 }, 
	{ NOTE_A4, 188 }, 
	{ NOTE_A4, 188 }, 
	{ NOTE_C5, 375 }, 
	{ NOTE_A4, 375 }, 
	{ NOTE_G4, 188 }, 
	{ NOTE_A4, 186 }, 
	{ NOTE_A4, 188 }, 
	{ NOTE_D4, 188 }, 
	{ NOTE_E4, 94 }, 
	{ NOTE_D4, 94 }, 
	{ NOTE_C4, 188 }, 
	{ NOTE_D4, 188 }, 
	{ NOTE_E4, 560 }, 
	{ NOTE_E4, 563 }, 
	{ NOTE_B3, 188 }, 
	{ NOTE_D4, 188 }, 
	{ NOTE_DS4, 188 }, 
	{ NOTE_E4, 188 }, 
	{ NOTE_B3, 185 }, 
	{ NOTE_G4, 375 }, 
	{ NOTE_E4, 375 }, 
	{ NOTE_B3, 188 }, 
	{ NOTE_D4, 188 }, 
	{ NOTE_DS4, 188 }, 
	{ NOTE_E4, 186 }, 
	{ NOTE_B3, 188 }, 
	{ NOTE_G4, 375 }, 
	{ NOTE_E4, 375 }, 
	{ NOTE_B3, 188 }, 
	{ NOTE_D4, 188 }, 
	{ NOTE_DS4, 186 }, 
	{ NOTE_E4, 188 }, 
	{ NOTE_B3, 188 }, 
	{ NOTE_G4, 375 }, 
	{ NOTE_E4, 375 }, 
	{ NOTE_B3, 188 }, 
	{ NOTE_D4, 186 }, 
	{ NOTE_DS4, 188 }, 
	{ NOTE_E4, 188 }, 
	{ NOTE_D4, 188 }, 
	{ NOTE_E4, 188 }, 
	{ NOTE_G4, 188 }, 
	{ NOTE_GS4, 188 }, 
	{ NOTE_A4, 188 }, 
	{ NOTE_E4, 184 }, 
	{ NOTE_C5, 375 }, 
	{ NOTE_A4, 375 }, 
	{ NOTE_D5, 188 }, 
	{ NOTE_E5, 188 }, 
	{ NOTE_C5, 125 }, 
	{ NOTE_D5, 125 }, 
	{ NOTE_C5, 124 }, 
	{ NOTE_A4, 188 }, 
	{ NOTE_A4, 188 }, 
	{ NOTE_C5, 375 }, 
	{ NOTE_A4, 375 }, 
	{ NOTE_G4, 188 }, 
	{ NOTE_A4, 186 }, 
	{ NOTE_A4, 188 }, 
	{ NOTE_D4, 188 }, 
	{ NOTE_E4, 94 }, 
	{ NOTE_D4, 94 }, 
	{ NOTE_C4, 188 }, 
	{ NOTE_D4, 188 }, 
	{ NOTE_E4, 560 }, 
	{ NOTE_E4, 562 }, 
	{ NOTE_E4, 188 }, 
	{ NOTE_C4, 188 }, 
	{ NOTE_A4, 562 }, 
	{ NOTE_B4, 281 }, 
	{ NOTE_A4, 94 }, 
	{ NOTE_B4, 188 }, 
	{ NOTE_A4, 188 }, 
	{ NOTE_C4, 188 }, 
	{ NOTE_E4, 561 }, 
	{ NOTE_B4, 281 }, 
	{ NOTE_A4, 94 }, 
	{ NOTE_B4, 188 }, 
	{ NOTE_A4, 188 }, 
	{ NOTE_C4, 188 }, 
	{ NOTE_E4, 561 }, 
	{ NOTE_A3, 188 }, 
	{ NOTE_C5, 562 }, 
	{ NOTE_A3, 188 }, 
	{ NOTE_A4, 562 }, 
	{ NOTE_B4, 281 }, 
	{ NOTE_A4, 94 }, 
	{ NOTE_B4, 188 }, 
	{ NOTE_A4, 188 }, 
	{ NOTE_C4, 188 }, 
	{ NOTE_E4, 561 }, 
	{ NOTE_B4, 281 }, 
	{ NOTE_A4, 94 }, 
	{ NOTE_B4, 188 }, 
	{ NOTE_A4, 188 }, 
	{ NOTE_C4, 188 }, 
	{ NOTE_E4, 561 }, 
	{ NOTE_B4, 281 }, 
	{ NOTE_A4, 94 }, 
	{ NOTE_B4, 188 }, 
	{ NOTE_A4, 188 }, 
	{ NOTE_C4, 188 }, 
	{ NOTE_E4, 561 }, 
	{ NOTE_A3, 188 }, 
	{ NOTE_C5, 562 }, 
	{ NOTE_A3, 188 }, 
	{ NOTE_A4, 562 }, 
	{ NOTE_E4, 5813 }, 
	{ NOTE_E4, 188 }, 
	{ NOTE_G4, 188 }, 
	{ NOTE_GS4, 188 }, 
	{ NOTE_A4, 188 }, 
	{ NOTE_E4, 185 }, 
	{ NOTE_C5, 375 }, 
	{ NOTE_A4, 375 }, 
	{ NOTE_D5, 188 }, 
	{ NOTE_E5, 188 }, 
	{ NOTE_C5, 125 }, 
	{ NOTE_D5, 125 }, 
	{ NOTE_C5, 124 }, 
	{ NOTE_A4, 188 }, 
	{ NOTE_A4, 188 }, 
	{ NOTE_C5, 375 }, 
	{ NOTE_A4, 375 }, 
	{ NOTE_G4, 188 }, 
	{ NOTE_A4, 186 }, 
	{ NOTE_A4, 188 }, 
	{ NOTE_D4, 188 }, 
	{ NOTE_E4, 94 }, 
	{ NOTE_D4, 94 }, 
	{ NOTE_C4, 188 }, 
	{ NOTE_D4, 188 }, 
	{ NOTE_E4, 560 }, 
	{ NOTE_E4, 5813 }, 
	{ NOTE_E4, 188 }, 
	{ NOTE_G4, 188 }, 
	{ NOTE_GS4, 188 }, 
	{ NOTE_A4, 188 }, 
	{ NOTE_E4, 185 }, 
	{ NOTE_C5, 375 }, 
	{ NOTE_A4, 375 }, 
	{ NOTE_D5, 188 }, 
	{ NOTE_E5, 188 }, 
	{ NOTE_C5, 125 }, 
	{ NOTE_D5, 125 }, 
	{ NOTE_C5, 124 }, 
	{ NOTE_A4, 188 }, 
	{ NOTE_A4, 188 }, 
	{ NOTE_C5, 375 }, 
	{ NOTE_A4, 375 }, 
	{ NOTE_G4, 188 }, 
	{ NOTE_A4, 186 }, 
	{ NOTE_A4, 188 }, 
	{ NOTE_D4, 188 }, 
	{ NOTE_E4, 94 }, 
	{ NOTE_D4, 94 }, 
	{ NOTE_C4, 188 }, 
	{ NOTE_D4, 188 }, 
	{ NOTE_E4, 560 }, 
	{ NOTE_E4, 12188 }, 
	{ NOTE_E4, 187 }, 
	{ NOTE_G3, 188 }, 
	{ NOTE_E3, 188 }, 
	{ NOTE_E4, 375 }, 
	{ NOTE_FS3, 188 }, 
	{ NOTE_REST, 375 }, 
	{ NOTE_E4, 186 }, 
	{ NOTE_G3, 188 }, 
	{ NOTE_E4, 188 }, 
	{ NOTE_C5, 375 }, 
	{ NOTE_E4, 188 }, 
	{ NOTE_REST, 375 }, 
	{ NOTE_E4, 186 }, 
	{ NOTE_G3, 188 }, 
	{ NOTE_E3, 188 }, 
	{ NOTE_E4, 375 }, 
	{ NOTE_A3, 188 }, 
	{ NOTE_REST, 375 }, 
	{ NOTE_A4, 748 }, 
	{ NOTE_A4, 750 }, 
	{ NOTE_E4, 188 }, 
	{ NOTE_G3, 188 }, 
	{ NOTE_E3, 188 }, 
	{ NOTE_E4, 375 }, 
	{ NOTE_FS3, 188 }, 
	{ NOTE_REST, 375 }, 
	{ NOTE_E4, 186 }, 
	{ NOTE_G3, 188 }, 
	{ NOTE_E4, 188 }, 
	{ NOTE_C5, 375 }, 
	{ NOTE_E4, 188 }, 
	{ NOTE_REST, 375 }, 
	{ NOTE_E4, 186 }, 
	{ NOTE_G3, 188 }, 
	{ NOTE_E3, 188 }, 
	{ NOTE_E4, 375 }, 
	{ NOTE_A3, 188 }, 
	{ NOTE_A3, 188 }, 
	{ NOTE_REST, 188 }, 
	{ NOTE_A4, 747 }, 
	{ NOTE_A4, 750 }, 
	{ NOTE_E4, 188 }, 
	{ NOTE_G3, 188 }, 
	{ NOTE_E3, 188 }, 
	{ NOTE_E4, 375 }, 
	{ NOTE_FS3, 188 }, 
	{ NOTE_REST, 375 }, 
	{ NOTE_E4, 186 }, 
	{ NOTE_G3, 188 }, 
	{ NOTE_E4, 188 }, 
	{ NOTE_C5, 375 }, 
	{ NOTE_E4, 188 }, 
	{ NOTE_REST, 375 }, 
	{ NOTE_E4, 186 }, 
	{ NOTE_G3, 188 }, 
	{ NOTE_E3, 188 }, 
	{ NOTE_E4, 375 }, 
	{ NOTE_A3, 188 }, 
	{ NOTE_A3, 188 }, 
	{ NOTE_REST, 188 }, 
	{ NOTE_A4, 747 }, 
	{ NOTE_A4, 750 }, 
	{ NOTE_E4, 188 }, 
	{ NOTE_G3, 188 }, 
	{ NOTE_E3, 188 }, 
	{ NOTE_E4, 375 }, 
	{ NOTE_FS3, 188 }, 
	{ NOTE_REST, 375 }, 
	{ NOTE_E4, 186 }, 
	{ NOTE_G3, 188 }, 
	{ NOTE_E4, 188 }, 
	{ NOTE_C5, 375 }, 
	{ NOTE_E4, 188 }, 
	{ NOTE_REST, 375 }, 
	{ NOTE_E4, 186 }, 
	{ NOTE_G3, 188 }, 
	{ NOTE_E3, 188 }, 
	{ NOTE_E4, 375 }, 
	{ NOTE_A3, 188 }, 
	{ NOTE_A3, 188 }, 
	{ NOTE_REST, 188 }, 
	{ NOTE_A4, 747 }, 
	{ NOTE_A4, 750 }, 
	{ NOTE_E4, 188 }, 
	{ NOTE_G3, 188 }, 
	{ NOTE_E3, 188 }, 
	{ NOTE_E4, 375 }, 
	{ NOTE_FS3, 188 }, 
	{ NOTE_REST, 375 }, 
	{ NOTE_E4, 186 }, 
	{ NOTE_G3, 188 }, 
	{ NOTE_E4, 188 }, 
	{ NOTE_C5, 375 }, 
	{ NOTE_E4, 188 }, 
	{ NOTE_REST, 375 }, 
	{ NOTE_E4, 186 }, 
	{ NOTE_G3, 188 }, 
	{ NOTE_E3, 188 }, 
	{ NOTE_E4, 375 }, 
	{ NOTE_A3, 188 }, 
	{ NOTE_REST, 375 }, 
	{ NOTE_A4, 748 }, 
	{ NOTE_A4, 750 }, 
	{ NOTE_E4, 188 }, 
	{ NOTE_G3, 188 }, 
	{ NOTE_E3, 188 }, 
	{ NOTE_E4, 375 }, 
	{ NOTE_FS3, 188 }, 
	{ NOTE_REST, 375 }, 
	{ NOTE_E4, 186 }, 
	{ NOTE_G3, 188 }, 
	{ NOTE_E4, 188 }, 
	{ NOTE_C5, 375 }, 
	{ NOTE_E4, 188 }, 
	{ NOTE_REST, 375 }, 
	{ NOTE_E4, 186 }, 
	{ NOTE_G3, 188 }, 
	{ NOTE_E3, 188 }, 
	{ NOTE_E4, 375 }, 
	{ NOTE_A3, 188 }, 
	{ NOTE_A3, 188 }, 
	{ NOTE_REST, 188 }, 
	{ NOTE_A4, 747 }, 
	{ NOTE_A4, 750 }, 
	{ NOTE_E4, 188 }, 
	{ NOTE_G3, 188 }, 
	{ NOTE_E3, 188 }, 
	{ NOTE_E4, 375 }, 
	{ NOTE_FS3, 188 }, 
	{ NOTE_REST, 375 }, 
	{ NOTE_E4, 186 }, 
	{ NOTE_G3, 188 }, 
	{ NOTE_E4, 188 }, 
	{ NOTE_C5, 375 }, 
	{ NOTE_E4, 188 }, 
	{ NOTE_REST, 375 }, 
	{ NOTE_E4, 186 }, 
	{ NOTE_G3, 188 }, 
	{ NOTE_E3, 188 }, 
	{ NOTE_E4, 375 }, 
	{ NOTE_A3, 188 }, 
	{ NOTE_A3, 188 }, 
	{ NOTE_REST, 188 }, 
	{ NOTE_A4, 747 }, 
	{ NOTE_A4, 750 }, 
	{ NOTE_E4, 188 }, 
	{ NOTE_G3, 188 }, 
	{ NOTE_E3, 188 }, 
	{ NOTE_E4, 375 }, 
	{ NOTE_FS3, 188 }, 
	{ NOTE_REST, 375 }, 
	{ NOTE_E4, 186 }, 
	{ NOTE_G3, 188 }, 
	{ NOTE_E4, 188 }, 
	{ NOTE_C5, 375 }, 
	{ NOTE_E4, 188 }, 
	{ NOTE_REST, 375 }, 
	{ NOTE_E4, 186 }, 
	{ NOTE_G3, 188 }, 
	{ NOTE_E3, 188 }, 
	{ NOTE_E4, 375 }, 
	{ NOTE_A3, 188 }, 
	{ NOTE_A3, 188 }, 
	{ NOTE_REST, 188 }, 
	{ NOTE_A4, 747 }, 
	{ NOTE_A4, 750 }, 
	{ NOTE_E4, 188 }, 
	{ NOTE_G3, 188 }, 
	{ NOTE_E3, 188 }, 
	{ NOTE_E4, 375 }, 
	{ NOTE_FS3, 188 }, 
	{ NOTE_REST, 375 }, 
	{ NOTE_E4, 186 }, 
	{ NOTE_G3, 188 }, 
	{ NOTE_E4, 188 }, 
	{ NOTE_C5, 375 }, 
	{ NOTE_E4, 188 }, 
	{ NOTE_REST, 375 }, 
	{ NOTE_E4, 186 }, 
	{ NOTE_G3, 188 }, 
	{ NOTE_E3, 188 }, 
	{ NOTE_E4, 375 }, 
	{ NOTE_A3, 188 }, 
	{ NOTE_REST, 375 }, 
	{ NOTE_A4, 748 }, 
	{ NOTE_A4, 750 }, 
	{ NOTE_E4, 188 }, 
	{ NOTE_G3, 188 }, 
	{ NOTE_E3, 188 }, 
	{ NOTE_E4, 375 }, 
	{ NOTE_FS3, 188 }, 
	{ NOTE_REST, 375 }, 
	{ NOTE_E4, 186 }, 
	{ NOTE_G3, 188 }, 
	{ NOTE_E4, 188 }, 
	{ NOTE_C5, 375 }, 
	{ NOTE_E4, 188 }, 
	{ NOTE_REST, 375 }, 
	{ NOTE_E4, 186 }, 
	{ NOTE_G3, 188 }, 
	{ NOTE_E3, 188 }, 
	{ NOTE_E4, 375 }, 
	{ NOTE_A3, 188 }, 
	{ NOTE_A3, 188 }, 
	{ NOTE_REST, 188 }, 
	{ NOTE_A4, 747 }, 
	{ NOTE_A4, 750 }, 
	{ NOTE_E4, 188 }, 
	{ NOTE_G3, 188 }, 
	{ NOTE_E3, 188 }, 
	{ NOTE_E4, 375 }, 
	{ NOTE_FS3, 188 }, 
	{ NOTE_REST, 375 }, 
	{ NOTE_E4, 186 }, 
	{ NOTE_G3, 188 }, 
	{ NOTE_E4, 188 }, 
	{ NOTE_C5, 375 }, 
	{ NOTE_E4, 188 }, 
	{ NOTE_REST, 375 }, 
	{ NOTE_E4, 186 }, 
	{ NOTE_G3, 188 }, 
	{ NOTE_E3, 188 }, 
	{ NOTE_E4, 375 }, 
	{ NOTE_A3, 188 }, 
	{ NOTE_A3, 188 }, 
	{ NOTE_REST, 188 }, 
	{ NOTE_A4, 747 }, 
	{ NOTE_A4, 750 }, 
	{ NOTE_E4, 188 }, 
	{ NOTE_G3, 188 }, 
	{ NOTE_E3, 188 }, 
	{ NOTE_E4, 375 }, 
	{ NOTE_FS3, 188 }, 
	{ NOTE_REST, 375 }, 
	{ NOTE_E4, 186 }, 
	{ NOTE_G3, 188 }, 
	{ NOTE_E4, 188 }, 
	{ NOTE_C5, 375 }, 
	{ NOTE_E4, 188 }, 
	{ NOTE_REST, 375 }, 
	{ NOTE_E4, 186 }, 
	{ NOTE_G3, 188 }, 
	{ NOTE_E3, 188 }, 
	{ NOTE_E4, 375 }, 
	{ NOTE_A3, 188 }, 
	{ NOTE_A3, 188 }, 
	{ NOTE_REST, 188 }, 
	{ NOTE_A4, 747 }, 
	{ NOTE_A4, 750 }, 
	{ NOTE_E4, 188 }, 
	{ NOTE_G3, 188 }, 
	{ NOTE_E3, 188 }, 
	{ NOTE_E4, 375 }, 
	{ NOTE_FS3, 188 }, 
	{ NOTE_REST, 375 }, 
	{ NOTE_E4, 186 }, 
	{ NOTE_G3, 188 }, 
	{ NOTE_E4, 188 }, 
	{ NOTE_C5, 375 }, 
	{ NOTE_E4, 188 }, 
	{ NOTE_REST, 375 }, 
	{ NOTE_E4, 186 }, 
	{ NOTE_G3, 188 }, 
	{ NOTE_E3, 188 }, 
	{ NOTE_E4, 375 }, 
	{ NOTE_A3, 188 }, 
	{ NOTE_REST, 375 }, 
	{ NOTE_A4, 748 }, 
	{ NOTE_A4, 750 }, 
	{ NOTE_E4, 188 }, 
	{ NOTE_REST, 1500 }, 
};
const uint16_t NUM_OF_NOTES1 = sizeof(melody1)/sizeof(melody1[0]);

const Note melody2[] PROGMEM = {
	{ NOTE_REST, 1500 }, 
	{ NOTE_REST, 1500 }, 
	{ NOTE_REST, 1500 }, 
	{ NOTE_REST, 1500 }, 
	{ NOTE_REST, 1500 }, 
	{ NOTE_REST, 1500 }, 
	{ NOTE_REST, 1500 }, 
	{ NOTE_REST, 1500 }, 
	{ NOTE_REST, 1500 }, 
	{ NOTE_REST, 1500 }, 
	{ NOTE_REST, 1500 }, 
	{ NOTE_REST, 2250 }, 
	{ NOTE_REST, 1500 }, 
	{ NOTE_REST, 1500 }, 
	{ NOTE_REST, 1500 }, 
	{ NOTE_REST, 1500 }, 
	{ NOTE_REST, 1500 }, 
	{ NOTE_REST, 1500 }, 
	{ NOTE_REST, 2250 }, 
	{ NOTE_REST, 1500 }, 
	{ NOTE_REST, 1500 }, 
	{ NOTE_REST, 1500 }, 
	{ NOTE_REST, 1500 }, 
	{ NOTE_REST, 1500 }, 
	{ NOTE_REST, 1500 }, 
	{ NOTE_REST, 1500 }, 
	{ NOTE_REST, 1500 }, 
	{ NOTE_REST, 1500 }, 
	{ NOTE_REST, 1500 }, 
	{ NOTE_REST, 1500 }, 
	{ NOTE_REST, 1500 }, 
	{ NOTE_REST, 1500 }, 
	{ NOTE_REST, 1500 }, 
	{ NOTE_REST, 1500 }, 
	{ NOTE_REST, 1500 }, 
	{ NOTE_REST, 1500 }, 
	{ NOTE_REST, 1500 }, 
	{ NOTE_REST, 1500 }, 
	{ NOTE_REST, 1500 }, 
	{ NOTE_REST, 1500 }, 
	{ NOTE_REST, 1500 }, 
	{ NOTE_REST, 1500 }, 
	{ NOTE_REST, 1500 }, 
	{ NOTE_REST, 1500 }, 
	{ NOTE_REST, 1500 }, 
	{ NOTE_REST, 1500 }, 
	{ NOTE_REST, 1500 }, 
	{ NOTE_REST, 1500 }, 
	{ NOTE_REST, 2250 }, 
	{ NOTE_REST, 1500 }, 
	{ NOTE_REST, 1500 }, 
	{ NOTE_REST, 1500 }, 
	{ NOTE_REST, 1500 }, 
	{ NOTE_REST, 1500 }, 
	{ NOTE_REST, 1500 }, 
	{ NOTE_REST, 1500 }, 
	{ NOTE_REST, 1500 }, 
	{ NOTE_REST, 1500 }, 
	{ NOTE_REST, 1500 }, 
	{ NOTE_REST, 2250 }, 
	{ NOTE_REST, 1500 }, 
	{ NOTE_REST, 1500 }, 
	{ NOTE_REST, 1500 }, 
	{ NOTE_REST, 1500 }, 
	{ NOTE_REST, 1500 }, 
	{ NOTE_REST, 1500 }, 
	{ NOTE_REST, 1500 }, 
	{ NOTE_REST, 1500 }, 
	{ NOTE_REST, 1500 }, 
	{ NOTE_REST, 1500 }, 
	{ NOTE_REST, 1500 }, 
	{ NOTE_REST, 1500 }, 
	{ NOTE_REST, 1500 }, 
	{ NOTE_REST, 1500 }, 
	{ NOTE_REST, 1500 }, 
	{ NOTE_REST, 1500 }, 
	{ NOTE_REST, 1500 }, 
	{ NOTE_REST, 1500 }, 
	{ NOTE_REST, 1500 }, 
	{ NOTE_REST, 1500 }, 
	{ NOTE_REST, 1500 }, 
	{ NOTE_REST, 1500 }, 
	{ NOTE_REST, 1500 }, 
	{ NOTE_REST, 1500 }, 
	{ NOTE_REST, 1500 }, 
	{ NOTE_REST, 1500 }, 
	{ NOTE_REST, 1500 }, 
	{ NOTE_REST, 2250 }, 
	{ NOTE_REST, 1500 }, 
	{ NOTE_REST, 1500 }, 
	{ NOTE_REST, 1500 }, 
	{ NOTE_REST, 1500 }, 
	{ NOTE_REST, 1500 }, 
	{ NOTE_REST, 1500 }, 
	{ NOTE_REST, 2250 }, 
	{ NOTE_REST, 1500 }, 
	{ NOTE_REST, 1500 }, 
	{ NOTE_REST, 1500 }, 
	{ NOTE_REST, 1500 }, 
	{ NOTE_REST, 1500 }, 
	{ NOTE_REST, 1500 }, 
	{ NOTE_REST, 1500 }, 
	{ NOTE_REST, 1500 }, 
	{ NOTE_REST, 1500 }, 
	{ NOTE_REST, 1500 }, 
	{ NOTE_REST, 1500 }, 
	{ NOTE_REST, 1500 }, 
	{ NOTE_REST, 1500 }, 
	{ NOTE_REST, 1500 }, 
	{ NOTE_REST, 1500 }, 
	{ NOTE_REST, 1500 }, 
	{ NOTE_REST, 1500 }, 
	{ NOTE_REST, 1500 }, 
	{ NOTE_REST, 1500 }, 
	{ NOTE_REST, 1500 }, 
	{ NOTE_REST, 1500 }, 
	{ NOTE_REST, 1500 }, 
	{ NOTE_REST, 1125 }, 
	{ NOTE_REST, 188 }, 
	{ NOTE_A3, 188 }, 
	{ NOTE_B3, 188 }, 
	{ NOTE_C4, 188 }, 
	{ NOTE_CS4, 188 }, 
	{ NOTE_A3, 185 }, 
	{ NOTE_DS4, 375 }, 
	{ NOTE_CS4, 375 }, 
	{ NOTE_FS4, 188 }, 
	{ NOTE_G4, 188 }, 
	{ NOTE_E4, 125 }, 
	{ NOTE_FS4, 125 }, 
	{ NOTE_E4, 124 }, 
	{ NOTE_CS4, 188 }, 
	{ NOTE_CS4, 188 }, 
	{ NOTE_DS4, 375 }, 
	{ NOTE_CS4, 375 }, 
	{ NOTE_B3, 188 }, 
	{ NOTE_CS4, 186 }, 
	{ NOTE_CS4, 188 }, 
	{ NOTE_G3, 188 }, 
	{ NOTE_A3, 94 }, 
	{ NOTE_G3, 94 }, 
	{ NOTE_E3, 188 }, 
	{ NOTE_FS3, 188 }, 
	{ NOTE_A2, 560 }, 
	{ NOTE_A2, 5625 }, 
	{ NOTE_REST, 188 }, 
	{ NOTE_A3, 188 }, 
	{ NOTE_B3, 188 }, 
	{ NOTE_C4, 188 }, 
	{ NOTE_CS4, 188 }, 
	{ NOTE_A3, 185 }, 
	{ NOTE_DS4, 375 }, 
	{ NOTE_CS4, 375 }, 
	{ NOTE_FS4, 188 }, 
	{ NOTE_G4, 188 }, 
	{ NOTE_E4, 125 }, 
	{ NOTE_FS4, 125 }, 
	{ NOTE_E4, 124 }, 
	{ NOTE_CS4, 188 }, 
	{ NOTE_CS4, 188 }, 
	{ NOTE_DS4, 375 }, 
	{ NOTE_CS4, 375 }, 
	{ NOTE_B3, 188 }, 
	{ NOTE_CS4, 186 }, 
	{ NOTE_CS4, 188 }, 
	{ NOTE_G3, 188 }, 
	{ NOTE_A3, 94 }, 
	{ NOTE_G3, 94 }, 
	{ NOTE_E3, 188 }, 
	{ NOTE_FS3, 188 }, 
	{ NOTE_A2, 560 }, 
	{ NOTE_A2, 10500 }, 
	{ NOTE_REST, 188 }, 
	{ NOTE_A2, 188 }, 
	{ NOTE_E2, 94 }, 
	{ NOTE_FS2, 94 }, 
	{ NOTE_A2, 188 }, 
	{ NOTE_B2, 47 }, 
	{ NOTE_CS3, 141 }, 
	{ NOTE_A2, 188 }, 
	{ NOTE_FS2, 188 }, 
	{ NOTE_E2, 188 }, 
	{ NOTE_A2, 250 }, 
	{ NOTE_B2, 121 }, 
	{ NOTE_CS3, 125 }, 
	{ NOTE_E3, 125 }, 
	{ NOTE_FS3, 125 }, 
	{ NOTE_A3, 125 }, 
	{ NOTE_FS3, 125 }, 
	{ NOTE_A3, 125 }, 
	{ NOTE_B3, 62 }, 
	{ NOTE_CS4, 188 }, 
	{ NOTE_A4, 125 }, 
	{ NOTE_A2, 250 }, 
	{ NOTE_B2, 125 }, 
	{ NOTE_CS3, 125 }, 
	{ NOTE_E3, 125 }, 
	{ NOTE_FS3, 125 }, 
	{ NOTE_A3, 125 }, 
	{ NOTE_FS3, 125 }, 
	{ NOTE_A3, 125 }, 
	{ NOTE_B3, 62 }, 
	{ NOTE_CS4, 188 }, 
	{ NOTE_A4, 125 }, 
	{ NOTE_A2, 250 }, 
	{ NOTE_B2, 125 }, 
	{ NOTE_CS3, 125 }, 
	{ NOTE_E3, 125 }, 
	{ NOTE_FS3, 125 }, 
	{ NOTE_A3, 125 }, 
	{ NOTE_FS3, 125 }, 
	{ NOTE_A3, 125 }, 
	{ NOTE_B3, 47 }, 
	{ NOTE_CS4, 141 }, 
	{ NOTE_A4, 188 }, 
	{ NOTE_C4, 188 }, 
	{ NOTE_D4, 186 }, 
	{ NOTE_C4, 188 }, 
	{ NOTE_B3, 188 }, 
	{ NOTE_A3, 188 }, 
	{ NOTE_FS3, 188 }, 
	{ NOTE_A3, 94 }, 
	{ NOTE_B3, 281 }, 
	{ NOTE_A2, 250 }, 
	{ NOTE_B2, 123 }, 
	{ NOTE_CS3, 125 }, 
	{ NOTE_E3, 125 }, 
	{ NOTE_FS3, 125 }, 
	{ NOTE_A3, 125 }, 
	{ NOTE_FS3, 125 }, 
	{ NOTE_A3, 125 }, 
	{ NOTE_B3, 62 }, 
	{ NOTE_CS4, 188 }, 
	{ NOTE_A4, 125 }, 
	{ NOTE_A2, 250 }, 
	{ NOTE_B2, 125 }, 
	{ NOTE_CS3, 125 }, 
	{ NOTE_E3, 125 }, 
	{ NOTE_FS3, 125 }, 
	{ NOTE_A3, 125 }, 
	{ NOTE_FS3, 125 }, 
	{ NOTE_A3, 125 }, 
	{ NOTE_B3, 62 }, 
	{ NOTE_CS4, 188 }, 
	{ NOTE_A4, 125 }, 
	{ NOTE_A2, 250 }, 
	{ NOTE_B2, 125 }, 
	{ NOTE_CS3, 125 }, 
	{ NOTE_E3, 125 }, 
	{ NOTE_FS3, 125 }, 
	{ NOTE_A3, 125 }, 
	{ NOTE_FS3, 125 }, 
	{ NOTE_A3, 125 }, 
	{ NOTE_B3, 47 }, 
	{ NOTE_CS4, 141 }, 
	{ NOTE_A4, 188 }, 
	{ NOTE_C4, 188 }, 
	{ NOTE_D4, 186 }, 
	{ NOTE_C4, 188 }, 
	{ NOTE_B3, 188 }, 
	{ NOTE_A3, 188 }, 
	{ NOTE_FS3, 188 }, 
	{ NOTE_A3, 47 }, 
	{ NOTE_B3, 141 }, 
	{ NOTE_A3, 375 }, 
	{ NOTE_B3, 47 }, 
	{ NOTE_CS4, 138 }, 
	{ NOTE_E4, 188 }, 
	{ NOTE_FS4, 188 }, 
	{ NOTE_A4, 188 }, 
	{ NOTE_B4, 564 }, 
	{ NOTE_B4, 188 }, 
	{ NOTE_A4, 184 }, 
	{ NOTE_E4, 188 }, 
	{ NOTE_A4, 188 }, 
	{ NOTE_E4, 188 }, 
	{ NOTE_G4, 47 }, 
	{ NOTE_A4, 516 }, 
	{ NOTE_C5, 188 }, 
	{ NOTE_D5, 185 }, 
	{ NOTE_D5, 188 }, 
	{ NOTE_D5, 188 }, 
	{ NOTE_REST, 188 }, 
	{ NOTE_D5, 188 }, 
	{ NOTE_D5, 188 }, 
	{ NOTE_C5, 94 }, 
	{ NOTE_D5, 94 }, 
	{ NOTE_D5, 188 }, 
	{ NOTE_D5, 184 }, 
	{ NOTE_C5, 188 }, 
	{ NOTE_D5, 188 }, 
	{ NOTE_REST, 188 }, 
	{ NOTE_C5, 376 }, 
	{ NOTE_A4, 560 }, 
	{ NOTE_REST, 188 }, 
	{ NOTE_C5, 188 }, 
	{ NOTE_REST, 375 }, 
	{ NOTE_REST, 188 }, 
	{ NOTE_A4, 188 }, 
	{ NOTE_D5, 188 }, 
	{ NOTE_D5, 185 }, 
	{ NOTE_C5, 188 }, 
	{ NOTE_D5, 375 }, 
	{ NOTE_REST, 188 }, 
	{ NOTE_REST, 250 }, 
	{ NOTE_G3, 125 }, 
	{ NOTE_D5, 374 }, 
	{ NOTE_G5, 375 }, 
	{ NOTE_D5, 375 }, 
	{ NOTE_C5, 375 }, 
	{ NOTE_D5, 188 }, 
	{ NOTE_D5, 187 }, 
	{ NOTE_C5, 188 }, 
	{ NOTE_A4, 188 }, 
	{ NOTE_D5, 188 }, 
	{ NOTE_C5, 563 }, 
	{ NOTE_REST, 373 }, 
	{ NOTE_D5, 375 }, 
	{ NOTE_A5, 563 }, 
	{ NOTE_D5, 375 }, 
	{ NOTE_E5, 187 }, 
	{ NOTE_A5, 375 }, 
	{ NOTE_G5, 563 }, 
	{ NOTE_C6, 375 }, 
	{ NOTE_G5, 562 }, 
	{ NOTE_B3, 188 }, 
	{ NOTE_E5, 375 }, 
	{ NOTE_D5, 562 }, 
	{ NOTE_A5, 188 }, 
	{ NOTE_G5, 750 }, 
	{ NOTE_E5, 188 }, 
	{ NOTE_G5, 188 }, 
	{ NOTE_A5, 374 }, 
	{ NOTE_A5, 188 }, 
	{ NOTE_G5, 188 }, 
	{ NOTE_E5, 376 }, 
	{ NOTE_D5, 375 }, 
	{ NOTE_G5, 935 }, 
	{ NOTE_REST, 188 }, 
	{ NOTE_G5, 376 }, 
	{ NOTE_C6, 374 }, 
	{ NOTE_G5, 376 }, 
	{ NOTE_E5, 376 }, 
	{ NOTE_D5, 375 }, 
	{ NOTE_D5, 185 }, 
	{ NOTE_C5, 188 }, 
	{ NOTE_A4, 188 }, 
	{ NOTE_D5, 188 }, 
	{ NOTE_C5, 936 }, 
	{ NOTE_D4, 250 }, 
	{ NOTE_E4, 125 }, 
	{ NOTE_A4, 125 }, 
	{ NOTE_G4, 125 }, 
	{ NOTE_E4, 125 }, 
	{ NOTE_D4, 250 }, 
	{ NOTE_E4, 125 }, 
	{ NOTE_A4, 125 }, 
	{ NOTE_G4, 125 }, 
	{ NOTE_E4, 125 }, 
	{ NOTE_D4, 250 }, 
	{ NOTE_E4, 125 }, 
	{ NOTE_A4, 125 }, 
	{ NOTE_G4, 125 }, 
	{ NOTE_E4, 125 }, 
	{ NOTE_D4, 250 }, 
	{ NOTE_E4, 125 }, 
	{ NOTE_A4, 125 }, 
	{ NOTE_G4, 125 }, 
	{ NOTE_E4, 125 }, 
	{ NOTE_D4, 250 }, 
	{ NOTE_E4, 125 }, 
	{ NOTE_A4, 125 }, 
	{ NOTE_G4, 125 }, 
	{ NOTE_E4, 125 }, 
	{ NOTE_D4, 250 }, 
	{ NOTE_E4, 125 }, 
	{ NOTE_A4, 125 }, 
	{ NOTE_G4, 125 }, 
	{ NOTE_E4, 125 }, 
	{ NOTE_G4, 125 }, 
	{ NOTE_E4, 125 }, 
	{ NOTE_D4, 125 }, 
	{ NOTE_E4, 125 }, 
	{ NOTE_D4, 125 }, 
	{ NOTE_C4, 125 }, 
	{ NOTE_A3, 125 }, 
	{ NOTE_D4, 125 }, 
	{ NOTE_C4, 500 }, 
	{ NOTE_A3, 188 }, 
	{ NOTE_G3, 188 }, 
	{ NOTE_A3, 563 }, 
	{ NOTE_C4, 375 }, 
	{ NOTE_A3, 186 }, 
	{ NOTE_C4, 188 }, 
	{ NOTE_D4, 188 }, 
	{ NOTE_REST, 188 }, 
	{ NOTE_REST, 375 }, 
	{ NOTE_A3, 188 }, 
	{ NOTE_D4, 125 }, 
	{ NOTE_D4, 125 }, 
	{ NOTE_D4, 311 }, 
	{ NOTE_C4, 250 }, 
	{ NOTE_D4, 219 }, 
	{ NOTE_D4, 188 }, 
	{ NOTE_C4, 141 }, 
	{ NOTE_A3, 141 }, 
	{ NOTE_C4, 188 }, 
	{ NOTE_G4, 185 }, 
	{ NOTE_D4, 281 }, 
	{ NOTE_D4, 125 }, 
	{ NOTE_C4, 125 }, 
	{ NOTE_A3, 125 }, 
	{ NOTE_C4, 47 }, 
	{ NOTE_D4, 422 }, 
	{ NOTE_G3, 125 }, 
	{ NOTE_GS3, 125 }, 
	{ NOTE_A3, 125 }, 
	{ NOTE_C4, 375 }, 
	{ NOTE_G3, 125 }, 
	{ NOTE_GS3, 125 }, 
	{ NOTE_A3, 125 }, 
	{ NOTE_C4, 375 }, 
	{ NOTE_G3, 125 }, 
	{ NOTE_GS3, 125 }, 
	{ NOTE_A3, 125 }, 
	{ NOTE_D4, 375 }, 
	{ NOTE_G3, 125 }, 
	{ NOTE_GS3, 125 }, 
	{ NOTE_A3, 125 }, 
	{ NOTE_C4, 375 }, 
	{ NOTE_G3, 125 }, 
	{ NOTE_GS3, 125 }, 
	{ NOTE_A3, 125 }, 
	{ NOTE_D4, 375 }, 
	{ NOTE_G3, 125 }, 
	{ NOTE_GS3, 125 }, 
	{ NOTE_A3, 125 }, 
	{ NOTE_C4, 375 }, 
	{ NOTE_G3, 125 }, 
	{ NOTE_GS3, 125 }, 
	{ NOTE_E3, 125 }, 
	{ NOTE_D3, 188 }, 
	{ NOTE_CS3, 188 }, 
	{ NOTE_C3, 188 }, 
	{ NOTE_CS3, 188 }, 
	{ NOTE_G2, 0 }, 
	{ NOTE_FS2, 375 }, 
	{ NOTE_REST, 250 }, 
	{ NOTE_B2, 123 }, 
	{ NOTE_CS3, 125 }, 
	{ NOTE_E3, 125 }, 
	{ NOTE_FS3, 125 }, 
	{ NOTE_A3, 125 }, 
	{ NOTE_FS3, 125 }, 
	{ NOTE_A3, 125 }, 
	{ NOTE_B3, 62 }, 
	{ NOTE_CS4, 188 }, 
	{ NOTE_A4, 125 }, 
	{ NOTE_A2, 250 }, 
	{ NOTE_B2, 125 }, 
	{ NOTE_CS3, 125 }, 
	{ NOTE_E3, 125 }, 
	{ NOTE_FS3, 125 }, 
	{ NOTE_A3, 125 }, 
	{ NOTE_FS3, 125 }, 
	{ NOTE_A3, 125 }, 
	{ NOTE_B3, 62 }, 
	{ NOTE_CS4, 188 }, 
	{ NOTE_A4, 125 }, 
	{ NOTE_A2, 250 }, 
	{ NOTE_B2, 125 }, 
	{ NOTE_CS3, 125 }, 
	{ NOTE_E3, 125 }, 
	{ NOTE_FS3, 125 }, 
	{ NOTE_A3, 125 }, 
	{ NOTE_FS3, 125 }, 
	{ NOTE_A3, 125 }, 
	{ NOTE_B3, 47 }, 
	{ NOTE_CS4, 141 }, 
	{ NOTE_A4, 188 }, 
	{ NOTE_C3, 47 }, 
	{ NOTE_D3, 141 }, 
	{ NOTE_FS3, 186 }, 
	{ NOTE_D3, 188 }, 
	{ NOTE_C3, 188 }, 
	{ NOTE_CS3, 188 }, 
	{ NOTE_G2, 188 }, 
	{ NOTE_FS2, 375 }, 
	{ NOTE_REST, 250 }, 
	{ NOTE_B2, 123 }, 
	{ NOTE_CS3, 125 }, 
	{ NOTE_E3, 125 }, 
	{ NOTE_FS3, 125 }, 
	{ NOTE_A3, 125 }, 
	{ NOTE_FS3, 125 }, 
	{ NOTE_A3, 125 }, 
	{ NOTE_B3, 47 }, 
	{ NOTE_CS4, 141 }, 
	{ NOTE_E4, 188 }, 
	{ NOTE_A4, 188 }, 
	{ NOTE_G4, 47 }, 
	{ NOTE_A4, 514 }, 
	{ NOTE_C5, 375 }, 
	{ NOTE_E4, 375 }, 
	{ NOTE_D5, 188 }, 
	{ NOTE_REST, 187 }, 
	{ NOTE_D5, 188 }, 
	{ NOTE_REST, 188 }, 
	{ NOTE_D5, 188 }, 
	{ NOTE_REST, 188 }, 
	{ NOTE_D5, 188 }, 
	{ NOTE_REST, 188 }, 
	{ NOTE_D5, 188 }, 
	{ NOTE_D5, 184 }, 
	{ NOTE_C5, 188 }, 
	{ NOTE_D5, 188 }, 
	{ NOTE_D5, 188 }, 
	{ NOTE_C5, 563 }, 
	{ NOTE_A4, 748 }, 
	{ NOTE_C5, 188 }, 
	{ NOTE_REST, 375 }, 
	{ NOTE_A4, 188 }, 
	{ NOTE_C5, 562 }, 
	{ NOTE_A4, 562 }, 
	{ NOTE_REST, 188 }, 
	{ NOTE_A4, 188 }, 
	{ NOTE_C5, 562 }, 
	{ NOTE_A4, 562 }, 
	{ NOTE_A4, 188 }, 
	{ NOTE_A4, 188 }, 
	{ NOTE_G5, 188 }, 
	{ NOTE_D5, 186 }, 
	{ NOTE_REST, 188 }, 
	{ NOTE_D5, 188 }, 
	{ NOTE_C5, 188 }, 
	{ NOTE_A4, 188 }, 
	{ NOTE_C5, 47 }, 
	{ NOTE_D5, 329 }, 
	{ NOTE_C5, 188 }, 
	{ NOTE_A4, 184 }, 
	{ NOTE_C5, 47 }, 
	{ NOTE_D5, 516 }, 
	{ NOTE_C5, 376 }, 
	{ NOTE_G5, 375 }, 
	{ NOTE_D5, 311 }, 
	{ NOTE_C5, 125 }, 
	{ NOTE_A4, 125 }, 
	{ NOTE_D5, 188 }, 
	{ NOTE_C5, 188 }, 
	{ NOTE_A4, 3749 }, 
	{ NOTE_REST, 1500 }, 
};
const uint16_t NUM_OF_NOTES2 = sizeof(melody2)/sizeof(melody2[0]);

const Note melody3[] PROGMEM = {
	{ NOTE_G4, 0 }, 
	{ NOTE_A4, 188 }, 
	{ NOTE_A4, 375 }, 
	{ NOTE_A4, 376 }, 
	{ NOTE_G4, 188 }, 
	{ NOTE_A4, 188 }, 
	{ NOTE_G4, 185 }, 
	{ NOTE_A4, 188 }, 
	{ NOTE_A4, 281 }, 
	{ NOTE_A4, 94 }, 
	{ NOTE_C5, 563 }, 
	{ NOTE_A4, 188 }, 
	{ NOTE_A4, 186 }, 
	{ NOTE_E5, 188 }, 
	{ NOTE_D5, 281 }, 
	{ NOTE_D5, 94 }, 
	{ NOTE_C5, 563 }, 
	{ NOTE_A4, 188 }, 
	{ NOTE_A4, 186 }, 
	{ NOTE_C5, 188 }, 
	{ NOTE_C5, 375 }, 
	{ NOTE_A4, 375 }, 
	{ NOTE_G4, 562 }, 
	{ NOTE_REST, 1500 }, 
	{ NOTE_REST, 1500 }, 
	{ NOTE_REST, 1500 }, 
	{ NOTE_REST, 1500 }, 
	{ NOTE_G4, 0 }, 
	{ NOTE_A4, 188 }, 
	{ NOTE_A4, 375 }, 
	{ NOTE_A4, 375 }, 
	{ NOTE_G4, 188 }, 
	{ NOTE_A4, 188 }, 
	{ NOTE_G4, 186 }, 
	{ NOTE_A4, 188 }, 
	{ NOTE_A4, 281 }, 
	{ NOTE_A4, 94 }, 
	{ NOTE_C5, 562 }, 
	{ NOTE_A4, 375 }, 
	{ NOTE_E5, 188 }, 
	{ NOTE_D5, 281 }, 
	{ NOTE_D5, 94 }, 
	{ NOTE_C5, 562 }, 
	{ NOTE_A4, 375 }, 
	{ NOTE_C5, 188 }, 
	{ NOTE_C5, 375 }, 
	{ NOTE_G4, 375 }, 
	{ NOTE_REST, 562 }, 
	{ NOTE_REST, 750 }, 
	{ NOTE_REST, 1500 }, 
	{ NOTE_REST, 1500 }, 
	{ NOTE_REST, 1500 }, 
	{ NOTE_G4, 0 }, 
	{ NOTE_A4, 188 }, 
	{ NOTE_A4, 375 }, 
	{ NOTE_A4, 375 }, 
	{ NOTE_G4, 188 }, 
	{ NOTE_A4, 188 }, 
	{ NOTE_A4, 186 }, 
	{ NOTE_A4, 188 }, 
	{ NOTE_A4, 281 }, 
	{ NOTE_A4, 94 }, 
	{ NOTE_C5, 562 }, 
	{ NOTE_A4, 188 }, 
	{ NOTE_A4, 187 }, 
	{ NOTE_E5, 188 }, 
	{ NOTE_D5, 281 }, 
	{ NOTE_D5, 94 }, 
	{ NOTE_C5, 562 }, 
	{ NOTE_A4, 188 }, 
	{ NOTE_A4, 187 }, 
	{ NOTE_C5, 188 }, 
	{ NOTE_C5, 281 }, 
	{ NOTE_C5, 94 }, 
	{ NOTE_A4, 375 }, 
	{ NOTE_G4, 562 }, 
	{ NOTE_REST, 750 }, 
	{ NOTE_REST, 1500 }, 
	{ NOTE_REST, 1500 }, 
	{ NOTE_REST, 1500 }, 
	{ NOTE_REST, 1500 }, 
	{ NOTE_REST, 1500 }, 
	{ NOTE_REST, 1500 }, 
	{ NOTE_REST, 1500 }, 
	{ NOTE_REST, 1500 }, 
	{ NOTE_REST, 1500 }, 
	{ NOTE_REST, 1500 }, 
	{ NOTE_REST, 1500 }, 
	{ NOTE_REST, 750 }, 
	{ NOTE_REST, 188 }, 
	{ NOTE_A4, 562 }, 
	{ NOTE_FS4, 188 }, 
	{ NOTE_FS4, 188 }, 
	{ NOTE_REST, 375 }, 
	{ NOTE_REST, 188 }, 
	{ NOTE_A4, 561 }, 
	{ NOTE_FS4, 188 }, 
	{ NOTE_FS4, 188 }, 
	{ NOTE_REST, 375 }, 
	{ NOTE_REST, 188 }, 
	{ NOTE_A4, 749 }, 
	{ NOTE_A4, 750 }, 
	{ NOTE_A4, 562 }, 
	{ NOTE_REST, 750 }, 
	{ NOTE_REST, 188 }, 
	{ NOTE_A4, 562 }, 
	{ NOTE_FS4, 188 }, 
	{ NOTE_FS4, 188 }, 
	{ NOTE_REST, 375 }, 
	{ NOTE_REST, 188 }, 
	{ NOTE_A4, 561 }, 
	{ NOTE_FS4, 188 }, 
	{ NOTE_FS4, 188 }, 
	{ NOTE_REST, 375 }, 
	{ NOTE_REST, 188 }, 
	{ NOTE_A4, 749 }, 
	{ NOTE_A4, 750 }, 
	{ NOTE_A4, 562 }, 
	{ NOTE_E5, 375 }, 
	{ NOTE_D5, 188 }, 
	{ NOTE_D5, 141 }, 
	{ NOTE_D5, 47 }, 
	{ NOTE_C5, 749 }, 
	{ NOTE_A4, 375 }, 
	{ NOTE_A4, 375 }, 
	{ NOTE_C5, 375 }, 
	{ NOTE_A4, 188 }, 
	{ NOTE_A4, 187 }, 
	{ NOTE_E5, 188 }, 
	{ NOTE_D5, 375 }, 
	{ NOTE_C5, 562 }, 
	{ NOTE_FS4, 0 }, 
	{ NOTE_G4, 375 }, 
	{ NOTE_C5, 188 }, 
	{ NOTE_C5, 376 }, 
	{ NOTE_A4, 188 }, 
	{ NOTE_G4, 562 }, 
	{ NOTE_REST, 186 }, 
	{ NOTE_REST, 1500 }, 
	{ NOTE_REST, 1500 }, 
	{ NOTE_REST, 1500 }, 
	{ NOTE_REST, 750 }, 
	{ NOTE_E5, 375 }, 
	{ NOTE_D5, 188 }, 
	{ NOTE_C5, 937 }, 
	{ NOTE_A4, 375 }, 
	{ NOTE_A4, 188 }, 
	{ NOTE_C5, 937 }, 
	{ NOTE_E5, 375 }, 
	{ NOTE_D5, 188 }, 
	{ NOTE_C5, 375 }, 
	{ NOTE_A4, 562 }, 
	{ NOTE_C5, 188 }, 
	{ NOTE_C5, 375 }, 
	{ NOTE_G4, 0 }, 
	{ NOTE_A4, 188 }, 
	{ NOTE_G4, 749 }, 
	{ NOTE_REST, 1500 }, 
	{ NOTE_REST, 1500 }, 
	{ NOTE_REST, 1500 }, 
	{ NOTE_C5, 750 }, 
	{ NOTE_A4, 750 }, 
	{ NOTE_C5, 750 }, 
	{ NOTE_D5, 750 }, 
	{ NOTE_C5, 750 }, 
	{ NOTE_A4, 750 }, 
	{ NOTE_C5, 750 }, 
	{ NOTE_D5, 750 }, 
	{ NOTE_C5, 750 }, 
	{ NOTE_A4, 750 }, 
	{ NOTE_C5, 750 }, 
	{ NOTE_D5, 750 }, 
	{ NOTE_C5, 3000 }, 
	{ NOTE_REST, 750 }, 
	{ NOTE_G4, 0 }, 
	{ NOTE_A4, 375 }, 
	{ NOTE_A4, 375 }, 
	{ NOTE_FS4, 375 }, 
	{ NOTE_REST, 375 }, 
	{ NOTE_G4, 0 }, 
	{ NOTE_A4, 375 }, 
	{ NOTE_A4, 375 }, 
	{ NOTE_FS4, 375 }, 
	{ NOTE_REST, 375 }, 
	{ NOTE_G4, 0 }, 
	{ NOTE_A4, 188 }, 
	{ NOTE_A4, 188 }, 
	{ NOTE_A4, 375 }, 
	{ NOTE_FS4, 375 }, 
	{ NOTE_C5, 0 }, 
	{ NOTE_D5, 188 }, 
	{ NOTE_D5, 186 }, 
	{ NOTE_D5, 188 }, 
	{ NOTE_E5, 188 }, 
	{ NOTE_B4, 0 }, 
	{ NOTE_C5, 188 }, 
	{ NOTE_B4, 188 }, 
	{ NOTE_A4, 188 }, 
	{ NOTE_B4, 188 }, 
	{ NOTE_REST, 372 }, 
	{ NOTE_REST, 1500 }, 
	{ NOTE_REST, 1500 }, 
	{ NOTE_REST, 1500 }, 
	{ NOTE_REST, 1500 }, 
	{ NOTE_G4, 0 }, 
	{ NOTE_A4, 375 }, 
	{ NOTE_A4, 375 }, 
	{ NOTE_FS4, 375 }, 
	{ NOTE_REST, 375 }, 
	{ NOTE_G4, 0 }, 
	{ NOTE_A4, 375 }, 
	{ NOTE_A4, 375 }, 
	{ NOTE_FS4, 375 }, 
	{ NOTE_REST, 375 }, 
	{ NOTE_G4, 0 }, 
	{ NOTE_A4, 188 }, 
	{ NOTE_A4, 188 }, 
	{ NOTE_A4, 375 }, 
	{ NOTE_FS4, 375 }, 
	{ NOTE_C5, 0 }, 
	{ NOTE_D5, 188 }, 
	{ NOTE_D5, 186 }, 
	{ NOTE_D5, 188 }, 
	{ NOTE_E5, 188 }, 
	{ NOTE_B4, 0 }, 
	{ NOTE_C5, 188 }, 
	{ NOTE_B4, 188 }, 
	{ NOTE_A4, 188 }, 
	{ NOTE_B4, 188 }, 
	{ NOTE_REST, 372 }, 
	{ NOTE_REST, 1500 }, 
	{ NOTE_REST, 1500 }, 
	{ NOTE_REST, 1500 }, 
	{ NOTE_REST, 750 }, 
	{ NOTE_REST, 375 }, 
	{ NOTE_REST, 188 }, 
	{ NOTE_G4, 0 }, 
	{ NOTE_A4, 375 }, 
	{ NOTE_E5, 188 }, 
	{ NOTE_D5, 375 }, 
	{ NOTE_D5, 0 }, 
	{ NOTE_C5, 563 }, 
	{ NOTE_G4, 0 }, 
	{ NOTE_A4, 374 }, 
	{ NOTE_A4, 188 }, 
	{ NOTE_A4, 375 }, 
	{ NOTE_C5, 563 }, 
	{ NOTE_G4, 0 }, 
	{ NOTE_A4, 374 }, 
	{ NOTE_E5, 188 }, 
	{ NOTE_D5, 375 }, 
	{ NOTE_D5, 0 }, 
	{ NOTE_C5, 563 }, 
	{ NOTE_G4, 0 }, 
	{ NOTE_A4, 374 }, 
	{ NOTE_C5, 188 }, 
	{ NOTE_C5, 375 }, 
	{ NOTE_G4, 0 }, 
	{ NOTE_A4, 375 }, 
	{ NOTE_G4, 374 }, 
	{ NOTE_REST, 1500 }, 
	{ NOTE_REST, 1500 }, 
	{ NOTE_REST, 1500 }, 
	{ NOTE_REST, 1500 }, 
	{ NOTE_REST, 375 }, 
	{ NOTE_D5, 0 }, 
	{ NOTE_E5, 375 }, 
	{ NOTE_D5, 141 }, 
	{ NOTE_C5, 375 }, 
	{ NOTE_A4, 609 }, 
	{ NOTE_A4, 188 }, 
	{ NOTE_A4, 375 }, 
	{ NOTE_AS4, 0 }, 
	{ NOTE_C5, 375 }, 
	{ NOTE_A4, 187 }, 
	{ NOTE_A4, 188 }, 
	{ NOTE_E5, 188 }, 
	{ NOTE_D5, 375 }, 
	{ NOTE_AS4, 0 }, 
	{ NOTE_C5, 562 }, 
	{ NOTE_A4, 187 }, 
	{ NOTE_A4, 188 }, 
	{ NOTE_C5, 188 }, 
	{ NOTE_C5, 375 }, 
	{ NOTE_G4, 0 }, 
	{ NOTE_A4, 375 }, 
	{ NOTE_G4, 375 }, 
	{ NOTE_REST, 749 }, 
	{ NOTE_REST, 1500 }, 
	{ NOTE_REST, 1500 }, 
	{ NOTE_REST, 1500 }, 
	{ NOTE_B4, 0 }, 
	{ NOTE_C5, 188 }, 
	{ NOTE_C5, 375 }, 
	{ NOTE_C5, 562 }, 
	{ NOTE_A4, 375 }, 
	{ NOTE_G4, 0 }, 
	{ NOTE_A4, 188 }, 
	{ NOTE_A4, 375 }, 
	{ NOTE_A4, 562 }, 
	{ NOTE_G4, 0 }, 
	{ NOTE_A4, 375 }, 
	{ NOTE_E5, 188 }, 
	{ NOTE_D5, 375 }, 
	{ NOTE_C5, 0 }, 
	{ NOTE_D5, 375 }, 
	{ NOTE_C5, 376 }, 
	{ NOTE_G4, 0 }, 
	{ NOTE_A4, 374 }, 
	{ NOTE_C5, 188 }, 
	{ NOTE_C5, 376 }, 
	{ NOTE_A4, 375 }, 
	{ NOTE_G4, 375 }, 
	{ NOTE_REST, 748 }, 
	{ NOTE_REST, 1500 }, 
	{ NOTE_REST, 1500 }, 
	{ NOTE_REST, 1500 }, 
	{ NOTE_REST, 1500 }, 
	{ NOTE_REST, 1500 }, 
	{ NOTE_REST, 1500 }, 
	{ NOTE_REST, 1500 }, 
	{ NOTE_REST, 1500 }, 
	{ NOTE_REST, 1500 }, 
	{ NOTE_REST, 1500 }, 
	{ NOTE_REST, 1500 }, 
	{ NOTE_REST, 750 }, 
	{ NOTE_REST, 188 }, 
	{ NOTE_A4, 562 }, 
	{ NOTE_FS4, 188 }, 
	{ NOTE_FS4, 188 }, 
	{ NOTE_REST, 375 }, 
	{ NOTE_REST, 188 }, 
	{ NOTE_A4, 561 }, 
	{ NOTE_FS4, 188 }, 
	{ NOTE_FS4, 188 }, 
	{ NOTE_REST, 375 }, 
	{ NOTE_REST, 188 }, 
	{ NOTE_A4, 749 }, 
	{ NOTE_A4, 750 }, 
	{ NOTE_A4, 562 }, 
	{ NOTE_REST, 750 }, 
	{ NOTE_REST, 188 }, 
	{ NOTE_A4, 562 }, 
	{ NOTE_FS4, 188 }, 
	{ NOTE_FS4, 188 }, 
	{ NOTE_REST, 375 }, 
	{ NOTE_REST, 188 }, 
	{ NOTE_A4, 561 }, 
	{ NOTE_FS4, 188 }, 
	{ NOTE_FS4, 188 }, 
	{ NOTE_REST, 375 }, 
	{ NOTE_REST, 188 }, 
	{ NOTE_A4, 749 }, 
	{ NOTE_A4, 750 }, 
	{ NOTE_A4, 562 }, 
	{ NOTE_D5, 0 }, 
	{ NOTE_E5, 375 }, 
	{ NOTE_D5, 188 }, 
	{ NOTE_D5, 141 }, 
	{ NOTE_D5, 47 }, 
	{ NOTE_C5, 749 }, 
	{ NOTE_A4, 375 }, 
	{ NOTE_A4, 375 }, 
	{ NOTE_C5, 375 }, 
	{ NOTE_A4, 188 }, 
	{ NOTE_A4, 187 }, 
	{ NOTE_E5, 188 }, 
	{ NOTE_D5, 375 }, 
	{ NOTE_C5, 562 }, 
	{ NOTE_G4, 375 }, 
	{ NOTE_C5, 188 }, 
	{ NOTE_C5, 375 }, 
	{ NOTE_A4, 375 }, 
	{ NOTE_G4, 1312 }, 
	{ NOTE_REST, 1500 }, 
	{ NOTE_REST, 1500 }, 
	{ NOTE_REST, 1500 }, 
	{ NOTE_REST, 375 }, 
	{ NOTE_E5, 375 }, 
	{ NOTE_D5, 188 }, 
	{ NOTE_C5, 188 }, 
	{ NOTE_A4, 374 }, 
	{ NOTE_A4, 188 }, 
	{ NOTE_A4, 188 }, 
	{ NOTE_A4, 375 }, 
	{ NOTE_C5, 563 }, 
	{ NOTE_A4, 186 }, 
	{ NOTE_E5, 94 }, 
	{ NOTE_D5, 94 }, 
	{ NOTE_D5, 94 }, 
	{ NOTE_D5, 281 }, 
	{ NOTE_C5, 375 }, 
	{ NOTE_A4, 188 }, 
	{ NOTE_A4, 188 }, 
	{ NOTE_A4, 186 }, 
	{ NOTE_C5, 188 }, 
	{ NOTE_C5, 375 }, 
	{ NOTE_A4, 1500 }, 
	{ NOTE_REST, 187 }, 
	{ NOTE_REST, 1500 }, 
	{ NOTE_REST, 1500 }, 
	{ NOTE_REST, 1500 }, 
	{ NOTE_C5, 750 }, 
	{ NOTE_A4, 750 }, 
	{ NOTE_C5, 750 }, 
	{ NOTE_D5, 750 }, 
	{ NOTE_C5, 750 }, 
	{ NOTE_A4, 750 }, 
	{ NOTE_C5, 750 }, 
	{ NOTE_D5, 750 }, 
	{ NOTE_C5, 750 }, 
	{ NOTE_A4, 750 }, 
	{ NOTE_C5, 750 }, 
	{ NOTE_D5, 750 }, 
	{ NOTE_C5, 3375 }, 
	{ NOTE_REST, 1500 }, 
	{ NOTE_REST, 1500 }, 
	{ NOTE_REST, 1500 }, 
	{ NOTE_REST, 1500 }, 
	{ NOTE_REST, 1500 }, 
	{ NOTE_REST, 1500 }, 
	{ NOTE_REST, 1500 }, 
	{ NOTE_REST, 1500 }, 
	{ NOTE_REST, 1500 }, 
	{ NOTE_REST, 1500 }, 
	{ NOTE_REST, 1500 }, 
	{ NOTE_REST, 1500 }, 
	{ NOTE_REST, 1500 }, 
	{ NOTE_REST, 1500 }, 
	{ NOTE_REST, 1500 }, 
	{ NOTE_REST, 1500 }, 
	{ NOTE_REST, 1500 }, 
	{ NOTE_REST, 1500 }, 
	{ NOTE_REST, 1500 }, 
	{ NOTE_REST, 1500 }, 
	{ NOTE_REST, 1500 }, 
	{ NOTE_REST, 1500 }, 
	{ NOTE_REST, 1500 }, 
	{ NOTE_REST, 1500 }, 
	{ NOTE_REST, 1500 }, 
	{ NOTE_REST, 1500 }, 
	{ NOTE_REST, 1500 }, 
	{ NOTE_REST, 1500 }, 
	{ NOTE_REST, 1500 }, 
	{ NOTE_REST, 1500 }, 
	{ NOTE_REST, 1500 }, 
	{ NOTE_REST, 1500 }, 
	{ NOTE_REST, 1500 }, 
	{ NOTE_REST, 1500 }, 
	{ NOTE_REST, 1500 }, 
	{ NOTE_REST, 1500 }, 
	{ NOTE_REST, 1500 }, 
	{ NOTE_REST, 1500 }, 
	{ NOTE_REST, 1500 }, 
	{ NOTE_REST, 1500 }, 
	{ NOTE_REST, 1500 }, 
	{ NOTE_REST, 1500 }, 
	{ NOTE_REST, 1500 }, 
	{ NOTE_REST, 1500 }, 
	{ NOTE_REST, 1500 }, 
	{ NOTE_REST, 1500 }, 
	{ NOTE_REST, 1500 }, 
	{ NOTE_REST, 1500 }, 
	{ NOTE_REST, 1500 }, 
	{ NOTE_REST, 1500 }, 
	{ NOTE_REST, 1500 }, 
	{ NOTE_REST, 1500 }, 
	{ NOTE_REST, 1500 }, 
};
const uint16_t NUM_OF_NOTES3 = sizeof(melody3)/sizeof(melody3[0]);

const Note melody4[] PROGMEM = {
	{ NOTE_REST, 1500 }, 
	{ NOTE_REST, 1500 }, 
	{ NOTE_REST, 1500 }, 
	{ NOTE_REST, 1500 }, 
	{ NOTE_REST, 375 }, 
	{ NOTE_REST, 188 }, 
	{ NOTE_E4, 188 }, 
	{ NOTE_G4, 188 }, 
	{ NOTE_GS4, 188 }, 
	{ NOTE_A4, 188 }, 
	{ NOTE_E4, 185 }, 
	{ NOTE_C5, 375 }, 
	{ NOTE_A4, 375 }, 
	{ NOTE_D5, 188 }, 
	{ NOTE_E5, 188 }, 
	{ NOTE_C5, 125 }, 
	{ NOTE_D5, 125 }, 
	{ NOTE_C5, 124 }, 
	{ NOTE_A4, 188 }, 
	{ NOTE_A4, 188 }, 
	{ NOTE_C5, 375 }, 
	{ NOTE_A4, 375 }, 
	{ NOTE_G4, 188 }, 
	{ NOTE_A4, 186 }, 
	{ NOTE_A4, 188 }, 
	{ NOTE_D4, 188 }, 
	{ NOTE_E4, 188 }, 
	{ NOTE_C4, 94 }, 
	{ NOTE_C4, 94 }, 
	{ NOTE_D4, 188 }, 
	{ NOTE_A3, 560 }, 
	{ NOTE_A3, 5625 }, 
	{ NOTE_REST, 188 }, 
	{ NOTE_E4, 188 }, 
	{ NOTE_G4, 188 }, 
	{ NOTE_GS4, 188 }, 
	{ NOTE_A4, 188 }, 
	{ NOTE_E4, 185 }, 
	{ NOTE_C5, 375 }, 
	{ NOTE_A4, 375 }, 
	{ NOTE_D5, 188 }, 
	{ NOTE_E5, 188 }, 
	{ NOTE_C5, 125 }, 
	{ NOTE_D5, 125 }, 
	{ NOTE_C5, 124 }, 
	{ NOTE_A4, 188 }, 
	{ NOTE_A4, 188 }, 
	{ NOTE_C5, 375 }, 
	{ NOTE_A4, 375 }, 
	{ NOTE_G4, 188 }, 
	{ NOTE_A4, 186 }, 
	{ NOTE_A4, 188 }, 
	{ NOTE_D4, 188 }, 
	{ NOTE_E4, 188 }, 
	{ NOTE_C4, 94 }, 
	{ NOTE_C4, 94 }, 
	{ NOTE_D4, 188 }, 
	{ NOTE_A3, 560 }, 
	{ NOTE_A3, 5625 }, 
	{ NOTE_REST, 188 }, 
	{ NOTE_E4, 188 }, 
	{ NOTE_G4, 188 }, 
	{ NOTE_GS4, 188 }, 
	{ NOTE_A4, 188 }, 
	{ NOTE_E4, 185 }, 
	{ NOTE_C5, 375 }, 
	{ NOTE_A4, 375 }, 
	{ NOTE_D5, 188 }, 
	{ NOTE_E5, 188 }, 
	{ NOTE_C5, 125 }, 
	{ NOTE_D5, 125 }, 
	{ NOTE_C5, 124 }, 
	{ NOTE_A4, 188 }, 
	{ NOTE_A4, 188 }, 
	{ NOTE_C5, 375 }, 
	{ NOTE_A4, 375 }, 
	{ NOTE_G4, 188 }, 
	{ NOTE_A4, 186 }, 
	{ NOTE_A4, 188 }, 
	{ NOTE_D4, 188 }, 
	{ NOTE_E4, 188 }, 
	{ NOTE_C4, 94 }, 
	{ NOTE_C4, 94 }, 
	{ NOTE_D4, 188 }, 
	{ NOTE_A3, 560 }, 
	{ NOTE_A3, 563 }, 
	{ NOTE_B3, 188 }, 
	{ NOTE_D4, 188 }, 
	{ NOTE_DS4, 188 }, 
	{ NOTE_E4, 188 }, 
	{ NOTE_B3, 185 }, 
	{ NOTE_G4, 375 }, 
	{ NOTE_E4, 375 }, 
	{ NOTE_B3, 188 }, 
	{ NOTE_D4, 188 }, 
	{ NOTE_DS4, 188 }, 
	{ NOTE_E4, 186 }, 
	{ NOTE_B3, 188 }, 
	{ NOTE_G4, 376 }, 
	{ NOTE_E4, 375 }, 
	{ NOTE_B3, 188 }, 
	{ NOTE_D4, 188 }, 
	{ NOTE_DS4, 185 }, 
	{ NOTE_E4, 188 }, 
	{ NOTE_B3, 188 }, 
	{ NOTE_G4, 375 }, 
	{ NOTE_E4, 375 }, 
	{ NOTE_B3, 188 }, 
	{ NOTE_D4, 186 }, 
	{ NOTE_DS4, 188 }, 
	{ NOTE_E4, 376 }, 
	{ NOTE_E4, 188 }, 
	{ NOTE_G4, 188 }, 
	{ NOTE_GS4, 188 }, 
	{ NOTE_A4, 188 }, 
	{ NOTE_E4, 184 }, 
	{ NOTE_C5, 375 }, 
	{ NOTE_A4, 375 }, 
	{ NOTE_D5, 188 }, 
	{ NOTE_E5, 188 }, 
	{ NOTE_C5, 125 }, 
	{ NOTE_D5, 125 }, 
	{ NOTE_C5, 124 }, 
	{ NOTE_A4, 188 }, 
	{ NOTE_A4, 188 }, 
	{ NOTE_C5, 375 }, 
	{ NOTE_A4, 375 }, 
	{ NOTE_G4, 188 }, 
	{ NOTE_A4, 186 }, 
	{ NOTE_A4, 188 }, 
	{ NOTE_D4, 188 }, 
	{ NOTE_E4, 188 }, 
	{ NOTE_C4, 94 }, 
	{ NOTE_C4, 94 }, 
	{ NOTE_D4, 188 }, 
	{ NOTE_A3, 560 }, 
	{ NOTE_A3, 937 }, 
	{ NOTE_A3, 563 }, 
	{ NOTE_A3, 937 }, 
	{ NOTE_A3, 563 }, 
	{ NOTE_A3, 937 }, 
	{ NOTE_A3, 751 }, 
	{ NOTE_C4, 750 }, 
	{ NOTE_A3, 750 }, 
	{ NOTE_C4, 750 }, 
	{ NOTE_A3, 750 }, 
	{ NOTE_C4, 750 }, 
	{ NOTE_A3, 750 }, 
	{ NOTE_C4, 750 }, 
	{ NOTE_A3, 750 }, 
	{ NOTE_C4, 750 }, 
	{ NOTE_A3, 562 }, 
	{ NOTE_A3, 4500 }, 
	{ NOTE_REST, 375 }, 
	{ NOTE_REST, 188 }, 
	{ NOTE_E4, 188 }, 
	{ NOTE_G4, 188 }, 
	{ NOTE_GS4, 188 }, 
	{ NOTE_A4, 188 }, 
	{ NOTE_E4, 185 }, 
	{ NOTE_C5, 375 }, 
	{ NOTE_A4, 375 }, 
	{ NOTE_D5, 188 }, 
	{ NOTE_E5, 188 }, 
	{ NOTE_C5, 125 }, 
	{ NOTE_D5, 125 }, 
	{ NOTE_C5, 124 }, 
	{ NOTE_A4, 188 }, 
	{ NOTE_A4, 188 }, 
	{ NOTE_C5, 375 }, 
	{ NOTE_A4, 375 }, 
	{ NOTE_G4, 188 }, 
	{ NOTE_A4, 186 }, 
	{ NOTE_A4, 188 }, 
	{ NOTE_D4, 188 }, 
	{ NOTE_E4, 188 }, 
	{ NOTE_C4, 94 }, 
	{ NOTE_C4, 94 }, 
	{ NOTE_D4, 188 }, 
	{ NOTE_A3, 560 }, 
	{ NOTE_A3, 5625 }, 
	{ NOTE_REST, 188 }, 
	{ NOTE_E4, 188 }, 
	{ NOTE_G4, 188 }, 
	{ NOTE_GS4, 188 }, 
	{ NOTE_A4, 188 }, 
	{ NOTE_E4, 185 }, 
	{ NOTE_C5, 375 }, 
	{ NOTE_A4, 375 }, 
	{ NOTE_D5, 188 }, 
	{ NOTE_E5, 188 }, 
	{ NOTE_C5, 125 }, 
	{ NOTE_D5, 125 }, 
	{ NOTE_C5, 124 }, 
	{ NOTE_A4, 188 }, 
	{ NOTE_A4, 188 }, 
	{ NOTE_C5, 375 }, 
	{ NOTE_A4, 375 }, 
	{ NOTE_G4, 188 }, 
	{ NOTE_A4, 186 }, 
	{ NOTE_A4, 188 }, 
	{ NOTE_D4, 188 }, 
	{ NOTE_E4, 188 }, 
	{ NOTE_C4, 94 }, 
	{ NOTE_C4, 94 }, 
	{ NOTE_D4, 188 }, 
	{ NOTE_A3, 560 }, 
	{ NOTE_A3, 6000 }, 
	{ NOTE_REST, 1500 }, 
	{ NOTE_REST, 1500 }, 
	{ NOTE_REST, 1500 }, 
	{ NOTE_REST, 750 }, 
	{ NOTE_REST, 750 }, 
	{ NOTE_REST, 562 }, 
	{ NOTE_A3, 188 }, 
	{ NOTE_G3, 375 }, 
	{ NOTE_A3, 375 }, 
	{ NOTE_G3, 188 }, 
	{ NOTE_FS3, 376 }, 
	{ NOTE_A3, 186 }, 
	{ NOTE_G3, 188 }, 
	{ NOTE_A3, 188 }, 
	{ NOTE_C4, 375 }, 
	{ NOTE_A3, 188 }, 
	{ NOTE_G3, 188 }, 
	{ NOTE_E3, 188 }, 
	{ NOTE_A3, 185 }, 
	{ NOTE_G3, 375 }, 
	{ NOTE_A3, 375 }, 
	{ NOTE_G3, 188 }, 
	{ NOTE_FS3, 188 }, 
	{ NOTE_REST, 188 }, 
	{ NOTE_E4, 748 }, 
	{ NOTE_D4, 750 }, 
	{ NOTE_A3, 188 }, 
	{ NOTE_G3, 375 }, 
	{ NOTE_A3, 375 }, 
	{ NOTE_G3, 188 }, 
	{ NOTE_FS3, 188 }, 
	{ NOTE_REST, 188 }, 
	{ NOTE_A3, 186 }, 
	{ NOTE_G3, 188 }, 
	{ NOTE_A3, 188 }, 
	{ NOTE_C4, 375 }, 
	{ NOTE_A3, 188 }, 
	{ NOTE_G3, 188 }, 
	{ NOTE_E3, 188 }, 
	{ NOTE_A3, 185 }, 
	{ NOTE_G3, 375 }, 
	{ NOTE_A3, 375 }, 
	{ NOTE_G3, 188 }, 
	{ NOTE_FS3, 188 }, 
	{ NOTE_REST, 188 }, 
	{ NOTE_E4, 748 }, 
	{ NOTE_D4, 750 }, 
	{ NOTE_A3, 188 }, 
	{ NOTE_G3, 375 }, 
	{ NOTE_A3, 375 }, 
	{ NOTE_G3, 188 }, 
	{ NOTE_FS3, 188 }, 
	{ NOTE_REST, 188 }, 
	{ NOTE_A3, 186 }, 
	{ NOTE_G3, 188 }, 
	{ NOTE_A3, 188 }, 
	{ NOTE_C4, 375 }, 
	{ NOTE_A3, 188 }, 
	{ NOTE_G3, 188 }, 
	{ NOTE_E3, 188 }, 
	{ NOTE_A3, 185 }, 
	{ NOTE_G3, 375 }, 
	{ NOTE_A3, 375 }, 
	{ NOTE_G3, 188 }, 
	{ NOTE_FS3, 188 }, 
	{ NOTE_REST, 188 }, 
	{ NOTE_E4, 748 }, 
	{ NOTE_D4, 750 }, 
	{ NOTE_A3, 188 }, 
	{ NOTE_G3, 375 }, 
	{ NOTE_A3, 375 }, 
	{ NOTE_G3, 188 }, 
	{ NOTE_FS3, 188 }, 
	{ NOTE_REST, 188 }, 
	{ NOTE_A3, 186 }, 
	{ NOTE_G3, 188 }, 
	{ NOTE_A3, 188 }, 
	{ NOTE_C4, 375 }, 
	{ NOTE_A3, 188 }, 
	{ NOTE_G3, 188 }, 
	{ NOTE_E3, 188 }, 
	{ NOTE_A3, 185 }, 
	{ NOTE_G3, 375 }, 
	{ NOTE_A3, 375 }, 
	{ NOTE_G3, 188 }, 
	{ NOTE_FS3, 188 }, 
	{ NOTE_REST, 188 }, 
	{ NOTE_E4, 748 }, 
	{ NOTE_D4, 750 }, 
	{ NOTE_A3, 4688 }, 
	{ NOTE_REST, 1500 }, 
	{ NOTE_REST, 375 }, 
	{ NOTE_REST, 188 }, 
	{ NOTE_E4, 188 }, 
	{ NOTE_G4, 188 }, 
	{ NOTE_GS4, 188 }, 
	{ NOTE_A4, 188 }, 
	{ NOTE_E4, 185 }, 
	{ NOTE_C5, 375 }, 
	{ NOTE_A4, 375 }, 
	{ NOTE_D5, 188 }, 
	{ NOTE_E5, 188 }, 
	{ NOTE_C5, 125 }, 
	{ NOTE_D5, 125 }, 
	{ NOTE_C5, 124 }, 
	{ NOTE_A4, 188 }, 
	{ NOTE_A4, 188 }, 
	{ NOTE_C5, 375 }, 
	{ NOTE_A4, 375 }, 
	{ NOTE_G4, 188 }, 
	{ NOTE_A4, 186 }, 
	{ NOTE_A4, 188 }, 
	{ NOTE_D4, 188 }, 
	{ NOTE_E4, 188 }, 
	{ NOTE_C4, 94 }, 
	{ NOTE_C4, 94 }, 
	{ NOTE_D4, 188 }, 
	{ NOTE_A3, 560 }, 
	{ NOTE_A3, 5625 }, 
	{ NOTE_REST, 188 }, 
	{ NOTE_E4, 188 }, 
	{ NOTE_G4, 188 }, 
	{ NOTE_GS4, 188 }, 
	{ NOTE_A4, 188 }, 
	{ NOTE_E4, 185 }, 
	{ NOTE_C5, 375 }, 
	{ NOTE_A4, 375 }, 
	{ NOTE_D5, 188 }, 
	{ NOTE_E5, 188 }, 
	{ NOTE_C5, 125 }, 
	{ NOTE_D5, 125 }, 
	{ NOTE_C5, 124 }, 
	{ NOTE_A4, 188 }, 
	{ NOTE_A4, 188 }, 
	{ NOTE_C5, 375 }, 
	{ NOTE_A4, 375 }, 
	{ NOTE_G4, 188 }, 
	{ NOTE_A4, 186 }, 
	{ NOTE_A4, 188 }, 
	{ NOTE_D4, 188 }, 
	{ NOTE_E4, 188 }, 
	{ NOTE_C4, 94 }, 
	{ NOTE_C4, 94 }, 
	{ NOTE_D4, 188 }, 
	{ NOTE_A3, 560 }, 
	{ NOTE_A3, 5625 }, 
	{ NOTE_REST, 188 }, 
	{ NOTE_E4, 188 }, 
	{ NOTE_G4, 188 }, 
	{ NOTE_GS4, 188 }, 
	{ NOTE_A4, 188 }, 
	{ NOTE_E4, 185 }, 
	{ NOTE_C5, 375 }, 
	{ NOTE_A4, 375 }, 
	{ NOTE_D5, 188 }, 
	{ NOTE_E5, 188 }, 
	{ NOTE_C5, 125 }, 
	{ NOTE_D5, 125 }, 
	{ NOTE_C5, 124 }, 
	{ NOTE_A4, 188 }, 
	{ NOTE_A4, 188 }, 
	{ NOTE_C5, 375 }, 
	{ NOTE_A4, 375 }, 
	{ NOTE_G4, 188 }, 
	{ NOTE_A4, 186 }, 
	{ NOTE_A4, 188 }, 
	{ NOTE_D4, 188 }, 
	{ NOTE_E4, 188 }, 
	{ NOTE_C4, 94 }, 
	{ NOTE_C4, 94 }, 
	{ NOTE_D4, 188 }, 
	{ NOTE_A3, 560 }, 
	{ NOTE_A3, 563 }, 
	{ NOTE_B3, 188 }, 
	{ NOTE_D4, 188 }, 
	{ NOTE_DS4, 188 }, 
	{ NOTE_E4, 188 }, 
	{ NOTE_B3, 185 }, 
	{ NOTE_G4, 375 }, 
	{ NOTE_E4, 375 }, 
	{ NOTE_B3, 188 }, 
	{ NOTE_D4, 188 }, 
	{ NOTE_DS4, 188 }, 
	{ NOTE_E4, 186 }, 
	{ NOTE_B3, 188 }, 
	{ NOTE_G4, 376 }, 
	{ NOTE_E4, 375 }, 
	{ NOTE_B3, 188 }, 
	{ NOTE_D4, 188 }, 
	{ NOTE_DS4, 185 }, 
	{ NOTE_E4, 188 }, 
	{ NOTE_B3, 188 }, 
	{ NOTE_G4, 375 }, 
	{ NOTE_E4, 375 }, 
	{ NOTE_B3, 188 }, 
	{ NOTE_D4, 186 }, 
	{ NOTE_DS4, 188 }, 
	{ NOTE_E4, 376 }, 
	{ NOTE_E4, 188 }, 
	{ NOTE_G4, 188 }, 
	{ NOTE_GS4, 188 }, 
	{ NOTE_A4, 188 }, 
	{ NOTE_E4, 184 }, 
	{ NOTE_C5, 375 }, 
	{ NOTE_A4, 375 }, 
	{ NOTE_D5, 188 }, 
	{ NOTE_E5, 188 }, 
	{ NOTE_C5, 125 }, 
	{ NOTE_D5, 125 }, 
	{ NOTE_C5, 124 }, 
	{ NOTE_A4, 188 }, 
	{ NOTE_A4, 188 }, 
	{ NOTE_C5, 375 }, 
	{ NOTE_A4, 375 }, 
	{ NOTE_G4, 188 }, 
	{ NOTE_A4, 186 }, 
	{ NOTE_A4, 188 }, 
	{ NOTE_D4, 188 }, 
	{ NOTE_E4, 188 }, 
	{ NOTE_C4, 188 }, 
	{ NOTE_D4, 188 }, 
	{ NOTE_A3, 560 }, 
	{ NOTE_A3, 937 }, 
	{ NOTE_A3, 563 }, 
	{ NOTE_A3, 937 }, 
	{ NOTE_A3, 563 }, 
	{ NOTE_A3, 937 }, 
	{ NOTE_A3, 751 }, 
	{ NOTE_C4, 750 }, 
	{ NOTE_A3, 750 }, 
	{ NOTE_C4, 750 }, 
	{ NOTE_A3, 750 }, 
	{ NOTE_C4, 750 }, 
	{ NOTE_A3, 750 }, 
	{ NOTE_C4, 750 }, 
	{ NOTE_A3, 750 }, 
	{ NOTE_C4, 750 }, 
	{ NOTE_A3, 562 }, 
	{ NOTE_A3, 5625 }, 
	{ NOTE_REST, 188 }, 
	{ NOTE_E4, 188 }, 
	{ NOTE_G4, 188 }, 
	{ NOTE_GS4, 188 }, 
	{ NOTE_A4, 188 }, 
	{ NOTE_E4, 185 }, 
	{ NOTE_C5, 375 }, 
	{ NOTE_A4, 375 }, 
	{ NOTE_D5, 188 }, 
	{ NOTE_E5, 188 }, 
	{ NOTE_C5, 125 }, 
	{ NOTE_D5, 125 }, 
	{ NOTE_C5, 124 }, 
	{ NOTE_A4, 188 }, 
	{ NOTE_A4, 188 }, 
	{ NOTE_C5, 375 }, 
	{ NOTE_A4, 375 }, 
	{ NOTE_G4, 188 }, 
	{ NOTE_A4, 186 }, 
	{ NOTE_A4, 188 }, 
	{ NOTE_D4, 188 }, 
	{ NOTE_E4, 188 }, 
	{ NOTE_C4, 94 }, 
	{ NOTE_C4, 94 }, 
	{ NOTE_D4, 188 }, 
	{ NOTE_A3, 560 }, 
	{ NOTE_A3, 5625 }, 
	{ NOTE_REST, 188 }, 
	{ NOTE_E4, 188 }, 
	{ NOTE_G4, 188 }, 
	{ NOTE_GS4, 188 }, 
	{ NOTE_A4, 188 }, 
	{ NOTE_E4, 185 }, 
	{ NOTE_C5, 375 }, 
	{ NOTE_A4, 375 }, 
	{ NOTE_D5, 188 }, 
	{ NOTE_E5, 188 }, 
	{ NOTE_C5, 125 }, 
	{ NOTE_D5, 125 }, 
	{ NOTE_C5, 124 }, 
	{ NOTE_A4, 188 }, 
	{ NOTE_A4, 188 }, 
	{ NOTE_C5, 375 }, 
	{ NOTE_A4, 375 }, 
	{ NOTE_G4, 188 }, 
	{ NOTE_A4, 186 }, 
	{ NOTE_A4, 188 }, 
	{ NOTE_D4, 188 }, 
	{ NOTE_E4, 188 }, 
	{ NOTE_C4, 94 }, 
	{ NOTE_C4, 94 }, 
	{ NOTE_D4, 188 }, 
	{ NOTE_A3, 560 }, 
	{ NOTE_A3, 1500 }, 
	{ NOTE_REST, 1500 }, 
	{ NOTE_REST, 1500 }, 
	{ NOTE_REST, 1500 }, 
	{ NOTE_REST, 1500 }, 
	{ NOTE_REST, 1500 }, 
	{ NOTE_REST, 1500 }, 
	{ NOTE_REST, 1125 }, 
	{ NOTE_REST, 562 }, 
	{ NOTE_A3, 188 }, 
	{ NOTE_G3, 375 }, 
	{ NOTE_A3, 375 }, 
	{ NOTE_G3, 188 }, 
	{ NOTE_FS3, 376 }, 
	{ NOTE_A3, 186 }, 
	{ NOTE_G3, 188 }, 
	{ NOTE_A3, 188 }, 
	{ NOTE_C4, 375 }, 
	{ NOTE_A3, 188 }, 
	{ NOTE_G3, 188 }, 
	{ NOTE_E3, 188 }, 
	{ NOTE_A3, 185 }, 
	{ NOTE_G3, 375 }, 
	{ NOTE_A3, 375 }, 
	{ NOTE_G3, 188 }, 
	{ NOTE_FS3, 188 }, 
	{ NOTE_REST, 188 }, 
	{ NOTE_E4, 748 }, 
	{ NOTE_D4, 750 }, 
	{ NOTE_A3, 188 }, 
	{ NOTE_G3, 375 }, 
	{ NOTE_A3, 375 }, 
	{ NOTE_G3, 188 }, 
	{ NOTE_FS3, 376 }, 
	{ NOTE_A3, 186 }, 
	{ NOTE_G3, 188 }, 
	{ NOTE_A3, 188 }, 
	{ NOTE_C4, 375 }, 
	{ NOTE_A3, 188 }, 
	{ NOTE_G3, 188 }, 
	{ NOTE_E3, 188 }, 
	{ NOTE_A3, 185 }, 
	{ NOTE_G3, 375 }, 
	{ NOTE_A3, 375 }, 
	{ NOTE_G3, 188 }, 
	{ NOTE_FS3, 188 }, 
	{ NOTE_REST, 188 }, 
	{ NOTE_E4, 748 }, 
	{ NOTE_D4, 750 }, 
	{ NOTE_A3, 188 }, 
	{ NOTE_G3, 375 }, 
	{ NOTE_A3, 375 }, 
	{ NOTE_G3, 188 }, 
	{ NOTE_FS3, 376 }, 
	{ NOTE_A3, 186 }, 
	{ NOTE_G3, 188 }, 
	{ NOTE_A3, 188 }, 
	{ NOTE_C4, 375 }, 
	{ NOTE_A3, 188 }, 
	{ NOTE_G3, 188 }, 
	{ NOTE_E3, 188 }, 
	{ NOTE_A3, 185 }, 
	{ NOTE_G3, 375 }, 
	{ NOTE_A3, 375 }, 
	{ NOTE_G3, 188 }, 
	{ NOTE_FS3, 188 }, 
	{ NOTE_REST, 188 }, 
	{ NOTE_E4, 748 }, 
	{ NOTE_D4, 750 }, 
	{ NOTE_A3, 188 }, 
	{ NOTE_G3, 375 }, 
	{ NOTE_A3, 375 }, 
	{ NOTE_G3, 188 }, 
	{ NOTE_FS3, 376 }, 
	{ NOTE_A3, 186 }, 
	{ NOTE_G3, 188 }, 
	{ NOTE_A3, 188 }, 
	{ NOTE_C4, 375 }, 
	{ NOTE_A3, 188 }, 
	{ NOTE_G3, 188 }, 
	{ NOTE_E3, 188 }, 
	{ NOTE_A3, 185 }, 
	{ NOTE_G3, 375 }, 
	{ NOTE_A3, 375 }, 
	{ NOTE_G3, 188 }, 
	{ NOTE_FS3, 188 }, 
	{ NOTE_REST, 188 }, 
	{ NOTE_E4, 748 }, 
	{ NOTE_D4, 750 }, 
	{ NOTE_A3, 188 }, 
	{ NOTE_G3, 375 }, 
	{ NOTE_A3, 375 }, 
	{ NOTE_G3, 188 }, 
	{ NOTE_FS3, 376 }, 
	{ NOTE_A3, 186 }, 
	{ NOTE_G3, 188 }, 
	{ NOTE_A3, 188 }, 
	{ NOTE_C4, 375 }, 
	{ NOTE_A3, 188 }, 
	{ NOTE_G3, 188 }, 
	{ NOTE_E3, 188 }, 
	{ NOTE_A3, 185 }, 
	{ NOTE_G3, 375 }, 
	{ NOTE_A3, 375 }, 
	{ NOTE_G3, 188 }, 
	{ NOTE_FS3, 188 }, 
	{ NOTE_REST, 188 }, 
	{ NOTE_E4, 748 }, 
	{ NOTE_D4, 750 }, 
	{ NOTE_A3, 188 }, 
	{ NOTE_G3, 375 }, 
	{ NOTE_A3, 375 }, 
	{ NOTE_G3, 188 }, 
	{ NOTE_FS3, 376 }, 
	{ NOTE_A3, 186 }, 
	{ NOTE_G3, 188 }, 
	{ NOTE_A3, 188 }, 
	{ NOTE_C4, 375 }, 
	{ NOTE_A3, 188 }, 
	{ NOTE_G3, 188 }, 
	{ NOTE_E3, 188 }, 
	{ NOTE_A3, 185 }, 
	{ NOTE_G3, 375 }, 
	{ NOTE_A3, 375 }, 
	{ NOTE_G3, 188 }, 
	{ NOTE_FS3, 188 }, 
	{ NOTE_REST, 188 }, 
	{ NOTE_E4, 748 }, 
	{ NOTE_D4, 750 }, 
	{ NOTE_A3, 188 }, 
	{ NOTE_G3, 375 }, 
	{ NOTE_A3, 375 }, 
	{ NOTE_G3, 188 }, 
	{ NOTE_FS3, 376 }, 
	{ NOTE_A3, 186 }, 
	{ NOTE_G3, 188 }, 
	{ NOTE_A3, 188 }, 
	{ NOTE_C4, 375 }, 
	{ NOTE_A3, 188 }, 
	{ NOTE_G3, 188 }, 
	{ NOTE_E3, 188 }, 
	{ NOTE_A3, 185 }, 
	{ NOTE_G3, 375 }, 
	{ NOTE_A3, 375 }, 
	{ NOTE_G3, 188 }, 
	{ NOTE_FS3, 188 }, 
	{ NOTE_REST, 188 }, 
	{ NOTE_E4, 748 }, 
	{ NOTE_D4, 750 }, 
	{ NOTE_A3, 188 }, 
	{ NOTE_G3, 375 }, 
	{ NOTE_A3, 375 }, 
	{ NOTE_G3, 188 }, 
	{ NOTE_FS3, 376 }, 
	{ NOTE_A3, 186 }, 
	{ NOTE_G3, 188 }, 
	{ NOTE_A3, 188 }, 
	{ NOTE_C4, 375 }, 
	{ NOTE_A3, 188 }, 
	{ NOTE_G3, 188 }, 
	{ NOTE_E3, 188 }, 
	{ NOTE_A3, 185 }, 
	{ NOTE_G3, 375 }, 
	{ NOTE_A3, 375 }, 
	{ NOTE_G3, 188 }, 
	{ NOTE_FS3, 188 }, 
	{ NOTE_REST, 188 }, 
	{ NOTE_E4, 748 }, 
	{ NOTE_D4, 750 }, 
	{ NOTE_A3, 188 }, 
	{ NOTE_G3, 375 }, 
	{ NOTE_A3, 375 }, 
	{ NOTE_G3, 188 }, 
	{ NOTE_FS3, 376 }, 
	{ NOTE_A3, 186 }, 
	{ NOTE_G3, 188 }, 
	{ NOTE_A3, 188 }, 
	{ NOTE_C4, 375 }, 
	{ NOTE_A3, 188 }, 
	{ NOTE_G3, 188 }, 
	{ NOTE_E3, 188 }, 
	{ NOTE_A3, 185 }, 
	{ NOTE_G3, 375 }, 
	{ NOTE_A3, 375 }, 
	{ NOTE_G3, 188 }, 
	{ NOTE_FS3, 188 }, 
	{ NOTE_REST, 188 }, 
	{ NOTE_E4, 748 }, 
	{ NOTE_D4, 750 }, 
	{ NOTE_A3, 188 }, 
	{ NOTE_G3, 375 }, 
	{ NOTE_A3, 375 }, 
	{ NOTE_G3, 188 }, 
	{ NOTE_FS3, 376 }, 
	{ NOTE_A3, 186 }, 
	{ NOTE_G3, 188 }, 
	{ NOTE_A3, 188 }, 
	{ NOTE_C4, 375 }, 
	{ NOTE_A3, 188 }, 
	{ NOTE_G3, 188 }, 
	{ NOTE_E3, 188 }, 
	{ NOTE_A3, 185 }, 
	{ NOTE_G3, 375 }, 
	{ NOTE_A3, 375 }, 
	{ NOTE_G3, 188 }, 
	{ NOTE_FS3, 188 }, 
	{ NOTE_REST, 188 }, 
	{ NOTE_E4, 748 }, 
	{ NOTE_D4, 750 }, 
	{ NOTE_A3, 188 }, 
	{ NOTE_G3, 375 }, 
	{ NOTE_A3, 375 }, 
	{ NOTE_G3, 188 }, 
	{ NOTE_FS3, 376 }, 
	{ NOTE_A3, 186 }, 
	{ NOTE_G3, 188 }, 
	{ NOTE_A3, 188 }, 
	{ NOTE_C4, 375 }, 
	{ NOTE_A3, 188 }, 
	{ NOTE_G3, 188 }, 
	{ NOTE_E3, 188 }, 
	{ NOTE_A3, 185 }, 
	{ NOTE_G3, 375 }, 
	{ NOTE_A3, 375 }, 
	{ NOTE_G3, 188 }, 
	{ NOTE_FS3, 188 }, 
	{ NOTE_REST, 188 }, 
	{ NOTE_E4, 748 }, 
	{ NOTE_D4, 750 }, 
	{ NOTE_A3, 188 }, 
	{ NOTE_G3, 375 }, 
	{ NOTE_A3, 375 }, 
	{ NOTE_G3, 188 }, 
	{ NOTE_FS3, 376 }, 
	{ NOTE_A3, 186 }, 
	{ NOTE_G3, 188 }, 
	{ NOTE_A3, 188 }, 
	{ NOTE_C4, 375 }, 
	{ NOTE_A3, 188 }, 
	{ NOTE_G3, 188 }, 
	{ NOTE_E3, 188 }, 
	{ NOTE_A3, 185 }, 
	{ NOTE_G3, 375 }, 
	{ NOTE_A3, 375 }, 
	{ NOTE_G3, 188 }, 
	{ NOTE_FS3, 188 }, 
	{ NOTE_REST, 188 }, 
	{ NOTE_E4, 748 }, 
	{ NOTE_D4, 750 }, 
	{ NOTE_A3, 188 }, 
	{ NOTE_G3, 375 }, 
	{ NOTE_A3, 375 }, 
	{ NOTE_G3, 188 }, 
	{ NOTE_FS3, 376 }, 
	{ NOTE_A3, 186 }, 
	{ NOTE_G3, 188 }, 
	{ NOTE_A3, 188 }, 
	{ NOTE_C4, 375 }, 
	{ NOTE_A3, 188 }, 
	{ NOTE_G3, 188 }, 
	{ NOTE_E3, 188 }, 
	{ NOTE_A3, 185 }, 
	{ NOTE_G3, 375 }, 
	{ NOTE_A3, 375 }, 
	{ NOTE_G3, 188 }, 
	{ NOTE_FS3, 188 }, 
	{ NOTE_REST, 188 }, 
	{ NOTE_E4, 748 }, 
	{ NOTE_D4, 750 }, 
	{ NOTE_A3, 188 }, 
	{ NOTE_REST, 1500 }, 
};
const uint16_t NUM_OF_NOTES4 = sizeof(melody4)/sizeof(melody4[0]);

