/*
 * Song: Enter Sandman by Metallica
 *
 *	Melody 0 | Vocals
 *	Melody 1 | James Guitar
 *	Melody 2 | James Guitar
 *	Melody 3 | Kirk Guitar
 *	Melody 4 | Jason Bass
*/

#include <Arduino.h>
#include "notes.h"

const Note melody0[] PROGMEM = {
	{ NOTE_REST, 480 }, 
	{ NOTE_REST, 1920 }, 
	{ NOTE_REST, 1920 }, 
	{ NOTE_REST, 1920 }, 
	{ NOTE_REST, 1920 }, 
	{ NOTE_REST, 1920 }, 
	{ NOTE_REST, 1920 }, 
	{ NOTE_REST, 1920 }, 
	{ NOTE_REST, 1920 }, 
	{ NOTE_REST, 1920 }, 
	{ NOTE_REST, 1920 }, 
	{ NOTE_REST, 1920 }, 
	{ NOTE_REST, 1920 }, 
	{ NOTE_REST, 1920 }, 
	{ NOTE_REST, 1920 }, 
	{ NOTE_REST, 1920 }, 
	{ NOTE_REST, 1920 }, 
	{ NOTE_REST, 1920 }, 
	{ NOTE_REST, 1920 }, 
	{ NOTE_REST, 1920 }, 
	{ NOTE_REST, 1920 }, 
	{ NOTE_REST, 1920 }, 
	{ NOTE_REST, 1920 }, 
	{ NOTE_REST, 1920 }, 
	{ NOTE_REST, 1920 }, 
	{ NOTE_REST, 1920 }, 
	{ NOTE_REST, 1920 }, 
	{ NOTE_REST, 1920 }, 
	{ NOTE_REST, 1920 }, 
	{ NOTE_REST, 1920 }, 
	{ NOTE_REST, 1920 }, 
	{ NOTE_REST, 1920 }, 
	{ NOTE_REST, 1920 }, 
	{ NOTE_REST, 1920 }, 
	{ NOTE_REST, 1920 }, 
	{ NOTE_REST, 1920 }, 
	{ NOTE_REST, 1920 }, 
	{ NOTE_REST, 480 }, 
	{ NOTE_G4, 240 }, 
	{ NOTE_G4, 240 }, 
	{ NOTE_G4, 480 }, 
	{ NOTE_D4, 240 }, 
	{ NOTE_E4, 240 }, 
	{ NOTE_E4, 480 }, 
	{ NOTE_E4, 240 }, 
	{ NOTE_E4, 240 }, 
	{ NOTE_E4, 240 }, 
	{ NOTE_D4, 480 }, 
	{ NOTE_E4, 480 }, 
	{ NOTE_REST, 240 }, 
	{ NOTE_E4, 240 }, 
	{ NOTE_E4, 240 }, 
	{ NOTE_E4, 240 }, 
	{ NOTE_B3, 240 }, 
	{ NOTE_D4, 240 }, 
	{ NOTE_E4, 240 }, 
	{ NOTE_D4, 240 }, 
	{ NOTE_E4, 720 }, 
	{ NOTE_REST, 240 }, 
	{ NOTE_REST, 720 }, 
	{ NOTE_REST, 240 }, 
	{ NOTE_E4, 240 }, 
	{ NOTE_G4, 240 }, 
	{ NOTE_G4, 240 }, 
	{ NOTE_G4, 480 }, 
	{ NOTE_D4, 240 }, 
	{ NOTE_E4, 240 }, 
	{ NOTE_E4, 480 }, 
	{ NOTE_E4, 240 }, 
	{ NOTE_E4, 240 }, 
	{ NOTE_E4, 240 }, 
	{ NOTE_D4, 480 }, 
	{ NOTE_E4, 480 }, 
	{ NOTE_REST, 240 }, 
	{ NOTE_E4, 240 }, 
	{ NOTE_E4, 240 }, 
	{ NOTE_E4, 240 }, 
	{ NOTE_B3, 240 }, 
	{ NOTE_D4, 240 }, 
	{ NOTE_E4, 240 }, 
	{ NOTE_D4, 240 }, 
	{ NOTE_E4, 720 }, 
	{ NOTE_E4, 240 }, 
	{ NOTE_REST, 720 }, 
	{ NOTE_REST, 960 }, 
	{ NOTE_FS4, 240 }, 
	{ NOTE_FS4, 480 }, 
	{ NOTE_FS4, 480 }, 
	{ NOTE_FS4, 480 }, 
	{ NOTE_A4, 480 }, 
	{ NOTE_FS4, 480 }, 
	{ NOTE_REST, 240 }, 
	{ NOTE_REST, 960 }, 
	{ NOTE_A4, 240 }, 
	{ NOTE_GS4, 240 }, 
	{ NOTE_FS4, 240 }, 
	{ NOTE_A4, 480 }, 
	{ NOTE_FS4, 480 }, 
	{ NOTE_FS4, 720 }, 
	{ NOTE_REST, 480 }, 
	{ NOTE_FS4, 960 }, 
	{ NOTE_E4, 720 }, 
	{ NOTE_FS4, 1200 }, 
	{ NOTE_REST, 960 }, 
	{ NOTE_FS4, 720 }, 
	{ NOTE_E4, 240 }, 
	{ NOTE_E4, 720 }, 
	{ NOTE_GS4, 1200 }, 
	{ NOTE_REST, 960 }, 
	{ NOTE_FS4, 720 }, 
	{ NOTE_E4, 480 }, 
	{ NOTE_E4, 480 }, 
	{ NOTE_E4, 1200 }, 
	{ NOTE_REST, 480 }, 
	{ NOTE_REST, 360 }, 
	{ NOTE_D4, 120 }, 
	{ NOTE_E4, 240 }, 
	{ NOTE_E4, 240 }, 
	{ NOTE_E4, 240 }, 
	{ NOTE_B3, 240 }, 
	{ NOTE_D4, 240 }, 
	{ NOTE_E4, 240 }, 
	{ NOTE_E4, 960 }, 
	{ NOTE_REST, 1440 }, 
	{ NOTE_REST, 1920 }, 
	{ NOTE_REST, 1920 }, 
	{ NOTE_REST, 1920 }, 
	{ NOTE_REST, 1920 }, 
	{ NOTE_REST, 1920 }, 
	{ NOTE_REST, 1920 }, 
	{ NOTE_REST, 1920 }, 
	{ NOTE_REST, 480 }, 
	{ NOTE_G4, 240 }, 
	{ NOTE_G4, 240 }, 
	{ NOTE_G4, 480 }, 
	{ NOTE_D4, 240 }, 
	{ NOTE_E4, 240 }, 
	{ NOTE_E4, 480 }, 
	{ NOTE_E4, 240 }, 
	{ NOTE_E4, 240 }, 
	{ NOTE_E4, 240 }, 
	{ NOTE_D4, 480 }, 
	{ NOTE_E4, 480 }, 
	{ NOTE_REST, 240 }, 
	{ NOTE_E4, 240 }, 
	{ NOTE_E4, 240 }, 
	{ NOTE_E4, 240 }, 
	{ NOTE_B3, 240 }, 
	{ NOTE_D4, 240 }, 
	{ NOTE_E4, 240 }, 
	{ NOTE_D4, 240 }, 
	{ NOTE_E4, 720 }, 
	{ NOTE_REST, 240 }, 
	{ NOTE_REST, 720 }, 
	{ NOTE_REST, 240 }, 
	{ NOTE_E4, 240 }, 
	{ NOTE_G4, 240 }, 
	{ NOTE_G4, 240 }, 
	{ NOTE_G4, 480 }, 
	{ NOTE_D4, 240 }, 
	{ NOTE_E4, 240 }, 
	{ NOTE_E4, 480 }, 
	{ NOTE_E4, 240 }, 
	{ NOTE_E4, 240 }, 
	{ NOTE_E4, 240 }, 
	{ NOTE_D4, 480 }, 
	{ NOTE_E4, 480 }, 
	{ NOTE_REST, 240 }, 
	{ NOTE_E4, 240 }, 
	{ NOTE_E4, 240 }, 
	{ NOTE_E4, 240 }, 
	{ NOTE_B3, 240 }, 
	{ NOTE_D4, 240 }, 
	{ NOTE_E4, 240 }, 
	{ NOTE_D4, 240 }, 
	{ NOTE_E4, 720 }, 
	{ NOTE_E4, 240 }, 
	{ NOTE_REST, 720 }, 
	{ NOTE_REST, 960 }, 
	{ NOTE_FS4, 240 }, 
	{ NOTE_FS4, 480 }, 
	{ NOTE_FS4, 480 }, 
	{ NOTE_FS4, 480 }, 
	{ NOTE_A4, 480 }, 
	{ NOTE_FS4, 480 }, 
	{ NOTE_REST, 240 }, 
	{ NOTE_REST, 960 }, 
	{ NOTE_A4, 240 }, 
	{ NOTE_GS4, 240 }, 
	{ NOTE_FS4, 240 }, 
	{ NOTE_A4, 480 }, 
	{ NOTE_FS4, 480 }, 
	{ NOTE_FS4, 720 }, 
	{ NOTE_REST, 480 }, 
	{ NOTE_FS4, 960 }, 
	{ NOTE_E4, 720 }, 
	{ NOTE_FS4, 1200 }, 
	{ NOTE_REST, 960 }, 
	{ NOTE_FS4, 720 }, 
	{ NOTE_E4, 240 }, 
	{ NOTE_E4, 720 }, 
	{ NOTE_GS4, 1200 }, 
	{ NOTE_REST, 960 }, 
	{ NOTE_FS4, 720 }, 
	{ NOTE_E4, 480 }, 
	{ NOTE_E4, 480 }, 
	{ NOTE_E4, 1200 }, 
	{ NOTE_REST, 480 }, 
	{ NOTE_REST, 360 }, 
	{ NOTE_D4, 120 }, 
	{ NOTE_E4, 240 }, 
	{ NOTE_E4, 240 }, 
	{ NOTE_E4, 240 }, 
	{ NOTE_B3, 240 }, 
	{ NOTE_D4, 240 }, 
	{ NOTE_E4, 240 }, 
	{ NOTE_E4, 960 }, 
	{ NOTE_REST, 480 }, 
	{ NOTE_REST, 960 }, 
	{ NOTE_REST, 1920 }, 
	{ NOTE_REST, 1920 }, 
	{ NOTE_REST, 1920 }, 
	{ NOTE_REST, 1920 }, 
	{ NOTE_REST, 1920 }, 
	{ NOTE_REST, 1920 }, 
	{ NOTE_REST, 1920 }, 
	{ NOTE_REST, 1920 }, 
	{ NOTE_REST, 1920 }, 
	{ NOTE_REST, 1920 }, 
	{ NOTE_REST, 1920 }, 
	{ NOTE_REST, 1920 }, 
	{ NOTE_REST, 1920 }, 
	{ NOTE_REST, 1920 }, 
	{ NOTE_REST, 1920 }, 
	{ NOTE_REST, 1920 }, 
	{ NOTE_REST, 1920 }, 
	{ NOTE_REST, 1920 }, 
	{ NOTE_REST, 1920 }, 
	{ NOTE_REST, 1920 }, 
	{ NOTE_REST, 1920 }, 
	{ NOTE_REST, 1920 }, 
	{ NOTE_REST, 1920 }, 
	{ NOTE_REST, 1920 }, 
	{ NOTE_REST, 1920 }, 
	{ NOTE_REST, 1920 }, 
	{ NOTE_REST, 1920 }, 
	{ NOTE_REST, 1920 }, 
	{ NOTE_REST, 1920 }, 
	{ NOTE_REST, 1920 }, 
	{ NOTE_REST, 1920 }, 
	{ NOTE_FS2, 480 }, 
	{ NOTE_FS2, 240 }, 
	{ NOTE_FS2, 240 }, 
	{ NOTE_FS2, 240 }, 
	{ NOTE_FS2, 480 }, 
	{ NOTE_E2, 480 }, 
	{ NOTE_FS2, 240 }, 
	{ NOTE_FS2, 240 }, 
	{ NOTE_FS2, 720 }, 
	{ NOTE_REST, 480 }, 
	{ NOTE_REST, 240 }, 
	{ NOTE_FS2, 240 }, 
	{ NOTE_FS2, 240 }, 
	{ NOTE_FS2, 240 }, 
	{ NOTE_FS2, 240 }, 
	{ NOTE_FS2, 480 }, 
	{ NOTE_E2, 240 }, 
	{ NOTE_FS2, 240 }, 
	{ NOTE_FS2, 720 }, 
	{ NOTE_REST, 960 }, 
	{ NOTE_FS2, 480 }, 
	{ NOTE_FS2, 240 }, 
	{ NOTE_FS2, 240 }, 
	{ NOTE_FS2, 480 }, 
	{ NOTE_FS2, 240 }, 
	{ NOTE_E2, 480 }, 
	{ NOTE_FS2, 480 }, 
	{ NOTE_FS2, 720 }, 
	{ NOTE_REST, 480 }, 
	{ NOTE_REST, 480 }, 
	{ NOTE_FS2, 240 }, 
	{ NOTE_FS2, 240 }, 
	{ NOTE_FS2, 240 }, 
	{ NOTE_FS2, 480 }, 
	{ NOTE_FS2, 480 }, 
	{ NOTE_GS2, 480 }, 
	{ NOTE_A2, 1200 }, 
	{ NOTE_FS4, 960 }, 
	{ NOTE_E4, 720 }, 
	{ NOTE_FS4, 1200 }, 
	{ NOTE_REST, 960 }, 
	{ NOTE_FS4, 720 }, 
	{ NOTE_E4, 240 }, 
	{ NOTE_E4, 720 }, 
	{ NOTE_GS4, 1440 }, 
	{ NOTE_REST, 240 }, 
	{ NOTE_REST, 480 }, 
	{ NOTE_CS4, 1200 }, 
	{ NOTE_B3, 480 }, 
	{ NOTE_B3, 1680 }, 
	{ NOTE_REST, 480 }, 
	{ NOTE_FS4, 960 }, 
	{ NOTE_E4, 720 }, 
	{ NOTE_FS4, 1200 }, 
	{ NOTE_REST, 960 }, 
	{ NOTE_FS4, 720 }, 
	{ NOTE_E4, 240 }, 
	{ NOTE_E4, 720 }, 
	{ NOTE_GS4, 1200 }, 
	{ NOTE_REST, 960 }, 
	{ NOTE_FS4, 720 }, 
	{ NOTE_E4, 480 }, 
	{ NOTE_E4, 480 }, 
	{ NOTE_E4, 1200 }, 
	{ NOTE_REST, 480 }, 
	{ NOTE_REST, 360 }, 
	{ NOTE_D4, 120 }, 
	{ NOTE_E4, 240 }, 
	{ NOTE_E4, 240 }, 
	{ NOTE_E4, 240 }, 
	{ NOTE_B3, 240 }, 
	{ NOTE_D4, 240 }, 
	{ NOTE_E4, 240 }, 
	{ NOTE_E4, 960 }, 
	{ NOTE_REST, 480 }, 
	{ NOTE_REST, 960 }, 
	{ NOTE_REST, 1920 }, 
	{ NOTE_REST, 1920 }, 
	{ NOTE_REST, 1920 }, 
	{ NOTE_REST, 1920 }, 
	{ NOTE_REST, 1920 }, 
	{ NOTE_REST, 1920 }, 
	{ NOTE_REST, 1920 }, 
	{ NOTE_REST, 1920 }, 
	{ NOTE_REST, 1920 }, 
	{ NOTE_REST, 1920 }, 
	{ NOTE_REST, 1920 }, 
	{ NOTE_REST, 1920 }, 
	{ NOTE_REST, 1920 }, 
	{ NOTE_REST, 1920 }, 
	{ NOTE_REST, 1920 }, 
	{ NOTE_REST, 1920 }, 
	{ NOTE_REST, 1920 }, 
	{ NOTE_REST, 1920 }, 
	{ NOTE_REST, 1920 }, 
	{ NOTE_REST, 1920 }, 
	{ NOTE_REST, 1920 }, 
	{ NOTE_REST, 1920 }, 
	{ NOTE_REST, 1920 }, 
	{ NOTE_REST, 1920 }, 
	{ NOTE_REST, 1920 }, 
	{ NOTE_REST, 1920 }, 
	{ NOTE_REST, 1920 }, 
	{ NOTE_REST, 1920 }, 
	{ NOTE_REST, 1920 }, 
	{ NOTE_REST, 1920 }, 
	{ NOTE_REST, 1920 }, 
	{ NOTE_REST, 1920 }, 
};
const uint16_t NUM_OF_NOTES0 = sizeof(melody0)/sizeof(melody0[0]);

const Note melody1[] PROGMEM = {
	{ NOTE_REST, 240 }, 
	{ NOTE_E3, 480 }, 
	{ NOTE_E4, 240 }, 
	{ NOTE_G4, 240 }, 
	{ NOTE_BB3, 240 }, 
	{ NOTE_A3, 480 }, 
	{ NOTE_E4, 240 }, 
	{ NOTE_E3, 480 }, 
	{ NOTE_E4, 240 }, 
	{ NOTE_G4, 240 }, 
	{ NOTE_BB3, 240 }, 
	{ NOTE_A3, 480 }, 
	{ NOTE_E4, 240 }, 
	{ NOTE_E3, 480 }, 
	{ NOTE_E4, 240 }, 
	{ NOTE_G4, 240 }, 
	{ NOTE_BB3, 240 }, 
	{ NOTE_A3, 480 }, 
	{ NOTE_E4, 240 }, 
	{ NOTE_E3, 480 }, 
	{ NOTE_E4, 240 }, 
	{ NOTE_G4, 240 }, 
	{ NOTE_BB3, 240 }, 
	{ NOTE_A3, 480 }, 
	{ NOTE_E4, 240 }, 
	{ NOTE_E3, 480 }, 
	{ NOTE_E4, 240 }, 
	{ NOTE_G4, 240 }, 
	{ NOTE_BB3, 240 }, 
	{ NOTE_A3, 480 }, 
	{ NOTE_E4, 240 }, 
	{ NOTE_E3, 480 }, 
	{ NOTE_E4, 240 }, 
	{ NOTE_G4, 240 }, 
	{ NOTE_BB3, 240 }, 
	{ NOTE_A3, 480 }, 
	{ NOTE_E4, 240 }, 
	{ NOTE_E3, 480 }, 
	{ NOTE_E4, 240 }, 
	{ NOTE_G4, 240 }, 
	{ NOTE_BB3, 240 }, 
	{ NOTE_A3, 480 }, 
	{ NOTE_E4, 240 }, 
	{ NOTE_E3, 480 }, 
	{ NOTE_E4, 240 }, 
	{ NOTE_G4, 240 }, 
	{ NOTE_BB3, 240 }, 
	{ NOTE_A3, 480 }, 
	{ NOTE_E4, 240 }, 
	{ NOTE_E3, 480 }, 
	{ NOTE_E4, 240 }, 
	{ NOTE_G4, 240 }, 
	{ NOTE_BB3, 240 }, 
	{ NOTE_A3, 480 }, 
	{ NOTE_E4, 240 }, 
	{ NOTE_E3, 480 }, 
	{ NOTE_E4, 240 }, 
	{ NOTE_G4, 240 }, 
	{ NOTE_BB3, 240 }, 
	{ NOTE_A3, 480 }, 
	{ NOTE_E4, 240 }, 
	{ NOTE_E3, 480 }, 
	{ NOTE_E4, 240 }, 
	{ NOTE_G4, 240 }, 
	{ NOTE_BB3, 240 }, 
	{ NOTE_A3, 480 }, 
	{ NOTE_E4, 240 }, 
	{ NOTE_E3, 480 }, 
	{ NOTE_E4, 240 }, 
	{ NOTE_G4, 240 }, 
	{ NOTE_BB3, 240 }, 
	{ NOTE_A3, 480 }, 
	{ NOTE_E4, 240 }, 
	{ NOTE_E3, 480 }, 
	{ NOTE_E3, 240 }, 
	{ NOTE_E3, 240 }, 
	{ NOTE_E3, 240 }, 
	{ NOTE_E3, 240 }, 
	{ NOTE_E3, 240 }, 
	{ NOTE_E3, 240 }, 
	{ NOTE_E4, 240 }, 
	{ NOTE_E3, 240 }, 
	{ NOTE_E3, 240 }, 
	{ NOTE_E3, 240 }, 
	{ NOTE_E3, 240 }, 
	{ NOTE_E3, 240 }, 
	{ NOTE_E3, 240 }, 
	{ NOTE_E3, 240 }, 
	{ NOTE_E4, 240 }, 
	{ NOTE_E3, 240 }, 
	{ NOTE_E3, 240 }, 
	{ NOTE_E3, 240 }, 
	{ NOTE_E3, 240 }, 
	{ NOTE_E3, 240 }, 
	{ NOTE_E3, 240 }, 
	{ NOTE_E3, 240 }, 
	{ NOTE_E4, 240 }, 
	{ NOTE_E3, 240 }, 
	{ NOTE_E3, 240 }, 
	{ NOTE_E3, 240 }, 
	{ NOTE_E3, 240 }, 
	{ NOTE_E3, 240 }, 
	{ NOTE_E3, 240 }, 
	{ NOTE_E3, 240 }, 
	{ NOTE_E4, 240 }, 
	{ NOTE_E3, 240 }, 
	{ NOTE_E3, 240 }, 
	{ NOTE_E4, 240 }, 
	{ NOTE_BB3, 240 }, 
	{ NOTE_E3, 240 }, 
	{ NOTE_E3, 240 }, 
	{ NOTE_E3, 240 }, 
	{ NOTE_F3, 240 }, 
	{ NOTE_E3, 240 }, 
	{ NOTE_E3, 240 }, 
	{ NOTE_E4, 240 }, 
	{ NOTE_BB3, 240 }, 
	{ NOTE_E3, 240 }, 
	{ NOTE_E3, 240 }, 
	{ NOTE_E3, 240 }, 
	{ NOTE_F3, 240 }, 
	{ NOTE_E3, 240 }, 
	{ NOTE_E3, 240 }, 
	{ NOTE_E4, 240 }, 
	{ NOTE_BB3, 240 }, 
	{ NOTE_E3, 240 }, 
	{ NOTE_E3, 240 }, 
	{ NOTE_E3, 240 }, 
	{ NOTE_F3, 240 }, 
	{ NOTE_E3, 240 }, 
	{ NOTE_E3, 240 }, 
	{ NOTE_E4, 240 }, 
	{ NOTE_BB3, 240 }, 
	{ NOTE_E3, 240 }, 
	{ NOTE_E3, 240 }, 
	{ NOTE_E3, 240 }, 
	{ NOTE_F3, 240 }, 
	{ NOTE_E3, 240 }, 
	{ NOTE_E3, 240 }, 
	{ NOTE_E4, 240 }, 
	{ NOTE_BB3, 240 }, 
	{ NOTE_A3, 240 }, 
	{ NOTE_E3, 240 }, 
	{ NOTE_E3, 240 }, 
	{ NOTE_F3, 240 }, 
	{ NOTE_E3, 240 }, 
	{ NOTE_E3, 240 }, 
	{ NOTE_E4, 240 }, 
	{ NOTE_BB3, 240 }, 
	{ NOTE_A3, 240 }, 
	{ NOTE_E3, 240 }, 
	{ NOTE_E3, 240 }, 
	{ NOTE_F3, 240 }, 
	{ NOTE_E3, 240 }, 
	{ NOTE_E3, 240 }, 
	{ NOTE_E4, 240 }, 
	{ NOTE_BB3, 240 }, 
	{ NOTE_A3, 240 }, 
	{ NOTE_E3, 240 }, 
	{ NOTE_E3, 240 }, 
	{ NOTE_F3, 240 }, 
	{ NOTE_E3, 240 }, 
	{ NOTE_E3, 240 }, 
	{ NOTE_E4, 240 }, 
	{ NOTE_BB3, 240 }, 
	{ NOTE_A3, 240 }, 
	{ NOTE_E3, 240 }, 
	{ NOTE_E3, 240 }, 
	{ NOTE_F3, 240 }, 
	{ NOTE_E3, 240 }, 
	{ NOTE_E3, 240 }, 
	{ NOTE_E4, 240 }, 
	{ NOTE_BB3, 240 }, 
	{ NOTE_A3, 240 }, 
	{ NOTE_E3, 240 }, 
	{ NOTE_E3, 240 }, 
	{ NOTE_F3, 240 }, 
	{ NOTE_E3, 240 }, 
	{ NOTE_E3, 240 }, 
	{ NOTE_E4, 240 }, 
	{ NOTE_BB3, 240 }, 
	{ NOTE_A3, 240 }, 
	{ NOTE_E3, 240 }, 
	{ NOTE_E3, 240 }, 
	{ NOTE_F3, 240 }, 
	{ NOTE_E3, 240 }, 
	{ NOTE_E3, 240 }, 
	{ NOTE_E4, 240 }, 
	{ NOTE_BB3, 240 }, 
	{ NOTE_A3, 240 }, 
	{ NOTE_E3, 240 }, 
	{ NOTE_E3, 240 }, 
	{ NOTE_F3, 240 }, 
	{ NOTE_E3, 240 }, 
	{ NOTE_E3, 240 }, 
	{ NOTE_E4, 240 }, 
	{ NOTE_BB3, 240 }, 
	{ NOTE_A3, 240 }, 
	{ NOTE_E3, 240 }, 
	{ NOTE_E3, 240 }, 
	{ NOTE_E3, 480 }, 
	{ NOTE_E3, 240 }, 
	{ NOTE_E4, 240 }, 
	{ NOTE_BB3, 240 }, 
	{ NOTE_A3, 480 }, 
	{ NOTE_E3, 240 }, 
	{ NOTE_E3, 480 }, 
	{ NOTE_E3, 240 }, 
	{ NOTE_E4, 240 }, 
	{ NOTE_BB3, 240 }, 
	{ NOTE_A3, 480 }, 
	{ NOTE_E3, 240 }, 
	{ NOTE_E3, 480 }, 
	{ NOTE_E3, 240 }, 
	{ NOTE_E4, 240 }, 
	{ NOTE_BB3, 240 }, 
	{ NOTE_A3, 480 }, 
	{ NOTE_E3, 240 }, 
	{ NOTE_G3, 480 }, 
	{ NOTE_E3, 240 }, 
	{ NOTE_FS3, 240 }, 
	{ NOTE_E3, 240 }, 
	{ NOTE_FS3, 240 }, 
	{ NOTE_G3, 240 }, 
	{ NOTE_FS3, 240 }, 
	{ NOTE_E3, 480 }, 
	{ NOTE_E3, 240 }, 
	{ NOTE_E4, 240 }, 
	{ NOTE_BB3, 240 }, 
	{ NOTE_A3, 480 }, 
	{ NOTE_E3, 240 }, 
	{ NOTE_E3, 480 }, 
	{ NOTE_E3, 240 }, 
	{ NOTE_E4, 240 }, 
	{ NOTE_BB3, 240 }, 
	{ NOTE_A3, 480 }, 
	{ NOTE_E3, 240 }, 
	{ NOTE_E3, 480 }, 
	{ NOTE_E3, 240 }, 
	{ NOTE_E4, 240 }, 
	{ NOTE_BB3, 240 }, 
	{ NOTE_A3, 480 }, 
	{ NOTE_E3, 240 }, 
	{ NOTE_G3, 480 }, 
	{ NOTE_E3, 240 }, 
	{ NOTE_FS3, 240 }, 
	{ NOTE_E3, 240 }, 
	{ NOTE_FS3, 240 }, 
	{ NOTE_G3, 240 }, 
	{ NOTE_FS3, 240 }, 
	{ NOTE_E3, 480 }, 
	{ NOTE_E3, 240 }, 
	{ NOTE_E3, 240 }, 
	{ NOTE_E3, 240 }, 
	{ NOTE_E3, 240 }, 
	{ NOTE_E3, 240 }, 
	{ NOTE_E3, 240 }, 
	{ NOTE_F3, 240 }, 
	{ NOTE_E3, 240 }, 
	{ NOTE_E3, 240 }, 
	{ NOTE_E3, 240 }, 
	{ NOTE_E3, 240 }, 
	{ NOTE_E3, 240 }, 
	{ NOTE_E3, 240 }, 
	{ NOTE_E3, 240 }, 
	{ NOTE_F3, 240 }, 
	{ NOTE_E3, 240 }, 
	{ NOTE_E3, 240 }, 
	{ NOTE_E3, 240 }, 
	{ NOTE_E3, 240 }, 
	{ NOTE_E3, 240 }, 
	{ NOTE_E3, 240 }, 
	{ NOTE_E3, 240 }, 
	{ NOTE_G3, 480 }, 
	{ NOTE_E3, 240 }, 
	{ NOTE_FS3, 240 }, 
	{ NOTE_E3, 240 }, 
	{ NOTE_FS3, 240 }, 
	{ NOTE_G3, 240 }, 
	{ NOTE_FS3, 240 }, 
	{ NOTE_E3, 480 }, 
	{ NOTE_E3, 240 }, 
	{ NOTE_E3, 240 }, 
	{ NOTE_E3, 240 }, 
	{ NOTE_E3, 240 }, 
	{ NOTE_E3, 240 }, 
	{ NOTE_E3, 240 }, 
	{ NOTE_F3, 240 }, 
	{ NOTE_E3, 240 }, 
	{ NOTE_E3, 240 }, 
	{ NOTE_E3, 240 }, 
	{ NOTE_E3, 240 }, 
	{ NOTE_E3, 240 }, 
	{ NOTE_E3, 240 }, 
	{ NOTE_E3, 240 }, 
	{ NOTE_F3, 240 }, 
	{ NOTE_E3, 240 }, 
	{ NOTE_E3, 240 }, 
	{ NOTE_E3, 240 }, 
	{ NOTE_E3, 240 }, 
	{ NOTE_E3, 240 }, 
	{ NOTE_E3, 240 }, 
	{ NOTE_E3, 240 }, 
	{ NOTE_G3, 480 }, 
	{ NOTE_E3, 240 }, 
	{ NOTE_FS3, 240 }, 
	{ NOTE_E3, 240 }, 
	{ NOTE_FS3, 240 }, 
	{ NOTE_G3, 240 }, 
	{ NOTE_FS3, 240 }, 
	{ NOTE_E3, 480 }, 
	{ NOTE_FS4, 240 }, 
	{ NOTE_A4, 240 }, 
	{ NOTE_C4, 240 }, 
	{ NOTE_B3, 480 }, 
	{ NOTE_FS4, 240 }, 
	{ NOTE_FS3, 480 }, 
	{ NOTE_FS4, 240 }, 
	{ NOTE_A4, 240 }, 
	{ NOTE_C4, 240 }, 
	{ NOTE_B3, 480 }, 
	{ NOTE_FS4, 240 }, 
	{ NOTE_FS3, 480 }, 
	{ NOTE_FS4, 240 }, 
	{ NOTE_A4, 240 }, 
	{ NOTE_C4, 240 }, 
	{ NOTE_B3, 480 }, 
	{ NOTE_FS4, 240 }, 
	{ NOTE_FS3, 480 }, 
	{ NOTE_FS4, 240 }, 
	{ NOTE_A4, 240 }, 
	{ NOTE_C4, 240 }, 
	{ NOTE_B3, 480 }, 
	{ NOTE_FS4, 480 }, 
	{ NOTE_FS3, 480 }, 
	{ NOTE_CS4, 240 }, 
	{ NOTE_C4, 240 }, 
	{ NOTE_B3, 720 }, 
	{ NOTE_FS3, 720 }, 
	{ NOTE_CS4, 240 }, 
	{ NOTE_C4, 240 }, 
	{ NOTE_B3, 720 }, 
	{ NOTE_FS3, 720 }, 
	{ NOTE_CS4, 240 }, 
	{ NOTE_C4, 240 }, 
	{ NOTE_B3, 720 }, 
	{ NOTE_E3, 2160 }, 
	{ NOTE_FS3, 480 }, 
	{ NOTE_CS4, 240 }, 
	{ NOTE_C4, 240 }, 
	{ NOTE_B3, 720 }, 
	{ NOTE_E3, 2160 }, 
	{ NOTE_G3, 240 }, 
	{ NOTE_E3, 240 }, 
	{ NOTE_FS3, 240 }, 
	{ NOTE_E3, 240 }, 
	{ NOTE_FS3, 240 }, 
	{ NOTE_G3, 240 }, 
	{ NOTE_FS3, 240 }, 
	{ NOTE_E3, 480 }, 
	{ NOTE_E3, 240 }, 
	{ NOTE_E4, 240 }, 
	{ NOTE_BB3, 240 }, 
	{ NOTE_A3, 480 }, 
	{ NOTE_E3, 240 }, 
	{ NOTE_E3, 480 }, 
	{ NOTE_E3, 240 }, 
	{ NOTE_E4, 240 }, 
	{ NOTE_BB3, 240 }, 
	{ NOTE_A3, 480 }, 
	{ NOTE_E3, 240 }, 
	{ NOTE_E3, 480 }, 
	{ NOTE_E3, 240 }, 
	{ NOTE_E4, 240 }, 
	{ NOTE_BB3, 240 }, 
	{ NOTE_A3, 480 }, 
	{ NOTE_E3, 240 }, 
	{ NOTE_G3, 480 }, 
	{ NOTE_E3, 240 }, 
	{ NOTE_FS3, 240 }, 
	{ NOTE_E3, 240 }, 
	{ NOTE_FS3, 240 }, 
	{ NOTE_G3, 240 }, 
	{ NOTE_FS3, 240 }, 
	{ NOTE_E3, 480 }, 
	{ NOTE_E3, 240 }, 
	{ NOTE_E4, 240 }, 
	{ NOTE_BB3, 240 }, 
	{ NOTE_A3, 480 }, 
	{ NOTE_E3, 240 }, 
	{ NOTE_E3, 480 }, 
	{ NOTE_E3, 240 }, 
	{ NOTE_E4, 240 }, 
	{ NOTE_BB3, 240 }, 
	{ NOTE_A3, 480 }, 
	{ NOTE_E3, 240 }, 
	{ NOTE_E3, 480 }, 
	{ NOTE_E3, 240 }, 
	{ NOTE_E4, 240 }, 
	{ NOTE_BB3, 240 }, 
	{ NOTE_A3, 480 }, 
	{ NOTE_E3, 240 }, 
	{ NOTE_G3, 480 }, 
	{ NOTE_E3, 240 }, 
	{ NOTE_FS3, 240 }, 
	{ NOTE_E3, 240 }, 
	{ NOTE_FS3, 240 }, 
	{ NOTE_G3, 240 }, 
	{ NOTE_FS3, 240 }, 
	{ NOTE_E3, 480 }, 
	{ NOTE_E3, 240 }, 
	{ NOTE_E3, 240 }, 
	{ NOTE_E3, 240 }, 
	{ NOTE_E3, 240 }, 
	{ NOTE_E3, 240 }, 
	{ NOTE_E3, 240 }, 
	{ NOTE_F3, 240 }, 
	{ NOTE_E3, 240 }, 
	{ NOTE_E3, 240 }, 
	{ NOTE_E3, 240 }, 
	{ NOTE_E3, 240 }, 
	{ NOTE_E3, 240 }, 
	{ NOTE_E3, 240 }, 
	{ NOTE_E3, 240 }, 
	{ NOTE_F3, 240 }, 
	{ NOTE_E3, 240 }, 
	{ NOTE_E3, 240 }, 
	{ NOTE_E3, 240 }, 
	{ NOTE_E3, 240 }, 
	{ NOTE_E3, 240 }, 
	{ NOTE_E3, 240 }, 
	{ NOTE_E3, 240 }, 
	{ NOTE_G3, 480 }, 
	{ NOTE_E3, 240 }, 
	{ NOTE_FS3, 240 }, 
	{ NOTE_E3, 240 }, 
	{ NOTE_FS3, 240 }, 
	{ NOTE_G3, 240 }, 
	{ NOTE_FS3, 240 }, 
	{ NOTE_E3, 480 }, 
	{ NOTE_E3, 240 }, 
	{ NOTE_E3, 240 }, 
	{ NOTE_E3, 240 }, 
	{ NOTE_E3, 240 }, 
	{ NOTE_E3, 240 }, 
	{ NOTE_E3, 240 }, 
	{ NOTE_F3, 240 }, 
	{ NOTE_E3, 240 }, 
	{ NOTE_E3, 240 }, 
	{ NOTE_E3, 240 }, 
	{ NOTE_E3, 240 }, 
	{ NOTE_E3, 240 }, 
	{ NOTE_E3, 240 }, 
	{ NOTE_E3, 240 }, 
	{ NOTE_F3, 240 }, 
	{ NOTE_E3, 240 }, 
	{ NOTE_E3, 240 }, 
	{ NOTE_E3, 240 }, 
	{ NOTE_E3, 240 }, 
	{ NOTE_E3, 240 }, 
	{ NOTE_E3, 240 }, 
	{ NOTE_E3, 240 }, 
	{ NOTE_G3, 480 }, 
	{ NOTE_E3, 240 }, 
	{ NOTE_FS3, 240 }, 
	{ NOTE_E3, 240 }, 
	{ NOTE_FS3, 240 }, 
	{ NOTE_G3, 240 }, 
	{ NOTE_FS3, 240 }, 
	{ NOTE_E3, 480 }, 
	{ NOTE_FS4, 240 }, 
	{ NOTE_A4, 240 }, 
	{ NOTE_C4, 240 }, 
	{ NOTE_B3, 480 }, 
	{ NOTE_FS4, 240 }, 
	{ NOTE_FS3, 480 }, 
	{ NOTE_FS4, 240 }, 
	{ NOTE_A4, 240 }, 
	{ NOTE_C4, 240 }, 
	{ NOTE_B3, 480 }, 
	{ NOTE_FS4, 240 }, 
	{ NOTE_FS3, 480 }, 
	{ NOTE_FS4, 240 }, 
	{ NOTE_A4, 240 }, 
	{ NOTE_C4, 240 }, 
	{ NOTE_B3, 480 }, 
	{ NOTE_FS4, 240 }, 
	{ NOTE_FS3, 480 }, 
	{ NOTE_FS4, 240 }, 
	{ NOTE_A4, 240 }, 
	{ NOTE_C4, 240 }, 
	{ NOTE_B3, 480 }, 
	{ NOTE_FS4, 480 }, 
	{ NOTE_FS3, 480 }, 
	{ NOTE_CS4, 240 }, 
	{ NOTE_C4, 240 }, 
	{ NOTE_B3, 720 }, 
	{ NOTE_FS3, 720 }, 
	{ NOTE_CS4, 240 }, 
	{ NOTE_C4, 240 }, 
	{ NOTE_B3, 720 }, 
	{ NOTE_FS3, 720 }, 
	{ NOTE_CS4, 240 }, 
	{ NOTE_C4, 240 }, 
	{ NOTE_B3, 720 }, 
	{ NOTE_E3, 2160 }, 
	{ NOTE_FS3, 480 }, 
	{ NOTE_CS4, 240 }, 
	{ NOTE_C4, 240 }, 
	{ NOTE_B3, 720 }, 
	{ NOTE_E3, 2160 }, 
	{ NOTE_G3, 240 }, 
	{ NOTE_E3, 240 }, 
	{ NOTE_FS3, 240 }, 
	{ NOTE_E3, 240 }, 
	{ NOTE_FS3, 240 }, 
	{ NOTE_G3, 240 }, 
	{ NOTE_FS3, 240 }, 
	{ NOTE_E3, 1920 }, 
	{ NOTE_E3, 480 }, 
	{ NOTE_E3, 240 }, 
	{ NOTE_E4, 240 }, 
	{ NOTE_BB3, 240 }, 
	{ NOTE_A3, 480 }, 
	{ NOTE_E3, 240 }, 
	{ NOTE_E3, 480 }, 
	{ NOTE_E3, 240 }, 
	{ NOTE_E4, 240 }, 
	{ NOTE_BB3, 240 }, 
	{ NOTE_A3, 480 }, 
	{ NOTE_E3, 240 }, 
	{ NOTE_E3, 480 }, 
	{ NOTE_E3, 240 }, 
	{ NOTE_E4, 240 }, 
	{ NOTE_BB3, 240 }, 
	{ NOTE_A3, 480 }, 
	{ NOTE_E3, 240 }, 
	{ NOTE_G3, 480 }, 
	{ NOTE_E3, 240 }, 
	{ NOTE_FS3, 240 }, 
	{ NOTE_E3, 240 }, 
	{ NOTE_FS3, 240 }, 
	{ NOTE_G3, 240 }, 
	{ NOTE_FS3, 240 }, 
	{ NOTE_E3, 480 }, 
	{ NOTE_E3, 240 }, 
	{ NOTE_E4, 240 }, 
	{ NOTE_BB3, 240 }, 
	{ NOTE_A3, 480 }, 
	{ NOTE_E3, 240 }, 
	{ NOTE_E3, 480 }, 
	{ NOTE_E3, 240 }, 
	{ NOTE_E4, 240 }, 
	{ NOTE_BB3, 240 }, 
	{ NOTE_A3, 480 }, 
	{ NOTE_E3, 240 }, 
	{ NOTE_E3, 480 }, 
	{ NOTE_E3, 240 }, 
	{ NOTE_E4, 240 }, 
	{ NOTE_BB3, 240 }, 
	{ NOTE_A3, 480 }, 
	{ NOTE_E3, 240 }, 
	{ NOTE_G3, 480 }, 
	{ NOTE_E3, 240 }, 
	{ NOTE_FS3, 240 }, 
	{ NOTE_E3, 240 }, 
	{ NOTE_FS3, 240 }, 
	{ NOTE_G3, 240 }, 
	{ NOTE_FS3, 240 }, 
	{ NOTE_E3, 480 }, 
	{ NOTE_FS4, 240 }, 
	{ NOTE_A4, 240 }, 
	{ NOTE_C4, 240 }, 
	{ NOTE_B3, 480 }, 
	{ NOTE_FS4, 240 }, 
	{ NOTE_FS3, 480 }, 
	{ NOTE_FS4, 240 }, 
	{ NOTE_A4, 240 }, 
	{ NOTE_C4, 240 }, 
	{ NOTE_B3, 480 }, 
	{ NOTE_FS4, 240 }, 
	{ NOTE_FS3, 480 }, 
	{ NOTE_FS4, 240 }, 
	{ NOTE_A4, 240 }, 
	{ NOTE_C4, 240 }, 
	{ NOTE_B3, 480 }, 
	{ NOTE_FS4, 240 }, 
	{ NOTE_FS3, 480 }, 
	{ NOTE_FS4, 240 }, 
	{ NOTE_A4, 240 }, 
	{ NOTE_C4, 240 }, 
	{ NOTE_B3, 480 }, 
	{ NOTE_FS4, 480 }, 
	{ NOTE_FS3, 480 }, 
	{ NOTE_CS4, 240 }, 
	{ NOTE_C4, 240 }, 
	{ NOTE_B3, 720 }, 
	{ NOTE_FS3, 720 }, 
	{ NOTE_CS4, 240 }, 
	{ NOTE_C4, 240 }, 
	{ NOTE_B3, 720 }, 
	{ NOTE_FS3, 720 }, 
	{ NOTE_CS4, 240 }, 
	{ NOTE_C4, 240 }, 
	{ NOTE_B3, 720 }, 
	{ NOTE_E3, 2160 }, 
	{ NOTE_FS3, 480 }, 
	{ NOTE_CS4, 240 }, 
	{ NOTE_C4, 240 }, 
	{ NOTE_B3, 720 }, 
	{ NOTE_E3, 2160 }, 
	{ NOTE_E3, 240 }, 
	{ NOTE_REST, 960 }, 
	{ NOTE_REST, 720 }, 
	{ NOTE_REST, 1920 }, 
	{ NOTE_REST, 1920 }, 
	{ NOTE_REST, 1920 }, 
	{ NOTE_REST, 1440 }, 
	{ NOTE_REST, 240 }, 
	{ NOTE_E3, 480 }, 
	{ NOTE_E4, 240 }, 
	{ NOTE_G4, 240 }, 
	{ NOTE_BB3, 240 }, 
	{ NOTE_A3, 480 }, 
	{ NOTE_E4, 240 }, 
	{ NOTE_E3, 480 }, 
	{ NOTE_E4, 240 }, 
	{ NOTE_G4, 240 }, 
	{ NOTE_BB3, 240 }, 
	{ NOTE_A3, 480 }, 
	{ NOTE_E4, 240 }, 
	{ NOTE_E3, 480 }, 
	{ NOTE_E4, 240 }, 
	{ NOTE_G4, 240 }, 
	{ NOTE_BB3, 240 }, 
	{ NOTE_A3, 480 }, 
	{ NOTE_E4, 240 }, 
	{ NOTE_E3, 480 }, 
	{ NOTE_E4, 240 }, 
	{ NOTE_G4, 240 }, 
	{ NOTE_BB3, 240 }, 
	{ NOTE_A3, 480 }, 
	{ NOTE_E4, 240 }, 
	{ NOTE_E3, 480 }, 
	{ NOTE_E4, 240 }, 
	{ NOTE_G4, 240 }, 
	{ NOTE_BB3, 240 }, 
	{ NOTE_A3, 480 }, 
	{ NOTE_E4, 240 }, 
	{ NOTE_E3, 480 }, 
	{ NOTE_E4, 240 }, 
	{ NOTE_G4, 240 }, 
	{ NOTE_BB3, 240 }, 
	{ NOTE_A3, 480 }, 
	{ NOTE_E4, 240 }, 
	{ NOTE_E3, 480 }, 
	{ NOTE_E4, 240 }, 
	{ NOTE_G4, 240 }, 
	{ NOTE_BB3, 240 }, 
	{ NOTE_A3, 480 }, 
	{ NOTE_E4, 240 }, 
	{ NOTE_E3, 480 }, 
	{ NOTE_E4, 240 }, 
	{ NOTE_G4, 240 }, 
	{ NOTE_BB3, 240 }, 
	{ NOTE_A3, 480 }, 
	{ NOTE_E4, 240 }, 
	{ NOTE_FS3, 480 }, 
	{ NOTE_FS4, 240 }, 
	{ NOTE_A4, 240 }, 
	{ NOTE_C4, 240 }, 
	{ NOTE_B3, 480 }, 
	{ NOTE_FS4, 240 }, 
	{ NOTE_FS3, 480 }, 
	{ NOTE_FS4, 240 }, 
	{ NOTE_A4, 240 }, 
	{ NOTE_C4, 240 }, 
	{ NOTE_B3, 480 }, 
	{ NOTE_FS4, 240 }, 
	{ NOTE_FS3, 480 }, 
	{ NOTE_FS4, 240 }, 
	{ NOTE_A4, 240 }, 
	{ NOTE_C4, 240 }, 
	{ NOTE_B3, 480 }, 
	{ NOTE_FS4, 240 }, 
	{ NOTE_FS3, 480 }, 
	{ NOTE_FS4, 240 }, 
	{ NOTE_A4, 240 }, 
	{ NOTE_C4, 240 }, 
	{ NOTE_B3, 480 }, 
	{ NOTE_FS4, 240 }, 
	{ NOTE_FS3, 480 }, 
	{ NOTE_FS4, 240 }, 
	{ NOTE_A4, 240 }, 
	{ NOTE_C4, 240 }, 
	{ NOTE_B3, 480 }, 
	{ NOTE_FS4, 240 }, 
	{ NOTE_FS3, 480 }, 
	{ NOTE_FS4, 240 }, 
	{ NOTE_A4, 240 }, 
	{ NOTE_C4, 240 }, 
	{ NOTE_B3, 480 }, 
	{ NOTE_FS4, 240 }, 
	{ NOTE_FS3, 480 }, 
	{ NOTE_FS4, 240 }, 
	{ NOTE_A4, 240 }, 
	{ NOTE_C4, 240 }, 
	{ NOTE_B3, 480 }, 
	{ NOTE_FS4, 240 }, 
	{ NOTE_FS3, 480 }, 
	{ NOTE_FS4, 240 }, 
	{ NOTE_A4, 240 }, 
	{ NOTE_C4, 240 }, 
	{ NOTE_B3, 480 }, 
	{ NOTE_FS4, 480 }, 
	{ NOTE_FS3, 480 }, 
	{ NOTE_CS4, 240 }, 
	{ NOTE_C4, 240 }, 
	{ NOTE_B3, 720 }, 
	{ NOTE_FS3, 720 }, 
	{ NOTE_CS4, 240 }, 
	{ NOTE_C4, 240 }, 
	{ NOTE_B3, 720 }, 
	{ NOTE_FS3, 720 }, 
	{ NOTE_CS4, 240 }, 
	{ NOTE_C4, 240 }, 
	{ NOTE_B3, 720 }, 
	{ NOTE_E3, 2160 }, 
	{ NOTE_FS3, 480 }, 
	{ NOTE_CS4, 240 }, 
	{ NOTE_C4, 240 }, 
	{ NOTE_B3, 720 }, 
	{ NOTE_E3, 1680 }, 
	{ NOTE_E3, 240 }, 
	{ NOTE_E3, 240 }, 
	{ NOTE_FS3, 480 }, 
	{ NOTE_CS4, 240 }, 
	{ NOTE_C4, 240 }, 
	{ NOTE_B3, 720 }, 
	{ NOTE_FS3, 720 }, 
	{ NOTE_CS4, 240 }, 
	{ NOTE_C4, 240 }, 
	{ NOTE_B3, 720 }, 
	{ NOTE_FS3, 720 }, 
	{ NOTE_CS4, 240 }, 
	{ NOTE_C4, 240 }, 
	{ NOTE_B3, 720 }, 
	{ NOTE_E3, 2160 }, 
	{ NOTE_FS3, 480 }, 
	{ NOTE_CS4, 240 }, 
	{ NOTE_C4, 240 }, 
	{ NOTE_B3, 720 }, 
	{ NOTE_E3, 2160 }, 
	{ NOTE_G3, 240 }, 
	{ NOTE_E3, 240 }, 
	{ NOTE_FS3, 240 }, 
	{ NOTE_E3, 240 }, 
	{ NOTE_FS3, 240 }, 
	{ NOTE_G3, 240 }, 
	{ NOTE_FS3, 240 }, 
	{ NOTE_E3, 1920 }, 
	{ NOTE_E3, 480 }, 
	{ NOTE_E3, 240 }, 
	{ NOTE_E4, 240 }, 
	{ NOTE_BB3, 240 }, 
	{ NOTE_A3, 480 }, 
	{ NOTE_E3, 240 }, 
	{ NOTE_E3, 480 }, 
	{ NOTE_E3, 240 }, 
	{ NOTE_E4, 240 }, 
	{ NOTE_BB3, 240 }, 
	{ NOTE_A3, 480 }, 
	{ NOTE_E3, 240 }, 
	{ NOTE_E3, 480 }, 
	{ NOTE_E3, 240 }, 
	{ NOTE_E4, 240 }, 
	{ NOTE_BB3, 240 }, 
	{ NOTE_A3, 480 }, 
	{ NOTE_E3, 240 }, 
	{ NOTE_E3, 480 }, 
	{ NOTE_E3, 240 }, 
	{ NOTE_E4, 240 }, 
	{ NOTE_BB3, 240 }, 
	{ NOTE_A3, 480 }, 
	{ NOTE_E3, 240 }, 
	{ NOTE_E3, 480 }, 
	{ NOTE_E3, 240 }, 
	{ NOTE_E4, 240 }, 
	{ NOTE_BB3, 240 }, 
	{ NOTE_A3, 480 }, 
	{ NOTE_E3, 240 }, 
	{ NOTE_E3, 480 }, 
	{ NOTE_E3, 240 }, 
	{ NOTE_E4, 240 }, 
	{ NOTE_BB3, 240 }, 
	{ NOTE_A3, 480 }, 
	{ NOTE_E3, 240 }, 
	{ NOTE_E3, 480 }, 
	{ NOTE_E3, 240 }, 
	{ NOTE_E4, 240 }, 
	{ NOTE_BB3, 240 }, 
	{ NOTE_A3, 480 }, 
	{ NOTE_E3, 240 }, 
	{ NOTE_E3, 480 }, 
	{ NOTE_E3, 240 }, 
	{ NOTE_E4, 240 }, 
	{ NOTE_BB3, 240 }, 
	{ NOTE_A3, 480 }, 
	{ NOTE_E3, 240 }, 
	{ NOTE_G3, 480 }, 
	{ NOTE_E3, 240 }, 
	{ NOTE_FS3, 240 }, 
	{ NOTE_E3, 240 }, 
	{ NOTE_FS3, 240 }, 
	{ NOTE_G3, 240 }, 
	{ NOTE_FS3, 240 }, 
	{ NOTE_E3, 480 }, 
	{ NOTE_E4, 240 }, 
	{ NOTE_G4, 240 }, 
	{ NOTE_BB3, 240 }, 
	{ NOTE_A3, 480 }, 
	{ NOTE_E4, 240 }, 
	{ NOTE_E3, 480 }, 
	{ NOTE_E4, 240 }, 
	{ NOTE_G4, 240 }, 
	{ NOTE_BB3, 240 }, 
	{ NOTE_A3, 480 }, 
	{ NOTE_E4, 240 }, 
	{ NOTE_E3, 480 }, 
	{ NOTE_E4, 240 }, 
	{ NOTE_G4, 240 }, 
	{ NOTE_BB3, 240 }, 
	{ NOTE_A3, 480 }, 
	{ NOTE_E4, 240 }, 
	{ NOTE_E3, 480 }, 
	{ NOTE_E4, 240 }, 
	{ NOTE_G4, 240 }, 
	{ NOTE_BB3, 240 }, 
	{ NOTE_A3, 480 }, 
	{ NOTE_E4, 240 }, 
	{ NOTE_E3, 480 }, 
	{ NOTE_E4, 240 }, 
	{ NOTE_G4, 240 }, 
	{ NOTE_BB3, 240 }, 
	{ NOTE_A3, 480 }, 
	{ NOTE_E4, 240 }, 
	{ NOTE_E3, 480 }, 
	{ NOTE_E4, 240 }, 
	{ NOTE_G4, 240 }, 
	{ NOTE_BB3, 240 }, 
	{ NOTE_A3, 480 }, 
	{ NOTE_E4, 240 }, 
	{ NOTE_E3, 480 }, 
	{ NOTE_E4, 240 }, 
	{ NOTE_G4, 240 }, 
	{ NOTE_BB3, 240 }, 
	{ NOTE_A3, 480 }, 
	{ NOTE_E4, 240 }, 
	{ NOTE_E3, 480 }, 
	{ NOTE_E4, 240 }, 
	{ NOTE_G4, 240 }, 
	{ NOTE_BB3, 240 }, 
	{ NOTE_A3, 480 }, 
	{ NOTE_E4, 240 }, 
	{ NOTE_E3, 480 }, 
	{ NOTE_E4, 240 }, 
	{ NOTE_G4, 240 }, 
	{ NOTE_BB3, 240 }, 
	{ NOTE_A3, 480 }, 
	{ NOTE_E4, 240 }, 
	{ NOTE_E3, 480 }, 
	{ NOTE_E4, 240 }, 
	{ NOTE_G4, 240 }, 
	{ NOTE_BB3, 240 }, 
	{ NOTE_A3, 480 }, 
	{ NOTE_E4, 240 }, 
	{ NOTE_E3, 480 }, 
	{ NOTE_E4, 240 }, 
	{ NOTE_G4, 240 }, 
	{ NOTE_BB3, 240 }, 
	{ NOTE_A3, 480 }, 
	{ NOTE_E4, 240 }, 
	{ NOTE_E3, 480 }, 
	{ NOTE_E4, 240 }, 
	{ NOTE_G4, 240 }, 
	{ NOTE_BB3, 240 }, 
	{ NOTE_A3, 480 }, 
	{ NOTE_E4, 240 }, 
	{ NOTE_E3, 480 }, 
	{ NOTE_E4, 240 }, 
	{ NOTE_G4, 240 }, 
	{ NOTE_BB3, 240 }, 
	{ NOTE_A3, 480 }, 
	{ NOTE_E4, 240 }, 
	{ NOTE_E3, 480 }, 
	{ NOTE_E4, 240 }, 
	{ NOTE_G4, 240 }, 
	{ NOTE_BB3, 240 }, 
	{ NOTE_A3, 480 }, 
	{ NOTE_E4, 240 }, 
	{ NOTE_E3, 480 }, 
	{ NOTE_E4, 240 }, 
	{ NOTE_G4, 240 }, 
	{ NOTE_BB3, 240 }, 
	{ NOTE_A3, 480 }, 
	{ NOTE_E4, 240 }, 
	{ NOTE_E3, 480 }, 
	{ NOTE_E4, 240 }, 
	{ NOTE_G4, 240 }, 
	{ NOTE_BB3, 240 }, 
	{ NOTE_A3, 480 }, 
	{ NOTE_E4, 240 }, 
	{ NOTE_E3, 480 }, 
	{ NOTE_E4, 240 }, 
	{ NOTE_G4, 240 }, 
	{ NOTE_BB3, 240 }, 
	{ NOTE_A3, 480 }, 
	{ NOTE_E4, 240 }, 
	{ NOTE_E3, 480 }, 
	{ NOTE_E4, 240 }, 
	{ NOTE_G4, 240 }, 
	{ NOTE_BB3, 240 }, 
	{ NOTE_A3, 480 }, 
	{ NOTE_E4, 240 }, 
	{ NOTE_E3, 480 }, 
	{ NOTE_E4, 240 }, 
	{ NOTE_G4, 240 }, 
	{ NOTE_BB3, 240 }, 
	{ NOTE_A3, 480 }, 
	{ NOTE_E4, 240 }, 
	{ NOTE_E3, 480 }, 
	{ NOTE_E4, 240 }, 
	{ NOTE_G4, 240 }, 
	{ NOTE_BB3, 240 }, 
	{ NOTE_A3, 480 }, 
	{ NOTE_E4, 240 }, 
	{ NOTE_E3, 480 }, 
	{ NOTE_E4, 240 }, 
	{ NOTE_G4, 240 }, 
	{ NOTE_BB3, 240 }, 
	{ NOTE_A3, 480 }, 
	{ NOTE_E4, 240 }, 
	{ NOTE_E3, 480 }, 
	{ NOTE_E4, 240 }, 
	{ NOTE_G4, 240 }, 
	{ NOTE_BB3, 240 }, 
	{ NOTE_A3, 480 }, 
	{ NOTE_E4, 240 }, 
	{ NOTE_E3, 2160 }, 
};
const uint16_t NUM_OF_NOTES1 = sizeof(melody1)/sizeof(melody1[0]);

const Note melody2[] PROGMEM = {
	{ NOTE_REST, 240 }, 
	{ NOTE_E3, 480 }, 
	{ NOTE_E4, 240 }, 
	{ NOTE_G4, 240 }, 
	{ NOTE_BB3, 240 }, 
	{ NOTE_A3, 480 }, 
	{ NOTE_E4, 240 }, 
	{ NOTE_E3, 480 }, 
	{ NOTE_E4, 240 }, 
	{ NOTE_G4, 240 }, 
	{ NOTE_BB3, 240 }, 
	{ NOTE_A3, 480 }, 
	{ NOTE_E4, 240 }, 
	{ NOTE_E3, 480 }, 
	{ NOTE_E4, 240 }, 
	{ NOTE_G4, 240 }, 
	{ NOTE_BB3, 240 }, 
	{ NOTE_A3, 480 }, 
	{ NOTE_E4, 240 }, 
	{ NOTE_E3, 480 }, 
	{ NOTE_E4, 240 }, 
	{ NOTE_G4, 240 }, 
	{ NOTE_BB3, 240 }, 
	{ NOTE_A3, 480 }, 
	{ NOTE_E4, 240 }, 
	{ NOTE_E3, 480 }, 
	{ NOTE_E4, 240 }, 
	{ NOTE_G4, 240 }, 
	{ NOTE_BB3, 240 }, 
	{ NOTE_A3, 480 }, 
	{ NOTE_E4, 240 }, 
	{ NOTE_E3, 480 }, 
	{ NOTE_E4, 240 }, 
	{ NOTE_G4, 240 }, 
	{ NOTE_BB3, 240 }, 
	{ NOTE_A3, 480 }, 
	{ NOTE_E4, 240 }, 
	{ NOTE_E3, 480 }, 
	{ NOTE_E4, 240 }, 
	{ NOTE_G4, 240 }, 
	{ NOTE_BB3, 240 }, 
	{ NOTE_A3, 480 }, 
	{ NOTE_E4, 240 }, 
	{ NOTE_E3, 480 }, 
	{ NOTE_E4, 240 }, 
	{ NOTE_G4, 240 }, 
	{ NOTE_BB3, 240 }, 
	{ NOTE_A3, 480 }, 
	{ NOTE_E4, 240 }, 
	{ NOTE_E3, 480 }, 
	{ NOTE_E4, 240 }, 
	{ NOTE_G4, 240 }, 
	{ NOTE_BB3, 240 }, 
	{ NOTE_A3, 480 }, 
	{ NOTE_E4, 240 }, 
	{ NOTE_E3, 480 }, 
	{ NOTE_E4, 240 }, 
	{ NOTE_G4, 240 }, 
	{ NOTE_BB3, 240 }, 
	{ NOTE_A3, 480 }, 
	{ NOTE_E4, 240 }, 
	{ NOTE_E3, 480 }, 
	{ NOTE_E4, 240 }, 
	{ NOTE_G4, 240 }, 
	{ NOTE_BB3, 240 }, 
	{ NOTE_A3, 480 }, 
	{ NOTE_E4, 240 }, 
	{ NOTE_E3, 480 }, 
	{ NOTE_E4, 240 }, 
	{ NOTE_G4, 240 }, 
	{ NOTE_BB3, 240 }, 
	{ NOTE_A3, 480 }, 
	{ NOTE_E4, 240 }, 
	{ NOTE_E3, 480 }, 
	{ NOTE_E3, 240 }, 
	{ NOTE_E3, 240 }, 
	{ NOTE_E3, 240 }, 
	{ NOTE_E3, 240 }, 
	{ NOTE_E3, 240 }, 
	{ NOTE_E3, 240 }, 
	{ NOTE_E4, 240 }, 
	{ NOTE_E3, 240 }, 
	{ NOTE_E3, 240 }, 
	{ NOTE_E3, 240 }, 
	{ NOTE_E3, 240 }, 
	{ NOTE_E3, 240 }, 
	{ NOTE_E3, 240 }, 
	{ NOTE_E3, 240 }, 
	{ NOTE_E4, 240 }, 
	{ NOTE_E3, 240 }, 
	{ NOTE_E3, 240 }, 
	{ NOTE_E3, 240 }, 
	{ NOTE_E3, 240 }, 
	{ NOTE_E3, 240 }, 
	{ NOTE_E3, 240 }, 
	{ NOTE_E3, 240 }, 
	{ NOTE_E4, 240 }, 
	{ NOTE_E3, 240 }, 
	{ NOTE_E3, 240 }, 
	{ NOTE_E3, 240 }, 
	{ NOTE_E3, 240 }, 
	{ NOTE_E3, 240 }, 
	{ NOTE_E3, 240 }, 
	{ NOTE_E3, 240 }, 
	{ NOTE_E4, 240 }, 
	{ NOTE_E3, 240 }, 
	{ NOTE_E3, 240 }, 
	{ NOTE_E4, 240 }, 
	{ NOTE_BB3, 240 }, 
	{ NOTE_E3, 240 }, 
	{ NOTE_E3, 240 }, 
	{ NOTE_E3, 240 }, 
	{ NOTE_C4, 240 }, 
	{ NOTE_E3, 240 }, 
	{ NOTE_E3, 240 }, 
	{ NOTE_E4, 240 }, 
	{ NOTE_BB3, 240 }, 
	{ NOTE_E3, 240 }, 
	{ NOTE_E3, 240 }, 
	{ NOTE_E3, 240 }, 
	{ NOTE_C4, 240 }, 
	{ NOTE_E3, 240 }, 
	{ NOTE_E3, 240 }, 
	{ NOTE_E4, 240 }, 
	{ NOTE_BB3, 240 }, 
	{ NOTE_E3, 240 }, 
	{ NOTE_E3, 240 }, 
	{ NOTE_E3, 240 }, 
	{ NOTE_C4, 240 }, 
	{ NOTE_E3, 240 }, 
	{ NOTE_E3, 240 }, 
	{ NOTE_E4, 240 }, 
	{ NOTE_BB3, 240 }, 
	{ NOTE_E3, 240 }, 
	{ NOTE_E3, 240 }, 
	{ NOTE_E3, 240 }, 
	{ NOTE_C4, 240 }, 
	{ NOTE_E3, 240 }, 
	{ NOTE_E3, 240 }, 
	{ NOTE_E4, 240 }, 
	{ NOTE_BB3, 240 }, 
	{ NOTE_A3, 240 }, 
	{ NOTE_E3, 240 }, 
	{ NOTE_E3, 240 }, 
	{ NOTE_C4, 240 }, 
	{ NOTE_E3, 240 }, 
	{ NOTE_E3, 240 }, 
	{ NOTE_E4, 240 }, 
	{ NOTE_BB3, 240 }, 
	{ NOTE_A3, 240 }, 
	{ NOTE_E3, 240 }, 
	{ NOTE_E3, 240 }, 
	{ NOTE_C4, 240 }, 
	{ NOTE_E3, 240 }, 
	{ NOTE_E3, 240 }, 
	{ NOTE_E4, 240 }, 
	{ NOTE_BB3, 240 }, 
	{ NOTE_A3, 240 }, 
	{ NOTE_E3, 240 }, 
	{ NOTE_E3, 240 }, 
	{ NOTE_C4, 240 }, 
	{ NOTE_E3, 240 }, 
	{ NOTE_E3, 240 }, 
	{ NOTE_E4, 240 }, 
	{ NOTE_BB3, 240 }, 
	{ NOTE_A3, 240 }, 
	{ NOTE_E3, 240 }, 
	{ NOTE_E3, 240 }, 
	{ NOTE_C4, 240 }, 
	{ NOTE_E3, 240 }, 
	{ NOTE_E3, 240 }, 
	{ NOTE_E4, 240 }, 
	{ NOTE_BB3, 240 }, 
	{ NOTE_A3, 240 }, 
	{ NOTE_E3, 240 }, 
	{ NOTE_E3, 240 }, 
	{ NOTE_C4, 240 }, 
	{ NOTE_E3, 240 }, 
	{ NOTE_E3, 240 }, 
	{ NOTE_E4, 240 }, 
	{ NOTE_BB3, 240 }, 
	{ NOTE_A3, 240 }, 
	{ NOTE_E3, 240 }, 
	{ NOTE_E3, 240 }, 
	{ NOTE_C4, 240 }, 
	{ NOTE_E3, 240 }, 
	{ NOTE_E3, 240 }, 
	{ NOTE_E4, 240 }, 
	{ NOTE_BB3, 240 }, 
	{ NOTE_A3, 240 }, 
	{ NOTE_E3, 240 }, 
	{ NOTE_E3, 240 }, 
	{ NOTE_C4, 240 }, 
	{ NOTE_E3, 240 }, 
	{ NOTE_E3, 240 }, 
	{ NOTE_E4, 240 }, 
	{ NOTE_BB3, 240 }, 
	{ NOTE_A3, 240 }, 
	{ NOTE_E3, 240 }, 
	{ NOTE_E3, 240 }, 
	{ NOTE_B3, 480 }, 
	{ NOTE_B3, 240 }, 
	{ NOTE_E4, 240 }, 
	{ NOTE_BB3, 240 }, 
	{ NOTE_A3, 480 }, 
	{ NOTE_E3, 240 }, 
	{ NOTE_B3, 480 }, 
	{ NOTE_B3, 240 }, 
	{ NOTE_E4, 240 }, 
	{ NOTE_BB3, 240 }, 
	{ NOTE_A3, 480 }, 
	{ NOTE_E3, 240 }, 
	{ NOTE_B3, 480 }, 
	{ NOTE_B3, 240 }, 
	{ NOTE_E4, 240 }, 
	{ NOTE_BB3, 240 }, 
	{ NOTE_A3, 480 }, 
	{ NOTE_E3, 240 }, 
	{ NOTE_D4, 480 }, 
	{ NOTE_E3, 240 }, 
	{ NOTE_CS4, 240 }, 
	{ NOTE_E3, 240 }, 
	{ NOTE_CS4, 240 }, 
	{ NOTE_D4, 240 }, 
	{ NOTE_CS4, 240 }, 
	{ NOTE_B3, 480 }, 
	{ NOTE_B3, 240 }, 
	{ NOTE_E4, 240 }, 
	{ NOTE_BB3, 240 }, 
	{ NOTE_A3, 480 }, 
	{ NOTE_E3, 240 }, 
	{ NOTE_B3, 480 }, 
	{ NOTE_B3, 240 }, 
	{ NOTE_E4, 240 }, 
	{ NOTE_BB3, 240 }, 
	{ NOTE_A3, 480 }, 
	{ NOTE_E3, 240 }, 
	{ NOTE_B3, 480 }, 
	{ NOTE_B3, 240 }, 
	{ NOTE_E4, 240 }, 
	{ NOTE_BB3, 240 }, 
	{ NOTE_A3, 480 }, 
	{ NOTE_E3, 240 }, 
	{ NOTE_D4, 480 }, 
	{ NOTE_E3, 240 }, 
	{ NOTE_CS4, 240 }, 
	{ NOTE_E3, 240 }, 
	{ NOTE_CS4, 240 }, 
	{ NOTE_D4, 240 }, 
	{ NOTE_CS4, 240 }, 
	{ NOTE_B3, 480 }, 
	{ NOTE_E3, 240 }, 
	{ NOTE_E3, 240 }, 
	{ NOTE_E3, 240 }, 
	{ NOTE_E3, 240 }, 
	{ NOTE_E3, 240 }, 
	{ NOTE_E3, 240 }, 
	{ NOTE_C4, 240 }, 
	{ NOTE_E3, 240 }, 
	{ NOTE_E3, 240 }, 
	{ NOTE_E3, 240 }, 
	{ NOTE_E3, 240 }, 
	{ NOTE_E3, 240 }, 
	{ NOTE_E3, 240 }, 
	{ NOTE_E3, 240 }, 
	{ NOTE_C4, 240 }, 
	{ NOTE_E3, 240 }, 
	{ NOTE_E3, 240 }, 
	{ NOTE_E3, 240 }, 
	{ NOTE_E3, 240 }, 
	{ NOTE_E3, 240 }, 
	{ NOTE_E3, 240 }, 
	{ NOTE_E3, 240 }, 
	{ NOTE_D4, 480 }, 
	{ NOTE_E3, 240 }, 
	{ NOTE_CS4, 240 }, 
	{ NOTE_E3, 240 }, 
	{ NOTE_CS4, 240 }, 
	{ NOTE_D4, 240 }, 
	{ NOTE_CS4, 240 }, 
	{ NOTE_B3, 480 }, 
	{ NOTE_E3, 240 }, 
	{ NOTE_E3, 240 }, 
	{ NOTE_E3, 240 }, 
	{ NOTE_E3, 240 }, 
	{ NOTE_E3, 240 }, 
	{ NOTE_E3, 240 }, 
	{ NOTE_C4, 240 }, 
	{ NOTE_E3, 240 }, 
	{ NOTE_E3, 240 }, 
	{ NOTE_E3, 240 }, 
	{ NOTE_E3, 240 }, 
	{ NOTE_E3, 240 }, 
	{ NOTE_E3, 240 }, 
	{ NOTE_E3, 240 }, 
	{ NOTE_C4, 240 }, 
	{ NOTE_E3, 240 }, 
	{ NOTE_E3, 240 }, 
	{ NOTE_E3, 240 }, 
	{ NOTE_E3, 240 }, 
	{ NOTE_E3, 240 }, 
	{ NOTE_E3, 240 }, 
	{ NOTE_E3, 240 }, 
	{ NOTE_D4, 480 }, 
	{ NOTE_E3, 240 }, 
	{ NOTE_CS4, 240 }, 
	{ NOTE_E3, 240 }, 
	{ NOTE_CS4, 240 }, 
	{ NOTE_D4, 240 }, 
	{ NOTE_CS4, 240 }, 
	{ NOTE_B3, 480 }, 
	{ NOTE_FS4, 240 }, 
	{ NOTE_A4, 240 }, 
	{ NOTE_C4, 240 }, 
	{ NOTE_B3, 480 }, 
	{ NOTE_FS4, 240 }, 
	{ NOTE_FS3, 480 }, 
	{ NOTE_FS4, 240 }, 
	{ NOTE_A4, 240 }, 
	{ NOTE_C4, 240 }, 
	{ NOTE_B3, 480 }, 
	{ NOTE_FS4, 240 }, 
	{ NOTE_FS3, 480 }, 
	{ NOTE_FS4, 240 }, 
	{ NOTE_A4, 240 }, 
	{ NOTE_C4, 240 }, 
	{ NOTE_B3, 480 }, 
	{ NOTE_FS4, 240 }, 
	{ NOTE_FS3, 480 }, 
	{ NOTE_FS4, 240 }, 
	{ NOTE_A4, 240 }, 
	{ NOTE_C4, 240 }, 
	{ NOTE_B3, 480 }, 
	{ NOTE_FS4, 480 }, 
	{ NOTE_CS4, 480 }, 
	{ NOTE_CS4, 240 }, 
	{ NOTE_C4, 240 }, 
	{ NOTE_FS4, 720 }, 
	{ NOTE_CS4, 720 }, 
	{ NOTE_CS4, 240 }, 
	{ NOTE_C4, 240 }, 
	{ NOTE_FS4, 720 }, 
	{ NOTE_CS4, 720 }, 
	{ NOTE_CS4, 240 }, 
	{ NOTE_C4, 240 }, 
	{ NOTE_FS4, 720 }, 
	{ NOTE_B3, 2160 }, 
	{ NOTE_CS4, 480 }, 
	{ NOTE_CS4, 240 }, 
	{ NOTE_C4, 240 }, 
	{ NOTE_FS4, 720 }, 
	{ NOTE_B3, 2160 }, 
	{ NOTE_D4, 240 }, 
	{ NOTE_B3, 240 }, 
	{ NOTE_CS4, 240 }, 
	{ NOTE_B3, 240 }, 
	{ NOTE_CS4, 240 }, 
	{ NOTE_D4, 240 }, 
	{ NOTE_CS4, 240 }, 
	{ NOTE_B3, 480 }, 
	{ NOTE_B3, 240 }, 
	{ NOTE_E4, 240 }, 
	{ NOTE_BB3, 240 }, 
	{ NOTE_A3, 480 }, 
	{ NOTE_E3, 240 }, 
	{ NOTE_B3, 480 }, 
	{ NOTE_B3, 240 }, 
	{ NOTE_E4, 240 }, 
	{ NOTE_BB3, 240 }, 
	{ NOTE_A3, 480 }, 
	{ NOTE_E3, 240 }, 
	{ NOTE_B3, 480 }, 
	{ NOTE_B3, 240 }, 
	{ NOTE_E4, 240 }, 
	{ NOTE_BB3, 240 }, 
	{ NOTE_A3, 480 }, 
	{ NOTE_E3, 240 }, 
	{ NOTE_D4, 480 }, 
	{ NOTE_E3, 240 }, 
	{ NOTE_CS4, 240 }, 
	{ NOTE_E3, 240 }, 
	{ NOTE_CS4, 240 }, 
	{ NOTE_D4, 240 }, 
	{ NOTE_CS4, 240 }, 
	{ NOTE_B3, 480 }, 
	{ NOTE_B3, 240 }, 
	{ NOTE_E4, 240 }, 
	{ NOTE_BB3, 240 }, 
	{ NOTE_A3, 480 }, 
	{ NOTE_E3, 240 }, 
	{ NOTE_B3, 480 }, 
	{ NOTE_B3, 240 }, 
	{ NOTE_E4, 240 }, 
	{ NOTE_BB3, 240 }, 
	{ NOTE_A3, 480 }, 
	{ NOTE_E3, 240 }, 
	{ NOTE_B3, 480 }, 
	{ NOTE_B3, 240 }, 
	{ NOTE_E4, 240 }, 
	{ NOTE_BB3, 240 }, 
	{ NOTE_A3, 480 }, 
	{ NOTE_E3, 240 }, 
	{ NOTE_D4, 480 }, 
	{ NOTE_E3, 240 }, 
	{ NOTE_CS4, 240 }, 
	{ NOTE_E3, 240 }, 
	{ NOTE_CS4, 240 }, 
	{ NOTE_D4, 240 }, 
	{ NOTE_CS4, 240 }, 
	{ NOTE_B3, 480 }, 
	{ NOTE_E3, 240 }, 
	{ NOTE_E3, 240 }, 
	{ NOTE_E3, 240 }, 
	{ NOTE_E3, 240 }, 
	{ NOTE_E3, 240 }, 
	{ NOTE_E3, 240 }, 
	{ NOTE_C4, 240 }, 
	{ NOTE_E3, 240 }, 
	{ NOTE_E3, 240 }, 
	{ NOTE_E3, 240 }, 
	{ NOTE_E3, 240 }, 
	{ NOTE_E3, 240 }, 
	{ NOTE_E3, 240 }, 
	{ NOTE_E3, 240 }, 
	{ NOTE_C4, 240 }, 
	{ NOTE_E3, 240 }, 
	{ NOTE_E3, 240 }, 
	{ NOTE_E3, 240 }, 
	{ NOTE_E3, 240 }, 
	{ NOTE_E3, 240 }, 
	{ NOTE_E3, 240 }, 
	{ NOTE_E3, 240 }, 
	{ NOTE_D4, 480 }, 
	{ NOTE_E3, 240 }, 
	{ NOTE_CS4, 240 }, 
	{ NOTE_E3, 240 }, 
	{ NOTE_CS4, 240 }, 
	{ NOTE_D4, 240 }, 
	{ NOTE_CS4, 240 }, 
	{ NOTE_B3, 480 }, 
	{ NOTE_E3, 240 }, 
	{ NOTE_E3, 240 }, 
	{ NOTE_E3, 240 }, 
	{ NOTE_E3, 240 }, 
	{ NOTE_E3, 240 }, 
	{ NOTE_E3, 240 }, 
	{ NOTE_C4, 240 }, 
	{ NOTE_E3, 240 }, 
	{ NOTE_E3, 240 }, 
	{ NOTE_E3, 240 }, 
	{ NOTE_E3, 240 }, 
	{ NOTE_E3, 240 }, 
	{ NOTE_E3, 240 }, 
	{ NOTE_E3, 240 }, 
	{ NOTE_C4, 240 }, 
	{ NOTE_E3, 240 }, 
	{ NOTE_E3, 240 }, 
	{ NOTE_E3, 240 }, 
	{ NOTE_E3, 240 }, 
	{ NOTE_E3, 240 }, 
	{ NOTE_E3, 240 }, 
	{ NOTE_E3, 240 }, 
	{ NOTE_D4, 480 }, 
	{ NOTE_E3, 240 }, 
	{ NOTE_CS4, 240 }, 
	{ NOTE_E3, 240 }, 
	{ NOTE_CS4, 240 }, 
	{ NOTE_D4, 240 }, 
	{ NOTE_CS4, 240 }, 
	{ NOTE_B3, 480 }, 
	{ NOTE_FS4, 240 }, 
	{ NOTE_A4, 240 }, 
	{ NOTE_C4, 240 }, 
	{ NOTE_B3, 480 }, 
	{ NOTE_FS4, 240 }, 
	{ NOTE_FS3, 480 }, 
	{ NOTE_FS4, 240 }, 
	{ NOTE_A4, 240 }, 
	{ NOTE_C4, 240 }, 
	{ NOTE_B3, 480 }, 
	{ NOTE_FS4, 240 }, 
	{ NOTE_FS3, 480 }, 
	{ NOTE_FS4, 240 }, 
	{ NOTE_A4, 240 }, 
	{ NOTE_C4, 240 }, 
	{ NOTE_B3, 480 }, 
	{ NOTE_FS4, 240 }, 
	{ NOTE_FS3, 480 }, 
	{ NOTE_FS4, 240 }, 
	{ NOTE_A4, 240 }, 
	{ NOTE_C4, 240 }, 
	{ NOTE_B3, 480 }, 
	{ NOTE_FS4, 480 }, 
	{ NOTE_CS4, 480 }, 
	{ NOTE_CS4, 240 }, 
	{ NOTE_C4, 240 }, 
	{ NOTE_FS4, 720 }, 
	{ NOTE_CS4, 720 }, 
	{ NOTE_CS4, 240 }, 
	{ NOTE_C4, 240 }, 
	{ NOTE_FS4, 720 }, 
	{ NOTE_CS4, 720 }, 
	{ NOTE_CS4, 240 }, 
	{ NOTE_C4, 240 }, 
	{ NOTE_FS4, 720 }, 
	{ NOTE_B3, 2160 }, 
	{ NOTE_CS4, 480 }, 
	{ NOTE_CS4, 240 }, 
	{ NOTE_C4, 240 }, 
	{ NOTE_FS4, 720 }, 
	{ NOTE_B3, 2160 }, 
	{ NOTE_D4, 240 }, 
	{ NOTE_B3, 240 }, 
	{ NOTE_CS4, 240 }, 
	{ NOTE_B3, 240 }, 
	{ NOTE_CS4, 240 }, 
	{ NOTE_D4, 240 }, 
	{ NOTE_CS4, 240 }, 
	{ NOTE_B3, 1920 }, 
	{ NOTE_B3, 480 }, 
	{ NOTE_B3, 240 }, 
	{ NOTE_E4, 240 }, 
	{ NOTE_BB3, 240 }, 
	{ NOTE_A3, 480 }, 
	{ NOTE_E3, 240 }, 
	{ NOTE_B3, 480 }, 
	{ NOTE_B3, 240 }, 
	{ NOTE_E4, 240 }, 
	{ NOTE_BB3, 240 }, 
	{ NOTE_A3, 480 }, 
	{ NOTE_E3, 240 }, 
	{ NOTE_B3, 480 }, 
	{ NOTE_B3, 240 }, 
	{ NOTE_E4, 240 }, 
	{ NOTE_BB3, 240 }, 
	{ NOTE_A3, 480 }, 
	{ NOTE_E3, 240 }, 
	{ NOTE_D4, 480 }, 
	{ NOTE_E3, 240 }, 
	{ NOTE_CS4, 240 }, 
	{ NOTE_E3, 240 }, 
	{ NOTE_CS4, 240 }, 
	{ NOTE_D4, 240 }, 
	{ NOTE_CS4, 240 }, 
	{ NOTE_B3, 480 }, 
	{ NOTE_B3, 240 }, 
	{ NOTE_E4, 240 }, 
	{ NOTE_BB3, 240 }, 
	{ NOTE_A3, 480 }, 
	{ NOTE_E3, 240 }, 
	{ NOTE_B3, 480 }, 
	{ NOTE_B3, 240 }, 
	{ NOTE_E4, 240 }, 
	{ NOTE_BB3, 240 }, 
	{ NOTE_A3, 480 }, 
	{ NOTE_E3, 240 }, 
	{ NOTE_B3, 480 }, 
	{ NOTE_B3, 240 }, 
	{ NOTE_E4, 240 }, 
	{ NOTE_BB3, 240 }, 
	{ NOTE_A3, 480 }, 
	{ NOTE_E3, 240 }, 
	{ NOTE_D4, 480 }, 
	{ NOTE_E3, 240 }, 
	{ NOTE_CS4, 240 }, 
	{ NOTE_E3, 240 }, 
	{ NOTE_CS4, 240 }, 
	{ NOTE_D4, 240 }, 
	{ NOTE_CS4, 240 }, 
	{ NOTE_B3, 480 }, 
	{ NOTE_FS4, 240 }, 
	{ NOTE_A4, 240 }, 
	{ NOTE_C4, 240 }, 
	{ NOTE_B3, 480 }, 
	{ NOTE_FS4, 240 }, 
	{ NOTE_FS3, 480 }, 
	{ NOTE_FS4, 240 }, 
	{ NOTE_A4, 240 }, 
	{ NOTE_C4, 240 }, 
	{ NOTE_B3, 480 }, 
	{ NOTE_FS4, 240 }, 
	{ NOTE_FS3, 480 }, 
	{ NOTE_FS4, 240 }, 
	{ NOTE_A4, 240 }, 
	{ NOTE_C4, 240 }, 
	{ NOTE_B3, 480 }, 
	{ NOTE_FS4, 240 }, 
	{ NOTE_FS3, 480 }, 
	{ NOTE_FS4, 240 }, 
	{ NOTE_A4, 240 }, 
	{ NOTE_C4, 240 }, 
	{ NOTE_B3, 480 }, 
	{ NOTE_FS4, 480 }, 
	{ NOTE_CS4, 480 }, 
	{ NOTE_CS4, 240 }, 
	{ NOTE_C4, 240 }, 
	{ NOTE_FS4, 720 }, 
	{ NOTE_CS4, 720 }, 
	{ NOTE_CS4, 240 }, 
	{ NOTE_C4, 240 }, 
	{ NOTE_FS4, 720 }, 
	{ NOTE_CS4, 720 }, 
	{ NOTE_CS4, 240 }, 
	{ NOTE_C4, 240 }, 
	{ NOTE_FS4, 720 }, 
	{ NOTE_B3, 2160 }, 
	{ NOTE_CS4, 480 }, 
	{ NOTE_CS4, 240 }, 
	{ NOTE_C4, 240 }, 
	{ NOTE_FS4, 720 }, 
	{ NOTE_B3, 2160 }, 
	{ NOTE_B3, 240 }, 
	{ NOTE_REST, 960 }, 
	{ NOTE_REST, 720 }, 
	{ NOTE_REST, 1920 }, 
	{ NOTE_REST, 1920 }, 
	{ NOTE_REST, 1920 }, 
	{ NOTE_REST, 1440 }, 
	{ NOTE_REST, 240 }, 
	{ NOTE_E3, 480 }, 
	{ NOTE_E4, 240 }, 
	{ NOTE_G4, 240 }, 
	{ NOTE_BB3, 240 }, 
	{ NOTE_A3, 480 }, 
	{ NOTE_E4, 240 }, 
	{ NOTE_E3, 480 }, 
	{ NOTE_E4, 240 }, 
	{ NOTE_G4, 240 }, 
	{ NOTE_BB3, 240 }, 
	{ NOTE_A3, 480 }, 
	{ NOTE_E4, 240 }, 
	{ NOTE_E3, 480 }, 
	{ NOTE_E4, 240 }, 
	{ NOTE_G4, 240 }, 
	{ NOTE_BB3, 240 }, 
	{ NOTE_A3, 480 }, 
	{ NOTE_E4, 240 }, 
	{ NOTE_E3, 480 }, 
	{ NOTE_E4, 240 }, 
	{ NOTE_G4, 240 }, 
	{ NOTE_BB3, 240 }, 
	{ NOTE_A3, 480 }, 
	{ NOTE_E4, 240 }, 
	{ NOTE_E3, 480 }, 
	{ NOTE_E4, 240 }, 
	{ NOTE_G4, 240 }, 
	{ NOTE_BB3, 240 }, 
	{ NOTE_A3, 480 }, 
	{ NOTE_E4, 240 }, 
	{ NOTE_E3, 480 }, 
	{ NOTE_E4, 240 }, 
	{ NOTE_G4, 240 }, 
	{ NOTE_BB3, 240 }, 
	{ NOTE_A3, 480 }, 
	{ NOTE_E4, 240 }, 
	{ NOTE_E3, 480 }, 
	{ NOTE_E4, 240 }, 
	{ NOTE_G4, 240 }, 
	{ NOTE_BB3, 240 }, 
	{ NOTE_A3, 480 }, 
	{ NOTE_E4, 240 }, 
	{ NOTE_E3, 480 }, 
	{ NOTE_E4, 240 }, 
	{ NOTE_G4, 240 }, 
	{ NOTE_BB3, 240 }, 
	{ NOTE_A3, 480 }, 
	{ NOTE_E4, 240 }, 
	{ NOTE_FS3, 480 }, 
	{ NOTE_FS4, 240 }, 
	{ NOTE_A4, 240 }, 
	{ NOTE_C4, 240 }, 
	{ NOTE_B3, 480 }, 
	{ NOTE_FS4, 240 }, 
	{ NOTE_FS3, 480 }, 
	{ NOTE_FS4, 240 }, 
	{ NOTE_A4, 240 }, 
	{ NOTE_C4, 240 }, 
	{ NOTE_B3, 480 }, 
	{ NOTE_FS4, 240 }, 
	{ NOTE_FS3, 480 }, 
	{ NOTE_FS4, 240 }, 
	{ NOTE_A4, 240 }, 
	{ NOTE_C4, 240 }, 
	{ NOTE_B3, 480 }, 
	{ NOTE_FS4, 240 }, 
	{ NOTE_FS3, 480 }, 
	{ NOTE_FS4, 240 }, 
	{ NOTE_A4, 240 }, 
	{ NOTE_C4, 240 }, 
	{ NOTE_B3, 480 }, 
	{ NOTE_FS4, 240 }, 
	{ NOTE_FS3, 480 }, 
	{ NOTE_FS4, 240 }, 
	{ NOTE_A4, 240 }, 
	{ NOTE_C4, 240 }, 
	{ NOTE_B3, 480 }, 
	{ NOTE_FS4, 240 }, 
	{ NOTE_FS3, 480 }, 
	{ NOTE_FS4, 240 }, 
	{ NOTE_A4, 240 }, 
	{ NOTE_C4, 240 }, 
	{ NOTE_B3, 480 }, 
	{ NOTE_FS4, 240 }, 
	{ NOTE_FS3, 480 }, 
	{ NOTE_FS4, 240 }, 
	{ NOTE_A4, 240 }, 
	{ NOTE_C4, 240 }, 
	{ NOTE_B3, 480 }, 
	{ NOTE_FS4, 240 }, 
	{ NOTE_FS3, 480 }, 
	{ NOTE_FS4, 240 }, 
	{ NOTE_A4, 240 }, 
	{ NOTE_C4, 240 }, 
	{ NOTE_B3, 480 }, 
	{ NOTE_FS4, 480 }, 
	{ NOTE_CS4, 480 }, 
	{ NOTE_CS4, 240 }, 
	{ NOTE_C4, 240 }, 
	{ NOTE_FS4, 720 }, 
	{ NOTE_CS4, 720 }, 
	{ NOTE_CS4, 240 }, 
	{ NOTE_C4, 240 }, 
	{ NOTE_FS4, 720 }, 
	{ NOTE_CS4, 720 }, 
	{ NOTE_CS4, 240 }, 
	{ NOTE_C4, 240 }, 
	{ NOTE_FS4, 720 }, 
	{ NOTE_B3, 2160 }, 
	{ NOTE_CS4, 480 }, 
	{ NOTE_CS4, 240 }, 
	{ NOTE_C4, 240 }, 
	{ NOTE_FS4, 720 }, 
	{ NOTE_B3, 1680 }, 
	{ NOTE_B3, 240 }, 
	{ NOTE_B3, 240 }, 
	{ NOTE_CS4, 480 }, 
	{ NOTE_CS4, 240 }, 
	{ NOTE_C4, 240 }, 
	{ NOTE_FS4, 720 }, 
	{ NOTE_CS4, 720 }, 
	{ NOTE_CS4, 240 }, 
	{ NOTE_C4, 240 }, 
	{ NOTE_FS4, 720 }, 
	{ NOTE_CS4, 720 }, 
	{ NOTE_CS4, 240 }, 
	{ NOTE_C4, 240 }, 
	{ NOTE_FS4, 720 }, 
	{ NOTE_B3, 2160 }, 
	{ NOTE_CS4, 480 }, 
	{ NOTE_CS4, 240 }, 
	{ NOTE_C4, 240 }, 
	{ NOTE_FS4, 720 }, 
	{ NOTE_B3, 2160 }, 
	{ NOTE_D4, 240 }, 
	{ NOTE_B3, 240 }, 
	{ NOTE_CS4, 240 }, 
	{ NOTE_B3, 240 }, 
	{ NOTE_CS4, 240 }, 
	{ NOTE_D4, 240 }, 
	{ NOTE_CS4, 240 }, 
	{ NOTE_B3, 1920 }, 
	{ NOTE_B3, 480 }, 
	{ NOTE_B3, 240 }, 
	{ NOTE_E4, 240 }, 
	{ NOTE_BB3, 240 }, 
	{ NOTE_A3, 480 }, 
	{ NOTE_E3, 240 }, 
	{ NOTE_B3, 480 }, 
	{ NOTE_B3, 240 }, 
	{ NOTE_E4, 240 }, 
	{ NOTE_BB3, 240 }, 
	{ NOTE_A3, 480 }, 
	{ NOTE_E3, 240 }, 
	{ NOTE_B3, 480 }, 
	{ NOTE_B3, 240 }, 
	{ NOTE_E4, 240 }, 
	{ NOTE_BB3, 240 }, 
	{ NOTE_A3, 480 }, 
	{ NOTE_E3, 240 }, 
	{ NOTE_B3, 480 }, 
	{ NOTE_B3, 240 }, 
	{ NOTE_E4, 240 }, 
	{ NOTE_BB3, 240 }, 
	{ NOTE_A3, 480 }, 
	{ NOTE_E3, 240 }, 
	{ NOTE_B3, 480 }, 
	{ NOTE_B3, 240 }, 
	{ NOTE_E4, 240 }, 
	{ NOTE_BB3, 240 }, 
	{ NOTE_A3, 480 }, 
	{ NOTE_E3, 240 }, 
	{ NOTE_B3, 480 }, 
	{ NOTE_B3, 240 }, 
	{ NOTE_E4, 240 }, 
	{ NOTE_BB3, 240 }, 
	{ NOTE_A3, 480 }, 
	{ NOTE_E3, 240 }, 
	{ NOTE_B3, 480 }, 
	{ NOTE_B3, 240 }, 
	{ NOTE_E4, 240 }, 
	{ NOTE_BB3, 240 }, 
	{ NOTE_A3, 480 }, 
	{ NOTE_E3, 240 }, 
	{ NOTE_B3, 480 }, 
	{ NOTE_B3, 240 }, 
	{ NOTE_E4, 240 }, 
	{ NOTE_BB3, 240 }, 
	{ NOTE_A3, 480 }, 
	{ NOTE_E3, 240 }, 
	{ NOTE_D4, 480 }, 
	{ NOTE_E3, 240 }, 
	{ NOTE_CS4, 240 }, 
	{ NOTE_E3, 240 }, 
	{ NOTE_CS4, 240 }, 
	{ NOTE_D4, 240 }, 
	{ NOTE_CS4, 240 }, 
	{ NOTE_E3, 480 }, 
	{ NOTE_E4, 240 }, 
	{ NOTE_G4, 240 }, 
	{ NOTE_BB3, 240 }, 
	{ NOTE_A3, 480 }, 
	{ NOTE_E4, 240 }, 
	{ NOTE_E3, 480 }, 
	{ NOTE_E4, 240 }, 
	{ NOTE_G4, 240 }, 
	{ NOTE_BB3, 240 }, 
	{ NOTE_A3, 480 }, 
	{ NOTE_E4, 240 }, 
	{ NOTE_E3, 480 }, 
	{ NOTE_E4, 240 }, 
	{ NOTE_G4, 240 }, 
	{ NOTE_BB3, 240 }, 
	{ NOTE_A3, 480 }, 
	{ NOTE_E4, 240 }, 
	{ NOTE_E3, 480 }, 
	{ NOTE_E4, 240 }, 
	{ NOTE_G4, 240 }, 
	{ NOTE_BB3, 240 }, 
	{ NOTE_A3, 480 }, 
	{ NOTE_E4, 240 }, 
	{ NOTE_E3, 480 }, 
	{ NOTE_E4, 240 }, 
	{ NOTE_G4, 240 }, 
	{ NOTE_BB3, 240 }, 
	{ NOTE_A3, 480 }, 
	{ NOTE_E4, 240 }, 
	{ NOTE_E3, 480 }, 
	{ NOTE_E4, 240 }, 
	{ NOTE_G4, 240 }, 
	{ NOTE_BB3, 240 }, 
	{ NOTE_A3, 480 }, 
	{ NOTE_E4, 240 }, 
	{ NOTE_E3, 480 }, 
	{ NOTE_E4, 240 }, 
	{ NOTE_G4, 240 }, 
	{ NOTE_BB3, 240 }, 
	{ NOTE_A3, 480 }, 
	{ NOTE_E4, 240 }, 
	{ NOTE_E3, 480 }, 
	{ NOTE_E4, 240 }, 
	{ NOTE_G4, 240 }, 
	{ NOTE_BB3, 240 }, 
	{ NOTE_A3, 480 }, 
	{ NOTE_E4, 240 }, 
	{ NOTE_E3, 480 }, 
	{ NOTE_E4, 240 }, 
	{ NOTE_G4, 240 }, 
	{ NOTE_BB3, 240 }, 
	{ NOTE_A3, 480 }, 
	{ NOTE_E4, 240 }, 
	{ NOTE_E3, 480 }, 
	{ NOTE_E4, 240 }, 
	{ NOTE_G4, 240 }, 
	{ NOTE_BB3, 240 }, 
	{ NOTE_A3, 480 }, 
	{ NOTE_E4, 240 }, 
	{ NOTE_E3, 480 }, 
	{ NOTE_E4, 240 }, 
	{ NOTE_G4, 240 }, 
	{ NOTE_BB3, 240 }, 
	{ NOTE_A3, 480 }, 
	{ NOTE_E4, 240 }, 
	{ NOTE_E3, 480 }, 
	{ NOTE_E4, 240 }, 
	{ NOTE_G4, 240 }, 
	{ NOTE_BB3, 240 }, 
	{ NOTE_A3, 480 }, 
	{ NOTE_E4, 240 }, 
	{ NOTE_E3, 480 }, 
	{ NOTE_E4, 240 }, 
	{ NOTE_G4, 240 }, 
	{ NOTE_BB3, 240 }, 
	{ NOTE_A3, 480 }, 
	{ NOTE_E4, 240 }, 
	{ NOTE_E3, 480 }, 
	{ NOTE_E4, 240 }, 
	{ NOTE_G4, 240 }, 
	{ NOTE_BB3, 240 }, 
	{ NOTE_A3, 480 }, 
	{ NOTE_E4, 240 }, 
	{ NOTE_E3, 480 }, 
	{ NOTE_E4, 240 }, 
	{ NOTE_G4, 240 }, 
	{ NOTE_BB3, 240 }, 
	{ NOTE_A3, 480 }, 
	{ NOTE_E4, 240 }, 
	{ NOTE_E3, 480 }, 
	{ NOTE_E4, 240 }, 
	{ NOTE_G4, 240 }, 
	{ NOTE_BB3, 240 }, 
	{ NOTE_A3, 480 }, 
	{ NOTE_E4, 240 }, 
	{ NOTE_E3, 480 }, 
	{ NOTE_E4, 240 }, 
	{ NOTE_G4, 240 }, 
	{ NOTE_BB3, 240 }, 
	{ NOTE_A3, 480 }, 
	{ NOTE_E4, 240 }, 
	{ NOTE_E3, 480 }, 
	{ NOTE_E4, 240 }, 
	{ NOTE_G4, 240 }, 
	{ NOTE_BB3, 240 }, 
	{ NOTE_A3, 480 }, 
	{ NOTE_E4, 240 }, 
	{ NOTE_E3, 480 }, 
	{ NOTE_E4, 240 }, 
	{ NOTE_G4, 240 }, 
	{ NOTE_BB3, 240 }, 
	{ NOTE_A3, 480 }, 
	{ NOTE_E4, 240 }, 
	{ NOTE_E3, 480 }, 
	{ NOTE_E4, 240 }, 
	{ NOTE_G4, 240 }, 
	{ NOTE_BB3, 240 }, 
	{ NOTE_A3, 480 }, 
	{ NOTE_E4, 240 }, 
	{ NOTE_E3, 480 }, 
	{ NOTE_E4, 240 }, 
	{ NOTE_G4, 240 }, 
	{ NOTE_BB3, 240 }, 
	{ NOTE_A3, 480 }, 
	{ NOTE_E4, 240 }, 
	{ NOTE_E3, 480 }, 
	{ NOTE_E4, 240 }, 
	{ NOTE_G4, 240 }, 
	{ NOTE_BB3, 240 }, 
	{ NOTE_A3, 480 }, 
	{ NOTE_E4, 240 }, 
	{ NOTE_E3, 2160 }, 
};
const uint16_t NUM_OF_NOTES2 = sizeof(melody2)/sizeof(melody2[0]);

const Note melody3[] PROGMEM = {
	{ NOTE_REST, 480 }, 
	{ NOTE_REST, 1920 }, 
	{ NOTE_REST, 1920 }, 
	{ NOTE_REST, 1920 }, 
	{ NOTE_REST, 960 }, 
	{ NOTE_REST, 480 }, 
	{ NOTE_REST, 240 }, 
	{ NOTE_B3, 7680 }, 
	{ NOTE_E4, 7680 }, 
	{ NOTE_E3, 6720 }, 
	{ NOTE_E3, 960 }, 
	{ NOTE_E3, 240 }, 
	{ NOTE_E3, 6480 }, 
	{ NOTE_B3, 480 }, 
	{ NOTE_B3, 480 }, 
	{ NOTE_E3, 240 }, 
	{ NOTE_E3, 1680 }, 
	{ NOTE_E3, 1920 }, 
	{ NOTE_E3, 1920 }, 
	{ NOTE_E3, 1920 }, 
	{ NOTE_E3, 1920 }, 
	{ NOTE_E3, 1920 }, 
	{ NOTE_E3, 1920 }, 
	{ NOTE_E3, 1920 }, 
	{ NOTE_E3, 480 }, 
	{ NOTE_E3, 240 }, 
	{ NOTE_E4, 240 }, 
	{ NOTE_BB3, 240 }, 
	{ NOTE_A3, 480 }, 
	{ NOTE_E3, 240 }, 
	{ NOTE_E3, 480 }, 
	{ NOTE_E3, 240 }, 
	{ NOTE_E4, 240 }, 
	{ NOTE_BB3, 240 }, 
	{ NOTE_A3, 480 }, 
	{ NOTE_E3, 240 }, 
	{ NOTE_E3, 480 }, 
	{ NOTE_E3, 240 }, 
	{ NOTE_E4, 240 }, 
	{ NOTE_BB3, 240 }, 
	{ NOTE_A3, 480 }, 
	{ NOTE_E3, 240 }, 
	{ NOTE_G3, 480 }, 
	{ NOTE_E3, 240 }, 
	{ NOTE_FS3, 240 }, 
	{ NOTE_E3, 240 }, 
	{ NOTE_FS3, 240 }, 
	{ NOTE_G3, 240 }, 
	{ NOTE_FS3, 240 }, 
	{ NOTE_E3, 480 }, 
	{ NOTE_E3, 240 }, 
	{ NOTE_E4, 240 }, 
	{ NOTE_BB3, 240 }, 
	{ NOTE_A3, 480 }, 
	{ NOTE_E3, 240 }, 
	{ NOTE_E3, 480 }, 
	{ NOTE_E3, 240 }, 
	{ NOTE_E4, 240 }, 
	{ NOTE_BB3, 240 }, 
	{ NOTE_A3, 480 }, 
	{ NOTE_E3, 240 }, 
	{ NOTE_E3, 480 }, 
	{ NOTE_E3, 240 }, 
	{ NOTE_E4, 240 }, 
	{ NOTE_BB3, 240 }, 
	{ NOTE_A3, 480 }, 
	{ NOTE_E3, 240 }, 
	{ NOTE_G3, 480 }, 
	{ NOTE_E3, 240 }, 
	{ NOTE_FS3, 240 }, 
	{ NOTE_E3, 240 }, 
	{ NOTE_FS3, 240 }, 
	{ NOTE_G3, 240 }, 
	{ NOTE_FS3, 240 }, 
	{ NOTE_E3, 480 }, 
	{ NOTE_E3, 240 }, 
	{ NOTE_E3, 240 }, 
	{ NOTE_E3, 240 }, 
	{ NOTE_E3, 240 }, 
	{ NOTE_E3, 240 }, 
	{ NOTE_E3, 240 }, 
	{ NOTE_F3, 240 }, 
	{ NOTE_E3, 240 }, 
	{ NOTE_E3, 240 }, 
	{ NOTE_E3, 240 }, 
	{ NOTE_E3, 240 }, 
	{ NOTE_E3, 240 }, 
	{ NOTE_E3, 240 }, 
	{ NOTE_E3, 240 }, 
	{ NOTE_F3, 240 }, 
	{ NOTE_E3, 240 }, 
	{ NOTE_E3, 240 }, 
	{ NOTE_E3, 240 }, 
	{ NOTE_E3, 240 }, 
	{ NOTE_E3, 240 }, 
	{ NOTE_E3, 240 }, 
	{ NOTE_E3, 240 }, 
	{ NOTE_G3, 480 }, 
	{ NOTE_E3, 240 }, 
	{ NOTE_FS3, 240 }, 
	{ NOTE_E3, 240 }, 
	{ NOTE_FS3, 240 }, 
	{ NOTE_G3, 240 }, 
	{ NOTE_FS3, 240 }, 
	{ NOTE_E3, 480 }, 
	{ NOTE_E3, 240 }, 
	{ NOTE_E3, 240 }, 
	{ NOTE_E3, 240 }, 
	{ NOTE_E3, 240 }, 
	{ NOTE_E3, 240 }, 
	{ NOTE_E3, 240 }, 
	{ NOTE_F3, 240 }, 
	{ NOTE_E3, 240 }, 
	{ NOTE_E3, 240 }, 
	{ NOTE_E3, 240 }, 
	{ NOTE_E3, 240 }, 
	{ NOTE_E3, 240 }, 
	{ NOTE_E3, 240 }, 
	{ NOTE_E3, 240 }, 
	{ NOTE_F3, 240 }, 
	{ NOTE_E3, 240 }, 
	{ NOTE_E3, 240 }, 
	{ NOTE_E3, 240 }, 
	{ NOTE_E3, 240 }, 
	{ NOTE_E3, 240 }, 
	{ NOTE_E3, 240 }, 
	{ NOTE_E3, 240 }, 
	{ NOTE_G3, 480 }, 
	{ NOTE_E3, 240 }, 
	{ NOTE_FS3, 240 }, 
	{ NOTE_E3, 240 }, 
	{ NOTE_FS3, 240 }, 
	{ NOTE_G3, 240 }, 
	{ NOTE_FS3, 240 }, 
	{ NOTE_E3, 480 }, 
	{ NOTE_FS4, 240 }, 
	{ NOTE_A4, 240 }, 
	{ NOTE_C4, 240 }, 
	{ NOTE_B3, 480 }, 
	{ NOTE_FS4, 240 }, 
	{ NOTE_FS3, 480 }, 
	{ NOTE_FS4, 240 }, 
	{ NOTE_A4, 240 }, 
	{ NOTE_C4, 240 }, 
	{ NOTE_B3, 480 }, 
	{ NOTE_FS4, 240 }, 
	{ NOTE_FS3, 480 }, 
	{ NOTE_FS4, 240 }, 
	{ NOTE_A4, 240 }, 
	{ NOTE_C4, 240 }, 
	{ NOTE_B3, 480 }, 
	{ NOTE_FS4, 240 }, 
	{ NOTE_FS3, 480 }, 
	{ NOTE_FS4, 240 }, 
	{ NOTE_A4, 240 }, 
	{ NOTE_C4, 240 }, 
	{ NOTE_B3, 480 }, 
	{ NOTE_FS4, 480 }, 
	{ NOTE_FS3, 480 }, 
	{ NOTE_CS4, 240 }, 
	{ NOTE_C4, 240 }, 
	{ NOTE_B3, 720 }, 
	{ NOTE_FS3, 720 }, 
	{ NOTE_CS4, 240 }, 
	{ NOTE_C4, 240 }, 
	{ NOTE_B3, 720 }, 
	{ NOTE_FS3, 720 }, 
	{ NOTE_CS4, 240 }, 
	{ NOTE_C4, 240 }, 
	{ NOTE_B3, 720 }, 
	{ NOTE_E3, 720 }, 
	{ NOTE_G4, 240 }, 
	{ NOTE_E4, 240 }, 
	{ NOTE_G4, 240 }, 
	{ NOTE_E4, 240 }, 
	{ NOTE_A4, 240 }, 
	{ NOTE_B4, 240 }, 
	{ NOTE_FS3, 480 }, 
	{ NOTE_CS4, 240 }, 
	{ NOTE_C4, 240 }, 
	{ NOTE_B3, 720 }, 
	{ NOTE_E3, 720 }, 
	{ NOTE_G4, 240 }, 
	{ NOTE_E4, 240 }, 
	{ NOTE_G4, 240 }, 
	{ NOTE_E4, 240 }, 
	{ NOTE_A4, 240 }, 
	{ NOTE_E4, 240 }, 
	{ NOTE_REST, 1440 }, 
	{ NOTE_REST, 240 }, 
	{ NOTE_E3, 480 }, 
	{ NOTE_E3, 240 }, 
	{ NOTE_E4, 240 }, 
	{ NOTE_BB3, 240 }, 
	{ NOTE_A3, 480 }, 
	{ NOTE_E3, 240 }, 
	{ NOTE_E3, 480 }, 
	{ NOTE_E3, 240 }, 
	{ NOTE_E4, 240 }, 
	{ NOTE_BB3, 240 }, 
	{ NOTE_A3, 480 }, 
	{ NOTE_E3, 240 }, 
	{ NOTE_E3, 480 }, 
	{ NOTE_E3, 240 }, 
	{ NOTE_E4, 240 }, 
	{ NOTE_BB3, 240 }, 
	{ NOTE_A3, 480 }, 
	{ NOTE_E3, 240 }, 
	{ NOTE_G3, 480 }, 
	{ NOTE_E3, 240 }, 
	{ NOTE_FS3, 240 }, 
	{ NOTE_E3, 240 }, 
	{ NOTE_FS3, 240 }, 
	{ NOTE_G3, 240 }, 
	{ NOTE_FS3, 240 }, 
	{ NOTE_E3, 480 }, 
	{ NOTE_E3, 240 }, 
	{ NOTE_E4, 240 }, 
	{ NOTE_BB3, 240 }, 
	{ NOTE_A3, 480 }, 
	{ NOTE_E3, 240 }, 
	{ NOTE_E3, 480 }, 
	{ NOTE_E3, 240 }, 
	{ NOTE_E4, 240 }, 
	{ NOTE_BB3, 240 }, 
	{ NOTE_A3, 480 }, 
	{ NOTE_E3, 240 }, 
	{ NOTE_G5, 480 }, 
	{ NOTE_E5, 240 }, 
	{ NOTE_G5, 240 }, 
	{ NOTE_A5, 240 }, 
	{ NOTE_A5, 120 }, 
	{ NOTE_G5, 120 }, 
	{ NOTE_E5, 240 }, 
	{ NOTE_G5, 240 }, 
	{ NOTE_A5, 1920 }, 
	{ NOTE_B5, 480 }, 
	{ NOTE_E3, 240 }, 
	{ NOTE_E3, 240 }, 
	{ NOTE_E3, 240 }, 
	{ NOTE_E3, 240 }, 
	{ NOTE_E3, 240 }, 
	{ NOTE_E3, 240 }, 
	{ NOTE_F3, 240 }, 
	{ NOTE_E3, 240 }, 
	{ NOTE_E3, 240 }, 
	{ NOTE_E3, 240 }, 
	{ NOTE_E3, 240 }, 
	{ NOTE_E3, 240 }, 
	{ NOTE_E3, 240 }, 
	{ NOTE_E3, 240 }, 
	{ NOTE_F3, 240 }, 
	{ NOTE_E3, 240 }, 
	{ NOTE_E3, 240 }, 
	{ NOTE_E3, 240 }, 
	{ NOTE_E3, 240 }, 
	{ NOTE_E3, 240 }, 
	{ NOTE_E3, 240 }, 
	{ NOTE_E3, 240 }, 
	{ NOTE_G3, 480 }, 
	{ NOTE_REST, 240 }, 
	{ NOTE_G5, 480 }, 
	{ NOTE_G5, 480 }, 
	{ NOTE_G5, 240 }, 
	{ NOTE_E5, 720 }, 
	{ NOTE_E3, 240 }, 
	{ NOTE_E3, 240 }, 
	{ NOTE_E3, 240 }, 
	{ NOTE_E3, 240 }, 
	{ NOTE_E3, 240 }, 
	{ NOTE_F3, 240 }, 
	{ NOTE_E3, 240 }, 
	{ NOTE_E3, 240 }, 
	{ NOTE_E3, 240 }, 
	{ NOTE_E3, 240 }, 
	{ NOTE_E3, 240 }, 
	{ NOTE_E3, 240 }, 
	{ NOTE_E3, 240 }, 
	{ NOTE_F3, 240 }, 
	{ NOTE_E3, 240 }, 
	{ NOTE_E3, 240 }, 
	{ NOTE_E3, 240 }, 
	{ NOTE_E3, 240 }, 
	{ NOTE_E3, 240 }, 
	{ NOTE_E3, 240 }, 
	{ NOTE_E3, 240 }, 
	{ NOTE_G3, 480 }, 
	{ NOTE_E3, 240 }, 
	{ NOTE_FS3, 240 }, 
	{ NOTE_E3, 240 }, 
	{ NOTE_FS3, 240 }, 
	{ NOTE_G3, 240 }, 
	{ NOTE_FS3, 240 }, 
	{ NOTE_E3, 480 }, 
	{ NOTE_FS4, 240 }, 
	{ NOTE_A4, 240 }, 
	{ NOTE_C4, 240 }, 
	{ NOTE_B3, 480 }, 
	{ NOTE_FS4, 240 }, 
	{ NOTE_FS3, 480 }, 
	{ NOTE_FS4, 240 }, 
	{ NOTE_A4, 240 }, 
	{ NOTE_C4, 240 }, 
	{ NOTE_B3, 480 }, 
	{ NOTE_FS4, 240 }, 
	{ NOTE_FS3, 480 }, 
	{ NOTE_FS4, 240 }, 
	{ NOTE_A4, 240 }, 
	{ NOTE_C4, 240 }, 
	{ NOTE_B3, 480 }, 
	{ NOTE_FS4, 240 }, 
	{ NOTE_FS3, 480 }, 
	{ NOTE_FS4, 240 }, 
	{ NOTE_A4, 240 }, 
	{ NOTE_C4, 240 }, 
	{ NOTE_B3, 480 }, 
	{ NOTE_FS4, 480 }, 
	{ NOTE_FS3, 480 }, 
	{ NOTE_CS4, 240 }, 
	{ NOTE_C4, 240 }, 
	{ NOTE_B3, 720 }, 
	{ NOTE_FS3, 720 }, 
	{ NOTE_CS4, 240 }, 
	{ NOTE_C4, 240 }, 
	{ NOTE_B3, 720 }, 
	{ NOTE_FS3, 720 }, 
	{ NOTE_CS4, 240 }, 
	{ NOTE_C4, 240 }, 
	{ NOTE_B3, 720 }, 
	{ NOTE_E3, 720 }, 
	{ NOTE_G4, 240 }, 
	{ NOTE_E4, 240 }, 
	{ NOTE_G4, 240 }, 
	{ NOTE_E4, 240 }, 
	{ NOTE_A4, 240 }, 
	{ NOTE_B4, 240 }, 
	{ NOTE_FS3, 480 }, 
	{ NOTE_CS4, 240 }, 
	{ NOTE_C4, 240 }, 
	{ NOTE_B3, 720 }, 
	{ NOTE_E3, 720 }, 
	{ NOTE_G4, 240 }, 
	{ NOTE_E4, 240 }, 
	{ NOTE_G4, 240 }, 
	{ NOTE_E4, 240 }, 
	{ NOTE_A4, 240 }, 
	{ NOTE_E4, 240 }, 
	{ NOTE_REST, 1440 }, 
	{ NOTE_REST, 240 }, 
	{ NOTE_E3, 1920 }, 
	{ NOTE_A5, 480 }, 
	{ NOTE_A5, 240 }, 
	{ NOTE_A5, 240 }, 
	{ NOTE_A5, 240 }, 
	{ NOTE_A5, 240 }, 
	{ NOTE_A5, 480 }, 
	{ NOTE_A5, 480 }, 
	{ NOTE_B5, 240 }, 
	{ NOTE_B5, 240 }, 
	{ NOTE_A5, 120 }, 
	{ NOTE_G5, 120 }, 
	{ NOTE_D6, 480 }, 
	{ NOTE_D6, 480 }, 
	{ NOTE_G5, 120 }, 
	{ NOTE_A5, 120 }, 
	{ NOTE_A5, 120 }, 
	{ NOTE_A5, 120 }, 
	{ NOTE_A5, 120 }, 
	{ NOTE_G5, 120 }, 
	{ NOTE_G5, 120 }, 
	{ NOTE_G5, 120 }, 
	{ NOTE_G5, 120 }, 
	{ NOTE_A5, 120 }, 
	{ NOTE_A5, 120 }, 
	{ NOTE_A5, 120 }, 
	{ NOTE_A5, 120 }, 
	{ NOTE_G5, 120 }, 
	{ NOTE_G5, 120 }, 
	{ NOTE_G5, 120 }, 
	{ NOTE_A5, 120 }, 
	{ NOTE_G5, 120 }, 
	{ NOTE_E5, 240 }, 
	{ NOTE_E5, 120 }, 
	{ NOTE_D5, 120 }, 
	{ NOTE_B4, 240 }, 
	{ NOTE_B4, 120 }, 
	{ NOTE_A4, 120 }, 
	{ NOTE_G4, 240 }, 
	{ NOTE_E4, 480 }, 
	{ NOTE_D6, 120 }, 
	{ NOTE_E6, 120 }, 
	{ NOTE_E6, 120 }, 
	{ NOTE_E6, 120 }, 
	{ NOTE_D6, 120 }, 
	{ NOTE_E6, 120 }, 
	{ NOTE_E6, 120 }, 
	{ NOTE_E6, 120 }, 
	{ NOTE_D6, 120 }, 
	{ NOTE_E6, 120 }, 
	{ NOTE_E6, 120 }, 
	{ NOTE_E6, 120 }, 
	{ NOTE_D6, 120 }, 
	{ NOTE_E6, 120 }, 
	{ NOTE_E6, 120 }, 
	{ NOTE_E6, 120 }, 
	{ NOTE_D6, 120 }, 
	{ NOTE_E6, 120 }, 
	{ NOTE_E6, 120 }, 
	{ NOTE_E6, 60 }, 
	{ NOTE_G6, 60 }, 
	{ NOTE_E6, 120 }, 
	{ NOTE_E6, 60 }, 
	{ NOTE_G6, 60 }, 
	{ NOTE_E6, 120 }, 
	{ NOTE_E6, 60 }, 
	{ NOTE_G6, 60 }, 
	{ NOTE_E6, 120 }, 
	{ NOTE_E6, 120 }, 
	{ NOTE_E6, 120 }, 
	{ NOTE_G6, 120 }, 
	{ NOTE_E6, 120 }, 
	{ NOTE_E6, 120 }, 
	{ NOTE_FS6, 120 }, 
	{ NOTE_FS6, 120 }, 
	{ NOTE_A6, 120 }, 
	{ NOTE_FS6, 120 }, 
	{ NOTE_D6, 120 }, 
	{ NOTE_A6, 120 }, 
	{ NOTE_FS6, 120 }, 
	{ NOTE_D6, 120 }, 
	{ NOTE_A6, 120 }, 
	{ NOTE_FS6, 120 }, 
	{ NOTE_B6, 120 }, 
	{ NOTE_G6, 120 }, 
	{ NOTE_E6, 120 }, 
	{ NOTE_B6, 120 }, 
	{ NOTE_G6, 120 }, 
	{ NOTE_E6, 120 }, 
	{ NOTE_B6, 120 }, 
	{ NOTE_G6, 120 }, 
	{ NOTE_CS7, 120 }, 
	{ NOTE_A6, 120 }, 
	{ NOTE_E6, 120 }, 
	{ NOTE_CS7, 120 }, 
	{ NOTE_A6, 120 }, 
	{ NOTE_E6, 60 }, 
	{ NOTE_CS7, 60 }, 
	{ NOTE_A6, 120 }, 
	{ NOTE_E6, 120 }, 
	{ NOTE_D7, 480 }, 
	{ NOTE_REST, 240 }, 
	{ NOTE_E5, 720 }, 
	{ NOTE_E5, 720 }, 
	{ NOTE_E5, 720 }, 
	{ NOTE_E5, 480 }, 
	{ NOTE_E5, 480 }, 
	{ NOTE_D5, 120 }, 
	{ NOTE_B4, 360 }, 
	{ NOTE_A4, 120 }, 
	{ NOTE_B4, 120 }, 
	{ NOTE_D5, 120 }, 
	{ NOTE_A5, 600 }, 
	{ NOTE_A5, 120 }, 
	{ NOTE_G5, 120 }, 
	{ NOTE_FS5, 120 }, 
	{ NOTE_E5, 120 }, 
	{ NOTE_G5, 120 }, 
	{ NOTE_FS5, 120 }, 
	{ NOTE_E5, 120 }, 
	{ NOTE_FS5, 120 }, 
	{ NOTE_E5, 120 }, 
	{ NOTE_D5, 120 }, 
	{ NOTE_B4, 120 }, 
	{ NOTE_D5, 120 }, 
	{ NOTE_E5, 120 }, 
	{ NOTE_D5, 120 }, 
	{ NOTE_B4, 120 }, 
	{ NOTE_A4, 120 }, 
	{ NOTE_FS4, 120 }, 
	{ NOTE_A4, 120 }, 
	{ NOTE_B4, 120 }, 
	{ NOTE_A4, 120 }, 
	{ NOTE_FS4, 120 }, 
	{ NOTE_F4, 120 }, 
	{ NOTE_E4, 120 }, 
	{ NOTE_D4, 120 }, 
	{ NOTE_B3, 480 }, 
	{ NOTE_B5, 240 }, 
	{ NOTE_A5, 240 }, 
	{ NOTE_FS5, 360 }, 
	{ NOTE_A5, 120 }, 
	{ NOTE_B5, 240 }, 
	{ NOTE_A5, 240 }, 
	{ NOTE_FS5, 360 }, 
	{ NOTE_A5, 120 }, 
	{ NOTE_B5, 240 }, 
	{ NOTE_A5, 240 }, 
	{ NOTE_FS5, 360 }, 
	{ NOTE_A5, 120 }, 
	{ NOTE_B5, 240 }, 
	{ NOTE_A5, 240 }, 
	{ NOTE_FS5, 240 }, 
	{ NOTE_FS5, 120 }, 
	{ NOTE_A5, 120 }, 
	{ NOTE_B5, 240 }, 
	{ NOTE_E6, 120 }, 
	{ NOTE_B5, 240 }, 
	{ NOTE_E6, 120 }, 
	{ NOTE_B5, 720 }, 
	{ NOTE_E6, 240 }, 
	{ NOTE_B5, 2160 }, 
	{ NOTE_CS7, 120 }, 
	{ NOTE_A6, 120 }, 
	{ NOTE_E6, 120 }, 
	{ NOTE_CS7, 120 }, 
	{ NOTE_A6, 120 }, 
	{ NOTE_E6, 120 }, 
	{ NOTE_CS7, 60 }, 
	{ NOTE_A6, 60 }, 
	{ NOTE_E6, 120 }, 
	{ NOTE_CS7, 120 }, 
	{ NOTE_A6, 120 }, 
	{ NOTE_E6, 120 }, 
	{ NOTE_CS7, 120 }, 
	{ NOTE_A6, 120 }, 
	{ NOTE_E6, 120 }, 
	{ NOTE_CS7, 60 }, 
	{ NOTE_A6, 60 }, 
	{ NOTE_E6, 120 }, 
	{ NOTE_D7, 240 }, 
	{ NOTE_D7, 120 }, 
	{ NOTE_D7, 120 }, 
	{ NOTE_D7, 240 }, 
	{ NOTE_D7, 120 }, 
	{ NOTE_D7, 120 }, 
	{ NOTE_D7, 960 }, 
	{ NOTE_REST, 240 }, 
	{ NOTE_A5, 80 }, 
	{ NOTE_G5, 80 }, 
	{ NOTE_FS5, 80 }, 
	{ NOTE_E5, 240 }, 
	{ NOTE_E5, 120 }, 
	{ NOTE_D5, 120 }, 
	{ NOTE_B4, 240 }, 
	{ NOTE_B4, 120 }, 
	{ NOTE_A4, 120 }, 
	{ NOTE_G4, 240 }, 
	{ NOTE_A4, 240 }, 
	{ NOTE_G4, 120 }, 
	{ NOTE_E4, 1560 }, 
	{ NOTE_D4, 120 }, 
	{ NOTE_E4, 120 }, 
	{ NOTE_CS4, 1680 }, 
	{ NOTE_A3, 240 }, 
	{ NOTE_B3, 480 }, 
	{ NOTE_B3, 240 }, 
	{ NOTE_B3, 240 }, 
	{ NOTE_B3, 240 }, 
	{ NOTE_B3, 240 }, 
	{ NOTE_B3, 240 }, 
	{ NOTE_B3, 240 }, 
	{ NOTE_B3, 240 }, 
	{ NOTE_B3, 240 }, 
	{ NOTE_B3, 240 }, 
	{ NOTE_B3, 240 }, 
	{ NOTE_B3, 240 }, 
	{ NOTE_B3, 240 }, 
	{ NOTE_B3, 240 }, 
	{ NOTE_E3, 240 }, 
	{ NOTE_REST, 1920 }, 
	{ NOTE_REST, 1920 }, 
	{ NOTE_REST, 1920 }, 
	{ NOTE_REST, 1920 }, 
	{ NOTE_REST, 1920 }, 
	{ NOTE_REST, 1920 }, 
	{ NOTE_REST, 1920 }, 
	{ NOTE_REST, 1440 }, 
	{ NOTE_REST, 240 }, 
	{ NOTE_FS3, 480 }, 
	{ NOTE_FS4, 240 }, 
	{ NOTE_A4, 240 }, 
	{ NOTE_C4, 240 }, 
	{ NOTE_B3, 480 }, 
	{ NOTE_FS4, 240 }, 
	{ NOTE_FS3, 480 }, 
	{ NOTE_FS4, 240 }, 
	{ NOTE_A4, 240 }, 
	{ NOTE_C4, 240 }, 
	{ NOTE_B3, 480 }, 
	{ NOTE_FS4, 240 }, 
	{ NOTE_FS3, 480 }, 
	{ NOTE_FS4, 240 }, 
	{ NOTE_A4, 240 }, 
	{ NOTE_C4, 240 }, 
	{ NOTE_B3, 480 }, 
	{ NOTE_FS4, 240 }, 
	{ NOTE_FS3, 480 }, 
	{ NOTE_FS4, 240 }, 
	{ NOTE_A4, 240 }, 
	{ NOTE_C4, 240 }, 
	{ NOTE_B3, 480 }, 
	{ NOTE_FS4, 240 }, 
	{ NOTE_FS3, 480 }, 
	{ NOTE_FS4, 240 }, 
	{ NOTE_A4, 240 }, 
	{ NOTE_C4, 240 }, 
	{ NOTE_B3, 480 }, 
	{ NOTE_FS4, 240 }, 
	{ NOTE_FS3, 480 }, 
	{ NOTE_FS4, 240 }, 
	{ NOTE_A4, 240 }, 
	{ NOTE_C4, 240 }, 
	{ NOTE_B3, 480 }, 
	{ NOTE_FS4, 240 }, 
	{ NOTE_FS3, 480 }, 
	{ NOTE_FS4, 240 }, 
	{ NOTE_A4, 240 }, 
	{ NOTE_C4, 240 }, 
	{ NOTE_B3, 480 }, 
	{ NOTE_FS4, 240 }, 
	{ NOTE_FS3, 480 }, 
	{ NOTE_FS4, 240 }, 
	{ NOTE_A4, 240 }, 
	{ NOTE_C4, 240 }, 
	{ NOTE_B3, 480 }, 
	{ NOTE_FS4, 480 }, 
	{ NOTE_FS3, 480 }, 
	{ NOTE_CS4, 240 }, 
	{ NOTE_C4, 240 }, 
	{ NOTE_B3, 720 }, 
	{ NOTE_FS3, 720 }, 
	{ NOTE_CS4, 240 }, 
	{ NOTE_C4, 240 }, 
	{ NOTE_B3, 720 }, 
	{ NOTE_FS3, 720 }, 
	{ NOTE_CS4, 240 }, 
	{ NOTE_C4, 240 }, 
	{ NOTE_B3, 720 }, 
	{ NOTE_E3, 720 }, 
	{ NOTE_G4, 240 }, 
	{ NOTE_E4, 240 }, 
	{ NOTE_G4, 240 }, 
	{ NOTE_E4, 240 }, 
	{ NOTE_A4, 240 }, 
	{ NOTE_B4, 240 }, 
	{ NOTE_FS3, 480 }, 
	{ NOTE_CS4, 240 }, 
	{ NOTE_C4, 240 }, 
	{ NOTE_B3, 720 }, 
	{ NOTE_E3, 1680 }, 
	{ NOTE_E3, 240 }, 
	{ NOTE_E3, 240 }, 
	{ NOTE_FS3, 480 }, 
	{ NOTE_CS4, 240 }, 
	{ NOTE_C4, 240 }, 
	{ NOTE_B3, 720 }, 
	{ NOTE_FS3, 720 }, 
	{ NOTE_CS4, 240 }, 
	{ NOTE_C4, 240 }, 
	{ NOTE_B3, 720 }, 
	{ NOTE_FS3, 720 }, 
	{ NOTE_CS4, 240 }, 
	{ NOTE_C4, 240 }, 
	{ NOTE_B3, 720 }, 
	{ NOTE_E3, 720 }, 
	{ NOTE_G4, 240 }, 
	{ NOTE_E4, 240 }, 
	{ NOTE_G4, 240 }, 
	{ NOTE_E4, 240 }, 
	{ NOTE_A4, 240 }, 
	{ NOTE_B4, 240 }, 
	{ NOTE_FS3, 480 }, 
	{ NOTE_CS4, 240 }, 
	{ NOTE_C4, 240 }, 
	{ NOTE_B3, 720 }, 
	{ NOTE_E3, 720 }, 
	{ NOTE_G4, 240 }, 
	{ NOTE_E4, 240 }, 
	{ NOTE_G4, 240 }, 
	{ NOTE_E4, 240 }, 
	{ NOTE_A4, 240 }, 
	{ NOTE_E4, 240 }, 
	{ NOTE_REST, 1440 }, 
	{ NOTE_REST, 240 }, 
	{ NOTE_E3, 7680 }, 
	{ NOTE_E3, 480 }, 
	{ NOTE_E3, 240 }, 
	{ NOTE_E4, 240 }, 
	{ NOTE_BB3, 240 }, 
	{ NOTE_A3, 480 }, 
	{ NOTE_E3, 240 }, 
	{ NOTE_E3, 480 }, 
	{ NOTE_E3, 240 }, 
	{ NOTE_E4, 240 }, 
	{ NOTE_BB3, 240 }, 
	{ NOTE_A3, 480 }, 
	{ NOTE_E3, 240 }, 
	{ NOTE_E3, 480 }, 
	{ NOTE_E3, 240 }, 
	{ NOTE_E4, 240 }, 
	{ NOTE_BB3, 240 }, 
	{ NOTE_A3, 480 }, 
	{ NOTE_E3, 240 }, 
	{ NOTE_E3, 480 }, 
	{ NOTE_E3, 240 }, 
	{ NOTE_E4, 240 }, 
	{ NOTE_BB3, 240 }, 
	{ NOTE_A3, 480 }, 
	{ NOTE_E3, 240 }, 
	{ NOTE_E3, 480 }, 
	{ NOTE_E3, 240 }, 
	{ NOTE_E4, 240 }, 
	{ NOTE_BB3, 240 }, 
	{ NOTE_A3, 480 }, 
	{ NOTE_E3, 240 }, 
	{ NOTE_G3, 480 }, 
	{ NOTE_E3, 240 }, 
	{ NOTE_FS3, 240 }, 
	{ NOTE_E3, 240 }, 
	{ NOTE_FS3, 240 }, 
	{ NOTE_G3, 240 }, 
	{ NOTE_FS3, 240 }, 
	{ NOTE_E3, 240 }, 
	{ NOTE_E3, 240 }, 
	{ NOTE_E3, 240 }, 
	{ NOTE_E4, 240 }, 
	{ NOTE_BB3, 240 }, 
	{ NOTE_A3, 240 }, 
	{ NOTE_E3, 240 }, 
	{ NOTE_E3, 240 }, 
	{ NOTE_F3, 240 }, 
	{ NOTE_E3, 240 }, 
	{ NOTE_E3, 240 }, 
	{ NOTE_E4, 240 }, 
	{ NOTE_BB3, 240 }, 
	{ NOTE_A3, 240 }, 
	{ NOTE_E3, 240 }, 
	{ NOTE_E3, 240 }, 
	{ NOTE_F3, 240 }, 
	{ NOTE_E3, 240 }, 
	{ NOTE_E3, 240 }, 
	{ NOTE_E4, 240 }, 
	{ NOTE_BB3, 240 }, 
	{ NOTE_A3, 240 }, 
	{ NOTE_E3, 240 }, 
	{ NOTE_E3, 240 }, 
	{ NOTE_F3, 240 }, 
	{ NOTE_E3, 240 }, 
	{ NOTE_E3, 240 }, 
	{ NOTE_E4, 240 }, 
	{ NOTE_BB3, 240 }, 
	{ NOTE_A3, 240 }, 
	{ NOTE_E3, 240 }, 
	{ NOTE_E3, 240 }, 
	{ NOTE_F3, 240 }, 
	{ NOTE_E3, 240 }, 
	{ NOTE_E3, 240 }, 
	{ NOTE_E4, 240 }, 
	{ NOTE_BB3, 240 }, 
	{ NOTE_E3, 240 }, 
	{ NOTE_E3, 240 }, 
	{ NOTE_E3, 240 }, 
	{ NOTE_F3, 240 }, 
	{ NOTE_E3, 240 }, 
	{ NOTE_E3, 240 }, 
	{ NOTE_E4, 240 }, 
	{ NOTE_BB3, 240 }, 
	{ NOTE_E3, 240 }, 
	{ NOTE_E3, 240 }, 
	{ NOTE_E3, 240 }, 
	{ NOTE_F3, 240 }, 
	{ NOTE_E3, 240 }, 
	{ NOTE_E3, 240 }, 
	{ NOTE_E4, 240 }, 
	{ NOTE_BB3, 240 }, 
	{ NOTE_E3, 240 }, 
	{ NOTE_E3, 240 }, 
	{ NOTE_E3, 240 }, 
	{ NOTE_F3, 240 }, 
	{ NOTE_E3, 240 }, 
	{ NOTE_E3, 240 }, 
	{ NOTE_E4, 240 }, 
	{ NOTE_BB3, 240 }, 
	{ NOTE_E3, 240 }, 
	{ NOTE_E3, 240 }, 
	{ NOTE_E3, 240 }, 
	{ NOTE_F3, 240 }, 
	{ NOTE_E3, 240 }, 
	{ NOTE_E3, 240 }, 
	{ NOTE_E4, 240 }, 
	{ NOTE_BB3, 240 }, 
	{ NOTE_E3, 240 }, 
	{ NOTE_E3, 240 }, 
	{ NOTE_E3, 240 }, 
	{ NOTE_F3, 240 }, 
	{ NOTE_E3, 240 }, 
	{ NOTE_E3, 240 }, 
	{ NOTE_E4, 240 }, 
	{ NOTE_BB3, 240 }, 
	{ NOTE_E3, 240 }, 
	{ NOTE_E3, 240 }, 
	{ NOTE_E3, 240 }, 
	{ NOTE_F3, 240 }, 
	{ NOTE_E3, 240 }, 
	{ NOTE_E3, 240 }, 
	{ NOTE_E4, 240 }, 
	{ NOTE_BB3, 240 }, 
	{ NOTE_E3, 240 }, 
	{ NOTE_E3, 240 }, 
	{ NOTE_E3, 240 }, 
	{ NOTE_F3, 240 }, 
	{ NOTE_E3, 240 }, 
	{ NOTE_E3, 240 }, 
	{ NOTE_E4, 240 }, 
	{ NOTE_BB3, 240 }, 
	{ NOTE_E3, 240 }, 
	{ NOTE_E3, 240 }, 
	{ NOTE_E3, 240 }, 
	{ NOTE_F3, 240 }, 
	{ NOTE_E3, 240 }, 
	{ NOTE_E3, 240 }, 
	{ NOTE_E3, 240 }, 
	{ NOTE_BB3, 240 }, 
	{ NOTE_A3, 240 }, 
	{ NOTE_G5, 240 }, 
	{ NOTE_FS5, 80 }, 
	{ NOTE_G5, 80 }, 
	{ NOTE_FS5, 80 }, 
	{ NOTE_D5, 240 }, 
	{ NOTE_D5, 80 }, 
	{ NOTE_E5, 80 }, 
	{ NOTE_D5, 80 }, 
	{ NOTE_B4, 240 }, 
	{ NOTE_A4, 240 }, 
	{ NOTE_FS4, 240 }, 
	{ NOTE_A4, 240 }, 
	{ NOTE_A4, 240 }, 
	{ NOTE_REST, 240 }, 
	{ NOTE_B4, 4080 }, 
	{ NOTE_E3, 240 }, 
	{ NOTE_E3, 240 }, 
	{ NOTE_E4, 240 }, 
	{ NOTE_BB3, 240 }, 
	{ NOTE_E3, 240 }, 
	{ NOTE_E3, 240 }, 
	{ NOTE_E3, 240 }, 
	{ NOTE_E3, 240 }, 
	{ NOTE_E3, 240 }, 
	{ NOTE_E3, 240 }, 
	{ NOTE_E4, 240 }, 
	{ NOTE_BB3, 240 }, 
	{ NOTE_E3, 240 }, 
	{ NOTE_E3, 240 }, 
	{ NOTE_E3, 240 }, 
	{ NOTE_E3, 240 }, 
	{ NOTE_E3, 240 }, 
	{ NOTE_E3, 240 }, 
	{ NOTE_E4, 240 }, 
	{ NOTE_BB3, 240 }, 
	{ NOTE_E3, 240 }, 
	{ NOTE_E3, 240 }, 
	{ NOTE_E3, 240 }, 
	{ NOTE_E3, 240 }, 
	{ NOTE_E3, 240 }, 
	{ NOTE_E3, 240 }, 
	{ NOTE_E4, 240 }, 
	{ NOTE_BB3, 240 }, 
	{ NOTE_E3, 240 }, 
	{ NOTE_E3, 240 }, 
	{ NOTE_E3, 240 }, 
	{ NOTE_E3, 240 }, 
	{ NOTE_E3, 240 }, 
	{ NOTE_E3, 240 }, 
	{ NOTE_E4, 240 }, 
	{ NOTE_BB3, 240 }, 
	{ NOTE_E3, 240 }, 
	{ NOTE_E3, 240 }, 
	{ NOTE_E3, 240 }, 
	{ NOTE_E3, 240 }, 
	{ NOTE_E3, 240 }, 
	{ NOTE_E3, 240 }, 
	{ NOTE_E4, 240 }, 
	{ NOTE_BB3, 240 }, 
	{ NOTE_E3, 240 }, 
	{ NOTE_E3, 240 }, 
	{ NOTE_E3, 240 }, 
	{ NOTE_E3, 240 }, 
	{ NOTE_E3, 1920 }, 
};
const uint16_t NUM_OF_NOTES3 = sizeof(melody3)/sizeof(melody3[0]);

const Note melody4[] PROGMEM = {
	{ NOTE_REST, 480 }, 
	{ NOTE_REST, 1920 }, 
	{ NOTE_REST, 1920 }, 
	{ NOTE_REST, 1920 }, 
	{ NOTE_REST, 1920 }, 
	{ NOTE_REST, 1920 }, 
	{ NOTE_REST, 1920 }, 
	{ NOTE_REST, 1920 }, 
	{ NOTE_REST, 1920 }, 
	{ NOTE_E3, 240 }, 
	{ NOTE_E3, 240 }, 
	{ NOTE_E3, 240 }, 
	{ NOTE_E3, 240 }, 
	{ NOTE_E3, 240 }, 
	{ NOTE_E3, 240 }, 
	{ NOTE_E3, 240 }, 
	{ NOTE_E3, 240 }, 
	{ NOTE_E3, 240 }, 
	{ NOTE_E3, 240 }, 
	{ NOTE_E3, 240 }, 
	{ NOTE_E3, 240 }, 
	{ NOTE_E3, 240 }, 
	{ NOTE_E3, 240 }, 
	{ NOTE_E3, 240 }, 
	{ NOTE_E3, 240 }, 
	{ NOTE_E3, 240 }, 
	{ NOTE_E3, 240 }, 
	{ NOTE_E3, 240 }, 
	{ NOTE_E3, 240 }, 
	{ NOTE_E3, 240 }, 
	{ NOTE_E3, 240 }, 
	{ NOTE_E3, 240 }, 
	{ NOTE_E3, 240 }, 
	{ NOTE_E3, 240 }, 
	{ NOTE_E3, 240 }, 
	{ NOTE_E3, 240 }, 
	{ NOTE_E3, 240 }, 
	{ NOTE_E3, 240 }, 
	{ NOTE_E3, 240 }, 
	{ NOTE_E3, 240 }, 
	{ NOTE_E3, 240 }, 
	{ NOTE_E3, 240 }, 
	{ NOTE_E3, 240 }, 
	{ NOTE_E3, 240 }, 
	{ NOTE_E3, 240 }, 
	{ NOTE_E3, 240 }, 
	{ NOTE_E3, 240 }, 
	{ NOTE_E3, 240 }, 
	{ NOTE_F3, 240 }, 
	{ NOTE_E3, 240 }, 
	{ NOTE_E3, 240 }, 
	{ NOTE_E3, 240 }, 
	{ NOTE_E3, 240 }, 
	{ NOTE_E3, 240 }, 
	{ NOTE_E3, 240 }, 
	{ NOTE_E3, 240 }, 
	{ NOTE_F3, 240 }, 
	{ NOTE_E3, 240 }, 
	{ NOTE_E3, 240 }, 
	{ NOTE_E3, 240 }, 
	{ NOTE_E3, 240 }, 
	{ NOTE_E3, 240 }, 
	{ NOTE_E3, 240 }, 
	{ NOTE_E3, 240 }, 
	{ NOTE_F3, 240 }, 
	{ NOTE_E3, 240 }, 
	{ NOTE_E3, 240 }, 
	{ NOTE_E3, 240 }, 
	{ NOTE_E3, 240 }, 
	{ NOTE_E3, 240 }, 
	{ NOTE_E3, 240 }, 
	{ NOTE_E3, 240 }, 
	{ NOTE_F3, 240 }, 
	{ NOTE_E3, 240 }, 
	{ NOTE_E3, 240 }, 
	{ NOTE_E3, 240 }, 
	{ NOTE_BB3, 240 }, 
	{ NOTE_E3, 240 }, 
	{ NOTE_E3, 240 }, 
	{ NOTE_E3, 240 }, 
	{ NOTE_F3, 240 }, 
	{ NOTE_E3, 240 }, 
	{ NOTE_E3, 240 }, 
	{ NOTE_E3, 240 }, 
	{ NOTE_BB3, 240 }, 
	{ NOTE_E3, 240 }, 
	{ NOTE_E3, 240 }, 
	{ NOTE_E3, 240 }, 
	{ NOTE_F3, 240 }, 
	{ NOTE_E3, 240 }, 
	{ NOTE_E3, 240 }, 
	{ NOTE_E3, 240 }, 
	{ NOTE_BB3, 240 }, 
	{ NOTE_E3, 240 }, 
	{ NOTE_E3, 240 }, 
	{ NOTE_E3, 240 }, 
	{ NOTE_F3, 240 }, 
	{ NOTE_E3, 240 }, 
	{ NOTE_E3, 240 }, 
	{ NOTE_E3, 240 }, 
	{ NOTE_E4, 480 }, 
	{ NOTE_E4, 480 }, 
	{ NOTE_E3, 240 }, 
	{ NOTE_E3, 240 }, 
	{ NOTE_E3, 240 }, 
	{ NOTE_E3, 240 }, 
	{ NOTE_BB3, 240 }, 
	{ NOTE_A3, 240 }, 
	{ NOTE_E3, 240 }, 
	{ NOTE_E3, 240 }, 
	{ NOTE_F3, 240 }, 
	{ NOTE_E3, 240 }, 
	{ NOTE_E3, 240 }, 
	{ NOTE_E3, 240 }, 
	{ NOTE_BB3, 240 }, 
	{ NOTE_A3, 240 }, 
	{ NOTE_E3, 240 }, 
	{ NOTE_E3, 240 }, 
	{ NOTE_F3, 240 }, 
	{ NOTE_E3, 240 }, 
	{ NOTE_E3, 240 }, 
	{ NOTE_E3, 240 }, 
	{ NOTE_BB3, 240 }, 
	{ NOTE_A3, 240 }, 
	{ NOTE_E3, 240 }, 
	{ NOTE_E3, 240 }, 
	{ NOTE_F3, 240 }, 
	{ NOTE_E3, 240 }, 
	{ NOTE_E3, 240 }, 
	{ NOTE_E3, 240 }, 
	{ NOTE_BB3, 240 }, 
	{ NOTE_A3, 240 }, 
	{ NOTE_E3, 240 }, 
	{ NOTE_E3, 240 }, 
	{ NOTE_F3, 240 }, 
	{ NOTE_E3, 240 }, 
	{ NOTE_E3, 240 }, 
	{ NOTE_E3, 240 }, 
	{ NOTE_BB3, 240 }, 
	{ NOTE_A3, 240 }, 
	{ NOTE_E3, 240 }, 
	{ NOTE_E3, 240 }, 
	{ NOTE_F3, 240 }, 
	{ NOTE_E3, 240 }, 
	{ NOTE_E3, 240 }, 
	{ NOTE_E3, 240 }, 
	{ NOTE_BB3, 240 }, 
	{ NOTE_A3, 240 }, 
	{ NOTE_E3, 240 }, 
	{ NOTE_E3, 240 }, 
	{ NOTE_F3, 240 }, 
	{ NOTE_E3, 240 }, 
	{ NOTE_E3, 240 }, 
	{ NOTE_E3, 240 }, 
	{ NOTE_E3, 240 }, 
	{ NOTE_E3, 240 }, 
	{ NOTE_E3, 240 }, 
	{ NOTE_E3, 240 }, 
	{ NOTE_E3, 240 }, 
	{ NOTE_E3, 240 }, 
	{ NOTE_E3, 240 }, 
	{ NOTE_E3, 240 }, 
	{ NOTE_E3, 240 }, 
	{ NOTE_E3, 240 }, 
	{ NOTE_E3, 240 }, 
	{ NOTE_E3, 240 }, 
	{ NOTE_E3, 480 }, 
	{ NOTE_E3, 240 }, 
	{ NOTE_E4, 240 }, 
	{ NOTE_BB3, 240 }, 
	{ NOTE_A3, 480 }, 
	{ NOTE_E3, 240 }, 
	{ NOTE_E3, 480 }, 
	{ NOTE_E3, 240 }, 
	{ NOTE_E4, 240 }, 
	{ NOTE_BB3, 240 }, 
	{ NOTE_A3, 480 }, 
	{ NOTE_E3, 240 }, 
	{ NOTE_E3, 480 }, 
	{ NOTE_E3, 240 }, 
	{ NOTE_E4, 240 }, 
	{ NOTE_BB3, 240 }, 
	{ NOTE_A3, 480 }, 
	{ NOTE_E3, 240 }, 
	{ NOTE_G3, 480 }, 
	{ NOTE_E3, 240 }, 
	{ NOTE_FS3, 240 }, 
	{ NOTE_E3, 240 }, 
	{ NOTE_FS3, 240 }, 
	{ NOTE_G3, 240 }, 
	{ NOTE_FS3, 240 }, 
	{ NOTE_E3, 480 }, 
	{ NOTE_E3, 240 }, 
	{ NOTE_E4, 240 }, 
	{ NOTE_BB3, 240 }, 
	{ NOTE_A3, 480 }, 
	{ NOTE_E3, 240 }, 
	{ NOTE_E3, 480 }, 
	{ NOTE_E3, 240 }, 
	{ NOTE_E4, 240 }, 
	{ NOTE_BB3, 240 }, 
	{ NOTE_A3, 480 }, 
	{ NOTE_E3, 240 }, 
	{ NOTE_E3, 480 }, 
	{ NOTE_E3, 240 }, 
	{ NOTE_E4, 240 }, 
	{ NOTE_BB3, 240 }, 
	{ NOTE_A3, 480 }, 
	{ NOTE_E3, 240 }, 
	{ NOTE_G3, 480 }, 
	{ NOTE_E3, 240 }, 
	{ NOTE_FS3, 240 }, 
	{ NOTE_E3, 240 }, 
	{ NOTE_FS3, 240 }, 
	{ NOTE_G3, 240 }, 
	{ NOTE_FS3, 240 }, 
	{ NOTE_E3, 480 }, 
	{ NOTE_E3, 240 }, 
	{ NOTE_E3, 240 }, 
	{ NOTE_E3, 240 }, 
	{ NOTE_E3, 240 }, 
	{ NOTE_E3, 240 }, 
	{ NOTE_E3, 240 }, 
	{ NOTE_F3, 240 }, 
	{ NOTE_E3, 240 }, 
	{ NOTE_E3, 240 }, 
	{ NOTE_E3, 240 }, 
	{ NOTE_E3, 240 }, 
	{ NOTE_E3, 240 }, 
	{ NOTE_E3, 240 }, 
	{ NOTE_E3, 240 }, 
	{ NOTE_F3, 240 }, 
	{ NOTE_E3, 240 }, 
	{ NOTE_E3, 240 }, 
	{ NOTE_E3, 240 }, 
	{ NOTE_E3, 240 }, 
	{ NOTE_E3, 240 }, 
	{ NOTE_E3, 240 }, 
	{ NOTE_E3, 240 }, 
	{ NOTE_G3, 480 }, 
	{ NOTE_E3, 240 }, 
	{ NOTE_FS3, 240 }, 
	{ NOTE_E3, 240 }, 
	{ NOTE_FS3, 240 }, 
	{ NOTE_G3, 240 }, 
	{ NOTE_FS3, 240 }, 
	{ NOTE_E3, 480 }, 
	{ NOTE_E3, 240 }, 
	{ NOTE_E3, 240 }, 
	{ NOTE_E3, 240 }, 
	{ NOTE_E3, 240 }, 
	{ NOTE_E3, 240 }, 
	{ NOTE_E3, 240 }, 
	{ NOTE_F3, 240 }, 
	{ NOTE_E3, 240 }, 
	{ NOTE_E3, 240 }, 
	{ NOTE_E3, 240 }, 
	{ NOTE_E3, 240 }, 
	{ NOTE_E3, 240 }, 
	{ NOTE_E3, 240 }, 
	{ NOTE_E3, 240 }, 
	{ NOTE_F3, 240 }, 
	{ NOTE_E3, 240 }, 
	{ NOTE_E3, 240 }, 
	{ NOTE_E3, 240 }, 
	{ NOTE_E3, 240 }, 
	{ NOTE_E3, 240 }, 
	{ NOTE_E3, 240 }, 
	{ NOTE_E3, 240 }, 
	{ NOTE_G3, 480 }, 
	{ NOTE_E3, 240 }, 
	{ NOTE_FS3, 240 }, 
	{ NOTE_E3, 240 }, 
	{ NOTE_FS3, 240 }, 
	{ NOTE_G3, 240 }, 
	{ NOTE_FS3, 240 }, 
	{ NOTE_E3, 1200 }, 
	{ NOTE_B3, 720 }, 
	{ NOTE_FS3, 1200 }, 
	{ NOTE_B3, 720 }, 
	{ NOTE_FS3, 1200 }, 
	{ NOTE_B3, 720 }, 
	{ NOTE_FS3, 480 }, 
	{ NOTE_FS3, 240 }, 
	{ NOTE_FS3, 240 }, 
	{ NOTE_FS3, 240 }, 
	{ NOTE_FS3, 240 }, 
	{ NOTE_E3, 240 }, 
	{ NOTE_F3, 240 }, 
	{ NOTE_FS3, 240 }, 
	{ NOTE_FS3, 480 }, 
	{ NOTE_CS4, 240 }, 
	{ NOTE_C4, 240 }, 
	{ NOTE_B3, 720 }, 
	{ NOTE_FS3, 720 }, 
	{ NOTE_CS4, 240 }, 
	{ NOTE_C4, 240 }, 
	{ NOTE_B3, 720 }, 
	{ NOTE_FS3, 720 }, 
	{ NOTE_CS4, 240 }, 
	{ NOTE_C4, 240 }, 
	{ NOTE_B3, 720 }, 
	{ NOTE_E3, 2160 }, 
	{ NOTE_FS3, 480 }, 
	{ NOTE_CS4, 240 }, 
	{ NOTE_C4, 240 }, 
	{ NOTE_B3, 720 }, 
	{ NOTE_E3, 2160 }, 
	{ NOTE_REST, 1440 }, 
	{ NOTE_REST, 240 }, 
	{ NOTE_E3, 480 }, 
	{ NOTE_E3, 240 }, 
	{ NOTE_E4, 240 }, 
	{ NOTE_BB3, 240 }, 
	{ NOTE_A3, 480 }, 
	{ NOTE_E3, 240 }, 
	{ NOTE_E3, 480 }, 
	{ NOTE_E3, 240 }, 
	{ NOTE_E4, 240 }, 
	{ NOTE_BB3, 240 }, 
	{ NOTE_A3, 480 }, 
	{ NOTE_E3, 240 }, 
	{ NOTE_E3, 480 }, 
	{ NOTE_E3, 240 }, 
	{ NOTE_E4, 240 }, 
	{ NOTE_BB3, 240 }, 
	{ NOTE_A3, 480 }, 
	{ NOTE_E3, 240 }, 
	{ NOTE_G3, 480 }, 
	{ NOTE_E3, 240 }, 
	{ NOTE_FS3, 240 }, 
	{ NOTE_E3, 240 }, 
	{ NOTE_FS3, 240 }, 
	{ NOTE_G3, 240 }, 
	{ NOTE_FS3, 240 }, 
	{ NOTE_E3, 480 }, 
	{ NOTE_E3, 240 }, 
	{ NOTE_E4, 240 }, 
	{ NOTE_BB3, 240 }, 
	{ NOTE_A3, 480 }, 
	{ NOTE_E3, 240 }, 
	{ NOTE_E3, 480 }, 
	{ NOTE_E3, 240 }, 
	{ NOTE_E4, 240 }, 
	{ NOTE_BB3, 240 }, 
	{ NOTE_A3, 480 }, 
	{ NOTE_E3, 240 }, 
	{ NOTE_E3, 480 }, 
	{ NOTE_E3, 240 }, 
	{ NOTE_E4, 240 }, 
	{ NOTE_BB3, 240 }, 
	{ NOTE_A3, 480 }, 
	{ NOTE_E3, 240 }, 
	{ NOTE_G3, 480 }, 
	{ NOTE_E3, 240 }, 
	{ NOTE_FS3, 240 }, 
	{ NOTE_E3, 240 }, 
	{ NOTE_FS3, 240 }, 
	{ NOTE_G3, 240 }, 
	{ NOTE_FS3, 240 }, 
	{ NOTE_E3, 480 }, 
	{ NOTE_E3, 240 }, 
	{ NOTE_E3, 240 }, 
	{ NOTE_E3, 240 }, 
	{ NOTE_E3, 240 }, 
	{ NOTE_E3, 240 }, 
	{ NOTE_E3, 240 }, 
	{ NOTE_F3, 240 }, 
	{ NOTE_E3, 240 }, 
	{ NOTE_E3, 240 }, 
	{ NOTE_E3, 240 }, 
	{ NOTE_E3, 240 }, 
	{ NOTE_E3, 240 }, 
	{ NOTE_E3, 240 }, 
	{ NOTE_E3, 240 }, 
	{ NOTE_F3, 240 }, 
	{ NOTE_E3, 240 }, 
	{ NOTE_E3, 240 }, 
	{ NOTE_E3, 240 }, 
	{ NOTE_E3, 240 }, 
	{ NOTE_E3, 240 }, 
	{ NOTE_E3, 240 }, 
	{ NOTE_E3, 240 }, 
	{ NOTE_G3, 480 }, 
	{ NOTE_E3, 240 }, 
	{ NOTE_FS3, 240 }, 
	{ NOTE_E3, 240 }, 
	{ NOTE_FS3, 240 }, 
	{ NOTE_G3, 240 }, 
	{ NOTE_FS3, 240 }, 
	{ NOTE_E3, 480 }, 
	{ NOTE_E3, 240 }, 
	{ NOTE_E3, 240 }, 
	{ NOTE_E3, 240 }, 
	{ NOTE_E3, 240 }, 
	{ NOTE_E3, 240 }, 
	{ NOTE_E3, 240 }, 
	{ NOTE_F3, 240 }, 
	{ NOTE_E3, 240 }, 
	{ NOTE_E3, 240 }, 
	{ NOTE_E3, 240 }, 
	{ NOTE_E3, 240 }, 
	{ NOTE_E3, 240 }, 
	{ NOTE_E3, 240 }, 
	{ NOTE_E3, 240 }, 
	{ NOTE_F3, 240 }, 
	{ NOTE_E3, 240 }, 
	{ NOTE_E3, 240 }, 
	{ NOTE_E3, 240 }, 
	{ NOTE_E3, 240 }, 
	{ NOTE_E3, 240 }, 
	{ NOTE_E3, 240 }, 
	{ NOTE_E3, 240 }, 
	{ NOTE_G3, 480 }, 
	{ NOTE_E3, 240 }, 
	{ NOTE_FS3, 240 }, 
	{ NOTE_E3, 240 }, 
	{ NOTE_FS3, 240 }, 
	{ NOTE_G3, 240 }, 
	{ NOTE_FS3, 240 }, 
	{ NOTE_E3, 1200 }, 
	{ NOTE_B3, 720 }, 
	{ NOTE_FS3, 1200 }, 
	{ NOTE_B3, 720 }, 
	{ NOTE_FS3, 1200 }, 
	{ NOTE_B3, 720 }, 
	{ NOTE_FS3, 480 }, 
	{ NOTE_FS3, 240 }, 
	{ NOTE_FS3, 240 }, 
	{ NOTE_FS3, 240 }, 
	{ NOTE_FS3, 240 }, 
	{ NOTE_E3, 240 }, 
	{ NOTE_F3, 240 }, 
	{ NOTE_FS3, 240 }, 
	{ NOTE_FS3, 480 }, 
	{ NOTE_CS4, 240 }, 
	{ NOTE_C4, 240 }, 
	{ NOTE_B3, 720 }, 
	{ NOTE_FS3, 720 }, 
	{ NOTE_CS4, 240 }, 
	{ NOTE_C4, 240 }, 
	{ NOTE_B3, 720 }, 
	{ NOTE_FS3, 720 }, 
	{ NOTE_CS4, 240 }, 
	{ NOTE_C4, 240 }, 
	{ NOTE_B3, 720 }, 
	{ NOTE_E3, 2160 }, 
	{ NOTE_FS3, 480 }, 
	{ NOTE_CS4, 240 }, 
	{ NOTE_C4, 240 }, 
	{ NOTE_B3, 720 }, 
	{ NOTE_E3, 2160 }, 
	{ NOTE_REST, 1440 }, 
	{ NOTE_REST, 240 }, 
	{ NOTE_E3, 1920 }, 
	{ NOTE_E3, 480 }, 
	{ NOTE_E3, 240 }, 
	{ NOTE_E4, 240 }, 
	{ NOTE_BB3, 240 }, 
	{ NOTE_A3, 480 }, 
	{ NOTE_E3, 240 }, 
	{ NOTE_E3, 480 }, 
	{ NOTE_E3, 240 }, 
	{ NOTE_E4, 240 }, 
	{ NOTE_BB3, 240 }, 
	{ NOTE_A3, 480 }, 
	{ NOTE_E3, 240 }, 
	{ NOTE_E3, 480 }, 
	{ NOTE_E3, 240 }, 
	{ NOTE_E4, 240 }, 
	{ NOTE_BB3, 240 }, 
	{ NOTE_A3, 480 }, 
	{ NOTE_E3, 240 }, 
	{ NOTE_G3, 480 }, 
	{ NOTE_E3, 240 }, 
	{ NOTE_FS3, 240 }, 
	{ NOTE_E3, 240 }, 
	{ NOTE_FS3, 240 }, 
	{ NOTE_G3, 240 }, 
	{ NOTE_FS3, 240 }, 
	{ NOTE_E3, 480 }, 
	{ NOTE_E3, 240 }, 
	{ NOTE_E4, 240 }, 
	{ NOTE_BB3, 240 }, 
	{ NOTE_A3, 480 }, 
	{ NOTE_E3, 240 }, 
	{ NOTE_E3, 480 }, 
	{ NOTE_E3, 240 }, 
	{ NOTE_E4, 240 }, 
	{ NOTE_BB3, 240 }, 
	{ NOTE_A3, 480 }, 
	{ NOTE_E3, 240 }, 
	{ NOTE_E3, 480 }, 
	{ NOTE_E3, 240 }, 
	{ NOTE_E4, 240 }, 
	{ NOTE_BB3, 240 }, 
	{ NOTE_A3, 480 }, 
	{ NOTE_E3, 240 }, 
	{ NOTE_G3, 480 }, 
	{ NOTE_E3, 240 }, 
	{ NOTE_FS3, 240 }, 
	{ NOTE_E3, 240 }, 
	{ NOTE_FS3, 240 }, 
	{ NOTE_G3, 240 }, 
	{ NOTE_FS3, 240 }, 
	{ NOTE_E3, 1200 }, 
	{ NOTE_B3, 720 }, 
	{ NOTE_FS3, 1200 }, 
	{ NOTE_B3, 720 }, 
	{ NOTE_FS3, 1200 }, 
	{ NOTE_B3, 720 }, 
	{ NOTE_FS3, 480 }, 
	{ NOTE_FS3, 240 }, 
	{ NOTE_FS3, 240 }, 
	{ NOTE_FS3, 240 }, 
	{ NOTE_FS3, 240 }, 
	{ NOTE_E3, 240 }, 
	{ NOTE_F3, 240 }, 
	{ NOTE_FS3, 240 }, 
	{ NOTE_FS3, 480 }, 
	{ NOTE_CS4, 240 }, 
	{ NOTE_C4, 240 }, 
	{ NOTE_B3, 720 }, 
	{ NOTE_FS3, 720 }, 
	{ NOTE_CS4, 240 }, 
	{ NOTE_C4, 240 }, 
	{ NOTE_B3, 720 }, 
	{ NOTE_FS3, 720 }, 
	{ NOTE_CS4, 240 }, 
	{ NOTE_C4, 240 }, 
	{ NOTE_B3, 720 }, 
	{ NOTE_E3, 2160 }, 
	{ NOTE_FS3, 480 }, 
	{ NOTE_CS4, 240 }, 
	{ NOTE_C4, 240 }, 
	{ NOTE_B3, 720 }, 
	{ NOTE_E3, 2160 }, 
	{ NOTE_E3, 240 }, 
	{ NOTE_REST, 1440 }, 
	{ NOTE_REST, 240 }, 
	{ NOTE_E3, 240 }, 
	{ NOTE_E3, 240 }, 
	{ NOTE_E3, 240 }, 
	{ NOTE_E3, 240 }, 
	{ NOTE_E3, 240 }, 
	{ NOTE_E3, 240 }, 
	{ NOTE_E3, 240 }, 
	{ NOTE_F3, 240 }, 
	{ NOTE_E3, 240 }, 
	{ NOTE_E3, 240 }, 
	{ NOTE_E3, 240 }, 
	{ NOTE_E3, 240 }, 
	{ NOTE_E3, 240 }, 
	{ NOTE_E3, 240 }, 
	{ NOTE_E3, 240 }, 
	{ NOTE_F3, 240 }, 
	{ NOTE_E3, 240 }, 
	{ NOTE_E3, 240 }, 
	{ NOTE_E3, 240 }, 
	{ NOTE_E3, 240 }, 
	{ NOTE_E3, 240 }, 
	{ NOTE_E3, 240 }, 
	{ NOTE_E3, 240 }, 
	{ NOTE_F3, 240 }, 
	{ NOTE_E3, 240 }, 
	{ NOTE_E3, 240 }, 
	{ NOTE_E3, 240 }, 
	{ NOTE_E3, 240 }, 
	{ NOTE_E3, 240 }, 
	{ NOTE_E3, 240 }, 
	{ NOTE_E3, 240 }, 
	{ NOTE_F3, 240 }, 
	{ NOTE_E3, 240 }, 
	{ NOTE_E3, 240 }, 
	{ NOTE_E3, 240 }, 
	{ NOTE_E3, 240 }, 
	{ NOTE_E3, 240 }, 
	{ NOTE_E3, 240 }, 
	{ NOTE_E3, 240 }, 
	{ NOTE_F3, 240 }, 
	{ NOTE_E3, 240 }, 
	{ NOTE_E3, 240 }, 
	{ NOTE_E3, 240 }, 
	{ NOTE_E3, 240 }, 
	{ NOTE_E3, 240 }, 
	{ NOTE_E3, 240 }, 
	{ NOTE_E3, 240 }, 
	{ NOTE_F3, 240 }, 
	{ NOTE_E3, 240 }, 
	{ NOTE_E3, 240 }, 
	{ NOTE_E3, 240 }, 
	{ NOTE_E3, 240 }, 
	{ NOTE_E3, 240 }, 
	{ NOTE_E3, 240 }, 
	{ NOTE_E3, 240 }, 
	{ NOTE_F3, 240 }, 
	{ NOTE_E3, 240 }, 
	{ NOTE_E3, 240 }, 
	{ NOTE_E3, 240 }, 
	{ NOTE_E3, 240 }, 
	{ NOTE_E3, 240 }, 
	{ NOTE_E3, 240 }, 
	{ NOTE_E3, 240 }, 
	{ NOTE_F3, 240 }, 
	{ NOTE_E3, 240 }, 
	{ NOTE_E3, 240 }, 
	{ NOTE_E3, 240 }, 
	{ NOTE_E3, 240 }, 
	{ NOTE_E3, 240 }, 
	{ NOTE_E3, 240 }, 
	{ NOTE_E3, 240 }, 
	{ NOTE_F3, 240 }, 
	{ NOTE_E3, 240 }, 
	{ NOTE_E3, 240 }, 
	{ NOTE_E3, 240 }, 
	{ NOTE_E3, 240 }, 
	{ NOTE_E3, 240 }, 
	{ NOTE_E3, 240 }, 
	{ NOTE_E3, 240 }, 
	{ NOTE_F3, 240 }, 
	{ NOTE_E3, 240 }, 
	{ NOTE_E3, 240 }, 
	{ NOTE_E3, 240 }, 
	{ NOTE_E3, 240 }, 
	{ NOTE_E3, 240 }, 
	{ NOTE_E3, 240 }, 
	{ NOTE_E3, 240 }, 
	{ NOTE_F3, 240 }, 
	{ NOTE_E3, 240 }, 
	{ NOTE_E3, 240 }, 
	{ NOTE_E3, 240 }, 
	{ NOTE_E3, 240 }, 
	{ NOTE_E3, 240 }, 
	{ NOTE_E3, 240 }, 
	{ NOTE_E3, 240 }, 
	{ NOTE_F3, 1200 }, 
	{ NOTE_B3, 720 }, 
	{ NOTE_FS3, 1200 }, 
	{ NOTE_B3, 720 }, 
	{ NOTE_FS3, 1200 }, 
	{ NOTE_B3, 720 }, 
	{ NOTE_FS3, 480 }, 
	{ NOTE_FS3, 240 }, 
	{ NOTE_FS3, 240 }, 
	{ NOTE_FS3, 240 }, 
	{ NOTE_FS3, 240 }, 
	{ NOTE_E3, 240 }, 
	{ NOTE_F3, 240 }, 
	{ NOTE_FS3, 1200 }, 
	{ NOTE_B3, 720 }, 
	{ NOTE_FS3, 1200 }, 
	{ NOTE_B3, 720 }, 
	{ NOTE_FS3, 1200 }, 
	{ NOTE_B3, 720 }, 
	{ NOTE_FS3, 480 }, 
	{ NOTE_FS3, 240 }, 
	{ NOTE_FS3, 240 }, 
	{ NOTE_FS3, 240 }, 
	{ NOTE_FS3, 240 }, 
	{ NOTE_E3, 240 }, 
	{ NOTE_F3, 240 }, 
	{ NOTE_FS3, 240 }, 
	{ NOTE_FS3, 480 }, 
	{ NOTE_CS4, 240 }, 
	{ NOTE_C4, 240 }, 
	{ NOTE_B3, 720 }, 
	{ NOTE_FS3, 720 }, 
	{ NOTE_CS4, 240 }, 
	{ NOTE_C4, 240 }, 
	{ NOTE_B3, 720 }, 
	{ NOTE_FS3, 720 }, 
	{ NOTE_CS4, 240 }, 
	{ NOTE_C4, 240 }, 
	{ NOTE_B3, 720 }, 
	{ NOTE_E3, 2160 }, 
	{ NOTE_FS3, 480 }, 
	{ NOTE_CS4, 240 }, 
	{ NOTE_C4, 240 }, 
	{ NOTE_B3, 720 }, 
	{ NOTE_E3, 1680 }, 
	{ NOTE_E3, 240 }, 
	{ NOTE_E3, 240 }, 
	{ NOTE_FS3, 480 }, 
	{ NOTE_CS4, 240 }, 
	{ NOTE_C4, 240 }, 
	{ NOTE_B3, 720 }, 
	{ NOTE_FS3, 720 }, 
	{ NOTE_CS4, 240 }, 
	{ NOTE_C4, 240 }, 
	{ NOTE_B3, 720 }, 
	{ NOTE_FS3, 720 }, 
	{ NOTE_CS4, 240 }, 
	{ NOTE_C4, 240 }, 
	{ NOTE_B3, 720 }, 
	{ NOTE_E3, 2160 }, 
	{ NOTE_FS3, 480 }, 
	{ NOTE_CS4, 240 }, 
	{ NOTE_C4, 240 }, 
	{ NOTE_B3, 720 }, 
	{ NOTE_E3, 2160 }, 
	{ NOTE_REST, 1440 }, 
	{ NOTE_REST, 240 }, 
	{ NOTE_E3, 7680 }, 
	{ NOTE_E3, 480 }, 
	{ NOTE_E3, 240 }, 
	{ NOTE_E4, 240 }, 
	{ NOTE_BB3, 240 }, 
	{ NOTE_A3, 480 }, 
	{ NOTE_E3, 240 }, 
	{ NOTE_E3, 480 }, 
	{ NOTE_E3, 240 }, 
	{ NOTE_E4, 240 }, 
	{ NOTE_BB3, 240 }, 
	{ NOTE_A3, 480 }, 
	{ NOTE_E3, 240 }, 
	{ NOTE_E3, 480 }, 
	{ NOTE_E3, 240 }, 
	{ NOTE_E4, 240 }, 
	{ NOTE_BB3, 240 }, 
	{ NOTE_A3, 480 }, 
	{ NOTE_E3, 240 }, 
	{ NOTE_E3, 480 }, 
	{ NOTE_E3, 240 }, 
	{ NOTE_E4, 240 }, 
	{ NOTE_BB3, 240 }, 
	{ NOTE_A3, 480 }, 
	{ NOTE_E3, 240 }, 
	{ NOTE_E3, 480 }, 
	{ NOTE_E3, 240 }, 
	{ NOTE_E4, 240 }, 
	{ NOTE_BB3, 240 }, 
	{ NOTE_A3, 480 }, 
	{ NOTE_E3, 240 }, 
	{ NOTE_G3, 480 }, 
	{ NOTE_E3, 240 }, 
	{ NOTE_FS3, 240 }, 
	{ NOTE_E3, 240 }, 
	{ NOTE_FS3, 240 }, 
	{ NOTE_G3, 240 }, 
	{ NOTE_FS3, 240 }, 
	{ NOTE_E3, 240 }, 
	{ NOTE_E3, 240 }, 
	{ NOTE_E3, 240 }, 
	{ NOTE_E3, 240 }, 
	{ NOTE_BB3, 240 }, 
	{ NOTE_A3, 240 }, 
	{ NOTE_E3, 240 }, 
	{ NOTE_E3, 240 }, 
	{ NOTE_F3, 240 }, 
	{ NOTE_E3, 240 }, 
	{ NOTE_E3, 240 }, 
	{ NOTE_E3, 240 }, 
	{ NOTE_BB3, 240 }, 
	{ NOTE_A3, 240 }, 
	{ NOTE_E3, 240 }, 
	{ NOTE_E3, 240 }, 
	{ NOTE_F3, 240 }, 
	{ NOTE_E3, 240 }, 
	{ NOTE_E3, 240 }, 
	{ NOTE_E3, 240 }, 
	{ NOTE_BB3, 240 }, 
	{ NOTE_A3, 240 }, 
	{ NOTE_E3, 240 }, 
	{ NOTE_E3, 240 }, 
	{ NOTE_F3, 240 }, 
	{ NOTE_E3, 240 }, 
	{ NOTE_E3, 240 }, 
	{ NOTE_E3, 240 }, 
	{ NOTE_BB3, 240 }, 
	{ NOTE_A3, 240 }, 
	{ NOTE_E3, 240 }, 
	{ NOTE_E3, 240 }, 
	{ NOTE_F3, 240 }, 
	{ NOTE_E3, 240 }, 
	{ NOTE_E3, 240 }, 
	{ NOTE_E3, 240 }, 
	{ NOTE_BB3, 240 }, 
	{ NOTE_A3, 240 }, 
	{ NOTE_E3, 240 }, 
	{ NOTE_E3, 240 }, 
	{ NOTE_F3, 240 }, 
	{ NOTE_E3, 240 }, 
	{ NOTE_E3, 240 }, 
	{ NOTE_E3, 240 }, 
	{ NOTE_BB3, 240 }, 
	{ NOTE_A3, 240 }, 
	{ NOTE_E3, 240 }, 
	{ NOTE_E3, 240 }, 
	{ NOTE_F3, 240 }, 
	{ NOTE_E3, 240 }, 
	{ NOTE_E3, 240 }, 
	{ NOTE_E3, 240 }, 
	{ NOTE_BB3, 240 }, 
	{ NOTE_A3, 240 }, 
	{ NOTE_E3, 240 }, 
	{ NOTE_E3, 240 }, 
	{ NOTE_F3, 240 }, 
	{ NOTE_E3, 240 }, 
	{ NOTE_E3, 240 }, 
	{ NOTE_E3, 240 }, 
	{ NOTE_BB3, 240 }, 
	{ NOTE_A3, 240 }, 
	{ NOTE_E3, 240 }, 
	{ NOTE_E3, 240 }, 
	{ NOTE_F3, 240 }, 
	{ NOTE_E3, 240 }, 
	{ NOTE_E3, 240 }, 
	{ NOTE_E3, 240 }, 
	{ NOTE_BB3, 240 }, 
	{ NOTE_A3, 240 }, 
	{ NOTE_E3, 240 }, 
	{ NOTE_E3, 240 }, 
	{ NOTE_F3, 240 }, 
	{ NOTE_E3, 240 }, 
	{ NOTE_E3, 240 }, 
	{ NOTE_E3, 240 }, 
	{ NOTE_BB3, 240 }, 
	{ NOTE_A3, 240 }, 
	{ NOTE_E3, 240 }, 
	{ NOTE_E3, 240 }, 
	{ NOTE_F3, 240 }, 
	{ NOTE_E3, 240 }, 
	{ NOTE_E3, 240 }, 
	{ NOTE_E3, 240 }, 
	{ NOTE_BB3, 240 }, 
	{ NOTE_A3, 240 }, 
	{ NOTE_E3, 240 }, 
	{ NOTE_E3, 240 }, 
	{ NOTE_F3, 240 }, 
	{ NOTE_E3, 240 }, 
	{ NOTE_E3, 240 }, 
	{ NOTE_E3, 240 }, 
	{ NOTE_BB3, 240 }, 
	{ NOTE_A3, 240 }, 
	{ NOTE_E3, 240 }, 
	{ NOTE_E3, 240 }, 
	{ NOTE_F3, 240 }, 
	{ NOTE_E3, 240 }, 
	{ NOTE_E3, 240 }, 
	{ NOTE_E3, 240 }, 
	{ NOTE_BB3, 240 }, 
	{ NOTE_A3, 240 }, 
	{ NOTE_E3, 240 }, 
	{ NOTE_E3, 240 }, 
	{ NOTE_F3, 240 }, 
	{ NOTE_E3, 240 }, 
	{ NOTE_E3, 240 }, 
	{ NOTE_E3, 240 }, 
	{ NOTE_BB3, 240 }, 
	{ NOTE_A3, 240 }, 
	{ NOTE_E3, 240 }, 
	{ NOTE_E3, 240 }, 
	{ NOTE_F3, 240 }, 
	{ NOTE_E3, 240 }, 
	{ NOTE_E3, 240 }, 
	{ NOTE_E3, 240 }, 
	{ NOTE_BB3, 240 }, 
	{ NOTE_A3, 240 }, 
	{ NOTE_E3, 240 }, 
	{ NOTE_E3, 240 }, 
	{ NOTE_E3, 240 }, 
	{ NOTE_E3, 240 }, 
	{ NOTE_E3, 240 }, 
	{ NOTE_E3, 240 }, 
	{ NOTE_BB3, 240 }, 
	{ NOTE_A3, 240 }, 
	{ NOTE_E3, 240 }, 
	{ NOTE_E3, 240 }, 
	{ NOTE_E3, 240 }, 
	{ NOTE_E3, 240 }, 
	{ NOTE_E3, 240 }, 
	{ NOTE_E3, 240 }, 
	{ NOTE_BB3, 240 }, 
	{ NOTE_E3, 240 }, 
	{ NOTE_E3, 240 }, 
	{ NOTE_E3, 240 }, 
	{ NOTE_E3, 240 }, 
	{ NOTE_E3, 240 }, 
	{ NOTE_E3, 240 }, 
	{ NOTE_E3, 240 }, 
	{ NOTE_BB3, 240 }, 
	{ NOTE_E3, 240 }, 
	{ NOTE_E3, 240 }, 
	{ NOTE_E3, 240 }, 
	{ NOTE_E3, 240 }, 
	{ NOTE_E3, 240 }, 
	{ NOTE_E3, 240 }, 
	{ NOTE_E3, 240 }, 
	{ NOTE_BB3, 240 }, 
	{ NOTE_E3, 240 }, 
	{ NOTE_E3, 240 }, 
	{ NOTE_E3, 240 }, 
	{ NOTE_E3, 240 }, 
	{ NOTE_E3, 240 }, 
	{ NOTE_E3, 240 }, 
	{ NOTE_E3, 240 }, 
	{ NOTE_BB3, 240 }, 
	{ NOTE_E3, 240 }, 
	{ NOTE_E3, 240 }, 
	{ NOTE_E3, 240 }, 
	{ NOTE_E3, 240 }, 
	{ NOTE_E3, 240 }, 
	{ NOTE_E3, 240 }, 
	{ NOTE_E3, 240 }, 
	{ NOTE_BB3, 240 }, 
	{ NOTE_E3, 240 }, 
	{ NOTE_E3, 240 }, 
	{ NOTE_E3, 240 }, 
	{ NOTE_E3, 240 }, 
	{ NOTE_E3, 240 }, 
	{ NOTE_E3, 240 }, 
	{ NOTE_E3, 240 }, 
	{ NOTE_BB3, 240 }, 
	{ NOTE_E3, 240 }, 
	{ NOTE_E3, 240 }, 
	{ NOTE_E3, 240 }, 
	{ NOTE_E3, 240 }, 
	{ NOTE_E3, 1920 }, 
};
const uint16_t NUM_OF_NOTES4 = sizeof(melody4)/sizeof(melody4[0]);

