/*
 * Song: Master of Puppets by Metallica
 *
 *	Melody 0 | James Hetfield
 *	Melody 1 | James Hetfield
 *	Melody 2 | Kirk Hammet
 *	Melody 3 | Cliff Burton
 *	Melody 4 | Kirk's clean
*/

#include <Arduino.h>
#include "notes.h"

const Note melody0[] PROGMEM = {
	{ NOTE_E3, 273 }, 
	{ NOTE_REST, 818 }, 
	{ NOTE_D4, 273 }, 
	{ NOTE_CS4, 273 }, 
	{ NOTE_C4, 1636 }, 
	{ NOTE_E3, 136 }, 
	{ NOTE_E3, 136 }, 
	{ NOTE_E4, 136 }, 
	{ NOTE_E3, 136 }, 
	{ NOTE_E3, 136 }, 
	{ NOTE_EB4, 136 }, 
	{ NOTE_E3, 136 }, 
	{ NOTE_E3, 136 }, 
	{ NOTE_D4, 273 }, 
	{ NOTE_CS4, 273 }, 
	{ NOTE_C4, 548 }, 
	{ NOTE_E3, 136 }, 
	{ NOTE_E3, 136 }, 
	{ NOTE_B3, 136 }, 
	{ NOTE_E3, 136 }, 
	{ NOTE_E3, 136 }, 
	{ NOTE_BB3, 136 }, 
	{ NOTE_E3, 136 }, 
	{ NOTE_E3, 136 }, 
	{ NOTE_A3, 136 }, 
	{ NOTE_E3, 136 }, 
	{ NOTE_GS3, 136 }, 
	{ NOTE_E3, 136 }, 
	{ NOTE_G3, 136 }, 
	{ NOTE_E3, 136 }, 
	{ NOTE_FS3, 136 }, 
	{ NOTE_E3, 142 }, 
	{ NOTE_E3, 136 }, 
	{ NOTE_E3, 136 }, 
	{ NOTE_E4, 136 }, 
	{ NOTE_E3, 136 }, 
	{ NOTE_E3, 136 }, 
	{ NOTE_EB4, 136 }, 
	{ NOTE_E3, 136 }, 
	{ NOTE_E3, 136 }, 
	{ NOTE_D4, 273 }, 
	{ NOTE_CS4, 273 }, 
	{ NOTE_C4, 548 }, 
	{ NOTE_E3, 136 }, 
	{ NOTE_E3, 136 }, 
	{ NOTE_B3, 136 }, 
	{ NOTE_E3, 136 }, 
	{ NOTE_E3, 136 }, 
	{ NOTE_BB3, 136 }, 
	{ NOTE_E3, 136 }, 
	{ NOTE_E3, 136 }, 
	{ NOTE_A3, 136 }, 
	{ NOTE_E3, 136 }, 
	{ NOTE_GS3, 136 }, 
	{ NOTE_E3, 136 }, 
	{ NOTE_G3, 136 }, 
	{ NOTE_E3, 136 }, 
	{ NOTE_FS3, 136 }, 
	{ NOTE_E3, 142 }, 
	{ NOTE_E3, 136 }, 
	{ NOTE_F3, 136 }, 
	{ NOTE_B3, 136 }, 
	{ NOTE_E3, 136 }, 
	{ NOTE_F3, 136 }, 
	{ NOTE_C4, 136 }, 
	{ NOTE_E3, 136 }, 
	{ NOTE_FS3, 136 }, 
	{ NOTE_CS4, 136 }, 
	{ NOTE_E3, 136 }, 
	{ NOTE_F3, 136 }, 
	{ NOTE_C4, 136 }, 
	{ NOTE_E3, 136 }, 
	{ NOTE_F3, 136 }, 
	{ NOTE_B3, 136 }, 
	{ NOTE_B3, 142 }, 
	{ NOTE_E3, 136 }, 
	{ NOTE_F3, 136 }, 
	{ NOTE_B3, 136 }, 
	{ NOTE_E3, 136 }, 
	{ NOTE_F3, 136 }, 
	{ NOTE_C4, 136 }, 
	{ NOTE_E3, 136 }, 
	{ NOTE_F3, 136 }, 
	{ NOTE_G3, 136 }, 
	{ NOTE_FS3, 136 }, 
	{ NOTE_E3, 136 }, 
	{ NOTE_G3, 136 }, 
	{ NOTE_FS3, 136 }, 
	{ NOTE_E3, 136 }, 
	{ NOTE_G3, 136 }, 
	{ NOTE_FS3, 142 }, 
	{ NOTE_E3, 136 }, 
	{ NOTE_F3, 136 }, 
	{ NOTE_B3, 136 }, 
	{ NOTE_E3, 136 }, 
	{ NOTE_F3, 136 }, 
	{ NOTE_C4, 136 }, 
	{ NOTE_E3, 136 }, 
	{ NOTE_FS3, 136 }, 
	{ NOTE_CS4, 136 }, 
	{ NOTE_E3, 136 }, 
	{ NOTE_F3, 136 }, 
	{ NOTE_C4, 136 }, 
	{ NOTE_E3, 136 }, 
	{ NOTE_F3, 136 }, 
	{ NOTE_B3, 136 }, 
	{ NOTE_B3, 142 }, 
	{ NOTE_E3, 136 }, 
	{ NOTE_F3, 136 }, 
	{ NOTE_B3, 136 }, 
	{ NOTE_E3, 136 }, 
	{ NOTE_F3, 136 }, 
	{ NOTE_C4, 136 }, 
	{ NOTE_E3, 136 }, 
	{ NOTE_FS3, 136 }, 
	{ NOTE_CS4, 136 }, 
	{ NOTE_E3, 136 }, 
	{ NOTE_F3, 136 }, 
	{ NOTE_C4, 136 }, 
	{ NOTE_E3, 136 }, 
	{ NOTE_F3, 136 }, 
	{ NOTE_B3, 278 }, 
	{ NOTE_E3, 136 }, 
	{ NOTE_F3, 136 }, 
	{ NOTE_B3, 136 }, 
	{ NOTE_E3, 136 }, 
	{ NOTE_F3, 136 }, 
	{ NOTE_C4, 136 }, 
	{ NOTE_E3, 136 }, 
	{ NOTE_FS3, 136 }, 
	{ NOTE_CS4, 136 }, 
	{ NOTE_E3, 136 }, 
	{ NOTE_F3, 136 }, 
	{ NOTE_C4, 136 }, 
	{ NOTE_E3, 136 }, 
	{ NOTE_F3, 136 }, 
	{ NOTE_B3, 136 }, 
	{ NOTE_B3, 142 }, 
	{ NOTE_E3, 136 }, 
	{ NOTE_F3, 136 }, 
	{ NOTE_B3, 136 }, 
	{ NOTE_E3, 136 }, 
	{ NOTE_F3, 136 }, 
	{ NOTE_C4, 136 }, 
	{ NOTE_E3, 136 }, 
	{ NOTE_F3, 136 }, 
	{ NOTE_G3, 136 }, 
	{ NOTE_FS3, 136 }, 
	{ NOTE_E3, 136 }, 
	{ NOTE_G3, 136 }, 
	{ NOTE_FS3, 136 }, 
	{ NOTE_E3, 136 }, 
	{ NOTE_G3, 136 }, 
	{ NOTE_FS3, 142 }, 
	{ NOTE_E3, 136 }, 
	{ NOTE_F3, 136 }, 
	{ NOTE_B3, 136 }, 
	{ NOTE_E3, 136 }, 
	{ NOTE_F3, 136 }, 
	{ NOTE_C4, 136 }, 
	{ NOTE_E3, 136 }, 
	{ NOTE_FS3, 136 }, 
	{ NOTE_CS4, 136 }, 
	{ NOTE_E3, 136 }, 
	{ NOTE_F3, 136 }, 
	{ NOTE_C4, 136 }, 
	{ NOTE_E3, 136 }, 
	{ NOTE_F3, 136 }, 
	{ NOTE_B3, 136 }, 
	{ NOTE_B3, 142 }, 
	{ NOTE_E3, 136 }, 
	{ NOTE_F3, 136 }, 
	{ NOTE_B3, 136 }, 
	{ NOTE_E3, 136 }, 
	{ NOTE_F3, 136 }, 
	{ NOTE_C4, 136 }, 
	{ NOTE_E3, 136 }, 
	{ NOTE_FS3, 136 }, 
	{ NOTE_CS4, 136 }, 
	{ NOTE_E3, 136 }, 
	{ NOTE_F3, 136 }, 
	{ NOTE_C4, 136 }, 
	{ NOTE_E3, 136 }, 
	{ NOTE_F3, 136 }, 
	{ NOTE_B3, 278 }, 
	{ NOTE_E3, 136 }, 
	{ NOTE_F3, 136 }, 
	{ NOTE_B3, 136 }, 
	{ NOTE_E3, 136 }, 
	{ NOTE_F3, 136 }, 
	{ NOTE_C4, 136 }, 
	{ NOTE_E3, 136 }, 
	{ NOTE_FS3, 136 }, 
	{ NOTE_CS4, 136 }, 
	{ NOTE_E3, 136 }, 
	{ NOTE_F3, 136 }, 
	{ NOTE_C4, 136 }, 
	{ NOTE_E3, 136 }, 
	{ NOTE_F3, 136 }, 
	{ NOTE_B3, 136 }, 
	{ NOTE_B3, 142 }, 
	{ NOTE_E3, 136 }, 
	{ NOTE_F3, 136 }, 
	{ NOTE_B3, 136 }, 
	{ NOTE_E3, 136 }, 
	{ NOTE_F3, 136 }, 
	{ NOTE_C4, 136 }, 
	{ NOTE_E3, 136 }, 
	{ NOTE_F3, 136 }, 
	{ NOTE_G3, 136 }, 
	{ NOTE_FS3, 136 }, 
	{ NOTE_E3, 136 }, 
	{ NOTE_G3, 136 }, 
	{ NOTE_FS3, 136 }, 
	{ NOTE_E3, 136 }, 
	{ NOTE_G3, 136 }, 
	{ NOTE_FS3, 142 }, 
	{ NOTE_G3, 136 }, 
	{ NOTE_FS3, 136 }, 
	{ NOTE_E3, 136 }, 
	{ NOTE_G3, 136 }, 
	{ NOTE_FS3, 136 }, 
	{ NOTE_E3, 136 }, 
	{ NOTE_G3, 136 }, 
	{ NOTE_FS3, 139 }, 
	{ NOTE_REST, 2182 }, 
	{ NOTE_E3, 136 }, 
	{ NOTE_E3, 136 }, 
	{ NOTE_E3, 136 }, 
	{ NOTE_E3, 136 }, 
	{ NOTE_E3, 136 }, 
	{ NOTE_E3, 136 }, 
	{ NOTE_E3, 136 }, 
	{ NOTE_E3, 136 }, 
	{ NOTE_E3, 136 }, 
	{ NOTE_G3, 136 }, 
	{ NOTE_A3, 136 }, 
	{ NOTE_REST, 136 }, 
	{ NOTE_BB3, 136 }, 
	{ NOTE_A3, 136 }, 
	{ NOTE_G3, 136 }, 
	{ NOTE_A3, 142 }, 
	{ NOTE_E3, 136 }, 
	{ NOTE_E3, 136 }, 
	{ NOTE_E3, 136 }, 
	{ NOTE_E3, 136 }, 
	{ NOTE_E3, 136 }, 
	{ NOTE_E3, 136 }, 
	{ NOTE_E3, 136 }, 
	{ NOTE_E3, 136 }, 
	{ NOTE_E3, 136 }, 
	{ NOTE_G3, 136 }, 
	{ NOTE_A3, 136 }, 
	{ NOTE_G3, 136 }, 
	{ NOTE_A3, 141 }, 
	{ NOTE_E3, 136 }, 
	{ NOTE_E3, 136 }, 
	{ NOTE_E3, 136 }, 
	{ NOTE_E3, 136 }, 
	{ NOTE_E3, 136 }, 
	{ NOTE_E3, 136 }, 
	{ NOTE_E3, 136 }, 
	{ NOTE_E3, 136 }, 
	{ NOTE_E3, 136 }, 
	{ NOTE_G3, 136 }, 
	{ NOTE_A3, 136 }, 
	{ NOTE_REST, 136 }, 
	{ NOTE_BB3, 136 }, 
	{ NOTE_A3, 136 }, 
	{ NOTE_G3, 136 }, 
	{ NOTE_A3, 142 }, 
	{ NOTE_E3, 136 }, 
	{ NOTE_E3, 136 }, 
	{ NOTE_E3, 136 }, 
	{ NOTE_E3, 136 }, 
	{ NOTE_E3, 136 }, 
	{ NOTE_E3, 136 }, 
	{ NOTE_E3, 136 }, 
	{ NOTE_E3, 136 }, 
	{ NOTE_E3, 136 }, 
	{ NOTE_G3, 136 }, 
	{ NOTE_A3, 136 }, 
	{ NOTE_G3, 136 }, 
	{ NOTE_A3, 141 }, 
	{ NOTE_E3, 136 }, 
	{ NOTE_E3, 136 }, 
	{ NOTE_E3, 136 }, 
	{ NOTE_E3, 136 }, 
	{ NOTE_E3, 136 }, 
	{ NOTE_E3, 136 }, 
	{ NOTE_E3, 136 }, 
	{ NOTE_E3, 136 }, 
	{ NOTE_E3, 136 }, 
	{ NOTE_G3, 136 }, 
	{ NOTE_A3, 136 }, 
	{ NOTE_REST, 136 }, 
	{ NOTE_BB3, 136 }, 
	{ NOTE_A3, 136 }, 
	{ NOTE_G3, 136 }, 
	{ NOTE_A3, 142 }, 
	{ NOTE_E3, 136 }, 
	{ NOTE_E3, 136 }, 
	{ NOTE_E3, 136 }, 
	{ NOTE_E3, 136 }, 
	{ NOTE_E3, 136 }, 
	{ NOTE_E3, 136 }, 
	{ NOTE_E3, 136 }, 
	{ NOTE_E3, 136 }, 
	{ NOTE_E3, 136 }, 
	{ NOTE_G3, 136 }, 
	{ NOTE_A3, 136 }, 
	{ NOTE_G3, 136 }, 
	{ NOTE_A3, 141 }, 
	{ NOTE_E3, 136 }, 
	{ NOTE_E3, 136 }, 
	{ NOTE_E3, 136 }, 
	{ NOTE_E3, 136 }, 
	{ NOTE_E3, 136 }, 
	{ NOTE_E3, 136 }, 
	{ NOTE_E3, 136 }, 
	{ NOTE_E3, 136 }, 
	{ NOTE_E3, 136 }, 
	{ NOTE_G3, 136 }, 
	{ NOTE_A3, 136 }, 
	{ NOTE_REST, 136 }, 
	{ NOTE_BB3, 136 }, 
	{ NOTE_A3, 136 }, 
	{ NOTE_G3, 136 }, 
	{ NOTE_A3, 142 }, 
	{ NOTE_E3, 136 }, 
	{ NOTE_E3, 136 }, 
	{ NOTE_E3, 136 }, 
	{ NOTE_E3, 136 }, 
	{ NOTE_E3, 136 }, 
	{ NOTE_E3, 136 }, 
	{ NOTE_E3, 136 }, 
	{ NOTE_E3, 136 }, 
	{ NOTE_E3, 136 }, 
	{ NOTE_G3, 136 }, 
	{ NOTE_A3, 136 }, 
	{ NOTE_G3, 136 }, 
	{ NOTE_A3, 141 }, 
	{ NOTE_E3, 136 }, 
	{ NOTE_E3, 136 }, 
	{ NOTE_E3, 136 }, 
	{ NOTE_E3, 136 }, 
	{ NOTE_E3, 136 }, 
	{ NOTE_E3, 136 }, 
	{ NOTE_E3, 136 }, 
	{ NOTE_E3, 136 }, 
	{ NOTE_E3, 136 }, 
	{ NOTE_G3, 136 }, 
	{ NOTE_A3, 136 }, 
	{ NOTE_REST, 136 }, 
	{ NOTE_BB3, 136 }, 
	{ NOTE_A3, 136 }, 
	{ NOTE_G3, 136 }, 
	{ NOTE_A3, 142 }, 
	{ NOTE_E3, 136 }, 
	{ NOTE_E3, 136 }, 
	{ NOTE_E3, 136 }, 
	{ NOTE_E3, 136 }, 
	{ NOTE_E3, 136 }, 
	{ NOTE_E3, 136 }, 
	{ NOTE_E3, 136 }, 
	{ NOTE_E3, 136 }, 
	{ NOTE_E3, 136 }, 
	{ NOTE_G3, 136 }, 
	{ NOTE_A3, 136 }, 
	{ NOTE_G3, 136 }, 
	{ NOTE_A3, 141 }, 
	{ NOTE_E3, 136 }, 
	{ NOTE_E3, 136 }, 
	{ NOTE_E3, 136 }, 
	{ NOTE_E3, 136 }, 
	{ NOTE_E3, 136 }, 
	{ NOTE_E3, 136 }, 
	{ NOTE_E3, 136 }, 
	{ NOTE_E3, 136 }, 
	{ NOTE_E3, 136 }, 
	{ NOTE_G3, 136 }, 
	{ NOTE_A3, 136 }, 
	{ NOTE_REST, 136 }, 
	{ NOTE_BB3, 136 }, 
	{ NOTE_A3, 136 }, 
	{ NOTE_G3, 136 }, 
	{ NOTE_A3, 142 }, 
	{ NOTE_E3, 136 }, 
	{ NOTE_E3, 136 }, 
	{ NOTE_E3, 136 }, 
	{ NOTE_E3, 136 }, 
	{ NOTE_E3, 136 }, 
	{ NOTE_E3, 136 }, 
	{ NOTE_E3, 136 }, 
	{ NOTE_E3, 136 }, 
	{ NOTE_E3, 136 }, 
	{ NOTE_G3, 136 }, 
	{ NOTE_A3, 136 }, 
	{ NOTE_G3, 136 }, 
	{ NOTE_A3, 141 }, 
	{ NOTE_FS3, 136 }, 
	{ NOTE_FS3, 136 }, 
	{ NOTE_FS3, 136 }, 
	{ NOTE_FS3, 136 }, 
	{ NOTE_FS3, 136 }, 
	{ NOTE_FS3, 136 }, 
	{ NOTE_FS3, 136 }, 
	{ NOTE_FS3, 136 }, 
	{ NOTE_FS3, 136 }, 
	{ NOTE_A3, 136 }, 
	{ NOTE_B3, 136 }, 
	{ NOTE_REST, 136 }, 
	{ NOTE_C4, 136 }, 
	{ NOTE_B3, 136 }, 
	{ NOTE_A3, 136 }, 
	{ NOTE_B3, 142 }, 
	{ NOTE_FS3, 136 }, 
	{ NOTE_FS3, 136 }, 
	{ NOTE_FS3, 136 }, 
	{ NOTE_FS3, 136 }, 
	{ NOTE_FS3, 136 }, 
	{ NOTE_FS3, 136 }, 
	{ NOTE_FS3, 136 }, 
	{ NOTE_FS3, 136 }, 
	{ NOTE_FS3, 136 }, 
	{ NOTE_A3, 136 }, 
	{ NOTE_B3, 136 }, 
	{ NOTE_A3, 136 }, 
	{ NOTE_B3, 141 }, 
	{ NOTE_FS3, 136 }, 
	{ NOTE_FS3, 136 }, 
	{ NOTE_FS3, 136 }, 
	{ NOTE_FS3, 136 }, 
	{ NOTE_FS3, 136 }, 
	{ NOTE_FS3, 136 }, 
	{ NOTE_FS3, 136 }, 
	{ NOTE_FS3, 136 }, 
	{ NOTE_FS3, 136 }, 
	{ NOTE_A3, 136 }, 
	{ NOTE_B3, 136 }, 
	{ NOTE_REST, 136 }, 
	{ NOTE_C4, 136 }, 
	{ NOTE_B3, 136 }, 
	{ NOTE_A3, 136 }, 
	{ NOTE_B3, 142 }, 
	{ NOTE_FS3, 136 }, 
	{ NOTE_FS3, 136 }, 
	{ NOTE_FS3, 136 }, 
	{ NOTE_FS3, 136 }, 
	{ NOTE_FS3, 136 }, 
	{ NOTE_FS3, 136 }, 
	{ NOTE_FS3, 136 }, 
	{ NOTE_FS3, 136 }, 
	{ NOTE_FS3, 136 }, 
	{ NOTE_A3, 136 }, 
	{ NOTE_B3, 136 }, 
	{ NOTE_A3, 136 }, 
	{ NOTE_B3, 141 }, 
	{ NOTE_E4, 136 }, 
	{ NOTE_E4, 136 }, 
	{ NOTE_E4, 136 }, 
	{ NOTE_E4, 136 }, 
	{ NOTE_E4, 136 }, 
	{ NOTE_E4, 136 }, 
	{ NOTE_E4, 136 }, 
	{ NOTE_E4, 139 }, 
	{ NOTE_E3, 273 }, 
	{ NOTE_E3, 136 }, 
	{ NOTE_E3, 136 }, 
	{ NOTE_D4, 273 }, 
	{ NOTE_E4, 273 }, 
	{ NOTE_REST, 136 }, 
	{ NOTE_E4, 136 }, 
	{ NOTE_FS4, 273 }, 
	{ NOTE_B4, 136 }, 
	{ NOTE_G4, 136 }, 
	{ NOTE_FS4, 136 }, 
	{ NOTE_G4, 136 }, 
	{ NOTE_C4, 136 }, 
	{ NOTE_C4, 136 }, 
	{ NOTE_C4, 136 }, 
	{ NOTE_C4, 136 }, 
	{ NOTE_C4, 273 }, 
	{ NOTE_B3, 273 }, 
	{ NOTE_C4, 136 }, 
	{ NOTE_C4, 136 }, 
	{ NOTE_C4, 136 }, 
	{ NOTE_C4, 136 }, 
	{ NOTE_EB4, 273 }, 
	{ NOTE_B3, 277 }, 
	{ NOTE_E3, 273 }, 
	{ NOTE_E3, 136 }, 
	{ NOTE_E3, 136 }, 
	{ NOTE_D4, 273 }, 
	{ NOTE_E4, 273 }, 
	{ NOTE_REST, 136 }, 
	{ NOTE_E4, 136 }, 
	{ NOTE_FS4, 273 }, 
	{ NOTE_B4, 136 }, 
	{ NOTE_G4, 136 }, 
	{ NOTE_FS4, 136 }, 
	{ NOTE_G4, 136 }, 
	{ NOTE_C4, 136 }, 
	{ NOTE_C4, 136 }, 
	{ NOTE_C4, 136 }, 
	{ NOTE_C4, 136 }, 
	{ NOTE_C4, 273 }, 
	{ NOTE_B3, 273 }, 
	{ NOTE_FS4, 136 }, 
	{ NOTE_E4, 136 }, 
	{ NOTE_EB4, 136 }, 
	{ NOTE_REST, 136 }, 
	{ NOTE_EB4, 136 }, 
	{ NOTE_C4, 136 }, 
	{ NOTE_B3, 136 }, 
	{ NOTE_REST, 142 }, 
	{ NOTE_E3, 273 }, 
	{ NOTE_E3, 273 }, 
	{ NOTE_REST, 545 }, 
	{ NOTE_F3, 273 }, 
	{ NOTE_F3, 273 }, 
	{ NOTE_REST, 545 }, 
	{ NOTE_E3, 681 }, 
	{ NOTE_E3, 136 }, 
	{ NOTE_E3, 136 }, 
	{ NOTE_E3, 136 }, 
	{ NOTE_FS3, 136 }, 
	{ NOTE_E3, 136 }, 
	{ NOTE_E3, 136 }, 
	{ NOTE_E3, 136 }, 
	{ NOTE_G3, 2185 }, 
	{ NOTE_C4, 682 }, 
	{ NOTE_A3, 136 }, 
	{ NOTE_A3, 136 }, 
	{ NOTE_A3, 136 }, 
	{ NOTE_B3, 136 }, 
	{ NOTE_A3, 136 }, 
	{ NOTE_A3, 136 }, 
	{ NOTE_A3, 136 }, 
	{ NOTE_A3, 2185 }, 
	{ NOTE_D4, 681 }, 
	{ NOTE_A3, 136 }, 
	{ NOTE_A3, 136 }, 
	{ NOTE_A3, 138 }, 
	{ NOTE_C4, 136 }, 
	{ NOTE_A3, 136 }, 
	{ NOTE_A3, 136 }, 
	{ NOTE_A3, 136 }, 
	{ NOTE_B3, 1091 }, 
	{ NOTE_E3, 683 }, 
	{ NOTE_E3, 136 }, 
	{ NOTE_E3, 136 }, 
	{ NOTE_E3, 136 }, 
	{ NOTE_G3, 136 }, 
	{ NOTE_E3, 136 }, 
	{ NOTE_E3, 136 }, 
	{ NOTE_E3, 136 }, 
	{ NOTE_C4, 2185 }, 
	{ NOTE_E3, 273 }, 
	{ NOTE_E3, 273 }, 
	{ NOTE_REST, 545 }, 
	{ NOTE_F3, 273 }, 
	{ NOTE_F3, 273 }, 
	{ NOTE_REST, 545 }, 
	{ NOTE_E3, 681 }, 
	{ NOTE_E3, 136 }, 
	{ NOTE_E3, 136 }, 
	{ NOTE_E3, 136 }, 
	{ NOTE_G3, 136 }, 
	{ NOTE_E3, 136 }, 
	{ NOTE_E3, 136 }, 
	{ NOTE_E3, 136 }, 
	{ NOTE_C4, 2185 }, 
	{ NOTE_E3, 273 }, 
	{ NOTE_E3, 273 }, 
	{ NOTE_REST, 545 }, 
	{ NOTE_F3, 273 }, 
	{ NOTE_F3, 273 }, 
	{ NOTE_REST, 545 }, 
	{ NOTE_E3, 136 }, 
	{ NOTE_F3, 136 }, 
	{ NOTE_B3, 136 }, 
	{ NOTE_E3, 136 }, 
	{ NOTE_F3, 136 }, 
	{ NOTE_C4, 136 }, 
	{ NOTE_E3, 136 }, 
	{ NOTE_FS3, 136 }, 
	{ NOTE_CS4, 136 }, 
	{ NOTE_E3, 136 }, 
	{ NOTE_F3, 136 }, 
	{ NOTE_C4, 136 }, 
	{ NOTE_E3, 136 }, 
	{ NOTE_F3, 136 }, 
	{ NOTE_B3, 136 }, 
	{ NOTE_B3, 142 }, 
	{ NOTE_E3, 136 }, 
	{ NOTE_F3, 136 }, 
	{ NOTE_B3, 136 }, 
	{ NOTE_E3, 136 }, 
	{ NOTE_F3, 136 }, 
	{ NOTE_C4, 136 }, 
	{ NOTE_E3, 136 }, 
	{ NOTE_FS3, 136 }, 
	{ NOTE_CS4, 136 }, 
	{ NOTE_E3, 136 }, 
	{ NOTE_F3, 136 }, 
	{ NOTE_C4, 136 }, 
	{ NOTE_E3, 136 }, 
	{ NOTE_F3, 136 }, 
	{ NOTE_B3, 278 }, 
	{ NOTE_E3, 136 }, 
	{ NOTE_F3, 136 }, 
	{ NOTE_B3, 136 }, 
	{ NOTE_E3, 136 }, 
	{ NOTE_F3, 136 }, 
	{ NOTE_C4, 136 }, 
	{ NOTE_E3, 136 }, 
	{ NOTE_FS3, 136 }, 
	{ NOTE_CS4, 136 }, 
	{ NOTE_E3, 136 }, 
	{ NOTE_F3, 136 }, 
	{ NOTE_C4, 136 }, 
	{ NOTE_E3, 136 }, 
	{ NOTE_F3, 136 }, 
	{ NOTE_B3, 136 }, 
	{ NOTE_B3, 142 }, 
	{ NOTE_E3, 136 }, 
	{ NOTE_F3, 136 }, 
	{ NOTE_B3, 136 }, 
	{ NOTE_E3, 136 }, 
	{ NOTE_F3, 136 }, 
	{ NOTE_C4, 136 }, 
	{ NOTE_E3, 136 }, 
	{ NOTE_F3, 136 }, 
	{ NOTE_G3, 136 }, 
	{ NOTE_FS3, 136 }, 
	{ NOTE_E3, 136 }, 
	{ NOTE_G3, 136 }, 
	{ NOTE_FS3, 136 }, 
	{ NOTE_E3, 136 }, 
	{ NOTE_G3, 136 }, 
	{ NOTE_FS3, 142 }, 
	{ NOTE_G3, 136 }, 
	{ NOTE_FS3, 136 }, 
	{ NOTE_E3, 136 }, 
	{ NOTE_G3, 136 }, 
	{ NOTE_FS3, 136 }, 
	{ NOTE_E3, 136 }, 
	{ NOTE_G3, 136 }, 
	{ NOTE_FS3, 139 }, 
	{ NOTE_E3, 136 }, 
	{ NOTE_E3, 136 }, 
	{ NOTE_E3, 136 }, 
	{ NOTE_E3, 136 }, 
	{ NOTE_E3, 136 }, 
	{ NOTE_E3, 136 }, 
	{ NOTE_E3, 136 }, 
	{ NOTE_E3, 136 }, 
	{ NOTE_E3, 136 }, 
	{ NOTE_G3, 136 }, 
	{ NOTE_A3, 136 }, 
	{ NOTE_REST, 136 }, 
	{ NOTE_BB3, 136 }, 
	{ NOTE_A3, 136 }, 
	{ NOTE_G3, 136 }, 
	{ NOTE_A3, 142 }, 
	{ NOTE_E3, 136 }, 
	{ NOTE_E3, 136 }, 
	{ NOTE_E3, 136 }, 
	{ NOTE_E3, 136 }, 
	{ NOTE_E3, 136 }, 
	{ NOTE_E3, 136 }, 
	{ NOTE_E3, 136 }, 
	{ NOTE_E3, 136 }, 
	{ NOTE_E3, 136 }, 
	{ NOTE_G3, 136 }, 
	{ NOTE_A3, 136 }, 
	{ NOTE_G3, 136 }, 
	{ NOTE_A3, 141 }, 
	{ NOTE_E3, 136 }, 
	{ NOTE_E3, 136 }, 
	{ NOTE_E3, 136 }, 
	{ NOTE_E3, 136 }, 
	{ NOTE_E3, 136 }, 
	{ NOTE_E3, 136 }, 
	{ NOTE_E3, 136 }, 
	{ NOTE_E3, 136 }, 
	{ NOTE_E3, 136 }, 
	{ NOTE_G3, 136 }, 
	{ NOTE_A3, 136 }, 
	{ NOTE_REST, 136 }, 
	{ NOTE_BB3, 136 }, 
	{ NOTE_A3, 136 }, 
	{ NOTE_G3, 136 }, 
	{ NOTE_A3, 142 }, 
	{ NOTE_E3, 136 }, 
	{ NOTE_E3, 136 }, 
	{ NOTE_E3, 136 }, 
	{ NOTE_E3, 136 }, 
	{ NOTE_E3, 136 }, 
	{ NOTE_E3, 136 }, 
	{ NOTE_E3, 136 }, 
	{ NOTE_E3, 136 }, 
	{ NOTE_E3, 136 }, 
	{ NOTE_G3, 136 }, 
	{ NOTE_A3, 136 }, 
	{ NOTE_G3, 136 }, 
	{ NOTE_A3, 141 }, 
	{ NOTE_E3, 136 }, 
	{ NOTE_E3, 136 }, 
	{ NOTE_E3, 136 }, 
	{ NOTE_E3, 136 }, 
	{ NOTE_E3, 136 }, 
	{ NOTE_E3, 136 }, 
	{ NOTE_E3, 136 }, 
	{ NOTE_E3, 136 }, 
	{ NOTE_E3, 136 }, 
	{ NOTE_G3, 136 }, 
	{ NOTE_A3, 136 }, 
	{ NOTE_REST, 136 }, 
	{ NOTE_BB3, 136 }, 
	{ NOTE_A3, 136 }, 
	{ NOTE_G3, 136 }, 
	{ NOTE_A3, 142 }, 
	{ NOTE_E3, 136 }, 
	{ NOTE_E3, 136 }, 
	{ NOTE_E3, 136 }, 
	{ NOTE_E3, 136 }, 
	{ NOTE_E3, 136 }, 
	{ NOTE_E3, 136 }, 
	{ NOTE_E3, 136 }, 
	{ NOTE_E3, 136 }, 
	{ NOTE_E3, 136 }, 
	{ NOTE_G3, 136 }, 
	{ NOTE_A3, 136 }, 
	{ NOTE_G3, 136 }, 
	{ NOTE_A3, 141 }, 
	{ NOTE_FS3, 136 }, 
	{ NOTE_FS3, 136 }, 
	{ NOTE_FS3, 136 }, 
	{ NOTE_FS3, 136 }, 
	{ NOTE_FS3, 136 }, 
	{ NOTE_FS3, 136 }, 
	{ NOTE_FS3, 136 }, 
	{ NOTE_FS3, 136 }, 
	{ NOTE_FS3, 136 }, 
	{ NOTE_A3, 136 }, 
	{ NOTE_B3, 136 }, 
	{ NOTE_REST, 136 }, 
	{ NOTE_C4, 136 }, 
	{ NOTE_B3, 136 }, 
	{ NOTE_A3, 136 }, 
	{ NOTE_B3, 142 }, 
	{ NOTE_FS3, 136 }, 
	{ NOTE_FS3, 136 }, 
	{ NOTE_FS3, 136 }, 
	{ NOTE_FS3, 136 }, 
	{ NOTE_FS3, 136 }, 
	{ NOTE_FS3, 136 }, 
	{ NOTE_FS3, 136 }, 
	{ NOTE_FS3, 136 }, 
	{ NOTE_FS3, 136 }, 
	{ NOTE_A3, 136 }, 
	{ NOTE_B3, 136 }, 
	{ NOTE_A3, 136 }, 
	{ NOTE_B3, 141 }, 
	{ NOTE_E4, 136 }, 
	{ NOTE_E4, 136 }, 
	{ NOTE_E4, 136 }, 
	{ NOTE_E4, 136 }, 
	{ NOTE_E4, 136 }, 
	{ NOTE_E4, 136 }, 
	{ NOTE_E4, 136 }, 
	{ NOTE_E4, 139 }, 
	{ NOTE_E3, 273 }, 
	{ NOTE_E3, 136 }, 
	{ NOTE_E3, 136 }, 
	{ NOTE_D4, 273 }, 
	{ NOTE_E4, 273 }, 
	{ NOTE_REST, 136 }, 
	{ NOTE_E4, 136 }, 
	{ NOTE_FS4, 273 }, 
	{ NOTE_B4, 136 }, 
	{ NOTE_G4, 136 }, 
	{ NOTE_FS4, 136 }, 
	{ NOTE_G4, 136 }, 
	{ NOTE_C4, 136 }, 
	{ NOTE_C4, 136 }, 
	{ NOTE_C4, 136 }, 
	{ NOTE_C4, 136 }, 
	{ NOTE_C4, 273 }, 
	{ NOTE_B3, 273 }, 
	{ NOTE_C4, 136 }, 
	{ NOTE_C4, 136 }, 
	{ NOTE_C4, 136 }, 
	{ NOTE_C4, 136 }, 
	{ NOTE_EB4, 273 }, 
	{ NOTE_B3, 277 }, 
	{ NOTE_E3, 273 }, 
	{ NOTE_E3, 136 }, 
	{ NOTE_E3, 136 }, 
	{ NOTE_D4, 273 }, 
	{ NOTE_E4, 273 }, 
	{ NOTE_REST, 136 }, 
	{ NOTE_E4, 136 }, 
	{ NOTE_FS4, 273 }, 
	{ NOTE_B4, 136 }, 
	{ NOTE_G4, 136 }, 
	{ NOTE_FS4, 136 }, 
	{ NOTE_G4, 136 }, 
	{ NOTE_C4, 136 }, 
	{ NOTE_C4, 136 }, 
	{ NOTE_C4, 136 }, 
	{ NOTE_C4, 136 }, 
	{ NOTE_C4, 273 }, 
	{ NOTE_B3, 276 }, 
	{ NOTE_FS4, 136 }, 
	{ NOTE_E4, 136 }, 
	{ NOTE_EB4, 136 }, 
	{ NOTE_REST, 137 }, 
	{ NOTE_EB4, 136 }, 
	{ NOTE_C4, 136 }, 
	{ NOTE_B3, 136 }, 
	{ NOTE_REST, 137 }, 
	{ NOTE_E3, 273 }, 
	{ NOTE_E3, 273 }, 
	{ NOTE_REST, 545 }, 
	{ NOTE_F3, 273 }, 
	{ NOTE_F3, 273 }, 
	{ NOTE_REST, 545 }, 
	{ NOTE_E3, 681 }, 
	{ NOTE_E3, 136 }, 
	{ NOTE_E3, 136 }, 
	{ NOTE_E3, 136 }, 
	{ NOTE_FS3, 136 }, 
	{ NOTE_E3, 136 }, 
	{ NOTE_E3, 136 }, 
	{ NOTE_E3, 136 }, 
	{ NOTE_G3, 2185 }, 
	{ NOTE_C4, 682 }, 
	{ NOTE_A3, 136 }, 
	{ NOTE_A3, 136 }, 
	{ NOTE_A3, 136 }, 
	{ NOTE_B3, 136 }, 
	{ NOTE_A3, 136 }, 
	{ NOTE_A3, 136 }, 
	{ NOTE_A3, 136 }, 
	{ NOTE_A3, 2185 }, 
	{ NOTE_D4, 681 }, 
	{ NOTE_A3, 136 }, 
	{ NOTE_A3, 136 }, 
	{ NOTE_A3, 138 }, 
	{ NOTE_C4, 136 }, 
	{ NOTE_A3, 136 }, 
	{ NOTE_A3, 136 }, 
	{ NOTE_A3, 136 }, 
	{ NOTE_B3, 1091 }, 
	{ NOTE_E3, 683 }, 
	{ NOTE_E3, 136 }, 
	{ NOTE_E3, 136 }, 
	{ NOTE_E3, 136 }, 
	{ NOTE_G3, 136 }, 
	{ NOTE_E3, 136 }, 
	{ NOTE_E3, 136 }, 
	{ NOTE_E3, 136 }, 
	{ NOTE_C4, 2185 }, 
	{ NOTE_E3, 273 }, 
	{ NOTE_E3, 273 }, 
	{ NOTE_REST, 545 }, 
	{ NOTE_F3, 273 }, 
	{ NOTE_F3, 273 }, 
	{ NOTE_REST, 545 }, 
	{ NOTE_E3, 681 }, 
	{ NOTE_E3, 136 }, 
	{ NOTE_E3, 136 }, 
	{ NOTE_E3, 136 }, 
	{ NOTE_G3, 136 }, 
	{ NOTE_E3, 136 }, 
	{ NOTE_E3, 136 }, 
	{ NOTE_E3, 136 }, 
	{ NOTE_C4, 2185 }, 
	{ NOTE_E3, 273 }, 
	{ NOTE_E3, 273 }, 
	{ NOTE_REST, 545 }, 
	{ NOTE_F3, 273 }, 
	{ NOTE_F3, 9546 }, 
	{ NOTE_REST, 4615 }, 
	{ NOTE_REST, 4615 }, 
	{ NOTE_E4, 1154 }, 
	{ NOTE_FS4, 2308 }, 
	{ NOTE_G4, 2307 }, 
	{ NOTE_A4, 1154 }, 
	{ NOTE_B4, 1154 }, 
	{ NOTE_EB5, 1153 }, 
	{ NOTE_E6, 288 }, 
	{ NOTE_B6, 288 }, 
	{ NOTE_G6, 288 }, 
	{ NOTE_E6, 288 }, 
	{ NOTE_A6, 288 }, 
	{ NOTE_FS6, 288 }, 
	{ NOTE_D6, 288 }, 
	{ NOTE_D6, 144 }, 
	{ NOTE_D6, 144 }, 
	{ NOTE_D6, 288 }, 
	{ NOTE_A6, 288 }, 
	{ NOTE_FS6, 288 }, 
	{ NOTE_D6, 288 }, 
	{ NOTE_G6, 288 }, 
	{ NOTE_E6, 288 }, 
	{ NOTE_C6, 288 }, 
	{ NOTE_C6, 144 }, 
	{ NOTE_C6, 151 }, 
	{ NOTE_C6, 288 }, 
	{ NOTE_G6, 288 }, 
	{ NOTE_E6, 288 }, 
	{ NOTE_C6, 288 }, 
	{ NOTE_FS6, 288 }, 
	{ NOTE_E6, 96 }, 
	{ NOTE_FS6, 96 }, 
	{ NOTE_E6, 96 }, 
	{ NOTE_EB6, 288 }, 
	{ NOTE_C6, 288 }, 
	{ NOTE_B5, 288 }, 
	{ NOTE_C6, 288 }, 
	{ NOTE_D6, 288 }, 
	{ NOTE_C6, 288 }, 
	{ NOTE_EB6, 288 }, 
	{ NOTE_E6, 288 }, 
	{ NOTE_FS6, 288 }, 
	{ NOTE_G6, 295 }, 
	{ NOTE_E6, 288 }, 
	{ NOTE_B6, 288 }, 
	{ NOTE_G6, 288 }, 
	{ NOTE_E6, 288 }, 
	{ NOTE_A6, 288 }, 
	{ NOTE_FS6, 288 }, 
	{ NOTE_D6, 288 }, 
	{ NOTE_D6, 144 }, 
	{ NOTE_D6, 144 }, 
	{ NOTE_D6, 288 }, 
	{ NOTE_A6, 288 }, 
	{ NOTE_FS6, 288 }, 
	{ NOTE_D6, 288 }, 
	{ NOTE_G6, 288 }, 
	{ NOTE_E6, 288 }, 
	{ NOTE_C6, 288 }, 
	{ NOTE_C6, 144 }, 
	{ NOTE_C6, 151 }, 
	{ NOTE_C6, 288 }, 
	{ NOTE_G6, 288 }, 
	{ NOTE_E6, 288 }, 
	{ NOTE_C6, 288 }, 
	{ NOTE_FS6, 288 }, 
	{ NOTE_E6, 96 }, 
	{ NOTE_FS6, 96 }, 
	{ NOTE_E6, 96 }, 
	{ NOTE_EB6, 288 }, 
	{ NOTE_C6, 288 }, 
	{ NOTE_B5, 288 }, 
	{ NOTE_C6, 288 }, 
	{ NOTE_D6, 288 }, 
	{ NOTE_C6, 288 }, 
	{ NOTE_EB6, 288 }, 
	{ NOTE_E6, 288 }, 
	{ NOTE_FS6, 288 }, 
	{ NOTE_G6, 295 }, 
	{ NOTE_E6, 865 }, 
	{ NOTE_E6, 144 }, 
	{ NOTE_FS6, 144 }, 
	{ NOTE_G6, 865 }, 
	{ NOTE_FS6, 144 }, 
	{ NOTE_G6, 144 }, 
	{ NOTE_A6, 192 }, 
	{ NOTE_G6, 192 }, 
	{ NOTE_FS6, 192 }, 
	{ NOTE_B6, 144 }, 
	{ NOTE_G6, 144 }, 
	{ NOTE_E6, 96 }, 
	{ NOTE_G6, 96 }, 
	{ NOTE_E6, 96 }, 
	{ NOTE_C6, 865 }, 
	{ NOTE_REST, 292 }, 
	{ NOTE_D6, 577 }, 
	{ NOTE_D6, 577 }, 
	{ NOTE_G6, 144 }, 
	{ NOTE_FS6, 144 }, 
	{ NOTE_B5, 288 }, 
	{ NOTE_G6, 144 }, 
	{ NOTE_FS6, 144 }, 
	{ NOTE_B5, 144 }, 
	{ NOTE_D6, 144 }, 
	{ NOTE_B5, 721 }, 
	{ NOTE_G5, 144 }, 
	{ NOTE_A5, 288 }, 
	{ NOTE_A5, 288 }, 
	{ NOTE_A5, 384 }, 
	{ NOTE_A5, 96 }, 
	{ NOTE_G5, 96 }, 
	{ NOTE_E5, 144 }, 
	{ NOTE_G5, 148 }, 
	{ NOTE_E5, 865 }, 
	{ NOTE_D5, 288 }, 
	{ NOTE_G5, 433 }, 
	{ NOTE_A5, 144 }, 
	{ NOTE_G5, 288 }, 
	{ NOTE_FS5, 288 }, 
	{ NOTE_D5, 288 }, 
	{ NOTE_A5, 288 }, 
	{ NOTE_G5, 288 }, 
	{ NOTE_FS5, 96 }, 
	{ NOTE_G5, 96 }, 
	{ NOTE_FS5, 96 }, 
	{ NOTE_C5, 865 }, 
	{ NOTE_A4, 144 }, 
	{ NOTE_B4, 148 }, 
	{ NOTE_C5, 865 }, 
	{ NOTE_B4, 144 }, 
	{ NOTE_C5, 144 }, 
	{ NOTE_D5, 192 }, 
	{ NOTE_C5, 192 }, 
	{ NOTE_D5, 192 }, 
	{ NOTE_E5, 192 }, 
	{ NOTE_FS5, 192 }, 
	{ NOTE_G5, 192 }, 
	{ NOTE_B5, 288 }, 
	{ NOTE_G5, 288 }, 
	{ NOTE_G6, 288 }, 
	{ NOTE_FS6, 288 }, 
	{ NOTE_EB6, 96 }, 
	{ NOTE_E6, 96 }, 
	{ NOTE_EB6, 96 }, 
	{ NOTE_B5, 288 }, 
	{ NOTE_A5, 288 }, 
	{ NOTE_B6, 294 }, 
	{ NOTE_E6, 288 }, 
	{ NOTE_B6, 288 }, 
	{ NOTE_G6, 288 }, 
	{ NOTE_E6, 288 }, 
	{ NOTE_A6, 288 }, 
	{ NOTE_FS6, 288 }, 
	{ NOTE_D6, 288 }, 
	{ NOTE_D6, 144 }, 
	{ NOTE_D6, 144 }, 
	{ NOTE_D6, 288 }, 
	{ NOTE_A6, 288 }, 
	{ NOTE_FS6, 288 }, 
	{ NOTE_D6, 288 }, 
	{ NOTE_G6, 288 }, 
	{ NOTE_E6, 288 }, 
	{ NOTE_C6, 288 }, 
	{ NOTE_C6, 144 }, 
	{ NOTE_C6, 151 }, 
	{ NOTE_C6, 288 }, 
	{ NOTE_G6, 288 }, 
	{ NOTE_E6, 288 }, 
	{ NOTE_C6, 288 }, 
	{ NOTE_FS6, 288 }, 
	{ NOTE_E6, 96 }, 
	{ NOTE_FS6, 96 }, 
	{ NOTE_E6, 96 }, 
	{ NOTE_EB6, 288 }, 
	{ NOTE_C6, 288 }, 
	{ NOTE_B5, 288 }, 
	{ NOTE_C6, 288 }, 
	{ NOTE_D6, 288 }, 
	{ NOTE_C6, 288 }, 
	{ NOTE_EB6, 288 }, 
	{ NOTE_E6, 288 }, 
	{ NOTE_FS6, 288 }, 
	{ NOTE_G6, 295 }, 
	{ NOTE_E6, 288 }, 
	{ NOTE_B6, 288 }, 
	{ NOTE_G6, 288 }, 
	{ NOTE_E6, 288 }, 
	{ NOTE_A6, 288 }, 
	{ NOTE_FS6, 288 }, 
	{ NOTE_D6, 288 }, 
	{ NOTE_D6, 144 }, 
	{ NOTE_D6, 144 }, 
	{ NOTE_D6, 288 }, 
	{ NOTE_A6, 288 }, 
	{ NOTE_FS6, 288 }, 
	{ NOTE_D6, 288 }, 
	{ NOTE_G6, 288 }, 
	{ NOTE_E6, 288 }, 
	{ NOTE_C6, 288 }, 
	{ NOTE_C6, 144 }, 
	{ NOTE_C6, 151 }, 
	{ NOTE_C6, 288 }, 
	{ NOTE_G6, 288 }, 
	{ NOTE_E6, 288 }, 
	{ NOTE_C6, 288 }, 
	{ NOTE_FS6, 288 }, 
	{ NOTE_E6, 96 }, 
	{ NOTE_FS6, 96 }, 
	{ NOTE_E6, 96 }, 
	{ NOTE_EB6, 288 }, 
	{ NOTE_C6, 288 }, 
	{ NOTE_B5, 288 }, 
	{ NOTE_C6, 288 }, 
	{ NOTE_D6, 288 }, 
	{ NOTE_C6, 288 }, 
	{ NOTE_EB6, 288 }, 
	{ NOTE_E6, 288 }, 
	{ NOTE_FS6, 288 }, 
	{ NOTE_G6, 295 }, 
	{ NOTE_E3, 288 }, 
	{ NOTE_B3, 288 }, 
	{ NOTE_E4, 288 }, 
	{ NOTE_G4, 288 }, 
	{ NOTE_D4, 288 }, 
	{ NOTE_D4, 288 }, 
	{ NOTE_A4, 288 }, 
	{ NOTE_D4, 288 }, 
	{ NOTE_E5, 96 }, 
	{ NOTE_FS5, 96 }, 
	{ NOTE_E5, 96 }, 
	{ NOTE_D5, 288 }, 
	{ NOTE_G5, 288 }, 
	{ NOTE_G5, 288 }, 
	{ NOTE_C4, 288 }, 
	{ NOTE_G4, 288 }, 
	{ NOTE_D5, 288 }, 
	{ NOTE_G4, 295 }, 
	{ NOTE_G4, 288 }, 
	{ NOTE_E4, 288 }, 
	{ NOTE_B4, 288 }, 
	{ NOTE_B4, 288 }, 
	{ NOTE_A3, 288 }, 
	{ NOTE_E4, 288 }, 
	{ NOTE_A4, 288 }, 
	{ NOTE_A3, 288 }, 
	{ NOTE_B3, 288 }, 
	{ NOTE_EB4, 288 }, 
	{ NOTE_G4, 288 }, 
	{ NOTE_B3, 288 }, 
	{ NOTE_EB4, 288 }, 
	{ NOTE_A4, 288 }, 
	{ NOTE_B4, 288 }, 
	{ NOTE_G3, 295 }, 
	{ NOTE_E3, 288 }, 
	{ NOTE_E3, 288 }, 
	{ NOTE_E3, 288 }, 
	{ NOTE_E3, 288 }, 
	{ NOTE_E3, 288 }, 
	{ NOTE_E3, 288 }, 
	{ NOTE_E3, 288 }, 
	{ NOTE_E3, 288 }, 
	{ NOTE_E3, 288 }, 
	{ NOTE_E3, 288 }, 
	{ NOTE_E3, 288 }, 
	{ NOTE_E3, 288 }, 
	{ NOTE_E3, 288 }, 
	{ NOTE_E3, 288 }, 
	{ NOTE_E3, 288 }, 
	{ NOTE_E3, 295 }, 
	{ NOTE_FS3, 288 }, 
	{ NOTE_FS3, 288 }, 
	{ NOTE_G3, 288 }, 
	{ NOTE_FS3, 288 }, 
	{ NOTE_FS3, 288 }, 
	{ NOTE_FS3, 288 }, 
	{ NOTE_G3, 288 }, 
	{ NOTE_CS4, 144 }, 
	{ NOTE_CS4, 144 }, 
	{ NOTE_FS3, 288 }, 
	{ NOTE_FS3, 288 }, 
	{ NOTE_G3, 288 }, 
	{ NOTE_FS3, 288 }, 
	{ NOTE_FS3, 288 }, 
	{ NOTE_FS3, 288 }, 
	{ NOTE_G3, 288 }, 
	{ NOTE_CS4, 295 }, 
	{ NOTE_FS3, 288 }, 
	{ NOTE_FS3, 288 }, 
	{ NOTE_G3, 288 }, 
	{ NOTE_FS3, 288 }, 
	{ NOTE_FS3, 288 }, 
	{ NOTE_FS3, 288 }, 
	{ NOTE_G3, 288 }, 
	{ NOTE_CS4, 144 }, 
	{ NOTE_CS4, 144 }, 
	{ NOTE_FS3, 288 }, 
	{ NOTE_FS3, 288 }, 
	{ NOTE_G3, 288 }, 
	{ NOTE_FS3, 288 }, 
	{ NOTE_FS3, 288 }, 
	{ NOTE_FS3, 288 }, 
	{ NOTE_G3, 288 }, 
	{ NOTE_CS4, 295 }, 
	{ NOTE_G3, 2182 }, 
	{ NOTE_FS3, 1635 }, 
	{ NOTE_A4, 547 }, 
	{ NOTE_E3, 136 }, 
	{ NOTE_E3, 136 }, 
	{ NOTE_E3, 136 }, 
	{ NOTE_E3, 136 }, 
	{ NOTE_E3, 136 }, 
	{ NOTE_E3, 136 }, 
	{ NOTE_E3, 136 }, 
	{ NOTE_E3, 136 }, 
	{ NOTE_E3, 136 }, 
	{ NOTE_G3, 136 }, 
	{ NOTE_A3, 136 }, 
	{ NOTE_REST, 136 }, 
	{ NOTE_BB3, 136 }, 
	{ NOTE_A3, 136 }, 
	{ NOTE_G3, 136 }, 
	{ NOTE_A3, 142 }, 
	{ NOTE_E3, 136 }, 
	{ NOTE_E3, 136 }, 
	{ NOTE_E3, 136 }, 
	{ NOTE_E3, 136 }, 
	{ NOTE_E3, 136 }, 
	{ NOTE_E3, 136 }, 
	{ NOTE_E3, 136 }, 
	{ NOTE_E3, 136 }, 
	{ NOTE_E3, 136 }, 
	{ NOTE_G3, 136 }, 
	{ NOTE_A3, 136 }, 
	{ NOTE_G3, 136 }, 
	{ NOTE_A3, 141 }, 
	{ NOTE_E3, 136 }, 
	{ NOTE_E3, 136 }, 
	{ NOTE_E3, 136 }, 
	{ NOTE_E3, 136 }, 
	{ NOTE_E3, 136 }, 
	{ NOTE_E3, 136 }, 
	{ NOTE_E3, 136 }, 
	{ NOTE_E3, 136 }, 
	{ NOTE_E3, 136 }, 
	{ NOTE_G3, 136 }, 
	{ NOTE_A3, 136 }, 
	{ NOTE_REST, 136 }, 
	{ NOTE_BB3, 136 }, 
	{ NOTE_A3, 136 }, 
	{ NOTE_G3, 136 }, 
	{ NOTE_A3, 142 }, 
	{ NOTE_E3, 136 }, 
	{ NOTE_E3, 136 }, 
	{ NOTE_E3, 136 }, 
	{ NOTE_E3, 136 }, 
	{ NOTE_E3, 136 }, 
	{ NOTE_E3, 136 }, 
	{ NOTE_E3, 136 }, 
	{ NOTE_E3, 136 }, 
	{ NOTE_E3, 136 }, 
	{ NOTE_G3, 136 }, 
	{ NOTE_A3, 136 }, 
	{ NOTE_G3, 136 }, 
	{ NOTE_A3, 141 }, 
	{ NOTE_E3, 136 }, 
	{ NOTE_E3, 136 }, 
	{ NOTE_E3, 136 }, 
	{ NOTE_E3, 136 }, 
	{ NOTE_E3, 136 }, 
	{ NOTE_E3, 136 }, 
	{ NOTE_E3, 136 }, 
	{ NOTE_E3, 136 }, 
	{ NOTE_E3, 136 }, 
	{ NOTE_G3, 136 }, 
	{ NOTE_A3, 136 }, 
	{ NOTE_REST, 136 }, 
	{ NOTE_BB3, 136 }, 
	{ NOTE_A3, 136 }, 
	{ NOTE_G3, 136 }, 
	{ NOTE_A3, 142 }, 
	{ NOTE_E3, 136 }, 
	{ NOTE_E3, 136 }, 
	{ NOTE_E3, 136 }, 
	{ NOTE_E3, 136 }, 
	{ NOTE_E3, 136 }, 
	{ NOTE_E3, 136 }, 
	{ NOTE_E3, 136 }, 
	{ NOTE_E3, 136 }, 
	{ NOTE_E3, 136 }, 
	{ NOTE_G3, 136 }, 
	{ NOTE_A3, 136 }, 
	{ NOTE_G3, 136 }, 
	{ NOTE_A3, 141 }, 
	{ NOTE_E3, 136 }, 
	{ NOTE_E3, 136 }, 
	{ NOTE_E3, 136 }, 
	{ NOTE_E3, 136 }, 
	{ NOTE_E3, 136 }, 
	{ NOTE_E3, 136 }, 
	{ NOTE_E3, 136 }, 
	{ NOTE_E3, 136 }, 
	{ NOTE_E3, 136 }, 
	{ NOTE_G3, 136 }, 
	{ NOTE_A3, 136 }, 
	{ NOTE_REST, 136 }, 
	{ NOTE_BB3, 136 }, 
	{ NOTE_A3, 136 }, 
	{ NOTE_G3, 136 }, 
	{ NOTE_A3, 142 }, 
	{ NOTE_E3, 136 }, 
	{ NOTE_E3, 136 }, 
	{ NOTE_E3, 136 }, 
	{ NOTE_E3, 136 }, 
	{ NOTE_E3, 136 }, 
	{ NOTE_E3, 136 }, 
	{ NOTE_E3, 136 }, 
	{ NOTE_E3, 136 }, 
	{ NOTE_E3, 136 }, 
	{ NOTE_G3, 136 }, 
	{ NOTE_A3, 136 }, 
	{ NOTE_G3, 136 }, 
	{ NOTE_A3, 141 }, 
	{ NOTE_FS3, 136 }, 
	{ NOTE_FS3, 136 }, 
	{ NOTE_FS3, 136 }, 
	{ NOTE_FS3, 136 }, 
	{ NOTE_FS3, 136 }, 
	{ NOTE_FS3, 136 }, 
	{ NOTE_FS3, 136 }, 
	{ NOTE_FS3, 136 }, 
	{ NOTE_FS3, 136 }, 
	{ NOTE_A3, 136 }, 
	{ NOTE_B3, 136 }, 
	{ NOTE_REST, 136 }, 
	{ NOTE_C4, 136 }, 
	{ NOTE_B3, 136 }, 
	{ NOTE_A3, 136 }, 
	{ NOTE_B3, 142 }, 
	{ NOTE_FS3, 136 }, 
	{ NOTE_FS3, 136 }, 
	{ NOTE_FS3, 136 }, 
	{ NOTE_FS3, 136 }, 
	{ NOTE_FS3, 136 }, 
	{ NOTE_FS3, 136 }, 
	{ NOTE_FS3, 136 }, 
	{ NOTE_FS3, 136 }, 
	{ NOTE_FS3, 136 }, 
	{ NOTE_A3, 136 }, 
	{ NOTE_B3, 136 }, 
	{ NOTE_A3, 136 }, 
	{ NOTE_B3, 141 }, 
	{ NOTE_FS3, 136 }, 
	{ NOTE_FS3, 136 }, 
	{ NOTE_FS3, 136 }, 
	{ NOTE_FS3, 136 }, 
	{ NOTE_FS3, 136 }, 
	{ NOTE_FS3, 136 }, 
	{ NOTE_FS3, 136 }, 
	{ NOTE_FS3, 136 }, 
	{ NOTE_FS3, 136 }, 
	{ NOTE_A3, 136 }, 
	{ NOTE_B3, 136 }, 
	{ NOTE_REST, 136 }, 
	{ NOTE_C4, 136 }, 
	{ NOTE_B3, 136 }, 
	{ NOTE_A3, 136 }, 
	{ NOTE_B3, 142 }, 
	{ NOTE_FS3, 136 }, 
	{ NOTE_FS3, 136 }, 
	{ NOTE_FS3, 136 }, 
	{ NOTE_FS3, 136 }, 
	{ NOTE_FS3, 136 }, 
	{ NOTE_FS3, 136 }, 
	{ NOTE_FS3, 136 }, 
	{ NOTE_FS3, 136 }, 
	{ NOTE_FS3, 136 }, 
	{ NOTE_A3, 136 }, 
	{ NOTE_B3, 136 }, 
	{ NOTE_A3, 136 }, 
	{ NOTE_B3, 141 }, 
	{ NOTE_E4, 136 }, 
	{ NOTE_E4, 136 }, 
	{ NOTE_E4, 136 }, 
	{ NOTE_E4, 136 }, 
	{ NOTE_E4, 136 }, 
	{ NOTE_E4, 136 }, 
	{ NOTE_E4, 136 }, 
	{ NOTE_E4, 139 }, 
	{ NOTE_E3, 136 }, 
	{ NOTE_E3, 136 }, 
	{ NOTE_F3, 136 }, 
	{ NOTE_E3, 136 }, 
	{ NOTE_E3, 136 }, 
	{ NOTE_F3, 136 }, 
	{ NOTE_E3, 136 }, 
	{ NOTE_E3, 136 }, 
	{ NOTE_F3, 136 }, 
	{ NOTE_E3, 136 }, 
	{ NOTE_E3, 136 }, 
	{ NOTE_F3, 136 }, 
	{ NOTE_E3, 136 }, 
	{ NOTE_E3, 136 }, 
	{ NOTE_B3, 136 }, 
	{ NOTE_B3, 142 }, 
	{ NOTE_E3, 136 }, 
	{ NOTE_E3, 136 }, 
	{ NOTE_F3, 136 }, 
	{ NOTE_E3, 136 }, 
	{ NOTE_E3, 136 }, 
	{ NOTE_F3, 136 }, 
	{ NOTE_E3, 136 }, 
	{ NOTE_E3, 136 }, 
	{ NOTE_F3, 136 }, 
	{ NOTE_E3, 136 }, 
	{ NOTE_E3, 136 }, 
	{ NOTE_F3, 136 }, 
	{ NOTE_E3, 136 }, 
	{ NOTE_E3, 136 }, 
	{ NOTE_B3, 278 }, 
	{ NOTE_E3, 136 }, 
	{ NOTE_E3, 136 }, 
	{ NOTE_F3, 136 }, 
	{ NOTE_E3, 136 }, 
	{ NOTE_E3, 136 }, 
	{ NOTE_F3, 136 }, 
	{ NOTE_E3, 136 }, 
	{ NOTE_E3, 136 }, 
	{ NOTE_F3, 136 }, 
	{ NOTE_E3, 136 }, 
	{ NOTE_E3, 136 }, 
	{ NOTE_F3, 136 }, 
	{ NOTE_E3, 136 }, 
	{ NOTE_E3, 136 }, 
	{ NOTE_B3, 136 }, 
	{ NOTE_B3, 142 }, 
	{ NOTE_E3, 136 }, 
	{ NOTE_E3, 136 }, 
	{ NOTE_F3, 136 }, 
	{ NOTE_E3, 136 }, 
	{ NOTE_E3, 136 }, 
	{ NOTE_F3, 136 }, 
	{ NOTE_E3, 136 }, 
	{ NOTE_E3, 136 }, 
	{ NOTE_F3, 136 }, 
	{ NOTE_E3, 136 }, 
	{ NOTE_E3, 136 }, 
	{ NOTE_F3, 136 }, 
	{ NOTE_E3, 136 }, 
	{ NOTE_E3, 136 }, 
	{ NOTE_B3, 278 }, 
	{ NOTE_E3, 136 }, 
	{ NOTE_E3, 136 }, 
	{ NOTE_E3, 136 }, 
	{ NOTE_E3, 136 }, 
	{ NOTE_E3, 136 }, 
	{ NOTE_E3, 136 }, 
	{ NOTE_E3, 136 }, 
	{ NOTE_E3, 68 }, 
	{ NOTE_E3, 71 }, 
	{ NOTE_E3, 68 }, 
	{ NOTE_E3, 68 }, 
	{ NOTE_FS3, 136 }, 
	{ NOTE_G3, 136 }, 
	{ NOTE_A3, 136 }, 
	{ NOTE_B3, 136 }, 
	{ NOTE_C4, 136 }, 
	{ NOTE_D4, 136 }, 
	{ NOTE_E4, 136 }, 
	{ NOTE_FS4, 136 }, 
	{ NOTE_G4, 136 }, 
	{ NOTE_C4, 681 }, 
	{ NOTE_C4, 68 }, 
	{ NOTE_C4, 73 }, 
	{ NOTE_C4, 136 }, 
	{ NOTE_B3, 136 }, 
	{ NOTE_C4, 136 }, 
	{ NOTE_D4, 136 }, 
	{ NOTE_C4, 136 }, 
	{ NOTE_B3, 136 }, 
	{ NOTE_G3, 136 }, 
	{ NOTE_FS3, 136 }, 
	{ NOTE_E3, 136 }, 
	{ NOTE_E3, 136 }, 
	{ NOTE_E3, 136 }, 
	{ NOTE_E3, 136 }, 
	{ NOTE_E3, 136 }, 
	{ NOTE_E3, 136 }, 
	{ NOTE_E3, 136 }, 
	{ NOTE_E3, 142 }, 
	{ NOTE_E3, 68 }, 
	{ NOTE_E3, 68 }, 
	{ NOTE_FS3, 136 }, 
	{ NOTE_G3, 136 }, 
	{ NOTE_A3, 136 }, 
	{ NOTE_B3, 136 }, 
	{ NOTE_C4, 136 }, 
	{ NOTE_D4, 136 }, 
	{ NOTE_E4, 136 }, 
	{ NOTE_FS4, 136 }, 
	{ NOTE_G4, 136 }, 
	{ NOTE_C4, 681 }, 
	{ NOTE_C4, 68 }, 
	{ NOTE_C4, 73 }, 
	{ NOTE_C4, 136 }, 
	{ NOTE_B3, 136 }, 
	{ NOTE_C4, 136 }, 
	{ NOTE_D4, 136 }, 
	{ NOTE_C4, 136 }, 
	{ NOTE_B3, 136 }, 
	{ NOTE_G3, 136 }, 
	{ NOTE_FS3, 136 }, 
	{ NOTE_E3, 136 }, 
	{ NOTE_E3, 136 }, 
	{ NOTE_E3, 136 }, 
	{ NOTE_E3, 136 }, 
	{ NOTE_E3, 136 }, 
	{ NOTE_E3, 136 }, 
	{ NOTE_E3, 136 }, 
	{ NOTE_E3, 142 }, 
	{ NOTE_E3, 68 }, 
	{ NOTE_E3, 68 }, 
	{ NOTE_FS3, 136 }, 
	{ NOTE_G3, 136 }, 
	{ NOTE_A3, 136 }, 
	{ NOTE_B3, 136 }, 
	{ NOTE_C4, 136 }, 
	{ NOTE_D4, 136 }, 
	{ NOTE_E4, 136 }, 
	{ NOTE_FS4, 136 }, 
	{ NOTE_G4, 136 }, 
	{ NOTE_C4, 681 }, 
	{ NOTE_C4, 68 }, 
	{ NOTE_C4, 73 }, 
	{ NOTE_C4, 136 }, 
	{ NOTE_B3, 136 }, 
	{ NOTE_C4, 136 }, 
	{ NOTE_D4, 136 }, 
	{ NOTE_C4, 136 }, 
	{ NOTE_B3, 136 }, 
	{ NOTE_G3, 136 }, 
	{ NOTE_FS3, 136 }, 
	{ NOTE_E3, 136 }, 
	{ NOTE_E3, 136 }, 
	{ NOTE_E3, 136 }, 
	{ NOTE_E3, 136 }, 
	{ NOTE_E3, 136 }, 
	{ NOTE_E3, 136 }, 
	{ NOTE_E3, 136 }, 
	{ NOTE_E3, 142 }, 
	{ NOTE_E3, 68 }, 
	{ NOTE_E3, 68 }, 
	{ NOTE_FS3, 136 }, 
	{ NOTE_G3, 136 }, 
	{ NOTE_A3, 136 }, 
	{ NOTE_B3, 136 }, 
	{ NOTE_C4, 136 }, 
	{ NOTE_D4, 136 }, 
	{ NOTE_E4, 136 }, 
	{ NOTE_FS4, 136 }, 
	{ NOTE_C4, 818 }, 
	{ NOTE_E4, 68 }, 
	{ NOTE_E4, 72 }, 
	{ NOTE_C4, 136 }, 
	{ NOTE_B3, 136 }, 
	{ NOTE_C4, 136 }, 
	{ NOTE_D4, 136 }, 
	{ NOTE_C4, 136 }, 
	{ NOTE_B3, 136 }, 
	{ NOTE_G3, 136 }, 
	{ NOTE_FS3, 136 }, 
	{ NOTE_E3, 954 }, 
	{ NOTE_C4, 68 }, 
	{ NOTE_C4, 72 }, 
	{ NOTE_C4, 136 }, 
	{ NOTE_B3, 136 }, 
	{ NOTE_C4, 136 }, 
	{ NOTE_D4, 136 }, 
	{ NOTE_C4, 136 }, 
	{ NOTE_B3, 136 }, 
	{ NOTE_G3, 136 }, 
	{ NOTE_FS3, 139 }, 
	{ NOTE_E3, 136 }, 
	{ NOTE_F3, 136 }, 
	{ NOTE_B3, 136 }, 
	{ NOTE_E3, 136 }, 
	{ NOTE_F3, 136 }, 
	{ NOTE_C4, 136 }, 
	{ NOTE_E3, 136 }, 
	{ NOTE_FS3, 136 }, 
	{ NOTE_CS4, 136 }, 
	{ NOTE_E3, 136 }, 
	{ NOTE_F3, 136 }, 
	{ NOTE_C4, 136 }, 
	{ NOTE_E3, 136 }, 
	{ NOTE_F3, 136 }, 
	{ NOTE_B3, 136 }, 
	{ NOTE_B3, 142 }, 
	{ NOTE_E3, 136 }, 
	{ NOTE_F3, 136 }, 
	{ NOTE_B3, 136 }, 
	{ NOTE_E3, 136 }, 
	{ NOTE_F3, 136 }, 
	{ NOTE_C4, 136 }, 
	{ NOTE_E3, 136 }, 
	{ NOTE_F3, 136 }, 
	{ NOTE_G3, 136 }, 
	{ NOTE_FS3, 136 }, 
	{ NOTE_E3, 136 }, 
	{ NOTE_G3, 136 }, 
	{ NOTE_FS3, 136 }, 
	{ NOTE_E3, 136 }, 
	{ NOTE_G3, 136 }, 
	{ NOTE_FS3, 142 }, 
	{ NOTE_G3, 136 }, 
	{ NOTE_FS3, 136 }, 
	{ NOTE_E3, 136 }, 
	{ NOTE_G3, 136 }, 
	{ NOTE_FS3, 136 }, 
	{ NOTE_E3, 136 }, 
	{ NOTE_G3, 136 }, 
	{ NOTE_FS3, 139 }, 
	{ NOTE_E3, 136 }, 
	{ NOTE_E3, 136 }, 
	{ NOTE_E3, 136 }, 
	{ NOTE_E3, 136 }, 
	{ NOTE_E3, 136 }, 
	{ NOTE_E3, 136 }, 
	{ NOTE_E3, 136 }, 
	{ NOTE_E3, 136 }, 
	{ NOTE_E3, 136 }, 
	{ NOTE_G3, 136 }, 
	{ NOTE_A3, 136 }, 
	{ NOTE_REST, 136 }, 
	{ NOTE_BB3, 136 }, 
	{ NOTE_A3, 136 }, 
	{ NOTE_G3, 136 }, 
	{ NOTE_A3, 142 }, 
	{ NOTE_E3, 136 }, 
	{ NOTE_E3, 136 }, 
	{ NOTE_E3, 136 }, 
	{ NOTE_E3, 136 }, 
	{ NOTE_E3, 136 }, 
	{ NOTE_E3, 136 }, 
	{ NOTE_E3, 136 }, 
	{ NOTE_E3, 136 }, 
	{ NOTE_E3, 136 }, 
	{ NOTE_G3, 136 }, 
	{ NOTE_A3, 136 }, 
	{ NOTE_G3, 136 }, 
	{ NOTE_A3, 141 }, 
	{ NOTE_E3, 136 }, 
	{ NOTE_E3, 136 }, 
	{ NOTE_E3, 136 }, 
	{ NOTE_E3, 136 }, 
	{ NOTE_E3, 136 }, 
	{ NOTE_E3, 136 }, 
	{ NOTE_E3, 136 }, 
	{ NOTE_E3, 136 }, 
	{ NOTE_E3, 136 }, 
	{ NOTE_G3, 136 }, 
	{ NOTE_A3, 136 }, 
	{ NOTE_REST, 136 }, 
	{ NOTE_BB3, 136 }, 
	{ NOTE_A3, 136 }, 
	{ NOTE_G3, 136 }, 
	{ NOTE_A3, 142 }, 
	{ NOTE_E3, 136 }, 
	{ NOTE_E3, 136 }, 
	{ NOTE_E3, 136 }, 
	{ NOTE_E3, 136 }, 
	{ NOTE_E3, 136 }, 
	{ NOTE_E3, 136 }, 
	{ NOTE_E3, 136 }, 
	{ NOTE_E3, 136 }, 
	{ NOTE_E3, 136 }, 
	{ NOTE_G3, 136 }, 
	{ NOTE_A3, 136 }, 
	{ NOTE_G3, 136 }, 
	{ NOTE_A3, 141 }, 
	{ NOTE_E3, 136 }, 
	{ NOTE_E3, 136 }, 
	{ NOTE_E3, 136 }, 
	{ NOTE_E3, 136 }, 
	{ NOTE_E3, 136 }, 
	{ NOTE_E3, 136 }, 
	{ NOTE_E3, 136 }, 
	{ NOTE_E3, 136 }, 
	{ NOTE_E3, 136 }, 
	{ NOTE_G3, 136 }, 
	{ NOTE_A3, 136 }, 
	{ NOTE_REST, 136 }, 
	{ NOTE_BB3, 136 }, 
	{ NOTE_A3, 136 }, 
	{ NOTE_G3, 136 }, 
	{ NOTE_A3, 142 }, 
	{ NOTE_E3, 136 }, 
	{ NOTE_E3, 136 }, 
	{ NOTE_E3, 136 }, 
	{ NOTE_E3, 136 }, 
	{ NOTE_E3, 136 }, 
	{ NOTE_E3, 136 }, 
	{ NOTE_E3, 136 }, 
	{ NOTE_E3, 136 }, 
	{ NOTE_E3, 136 }, 
	{ NOTE_G3, 136 }, 
	{ NOTE_A3, 136 }, 
	{ NOTE_G3, 136 }, 
	{ NOTE_A3, 141 }, 
	{ NOTE_FS3, 136 }, 
	{ NOTE_FS3, 136 }, 
	{ NOTE_FS3, 136 }, 
	{ NOTE_FS3, 136 }, 
	{ NOTE_FS3, 136 }, 
	{ NOTE_FS3, 136 }, 
	{ NOTE_FS3, 136 }, 
	{ NOTE_FS3, 136 }, 
	{ NOTE_FS3, 136 }, 
	{ NOTE_A3, 136 }, 
	{ NOTE_B3, 136 }, 
	{ NOTE_REST, 136 }, 
	{ NOTE_C4, 136 }, 
	{ NOTE_B3, 136 }, 
	{ NOTE_A3, 136 }, 
	{ NOTE_B3, 142 }, 
	{ NOTE_FS3, 136 }, 
	{ NOTE_FS3, 136 }, 
	{ NOTE_FS3, 136 }, 
	{ NOTE_FS3, 136 }, 
	{ NOTE_FS3, 136 }, 
	{ NOTE_FS3, 136 }, 
	{ NOTE_FS3, 136 }, 
	{ NOTE_FS3, 136 }, 
	{ NOTE_FS3, 136 }, 
	{ NOTE_A3, 136 }, 
	{ NOTE_B3, 136 }, 
	{ NOTE_A3, 136 }, 
	{ NOTE_B3, 141 }, 
	{ NOTE_E4, 136 }, 
	{ NOTE_E4, 136 }, 
	{ NOTE_E4, 136 }, 
	{ NOTE_E4, 136 }, 
	{ NOTE_E4, 136 }, 
	{ NOTE_E4, 136 }, 
	{ NOTE_E4, 136 }, 
	{ NOTE_E4, 139 }, 
	{ NOTE_E3, 273 }, 
	{ NOTE_E3, 136 }, 
	{ NOTE_E3, 136 }, 
	{ NOTE_D4, 273 }, 
	{ NOTE_E4, 273 }, 
	{ NOTE_REST, 136 }, 
	{ NOTE_E4, 136 }, 
	{ NOTE_FS4, 273 }, 
	{ NOTE_B4, 136 }, 
	{ NOTE_G4, 136 }, 
	{ NOTE_FS4, 136 }, 
	{ NOTE_G4, 136 }, 
	{ NOTE_C4, 136 }, 
	{ NOTE_C4, 136 }, 
	{ NOTE_C4, 136 }, 
	{ NOTE_C4, 136 }, 
	{ NOTE_C4, 273 }, 
	{ NOTE_B3, 273 }, 
	{ NOTE_C4, 136 }, 
	{ NOTE_C4, 136 }, 
	{ NOTE_C4, 136 }, 
	{ NOTE_C4, 136 }, 
	{ NOTE_EB4, 273 }, 
	{ NOTE_B3, 277 }, 
	{ NOTE_E3, 273 }, 
	{ NOTE_E3, 136 }, 
	{ NOTE_E3, 136 }, 
	{ NOTE_D4, 273 }, 
	{ NOTE_E4, 273 }, 
	{ NOTE_REST, 136 }, 
	{ NOTE_E4, 136 }, 
	{ NOTE_FS4, 273 }, 
	{ NOTE_B4, 136 }, 
	{ NOTE_G4, 136 }, 
	{ NOTE_FS4, 136 }, 
	{ NOTE_G4, 136 }, 
	{ NOTE_C4, 136 }, 
	{ NOTE_C4, 136 }, 
	{ NOTE_C4, 136 }, 
	{ NOTE_C4, 136 }, 
	{ NOTE_C4, 273 }, 
	{ NOTE_B3, 276 }, 
	{ NOTE_FS4, 136 }, 
	{ NOTE_E4, 136 }, 
	{ NOTE_EB4, 136 }, 
	{ NOTE_REST, 137 }, 
	{ NOTE_EB4, 136 }, 
	{ NOTE_C4, 136 }, 
	{ NOTE_B3, 136 }, 
	{ NOTE_REST, 137 }, 
	{ NOTE_E3, 273 }, 
	{ NOTE_E3, 273 }, 
	{ NOTE_REST, 545 }, 
	{ NOTE_F3, 273 }, 
	{ NOTE_F3, 273 }, 
	{ NOTE_REST, 545 }, 
	{ NOTE_E3, 681 }, 
	{ NOTE_E3, 136 }, 
	{ NOTE_E3, 136 }, 
	{ NOTE_E3, 136 }, 
	{ NOTE_FS3, 136 }, 
	{ NOTE_E3, 136 }, 
	{ NOTE_E3, 136 }, 
	{ NOTE_E3, 136 }, 
	{ NOTE_G3, 2185 }, 
	{ NOTE_C4, 682 }, 
	{ NOTE_A3, 136 }, 
	{ NOTE_A3, 136 }, 
	{ NOTE_A3, 136 }, 
	{ NOTE_B3, 136 }, 
	{ NOTE_A3, 136 }, 
	{ NOTE_A3, 136 }, 
	{ NOTE_A3, 136 }, 
	{ NOTE_A3, 2185 }, 
	{ NOTE_D4, 681 }, 
	{ NOTE_A3, 136 }, 
	{ NOTE_A3, 136 }, 
	{ NOTE_A3, 138 }, 
	{ NOTE_C4, 136 }, 
	{ NOTE_A3, 136 }, 
	{ NOTE_A3, 136 }, 
	{ NOTE_A3, 136 }, 
	{ NOTE_B3, 1091 }, 
	{ NOTE_E3, 683 }, 
	{ NOTE_E3, 136 }, 
	{ NOTE_E3, 136 }, 
	{ NOTE_E3, 136 }, 
	{ NOTE_G3, 136 }, 
	{ NOTE_E3, 136 }, 
	{ NOTE_E3, 136 }, 
	{ NOTE_E3, 136 }, 
	{ NOTE_C4, 2185 }, 
	{ NOTE_E3, 273 }, 
	{ NOTE_E3, 273 }, 
	{ NOTE_REST, 545 }, 
	{ NOTE_F3, 273 }, 
	{ NOTE_F3, 273 }, 
	{ NOTE_REST, 545 }, 
	{ NOTE_E3, 681 }, 
	{ NOTE_E3, 136 }, 
	{ NOTE_E3, 136 }, 
	{ NOTE_E3, 136 }, 
	{ NOTE_G3, 136 }, 
	{ NOTE_E3, 136 }, 
	{ NOTE_E3, 136 }, 
	{ NOTE_E3, 136 }, 
	{ NOTE_C4, 2185 }, 
	{ NOTE_E3, 273 }, 
	{ NOTE_E3, 273 }, 
	{ NOTE_REST, 545 }, 
	{ NOTE_F3, 273 }, 
	{ NOTE_F3, 273 }, 
	{ NOTE_REST, 545 }, 
	{ NOTE_E3, 136 }, 
	{ NOTE_E3, 136 }, 
	{ NOTE_E3, 136 }, 
	{ NOTE_E3, 136 }, 
	{ NOTE_E3, 136 }, 
	{ NOTE_E3, 136 }, 
	{ NOTE_E3, 136 }, 
	{ NOTE_E3, 136 }, 
	{ NOTE_E3, 136 }, 
	{ NOTE_G3, 136 }, 
	{ NOTE_A3, 136 }, 
	{ NOTE_REST, 136 }, 
	{ NOTE_BB3, 136 }, 
	{ NOTE_A3, 136 }, 
	{ NOTE_G3, 136 }, 
	{ NOTE_A3, 142 }, 
	{ NOTE_E3, 136 }, 
	{ NOTE_E3, 136 }, 
	{ NOTE_E3, 136 }, 
	{ NOTE_E3, 136 }, 
	{ NOTE_E3, 136 }, 
	{ NOTE_E3, 136 }, 
	{ NOTE_E3, 136 }, 
	{ NOTE_E3, 136 }, 
	{ NOTE_E3, 136 }, 
	{ NOTE_G3, 136 }, 
	{ NOTE_A3, 136 }, 
	{ NOTE_G3, 136 }, 
	{ NOTE_A3, 141 }, 
	{ NOTE_E3, 136 }, 
	{ NOTE_E3, 136 }, 
	{ NOTE_E3, 136 }, 
	{ NOTE_E3, 136 }, 
	{ NOTE_E3, 136 }, 
	{ NOTE_E3, 136 }, 
	{ NOTE_E3, 136 }, 
	{ NOTE_E3, 136 }, 
	{ NOTE_E3, 136 }, 
	{ NOTE_G3, 136 }, 
	{ NOTE_A3, 136 }, 
	{ NOTE_REST, 136 }, 
	{ NOTE_BB3, 136 }, 
	{ NOTE_A3, 136 }, 
	{ NOTE_G3, 136 }, 
	{ NOTE_A3, 142 }, 
	{ NOTE_E3, 136 }, 
	{ NOTE_E3, 136 }, 
	{ NOTE_E3, 136 }, 
	{ NOTE_E3, 136 }, 
	{ NOTE_E3, 136 }, 
	{ NOTE_E3, 136 }, 
	{ NOTE_E3, 136 }, 
	{ NOTE_E3, 136 }, 
	{ NOTE_E3, 136 }, 
	{ NOTE_G3, 136 }, 
	{ NOTE_A3, 136 }, 
	{ NOTE_G3, 136 }, 
	{ NOTE_A3, 141 }, 
	{ NOTE_E3, 136 }, 
	{ NOTE_E3, 136 }, 
	{ NOTE_E3, 136 }, 
	{ NOTE_E3, 136 }, 
	{ NOTE_E3, 136 }, 
	{ NOTE_E3, 136 }, 
	{ NOTE_E3, 136 }, 
	{ NOTE_E3, 136 }, 
	{ NOTE_E3, 136 }, 
	{ NOTE_G3, 136 }, 
	{ NOTE_A3, 136 }, 
	{ NOTE_REST, 136 }, 
	{ NOTE_BB3, 136 }, 
	{ NOTE_A3, 136 }, 
	{ NOTE_G3, 136 }, 
	{ NOTE_A3, 142 }, 
	{ NOTE_E3, 136 }, 
	{ NOTE_E3, 136 }, 
	{ NOTE_E3, 136 }, 
	{ NOTE_E3, 136 }, 
	{ NOTE_E3, 136 }, 
	{ NOTE_E3, 136 }, 
	{ NOTE_E3, 136 }, 
	{ NOTE_E3, 136 }, 
	{ NOTE_E3, 136 }, 
	{ NOTE_G3, 136 }, 
	{ NOTE_A3, 136 }, 
	{ NOTE_G3, 136 }, 
	{ NOTE_A3, 141 }, 
	{ NOTE_E3, 136 }, 
	{ NOTE_E3, 136 }, 
	{ NOTE_E3, 136 }, 
	{ NOTE_E3, 136 }, 
	{ NOTE_E3, 136 }, 
	{ NOTE_E3, 136 }, 
	{ NOTE_E3, 136 }, 
	{ NOTE_E3, 136 }, 
	{ NOTE_E3, 136 }, 
	{ NOTE_G3, 136 }, 
	{ NOTE_A3, 136 }, 
	{ NOTE_REST, 136 }, 
	{ NOTE_BB3, 136 }, 
	{ NOTE_A3, 136 }, 
	{ NOTE_G3, 136 }, 
	{ NOTE_A3, 142 }, 
	{ NOTE_E3, 136 }, 
	{ NOTE_E3, 136 }, 
	{ NOTE_E3, 136 }, 
	{ NOTE_E3, 136 }, 
	{ NOTE_E3, 136 }, 
	{ NOTE_E3, 136 }, 
	{ NOTE_E3, 136 }, 
	{ NOTE_E3, 136 }, 
	{ NOTE_E3, 136 }, 
	{ NOTE_G3, 136 }, 
	{ NOTE_A3, 136 }, 
	{ NOTE_G3, 136 }, 
	{ NOTE_A3, 141 }, 
	{ NOTE_REST, 1091 }, 
	{ NOTE_G3, 136 }, 
	{ NOTE_FS3, 136 }, 
	{ NOTE_E3, 136 }, 
	{ NOTE_G3, 136 }, 
	{ NOTE_FS3, 136 }, 
	{ NOTE_E3, 136 }, 
	{ NOTE_G3, 136 }, 
	{ NOTE_FS3, 139 }, 
	{ NOTE_E3, 6546 }, 
	{ NOTE_REST, 2182 }, 
	{ NOTE_REST, 2182 }, 
};
const uint16_t NUM_OF_NOTES0 = sizeof(melody0)/sizeof(melody0[0]);

const Note melody1[] PROGMEM = {
	{ NOTE_E4, 273 }, 
	{ NOTE_REST, 818 }, 
	{ NOTE_A4, 273 }, 
	{ NOTE_GS4, 273 }, 
	{ NOTE_G4, 1636 }, 
	{ NOTE_E3, 136 }, 
	{ NOTE_E3, 136 }, 
	{ NOTE_E4, 136 }, 
	{ NOTE_E3, 136 }, 
	{ NOTE_E3, 136 }, 
	{ NOTE_EB4, 136 }, 
	{ NOTE_E3, 136 }, 
	{ NOTE_E3, 136 }, 
	{ NOTE_A4, 273 }, 
	{ NOTE_GS4, 273 }, 
	{ NOTE_G4, 548 }, 
	{ NOTE_E3, 136 }, 
	{ NOTE_E3, 136 }, 
	{ NOTE_B3, 136 }, 
	{ NOTE_E3, 136 }, 
	{ NOTE_E3, 136 }, 
	{ NOTE_BB3, 136 }, 
	{ NOTE_E3, 136 }, 
	{ NOTE_E3, 136 }, 
	{ NOTE_A3, 136 }, 
	{ NOTE_E3, 136 }, 
	{ NOTE_GS3, 136 }, 
	{ NOTE_E3, 136 }, 
	{ NOTE_G3, 136 }, 
	{ NOTE_E3, 136 }, 
	{ NOTE_FS3, 136 }, 
	{ NOTE_E3, 142 }, 
	{ NOTE_E3, 136 }, 
	{ NOTE_E3, 136 }, 
	{ NOTE_E4, 136 }, 
	{ NOTE_E3, 136 }, 
	{ NOTE_E3, 136 }, 
	{ NOTE_EB4, 136 }, 
	{ NOTE_E3, 136 }, 
	{ NOTE_E3, 136 }, 
	{ NOTE_A4, 273 }, 
	{ NOTE_GS4, 273 }, 
	{ NOTE_G4, 548 }, 
	{ NOTE_E3, 136 }, 
	{ NOTE_E3, 136 }, 
	{ NOTE_B3, 136 }, 
	{ NOTE_E3, 136 }, 
	{ NOTE_E3, 136 }, 
	{ NOTE_BB3, 136 }, 
	{ NOTE_E3, 136 }, 
	{ NOTE_E3, 136 }, 
	{ NOTE_A3, 136 }, 
	{ NOTE_E3, 136 }, 
	{ NOTE_GS3, 136 }, 
	{ NOTE_E3, 136 }, 
	{ NOTE_G3, 136 }, 
	{ NOTE_E3, 136 }, 
	{ NOTE_FS3, 136 }, 
	{ NOTE_E3, 142 }, 
	{ NOTE_E3, 136 }, 
	{ NOTE_F3, 136 }, 
	{ NOTE_B3, 136 }, 
	{ NOTE_E3, 136 }, 
	{ NOTE_F3, 136 }, 
	{ NOTE_C4, 136 }, 
	{ NOTE_E3, 136 }, 
	{ NOTE_FS3, 136 }, 
	{ NOTE_CS4, 136 }, 
	{ NOTE_E3, 136 }, 
	{ NOTE_F3, 136 }, 
	{ NOTE_C4, 136 }, 
	{ NOTE_E3, 136 }, 
	{ NOTE_F3, 136 }, 
	{ NOTE_B3, 136 }, 
	{ NOTE_B3, 142 }, 
	{ NOTE_E3, 136 }, 
	{ NOTE_F3, 136 }, 
	{ NOTE_B3, 136 }, 
	{ NOTE_E3, 136 }, 
	{ NOTE_F3, 136 }, 
	{ NOTE_C4, 136 }, 
	{ NOTE_E3, 136 }, 
	{ NOTE_F3, 136 }, 
	{ NOTE_D4, 136 }, 
	{ NOTE_CS4, 136 }, 
	{ NOTE_B3, 136 }, 
	{ NOTE_D4, 136 }, 
	{ NOTE_CS4, 136 }, 
	{ NOTE_B3, 136 }, 
	{ NOTE_D4, 136 }, 
	{ NOTE_CS4, 142 }, 
	{ NOTE_E3, 136 }, 
	{ NOTE_F3, 136 }, 
	{ NOTE_B3, 136 }, 
	{ NOTE_E3, 136 }, 
	{ NOTE_F3, 136 }, 
	{ NOTE_C4, 136 }, 
	{ NOTE_E3, 136 }, 
	{ NOTE_FS3, 136 }, 
	{ NOTE_CS4, 136 }, 
	{ NOTE_E3, 136 }, 
	{ NOTE_F3, 136 }, 
	{ NOTE_C4, 136 }, 
	{ NOTE_E3, 136 }, 
	{ NOTE_F3, 136 }, 
	{ NOTE_B3, 136 }, 
	{ NOTE_B3, 142 }, 
	{ NOTE_E3, 136 }, 
	{ NOTE_F3, 136 }, 
	{ NOTE_B3, 136 }, 
	{ NOTE_E3, 136 }, 
	{ NOTE_F3, 136 }, 
	{ NOTE_C4, 136 }, 
	{ NOTE_E3, 136 }, 
	{ NOTE_FS3, 136 }, 
	{ NOTE_CS4, 136 }, 
	{ NOTE_E3, 136 }, 
	{ NOTE_F3, 136 }, 
	{ NOTE_C4, 136 }, 
	{ NOTE_E3, 136 }, 
	{ NOTE_F3, 136 }, 
	{ NOTE_FS4, 278 }, 
	{ NOTE_E3, 136 }, 
	{ NOTE_F3, 136 }, 
	{ NOTE_B3, 136 }, 
	{ NOTE_E3, 136 }, 
	{ NOTE_F3, 136 }, 
	{ NOTE_C4, 136 }, 
	{ NOTE_E3, 136 }, 
	{ NOTE_FS3, 136 }, 
	{ NOTE_CS4, 136 }, 
	{ NOTE_E3, 136 }, 
	{ NOTE_F3, 136 }, 
	{ NOTE_C4, 136 }, 
	{ NOTE_E3, 136 }, 
	{ NOTE_F3, 136 }, 
	{ NOTE_B3, 136 }, 
	{ NOTE_B3, 142 }, 
	{ NOTE_E3, 136 }, 
	{ NOTE_F3, 136 }, 
	{ NOTE_B3, 136 }, 
	{ NOTE_E3, 136 }, 
	{ NOTE_F3, 136 }, 
	{ NOTE_C4, 136 }, 
	{ NOTE_E3, 136 }, 
	{ NOTE_F3, 136 }, 
	{ NOTE_D4, 136 }, 
	{ NOTE_CS4, 136 }, 
	{ NOTE_B3, 136 }, 
	{ NOTE_D4, 136 }, 
	{ NOTE_CS4, 136 }, 
	{ NOTE_B3, 136 }, 
	{ NOTE_D4, 136 }, 
	{ NOTE_CS4, 142 }, 
	{ NOTE_E3, 136 }, 
	{ NOTE_F3, 136 }, 
	{ NOTE_B3, 136 }, 
	{ NOTE_E3, 136 }, 
	{ NOTE_F3, 136 }, 
	{ NOTE_C4, 136 }, 
	{ NOTE_E3, 136 }, 
	{ NOTE_FS3, 136 }, 
	{ NOTE_CS4, 136 }, 
	{ NOTE_E3, 136 }, 
	{ NOTE_F3, 136 }, 
	{ NOTE_C4, 136 }, 
	{ NOTE_E3, 136 }, 
	{ NOTE_F3, 136 }, 
	{ NOTE_B3, 136 }, 
	{ NOTE_B3, 142 }, 
	{ NOTE_E3, 136 }, 
	{ NOTE_F3, 136 }, 
	{ NOTE_B3, 136 }, 
	{ NOTE_E3, 136 }, 
	{ NOTE_F3, 136 }, 
	{ NOTE_C4, 136 }, 
	{ NOTE_E3, 136 }, 
	{ NOTE_FS3, 136 }, 
	{ NOTE_CS4, 136 }, 
	{ NOTE_E3, 136 }, 
	{ NOTE_F3, 136 }, 
	{ NOTE_C4, 136 }, 
	{ NOTE_E3, 136 }, 
	{ NOTE_F3, 136 }, 
	{ NOTE_FS4, 278 }, 
	{ NOTE_E3, 136 }, 
	{ NOTE_F3, 136 }, 
	{ NOTE_B3, 136 }, 
	{ NOTE_E3, 136 }, 
	{ NOTE_F3, 136 }, 
	{ NOTE_C4, 136 }, 
	{ NOTE_E3, 136 }, 
	{ NOTE_FS3, 136 }, 
	{ NOTE_CS4, 136 }, 
	{ NOTE_E3, 136 }, 
	{ NOTE_F3, 136 }, 
	{ NOTE_C4, 136 }, 
	{ NOTE_E3, 136 }, 
	{ NOTE_F3, 136 }, 
	{ NOTE_B3, 136 }, 
	{ NOTE_B3, 142 }, 
	{ NOTE_E3, 136 }, 
	{ NOTE_F3, 136 }, 
	{ NOTE_B3, 136 }, 
	{ NOTE_E3, 136 }, 
	{ NOTE_F3, 136 }, 
	{ NOTE_C4, 136 }, 
	{ NOTE_E3, 136 }, 
	{ NOTE_F3, 136 }, 
	{ NOTE_D4, 136 }, 
	{ NOTE_CS4, 136 }, 
	{ NOTE_B3, 136 }, 
	{ NOTE_D4, 136 }, 
	{ NOTE_CS4, 136 }, 
	{ NOTE_B3, 136 }, 
	{ NOTE_D4, 136 }, 
	{ NOTE_CS4, 142 }, 
	{ NOTE_D4, 136 }, 
	{ NOTE_CS4, 136 }, 
	{ NOTE_B3, 136 }, 
	{ NOTE_D4, 136 }, 
	{ NOTE_CS4, 136 }, 
	{ NOTE_B3, 136 }, 
	{ NOTE_D4, 136 }, 
	{ NOTE_CS4, 139 }, 
	{ NOTE_REST, 2182 }, 
	{ NOTE_E3, 136 }, 
	{ NOTE_E3, 136 }, 
	{ NOTE_E3, 136 }, 
	{ NOTE_E3, 136 }, 
	{ NOTE_E3, 136 }, 
	{ NOTE_E3, 136 }, 
	{ NOTE_E3, 136 }, 
	{ NOTE_E3, 136 }, 
	{ NOTE_E3, 136 }, 
	{ NOTE_D4, 136 }, 
	{ NOTE_E4, 136 }, 
	{ NOTE_REST, 136 }, 
	{ NOTE_F4, 136 }, 
	{ NOTE_E4, 136 }, 
	{ NOTE_D4, 136 }, 
	{ NOTE_E4, 142 }, 
	{ NOTE_E3, 136 }, 
	{ NOTE_E3, 136 }, 
	{ NOTE_E3, 136 }, 
	{ NOTE_E3, 136 }, 
	{ NOTE_E3, 136 }, 
	{ NOTE_E3, 136 }, 
	{ NOTE_E3, 136 }, 
	{ NOTE_E3, 136 }, 
	{ NOTE_E3, 136 }, 
	{ NOTE_D4, 136 }, 
	{ NOTE_E4, 136 }, 
	{ NOTE_D4, 136 }, 
	{ NOTE_E4, 141 }, 
	{ NOTE_E3, 136 }, 
	{ NOTE_E3, 136 }, 
	{ NOTE_E3, 136 }, 
	{ NOTE_E3, 136 }, 
	{ NOTE_E3, 136 }, 
	{ NOTE_E3, 136 }, 
	{ NOTE_E3, 136 }, 
	{ NOTE_E3, 136 }, 
	{ NOTE_E3, 136 }, 
	{ NOTE_D4, 136 }, 
	{ NOTE_E4, 136 }, 
	{ NOTE_REST, 136 }, 
	{ NOTE_F4, 136 }, 
	{ NOTE_E4, 136 }, 
	{ NOTE_D4, 136 }, 
	{ NOTE_E4, 142 }, 
	{ NOTE_E3, 136 }, 
	{ NOTE_E3, 136 }, 
	{ NOTE_E3, 136 }, 
	{ NOTE_E3, 136 }, 
	{ NOTE_E3, 136 }, 
	{ NOTE_E3, 136 }, 
	{ NOTE_E3, 136 }, 
	{ NOTE_E3, 136 }, 
	{ NOTE_E3, 136 }, 
	{ NOTE_D4, 136 }, 
	{ NOTE_E4, 136 }, 
	{ NOTE_D4, 136 }, 
	{ NOTE_E4, 141 }, 
	{ NOTE_E3, 136 }, 
	{ NOTE_E3, 136 }, 
	{ NOTE_E3, 136 }, 
	{ NOTE_E3, 136 }, 
	{ NOTE_E3, 136 }, 
	{ NOTE_E3, 136 }, 
	{ NOTE_E3, 136 }, 
	{ NOTE_E3, 136 }, 
	{ NOTE_E3, 136 }, 
	{ NOTE_D4, 136 }, 
	{ NOTE_E4, 136 }, 
	{ NOTE_REST, 136 }, 
	{ NOTE_F4, 136 }, 
	{ NOTE_E4, 136 }, 
	{ NOTE_D4, 136 }, 
	{ NOTE_E4, 142 }, 
	{ NOTE_E3, 136 }, 
	{ NOTE_E3, 136 }, 
	{ NOTE_E3, 136 }, 
	{ NOTE_E3, 136 }, 
	{ NOTE_E3, 136 }, 
	{ NOTE_E3, 136 }, 
	{ NOTE_E3, 136 }, 
	{ NOTE_E3, 136 }, 
	{ NOTE_E3, 136 }, 
	{ NOTE_D4, 136 }, 
	{ NOTE_E4, 136 }, 
	{ NOTE_D4, 136 }, 
	{ NOTE_E4, 141 }, 
	{ NOTE_E3, 136 }, 
	{ NOTE_E3, 136 }, 
	{ NOTE_E3, 136 }, 
	{ NOTE_E3, 136 }, 
	{ NOTE_E3, 136 }, 
	{ NOTE_E3, 136 }, 
	{ NOTE_E3, 136 }, 
	{ NOTE_E3, 136 }, 
	{ NOTE_E3, 136 }, 
	{ NOTE_D4, 136 }, 
	{ NOTE_E4, 136 }, 
	{ NOTE_REST, 136 }, 
	{ NOTE_F4, 136 }, 
	{ NOTE_E4, 136 }, 
	{ NOTE_D4, 136 }, 
	{ NOTE_E4, 142 }, 
	{ NOTE_E3, 136 }, 
	{ NOTE_E3, 136 }, 
	{ NOTE_E3, 136 }, 
	{ NOTE_E3, 136 }, 
	{ NOTE_E3, 136 }, 
	{ NOTE_E3, 136 }, 
	{ NOTE_E3, 136 }, 
	{ NOTE_E3, 136 }, 
	{ NOTE_E3, 136 }, 
	{ NOTE_D4, 136 }, 
	{ NOTE_E4, 136 }, 
	{ NOTE_D4, 136 }, 
	{ NOTE_E4, 141 }, 
	{ NOTE_E3, 136 }, 
	{ NOTE_E3, 136 }, 
	{ NOTE_E3, 136 }, 
	{ NOTE_E3, 136 }, 
	{ NOTE_E3, 136 }, 
	{ NOTE_E3, 136 }, 
	{ NOTE_E3, 136 }, 
	{ NOTE_E3, 136 }, 
	{ NOTE_E3, 136 }, 
	{ NOTE_D4, 136 }, 
	{ NOTE_E4, 136 }, 
	{ NOTE_REST, 136 }, 
	{ NOTE_F4, 136 }, 
	{ NOTE_E4, 136 }, 
	{ NOTE_D4, 136 }, 
	{ NOTE_E4, 142 }, 
	{ NOTE_E3, 136 }, 
	{ NOTE_E3, 136 }, 
	{ NOTE_E3, 136 }, 
	{ NOTE_E3, 136 }, 
	{ NOTE_E3, 136 }, 
	{ NOTE_E3, 136 }, 
	{ NOTE_E3, 136 }, 
	{ NOTE_E3, 136 }, 
	{ NOTE_E3, 136 }, 
	{ NOTE_D4, 136 }, 
	{ NOTE_E4, 136 }, 
	{ NOTE_D4, 136 }, 
	{ NOTE_E4, 141 }, 
	{ NOTE_E3, 136 }, 
	{ NOTE_E3, 136 }, 
	{ NOTE_E3, 136 }, 
	{ NOTE_E3, 136 }, 
	{ NOTE_E3, 136 }, 
	{ NOTE_E3, 136 }, 
	{ NOTE_E3, 136 }, 
	{ NOTE_E3, 136 }, 
	{ NOTE_E3, 136 }, 
	{ NOTE_D4, 136 }, 
	{ NOTE_E4, 136 }, 
	{ NOTE_REST, 136 }, 
	{ NOTE_F4, 136 }, 
	{ NOTE_E4, 136 }, 
	{ NOTE_D4, 136 }, 
	{ NOTE_E4, 142 }, 
	{ NOTE_E3, 136 }, 
	{ NOTE_E3, 136 }, 
	{ NOTE_E3, 136 }, 
	{ NOTE_E3, 136 }, 
	{ NOTE_E3, 136 }, 
	{ NOTE_E3, 136 }, 
	{ NOTE_E3, 136 }, 
	{ NOTE_E3, 136 }, 
	{ NOTE_E3, 136 }, 
	{ NOTE_D4, 136 }, 
	{ NOTE_E4, 136 }, 
	{ NOTE_D4, 136 }, 
	{ NOTE_E4, 141 }, 
	{ NOTE_FS3, 136 }, 
	{ NOTE_FS3, 136 }, 
	{ NOTE_FS3, 136 }, 
	{ NOTE_FS3, 136 }, 
	{ NOTE_FS3, 136 }, 
	{ NOTE_FS3, 136 }, 
	{ NOTE_FS3, 136 }, 
	{ NOTE_FS3, 136 }, 
	{ NOTE_FS3, 136 }, 
	{ NOTE_E4, 136 }, 
	{ NOTE_FS4, 136 }, 
	{ NOTE_REST, 136 }, 
	{ NOTE_G4, 136 }, 
	{ NOTE_FS4, 136 }, 
	{ NOTE_E4, 136 }, 
	{ NOTE_FS4, 142 }, 
	{ NOTE_FS3, 136 }, 
	{ NOTE_FS3, 136 }, 
	{ NOTE_FS3, 136 }, 
	{ NOTE_FS3, 136 }, 
	{ NOTE_FS3, 136 }, 
	{ NOTE_FS3, 136 }, 
	{ NOTE_FS3, 136 }, 
	{ NOTE_FS3, 136 }, 
	{ NOTE_FS3, 136 }, 
	{ NOTE_E4, 136 }, 
	{ NOTE_FS4, 136 }, 
	{ NOTE_E4, 136 }, 
	{ NOTE_FS4, 141 }, 
	{ NOTE_FS3, 136 }, 
	{ NOTE_FS3, 136 }, 
	{ NOTE_FS3, 136 }, 
	{ NOTE_FS3, 136 }, 
	{ NOTE_FS3, 136 }, 
	{ NOTE_FS3, 136 }, 
	{ NOTE_FS3, 136 }, 
	{ NOTE_FS3, 136 }, 
	{ NOTE_FS3, 136 }, 
	{ NOTE_E4, 136 }, 
	{ NOTE_FS4, 136 }, 
	{ NOTE_REST, 136 }, 
	{ NOTE_G4, 136 }, 
	{ NOTE_FS4, 136 }, 
	{ NOTE_E4, 136 }, 
	{ NOTE_FS4, 142 }, 
	{ NOTE_FS3, 136 }, 
	{ NOTE_FS3, 136 }, 
	{ NOTE_FS3, 136 }, 
	{ NOTE_FS3, 136 }, 
	{ NOTE_FS3, 136 }, 
	{ NOTE_FS3, 136 }, 
	{ NOTE_FS3, 136 }, 
	{ NOTE_FS3, 136 }, 
	{ NOTE_FS3, 136 }, 
	{ NOTE_E4, 136 }, 
	{ NOTE_FS4, 136 }, 
	{ NOTE_E4, 136 }, 
	{ NOTE_FS4, 141 }, 
	{ NOTE_B4, 136 }, 
	{ NOTE_B4, 136 }, 
	{ NOTE_B4, 136 }, 
	{ NOTE_B4, 136 }, 
	{ NOTE_B4, 136 }, 
	{ NOTE_B4, 136 }, 
	{ NOTE_B4, 136 }, 
	{ NOTE_B4, 139 }, 
	{ NOTE_E4, 273 }, 
	{ NOTE_E3, 136 }, 
	{ NOTE_E3, 136 }, 
	{ NOTE_A4, 273 }, 
	{ NOTE_B4, 273 }, 
	{ NOTE_REST, 136 }, 
	{ NOTE_E4, 136 }, 
	{ NOTE_FS4, 273 }, 
	{ NOTE_B4, 136 }, 
	{ NOTE_G4, 136 }, 
	{ NOTE_FS4, 136 }, 
	{ NOTE_G4, 136 }, 
	{ NOTE_C4, 136 }, 
	{ NOTE_C4, 136 }, 
	{ NOTE_C4, 136 }, 
	{ NOTE_C4, 136 }, 
	{ NOTE_G4, 273 }, 
	{ NOTE_FS4, 273 }, 
	{ NOTE_C4, 136 }, 
	{ NOTE_C4, 136 }, 
	{ NOTE_C4, 136 }, 
	{ NOTE_C4, 136 }, 
	{ NOTE_BB4, 273 }, 
	{ NOTE_FS4, 277 }, 
	{ NOTE_E4, 273 }, 
	{ NOTE_E3, 136 }, 
	{ NOTE_E3, 136 }, 
	{ NOTE_A4, 273 }, 
	{ NOTE_B4, 273 }, 
	{ NOTE_REST, 136 }, 
	{ NOTE_E4, 136 }, 
	{ NOTE_FS4, 273 }, 
	{ NOTE_B4, 136 }, 
	{ NOTE_G4, 136 }, 
	{ NOTE_FS4, 136 }, 
	{ NOTE_G4, 136 }, 
	{ NOTE_C4, 136 }, 
	{ NOTE_C4, 136 }, 
	{ NOTE_C4, 136 }, 
	{ NOTE_C4, 136 }, 
	{ NOTE_G4, 273 }, 
	{ NOTE_FS4, 273 }, 
	{ NOTE_CS5, 136 }, 
	{ NOTE_B4, 136 }, 
	{ NOTE_BB4, 136 }, 
	{ NOTE_REST, 136 }, 
	{ NOTE_BB4, 136 }, 
	{ NOTE_G4, 136 }, 
	{ NOTE_FS4, 136 }, 
	{ NOTE_REST, 142 }, 
	{ NOTE_B3, 273 }, 
	{ NOTE_B3, 273 }, 
	{ NOTE_REST, 545 }, 
	{ NOTE_C4, 273 }, 
	{ NOTE_C4, 273 }, 
	{ NOTE_REST, 545 }, 
	{ NOTE_B3, 681 }, 
	{ NOTE_E3, 136 }, 
	{ NOTE_E3, 136 }, 
	{ NOTE_E3, 136 }, 
	{ NOTE_CS4, 136 }, 
	{ NOTE_E3, 136 }, 
	{ NOTE_E3, 136 }, 
	{ NOTE_E3, 136 }, 
	{ NOTE_D4, 2185 }, 
	{ NOTE_G4, 682 }, 
	{ NOTE_A3, 136 }, 
	{ NOTE_A3, 136 }, 
	{ NOTE_A3, 136 }, 
	{ NOTE_FS4, 136 }, 
	{ NOTE_A3, 136 }, 
	{ NOTE_A3, 136 }, 
	{ NOTE_A3, 136 }, 
	{ NOTE_E4, 2185 }, 
	{ NOTE_A4, 681 }, 
	{ NOTE_A3, 136 }, 
	{ NOTE_A3, 136 }, 
	{ NOTE_A3, 138 }, 
	{ NOTE_G4, 136 }, 
	{ NOTE_A3, 136 }, 
	{ NOTE_A3, 136 }, 
	{ NOTE_A3, 136 }, 
	{ NOTE_FS4, 1091 }, 
	{ NOTE_B3, 683 }, 
	{ NOTE_E3, 136 }, 
	{ NOTE_E3, 136 }, 
	{ NOTE_E3, 136 }, 
	{ NOTE_D4, 136 }, 
	{ NOTE_E3, 136 }, 
	{ NOTE_E3, 136 }, 
	{ NOTE_E3, 136 }, 
	{ NOTE_G4, 2185 }, 
	{ NOTE_B3, 273 }, 
	{ NOTE_B3, 273 }, 
	{ NOTE_REST, 545 }, 
	{ NOTE_C4, 273 }, 
	{ NOTE_C4, 273 }, 
	{ NOTE_REST, 545 }, 
	{ NOTE_B3, 681 }, 
	{ NOTE_E3, 136 }, 
	{ NOTE_E3, 136 }, 
	{ NOTE_E3, 136 }, 
	{ NOTE_D4, 136 }, 
	{ NOTE_E3, 136 }, 
	{ NOTE_E3, 136 }, 
	{ NOTE_E3, 136 }, 
	{ NOTE_G4, 2185 }, 
	{ NOTE_B3, 273 }, 
	{ NOTE_B3, 273 }, 
	{ NOTE_REST, 545 }, 
	{ NOTE_C4, 273 }, 
	{ NOTE_C4, 273 }, 
	{ NOTE_REST, 545 }, 
	{ NOTE_E3, 136 }, 
	{ NOTE_F3, 136 }, 
	{ NOTE_B3, 136 }, 
	{ NOTE_E3, 136 }, 
	{ NOTE_F3, 136 }, 
	{ NOTE_C4, 136 }, 
	{ NOTE_E3, 136 }, 
	{ NOTE_FS3, 136 }, 
	{ NOTE_CS4, 136 }, 
	{ NOTE_E3, 136 }, 
	{ NOTE_F3, 136 }, 
	{ NOTE_C4, 136 }, 
	{ NOTE_E3, 136 }, 
	{ NOTE_F3, 136 }, 
	{ NOTE_B3, 136 }, 
	{ NOTE_B3, 142 }, 
	{ NOTE_E3, 136 }, 
	{ NOTE_F3, 136 }, 
	{ NOTE_B3, 136 }, 
	{ NOTE_E3, 136 }, 
	{ NOTE_F3, 136 }, 
	{ NOTE_C4, 136 }, 
	{ NOTE_E3, 136 }, 
	{ NOTE_FS3, 136 }, 
	{ NOTE_CS4, 136 }, 
	{ NOTE_E3, 136 }, 
	{ NOTE_F3, 136 }, 
	{ NOTE_C4, 136 }, 
	{ NOTE_E3, 136 }, 
	{ NOTE_F3, 136 }, 
	{ NOTE_FS4, 278 }, 
	{ NOTE_E3, 136 }, 
	{ NOTE_F3, 136 }, 
	{ NOTE_B3, 136 }, 
	{ NOTE_E3, 136 }, 
	{ NOTE_F3, 136 }, 
	{ NOTE_C4, 136 }, 
	{ NOTE_E3, 136 }, 
	{ NOTE_FS3, 136 }, 
	{ NOTE_CS4, 136 }, 
	{ NOTE_E3, 136 }, 
	{ NOTE_F3, 136 }, 
	{ NOTE_C4, 136 }, 
	{ NOTE_E3, 136 }, 
	{ NOTE_F3, 136 }, 
	{ NOTE_B3, 136 }, 
	{ NOTE_B3, 142 }, 
	{ NOTE_E3, 136 }, 
	{ NOTE_F3, 136 }, 
	{ NOTE_B3, 136 }, 
	{ NOTE_E3, 136 }, 
	{ NOTE_F3, 136 }, 
	{ NOTE_C4, 136 }, 
	{ NOTE_E3, 136 }, 
	{ NOTE_F3, 136 }, 
	{ NOTE_D4, 136 }, 
	{ NOTE_CS4, 136 }, 
	{ NOTE_B3, 136 }, 
	{ NOTE_D4, 136 }, 
	{ NOTE_CS4, 136 }, 
	{ NOTE_B3, 136 }, 
	{ NOTE_D4, 136 }, 
	{ NOTE_CS4, 142 }, 
	{ NOTE_D4, 136 }, 
	{ NOTE_CS4, 136 }, 
	{ NOTE_B3, 136 }, 
	{ NOTE_D4, 136 }, 
	{ NOTE_CS4, 136 }, 
	{ NOTE_B3, 136 }, 
	{ NOTE_D4, 136 }, 
	{ NOTE_CS4, 139 }, 
	{ NOTE_E3, 136 }, 
	{ NOTE_E3, 136 }, 
	{ NOTE_E3, 136 }, 
	{ NOTE_E3, 136 }, 
	{ NOTE_E3, 136 }, 
	{ NOTE_E3, 136 }, 
	{ NOTE_E3, 136 }, 
	{ NOTE_E3, 136 }, 
	{ NOTE_E3, 136 }, 
	{ NOTE_D4, 136 }, 
	{ NOTE_E4, 136 }, 
	{ NOTE_REST, 136 }, 
	{ NOTE_F4, 136 }, 
	{ NOTE_E4, 136 }, 
	{ NOTE_D4, 136 }, 
	{ NOTE_E4, 142 }, 
	{ NOTE_E3, 136 }, 
	{ NOTE_E3, 136 }, 
	{ NOTE_E3, 136 }, 
	{ NOTE_E3, 136 }, 
	{ NOTE_E3, 136 }, 
	{ NOTE_E3, 136 }, 
	{ NOTE_E3, 136 }, 
	{ NOTE_E3, 136 }, 
	{ NOTE_E3, 136 }, 
	{ NOTE_D4, 136 }, 
	{ NOTE_E4, 136 }, 
	{ NOTE_D4, 136 }, 
	{ NOTE_E4, 141 }, 
	{ NOTE_E3, 136 }, 
	{ NOTE_E3, 136 }, 
	{ NOTE_E3, 136 }, 
	{ NOTE_E3, 136 }, 
	{ NOTE_E3, 136 }, 
	{ NOTE_E3, 136 }, 
	{ NOTE_E3, 136 }, 
	{ NOTE_E3, 136 }, 
	{ NOTE_E3, 136 }, 
	{ NOTE_D4, 136 }, 
	{ NOTE_E4, 136 }, 
	{ NOTE_REST, 136 }, 
	{ NOTE_F4, 136 }, 
	{ NOTE_E4, 136 }, 
	{ NOTE_D4, 136 }, 
	{ NOTE_E4, 142 }, 
	{ NOTE_E3, 136 }, 
	{ NOTE_E3, 136 }, 
	{ NOTE_E3, 136 }, 
	{ NOTE_E3, 136 }, 
	{ NOTE_E3, 136 }, 
	{ NOTE_E3, 136 }, 
	{ NOTE_E3, 136 }, 
	{ NOTE_E3, 136 }, 
	{ NOTE_E3, 136 }, 
	{ NOTE_D4, 136 }, 
	{ NOTE_E4, 136 }, 
	{ NOTE_D4, 136 }, 
	{ NOTE_E4, 141 }, 
	{ NOTE_E3, 136 }, 
	{ NOTE_E3, 136 }, 
	{ NOTE_E3, 136 }, 
	{ NOTE_E3, 136 }, 
	{ NOTE_E3, 136 }, 
	{ NOTE_E3, 136 }, 
	{ NOTE_E3, 136 }, 
	{ NOTE_E3, 136 }, 
	{ NOTE_E3, 136 }, 
	{ NOTE_D4, 136 }, 
	{ NOTE_E4, 136 }, 
	{ NOTE_REST, 136 }, 
	{ NOTE_F4, 136 }, 
	{ NOTE_E4, 136 }, 
	{ NOTE_D4, 136 }, 
	{ NOTE_E4, 142 }, 
	{ NOTE_E3, 136 }, 
	{ NOTE_E3, 136 }, 
	{ NOTE_E3, 136 }, 
	{ NOTE_E3, 136 }, 
	{ NOTE_E3, 136 }, 
	{ NOTE_E3, 136 }, 
	{ NOTE_E3, 136 }, 
	{ NOTE_E3, 136 }, 
	{ NOTE_E3, 136 }, 
	{ NOTE_D4, 136 }, 
	{ NOTE_E4, 136 }, 
	{ NOTE_D4, 136 }, 
	{ NOTE_E4, 141 }, 
	{ NOTE_FS3, 136 }, 
	{ NOTE_FS3, 136 }, 
	{ NOTE_FS3, 136 }, 
	{ NOTE_FS3, 136 }, 
	{ NOTE_FS3, 136 }, 
	{ NOTE_FS3, 136 }, 
	{ NOTE_FS3, 136 }, 
	{ NOTE_FS3, 136 }, 
	{ NOTE_FS3, 136 }, 
	{ NOTE_E4, 136 }, 
	{ NOTE_FS4, 136 }, 
	{ NOTE_REST, 136 }, 
	{ NOTE_G4, 136 }, 
	{ NOTE_FS4, 136 }, 
	{ NOTE_E4, 136 }, 
	{ NOTE_FS4, 142 }, 
	{ NOTE_FS3, 136 }, 
	{ NOTE_FS3, 136 }, 
	{ NOTE_FS3, 136 }, 
	{ NOTE_FS3, 136 }, 
	{ NOTE_FS3, 136 }, 
	{ NOTE_FS3, 136 }, 
	{ NOTE_FS3, 136 }, 
	{ NOTE_FS3, 136 }, 
	{ NOTE_FS3, 136 }, 
	{ NOTE_E4, 136 }, 
	{ NOTE_FS4, 136 }, 
	{ NOTE_E4, 136 }, 
	{ NOTE_FS4, 141 }, 
	{ NOTE_B4, 136 }, 
	{ NOTE_B4, 136 }, 
	{ NOTE_B4, 136 }, 
	{ NOTE_B4, 136 }, 
	{ NOTE_B4, 136 }, 
	{ NOTE_B4, 136 }, 
	{ NOTE_B4, 136 }, 
	{ NOTE_B4, 139 }, 
	{ NOTE_E4, 273 }, 
	{ NOTE_E3, 136 }, 
	{ NOTE_E3, 136 }, 
	{ NOTE_A4, 273 }, 
	{ NOTE_B4, 273 }, 
	{ NOTE_REST, 136 }, 
	{ NOTE_E4, 136 }, 
	{ NOTE_FS4, 273 }, 
	{ NOTE_B4, 136 }, 
	{ NOTE_G4, 136 }, 
	{ NOTE_FS4, 136 }, 
	{ NOTE_G4, 136 }, 
	{ NOTE_C4, 136 }, 
	{ NOTE_C4, 136 }, 
	{ NOTE_C4, 136 }, 
	{ NOTE_C4, 136 }, 
	{ NOTE_G4, 273 }, 
	{ NOTE_FS4, 273 }, 
	{ NOTE_C4, 136 }, 
	{ NOTE_C4, 136 }, 
	{ NOTE_C4, 136 }, 
	{ NOTE_C4, 136 }, 
	{ NOTE_BB4, 273 }, 
	{ NOTE_FS4, 277 }, 
	{ NOTE_E4, 273 }, 
	{ NOTE_E3, 136 }, 
	{ NOTE_E3, 136 }, 
	{ NOTE_A4, 273 }, 
	{ NOTE_B4, 273 }, 
	{ NOTE_REST, 136 }, 
	{ NOTE_E4, 136 }, 
	{ NOTE_FS4, 273 }, 
	{ NOTE_B4, 136 }, 
	{ NOTE_G4, 136 }, 
	{ NOTE_FS4, 136 }, 
	{ NOTE_G4, 136 }, 
	{ NOTE_C4, 136 }, 
	{ NOTE_C4, 136 }, 
	{ NOTE_C4, 136 }, 
	{ NOTE_C4, 136 }, 
	{ NOTE_G4, 273 }, 
	{ NOTE_FS4, 276 }, 
	{ NOTE_CS5, 136 }, 
	{ NOTE_B4, 136 }, 
	{ NOTE_BB4, 136 }, 
	{ NOTE_REST, 137 }, 
	{ NOTE_BB4, 136 }, 
	{ NOTE_G4, 136 }, 
	{ NOTE_FS4, 136 }, 
	{ NOTE_REST, 137 }, 
	{ NOTE_B3, 273 }, 
	{ NOTE_B3, 273 }, 
	{ NOTE_REST, 545 }, 
	{ NOTE_C4, 273 }, 
	{ NOTE_C4, 273 }, 
	{ NOTE_REST, 545 }, 
	{ NOTE_B3, 681 }, 
	{ NOTE_E3, 136 }, 
	{ NOTE_E3, 136 }, 
	{ NOTE_E3, 136 }, 
	{ NOTE_CS4, 136 }, 
	{ NOTE_E3, 136 }, 
	{ NOTE_E3, 136 }, 
	{ NOTE_E3, 136 }, 
	{ NOTE_D4, 2185 }, 
	{ NOTE_G4, 682 }, 
	{ NOTE_A3, 136 }, 
	{ NOTE_A3, 136 }, 
	{ NOTE_A3, 136 }, 
	{ NOTE_FS4, 136 }, 
	{ NOTE_A3, 136 }, 
	{ NOTE_A3, 136 }, 
	{ NOTE_A3, 136 }, 
	{ NOTE_E4, 2185 }, 
	{ NOTE_A4, 681 }, 
	{ NOTE_A3, 136 }, 
	{ NOTE_A3, 136 }, 
	{ NOTE_A3, 138 }, 
	{ NOTE_G4, 136 }, 
	{ NOTE_A3, 136 }, 
	{ NOTE_A3, 136 }, 
	{ NOTE_A3, 136 }, 
	{ NOTE_FS4, 1091 }, 
	{ NOTE_B3, 683 }, 
	{ NOTE_E3, 136 }, 
	{ NOTE_E3, 136 }, 
	{ NOTE_E3, 136 }, 
	{ NOTE_D4, 136 }, 
	{ NOTE_E3, 136 }, 
	{ NOTE_E3, 136 }, 
	{ NOTE_E3, 136 }, 
	{ NOTE_G4, 2185 }, 
	{ NOTE_B3, 273 }, 
	{ NOTE_B3, 273 }, 
	{ NOTE_REST, 545 }, 
	{ NOTE_C4, 273 }, 
	{ NOTE_C4, 273 }, 
	{ NOTE_REST, 545 }, 
	{ NOTE_B3, 681 }, 
	{ NOTE_E3, 136 }, 
	{ NOTE_E3, 136 }, 
	{ NOTE_E3, 136 }, 
	{ NOTE_D4, 136 }, 
	{ NOTE_E3, 136 }, 
	{ NOTE_E3, 136 }, 
	{ NOTE_E3, 136 }, 
	{ NOTE_G4, 2185 }, 
	{ NOTE_B3, 273 }, 
	{ NOTE_B3, 273 }, 
	{ NOTE_REST, 545 }, 
	{ NOTE_C4, 273 }, 
	{ NOTE_C4, 9546 }, 
	{ NOTE_REST, 4615 }, 
	{ NOTE_REST, 4615 }, 
	{ NOTE_E4, 1154 }, 
	{ NOTE_FS4, 2308 }, 
	{ NOTE_G4, 2307 }, 
	{ NOTE_A4, 1154 }, 
	{ NOTE_B4, 1154 }, 
	{ NOTE_EB5, 1153 }, 
	{ NOTE_G6, 288 }, 
	{ NOTE_D7, 288 }, 
	{ NOTE_B6, 288 }, 
	{ NOTE_G6, 288 }, 
	{ NOTE_C7, 288 }, 
	{ NOTE_A6, 288 }, 
	{ NOTE_FS6, 288 }, 
	{ NOTE_FS6, 144 }, 
	{ NOTE_FS6, 144 }, 
	{ NOTE_FS6, 288 }, 
	{ NOTE_C7, 288 }, 
	{ NOTE_A6, 288 }, 
	{ NOTE_FS6, 288 }, 
	{ NOTE_B6, 288 }, 
	{ NOTE_G6, 288 }, 
	{ NOTE_E6, 288 }, 
	{ NOTE_E6, 144 }, 
	{ NOTE_E6, 151 }, 
	{ NOTE_E6, 288 }, 
	{ NOTE_B6, 288 }, 
	{ NOTE_G6, 288 }, 
	{ NOTE_E6, 288 }, 
	{ NOTE_A6, 288 }, 
	{ NOTE_G6, 96 }, 
	{ NOTE_A6, 96 }, 
	{ NOTE_G6, 96 }, 
	{ NOTE_FS6, 288 }, 
	{ NOTE_E6, 288 }, 
	{ NOTE_EB6, 288 }, 
	{ NOTE_E6, 288 }, 
	{ NOTE_FS6, 288 }, 
	{ NOTE_E6, 288 }, 
	{ NOTE_FS6, 288 }, 
	{ NOTE_G6, 288 }, 
	{ NOTE_A6, 288 }, 
	{ NOTE_B6, 295 }, 
	{ NOTE_G6, 288 }, 
	{ NOTE_D7, 288 }, 
	{ NOTE_B6, 288 }, 
	{ NOTE_G6, 288 }, 
	{ NOTE_C7, 288 }, 
	{ NOTE_A6, 288 }, 
	{ NOTE_FS6, 288 }, 
	{ NOTE_FS6, 144 }, 
	{ NOTE_FS6, 144 }, 
	{ NOTE_FS6, 288 }, 
	{ NOTE_C7, 288 }, 
	{ NOTE_A6, 288 }, 
	{ NOTE_FS6, 288 }, 
	{ NOTE_B6, 288 }, 
	{ NOTE_G6, 288 }, 
	{ NOTE_E6, 288 }, 
	{ NOTE_E6, 144 }, 
	{ NOTE_E6, 151 }, 
	{ NOTE_E6, 288 }, 
	{ NOTE_B6, 288 }, 
	{ NOTE_G6, 288 }, 
	{ NOTE_E6, 288 }, 
	{ NOTE_A6, 288 }, 
	{ NOTE_G6, 96 }, 
	{ NOTE_A6, 96 }, 
	{ NOTE_G6, 96 }, 
	{ NOTE_FS6, 288 }, 
	{ NOTE_E6, 288 }, 
	{ NOTE_EB6, 288 }, 
	{ NOTE_E6, 288 }, 
	{ NOTE_FS6, 288 }, 
	{ NOTE_E6, 288 }, 
	{ NOTE_FS6, 288 }, 
	{ NOTE_G6, 288 }, 
	{ NOTE_A6, 288 }, 
	{ NOTE_B6, 295 }, 
	{ NOTE_E6, 865 }, 
	{ NOTE_E6, 144 }, 
	{ NOTE_FS6, 144 }, 
	{ NOTE_G6, 865 }, 
	{ NOTE_FS6, 144 }, 
	{ NOTE_G6, 144 }, 
	{ NOTE_A6, 192 }, 
	{ NOTE_G6, 192 }, 
	{ NOTE_FS6, 192 }, 
	{ NOTE_B6, 144 }, 
	{ NOTE_G6, 144 }, 
	{ NOTE_E6, 96 }, 
	{ NOTE_G6, 96 }, 
	{ NOTE_E6, 96 }, 
	{ NOTE_C6, 865 }, 
	{ NOTE_REST, 292 }, 
	{ NOTE_D6, 577 }, 
	{ NOTE_D6, 577 }, 
	{ NOTE_G6, 144 }, 
	{ NOTE_FS6, 144 }, 
	{ NOTE_B5, 288 }, 
	{ NOTE_G6, 144 }, 
	{ NOTE_FS6, 144 }, 
	{ NOTE_B5, 144 }, 
	{ NOTE_D6, 144 }, 
	{ NOTE_B5, 721 }, 
	{ NOTE_G5, 144 }, 
	{ NOTE_A5, 288 }, 
	{ NOTE_D6, 288 }, 
	{ NOTE_D6, 384 }, 
	{ NOTE_A5, 96 }, 
	{ NOTE_G5, 96 }, 
	{ NOTE_E5, 144 }, 
	{ NOTE_G5, 148 }, 
	{ NOTE_E5, 865 }, 
	{ NOTE_D5, 288 }, 
	{ NOTE_G5, 433 }, 
	{ NOTE_A5, 144 }, 
	{ NOTE_G5, 288 }, 
	{ NOTE_FS5, 288 }, 
	{ NOTE_D5, 288 }, 
	{ NOTE_A5, 288 }, 
	{ NOTE_G5, 288 }, 
	{ NOTE_FS5, 96 }, 
	{ NOTE_G5, 96 }, 
	{ NOTE_FS5, 96 }, 
	{ NOTE_C5, 865 }, 
	{ NOTE_A4, 144 }, 
	{ NOTE_B4, 148 }, 
	{ NOTE_C5, 865 }, 
	{ NOTE_B4, 144 }, 
	{ NOTE_C5, 144 }, 
	{ NOTE_D5, 192 }, 
	{ NOTE_C5, 192 }, 
	{ NOTE_D5, 192 }, 
	{ NOTE_E5, 192 }, 
	{ NOTE_FS5, 192 }, 
	{ NOTE_G5, 192 }, 
	{ NOTE_B5, 288 }, 
	{ NOTE_G5, 288 }, 
	{ NOTE_G6, 288 }, 
	{ NOTE_FS6, 288 }, 
	{ NOTE_EB6, 96 }, 
	{ NOTE_E6, 96 }, 
	{ NOTE_EB6, 96 }, 
	{ NOTE_B5, 288 }, 
	{ NOTE_A5, 288 }, 
	{ NOTE_B6, 294 }, 
	{ NOTE_G6, 288 }, 
	{ NOTE_D7, 288 }, 
	{ NOTE_B6, 288 }, 
	{ NOTE_G6, 288 }, 
	{ NOTE_C7, 288 }, 
	{ NOTE_A6, 288 }, 
	{ NOTE_FS6, 288 }, 
	{ NOTE_FS6, 144 }, 
	{ NOTE_FS6, 144 }, 
	{ NOTE_FS6, 288 }, 
	{ NOTE_C7, 288 }, 
	{ NOTE_A6, 288 }, 
	{ NOTE_FS6, 288 }, 
	{ NOTE_B6, 288 }, 
	{ NOTE_G6, 288 }, 
	{ NOTE_E6, 288 }, 
	{ NOTE_E6, 144 }, 
	{ NOTE_E6, 151 }, 
	{ NOTE_E6, 288 }, 
	{ NOTE_B6, 288 }, 
	{ NOTE_G6, 288 }, 
	{ NOTE_E6, 288 }, 
	{ NOTE_A6, 288 }, 
	{ NOTE_G6, 96 }, 
	{ NOTE_A6, 96 }, 
	{ NOTE_G6, 96 }, 
	{ NOTE_FS6, 288 }, 
	{ NOTE_E6, 288 }, 
	{ NOTE_EB6, 288 }, 
	{ NOTE_E6, 288 }, 
	{ NOTE_FS6, 288 }, 
	{ NOTE_E6, 288 }, 
	{ NOTE_FS6, 288 }, 
	{ NOTE_G6, 288 }, 
	{ NOTE_A6, 288 }, 
	{ NOTE_B6, 295 }, 
	{ NOTE_G6, 288 }, 
	{ NOTE_D7, 288 }, 
	{ NOTE_B6, 288 }, 
	{ NOTE_G6, 288 }, 
	{ NOTE_C7, 288 }, 
	{ NOTE_A6, 288 }, 
	{ NOTE_FS6, 288 }, 
	{ NOTE_FS6, 144 }, 
	{ NOTE_FS6, 144 }, 
	{ NOTE_FS6, 288 }, 
	{ NOTE_C7, 288 }, 
	{ NOTE_A6, 288 }, 
	{ NOTE_FS6, 288 }, 
	{ NOTE_B6, 288 }, 
	{ NOTE_G6, 288 }, 
	{ NOTE_E6, 288 }, 
	{ NOTE_E6, 144 }, 
	{ NOTE_E6, 151 }, 
	{ NOTE_E6, 288 }, 
	{ NOTE_B6, 288 }, 
	{ NOTE_G6, 288 }, 
	{ NOTE_E6, 288 }, 
	{ NOTE_A6, 288 }, 
	{ NOTE_G6, 96 }, 
	{ NOTE_A6, 96 }, 
	{ NOTE_G6, 96 }, 
	{ NOTE_FS6, 288 }, 
	{ NOTE_E6, 288 }, 
	{ NOTE_EB6, 288 }, 
	{ NOTE_E6, 288 }, 
	{ NOTE_FS6, 288 }, 
	{ NOTE_E6, 288 }, 
	{ NOTE_FS6, 288 }, 
	{ NOTE_G6, 288 }, 
	{ NOTE_A6, 288 }, 
	{ NOTE_B6, 295 }, 
	{ NOTE_E3, 288 }, 
	{ NOTE_B3, 288 }, 
	{ NOTE_E4, 288 }, 
	{ NOTE_G4, 288 }, 
	{ NOTE_D4, 288 }, 
	{ NOTE_D4, 288 }, 
	{ NOTE_A4, 288 }, 
	{ NOTE_D4, 288 }, 
	{ NOTE_E5, 96 }, 
	{ NOTE_FS5, 96 }, 
	{ NOTE_E5, 96 }, 
	{ NOTE_D5, 288 }, 
	{ NOTE_G5, 288 }, 
	{ NOTE_G5, 288 }, 
	{ NOTE_C4, 288 }, 
	{ NOTE_G4, 288 }, 
	{ NOTE_D5, 288 }, 
	{ NOTE_G4, 295 }, 
	{ NOTE_G4, 288 }, 
	{ NOTE_E4, 288 }, 
	{ NOTE_B4, 288 }, 
	{ NOTE_B4, 288 }, 
	{ NOTE_A3, 288 }, 
	{ NOTE_E4, 288 }, 
	{ NOTE_A4, 288 }, 
	{ NOTE_A3, 288 }, 
	{ NOTE_B3, 288 }, 
	{ NOTE_EB4, 288 }, 
	{ NOTE_G4, 288 }, 
	{ NOTE_B3, 288 }, 
	{ NOTE_EB4, 288 }, 
	{ NOTE_A4, 288 }, 
	{ NOTE_B4, 288 }, 
	{ NOTE_G3, 295 }, 
	{ NOTE_B3, 288 }, 
	{ NOTE_B3, 288 }, 
	{ NOTE_B3, 288 }, 
	{ NOTE_B3, 288 }, 
	{ NOTE_B3, 288 }, 
	{ NOTE_B3, 288 }, 
	{ NOTE_B3, 288 }, 
	{ NOTE_B3, 288 }, 
	{ NOTE_B3, 288 }, 
	{ NOTE_B3, 288 }, 
	{ NOTE_B3, 288 }, 
	{ NOTE_B3, 288 }, 
	{ NOTE_B3, 288 }, 
	{ NOTE_B3, 288 }, 
	{ NOTE_B3, 288 }, 
	{ NOTE_B3, 295 }, 
	{ NOTE_CS4, 288 }, 
	{ NOTE_CS4, 288 }, 
	{ NOTE_D4, 288 }, 
	{ NOTE_CS4, 288 }, 
	{ NOTE_CS4, 288 }, 
	{ NOTE_CS4, 288 }, 
	{ NOTE_D4, 288 }, 
	{ NOTE_GS4, 144 }, 
	{ NOTE_GS4, 144 }, 
	{ NOTE_CS4, 288 }, 
	{ NOTE_CS4, 288 }, 
	{ NOTE_D4, 288 }, 
	{ NOTE_CS4, 288 }, 
	{ NOTE_CS4, 288 }, 
	{ NOTE_CS4, 288 }, 
	{ NOTE_D4, 288 }, 
	{ NOTE_GS4, 295 }, 
	{ NOTE_CS4, 288 }, 
	{ NOTE_CS4, 288 }, 
	{ NOTE_D4, 288 }, 
	{ NOTE_CS4, 288 }, 
	{ NOTE_CS4, 288 }, 
	{ NOTE_CS4, 288 }, 
	{ NOTE_D4, 288 }, 
	{ NOTE_GS4, 144 }, 
	{ NOTE_GS4, 144 }, 
	{ NOTE_CS4, 288 }, 
	{ NOTE_CS4, 288 }, 
	{ NOTE_D4, 288 }, 
	{ NOTE_CS4, 288 }, 
	{ NOTE_CS4, 288 }, 
	{ NOTE_CS4, 288 }, 
	{ NOTE_D4, 288 }, 
	{ NOTE_GS4, 295 }, 
	{ NOTE_D4, 2182 }, 
	{ NOTE_CS4, 1635 }, 
	{ NOTE_A4, 547 }, 
	{ NOTE_E3, 136 }, 
	{ NOTE_E3, 136 }, 
	{ NOTE_E3, 136 }, 
	{ NOTE_E3, 136 }, 
	{ NOTE_E3, 136 }, 
	{ NOTE_E3, 136 }, 
	{ NOTE_E3, 136 }, 
	{ NOTE_E3, 136 }, 
	{ NOTE_E3, 136 }, 
	{ NOTE_D4, 136 }, 
	{ NOTE_E4, 136 }, 
	{ NOTE_REST, 136 }, 
	{ NOTE_F4, 136 }, 
	{ NOTE_E4, 136 }, 
	{ NOTE_D4, 136 }, 
	{ NOTE_E4, 142 }, 
	{ NOTE_E3, 136 }, 
	{ NOTE_E3, 136 }, 
	{ NOTE_E3, 136 }, 
	{ NOTE_E3, 136 }, 
	{ NOTE_E3, 136 }, 
	{ NOTE_E3, 136 }, 
	{ NOTE_E3, 136 }, 
	{ NOTE_E3, 136 }, 
	{ NOTE_E3, 136 }, 
	{ NOTE_D4, 136 }, 
	{ NOTE_E4, 136 }, 
	{ NOTE_D4, 136 }, 
	{ NOTE_E4, 141 }, 
	{ NOTE_E3, 136 }, 
	{ NOTE_E3, 136 }, 
	{ NOTE_E3, 136 }, 
	{ NOTE_E3, 136 }, 
	{ NOTE_E3, 136 }, 
	{ NOTE_E3, 136 }, 
	{ NOTE_E3, 136 }, 
	{ NOTE_E3, 136 }, 
	{ NOTE_E3, 136 }, 
	{ NOTE_D4, 136 }, 
	{ NOTE_E4, 136 }, 
	{ NOTE_REST, 136 }, 
	{ NOTE_F4, 136 }, 
	{ NOTE_E4, 136 }, 
	{ NOTE_D4, 136 }, 
	{ NOTE_E4, 142 }, 
	{ NOTE_E3, 136 }, 
	{ NOTE_E3, 136 }, 
	{ NOTE_E3, 136 }, 
	{ NOTE_E3, 136 }, 
	{ NOTE_E3, 136 }, 
	{ NOTE_E3, 136 }, 
	{ NOTE_E3, 136 }, 
	{ NOTE_E3, 136 }, 
	{ NOTE_E3, 136 }, 
	{ NOTE_D4, 136 }, 
	{ NOTE_E4, 136 }, 
	{ NOTE_D4, 136 }, 
	{ NOTE_E4, 141 }, 
	{ NOTE_E3, 136 }, 
	{ NOTE_E3, 136 }, 
	{ NOTE_E3, 136 }, 
	{ NOTE_E3, 136 }, 
	{ NOTE_E3, 136 }, 
	{ NOTE_E3, 136 }, 
	{ NOTE_E3, 136 }, 
	{ NOTE_E3, 136 }, 
	{ NOTE_E3, 136 }, 
	{ NOTE_D4, 136 }, 
	{ NOTE_E4, 136 }, 
	{ NOTE_REST, 136 }, 
	{ NOTE_F4, 136 }, 
	{ NOTE_E4, 136 }, 
	{ NOTE_D4, 136 }, 
	{ NOTE_E4, 142 }, 
	{ NOTE_E3, 136 }, 
	{ NOTE_E3, 136 }, 
	{ NOTE_E3, 136 }, 
	{ NOTE_E3, 136 }, 
	{ NOTE_E3, 136 }, 
	{ NOTE_E3, 136 }, 
	{ NOTE_E3, 136 }, 
	{ NOTE_E3, 136 }, 
	{ NOTE_E3, 136 }, 
	{ NOTE_D4, 136 }, 
	{ NOTE_E4, 136 }, 
	{ NOTE_D4, 136 }, 
	{ NOTE_E4, 141 }, 
	{ NOTE_E3, 136 }, 
	{ NOTE_E3, 136 }, 
	{ NOTE_E3, 136 }, 
	{ NOTE_E3, 136 }, 
	{ NOTE_E3, 136 }, 
	{ NOTE_E3, 136 }, 
	{ NOTE_E3, 136 }, 
	{ NOTE_E3, 136 }, 
	{ NOTE_E3, 136 }, 
	{ NOTE_D4, 136 }, 
	{ NOTE_E4, 136 }, 
	{ NOTE_REST, 136 }, 
	{ NOTE_F4, 136 }, 
	{ NOTE_E4, 136 }, 
	{ NOTE_D4, 136 }, 
	{ NOTE_E4, 142 }, 
	{ NOTE_E3, 136 }, 
	{ NOTE_E3, 136 }, 
	{ NOTE_E3, 136 }, 
	{ NOTE_E3, 136 }, 
	{ NOTE_E3, 136 }, 
	{ NOTE_E3, 136 }, 
	{ NOTE_E3, 136 }, 
	{ NOTE_E3, 136 }, 
	{ NOTE_E3, 136 }, 
	{ NOTE_D4, 136 }, 
	{ NOTE_E4, 136 }, 
	{ NOTE_D4, 136 }, 
	{ NOTE_E4, 141 }, 
	{ NOTE_FS3, 136 }, 
	{ NOTE_FS3, 136 }, 
	{ NOTE_FS3, 136 }, 
	{ NOTE_FS3, 136 }, 
	{ NOTE_FS3, 136 }, 
	{ NOTE_FS3, 136 }, 
	{ NOTE_FS3, 136 }, 
	{ NOTE_FS3, 136 }, 
	{ NOTE_FS3, 136 }, 
	{ NOTE_E4, 136 }, 
	{ NOTE_FS4, 136 }, 
	{ NOTE_REST, 136 }, 
	{ NOTE_G4, 136 }, 
	{ NOTE_FS4, 136 }, 
	{ NOTE_E4, 136 }, 
	{ NOTE_FS4, 142 }, 
	{ NOTE_FS3, 136 }, 
	{ NOTE_FS3, 136 }, 
	{ NOTE_FS3, 136 }, 
	{ NOTE_FS3, 136 }, 
	{ NOTE_FS3, 136 }, 
	{ NOTE_FS3, 136 }, 
	{ NOTE_FS3, 136 }, 
	{ NOTE_FS3, 136 }, 
	{ NOTE_FS3, 136 }, 
	{ NOTE_E4, 136 }, 
	{ NOTE_FS4, 136 }, 
	{ NOTE_E4, 136 }, 
	{ NOTE_FS4, 141 }, 
	{ NOTE_FS3, 136 }, 
	{ NOTE_FS3, 136 }, 
	{ NOTE_FS3, 136 }, 
	{ NOTE_FS3, 136 }, 
	{ NOTE_FS3, 136 }, 
	{ NOTE_FS3, 136 }, 
	{ NOTE_FS3, 136 }, 
	{ NOTE_FS3, 136 }, 
	{ NOTE_FS3, 136 }, 
	{ NOTE_E4, 136 }, 
	{ NOTE_FS4, 136 }, 
	{ NOTE_REST, 136 }, 
	{ NOTE_G4, 136 }, 
	{ NOTE_FS4, 136 }, 
	{ NOTE_E4, 136 }, 
	{ NOTE_FS4, 142 }, 
	{ NOTE_FS3, 136 }, 
	{ NOTE_FS3, 136 }, 
	{ NOTE_FS3, 136 }, 
	{ NOTE_FS3, 136 }, 
	{ NOTE_FS3, 136 }, 
	{ NOTE_FS3, 136 }, 
	{ NOTE_FS3, 136 }, 
	{ NOTE_FS3, 136 }, 
	{ NOTE_FS3, 136 }, 
	{ NOTE_E4, 136 }, 
	{ NOTE_FS4, 136 }, 
	{ NOTE_E4, 136 }, 
	{ NOTE_FS4, 141 }, 
	{ NOTE_B4, 136 }, 
	{ NOTE_B4, 136 }, 
	{ NOTE_B4, 136 }, 
	{ NOTE_B4, 136 }, 
	{ NOTE_B4, 136 }, 
	{ NOTE_B4, 136 }, 
	{ NOTE_B4, 136 }, 
	{ NOTE_B4, 139 }, 
	{ NOTE_E3, 136 }, 
	{ NOTE_E3, 136 }, 
	{ NOTE_C4, 136 }, 
	{ NOTE_E3, 136 }, 
	{ NOTE_E3, 136 }, 
	{ NOTE_C4, 136 }, 
	{ NOTE_E3, 136 }, 
	{ NOTE_E3, 136 }, 
	{ NOTE_C4, 136 }, 
	{ NOTE_E3, 136 }, 
	{ NOTE_E3, 136 }, 
	{ NOTE_C4, 136 }, 
	{ NOTE_E3, 136 }, 
	{ NOTE_E3, 136 }, 
	{ NOTE_FS4, 136 }, 
	{ NOTE_FS4, 142 }, 
	{ NOTE_E3, 136 }, 
	{ NOTE_E3, 136 }, 
	{ NOTE_C4, 136 }, 
	{ NOTE_E3, 136 }, 
	{ NOTE_E3, 136 }, 
	{ NOTE_C4, 136 }, 
	{ NOTE_E3, 136 }, 
	{ NOTE_E3, 136 }, 
	{ NOTE_C4, 136 }, 
	{ NOTE_E3, 136 }, 
	{ NOTE_E3, 136 }, 
	{ NOTE_C4, 136 }, 
	{ NOTE_E3, 136 }, 
	{ NOTE_E3, 136 }, 
	{ NOTE_FS4, 278 }, 
	{ NOTE_E3, 136 }, 
	{ NOTE_E3, 136 }, 
	{ NOTE_C4, 136 }, 
	{ NOTE_E3, 136 }, 
	{ NOTE_E3, 136 }, 
	{ NOTE_C4, 136 }, 
	{ NOTE_E3, 136 }, 
	{ NOTE_E3, 136 }, 
	{ NOTE_C4, 136 }, 
	{ NOTE_E3, 136 }, 
	{ NOTE_E3, 136 }, 
	{ NOTE_C4, 136 }, 
	{ NOTE_E3, 136 }, 
	{ NOTE_E3, 136 }, 
	{ NOTE_FS4, 136 }, 
	{ NOTE_FS4, 142 }, 
	{ NOTE_E3, 136 }, 
	{ NOTE_E3, 136 }, 
	{ NOTE_C4, 136 }, 
	{ NOTE_E3, 136 }, 
	{ NOTE_E3, 136 }, 
	{ NOTE_C4, 136 }, 
	{ NOTE_E3, 136 }, 
	{ NOTE_E3, 136 }, 
	{ NOTE_C4, 136 }, 
	{ NOTE_E3, 136 }, 
	{ NOTE_E3, 136 }, 
	{ NOTE_C4, 136 }, 
	{ NOTE_E3, 136 }, 
	{ NOTE_E3, 136 }, 
	{ NOTE_FS4, 278 }, 
	{ NOTE_B3, 136 }, 
	{ NOTE_B3, 136 }, 
	{ NOTE_B3, 136 }, 
	{ NOTE_B3, 136 }, 
	{ NOTE_B3, 136 }, 
	{ NOTE_B3, 136 }, 
	{ NOTE_B3, 136 }, 
	{ NOTE_E3, 68 }, 
	{ NOTE_E3, 71 }, 
	{ NOTE_E3, 68 }, 
	{ NOTE_E3, 68 }, 
	{ NOTE_FS3, 136 }, 
	{ NOTE_G3, 136 }, 
	{ NOTE_A3, 136 }, 
	{ NOTE_B3, 136 }, 
	{ NOTE_C4, 136 }, 
	{ NOTE_D4, 136 }, 
	{ NOTE_E4, 136 }, 
	{ NOTE_FS4, 136 }, 
	{ NOTE_G4, 136 }, 
	{ NOTE_C4, 681 }, 
	{ NOTE_C4, 68 }, 
	{ NOTE_C4, 73 }, 
	{ NOTE_C4, 136 }, 
	{ NOTE_B3, 136 }, 
	{ NOTE_C4, 136 }, 
	{ NOTE_D4, 136 }, 
	{ NOTE_C4, 136 }, 
	{ NOTE_B3, 136 }, 
	{ NOTE_G3, 136 }, 
	{ NOTE_FS3, 136 }, 
	{ NOTE_E3, 136 }, 
	{ NOTE_E3, 136 }, 
	{ NOTE_E3, 136 }, 
	{ NOTE_E3, 136 }, 
	{ NOTE_E3, 136 }, 
	{ NOTE_E3, 136 }, 
	{ NOTE_E3, 136 }, 
	{ NOTE_E3, 142 }, 
	{ NOTE_E3, 68 }, 
	{ NOTE_E3, 68 }, 
	{ NOTE_FS3, 136 }, 
	{ NOTE_G3, 136 }, 
	{ NOTE_A3, 136 }, 
	{ NOTE_B3, 136 }, 
	{ NOTE_C4, 136 }, 
	{ NOTE_D4, 136 }, 
	{ NOTE_E4, 136 }, 
	{ NOTE_FS4, 136 }, 
	{ NOTE_G4, 136 }, 
	{ NOTE_C4, 681 }, 
	{ NOTE_C4, 68 }, 
	{ NOTE_C4, 73 }, 
	{ NOTE_C4, 136 }, 
	{ NOTE_B3, 136 }, 
	{ NOTE_C4, 136 }, 
	{ NOTE_D4, 136 }, 
	{ NOTE_C4, 136 }, 
	{ NOTE_B3, 136 }, 
	{ NOTE_G3, 136 }, 
	{ NOTE_FS3, 136 }, 
	{ NOTE_E3, 136 }, 
	{ NOTE_E3, 136 }, 
	{ NOTE_E3, 136 }, 
	{ NOTE_E3, 136 }, 
	{ NOTE_E3, 136 }, 
	{ NOTE_E3, 136 }, 
	{ NOTE_E3, 136 }, 
	{ NOTE_E3, 142 }, 
	{ NOTE_E3, 68 }, 
	{ NOTE_E3, 68 }, 
	{ NOTE_FS3, 136 }, 
	{ NOTE_G3, 136 }, 
	{ NOTE_A3, 136 }, 
	{ NOTE_B3, 136 }, 
	{ NOTE_C4, 136 }, 
	{ NOTE_D4, 136 }, 
	{ NOTE_E4, 136 }, 
	{ NOTE_FS4, 136 }, 
	{ NOTE_G4, 136 }, 
	{ NOTE_C4, 681 }, 
	{ NOTE_C4, 68 }, 
	{ NOTE_C4, 73 }, 
	{ NOTE_C4, 136 }, 
	{ NOTE_B3, 136 }, 
	{ NOTE_C4, 136 }, 
	{ NOTE_D4, 136 }, 
	{ NOTE_C4, 136 }, 
	{ NOTE_B3, 136 }, 
	{ NOTE_G3, 136 }, 
	{ NOTE_FS3, 136 }, 
	{ NOTE_E3, 136 }, 
	{ NOTE_E3, 136 }, 
	{ NOTE_E3, 136 }, 
	{ NOTE_E3, 136 }, 
	{ NOTE_E3, 136 }, 
	{ NOTE_E3, 136 }, 
	{ NOTE_E3, 136 }, 
	{ NOTE_E3, 142 }, 
	{ NOTE_E3, 68 }, 
	{ NOTE_E3, 68 }, 
	{ NOTE_FS3, 136 }, 
	{ NOTE_G3, 136 }, 
	{ NOTE_A3, 136 }, 
	{ NOTE_B3, 136 }, 
	{ NOTE_C4, 136 }, 
	{ NOTE_D4, 136 }, 
	{ NOTE_E4, 136 }, 
	{ NOTE_FS4, 136 }, 
	{ NOTE_G4, 818 }, 
	{ NOTE_E4, 68 }, 
	{ NOTE_E4, 72 }, 
	{ NOTE_C4, 136 }, 
	{ NOTE_B3, 136 }, 
	{ NOTE_C4, 136 }, 
	{ NOTE_D4, 136 }, 
	{ NOTE_C4, 136 }, 
	{ NOTE_B3, 136 }, 
	{ NOTE_G3, 136 }, 
	{ NOTE_FS3, 136 }, 
	{ NOTE_B3, 954 }, 
	{ NOTE_C4, 68 }, 
	{ NOTE_C4, 72 }, 
	{ NOTE_C4, 136 }, 
	{ NOTE_B3, 136 }, 
	{ NOTE_C4, 136 }, 
	{ NOTE_D4, 136 }, 
	{ NOTE_C4, 136 }, 
	{ NOTE_B3, 136 }, 
	{ NOTE_G3, 136 }, 
	{ NOTE_FS3, 139 }, 
	{ NOTE_E3, 136 }, 
	{ NOTE_F3, 136 }, 
	{ NOTE_B3, 136 }, 
	{ NOTE_E3, 136 }, 
	{ NOTE_F3, 136 }, 
	{ NOTE_C4, 136 }, 
	{ NOTE_E3, 136 }, 
	{ NOTE_FS3, 136 }, 
	{ NOTE_CS4, 136 }, 
	{ NOTE_E3, 136 }, 
	{ NOTE_F3, 136 }, 
	{ NOTE_C4, 136 }, 
	{ NOTE_E3, 136 }, 
	{ NOTE_F3, 136 }, 
	{ NOTE_B3, 136 }, 
	{ NOTE_B3, 142 }, 
	{ NOTE_E3, 136 }, 
	{ NOTE_F3, 136 }, 
	{ NOTE_B3, 136 }, 
	{ NOTE_E3, 136 }, 
	{ NOTE_F3, 136 }, 
	{ NOTE_C4, 136 }, 
	{ NOTE_E3, 136 }, 
	{ NOTE_F3, 136 }, 
	{ NOTE_D4, 136 }, 
	{ NOTE_CS4, 136 }, 
	{ NOTE_B3, 136 }, 
	{ NOTE_D4, 136 }, 
	{ NOTE_CS4, 136 }, 
	{ NOTE_B3, 136 }, 
	{ NOTE_D4, 136 }, 
	{ NOTE_CS4, 142 }, 
	{ NOTE_D4, 136 }, 
	{ NOTE_CS4, 136 }, 
	{ NOTE_B3, 136 }, 
	{ NOTE_D4, 136 }, 
	{ NOTE_CS4, 136 }, 
	{ NOTE_B3, 136 }, 
	{ NOTE_D4, 136 }, 
	{ NOTE_CS4, 139 }, 
	{ NOTE_E3, 136 }, 
	{ NOTE_E3, 136 }, 
	{ NOTE_E3, 136 }, 
	{ NOTE_E3, 136 }, 
	{ NOTE_E3, 136 }, 
	{ NOTE_E3, 136 }, 
	{ NOTE_E3, 136 }, 
	{ NOTE_E3, 136 }, 
	{ NOTE_E3, 136 }, 
	{ NOTE_D4, 136 }, 
	{ NOTE_E4, 136 }, 
	{ NOTE_REST, 136 }, 
	{ NOTE_F4, 136 }, 
	{ NOTE_E4, 136 }, 
	{ NOTE_D4, 136 }, 
	{ NOTE_E4, 142 }, 
	{ NOTE_E3, 136 }, 
	{ NOTE_E3, 136 }, 
	{ NOTE_E3, 136 }, 
	{ NOTE_E3, 136 }, 
	{ NOTE_E3, 136 }, 
	{ NOTE_E3, 136 }, 
	{ NOTE_E3, 136 }, 
	{ NOTE_E3, 136 }, 
	{ NOTE_E3, 136 }, 
	{ NOTE_D4, 136 }, 
	{ NOTE_E4, 136 }, 
	{ NOTE_D4, 136 }, 
	{ NOTE_E4, 141 }, 
	{ NOTE_E3, 136 }, 
	{ NOTE_E3, 136 }, 
	{ NOTE_E3, 136 }, 
	{ NOTE_E3, 136 }, 
	{ NOTE_E3, 136 }, 
	{ NOTE_E3, 136 }, 
	{ NOTE_E3, 136 }, 
	{ NOTE_E3, 136 }, 
	{ NOTE_E3, 136 }, 
	{ NOTE_D4, 136 }, 
	{ NOTE_E4, 136 }, 
	{ NOTE_REST, 136 }, 
	{ NOTE_F4, 136 }, 
	{ NOTE_E4, 136 }, 
	{ NOTE_D4, 136 }, 
	{ NOTE_E4, 142 }, 
	{ NOTE_E3, 136 }, 
	{ NOTE_E3, 136 }, 
	{ NOTE_E3, 136 }, 
	{ NOTE_E3, 136 }, 
	{ NOTE_E3, 136 }, 
	{ NOTE_E3, 136 }, 
	{ NOTE_E3, 136 }, 
	{ NOTE_E3, 136 }, 
	{ NOTE_E3, 136 }, 
	{ NOTE_D4, 136 }, 
	{ NOTE_E4, 136 }, 
	{ NOTE_D4, 136 }, 
	{ NOTE_E4, 141 }, 
	{ NOTE_E3, 136 }, 
	{ NOTE_E3, 136 }, 
	{ NOTE_E3, 136 }, 
	{ NOTE_E3, 136 }, 
	{ NOTE_E3, 136 }, 
	{ NOTE_E3, 136 }, 
	{ NOTE_E3, 136 }, 
	{ NOTE_E3, 136 }, 
	{ NOTE_E3, 136 }, 
	{ NOTE_D4, 136 }, 
	{ NOTE_E4, 136 }, 
	{ NOTE_REST, 136 }, 
	{ NOTE_F4, 136 }, 
	{ NOTE_E4, 136 }, 
	{ NOTE_D4, 136 }, 
	{ NOTE_E4, 142 }, 
	{ NOTE_E3, 136 }, 
	{ NOTE_E3, 136 }, 
	{ NOTE_E3, 136 }, 
	{ NOTE_E3, 136 }, 
	{ NOTE_E3, 136 }, 
	{ NOTE_E3, 136 }, 
	{ NOTE_E3, 136 }, 
	{ NOTE_E3, 136 }, 
	{ NOTE_E3, 136 }, 
	{ NOTE_D4, 136 }, 
	{ NOTE_E4, 136 }, 
	{ NOTE_D4, 136 }, 
	{ NOTE_E4, 141 }, 
	{ NOTE_FS3, 136 }, 
	{ NOTE_FS3, 136 }, 
	{ NOTE_FS3, 136 }, 
	{ NOTE_FS3, 136 }, 
	{ NOTE_FS3, 136 }, 
	{ NOTE_FS3, 136 }, 
	{ NOTE_FS3, 136 }, 
	{ NOTE_FS3, 136 }, 
	{ NOTE_FS3, 136 }, 
	{ NOTE_E4, 136 }, 
	{ NOTE_FS4, 136 }, 
	{ NOTE_REST, 136 }, 
	{ NOTE_G4, 136 }, 
	{ NOTE_FS4, 136 }, 
	{ NOTE_E4, 136 }, 
	{ NOTE_FS4, 142 }, 
	{ NOTE_FS3, 136 }, 
	{ NOTE_FS3, 136 }, 
	{ NOTE_FS3, 136 }, 
	{ NOTE_FS3, 136 }, 
	{ NOTE_FS3, 136 }, 
	{ NOTE_FS3, 136 }, 
	{ NOTE_FS3, 136 }, 
	{ NOTE_FS3, 136 }, 
	{ NOTE_FS3, 136 }, 
	{ NOTE_E4, 136 }, 
	{ NOTE_FS4, 136 }, 
	{ NOTE_E4, 136 }, 
	{ NOTE_FS4, 141 }, 
	{ NOTE_B4, 136 }, 
	{ NOTE_B4, 136 }, 
	{ NOTE_B4, 136 }, 
	{ NOTE_B4, 136 }, 
	{ NOTE_B4, 136 }, 
	{ NOTE_B4, 136 }, 
	{ NOTE_B4, 136 }, 
	{ NOTE_B4, 139 }, 
	{ NOTE_E4, 273 }, 
	{ NOTE_E3, 136 }, 
	{ NOTE_E3, 136 }, 
	{ NOTE_A4, 273 }, 
	{ NOTE_B4, 273 }, 
	{ NOTE_REST, 136 }, 
	{ NOTE_E4, 136 }, 
	{ NOTE_FS4, 273 }, 
	{ NOTE_B4, 136 }, 
	{ NOTE_G4, 136 }, 
	{ NOTE_FS4, 136 }, 
	{ NOTE_G4, 136 }, 
	{ NOTE_C4, 136 }, 
	{ NOTE_C4, 136 }, 
	{ NOTE_C4, 136 }, 
	{ NOTE_C4, 136 }, 
	{ NOTE_G4, 273 }, 
	{ NOTE_FS4, 273 }, 
	{ NOTE_C4, 136 }, 
	{ NOTE_C4, 136 }, 
	{ NOTE_C4, 136 }, 
	{ NOTE_C4, 136 }, 
	{ NOTE_BB4, 273 }, 
	{ NOTE_FS4, 277 }, 
	{ NOTE_E4, 273 }, 
	{ NOTE_E3, 136 }, 
	{ NOTE_E3, 136 }, 
	{ NOTE_A4, 273 }, 
	{ NOTE_B4, 273 }, 
	{ NOTE_REST, 136 }, 
	{ NOTE_E4, 136 }, 
	{ NOTE_FS4, 273 }, 
	{ NOTE_B4, 136 }, 
	{ NOTE_G4, 136 }, 
	{ NOTE_FS4, 136 }, 
	{ NOTE_G4, 136 }, 
	{ NOTE_C4, 136 }, 
	{ NOTE_C4, 136 }, 
	{ NOTE_C4, 136 }, 
	{ NOTE_C4, 136 }, 
	{ NOTE_G4, 273 }, 
	{ NOTE_FS4, 276 }, 
	{ NOTE_CS5, 136 }, 
	{ NOTE_B4, 136 }, 
	{ NOTE_BB4, 136 }, 
	{ NOTE_REST, 137 }, 
	{ NOTE_BB4, 136 }, 
	{ NOTE_G4, 136 }, 
	{ NOTE_FS4, 136 }, 
	{ NOTE_REST, 137 }, 
	{ NOTE_B3, 273 }, 
	{ NOTE_B3, 273 }, 
	{ NOTE_REST, 545 }, 
	{ NOTE_C4, 273 }, 
	{ NOTE_C4, 273 }, 
	{ NOTE_REST, 545 }, 
	{ NOTE_B3, 681 }, 
	{ NOTE_E3, 136 }, 
	{ NOTE_E3, 136 }, 
	{ NOTE_E3, 136 }, 
	{ NOTE_CS4, 136 }, 
	{ NOTE_E3, 136 }, 
	{ NOTE_E3, 136 }, 
	{ NOTE_E3, 136 }, 
	{ NOTE_D4, 2185 }, 
	{ NOTE_G4, 682 }, 
	{ NOTE_A3, 136 }, 
	{ NOTE_A3, 136 }, 
	{ NOTE_A3, 136 }, 
	{ NOTE_FS4, 136 }, 
	{ NOTE_A3, 136 }, 
	{ NOTE_A3, 136 }, 
	{ NOTE_A3, 136 }, 
	{ NOTE_E4, 2185 }, 
	{ NOTE_A4, 681 }, 
	{ NOTE_A3, 136 }, 
	{ NOTE_A3, 136 }, 
	{ NOTE_A3, 138 }, 
	{ NOTE_G4, 136 }, 
	{ NOTE_A3, 136 }, 
	{ NOTE_A3, 136 }, 
	{ NOTE_A3, 136 }, 
	{ NOTE_FS4, 1091 }, 
	{ NOTE_B3, 683 }, 
	{ NOTE_E3, 136 }, 
	{ NOTE_E3, 136 }, 
	{ NOTE_E3, 136 }, 
	{ NOTE_D4, 136 }, 
	{ NOTE_E3, 136 }, 
	{ NOTE_E3, 136 }, 
	{ NOTE_E3, 136 }, 
	{ NOTE_G4, 2185 }, 
	{ NOTE_B3, 273 }, 
	{ NOTE_B3, 273 }, 
	{ NOTE_REST, 545 }, 
	{ NOTE_C4, 273 }, 
	{ NOTE_C4, 273 }, 
	{ NOTE_REST, 545 }, 
	{ NOTE_B3, 681 }, 
	{ NOTE_E3, 136 }, 
	{ NOTE_E3, 136 }, 
	{ NOTE_E3, 136 }, 
	{ NOTE_D4, 136 }, 
	{ NOTE_E3, 136 }, 
	{ NOTE_E3, 136 }, 
	{ NOTE_E3, 136 }, 
	{ NOTE_G4, 2185 }, 
	{ NOTE_B3, 273 }, 
	{ NOTE_B3, 273 }, 
	{ NOTE_REST, 545 }, 
	{ NOTE_C4, 273 }, 
	{ NOTE_C4, 273 }, 
	{ NOTE_REST, 545 }, 
	{ NOTE_E3, 136 }, 
	{ NOTE_E3, 136 }, 
	{ NOTE_E3, 136 }, 
	{ NOTE_E3, 136 }, 
	{ NOTE_E3, 136 }, 
	{ NOTE_E3, 136 }, 
	{ NOTE_E3, 136 }, 
	{ NOTE_E3, 136 }, 
	{ NOTE_E3, 136 }, 
	{ NOTE_D4, 136 }, 
	{ NOTE_E4, 136 }, 
	{ NOTE_REST, 136 }, 
	{ NOTE_F4, 136 }, 
	{ NOTE_E4, 136 }, 
	{ NOTE_D4, 136 }, 
	{ NOTE_E4, 142 }, 
	{ NOTE_E3, 136 }, 
	{ NOTE_E3, 136 }, 
	{ NOTE_E3, 136 }, 
	{ NOTE_E3, 136 }, 
	{ NOTE_E3, 136 }, 
	{ NOTE_E3, 136 }, 
	{ NOTE_E3, 136 }, 
	{ NOTE_E3, 136 }, 
	{ NOTE_E3, 136 }, 
	{ NOTE_D4, 136 }, 
	{ NOTE_E4, 136 }, 
	{ NOTE_D4, 136 }, 
	{ NOTE_E4, 141 }, 
	{ NOTE_E3, 136 }, 
	{ NOTE_E3, 136 }, 
	{ NOTE_E3, 136 }, 
	{ NOTE_E3, 136 }, 
	{ NOTE_E3, 136 }, 
	{ NOTE_E3, 136 }, 
	{ NOTE_E3, 136 }, 
	{ NOTE_E3, 136 }, 
	{ NOTE_E3, 136 }, 
	{ NOTE_D4, 136 }, 
	{ NOTE_E4, 136 }, 
	{ NOTE_REST, 136 }, 
	{ NOTE_F4, 136 }, 
	{ NOTE_E4, 136 }, 
	{ NOTE_D4, 136 }, 
	{ NOTE_E4, 142 }, 
	{ NOTE_E3, 136 }, 
	{ NOTE_E3, 136 }, 
	{ NOTE_E3, 136 }, 
	{ NOTE_E3, 136 }, 
	{ NOTE_E3, 136 }, 
	{ NOTE_E3, 136 }, 
	{ NOTE_E3, 136 }, 
	{ NOTE_E3, 136 }, 
	{ NOTE_E3, 136 }, 
	{ NOTE_D4, 136 }, 
	{ NOTE_E4, 136 }, 
	{ NOTE_D4, 136 }, 
	{ NOTE_E4, 141 }, 
	{ NOTE_E3, 136 }, 
	{ NOTE_E3, 136 }, 
	{ NOTE_E3, 136 }, 
	{ NOTE_E3, 136 }, 
	{ NOTE_E3, 136 }, 
	{ NOTE_E3, 136 }, 
	{ NOTE_E3, 136 }, 
	{ NOTE_E3, 136 }, 
	{ NOTE_E3, 136 }, 
	{ NOTE_D4, 136 }, 
	{ NOTE_E4, 136 }, 
	{ NOTE_REST, 136 }, 
	{ NOTE_F4, 136 }, 
	{ NOTE_E4, 136 }, 
	{ NOTE_D4, 136 }, 
	{ NOTE_E4, 142 }, 
	{ NOTE_E3, 136 }, 
	{ NOTE_E3, 136 }, 
	{ NOTE_E3, 136 }, 
	{ NOTE_E3, 136 }, 
	{ NOTE_E3, 136 }, 
	{ NOTE_E3, 136 }, 
	{ NOTE_E3, 136 }, 
	{ NOTE_E3, 136 }, 
	{ NOTE_E3, 136 }, 
	{ NOTE_D4, 136 }, 
	{ NOTE_E4, 136 }, 
	{ NOTE_D4, 136 }, 
	{ NOTE_E4, 141 }, 
	{ NOTE_E3, 136 }, 
	{ NOTE_E3, 136 }, 
	{ NOTE_E3, 136 }, 
	{ NOTE_E3, 136 }, 
	{ NOTE_E3, 136 }, 
	{ NOTE_E3, 136 }, 
	{ NOTE_E3, 136 }, 
	{ NOTE_E3, 136 }, 
	{ NOTE_E3, 136 }, 
	{ NOTE_D4, 136 }, 
	{ NOTE_E4, 136 }, 
	{ NOTE_REST, 136 }, 
	{ NOTE_F4, 136 }, 
	{ NOTE_E4, 136 }, 
	{ NOTE_D4, 136 }, 
	{ NOTE_E4, 142 }, 
	{ NOTE_E3, 136 }, 
	{ NOTE_E3, 136 }, 
	{ NOTE_E3, 136 }, 
	{ NOTE_E3, 136 }, 
	{ NOTE_E3, 136 }, 
	{ NOTE_E3, 136 }, 
	{ NOTE_E3, 136 }, 
	{ NOTE_E3, 136 }, 
	{ NOTE_E3, 136 }, 
	{ NOTE_D4, 136 }, 
	{ NOTE_E4, 136 }, 
	{ NOTE_D4, 136 }, 
	{ NOTE_E4, 141 }, 
	{ NOTE_REST, 1091 }, 
	{ NOTE_D4, 136 }, 
	{ NOTE_CS4, 136 }, 
	{ NOTE_B3, 136 }, 
	{ NOTE_D4, 136 }, 
	{ NOTE_CS4, 136 }, 
	{ NOTE_B3, 136 }, 
	{ NOTE_D4, 136 }, 
	{ NOTE_CS4, 139 }, 
	{ NOTE_B3, 6546 }, 
	{ NOTE_REST, 2182 }, 
	{ NOTE_REST, 2182 }, 
};
const uint16_t NUM_OF_NOTES1 = sizeof(melody1)/sizeof(melody1[0]);

const Note melody2[] PROGMEM = {
	{ NOTE_E3, 273 }, 
	{ NOTE_REST, 818 }, 
	{ NOTE_A3, 273 }, 
	{ NOTE_GS3, 273 }, 
	{ NOTE_G3, 1636 }, 
	{ NOTE_E3, 273 }, 
	{ NOTE_REST, 818 }, 
	{ NOTE_A3, 273 }, 
	{ NOTE_GS3, 273 }, 
	{ NOTE_G3, 545 }, 
	{ NOTE_REST, 1636 }, 
	{ NOTE_REST, 273 }, 
	{ NOTE_E3, 136 }, 
	{ NOTE_REST, 137 }, 
	{ NOTE_E3, 273 }, 
	{ NOTE_REST, 545 }, 
	{ NOTE_REST, 273 }, 
	{ NOTE_A3, 273 }, 
	{ NOTE_GS3, 273 }, 
	{ NOTE_G3, 545 }, 
	{ NOTE_REST, 2182 }, 
	{ NOTE_REST, 2182 }, 
	{ NOTE_REST, 1091 }, 
	{ NOTE_D3, 136 }, 
	{ NOTE_CS3, 136 }, 
	{ NOTE_B2, 136 }, 
	{ NOTE_D3, 136 }, 
	{ NOTE_CS3, 136 }, 
	{ NOTE_B2, 136 }, 
	{ NOTE_D3, 136 }, 
	{ NOTE_CS3, 139 }, 
	{ NOTE_E2, 136 }, 
	{ NOTE_F2, 136 }, 
	{ NOTE_B2, 136 }, 
	{ NOTE_E2, 136 }, 
	{ NOTE_F2, 136 }, 
	{ NOTE_C3, 136 }, 
	{ NOTE_E2, 136 }, 
	{ NOTE_FS2, 136 }, 
	{ NOTE_CS3, 136 }, 
	{ NOTE_E2, 136 }, 
	{ NOTE_F2, 136 }, 
	{ NOTE_C3, 136 }, 
	{ NOTE_E2, 136 }, 
	{ NOTE_F2, 136 }, 
	{ NOTE_B2, 136 }, 
	{ NOTE_B2, 142 }, 
	{ NOTE_E2, 136 }, 
	{ NOTE_F2, 136 }, 
	{ NOTE_B2, 136 }, 
	{ NOTE_E2, 136 }, 
	{ NOTE_F2, 136 }, 
	{ NOTE_C3, 136 }, 
	{ NOTE_E2, 136 }, 
	{ NOTE_FS2, 136 }, 
	{ NOTE_CS3, 136 }, 
	{ NOTE_E2, 136 }, 
	{ NOTE_F2, 136 }, 
	{ NOTE_C3, 136 }, 
	{ NOTE_E2, 136 }, 
	{ NOTE_F2, 136 }, 
	{ NOTE_FS3, 278 }, 
	{ NOTE_E2, 136 }, 
	{ NOTE_F2, 136 }, 
	{ NOTE_B2, 136 }, 
	{ NOTE_E2, 136 }, 
	{ NOTE_F2, 136 }, 
	{ NOTE_C3, 136 }, 
	{ NOTE_E2, 136 }, 
	{ NOTE_FS2, 136 }, 
	{ NOTE_CS3, 136 }, 
	{ NOTE_E2, 136 }, 
	{ NOTE_F2, 136 }, 
	{ NOTE_C3, 136 }, 
	{ NOTE_E2, 136 }, 
	{ NOTE_F2, 136 }, 
	{ NOTE_B2, 136 }, 
	{ NOTE_B2, 142 }, 
	{ NOTE_E2, 136 }, 
	{ NOTE_F2, 136 }, 
	{ NOTE_B2, 136 }, 
	{ NOTE_E2, 136 }, 
	{ NOTE_F2, 136 }, 
	{ NOTE_C3, 136 }, 
	{ NOTE_E2, 136 }, 
	{ NOTE_F2, 136 }, 
	{ NOTE_D3, 136 }, 
	{ NOTE_CS3, 136 }, 
	{ NOTE_B2, 136 }, 
	{ NOTE_D3, 136 }, 
	{ NOTE_CS3, 136 }, 
	{ NOTE_B2, 136 }, 
	{ NOTE_D3, 136 }, 
	{ NOTE_CS3, 142 }, 
	{ NOTE_E2, 136 }, 
	{ NOTE_F2, 136 }, 
	{ NOTE_B2, 136 }, 
	{ NOTE_E2, 136 }, 
	{ NOTE_F2, 136 }, 
	{ NOTE_C3, 136 }, 
	{ NOTE_E2, 136 }, 
	{ NOTE_FS2, 136 }, 
	{ NOTE_CS3, 136 }, 
	{ NOTE_E2, 136 }, 
	{ NOTE_F2, 136 }, 
	{ NOTE_C3, 136 }, 
	{ NOTE_E2, 136 }, 
	{ NOTE_F2, 136 }, 
	{ NOTE_B2, 136 }, 
	{ NOTE_B2, 142 }, 
	{ NOTE_E2, 136 }, 
	{ NOTE_F2, 136 }, 
	{ NOTE_B2, 136 }, 
	{ NOTE_E2, 136 }, 
	{ NOTE_F2, 136 }, 
	{ NOTE_C3, 136 }, 
	{ NOTE_E2, 136 }, 
	{ NOTE_FS2, 136 }, 
	{ NOTE_CS3, 136 }, 
	{ NOTE_E2, 136 }, 
	{ NOTE_F2, 136 }, 
	{ NOTE_C3, 136 }, 
	{ NOTE_E2, 136 }, 
	{ NOTE_F2, 136 }, 
	{ NOTE_FS3, 278 }, 
	{ NOTE_E2, 136 }, 
	{ NOTE_F2, 136 }, 
	{ NOTE_B2, 136 }, 
	{ NOTE_E2, 136 }, 
	{ NOTE_F2, 136 }, 
	{ NOTE_C3, 136 }, 
	{ NOTE_E2, 136 }, 
	{ NOTE_FS2, 136 }, 
	{ NOTE_CS3, 136 }, 
	{ NOTE_E2, 136 }, 
	{ NOTE_F2, 136 }, 
	{ NOTE_C3, 136 }, 
	{ NOTE_E2, 136 }, 
	{ NOTE_F2, 136 }, 
	{ NOTE_B2, 136 }, 
	{ NOTE_B2, 142 }, 
	{ NOTE_E2, 136 }, 
	{ NOTE_F2, 136 }, 
	{ NOTE_B2, 136 }, 
	{ NOTE_E2, 136 }, 
	{ NOTE_F2, 136 }, 
	{ NOTE_C3, 136 }, 
	{ NOTE_E2, 136 }, 
	{ NOTE_F2, 136 }, 
	{ NOTE_D3, 136 }, 
	{ NOTE_CS3, 136 }, 
	{ NOTE_B2, 136 }, 
	{ NOTE_D3, 136 }, 
	{ NOTE_CS3, 136 }, 
	{ NOTE_B2, 136 }, 
	{ NOTE_D3, 136 }, 
	{ NOTE_CS3, 142 }, 
	{ NOTE_D3, 136 }, 
	{ NOTE_CS3, 136 }, 
	{ NOTE_B2, 136 }, 
	{ NOTE_D3, 136 }, 
	{ NOTE_CS3, 136 }, 
	{ NOTE_B2, 136 }, 
	{ NOTE_D3, 136 }, 
	{ NOTE_CS3, 139 }, 
	{ NOTE_E2, 136 }, 
	{ NOTE_E3, 136 }, 
	{ NOTE_BB3, 136 }, 
	{ NOTE_E2, 136 }, 
	{ NOTE_E3, 136 }, 
	{ NOTE_BB3, 136 }, 
	{ NOTE_E2, 136 }, 
	{ NOTE_E3, 136 }, 
	{ NOTE_BB3, 136 }, 
	{ NOTE_E2, 136 }, 
	{ NOTE_E3, 136 }, 
	{ NOTE_BB3, 136 }, 
	{ NOTE_E2, 136 }, 
	{ NOTE_E3, 136 }, 
	{ NOTE_BB3, 278 }, 
	{ NOTE_E2, 136 }, 
	{ NOTE_E2, 136 }, 
	{ NOTE_E2, 136 }, 
	{ NOTE_E2, 136 }, 
	{ NOTE_E2, 136 }, 
	{ NOTE_E2, 136 }, 
	{ NOTE_E2, 136 }, 
	{ NOTE_E2, 136 }, 
	{ NOTE_E2, 136 }, 
	{ NOTE_D3, 136 }, 
	{ NOTE_E3, 136 }, 
	{ NOTE_REST, 136 }, 
	{ NOTE_F3, 136 }, 
	{ NOTE_E3, 136 }, 
	{ NOTE_D3, 136 }, 
	{ NOTE_E3, 142 }, 
	{ NOTE_E2, 136 }, 
	{ NOTE_E2, 136 }, 
	{ NOTE_E2, 136 }, 
	{ NOTE_E2, 136 }, 
	{ NOTE_E2, 136 }, 
	{ NOTE_E2, 136 }, 
	{ NOTE_E2, 136 }, 
	{ NOTE_E2, 136 }, 
	{ NOTE_E2, 136 }, 
	{ NOTE_D3, 136 }, 
	{ NOTE_E3, 136 }, 
	{ NOTE_D3, 136 }, 
	{ NOTE_E3, 141 }, 
	{ NOTE_E2, 136 }, 
	{ NOTE_E2, 136 }, 
	{ NOTE_E2, 136 }, 
	{ NOTE_E2, 136 }, 
	{ NOTE_E2, 136 }, 
	{ NOTE_E2, 136 }, 
	{ NOTE_E2, 136 }, 
	{ NOTE_E2, 136 }, 
	{ NOTE_E2, 136 }, 
	{ NOTE_D3, 136 }, 
	{ NOTE_E3, 136 }, 
	{ NOTE_REST, 136 }, 
	{ NOTE_F3, 136 }, 
	{ NOTE_E3, 136 }, 
	{ NOTE_D3, 136 }, 
	{ NOTE_E3, 142 }, 
	{ NOTE_E2, 136 }, 
	{ NOTE_E2, 136 }, 
	{ NOTE_E2, 136 }, 
	{ NOTE_E2, 136 }, 
	{ NOTE_E2, 136 }, 
	{ NOTE_E2, 136 }, 
	{ NOTE_E2, 136 }, 
	{ NOTE_E2, 136 }, 
	{ NOTE_E2, 136 }, 
	{ NOTE_D3, 136 }, 
	{ NOTE_E3, 136 }, 
	{ NOTE_D3, 136 }, 
	{ NOTE_E3, 141 }, 
	{ NOTE_E2, 136 }, 
	{ NOTE_E2, 136 }, 
	{ NOTE_E2, 136 }, 
	{ NOTE_E2, 136 }, 
	{ NOTE_E2, 136 }, 
	{ NOTE_E2, 136 }, 
	{ NOTE_E2, 136 }, 
	{ NOTE_E2, 136 }, 
	{ NOTE_E2, 136 }, 
	{ NOTE_D3, 136 }, 
	{ NOTE_E3, 136 }, 
	{ NOTE_REST, 136 }, 
	{ NOTE_F3, 136 }, 
	{ NOTE_E3, 136 }, 
	{ NOTE_D3, 136 }, 
	{ NOTE_E3, 142 }, 
	{ NOTE_E2, 136 }, 
	{ NOTE_E2, 136 }, 
	{ NOTE_E2, 136 }, 
	{ NOTE_E2, 136 }, 
	{ NOTE_E2, 136 }, 
	{ NOTE_E2, 136 }, 
	{ NOTE_E2, 136 }, 
	{ NOTE_E2, 136 }, 
	{ NOTE_E2, 136 }, 
	{ NOTE_D3, 136 }, 
	{ NOTE_E3, 136 }, 
	{ NOTE_D3, 136 }, 
	{ NOTE_E3, 141 }, 
	{ NOTE_E2, 136 }, 
	{ NOTE_E2, 136 }, 
	{ NOTE_E2, 136 }, 
	{ NOTE_E2, 136 }, 
	{ NOTE_E2, 136 }, 
	{ NOTE_E2, 136 }, 
	{ NOTE_E2, 136 }, 
	{ NOTE_E2, 136 }, 
	{ NOTE_E2, 136 }, 
	{ NOTE_D3, 136 }, 
	{ NOTE_E3, 136 }, 
	{ NOTE_REST, 136 }, 
	{ NOTE_F3, 136 }, 
	{ NOTE_E3, 136 }, 
	{ NOTE_D3, 136 }, 
	{ NOTE_E3, 142 }, 
	{ NOTE_E2, 136 }, 
	{ NOTE_E2, 136 }, 
	{ NOTE_E2, 136 }, 
	{ NOTE_E2, 136 }, 
	{ NOTE_E2, 136 }, 
	{ NOTE_E2, 136 }, 
	{ NOTE_E2, 136 }, 
	{ NOTE_E2, 136 }, 
	{ NOTE_E2, 136 }, 
	{ NOTE_D3, 136 }, 
	{ NOTE_E3, 136 }, 
	{ NOTE_D3, 136 }, 
	{ NOTE_E3, 141 }, 
	{ NOTE_E2, 136 }, 
	{ NOTE_E2, 136 }, 
	{ NOTE_E2, 136 }, 
	{ NOTE_E2, 136 }, 
	{ NOTE_E2, 136 }, 
	{ NOTE_E2, 136 }, 
	{ NOTE_E2, 136 }, 
	{ NOTE_E2, 136 }, 
	{ NOTE_E2, 136 }, 
	{ NOTE_D3, 136 }, 
	{ NOTE_E3, 136 }, 
	{ NOTE_REST, 136 }, 
	{ NOTE_F3, 136 }, 
	{ NOTE_E3, 136 }, 
	{ NOTE_D3, 136 }, 
	{ NOTE_E3, 142 }, 
	{ NOTE_E2, 136 }, 
	{ NOTE_E2, 136 }, 
	{ NOTE_E2, 136 }, 
	{ NOTE_E2, 136 }, 
	{ NOTE_E2, 136 }, 
	{ NOTE_E2, 136 }, 
	{ NOTE_E2, 136 }, 
	{ NOTE_E2, 136 }, 
	{ NOTE_E2, 136 }, 
	{ NOTE_D3, 136 }, 
	{ NOTE_E3, 136 }, 
	{ NOTE_D3, 136 }, 
	{ NOTE_E3, 141 }, 
	{ NOTE_E2, 136 }, 
	{ NOTE_E2, 136 }, 
	{ NOTE_E2, 136 }, 
	{ NOTE_E2, 136 }, 
	{ NOTE_E2, 136 }, 
	{ NOTE_E2, 136 }, 
	{ NOTE_E2, 136 }, 
	{ NOTE_E2, 136 }, 
	{ NOTE_E2, 136 }, 
	{ NOTE_D3, 136 }, 
	{ NOTE_E3, 136 }, 
	{ NOTE_REST, 136 }, 
	{ NOTE_F3, 136 }, 
	{ NOTE_E3, 136 }, 
	{ NOTE_D3, 136 }, 
	{ NOTE_E3, 142 }, 
	{ NOTE_E2, 136 }, 
	{ NOTE_E2, 136 }, 
	{ NOTE_E2, 136 }, 
	{ NOTE_E2, 136 }, 
	{ NOTE_E2, 136 }, 
	{ NOTE_E2, 136 }, 
	{ NOTE_E2, 136 }, 
	{ NOTE_E2, 136 }, 
	{ NOTE_E2, 136 }, 
	{ NOTE_D3, 136 }, 
	{ NOTE_E3, 136 }, 
	{ NOTE_D3, 136 }, 
	{ NOTE_E3, 141 }, 
	{ NOTE_FS2, 136 }, 
	{ NOTE_FS2, 136 }, 
	{ NOTE_FS2, 136 }, 
	{ NOTE_FS2, 136 }, 
	{ NOTE_FS2, 136 }, 
	{ NOTE_FS2, 136 }, 
	{ NOTE_FS2, 136 }, 
	{ NOTE_FS2, 136 }, 
	{ NOTE_FS2, 136 }, 
	{ NOTE_E3, 136 }, 
	{ NOTE_FS3, 136 }, 
	{ NOTE_REST, 136 }, 
	{ NOTE_G3, 136 }, 
	{ NOTE_FS3, 136 }, 
	{ NOTE_E3, 136 }, 
	{ NOTE_FS3, 142 }, 
	{ NOTE_FS2, 136 }, 
	{ NOTE_FS2, 136 }, 
	{ NOTE_FS2, 136 }, 
	{ NOTE_FS2, 136 }, 
	{ NOTE_FS2, 136 }, 
	{ NOTE_FS2, 136 }, 
	{ NOTE_FS2, 136 }, 
	{ NOTE_FS2, 136 }, 
	{ NOTE_FS2, 136 }, 
	{ NOTE_E3, 136 }, 
	{ NOTE_FS3, 136 }, 
	{ NOTE_E3, 136 }, 
	{ NOTE_FS3, 141 }, 
	{ NOTE_FS2, 136 }, 
	{ NOTE_FS2, 136 }, 
	{ NOTE_FS2, 136 }, 
	{ NOTE_FS2, 136 }, 
	{ NOTE_FS2, 136 }, 
	{ NOTE_FS2, 136 }, 
	{ NOTE_FS2, 136 }, 
	{ NOTE_FS2, 136 }, 
	{ NOTE_FS2, 136 }, 
	{ NOTE_E3, 136 }, 
	{ NOTE_FS3, 136 }, 
	{ NOTE_REST, 136 }, 
	{ NOTE_G3, 136 }, 
	{ NOTE_FS3, 136 }, 
	{ NOTE_E3, 136 }, 
	{ NOTE_FS3, 142 }, 
	{ NOTE_FS2, 136 }, 
	{ NOTE_FS2, 136 }, 
	{ NOTE_FS2, 136 }, 
	{ NOTE_FS2, 136 }, 
	{ NOTE_FS2, 136 }, 
	{ NOTE_FS2, 136 }, 
	{ NOTE_FS2, 136 }, 
	{ NOTE_FS2, 136 }, 
	{ NOTE_FS2, 136 }, 
	{ NOTE_E3, 136 }, 
	{ NOTE_FS3, 136 }, 
	{ NOTE_E3, 136 }, 
	{ NOTE_FS3, 141 }, 
	{ NOTE_B3, 136 }, 
	{ NOTE_B3, 136 }, 
	{ NOTE_B3, 136 }, 
	{ NOTE_B3, 136 }, 
	{ NOTE_B3, 136 }, 
	{ NOTE_B3, 136 }, 
	{ NOTE_B3, 136 }, 
	{ NOTE_B3, 139 }, 
	{ NOTE_E3, 273 }, 
	{ NOTE_E2, 136 }, 
	{ NOTE_E2, 136 }, 
	{ NOTE_A3, 273 }, 
	{ NOTE_B3, 273 }, 
	{ NOTE_REST, 136 }, 
	{ NOTE_E3, 136 }, 
	{ NOTE_FS3, 273 }, 
	{ NOTE_B3, 136 }, 
	{ NOTE_G3, 136 }, 
	{ NOTE_FS3, 136 }, 
	{ NOTE_G3, 136 }, 
	{ NOTE_C3, 136 }, 
	{ NOTE_C3, 136 }, 
	{ NOTE_C3, 136 }, 
	{ NOTE_C3, 136 }, 
	{ NOTE_G3, 273 }, 
	{ NOTE_FS3, 273 }, 
	{ NOTE_C3, 136 }, 
	{ NOTE_C3, 136 }, 
	{ NOTE_C3, 136 }, 
	{ NOTE_C3, 136 }, 
	{ NOTE_BB3, 273 }, 
	{ NOTE_FS3, 277 }, 
	{ NOTE_E3, 273 }, 
	{ NOTE_E2, 136 }, 
	{ NOTE_E2, 136 }, 
	{ NOTE_A3, 273 }, 
	{ NOTE_B3, 273 }, 
	{ NOTE_REST, 136 }, 
	{ NOTE_E3, 136 }, 
	{ NOTE_FS3, 273 }, 
	{ NOTE_B3, 136 }, 
	{ NOTE_G3, 136 }, 
	{ NOTE_FS3, 136 }, 
	{ NOTE_G3, 136 }, 
	{ NOTE_C3, 136 }, 
	{ NOTE_C3, 136 }, 
	{ NOTE_C3, 136 }, 
	{ NOTE_C3, 136 }, 
	{ NOTE_G3, 273 }, 
	{ NOTE_FS3, 273 }, 
	{ NOTE_B3, 136 }, 
	{ NOTE_A3, 136 }, 
	{ NOTE_GS3, 136 }, 
	{ NOTE_REST, 136 }, 
	{ NOTE_GS3, 136 }, 
	{ NOTE_F3, 136 }, 
	{ NOTE_E3, 136 }, 
	{ NOTE_REST, 142 }, 
	{ NOTE_B2, 273 }, 
	{ NOTE_B2, 273 }, 
	{ NOTE_REST, 545 }, 
	{ NOTE_C3, 273 }, 
	{ NOTE_C3, 273 }, 
	{ NOTE_REST, 545 }, 
	{ NOTE_B2, 681 }, 
	{ NOTE_E2, 136 }, 
	{ NOTE_E2, 136 }, 
	{ NOTE_E2, 136 }, 
	{ NOTE_CS3, 136 }, 
	{ NOTE_E2, 136 }, 
	{ NOTE_E2, 136 }, 
	{ NOTE_E2, 136 }, 
	{ NOTE_D3, 2185 }, 
	{ NOTE_G3, 682 }, 
	{ NOTE_A2, 136 }, 
	{ NOTE_A2, 136 }, 
	{ NOTE_A2, 136 }, 
	{ NOTE_FS3, 136 }, 
	{ NOTE_A2, 136 }, 
	{ NOTE_A2, 136 }, 
	{ NOTE_A2, 136 }, 
	{ NOTE_E3, 2185 }, 
	{ NOTE_A3, 681 }, 
	{ NOTE_A2, 136 }, 
	{ NOTE_A2, 136 }, 
	{ NOTE_A2, 138 }, 
	{ NOTE_G3, 136 }, 
	{ NOTE_A2, 136 }, 
	{ NOTE_A2, 136 }, 
	{ NOTE_A2, 136 }, 
	{ NOTE_FS3, 1091 }, 
	{ NOTE_B2, 683 }, 
	{ NOTE_E2, 136 }, 
	{ NOTE_E2, 136 }, 
	{ NOTE_E2, 136 }, 
	{ NOTE_D3, 136 }, 
	{ NOTE_E2, 136 }, 
	{ NOTE_E2, 136 }, 
	{ NOTE_E2, 136 }, 
	{ NOTE_G3, 2185 }, 
	{ NOTE_B2, 273 }, 
	{ NOTE_B2, 273 }, 
	{ NOTE_REST, 545 }, 
	{ NOTE_C3, 273 }, 
	{ NOTE_C3, 273 }, 
	{ NOTE_REST, 545 }, 
	{ NOTE_B2, 681 }, 
	{ NOTE_E2, 136 }, 
	{ NOTE_E2, 136 }, 
	{ NOTE_E2, 136 }, 
	{ NOTE_D3, 136 }, 
	{ NOTE_E2, 136 }, 
	{ NOTE_E2, 136 }, 
	{ NOTE_E2, 136 }, 
	{ NOTE_G3, 2185 }, 
	{ NOTE_B2, 273 }, 
	{ NOTE_B2, 273 }, 
	{ NOTE_REST, 545 }, 
	{ NOTE_C3, 273 }, 
	{ NOTE_C3, 273 }, 
	{ NOTE_REST, 545 }, 
	{ NOTE_E2, 136 }, 
	{ NOTE_F2, 136 }, 
	{ NOTE_B2, 136 }, 
	{ NOTE_E2, 136 }, 
	{ NOTE_F2, 136 }, 
	{ NOTE_C3, 136 }, 
	{ NOTE_E2, 136 }, 
	{ NOTE_FS2, 136 }, 
	{ NOTE_CS3, 136 }, 
	{ NOTE_E2, 136 }, 
	{ NOTE_F2, 136 }, 
	{ NOTE_C3, 136 }, 
	{ NOTE_E2, 136 }, 
	{ NOTE_F2, 136 }, 
	{ NOTE_B2, 136 }, 
	{ NOTE_B2, 142 }, 
	{ NOTE_E2, 136 }, 
	{ NOTE_F2, 136 }, 
	{ NOTE_B2, 136 }, 
	{ NOTE_E2, 136 }, 
	{ NOTE_F2, 136 }, 
	{ NOTE_C3, 136 }, 
	{ NOTE_E2, 136 }, 
	{ NOTE_FS2, 136 }, 
	{ NOTE_CS3, 136 }, 
	{ NOTE_E2, 136 }, 
	{ NOTE_F2, 136 }, 
	{ NOTE_C3, 136 }, 
	{ NOTE_E2, 136 }, 
	{ NOTE_F2, 136 }, 
	{ NOTE_FS3, 278 }, 
	{ NOTE_E2, 136 }, 
	{ NOTE_F2, 136 }, 
	{ NOTE_B2, 136 }, 
	{ NOTE_E2, 136 }, 
	{ NOTE_F2, 136 }, 
	{ NOTE_C3, 136 }, 
	{ NOTE_E2, 136 }, 
	{ NOTE_FS2, 136 }, 
	{ NOTE_CS3, 136 }, 
	{ NOTE_E2, 136 }, 
	{ NOTE_F2, 136 }, 
	{ NOTE_C3, 136 }, 
	{ NOTE_E2, 136 }, 
	{ NOTE_F2, 136 }, 
	{ NOTE_B2, 136 }, 
	{ NOTE_B2, 142 }, 
	{ NOTE_E2, 136 }, 
	{ NOTE_F2, 136 }, 
	{ NOTE_B2, 136 }, 
	{ NOTE_E2, 136 }, 
	{ NOTE_F2, 136 }, 
	{ NOTE_C3, 136 }, 
	{ NOTE_E2, 136 }, 
	{ NOTE_F2, 136 }, 
	{ NOTE_D3, 136 }, 
	{ NOTE_CS3, 136 }, 
	{ NOTE_B2, 136 }, 
	{ NOTE_D3, 136 }, 
	{ NOTE_CS3, 136 }, 
	{ NOTE_B2, 136 }, 
	{ NOTE_D3, 136 }, 
	{ NOTE_CS3, 142 }, 
	{ NOTE_D3, 136 }, 
	{ NOTE_CS3, 136 }, 
	{ NOTE_B2, 136 }, 
	{ NOTE_D3, 136 }, 
	{ NOTE_CS3, 136 }, 
	{ NOTE_B2, 136 }, 
	{ NOTE_D3, 136 }, 
	{ NOTE_CS3, 139 }, 
	{ NOTE_E2, 136 }, 
	{ NOTE_E2, 136 }, 
	{ NOTE_E2, 136 }, 
	{ NOTE_E2, 136 }, 
	{ NOTE_E2, 136 }, 
	{ NOTE_E2, 136 }, 
	{ NOTE_E2, 136 }, 
	{ NOTE_E2, 136 }, 
	{ NOTE_E2, 136 }, 
	{ NOTE_D3, 136 }, 
	{ NOTE_E3, 136 }, 
	{ NOTE_REST, 136 }, 
	{ NOTE_F3, 136 }, 
	{ NOTE_E3, 136 }, 
	{ NOTE_D3, 136 }, 
	{ NOTE_E3, 142 }, 
	{ NOTE_E2, 136 }, 
	{ NOTE_E2, 136 }, 
	{ NOTE_E2, 136 }, 
	{ NOTE_E2, 136 }, 
	{ NOTE_E2, 136 }, 
	{ NOTE_E2, 136 }, 
	{ NOTE_E2, 136 }, 
	{ NOTE_E2, 136 }, 
	{ NOTE_E2, 136 }, 
	{ NOTE_D3, 136 }, 
	{ NOTE_E3, 136 }, 
	{ NOTE_D3, 136 }, 
	{ NOTE_E3, 141 }, 
	{ NOTE_E2, 136 }, 
	{ NOTE_E2, 136 }, 
	{ NOTE_E2, 136 }, 
	{ NOTE_E2, 136 }, 
	{ NOTE_E2, 136 }, 
	{ NOTE_E2, 136 }, 
	{ NOTE_E2, 136 }, 
	{ NOTE_E2, 136 }, 
	{ NOTE_E2, 136 }, 
	{ NOTE_D3, 136 }, 
	{ NOTE_E3, 136 }, 
	{ NOTE_REST, 136 }, 
	{ NOTE_F3, 136 }, 
	{ NOTE_E3, 136 }, 
	{ NOTE_D3, 136 }, 
	{ NOTE_E3, 142 }, 
	{ NOTE_E2, 136 }, 
	{ NOTE_E2, 136 }, 
	{ NOTE_E2, 136 }, 
	{ NOTE_E2, 136 }, 
	{ NOTE_E2, 136 }, 
	{ NOTE_E2, 136 }, 
	{ NOTE_E2, 136 }, 
	{ NOTE_E2, 136 }, 
	{ NOTE_E2, 136 }, 
	{ NOTE_D3, 136 }, 
	{ NOTE_E3, 136 }, 
	{ NOTE_D3, 136 }, 
	{ NOTE_E3, 141 }, 
	{ NOTE_E2, 136 }, 
	{ NOTE_E2, 136 }, 
	{ NOTE_E2, 136 }, 
	{ NOTE_E2, 136 }, 
	{ NOTE_E2, 136 }, 
	{ NOTE_E2, 136 }, 
	{ NOTE_E2, 136 }, 
	{ NOTE_E2, 136 }, 
	{ NOTE_E2, 136 }, 
	{ NOTE_D3, 136 }, 
	{ NOTE_E3, 136 }, 
	{ NOTE_REST, 136 }, 
	{ NOTE_F3, 136 }, 
	{ NOTE_E3, 136 }, 
	{ NOTE_D3, 136 }, 
	{ NOTE_E3, 142 }, 
	{ NOTE_E2, 136 }, 
	{ NOTE_E2, 136 }, 
	{ NOTE_E2, 136 }, 
	{ NOTE_E2, 136 }, 
	{ NOTE_E2, 136 }, 
	{ NOTE_E2, 136 }, 
	{ NOTE_E2, 136 }, 
	{ NOTE_E2, 136 }, 
	{ NOTE_E2, 136 }, 
	{ NOTE_D3, 136 }, 
	{ NOTE_E3, 136 }, 
	{ NOTE_D3, 136 }, 
	{ NOTE_E3, 141 }, 
	{ NOTE_FS2, 136 }, 
	{ NOTE_FS2, 136 }, 
	{ NOTE_FS2, 136 }, 
	{ NOTE_FS2, 136 }, 
	{ NOTE_FS2, 136 }, 
	{ NOTE_FS2, 136 }, 
	{ NOTE_FS2, 136 }, 
	{ NOTE_FS2, 136 }, 
	{ NOTE_FS2, 136 }, 
	{ NOTE_E3, 136 }, 
	{ NOTE_FS3, 136 }, 
	{ NOTE_REST, 136 }, 
	{ NOTE_G3, 136 }, 
	{ NOTE_FS3, 136 }, 
	{ NOTE_E3, 136 }, 
	{ NOTE_FS3, 142 }, 
	{ NOTE_FS2, 136 }, 
	{ NOTE_FS2, 136 }, 
	{ NOTE_FS2, 136 }, 
	{ NOTE_FS2, 136 }, 
	{ NOTE_FS2, 136 }, 
	{ NOTE_FS2, 136 }, 
	{ NOTE_FS2, 136 }, 
	{ NOTE_FS2, 136 }, 
	{ NOTE_FS2, 136 }, 
	{ NOTE_E3, 136 }, 
	{ NOTE_FS3, 136 }, 
	{ NOTE_E3, 136 }, 
	{ NOTE_FS3, 141 }, 
	{ NOTE_B3, 136 }, 
	{ NOTE_B3, 136 }, 
	{ NOTE_B3, 136 }, 
	{ NOTE_B3, 136 }, 
	{ NOTE_B3, 136 }, 
	{ NOTE_B3, 136 }, 
	{ NOTE_B3, 136 }, 
	{ NOTE_B3, 139 }, 
	{ NOTE_E3, 273 }, 
	{ NOTE_E2, 136 }, 
	{ NOTE_E2, 136 }, 
	{ NOTE_A3, 273 }, 
	{ NOTE_B3, 273 }, 
	{ NOTE_REST, 136 }, 
	{ NOTE_E3, 136 }, 
	{ NOTE_FS3, 273 }, 
	{ NOTE_B3, 136 }, 
	{ NOTE_G3, 136 }, 
	{ NOTE_FS3, 136 }, 
	{ NOTE_G3, 136 }, 
	{ NOTE_C3, 136 }, 
	{ NOTE_C3, 136 }, 
	{ NOTE_C3, 136 }, 
	{ NOTE_C3, 136 }, 
	{ NOTE_G3, 273 }, 
	{ NOTE_FS3, 273 }, 
	{ NOTE_C3, 136 }, 
	{ NOTE_C3, 136 }, 
	{ NOTE_C3, 136 }, 
	{ NOTE_C3, 136 }, 
	{ NOTE_BB3, 273 }, 
	{ NOTE_FS3, 277 }, 
	{ NOTE_E3, 273 }, 
	{ NOTE_E2, 136 }, 
	{ NOTE_E2, 136 }, 
	{ NOTE_A3, 273 }, 
	{ NOTE_B3, 273 }, 
	{ NOTE_REST, 136 }, 
	{ NOTE_E3, 136 }, 
	{ NOTE_FS3, 273 }, 
	{ NOTE_B3, 136 }, 
	{ NOTE_G3, 136 }, 
	{ NOTE_FS3, 136 }, 
	{ NOTE_G3, 136 }, 
	{ NOTE_C3, 136 }, 
	{ NOTE_C3, 136 }, 
	{ NOTE_C3, 136 }, 
	{ NOTE_C3, 136 }, 
	{ NOTE_G3, 273 }, 
	{ NOTE_FS3, 276 }, 
	{ NOTE_B3, 136 }, 
	{ NOTE_A3, 136 }, 
	{ NOTE_GS3, 136 }, 
	{ NOTE_REST, 137 }, 
	{ NOTE_GS3, 136 }, 
	{ NOTE_F3, 136 }, 
	{ NOTE_E3, 136 }, 
	{ NOTE_REST, 137 }, 
	{ NOTE_B2, 273 }, 
	{ NOTE_B2, 273 }, 
	{ NOTE_REST, 545 }, 
	{ NOTE_C3, 273 }, 
	{ NOTE_C3, 273 }, 
	{ NOTE_REST, 545 }, 
	{ NOTE_B2, 681 }, 
	{ NOTE_E2, 136 }, 
	{ NOTE_E2, 136 }, 
	{ NOTE_E2, 136 }, 
	{ NOTE_CS3, 136 }, 
	{ NOTE_E2, 136 }, 
	{ NOTE_E2, 136 }, 
	{ NOTE_E2, 136 }, 
	{ NOTE_D3, 2185 }, 
	{ NOTE_G3, 682 }, 
	{ NOTE_A2, 136 }, 
	{ NOTE_A2, 136 }, 
	{ NOTE_A2, 136 }, 
	{ NOTE_FS3, 136 }, 
	{ NOTE_A2, 136 }, 
	{ NOTE_A2, 136 }, 
	{ NOTE_A2, 136 }, 
	{ NOTE_E3, 2185 }, 
	{ NOTE_A3, 681 }, 
	{ NOTE_A2, 136 }, 
	{ NOTE_A2, 136 }, 
	{ NOTE_A2, 138 }, 
	{ NOTE_G3, 136 }, 
	{ NOTE_A2, 136 }, 
	{ NOTE_A2, 136 }, 
	{ NOTE_A2, 136 }, 
	{ NOTE_FS3, 1091 }, 
	{ NOTE_B2, 683 }, 
	{ NOTE_E2, 136 }, 
	{ NOTE_E2, 136 }, 
	{ NOTE_E2, 136 }, 
	{ NOTE_D3, 136 }, 
	{ NOTE_E2, 136 }, 
	{ NOTE_E2, 136 }, 
	{ NOTE_E2, 136 }, 
	{ NOTE_G3, 2185 }, 
	{ NOTE_B2, 273 }, 
	{ NOTE_B2, 273 }, 
	{ NOTE_REST, 545 }, 
	{ NOTE_C3, 273 }, 
	{ NOTE_C3, 273 }, 
	{ NOTE_REST, 545 }, 
	{ NOTE_B2, 681 }, 
	{ NOTE_E2, 136 }, 
	{ NOTE_E2, 136 }, 
	{ NOTE_E2, 136 }, 
	{ NOTE_D3, 136 }, 
	{ NOTE_E2, 136 }, 
	{ NOTE_E2, 136 }, 
	{ NOTE_E2, 136 }, 
	{ NOTE_G3, 2185 }, 
	{ NOTE_B2, 273 }, 
	{ NOTE_B2, 273 }, 
	{ NOTE_REST, 545 }, 
	{ NOTE_C3, 273 }, 
	{ NOTE_C3, 9546 }, 
	{ NOTE_REST, 4615 }, 
	{ NOTE_REST, 4615 }, 
	{ NOTE_REST, 4615 }, 
	{ NOTE_REST, 4615 }, 
	{ NOTE_REST, 4615 }, 
	{ NOTE_REST, 4615 }, 
	{ NOTE_REST, 4615 }, 
	{ NOTE_REST, 4615 }, 
	{ NOTE_REST, 4615 }, 
	{ NOTE_REST, 4615 }, 
	{ NOTE_REST, 4615 }, 
	{ NOTE_REST, 4615 }, 
	{ NOTE_REST, 4615 }, 
	{ NOTE_REST, 4615 }, 
	{ NOTE_REST, 4615 }, 
	{ NOTE_REST, 4615 }, 
	{ NOTE_B2, 1154 }, 
	{ NOTE_A3, 2308 }, 
	{ NOTE_G3, 2307 }, 
	{ NOTE_E3, 1154 }, 
	{ NOTE_FS3, 1154 }, 
	{ NOTE_BB3, 1153 }, 
	{ NOTE_B2, 288 }, 
	{ NOTE_B2, 288 }, 
	{ NOTE_B2, 288 }, 
	{ NOTE_B2, 288 }, 
	{ NOTE_B2, 288 }, 
	{ NOTE_B2, 288 }, 
	{ NOTE_B2, 288 }, 
	{ NOTE_B2, 288 }, 
	{ NOTE_B2, 288 }, 
	{ NOTE_B2, 288 }, 
	{ NOTE_B2, 288 }, 
	{ NOTE_B2, 288 }, 
	{ NOTE_B2, 288 }, 
	{ NOTE_B2, 288 }, 
	{ NOTE_B2, 288 }, 
	{ NOTE_B2, 295 }, 
	{ NOTE_CS3, 288 }, 
	{ NOTE_CS3, 288 }, 
	{ NOTE_D3, 288 }, 
	{ NOTE_CS3, 288 }, 
	{ NOTE_CS3, 288 }, 
	{ NOTE_CS3, 288 }, 
	{ NOTE_D3, 288 }, 
	{ NOTE_GS3, 144 }, 
	{ NOTE_GS3, 144 }, 
	{ NOTE_CS3, 288 }, 
	{ NOTE_CS3, 288 }, 
	{ NOTE_D3, 288 }, 
	{ NOTE_CS3, 288 }, 
	{ NOTE_CS3, 288 }, 
	{ NOTE_CS3, 288 }, 
	{ NOTE_D3, 288 }, 
	{ NOTE_GS3, 295 }, 
	{ NOTE_CS3, 288 }, 
	{ NOTE_CS3, 288 }, 
	{ NOTE_D3, 288 }, 
	{ NOTE_CS3, 288 }, 
	{ NOTE_CS3, 288 }, 
	{ NOTE_CS3, 288 }, 
	{ NOTE_D3, 288 }, 
	{ NOTE_GS3, 144 }, 
	{ NOTE_GS3, 144 }, 
	{ NOTE_CS3, 288 }, 
	{ NOTE_CS3, 288 }, 
	{ NOTE_D3, 288 }, 
	{ NOTE_CS3, 288 }, 
	{ NOTE_CS3, 288 }, 
	{ NOTE_CS3, 288 }, 
	{ NOTE_D3, 288 }, 
	{ NOTE_GS3, 295 }, 
	{ NOTE_D3, 2182 }, 
	{ NOTE_CS3, 1635 }, 
	{ NOTE_REST, 547 }, 
	{ NOTE_A5, 91 }, 
	{ NOTE_E5, 91 }, 
	{ NOTE_C5, 91 }, 
	{ NOTE_B4, 91 }, 
	{ NOTE_C5, 91 }, 
	{ NOTE_E5, 91 }, 
	{ NOTE_A5, 91 }, 
	{ NOTE_E5, 91 }, 
	{ NOTE_C5, 91 }, 
	{ NOTE_B4, 91 }, 
	{ NOTE_C5, 91 }, 
	{ NOTE_E5, 91 }, 
	{ NOTE_A5, 91 }, 
	{ NOTE_E5, 91 }, 
	{ NOTE_C5, 91 }, 
	{ NOTE_B4, 91 }, 
	{ NOTE_C5, 91 }, 
	{ NOTE_E5, 91 }, 
	{ NOTE_G5, 91 }, 
	{ NOTE_E5, 91 }, 
	{ NOTE_C5, 91 }, 
	{ NOTE_B4, 91 }, 
	{ NOTE_C5, 91 }, 
	{ NOTE_E5, 89 }, 
	{ NOTE_A5, 91 }, 
	{ NOTE_E5, 91 }, 
	{ NOTE_C5, 91 }, 
	{ NOTE_C5, 91 }, 
	{ NOTE_B4, 91 }, 
	{ NOTE_E5, 91 }, 
	{ NOTE_A5, 91 }, 
	{ NOTE_E5, 91 }, 
	{ NOTE_C5, 91 }, 
	{ NOTE_B4, 91 }, 
	{ NOTE_C5, 91 }, 
	{ NOTE_E5, 91 }, 
	{ NOTE_A5, 91 }, 
	{ NOTE_E5, 91 }, 
	{ NOTE_C5, 91 }, 
	{ NOTE_B4, 68 }, 
	{ NOTE_E5, 68 }, 
	{ NOTE_E5, 68 }, 
	{ NOTE_G5, 68 }, 
	{ NOTE_E5, 68 }, 
	{ NOTE_C5, 68 }, 
	{ NOTE_E5, 91 }, 
	{ NOTE_B5, 91 }, 
	{ NOTE_B5, 91 }, 
	{ NOTE_A5, 68 }, 
	{ NOTE_A5, 68 }, 
	{ NOTE_A5, 68 }, 
	{ NOTE_A5, 68 }, 
	{ NOTE_G5, 91 }, 
	{ NOTE_G5, 91 }, 
	{ NOTE_G5, 91 }, 
	{ NOTE_FS5, 68 }, 
	{ NOTE_FS5, 68 }, 
	{ NOTE_FS5, 68 }, 
	{ NOTE_FS5, 68 }, 
	{ NOTE_A5, 91 }, 
	{ NOTE_A5, 91 }, 
	{ NOTE_A5, 91 }, 
	{ NOTE_G5, 68 }, 
	{ NOTE_G5, 68 }, 
	{ NOTE_G5, 68 }, 
	{ NOTE_FS5, 68 }, 
	{ NOTE_FS5, 68 }, 
	{ NOTE_FS5, 68 }, 
	{ NOTE_FS5, 68 }, 
	{ NOTE_FS5, 68 }, 
	{ NOTE_D5, 136 }, 
	{ NOTE_D5, 68 }, 
	{ NOTE_E5, 71 }, 
	{ NOTE_A5, 273 }, 
	{ NOTE_A5, 136 }, 
	{ NOTE_A5, 136 }, 
	{ NOTE_E5, 91 }, 
	{ NOTE_D5, 91 }, 
	{ NOTE_CS5, 91 }, 
	{ NOTE_A5, 68 }, 
	{ NOTE_B5, 136 }, 
	{ NOTE_E5, 68 }, 
	{ NOTE_D5, 91 }, 
	{ NOTE_CS5, 91 }, 
	{ NOTE_B4, 91 }, 
	{ NOTE_A4, 273 }, 
	{ NOTE_REST, 137 }, 
	{ NOTE_E6, 545 }, 
	{ NOTE_E6, 136 }, 
	{ NOTE_E6, 136 }, 
	{ NOTE_E6, 682 }, 
	{ NOTE_E6, 205 }, 
	{ NOTE_E6, 205 }, 
	{ NOTE_E6, 91 }, 
	{ NOTE_A3, 91 }, 
	{ NOTE_B3, 91 }, 
	{ NOTE_A3, 136 }, 
	{ NOTE_B3, 136 }, 
	{ NOTE_BB3, 136 }, 
	{ NOTE_A3, 136 }, 
	{ NOTE_A3, 136 }, 
	{ NOTE_FS3, 136 }, 
	{ NOTE_E3, 136 }, 
	{ NOTE_B2, 136 }, 
	{ NOTE_B2, 136 }, 
	{ NOTE_CS3, 549 }, 
	{ NOTE_D5, 136 }, 
	{ NOTE_C5, 136 }, 
	{ NOTE_B4, 136 }, 
	{ NOTE_A4, 136 }, 
	{ NOTE_C5, 136 }, 
	{ NOTE_B4, 136 }, 
	{ NOTE_A4, 136 }, 
	{ NOTE_G4, 136 }, 
	{ NOTE_FS4, 136 }, 
	{ NOTE_G4, 136 }, 
	{ NOTE_A4, 136 }, 
	{ NOTE_B4, 272 }, 
	{ NOTE_B4, 68 }, 
	{ NOTE_B4, 68 }, 
	{ NOTE_B4, 91 }, 
	{ NOTE_B4, 91 }, 
	{ NOTE_B4, 96 }, 
	{ NOTE_B4, 68 }, 
	{ NOTE_D5, 68 }, 
	{ NOTE_C5, 68 }, 
	{ NOTE_B4, 68 }, 
	{ NOTE_D5, 68 }, 
	{ NOTE_C5, 68 }, 
	{ NOTE_B4, 68 }, 
	{ NOTE_C5, 68 }, 
	{ NOTE_E5, 68 }, 
	{ NOTE_D5, 68 }, 
	{ NOTE_D5, 68 }, 
	{ NOTE_C5, 68 }, 
	{ NOTE_E5, 68 }, 
	{ NOTE_D5, 68 }, 
	{ NOTE_D5, 68 }, 
	{ NOTE_D5, 68 }, 
	{ NOTE_FS5, 68 }, 
	{ NOTE_E5, 68 }, 
	{ NOTE_D5, 68 }, 
	{ NOTE_FS5, 68 }, 
	{ NOTE_D5, 68 }, 
	{ NOTE_E5, 68 }, 
	{ NOTE_G5, 68 }, 
	{ NOTE_G5, 68 }, 
	{ NOTE_E5, 68 }, 
	{ NOTE_FS5, 73 }, 
	{ NOTE_A5, 68 }, 
	{ NOTE_G5, 68 }, 
	{ NOTE_FS5, 68 }, 
	{ NOTE_B5, 68 }, 
	{ NOTE_A5, 91 }, 
	{ NOTE_FS5, 91 }, 
	{ NOTE_FS5, 91 }, 
	{ NOTE_A5, 68 }, 
	{ NOTE_GS5, 68 }, 
	{ NOTE_FS5, 68 }, 
	{ NOTE_FS5, 68 }, 
	{ NOTE_B5, 68 }, 
	{ NOTE_A5, 68 }, 
	{ NOTE_FS5, 68 }, 
	{ NOTE_FS5, 68 }, 
	{ NOTE_A5, 68 }, 
	{ NOTE_GS5, 68 }, 
	{ NOTE_FS5, 68 }, 
	{ NOTE_FS5, 68 }, 
	{ NOTE_B5, 68 }, 
	{ NOTE_A5, 68 }, 
	{ NOTE_FS5, 68 }, 
	{ NOTE_FS5, 68 }, 
	{ NOTE_A5, 68 }, 
	{ NOTE_GS5, 68 }, 
	{ NOTE_FS5, 68 }, 
	{ NOTE_FS5, 68 }, 
	{ NOTE_B5, 68 }, 
	{ NOTE_A5, 68 }, 
	{ NOTE_FS5, 68 }, 
	{ NOTE_FS5, 73 }, 
	{ NOTE_FS5, 136 }, 
	{ NOTE_FS5, 136 }, 
	{ NOTE_E5, 136 }, 
	{ NOTE_FS5, 136 }, 
	{ NOTE_E5, 272 }, 
	{ NOTE_E5, 136 }, 
	{ NOTE_FS5, 136 }, 
	{ NOTE_B5, 91 }, 
	{ NOTE_FS5, 91 }, 
	{ NOTE_E5, 91 }, 
	{ NOTE_B5, 136 }, 
	{ NOTE_FS5, 276 }, 
	{ NOTE_E5, 136 }, 
	{ NOTE_FS5, 136 }, 
	{ NOTE_E5, 136 }, 
	{ NOTE_FS5, 136 }, 
	{ NOTE_E5, 136 }, 
	{ NOTE_FS5, 45 }, 
	{ NOTE_FS5, 45 }, 
	{ NOTE_FS5, 45 }, 
	{ NOTE_E5, 136 }, 
	{ NOTE_FS5, 68 }, 
	{ NOTE_FS5, 68 }, 
	{ NOTE_F5, 136 }, 
	{ NOTE_G5, 136 }, 
	{ NOTE_F5, 136 }, 
	{ NOTE_G5, 136 }, 
	{ NOTE_F5, 136 }, 
	{ NOTE_G5, 136 }, 
	{ NOTE_F5, 136 }, 
	{ NOTE_G5, 143 }, 
	{ NOTE_G5, 136 }, 
	{ NOTE_A5, 136 }, 
	{ NOTE_G5, 136 }, 
	{ NOTE_A5, 136 }, 
	{ NOTE_G5, 136 }, 
	{ NOTE_A5, 136 }, 
	{ NOTE_G5, 136 }, 
	{ NOTE_A5, 136 }, 
	{ NOTE_A5, 136 }, 
	{ NOTE_B5, 136 }, 
	{ NOTE_A5, 136 }, 
	{ NOTE_B5, 136 }, 
	{ NOTE_D6, 1232 }, 
	{ NOTE_E2, 136 }, 
	{ NOTE_E2, 136 }, 
	{ NOTE_C3, 136 }, 
	{ NOTE_E2, 136 }, 
	{ NOTE_E2, 136 }, 
	{ NOTE_C3, 136 }, 
	{ NOTE_E2, 136 }, 
	{ NOTE_E2, 136 }, 
	{ NOTE_C3, 136 }, 
	{ NOTE_E2, 136 }, 
	{ NOTE_E2, 136 }, 
	{ NOTE_C3, 136 }, 
	{ NOTE_E2, 136 }, 
	{ NOTE_E2, 136 }, 
	{ NOTE_FS3, 136 }, 
	{ NOTE_FS3, 142 }, 
	{ NOTE_E2, 136 }, 
	{ NOTE_E2, 136 }, 
	{ NOTE_C3, 136 }, 
	{ NOTE_E2, 136 }, 
	{ NOTE_E2, 136 }, 
	{ NOTE_C3, 136 }, 
	{ NOTE_E2, 136 }, 
	{ NOTE_E2, 136 }, 
	{ NOTE_C3, 136 }, 
	{ NOTE_E2, 136 }, 
	{ NOTE_E2, 136 }, 
	{ NOTE_C3, 136 }, 
	{ NOTE_E2, 136 }, 
	{ NOTE_E2, 136 }, 
	{ NOTE_FS3, 278 }, 
	{ NOTE_E2, 136 }, 
	{ NOTE_E2, 136 }, 
	{ NOTE_C3, 136 }, 
	{ NOTE_E2, 136 }, 
	{ NOTE_E2, 136 }, 
	{ NOTE_C3, 136 }, 
	{ NOTE_E2, 136 }, 
	{ NOTE_E2, 136 }, 
	{ NOTE_C3, 136 }, 
	{ NOTE_E2, 136 }, 
	{ NOTE_E2, 136 }, 
	{ NOTE_C3, 136 }, 
	{ NOTE_E2, 136 }, 
	{ NOTE_E2, 136 }, 
	{ NOTE_FS3, 136 }, 
	{ NOTE_FS3, 142 }, 
	{ NOTE_E2, 136 }, 
	{ NOTE_E2, 136 }, 
	{ NOTE_C3, 136 }, 
	{ NOTE_E2, 136 }, 
	{ NOTE_E2, 136 }, 
	{ NOTE_C3, 136 }, 
	{ NOTE_E2, 136 }, 
	{ NOTE_E2, 136 }, 
	{ NOTE_C3, 136 }, 
	{ NOTE_E2, 136 }, 
	{ NOTE_E2, 136 }, 
	{ NOTE_C3, 136 }, 
	{ NOTE_E2, 136 }, 
	{ NOTE_E2, 136 }, 
	{ NOTE_FS3, 278 }, 
	{ NOTE_B2, 136 }, 
	{ NOTE_B2, 136 }, 
	{ NOTE_B2, 136 }, 
	{ NOTE_B2, 136 }, 
	{ NOTE_B2, 136 }, 
	{ NOTE_B2, 136 }, 
	{ NOTE_B2, 136 }, 
	{ NOTE_B2, 139 }, 
	{ NOTE_E2, 68 }, 
	{ NOTE_E2, 68 }, 
	{ NOTE_FS2, 136 }, 
	{ NOTE_G2, 136 }, 
	{ NOTE_A2, 136 }, 
	{ NOTE_B2, 136 }, 
	{ NOTE_C3, 136 }, 
	{ NOTE_D3, 136 }, 
	{ NOTE_E3, 136 }, 
	{ NOTE_FS3, 136 }, 
	{ NOTE_G3, 136 }, 
	{ NOTE_C3, 681 }, 
	{ NOTE_C3, 68 }, 
	{ NOTE_C3, 73 }, 
	{ NOTE_C3, 136 }, 
	{ NOTE_B2, 136 }, 
	{ NOTE_C3, 136 }, 
	{ NOTE_D3, 136 }, 
	{ NOTE_C3, 136 }, 
	{ NOTE_B2, 136 }, 
	{ NOTE_G2, 136 }, 
	{ NOTE_FS2, 136 }, 
	{ NOTE_E2, 136 }, 
	{ NOTE_E2, 136 }, 
	{ NOTE_E2, 136 }, 
	{ NOTE_E2, 136 }, 
	{ NOTE_E2, 136 }, 
	{ NOTE_E2, 136 }, 
	{ NOTE_E2, 136 }, 
	{ NOTE_E2, 142 }, 
	{ NOTE_E2, 68 }, 
	{ NOTE_E2, 68 }, 
	{ NOTE_FS2, 136 }, 
	{ NOTE_G2, 136 }, 
	{ NOTE_A2, 136 }, 
	{ NOTE_B2, 136 }, 
	{ NOTE_C3, 136 }, 
	{ NOTE_D3, 136 }, 
	{ NOTE_E3, 136 }, 
	{ NOTE_FS3, 136 }, 
	{ NOTE_G3, 136 }, 
	{ NOTE_C3, 681 }, 
	{ NOTE_C3, 68 }, 
	{ NOTE_C3, 73 }, 
	{ NOTE_C3, 136 }, 
	{ NOTE_B2, 136 }, 
	{ NOTE_C3, 136 }, 
	{ NOTE_D3, 136 }, 
	{ NOTE_C3, 136 }, 
	{ NOTE_B2, 136 }, 
	{ NOTE_G2, 136 }, 
	{ NOTE_FS2, 136 }, 
	{ NOTE_E2, 136 }, 
	{ NOTE_E2, 136 }, 
	{ NOTE_E2, 136 }, 
	{ NOTE_E2, 136 }, 
	{ NOTE_E2, 136 }, 
	{ NOTE_E2, 136 }, 
	{ NOTE_E2, 136 }, 
	{ NOTE_E2, 142 }, 
	{ NOTE_E2, 68 }, 
	{ NOTE_E2, 68 }, 
	{ NOTE_FS2, 136 }, 
	{ NOTE_B2, 136 }, 
	{ NOTE_CS3, 136 }, 
	{ NOTE_D3, 136 }, 
	{ NOTE_E3, 136 }, 
	{ NOTE_FS3, 136 }, 
	{ NOTE_A3, 136 }, 
	{ NOTE_B3, 136 }, 
	{ NOTE_C4, 136 }, 
	{ NOTE_E3, 681 }, 
	{ NOTE_E3, 68 }, 
	{ NOTE_E3, 73 }, 
	{ NOTE_E3, 136 }, 
	{ NOTE_D3, 136 }, 
	{ NOTE_E3, 136 }, 
	{ NOTE_FS3, 136 }, 
	{ NOTE_E3, 136 }, 
	{ NOTE_D3, 136 }, 
	{ NOTE_C3, 136 }, 
	{ NOTE_B2, 136 }, 
	{ NOTE_E2, 136 }, 
	{ NOTE_E2, 136 }, 
	{ NOTE_E2, 136 }, 
	{ NOTE_E2, 136 }, 
	{ NOTE_E2, 136 }, 
	{ NOTE_E2, 136 }, 
	{ NOTE_E2, 136 }, 
	{ NOTE_E2, 142 }, 
	{ NOTE_E2, 68 }, 
	{ NOTE_E2, 68 }, 
	{ NOTE_FS2, 136 }, 
	{ NOTE_B2, 136 }, 
	{ NOTE_CS3, 136 }, 
	{ NOTE_D3, 136 }, 
	{ NOTE_E3, 136 }, 
	{ NOTE_FS3, 136 }, 
	{ NOTE_A3, 136 }, 
	{ NOTE_B3, 136 }, 
	{ NOTE_G3, 818 }, 
	{ NOTE_E3, 68 }, 
	{ NOTE_E3, 72 }, 
	{ NOTE_E3, 136 }, 
	{ NOTE_D3, 136 }, 
	{ NOTE_E3, 136 }, 
	{ NOTE_FS3, 136 }, 
	{ NOTE_E3, 136 }, 
	{ NOTE_D3, 136 }, 
	{ NOTE_C3, 136 }, 
	{ NOTE_B2, 136 }, 
	{ NOTE_B2, 954 }, 
	{ NOTE_D3, 68 }, 
	{ NOTE_D3, 72 }, 
	{ NOTE_G3, 136 }, 
	{ NOTE_FS3, 136 }, 
	{ NOTE_G3, 136 }, 
	{ NOTE_A3, 136 }, 
	{ NOTE_G3, 136 }, 
	{ NOTE_FS3, 136 }, 
	{ NOTE_E3, 136 }, 
	{ NOTE_FS3, 139 }, 
	{ NOTE_REST, 2182 }, 
	{ NOTE_REST, 1091 }, 
	{ NOTE_D3, 136 }, 
	{ NOTE_CS3, 136 }, 
	{ NOTE_B2, 136 }, 
	{ NOTE_D3, 136 }, 
	{ NOTE_CS3, 136 }, 
	{ NOTE_B2, 136 }, 
	{ NOTE_D3, 136 }, 
	{ NOTE_CS3, 139 }, 
	{ NOTE_D3, 136 }, 
	{ NOTE_CS3, 136 }, 
	{ NOTE_B2, 136 }, 
	{ NOTE_D3, 136 }, 
	{ NOTE_CS3, 136 }, 
	{ NOTE_B2, 136 }, 
	{ NOTE_D3, 136 }, 
	{ NOTE_CS3, 139 }, 
	{ NOTE_E2, 136 }, 
	{ NOTE_E2, 136 }, 
	{ NOTE_E2, 136 }, 
	{ NOTE_E2, 136 }, 
	{ NOTE_E2, 136 }, 
	{ NOTE_E2, 136 }, 
	{ NOTE_E2, 136 }, 
	{ NOTE_E2, 136 }, 
	{ NOTE_E2, 136 }, 
	{ NOTE_D3, 136 }, 
	{ NOTE_E3, 136 }, 
	{ NOTE_REST, 136 }, 
	{ NOTE_F3, 136 }, 
	{ NOTE_E3, 136 }, 
	{ NOTE_D3, 136 }, 
	{ NOTE_E3, 142 }, 
	{ NOTE_E2, 136 }, 
	{ NOTE_E2, 136 }, 
	{ NOTE_E2, 136 }, 
	{ NOTE_E2, 136 }, 
	{ NOTE_E2, 136 }, 
	{ NOTE_E2, 136 }, 
	{ NOTE_E2, 136 }, 
	{ NOTE_E2, 136 }, 
	{ NOTE_E2, 136 }, 
	{ NOTE_D3, 136 }, 
	{ NOTE_E3, 136 }, 
	{ NOTE_D3, 136 }, 
	{ NOTE_E3, 141 }, 
	{ NOTE_E2, 136 }, 
	{ NOTE_E2, 136 }, 
	{ NOTE_E2, 136 }, 
	{ NOTE_E2, 136 }, 
	{ NOTE_E2, 136 }, 
	{ NOTE_E2, 136 }, 
	{ NOTE_E2, 136 }, 
	{ NOTE_E2, 136 }, 
	{ NOTE_E2, 136 }, 
	{ NOTE_D3, 136 }, 
	{ NOTE_E3, 136 }, 
	{ NOTE_REST, 136 }, 
	{ NOTE_F3, 136 }, 
	{ NOTE_E3, 136 }, 
	{ NOTE_D3, 136 }, 
	{ NOTE_E3, 142 }, 
	{ NOTE_E2, 136 }, 
	{ NOTE_E2, 136 }, 
	{ NOTE_E2, 136 }, 
	{ NOTE_E2, 136 }, 
	{ NOTE_E2, 136 }, 
	{ NOTE_E2, 136 }, 
	{ NOTE_E2, 136 }, 
	{ NOTE_E2, 136 }, 
	{ NOTE_E2, 136 }, 
	{ NOTE_D3, 136 }, 
	{ NOTE_E3, 136 }, 
	{ NOTE_D3, 136 }, 
	{ NOTE_E3, 141 }, 
	{ NOTE_E2, 136 }, 
	{ NOTE_E2, 136 }, 
	{ NOTE_E2, 136 }, 
	{ NOTE_E2, 136 }, 
	{ NOTE_E2, 136 }, 
	{ NOTE_E2, 136 }, 
	{ NOTE_E2, 136 }, 
	{ NOTE_E2, 136 }, 
	{ NOTE_E2, 136 }, 
	{ NOTE_D3, 136 }, 
	{ NOTE_E3, 136 }, 
	{ NOTE_REST, 136 }, 
	{ NOTE_F3, 136 }, 
	{ NOTE_E3, 136 }, 
	{ NOTE_D3, 136 }, 
	{ NOTE_E3, 142 }, 
	{ NOTE_E2, 136 }, 
	{ NOTE_E2, 136 }, 
	{ NOTE_E2, 136 }, 
	{ NOTE_E2, 136 }, 
	{ NOTE_E2, 136 }, 
	{ NOTE_E2, 136 }, 
	{ NOTE_E2, 136 }, 
	{ NOTE_E2, 136 }, 
	{ NOTE_E2, 136 }, 
	{ NOTE_D3, 136 }, 
	{ NOTE_E3, 136 }, 
	{ NOTE_D3, 136 }, 
	{ NOTE_E3, 141 }, 
	{ NOTE_FS2, 136 }, 
	{ NOTE_FS2, 136 }, 
	{ NOTE_FS2, 136 }, 
	{ NOTE_FS2, 136 }, 
	{ NOTE_FS2, 136 }, 
	{ NOTE_FS2, 136 }, 
	{ NOTE_FS2, 136 }, 
	{ NOTE_FS2, 136 }, 
	{ NOTE_FS2, 136 }, 
	{ NOTE_E3, 136 }, 
	{ NOTE_FS3, 136 }, 
	{ NOTE_REST, 136 }, 
	{ NOTE_G3, 136 }, 
	{ NOTE_FS3, 136 }, 
	{ NOTE_E3, 136 }, 
	{ NOTE_FS3, 142 }, 
	{ NOTE_FS2, 136 }, 
	{ NOTE_FS2, 136 }, 
	{ NOTE_FS2, 136 }, 
	{ NOTE_FS2, 136 }, 
	{ NOTE_FS2, 136 }, 
	{ NOTE_FS2, 136 }, 
	{ NOTE_FS2, 136 }, 
	{ NOTE_FS2, 136 }, 
	{ NOTE_FS2, 136 }, 
	{ NOTE_E3, 136 }, 
	{ NOTE_FS3, 136 }, 
	{ NOTE_E3, 136 }, 
	{ NOTE_FS3, 141 }, 
	{ NOTE_B3, 136 }, 
	{ NOTE_B3, 136 }, 
	{ NOTE_B3, 136 }, 
	{ NOTE_B3, 136 }, 
	{ NOTE_B3, 136 }, 
	{ NOTE_B3, 136 }, 
	{ NOTE_B3, 136 }, 
	{ NOTE_B3, 139 }, 
	{ NOTE_E3, 273 }, 
	{ NOTE_E2, 136 }, 
	{ NOTE_E2, 136 }, 
	{ NOTE_A3, 273 }, 
	{ NOTE_B3, 273 }, 
	{ NOTE_REST, 136 }, 
	{ NOTE_E3, 136 }, 
	{ NOTE_FS3, 273 }, 
	{ NOTE_B3, 136 }, 
	{ NOTE_G3, 136 }, 
	{ NOTE_FS3, 136 }, 
	{ NOTE_G3, 136 }, 
	{ NOTE_C3, 136 }, 
	{ NOTE_C3, 136 }, 
	{ NOTE_C3, 136 }, 
	{ NOTE_C3, 136 }, 
	{ NOTE_G3, 273 }, 
	{ NOTE_FS3, 273 }, 
	{ NOTE_C3, 136 }, 
	{ NOTE_C3, 136 }, 
	{ NOTE_C3, 136 }, 
	{ NOTE_C3, 136 }, 
	{ NOTE_BB3, 273 }, 
	{ NOTE_FS3, 277 }, 
	{ NOTE_E3, 273 }, 
	{ NOTE_E2, 136 }, 
	{ NOTE_E2, 136 }, 
	{ NOTE_A3, 273 }, 
	{ NOTE_B3, 273 }, 
	{ NOTE_REST, 136 }, 
	{ NOTE_E3, 136 }, 
	{ NOTE_FS3, 273 }, 
	{ NOTE_B3, 136 }, 
	{ NOTE_G3, 136 }, 
	{ NOTE_FS3, 136 }, 
	{ NOTE_G3, 136 }, 
	{ NOTE_C3, 136 }, 
	{ NOTE_C3, 136 }, 
	{ NOTE_C3, 136 }, 
	{ NOTE_C3, 136 }, 
	{ NOTE_G3, 273 }, 
	{ NOTE_FS3, 276 }, 
	{ NOTE_B3, 136 }, 
	{ NOTE_A3, 136 }, 
	{ NOTE_GS3, 136 }, 
	{ NOTE_REST, 137 }, 
	{ NOTE_GS3, 136 }, 
	{ NOTE_F3, 136 }, 
	{ NOTE_E3, 136 }, 
	{ NOTE_REST, 137 }, 
	{ NOTE_B2, 273 }, 
	{ NOTE_B2, 273 }, 
	{ NOTE_REST, 545 }, 
	{ NOTE_C3, 273 }, 
	{ NOTE_C3, 273 }, 
	{ NOTE_REST, 545 }, 
	{ NOTE_B2, 681 }, 
	{ NOTE_E2, 136 }, 
	{ NOTE_E2, 136 }, 
	{ NOTE_E2, 136 }, 
	{ NOTE_CS3, 136 }, 
	{ NOTE_E2, 136 }, 
	{ NOTE_E2, 136 }, 
	{ NOTE_E2, 136 }, 
	{ NOTE_D3, 2185 }, 
	{ NOTE_G3, 682 }, 
	{ NOTE_A2, 136 }, 
	{ NOTE_A2, 136 }, 
	{ NOTE_A2, 136 }, 
	{ NOTE_FS3, 136 }, 
	{ NOTE_A2, 136 }, 
	{ NOTE_A2, 136 }, 
	{ NOTE_A2, 136 }, 
	{ NOTE_E3, 2185 }, 
	{ NOTE_A3, 681 }, 
	{ NOTE_A2, 136 }, 
	{ NOTE_A2, 136 }, 
	{ NOTE_A2, 138 }, 
	{ NOTE_G3, 136 }, 
	{ NOTE_A2, 136 }, 
	{ NOTE_A2, 136 }, 
	{ NOTE_A2, 136 }, 
	{ NOTE_FS3, 1091 }, 
	{ NOTE_B2, 683 }, 
	{ NOTE_E2, 136 }, 
	{ NOTE_E2, 136 }, 
	{ NOTE_E2, 136 }, 
	{ NOTE_D3, 136 }, 
	{ NOTE_E2, 136 }, 
	{ NOTE_E2, 136 }, 
	{ NOTE_E2, 136 }, 
	{ NOTE_G3, 2185 }, 
	{ NOTE_B2, 273 }, 
	{ NOTE_B2, 273 }, 
	{ NOTE_REST, 545 }, 
	{ NOTE_C3, 273 }, 
	{ NOTE_C3, 273 }, 
	{ NOTE_REST, 545 }, 
	{ NOTE_B2, 681 }, 
	{ NOTE_E2, 136 }, 
	{ NOTE_E2, 136 }, 
	{ NOTE_E2, 136 }, 
	{ NOTE_D3, 136 }, 
	{ NOTE_E2, 136 }, 
	{ NOTE_E2, 136 }, 
	{ NOTE_E2, 136 }, 
	{ NOTE_G3, 2185 }, 
	{ NOTE_B2, 273 }, 
	{ NOTE_B2, 273 }, 
	{ NOTE_REST, 545 }, 
	{ NOTE_C3, 273 }, 
	{ NOTE_C3, 273 }, 
	{ NOTE_REST, 545 }, 
	{ NOTE_E5, 1090 }, 
	{ NOTE_B4, 1092 }, 
	{ NOTE_G4, 545 }, 
	{ NOTE_FS4, 545 }, 
	{ NOTE_A4, 683 }, 
	{ NOTE_B5, 545 }, 
	{ NOTE_G5, 545 }, 
	{ NOTE_E5, 1092 }, 
	{ NOTE_G5, 545 }, 
	{ NOTE_FS5, 545 }, 
	{ NOTE_D5, 683 }, 
	{ NOTE_EB5, 545 }, 
	{ NOTE_E5, 545 }, 
	{ NOTE_CS4, 545 }, 
	{ NOTE_C4, 273 }, 
	{ NOTE_B3, 274 }, 
	{ NOTE_FS4, 545 }, 
	{ NOTE_G4, 545 }, 
	{ NOTE_E4, 683 }, 
	{ NOTE_B4, 545 }, 
	{ NOTE_C5, 1637 }, 
	{ NOTE_E5, 1090 }, 
	{ NOTE_B5, 579 }, 
	{ NOTE_B5, 34 }, 
	{ NOTE_B5, 70 }, 
	{ NOTE_REST, 1091 }, 
	{ NOTE_D3, 136 }, 
	{ NOTE_CS3, 136 }, 
	{ NOTE_B2, 136 }, 
	{ NOTE_D3, 136 }, 
	{ NOTE_CS3, 136 }, 
	{ NOTE_B2, 136 }, 
	{ NOTE_D3, 136 }, 
	{ NOTE_CS3, 139 }, 
	{ NOTE_B2, 4909 }, 
	{ NOTE_G4, 545 }, 
	{ NOTE_FS4, 545 }, 
	{ NOTE_B3, 547 }, 
	{ NOTE_B4, 273 }, 
	{ NOTE_CS5, 273 }, 
	{ NOTE_D5, 273 }, 
	{ NOTE_A4, 273 }, 
	{ NOTE_REST, 273 }, 
	{ NOTE_A4, 273 }, 
	{ NOTE_REST, 273 }, 
	{ NOTE_A4, 271 }, 
	{ NOTE_REST, 2182 }, 
};
const uint16_t NUM_OF_NOTES2 = sizeof(melody2)/sizeof(melody2[0]);

const Note melody3[] PROGMEM = {
	{ NOTE_E3, 273 }, 
	{ NOTE_REST, 818 }, 
	{ NOTE_D3, 273 }, 
	{ NOTE_CS3, 273 }, 
	{ NOTE_C3, 1636 }, 
	{ NOTE_E3, 273 }, 
	{ NOTE_REST, 818 }, 
	{ NOTE_D3, 273 }, 
	{ NOTE_CS3, 273 }, 
	{ NOTE_C3, 545 }, 
	{ NOTE_REST, 1636 }, 
	{ NOTE_REST, 273 }, 
	{ NOTE_E2, 136 }, 
	{ NOTE_REST, 137 }, 
	{ NOTE_E3, 273 }, 
	{ NOTE_REST, 818 }, 
	{ NOTE_D3, 273 }, 
	{ NOTE_CS3, 273 }, 
	{ NOTE_C3, 545 }, 
	{ NOTE_REST, 2182 }, 
	{ NOTE_REST, 2182 }, 
	{ NOTE_REST, 1091 }, 
	{ NOTE_G2, 136 }, 
	{ NOTE_FS2, 136 }, 
	{ NOTE_E2, 136 }, 
	{ NOTE_G2, 136 }, 
	{ NOTE_FS2, 136 }, 
	{ NOTE_E2, 136 }, 
	{ NOTE_G2, 136 }, 
	{ NOTE_FS2, 139 }, 
	{ NOTE_E2, 136 }, 
	{ NOTE_F2, 136 }, 
	{ NOTE_B2, 136 }, 
	{ NOTE_E2, 136 }, 
	{ NOTE_F2, 136 }, 
	{ NOTE_C3, 136 }, 
	{ NOTE_E2, 136 }, 
	{ NOTE_FS2, 136 }, 
	{ NOTE_CS3, 136 }, 
	{ NOTE_E2, 136 }, 
	{ NOTE_F2, 136 }, 
	{ NOTE_C3, 136 }, 
	{ NOTE_E2, 136 }, 
	{ NOTE_F2, 136 }, 
	{ NOTE_B2, 136 }, 
	{ NOTE_B2, 142 }, 
	{ NOTE_E2, 136 }, 
	{ NOTE_F2, 136 }, 
	{ NOTE_B2, 136 }, 
	{ NOTE_E2, 136 }, 
	{ NOTE_F2, 136 }, 
	{ NOTE_C3, 136 }, 
	{ NOTE_E2, 136 }, 
	{ NOTE_FS2, 136 }, 
	{ NOTE_CS3, 136 }, 
	{ NOTE_E2, 136 }, 
	{ NOTE_F2, 136 }, 
	{ NOTE_C3, 136 }, 
	{ NOTE_E2, 136 }, 
	{ NOTE_F2, 136 }, 
	{ NOTE_B2, 278 }, 
	{ NOTE_E2, 136 }, 
	{ NOTE_F2, 136 }, 
	{ NOTE_B2, 136 }, 
	{ NOTE_E2, 136 }, 
	{ NOTE_F2, 136 }, 
	{ NOTE_C3, 136 }, 
	{ NOTE_E2, 136 }, 
	{ NOTE_FS2, 136 }, 
	{ NOTE_CS3, 136 }, 
	{ NOTE_E2, 136 }, 
	{ NOTE_F2, 136 }, 
	{ NOTE_C3, 136 }, 
	{ NOTE_E2, 136 }, 
	{ NOTE_F2, 136 }, 
	{ NOTE_B2, 136 }, 
	{ NOTE_B2, 142 }, 
	{ NOTE_E2, 136 }, 
	{ NOTE_F2, 136 }, 
	{ NOTE_B2, 136 }, 
	{ NOTE_E2, 136 }, 
	{ NOTE_F2, 136 }, 
	{ NOTE_C3, 136 }, 
	{ NOTE_E2, 136 }, 
	{ NOTE_F2, 136 }, 
	{ NOTE_G2, 136 }, 
	{ NOTE_FS2, 136 }, 
	{ NOTE_E2, 136 }, 
	{ NOTE_G2, 136 }, 
	{ NOTE_FS2, 136 }, 
	{ NOTE_E2, 136 }, 
	{ NOTE_G2, 136 }, 
	{ NOTE_FS2, 142 }, 
	{ NOTE_E2, 136 }, 
	{ NOTE_F2, 136 }, 
	{ NOTE_B2, 136 }, 
	{ NOTE_E2, 136 }, 
	{ NOTE_F2, 136 }, 
	{ NOTE_C3, 136 }, 
	{ NOTE_E2, 136 }, 
	{ NOTE_FS2, 136 }, 
	{ NOTE_CS3, 136 }, 
	{ NOTE_E2, 136 }, 
	{ NOTE_F2, 136 }, 
	{ NOTE_C3, 136 }, 
	{ NOTE_E2, 136 }, 
	{ NOTE_F2, 136 }, 
	{ NOTE_B2, 136 }, 
	{ NOTE_B2, 142 }, 
	{ NOTE_E2, 136 }, 
	{ NOTE_F2, 136 }, 
	{ NOTE_B2, 136 }, 
	{ NOTE_E2, 136 }, 
	{ NOTE_F2, 136 }, 
	{ NOTE_C3, 136 }, 
	{ NOTE_E2, 136 }, 
	{ NOTE_FS2, 136 }, 
	{ NOTE_CS3, 136 }, 
	{ NOTE_E2, 136 }, 
	{ NOTE_F2, 136 }, 
	{ NOTE_C3, 136 }, 
	{ NOTE_E2, 136 }, 
	{ NOTE_F2, 136 }, 
	{ NOTE_B2, 278 }, 
	{ NOTE_E2, 136 }, 
	{ NOTE_F2, 136 }, 
	{ NOTE_B2, 136 }, 
	{ NOTE_E2, 136 }, 
	{ NOTE_F2, 136 }, 
	{ NOTE_C3, 136 }, 
	{ NOTE_E2, 136 }, 
	{ NOTE_FS2, 136 }, 
	{ NOTE_CS3, 136 }, 
	{ NOTE_E2, 136 }, 
	{ NOTE_F2, 136 }, 
	{ NOTE_C3, 136 }, 
	{ NOTE_E2, 136 }, 
	{ NOTE_F2, 136 }, 
	{ NOTE_B2, 136 }, 
	{ NOTE_B2, 142 }, 
	{ NOTE_E2, 136 }, 
	{ NOTE_F2, 136 }, 
	{ NOTE_B2, 136 }, 
	{ NOTE_E2, 136 }, 
	{ NOTE_F2, 136 }, 
	{ NOTE_C3, 136 }, 
	{ NOTE_E2, 136 }, 
	{ NOTE_F2, 136 }, 
	{ NOTE_G2, 136 }, 
	{ NOTE_FS2, 136 }, 
	{ NOTE_E2, 136 }, 
	{ NOTE_G2, 136 }, 
	{ NOTE_FS2, 136 }, 
	{ NOTE_E2, 136 }, 
	{ NOTE_G2, 136 }, 
	{ NOTE_FS2, 142 }, 
	{ NOTE_G2, 136 }, 
	{ NOTE_FS2, 136 }, 
	{ NOTE_E2, 136 }, 
	{ NOTE_G2, 136 }, 
	{ NOTE_FS2, 136 }, 
	{ NOTE_E2, 136 }, 
	{ NOTE_G2, 136 }, 
	{ NOTE_FS2, 139 }, 
	{ NOTE_REST, 2182 }, 
	{ NOTE_E2, 136 }, 
	{ NOTE_E2, 136 }, 
	{ NOTE_E2, 136 }, 
	{ NOTE_E2, 136 }, 
	{ NOTE_E2, 136 }, 
	{ NOTE_E2, 136 }, 
	{ NOTE_E2, 136 }, 
	{ NOTE_E2, 136 }, 
	{ NOTE_E2, 136 }, 
	{ NOTE_G2, 136 }, 
	{ NOTE_A2, 136 }, 
	{ NOTE_REST, 136 }, 
	{ NOTE_BB2, 136 }, 
	{ NOTE_A2, 136 }, 
	{ NOTE_G2, 136 }, 
	{ NOTE_A2, 142 }, 
	{ NOTE_E2, 136 }, 
	{ NOTE_E2, 136 }, 
	{ NOTE_E2, 136 }, 
	{ NOTE_E2, 136 }, 
	{ NOTE_E2, 136 }, 
	{ NOTE_E2, 136 }, 
	{ NOTE_E2, 136 }, 
	{ NOTE_E2, 136 }, 
	{ NOTE_E2, 136 }, 
	{ NOTE_G2, 136 }, 
	{ NOTE_A2, 136 }, 
	{ NOTE_G2, 136 }, 
	{ NOTE_A2, 141 }, 
	{ NOTE_E2, 136 }, 
	{ NOTE_E2, 136 }, 
	{ NOTE_E2, 136 }, 
	{ NOTE_E2, 136 }, 
	{ NOTE_E2, 136 }, 
	{ NOTE_E2, 136 }, 
	{ NOTE_E2, 136 }, 
	{ NOTE_E2, 136 }, 
	{ NOTE_E2, 136 }, 
	{ NOTE_G2, 136 }, 
	{ NOTE_A2, 136 }, 
	{ NOTE_REST, 136 }, 
	{ NOTE_BB2, 136 }, 
	{ NOTE_A2, 136 }, 
	{ NOTE_G2, 136 }, 
	{ NOTE_A2, 142 }, 
	{ NOTE_E2, 136 }, 
	{ NOTE_E2, 136 }, 
	{ NOTE_E2, 136 }, 
	{ NOTE_E2, 136 }, 
	{ NOTE_E2, 136 }, 
	{ NOTE_E2, 136 }, 
	{ NOTE_E2, 136 }, 
	{ NOTE_E2, 136 }, 
	{ NOTE_E2, 136 }, 
	{ NOTE_G2, 136 }, 
	{ NOTE_A2, 136 }, 
	{ NOTE_G2, 136 }, 
	{ NOTE_A2, 141 }, 
	{ NOTE_E2, 136 }, 
	{ NOTE_E2, 136 }, 
	{ NOTE_E2, 136 }, 
	{ NOTE_E2, 136 }, 
	{ NOTE_E2, 136 }, 
	{ NOTE_E2, 136 }, 
	{ NOTE_E2, 136 }, 
	{ NOTE_E2, 136 }, 
	{ NOTE_E2, 136 }, 
	{ NOTE_G2, 136 }, 
	{ NOTE_A2, 136 }, 
	{ NOTE_REST, 136 }, 
	{ NOTE_BB2, 136 }, 
	{ NOTE_A2, 136 }, 
	{ NOTE_G2, 136 }, 
	{ NOTE_A2, 142 }, 
	{ NOTE_E2, 136 }, 
	{ NOTE_E2, 136 }, 
	{ NOTE_E2, 136 }, 
	{ NOTE_E2, 136 }, 
	{ NOTE_E2, 136 }, 
	{ NOTE_E2, 136 }, 
	{ NOTE_E2, 136 }, 
	{ NOTE_E2, 136 }, 
	{ NOTE_E2, 136 }, 
	{ NOTE_G2, 136 }, 
	{ NOTE_A2, 136 }, 
	{ NOTE_G2, 136 }, 
	{ NOTE_A2, 141 }, 
	{ NOTE_E2, 136 }, 
	{ NOTE_E2, 136 }, 
	{ NOTE_E2, 136 }, 
	{ NOTE_E2, 136 }, 
	{ NOTE_E2, 136 }, 
	{ NOTE_E2, 136 }, 
	{ NOTE_E2, 136 }, 
	{ NOTE_E2, 136 }, 
	{ NOTE_E2, 136 }, 
	{ NOTE_G2, 136 }, 
	{ NOTE_A2, 136 }, 
	{ NOTE_REST, 136 }, 
	{ NOTE_BB2, 136 }, 
	{ NOTE_A2, 136 }, 
	{ NOTE_G2, 136 }, 
	{ NOTE_A2, 142 }, 
	{ NOTE_E2, 136 }, 
	{ NOTE_E2, 136 }, 
	{ NOTE_E2, 136 }, 
	{ NOTE_E2, 136 }, 
	{ NOTE_E2, 136 }, 
	{ NOTE_E2, 136 }, 
	{ NOTE_E2, 136 }, 
	{ NOTE_E2, 136 }, 
	{ NOTE_E2, 136 }, 
	{ NOTE_G2, 136 }, 
	{ NOTE_A2, 136 }, 
	{ NOTE_G2, 136 }, 
	{ NOTE_A2, 141 }, 
	{ NOTE_E2, 136 }, 
	{ NOTE_E2, 136 }, 
	{ NOTE_E2, 136 }, 
	{ NOTE_E2, 136 }, 
	{ NOTE_E2, 136 }, 
	{ NOTE_E2, 136 }, 
	{ NOTE_E2, 136 }, 
	{ NOTE_E2, 136 }, 
	{ NOTE_E2, 136 }, 
	{ NOTE_G2, 136 }, 
	{ NOTE_A2, 136 }, 
	{ NOTE_REST, 136 }, 
	{ NOTE_BB2, 136 }, 
	{ NOTE_A2, 136 }, 
	{ NOTE_G2, 136 }, 
	{ NOTE_A2, 142 }, 
	{ NOTE_E2, 136 }, 
	{ NOTE_E2, 136 }, 
	{ NOTE_E2, 136 }, 
	{ NOTE_E2, 136 }, 
	{ NOTE_E2, 136 }, 
	{ NOTE_E2, 136 }, 
	{ NOTE_E2, 136 }, 
	{ NOTE_E2, 136 }, 
	{ NOTE_E2, 136 }, 
	{ NOTE_G2, 136 }, 
	{ NOTE_A2, 136 }, 
	{ NOTE_G2, 136 }, 
	{ NOTE_A2, 141 }, 
	{ NOTE_E2, 136 }, 
	{ NOTE_E2, 136 }, 
	{ NOTE_E2, 136 }, 
	{ NOTE_E2, 136 }, 
	{ NOTE_E2, 136 }, 
	{ NOTE_E2, 136 }, 
	{ NOTE_E2, 136 }, 
	{ NOTE_E2, 136 }, 
	{ NOTE_E2, 136 }, 
	{ NOTE_G2, 136 }, 
	{ NOTE_A2, 136 }, 
	{ NOTE_REST, 136 }, 
	{ NOTE_BB2, 136 }, 
	{ NOTE_A2, 136 }, 
	{ NOTE_G2, 136 }, 
	{ NOTE_A2, 142 }, 
	{ NOTE_E2, 136 }, 
	{ NOTE_E2, 136 }, 
	{ NOTE_E2, 136 }, 
	{ NOTE_E2, 136 }, 
	{ NOTE_E2, 136 }, 
	{ NOTE_E2, 136 }, 
	{ NOTE_E2, 136 }, 
	{ NOTE_E2, 136 }, 
	{ NOTE_E2, 136 }, 
	{ NOTE_G2, 136 }, 
	{ NOTE_A2, 136 }, 
	{ NOTE_G2, 136 }, 
	{ NOTE_A2, 141 }, 
	{ NOTE_FS2, 136 }, 
	{ NOTE_FS2, 136 }, 
	{ NOTE_FS2, 136 }, 
	{ NOTE_FS2, 136 }, 
	{ NOTE_FS2, 136 }, 
	{ NOTE_FS2, 136 }, 
	{ NOTE_FS2, 136 }, 
	{ NOTE_FS2, 136 }, 
	{ NOTE_FS2, 136 }, 
	{ NOTE_A2, 136 }, 
	{ NOTE_B2, 136 }, 
	{ NOTE_REST, 136 }, 
	{ NOTE_C3, 136 }, 
	{ NOTE_B2, 136 }, 
	{ NOTE_A2, 136 }, 
	{ NOTE_B2, 142 }, 
	{ NOTE_FS2, 136 }, 
	{ NOTE_FS2, 136 }, 
	{ NOTE_FS2, 136 }, 
	{ NOTE_FS2, 136 }, 
	{ NOTE_FS2, 136 }, 
	{ NOTE_FS2, 136 }, 
	{ NOTE_FS2, 136 }, 
	{ NOTE_FS2, 136 }, 
	{ NOTE_FS2, 136 }, 
	{ NOTE_A2, 136 }, 
	{ NOTE_B2, 136 }, 
	{ NOTE_A2, 136 }, 
	{ NOTE_B2, 141 }, 
	{ NOTE_FS2, 136 }, 
	{ NOTE_FS2, 136 }, 
	{ NOTE_FS2, 136 }, 
	{ NOTE_FS2, 136 }, 
	{ NOTE_FS2, 136 }, 
	{ NOTE_FS2, 136 }, 
	{ NOTE_FS2, 136 }, 
	{ NOTE_FS2, 136 }, 
	{ NOTE_FS2, 136 }, 
	{ NOTE_A2, 136 }, 
	{ NOTE_B2, 136 }, 
	{ NOTE_REST, 136 }, 
	{ NOTE_C3, 136 }, 
	{ NOTE_B2, 136 }, 
	{ NOTE_A2, 136 }, 
	{ NOTE_B2, 142 }, 
	{ NOTE_FS2, 136 }, 
	{ NOTE_FS2, 136 }, 
	{ NOTE_FS2, 136 }, 
	{ NOTE_FS2, 136 }, 
	{ NOTE_FS2, 136 }, 
	{ NOTE_FS2, 136 }, 
	{ NOTE_FS2, 136 }, 
	{ NOTE_FS2, 136 }, 
	{ NOTE_FS2, 136 }, 
	{ NOTE_A2, 136 }, 
	{ NOTE_B2, 136 }, 
	{ NOTE_A2, 136 }, 
	{ NOTE_B2, 141 }, 
	{ NOTE_E2, 136 }, 
	{ NOTE_E2, 136 }, 
	{ NOTE_E2, 136 }, 
	{ NOTE_E2, 136 }, 
	{ NOTE_E2, 136 }, 
	{ NOTE_E2, 136 }, 
	{ NOTE_E2, 136 }, 
	{ NOTE_E2, 139 }, 
	{ NOTE_E3, 273 }, 
	{ NOTE_E2, 136 }, 
	{ NOTE_E2, 136 }, 
	{ NOTE_D3, 273 }, 
	{ NOTE_E3, 273 }, 
	{ NOTE_REST, 1091 }, 
	{ NOTE_C3, 136 }, 
	{ NOTE_C3, 136 }, 
	{ NOTE_C3, 136 }, 
	{ NOTE_C3, 136 }, 
	{ NOTE_CS3, 273 }, 
	{ NOTE_C3, 273 }, 
	{ NOTE_C3, 136 }, 
	{ NOTE_C3, 136 }, 
	{ NOTE_C3, 136 }, 
	{ NOTE_C3, 136 }, 
	{ NOTE_EB3, 273 }, 
	{ NOTE_B2, 275 }, 
	{ NOTE_E3, 273 }, 
	{ NOTE_E2, 136 }, 
	{ NOTE_E2, 136 }, 
	{ NOTE_D3, 273 }, 
	{ NOTE_E3, 273 }, 
	{ NOTE_REST, 1091 }, 
	{ NOTE_C3, 136 }, 
	{ NOTE_C3, 136 }, 
	{ NOTE_C3, 136 }, 
	{ NOTE_C3, 136 }, 
	{ NOTE_CS3, 273 }, 
	{ NOTE_C3, 273 }, 
	{ NOTE_FS3, 136 }, 
	{ NOTE_E3, 136 }, 
	{ NOTE_EB3, 136 }, 
	{ NOTE_REST, 136 }, 
	{ NOTE_EB3, 136 }, 
	{ NOTE_C3, 136 }, 
	{ NOTE_B2, 136 }, 
	{ NOTE_REST, 140 }, 
	{ NOTE_E2, 273 }, 
	{ NOTE_E2, 273 }, 
	{ NOTE_REST, 545 }, 
	{ NOTE_F2, 273 }, 
	{ NOTE_F2, 273 }, 
	{ NOTE_REST, 545 }, 
	{ NOTE_E2, 1091 }, 
	{ NOTE_FS2, 545 }, 
	{ NOTE_G2, 2182 }, 
	{ NOTE_C3, 1091 }, 
	{ NOTE_B2, 545 }, 
	{ NOTE_A2, 2183 }, 
	{ NOTE_D3, 1091 }, 
	{ NOTE_C3, 545 }, 
	{ NOTE_B2, 1091 }, 
	{ NOTE_E2, 1091 }, 
	{ NOTE_G2, 545 }, 
	{ NOTE_C3, 2183 }, 
	{ NOTE_E2, 273 }, 
	{ NOTE_E2, 273 }, 
	{ NOTE_REST, 545 }, 
	{ NOTE_F2, 273 }, 
	{ NOTE_F2, 273 }, 
	{ NOTE_REST, 545 }, 
	{ NOTE_E2, 1091 }, 
	{ NOTE_G2, 545 }, 
	{ NOTE_C3, 2182 }, 
	{ NOTE_E2, 273 }, 
	{ NOTE_E2, 273 }, 
	{ NOTE_REST, 545 }, 
	{ NOTE_F2, 273 }, 
	{ NOTE_F2, 273 }, 
	{ NOTE_REST, 545 }, 
	{ NOTE_E2, 136 }, 
	{ NOTE_F2, 136 }, 
	{ NOTE_B2, 136 }, 
	{ NOTE_E2, 136 }, 
	{ NOTE_F2, 136 }, 
	{ NOTE_C3, 136 }, 
	{ NOTE_E2, 136 }, 
	{ NOTE_FS2, 136 }, 
	{ NOTE_CS3, 136 }, 
	{ NOTE_E2, 136 }, 
	{ NOTE_F2, 136 }, 
	{ NOTE_C3, 136 }, 
	{ NOTE_E2, 136 }, 
	{ NOTE_F2, 136 }, 
	{ NOTE_B2, 136 }, 
	{ NOTE_B2, 142 }, 
	{ NOTE_E2, 136 }, 
	{ NOTE_F2, 136 }, 
	{ NOTE_B2, 136 }, 
	{ NOTE_E2, 136 }, 
	{ NOTE_F2, 136 }, 
	{ NOTE_C3, 136 }, 
	{ NOTE_E2, 136 }, 
	{ NOTE_FS2, 136 }, 
	{ NOTE_CS3, 136 }, 
	{ NOTE_E2, 136 }, 
	{ NOTE_F2, 136 }, 
	{ NOTE_C3, 136 }, 
	{ NOTE_E2, 136 }, 
	{ NOTE_F2, 136 }, 
	{ NOTE_B2, 278 }, 
	{ NOTE_E2, 136 }, 
	{ NOTE_F2, 136 }, 
	{ NOTE_B2, 136 }, 
	{ NOTE_E2, 136 }, 
	{ NOTE_F2, 136 }, 
	{ NOTE_C3, 136 }, 
	{ NOTE_E2, 136 }, 
	{ NOTE_FS2, 136 }, 
	{ NOTE_CS3, 136 }, 
	{ NOTE_E2, 136 }, 
	{ NOTE_F2, 136 }, 
	{ NOTE_C3, 136 }, 
	{ NOTE_E2, 136 }, 
	{ NOTE_F2, 136 }, 
	{ NOTE_B2, 136 }, 
	{ NOTE_B2, 142 }, 
	{ NOTE_E2, 136 }, 
	{ NOTE_F2, 136 }, 
	{ NOTE_B2, 136 }, 
	{ NOTE_E2, 136 }, 
	{ NOTE_F2, 136 }, 
	{ NOTE_C3, 136 }, 
	{ NOTE_E2, 136 }, 
	{ NOTE_F2, 136 }, 
	{ NOTE_G2, 136 }, 
	{ NOTE_FS2, 136 }, 
	{ NOTE_E2, 136 }, 
	{ NOTE_G2, 136 }, 
	{ NOTE_FS2, 136 }, 
	{ NOTE_E2, 136 }, 
	{ NOTE_G2, 136 }, 
	{ NOTE_FS2, 142 }, 
	{ NOTE_G2, 136 }, 
	{ NOTE_FS2, 136 }, 
	{ NOTE_E2, 136 }, 
	{ NOTE_G2, 136 }, 
	{ NOTE_FS2, 136 }, 
	{ NOTE_E2, 136 }, 
	{ NOTE_G2, 136 }, 
	{ NOTE_FS2, 139 }, 
	{ NOTE_E2, 136 }, 
	{ NOTE_E2, 136 }, 
	{ NOTE_E2, 136 }, 
	{ NOTE_E2, 136 }, 
	{ NOTE_E2, 136 }, 
	{ NOTE_E2, 136 }, 
	{ NOTE_E2, 136 }, 
	{ NOTE_E2, 136 }, 
	{ NOTE_E2, 136 }, 
	{ NOTE_G2, 136 }, 
	{ NOTE_A2, 136 }, 
	{ NOTE_REST, 136 }, 
	{ NOTE_BB2, 136 }, 
	{ NOTE_A2, 136 }, 
	{ NOTE_G2, 136 }, 
	{ NOTE_A2, 142 }, 
	{ NOTE_E2, 136 }, 
	{ NOTE_E2, 136 }, 
	{ NOTE_E2, 136 }, 
	{ NOTE_E2, 136 }, 
	{ NOTE_E2, 136 }, 
	{ NOTE_E2, 136 }, 
	{ NOTE_E2, 136 }, 
	{ NOTE_E2, 136 }, 
	{ NOTE_E2, 136 }, 
	{ NOTE_G2, 136 }, 
	{ NOTE_A2, 136 }, 
	{ NOTE_G2, 136 }, 
	{ NOTE_A2, 141 }, 
	{ NOTE_E2, 136 }, 
	{ NOTE_E2, 136 }, 
	{ NOTE_E2, 136 }, 
	{ NOTE_E2, 136 }, 
	{ NOTE_E2, 136 }, 
	{ NOTE_E2, 136 }, 
	{ NOTE_E2, 136 }, 
	{ NOTE_E2, 136 }, 
	{ NOTE_E2, 136 }, 
	{ NOTE_G2, 136 }, 
	{ NOTE_A2, 136 }, 
	{ NOTE_REST, 136 }, 
	{ NOTE_BB2, 136 }, 
	{ NOTE_A2, 136 }, 
	{ NOTE_G2, 136 }, 
	{ NOTE_A2, 142 }, 
	{ NOTE_E2, 136 }, 
	{ NOTE_E2, 136 }, 
	{ NOTE_E2, 136 }, 
	{ NOTE_E2, 136 }, 
	{ NOTE_E2, 136 }, 
	{ NOTE_E2, 136 }, 
	{ NOTE_E2, 136 }, 
	{ NOTE_E2, 136 }, 
	{ NOTE_E2, 136 }, 
	{ NOTE_G2, 136 }, 
	{ NOTE_A2, 136 }, 
	{ NOTE_G2, 136 }, 
	{ NOTE_A2, 141 }, 
	{ NOTE_E2, 136 }, 
	{ NOTE_E2, 136 }, 
	{ NOTE_E2, 136 }, 
	{ NOTE_E2, 136 }, 
	{ NOTE_E2, 136 }, 
	{ NOTE_E2, 136 }, 
	{ NOTE_E2, 136 }, 
	{ NOTE_E2, 136 }, 
	{ NOTE_E2, 136 }, 
	{ NOTE_G2, 136 }, 
	{ NOTE_A2, 136 }, 
	{ NOTE_REST, 136 }, 
	{ NOTE_BB2, 136 }, 
	{ NOTE_A2, 136 }, 
	{ NOTE_G2, 136 }, 
	{ NOTE_A2, 142 }, 
	{ NOTE_E2, 136 }, 
	{ NOTE_E2, 136 }, 
	{ NOTE_E2, 136 }, 
	{ NOTE_E2, 136 }, 
	{ NOTE_E2, 136 }, 
	{ NOTE_E2, 136 }, 
	{ NOTE_E2, 136 }, 
	{ NOTE_E2, 136 }, 
	{ NOTE_E2, 136 }, 
	{ NOTE_G2, 136 }, 
	{ NOTE_A2, 136 }, 
	{ NOTE_G2, 136 }, 
	{ NOTE_A2, 141 }, 
	{ NOTE_FS2, 136 }, 
	{ NOTE_FS2, 136 }, 
	{ NOTE_FS2, 136 }, 
	{ NOTE_FS2, 136 }, 
	{ NOTE_FS2, 136 }, 
	{ NOTE_FS2, 136 }, 
	{ NOTE_FS2, 136 }, 
	{ NOTE_FS2, 136 }, 
	{ NOTE_FS2, 136 }, 
	{ NOTE_A2, 136 }, 
	{ NOTE_B2, 136 }, 
	{ NOTE_REST, 136 }, 
	{ NOTE_C3, 136 }, 
	{ NOTE_B2, 136 }, 
	{ NOTE_A2, 136 }, 
	{ NOTE_B2, 142 }, 
	{ NOTE_FS2, 136 }, 
	{ NOTE_FS2, 136 }, 
	{ NOTE_FS2, 136 }, 
	{ NOTE_FS2, 136 }, 
	{ NOTE_FS2, 136 }, 
	{ NOTE_FS2, 136 }, 
	{ NOTE_FS2, 136 }, 
	{ NOTE_FS2, 136 }, 
	{ NOTE_FS2, 136 }, 
	{ NOTE_A2, 136 }, 
	{ NOTE_B2, 136 }, 
	{ NOTE_A2, 136 }, 
	{ NOTE_B2, 141 }, 
	{ NOTE_E2, 136 }, 
	{ NOTE_E2, 136 }, 
	{ NOTE_E2, 136 }, 
	{ NOTE_E2, 136 }, 
	{ NOTE_E2, 136 }, 
	{ NOTE_E2, 136 }, 
	{ NOTE_E2, 136 }, 
	{ NOTE_E2, 139 }, 
	{ NOTE_E3, 273 }, 
	{ NOTE_E2, 136 }, 
	{ NOTE_E2, 136 }, 
	{ NOTE_D3, 273 }, 
	{ NOTE_E3, 273 }, 
	{ NOTE_REST, 1091 }, 
	{ NOTE_C3, 136 }, 
	{ NOTE_C3, 136 }, 
	{ NOTE_C3, 136 }, 
	{ NOTE_C3, 136 }, 
	{ NOTE_CS3, 273 }, 
	{ NOTE_C3, 273 }, 
	{ NOTE_C3, 136 }, 
	{ NOTE_C3, 136 }, 
	{ NOTE_C3, 136 }, 
	{ NOTE_C3, 136 }, 
	{ NOTE_EB3, 273 }, 
	{ NOTE_B2, 275 }, 
	{ NOTE_E3, 273 }, 
	{ NOTE_E2, 136 }, 
	{ NOTE_E2, 136 }, 
	{ NOTE_D3, 273 }, 
	{ NOTE_E3, 273 }, 
	{ NOTE_REST, 1091 }, 
	{ NOTE_C3, 136 }, 
	{ NOTE_C3, 136 }, 
	{ NOTE_C3, 136 }, 
	{ NOTE_C3, 136 }, 
	{ NOTE_CS3, 273 }, 
	{ NOTE_C3, 274 }, 
	{ NOTE_FS3, 136 }, 
	{ NOTE_E3, 136 }, 
	{ NOTE_EB3, 136 }, 
	{ NOTE_REST, 137 }, 
	{ NOTE_EB3, 136 }, 
	{ NOTE_C3, 136 }, 
	{ NOTE_B2, 136 }, 
	{ NOTE_REST, 137 }, 
	{ NOTE_E2, 273 }, 
	{ NOTE_E2, 273 }, 
	{ NOTE_REST, 545 }, 
	{ NOTE_F2, 273 }, 
	{ NOTE_F2, 273 }, 
	{ NOTE_REST, 545 }, 
	{ NOTE_E2, 1091 }, 
	{ NOTE_FS2, 545 }, 
	{ NOTE_G2, 2182 }, 
	{ NOTE_C3, 1091 }, 
	{ NOTE_B2, 545 }, 
	{ NOTE_A2, 2183 }, 
	{ NOTE_D3, 1091 }, 
	{ NOTE_C3, 545 }, 
	{ NOTE_B2, 1091 }, 
	{ NOTE_E2, 1091 }, 
	{ NOTE_G2, 545 }, 
	{ NOTE_C3, 2183 }, 
	{ NOTE_E2, 273 }, 
	{ NOTE_E2, 273 }, 
	{ NOTE_REST, 545 }, 
	{ NOTE_F2, 273 }, 
	{ NOTE_F2, 273 }, 
	{ NOTE_REST, 545 }, 
	{ NOTE_E2, 1090 }, 
	{ NOTE_G2, 545 }, 
	{ NOTE_C3, 2183 }, 
	{ NOTE_E2, 273 }, 
	{ NOTE_E2, 273 }, 
	{ NOTE_REST, 545 }, 
	{ NOTE_F2, 273 }, 
	{ NOTE_F2, 273 }, 
	{ NOTE_REST, 545 }, 
	{ NOTE_REST, 2182 }, 
	{ NOTE_REST, 2182 }, 
	{ NOTE_REST, 2182 }, 
	{ NOTE_REST, 2182 }, 
	{ NOTE_REST, 4615 }, 
	{ NOTE_REST, 4615 }, 
	{ NOTE_E2, 1154 }, 
	{ NOTE_D3, 2308 }, 
	{ NOTE_C3, 2307 }, 
	{ NOTE_A2, 1154 }, 
	{ NOTE_B2, 1154 }, 
	{ NOTE_EB3, 1153 }, 
	{ NOTE_E2, 1154 }, 
	{ NOTE_D3, 2308 }, 
	{ NOTE_C3, 2307 }, 
	{ NOTE_A2, 1154 }, 
	{ NOTE_B2, 1154 }, 
	{ NOTE_EB3, 1153 }, 
	{ NOTE_E2, 1154 }, 
	{ NOTE_D3, 2308 }, 
	{ NOTE_C3, 2307 }, 
	{ NOTE_A2, 1154 }, 
	{ NOTE_B2, 1154 }, 
	{ NOTE_EB3, 1153 }, 
	{ NOTE_E2, 1154 }, 
	{ NOTE_D3, 2308 }, 
	{ NOTE_C3, 2307 }, 
	{ NOTE_A2, 1154 }, 
	{ NOTE_B2, 1154 }, 
	{ NOTE_EB3, 1153 }, 
	{ NOTE_E2, 1154 }, 
	{ NOTE_D3, 2308 }, 
	{ NOTE_C3, 2307 }, 
	{ NOTE_A2, 1154 }, 
	{ NOTE_B2, 1154 }, 
	{ NOTE_EB3, 1153 }, 
	{ NOTE_E2, 1154 }, 
	{ NOTE_D3, 2308 }, 
	{ NOTE_C3, 2307 }, 
	{ NOTE_A2, 1154 }, 
	{ NOTE_B2, 1154 }, 
	{ NOTE_EB3, 1153 }, 
	{ NOTE_E2, 1154 }, 
	{ NOTE_D3, 2308 }, 
	{ NOTE_C3, 2307 }, 
	{ NOTE_A2, 1154 }, 
	{ NOTE_B2, 1154 }, 
	{ NOTE_EB3, 1153 }, 
	{ NOTE_E2, 1154 }, 
	{ NOTE_D3, 2308 }, 
	{ NOTE_C3, 2307 }, 
	{ NOTE_A2, 1154 }, 
	{ NOTE_B2, 1154 }, 
	{ NOTE_EB3, 1153 }, 
	{ NOTE_E2, 288 }, 
	{ NOTE_E2, 288 }, 
	{ NOTE_E2, 288 }, 
	{ NOTE_E2, 288 }, 
	{ NOTE_E2, 288 }, 
	{ NOTE_E2, 288 }, 
	{ NOTE_E2, 288 }, 
	{ NOTE_E2, 288 }, 
	{ NOTE_E2, 288 }, 
	{ NOTE_E2, 288 }, 
	{ NOTE_E2, 288 }, 
	{ NOTE_E2, 288 }, 
	{ NOTE_E2, 288 }, 
	{ NOTE_E2, 288 }, 
	{ NOTE_E2, 288 }, 
	{ NOTE_E2, 295 }, 
	{ NOTE_FS2, 288 }, 
	{ NOTE_FS2, 288 }, 
	{ NOTE_G2, 288 }, 
	{ NOTE_FS2, 288 }, 
	{ NOTE_FS2, 288 }, 
	{ NOTE_FS2, 288 }, 
	{ NOTE_G2, 288 }, 
	{ NOTE_CS3, 144 }, 
	{ NOTE_CS3, 144 }, 
	{ NOTE_FS2, 288 }, 
	{ NOTE_FS2, 288 }, 
	{ NOTE_G2, 288 }, 
	{ NOTE_FS2, 288 }, 
	{ NOTE_FS2, 288 }, 
	{ NOTE_FS2, 288 }, 
	{ NOTE_G2, 288 }, 
	{ NOTE_CS3, 295 }, 
	{ NOTE_FS2, 288 }, 
	{ NOTE_FS2, 288 }, 
	{ NOTE_G2, 288 }, 
	{ NOTE_FS2, 288 }, 
	{ NOTE_FS2, 288 }, 
	{ NOTE_FS2, 288 }, 
	{ NOTE_G2, 288 }, 
	{ NOTE_CS3, 144 }, 
	{ NOTE_CS3, 144 }, 
	{ NOTE_FS2, 288 }, 
	{ NOTE_FS2, 288 }, 
	{ NOTE_G2, 288 }, 
	{ NOTE_FS2, 288 }, 
	{ NOTE_FS2, 288 }, 
	{ NOTE_FS2, 288 }, 
	{ NOTE_G2, 288 }, 
	{ NOTE_CS3, 295 }, 
	{ NOTE_G2, 2182 }, 
	{ NOTE_FS2, 2182 }, 
	{ NOTE_E2, 136 }, 
	{ NOTE_E2, 136 }, 
	{ NOTE_E2, 136 }, 
	{ NOTE_E2, 136 }, 
	{ NOTE_E2, 136 }, 
	{ NOTE_E2, 136 }, 
	{ NOTE_E2, 136 }, 
	{ NOTE_E2, 136 }, 
	{ NOTE_E2, 136 }, 
	{ NOTE_G2, 136 }, 
	{ NOTE_A2, 136 }, 
	{ NOTE_REST, 136 }, 
	{ NOTE_BB2, 136 }, 
	{ NOTE_A2, 136 }, 
	{ NOTE_G2, 136 }, 
	{ NOTE_A2, 142 }, 
	{ NOTE_E2, 136 }, 
	{ NOTE_E2, 136 }, 
	{ NOTE_E2, 136 }, 
	{ NOTE_E2, 136 }, 
	{ NOTE_E2, 136 }, 
	{ NOTE_E2, 136 }, 
	{ NOTE_E2, 136 }, 
	{ NOTE_E2, 136 }, 
	{ NOTE_E2, 136 }, 
	{ NOTE_G2, 136 }, 
	{ NOTE_A2, 136 }, 
	{ NOTE_G2, 136 }, 
	{ NOTE_A2, 141 }, 
	{ NOTE_E2, 136 }, 
	{ NOTE_E2, 136 }, 
	{ NOTE_E2, 136 }, 
	{ NOTE_E2, 136 }, 
	{ NOTE_E2, 136 }, 
	{ NOTE_E2, 136 }, 
	{ NOTE_E2, 136 }, 
	{ NOTE_E2, 136 }, 
	{ NOTE_E2, 136 }, 
	{ NOTE_G2, 136 }, 
	{ NOTE_A2, 136 }, 
	{ NOTE_REST, 136 }, 
	{ NOTE_BB2, 136 }, 
	{ NOTE_A2, 136 }, 
	{ NOTE_G2, 136 }, 
	{ NOTE_A2, 142 }, 
	{ NOTE_E2, 136 }, 
	{ NOTE_E2, 136 }, 
	{ NOTE_E2, 136 }, 
	{ NOTE_E2, 136 }, 
	{ NOTE_E2, 136 }, 
	{ NOTE_E2, 136 }, 
	{ NOTE_E2, 136 }, 
	{ NOTE_E2, 136 }, 
	{ NOTE_E2, 136 }, 
	{ NOTE_G2, 136 }, 
	{ NOTE_A2, 136 }, 
	{ NOTE_G2, 136 }, 
	{ NOTE_A2, 141 }, 
	{ NOTE_E2, 136 }, 
	{ NOTE_E2, 136 }, 
	{ NOTE_E2, 136 }, 
	{ NOTE_E2, 136 }, 
	{ NOTE_E2, 136 }, 
	{ NOTE_E2, 136 }, 
	{ NOTE_E2, 136 }, 
	{ NOTE_E2, 136 }, 
	{ NOTE_E2, 136 }, 
	{ NOTE_G2, 136 }, 
	{ NOTE_A2, 136 }, 
	{ NOTE_REST, 136 }, 
	{ NOTE_BB2, 136 }, 
	{ NOTE_A2, 136 }, 
	{ NOTE_G2, 136 }, 
	{ NOTE_A2, 142 }, 
	{ NOTE_E2, 136 }, 
	{ NOTE_E2, 136 }, 
	{ NOTE_E2, 136 }, 
	{ NOTE_E2, 136 }, 
	{ NOTE_E2, 136 }, 
	{ NOTE_E2, 136 }, 
	{ NOTE_E2, 136 }, 
	{ NOTE_E2, 136 }, 
	{ NOTE_E2, 136 }, 
	{ NOTE_G2, 136 }, 
	{ NOTE_A2, 136 }, 
	{ NOTE_G2, 136 }, 
	{ NOTE_A2, 141 }, 
	{ NOTE_E2, 136 }, 
	{ NOTE_E2, 136 }, 
	{ NOTE_E2, 136 }, 
	{ NOTE_E2, 136 }, 
	{ NOTE_E2, 136 }, 
	{ NOTE_E2, 136 }, 
	{ NOTE_E2, 136 }, 
	{ NOTE_E2, 136 }, 
	{ NOTE_E2, 136 }, 
	{ NOTE_G2, 136 }, 
	{ NOTE_A2, 136 }, 
	{ NOTE_REST, 136 }, 
	{ NOTE_BB2, 136 }, 
	{ NOTE_A2, 136 }, 
	{ NOTE_G2, 136 }, 
	{ NOTE_A2, 142 }, 
	{ NOTE_E2, 136 }, 
	{ NOTE_E2, 136 }, 
	{ NOTE_E2, 136 }, 
	{ NOTE_E2, 136 }, 
	{ NOTE_E2, 136 }, 
	{ NOTE_E2, 136 }, 
	{ NOTE_E2, 136 }, 
	{ NOTE_E2, 136 }, 
	{ NOTE_E2, 136 }, 
	{ NOTE_G2, 136 }, 
	{ NOTE_A2, 136 }, 
	{ NOTE_G2, 136 }, 
	{ NOTE_A2, 141 }, 
	{ NOTE_FS2, 136 }, 
	{ NOTE_FS2, 136 }, 
	{ NOTE_FS2, 136 }, 
	{ NOTE_FS2, 136 }, 
	{ NOTE_FS2, 136 }, 
	{ NOTE_FS2, 136 }, 
	{ NOTE_FS2, 136 }, 
	{ NOTE_FS2, 136 }, 
	{ NOTE_FS2, 136 }, 
	{ NOTE_A2, 136 }, 
	{ NOTE_B2, 136 }, 
	{ NOTE_REST, 136 }, 
	{ NOTE_C3, 136 }, 
	{ NOTE_B2, 136 }, 
	{ NOTE_A2, 136 }, 
	{ NOTE_B2, 142 }, 
	{ NOTE_FS2, 136 }, 
	{ NOTE_FS2, 136 }, 
	{ NOTE_FS2, 136 }, 
	{ NOTE_FS2, 136 }, 
	{ NOTE_FS2, 136 }, 
	{ NOTE_FS2, 136 }, 
	{ NOTE_FS2, 136 }, 
	{ NOTE_FS2, 136 }, 
	{ NOTE_FS2, 136 }, 
	{ NOTE_A2, 136 }, 
	{ NOTE_B2, 136 }, 
	{ NOTE_A2, 136 }, 
	{ NOTE_B2, 141 }, 
	{ NOTE_FS2, 136 }, 
	{ NOTE_FS2, 136 }, 
	{ NOTE_FS2, 136 }, 
	{ NOTE_FS2, 136 }, 
	{ NOTE_FS2, 136 }, 
	{ NOTE_FS2, 136 }, 
	{ NOTE_FS2, 136 }, 
	{ NOTE_FS2, 136 }, 
	{ NOTE_FS2, 136 }, 
	{ NOTE_A2, 136 }, 
	{ NOTE_B2, 136 }, 
	{ NOTE_REST, 136 }, 
	{ NOTE_C3, 136 }, 
	{ NOTE_B2, 136 }, 
	{ NOTE_A2, 136 }, 
	{ NOTE_B2, 142 }, 
	{ NOTE_FS2, 136 }, 
	{ NOTE_FS2, 136 }, 
	{ NOTE_FS2, 136 }, 
	{ NOTE_FS2, 136 }, 
	{ NOTE_FS2, 136 }, 
	{ NOTE_FS2, 136 }, 
	{ NOTE_FS2, 136 }, 
	{ NOTE_FS2, 136 }, 
	{ NOTE_FS2, 136 }, 
	{ NOTE_A2, 136 }, 
	{ NOTE_B2, 136 }, 
	{ NOTE_A2, 136 }, 
	{ NOTE_B2, 141 }, 
	{ NOTE_E2, 136 }, 
	{ NOTE_E2, 136 }, 
	{ NOTE_E2, 136 }, 
	{ NOTE_E2, 136 }, 
	{ NOTE_E2, 136 }, 
	{ NOTE_E2, 136 }, 
	{ NOTE_E2, 136 }, 
	{ NOTE_E2, 139 }, 
	{ NOTE_E2, 136 }, 
	{ NOTE_E2, 136 }, 
	{ NOTE_F2, 136 }, 
	{ NOTE_E2, 136 }, 
	{ NOTE_E2, 136 }, 
	{ NOTE_F2, 136 }, 
	{ NOTE_E2, 136 }, 
	{ NOTE_E2, 136 }, 
	{ NOTE_F2, 136 }, 
	{ NOTE_E2, 136 }, 
	{ NOTE_E2, 136 }, 
	{ NOTE_F2, 136 }, 
	{ NOTE_E2, 136 }, 
	{ NOTE_E2, 136 }, 
	{ NOTE_B2, 136 }, 
	{ NOTE_B2, 142 }, 
	{ NOTE_E2, 136 }, 
	{ NOTE_E2, 136 }, 
	{ NOTE_F2, 136 }, 
	{ NOTE_E2, 136 }, 
	{ NOTE_E2, 136 }, 
	{ NOTE_F2, 136 }, 
	{ NOTE_E2, 136 }, 
	{ NOTE_E2, 136 }, 
	{ NOTE_F2, 136 }, 
	{ NOTE_E2, 136 }, 
	{ NOTE_E2, 136 }, 
	{ NOTE_F2, 136 }, 
	{ NOTE_E2, 136 }, 
	{ NOTE_E2, 136 }, 
	{ NOTE_B2, 278 }, 
	{ NOTE_E2, 136 }, 
	{ NOTE_E2, 136 }, 
	{ NOTE_F2, 136 }, 
	{ NOTE_E2, 136 }, 
	{ NOTE_E2, 136 }, 
	{ NOTE_F2, 136 }, 
	{ NOTE_E2, 136 }, 
	{ NOTE_E2, 136 }, 
	{ NOTE_F2, 136 }, 
	{ NOTE_E2, 136 }, 
	{ NOTE_E2, 136 }, 
	{ NOTE_F2, 136 }, 
	{ NOTE_E2, 136 }, 
	{ NOTE_E2, 136 }, 
	{ NOTE_B2, 136 }, 
	{ NOTE_B2, 142 }, 
	{ NOTE_E2, 136 }, 
	{ NOTE_E2, 136 }, 
	{ NOTE_F2, 136 }, 
	{ NOTE_E2, 136 }, 
	{ NOTE_E2, 136 }, 
	{ NOTE_F2, 136 }, 
	{ NOTE_E2, 136 }, 
	{ NOTE_E2, 136 }, 
	{ NOTE_F2, 136 }, 
	{ NOTE_E2, 136 }, 
	{ NOTE_E2, 136 }, 
	{ NOTE_F2, 136 }, 
	{ NOTE_E2, 136 }, 
	{ NOTE_E2, 136 }, 
	{ NOTE_B2, 278 }, 
	{ NOTE_E2, 136 }, 
	{ NOTE_E2, 136 }, 
	{ NOTE_E2, 136 }, 
	{ NOTE_E2, 136 }, 
	{ NOTE_E2, 136 }, 
	{ NOTE_E2, 136 }, 
	{ NOTE_E2, 136 }, 
	{ NOTE_E2, 68 }, 
	{ NOTE_E2, 71 }, 
	{ NOTE_E2, 68 }, 
	{ NOTE_E2, 68 }, 
	{ NOTE_FS2, 136 }, 
	{ NOTE_G2, 136 }, 
	{ NOTE_A2, 136 }, 
	{ NOTE_B2, 136 }, 
	{ NOTE_C3, 136 }, 
	{ NOTE_D3, 136 }, 
	{ NOTE_E3, 136 }, 
	{ NOTE_FS3, 136 }, 
	{ NOTE_G3, 136 }, 
	{ NOTE_C3, 680 }, 
	{ NOTE_C3, 68 }, 
	{ NOTE_C3, 74 }, 
	{ NOTE_C3, 136 }, 
	{ NOTE_B2, 136 }, 
	{ NOTE_C3, 136 }, 
	{ NOTE_D3, 136 }, 
	{ NOTE_C3, 136 }, 
	{ NOTE_B2, 136 }, 
	{ NOTE_G2, 136 }, 
	{ NOTE_FS2, 136 }, 
	{ NOTE_E2, 136 }, 
	{ NOTE_E2, 136 }, 
	{ NOTE_E2, 136 }, 
	{ NOTE_E2, 136 }, 
	{ NOTE_E2, 136 }, 
	{ NOTE_E2, 136 }, 
	{ NOTE_E2, 136 }, 
	{ NOTE_E2, 142 }, 
	{ NOTE_E2, 68 }, 
	{ NOTE_E2, 68 }, 
	{ NOTE_FS2, 136 }, 
	{ NOTE_G2, 136 }, 
	{ NOTE_A2, 136 }, 
	{ NOTE_B2, 136 }, 
	{ NOTE_C3, 136 }, 
	{ NOTE_D3, 136 }, 
	{ NOTE_E3, 136 }, 
	{ NOTE_FS3, 136 }, 
	{ NOTE_G3, 136 }, 
	{ NOTE_C3, 545 }, 
	{ NOTE_REST, 136 }, 
	{ NOTE_C3, 68 }, 
	{ NOTE_C3, 73 }, 
	{ NOTE_C3, 136 }, 
	{ NOTE_B2, 136 }, 
	{ NOTE_C3, 136 }, 
	{ NOTE_D3, 136 }, 
	{ NOTE_C3, 136 }, 
	{ NOTE_B2, 136 }, 
	{ NOTE_G2, 136 }, 
	{ NOTE_FS2, 136 }, 
	{ NOTE_E2, 136 }, 
	{ NOTE_E2, 136 }, 
	{ NOTE_E2, 136 }, 
	{ NOTE_E2, 136 }, 
	{ NOTE_E2, 136 }, 
	{ NOTE_E2, 136 }, 
	{ NOTE_E2, 136 }, 
	{ NOTE_E2, 142 }, 
	{ NOTE_E2, 68 }, 
	{ NOTE_E2, 68 }, 
	{ NOTE_FS2, 136 }, 
	{ NOTE_G2, 136 }, 
	{ NOTE_A2, 136 }, 
	{ NOTE_B2, 136 }, 
	{ NOTE_C3, 136 }, 
	{ NOTE_D3, 136 }, 
	{ NOTE_E3, 136 }, 
	{ NOTE_FS3, 136 }, 
	{ NOTE_G3, 136 }, 
	{ NOTE_C3, 545 }, 
	{ NOTE_REST, 136 }, 
	{ NOTE_C3, 68 }, 
	{ NOTE_C3, 73 }, 
	{ NOTE_C3, 136 }, 
	{ NOTE_B2, 136 }, 
	{ NOTE_C3, 136 }, 
	{ NOTE_D3, 136 }, 
	{ NOTE_C3, 136 }, 
	{ NOTE_B2, 136 }, 
	{ NOTE_G2, 136 }, 
	{ NOTE_FS2, 136 }, 
	{ NOTE_E2, 136 }, 
	{ NOTE_E2, 136 }, 
	{ NOTE_E2, 136 }, 
	{ NOTE_E2, 136 }, 
	{ NOTE_E2, 136 }, 
	{ NOTE_E2, 136 }, 
	{ NOTE_E2, 136 }, 
	{ NOTE_E2, 142 }, 
	{ NOTE_E2, 68 }, 
	{ NOTE_E2, 68 }, 
	{ NOTE_FS2, 136 }, 
	{ NOTE_G2, 136 }, 
	{ NOTE_A2, 136 }, 
	{ NOTE_B2, 136 }, 
	{ NOTE_C3, 136 }, 
	{ NOTE_D3, 136 }, 
	{ NOTE_E3, 136 }, 
	{ NOTE_FS3, 136 }, 
	{ NOTE_C3, 545 }, 
	{ NOTE_REST, 273 }, 
	{ NOTE_C3, 68 }, 
	{ NOTE_C3, 72 }, 
	{ NOTE_C3, 136 }, 
	{ NOTE_B2, 136 }, 
	{ NOTE_C3, 136 }, 
	{ NOTE_D3, 136 }, 
	{ NOTE_C3, 136 }, 
	{ NOTE_B2, 136 }, 
	{ NOTE_G2, 136 }, 
	{ NOTE_FS2, 136 }, 
	{ NOTE_E2, 1094 }, 
	{ NOTE_C3, 136 }, 
	{ NOTE_B2, 136 }, 
	{ NOTE_C3, 136 }, 
	{ NOTE_D3, 136 }, 
	{ NOTE_C3, 136 }, 
	{ NOTE_B2, 136 }, 
	{ NOTE_G2, 136 }, 
	{ NOTE_FS2, 139 }, 
	{ NOTE_REST, 2182 }, 
	{ NOTE_REST, 1091 }, 
	{ NOTE_G2, 136 }, 
	{ NOTE_FS2, 136 }, 
	{ NOTE_E2, 136 }, 
	{ NOTE_G2, 136 }, 
	{ NOTE_FS2, 136 }, 
	{ NOTE_E2, 136 }, 
	{ NOTE_G2, 136 }, 
	{ NOTE_FS2, 139 }, 
	{ NOTE_G2, 136 }, 
	{ NOTE_FS2, 136 }, 
	{ NOTE_E2, 136 }, 
	{ NOTE_G2, 136 }, 
	{ NOTE_FS2, 136 }, 
	{ NOTE_E2, 136 }, 
	{ NOTE_G2, 136 }, 
	{ NOTE_FS2, 139 }, 
	{ NOTE_E2, 136 }, 
	{ NOTE_E2, 136 }, 
	{ NOTE_E2, 136 }, 
	{ NOTE_E2, 136 }, 
	{ NOTE_E2, 136 }, 
	{ NOTE_E2, 136 }, 
	{ NOTE_E2, 136 }, 
	{ NOTE_E2, 136 }, 
	{ NOTE_E2, 136 }, 
	{ NOTE_G2, 136 }, 
	{ NOTE_A2, 136 }, 
	{ NOTE_REST, 136 }, 
	{ NOTE_BB2, 136 }, 
	{ NOTE_A2, 136 }, 
	{ NOTE_G2, 136 }, 
	{ NOTE_A2, 142 }, 
	{ NOTE_E2, 136 }, 
	{ NOTE_E2, 136 }, 
	{ NOTE_E2, 136 }, 
	{ NOTE_E2, 136 }, 
	{ NOTE_E2, 136 }, 
	{ NOTE_E2, 136 }, 
	{ NOTE_E2, 136 }, 
	{ NOTE_E2, 136 }, 
	{ NOTE_E2, 136 }, 
	{ NOTE_G2, 136 }, 
	{ NOTE_A2, 136 }, 
	{ NOTE_G2, 136 }, 
	{ NOTE_A2, 141 }, 
	{ NOTE_E2, 136 }, 
	{ NOTE_E2, 136 }, 
	{ NOTE_E2, 136 }, 
	{ NOTE_E2, 136 }, 
	{ NOTE_E2, 136 }, 
	{ NOTE_E2, 136 }, 
	{ NOTE_E2, 136 }, 
	{ NOTE_E2, 136 }, 
	{ NOTE_E2, 136 }, 
	{ NOTE_G2, 136 }, 
	{ NOTE_A2, 136 }, 
	{ NOTE_REST, 136 }, 
	{ NOTE_BB2, 136 }, 
	{ NOTE_A2, 136 }, 
	{ NOTE_G2, 136 }, 
	{ NOTE_A2, 142 }, 
	{ NOTE_E2, 136 }, 
	{ NOTE_E2, 136 }, 
	{ NOTE_E2, 136 }, 
	{ NOTE_E2, 136 }, 
	{ NOTE_E2, 136 }, 
	{ NOTE_E2, 136 }, 
	{ NOTE_E2, 136 }, 
	{ NOTE_E2, 136 }, 
	{ NOTE_E2, 136 }, 
	{ NOTE_G2, 136 }, 
	{ NOTE_A2, 136 }, 
	{ NOTE_G2, 136 }, 
	{ NOTE_A2, 141 }, 
	{ NOTE_E2, 136 }, 
	{ NOTE_E2, 136 }, 
	{ NOTE_E2, 136 }, 
	{ NOTE_E2, 136 }, 
	{ NOTE_E2, 136 }, 
	{ NOTE_E2, 136 }, 
	{ NOTE_E2, 136 }, 
	{ NOTE_E2, 136 }, 
	{ NOTE_E2, 136 }, 
	{ NOTE_G2, 136 }, 
	{ NOTE_A2, 136 }, 
	{ NOTE_REST, 136 }, 
	{ NOTE_BB2, 136 }, 
	{ NOTE_A2, 136 }, 
	{ NOTE_G2, 136 }, 
	{ NOTE_A2, 142 }, 
	{ NOTE_E2, 136 }, 
	{ NOTE_E2, 136 }, 
	{ NOTE_E2, 136 }, 
	{ NOTE_E2, 136 }, 
	{ NOTE_E2, 136 }, 
	{ NOTE_E2, 136 }, 
	{ NOTE_E2, 136 }, 
	{ NOTE_E2, 136 }, 
	{ NOTE_E2, 136 }, 
	{ NOTE_G2, 136 }, 
	{ NOTE_A2, 136 }, 
	{ NOTE_G2, 136 }, 
	{ NOTE_A2, 141 }, 
	{ NOTE_FS2, 136 }, 
	{ NOTE_FS2, 136 }, 
	{ NOTE_FS2, 136 }, 
	{ NOTE_FS2, 136 }, 
	{ NOTE_FS2, 136 }, 
	{ NOTE_FS2, 136 }, 
	{ NOTE_FS2, 136 }, 
	{ NOTE_FS2, 136 }, 
	{ NOTE_FS2, 136 }, 
	{ NOTE_A2, 136 }, 
	{ NOTE_B2, 136 }, 
	{ NOTE_REST, 136 }, 
	{ NOTE_C3, 136 }, 
	{ NOTE_B2, 136 }, 
	{ NOTE_A2, 136 }, 
	{ NOTE_B2, 142 }, 
	{ NOTE_FS2, 136 }, 
	{ NOTE_FS2, 136 }, 
	{ NOTE_FS2, 136 }, 
	{ NOTE_FS2, 136 }, 
	{ NOTE_FS2, 136 }, 
	{ NOTE_FS2, 136 }, 
	{ NOTE_FS2, 136 }, 
	{ NOTE_FS2, 136 }, 
	{ NOTE_FS2, 136 }, 
	{ NOTE_A2, 136 }, 
	{ NOTE_B2, 136 }, 
	{ NOTE_A2, 136 }, 
	{ NOTE_B2, 141 }, 
	{ NOTE_E2, 136 }, 
	{ NOTE_E2, 136 }, 
	{ NOTE_E2, 136 }, 
	{ NOTE_E2, 136 }, 
	{ NOTE_E2, 136 }, 
	{ NOTE_E2, 136 }, 
	{ NOTE_E2, 136 }, 
	{ NOTE_E2, 139 }, 
	{ NOTE_E3, 273 }, 
	{ NOTE_E2, 136 }, 
	{ NOTE_E2, 136 }, 
	{ NOTE_D3, 273 }, 
	{ NOTE_E3, 273 }, 
	{ NOTE_REST, 1091 }, 
	{ NOTE_C3, 136 }, 
	{ NOTE_C3, 136 }, 
	{ NOTE_C3, 136 }, 
	{ NOTE_C3, 136 }, 
	{ NOTE_CS3, 273 }, 
	{ NOTE_C3, 273 }, 
	{ NOTE_C3, 136 }, 
	{ NOTE_C3, 136 }, 
	{ NOTE_C3, 136 }, 
	{ NOTE_C3, 136 }, 
	{ NOTE_EB3, 273 }, 
	{ NOTE_B2, 275 }, 
	{ NOTE_E3, 273 }, 
	{ NOTE_E2, 136 }, 
	{ NOTE_E2, 136 }, 
	{ NOTE_D3, 273 }, 
	{ NOTE_E3, 273 }, 
	{ NOTE_REST, 1091 }, 
	{ NOTE_C3, 136 }, 
	{ NOTE_C3, 136 }, 
	{ NOTE_C3, 136 }, 
	{ NOTE_C3, 136 }, 
	{ NOTE_CS3, 273 }, 
	{ NOTE_C3, 274 }, 
	{ NOTE_FS3, 136 }, 
	{ NOTE_E3, 136 }, 
	{ NOTE_EB3, 136 }, 
	{ NOTE_REST, 137 }, 
	{ NOTE_EB3, 136 }, 
	{ NOTE_C3, 136 }, 
	{ NOTE_B2, 136 }, 
	{ NOTE_REST, 137 }, 
	{ NOTE_E2, 273 }, 
	{ NOTE_E2, 273 }, 
	{ NOTE_REST, 545 }, 
	{ NOTE_F2, 273 }, 
	{ NOTE_F2, 273 }, 
	{ NOTE_REST, 545 }, 
	{ NOTE_E2, 1091 }, 
	{ NOTE_FS2, 545 }, 
	{ NOTE_G2, 2182 }, 
	{ NOTE_C3, 1091 }, 
	{ NOTE_B2, 545 }, 
	{ NOTE_A2, 2183 }, 
	{ NOTE_D3, 1091 }, 
	{ NOTE_C3, 545 }, 
	{ NOTE_B2, 1091 }, 
	{ NOTE_E2, 1091 }, 
	{ NOTE_G2, 545 }, 
	{ NOTE_C3, 2183 }, 
	{ NOTE_E2, 273 }, 
	{ NOTE_E2, 273 }, 
	{ NOTE_REST, 545 }, 
	{ NOTE_F2, 273 }, 
	{ NOTE_F2, 273 }, 
	{ NOTE_REST, 545 }, 
	{ NOTE_E2, 1091 }, 
	{ NOTE_G2, 545 }, 
	{ NOTE_C3, 2182 }, 
	{ NOTE_E2, 273 }, 
	{ NOTE_E2, 273 }, 
	{ NOTE_REST, 545 }, 
	{ NOTE_F2, 273 }, 
	{ NOTE_F2, 273 }, 
	{ NOTE_REST, 545 }, 
	{ NOTE_E2, 136 }, 
	{ NOTE_E2, 136 }, 
	{ NOTE_E2, 136 }, 
	{ NOTE_E2, 136 }, 
	{ NOTE_E2, 136 }, 
	{ NOTE_E2, 136 }, 
	{ NOTE_E2, 136 }, 
	{ NOTE_E2, 136 }, 
	{ NOTE_E2, 136 }, 
	{ NOTE_G2, 136 }, 
	{ NOTE_A2, 136 }, 
	{ NOTE_REST, 136 }, 
	{ NOTE_BB2, 136 }, 
	{ NOTE_A2, 136 }, 
	{ NOTE_G2, 136 }, 
	{ NOTE_A2, 142 }, 
	{ NOTE_E2, 136 }, 
	{ NOTE_E2, 136 }, 
	{ NOTE_E2, 136 }, 
	{ NOTE_E2, 136 }, 
	{ NOTE_E2, 136 }, 
	{ NOTE_E2, 136 }, 
	{ NOTE_E2, 136 }, 
	{ NOTE_E2, 136 }, 
	{ NOTE_E2, 136 }, 
	{ NOTE_G2, 136 }, 
	{ NOTE_A2, 136 }, 
	{ NOTE_G2, 136 }, 
	{ NOTE_A2, 141 }, 
	{ NOTE_E2, 136 }, 
	{ NOTE_E2, 136 }, 
	{ NOTE_E2, 136 }, 
	{ NOTE_E2, 136 }, 
	{ NOTE_E2, 136 }, 
	{ NOTE_E2, 136 }, 
	{ NOTE_E2, 136 }, 
	{ NOTE_E2, 136 }, 
	{ NOTE_E2, 136 }, 
	{ NOTE_G2, 136 }, 
	{ NOTE_A2, 136 }, 
	{ NOTE_REST, 136 }, 
	{ NOTE_BB2, 136 }, 
	{ NOTE_A2, 136 }, 
	{ NOTE_G2, 136 }, 
	{ NOTE_A2, 142 }, 
	{ NOTE_E2, 136 }, 
	{ NOTE_E2, 136 }, 
	{ NOTE_E2, 136 }, 
	{ NOTE_E2, 136 }, 
	{ NOTE_E2, 136 }, 
	{ NOTE_E2, 136 }, 
	{ NOTE_E2, 136 }, 
	{ NOTE_E2, 136 }, 
	{ NOTE_E2, 136 }, 
	{ NOTE_G2, 136 }, 
	{ NOTE_A2, 136 }, 
	{ NOTE_G2, 136 }, 
	{ NOTE_A2, 141 }, 
	{ NOTE_E2, 136 }, 
	{ NOTE_E2, 136 }, 
	{ NOTE_E2, 136 }, 
	{ NOTE_E2, 136 }, 
	{ NOTE_E2, 136 }, 
	{ NOTE_E2, 136 }, 
	{ NOTE_E2, 136 }, 
	{ NOTE_E2, 136 }, 
	{ NOTE_E2, 136 }, 
	{ NOTE_G2, 136 }, 
	{ NOTE_A2, 136 }, 
	{ NOTE_REST, 136 }, 
	{ NOTE_BB2, 136 }, 
	{ NOTE_A2, 136 }, 
	{ NOTE_G2, 136 }, 
	{ NOTE_A2, 142 }, 
	{ NOTE_E2, 136 }, 
	{ NOTE_E2, 136 }, 
	{ NOTE_E2, 136 }, 
	{ NOTE_E2, 136 }, 
	{ NOTE_E2, 136 }, 
	{ NOTE_E2, 136 }, 
	{ NOTE_E2, 136 }, 
	{ NOTE_E2, 136 }, 
	{ NOTE_E2, 136 }, 
	{ NOTE_G2, 136 }, 
	{ NOTE_A2, 136 }, 
	{ NOTE_G2, 136 }, 
	{ NOTE_A2, 141 }, 
	{ NOTE_E2, 136 }, 
	{ NOTE_E2, 136 }, 
	{ NOTE_E2, 136 }, 
	{ NOTE_E2, 136 }, 
	{ NOTE_E2, 136 }, 
	{ NOTE_E2, 136 }, 
	{ NOTE_E2, 136 }, 
	{ NOTE_E2, 136 }, 
	{ NOTE_E2, 136 }, 
	{ NOTE_G2, 136 }, 
	{ NOTE_A2, 136 }, 
	{ NOTE_REST, 136 }, 
	{ NOTE_BB2, 136 }, 
	{ NOTE_A2, 136 }, 
	{ NOTE_G2, 136 }, 
	{ NOTE_A2, 142 }, 
	{ NOTE_E2, 136 }, 
	{ NOTE_E2, 136 }, 
	{ NOTE_E2, 136 }, 
	{ NOTE_E2, 136 }, 
	{ NOTE_E2, 136 }, 
	{ NOTE_E2, 136 }, 
	{ NOTE_E2, 136 }, 
	{ NOTE_E2, 136 }, 
	{ NOTE_E2, 136 }, 
	{ NOTE_G2, 136 }, 
	{ NOTE_A2, 136 }, 
	{ NOTE_G2, 136 }, 
	{ NOTE_A2, 141 }, 
	{ NOTE_REST, 1091 }, 
	{ NOTE_G2, 136 }, 
	{ NOTE_FS2, 136 }, 
	{ NOTE_E2, 136 }, 
	{ NOTE_G2, 136 }, 
	{ NOTE_FS2, 136 }, 
	{ NOTE_E2, 136 }, 
	{ NOTE_G2, 136 }, 
	{ NOTE_FS2, 139 }, 
	{ NOTE_E2, 6546 }, 
	{ NOTE_REST, 2182 }, 
	{ NOTE_REST, 2182 }, 
};
const uint16_t NUM_OF_NOTES3 = sizeof(melody3)/sizeof(melody3[0]);

const Note melody4[] PROGMEM = {
	{ NOTE_REST, 2182 }, 
	{ NOTE_REST, 1091 }, 
	{ NOTE_REST, 2182 }, 
	{ NOTE_REST, 2182 }, 
	{ NOTE_REST, 2182 }, 
	{ NOTE_REST, 2182 }, 
	{ NOTE_REST, 2182 }, 
	{ NOTE_REST, 2182 }, 
	{ NOTE_REST, 2182 }, 
	{ NOTE_REST, 2182 }, 
	{ NOTE_REST, 2182 }, 
	{ NOTE_REST, 2182 }, 
	{ NOTE_REST, 2182 }, 
	{ NOTE_REST, 2182 }, 
	{ NOTE_REST, 2182 }, 
	{ NOTE_REST, 2182 }, 
	{ NOTE_REST, 1091 }, 
	{ NOTE_REST, 2182 }, 
	{ NOTE_REST, 2182 }, 
	{ NOTE_REST, 1773 }, 
	{ NOTE_REST, 2182 }, 
	{ NOTE_REST, 1773 }, 
	{ NOTE_REST, 2182 }, 
	{ NOTE_REST, 1773 }, 
	{ NOTE_REST, 2182 }, 
	{ NOTE_REST, 1773 }, 
	{ NOTE_REST, 2182 }, 
	{ NOTE_REST, 1773 }, 
	{ NOTE_REST, 2182 }, 
	{ NOTE_REST, 1773 }, 
	{ NOTE_REST, 2182 }, 
	{ NOTE_REST, 1773 }, 
	{ NOTE_REST, 2182 }, 
	{ NOTE_REST, 1773 }, 
	{ NOTE_REST, 1091 }, 
	{ NOTE_REST, 4364 }, 
	{ NOTE_REST, 4364 }, 
	{ NOTE_REST, 2182 }, 
	{ NOTE_REST, 2182 }, 
	{ NOTE_REST, 2182 }, 
	{ NOTE_REST, 2182 }, 
	{ NOTE_REST, 2182 }, 
	{ NOTE_REST, 2182 }, 
	{ NOTE_REST, 2182 }, 
	{ NOTE_REST, 1091 }, 
	{ NOTE_REST, 2182 }, 
	{ NOTE_REST, 2182 }, 
	{ NOTE_REST, 1636 }, 
	{ NOTE_REST, 2182 }, 
	{ NOTE_REST, 2182 }, 
	{ NOTE_REST, 2182 }, 
	{ NOTE_REST, 2182 }, 
	{ NOTE_REST, 2182 }, 
	{ NOTE_REST, 1091 }, 
	{ NOTE_REST, 2182 }, 
	{ NOTE_REST, 1773 }, 
	{ NOTE_REST, 2182 }, 
	{ NOTE_REST, 1773 }, 
	{ NOTE_REST, 2182 }, 
	{ NOTE_REST, 1773 }, 
	{ NOTE_REST, 2182 }, 
	{ NOTE_REST, 1773 }, 
	{ NOTE_REST, 1091 }, 
	{ NOTE_REST, 4364 }, 
	{ NOTE_REST, 3273 }, 
	{ NOTE_REST, 545 }, 
	{ NOTE_REST, 545 }, 
	{ NOTE_REST, 2182 }, 
	{ NOTE_REST, 2182 }, 
	{ NOTE_REST, 2182 }, 
	{ NOTE_REST, 2182 }, 
	{ NOTE_REST, 2182 }, 
	{ NOTE_REST, 2182 }, 
	{ NOTE_REST, 2182 }, 
	{ NOTE_REST, 1091 }, 
	{ NOTE_REST, 2182 }, 
	{ NOTE_REST, 2182 }, 
	{ NOTE_REST, 1636 }, 
	{ NOTE_REST, 2182 }, 
	{ NOTE_REST, 2182 }, 
	{ NOTE_REST, 2182 }, 
	{ NOTE_REST, 2182 }, 
	{ NOTE_REST, 2182 }, 
	{ NOTE_E2, 288 }, 
	{ NOTE_B2, 288 }, 
	{ NOTE_E3, 288 }, 
	{ NOTE_G3, 288 }, 
	{ NOTE_D3, 288 }, 
	{ NOTE_A3, 288 }, 
	{ NOTE_D4, 288 }, 
	{ NOTE_A3, 288 }, 
	{ NOTE_E4, 96 }, 
	{ NOTE_FS4, 96 }, 
	{ NOTE_E4, 96 }, 
	{ NOTE_D4, 288 }, 
	{ NOTE_A3, 288 }, 
	{ NOTE_G4, 288 }, 
	{ NOTE_C3, 288 }, 
	{ NOTE_G3, 288 }, 
	{ NOTE_D4, 288 }, 
	{ NOTE_G3, 295 }, 
	{ NOTE_D4, 288 }, 
	{ NOTE_G3, 288 }, 
	{ NOTE_E3, 288 }, 
	{ NOTE_B3, 288 }, 
	{ NOTE_A2, 288 }, 
	{ NOTE_A3, 288 }, 
	{ NOTE_B3, 288 }, 
	{ NOTE_A2, 288 }, 
	{ NOTE_B2, 288 }, 
	{ NOTE_A3, 288 }, 
	{ NOTE_B3, 288 }, 
	{ NOTE_B2, 288 }, 
	{ NOTE_EB3, 288 }, 
	{ NOTE_A3, 288 }, 
	{ NOTE_B3, 288 }, 
	{ NOTE_G2, 295 }, 
	{ NOTE_E2, 288 }, 
	{ NOTE_B2, 288 }, 
	{ NOTE_E3, 288 }, 
	{ NOTE_G3, 288 }, 
	{ NOTE_D3, 288 }, 
	{ NOTE_A3, 288 }, 
	{ NOTE_D4, 288 }, 
	{ NOTE_A3, 288 }, 
	{ NOTE_E4, 96 }, 
	{ NOTE_FS4, 96 }, 
	{ NOTE_E4, 96 }, 
	{ NOTE_D4, 288 }, 
	{ NOTE_A3, 288 }, 
	{ NOTE_G4, 288 }, 
	{ NOTE_C3, 288 }, 
	{ NOTE_G3, 288 }, 
	{ NOTE_D4, 288 }, 
	{ NOTE_G3, 295 }, 
	{ NOTE_D4, 288 }, 
	{ NOTE_G3, 288 }, 
	{ NOTE_E3, 288 }, 
	{ NOTE_B3, 288 }, 
	{ NOTE_A2, 288 }, 
	{ NOTE_A3, 288 }, 
	{ NOTE_B3, 288 }, 
	{ NOTE_A2, 288 }, 
	{ NOTE_B2, 288 }, 
	{ NOTE_A3, 288 }, 
	{ NOTE_B3, 288 }, 
	{ NOTE_B2, 288 }, 
	{ NOTE_EB3, 288 }, 
	{ NOTE_A3, 288 }, 
	{ NOTE_B3, 288 }, 
	{ NOTE_G2, 295 }, 
	{ NOTE_E2, 288 }, 
	{ NOTE_B2, 288 }, 
	{ NOTE_E3, 288 }, 
	{ NOTE_G3, 288 }, 
	{ NOTE_D3, 288 }, 
	{ NOTE_A3, 288 }, 
	{ NOTE_D4, 288 }, 
	{ NOTE_A3, 288 }, 
	{ NOTE_E4, 96 }, 
	{ NOTE_FS4, 96 }, 
	{ NOTE_E4, 96 }, 
	{ NOTE_D4, 288 }, 
	{ NOTE_A3, 288 }, 
	{ NOTE_G4, 288 }, 
	{ NOTE_C3, 288 }, 
	{ NOTE_G3, 288 }, 
	{ NOTE_D4, 288 }, 
	{ NOTE_G3, 295 }, 
	{ NOTE_D4, 288 }, 
	{ NOTE_G3, 288 }, 
	{ NOTE_E3, 288 }, 
	{ NOTE_B3, 288 }, 
	{ NOTE_A2, 288 }, 
	{ NOTE_A3, 288 }, 
	{ NOTE_B3, 288 }, 
	{ NOTE_A2, 288 }, 
	{ NOTE_B2, 288 }, 
	{ NOTE_A3, 288 }, 
	{ NOTE_B3, 288 }, 
	{ NOTE_B2, 288 }, 
	{ NOTE_EB3, 288 }, 
	{ NOTE_A3, 288 }, 
	{ NOTE_B3, 288 }, 
	{ NOTE_G2, 295 }, 
	{ NOTE_E2, 288 }, 
	{ NOTE_B2, 288 }, 
	{ NOTE_E3, 288 }, 
	{ NOTE_G3, 288 }, 
	{ NOTE_D3, 288 }, 
	{ NOTE_A3, 288 }, 
	{ NOTE_D4, 288 }, 
	{ NOTE_A3, 288 }, 
	{ NOTE_E4, 96 }, 
	{ NOTE_FS4, 96 }, 
	{ NOTE_E4, 96 }, 
	{ NOTE_D4, 288 }, 
	{ NOTE_A3, 288 }, 
	{ NOTE_G4, 288 }, 
	{ NOTE_C3, 288 }, 
	{ NOTE_G3, 288 }, 
	{ NOTE_D4, 288 }, 
	{ NOTE_G3, 295 }, 
	{ NOTE_D4, 288 }, 
	{ NOTE_G3, 288 }, 
	{ NOTE_E3, 288 }, 
	{ NOTE_B3, 288 }, 
	{ NOTE_A2, 288 }, 
	{ NOTE_A3, 288 }, 
	{ NOTE_B3, 288 }, 
	{ NOTE_A2, 288 }, 
	{ NOTE_B2, 288 }, 
	{ NOTE_A3, 288 }, 
	{ NOTE_B3, 288 }, 
	{ NOTE_B2, 288 }, 
	{ NOTE_EB3, 288 }, 
	{ NOTE_A3, 288 }, 
	{ NOTE_B3, 288 }, 
	{ NOTE_G2, 295 }, 
	{ NOTE_E2, 288 }, 
	{ NOTE_B2, 288 }, 
	{ NOTE_E3, 288 }, 
	{ NOTE_G3, 288 }, 
	{ NOTE_D3, 288 }, 
	{ NOTE_A3, 288 }, 
	{ NOTE_D4, 288 }, 
	{ NOTE_A3, 288 }, 
	{ NOTE_E4, 96 }, 
	{ NOTE_FS4, 96 }, 
	{ NOTE_E4, 96 }, 
	{ NOTE_D4, 288 }, 
	{ NOTE_A3, 288 }, 
	{ NOTE_G4, 288 }, 
	{ NOTE_C3, 288 }, 
	{ NOTE_G3, 288 }, 
	{ NOTE_D4, 288 }, 
	{ NOTE_G3, 295 }, 
	{ NOTE_D4, 288 }, 
	{ NOTE_G3, 288 }, 
	{ NOTE_E3, 288 }, 
	{ NOTE_B3, 288 }, 
	{ NOTE_A2, 288 }, 
	{ NOTE_A3, 288 }, 
	{ NOTE_B3, 288 }, 
	{ NOTE_A2, 288 }, 
	{ NOTE_B2, 288 }, 
	{ NOTE_A3, 288 }, 
	{ NOTE_B3, 288 }, 
	{ NOTE_B2, 288 }, 
	{ NOTE_EB3, 288 }, 
	{ NOTE_A3, 288 }, 
	{ NOTE_B3, 288 }, 
	{ NOTE_G2, 295 }, 
	{ NOTE_E2, 288 }, 
	{ NOTE_B2, 288 }, 
	{ NOTE_E3, 288 }, 
	{ NOTE_G3, 288 }, 
	{ NOTE_D3, 288 }, 
	{ NOTE_A3, 288 }, 
	{ NOTE_D4, 288 }, 
	{ NOTE_A3, 288 }, 
	{ NOTE_E4, 96 }, 
	{ NOTE_FS4, 96 }, 
	{ NOTE_E4, 96 }, 
	{ NOTE_D4, 288 }, 
	{ NOTE_A3, 288 }, 
	{ NOTE_G4, 288 }, 
	{ NOTE_C3, 288 }, 
	{ NOTE_G3, 288 }, 
	{ NOTE_D4, 288 }, 
	{ NOTE_G3, 295 }, 
	{ NOTE_D4, 288 }, 
	{ NOTE_G3, 288 }, 
	{ NOTE_E3, 288 }, 
	{ NOTE_B3, 288 }, 
	{ NOTE_A2, 288 }, 
	{ NOTE_A3, 288 }, 
	{ NOTE_B3, 288 }, 
	{ NOTE_A2, 288 }, 
	{ NOTE_B2, 288 }, 
	{ NOTE_A3, 288 }, 
	{ NOTE_B3, 288 }, 
	{ NOTE_B2, 288 }, 
	{ NOTE_EB3, 288 }, 
	{ NOTE_A3, 288 }, 
	{ NOTE_B3, 288 }, 
	{ NOTE_G2, 295 }, 
	{ NOTE_E2, 288 }, 
	{ NOTE_B2, 288 }, 
	{ NOTE_E3, 288 }, 
	{ NOTE_G3, 288 }, 
	{ NOTE_D3, 288 }, 
	{ NOTE_A3, 288 }, 
	{ NOTE_D4, 288 }, 
	{ NOTE_A3, 288 }, 
	{ NOTE_E4, 96 }, 
	{ NOTE_FS4, 96 }, 
	{ NOTE_E4, 96 }, 
	{ NOTE_D4, 288 }, 
	{ NOTE_A3, 288 }, 
	{ NOTE_G4, 288 }, 
	{ NOTE_C3, 288 }, 
	{ NOTE_G3, 288 }, 
	{ NOTE_D4, 288 }, 
	{ NOTE_G3, 295 }, 
	{ NOTE_D4, 288 }, 
	{ NOTE_G3, 288 }, 
	{ NOTE_E3, 288 }, 
	{ NOTE_B3, 288 }, 
	{ NOTE_A2, 288 }, 
	{ NOTE_A3, 288 }, 
	{ NOTE_B3, 288 }, 
	{ NOTE_A2, 288 }, 
	{ NOTE_B2, 288 }, 
	{ NOTE_A3, 288 }, 
	{ NOTE_B3, 288 }, 
	{ NOTE_B2, 288 }, 
	{ NOTE_EB3, 288 }, 
	{ NOTE_A3, 288 }, 
	{ NOTE_B3, 288 }, 
	{ NOTE_G2, 295 }, 
	{ NOTE_E2, 288 }, 
	{ NOTE_B2, 288 }, 
	{ NOTE_E3, 288 }, 
	{ NOTE_G3, 288 }, 
	{ NOTE_D3, 288 }, 
	{ NOTE_A3, 288 }, 
	{ NOTE_D4, 288 }, 
	{ NOTE_A3, 288 }, 
	{ NOTE_E4, 96 }, 
	{ NOTE_FS4, 96 }, 
	{ NOTE_E4, 96 }, 
	{ NOTE_D4, 288 }, 
	{ NOTE_A3, 288 }, 
	{ NOTE_G4, 288 }, 
	{ NOTE_C3, 288 }, 
	{ NOTE_G3, 288 }, 
	{ NOTE_D4, 288 }, 
	{ NOTE_G3, 295 }, 
	{ NOTE_D4, 288 }, 
	{ NOTE_G3, 288 }, 
	{ NOTE_E3, 288 }, 
	{ NOTE_B3, 288 }, 
	{ NOTE_A2, 288 }, 
	{ NOTE_A3, 288 }, 
	{ NOTE_B3, 288 }, 
	{ NOTE_A2, 288 }, 
	{ NOTE_B2, 288 }, 
	{ NOTE_A3, 288 }, 
	{ NOTE_B3, 288 }, 
	{ NOTE_B2, 288 }, 
	{ NOTE_EB3, 288 }, 
	{ NOTE_A3, 288 }, 
	{ NOTE_B3, 288 }, 
	{ NOTE_G2, 295 }, 
	{ NOTE_REST, 4615 }, 
	{ NOTE_REST, 4615 }, 
	{ NOTE_REST, 4615 }, 
	{ NOTE_REST, 4615 }, 
	{ NOTE_REST, 4615 }, 
	{ NOTE_REST, 2182 }, 
	{ NOTE_REST, 2182 }, 
	{ NOTE_REST, 2182 }, 
	{ NOTE_REST, 1773 }, 
	{ NOTE_REST, 2182 }, 
	{ NOTE_REST, 1773 }, 
	{ NOTE_REST, 2182 }, 
	{ NOTE_REST, 1773 }, 
	{ NOTE_REST, 2182 }, 
	{ NOTE_REST, 1773 }, 
	{ NOTE_REST, 2182 }, 
	{ NOTE_REST, 1773 }, 
	{ NOTE_REST, 2182 }, 
	{ NOTE_REST, 1773 }, 
	{ NOTE_REST, 1091 }, 
	{ NOTE_REST, 2182 }, 
	{ NOTE_REST, 2182 }, 
	{ NOTE_REST, 2182 }, 
	{ NOTE_REST, 2182 }, 
	{ NOTE_REST, 1091 }, 
	{ NOTE_REST, 2182 }, 
	{ NOTE_REST, 2182 }, 
	{ NOTE_REST, 2182 }, 
	{ NOTE_REST, 2182 }, 
	{ NOTE_REST, 2182 }, 
	{ NOTE_REST, 2182 }, 
	{ NOTE_REST, 2182 }, 
	{ NOTE_REST, 2182 }, 
	{ NOTE_REST, 1091 }, 
	{ NOTE_REST, 2182 }, 
	{ NOTE_REST, 2182 }, 
	{ NOTE_REST, 1091 }, 
	{ NOTE_REST, 2182 }, 
	{ NOTE_REST, 1773 }, 
	{ NOTE_REST, 2182 }, 
	{ NOTE_REST, 1773 }, 
	{ NOTE_REST, 2182 }, 
	{ NOTE_REST, 1773 }, 
	{ NOTE_REST, 2182 }, 
	{ NOTE_REST, 1773 }, 
	{ NOTE_REST, 1091 }, 
	{ NOTE_REST, 4364 }, 
	{ NOTE_REST, 3273 }, 
	{ NOTE_REST, 545 }, 
	{ NOTE_REST, 545 }, 
	{ NOTE_REST, 2182 }, 
	{ NOTE_REST, 2182 }, 
	{ NOTE_REST, 2182 }, 
	{ NOTE_REST, 2182 }, 
	{ NOTE_REST, 2182 }, 
	{ NOTE_REST, 2182 }, 
	{ NOTE_REST, 2182 }, 
	{ NOTE_REST, 1091 }, 
	{ NOTE_REST, 2182 }, 
	{ NOTE_REST, 2182 }, 
	{ NOTE_REST, 1636 }, 
	{ NOTE_REST, 2182 }, 
	{ NOTE_REST, 2182 }, 
	{ NOTE_REST, 1773 }, 
	{ NOTE_REST, 2182 }, 
	{ NOTE_REST, 1773 }, 
	{ NOTE_REST, 2182 }, 
	{ NOTE_REST, 1773 }, 
	{ NOTE_REST, 2182 }, 
	{ NOTE_REST, 1773 }, 
	{ NOTE_REST, 2182 }, 
	{ NOTE_REST, 2182 }, 
	{ NOTE_REST, 2182 }, 
	{ NOTE_REST, 2182 }, 
	{ NOTE_REST, 2182 }, 
	{ NOTE_REST, 2182 }, 
};
const uint16_t NUM_OF_NOTES4 = sizeof(melody4)/sizeof(melody4[0]);

