/*
 * Song: Turkish March by Mozart
 *
 *	Melody 0 | Piano Right Hand
 *	Melody 1 | Piano Right Hand
 *	Melody 2 | Piano Right Hand
 *	Melody 3 | Piano Left Hand
 *	Melody 4 | Piano Left Hand
*/

#include <Arduino.h>
#include "notes.h"

const Note melody0[] PROGMEM = {
	{ NOTE_B4, 125 }, 
	{ NOTE_A4, 125 }, 
	{ NOTE_GS4, 125 }, 
	{ NOTE_A4, 125 }, 
	{ NOTE_C5, 250 }, 
	{ NOTE_REST, 250 }, 
	{ NOTE_D5, 125 }, 
	{ NOTE_C5, 125 }, 
	{ NOTE_B4, 125 }, 
	{ NOTE_C5, 125 }, 
	{ NOTE_E5, 250 }, 
	{ NOTE_REST, 250 }, 
	{ NOTE_F5, 125 }, 
	{ NOTE_E5, 125 }, 
	{ NOTE_DS5, 125 }, 
	{ NOTE_E5, 125 }, 
	{ NOTE_B5, 125 }, 
	{ NOTE_A5, 125 }, 
	{ NOTE_GS5, 125 }, 
	{ NOTE_A5, 125 }, 
	{ NOTE_B5, 125 }, 
	{ NOTE_A5, 125 }, 
	{ NOTE_GS5, 125 }, 
	{ NOTE_A5, 125 }, 
	{ NOTE_C6, 500 }, 
	{ NOTE_A5, 250 }, 
	{ NOTE_C6, 250 }, 
	{ NOTE_G5, 0 }, 
	{ NOTE_A5, 0 }, 
	{ NOTE_B5, 250 }, 
	{ NOTE_FS5, 250 }, 
	{ NOTE_E5, 250 }, 
	{ NOTE_FS5, 250 }, 
	{ NOTE_G5, 0 }, 
	{ NOTE_A5, 0 }, 
	{ NOTE_B5, 250 }, 
	{ NOTE_FS5, 250 }, 
	{ NOTE_E5, 250 }, 
	{ NOTE_FS5, 250 }, 
	{ NOTE_G5, 0 }, 
	{ NOTE_A5, 0 }, 
	{ NOTE_B5, 250 }, 
	{ NOTE_FS5, 250 }, 
	{ NOTE_E5, 250 }, 
	{ NOTE_DS5, 250 }, 
	{ NOTE_E5, 500 }, 
	{ NOTE_C5, 250 }, 
	{ NOTE_D5, 250 }, 
	{ NOTE_E5, 250 }, 
	{ NOTE_E5, 250 }, 
	{ NOTE_A5, 125 }, 
	{ NOTE_G5, 125 }, 
	{ NOTE_F5, 125 }, 
	{ NOTE_E5, 125 }, 
	{ NOTE_D5, 500 }, 
	{ NOTE_C5, 250 }, 
	{ NOTE_D5, 250 }, 
	{ NOTE_E5, 250 }, 
	{ NOTE_E5, 250 }, 
	{ NOTE_A5, 125 }, 
	{ NOTE_G5, 125 }, 
	{ NOTE_F5, 125 }, 
	{ NOTE_E5, 125 }, 
	{ NOTE_B4, 500 }, 
	{ NOTE_A4, 250 }, 
	{ NOTE_B4, 250 }, 
	{ NOTE_C5, 250 }, 
	{ NOTE_C5, 250 }, 
	{ NOTE_F5, 125 }, 
	{ NOTE_E5, 125 }, 
	{ NOTE_D5, 125 }, 
	{ NOTE_C5, 125 }, 
	{ NOTE_B4, 500 }, 
	{ NOTE_A4, 250 }, 
	{ NOTE_B4, 250 }, 
	{ NOTE_C5, 250 }, 
	{ NOTE_C5, 250 }, 
	{ NOTE_F5, 125 }, 
	{ NOTE_E5, 125 }, 
	{ NOTE_D5, 125 }, 
	{ NOTE_C5, 125 }, 
	{ NOTE_GS4, 500 }, 
	{ NOTE_B4, 125 }, 
	{ NOTE_A4, 125 }, 
	{ NOTE_GS4, 125 }, 
	{ NOTE_A4, 125 }, 
	{ NOTE_C5, 250 }, 
	{ NOTE_REST, 250 }, 
	{ NOTE_D5, 125 }, 
	{ NOTE_C5, 125 }, 
	{ NOTE_B4, 125 }, 
	{ NOTE_C5, 125 }, 
	{ NOTE_E5, 250 }, 
	{ NOTE_REST, 250 }, 
	{ NOTE_F5, 125 }, 
	{ NOTE_E5, 125 }, 
	{ NOTE_DS5, 125 }, 
	{ NOTE_E5, 125 }, 
	{ NOTE_B5, 125 }, 
	{ NOTE_A5, 125 }, 
	{ NOTE_GS5, 125 }, 
	{ NOTE_A5, 125 }, 
	{ NOTE_B5, 125 }, 
	{ NOTE_A5, 125 }, 
	{ NOTE_GS5, 125 }, 
	{ NOTE_A5, 125 }, 
	{ NOTE_C6, 500 }, 
	{ NOTE_A5, 250 }, 
	{ NOTE_B5, 250 }, 
	{ NOTE_C6, 250 }, 
	{ NOTE_B5, 250 }, 
	{ NOTE_A5, 250 }, 
	{ NOTE_GS5, 250 }, 
	{ NOTE_A5, 250 }, 
	{ NOTE_E5, 250 }, 
	{ NOTE_F5, 250 }, 
	{ NOTE_D5, 250 }, 
	{ NOTE_C5, 500 }, 
	{ NOTE_B4, 375 }, 
	{ NOTE_A4, 62 }, 
	{ NOTE_B4, 63 }, 
	{ NOTE_A4, 500 }, 
	{ NOTE_A4, 250 }, 
	{ NOTE_B4, 250 }, 
	{ NOTE_CS5, 500 }, 
	{ NOTE_A4, 250 }, 
	{ NOTE_B4, 250 }, 
	{ NOTE_CS5, 250 }, 
	{ NOTE_B4, 250 }, 
	{ NOTE_A4, 250 }, 
	{ NOTE_GS4, 250 }, 
	{ NOTE_FS4, 250 }, 
	{ NOTE_GS4, 250 }, 
	{ NOTE_A4, 250 }, 
	{ NOTE_B4, 250 }, 
	{ NOTE_GS4, 250 }, 
	{ NOTE_E4, 250 }, 
	{ NOTE_A4, 250 }, 
	{ NOTE_B4, 250 }, 
	{ NOTE_CS5, 500 }, 
	{ NOTE_A4, 250 }, 
	{ NOTE_B4, 250 }, 
	{ NOTE_CS5, 250 }, 
	{ NOTE_B4, 250 }, 
	{ NOTE_A4, 250 }, 
	{ NOTE_GS4, 250 }, 
	{ NOTE_FS4, 250 }, 
	{ NOTE_B4, 250 }, 
	{ NOTE_GS4, 250 }, 
	{ NOTE_E4, 250 }, 
	{ NOTE_A4, 500 }, 
	{ NOTE_CS6, 125 }, 
	{ NOTE_D6, 125 }, 
	{ NOTE_CS6, 125 }, 
	{ NOTE_B5, 125 }, 
	{ NOTE_A5, 125 }, 
	{ NOTE_B5, 125 }, 
	{ NOTE_A5, 125 }, 
	{ NOTE_GS5, 125 }, 
	{ NOTE_FS5, 125 }, 
	{ NOTE_A5, 125 }, 
	{ NOTE_GS5, 125 }, 
	{ NOTE_FS5, 125 }, 
	{ NOTE_F5, 125 }, 
	{ NOTE_FS5, 125 }, 
	{ NOTE_GS5, 125 }, 
	{ NOTE_F5, 125 }, 
	{ NOTE_CS5, 125 }, 
	{ NOTE_DS5, 125 }, 
	{ NOTE_F5, 125 }, 
	{ NOTE_CS5, 125 }, 
	{ NOTE_FS5, 125 }, 
	{ NOTE_F5, 125 }, 
	{ NOTE_FS5, 125 }, 
	{ NOTE_GS5, 125 }, 
	{ NOTE_A5, 125 }, 
	{ NOTE_GS5, 125 }, 
	{ NOTE_A5, 125 }, 
	{ NOTE_B5, 125 }, 
	{ NOTE_CS6, 125 }, 
	{ NOTE_C5, 125 }, 
	{ NOTE_CS6, 125 }, 
	{ NOTE_C5, 125 }, 
	{ NOTE_CS6, 125 }, 
	{ NOTE_D6, 125 }, 
	{ NOTE_CS6, 125 }, 
	{ NOTE_B5, 125 }, 
	{ NOTE_A5, 125 }, 
	{ NOTE_B5, 125 }, 
	{ NOTE_A5, 125 }, 
	{ NOTE_GS5, 125 }, 
	{ NOTE_FS5, 125 }, 
	{ NOTE_A5, 125 }, 
	{ NOTE_GS5, 125 }, 
	{ NOTE_FS5, 125 }, 
	{ NOTE_E5, 125 }, 
	{ NOTE_FS5, 125 }, 
	{ NOTE_GS5, 125 }, 
	{ NOTE_E5, 125 }, 
	{ NOTE_CS5, 125 }, 
	{ NOTE_DS5, 125 }, 
	{ NOTE_E5, 125 }, 
	{ NOTE_CS5, 125 }, 
	{ NOTE_DS5, 125 }, 
	{ NOTE_E5, 125 }, 
	{ NOTE_FS5, 125 }, 
	{ NOTE_DS5, 125 }, 
	{ NOTE_C4, 125 }, 
	{ NOTE_CS5, 125 }, 
	{ NOTE_DS5, 125 }, 
	{ NOTE_C4, 125 }, 
	{ NOTE_CS5, 500 }, 
	{ NOTE_E5, 125 }, 
	{ NOTE_D5, 125 }, 
	{ NOTE_CS5, 125 }, 
	{ NOTE_B4, 125 }, 
	{ NOTE_A4, 125 }, 
	{ NOTE_B4, 125 }, 
	{ NOTE_CS5, 125 }, 
	{ NOTE_D5, 125 }, 
	{ NOTE_E5, 125 }, 
	{ NOTE_FS5, 125 }, 
	{ NOTE_GS5, 125 }, 
	{ NOTE_A5, 125 }, 
	{ NOTE_A5, 125 }, 
	{ NOTE_GS5, 125 }, 
	{ NOTE_FS5, 125 }, 
	{ NOTE_E5, 125 }, 
	{ NOTE_E5, 125 }, 
	{ NOTE_D5, 125 }, 
	{ NOTE_CS5, 125 }, 
	{ NOTE_B4, 125 }, 
	{ NOTE_A4, 125 }, 
	{ NOTE_B4, 125 }, 
	{ NOTE_CS5, 125 }, 
	{ NOTE_D5, 125 }, 
	{ NOTE_E5, 125 }, 
	{ NOTE_FS5, 125 }, 
	{ NOTE_GS5, 125 }, 
	{ NOTE_A5, 125 }, 
	{ NOTE_AS5, 250 }, 
	{ NOTE_B5, 250 }, 
	{ NOTE_E5, 125 }, 
	{ NOTE_D5, 125 }, 
	{ NOTE_CS5, 125 }, 
	{ NOTE_B4, 125 }, 
	{ NOTE_A4, 125 }, 
	{ NOTE_B4, 125 }, 
	{ NOTE_CS5, 125 }, 
	{ NOTE_D5, 125 }, 
	{ NOTE_E5, 125 }, 
	{ NOTE_FS5, 125 }, 
	{ NOTE_GS5, 125 }, 
	{ NOTE_A5, 125 }, 
	{ NOTE_A5, 125 }, 
	{ NOTE_GS5, 125 }, 
	{ NOTE_FS5, 125 }, 
	{ NOTE_E5, 125 }, 
	{ NOTE_E5, 125 }, 
	{ NOTE_D5, 125 }, 
	{ NOTE_CS5, 125 }, 
	{ NOTE_B4, 125 }, 
	{ NOTE_CS5, 125 }, 
	{ NOTE_E5, 125 }, 
	{ NOTE_A4, 125 }, 
	{ NOTE_CS5, 125 }, 
	{ NOTE_B4, 125 }, 
	{ NOTE_D5, 125 }, 
	{ NOTE_GS4, 125 }, 
	{ NOTE_B4, 125 }, 
	{ NOTE_A4, 500 }, 
	{ NOTE_CS6, 125 }, 
	{ NOTE_D6, 125 }, 
	{ NOTE_CS6, 125 }, 
	{ NOTE_B5, 125 }, 
	{ NOTE_A5, 125 }, 
	{ NOTE_B5, 125 }, 
	{ NOTE_A5, 125 }, 
	{ NOTE_GS5, 125 }, 
	{ NOTE_FS5, 125 }, 
	{ NOTE_A5, 125 }, 
	{ NOTE_GS5, 125 }, 
	{ NOTE_FS5, 125 }, 
	{ NOTE_F5, 125 }, 
	{ NOTE_FS5, 125 }, 
	{ NOTE_GS5, 125 }, 
	{ NOTE_F5, 125 }, 
	{ NOTE_CS5, 125 }, 
	{ NOTE_DS5, 125 }, 
	{ NOTE_F5, 125 }, 
	{ NOTE_CS5, 125 }, 
	{ NOTE_FS5, 125 }, 
	{ NOTE_F5, 125 }, 
	{ NOTE_FS5, 125 }, 
	{ NOTE_GS5, 125 }, 
	{ NOTE_A5, 125 }, 
	{ NOTE_GS5, 125 }, 
	{ NOTE_A5, 125 }, 
	{ NOTE_B5, 125 }, 
	{ NOTE_CS6, 125 }, 
	{ NOTE_C5, 125 }, 
	{ NOTE_CS6, 125 }, 
	{ NOTE_C5, 125 }, 
	{ NOTE_CS6, 125 }, 
	{ NOTE_C5, 125 }, 
	{ NOTE_CS6, 125 }, 
	{ NOTE_AS5, 125 }, 
	{ NOTE_D6, 125 }, 
	{ NOTE_CS6, 125 }, 
	{ NOTE_D6, 125 }, 
	{ NOTE_CS6, 125 }, 
	{ NOTE_D6, 125 }, 
	{ NOTE_CS6, 125 }, 
	{ NOTE_D6, 125 }, 
	{ NOTE_CS6, 125 }, 
	{ NOTE_D6, 125 }, 
	{ NOTE_CS6, 125 }, 
	{ NOTE_B5, 125 }, 
	{ NOTE_A5, 125 }, 
	{ NOTE_GS5, 125 }, 
	{ NOTE_A5, 125 }, 
	{ NOTE_B5, 125 }, 
	{ NOTE_GS5, 125 }, 
	{ NOTE_A5, 125 }, 
	{ NOTE_B5, 125 }, 
	{ NOTE_CS6, 125 }, 
	{ NOTE_FS5, 125 }, 
	{ NOTE_F5, 125 }, 
	{ NOTE_FS5, 125 }, 
	{ NOTE_GS5, 125 }, 
	{ NOTE_F5, 125 }, 
	{ NOTE_FS5, 500 }, 
	{ NOTE_A4, 250 }, 
	{ NOTE_B4, 250 }, 
	{ NOTE_CS5, 500 }, 
	{ NOTE_A4, 250 }, 
	{ NOTE_B4, 250 }, 
	{ NOTE_CS5, 250 }, 
	{ NOTE_B4, 250 }, 
	{ NOTE_A4, 250 }, 
	{ NOTE_GS4, 250 }, 
	{ NOTE_FS4, 250 }, 
	{ NOTE_GS4, 250 }, 
	{ NOTE_A4, 250 }, 
	{ NOTE_B4, 250 }, 
	{ NOTE_GS4, 250 }, 
	{ NOTE_E4, 250 }, 
	{ NOTE_A4, 250 }, 
	{ NOTE_B4, 250 }, 
	{ NOTE_CS5, 500 }, 
	{ NOTE_A4, 250 }, 
	{ NOTE_B4, 250 }, 
	{ NOTE_CS5, 250 }, 
	{ NOTE_B4, 250 }, 
	{ NOTE_A4, 250 }, 
	{ NOTE_GS4, 250 }, 
	{ NOTE_FS4, 250 }, 
	{ NOTE_B4, 250 }, 
	{ NOTE_GS4, 250 }, 
	{ NOTE_E4, 250 }, 
	{ NOTE_A4, 500 }, 
	{ NOTE_B4, 125 }, 
	{ NOTE_A4, 125 }, 
	{ NOTE_GS4, 125 }, 
	{ NOTE_A4, 125 }, 
	{ NOTE_C5, 250 }, 
	{ NOTE_REST, 250 }, 
	{ NOTE_D5, 125 }, 
	{ NOTE_C5, 125 }, 
	{ NOTE_B4, 125 }, 
	{ NOTE_C5, 125 }, 
	{ NOTE_E5, 250 }, 
	{ NOTE_REST, 250 }, 
	{ NOTE_F5, 125 }, 
	{ NOTE_E5, 125 }, 
	{ NOTE_DS5, 125 }, 
	{ NOTE_E5, 125 }, 
	{ NOTE_B5, 125 }, 
	{ NOTE_A5, 125 }, 
	{ NOTE_GS5, 125 }, 
	{ NOTE_A5, 125 }, 
	{ NOTE_B5, 125 }, 
	{ NOTE_A5, 125 }, 
	{ NOTE_GS5, 125 }, 
	{ NOTE_A5, 125 }, 
	{ NOTE_C6, 500 }, 
	{ NOTE_A5, 250 }, 
	{ NOTE_C6, 250 }, 
	{ NOTE_G5, 0 }, 
	{ NOTE_A5, 0 }, 
	{ NOTE_B5, 250 }, 
	{ NOTE_FS5, 250 }, 
	{ NOTE_E5, 250 }, 
	{ NOTE_FS5, 250 }, 
	{ NOTE_G5, 0 }, 
	{ NOTE_A5, 0 }, 
	{ NOTE_B5, 250 }, 
	{ NOTE_FS5, 250 }, 
	{ NOTE_E5, 250 }, 
	{ NOTE_FS5, 250 }, 
	{ NOTE_G5, 0 }, 
	{ NOTE_A5, 0 }, 
	{ NOTE_B5, 250 }, 
	{ NOTE_FS5, 250 }, 
	{ NOTE_E5, 250 }, 
	{ NOTE_DS5, 250 }, 
	{ NOTE_E5, 500 }, 
	{ NOTE_C5, 250 }, 
	{ NOTE_D5, 250 }, 
	{ NOTE_E5, 250 }, 
	{ NOTE_E5, 250 }, 
	{ NOTE_A5, 125 }, 
	{ NOTE_G5, 125 }, 
	{ NOTE_F5, 125 }, 
	{ NOTE_E5, 125 }, 
	{ NOTE_D5, 500 }, 
	{ NOTE_C5, 250 }, 
	{ NOTE_D5, 250 }, 
	{ NOTE_E5, 250 }, 
	{ NOTE_E5, 250 }, 
	{ NOTE_A5, 125 }, 
	{ NOTE_G5, 125 }, 
	{ NOTE_F5, 125 }, 
	{ NOTE_E5, 125 }, 
	{ NOTE_B4, 500 }, 
	{ NOTE_A4, 250 }, 
	{ NOTE_B4, 250 }, 
	{ NOTE_C5, 250 }, 
	{ NOTE_C5, 250 }, 
	{ NOTE_F5, 125 }, 
	{ NOTE_E5, 125 }, 
	{ NOTE_D5, 125 }, 
	{ NOTE_C5, 125 }, 
	{ NOTE_B4, 500 }, 
	{ NOTE_A4, 250 }, 
	{ NOTE_B4, 250 }, 
	{ NOTE_C5, 250 }, 
	{ NOTE_C5, 250 }, 
	{ NOTE_F5, 125 }, 
	{ NOTE_E5, 125 }, 
	{ NOTE_D5, 125 }, 
	{ NOTE_C5, 125 }, 
	{ NOTE_GS4, 500 }, 
	{ NOTE_B4, 125 }, 
	{ NOTE_A4, 125 }, 
	{ NOTE_GS4, 125 }, 
	{ NOTE_A4, 125 }, 
	{ NOTE_C5, 250 }, 
	{ NOTE_REST, 250 }, 
	{ NOTE_D5, 125 }, 
	{ NOTE_C5, 125 }, 
	{ NOTE_B4, 125 }, 
	{ NOTE_C5, 125 }, 
	{ NOTE_E5, 250 }, 
	{ NOTE_REST, 250 }, 
	{ NOTE_F5, 125 }, 
	{ NOTE_E5, 125 }, 
	{ NOTE_DS5, 125 }, 
	{ NOTE_E5, 125 }, 
	{ NOTE_B5, 125 }, 
	{ NOTE_A5, 125 }, 
	{ NOTE_GS5, 125 }, 
	{ NOTE_A5, 125 }, 
	{ NOTE_B5, 125 }, 
	{ NOTE_A5, 125 }, 
	{ NOTE_GS5, 125 }, 
	{ NOTE_A5, 125 }, 
	{ NOTE_C6, 500 }, 
	{ NOTE_A5, 250 }, 
	{ NOTE_B5, 250 }, 
	{ NOTE_C6, 250 }, 
	{ NOTE_B5, 250 }, 
	{ NOTE_A5, 250 }, 
	{ NOTE_GS5, 250 }, 
	{ NOTE_A5, 250 }, 
	{ NOTE_E5, 250 }, 
	{ NOTE_F5, 250 }, 
	{ NOTE_D5, 250 }, 
	{ NOTE_C5, 500 }, 
	{ NOTE_B4, 375 }, 
	{ NOTE_A4, 62 }, 
	{ NOTE_B4, 63 }, 
	{ NOTE_A4, 500 }, 
	{ NOTE_A4, 125 }, 
	{ NOTE_A5, 125 }, 
	{ NOTE_B4, 125 }, 
	{ NOTE_B5, 125 }, 
	{ NOTE_CS5, 125 }, 
	{ NOTE_CS6, 125 }, 
	{ NOTE_REST, 250 }, 
	{ NOTE_A4, 125 }, 
	{ NOTE_A5, 125 }, 
	{ NOTE_B4, 125 }, 
	{ NOTE_B5, 125 }, 
	{ NOTE_CS5, 125 }, 
	{ NOTE_CS6, 125 }, 
	{ NOTE_B4, 125 }, 
	{ NOTE_B5, 125 }, 
	{ NOTE_A4, 125 }, 
	{ NOTE_A5, 125 }, 
	{ NOTE_GS4, 125 }, 
	{ NOTE_GS5, 125 }, 
	{ NOTE_FS4, 125 }, 
	{ NOTE_FS5, 125 }, 
	{ NOTE_GS4, 125 }, 
	{ NOTE_GS5, 125 }, 
	{ NOTE_A4, 125 }, 
	{ NOTE_A5, 125 }, 
	{ NOTE_B4, 125 }, 
	{ NOTE_B5, 125 }, 
	{ NOTE_GS4, 125 }, 
	{ NOTE_GS5, 125 }, 
	{ NOTE_E4, 125 }, 
	{ NOTE_E5, 125 }, 
	{ NOTE_A4, 125 }, 
	{ NOTE_A5, 125 }, 
	{ NOTE_B4, 125 }, 
	{ NOTE_B5, 125 }, 
	{ NOTE_CS5, 125 }, 
	{ NOTE_CS6, 125 }, 
	{ NOTE_REST, 250 }, 
	{ NOTE_A4, 125 }, 
	{ NOTE_A5, 125 }, 
	{ NOTE_B4, 125 }, 
	{ NOTE_B5, 125 }, 
	{ NOTE_CS5, 125 }, 
	{ NOTE_CS6, 125 }, 
	{ NOTE_B4, 125 }, 
	{ NOTE_B5, 125 }, 
	{ NOTE_A4, 125 }, 
	{ NOTE_A5, 125 }, 
	{ NOTE_GS4, 125 }, 
	{ NOTE_GS5, 125 }, 
	{ NOTE_FS4, 125 }, 
	{ NOTE_FS5, 125 }, 
	{ NOTE_B4, 125 }, 
	{ NOTE_B5, 125 }, 
	{ NOTE_GS4, 125 }, 
	{ NOTE_GS5, 125 }, 
	{ NOTE_E4, 125 }, 
	{ NOTE_E5, 125 }, 
	{ NOTE_A4, 500 }, 
	{ NOTE_A4, 500 }, 
	{ NOTE_REST, 500 }, 
	{ NOTE_CS6, 1000 }, 
	{ NOTE_CS6, 1000 }, 
	{ NOTE_D6, 125 }, 
	{ NOTE_CS6, 125 }, 
	{ NOTE_B5, 125 }, 
	{ NOTE_CS6, 125 }, 
	{ NOTE_D6, 125 }, 
	{ NOTE_CS6, 125 }, 
	{ NOTE_B5, 125 }, 
	{ NOTE_CS6, 125 }, 
	{ NOTE_FS5, 1000 }, 
	{ NOTE_D6, 0 }, 
	{ NOTE_E5, 250 }, 
	{ NOTE_D6, 0 }, 
	{ NOTE_E5, 250 }, 
	{ NOTE_D6, 0 }, 
	{ NOTE_E5, 250 }, 
	{ NOTE_D6, 0 }, 
	{ NOTE_E5, 250 }, 
	{ NOTE_B5, 750 }, 
	{ NOTE_E6, 250 }, 
	{ NOTE_CS6, 1000 }, 
	{ NOTE_CS6, 1000 }, 
	{ NOTE_D6, 125 }, 
	{ NOTE_CS6, 125 }, 
	{ NOTE_B5, 125 }, 
	{ NOTE_CS6, 125 }, 
	{ NOTE_D6, 125 }, 
	{ NOTE_CS6, 125 }, 
	{ NOTE_B5, 125 }, 
	{ NOTE_CS6, 125 }, 
	{ NOTE_FS5, 1000 }, 
	{ NOTE_D6, 0 }, 
	{ NOTE_E5, 1000 }, 
	{ NOTE_CS6, 0 }, 
	{ NOTE_E5, 250 }, 
	{ NOTE_CS6, 0 }, 
	{ NOTE_E5, 250 }, 
	{ NOTE_CS6, 0 }, 
	{ NOTE_E5, 250 }, 
	{ NOTE_CS6, 0 }, 
	{ NOTE_E5, 250 }, 
	{ NOTE_A5, 500 }, 
	{ NOTE_E5, 0 }, 
	{ NOTE_A5, 0 }, 
	{ NOTE_CS6, 375 }, 
	{ NOTE_CS6, 125 }, 
	{ NOTE_E5, 0 }, 
	{ NOTE_A5, 0 }, 
	{ NOTE_CS6, 1000 }, 
	{ NOTE_E5, 0 }, 
	{ NOTE_A5, 0 }, 
	{ NOTE_CS6, 1000 }, 
	{ NOTE_D6, 125 }, 
	{ NOTE_CS6, 125 }, 
	{ NOTE_B5, 125 }, 
	{ NOTE_CS6, 125 }, 
	{ NOTE_D6, 125 }, 
	{ NOTE_CS6, 125 }, 
	{ NOTE_B5, 125 }, 
	{ NOTE_CS6, 125 }, 
	{ NOTE_D6, 1000 }, 
	{ NOTE_D6, 0 }, 
	{ NOTE_CS6, 250 }, 
	{ NOTE_D6, 0 }, 
	{ NOTE_CS6, 250 }, 
	{ NOTE_D6, 0 }, 
	{ NOTE_CS6, 250 }, 
	{ NOTE_D6, 0 }, 
	{ NOTE_CS6, 250 }, 
	{ NOTE_B5, 750 }, 
	{ NOTE_E6, 250 }, 
	{ NOTE_CS6, 1000 }, 
	{ NOTE_CS6, 1000 }, 
	{ NOTE_D6, 125 }, 
	{ NOTE_CS6, 125 }, 
	{ NOTE_B5, 125 }, 
	{ NOTE_CS6, 125 }, 
	{ NOTE_D6, 125 }, 
	{ NOTE_CS6, 125 }, 
	{ NOTE_B5, 125 }, 
	{ NOTE_CS6, 125 }, 
	{ NOTE_FS5, 1000 }, 
	{ NOTE_D6, 0 }, 
	{ NOTE_E5, 1000 }, 
	{ NOTE_CS6, 0 }, 
	{ NOTE_E5, 250 }, 
	{ NOTE_CS6, 0 }, 
	{ NOTE_E5, 250 }, 
	{ NOTE_CS6, 0 }, 
	{ NOTE_E5, 250 }, 
	{ NOTE_CS6, 0 }, 
	{ NOTE_E5, 250 }, 
	{ NOTE_A4, 750 }, 
	{ NOTE_CS5, 250 }, 
	{ NOTE_A4, 750 }, 
	{ NOTE_E5, 250 }, 
	{ NOTE_A4, 750 }, 
	{ NOTE_CS5, 250 }, 
	{ NOTE_A4, 250 }, 
	{ NOTE_CS5, 250 }, 
	{ NOTE_A4, 250 }, 
	{ NOTE_E5, 250 }, 
	{ NOTE_A4, 500 }, 
	{ NOTE_A4, 500 }, 
	{ NOTE_A4, 500 }, 
	{ NOTE_REST, 500 }, 
};
const uint16_t NUM_OF_NOTES0 = sizeof(melody0)/sizeof(melody0[0]);

const Note melody1[] PROGMEM = {
	{ NOTE_B4, 125 }, 
	{ NOTE_A4, 125 }, 
	{ NOTE_GS4, 125 }, 
	{ NOTE_A4, 125 }, 
	{ NOTE_C5, 250 }, 
	{ NOTE_REST, 250 }, 
	{ NOTE_D5, 125 }, 
	{ NOTE_C5, 125 }, 
	{ NOTE_B4, 125 }, 
	{ NOTE_C5, 125 }, 
	{ NOTE_E5, 250 }, 
	{ NOTE_REST, 250 }, 
	{ NOTE_F5, 125 }, 
	{ NOTE_E5, 125 }, 
	{ NOTE_DS5, 125 }, 
	{ NOTE_E5, 125 }, 
	{ NOTE_B5, 125 }, 
	{ NOTE_A5, 125 }, 
	{ NOTE_GS5, 125 }, 
	{ NOTE_A5, 125 }, 
	{ NOTE_B5, 125 }, 
	{ NOTE_A5, 125 }, 
	{ NOTE_GS5, 125 }, 
	{ NOTE_A5, 125 }, 
	{ NOTE_C6, 500 }, 
	{ NOTE_A5, 250 }, 
	{ NOTE_C6, 250 }, 
	{ NOTE_G5, 0 }, 
	{ NOTE_A5, 0 }, 
	{ NOTE_B5, 250 }, 
	{ NOTE_A5, 250 }, 
	{ NOTE_G5, 250 }, 
	{ NOTE_A5, 250 }, 
	{ NOTE_G5, 0 }, 
	{ NOTE_A5, 0 }, 
	{ NOTE_B5, 250 }, 
	{ NOTE_A5, 250 }, 
	{ NOTE_G5, 250 }, 
	{ NOTE_A5, 250 }, 
	{ NOTE_G5, 0 }, 
	{ NOTE_A5, 0 }, 
	{ NOTE_B5, 250 }, 
	{ NOTE_A5, 250 }, 
	{ NOTE_G5, 250 }, 
	{ NOTE_FS5, 250 }, 
	{ NOTE_E5, 500 }, 
	{ NOTE_E5, 250 }, 
	{ NOTE_F5, 250 }, 
	{ NOTE_G5, 250 }, 
	{ NOTE_G5, 250 }, 
	{ NOTE_A5, 125 }, 
	{ NOTE_G5, 125 }, 
	{ NOTE_F5, 125 }, 
	{ NOTE_E5, 125 }, 
	{ NOTE_D5, 500 }, 
	{ NOTE_E5, 250 }, 
	{ NOTE_F5, 250 }, 
	{ NOTE_G5, 250 }, 
	{ NOTE_G5, 250 }, 
	{ NOTE_A5, 125 }, 
	{ NOTE_G5, 125 }, 
	{ NOTE_F5, 125 }, 
	{ NOTE_E5, 125 }, 
	{ NOTE_D5, 500 }, 
	{ NOTE_C5, 250 }, 
	{ NOTE_D5, 250 }, 
	{ NOTE_E5, 250 }, 
	{ NOTE_E5, 250 }, 
	{ NOTE_F5, 125 }, 
	{ NOTE_E5, 125 }, 
	{ NOTE_D5, 125 }, 
	{ NOTE_C5, 125 }, 
	{ NOTE_B4, 500 }, 
	{ NOTE_C5, 250 }, 
	{ NOTE_D5, 250 }, 
	{ NOTE_E5, 250 }, 
	{ NOTE_E5, 250 }, 
	{ NOTE_F5, 125 }, 
	{ NOTE_E5, 125 }, 
	{ NOTE_D5, 125 }, 
	{ NOTE_C5, 125 }, 
	{ NOTE_B4, 500 }, 
	{ NOTE_B4, 125 }, 
	{ NOTE_A4, 125 }, 
	{ NOTE_GS4, 125 }, 
	{ NOTE_A4, 125 }, 
	{ NOTE_C5, 250 }, 
	{ NOTE_REST, 250 }, 
	{ NOTE_D5, 125 }, 
	{ NOTE_C5, 125 }, 
	{ NOTE_B4, 125 }, 
	{ NOTE_C5, 125 }, 
	{ NOTE_E5, 250 }, 
	{ NOTE_REST, 250 }, 
	{ NOTE_F5, 125 }, 
	{ NOTE_E5, 125 }, 
	{ NOTE_DS5, 125 }, 
	{ NOTE_E5, 125 }, 
	{ NOTE_B5, 125 }, 
	{ NOTE_A5, 125 }, 
	{ NOTE_GS5, 125 }, 
	{ NOTE_A5, 125 }, 
	{ NOTE_B5, 125 }, 
	{ NOTE_A5, 125 }, 
	{ NOTE_GS5, 125 }, 
	{ NOTE_A5, 125 }, 
	{ NOTE_C6, 500 }, 
	{ NOTE_A5, 250 }, 
	{ NOTE_B5, 250 }, 
	{ NOTE_C6, 250 }, 
	{ NOTE_B5, 250 }, 
	{ NOTE_A5, 250 }, 
	{ NOTE_GS5, 250 }, 
	{ NOTE_A5, 250 }, 
	{ NOTE_E5, 250 }, 
	{ NOTE_F5, 250 }, 
	{ NOTE_D5, 250 }, 
	{ NOTE_C5, 500 }, 
	{ NOTE_B4, 375 }, 
	{ NOTE_A4, 62 }, 
	{ NOTE_B4, 63 }, 
	{ NOTE_A4, 500 }, 
	{ NOTE_A5, 250 }, 
	{ NOTE_B5, 250 }, 
	{ NOTE_CS6, 500 }, 
	{ NOTE_A5, 250 }, 
	{ NOTE_B5, 250 }, 
	{ NOTE_CS6, 250 }, 
	{ NOTE_B5, 250 }, 
	{ NOTE_A5, 250 }, 
	{ NOTE_GS5, 250 }, 
	{ NOTE_FS5, 250 }, 
	{ NOTE_GS5, 250 }, 
	{ NOTE_A5, 250 }, 
	{ NOTE_B5, 250 }, 
	{ NOTE_GS5, 250 }, 
	{ NOTE_E5, 250 }, 
	{ NOTE_A5, 250 }, 
	{ NOTE_B5, 250 }, 
	{ NOTE_CS6, 500 }, 
	{ NOTE_A5, 250 }, 
	{ NOTE_B5, 250 }, 
	{ NOTE_CS6, 250 }, 
	{ NOTE_B5, 250 }, 
	{ NOTE_A5, 250 }, 
	{ NOTE_GS5, 250 }, 
	{ NOTE_FS5, 250 }, 
	{ NOTE_B5, 250 }, 
	{ NOTE_GS5, 250 }, 
	{ NOTE_E5, 250 }, 
	{ NOTE_A5, 500 }, 
	{ NOTE_CS6, 125 }, 
	{ NOTE_D6, 125 }, 
	{ NOTE_CS6, 125 }, 
	{ NOTE_B5, 125 }, 
	{ NOTE_A5, 125 }, 
	{ NOTE_B5, 125 }, 
	{ NOTE_A5, 125 }, 
	{ NOTE_GS5, 125 }, 
	{ NOTE_FS5, 125 }, 
	{ NOTE_A5, 125 }, 
	{ NOTE_GS5, 125 }, 
	{ NOTE_FS5, 125 }, 
	{ NOTE_F5, 125 }, 
	{ NOTE_FS5, 125 }, 
	{ NOTE_GS5, 125 }, 
	{ NOTE_F5, 125 }, 
	{ NOTE_CS5, 125 }, 
	{ NOTE_DS5, 125 }, 
	{ NOTE_F5, 125 }, 
	{ NOTE_CS5, 125 }, 
	{ NOTE_FS5, 125 }, 
	{ NOTE_F5, 125 }, 
	{ NOTE_FS5, 125 }, 
	{ NOTE_GS5, 125 }, 
	{ NOTE_A5, 125 }, 
	{ NOTE_GS5, 125 }, 
	{ NOTE_A5, 125 }, 
	{ NOTE_B5, 125 }, 
	{ NOTE_CS6, 125 }, 
	{ NOTE_C5, 125 }, 
	{ NOTE_CS6, 125 }, 
	{ NOTE_C5, 125 }, 
	{ NOTE_CS6, 125 }, 
	{ NOTE_D6, 125 }, 
	{ NOTE_CS6, 125 }, 
	{ NOTE_B5, 125 }, 
	{ NOTE_A5, 125 }, 
	{ NOTE_B5, 125 }, 
	{ NOTE_A5, 125 }, 
	{ NOTE_GS5, 125 }, 
	{ NOTE_FS5, 125 }, 
	{ NOTE_A5, 125 }, 
	{ NOTE_GS5, 125 }, 
	{ NOTE_FS5, 125 }, 
	{ NOTE_E5, 125 }, 
	{ NOTE_FS5, 125 }, 
	{ NOTE_GS5, 125 }, 
	{ NOTE_E5, 125 }, 
	{ NOTE_CS5, 125 }, 
	{ NOTE_DS5, 125 }, 
	{ NOTE_E5, 125 }, 
	{ NOTE_CS5, 125 }, 
	{ NOTE_DS5, 125 }, 
	{ NOTE_E5, 125 }, 
	{ NOTE_FS5, 125 }, 
	{ NOTE_DS5, 125 }, 
	{ NOTE_C4, 125 }, 
	{ NOTE_CS5, 125 }, 
	{ NOTE_DS5, 125 }, 
	{ NOTE_C4, 125 }, 
	{ NOTE_CS5, 500 }, 
	{ NOTE_E5, 125 }, 
	{ NOTE_D5, 125 }, 
	{ NOTE_CS5, 125 }, 
	{ NOTE_B4, 125 }, 
	{ NOTE_A4, 125 }, 
	{ NOTE_B4, 125 }, 
	{ NOTE_CS5, 125 }, 
	{ NOTE_D5, 125 }, 
	{ NOTE_E5, 125 }, 
	{ NOTE_FS5, 125 }, 
	{ NOTE_GS5, 125 }, 
	{ NOTE_A5, 125 }, 
	{ NOTE_A5, 125 }, 
	{ NOTE_GS5, 125 }, 
	{ NOTE_FS5, 125 }, 
	{ NOTE_E5, 125 }, 
	{ NOTE_E5, 125 }, 
	{ NOTE_D5, 125 }, 
	{ NOTE_CS5, 125 }, 
	{ NOTE_B4, 125 }, 
	{ NOTE_A4, 125 }, 
	{ NOTE_B4, 125 }, 
	{ NOTE_CS5, 125 }, 
	{ NOTE_D5, 125 }, 
	{ NOTE_E5, 125 }, 
	{ NOTE_FS5, 125 }, 
	{ NOTE_GS5, 125 }, 
	{ NOTE_A5, 125 }, 
	{ NOTE_AS5, 250 }, 
	{ NOTE_B5, 250 }, 
	{ NOTE_E5, 125 }, 
	{ NOTE_D5, 125 }, 
	{ NOTE_CS5, 125 }, 
	{ NOTE_B4, 125 }, 
	{ NOTE_A4, 125 }, 
	{ NOTE_B4, 125 }, 
	{ NOTE_CS5, 125 }, 
	{ NOTE_D5, 125 }, 
	{ NOTE_E5, 125 }, 
	{ NOTE_FS5, 125 }, 
	{ NOTE_GS5, 125 }, 
	{ NOTE_A5, 125 }, 
	{ NOTE_A5, 125 }, 
	{ NOTE_GS5, 125 }, 
	{ NOTE_FS5, 125 }, 
	{ NOTE_E5, 125 }, 
	{ NOTE_E5, 125 }, 
	{ NOTE_D5, 125 }, 
	{ NOTE_CS5, 125 }, 
	{ NOTE_B4, 125 }, 
	{ NOTE_CS5, 125 }, 
	{ NOTE_E5, 125 }, 
	{ NOTE_A4, 125 }, 
	{ NOTE_CS5, 125 }, 
	{ NOTE_B4, 125 }, 
	{ NOTE_D5, 125 }, 
	{ NOTE_GS4, 125 }, 
	{ NOTE_B4, 125 }, 
	{ NOTE_A4, 500 }, 
	{ NOTE_CS6, 125 }, 
	{ NOTE_D6, 125 }, 
	{ NOTE_CS6, 125 }, 
	{ NOTE_B5, 125 }, 
	{ NOTE_A5, 125 }, 
	{ NOTE_B5, 125 }, 
	{ NOTE_A5, 125 }, 
	{ NOTE_GS5, 125 }, 
	{ NOTE_FS5, 125 }, 
	{ NOTE_A5, 125 }, 
	{ NOTE_GS5, 125 }, 
	{ NOTE_FS5, 125 }, 
	{ NOTE_F5, 125 }, 
	{ NOTE_FS5, 125 }, 
	{ NOTE_GS5, 125 }, 
	{ NOTE_F5, 125 }, 
	{ NOTE_CS5, 125 }, 
	{ NOTE_DS5, 125 }, 
	{ NOTE_F5, 125 }, 
	{ NOTE_CS5, 125 }, 
	{ NOTE_FS5, 125 }, 
	{ NOTE_F5, 125 }, 
	{ NOTE_FS5, 125 }, 
	{ NOTE_GS5, 125 }, 
	{ NOTE_A5, 125 }, 
	{ NOTE_GS5, 125 }, 
	{ NOTE_A5, 125 }, 
	{ NOTE_B5, 125 }, 
	{ NOTE_CS6, 125 }, 
	{ NOTE_C5, 125 }, 
	{ NOTE_CS6, 125 }, 
	{ NOTE_C5, 125 }, 
	{ NOTE_CS6, 125 }, 
	{ NOTE_C5, 125 }, 
	{ NOTE_CS6, 125 }, 
	{ NOTE_AS5, 125 }, 
	{ NOTE_D6, 125 }, 
	{ NOTE_CS6, 125 }, 
	{ NOTE_D6, 125 }, 
	{ NOTE_CS6, 125 }, 
	{ NOTE_D6, 125 }, 
	{ NOTE_CS6, 125 }, 
	{ NOTE_D6, 125 }, 
	{ NOTE_CS6, 125 }, 
	{ NOTE_D6, 125 }, 
	{ NOTE_CS6, 125 }, 
	{ NOTE_B5, 125 }, 
	{ NOTE_A5, 125 }, 
	{ NOTE_GS5, 125 }, 
	{ NOTE_A5, 125 }, 
	{ NOTE_B5, 125 }, 
	{ NOTE_GS5, 125 }, 
	{ NOTE_A5, 125 }, 
	{ NOTE_B5, 125 }, 
	{ NOTE_CS6, 125 }, 
	{ NOTE_FS5, 125 }, 
	{ NOTE_F5, 125 }, 
	{ NOTE_FS5, 125 }, 
	{ NOTE_GS5, 125 }, 
	{ NOTE_F5, 125 }, 
	{ NOTE_FS5, 500 }, 
	{ NOTE_A5, 250 }, 
	{ NOTE_B5, 250 }, 
	{ NOTE_CS6, 500 }, 
	{ NOTE_A5, 250 }, 
	{ NOTE_B5, 250 }, 
	{ NOTE_CS6, 250 }, 
	{ NOTE_B5, 250 }, 
	{ NOTE_A5, 250 }, 
	{ NOTE_GS5, 250 }, 
	{ NOTE_FS5, 250 }, 
	{ NOTE_GS5, 250 }, 
	{ NOTE_A5, 250 }, 
	{ NOTE_B5, 250 }, 
	{ NOTE_GS5, 250 }, 
	{ NOTE_E5, 250 }, 
	{ NOTE_A5, 250 }, 
	{ NOTE_B5, 250 }, 
	{ NOTE_CS6, 500 }, 
	{ NOTE_A5, 250 }, 
	{ NOTE_B5, 250 }, 
	{ NOTE_CS6, 250 }, 
	{ NOTE_B5, 250 }, 
	{ NOTE_A5, 250 }, 
	{ NOTE_GS5, 250 }, 
	{ NOTE_FS5, 250 }, 
	{ NOTE_B5, 250 }, 
	{ NOTE_GS5, 250 }, 
	{ NOTE_E5, 250 }, 
	{ NOTE_A5, 500 }, 
	{ NOTE_B4, 125 }, 
	{ NOTE_A4, 125 }, 
	{ NOTE_GS4, 125 }, 
	{ NOTE_A4, 125 }, 
	{ NOTE_C5, 250 }, 
	{ NOTE_REST, 250 }, 
	{ NOTE_D5, 125 }, 
	{ NOTE_C5, 125 }, 
	{ NOTE_B4, 125 }, 
	{ NOTE_C5, 125 }, 
	{ NOTE_E5, 250 }, 
	{ NOTE_REST, 250 }, 
	{ NOTE_F5, 125 }, 
	{ NOTE_E5, 125 }, 
	{ NOTE_DS5, 125 }, 
	{ NOTE_E5, 125 }, 
	{ NOTE_B5, 125 }, 
	{ NOTE_A5, 125 }, 
	{ NOTE_GS5, 125 }, 
	{ NOTE_A5, 125 }, 
	{ NOTE_B5, 125 }, 
	{ NOTE_A5, 125 }, 
	{ NOTE_GS5, 125 }, 
	{ NOTE_A5, 125 }, 
	{ NOTE_C6, 500 }, 
	{ NOTE_A5, 250 }, 
	{ NOTE_C6, 250 }, 
	{ NOTE_G5, 0 }, 
	{ NOTE_A5, 0 }, 
	{ NOTE_B5, 250 }, 
	{ NOTE_A5, 250 }, 
	{ NOTE_G5, 250 }, 
	{ NOTE_A5, 250 }, 
	{ NOTE_G5, 0 }, 
	{ NOTE_A5, 0 }, 
	{ NOTE_B5, 250 }, 
	{ NOTE_A5, 250 }, 
	{ NOTE_G5, 250 }, 
	{ NOTE_A5, 250 }, 
	{ NOTE_G5, 0 }, 
	{ NOTE_A5, 0 }, 
	{ NOTE_B5, 250 }, 
	{ NOTE_A5, 250 }, 
	{ NOTE_G5, 250 }, 
	{ NOTE_FS5, 250 }, 
	{ NOTE_E5, 500 }, 
	{ NOTE_E5, 250 }, 
	{ NOTE_F5, 250 }, 
	{ NOTE_G5, 250 }, 
	{ NOTE_G5, 250 }, 
	{ NOTE_A5, 125 }, 
	{ NOTE_G5, 125 }, 
	{ NOTE_F5, 125 }, 
	{ NOTE_E5, 125 }, 
	{ NOTE_D5, 500 }, 
	{ NOTE_E5, 250 }, 
	{ NOTE_F5, 250 }, 
	{ NOTE_G5, 250 }, 
	{ NOTE_G5, 250 }, 
	{ NOTE_A5, 125 }, 
	{ NOTE_G5, 125 }, 
	{ NOTE_F5, 125 }, 
	{ NOTE_E5, 125 }, 
	{ NOTE_D5, 500 }, 
	{ NOTE_C5, 250 }, 
	{ NOTE_D5, 250 }, 
	{ NOTE_E5, 250 }, 
	{ NOTE_E5, 250 }, 
	{ NOTE_F5, 125 }, 
	{ NOTE_E5, 125 }, 
	{ NOTE_D5, 125 }, 
	{ NOTE_C5, 125 }, 
	{ NOTE_B4, 500 }, 
	{ NOTE_C5, 250 }, 
	{ NOTE_D5, 250 }, 
	{ NOTE_E5, 250 }, 
	{ NOTE_E5, 250 }, 
	{ NOTE_F5, 125 }, 
	{ NOTE_E5, 125 }, 
	{ NOTE_D5, 125 }, 
	{ NOTE_C5, 125 }, 
	{ NOTE_B4, 500 }, 
	{ NOTE_B4, 125 }, 
	{ NOTE_A4, 125 }, 
	{ NOTE_GS4, 125 }, 
	{ NOTE_A4, 125 }, 
	{ NOTE_C5, 250 }, 
	{ NOTE_REST, 250 }, 
	{ NOTE_D5, 125 }, 
	{ NOTE_C5, 125 }, 
	{ NOTE_B4, 125 }, 
	{ NOTE_C5, 125 }, 
	{ NOTE_E5, 250 }, 
	{ NOTE_REST, 250 }, 
	{ NOTE_F5, 125 }, 
	{ NOTE_E5, 125 }, 
	{ NOTE_DS5, 125 }, 
	{ NOTE_E5, 125 }, 
	{ NOTE_B5, 125 }, 
	{ NOTE_A5, 125 }, 
	{ NOTE_GS5, 125 }, 
	{ NOTE_A5, 125 }, 
	{ NOTE_B5, 125 }, 
	{ NOTE_A5, 125 }, 
	{ NOTE_GS5, 125 }, 
	{ NOTE_A5, 125 }, 
	{ NOTE_C6, 500 }, 
	{ NOTE_A5, 250 }, 
	{ NOTE_B5, 250 }, 
	{ NOTE_C6, 250 }, 
	{ NOTE_B5, 250 }, 
	{ NOTE_A5, 250 }, 
	{ NOTE_GS5, 250 }, 
	{ NOTE_A5, 250 }, 
	{ NOTE_E5, 250 }, 
	{ NOTE_F5, 250 }, 
	{ NOTE_D5, 250 }, 
	{ NOTE_C5, 500 }, 
	{ NOTE_B4, 375 }, 
	{ NOTE_A4, 62 }, 
	{ NOTE_B4, 63 }, 
	{ NOTE_A4, 500 }, 
	{ NOTE_A4, 125 }, 
	{ NOTE_A5, 125 }, 
	{ NOTE_B4, 125 }, 
	{ NOTE_B5, 125 }, 
	{ NOTE_CS5, 125 }, 
	{ NOTE_CS6, 125 }, 
	{ NOTE_REST, 250 }, 
	{ NOTE_A4, 125 }, 
	{ NOTE_A5, 125 }, 
	{ NOTE_B4, 125 }, 
	{ NOTE_B5, 125 }, 
	{ NOTE_CS5, 125 }, 
	{ NOTE_CS6, 125 }, 
	{ NOTE_B4, 125 }, 
	{ NOTE_B5, 125 }, 
	{ NOTE_A4, 125 }, 
	{ NOTE_A5, 125 }, 
	{ NOTE_GS4, 125 }, 
	{ NOTE_GS5, 125 }, 
	{ NOTE_FS4, 125 }, 
	{ NOTE_FS5, 125 }, 
	{ NOTE_GS4, 125 }, 
	{ NOTE_GS5, 125 }, 
	{ NOTE_A4, 125 }, 
	{ NOTE_A5, 125 }, 
	{ NOTE_B4, 125 }, 
	{ NOTE_B5, 125 }, 
	{ NOTE_GS4, 125 }, 
	{ NOTE_GS5, 125 }, 
	{ NOTE_E4, 125 }, 
	{ NOTE_E5, 125 }, 
	{ NOTE_A4, 125 }, 
	{ NOTE_A5, 125 }, 
	{ NOTE_B4, 125 }, 
	{ NOTE_B5, 125 }, 
	{ NOTE_CS5, 125 }, 
	{ NOTE_CS6, 125 }, 
	{ NOTE_REST, 250 }, 
	{ NOTE_A4, 125 }, 
	{ NOTE_A5, 125 }, 
	{ NOTE_B4, 125 }, 
	{ NOTE_B5, 125 }, 
	{ NOTE_CS5, 125 }, 
	{ NOTE_CS6, 125 }, 
	{ NOTE_B4, 125 }, 
	{ NOTE_B5, 125 }, 
	{ NOTE_A4, 125 }, 
	{ NOTE_A5, 125 }, 
	{ NOTE_GS4, 125 }, 
	{ NOTE_GS5, 125 }, 
	{ NOTE_FS4, 125 }, 
	{ NOTE_FS5, 125 }, 
	{ NOTE_B4, 125 }, 
	{ NOTE_B5, 125 }, 
	{ NOTE_GS4, 125 }, 
	{ NOTE_GS5, 125 }, 
	{ NOTE_E4, 125 }, 
	{ NOTE_E5, 125 }, 
	{ NOTE_A5, 500 }, 
	{ NOTE_A5, 500 }, 
	{ NOTE_REST, 500 }, 
	{ NOTE_CS6, 1000 }, 
	{ NOTE_CS6, 1000 }, 
	{ NOTE_D6, 125 }, 
	{ NOTE_CS6, 125 }, 
	{ NOTE_B5, 125 }, 
	{ NOTE_CS6, 125 }, 
	{ NOTE_D6, 125 }, 
	{ NOTE_CS6, 125 }, 
	{ NOTE_B5, 125 }, 
	{ NOTE_CS6, 125 }, 
	{ NOTE_A5, 1000 }, 
	{ NOTE_D6, 0 }, 
	{ NOTE_A5, 250 }, 
	{ NOTE_D6, 0 }, 
	{ NOTE_A5, 250 }, 
	{ NOTE_D6, 0 }, 
	{ NOTE_A5, 250 }, 
	{ NOTE_D6, 0 }, 
	{ NOTE_A5, 250 }, 
	{ NOTE_B5, 750 }, 
	{ NOTE_E6, 250 }, 
	{ NOTE_CS6, 1000 }, 
	{ NOTE_CS6, 1000 }, 
	{ NOTE_D6, 125 }, 
	{ NOTE_CS6, 125 }, 
	{ NOTE_B5, 125 }, 
	{ NOTE_CS6, 125 }, 
	{ NOTE_D6, 125 }, 
	{ NOTE_CS6, 125 }, 
	{ NOTE_B5, 125 }, 
	{ NOTE_CS6, 125 }, 
	{ NOTE_A5, 1000 }, 
	{ NOTE_D6, 0 }, 
	{ NOTE_A5, 1000 }, 
	{ NOTE_CS6, 0 }, 
	{ NOTE_GS5, 250 }, 
	{ NOTE_CS6, 0 }, 
	{ NOTE_GS5, 250 }, 
	{ NOTE_CS6, 0 }, 
	{ NOTE_GS5, 250 }, 
	{ NOTE_CS6, 0 }, 
	{ NOTE_GS5, 250 }, 
	{ NOTE_A5, 500 }, 
	{ NOTE_E5, 0 }, 
	{ NOTE_A5, 0 }, 
	{ NOTE_CS6, 375 }, 
	{ NOTE_CS6, 125 }, 
	{ NOTE_E5, 0 }, 
	{ NOTE_A5, 0 }, 
	{ NOTE_CS6, 1000 }, 
	{ NOTE_E5, 0 }, 
	{ NOTE_A5, 0 }, 
	{ NOTE_CS6, 1000 }, 
	{ NOTE_D6, 125 }, 
	{ NOTE_CS6, 125 }, 
	{ NOTE_B5, 125 }, 
	{ NOTE_CS6, 125 }, 
	{ NOTE_D6, 125 }, 
	{ NOTE_CS6, 125 }, 
	{ NOTE_B5, 125 }, 
	{ NOTE_CS6, 125 }, 
	{ NOTE_D6, 1000 }, 
	{ NOTE_D6, 0 }, 
	{ NOTE_CS6, 250 }, 
	{ NOTE_D6, 0 }, 
	{ NOTE_CS6, 250 }, 
	{ NOTE_D6, 0 }, 
	{ NOTE_CS6, 250 }, 
	{ NOTE_D6, 0 }, 
	{ NOTE_CS6, 250 }, 
	{ NOTE_B5, 750 }, 
	{ NOTE_E6, 250 }, 
	{ NOTE_CS6, 1000 }, 
	{ NOTE_CS6, 1000 }, 
	{ NOTE_D6, 125 }, 
	{ NOTE_CS6, 125 }, 
	{ NOTE_B5, 125 }, 
	{ NOTE_CS6, 125 }, 
	{ NOTE_D6, 125 }, 
	{ NOTE_CS6, 125 }, 
	{ NOTE_B5, 125 }, 
	{ NOTE_CS6, 125 }, 
	{ NOTE_A5, 1000 }, 
	{ NOTE_D6, 0 }, 
	{ NOTE_A5, 1000 }, 
	{ NOTE_CS6, 0 }, 
	{ NOTE_GS5, 250 }, 
	{ NOTE_CS6, 0 }, 
	{ NOTE_GS5, 250 }, 
	{ NOTE_CS6, 0 }, 
	{ NOTE_GS5, 250 }, 
	{ NOTE_CS6, 0 }, 
	{ NOTE_GS5, 250 }, 
	{ NOTE_CS5, 750 }, 
	{ NOTE_CS6, 250 }, 
	{ NOTE_A5, 750 }, 
	{ NOTE_E6, 250 }, 
	{ NOTE_A5, 750 }, 
	{ NOTE_CS6, 250 }, 
	{ NOTE_A5, 250 }, 
	{ NOTE_CS6, 250 }, 
	{ NOTE_A5, 250 }, 
	{ NOTE_E6, 250 }, 
	{ NOTE_A5, 500 }, 
	{ NOTE_CS5, 500 }, 
	{ NOTE_CS5, 500 }, 
	{ NOTE_REST, 500 }, 
};
const uint16_t NUM_OF_NOTES1 = sizeof(melody1)/sizeof(melody1[0]);

const Note melody2[] PROGMEM = {
	{ NOTE_B4, 125 }, 
	{ NOTE_A4, 125 }, 
	{ NOTE_GS4, 125 }, 
	{ NOTE_A4, 125 }, 
	{ NOTE_C5, 250 }, 
	{ NOTE_REST, 250 }, 
	{ NOTE_D5, 125 }, 
	{ NOTE_C5, 125 }, 
	{ NOTE_B4, 125 }, 
	{ NOTE_C5, 125 }, 
	{ NOTE_E5, 250 }, 
	{ NOTE_REST, 250 }, 
	{ NOTE_F5, 125 }, 
	{ NOTE_E5, 125 }, 
	{ NOTE_DS5, 125 }, 
	{ NOTE_E5, 125 }, 
	{ NOTE_B5, 125 }, 
	{ NOTE_A5, 125 }, 
	{ NOTE_GS5, 125 }, 
	{ NOTE_A5, 125 }, 
	{ NOTE_B5, 125 }, 
	{ NOTE_A5, 125 }, 
	{ NOTE_GS5, 125 }, 
	{ NOTE_A5, 125 }, 
	{ NOTE_C6, 500 }, 
	{ NOTE_A5, 250 }, 
	{ NOTE_C6, 250 }, 
	{ NOTE_G5, 0 }, 
	{ NOTE_A5, 0 }, 
	{ NOTE_B5, 250 }, 
	{ NOTE_REST, 250 }, 
	{ NOTE_REST, 250 }, 
	{ NOTE_REST, 250 }, 
	{ NOTE_G5, 0 }, 
	{ NOTE_A5, 0 }, 
	{ NOTE_B5, 250 }, 
	{ NOTE_REST, 250 }, 
	{ NOTE_REST, 250 }, 
	{ NOTE_REST, 250 }, 
	{ NOTE_G5, 0 }, 
	{ NOTE_A5, 0 }, 
	{ NOTE_B5, 250 }, 
	{ NOTE_REST, 250 }, 
	{ NOTE_REST, 250 }, 
	{ NOTE_REST, 250 }, 
	{ NOTE_E5, 500 }, 
	{ NOTE_REST, 250 }, 
	{ NOTE_REST, 250 }, 
	{ NOTE_REST, 250 }, 
	{ NOTE_REST, 250 }, 
	{ NOTE_A5, 125 }, 
	{ NOTE_G5, 125 }, 
	{ NOTE_F5, 125 }, 
	{ NOTE_E5, 125 }, 
	{ NOTE_D5, 500 }, 
	{ NOTE_REST, 250 }, 
	{ NOTE_REST, 250 }, 
	{ NOTE_REST, 250 }, 
	{ NOTE_REST, 250 }, 
	{ NOTE_A5, 125 }, 
	{ NOTE_G5, 125 }, 
	{ NOTE_F5, 125 }, 
	{ NOTE_E5, 125 }, 
	{ NOTE_REST, 500 }, 
	{ NOTE_REST, 250 }, 
	{ NOTE_REST, 250 }, 
	{ NOTE_REST, 250 }, 
	{ NOTE_REST, 250 }, 
	{ NOTE_F5, 125 }, 
	{ NOTE_E5, 125 }, 
	{ NOTE_D5, 125 }, 
	{ NOTE_C5, 125 }, 
	{ NOTE_B4, 500 }, 
	{ NOTE_REST, 250 }, 
	{ NOTE_REST, 250 }, 
	{ NOTE_REST, 250 }, 
	{ NOTE_REST, 250 }, 
	{ NOTE_F5, 125 }, 
	{ NOTE_E5, 125 }, 
	{ NOTE_D5, 125 }, 
	{ NOTE_C5, 125 }, 
	{ NOTE_REST, 500 }, 
	{ NOTE_B4, 125 }, 
	{ NOTE_A4, 125 }, 
	{ NOTE_GS4, 125 }, 
	{ NOTE_A4, 125 }, 
	{ NOTE_C5, 250 }, 
	{ NOTE_REST, 250 }, 
	{ NOTE_D5, 125 }, 
	{ NOTE_C5, 125 }, 
	{ NOTE_B4, 125 }, 
	{ NOTE_C5, 125 }, 
	{ NOTE_E5, 250 }, 
	{ NOTE_REST, 250 }, 
	{ NOTE_F5, 125 }, 
	{ NOTE_E5, 125 }, 
	{ NOTE_DS5, 125 }, 
	{ NOTE_E5, 125 }, 
	{ NOTE_B5, 125 }, 
	{ NOTE_A5, 125 }, 
	{ NOTE_GS5, 125 }, 
	{ NOTE_A5, 125 }, 
	{ NOTE_B5, 125 }, 
	{ NOTE_A5, 125 }, 
	{ NOTE_GS5, 125 }, 
	{ NOTE_A5, 125 }, 
	{ NOTE_C6, 500 }, 
	{ NOTE_A5, 250 }, 
	{ NOTE_B5, 250 }, 
	{ NOTE_C6, 250 }, 
	{ NOTE_B5, 250 }, 
	{ NOTE_A5, 250 }, 
	{ NOTE_GS5, 250 }, 
	{ NOTE_A5, 250 }, 
	{ NOTE_E5, 250 }, 
	{ NOTE_F5, 250 }, 
	{ NOTE_D5, 250 }, 
	{ NOTE_C5, 500 }, 
	{ NOTE_B4, 375 }, 
	{ NOTE_A4, 62 }, 
	{ NOTE_B4, 63 }, 
	{ NOTE_A4, 500 }, 
	{ NOTE_REST, 250 }, 
	{ NOTE_REST, 250 }, 
	{ NOTE_REST, 500 }, 
	{ NOTE_REST, 250 }, 
	{ NOTE_REST, 250 }, 
	{ NOTE_REST, 250 }, 
	{ NOTE_REST, 250 }, 
	{ NOTE_REST, 250 }, 
	{ NOTE_REST, 250 }, 
	{ NOTE_REST, 250 }, 
	{ NOTE_REST, 250 }, 
	{ NOTE_REST, 250 }, 
	{ NOTE_REST, 250 }, 
	{ NOTE_REST, 250 }, 
	{ NOTE_REST, 250 }, 
	{ NOTE_REST, 250 }, 
	{ NOTE_REST, 250 }, 
	{ NOTE_REST, 500 }, 
	{ NOTE_REST, 250 }, 
	{ NOTE_REST, 250 }, 
	{ NOTE_REST, 250 }, 
	{ NOTE_REST, 250 }, 
	{ NOTE_REST, 250 }, 
	{ NOTE_REST, 250 }, 
	{ NOTE_REST, 250 }, 
	{ NOTE_REST, 250 }, 
	{ NOTE_REST, 250 }, 
	{ NOTE_REST, 250 }, 
	{ NOTE_REST, 500 }, 
	{ NOTE_CS6, 125 }, 
	{ NOTE_D6, 125 }, 
	{ NOTE_CS6, 125 }, 
	{ NOTE_B5, 125 }, 
	{ NOTE_A5, 125 }, 
	{ NOTE_B5, 125 }, 
	{ NOTE_A5, 125 }, 
	{ NOTE_GS5, 125 }, 
	{ NOTE_FS5, 125 }, 
	{ NOTE_A5, 125 }, 
	{ NOTE_GS5, 125 }, 
	{ NOTE_FS5, 125 }, 
	{ NOTE_F5, 125 }, 
	{ NOTE_FS5, 125 }, 
	{ NOTE_GS5, 125 }, 
	{ NOTE_F5, 125 }, 
	{ NOTE_CS5, 125 }, 
	{ NOTE_DS5, 125 }, 
	{ NOTE_F5, 125 }, 
	{ NOTE_CS5, 125 }, 
	{ NOTE_FS5, 125 }, 
	{ NOTE_F5, 125 }, 
	{ NOTE_FS5, 125 }, 
	{ NOTE_GS5, 125 }, 
	{ NOTE_A5, 125 }, 
	{ NOTE_GS5, 125 }, 
	{ NOTE_A5, 125 }, 
	{ NOTE_B5, 125 }, 
	{ NOTE_CS6, 125 }, 
	{ NOTE_C5, 125 }, 
	{ NOTE_CS6, 125 }, 
	{ NOTE_C5, 125 }, 
	{ NOTE_CS6, 125 }, 
	{ NOTE_D6, 125 }, 
	{ NOTE_CS6, 125 }, 
	{ NOTE_B5, 125 }, 
	{ NOTE_A5, 125 }, 
	{ NOTE_B5, 125 }, 
	{ NOTE_A5, 125 }, 
	{ NOTE_GS5, 125 }, 
	{ NOTE_FS5, 125 }, 
	{ NOTE_A5, 125 }, 
	{ NOTE_GS5, 125 }, 
	{ NOTE_FS5, 125 }, 
	{ NOTE_E5, 125 }, 
	{ NOTE_FS5, 125 }, 
	{ NOTE_GS5, 125 }, 
	{ NOTE_E5, 125 }, 
	{ NOTE_CS5, 125 }, 
	{ NOTE_DS5, 125 }, 
	{ NOTE_E5, 125 }, 
	{ NOTE_CS5, 125 }, 
	{ NOTE_DS5, 125 }, 
	{ NOTE_E5, 125 }, 
	{ NOTE_FS5, 125 }, 
	{ NOTE_DS5, 125 }, 
	{ NOTE_C4, 125 }, 
	{ NOTE_CS5, 125 }, 
	{ NOTE_DS5, 125 }, 
	{ NOTE_C4, 125 }, 
	{ NOTE_CS5, 500 }, 
	{ NOTE_E5, 125 }, 
	{ NOTE_D5, 125 }, 
	{ NOTE_CS5, 125 }, 
	{ NOTE_B4, 125 }, 
	{ NOTE_A4, 125 }, 
	{ NOTE_B4, 125 }, 
	{ NOTE_CS5, 125 }, 
	{ NOTE_D5, 125 }, 
	{ NOTE_E5, 125 }, 
	{ NOTE_FS5, 125 }, 
	{ NOTE_GS5, 125 }, 
	{ NOTE_A5, 125 }, 
	{ NOTE_A5, 125 }, 
	{ NOTE_GS5, 125 }, 
	{ NOTE_FS5, 125 }, 
	{ NOTE_E5, 125 }, 
	{ NOTE_E5, 125 }, 
	{ NOTE_D5, 125 }, 
	{ NOTE_CS5, 125 }, 
	{ NOTE_B4, 125 }, 
	{ NOTE_A4, 125 }, 
	{ NOTE_B4, 125 }, 
	{ NOTE_CS5, 125 }, 
	{ NOTE_D5, 125 }, 
	{ NOTE_E5, 125 }, 
	{ NOTE_FS5, 125 }, 
	{ NOTE_GS5, 125 }, 
	{ NOTE_A5, 125 }, 
	{ NOTE_AS5, 250 }, 
	{ NOTE_B5, 250 }, 
	{ NOTE_E5, 125 }, 
	{ NOTE_D5, 125 }, 
	{ NOTE_CS5, 125 }, 
	{ NOTE_B4, 125 }, 
	{ NOTE_A4, 125 }, 
	{ NOTE_B4, 125 }, 
	{ NOTE_CS5, 125 }, 
	{ NOTE_D5, 125 }, 
	{ NOTE_E5, 125 }, 
	{ NOTE_FS5, 125 }, 
	{ NOTE_GS5, 125 }, 
	{ NOTE_A5, 125 }, 
	{ NOTE_A5, 125 }, 
	{ NOTE_GS5, 125 }, 
	{ NOTE_FS5, 125 }, 
	{ NOTE_E5, 125 }, 
	{ NOTE_E5, 125 }, 
	{ NOTE_D5, 125 }, 
	{ NOTE_CS5, 125 }, 
	{ NOTE_B4, 125 }, 
	{ NOTE_CS5, 125 }, 
	{ NOTE_E5, 125 }, 
	{ NOTE_A4, 125 }, 
	{ NOTE_CS5, 125 }, 
	{ NOTE_B4, 125 }, 
	{ NOTE_D5, 125 }, 
	{ NOTE_GS4, 125 }, 
	{ NOTE_B4, 125 }, 
	{ NOTE_A4, 500 }, 
	{ NOTE_CS6, 125 }, 
	{ NOTE_D6, 125 }, 
	{ NOTE_CS6, 125 }, 
	{ NOTE_B5, 125 }, 
	{ NOTE_A5, 125 }, 
	{ NOTE_B5, 125 }, 
	{ NOTE_A5, 125 }, 
	{ NOTE_GS5, 125 }, 
	{ NOTE_FS5, 125 }, 
	{ NOTE_A5, 125 }, 
	{ NOTE_GS5, 125 }, 
	{ NOTE_FS5, 125 }, 
	{ NOTE_F5, 125 }, 
	{ NOTE_FS5, 125 }, 
	{ NOTE_GS5, 125 }, 
	{ NOTE_F5, 125 }, 
	{ NOTE_CS5, 125 }, 
	{ NOTE_DS5, 125 }, 
	{ NOTE_F5, 125 }, 
	{ NOTE_CS5, 125 }, 
	{ NOTE_FS5, 125 }, 
	{ NOTE_F5, 125 }, 
	{ NOTE_FS5, 125 }, 
	{ NOTE_GS5, 125 }, 
	{ NOTE_A5, 125 }, 
	{ NOTE_GS5, 125 }, 
	{ NOTE_A5, 125 }, 
	{ NOTE_B5, 125 }, 
	{ NOTE_CS6, 125 }, 
	{ NOTE_C5, 125 }, 
	{ NOTE_CS6, 125 }, 
	{ NOTE_C5, 125 }, 
	{ NOTE_CS6, 125 }, 
	{ NOTE_C5, 125 }, 
	{ NOTE_CS6, 125 }, 
	{ NOTE_AS5, 125 }, 
	{ NOTE_D6, 125 }, 
	{ NOTE_CS6, 125 }, 
	{ NOTE_D6, 125 }, 
	{ NOTE_CS6, 125 }, 
	{ NOTE_D6, 125 }, 
	{ NOTE_CS6, 125 }, 
	{ NOTE_D6, 125 }, 
	{ NOTE_CS6, 125 }, 
	{ NOTE_D6, 125 }, 
	{ NOTE_CS6, 125 }, 
	{ NOTE_B5, 125 }, 
	{ NOTE_A5, 125 }, 
	{ NOTE_GS5, 125 }, 
	{ NOTE_A5, 125 }, 
	{ NOTE_B5, 125 }, 
	{ NOTE_GS5, 125 }, 
	{ NOTE_A5, 125 }, 
	{ NOTE_B5, 125 }, 
	{ NOTE_CS6, 125 }, 
	{ NOTE_FS5, 125 }, 
	{ NOTE_F5, 125 }, 
	{ NOTE_FS5, 125 }, 
	{ NOTE_GS5, 125 }, 
	{ NOTE_F5, 125 }, 
	{ NOTE_FS5, 500 }, 
	{ NOTE_REST, 250 }, 
	{ NOTE_REST, 250 }, 
	{ NOTE_REST, 500 }, 
	{ NOTE_REST, 250 }, 
	{ NOTE_REST, 250 }, 
	{ NOTE_REST, 250 }, 
	{ NOTE_REST, 250 }, 
	{ NOTE_REST, 250 }, 
	{ NOTE_REST, 250 }, 
	{ NOTE_REST, 250 }, 
	{ NOTE_REST, 250 }, 
	{ NOTE_REST, 250 }, 
	{ NOTE_REST, 250 }, 
	{ NOTE_REST, 250 }, 
	{ NOTE_REST, 250 }, 
	{ NOTE_REST, 250 }, 
	{ NOTE_REST, 250 }, 
	{ NOTE_REST, 500 }, 
	{ NOTE_REST, 250 }, 
	{ NOTE_REST, 250 }, 
	{ NOTE_REST, 250 }, 
	{ NOTE_REST, 250 }, 
	{ NOTE_REST, 250 }, 
	{ NOTE_REST, 250 }, 
	{ NOTE_REST, 250 }, 
	{ NOTE_REST, 250 }, 
	{ NOTE_REST, 250 }, 
	{ NOTE_REST, 250 }, 
	{ NOTE_REST, 500 }, 
	{ NOTE_B4, 125 }, 
	{ NOTE_A4, 125 }, 
	{ NOTE_GS4, 125 }, 
	{ NOTE_A4, 125 }, 
	{ NOTE_C5, 250 }, 
	{ NOTE_REST, 250 }, 
	{ NOTE_D5, 125 }, 
	{ NOTE_C5, 125 }, 
	{ NOTE_B4, 125 }, 
	{ NOTE_C5, 125 }, 
	{ NOTE_E5, 250 }, 
	{ NOTE_REST, 250 }, 
	{ NOTE_F5, 125 }, 
	{ NOTE_E5, 125 }, 
	{ NOTE_DS5, 125 }, 
	{ NOTE_E5, 125 }, 
	{ NOTE_B5, 125 }, 
	{ NOTE_A5, 125 }, 
	{ NOTE_GS5, 125 }, 
	{ NOTE_A5, 125 }, 
	{ NOTE_B5, 125 }, 
	{ NOTE_A5, 125 }, 
	{ NOTE_GS5, 125 }, 
	{ NOTE_A5, 125 }, 
	{ NOTE_C6, 500 }, 
	{ NOTE_A5, 250 }, 
	{ NOTE_C6, 250 }, 
	{ NOTE_G5, 0 }, 
	{ NOTE_A5, 0 }, 
	{ NOTE_B5, 250 }, 
	{ NOTE_REST, 250 }, 
	{ NOTE_REST, 250 }, 
	{ NOTE_REST, 250 }, 
	{ NOTE_G5, 0 }, 
	{ NOTE_A5, 0 }, 
	{ NOTE_B5, 250 }, 
	{ NOTE_REST, 250 }, 
	{ NOTE_REST, 250 }, 
	{ NOTE_REST, 250 }, 
	{ NOTE_G5, 0 }, 
	{ NOTE_A5, 0 }, 
	{ NOTE_B5, 250 }, 
	{ NOTE_REST, 250 }, 
	{ NOTE_REST, 250 }, 
	{ NOTE_REST, 250 }, 
	{ NOTE_E5, 500 }, 
	{ NOTE_REST, 250 }, 
	{ NOTE_REST, 250 }, 
	{ NOTE_REST, 250 }, 
	{ NOTE_REST, 250 }, 
	{ NOTE_A5, 125 }, 
	{ NOTE_G5, 125 }, 
	{ NOTE_F5, 125 }, 
	{ NOTE_E5, 125 }, 
	{ NOTE_D5, 500 }, 
	{ NOTE_REST, 250 }, 
	{ NOTE_REST, 250 }, 
	{ NOTE_REST, 250 }, 
	{ NOTE_REST, 250 }, 
	{ NOTE_A5, 125 }, 
	{ NOTE_G5, 125 }, 
	{ NOTE_F5, 125 }, 
	{ NOTE_E5, 125 }, 
	{ NOTE_REST, 500 }, 
	{ NOTE_REST, 250 }, 
	{ NOTE_REST, 250 }, 
	{ NOTE_REST, 250 }, 
	{ NOTE_REST, 250 }, 
	{ NOTE_F5, 125 }, 
	{ NOTE_E5, 125 }, 
	{ NOTE_D5, 125 }, 
	{ NOTE_C5, 125 }, 
	{ NOTE_B4, 500 }, 
	{ NOTE_REST, 250 }, 
	{ NOTE_REST, 250 }, 
	{ NOTE_REST, 250 }, 
	{ NOTE_REST, 250 }, 
	{ NOTE_F5, 125 }, 
	{ NOTE_E5, 125 }, 
	{ NOTE_D5, 125 }, 
	{ NOTE_C5, 125 }, 
	{ NOTE_REST, 500 }, 
	{ NOTE_B4, 125 }, 
	{ NOTE_A4, 125 }, 
	{ NOTE_GS4, 125 }, 
	{ NOTE_A4, 125 }, 
	{ NOTE_C5, 250 }, 
	{ NOTE_REST, 250 }, 
	{ NOTE_D5, 125 }, 
	{ NOTE_C5, 125 }, 
	{ NOTE_B4, 125 }, 
	{ NOTE_C5, 125 }, 
	{ NOTE_E5, 250 }, 
	{ NOTE_REST, 250 }, 
	{ NOTE_F5, 125 }, 
	{ NOTE_E5, 125 }, 
	{ NOTE_DS5, 125 }, 
	{ NOTE_E5, 125 }, 
	{ NOTE_B5, 125 }, 
	{ NOTE_A5, 125 }, 
	{ NOTE_GS5, 125 }, 
	{ NOTE_A5, 125 }, 
	{ NOTE_B5, 125 }, 
	{ NOTE_A5, 125 }, 
	{ NOTE_GS5, 125 }, 
	{ NOTE_A5, 125 }, 
	{ NOTE_C6, 500 }, 
	{ NOTE_A5, 250 }, 
	{ NOTE_B5, 250 }, 
	{ NOTE_C6, 250 }, 
	{ NOTE_B5, 250 }, 
	{ NOTE_A5, 250 }, 
	{ NOTE_GS5, 250 }, 
	{ NOTE_A5, 250 }, 
	{ NOTE_E5, 250 }, 
	{ NOTE_F5, 250 }, 
	{ NOTE_D5, 250 }, 
	{ NOTE_C5, 500 }, 
	{ NOTE_B4, 375 }, 
	{ NOTE_A4, 62 }, 
	{ NOTE_B4, 63 }, 
	{ NOTE_A4, 500 }, 
	{ NOTE_A4, 125 }, 
	{ NOTE_A5, 125 }, 
	{ NOTE_B4, 125 }, 
	{ NOTE_B5, 125 }, 
	{ NOTE_CS5, 125 }, 
	{ NOTE_CS6, 125 }, 
	{ NOTE_REST, 250 }, 
	{ NOTE_A4, 125 }, 
	{ NOTE_A5, 125 }, 
	{ NOTE_B4, 125 }, 
	{ NOTE_B5, 125 }, 
	{ NOTE_CS5, 125 }, 
	{ NOTE_CS6, 125 }, 
	{ NOTE_B4, 125 }, 
	{ NOTE_B5, 125 }, 
	{ NOTE_A4, 125 }, 
	{ NOTE_A5, 125 }, 
	{ NOTE_GS4, 125 }, 
	{ NOTE_GS5, 125 }, 
	{ NOTE_FS4, 125 }, 
	{ NOTE_FS5, 125 }, 
	{ NOTE_GS4, 125 }, 
	{ NOTE_GS5, 125 }, 
	{ NOTE_A4, 125 }, 
	{ NOTE_A5, 125 }, 
	{ NOTE_B4, 125 }, 
	{ NOTE_B5, 125 }, 
	{ NOTE_GS4, 125 }, 
	{ NOTE_GS5, 125 }, 
	{ NOTE_E4, 125 }, 
	{ NOTE_E5, 125 }, 
	{ NOTE_A4, 125 }, 
	{ NOTE_A5, 125 }, 
	{ NOTE_B4, 125 }, 
	{ NOTE_B5, 125 }, 
	{ NOTE_CS5, 125 }, 
	{ NOTE_CS6, 125 }, 
	{ NOTE_REST, 250 }, 
	{ NOTE_A4, 125 }, 
	{ NOTE_A5, 125 }, 
	{ NOTE_B4, 125 }, 
	{ NOTE_B5, 125 }, 
	{ NOTE_CS5, 125 }, 
	{ NOTE_CS6, 125 }, 
	{ NOTE_B4, 125 }, 
	{ NOTE_B5, 125 }, 
	{ NOTE_A4, 125 }, 
	{ NOTE_A5, 125 }, 
	{ NOTE_GS4, 125 }, 
	{ NOTE_GS5, 125 }, 
	{ NOTE_FS4, 125 }, 
	{ NOTE_FS5, 125 }, 
	{ NOTE_B4, 125 }, 
	{ NOTE_B5, 125 }, 
	{ NOTE_GS4, 125 }, 
	{ NOTE_GS5, 125 }, 
	{ NOTE_E4, 125 }, 
	{ NOTE_E5, 125 }, 
	{ NOTE_REST, 500 }, 
	{ NOTE_REST, 500 }, 
	{ NOTE_REST, 500 }, 
	{ NOTE_CS6, 1000 }, 
	{ NOTE_CS6, 1000 }, 
	{ NOTE_D6, 125 }, 
	{ NOTE_CS6, 125 }, 
	{ NOTE_B5, 125 }, 
	{ NOTE_CS6, 125 }, 
	{ NOTE_D6, 125 }, 
	{ NOTE_CS6, 125 }, 
	{ NOTE_B5, 125 }, 
	{ NOTE_CS6, 125 }, 
	{ NOTE_D6, 1000 }, 
	{ NOTE_D6, 0 }, 
	{ NOTE_CS6, 250 }, 
	{ NOTE_D6, 0 }, 
	{ NOTE_CS6, 250 }, 
	{ NOTE_D6, 0 }, 
	{ NOTE_CS6, 250 }, 
	{ NOTE_D6, 0 }, 
	{ NOTE_CS6, 250 }, 
	{ NOTE_B5, 750 }, 
	{ NOTE_E6, 250 }, 
	{ NOTE_CS6, 1000 }, 
	{ NOTE_CS6, 1000 }, 
	{ NOTE_D6, 125 }, 
	{ NOTE_CS6, 125 }, 
	{ NOTE_B5, 125 }, 
	{ NOTE_CS6, 125 }, 
	{ NOTE_D6, 125 }, 
	{ NOTE_CS6, 125 }, 
	{ NOTE_B5, 125 }, 
	{ NOTE_CS6, 125 }, 
	{ NOTE_D6, 1000 }, 
	{ NOTE_D6, 0 }, 
	{ NOTE_CS6, 1000 }, 
	{ NOTE_CS6, 0 }, 
	{ NOTE_B5, 250 }, 
	{ NOTE_CS6, 0 }, 
	{ NOTE_B5, 250 }, 
	{ NOTE_CS6, 0 }, 
	{ NOTE_B5, 250 }, 
	{ NOTE_CS6, 0 }, 
	{ NOTE_B5, 250 }, 
	{ NOTE_A5, 500 }, 
	{ NOTE_E5, 0 }, 
	{ NOTE_A5, 0 }, 
	{ NOTE_CS6, 375 }, 
	{ NOTE_CS6, 125 }, 
	{ NOTE_E5, 0 }, 
	{ NOTE_A5, 0 }, 
	{ NOTE_CS6, 1000 }, 
	{ NOTE_E5, 0 }, 
	{ NOTE_A5, 0 }, 
	{ NOTE_CS6, 1000 }, 
	{ NOTE_D6, 125 }, 
	{ NOTE_CS6, 125 }, 
	{ NOTE_B5, 125 }, 
	{ NOTE_CS6, 125 }, 
	{ NOTE_D6, 125 }, 
	{ NOTE_CS6, 125 }, 
	{ NOTE_B5, 125 }, 
	{ NOTE_CS6, 125 }, 
	{ NOTE_D6, 1000 }, 
	{ NOTE_D6, 0 }, 
	{ NOTE_CS6, 250 }, 
	{ NOTE_D6, 0 }, 
	{ NOTE_CS6, 250 }, 
	{ NOTE_D6, 0 }, 
	{ NOTE_CS6, 250 }, 
	{ NOTE_D6, 0 }, 
	{ NOTE_CS6, 250 }, 
	{ NOTE_B5, 750 }, 
	{ NOTE_E6, 250 }, 
	{ NOTE_CS6, 1000 }, 
	{ NOTE_CS6, 1000 }, 
	{ NOTE_D6, 125 }, 
	{ NOTE_CS6, 125 }, 
	{ NOTE_B5, 125 }, 
	{ NOTE_CS6, 125 }, 
	{ NOTE_D6, 125 }, 
	{ NOTE_CS6, 125 }, 
	{ NOTE_B5, 125 }, 
	{ NOTE_CS6, 125 }, 
	{ NOTE_D6, 1000 }, 
	{ NOTE_D6, 0 }, 
	{ NOTE_CS6, 1000 }, 
	{ NOTE_CS6, 0 }, 
	{ NOTE_B5, 250 }, 
	{ NOTE_CS6, 0 }, 
	{ NOTE_B5, 250 }, 
	{ NOTE_CS6, 0 }, 
	{ NOTE_B5, 250 }, 
	{ NOTE_CS6, 0 }, 
	{ NOTE_B5, 250 }, 
	{ NOTE_E5, 750 }, 
	{ NOTE_REST, 250 }, 
	{ NOTE_REST, 750 }, 
	{ NOTE_REST, 250 }, 
	{ NOTE_REST, 750 }, 
	{ NOTE_REST, 250 }, 
	{ NOTE_REST, 250 }, 
	{ NOTE_REST, 250 }, 
	{ NOTE_REST, 250 }, 
	{ NOTE_REST, 250 }, 
	{ NOTE_REST, 500 }, 
	{ NOTE_E5, 500 }, 
	{ NOTE_E5, 500 }, 
	{ NOTE_REST, 500 }, 
};
const uint16_t NUM_OF_NOTES2 = sizeof(melody2)/sizeof(melody2[0]);

const Note melody3[] PROGMEM = {
	{ NOTE_REST, 500 }, 
	{ NOTE_A4, 250 }, 
	{ NOTE_E5, 250 }, 
	{ NOTE_E5, 250 }, 
	{ NOTE_E5, 250 }, 
	{ NOTE_A4, 250 }, 
	{ NOTE_E5, 250 }, 
	{ NOTE_E5, 250 }, 
	{ NOTE_E5, 250 }, 
	{ NOTE_A4, 250 }, 
	{ NOTE_E5, 250 }, 
	{ NOTE_A4, 250 }, 
	{ NOTE_E5, 250 }, 
	{ NOTE_A4, 250 }, 
	{ NOTE_E5, 250 }, 
	{ NOTE_E5, 250 }, 
	{ NOTE_E5, 250 }, 
	{ NOTE_E4, 250 }, 
	{ NOTE_E5, 250 }, 
	{ NOTE_E5, 250 }, 
	{ NOTE_E5, 250 }, 
	{ NOTE_E4, 250 }, 
	{ NOTE_E5, 250 }, 
	{ NOTE_E5, 250 }, 
	{ NOTE_E5, 250 }, 
	{ NOTE_E4, 250 }, 
	{ NOTE_E5, 250 }, 
	{ NOTE_B3, 250 }, 
	{ NOTE_B4, 250 }, 
	{ NOTE_E4, 500 }, 
	{ NOTE_REST, 500 }, 
	{ NOTE_C4, 250 }, 
	{ NOTE_C5, 250 }, 
	{ NOTE_E4, 250 }, 
	{ NOTE_E5, 250 }, 
	{ NOTE_G4, 500 }, 
	{ NOTE_REST, 500 }, 
	{ NOTE_C4, 250 }, 
	{ NOTE_C5, 250 }, 
	{ NOTE_E4, 250 }, 
	{ NOTE_E5, 250 }, 
	{ NOTE_G4, 500 }, 
	{ NOTE_REST, 500 }, 
	{ NOTE_A3, 250 }, 
	{ NOTE_A4, 250 }, 
	{ NOTE_C4, 250 }, 
	{ NOTE_C5, 250 }, 
	{ NOTE_E4, 500 }, 
	{ NOTE_REST, 500 }, 
	{ NOTE_A3, 250 }, 
	{ NOTE_A4, 250 }, 
	{ NOTE_C4, 250 }, 
	{ NOTE_C5, 250 }, 
	{ NOTE_E4, 500 }, 
	{ NOTE_REST, 500 }, 
	{ NOTE_A4, 250 }, 
	{ NOTE_E5, 250 }, 
	{ NOTE_E5, 250 }, 
	{ NOTE_E5, 250 }, 
	{ NOTE_A4, 250 }, 
	{ NOTE_E5, 250 }, 
	{ NOTE_E5, 250 }, 
	{ NOTE_E5, 250 }, 
	{ NOTE_A4, 250 }, 
	{ NOTE_E5, 250 }, 
	{ NOTE_A4, 250 }, 
	{ NOTE_E5, 250 }, 
	{ NOTE_F4, 250 }, 
	{ NOTE_DS5, 250 }, 
	{ NOTE_DS5, 250 }, 
	{ NOTE_DS5, 250 }, 
	{ NOTE_E4, 250 }, 
	{ NOTE_E5, 250 }, 
	{ NOTE_D4, 250 }, 
	{ NOTE_B4, 250 }, 
	{ NOTE_C4, 250 }, 
	{ NOTE_A4, 250 }, 
	{ NOTE_D4, 250 }, 
	{ NOTE_B4, 250 }, 
	{ NOTE_A4, 250 }, 
	{ NOTE_A4, 250 }, 
	{ NOTE_GS4, 250 }, 
	{ NOTE_GS4, 250 }, 
	{ NOTE_A4, 500 }, 
	{ NOTE_REST, 500 }, 
	{ NOTE_A3, 0 }, 
	{ NOTE_CS4, 0 }, 
	{ NOTE_E4, 0 }, 
	{ NOTE_A4, 250 }, 
	{ NOTE_A4, 250 }, 
	{ NOTE_A4, 250 }, 
	{ NOTE_A4, 250 }, 
	{ NOTE_A3, 0 }, 
	{ NOTE_CS4, 0 }, 
	{ NOTE_E4, 0 }, 
	{ NOTE_A4, 250 }, 
	{ NOTE_A4, 250 }, 
	{ NOTE_A4, 250 }, 
	{ NOTE_A4, 250 }, 
	{ NOTE_D3, 0 }, 
	{ NOTE_FS3, 0 }, 
	{ NOTE_A3, 0 }, 
	{ NOTE_D4, 250 }, 
	{ NOTE_D4, 250 }, 
	{ NOTE_DS3, 0 }, 
	{ NOTE_FS3, 0 }, 
	{ NOTE_A3, 0 }, 
	{ NOTE_DS4, 250 }, 
	{ NOTE_DS4, 250 }, 
	{ NOTE_E3, 0 }, 
	{ NOTE_GS3, 0 }, 
	{ NOTE_B3, 0 }, 
	{ NOTE_E4, 250 }, 
	{ NOTE_E4, 250 }, 
	{ NOTE_E4, 250 }, 
	{ NOTE_E4, 250 }, 
	{ NOTE_A3, 0 }, 
	{ NOTE_CS4, 0 }, 
	{ NOTE_E4, 0 }, 
	{ NOTE_A4, 250 }, 
	{ NOTE_A4, 250 }, 
	{ NOTE_A4, 250 }, 
	{ NOTE_A4, 250 }, 
	{ NOTE_A3, 0 }, 
	{ NOTE_CS4, 0 }, 
	{ NOTE_E4, 0 }, 
	{ NOTE_A4, 250 }, 
	{ NOTE_A4, 250 }, 
	{ NOTE_A4, 250 }, 
	{ NOTE_A4, 250 }, 
	{ NOTE_D3, 0 }, 
	{ NOTE_FS3, 0 }, 
	{ NOTE_A3, 0 }, 
	{ NOTE_D4, 250 }, 
	{ NOTE_D4, 250 }, 
	{ NOTE_E3, 0 }, 
	{ NOTE_GS3, 0 }, 
	{ NOTE_B3, 0 }, 
	{ NOTE_E4, 250 }, 
	{ NOTE_E4, 250 }, 
	{ NOTE_A3, 500 }, 
	{ NOTE_REST, 500 }, 
	{ NOTE_FS4, 250 }, 
	{ NOTE_CS5, 250 }, 
	{ NOTE_CS5, 250 }, 
	{ NOTE_CS5, 250 }, 
	{ NOTE_GS4, 250 }, 
	{ NOTE_CS5, 250 }, 
	{ NOTE_CS5, 250 }, 
	{ NOTE_CS5, 250 }, 
	{ NOTE_FS4, 250 }, 
	{ NOTE_CS5, 250 }, 
	{ NOTE_CS5, 250 }, 
	{ NOTE_CS5, 250 }, 
	{ NOTE_F4, 250 }, 
	{ NOTE_CS5, 250 }, 
	{ NOTE_CS5, 250 }, 
	{ NOTE_CS5, 250 }, 
	{ NOTE_FS4, 250 }, 
	{ NOTE_CS5, 250 }, 
	{ NOTE_CS5, 250 }, 
	{ NOTE_CS5, 250 }, 
	{ NOTE_GS4, 250 }, 
	{ NOTE_E5, 250 }, 
	{ NOTE_E5, 250 }, 
	{ NOTE_E5, 250 }, 
	{ NOTE_GS4, 250 }, 
	{ NOTE_FS5, 250 }, 
	{ NOTE_FS5, 250 }, 
	{ NOTE_FS5, 250 }, 
	{ NOTE_E5, 500 }, 
	{ NOTE_REST, 500 }, 
	{ NOTE_A4, 250 }, 
	{ NOTE_E5, 250 }, 
	{ NOTE_E5, 250 }, 
	{ NOTE_E5, 250 }, 
	{ NOTE_B4, 250 }, 
	{ NOTE_E5, 250 }, 
	{ NOTE_GS4, 250 }, 
	{ NOTE_E5, 250 }, 
	{ NOTE_A4, 250 }, 
	{ NOTE_E5, 250 }, 
	{ NOTE_E5, 250 }, 
	{ NOTE_E5, 250 }, 
	{ NOTE_E4, 250 }, 
	{ NOTE_D5, 250 }, 
	{ NOTE_D5, 250 }, 
	{ NOTE_D5, 250 }, 
	{ NOTE_A4, 250 }, 
	{ NOTE_E5, 250 }, 
	{ NOTE_E5, 250 }, 
	{ NOTE_E5, 250 }, 
	{ NOTE_B4, 250 }, 
	{ NOTE_E5, 250 }, 
	{ NOTE_GS4, 250 }, 
	{ NOTE_E5, 250 }, 
	{ NOTE_A4, 250 }, 
	{ NOTE_FS4, 250 }, 
	{ NOTE_D4, 250 }, 
	{ NOTE_E4, 250 }, 
	{ NOTE_A3, 250 }, 
	{ NOTE_A4, 250 }, 
	{ NOTE_REST, 500 }, 
	{ NOTE_FS4, 250 }, 
	{ NOTE_CS5, 250 }, 
	{ NOTE_CS5, 250 }, 
	{ NOTE_CS5, 250 }, 
	{ NOTE_GS4, 250 }, 
	{ NOTE_CS5, 250 }, 
	{ NOTE_CS5, 250 }, 
	{ NOTE_CS5, 250 }, 
	{ NOTE_FS4, 250 }, 
	{ NOTE_CS5, 250 }, 
	{ NOTE_CS5, 250 }, 
	{ NOTE_CS5, 250 }, 
	{ NOTE_CS4, 250 }, 
	{ NOTE_CS5, 250 }, 
	{ NOTE_CS5, 250 }, 
	{ NOTE_CS5, 250 }, 
	{ NOTE_B3, 250 }, 
	{ NOTE_B4, 250 }, 
	{ NOTE_B4, 250 }, 
	{ NOTE_B4, 250 }, 
	{ NOTE_B3, 250 }, 
	{ NOTE_B4, 250 }, 
	{ NOTE_B4, 250 }, 
	{ NOTE_B4, 250 }, 
	{ NOTE_CS4, 250 }, 
	{ NOTE_A4, 250 }, 
	{ NOTE_CS4, 250 }, 
	{ NOTE_B4, 250 }, 
	{ NOTE_A4, 500 }, 
	{ NOTE_REST, 500 }, 
	{ NOTE_A3, 0 }, 
	{ NOTE_CS4, 0 }, 
	{ NOTE_E4, 0 }, 
	{ NOTE_A4, 250 }, 
	{ NOTE_A4, 250 }, 
	{ NOTE_A4, 250 }, 
	{ NOTE_A4, 250 }, 
	{ NOTE_A3, 0 }, 
	{ NOTE_CS4, 0 }, 
	{ NOTE_E4, 0 }, 
	{ NOTE_A4, 250 }, 
	{ NOTE_A4, 250 }, 
	{ NOTE_A4, 250 }, 
	{ NOTE_A4, 250 }, 
	{ NOTE_D3, 0 }, 
	{ NOTE_FS3, 0 }, 
	{ NOTE_A3, 0 }, 
	{ NOTE_D4, 250 }, 
	{ NOTE_D4, 250 }, 
	{ NOTE_DS3, 0 }, 
	{ NOTE_FS3, 0 }, 
	{ NOTE_A3, 0 }, 
	{ NOTE_DS4, 250 }, 
	{ NOTE_DS4, 250 }, 
	{ NOTE_E3, 0 }, 
	{ NOTE_GS3, 0 }, 
	{ NOTE_B3, 0 }, 
	{ NOTE_E4, 250 }, 
	{ NOTE_E4, 250 }, 
	{ NOTE_E4, 250 }, 
	{ NOTE_E4, 250 }, 
	{ NOTE_A3, 0 }, 
	{ NOTE_CS4, 0 }, 
	{ NOTE_E4, 0 }, 
	{ NOTE_A4, 250 }, 
	{ NOTE_A4, 250 }, 
	{ NOTE_A4, 250 }, 
	{ NOTE_A4, 250 }, 
	{ NOTE_A3, 0 }, 
	{ NOTE_CS4, 0 }, 
	{ NOTE_E4, 0 }, 
	{ NOTE_A4, 250 }, 
	{ NOTE_A4, 250 }, 
	{ NOTE_A4, 250 }, 
	{ NOTE_A4, 250 }, 
	{ NOTE_D3, 0 }, 
	{ NOTE_FS3, 0 }, 
	{ NOTE_A3, 0 }, 
	{ NOTE_D4, 250 }, 
	{ NOTE_D4, 250 }, 
	{ NOTE_E3, 0 }, 
	{ NOTE_GS3, 0 }, 
	{ NOTE_B3, 0 }, 
	{ NOTE_E4, 250 }, 
	{ NOTE_E4, 250 }, 
	{ NOTE_A3, 500 }, 
	{ NOTE_REST, 500 }, 
	{ NOTE_A4, 250 }, 
	{ NOTE_E5, 250 }, 
	{ NOTE_E5, 250 }, 
	{ NOTE_E5, 250 }, 
	{ NOTE_A4, 250 }, 
	{ NOTE_E5, 250 }, 
	{ NOTE_E5, 250 }, 
	{ NOTE_E5, 250 }, 
	{ NOTE_A4, 250 }, 
	{ NOTE_E5, 250 }, 
	{ NOTE_A4, 250 }, 
	{ NOTE_E5, 250 }, 
	{ NOTE_A4, 250 }, 
	{ NOTE_E5, 250 }, 
	{ NOTE_E5, 250 }, 
	{ NOTE_E5, 250 }, 
	{ NOTE_E4, 250 }, 
	{ NOTE_E5, 250 }, 
	{ NOTE_E5, 250 }, 
	{ NOTE_E5, 250 }, 
	{ NOTE_E4, 250 }, 
	{ NOTE_E5, 250 }, 
	{ NOTE_E5, 250 }, 
	{ NOTE_E5, 250 }, 
	{ NOTE_E4, 250 }, 
	{ NOTE_E5, 250 }, 
	{ NOTE_B3, 250 }, 
	{ NOTE_B4, 250 }, 
	{ NOTE_E4, 500 }, 
	{ NOTE_REST, 500 }, 
	{ NOTE_C4, 250 }, 
	{ NOTE_C5, 250 }, 
	{ NOTE_E4, 250 }, 
	{ NOTE_E5, 250 }, 
	{ NOTE_G4, 500 }, 
	{ NOTE_REST, 500 }, 
	{ NOTE_C4, 250 }, 
	{ NOTE_C5, 250 }, 
	{ NOTE_E4, 250 }, 
	{ NOTE_E5, 250 }, 
	{ NOTE_G4, 500 }, 
	{ NOTE_REST, 500 }, 
	{ NOTE_A3, 250 }, 
	{ NOTE_A4, 250 }, 
	{ NOTE_C4, 250 }, 
	{ NOTE_C5, 250 }, 
	{ NOTE_E4, 500 }, 
	{ NOTE_REST, 500 }, 
	{ NOTE_A3, 250 }, 
	{ NOTE_A4, 250 }, 
	{ NOTE_C4, 250 }, 
	{ NOTE_C5, 250 }, 
	{ NOTE_E4, 500 }, 
	{ NOTE_REST, 500 }, 
	{ NOTE_A4, 250 }, 
	{ NOTE_E5, 250 }, 
	{ NOTE_E5, 250 }, 
	{ NOTE_E5, 250 }, 
	{ NOTE_A4, 250 }, 
	{ NOTE_E5, 250 }, 
	{ NOTE_E5, 250 }, 
	{ NOTE_E5, 250 }, 
	{ NOTE_A4, 250 }, 
	{ NOTE_E5, 250 }, 
	{ NOTE_A4, 250 }, 
	{ NOTE_E5, 250 }, 
	{ NOTE_F4, 250 }, 
	{ NOTE_DS5, 250 }, 
	{ NOTE_DS5, 250 }, 
	{ NOTE_DS5, 250 }, 
	{ NOTE_E4, 250 }, 
	{ NOTE_E5, 250 }, 
	{ NOTE_D4, 250 }, 
	{ NOTE_B4, 250 }, 
	{ NOTE_C4, 250 }, 
	{ NOTE_A4, 250 }, 
	{ NOTE_D4, 250 }, 
	{ NOTE_B4, 250 }, 
	{ NOTE_A4, 250 }, 
	{ NOTE_A4, 250 }, 
	{ NOTE_GS4, 250 }, 
	{ NOTE_GS4, 250 }, 
	{ NOTE_A4, 500 }, 
	{ NOTE_REST, 500 }, 
	{ NOTE_A3, 0 }, 
	{ NOTE_CS4, 0 }, 
	{ NOTE_E4, 0 }, 
	{ NOTE_A4, 250 }, 
	{ NOTE_A4, 250 }, 
	{ NOTE_A4, 250 }, 
	{ NOTE_A4, 250 }, 
	{ NOTE_A3, 0 }, 
	{ NOTE_CS4, 0 }, 
	{ NOTE_E4, 0 }, 
	{ NOTE_A4, 250 }, 
	{ NOTE_A4, 250 }, 
	{ NOTE_A4, 250 }, 
	{ NOTE_A4, 250 }, 
	{ NOTE_D3, 0 }, 
	{ NOTE_FS3, 0 }, 
	{ NOTE_A3, 0 }, 
	{ NOTE_D4, 250 }, 
	{ NOTE_D4, 250 }, 
	{ NOTE_DS3, 0 }, 
	{ NOTE_FS3, 0 }, 
	{ NOTE_A3, 0 }, 
	{ NOTE_DS4, 250 }, 
	{ NOTE_DS4, 250 }, 
	{ NOTE_E3, 0 }, 
	{ NOTE_GS3, 0 }, 
	{ NOTE_B3, 0 }, 
	{ NOTE_E4, 250 }, 
	{ NOTE_E4, 250 }, 
	{ NOTE_E4, 250 }, 
	{ NOTE_E4, 250 }, 
	{ NOTE_A3, 0 }, 
	{ NOTE_CS4, 0 }, 
	{ NOTE_E4, 0 }, 
	{ NOTE_A4, 250 }, 
	{ NOTE_A4, 250 }, 
	{ NOTE_A4, 250 }, 
	{ NOTE_A4, 250 }, 
	{ NOTE_A3, 0 }, 
	{ NOTE_CS4, 0 }, 
	{ NOTE_E4, 0 }, 
	{ NOTE_A4, 250 }, 
	{ NOTE_A4, 250 }, 
	{ NOTE_A4, 250 }, 
	{ NOTE_A4, 250 }, 
	{ NOTE_D3, 0 }, 
	{ NOTE_FS3, 0 }, 
	{ NOTE_A3, 0 }, 
	{ NOTE_D4, 250 }, 
	{ NOTE_D4, 250 }, 
	{ NOTE_E3, 0 }, 
	{ NOTE_GS3, 0 }, 
	{ NOTE_B3, 0 }, 
	{ NOTE_E4, 250 }, 
	{ NOTE_E4, 250 }, 
	{ NOTE_A3, 500 }, 
	{ NOTE_A3, 0 }, 
	{ NOTE_CS4, 0 }, 
	{ NOTE_E4, 0 }, 
	{ NOTE_A4, 250 }, 
	{ NOTE_A4, 250 }, 
	{ NOTE_A4, 250 }, 
	{ NOTE_A4, 250 }, 
	{ NOTE_A3, 0 }, 
	{ NOTE_CS4, 0 }, 
	{ NOTE_E4, 0 }, 
	{ NOTE_A4, 250 }, 
	{ NOTE_A4, 250 }, 
	{ NOTE_A4, 250 }, 
	{ NOTE_A4, 250 }, 
	{ NOTE_A3, 0 }, 
	{ NOTE_CS4, 0 }, 
	{ NOTE_E4, 0 }, 
	{ NOTE_A4, 250 }, 
	{ NOTE_A4, 250 }, 
	{ NOTE_A4, 250 }, 
	{ NOTE_A4, 250 }, 
	{ NOTE_A3, 0 }, 
	{ NOTE_CS4, 0 }, 
	{ NOTE_E4, 0 }, 
	{ NOTE_A4, 250 }, 
	{ NOTE_A4, 250 }, 
	{ NOTE_A4, 250 }, 
	{ NOTE_A4, 250 }, 
	{ NOTE_D3, 0 }, 
	{ NOTE_FS3, 0 }, 
	{ NOTE_A3, 0 }, 
	{ NOTE_D4, 250 }, 
	{ NOTE_D4, 250 }, 
	{ NOTE_D4, 250 }, 
	{ NOTE_D4, 250 }, 
	{ NOTE_A3, 0 }, 
	{ NOTE_CS4, 0 }, 
	{ NOTE_E4, 0 }, 
	{ NOTE_A4, 250 }, 
	{ NOTE_A4, 250 }, 
	{ NOTE_A4, 250 }, 
	{ NOTE_A4, 250 }, 
	{ NOTE_E3, 0 }, 
	{ NOTE_GS3, 0 }, 
	{ NOTE_B3, 0 }, 
	{ NOTE_E4, 250 }, 
	{ NOTE_E4, 250 }, 
	{ NOTE_E4, 250 }, 
	{ NOTE_E4, 250 }, 
	{ NOTE_A3, 0 }, 
	{ NOTE_CS4, 0 }, 
	{ NOTE_E4, 0 }, 
	{ NOTE_A4, 250 }, 
	{ NOTE_A4, 250 }, 
	{ NOTE_A4, 250 }, 
	{ NOTE_A4, 250 }, 
	{ NOTE_A3, 0 }, 
	{ NOTE_CS4, 0 }, 
	{ NOTE_E4, 0 }, 
	{ NOTE_A4, 250 }, 
	{ NOTE_A4, 250 }, 
	{ NOTE_A4, 250 }, 
	{ NOTE_A4, 250 }, 
	{ NOTE_A3, 0 }, 
	{ NOTE_CS4, 0 }, 
	{ NOTE_E4, 0 }, 
	{ NOTE_A4, 250 }, 
	{ NOTE_A4, 250 }, 
	{ NOTE_A4, 250 }, 
	{ NOTE_A4, 250 }, 
	{ NOTE_D3, 0 }, 
	{ NOTE_FS3, 0 }, 
	{ NOTE_A3, 0 }, 
	{ NOTE_D4, 250 }, 
	{ NOTE_D4, 250 }, 
	{ NOTE_D4, 250 }, 
	{ NOTE_D4, 250 }, 
	{ NOTE_A3, 0 }, 
	{ NOTE_CS4, 0 }, 
	{ NOTE_E4, 0 }, 
	{ NOTE_A4, 250 }, 
	{ NOTE_A4, 250 }, 
	{ NOTE_A4, 250 }, 
	{ NOTE_A4, 250 }, 
	{ NOTE_E3, 0 }, 
	{ NOTE_GS3, 0 }, 
	{ NOTE_B3, 0 }, 
	{ NOTE_E4, 250 }, 
	{ NOTE_E4, 250 }, 
	{ NOTE_E4, 250 }, 
	{ NOTE_E4, 250 }, 
	{ NOTE_A4, 125 }, 
	{ NOTE_E5, 125 }, 
	{ NOTE_CS5, 125 }, 
	{ NOTE_E5, 125 }, 
	{ NOTE_A4, 125 }, 
	{ NOTE_E5, 125 }, 
	{ NOTE_CS5, 125 }, 
	{ NOTE_E5, 125 }, 
	{ NOTE_A4, 125 }, 
	{ NOTE_E5, 125 }, 
	{ NOTE_CS5, 125 }, 
	{ NOTE_E5, 125 }, 
	{ NOTE_A4, 125 }, 
	{ NOTE_E5, 125 }, 
	{ NOTE_CS5, 125 }, 
	{ NOTE_E5, 125 }, 
	{ NOTE_A4, 125 }, 
	{ NOTE_E5, 125 }, 
	{ NOTE_CS5, 125 }, 
	{ NOTE_E5, 125 }, 
	{ NOTE_A4, 125 }, 
	{ NOTE_E5, 125 }, 
	{ NOTE_CS5, 125 }, 
	{ NOTE_E5, 125 }, 
	{ NOTE_A4, 125 }, 
	{ NOTE_E5, 125 }, 
	{ NOTE_CS5, 125 }, 
	{ NOTE_E5, 125 }, 
	{ NOTE_A4, 125 }, 
	{ NOTE_E5, 125 }, 
	{ NOTE_CS5, 125 }, 
	{ NOTE_E5, 125 }, 
	{ NOTE_A4, 125 }, 
	{ NOTE_FS5, 125 }, 
	{ NOTE_D5, 125 }, 
	{ NOTE_FS5, 125 }, 
	{ NOTE_A4, 125 }, 
	{ NOTE_FS5, 125 }, 
	{ NOTE_D5, 125 }, 
	{ NOTE_FS5, 125 }, 
	{ NOTE_A4, 125 }, 
	{ NOTE_E5, 125 }, 
	{ NOTE_CS5, 125 }, 
	{ NOTE_E5, 125 }, 
	{ NOTE_A4, 125 }, 
	{ NOTE_E5, 125 }, 
	{ NOTE_CS5, 125 }, 
	{ NOTE_E5, 125 }, 
	{ NOTE_E4, 125 }, 
	{ NOTE_E5, 125 }, 
	{ NOTE_B4, 125 }, 
	{ NOTE_E5, 125 }, 
	{ NOTE_E4, 125 }, 
	{ NOTE_E5, 125 }, 
	{ NOTE_B4, 125 }, 
	{ NOTE_E5, 125 }, 
	{ NOTE_A3, 0 }, 
	{ NOTE_CS4, 0 }, 
	{ NOTE_E4, 0 }, 
	{ NOTE_A4, 250 }, 
	{ NOTE_A4, 250 }, 
	{ NOTE_A4, 250 }, 
	{ NOTE_A4, 250 }, 
	{ NOTE_A3, 0 }, 
	{ NOTE_CS4, 0 }, 
	{ NOTE_E4, 0 }, 
	{ NOTE_A4, 250 }, 
	{ NOTE_A4, 250 }, 
	{ NOTE_A4, 250 }, 
	{ NOTE_A4, 250 }, 
	{ NOTE_A3, 0 }, 
	{ NOTE_CS4, 0 }, 
	{ NOTE_E4, 0 }, 
	{ NOTE_A4, 250 }, 
	{ NOTE_A4, 250 }, 
	{ NOTE_A4, 250 }, 
	{ NOTE_A4, 250 }, 
	{ NOTE_D3, 0 }, 
	{ NOTE_FS3, 0 }, 
	{ NOTE_A3, 0 }, 
	{ NOTE_D4, 250 }, 
	{ NOTE_D4, 250 }, 
	{ NOTE_D4, 250 }, 
	{ NOTE_D4, 250 }, 
	{ NOTE_A3, 0 }, 
	{ NOTE_CS4, 0 }, 
	{ NOTE_E4, 0 }, 
	{ NOTE_A4, 250 }, 
	{ NOTE_A4, 250 }, 
	{ NOTE_A4, 250 }, 
	{ NOTE_A4, 250 }, 
	{ NOTE_E3, 0 }, 
	{ NOTE_GS3, 0 }, 
	{ NOTE_B3, 0 }, 
	{ NOTE_E4, 250 }, 
	{ NOTE_E4, 250 }, 
	{ NOTE_E4, 250 }, 
	{ NOTE_E4, 250 }, 
	{ NOTE_A3, 0 }, 
	{ NOTE_CS4, 0 }, 
	{ NOTE_E4, 0 }, 
	{ NOTE_A4, 250 }, 
	{ NOTE_A4, 250 }, 
	{ NOTE_A4, 250 }, 
	{ NOTE_A4, 250 }, 
	{ NOTE_A3, 0 }, 
	{ NOTE_CS4, 0 }, 
	{ NOTE_E4, 0 }, 
	{ NOTE_A4, 250 }, 
	{ NOTE_A4, 250 }, 
	{ NOTE_A4, 250 }, 
	{ NOTE_A4, 250 }, 
	{ NOTE_A3, 0 }, 
	{ NOTE_CS4, 0 }, 
	{ NOTE_E4, 0 }, 
	{ NOTE_A4, 250 }, 
	{ NOTE_A4, 250 }, 
	{ NOTE_A4, 250 }, 
	{ NOTE_A4, 250 }, 
	{ NOTE_A3, 0 }, 
	{ NOTE_CS4, 0 }, 
	{ NOTE_E4, 0 }, 
	{ NOTE_A4, 250 }, 
	{ NOTE_A4, 250 }, 
	{ NOTE_A3, 0 }, 
	{ NOTE_CS4, 0 }, 
	{ NOTE_E4, 0 }, 
	{ NOTE_A4, 250 }, 
	{ NOTE_A4, 250 }, 
	{ NOTE_A3, 500 }, 
	{ NOTE_CS4, 500 }, 
	{ NOTE_CS4, 500 }, 
	{ NOTE_REST, 500 }, 
};
const uint16_t NUM_OF_NOTES3 = sizeof(melody3)/sizeof(melody3[0]);

const Note melody4[] PROGMEM = {
	{ NOTE_REST, 500 }, 
	{ NOTE_A4, 250 }, 
	{ NOTE_C5, 250 }, 
	{ NOTE_C5, 250 }, 
	{ NOTE_C5, 250 }, 
	{ NOTE_A4, 250 }, 
	{ NOTE_C5, 250 }, 
	{ NOTE_C5, 250 }, 
	{ NOTE_C5, 250 }, 
	{ NOTE_A4, 250 }, 
	{ NOTE_C5, 250 }, 
	{ NOTE_A4, 250 }, 
	{ NOTE_C5, 250 }, 
	{ NOTE_A4, 250 }, 
	{ NOTE_C5, 250 }, 
	{ NOTE_C5, 250 }, 
	{ NOTE_C5, 250 }, 
	{ NOTE_E4, 250 }, 
	{ NOTE_B4, 250 }, 
	{ NOTE_B4, 250 }, 
	{ NOTE_B4, 250 }, 
	{ NOTE_E4, 250 }, 
	{ NOTE_B4, 250 }, 
	{ NOTE_B4, 250 }, 
	{ NOTE_B4, 250 }, 
	{ NOTE_E4, 250 }, 
	{ NOTE_B4, 250 }, 
	{ NOTE_B3, 250 }, 
	{ NOTE_B4, 250 }, 
	{ NOTE_E4, 500 }, 
	{ NOTE_REST, 500 }, 
	{ NOTE_C4, 250 }, 
	{ NOTE_C5, 250 }, 
	{ NOTE_E4, 250 }, 
	{ NOTE_E5, 250 }, 
	{ NOTE_G4, 500 }, 
	{ NOTE_REST, 500 }, 
	{ NOTE_C4, 250 }, 
	{ NOTE_C5, 250 }, 
	{ NOTE_E4, 250 }, 
	{ NOTE_E5, 250 }, 
	{ NOTE_G4, 500 }, 
	{ NOTE_REST, 500 }, 
	{ NOTE_A3, 250 }, 
	{ NOTE_A4, 250 }, 
	{ NOTE_C4, 250 }, 
	{ NOTE_C5, 250 }, 
	{ NOTE_E4, 500 }, 
	{ NOTE_REST, 500 }, 
	{ NOTE_A3, 250 }, 
	{ NOTE_A4, 250 }, 
	{ NOTE_C4, 250 }, 
	{ NOTE_C5, 250 }, 
	{ NOTE_E4, 500 }, 
	{ NOTE_REST, 500 }, 
	{ NOTE_A4, 250 }, 
	{ NOTE_C5, 250 }, 
	{ NOTE_C5, 250 }, 
	{ NOTE_C5, 250 }, 
	{ NOTE_A4, 250 }, 
	{ NOTE_C5, 250 }, 
	{ NOTE_C5, 250 }, 
	{ NOTE_C5, 250 }, 
	{ NOTE_A4, 250 }, 
	{ NOTE_C5, 250 }, 
	{ NOTE_A4, 250 }, 
	{ NOTE_C5, 250 }, 
	{ NOTE_F4, 250 }, 
	{ NOTE_A4, 250 }, 
	{ NOTE_A4, 250 }, 
	{ NOTE_A4, 250 }, 
	{ NOTE_E4, 250 }, 
	{ NOTE_A4, 250 }, 
	{ NOTE_D4, 250 }, 
	{ NOTE_F4, 250 }, 
	{ NOTE_C4, 250 }, 
	{ NOTE_E4, 250 }, 
	{ NOTE_D4, 250 }, 
	{ NOTE_F4, 250 }, 
	{ NOTE_E4, 250 }, 
	{ NOTE_E4, 250 }, 
	{ NOTE_E4, 250 }, 
	{ NOTE_E4, 250 }, 
	{ NOTE_A3, 500 }, 
	{ NOTE_REST, 500 }, 
	{ NOTE_A3, 0 }, 
	{ NOTE_CS4, 0 }, 
	{ NOTE_E4, 0 }, 
	{ NOTE_A4, 250 }, 
	{ NOTE_A4, 250 }, 
	{ NOTE_A4, 250 }, 
	{ NOTE_A4, 250 }, 
	{ NOTE_A3, 0 }, 
	{ NOTE_CS4, 0 }, 
	{ NOTE_E4, 0 }, 
	{ NOTE_A4, 250 }, 
	{ NOTE_A4, 250 }, 
	{ NOTE_A4, 250 }, 
	{ NOTE_A4, 250 }, 
	{ NOTE_D3, 0 }, 
	{ NOTE_FS3, 0 }, 
	{ NOTE_A3, 0 }, 
	{ NOTE_D4, 250 }, 
	{ NOTE_D4, 250 }, 
	{ NOTE_DS3, 0 }, 
	{ NOTE_FS3, 0 }, 
	{ NOTE_A3, 0 }, 
	{ NOTE_DS4, 250 }, 
	{ NOTE_DS4, 250 }, 
	{ NOTE_E3, 0 }, 
	{ NOTE_GS3, 0 }, 
	{ NOTE_B3, 0 }, 
	{ NOTE_E4, 250 }, 
	{ NOTE_E4, 250 }, 
	{ NOTE_E4, 250 }, 
	{ NOTE_E4, 250 }, 
	{ NOTE_A3, 0 }, 
	{ NOTE_CS4, 0 }, 
	{ NOTE_E4, 0 }, 
	{ NOTE_A4, 250 }, 
	{ NOTE_A4, 250 }, 
	{ NOTE_A4, 250 }, 
	{ NOTE_A4, 250 }, 
	{ NOTE_A3, 0 }, 
	{ NOTE_CS4, 0 }, 
	{ NOTE_E4, 0 }, 
	{ NOTE_A4, 250 }, 
	{ NOTE_A4, 250 }, 
	{ NOTE_A4, 250 }, 
	{ NOTE_A4, 250 }, 
	{ NOTE_D3, 0 }, 
	{ NOTE_FS3, 0 }, 
	{ NOTE_A3, 0 }, 
	{ NOTE_D4, 250 }, 
	{ NOTE_D4, 250 }, 
	{ NOTE_E3, 0 }, 
	{ NOTE_GS3, 0 }, 
	{ NOTE_B3, 0 }, 
	{ NOTE_E4, 250 }, 
	{ NOTE_E4, 250 }, 
	{ NOTE_A3, 500 }, 
	{ NOTE_REST, 500 }, 
	{ NOTE_FS4, 250 }, 
	{ NOTE_A4, 250 }, 
	{ NOTE_A4, 250 }, 
	{ NOTE_A4, 250 }, 
	{ NOTE_GS4, 250 }, 
	{ NOTE_B4, 250 }, 
	{ NOTE_B4, 250 }, 
	{ NOTE_B4, 250 }, 
	{ NOTE_FS4, 250 }, 
	{ NOTE_A4, 250 }, 
	{ NOTE_A4, 250 }, 
	{ NOTE_A4, 250 }, 
	{ NOTE_F4, 250 }, 
	{ NOTE_GS4, 250 }, 
	{ NOTE_GS4, 250 }, 
	{ NOTE_GS4, 250 }, 
	{ NOTE_FS4, 250 }, 
	{ NOTE_A4, 250 }, 
	{ NOTE_A4, 250 }, 
	{ NOTE_A4, 250 }, 
	{ NOTE_GS4, 250 }, 
	{ NOTE_CS5, 250 }, 
	{ NOTE_CS5, 250 }, 
	{ NOTE_CS5, 250 }, 
	{ NOTE_GS4, 250 }, 
	{ NOTE_DS5, 250 }, 
	{ NOTE_DS5, 250 }, 
	{ NOTE_DS5, 250 }, 
	{ NOTE_CS5, 500 }, 
	{ NOTE_REST, 500 }, 
	{ NOTE_A4, 250 }, 
	{ NOTE_CS5, 250 }, 
	{ NOTE_CS5, 250 }, 
	{ NOTE_CS5, 250 }, 
	{ NOTE_B4, 250 }, 
	{ NOTE_D5, 250 }, 
	{ NOTE_GS4, 250 }, 
	{ NOTE_D5, 250 }, 
	{ NOTE_A4, 250 }, 
	{ NOTE_CS5, 250 }, 
	{ NOTE_CS5, 250 }, 
	{ NOTE_CS5, 250 }, 
	{ NOTE_E4, 250 }, 
	{ NOTE_GS4, 250 }, 
	{ NOTE_GS4, 250 }, 
	{ NOTE_GS4, 250 }, 
	{ NOTE_A4, 250 }, 
	{ NOTE_CS5, 250 }, 
	{ NOTE_CS5, 250 }, 
	{ NOTE_CS5, 250 }, 
	{ NOTE_B4, 250 }, 
	{ NOTE_D5, 250 }, 
	{ NOTE_GS4, 250 }, 
	{ NOTE_D5, 250 }, 
	{ NOTE_A4, 250 }, 
	{ NOTE_FS4, 250 }, 
	{ NOTE_D4, 250 }, 
	{ NOTE_E4, 250 }, 
	{ NOTE_A3, 250 }, 
	{ NOTE_A4, 250 }, 
	{ NOTE_REST, 500 }, 
	{ NOTE_FS4, 250 }, 
	{ NOTE_A4, 250 }, 
	{ NOTE_A4, 250 }, 
	{ NOTE_A4, 250 }, 
	{ NOTE_GS4, 250 }, 
	{ NOTE_B4, 250 }, 
	{ NOTE_B4, 250 }, 
	{ NOTE_B4, 250 }, 
	{ NOTE_FS4, 250 }, 
	{ NOTE_A4, 250 }, 
	{ NOTE_A4, 250 }, 
	{ NOTE_A4, 250 }, 
	{ NOTE_CS4, 250 }, 
	{ NOTE_GS4, 250 }, 
	{ NOTE_G4, 250 }, 
	{ NOTE_FS4, 250 }, 
	{ NOTE_B3, 250 }, 
	{ NOTE_FS4, 250 }, 
	{ NOTE_FS4, 250 }, 
	{ NOTE_FS4, 250 }, 
	{ NOTE_B3, 250 }, 
	{ NOTE_GS4, 250 }, 
	{ NOTE_GS4, 250 }, 
	{ NOTE_GS4, 250 }, 
	{ NOTE_CS4, 250 }, 
	{ NOTE_FS4, 250 }, 
	{ NOTE_CS4, 250 }, 
	{ NOTE_GS4, 250 }, 
	{ NOTE_FS4, 500 }, 
	{ NOTE_REST, 500 }, 
	{ NOTE_A3, 0 }, 
	{ NOTE_CS4, 0 }, 
	{ NOTE_E4, 0 }, 
	{ NOTE_A4, 250 }, 
	{ NOTE_A4, 250 }, 
	{ NOTE_A4, 250 }, 
	{ NOTE_A4, 250 }, 
	{ NOTE_A3, 0 }, 
	{ NOTE_CS4, 0 }, 
	{ NOTE_E4, 0 }, 
	{ NOTE_A4, 250 }, 
	{ NOTE_A4, 250 }, 
	{ NOTE_A4, 250 }, 
	{ NOTE_A4, 250 }, 
	{ NOTE_D3, 0 }, 
	{ NOTE_FS3, 0 }, 
	{ NOTE_A3, 0 }, 
	{ NOTE_D4, 250 }, 
	{ NOTE_D4, 250 }, 
	{ NOTE_DS3, 0 }, 
	{ NOTE_FS3, 0 }, 
	{ NOTE_A3, 0 }, 
	{ NOTE_DS4, 250 }, 
	{ NOTE_DS4, 250 }, 
	{ NOTE_E3, 0 }, 
	{ NOTE_GS3, 0 }, 
	{ NOTE_B3, 0 }, 
	{ NOTE_E4, 250 }, 
	{ NOTE_E4, 250 }, 
	{ NOTE_E4, 250 }, 
	{ NOTE_E4, 250 }, 
	{ NOTE_A3, 0 }, 
	{ NOTE_CS4, 0 }, 
	{ NOTE_E4, 0 }, 
	{ NOTE_A4, 250 }, 
	{ NOTE_A4, 250 }, 
	{ NOTE_A4, 250 }, 
	{ NOTE_A4, 250 }, 
	{ NOTE_A3, 0 }, 
	{ NOTE_CS4, 0 }, 
	{ NOTE_E4, 0 }, 
	{ NOTE_A4, 250 }, 
	{ NOTE_A4, 250 }, 
	{ NOTE_A4, 250 }, 
	{ NOTE_A4, 250 }, 
	{ NOTE_D3, 0 }, 
	{ NOTE_FS3, 0 }, 
	{ NOTE_A3, 0 }, 
	{ NOTE_D4, 250 }, 
	{ NOTE_D4, 250 }, 
	{ NOTE_E3, 0 }, 
	{ NOTE_GS3, 0 }, 
	{ NOTE_B3, 0 }, 
	{ NOTE_E4, 250 }, 
	{ NOTE_E4, 250 }, 
	{ NOTE_A3, 500 }, 
	{ NOTE_REST, 500 }, 
	{ NOTE_A4, 250 }, 
	{ NOTE_C5, 250 }, 
	{ NOTE_C5, 250 }, 
	{ NOTE_C5, 250 }, 
	{ NOTE_A4, 250 }, 
	{ NOTE_C5, 250 }, 
	{ NOTE_C5, 250 }, 
	{ NOTE_C5, 250 }, 
	{ NOTE_A4, 250 }, 
	{ NOTE_C5, 250 }, 
	{ NOTE_A4, 250 }, 
	{ NOTE_C5, 250 }, 
	{ NOTE_A4, 250 }, 
	{ NOTE_C5, 250 }, 
	{ NOTE_C5, 250 }, 
	{ NOTE_C5, 250 }, 
	{ NOTE_E4, 250 }, 
	{ NOTE_B4, 250 }, 
	{ NOTE_B4, 250 }, 
	{ NOTE_B4, 250 }, 
	{ NOTE_E4, 250 }, 
	{ NOTE_B4, 250 }, 
	{ NOTE_B4, 250 }, 
	{ NOTE_B4, 250 }, 
	{ NOTE_E4, 250 }, 
	{ NOTE_B4, 250 }, 
	{ NOTE_B3, 250 }, 
	{ NOTE_B4, 250 }, 
	{ NOTE_E4, 500 }, 
	{ NOTE_REST, 500 }, 
	{ NOTE_C4, 250 }, 
	{ NOTE_C5, 250 }, 
	{ NOTE_E4, 250 }, 
	{ NOTE_E5, 250 }, 
	{ NOTE_G4, 500 }, 
	{ NOTE_REST, 500 }, 
	{ NOTE_C4, 250 }, 
	{ NOTE_C5, 250 }, 
	{ NOTE_E4, 250 }, 
	{ NOTE_E5, 250 }, 
	{ NOTE_G4, 500 }, 
	{ NOTE_REST, 500 }, 
	{ NOTE_A3, 250 }, 
	{ NOTE_A4, 250 }, 
	{ NOTE_C4, 250 }, 
	{ NOTE_C5, 250 }, 
	{ NOTE_E4, 500 }, 
	{ NOTE_REST, 500 }, 
	{ NOTE_A3, 250 }, 
	{ NOTE_A4, 250 }, 
	{ NOTE_C4, 250 }, 
	{ NOTE_C5, 250 }, 
	{ NOTE_E4, 500 }, 
	{ NOTE_REST, 500 }, 
	{ NOTE_A4, 250 }, 
	{ NOTE_C5, 250 }, 
	{ NOTE_C5, 250 }, 
	{ NOTE_C5, 250 }, 
	{ NOTE_A4, 250 }, 
	{ NOTE_C5, 250 }, 
	{ NOTE_C5, 250 }, 
	{ NOTE_C5, 250 }, 
	{ NOTE_A4, 250 }, 
	{ NOTE_C5, 250 }, 
	{ NOTE_A4, 250 }, 
	{ NOTE_C5, 250 }, 
	{ NOTE_F4, 250 }, 
	{ NOTE_A4, 250 }, 
	{ NOTE_A4, 250 }, 
	{ NOTE_A4, 250 }, 
	{ NOTE_E4, 250 }, 
	{ NOTE_A4, 250 }, 
	{ NOTE_D4, 250 }, 
	{ NOTE_F4, 250 }, 
	{ NOTE_C4, 250 }, 
	{ NOTE_E4, 250 }, 
	{ NOTE_D4, 250 }, 
	{ NOTE_F4, 250 }, 
	{ NOTE_E4, 250 }, 
	{ NOTE_E4, 250 }, 
	{ NOTE_E4, 250 }, 
	{ NOTE_E4, 250 }, 
	{ NOTE_A3, 500 }, 
	{ NOTE_REST, 500 }, 
	{ NOTE_A3, 0 }, 
	{ NOTE_CS4, 0 }, 
	{ NOTE_E4, 0 }, 
	{ NOTE_A4, 250 }, 
	{ NOTE_A4, 250 }, 
	{ NOTE_A4, 250 }, 
	{ NOTE_A4, 250 }, 
	{ NOTE_A3, 0 }, 
	{ NOTE_CS4, 0 }, 
	{ NOTE_E4, 0 }, 
	{ NOTE_A4, 250 }, 
	{ NOTE_A4, 250 }, 
	{ NOTE_A4, 250 }, 
	{ NOTE_A4, 250 }, 
	{ NOTE_D3, 0 }, 
	{ NOTE_FS3, 0 }, 
	{ NOTE_A3, 0 }, 
	{ NOTE_D4, 250 }, 
	{ NOTE_D4, 250 }, 
	{ NOTE_DS3, 0 }, 
	{ NOTE_FS3, 0 }, 
	{ NOTE_A3, 0 }, 
	{ NOTE_DS4, 250 }, 
	{ NOTE_DS4, 250 }, 
	{ NOTE_E3, 0 }, 
	{ NOTE_GS3, 0 }, 
	{ NOTE_B3, 0 }, 
	{ NOTE_E4, 250 }, 
	{ NOTE_E4, 250 }, 
	{ NOTE_E4, 250 }, 
	{ NOTE_E4, 250 }, 
	{ NOTE_A3, 0 }, 
	{ NOTE_CS4, 0 }, 
	{ NOTE_E4, 0 }, 
	{ NOTE_A4, 250 }, 
	{ NOTE_A4, 250 }, 
	{ NOTE_A4, 250 }, 
	{ NOTE_A4, 250 }, 
	{ NOTE_A3, 0 }, 
	{ NOTE_CS4, 0 }, 
	{ NOTE_E4, 0 }, 
	{ NOTE_A4, 250 }, 
	{ NOTE_A4, 250 }, 
	{ NOTE_A4, 250 }, 
	{ NOTE_A4, 250 }, 
	{ NOTE_D3, 0 }, 
	{ NOTE_FS3, 0 }, 
	{ NOTE_A3, 0 }, 
	{ NOTE_D4, 250 }, 
	{ NOTE_D4, 250 }, 
	{ NOTE_E3, 0 }, 
	{ NOTE_GS3, 0 }, 
	{ NOTE_B3, 0 }, 
	{ NOTE_E4, 250 }, 
	{ NOTE_E4, 250 }, 
	{ NOTE_A3, 500 }, 
	{ NOTE_A3, 0 }, 
	{ NOTE_CS4, 0 }, 
	{ NOTE_E4, 0 }, 
	{ NOTE_A4, 250 }, 
	{ NOTE_A4, 250 }, 
	{ NOTE_A4, 250 }, 
	{ NOTE_A4, 250 }, 
	{ NOTE_A3, 0 }, 
	{ NOTE_CS4, 0 }, 
	{ NOTE_E4, 0 }, 
	{ NOTE_A4, 250 }, 
	{ NOTE_A4, 250 }, 
	{ NOTE_A4, 250 }, 
	{ NOTE_A4, 250 }, 
	{ NOTE_A3, 0 }, 
	{ NOTE_CS4, 0 }, 
	{ NOTE_E4, 0 }, 
	{ NOTE_A4, 250 }, 
	{ NOTE_A4, 250 }, 
	{ NOTE_A4, 250 }, 
	{ NOTE_A4, 250 }, 
	{ NOTE_A3, 0 }, 
	{ NOTE_CS4, 0 }, 
	{ NOTE_E4, 0 }, 
	{ NOTE_A4, 250 }, 
	{ NOTE_A4, 250 }, 
	{ NOTE_A4, 250 }, 
	{ NOTE_A4, 250 }, 
	{ NOTE_D3, 0 }, 
	{ NOTE_FS3, 0 }, 
	{ NOTE_A3, 0 }, 
	{ NOTE_D4, 250 }, 
	{ NOTE_D4, 250 }, 
	{ NOTE_D4, 250 }, 
	{ NOTE_D4, 250 }, 
	{ NOTE_A3, 0 }, 
	{ NOTE_CS4, 0 }, 
	{ NOTE_E4, 0 }, 
	{ NOTE_A4, 250 }, 
	{ NOTE_A4, 250 }, 
	{ NOTE_A4, 250 }, 
	{ NOTE_A4, 250 }, 
	{ NOTE_E3, 0 }, 
	{ NOTE_GS3, 0 }, 
	{ NOTE_B3, 0 }, 
	{ NOTE_E4, 250 }, 
	{ NOTE_E4, 250 }, 
	{ NOTE_E4, 250 }, 
	{ NOTE_E4, 250 }, 
	{ NOTE_A3, 0 }, 
	{ NOTE_CS4, 0 }, 
	{ NOTE_E4, 0 }, 
	{ NOTE_A4, 250 }, 
	{ NOTE_A4, 250 }, 
	{ NOTE_A4, 250 }, 
	{ NOTE_A4, 250 }, 
	{ NOTE_A3, 0 }, 
	{ NOTE_CS4, 0 }, 
	{ NOTE_E4, 0 }, 
	{ NOTE_A4, 250 }, 
	{ NOTE_A4, 250 }, 
	{ NOTE_A4, 250 }, 
	{ NOTE_A4, 250 }, 
	{ NOTE_A3, 0 }, 
	{ NOTE_CS4, 0 }, 
	{ NOTE_E4, 0 }, 
	{ NOTE_A4, 250 }, 
	{ NOTE_A4, 250 }, 
	{ NOTE_A4, 250 }, 
	{ NOTE_A4, 250 }, 
	{ NOTE_D3, 0 }, 
	{ NOTE_FS3, 0 }, 
	{ NOTE_A3, 0 }, 
	{ NOTE_D4, 250 }, 
	{ NOTE_D4, 250 }, 
	{ NOTE_D4, 250 }, 
	{ NOTE_D4, 250 }, 
	{ NOTE_A3, 0 }, 
	{ NOTE_CS4, 0 }, 
	{ NOTE_E4, 0 }, 
	{ NOTE_A4, 250 }, 
	{ NOTE_A4, 250 }, 
	{ NOTE_A4, 250 }, 
	{ NOTE_A4, 250 }, 
	{ NOTE_E3, 0 }, 
	{ NOTE_GS3, 0 }, 
	{ NOTE_B3, 0 }, 
	{ NOTE_E4, 250 }, 
	{ NOTE_E4, 250 }, 
	{ NOTE_E4, 250 }, 
	{ NOTE_E4, 250 }, 
	{ NOTE_A4, 125 }, 
	{ NOTE_E5, 125 }, 
	{ NOTE_CS5, 125 }, 
	{ NOTE_E5, 125 }, 
	{ NOTE_A4, 125 }, 
	{ NOTE_E5, 125 }, 
	{ NOTE_CS5, 125 }, 
	{ NOTE_E5, 125 }, 
	{ NOTE_A4, 125 }, 
	{ NOTE_E5, 125 }, 
	{ NOTE_CS5, 125 }, 
	{ NOTE_E5, 125 }, 
	{ NOTE_A4, 125 }, 
	{ NOTE_E5, 125 }, 
	{ NOTE_CS5, 125 }, 
	{ NOTE_E5, 125 }, 
	{ NOTE_A4, 125 }, 
	{ NOTE_E5, 125 }, 
	{ NOTE_CS5, 125 }, 
	{ NOTE_E5, 125 }, 
	{ NOTE_A4, 125 }, 
	{ NOTE_E5, 125 }, 
	{ NOTE_CS5, 125 }, 
	{ NOTE_E5, 125 }, 
	{ NOTE_A4, 125 }, 
	{ NOTE_E5, 125 }, 
	{ NOTE_CS5, 125 }, 
	{ NOTE_E5, 125 }, 
	{ NOTE_A4, 125 }, 
	{ NOTE_E5, 125 }, 
	{ NOTE_CS5, 125 }, 
	{ NOTE_E5, 125 }, 
	{ NOTE_A4, 125 }, 
	{ NOTE_FS5, 125 }, 
	{ NOTE_D5, 125 }, 
	{ NOTE_FS5, 125 }, 
	{ NOTE_A4, 125 }, 
	{ NOTE_FS5, 125 }, 
	{ NOTE_D5, 125 }, 
	{ NOTE_FS5, 125 }, 
	{ NOTE_A4, 125 }, 
	{ NOTE_E5, 125 }, 
	{ NOTE_CS5, 125 }, 
	{ NOTE_E5, 125 }, 
	{ NOTE_A4, 125 }, 
	{ NOTE_E5, 125 }, 
	{ NOTE_CS5, 125 }, 
	{ NOTE_E5, 125 }, 
	{ NOTE_E4, 125 }, 
	{ NOTE_E5, 125 }, 
	{ NOTE_B4, 125 }, 
	{ NOTE_E5, 125 }, 
	{ NOTE_E4, 125 }, 
	{ NOTE_E5, 125 }, 
	{ NOTE_B4, 125 }, 
	{ NOTE_E5, 125 }, 
	{ NOTE_A3, 0 }, 
	{ NOTE_CS4, 0 }, 
	{ NOTE_E4, 0 }, 
	{ NOTE_A4, 250 }, 
	{ NOTE_A4, 250 }, 
	{ NOTE_A4, 250 }, 
	{ NOTE_A4, 250 }, 
	{ NOTE_A3, 0 }, 
	{ NOTE_CS4, 0 }, 
	{ NOTE_E4, 0 }, 
	{ NOTE_A4, 250 }, 
	{ NOTE_A4, 250 }, 
	{ NOTE_A4, 250 }, 
	{ NOTE_A4, 250 }, 
	{ NOTE_A3, 0 }, 
	{ NOTE_CS4, 0 }, 
	{ NOTE_E4, 0 }, 
	{ NOTE_A4, 250 }, 
	{ NOTE_A4, 250 }, 
	{ NOTE_A4, 250 }, 
	{ NOTE_A4, 250 }, 
	{ NOTE_D3, 0 }, 
	{ NOTE_FS3, 0 }, 
	{ NOTE_A3, 0 }, 
	{ NOTE_D4, 250 }, 
	{ NOTE_D4, 250 }, 
	{ NOTE_D4, 250 }, 
	{ NOTE_D4, 250 }, 
	{ NOTE_A3, 0 }, 
	{ NOTE_CS4, 0 }, 
	{ NOTE_E4, 0 }, 
	{ NOTE_A4, 250 }, 
	{ NOTE_A4, 250 }, 
	{ NOTE_A4, 250 }, 
	{ NOTE_A4, 250 }, 
	{ NOTE_E3, 0 }, 
	{ NOTE_GS3, 0 }, 
	{ NOTE_B3, 0 }, 
	{ NOTE_E4, 250 }, 
	{ NOTE_E4, 250 }, 
	{ NOTE_E4, 250 }, 
	{ NOTE_E4, 250 }, 
	{ NOTE_A3, 0 }, 
	{ NOTE_CS4, 0 }, 
	{ NOTE_E4, 0 }, 
	{ NOTE_A4, 250 }, 
	{ NOTE_A4, 250 }, 
	{ NOTE_A4, 250 }, 
	{ NOTE_A4, 250 }, 
	{ NOTE_A3, 0 }, 
	{ NOTE_CS4, 0 }, 
	{ NOTE_E4, 0 }, 
	{ NOTE_A4, 250 }, 
	{ NOTE_A4, 250 }, 
	{ NOTE_A4, 250 }, 
	{ NOTE_A4, 250 }, 
	{ NOTE_A3, 0 }, 
	{ NOTE_CS4, 0 }, 
	{ NOTE_E4, 0 }, 
	{ NOTE_A4, 250 }, 
	{ NOTE_A4, 250 }, 
	{ NOTE_A4, 250 }, 
	{ NOTE_A4, 250 }, 
	{ NOTE_A3, 0 }, 
	{ NOTE_CS4, 0 }, 
	{ NOTE_E4, 0 }, 
	{ NOTE_A4, 250 }, 
	{ NOTE_A4, 250 }, 
	{ NOTE_A3, 0 }, 
	{ NOTE_CS4, 0 }, 
	{ NOTE_E4, 0 }, 
	{ NOTE_A4, 250 }, 
	{ NOTE_A4, 250 }, 
	{ NOTE_A3, 500 }, 
	{ NOTE_A3, 500 }, 
	{ NOTE_A3, 500 }, 
	{ NOTE_REST, 500 }, 
};
const uint16_t NUM_OF_NOTES4 = sizeof(melody4)/sizeof(melody4[0]);

