/*
 * Song: Cowboys From Hell by Pantera
 *
 *	Melody 0 | Track 1
 *	Melody 1 | Track 1
 *	Melody 2 | Track 1
 *	Melody 3 | Track 2
 *	Melody 4 | Track 3
*/

#include <Arduino.h>
#include "notes.h"

const Note melody0[] PROGMEM = {
	{ NOTE_REST, 2143 }, 
	{ NOTE_REST, 2143 }, 
	{ NOTE_REST, 2143 }, 
	{ NOTE_REST, 2143 }, 
	{ NOTE_E4, 134 }, 
	{ NOTE_G4, 134 }, 
	{ NOTE_E4, 134 }, 
	{ NOTE_G4, 134 }, 
	{ NOTE_A4, 134 }, 
	{ NOTE_G4, 134 }, 
	{ NOTE_A4, 134 }, 
	{ NOTE_G4, 134 }, 
	{ NOTE_AS4, 134 }, 
	{ NOTE_G4, 134 }, 
	{ NOTE_A4, 134 }, 
	{ NOTE_G4, 134 }, 
	{ NOTE_A4, 134 }, 
	{ NOTE_B4, 134 }, 
	{ NOTE_D5, 134 }, 
	{ NOTE_REST, 133 }, 
	{ NOTE_E4, 134 }, 
	{ NOTE_G4, 134 }, 
	{ NOTE_E4, 134 }, 
	{ NOTE_G4, 134 }, 
	{ NOTE_A4, 134 }, 
	{ NOTE_G4, 134 }, 
	{ NOTE_A4, 134 }, 
	{ NOTE_G4, 134 }, 
	{ NOTE_AS4, 134 }, 
	{ NOTE_G4, 134 }, 
	{ NOTE_A4, 134 }, 
	{ NOTE_G4, 134 }, 
	{ NOTE_A4, 134 }, 
	{ NOTE_B4, 134 }, 
	{ NOTE_D5, 134 }, 
	{ NOTE_REST, 133 }, 
	{ NOTE_E4, 134 }, 
	{ NOTE_G4, 134 }, 
	{ NOTE_E4, 134 }, 
	{ NOTE_G4, 134 }, 
	{ NOTE_A4, 134 }, 
	{ NOTE_G4, 134 }, 
	{ NOTE_A4, 134 }, 
	{ NOTE_G4, 134 }, 
	{ NOTE_AS4, 134 }, 
	{ NOTE_G4, 134 }, 
	{ NOTE_A4, 134 }, 
	{ NOTE_G4, 134 }, 
	{ NOTE_A4, 134 }, 
	{ NOTE_B4, 134 }, 
	{ NOTE_D5, 134 }, 
	{ NOTE_REST, 133 }, 
	{ NOTE_E4, 134 }, 
	{ NOTE_G4, 134 }, 
	{ NOTE_E4, 134 }, 
	{ NOTE_G4, 134 }, 
	{ NOTE_A4, 134 }, 
	{ NOTE_G4, 134 }, 
	{ NOTE_A4, 134 }, 
	{ NOTE_G4, 134 }, 
	{ NOTE_AS4, 134 }, 
	{ NOTE_A4, 134 }, 
	{ NOTE_G4, 134 }, 
	{ NOTE_E4, 669 }, 
	{ NOTE_E3, 134 }, 
	{ NOTE_G3, 134 }, 
	{ NOTE_E3, 134 }, 
	{ NOTE_G3, 134 }, 
	{ NOTE_A3, 134 }, 
	{ NOTE_G3, 134 }, 
	{ NOTE_A3, 134 }, 
	{ NOTE_G3, 134 }, 
	{ NOTE_AS3, 134 }, 
	{ NOTE_G3, 134 }, 
	{ NOTE_A3, 134 }, 
	{ NOTE_G3, 134 }, 
	{ NOTE_A3, 134 }, 
	{ NOTE_B3, 134 }, 
	{ NOTE_D4, 267 }, 
	{ NOTE_E3, 134 }, 
	{ NOTE_G3, 134 }, 
	{ NOTE_E3, 134 }, 
	{ NOTE_G3, 134 }, 
	{ NOTE_A3, 134 }, 
	{ NOTE_G3, 134 }, 
	{ NOTE_A3, 134 }, 
	{ NOTE_G3, 134 }, 
	{ NOTE_AS3, 134 }, 
	{ NOTE_G3, 134 }, 
	{ NOTE_A3, 134 }, 
	{ NOTE_G3, 134 }, 
	{ NOTE_A3, 134 }, 
	{ NOTE_B3, 134 }, 
	{ NOTE_D4, 267 }, 
	{ NOTE_E3, 134 }, 
	{ NOTE_G3, 134 }, 
	{ NOTE_E3, 134 }, 
	{ NOTE_G3, 134 }, 
	{ NOTE_A3, 134 }, 
	{ NOTE_G3, 134 }, 
	{ NOTE_A3, 134 }, 
	{ NOTE_G3, 134 }, 
	{ NOTE_AS3, 134 }, 
	{ NOTE_G3, 134 }, 
	{ NOTE_A3, 134 }, 
	{ NOTE_G3, 134 }, 
	{ NOTE_A3, 134 }, 
	{ NOTE_B3, 134 }, 
	{ NOTE_D4, 267 }, 
	{ NOTE_E3, 134 }, 
	{ NOTE_G3, 134 }, 
	{ NOTE_E3, 134 }, 
	{ NOTE_G3, 134 }, 
	{ NOTE_A3, 134 }, 
	{ NOTE_G3, 134 }, 
	{ NOTE_A3, 134 }, 
	{ NOTE_G3, 134 }, 
	{ NOTE_AS3, 134 }, 
	{ NOTE_A3, 134 }, 
	{ NOTE_G3, 134 }, 
	{ NOTE_E3, 134 }, 
	{ NOTE_REST, 535 }, 
	{ NOTE_E3, 134 }, 
	{ NOTE_G3, 134 }, 
	{ NOTE_E3, 134 }, 
	{ NOTE_G3, 134 }, 
	{ NOTE_A3, 134 }, 
	{ NOTE_G3, 134 }, 
	{ NOTE_A3, 134 }, 
	{ NOTE_G3, 134 }, 
	{ NOTE_AS3, 134 }, 
	{ NOTE_G3, 134 }, 
	{ NOTE_A3, 134 }, 
	{ NOTE_G3, 134 }, 
	{ NOTE_A3, 134 }, 
	{ NOTE_B3, 134 }, 
	{ NOTE_D4, 267 }, 
	{ NOTE_E3, 134 }, 
	{ NOTE_G3, 134 }, 
	{ NOTE_E3, 134 }, 
	{ NOTE_G3, 134 }, 
	{ NOTE_A3, 134 }, 
	{ NOTE_G3, 134 }, 
	{ NOTE_A3, 134 }, 
	{ NOTE_G3, 134 }, 
	{ NOTE_AS3, 134 }, 
	{ NOTE_G3, 134 }, 
	{ NOTE_A3, 134 }, 
	{ NOTE_G3, 134 }, 
	{ NOTE_A3, 134 }, 
	{ NOTE_B3, 134 }, 
	{ NOTE_D4, 267 }, 
	{ NOTE_E3, 134 }, 
	{ NOTE_G3, 134 }, 
	{ NOTE_E3, 134 }, 
	{ NOTE_G3, 134 }, 
	{ NOTE_A3, 134 }, 
	{ NOTE_G3, 134 }, 
	{ NOTE_A3, 134 }, 
	{ NOTE_G3, 134 }, 
	{ NOTE_AS3, 134 }, 
	{ NOTE_G3, 134 }, 
	{ NOTE_A3, 134 }, 
	{ NOTE_G3, 134 }, 
	{ NOTE_A3, 134 }, 
	{ NOTE_B3, 134 }, 
	{ NOTE_D4, 267 }, 
	{ NOTE_E3, 134 }, 
	{ NOTE_G3, 134 }, 
	{ NOTE_E3, 134 }, 
	{ NOTE_G3, 134 }, 
	{ NOTE_A3, 134 }, 
	{ NOTE_G3, 134 }, 
	{ NOTE_A3, 134 }, 
	{ NOTE_G3, 134 }, 
	{ NOTE_AS3, 134 }, 
	{ NOTE_A3, 134 }, 
	{ NOTE_G3, 134 }, 
	{ NOTE_E3, 134 }, 
	{ NOTE_REST, 535 }, 
	{ NOTE_E3, 134 }, 
	{ NOTE_E3, 134 }, 
	{ NOTE_REST, 134 }, 
	{ NOTE_E3, 134 }, 
	{ NOTE_REST, 134 }, 
	{ NOTE_E3, 134 }, 
	{ NOTE_REST, 134 }, 
	{ NOTE_E3, 134 }, 
	{ NOTE_REST, 134 }, 
	{ NOTE_E3, 134 }, 
	{ NOTE_REST, 134 }, 
	{ NOTE_E3, 134 }, 
	{ NOTE_A3, 89 }, 
	{ NOTE_AS3, 89 }, 
	{ NOTE_B3, 89 }, 
	{ NOTE_D4, 268 }, 
	{ NOTE_E3, 134 }, 
	{ NOTE_E3, 134 }, 
	{ NOTE_REST, 134 }, 
	{ NOTE_E3, 134 }, 
	{ NOTE_REST, 134 }, 
	{ NOTE_E3, 134 }, 
	{ NOTE_REST, 134 }, 
	{ NOTE_E3, 134 }, 
	{ NOTE_REST, 134 }, 
	{ NOTE_E3, 134 }, 
	{ NOTE_REST, 134 }, 
	{ NOTE_E3, 134 }, 
	{ NOTE_A3, 89 }, 
	{ NOTE_AS3, 89 }, 
	{ NOTE_B3, 89 }, 
	{ NOTE_D4, 268 }, 
	{ NOTE_E3, 134 }, 
	{ NOTE_E3, 134 }, 
	{ NOTE_REST, 134 }, 
	{ NOTE_E3, 134 }, 
	{ NOTE_REST, 134 }, 
	{ NOTE_E3, 134 }, 
	{ NOTE_REST, 134 }, 
	{ NOTE_E3, 134 }, 
	{ NOTE_REST, 134 }, 
	{ NOTE_E3, 134 }, 
	{ NOTE_REST, 134 }, 
	{ NOTE_E3, 134 }, 
	{ NOTE_A3, 89 }, 
	{ NOTE_AS3, 89 }, 
	{ NOTE_B3, 89 }, 
	{ NOTE_D4, 268 }, 
	{ NOTE_E3, 134 }, 
	{ NOTE_E3, 134 }, 
	{ NOTE_REST, 134 }, 
	{ NOTE_E3, 134 }, 
	{ NOTE_REST, 134 }, 
	{ NOTE_E3, 134 }, 
	{ NOTE_REST, 134 }, 
	{ NOTE_E3, 134 }, 
	{ NOTE_A3, 89 }, 
	{ NOTE_AS3, 89 }, 
	{ NOTE_B3, 89 }, 
	{ NOTE_D4, 268 }, 
	{ NOTE_A3, 89 }, 
	{ NOTE_AS3, 89 }, 
	{ NOTE_B3, 89 }, 
	{ NOTE_D4, 269 }, 
	{ NOTE_E3, 134 }, 
	{ NOTE_E3, 134 }, 
	{ NOTE_REST, 134 }, 
	{ NOTE_E3, 134 }, 
	{ NOTE_REST, 134 }, 
	{ NOTE_E3, 134 }, 
	{ NOTE_REST, 134 }, 
	{ NOTE_E3, 134 }, 
	{ NOTE_REST, 134 }, 
	{ NOTE_E3, 134 }, 
	{ NOTE_REST, 134 }, 
	{ NOTE_E3, 134 }, 
	{ NOTE_A3, 89 }, 
	{ NOTE_AS3, 89 }, 
	{ NOTE_B3, 89 }, 
	{ NOTE_D4, 268 }, 
	{ NOTE_E3, 134 }, 
	{ NOTE_E3, 134 }, 
	{ NOTE_REST, 134 }, 
	{ NOTE_E3, 134 }, 
	{ NOTE_REST, 134 }, 
	{ NOTE_E3, 134 }, 
	{ NOTE_REST, 134 }, 
	{ NOTE_E3, 134 }, 
	{ NOTE_A3, 89 }, 
	{ NOTE_AS3, 89 }, 
	{ NOTE_A3, 89 }, 
	{ NOTE_G3, 134 }, 
	{ NOTE_G3, 134 }, 
	{ NOTE_A3, 89 }, 
	{ NOTE_AS3, 89 }, 
	{ NOTE_A3, 89 }, 
	{ NOTE_G3, 134 }, 
	{ NOTE_E3, 135 }, 
	{ NOTE_E3, 134 }, 
	{ NOTE_E3, 134 }, 
	{ NOTE_REST, 134 }, 
	{ NOTE_E3, 134 }, 
	{ NOTE_REST, 134 }, 
	{ NOTE_E3, 134 }, 
	{ NOTE_REST, 134 }, 
	{ NOTE_E3, 134 }, 
	{ NOTE_REST, 134 }, 
	{ NOTE_E3, 134 }, 
	{ NOTE_REST, 134 }, 
	{ NOTE_E3, 134 }, 
	{ NOTE_A3, 89 }, 
	{ NOTE_AS3, 89 }, 
	{ NOTE_B3, 89 }, 
	{ NOTE_D4, 268 }, 
	{ NOTE_E3, 134 }, 
	{ NOTE_E3, 134 }, 
	{ NOTE_REST, 134 }, 
	{ NOTE_E3, 134 }, 
	{ NOTE_REST, 134 }, 
	{ NOTE_E3, 134 }, 
	{ NOTE_REST, 134 }, 
	{ NOTE_E3, 134 }, 
	{ NOTE_A3, 89 }, 
	{ NOTE_AS3, 89 }, 
	{ NOTE_A3, 89 }, 
	{ NOTE_G3, 134 }, 
	{ NOTE_G3, 134 }, 
	{ NOTE_A3, 89 }, 
	{ NOTE_AS3, 89 }, 
	{ NOTE_A3, 89 }, 
	{ NOTE_G3, 134 }, 
	{ NOTE_E3, 135 }, 
	{ NOTE_E3, 134 }, 
	{ NOTE_E3, 134 }, 
	{ NOTE_REST, 134 }, 
	{ NOTE_E3, 134 }, 
	{ NOTE_REST, 134 }, 
	{ NOTE_E3, 134 }, 
	{ NOTE_REST, 134 }, 
	{ NOTE_E3, 134 }, 
	{ NOTE_REST, 134 }, 
	{ NOTE_E3, 134 }, 
	{ NOTE_REST, 134 }, 
	{ NOTE_E3, 134 }, 
	{ NOTE_E3, 134 }, 
	{ NOTE_E3, 134 }, 
	{ NOTE_E3, 134 }, 
	{ NOTE_REST, 133 }, 
	{ NOTE_E3, 134 }, 
	{ NOTE_E3, 134 }, 
	{ NOTE_REST, 134 }, 
	{ NOTE_E3, 134 }, 
	{ NOTE_REST, 134 }, 
	{ NOTE_E3, 134 }, 
	{ NOTE_REST, 134 }, 
	{ NOTE_E3, 134 }, 
	{ NOTE_REST, 134 }, 
	{ NOTE_E3, 134 }, 
	{ NOTE_REST, 134 }, 
	{ NOTE_E3, 134 }, 
	{ NOTE_A3, 89 }, 
	{ NOTE_AS3, 89 }, 
	{ NOTE_B3, 89 }, 
	{ NOTE_D4, 268 }, 
	{ NOTE_E3, 134 }, 
	{ NOTE_E3, 134 }, 
	{ NOTE_REST, 134 }, 
	{ NOTE_E3, 134 }, 
	{ NOTE_REST, 134 }, 
	{ NOTE_E3, 134 }, 
	{ NOTE_REST, 134 }, 
	{ NOTE_E3, 134 }, 
	{ NOTE_REST, 134 }, 
	{ NOTE_E3, 134 }, 
	{ NOTE_REST, 134 }, 
	{ NOTE_E3, 134 }, 
	{ NOTE_E3, 134 }, 
	{ NOTE_E3, 134 }, 
	{ NOTE_E3, 134 }, 
	{ NOTE_REST, 133 }, 
	{ NOTE_E3, 134 }, 
	{ NOTE_E3, 134 }, 
	{ NOTE_REST, 134 }, 
	{ NOTE_E3, 134 }, 
	{ NOTE_REST, 134 }, 
	{ NOTE_E3, 134 }, 
	{ NOTE_REST, 134 }, 
	{ NOTE_E3, 134 }, 
	{ NOTE_A3, 89 }, 
	{ NOTE_AS3, 89 }, 
	{ NOTE_B3, 89 }, 
	{ NOTE_G3, 134 }, 
	{ NOTE_G3, 134 }, 
	{ NOTE_A3, 89 }, 
	{ NOTE_AS3, 89 }, 
	{ NOTE_B3, 89 }, 
	{ NOTE_G3, 134 }, 
	{ NOTE_E3, 135 }, 
	{ NOTE_E3, 134 }, 
	{ NOTE_E3, 134 }, 
	{ NOTE_REST, 134 }, 
	{ NOTE_E3, 134 }, 
	{ NOTE_REST, 134 }, 
	{ NOTE_E3, 134 }, 
	{ NOTE_REST, 134 }, 
	{ NOTE_E3, 134 }, 
	{ NOTE_REST, 134 }, 
	{ NOTE_E3, 134 }, 
	{ NOTE_REST, 134 }, 
	{ NOTE_E3, 134 }, 
	{ NOTE_E3, 134 }, 
	{ NOTE_E3, 134 }, 
	{ NOTE_E3, 134 }, 
	{ NOTE_REST, 133 }, 
	{ NOTE_E3, 134 }, 
	{ NOTE_E3, 134 }, 
	{ NOTE_REST, 134 }, 
	{ NOTE_E3, 134 }, 
	{ NOTE_REST, 134 }, 
	{ NOTE_E3, 134 }, 
	{ NOTE_REST, 134 }, 
	{ NOTE_E3, 134 }, 
	{ NOTE_REST, 134 }, 
	{ NOTE_E3, 134 }, 
	{ NOTE_REST, 134 }, 
	{ NOTE_E3, 134 }, 
	{ NOTE_A3, 89 }, 
	{ NOTE_AS3, 89 }, 
	{ NOTE_B3, 89 }, 
	{ NOTE_D4, 268 }, 
	{ NOTE_E3, 134 }, 
	{ NOTE_E3, 134 }, 
	{ NOTE_REST, 134 }, 
	{ NOTE_E3, 134 }, 
	{ NOTE_REST, 134 }, 
	{ NOTE_E3, 134 }, 
	{ NOTE_REST, 134 }, 
	{ NOTE_E3, 134 }, 
	{ NOTE_REST, 134 }, 
	{ NOTE_E3, 134 }, 
	{ NOTE_REST, 134 }, 
	{ NOTE_E3, 134 }, 
	{ NOTE_E3, 134 }, 
	{ NOTE_E3, 134 }, 
	{ NOTE_E3, 134 }, 
	{ NOTE_REST, 133 }, 
	{ NOTE_E3, 134 }, 
	{ NOTE_E3, 134 }, 
	{ NOTE_REST, 134 }, 
	{ NOTE_E3, 134 }, 
	{ NOTE_REST, 134 }, 
	{ NOTE_E3, 134 }, 
	{ NOTE_REST, 134 }, 
	{ NOTE_E3, 134 }, 
	{ NOTE_A3, 89 }, 
	{ NOTE_AS3, 89 }, 
	{ NOTE_B3, 89 }, 
	{ NOTE_G3, 134 }, 
	{ NOTE_G3, 134 }, 
	{ NOTE_A3, 89 }, 
	{ NOTE_AS3, 89 }, 
	{ NOTE_B3, 89 }, 
	{ NOTE_G3, 134 }, 
	{ NOTE_E3, 135 }, 
	{ NOTE_G3, 134 }, 
	{ NOTE_G3, 134 }, 
	{ NOTE_G3, 134 }, 
	{ NOTE_G3, 134 }, 
	{ NOTE_G3, 134 }, 
	{ NOTE_G3, 134 }, 
	{ NOTE_G3, 134 }, 
	{ NOTE_G3, 134 }, 
	{ NOTE_G3, 134 }, 
	{ NOTE_G3, 134 }, 
	{ NOTE_G3, 134 }, 
	{ NOTE_GS3, 268 }, 
	{ NOTE_GS3, 401 }, 
	{ NOTE_G3, 134 }, 
	{ NOTE_G3, 134 }, 
	{ NOTE_G3, 134 }, 
	{ NOTE_G3, 134 }, 
	{ NOTE_G3, 134 }, 
	{ NOTE_G3, 134 }, 
	{ NOTE_G3, 134 }, 
	{ NOTE_G3, 134 }, 
	{ NOTE_G3, 134 }, 
	{ NOTE_AS3, 402 }, 
	{ NOTE_A3, 268 }, 
	{ NOTE_GS3, 267 }, 
	{ NOTE_E3, 134 }, 
	{ NOTE_E3, 134 }, 
	{ NOTE_REST, 134 }, 
	{ NOTE_E3, 134 }, 
	{ NOTE_REST, 134 }, 
	{ NOTE_E3, 134 }, 
	{ NOTE_REST, 134 }, 
	{ NOTE_E3, 134 }, 
	{ NOTE_REST, 134 }, 
	{ NOTE_E3, 134 }, 
	{ NOTE_REST, 134 }, 
	{ NOTE_E3, 134 }, 
	{ NOTE_E3, 134 }, 
	{ NOTE_E3, 134 }, 
	{ NOTE_E3, 134 }, 
	{ NOTE_REST, 133 }, 
	{ NOTE_E3, 134 }, 
	{ NOTE_E3, 134 }, 
	{ NOTE_REST, 134 }, 
	{ NOTE_E3, 134 }, 
	{ NOTE_REST, 134 }, 
	{ NOTE_E3, 134 }, 
	{ NOTE_REST, 134 }, 
	{ NOTE_E3, 134 }, 
	{ NOTE_AS3, 134 }, 
	{ NOTE_A3, 134 }, 
	{ NOTE_G3, 134 }, 
	{ NOTE_E3, 134 }, 
	{ NOTE_REST, 535 }, 
	{ NOTE_E3, 134 }, 
	{ NOTE_G3, 134 }, 
	{ NOTE_E3, 134 }, 
	{ NOTE_G3, 134 }, 
	{ NOTE_A3, 134 }, 
	{ NOTE_G3, 134 }, 
	{ NOTE_A3, 134 }, 
	{ NOTE_G3, 134 }, 
	{ NOTE_AS3, 134 }, 
	{ NOTE_G3, 134 }, 
	{ NOTE_A3, 134 }, 
	{ NOTE_G3, 134 }, 
	{ NOTE_A3, 134 }, 
	{ NOTE_B3, 134 }, 
	{ NOTE_D4, 267 }, 
	{ NOTE_E3, 134 }, 
	{ NOTE_G3, 134 }, 
	{ NOTE_E3, 134 }, 
	{ NOTE_G3, 134 }, 
	{ NOTE_A3, 134 }, 
	{ NOTE_G3, 134 }, 
	{ NOTE_A3, 134 }, 
	{ NOTE_G3, 134 }, 
	{ NOTE_AS3, 134 }, 
	{ NOTE_G3, 134 }, 
	{ NOTE_A3, 134 }, 
	{ NOTE_G3, 134 }, 
	{ NOTE_A3, 134 }, 
	{ NOTE_B3, 134 }, 
	{ NOTE_D4, 267 }, 
	{ NOTE_E3, 134 }, 
	{ NOTE_G3, 134 }, 
	{ NOTE_E3, 134 }, 
	{ NOTE_G3, 134 }, 
	{ NOTE_A3, 134 }, 
	{ NOTE_G3, 134 }, 
	{ NOTE_A3, 134 }, 
	{ NOTE_G3, 134 }, 
	{ NOTE_AS3, 134 }, 
	{ NOTE_G3, 134 }, 
	{ NOTE_A3, 134 }, 
	{ NOTE_G3, 134 }, 
	{ NOTE_A3, 134 }, 
	{ NOTE_B3, 134 }, 
	{ NOTE_D4, 267 }, 
	{ NOTE_E3, 134 }, 
	{ NOTE_G3, 134 }, 
	{ NOTE_E3, 134 }, 
	{ NOTE_G3, 134 }, 
	{ NOTE_A3, 134 }, 
	{ NOTE_G3, 134 }, 
	{ NOTE_A3, 134 }, 
	{ NOTE_G3, 134 }, 
	{ NOTE_AS3, 134 }, 
	{ NOTE_A3, 134 }, 
	{ NOTE_G3, 134 }, 
	{ NOTE_E3, 134 }, 
	{ NOTE_REST, 535 }, 
	{ NOTE_E3, 134 }, 
	{ NOTE_G3, 134 }, 
	{ NOTE_E3, 134 }, 
	{ NOTE_G3, 134 }, 
	{ NOTE_A3, 134 }, 
	{ NOTE_G3, 134 }, 
	{ NOTE_A3, 134 }, 
	{ NOTE_G3, 134 }, 
	{ NOTE_AS3, 134 }, 
	{ NOTE_G3, 134 }, 
	{ NOTE_A3, 134 }, 
	{ NOTE_G3, 134 }, 
	{ NOTE_A3, 134 }, 
	{ NOTE_B3, 134 }, 
	{ NOTE_D4, 267 }, 
	{ NOTE_E3, 134 }, 
	{ NOTE_G3, 134 }, 
	{ NOTE_E3, 134 }, 
	{ NOTE_G3, 134 }, 
	{ NOTE_A3, 134 }, 
	{ NOTE_G3, 134 }, 
	{ NOTE_A3, 134 }, 
	{ NOTE_G3, 134 }, 
	{ NOTE_AS3, 134 }, 
	{ NOTE_G3, 134 }, 
	{ NOTE_A3, 134 }, 
	{ NOTE_G3, 134 }, 
	{ NOTE_A3, 134 }, 
	{ NOTE_B3, 134 }, 
	{ NOTE_D4, 267 }, 
	{ NOTE_E3, 134 }, 
	{ NOTE_G3, 134 }, 
	{ NOTE_E3, 134 }, 
	{ NOTE_G3, 134 }, 
	{ NOTE_A3, 134 }, 
	{ NOTE_G3, 134 }, 
	{ NOTE_A3, 134 }, 
	{ NOTE_G3, 134 }, 
	{ NOTE_AS3, 134 }, 
	{ NOTE_G3, 134 }, 
	{ NOTE_A3, 134 }, 
	{ NOTE_G3, 134 }, 
	{ NOTE_A3, 134 }, 
	{ NOTE_B3, 134 }, 
	{ NOTE_D4, 267 }, 
	{ NOTE_E3, 134 }, 
	{ NOTE_G3, 134 }, 
	{ NOTE_E3, 134 }, 
	{ NOTE_G3, 134 }, 
	{ NOTE_A3, 134 }, 
	{ NOTE_G3, 134 }, 
	{ NOTE_A3, 134 }, 
	{ NOTE_G3, 134 }, 
	{ NOTE_AS3, 134 }, 
	{ NOTE_A3, 134 }, 
	{ NOTE_G3, 134 }, 
	{ NOTE_E3, 134 }, 
	{ NOTE_REST, 535 }, 
	{ NOTE_E3, 134 }, 
	{ NOTE_E3, 134 }, 
	{ NOTE_REST, 134 }, 
	{ NOTE_E3, 134 }, 
	{ NOTE_REST, 134 }, 
	{ NOTE_E3, 134 }, 
	{ NOTE_REST, 134 }, 
	{ NOTE_E3, 134 }, 
	{ NOTE_REST, 134 }, 
	{ NOTE_E3, 134 }, 
	{ NOTE_REST, 134 }, 
	{ NOTE_E3, 134 }, 
	{ NOTE_A3, 89 }, 
	{ NOTE_AS3, 89 }, 
	{ NOTE_B3, 89 }, 
	{ NOTE_D4, 268 }, 
	{ NOTE_E3, 134 }, 
	{ NOTE_E3, 134 }, 
	{ NOTE_REST, 134 }, 
	{ NOTE_E3, 134 }, 
	{ NOTE_REST, 134 }, 
	{ NOTE_E3, 134 }, 
	{ NOTE_REST, 134 }, 
	{ NOTE_E3, 134 }, 
	{ NOTE_A3, 89 }, 
	{ NOTE_AS3, 89 }, 
	{ NOTE_B3, 89 }, 
	{ NOTE_D4, 268 }, 
	{ NOTE_A3, 89 }, 
	{ NOTE_AS3, 89 }, 
	{ NOTE_B3, 89 }, 
	{ NOTE_D4, 269 }, 
	{ NOTE_E3, 134 }, 
	{ NOTE_E3, 134 }, 
	{ NOTE_REST, 134 }, 
	{ NOTE_E3, 134 }, 
	{ NOTE_REST, 134 }, 
	{ NOTE_E3, 134 }, 
	{ NOTE_REST, 134 }, 
	{ NOTE_E3, 134 }, 
	{ NOTE_REST, 134 }, 
	{ NOTE_E3, 134 }, 
	{ NOTE_REST, 134 }, 
	{ NOTE_E3, 134 }, 
	{ NOTE_A3, 89 }, 
	{ NOTE_AS3, 89 }, 
	{ NOTE_B3, 89 }, 
	{ NOTE_D4, 268 }, 
	{ NOTE_E3, 134 }, 
	{ NOTE_E3, 134 }, 
	{ NOTE_REST, 134 }, 
	{ NOTE_E3, 134 }, 
	{ NOTE_REST, 134 }, 
	{ NOTE_E3, 134 }, 
	{ NOTE_REST, 134 }, 
	{ NOTE_E3, 134 }, 
	{ NOTE_A3, 89 }, 
	{ NOTE_AS3, 89 }, 
	{ NOTE_A3, 89 }, 
	{ NOTE_G3, 134 }, 
	{ NOTE_G3, 134 }, 
	{ NOTE_A3, 89 }, 
	{ NOTE_AS3, 89 }, 
	{ NOTE_A3, 89 }, 
	{ NOTE_G3, 134 }, 
	{ NOTE_E3, 135 }, 
	{ NOTE_E3, 134 }, 
	{ NOTE_E3, 134 }, 
	{ NOTE_REST, 134 }, 
	{ NOTE_E3, 134 }, 
	{ NOTE_REST, 134 }, 
	{ NOTE_E3, 134 }, 
	{ NOTE_REST, 134 }, 
	{ NOTE_E3, 134 }, 
	{ NOTE_REST, 134 }, 
	{ NOTE_E3, 134 }, 
	{ NOTE_REST, 134 }, 
	{ NOTE_E3, 134 }, 
	{ NOTE_A3, 89 }, 
	{ NOTE_AS3, 89 }, 
	{ NOTE_B3, 89 }, 
	{ NOTE_D4, 268 }, 
	{ NOTE_E3, 134 }, 
	{ NOTE_E3, 134 }, 
	{ NOTE_REST, 134 }, 
	{ NOTE_E3, 134 }, 
	{ NOTE_REST, 134 }, 
	{ NOTE_E3, 134 }, 
	{ NOTE_REST, 134 }, 
	{ NOTE_E3, 134 }, 
	{ NOTE_A3, 89 }, 
	{ NOTE_AS3, 89 }, 
	{ NOTE_A3, 89 }, 
	{ NOTE_G3, 134 }, 
	{ NOTE_G3, 134 }, 
	{ NOTE_A3, 89 }, 
	{ NOTE_AS3, 89 }, 
	{ NOTE_A3, 89 }, 
	{ NOTE_G3, 134 }, 
	{ NOTE_E3, 135 }, 
	{ NOTE_E3, 134 }, 
	{ NOTE_E3, 134 }, 
	{ NOTE_REST, 134 }, 
	{ NOTE_E3, 134 }, 
	{ NOTE_REST, 134 }, 
	{ NOTE_E3, 134 }, 
	{ NOTE_REST, 134 }, 
	{ NOTE_E3, 134 }, 
	{ NOTE_REST, 134 }, 
	{ NOTE_E3, 134 }, 
	{ NOTE_REST, 134 }, 
	{ NOTE_E3, 134 }, 
	{ NOTE_E3, 134 }, 
	{ NOTE_E3, 134 }, 
	{ NOTE_E3, 134 }, 
	{ NOTE_REST, 133 }, 
	{ NOTE_E3, 134 }, 
	{ NOTE_E3, 134 }, 
	{ NOTE_REST, 134 }, 
	{ NOTE_E3, 134 }, 
	{ NOTE_REST, 134 }, 
	{ NOTE_E3, 134 }, 
	{ NOTE_REST, 134 }, 
	{ NOTE_E3, 134 }, 
	{ NOTE_REST, 134 }, 
	{ NOTE_E3, 134 }, 
	{ NOTE_REST, 134 }, 
	{ NOTE_E3, 134 }, 
	{ NOTE_A3, 89 }, 
	{ NOTE_AS3, 89 }, 
	{ NOTE_B3, 89 }, 
	{ NOTE_D4, 268 }, 
	{ NOTE_E3, 134 }, 
	{ NOTE_E3, 134 }, 
	{ NOTE_REST, 134 }, 
	{ NOTE_E3, 134 }, 
	{ NOTE_REST, 134 }, 
	{ NOTE_E3, 134 }, 
	{ NOTE_REST, 134 }, 
	{ NOTE_E3, 134 }, 
	{ NOTE_REST, 134 }, 
	{ NOTE_E3, 134 }, 
	{ NOTE_REST, 134 }, 
	{ NOTE_E3, 134 }, 
	{ NOTE_E3, 134 }, 
	{ NOTE_E3, 134 }, 
	{ NOTE_E3, 134 }, 
	{ NOTE_REST, 133 }, 
	{ NOTE_E3, 134 }, 
	{ NOTE_E3, 134 }, 
	{ NOTE_REST, 134 }, 
	{ NOTE_E3, 134 }, 
	{ NOTE_REST, 134 }, 
	{ NOTE_E3, 134 }, 
	{ NOTE_REST, 134 }, 
	{ NOTE_E3, 134 }, 
	{ NOTE_A3, 89 }, 
	{ NOTE_AS3, 89 }, 
	{ NOTE_B3, 89 }, 
	{ NOTE_G3, 134 }, 
	{ NOTE_G3, 134 }, 
	{ NOTE_A3, 89 }, 
	{ NOTE_AS3, 89 }, 
	{ NOTE_B3, 89 }, 
	{ NOTE_G3, 134 }, 
	{ NOTE_E3, 135 }, 
	{ NOTE_E3, 134 }, 
	{ NOTE_E3, 134 }, 
	{ NOTE_REST, 134 }, 
	{ NOTE_E3, 134 }, 
	{ NOTE_REST, 134 }, 
	{ NOTE_E3, 134 }, 
	{ NOTE_REST, 134 }, 
	{ NOTE_E3, 134 }, 
	{ NOTE_REST, 134 }, 
	{ NOTE_E3, 134 }, 
	{ NOTE_REST, 134 }, 
	{ NOTE_E3, 134 }, 
	{ NOTE_E3, 134 }, 
	{ NOTE_E3, 134 }, 
	{ NOTE_E3, 134 }, 
	{ NOTE_REST, 133 }, 
	{ NOTE_E3, 134 }, 
	{ NOTE_E3, 134 }, 
	{ NOTE_REST, 134 }, 
	{ NOTE_E3, 134 }, 
	{ NOTE_REST, 134 }, 
	{ NOTE_E3, 134 }, 
	{ NOTE_REST, 134 }, 
	{ NOTE_E3, 134 }, 
	{ NOTE_REST, 134 }, 
	{ NOTE_E3, 134 }, 
	{ NOTE_REST, 134 }, 
	{ NOTE_E3, 134 }, 
	{ NOTE_A3, 89 }, 
	{ NOTE_AS3, 89 }, 
	{ NOTE_B3, 89 }, 
	{ NOTE_D4, 268 }, 
	{ NOTE_E3, 134 }, 
	{ NOTE_E3, 134 }, 
	{ NOTE_REST, 134 }, 
	{ NOTE_E3, 134 }, 
	{ NOTE_REST, 134 }, 
	{ NOTE_E3, 134 }, 
	{ NOTE_REST, 134 }, 
	{ NOTE_E3, 134 }, 
	{ NOTE_REST, 134 }, 
	{ NOTE_E3, 134 }, 
	{ NOTE_REST, 134 }, 
	{ NOTE_E3, 134 }, 
	{ NOTE_E3, 134 }, 
	{ NOTE_E3, 134 }, 
	{ NOTE_E3, 134 }, 
	{ NOTE_REST, 133 }, 
	{ NOTE_E3, 134 }, 
	{ NOTE_E3, 134 }, 
	{ NOTE_REST, 134 }, 
	{ NOTE_E3, 134 }, 
	{ NOTE_REST, 134 }, 
	{ NOTE_E3, 134 }, 
	{ NOTE_REST, 134 }, 
	{ NOTE_E3, 134 }, 
	{ NOTE_A3, 89 }, 
	{ NOTE_AS3, 89 }, 
	{ NOTE_B3, 89 }, 
	{ NOTE_G3, 134 }, 
	{ NOTE_G3, 134 }, 
	{ NOTE_A3, 89 }, 
	{ NOTE_AS3, 89 }, 
	{ NOTE_B3, 89 }, 
	{ NOTE_G3, 134 }, 
	{ NOTE_E3, 135 }, 
	{ NOTE_G3, 134 }, 
	{ NOTE_G3, 134 }, 
	{ NOTE_G3, 134 }, 
	{ NOTE_G3, 134 }, 
	{ NOTE_G3, 134 }, 
	{ NOTE_G3, 134 }, 
	{ NOTE_G3, 134 }, 
	{ NOTE_G3, 134 }, 
	{ NOTE_G3, 134 }, 
	{ NOTE_G3, 134 }, 
	{ NOTE_G3, 134 }, 
	{ NOTE_GS3, 268 }, 
	{ NOTE_GS3, 401 }, 
	{ NOTE_G3, 134 }, 
	{ NOTE_G3, 134 }, 
	{ NOTE_G3, 134 }, 
	{ NOTE_G3, 134 }, 
	{ NOTE_G3, 134 }, 
	{ NOTE_G3, 134 }, 
	{ NOTE_G3, 134 }, 
	{ NOTE_G3, 134 }, 
	{ NOTE_G3, 134 }, 
	{ NOTE_AS3, 402 }, 
	{ NOTE_A3, 268 }, 
	{ NOTE_GS3, 267 }, 
	{ NOTE_E3, 134 }, 
	{ NOTE_E3, 134 }, 
	{ NOTE_REST, 134 }, 
	{ NOTE_E3, 134 }, 
	{ NOTE_REST, 134 }, 
	{ NOTE_E3, 134 }, 
	{ NOTE_REST, 134 }, 
	{ NOTE_E3, 134 }, 
	{ NOTE_REST, 134 }, 
	{ NOTE_E3, 134 }, 
	{ NOTE_REST, 134 }, 
	{ NOTE_E3, 134 }, 
	{ NOTE_E3, 134 }, 
	{ NOTE_E3, 134 }, 
	{ NOTE_E3, 134 }, 
	{ NOTE_REST, 133 }, 
	{ NOTE_E3, 134 }, 
	{ NOTE_E3, 134 }, 
	{ NOTE_REST, 134 }, 
	{ NOTE_E3, 134 }, 
	{ NOTE_REST, 134 }, 
	{ NOTE_E3, 134 }, 
	{ NOTE_REST, 134 }, 
	{ NOTE_E3, 134 }, 
	{ NOTE_AS3, 134 }, 
	{ NOTE_A3, 134 }, 
	{ NOTE_G3, 134 }, 
	{ NOTE_E3, 134 }, 
	{ NOTE_REST, 535 }, 
	{ NOTE_E3, 134 }, 
	{ NOTE_G3, 134 }, 
	{ NOTE_E3, 134 }, 
	{ NOTE_G3, 134 }, 
	{ NOTE_A3, 134 }, 
	{ NOTE_G3, 134 }, 
	{ NOTE_A3, 134 }, 
	{ NOTE_G3, 134 }, 
	{ NOTE_AS3, 134 }, 
	{ NOTE_G3, 134 }, 
	{ NOTE_A3, 134 }, 
	{ NOTE_G3, 134 }, 
	{ NOTE_A3, 134 }, 
	{ NOTE_B3, 134 }, 
	{ NOTE_D4, 267 }, 
	{ NOTE_E3, 134 }, 
	{ NOTE_G3, 134 }, 
	{ NOTE_E3, 134 }, 
	{ NOTE_G3, 134 }, 
	{ NOTE_A3, 134 }, 
	{ NOTE_G3, 134 }, 
	{ NOTE_A3, 134 }, 
	{ NOTE_G3, 134 }, 
	{ NOTE_AS3, 134 }, 
	{ NOTE_G3, 134 }, 
	{ NOTE_A3, 134 }, 
	{ NOTE_G3, 134 }, 
	{ NOTE_A3, 134 }, 
	{ NOTE_B3, 134 }, 
	{ NOTE_D4, 267 }, 
	{ NOTE_E3, 134 }, 
	{ NOTE_G3, 134 }, 
	{ NOTE_E3, 134 }, 
	{ NOTE_G3, 134 }, 
	{ NOTE_A3, 134 }, 
	{ NOTE_G3, 134 }, 
	{ NOTE_A3, 134 }, 
	{ NOTE_G3, 134 }, 
	{ NOTE_AS3, 134 }, 
	{ NOTE_G3, 134 }, 
	{ NOTE_A3, 134 }, 
	{ NOTE_G3, 134 }, 
	{ NOTE_A3, 134 }, 
	{ NOTE_B3, 134 }, 
	{ NOTE_D4, 267 }, 
	{ NOTE_E3, 134 }, 
	{ NOTE_G3, 134 }, 
	{ NOTE_E3, 134 }, 
	{ NOTE_G3, 134 }, 
	{ NOTE_A3, 134 }, 
	{ NOTE_G3, 134 }, 
	{ NOTE_A3, 134 }, 
	{ NOTE_G3, 134 }, 
	{ NOTE_AS3, 134 }, 
	{ NOTE_A3, 134 }, 
	{ NOTE_G3, 134 }, 
	{ NOTE_E3, 134 }, 
	{ NOTE_REST, 535 }, 
	{ NOTE_E3, 134 }, 
	{ NOTE_G3, 134 }, 
	{ NOTE_E3, 134 }, 
	{ NOTE_G3, 134 }, 
	{ NOTE_A3, 134 }, 
	{ NOTE_G3, 134 }, 
	{ NOTE_A3, 134 }, 
	{ NOTE_G3, 134 }, 
	{ NOTE_AS3, 134 }, 
	{ NOTE_G3, 134 }, 
	{ NOTE_A3, 134 }, 
	{ NOTE_G3, 134 }, 
	{ NOTE_A3, 134 }, 
	{ NOTE_B3, 134 }, 
	{ NOTE_D4, 267 }, 
	{ NOTE_E3, 134 }, 
	{ NOTE_G3, 134 }, 
	{ NOTE_E3, 134 }, 
	{ NOTE_G3, 134 }, 
	{ NOTE_A3, 134 }, 
	{ NOTE_G3, 134 }, 
	{ NOTE_A3, 134 }, 
	{ NOTE_G3, 134 }, 
	{ NOTE_AS3, 134 }, 
	{ NOTE_G3, 134 }, 
	{ NOTE_A3, 134 }, 
	{ NOTE_G3, 134 }, 
	{ NOTE_A3, 134 }, 
	{ NOTE_B3, 134 }, 
	{ NOTE_D4, 267 }, 
	{ NOTE_E3, 134 }, 
	{ NOTE_G3, 134 }, 
	{ NOTE_E3, 134 }, 
	{ NOTE_G3, 134 }, 
	{ NOTE_A3, 134 }, 
	{ NOTE_G3, 134 }, 
	{ NOTE_A3, 134 }, 
	{ NOTE_G3, 134 }, 
	{ NOTE_AS3, 134 }, 
	{ NOTE_G3, 134 }, 
	{ NOTE_A3, 134 }, 
	{ NOTE_G3, 134 }, 
	{ NOTE_A3, 134 }, 
	{ NOTE_B3, 134 }, 
	{ NOTE_D4, 267 }, 
	{ NOTE_E3, 134 }, 
	{ NOTE_G3, 134 }, 
	{ NOTE_E3, 134 }, 
	{ NOTE_G3, 134 }, 
	{ NOTE_A3, 134 }, 
	{ NOTE_G3, 134 }, 
	{ NOTE_A3, 134 }, 
	{ NOTE_G3, 134 }, 
	{ NOTE_E3, 134 }, 
	{ NOTE_G3, 402 }, 
	{ NOTE_FS3, 268 }, 
	{ NOTE_F3, 267 }, 
	{ NOTE_E3, 268 }, 
	{ NOTE_E3, 268 }, 
	{ NOTE_B3, 1607 }, 
	{ NOTE_C4, 268 }, 
	{ NOTE_C4, 268 }, 
	{ NOTE_E4, 1607 }, 
	{ NOTE_CS4, 268 }, 
	{ NOTE_CS4, 268 }, 
	{ NOTE_E4, 1607 }, 
	{ NOTE_D4, 268 }, 
	{ NOTE_D4, 268 }, 
	{ NOTE_D4, 536 }, 
	{ NOTE_REST, 134 }, 
	{ NOTE_AS3, 402 }, 
	{ NOTE_A3, 268 }, 
	{ NOTE_G3, 267 }, 
	{ NOTE_REST, 268 }, 
	{ NOTE_B3, 1875 }, 
	{ NOTE_REST, 268 }, 
	{ NOTE_C4, 1875 }, 
	{ NOTE_REST, 268 }, 
	{ NOTE_CS4, 1875 }, 
	{ NOTE_REST, 268 }, 
	{ NOTE_D4, 804 }, 
	{ NOTE_REST, 134 }, 
	{ NOTE_AS3, 402 }, 
	{ NOTE_A3, 268 }, 
	{ NOTE_G3, 267 }, 
	{ NOTE_REST, 268 }, 
	{ NOTE_B3, 1875 }, 
	{ NOTE_REST, 268 }, 
	{ NOTE_C4, 1875 }, 
	{ NOTE_REST, 268 }, 
	{ NOTE_CS4, 1875 }, 
	{ NOTE_REST, 268 }, 
	{ NOTE_D4, 804 }, 
	{ NOTE_REST, 134 }, 
	{ NOTE_AS3, 402 }, 
	{ NOTE_A3, 268 }, 
	{ NOTE_G3, 267 }, 
	{ NOTE_REST, 268 }, 
	{ NOTE_B3, 1875 }, 
	{ NOTE_REST, 268 }, 
	{ NOTE_C4, 1875 }, 
	{ NOTE_REST, 268 }, 
	{ NOTE_CS4, 1875 }, 
	{ NOTE_REST, 268 }, 
	{ NOTE_D4, 804 }, 
	{ NOTE_REST, 134 }, 
	{ NOTE_AS3, 402 }, 
	{ NOTE_A3, 268 }, 
	{ NOTE_G3, 267 }, 
	{ NOTE_E4, 134 }, 
	{ NOTE_D4, 134 }, 
	{ NOTE_E3, 134 }, 
	{ NOTE_E3, 134 }, 
	{ NOTE_E3, 134 }, 
	{ NOTE_E3, 134 }, 
	{ NOTE_E3, 134 }, 
	{ NOTE_E3, 134 }, 
	{ NOTE_E4, 134 }, 
	{ NOTE_D4, 134 }, 
	{ NOTE_G4, 536 }, 
	{ NOTE_E3, 134 }, 
	{ NOTE_E3, 133 }, 
	{ NOTE_E4, 134 }, 
	{ NOTE_D4, 134 }, 
	{ NOTE_E3, 134 }, 
	{ NOTE_E3, 134 }, 
	{ NOTE_E3, 134 }, 
	{ NOTE_E3, 134 }, 
	{ NOTE_E3, 134 }, 
	{ NOTE_E3, 134 }, 
	{ NOTE_E4, 134 }, 
	{ NOTE_D4, 134 }, 
	{ NOTE_A4, 536 }, 
	{ NOTE_E3, 134 }, 
	{ NOTE_E3, 133 }, 
	{ NOTE_E4, 134 }, 
	{ NOTE_D4, 134 }, 
	{ NOTE_E3, 134 }, 
	{ NOTE_E3, 134 }, 
	{ NOTE_E4, 134 }, 
	{ NOTE_D4, 134 }, 
	{ NOTE_E3, 134 }, 
	{ NOTE_E3, 134 }, 
	{ NOTE_E4, 134 }, 
	{ NOTE_D4, 134 }, 
	{ NOTE_G4, 536 }, 
	{ NOTE_E3, 134 }, 
	{ NOTE_E3, 133 }, 
	{ NOTE_A5, 134 }, 
	{ NOTE_G5, 134 }, 
	{ NOTE_E5, 134 }, 
	{ NOTE_G5, 134 }, 
	{ NOTE_FS5, 134 }, 
	{ NOTE_D5, 134 }, 
	{ NOTE_FS5, 134 }, 
	{ NOTE_E5, 134 }, 
	{ NOTE_CS5, 134 }, 
	{ NOTE_E5, 134 }, 
	{ NOTE_D5, 134 }, 
	{ NOTE_B4, 134 }, 
	{ NOTE_D5, 134 }, 
	{ NOTE_CS5, 134 }, 
	{ NOTE_A4, 267 }, 
	{ NOTE_E4, 134 }, 
	{ NOTE_D4, 134 }, 
	{ NOTE_E3, 134 }, 
	{ NOTE_E3, 134 }, 
	{ NOTE_E4, 134 }, 
	{ NOTE_D4, 134 }, 
	{ NOTE_E3, 134 }, 
	{ NOTE_E3, 134 }, 
	{ NOTE_E4, 134 }, 
	{ NOTE_D4, 134 }, 
	{ NOTE_G4, 536 }, 
	{ NOTE_E3, 134 }, 
	{ NOTE_E3, 133 }, 
	{ NOTE_E4, 134 }, 
	{ NOTE_D4, 134 }, 
	{ NOTE_E3, 134 }, 
	{ NOTE_E3, 134 }, 
	{ NOTE_E4, 134 }, 
	{ NOTE_D4, 134 }, 
	{ NOTE_E3, 134 }, 
	{ NOTE_E3, 134 }, 
	{ NOTE_E4, 134 }, 
	{ NOTE_D4, 134 }, 
	{ NOTE_A4, 803 }, 
	{ NOTE_E4, 134 }, 
	{ NOTE_D4, 134 }, 
	{ NOTE_E3, 134 }, 
	{ NOTE_E3, 134 }, 
	{ NOTE_E4, 134 }, 
	{ NOTE_D4, 134 }, 
	{ NOTE_E3, 134 }, 
	{ NOTE_E3, 134 }, 
	{ NOTE_E4, 134 }, 
	{ NOTE_D4, 134 }, 
	{ NOTE_G4, 536 }, 
	{ NOTE_E3, 134 }, 
	{ NOTE_E3, 133 }, 
	{ NOTE_A6, 134 }, 
	{ NOTE_G6, 134 }, 
	{ NOTE_E6, 134 }, 
	{ NOTE_G6, 134 }, 
	{ NOTE_FS6, 134 }, 
	{ NOTE_D6, 134 }, 
	{ NOTE_FS6, 134 }, 
	{ NOTE_E6, 134 }, 
	{ NOTE_CS6, 134 }, 
	{ NOTE_E6, 134 }, 
	{ NOTE_D6, 134 }, 
	{ NOTE_B5, 134 }, 
	{ NOTE_D6, 134 }, 
	{ NOTE_CS6, 134 }, 
	{ NOTE_A5, 267 }, 
	{ NOTE_E4, 134 }, 
	{ NOTE_G4, 134 }, 
	{ NOTE_E4, 134 }, 
	{ NOTE_G4, 134 }, 
	{ NOTE_A4, 134 }, 
	{ NOTE_G4, 134 }, 
	{ NOTE_A4, 134 }, 
	{ NOTE_G4, 134 }, 
	{ NOTE_AS4, 134 }, 
	{ NOTE_G4, 134 }, 
	{ NOTE_A4, 134 }, 
	{ NOTE_G4, 134 }, 
	{ NOTE_A4, 134 }, 
	{ NOTE_B4, 134 }, 
	{ NOTE_D5, 134 }, 
	{ NOTE_REST, 133 }, 
	{ NOTE_E4, 134 }, 
	{ NOTE_G4, 134 }, 
	{ NOTE_E4, 134 }, 
	{ NOTE_G4, 134 }, 
	{ NOTE_A4, 134 }, 
	{ NOTE_G4, 134 }, 
	{ NOTE_A4, 134 }, 
	{ NOTE_G4, 134 }, 
	{ NOTE_AS4, 134 }, 
	{ NOTE_G4, 134 }, 
	{ NOTE_A4, 134 }, 
	{ NOTE_G4, 134 }, 
	{ NOTE_A4, 134 }, 
	{ NOTE_B4, 134 }, 
	{ NOTE_D5, 134 }, 
	{ NOTE_REST, 133 }, 
	{ NOTE_E4, 134 }, 
	{ NOTE_G4, 134 }, 
	{ NOTE_E4, 134 }, 
	{ NOTE_G4, 134 }, 
	{ NOTE_A4, 134 }, 
	{ NOTE_G4, 134 }, 
	{ NOTE_A4, 134 }, 
	{ NOTE_G4, 134 }, 
	{ NOTE_AS4, 134 }, 
	{ NOTE_G4, 134 }, 
	{ NOTE_A4, 134 }, 
	{ NOTE_G4, 134 }, 
	{ NOTE_A4, 134 }, 
	{ NOTE_B4, 134 }, 
	{ NOTE_D5, 134 }, 
	{ NOTE_REST, 133 }, 
	{ NOTE_E4, 134 }, 
	{ NOTE_G4, 134 }, 
	{ NOTE_E4, 134 }, 
	{ NOTE_G4, 134 }, 
	{ NOTE_A4, 134 }, 
	{ NOTE_G4, 134 }, 
	{ NOTE_A4, 134 }, 
	{ NOTE_G4, 134 }, 
	{ NOTE_AS4, 134 }, 
	{ NOTE_A4, 134 }, 
	{ NOTE_G4, 134 }, 
	{ NOTE_E4, 669 }, 
	{ NOTE_E3, 134 }, 
	{ NOTE_G3, 134 }, 
	{ NOTE_E3, 134 }, 
	{ NOTE_G3, 134 }, 
	{ NOTE_A3, 134 }, 
	{ NOTE_G3, 134 }, 
	{ NOTE_A3, 134 }, 
	{ NOTE_G3, 134 }, 
	{ NOTE_AS3, 134 }, 
	{ NOTE_G3, 134 }, 
	{ NOTE_A3, 134 }, 
	{ NOTE_G3, 134 }, 
	{ NOTE_A3, 134 }, 
	{ NOTE_B3, 134 }, 
	{ NOTE_D4, 267 }, 
	{ NOTE_E3, 134 }, 
	{ NOTE_G3, 134 }, 
	{ NOTE_E3, 134 }, 
	{ NOTE_G3, 134 }, 
	{ NOTE_A3, 134 }, 
	{ NOTE_G3, 134 }, 
	{ NOTE_A3, 134 }, 
	{ NOTE_G3, 134 }, 
	{ NOTE_AS3, 134 }, 
	{ NOTE_G3, 134 }, 
	{ NOTE_A3, 134 }, 
	{ NOTE_G3, 134 }, 
	{ NOTE_A3, 134 }, 
	{ NOTE_B3, 134 }, 
	{ NOTE_D4, 267 }, 
	{ NOTE_E3, 134 }, 
	{ NOTE_G3, 134 }, 
	{ NOTE_E3, 134 }, 
	{ NOTE_G3, 134 }, 
	{ NOTE_A3, 134 }, 
	{ NOTE_G3, 134 }, 
	{ NOTE_A3, 134 }, 
	{ NOTE_G3, 134 }, 
	{ NOTE_AS3, 134 }, 
	{ NOTE_G3, 134 }, 
	{ NOTE_A3, 134 }, 
	{ NOTE_G3, 134 }, 
	{ NOTE_A3, 134 }, 
	{ NOTE_B3, 134 }, 
	{ NOTE_D4, 267 }, 
	{ NOTE_E3, 134 }, 
	{ NOTE_G3, 134 }, 
	{ NOTE_E3, 134 }, 
	{ NOTE_G3, 134 }, 
	{ NOTE_A3, 134 }, 
	{ NOTE_G3, 134 }, 
	{ NOTE_A3, 134 }, 
	{ NOTE_G3, 134 }, 
	{ NOTE_AS3, 134 }, 
	{ NOTE_A3, 134 }, 
	{ NOTE_G3, 134 }, 
	{ NOTE_E3, 134 }, 
	{ NOTE_REST, 535 }, 
	{ NOTE_E3, 134 }, 
	{ NOTE_G3, 134 }, 
	{ NOTE_E3, 134 }, 
	{ NOTE_G3, 134 }, 
	{ NOTE_A3, 134 }, 
	{ NOTE_G3, 134 }, 
	{ NOTE_A3, 134 }, 
	{ NOTE_G3, 134 }, 
	{ NOTE_AS3, 134 }, 
	{ NOTE_G3, 134 }, 
	{ NOTE_A3, 134 }, 
	{ NOTE_G3, 134 }, 
	{ NOTE_A3, 134 }, 
	{ NOTE_B3, 134 }, 
	{ NOTE_D4, 267 }, 
	{ NOTE_E3, 134 }, 
	{ NOTE_G3, 134 }, 
	{ NOTE_E3, 134 }, 
	{ NOTE_G3, 134 }, 
	{ NOTE_A3, 134 }, 
	{ NOTE_G3, 134 }, 
	{ NOTE_A3, 134 }, 
	{ NOTE_G3, 134 }, 
	{ NOTE_AS3, 134 }, 
	{ NOTE_G3, 134 }, 
	{ NOTE_A3, 134 }, 
	{ NOTE_G3, 134 }, 
	{ NOTE_A3, 134 }, 
	{ NOTE_B3, 134 }, 
	{ NOTE_D4, 267 }, 
	{ NOTE_E3, 134 }, 
	{ NOTE_G3, 134 }, 
	{ NOTE_E3, 134 }, 
	{ NOTE_G3, 134 }, 
	{ NOTE_A3, 134 }, 
	{ NOTE_G3, 134 }, 
	{ NOTE_A3, 134 }, 
	{ NOTE_G3, 134 }, 
	{ NOTE_AS3, 134 }, 
	{ NOTE_G3, 134 }, 
	{ NOTE_A3, 134 }, 
	{ NOTE_G3, 134 }, 
	{ NOTE_A3, 134 }, 
	{ NOTE_B3, 134 }, 
	{ NOTE_D4, 267 }, 
	{ NOTE_E3, 134 }, 
	{ NOTE_G3, 134 }, 
	{ NOTE_E3, 134 }, 
	{ NOTE_G3, 134 }, 
	{ NOTE_A3, 134 }, 
	{ NOTE_G3, 134 }, 
	{ NOTE_A3, 134 }, 
	{ NOTE_G3, 134 }, 
	{ NOTE_AS3, 134 }, 
	{ NOTE_A3, 134 }, 
	{ NOTE_G3, 134 }, 
	{ NOTE_E3, 134 }, 
	{ NOTE_REST, 535 }, 
	{ NOTE_E3, 134 }, 
	{ NOTE_G3, 134 }, 
	{ NOTE_E3, 134 }, 
	{ NOTE_G3, 134 }, 
	{ NOTE_A3, 134 }, 
	{ NOTE_G3, 134 }, 
	{ NOTE_A3, 134 }, 
	{ NOTE_G3, 134 }, 
	{ NOTE_AS3, 134 }, 
	{ NOTE_G3, 134 }, 
	{ NOTE_A3, 134 }, 
	{ NOTE_G3, 134 }, 
	{ NOTE_A3, 134 }, 
	{ NOTE_B3, 134 }, 
	{ NOTE_D4, 267 }, 
	{ NOTE_E3, 134 }, 
	{ NOTE_G3, 134 }, 
	{ NOTE_E3, 134 }, 
	{ NOTE_G3, 134 }, 
	{ NOTE_A3, 134 }, 
	{ NOTE_G3, 134 }, 
	{ NOTE_A3, 134 }, 
	{ NOTE_G3, 134 }, 
	{ NOTE_AS3, 134 }, 
	{ NOTE_A3, 134 }, 
	{ NOTE_G3, 134 }, 
	{ NOTE_E3, 134 }, 
	{ NOTE_REST, 535 }, 
	{ NOTE_E4, 134 }, 
	{ NOTE_D4, 134 }, 
	{ NOTE_E3, 134 }, 
	{ NOTE_E3, 134 }, 
	{ NOTE_E3, 134 }, 
	{ NOTE_E3, 134 }, 
	{ NOTE_E3, 134 }, 
	{ NOTE_E3, 134 }, 
	{ NOTE_E4, 134 }, 
	{ NOTE_D4, 134 }, 
	{ NOTE_G4, 536 }, 
	{ NOTE_E3, 134 }, 
	{ NOTE_E3, 133 }, 
	{ NOTE_E4, 134 }, 
	{ NOTE_D4, 134 }, 
	{ NOTE_E3, 134 }, 
	{ NOTE_E3, 134 }, 
	{ NOTE_E3, 134 }, 
	{ NOTE_E3, 134 }, 
	{ NOTE_E3, 134 }, 
	{ NOTE_E3, 134 }, 
	{ NOTE_E4, 134 }, 
	{ NOTE_D4, 134 }, 
	{ NOTE_A4, 536 }, 
	{ NOTE_E3, 134 }, 
	{ NOTE_E3, 133 }, 
	{ NOTE_E4, 134 }, 
	{ NOTE_D4, 134 }, 
	{ NOTE_E3, 134 }, 
	{ NOTE_E3, 134 }, 
	{ NOTE_E4, 134 }, 
	{ NOTE_D4, 134 }, 
	{ NOTE_E3, 134 }, 
	{ NOTE_E3, 134 }, 
	{ NOTE_E4, 134 }, 
	{ NOTE_D4, 134 }, 
	{ NOTE_G4, 536 }, 
	{ NOTE_E3, 134 }, 
	{ NOTE_E3, 133 }, 
	{ NOTE_A5, 134 }, 
	{ NOTE_G5, 134 }, 
	{ NOTE_E5, 134 }, 
	{ NOTE_G5, 134 }, 
	{ NOTE_FS5, 134 }, 
	{ NOTE_D5, 134 }, 
	{ NOTE_FS5, 134 }, 
	{ NOTE_E5, 134 }, 
	{ NOTE_CS5, 134 }, 
	{ NOTE_E5, 134 }, 
	{ NOTE_D5, 134 }, 
	{ NOTE_B4, 134 }, 
	{ NOTE_D5, 134 }, 
	{ NOTE_CS5, 134 }, 
	{ NOTE_A4, 267 }, 
	{ NOTE_E4, 134 }, 
	{ NOTE_D4, 134 }, 
	{ NOTE_E3, 134 }, 
	{ NOTE_E3, 134 }, 
	{ NOTE_E4, 134 }, 
	{ NOTE_D4, 134 }, 
	{ NOTE_E3, 134 }, 
	{ NOTE_E3, 134 }, 
	{ NOTE_E4, 134 }, 
	{ NOTE_D4, 134 }, 
	{ NOTE_G4, 536 }, 
	{ NOTE_E3, 134 }, 
	{ NOTE_E3, 133 }, 
	{ NOTE_E4, 134 }, 
	{ NOTE_D4, 134 }, 
	{ NOTE_E3, 134 }, 
	{ NOTE_E3, 134 }, 
	{ NOTE_E4, 134 }, 
	{ NOTE_D4, 134 }, 
	{ NOTE_E3, 134 }, 
	{ NOTE_E3, 134 }, 
	{ NOTE_E4, 134 }, 
	{ NOTE_D4, 134 }, 
	{ NOTE_A4, 803 }, 
	{ NOTE_E4, 134 }, 
	{ NOTE_D4, 134 }, 
	{ NOTE_E3, 134 }, 
	{ NOTE_E3, 134 }, 
	{ NOTE_E4, 134 }, 
	{ NOTE_D4, 134 }, 
	{ NOTE_E3, 134 }, 
	{ NOTE_E3, 134 }, 
	{ NOTE_E4, 134 }, 
	{ NOTE_D4, 134 }, 
	{ NOTE_G4, 536 }, 
	{ NOTE_E3, 134 }, 
	{ NOTE_E3, 133 }, 
	{ NOTE_A6, 134 }, 
	{ NOTE_G6, 134 }, 
	{ NOTE_E6, 134 }, 
	{ NOTE_G6, 134 }, 
	{ NOTE_FS6, 134 }, 
	{ NOTE_D6, 134 }, 
	{ NOTE_FS6, 134 }, 
	{ NOTE_E6, 134 }, 
	{ NOTE_CS6, 134 }, 
	{ NOTE_E6, 134 }, 
	{ NOTE_D6, 134 }, 
	{ NOTE_B5, 134 }, 
	{ NOTE_D6, 134 }, 
	{ NOTE_CS6, 134 }, 
	{ NOTE_A5, 267 }, 
	{ NOTE_E3, 134 }, 
	{ NOTE_E3, 134 }, 
	{ NOTE_E3, 134 }, 
	{ NOTE_E3, 134 }, 
	{ NOTE_REST, 134 }, 
	{ NOTE_E3, 134 }, 
	{ NOTE_REST, 268 }, 
	{ NOTE_A3, 89 }, 
	{ NOTE_AS3, 89 }, 
	{ NOTE_A3, 89 }, 
	{ NOTE_G3, 268 }, 
	{ NOTE_G3, 134 }, 
	{ NOTE_E3, 134 }, 
	{ NOTE_REST, 268 }, 
};
const uint16_t NUM_OF_NOTES0 = sizeof(melody0)/sizeof(melody0[0]);

const Note melody1[] PROGMEM = {
	{ NOTE_REST, 2143 }, 
	{ NOTE_REST, 2143 }, 
	{ NOTE_REST, 2143 }, 
	{ NOTE_REST, 2143 }, 
	{ NOTE_E4, 134 }, 
	{ NOTE_G4, 134 }, 
	{ NOTE_E4, 134 }, 
	{ NOTE_G4, 134 }, 
	{ NOTE_A4, 134 }, 
	{ NOTE_G4, 134 }, 
	{ NOTE_A4, 134 }, 
	{ NOTE_G4, 134 }, 
	{ NOTE_AS4, 134 }, 
	{ NOTE_G4, 134 }, 
	{ NOTE_A4, 134 }, 
	{ NOTE_G4, 134 }, 
	{ NOTE_A4, 134 }, 
	{ NOTE_B4, 134 }, 
	{ NOTE_D5, 134 }, 
	{ NOTE_REST, 133 }, 
	{ NOTE_E4, 134 }, 
	{ NOTE_G4, 134 }, 
	{ NOTE_E4, 134 }, 
	{ NOTE_G4, 134 }, 
	{ NOTE_A4, 134 }, 
	{ NOTE_G4, 134 }, 
	{ NOTE_A4, 134 }, 
	{ NOTE_G4, 134 }, 
	{ NOTE_AS4, 134 }, 
	{ NOTE_G4, 134 }, 
	{ NOTE_A4, 134 }, 
	{ NOTE_G4, 134 }, 
	{ NOTE_A4, 134 }, 
	{ NOTE_B4, 134 }, 
	{ NOTE_D5, 134 }, 
	{ NOTE_REST, 133 }, 
	{ NOTE_E4, 134 }, 
	{ NOTE_G4, 134 }, 
	{ NOTE_E4, 134 }, 
	{ NOTE_G4, 134 }, 
	{ NOTE_A4, 134 }, 
	{ NOTE_G4, 134 }, 
	{ NOTE_A4, 134 }, 
	{ NOTE_G4, 134 }, 
	{ NOTE_AS4, 134 }, 
	{ NOTE_G4, 134 }, 
	{ NOTE_A4, 134 }, 
	{ NOTE_G4, 134 }, 
	{ NOTE_A4, 134 }, 
	{ NOTE_B4, 134 }, 
	{ NOTE_D5, 134 }, 
	{ NOTE_REST, 133 }, 
	{ NOTE_E4, 134 }, 
	{ NOTE_G4, 134 }, 
	{ NOTE_E4, 134 }, 
	{ NOTE_G4, 134 }, 
	{ NOTE_A4, 134 }, 
	{ NOTE_G4, 134 }, 
	{ NOTE_A4, 134 }, 
	{ NOTE_G4, 134 }, 
	{ NOTE_AS4, 134 }, 
	{ NOTE_A4, 134 }, 
	{ NOTE_G4, 134 }, 
	{ NOTE_E4, 669 }, 
	{ NOTE_E3, 134 }, 
	{ NOTE_G3, 134 }, 
	{ NOTE_E3, 134 }, 
	{ NOTE_G3, 134 }, 
	{ NOTE_A3, 134 }, 
	{ NOTE_G3, 134 }, 
	{ NOTE_A3, 134 }, 
	{ NOTE_G3, 134 }, 
	{ NOTE_AS3, 134 }, 
	{ NOTE_G3, 134 }, 
	{ NOTE_A3, 134 }, 
	{ NOTE_G3, 134 }, 
	{ NOTE_A3, 134 }, 
	{ NOTE_B3, 134 }, 
	{ NOTE_D4, 267 }, 
	{ NOTE_E3, 134 }, 
	{ NOTE_G3, 134 }, 
	{ NOTE_E3, 134 }, 
	{ NOTE_G3, 134 }, 
	{ NOTE_A3, 134 }, 
	{ NOTE_G3, 134 }, 
	{ NOTE_A3, 134 }, 
	{ NOTE_G3, 134 }, 
	{ NOTE_AS3, 134 }, 
	{ NOTE_G3, 134 }, 
	{ NOTE_A3, 134 }, 
	{ NOTE_G3, 134 }, 
	{ NOTE_A3, 134 }, 
	{ NOTE_B3, 134 }, 
	{ NOTE_D4, 267 }, 
	{ NOTE_E3, 134 }, 
	{ NOTE_G3, 134 }, 
	{ NOTE_E3, 134 }, 
	{ NOTE_G3, 134 }, 
	{ NOTE_A3, 134 }, 
	{ NOTE_G3, 134 }, 
	{ NOTE_A3, 134 }, 
	{ NOTE_G3, 134 }, 
	{ NOTE_AS3, 134 }, 
	{ NOTE_G3, 134 }, 
	{ NOTE_A3, 134 }, 
	{ NOTE_G3, 134 }, 
	{ NOTE_A3, 134 }, 
	{ NOTE_B3, 134 }, 
	{ NOTE_D4, 267 }, 
	{ NOTE_E3, 134 }, 
	{ NOTE_G3, 134 }, 
	{ NOTE_E3, 134 }, 
	{ NOTE_G3, 134 }, 
	{ NOTE_A3, 134 }, 
	{ NOTE_G3, 134 }, 
	{ NOTE_A3, 134 }, 
	{ NOTE_G3, 134 }, 
	{ NOTE_AS3, 134 }, 
	{ NOTE_A3, 134 }, 
	{ NOTE_G3, 134 }, 
	{ NOTE_E3, 134 }, 
	{ NOTE_REST, 535 }, 
	{ NOTE_E3, 134 }, 
	{ NOTE_G3, 134 }, 
	{ NOTE_E3, 134 }, 
	{ NOTE_G3, 134 }, 
	{ NOTE_A3, 134 }, 
	{ NOTE_G3, 134 }, 
	{ NOTE_A3, 134 }, 
	{ NOTE_G3, 134 }, 
	{ NOTE_AS3, 134 }, 
	{ NOTE_G3, 134 }, 
	{ NOTE_A3, 134 }, 
	{ NOTE_G3, 134 }, 
	{ NOTE_A3, 134 }, 
	{ NOTE_B3, 134 }, 
	{ NOTE_D4, 267 }, 
	{ NOTE_E3, 134 }, 
	{ NOTE_G3, 134 }, 
	{ NOTE_E3, 134 }, 
	{ NOTE_G3, 134 }, 
	{ NOTE_A3, 134 }, 
	{ NOTE_G3, 134 }, 
	{ NOTE_A3, 134 }, 
	{ NOTE_G3, 134 }, 
	{ NOTE_AS3, 134 }, 
	{ NOTE_G3, 134 }, 
	{ NOTE_A3, 134 }, 
	{ NOTE_G3, 134 }, 
	{ NOTE_A3, 134 }, 
	{ NOTE_B3, 134 }, 
	{ NOTE_D4, 267 }, 
	{ NOTE_E3, 134 }, 
	{ NOTE_G3, 134 }, 
	{ NOTE_E3, 134 }, 
	{ NOTE_G3, 134 }, 
	{ NOTE_A3, 134 }, 
	{ NOTE_G3, 134 }, 
	{ NOTE_A3, 134 }, 
	{ NOTE_G3, 134 }, 
	{ NOTE_AS3, 134 }, 
	{ NOTE_G3, 134 }, 
	{ NOTE_A3, 134 }, 
	{ NOTE_G3, 134 }, 
	{ NOTE_A3, 134 }, 
	{ NOTE_B3, 134 }, 
	{ NOTE_D4, 267 }, 
	{ NOTE_E3, 134 }, 
	{ NOTE_G3, 134 }, 
	{ NOTE_E3, 134 }, 
	{ NOTE_G3, 134 }, 
	{ NOTE_A3, 134 }, 
	{ NOTE_G3, 134 }, 
	{ NOTE_A3, 134 }, 
	{ NOTE_G3, 134 }, 
	{ NOTE_AS3, 134 }, 
	{ NOTE_A3, 134 }, 
	{ NOTE_G3, 134 }, 
	{ NOTE_E3, 134 }, 
	{ NOTE_REST, 535 }, 
	{ NOTE_E3, 134 }, 
	{ NOTE_E3, 134 }, 
	{ NOTE_REST, 134 }, 
	{ NOTE_E3, 134 }, 
	{ NOTE_REST, 134 }, 
	{ NOTE_E3, 134 }, 
	{ NOTE_REST, 134 }, 
	{ NOTE_E3, 134 }, 
	{ NOTE_REST, 134 }, 
	{ NOTE_E3, 134 }, 
	{ NOTE_REST, 134 }, 
	{ NOTE_E3, 134 }, 
	{ NOTE_A3, 89 }, 
	{ NOTE_AS3, 89 }, 
	{ NOTE_B3, 89 }, 
	{ NOTE_D4, 268 }, 
	{ NOTE_E3, 134 }, 
	{ NOTE_E3, 134 }, 
	{ NOTE_REST, 134 }, 
	{ NOTE_E3, 134 }, 
	{ NOTE_REST, 134 }, 
	{ NOTE_E3, 134 }, 
	{ NOTE_REST, 134 }, 
	{ NOTE_E3, 134 }, 
	{ NOTE_REST, 134 }, 
	{ NOTE_E3, 134 }, 
	{ NOTE_REST, 134 }, 
	{ NOTE_E3, 134 }, 
	{ NOTE_A3, 89 }, 
	{ NOTE_AS3, 89 }, 
	{ NOTE_B3, 89 }, 
	{ NOTE_D4, 268 }, 
	{ NOTE_E3, 134 }, 
	{ NOTE_E3, 134 }, 
	{ NOTE_REST, 134 }, 
	{ NOTE_E3, 134 }, 
	{ NOTE_REST, 134 }, 
	{ NOTE_E3, 134 }, 
	{ NOTE_REST, 134 }, 
	{ NOTE_E3, 134 }, 
	{ NOTE_REST, 134 }, 
	{ NOTE_E3, 134 }, 
	{ NOTE_REST, 134 }, 
	{ NOTE_E3, 134 }, 
	{ NOTE_A3, 89 }, 
	{ NOTE_AS3, 89 }, 
	{ NOTE_B3, 89 }, 
	{ NOTE_D4, 268 }, 
	{ NOTE_E3, 134 }, 
	{ NOTE_E3, 134 }, 
	{ NOTE_REST, 134 }, 
	{ NOTE_E3, 134 }, 
	{ NOTE_REST, 134 }, 
	{ NOTE_E3, 134 }, 
	{ NOTE_REST, 134 }, 
	{ NOTE_E3, 134 }, 
	{ NOTE_A3, 89 }, 
	{ NOTE_AS3, 89 }, 
	{ NOTE_B3, 89 }, 
	{ NOTE_D4, 268 }, 
	{ NOTE_A3, 89 }, 
	{ NOTE_AS3, 89 }, 
	{ NOTE_B3, 89 }, 
	{ NOTE_D4, 269 }, 
	{ NOTE_E3, 134 }, 
	{ NOTE_E3, 134 }, 
	{ NOTE_REST, 134 }, 
	{ NOTE_E3, 134 }, 
	{ NOTE_REST, 134 }, 
	{ NOTE_E3, 134 }, 
	{ NOTE_REST, 134 }, 
	{ NOTE_E3, 134 }, 
	{ NOTE_REST, 134 }, 
	{ NOTE_E3, 134 }, 
	{ NOTE_REST, 134 }, 
	{ NOTE_E3, 134 }, 
	{ NOTE_A3, 89 }, 
	{ NOTE_AS3, 89 }, 
	{ NOTE_B3, 89 }, 
	{ NOTE_D4, 268 }, 
	{ NOTE_E3, 134 }, 
	{ NOTE_E3, 134 }, 
	{ NOTE_REST, 134 }, 
	{ NOTE_E3, 134 }, 
	{ NOTE_REST, 134 }, 
	{ NOTE_E3, 134 }, 
	{ NOTE_REST, 134 }, 
	{ NOTE_E3, 134 }, 
	{ NOTE_A3, 89 }, 
	{ NOTE_AS3, 89 }, 
	{ NOTE_A3, 89 }, 
	{ NOTE_G3, 134 }, 
	{ NOTE_G3, 134 }, 
	{ NOTE_A3, 89 }, 
	{ NOTE_AS3, 89 }, 
	{ NOTE_A3, 89 }, 
	{ NOTE_G3, 134 }, 
	{ NOTE_E3, 135 }, 
	{ NOTE_E3, 134 }, 
	{ NOTE_E3, 134 }, 
	{ NOTE_REST, 134 }, 
	{ NOTE_E3, 134 }, 
	{ NOTE_REST, 134 }, 
	{ NOTE_E3, 134 }, 
	{ NOTE_REST, 134 }, 
	{ NOTE_E3, 134 }, 
	{ NOTE_REST, 134 }, 
	{ NOTE_E3, 134 }, 
	{ NOTE_REST, 134 }, 
	{ NOTE_E3, 134 }, 
	{ NOTE_A3, 89 }, 
	{ NOTE_AS3, 89 }, 
	{ NOTE_B3, 89 }, 
	{ NOTE_D4, 268 }, 
	{ NOTE_E3, 134 }, 
	{ NOTE_E3, 134 }, 
	{ NOTE_REST, 134 }, 
	{ NOTE_E3, 134 }, 
	{ NOTE_REST, 134 }, 
	{ NOTE_E3, 134 }, 
	{ NOTE_REST, 134 }, 
	{ NOTE_E3, 134 }, 
	{ NOTE_A3, 89 }, 
	{ NOTE_AS3, 89 }, 
	{ NOTE_A3, 89 }, 
	{ NOTE_G3, 134 }, 
	{ NOTE_G3, 134 }, 
	{ NOTE_A3, 89 }, 
	{ NOTE_AS3, 89 }, 
	{ NOTE_A3, 89 }, 
	{ NOTE_G3, 134 }, 
	{ NOTE_E3, 135 }, 
	{ NOTE_E3, 134 }, 
	{ NOTE_E3, 134 }, 
	{ NOTE_REST, 134 }, 
	{ NOTE_E3, 134 }, 
	{ NOTE_REST, 134 }, 
	{ NOTE_E3, 134 }, 
	{ NOTE_REST, 134 }, 
	{ NOTE_E3, 134 }, 
	{ NOTE_REST, 134 }, 
	{ NOTE_E3, 134 }, 
	{ NOTE_REST, 134 }, 
	{ NOTE_E3, 134 }, 
	{ NOTE_E3, 134 }, 
	{ NOTE_E3, 134 }, 
	{ NOTE_E3, 134 }, 
	{ NOTE_REST, 133 }, 
	{ NOTE_E3, 134 }, 
	{ NOTE_E3, 134 }, 
	{ NOTE_REST, 134 }, 
	{ NOTE_E3, 134 }, 
	{ NOTE_REST, 134 }, 
	{ NOTE_E3, 134 }, 
	{ NOTE_REST, 134 }, 
	{ NOTE_E3, 134 }, 
	{ NOTE_REST, 134 }, 
	{ NOTE_E3, 134 }, 
	{ NOTE_REST, 134 }, 
	{ NOTE_E3, 134 }, 
	{ NOTE_A3, 89 }, 
	{ NOTE_AS3, 89 }, 
	{ NOTE_B3, 89 }, 
	{ NOTE_D4, 268 }, 
	{ NOTE_E3, 134 }, 
	{ NOTE_E3, 134 }, 
	{ NOTE_REST, 134 }, 
	{ NOTE_E3, 134 }, 
	{ NOTE_REST, 134 }, 
	{ NOTE_E3, 134 }, 
	{ NOTE_REST, 134 }, 
	{ NOTE_E3, 134 }, 
	{ NOTE_REST, 134 }, 
	{ NOTE_E3, 134 }, 
	{ NOTE_REST, 134 }, 
	{ NOTE_E3, 134 }, 
	{ NOTE_E3, 134 }, 
	{ NOTE_E3, 134 }, 
	{ NOTE_E3, 134 }, 
	{ NOTE_REST, 133 }, 
	{ NOTE_E3, 134 }, 
	{ NOTE_E3, 134 }, 
	{ NOTE_REST, 134 }, 
	{ NOTE_E3, 134 }, 
	{ NOTE_REST, 134 }, 
	{ NOTE_E3, 134 }, 
	{ NOTE_REST, 134 }, 
	{ NOTE_E3, 134 }, 
	{ NOTE_A3, 89 }, 
	{ NOTE_AS3, 89 }, 
	{ NOTE_B3, 89 }, 
	{ NOTE_G3, 134 }, 
	{ NOTE_G3, 134 }, 
	{ NOTE_A3, 89 }, 
	{ NOTE_AS3, 89 }, 
	{ NOTE_B3, 89 }, 
	{ NOTE_G3, 134 }, 
	{ NOTE_E3, 135 }, 
	{ NOTE_E3, 134 }, 
	{ NOTE_E3, 134 }, 
	{ NOTE_REST, 134 }, 
	{ NOTE_E3, 134 }, 
	{ NOTE_REST, 134 }, 
	{ NOTE_E3, 134 }, 
	{ NOTE_REST, 134 }, 
	{ NOTE_E3, 134 }, 
	{ NOTE_REST, 134 }, 
	{ NOTE_E3, 134 }, 
	{ NOTE_REST, 134 }, 
	{ NOTE_E3, 134 }, 
	{ NOTE_E3, 134 }, 
	{ NOTE_E3, 134 }, 
	{ NOTE_E3, 134 }, 
	{ NOTE_REST, 133 }, 
	{ NOTE_E3, 134 }, 
	{ NOTE_E3, 134 }, 
	{ NOTE_REST, 134 }, 
	{ NOTE_E3, 134 }, 
	{ NOTE_REST, 134 }, 
	{ NOTE_E3, 134 }, 
	{ NOTE_REST, 134 }, 
	{ NOTE_E3, 134 }, 
	{ NOTE_REST, 134 }, 
	{ NOTE_E3, 134 }, 
	{ NOTE_REST, 134 }, 
	{ NOTE_E3, 134 }, 
	{ NOTE_A3, 89 }, 
	{ NOTE_AS3, 89 }, 
	{ NOTE_B3, 89 }, 
	{ NOTE_D4, 268 }, 
	{ NOTE_E3, 134 }, 
	{ NOTE_E3, 134 }, 
	{ NOTE_REST, 134 }, 
	{ NOTE_E3, 134 }, 
	{ NOTE_REST, 134 }, 
	{ NOTE_E3, 134 }, 
	{ NOTE_REST, 134 }, 
	{ NOTE_E3, 134 }, 
	{ NOTE_REST, 134 }, 
	{ NOTE_E3, 134 }, 
	{ NOTE_REST, 134 }, 
	{ NOTE_E3, 134 }, 
	{ NOTE_E3, 134 }, 
	{ NOTE_E3, 134 }, 
	{ NOTE_E3, 134 }, 
	{ NOTE_REST, 133 }, 
	{ NOTE_E3, 134 }, 
	{ NOTE_E3, 134 }, 
	{ NOTE_REST, 134 }, 
	{ NOTE_E3, 134 }, 
	{ NOTE_REST, 134 }, 
	{ NOTE_E3, 134 }, 
	{ NOTE_REST, 134 }, 
	{ NOTE_E3, 134 }, 
	{ NOTE_A3, 89 }, 
	{ NOTE_AS3, 89 }, 
	{ NOTE_B3, 89 }, 
	{ NOTE_G3, 134 }, 
	{ NOTE_G3, 134 }, 
	{ NOTE_A3, 89 }, 
	{ NOTE_AS3, 89 }, 
	{ NOTE_B3, 89 }, 
	{ NOTE_G3, 134 }, 
	{ NOTE_E3, 135 }, 
	{ NOTE_D4, 134 }, 
	{ NOTE_G3, 134 }, 
	{ NOTE_G3, 134 }, 
	{ NOTE_G3, 134 }, 
	{ NOTE_G3, 134 }, 
	{ NOTE_G3, 134 }, 
	{ NOTE_G3, 134 }, 
	{ NOTE_G3, 134 }, 
	{ NOTE_D4, 134 }, 
	{ NOTE_G3, 134 }, 
	{ NOTE_G3, 134 }, 
	{ NOTE_GS3, 268 }, 
	{ NOTE_DS4, 401 }, 
	{ NOTE_D4, 134 }, 
	{ NOTE_G3, 134 }, 
	{ NOTE_G3, 134 }, 
	{ NOTE_G3, 134 }, 
	{ NOTE_G3, 134 }, 
	{ NOTE_G3, 134 }, 
	{ NOTE_G3, 134 }, 
	{ NOTE_G3, 134 }, 
	{ NOTE_G3, 134 }, 
	{ NOTE_F4, 402 }, 
	{ NOTE_E4, 268 }, 
	{ NOTE_DS4, 267 }, 
	{ NOTE_E3, 134 }, 
	{ NOTE_E3, 134 }, 
	{ NOTE_REST, 134 }, 
	{ NOTE_E3, 134 }, 
	{ NOTE_REST, 134 }, 
	{ NOTE_E3, 134 }, 
	{ NOTE_REST, 134 }, 
	{ NOTE_E3, 134 }, 
	{ NOTE_REST, 134 }, 
	{ NOTE_E3, 134 }, 
	{ NOTE_REST, 134 }, 
	{ NOTE_E3, 134 }, 
	{ NOTE_E3, 134 }, 
	{ NOTE_E3, 134 }, 
	{ NOTE_E3, 134 }, 
	{ NOTE_REST, 133 }, 
	{ NOTE_E3, 134 }, 
	{ NOTE_E3, 134 }, 
	{ NOTE_REST, 134 }, 
	{ NOTE_E3, 134 }, 
	{ NOTE_REST, 134 }, 
	{ NOTE_E3, 134 }, 
	{ NOTE_REST, 134 }, 
	{ NOTE_E3, 134 }, 
	{ NOTE_AS3, 134 }, 
	{ NOTE_A3, 134 }, 
	{ NOTE_G3, 134 }, 
	{ NOTE_E3, 134 }, 
	{ NOTE_REST, 535 }, 
	{ NOTE_E3, 134 }, 
	{ NOTE_G3, 134 }, 
	{ NOTE_E3, 134 }, 
	{ NOTE_G3, 134 }, 
	{ NOTE_A3, 134 }, 
	{ NOTE_G3, 134 }, 
	{ NOTE_A3, 134 }, 
	{ NOTE_G3, 134 }, 
	{ NOTE_AS3, 134 }, 
	{ NOTE_G3, 134 }, 
	{ NOTE_A3, 134 }, 
	{ NOTE_G3, 134 }, 
	{ NOTE_A3, 134 }, 
	{ NOTE_B3, 134 }, 
	{ NOTE_D4, 267 }, 
	{ NOTE_E3, 134 }, 
	{ NOTE_G3, 134 }, 
	{ NOTE_E3, 134 }, 
	{ NOTE_G3, 134 }, 
	{ NOTE_A3, 134 }, 
	{ NOTE_G3, 134 }, 
	{ NOTE_A3, 134 }, 
	{ NOTE_G3, 134 }, 
	{ NOTE_AS3, 134 }, 
	{ NOTE_G3, 134 }, 
	{ NOTE_A3, 134 }, 
	{ NOTE_G3, 134 }, 
	{ NOTE_A3, 134 }, 
	{ NOTE_B3, 134 }, 
	{ NOTE_D4, 267 }, 
	{ NOTE_E3, 134 }, 
	{ NOTE_G3, 134 }, 
	{ NOTE_E3, 134 }, 
	{ NOTE_G3, 134 }, 
	{ NOTE_A3, 134 }, 
	{ NOTE_G3, 134 }, 
	{ NOTE_A3, 134 }, 
	{ NOTE_G3, 134 }, 
	{ NOTE_AS3, 134 }, 
	{ NOTE_G3, 134 }, 
	{ NOTE_A3, 134 }, 
	{ NOTE_G3, 134 }, 
	{ NOTE_A3, 134 }, 
	{ NOTE_B3, 134 }, 
	{ NOTE_D4, 267 }, 
	{ NOTE_E3, 134 }, 
	{ NOTE_G3, 134 }, 
	{ NOTE_E3, 134 }, 
	{ NOTE_G3, 134 }, 
	{ NOTE_A3, 134 }, 
	{ NOTE_G3, 134 }, 
	{ NOTE_A3, 134 }, 
	{ NOTE_G3, 134 }, 
	{ NOTE_AS3, 134 }, 
	{ NOTE_A3, 134 }, 
	{ NOTE_G3, 134 }, 
	{ NOTE_E3, 134 }, 
	{ NOTE_REST, 535 }, 
	{ NOTE_E3, 134 }, 
	{ NOTE_G3, 134 }, 
	{ NOTE_E3, 134 }, 
	{ NOTE_G3, 134 }, 
	{ NOTE_A3, 134 }, 
	{ NOTE_G3, 134 }, 
	{ NOTE_A3, 134 }, 
	{ NOTE_G3, 134 }, 
	{ NOTE_AS3, 134 }, 
	{ NOTE_G3, 134 }, 
	{ NOTE_A3, 134 }, 
	{ NOTE_G3, 134 }, 
	{ NOTE_A3, 134 }, 
	{ NOTE_B3, 134 }, 
	{ NOTE_D4, 267 }, 
	{ NOTE_E3, 134 }, 
	{ NOTE_G3, 134 }, 
	{ NOTE_E3, 134 }, 
	{ NOTE_G3, 134 }, 
	{ NOTE_A3, 134 }, 
	{ NOTE_G3, 134 }, 
	{ NOTE_A3, 134 }, 
	{ NOTE_G3, 134 }, 
	{ NOTE_AS3, 134 }, 
	{ NOTE_G3, 134 }, 
	{ NOTE_A3, 134 }, 
	{ NOTE_G3, 134 }, 
	{ NOTE_A3, 134 }, 
	{ NOTE_B3, 134 }, 
	{ NOTE_D4, 267 }, 
	{ NOTE_E3, 134 }, 
	{ NOTE_G3, 134 }, 
	{ NOTE_E3, 134 }, 
	{ NOTE_G3, 134 }, 
	{ NOTE_A3, 134 }, 
	{ NOTE_G3, 134 }, 
	{ NOTE_A3, 134 }, 
	{ NOTE_G3, 134 }, 
	{ NOTE_AS3, 134 }, 
	{ NOTE_G3, 134 }, 
	{ NOTE_A3, 134 }, 
	{ NOTE_G3, 134 }, 
	{ NOTE_A3, 134 }, 
	{ NOTE_B3, 134 }, 
	{ NOTE_D4, 267 }, 
	{ NOTE_E3, 134 }, 
	{ NOTE_G3, 134 }, 
	{ NOTE_E3, 134 }, 
	{ NOTE_G3, 134 }, 
	{ NOTE_A3, 134 }, 
	{ NOTE_G3, 134 }, 
	{ NOTE_A3, 134 }, 
	{ NOTE_G3, 134 }, 
	{ NOTE_AS3, 134 }, 
	{ NOTE_A3, 134 }, 
	{ NOTE_G3, 134 }, 
	{ NOTE_E3, 134 }, 
	{ NOTE_REST, 535 }, 
	{ NOTE_E3, 134 }, 
	{ NOTE_E3, 134 }, 
	{ NOTE_REST, 134 }, 
	{ NOTE_E3, 134 }, 
	{ NOTE_REST, 134 }, 
	{ NOTE_E3, 134 }, 
	{ NOTE_REST, 134 }, 
	{ NOTE_E3, 134 }, 
	{ NOTE_REST, 134 }, 
	{ NOTE_E3, 134 }, 
	{ NOTE_REST, 134 }, 
	{ NOTE_E3, 134 }, 
	{ NOTE_A3, 89 }, 
	{ NOTE_AS3, 89 }, 
	{ NOTE_B3, 89 }, 
	{ NOTE_D4, 268 }, 
	{ NOTE_E3, 134 }, 
	{ NOTE_E3, 134 }, 
	{ NOTE_REST, 134 }, 
	{ NOTE_E3, 134 }, 
	{ NOTE_REST, 134 }, 
	{ NOTE_E3, 134 }, 
	{ NOTE_REST, 134 }, 
	{ NOTE_E3, 134 }, 
	{ NOTE_A3, 89 }, 
	{ NOTE_AS3, 89 }, 
	{ NOTE_B3, 89 }, 
	{ NOTE_D4, 268 }, 
	{ NOTE_A3, 89 }, 
	{ NOTE_AS3, 89 }, 
	{ NOTE_B3, 89 }, 
	{ NOTE_D4, 269 }, 
	{ NOTE_E3, 134 }, 
	{ NOTE_E3, 134 }, 
	{ NOTE_REST, 134 }, 
	{ NOTE_E3, 134 }, 
	{ NOTE_REST, 134 }, 
	{ NOTE_E3, 134 }, 
	{ NOTE_REST, 134 }, 
	{ NOTE_E3, 134 }, 
	{ NOTE_REST, 134 }, 
	{ NOTE_E3, 134 }, 
	{ NOTE_REST, 134 }, 
	{ NOTE_E3, 134 }, 
	{ NOTE_A3, 89 }, 
	{ NOTE_AS3, 89 }, 
	{ NOTE_B3, 89 }, 
	{ NOTE_D4, 268 }, 
	{ NOTE_E3, 134 }, 
	{ NOTE_E3, 134 }, 
	{ NOTE_REST, 134 }, 
	{ NOTE_E3, 134 }, 
	{ NOTE_REST, 134 }, 
	{ NOTE_E3, 134 }, 
	{ NOTE_REST, 134 }, 
	{ NOTE_E3, 134 }, 
	{ NOTE_A3, 89 }, 
	{ NOTE_AS3, 89 }, 
	{ NOTE_A3, 89 }, 
	{ NOTE_G3, 134 }, 
	{ NOTE_G3, 134 }, 
	{ NOTE_A3, 89 }, 
	{ NOTE_AS3, 89 }, 
	{ NOTE_A3, 89 }, 
	{ NOTE_G3, 134 }, 
	{ NOTE_E3, 135 }, 
	{ NOTE_E3, 134 }, 
	{ NOTE_E3, 134 }, 
	{ NOTE_REST, 134 }, 
	{ NOTE_E3, 134 }, 
	{ NOTE_REST, 134 }, 
	{ NOTE_E3, 134 }, 
	{ NOTE_REST, 134 }, 
	{ NOTE_E3, 134 }, 
	{ NOTE_REST, 134 }, 
	{ NOTE_E3, 134 }, 
	{ NOTE_REST, 134 }, 
	{ NOTE_E3, 134 }, 
	{ NOTE_A3, 89 }, 
	{ NOTE_AS3, 89 }, 
	{ NOTE_B3, 89 }, 
	{ NOTE_D4, 268 }, 
	{ NOTE_E3, 134 }, 
	{ NOTE_E3, 134 }, 
	{ NOTE_REST, 134 }, 
	{ NOTE_E3, 134 }, 
	{ NOTE_REST, 134 }, 
	{ NOTE_E3, 134 }, 
	{ NOTE_REST, 134 }, 
	{ NOTE_E3, 134 }, 
	{ NOTE_A3, 89 }, 
	{ NOTE_AS3, 89 }, 
	{ NOTE_A3, 89 }, 
	{ NOTE_G3, 134 }, 
	{ NOTE_G3, 134 }, 
	{ NOTE_A3, 89 }, 
	{ NOTE_AS3, 89 }, 
	{ NOTE_A3, 89 }, 
	{ NOTE_G3, 134 }, 
	{ NOTE_E3, 135 }, 
	{ NOTE_E3, 134 }, 
	{ NOTE_E3, 134 }, 
	{ NOTE_REST, 134 }, 
	{ NOTE_E3, 134 }, 
	{ NOTE_REST, 134 }, 
	{ NOTE_E3, 134 }, 
	{ NOTE_REST, 134 }, 
	{ NOTE_E3, 134 }, 
	{ NOTE_REST, 134 }, 
	{ NOTE_E3, 134 }, 
	{ NOTE_REST, 134 }, 
	{ NOTE_E3, 134 }, 
	{ NOTE_E3, 134 }, 
	{ NOTE_E3, 134 }, 
	{ NOTE_E3, 134 }, 
	{ NOTE_REST, 133 }, 
	{ NOTE_E3, 134 }, 
	{ NOTE_E3, 134 }, 
	{ NOTE_REST, 134 }, 
	{ NOTE_E3, 134 }, 
	{ NOTE_REST, 134 }, 
	{ NOTE_E3, 134 }, 
	{ NOTE_REST, 134 }, 
	{ NOTE_E3, 134 }, 
	{ NOTE_REST, 134 }, 
	{ NOTE_E3, 134 }, 
	{ NOTE_REST, 134 }, 
	{ NOTE_E3, 134 }, 
	{ NOTE_A3, 89 }, 
	{ NOTE_AS3, 89 }, 
	{ NOTE_B3, 89 }, 
	{ NOTE_D4, 268 }, 
	{ NOTE_E3, 134 }, 
	{ NOTE_E3, 134 }, 
	{ NOTE_REST, 134 }, 
	{ NOTE_E3, 134 }, 
	{ NOTE_REST, 134 }, 
	{ NOTE_E3, 134 }, 
	{ NOTE_REST, 134 }, 
	{ NOTE_E3, 134 }, 
	{ NOTE_REST, 134 }, 
	{ NOTE_E3, 134 }, 
	{ NOTE_REST, 134 }, 
	{ NOTE_E3, 134 }, 
	{ NOTE_E3, 134 }, 
	{ NOTE_E3, 134 }, 
	{ NOTE_E3, 134 }, 
	{ NOTE_REST, 133 }, 
	{ NOTE_E3, 134 }, 
	{ NOTE_E3, 134 }, 
	{ NOTE_REST, 134 }, 
	{ NOTE_E3, 134 }, 
	{ NOTE_REST, 134 }, 
	{ NOTE_E3, 134 }, 
	{ NOTE_REST, 134 }, 
	{ NOTE_E3, 134 }, 
	{ NOTE_A3, 89 }, 
	{ NOTE_AS3, 89 }, 
	{ NOTE_B3, 89 }, 
	{ NOTE_G3, 134 }, 
	{ NOTE_G3, 134 }, 
	{ NOTE_A3, 89 }, 
	{ NOTE_AS3, 89 }, 
	{ NOTE_B3, 89 }, 
	{ NOTE_G3, 134 }, 
	{ NOTE_E3, 135 }, 
	{ NOTE_E3, 134 }, 
	{ NOTE_E3, 134 }, 
	{ NOTE_REST, 134 }, 
	{ NOTE_E3, 134 }, 
	{ NOTE_REST, 134 }, 
	{ NOTE_E3, 134 }, 
	{ NOTE_REST, 134 }, 
	{ NOTE_E3, 134 }, 
	{ NOTE_REST, 134 }, 
	{ NOTE_E3, 134 }, 
	{ NOTE_REST, 134 }, 
	{ NOTE_E3, 134 }, 
	{ NOTE_E3, 134 }, 
	{ NOTE_E3, 134 }, 
	{ NOTE_E3, 134 }, 
	{ NOTE_REST, 133 }, 
	{ NOTE_E3, 134 }, 
	{ NOTE_E3, 134 }, 
	{ NOTE_REST, 134 }, 
	{ NOTE_E3, 134 }, 
	{ NOTE_REST, 134 }, 
	{ NOTE_E3, 134 }, 
	{ NOTE_REST, 134 }, 
	{ NOTE_E3, 134 }, 
	{ NOTE_REST, 134 }, 
	{ NOTE_E3, 134 }, 
	{ NOTE_REST, 134 }, 
	{ NOTE_E3, 134 }, 
	{ NOTE_A3, 89 }, 
	{ NOTE_AS3, 89 }, 
	{ NOTE_B3, 89 }, 
	{ NOTE_D4, 268 }, 
	{ NOTE_E3, 134 }, 
	{ NOTE_E3, 134 }, 
	{ NOTE_REST, 134 }, 
	{ NOTE_E3, 134 }, 
	{ NOTE_REST, 134 }, 
	{ NOTE_E3, 134 }, 
	{ NOTE_REST, 134 }, 
	{ NOTE_E3, 134 }, 
	{ NOTE_REST, 134 }, 
	{ NOTE_E3, 134 }, 
	{ NOTE_REST, 134 }, 
	{ NOTE_E3, 134 }, 
	{ NOTE_E3, 134 }, 
	{ NOTE_E3, 134 }, 
	{ NOTE_E3, 134 }, 
	{ NOTE_REST, 133 }, 
	{ NOTE_E3, 134 }, 
	{ NOTE_E3, 134 }, 
	{ NOTE_REST, 134 }, 
	{ NOTE_E3, 134 }, 
	{ NOTE_REST, 134 }, 
	{ NOTE_E3, 134 }, 
	{ NOTE_REST, 134 }, 
	{ NOTE_E3, 134 }, 
	{ NOTE_A3, 89 }, 
	{ NOTE_AS3, 89 }, 
	{ NOTE_B3, 89 }, 
	{ NOTE_G3, 134 }, 
	{ NOTE_G3, 134 }, 
	{ NOTE_A3, 89 }, 
	{ NOTE_AS3, 89 }, 
	{ NOTE_B3, 89 }, 
	{ NOTE_G3, 134 }, 
	{ NOTE_E3, 135 }, 
	{ NOTE_D4, 134 }, 
	{ NOTE_G3, 134 }, 
	{ NOTE_G3, 134 }, 
	{ NOTE_G3, 134 }, 
	{ NOTE_G3, 134 }, 
	{ NOTE_G3, 134 }, 
	{ NOTE_G3, 134 }, 
	{ NOTE_G3, 134 }, 
	{ NOTE_D4, 134 }, 
	{ NOTE_G3, 134 }, 
	{ NOTE_G3, 134 }, 
	{ NOTE_GS3, 268 }, 
	{ NOTE_DS4, 401 }, 
	{ NOTE_D4, 134 }, 
	{ NOTE_G3, 134 }, 
	{ NOTE_G3, 134 }, 
	{ NOTE_G3, 134 }, 
	{ NOTE_G3, 134 }, 
	{ NOTE_G3, 134 }, 
	{ NOTE_G3, 134 }, 
	{ NOTE_G3, 134 }, 
	{ NOTE_G3, 134 }, 
	{ NOTE_F4, 402 }, 
	{ NOTE_E4, 268 }, 
	{ NOTE_DS4, 267 }, 
	{ NOTE_E3, 134 }, 
	{ NOTE_E3, 134 }, 
	{ NOTE_REST, 134 }, 
	{ NOTE_E3, 134 }, 
	{ NOTE_REST, 134 }, 
	{ NOTE_E3, 134 }, 
	{ NOTE_REST, 134 }, 
	{ NOTE_E3, 134 }, 
	{ NOTE_REST, 134 }, 
	{ NOTE_E3, 134 }, 
	{ NOTE_REST, 134 }, 
	{ NOTE_E3, 134 }, 
	{ NOTE_E3, 134 }, 
	{ NOTE_E3, 134 }, 
	{ NOTE_E3, 134 }, 
	{ NOTE_REST, 133 }, 
	{ NOTE_E3, 134 }, 
	{ NOTE_E3, 134 }, 
	{ NOTE_REST, 134 }, 
	{ NOTE_E3, 134 }, 
	{ NOTE_REST, 134 }, 
	{ NOTE_E3, 134 }, 
	{ NOTE_REST, 134 }, 
	{ NOTE_E3, 134 }, 
	{ NOTE_AS3, 134 }, 
	{ NOTE_A3, 134 }, 
	{ NOTE_G3, 134 }, 
	{ NOTE_E3, 134 }, 
	{ NOTE_REST, 535 }, 
	{ NOTE_E3, 134 }, 
	{ NOTE_G3, 134 }, 
	{ NOTE_E3, 134 }, 
	{ NOTE_G3, 134 }, 
	{ NOTE_A3, 134 }, 
	{ NOTE_G3, 134 }, 
	{ NOTE_A3, 134 }, 
	{ NOTE_G3, 134 }, 
	{ NOTE_AS3, 134 }, 
	{ NOTE_G3, 134 }, 
	{ NOTE_A3, 134 }, 
	{ NOTE_G3, 134 }, 
	{ NOTE_A3, 134 }, 
	{ NOTE_B3, 134 }, 
	{ NOTE_D4, 267 }, 
	{ NOTE_E3, 134 }, 
	{ NOTE_G3, 134 }, 
	{ NOTE_E3, 134 }, 
	{ NOTE_G3, 134 }, 
	{ NOTE_A3, 134 }, 
	{ NOTE_G3, 134 }, 
	{ NOTE_A3, 134 }, 
	{ NOTE_G3, 134 }, 
	{ NOTE_AS3, 134 }, 
	{ NOTE_G3, 134 }, 
	{ NOTE_A3, 134 }, 
	{ NOTE_G3, 134 }, 
	{ NOTE_A3, 134 }, 
	{ NOTE_B3, 134 }, 
	{ NOTE_D4, 267 }, 
	{ NOTE_E3, 134 }, 
	{ NOTE_G3, 134 }, 
	{ NOTE_E3, 134 }, 
	{ NOTE_G3, 134 }, 
	{ NOTE_A3, 134 }, 
	{ NOTE_G3, 134 }, 
	{ NOTE_A3, 134 }, 
	{ NOTE_G3, 134 }, 
	{ NOTE_AS3, 134 }, 
	{ NOTE_G3, 134 }, 
	{ NOTE_A3, 134 }, 
	{ NOTE_G3, 134 }, 
	{ NOTE_A3, 134 }, 
	{ NOTE_B3, 134 }, 
	{ NOTE_D4, 267 }, 
	{ NOTE_E3, 134 }, 
	{ NOTE_G3, 134 }, 
	{ NOTE_E3, 134 }, 
	{ NOTE_G3, 134 }, 
	{ NOTE_A3, 134 }, 
	{ NOTE_G3, 134 }, 
	{ NOTE_A3, 134 }, 
	{ NOTE_G3, 134 }, 
	{ NOTE_AS3, 134 }, 
	{ NOTE_A3, 134 }, 
	{ NOTE_G3, 134 }, 
	{ NOTE_E3, 134 }, 
	{ NOTE_REST, 535 }, 
	{ NOTE_E3, 134 }, 
	{ NOTE_G3, 134 }, 
	{ NOTE_E3, 134 }, 
	{ NOTE_G3, 134 }, 
	{ NOTE_A3, 134 }, 
	{ NOTE_G3, 134 }, 
	{ NOTE_A3, 134 }, 
	{ NOTE_G3, 134 }, 
	{ NOTE_AS3, 134 }, 
	{ NOTE_G3, 134 }, 
	{ NOTE_A3, 134 }, 
	{ NOTE_G3, 134 }, 
	{ NOTE_A3, 134 }, 
	{ NOTE_B3, 134 }, 
	{ NOTE_D4, 267 }, 
	{ NOTE_E3, 134 }, 
	{ NOTE_G3, 134 }, 
	{ NOTE_E3, 134 }, 
	{ NOTE_G3, 134 }, 
	{ NOTE_A3, 134 }, 
	{ NOTE_G3, 134 }, 
	{ NOTE_A3, 134 }, 
	{ NOTE_G3, 134 }, 
	{ NOTE_AS3, 134 }, 
	{ NOTE_G3, 134 }, 
	{ NOTE_A3, 134 }, 
	{ NOTE_G3, 134 }, 
	{ NOTE_A3, 134 }, 
	{ NOTE_B3, 134 }, 
	{ NOTE_D4, 267 }, 
	{ NOTE_E3, 134 }, 
	{ NOTE_G3, 134 }, 
	{ NOTE_E3, 134 }, 
	{ NOTE_G3, 134 }, 
	{ NOTE_A3, 134 }, 
	{ NOTE_G3, 134 }, 
	{ NOTE_A3, 134 }, 
	{ NOTE_G3, 134 }, 
	{ NOTE_AS3, 134 }, 
	{ NOTE_G3, 134 }, 
	{ NOTE_A3, 134 }, 
	{ NOTE_G3, 134 }, 
	{ NOTE_A3, 134 }, 
	{ NOTE_B3, 134 }, 
	{ NOTE_D4, 267 }, 
	{ NOTE_E3, 134 }, 
	{ NOTE_G3, 134 }, 
	{ NOTE_E3, 134 }, 
	{ NOTE_G3, 134 }, 
	{ NOTE_A3, 134 }, 
	{ NOTE_G3, 134 }, 
	{ NOTE_A3, 134 }, 
	{ NOTE_G3, 134 }, 
	{ NOTE_E3, 134 }, 
	{ NOTE_D4, 402 }, 
	{ NOTE_CS4, 268 }, 
	{ NOTE_C4, 267 }, 
	{ NOTE_E3, 268 }, 
	{ NOTE_E3, 268 }, 
	{ NOTE_E4, 1607 }, 
	{ NOTE_C4, 268 }, 
	{ NOTE_C4, 268 }, 
	{ NOTE_G4, 1607 }, 
	{ NOTE_CS4, 268 }, 
	{ NOTE_CS4, 268 }, 
	{ NOTE_A4, 1607 }, 
	{ NOTE_D4, 268 }, 
	{ NOTE_D4, 268 }, 
	{ NOTE_A4, 536 }, 
	{ NOTE_REST, 134 }, 
	{ NOTE_D4, 402 }, 
	{ NOTE_CS4, 268 }, 
	{ NOTE_B3, 267 }, 
	{ NOTE_REST, 268 }, 
	{ NOTE_E4, 1875 }, 
	{ NOTE_REST, 268 }, 
	{ NOTE_E4, 1875 }, 
	{ NOTE_REST, 268 }, 
	{ NOTE_E4, 1875 }, 
	{ NOTE_REST, 268 }, 
	{ NOTE_A4, 804 }, 
	{ NOTE_REST, 134 }, 
	{ NOTE_D4, 402 }, 
	{ NOTE_CS4, 268 }, 
	{ NOTE_B3, 267 }, 
	{ NOTE_REST, 268 }, 
	{ NOTE_E4, 1875 }, 
	{ NOTE_REST, 268 }, 
	{ NOTE_E4, 1875 }, 
	{ NOTE_REST, 268 }, 
	{ NOTE_E4, 1875 }, 
	{ NOTE_REST, 268 }, 
	{ NOTE_A4, 804 }, 
	{ NOTE_REST, 134 }, 
	{ NOTE_D4, 402 }, 
	{ NOTE_CS4, 268 }, 
	{ NOTE_B3, 267 }, 
	{ NOTE_REST, 268 }, 
	{ NOTE_E4, 1875 }, 
	{ NOTE_REST, 268 }, 
	{ NOTE_E4, 1875 }, 
	{ NOTE_REST, 268 }, 
	{ NOTE_E4, 1875 }, 
	{ NOTE_REST, 268 }, 
	{ NOTE_A4, 804 }, 
	{ NOTE_REST, 134 }, 
	{ NOTE_D4, 402 }, 
	{ NOTE_CS4, 268 }, 
	{ NOTE_B3, 267 }, 
	{ NOTE_E4, 134 }, 
	{ NOTE_D4, 134 }, 
	{ NOTE_E3, 134 }, 
	{ NOTE_E3, 134 }, 
	{ NOTE_E3, 134 }, 
	{ NOTE_E3, 134 }, 
	{ NOTE_E3, 134 }, 
	{ NOTE_E3, 134 }, 
	{ NOTE_E4, 134 }, 
	{ NOTE_D4, 134 }, 
	{ NOTE_G5, 536 }, 
	{ NOTE_E3, 134 }, 
	{ NOTE_E3, 133 }, 
	{ NOTE_E4, 134 }, 
	{ NOTE_D4, 134 }, 
	{ NOTE_E3, 134 }, 
	{ NOTE_E3, 134 }, 
	{ NOTE_E3, 134 }, 
	{ NOTE_E3, 134 }, 
	{ NOTE_E3, 134 }, 
	{ NOTE_E3, 134 }, 
	{ NOTE_E4, 134 }, 
	{ NOTE_D4, 134 }, 
	{ NOTE_A5, 536 }, 
	{ NOTE_E3, 134 }, 
	{ NOTE_E3, 133 }, 
	{ NOTE_E4, 134 }, 
	{ NOTE_D4, 134 }, 
	{ NOTE_E3, 134 }, 
	{ NOTE_E3, 134 }, 
	{ NOTE_E4, 134 }, 
	{ NOTE_D4, 134 }, 
	{ NOTE_E3, 134 }, 
	{ NOTE_E3, 134 }, 
	{ NOTE_E4, 134 }, 
	{ NOTE_D4, 134 }, 
	{ NOTE_G5, 536 }, 
	{ NOTE_A3, 134 }, 
	{ NOTE_A3, 133 }, 
	{ NOTE_A5, 134 }, 
	{ NOTE_G5, 134 }, 
	{ NOTE_E5, 134 }, 
	{ NOTE_G5, 134 }, 
	{ NOTE_FS5, 134 }, 
	{ NOTE_D5, 134 }, 
	{ NOTE_FS5, 134 }, 
	{ NOTE_E5, 134 }, 
	{ NOTE_CS5, 134 }, 
	{ NOTE_E5, 134 }, 
	{ NOTE_D5, 134 }, 
	{ NOTE_B4, 134 }, 
	{ NOTE_D5, 134 }, 
	{ NOTE_CS5, 134 }, 
	{ NOTE_A4, 267 }, 
	{ NOTE_E4, 134 }, 
	{ NOTE_D4, 134 }, 
	{ NOTE_E3, 134 }, 
	{ NOTE_E3, 134 }, 
	{ NOTE_E4, 134 }, 
	{ NOTE_D4, 134 }, 
	{ NOTE_E3, 134 }, 
	{ NOTE_E3, 134 }, 
	{ NOTE_E4, 134 }, 
	{ NOTE_D4, 134 }, 
	{ NOTE_G5, 536 }, 
	{ NOTE_E3, 134 }, 
	{ NOTE_E3, 133 }, 
	{ NOTE_E4, 134 }, 
	{ NOTE_D4, 134 }, 
	{ NOTE_E3, 134 }, 
	{ NOTE_E3, 134 }, 
	{ NOTE_E4, 134 }, 
	{ NOTE_D4, 134 }, 
	{ NOTE_E3, 134 }, 
	{ NOTE_E3, 134 }, 
	{ NOTE_E4, 134 }, 
	{ NOTE_D4, 134 }, 
	{ NOTE_A5, 803 }, 
	{ NOTE_E4, 134 }, 
	{ NOTE_D4, 134 }, 
	{ NOTE_E3, 134 }, 
	{ NOTE_E3, 134 }, 
	{ NOTE_E4, 134 }, 
	{ NOTE_D4, 134 }, 
	{ NOTE_E3, 134 }, 
	{ NOTE_E3, 134 }, 
	{ NOTE_E4, 134 }, 
	{ NOTE_D4, 134 }, 
	{ NOTE_G5, 536 }, 
	{ NOTE_A3, 134 }, 
	{ NOTE_A3, 133 }, 
	{ NOTE_A6, 134 }, 
	{ NOTE_G6, 134 }, 
	{ NOTE_E6, 134 }, 
	{ NOTE_G6, 134 }, 
	{ NOTE_FS6, 134 }, 
	{ NOTE_D6, 134 }, 
	{ NOTE_FS6, 134 }, 
	{ NOTE_E6, 134 }, 
	{ NOTE_CS6, 134 }, 
	{ NOTE_E6, 134 }, 
	{ NOTE_D6, 134 }, 
	{ NOTE_B5, 134 }, 
	{ NOTE_D6, 134 }, 
	{ NOTE_CS6, 134 }, 
	{ NOTE_A5, 267 }, 
	{ NOTE_E4, 134 }, 
	{ NOTE_G4, 134 }, 
	{ NOTE_E4, 134 }, 
	{ NOTE_G4, 134 }, 
	{ NOTE_A4, 134 }, 
	{ NOTE_G4, 134 }, 
	{ NOTE_A4, 134 }, 
	{ NOTE_G4, 134 }, 
	{ NOTE_AS4, 134 }, 
	{ NOTE_G4, 134 }, 
	{ NOTE_A4, 134 }, 
	{ NOTE_G4, 134 }, 
	{ NOTE_A4, 134 }, 
	{ NOTE_B4, 134 }, 
	{ NOTE_D5, 134 }, 
	{ NOTE_REST, 133 }, 
	{ NOTE_E4, 134 }, 
	{ NOTE_G4, 134 }, 
	{ NOTE_E4, 134 }, 
	{ NOTE_G4, 134 }, 
	{ NOTE_A4, 134 }, 
	{ NOTE_G4, 134 }, 
	{ NOTE_A4, 134 }, 
	{ NOTE_G4, 134 }, 
	{ NOTE_AS4, 134 }, 
	{ NOTE_G4, 134 }, 
	{ NOTE_A4, 134 }, 
	{ NOTE_G4, 134 }, 
	{ NOTE_A4, 134 }, 
	{ NOTE_B4, 134 }, 
	{ NOTE_D5, 134 }, 
	{ NOTE_REST, 133 }, 
	{ NOTE_E4, 134 }, 
	{ NOTE_G4, 134 }, 
	{ NOTE_E4, 134 }, 
	{ NOTE_G4, 134 }, 
	{ NOTE_A4, 134 }, 
	{ NOTE_G4, 134 }, 
	{ NOTE_A4, 134 }, 
	{ NOTE_G4, 134 }, 
	{ NOTE_AS4, 134 }, 
	{ NOTE_G4, 134 }, 
	{ NOTE_A4, 134 }, 
	{ NOTE_G4, 134 }, 
	{ NOTE_A4, 134 }, 
	{ NOTE_B4, 134 }, 
	{ NOTE_D5, 134 }, 
	{ NOTE_REST, 133 }, 
	{ NOTE_E4, 134 }, 
	{ NOTE_G4, 134 }, 
	{ NOTE_E4, 134 }, 
	{ NOTE_G4, 134 }, 
	{ NOTE_A4, 134 }, 
	{ NOTE_G4, 134 }, 
	{ NOTE_A4, 134 }, 
	{ NOTE_G4, 134 }, 
	{ NOTE_AS4, 134 }, 
	{ NOTE_A4, 134 }, 
	{ NOTE_G4, 134 }, 
	{ NOTE_E4, 669 }, 
	{ NOTE_E3, 134 }, 
	{ NOTE_G3, 134 }, 
	{ NOTE_E3, 134 }, 
	{ NOTE_G3, 134 }, 
	{ NOTE_A3, 134 }, 
	{ NOTE_G3, 134 }, 
	{ NOTE_A3, 134 }, 
	{ NOTE_G3, 134 }, 
	{ NOTE_AS3, 134 }, 
	{ NOTE_G3, 134 }, 
	{ NOTE_A3, 134 }, 
	{ NOTE_G3, 134 }, 
	{ NOTE_A3, 134 }, 
	{ NOTE_B3, 134 }, 
	{ NOTE_D4, 267 }, 
	{ NOTE_E3, 134 }, 
	{ NOTE_G3, 134 }, 
	{ NOTE_E3, 134 }, 
	{ NOTE_G3, 134 }, 
	{ NOTE_A3, 134 }, 
	{ NOTE_G3, 134 }, 
	{ NOTE_A3, 134 }, 
	{ NOTE_G3, 134 }, 
	{ NOTE_AS3, 134 }, 
	{ NOTE_G3, 134 }, 
	{ NOTE_A3, 134 }, 
	{ NOTE_G3, 134 }, 
	{ NOTE_A3, 134 }, 
	{ NOTE_B3, 134 }, 
	{ NOTE_D4, 267 }, 
	{ NOTE_E3, 134 }, 
	{ NOTE_G3, 134 }, 
	{ NOTE_E3, 134 }, 
	{ NOTE_G3, 134 }, 
	{ NOTE_A3, 134 }, 
	{ NOTE_G3, 134 }, 
	{ NOTE_A3, 134 }, 
	{ NOTE_G3, 134 }, 
	{ NOTE_AS3, 134 }, 
	{ NOTE_G3, 134 }, 
	{ NOTE_A3, 134 }, 
	{ NOTE_G3, 134 }, 
	{ NOTE_A3, 134 }, 
	{ NOTE_B3, 134 }, 
	{ NOTE_D4, 267 }, 
	{ NOTE_E3, 134 }, 
	{ NOTE_G3, 134 }, 
	{ NOTE_E3, 134 }, 
	{ NOTE_G3, 134 }, 
	{ NOTE_A3, 134 }, 
	{ NOTE_G3, 134 }, 
	{ NOTE_A3, 134 }, 
	{ NOTE_G3, 134 }, 
	{ NOTE_AS3, 134 }, 
	{ NOTE_A3, 134 }, 
	{ NOTE_G3, 134 }, 
	{ NOTE_E3, 134 }, 
	{ NOTE_REST, 535 }, 
	{ NOTE_E3, 134 }, 
	{ NOTE_G3, 134 }, 
	{ NOTE_E3, 134 }, 
	{ NOTE_G3, 134 }, 
	{ NOTE_A3, 134 }, 
	{ NOTE_G3, 134 }, 
	{ NOTE_A3, 134 }, 
	{ NOTE_G3, 134 }, 
	{ NOTE_AS3, 134 }, 
	{ NOTE_G3, 134 }, 
	{ NOTE_A3, 134 }, 
	{ NOTE_G3, 134 }, 
	{ NOTE_A3, 134 }, 
	{ NOTE_B3, 134 }, 
	{ NOTE_D4, 267 }, 
	{ NOTE_E3, 134 }, 
	{ NOTE_G3, 134 }, 
	{ NOTE_E3, 134 }, 
	{ NOTE_G3, 134 }, 
	{ NOTE_A3, 134 }, 
	{ NOTE_G3, 134 }, 
	{ NOTE_A3, 134 }, 
	{ NOTE_G3, 134 }, 
	{ NOTE_AS3, 134 }, 
	{ NOTE_G3, 134 }, 
	{ NOTE_A3, 134 }, 
	{ NOTE_G3, 134 }, 
	{ NOTE_A3, 134 }, 
	{ NOTE_B3, 134 }, 
	{ NOTE_D4, 267 }, 
	{ NOTE_E3, 134 }, 
	{ NOTE_G3, 134 }, 
	{ NOTE_E3, 134 }, 
	{ NOTE_G3, 134 }, 
	{ NOTE_A3, 134 }, 
	{ NOTE_G3, 134 }, 
	{ NOTE_A3, 134 }, 
	{ NOTE_G3, 134 }, 
	{ NOTE_AS3, 134 }, 
	{ NOTE_G3, 134 }, 
	{ NOTE_A3, 134 }, 
	{ NOTE_G3, 134 }, 
	{ NOTE_A3, 134 }, 
	{ NOTE_B3, 134 }, 
	{ NOTE_D4, 267 }, 
	{ NOTE_E3, 134 }, 
	{ NOTE_G3, 134 }, 
	{ NOTE_E3, 134 }, 
	{ NOTE_G3, 134 }, 
	{ NOTE_A3, 134 }, 
	{ NOTE_G3, 134 }, 
	{ NOTE_A3, 134 }, 
	{ NOTE_G3, 134 }, 
	{ NOTE_AS3, 134 }, 
	{ NOTE_A3, 134 }, 
	{ NOTE_G3, 134 }, 
	{ NOTE_E3, 134 }, 
	{ NOTE_REST, 535 }, 
	{ NOTE_E3, 134 }, 
	{ NOTE_G3, 134 }, 
	{ NOTE_E3, 134 }, 
	{ NOTE_G3, 134 }, 
	{ NOTE_A3, 134 }, 
	{ NOTE_G3, 134 }, 
	{ NOTE_A3, 134 }, 
	{ NOTE_G3, 134 }, 
	{ NOTE_AS3, 134 }, 
	{ NOTE_G3, 134 }, 
	{ NOTE_A3, 134 }, 
	{ NOTE_G3, 134 }, 
	{ NOTE_A3, 134 }, 
	{ NOTE_B3, 134 }, 
	{ NOTE_D4, 267 }, 
	{ NOTE_E3, 134 }, 
	{ NOTE_G3, 134 }, 
	{ NOTE_E3, 134 }, 
	{ NOTE_G3, 134 }, 
	{ NOTE_A3, 134 }, 
	{ NOTE_G3, 134 }, 
	{ NOTE_A3, 134 }, 
	{ NOTE_G3, 134 }, 
	{ NOTE_AS3, 134 }, 
	{ NOTE_A3, 134 }, 
	{ NOTE_G3, 134 }, 
	{ NOTE_E3, 134 }, 
	{ NOTE_REST, 535 }, 
	{ NOTE_E4, 134 }, 
	{ NOTE_D4, 134 }, 
	{ NOTE_E3, 134 }, 
	{ NOTE_E3, 134 }, 
	{ NOTE_E3, 134 }, 
	{ NOTE_E3, 134 }, 
	{ NOTE_E3, 134 }, 
	{ NOTE_E3, 134 }, 
	{ NOTE_E4, 134 }, 
	{ NOTE_D4, 134 }, 
	{ NOTE_G5, 536 }, 
	{ NOTE_E3, 134 }, 
	{ NOTE_E3, 133 }, 
	{ NOTE_E4, 134 }, 
	{ NOTE_D4, 134 }, 
	{ NOTE_E3, 134 }, 
	{ NOTE_E3, 134 }, 
	{ NOTE_E3, 134 }, 
	{ NOTE_E3, 134 }, 
	{ NOTE_E3, 134 }, 
	{ NOTE_E3, 134 }, 
	{ NOTE_E4, 134 }, 
	{ NOTE_D4, 134 }, 
	{ NOTE_A5, 536 }, 
	{ NOTE_E3, 134 }, 
	{ NOTE_E3, 133 }, 
	{ NOTE_E4, 134 }, 
	{ NOTE_D4, 134 }, 
	{ NOTE_E3, 134 }, 
	{ NOTE_E3, 134 }, 
	{ NOTE_E4, 134 }, 
	{ NOTE_D4, 134 }, 
	{ NOTE_E3, 134 }, 
	{ NOTE_E3, 134 }, 
	{ NOTE_E4, 134 }, 
	{ NOTE_D4, 134 }, 
	{ NOTE_G5, 536 }, 
	{ NOTE_A3, 134 }, 
	{ NOTE_A3, 133 }, 
	{ NOTE_A5, 134 }, 
	{ NOTE_G5, 134 }, 
	{ NOTE_E5, 134 }, 
	{ NOTE_G5, 134 }, 
	{ NOTE_FS5, 134 }, 
	{ NOTE_D5, 134 }, 
	{ NOTE_FS5, 134 }, 
	{ NOTE_E5, 134 }, 
	{ NOTE_CS5, 134 }, 
	{ NOTE_E5, 134 }, 
	{ NOTE_D5, 134 }, 
	{ NOTE_B4, 134 }, 
	{ NOTE_D5, 134 }, 
	{ NOTE_CS5, 134 }, 
	{ NOTE_A4, 267 }, 
	{ NOTE_E4, 134 }, 
	{ NOTE_D4, 134 }, 
	{ NOTE_E3, 134 }, 
	{ NOTE_E3, 134 }, 
	{ NOTE_E4, 134 }, 
	{ NOTE_D4, 134 }, 
	{ NOTE_E3, 134 }, 
	{ NOTE_E3, 134 }, 
	{ NOTE_E4, 134 }, 
	{ NOTE_D4, 134 }, 
	{ NOTE_G5, 536 }, 
	{ NOTE_E3, 134 }, 
	{ NOTE_E3, 133 }, 
	{ NOTE_E4, 134 }, 
	{ NOTE_D4, 134 }, 
	{ NOTE_E3, 134 }, 
	{ NOTE_E3, 134 }, 
	{ NOTE_E4, 134 }, 
	{ NOTE_D4, 134 }, 
	{ NOTE_E3, 134 }, 
	{ NOTE_E3, 134 }, 
	{ NOTE_E4, 134 }, 
	{ NOTE_D4, 134 }, 
	{ NOTE_A5, 803 }, 
	{ NOTE_E4, 134 }, 
	{ NOTE_D4, 134 }, 
	{ NOTE_E3, 134 }, 
	{ NOTE_E3, 134 }, 
	{ NOTE_E4, 134 }, 
	{ NOTE_D4, 134 }, 
	{ NOTE_E3, 134 }, 
	{ NOTE_E3, 134 }, 
	{ NOTE_E4, 134 }, 
	{ NOTE_D4, 134 }, 
	{ NOTE_G5, 536 }, 
	{ NOTE_A3, 134 }, 
	{ NOTE_A3, 133 }, 
	{ NOTE_A6, 134 }, 
	{ NOTE_G6, 134 }, 
	{ NOTE_E6, 134 }, 
	{ NOTE_G6, 134 }, 
	{ NOTE_FS6, 134 }, 
	{ NOTE_D6, 134 }, 
	{ NOTE_FS6, 134 }, 
	{ NOTE_E6, 134 }, 
	{ NOTE_CS6, 134 }, 
	{ NOTE_E6, 134 }, 
	{ NOTE_D6, 134 }, 
	{ NOTE_B5, 134 }, 
	{ NOTE_D6, 134 }, 
	{ NOTE_CS6, 134 }, 
	{ NOTE_A5, 267 }, 
	{ NOTE_E3, 134 }, 
	{ NOTE_E3, 134 }, 
	{ NOTE_E3, 134 }, 
	{ NOTE_E3, 134 }, 
	{ NOTE_REST, 134 }, 
	{ NOTE_E3, 134 }, 
	{ NOTE_REST, 268 }, 
	{ NOTE_A3, 89 }, 
	{ NOTE_AS3, 89 }, 
	{ NOTE_A3, 89 }, 
	{ NOTE_G3, 268 }, 
	{ NOTE_G3, 134 }, 
	{ NOTE_B3, 134 }, 
	{ NOTE_REST, 268 }, 
};
const uint16_t NUM_OF_NOTES1 = sizeof(melody1)/sizeof(melody1[0]);

const Note melody2[] PROGMEM = {
	{ NOTE_REST, 2143 }, 
	{ NOTE_REST, 2143 }, 
	{ NOTE_REST, 2143 }, 
	{ NOTE_REST, 2143 }, 
	{ NOTE_E4, 134 }, 
	{ NOTE_G4, 134 }, 
	{ NOTE_E4, 134 }, 
	{ NOTE_G4, 134 }, 
	{ NOTE_A4, 134 }, 
	{ NOTE_G4, 134 }, 
	{ NOTE_A4, 134 }, 
	{ NOTE_G4, 134 }, 
	{ NOTE_AS4, 134 }, 
	{ NOTE_G4, 134 }, 
	{ NOTE_A4, 134 }, 
	{ NOTE_G4, 134 }, 
	{ NOTE_A4, 134 }, 
	{ NOTE_B4, 134 }, 
	{ NOTE_D5, 134 }, 
	{ NOTE_REST, 133 }, 
	{ NOTE_E4, 134 }, 
	{ NOTE_G4, 134 }, 
	{ NOTE_E4, 134 }, 
	{ NOTE_G4, 134 }, 
	{ NOTE_A4, 134 }, 
	{ NOTE_G4, 134 }, 
	{ NOTE_A4, 134 }, 
	{ NOTE_G4, 134 }, 
	{ NOTE_AS4, 134 }, 
	{ NOTE_G4, 134 }, 
	{ NOTE_A4, 134 }, 
	{ NOTE_G4, 134 }, 
	{ NOTE_A4, 134 }, 
	{ NOTE_B4, 134 }, 
	{ NOTE_D5, 134 }, 
	{ NOTE_REST, 133 }, 
	{ NOTE_E4, 134 }, 
	{ NOTE_G4, 134 }, 
	{ NOTE_E4, 134 }, 
	{ NOTE_G4, 134 }, 
	{ NOTE_A4, 134 }, 
	{ NOTE_G4, 134 }, 
	{ NOTE_A4, 134 }, 
	{ NOTE_G4, 134 }, 
	{ NOTE_AS4, 134 }, 
	{ NOTE_G4, 134 }, 
	{ NOTE_A4, 134 }, 
	{ NOTE_G4, 134 }, 
	{ NOTE_A4, 134 }, 
	{ NOTE_B4, 134 }, 
	{ NOTE_D5, 134 }, 
	{ NOTE_REST, 133 }, 
	{ NOTE_E4, 134 }, 
	{ NOTE_G4, 134 }, 
	{ NOTE_E4, 134 }, 
	{ NOTE_G4, 134 }, 
	{ NOTE_A4, 134 }, 
	{ NOTE_G4, 134 }, 
	{ NOTE_A4, 134 }, 
	{ NOTE_G4, 134 }, 
	{ NOTE_AS4, 134 }, 
	{ NOTE_A4, 134 }, 
	{ NOTE_G4, 134 }, 
	{ NOTE_E4, 669 }, 
	{ NOTE_E3, 134 }, 
	{ NOTE_G3, 134 }, 
	{ NOTE_E3, 134 }, 
	{ NOTE_G3, 134 }, 
	{ NOTE_A3, 134 }, 
	{ NOTE_G3, 134 }, 
	{ NOTE_A3, 134 }, 
	{ NOTE_G3, 134 }, 
	{ NOTE_AS3, 134 }, 
	{ NOTE_G3, 134 }, 
	{ NOTE_A3, 134 }, 
	{ NOTE_G3, 134 }, 
	{ NOTE_A3, 134 }, 
	{ NOTE_B3, 134 }, 
	{ NOTE_D4, 267 }, 
	{ NOTE_E3, 134 }, 
	{ NOTE_G3, 134 }, 
	{ NOTE_E3, 134 }, 
	{ NOTE_G3, 134 }, 
	{ NOTE_A3, 134 }, 
	{ NOTE_G3, 134 }, 
	{ NOTE_A3, 134 }, 
	{ NOTE_G3, 134 }, 
	{ NOTE_AS3, 134 }, 
	{ NOTE_G3, 134 }, 
	{ NOTE_A3, 134 }, 
	{ NOTE_G3, 134 }, 
	{ NOTE_A3, 134 }, 
	{ NOTE_B3, 134 }, 
	{ NOTE_D4, 267 }, 
	{ NOTE_E3, 134 }, 
	{ NOTE_G3, 134 }, 
	{ NOTE_E3, 134 }, 
	{ NOTE_G3, 134 }, 
	{ NOTE_A3, 134 }, 
	{ NOTE_G3, 134 }, 
	{ NOTE_A3, 134 }, 
	{ NOTE_G3, 134 }, 
	{ NOTE_AS3, 134 }, 
	{ NOTE_G3, 134 }, 
	{ NOTE_A3, 134 }, 
	{ NOTE_G3, 134 }, 
	{ NOTE_A3, 134 }, 
	{ NOTE_B3, 134 }, 
	{ NOTE_D4, 267 }, 
	{ NOTE_E3, 134 }, 
	{ NOTE_G3, 134 }, 
	{ NOTE_E3, 134 }, 
	{ NOTE_G3, 134 }, 
	{ NOTE_A3, 134 }, 
	{ NOTE_G3, 134 }, 
	{ NOTE_A3, 134 }, 
	{ NOTE_G3, 134 }, 
	{ NOTE_AS3, 134 }, 
	{ NOTE_A3, 134 }, 
	{ NOTE_G3, 134 }, 
	{ NOTE_E3, 134 }, 
	{ NOTE_REST, 535 }, 
	{ NOTE_E3, 134 }, 
	{ NOTE_G3, 134 }, 
	{ NOTE_E3, 134 }, 
	{ NOTE_G3, 134 }, 
	{ NOTE_A3, 134 }, 
	{ NOTE_G3, 134 }, 
	{ NOTE_A3, 134 }, 
	{ NOTE_G3, 134 }, 
	{ NOTE_AS3, 134 }, 
	{ NOTE_G3, 134 }, 
	{ NOTE_A3, 134 }, 
	{ NOTE_G3, 134 }, 
	{ NOTE_A3, 134 }, 
	{ NOTE_B3, 134 }, 
	{ NOTE_D4, 267 }, 
	{ NOTE_E3, 134 }, 
	{ NOTE_G3, 134 }, 
	{ NOTE_E3, 134 }, 
	{ NOTE_G3, 134 }, 
	{ NOTE_A3, 134 }, 
	{ NOTE_G3, 134 }, 
	{ NOTE_A3, 134 }, 
	{ NOTE_G3, 134 }, 
	{ NOTE_AS3, 134 }, 
	{ NOTE_G3, 134 }, 
	{ NOTE_A3, 134 }, 
	{ NOTE_G3, 134 }, 
	{ NOTE_A3, 134 }, 
	{ NOTE_B3, 134 }, 
	{ NOTE_D4, 267 }, 
	{ NOTE_E3, 134 }, 
	{ NOTE_G3, 134 }, 
	{ NOTE_E3, 134 }, 
	{ NOTE_G3, 134 }, 
	{ NOTE_A3, 134 }, 
	{ NOTE_G3, 134 }, 
	{ NOTE_A3, 134 }, 
	{ NOTE_G3, 134 }, 
	{ NOTE_AS3, 134 }, 
	{ NOTE_G3, 134 }, 
	{ NOTE_A3, 134 }, 
	{ NOTE_G3, 134 }, 
	{ NOTE_A3, 134 }, 
	{ NOTE_B3, 134 }, 
	{ NOTE_D4, 267 }, 
	{ NOTE_E3, 134 }, 
	{ NOTE_G3, 134 }, 
	{ NOTE_E3, 134 }, 
	{ NOTE_G3, 134 }, 
	{ NOTE_A3, 134 }, 
	{ NOTE_G3, 134 }, 
	{ NOTE_A3, 134 }, 
	{ NOTE_G3, 134 }, 
	{ NOTE_AS3, 134 }, 
	{ NOTE_A3, 134 }, 
	{ NOTE_G3, 134 }, 
	{ NOTE_E3, 134 }, 
	{ NOTE_REST, 535 }, 
	{ NOTE_E3, 134 }, 
	{ NOTE_E3, 134 }, 
	{ NOTE_REST, 134 }, 
	{ NOTE_E3, 134 }, 
	{ NOTE_REST, 134 }, 
	{ NOTE_E3, 134 }, 
	{ NOTE_REST, 134 }, 
	{ NOTE_E3, 134 }, 
	{ NOTE_REST, 134 }, 
	{ NOTE_E3, 134 }, 
	{ NOTE_REST, 134 }, 
	{ NOTE_E3, 134 }, 
	{ NOTE_A3, 89 }, 
	{ NOTE_AS3, 89 }, 
	{ NOTE_B3, 89 }, 
	{ NOTE_D4, 268 }, 
	{ NOTE_E3, 134 }, 
	{ NOTE_E3, 134 }, 
	{ NOTE_REST, 134 }, 
	{ NOTE_E3, 134 }, 
	{ NOTE_REST, 134 }, 
	{ NOTE_E3, 134 }, 
	{ NOTE_REST, 134 }, 
	{ NOTE_E3, 134 }, 
	{ NOTE_REST, 134 }, 
	{ NOTE_E3, 134 }, 
	{ NOTE_REST, 134 }, 
	{ NOTE_E3, 134 }, 
	{ NOTE_A3, 89 }, 
	{ NOTE_AS3, 89 }, 
	{ NOTE_B3, 89 }, 
	{ NOTE_D4, 268 }, 
	{ NOTE_E3, 134 }, 
	{ NOTE_E3, 134 }, 
	{ NOTE_REST, 134 }, 
	{ NOTE_E3, 134 }, 
	{ NOTE_REST, 134 }, 
	{ NOTE_E3, 134 }, 
	{ NOTE_REST, 134 }, 
	{ NOTE_E3, 134 }, 
	{ NOTE_REST, 134 }, 
	{ NOTE_E3, 134 }, 
	{ NOTE_REST, 134 }, 
	{ NOTE_E3, 134 }, 
	{ NOTE_A3, 89 }, 
	{ NOTE_AS3, 89 }, 
	{ NOTE_B3, 89 }, 
	{ NOTE_D4, 268 }, 
	{ NOTE_E3, 134 }, 
	{ NOTE_E3, 134 }, 
	{ NOTE_REST, 134 }, 
	{ NOTE_E3, 134 }, 
	{ NOTE_REST, 134 }, 
	{ NOTE_E3, 134 }, 
	{ NOTE_REST, 134 }, 
	{ NOTE_E3, 134 }, 
	{ NOTE_A3, 89 }, 
	{ NOTE_AS3, 89 }, 
	{ NOTE_B3, 89 }, 
	{ NOTE_D4, 268 }, 
	{ NOTE_A3, 89 }, 
	{ NOTE_AS3, 89 }, 
	{ NOTE_B3, 89 }, 
	{ NOTE_D4, 269 }, 
	{ NOTE_E3, 134 }, 
	{ NOTE_E3, 134 }, 
	{ NOTE_REST, 134 }, 
	{ NOTE_E3, 134 }, 
	{ NOTE_REST, 134 }, 
	{ NOTE_E3, 134 }, 
	{ NOTE_REST, 134 }, 
	{ NOTE_E3, 134 }, 
	{ NOTE_REST, 134 }, 
	{ NOTE_E3, 134 }, 
	{ NOTE_REST, 134 }, 
	{ NOTE_E3, 134 }, 
	{ NOTE_A3, 89 }, 
	{ NOTE_AS3, 89 }, 
	{ NOTE_B3, 89 }, 
	{ NOTE_D4, 268 }, 
	{ NOTE_E3, 134 }, 
	{ NOTE_E3, 134 }, 
	{ NOTE_REST, 134 }, 
	{ NOTE_E3, 134 }, 
	{ NOTE_REST, 134 }, 
	{ NOTE_E3, 134 }, 
	{ NOTE_REST, 134 }, 
	{ NOTE_E3, 134 }, 
	{ NOTE_A3, 89 }, 
	{ NOTE_AS3, 89 }, 
	{ NOTE_A3, 89 }, 
	{ NOTE_G3, 134 }, 
	{ NOTE_G3, 134 }, 
	{ NOTE_A3, 89 }, 
	{ NOTE_AS3, 89 }, 
	{ NOTE_A3, 89 }, 
	{ NOTE_G3, 134 }, 
	{ NOTE_E3, 135 }, 
	{ NOTE_E3, 134 }, 
	{ NOTE_E3, 134 }, 
	{ NOTE_REST, 134 }, 
	{ NOTE_E3, 134 }, 
	{ NOTE_REST, 134 }, 
	{ NOTE_E3, 134 }, 
	{ NOTE_REST, 134 }, 
	{ NOTE_E3, 134 }, 
	{ NOTE_REST, 134 }, 
	{ NOTE_E3, 134 }, 
	{ NOTE_REST, 134 }, 
	{ NOTE_E3, 134 }, 
	{ NOTE_A3, 89 }, 
	{ NOTE_AS3, 89 }, 
	{ NOTE_B3, 89 }, 
	{ NOTE_D4, 268 }, 
	{ NOTE_E3, 134 }, 
	{ NOTE_E3, 134 }, 
	{ NOTE_REST, 134 }, 
	{ NOTE_E3, 134 }, 
	{ NOTE_REST, 134 }, 
	{ NOTE_E3, 134 }, 
	{ NOTE_REST, 134 }, 
	{ NOTE_E3, 134 }, 
	{ NOTE_A3, 89 }, 
	{ NOTE_AS3, 89 }, 
	{ NOTE_A3, 89 }, 
	{ NOTE_G3, 134 }, 
	{ NOTE_G3, 134 }, 
	{ NOTE_A3, 89 }, 
	{ NOTE_AS3, 89 }, 
	{ NOTE_A3, 89 }, 
	{ NOTE_G3, 134 }, 
	{ NOTE_E3, 135 }, 
	{ NOTE_E3, 134 }, 
	{ NOTE_E3, 134 }, 
	{ NOTE_REST, 134 }, 
	{ NOTE_E3, 134 }, 
	{ NOTE_REST, 134 }, 
	{ NOTE_E3, 134 }, 
	{ NOTE_REST, 134 }, 
	{ NOTE_E3, 134 }, 
	{ NOTE_REST, 134 }, 
	{ NOTE_E3, 134 }, 
	{ NOTE_REST, 134 }, 
	{ NOTE_E3, 134 }, 
	{ NOTE_E3, 134 }, 
	{ NOTE_E3, 134 }, 
	{ NOTE_E3, 134 }, 
	{ NOTE_REST, 133 }, 
	{ NOTE_E3, 134 }, 
	{ NOTE_E3, 134 }, 
	{ NOTE_REST, 134 }, 
	{ NOTE_E3, 134 }, 
	{ NOTE_REST, 134 }, 
	{ NOTE_E3, 134 }, 
	{ NOTE_REST, 134 }, 
	{ NOTE_E3, 134 }, 
	{ NOTE_REST, 134 }, 
	{ NOTE_E3, 134 }, 
	{ NOTE_REST, 134 }, 
	{ NOTE_E3, 134 }, 
	{ NOTE_A3, 89 }, 
	{ NOTE_AS3, 89 }, 
	{ NOTE_B3, 89 }, 
	{ NOTE_D4, 268 }, 
	{ NOTE_E3, 134 }, 
	{ NOTE_E3, 134 }, 
	{ NOTE_REST, 134 }, 
	{ NOTE_E3, 134 }, 
	{ NOTE_REST, 134 }, 
	{ NOTE_E3, 134 }, 
	{ NOTE_REST, 134 }, 
	{ NOTE_E3, 134 }, 
	{ NOTE_REST, 134 }, 
	{ NOTE_E3, 134 }, 
	{ NOTE_REST, 134 }, 
	{ NOTE_E3, 134 }, 
	{ NOTE_E3, 134 }, 
	{ NOTE_E3, 134 }, 
	{ NOTE_E3, 134 }, 
	{ NOTE_REST, 133 }, 
	{ NOTE_E3, 134 }, 
	{ NOTE_E3, 134 }, 
	{ NOTE_REST, 134 }, 
	{ NOTE_E3, 134 }, 
	{ NOTE_REST, 134 }, 
	{ NOTE_E3, 134 }, 
	{ NOTE_REST, 134 }, 
	{ NOTE_E3, 134 }, 
	{ NOTE_A3, 89 }, 
	{ NOTE_AS3, 89 }, 
	{ NOTE_B3, 89 }, 
	{ NOTE_G3, 134 }, 
	{ NOTE_G3, 134 }, 
	{ NOTE_A3, 89 }, 
	{ NOTE_AS3, 89 }, 
	{ NOTE_B3, 89 }, 
	{ NOTE_G3, 134 }, 
	{ NOTE_E3, 135 }, 
	{ NOTE_E3, 134 }, 
	{ NOTE_E3, 134 }, 
	{ NOTE_REST, 134 }, 
	{ NOTE_E3, 134 }, 
	{ NOTE_REST, 134 }, 
	{ NOTE_E3, 134 }, 
	{ NOTE_REST, 134 }, 
	{ NOTE_E3, 134 }, 
	{ NOTE_REST, 134 }, 
	{ NOTE_E3, 134 }, 
	{ NOTE_REST, 134 }, 
	{ NOTE_E3, 134 }, 
	{ NOTE_E3, 134 }, 
	{ NOTE_E3, 134 }, 
	{ NOTE_E3, 134 }, 
	{ NOTE_REST, 133 }, 
	{ NOTE_E3, 134 }, 
	{ NOTE_E3, 134 }, 
	{ NOTE_REST, 134 }, 
	{ NOTE_E3, 134 }, 
	{ NOTE_REST, 134 }, 
	{ NOTE_E3, 134 }, 
	{ NOTE_REST, 134 }, 
	{ NOTE_E3, 134 }, 
	{ NOTE_REST, 134 }, 
	{ NOTE_E3, 134 }, 
	{ NOTE_REST, 134 }, 
	{ NOTE_E3, 134 }, 
	{ NOTE_A3, 89 }, 
	{ NOTE_AS3, 89 }, 
	{ NOTE_B3, 89 }, 
	{ NOTE_D4, 268 }, 
	{ NOTE_E3, 134 }, 
	{ NOTE_E3, 134 }, 
	{ NOTE_REST, 134 }, 
	{ NOTE_E3, 134 }, 
	{ NOTE_REST, 134 }, 
	{ NOTE_E3, 134 }, 
	{ NOTE_REST, 134 }, 
	{ NOTE_E3, 134 }, 
	{ NOTE_REST, 134 }, 
	{ NOTE_E3, 134 }, 
	{ NOTE_REST, 134 }, 
	{ NOTE_E3, 134 }, 
	{ NOTE_E3, 134 }, 
	{ NOTE_E3, 134 }, 
	{ NOTE_E3, 134 }, 
	{ NOTE_REST, 133 }, 
	{ NOTE_E3, 134 }, 
	{ NOTE_E3, 134 }, 
	{ NOTE_REST, 134 }, 
	{ NOTE_E3, 134 }, 
	{ NOTE_REST, 134 }, 
	{ NOTE_E3, 134 }, 
	{ NOTE_REST, 134 }, 
	{ NOTE_E3, 134 }, 
	{ NOTE_A3, 89 }, 
	{ NOTE_AS3, 89 }, 
	{ NOTE_B3, 89 }, 
	{ NOTE_G3, 134 }, 
	{ NOTE_G3, 134 }, 
	{ NOTE_A3, 89 }, 
	{ NOTE_AS3, 89 }, 
	{ NOTE_B3, 89 }, 
	{ NOTE_G3, 134 }, 
	{ NOTE_E3, 135 }, 
	{ NOTE_REST, 134 }, 
	{ NOTE_G3, 134 }, 
	{ NOTE_G3, 134 }, 
	{ NOTE_G3, 134 }, 
	{ NOTE_G3, 134 }, 
	{ NOTE_G3, 134 }, 
	{ NOTE_G3, 134 }, 
	{ NOTE_G3, 134 }, 
	{ NOTE_REST, 134 }, 
	{ NOTE_G3, 134 }, 
	{ NOTE_G3, 134 }, 
	{ NOTE_GS3, 268 }, 
	{ NOTE_REST, 401 }, 
	{ NOTE_REST, 134 }, 
	{ NOTE_G3, 134 }, 
	{ NOTE_G3, 134 }, 
	{ NOTE_G3, 134 }, 
	{ NOTE_G3, 134 }, 
	{ NOTE_G3, 134 }, 
	{ NOTE_G3, 134 }, 
	{ NOTE_G3, 134 }, 
	{ NOTE_G3, 134 }, 
	{ NOTE_REST, 402 }, 
	{ NOTE_REST, 268 }, 
	{ NOTE_REST, 267 }, 
	{ NOTE_E3, 134 }, 
	{ NOTE_E3, 134 }, 
	{ NOTE_REST, 134 }, 
	{ NOTE_E3, 134 }, 
	{ NOTE_REST, 134 }, 
	{ NOTE_E3, 134 }, 
	{ NOTE_REST, 134 }, 
	{ NOTE_E3, 134 }, 
	{ NOTE_REST, 134 }, 
	{ NOTE_E3, 134 }, 
	{ NOTE_REST, 134 }, 
	{ NOTE_E3, 134 }, 
	{ NOTE_E3, 134 }, 
	{ NOTE_E3, 134 }, 
	{ NOTE_E3, 134 }, 
	{ NOTE_REST, 133 }, 
	{ NOTE_E3, 134 }, 
	{ NOTE_E3, 134 }, 
	{ NOTE_REST, 134 }, 
	{ NOTE_E3, 134 }, 
	{ NOTE_REST, 134 }, 
	{ NOTE_E3, 134 }, 
	{ NOTE_REST, 134 }, 
	{ NOTE_E3, 134 }, 
	{ NOTE_AS3, 134 }, 
	{ NOTE_A3, 134 }, 
	{ NOTE_G3, 134 }, 
	{ NOTE_E3, 134 }, 
	{ NOTE_REST, 535 }, 
	{ NOTE_E3, 134 }, 
	{ NOTE_G3, 134 }, 
	{ NOTE_E3, 134 }, 
	{ NOTE_G3, 134 }, 
	{ NOTE_A3, 134 }, 
	{ NOTE_G3, 134 }, 
	{ NOTE_A3, 134 }, 
	{ NOTE_G3, 134 }, 
	{ NOTE_AS3, 134 }, 
	{ NOTE_G3, 134 }, 
	{ NOTE_A3, 134 }, 
	{ NOTE_G3, 134 }, 
	{ NOTE_A3, 134 }, 
	{ NOTE_B3, 134 }, 
	{ NOTE_D4, 267 }, 
	{ NOTE_E3, 134 }, 
	{ NOTE_G3, 134 }, 
	{ NOTE_E3, 134 }, 
	{ NOTE_G3, 134 }, 
	{ NOTE_A3, 134 }, 
	{ NOTE_G3, 134 }, 
	{ NOTE_A3, 134 }, 
	{ NOTE_G3, 134 }, 
	{ NOTE_AS3, 134 }, 
	{ NOTE_G3, 134 }, 
	{ NOTE_A3, 134 }, 
	{ NOTE_G3, 134 }, 
	{ NOTE_A3, 134 }, 
	{ NOTE_B3, 134 }, 
	{ NOTE_D4, 267 }, 
	{ NOTE_E3, 134 }, 
	{ NOTE_G3, 134 }, 
	{ NOTE_E3, 134 }, 
	{ NOTE_G3, 134 }, 
	{ NOTE_A3, 134 }, 
	{ NOTE_G3, 134 }, 
	{ NOTE_A3, 134 }, 
	{ NOTE_G3, 134 }, 
	{ NOTE_AS3, 134 }, 
	{ NOTE_G3, 134 }, 
	{ NOTE_A3, 134 }, 
	{ NOTE_G3, 134 }, 
	{ NOTE_A3, 134 }, 
	{ NOTE_B3, 134 }, 
	{ NOTE_D4, 267 }, 
	{ NOTE_E3, 134 }, 
	{ NOTE_G3, 134 }, 
	{ NOTE_E3, 134 }, 
	{ NOTE_G3, 134 }, 
	{ NOTE_A3, 134 }, 
	{ NOTE_G3, 134 }, 
	{ NOTE_A3, 134 }, 
	{ NOTE_G3, 134 }, 
	{ NOTE_AS3, 134 }, 
	{ NOTE_A3, 134 }, 
	{ NOTE_G3, 134 }, 
	{ NOTE_E3, 134 }, 
	{ NOTE_REST, 535 }, 
	{ NOTE_E3, 134 }, 
	{ NOTE_G3, 134 }, 
	{ NOTE_E3, 134 }, 
	{ NOTE_G3, 134 }, 
	{ NOTE_A3, 134 }, 
	{ NOTE_G3, 134 }, 
	{ NOTE_A3, 134 }, 
	{ NOTE_G3, 134 }, 
	{ NOTE_AS3, 134 }, 
	{ NOTE_G3, 134 }, 
	{ NOTE_A3, 134 }, 
	{ NOTE_G3, 134 }, 
	{ NOTE_A3, 134 }, 
	{ NOTE_B3, 134 }, 
	{ NOTE_D4, 267 }, 
	{ NOTE_E3, 134 }, 
	{ NOTE_G3, 134 }, 
	{ NOTE_E3, 134 }, 
	{ NOTE_G3, 134 }, 
	{ NOTE_A3, 134 }, 
	{ NOTE_G3, 134 }, 
	{ NOTE_A3, 134 }, 
	{ NOTE_G3, 134 }, 
	{ NOTE_AS3, 134 }, 
	{ NOTE_G3, 134 }, 
	{ NOTE_A3, 134 }, 
	{ NOTE_G3, 134 }, 
	{ NOTE_A3, 134 }, 
	{ NOTE_B3, 134 }, 
	{ NOTE_D4, 267 }, 
	{ NOTE_E3, 134 }, 
	{ NOTE_G3, 134 }, 
	{ NOTE_E3, 134 }, 
	{ NOTE_G3, 134 }, 
	{ NOTE_A3, 134 }, 
	{ NOTE_G3, 134 }, 
	{ NOTE_A3, 134 }, 
	{ NOTE_G3, 134 }, 
	{ NOTE_AS3, 134 }, 
	{ NOTE_G3, 134 }, 
	{ NOTE_A3, 134 }, 
	{ NOTE_G3, 134 }, 
	{ NOTE_A3, 134 }, 
	{ NOTE_B3, 134 }, 
	{ NOTE_D4, 267 }, 
	{ NOTE_E3, 134 }, 
	{ NOTE_G3, 134 }, 
	{ NOTE_E3, 134 }, 
	{ NOTE_G3, 134 }, 
	{ NOTE_A3, 134 }, 
	{ NOTE_G3, 134 }, 
	{ NOTE_A3, 134 }, 
	{ NOTE_G3, 134 }, 
	{ NOTE_AS3, 134 }, 
	{ NOTE_A3, 134 }, 
	{ NOTE_G3, 134 }, 
	{ NOTE_E3, 134 }, 
	{ NOTE_REST, 535 }, 
	{ NOTE_E3, 134 }, 
	{ NOTE_E3, 134 }, 
	{ NOTE_REST, 134 }, 
	{ NOTE_E3, 134 }, 
	{ NOTE_REST, 134 }, 
	{ NOTE_E3, 134 }, 
	{ NOTE_REST, 134 }, 
	{ NOTE_E3, 134 }, 
	{ NOTE_REST, 134 }, 
	{ NOTE_E3, 134 }, 
	{ NOTE_REST, 134 }, 
	{ NOTE_E3, 134 }, 
	{ NOTE_A3, 89 }, 
	{ NOTE_AS3, 89 }, 
	{ NOTE_B3, 89 }, 
	{ NOTE_D4, 268 }, 
	{ NOTE_E3, 134 }, 
	{ NOTE_E3, 134 }, 
	{ NOTE_REST, 134 }, 
	{ NOTE_E3, 134 }, 
	{ NOTE_REST, 134 }, 
	{ NOTE_E3, 134 }, 
	{ NOTE_REST, 134 }, 
	{ NOTE_E3, 134 }, 
	{ NOTE_A3, 89 }, 
	{ NOTE_AS3, 89 }, 
	{ NOTE_B3, 89 }, 
	{ NOTE_D4, 268 }, 
	{ NOTE_A3, 89 }, 
	{ NOTE_AS3, 89 }, 
	{ NOTE_B3, 89 }, 
	{ NOTE_D4, 269 }, 
	{ NOTE_E3, 134 }, 
	{ NOTE_E3, 134 }, 
	{ NOTE_REST, 134 }, 
	{ NOTE_E3, 134 }, 
	{ NOTE_REST, 134 }, 
	{ NOTE_E3, 134 }, 
	{ NOTE_REST, 134 }, 
	{ NOTE_E3, 134 }, 
	{ NOTE_REST, 134 }, 
	{ NOTE_E3, 134 }, 
	{ NOTE_REST, 134 }, 
	{ NOTE_E3, 134 }, 
	{ NOTE_A3, 89 }, 
	{ NOTE_AS3, 89 }, 
	{ NOTE_B3, 89 }, 
	{ NOTE_D4, 268 }, 
	{ NOTE_E3, 134 }, 
	{ NOTE_E3, 134 }, 
	{ NOTE_REST, 134 }, 
	{ NOTE_E3, 134 }, 
	{ NOTE_REST, 134 }, 
	{ NOTE_E3, 134 }, 
	{ NOTE_REST, 134 }, 
	{ NOTE_E3, 134 }, 
	{ NOTE_A3, 89 }, 
	{ NOTE_AS3, 89 }, 
	{ NOTE_A3, 89 }, 
	{ NOTE_G3, 134 }, 
	{ NOTE_G3, 134 }, 
	{ NOTE_A3, 89 }, 
	{ NOTE_AS3, 89 }, 
	{ NOTE_A3, 89 }, 
	{ NOTE_G3, 134 }, 
	{ NOTE_E3, 135 }, 
	{ NOTE_E3, 134 }, 
	{ NOTE_E3, 134 }, 
	{ NOTE_REST, 134 }, 
	{ NOTE_E3, 134 }, 
	{ NOTE_REST, 134 }, 
	{ NOTE_E3, 134 }, 
	{ NOTE_REST, 134 }, 
	{ NOTE_E3, 134 }, 
	{ NOTE_REST, 134 }, 
	{ NOTE_E3, 134 }, 
	{ NOTE_REST, 134 }, 
	{ NOTE_E3, 134 }, 
	{ NOTE_A3, 89 }, 
	{ NOTE_AS3, 89 }, 
	{ NOTE_B3, 89 }, 
	{ NOTE_D4, 268 }, 
	{ NOTE_E3, 134 }, 
	{ NOTE_E3, 134 }, 
	{ NOTE_REST, 134 }, 
	{ NOTE_E3, 134 }, 
	{ NOTE_REST, 134 }, 
	{ NOTE_E3, 134 }, 
	{ NOTE_REST, 134 }, 
	{ NOTE_E3, 134 }, 
	{ NOTE_A3, 89 }, 
	{ NOTE_AS3, 89 }, 
	{ NOTE_A3, 89 }, 
	{ NOTE_G3, 134 }, 
	{ NOTE_G3, 134 }, 
	{ NOTE_A3, 89 }, 
	{ NOTE_AS3, 89 }, 
	{ NOTE_A3, 89 }, 
	{ NOTE_G3, 134 }, 
	{ NOTE_E3, 135 }, 
	{ NOTE_E3, 134 }, 
	{ NOTE_E3, 134 }, 
	{ NOTE_REST, 134 }, 
	{ NOTE_E3, 134 }, 
	{ NOTE_REST, 134 }, 
	{ NOTE_E3, 134 }, 
	{ NOTE_REST, 134 }, 
	{ NOTE_E3, 134 }, 
	{ NOTE_REST, 134 }, 
	{ NOTE_E3, 134 }, 
	{ NOTE_REST, 134 }, 
	{ NOTE_E3, 134 }, 
	{ NOTE_E3, 134 }, 
	{ NOTE_E3, 134 }, 
	{ NOTE_E3, 134 }, 
	{ NOTE_REST, 133 }, 
	{ NOTE_E3, 134 }, 
	{ NOTE_E3, 134 }, 
	{ NOTE_REST, 134 }, 
	{ NOTE_E3, 134 }, 
	{ NOTE_REST, 134 }, 
	{ NOTE_E3, 134 }, 
	{ NOTE_REST, 134 }, 
	{ NOTE_E3, 134 }, 
	{ NOTE_REST, 134 }, 
	{ NOTE_E3, 134 }, 
	{ NOTE_REST, 134 }, 
	{ NOTE_E3, 134 }, 
	{ NOTE_A3, 89 }, 
	{ NOTE_AS3, 89 }, 
	{ NOTE_B3, 89 }, 
	{ NOTE_D4, 268 }, 
	{ NOTE_E3, 134 }, 
	{ NOTE_E3, 134 }, 
	{ NOTE_REST, 134 }, 
	{ NOTE_E3, 134 }, 
	{ NOTE_REST, 134 }, 
	{ NOTE_E3, 134 }, 
	{ NOTE_REST, 134 }, 
	{ NOTE_E3, 134 }, 
	{ NOTE_REST, 134 }, 
	{ NOTE_E3, 134 }, 
	{ NOTE_REST, 134 }, 
	{ NOTE_E3, 134 }, 
	{ NOTE_E3, 134 }, 
	{ NOTE_E3, 134 }, 
	{ NOTE_E3, 134 }, 
	{ NOTE_REST, 133 }, 
	{ NOTE_E3, 134 }, 
	{ NOTE_E3, 134 }, 
	{ NOTE_REST, 134 }, 
	{ NOTE_E3, 134 }, 
	{ NOTE_REST, 134 }, 
	{ NOTE_E3, 134 }, 
	{ NOTE_REST, 134 }, 
	{ NOTE_E3, 134 }, 
	{ NOTE_A3, 89 }, 
	{ NOTE_AS3, 89 }, 
	{ NOTE_B3, 89 }, 
	{ NOTE_G3, 134 }, 
	{ NOTE_G3, 134 }, 
	{ NOTE_A3, 89 }, 
	{ NOTE_AS3, 89 }, 
	{ NOTE_B3, 89 }, 
	{ NOTE_G3, 134 }, 
	{ NOTE_E3, 135 }, 
	{ NOTE_E3, 134 }, 
	{ NOTE_E3, 134 }, 
	{ NOTE_REST, 134 }, 
	{ NOTE_E3, 134 }, 
	{ NOTE_REST, 134 }, 
	{ NOTE_E3, 134 }, 
	{ NOTE_REST, 134 }, 
	{ NOTE_E3, 134 }, 
	{ NOTE_REST, 134 }, 
	{ NOTE_E3, 134 }, 
	{ NOTE_REST, 134 }, 
	{ NOTE_E3, 134 }, 
	{ NOTE_E3, 134 }, 
	{ NOTE_E3, 134 }, 
	{ NOTE_E3, 134 }, 
	{ NOTE_REST, 133 }, 
	{ NOTE_E3, 134 }, 
	{ NOTE_E3, 134 }, 
	{ NOTE_REST, 134 }, 
	{ NOTE_E3, 134 }, 
	{ NOTE_REST, 134 }, 
	{ NOTE_E3, 134 }, 
	{ NOTE_REST, 134 }, 
	{ NOTE_E3, 134 }, 
	{ NOTE_REST, 134 }, 
	{ NOTE_E3, 134 }, 
	{ NOTE_REST, 134 }, 
	{ NOTE_E3, 134 }, 
	{ NOTE_A3, 89 }, 
	{ NOTE_AS3, 89 }, 
	{ NOTE_B3, 89 }, 
	{ NOTE_D4, 268 }, 
	{ NOTE_E3, 134 }, 
	{ NOTE_E3, 134 }, 
	{ NOTE_REST, 134 }, 
	{ NOTE_E3, 134 }, 
	{ NOTE_REST, 134 }, 
	{ NOTE_E3, 134 }, 
	{ NOTE_REST, 134 }, 
	{ NOTE_E3, 134 }, 
	{ NOTE_REST, 134 }, 
	{ NOTE_E3, 134 }, 
	{ NOTE_REST, 134 }, 
	{ NOTE_E3, 134 }, 
	{ NOTE_E3, 134 }, 
	{ NOTE_E3, 134 }, 
	{ NOTE_E3, 134 }, 
	{ NOTE_REST, 133 }, 
	{ NOTE_E3, 134 }, 
	{ NOTE_E3, 134 }, 
	{ NOTE_REST, 134 }, 
	{ NOTE_E3, 134 }, 
	{ NOTE_REST, 134 }, 
	{ NOTE_E3, 134 }, 
	{ NOTE_REST, 134 }, 
	{ NOTE_E3, 134 }, 
	{ NOTE_A3, 89 }, 
	{ NOTE_AS3, 89 }, 
	{ NOTE_B3, 89 }, 
	{ NOTE_G3, 134 }, 
	{ NOTE_G3, 134 }, 
	{ NOTE_A3, 89 }, 
	{ NOTE_AS3, 89 }, 
	{ NOTE_B3, 89 }, 
	{ NOTE_G3, 134 }, 
	{ NOTE_E3, 135 }, 
	{ NOTE_REST, 134 }, 
	{ NOTE_G3, 134 }, 
	{ NOTE_G3, 134 }, 
	{ NOTE_G3, 134 }, 
	{ NOTE_G3, 134 }, 
	{ NOTE_G3, 134 }, 
	{ NOTE_G3, 134 }, 
	{ NOTE_G3, 134 }, 
	{ NOTE_REST, 134 }, 
	{ NOTE_G3, 134 }, 
	{ NOTE_G3, 134 }, 
	{ NOTE_GS3, 268 }, 
	{ NOTE_REST, 401 }, 
	{ NOTE_REST, 134 }, 
	{ NOTE_G3, 134 }, 
	{ NOTE_G3, 134 }, 
	{ NOTE_G3, 134 }, 
	{ NOTE_G3, 134 }, 
	{ NOTE_G3, 134 }, 
	{ NOTE_G3, 134 }, 
	{ NOTE_G3, 134 }, 
	{ NOTE_G3, 134 }, 
	{ NOTE_REST, 402 }, 
	{ NOTE_REST, 268 }, 
	{ NOTE_REST, 267 }, 
	{ NOTE_E3, 134 }, 
	{ NOTE_E3, 134 }, 
	{ NOTE_REST, 134 }, 
	{ NOTE_E3, 134 }, 
	{ NOTE_REST, 134 }, 
	{ NOTE_E3, 134 }, 
	{ NOTE_REST, 134 }, 
	{ NOTE_E3, 134 }, 
	{ NOTE_REST, 134 }, 
	{ NOTE_E3, 134 }, 
	{ NOTE_REST, 134 }, 
	{ NOTE_E3, 134 }, 
	{ NOTE_E3, 134 }, 
	{ NOTE_E3, 134 }, 
	{ NOTE_E3, 134 }, 
	{ NOTE_REST, 133 }, 
	{ NOTE_E3, 134 }, 
	{ NOTE_E3, 134 }, 
	{ NOTE_REST, 134 }, 
	{ NOTE_E3, 134 }, 
	{ NOTE_REST, 134 }, 
	{ NOTE_E3, 134 }, 
	{ NOTE_REST, 134 }, 
	{ NOTE_E3, 134 }, 
	{ NOTE_AS3, 134 }, 
	{ NOTE_A3, 134 }, 
	{ NOTE_G3, 134 }, 
	{ NOTE_E3, 134 }, 
	{ NOTE_REST, 535 }, 
	{ NOTE_E3, 134 }, 
	{ NOTE_G3, 134 }, 
	{ NOTE_E3, 134 }, 
	{ NOTE_G3, 134 }, 
	{ NOTE_A3, 134 }, 
	{ NOTE_G3, 134 }, 
	{ NOTE_A3, 134 }, 
	{ NOTE_G3, 134 }, 
	{ NOTE_AS3, 134 }, 
	{ NOTE_G3, 134 }, 
	{ NOTE_A3, 134 }, 
	{ NOTE_G3, 134 }, 
	{ NOTE_A3, 134 }, 
	{ NOTE_B3, 134 }, 
	{ NOTE_D4, 267 }, 
	{ NOTE_E3, 134 }, 
	{ NOTE_G3, 134 }, 
	{ NOTE_E3, 134 }, 
	{ NOTE_G3, 134 }, 
	{ NOTE_A3, 134 }, 
	{ NOTE_G3, 134 }, 
	{ NOTE_A3, 134 }, 
	{ NOTE_G3, 134 }, 
	{ NOTE_AS3, 134 }, 
	{ NOTE_G3, 134 }, 
	{ NOTE_A3, 134 }, 
	{ NOTE_G3, 134 }, 
	{ NOTE_A3, 134 }, 
	{ NOTE_B3, 134 }, 
	{ NOTE_D4, 267 }, 
	{ NOTE_E3, 134 }, 
	{ NOTE_G3, 134 }, 
	{ NOTE_E3, 134 }, 
	{ NOTE_G3, 134 }, 
	{ NOTE_A3, 134 }, 
	{ NOTE_G3, 134 }, 
	{ NOTE_A3, 134 }, 
	{ NOTE_G3, 134 }, 
	{ NOTE_AS3, 134 }, 
	{ NOTE_G3, 134 }, 
	{ NOTE_A3, 134 }, 
	{ NOTE_G3, 134 }, 
	{ NOTE_A3, 134 }, 
	{ NOTE_B3, 134 }, 
	{ NOTE_D4, 267 }, 
	{ NOTE_E3, 134 }, 
	{ NOTE_G3, 134 }, 
	{ NOTE_E3, 134 }, 
	{ NOTE_G3, 134 }, 
	{ NOTE_A3, 134 }, 
	{ NOTE_G3, 134 }, 
	{ NOTE_A3, 134 }, 
	{ NOTE_G3, 134 }, 
	{ NOTE_AS3, 134 }, 
	{ NOTE_A3, 134 }, 
	{ NOTE_G3, 134 }, 
	{ NOTE_E3, 134 }, 
	{ NOTE_REST, 535 }, 
	{ NOTE_E3, 134 }, 
	{ NOTE_G3, 134 }, 
	{ NOTE_E3, 134 }, 
	{ NOTE_G3, 134 }, 
	{ NOTE_A3, 134 }, 
	{ NOTE_G3, 134 }, 
	{ NOTE_A3, 134 }, 
	{ NOTE_G3, 134 }, 
	{ NOTE_AS3, 134 }, 
	{ NOTE_G3, 134 }, 
	{ NOTE_A3, 134 }, 
	{ NOTE_G3, 134 }, 
	{ NOTE_A3, 134 }, 
	{ NOTE_B3, 134 }, 
	{ NOTE_D4, 267 }, 
	{ NOTE_E3, 134 }, 
	{ NOTE_G3, 134 }, 
	{ NOTE_E3, 134 }, 
	{ NOTE_G3, 134 }, 
	{ NOTE_A3, 134 }, 
	{ NOTE_G3, 134 }, 
	{ NOTE_A3, 134 }, 
	{ NOTE_G3, 134 }, 
	{ NOTE_AS3, 134 }, 
	{ NOTE_G3, 134 }, 
	{ NOTE_A3, 134 }, 
	{ NOTE_G3, 134 }, 
	{ NOTE_A3, 134 }, 
	{ NOTE_B3, 134 }, 
	{ NOTE_D4, 267 }, 
	{ NOTE_E3, 134 }, 
	{ NOTE_G3, 134 }, 
	{ NOTE_E3, 134 }, 
	{ NOTE_G3, 134 }, 
	{ NOTE_A3, 134 }, 
	{ NOTE_G3, 134 }, 
	{ NOTE_A3, 134 }, 
	{ NOTE_G3, 134 }, 
	{ NOTE_AS3, 134 }, 
	{ NOTE_G3, 134 }, 
	{ NOTE_A3, 134 }, 
	{ NOTE_G3, 134 }, 
	{ NOTE_A3, 134 }, 
	{ NOTE_B3, 134 }, 
	{ NOTE_D4, 267 }, 
	{ NOTE_E3, 134 }, 
	{ NOTE_G3, 134 }, 
	{ NOTE_E3, 134 }, 
	{ NOTE_G3, 134 }, 
	{ NOTE_A3, 134 }, 
	{ NOTE_G3, 134 }, 
	{ NOTE_A3, 134 }, 
	{ NOTE_G3, 134 }, 
	{ NOTE_E3, 134 }, 
	{ NOTE_REST, 402 }, 
	{ NOTE_REST, 268 }, 
	{ NOTE_REST, 267 }, 
	{ NOTE_E3, 268 }, 
	{ NOTE_E3, 268 }, 
	{ NOTE_G4, 1607 }, 
	{ NOTE_C4, 268 }, 
	{ NOTE_C4, 268 }, 
	{ NOTE_C5, 1607 }, 
	{ NOTE_CS4, 268 }, 
	{ NOTE_CS4, 268 }, 
	{ NOTE_REST, 1607 }, 
	{ NOTE_D4, 268 }, 
	{ NOTE_D4, 268 }, 
	{ NOTE_D5, 536 }, 
	{ NOTE_REST, 134 }, 
	{ NOTE_REST, 402 }, 
	{ NOTE_REST, 268 }, 
	{ NOTE_REST, 267 }, 
	{ NOTE_REST, 268 }, 
	{ NOTE_G4, 1875 }, 
	{ NOTE_REST, 268 }, 
	{ NOTE_G4, 1875 }, 
	{ NOTE_REST, 268 }, 
	{ NOTE_A4, 1875 }, 
	{ NOTE_REST, 268 }, 
	{ NOTE_REST, 804 }, 
	{ NOTE_REST, 134 }, 
	{ NOTE_REST, 402 }, 
	{ NOTE_REST, 268 }, 
	{ NOTE_REST, 267 }, 
	{ NOTE_REST, 268 }, 
	{ NOTE_G4, 1875 }, 
	{ NOTE_REST, 268 }, 
	{ NOTE_G4, 1875 }, 
	{ NOTE_REST, 268 }, 
	{ NOTE_A4, 1875 }, 
	{ NOTE_REST, 268 }, 
	{ NOTE_REST, 804 }, 
	{ NOTE_REST, 134 }, 
	{ NOTE_REST, 402 }, 
	{ NOTE_REST, 268 }, 
	{ NOTE_REST, 267 }, 
	{ NOTE_REST, 268 }, 
	{ NOTE_G4, 1875 }, 
	{ NOTE_REST, 268 }, 
	{ NOTE_G4, 1875 }, 
	{ NOTE_REST, 268 }, 
	{ NOTE_A4, 1875 }, 
	{ NOTE_REST, 268 }, 
	{ NOTE_REST, 804 }, 
	{ NOTE_REST, 134 }, 
	{ NOTE_REST, 402 }, 
	{ NOTE_REST, 268 }, 
	{ NOTE_REST, 267 }, 
	{ NOTE_E4, 134 }, 
	{ NOTE_D4, 134 }, 
	{ NOTE_E3, 134 }, 
	{ NOTE_E3, 134 }, 
	{ NOTE_E3, 134 }, 
	{ NOTE_E3, 134 }, 
	{ NOTE_E3, 134 }, 
	{ NOTE_E3, 134 }, 
	{ NOTE_E4, 134 }, 
	{ NOTE_D4, 134 }, 
	{ NOTE_REST, 536 }, 
	{ NOTE_E3, 134 }, 
	{ NOTE_E3, 133 }, 
	{ NOTE_E4, 134 }, 
	{ NOTE_D4, 134 }, 
	{ NOTE_E3, 134 }, 
	{ NOTE_E3, 134 }, 
	{ NOTE_E3, 134 }, 
	{ NOTE_E3, 134 }, 
	{ NOTE_E3, 134 }, 
	{ NOTE_E3, 134 }, 
	{ NOTE_E4, 134 }, 
	{ NOTE_D4, 134 }, 
	{ NOTE_REST, 536 }, 
	{ NOTE_E3, 134 }, 
	{ NOTE_E3, 133 }, 
	{ NOTE_E4, 134 }, 
	{ NOTE_D4, 134 }, 
	{ NOTE_E3, 134 }, 
	{ NOTE_E3, 134 }, 
	{ NOTE_E4, 134 }, 
	{ NOTE_D4, 134 }, 
	{ NOTE_E3, 134 }, 
	{ NOTE_E3, 134 }, 
	{ NOTE_E4, 134 }, 
	{ NOTE_D4, 134 }, 
	{ NOTE_REST, 536 }, 
	{ NOTE_D4, 134 }, 
	{ NOTE_D4, 133 }, 
	{ NOTE_A5, 134 }, 
	{ NOTE_G5, 134 }, 
	{ NOTE_E5, 134 }, 
	{ NOTE_G5, 134 }, 
	{ NOTE_FS5, 134 }, 
	{ NOTE_D5, 134 }, 
	{ NOTE_FS5, 134 }, 
	{ NOTE_E5, 134 }, 
	{ NOTE_CS5, 134 }, 
	{ NOTE_E5, 134 }, 
	{ NOTE_D5, 134 }, 
	{ NOTE_B4, 134 }, 
	{ NOTE_D5, 134 }, 
	{ NOTE_CS5, 134 }, 
	{ NOTE_A4, 267 }, 
	{ NOTE_E4, 134 }, 
	{ NOTE_D4, 134 }, 
	{ NOTE_E3, 134 }, 
	{ NOTE_E3, 134 }, 
	{ NOTE_E4, 134 }, 
	{ NOTE_D4, 134 }, 
	{ NOTE_E3, 134 }, 
	{ NOTE_E3, 134 }, 
	{ NOTE_E4, 134 }, 
	{ NOTE_D4, 134 }, 
	{ NOTE_REST, 536 }, 
	{ NOTE_E3, 134 }, 
	{ NOTE_E3, 133 }, 
	{ NOTE_E4, 134 }, 
	{ NOTE_D4, 134 }, 
	{ NOTE_E3, 134 }, 
	{ NOTE_E3, 134 }, 
	{ NOTE_E4, 134 }, 
	{ NOTE_D4, 134 }, 
	{ NOTE_E3, 134 }, 
	{ NOTE_E3, 134 }, 
	{ NOTE_E4, 134 }, 
	{ NOTE_D4, 134 }, 
	{ NOTE_REST, 803 }, 
	{ NOTE_E4, 134 }, 
	{ NOTE_D4, 134 }, 
	{ NOTE_E3, 134 }, 
	{ NOTE_E3, 134 }, 
	{ NOTE_E4, 134 }, 
	{ NOTE_D4, 134 }, 
	{ NOTE_E3, 134 }, 
	{ NOTE_E3, 134 }, 
	{ NOTE_E4, 134 }, 
	{ NOTE_D4, 134 }, 
	{ NOTE_REST, 536 }, 
	{ NOTE_D4, 134 }, 
	{ NOTE_D4, 133 }, 
	{ NOTE_A6, 134 }, 
	{ NOTE_G6, 134 }, 
	{ NOTE_E6, 134 }, 
	{ NOTE_G6, 134 }, 
	{ NOTE_FS6, 134 }, 
	{ NOTE_D6, 134 }, 
	{ NOTE_FS6, 134 }, 
	{ NOTE_E6, 134 }, 
	{ NOTE_CS6, 134 }, 
	{ NOTE_E6, 134 }, 
	{ NOTE_D6, 134 }, 
	{ NOTE_B5, 134 }, 
	{ NOTE_D6, 134 }, 
	{ NOTE_CS6, 134 }, 
	{ NOTE_A5, 267 }, 
	{ NOTE_E4, 134 }, 
	{ NOTE_G4, 134 }, 
	{ NOTE_E4, 134 }, 
	{ NOTE_G4, 134 }, 
	{ NOTE_A4, 134 }, 
	{ NOTE_G4, 134 }, 
	{ NOTE_A4, 134 }, 
	{ NOTE_G4, 134 }, 
	{ NOTE_AS4, 134 }, 
	{ NOTE_G4, 134 }, 
	{ NOTE_A4, 134 }, 
	{ NOTE_G4, 134 }, 
	{ NOTE_A4, 134 }, 
	{ NOTE_B4, 134 }, 
	{ NOTE_D5, 134 }, 
	{ NOTE_REST, 133 }, 
	{ NOTE_E4, 134 }, 
	{ NOTE_G4, 134 }, 
	{ NOTE_E4, 134 }, 
	{ NOTE_G4, 134 }, 
	{ NOTE_A4, 134 }, 
	{ NOTE_G4, 134 }, 
	{ NOTE_A4, 134 }, 
	{ NOTE_G4, 134 }, 
	{ NOTE_AS4, 134 }, 
	{ NOTE_G4, 134 }, 
	{ NOTE_A4, 134 }, 
	{ NOTE_G4, 134 }, 
	{ NOTE_A4, 134 }, 
	{ NOTE_B4, 134 }, 
	{ NOTE_D5, 134 }, 
	{ NOTE_REST, 133 }, 
	{ NOTE_E4, 134 }, 
	{ NOTE_G4, 134 }, 
	{ NOTE_E4, 134 }, 
	{ NOTE_G4, 134 }, 
	{ NOTE_A4, 134 }, 
	{ NOTE_G4, 134 }, 
	{ NOTE_A4, 134 }, 
	{ NOTE_G4, 134 }, 
	{ NOTE_AS4, 134 }, 
	{ NOTE_G4, 134 }, 
	{ NOTE_A4, 134 }, 
	{ NOTE_G4, 134 }, 
	{ NOTE_A4, 134 }, 
	{ NOTE_B4, 134 }, 
	{ NOTE_D5, 134 }, 
	{ NOTE_REST, 133 }, 
	{ NOTE_E4, 134 }, 
	{ NOTE_G4, 134 }, 
	{ NOTE_E4, 134 }, 
	{ NOTE_G4, 134 }, 
	{ NOTE_A4, 134 }, 
	{ NOTE_G4, 134 }, 
	{ NOTE_A4, 134 }, 
	{ NOTE_G4, 134 }, 
	{ NOTE_AS4, 134 }, 
	{ NOTE_A4, 134 }, 
	{ NOTE_G4, 134 }, 
	{ NOTE_E4, 669 }, 
	{ NOTE_E3, 134 }, 
	{ NOTE_G3, 134 }, 
	{ NOTE_E3, 134 }, 
	{ NOTE_G3, 134 }, 
	{ NOTE_A3, 134 }, 
	{ NOTE_G3, 134 }, 
	{ NOTE_A3, 134 }, 
	{ NOTE_G3, 134 }, 
	{ NOTE_AS3, 134 }, 
	{ NOTE_G3, 134 }, 
	{ NOTE_A3, 134 }, 
	{ NOTE_G3, 134 }, 
	{ NOTE_A3, 134 }, 
	{ NOTE_B3, 134 }, 
	{ NOTE_D4, 267 }, 
	{ NOTE_E3, 134 }, 
	{ NOTE_G3, 134 }, 
	{ NOTE_E3, 134 }, 
	{ NOTE_G3, 134 }, 
	{ NOTE_A3, 134 }, 
	{ NOTE_G3, 134 }, 
	{ NOTE_A3, 134 }, 
	{ NOTE_G3, 134 }, 
	{ NOTE_AS3, 134 }, 
	{ NOTE_G3, 134 }, 
	{ NOTE_A3, 134 }, 
	{ NOTE_G3, 134 }, 
	{ NOTE_A3, 134 }, 
	{ NOTE_B3, 134 }, 
	{ NOTE_D4, 267 }, 
	{ NOTE_E3, 134 }, 
	{ NOTE_G3, 134 }, 
	{ NOTE_E3, 134 }, 
	{ NOTE_G3, 134 }, 
	{ NOTE_A3, 134 }, 
	{ NOTE_G3, 134 }, 
	{ NOTE_A3, 134 }, 
	{ NOTE_G3, 134 }, 
	{ NOTE_AS3, 134 }, 
	{ NOTE_G3, 134 }, 
	{ NOTE_A3, 134 }, 
	{ NOTE_G3, 134 }, 
	{ NOTE_A3, 134 }, 
	{ NOTE_B3, 134 }, 
	{ NOTE_D4, 267 }, 
	{ NOTE_E3, 134 }, 
	{ NOTE_G3, 134 }, 
	{ NOTE_E3, 134 }, 
	{ NOTE_G3, 134 }, 
	{ NOTE_A3, 134 }, 
	{ NOTE_G3, 134 }, 
	{ NOTE_A3, 134 }, 
	{ NOTE_G3, 134 }, 
	{ NOTE_AS3, 134 }, 
	{ NOTE_A3, 134 }, 
	{ NOTE_G3, 134 }, 
	{ NOTE_E3, 134 }, 
	{ NOTE_REST, 535 }, 
	{ NOTE_E3, 134 }, 
	{ NOTE_G3, 134 }, 
	{ NOTE_E3, 134 }, 
	{ NOTE_G3, 134 }, 
	{ NOTE_A3, 134 }, 
	{ NOTE_G3, 134 }, 
	{ NOTE_A3, 134 }, 
	{ NOTE_G3, 134 }, 
	{ NOTE_AS3, 134 }, 
	{ NOTE_G3, 134 }, 
	{ NOTE_A3, 134 }, 
	{ NOTE_G3, 134 }, 
	{ NOTE_A3, 134 }, 
	{ NOTE_B3, 134 }, 
	{ NOTE_D4, 267 }, 
	{ NOTE_E3, 134 }, 
	{ NOTE_G3, 134 }, 
	{ NOTE_E3, 134 }, 
	{ NOTE_G3, 134 }, 
	{ NOTE_A3, 134 }, 
	{ NOTE_G3, 134 }, 
	{ NOTE_A3, 134 }, 
	{ NOTE_G3, 134 }, 
	{ NOTE_AS3, 134 }, 
	{ NOTE_G3, 134 }, 
	{ NOTE_A3, 134 }, 
	{ NOTE_G3, 134 }, 
	{ NOTE_A3, 134 }, 
	{ NOTE_B3, 134 }, 
	{ NOTE_D4, 267 }, 
	{ NOTE_E3, 134 }, 
	{ NOTE_G3, 134 }, 
	{ NOTE_E3, 134 }, 
	{ NOTE_G3, 134 }, 
	{ NOTE_A3, 134 }, 
	{ NOTE_G3, 134 }, 
	{ NOTE_A3, 134 }, 
	{ NOTE_G3, 134 }, 
	{ NOTE_AS3, 134 }, 
	{ NOTE_G3, 134 }, 
	{ NOTE_A3, 134 }, 
	{ NOTE_G3, 134 }, 
	{ NOTE_A3, 134 }, 
	{ NOTE_B3, 134 }, 
	{ NOTE_D4, 267 }, 
	{ NOTE_E3, 134 }, 
	{ NOTE_G3, 134 }, 
	{ NOTE_E3, 134 }, 
	{ NOTE_G3, 134 }, 
	{ NOTE_A3, 134 }, 
	{ NOTE_G3, 134 }, 
	{ NOTE_A3, 134 }, 
	{ NOTE_G3, 134 }, 
	{ NOTE_AS3, 134 }, 
	{ NOTE_A3, 134 }, 
	{ NOTE_G3, 134 }, 
	{ NOTE_E3, 134 }, 
	{ NOTE_REST, 535 }, 
	{ NOTE_E3, 134 }, 
	{ NOTE_G3, 134 }, 
	{ NOTE_E3, 134 }, 
	{ NOTE_G3, 134 }, 
	{ NOTE_A3, 134 }, 
	{ NOTE_G3, 134 }, 
	{ NOTE_A3, 134 }, 
	{ NOTE_G3, 134 }, 
	{ NOTE_AS3, 134 }, 
	{ NOTE_G3, 134 }, 
	{ NOTE_A3, 134 }, 
	{ NOTE_G3, 134 }, 
	{ NOTE_A3, 134 }, 
	{ NOTE_B3, 134 }, 
	{ NOTE_D4, 267 }, 
	{ NOTE_E3, 134 }, 
	{ NOTE_G3, 134 }, 
	{ NOTE_E3, 134 }, 
	{ NOTE_G3, 134 }, 
	{ NOTE_A3, 134 }, 
	{ NOTE_G3, 134 }, 
	{ NOTE_A3, 134 }, 
	{ NOTE_G3, 134 }, 
	{ NOTE_AS3, 134 }, 
	{ NOTE_A3, 134 }, 
	{ NOTE_G3, 134 }, 
	{ NOTE_E3, 134 }, 
	{ NOTE_REST, 535 }, 
	{ NOTE_E4, 134 }, 
	{ NOTE_D4, 134 }, 
	{ NOTE_E3, 134 }, 
	{ NOTE_E3, 134 }, 
	{ NOTE_E3, 134 }, 
	{ NOTE_E3, 134 }, 
	{ NOTE_E3, 134 }, 
	{ NOTE_E3, 134 }, 
	{ NOTE_E4, 134 }, 
	{ NOTE_D4, 134 }, 
	{ NOTE_REST, 536 }, 
	{ NOTE_E3, 134 }, 
	{ NOTE_E3, 133 }, 
	{ NOTE_E4, 134 }, 
	{ NOTE_D4, 134 }, 
	{ NOTE_E3, 134 }, 
	{ NOTE_E3, 134 }, 
	{ NOTE_E3, 134 }, 
	{ NOTE_E3, 134 }, 
	{ NOTE_E3, 134 }, 
	{ NOTE_E3, 134 }, 
	{ NOTE_E4, 134 }, 
	{ NOTE_D4, 134 }, 
	{ NOTE_REST, 536 }, 
	{ NOTE_E3, 134 }, 
	{ NOTE_E3, 133 }, 
	{ NOTE_E4, 134 }, 
	{ NOTE_D4, 134 }, 
	{ NOTE_E3, 134 }, 
	{ NOTE_E3, 134 }, 
	{ NOTE_E4, 134 }, 
	{ NOTE_D4, 134 }, 
	{ NOTE_E3, 134 }, 
	{ NOTE_E3, 134 }, 
	{ NOTE_E4, 134 }, 
	{ NOTE_D4, 134 }, 
	{ NOTE_REST, 536 }, 
	{ NOTE_D4, 134 }, 
	{ NOTE_D4, 133 }, 
	{ NOTE_A5, 134 }, 
	{ NOTE_G5, 134 }, 
	{ NOTE_E5, 134 }, 
	{ NOTE_G5, 134 }, 
	{ NOTE_FS5, 134 }, 
	{ NOTE_D5, 134 }, 
	{ NOTE_FS5, 134 }, 
	{ NOTE_E5, 134 }, 
	{ NOTE_CS5, 134 }, 
	{ NOTE_E5, 134 }, 
	{ NOTE_D5, 134 }, 
	{ NOTE_B4, 134 }, 
	{ NOTE_D5, 134 }, 
	{ NOTE_CS5, 134 }, 
	{ NOTE_A4, 267 }, 
	{ NOTE_E4, 134 }, 
	{ NOTE_D4, 134 }, 
	{ NOTE_E3, 134 }, 
	{ NOTE_E3, 134 }, 
	{ NOTE_E4, 134 }, 
	{ NOTE_D4, 134 }, 
	{ NOTE_E3, 134 }, 
	{ NOTE_E3, 134 }, 
	{ NOTE_E4, 134 }, 
	{ NOTE_D4, 134 }, 
	{ NOTE_REST, 536 }, 
	{ NOTE_E3, 134 }, 
	{ NOTE_E3, 133 }, 
	{ NOTE_E4, 134 }, 
	{ NOTE_D4, 134 }, 
	{ NOTE_E3, 134 }, 
	{ NOTE_E3, 134 }, 
	{ NOTE_E4, 134 }, 
	{ NOTE_D4, 134 }, 
	{ NOTE_E3, 134 }, 
	{ NOTE_E3, 134 }, 
	{ NOTE_E4, 134 }, 
	{ NOTE_D4, 134 }, 
	{ NOTE_REST, 803 }, 
	{ NOTE_E4, 134 }, 
	{ NOTE_D4, 134 }, 
	{ NOTE_E3, 134 }, 
	{ NOTE_E3, 134 }, 
	{ NOTE_E4, 134 }, 
	{ NOTE_D4, 134 }, 
	{ NOTE_E3, 134 }, 
	{ NOTE_E3, 134 }, 
	{ NOTE_E4, 134 }, 
	{ NOTE_D4, 134 }, 
	{ NOTE_REST, 536 }, 
	{ NOTE_D4, 134 }, 
	{ NOTE_D4, 133 }, 
	{ NOTE_A6, 134 }, 
	{ NOTE_G6, 134 }, 
	{ NOTE_E6, 134 }, 
	{ NOTE_G6, 134 }, 
	{ NOTE_FS6, 134 }, 
	{ NOTE_D6, 134 }, 
	{ NOTE_FS6, 134 }, 
	{ NOTE_E6, 134 }, 
	{ NOTE_CS6, 134 }, 
	{ NOTE_E6, 134 }, 
	{ NOTE_D6, 134 }, 
	{ NOTE_B5, 134 }, 
	{ NOTE_D6, 134 }, 
	{ NOTE_CS6, 134 }, 
	{ NOTE_A5, 267 }, 
	{ NOTE_E3, 134 }, 
	{ NOTE_E3, 134 }, 
	{ NOTE_E3, 134 }, 
	{ NOTE_E3, 134 }, 
	{ NOTE_REST, 134 }, 
	{ NOTE_E3, 134 }, 
	{ NOTE_REST, 268 }, 
	{ NOTE_A3, 89 }, 
	{ NOTE_AS3, 89 }, 
	{ NOTE_A3, 89 }, 
	{ NOTE_G3, 268 }, 
	{ NOTE_G3, 134 }, 
	{ NOTE_REST, 134 }, 
	{ NOTE_REST, 268 }, 
};
const uint16_t NUM_OF_NOTES2 = sizeof(melody2)/sizeof(melody2[0]);

const Note melody3[] PROGMEM = {
	{ NOTE_REST, 536 }, 
	{ NOTE_REST, 268 }, 
	{ NOTE_B3, 89 }, 
	{ NOTE_G3, 89 }, 
	{ NOTE_D3, 89 }, 
	{ NOTE_E2, 134 }, 
	{ NOTE_E2, 134 }, 
	{ NOTE_E2, 134 }, 
	{ NOTE_E2, 134 }, 
	{ NOTE_E2, 134 }, 
	{ NOTE_E2, 134 }, 
	{ NOTE_E2, 134 }, 
	{ NOTE_E2, 134 }, 
	{ NOTE_E2, 134 }, 
	{ NOTE_E2, 134 }, 
	{ NOTE_E2, 134 }, 
	{ NOTE_E2, 134 }, 
	{ NOTE_E2, 134 }, 
	{ NOTE_E2, 134 }, 
	{ NOTE_E2, 134 }, 
	{ NOTE_E2, 134 }, 
	{ NOTE_E2, 134 }, 
	{ NOTE_E2, 134 }, 
	{ NOTE_E2, 134 }, 
	{ NOTE_E2, 134 }, 
	{ NOTE_E2, 134 }, 
	{ NOTE_E2, 134 }, 
	{ NOTE_E2, 134 }, 
	{ NOTE_E2, 133 }, 
	{ NOTE_E2, 134 }, 
	{ NOTE_E2, 134 }, 
	{ NOTE_E2, 134 }, 
	{ NOTE_E2, 134 }, 
	{ NOTE_E2, 134 }, 
	{ NOTE_E2, 134 }, 
	{ NOTE_E2, 134 }, 
	{ NOTE_E2, 134 }, 
	{ NOTE_E2, 134 }, 
	{ NOTE_E2, 134 }, 
	{ NOTE_E2, 134 }, 
	{ NOTE_E2, 134 }, 
	{ NOTE_E2, 134 }, 
	{ NOTE_E2, 134 }, 
	{ NOTE_E2, 134 }, 
	{ NOTE_E2, 133 }, 
	{ NOTE_E2, 134 }, 
	{ NOTE_E2, 134 }, 
	{ NOTE_E2, 134 }, 
	{ NOTE_E2, 134 }, 
	{ NOTE_E2, 134 }, 
	{ NOTE_E2, 134 }, 
	{ NOTE_E2, 134 }, 
	{ NOTE_E2, 134 }, 
	{ NOTE_E2, 134 }, 
	{ NOTE_E2, 134 }, 
	{ NOTE_E2, 134 }, 
	{ NOTE_E2, 134 }, 
	{ NOTE_E2, 134 }, 
	{ NOTE_E2, 134 }, 
	{ NOTE_E2, 134 }, 
	{ NOTE_E2, 133 }, 
	{ NOTE_E2, 134 }, 
	{ NOTE_E2, 134 }, 
	{ NOTE_E2, 134 }, 
	{ NOTE_E2, 134 }, 
	{ NOTE_E2, 134 }, 
	{ NOTE_E2, 134 }, 
	{ NOTE_E2, 134 }, 
	{ NOTE_E2, 134 }, 
	{ NOTE_E2, 134 }, 
	{ NOTE_E2, 134 }, 
	{ NOTE_E2, 134 }, 
	{ NOTE_E2, 134 }, 
	{ NOTE_E2, 134 }, 
	{ NOTE_E2, 134 }, 
	{ NOTE_E2, 134 }, 
	{ NOTE_E2, 133 }, 
	{ NOTE_E2, 134 }, 
	{ NOTE_E2, 134 }, 
	{ NOTE_E2, 134 }, 
	{ NOTE_E2, 134 }, 
	{ NOTE_E2, 134 }, 
	{ NOTE_E2, 134 }, 
	{ NOTE_E2, 134 }, 
	{ NOTE_E2, 134 }, 
	{ NOTE_E2, 134 }, 
	{ NOTE_E2, 134 }, 
	{ NOTE_E2, 134 }, 
	{ NOTE_E2, 134 }, 
	{ NOTE_E2, 134 }, 
	{ NOTE_E2, 134 }, 
	{ NOTE_E2, 134 }, 
	{ NOTE_E2, 133 }, 
	{ NOTE_E2, 134 }, 
	{ NOTE_E2, 134 }, 
	{ NOTE_E2, 134 }, 
	{ NOTE_E2, 134 }, 
	{ NOTE_E2, 134 }, 
	{ NOTE_E2, 134 }, 
	{ NOTE_E2, 134 }, 
	{ NOTE_E2, 134 }, 
	{ NOTE_E2, 134 }, 
	{ NOTE_E2, 134 }, 
	{ NOTE_E2, 134 }, 
	{ NOTE_E2, 134 }, 
	{ NOTE_E2, 134 }, 
	{ NOTE_E2, 134 }, 
	{ NOTE_E2, 134 }, 
	{ NOTE_E2, 133 }, 
	{ NOTE_E2, 134 }, 
	{ NOTE_E2, 134 }, 
	{ NOTE_E2, 134 }, 
	{ NOTE_E2, 134 }, 
	{ NOTE_E2, 134 }, 
	{ NOTE_E2, 134 }, 
	{ NOTE_E2, 134 }, 
	{ NOTE_E2, 134 }, 
	{ NOTE_E2, 134 }, 
	{ NOTE_E2, 134 }, 
	{ NOTE_E2, 134 }, 
	{ NOTE_E2, 134 }, 
	{ NOTE_E2, 134 }, 
	{ NOTE_E2, 134 }, 
	{ NOTE_E2, 134 }, 
	{ NOTE_E2, 133 }, 
	{ NOTE_REST, 2143 }, 
	{ NOTE_REST, 2143 }, 
	{ NOTE_REST, 2143 }, 
	{ NOTE_REST, 2143 }, 
	{ NOTE_REST, 2143 }, 
	{ NOTE_REST, 2143 }, 
	{ NOTE_REST, 2143 }, 
	{ NOTE_REST, 2143 }, 
	{ NOTE_REST, 2143 }, 
	{ NOTE_REST, 2143 }, 
	{ NOTE_REST, 2143 }, 
	{ NOTE_REST, 2143 }, 
	{ NOTE_REST, 2143 }, 
	{ NOTE_REST, 2143 }, 
	{ NOTE_REST, 2143 }, 
	{ NOTE_REST, 2143 }, 
	{ NOTE_REST, 2143 }, 
	{ NOTE_REST, 2143 }, 
	{ NOTE_REST, 2143 }, 
	{ NOTE_REST, 2143 }, 
	{ NOTE_REST, 2143 }, 
	{ NOTE_REST, 2143 }, 
	{ NOTE_REST, 2143 }, 
	{ NOTE_REST, 2143 }, 
	{ NOTE_REST, 2143 }, 
	{ NOTE_REST, 2143 }, 
	{ NOTE_REST, 2143 }, 
	{ NOTE_REST, 2143 }, 
	{ NOTE_REST, 2143 }, 
	{ NOTE_REST, 2143 }, 
	{ NOTE_REST, 2143 }, 
	{ NOTE_REST, 2143 }, 
	{ NOTE_REST, 2143 }, 
	{ NOTE_REST, 2143 }, 
	{ NOTE_REST, 2143 }, 
	{ NOTE_REST, 2143 }, 
	{ NOTE_REST, 2143 }, 
	{ NOTE_REST, 2143 }, 
	{ NOTE_REST, 2143 }, 
	{ NOTE_REST, 2143 }, 
	{ NOTE_REST, 2143 }, 
	{ NOTE_REST, 2143 }, 
	{ NOTE_REST, 2143 }, 
	{ NOTE_REST, 2143 }, 
	{ NOTE_REST, 2143 }, 
	{ NOTE_REST, 2143 }, 
	{ NOTE_REST, 2143 }, 
	{ NOTE_REST, 2143 }, 
	{ NOTE_REST, 2143 }, 
	{ NOTE_REST, 2143 }, 
	{ NOTE_REST, 2143 }, 
	{ NOTE_REST, 2143 }, 
	{ NOTE_REST, 2143 }, 
	{ NOTE_REST, 2143 }, 
	{ NOTE_REST, 2143 }, 
	{ NOTE_REST, 2143 }, 
	{ NOTE_REST, 2143 }, 
	{ NOTE_REST, 2143 }, 
	{ NOTE_REST, 2143 }, 
	{ NOTE_REST, 2143 }, 
	{ NOTE_REST, 2143 }, 
	{ NOTE_REST, 2143 }, 
	{ NOTE_REST, 536 }, 
	{ NOTE_B2, 1607 }, 
	{ NOTE_AS3, 268 }, 
	{ NOTE_AS3, 268 }, 
	{ NOTE_AS3, 134 }, 
	{ NOTE_FS3, 2009 }, 
	{ NOTE_E4, 1607 }, 
	{ NOTE_AS4, 268 }, 
	{ NOTE_AS4, 268 }, 
	{ NOTE_AS4, 268 }, 
	{ NOTE_AS4, 134 }, 
	{ NOTE_AS4, 1205 }, 
	{ NOTE_D3, 89 }, 
	{ NOTE_E3, 89 }, 
	{ NOTE_G3, 89 }, 
	{ NOTE_D3, 89 }, 
	{ NOTE_E3, 89 }, 
	{ NOTE_G3, 89 }, 
	{ NOTE_G3, 89 }, 
	{ NOTE_A3, 89 }, 
	{ NOTE_C4, 89 }, 
	{ NOTE_G3, 89 }, 
	{ NOTE_A3, 89 }, 
	{ NOTE_C4, 89 }, 
	{ NOTE_A3, 89 }, 
	{ NOTE_B3, 89 }, 
	{ NOTE_D4, 89 }, 
	{ NOTE_A3, 89 }, 
	{ NOTE_B3, 89 }, 
	{ NOTE_D4, 89 }, 
	{ NOTE_F4, 89 }, 
	{ NOTE_G4, 89 }, 
	{ NOTE_AS4, 89 }, 
	{ NOTE_F4, 89 }, 
	{ NOTE_G4, 89 }, 
	{ NOTE_AS4, 96 }, 
	{ NOTE_A4, 89 }, 
	{ NOTE_B4, 89 }, 
	{ NOTE_D5, 89 }, 
	{ NOTE_A4, 89 }, 
	{ NOTE_B4, 89 }, 
	{ NOTE_D5, 89 }, 
	{ NOTE_D5, 89 }, 
	{ NOTE_E5, 89 }, 
	{ NOTE_G5, 89 }, 
	{ NOTE_E5, 89 }, 
	{ NOTE_D5, 89 }, 
	{ NOTE_D5, 89 }, 
	{ NOTE_E5, 89 }, 
	{ NOTE_G5, 89 }, 
	{ NOTE_E5, 89 }, 
	{ NOTE_D5, 89 }, 
	{ NOTE_G5, 89 }, 
	{ NOTE_D5, 89 }, 
	{ NOTE_G5, 541 }, 
	{ NOTE_REST, 179 }, 
	{ NOTE_E5, 179 }, 
	{ NOTE_FS5, 179 }, 
	{ NOTE_A5, 77 }, 
	{ NOTE_FS5, 77 }, 
	{ NOTE_E5, 153 }, 
	{ NOTE_E5, 77 }, 
	{ NOTE_FS5, 77 }, 
	{ NOTE_A5, 77 }, 
	{ NOTE_FS5, 77 }, 
	{ NOTE_E5, 153 }, 
	{ NOTE_E5, 77 }, 
	{ NOTE_FS5, 77 }, 
	{ NOTE_A5, 77 }, 
	{ NOTE_FS5, 77 }, 
	{ NOTE_E5, 178 }, 
	{ NOTE_E5, 89 }, 
	{ NOTE_FS5, 89 }, 
	{ NOTE_A5, 89 }, 
	{ NOTE_FS5, 85 }, 
	{ NOTE_E5, 153 }, 
	{ NOTE_E5, 77 }, 
	{ NOTE_G5, 77 }, 
	{ NOTE_B5, 77 }, 
	{ NOTE_G5, 77 }, 
	{ NOTE_E5, 77 }, 
	{ NOTE_FS5, 153 }, 
	{ NOTE_G5, 77 }, 
	{ NOTE_B5, 77 }, 
	{ NOTE_G5, 77 }, 
	{ NOTE_E5, 77 }, 
	{ NOTE_FS5, 77 }, 
	{ NOTE_G5, 179 }, 
	{ NOTE_D5, 89 }, 
	{ NOTE_B4, 89 }, 
	{ NOTE_D5, 89 }, 
	{ NOTE_B4, 89 }, 
	{ NOTE_DS5, 179 }, 
	{ NOTE_CS5, 89 }, 
	{ NOTE_G4, 89 }, 
	{ NOTE_A4, 89 }, 
	{ NOTE_G4, 86 }, 
	{ NOTE_AS4, 179 }, 
	{ NOTE_F4, 89 }, 
	{ NOTE_D4, 89 }, 
	{ NOTE_E4, 89 }, 
	{ NOTE_D4, 89 }, 
	{ NOTE_E4, 1339 }, 
	{ NOTE_E4, 269 }, 
	{ NOTE_AS4, 134 }, 
	{ NOTE_E4, 134 }, 
	{ NOTE_AS4, 134 }, 
	{ NOTE_E4, 134 }, 
	{ NOTE_AS4, 1607 }, 
	{ NOTE_REST, 268 }, 
	{ NOTE_D5, 804 }, 
	{ NOTE_G5, 134 }, 
	{ NOTE_D5, 937 }, 
	{ NOTE_E5, 268 }, 
	{ NOTE_AS5, 134 }, 
	{ NOTE_E5, 134 }, 
	{ NOTE_AS5, 134 }, 
	{ NOTE_E5, 134 }, 
	{ NOTE_AS5, 268 }, 
	{ NOTE_AS5, 804 }, 
	{ NOTE_A4, 267 }, 
	{ NOTE_B4, 89 }, 
	{ NOTE_AS4, 89 }, 
	{ NOTE_A4, 89 }, 
	{ NOTE_G4, 89 }, 
	{ NOTE_A4, 89 }, 
	{ NOTE_AS4, 89 }, 
	{ NOTE_B4, 89 }, 
	{ NOTE_AS4, 89 }, 
	{ NOTE_A4, 89 }, 
	{ NOTE_G4, 89 }, 
	{ NOTE_A4, 89 }, 
	{ NOTE_AS4, 89 }, 
	{ NOTE_B4, 89 }, 
	{ NOTE_AS4, 89 }, 
	{ NOTE_A4, 89 }, 
	{ NOTE_G4, 89 }, 
	{ NOTE_A4, 89 }, 
	{ NOTE_AS4, 89 }, 
	{ NOTE_B4, 89 }, 
	{ NOTE_AS4, 89 }, 
	{ NOTE_A4, 89 }, 
	{ NOTE_G4, 89 }, 
	{ NOTE_A4, 89 }, 
	{ NOTE_AS4, 96 }, 
	{ NOTE_G4, 268 }, 
	{ NOTE_E4, 134 }, 
	{ NOTE_G4, 402 }, 
	{ NOTE_E4, 268 }, 
	{ NOTE_D4, 134 }, 
	{ NOTE_E4, 402 }, 
	{ NOTE_FS5, 535 }, 
	{ NOTE_E5, 179 }, 
	{ NOTE_FS5, 179 }, 
	{ NOTE_D5, 179 }, 
	{ NOTE_D5, 179 }, 
	{ NOTE_G5, 179 }, 
	{ NOTE_D5, 179 }, 
	{ NOTE_E5, 179 }, 
	{ NOTE_FS5, 179 }, 
	{ NOTE_D5, 179 }, 
	{ NOTE_E5, 77 }, 
	{ NOTE_CS5, 77 }, 
	{ NOTE_D5, 77 }, 
	{ NOTE_CS5, 77 }, 
	{ NOTE_B4, 77 }, 
	{ NOTE_AS4, 77 }, 
	{ NOTE_B4, 70 }, 
	{ NOTE_A4, 536 }, 
	{ NOTE_B4, 268 }, 
	{ NOTE_G5, 134 }, 
	{ NOTE_B4, 134 }, 
	{ NOTE_D5, 134 }, 
	{ NOTE_B5, 134 }, 
	{ NOTE_DS5, 134 }, 
	{ NOTE_C6, 134 }, 
	{ NOTE_E5, 134 }, 
	{ NOTE_CS6, 134 }, 
	{ NOTE_F5, 134 }, 
	{ NOTE_GS5, 2276 }, 
	{ NOTE_REST, 2143 }, 
	{ NOTE_REST, 2143 }, 
	{ NOTE_REST, 2143 }, 
	{ NOTE_REST, 2143 }, 
	{ NOTE_REST, 2143 }, 
	{ NOTE_REST, 2143 }, 
	{ NOTE_REST, 2143 }, 
	{ NOTE_REST, 2143 }, 
	{ NOTE_REST, 2143 }, 
	{ NOTE_REST, 2143 }, 
	{ NOTE_REST, 2143 }, 
	{ NOTE_REST, 2143 }, 
	{ NOTE_REST, 2143 }, 
	{ NOTE_REST, 2143 }, 
	{ NOTE_REST, 2143 }, 
	{ NOTE_REST, 2143 }, 
	{ NOTE_REST, 2143 }, 
	{ NOTE_REST, 2143 }, 
	{ NOTE_REST, 2143 }, 
	{ NOTE_REST, 2143 }, 
	{ NOTE_REST, 2143 }, 
	{ NOTE_REST, 2143 }, 
	{ NOTE_REST, 2143 }, 
	{ NOTE_REST, 2143 }, 
	{ NOTE_REST, 2143 }, 
	{ NOTE_REST, 2143 }, 
	{ NOTE_REST, 2143 }, 
	{ NOTE_REST, 2143 }, 
	{ NOTE_REST, 2143 }, 
	{ NOTE_REST, 2143 }, 
};
const uint16_t NUM_OF_NOTES3 = sizeof(melody3)/sizeof(melody3[0]);

const Note melody4[] PROGMEM = {
	{ NOTE_REST, 2143 }, 
	{ NOTE_REST, 2143 }, 
	{ NOTE_REST, 2143 }, 
	{ NOTE_REST, 2143 }, 
	{ NOTE_REST, 2143 }, 
	{ NOTE_REST, 2143 }, 
	{ NOTE_REST, 2143 }, 
	{ NOTE_REST, 2143 }, 
	{ NOTE_E3, 134 }, 
	{ NOTE_G3, 134 }, 
	{ NOTE_E3, 134 }, 
	{ NOTE_G3, 134 }, 
	{ NOTE_A3, 134 }, 
	{ NOTE_G3, 134 }, 
	{ NOTE_A3, 134 }, 
	{ NOTE_G3, 134 }, 
	{ NOTE_AS3, 134 }, 
	{ NOTE_G3, 134 }, 
	{ NOTE_A3, 134 }, 
	{ NOTE_G3, 134 }, 
	{ NOTE_A3, 134 }, 
	{ NOTE_B3, 134 }, 
	{ NOTE_D4, 267 }, 
	{ NOTE_E3, 134 }, 
	{ NOTE_G3, 134 }, 
	{ NOTE_E3, 134 }, 
	{ NOTE_G3, 134 }, 
	{ NOTE_A3, 134 }, 
	{ NOTE_G3, 134 }, 
	{ NOTE_A3, 134 }, 
	{ NOTE_G3, 134 }, 
	{ NOTE_AS3, 134 }, 
	{ NOTE_G3, 134 }, 
	{ NOTE_A3, 134 }, 
	{ NOTE_G3, 134 }, 
	{ NOTE_A3, 134 }, 
	{ NOTE_B3, 134 }, 
	{ NOTE_D4, 267 }, 
	{ NOTE_E3, 134 }, 
	{ NOTE_G3, 134 }, 
	{ NOTE_E3, 134 }, 
	{ NOTE_G3, 134 }, 
	{ NOTE_A3, 134 }, 
	{ NOTE_G3, 134 }, 
	{ NOTE_A3, 134 }, 
	{ NOTE_G3, 134 }, 
	{ NOTE_AS3, 134 }, 
	{ NOTE_G3, 134 }, 
	{ NOTE_A3, 134 }, 
	{ NOTE_G3, 134 }, 
	{ NOTE_A3, 134 }, 
	{ NOTE_B3, 134 }, 
	{ NOTE_D4, 267 }, 
	{ NOTE_E3, 134 }, 
	{ NOTE_G3, 134 }, 
	{ NOTE_E3, 134 }, 
	{ NOTE_G3, 134 }, 
	{ NOTE_A3, 134 }, 
	{ NOTE_G3, 134 }, 
	{ NOTE_A3, 134 }, 
	{ NOTE_G3, 134 }, 
	{ NOTE_AS3, 134 }, 
	{ NOTE_A3, 134 }, 
	{ NOTE_G3, 134 }, 
	{ NOTE_E3, 134 }, 
	{ NOTE_REST, 535 }, 
	{ NOTE_E3, 134 }, 
	{ NOTE_G3, 134 }, 
	{ NOTE_E3, 134 }, 
	{ NOTE_G3, 134 }, 
	{ NOTE_A3, 134 }, 
	{ NOTE_G3, 134 }, 
	{ NOTE_A3, 134 }, 
	{ NOTE_G3, 134 }, 
	{ NOTE_AS3, 134 }, 
	{ NOTE_G3, 134 }, 
	{ NOTE_A3, 134 }, 
	{ NOTE_G3, 134 }, 
	{ NOTE_A3, 134 }, 
	{ NOTE_B3, 134 }, 
	{ NOTE_D4, 267 }, 
	{ NOTE_E3, 134 }, 
	{ NOTE_G3, 134 }, 
	{ NOTE_E3, 134 }, 
	{ NOTE_G3, 134 }, 
	{ NOTE_A3, 134 }, 
	{ NOTE_G3, 134 }, 
	{ NOTE_A3, 134 }, 
	{ NOTE_G3, 134 }, 
	{ NOTE_AS3, 134 }, 
	{ NOTE_G3, 134 }, 
	{ NOTE_A3, 134 }, 
	{ NOTE_G3, 134 }, 
	{ NOTE_A3, 134 }, 
	{ NOTE_B3, 134 }, 
	{ NOTE_D4, 267 }, 
	{ NOTE_E3, 134 }, 
	{ NOTE_G3, 134 }, 
	{ NOTE_E3, 134 }, 
	{ NOTE_G3, 134 }, 
	{ NOTE_A3, 134 }, 
	{ NOTE_G3, 134 }, 
	{ NOTE_A3, 134 }, 
	{ NOTE_G3, 134 }, 
	{ NOTE_AS3, 134 }, 
	{ NOTE_G3, 134 }, 
	{ NOTE_A3, 134 }, 
	{ NOTE_G3, 134 }, 
	{ NOTE_A3, 134 }, 
	{ NOTE_B3, 134 }, 
	{ NOTE_D4, 267 }, 
	{ NOTE_E3, 134 }, 
	{ NOTE_G3, 134 }, 
	{ NOTE_E3, 134 }, 
	{ NOTE_G3, 134 }, 
	{ NOTE_A3, 134 }, 
	{ NOTE_G3, 134 }, 
	{ NOTE_A3, 134 }, 
	{ NOTE_G3, 134 }, 
	{ NOTE_AS3, 134 }, 
	{ NOTE_A3, 134 }, 
	{ NOTE_G3, 134 }, 
	{ NOTE_E3, 134 }, 
	{ NOTE_REST, 535 }, 
	{ NOTE_E3, 268 }, 
	{ NOTE_REST, 268 }, 
	{ NOTE_REST, 536 }, 
	{ NOTE_REST, 1071 }, 
	{ NOTE_E3, 268 }, 
	{ NOTE_REST, 268 }, 
	{ NOTE_REST, 536 }, 
	{ NOTE_REST, 1071 }, 
	{ NOTE_E3, 268 }, 
	{ NOTE_REST, 268 }, 
	{ NOTE_REST, 536 }, 
	{ NOTE_REST, 1071 }, 
	{ NOTE_E3, 134 }, 
	{ NOTE_E3, 134 }, 
	{ NOTE_REST, 134 }, 
	{ NOTE_E3, 134 }, 
	{ NOTE_REST, 134 }, 
	{ NOTE_E3, 134 }, 
	{ NOTE_REST, 134 }, 
	{ NOTE_E3, 134 }, 
	{ NOTE_A3, 89 }, 
	{ NOTE_AS3, 89 }, 
	{ NOTE_B3, 89 }, 
	{ NOTE_D4, 268 }, 
	{ NOTE_A3, 89 }, 
	{ NOTE_AS3, 89 }, 
	{ NOTE_B3, 89 }, 
	{ NOTE_D4, 269 }, 
	{ NOTE_E3, 134 }, 
	{ NOTE_E3, 134 }, 
	{ NOTE_REST, 134 }, 
	{ NOTE_E3, 134 }, 
	{ NOTE_REST, 134 }, 
	{ NOTE_E3, 134 }, 
	{ NOTE_REST, 134 }, 
	{ NOTE_E3, 134 }, 
	{ NOTE_REST, 134 }, 
	{ NOTE_E3, 134 }, 
	{ NOTE_REST, 134 }, 
	{ NOTE_E3, 134 }, 
	{ NOTE_A3, 89 }, 
	{ NOTE_AS3, 89 }, 
	{ NOTE_B3, 89 }, 
	{ NOTE_D4, 268 }, 
	{ NOTE_E3, 134 }, 
	{ NOTE_E3, 134 }, 
	{ NOTE_REST, 134 }, 
	{ NOTE_E3, 134 }, 
	{ NOTE_REST, 134 }, 
	{ NOTE_E3, 134 }, 
	{ NOTE_REST, 134 }, 
	{ NOTE_E3, 134 }, 
	{ NOTE_A3, 89 }, 
	{ NOTE_AS3, 89 }, 
	{ NOTE_A3, 89 }, 
	{ NOTE_G3, 134 }, 
	{ NOTE_G3, 134 }, 
	{ NOTE_A3, 89 }, 
	{ NOTE_AS3, 89 }, 
	{ NOTE_A3, 89 }, 
	{ NOTE_G3, 134 }, 
	{ NOTE_E3, 135 }, 
	{ NOTE_E3, 134 }, 
	{ NOTE_E3, 134 }, 
	{ NOTE_REST, 134 }, 
	{ NOTE_E3, 134 }, 
	{ NOTE_REST, 134 }, 
	{ NOTE_E3, 134 }, 
	{ NOTE_REST, 134 }, 
	{ NOTE_E3, 134 }, 
	{ NOTE_REST, 134 }, 
	{ NOTE_E3, 134 }, 
	{ NOTE_REST, 134 }, 
	{ NOTE_E3, 134 }, 
	{ NOTE_A3, 89 }, 
	{ NOTE_AS3, 89 }, 
	{ NOTE_B3, 89 }, 
	{ NOTE_D4, 268 }, 
	{ NOTE_E3, 134 }, 
	{ NOTE_E3, 134 }, 
	{ NOTE_REST, 134 }, 
	{ NOTE_E3, 134 }, 
	{ NOTE_REST, 268 }, 
	{ NOTE_E3, 268 }, 
	{ NOTE_REST, 268 }, 
	{ NOTE_E3, 268 }, 
	{ NOTE_REST, 268 }, 
	{ NOTE_E3, 267 }, 
	{ NOTE_E3, 134 }, 
	{ NOTE_E3, 134 }, 
	{ NOTE_REST, 134 }, 
	{ NOTE_E3, 134 }, 
	{ NOTE_REST, 134 }, 
	{ NOTE_E3, 134 }, 
	{ NOTE_REST, 134 }, 
	{ NOTE_E3, 134 }, 
	{ NOTE_REST, 134 }, 
	{ NOTE_E3, 134 }, 
	{ NOTE_REST, 134 }, 
	{ NOTE_E3, 134 }, 
	{ NOTE_E3, 134 }, 
	{ NOTE_E3, 134 }, 
	{ NOTE_E3, 134 }, 
	{ NOTE_REST, 133 }, 
	{ NOTE_E3, 134 }, 
	{ NOTE_E3, 134 }, 
	{ NOTE_REST, 134 }, 
	{ NOTE_E3, 134 }, 
	{ NOTE_REST, 134 }, 
	{ NOTE_E3, 134 }, 
	{ NOTE_REST, 134 }, 
	{ NOTE_E3, 134 }, 
	{ NOTE_REST, 134 }, 
	{ NOTE_E3, 134 }, 
	{ NOTE_REST, 134 }, 
	{ NOTE_E3, 134 }, 
	{ NOTE_A3, 89 }, 
	{ NOTE_AS3, 89 }, 
	{ NOTE_B3, 89 }, 
	{ NOTE_D4, 268 }, 
	{ NOTE_E3, 134 }, 
	{ NOTE_E3, 134 }, 
	{ NOTE_REST, 134 }, 
	{ NOTE_E3, 134 }, 
	{ NOTE_REST, 134 }, 
	{ NOTE_E3, 134 }, 
	{ NOTE_REST, 134 }, 
	{ NOTE_E3, 134 }, 
	{ NOTE_REST, 134 }, 
	{ NOTE_E3, 134 }, 
	{ NOTE_REST, 134 }, 
	{ NOTE_E3, 134 }, 
	{ NOTE_E3, 134 }, 
	{ NOTE_E3, 134 }, 
	{ NOTE_E3, 134 }, 
	{ NOTE_REST, 133 }, 
	{ NOTE_E3, 134 }, 
	{ NOTE_E3, 134 }, 
	{ NOTE_REST, 134 }, 
	{ NOTE_E3, 134 }, 
	{ NOTE_REST, 134 }, 
	{ NOTE_E3, 134 }, 
	{ NOTE_REST, 134 }, 
	{ NOTE_E3, 134 }, 
	{ NOTE_A3, 89 }, 
	{ NOTE_AS3, 89 }, 
	{ NOTE_B3, 89 }, 
	{ NOTE_G3, 134 }, 
	{ NOTE_G3, 134 }, 
	{ NOTE_A3, 89 }, 
	{ NOTE_AS3, 89 }, 
	{ NOTE_B3, 89 }, 
	{ NOTE_G3, 134 }, 
	{ NOTE_E3, 135 }, 
	{ NOTE_E3, 134 }, 
	{ NOTE_E3, 134 }, 
	{ NOTE_REST, 134 }, 
	{ NOTE_E3, 134 }, 
	{ NOTE_REST, 134 }, 
	{ NOTE_E3, 134 }, 
	{ NOTE_REST, 134 }, 
	{ NOTE_E3, 134 }, 
	{ NOTE_REST, 134 }, 
	{ NOTE_E3, 134 }, 
	{ NOTE_REST, 134 }, 
	{ NOTE_E3, 134 }, 
	{ NOTE_E3, 134 }, 
	{ NOTE_E3, 134 }, 
	{ NOTE_E3, 134 }, 
	{ NOTE_REST, 133 }, 
	{ NOTE_E3, 134 }, 
	{ NOTE_E3, 134 }, 
	{ NOTE_REST, 134 }, 
	{ NOTE_E3, 134 }, 
	{ NOTE_REST, 134 }, 
	{ NOTE_E3, 134 }, 
	{ NOTE_REST, 134 }, 
	{ NOTE_E3, 134 }, 
	{ NOTE_REST, 134 }, 
	{ NOTE_E3, 134 }, 
	{ NOTE_REST, 134 }, 
	{ NOTE_E3, 134 }, 
	{ NOTE_A3, 89 }, 
	{ NOTE_AS3, 89 }, 
	{ NOTE_B3, 89 }, 
	{ NOTE_D4, 268 }, 
	{ NOTE_E3, 134 }, 
	{ NOTE_E3, 134 }, 
	{ NOTE_REST, 134 }, 
	{ NOTE_E3, 134 }, 
	{ NOTE_REST, 134 }, 
	{ NOTE_E3, 134 }, 
	{ NOTE_REST, 134 }, 
	{ NOTE_E3, 134 }, 
	{ NOTE_REST, 134 }, 
	{ NOTE_E3, 134 }, 
	{ NOTE_REST, 134 }, 
	{ NOTE_E3, 134 }, 
	{ NOTE_E3, 134 }, 
	{ NOTE_E3, 134 }, 
	{ NOTE_E3, 134 }, 
	{ NOTE_REST, 133 }, 
	{ NOTE_E3, 134 }, 
	{ NOTE_E3, 134 }, 
	{ NOTE_REST, 134 }, 
	{ NOTE_E3, 134 }, 
	{ NOTE_REST, 134 }, 
	{ NOTE_E3, 134 }, 
	{ NOTE_REST, 134 }, 
	{ NOTE_E3, 134 }, 
	{ NOTE_A3, 89 }, 
	{ NOTE_AS3, 89 }, 
	{ NOTE_B3, 89 }, 
	{ NOTE_G3, 134 }, 
	{ NOTE_G3, 134 }, 
	{ NOTE_A3, 89 }, 
	{ NOTE_AS3, 89 }, 
	{ NOTE_B3, 89 }, 
	{ NOTE_G3, 134 }, 
	{ NOTE_E3, 135 }, 
	{ NOTE_G3, 134 }, 
	{ NOTE_G3, 134 }, 
	{ NOTE_G3, 134 }, 
	{ NOTE_G3, 134 }, 
	{ NOTE_G3, 134 }, 
	{ NOTE_G3, 134 }, 
	{ NOTE_G3, 134 }, 
	{ NOTE_G3, 134 }, 
	{ NOTE_G3, 134 }, 
	{ NOTE_G3, 134 }, 
	{ NOTE_G3, 134 }, 
	{ NOTE_GS3, 268 }, 
	{ NOTE_GS3, 401 }, 
	{ NOTE_G3, 134 }, 
	{ NOTE_G3, 134 }, 
	{ NOTE_G3, 134 }, 
	{ NOTE_G3, 134 }, 
	{ NOTE_G3, 134 }, 
	{ NOTE_G3, 134 }, 
	{ NOTE_G3, 134 }, 
	{ NOTE_G3, 134 }, 
	{ NOTE_G3, 134 }, 
	{ NOTE_AS3, 402 }, 
	{ NOTE_A3, 268 }, 
	{ NOTE_GS3, 267 }, 
	{ NOTE_E3, 134 }, 
	{ NOTE_E3, 134 }, 
	{ NOTE_REST, 134 }, 
	{ NOTE_E3, 134 }, 
	{ NOTE_REST, 134 }, 
	{ NOTE_E3, 134 }, 
	{ NOTE_REST, 134 }, 
	{ NOTE_E3, 134 }, 
	{ NOTE_REST, 134 }, 
	{ NOTE_E3, 134 }, 
	{ NOTE_REST, 134 }, 
	{ NOTE_E3, 134 }, 
	{ NOTE_E3, 134 }, 
	{ NOTE_E3, 134 }, 
	{ NOTE_E3, 134 }, 
	{ NOTE_REST, 133 }, 
	{ NOTE_E3, 134 }, 
	{ NOTE_E3, 134 }, 
	{ NOTE_REST, 134 }, 
	{ NOTE_E3, 134 }, 
	{ NOTE_REST, 134 }, 
	{ NOTE_E3, 134 }, 
	{ NOTE_REST, 134 }, 
	{ NOTE_E3, 134 }, 
	{ NOTE_AS3, 134 }, 
	{ NOTE_A3, 134 }, 
	{ NOTE_G3, 134 }, 
	{ NOTE_E3, 134 }, 
	{ NOTE_REST, 535 }, 
	{ NOTE_E3, 134 }, 
	{ NOTE_G3, 134 }, 
	{ NOTE_E3, 134 }, 
	{ NOTE_G3, 134 }, 
	{ NOTE_A3, 134 }, 
	{ NOTE_G3, 134 }, 
	{ NOTE_A3, 134 }, 
	{ NOTE_G3, 134 }, 
	{ NOTE_AS3, 134 }, 
	{ NOTE_G3, 134 }, 
	{ NOTE_A3, 134 }, 
	{ NOTE_G3, 134 }, 
	{ NOTE_A3, 134 }, 
	{ NOTE_B3, 134 }, 
	{ NOTE_D4, 267 }, 
	{ NOTE_E3, 134 }, 
	{ NOTE_G3, 134 }, 
	{ NOTE_E3, 134 }, 
	{ NOTE_G3, 134 }, 
	{ NOTE_A3, 134 }, 
	{ NOTE_G3, 134 }, 
	{ NOTE_A3, 134 }, 
	{ NOTE_G3, 134 }, 
	{ NOTE_AS3, 134 }, 
	{ NOTE_G3, 134 }, 
	{ NOTE_A3, 134 }, 
	{ NOTE_G3, 134 }, 
	{ NOTE_A3, 134 }, 
	{ NOTE_B3, 134 }, 
	{ NOTE_D4, 267 }, 
	{ NOTE_E3, 134 }, 
	{ NOTE_G3, 134 }, 
	{ NOTE_E3, 134 }, 
	{ NOTE_G3, 134 }, 
	{ NOTE_A3, 134 }, 
	{ NOTE_G3, 134 }, 
	{ NOTE_A3, 134 }, 
	{ NOTE_G3, 134 }, 
	{ NOTE_AS3, 134 }, 
	{ NOTE_G3, 134 }, 
	{ NOTE_A3, 134 }, 
	{ NOTE_G3, 134 }, 
	{ NOTE_A3, 134 }, 
	{ NOTE_B3, 134 }, 
	{ NOTE_D4, 267 }, 
	{ NOTE_E3, 134 }, 
	{ NOTE_G3, 134 }, 
	{ NOTE_E3, 134 }, 
	{ NOTE_G3, 134 }, 
	{ NOTE_A3, 134 }, 
	{ NOTE_G3, 134 }, 
	{ NOTE_A3, 134 }, 
	{ NOTE_G3, 134 }, 
	{ NOTE_AS3, 134 }, 
	{ NOTE_A3, 134 }, 
	{ NOTE_G3, 134 }, 
	{ NOTE_E3, 134 }, 
	{ NOTE_REST, 535 }, 
	{ NOTE_E3, 134 }, 
	{ NOTE_G3, 134 }, 
	{ NOTE_E3, 134 }, 
	{ NOTE_G3, 134 }, 
	{ NOTE_A3, 134 }, 
	{ NOTE_G3, 134 }, 
	{ NOTE_A3, 134 }, 
	{ NOTE_G3, 134 }, 
	{ NOTE_AS3, 134 }, 
	{ NOTE_G3, 134 }, 
	{ NOTE_A3, 134 }, 
	{ NOTE_G3, 134 }, 
	{ NOTE_A3, 134 }, 
	{ NOTE_B3, 134 }, 
	{ NOTE_D4, 267 }, 
	{ NOTE_E3, 134 }, 
	{ NOTE_G3, 134 }, 
	{ NOTE_E3, 134 }, 
	{ NOTE_G3, 134 }, 
	{ NOTE_A3, 134 }, 
	{ NOTE_G3, 134 }, 
	{ NOTE_A3, 134 }, 
	{ NOTE_G3, 134 }, 
	{ NOTE_AS3, 134 }, 
	{ NOTE_G3, 134 }, 
	{ NOTE_A3, 134 }, 
	{ NOTE_G3, 134 }, 
	{ NOTE_A3, 134 }, 
	{ NOTE_B3, 134 }, 
	{ NOTE_D4, 267 }, 
	{ NOTE_E3, 134 }, 
	{ NOTE_G3, 134 }, 
	{ NOTE_E3, 134 }, 
	{ NOTE_G3, 134 }, 
	{ NOTE_A3, 134 }, 
	{ NOTE_G3, 134 }, 
	{ NOTE_A3, 134 }, 
	{ NOTE_G3, 134 }, 
	{ NOTE_AS3, 134 }, 
	{ NOTE_G3, 134 }, 
	{ NOTE_A3, 134 }, 
	{ NOTE_G3, 134 }, 
	{ NOTE_A3, 134 }, 
	{ NOTE_B3, 134 }, 
	{ NOTE_D4, 267 }, 
	{ NOTE_E3, 134 }, 
	{ NOTE_G3, 134 }, 
	{ NOTE_E3, 134 }, 
	{ NOTE_G3, 134 }, 
	{ NOTE_A3, 134 }, 
	{ NOTE_G3, 134 }, 
	{ NOTE_A3, 134 }, 
	{ NOTE_G3, 134 }, 
	{ NOTE_AS3, 134 }, 
	{ NOTE_A3, 134 }, 
	{ NOTE_G3, 134 }, 
	{ NOTE_E3, 134 }, 
	{ NOTE_REST, 535 }, 
	{ NOTE_E3, 268 }, 
	{ NOTE_REST, 268 }, 
	{ NOTE_REST, 536 }, 
	{ NOTE_REST, 1071 }, 
	{ NOTE_E3, 134 }, 
	{ NOTE_E3, 134 }, 
	{ NOTE_REST, 134 }, 
	{ NOTE_E3, 134 }, 
	{ NOTE_REST, 134 }, 
	{ NOTE_E3, 134 }, 
	{ NOTE_REST, 134 }, 
	{ NOTE_E3, 134 }, 
	{ NOTE_A3, 89 }, 
	{ NOTE_AS3, 89 }, 
	{ NOTE_B3, 89 }, 
	{ NOTE_D4, 268 }, 
	{ NOTE_A3, 89 }, 
	{ NOTE_AS3, 89 }, 
	{ NOTE_B3, 89 }, 
	{ NOTE_D4, 269 }, 
	{ NOTE_E3, 134 }, 
	{ NOTE_E3, 134 }, 
	{ NOTE_REST, 134 }, 
	{ NOTE_E3, 134 }, 
	{ NOTE_REST, 134 }, 
	{ NOTE_E3, 134 }, 
	{ NOTE_REST, 134 }, 
	{ NOTE_E3, 134 }, 
	{ NOTE_REST, 134 }, 
	{ NOTE_E3, 134 }, 
	{ NOTE_REST, 134 }, 
	{ NOTE_E3, 134 }, 
	{ NOTE_A3, 89 }, 
	{ NOTE_AS3, 89 }, 
	{ NOTE_B3, 89 }, 
	{ NOTE_D4, 268 }, 
	{ NOTE_E3, 134 }, 
	{ NOTE_E3, 134 }, 
	{ NOTE_REST, 134 }, 
	{ NOTE_E3, 134 }, 
	{ NOTE_REST, 134 }, 
	{ NOTE_E3, 134 }, 
	{ NOTE_REST, 134 }, 
	{ NOTE_E3, 134 }, 
	{ NOTE_A3, 89 }, 
	{ NOTE_AS3, 89 }, 
	{ NOTE_A3, 89 }, 
	{ NOTE_G3, 134 }, 
	{ NOTE_G3, 134 }, 
	{ NOTE_A3, 89 }, 
	{ NOTE_AS3, 89 }, 
	{ NOTE_A3, 89 }, 
	{ NOTE_G3, 134 }, 
	{ NOTE_E3, 135 }, 
	{ NOTE_E3, 134 }, 
	{ NOTE_E3, 134 }, 
	{ NOTE_REST, 134 }, 
	{ NOTE_E3, 134 }, 
	{ NOTE_REST, 134 }, 
	{ NOTE_E3, 134 }, 
	{ NOTE_REST, 134 }, 
	{ NOTE_E3, 134 }, 
	{ NOTE_REST, 134 }, 
	{ NOTE_E3, 134 }, 
	{ NOTE_REST, 134 }, 
	{ NOTE_E3, 134 }, 
	{ NOTE_A3, 89 }, 
	{ NOTE_AS3, 89 }, 
	{ NOTE_B3, 89 }, 
	{ NOTE_D4, 268 }, 
	{ NOTE_E3, 134 }, 
	{ NOTE_E3, 134 }, 
	{ NOTE_REST, 134 }, 
	{ NOTE_E3, 134 }, 
	{ NOTE_REST, 268 }, 
	{ NOTE_E3, 268 }, 
	{ NOTE_REST, 268 }, 
	{ NOTE_E3, 268 }, 
	{ NOTE_REST, 268 }, 
	{ NOTE_E3, 267 }, 
	{ NOTE_E3, 134 }, 
	{ NOTE_E3, 134 }, 
	{ NOTE_REST, 134 }, 
	{ NOTE_E3, 134 }, 
	{ NOTE_REST, 134 }, 
	{ NOTE_E3, 134 }, 
	{ NOTE_REST, 134 }, 
	{ NOTE_E3, 134 }, 
	{ NOTE_REST, 134 }, 
	{ NOTE_E3, 134 }, 
	{ NOTE_REST, 134 }, 
	{ NOTE_E3, 134 }, 
	{ NOTE_E3, 134 }, 
	{ NOTE_E3, 134 }, 
	{ NOTE_E3, 134 }, 
	{ NOTE_REST, 133 }, 
	{ NOTE_E3, 134 }, 
	{ NOTE_E3, 134 }, 
	{ NOTE_REST, 134 }, 
	{ NOTE_E3, 134 }, 
	{ NOTE_REST, 134 }, 
	{ NOTE_E3, 134 }, 
	{ NOTE_REST, 134 }, 
	{ NOTE_E3, 134 }, 
	{ NOTE_REST, 134 }, 
	{ NOTE_E3, 134 }, 
	{ NOTE_REST, 134 }, 
	{ NOTE_E3, 134 }, 
	{ NOTE_A3, 89 }, 
	{ NOTE_AS3, 89 }, 
	{ NOTE_B3, 89 }, 
	{ NOTE_D4, 268 }, 
	{ NOTE_E3, 134 }, 
	{ NOTE_E3, 134 }, 
	{ NOTE_REST, 134 }, 
	{ NOTE_E3, 134 }, 
	{ NOTE_REST, 134 }, 
	{ NOTE_E3, 134 }, 
	{ NOTE_REST, 134 }, 
	{ NOTE_E3, 134 }, 
	{ NOTE_REST, 134 }, 
	{ NOTE_E3, 134 }, 
	{ NOTE_REST, 134 }, 
	{ NOTE_E3, 134 }, 
	{ NOTE_E3, 134 }, 
	{ NOTE_E3, 134 }, 
	{ NOTE_E3, 134 }, 
	{ NOTE_REST, 133 }, 
	{ NOTE_E3, 134 }, 
	{ NOTE_E3, 134 }, 
	{ NOTE_REST, 134 }, 
	{ NOTE_E3, 134 }, 
	{ NOTE_REST, 134 }, 
	{ NOTE_E3, 134 }, 
	{ NOTE_REST, 134 }, 
	{ NOTE_E3, 134 }, 
	{ NOTE_A3, 89 }, 
	{ NOTE_AS3, 89 }, 
	{ NOTE_B3, 89 }, 
	{ NOTE_G3, 134 }, 
	{ NOTE_G3, 134 }, 
	{ NOTE_A3, 89 }, 
	{ NOTE_AS3, 89 }, 
	{ NOTE_B3, 89 }, 
	{ NOTE_G3, 134 }, 
	{ NOTE_E3, 135 }, 
	{ NOTE_E3, 134 }, 
	{ NOTE_E3, 134 }, 
	{ NOTE_REST, 134 }, 
	{ NOTE_E3, 134 }, 
	{ NOTE_REST, 134 }, 
	{ NOTE_E3, 134 }, 
	{ NOTE_REST, 134 }, 
	{ NOTE_E3, 134 }, 
	{ NOTE_REST, 134 }, 
	{ NOTE_E3, 134 }, 
	{ NOTE_REST, 134 }, 
	{ NOTE_E3, 134 }, 
	{ NOTE_E3, 134 }, 
	{ NOTE_E3, 134 }, 
	{ NOTE_E3, 134 }, 
	{ NOTE_REST, 133 }, 
	{ NOTE_E3, 134 }, 
	{ NOTE_E3, 134 }, 
	{ NOTE_REST, 134 }, 
	{ NOTE_E3, 134 }, 
	{ NOTE_REST, 134 }, 
	{ NOTE_E3, 134 }, 
	{ NOTE_REST, 134 }, 
	{ NOTE_E3, 134 }, 
	{ NOTE_REST, 134 }, 
	{ NOTE_E3, 134 }, 
	{ NOTE_REST, 134 }, 
	{ NOTE_E3, 134 }, 
	{ NOTE_A3, 89 }, 
	{ NOTE_AS3, 89 }, 
	{ NOTE_B3, 89 }, 
	{ NOTE_D4, 268 }, 
	{ NOTE_E3, 134 }, 
	{ NOTE_E3, 134 }, 
	{ NOTE_REST, 134 }, 
	{ NOTE_E3, 134 }, 
	{ NOTE_REST, 134 }, 
	{ NOTE_E3, 134 }, 
	{ NOTE_REST, 134 }, 
	{ NOTE_E3, 134 }, 
	{ NOTE_REST, 134 }, 
	{ NOTE_E3, 134 }, 
	{ NOTE_REST, 134 }, 
	{ NOTE_E3, 134 }, 
	{ NOTE_E3, 134 }, 
	{ NOTE_E3, 134 }, 
	{ NOTE_E3, 134 }, 
	{ NOTE_REST, 133 }, 
	{ NOTE_E3, 134 }, 
	{ NOTE_E3, 134 }, 
	{ NOTE_REST, 134 }, 
	{ NOTE_E3, 134 }, 
	{ NOTE_REST, 134 }, 
	{ NOTE_E3, 134 }, 
	{ NOTE_REST, 134 }, 
	{ NOTE_E3, 134 }, 
	{ NOTE_A3, 89 }, 
	{ NOTE_AS3, 89 }, 
	{ NOTE_B3, 89 }, 
	{ NOTE_G3, 134 }, 
	{ NOTE_G3, 134 }, 
	{ NOTE_A3, 89 }, 
	{ NOTE_AS3, 89 }, 
	{ NOTE_B3, 89 }, 
	{ NOTE_G3, 134 }, 
	{ NOTE_E3, 135 }, 
	{ NOTE_G3, 134 }, 
	{ NOTE_G3, 134 }, 
	{ NOTE_G3, 134 }, 
	{ NOTE_G3, 134 }, 
	{ NOTE_G3, 134 }, 
	{ NOTE_G3, 134 }, 
	{ NOTE_G3, 134 }, 
	{ NOTE_G3, 134 }, 
	{ NOTE_G3, 134 }, 
	{ NOTE_G3, 134 }, 
	{ NOTE_G3, 134 }, 
	{ NOTE_GS3, 268 }, 
	{ NOTE_GS3, 401 }, 
	{ NOTE_G3, 134 }, 
	{ NOTE_G3, 134 }, 
	{ NOTE_G3, 134 }, 
	{ NOTE_G3, 134 }, 
	{ NOTE_G3, 134 }, 
	{ NOTE_G3, 134 }, 
	{ NOTE_G3, 134 }, 
	{ NOTE_G3, 134 }, 
	{ NOTE_G3, 134 }, 
	{ NOTE_AS3, 402 }, 
	{ NOTE_A3, 268 }, 
	{ NOTE_GS3, 267 }, 
	{ NOTE_E3, 134 }, 
	{ NOTE_E3, 134 }, 
	{ NOTE_REST, 134 }, 
	{ NOTE_E3, 134 }, 
	{ NOTE_REST, 134 }, 
	{ NOTE_E3, 134 }, 
	{ NOTE_REST, 134 }, 
	{ NOTE_E3, 134 }, 
	{ NOTE_REST, 134 }, 
	{ NOTE_E3, 134 }, 
	{ NOTE_REST, 134 }, 
	{ NOTE_E3, 134 }, 
	{ NOTE_E3, 134 }, 
	{ NOTE_E3, 134 }, 
	{ NOTE_E3, 134 }, 
	{ NOTE_REST, 133 }, 
	{ NOTE_E3, 134 }, 
	{ NOTE_E3, 134 }, 
	{ NOTE_REST, 134 }, 
	{ NOTE_E3, 134 }, 
	{ NOTE_REST, 134 }, 
	{ NOTE_E3, 134 }, 
	{ NOTE_REST, 134 }, 
	{ NOTE_E3, 134 }, 
	{ NOTE_AS3, 134 }, 
	{ NOTE_A3, 134 }, 
	{ NOTE_G3, 134 }, 
	{ NOTE_E3, 134 }, 
	{ NOTE_REST, 535 }, 
	{ NOTE_E3, 134 }, 
	{ NOTE_G3, 134 }, 
	{ NOTE_E3, 134 }, 
	{ NOTE_G3, 134 }, 
	{ NOTE_A3, 134 }, 
	{ NOTE_G3, 134 }, 
	{ NOTE_A3, 134 }, 
	{ NOTE_G3, 134 }, 
	{ NOTE_AS3, 134 }, 
	{ NOTE_G3, 134 }, 
	{ NOTE_A3, 134 }, 
	{ NOTE_G3, 134 }, 
	{ NOTE_A3, 134 }, 
	{ NOTE_B3, 134 }, 
	{ NOTE_D4, 267 }, 
	{ NOTE_E3, 134 }, 
	{ NOTE_G3, 134 }, 
	{ NOTE_E3, 134 }, 
	{ NOTE_G3, 134 }, 
	{ NOTE_A3, 134 }, 
	{ NOTE_G3, 134 }, 
	{ NOTE_A3, 134 }, 
	{ NOTE_G3, 134 }, 
	{ NOTE_AS3, 134 }, 
	{ NOTE_G3, 134 }, 
	{ NOTE_A3, 134 }, 
	{ NOTE_G3, 134 }, 
	{ NOTE_A3, 134 }, 
	{ NOTE_B3, 134 }, 
	{ NOTE_D4, 267 }, 
	{ NOTE_E3, 134 }, 
	{ NOTE_G3, 134 }, 
	{ NOTE_E3, 134 }, 
	{ NOTE_G3, 134 }, 
	{ NOTE_A3, 134 }, 
	{ NOTE_G3, 134 }, 
	{ NOTE_A3, 134 }, 
	{ NOTE_G3, 134 }, 
	{ NOTE_AS3, 134 }, 
	{ NOTE_G3, 134 }, 
	{ NOTE_A3, 134 }, 
	{ NOTE_G3, 134 }, 
	{ NOTE_A3, 134 }, 
	{ NOTE_B3, 134 }, 
	{ NOTE_D4, 267 }, 
	{ NOTE_E3, 134 }, 
	{ NOTE_G3, 134 }, 
	{ NOTE_E3, 134 }, 
	{ NOTE_G3, 134 }, 
	{ NOTE_A3, 134 }, 
	{ NOTE_G3, 134 }, 
	{ NOTE_A3, 134 }, 
	{ NOTE_G3, 134 }, 
	{ NOTE_AS3, 134 }, 
	{ NOTE_A3, 134 }, 
	{ NOTE_G3, 134 }, 
	{ NOTE_E3, 134 }, 
	{ NOTE_REST, 535 }, 
	{ NOTE_E3, 134 }, 
	{ NOTE_G3, 134 }, 
	{ NOTE_E3, 134 }, 
	{ NOTE_G3, 134 }, 
	{ NOTE_A3, 134 }, 
	{ NOTE_G3, 134 }, 
	{ NOTE_A3, 134 }, 
	{ NOTE_G3, 134 }, 
	{ NOTE_AS3, 134 }, 
	{ NOTE_G3, 134 }, 
	{ NOTE_A3, 134 }, 
	{ NOTE_G3, 134 }, 
	{ NOTE_A3, 134 }, 
	{ NOTE_B3, 134 }, 
	{ NOTE_D4, 267 }, 
	{ NOTE_E3, 134 }, 
	{ NOTE_G3, 134 }, 
	{ NOTE_E3, 134 }, 
	{ NOTE_G3, 134 }, 
	{ NOTE_A3, 134 }, 
	{ NOTE_G3, 134 }, 
	{ NOTE_A3, 134 }, 
	{ NOTE_G3, 134 }, 
	{ NOTE_AS3, 134 }, 
	{ NOTE_G3, 134 }, 
	{ NOTE_A3, 134 }, 
	{ NOTE_G3, 134 }, 
	{ NOTE_A3, 134 }, 
	{ NOTE_B3, 134 }, 
	{ NOTE_D4, 267 }, 
	{ NOTE_E3, 134 }, 
	{ NOTE_G3, 134 }, 
	{ NOTE_E3, 134 }, 
	{ NOTE_G3, 134 }, 
	{ NOTE_A3, 134 }, 
	{ NOTE_G3, 134 }, 
	{ NOTE_A3, 134 }, 
	{ NOTE_G3, 134 }, 
	{ NOTE_AS3, 134 }, 
	{ NOTE_G3, 134 }, 
	{ NOTE_A3, 134 }, 
	{ NOTE_G3, 134 }, 
	{ NOTE_A3, 134 }, 
	{ NOTE_B3, 134 }, 
	{ NOTE_D4, 267 }, 
	{ NOTE_E3, 134 }, 
	{ NOTE_G3, 134 }, 
	{ NOTE_E3, 134 }, 
	{ NOTE_G3, 134 }, 
	{ NOTE_A3, 134 }, 
	{ NOTE_G3, 134 }, 
	{ NOTE_A3, 134 }, 
	{ NOTE_G3, 134 }, 
	{ NOTE_E3, 134 }, 
	{ NOTE_G3, 402 }, 
	{ NOTE_FS3, 268 }, 
	{ NOTE_F3, 267 }, 
	{ NOTE_REST, 268 }, 
	{ NOTE_E3, 268 }, 
	{ NOTE_REST, 268 }, 
	{ NOTE_E3, 268 }, 
	{ NOTE_REST, 268 }, 
	{ NOTE_E3, 268 }, 
	{ NOTE_REST, 268 }, 
	{ NOTE_E3, 267 }, 
	{ NOTE_REST, 268 }, 
	{ NOTE_C4, 268 }, 
	{ NOTE_REST, 268 }, 
	{ NOTE_C4, 268 }, 
	{ NOTE_REST, 268 }, 
	{ NOTE_C4, 268 }, 
	{ NOTE_REST, 268 }, 
	{ NOTE_C4, 267 }, 
	{ NOTE_REST, 268 }, 
	{ NOTE_CS4, 268 }, 
	{ NOTE_REST, 268 }, 
	{ NOTE_CS4, 268 }, 
	{ NOTE_REST, 268 }, 
	{ NOTE_CS4, 268 }, 
	{ NOTE_REST, 268 }, 
	{ NOTE_CS4, 267 }, 
	{ NOTE_REST, 268 }, 
	{ NOTE_D4, 268 }, 
	{ NOTE_REST, 268 }, 
	{ NOTE_D4, 268 }, 
	{ NOTE_REST, 134 }, 
	{ NOTE_AS3, 402 }, 
	{ NOTE_A3, 268 }, 
	{ NOTE_G3, 267 }, 
	{ NOTE_REST, 268 }, 
	{ NOTE_E3, 268 }, 
	{ NOTE_REST, 268 }, 
	{ NOTE_E3, 268 }, 
	{ NOTE_REST, 268 }, 
	{ NOTE_E3, 268 }, 
	{ NOTE_REST, 268 }, 
	{ NOTE_E3, 267 }, 
	{ NOTE_REST, 268 }, 
	{ NOTE_C4, 268 }, 
	{ NOTE_REST, 268 }, 
	{ NOTE_C4, 268 }, 
	{ NOTE_REST, 268 }, 
	{ NOTE_C4, 268 }, 
	{ NOTE_REST, 268 }, 
	{ NOTE_C4, 267 }, 
	{ NOTE_REST, 268 }, 
	{ NOTE_CS4, 268 }, 
	{ NOTE_REST, 268 }, 
	{ NOTE_CS4, 268 }, 
	{ NOTE_REST, 268 }, 
	{ NOTE_CS4, 268 }, 
	{ NOTE_REST, 268 }, 
	{ NOTE_CS4, 267 }, 
	{ NOTE_REST, 268 }, 
	{ NOTE_D4, 268 }, 
	{ NOTE_REST, 268 }, 
	{ NOTE_D4, 268 }, 
	{ NOTE_REST, 134 }, 
	{ NOTE_AS3, 402 }, 
	{ NOTE_A3, 268 }, 
	{ NOTE_G3, 267 }, 
	{ NOTE_REST, 268 }, 
	{ NOTE_E3, 268 }, 
	{ NOTE_REST, 268 }, 
	{ NOTE_E3, 268 }, 
	{ NOTE_REST, 268 }, 
	{ NOTE_E3, 268 }, 
	{ NOTE_REST, 268 }, 
	{ NOTE_E3, 267 }, 
	{ NOTE_REST, 268 }, 
	{ NOTE_C4, 268 }, 
	{ NOTE_REST, 268 }, 
	{ NOTE_C4, 268 }, 
	{ NOTE_REST, 268 }, 
	{ NOTE_C4, 268 }, 
	{ NOTE_REST, 268 }, 
	{ NOTE_C4, 267 }, 
	{ NOTE_REST, 268 }, 
	{ NOTE_CS4, 268 }, 
	{ NOTE_REST, 268 }, 
	{ NOTE_CS4, 268 }, 
	{ NOTE_REST, 268 }, 
	{ NOTE_CS4, 268 }, 
	{ NOTE_REST, 268 }, 
	{ NOTE_CS4, 267 }, 
	{ NOTE_REST, 268 }, 
	{ NOTE_D4, 268 }, 
	{ NOTE_REST, 268 }, 
	{ NOTE_D4, 268 }, 
	{ NOTE_REST, 134 }, 
	{ NOTE_AS3, 402 }, 
	{ NOTE_A3, 268 }, 
	{ NOTE_G3, 267 }, 
	{ NOTE_REST, 268 }, 
	{ NOTE_E3, 268 }, 
	{ NOTE_REST, 268 }, 
	{ NOTE_E3, 268 }, 
	{ NOTE_REST, 268 }, 
	{ NOTE_E3, 268 }, 
	{ NOTE_REST, 268 }, 
	{ NOTE_E3, 267 }, 
	{ NOTE_REST, 268 }, 
	{ NOTE_C4, 268 }, 
	{ NOTE_REST, 268 }, 
	{ NOTE_C4, 268 }, 
	{ NOTE_REST, 268 }, 
	{ NOTE_C4, 268 }, 
	{ NOTE_REST, 268 }, 
	{ NOTE_C4, 267 }, 
	{ NOTE_REST, 268 }, 
	{ NOTE_CS4, 268 }, 
	{ NOTE_REST, 268 }, 
	{ NOTE_CS4, 268 }, 
	{ NOTE_REST, 268 }, 
	{ NOTE_CS4, 268 }, 
	{ NOTE_REST, 268 }, 
	{ NOTE_CS4, 267 }, 
	{ NOTE_REST, 268 }, 
	{ NOTE_D4, 268 }, 
	{ NOTE_REST, 268 }, 
	{ NOTE_D4, 268 }, 
	{ NOTE_REST, 134 }, 
	{ NOTE_AS3, 402 }, 
	{ NOTE_A3, 268 }, 
	{ NOTE_G3, 267 }, 
	{ NOTE_E4, 134 }, 
	{ NOTE_D4, 134 }, 
	{ NOTE_E3, 134 }, 
	{ NOTE_E3, 134 }, 
	{ NOTE_E3, 134 }, 
	{ NOTE_E3, 134 }, 
	{ NOTE_E3, 134 }, 
	{ NOTE_E3, 134 }, 
	{ NOTE_E4, 134 }, 
	{ NOTE_D4, 134 }, 
	{ NOTE_D4, 134 }, 
	{ NOTE_E4, 402 }, 
	{ NOTE_E3, 134 }, 
	{ NOTE_E3, 133 }, 
	{ NOTE_E4, 134 }, 
	{ NOTE_D4, 134 }, 
	{ NOTE_E3, 134 }, 
	{ NOTE_E3, 134 }, 
	{ NOTE_E3, 134 }, 
	{ NOTE_E3, 134 }, 
	{ NOTE_E3, 134 }, 
	{ NOTE_E3, 134 }, 
	{ NOTE_E4, 134 }, 
	{ NOTE_D4, 134 }, 
	{ NOTE_A4, 134 }, 
	{ NOTE_AS4, 134 }, 
	{ NOTE_A4, 268 }, 
	{ NOTE_E3, 134 }, 
	{ NOTE_E3, 133 }, 
	{ NOTE_E4, 134 }, 
	{ NOTE_D4, 134 }, 
	{ NOTE_E3, 134 }, 
	{ NOTE_E3, 134 }, 
	{ NOTE_E3, 134 }, 
	{ NOTE_E3, 134 }, 
	{ NOTE_E3, 134 }, 
	{ NOTE_E3, 134 }, 
	{ NOTE_E4, 134 }, 
	{ NOTE_D4, 134 }, 
	{ NOTE_A4, 134 }, 
	{ NOTE_AS4, 134 }, 
	{ NOTE_A4, 268 }, 
	{ NOTE_E3, 134 }, 
	{ NOTE_E3, 133 }, 
	{ NOTE_A5, 134 }, 
	{ NOTE_G5, 134 }, 
	{ NOTE_E5, 134 }, 
	{ NOTE_G5, 134 }, 
	{ NOTE_FS5, 134 }, 
	{ NOTE_D5, 134 }, 
	{ NOTE_FS5, 134 }, 
	{ NOTE_E5, 134 }, 
	{ NOTE_CS5, 134 }, 
	{ NOTE_E5, 134 }, 
	{ NOTE_D5, 134 }, 
	{ NOTE_B4, 134 }, 
	{ NOTE_D5, 134 }, 
	{ NOTE_CS5, 134 }, 
	{ NOTE_A4, 267 }, 
	{ NOTE_E4, 134 }, 
	{ NOTE_D4, 134 }, 
	{ NOTE_E3, 134 }, 
	{ NOTE_E3, 134 }, 
	{ NOTE_E3, 134 }, 
	{ NOTE_E3, 134 }, 
	{ NOTE_E3, 134 }, 
	{ NOTE_E3, 134 }, 
	{ NOTE_E4, 134 }, 
	{ NOTE_D4, 134 }, 
	{ NOTE_D4, 134 }, 
	{ NOTE_E4, 402 }, 
	{ NOTE_E3, 134 }, 
	{ NOTE_E3, 133 }, 
	{ NOTE_E4, 134 }, 
	{ NOTE_D4, 134 }, 
	{ NOTE_E3, 134 }, 
	{ NOTE_E3, 134 }, 
	{ NOTE_E3, 134 }, 
	{ NOTE_E3, 134 }, 
	{ NOTE_E3, 134 }, 
	{ NOTE_E3, 134 }, 
	{ NOTE_E4, 134 }, 
	{ NOTE_D4, 134 }, 
	{ NOTE_A4, 134 }, 
	{ NOTE_AS4, 134 }, 
	{ NOTE_A4, 268 }, 
	{ NOTE_E3, 134 }, 
	{ NOTE_E3, 133 }, 
	{ NOTE_E4, 134 }, 
	{ NOTE_D4, 134 }, 
	{ NOTE_E3, 134 }, 
	{ NOTE_E3, 134 }, 
	{ NOTE_E3, 134 }, 
	{ NOTE_E3, 134 }, 
	{ NOTE_E3, 134 }, 
	{ NOTE_E3, 134 }, 
	{ NOTE_E4, 134 }, 
	{ NOTE_D4, 134 }, 
	{ NOTE_A4, 134 }, 
	{ NOTE_AS4, 134 }, 
	{ NOTE_A4, 268 }, 
	{ NOTE_E3, 134 }, 
	{ NOTE_E3, 133 }, 
	{ NOTE_A5, 134 }, 
	{ NOTE_G5, 134 }, 
	{ NOTE_E5, 134 }, 
	{ NOTE_G5, 134 }, 
	{ NOTE_FS5, 134 }, 
	{ NOTE_D5, 134 }, 
	{ NOTE_FS5, 134 }, 
	{ NOTE_E5, 134 }, 
	{ NOTE_CS5, 134 }, 
	{ NOTE_E5, 134 }, 
	{ NOTE_D5, 134 }, 
	{ NOTE_B4, 134 }, 
	{ NOTE_D5, 134 }, 
	{ NOTE_CS5, 134 }, 
	{ NOTE_A4, 267 }, 
	{ NOTE_E3, 268 }, 
	{ NOTE_REST, 268 }, 
	{ NOTE_E4, 1607 }, 
	{ NOTE_E3, 268 }, 
	{ NOTE_REST, 268 }, 
	{ NOTE_E4, 536 }, 
	{ NOTE_E3, 268 }, 
	{ NOTE_E3, 268 }, 
	{ NOTE_REST, 535 }, 
	{ NOTE_E3, 268 }, 
	{ NOTE_REST, 268 }, 
	{ NOTE_E4, 536 }, 
	{ NOTE_E3, 268 }, 
	{ NOTE_E3, 268 }, 
	{ NOTE_REST, 535 }, 
	{ NOTE_E3, 268 }, 
	{ NOTE_REST, 268 }, 
	{ NOTE_E4, 536 }, 
	{ NOTE_AS3, 134 }, 
	{ NOTE_A3, 134 }, 
	{ NOTE_G3, 134 }, 
	{ NOTE_E3, 669 }, 
	{ NOTE_E3, 134 }, 
	{ NOTE_G3, 134 }, 
	{ NOTE_E3, 134 }, 
	{ NOTE_G3, 134 }, 
	{ NOTE_A3, 134 }, 
	{ NOTE_G3, 134 }, 
	{ NOTE_A3, 134 }, 
	{ NOTE_G3, 134 }, 
	{ NOTE_AS3, 134 }, 
	{ NOTE_G3, 134 }, 
	{ NOTE_A3, 134 }, 
	{ NOTE_G3, 134 }, 
	{ NOTE_A3, 134 }, 
	{ NOTE_B3, 134 }, 
	{ NOTE_D4, 267 }, 
	{ NOTE_E3, 134 }, 
	{ NOTE_G3, 134 }, 
	{ NOTE_E3, 134 }, 
	{ NOTE_G3, 134 }, 
	{ NOTE_A3, 134 }, 
	{ NOTE_G3, 134 }, 
	{ NOTE_A3, 134 }, 
	{ NOTE_G3, 134 }, 
	{ NOTE_AS3, 134 }, 
	{ NOTE_G3, 134 }, 
	{ NOTE_A3, 134 }, 
	{ NOTE_G3, 134 }, 
	{ NOTE_A3, 134 }, 
	{ NOTE_B3, 134 }, 
	{ NOTE_D4, 267 }, 
	{ NOTE_E3, 134 }, 
	{ NOTE_G3, 134 }, 
	{ NOTE_E3, 134 }, 
	{ NOTE_G3, 134 }, 
	{ NOTE_A3, 134 }, 
	{ NOTE_G3, 134 }, 
	{ NOTE_A3, 134 }, 
	{ NOTE_G3, 134 }, 
	{ NOTE_AS3, 134 }, 
	{ NOTE_G3, 134 }, 
	{ NOTE_A3, 134 }, 
	{ NOTE_G3, 134 }, 
	{ NOTE_A3, 134 }, 
	{ NOTE_B3, 134 }, 
	{ NOTE_D4, 267 }, 
	{ NOTE_E3, 134 }, 
	{ NOTE_G3, 134 }, 
	{ NOTE_E3, 134 }, 
	{ NOTE_G3, 134 }, 
	{ NOTE_A3, 134 }, 
	{ NOTE_G3, 134 }, 
	{ NOTE_A3, 134 }, 
	{ NOTE_G3, 134 }, 
	{ NOTE_AS3, 134 }, 
	{ NOTE_A3, 134 }, 
	{ NOTE_G3, 134 }, 
	{ NOTE_E3, 134 }, 
	{ NOTE_REST, 535 }, 
	{ NOTE_E3, 134 }, 
	{ NOTE_G3, 134 }, 
	{ NOTE_E3, 134 }, 
	{ NOTE_G3, 134 }, 
	{ NOTE_A3, 134 }, 
	{ NOTE_G3, 134 }, 
	{ NOTE_A3, 134 }, 
	{ NOTE_G3, 134 }, 
	{ NOTE_AS3, 134 }, 
	{ NOTE_G3, 134 }, 
	{ NOTE_A3, 134 }, 
	{ NOTE_G3, 134 }, 
	{ NOTE_A3, 134 }, 
	{ NOTE_B3, 134 }, 
	{ NOTE_D4, 267 }, 
	{ NOTE_E3, 134 }, 
	{ NOTE_G3, 134 }, 
	{ NOTE_E3, 134 }, 
	{ NOTE_G3, 134 }, 
	{ NOTE_A3, 134 }, 
	{ NOTE_G3, 134 }, 
	{ NOTE_A3, 134 }, 
	{ NOTE_G3, 134 }, 
	{ NOTE_AS3, 134 }, 
	{ NOTE_G3, 134 }, 
	{ NOTE_A3, 134 }, 
	{ NOTE_G3, 134 }, 
	{ NOTE_A3, 134 }, 
	{ NOTE_B3, 134 }, 
	{ NOTE_D4, 267 }, 
	{ NOTE_E3, 134 }, 
	{ NOTE_G3, 134 }, 
	{ NOTE_E3, 134 }, 
	{ NOTE_G3, 134 }, 
	{ NOTE_A3, 134 }, 
	{ NOTE_G3, 134 }, 
	{ NOTE_A3, 134 }, 
	{ NOTE_G3, 134 }, 
	{ NOTE_AS3, 134 }, 
	{ NOTE_G3, 134 }, 
	{ NOTE_A3, 134 }, 
	{ NOTE_G3, 134 }, 
	{ NOTE_A3, 134 }, 
	{ NOTE_B3, 134 }, 
	{ NOTE_D4, 267 }, 
	{ NOTE_E3, 134 }, 
	{ NOTE_G3, 134 }, 
	{ NOTE_E3, 134 }, 
	{ NOTE_G3, 134 }, 
	{ NOTE_A3, 134 }, 
	{ NOTE_G3, 134 }, 
	{ NOTE_A3, 134 }, 
	{ NOTE_G3, 134 }, 
	{ NOTE_AS3, 134 }, 
	{ NOTE_A3, 134 }, 
	{ NOTE_G3, 134 }, 
	{ NOTE_E3, 134 }, 
	{ NOTE_REST, 535 }, 
	{ NOTE_E3, 134 }, 
	{ NOTE_G3, 134 }, 
	{ NOTE_E3, 134 }, 
	{ NOTE_G3, 134 }, 
	{ NOTE_A3, 134 }, 
	{ NOTE_G3, 134 }, 
	{ NOTE_A3, 134 }, 
	{ NOTE_G3, 134 }, 
	{ NOTE_AS3, 134 }, 
	{ NOTE_G3, 134 }, 
	{ NOTE_A3, 134 }, 
	{ NOTE_G3, 134 }, 
	{ NOTE_A3, 134 }, 
	{ NOTE_B3, 134 }, 
	{ NOTE_D4, 267 }, 
	{ NOTE_E3, 134 }, 
	{ NOTE_G3, 134 }, 
	{ NOTE_E3, 134 }, 
	{ NOTE_G3, 134 }, 
	{ NOTE_A3, 134 }, 
	{ NOTE_G3, 134 }, 
	{ NOTE_A3, 134 }, 
	{ NOTE_G3, 134 }, 
	{ NOTE_AS3, 134 }, 
	{ NOTE_A3, 134 }, 
	{ NOTE_G3, 134 }, 
	{ NOTE_E3, 134 }, 
	{ NOTE_REST, 535 }, 
	{ NOTE_E4, 134 }, 
	{ NOTE_D4, 134 }, 
	{ NOTE_E3, 134 }, 
	{ NOTE_E3, 134 }, 
	{ NOTE_E3, 134 }, 
	{ NOTE_E3, 134 }, 
	{ NOTE_E3, 134 }, 
	{ NOTE_E3, 134 }, 
	{ NOTE_E4, 134 }, 
	{ NOTE_D4, 134 }, 
	{ NOTE_D4, 134 }, 
	{ NOTE_E4, 402 }, 
	{ NOTE_E3, 134 }, 
	{ NOTE_E3, 133 }, 
	{ NOTE_E4, 134 }, 
	{ NOTE_D4, 134 }, 
	{ NOTE_E3, 134 }, 
	{ NOTE_E3, 134 }, 
	{ NOTE_E3, 134 }, 
	{ NOTE_E3, 134 }, 
	{ NOTE_E3, 134 }, 
	{ NOTE_E3, 134 }, 
	{ NOTE_E4, 134 }, 
	{ NOTE_D4, 134 }, 
	{ NOTE_A4, 134 }, 
	{ NOTE_AS4, 134 }, 
	{ NOTE_A4, 268 }, 
	{ NOTE_E3, 134 }, 
	{ NOTE_E3, 133 }, 
	{ NOTE_E4, 134 }, 
	{ NOTE_D4, 134 }, 
	{ NOTE_E3, 134 }, 
	{ NOTE_E3, 134 }, 
	{ NOTE_E3, 134 }, 
	{ NOTE_E3, 134 }, 
	{ NOTE_E3, 134 }, 
	{ NOTE_E3, 134 }, 
	{ NOTE_E4, 134 }, 
	{ NOTE_D4, 134 }, 
	{ NOTE_A4, 134 }, 
	{ NOTE_AS4, 134 }, 
	{ NOTE_A4, 268 }, 
	{ NOTE_E3, 134 }, 
	{ NOTE_E3, 133 }, 
	{ NOTE_A5, 134 }, 
	{ NOTE_G5, 134 }, 
	{ NOTE_E5, 134 }, 
	{ NOTE_G5, 134 }, 
	{ NOTE_FS5, 134 }, 
	{ NOTE_D5, 134 }, 
	{ NOTE_FS5, 134 }, 
	{ NOTE_E5, 134 }, 
	{ NOTE_CS5, 134 }, 
	{ NOTE_E5, 134 }, 
	{ NOTE_D5, 134 }, 
	{ NOTE_B4, 134 }, 
	{ NOTE_D5, 134 }, 
	{ NOTE_CS5, 134 }, 
	{ NOTE_A4, 267 }, 
	{ NOTE_E4, 134 }, 
	{ NOTE_D4, 134 }, 
	{ NOTE_E3, 134 }, 
	{ NOTE_E3, 134 }, 
	{ NOTE_E3, 134 }, 
	{ NOTE_E3, 134 }, 
	{ NOTE_E3, 134 }, 
	{ NOTE_E3, 134 }, 
	{ NOTE_E4, 134 }, 
	{ NOTE_D4, 134 }, 
	{ NOTE_D4, 134 }, 
	{ NOTE_E4, 402 }, 
	{ NOTE_E3, 134 }, 
	{ NOTE_E3, 133 }, 
	{ NOTE_E4, 134 }, 
	{ NOTE_D4, 134 }, 
	{ NOTE_E3, 134 }, 
	{ NOTE_E3, 134 }, 
	{ NOTE_E3, 134 }, 
	{ NOTE_E3, 134 }, 
	{ NOTE_E3, 134 }, 
	{ NOTE_E3, 134 }, 
	{ NOTE_E4, 134 }, 
	{ NOTE_D4, 134 }, 
	{ NOTE_A4, 134 }, 
	{ NOTE_AS4, 134 }, 
	{ NOTE_A4, 268 }, 
	{ NOTE_E3, 134 }, 
	{ NOTE_E3, 133 }, 
	{ NOTE_E4, 134 }, 
	{ NOTE_D4, 134 }, 
	{ NOTE_E3, 134 }, 
	{ NOTE_E3, 134 }, 
	{ NOTE_E3, 134 }, 
	{ NOTE_E3, 134 }, 
	{ NOTE_E3, 134 }, 
	{ NOTE_E3, 134 }, 
	{ NOTE_E4, 134 }, 
	{ NOTE_D4, 134 }, 
	{ NOTE_A4, 134 }, 
	{ NOTE_AS4, 134 }, 
	{ NOTE_A4, 268 }, 
	{ NOTE_E3, 134 }, 
	{ NOTE_E3, 133 }, 
	{ NOTE_A5, 134 }, 
	{ NOTE_G5, 134 }, 
	{ NOTE_E5, 134 }, 
	{ NOTE_G5, 134 }, 
	{ NOTE_FS5, 134 }, 
	{ NOTE_D5, 134 }, 
	{ NOTE_FS5, 134 }, 
	{ NOTE_E5, 134 }, 
	{ NOTE_CS5, 134 }, 
	{ NOTE_E5, 134 }, 
	{ NOTE_D5, 134 }, 
	{ NOTE_B4, 134 }, 
	{ NOTE_D5, 134 }, 
	{ NOTE_CS5, 134 }, 
	{ NOTE_A4, 267 }, 
	{ NOTE_E3, 134 }, 
	{ NOTE_E3, 134 }, 
	{ NOTE_E3, 134 }, 
	{ NOTE_E3, 134 }, 
	{ NOTE_REST, 134 }, 
	{ NOTE_E3, 134 }, 
	{ NOTE_REST, 268 }, 
	{ NOTE_A3, 89 }, 
	{ NOTE_AS3, 89 }, 
	{ NOTE_A3, 89 }, 
	{ NOTE_G3, 268 }, 
	{ NOTE_G3, 134 }, 
	{ NOTE_E3, 134 }, 
	{ NOTE_REST, 268 }, 
};
const uint16_t NUM_OF_NOTES4 = sizeof(melody4)/sizeof(melody4[0]);

