/*
 * Song: Bohemian Rhapsody by Queen
 *
 *	Melody 0 | Guitar 1
 *	Melody 1 | Piano
 *	Melody 2 | Piano
 *	Melody 3 | Voice
 *	Melody 4 | Bass
*/

#include <Arduino.h>
#include "notes.h"

const Note melody0[] PROGMEM = {
	{ NOTE_REST, 417 }, 
	{ NOTE_D6, 417 }, 
	{ NOTE_D6, 417 }, 
	{ NOTE_D6, 417 }, 
	{ NOTE_D6, 833 }, 
	{ NOTE_D6, 832 }, 
	{ NOTE_REST, 417 }, 
	{ NOTE_C6, 417 }, 
	{ NOTE_C6, 417 }, 
	{ NOTE_D6, 417 }, 
	{ NOTE_C6, 417 }, 
	{ NOTE_AS5, 208 }, 
	{ NOTE_AS5, 1040 }, 
	{ NOTE_REST, 417 }, 
	{ NOTE_C6, 417 }, 
	{ NOTE_C6, 417 }, 
	{ NOTE_C6, 417 }, 
	{ NOTE_C6, 833 }, 
	{ NOTE_F5, 833 }, 
	{ NOTE_F5, 417 }, 
	{ NOTE_F5, 416 }, 
	{ NOTE_AS5, 417 }, 
	{ NOTE_AS5, 417 }, 
	{ NOTE_C6, 417 }, 
	{ NOTE_AS5, 417 }, 
	{ NOTE_A5, 208 }, 
	{ NOTE_F5, 1457 }, 
	{ NOTE_G5, 417 }, 
	{ NOTE_G5, 417 }, 
	{ NOTE_G5, 417 }, 
	{ NOTE_G5, 1667 }, 
	{ NOTE_G5, 415 }, 
	{ NOTE_GS5, 417 }, 
	{ NOTE_GS5, 417 }, 
	{ NOTE_GS5, 417 }, 
	{ NOTE_GS5, 834 }, 
	{ NOTE_GS5, 833 }, 
	{ NOTE_AS5, 3748 }, 
	{ NOTE_C6, 2500 }, 
	{ NOTE_DS6, 833 }, 
	{ NOTE_F5, 1667 }, 
	{ NOTE_REST, 417 }, 
	{ NOTE_G5, 417 }, 
	{ NOTE_GS5, 417 }, 
	{ NOTE_AS5, 415 }, 
	{ NOTE_DS6, 417 }, 
	{ NOTE_DS6, 417 }, 
	{ NOTE_D6, 833 }, 
	{ NOTE_CS6, 417 }, 
	{ NOTE_CS6, 417 }, 
	{ NOTE_D6, 832 }, 
	{ NOTE_DS6, 417 }, 
	{ NOTE_DS6, 417 }, 
	{ NOTE_D6, 833 }, 
	{ NOTE_CS6, 417 }, 
	{ NOTE_CS6, 417 }, 
	{ NOTE_D6, 832 }, 
	{ NOTE_G5, 1250 }, 
	{ NOTE_G5, 417 }, 
	{ NOTE_F5, 833 }, 
	{ NOTE_D6, 833 }, 
	{ NOTE_CS6, 417 }, 
	{ NOTE_CS6, 417 }, 
	{ NOTE_CS6, 417 }, 
	{ NOTE_CS6, 417 }, 
	{ NOTE_C6, 833 }, 
	{ NOTE_F5, 417 }, 
	{ NOTE_DS5, 415 }, 
	{ NOTE_C6, 2500 }, 
	{ NOTE_REST, 833 }, 
	{ NOTE_REST, 3333 }, 
	{ NOTE_REST, 3333 }, 
	{ NOTE_REST, 3333 }, 
	{ NOTE_REST, 3333 }, 
	{ NOTE_REST, 3333 }, 
	{ NOTE_REST, 3333 }, 
	{ NOTE_REST, 3333 }, 
	{ NOTE_REST, 3333 }, 
	{ NOTE_REST, 3333 }, 
	{ NOTE_REST, 3333 }, 
	{ NOTE_REST, 3333 }, 
	{ NOTE_REST, 3333 }, 
	{ NOTE_REST, 3333 }, 
	{ NOTE_REST, 3333 }, 
	{ NOTE_REST, 3333 }, 
	{ NOTE_REST, 3333 }, 
	{ NOTE_REST, 1667 }, 
	{ NOTE_REST, 3333 }, 
	{ NOTE_REST, 3333 }, 
	{ NOTE_REST, 3333 }, 
	{ NOTE_REST, 3333 }, 
	{ NOTE_REST, 3333 }, 
	{ NOTE_REST, 3333 }, 
	{ NOTE_REST, 3333 }, 
	{ NOTE_REST, 3333 }, 
	{ NOTE_REST, 3333 }, 
	{ NOTE_REST, 3333 }, 
	{ NOTE_REST, 3333 }, 
	{ NOTE_G6, 2500 }, 
	{ NOTE_F6, 833 }, 
	{ NOTE_C5, 417 }, 
	{ NOTE_C5, 417 }, 
	{ NOTE_DS5, 417 }, 
	{ NOTE_G5, 417 }, 
	{ NOTE_D6, 833 }, 
	{ NOTE_C6, 832 }, 
	{ NOTE_F6, 2500 }, 
	{ NOTE_REST, 833 }, 
	{ NOTE_REST, 1667 }, 
	{ NOTE_REST, 833 }, 
	{ NOTE_REST, 625 }, 
	{ NOTE_AS4, 1041 }, 
	{ NOTE_F5, 625 }, 
	{ NOTE_DS5, 208 }, 
	{ NOTE_AS5, 1250 }, 
	{ NOTE_G5, 417 }, 
	{ NOTE_AS5, 1250 }, 
	{ NOTE_D4, 208 }, 
	{ NOTE_G4, 208 }, 
	{ NOTE_C6, 417 }, 
	{ NOTE_D6, 208 }, 
	{ NOTE_DS6, 208 }, 
	{ NOTE_C6, 417 }, 
	{ NOTE_D6, 208 }, 
	{ NOTE_DS6, 209 }, 
	{ NOTE_REST, 104 }, 
	{ NOTE_DS6, 1146 }, 
	{ NOTE_REST, 139 }, 
	{ NOTE_DS6, 139 }, 
	{ NOTE_C6, 139 }, 
	{ NOTE_F6, 208 }, 
	{ NOTE_G6, 208 }, 
	{ NOTE_GS6, 208 }, 
	{ NOTE_AS6, 208 }, 
	{ NOTE_AS6, 834 }, 
	{ NOTE_AS6, 208 }, 
	{ NOTE_GS6, 208 }, 
	{ NOTE_G6, 139 }, 
	{ NOTE_GS6, 139 }, 
	{ NOTE_G6, 69 }, 
	{ NOTE_GS6, 69 }, 
	{ NOTE_G6, 119 }, 
	{ NOTE_F6, 119 }, 
	{ NOTE_G6, 119 }, 
	{ NOTE_F6, 119 }, 
	{ NOTE_DS6, 119 }, 
	{ NOTE_D6, 119 }, 
	{ NOTE_DS6, 119 }, 
	{ NOTE_D6, 104 }, 
	{ NOTE_DS6, 104 }, 
	{ NOTE_D6, 104 }, 
	{ NOTE_C6, 104 }, 
	{ NOTE_D6, 139 }, 
	{ NOTE_C6, 139 }, 
	{ NOTE_AS5, 974 }, 
	{ NOTE_REST, 208 }, 
	{ NOTE_AS5, 208 }, 
	{ NOTE_C6, 208 }, 
	{ NOTE_D6, 208 }, 
	{ NOTE_DS6, 139 }, 
	{ NOTE_F6, 139 }, 
	{ NOTE_G6, 139 }, 
	{ NOTE_GS6, 139 }, 
	{ NOTE_AS6, 417 }, 
	{ NOTE_AS5, 139 }, 
	{ NOTE_C6, 139 }, 
	{ NOTE_D6, 139 }, 
	{ NOTE_DS6, 139 }, 
	{ NOTE_F6, 139 }, 
	{ NOTE_G6, 139 }, 
	{ NOTE_GS6, 139 }, 
	{ NOTE_AS6, 139 }, 
	{ NOTE_REST, 139 }, 
	{ NOTE_AS6, 1110 }, 
	{ NOTE_REST, 417 }, 
	{ NOTE_D6, 208 }, 
	{ NOTE_DS6, 208 }, 
	{ NOTE_C6, 417 }, 
	{ NOTE_D6, 208 }, 
	{ NOTE_DS6, 208 }, 
	{ NOTE_C6, 417 }, 
	{ NOTE_D6, 208 }, 
	{ NOTE_DS6, 209 }, 
	{ NOTE_DS6, 1251 }, 
	{ NOTE_F5, 208 }, 
	{ NOTE_G5, 208 }, 
	{ NOTE_GS5, 833 }, 
	{ NOTE_F6, 833 }, 
	{ NOTE_GS5, 1111 }, 
	{ NOTE_CS6, 278 }, 
	{ NOTE_CS6, 69 }, 
	{ NOTE_CS6, 139 }, 
	{ NOTE_CS6, 69 }, 
	{ NOTE_CS6, 625 }, 
	{ NOTE_FS5, 208 }, 
	{ NOTE_CS5, 104 }, 
	{ NOTE_CS5, 520 }, 
	{ NOTE_D5, 69 }, 
	{ NOTE_CS5, 69 }, 
	{ NOTE_B4, 72 }, 
	{ NOTE_A4, 417 }, 
	{ NOTE_REST, 833 }, 
	{ NOTE_REST, 417 }, 
	{ NOTE_REST, 1667 }, 
	{ NOTE_REST, 1667 }, 
	{ NOTE_REST, 833 }, 
	{ NOTE_REST, 417 }, 
	{ NOTE_A5, 208 }, 
	{ NOTE_A5, 209 }, 
	{ NOTE_D6, 417 }, 
	{ NOTE_A5, 208 }, 
	{ NOTE_A5, 208 }, 
	{ NOTE_D6, 417 }, 
	{ NOTE_A5, 208 }, 
	{ NOTE_A5, 209 }, 
	{ NOTE_A5, 208 }, 
	{ NOTE_A5, 208 }, 
	{ NOTE_A5, 417 }, 
	{ NOTE_D6, 417 }, 
	{ NOTE_A5, 417 }, 
	{ NOTE_GS5, 208 }, 
	{ NOTE_GS5, 208 }, 
	{ NOTE_GS5, 208 }, 
	{ NOTE_GS5, 208 }, 
	{ NOTE_GS5, 417 }, 
	{ NOTE_GS5, 418 }, 
	{ NOTE_G5, 208 }, 
	{ NOTE_G5, 208 }, 
	{ NOTE_G5, 208 }, 
	{ NOTE_G5, 208 }, 
	{ NOTE_E5, 417 }, 
	{ NOTE_E5, 418 }, 
	{ NOTE_A5, 208 }, 
	{ NOTE_REST, 208 }, 
	{ NOTE_E7, 208 }, 
	{ NOTE_E7, 208 }, 
	{ NOTE_F7, 208 }, 
	{ NOTE_E7, 417 }, 
	{ NOTE_REST, 210 }, 
	{ NOTE_REST, 417 }, 
	{ NOTE_E7, 208 }, 
	{ NOTE_E7, 208 }, 
	{ NOTE_F7, 208 }, 
	{ NOTE_E7, 417 }, 
	{ NOTE_REST, 209 }, 
	{ NOTE_REST, 417 }, 
	{ NOTE_E7, 208 }, 
	{ NOTE_E7, 208 }, 
	{ NOTE_F7, 208 }, 
	{ NOTE_E7, 208 }, 
	{ NOTE_D7, 208 }, 
	{ NOTE_C7, 210 }, 
	{ NOTE_B6, 208 }, 
	{ NOTE_AS5, 208 }, 
	{ NOTE_AS6, 208 }, 
	{ NOTE_AS6, 209 }, 
	{ NOTE_AS5, 2500 }, 
	{ NOTE_REST, 834 }, 
	{ NOTE_REST, 1667 }, 
	{ NOTE_DS5, 417 }, 
	{ NOTE_DS5, 208 }, 
	{ NOTE_DS5, 208 }, 
	{ NOTE_DS5, 417 }, 
	{ NOTE_DS5, 417 }, 
	{ NOTE_DS5, 208 }, 
	{ NOTE_DS5, 208 }, 
	{ NOTE_DS5, 417 }, 
	{ NOTE_DS5, 208 }, 
	{ NOTE_DS5, 208 }, 
	{ NOTE_DS5, 418 }, 
	{ NOTE_GS5, 417 }, 
	{ NOTE_GS5, 208 }, 
	{ NOTE_AS5, 208 }, 
	{ NOTE_G5, 417 }, 
	{ NOTE_G5, 208 }, 
	{ NOTE_G5, 209 }, 
	{ NOTE_DS5, 417 }, 
	{ NOTE_DS5, 208 }, 
	{ NOTE_AS4, 32089 }, 
	{ NOTE_DS5, 5210 }, 
	{ NOTE_REST, 417 }, 
	{ NOTE_REST, 1739 }, 
	{ NOTE_REST, 1739 }, 
	{ NOTE_REST, 1739 }, 
	{ NOTE_REST, 1739 }, 
	{ NOTE_REST, 1739 }, 
	{ NOTE_REST, 1739 }, 
	{ NOTE_REST, 1739 }, 
	{ NOTE_REST, 870 }, 
	{ NOTE_REST, 1739 }, 
	{ NOTE_REST, 1739 }, 
	{ NOTE_REST, 1739 }, 
	{ NOTE_G6, 435 }, 
	{ NOTE_GS6, 1304 }, 
	{ NOTE_G6, 435 }, 
	{ NOTE_F6, 435 }, 
	{ NOTE_F6, 290 }, 
	{ NOTE_G6, 435 }, 
	{ NOTE_REST, 144 }, 
	{ NOTE_REST, 290 }, 
	{ NOTE_GS6, 290 }, 
	{ NOTE_GS6, 290 }, 
	{ NOTE_GS6, 290 }, 
	{ NOTE_GS6, 290 }, 
	{ NOTE_GS6, 289 }, 
	{ NOTE_G6, 290 }, 
	{ NOTE_F6, 145 }, 
	{ NOTE_F6, 435 }, 
	{ NOTE_F6, 290 }, 
	{ NOTE_G6, 145 }, 
	{ NOTE_REST, 434 }, 
	{ NOTE_DS6, 290 }, 
	{ NOTE_DS6, 145 }, 
	{ NOTE_DS6, 145 }, 
	{ NOTE_DS6, 145 }, 
	{ NOTE_F6, 580 }, 
	{ NOTE_REST, 434 }, 
	{ NOTE_DS6, 290 }, 
	{ NOTE_DS6, 145 }, 
	{ NOTE_DS6, 145 }, 
	{ NOTE_DS6, 290 }, 
	{ NOTE_F6, 290 }, 
	{ NOTE_DS6, 290 }, 
	{ NOTE_D6, 289 }, 
	{ NOTE_DS6, 290 }, 
	{ NOTE_AS5, 580 }, 
	{ NOTE_REST, 869 }, 
	{ NOTE_REST, 1739 }, 
	{ NOTE_REST, 1739 }, 
	{ NOTE_REST, 1739 }, 
	{ NOTE_REST, 1739 }, 
	{ NOTE_REST, 1739 }, 
	{ NOTE_REST, 1739 }, 
	{ NOTE_REST, 1739 }, 
	{ NOTE_REST, 5000 }, 
	{ NOTE_REST, 3333 }, 
	{ NOTE_DS6, 1667 }, 
	{ NOTE_D6, 1666 }, 
	{ NOTE_C6, 1250 }, 
	{ NOTE_REST, 417 }, 
	{ NOTE_B5, 625 }, 
	{ NOTE_F6, 208 }, 
	{ NOTE_C6, 417 }, 
	{ NOTE_REST, 416 }, 
	{ NOTE_REST, 1667 }, 
	{ NOTE_REST, 833 }, 
	{ NOTE_REST, 139 }, 
	{ NOTE_DS6, 417 }, 
	{ NOTE_G6, 277 }, 
	{ NOTE_FS6, 833 }, 
	{ NOTE_G6, 417 }, 
	{ NOTE_A6, 417 }, 
	{ NOTE_A6, 1458 }, 
	{ NOTE_A6, 208 }, 
	{ NOTE_C6, 1250 }, 
	{ NOTE_C6, 208 }, 
	{ NOTE_D6, 208 }, 
	{ NOTE_AS5, 1875 }, 
	{ NOTE_C6, 1042 }, 
	{ NOTE_C6, 208 }, 
	{ NOTE_D6, 208 }, 
	{ NOTE_AS5, 1667 }, 
	{ NOTE_REST, 3333 }, 
	{ NOTE_REST, 3333 }, 
	{ NOTE_REST, 3333 }, 
	{ NOTE_REST, 3333 }, 
	{ NOTE_REST, 2667 }, 
	{ NOTE_REST, 1667 }, 
	{ NOTE_AS5, 417 }, 
	{ NOTE_GS5, 417 }, 
	{ NOTE_GS5, 417 }, 
	{ NOTE_G5, 415 }, 
	{ NOTE_G5, 3333 }, 
	{ NOTE_G5, 417 }, 
	{ NOTE_E5, 417 }, 
	{ NOTE_C5, 417 }, 
	{ NOTE_AS4, 417 }, 
	{ NOTE_A4, 833 }, 
	{ NOTE_D5, 0 }, 
	{ NOTE_F5, 8832 }, 
	{ NOTE_REST, 8000 }, 
	{ NOTE_REST, 8000 }, 
};
const uint16_t NUM_OF_NOTES0 = sizeof(melody0)/sizeof(melody0[0]);

const Note melody1[] PROGMEM = {
	{ NOTE_REST, 3333 }, 
	{ NOTE_REST, 3333 }, 
	{ NOTE_REST, 4167 }, 
	{ NOTE_REST, 3333 }, 
	{ NOTE_G3, 417 }, 
	{ NOTE_G4, 417 }, 
	{ NOTE_AS4, 417 }, 
	{ NOTE_D5, 417 }, 
	{ NOTE_G5, 417 }, 
	{ NOTE_D5, 417 }, 
	{ NOTE_AS4, 417 }, 
	{ NOTE_G4, 414 }, 
	{ NOTE_AS3, 3333 }, 
	{ NOTE_DS4, 417 }, 
	{ NOTE_DS5, 417 }, 
	{ NOTE_G5, 417 }, 
	{ NOTE_AS5, 417 }, 
	{ NOTE_GS5, 417 }, 
	{ NOTE_DS6, 417 }, 
	{ NOTE_G5, 417 }, 
	{ NOTE_DS6, 414 }, 
	{ NOTE_C4, 833 }, 
	{ NOTE_DS5, 417 }, 
	{ NOTE_C5, 833 }, 
	{ NOTE_C5, 417 }, 
	{ NOTE_C4, 833 }, 
	{ NOTE_F3, 833 }, 
	{ NOTE_A4, 417 }, 
	{ NOTE_C5, 2083 }, 
	{ NOTE_DS5, 833 }, 
	{ NOTE_D5, 833 }, 
	{ NOTE_CS5, 833 }, 
	{ NOTE_D5, 834 }, 
	{ NOTE_DS5, 833 }, 
	{ NOTE_D5, 833 }, 
	{ NOTE_CS5, 833 }, 
	{ NOTE_D5, 834 }, 
	{ NOTE_DS4, 417 }, 
	{ NOTE_DS5, 417 }, 
	{ NOTE_G5, 417 }, 
	{ NOTE_DS5, 417 }, 
	{ NOTE_D4, 417 }, 
	{ NOTE_D5, 417 }, 
	{ NOTE_F5, 417 }, 
	{ NOTE_D5, 414 }, 
	{ NOTE_C4, 417 }, 
	{ NOTE_CS5, 417 }, 
	{ NOTE_DS5, 2916 }, 
	{ NOTE_C5, 417 }, 
	{ NOTE_DS5, 417 }, 
	{ NOTE_F5, 417 }, 
	{ NOTE_DS5, 1665 }, 
	{ NOTE_AS3, 417 }, 
	{ NOTE_F4, 417 }, 
	{ NOTE_AS4, 417 }, 
	{ NOTE_D5, 417 }, 
	{ NOTE_G5, 417 }, 
	{ NOTE_F4, 417 }, 
	{ NOTE_F5, 417 }, 
	{ NOTE_F4, 414 }, 
	{ NOTE_AS3, 417 }, 
	{ NOTE_F4, 417 }, 
	{ NOTE_AS4, 417 }, 
	{ NOTE_D5, 417 }, 
	{ NOTE_G5, 417 }, 
	{ NOTE_F4, 417 }, 
	{ NOTE_F5, 417 }, 
	{ NOTE_F4, 414 }, 
	{ NOTE_AS3, 417 }, 
	{ NOTE_F4, 417 }, 
	{ NOTE_AS4, 417 }, 
	{ NOTE_D5, 417 }, 
	{ NOTE_G5, 417 }, 
	{ NOTE_F4, 417 }, 
	{ NOTE_F5, 417 }, 
	{ NOTE_F4, 414 }, 
	{ NOTE_G3, 417 }, 
	{ NOTE_G4, 417 }, 
	{ NOTE_AS4, 417 }, 
	{ NOTE_D5, 417 }, 
	{ NOTE_A5, 417 }, 
	{ NOTE_G4, 417 }, 
	{ NOTE_G5, 417 }, 
	{ NOTE_G4, 414 }, 
	{ NOTE_C4, 417 }, 
	{ NOTE_C5, 417 }, 
	{ NOTE_DS5, 417 }, 
	{ NOTE_G5, 417 }, 
	{ NOTE_D6, 417 }, 
	{ NOTE_C5, 417 }, 
	{ NOTE_C6, 417 }, 
	{ NOTE_C5, 414 }, 
	{ NOTE_C4, 417 }, 
	{ NOTE_C5, 417 }, 
	{ NOTE_DS5, 417 }, 
	{ NOTE_G5, 417 }, 
	{ NOTE_F4, 417 }, 
	{ NOTE_DS5, 417 }, 
	{ NOTE_F5, 417 }, 
	{ NOTE_C6, 414 }, 
	{ NOTE_AS3, 417 }, 
	{ NOTE_F4, 417 }, 
	{ NOTE_AS4, 417 }, 
	{ NOTE_D5, 417 }, 
	{ NOTE_G5, 417 }, 
	{ NOTE_F4, 417 }, 
	{ NOTE_F5, 417 }, 
	{ NOTE_F4, 414 }, 
	{ NOTE_G3, 417 }, 
	{ NOTE_G4, 417 }, 
	{ NOTE_AS4, 417 }, 
	{ NOTE_D5, 417 }, 
	{ NOTE_A5, 417 }, 
	{ NOTE_G4, 417 }, 
	{ NOTE_G5, 417 }, 
	{ NOTE_G4, 414 }, 
	{ NOTE_C4, 417 }, 
	{ NOTE_C5, 417 }, 
	{ NOTE_DS5, 417 }, 
	{ NOTE_G5, 417 }, 
	{ NOTE_B3, 417 }, 
	{ NOTE_G5, 417 }, 
	{ NOTE_AS3, 417 }, 
	{ NOTE_G5, 414 }, 
	{ NOTE_A3, 417 }, 
	{ NOTE_A4, 417 }, 
	{ NOTE_DS5, 417 }, 
	{ NOTE_G5, 417 }, 
	{ NOTE_GS3, 417 }, 
	{ NOTE_G5, 417 }, 
	{ NOTE_G3, 417 }, 
	{ NOTE_G5, 414 }, 
	{ NOTE_DS4, 417 }, 
	{ NOTE_DS5, 417 }, 
	{ NOTE_G5, 417 }, 
	{ NOTE_DS5, 417 }, 
	{ NOTE_G5, 417 }, 
	{ NOTE_DS5, 417 }, 
	{ NOTE_D4, 417 }, 
	{ NOTE_F5, 414 }, 
	{ NOTE_C4, 417 }, 
	{ NOTE_C5, 417 }, 
	{ NOTE_DS5, 417 }, 
	{ NOTE_G5, 417 }, 
	{ NOTE_D6, 417 }, 
	{ NOTE_C5, 417 }, 
	{ NOTE_C6, 417 }, 
	{ NOTE_C5, 414 }, 
	{ NOTE_F4, 417 }, 
	{ NOTE_F5, 417 }, 
	{ NOTE_GS5, 417 }, 
	{ NOTE_E4, 417 }, 
	{ NOTE_DS4, 417 }, 
	{ NOTE_DS5, 417 }, 
	{ NOTE_D4, 417 }, 
	{ NOTE_D5, 414 }, 
	{ NOTE_AS3, 625 }, 
	{ NOTE_AS3, 208 }, 
	{ NOTE_AS4, 417 }, 
	{ NOTE_AS3, 208 }, 
	{ NOTE_AS3, 208 }, 
	{ NOTE_AS4, 417 }, 
	{ NOTE_AS3, 208 }, 
	{ NOTE_AS3, 208 }, 
	{ NOTE_AS4, 208 }, 
	{ NOTE_AS3, 208 }, 
	{ NOTE_AS3, 418 }, 
	{ NOTE_DS4, 417 }, 
	{ NOTE_DS5, 417 }, 
	{ NOTE_G5, 417 }, 
	{ NOTE_DS5, 417 }, 
	{ NOTE_D4, 417 }, 
	{ NOTE_D5, 417 }, 
	{ NOTE_F5, 417 }, 
	{ NOTE_D5, 414 }, 
	{ NOTE_C4, 417 }, 
	{ NOTE_C5, 417 }, 
	{ NOTE_DS5, 417 }, 
	{ NOTE_C5, 417 }, 
	{ NOTE_GS3, 1665 }, 
	{ NOTE_DS4, 417 }, 
	{ NOTE_DS5, 417 }, 
	{ NOTE_G5, 417 }, 
	{ NOTE_AS5, 416 }, 
	{ NOTE_GS5, 417 }, 
	{ NOTE_DS6, 417 }, 
	{ NOTE_G5, 417 }, 
	{ NOTE_DS6, 417 }, 
	{ NOTE_FS5, 417 }, 
	{ NOTE_DS6, 417 }, 
	{ NOTE_F5, 417 }, 
	{ NOTE_DS6, 414 }, 
	{ NOTE_AS3, 417 }, 
	{ NOTE_F4, 417 }, 
	{ NOTE_AS4, 417 }, 
	{ NOTE_D5, 417 }, 
	{ NOTE_G5, 417 }, 
	{ NOTE_F4, 417 }, 
	{ NOTE_F5, 417 }, 
	{ NOTE_F4, 414 }, 
	{ NOTE_AS3, 417 }, 
	{ NOTE_F4, 417 }, 
	{ NOTE_AS4, 417 }, 
	{ NOTE_D5, 417 }, 
	{ NOTE_G5, 417 }, 
	{ NOTE_F4, 417 }, 
	{ NOTE_F5, 417 }, 
	{ NOTE_F4, 414 }, 
	{ NOTE_AS3, 417 }, 
	{ NOTE_F4, 417 }, 
	{ NOTE_AS4, 417 }, 
	{ NOTE_D5, 417 }, 
	{ NOTE_G5, 417 }, 
	{ NOTE_F4, 417 }, 
	{ NOTE_F5, 417 }, 
	{ NOTE_F4, 414 }, 
	{ NOTE_G3, 417 }, 
	{ NOTE_G4, 417 }, 
	{ NOTE_AS4, 417 }, 
	{ NOTE_D5, 417 }, 
	{ NOTE_A5, 417 }, 
	{ NOTE_G4, 417 }, 
	{ NOTE_G5, 417 }, 
	{ NOTE_G4, 414 }, 
	{ NOTE_C4, 417 }, 
	{ NOTE_C5, 417 }, 
	{ NOTE_DS5, 417 }, 
	{ NOTE_G5, 417 }, 
	{ NOTE_D6, 417 }, 
	{ NOTE_C5, 417 }, 
	{ NOTE_C6, 417 }, 
	{ NOTE_C5, 414 }, 
	{ NOTE_C4, 417 }, 
	{ NOTE_C5, 417 }, 
	{ NOTE_DS5, 417 }, 
	{ NOTE_G5, 417 }, 
	{ NOTE_F4, 417 }, 
	{ NOTE_DS5, 417 }, 
	{ NOTE_F5, 417 }, 
	{ NOTE_C6, 414 }, 
	{ NOTE_AS3, 417 }, 
	{ NOTE_F4, 417 }, 
	{ NOTE_AS4, 417 }, 
	{ NOTE_D5, 417 }, 
	{ NOTE_G5, 417 }, 
	{ NOTE_F4, 417 }, 
	{ NOTE_F5, 417 }, 
	{ NOTE_F4, 414 }, 
	{ NOTE_G3, 417 }, 
	{ NOTE_G4, 417 }, 
	{ NOTE_AS4, 417 }, 
	{ NOTE_D5, 417 }, 
	{ NOTE_A5, 417 }, 
	{ NOTE_G4, 417 }, 
	{ NOTE_G5, 417 }, 
	{ NOTE_G4, 414 }, 
	{ NOTE_C4, 417 }, 
	{ NOTE_C5, 417 }, 
	{ NOTE_DS5, 417 }, 
	{ NOTE_G5, 417 }, 
	{ NOTE_B3, 417 }, 
	{ NOTE_G5, 417 }, 
	{ NOTE_AS3, 417 }, 
	{ NOTE_G5, 414 }, 
	{ NOTE_A3, 417 }, 
	{ NOTE_A4, 417 }, 
	{ NOTE_DS5, 417 }, 
	{ NOTE_G5, 417 }, 
	{ NOTE_GS3, 417 }, 
	{ NOTE_G5, 417 }, 
	{ NOTE_G3, 417 }, 
	{ NOTE_G5, 414 }, 
	{ NOTE_DS4, 417 }, 
	{ NOTE_DS5, 417 }, 
	{ NOTE_G5, 417 }, 
	{ NOTE_DS5, 417 }, 
	{ NOTE_G5, 417 }, 
	{ NOTE_DS5, 417 }, 
	{ NOTE_D4, 417 }, 
	{ NOTE_F5, 414 }, 
	{ NOTE_C4, 417 }, 
	{ NOTE_C5, 417 }, 
	{ NOTE_DS5, 417 }, 
	{ NOTE_G5, 417 }, 
	{ NOTE_D6, 417 }, 
	{ NOTE_C5, 417 }, 
	{ NOTE_C6, 417 }, 
	{ NOTE_C5, 414 }, 
	{ NOTE_F4, 417 }, 
	{ NOTE_F5, 417 }, 
	{ NOTE_GS5, 417 }, 
	{ NOTE_E4, 417 }, 
	{ NOTE_DS4, 417 }, 
	{ NOTE_DS5, 417 }, 
	{ NOTE_D4, 417 }, 
	{ NOTE_D5, 414 }, 
	{ NOTE_AS3, 625 }, 
	{ NOTE_AS4, 208 }, 
	{ NOTE_AS4, 417 }, 
	{ NOTE_AS3, 208 }, 
	{ NOTE_AS4, 208 }, 
	{ NOTE_AS4, 417 }, 
	{ NOTE_AS3, 208 }, 
	{ NOTE_AS4, 208 }, 
	{ NOTE_AS4, 208 }, 
	{ NOTE_AS3, 208 }, 
	{ NOTE_AS3, 418 }, 
	{ NOTE_DS4, 417 }, 
	{ NOTE_DS5, 417 }, 
	{ NOTE_G5, 417 }, 
	{ NOTE_DS5, 417 }, 
	{ NOTE_D4, 417 }, 
	{ NOTE_D5, 417 }, 
	{ NOTE_F5, 417 }, 
	{ NOTE_D5, 414 }, 
	{ NOTE_C4, 417 }, 
	{ NOTE_C5, 417 }, 
	{ NOTE_DS5, 417 }, 
	{ NOTE_G5, 417 }, 
	{ NOTE_D6, 417 }, 
	{ NOTE_C5, 417 }, 
	{ NOTE_C6, 417 }, 
	{ NOTE_C5, 414 }, 
	{ NOTE_F4, 417 }, 
	{ NOTE_F5, 417 }, 
	{ NOTE_GS5, 417 }, 
	{ NOTE_E4, 417 }, 
	{ NOTE_DS4, 417 }, 
	{ NOTE_DS5, 417 }, 
	{ NOTE_D4, 417 }, 
	{ NOTE_D5, 414 }, 
	{ NOTE_AS3, 625 }, 
	{ NOTE_AS4, 208 }, 
	{ NOTE_AS4, 417 }, 
	{ NOTE_AS3, 208 }, 
	{ NOTE_AS4, 208 }, 
	{ NOTE_AS4, 417 }, 
	{ NOTE_AS3, 208 }, 
	{ NOTE_AS4, 208 }, 
	{ NOTE_AS4, 208 }, 
	{ NOTE_AS3, 208 }, 
	{ NOTE_AS3, 418 }, 
	{ NOTE_DS4, 417 }, 
	{ NOTE_DS5, 417 }, 
	{ NOTE_G5, 417 }, 
	{ NOTE_DS5, 417 }, 
	{ NOTE_D4, 417 }, 
	{ NOTE_D5, 417 }, 
	{ NOTE_F5, 417 }, 
	{ NOTE_D5, 414 }, 
	{ NOTE_C4, 417 }, 
	{ NOTE_C5, 417 }, 
	{ NOTE_DS5, 417 }, 
	{ NOTE_G5, 417 }, 
	{ NOTE_D6, 417 }, 
	{ NOTE_C5, 417 }, 
	{ NOTE_C6, 417 }, 
	{ NOTE_C5, 414 }, 
	{ NOTE_F4, 417 }, 
	{ NOTE_F5, 417 }, 
	{ NOTE_GS5, 417 }, 
	{ NOTE_E4, 417 }, 
	{ NOTE_DS4, 417 }, 
	{ NOTE_DS5, 417 }, 
	{ NOTE_D4, 417 }, 
	{ NOTE_D5, 414 }, 
	{ NOTE_CS4, 625 }, 
	{ NOTE_F5, 208 }, 
	{ NOTE_F5, 278 }, 
	{ NOTE_CS4, 278 }, 
	{ NOTE_C4, 278 }, 
	{ NOTE_B3, 417 }, 
	{ NOTE_CS6, 417 }, 
	{ NOTE_AS3, 832 }, 
	{ NOTE_A3, 208 }, 
	{ NOTE_REST, 208 }, 
	{ NOTE_A4, 208 }, 
	{ NOTE_REST, 208 }, 
	{ NOTE_A4, 208 }, 
	{ NOTE_REST, 208 }, 
	{ NOTE_A4, 208 }, 
	{ NOTE_REST, 211 }, 
	{ NOTE_A4, 208 }, 
	{ NOTE_REST, 208 }, 
	{ NOTE_A4, 208 }, 
	{ NOTE_REST, 208 }, 
	{ NOTE_A4, 208 }, 
	{ NOTE_REST, 208 }, 
	{ NOTE_A4, 208 }, 
	{ NOTE_REST, 211 }, 
	{ NOTE_A4, 208 }, 
	{ NOTE_REST, 208 }, 
	{ NOTE_A4, 208 }, 
	{ NOTE_A4, 208 }, 
	{ NOTE_A4, 208 }, 
	{ NOTE_REST, 208 }, 
	{ NOTE_A4, 208 }, 
	{ NOTE_REST, 211 }, 
	{ NOTE_A4, 208 }, 
	{ NOTE_REST, 208 }, 
	{ NOTE_A4, 208 }, 
	{ NOTE_A4, 208 }, 
	{ NOTE_A4, 208 }, 
	{ NOTE_REST, 208 }, 
	{ NOTE_A4, 208 }, 
	{ NOTE_A4, 211 }, 
	{ NOTE_D5, 208 }, 
	{ NOTE_REST, 208 }, 
	{ NOTE_A4, 208 }, 
	{ NOTE_A4, 208 }, 
	{ NOTE_D5, 208 }, 
	{ NOTE_REST, 208 }, 
	{ NOTE_A4, 208 }, 
	{ NOTE_A4, 211 }, 
	{ NOTE_A4, 208 }, 
	{ NOTE_A4, 208 }, 
	{ NOTE_A4, 208 }, 
	{ NOTE_REST, 208 }, 
	{ NOTE_A4, 208 }, 
	{ NOTE_REST, 208 }, 
	{ NOTE_A4, 208 }, 
	{ NOTE_REST, 211 }, 
	{ NOTE_GS3, 208 }, 
	{ NOTE_GS3, 208 }, 
	{ NOTE_GS3, 208 }, 
	{ NOTE_GS3, 208 }, 
	{ NOTE_GS3, 417 }, 
	{ NOTE_GS3, 418 }, 
	{ NOTE_G3, 208 }, 
	{ NOTE_G3, 208 }, 
	{ NOTE_G3, 208 }, 
	{ NOTE_G3, 208 }, 
	{ NOTE_E4, 417 }, 
	{ NOTE_E4, 418 }, 
	{ NOTE_A3, 417 }, 
	{ NOTE_REST, 417 }, 
	{ NOTE_REST, 833 }, 
	{ NOTE_REST, 1667 }, 
	{ NOTE_REST, 417 }, 
	{ NOTE_A3, 208 }, 
	{ NOTE_A3, 208 }, 
	{ NOTE_AS3, 208 }, 
	{ NOTE_A3, 208 }, 
	{ NOTE_G3, 208 }, 
	{ NOTE_F3, 210 }, 
	{ NOTE_E3, 208 }, 
	{ NOTE_REST, 208 }, 
	{ NOTE_REST, 417 }, 
	{ NOTE_REST, 1667 }, 
	{ NOTE_DS5, 208 }, 
	{ NOTE_REST, 208 }, 
	{ NOTE_D5, 208 }, 
	{ NOTE_REST, 208 }, 
	{ NOTE_CS5, 208 }, 
	{ NOTE_REST, 208 }, 
	{ NOTE_D5, 208 }, 
	{ NOTE_REST, 211 }, 
	{ NOTE_DS5, 208 }, 
	{ NOTE_REST, 208 }, 
	{ NOTE_D5, 208 }, 
	{ NOTE_REST, 208 }, 
	{ NOTE_CS5, 208 }, 
	{ NOTE_REST, 208 }, 
	{ NOTE_D5, 208 }, 
	{ NOTE_REST, 211 }, 
	{ NOTE_DS4, 417 }, 
	{ NOTE_DS4, 208 }, 
	{ NOTE_DS4, 208 }, 
	{ NOTE_DS4, 417 }, 
	{ NOTE_DS4, 417 }, 
	{ NOTE_DS4, 208 }, 
	{ NOTE_DS4, 208 }, 
	{ NOTE_DS4, 417 }, 
	{ NOTE_DS4, 208 }, 
	{ NOTE_DS4, 208 }, 
	{ NOTE_DS4, 418 }, 
	{ NOTE_GS3, 417 }, 
	{ NOTE_DS5, 208 }, 
	{ NOTE_DS5, 208 }, 
	{ NOTE_G3, 417 }, 
	{ NOTE_DS5, 208 }, 
	{ NOTE_DS5, 209 }, 
	{ NOTE_F3, 417 }, 
	{ NOTE_C5, 208 }, 
	{ NOTE_C5, 208 }, 
	{ NOTE_AS3, 208 }, 
	{ NOTE_AS5, 208 }, 
	{ NOTE_AS5, 208 }, 
	{ NOTE_AS5, 210 }, 
	{ NOTE_GS5, 208 }, 
	{ NOTE_DS6, 208 }, 
	{ NOTE_G5, 208 }, 
	{ NOTE_DS6, 208 }, 
	{ NOTE_FS5, 208 }, 
	{ NOTE_DS6, 208 }, 
	{ NOTE_F5, 208 }, 
	{ NOTE_DS6, 211 }, 
	{ NOTE_DS5, 208 }, 
	{ NOTE_REST, 208 }, 
	{ NOTE_D5, 208 }, 
	{ NOTE_REST, 208 }, 
	{ NOTE_CS5, 208 }, 
	{ NOTE_REST, 208 }, 
	{ NOTE_D5, 208 }, 
	{ NOTE_REST, 211 }, 
	{ NOTE_DS5, 208 }, 
	{ NOTE_REST, 208 }, 
	{ NOTE_D5, 208 }, 
	{ NOTE_REST, 208 }, 
	{ NOTE_CS5, 208 }, 
	{ NOTE_REST, 208 }, 
	{ NOTE_AS3, 208 }, 
	{ NOTE_REST, 211 }, 
	{ NOTE_DS4, 208 }, 
	{ NOTE_REST, 208 }, 
	{ NOTE_AS3, 208 }, 
	{ NOTE_REST, 208 }, 
	{ NOTE_DS4, 625 }, 
	{ NOTE_AS3, 210 }, 
	{ NOTE_AS3, 208 }, 
	{ NOTE_AS3, 208 }, 
	{ NOTE_AS3, 208 }, 
	{ NOTE_AS3, 208 }, 
	{ NOTE_AS3, 208 }, 
	{ NOTE_REST, 208 }, 
	{ NOTE_REST, 419 }, 
	{ NOTE_REST, 417 }, 
	{ NOTE_AS3, 208 }, 
	{ NOTE_REST, 208 }, 
	{ NOTE_DS4, 417 }, 
	{ NOTE_AS3, 208 }, 
	{ NOTE_AS3, 209 }, 
	{ NOTE_AS3, 208 }, 
	{ NOTE_AS3, 208 }, 
	{ NOTE_AS3, 208 }, 
	{ NOTE_AS3, 208 }, 
	{ NOTE_AS3, 208 }, 
	{ NOTE_REST, 208 }, 
	{ NOTE_REST, 419 }, 
	{ NOTE_REST, 417 }, 
	{ NOTE_AS3, 208 }, 
	{ NOTE_REST, 208 }, 
	{ NOTE_DS4, 417 }, 
	{ NOTE_AS3, 208 }, 
	{ NOTE_AS3, 209 }, 
	{ NOTE_AS3, 208 }, 
	{ NOTE_AS3, 208 }, 
	{ NOTE_AS3, 208 }, 
	{ NOTE_AS3, 208 }, 
	{ NOTE_AS3, 208 }, 
	{ NOTE_REST, 208 }, 
	{ NOTE_REST, 419 }, 
	{ NOTE_AS3, 208 }, 
	{ NOTE_AS3, 208 }, 
	{ NOTE_AS3, 208 }, 
	{ NOTE_AS3, 208 }, 
	{ NOTE_AS3, 208 }, 
	{ NOTE_REST, 208 }, 
	{ NOTE_REST, 419 }, 
	{ NOTE_AS3, 208 }, 
	{ NOTE_AS3, 208 }, 
	{ NOTE_AS3, 208 }, 
	{ NOTE_AS3, 208 }, 
	{ NOTE_AS3, 208 }, 
	{ NOTE_REST, 208 }, 
	{ NOTE_REST, 419 }, 
	{ NOTE_REST, 1667 }, 
	{ NOTE_B3, 208 }, 
	{ NOTE_REST, 208 }, 
	{ NOTE_A3, 208 }, 
	{ NOTE_REST, 208 }, 
	{ NOTE_D4, 208 }, 
	{ NOTE_REST, 208 }, 
	{ NOTE_CS4, 208 }, 
	{ NOTE_REST, 211 }, 
	{ NOTE_FS4, 208 }, 
	{ NOTE_REST, 208 }, 
	{ NOTE_AS3, 208 }, 
	{ NOTE_REST, 208 }, 
	{ NOTE_DS4, 208 }, 
	{ NOTE_REST, 208 }, 
	{ NOTE_REST, 419 }, 
	{ NOTE_REST, 833 }, 
	{ NOTE_REST, 417 }, 
	{ NOTE_DS4, 208 }, 
	{ NOTE_DS4, 209 }, 
	{ NOTE_GS4, 208 }, 
	{ NOTE_DS4, 208 }, 
	{ NOTE_D4, 208 }, 
	{ NOTE_C4, 208 }, 
	{ NOTE_AS3, 208 }, 
	{ NOTE_REST, 208 }, 
	{ NOTE_REST, 419 }, 
	{ NOTE_DS4, 625 }, 
	{ NOTE_G5, 208 }, 
	{ NOTE_GS3, 417 }, 
	{ NOTE_GS3, 417 }, 
	{ NOTE_D4, 417 }, 
	{ NOTE_D5, 208 }, 
	{ NOTE_D5, 208 }, 
	{ NOTE_G3, 417 }, 
	{ NOTE_D5, 417 }, 
	{ NOTE_AS3, 208 }, 
	{ NOTE_AS3, 208 }, 
	{ NOTE_AS3, 208 }, 
	{ NOTE_AS3, 208 }, 
	{ NOTE_AS3, 208 }, 
	{ NOTE_AS3, 208 }, 
	{ NOTE_AS3, 208 }, 
	{ NOTE_AS3, 211 }, 
	{ NOTE_AS3, 208 }, 
	{ NOTE_AS3, 208 }, 
	{ NOTE_AS3, 208 }, 
	{ NOTE_AS3, 208 }, 
	{ NOTE_AS3, 208 }, 
	{ NOTE_AS3, 208 }, 
	{ NOTE_AS3, 208 }, 
	{ NOTE_AS3, 211 }, 
	{ NOTE_AS3, 208 }, 
	{ NOTE_AS3, 208 }, 
	{ NOTE_AS3, 208 }, 
	{ NOTE_AS3, 208 }, 
	{ NOTE_AS3, 208 }, 
	{ NOTE_AS3, 208 }, 
	{ NOTE_AS3, 208 }, 
	{ NOTE_AS3, 211 }, 
	{ NOTE_AS3, 208 }, 
	{ NOTE_AS3, 208 }, 
	{ NOTE_AS3, 208 }, 
	{ NOTE_AS3, 208 }, 
	{ NOTE_AS3, 208 }, 
	{ NOTE_AS3, 208 }, 
	{ NOTE_AS3, 419 }, 
	{ NOTE_DS4, 1739 }, 
	{ NOTE_DS4, 1739 }, 
	{ NOTE_DS4, 1739 }, 
	{ NOTE_F4, 1739 }, 
	{ NOTE_AS3, 2609 }, 
	{ NOTE_DS4, 435 }, 
	{ NOTE_DS4, 434 }, 
	{ NOTE_AS3, 2029 }, 
	{ NOTE_CS4, 580 }, 
	{ NOTE_AS3, 1739 }, 
	{ NOTE_AS3, 870 }, 
	{ NOTE_DS4, 290 }, 
	{ NOTE_DS4, 290 }, 
	{ NOTE_DS4, 289 }, 
	{ NOTE_GS3, 1160 }, 
	{ NOTE_GS3, 290 }, 
	{ NOTE_G3, 289 }, 
	{ NOTE_F3, 1739 }, 
	{ NOTE_AS3, 1739 }, 
	{ NOTE_F3, 1739 }, 
	{ NOTE_AS3, 1739 }, 
	{ NOTE_F3, 870 }, 
	{ NOTE_AS3, 869 }, 
	{ NOTE_F3, 870 }, 
	{ NOTE_AS3, 869 }, 
	{ NOTE_DS4, 1739 }, 
	{ NOTE_DS4, 1739 }, 
	{ NOTE_DS4, 1739 }, 
	{ NOTE_F4, 1739 }, 
	{ NOTE_FS4, 870 }, 
	{ NOTE_GS4, 580 }, 
	{ NOTE_A4, 289 }, 
	{ NOTE_B3, 1739 }, 
	{ NOTE_GS3, 1739 }, 
	{ NOTE_AS3, 1739 }, 
	{ NOTE_AS3, 417 }, 
	{ NOTE_C4, 417 }, 
	{ NOTE_AS3, 417 }, 
	{ NOTE_C4, 417 }, 
	{ NOTE_D4, 417 }, 
	{ NOTE_DS4, 417 }, 
	{ NOTE_D4, 417 }, 
	{ NOTE_DS4, 417 }, 
	{ NOTE_F3, 417 }, 
	{ NOTE_G3, 417 }, 
	{ NOTE_GS3, 417 }, 
	{ NOTE_G3, 413 }, 
	{ NOTE_GS3, 417 }, 
	{ NOTE_AS3, 417 }, 
	{ NOTE_C4, 417 }, 
	{ NOTE_AS3, 417 }, 
	{ NOTE_D4, 417 }, 
	{ NOTE_AS3, 417 }, 
	{ NOTE_F4, 417 }, 
	{ NOTE_AS3, 414 }, 
	{ NOTE_DS4, 833 }, 
	{ NOTE_DS4, 417 }, 
	{ NOTE_AS4, 417 }, 
	{ NOTE_D4, 833 }, 
	{ NOTE_D4, 417 }, 
	{ NOTE_D4, 416 }, 
	{ NOTE_C4, 833 }, 
	{ NOTE_C4, 833 }, 
	{ NOTE_B3, 833 }, 
	{ NOTE_C4, 834 }, 
	{ NOTE_B3, 833 }, 
	{ NOTE_C4, 833 }, 
	{ NOTE_AS3, 833 }, 
	{ NOTE_DS4, 834 }, 
	{ NOTE_D4, 833 }, 
	{ NOTE_D5, 417 }, 
	{ NOTE_A5, 417 }, 
	{ NOTE_G4, 417 }, 
	{ NOTE_D5, 417 }, 
	{ NOTE_G5, 417 }, 
	{ NOTE_AS5, 415 }, 
	{ NOTE_GS4, 417 }, 
	{ NOTE_AS5, 417 }, 
	{ NOTE_GS5, 417 }, 
	{ NOTE_DS5, 417 }, 
	{ NOTE_G5, 417 }, 
	{ NOTE_DS5, 417 }, 
	{ NOTE_DS6, 417 }, 
	{ NOTE_DS5, 414 }, 
	{ NOTE_C4, 417 }, 
	{ NOTE_C5, 417 }, 
	{ NOTE_DS5, 417 }, 
	{ NOTE_C5, 417 }, 
	{ NOTE_G3, 417 }, 
	{ NOTE_G4, 417 }, 
	{ NOTE_G5, 417 }, 
	{ NOTE_G4, 414 }, 
	{ NOTE_C4, 417 }, 
	{ NOTE_C5, 417 }, 
	{ NOTE_DS5, 417 }, 
	{ NOTE_G5, 417 }, 
	{ NOTE_G3, 417 }, 
	{ NOTE_G4, 417 }, 
	{ NOTE_AS4, 417 }, 
	{ NOTE_D5, 414 }, 
	{ NOTE_C4, 417 }, 
	{ NOTE_C5, 417 }, 
	{ NOTE_DS5, 417 }, 
	{ NOTE_G5, 417 }, 
	{ NOTE_GS3, 1665 }, 
	{ NOTE_AS3, 1667 }, 
	{ NOTE_AS3, 1666 }, 
	{ NOTE_DS4, 417 }, 
	{ NOTE_DS5, 417 }, 
	{ NOTE_G5, 417 }, 
	{ NOTE_AS5, 417 }, 
	{ NOTE_GS5, 417 }, 
	{ NOTE_D6, 417 }, 
	{ NOTE_GS5, 417 }, 
	{ NOTE_D6, 414 }, 
	{ NOTE_DS4, 333 }, 
	{ NOTE_DS5, 333 }, 
	{ NOTE_G5, 333 }, 
	{ NOTE_AS5, 333 }, 
	{ NOTE_DS5, 333 }, 
	{ NOTE_D6, 333 }, 
	{ NOTE_DS5, 333 }, 
	{ NOTE_D6, 336 }, 
	{ NOTE_D4, 417 }, 
	{ NOTE_D5, 417 }, 
	{ NOTE_F5, 417 }, 
	{ NOTE_AS5, 417 }, 
	{ NOTE_CS4, 833 }, 
	{ NOTE_CS5, 417 }, 
	{ NOTE_C6, 415 }, 
	{ NOTE_C4, 417 }, 
	{ NOTE_C5, 417 }, 
	{ NOTE_E5, 417 }, 
	{ NOTE_G5, 417 }, 
	{ NOTE_CS5, 417 }, 
	{ NOTE_GS5, 417 }, 
	{ NOTE_GS5, 417 }, 
	{ NOTE_G5, 414 }, 
	{ NOTE_C4, 417 }, 
	{ NOTE_E5, 417 }, 
	{ NOTE_C5, 417 }, 
	{ NOTE_AS4, 417 }, 
	{ NOTE_F4, 417 }, 
	{ NOTE_A5, 417 }, 
	{ NOTE_F6, 417 }, 
	{ NOTE_F5, 414 }, 
	{ NOTE_AS5, 1000 }, 
	{ NOTE_F6, 1000 }, 
	{ NOTE_A5, 1000 }, 
	{ NOTE_F6, 1000 }, 
	{ NOTE_GS5, 1000 }, 
	{ NOTE_F6, 1000 }, 
	{ NOTE_G5, 1000 }, 
	{ NOTE_F6, 1000 }, 
	{ NOTE_F4, 16000 }, 
};
const uint16_t NUM_OF_NOTES1 = sizeof(melody1)/sizeof(melody1[0]);

const Note melody2[] PROGMEM = {
	{ NOTE_REST, 3333 }, 
	{ NOTE_REST, 3333 }, 
	{ NOTE_REST, 4167 }, 
	{ NOTE_REST, 3333 }, 
	{ NOTE_D3, 417 }, 
	{ NOTE_G3, 417 }, 
	{ NOTE_AS3, 417 }, 
	{ NOTE_D4, 417 }, 
	{ NOTE_G4, 417 }, 
	{ NOTE_D4, 417 }, 
	{ NOTE_AS3, 417 }, 
	{ NOTE_G3, 414 }, 
	{ NOTE_F3, 3333 }, 
	{ NOTE_AS3, 417 }, 
	{ NOTE_DS4, 417 }, 
	{ NOTE_G4, 417 }, 
	{ NOTE_AS4, 417 }, 
	{ NOTE_C5, 417 }, 
	{ NOTE_DS5, 417 }, 
	{ NOTE_AS4, 417 }, 
	{ NOTE_DS5, 414 }, 
	{ NOTE_G3, 833 }, 
	{ NOTE_G4, 417 }, 
	{ NOTE_DS4, 833 }, 
	{ NOTE_DS4, 417 }, 
	{ NOTE_C3, 833 }, 
	{ NOTE_C3, 833 }, 
	{ NOTE_C4, 417 }, 
	{ NOTE_F4, 2083 }, 
	{ NOTE_FS4, 833 }, 
	{ NOTE_F4, 833 }, 
	{ NOTE_E4, 833 }, 
	{ NOTE_F4, 834 }, 
	{ NOTE_FS4, 833 }, 
	{ NOTE_F4, 833 }, 
	{ NOTE_E4, 833 }, 
	{ NOTE_F4, 834 }, 
	{ NOTE_AS3, 417 }, 
	{ NOTE_DS4, 417 }, 
	{ NOTE_AS4, 417 }, 
	{ NOTE_DS4, 417 }, 
	{ NOTE_AS3, 417 }, 
	{ NOTE_D4, 417 }, 
	{ NOTE_AS4, 417 }, 
	{ NOTE_D4, 414 }, 
	{ NOTE_G3, 417 }, 
	{ NOTE_CS4, 417 }, 
	{ NOTE_E4, 2916 }, 
	{ NOTE_C4, 417 }, 
	{ NOTE_DS4, 417 }, 
	{ NOTE_F4, 417 }, 
	{ NOTE_F4, 1665 }, 
	{ NOTE_F3, 417 }, 
	{ NOTE_F3, 417 }, 
	{ NOTE_AS3, 417 }, 
	{ NOTE_D4, 417 }, 
	{ NOTE_G5, 417 }, 
	{ NOTE_F3, 417 }, 
	{ NOTE_F5, 417 }, 
	{ NOTE_F3, 414 }, 
	{ NOTE_F3, 417 }, 
	{ NOTE_F3, 417 }, 
	{ NOTE_AS3, 417 }, 
	{ NOTE_D4, 417 }, 
	{ NOTE_G5, 417 }, 
	{ NOTE_F3, 417 }, 
	{ NOTE_F5, 417 }, 
	{ NOTE_F3, 414 }, 
	{ NOTE_F3, 417 }, 
	{ NOTE_F3, 417 }, 
	{ NOTE_AS3, 417 }, 
	{ NOTE_D4, 417 }, 
	{ NOTE_G5, 417 }, 
	{ NOTE_F3, 417 }, 
	{ NOTE_F5, 417 }, 
	{ NOTE_F3, 414 }, 
	{ NOTE_D3, 417 }, 
	{ NOTE_G3, 417 }, 
	{ NOTE_AS3, 417 }, 
	{ NOTE_D4, 417 }, 
	{ NOTE_A5, 417 }, 
	{ NOTE_G3, 417 }, 
	{ NOTE_G5, 417 }, 
	{ NOTE_G3, 414 }, 
	{ NOTE_G3, 417 }, 
	{ NOTE_C4, 417 }, 
	{ NOTE_DS4, 417 }, 
	{ NOTE_G4, 417 }, 
	{ NOTE_D6, 417 }, 
	{ NOTE_C4, 417 }, 
	{ NOTE_C6, 417 }, 
	{ NOTE_C4, 414 }, 
	{ NOTE_G3, 417 }, 
	{ NOTE_C4, 417 }, 
	{ NOTE_DS4, 417 }, 
	{ NOTE_G4, 417 }, 
	{ NOTE_C4, 417 }, 
	{ NOTE_DS4, 417 }, 
	{ NOTE_F4, 417 }, 
	{ NOTE_C5, 414 }, 
	{ NOTE_F3, 417 }, 
	{ NOTE_F3, 417 }, 
	{ NOTE_AS3, 417 }, 
	{ NOTE_D4, 417 }, 
	{ NOTE_G5, 417 }, 
	{ NOTE_F3, 417 }, 
	{ NOTE_F5, 417 }, 
	{ NOTE_F3, 414 }, 
	{ NOTE_D3, 417 }, 
	{ NOTE_G3, 417 }, 
	{ NOTE_AS3, 417 }, 
	{ NOTE_D4, 417 }, 
	{ NOTE_A5, 417 }, 
	{ NOTE_G3, 417 }, 
	{ NOTE_G5, 417 }, 
	{ NOTE_G3, 414 }, 
	{ NOTE_G3, 417 }, 
	{ NOTE_C4, 417 }, 
	{ NOTE_DS4, 417 }, 
	{ NOTE_G4, 417 }, 
	{ NOTE_G3, 417 }, 
	{ NOTE_G4, 417 }, 
	{ NOTE_AS3, 417 }, 
	{ NOTE_G4, 414 }, 
	{ NOTE_DS3, 417 }, 
	{ NOTE_A3, 417 }, 
	{ NOTE_DS4, 417 }, 
	{ NOTE_G4, 417 }, 
	{ NOTE_GS3, 417 }, 
	{ NOTE_G4, 417 }, 
	{ NOTE_G3, 417 }, 
	{ NOTE_G4, 414 }, 
	{ NOTE_AS3, 417 }, 
	{ NOTE_DS4, 417 }, 
	{ NOTE_AS4, 417 }, 
	{ NOTE_DS4, 417 }, 
	{ NOTE_AS4, 417 }, 
	{ NOTE_DS4, 417 }, 
	{ NOTE_AS3, 417 }, 
	{ NOTE_AS4, 414 }, 
	{ NOTE_G3, 417 }, 
	{ NOTE_C4, 417 }, 
	{ NOTE_DS4, 417 }, 
	{ NOTE_G4, 417 }, 
	{ NOTE_D6, 417 }, 
	{ NOTE_C4, 417 }, 
	{ NOTE_C6, 417 }, 
	{ NOTE_C4, 414 }, 
	{ NOTE_C4, 417 }, 
	{ NOTE_F4, 417 }, 
	{ NOTE_C5, 417 }, 
	{ NOTE_E4, 417 }, 
	{ NOTE_GS3, 417 }, 
	{ NOTE_DS4, 417 }, 
	{ NOTE_GS3, 417 }, 
	{ NOTE_D4, 414 }, 
	{ NOTE_F3, 625 }, 
	{ NOTE_AS2, 208 }, 
	{ NOTE_D4, 417 }, 
	{ NOTE_AS2, 208 }, 
	{ NOTE_AS2, 208 }, 
	{ NOTE_D4, 417 }, 
	{ NOTE_AS2, 208 }, 
	{ NOTE_AS2, 208 }, 
	{ NOTE_D4, 208 }, 
	{ NOTE_AS2, 208 }, 
	{ NOTE_AS2, 418 }, 
	{ NOTE_AS3, 417 }, 
	{ NOTE_DS4, 417 }, 
	{ NOTE_AS4, 417 }, 
	{ NOTE_DS4, 417 }, 
	{ NOTE_AS3, 417 }, 
	{ NOTE_D4, 417 }, 
	{ NOTE_AS4, 417 }, 
	{ NOTE_D4, 414 }, 
	{ NOTE_G3, 417 }, 
	{ NOTE_C4, 417 }, 
	{ NOTE_G4, 417 }, 
	{ NOTE_C4, 417 }, 
	{ NOTE_DS3, 1665 }, 
	{ NOTE_AS3, 417 }, 
	{ NOTE_DS4, 417 }, 
	{ NOTE_G4, 417 }, 
	{ NOTE_AS4, 416 }, 
	{ NOTE_C5, 417 }, 
	{ NOTE_DS5, 417 }, 
	{ NOTE_AS4, 417 }, 
	{ NOTE_DS5, 417 }, 
	{ NOTE_A4, 417 }, 
	{ NOTE_DS5, 417 }, 
	{ NOTE_GS4, 417 }, 
	{ NOTE_DS5, 414 }, 
	{ NOTE_F3, 417 }, 
	{ NOTE_F3, 417 }, 
	{ NOTE_AS3, 417 }, 
	{ NOTE_D4, 417 }, 
	{ NOTE_G5, 417 }, 
	{ NOTE_F3, 417 }, 
	{ NOTE_F5, 417 }, 
	{ NOTE_F3, 414 }, 
	{ NOTE_F3, 417 }, 
	{ NOTE_F3, 417 }, 
	{ NOTE_AS3, 417 }, 
	{ NOTE_D4, 417 }, 
	{ NOTE_G5, 417 }, 
	{ NOTE_F3, 417 }, 
	{ NOTE_F5, 417 }, 
	{ NOTE_F3, 414 }, 
	{ NOTE_F3, 417 }, 
	{ NOTE_F3, 417 }, 
	{ NOTE_AS3, 417 }, 
	{ NOTE_D4, 417 }, 
	{ NOTE_G5, 417 }, 
	{ NOTE_F3, 417 }, 
	{ NOTE_F5, 417 }, 
	{ NOTE_F3, 414 }, 
	{ NOTE_D3, 417 }, 
	{ NOTE_G3, 417 }, 
	{ NOTE_AS3, 417 }, 
	{ NOTE_D4, 417 }, 
	{ NOTE_A5, 417 }, 
	{ NOTE_G3, 417 }, 
	{ NOTE_G5, 417 }, 
	{ NOTE_G3, 414 }, 
	{ NOTE_G3, 417 }, 
	{ NOTE_C4, 417 }, 
	{ NOTE_DS4, 417 }, 
	{ NOTE_G4, 417 }, 
	{ NOTE_D6, 417 }, 
	{ NOTE_C4, 417 }, 
	{ NOTE_C6, 417 }, 
	{ NOTE_C4, 414 }, 
	{ NOTE_G3, 417 }, 
	{ NOTE_C4, 417 }, 
	{ NOTE_DS4, 417 }, 
	{ NOTE_G4, 417 }, 
	{ NOTE_C4, 417 }, 
	{ NOTE_DS4, 417 }, 
	{ NOTE_F4, 417 }, 
	{ NOTE_C5, 414 }, 
	{ NOTE_F3, 417 }, 
	{ NOTE_F3, 417 }, 
	{ NOTE_AS3, 417 }, 
	{ NOTE_D4, 417 }, 
	{ NOTE_G5, 417 }, 
	{ NOTE_F3, 417 }, 
	{ NOTE_F5, 417 }, 
	{ NOTE_F3, 414 }, 
	{ NOTE_D3, 417 }, 
	{ NOTE_G3, 417 }, 
	{ NOTE_AS3, 417 }, 
	{ NOTE_D4, 417 }, 
	{ NOTE_A5, 417 }, 
	{ NOTE_G3, 417 }, 
	{ NOTE_G5, 417 }, 
	{ NOTE_G3, 414 }, 
	{ NOTE_G3, 417 }, 
	{ NOTE_C4, 417 }, 
	{ NOTE_DS4, 417 }, 
	{ NOTE_G4, 417 }, 
	{ NOTE_G3, 417 }, 
	{ NOTE_G4, 417 }, 
	{ NOTE_AS3, 417 }, 
	{ NOTE_G4, 414 }, 
	{ NOTE_A3, 417 }, 
	{ NOTE_A3, 417 }, 
	{ NOTE_DS4, 417 }, 
	{ NOTE_G4, 417 }, 
	{ NOTE_GS3, 417 }, 
	{ NOTE_G4, 417 }, 
	{ NOTE_G3, 417 }, 
	{ NOTE_G4, 414 }, 
	{ NOTE_AS3, 417 }, 
	{ NOTE_DS4, 417 }, 
	{ NOTE_AS4, 417 }, 
	{ NOTE_DS4, 417 }, 
	{ NOTE_AS4, 417 }, 
	{ NOTE_DS4, 417 }, 
	{ NOTE_AS3, 417 }, 
	{ NOTE_AS4, 414 }, 
	{ NOTE_G3, 417 }, 
	{ NOTE_C4, 417 }, 
	{ NOTE_DS4, 417 }, 
	{ NOTE_G4, 417 }, 
	{ NOTE_D6, 417 }, 
	{ NOTE_C4, 417 }, 
	{ NOTE_C6, 417 }, 
	{ NOTE_C4, 414 }, 
	{ NOTE_C4, 417 }, 
	{ NOTE_F4, 417 }, 
	{ NOTE_C5, 417 }, 
	{ NOTE_E4, 417 }, 
	{ NOTE_GS3, 417 }, 
	{ NOTE_DS4, 417 }, 
	{ NOTE_GS3, 417 }, 
	{ NOTE_D4, 414 }, 
	{ NOTE_F3, 625 }, 
	{ NOTE_D4, 208 }, 
	{ NOTE_D4, 417 }, 
	{ NOTE_AS2, 208 }, 
	{ NOTE_D4, 208 }, 
	{ NOTE_D4, 417 }, 
	{ NOTE_AS2, 208 }, 
	{ NOTE_D4, 208 }, 
	{ NOTE_D4, 208 }, 
	{ NOTE_AS2, 208 }, 
	{ NOTE_AS2, 418 }, 
	{ NOTE_AS3, 417 }, 
	{ NOTE_DS4, 417 }, 
	{ NOTE_AS4, 417 }, 
	{ NOTE_DS4, 417 }, 
	{ NOTE_AS3, 417 }, 
	{ NOTE_D4, 417 }, 
	{ NOTE_AS4, 417 }, 
	{ NOTE_D4, 414 }, 
	{ NOTE_G3, 417 }, 
	{ NOTE_C4, 417 }, 
	{ NOTE_DS4, 417 }, 
	{ NOTE_G4, 417 }, 
	{ NOTE_D6, 417 }, 
	{ NOTE_C4, 417 }, 
	{ NOTE_C6, 417 }, 
	{ NOTE_C4, 414 }, 
	{ NOTE_C4, 417 }, 
	{ NOTE_F4, 417 }, 
	{ NOTE_C5, 417 }, 
	{ NOTE_E4, 417 }, 
	{ NOTE_GS3, 417 }, 
	{ NOTE_DS4, 417 }, 
	{ NOTE_GS3, 417 }, 
	{ NOTE_D4, 414 }, 
	{ NOTE_F3, 625 }, 
	{ NOTE_D4, 208 }, 
	{ NOTE_D4, 417 }, 
	{ NOTE_AS2, 208 }, 
	{ NOTE_D4, 208 }, 
	{ NOTE_D4, 417 }, 
	{ NOTE_AS2, 208 }, 
	{ NOTE_D4, 208 }, 
	{ NOTE_D4, 208 }, 
	{ NOTE_AS2, 208 }, 
	{ NOTE_AS2, 418 }, 
	{ NOTE_AS3, 417 }, 
	{ NOTE_DS4, 417 }, 
	{ NOTE_AS4, 417 }, 
	{ NOTE_DS4, 417 }, 
	{ NOTE_AS3, 417 }, 
	{ NOTE_D4, 417 }, 
	{ NOTE_AS4, 417 }, 
	{ NOTE_D4, 414 }, 
	{ NOTE_G3, 417 }, 
	{ NOTE_C4, 417 }, 
	{ NOTE_DS4, 417 }, 
	{ NOTE_G4, 417 }, 
	{ NOTE_D6, 417 }, 
	{ NOTE_C4, 417 }, 
	{ NOTE_C6, 417 }, 
	{ NOTE_C4, 414 }, 
	{ NOTE_C4, 417 }, 
	{ NOTE_F4, 417 }, 
	{ NOTE_C5, 417 }, 
	{ NOTE_E4, 417 }, 
	{ NOTE_GS3, 417 }, 
	{ NOTE_DS4, 417 }, 
	{ NOTE_GS3, 417 }, 
	{ NOTE_D4, 414 }, 
	{ NOTE_CS4, 625 }, 
	{ NOTE_GS4, 208 }, 
	{ NOTE_GS4, 278 }, 
	{ NOTE_CS4, 278 }, 
	{ NOTE_C4, 278 }, 
	{ NOTE_B3, 417 }, 
	{ NOTE_CS5, 417 }, 
	{ NOTE_AS3, 832 }, 
	{ NOTE_A3, 208 }, 
	{ NOTE_REST, 208 }, 
	{ NOTE_CS4, 208 }, 
	{ NOTE_REST, 208 }, 
	{ NOTE_CS4, 208 }, 
	{ NOTE_REST, 208 }, 
	{ NOTE_CS4, 208 }, 
	{ NOTE_REST, 211 }, 
	{ NOTE_CS4, 208 }, 
	{ NOTE_REST, 208 }, 
	{ NOTE_CS4, 208 }, 
	{ NOTE_REST, 208 }, 
	{ NOTE_CS4, 208 }, 
	{ NOTE_REST, 208 }, 
	{ NOTE_CS4, 208 }, 
	{ NOTE_REST, 211 }, 
	{ NOTE_D4, 208 }, 
	{ NOTE_REST, 208 }, 
	{ NOTE_CS4, 208 }, 
	{ NOTE_CS4, 208 }, 
	{ NOTE_C4, 208 }, 
	{ NOTE_REST, 208 }, 
	{ NOTE_CS4, 208 }, 
	{ NOTE_REST, 211 }, 
	{ NOTE_D4, 208 }, 
	{ NOTE_REST, 208 }, 
	{ NOTE_CS4, 208 }, 
	{ NOTE_CS4, 208 }, 
	{ NOTE_C4, 208 }, 
	{ NOTE_REST, 208 }, 
	{ NOTE_CS4, 208 }, 
	{ NOTE_CS4, 211 }, 
	{ NOTE_FS4, 208 }, 
	{ NOTE_REST, 208 }, 
	{ NOTE_CS4, 208 }, 
	{ NOTE_CS4, 208 }, 
	{ NOTE_FS4, 208 }, 
	{ NOTE_REST, 208 }, 
	{ NOTE_CS4, 208 }, 
	{ NOTE_CS4, 211 }, 
	{ NOTE_C4, 208 }, 
	{ NOTE_C4, 208 }, 
	{ NOTE_CS4, 208 }, 
	{ NOTE_REST, 208 }, 
	{ NOTE_D4, 208 }, 
	{ NOTE_REST, 208 }, 
	{ NOTE_CS4, 208 }, 
	{ NOTE_REST, 211 }, 
	{ NOTE_GS3, 208 }, 
	{ NOTE_GS3, 208 }, 
	{ NOTE_GS3, 208 }, 
	{ NOTE_GS3, 208 }, 
	{ NOTE_GS3, 417 }, 
	{ NOTE_GS3, 418 }, 
	{ NOTE_G3, 208 }, 
	{ NOTE_G3, 208 }, 
	{ NOTE_G3, 208 }, 
	{ NOTE_G3, 208 }, 
	{ NOTE_B3, 417 }, 
	{ NOTE_B3, 418 }, 
	{ NOTE_A3, 417 }, 
	{ NOTE_REST, 417 }, 
	{ NOTE_REST, 833 }, 
	{ NOTE_REST, 1667 }, 
	{ NOTE_REST, 417 }, 
	{ NOTE_A3, 208 }, 
	{ NOTE_A3, 208 }, 
	{ NOTE_AS3, 208 }, 
	{ NOTE_A3, 208 }, 
	{ NOTE_G3, 208 }, 
	{ NOTE_F3, 210 }, 
	{ NOTE_E3, 208 }, 
	{ NOTE_REST, 208 }, 
	{ NOTE_REST, 417 }, 
	{ NOTE_REST, 1667 }, 
	{ NOTE_FS4, 208 }, 
	{ NOTE_REST, 208 }, 
	{ NOTE_F4, 208 }, 
	{ NOTE_REST, 208 }, 
	{ NOTE_E4, 208 }, 
	{ NOTE_REST, 208 }, 
	{ NOTE_F4, 208 }, 
	{ NOTE_REST, 211 }, 
	{ NOTE_FS4, 208 }, 
	{ NOTE_REST, 208 }, 
	{ NOTE_F4, 208 }, 
	{ NOTE_REST, 208 }, 
	{ NOTE_E4, 208 }, 
	{ NOTE_REST, 208 }, 
	{ NOTE_F4, 208 }, 
	{ NOTE_REST, 211 }, 
	{ NOTE_DS4, 417 }, 
	{ NOTE_DS4, 208 }, 
	{ NOTE_DS4, 208 }, 
	{ NOTE_DS4, 417 }, 
	{ NOTE_DS4, 417 }, 
	{ NOTE_DS4, 208 }, 
	{ NOTE_DS4, 208 }, 
	{ NOTE_DS4, 417 }, 
	{ NOTE_DS4, 208 }, 
	{ NOTE_DS4, 208 }, 
	{ NOTE_DS4, 418 }, 
	{ NOTE_GS3, 417 }, 
	{ NOTE_GS4, 208 }, 
	{ NOTE_GS4, 208 }, 
	{ NOTE_G3, 417 }, 
	{ NOTE_G4, 208 }, 
	{ NOTE_G4, 209 }, 
	{ NOTE_F3, 417 }, 
	{ NOTE_DS4, 208 }, 
	{ NOTE_DS4, 208 }, 
	{ NOTE_AS3, 208 }, 
	{ NOTE_AS4, 208 }, 
	{ NOTE_AS4, 208 }, 
	{ NOTE_AS4, 210 }, 
	{ NOTE_C5, 208 }, 
	{ NOTE_DS5, 208 }, 
	{ NOTE_AS4, 208 }, 
	{ NOTE_DS5, 208 }, 
	{ NOTE_A4, 208 }, 
	{ NOTE_DS5, 208 }, 
	{ NOTE_GS4, 208 }, 
	{ NOTE_DS5, 211 }, 
	{ NOTE_FS4, 208 }, 
	{ NOTE_REST, 208 }, 
	{ NOTE_F4, 208 }, 
	{ NOTE_REST, 208 }, 
	{ NOTE_E4, 208 }, 
	{ NOTE_REST, 208 }, 
	{ NOTE_F4, 208 }, 
	{ NOTE_REST, 211 }, 
	{ NOTE_FS4, 208 }, 
	{ NOTE_REST, 208 }, 
	{ NOTE_F4, 208 }, 
	{ NOTE_REST, 208 }, 
	{ NOTE_E4, 208 }, 
	{ NOTE_REST, 208 }, 
	{ NOTE_AS3, 208 }, 
	{ NOTE_REST, 211 }, 
	{ NOTE_DS4, 208 }, 
	{ NOTE_REST, 208 }, 
	{ NOTE_AS3, 208 }, 
	{ NOTE_REST, 208 }, 
	{ NOTE_AS3, 625 }, 
	{ NOTE_AS3, 210 }, 
	{ NOTE_AS3, 208 }, 
	{ NOTE_AS3, 208 }, 
	{ NOTE_AS3, 208 }, 
	{ NOTE_AS3, 208 }, 
	{ NOTE_AS3, 208 }, 
	{ NOTE_REST, 208 }, 
	{ NOTE_REST, 419 }, 
	{ NOTE_REST, 417 }, 
	{ NOTE_AS3, 208 }, 
	{ NOTE_REST, 208 }, 
	{ NOTE_DS4, 417 }, 
	{ NOTE_AS3, 208 }, 
	{ NOTE_AS3, 209 }, 
	{ NOTE_AS3, 208 }, 
	{ NOTE_AS3, 208 }, 
	{ NOTE_AS3, 208 }, 
	{ NOTE_AS3, 208 }, 
	{ NOTE_AS3, 208 }, 
	{ NOTE_REST, 208 }, 
	{ NOTE_REST, 419 }, 
	{ NOTE_REST, 417 }, 
	{ NOTE_AS3, 208 }, 
	{ NOTE_REST, 208 }, 
	{ NOTE_DS4, 417 }, 
	{ NOTE_AS3, 208 }, 
	{ NOTE_AS3, 209 }, 
	{ NOTE_AS3, 208 }, 
	{ NOTE_AS3, 208 }, 
	{ NOTE_AS3, 208 }, 
	{ NOTE_AS3, 208 }, 
	{ NOTE_AS3, 208 }, 
	{ NOTE_REST, 208 }, 
	{ NOTE_REST, 419 }, 
	{ NOTE_AS3, 208 }, 
	{ NOTE_AS3, 208 }, 
	{ NOTE_AS3, 208 }, 
	{ NOTE_AS3, 208 }, 
	{ NOTE_AS3, 208 }, 
	{ NOTE_REST, 208 }, 
	{ NOTE_REST, 419 }, 
	{ NOTE_AS3, 208 }, 
	{ NOTE_AS3, 208 }, 
	{ NOTE_AS3, 208 }, 
	{ NOTE_AS3, 208 }, 
	{ NOTE_AS3, 208 }, 
	{ NOTE_REST, 208 }, 
	{ NOTE_REST, 419 }, 
	{ NOTE_REST, 1667 }, 
	{ NOTE_B3, 208 }, 
	{ NOTE_REST, 208 }, 
	{ NOTE_CS4, 208 }, 
	{ NOTE_REST, 208 }, 
	{ NOTE_D4, 208 }, 
	{ NOTE_REST, 208 }, 
	{ NOTE_CS4, 208 }, 
	{ NOTE_REST, 211 }, 
	{ NOTE_CS4, 208 }, 
	{ NOTE_REST, 208 }, 
	{ NOTE_D4, 208 }, 
	{ NOTE_REST, 208 }, 
	{ NOTE_DS4, 208 }, 
	{ NOTE_REST, 208 }, 
	{ NOTE_REST, 419 }, 
	{ NOTE_REST, 833 }, 
	{ NOTE_REST, 417 }, 
	{ NOTE_DS4, 208 }, 
	{ NOTE_DS4, 209 }, 
	{ NOTE_GS4, 208 }, 
	{ NOTE_DS4, 208 }, 
	{ NOTE_D4, 208 }, 
	{ NOTE_C4, 208 }, 
	{ NOTE_AS3, 208 }, 
	{ NOTE_REST, 208 }, 
	{ NOTE_REST, 419 }, 
	{ NOTE_AS3, 625 }, 
	{ NOTE_G4, 208 }, 
	{ NOTE_C4, 417 }, 
	{ NOTE_C4, 417 }, 
	{ NOTE_D4, 417 }, 
	{ NOTE_FS4, 208 }, 
	{ NOTE_FS4, 208 }, 
	{ NOTE_G3, 417 }, 
	{ NOTE_G4, 417 }, 
	{ NOTE_AS3, 208 }, 
	{ NOTE_AS3, 208 }, 
	{ NOTE_AS3, 208 }, 
	{ NOTE_AS3, 208 }, 
	{ NOTE_AS3, 208 }, 
	{ NOTE_AS3, 208 }, 
	{ NOTE_AS3, 208 }, 
	{ NOTE_AS3, 211 }, 
	{ NOTE_AS3, 208 }, 
	{ NOTE_AS3, 208 }, 
	{ NOTE_AS3, 208 }, 
	{ NOTE_AS3, 208 }, 
	{ NOTE_AS3, 208 }, 
	{ NOTE_AS3, 208 }, 
	{ NOTE_AS3, 208 }, 
	{ NOTE_AS3, 211 }, 
	{ NOTE_AS3, 208 }, 
	{ NOTE_AS3, 208 }, 
	{ NOTE_AS3, 208 }, 
	{ NOTE_AS3, 208 }, 
	{ NOTE_AS3, 208 }, 
	{ NOTE_AS3, 208 }, 
	{ NOTE_AS3, 208 }, 
	{ NOTE_AS3, 211 }, 
	{ NOTE_AS3, 208 }, 
	{ NOTE_AS3, 208 }, 
	{ NOTE_AS3, 208 }, 
	{ NOTE_AS3, 208 }, 
	{ NOTE_AS3, 208 }, 
	{ NOTE_AS3, 208 }, 
	{ NOTE_AS3, 419 }, 
	{ NOTE_AS3, 1739 }, 
	{ NOTE_AS3, 1739 }, 
	{ NOTE_AS3, 1739 }, 
	{ NOTE_C4, 1739 }, 
	{ NOTE_F3, 2609 }, 
	{ NOTE_AS3, 435 }, 
	{ NOTE_AS3, 434 }, 
	{ NOTE_F3, 2029 }, 
	{ NOTE_GS3, 580 }, 
	{ NOTE_F3, 1739 }, 
	{ NOTE_F3, 870 }, 
	{ NOTE_AS3, 290 }, 
	{ NOTE_AS3, 290 }, 
	{ NOTE_AS3, 289 }, 
	{ NOTE_DS3, 1160 }, 
	{ NOTE_DS3, 290 }, 
	{ NOTE_D3, 289 }, 
	{ NOTE_C3, 1739 }, 
	{ NOTE_F3, 1739 }, 
	{ NOTE_C3, 1739 }, 
	{ NOTE_F3, 1739 }, 
	{ NOTE_C3, 870 }, 
	{ NOTE_F3, 869 }, 
	{ NOTE_C3, 870 }, 
	{ NOTE_F3, 869 }, 
	{ NOTE_AS3, 1739 }, 
	{ NOTE_AS3, 1739 }, 
	{ NOTE_AS3, 1739 }, 
	{ NOTE_C4, 1739 }, 
	{ NOTE_CS4, 870 }, 
	{ NOTE_GS3, 580 }, 
	{ NOTE_A3, 289 }, 
	{ NOTE_FS3, 1739 }, 
	{ NOTE_DS3, 1739 }, 
	{ NOTE_F3, 1739 }, 
	{ NOTE_AS3, 417 }, 
	{ NOTE_C4, 417 }, 
	{ NOTE_AS3, 417 }, 
	{ NOTE_C4, 417 }, 
	{ NOTE_D4, 417 }, 
	{ NOTE_DS4, 417 }, 
	{ NOTE_D4, 417 }, 
	{ NOTE_DS4, 417 }, 
	{ NOTE_F3, 417 }, 
	{ NOTE_G3, 417 }, 
	{ NOTE_GS3, 417 }, 
	{ NOTE_G3, 413 }, 
	{ NOTE_GS3, 417 }, 
	{ NOTE_AS3, 417 }, 
	{ NOTE_C4, 417 }, 
	{ NOTE_AS3, 417 }, 
	{ NOTE_D4, 417 }, 
	{ NOTE_AS3, 417 }, 
	{ NOTE_F4, 417 }, 
	{ NOTE_AS3, 414 }, 
	{ NOTE_AS3, 833 }, 
	{ NOTE_AS3, 417 }, 
	{ NOTE_AS3, 417 }, 
	{ NOTE_AS3, 833 }, 
	{ NOTE_AS3, 417 }, 
	{ NOTE_D3, 416 }, 
	{ NOTE_G3, 833 }, 
	{ NOTE_G3, 833 }, 
	{ NOTE_G3, 833 }, 
	{ NOTE_G3, 834 }, 
	{ NOTE_FS3, 833 }, 
	{ NOTE_G3, 833 }, 
	{ NOTE_F3, 833 }, 
	{ NOTE_AS3, 834 }, 
	{ NOTE_A3, 833 }, 
	{ NOTE_FS4, 417 }, 
	{ NOTE_A4, 417 }, 
	{ NOTE_D4, 417 }, 
	{ NOTE_D4, 417 }, 
	{ NOTE_G4, 417 }, 
	{ NOTE_AS4, 415 }, 
	{ NOTE_GS3, 417 }, 
	{ NOTE_AS4, 417 }, 
	{ NOTE_GS4, 417 }, 
	{ NOTE_DS4, 417 }, 
	{ NOTE_AS4, 417 }, 
	{ NOTE_DS4, 417 }, 
	{ NOTE_DS5, 417 }, 
	{ NOTE_DS4, 414 }, 
	{ NOTE_G3, 417 }, 
	{ NOTE_C4, 417 }, 
	{ NOTE_G4, 417 }, 
	{ NOTE_C4, 417 }, 
	{ NOTE_D3, 417 }, 
	{ NOTE_G3, 417 }, 
	{ NOTE_G4, 417 }, 
	{ NOTE_G3, 414 }, 
	{ NOTE_G3, 417 }, 
	{ NOTE_C4, 417 }, 
	{ NOTE_DS4, 417 }, 
	{ NOTE_G4, 417 }, 
	{ NOTE_D3, 417 }, 
	{ NOTE_G3, 417 }, 
	{ NOTE_AS3, 417 }, 
	{ NOTE_D4, 414 }, 
	{ NOTE_G3, 417 }, 
	{ NOTE_C4, 417 }, 
	{ NOTE_DS4, 417 }, 
	{ NOTE_G4, 417 }, 
	{ NOTE_DS3, 1665 }, 
	{ NOTE_GS3, 1667 }, 
	{ NOTE_GS3, 1666 }, 
	{ NOTE_AS3, 417 }, 
	{ NOTE_DS4, 417 }, 
	{ NOTE_G4, 417 }, 
	{ NOTE_AS4, 417 }, 
	{ NOTE_C5, 417 }, 
	{ NOTE_D5, 417 }, 
	{ NOTE_C5, 417 }, 
	{ NOTE_D5, 414 }, 
	{ NOTE_AS3, 333 }, 
	{ NOTE_DS4, 333 }, 
	{ NOTE_G4, 333 }, 
	{ NOTE_AS4, 333 }, 
	{ NOTE_A4, 333 }, 
	{ NOTE_D5, 333 }, 
	{ NOTE_A4, 333 }, 
	{ NOTE_D5, 336 }, 
	{ NOTE_AS3, 417 }, 
	{ NOTE_D4, 417 }, 
	{ NOTE_F4, 417 }, 
	{ NOTE_AS4, 417 }, 
	{ NOTE_CS4, 833 }, 
	{ NOTE_F4, 417 }, 
	{ NOTE_C5, 415 }, 
	{ NOTE_G3, 417 }, 
	{ NOTE_C4, 417 }, 
	{ NOTE_E4, 417 }, 
	{ NOTE_G4, 417 }, 
	{ NOTE_AS4, 417 }, 
	{ NOTE_GS4, 417 }, 
	{ NOTE_GS4, 417 }, 
	{ NOTE_G4, 414 }, 
	{ NOTE_G3, 417 }, 
	{ NOTE_E4, 417 }, 
	{ NOTE_C4, 417 }, 
	{ NOTE_AS3, 417 }, 
	{ NOTE_A3, 417 }, 
	{ NOTE_A4, 417 }, 
	{ NOTE_F5, 417 }, 
	{ NOTE_A4, 414 }, 
	{ NOTE_D5, 1000 }, 
	{ NOTE_F5, 1000 }, 
	{ NOTE_C5, 1000 }, 
	{ NOTE_F5, 1000 }, 
	{ NOTE_B4, 1000 }, 
	{ NOTE_F5, 1000 }, 
	{ NOTE_AS4, 1000 }, 
	{ NOTE_F5, 1000 }, 
	{ NOTE_C4, 16000 }, 
};
const uint16_t NUM_OF_NOTES2 = sizeof(melody2)/sizeof(melody2[0]);

const Note melody3[] PROGMEM = {
	{ NOTE_REST, 417 }, 
	{ NOTE_F5, 417 }, 
	{ NOTE_F5, 417 }, 
	{ NOTE_F5, 417 }, 
	{ NOTE_F5, 833 }, 
	{ NOTE_F5, 832 }, 
	{ NOTE_REST, 417 }, 
	{ NOTE_E5, 417 }, 
	{ NOTE_E5, 417 }, 
	{ NOTE_F5, 417 }, 
	{ NOTE_E5, 417 }, 
	{ NOTE_D5, 208 }, 
	{ NOTE_C5, 1040 }, 
	{ NOTE_REST, 417 }, 
	{ NOTE_DS5, 417 }, 
	{ NOTE_DS5, 417 }, 
	{ NOTE_DS5, 417 }, 
	{ NOTE_DS5, 833 }, 
	{ NOTE_DS5, 833 }, 
	{ NOTE_F4, 417 }, 
	{ NOTE_F4, 416 }, 
	{ NOTE_D5, 417 }, 
	{ NOTE_D5, 417 }, 
	{ NOTE_DS5, 417 }, 
	{ NOTE_D5, 417 }, 
	{ NOTE_C5, 208 }, 
	{ NOTE_AS4, 1457 }, 
	{ NOTE_D5, 417 }, 
	{ NOTE_D5, 417 }, 
	{ NOTE_D5, 417 }, 
	{ NOTE_D5, 1667 }, 
	{ NOTE_D5, 415 }, 
	{ NOTE_D5, 417 }, 
	{ NOTE_D5, 417 }, 
	{ NOTE_DS5, 417 }, 
	{ NOTE_F5, 834 }, 
	{ NOTE_AS4, 833 }, 
	{ NOTE_G5, 3748 }, 
	{ NOTE_G5, 417 }, 
	{ NOTE_G5, 417 }, 
	{ NOTE_G5, 417 }, 
	{ NOTE_G5, 834 }, 
	{ NOTE_G5, 833 }, 
	{ NOTE_REST, 415 }, 
	{ NOTE_F5, 417 }, 
	{ NOTE_F5, 417 }, 
	{ NOTE_G5, 417 }, 
	{ NOTE_F5, 417 }, 
	{ NOTE_DS5, 208 }, 
	{ NOTE_C5, 625 }, 
	{ NOTE_REST, 832 }, 
	{ NOTE_REST, 3333 }, 
	{ NOTE_REST, 3333 }, 
	{ NOTE_G5, 417 }, 
	{ NOTE_G5, 417 }, 
	{ NOTE_G5, 417 }, 
	{ NOTE_G5, 208 }, 
	{ NOTE_G5, 208 }, 
	{ NOTE_F5, 833 }, 
	{ NOTE_F5, 833 }, 
	{ NOTE_E5, 417 }, 
	{ NOTE_E5, 417 }, 
	{ NOTE_E5, 417 }, 
	{ NOTE_E5, 417 }, 
	{ NOTE_F5, 833 }, 
	{ NOTE_F4, 417 }, 
	{ NOTE_F4, 415 }, 
	{ NOTE_DS5, 2500 }, 
	{ NOTE_A4, 417 }, 
	{ NOTE_AS4, 416 }, 
	{ NOTE_AS4, 1667 }, 
	{ NOTE_REST, 1666 }, 
	{ NOTE_REST, 3333 }, 
	{ NOTE_D5, 278 }, 
	{ NOTE_D5, 2223 }, 
	{ NOTE_REST, 417 }, 
	{ NOTE_AS4, 415 }, 
	{ NOTE_C5, 417 }, 
	{ NOTE_D5, 208 }, 
	{ NOTE_D5, 1041 }, 
	{ NOTE_REST, 833 }, 
	{ NOTE_REST, 417 }, 
	{ NOTE_D5, 208 }, 
	{ NOTE_D5, 209 }, 
	{ NOTE_DS5, 278 }, 
	{ NOTE_F5, 278 }, 
	{ NOTE_DS5, 486 }, 
	{ NOTE_D5, 417 }, 
	{ NOTE_C5, 625 }, 
	{ NOTE_REST, 417 }, 
	{ NOTE_C5, 417 }, 
	{ NOTE_D5, 415 }, 
	{ NOTE_DS5, 208 }, 
	{ NOTE_F5, 417 }, 
	{ NOTE_DS5, 416 }, 
	{ NOTE_D5, 417 }, 
	{ NOTE_C5, 1041 }, 
	{ NOTE_REST, 834 }, 
	{ NOTE_D5, 278 }, 
	{ NOTE_D5, 1806 }, 
	{ NOTE_REST, 417 }, 
	{ NOTE_D5, 417 }, 
	{ NOTE_F5, 415 }, 
	{ NOTE_A5, 625 }, 
	{ NOTE_G5, 208 }, 
	{ NOTE_G5, 1667 }, 
	{ NOTE_REST, 417 }, 
	{ NOTE_G5, 416 }, 
	{ NOTE_AS5, 417 }, 
	{ NOTE_AS5, 417 }, 
	{ NOTE_AS5, 417 }, 
	{ NOTE_AS5, 417 }, 
	{ NOTE_AS5, 625 }, 
	{ NOTE_G5, 208 }, 
	{ NOTE_DS5, 278 }, 
	{ NOTE_D5, 554 }, 
	{ NOTE_D5, 417 }, 
	{ NOTE_C5, 2084 }, 
	{ NOTE_REST, 832 }, 
	{ NOTE_G5, 278 }, 
	{ NOTE_G5, 2223 }, 
	{ NOTE_F5, 417 }, 
	{ NOTE_G5, 208 }, 
	{ NOTE_GS5, 207 }, 
	{ NOTE_G5, 2500 }, 
	{ NOTE_REST, 417 }, 
	{ NOTE_G5, 208 }, 
	{ NOTE_G5, 208 }, 
	{ NOTE_GS5, 625 }, 
	{ NOTE_G5, 208 }, 
	{ NOTE_G5, 417 }, 
	{ NOTE_F5, 417 }, 
	{ NOTE_F5, 833 }, 
	{ NOTE_REST, 625 }, 
	{ NOTE_AS4, 208 }, 
	{ NOTE_AS4, 417 }, 
	{ NOTE_F5, 417 }, 
	{ NOTE_F5, 417 }, 
	{ NOTE_G5, 208 }, 
	{ NOTE_G5, 625 }, 
	{ NOTE_GS5, 417 }, 
	{ NOTE_GS5, 417 }, 
	{ NOTE_AS5, 208 }, 
	{ NOTE_GS5, 624 }, 
	{ NOTE_G5, 417 }, 
	{ NOTE_REST, 417 }, 
	{ NOTE_F5, 208 }, 
	{ NOTE_G5, 208 }, 
	{ NOTE_AS5, 1250 }, 
	{ NOTE_F5, 208 }, 
	{ NOTE_G5, 208 }, 
	{ NOTE_DS5, 833 }, 
	{ NOTE_REST, 417 }, 
	{ NOTE_AS4, 208 }, 
	{ NOTE_AS4, 208 }, 
	{ NOTE_B4, 278 }, 
	{ NOTE_CS5, 556 }, 
	{ NOTE_B4, 278 }, 
	{ NOTE_CS5, 278 }, 
	{ NOTE_B4, 277 }, 
	{ NOTE_AS4, 1667 }, 
	{ NOTE_REST, 3333 }, 
	{ NOTE_REST, 3333 }, 
	{ NOTE_REST, 3333 }, 
	{ NOTE_D5, 278 }, 
	{ NOTE_D5, 2223 }, 
	{ NOTE_REST, 417 }, 
	{ NOTE_AS4, 415 }, 
	{ NOTE_C5, 278 }, 
	{ NOTE_D5, 278 }, 
	{ NOTE_D5, 1111 }, 
	{ NOTE_REST, 833 }, 
	{ NOTE_REST, 417 }, 
	{ NOTE_D5, 416 }, 
	{ NOTE_DS5, 333 }, 
	{ NOTE_F5, 333 }, 
	{ NOTE_DS5, 333 }, 
	{ NOTE_D5, 333 }, 
	{ NOTE_C5, 750 }, 
	{ NOTE_REST, 417 }, 
	{ NOTE_C5, 278 }, 
	{ NOTE_D5, 556 }, 
	{ NOTE_DS5, 278 }, 
	{ NOTE_F5, 278 }, 
	{ NOTE_DS5, 278 }, 
	{ NOTE_D5, 278 }, 
	{ NOTE_D5, 278 }, 
	{ NOTE_C5, 1111 }, 
	{ NOTE_REST, 832 }, 
	{ NOTE_D5, 278 }, 
	{ NOTE_D5, 973 }, 
	{ NOTE_C5, 208 }, 
	{ NOTE_AS4, 208 }, 
	{ NOTE_C5, 208 }, 
	{ NOTE_D5, 208 }, 
	{ NOTE_REST, 417 }, 
	{ NOTE_REST, 417 }, 
	{ NOTE_F5, 416 }, 
	{ NOTE_A5, 625 }, 
	{ NOTE_G5, 208 }, 
	{ NOTE_G5, 1250 }, 
	{ NOTE_REST, 417 }, 
	{ NOTE_REST, 417 }, 
	{ NOTE_F5, 208 }, 
	{ NOTE_G5, 208 }, 
	{ NOTE_AS5, 417 }, 
	{ NOTE_AS5, 417 }, 
	{ NOTE_AS5, 417 }, 
	{ NOTE_AS5, 208 }, 
	{ NOTE_AS5, 833 }, 
	{ NOTE_G5, 208 }, 
	{ NOTE_DS5, 208 }, 
	{ NOTE_D5, 833 }, 
	{ NOTE_C5, 208 }, 
	{ NOTE_C5, 2084 }, 
	{ NOTE_REST, 833 }, 
	{ NOTE_G5, 278 }, 
	{ NOTE_G5, 2223 }, 
	{ NOTE_F5, 417 }, 
	{ NOTE_G5, 208 }, 
	{ NOTE_GS5, 207 }, 
	{ NOTE_G5, 2500 }, 
	{ NOTE_REST, 833 }, 
	{ NOTE_GS5, 556 }, 
	{ NOTE_G5, 278 }, 
	{ NOTE_G5, 208 }, 
	{ NOTE_F5, 417 }, 
	{ NOTE_F5, 1041 }, 
	{ NOTE_REST, 625 }, 
	{ NOTE_F5, 208 }, 
	{ NOTE_AS4, 417 }, 
	{ NOTE_F5, 417 }, 
	{ NOTE_F5, 417 }, 
	{ NOTE_G5, 417 }, 
	{ NOTE_G5, 208 }, 
	{ NOTE_GS5, 208 }, 
	{ NOTE_GS5, 417 }, 
	{ NOTE_GS5, 417 }, 
	{ NOTE_AS5, 208 }, 
	{ NOTE_GS5, 207 }, 
	{ NOTE_G5, 1667 }, 
	{ NOTE_REST, 1666 }, 
	{ NOTE_REST, 3333 }, 
	{ NOTE_REST, 3333 }, 
	{ NOTE_REST, 3333 }, 
	{ NOTE_REST, 3333 }, 
	{ NOTE_REST, 3333 }, 
	{ NOTE_REST, 3333 }, 
	{ NOTE_REST, 3333 }, 
	{ NOTE_REST, 1667 }, 
	{ NOTE_REST, 1667 }, 
	{ NOTE_D5, 417 }, 
	{ NOTE_CS5, 208 }, 
	{ NOTE_CS5, 208 }, 
	{ NOTE_C5, 208 }, 
	{ NOTE_C5, 208 }, 
	{ NOTE_CS5, 208 }, 
	{ NOTE_CS5, 210 }, 
	{ NOTE_D5, 208 }, 
	{ NOTE_D5, 208 }, 
	{ NOTE_CS5, 208 }, 
	{ NOTE_CS5, 208 }, 
	{ NOTE_C5, 417 }, 
	{ NOTE_REST, 418 }, 
	{ NOTE_REST, 1667 }, 
	{ NOTE_REST, 1667 }, 
	{ NOTE_REST, 1667 }, 
	{ NOTE_REST, 1667 }, 
	{ NOTE_REST, 833 }, 
	{ NOTE_REST, 417 }, 
	{ NOTE_A4, 208 }, 
	{ NOTE_A4, 209 }, 
	{ NOTE_AS4, 208 }, 
	{ NOTE_A4, 625 }, 
	{ NOTE_REST, 417 }, 
	{ NOTE_A4, 208 }, 
	{ NOTE_A4, 209 }, 
	{ NOTE_AS4, 208 }, 
	{ NOTE_A4, 208 }, 
	{ NOTE_A4, 208 }, 
	{ NOTE_A4, 208 }, 
	{ NOTE_AS4, 208 }, 
	{ NOTE_A4, 208 }, 
	{ NOTE_G4, 208 }, 
	{ NOTE_F4, 211 }, 
	{ NOTE_E4, 417 }, 
	{ NOTE_REST, 416 }, 
	{ NOTE_REST, 1667 }, 
	{ NOTE_B4, 417 }, 
	{ NOTE_AS4, 208 }, 
	{ NOTE_AS4, 208 }, 
	{ NOTE_A4, 417 }, 
	{ NOTE_AS4, 417 }, 
	{ NOTE_B4, 417 }, 
	{ NOTE_AS4, 208 }, 
	{ NOTE_AS4, 208 }, 
	{ NOTE_A4, 417 }, 
	{ NOTE_AS4, 417 }, 
	{ NOTE_REST, 1667 }, 
	{ NOTE_REST, 1667 }, 
	{ NOTE_REST, 1667 }, 
	{ NOTE_REST, 1667 }, 
	{ NOTE_REST, 1667 }, 
	{ NOTE_B4, 208 }, 
	{ NOTE_B4, 208 }, 
	{ NOTE_AS4, 417 }, 
	{ NOTE_A4, 208 }, 
	{ NOTE_A4, 208 }, 
	{ NOTE_AS4, 418 }, 
	{ NOTE_B4, 208 }, 
	{ NOTE_B4, 208 }, 
	{ NOTE_AS4, 208 }, 
	{ NOTE_AS4, 208 }, 
	{ NOTE_A4, 417 }, 
	{ NOTE_REST, 418 }, 
	{ NOTE_REST, 1667 }, 
	{ NOTE_REST, 1667 }, 
	{ NOTE_REST, 1667 }, 
	{ NOTE_REST, 1667 }, 
	{ NOTE_REST, 1667 }, 
	{ NOTE_REST, 1667 }, 
	{ NOTE_REST, 833 }, 
	{ NOTE_REST, 417 }, 
	{ NOTE_G4, 208 }, 
	{ NOTE_F4, 209 }, 
	{ NOTE_AS4, 208 }, 
	{ NOTE_GS4, 208 }, 
	{ NOTE_AS4, 208 }, 
	{ NOTE_GS4, 208 }, 
	{ NOTE_C5, 208 }, 
	{ NOTE_AS4, 208 }, 
	{ NOTE_DS5, 208 }, 
	{ NOTE_DS5, 211 }, 
	{ NOTE_CS5, 1667 }, 
	{ NOTE_REST, 1667 }, 
	{ NOTE_REST, 833 }, 
	{ NOTE_REST, 208 }, 
	{ NOTE_AS4, 208 }, 
	{ NOTE_AS4, 208 }, 
	{ NOTE_AS4, 210 }, 
	{ NOTE_C5, 208 }, 
	{ NOTE_AS4, 208 }, 
	{ NOTE_AS4, 208 }, 
	{ NOTE_AS4, 208 }, 
	{ NOTE_C5, 208 }, 
	{ NOTE_AS4, 417 }, 
	{ NOTE_REST, 210 }, 
	{ NOTE_REST, 833 }, 
	{ NOTE_REST, 417 }, 
	{ NOTE_AS3, 417 }, 
	{ NOTE_DS4, 625 }, 
	{ NOTE_DS4, 208 }, 
	{ NOTE_GS3, 208 }, 
	{ NOTE_REST, 208 }, 
	{ NOTE_GS3, 208 }, 
	{ NOTE_GS3, 210 }, 
	{ NOTE_D4, 208 }, 
	{ NOTE_C4, 208 }, 
	{ NOTE_AS3, 208 }, 
	{ NOTE_A3, 208 }, 
	{ NOTE_G3, 417 }, 
	{ NOTE_G3, 418 }, 
	{ NOTE_AS3, 1041 }, 
	{ NOTE_REST, 208 }, 
	{ NOTE_GS3, 418 }, 
	{ NOTE_AS3, 1041 }, 
	{ NOTE_REST, 208 }, 
	{ NOTE_GS3, 418 }, 
	{ NOTE_AS3, 3334 }, 
	{ NOTE_REST, 1739 }, 
	{ NOTE_REST, 1739 }, 
	{ NOTE_REST, 1739 }, 
	{ NOTE_REST, 1739 }, 
	{ NOTE_REST, 290 }, 
	{ NOTE_GS5, 290 }, 
	{ NOTE_GS5, 290 }, 
	{ NOTE_G5, 290 }, 
	{ NOTE_G5, 290 }, 
	{ NOTE_G5, 289 }, 
	{ NOTE_F5, 290 }, 
	{ NOTE_F5, 290 }, 
	{ NOTE_F5, 290 }, 
	{ NOTE_DS5, 109 }, 
	{ NOTE_DS5, 326 }, 
	{ NOTE_DS5, 434 }, 
	{ NOTE_D5, 290 }, 
	{ NOTE_DS5, 145 }, 
	{ NOTE_F5, 870 }, 
	{ NOTE_REST, 434 }, 
	{ NOTE_REST, 870 }, 
	{ NOTE_REST, 290 }, 
	{ NOTE_GS5, 290 }, 
	{ NOTE_GS5, 290 }, 
	{ NOTE_G5, 290 }, 
	{ NOTE_G5, 290 }, 
	{ NOTE_G5, 289 }, 
	{ NOTE_F5, 290 }, 
	{ NOTE_F5, 290 }, 
	{ NOTE_F5, 290 }, 
	{ NOTE_DS5, 290 }, 
	{ NOTE_DS5, 290 }, 
	{ NOTE_DS5, 289 }, 
	{ NOTE_GS5, 290 }, 
	{ NOTE_AS5, 145 }, 
	{ NOTE_C6, 435 }, 
	{ NOTE_C6, 145 }, 
	{ NOTE_DS5, 435 }, 
	{ NOTE_REST, 289 }, 
	{ NOTE_G5, 435 }, 
	{ NOTE_GS5, 1304 }, 
	{ NOTE_G5, 435 }, 
	{ NOTE_F5, 435 }, 
	{ NOTE_F5, 290 }, 
	{ NOTE_G5, 435 }, 
	{ NOTE_REST, 144 }, 
	{ NOTE_REST, 290 }, 
	{ NOTE_GS5, 290 }, 
	{ NOTE_GS5, 290 }, 
	{ NOTE_GS5, 290 }, 
	{ NOTE_GS5, 290 }, 
	{ NOTE_GS5, 289 }, 
	{ NOTE_G5, 290 }, 
	{ NOTE_F5, 145 }, 
	{ NOTE_F5, 435 }, 
	{ NOTE_F5, 290 }, 
	{ NOTE_G5, 145 }, 
	{ NOTE_REST, 434 }, 
	{ NOTE_DS5, 290 }, 
	{ NOTE_DS5, 145 }, 
	{ NOTE_DS5, 145 }, 
	{ NOTE_DS5, 145 }, 
	{ NOTE_F5, 580 }, 
	{ NOTE_REST, 434 }, 
	{ NOTE_DS5, 290 }, 
	{ NOTE_DS5, 145 }, 
	{ NOTE_DS5, 145 }, 
	{ NOTE_DS5, 290 }, 
	{ NOTE_F5, 290 }, 
	{ NOTE_DS5, 290 }, 
	{ NOTE_D5, 289 }, 
	{ NOTE_DS5, 290 }, 
	{ NOTE_AS4, 580 }, 
	{ NOTE_REST, 869 }, 
	{ NOTE_REST, 1739 }, 
	{ NOTE_REST, 1739 }, 
	{ NOTE_REST, 1739 }, 
	{ NOTE_REST, 1739 }, 
	{ NOTE_REST, 1739 }, 
	{ NOTE_REST, 1739 }, 
	{ NOTE_REST, 1739 }, 
	{ NOTE_REST, 5000 }, 
	{ NOTE_REST, 3333 }, 
	{ NOTE_REST, 3333 }, 
	{ NOTE_REST, 3333 }, 
	{ NOTE_REST, 3333 }, 
	{ NOTE_REST, 3333 }, 
	{ NOTE_REST, 3333 }, 
	{ NOTE_GS5, 278 }, 
	{ NOTE_G5, 556 }, 
	{ NOTE_DS5, 278 }, 
	{ NOTE_G4, 278 }, 
	{ NOTE_AS4, 556 }, 
	{ NOTE_AS4, 973 }, 
	{ NOTE_REST, 414 }, 
	{ NOTE_G5, 278 }, 
	{ NOTE_F5, 278 }, 
	{ NOTE_DS5, 556 }, 
	{ NOTE_D5, 556 }, 
	{ NOTE_AS4, 1250 }, 
	{ NOTE_REST, 415 }, 
	{ NOTE_G5, 417 }, 
	{ NOTE_DS5, 208 }, 
	{ NOTE_F5, 416 }, 
	{ NOTE_G5, 208 }, 
	{ NOTE_DS5, 417 }, 
	{ NOTE_B4, 1250 }, 
	{ NOTE_REST, 417 }, 
	{ NOTE_G5, 417 }, 
	{ NOTE_F5, 417 }, 
	{ NOTE_F5, 208 }, 
	{ NOTE_DS5, 417 }, 
	{ NOTE_DS5, 416 }, 
	{ NOTE_C5, 625 }, 
	{ NOTE_REST, 417 }, 
	{ NOTE_D5, 416 }, 
	{ NOTE_DS5, 4666 }, 
	{ NOTE_REST, 1334 }, 
	{ NOTE_REST, 3333 }, 
	{ NOTE_REST, 3333 }, 
	{ NOTE_REST, 3333 }, 
	{ NOTE_AS4, 1000 }, 
	{ NOTE_AS4, 1000 }, 
	{ NOTE_A4, 1000 }, 
	{ NOTE_A4, 1000 }, 
	{ NOTE_GS4, 2000 }, 
	{ NOTE_F5, 2000 }, 
	{ NOTE_REST, 8000 }, 
	{ NOTE_REST, 8000 }, 
};
const uint16_t NUM_OF_NOTES3 = sizeof(melody3)/sizeof(melody3[0]);

const Note melody4[] PROGMEM = {
	{ NOTE_REST, 3333 }, 
	{ NOTE_REST, 3333 }, 
	{ NOTE_REST, 4167 }, 
	{ NOTE_REST, 3333 }, 
	{ NOTE_REST, 3333 }, 
	{ NOTE_REST, 3333 }, 
	{ NOTE_REST, 3333 }, 
	{ NOTE_REST, 3333 }, 
	{ NOTE_REST, 3333 }, 
	{ NOTE_REST, 3333 }, 
	{ NOTE_REST, 3333 }, 
	{ NOTE_REST, 3333 }, 
	{ NOTE_REST, 3333 }, 
	{ NOTE_REST, 3333 }, 
	{ NOTE_AS3, 3333 }, 
	{ NOTE_AS3, 3333 }, 
	{ NOTE_AS3, 3333 }, 
	{ NOTE_G3, 3333 }, 
	{ NOTE_C4, 3333 }, 
	{ NOTE_C4, 1667 }, 
	{ NOTE_F5, 833 }, 
	{ NOTE_F5, 417 }, 
	{ NOTE_AS4, 416 }, 
	{ NOTE_AS3, 3333 }, 
	{ NOTE_G3, 3333 }, 
	{ NOTE_C4, 1667 }, 
	{ NOTE_B3, 833 }, 
	{ NOTE_AS3, 833 }, 
	{ NOTE_A3, 1667 }, 
	{ NOTE_GS3, 833 }, 
	{ NOTE_G3, 833 }, 
	{ NOTE_DS4, 2500 }, 
	{ NOTE_D4, 833 }, 
	{ NOTE_C4, 3333 }, 
	{ NOTE_F4, 1250 }, 
	{ NOTE_E4, 417 }, 
	{ NOTE_DS4, 833 }, 
	{ NOTE_D4, 833 }, 
	{ NOTE_AS3, 1458 }, 
	{ NOTE_AS3, 208 }, 
	{ NOTE_AS3, 625 }, 
	{ NOTE_AS3, 208 }, 
	{ NOTE_AS3, 208 }, 
	{ NOTE_AS3, 208 }, 
	{ NOTE_AS3, 208 }, 
	{ NOTE_AS3, 210 }, 
	{ NOTE_DS4, 1667 }, 
	{ NOTE_D4, 1666 }, 
	{ NOTE_C4, 1667 }, 
	{ NOTE_GS4, 1250 }, 
	{ NOTE_GS4, 208 }, 
	{ NOTE_B4, 208 }, 
	{ NOTE_DS5, 1667 }, 
	{ NOTE_REST, 3333 }, 
	{ NOTE_AS3, 3333 }, 
	{ NOTE_AS3, 3333 }, 
	{ NOTE_AS3, 3333 }, 
	{ NOTE_G3, 3333 }, 
	{ NOTE_C4, 3333 }, 
	{ NOTE_C4, 1667 }, 
	{ NOTE_F5, 833 }, 
	{ NOTE_F5, 417 }, 
	{ NOTE_AS4, 416 }, 
	{ NOTE_AS3, 3333 }, 
	{ NOTE_G3, 3333 }, 
	{ NOTE_C4, 1667 }, 
	{ NOTE_B3, 833 }, 
	{ NOTE_AS3, 833 }, 
	{ NOTE_A3, 1667 }, 
	{ NOTE_GS3, 833 }, 
	{ NOTE_G3, 833 }, 
	{ NOTE_DS4, 2500 }, 
	{ NOTE_D4, 833 }, 
	{ NOTE_C4, 3333 }, 
	{ NOTE_F4, 1250 }, 
	{ NOTE_E4, 417 }, 
	{ NOTE_DS4, 833 }, 
	{ NOTE_D4, 833 }, 
	{ NOTE_AS3, 417 }, 
	{ NOTE_AS3, 208 }, 
	{ NOTE_AS3, 208 }, 
	{ NOTE_AS3, 417 }, 
	{ NOTE_AS3, 208 }, 
	{ NOTE_AS3, 208 }, 
	{ NOTE_AS3, 208 }, 
	{ NOTE_AS3, 208 }, 
	{ NOTE_AS3, 208 }, 
	{ NOTE_AS3, 208 }, 
	{ NOTE_AS3, 208 }, 
	{ NOTE_AS3, 208 }, 
	{ NOTE_AS3, 208 }, 
	{ NOTE_AS3, 211 }, 
	{ NOTE_DS4, 1667 }, 
	{ NOTE_D4, 1250 }, 
	{ NOTE_D4, 416 }, 
	{ NOTE_C4, 3333 }, 
	{ NOTE_F4, 1250 }, 
	{ NOTE_E4, 417 }, 
	{ NOTE_DS4, 833 }, 
	{ NOTE_D4, 833 }, 
	{ NOTE_AS3, 417 }, 
	{ NOTE_AS3, 208 }, 
	{ NOTE_AS3, 208 }, 
	{ NOTE_AS3, 417 }, 
	{ NOTE_AS3, 208 }, 
	{ NOTE_DS4, 208 }, 
	{ NOTE_AS4, 417 }, 
	{ NOTE_AS4, 208 }, 
	{ NOTE_AS4, 208 }, 
	{ NOTE_AS4, 208 }, 
	{ NOTE_F4, 208 }, 
	{ NOTE_AS3, 418 }, 
	{ NOTE_DS4, 833 }, 
	{ NOTE_DS4, 417 }, 
	{ NOTE_DS4, 208 }, 
	{ NOTE_DS4, 208 }, 
	{ NOTE_D4, 417 }, 
	{ NOTE_D4, 208 }, 
	{ NOTE_D4, 208 }, 
	{ NOTE_D4, 417 }, 
	{ NOTE_D4, 417 }, 
	{ NOTE_C4, 1250 }, 
	{ NOTE_C4, 417 }, 
	{ NOTE_C4, 1041 }, 
	{ NOTE_G4, 208 }, 
	{ NOTE_C5, 208 }, 
	{ NOTE_G4, 209 }, 
	{ NOTE_F4, 1250 }, 
	{ NOTE_E4, 417 }, 
	{ NOTE_DS4, 833 }, 
	{ NOTE_D4, 833 }, 
	{ NOTE_CS4, 1111 }, 
	{ NOTE_CS4, 278 }, 
	{ NOTE_C4, 278 }, 
	{ NOTE_B3, 833 }, 
	{ NOTE_AS3, 833 }, 
	{ NOTE_A3, 417 }, 
	{ NOTE_REST, 417 }, 
	{ NOTE_REST, 833 }, 
	{ NOTE_REST, 1667 }, 
	{ NOTE_REST, 1667 }, 
	{ NOTE_REST, 1667 }, 
	{ NOTE_REST, 1667 }, 
	{ NOTE_REST, 1667 }, 
	{ NOTE_REST, 1667 }, 
	{ NOTE_REST, 1667 }, 
	{ NOTE_REST, 1667 }, 
	{ NOTE_REST, 1667 }, 
	{ NOTE_REST, 1667 }, 
	{ NOTE_REST, 833 }, 
	{ NOTE_REST, 1667 }, 
	{ NOTE_REST, 1667 }, 
	{ NOTE_REST, 1667 }, 
	{ NOTE_DS4, 417 }, 
	{ NOTE_DS4, 208 }, 
	{ NOTE_DS4, 208 }, 
	{ NOTE_DS4, 417 }, 
	{ NOTE_DS4, 417 }, 
	{ NOTE_DS4, 417 }, 
	{ NOTE_DS4, 208 }, 
	{ NOTE_DS4, 208 }, 
	{ NOTE_DS4, 417 }, 
	{ NOTE_DS4, 417 }, 
	{ NOTE_GS4, 417 }, 
	{ NOTE_GS4, 208 }, 
	{ NOTE_GS4, 208 }, 
	{ NOTE_G4, 208 }, 
	{ NOTE_G4, 208 }, 
	{ NOTE_GS4, 208 }, 
	{ NOTE_G4, 210 }, 
	{ NOTE_F4, 208 }, 
	{ NOTE_DS4, 208 }, 
	{ NOTE_D4, 208 }, 
	{ NOTE_C4, 208 }, 
	{ NOTE_AS3, 417 }, 
	{ NOTE_REST, 418 }, 
	{ NOTE_REST, 1667 }, 
	{ NOTE_REST, 1667 }, 
	{ NOTE_REST, 833 }, 
	{ NOTE_REST, 417 }, 
	{ NOTE_AS3, 417 }, 
	{ NOTE_DS4, 417 }, 
	{ NOTE_AS3, 417 }, 
	{ NOTE_DS4, 417 }, 
	{ NOTE_REST, 416 }, 
	{ NOTE_REST, 1667 }, 
	{ NOTE_REST, 417 }, 
	{ NOTE_AS3, 417 }, 
	{ NOTE_DS4, 417 }, 
	{ NOTE_AS3, 416 }, 
	{ NOTE_REST, 1667 }, 
	{ NOTE_REST, 417 }, 
	{ NOTE_AS3, 417 }, 
	{ NOTE_DS4, 417 }, 
	{ NOTE_AS3, 416 }, 
	{ NOTE_REST, 1667 }, 
	{ NOTE_REST, 1667 }, 
	{ NOTE_REST, 1667 }, 
	{ NOTE_REST, 1667 }, 
	{ NOTE_B3, 417 }, 
	{ NOTE_A3, 417 }, 
	{ NOTE_D4, 417 }, 
	{ NOTE_CS4, 416 }, 
	{ NOTE_FS4, 417 }, 
	{ NOTE_AS3, 417 }, 
	{ NOTE_DS4, 417 }, 
	{ NOTE_REST, 416 }, 
	{ NOTE_REST, 417 }, 
	{ NOTE_REST, 417 }, 
	{ NOTE_REST, 417 }, 
	{ NOTE_DS4, 208 }, 
	{ NOTE_DS4, 208 }, 
	{ NOTE_GS4, 208 }, 
	{ NOTE_DS4, 208 }, 
	{ NOTE_D4, 208 }, 
	{ NOTE_C4, 208 }, 
	{ NOTE_AS3, 417 }, 
	{ NOTE_REST, 418 }, 
	{ NOTE_DS4, 625 }, 
	{ NOTE_DS4, 208 }, 
	{ NOTE_DS4, 417 }, 
	{ NOTE_GS3, 417 }, 
	{ NOTE_D4, 208 }, 
	{ NOTE_D4, 208 }, 
	{ NOTE_D4, 208 }, 
	{ NOTE_D4, 208 }, 
	{ NOTE_G4, 417 }, 
	{ NOTE_G4, 418 }, 
	{ NOTE_AS3, 208 }, 
	{ NOTE_AS3, 208 }, 
	{ NOTE_AS3, 208 }, 
	{ NOTE_AS3, 208 }, 
	{ NOTE_AS3, 208 }, 
	{ NOTE_AS3, 208 }, 
	{ NOTE_AS3, 208 }, 
	{ NOTE_AS3, 211 }, 
	{ NOTE_AS3, 208 }, 
	{ NOTE_AS3, 208 }, 
	{ NOTE_AS3, 208 }, 
	{ NOTE_AS3, 208 }, 
	{ NOTE_AS3, 208 }, 
	{ NOTE_AS3, 208 }, 
	{ NOTE_AS3, 208 }, 
	{ NOTE_AS3, 211 }, 
	{ NOTE_AS3, 208 }, 
	{ NOTE_AS3, 208 }, 
	{ NOTE_AS3, 208 }, 
	{ NOTE_AS3, 208 }, 
	{ NOTE_AS3, 208 }, 
	{ NOTE_AS3, 208 }, 
	{ NOTE_AS3, 208 }, 
	{ NOTE_AS3, 211 }, 
	{ NOTE_AS3, 139 }, 
	{ NOTE_AS3, 139 }, 
	{ NOTE_AS3, 139 }, 
	{ NOTE_AS3, 139 }, 
	{ NOTE_AS3, 139 }, 
	{ NOTE_AS3, 139 }, 
	{ NOTE_AS3, 139 }, 
	{ NOTE_AS3, 139 }, 
	{ NOTE_AS3, 139 }, 
	{ NOTE_AS3, 416 }, 
	{ NOTE_DS4, 290 }, 
	{ NOTE_G3, 290 }, 
	{ NOTE_GS3, 290 }, 
	{ NOTE_AS3, 290 }, 
	{ NOTE_C4, 145 }, 
	{ NOTE_D4, 145 }, 
	{ NOTE_DS4, 289 }, 
	{ NOTE_DS4, 290 }, 
	{ NOTE_G3, 290 }, 
	{ NOTE_GS3, 290 }, 
	{ NOTE_AS3, 145 }, 
	{ NOTE_C4, 145 }, 
	{ NOTE_AS3, 579 }, 
	{ NOTE_DS4, 290 }, 
	{ NOTE_G3, 290 }, 
	{ NOTE_GS3, 290 }, 
	{ NOTE_AS3, 290 }, 
	{ NOTE_C4, 145 }, 
	{ NOTE_D4, 145 }, 
	{ NOTE_DS4, 289 }, 
	{ NOTE_F4, 290 }, 
	{ NOTE_A3, 290 }, 
	{ NOTE_AS3, 290 }, 
	{ NOTE_C4, 145 }, 
	{ NOTE_D4, 145 }, 
	{ NOTE_C4, 579 }, 
	{ NOTE_AS3, 290 }, 
	{ NOTE_AS3, 145 }, 
	{ NOTE_AS3, 145 }, 
	{ NOTE_AS3, 145 }, 
	{ NOTE_REST, 145 }, 
	{ NOTE_AS3, 290 }, 
	{ NOTE_AS3, 145 }, 
	{ NOTE_AS3, 145 }, 
	{ NOTE_AS3, 145 }, 
	{ NOTE_REST, 144 }, 
	{ NOTE_AS3, 290 }, 
	{ NOTE_AS3, 145 }, 
	{ NOTE_DS4, 145 }, 
	{ NOTE_AS3, 145 }, 
	{ NOTE_REST, 145 }, 
	{ NOTE_DS4, 290 }, 
	{ NOTE_DS4, 145 }, 
	{ NOTE_DS4, 145 }, 
	{ NOTE_DS4, 145 }, 
	{ NOTE_REST, 144 }, 
	{ NOTE_AS3, 290 }, 
	{ NOTE_AS3, 145 }, 
	{ NOTE_AS3, 145 }, 
	{ NOTE_AS3, 290 }, 
	{ NOTE_AS3, 145 }, 
	{ NOTE_AS3, 145 }, 
	{ NOTE_AS3, 145 }, 
	{ NOTE_AS3, 145 }, 
	{ NOTE_AS3, 145 }, 
	{ NOTE_AS3, 144 }, 
	{ NOTE_AS3, 290 }, 
	{ NOTE_CS4, 580 }, 
	{ NOTE_AS3, 290 }, 
	{ NOTE_AS3, 145 }, 
	{ NOTE_AS3, 145 }, 
	{ NOTE_AS3, 145 }, 
	{ NOTE_REST, 145 }, 
	{ NOTE_AS3, 290 }, 
	{ NOTE_AS3, 145 }, 
	{ NOTE_AS3, 145 }, 
	{ NOTE_AS3, 145 }, 
	{ NOTE_REST, 144 }, 
	{ NOTE_AS3, 290 }, 
	{ NOTE_AS3, 145 }, 
	{ NOTE_AS3, 145 }, 
	{ NOTE_AS3, 145 }, 
	{ NOTE_REST, 145 }, 
	{ NOTE_DS4, 290 }, 
	{ NOTE_DS4, 145 }, 
	{ NOTE_DS4, 145 }, 
	{ NOTE_DS4, 145 }, 
	{ NOTE_REST, 144 }, 
	{ NOTE_GS3, 290 }, 
	{ NOTE_GS3, 145 }, 
	{ NOTE_GS3, 725 }, 
	{ NOTE_GS3, 290 }, 
	{ NOTE_G3, 289 }, 
	{ NOTE_F3, 290 }, 
	{ NOTE_F3, 145 }, 
	{ NOTE_F3, 145 }, 
	{ NOTE_F3, 290 }, 
	{ NOTE_F3, 290 }, 
	{ NOTE_F3, 145 }, 
	{ NOTE_F3, 145 }, 
	{ NOTE_F3, 289 }, 
	{ NOTE_AS3, 290 }, 
	{ NOTE_AS3, 145 }, 
	{ NOTE_AS3, 145 }, 
	{ NOTE_AS3, 290 }, 
	{ NOTE_AS3, 290 }, 
	{ NOTE_AS3, 145 }, 
	{ NOTE_AS3, 145 }, 
	{ NOTE_AS3, 289 }, 
	{ NOTE_F3, 290 }, 
	{ NOTE_F3, 145 }, 
	{ NOTE_F3, 145 }, 
	{ NOTE_F3, 290 }, 
	{ NOTE_F3, 290 }, 
	{ NOTE_F3, 145 }, 
	{ NOTE_F3, 145 }, 
	{ NOTE_F3, 289 }, 
	{ NOTE_AS3, 290 }, 
	{ NOTE_AS3, 145 }, 
	{ NOTE_AS3, 145 }, 
	{ NOTE_AS3, 290 }, 
	{ NOTE_AS3, 290 }, 
	{ NOTE_AS3, 145 }, 
	{ NOTE_AS3, 145 }, 
	{ NOTE_AS3, 289 }, 
	{ NOTE_F3, 290 }, 
	{ NOTE_F3, 145 }, 
	{ NOTE_F3, 145 }, 
	{ NOTE_F3, 290 }, 
	{ NOTE_AS3, 290 }, 
	{ NOTE_AS3, 145 }, 
	{ NOTE_AS3, 145 }, 
	{ NOTE_AS3, 289 }, 
	{ NOTE_F3, 290 }, 
	{ NOTE_F3, 145 }, 
	{ NOTE_F3, 145 }, 
	{ NOTE_F3, 290 }, 
	{ NOTE_AS3, 290 }, 
	{ NOTE_AS3, 145 }, 
	{ NOTE_AS3, 145 }, 
	{ NOTE_AS3, 289 }, 
	{ NOTE_DS4, 290 }, 
	{ NOTE_G3, 290 }, 
	{ NOTE_GS3, 290 }, 
	{ NOTE_AS3, 290 }, 
	{ NOTE_C4, 145 }, 
	{ NOTE_D4, 145 }, 
	{ NOTE_DS4, 289 }, 
	{ NOTE_DS4, 290 }, 
	{ NOTE_G3, 290 }, 
	{ NOTE_GS3, 290 }, 
	{ NOTE_AS3, 145 }, 
	{ NOTE_C4, 145 }, 
	{ NOTE_AS3, 579 }, 
	{ NOTE_DS4, 290 }, 
	{ NOTE_G3, 290 }, 
	{ NOTE_GS3, 290 }, 
	{ NOTE_AS3, 290 }, 
	{ NOTE_C4, 145 }, 
	{ NOTE_D4, 145 }, 
	{ NOTE_DS4, 289 }, 
	{ NOTE_F4, 290 }, 
	{ NOTE_A3, 290 }, 
	{ NOTE_AS3, 290 }, 
	{ NOTE_C4, 290 }, 
	{ NOTE_D4, 145 }, 
	{ NOTE_E4, 145 }, 
	{ NOTE_F4, 289 }, 
	{ NOTE_FS4, 145 }, 
	{ NOTE_GS4, 145 }, 
	{ NOTE_AS4, 290 }, 
	{ NOTE_GS4, 145 }, 
	{ NOTE_AS4, 145 }, 
	{ NOTE_C5, 290 }, 
	{ NOTE_AS4, 145 }, 
	{ NOTE_C5, 145 }, 
	{ NOTE_CS5, 289 }, 
	{ NOTE_B4, 1739 }, 
	{ NOTE_GS4, 1739 }, 
	{ NOTE_AS4, 1739 }, 
	{ NOTE_REST, 5000 }, 
	{ NOTE_REST, 3333 }, 
	{ NOTE_DS4, 625 }, 
	{ NOTE_AS4, 208 }, 
	{ NOTE_DS5, 417 }, 
	{ NOTE_AS4, 208 }, 
	{ NOTE_DS4, 208 }, 
	{ NOTE_D4, 417 }, 
	{ NOTE_D4, 417 }, 
	{ NOTE_D5, 417 }, 
	{ NOTE_D4, 416 }, 
	{ NOTE_C4, 417 }, 
	{ NOTE_C4, 417 }, 
	{ NOTE_C5, 833 }, 
	{ NOTE_B3, 833 }, 
	{ NOTE_C4, 833 }, 
	{ NOTE_B3, 833 }, 
	{ NOTE_C4, 833 }, 
	{ NOTE_AS4, 208 }, 
	{ NOTE_GS4, 208 }, 
	{ NOTE_G4, 208 }, 
	{ NOTE_F4, 208 }, 
	{ NOTE_DS4, 835 }, 
	{ NOTE_D4, 625 }, 
	{ NOTE_A4, 208 }, 
	{ NOTE_D5, 417 }, 
	{ NOTE_A4, 208 }, 
	{ NOTE_D4, 208 }, 
	{ NOTE_G4, 1667 }, 
	{ NOTE_GS4, 1250 }, 
	{ NOTE_GS4, 417 }, 
	{ NOTE_DS4, 1250 }, 
	{ NOTE_DS4, 208 }, 
	{ NOTE_D4, 208 }, 
	{ NOTE_C4, 1667 }, 
	{ NOTE_G3, 1666 }, 
	{ NOTE_C4, 1667 }, 
	{ NOTE_G3, 1250 }, 
	{ NOTE_REST, 416 }, 
	{ NOTE_C4, 1667 }, 
	{ NOTE_GS3, 1666 }, 
	{ NOTE_REST, 3333 }, 
	{ NOTE_REST, 3333 }, 
	{ NOTE_REST, 2667 }, 
	{ NOTE_REST, 3333 }, 
	{ NOTE_REST, 3333 }, 
	{ NOTE_REST, 3333 }, 
	{ NOTE_REST, 8000 }, 
	{ NOTE_REST, 8000 }, 
	{ NOTE_REST, 8000 }, 
};
const uint16_t NUM_OF_NOTES4 = sizeof(melody4)/sizeof(melody4[0]);

