/*
 * Song: YYZ by Rush
 *
 *	Melody 0 | Alex Lifeson, Guitar
 *	Melody 1 | Alex Lifeson, Guitar
 *	Melody 2 | Alex Lifeson, Guitar
 *	Melody 3 | Geddy Lee, Bass
 *	Melody 4 | Keyboards
*/

#include <Arduino.h>
#include "notes.h"

const Note melody0[] PROGMEM = {
	{ NOTE_C5, 280 }, 
	{ NOTE_FS4, 140 }, 
	{ NOTE_C5, 280 }, 
	{ NOTE_C5, 280 }, 
	{ NOTE_C5, 280 }, 
	{ NOTE_FS4, 140 }, 
	{ NOTE_C5, 280 }, 
	{ NOTE_C5, 280 }, 
	{ NOTE_C5, 280 }, 
	{ NOTE_C5, 280 }, 
	{ NOTE_FS4, 140 }, 
	{ NOTE_FS4, 144 }, 
	{ NOTE_C5, 280 }, 
	{ NOTE_FS4, 140 }, 
	{ NOTE_C5, 280 }, 
	{ NOTE_C5, 280 }, 
	{ NOTE_C5, 280 }, 
	{ NOTE_FS4, 140 }, 
	{ NOTE_C5, 280 }, 
	{ NOTE_C5, 280 }, 
	{ NOTE_C5, 280 }, 
	{ NOTE_C5, 280 }, 
	{ NOTE_FS4, 140 }, 
	{ NOTE_FS4, 144 }, 
	{ NOTE_C5, 280 }, 
	{ NOTE_FS4, 140 }, 
	{ NOTE_C5, 280 }, 
	{ NOTE_C5, 280 }, 
	{ NOTE_C5, 280 }, 
	{ NOTE_FS4, 140 }, 
	{ NOTE_C5, 280 }, 
	{ NOTE_C5, 280 }, 
	{ NOTE_C5, 280 }, 
	{ NOTE_C5, 280 }, 
	{ NOTE_FS4, 140 }, 
	{ NOTE_FS4, 144 }, 
	{ NOTE_C5, 280 }, 
	{ NOTE_FS4, 140 }, 
	{ NOTE_C5, 280 }, 
	{ NOTE_C5, 280 }, 
	{ NOTE_C5, 280 }, 
	{ NOTE_FS4, 140 }, 
	{ NOTE_C5, 280 }, 
	{ NOTE_C5, 280 }, 
	{ NOTE_C5, 280 }, 
	{ NOTE_C5, 280 }, 
	{ NOTE_FS4, 140 }, 
	{ NOTE_FS4, 144 }, 
	{ NOTE_C5, 280 }, 
	{ NOTE_FS4, 140 }, 
	{ NOTE_C5, 280 }, 
	{ NOTE_C5, 280 }, 
	{ NOTE_C5, 280 }, 
	{ NOTE_FS4, 140 }, 
	{ NOTE_C5, 280 }, 
	{ NOTE_C5, 280 }, 
	{ NOTE_C5, 280 }, 
	{ NOTE_C5, 280 }, 
	{ NOTE_FS4, 140 }, 
	{ NOTE_FS4, 144 }, 
	{ NOTE_C5, 280 }, 
	{ NOTE_FS4, 140 }, 
	{ NOTE_C5, 280 }, 
	{ NOTE_C5, 280 }, 
	{ NOTE_C5, 280 }, 
	{ NOTE_FS4, 140 }, 
	{ NOTE_C5, 280 }, 
	{ NOTE_C5, 280 }, 
	{ NOTE_C5, 280 }, 
	{ NOTE_C5, 280 }, 
	{ NOTE_FS4, 140 }, 
	{ NOTE_FS4, 144 }, 
	{ NOTE_C5, 280 }, 
	{ NOTE_FS4, 140 }, 
	{ NOTE_C5, 280 }, 
	{ NOTE_C5, 280 }, 
	{ NOTE_C5, 280 }, 
	{ NOTE_FS4, 140 }, 
	{ NOTE_C5, 280 }, 
	{ NOTE_C5, 280 }, 
	{ NOTE_C5, 280 }, 
	{ NOTE_C5, 280 }, 
	{ NOTE_FS4, 140 }, 
	{ NOTE_FS4, 144 }, 
	{ NOTE_C5, 280 }, 
	{ NOTE_FS4, 140 }, 
	{ NOTE_C5, 280 }, 
	{ NOTE_C5, 280 }, 
	{ NOTE_C5, 280 }, 
	{ NOTE_FS4, 140 }, 
	{ NOTE_C5, 280 }, 
	{ NOTE_C5, 280 }, 
	{ NOTE_C5, 280 }, 
	{ NOTE_C5, 280 }, 
	{ NOTE_FS4, 140 }, 
	{ NOTE_FS4, 144 }, 
	{ NOTE_C5, 280 }, 
	{ NOTE_FS4, 140 }, 
	{ NOTE_C5, 280 }, 
	{ NOTE_C5, 280 }, 
	{ NOTE_C5, 280 }, 
	{ NOTE_FS4, 140 }, 
	{ NOTE_C5, 280 }, 
	{ NOTE_C5, 280 }, 
	{ NOTE_C5, 280 }, 
	{ NOTE_C5, 280 }, 
	{ NOTE_FS4, 140 }, 
	{ NOTE_FS4, 144 }, 
	{ NOTE_C5, 300 }, 
	{ NOTE_REST, 300 }, 
	{ NOTE_C5, 300 }, 
	{ NOTE_C5, 300 }, 
	{ NOTE_C5, 300 }, 
	{ NOTE_REST, 300 }, 
	{ NOTE_C5, 300 }, 
	{ NOTE_C5, 300 }, 
	{ NOTE_C5, 300 }, 
	{ NOTE_C5, 300 }, 
	{ NOTE_REST, 1500 }, 
	{ NOTE_C5, 70 }, 
	{ NOTE_C5, 70 }, 
	{ NOTE_CS5, 140 }, 
	{ NOTE_DS5, 140 }, 
	{ NOTE_E5, 140 }, 
	{ NOTE_FS5, 140 }, 
	{ NOTE_GS5, 140 }, 
	{ NOTE_A5, 140 }, 
	{ NOTE_B5, 140 }, 
	{ NOTE_CS6, 140 }, 
	{ NOTE_DS6, 140 }, 
	{ NOTE_E6, 140 }, 
	{ NOTE_DS6, 140 }, 
	{ NOTE_B5, 140 }, 
	{ NOTE_C6, 984 }, 
	{ NOTE_REST, 280 }, 
	{ NOTE_B5, 70 }, 
	{ NOTE_C6, 140 }, 
	{ NOTE_B5, 140 }, 
	{ NOTE_G5, 140 }, 
	{ NOTE_FS5, 140 }, 
	{ NOTE_REST, 561 }, 
	{ NOTE_REST, 211 }, 
	{ NOTE_D6, 71 }, 
	{ NOTE_D6, 71 }, 
	{ NOTE_D6, 71 }, 
	{ NOTE_C6, 107 }, 
	{ NOTE_D6, 107 }, 
	{ NOTE_C6, 107 }, 
	{ NOTE_B5, 107 }, 
	{ NOTE_A5, 107 }, 
	{ NOTE_G5, 107 }, 
	{ NOTE_FS5, 1716 }, 
	{ NOTE_A5, 109 }, 
	{ NOTE_A5, 109 }, 
	{ NOTE_FS5, 109 }, 
	{ NOTE_A5, 109 }, 
	{ NOTE_FS5, 109 }, 
	{ NOTE_F5, 109 }, 
	{ NOTE_E5, 217 }, 
	{ NOTE_CS5, 868 }, 
	{ NOTE_A5, 109 }, 
	{ NOTE_A5, 109 }, 
	{ NOTE_FS5, 109 }, 
	{ NOTE_A5, 109 }, 
	{ NOTE_FS5, 109 }, 
	{ NOTE_E5, 109 }, 
	{ NOTE_CS5, 109 }, 
	{ NOTE_C5, 109 }, 
	{ NOTE_B4, 326 }, 
	{ NOTE_CS5, 326 }, 
	{ NOTE_FS4, 215 }, 
	{ NOTE_A5, 109 }, 
	{ NOTE_A5, 109 }, 
	{ NOTE_FS5, 109 }, 
	{ NOTE_A5, 109 }, 
	{ NOTE_FS5, 109 }, 
	{ NOTE_F5, 109 }, 
	{ NOTE_E5, 217 }, 
	{ NOTE_CS5, 868 }, 
	{ NOTE_A5, 109 }, 
	{ NOTE_A5, 109 }, 
	{ NOTE_FS5, 109 }, 
	{ NOTE_A5, 109 }, 
	{ NOTE_FS5, 109 }, 
	{ NOTE_E5, 109 }, 
	{ NOTE_CS5, 109 }, 
	{ NOTE_C5, 109 }, 
	{ NOTE_B4, 326 }, 
	{ NOTE_CS5, 326 }, 
	{ NOTE_FS4, 215 }, 
	{ NOTE_C6, 109 }, 
	{ NOTE_C6, 109 }, 
	{ NOTE_A5, 109 }, 
	{ NOTE_C6, 109 }, 
	{ NOTE_A5, 109 }, 
	{ NOTE_GS5, 109 }, 
	{ NOTE_G5, 217 }, 
	{ NOTE_E5, 868 }, 
	{ NOTE_C6, 109 }, 
	{ NOTE_C6, 109 }, 
	{ NOTE_A5, 109 }, 
	{ NOTE_C6, 109 }, 
	{ NOTE_A5, 109 }, 
	{ NOTE_G5, 109 }, 
	{ NOTE_E5, 109 }, 
	{ NOTE_DS5, 109 }, 
	{ NOTE_D5, 326 }, 
	{ NOTE_E5, 326 }, 
	{ NOTE_A4, 215 }, 
	{ NOTE_C6, 109 }, 
	{ NOTE_C6, 109 }, 
	{ NOTE_A5, 109 }, 
	{ NOTE_C6, 109 }, 
	{ NOTE_A5, 109 }, 
	{ NOTE_GS5, 109 }, 
	{ NOTE_G5, 217 }, 
	{ NOTE_E5, 868 }, 
	{ NOTE_C6, 109 }, 
	{ NOTE_C6, 109 }, 
	{ NOTE_A5, 109 }, 
	{ NOTE_C6, 109 }, 
	{ NOTE_A5, 109 }, 
	{ NOTE_G5, 109 }, 
	{ NOTE_E5, 217 }, 
	{ NOTE_G5, 109 }, 
	{ NOTE_G5, 109 }, 
	{ NOTE_E5, 109 }, 
	{ NOTE_G5, 217 }, 
	{ NOTE_G5, 109 }, 
	{ NOTE_E5, 215 }, 
	{ NOTE_A5, 109 }, 
	{ NOTE_A5, 109 }, 
	{ NOTE_FS5, 109 }, 
	{ NOTE_A5, 109 }, 
	{ NOTE_FS5, 109 }, 
	{ NOTE_F5, 109 }, 
	{ NOTE_E5, 217 }, 
	{ NOTE_CS5, 868 }, 
	{ NOTE_A5, 109 }, 
	{ NOTE_A5, 109 }, 
	{ NOTE_FS5, 109 }, 
	{ NOTE_A5, 109 }, 
	{ NOTE_FS5, 109 }, 
	{ NOTE_E5, 109 }, 
	{ NOTE_CS5, 109 }, 
	{ NOTE_C5, 109 }, 
	{ NOTE_B4, 326 }, 
	{ NOTE_CS5, 326 }, 
	{ NOTE_FS4, 215 }, 
	{ NOTE_A5, 109 }, 
	{ NOTE_A5, 109 }, 
	{ NOTE_FS5, 109 }, 
	{ NOTE_A5, 109 }, 
	{ NOTE_FS5, 109 }, 
	{ NOTE_F5, 109 }, 
	{ NOTE_E5, 217 }, 
	{ NOTE_CS5, 868 }, 
	{ NOTE_A5, 109 }, 
	{ NOTE_A5, 109 }, 
	{ NOTE_FS5, 109 }, 
	{ NOTE_A5, 109 }, 
	{ NOTE_FS5, 109 }, 
	{ NOTE_E5, 109 }, 
	{ NOTE_CS5, 109 }, 
	{ NOTE_C5, 109 }, 
	{ NOTE_B4, 326 }, 
	{ NOTE_CS5, 326 }, 
	{ NOTE_FS4, 215 }, 
	{ NOTE_C6, 109 }, 
	{ NOTE_C6, 109 }, 
	{ NOTE_A5, 109 }, 
	{ NOTE_C6, 109 }, 
	{ NOTE_A5, 109 }, 
	{ NOTE_GS5, 109 }, 
	{ NOTE_G5, 217 }, 
	{ NOTE_E5, 868 }, 
	{ NOTE_C6, 109 }, 
	{ NOTE_C6, 109 }, 
	{ NOTE_A5, 109 }, 
	{ NOTE_C6, 109 }, 
	{ NOTE_A5, 109 }, 
	{ NOTE_G5, 109 }, 
	{ NOTE_E5, 109 }, 
	{ NOTE_DS5, 109 }, 
	{ NOTE_D5, 326 }, 
	{ NOTE_E5, 326 }, 
	{ NOTE_A4, 215 }, 
	{ NOTE_C6, 109 }, 
	{ NOTE_C6, 109 }, 
	{ NOTE_A5, 109 }, 
	{ NOTE_C6, 109 }, 
	{ NOTE_A5, 109 }, 
	{ NOTE_GS5, 109 }, 
	{ NOTE_G5, 217 }, 
	{ NOTE_E5, 868 }, 
	{ NOTE_C6, 109 }, 
	{ NOTE_C6, 109 }, 
	{ NOTE_A5, 109 }, 
	{ NOTE_C6, 109 }, 
	{ NOTE_A5, 109 }, 
	{ NOTE_G5, 109 }, 
	{ NOTE_E5, 109 }, 
	{ NOTE_DS5, 109 }, 
	{ NOTE_D5, 326 }, 
	{ NOTE_E5, 326 }, 
	{ NOTE_A4, 215 }, 
	{ NOTE_DS6, 326 }, 
	{ NOTE_E6, 326 }, 
	{ NOTE_FS6, 217 }, 
	{ NOTE_A5, 1087 }, 
	{ NOTE_DS6, 217 }, 
	{ NOTE_E6, 217 }, 
	{ NOTE_FS6, 217 }, 
	{ NOTE_FS6, 435 }, 
	{ NOTE_FS6, 436 }, 
	{ NOTE_DS6, 326 }, 
	{ NOTE_E6, 326 }, 
	{ NOTE_FS6, 217 }, 
	{ NOTE_A5, 109 }, 
	{ NOTE_A5, 109 }, 
	{ NOTE_A5, 109 }, 
	{ NOTE_A5, 109 }, 
	{ NOTE_A5, 109 }, 
	{ NOTE_B5, 542 }, 
	{ NOTE_DS6, 217 }, 
	{ NOTE_E6, 217 }, 
	{ NOTE_FS6, 217 }, 
	{ NOTE_FS6, 435 }, 
	{ NOTE_FS6, 436 }, 
	{ NOTE_C6, 326 }, 
	{ NOTE_D6, 326 }, 
	{ NOTE_E6, 217 }, 
	{ NOTE_D6, 109 }, 
	{ NOTE_E6, 109 }, 
	{ NOTE_D6, 109 }, 
	{ NOTE_E6, 109 }, 
	{ NOTE_G6, 651 }, 
	{ NOTE_C6, 217 }, 
	{ NOTE_D6, 217 }, 
	{ NOTE_E6, 217 }, 
	{ NOTE_D6, 109 }, 
	{ NOTE_E6, 109 }, 
	{ NOTE_D6, 109 }, 
	{ NOTE_E6, 109 }, 
	{ NOTE_G6, 109 }, 
	{ NOTE_E6, 109 }, 
	{ NOTE_G6, 109 }, 
	{ NOTE_E6, 108 }, 
	{ NOTE_C6, 326 }, 
	{ NOTE_D6, 326 }, 
	{ NOTE_E6, 217 }, 
	{ NOTE_D6, 109 }, 
	{ NOTE_E6, 109 }, 
	{ NOTE_D6, 109 }, 
	{ NOTE_E6, 109 }, 
	{ NOTE_G6, 651 }, 
	{ NOTE_C6, 217 }, 
	{ NOTE_D6, 217 }, 
	{ NOTE_E6, 217 }, 
	{ NOTE_D6, 109 }, 
	{ NOTE_E6, 109 }, 
	{ NOTE_D6, 109 }, 
	{ NOTE_E6, 109 }, 
	{ NOTE_G6, 109 }, 
	{ NOTE_E6, 109 }, 
	{ NOTE_G6, 109 }, 
	{ NOTE_E6, 108 }, 
	{ NOTE_DS6, 326 }, 
	{ NOTE_E6, 326 }, 
	{ NOTE_FS6, 217 }, 
	{ NOTE_A5, 1087 }, 
	{ NOTE_DS6, 217 }, 
	{ NOTE_E6, 217 }, 
	{ NOTE_FS6, 217 }, 
	{ NOTE_FS6, 435 }, 
	{ NOTE_FS6, 436 }, 
	{ NOTE_DS6, 326 }, 
	{ NOTE_E6, 326 }, 
	{ NOTE_FS6, 217 }, 
	{ NOTE_A5, 109 }, 
	{ NOTE_A5, 109 }, 
	{ NOTE_A5, 109 }, 
	{ NOTE_A5, 109 }, 
	{ NOTE_A5, 109 }, 
	{ NOTE_B5, 542 }, 
	{ NOTE_DS6, 217 }, 
	{ NOTE_E6, 217 }, 
	{ NOTE_FS6, 217 }, 
	{ NOTE_FS6, 435 }, 
	{ NOTE_FS6, 436 }, 
	{ NOTE_C6, 326 }, 
	{ NOTE_D6, 326 }, 
	{ NOTE_E6, 217 }, 
	{ NOTE_D6, 109 }, 
	{ NOTE_E6, 109 }, 
	{ NOTE_D6, 109 }, 
	{ NOTE_E6, 109 }, 
	{ NOTE_G6, 651 }, 
	{ NOTE_C6, 217 }, 
	{ NOTE_D6, 217 }, 
	{ NOTE_E6, 217 }, 
	{ NOTE_D6, 109 }, 
	{ NOTE_E6, 109 }, 
	{ NOTE_D6, 109 }, 
	{ NOTE_E6, 109 }, 
	{ NOTE_G6, 109 }, 
	{ NOTE_E6, 109 }, 
	{ NOTE_G6, 109 }, 
	{ NOTE_E6, 108 }, 
	{ NOTE_C6, 326 }, 
	{ NOTE_D6, 326 }, 
	{ NOTE_E6, 217 }, 
	{ NOTE_D6, 109 }, 
	{ NOTE_E6, 109 }, 
	{ NOTE_D6, 109 }, 
	{ NOTE_E6, 109 }, 
	{ NOTE_G6, 651 }, 
	{ NOTE_C6, 217 }, 
	{ NOTE_D6, 217 }, 
	{ NOTE_E6, 217 }, 
	{ NOTE_D6, 109 }, 
	{ NOTE_E6, 109 }, 
	{ NOTE_D6, 109 }, 
	{ NOTE_E6, 109 }, 
	{ NOTE_G6, 109 }, 
	{ NOTE_E6, 109 }, 
	{ NOTE_G6, 109 }, 
	{ NOTE_E6, 108 }, 
	{ NOTE_B5, 326 }, 
	{ NOTE_B5, 109 }, 
	{ NOTE_REST, 217 }, 
	{ NOTE_B5, 217 }, 
	{ NOTE_REST, 217 }, 
	{ NOTE_B5, 217 }, 
	{ NOTE_REST, 217 }, 
	{ NOTE_B5, 219 }, 
	{ NOTE_B5, 326 }, 
	{ NOTE_B5, 109 }, 
	{ NOTE_REST, 217 }, 
	{ NOTE_B5, 217 }, 
	{ NOTE_REST, 217 }, 
	{ NOTE_B5, 217 }, 
	{ NOTE_REST, 217 }, 
	{ NOTE_B5, 219 }, 
	{ NOTE_C6, 326 }, 
	{ NOTE_C6, 109 }, 
	{ NOTE_REST, 217 }, 
	{ NOTE_C6, 217 }, 
	{ NOTE_REST, 217 }, 
	{ NOTE_C6, 217 }, 
	{ NOTE_REST, 217 }, 
	{ NOTE_C6, 219 }, 
	{ NOTE_REST, 1739 }, 
	{ NOTE_B5, 326 }, 
	{ NOTE_B5, 109 }, 
	{ NOTE_REST, 217 }, 
	{ NOTE_B5, 217 }, 
	{ NOTE_REST, 217 }, 
	{ NOTE_B5, 217 }, 
	{ NOTE_REST, 217 }, 
	{ NOTE_B5, 219 }, 
	{ NOTE_B5, 326 }, 
	{ NOTE_B5, 109 }, 
	{ NOTE_REST, 217 }, 
	{ NOTE_B5, 217 }, 
	{ NOTE_REST, 217 }, 
	{ NOTE_B5, 217 }, 
	{ NOTE_REST, 217 }, 
	{ NOTE_B5, 219 }, 
	{ NOTE_C6, 326 }, 
	{ NOTE_C6, 109 }, 
	{ NOTE_REST, 217 }, 
	{ NOTE_C6, 217 }, 
	{ NOTE_REST, 217 }, 
	{ NOTE_C6, 217 }, 
	{ NOTE_REST, 217 }, 
	{ NOTE_C6, 219 }, 
	{ NOTE_C6, 217 }, 
	{ NOTE_REST, 870 }, 
	{ NOTE_REST, 652 }, 
	{ NOTE_B5, 217 }, 
	{ NOTE_B5, 217 }, 
	{ NOTE_REST, 435 }, 
	{ NOTE_B4, 217 }, 
	{ NOTE_FS5, 217 }, 
	{ NOTE_A5, 217 }, 
	{ NOTE_REST, 219 }, 
	{ NOTE_B5, 217 }, 
	{ NOTE_B5, 217 }, 
	{ NOTE_REST, 435 }, 
	{ NOTE_B4, 217 }, 
	{ NOTE_FS5, 217 }, 
	{ NOTE_A5, 217 }, 
	{ NOTE_REST, 219 }, 
	{ NOTE_C6, 217 }, 
	{ NOTE_C6, 217 }, 
	{ NOTE_REST, 435 }, 
	{ NOTE_C5, 217 }, 
	{ NOTE_G5, 217 }, 
	{ NOTE_AS5, 217 }, 
	{ NOTE_REST, 219 }, 
	{ NOTE_C6, 217 }, 
	{ NOTE_REST, 870 }, 
	{ NOTE_REST, 652 }, 
	{ NOTE_E4, 109 }, 
	{ NOTE_E4, 109 }, 
	{ NOTE_E4, 109 }, 
	{ NOTE_E4, 109 }, 
	{ NOTE_B5, 217 }, 
	{ NOTE_E4, 109 }, 
	{ NOTE_E4, 109 }, 
	{ NOTE_E4, 109 }, 
	{ NOTE_E4, 109 }, 
	{ NOTE_E4, 109 }, 
	{ NOTE_E4, 109 }, 
	{ NOTE_B5, 217 }, 
	{ NOTE_E4, 109 }, 
	{ NOTE_E4, 106 }, 
	{ NOTE_E4, 109 }, 
	{ NOTE_E4, 109 }, 
	{ NOTE_E4, 109 }, 
	{ NOTE_E4, 109 }, 
	{ NOTE_B5, 217 }, 
	{ NOTE_E4, 109 }, 
	{ NOTE_E4, 109 }, 
	{ NOTE_E4, 109 }, 
	{ NOTE_E4, 109 }, 
	{ NOTE_E4, 109 }, 
	{ NOTE_E4, 109 }, 
	{ NOTE_B5, 217 }, 
	{ NOTE_E4, 109 }, 
	{ NOTE_E4, 106 }, 
	{ NOTE_E4, 109 }, 
	{ NOTE_E4, 109 }, 
	{ NOTE_E4, 109 }, 
	{ NOTE_E4, 109 }, 
	{ NOTE_C6, 217 }, 
	{ NOTE_E4, 109 }, 
	{ NOTE_E4, 109 }, 
	{ NOTE_E4, 109 }, 
	{ NOTE_E4, 109 }, 
	{ NOTE_E4, 109 }, 
	{ NOTE_E4, 109 }, 
	{ NOTE_C6, 217 }, 
	{ NOTE_E4, 109 }, 
	{ NOTE_E4, 106 }, 
	{ NOTE_C6, 217 }, 
	{ NOTE_REST, 870 }, 
	{ NOTE_REST, 652 }, 
	{ NOTE_B4, 326 }, 
	{ NOTE_B5, 109 }, 
	{ NOTE_B5, 217 }, 
	{ NOTE_REST, 217 }, 
	{ NOTE_B4, 217 }, 
	{ NOTE_REST, 217 }, 
	{ NOTE_B5, 217 }, 
	{ NOTE_REST, 219 }, 
	{ NOTE_B4, 326 }, 
	{ NOTE_B5, 109 }, 
	{ NOTE_B5, 217 }, 
	{ NOTE_REST, 217 }, 
	{ NOTE_B4, 217 }, 
	{ NOTE_REST, 217 }, 
	{ NOTE_B5, 217 }, 
	{ NOTE_REST, 219 }, 
	{ NOTE_C5, 326 }, 
	{ NOTE_C6, 109 }, 
	{ NOTE_C6, 217 }, 
	{ NOTE_REST, 217 }, 
	{ NOTE_C5, 217 }, 
	{ NOTE_REST, 217 }, 
	{ NOTE_C6, 217 }, 
	{ NOTE_REST, 219 }, 
	{ NOTE_C6, 217 }, 
	{ NOTE_REST, 870 }, 
	{ NOTE_REST, 652 }, 
	{ NOTE_REST, 1739 }, 
	{ NOTE_B5, 326 }, 
	{ NOTE_B5, 109 }, 
	{ NOTE_REST, 217 }, 
	{ NOTE_B5, 217 }, 
	{ NOTE_B5, 435 }, 
	{ NOTE_REST, 435 }, 
	{ NOTE_B5, 326 }, 
	{ NOTE_B5, 109 }, 
	{ NOTE_REST, 217 }, 
	{ NOTE_B5, 217 }, 
	{ NOTE_B5, 435 }, 
	{ NOTE_REST, 435 }, 
	{ NOTE_C6, 326 }, 
	{ NOTE_C6, 109 }, 
	{ NOTE_REST, 217 }, 
	{ NOTE_C6, 217 }, 
	{ NOTE_C6, 435 }, 
	{ NOTE_REST, 435 }, 
	{ NOTE_C6, 217 }, 
	{ NOTE_REST, 870 }, 
	{ NOTE_REST, 652 }, 
	{ NOTE_REST, 435 }, 
	{ NOTE_REST, 870 }, 
	{ NOTE_REST, 217 }, 
	{ NOTE_D7, 72 }, 
	{ NOTE_C7, 72 }, 
	{ NOTE_B6, 73 }, 
	{ NOTE_B5, 217 }, 
	{ NOTE_FS6, 217 }, 
	{ NOTE_G6, 217 }, 
	{ NOTE_A6, 326 }, 
	{ NOTE_A6, 109 }, 
	{ NOTE_G6, 109 }, 
	{ NOTE_A6, 109 }, 
	{ NOTE_G6, 109 }, 
	{ NOTE_FS6, 109 }, 
	{ NOTE_G6, 109 }, 
	{ NOTE_FS6, 108 }, 
	{ NOTE_E6, 979 }, 
	{ NOTE_DS6, 109 }, 
	{ NOTE_E6, 109 }, 
	{ NOTE_FS6, 109 }, 
	{ NOTE_G6, 145 }, 
	{ NOTE_A6, 145 }, 
	{ NOTE_G6, 143 }, 
	{ NOTE_FS6, 109 }, 
	{ NOTE_FS6, 109 }, 
	{ NOTE_E6, 109 }, 
	{ NOTE_FS6, 109 }, 
	{ NOTE_E6, 109 }, 
	{ NOTE_DS6, 217 }, 
	{ NOTE_DS6, 109 }, 
	{ NOTE_E6, 217 }, 
	{ NOTE_FS6, 435 }, 
	{ NOTE_E6, 109 }, 
	{ NOTE_DS6, 107 }, 
	{ NOTE_E6, 870 }, 
	{ NOTE_G5, 869 }, 
	{ NOTE_REST, 217 }, 
	{ NOTE_B5, 109 }, 
	{ NOTE_C6, 109 }, 
	{ NOTE_DS6, 109 }, 
	{ NOTE_C6, 109 }, 
	{ NOTE_B5, 109 }, 
	{ NOTE_DS6, 109 }, 
	{ NOTE_FS6, 109 }, 
	{ NOTE_DS6, 109 }, 
	{ NOTE_B5, 109 }, 
	{ NOTE_B6, 867 }, 
	{ NOTE_FS7, 653 }, 
	{ NOTE_E7, 109 }, 
	{ NOTE_DS7, 109 }, 
	{ NOTE_E7, 109 }, 
	{ NOTE_DS7, 433 }, 
	{ NOTE_C7, 217 }, 
	{ NOTE_B6, 217 }, 
	{ NOTE_C7, 217 }, 
	{ NOTE_DS7, 217 }, 
	{ NOTE_C7, 217 }, 
	{ NOTE_DS7, 217 }, 
	{ NOTE_DS7, 437 }, 
	{ NOTE_C7, 870 }, 
	{ NOTE_REST, 869 }, 
	{ NOTE_REST, 109 }, 
	{ NOTE_A7, 109 }, 
	{ NOTE_E7, 109 }, 
	{ NOTE_FS7, 109 }, 
	{ NOTE_E7, 109 }, 
	{ NOTE_G7, 109 }, 
	{ NOTE_FS7, 109 }, 
	{ NOTE_E7, 109 }, 
	{ NOTE_FS7, 109 }, 
	{ NOTE_DS7, 109 }, 
	{ NOTE_E7, 109 }, 
	{ NOTE_DS7, 109 }, 
	{ NOTE_C7, 109 }, 
	{ NOTE_B6, 109 }, 
	{ NOTE_D7, 213 }, 
	{ NOTE_D7, 652 }, 
	{ NOTE_D7, 109 }, 
	{ NOTE_C7, 109 }, 
	{ NOTE_B6, 109 }, 
	{ NOTE_C7, 217 }, 
	{ NOTE_B6, 109 }, 
	{ NOTE_B6, 109 }, 
	{ NOTE_C7, 325 }, 
	{ NOTE_C7, 109 }, 
	{ NOTE_B6, 109 }, 
	{ NOTE_A6, 109 }, 
	{ NOTE_B6, 109 }, 
	{ NOTE_REST, 109 }, 
	{ NOTE_C7, 109 }, 
	{ NOTE_REST, 217 }, 
	{ NOTE_C7, 109 }, 
	{ NOTE_B6, 109 }, 
	{ NOTE_A6, 109 }, 
	{ NOTE_B6, 109 }, 
	{ NOTE_A6, 109 }, 
	{ NOTE_G6, 109 }, 
	{ NOTE_A6, 214 }, 
	{ NOTE_G6, 109 }, 
	{ NOTE_FS6, 1196 }, 
	{ NOTE_REST, 434 }, 
	{ NOTE_B5, 109 }, 
	{ NOTE_C6, 217 }, 
	{ NOTE_DS6, 109 }, 
	{ NOTE_C6, 109 }, 
	{ NOTE_B5, 109 }, 
	{ NOTE_C6, 109 }, 
	{ NOTE_B5, 217 }, 
	{ NOTE_E6, 109 }, 
	{ NOTE_FS6, 109 }, 
	{ NOTE_DS6, 109 }, 
	{ NOTE_B5, 109 }, 
	{ NOTE_DS6, 109 }, 
	{ NOTE_E6, 324 }, 
	{ NOTE_DS6, 109 }, 
	{ NOTE_E6, 109 }, 
	{ NOTE_DS6, 109 }, 
	{ NOTE_B5, 217 }, 
	{ NOTE_A6, 109 }, 
	{ NOTE_C7, 435 }, 
	{ NOTE_A6, 109 }, 
	{ NOTE_B6, 109 }, 
	{ NOTE_A6, 109 }, 
	{ NOTE_G6, 215 }, 
	{ NOTE_A6, 145 }, 
	{ NOTE_FS6, 145 }, 
	{ NOTE_G6, 145 }, 
	{ NOTE_FS6, 145 }, 
	{ NOTE_G6, 145 }, 
	{ NOTE_A6, 471 }, 
	{ NOTE_REST, 435 }, 
	{ NOTE_B5, 108 }, 
	{ NOTE_A6, 109 }, 
	{ NOTE_B6, 109 }, 
	{ NOTE_A6, 109 }, 
	{ NOTE_B5, 109 }, 
	{ NOTE_A6, 109 }, 
	{ NOTE_B6, 109 }, 
	{ NOTE_A6, 109 }, 
	{ NOTE_B5, 109 }, 
	{ NOTE_G6, 109 }, 
	{ NOTE_A6, 109 }, 
	{ NOTE_G6, 109 }, 
	{ NOTE_B5, 109 }, 
	{ NOTE_G6, 109 }, 
	{ NOTE_A6, 109 }, 
	{ NOTE_G6, 109 }, 
	{ NOTE_B5, 104 }, 
	{ NOTE_FS6, 109 }, 
	{ NOTE_G6, 109 }, 
	{ NOTE_FS6, 109 }, 
	{ NOTE_B5, 109 }, 
	{ NOTE_E6, 109 }, 
	{ NOTE_FS6, 109 }, 
	{ NOTE_E6, 109 }, 
	{ NOTE_B5, 109 }, 
	{ NOTE_DS6, 109 }, 
	{ NOTE_E6, 109 }, 
	{ NOTE_DS6, 109 }, 
	{ NOTE_B5, 109 }, 
	{ NOTE_C6, 72 }, 
	{ NOTE_DS6, 72 }, 
	{ NOTE_C6, 72 }, 
	{ NOTE_B5, 215 }, 
	{ NOTE_A6, 7384 }, 
	{ NOTE_REST, 1846 }, 
	{ NOTE_REST, 1846 }, 
	{ NOTE_REST, 1846 }, 
	{ NOTE_REST, 1846 }, 
	{ NOTE_A5, 1616 }, 
	{ NOTE_E6, 2076 }, 
	{ NOTE_E7, 1385 }, 
	{ NOTE_A6, 231 }, 
	{ NOTE_C7, 2076 }, 
	{ NOTE_B6, 692 }, 
	{ NOTE_B6, 231 }, 
	{ NOTE_B6, 692 }, 
	{ NOTE_G6, 2077 }, 
	{ NOTE_A5, 1616 }, 
	{ NOTE_C6, 3922 }, 
	{ NOTE_A5, 107 }, 
	{ NOTE_A5, 107 }, 
	{ NOTE_FS5, 107 }, 
	{ NOTE_A5, 107 }, 
	{ NOTE_FS5, 107 }, 
	{ NOTE_F5, 107 }, 
	{ NOTE_E5, 214 }, 
	{ NOTE_CS5, 858 }, 
	{ NOTE_A5, 107 }, 
	{ NOTE_A5, 107 }, 
	{ NOTE_FS5, 107 }, 
	{ NOTE_A5, 107 }, 
	{ NOTE_FS5, 107 }, 
	{ NOTE_E5, 107 }, 
	{ NOTE_CS5, 107 }, 
	{ NOTE_C5, 107 }, 
	{ NOTE_B4, 321 }, 
	{ NOTE_CS5, 321 }, 
	{ NOTE_FS4, 216 }, 
	{ NOTE_A5, 107 }, 
	{ NOTE_A5, 107 }, 
	{ NOTE_FS5, 107 }, 
	{ NOTE_A5, 107 }, 
	{ NOTE_FS5, 107 }, 
	{ NOTE_F5, 107 }, 
	{ NOTE_E5, 214 }, 
	{ NOTE_CS5, 858 }, 
	{ NOTE_A5, 107 }, 
	{ NOTE_A5, 107 }, 
	{ NOTE_FS5, 107 }, 
	{ NOTE_A5, 107 }, 
	{ NOTE_FS5, 107 }, 
	{ NOTE_E5, 107 }, 
	{ NOTE_CS5, 107 }, 
	{ NOTE_C5, 107 }, 
	{ NOTE_B4, 321 }, 
	{ NOTE_CS5, 321 }, 
	{ NOTE_FS4, 216 }, 
	{ NOTE_C6, 107 }, 
	{ NOTE_C6, 107 }, 
	{ NOTE_A5, 107 }, 
	{ NOTE_C6, 107 }, 
	{ NOTE_A5, 107 }, 
	{ NOTE_GS5, 107 }, 
	{ NOTE_G5, 214 }, 
	{ NOTE_E5, 858 }, 
	{ NOTE_C6, 107 }, 
	{ NOTE_C6, 107 }, 
	{ NOTE_A5, 107 }, 
	{ NOTE_C6, 107 }, 
	{ NOTE_A5, 107 }, 
	{ NOTE_G5, 107 }, 
	{ NOTE_E5, 107 }, 
	{ NOTE_DS5, 107 }, 
	{ NOTE_D5, 321 }, 
	{ NOTE_E5, 321 }, 
	{ NOTE_A4, 216 }, 
	{ NOTE_C6, 107 }, 
	{ NOTE_C6, 107 }, 
	{ NOTE_A5, 107 }, 
	{ NOTE_C6, 107 }, 
	{ NOTE_A5, 107 }, 
	{ NOTE_GS5, 107 }, 
	{ NOTE_G5, 214 }, 
	{ NOTE_E5, 858 }, 
	{ NOTE_C6, 107 }, 
	{ NOTE_C6, 107 }, 
	{ NOTE_A5, 107 }, 
	{ NOTE_C6, 107 }, 
	{ NOTE_A5, 107 }, 
	{ NOTE_G5, 107 }, 
	{ NOTE_E5, 214 }, 
	{ NOTE_G5, 107 }, 
	{ NOTE_G5, 107 }, 
	{ NOTE_E5, 107 }, 
	{ NOTE_G5, 214 }, 
	{ NOTE_G5, 107 }, 
	{ NOTE_E5, 216 }, 
	{ NOTE_A5, 107 }, 
	{ NOTE_A5, 107 }, 
	{ NOTE_FS5, 107 }, 
	{ NOTE_A5, 107 }, 
	{ NOTE_FS5, 107 }, 
	{ NOTE_F5, 107 }, 
	{ NOTE_E5, 107 }, 
	{ NOTE_CS5, 965 }, 
	{ NOTE_A5, 107 }, 
	{ NOTE_A5, 107 }, 
	{ NOTE_FS5, 107 }, 
	{ NOTE_A5, 107 }, 
	{ NOTE_FS5, 107 }, 
	{ NOTE_E5, 107 }, 
	{ NOTE_CS5, 107 }, 
	{ NOTE_C5, 107 }, 
	{ NOTE_B4, 321 }, 
	{ NOTE_CS5, 321 }, 
	{ NOTE_FS4, 216 }, 
	{ NOTE_A5, 107 }, 
	{ NOTE_A5, 107 }, 
	{ NOTE_FS5, 107 }, 
	{ NOTE_A5, 107 }, 
	{ NOTE_FS5, 107 }, 
	{ NOTE_F5, 107 }, 
	{ NOTE_E5, 214 }, 
	{ NOTE_CS5, 858 }, 
	{ NOTE_A5, 107 }, 
	{ NOTE_A5, 107 }, 
	{ NOTE_FS5, 107 }, 
	{ NOTE_A5, 107 }, 
	{ NOTE_FS5, 107 }, 
	{ NOTE_E5, 107 }, 
	{ NOTE_CS5, 107 }, 
	{ NOTE_C5, 107 }, 
	{ NOTE_B4, 321 }, 
	{ NOTE_CS5, 321 }, 
	{ NOTE_FS4, 216 }, 
	{ NOTE_C6, 107 }, 
	{ NOTE_C6, 107 }, 
	{ NOTE_A5, 107 }, 
	{ NOTE_C6, 107 }, 
	{ NOTE_A5, 107 }, 
	{ NOTE_GS5, 107 }, 
	{ NOTE_G5, 214 }, 
	{ NOTE_E5, 858 }, 
	{ NOTE_C6, 107 }, 
	{ NOTE_C6, 107 }, 
	{ NOTE_A5, 107 }, 
	{ NOTE_C6, 107 }, 
	{ NOTE_A5, 107 }, 
	{ NOTE_G5, 107 }, 
	{ NOTE_E5, 107 }, 
	{ NOTE_DS5, 107 }, 
	{ NOTE_D5, 321 }, 
	{ NOTE_E5, 321 }, 
	{ NOTE_A4, 216 }, 
	{ NOTE_C6, 107 }, 
	{ NOTE_C6, 107 }, 
	{ NOTE_A5, 107 }, 
	{ NOTE_C6, 107 }, 
	{ NOTE_A5, 107 }, 
	{ NOTE_GS5, 107 }, 
	{ NOTE_G5, 214 }, 
	{ NOTE_E5, 858 }, 
	{ NOTE_C6, 107 }, 
	{ NOTE_C6, 107 }, 
	{ NOTE_A5, 107 }, 
	{ NOTE_C6, 107 }, 
	{ NOTE_A5, 107 }, 
	{ NOTE_G5, 107 }, 
	{ NOTE_E5, 107 }, 
	{ NOTE_DS5, 107 }, 
	{ NOTE_D5, 321 }, 
	{ NOTE_E5, 321 }, 
	{ NOTE_A4, 216 }, 
	{ NOTE_DS6, 321 }, 
	{ NOTE_E6, 321 }, 
	{ NOTE_FS6, 214 }, 
	{ NOTE_A5, 1072 }, 
	{ NOTE_DS6, 214 }, 
	{ NOTE_E6, 214 }, 
	{ NOTE_FS6, 214 }, 
	{ NOTE_FS6, 429 }, 
	{ NOTE_FS6, 429 }, 
	{ NOTE_DS6, 321 }, 
	{ NOTE_E6, 321 }, 
	{ NOTE_FS6, 214 }, 
	{ NOTE_A5, 107 }, 
	{ NOTE_A5, 107 }, 
	{ NOTE_A5, 107 }, 
	{ NOTE_A5, 107 }, 
	{ NOTE_A5, 107 }, 
	{ NOTE_B5, 537 }, 
	{ NOTE_DS6, 214 }, 
	{ NOTE_E6, 214 }, 
	{ NOTE_FS6, 214 }, 
	{ NOTE_FS6, 429 }, 
	{ NOTE_FS6, 429 }, 
	{ NOTE_C6, 321 }, 
	{ NOTE_D6, 321 }, 
	{ NOTE_E6, 214 }, 
	{ NOTE_D6, 107 }, 
	{ NOTE_E6, 107 }, 
	{ NOTE_D6, 107 }, 
	{ NOTE_E6, 107 }, 
	{ NOTE_G6, 644 }, 
	{ NOTE_C6, 214 }, 
	{ NOTE_D6, 214 }, 
	{ NOTE_E6, 214 }, 
	{ NOTE_D6, 107 }, 
	{ NOTE_E6, 107 }, 
	{ NOTE_D6, 107 }, 
	{ NOTE_E6, 107 }, 
	{ NOTE_G6, 107 }, 
	{ NOTE_E6, 107 }, 
	{ NOTE_G6, 107 }, 
	{ NOTE_E6, 109 }, 
	{ NOTE_C6, 321 }, 
	{ NOTE_D6, 321 }, 
	{ NOTE_E6, 214 }, 
	{ NOTE_D6, 107 }, 
	{ NOTE_E6, 107 }, 
	{ NOTE_D6, 107 }, 
	{ NOTE_E6, 107 }, 
	{ NOTE_G6, 644 }, 
	{ NOTE_C6, 214 }, 
	{ NOTE_D6, 214 }, 
	{ NOTE_E6, 214 }, 
	{ NOTE_D6, 107 }, 
	{ NOTE_E6, 107 }, 
	{ NOTE_D6, 107 }, 
	{ NOTE_E6, 107 }, 
	{ NOTE_G6, 107 }, 
	{ NOTE_E6, 107 }, 
	{ NOTE_G6, 107 }, 
	{ NOTE_E6, 109 }, 
	{ NOTE_DS6, 321 }, 
	{ NOTE_E6, 321 }, 
	{ NOTE_FS6, 214 }, 
	{ NOTE_A5, 858 }, 
	{ NOTE_REST, 214 }, 
	{ NOTE_DS6, 214 }, 
	{ NOTE_E6, 214 }, 
	{ NOTE_FS6, 214 }, 
	{ NOTE_FS6, 429 }, 
	{ NOTE_FS6, 429 }, 
	{ NOTE_DS6, 321 }, 
	{ NOTE_E6, 321 }, 
	{ NOTE_FS6, 214 }, 
	{ NOTE_A5, 858 }, 
	{ NOTE_REST, 214 }, 
	{ NOTE_DS6, 214 }, 
	{ NOTE_E6, 214 }, 
	{ NOTE_FS6, 214 }, 
	{ NOTE_FS6, 429 }, 
	{ NOTE_FS6, 429 }, 
	{ NOTE_C6, 321 }, 
	{ NOTE_D6, 321 }, 
	{ NOTE_E6, 214 }, 
	{ NOTE_D6, 107 }, 
	{ NOTE_E6, 107 }, 
	{ NOTE_D6, 107 }, 
	{ NOTE_E6, 107 }, 
	{ NOTE_G6, 644 }, 
	{ NOTE_C6, 214 }, 
	{ NOTE_D6, 214 }, 
	{ NOTE_E6, 214 }, 
	{ NOTE_D6, 107 }, 
	{ NOTE_E6, 107 }, 
	{ NOTE_D6, 107 }, 
	{ NOTE_E6, 107 }, 
	{ NOTE_G6, 107 }, 
	{ NOTE_E6, 107 }, 
	{ NOTE_G6, 107 }, 
	{ NOTE_E6, 109 }, 
	{ NOTE_C6, 321 }, 
	{ NOTE_D6, 321 }, 
	{ NOTE_E6, 214 }, 
	{ NOTE_D6, 107 }, 
	{ NOTE_E6, 107 }, 
	{ NOTE_D6, 107 }, 
	{ NOTE_E6, 107 }, 
	{ NOTE_G6, 4262 }, 
	{ NOTE_C5, 280 }, 
	{ NOTE_C5, 280 }, 
	{ NOTE_FS4, 140 }, 
	{ NOTE_C5, 280 }, 
	{ NOTE_C5, 280 }, 
	{ NOTE_C5, 280 }, 
	{ NOTE_FS4, 2888 }, 
	{ NOTE_FS5, 150 }, 
	{ NOTE_E5, 150 }, 
	{ NOTE_D5, 150 }, 
	{ NOTE_B4, 225 }, 
};
const uint16_t NUM_OF_NOTES0 = sizeof(melody0)/sizeof(melody0[0]);

const Note melody1[] PROGMEM = {
	{ NOTE_C4, 280 }, 
	{ NOTE_FS3, 140 }, 
	{ NOTE_C4, 280 }, 
	{ NOTE_C4, 280 }, 
	{ NOTE_C4, 280 }, 
	{ NOTE_FS3, 140 }, 
	{ NOTE_C4, 280 }, 
	{ NOTE_C4, 280 }, 
	{ NOTE_C4, 280 }, 
	{ NOTE_C4, 280 }, 
	{ NOTE_FS3, 140 }, 
	{ NOTE_FS3, 144 }, 
	{ NOTE_C4, 280 }, 
	{ NOTE_FS3, 140 }, 
	{ NOTE_C4, 280 }, 
	{ NOTE_C4, 280 }, 
	{ NOTE_C4, 280 }, 
	{ NOTE_FS3, 140 }, 
	{ NOTE_C4, 280 }, 
	{ NOTE_C4, 280 }, 
	{ NOTE_C4, 280 }, 
	{ NOTE_C4, 280 }, 
	{ NOTE_FS3, 140 }, 
	{ NOTE_FS3, 144 }, 
	{ NOTE_C4, 280 }, 
	{ NOTE_FS3, 140 }, 
	{ NOTE_C4, 280 }, 
	{ NOTE_C4, 280 }, 
	{ NOTE_C4, 280 }, 
	{ NOTE_FS3, 140 }, 
	{ NOTE_C4, 280 }, 
	{ NOTE_C4, 280 }, 
	{ NOTE_C4, 280 }, 
	{ NOTE_C4, 280 }, 
	{ NOTE_FS3, 140 }, 
	{ NOTE_FS3, 144 }, 
	{ NOTE_C4, 280 }, 
	{ NOTE_FS3, 140 }, 
	{ NOTE_C4, 280 }, 
	{ NOTE_C4, 280 }, 
	{ NOTE_C4, 280 }, 
	{ NOTE_FS3, 140 }, 
	{ NOTE_C4, 280 }, 
	{ NOTE_C4, 280 }, 
	{ NOTE_C4, 280 }, 
	{ NOTE_C4, 280 }, 
	{ NOTE_FS3, 140 }, 
	{ NOTE_FS3, 144 }, 
	{ NOTE_C4, 280 }, 
	{ NOTE_FS3, 140 }, 
	{ NOTE_C4, 280 }, 
	{ NOTE_C4, 280 }, 
	{ NOTE_C4, 280 }, 
	{ NOTE_FS3, 140 }, 
	{ NOTE_C4, 280 }, 
	{ NOTE_C4, 280 }, 
	{ NOTE_C4, 280 }, 
	{ NOTE_C4, 280 }, 
	{ NOTE_FS3, 140 }, 
	{ NOTE_FS3, 144 }, 
	{ NOTE_C4, 280 }, 
	{ NOTE_FS3, 140 }, 
	{ NOTE_C4, 280 }, 
	{ NOTE_C4, 280 }, 
	{ NOTE_C4, 280 }, 
	{ NOTE_FS3, 140 }, 
	{ NOTE_C4, 280 }, 
	{ NOTE_C4, 280 }, 
	{ NOTE_C4, 280 }, 
	{ NOTE_C4, 280 }, 
	{ NOTE_FS3, 140 }, 
	{ NOTE_FS3, 144 }, 
	{ NOTE_C4, 280 }, 
	{ NOTE_FS3, 140 }, 
	{ NOTE_C4, 280 }, 
	{ NOTE_C4, 280 }, 
	{ NOTE_C4, 280 }, 
	{ NOTE_FS3, 140 }, 
	{ NOTE_C4, 280 }, 
	{ NOTE_C4, 280 }, 
	{ NOTE_C4, 280 }, 
	{ NOTE_C4, 280 }, 
	{ NOTE_FS3, 140 }, 
	{ NOTE_FS3, 144 }, 
	{ NOTE_C4, 280 }, 
	{ NOTE_FS3, 140 }, 
	{ NOTE_C4, 280 }, 
	{ NOTE_C4, 280 }, 
	{ NOTE_C4, 280 }, 
	{ NOTE_FS3, 140 }, 
	{ NOTE_C4, 280 }, 
	{ NOTE_C4, 280 }, 
	{ NOTE_C4, 280 }, 
	{ NOTE_C4, 280 }, 
	{ NOTE_FS3, 140 }, 
	{ NOTE_FS3, 144 }, 
	{ NOTE_C4, 280 }, 
	{ NOTE_FS3, 140 }, 
	{ NOTE_C4, 280 }, 
	{ NOTE_C4, 280 }, 
	{ NOTE_C4, 280 }, 
	{ NOTE_FS3, 140 }, 
	{ NOTE_C4, 280 }, 
	{ NOTE_C4, 280 }, 
	{ NOTE_C4, 280 }, 
	{ NOTE_C4, 280 }, 
	{ NOTE_FS3, 140 }, 
	{ NOTE_FS3, 144 }, 
	{ NOTE_C4, 300 }, 
	{ NOTE_REST, 300 }, 
	{ NOTE_C4, 300 }, 
	{ NOTE_C4, 300 }, 
	{ NOTE_C4, 300 }, 
	{ NOTE_REST, 300 }, 
	{ NOTE_C4, 300 }, 
	{ NOTE_C4, 300 }, 
	{ NOTE_C4, 300 }, 
	{ NOTE_C4, 300 }, 
	{ NOTE_REST, 1500 }, 
	{ NOTE_C4, 70 }, 
	{ NOTE_C4, 70 }, 
	{ NOTE_CS4, 140 }, 
	{ NOTE_DS4, 140 }, 
	{ NOTE_E4, 140 }, 
	{ NOTE_FS4, 140 }, 
	{ NOTE_GS4, 140 }, 
	{ NOTE_A4, 140 }, 
	{ NOTE_B4, 140 }, 
	{ NOTE_CS5, 140 }, 
	{ NOTE_DS5, 140 }, 
	{ NOTE_E5, 140 }, 
	{ NOTE_DS5, 140 }, 
	{ NOTE_B4, 140 }, 
	{ NOTE_C5, 984 }, 
	{ NOTE_REST, 280 }, 
	{ NOTE_B4, 70 }, 
	{ NOTE_C5, 140 }, 
	{ NOTE_B4, 140 }, 
	{ NOTE_G4, 140 }, 
	{ NOTE_FS4, 140 }, 
	{ NOTE_REST, 561 }, 
	{ NOTE_REST, 211 }, 
	{ NOTE_D5, 71 }, 
	{ NOTE_D5, 71 }, 
	{ NOTE_D5, 71 }, 
	{ NOTE_C5, 107 }, 
	{ NOTE_D5, 107 }, 
	{ NOTE_C5, 107 }, 
	{ NOTE_B4, 107 }, 
	{ NOTE_A4, 107 }, 
	{ NOTE_G4, 107 }, 
	{ NOTE_FS4, 1716 }, 
	{ NOTE_A4, 109 }, 
	{ NOTE_A4, 109 }, 
	{ NOTE_FS4, 109 }, 
	{ NOTE_A4, 109 }, 
	{ NOTE_FS4, 109 }, 
	{ NOTE_F4, 109 }, 
	{ NOTE_E4, 217 }, 
	{ NOTE_CS4, 868 }, 
	{ NOTE_A4, 109 }, 
	{ NOTE_A4, 109 }, 
	{ NOTE_FS4, 109 }, 
	{ NOTE_A4, 109 }, 
	{ NOTE_FS4, 109 }, 
	{ NOTE_E4, 109 }, 
	{ NOTE_CS4, 109 }, 
	{ NOTE_C4, 109 }, 
	{ NOTE_B3, 326 }, 
	{ NOTE_CS4, 326 }, 
	{ NOTE_FS3, 215 }, 
	{ NOTE_A4, 109 }, 
	{ NOTE_A4, 109 }, 
	{ NOTE_FS4, 109 }, 
	{ NOTE_A4, 109 }, 
	{ NOTE_FS4, 109 }, 
	{ NOTE_F4, 109 }, 
	{ NOTE_E4, 217 }, 
	{ NOTE_CS4, 868 }, 
	{ NOTE_A4, 109 }, 
	{ NOTE_A4, 109 }, 
	{ NOTE_FS4, 109 }, 
	{ NOTE_A4, 109 }, 
	{ NOTE_FS4, 109 }, 
	{ NOTE_E4, 109 }, 
	{ NOTE_CS4, 109 }, 
	{ NOTE_C4, 109 }, 
	{ NOTE_B3, 326 }, 
	{ NOTE_CS4, 326 }, 
	{ NOTE_FS3, 215 }, 
	{ NOTE_C5, 109 }, 
	{ NOTE_C5, 109 }, 
	{ NOTE_A4, 109 }, 
	{ NOTE_C5, 109 }, 
	{ NOTE_A4, 109 }, 
	{ NOTE_GS4, 109 }, 
	{ NOTE_G4, 217 }, 
	{ NOTE_E4, 868 }, 
	{ NOTE_C5, 109 }, 
	{ NOTE_C5, 109 }, 
	{ NOTE_A4, 109 }, 
	{ NOTE_C5, 109 }, 
	{ NOTE_A4, 109 }, 
	{ NOTE_G4, 109 }, 
	{ NOTE_E4, 109 }, 
	{ NOTE_DS4, 109 }, 
	{ NOTE_D4, 326 }, 
	{ NOTE_E4, 326 }, 
	{ NOTE_A3, 215 }, 
	{ NOTE_C5, 109 }, 
	{ NOTE_C5, 109 }, 
	{ NOTE_A4, 109 }, 
	{ NOTE_C5, 109 }, 
	{ NOTE_A4, 109 }, 
	{ NOTE_GS4, 109 }, 
	{ NOTE_G4, 217 }, 
	{ NOTE_E4, 868 }, 
	{ NOTE_C5, 109 }, 
	{ NOTE_C5, 109 }, 
	{ NOTE_A4, 109 }, 
	{ NOTE_C5, 109 }, 
	{ NOTE_A4, 109 }, 
	{ NOTE_G4, 109 }, 
	{ NOTE_E4, 217 }, 
	{ NOTE_G4, 109 }, 
	{ NOTE_G4, 109 }, 
	{ NOTE_E4, 109 }, 
	{ NOTE_G4, 217 }, 
	{ NOTE_G4, 109 }, 
	{ NOTE_E4, 215 }, 
	{ NOTE_A4, 109 }, 
	{ NOTE_A4, 109 }, 
	{ NOTE_FS4, 109 }, 
	{ NOTE_A4, 109 }, 
	{ NOTE_FS4, 109 }, 
	{ NOTE_F4, 109 }, 
	{ NOTE_E4, 217 }, 
	{ NOTE_CS4, 868 }, 
	{ NOTE_A4, 109 }, 
	{ NOTE_A4, 109 }, 
	{ NOTE_FS4, 109 }, 
	{ NOTE_A4, 109 }, 
	{ NOTE_FS4, 109 }, 
	{ NOTE_E4, 109 }, 
	{ NOTE_CS4, 109 }, 
	{ NOTE_C4, 109 }, 
	{ NOTE_B3, 326 }, 
	{ NOTE_CS4, 326 }, 
	{ NOTE_FS3, 215 }, 
	{ NOTE_A4, 109 }, 
	{ NOTE_A4, 109 }, 
	{ NOTE_FS4, 109 }, 
	{ NOTE_A4, 109 }, 
	{ NOTE_FS4, 109 }, 
	{ NOTE_F4, 109 }, 
	{ NOTE_E4, 217 }, 
	{ NOTE_CS4, 868 }, 
	{ NOTE_A4, 109 }, 
	{ NOTE_A4, 109 }, 
	{ NOTE_FS4, 109 }, 
	{ NOTE_A4, 109 }, 
	{ NOTE_FS4, 109 }, 
	{ NOTE_E4, 109 }, 
	{ NOTE_CS4, 109 }, 
	{ NOTE_C4, 109 }, 
	{ NOTE_B3, 326 }, 
	{ NOTE_CS4, 326 }, 
	{ NOTE_FS3, 215 }, 
	{ NOTE_C5, 109 }, 
	{ NOTE_C5, 109 }, 
	{ NOTE_A4, 109 }, 
	{ NOTE_C5, 109 }, 
	{ NOTE_A4, 109 }, 
	{ NOTE_GS4, 109 }, 
	{ NOTE_G4, 217 }, 
	{ NOTE_E4, 868 }, 
	{ NOTE_C5, 109 }, 
	{ NOTE_C5, 109 }, 
	{ NOTE_A4, 109 }, 
	{ NOTE_C5, 109 }, 
	{ NOTE_A4, 109 }, 
	{ NOTE_G4, 109 }, 
	{ NOTE_E4, 109 }, 
	{ NOTE_DS4, 109 }, 
	{ NOTE_D4, 326 }, 
	{ NOTE_E4, 326 }, 
	{ NOTE_A3, 215 }, 
	{ NOTE_C5, 109 }, 
	{ NOTE_C5, 109 }, 
	{ NOTE_A4, 109 }, 
	{ NOTE_C5, 109 }, 
	{ NOTE_A4, 109 }, 
	{ NOTE_GS4, 109 }, 
	{ NOTE_G4, 217 }, 
	{ NOTE_E4, 868 }, 
	{ NOTE_C5, 109 }, 
	{ NOTE_C5, 109 }, 
	{ NOTE_A4, 109 }, 
	{ NOTE_C5, 109 }, 
	{ NOTE_A4, 109 }, 
	{ NOTE_G4, 109 }, 
	{ NOTE_E4, 109 }, 
	{ NOTE_DS4, 109 }, 
	{ NOTE_D4, 326 }, 
	{ NOTE_E4, 326 }, 
	{ NOTE_A3, 215 }, 
	{ NOTE_DS5, 326 }, 
	{ NOTE_E5, 326 }, 
	{ NOTE_FS5, 217 }, 
	{ NOTE_A4, 1087 }, 
	{ NOTE_DS5, 217 }, 
	{ NOTE_E5, 217 }, 
	{ NOTE_FS5, 217 }, 
	{ NOTE_FS5, 435 }, 
	{ NOTE_FS5, 436 }, 
	{ NOTE_DS5, 326 }, 
	{ NOTE_E5, 326 }, 
	{ NOTE_FS5, 217 }, 
	{ NOTE_A4, 109 }, 
	{ NOTE_A4, 109 }, 
	{ NOTE_A4, 109 }, 
	{ NOTE_A4, 109 }, 
	{ NOTE_A4, 109 }, 
	{ NOTE_B4, 542 }, 
	{ NOTE_DS5, 217 }, 
	{ NOTE_E5, 217 }, 
	{ NOTE_FS5, 217 }, 
	{ NOTE_FS5, 435 }, 
	{ NOTE_FS5, 436 }, 
	{ NOTE_C5, 326 }, 
	{ NOTE_D5, 326 }, 
	{ NOTE_E5, 217 }, 
	{ NOTE_D5, 109 }, 
	{ NOTE_E5, 109 }, 
	{ NOTE_D5, 109 }, 
	{ NOTE_E5, 109 }, 
	{ NOTE_G5, 651 }, 
	{ NOTE_C5, 217 }, 
	{ NOTE_D5, 217 }, 
	{ NOTE_E5, 217 }, 
	{ NOTE_D5, 109 }, 
	{ NOTE_E5, 109 }, 
	{ NOTE_D5, 109 }, 
	{ NOTE_E5, 109 }, 
	{ NOTE_G5, 109 }, 
	{ NOTE_E5, 109 }, 
	{ NOTE_G5, 109 }, 
	{ NOTE_E5, 108 }, 
	{ NOTE_C5, 326 }, 
	{ NOTE_D5, 326 }, 
	{ NOTE_E5, 217 }, 
	{ NOTE_D5, 109 }, 
	{ NOTE_E5, 109 }, 
	{ NOTE_D5, 109 }, 
	{ NOTE_E5, 109 }, 
	{ NOTE_G5, 651 }, 
	{ NOTE_C5, 217 }, 
	{ NOTE_D5, 217 }, 
	{ NOTE_E5, 217 }, 
	{ NOTE_D5, 109 }, 
	{ NOTE_E5, 109 }, 
	{ NOTE_D5, 109 }, 
	{ NOTE_E5, 109 }, 
	{ NOTE_G5, 109 }, 
	{ NOTE_E5, 109 }, 
	{ NOTE_G5, 109 }, 
	{ NOTE_E5, 108 }, 
	{ NOTE_DS5, 326 }, 
	{ NOTE_E5, 326 }, 
	{ NOTE_FS5, 217 }, 
	{ NOTE_A4, 1087 }, 
	{ NOTE_DS5, 217 }, 
	{ NOTE_E5, 217 }, 
	{ NOTE_FS5, 217 }, 
	{ NOTE_FS5, 435 }, 
	{ NOTE_FS5, 436 }, 
	{ NOTE_DS5, 326 }, 
	{ NOTE_E5, 326 }, 
	{ NOTE_FS5, 217 }, 
	{ NOTE_A4, 109 }, 
	{ NOTE_A4, 109 }, 
	{ NOTE_A4, 109 }, 
	{ NOTE_A4, 109 }, 
	{ NOTE_A4, 109 }, 
	{ NOTE_B4, 542 }, 
	{ NOTE_DS5, 217 }, 
	{ NOTE_E5, 217 }, 
	{ NOTE_FS5, 217 }, 
	{ NOTE_FS5, 435 }, 
	{ NOTE_FS5, 436 }, 
	{ NOTE_C5, 326 }, 
	{ NOTE_D5, 326 }, 
	{ NOTE_E5, 217 }, 
	{ NOTE_D5, 109 }, 
	{ NOTE_E5, 109 }, 
	{ NOTE_D5, 109 }, 
	{ NOTE_E5, 109 }, 
	{ NOTE_G5, 651 }, 
	{ NOTE_C5, 217 }, 
	{ NOTE_D5, 217 }, 
	{ NOTE_E5, 217 }, 
	{ NOTE_D5, 109 }, 
	{ NOTE_E5, 109 }, 
	{ NOTE_D5, 109 }, 
	{ NOTE_E5, 109 }, 
	{ NOTE_G5, 109 }, 
	{ NOTE_E5, 109 }, 
	{ NOTE_G5, 109 }, 
	{ NOTE_E5, 108 }, 
	{ NOTE_C5, 326 }, 
	{ NOTE_D5, 326 }, 
	{ NOTE_E5, 217 }, 
	{ NOTE_D5, 109 }, 
	{ NOTE_E5, 109 }, 
	{ NOTE_D5, 109 }, 
	{ NOTE_E5, 109 }, 
	{ NOTE_G5, 651 }, 
	{ NOTE_C5, 217 }, 
	{ NOTE_D5, 217 }, 
	{ NOTE_E5, 217 }, 
	{ NOTE_D5, 109 }, 
	{ NOTE_E5, 109 }, 
	{ NOTE_D5, 109 }, 
	{ NOTE_E5, 109 }, 
	{ NOTE_G5, 109 }, 
	{ NOTE_E5, 109 }, 
	{ NOTE_G5, 109 }, 
	{ NOTE_E5, 108 }, 
	{ NOTE_FS5, 326 }, 
	{ NOTE_FS5, 109 }, 
	{ NOTE_REST, 217 }, 
	{ NOTE_FS5, 217 }, 
	{ NOTE_REST, 217 }, 
	{ NOTE_FS5, 217 }, 
	{ NOTE_REST, 217 }, 
	{ NOTE_FS5, 219 }, 
	{ NOTE_FS5, 326 }, 
	{ NOTE_FS5, 109 }, 
	{ NOTE_REST, 217 }, 
	{ NOTE_FS5, 217 }, 
	{ NOTE_REST, 217 }, 
	{ NOTE_FS5, 217 }, 
	{ NOTE_REST, 217 }, 
	{ NOTE_FS5, 219 }, 
	{ NOTE_G5, 326 }, 
	{ NOTE_G5, 109 }, 
	{ NOTE_REST, 217 }, 
	{ NOTE_G5, 217 }, 
	{ NOTE_REST, 217 }, 
	{ NOTE_G5, 217 }, 
	{ NOTE_REST, 217 }, 
	{ NOTE_G5, 219 }, 
	{ NOTE_REST, 1739 }, 
	{ NOTE_FS5, 326 }, 
	{ NOTE_FS5, 109 }, 
	{ NOTE_REST, 217 }, 
	{ NOTE_FS5, 217 }, 
	{ NOTE_REST, 217 }, 
	{ NOTE_FS5, 217 }, 
	{ NOTE_REST, 217 }, 
	{ NOTE_FS5, 219 }, 
	{ NOTE_FS5, 326 }, 
	{ NOTE_FS5, 109 }, 
	{ NOTE_REST, 217 }, 
	{ NOTE_FS5, 217 }, 
	{ NOTE_REST, 217 }, 
	{ NOTE_FS5, 217 }, 
	{ NOTE_REST, 217 }, 
	{ NOTE_FS5, 219 }, 
	{ NOTE_G5, 326 }, 
	{ NOTE_G5, 109 }, 
	{ NOTE_REST, 217 }, 
	{ NOTE_G5, 217 }, 
	{ NOTE_REST, 217 }, 
	{ NOTE_G5, 217 }, 
	{ NOTE_REST, 217 }, 
	{ NOTE_G5, 219 }, 
	{ NOTE_G5, 217 }, 
	{ NOTE_REST, 870 }, 
	{ NOTE_REST, 652 }, 
	{ NOTE_FS5, 217 }, 
	{ NOTE_FS5, 217 }, 
	{ NOTE_REST, 435 }, 
	{ NOTE_B3, 217 }, 
	{ NOTE_FS4, 217 }, 
	{ NOTE_A4, 217 }, 
	{ NOTE_REST, 219 }, 
	{ NOTE_FS5, 217 }, 
	{ NOTE_FS5, 217 }, 
	{ NOTE_REST, 435 }, 
	{ NOTE_B3, 217 }, 
	{ NOTE_FS4, 217 }, 
	{ NOTE_A4, 217 }, 
	{ NOTE_REST, 219 }, 
	{ NOTE_G5, 217 }, 
	{ NOTE_G5, 217 }, 
	{ NOTE_REST, 435 }, 
	{ NOTE_C4, 217 }, 
	{ NOTE_G4, 217 }, 
	{ NOTE_AS4, 217 }, 
	{ NOTE_REST, 219 }, 
	{ NOTE_G5, 217 }, 
	{ NOTE_REST, 870 }, 
	{ NOTE_REST, 652 }, 
	{ NOTE_D4, 109 }, 
	{ NOTE_D4, 109 }, 
	{ NOTE_D4, 109 }, 
	{ NOTE_D4, 109 }, 
	{ NOTE_FS5, 217 }, 
	{ NOTE_D4, 109 }, 
	{ NOTE_D4, 109 }, 
	{ NOTE_D4, 109 }, 
	{ NOTE_D4, 109 }, 
	{ NOTE_D4, 109 }, 
	{ NOTE_D4, 109 }, 
	{ NOTE_FS5, 217 }, 
	{ NOTE_D4, 109 }, 
	{ NOTE_D4, 106 }, 
	{ NOTE_D4, 109 }, 
	{ NOTE_D4, 109 }, 
	{ NOTE_D4, 109 }, 
	{ NOTE_D4, 109 }, 
	{ NOTE_FS5, 217 }, 
	{ NOTE_D4, 109 }, 
	{ NOTE_D4, 109 }, 
	{ NOTE_D4, 109 }, 
	{ NOTE_D4, 109 }, 
	{ NOTE_D4, 109 }, 
	{ NOTE_D4, 109 }, 
	{ NOTE_FS5, 217 }, 
	{ NOTE_D4, 109 }, 
	{ NOTE_D4, 106 }, 
	{ NOTE_C5, 109 }, 
	{ NOTE_D4, 109 }, 
	{ NOTE_D4, 109 }, 
	{ NOTE_D4, 109 }, 
	{ NOTE_G5, 217 }, 
	{ NOTE_D4, 109 }, 
	{ NOTE_C5, 109 }, 
	{ NOTE_D4, 109 }, 
	{ NOTE_D4, 109 }, 
	{ NOTE_D4, 109 }, 
	{ NOTE_D4, 109 }, 
	{ NOTE_G5, 217 }, 
	{ NOTE_D4, 109 }, 
	{ NOTE_D4, 106 }, 
	{ NOTE_G5, 217 }, 
	{ NOTE_REST, 870 }, 
	{ NOTE_REST, 652 }, 
	{ NOTE_B3, 326 }, 
	{ NOTE_REST, 109 }, 
	{ NOTE_FS5, 217 }, 
	{ NOTE_REST, 217 }, 
	{ NOTE_B3, 217 }, 
	{ NOTE_REST, 217 }, 
	{ NOTE_FS5, 217 }, 
	{ NOTE_REST, 219 }, 
	{ NOTE_B3, 326 }, 
	{ NOTE_REST, 109 }, 
	{ NOTE_FS5, 217 }, 
	{ NOTE_REST, 217 }, 
	{ NOTE_B3, 217 }, 
	{ NOTE_REST, 217 }, 
	{ NOTE_FS5, 217 }, 
	{ NOTE_REST, 219 }, 
	{ NOTE_C4, 326 }, 
	{ NOTE_REST, 109 }, 
	{ NOTE_G5, 217 }, 
	{ NOTE_REST, 217 }, 
	{ NOTE_C4, 217 }, 
	{ NOTE_REST, 217 }, 
	{ NOTE_G5, 217 }, 
	{ NOTE_REST, 219 }, 
	{ NOTE_G5, 217 }, 
	{ NOTE_REST, 870 }, 
	{ NOTE_REST, 652 }, 
	{ NOTE_REST, 1739 }, 
	{ NOTE_FS5, 326 }, 
	{ NOTE_FS5, 109 }, 
	{ NOTE_REST, 217 }, 
	{ NOTE_FS5, 217 }, 
	{ NOTE_FS5, 435 }, 
	{ NOTE_REST, 435 }, 
	{ NOTE_FS5, 326 }, 
	{ NOTE_FS5, 109 }, 
	{ NOTE_REST, 217 }, 
	{ NOTE_FS5, 217 }, 
	{ NOTE_FS5, 435 }, 
	{ NOTE_REST, 435 }, 
	{ NOTE_G5, 326 }, 
	{ NOTE_G5, 109 }, 
	{ NOTE_REST, 217 }, 
	{ NOTE_G5, 217 }, 
	{ NOTE_G5, 435 }, 
	{ NOTE_REST, 435 }, 
	{ NOTE_G5, 217 }, 
	{ NOTE_REST, 870 }, 
	{ NOTE_REST, 652 }, 
	{ NOTE_REST, 435 }, 
	{ NOTE_REST, 870 }, 
	{ NOTE_REST, 217 }, 
	{ NOTE_D6, 72 }, 
	{ NOTE_C6, 72 }, 
	{ NOTE_B5, 73 }, 
	{ NOTE_B4, 217 }, 
	{ NOTE_FS5, 217 }, 
	{ NOTE_G5, 217 }, 
	{ NOTE_A5, 326 }, 
	{ NOTE_A5, 109 }, 
	{ NOTE_G5, 109 }, 
	{ NOTE_A5, 109 }, 
	{ NOTE_G5, 109 }, 
	{ NOTE_FS5, 109 }, 
	{ NOTE_G5, 109 }, 
	{ NOTE_FS5, 108 }, 
	{ NOTE_E5, 979 }, 
	{ NOTE_DS5, 109 }, 
	{ NOTE_E5, 109 }, 
	{ NOTE_FS5, 109 }, 
	{ NOTE_G5, 145 }, 
	{ NOTE_A5, 145 }, 
	{ NOTE_G5, 143 }, 
	{ NOTE_FS5, 109 }, 
	{ NOTE_FS5, 109 }, 
	{ NOTE_E5, 109 }, 
	{ NOTE_FS5, 109 }, 
	{ NOTE_E5, 109 }, 
	{ NOTE_DS5, 217 }, 
	{ NOTE_DS5, 109 }, 
	{ NOTE_E5, 217 }, 
	{ NOTE_FS5, 435 }, 
	{ NOTE_E5, 109 }, 
	{ NOTE_DS5, 107 }, 
	{ NOTE_E5, 870 }, 
	{ NOTE_G4, 869 }, 
	{ NOTE_REST, 217 }, 
	{ NOTE_B4, 109 }, 
	{ NOTE_C5, 109 }, 
	{ NOTE_DS5, 109 }, 
	{ NOTE_C5, 109 }, 
	{ NOTE_B4, 109 }, 
	{ NOTE_DS5, 109 }, 
	{ NOTE_FS5, 109 }, 
	{ NOTE_DS5, 109 }, 
	{ NOTE_B4, 109 }, 
	{ NOTE_B5, 867 }, 
	{ NOTE_FS6, 653 }, 
	{ NOTE_E6, 109 }, 
	{ NOTE_DS6, 109 }, 
	{ NOTE_E6, 109 }, 
	{ NOTE_DS6, 433 }, 
	{ NOTE_C6, 217 }, 
	{ NOTE_B5, 217 }, 
	{ NOTE_C6, 217 }, 
	{ NOTE_DS6, 217 }, 
	{ NOTE_C6, 217 }, 
	{ NOTE_DS6, 217 }, 
	{ NOTE_DS6, 437 }, 
	{ NOTE_C6, 870 }, 
	{ NOTE_REST, 869 }, 
	{ NOTE_REST, 109 }, 
	{ NOTE_A6, 109 }, 
	{ NOTE_E6, 109 }, 
	{ NOTE_FS6, 109 }, 
	{ NOTE_E6, 109 }, 
	{ NOTE_G6, 109 }, 
	{ NOTE_FS6, 109 }, 
	{ NOTE_E6, 109 }, 
	{ NOTE_FS6, 109 }, 
	{ NOTE_DS6, 109 }, 
	{ NOTE_E6, 109 }, 
	{ NOTE_DS6, 109 }, 
	{ NOTE_C6, 109 }, 
	{ NOTE_B5, 109 }, 
	{ NOTE_D6, 213 }, 
	{ NOTE_D6, 652 }, 
	{ NOTE_D6, 109 }, 
	{ NOTE_C6, 109 }, 
	{ NOTE_B5, 109 }, 
	{ NOTE_C6, 217 }, 
	{ NOTE_B5, 109 }, 
	{ NOTE_B5, 109 }, 
	{ NOTE_C6, 325 }, 
	{ NOTE_C6, 109 }, 
	{ NOTE_B5, 109 }, 
	{ NOTE_A5, 109 }, 
	{ NOTE_B5, 109 }, 
	{ NOTE_REST, 109 }, 
	{ NOTE_C6, 109 }, 
	{ NOTE_REST, 217 }, 
	{ NOTE_C6, 109 }, 
	{ NOTE_B5, 109 }, 
	{ NOTE_A5, 109 }, 
	{ NOTE_B5, 109 }, 
	{ NOTE_A5, 109 }, 
	{ NOTE_G5, 109 }, 
	{ NOTE_A5, 214 }, 
	{ NOTE_G5, 109 }, 
	{ NOTE_FS5, 1196 }, 
	{ NOTE_REST, 434 }, 
	{ NOTE_B4, 109 }, 
	{ NOTE_C5, 217 }, 
	{ NOTE_DS5, 109 }, 
	{ NOTE_C5, 109 }, 
	{ NOTE_B4, 109 }, 
	{ NOTE_C5, 109 }, 
	{ NOTE_B4, 217 }, 
	{ NOTE_E5, 109 }, 
	{ NOTE_FS5, 109 }, 
	{ NOTE_DS5, 109 }, 
	{ NOTE_B4, 109 }, 
	{ NOTE_DS5, 109 }, 
	{ NOTE_E5, 324 }, 
	{ NOTE_DS5, 109 }, 
	{ NOTE_E5, 109 }, 
	{ NOTE_DS5, 109 }, 
	{ NOTE_B4, 217 }, 
	{ NOTE_A5, 109 }, 
	{ NOTE_C6, 435 }, 
	{ NOTE_A5, 109 }, 
	{ NOTE_B5, 109 }, 
	{ NOTE_A5, 109 }, 
	{ NOTE_G5, 215 }, 
	{ NOTE_A5, 145 }, 
	{ NOTE_FS5, 145 }, 
	{ NOTE_G5, 145 }, 
	{ NOTE_FS5, 145 }, 
	{ NOTE_G5, 145 }, 
	{ NOTE_A5, 471 }, 
	{ NOTE_REST, 435 }, 
	{ NOTE_B4, 108 }, 
	{ NOTE_A5, 109 }, 
	{ NOTE_B5, 109 }, 
	{ NOTE_A5, 109 }, 
	{ NOTE_B4, 109 }, 
	{ NOTE_A5, 109 }, 
	{ NOTE_B5, 109 }, 
	{ NOTE_A5, 109 }, 
	{ NOTE_B4, 109 }, 
	{ NOTE_G5, 109 }, 
	{ NOTE_A5, 109 }, 
	{ NOTE_G5, 109 }, 
	{ NOTE_B4, 109 }, 
	{ NOTE_G5, 109 }, 
	{ NOTE_A5, 109 }, 
	{ NOTE_G5, 109 }, 
	{ NOTE_B4, 104 }, 
	{ NOTE_FS5, 109 }, 
	{ NOTE_G5, 109 }, 
	{ NOTE_FS5, 109 }, 
	{ NOTE_B4, 109 }, 
	{ NOTE_E5, 109 }, 
	{ NOTE_FS5, 109 }, 
	{ NOTE_E5, 109 }, 
	{ NOTE_B4, 109 }, 
	{ NOTE_DS5, 109 }, 
	{ NOTE_E5, 109 }, 
	{ NOTE_DS5, 109 }, 
	{ NOTE_B4, 109 }, 
	{ NOTE_C5, 72 }, 
	{ NOTE_DS5, 72 }, 
	{ NOTE_C5, 72 }, 
	{ NOTE_B4, 215 }, 
	{ NOTE_A5, 7384 }, 
	{ NOTE_REST, 1846 }, 
	{ NOTE_REST, 1846 }, 
	{ NOTE_REST, 1846 }, 
	{ NOTE_REST, 1846 }, 
	{ NOTE_A4, 1616 }, 
	{ NOTE_E5, 2076 }, 
	{ NOTE_E6, 1385 }, 
	{ NOTE_A5, 231 }, 
	{ NOTE_C6, 2076 }, 
	{ NOTE_B5, 692 }, 
	{ NOTE_B5, 231 }, 
	{ NOTE_B5, 692 }, 
	{ NOTE_G5, 2077 }, 
	{ NOTE_A4, 1616 }, 
	{ NOTE_C5, 3922 }, 
	{ NOTE_A4, 107 }, 
	{ NOTE_A4, 107 }, 
	{ NOTE_FS4, 107 }, 
	{ NOTE_A4, 107 }, 
	{ NOTE_FS4, 107 }, 
	{ NOTE_F4, 107 }, 
	{ NOTE_E4, 214 }, 
	{ NOTE_CS4, 858 }, 
	{ NOTE_A4, 107 }, 
	{ NOTE_A4, 107 }, 
	{ NOTE_FS4, 107 }, 
	{ NOTE_A4, 107 }, 
	{ NOTE_FS4, 107 }, 
	{ NOTE_E4, 107 }, 
	{ NOTE_CS4, 107 }, 
	{ NOTE_C4, 107 }, 
	{ NOTE_B3, 321 }, 
	{ NOTE_CS4, 321 }, 
	{ NOTE_FS3, 216 }, 
	{ NOTE_A4, 107 }, 
	{ NOTE_A4, 107 }, 
	{ NOTE_FS4, 107 }, 
	{ NOTE_A4, 107 }, 
	{ NOTE_FS4, 107 }, 
	{ NOTE_F4, 107 }, 
	{ NOTE_E4, 214 }, 
	{ NOTE_CS4, 858 }, 
	{ NOTE_A4, 107 }, 
	{ NOTE_A4, 107 }, 
	{ NOTE_FS4, 107 }, 
	{ NOTE_A4, 107 }, 
	{ NOTE_FS4, 107 }, 
	{ NOTE_E4, 107 }, 
	{ NOTE_CS4, 107 }, 
	{ NOTE_C4, 107 }, 
	{ NOTE_B3, 321 }, 
	{ NOTE_CS4, 321 }, 
	{ NOTE_FS3, 216 }, 
	{ NOTE_C5, 107 }, 
	{ NOTE_C5, 107 }, 
	{ NOTE_A4, 107 }, 
	{ NOTE_C5, 107 }, 
	{ NOTE_A4, 107 }, 
	{ NOTE_GS4, 107 }, 
	{ NOTE_G4, 214 }, 
	{ NOTE_E4, 858 }, 
	{ NOTE_C5, 107 }, 
	{ NOTE_C5, 107 }, 
	{ NOTE_A4, 107 }, 
	{ NOTE_C5, 107 }, 
	{ NOTE_A4, 107 }, 
	{ NOTE_G4, 107 }, 
	{ NOTE_E4, 107 }, 
	{ NOTE_DS4, 107 }, 
	{ NOTE_D4, 321 }, 
	{ NOTE_E4, 321 }, 
	{ NOTE_A3, 216 }, 
	{ NOTE_C5, 107 }, 
	{ NOTE_C5, 107 }, 
	{ NOTE_A4, 107 }, 
	{ NOTE_C5, 107 }, 
	{ NOTE_A4, 107 }, 
	{ NOTE_GS4, 107 }, 
	{ NOTE_G4, 214 }, 
	{ NOTE_E4, 858 }, 
	{ NOTE_C5, 107 }, 
	{ NOTE_C5, 107 }, 
	{ NOTE_A4, 107 }, 
	{ NOTE_C5, 107 }, 
	{ NOTE_A4, 107 }, 
	{ NOTE_G4, 107 }, 
	{ NOTE_E4, 214 }, 
	{ NOTE_G4, 107 }, 
	{ NOTE_G4, 107 }, 
	{ NOTE_E4, 107 }, 
	{ NOTE_G4, 214 }, 
	{ NOTE_G4, 107 }, 
	{ NOTE_E4, 216 }, 
	{ NOTE_A4, 107 }, 
	{ NOTE_A4, 107 }, 
	{ NOTE_FS4, 107 }, 
	{ NOTE_A4, 107 }, 
	{ NOTE_FS4, 107 }, 
	{ NOTE_F4, 107 }, 
	{ NOTE_E4, 107 }, 
	{ NOTE_CS4, 965 }, 
	{ NOTE_A4, 107 }, 
	{ NOTE_A4, 107 }, 
	{ NOTE_FS4, 107 }, 
	{ NOTE_A4, 107 }, 
	{ NOTE_FS4, 107 }, 
	{ NOTE_E4, 107 }, 
	{ NOTE_CS4, 107 }, 
	{ NOTE_C4, 107 }, 
	{ NOTE_B3, 321 }, 
	{ NOTE_CS4, 321 }, 
	{ NOTE_FS3, 216 }, 
	{ NOTE_A4, 107 }, 
	{ NOTE_A4, 107 }, 
	{ NOTE_FS4, 107 }, 
	{ NOTE_A4, 107 }, 
	{ NOTE_FS4, 107 }, 
	{ NOTE_F4, 107 }, 
	{ NOTE_E4, 214 }, 
	{ NOTE_CS4, 858 }, 
	{ NOTE_A4, 107 }, 
	{ NOTE_A4, 107 }, 
	{ NOTE_FS4, 107 }, 
	{ NOTE_A4, 107 }, 
	{ NOTE_FS4, 107 }, 
	{ NOTE_E4, 107 }, 
	{ NOTE_CS4, 107 }, 
	{ NOTE_C4, 107 }, 
	{ NOTE_B3, 321 }, 
	{ NOTE_CS4, 321 }, 
	{ NOTE_FS3, 216 }, 
	{ NOTE_C5, 107 }, 
	{ NOTE_C5, 107 }, 
	{ NOTE_A4, 107 }, 
	{ NOTE_C5, 107 }, 
	{ NOTE_A4, 107 }, 
	{ NOTE_GS4, 107 }, 
	{ NOTE_G4, 214 }, 
	{ NOTE_E4, 858 }, 
	{ NOTE_C5, 107 }, 
	{ NOTE_C5, 107 }, 
	{ NOTE_A4, 107 }, 
	{ NOTE_C5, 107 }, 
	{ NOTE_A4, 107 }, 
	{ NOTE_G4, 107 }, 
	{ NOTE_E4, 107 }, 
	{ NOTE_DS4, 107 }, 
	{ NOTE_D4, 321 }, 
	{ NOTE_E4, 321 }, 
	{ NOTE_A3, 216 }, 
	{ NOTE_C5, 107 }, 
	{ NOTE_C5, 107 }, 
	{ NOTE_A4, 107 }, 
	{ NOTE_C5, 107 }, 
	{ NOTE_A4, 107 }, 
	{ NOTE_GS4, 107 }, 
	{ NOTE_G4, 214 }, 
	{ NOTE_E4, 858 }, 
	{ NOTE_C5, 107 }, 
	{ NOTE_C5, 107 }, 
	{ NOTE_A4, 107 }, 
	{ NOTE_C5, 107 }, 
	{ NOTE_A4, 107 }, 
	{ NOTE_G4, 107 }, 
	{ NOTE_E4, 107 }, 
	{ NOTE_DS4, 107 }, 
	{ NOTE_D4, 321 }, 
	{ NOTE_E4, 321 }, 
	{ NOTE_A3, 216 }, 
	{ NOTE_DS5, 321 }, 
	{ NOTE_E5, 321 }, 
	{ NOTE_FS5, 214 }, 
	{ NOTE_A4, 1072 }, 
	{ NOTE_DS5, 214 }, 
	{ NOTE_E5, 214 }, 
	{ NOTE_FS5, 214 }, 
	{ NOTE_FS5, 429 }, 
	{ NOTE_FS5, 429 }, 
	{ NOTE_DS5, 321 }, 
	{ NOTE_E5, 321 }, 
	{ NOTE_FS5, 214 }, 
	{ NOTE_A4, 107 }, 
	{ NOTE_A4, 107 }, 
	{ NOTE_A4, 107 }, 
	{ NOTE_A4, 107 }, 
	{ NOTE_A4, 107 }, 
	{ NOTE_B4, 537 }, 
	{ NOTE_DS5, 214 }, 
	{ NOTE_E5, 214 }, 
	{ NOTE_FS5, 214 }, 
	{ NOTE_FS5, 429 }, 
	{ NOTE_FS5, 429 }, 
	{ NOTE_C5, 321 }, 
	{ NOTE_D5, 321 }, 
	{ NOTE_E5, 214 }, 
	{ NOTE_D5, 107 }, 
	{ NOTE_E5, 107 }, 
	{ NOTE_D5, 107 }, 
	{ NOTE_E5, 107 }, 
	{ NOTE_G5, 644 }, 
	{ NOTE_C5, 214 }, 
	{ NOTE_D5, 214 }, 
	{ NOTE_E5, 214 }, 
	{ NOTE_D5, 107 }, 
	{ NOTE_E5, 107 }, 
	{ NOTE_D5, 107 }, 
	{ NOTE_E5, 107 }, 
	{ NOTE_G5, 107 }, 
	{ NOTE_E5, 107 }, 
	{ NOTE_G5, 107 }, 
	{ NOTE_E5, 109 }, 
	{ NOTE_C5, 321 }, 
	{ NOTE_D5, 321 }, 
	{ NOTE_E5, 214 }, 
	{ NOTE_D5, 107 }, 
	{ NOTE_E5, 107 }, 
	{ NOTE_D5, 107 }, 
	{ NOTE_E5, 107 }, 
	{ NOTE_G5, 644 }, 
	{ NOTE_C5, 214 }, 
	{ NOTE_D5, 214 }, 
	{ NOTE_E5, 214 }, 
	{ NOTE_D5, 107 }, 
	{ NOTE_E5, 107 }, 
	{ NOTE_D5, 107 }, 
	{ NOTE_E5, 107 }, 
	{ NOTE_G5, 107 }, 
	{ NOTE_E5, 107 }, 
	{ NOTE_G5, 107 }, 
	{ NOTE_E5, 109 }, 
	{ NOTE_DS5, 321 }, 
	{ NOTE_E5, 321 }, 
	{ NOTE_FS5, 214 }, 
	{ NOTE_A4, 858 }, 
	{ NOTE_REST, 214 }, 
	{ NOTE_REST, 214 }, 
	{ NOTE_REST, 214 }, 
	{ NOTE_REST, 214 }, 
	{ NOTE_REST, 429 }, 
	{ NOTE_REST, 429 }, 
	{ NOTE_DS5, 321 }, 
	{ NOTE_E5, 321 }, 
	{ NOTE_FS5, 214 }, 
	{ NOTE_A4, 858 }, 
	{ NOTE_REST, 214 }, 
	{ NOTE_REST, 214 }, 
	{ NOTE_REST, 214 }, 
	{ NOTE_REST, 214 }, 
	{ NOTE_REST, 429 }, 
	{ NOTE_REST, 429 }, 
	{ NOTE_C5, 321 }, 
	{ NOTE_D5, 321 }, 
	{ NOTE_E5, 214 }, 
	{ NOTE_D5, 107 }, 
	{ NOTE_E5, 107 }, 
	{ NOTE_D5, 107 }, 
	{ NOTE_E5, 107 }, 
	{ NOTE_G5, 644 }, 
	{ NOTE_C5, 214 }, 
	{ NOTE_D5, 214 }, 
	{ NOTE_E5, 214 }, 
	{ NOTE_D5, 107 }, 
	{ NOTE_E5, 107 }, 
	{ NOTE_D5, 107 }, 
	{ NOTE_E5, 107 }, 
	{ NOTE_G5, 107 }, 
	{ NOTE_E5, 107 }, 
	{ NOTE_G5, 107 }, 
	{ NOTE_E5, 109 }, 
	{ NOTE_C5, 321 }, 
	{ NOTE_D5, 321 }, 
	{ NOTE_E5, 214 }, 
	{ NOTE_D5, 107 }, 
	{ NOTE_E5, 107 }, 
	{ NOTE_D5, 107 }, 
	{ NOTE_E5, 107 }, 
	{ NOTE_G5, 4262 }, 
	{ NOTE_C4, 280 }, 
	{ NOTE_C4, 280 }, 
	{ NOTE_FS3, 140 }, 
	{ NOTE_C4, 280 }, 
	{ NOTE_C4, 280 }, 
	{ NOTE_C4, 280 }, 
	{ NOTE_FS3, 2888 }, 
	{ NOTE_FS4, 150 }, 
	{ NOTE_E4, 150 }, 
	{ NOTE_D4, 150 }, 
	{ NOTE_B3, 225 }, 
};
const uint16_t NUM_OF_NOTES1 = sizeof(melody1)/sizeof(melody1[0]);

const Note melody2[] PROGMEM = {
	{ NOTE_C4, 280 }, 
	{ NOTE_FS3, 140 }, 
	{ NOTE_C4, 280 }, 
	{ NOTE_C4, 280 }, 
	{ NOTE_C4, 280 }, 
	{ NOTE_FS3, 140 }, 
	{ NOTE_C4, 280 }, 
	{ NOTE_C4, 280 }, 
	{ NOTE_C4, 280 }, 
	{ NOTE_C4, 280 }, 
	{ NOTE_FS3, 140 }, 
	{ NOTE_FS3, 144 }, 
	{ NOTE_C4, 280 }, 
	{ NOTE_FS3, 140 }, 
	{ NOTE_C4, 280 }, 
	{ NOTE_C4, 280 }, 
	{ NOTE_C4, 280 }, 
	{ NOTE_FS3, 140 }, 
	{ NOTE_C4, 280 }, 
	{ NOTE_C4, 280 }, 
	{ NOTE_C4, 280 }, 
	{ NOTE_C4, 280 }, 
	{ NOTE_FS3, 140 }, 
	{ NOTE_FS3, 144 }, 
	{ NOTE_C4, 280 }, 
	{ NOTE_FS3, 140 }, 
	{ NOTE_C4, 280 }, 
	{ NOTE_C4, 280 }, 
	{ NOTE_C4, 280 }, 
	{ NOTE_FS3, 140 }, 
	{ NOTE_C4, 280 }, 
	{ NOTE_C4, 280 }, 
	{ NOTE_C4, 280 }, 
	{ NOTE_C4, 280 }, 
	{ NOTE_FS3, 140 }, 
	{ NOTE_FS3, 144 }, 
	{ NOTE_C4, 280 }, 
	{ NOTE_FS3, 140 }, 
	{ NOTE_C4, 280 }, 
	{ NOTE_C4, 280 }, 
	{ NOTE_C4, 280 }, 
	{ NOTE_FS3, 140 }, 
	{ NOTE_C4, 280 }, 
	{ NOTE_C4, 280 }, 
	{ NOTE_C4, 280 }, 
	{ NOTE_C4, 280 }, 
	{ NOTE_FS3, 140 }, 
	{ NOTE_FS3, 144 }, 
	{ NOTE_C4, 280 }, 
	{ NOTE_FS3, 140 }, 
	{ NOTE_C4, 280 }, 
	{ NOTE_C4, 280 }, 
	{ NOTE_C4, 280 }, 
	{ NOTE_FS3, 140 }, 
	{ NOTE_C4, 280 }, 
	{ NOTE_C4, 280 }, 
	{ NOTE_C4, 280 }, 
	{ NOTE_C4, 280 }, 
	{ NOTE_FS3, 140 }, 
	{ NOTE_FS3, 144 }, 
	{ NOTE_C4, 280 }, 
	{ NOTE_FS3, 140 }, 
	{ NOTE_C4, 280 }, 
	{ NOTE_C4, 280 }, 
	{ NOTE_C4, 280 }, 
	{ NOTE_FS3, 140 }, 
	{ NOTE_C4, 280 }, 
	{ NOTE_C4, 280 }, 
	{ NOTE_C4, 280 }, 
	{ NOTE_C4, 280 }, 
	{ NOTE_FS3, 140 }, 
	{ NOTE_FS3, 144 }, 
	{ NOTE_C4, 280 }, 
	{ NOTE_FS3, 140 }, 
	{ NOTE_C4, 280 }, 
	{ NOTE_C4, 280 }, 
	{ NOTE_C4, 280 }, 
	{ NOTE_FS3, 140 }, 
	{ NOTE_C4, 280 }, 
	{ NOTE_C4, 280 }, 
	{ NOTE_C4, 280 }, 
	{ NOTE_C4, 280 }, 
	{ NOTE_FS3, 140 }, 
	{ NOTE_FS3, 144 }, 
	{ NOTE_C4, 280 }, 
	{ NOTE_FS3, 140 }, 
	{ NOTE_C4, 280 }, 
	{ NOTE_C4, 280 }, 
	{ NOTE_C4, 280 }, 
	{ NOTE_FS3, 140 }, 
	{ NOTE_C4, 280 }, 
	{ NOTE_C4, 280 }, 
	{ NOTE_C4, 280 }, 
	{ NOTE_C4, 280 }, 
	{ NOTE_FS3, 140 }, 
	{ NOTE_FS3, 144 }, 
	{ NOTE_C4, 280 }, 
	{ NOTE_FS3, 140 }, 
	{ NOTE_C4, 280 }, 
	{ NOTE_C4, 280 }, 
	{ NOTE_C4, 280 }, 
	{ NOTE_FS3, 140 }, 
	{ NOTE_C4, 280 }, 
	{ NOTE_C4, 280 }, 
	{ NOTE_C4, 280 }, 
	{ NOTE_C4, 280 }, 
	{ NOTE_FS3, 140 }, 
	{ NOTE_FS3, 144 }, 
	{ NOTE_C4, 300 }, 
	{ NOTE_REST, 300 }, 
	{ NOTE_C4, 300 }, 
	{ NOTE_C4, 300 }, 
	{ NOTE_C4, 300 }, 
	{ NOTE_REST, 300 }, 
	{ NOTE_C4, 300 }, 
	{ NOTE_C4, 300 }, 
	{ NOTE_C4, 300 }, 
	{ NOTE_C4, 300 }, 
	{ NOTE_REST, 1500 }, 
	{ NOTE_C4, 70 }, 
	{ NOTE_C4, 70 }, 
	{ NOTE_CS4, 140 }, 
	{ NOTE_DS4, 140 }, 
	{ NOTE_E4, 140 }, 
	{ NOTE_FS4, 140 }, 
	{ NOTE_GS4, 140 }, 
	{ NOTE_A4, 140 }, 
	{ NOTE_B4, 140 }, 
	{ NOTE_CS5, 140 }, 
	{ NOTE_DS5, 140 }, 
	{ NOTE_E5, 140 }, 
	{ NOTE_DS5, 140 }, 
	{ NOTE_B4, 140 }, 
	{ NOTE_C5, 984 }, 
	{ NOTE_REST, 280 }, 
	{ NOTE_B4, 70 }, 
	{ NOTE_C5, 140 }, 
	{ NOTE_B4, 140 }, 
	{ NOTE_G4, 140 }, 
	{ NOTE_FS4, 140 }, 
	{ NOTE_REST, 561 }, 
	{ NOTE_REST, 211 }, 
	{ NOTE_D5, 71 }, 
	{ NOTE_D5, 71 }, 
	{ NOTE_D5, 71 }, 
	{ NOTE_C5, 107 }, 
	{ NOTE_D5, 107 }, 
	{ NOTE_C5, 107 }, 
	{ NOTE_B4, 107 }, 
	{ NOTE_A4, 107 }, 
	{ NOTE_G4, 107 }, 
	{ NOTE_FS4, 1716 }, 
	{ NOTE_A4, 109 }, 
	{ NOTE_A4, 109 }, 
	{ NOTE_FS4, 109 }, 
	{ NOTE_A4, 109 }, 
	{ NOTE_FS4, 109 }, 
	{ NOTE_F4, 109 }, 
	{ NOTE_E4, 217 }, 
	{ NOTE_CS4, 868 }, 
	{ NOTE_A4, 109 }, 
	{ NOTE_A4, 109 }, 
	{ NOTE_FS4, 109 }, 
	{ NOTE_A4, 109 }, 
	{ NOTE_FS4, 109 }, 
	{ NOTE_E4, 109 }, 
	{ NOTE_CS4, 109 }, 
	{ NOTE_C4, 109 }, 
	{ NOTE_B3, 326 }, 
	{ NOTE_CS4, 326 }, 
	{ NOTE_FS3, 215 }, 
	{ NOTE_A4, 109 }, 
	{ NOTE_A4, 109 }, 
	{ NOTE_FS4, 109 }, 
	{ NOTE_A4, 109 }, 
	{ NOTE_FS4, 109 }, 
	{ NOTE_F4, 109 }, 
	{ NOTE_E4, 217 }, 
	{ NOTE_CS4, 868 }, 
	{ NOTE_A4, 109 }, 
	{ NOTE_A4, 109 }, 
	{ NOTE_FS4, 109 }, 
	{ NOTE_A4, 109 }, 
	{ NOTE_FS4, 109 }, 
	{ NOTE_E4, 109 }, 
	{ NOTE_CS4, 109 }, 
	{ NOTE_C4, 109 }, 
	{ NOTE_B3, 326 }, 
	{ NOTE_CS4, 326 }, 
	{ NOTE_FS3, 215 }, 
	{ NOTE_C5, 109 }, 
	{ NOTE_C5, 109 }, 
	{ NOTE_A4, 109 }, 
	{ NOTE_C5, 109 }, 
	{ NOTE_A4, 109 }, 
	{ NOTE_GS4, 109 }, 
	{ NOTE_G4, 217 }, 
	{ NOTE_E4, 868 }, 
	{ NOTE_C5, 109 }, 
	{ NOTE_C5, 109 }, 
	{ NOTE_A4, 109 }, 
	{ NOTE_C5, 109 }, 
	{ NOTE_A4, 109 }, 
	{ NOTE_G4, 109 }, 
	{ NOTE_E4, 109 }, 
	{ NOTE_DS4, 109 }, 
	{ NOTE_D4, 326 }, 
	{ NOTE_E4, 326 }, 
	{ NOTE_A3, 215 }, 
	{ NOTE_C5, 109 }, 
	{ NOTE_C5, 109 }, 
	{ NOTE_A4, 109 }, 
	{ NOTE_C5, 109 }, 
	{ NOTE_A4, 109 }, 
	{ NOTE_GS4, 109 }, 
	{ NOTE_G4, 217 }, 
	{ NOTE_E4, 868 }, 
	{ NOTE_C5, 109 }, 
	{ NOTE_C5, 109 }, 
	{ NOTE_A4, 109 }, 
	{ NOTE_C5, 109 }, 
	{ NOTE_A4, 109 }, 
	{ NOTE_G4, 109 }, 
	{ NOTE_E4, 217 }, 
	{ NOTE_G4, 109 }, 
	{ NOTE_G4, 109 }, 
	{ NOTE_E4, 109 }, 
	{ NOTE_G4, 217 }, 
	{ NOTE_G4, 109 }, 
	{ NOTE_E4, 215 }, 
	{ NOTE_A4, 109 }, 
	{ NOTE_A4, 109 }, 
	{ NOTE_FS4, 109 }, 
	{ NOTE_A4, 109 }, 
	{ NOTE_FS4, 109 }, 
	{ NOTE_F4, 109 }, 
	{ NOTE_E4, 217 }, 
	{ NOTE_CS4, 868 }, 
	{ NOTE_A4, 109 }, 
	{ NOTE_A4, 109 }, 
	{ NOTE_FS4, 109 }, 
	{ NOTE_A4, 109 }, 
	{ NOTE_FS4, 109 }, 
	{ NOTE_E4, 109 }, 
	{ NOTE_CS4, 109 }, 
	{ NOTE_C4, 109 }, 
	{ NOTE_B3, 326 }, 
	{ NOTE_CS4, 326 }, 
	{ NOTE_FS3, 215 }, 
	{ NOTE_A4, 109 }, 
	{ NOTE_A4, 109 }, 
	{ NOTE_FS4, 109 }, 
	{ NOTE_A4, 109 }, 
	{ NOTE_FS4, 109 }, 
	{ NOTE_F4, 109 }, 
	{ NOTE_E4, 217 }, 
	{ NOTE_CS4, 868 }, 
	{ NOTE_A4, 109 }, 
	{ NOTE_A4, 109 }, 
	{ NOTE_FS4, 109 }, 
	{ NOTE_A4, 109 }, 
	{ NOTE_FS4, 109 }, 
	{ NOTE_E4, 109 }, 
	{ NOTE_CS4, 109 }, 
	{ NOTE_C4, 109 }, 
	{ NOTE_B3, 326 }, 
	{ NOTE_CS4, 326 }, 
	{ NOTE_FS3, 215 }, 
	{ NOTE_C5, 109 }, 
	{ NOTE_C5, 109 }, 
	{ NOTE_A4, 109 }, 
	{ NOTE_C5, 109 }, 
	{ NOTE_A4, 109 }, 
	{ NOTE_GS4, 109 }, 
	{ NOTE_G4, 217 }, 
	{ NOTE_E4, 868 }, 
	{ NOTE_C5, 109 }, 
	{ NOTE_C5, 109 }, 
	{ NOTE_A4, 109 }, 
	{ NOTE_C5, 109 }, 
	{ NOTE_A4, 109 }, 
	{ NOTE_G4, 109 }, 
	{ NOTE_E4, 109 }, 
	{ NOTE_DS4, 109 }, 
	{ NOTE_D4, 326 }, 
	{ NOTE_E4, 326 }, 
	{ NOTE_A3, 215 }, 
	{ NOTE_C5, 109 }, 
	{ NOTE_C5, 109 }, 
	{ NOTE_A4, 109 }, 
	{ NOTE_C5, 109 }, 
	{ NOTE_A4, 109 }, 
	{ NOTE_GS4, 109 }, 
	{ NOTE_G4, 217 }, 
	{ NOTE_E4, 868 }, 
	{ NOTE_C5, 109 }, 
	{ NOTE_C5, 109 }, 
	{ NOTE_A4, 109 }, 
	{ NOTE_C5, 109 }, 
	{ NOTE_A4, 109 }, 
	{ NOTE_G4, 109 }, 
	{ NOTE_E4, 109 }, 
	{ NOTE_DS4, 109 }, 
	{ NOTE_D4, 326 }, 
	{ NOTE_E4, 326 }, 
	{ NOTE_A3, 215 }, 
	{ NOTE_DS5, 326 }, 
	{ NOTE_E5, 326 }, 
	{ NOTE_FS5, 217 }, 
	{ NOTE_A4, 1087 }, 
	{ NOTE_DS5, 217 }, 
	{ NOTE_E5, 217 }, 
	{ NOTE_FS5, 217 }, 
	{ NOTE_FS5, 435 }, 
	{ NOTE_FS5, 436 }, 
	{ NOTE_DS5, 326 }, 
	{ NOTE_E5, 326 }, 
	{ NOTE_FS5, 217 }, 
	{ NOTE_A4, 109 }, 
	{ NOTE_A4, 109 }, 
	{ NOTE_A4, 109 }, 
	{ NOTE_A4, 109 }, 
	{ NOTE_A4, 109 }, 
	{ NOTE_B4, 542 }, 
	{ NOTE_DS5, 217 }, 
	{ NOTE_E5, 217 }, 
	{ NOTE_FS5, 217 }, 
	{ NOTE_FS5, 435 }, 
	{ NOTE_FS5, 436 }, 
	{ NOTE_C5, 326 }, 
	{ NOTE_D5, 326 }, 
	{ NOTE_E5, 217 }, 
	{ NOTE_D5, 109 }, 
	{ NOTE_E5, 109 }, 
	{ NOTE_D5, 109 }, 
	{ NOTE_E5, 109 }, 
	{ NOTE_G5, 651 }, 
	{ NOTE_C5, 217 }, 
	{ NOTE_D5, 217 }, 
	{ NOTE_E5, 217 }, 
	{ NOTE_D5, 109 }, 
	{ NOTE_E5, 109 }, 
	{ NOTE_D5, 109 }, 
	{ NOTE_E5, 109 }, 
	{ NOTE_G5, 109 }, 
	{ NOTE_E5, 109 }, 
	{ NOTE_G5, 109 }, 
	{ NOTE_E5, 108 }, 
	{ NOTE_C5, 326 }, 
	{ NOTE_D5, 326 }, 
	{ NOTE_E5, 217 }, 
	{ NOTE_D5, 109 }, 
	{ NOTE_E5, 109 }, 
	{ NOTE_D5, 109 }, 
	{ NOTE_E5, 109 }, 
	{ NOTE_G5, 651 }, 
	{ NOTE_C5, 217 }, 
	{ NOTE_D5, 217 }, 
	{ NOTE_E5, 217 }, 
	{ NOTE_D5, 109 }, 
	{ NOTE_E5, 109 }, 
	{ NOTE_D5, 109 }, 
	{ NOTE_E5, 109 }, 
	{ NOTE_G5, 109 }, 
	{ NOTE_E5, 109 }, 
	{ NOTE_G5, 109 }, 
	{ NOTE_E5, 108 }, 
	{ NOTE_DS5, 326 }, 
	{ NOTE_E5, 326 }, 
	{ NOTE_FS5, 217 }, 
	{ NOTE_A4, 1087 }, 
	{ NOTE_DS5, 217 }, 
	{ NOTE_E5, 217 }, 
	{ NOTE_FS5, 217 }, 
	{ NOTE_FS5, 435 }, 
	{ NOTE_FS5, 436 }, 
	{ NOTE_DS5, 326 }, 
	{ NOTE_E5, 326 }, 
	{ NOTE_FS5, 217 }, 
	{ NOTE_A4, 109 }, 
	{ NOTE_A4, 109 }, 
	{ NOTE_A4, 109 }, 
	{ NOTE_A4, 109 }, 
	{ NOTE_A4, 109 }, 
	{ NOTE_B4, 542 }, 
	{ NOTE_DS5, 217 }, 
	{ NOTE_E5, 217 }, 
	{ NOTE_FS5, 217 }, 
	{ NOTE_FS5, 435 }, 
	{ NOTE_FS5, 436 }, 
	{ NOTE_C5, 326 }, 
	{ NOTE_D5, 326 }, 
	{ NOTE_E5, 217 }, 
	{ NOTE_D5, 109 }, 
	{ NOTE_E5, 109 }, 
	{ NOTE_D5, 109 }, 
	{ NOTE_E5, 109 }, 
	{ NOTE_G5, 651 }, 
	{ NOTE_C5, 217 }, 
	{ NOTE_D5, 217 }, 
	{ NOTE_E5, 217 }, 
	{ NOTE_D5, 109 }, 
	{ NOTE_E5, 109 }, 
	{ NOTE_D5, 109 }, 
	{ NOTE_E5, 109 }, 
	{ NOTE_G5, 109 }, 
	{ NOTE_E5, 109 }, 
	{ NOTE_G5, 109 }, 
	{ NOTE_E5, 108 }, 
	{ NOTE_C5, 326 }, 
	{ NOTE_D5, 326 }, 
	{ NOTE_E5, 217 }, 
	{ NOTE_D5, 109 }, 
	{ NOTE_E5, 109 }, 
	{ NOTE_D5, 109 }, 
	{ NOTE_E5, 109 }, 
	{ NOTE_G5, 651 }, 
	{ NOTE_C5, 217 }, 
	{ NOTE_D5, 217 }, 
	{ NOTE_E5, 217 }, 
	{ NOTE_D5, 109 }, 
	{ NOTE_E5, 109 }, 
	{ NOTE_D5, 109 }, 
	{ NOTE_E5, 109 }, 
	{ NOTE_G5, 109 }, 
	{ NOTE_E5, 109 }, 
	{ NOTE_G5, 109 }, 
	{ NOTE_E5, 108 }, 
	{ NOTE_DS5, 326 }, 
	{ NOTE_DS5, 109 }, 
	{ NOTE_REST, 217 }, 
	{ NOTE_DS5, 217 }, 
	{ NOTE_REST, 217 }, 
	{ NOTE_DS5, 217 }, 
	{ NOTE_REST, 217 }, 
	{ NOTE_DS5, 219 }, 
	{ NOTE_DS5, 326 }, 
	{ NOTE_DS5, 109 }, 
	{ NOTE_REST, 217 }, 
	{ NOTE_DS5, 217 }, 
	{ NOTE_REST, 217 }, 
	{ NOTE_DS5, 217 }, 
	{ NOTE_REST, 217 }, 
	{ NOTE_DS5, 219 }, 
	{ NOTE_E5, 326 }, 
	{ NOTE_E5, 109 }, 
	{ NOTE_REST, 217 }, 
	{ NOTE_E5, 217 }, 
	{ NOTE_REST, 217 }, 
	{ NOTE_E5, 217 }, 
	{ NOTE_REST, 217 }, 
	{ NOTE_E5, 219 }, 
	{ NOTE_REST, 1739 }, 
	{ NOTE_DS5, 326 }, 
	{ NOTE_DS5, 109 }, 
	{ NOTE_REST, 217 }, 
	{ NOTE_DS5, 217 }, 
	{ NOTE_REST, 217 }, 
	{ NOTE_DS5, 217 }, 
	{ NOTE_REST, 217 }, 
	{ NOTE_DS5, 219 }, 
	{ NOTE_DS5, 326 }, 
	{ NOTE_DS5, 109 }, 
	{ NOTE_REST, 217 }, 
	{ NOTE_DS5, 217 }, 
	{ NOTE_REST, 217 }, 
	{ NOTE_DS5, 217 }, 
	{ NOTE_REST, 217 }, 
	{ NOTE_DS5, 219 }, 
	{ NOTE_E5, 326 }, 
	{ NOTE_E5, 109 }, 
	{ NOTE_REST, 217 }, 
	{ NOTE_E5, 217 }, 
	{ NOTE_REST, 217 }, 
	{ NOTE_E5, 217 }, 
	{ NOTE_REST, 217 }, 
	{ NOTE_E5, 219 }, 
	{ NOTE_E5, 217 }, 
	{ NOTE_REST, 870 }, 
	{ NOTE_REST, 652 }, 
	{ NOTE_DS5, 217 }, 
	{ NOTE_DS5, 217 }, 
	{ NOTE_REST, 435 }, 
	{ NOTE_B3, 217 }, 
	{ NOTE_FS4, 217 }, 
	{ NOTE_A4, 217 }, 
	{ NOTE_REST, 219 }, 
	{ NOTE_DS5, 217 }, 
	{ NOTE_DS5, 217 }, 
	{ NOTE_REST, 435 }, 
	{ NOTE_B3, 217 }, 
	{ NOTE_FS4, 217 }, 
	{ NOTE_A4, 217 }, 
	{ NOTE_REST, 219 }, 
	{ NOTE_E5, 217 }, 
	{ NOTE_E5, 217 }, 
	{ NOTE_REST, 435 }, 
	{ NOTE_C4, 217 }, 
	{ NOTE_G4, 217 }, 
	{ NOTE_AS4, 217 }, 
	{ NOTE_REST, 219 }, 
	{ NOTE_E5, 217 }, 
	{ NOTE_REST, 870 }, 
	{ NOTE_REST, 652 }, 
	{ NOTE_A3, 109 }, 
	{ NOTE_A3, 109 }, 
	{ NOTE_A3, 109 }, 
	{ NOTE_A3, 109 }, 
	{ NOTE_DS5, 217 }, 
	{ NOTE_A3, 109 }, 
	{ NOTE_A3, 109 }, 
	{ NOTE_A3, 109 }, 
	{ NOTE_A3, 109 }, 
	{ NOTE_A3, 109 }, 
	{ NOTE_A3, 109 }, 
	{ NOTE_DS5, 217 }, 
	{ NOTE_A3, 109 }, 
	{ NOTE_A3, 106 }, 
	{ NOTE_A3, 109 }, 
	{ NOTE_A3, 109 }, 
	{ NOTE_A3, 109 }, 
	{ NOTE_A3, 109 }, 
	{ NOTE_DS5, 217 }, 
	{ NOTE_A3, 109 }, 
	{ NOTE_A3, 109 }, 
	{ NOTE_A3, 109 }, 
	{ NOTE_A3, 109 }, 
	{ NOTE_A3, 109 }, 
	{ NOTE_A3, 109 }, 
	{ NOTE_DS5, 217 }, 
	{ NOTE_A3, 109 }, 
	{ NOTE_A3, 106 }, 
	{ NOTE_A3, 109 }, 
	{ NOTE_A3, 109 }, 
	{ NOTE_A3, 109 }, 
	{ NOTE_A3, 109 }, 
	{ NOTE_E5, 217 }, 
	{ NOTE_A3, 109 }, 
	{ NOTE_A3, 109 }, 
	{ NOTE_A3, 109 }, 
	{ NOTE_A3, 109 }, 
	{ NOTE_A3, 109 }, 
	{ NOTE_A3, 109 }, 
	{ NOTE_E5, 217 }, 
	{ NOTE_A3, 109 }, 
	{ NOTE_A3, 106 }, 
	{ NOTE_E5, 217 }, 
	{ NOTE_REST, 870 }, 
	{ NOTE_REST, 652 }, 
	{ NOTE_B3, 326 }, 
	{ NOTE_DS5, 109 }, 
	{ NOTE_DS5, 217 }, 
	{ NOTE_REST, 217 }, 
	{ NOTE_B3, 217 }, 
	{ NOTE_REST, 217 }, 
	{ NOTE_DS5, 217 }, 
	{ NOTE_REST, 219 }, 
	{ NOTE_B3, 326 }, 
	{ NOTE_DS5, 109 }, 
	{ NOTE_DS5, 217 }, 
	{ NOTE_REST, 217 }, 
	{ NOTE_B3, 217 }, 
	{ NOTE_REST, 217 }, 
	{ NOTE_DS5, 217 }, 
	{ NOTE_REST, 219 }, 
	{ NOTE_C4, 326 }, 
	{ NOTE_E5, 109 }, 
	{ NOTE_E5, 217 }, 
	{ NOTE_REST, 217 }, 
	{ NOTE_C4, 217 }, 
	{ NOTE_REST, 217 }, 
	{ NOTE_E5, 217 }, 
	{ NOTE_REST, 219 }, 
	{ NOTE_E5, 217 }, 
	{ NOTE_REST, 870 }, 
	{ NOTE_REST, 652 }, 
	{ NOTE_REST, 1739 }, 
	{ NOTE_DS5, 326 }, 
	{ NOTE_DS5, 109 }, 
	{ NOTE_REST, 217 }, 
	{ NOTE_DS5, 217 }, 
	{ NOTE_DS5, 435 }, 
	{ NOTE_REST, 435 }, 
	{ NOTE_DS5, 326 }, 
	{ NOTE_DS5, 109 }, 
	{ NOTE_REST, 217 }, 
	{ NOTE_DS5, 217 }, 
	{ NOTE_DS5, 435 }, 
	{ NOTE_REST, 435 }, 
	{ NOTE_E5, 326 }, 
	{ NOTE_E5, 109 }, 
	{ NOTE_REST, 217 }, 
	{ NOTE_E5, 217 }, 
	{ NOTE_E5, 435 }, 
	{ NOTE_REST, 435 }, 
	{ NOTE_E5, 217 }, 
	{ NOTE_REST, 870 }, 
	{ NOTE_REST, 652 }, 
	{ NOTE_REST, 435 }, 
	{ NOTE_REST, 870 }, 
	{ NOTE_REST, 217 }, 
	{ NOTE_D6, 72 }, 
	{ NOTE_C6, 72 }, 
	{ NOTE_B5, 73 }, 
	{ NOTE_B4, 217 }, 
	{ NOTE_FS5, 217 }, 
	{ NOTE_G5, 217 }, 
	{ NOTE_A5, 326 }, 
	{ NOTE_A5, 109 }, 
	{ NOTE_G5, 109 }, 
	{ NOTE_A5, 109 }, 
	{ NOTE_G5, 109 }, 
	{ NOTE_FS5, 109 }, 
	{ NOTE_G5, 109 }, 
	{ NOTE_FS5, 108 }, 
	{ NOTE_E5, 979 }, 
	{ NOTE_DS5, 109 }, 
	{ NOTE_E5, 109 }, 
	{ NOTE_FS5, 109 }, 
	{ NOTE_G5, 145 }, 
	{ NOTE_A5, 145 }, 
	{ NOTE_G5, 143 }, 
	{ NOTE_FS5, 109 }, 
	{ NOTE_FS5, 109 }, 
	{ NOTE_E5, 109 }, 
	{ NOTE_FS5, 109 }, 
	{ NOTE_E5, 109 }, 
	{ NOTE_DS5, 217 }, 
	{ NOTE_DS5, 109 }, 
	{ NOTE_E5, 217 }, 
	{ NOTE_FS5, 435 }, 
	{ NOTE_E5, 109 }, 
	{ NOTE_DS5, 107 }, 
	{ NOTE_E5, 870 }, 
	{ NOTE_G4, 869 }, 
	{ NOTE_REST, 217 }, 
	{ NOTE_B4, 109 }, 
	{ NOTE_C5, 109 }, 
	{ NOTE_DS5, 109 }, 
	{ NOTE_C5, 109 }, 
	{ NOTE_B4, 109 }, 
	{ NOTE_DS5, 109 }, 
	{ NOTE_FS5, 109 }, 
	{ NOTE_DS5, 109 }, 
	{ NOTE_B4, 109 }, 
	{ NOTE_B5, 867 }, 
	{ NOTE_FS6, 653 }, 
	{ NOTE_E6, 109 }, 
	{ NOTE_DS6, 109 }, 
	{ NOTE_E6, 109 }, 
	{ NOTE_DS6, 433 }, 
	{ NOTE_C6, 217 }, 
	{ NOTE_B5, 217 }, 
	{ NOTE_C6, 217 }, 
	{ NOTE_DS6, 217 }, 
	{ NOTE_C6, 217 }, 
	{ NOTE_DS6, 217 }, 
	{ NOTE_DS6, 437 }, 
	{ NOTE_C6, 870 }, 
	{ NOTE_REST, 869 }, 
	{ NOTE_REST, 109 }, 
	{ NOTE_A6, 109 }, 
	{ NOTE_E6, 109 }, 
	{ NOTE_FS6, 109 }, 
	{ NOTE_E6, 109 }, 
	{ NOTE_G6, 109 }, 
	{ NOTE_FS6, 109 }, 
	{ NOTE_E6, 109 }, 
	{ NOTE_FS6, 109 }, 
	{ NOTE_DS6, 109 }, 
	{ NOTE_E6, 109 }, 
	{ NOTE_DS6, 109 }, 
	{ NOTE_C6, 109 }, 
	{ NOTE_B5, 109 }, 
	{ NOTE_D6, 213 }, 
	{ NOTE_D6, 652 }, 
	{ NOTE_D6, 109 }, 
	{ NOTE_C6, 109 }, 
	{ NOTE_B5, 109 }, 
	{ NOTE_C6, 217 }, 
	{ NOTE_B5, 109 }, 
	{ NOTE_B5, 109 }, 
	{ NOTE_C6, 325 }, 
	{ NOTE_C6, 109 }, 
	{ NOTE_B5, 109 }, 
	{ NOTE_A5, 109 }, 
	{ NOTE_B5, 109 }, 
	{ NOTE_REST, 109 }, 
	{ NOTE_C6, 109 }, 
	{ NOTE_REST, 217 }, 
	{ NOTE_C6, 109 }, 
	{ NOTE_B5, 109 }, 
	{ NOTE_A5, 109 }, 
	{ NOTE_B5, 109 }, 
	{ NOTE_A5, 109 }, 
	{ NOTE_G5, 109 }, 
	{ NOTE_A5, 214 }, 
	{ NOTE_G5, 109 }, 
	{ NOTE_FS5, 1196 }, 
	{ NOTE_REST, 434 }, 
	{ NOTE_B4, 109 }, 
	{ NOTE_C5, 217 }, 
	{ NOTE_DS5, 109 }, 
	{ NOTE_C5, 109 }, 
	{ NOTE_B4, 109 }, 
	{ NOTE_C5, 109 }, 
	{ NOTE_B4, 217 }, 
	{ NOTE_E5, 109 }, 
	{ NOTE_FS5, 109 }, 
	{ NOTE_DS5, 109 }, 
	{ NOTE_B4, 109 }, 
	{ NOTE_DS5, 109 }, 
	{ NOTE_E5, 324 }, 
	{ NOTE_DS5, 109 }, 
	{ NOTE_E5, 109 }, 
	{ NOTE_DS5, 109 }, 
	{ NOTE_B4, 217 }, 
	{ NOTE_A5, 109 }, 
	{ NOTE_C6, 435 }, 
	{ NOTE_A5, 109 }, 
	{ NOTE_B5, 109 }, 
	{ NOTE_A5, 109 }, 
	{ NOTE_G5, 215 }, 
	{ NOTE_A5, 145 }, 
	{ NOTE_FS5, 145 }, 
	{ NOTE_G5, 145 }, 
	{ NOTE_FS5, 145 }, 
	{ NOTE_G5, 145 }, 
	{ NOTE_A5, 471 }, 
	{ NOTE_REST, 435 }, 
	{ NOTE_B4, 108 }, 
	{ NOTE_A5, 109 }, 
	{ NOTE_B5, 109 }, 
	{ NOTE_A5, 109 }, 
	{ NOTE_B4, 109 }, 
	{ NOTE_A5, 109 }, 
	{ NOTE_B5, 109 }, 
	{ NOTE_A5, 109 }, 
	{ NOTE_B4, 109 }, 
	{ NOTE_G5, 109 }, 
	{ NOTE_A5, 109 }, 
	{ NOTE_G5, 109 }, 
	{ NOTE_B4, 109 }, 
	{ NOTE_G5, 109 }, 
	{ NOTE_A5, 109 }, 
	{ NOTE_G5, 109 }, 
	{ NOTE_B4, 104 }, 
	{ NOTE_FS5, 109 }, 
	{ NOTE_G5, 109 }, 
	{ NOTE_FS5, 109 }, 
	{ NOTE_B4, 109 }, 
	{ NOTE_E5, 109 }, 
	{ NOTE_FS5, 109 }, 
	{ NOTE_E5, 109 }, 
	{ NOTE_B4, 109 }, 
	{ NOTE_DS5, 109 }, 
	{ NOTE_E5, 109 }, 
	{ NOTE_DS5, 109 }, 
	{ NOTE_B4, 109 }, 
	{ NOTE_C5, 72 }, 
	{ NOTE_DS5, 72 }, 
	{ NOTE_C5, 72 }, 
	{ NOTE_B4, 215 }, 
	{ NOTE_A5, 7384 }, 
	{ NOTE_REST, 1846 }, 
	{ NOTE_REST, 1846 }, 
	{ NOTE_REST, 1846 }, 
	{ NOTE_REST, 1846 }, 
	{ NOTE_A4, 1616 }, 
	{ NOTE_E5, 2076 }, 
	{ NOTE_E6, 1385 }, 
	{ NOTE_A5, 231 }, 
	{ NOTE_C6, 2076 }, 
	{ NOTE_B5, 692 }, 
	{ NOTE_B5, 231 }, 
	{ NOTE_B5, 692 }, 
	{ NOTE_G5, 2077 }, 
	{ NOTE_A4, 1616 }, 
	{ NOTE_C5, 3922 }, 
	{ NOTE_A4, 107 }, 
	{ NOTE_A4, 107 }, 
	{ NOTE_FS4, 107 }, 
	{ NOTE_A4, 107 }, 
	{ NOTE_FS4, 107 }, 
	{ NOTE_F4, 107 }, 
	{ NOTE_E4, 214 }, 
	{ NOTE_CS4, 858 }, 
	{ NOTE_A4, 107 }, 
	{ NOTE_A4, 107 }, 
	{ NOTE_FS4, 107 }, 
	{ NOTE_A4, 107 }, 
	{ NOTE_FS4, 107 }, 
	{ NOTE_E4, 107 }, 
	{ NOTE_CS4, 107 }, 
	{ NOTE_C4, 107 }, 
	{ NOTE_B3, 321 }, 
	{ NOTE_CS4, 321 }, 
	{ NOTE_FS3, 216 }, 
	{ NOTE_A4, 107 }, 
	{ NOTE_A4, 107 }, 
	{ NOTE_FS4, 107 }, 
	{ NOTE_A4, 107 }, 
	{ NOTE_FS4, 107 }, 
	{ NOTE_F4, 107 }, 
	{ NOTE_E4, 214 }, 
	{ NOTE_CS4, 858 }, 
	{ NOTE_A4, 107 }, 
	{ NOTE_A4, 107 }, 
	{ NOTE_FS4, 107 }, 
	{ NOTE_A4, 107 }, 
	{ NOTE_FS4, 107 }, 
	{ NOTE_E4, 107 }, 
	{ NOTE_CS4, 107 }, 
	{ NOTE_C4, 107 }, 
	{ NOTE_B3, 321 }, 
	{ NOTE_CS4, 321 }, 
	{ NOTE_FS3, 216 }, 
	{ NOTE_C5, 107 }, 
	{ NOTE_C5, 107 }, 
	{ NOTE_A4, 107 }, 
	{ NOTE_C5, 107 }, 
	{ NOTE_A4, 107 }, 
	{ NOTE_GS4, 107 }, 
	{ NOTE_G4, 214 }, 
	{ NOTE_E4, 858 }, 
	{ NOTE_C5, 107 }, 
	{ NOTE_C5, 107 }, 
	{ NOTE_A4, 107 }, 
	{ NOTE_C5, 107 }, 
	{ NOTE_A4, 107 }, 
	{ NOTE_G4, 107 }, 
	{ NOTE_E4, 107 }, 
	{ NOTE_DS4, 107 }, 
	{ NOTE_D4, 321 }, 
	{ NOTE_E4, 321 }, 
	{ NOTE_A3, 216 }, 
	{ NOTE_C5, 107 }, 
	{ NOTE_C5, 107 }, 
	{ NOTE_A4, 107 }, 
	{ NOTE_C5, 107 }, 
	{ NOTE_A4, 107 }, 
	{ NOTE_GS4, 107 }, 
	{ NOTE_G4, 214 }, 
	{ NOTE_E4, 858 }, 
	{ NOTE_C5, 107 }, 
	{ NOTE_C5, 107 }, 
	{ NOTE_A4, 107 }, 
	{ NOTE_C5, 107 }, 
	{ NOTE_A4, 107 }, 
	{ NOTE_G4, 107 }, 
	{ NOTE_E4, 214 }, 
	{ NOTE_G4, 107 }, 
	{ NOTE_G4, 107 }, 
	{ NOTE_E4, 107 }, 
	{ NOTE_G4, 214 }, 
	{ NOTE_G4, 107 }, 
	{ NOTE_E4, 216 }, 
	{ NOTE_A4, 107 }, 
	{ NOTE_A4, 107 }, 
	{ NOTE_FS4, 107 }, 
	{ NOTE_A4, 107 }, 
	{ NOTE_FS4, 107 }, 
	{ NOTE_F4, 107 }, 
	{ NOTE_E4, 107 }, 
	{ NOTE_CS4, 965 }, 
	{ NOTE_A4, 107 }, 
	{ NOTE_A4, 107 }, 
	{ NOTE_FS4, 107 }, 
	{ NOTE_A4, 107 }, 
	{ NOTE_FS4, 107 }, 
	{ NOTE_E4, 107 }, 
	{ NOTE_CS4, 107 }, 
	{ NOTE_C4, 107 }, 
	{ NOTE_B3, 321 }, 
	{ NOTE_CS4, 321 }, 
	{ NOTE_FS3, 216 }, 
	{ NOTE_A4, 107 }, 
	{ NOTE_A4, 107 }, 
	{ NOTE_FS4, 107 }, 
	{ NOTE_A4, 107 }, 
	{ NOTE_FS4, 107 }, 
	{ NOTE_F4, 107 }, 
	{ NOTE_E4, 214 }, 
	{ NOTE_CS4, 858 }, 
	{ NOTE_A4, 107 }, 
	{ NOTE_A4, 107 }, 
	{ NOTE_FS4, 107 }, 
	{ NOTE_A4, 107 }, 
	{ NOTE_FS4, 107 }, 
	{ NOTE_E4, 107 }, 
	{ NOTE_CS4, 107 }, 
	{ NOTE_C4, 107 }, 
	{ NOTE_B3, 321 }, 
	{ NOTE_CS4, 321 }, 
	{ NOTE_FS3, 216 }, 
	{ NOTE_C5, 107 }, 
	{ NOTE_C5, 107 }, 
	{ NOTE_A4, 107 }, 
	{ NOTE_C5, 107 }, 
	{ NOTE_A4, 107 }, 
	{ NOTE_GS4, 107 }, 
	{ NOTE_G4, 214 }, 
	{ NOTE_E4, 858 }, 
	{ NOTE_C5, 107 }, 
	{ NOTE_C5, 107 }, 
	{ NOTE_A4, 107 }, 
	{ NOTE_C5, 107 }, 
	{ NOTE_A4, 107 }, 
	{ NOTE_G4, 107 }, 
	{ NOTE_E4, 107 }, 
	{ NOTE_DS4, 107 }, 
	{ NOTE_D4, 321 }, 
	{ NOTE_E4, 321 }, 
	{ NOTE_A3, 216 }, 
	{ NOTE_C5, 107 }, 
	{ NOTE_C5, 107 }, 
	{ NOTE_A4, 107 }, 
	{ NOTE_C5, 107 }, 
	{ NOTE_A4, 107 }, 
	{ NOTE_GS4, 107 }, 
	{ NOTE_G4, 214 }, 
	{ NOTE_E4, 858 }, 
	{ NOTE_C5, 107 }, 
	{ NOTE_C5, 107 }, 
	{ NOTE_A4, 107 }, 
	{ NOTE_C5, 107 }, 
	{ NOTE_A4, 107 }, 
	{ NOTE_G4, 107 }, 
	{ NOTE_E4, 107 }, 
	{ NOTE_DS4, 107 }, 
	{ NOTE_D4, 321 }, 
	{ NOTE_E4, 321 }, 
	{ NOTE_A3, 216 }, 
	{ NOTE_DS5, 321 }, 
	{ NOTE_E5, 321 }, 
	{ NOTE_FS5, 214 }, 
	{ NOTE_A4, 1072 }, 
	{ NOTE_DS5, 214 }, 
	{ NOTE_E5, 214 }, 
	{ NOTE_FS5, 214 }, 
	{ NOTE_FS5, 429 }, 
	{ NOTE_FS5, 429 }, 
	{ NOTE_DS5, 321 }, 
	{ NOTE_E5, 321 }, 
	{ NOTE_FS5, 214 }, 
	{ NOTE_A4, 107 }, 
	{ NOTE_A4, 107 }, 
	{ NOTE_A4, 107 }, 
	{ NOTE_A4, 107 }, 
	{ NOTE_A4, 107 }, 
	{ NOTE_B4, 537 }, 
	{ NOTE_DS5, 214 }, 
	{ NOTE_E5, 214 }, 
	{ NOTE_FS5, 214 }, 
	{ NOTE_FS5, 429 }, 
	{ NOTE_FS5, 429 }, 
	{ NOTE_C5, 321 }, 
	{ NOTE_D5, 321 }, 
	{ NOTE_E5, 214 }, 
	{ NOTE_D5, 107 }, 
	{ NOTE_E5, 107 }, 
	{ NOTE_D5, 107 }, 
	{ NOTE_E5, 107 }, 
	{ NOTE_G5, 644 }, 
	{ NOTE_C5, 214 }, 
	{ NOTE_D5, 214 }, 
	{ NOTE_E5, 214 }, 
	{ NOTE_D5, 107 }, 
	{ NOTE_E5, 107 }, 
	{ NOTE_D5, 107 }, 
	{ NOTE_E5, 107 }, 
	{ NOTE_G5, 107 }, 
	{ NOTE_E5, 107 }, 
	{ NOTE_G5, 107 }, 
	{ NOTE_E5, 109 }, 
	{ NOTE_C5, 321 }, 
	{ NOTE_D5, 321 }, 
	{ NOTE_E5, 214 }, 
	{ NOTE_D5, 107 }, 
	{ NOTE_E5, 107 }, 
	{ NOTE_D5, 107 }, 
	{ NOTE_E5, 107 }, 
	{ NOTE_G5, 644 }, 
	{ NOTE_C5, 214 }, 
	{ NOTE_D5, 214 }, 
	{ NOTE_E5, 214 }, 
	{ NOTE_D5, 107 }, 
	{ NOTE_E5, 107 }, 
	{ NOTE_D5, 107 }, 
	{ NOTE_E5, 107 }, 
	{ NOTE_G5, 107 }, 
	{ NOTE_E5, 107 }, 
	{ NOTE_G5, 107 }, 
	{ NOTE_E5, 109 }, 
	{ NOTE_DS5, 321 }, 
	{ NOTE_E5, 321 }, 
	{ NOTE_FS5, 214 }, 
	{ NOTE_A4, 858 }, 
	{ NOTE_REST, 214 }, 
	{ NOTE_EB6, 214 }, 
	{ NOTE_E6, 214 }, 
	{ NOTE_FS6, 214 }, 
	{ NOTE_FS6, 429 }, 
	{ NOTE_FS6, 429 }, 
	{ NOTE_DS5, 321 }, 
	{ NOTE_E5, 321 }, 
	{ NOTE_FS5, 214 }, 
	{ NOTE_A4, 858 }, 
	{ NOTE_REST, 214 }, 
	{ NOTE_EB6, 214 }, 
	{ NOTE_E6, 214 }, 
	{ NOTE_FS6, 214 }, 
	{ NOTE_FS6, 429 }, 
	{ NOTE_FS6, 429 }, 
	{ NOTE_C5, 321 }, 
	{ NOTE_D5, 321 }, 
	{ NOTE_E5, 214 }, 
	{ NOTE_D5, 107 }, 
	{ NOTE_E5, 107 }, 
	{ NOTE_D5, 107 }, 
	{ NOTE_E5, 107 }, 
	{ NOTE_G5, 644 }, 
	{ NOTE_C5, 214 }, 
	{ NOTE_D5, 214 }, 
	{ NOTE_E5, 214 }, 
	{ NOTE_D5, 107 }, 
	{ NOTE_E5, 107 }, 
	{ NOTE_D5, 107 }, 
	{ NOTE_E5, 107 }, 
	{ NOTE_G5, 107 }, 
	{ NOTE_E5, 107 }, 
	{ NOTE_G5, 107 }, 
	{ NOTE_E5, 109 }, 
	{ NOTE_C5, 321 }, 
	{ NOTE_D5, 321 }, 
	{ NOTE_E5, 214 }, 
	{ NOTE_D5, 107 }, 
	{ NOTE_E5, 107 }, 
	{ NOTE_D5, 107 }, 
	{ NOTE_E5, 107 }, 
	{ NOTE_G5, 4262 }, 
	{ NOTE_C4, 280 }, 
	{ NOTE_C4, 280 }, 
	{ NOTE_FS3, 140 }, 
	{ NOTE_C4, 280 }, 
	{ NOTE_C4, 280 }, 
	{ NOTE_C4, 280 }, 
	{ NOTE_FS3, 2888 }, 
	{ NOTE_FS4, 150 }, 
	{ NOTE_E4, 150 }, 
	{ NOTE_D4, 150 }, 
	{ NOTE_B3, 225 }, 
};
const uint16_t NUM_OF_NOTES2 = sizeof(melody2)/sizeof(melody2[0]);

const Note melody3[] PROGMEM = {
	{ NOTE_C5, 280 }, 
	{ NOTE_FS4, 140 }, 
	{ NOTE_C5, 280 }, 
	{ NOTE_C5, 280 }, 
	{ NOTE_C5, 280 }, 
	{ NOTE_FS4, 140 }, 
	{ NOTE_C5, 280 }, 
	{ NOTE_C5, 280 }, 
	{ NOTE_C5, 280 }, 
	{ NOTE_C5, 280 }, 
	{ NOTE_FS4, 140 }, 
	{ NOTE_FS4, 144 }, 
	{ NOTE_C5, 280 }, 
	{ NOTE_FS4, 140 }, 
	{ NOTE_C5, 280 }, 
	{ NOTE_C5, 280 }, 
	{ NOTE_C5, 280 }, 
	{ NOTE_FS4, 140 }, 
	{ NOTE_C5, 280 }, 
	{ NOTE_C5, 280 }, 
	{ NOTE_C5, 280 }, 
	{ NOTE_C5, 280 }, 
	{ NOTE_FS4, 140 }, 
	{ NOTE_FS4, 144 }, 
	{ NOTE_C5, 280 }, 
	{ NOTE_FS4, 140 }, 
	{ NOTE_C5, 280 }, 
	{ NOTE_C5, 280 }, 
	{ NOTE_C5, 280 }, 
	{ NOTE_FS4, 140 }, 
	{ NOTE_C5, 280 }, 
	{ NOTE_C5, 280 }, 
	{ NOTE_C5, 280 }, 
	{ NOTE_C5, 280 }, 
	{ NOTE_FS4, 140 }, 
	{ NOTE_FS4, 144 }, 
	{ NOTE_C5, 280 }, 
	{ NOTE_FS4, 140 }, 
	{ NOTE_C5, 280 }, 
	{ NOTE_C5, 280 }, 
	{ NOTE_C5, 280 }, 
	{ NOTE_FS4, 140 }, 
	{ NOTE_C5, 280 }, 
	{ NOTE_C5, 280 }, 
	{ NOTE_C5, 280 }, 
	{ NOTE_C5, 280 }, 
	{ NOTE_FS4, 140 }, 
	{ NOTE_FS4, 144 }, 
	{ NOTE_C5, 280 }, 
	{ NOTE_FS4, 140 }, 
	{ NOTE_C5, 280 }, 
	{ NOTE_C5, 280 }, 
	{ NOTE_C5, 280 }, 
	{ NOTE_FS4, 140 }, 
	{ NOTE_C5, 280 }, 
	{ NOTE_C5, 280 }, 
	{ NOTE_C5, 280 }, 
	{ NOTE_C5, 280 }, 
	{ NOTE_FS4, 140 }, 
	{ NOTE_FS4, 144 }, 
	{ NOTE_C5, 280 }, 
	{ NOTE_FS4, 140 }, 
	{ NOTE_C5, 280 }, 
	{ NOTE_C5, 280 }, 
	{ NOTE_C5, 280 }, 
	{ NOTE_FS4, 140 }, 
	{ NOTE_C5, 280 }, 
	{ NOTE_C5, 280 }, 
	{ NOTE_C5, 280 }, 
	{ NOTE_C5, 280 }, 
	{ NOTE_FS4, 140 }, 
	{ NOTE_FS4, 144 }, 
	{ NOTE_C5, 280 }, 
	{ NOTE_FS4, 140 }, 
	{ NOTE_C5, 280 }, 
	{ NOTE_C5, 280 }, 
	{ NOTE_C5, 280 }, 
	{ NOTE_FS4, 140 }, 
	{ NOTE_C5, 280 }, 
	{ NOTE_C5, 280 }, 
	{ NOTE_C5, 280 }, 
	{ NOTE_C5, 280 }, 
	{ NOTE_FS4, 140 }, 
	{ NOTE_FS4, 144 }, 
	{ NOTE_C5, 280 }, 
	{ NOTE_FS4, 140 }, 
	{ NOTE_C5, 280 }, 
	{ NOTE_C5, 280 }, 
	{ NOTE_C5, 280 }, 
	{ NOTE_FS4, 140 }, 
	{ NOTE_C5, 280 }, 
	{ NOTE_C5, 280 }, 
	{ NOTE_C5, 280 }, 
	{ NOTE_C5, 280 }, 
	{ NOTE_FS4, 140 }, 
	{ NOTE_FS4, 144 }, 
	{ NOTE_C4, 280 }, 
	{ NOTE_FS3, 140 }, 
	{ NOTE_C4, 280 }, 
	{ NOTE_C4, 280 }, 
	{ NOTE_C4, 280 }, 
	{ NOTE_FS3, 140 }, 
	{ NOTE_C4, 280 }, 
	{ NOTE_C4, 280 }, 
	{ NOTE_C4, 280 }, 
	{ NOTE_C4, 280 }, 
	{ NOTE_FS3, 140 }, 
	{ NOTE_FS3, 144 }, 
	{ NOTE_C4, 300 }, 
	{ NOTE_REST, 300 }, 
	{ NOTE_C4, 300 }, 
	{ NOTE_C4, 300 }, 
	{ NOTE_C4, 300 }, 
	{ NOTE_REST, 300 }, 
	{ NOTE_C4, 300 }, 
	{ NOTE_C4, 300 }, 
	{ NOTE_C4, 300 }, 
	{ NOTE_C4, 300 }, 
	{ NOTE_REST, 1500 }, 
	{ NOTE_C4, 70 }, 
	{ NOTE_C4, 70 }, 
	{ NOTE_CS4, 140 }, 
	{ NOTE_DS4, 140 }, 
	{ NOTE_E4, 140 }, 
	{ NOTE_FS4, 140 }, 
	{ NOTE_GS4, 140 }, 
	{ NOTE_A4, 140 }, 
	{ NOTE_B4, 140 }, 
	{ NOTE_CS5, 140 }, 
	{ NOTE_DS5, 140 }, 
	{ NOTE_E5, 140 }, 
	{ NOTE_DS5, 140 }, 
	{ NOTE_B4, 140 }, 
	{ NOTE_C5, 984 }, 
	{ NOTE_REST, 280 }, 
	{ NOTE_B4, 70 }, 
	{ NOTE_C5, 140 }, 
	{ NOTE_B4, 140 }, 
	{ NOTE_G4, 140 }, 
	{ NOTE_FS4, 140 }, 
	{ NOTE_REST, 561 }, 
	{ NOTE_REST, 211 }, 
	{ NOTE_D5, 71 }, 
	{ NOTE_D5, 71 }, 
	{ NOTE_D5, 71 }, 
	{ NOTE_C5, 107 }, 
	{ NOTE_D5, 107 }, 
	{ NOTE_C5, 107 }, 
	{ NOTE_B4, 107 }, 
	{ NOTE_A4, 107 }, 
	{ NOTE_G4, 107 }, 
	{ NOTE_FS4, 1286 }, 
	{ NOTE_FS4, 430 }, 
	{ NOTE_A4, 109 }, 
	{ NOTE_A4, 109 }, 
	{ NOTE_FS4, 109 }, 
	{ NOTE_A4, 109 }, 
	{ NOTE_FS4, 109 }, 
	{ NOTE_F4, 109 }, 
	{ NOTE_E4, 217 }, 
	{ NOTE_CS4, 868 }, 
	{ NOTE_A4, 109 }, 
	{ NOTE_A4, 109 }, 
	{ NOTE_FS4, 109 }, 
	{ NOTE_A4, 109 }, 
	{ NOTE_FS4, 109 }, 
	{ NOTE_E4, 109 }, 
	{ NOTE_CS4, 109 }, 
	{ NOTE_C4, 109 }, 
	{ NOTE_B3, 326 }, 
	{ NOTE_CS4, 326 }, 
	{ NOTE_FS3, 215 }, 
	{ NOTE_A4, 109 }, 
	{ NOTE_A4, 109 }, 
	{ NOTE_FS4, 109 }, 
	{ NOTE_A4, 109 }, 
	{ NOTE_FS4, 109 }, 
	{ NOTE_F4, 109 }, 
	{ NOTE_E4, 217 }, 
	{ NOTE_CS4, 868 }, 
	{ NOTE_A4, 109 }, 
	{ NOTE_A4, 109 }, 
	{ NOTE_FS4, 109 }, 
	{ NOTE_A4, 109 }, 
	{ NOTE_FS4, 109 }, 
	{ NOTE_E4, 109 }, 
	{ NOTE_CS4, 109 }, 
	{ NOTE_C4, 109 }, 
	{ NOTE_B3, 326 }, 
	{ NOTE_CS4, 326 }, 
	{ NOTE_FS3, 215 }, 
	{ NOTE_C5, 109 }, 
	{ NOTE_C5, 109 }, 
	{ NOTE_A4, 109 }, 
	{ NOTE_C5, 109 }, 
	{ NOTE_A4, 109 }, 
	{ NOTE_GS4, 109 }, 
	{ NOTE_G4, 217 }, 
	{ NOTE_E4, 868 }, 
	{ NOTE_C5, 109 }, 
	{ NOTE_C5, 109 }, 
	{ NOTE_A4, 109 }, 
	{ NOTE_C5, 109 }, 
	{ NOTE_A4, 109 }, 
	{ NOTE_G4, 109 }, 
	{ NOTE_E4, 109 }, 
	{ NOTE_DS4, 109 }, 
	{ NOTE_D4, 326 }, 
	{ NOTE_E4, 326 }, 
	{ NOTE_A3, 215 }, 
	{ NOTE_C5, 109 }, 
	{ NOTE_C5, 109 }, 
	{ NOTE_A4, 109 }, 
	{ NOTE_C5, 109 }, 
	{ NOTE_A4, 109 }, 
	{ NOTE_GS4, 109 }, 
	{ NOTE_G4, 217 }, 
	{ NOTE_E4, 868 }, 
	{ NOTE_C5, 109 }, 
	{ NOTE_C5, 109 }, 
	{ NOTE_A4, 109 }, 
	{ NOTE_C5, 109 }, 
	{ NOTE_A4, 109 }, 
	{ NOTE_G4, 109 }, 
	{ NOTE_G4, 109 }, 
	{ NOTE_E4, 109 }, 
	{ NOTE_G4, 109 }, 
	{ NOTE_G4, 109 }, 
	{ NOTE_E4, 109 }, 
	{ NOTE_G4, 217 }, 
	{ NOTE_G4, 109 }, 
	{ NOTE_E4, 214 }, 
	{ NOTE_A4, 109 }, 
	{ NOTE_A4, 109 }, 
	{ NOTE_FS4, 109 }, 
	{ NOTE_A4, 109 }, 
	{ NOTE_FS4, 109 }, 
	{ NOTE_F4, 109 }, 
	{ NOTE_E4, 217 }, 
	{ NOTE_CS4, 868 }, 
	{ NOTE_A4, 109 }, 
	{ NOTE_A4, 109 }, 
	{ NOTE_FS4, 109 }, 
	{ NOTE_A4, 109 }, 
	{ NOTE_FS4, 109 }, 
	{ NOTE_E4, 109 }, 
	{ NOTE_CS4, 109 }, 
	{ NOTE_C4, 109 }, 
	{ NOTE_B3, 326 }, 
	{ NOTE_CS4, 326 }, 
	{ NOTE_FS3, 215 }, 
	{ NOTE_A4, 109 }, 
	{ NOTE_A4, 109 }, 
	{ NOTE_FS4, 109 }, 
	{ NOTE_A4, 109 }, 
	{ NOTE_FS4, 109 }, 
	{ NOTE_F4, 109 }, 
	{ NOTE_E4, 217 }, 
	{ NOTE_CS4, 868 }, 
	{ NOTE_A4, 109 }, 
	{ NOTE_A4, 109 }, 
	{ NOTE_FS4, 109 }, 
	{ NOTE_A4, 109 }, 
	{ NOTE_FS4, 109 }, 
	{ NOTE_E4, 109 }, 
	{ NOTE_CS4, 109 }, 
	{ NOTE_C4, 109 }, 
	{ NOTE_B3, 326 }, 
	{ NOTE_CS4, 326 }, 
	{ NOTE_FS3, 215 }, 
	{ NOTE_C5, 109 }, 
	{ NOTE_C5, 109 }, 
	{ NOTE_A4, 109 }, 
	{ NOTE_C5, 109 }, 
	{ NOTE_A4, 109 }, 
	{ NOTE_GS4, 109 }, 
	{ NOTE_G4, 217 }, 
	{ NOTE_E4, 868 }, 
	{ NOTE_C5, 109 }, 
	{ NOTE_C5, 109 }, 
	{ NOTE_A4, 109 }, 
	{ NOTE_C5, 109 }, 
	{ NOTE_A4, 109 }, 
	{ NOTE_G4, 109 }, 
	{ NOTE_E4, 109 }, 
	{ NOTE_DS4, 109 }, 
	{ NOTE_D4, 326 }, 
	{ NOTE_E4, 326 }, 
	{ NOTE_A3, 215 }, 
	{ NOTE_C5, 109 }, 
	{ NOTE_C5, 109 }, 
	{ NOTE_A4, 109 }, 
	{ NOTE_C5, 109 }, 
	{ NOTE_A4, 109 }, 
	{ NOTE_GS4, 109 }, 
	{ NOTE_G4, 217 }, 
	{ NOTE_E4, 868 }, 
	{ NOTE_C5, 109 }, 
	{ NOTE_C5, 109 }, 
	{ NOTE_A4, 109 }, 
	{ NOTE_C5, 109 }, 
	{ NOTE_A4, 109 }, 
	{ NOTE_G4, 109 }, 
	{ NOTE_E4, 109 }, 
	{ NOTE_DS4, 109 }, 
	{ NOTE_D4, 326 }, 
	{ NOTE_E4, 326 }, 
	{ NOTE_A3, 215 }, 
	{ NOTE_B3, 326 }, 
	{ NOTE_CS4, 326 }, 
	{ NOTE_FS3, 217 }, 
	{ NOTE_A4, 1087 }, 
	{ NOTE_B3, 217 }, 
	{ NOTE_CS4, 217 }, 
	{ NOTE_FS3, 217 }, 
	{ NOTE_A4, 109 }, 
	{ NOTE_A4, 109 }, 
	{ NOTE_FS4, 109 }, 
	{ NOTE_A4, 217 }, 
	{ NOTE_A4, 109 }, 
	{ NOTE_FS4, 109 }, 
	{ NOTE_CS4, 109 }, 
	{ NOTE_B3, 326 }, 
	{ NOTE_CS4, 326 }, 
	{ NOTE_FS3, 217 }, 
	{ NOTE_A4, 109 }, 
	{ NOTE_A4, 109 }, 
	{ NOTE_A4, 109 }, 
	{ NOTE_A4, 109 }, 
	{ NOTE_A4, 109 }, 
	{ NOTE_B4, 542 }, 
	{ NOTE_B3, 217 }, 
	{ NOTE_CS4, 217 }, 
	{ NOTE_FS3, 217 }, 
	{ NOTE_A4, 109 }, 
	{ NOTE_A4, 109 }, 
	{ NOTE_FS4, 109 }, 
	{ NOTE_A4, 217 }, 
	{ NOTE_A4, 109 }, 
	{ NOTE_FS4, 109 }, 
	{ NOTE_CS4, 109 }, 
	{ NOTE_C4, 326 }, 
	{ NOTE_G4, 326 }, 
	{ NOTE_CS5, 217 }, 
	{ NOTE_C5, 435 }, 
	{ NOTE_C5, 109 }, 
	{ NOTE_D5, 543 }, 
	{ NOTE_C4, 217 }, 
	{ NOTE_G4, 217 }, 
	{ NOTE_D5, 217 }, 
	{ NOTE_C5, 109 }, 
	{ NOTE_C5, 109 }, 
	{ NOTE_A4, 109 }, 
	{ NOTE_C5, 217 }, 
	{ NOTE_C5, 109 }, 
	{ NOTE_C5, 109 }, 
	{ NOTE_A4, 109 }, 
	{ NOTE_C4, 326 }, 
	{ NOTE_G4, 326 }, 
	{ NOTE_D5, 217 }, 
	{ NOTE_C5, 217 }, 
	{ NOTE_DS5, 217 }, 
	{ NOTE_D5, 217 }, 
	{ NOTE_C5, 219 }, 
	{ NOTE_B4, 109 }, 
	{ NOTE_C5, 109 }, 
	{ NOTE_A4, 109 }, 
	{ NOTE_C5, 109 }, 
	{ NOTE_A4, 109 }, 
	{ NOTE_GS4, 109 }, 
	{ NOTE_G4, 109 }, 
	{ NOTE_E4, 109 }, 
	{ NOTE_A4, 109 }, 
	{ NOTE_FS4, 109 }, 
	{ NOTE_E4, 109 }, 
	{ NOTE_G4, 217 }, 
	{ NOTE_G4, 109 }, 
	{ NOTE_E4, 214 }, 
	{ NOTE_B3, 326 }, 
	{ NOTE_CS4, 326 }, 
	{ NOTE_FS3, 217 }, 
	{ NOTE_A4, 1087 }, 
	{ NOTE_B3, 217 }, 
	{ NOTE_CS4, 217 }, 
	{ NOTE_FS3, 217 }, 
	{ NOTE_A4, 109 }, 
	{ NOTE_A4, 109 }, 
	{ NOTE_FS4, 109 }, 
	{ NOTE_A4, 217 }, 
	{ NOTE_A4, 109 }, 
	{ NOTE_FS4, 109 }, 
	{ NOTE_CS4, 109 }, 
	{ NOTE_B3, 326 }, 
	{ NOTE_CS4, 326 }, 
	{ NOTE_FS3, 217 }, 
	{ NOTE_A4, 109 }, 
	{ NOTE_A4, 109 }, 
	{ NOTE_A4, 109 }, 
	{ NOTE_A4, 109 }, 
	{ NOTE_A4, 109 }, 
	{ NOTE_B4, 542 }, 
	{ NOTE_B3, 217 }, 
	{ NOTE_CS4, 217 }, 
	{ NOTE_FS3, 217 }, 
	{ NOTE_A4, 109 }, 
	{ NOTE_A4, 109 }, 
	{ NOTE_FS4, 109 }, 
	{ NOTE_A4, 217 }, 
	{ NOTE_A4, 109 }, 
	{ NOTE_FS4, 109 }, 
	{ NOTE_CS4, 109 }, 
	{ NOTE_C4, 326 }, 
	{ NOTE_G4, 326 }, 
	{ NOTE_A4, 217 }, 
	{ NOTE_D5, 326 }, 
	{ NOTE_C5, 761 }, 
	{ NOTE_C4, 217 }, 
	{ NOTE_G4, 217 }, 
	{ NOTE_D5, 217 }, 
	{ NOTE_C5, 109 }, 
	{ NOTE_C5, 109 }, 
	{ NOTE_A4, 109 }, 
	{ NOTE_C5, 217 }, 
	{ NOTE_C5, 109 }, 
	{ NOTE_A4, 218 }, 
	{ NOTE_C4, 326 }, 
	{ NOTE_G4, 326 }, 
	{ NOTE_CS5, 217 }, 
	{ NOTE_C5, 435 }, 
	{ NOTE_D5, 435 }, 
	{ NOTE_C5, 217 }, 
	{ NOTE_B4, 217 }, 
	{ NOTE_C5, 217 }, 
	{ NOTE_B4, 217 }, 
	{ NOTE_A4, 217 }, 
	{ NOTE_G4, 217 }, 
	{ NOTE_F4, 217 }, 
	{ NOTE_D4, 220 }, 
	{ NOTE_B3, 435 }, 
	{ NOTE_CS4, 217 }, 
	{ NOTE_FS3, 217 }, 
	{ NOTE_A4, 109 }, 
	{ NOTE_A4, 109 }, 
	{ NOTE_FS4, 109 }, 
	{ NOTE_A4, 217 }, 
	{ NOTE_A4, 109 }, 
	{ NOTE_FS4, 434 }, 
	{ NOTE_B3, 217 }, 
	{ NOTE_CS4, 217 }, 
	{ NOTE_FS3, 217 }, 
	{ NOTE_A4, 109 }, 
	{ NOTE_A4, 109 }, 
	{ NOTE_FS4, 109 }, 
	{ NOTE_A4, 217 }, 
	{ NOTE_A4, 109 }, 
	{ NOTE_A4, 109 }, 
	{ NOTE_FS4, 109 }, 
	{ NOTE_C4, 326 }, 
	{ NOTE_G4, 326 }, 
	{ NOTE_CS5, 217 }, 
	{ NOTE_C5, 435 }, 
	{ NOTE_D5, 435 }, 
	{ NOTE_C5, 109 }, 
	{ NOTE_D5, 109 }, 
	{ NOTE_C5, 109 }, 
	{ NOTE_FS5, 109 }, 
	{ NOTE_E5, 109 }, 
	{ NOTE_CS5, 109 }, 
	{ NOTE_G5, 217 }, 
	{ NOTE_D5, 435 }, 
	{ NOTE_E5, 433 }, 
	{ NOTE_B3, 435 }, 
	{ NOTE_CS4, 217 }, 
	{ NOTE_FS3, 217 }, 
	{ NOTE_A4, 109 }, 
	{ NOTE_A4, 109 }, 
	{ NOTE_FS4, 109 }, 
	{ NOTE_A4, 217 }, 
	{ NOTE_A4, 109 }, 
	{ NOTE_A4, 109 }, 
	{ NOTE_B4, 325 }, 
	{ NOTE_B3, 217 }, 
	{ NOTE_CS4, 217 }, 
	{ NOTE_FS3, 217 }, 
	{ NOTE_A4, 109 }, 
	{ NOTE_A4, 109 }, 
	{ NOTE_FS4, 109 }, 
	{ NOTE_A4, 217 }, 
	{ NOTE_A4, 109 }, 
	{ NOTE_FS4, 218 }, 
	{ NOTE_C4, 326 }, 
	{ NOTE_G4, 326 }, 
	{ NOTE_CS5, 217 }, 
	{ NOTE_C5, 217 }, 
	{ NOTE_C5, 217 }, 
	{ NOTE_C5, 109 }, 
	{ NOTE_D5, 109 }, 
	{ NOTE_C5, 109 }, 
	{ NOTE_A4, 109 }, 
	{ NOTE_C5, 217 }, 
	{ NOTE_REST, 870 }, 
	{ NOTE_REST, 652 }, 
	{ NOTE_B3, 435 }, 
	{ NOTE_CS4, 217 }, 
	{ NOTE_FS3, 217 }, 
	{ NOTE_A4, 109 }, 
	{ NOTE_A4, 109 }, 
	{ NOTE_FS4, 109 }, 
	{ NOTE_A4, 217 }, 
	{ NOTE_A4, 109 }, 
	{ NOTE_A4, 109 }, 
	{ NOTE_B4, 325 }, 
	{ NOTE_B3, 217 }, 
	{ NOTE_CS4, 217 }, 
	{ NOTE_FS3, 217 }, 
	{ NOTE_A4, 109 }, 
	{ NOTE_A4, 109 }, 
	{ NOTE_FS4, 109 }, 
	{ NOTE_A4, 109 }, 
	{ NOTE_FS4, 109 }, 
	{ NOTE_F4, 109 }, 
	{ NOTE_E4, 109 }, 
	{ NOTE_CS4, 108 }, 
	{ NOTE_C4, 326 }, 
	{ NOTE_G4, 326 }, 
	{ NOTE_CS5, 217 }, 
	{ NOTE_C5, 326 }, 
	{ NOTE_D5, 326 }, 
	{ NOTE_D5, 109 }, 
	{ NOTE_DS5, 109 }, 
	{ NOTE_C5, 217 }, 
	{ NOTE_GS4, 109 }, 
	{ NOTE_D5, 109 }, 
	{ NOTE_C5, 109 }, 
	{ NOTE_A4, 109 }, 
	{ NOTE_C5, 109 }, 
	{ NOTE_A4, 109 }, 
	{ NOTE_B4, 109 }, 
	{ NOTE_C5, 109 }, 
	{ NOTE_A4, 109 }, 
	{ NOTE_C5, 109 }, 
	{ NOTE_A4, 109 }, 
	{ NOTE_GS4, 109 }, 
	{ NOTE_G4, 214 }, 
	{ NOTE_B3, 435 }, 
	{ NOTE_CS4, 217 }, 
	{ NOTE_FS3, 217 }, 
	{ NOTE_A4, 217 }, 
	{ NOTE_FS4, 217 }, 
	{ NOTE_E4, 217 }, 
	{ NOTE_FS4, 219 }, 
	{ NOTE_FS4, 217 }, 
	{ NOTE_B3, 217 }, 
	{ NOTE_CS4, 217 }, 
	{ NOTE_FS3, 217 }, 
	{ NOTE_A4, 217 }, 
	{ NOTE_FS4, 217 }, 
	{ NOTE_E4, 109 }, 
	{ NOTE_E4, 109 }, 
	{ NOTE_FS4, 219 }, 
	{ NOTE_C4, 217 }, 
	{ NOTE_C4, 109 }, 
	{ NOTE_C4, 109 }, 
	{ NOTE_G4, 217 }, 
	{ NOTE_C4, 217 }, 
	{ NOTE_G4, 109 }, 
	{ NOTE_A4, 109 }, 
	{ NOTE_G4, 217 }, 
	{ NOTE_D4, 217 }, 
	{ NOTE_D5, 218 }, 
	{ NOTE_C5, 217 }, 
	{ NOTE_REST, 326 }, 
	{ NOTE_REST, 870 }, 
	{ NOTE_C4, 326 }, 
	{ NOTE_B3, 435 }, 
	{ NOTE_CS4, 217 }, 
	{ NOTE_FS3, 435 }, 
	{ NOTE_FS3, 217 }, 
	{ NOTE_A4, 109 }, 
	{ NOTE_A4, 109 }, 
	{ NOTE_FS4, 217 }, 
	{ NOTE_B3, 435 }, 
	{ NOTE_CS4, 217 }, 
	{ NOTE_FS3, 435 }, 
	{ NOTE_FS3, 217 }, 
	{ NOTE_A4, 109 }, 
	{ NOTE_A4, 109 }, 
	{ NOTE_FS4, 217 }, 
	{ NOTE_C4, 326 }, 
	{ NOTE_G4, 326 }, 
	{ NOTE_CS5, 435 }, 
	{ NOTE_C5, 217 }, 
	{ NOTE_A4, 217 }, 
	{ NOTE_D5, 218 }, 
	{ NOTE_C5, 109 }, 
	{ NOTE_C5, 109 }, 
	{ NOTE_A3, 109 }, 
	{ NOTE_B4, 109 }, 
	{ NOTE_CS5, 109 }, 
	{ NOTE_D5, 109 }, 
	{ NOTE_E5, 109 }, 
	{ NOTE_G5, 109 }, 
	{ NOTE_FS5, 326 }, 
	{ NOTE_E5, 109 }, 
	{ NOTE_D5, 217 }, 
	{ NOTE_AS5, 215 }, 
	{ NOTE_A5, 217 }, 
	{ NOTE_G5, 217 }, 
	{ NOTE_FS5, 217 }, 
	{ NOTE_E5, 217 }, 
	{ NOTE_REST, 109 }, 
	{ NOTE_G4, 326 }, 
	{ NOTE_FS4, 217 }, 
	{ NOTE_E4, 219 }, 
	{ NOTE_B3, 435 }, 
	{ NOTE_CS4, 217 }, 
	{ NOTE_FS3, 217 }, 
	{ NOTE_A4, 109 }, 
	{ NOTE_A4, 109 }, 
	{ NOTE_FS4, 109 }, 
	{ NOTE_A4, 217 }, 
	{ NOTE_A4, 109 }, 
	{ NOTE_FS4, 434 }, 
	{ NOTE_B3, 217 }, 
	{ NOTE_CS4, 217 }, 
	{ NOTE_FS3, 217 }, 
	{ NOTE_A4, 109 }, 
	{ NOTE_A4, 109 }, 
	{ NOTE_FS4, 109 }, 
	{ NOTE_A4, 217 }, 
	{ NOTE_A4, 109 }, 
	{ NOTE_FS4, 109 }, 
	{ NOTE_C4, 109 }, 
	{ NOTE_C4, 326 }, 
	{ NOTE_G4, 326 }, 
	{ NOTE_CS5, 217 }, 
	{ NOTE_C5, 217 }, 
	{ NOTE_C5, 217 }, 
	{ NOTE_C5, 109 }, 
	{ NOTE_D5, 109 }, 
	{ NOTE_C5, 109 }, 
	{ NOTE_A4, 109 }, 
	{ NOTE_C5, 217 }, 
	{ NOTE_REST, 870 }, 
	{ NOTE_REST, 652 }, 
	{ NOTE_REST, 870 }, 
	{ NOTE_REST, 435 }, 
	{ NOTE_REST, 109 }, 
	{ NOTE_A3, 325 }, 
	{ NOTE_B3, 435 }, 
	{ NOTE_REST, 217 }, 
	{ NOTE_B3, 326 }, 
	{ NOTE_FS4, 109 }, 
	{ NOTE_FS4, 109 }, 
	{ NOTE_B3, 109 }, 
	{ NOTE_FS4, 109 }, 
	{ NOTE_B3, 109 }, 
	{ NOTE_FS3, 216 }, 
	{ NOTE_B3, 435 }, 
	{ NOTE_REST, 217 }, 
	{ NOTE_B3, 326 }, 
	{ NOTE_FS4, 109 }, 
	{ NOTE_FS4, 109 }, 
	{ NOTE_B3, 109 }, 
	{ NOTE_FS4, 217 }, 
	{ NOTE_B3, 217 }, 
	{ NOTE_C4, 435 }, 
	{ NOTE_REST, 217 }, 
	{ NOTE_C4, 326 }, 
	{ NOTE_G4, 217 }, 
	{ NOTE_C4, 109 }, 
	{ NOTE_A4, 217 }, 
	{ NOTE_G4, 218 }, 
	{ NOTE_DS5, 217 }, 
	{ NOTE_D5, 217 }, 
	{ NOTE_C5, 217 }, 
	{ NOTE_B4, 217 }, 
	{ NOTE_B4, 217 }, 
	{ NOTE_B4, 217 }, 
	{ NOTE_A4, 217 }, 
	{ NOTE_G4, 220 }, 
	{ NOTE_B3, 435 }, 
	{ NOTE_REST, 217 }, 
	{ NOTE_B3, 326 }, 
	{ NOTE_FS4, 109 }, 
	{ NOTE_FS4, 109 }, 
	{ NOTE_B3, 109 }, 
	{ NOTE_FS4, 109 }, 
	{ NOTE_B3, 109 }, 
	{ NOTE_FS3, 216 }, 
	{ NOTE_B3, 435 }, 
	{ NOTE_REST, 217 }, 
	{ NOTE_B3, 326 }, 
	{ NOTE_FS4, 109 }, 
	{ NOTE_FS4, 109 }, 
	{ NOTE_B3, 109 }, 
	{ NOTE_FS4, 217 }, 
	{ NOTE_B3, 217 }, 
	{ NOTE_C4, 435 }, 
	{ NOTE_REST, 217 }, 
	{ NOTE_C4, 326 }, 
	{ NOTE_G4, 217 }, 
	{ NOTE_C4, 109 }, 
	{ NOTE_A4, 217 }, 
	{ NOTE_G4, 218 }, 
	{ NOTE_DS5, 217 }, 
	{ NOTE_D5, 217 }, 
	{ NOTE_C5, 217 }, 
	{ NOTE_B4, 217 }, 
	{ NOTE_C5, 217 }, 
	{ NOTE_C5, 109 }, 
	{ NOTE_B4, 109 }, 
	{ NOTE_G4, 109 }, 
	{ NOTE_E4, 109 }, 
	{ NOTE_D4, 109 }, 
	{ NOTE_C4, 109 }, 
	{ NOTE_B3, 435 }, 
	{ NOTE_REST, 217 }, 
	{ NOTE_B3, 326 }, 
	{ NOTE_B3, 217 }, 
	{ NOTE_FS3, 109 }, 
	{ NOTE_B3, 109 }, 
	{ NOTE_FS3, 109 }, 
	{ NOTE_A3, 217 }, 
	{ NOTE_B3, 435 }, 
	{ NOTE_REST, 217 }, 
	{ NOTE_B3, 326 }, 
	{ NOTE_FS4, 109 }, 
	{ NOTE_FS4, 109 }, 
	{ NOTE_B3, 109 }, 
	{ NOTE_FS4, 109 }, 
	{ NOTE_B3, 109 }, 
	{ NOTE_G3, 216 }, 
	{ NOTE_C4, 435 }, 
	{ NOTE_REST, 217 }, 
	{ NOTE_C4, 326 }, 
	{ NOTE_G4, 326 }, 
	{ NOTE_C4, 217 }, 
	{ NOTE_C5, 218 }, 
	{ NOTE_B4, 217 }, 
	{ NOTE_A4, 217 }, 
	{ NOTE_G4, 217 }, 
	{ NOTE_DS5, 435 }, 
	{ NOTE_D5, 217 }, 
	{ NOTE_C5, 217 }, 
	{ NOTE_B4, 219 }, 
	{ NOTE_B3, 435 }, 
	{ NOTE_REST, 217 }, 
	{ NOTE_B3, 326 }, 
	{ NOTE_FS4, 109 }, 
	{ NOTE_FS4, 109 }, 
	{ NOTE_B3, 109 }, 
	{ NOTE_FS4, 217 }, 
	{ NOTE_FS3, 217 }, 
	{ NOTE_B3, 435 }, 
	{ NOTE_REST, 217 }, 
	{ NOTE_B3, 326 }, 
	{ NOTE_FS4, 109 }, 
	{ NOTE_FS4, 109 }, 
	{ NOTE_B3, 109 }, 
	{ NOTE_FS4, 217 }, 
	{ NOTE_B3, 217 }, 
	{ NOTE_C4, 435 }, 
	{ NOTE_G4, 217 }, 
	{ NOTE_G4, 217 }, 
	{ NOTE_D5, 217 }, 
	{ NOTE_D5, 217 }, 
	{ NOTE_C5, 217 }, 
	{ NOTE_D5, 219 }, 
	{ NOTE_C5, 217 }, 
	{ NOTE_REST, 870 }, 
	{ NOTE_REST, 652 }, 
	{ NOTE_REST, 1739 }, 
	{ NOTE_A3, 1616 }, 
	{ NOTE_A3, 2076 }, 
	{ NOTE_A3, 1616 }, 
	{ NOTE_A3, 2076 }, 
	{ NOTE_A3, 1616 }, 
	{ NOTE_A3, 2076 }, 
	{ NOTE_A3, 1616 }, 
	{ NOTE_A3, 2076 }, 
	{ NOTE_A3, 1616 }, 
	{ NOTE_A3, 2076 }, 
	{ NOTE_A3, 1616 }, 
	{ NOTE_A3, 2076 }, 
	{ NOTE_A3, 1616 }, 
	{ NOTE_A3, 2076 }, 
	{ NOTE_A3, 1616 }, 
	{ NOTE_A3, 2076 }, 
	{ NOTE_REST, 1385 }, 
	{ NOTE_FS4, 461 }, 
	{ NOTE_A4, 107 }, 
	{ NOTE_A4, 107 }, 
	{ NOTE_FS4, 107 }, 
	{ NOTE_A4, 107 }, 
	{ NOTE_FS4, 107 }, 
	{ NOTE_F4, 107 }, 
	{ NOTE_E4, 214 }, 
	{ NOTE_CS4, 858 }, 
	{ NOTE_A4, 107 }, 
	{ NOTE_A4, 107 }, 
	{ NOTE_FS4, 107 }, 
	{ NOTE_A4, 107 }, 
	{ NOTE_FS4, 107 }, 
	{ NOTE_E4, 107 }, 
	{ NOTE_CS4, 107 }, 
	{ NOTE_C4, 107 }, 
	{ NOTE_B3, 321 }, 
	{ NOTE_CS4, 321 }, 
	{ NOTE_FS3, 216 }, 
	{ NOTE_A4, 107 }, 
	{ NOTE_A4, 107 }, 
	{ NOTE_FS4, 107 }, 
	{ NOTE_A4, 107 }, 
	{ NOTE_FS4, 107 }, 
	{ NOTE_F4, 107 }, 
	{ NOTE_E4, 214 }, 
	{ NOTE_CS4, 858 }, 
	{ NOTE_A4, 107 }, 
	{ NOTE_A4, 107 }, 
	{ NOTE_FS4, 107 }, 
	{ NOTE_A4, 107 }, 
	{ NOTE_FS4, 107 }, 
	{ NOTE_E4, 107 }, 
	{ NOTE_CS4, 107 }, 
	{ NOTE_C4, 107 }, 
	{ NOTE_B3, 321 }, 
	{ NOTE_CS4, 321 }, 
	{ NOTE_FS3, 216 }, 
	{ NOTE_C5, 107 }, 
	{ NOTE_C5, 107 }, 
	{ NOTE_A4, 107 }, 
	{ NOTE_C5, 107 }, 
	{ NOTE_A4, 107 }, 
	{ NOTE_GS4, 107 }, 
	{ NOTE_G4, 214 }, 
	{ NOTE_E4, 858 }, 
	{ NOTE_C5, 107 }, 
	{ NOTE_C5, 107 }, 
	{ NOTE_A4, 107 }, 
	{ NOTE_C5, 107 }, 
	{ NOTE_A4, 107 }, 
	{ NOTE_G4, 107 }, 
	{ NOTE_E4, 107 }, 
	{ NOTE_DS4, 107 }, 
	{ NOTE_D4, 321 }, 
	{ NOTE_E4, 321 }, 
	{ NOTE_A3, 216 }, 
	{ NOTE_C5, 107 }, 
	{ NOTE_C5, 107 }, 
	{ NOTE_A4, 107 }, 
	{ NOTE_C5, 107 }, 
	{ NOTE_A4, 107 }, 
	{ NOTE_GS4, 107 }, 
	{ NOTE_G4, 214 }, 
	{ NOTE_E4, 858 }, 
	{ NOTE_C5, 107 }, 
	{ NOTE_C5, 107 }, 
	{ NOTE_A4, 107 }, 
	{ NOTE_C5, 107 }, 
	{ NOTE_A4, 107 }, 
	{ NOTE_G4, 107 }, 
	{ NOTE_G4, 107 }, 
	{ NOTE_E4, 107 }, 
	{ NOTE_G4, 107 }, 
	{ NOTE_G4, 107 }, 
	{ NOTE_E4, 107 }, 
	{ NOTE_G4, 214 }, 
	{ NOTE_G4, 107 }, 
	{ NOTE_E4, 216 }, 
	{ NOTE_A4, 107 }, 
	{ NOTE_A4, 107 }, 
	{ NOTE_FS4, 107 }, 
	{ NOTE_A4, 107 }, 
	{ NOTE_FS4, 107 }, 
	{ NOTE_F4, 107 }, 
	{ NOTE_E4, 107 }, 
	{ NOTE_CS4, 965 }, 
	{ NOTE_A4, 107 }, 
	{ NOTE_A4, 107 }, 
	{ NOTE_FS4, 107 }, 
	{ NOTE_A4, 107 }, 
	{ NOTE_FS4, 107 }, 
	{ NOTE_E4, 107 }, 
	{ NOTE_CS4, 107 }, 
	{ NOTE_C4, 107 }, 
	{ NOTE_B3, 321 }, 
	{ NOTE_CS4, 321 }, 
	{ NOTE_FS3, 216 }, 
	{ NOTE_A4, 107 }, 
	{ NOTE_A4, 107 }, 
	{ NOTE_FS4, 107 }, 
	{ NOTE_A4, 107 }, 
	{ NOTE_FS4, 107 }, 
	{ NOTE_F4, 107 }, 
	{ NOTE_E4, 214 }, 
	{ NOTE_CS4, 858 }, 
	{ NOTE_A4, 107 }, 
	{ NOTE_A4, 107 }, 
	{ NOTE_FS4, 107 }, 
	{ NOTE_A4, 107 }, 
	{ NOTE_FS4, 107 }, 
	{ NOTE_E4, 107 }, 
	{ NOTE_CS4, 107 }, 
	{ NOTE_C4, 107 }, 
	{ NOTE_B3, 321 }, 
	{ NOTE_CS4, 321 }, 
	{ NOTE_FS3, 216 }, 
	{ NOTE_C5, 107 }, 
	{ NOTE_C5, 107 }, 
	{ NOTE_A4, 107 }, 
	{ NOTE_C5, 107 }, 
	{ NOTE_A4, 107 }, 
	{ NOTE_GS4, 107 }, 
	{ NOTE_G4, 214 }, 
	{ NOTE_E4, 858 }, 
	{ NOTE_C5, 107 }, 
	{ NOTE_C5, 107 }, 
	{ NOTE_A4, 107 }, 
	{ NOTE_C5, 107 }, 
	{ NOTE_A4, 107 }, 
	{ NOTE_G4, 107 }, 
	{ NOTE_E4, 107 }, 
	{ NOTE_DS4, 107 }, 
	{ NOTE_D4, 321 }, 
	{ NOTE_E4, 321 }, 
	{ NOTE_A3, 216 }, 
	{ NOTE_C5, 107 }, 
	{ NOTE_C5, 107 }, 
	{ NOTE_A4, 107 }, 
	{ NOTE_C5, 107 }, 
	{ NOTE_A4, 107 }, 
	{ NOTE_GS4, 107 }, 
	{ NOTE_G4, 214 }, 
	{ NOTE_E4, 858 }, 
	{ NOTE_C5, 107 }, 
	{ NOTE_C5, 107 }, 
	{ NOTE_A4, 107 }, 
	{ NOTE_C5, 107 }, 
	{ NOTE_A4, 107 }, 
	{ NOTE_G4, 107 }, 
	{ NOTE_E4, 107 }, 
	{ NOTE_DS4, 107 }, 
	{ NOTE_D4, 321 }, 
	{ NOTE_E4, 321 }, 
	{ NOTE_A3, 216 }, 
	{ NOTE_B3, 321 }, 
	{ NOTE_CS4, 321 }, 
	{ NOTE_FS3, 214 }, 
	{ NOTE_A4, 1072 }, 
	{ NOTE_B3, 214 }, 
	{ NOTE_CS4, 214 }, 
	{ NOTE_FS3, 214 }, 
	{ NOTE_A4, 107 }, 
	{ NOTE_A4, 107 }, 
	{ NOTE_FS4, 107 }, 
	{ NOTE_A4, 214 }, 
	{ NOTE_A4, 107 }, 
	{ NOTE_FS4, 107 }, 
	{ NOTE_CS4, 109 }, 
	{ NOTE_B3, 321 }, 
	{ NOTE_CS4, 321 }, 
	{ NOTE_FS3, 214 }, 
	{ NOTE_A4, 107 }, 
	{ NOTE_A4, 107 }, 
	{ NOTE_A4, 107 }, 
	{ NOTE_A4, 107 }, 
	{ NOTE_A4, 107 }, 
	{ NOTE_B4, 537 }, 
	{ NOTE_B3, 214 }, 
	{ NOTE_CS4, 214 }, 
	{ NOTE_FS3, 214 }, 
	{ NOTE_A4, 107 }, 
	{ NOTE_A4, 107 }, 
	{ NOTE_FS4, 107 }, 
	{ NOTE_A4, 107 }, 
	{ NOTE_FS4, 107 }, 
	{ NOTE_E4, 323 }, 
	{ NOTE_C4, 321 }, 
	{ NOTE_G4, 321 }, 
	{ NOTE_CS5, 214 }, 
	{ NOTE_C5, 429 }, 
	{ NOTE_C5, 107 }, 
	{ NOTE_D5, 536 }, 
	{ NOTE_C4, 214 }, 
	{ NOTE_G4, 214 }, 
	{ NOTE_D5, 214 }, 
	{ NOTE_C5, 107 }, 
	{ NOTE_C5, 107 }, 
	{ NOTE_A4, 107 }, 
	{ NOTE_C5, 214 }, 
	{ NOTE_C5, 107 }, 
	{ NOTE_A4, 107 }, 
	{ NOTE_E4, 109 }, 
	{ NOTE_C4, 321 }, 
	{ NOTE_G4, 321 }, 
	{ NOTE_CS5, 214 }, 
	{ NOTE_C5, 429 }, 
	{ NOTE_D5, 429 }, 
	{ NOTE_C4, 214 }, 
	{ NOTE_E4, 214 }, 
	{ NOTE_F4, 214 }, 
	{ NOTE_G4, 214 }, 
	{ NOTE_F4, 107 }, 
	{ NOTE_F4, 107 }, 
	{ NOTE_D4, 107 }, 
	{ NOTE_E4, 214 }, 
	{ NOTE_E4, 107 }, 
	{ NOTE_D4, 107 }, 
	{ NOTE_C4, 109 }, 
	{ NOTE_B3, 429 }, 
	{ NOTE_CS4, 214 }, 
	{ NOTE_FS3, 214 }, 
	{ NOTE_A4, 429 }, 
	{ NOTE_E4, 642 }, 
	{ NOTE_B3, 214 }, 
	{ NOTE_CS4, 214 }, 
	{ NOTE_FS3, 214 }, 
	{ NOTE_A4, 107 }, 
	{ NOTE_A4, 107 }, 
	{ NOTE_FS4, 107 }, 
	{ NOTE_A4, 214 }, 
	{ NOTE_A4, 107 }, 
	{ NOTE_FS4, 216 }, 
	{ NOTE_B3, 429 }, 
	{ NOTE_CS4, 214 }, 
	{ NOTE_FS3, 214 }, 
	{ NOTE_A4, 429 }, 
	{ NOTE_E4, 642 }, 
	{ NOTE_B3, 214 }, 
	{ NOTE_CS4, 214 }, 
	{ NOTE_FS3, 214 }, 
	{ NOTE_FS4, 107 }, 
	{ NOTE_A4, 214 }, 
	{ NOTE_FS4, 107 }, 
	{ NOTE_E4, 214 }, 
	{ NOTE_E4, 216 }, 
	{ NOTE_C4, 321 }, 
	{ NOTE_G4, 321 }, 
	{ NOTE_CS5, 214 }, 
	{ NOTE_C5, 429 }, 
	{ NOTE_D5, 643 }, 
	{ NOTE_C4, 214 }, 
	{ NOTE_G4, 214 }, 
	{ NOTE_D5, 214 }, 
	{ NOTE_C5, 107 }, 
	{ NOTE_C5, 107 }, 
	{ NOTE_A4, 107 }, 
	{ NOTE_C5, 214 }, 
	{ NOTE_C5, 107 }, 
	{ NOTE_C5, 107 }, 
	{ NOTE_A4, 109 }, 
	{ NOTE_C4, 321 }, 
	{ NOTE_G4, 321 }, 
	{ NOTE_CS5, 214 }, 
	{ NOTE_C5, 429 }, 
	{ NOTE_D5, 429 }, 
	{ NOTE_C5, 231 }, 
	{ NOTE_REST, 692 }, 
	{ NOTE_E5, 77 }, 
	{ NOTE_E5, 77 }, 
	{ NOTE_D5, 77 }, 
	{ NOTE_B4, 115 }, 
	{ NOTE_D5, 77 }, 
	{ NOTE_C5, 77 }, 
	{ NOTE_G4, 77 }, 
	{ NOTE_REST, 115 }, 
	{ NOTE_C5, 77 }, 
	{ NOTE_CS5, 77 }, 
	{ NOTE_A4, 77 }, 
	{ NOTE_REST, 115 }, 
	{ NOTE_C5, 77 }, 
	{ NOTE_G4, 77 }, 
	{ NOTE_E4, 77 }, 
	{ NOTE_REST, 115 }, 
	{ NOTE_A4, 77 }, 
	{ NOTE_FS4, 77 }, 
	{ NOTE_E4, 77 }, 
	{ NOTE_REST, 115 }, 
	{ NOTE_D4, 77 }, 
	{ NOTE_C4, 77 }, 
	{ NOTE_B3, 77 }, 
	{ NOTE_REST, 462 }, 
	{ NOTE_REST, 231 }, 
	{ NOTE_REST, 115 }, 
	{ NOTE_REST, 140 }, 
	{ NOTE_C4, 280 }, 
	{ NOTE_C4, 280 }, 
	{ NOTE_FS3, 140 }, 
	{ NOTE_C4, 280 }, 
	{ NOTE_C4, 280 }, 
	{ NOTE_C4, 280 }, 
	{ NOTE_FS3, 2888 }, 
	{ NOTE_FS4, 150 }, 
	{ NOTE_E4, 150 }, 
	{ NOTE_D4, 150 }, 
	{ NOTE_B3, 225 }, 
};
const uint16_t NUM_OF_NOTES3 = sizeof(melody3)/sizeof(melody3[0]);

const Note melody4[] PROGMEM = {
	{ NOTE_FS4, 2804 }, 
	{ NOTE_GS4, 2804 }, 
	{ NOTE_E4, 1121 }, 
	{ NOTE_D4, 1683 }, 
	{ NOTE_CS4, 2804 }, 
	{ NOTE_FS4, 2804 }, 
	{ NOTE_GS4, 2804 }, 
	{ NOTE_E4, 1121 }, 
	{ NOTE_D4, 1683 }, 
	{ NOTE_CS4, 5608 }, 
	{ NOTE_REST, 3000 }, 
	{ NOTE_REST, 1500 }, 
	{ NOTE_REST, 2804 }, 
	{ NOTE_REST, 1682 }, 
	{ NOTE_REST, 1714 }, 
	{ NOTE_REST, 429 }, 
	{ NOTE_FS3, 428 }, 
	{ NOTE_B2, 435 }, 
	{ NOTE_REST, 1304 }, 
	{ NOTE_REST, 1739 }, 
	{ NOTE_REST, 1739 }, 
	{ NOTE_REST, 1739 }, 
	{ NOTE_REST, 1739 }, 
	{ NOTE_REST, 1739 }, 
	{ NOTE_REST, 1739 }, 
	{ NOTE_REST, 1739 }, 
	{ NOTE_REST, 1739 }, 
	{ NOTE_REST, 1739 }, 
	{ NOTE_REST, 1739 }, 
	{ NOTE_REST, 1739 }, 
	{ NOTE_REST, 1739 }, 
	{ NOTE_REST, 1739 }, 
	{ NOTE_REST, 1739 }, 
	{ NOTE_REST, 1739 }, 
	{ NOTE_REST, 1739 }, 
	{ NOTE_REST, 1739 }, 
	{ NOTE_REST, 1739 }, 
	{ NOTE_REST, 1739 }, 
	{ NOTE_REST, 1739 }, 
	{ NOTE_REST, 1739 }, 
	{ NOTE_REST, 1739 }, 
	{ NOTE_REST, 1739 }, 
	{ NOTE_REST, 1739 }, 
	{ NOTE_REST, 1739 }, 
	{ NOTE_REST, 1739 }, 
	{ NOTE_REST, 1739 }, 
	{ NOTE_REST, 1739 }, 
	{ NOTE_REST, 1739 }, 
	{ NOTE_REST, 1739 }, 
	{ NOTE_REST, 1739 }, 
	{ NOTE_REST, 1739 }, 
	{ NOTE_REST, 1739 }, 
	{ NOTE_REST, 1739 }, 
	{ NOTE_REST, 1739 }, 
	{ NOTE_REST, 1739 }, 
	{ NOTE_REST, 1739 }, 
	{ NOTE_REST, 1739 }, 
	{ NOTE_REST, 1739 }, 
	{ NOTE_REST, 1739 }, 
	{ NOTE_REST, 1739 }, 
	{ NOTE_REST, 1739 }, 
	{ NOTE_REST, 1739 }, 
	{ NOTE_REST, 1739 }, 
	{ NOTE_REST, 1739 }, 
	{ NOTE_REST, 1739 }, 
	{ NOTE_REST, 1739 }, 
	{ NOTE_REST, 1739 }, 
	{ NOTE_REST, 1739 }, 
	{ NOTE_REST, 1739 }, 
	{ NOTE_REST, 1739 }, 
	{ NOTE_REST, 1739 }, 
	{ NOTE_REST, 1739 }, 
	{ NOTE_REST, 1739 }, 
	{ NOTE_REST, 1739 }, 
	{ NOTE_REST, 1739 }, 
	{ NOTE_REST, 1739 }, 
	{ NOTE_REST, 1739 }, 
	{ NOTE_REST, 1739 }, 
	{ NOTE_REST, 1739 }, 
	{ NOTE_REST, 1739 }, 
	{ NOTE_REST, 1739 }, 
	{ NOTE_REST, 1739 }, 
	{ NOTE_REST, 1739 }, 
	{ NOTE_REST, 1739 }, 
	{ NOTE_REST, 1739 }, 
	{ NOTE_REST, 1739 }, 
	{ NOTE_REST, 1739 }, 
	{ NOTE_REST, 1739 }, 
	{ NOTE_REST, 1739 }, 
	{ NOTE_REST, 1739 }, 
	{ NOTE_REST, 1739 }, 
	{ NOTE_REST, 1739 }, 
	{ NOTE_REST, 1739 }, 
	{ NOTE_A3, 1616 }, 
	{ NOTE_G3, 2076 }, 
	{ NOTE_A3, 1616 }, 
	{ NOTE_C4, 2076 }, 
	{ NOTE_A3, 1616 }, 
	{ NOTE_G3, 2076 }, 
	{ NOTE_A3, 1616 }, 
	{ NOTE_C4, 2076 }, 
	{ NOTE_A3, 1616 }, 
	{ NOTE_G3, 2076 }, 
	{ NOTE_A3, 1616 }, 
	{ NOTE_C4, 2076 }, 
	{ NOTE_A3, 1616 }, 
	{ NOTE_G3, 2076 }, 
	{ NOTE_A3, 1616 }, 
	{ NOTE_C4, 1845 }, 
	{ NOTE_C4, 1616 }, 
	{ NOTE_FS3, 461 }, 
	{ NOTE_REST, 1714 }, 
	{ NOTE_REST, 1714 }, 
	{ NOTE_REST, 1714 }, 
	{ NOTE_REST, 1714 }, 
	{ NOTE_REST, 1714 }, 
	{ NOTE_REST, 1714 }, 
	{ NOTE_REST, 1714 }, 
	{ NOTE_REST, 1714 }, 
	{ NOTE_REST, 1714 }, 
	{ NOTE_REST, 1714 }, 
	{ NOTE_REST, 1714 }, 
	{ NOTE_REST, 1714 }, 
	{ NOTE_REST, 1714 }, 
	{ NOTE_REST, 1714 }, 
	{ NOTE_REST, 1714 }, 
	{ NOTE_REST, 1714 }, 
	{ NOTE_REST, 1714 }, 
	{ NOTE_REST, 1714 }, 
	{ NOTE_REST, 1714 }, 
	{ NOTE_REST, 1714 }, 
	{ NOTE_REST, 1714 }, 
	{ NOTE_REST, 1714 }, 
	{ NOTE_REST, 1714 }, 
	{ NOTE_REST, 1714 }, 
	{ NOTE_REST, 1714 }, 
	{ NOTE_REST, 1714 }, 
	{ NOTE_REST, 1714 }, 
	{ NOTE_REST, 1714 }, 
	{ NOTE_REST, 1714 }, 
	{ NOTE_REST, 1714 }, 
	{ NOTE_REST, 1286 }, 
	{ NOTE_G4, 4540 }, 
	{ NOTE_REST, 1121 }, 
	{ NOTE_REST, 561 }, 
	{ NOTE_REST, 141 }, 
	{ NOTE_REST, 3000 }, 
};
const uint16_t NUM_OF_NOTES4 = sizeof(melody4)/sizeof(melody4[0]);

