/*
 * Song: Raining Blood by Slayer
 *
 *	Melody 0 | Guitar Track 1
 *	Melody 1 | Guitar Track 1
 *	Melody 2 | Guitar Track 1
 *	Melody 3 | Guitar Track 2
 *	Melody 4 | Guitar Track 2
*/

#include <Arduino.h>
#include "notes.h"

const Note melody0[] PROGMEM = {
	{ NOTE_DS3, 169 }, 
	{ NOTE_DS3, 169 }, 
	{ NOTE_DS3, 169 }, 
	{ NOTE_DS4, 169 }, 
	{ NOTE_A4, 169 }, 
	{ NOTE_AS4, 169 }, 
	{ NOTE_A4, 334 }, 
	{ NOTE_F4, 169 }, 
	{ NOTE_A4, 169 }, 
	{ NOTE_GS4, 337 }, 
	{ NOTE_E4, 169 }, 
	{ NOTE_GS4, 169 }, 
	{ NOTE_G4, 335 }, 
	{ NOTE_DS3, 169 }, 
	{ NOTE_DS3, 169 }, 
	{ NOTE_DS3, 169 }, 
	{ NOTE_DS4, 169 }, 
	{ NOTE_A4, 169 }, 
	{ NOTE_AS4, 169 }, 
	{ NOTE_A4, 334 }, 
	{ NOTE_F4, 169 }, 
	{ NOTE_A4, 169 }, 
	{ NOTE_GS4, 337 }, 
	{ NOTE_E4, 169 }, 
	{ NOTE_GS4, 169 }, 
	{ NOTE_G4, 335 }, 
	{ NOTE_DS3, 169 }, 
	{ NOTE_DS3, 169 }, 
	{ NOTE_DS3, 169 }, 
	{ NOTE_DS4, 169 }, 
	{ NOTE_A4, 169 }, 
	{ NOTE_AS4, 169 }, 
	{ NOTE_A4, 334 }, 
	{ NOTE_F4, 169 }, 
	{ NOTE_A4, 169 }, 
	{ NOTE_GS4, 337 }, 
	{ NOTE_E4, 169 }, 
	{ NOTE_GS4, 169 }, 
	{ NOTE_G4, 335 }, 
	{ NOTE_DS3, 169 }, 
	{ NOTE_DS3, 169 }, 
	{ NOTE_DS3, 169 }, 
	{ NOTE_DS4, 169 }, 
	{ NOTE_A4, 169 }, 
	{ NOTE_AS4, 169 }, 
	{ NOTE_A4, 334 }, 
	{ NOTE_F4, 169 }, 
	{ NOTE_A4, 169 }, 
	{ NOTE_GS4, 337 }, 
	{ NOTE_E4, 169 }, 
	{ NOTE_GS4, 169 }, 
	{ NOTE_G4, 335 }, 
	{ NOTE_DS3, 84 }, 
	{ NOTE_DS3, 84 }, 
	{ NOTE_DS3, 169 }, 
	{ NOTE_DS3, 84 }, 
	{ NOTE_DS3, 84 }, 
	{ NOTE_DS3, 169 }, 
	{ NOTE_DS3, 84 }, 
	{ NOTE_DS3, 84 }, 
	{ NOTE_DS3, 169 }, 
	{ NOTE_DS3, 84 }, 
	{ NOTE_DS3, 84 }, 
	{ NOTE_DS3, 169 }, 
	{ NOTE_DS3, 84 }, 
	{ NOTE_DS3, 84 }, 
	{ NOTE_DS3, 169 }, 
	{ NOTE_DS3, 84 }, 
	{ NOTE_DS3, 84 }, 
	{ NOTE_DS3, 169 }, 
	{ NOTE_DS3, 84 }, 
	{ NOTE_DS3, 84 }, 
	{ NOTE_DS3, 169 }, 
	{ NOTE_DS3, 84 }, 
	{ NOTE_DS3, 84 }, 
	{ NOTE_DS3, 169 }, 
	{ NOTE_DS3, 84 }, 
	{ NOTE_DS3, 84 }, 
	{ NOTE_DS3, 169 }, 
	{ NOTE_DS3, 84 }, 
	{ NOTE_DS3, 84 }, 
	{ NOTE_DS3, 169 }, 
	{ NOTE_DS3, 84 }, 
	{ NOTE_DS3, 84 }, 
	{ NOTE_DS3, 169 }, 
	{ NOTE_DS3, 84 }, 
	{ NOTE_DS3, 84 }, 
	{ NOTE_DS3, 169 }, 
	{ NOTE_DS3, 169 }, 
	{ NOTE_F3, 169 }, 
	{ NOTE_G3, 169 }, 
	{ NOTE_C4, 169 }, 
	{ NOTE_E4, 169 }, 
	{ NOTE_DS4, 169 }, 
	{ NOTE_B3, 169 }, 
	{ NOTE_AS3, 165 }, 
	{ NOTE_DS3, 84 }, 
	{ NOTE_DS3, 84 }, 
	{ NOTE_DS3, 169 }, 
	{ NOTE_DS3, 84 }, 
	{ NOTE_DS3, 84 }, 
	{ NOTE_DS3, 169 }, 
	{ NOTE_DS3, 84 }, 
	{ NOTE_DS3, 84 }, 
	{ NOTE_DS3, 169 }, 
	{ NOTE_DS3, 84 }, 
	{ NOTE_DS3, 84 }, 
	{ NOTE_DS3, 169 }, 
	{ NOTE_DS3, 84 }, 
	{ NOTE_DS3, 84 }, 
	{ NOTE_DS3, 169 }, 
	{ NOTE_DS3, 84 }, 
	{ NOTE_DS3, 84 }, 
	{ NOTE_DS3, 169 }, 
	{ NOTE_DS3, 84 }, 
	{ NOTE_DS3, 84 }, 
	{ NOTE_DS3, 169 }, 
	{ NOTE_DS3, 84 }, 
	{ NOTE_DS3, 84 }, 
	{ NOTE_DS3, 169 }, 
	{ NOTE_DS3, 84 }, 
	{ NOTE_DS3, 84 }, 
	{ NOTE_DS3, 169 }, 
	{ NOTE_DS3, 84 }, 
	{ NOTE_DS3, 84 }, 
	{ NOTE_DS3, 169 }, 
	{ NOTE_DS3, 84 }, 
	{ NOTE_DS3, 84 }, 
	{ NOTE_DS3, 169 }, 
	{ NOTE_DS3, 84 }, 
	{ NOTE_DS3, 84 }, 
	{ NOTE_DS3, 169 }, 
	{ NOTE_DS3, 169 }, 
	{ NOTE_F3, 169 }, 
	{ NOTE_G3, 169 }, 
	{ NOTE_C4, 169 }, 
	{ NOTE_E4, 169 }, 
	{ NOTE_DS4, 169 }, 
	{ NOTE_B3, 169 }, 
	{ NOTE_AS3, 165 }, 
	{ NOTE_DS3, 84 }, 
	{ NOTE_DS3, 84 }, 
	{ NOTE_DS3, 169 }, 
	{ NOTE_DS3, 84 }, 
	{ NOTE_DS3, 84 }, 
	{ NOTE_DS3, 169 }, 
	{ NOTE_DS3, 84 }, 
	{ NOTE_DS3, 84 }, 
	{ NOTE_DS3, 169 }, 
	{ NOTE_DS3, 84 }, 
	{ NOTE_DS3, 84 }, 
	{ NOTE_DS3, 169 }, 
	{ NOTE_DS3, 84 }, 
	{ NOTE_DS3, 84 }, 
	{ NOTE_DS3, 169 }, 
	{ NOTE_DS3, 84 }, 
	{ NOTE_DS3, 84 }, 
	{ NOTE_DS3, 169 }, 
	{ NOTE_DS3, 84 }, 
	{ NOTE_DS3, 84 }, 
	{ NOTE_DS3, 169 }, 
	{ NOTE_DS3, 84 }, 
	{ NOTE_DS3, 84 }, 
	{ NOTE_DS3, 169 }, 
	{ NOTE_DS3, 84 }, 
	{ NOTE_DS3, 84 }, 
	{ NOTE_DS3, 169 }, 
	{ NOTE_DS3, 84 }, 
	{ NOTE_DS3, 84 }, 
	{ NOTE_DS3, 169 }, 
	{ NOTE_DS3, 84 }, 
	{ NOTE_DS3, 84 }, 
	{ NOTE_DS3, 169 }, 
	{ NOTE_DS3, 84 }, 
	{ NOTE_DS3, 84 }, 
	{ NOTE_DS3, 169 }, 
	{ NOTE_DS3, 169 }, 
	{ NOTE_F3, 169 }, 
	{ NOTE_G3, 169 }, 
	{ NOTE_C4, 169 }, 
	{ NOTE_E4, 169 }, 
	{ NOTE_DS4, 169 }, 
	{ NOTE_B3, 169 }, 
	{ NOTE_AS3, 165 }, 
	{ NOTE_DS3, 84 }, 
	{ NOTE_DS3, 84 }, 
	{ NOTE_DS3, 169 }, 
	{ NOTE_DS3, 84 }, 
	{ NOTE_DS3, 84 }, 
	{ NOTE_DS3, 169 }, 
	{ NOTE_DS3, 84 }, 
	{ NOTE_DS3, 84 }, 
	{ NOTE_DS3, 169 }, 
	{ NOTE_DS3, 84 }, 
	{ NOTE_DS3, 84 }, 
	{ NOTE_DS3, 169 }, 
	{ NOTE_DS3, 84 }, 
	{ NOTE_DS3, 84 }, 
	{ NOTE_DS3, 169 }, 
	{ NOTE_DS3, 84 }, 
	{ NOTE_DS3, 84 }, 
	{ NOTE_DS3, 169 }, 
	{ NOTE_DS3, 84 }, 
	{ NOTE_DS3, 84 }, 
	{ NOTE_DS3, 169 }, 
	{ NOTE_DS3, 84 }, 
	{ NOTE_DS3, 84 }, 
	{ NOTE_DS3, 169 }, 
	{ NOTE_DS3, 84 }, 
	{ NOTE_DS3, 84 }, 
	{ NOTE_DS3, 169 }, 
	{ NOTE_DS3, 84 }, 
	{ NOTE_DS3, 84 }, 
	{ NOTE_DS3, 169 }, 
	{ NOTE_DS3, 84 }, 
	{ NOTE_DS3, 84 }, 
	{ NOTE_DS3, 169 }, 
	{ NOTE_DS3, 84 }, 
	{ NOTE_DS3, 84 }, 
	{ NOTE_DS3, 169 }, 
	{ NOTE_DS3, 169 }, 
	{ NOTE_F3, 169 }, 
	{ NOTE_G3, 169 }, 
	{ NOTE_C4, 169 }, 
	{ NOTE_E4, 169 }, 
	{ NOTE_DS4, 169 }, 
	{ NOTE_B3, 169 }, 
	{ NOTE_AS3, 165 }, 
	{ NOTE_GS3, 70 }, 
	{ NOTE_FS3, 70 }, 
	{ NOTE_F3, 70 }, 
	{ NOTE_DS3, 70 }, 
	{ NOTE_A3, 70 }, 
	{ NOTE_GS3, 70 }, 
	{ NOTE_FS3, 70 }, 
	{ NOTE_DS3, 70 }, 
	{ NOTE_GS3, 70 }, 
	{ NOTE_FS3, 70 }, 
	{ NOTE_F3, 70 }, 
	{ NOTE_DS3, 70 }, 
	{ NOTE_A3, 70 }, 
	{ NOTE_GS3, 70 }, 
	{ NOTE_FS3, 70 }, 
	{ NOTE_DS3, 71 }, 
	{ NOTE_GS3, 70 }, 
	{ NOTE_FS3, 70 }, 
	{ NOTE_F3, 70 }, 
	{ NOTE_DS3, 70 }, 
	{ NOTE_A3, 70 }, 
	{ NOTE_GS3, 70 }, 
	{ NOTE_FS3, 70 }, 
	{ NOTE_DS3, 70 }, 
	{ NOTE_GS3, 70 }, 
	{ NOTE_FS3, 70 }, 
	{ NOTE_F3, 70 }, 
	{ NOTE_DS3, 70 }, 
	{ NOTE_A3, 70 }, 
	{ NOTE_GS3, 70 }, 
	{ NOTE_FS3, 70 }, 
	{ NOTE_DS3, 71 }, 
	{ NOTE_GS3, 70 }, 
	{ NOTE_FS3, 70 }, 
	{ NOTE_F3, 70 }, 
	{ NOTE_DS3, 70 }, 
	{ NOTE_A3, 70 }, 
	{ NOTE_GS3, 70 }, 
	{ NOTE_FS3, 70 }, 
	{ NOTE_DS3, 70 }, 
	{ NOTE_GS3, 70 }, 
	{ NOTE_FS3, 70 }, 
	{ NOTE_F3, 70 }, 
	{ NOTE_DS3, 70 }, 
	{ NOTE_A3, 281 }, 
	{ NOTE_GS3, 70 }, 
	{ NOTE_FS3, 70 }, 
	{ NOTE_F3, 70 }, 
	{ NOTE_DS3, 70 }, 
	{ NOTE_A3, 70 }, 
	{ NOTE_GS3, 70 }, 
	{ NOTE_FS3, 70 }, 
	{ NOTE_DS3, 70 }, 
	{ NOTE_GS3, 70 }, 
	{ NOTE_FS3, 70 }, 
	{ NOTE_F3, 70 }, 
	{ NOTE_DS3, 70 }, 
	{ NOTE_A3, 70 }, 
	{ NOTE_GS3, 70 }, 
	{ NOTE_FS3, 70 }, 
	{ NOTE_DS3, 71 }, 
	{ NOTE_GS3, 70 }, 
	{ NOTE_FS3, 70 }, 
	{ NOTE_F3, 70 }, 
	{ NOTE_DS3, 70 }, 
	{ NOTE_A3, 70 }, 
	{ NOTE_GS3, 70 }, 
	{ NOTE_FS3, 70 }, 
	{ NOTE_DS3, 70 }, 
	{ NOTE_FS3, 280 }, 
	{ NOTE_A3, 281 }, 
	{ NOTE_DS3, 140 }, 
	{ NOTE_DS3, 70 }, 
	{ NOTE_DS3, 70 }, 
	{ NOTE_DS3, 140 }, 
	{ NOTE_DS3, 140 }, 
	{ NOTE_B3, 140 }, 
	{ NOTE_DS4, 140 }, 
	{ NOTE_D4, 281 }, 
	{ NOTE_DS3, 140 }, 
	{ NOTE_DS3, 70 }, 
	{ NOTE_DS3, 70 }, 
	{ NOTE_DS3, 140 }, 
	{ NOTE_DS3, 140 }, 
	{ NOTE_AS3, 140 }, 
	{ NOTE_AS3, 140 }, 
	{ NOTE_CS4, 281 }, 
	{ NOTE_DS3, 140 }, 
	{ NOTE_DS3, 70 }, 
	{ NOTE_DS3, 70 }, 
	{ NOTE_DS3, 140 }, 
	{ NOTE_DS3, 140 }, 
	{ NOTE_B3, 140 }, 
	{ NOTE_DS4, 140 }, 
	{ NOTE_D4, 281 }, 
	{ NOTE_DS3, 140 }, 
	{ NOTE_DS3, 70 }, 
	{ NOTE_DS3, 70 }, 
	{ NOTE_DS3, 140 }, 
	{ NOTE_DS3, 140 }, 
	{ NOTE_AS3, 140 }, 
	{ NOTE_AS3, 140 }, 
	{ NOTE_CS4, 281 }, 
	{ NOTE_DS3, 140 }, 
	{ NOTE_DS3, 70 }, 
	{ NOTE_DS3, 70 }, 
	{ NOTE_DS3, 140 }, 
	{ NOTE_DS3, 140 }, 
	{ NOTE_B3, 140 }, 
	{ NOTE_DS4, 140 }, 
	{ NOTE_D4, 281 }, 
	{ NOTE_DS3, 140 }, 
	{ NOTE_DS3, 70 }, 
	{ NOTE_DS3, 70 }, 
	{ NOTE_DS3, 140 }, 
	{ NOTE_DS3, 140 }, 
	{ NOTE_AS3, 140 }, 
	{ NOTE_AS3, 140 }, 
	{ NOTE_CS4, 281 }, 
	{ NOTE_DS3, 140 }, 
	{ NOTE_DS3, 70 }, 
	{ NOTE_DS3, 70 }, 
	{ NOTE_DS3, 140 }, 
	{ NOTE_DS3, 140 }, 
	{ NOTE_B3, 140 }, 
	{ NOTE_DS4, 140 }, 
	{ NOTE_D4, 281 }, 
	{ NOTE_DS3, 140 }, 
	{ NOTE_DS3, 70 }, 
	{ NOTE_DS3, 70 }, 
	{ NOTE_DS3, 140 }, 
	{ NOTE_DS3, 140 }, 
	{ NOTE_AS3, 140 }, 
	{ NOTE_AS3, 140 }, 
	{ NOTE_CS4, 281 }, 
	{ NOTE_DS3, 140 }, 
	{ NOTE_DS3, 70 }, 
	{ NOTE_DS3, 70 }, 
	{ NOTE_DS3, 140 }, 
	{ NOTE_DS3, 140 }, 
	{ NOTE_B3, 140 }, 
	{ NOTE_DS4, 140 }, 
	{ NOTE_D4, 281 }, 
	{ NOTE_DS3, 140 }, 
	{ NOTE_DS3, 70 }, 
	{ NOTE_DS3, 70 }, 
	{ NOTE_DS3, 140 }, 
	{ NOTE_DS3, 140 }, 
	{ NOTE_AS3, 140 }, 
	{ NOTE_AS3, 140 }, 
	{ NOTE_CS4, 281 }, 
	{ NOTE_DS3, 140 }, 
	{ NOTE_DS3, 70 }, 
	{ NOTE_DS3, 70 }, 
	{ NOTE_DS3, 140 }, 
	{ NOTE_DS3, 140 }, 
	{ NOTE_B3, 140 }, 
	{ NOTE_DS4, 140 }, 
	{ NOTE_D4, 281 }, 
	{ NOTE_DS3, 140 }, 
	{ NOTE_DS3, 70 }, 
	{ NOTE_DS3, 70 }, 
	{ NOTE_DS3, 140 }, 
	{ NOTE_DS3, 140 }, 
	{ NOTE_AS3, 140 }, 
	{ NOTE_AS3, 140 }, 
	{ NOTE_CS4, 281 }, 
	{ NOTE_DS3, 140 }, 
	{ NOTE_DS3, 70 }, 
	{ NOTE_DS3, 70 }, 
	{ NOTE_DS3, 140 }, 
	{ NOTE_DS3, 140 }, 
	{ NOTE_B3, 140 }, 
	{ NOTE_DS4, 140 }, 
	{ NOTE_D4, 281 }, 
	{ NOTE_DS3, 140 }, 
	{ NOTE_DS3, 70 }, 
	{ NOTE_DS3, 70 }, 
	{ NOTE_DS3, 140 }, 
	{ NOTE_DS3, 140 }, 
	{ NOTE_AS3, 140 }, 
	{ NOTE_AS3, 140 }, 
	{ NOTE_CS4, 281 }, 
	{ NOTE_DS3, 140 }, 
	{ NOTE_DS3, 70 }, 
	{ NOTE_DS3, 70 }, 
	{ NOTE_DS3, 140 }, 
	{ NOTE_DS3, 140 }, 
	{ NOTE_B3, 140 }, 
	{ NOTE_DS4, 140 }, 
	{ NOTE_D4, 281 }, 
	{ NOTE_DS3, 140 }, 
	{ NOTE_DS3, 70 }, 
	{ NOTE_DS3, 70 }, 
	{ NOTE_DS3, 140 }, 
	{ NOTE_DS3, 140 }, 
	{ NOTE_AS3, 140 }, 
	{ NOTE_AS3, 140 }, 
	{ NOTE_CS4, 281 }, 
	{ NOTE_DS3, 160 }, 
	{ NOTE_DS3, 160 }, 
	{ NOTE_DS3, 160 }, 
	{ NOTE_DS3, 160 }, 
	{ NOTE_DS4, 80 }, 
	{ NOTE_FS4, 80 }, 
	{ NOTE_E4, 80 }, 
	{ NOTE_DS4, 80 }, 
	{ NOTE_E4, 317 }, 
	{ NOTE_DS3, 160 }, 
	{ NOTE_DS3, 160 }, 
	{ NOTE_DS3, 160 }, 
	{ NOTE_DS4, 160 }, 
	{ NOTE_FS4, 160 }, 
	{ NOTE_A4, 160 }, 
	{ NOTE_GS4, 317 }, 
	{ NOTE_D4, 160 }, 
	{ NOTE_D4, 160 }, 
	{ NOTE_D4, 160 }, 
	{ NOTE_D4, 160 }, 
	{ NOTE_D4, 160 }, 
	{ NOTE_D4, 160 }, 
	{ NOTE_D4, 160 }, 
	{ NOTE_D4, 157 }, 
	{ NOTE_D4, 160 }, 
	{ NOTE_D4, 160 }, 
	{ NOTE_D4, 160 }, 
	{ NOTE_D4, 160 }, 
	{ NOTE_GS3, 319 }, 
	{ NOTE_GS3, 318 }, 
	{ NOTE_DS3, 160 }, 
	{ NOTE_DS3, 160 }, 
	{ NOTE_DS3, 160 }, 
	{ NOTE_DS3, 160 }, 
	{ NOTE_DS4, 80 }, 
	{ NOTE_FS4, 80 }, 
	{ NOTE_E4, 80 }, 
	{ NOTE_DS4, 80 }, 
	{ NOTE_E4, 317 }, 
	{ NOTE_DS3, 160 }, 
	{ NOTE_DS3, 160 }, 
	{ NOTE_DS3, 160 }, 
	{ NOTE_DS4, 160 }, 
	{ NOTE_FS4, 160 }, 
	{ NOTE_A4, 160 }, 
	{ NOTE_GS4, 317 }, 
	{ NOTE_D4, 160 }, 
	{ NOTE_D4, 160 }, 
	{ NOTE_D4, 160 }, 
	{ NOTE_D4, 160 }, 
	{ NOTE_D4, 160 }, 
	{ NOTE_D4, 160 }, 
	{ NOTE_D4, 160 }, 
	{ NOTE_D4, 157 }, 
	{ NOTE_D4, 160 }, 
	{ NOTE_D4, 160 }, 
	{ NOTE_D4, 160 }, 
	{ NOTE_D4, 160 }, 
	{ NOTE_GS3, 319 }, 
	{ NOTE_GS3, 318 }, 
	{ NOTE_DS3, 160 }, 
	{ NOTE_DS3, 160 }, 
	{ NOTE_DS3, 160 }, 
	{ NOTE_DS3, 160 }, 
	{ NOTE_DS4, 80 }, 
	{ NOTE_FS4, 80 }, 
	{ NOTE_E4, 80 }, 
	{ NOTE_DS4, 80 }, 
	{ NOTE_E4, 317 }, 
	{ NOTE_DS3, 160 }, 
	{ NOTE_DS3, 160 }, 
	{ NOTE_DS3, 160 }, 
	{ NOTE_DS4, 160 }, 
	{ NOTE_FS4, 160 }, 
	{ NOTE_A4, 160 }, 
	{ NOTE_GS4, 317 }, 
	{ NOTE_D4, 160 }, 
	{ NOTE_D4, 160 }, 
	{ NOTE_D4, 160 }, 
	{ NOTE_D4, 160 }, 
	{ NOTE_D4, 160 }, 
	{ NOTE_D4, 160 }, 
	{ NOTE_D4, 160 }, 
	{ NOTE_D4, 157 }, 
	{ NOTE_D4, 160 }, 
	{ NOTE_D4, 160 }, 
	{ NOTE_D4, 160 }, 
	{ NOTE_D4, 160 }, 
	{ NOTE_GS3, 319 }, 
	{ NOTE_GS3, 318 }, 
	{ NOTE_DS3, 169 }, 
	{ NOTE_DS3, 169 }, 
	{ NOTE_DS3, 169 }, 
	{ NOTE_DS4, 169 }, 
	{ NOTE_A4, 169 }, 
	{ NOTE_AS4, 169 }, 
	{ NOTE_A4, 334 }, 
	{ NOTE_F4, 169 }, 
	{ NOTE_A4, 169 }, 
	{ NOTE_GS4, 337 }, 
	{ NOTE_E4, 169 }, 
	{ NOTE_GS4, 169 }, 
	{ NOTE_G4, 335 }, 
	{ NOTE_DS3, 169 }, 
	{ NOTE_DS3, 169 }, 
	{ NOTE_DS3, 169 }, 
	{ NOTE_DS4, 169 }, 
	{ NOTE_A4, 169 }, 
	{ NOTE_AS4, 169 }, 
	{ NOTE_A4, 334 }, 
	{ NOTE_F4, 169 }, 
	{ NOTE_A4, 169 }, 
	{ NOTE_GS4, 337 }, 
	{ NOTE_E4, 169 }, 
	{ NOTE_GS4, 169 }, 
	{ NOTE_G4, 335 }, 
	{ NOTE_DS3, 169 }, 
	{ NOTE_DS3, 169 }, 
	{ NOTE_DS3, 169 }, 
	{ NOTE_DS4, 169 }, 
	{ NOTE_A4, 169 }, 
	{ NOTE_AS4, 169 }, 
	{ NOTE_A4, 334 }, 
	{ NOTE_F4, 169 }, 
	{ NOTE_A4, 169 }, 
	{ NOTE_GS4, 337 }, 
	{ NOTE_E4, 169 }, 
	{ NOTE_GS4, 169 }, 
	{ NOTE_G4, 335 }, 
	{ NOTE_DS3, 169 }, 
	{ NOTE_DS3, 169 }, 
	{ NOTE_DS3, 169 }, 
	{ NOTE_DS4, 169 }, 
	{ NOTE_A4, 169 }, 
	{ NOTE_AS4, 169 }, 
	{ NOTE_A4, 334 }, 
	{ NOTE_F4, 169 }, 
	{ NOTE_A4, 169 }, 
	{ NOTE_GS4, 337 }, 
	{ NOTE_E4, 169 }, 
	{ NOTE_GS4, 169 }, 
	{ NOTE_G4, 335 }, 
	{ NOTE_DS3, 169 }, 
	{ NOTE_DS3, 169 }, 
	{ NOTE_REST, 337 }, 
	{ NOTE_DS3, 169 }, 
	{ NOTE_DS3, 169 }, 
	{ NOTE_REST, 335 }, 
	{ NOTE_DS3, 169 }, 
	{ NOTE_DS3, 169 }, 
	{ NOTE_REST, 337 }, 
	{ NOTE_DS3, 169 }, 
	{ NOTE_DS3, 169 }, 
	{ NOTE_REST, 335 }, 
	{ NOTE_DS3, 169 }, 
	{ NOTE_DS3, 169 }, 
	{ NOTE_REST, 337 }, 
	{ NOTE_DS3, 169 }, 
	{ NOTE_DS3, 169 }, 
	{ NOTE_REST, 335 }, 
	{ NOTE_DS3, 169 }, 
	{ NOTE_DS3, 169 }, 
	{ NOTE_REST, 337 }, 
	{ NOTE_DS3, 169 }, 
	{ NOTE_DS3, 169 }, 
	{ NOTE_REST, 335 }, 
	{ NOTE_DS3, 169 }, 
	{ NOTE_DS3, 169 }, 
	{ NOTE_REST, 337 }, 
	{ NOTE_DS3, 169 }, 
	{ NOTE_DS3, 169 }, 
	{ NOTE_REST, 335 }, 
	{ NOTE_DS3, 169 }, 
	{ NOTE_DS3, 169 }, 
	{ NOTE_REST, 337 }, 
	{ NOTE_DS3, 169 }, 
	{ NOTE_DS3, 169 }, 
	{ NOTE_REST, 335 }, 
	{ NOTE_DS3, 169 }, 
	{ NOTE_DS3, 169 }, 
	{ NOTE_REST, 337 }, 
	{ NOTE_DS3, 169 }, 
	{ NOTE_DS3, 169 }, 
	{ NOTE_REST, 335 }, 
	{ NOTE_DS3, 169 }, 
	{ NOTE_DS3, 169 }, 
	{ NOTE_REST, 337 }, 
	{ NOTE_DS3, 169 }, 
	{ NOTE_DS3, 169 }, 
	{ NOTE_REST, 335 }, 
	{ NOTE_DS3, 169 }, 
	{ NOTE_DS3, 169 }, 
	{ NOTE_REST, 337 }, 
	{ NOTE_DS3, 169 }, 
	{ NOTE_DS3, 169 }, 
	{ NOTE_REST, 335 }, 
	{ NOTE_DS3, 169 }, 
	{ NOTE_DS3, 169 }, 
	{ NOTE_REST, 337 }, 
	{ NOTE_DS3, 169 }, 
	{ NOTE_DS3, 169 }, 
	{ NOTE_REST, 335 }, 
	{ NOTE_DS3, 169 }, 
	{ NOTE_DS3, 169 }, 
	{ NOTE_REST, 337 }, 
	{ NOTE_DS3, 169 }, 
	{ NOTE_DS3, 169 }, 
	{ NOTE_REST, 335 }, 
	{ NOTE_DS3, 169 }, 
	{ NOTE_DS3, 169 }, 
	{ NOTE_REST, 337 }, 
	{ NOTE_DS3, 169 }, 
	{ NOTE_DS3, 169 }, 
	{ NOTE_REST, 335 }, 
	{ NOTE_DS3, 169 }, 
	{ NOTE_DS3, 169 }, 
	{ NOTE_REST, 337 }, 
	{ NOTE_DS3, 169 }, 
	{ NOTE_DS3, 169 }, 
	{ NOTE_REST, 335 }, 
	{ NOTE_DS3, 169 }, 
	{ NOTE_DS3, 169 }, 
	{ NOTE_REST, 337 }, 
	{ NOTE_DS3, 169 }, 
	{ NOTE_DS3, 169 }, 
	{ NOTE_REST, 335 }, 
	{ NOTE_DS3, 169 }, 
	{ NOTE_DS3, 169 }, 
	{ NOTE_FS3, 169 }, 
	{ NOTE_AS3, 169 }, 
	{ NOTE_DS3, 169 }, 
	{ NOTE_DS3, 169 }, 
	{ NOTE_FS3, 169 }, 
	{ NOTE_A3, 165 }, 
	{ NOTE_DS3, 169 }, 
	{ NOTE_DS3, 169 }, 
	{ NOTE_FS3, 169 }, 
	{ NOTE_GS3, 169 }, 
	{ NOTE_DS3, 169 }, 
	{ NOTE_DS3, 169 }, 
	{ NOTE_FS3, 169 }, 
	{ NOTE_F3, 165 }, 
	{ NOTE_DS3, 169 }, 
	{ NOTE_DS3, 169 }, 
	{ NOTE_FS3, 169 }, 
	{ NOTE_AS3, 169 }, 
	{ NOTE_DS3, 169 }, 
	{ NOTE_DS3, 169 }, 
	{ NOTE_FS3, 169 }, 
	{ NOTE_A3, 165 }, 
	{ NOTE_DS3, 169 }, 
	{ NOTE_DS3, 169 }, 
	{ NOTE_FS3, 169 }, 
	{ NOTE_GS3, 169 }, 
	{ NOTE_DS3, 169 }, 
	{ NOTE_DS3, 169 }, 
	{ NOTE_FS3, 169 }, 
	{ NOTE_F3, 165 }, 
	{ NOTE_DS3, 169 }, 
	{ NOTE_DS3, 169 }, 
	{ NOTE_FS3, 169 }, 
	{ NOTE_AS3, 169 }, 
	{ NOTE_DS3, 169 }, 
	{ NOTE_DS3, 169 }, 
	{ NOTE_FS3, 169 }, 
	{ NOTE_A3, 165 }, 
	{ NOTE_DS3, 169 }, 
	{ NOTE_DS3, 169 }, 
	{ NOTE_FS3, 169 }, 
	{ NOTE_GS3, 169 }, 
	{ NOTE_DS3, 169 }, 
	{ NOTE_DS3, 169 }, 
	{ NOTE_FS3, 169 }, 
	{ NOTE_F3, 165 }, 
	{ NOTE_DS3, 169 }, 
	{ NOTE_DS3, 169 }, 
	{ NOTE_FS3, 169 }, 
	{ NOTE_AS3, 169 }, 
	{ NOTE_DS3, 169 }, 
	{ NOTE_DS3, 169 }, 
	{ NOTE_FS3, 169 }, 
	{ NOTE_A3, 165 }, 
	{ NOTE_DS3, 169 }, 
	{ NOTE_DS3, 169 }, 
	{ NOTE_FS3, 169 }, 
	{ NOTE_GS3, 169 }, 
	{ NOTE_DS3, 169 }, 
	{ NOTE_DS3, 169 }, 
	{ NOTE_FS3, 169 }, 
	{ NOTE_F3, 165 }, 
	{ NOTE_DS3, 84 }, 
	{ NOTE_DS3, 84 }, 
	{ NOTE_DS3, 84 }, 
	{ NOTE_DS3, 84 }, 
	{ NOTE_DS3, 84 }, 
	{ NOTE_DS3, 84 }, 
	{ NOTE_DS3, 84 }, 
	{ NOTE_DS3, 84 }, 
	{ NOTE_DS3, 84 }, 
	{ NOTE_DS3, 84 }, 
	{ NOTE_DS3, 84 }, 
	{ NOTE_DS3, 84 }, 
	{ NOTE_DS3, 84 }, 
	{ NOTE_DS3, 84 }, 
	{ NOTE_DS3, 84 }, 
	{ NOTE_DS3, 88 }, 
	{ NOTE_DS3, 84 }, 
	{ NOTE_DS3, 84 }, 
	{ NOTE_DS3, 84 }, 
	{ NOTE_DS3, 84 }, 
	{ NOTE_DS3, 84 }, 
	{ NOTE_DS3, 84 }, 
	{ NOTE_DS3, 84 }, 
	{ NOTE_DS3, 84 }, 
	{ NOTE_DS3, 84 }, 
	{ NOTE_DS3, 84 }, 
	{ NOTE_DS3, 84 }, 
	{ NOTE_DS3, 84 }, 
	{ NOTE_DS3, 84 }, 
	{ NOTE_DS3, 84 }, 
	{ NOTE_DS3, 84 }, 
	{ NOTE_DS3, 88 }, 
	{ NOTE_DS3, 84 }, 
	{ NOTE_DS3, 84 }, 
	{ NOTE_DS3, 84 }, 
	{ NOTE_DS3, 84 }, 
	{ NOTE_DS3, 84 }, 
	{ NOTE_DS3, 84 }, 
	{ NOTE_DS3, 84 }, 
	{ NOTE_DS3, 86 }, 
	{ NOTE_DS3, 84 }, 
	{ NOTE_DS3, 84 }, 
	{ NOTE_DS3, 84 }, 
	{ NOTE_DS3, 84 }, 
	{ NOTE_DS3, 84 }, 
	{ NOTE_DS3, 84 }, 
	{ NOTE_DS3, 84 }, 
	{ NOTE_DS3, 84 }, 
	{ NOTE_DS3, 84 }, 
	{ NOTE_DS3, 84 }, 
	{ NOTE_DS3, 84 }, 
	{ NOTE_DS3, 84 }, 
	{ NOTE_DS3, 84 }, 
	{ NOTE_DS3, 84 }, 
	{ NOTE_DS3, 84 }, 
	{ NOTE_DS3, 88 }, 
	{ NOTE_DS3, 121 }, 
	{ NOTE_DS3, 121 }, 
	{ NOTE_DS3, 121 }, 
	{ NOTE_DS3, 121 }, 
	{ NOTE_E3, 121 }, 
	{ NOTE_E3, 121 }, 
	{ NOTE_AS3, 121 }, 
	{ NOTE_AS3, 125 }, 
	{ NOTE_A3, 121 }, 
	{ NOTE_A3, 121 }, 
	{ NOTE_A3, 121 }, 
	{ NOTE_FS3, 121 }, 
	{ NOTE_FS3, 121 }, 
	{ NOTE_FS3, 121 }, 
	{ NOTE_FS3, 121 }, 
	{ NOTE_FS3, 125 }, 
	{ NOTE_G3, 121 }, 
	{ NOTE_G3, 121 }, 
	{ NOTE_G3, 121 }, 
	{ NOTE_G3, 121 }, 
	{ NOTE_G3, 121 }, 
	{ NOTE_G3, 121 }, 
	{ NOTE_B3, 121 }, 
	{ NOTE_B3, 125 }, 
	{ NOTE_AS3, 121 }, 
	{ NOTE_AS3, 121 }, 
	{ NOTE_AS3, 121 }, 
	{ NOTE_AS3, 121 }, 
	{ NOTE_AS3, 121 }, 
	{ NOTE_AS3, 121 }, 
	{ NOTE_B3, 121 }, 
	{ NOTE_B3, 125 }, 
	{ NOTE_DS3, 121 }, 
	{ NOTE_DS3, 121 }, 
	{ NOTE_DS3, 121 }, 
	{ NOTE_DS3, 121 }, 
	{ NOTE_E3, 121 }, 
	{ NOTE_E3, 121 }, 
	{ NOTE_AS3, 121 }, 
	{ NOTE_AS3, 125 }, 
	{ NOTE_A3, 121 }, 
	{ NOTE_A3, 121 }, 
	{ NOTE_A3, 121 }, 
	{ NOTE_FS3, 121 }, 
	{ NOTE_FS3, 121 }, 
	{ NOTE_FS3, 121 }, 
	{ NOTE_FS3, 121 }, 
	{ NOTE_FS3, 125 }, 
	{ NOTE_DS3, 121 }, 
	{ NOTE_DS3, 121 }, 
	{ NOTE_DS3, 121 }, 
	{ NOTE_DS3, 121 }, 
	{ NOTE_DS3, 121 }, 
	{ NOTE_DS3, 121 }, 
	{ NOTE_DS3, 121 }, 
	{ NOTE_DS3, 125 }, 
	{ NOTE_DS3, 121 }, 
	{ NOTE_DS3, 121 }, 
	{ NOTE_DS3, 121 }, 
	{ NOTE_DS3, 121 }, 
	{ NOTE_DS3, 121 }, 
	{ NOTE_DS3, 121 }, 
	{ NOTE_DS3, 121 }, 
	{ NOTE_DS3, 125 }, 
	{ NOTE_DS3, 121 }, 
	{ NOTE_DS3, 121 }, 
	{ NOTE_DS3, 121 }, 
	{ NOTE_DS3, 121 }, 
	{ NOTE_DS3, 121 }, 
	{ NOTE_DS3, 121 }, 
	{ NOTE_DS3, 121 }, 
	{ NOTE_DS3, 125 }, 
	{ NOTE_DS3, 121 }, 
	{ NOTE_DS3, 121 }, 
	{ NOTE_DS3, 121 }, 
	{ NOTE_DS3, 121 }, 
	{ NOTE_DS3, 121 }, 
	{ NOTE_REST, 121 }, 
	{ NOTE_REST, 246 }, 
};
const uint16_t NUM_OF_NOTES0 = sizeof(melody0)/sizeof(melody0[0]);

const Note melody1[] PROGMEM = {
	{ NOTE_DS3, 169 }, 
	{ NOTE_DS3, 169 }, 
	{ NOTE_DS3, 169 }, 
	{ NOTE_DS4, 169 }, 
	{ NOTE_A4, 169 }, 
	{ NOTE_AS4, 169 }, 
	{ NOTE_A4, 334 }, 
	{ NOTE_F4, 169 }, 
	{ NOTE_A4, 169 }, 
	{ NOTE_GS4, 337 }, 
	{ NOTE_E4, 169 }, 
	{ NOTE_GS4, 169 }, 
	{ NOTE_G4, 335 }, 
	{ NOTE_DS3, 169 }, 
	{ NOTE_DS3, 169 }, 
	{ NOTE_DS3, 169 }, 
	{ NOTE_DS4, 169 }, 
	{ NOTE_A4, 169 }, 
	{ NOTE_AS4, 169 }, 
	{ NOTE_A4, 334 }, 
	{ NOTE_F4, 169 }, 
	{ NOTE_A4, 169 }, 
	{ NOTE_GS4, 337 }, 
	{ NOTE_E4, 169 }, 
	{ NOTE_GS4, 169 }, 
	{ NOTE_G4, 335 }, 
	{ NOTE_DS3, 169 }, 
	{ NOTE_DS3, 169 }, 
	{ NOTE_DS3, 169 }, 
	{ NOTE_DS4, 169 }, 
	{ NOTE_A4, 169 }, 
	{ NOTE_AS4, 169 }, 
	{ NOTE_A4, 334 }, 
	{ NOTE_F4, 169 }, 
	{ NOTE_A4, 169 }, 
	{ NOTE_GS4, 337 }, 
	{ NOTE_E4, 169 }, 
	{ NOTE_GS4, 169 }, 
	{ NOTE_G4, 335 }, 
	{ NOTE_DS3, 169 }, 
	{ NOTE_DS3, 169 }, 
	{ NOTE_DS3, 169 }, 
	{ NOTE_DS4, 169 }, 
	{ NOTE_A4, 169 }, 
	{ NOTE_AS4, 169 }, 
	{ NOTE_A4, 334 }, 
	{ NOTE_F4, 169 }, 
	{ NOTE_A4, 169 }, 
	{ NOTE_GS4, 337 }, 
	{ NOTE_E4, 169 }, 
	{ NOTE_GS4, 169 }, 
	{ NOTE_G4, 335 }, 
	{ NOTE_DS3, 84 }, 
	{ NOTE_DS3, 84 }, 
	{ NOTE_DS3, 169 }, 
	{ NOTE_DS3, 84 }, 
	{ NOTE_DS3, 84 }, 
	{ NOTE_DS3, 169 }, 
	{ NOTE_DS3, 84 }, 
	{ NOTE_DS3, 84 }, 
	{ NOTE_DS3, 169 }, 
	{ NOTE_DS3, 84 }, 
	{ NOTE_DS3, 84 }, 
	{ NOTE_DS3, 169 }, 
	{ NOTE_DS3, 84 }, 
	{ NOTE_DS3, 84 }, 
	{ NOTE_DS3, 169 }, 
	{ NOTE_DS3, 84 }, 
	{ NOTE_DS3, 84 }, 
	{ NOTE_DS3, 169 }, 
	{ NOTE_DS3, 84 }, 
	{ NOTE_DS3, 84 }, 
	{ NOTE_DS3, 169 }, 
	{ NOTE_DS3, 84 }, 
	{ NOTE_DS3, 84 }, 
	{ NOTE_DS3, 169 }, 
	{ NOTE_DS3, 84 }, 
	{ NOTE_DS3, 84 }, 
	{ NOTE_DS3, 169 }, 
	{ NOTE_DS3, 84 }, 
	{ NOTE_DS3, 84 }, 
	{ NOTE_DS3, 169 }, 
	{ NOTE_DS3, 84 }, 
	{ NOTE_DS3, 84 }, 
	{ NOTE_DS3, 169 }, 
	{ NOTE_DS3, 84 }, 
	{ NOTE_DS3, 84 }, 
	{ NOTE_DS3, 169 }, 
	{ NOTE_DS3, 169 }, 
	{ NOTE_F3, 169 }, 
	{ NOTE_G3, 169 }, 
	{ NOTE_C4, 169 }, 
	{ NOTE_E4, 169 }, 
	{ NOTE_DS4, 169 }, 
	{ NOTE_B3, 169 }, 
	{ NOTE_AS3, 165 }, 
	{ NOTE_DS3, 84 }, 
	{ NOTE_DS3, 84 }, 
	{ NOTE_DS3, 169 }, 
	{ NOTE_DS3, 84 }, 
	{ NOTE_DS3, 84 }, 
	{ NOTE_DS3, 169 }, 
	{ NOTE_DS3, 84 }, 
	{ NOTE_DS3, 84 }, 
	{ NOTE_DS3, 169 }, 
	{ NOTE_DS3, 84 }, 
	{ NOTE_DS3, 84 }, 
	{ NOTE_DS3, 169 }, 
	{ NOTE_DS3, 84 }, 
	{ NOTE_DS3, 84 }, 
	{ NOTE_DS3, 169 }, 
	{ NOTE_DS3, 84 }, 
	{ NOTE_DS3, 84 }, 
	{ NOTE_DS3, 169 }, 
	{ NOTE_DS3, 84 }, 
	{ NOTE_DS3, 84 }, 
	{ NOTE_DS3, 169 }, 
	{ NOTE_DS3, 84 }, 
	{ NOTE_DS3, 84 }, 
	{ NOTE_DS3, 169 }, 
	{ NOTE_DS3, 84 }, 
	{ NOTE_DS3, 84 }, 
	{ NOTE_DS3, 169 }, 
	{ NOTE_DS3, 84 }, 
	{ NOTE_DS3, 84 }, 
	{ NOTE_DS3, 169 }, 
	{ NOTE_DS3, 84 }, 
	{ NOTE_DS3, 84 }, 
	{ NOTE_DS3, 169 }, 
	{ NOTE_DS3, 84 }, 
	{ NOTE_DS3, 84 }, 
	{ NOTE_DS3, 169 }, 
	{ NOTE_DS3, 169 }, 
	{ NOTE_F3, 169 }, 
	{ NOTE_G3, 169 }, 
	{ NOTE_C4, 169 }, 
	{ NOTE_E4, 169 }, 
	{ NOTE_DS4, 169 }, 
	{ NOTE_B3, 169 }, 
	{ NOTE_AS3, 165 }, 
	{ NOTE_DS3, 84 }, 
	{ NOTE_DS3, 84 }, 
	{ NOTE_DS3, 169 }, 
	{ NOTE_DS3, 84 }, 
	{ NOTE_DS3, 84 }, 
	{ NOTE_DS3, 169 }, 
	{ NOTE_DS3, 84 }, 
	{ NOTE_DS3, 84 }, 
	{ NOTE_DS3, 169 }, 
	{ NOTE_DS3, 84 }, 
	{ NOTE_DS3, 84 }, 
	{ NOTE_DS3, 169 }, 
	{ NOTE_DS3, 84 }, 
	{ NOTE_DS3, 84 }, 
	{ NOTE_DS3, 169 }, 
	{ NOTE_DS3, 84 }, 
	{ NOTE_DS3, 84 }, 
	{ NOTE_DS3, 169 }, 
	{ NOTE_DS3, 84 }, 
	{ NOTE_DS3, 84 }, 
	{ NOTE_DS3, 169 }, 
	{ NOTE_DS3, 84 }, 
	{ NOTE_DS3, 84 }, 
	{ NOTE_DS3, 169 }, 
	{ NOTE_DS3, 84 }, 
	{ NOTE_DS3, 84 }, 
	{ NOTE_DS3, 169 }, 
	{ NOTE_DS3, 84 }, 
	{ NOTE_DS3, 84 }, 
	{ NOTE_DS3, 169 }, 
	{ NOTE_DS3, 84 }, 
	{ NOTE_DS3, 84 }, 
	{ NOTE_DS3, 169 }, 
	{ NOTE_DS3, 84 }, 
	{ NOTE_DS3, 84 }, 
	{ NOTE_DS3, 169 }, 
	{ NOTE_DS3, 169 }, 
	{ NOTE_F3, 169 }, 
	{ NOTE_G3, 169 }, 
	{ NOTE_C4, 169 }, 
	{ NOTE_E4, 169 }, 
	{ NOTE_DS4, 169 }, 
	{ NOTE_B3, 169 }, 
	{ NOTE_AS3, 165 }, 
	{ NOTE_DS3, 84 }, 
	{ NOTE_DS3, 84 }, 
	{ NOTE_DS3, 169 }, 
	{ NOTE_DS3, 84 }, 
	{ NOTE_DS3, 84 }, 
	{ NOTE_DS3, 169 }, 
	{ NOTE_DS3, 84 }, 
	{ NOTE_DS3, 84 }, 
	{ NOTE_DS3, 169 }, 
	{ NOTE_DS3, 84 }, 
	{ NOTE_DS3, 84 }, 
	{ NOTE_DS3, 169 }, 
	{ NOTE_DS3, 84 }, 
	{ NOTE_DS3, 84 }, 
	{ NOTE_DS3, 169 }, 
	{ NOTE_DS3, 84 }, 
	{ NOTE_DS3, 84 }, 
	{ NOTE_DS3, 169 }, 
	{ NOTE_DS3, 84 }, 
	{ NOTE_DS3, 84 }, 
	{ NOTE_DS3, 169 }, 
	{ NOTE_DS3, 84 }, 
	{ NOTE_DS3, 84 }, 
	{ NOTE_DS3, 169 }, 
	{ NOTE_DS3, 84 }, 
	{ NOTE_DS3, 84 }, 
	{ NOTE_DS3, 169 }, 
	{ NOTE_DS3, 84 }, 
	{ NOTE_DS3, 84 }, 
	{ NOTE_DS3, 169 }, 
	{ NOTE_DS3, 84 }, 
	{ NOTE_DS3, 84 }, 
	{ NOTE_DS3, 169 }, 
	{ NOTE_DS3, 84 }, 
	{ NOTE_DS3, 84 }, 
	{ NOTE_DS3, 169 }, 
	{ NOTE_DS3, 169 }, 
	{ NOTE_F3, 169 }, 
	{ NOTE_G3, 169 }, 
	{ NOTE_C4, 169 }, 
	{ NOTE_E4, 169 }, 
	{ NOTE_DS4, 169 }, 
	{ NOTE_B3, 169 }, 
	{ NOTE_AS3, 165 }, 
	{ NOTE_GS3, 70 }, 
	{ NOTE_FS3, 70 }, 
	{ NOTE_F3, 70 }, 
	{ NOTE_DS3, 70 }, 
	{ NOTE_A3, 70 }, 
	{ NOTE_GS3, 70 }, 
	{ NOTE_FS3, 70 }, 
	{ NOTE_DS3, 70 }, 
	{ NOTE_GS3, 70 }, 
	{ NOTE_FS3, 70 }, 
	{ NOTE_F3, 70 }, 
	{ NOTE_DS3, 70 }, 
	{ NOTE_A3, 70 }, 
	{ NOTE_GS3, 70 }, 
	{ NOTE_FS3, 70 }, 
	{ NOTE_DS3, 71 }, 
	{ NOTE_GS3, 70 }, 
	{ NOTE_FS3, 70 }, 
	{ NOTE_F3, 70 }, 
	{ NOTE_DS3, 70 }, 
	{ NOTE_A3, 70 }, 
	{ NOTE_GS3, 70 }, 
	{ NOTE_FS3, 70 }, 
	{ NOTE_DS3, 70 }, 
	{ NOTE_GS3, 70 }, 
	{ NOTE_FS3, 70 }, 
	{ NOTE_F3, 70 }, 
	{ NOTE_DS3, 70 }, 
	{ NOTE_A3, 70 }, 
	{ NOTE_GS3, 70 }, 
	{ NOTE_FS3, 70 }, 
	{ NOTE_DS3, 71 }, 
	{ NOTE_GS3, 70 }, 
	{ NOTE_FS3, 70 }, 
	{ NOTE_F3, 70 }, 
	{ NOTE_DS3, 70 }, 
	{ NOTE_A3, 70 }, 
	{ NOTE_GS3, 70 }, 
	{ NOTE_FS3, 70 }, 
	{ NOTE_DS3, 70 }, 
	{ NOTE_GS3, 70 }, 
	{ NOTE_FS3, 70 }, 
	{ NOTE_F3, 70 }, 
	{ NOTE_DS3, 70 }, 
	{ NOTE_E4, 281 }, 
	{ NOTE_GS3, 70 }, 
	{ NOTE_FS3, 70 }, 
	{ NOTE_F3, 70 }, 
	{ NOTE_DS3, 70 }, 
	{ NOTE_A3, 70 }, 
	{ NOTE_GS3, 70 }, 
	{ NOTE_FS3, 70 }, 
	{ NOTE_DS3, 70 }, 
	{ NOTE_GS3, 70 }, 
	{ NOTE_FS3, 70 }, 
	{ NOTE_F3, 70 }, 
	{ NOTE_DS3, 70 }, 
	{ NOTE_A3, 70 }, 
	{ NOTE_GS3, 70 }, 
	{ NOTE_FS3, 70 }, 
	{ NOTE_DS3, 71 }, 
	{ NOTE_GS3, 70 }, 
	{ NOTE_FS3, 70 }, 
	{ NOTE_F3, 70 }, 
	{ NOTE_DS3, 70 }, 
	{ NOTE_A3, 70 }, 
	{ NOTE_GS3, 70 }, 
	{ NOTE_FS3, 70 }, 
	{ NOTE_DS3, 70 }, 
	{ NOTE_CS4, 280 }, 
	{ NOTE_E4, 281 }, 
	{ NOTE_DS3, 140 }, 
	{ NOTE_DS3, 70 }, 
	{ NOTE_DS3, 70 }, 
	{ NOTE_DS3, 140 }, 
	{ NOTE_DS3, 140 }, 
	{ NOTE_FS4, 140 }, 
	{ NOTE_AS4, 140 }, 
	{ NOTE_A4, 281 }, 
	{ NOTE_DS3, 140 }, 
	{ NOTE_DS3, 70 }, 
	{ NOTE_DS3, 70 }, 
	{ NOTE_DS3, 140 }, 
	{ NOTE_DS3, 140 }, 
	{ NOTE_F4, 140 }, 
	{ NOTE_F4, 140 }, 
	{ NOTE_GS4, 281 }, 
	{ NOTE_DS3, 140 }, 
	{ NOTE_DS3, 70 }, 
	{ NOTE_DS3, 70 }, 
	{ NOTE_DS3, 140 }, 
	{ NOTE_DS3, 140 }, 
	{ NOTE_FS4, 140 }, 
	{ NOTE_AS4, 140 }, 
	{ NOTE_A4, 281 }, 
	{ NOTE_DS3, 140 }, 
	{ NOTE_DS3, 70 }, 
	{ NOTE_DS3, 70 }, 
	{ NOTE_DS3, 140 }, 
	{ NOTE_DS3, 140 }, 
	{ NOTE_F4, 140 }, 
	{ NOTE_F4, 140 }, 
	{ NOTE_GS4, 281 }, 
	{ NOTE_DS3, 140 }, 
	{ NOTE_DS3, 70 }, 
	{ NOTE_DS3, 70 }, 
	{ NOTE_DS3, 140 }, 
	{ NOTE_DS3, 140 }, 
	{ NOTE_FS4, 140 }, 
	{ NOTE_AS4, 140 }, 
	{ NOTE_A4, 281 }, 
	{ NOTE_DS3, 140 }, 
	{ NOTE_DS3, 70 }, 
	{ NOTE_DS3, 70 }, 
	{ NOTE_DS3, 140 }, 
	{ NOTE_DS3, 140 }, 
	{ NOTE_F4, 140 }, 
	{ NOTE_F4, 140 }, 
	{ NOTE_GS4, 281 }, 
	{ NOTE_DS3, 140 }, 
	{ NOTE_DS3, 70 }, 
	{ NOTE_DS3, 70 }, 
	{ NOTE_DS3, 140 }, 
	{ NOTE_DS3, 140 }, 
	{ NOTE_FS4, 140 }, 
	{ NOTE_AS4, 140 }, 
	{ NOTE_A4, 281 }, 
	{ NOTE_DS3, 140 }, 
	{ NOTE_DS3, 70 }, 
	{ NOTE_DS3, 70 }, 
	{ NOTE_DS3, 140 }, 
	{ NOTE_DS3, 140 }, 
	{ NOTE_F4, 140 }, 
	{ NOTE_F4, 140 }, 
	{ NOTE_GS4, 281 }, 
	{ NOTE_DS3, 140 }, 
	{ NOTE_DS3, 70 }, 
	{ NOTE_DS3, 70 }, 
	{ NOTE_DS3, 140 }, 
	{ NOTE_DS3, 140 }, 
	{ NOTE_FS4, 140 }, 
	{ NOTE_AS4, 140 }, 
	{ NOTE_A4, 281 }, 
	{ NOTE_DS3, 140 }, 
	{ NOTE_DS3, 70 }, 
	{ NOTE_DS3, 70 }, 
	{ NOTE_DS3, 140 }, 
	{ NOTE_DS3, 140 }, 
	{ NOTE_F4, 140 }, 
	{ NOTE_F4, 140 }, 
	{ NOTE_GS4, 281 }, 
	{ NOTE_DS3, 140 }, 
	{ NOTE_DS3, 70 }, 
	{ NOTE_DS3, 70 }, 
	{ NOTE_DS3, 140 }, 
	{ NOTE_DS3, 140 }, 
	{ NOTE_FS4, 140 }, 
	{ NOTE_AS4, 140 }, 
	{ NOTE_A4, 281 }, 
	{ NOTE_DS3, 140 }, 
	{ NOTE_DS3, 70 }, 
	{ NOTE_DS3, 70 }, 
	{ NOTE_DS3, 140 }, 
	{ NOTE_DS3, 140 }, 
	{ NOTE_F4, 140 }, 
	{ NOTE_F4, 140 }, 
	{ NOTE_GS4, 281 }, 
	{ NOTE_DS3, 140 }, 
	{ NOTE_DS3, 70 }, 
	{ NOTE_DS3, 70 }, 
	{ NOTE_DS3, 140 }, 
	{ NOTE_DS3, 140 }, 
	{ NOTE_FS4, 140 }, 
	{ NOTE_AS4, 140 }, 
	{ NOTE_A4, 281 }, 
	{ NOTE_DS3, 140 }, 
	{ NOTE_DS3, 70 }, 
	{ NOTE_DS3, 70 }, 
	{ NOTE_DS3, 140 }, 
	{ NOTE_DS3, 140 }, 
	{ NOTE_F4, 140 }, 
	{ NOTE_F4, 140 }, 
	{ NOTE_GS4, 281 }, 
	{ NOTE_DS3, 140 }, 
	{ NOTE_DS3, 70 }, 
	{ NOTE_DS3, 70 }, 
	{ NOTE_DS3, 140 }, 
	{ NOTE_DS3, 140 }, 
	{ NOTE_FS4, 140 }, 
	{ NOTE_AS4, 140 }, 
	{ NOTE_A4, 281 }, 
	{ NOTE_DS3, 140 }, 
	{ NOTE_DS3, 70 }, 
	{ NOTE_DS3, 70 }, 
	{ NOTE_DS3, 140 }, 
	{ NOTE_DS3, 140 }, 
	{ NOTE_F4, 140 }, 
	{ NOTE_F4, 140 }, 
	{ NOTE_GS4, 281 }, 
	{ NOTE_DS3, 160 }, 
	{ NOTE_DS3, 160 }, 
	{ NOTE_DS3, 160 }, 
	{ NOTE_DS3, 160 }, 
	{ NOTE_DS4, 80 }, 
	{ NOTE_FS4, 80 }, 
	{ NOTE_E4, 80 }, 
	{ NOTE_DS4, 80 }, 
	{ NOTE_E4, 317 }, 
	{ NOTE_DS3, 160 }, 
	{ NOTE_DS3, 160 }, 
	{ NOTE_DS3, 160 }, 
	{ NOTE_DS4, 160 }, 
	{ NOTE_FS4, 160 }, 
	{ NOTE_A4, 160 }, 
	{ NOTE_GS4, 317 }, 
	{ NOTE_A4, 160 }, 
	{ NOTE_A4, 160 }, 
	{ NOTE_A4, 160 }, 
	{ NOTE_A4, 160 }, 
	{ NOTE_A4, 160 }, 
	{ NOTE_A4, 160 }, 
	{ NOTE_A4, 160 }, 
	{ NOTE_A4, 157 }, 
	{ NOTE_A4, 160 }, 
	{ NOTE_A4, 160 }, 
	{ NOTE_A4, 160 }, 
	{ NOTE_A4, 160 }, 
	{ NOTE_DS4, 319 }, 
	{ NOTE_DS4, 318 }, 
	{ NOTE_DS3, 160 }, 
	{ NOTE_DS3, 160 }, 
	{ NOTE_DS3, 160 }, 
	{ NOTE_DS3, 160 }, 
	{ NOTE_DS4, 80 }, 
	{ NOTE_FS4, 80 }, 
	{ NOTE_E4, 80 }, 
	{ NOTE_DS4, 80 }, 
	{ NOTE_E4, 317 }, 
	{ NOTE_DS3, 160 }, 
	{ NOTE_DS3, 160 }, 
	{ NOTE_DS3, 160 }, 
	{ NOTE_DS4, 160 }, 
	{ NOTE_FS4, 160 }, 
	{ NOTE_A4, 160 }, 
	{ NOTE_GS4, 317 }, 
	{ NOTE_A4, 160 }, 
	{ NOTE_A4, 160 }, 
	{ NOTE_A4, 160 }, 
	{ NOTE_A4, 160 }, 
	{ NOTE_A4, 160 }, 
	{ NOTE_A4, 160 }, 
	{ NOTE_A4, 160 }, 
	{ NOTE_A4, 157 }, 
	{ NOTE_A4, 160 }, 
	{ NOTE_A4, 160 }, 
	{ NOTE_A4, 160 }, 
	{ NOTE_A4, 160 }, 
	{ NOTE_DS4, 319 }, 
	{ NOTE_DS4, 318 }, 
	{ NOTE_DS3, 160 }, 
	{ NOTE_DS3, 160 }, 
	{ NOTE_DS3, 160 }, 
	{ NOTE_DS3, 160 }, 
	{ NOTE_DS4, 80 }, 
	{ NOTE_FS4, 80 }, 
	{ NOTE_E4, 80 }, 
	{ NOTE_DS4, 80 }, 
	{ NOTE_E4, 317 }, 
	{ NOTE_DS3, 160 }, 
	{ NOTE_DS3, 160 }, 
	{ NOTE_DS3, 160 }, 
	{ NOTE_DS4, 160 }, 
	{ NOTE_FS4, 160 }, 
	{ NOTE_A4, 160 }, 
	{ NOTE_GS4, 317 }, 
	{ NOTE_A4, 160 }, 
	{ NOTE_A4, 160 }, 
	{ NOTE_A4, 160 }, 
	{ NOTE_A4, 160 }, 
	{ NOTE_A4, 160 }, 
	{ NOTE_A4, 160 }, 
	{ NOTE_A4, 160 }, 
	{ NOTE_A4, 157 }, 
	{ NOTE_A4, 160 }, 
	{ NOTE_A4, 160 }, 
	{ NOTE_A4, 160 }, 
	{ NOTE_A4, 160 }, 
	{ NOTE_DS4, 319 }, 
	{ NOTE_DS4, 318 }, 
	{ NOTE_DS3, 169 }, 
	{ NOTE_DS3, 169 }, 
	{ NOTE_DS3, 169 }, 
	{ NOTE_DS4, 169 }, 
	{ NOTE_A4, 169 }, 
	{ NOTE_AS4, 169 }, 
	{ NOTE_A4, 334 }, 
	{ NOTE_F4, 169 }, 
	{ NOTE_A4, 169 }, 
	{ NOTE_GS4, 337 }, 
	{ NOTE_E4, 169 }, 
	{ NOTE_GS4, 169 }, 
	{ NOTE_G4, 335 }, 
	{ NOTE_DS3, 169 }, 
	{ NOTE_DS3, 169 }, 
	{ NOTE_DS3, 169 }, 
	{ NOTE_DS4, 169 }, 
	{ NOTE_A4, 169 }, 
	{ NOTE_AS4, 169 }, 
	{ NOTE_A4, 334 }, 
	{ NOTE_F4, 169 }, 
	{ NOTE_A4, 169 }, 
	{ NOTE_GS4, 337 }, 
	{ NOTE_E4, 169 }, 
	{ NOTE_GS4, 169 }, 
	{ NOTE_G4, 335 }, 
	{ NOTE_DS3, 169 }, 
	{ NOTE_DS3, 169 }, 
	{ NOTE_DS3, 169 }, 
	{ NOTE_DS4, 169 }, 
	{ NOTE_A4, 169 }, 
	{ NOTE_AS4, 169 }, 
	{ NOTE_A4, 334 }, 
	{ NOTE_F4, 169 }, 
	{ NOTE_A4, 169 }, 
	{ NOTE_GS4, 337 }, 
	{ NOTE_E4, 169 }, 
	{ NOTE_GS4, 169 }, 
	{ NOTE_G4, 335 }, 
	{ NOTE_DS3, 169 }, 
	{ NOTE_DS3, 169 }, 
	{ NOTE_DS3, 169 }, 
	{ NOTE_DS4, 169 }, 
	{ NOTE_A4, 169 }, 
	{ NOTE_AS4, 169 }, 
	{ NOTE_A4, 334 }, 
	{ NOTE_F4, 169 }, 
	{ NOTE_A4, 169 }, 
	{ NOTE_GS4, 337 }, 
	{ NOTE_E4, 169 }, 
	{ NOTE_GS4, 169 }, 
	{ NOTE_G4, 335 }, 
	{ NOTE_AS3, 169 }, 
	{ NOTE_AS3, 169 }, 
	{ NOTE_REST, 337 }, 
	{ NOTE_AS3, 169 }, 
	{ NOTE_AS3, 169 }, 
	{ NOTE_REST, 335 }, 
	{ NOTE_AS3, 169 }, 
	{ NOTE_AS3, 169 }, 
	{ NOTE_REST, 337 }, 
	{ NOTE_AS3, 169 }, 
	{ NOTE_AS3, 169 }, 
	{ NOTE_REST, 335 }, 
	{ NOTE_AS3, 169 }, 
	{ NOTE_AS3, 169 }, 
	{ NOTE_REST, 337 }, 
	{ NOTE_AS3, 169 }, 
	{ NOTE_AS3, 169 }, 
	{ NOTE_REST, 335 }, 
	{ NOTE_AS3, 169 }, 
	{ NOTE_AS3, 169 }, 
	{ NOTE_REST, 337 }, 
	{ NOTE_AS3, 169 }, 
	{ NOTE_AS3, 169 }, 
	{ NOTE_REST, 335 }, 
	{ NOTE_AS3, 169 }, 
	{ NOTE_AS3, 169 }, 
	{ NOTE_REST, 337 }, 
	{ NOTE_AS3, 169 }, 
	{ NOTE_AS3, 169 }, 
	{ NOTE_REST, 335 }, 
	{ NOTE_AS3, 169 }, 
	{ NOTE_AS3, 169 }, 
	{ NOTE_REST, 337 }, 
	{ NOTE_AS3, 169 }, 
	{ NOTE_AS3, 169 }, 
	{ NOTE_REST, 335 }, 
	{ NOTE_AS3, 169 }, 
	{ NOTE_AS3, 169 }, 
	{ NOTE_REST, 337 }, 
	{ NOTE_AS3, 169 }, 
	{ NOTE_AS3, 169 }, 
	{ NOTE_REST, 335 }, 
	{ NOTE_AS3, 169 }, 
	{ NOTE_AS3, 169 }, 
	{ NOTE_REST, 337 }, 
	{ NOTE_AS3, 169 }, 
	{ NOTE_AS3, 169 }, 
	{ NOTE_REST, 335 }, 
	{ NOTE_AS3, 169 }, 
	{ NOTE_AS3, 169 }, 
	{ NOTE_REST, 337 }, 
	{ NOTE_AS3, 169 }, 
	{ NOTE_AS3, 169 }, 
	{ NOTE_REST, 335 }, 
	{ NOTE_AS3, 169 }, 
	{ NOTE_AS3, 169 }, 
	{ NOTE_REST, 337 }, 
	{ NOTE_AS3, 169 }, 
	{ NOTE_AS3, 169 }, 
	{ NOTE_REST, 335 }, 
	{ NOTE_AS3, 169 }, 
	{ NOTE_AS3, 169 }, 
	{ NOTE_REST, 337 }, 
	{ NOTE_AS3, 169 }, 
	{ NOTE_AS3, 169 }, 
	{ NOTE_REST, 335 }, 
	{ NOTE_AS3, 169 }, 
	{ NOTE_AS3, 169 }, 
	{ NOTE_REST, 337 }, 
	{ NOTE_AS3, 169 }, 
	{ NOTE_AS3, 169 }, 
	{ NOTE_REST, 335 }, 
	{ NOTE_AS3, 169 }, 
	{ NOTE_AS3, 169 }, 
	{ NOTE_REST, 337 }, 
	{ NOTE_AS3, 169 }, 
	{ NOTE_AS3, 169 }, 
	{ NOTE_REST, 335 }, 
	{ NOTE_AS3, 169 }, 
	{ NOTE_AS3, 169 }, 
	{ NOTE_REST, 337 }, 
	{ NOTE_AS3, 169 }, 
	{ NOTE_AS3, 169 }, 
	{ NOTE_REST, 335 }, 
	{ NOTE_DS3, 169 }, 
	{ NOTE_DS3, 169 }, 
	{ NOTE_CS4, 169 }, 
	{ NOTE_F4, 169 }, 
	{ NOTE_DS3, 169 }, 
	{ NOTE_DS3, 169 }, 
	{ NOTE_CS4, 169 }, 
	{ NOTE_E4, 165 }, 
	{ NOTE_DS3, 169 }, 
	{ NOTE_DS3, 169 }, 
	{ NOTE_CS4, 169 }, 
	{ NOTE_DS4, 169 }, 
	{ NOTE_DS3, 169 }, 
	{ NOTE_DS3, 169 }, 
	{ NOTE_CS4, 169 }, 
	{ NOTE_C4, 165 }, 
	{ NOTE_DS3, 169 }, 
	{ NOTE_DS3, 169 }, 
	{ NOTE_CS4, 169 }, 
	{ NOTE_F4, 169 }, 
	{ NOTE_DS3, 169 }, 
	{ NOTE_DS3, 169 }, 
	{ NOTE_CS4, 169 }, 
	{ NOTE_E4, 165 }, 
	{ NOTE_DS3, 169 }, 
	{ NOTE_DS3, 169 }, 
	{ NOTE_CS4, 169 }, 
	{ NOTE_DS4, 169 }, 
	{ NOTE_DS3, 169 }, 
	{ NOTE_DS3, 169 }, 
	{ NOTE_CS4, 169 }, 
	{ NOTE_C4, 165 }, 
	{ NOTE_DS3, 169 }, 
	{ NOTE_DS3, 169 }, 
	{ NOTE_CS4, 169 }, 
	{ NOTE_F4, 169 }, 
	{ NOTE_DS3, 169 }, 
	{ NOTE_DS3, 169 }, 
	{ NOTE_CS4, 169 }, 
	{ NOTE_E4, 165 }, 
	{ NOTE_DS3, 169 }, 
	{ NOTE_DS3, 169 }, 
	{ NOTE_CS4, 169 }, 
	{ NOTE_DS4, 169 }, 
	{ NOTE_DS3, 169 }, 
	{ NOTE_DS3, 169 }, 
	{ NOTE_CS4, 169 }, 
	{ NOTE_C4, 165 }, 
	{ NOTE_DS3, 169 }, 
	{ NOTE_DS3, 169 }, 
	{ NOTE_CS4, 169 }, 
	{ NOTE_F4, 169 }, 
	{ NOTE_DS3, 169 }, 
	{ NOTE_DS3, 169 }, 
	{ NOTE_CS4, 169 }, 
	{ NOTE_E4, 165 }, 
	{ NOTE_DS3, 169 }, 
	{ NOTE_DS3, 169 }, 
	{ NOTE_CS4, 169 }, 
	{ NOTE_DS4, 169 }, 
	{ NOTE_DS3, 169 }, 
	{ NOTE_DS3, 169 }, 
	{ NOTE_CS4, 169 }, 
	{ NOTE_C4, 165 }, 
	{ NOTE_DS3, 84 }, 
	{ NOTE_DS3, 84 }, 
	{ NOTE_DS3, 84 }, 
	{ NOTE_DS3, 84 }, 
	{ NOTE_DS3, 84 }, 
	{ NOTE_DS3, 84 }, 
	{ NOTE_DS3, 84 }, 
	{ NOTE_DS3, 84 }, 
	{ NOTE_DS3, 84 }, 
	{ NOTE_DS3, 84 }, 
	{ NOTE_DS3, 84 }, 
	{ NOTE_DS3, 84 }, 
	{ NOTE_DS3, 84 }, 
	{ NOTE_DS3, 84 }, 
	{ NOTE_DS3, 84 }, 
	{ NOTE_DS3, 88 }, 
	{ NOTE_DS3, 84 }, 
	{ NOTE_DS3, 84 }, 
	{ NOTE_DS3, 84 }, 
	{ NOTE_DS3, 84 }, 
	{ NOTE_DS3, 84 }, 
	{ NOTE_DS3, 84 }, 
	{ NOTE_DS3, 84 }, 
	{ NOTE_DS3, 84 }, 
	{ NOTE_DS3, 84 }, 
	{ NOTE_DS3, 84 }, 
	{ NOTE_DS3, 84 }, 
	{ NOTE_DS3, 84 }, 
	{ NOTE_DS3, 84 }, 
	{ NOTE_DS3, 84 }, 
	{ NOTE_DS3, 84 }, 
	{ NOTE_DS3, 88 }, 
	{ NOTE_DS3, 84 }, 
	{ NOTE_DS3, 84 }, 
	{ NOTE_DS3, 84 }, 
	{ NOTE_DS3, 84 }, 
	{ NOTE_DS3, 84 }, 
	{ NOTE_DS3, 84 }, 
	{ NOTE_DS3, 84 }, 
	{ NOTE_DS3, 86 }, 
	{ NOTE_DS3, 84 }, 
	{ NOTE_DS3, 84 }, 
	{ NOTE_DS3, 84 }, 
	{ NOTE_DS3, 84 }, 
	{ NOTE_DS3, 84 }, 
	{ NOTE_DS3, 84 }, 
	{ NOTE_DS3, 84 }, 
	{ NOTE_DS3, 84 }, 
	{ NOTE_DS3, 84 }, 
	{ NOTE_DS3, 84 }, 
	{ NOTE_DS3, 84 }, 
	{ NOTE_DS3, 84 }, 
	{ NOTE_DS3, 84 }, 
	{ NOTE_DS3, 84 }, 
	{ NOTE_DS3, 84 }, 
	{ NOTE_DS3, 88 }, 
	{ NOTE_DS3, 121 }, 
	{ NOTE_DS3, 121 }, 
	{ NOTE_DS3, 121 }, 
	{ NOTE_DS3, 121 }, 
	{ NOTE_E3, 121 }, 
	{ NOTE_E3, 121 }, 
	{ NOTE_AS3, 121 }, 
	{ NOTE_AS3, 125 }, 
	{ NOTE_A3, 121 }, 
	{ NOTE_A3, 121 }, 
	{ NOTE_A3, 121 }, 
	{ NOTE_FS3, 121 }, 
	{ NOTE_FS3, 121 }, 
	{ NOTE_FS3, 121 }, 
	{ NOTE_FS3, 121 }, 
	{ NOTE_FS3, 125 }, 
	{ NOTE_G3, 121 }, 
	{ NOTE_G3, 121 }, 
	{ NOTE_G3, 121 }, 
	{ NOTE_G3, 121 }, 
	{ NOTE_G3, 121 }, 
	{ NOTE_G3, 121 }, 
	{ NOTE_B3, 121 }, 
	{ NOTE_B3, 125 }, 
	{ NOTE_AS3, 121 }, 
	{ NOTE_AS3, 121 }, 
	{ NOTE_AS3, 121 }, 
	{ NOTE_AS3, 121 }, 
	{ NOTE_AS3, 121 }, 
	{ NOTE_AS3, 121 }, 
	{ NOTE_B3, 121 }, 
	{ NOTE_B3, 125 }, 
	{ NOTE_DS3, 121 }, 
	{ NOTE_DS3, 121 }, 
	{ NOTE_DS3, 121 }, 
	{ NOTE_DS3, 121 }, 
	{ NOTE_E3, 121 }, 
	{ NOTE_E3, 121 }, 
	{ NOTE_AS3, 121 }, 
	{ NOTE_AS3, 125 }, 
	{ NOTE_A3, 121 }, 
	{ NOTE_A3, 121 }, 
	{ NOTE_A3, 121 }, 
	{ NOTE_FS3, 121 }, 
	{ NOTE_FS3, 121 }, 
	{ NOTE_FS3, 121 }, 
	{ NOTE_FS3, 121 }, 
	{ NOTE_FS3, 125 }, 
	{ NOTE_DS3, 121 }, 
	{ NOTE_DS3, 121 }, 
	{ NOTE_DS3, 121 }, 
	{ NOTE_DS3, 121 }, 
	{ NOTE_DS3, 121 }, 
	{ NOTE_DS3, 121 }, 
	{ NOTE_DS3, 121 }, 
	{ NOTE_DS3, 125 }, 
	{ NOTE_DS3, 121 }, 
	{ NOTE_DS3, 121 }, 
	{ NOTE_DS3, 121 }, 
	{ NOTE_DS3, 121 }, 
	{ NOTE_DS3, 121 }, 
	{ NOTE_DS3, 121 }, 
	{ NOTE_DS3, 121 }, 
	{ NOTE_DS3, 125 }, 
	{ NOTE_DS3, 121 }, 
	{ NOTE_DS3, 121 }, 
	{ NOTE_DS3, 121 }, 
	{ NOTE_DS3, 121 }, 
	{ NOTE_DS3, 121 }, 
	{ NOTE_DS3, 121 }, 
	{ NOTE_DS3, 121 }, 
	{ NOTE_DS3, 125 }, 
	{ NOTE_DS3, 121 }, 
	{ NOTE_DS3, 121 }, 
	{ NOTE_DS3, 121 }, 
	{ NOTE_DS3, 121 }, 
	{ NOTE_DS3, 121 }, 
	{ NOTE_REST, 121 }, 
	{ NOTE_REST, 246 }, 
};
const uint16_t NUM_OF_NOTES1 = sizeof(melody1)/sizeof(melody1[0]);

const Note melody2[] PROGMEM = {
	{ NOTE_DS3, 169 }, 
	{ NOTE_DS3, 169 }, 
	{ NOTE_DS3, 169 }, 
	{ NOTE_DS4, 169 }, 
	{ NOTE_A4, 169 }, 
	{ NOTE_AS4, 169 }, 
	{ NOTE_A4, 334 }, 
	{ NOTE_F4, 169 }, 
	{ NOTE_A4, 169 }, 
	{ NOTE_GS4, 337 }, 
	{ NOTE_E4, 169 }, 
	{ NOTE_GS4, 169 }, 
	{ NOTE_G4, 335 }, 
	{ NOTE_DS3, 169 }, 
	{ NOTE_DS3, 169 }, 
	{ NOTE_DS3, 169 }, 
	{ NOTE_DS4, 169 }, 
	{ NOTE_A4, 169 }, 
	{ NOTE_AS4, 169 }, 
	{ NOTE_A4, 334 }, 
	{ NOTE_F4, 169 }, 
	{ NOTE_A4, 169 }, 
	{ NOTE_GS4, 337 }, 
	{ NOTE_E4, 169 }, 
	{ NOTE_GS4, 169 }, 
	{ NOTE_G4, 335 }, 
	{ NOTE_DS3, 169 }, 
	{ NOTE_DS3, 169 }, 
	{ NOTE_DS3, 169 }, 
	{ NOTE_DS4, 169 }, 
	{ NOTE_A4, 169 }, 
	{ NOTE_AS4, 169 }, 
	{ NOTE_A4, 334 }, 
	{ NOTE_F4, 169 }, 
	{ NOTE_A4, 169 }, 
	{ NOTE_GS4, 337 }, 
	{ NOTE_E4, 169 }, 
	{ NOTE_GS4, 169 }, 
	{ NOTE_G4, 335 }, 
	{ NOTE_DS3, 169 }, 
	{ NOTE_DS3, 169 }, 
	{ NOTE_DS3, 169 }, 
	{ NOTE_DS4, 169 }, 
	{ NOTE_A4, 169 }, 
	{ NOTE_AS4, 169 }, 
	{ NOTE_A4, 334 }, 
	{ NOTE_F4, 169 }, 
	{ NOTE_A4, 169 }, 
	{ NOTE_GS4, 337 }, 
	{ NOTE_E4, 169 }, 
	{ NOTE_GS4, 169 }, 
	{ NOTE_G4, 335 }, 
	{ NOTE_DS3, 84 }, 
	{ NOTE_DS3, 84 }, 
	{ NOTE_DS3, 169 }, 
	{ NOTE_DS3, 84 }, 
	{ NOTE_DS3, 84 }, 
	{ NOTE_DS3, 169 }, 
	{ NOTE_DS3, 84 }, 
	{ NOTE_DS3, 84 }, 
	{ NOTE_DS3, 169 }, 
	{ NOTE_DS3, 84 }, 
	{ NOTE_DS3, 84 }, 
	{ NOTE_DS3, 169 }, 
	{ NOTE_DS3, 84 }, 
	{ NOTE_DS3, 84 }, 
	{ NOTE_DS3, 169 }, 
	{ NOTE_DS3, 84 }, 
	{ NOTE_DS3, 84 }, 
	{ NOTE_DS3, 169 }, 
	{ NOTE_DS3, 84 }, 
	{ NOTE_DS3, 84 }, 
	{ NOTE_DS3, 169 }, 
	{ NOTE_DS3, 84 }, 
	{ NOTE_DS3, 84 }, 
	{ NOTE_DS3, 169 }, 
	{ NOTE_DS3, 84 }, 
	{ NOTE_DS3, 84 }, 
	{ NOTE_DS3, 169 }, 
	{ NOTE_DS3, 84 }, 
	{ NOTE_DS3, 84 }, 
	{ NOTE_DS3, 169 }, 
	{ NOTE_DS3, 84 }, 
	{ NOTE_DS3, 84 }, 
	{ NOTE_DS3, 169 }, 
	{ NOTE_DS3, 84 }, 
	{ NOTE_DS3, 84 }, 
	{ NOTE_DS3, 169 }, 
	{ NOTE_DS3, 169 }, 
	{ NOTE_F3, 169 }, 
	{ NOTE_G3, 169 }, 
	{ NOTE_C4, 169 }, 
	{ NOTE_E4, 169 }, 
	{ NOTE_DS4, 169 }, 
	{ NOTE_B3, 169 }, 
	{ NOTE_AS3, 165 }, 
	{ NOTE_DS3, 84 }, 
	{ NOTE_DS3, 84 }, 
	{ NOTE_DS3, 169 }, 
	{ NOTE_DS3, 84 }, 
	{ NOTE_DS3, 84 }, 
	{ NOTE_DS3, 169 }, 
	{ NOTE_DS3, 84 }, 
	{ NOTE_DS3, 84 }, 
	{ NOTE_DS3, 169 }, 
	{ NOTE_DS3, 84 }, 
	{ NOTE_DS3, 84 }, 
	{ NOTE_DS3, 169 }, 
	{ NOTE_DS3, 84 }, 
	{ NOTE_DS3, 84 }, 
	{ NOTE_DS3, 169 }, 
	{ NOTE_DS3, 84 }, 
	{ NOTE_DS3, 84 }, 
	{ NOTE_DS3, 169 }, 
	{ NOTE_DS3, 84 }, 
	{ NOTE_DS3, 84 }, 
	{ NOTE_DS3, 169 }, 
	{ NOTE_DS3, 84 }, 
	{ NOTE_DS3, 84 }, 
	{ NOTE_DS3, 169 }, 
	{ NOTE_DS3, 84 }, 
	{ NOTE_DS3, 84 }, 
	{ NOTE_DS3, 169 }, 
	{ NOTE_DS3, 84 }, 
	{ NOTE_DS3, 84 }, 
	{ NOTE_DS3, 169 }, 
	{ NOTE_DS3, 84 }, 
	{ NOTE_DS3, 84 }, 
	{ NOTE_DS3, 169 }, 
	{ NOTE_DS3, 84 }, 
	{ NOTE_DS3, 84 }, 
	{ NOTE_DS3, 169 }, 
	{ NOTE_DS3, 169 }, 
	{ NOTE_F3, 169 }, 
	{ NOTE_G3, 169 }, 
	{ NOTE_C4, 169 }, 
	{ NOTE_E4, 169 }, 
	{ NOTE_DS4, 169 }, 
	{ NOTE_B3, 169 }, 
	{ NOTE_AS3, 165 }, 
	{ NOTE_DS3, 84 }, 
	{ NOTE_DS3, 84 }, 
	{ NOTE_DS3, 169 }, 
	{ NOTE_DS3, 84 }, 
	{ NOTE_DS3, 84 }, 
	{ NOTE_DS3, 169 }, 
	{ NOTE_DS3, 84 }, 
	{ NOTE_DS3, 84 }, 
	{ NOTE_DS3, 169 }, 
	{ NOTE_DS3, 84 }, 
	{ NOTE_DS3, 84 }, 
	{ NOTE_DS3, 169 }, 
	{ NOTE_DS3, 84 }, 
	{ NOTE_DS3, 84 }, 
	{ NOTE_DS3, 169 }, 
	{ NOTE_DS3, 84 }, 
	{ NOTE_DS3, 84 }, 
	{ NOTE_DS3, 169 }, 
	{ NOTE_DS3, 84 }, 
	{ NOTE_DS3, 84 }, 
	{ NOTE_DS3, 169 }, 
	{ NOTE_DS3, 84 }, 
	{ NOTE_DS3, 84 }, 
	{ NOTE_DS3, 169 }, 
	{ NOTE_DS3, 84 }, 
	{ NOTE_DS3, 84 }, 
	{ NOTE_DS3, 169 }, 
	{ NOTE_DS3, 84 }, 
	{ NOTE_DS3, 84 }, 
	{ NOTE_DS3, 169 }, 
	{ NOTE_DS3, 84 }, 
	{ NOTE_DS3, 84 }, 
	{ NOTE_DS3, 169 }, 
	{ NOTE_DS3, 84 }, 
	{ NOTE_DS3, 84 }, 
	{ NOTE_DS3, 169 }, 
	{ NOTE_DS3, 169 }, 
	{ NOTE_F3, 169 }, 
	{ NOTE_G3, 169 }, 
	{ NOTE_C4, 169 }, 
	{ NOTE_E4, 169 }, 
	{ NOTE_DS4, 169 }, 
	{ NOTE_B3, 169 }, 
	{ NOTE_AS3, 165 }, 
	{ NOTE_DS3, 84 }, 
	{ NOTE_DS3, 84 }, 
	{ NOTE_DS3, 169 }, 
	{ NOTE_DS3, 84 }, 
	{ NOTE_DS3, 84 }, 
	{ NOTE_DS3, 169 }, 
	{ NOTE_DS3, 84 }, 
	{ NOTE_DS3, 84 }, 
	{ NOTE_DS3, 169 }, 
	{ NOTE_DS3, 84 }, 
	{ NOTE_DS3, 84 }, 
	{ NOTE_DS3, 169 }, 
	{ NOTE_DS3, 84 }, 
	{ NOTE_DS3, 84 }, 
	{ NOTE_DS3, 169 }, 
	{ NOTE_DS3, 84 }, 
	{ NOTE_DS3, 84 }, 
	{ NOTE_DS3, 169 }, 
	{ NOTE_DS3, 84 }, 
	{ NOTE_DS3, 84 }, 
	{ NOTE_DS3, 169 }, 
	{ NOTE_DS3, 84 }, 
	{ NOTE_DS3, 84 }, 
	{ NOTE_DS3, 169 }, 
	{ NOTE_DS3, 84 }, 
	{ NOTE_DS3, 84 }, 
	{ NOTE_DS3, 169 }, 
	{ NOTE_DS3, 84 }, 
	{ NOTE_DS3, 84 }, 
	{ NOTE_DS3, 169 }, 
	{ NOTE_DS3, 84 }, 
	{ NOTE_DS3, 84 }, 
	{ NOTE_DS3, 169 }, 
	{ NOTE_DS3, 84 }, 
	{ NOTE_DS3, 84 }, 
	{ NOTE_DS3, 169 }, 
	{ NOTE_DS3, 169 }, 
	{ NOTE_F3, 169 }, 
	{ NOTE_G3, 169 }, 
	{ NOTE_C4, 169 }, 
	{ NOTE_E4, 169 }, 
	{ NOTE_DS4, 169 }, 
	{ NOTE_B3, 169 }, 
	{ NOTE_AS3, 165 }, 
	{ NOTE_GS3, 70 }, 
	{ NOTE_FS3, 70 }, 
	{ NOTE_F3, 70 }, 
	{ NOTE_DS3, 70 }, 
	{ NOTE_A3, 70 }, 
	{ NOTE_GS3, 70 }, 
	{ NOTE_FS3, 70 }, 
	{ NOTE_DS3, 70 }, 
	{ NOTE_GS3, 70 }, 
	{ NOTE_FS3, 70 }, 
	{ NOTE_F3, 70 }, 
	{ NOTE_DS3, 70 }, 
	{ NOTE_A3, 70 }, 
	{ NOTE_GS3, 70 }, 
	{ NOTE_FS3, 70 }, 
	{ NOTE_DS3, 71 }, 
	{ NOTE_GS3, 70 }, 
	{ NOTE_FS3, 70 }, 
	{ NOTE_F3, 70 }, 
	{ NOTE_DS3, 70 }, 
	{ NOTE_A3, 70 }, 
	{ NOTE_GS3, 70 }, 
	{ NOTE_FS3, 70 }, 
	{ NOTE_DS3, 70 }, 
	{ NOTE_GS3, 70 }, 
	{ NOTE_FS3, 70 }, 
	{ NOTE_F3, 70 }, 
	{ NOTE_DS3, 70 }, 
	{ NOTE_A3, 70 }, 
	{ NOTE_GS3, 70 }, 
	{ NOTE_FS3, 70 }, 
	{ NOTE_DS3, 71 }, 
	{ NOTE_GS3, 70 }, 
	{ NOTE_FS3, 70 }, 
	{ NOTE_F3, 70 }, 
	{ NOTE_DS3, 70 }, 
	{ NOTE_A3, 70 }, 
	{ NOTE_GS3, 70 }, 
	{ NOTE_FS3, 70 }, 
	{ NOTE_DS3, 70 }, 
	{ NOTE_GS3, 70 }, 
	{ NOTE_FS3, 70 }, 
	{ NOTE_F3, 70 }, 
	{ NOTE_DS3, 70 }, 
	{ NOTE_REST, 281 }, 
	{ NOTE_GS3, 70 }, 
	{ NOTE_FS3, 70 }, 
	{ NOTE_F3, 70 }, 
	{ NOTE_DS3, 70 }, 
	{ NOTE_A3, 70 }, 
	{ NOTE_GS3, 70 }, 
	{ NOTE_FS3, 70 }, 
	{ NOTE_DS3, 70 }, 
	{ NOTE_GS3, 70 }, 
	{ NOTE_FS3, 70 }, 
	{ NOTE_F3, 70 }, 
	{ NOTE_DS3, 70 }, 
	{ NOTE_A3, 70 }, 
	{ NOTE_GS3, 70 }, 
	{ NOTE_FS3, 70 }, 
	{ NOTE_DS3, 71 }, 
	{ NOTE_GS3, 70 }, 
	{ NOTE_FS3, 70 }, 
	{ NOTE_F3, 70 }, 
	{ NOTE_DS3, 70 }, 
	{ NOTE_A3, 70 }, 
	{ NOTE_GS3, 70 }, 
	{ NOTE_FS3, 70 }, 
	{ NOTE_DS3, 70 }, 
	{ NOTE_REST, 280 }, 
	{ NOTE_REST, 281 }, 
	{ NOTE_DS3, 140 }, 
	{ NOTE_DS3, 70 }, 
	{ NOTE_DS3, 70 }, 
	{ NOTE_DS3, 140 }, 
	{ NOTE_DS3, 140 }, 
	{ NOTE_REST, 140 }, 
	{ NOTE_REST, 140 }, 
	{ NOTE_REST, 281 }, 
	{ NOTE_DS3, 140 }, 
	{ NOTE_DS3, 70 }, 
	{ NOTE_DS3, 70 }, 
	{ NOTE_DS3, 140 }, 
	{ NOTE_DS3, 140 }, 
	{ NOTE_REST, 140 }, 
	{ NOTE_REST, 140 }, 
	{ NOTE_REST, 281 }, 
	{ NOTE_DS3, 140 }, 
	{ NOTE_DS3, 70 }, 
	{ NOTE_DS3, 70 }, 
	{ NOTE_DS3, 140 }, 
	{ NOTE_DS3, 140 }, 
	{ NOTE_REST, 140 }, 
	{ NOTE_REST, 140 }, 
	{ NOTE_REST, 281 }, 
	{ NOTE_DS3, 140 }, 
	{ NOTE_DS3, 70 }, 
	{ NOTE_DS3, 70 }, 
	{ NOTE_DS3, 140 }, 
	{ NOTE_DS3, 140 }, 
	{ NOTE_REST, 140 }, 
	{ NOTE_REST, 140 }, 
	{ NOTE_REST, 281 }, 
	{ NOTE_DS3, 140 }, 
	{ NOTE_DS3, 70 }, 
	{ NOTE_DS3, 70 }, 
	{ NOTE_DS3, 140 }, 
	{ NOTE_DS3, 140 }, 
	{ NOTE_REST, 140 }, 
	{ NOTE_REST, 140 }, 
	{ NOTE_REST, 281 }, 
	{ NOTE_DS3, 140 }, 
	{ NOTE_DS3, 70 }, 
	{ NOTE_DS3, 70 }, 
	{ NOTE_DS3, 140 }, 
	{ NOTE_DS3, 140 }, 
	{ NOTE_REST, 140 }, 
	{ NOTE_REST, 140 }, 
	{ NOTE_REST, 281 }, 
	{ NOTE_DS3, 140 }, 
	{ NOTE_DS3, 70 }, 
	{ NOTE_DS3, 70 }, 
	{ NOTE_DS3, 140 }, 
	{ NOTE_DS3, 140 }, 
	{ NOTE_REST, 140 }, 
	{ NOTE_REST, 140 }, 
	{ NOTE_REST, 281 }, 
	{ NOTE_DS3, 140 }, 
	{ NOTE_DS3, 70 }, 
	{ NOTE_DS3, 70 }, 
	{ NOTE_DS3, 140 }, 
	{ NOTE_DS3, 140 }, 
	{ NOTE_REST, 140 }, 
	{ NOTE_REST, 140 }, 
	{ NOTE_REST, 281 }, 
	{ NOTE_DS3, 140 }, 
	{ NOTE_DS3, 70 }, 
	{ NOTE_DS3, 70 }, 
	{ NOTE_DS3, 140 }, 
	{ NOTE_DS3, 140 }, 
	{ NOTE_REST, 140 }, 
	{ NOTE_REST, 140 }, 
	{ NOTE_REST, 281 }, 
	{ NOTE_DS3, 140 }, 
	{ NOTE_DS3, 70 }, 
	{ NOTE_DS3, 70 }, 
	{ NOTE_DS3, 140 }, 
	{ NOTE_DS3, 140 }, 
	{ NOTE_REST, 140 }, 
	{ NOTE_REST, 140 }, 
	{ NOTE_REST, 281 }, 
	{ NOTE_DS3, 140 }, 
	{ NOTE_DS3, 70 }, 
	{ NOTE_DS3, 70 }, 
	{ NOTE_DS3, 140 }, 
	{ NOTE_DS3, 140 }, 
	{ NOTE_REST, 140 }, 
	{ NOTE_REST, 140 }, 
	{ NOTE_REST, 281 }, 
	{ NOTE_DS3, 140 }, 
	{ NOTE_DS3, 70 }, 
	{ NOTE_DS3, 70 }, 
	{ NOTE_DS3, 140 }, 
	{ NOTE_DS3, 140 }, 
	{ NOTE_REST, 140 }, 
	{ NOTE_REST, 140 }, 
	{ NOTE_REST, 281 }, 
	{ NOTE_DS3, 140 }, 
	{ NOTE_DS3, 70 }, 
	{ NOTE_DS3, 70 }, 
	{ NOTE_DS3, 140 }, 
	{ NOTE_DS3, 140 }, 
	{ NOTE_REST, 140 }, 
	{ NOTE_REST, 140 }, 
	{ NOTE_REST, 281 }, 
	{ NOTE_DS3, 140 }, 
	{ NOTE_DS3, 70 }, 
	{ NOTE_DS3, 70 }, 
	{ NOTE_DS3, 140 }, 
	{ NOTE_DS3, 140 }, 
	{ NOTE_REST, 140 }, 
	{ NOTE_REST, 140 }, 
	{ NOTE_REST, 281 }, 
	{ NOTE_DS3, 140 }, 
	{ NOTE_DS3, 70 }, 
	{ NOTE_DS3, 70 }, 
	{ NOTE_DS3, 140 }, 
	{ NOTE_DS3, 140 }, 
	{ NOTE_REST, 140 }, 
	{ NOTE_REST, 140 }, 
	{ NOTE_REST, 281 }, 
	{ NOTE_DS3, 140 }, 
	{ NOTE_DS3, 70 }, 
	{ NOTE_DS3, 70 }, 
	{ NOTE_DS3, 140 }, 
	{ NOTE_DS3, 140 }, 
	{ NOTE_REST, 140 }, 
	{ NOTE_REST, 140 }, 
	{ NOTE_REST, 281 }, 
	{ NOTE_DS3, 160 }, 
	{ NOTE_DS3, 160 }, 
	{ NOTE_DS3, 160 }, 
	{ NOTE_DS3, 160 }, 
	{ NOTE_DS4, 80 }, 
	{ NOTE_FS4, 80 }, 
	{ NOTE_E4, 80 }, 
	{ NOTE_DS4, 80 }, 
	{ NOTE_E4, 317 }, 
	{ NOTE_DS3, 160 }, 
	{ NOTE_DS3, 160 }, 
	{ NOTE_DS3, 160 }, 
	{ NOTE_DS4, 160 }, 
	{ NOTE_FS4, 160 }, 
	{ NOTE_A4, 160 }, 
	{ NOTE_GS4, 317 }, 
	{ NOTE_D5, 160 }, 
	{ NOTE_D5, 160 }, 
	{ NOTE_D5, 160 }, 
	{ NOTE_D5, 160 }, 
	{ NOTE_D5, 160 }, 
	{ NOTE_D5, 160 }, 
	{ NOTE_D5, 160 }, 
	{ NOTE_D5, 157 }, 
	{ NOTE_D5, 160 }, 
	{ NOTE_D5, 160 }, 
	{ NOTE_D5, 160 }, 
	{ NOTE_D5, 160 }, 
	{ NOTE_GS4, 319 }, 
	{ NOTE_GS4, 318 }, 
	{ NOTE_DS3, 160 }, 
	{ NOTE_DS3, 160 }, 
	{ NOTE_DS3, 160 }, 
	{ NOTE_DS3, 160 }, 
	{ NOTE_DS4, 80 }, 
	{ NOTE_FS4, 80 }, 
	{ NOTE_E4, 80 }, 
	{ NOTE_DS4, 80 }, 
	{ NOTE_E4, 317 }, 
	{ NOTE_DS3, 160 }, 
	{ NOTE_DS3, 160 }, 
	{ NOTE_DS3, 160 }, 
	{ NOTE_DS4, 160 }, 
	{ NOTE_FS4, 160 }, 
	{ NOTE_A4, 160 }, 
	{ NOTE_GS4, 317 }, 
	{ NOTE_D5, 160 }, 
	{ NOTE_D5, 160 }, 
	{ NOTE_D5, 160 }, 
	{ NOTE_D5, 160 }, 
	{ NOTE_D5, 160 }, 
	{ NOTE_D5, 160 }, 
	{ NOTE_D5, 160 }, 
	{ NOTE_D5, 157 }, 
	{ NOTE_D5, 160 }, 
	{ NOTE_D5, 160 }, 
	{ NOTE_D5, 160 }, 
	{ NOTE_D5, 160 }, 
	{ NOTE_GS4, 319 }, 
	{ NOTE_GS4, 318 }, 
	{ NOTE_DS3, 160 }, 
	{ NOTE_DS3, 160 }, 
	{ NOTE_DS3, 160 }, 
	{ NOTE_DS3, 160 }, 
	{ NOTE_DS4, 80 }, 
	{ NOTE_FS4, 80 }, 
	{ NOTE_E4, 80 }, 
	{ NOTE_DS4, 80 }, 
	{ NOTE_E4, 317 }, 
	{ NOTE_DS3, 160 }, 
	{ NOTE_DS3, 160 }, 
	{ NOTE_DS3, 160 }, 
	{ NOTE_DS4, 160 }, 
	{ NOTE_FS4, 160 }, 
	{ NOTE_A4, 160 }, 
	{ NOTE_GS4, 317 }, 
	{ NOTE_D5, 160 }, 
	{ NOTE_D5, 160 }, 
	{ NOTE_D5, 160 }, 
	{ NOTE_D5, 160 }, 
	{ NOTE_D5, 160 }, 
	{ NOTE_D5, 160 }, 
	{ NOTE_D5, 160 }, 
	{ NOTE_D5, 157 }, 
	{ NOTE_D5, 160 }, 
	{ NOTE_D5, 160 }, 
	{ NOTE_D5, 160 }, 
	{ NOTE_D5, 160 }, 
	{ NOTE_GS4, 319 }, 
	{ NOTE_GS4, 318 }, 
	{ NOTE_DS3, 169 }, 
	{ NOTE_DS3, 169 }, 
	{ NOTE_DS3, 169 }, 
	{ NOTE_DS4, 169 }, 
	{ NOTE_A4, 169 }, 
	{ NOTE_AS4, 169 }, 
	{ NOTE_A4, 334 }, 
	{ NOTE_F4, 169 }, 
	{ NOTE_A4, 169 }, 
	{ NOTE_GS4, 337 }, 
	{ NOTE_E4, 169 }, 
	{ NOTE_GS4, 169 }, 
	{ NOTE_G4, 335 }, 
	{ NOTE_DS3, 169 }, 
	{ NOTE_DS3, 169 }, 
	{ NOTE_DS3, 169 }, 
	{ NOTE_DS4, 169 }, 
	{ NOTE_A4, 169 }, 
	{ NOTE_AS4, 169 }, 
	{ NOTE_A4, 334 }, 
	{ NOTE_F4, 169 }, 
	{ NOTE_A4, 169 }, 
	{ NOTE_GS4, 337 }, 
	{ NOTE_E4, 169 }, 
	{ NOTE_GS4, 169 }, 
	{ NOTE_G4, 335 }, 
	{ NOTE_DS3, 169 }, 
	{ NOTE_DS3, 169 }, 
	{ NOTE_DS3, 169 }, 
	{ NOTE_DS4, 169 }, 
	{ NOTE_A4, 169 }, 
	{ NOTE_AS4, 169 }, 
	{ NOTE_A4, 334 }, 
	{ NOTE_F4, 169 }, 
	{ NOTE_A4, 169 }, 
	{ NOTE_GS4, 337 }, 
	{ NOTE_E4, 169 }, 
	{ NOTE_GS4, 169 }, 
	{ NOTE_G4, 335 }, 
	{ NOTE_DS3, 169 }, 
	{ NOTE_DS3, 169 }, 
	{ NOTE_DS3, 169 }, 
	{ NOTE_DS4, 169 }, 
	{ NOTE_A4, 169 }, 
	{ NOTE_AS4, 169 }, 
	{ NOTE_A4, 334 }, 
	{ NOTE_F4, 169 }, 
	{ NOTE_A4, 169 }, 
	{ NOTE_GS4, 337 }, 
	{ NOTE_E4, 169 }, 
	{ NOTE_GS4, 169 }, 
	{ NOTE_G4, 335 }, 
	{ NOTE_REST, 169 }, 
	{ NOTE_REST, 169 }, 
	{ NOTE_REST, 337 }, 
	{ NOTE_REST, 169 }, 
	{ NOTE_REST, 169 }, 
	{ NOTE_REST, 335 }, 
	{ NOTE_REST, 169 }, 
	{ NOTE_REST, 169 }, 
	{ NOTE_REST, 337 }, 
	{ NOTE_REST, 169 }, 
	{ NOTE_REST, 169 }, 
	{ NOTE_REST, 335 }, 
	{ NOTE_REST, 169 }, 
	{ NOTE_REST, 169 }, 
	{ NOTE_REST, 337 }, 
	{ NOTE_REST, 169 }, 
	{ NOTE_REST, 169 }, 
	{ NOTE_REST, 335 }, 
	{ NOTE_REST, 169 }, 
	{ NOTE_REST, 169 }, 
	{ NOTE_REST, 337 }, 
	{ NOTE_REST, 169 }, 
	{ NOTE_REST, 169 }, 
	{ NOTE_REST, 335 }, 
	{ NOTE_REST, 169 }, 
	{ NOTE_REST, 169 }, 
	{ NOTE_REST, 337 }, 
	{ NOTE_REST, 169 }, 
	{ NOTE_REST, 169 }, 
	{ NOTE_REST, 335 }, 
	{ NOTE_REST, 169 }, 
	{ NOTE_REST, 169 }, 
	{ NOTE_REST, 337 }, 
	{ NOTE_REST, 169 }, 
	{ NOTE_REST, 169 }, 
	{ NOTE_REST, 335 }, 
	{ NOTE_REST, 169 }, 
	{ NOTE_REST, 169 }, 
	{ NOTE_REST, 337 }, 
	{ NOTE_REST, 169 }, 
	{ NOTE_REST, 169 }, 
	{ NOTE_REST, 335 }, 
	{ NOTE_REST, 169 }, 
	{ NOTE_REST, 169 }, 
	{ NOTE_REST, 337 }, 
	{ NOTE_REST, 169 }, 
	{ NOTE_REST, 169 }, 
	{ NOTE_REST, 335 }, 
	{ NOTE_REST, 169 }, 
	{ NOTE_REST, 169 }, 
	{ NOTE_REST, 337 }, 
	{ NOTE_REST, 169 }, 
	{ NOTE_REST, 169 }, 
	{ NOTE_REST, 335 }, 
	{ NOTE_REST, 169 }, 
	{ NOTE_REST, 169 }, 
	{ NOTE_REST, 337 }, 
	{ NOTE_REST, 169 }, 
	{ NOTE_REST, 169 }, 
	{ NOTE_REST, 335 }, 
	{ NOTE_REST, 169 }, 
	{ NOTE_REST, 169 }, 
	{ NOTE_REST, 337 }, 
	{ NOTE_REST, 169 }, 
	{ NOTE_REST, 169 }, 
	{ NOTE_REST, 335 }, 
	{ NOTE_REST, 169 }, 
	{ NOTE_REST, 169 }, 
	{ NOTE_REST, 337 }, 
	{ NOTE_REST, 169 }, 
	{ NOTE_REST, 169 }, 
	{ NOTE_REST, 335 }, 
	{ NOTE_REST, 169 }, 
	{ NOTE_REST, 169 }, 
	{ NOTE_REST, 337 }, 
	{ NOTE_REST, 169 }, 
	{ NOTE_REST, 169 }, 
	{ NOTE_REST, 335 }, 
	{ NOTE_REST, 169 }, 
	{ NOTE_REST, 169 }, 
	{ NOTE_REST, 337 }, 
	{ NOTE_REST, 169 }, 
	{ NOTE_REST, 169 }, 
	{ NOTE_REST, 335 }, 
	{ NOTE_DS3, 169 }, 
	{ NOTE_DS3, 169 }, 
	{ NOTE_REST, 169 }, 
	{ NOTE_REST, 169 }, 
	{ NOTE_DS3, 169 }, 
	{ NOTE_DS3, 169 }, 
	{ NOTE_REST, 169 }, 
	{ NOTE_REST, 165 }, 
	{ NOTE_DS3, 169 }, 
	{ NOTE_DS3, 169 }, 
	{ NOTE_REST, 169 }, 
	{ NOTE_REST, 169 }, 
	{ NOTE_DS3, 169 }, 
	{ NOTE_DS3, 169 }, 
	{ NOTE_REST, 169 }, 
	{ NOTE_REST, 165 }, 
	{ NOTE_DS3, 169 }, 
	{ NOTE_DS3, 169 }, 
	{ NOTE_REST, 169 }, 
	{ NOTE_REST, 169 }, 
	{ NOTE_DS3, 169 }, 
	{ NOTE_DS3, 169 }, 
	{ NOTE_REST, 169 }, 
	{ NOTE_REST, 165 }, 
	{ NOTE_DS3, 169 }, 
	{ NOTE_DS3, 169 }, 
	{ NOTE_REST, 169 }, 
	{ NOTE_REST, 169 }, 
	{ NOTE_DS3, 169 }, 
	{ NOTE_DS3, 169 }, 
	{ NOTE_REST, 169 }, 
	{ NOTE_REST, 165 }, 
	{ NOTE_DS3, 169 }, 
	{ NOTE_DS3, 169 }, 
	{ NOTE_REST, 169 }, 
	{ NOTE_REST, 169 }, 
	{ NOTE_DS3, 169 }, 
	{ NOTE_DS3, 169 }, 
	{ NOTE_REST, 169 }, 
	{ NOTE_REST, 165 }, 
	{ NOTE_DS3, 169 }, 
	{ NOTE_DS3, 169 }, 
	{ NOTE_REST, 169 }, 
	{ NOTE_REST, 169 }, 
	{ NOTE_DS3, 169 }, 
	{ NOTE_DS3, 169 }, 
	{ NOTE_REST, 169 }, 
	{ NOTE_REST, 165 }, 
	{ NOTE_DS3, 169 }, 
	{ NOTE_DS3, 169 }, 
	{ NOTE_REST, 169 }, 
	{ NOTE_REST, 169 }, 
	{ NOTE_DS3, 169 }, 
	{ NOTE_DS3, 169 }, 
	{ NOTE_REST, 169 }, 
	{ NOTE_REST, 165 }, 
	{ NOTE_DS3, 169 }, 
	{ NOTE_DS3, 169 }, 
	{ NOTE_REST, 169 }, 
	{ NOTE_REST, 169 }, 
	{ NOTE_DS3, 169 }, 
	{ NOTE_DS3, 169 }, 
	{ NOTE_REST, 169 }, 
	{ NOTE_REST, 165 }, 
	{ NOTE_DS3, 84 }, 
	{ NOTE_DS3, 84 }, 
	{ NOTE_DS3, 84 }, 
	{ NOTE_DS3, 84 }, 
	{ NOTE_DS3, 84 }, 
	{ NOTE_DS3, 84 }, 
	{ NOTE_DS3, 84 }, 
	{ NOTE_DS3, 84 }, 
	{ NOTE_DS3, 84 }, 
	{ NOTE_DS3, 84 }, 
	{ NOTE_DS3, 84 }, 
	{ NOTE_DS3, 84 }, 
	{ NOTE_DS3, 84 }, 
	{ NOTE_DS3, 84 }, 
	{ NOTE_DS3, 84 }, 
	{ NOTE_DS3, 88 }, 
	{ NOTE_DS3, 84 }, 
	{ NOTE_DS3, 84 }, 
	{ NOTE_DS3, 84 }, 
	{ NOTE_DS3, 84 }, 
	{ NOTE_DS3, 84 }, 
	{ NOTE_DS3, 84 }, 
	{ NOTE_DS3, 84 }, 
	{ NOTE_DS3, 84 }, 
	{ NOTE_DS3, 84 }, 
	{ NOTE_DS3, 84 }, 
	{ NOTE_DS3, 84 }, 
	{ NOTE_DS3, 84 }, 
	{ NOTE_DS3, 84 }, 
	{ NOTE_DS3, 84 }, 
	{ NOTE_DS3, 84 }, 
	{ NOTE_DS3, 88 }, 
	{ NOTE_DS3, 84 }, 
	{ NOTE_DS3, 84 }, 
	{ NOTE_DS3, 84 }, 
	{ NOTE_DS3, 84 }, 
	{ NOTE_DS3, 84 }, 
	{ NOTE_DS3, 84 }, 
	{ NOTE_DS3, 84 }, 
	{ NOTE_DS3, 86 }, 
	{ NOTE_DS3, 84 }, 
	{ NOTE_DS3, 84 }, 
	{ NOTE_DS3, 84 }, 
	{ NOTE_DS3, 84 }, 
	{ NOTE_DS3, 84 }, 
	{ NOTE_DS3, 84 }, 
	{ NOTE_DS3, 84 }, 
	{ NOTE_DS3, 84 }, 
	{ NOTE_DS3, 84 }, 
	{ NOTE_DS3, 84 }, 
	{ NOTE_DS3, 84 }, 
	{ NOTE_DS3, 84 }, 
	{ NOTE_DS3, 84 }, 
	{ NOTE_DS3, 84 }, 
	{ NOTE_DS3, 84 }, 
	{ NOTE_DS3, 88 }, 
	{ NOTE_DS3, 121 }, 
	{ NOTE_DS3, 121 }, 
	{ NOTE_DS3, 121 }, 
	{ NOTE_DS3, 121 }, 
	{ NOTE_E3, 121 }, 
	{ NOTE_E3, 121 }, 
	{ NOTE_AS3, 121 }, 
	{ NOTE_AS3, 125 }, 
	{ NOTE_A3, 121 }, 
	{ NOTE_A3, 121 }, 
	{ NOTE_A3, 121 }, 
	{ NOTE_FS3, 121 }, 
	{ NOTE_FS3, 121 }, 
	{ NOTE_FS3, 121 }, 
	{ NOTE_FS3, 121 }, 
	{ NOTE_FS3, 125 }, 
	{ NOTE_G3, 121 }, 
	{ NOTE_G3, 121 }, 
	{ NOTE_G3, 121 }, 
	{ NOTE_G3, 121 }, 
	{ NOTE_G3, 121 }, 
	{ NOTE_G3, 121 }, 
	{ NOTE_B3, 121 }, 
	{ NOTE_B3, 125 }, 
	{ NOTE_AS3, 121 }, 
	{ NOTE_AS3, 121 }, 
	{ NOTE_AS3, 121 }, 
	{ NOTE_AS3, 121 }, 
	{ NOTE_AS3, 121 }, 
	{ NOTE_AS3, 121 }, 
	{ NOTE_B3, 121 }, 
	{ NOTE_B3, 125 }, 
	{ NOTE_DS3, 121 }, 
	{ NOTE_DS3, 121 }, 
	{ NOTE_DS3, 121 }, 
	{ NOTE_DS3, 121 }, 
	{ NOTE_E3, 121 }, 
	{ NOTE_E3, 121 }, 
	{ NOTE_AS3, 121 }, 
	{ NOTE_AS3, 125 }, 
	{ NOTE_A3, 121 }, 
	{ NOTE_A3, 121 }, 
	{ NOTE_A3, 121 }, 
	{ NOTE_FS3, 121 }, 
	{ NOTE_FS3, 121 }, 
	{ NOTE_FS3, 121 }, 
	{ NOTE_FS3, 121 }, 
	{ NOTE_FS3, 125 }, 
	{ NOTE_DS3, 121 }, 
	{ NOTE_DS3, 121 }, 
	{ NOTE_DS3, 121 }, 
	{ NOTE_DS3, 121 }, 
	{ NOTE_DS3, 121 }, 
	{ NOTE_DS3, 121 }, 
	{ NOTE_DS3, 121 }, 
	{ NOTE_DS3, 125 }, 
	{ NOTE_DS3, 121 }, 
	{ NOTE_DS3, 121 }, 
	{ NOTE_DS3, 121 }, 
	{ NOTE_DS3, 121 }, 
	{ NOTE_DS3, 121 }, 
	{ NOTE_DS3, 121 }, 
	{ NOTE_DS3, 121 }, 
	{ NOTE_DS3, 125 }, 
	{ NOTE_DS3, 121 }, 
	{ NOTE_DS3, 121 }, 
	{ NOTE_DS3, 121 }, 
	{ NOTE_DS3, 121 }, 
	{ NOTE_DS3, 121 }, 
	{ NOTE_DS3, 121 }, 
	{ NOTE_DS3, 121 }, 
	{ NOTE_DS3, 125 }, 
	{ NOTE_DS3, 121 }, 
	{ NOTE_DS3, 121 }, 
	{ NOTE_DS3, 121 }, 
	{ NOTE_DS3, 121 }, 
	{ NOTE_DS3, 121 }, 
	{ NOTE_REST, 121 }, 
	{ NOTE_REST, 246 }, 
};
const uint16_t NUM_OF_NOTES2 = sizeof(melody2)/sizeof(melody2[0]);

const Note melody3[] PROGMEM = {
	{ NOTE_REST, 1348 }, 
	{ NOTE_REST, 1348 }, 
	{ NOTE_REST, 1348 }, 
	{ NOTE_REST, 1348 }, 
	{ NOTE_DS3, 169 }, 
	{ NOTE_DS3, 169 }, 
	{ NOTE_DS3, 169 }, 
	{ NOTE_GS4, 169 }, 
	{ NOTE_D5, 169 }, 
	{ NOTE_DS5, 169 }, 
	{ NOTE_D5, 334 }, 
	{ NOTE_AS4, 169 }, 
	{ NOTE_D5, 169 }, 
	{ NOTE_CS5, 337 }, 
	{ NOTE_A4, 169 }, 
	{ NOTE_CS5, 169 }, 
	{ NOTE_C5, 335 }, 
	{ NOTE_DS3, 169 }, 
	{ NOTE_DS3, 169 }, 
	{ NOTE_DS3, 169 }, 
	{ NOTE_GS4, 169 }, 
	{ NOTE_D5, 169 }, 
	{ NOTE_DS5, 169 }, 
	{ NOTE_D5, 334 }, 
	{ NOTE_AS4, 169 }, 
	{ NOTE_D5, 169 }, 
	{ NOTE_CS5, 337 }, 
	{ NOTE_A4, 169 }, 
	{ NOTE_CS5, 169 }, 
	{ NOTE_C5, 335 }, 
	{ NOTE_DS3, 84 }, 
	{ NOTE_DS3, 84 }, 
	{ NOTE_DS3, 169 }, 
	{ NOTE_DS3, 84 }, 
	{ NOTE_DS3, 84 }, 
	{ NOTE_DS3, 169 }, 
	{ NOTE_DS3, 84 }, 
	{ NOTE_DS3, 84 }, 
	{ NOTE_DS3, 169 }, 
	{ NOTE_DS3, 84 }, 
	{ NOTE_DS3, 84 }, 
	{ NOTE_DS3, 169 }, 
	{ NOTE_DS3, 84 }, 
	{ NOTE_DS3, 84 }, 
	{ NOTE_DS3, 169 }, 
	{ NOTE_DS3, 84 }, 
	{ NOTE_DS3, 84 }, 
	{ NOTE_DS3, 169 }, 
	{ NOTE_DS3, 84 }, 
	{ NOTE_DS3, 84 }, 
	{ NOTE_DS3, 169 }, 
	{ NOTE_DS3, 84 }, 
	{ NOTE_DS3, 84 }, 
	{ NOTE_DS3, 169 }, 
	{ NOTE_DS3, 84 }, 
	{ NOTE_DS3, 84 }, 
	{ NOTE_DS3, 169 }, 
	{ NOTE_DS3, 84 }, 
	{ NOTE_DS3, 84 }, 
	{ NOTE_DS3, 169 }, 
	{ NOTE_DS3, 84 }, 
	{ NOTE_DS3, 84 }, 
	{ NOTE_DS3, 169 }, 
	{ NOTE_DS3, 84 }, 
	{ NOTE_DS3, 84 }, 
	{ NOTE_DS3, 169 }, 
	{ NOTE_DS3, 169 }, 
	{ NOTE_F3, 169 }, 
	{ NOTE_G3, 169 }, 
	{ NOTE_C4, 169 }, 
	{ NOTE_E4, 169 }, 
	{ NOTE_DS4, 169 }, 
	{ NOTE_B3, 169 }, 
	{ NOTE_AS3, 165 }, 
	{ NOTE_DS3, 84 }, 
	{ NOTE_DS3, 84 }, 
	{ NOTE_DS3, 169 }, 
	{ NOTE_DS3, 84 }, 
	{ NOTE_DS3, 84 }, 
	{ NOTE_DS3, 169 }, 
	{ NOTE_DS3, 84 }, 
	{ NOTE_DS3, 84 }, 
	{ NOTE_DS3, 169 }, 
	{ NOTE_DS3, 84 }, 
	{ NOTE_DS3, 84 }, 
	{ NOTE_DS3, 169 }, 
	{ NOTE_DS3, 84 }, 
	{ NOTE_DS3, 84 }, 
	{ NOTE_DS3, 169 }, 
	{ NOTE_DS3, 84 }, 
	{ NOTE_DS3, 84 }, 
	{ NOTE_DS3, 169 }, 
	{ NOTE_DS3, 84 }, 
	{ NOTE_DS3, 84 }, 
	{ NOTE_DS3, 169 }, 
	{ NOTE_DS3, 84 }, 
	{ NOTE_DS3, 84 }, 
	{ NOTE_DS3, 169 }, 
	{ NOTE_DS3, 84 }, 
	{ NOTE_DS3, 84 }, 
	{ NOTE_DS3, 169 }, 
	{ NOTE_DS3, 84 }, 
	{ NOTE_DS3, 84 }, 
	{ NOTE_DS3, 169 }, 
	{ NOTE_DS3, 84 }, 
	{ NOTE_DS3, 84 }, 
	{ NOTE_DS3, 169 }, 
	{ NOTE_DS3, 84 }, 
	{ NOTE_DS3, 84 }, 
	{ NOTE_DS3, 169 }, 
	{ NOTE_DS3, 169 }, 
	{ NOTE_F3, 169 }, 
	{ NOTE_G3, 169 }, 
	{ NOTE_C4, 169 }, 
	{ NOTE_E4, 169 }, 
	{ NOTE_DS4, 169 }, 
	{ NOTE_B3, 169 }, 
	{ NOTE_AS3, 165 }, 
	{ NOTE_DS3, 84 }, 
	{ NOTE_DS3, 84 }, 
	{ NOTE_DS3, 169 }, 
	{ NOTE_DS3, 84 }, 
	{ NOTE_DS3, 84 }, 
	{ NOTE_DS3, 169 }, 
	{ NOTE_DS3, 84 }, 
	{ NOTE_DS3, 84 }, 
	{ NOTE_DS3, 169 }, 
	{ NOTE_DS3, 84 }, 
	{ NOTE_DS3, 84 }, 
	{ NOTE_DS3, 169 }, 
	{ NOTE_DS3, 84 }, 
	{ NOTE_DS3, 84 }, 
	{ NOTE_DS3, 169 }, 
	{ NOTE_DS3, 84 }, 
	{ NOTE_DS3, 84 }, 
	{ NOTE_DS3, 169 }, 
	{ NOTE_DS3, 84 }, 
	{ NOTE_DS3, 84 }, 
	{ NOTE_DS3, 169 }, 
	{ NOTE_DS3, 84 }, 
	{ NOTE_DS3, 84 }, 
	{ NOTE_DS3, 169 }, 
	{ NOTE_DS3, 84 }, 
	{ NOTE_DS3, 84 }, 
	{ NOTE_DS3, 169 }, 
	{ NOTE_DS3, 84 }, 
	{ NOTE_DS3, 84 }, 
	{ NOTE_DS3, 169 }, 
	{ NOTE_DS3, 84 }, 
	{ NOTE_DS3, 84 }, 
	{ NOTE_DS3, 169 }, 
	{ NOTE_DS3, 84 }, 
	{ NOTE_DS3, 84 }, 
	{ NOTE_DS3, 169 }, 
	{ NOTE_DS3, 169 }, 
	{ NOTE_F3, 169 }, 
	{ NOTE_G3, 169 }, 
	{ NOTE_C4, 169 }, 
	{ NOTE_E4, 169 }, 
	{ NOTE_DS4, 169 }, 
	{ NOTE_B3, 169 }, 
	{ NOTE_AS3, 165 }, 
	{ NOTE_DS3, 84 }, 
	{ NOTE_DS3, 84 }, 
	{ NOTE_DS3, 169 }, 
	{ NOTE_DS3, 84 }, 
	{ NOTE_DS3, 84 }, 
	{ NOTE_DS3, 169 }, 
	{ NOTE_DS3, 84 }, 
	{ NOTE_DS3, 84 }, 
	{ NOTE_DS3, 169 }, 
	{ NOTE_DS3, 84 }, 
	{ NOTE_DS3, 84 }, 
	{ NOTE_DS3, 169 }, 
	{ NOTE_DS3, 84 }, 
	{ NOTE_DS3, 84 }, 
	{ NOTE_DS3, 169 }, 
	{ NOTE_DS3, 84 }, 
	{ NOTE_DS3, 84 }, 
	{ NOTE_DS3, 169 }, 
	{ NOTE_DS3, 84 }, 
	{ NOTE_DS3, 84 }, 
	{ NOTE_DS3, 169 }, 
	{ NOTE_DS3, 84 }, 
	{ NOTE_DS3, 84 }, 
	{ NOTE_DS3, 169 }, 
	{ NOTE_DS3, 84 }, 
	{ NOTE_DS3, 84 }, 
	{ NOTE_DS3, 169 }, 
	{ NOTE_DS3, 84 }, 
	{ NOTE_DS3, 84 }, 
	{ NOTE_DS3, 169 }, 
	{ NOTE_DS3, 84 }, 
	{ NOTE_DS3, 84 }, 
	{ NOTE_DS3, 169 }, 
	{ NOTE_DS3, 84 }, 
	{ NOTE_DS3, 84 }, 
	{ NOTE_DS3, 169 }, 
	{ NOTE_DS3, 169 }, 
	{ NOTE_F3, 169 }, 
	{ NOTE_G3, 169 }, 
	{ NOTE_C4, 169 }, 
	{ NOTE_E4, 169 }, 
	{ NOTE_DS4, 169 }, 
	{ NOTE_B3, 169 }, 
	{ NOTE_AS3, 165 }, 
	{ NOTE_GS3, 70 }, 
	{ NOTE_FS3, 70 }, 
	{ NOTE_F3, 70 }, 
	{ NOTE_DS3, 70 }, 
	{ NOTE_A3, 70 }, 
	{ NOTE_GS3, 70 }, 
	{ NOTE_FS3, 70 }, 
	{ NOTE_DS3, 70 }, 
	{ NOTE_GS3, 70 }, 
	{ NOTE_FS3, 70 }, 
	{ NOTE_F3, 70 }, 
	{ NOTE_DS3, 70 }, 
	{ NOTE_A3, 70 }, 
	{ NOTE_GS3, 70 }, 
	{ NOTE_FS3, 70 }, 
	{ NOTE_DS3, 71 }, 
	{ NOTE_GS3, 70 }, 
	{ NOTE_FS3, 70 }, 
	{ NOTE_F3, 70 }, 
	{ NOTE_DS3, 70 }, 
	{ NOTE_A3, 70 }, 
	{ NOTE_GS3, 70 }, 
	{ NOTE_FS3, 70 }, 
	{ NOTE_DS3, 70 }, 
	{ NOTE_GS3, 70 }, 
	{ NOTE_FS3, 70 }, 
	{ NOTE_F3, 70 }, 
	{ NOTE_DS3, 70 }, 
	{ NOTE_A3, 70 }, 
	{ NOTE_GS3, 70 }, 
	{ NOTE_FS3, 70 }, 
	{ NOTE_DS3, 71 }, 
	{ NOTE_GS3, 70 }, 
	{ NOTE_FS3, 70 }, 
	{ NOTE_F3, 70 }, 
	{ NOTE_DS3, 70 }, 
	{ NOTE_A3, 70 }, 
	{ NOTE_GS3, 70 }, 
	{ NOTE_FS3, 70 }, 
	{ NOTE_DS3, 70 }, 
	{ NOTE_GS3, 70 }, 
	{ NOTE_FS3, 70 }, 
	{ NOTE_F3, 70 }, 
	{ NOTE_DS3, 70 }, 
	{ NOTE_A3, 281 }, 
	{ NOTE_GS3, 70 }, 
	{ NOTE_FS3, 70 }, 
	{ NOTE_F3, 70 }, 
	{ NOTE_DS3, 70 }, 
	{ NOTE_A3, 70 }, 
	{ NOTE_GS3, 70 }, 
	{ NOTE_FS3, 70 }, 
	{ NOTE_DS3, 70 }, 
	{ NOTE_GS3, 70 }, 
	{ NOTE_FS3, 70 }, 
	{ NOTE_F3, 70 }, 
	{ NOTE_DS3, 70 }, 
	{ NOTE_A3, 70 }, 
	{ NOTE_GS3, 70 }, 
	{ NOTE_FS3, 70 }, 
	{ NOTE_DS3, 71 }, 
	{ NOTE_GS3, 70 }, 
	{ NOTE_FS3, 70 }, 
	{ NOTE_F3, 70 }, 
	{ NOTE_DS3, 70 }, 
	{ NOTE_A3, 70 }, 
	{ NOTE_GS3, 70 }, 
	{ NOTE_FS3, 70 }, 
	{ NOTE_DS3, 70 }, 
	{ NOTE_FS3, 280 }, 
	{ NOTE_A3, 281 }, 
	{ NOTE_DS3, 140 }, 
	{ NOTE_DS3, 70 }, 
	{ NOTE_DS3, 70 }, 
	{ NOTE_DS3, 140 }, 
	{ NOTE_DS3, 140 }, 
	{ NOTE_B3, 140 }, 
	{ NOTE_DS4, 140 }, 
	{ NOTE_D4, 281 }, 
	{ NOTE_DS3, 140 }, 
	{ NOTE_DS3, 70 }, 
	{ NOTE_DS3, 70 }, 
	{ NOTE_DS3, 140 }, 
	{ NOTE_DS3, 140 }, 
	{ NOTE_AS3, 140 }, 
	{ NOTE_AS3, 140 }, 
	{ NOTE_CS4, 281 }, 
	{ NOTE_DS3, 140 }, 
	{ NOTE_DS3, 70 }, 
	{ NOTE_DS3, 70 }, 
	{ NOTE_DS3, 140 }, 
	{ NOTE_DS3, 140 }, 
	{ NOTE_B3, 140 }, 
	{ NOTE_DS4, 140 }, 
	{ NOTE_D4, 281 }, 
	{ NOTE_DS3, 140 }, 
	{ NOTE_DS3, 70 }, 
	{ NOTE_DS3, 70 }, 
	{ NOTE_DS3, 140 }, 
	{ NOTE_DS3, 140 }, 
	{ NOTE_AS3, 140 }, 
	{ NOTE_AS3, 140 }, 
	{ NOTE_CS4, 281 }, 
	{ NOTE_DS3, 140 }, 
	{ NOTE_DS3, 70 }, 
	{ NOTE_DS3, 70 }, 
	{ NOTE_DS3, 140 }, 
	{ NOTE_DS3, 140 }, 
	{ NOTE_B3, 140 }, 
	{ NOTE_DS4, 140 }, 
	{ NOTE_D4, 281 }, 
	{ NOTE_DS3, 140 }, 
	{ NOTE_DS3, 70 }, 
	{ NOTE_DS3, 70 }, 
	{ NOTE_DS3, 140 }, 
	{ NOTE_DS3, 140 }, 
	{ NOTE_AS3, 140 }, 
	{ NOTE_AS3, 140 }, 
	{ NOTE_CS4, 281 }, 
	{ NOTE_DS3, 140 }, 
	{ NOTE_DS3, 70 }, 
	{ NOTE_DS3, 70 }, 
	{ NOTE_DS3, 140 }, 
	{ NOTE_DS3, 140 }, 
	{ NOTE_B3, 140 }, 
	{ NOTE_DS4, 140 }, 
	{ NOTE_D4, 281 }, 
	{ NOTE_DS3, 140 }, 
	{ NOTE_DS3, 70 }, 
	{ NOTE_DS3, 70 }, 
	{ NOTE_DS3, 140 }, 
	{ NOTE_DS3, 140 }, 
	{ NOTE_AS3, 140 }, 
	{ NOTE_AS3, 140 }, 
	{ NOTE_CS4, 281 }, 
	{ NOTE_DS3, 140 }, 
	{ NOTE_DS3, 70 }, 
	{ NOTE_DS3, 70 }, 
	{ NOTE_DS3, 140 }, 
	{ NOTE_DS3, 140 }, 
	{ NOTE_B3, 140 }, 
	{ NOTE_DS4, 140 }, 
	{ NOTE_D4, 281 }, 
	{ NOTE_DS3, 140 }, 
	{ NOTE_DS3, 70 }, 
	{ NOTE_DS3, 70 }, 
	{ NOTE_DS3, 140 }, 
	{ NOTE_DS3, 140 }, 
	{ NOTE_AS3, 140 }, 
	{ NOTE_AS3, 140 }, 
	{ NOTE_CS4, 281 }, 
	{ NOTE_DS3, 140 }, 
	{ NOTE_DS3, 70 }, 
	{ NOTE_DS3, 70 }, 
	{ NOTE_DS3, 140 }, 
	{ NOTE_DS3, 140 }, 
	{ NOTE_B3, 140 }, 
	{ NOTE_DS4, 140 }, 
	{ NOTE_D4, 281 }, 
	{ NOTE_DS3, 140 }, 
	{ NOTE_DS3, 70 }, 
	{ NOTE_DS3, 70 }, 
	{ NOTE_DS3, 140 }, 
	{ NOTE_DS3, 140 }, 
	{ NOTE_AS3, 140 }, 
	{ NOTE_AS3, 140 }, 
	{ NOTE_CS4, 281 }, 
	{ NOTE_DS3, 140 }, 
	{ NOTE_DS3, 70 }, 
	{ NOTE_DS3, 70 }, 
	{ NOTE_DS3, 140 }, 
	{ NOTE_DS3, 140 }, 
	{ NOTE_B3, 140 }, 
	{ NOTE_DS4, 140 }, 
	{ NOTE_D4, 281 }, 
	{ NOTE_DS3, 140 }, 
	{ NOTE_DS3, 70 }, 
	{ NOTE_DS3, 70 }, 
	{ NOTE_DS3, 140 }, 
	{ NOTE_DS3, 140 }, 
	{ NOTE_AS3, 140 }, 
	{ NOTE_AS3, 140 }, 
	{ NOTE_CS4, 281 }, 
	{ NOTE_DS3, 140 }, 
	{ NOTE_DS3, 70 }, 
	{ NOTE_DS3, 70 }, 
	{ NOTE_DS3, 140 }, 
	{ NOTE_DS3, 140 }, 
	{ NOTE_B3, 140 }, 
	{ NOTE_DS4, 140 }, 
	{ NOTE_D4, 281 }, 
	{ NOTE_DS3, 140 }, 
	{ NOTE_DS3, 70 }, 
	{ NOTE_DS3, 70 }, 
	{ NOTE_DS3, 140 }, 
	{ NOTE_DS3, 140 }, 
	{ NOTE_AS3, 140 }, 
	{ NOTE_AS3, 140 }, 
	{ NOTE_CS4, 281 }, 
	{ NOTE_DS3, 160 }, 
	{ NOTE_DS3, 160 }, 
	{ NOTE_DS3, 160 }, 
	{ NOTE_DS3, 160 }, 
	{ NOTE_DS4, 80 }, 
	{ NOTE_FS4, 80 }, 
	{ NOTE_E4, 80 }, 
	{ NOTE_DS4, 80 }, 
	{ NOTE_E4, 317 }, 
	{ NOTE_DS3, 160 }, 
	{ NOTE_DS3, 160 }, 
	{ NOTE_DS3, 160 }, 
	{ NOTE_DS4, 160 }, 
	{ NOTE_FS4, 160 }, 
	{ NOTE_A4, 160 }, 
	{ NOTE_GS4, 317 }, 
	{ NOTE_D4, 160 }, 
	{ NOTE_D4, 160 }, 
	{ NOTE_D4, 160 }, 
	{ NOTE_D4, 160 }, 
	{ NOTE_D4, 160 }, 
	{ NOTE_D4, 160 }, 
	{ NOTE_D4, 160 }, 
	{ NOTE_D4, 157 }, 
	{ NOTE_D4, 160 }, 
	{ NOTE_D4, 160 }, 
	{ NOTE_D4, 160 }, 
	{ NOTE_D4, 160 }, 
	{ NOTE_GS3, 319 }, 
	{ NOTE_GS3, 318 }, 
	{ NOTE_DS3, 160 }, 
	{ NOTE_DS3, 160 }, 
	{ NOTE_DS3, 160 }, 
	{ NOTE_DS3, 160 }, 
	{ NOTE_DS4, 80 }, 
	{ NOTE_FS4, 80 }, 
	{ NOTE_E4, 80 }, 
	{ NOTE_DS4, 80 }, 
	{ NOTE_E4, 317 }, 
	{ NOTE_DS3, 160 }, 
	{ NOTE_DS3, 160 }, 
	{ NOTE_DS3, 160 }, 
	{ NOTE_DS4, 160 }, 
	{ NOTE_FS4, 160 }, 
	{ NOTE_A4, 160 }, 
	{ NOTE_GS4, 317 }, 
	{ NOTE_D4, 160 }, 
	{ NOTE_D4, 160 }, 
	{ NOTE_D4, 160 }, 
	{ NOTE_D4, 160 }, 
	{ NOTE_D4, 160 }, 
	{ NOTE_D4, 160 }, 
	{ NOTE_D4, 160 }, 
	{ NOTE_D4, 157 }, 
	{ NOTE_D4, 160 }, 
	{ NOTE_D4, 160 }, 
	{ NOTE_D4, 160 }, 
	{ NOTE_D4, 160 }, 
	{ NOTE_GS3, 319 }, 
	{ NOTE_GS3, 318 }, 
	{ NOTE_DS3, 160 }, 
	{ NOTE_DS3, 160 }, 
	{ NOTE_DS3, 160 }, 
	{ NOTE_DS3, 160 }, 
	{ NOTE_DS4, 80 }, 
	{ NOTE_FS4, 80 }, 
	{ NOTE_E4, 80 }, 
	{ NOTE_DS4, 80 }, 
	{ NOTE_E4, 317 }, 
	{ NOTE_DS3, 160 }, 
	{ NOTE_DS3, 160 }, 
	{ NOTE_DS3, 160 }, 
	{ NOTE_DS4, 160 }, 
	{ NOTE_FS4, 160 }, 
	{ NOTE_A4, 160 }, 
	{ NOTE_GS4, 317 }, 
	{ NOTE_D4, 160 }, 
	{ NOTE_D4, 160 }, 
	{ NOTE_D4, 160 }, 
	{ NOTE_D4, 160 }, 
	{ NOTE_D4, 160 }, 
	{ NOTE_D4, 160 }, 
	{ NOTE_D4, 160 }, 
	{ NOTE_D4, 157 }, 
	{ NOTE_D4, 160 }, 
	{ NOTE_D4, 160 }, 
	{ NOTE_D4, 160 }, 
	{ NOTE_D4, 160 }, 
	{ NOTE_GS3, 319 }, 
	{ NOTE_GS3, 318 }, 
	{ NOTE_DS3, 169 }, 
	{ NOTE_DS3, 169 }, 
	{ NOTE_DS3, 169 }, 
	{ NOTE_DS4, 169 }, 
	{ NOTE_A4, 169 }, 
	{ NOTE_AS4, 169 }, 
	{ NOTE_A4, 334 }, 
	{ NOTE_F4, 169 }, 
	{ NOTE_A4, 169 }, 
	{ NOTE_GS4, 337 }, 
	{ NOTE_E4, 169 }, 
	{ NOTE_GS4, 169 }, 
	{ NOTE_G4, 335 }, 
	{ NOTE_DS3, 169 }, 
	{ NOTE_DS3, 169 }, 
	{ NOTE_DS3, 169 }, 
	{ NOTE_DS4, 169 }, 
	{ NOTE_A4, 169 }, 
	{ NOTE_AS4, 169 }, 
	{ NOTE_A4, 334 }, 
	{ NOTE_F4, 169 }, 
	{ NOTE_A4, 169 }, 
	{ NOTE_GS4, 337 }, 
	{ NOTE_E4, 169 }, 
	{ NOTE_GS4, 169 }, 
	{ NOTE_G4, 335 }, 
	{ NOTE_DS3, 169 }, 
	{ NOTE_DS3, 169 }, 
	{ NOTE_DS3, 169 }, 
	{ NOTE_AS4, 169 }, 
	{ NOTE_E5, 169 }, 
	{ NOTE_F5, 169 }, 
	{ NOTE_E5, 334 }, 
	{ NOTE_C5, 169 }, 
	{ NOTE_E5, 169 }, 
	{ NOTE_DS5, 337 }, 
	{ NOTE_B4, 169 }, 
	{ NOTE_DS5, 169 }, 
	{ NOTE_D5, 335 }, 
	{ NOTE_DS3, 169 }, 
	{ NOTE_DS3, 169 }, 
	{ NOTE_DS3, 169 }, 
	{ NOTE_AS4, 169 }, 
	{ NOTE_E5, 169 }, 
	{ NOTE_F5, 169 }, 
	{ NOTE_E5, 334 }, 
	{ NOTE_C5, 169 }, 
	{ NOTE_E5, 169 }, 
	{ NOTE_DS5, 337 }, 
	{ NOTE_B4, 169 }, 
	{ NOTE_DS5, 169 }, 
	{ NOTE_D5, 335 }, 
	{ NOTE_DS3, 169 }, 
	{ NOTE_DS3, 169 }, 
	{ NOTE_REST, 337 }, 
	{ NOTE_DS3, 169 }, 
	{ NOTE_DS3, 169 }, 
	{ NOTE_REST, 335 }, 
	{ NOTE_DS3, 169 }, 
	{ NOTE_DS3, 169 }, 
	{ NOTE_REST, 337 }, 
	{ NOTE_DS3, 169 }, 
	{ NOTE_DS3, 169 }, 
	{ NOTE_REST, 335 }, 
	{ NOTE_AS3, 169 }, 
	{ NOTE_DS4, 169 }, 
	{ NOTE_FS4, 169 }, 
	{ NOTE_AS4, 169 }, 
	{ NOTE_AS3, 169 }, 
	{ NOTE_DS4, 169 }, 
	{ NOTE_FS4, 169 }, 
	{ NOTE_A4, 165 }, 
	{ NOTE_AS3, 169 }, 
	{ NOTE_DS4, 169 }, 
	{ NOTE_FS4, 169 }, 
	{ NOTE_GS4, 169 }, 
	{ NOTE_AS3, 169 }, 
	{ NOTE_DS4, 169 }, 
	{ NOTE_FS4, 169 }, 
	{ NOTE_F4, 165 }, 
	{ NOTE_AS3, 169 }, 
	{ NOTE_DS4, 169 }, 
	{ NOTE_FS4, 169 }, 
	{ NOTE_AS4, 169 }, 
	{ NOTE_AS3, 169 }, 
	{ NOTE_DS4, 169 }, 
	{ NOTE_FS4, 169 }, 
	{ NOTE_A4, 165 }, 
	{ NOTE_AS3, 169 }, 
	{ NOTE_DS4, 169 }, 
	{ NOTE_FS4, 169 }, 
	{ NOTE_GS4, 169 }, 
	{ NOTE_AS3, 169 }, 
	{ NOTE_DS4, 169 }, 
	{ NOTE_FS4, 169 }, 
	{ NOTE_F4, 165 }, 
	{ NOTE_AS3, 169 }, 
	{ NOTE_DS4, 169 }, 
	{ NOTE_FS4, 169 }, 
	{ NOTE_AS4, 169 }, 
	{ NOTE_AS3, 169 }, 
	{ NOTE_DS4, 169 }, 
	{ NOTE_FS4, 169 }, 
	{ NOTE_A4, 165 }, 
	{ NOTE_AS3, 169 }, 
	{ NOTE_DS4, 169 }, 
	{ NOTE_FS4, 169 }, 
	{ NOTE_GS4, 169 }, 
	{ NOTE_AS3, 169 }, 
	{ NOTE_DS4, 169 }, 
	{ NOTE_FS4, 169 }, 
	{ NOTE_F4, 165 }, 
	{ NOTE_AS3, 169 }, 
	{ NOTE_DS4, 169 }, 
	{ NOTE_FS4, 169 }, 
	{ NOTE_AS4, 169 }, 
	{ NOTE_AS3, 169 }, 
	{ NOTE_DS4, 169 }, 
	{ NOTE_FS4, 169 }, 
	{ NOTE_A4, 165 }, 
	{ NOTE_AS3, 169 }, 
	{ NOTE_DS4, 169 }, 
	{ NOTE_FS4, 169 }, 
	{ NOTE_GS4, 169 }, 
	{ NOTE_AS3, 169 }, 
	{ NOTE_DS4, 169 }, 
	{ NOTE_FS4, 169 }, 
	{ NOTE_F4, 165 }, 
	{ NOTE_AS3, 169 }, 
	{ NOTE_DS4, 169 }, 
	{ NOTE_FS4, 169 }, 
	{ NOTE_AS4, 169 }, 
	{ NOTE_AS3, 169 }, 
	{ NOTE_DS4, 169 }, 
	{ NOTE_FS4, 169 }, 
	{ NOTE_A4, 165 }, 
	{ NOTE_AS3, 169 }, 
	{ NOTE_DS4, 169 }, 
	{ NOTE_FS4, 169 }, 
	{ NOTE_GS4, 169 }, 
	{ NOTE_AS3, 169 }, 
	{ NOTE_DS4, 169 }, 
	{ NOTE_FS4, 169 }, 
	{ NOTE_F4, 165 }, 
	{ NOTE_AS3, 169 }, 
	{ NOTE_DS4, 169 }, 
	{ NOTE_FS4, 169 }, 
	{ NOTE_AS4, 169 }, 
	{ NOTE_AS3, 169 }, 
	{ NOTE_DS4, 169 }, 
	{ NOTE_FS4, 169 }, 
	{ NOTE_A4, 165 }, 
	{ NOTE_AS3, 169 }, 
	{ NOTE_DS4, 169 }, 
	{ NOTE_FS4, 169 }, 
	{ NOTE_GS4, 169 }, 
	{ NOTE_AS3, 169 }, 
	{ NOTE_DS4, 169 }, 
	{ NOTE_FS4, 169 }, 
	{ NOTE_F4, 165 }, 
	{ NOTE_DS3, 169 }, 
	{ NOTE_DS3, 169 }, 
	{ NOTE_FS3, 169 }, 
	{ NOTE_AS3, 169 }, 
	{ NOTE_DS3, 169 }, 
	{ NOTE_DS3, 169 }, 
	{ NOTE_FS3, 169 }, 
	{ NOTE_A3, 165 }, 
	{ NOTE_DS3, 169 }, 
	{ NOTE_DS3, 169 }, 
	{ NOTE_FS3, 169 }, 
	{ NOTE_GS3, 169 }, 
	{ NOTE_DS3, 169 }, 
	{ NOTE_DS3, 169 }, 
	{ NOTE_FS3, 169 }, 
	{ NOTE_F3, 165 }, 
	{ NOTE_DS3, 169 }, 
	{ NOTE_DS3, 169 }, 
	{ NOTE_FS3, 169 }, 
	{ NOTE_AS3, 169 }, 
	{ NOTE_DS3, 169 }, 
	{ NOTE_DS3, 169 }, 
	{ NOTE_FS3, 169 }, 
	{ NOTE_A3, 165 }, 
	{ NOTE_DS3, 169 }, 
	{ NOTE_DS3, 169 }, 
	{ NOTE_FS3, 169 }, 
	{ NOTE_GS3, 169 }, 
	{ NOTE_DS3, 169 }, 
	{ NOTE_DS3, 169 }, 
	{ NOTE_FS3, 169 }, 
	{ NOTE_F3, 165 }, 
	{ NOTE_DS3, 169 }, 
	{ NOTE_DS3, 169 }, 
	{ NOTE_FS3, 169 }, 
	{ NOTE_AS3, 169 }, 
	{ NOTE_DS3, 169 }, 
	{ NOTE_DS3, 169 }, 
	{ NOTE_FS3, 169 }, 
	{ NOTE_A3, 165 }, 
	{ NOTE_DS3, 169 }, 
	{ NOTE_DS3, 169 }, 
	{ NOTE_FS3, 169 }, 
	{ NOTE_GS3, 169 }, 
	{ NOTE_DS3, 169 }, 
	{ NOTE_DS3, 169 }, 
	{ NOTE_FS3, 169 }, 
	{ NOTE_F3, 165 }, 
	{ NOTE_DS3, 169 }, 
	{ NOTE_DS3, 169 }, 
	{ NOTE_FS3, 169 }, 
	{ NOTE_AS3, 169 }, 
	{ NOTE_DS3, 169 }, 
	{ NOTE_DS3, 169 }, 
	{ NOTE_FS3, 169 }, 
	{ NOTE_A3, 165 }, 
	{ NOTE_DS3, 169 }, 
	{ NOTE_DS3, 169 }, 
	{ NOTE_FS3, 169 }, 
	{ NOTE_GS3, 169 }, 
	{ NOTE_DS3, 169 }, 
	{ NOTE_DS3, 169 }, 
	{ NOTE_FS3, 169 }, 
	{ NOTE_F3, 165 }, 
	{ NOTE_DS3, 84 }, 
	{ NOTE_DS3, 84 }, 
	{ NOTE_DS3, 84 }, 
	{ NOTE_DS3, 84 }, 
	{ NOTE_DS3, 84 }, 
	{ NOTE_DS3, 84 }, 
	{ NOTE_DS3, 84 }, 
	{ NOTE_DS3, 84 }, 
	{ NOTE_DS3, 84 }, 
	{ NOTE_DS3, 84 }, 
	{ NOTE_DS3, 84 }, 
	{ NOTE_DS3, 84 }, 
	{ NOTE_DS3, 84 }, 
	{ NOTE_DS3, 84 }, 
	{ NOTE_DS3, 84 }, 
	{ NOTE_DS3, 88 }, 
	{ NOTE_DS3, 84 }, 
	{ NOTE_DS3, 84 }, 
	{ NOTE_DS3, 84 }, 
	{ NOTE_DS3, 84 }, 
	{ NOTE_DS3, 84 }, 
	{ NOTE_DS3, 84 }, 
	{ NOTE_DS3, 84 }, 
	{ NOTE_DS3, 84 }, 
	{ NOTE_DS3, 84 }, 
	{ NOTE_DS3, 84 }, 
	{ NOTE_DS3, 84 }, 
	{ NOTE_DS3, 84 }, 
	{ NOTE_DS3, 84 }, 
	{ NOTE_DS3, 84 }, 
	{ NOTE_DS3, 84 }, 
	{ NOTE_DS3, 88 }, 
	{ NOTE_DS3, 84 }, 
	{ NOTE_DS3, 84 }, 
	{ NOTE_DS3, 84 }, 
	{ NOTE_DS3, 84 }, 
	{ NOTE_DS3, 84 }, 
	{ NOTE_DS3, 84 }, 
	{ NOTE_DS3, 84 }, 
	{ NOTE_DS3, 86 }, 
	{ NOTE_DS3, 84 }, 
	{ NOTE_DS3, 84 }, 
	{ NOTE_DS3, 84 }, 
	{ NOTE_DS3, 84 }, 
	{ NOTE_DS3, 84 }, 
	{ NOTE_DS3, 84 }, 
	{ NOTE_DS3, 84 }, 
	{ NOTE_DS3, 84 }, 
	{ NOTE_DS3, 84 }, 
	{ NOTE_DS3, 84 }, 
	{ NOTE_DS3, 84 }, 
	{ NOTE_DS3, 84 }, 
	{ NOTE_DS3, 84 }, 
	{ NOTE_DS3, 84 }, 
	{ NOTE_DS3, 84 }, 
	{ NOTE_DS3, 88 }, 
	{ NOTE_DS3, 121 }, 
	{ NOTE_DS3, 121 }, 
	{ NOTE_DS3, 121 }, 
	{ NOTE_DS3, 121 }, 
	{ NOTE_E3, 121 }, 
	{ NOTE_E3, 121 }, 
	{ NOTE_AS3, 121 }, 
	{ NOTE_AS3, 125 }, 
	{ NOTE_A3, 121 }, 
	{ NOTE_A3, 121 }, 
	{ NOTE_A3, 121 }, 
	{ NOTE_FS3, 121 }, 
	{ NOTE_FS3, 121 }, 
	{ NOTE_FS3, 121 }, 
	{ NOTE_FS3, 121 }, 
	{ NOTE_FS3, 125 }, 
	{ NOTE_G3, 121 }, 
	{ NOTE_G3, 121 }, 
	{ NOTE_G3, 121 }, 
	{ NOTE_G3, 121 }, 
	{ NOTE_G3, 121 }, 
	{ NOTE_G3, 121 }, 
	{ NOTE_B3, 121 }, 
	{ NOTE_B3, 125 }, 
	{ NOTE_AS3, 121 }, 
	{ NOTE_AS3, 121 }, 
	{ NOTE_AS3, 121 }, 
	{ NOTE_AS3, 121 }, 
	{ NOTE_AS3, 121 }, 
	{ NOTE_AS3, 121 }, 
	{ NOTE_B3, 121 }, 
	{ NOTE_B3, 125 }, 
	{ NOTE_DS3, 121 }, 
	{ NOTE_DS3, 121 }, 
	{ NOTE_DS3, 121 }, 
	{ NOTE_DS3, 121 }, 
	{ NOTE_E3, 121 }, 
	{ NOTE_E3, 121 }, 
	{ NOTE_AS3, 121 }, 
	{ NOTE_AS3, 125 }, 
	{ NOTE_A3, 121 }, 
	{ NOTE_A3, 121 }, 
	{ NOTE_A3, 121 }, 
	{ NOTE_FS3, 121 }, 
	{ NOTE_FS3, 121 }, 
	{ NOTE_FS3, 121 }, 
	{ NOTE_FS3, 121 }, 
	{ NOTE_FS3, 125 }, 
	{ NOTE_DS3, 121 }, 
	{ NOTE_DS3, 121 }, 
	{ NOTE_DS3, 121 }, 
	{ NOTE_DS3, 121 }, 
	{ NOTE_DS3, 121 }, 
	{ NOTE_DS3, 121 }, 
	{ NOTE_DS3, 121 }, 
	{ NOTE_DS3, 125 }, 
	{ NOTE_DS3, 121 }, 
	{ NOTE_DS3, 121 }, 
	{ NOTE_DS3, 121 }, 
	{ NOTE_DS3, 121 }, 
	{ NOTE_DS3, 121 }, 
	{ NOTE_DS3, 121 }, 
	{ NOTE_DS3, 121 }, 
	{ NOTE_DS3, 125 }, 
	{ NOTE_DS3, 121 }, 
	{ NOTE_DS3, 121 }, 
	{ NOTE_DS3, 121 }, 
	{ NOTE_DS3, 121 }, 
	{ NOTE_DS3, 121 }, 
	{ NOTE_DS3, 121 }, 
	{ NOTE_DS3, 121 }, 
	{ NOTE_DS3, 125 }, 
	{ NOTE_DS3, 121 }, 
	{ NOTE_DS3, 121 }, 
	{ NOTE_DS3, 121 }, 
	{ NOTE_DS3, 121 }, 
	{ NOTE_DS3, 121 }, 
	{ NOTE_REST, 121 }, 
	{ NOTE_REST, 246 }, 
};
const uint16_t NUM_OF_NOTES3 = sizeof(melody3)/sizeof(melody3[0]);

const Note melody4[] PROGMEM = {
	{ NOTE_REST, 1348 }, 
	{ NOTE_REST, 1348 }, 
	{ NOTE_REST, 1348 }, 
	{ NOTE_REST, 1348 }, 
	{ NOTE_DS3, 169 }, 
	{ NOTE_DS3, 169 }, 
	{ NOTE_DS3, 169 }, 
	{ NOTE_GS4, 169 }, 
	{ NOTE_D5, 169 }, 
	{ NOTE_DS5, 169 }, 
	{ NOTE_D5, 334 }, 
	{ NOTE_AS4, 169 }, 
	{ NOTE_D5, 169 }, 
	{ NOTE_CS5, 337 }, 
	{ NOTE_A4, 169 }, 
	{ NOTE_CS5, 169 }, 
	{ NOTE_C5, 335 }, 
	{ NOTE_DS3, 169 }, 
	{ NOTE_DS3, 169 }, 
	{ NOTE_DS3, 169 }, 
	{ NOTE_GS4, 169 }, 
	{ NOTE_D5, 169 }, 
	{ NOTE_DS5, 169 }, 
	{ NOTE_D5, 334 }, 
	{ NOTE_AS4, 169 }, 
	{ NOTE_D5, 169 }, 
	{ NOTE_CS5, 337 }, 
	{ NOTE_A4, 169 }, 
	{ NOTE_CS5, 169 }, 
	{ NOTE_C5, 335 }, 
	{ NOTE_DS3, 84 }, 
	{ NOTE_DS3, 84 }, 
	{ NOTE_DS3, 169 }, 
	{ NOTE_DS3, 84 }, 
	{ NOTE_DS3, 84 }, 
	{ NOTE_DS3, 169 }, 
	{ NOTE_DS3, 84 }, 
	{ NOTE_DS3, 84 }, 
	{ NOTE_DS3, 169 }, 
	{ NOTE_DS3, 84 }, 
	{ NOTE_DS3, 84 }, 
	{ NOTE_DS3, 169 }, 
	{ NOTE_DS3, 84 }, 
	{ NOTE_DS3, 84 }, 
	{ NOTE_DS3, 169 }, 
	{ NOTE_DS3, 84 }, 
	{ NOTE_DS3, 84 }, 
	{ NOTE_DS3, 169 }, 
	{ NOTE_DS3, 84 }, 
	{ NOTE_DS3, 84 }, 
	{ NOTE_DS3, 169 }, 
	{ NOTE_DS3, 84 }, 
	{ NOTE_DS3, 84 }, 
	{ NOTE_DS3, 169 }, 
	{ NOTE_DS3, 84 }, 
	{ NOTE_DS3, 84 }, 
	{ NOTE_DS3, 169 }, 
	{ NOTE_DS3, 84 }, 
	{ NOTE_DS3, 84 }, 
	{ NOTE_DS3, 169 }, 
	{ NOTE_DS3, 84 }, 
	{ NOTE_DS3, 84 }, 
	{ NOTE_DS3, 169 }, 
	{ NOTE_DS3, 84 }, 
	{ NOTE_DS3, 84 }, 
	{ NOTE_DS3, 169 }, 
	{ NOTE_DS3, 169 }, 
	{ NOTE_F3, 169 }, 
	{ NOTE_G3, 169 }, 
	{ NOTE_C4, 169 }, 
	{ NOTE_E4, 169 }, 
	{ NOTE_DS4, 169 }, 
	{ NOTE_B3, 169 }, 
	{ NOTE_AS3, 165 }, 
	{ NOTE_DS3, 84 }, 
	{ NOTE_DS3, 84 }, 
	{ NOTE_DS3, 169 }, 
	{ NOTE_DS3, 84 }, 
	{ NOTE_DS3, 84 }, 
	{ NOTE_DS3, 169 }, 
	{ NOTE_DS3, 84 }, 
	{ NOTE_DS3, 84 }, 
	{ NOTE_DS3, 169 }, 
	{ NOTE_DS3, 84 }, 
	{ NOTE_DS3, 84 }, 
	{ NOTE_DS3, 169 }, 
	{ NOTE_DS3, 84 }, 
	{ NOTE_DS3, 84 }, 
	{ NOTE_DS3, 169 }, 
	{ NOTE_DS3, 84 }, 
	{ NOTE_DS3, 84 }, 
	{ NOTE_DS3, 169 }, 
	{ NOTE_DS3, 84 }, 
	{ NOTE_DS3, 84 }, 
	{ NOTE_DS3, 169 }, 
	{ NOTE_DS3, 84 }, 
	{ NOTE_DS3, 84 }, 
	{ NOTE_DS3, 169 }, 
	{ NOTE_DS3, 84 }, 
	{ NOTE_DS3, 84 }, 
	{ NOTE_DS3, 169 }, 
	{ NOTE_DS3, 84 }, 
	{ NOTE_DS3, 84 }, 
	{ NOTE_DS3, 169 }, 
	{ NOTE_DS3, 84 }, 
	{ NOTE_DS3, 84 }, 
	{ NOTE_DS3, 169 }, 
	{ NOTE_DS3, 84 }, 
	{ NOTE_DS3, 84 }, 
	{ NOTE_DS3, 169 }, 
	{ NOTE_DS3, 169 }, 
	{ NOTE_F3, 169 }, 
	{ NOTE_G3, 169 }, 
	{ NOTE_C4, 169 }, 
	{ NOTE_E4, 169 }, 
	{ NOTE_DS4, 169 }, 
	{ NOTE_B3, 169 }, 
	{ NOTE_AS3, 165 }, 
	{ NOTE_DS3, 84 }, 
	{ NOTE_DS3, 84 }, 
	{ NOTE_DS3, 169 }, 
	{ NOTE_DS3, 84 }, 
	{ NOTE_DS3, 84 }, 
	{ NOTE_DS3, 169 }, 
	{ NOTE_DS3, 84 }, 
	{ NOTE_DS3, 84 }, 
	{ NOTE_DS3, 169 }, 
	{ NOTE_DS3, 84 }, 
	{ NOTE_DS3, 84 }, 
	{ NOTE_DS3, 169 }, 
	{ NOTE_DS3, 84 }, 
	{ NOTE_DS3, 84 }, 
	{ NOTE_DS3, 169 }, 
	{ NOTE_DS3, 84 }, 
	{ NOTE_DS3, 84 }, 
	{ NOTE_DS3, 169 }, 
	{ NOTE_DS3, 84 }, 
	{ NOTE_DS3, 84 }, 
	{ NOTE_DS3, 169 }, 
	{ NOTE_DS3, 84 }, 
	{ NOTE_DS3, 84 }, 
	{ NOTE_DS3, 169 }, 
	{ NOTE_DS3, 84 }, 
	{ NOTE_DS3, 84 }, 
	{ NOTE_DS3, 169 }, 
	{ NOTE_DS3, 84 }, 
	{ NOTE_DS3, 84 }, 
	{ NOTE_DS3, 169 }, 
	{ NOTE_DS3, 84 }, 
	{ NOTE_DS3, 84 }, 
	{ NOTE_DS3, 169 }, 
	{ NOTE_DS3, 84 }, 
	{ NOTE_DS3, 84 }, 
	{ NOTE_DS3, 169 }, 
	{ NOTE_DS3, 169 }, 
	{ NOTE_F3, 169 }, 
	{ NOTE_G3, 169 }, 
	{ NOTE_C4, 169 }, 
	{ NOTE_E4, 169 }, 
	{ NOTE_DS4, 169 }, 
	{ NOTE_B3, 169 }, 
	{ NOTE_AS3, 165 }, 
	{ NOTE_DS3, 84 }, 
	{ NOTE_DS3, 84 }, 
	{ NOTE_DS3, 169 }, 
	{ NOTE_DS3, 84 }, 
	{ NOTE_DS3, 84 }, 
	{ NOTE_DS3, 169 }, 
	{ NOTE_DS3, 84 }, 
	{ NOTE_DS3, 84 }, 
	{ NOTE_DS3, 169 }, 
	{ NOTE_DS3, 84 }, 
	{ NOTE_DS3, 84 }, 
	{ NOTE_DS3, 169 }, 
	{ NOTE_DS3, 84 }, 
	{ NOTE_DS3, 84 }, 
	{ NOTE_DS3, 169 }, 
	{ NOTE_DS3, 84 }, 
	{ NOTE_DS3, 84 }, 
	{ NOTE_DS3, 169 }, 
	{ NOTE_DS3, 84 }, 
	{ NOTE_DS3, 84 }, 
	{ NOTE_DS3, 169 }, 
	{ NOTE_DS3, 84 }, 
	{ NOTE_DS3, 84 }, 
	{ NOTE_DS3, 169 }, 
	{ NOTE_DS3, 84 }, 
	{ NOTE_DS3, 84 }, 
	{ NOTE_DS3, 169 }, 
	{ NOTE_DS3, 84 }, 
	{ NOTE_DS3, 84 }, 
	{ NOTE_DS3, 169 }, 
	{ NOTE_DS3, 84 }, 
	{ NOTE_DS3, 84 }, 
	{ NOTE_DS3, 169 }, 
	{ NOTE_DS3, 84 }, 
	{ NOTE_DS3, 84 }, 
	{ NOTE_DS3, 169 }, 
	{ NOTE_DS3, 169 }, 
	{ NOTE_F3, 169 }, 
	{ NOTE_G3, 169 }, 
	{ NOTE_C4, 169 }, 
	{ NOTE_E4, 169 }, 
	{ NOTE_DS4, 169 }, 
	{ NOTE_B3, 169 }, 
	{ NOTE_AS3, 165 }, 
	{ NOTE_GS3, 70 }, 
	{ NOTE_FS3, 70 }, 
	{ NOTE_F3, 70 }, 
	{ NOTE_DS3, 70 }, 
	{ NOTE_A3, 70 }, 
	{ NOTE_GS3, 70 }, 
	{ NOTE_FS3, 70 }, 
	{ NOTE_DS3, 70 }, 
	{ NOTE_GS3, 70 }, 
	{ NOTE_FS3, 70 }, 
	{ NOTE_F3, 70 }, 
	{ NOTE_DS3, 70 }, 
	{ NOTE_A3, 70 }, 
	{ NOTE_GS3, 70 }, 
	{ NOTE_FS3, 70 }, 
	{ NOTE_DS3, 71 }, 
	{ NOTE_GS3, 70 }, 
	{ NOTE_FS3, 70 }, 
	{ NOTE_F3, 70 }, 
	{ NOTE_DS3, 70 }, 
	{ NOTE_A3, 70 }, 
	{ NOTE_GS3, 70 }, 
	{ NOTE_FS3, 70 }, 
	{ NOTE_DS3, 70 }, 
	{ NOTE_GS3, 70 }, 
	{ NOTE_FS3, 70 }, 
	{ NOTE_F3, 70 }, 
	{ NOTE_DS3, 70 }, 
	{ NOTE_A3, 70 }, 
	{ NOTE_GS3, 70 }, 
	{ NOTE_FS3, 70 }, 
	{ NOTE_DS3, 71 }, 
	{ NOTE_GS3, 70 }, 
	{ NOTE_FS3, 70 }, 
	{ NOTE_F3, 70 }, 
	{ NOTE_DS3, 70 }, 
	{ NOTE_A3, 70 }, 
	{ NOTE_GS3, 70 }, 
	{ NOTE_FS3, 70 }, 
	{ NOTE_DS3, 70 }, 
	{ NOTE_GS3, 70 }, 
	{ NOTE_FS3, 70 }, 
	{ NOTE_F3, 70 }, 
	{ NOTE_DS3, 70 }, 
	{ NOTE_E4, 281 }, 
	{ NOTE_GS3, 70 }, 
	{ NOTE_FS3, 70 }, 
	{ NOTE_F3, 70 }, 
	{ NOTE_DS3, 70 }, 
	{ NOTE_A3, 70 }, 
	{ NOTE_GS3, 70 }, 
	{ NOTE_FS3, 70 }, 
	{ NOTE_DS3, 70 }, 
	{ NOTE_GS3, 70 }, 
	{ NOTE_FS3, 70 }, 
	{ NOTE_F3, 70 }, 
	{ NOTE_DS3, 70 }, 
	{ NOTE_A3, 70 }, 
	{ NOTE_GS3, 70 }, 
	{ NOTE_FS3, 70 }, 
	{ NOTE_DS3, 71 }, 
	{ NOTE_GS3, 70 }, 
	{ NOTE_FS3, 70 }, 
	{ NOTE_F3, 70 }, 
	{ NOTE_DS3, 70 }, 
	{ NOTE_A3, 70 }, 
	{ NOTE_GS3, 70 }, 
	{ NOTE_FS3, 70 }, 
	{ NOTE_DS3, 70 }, 
	{ NOTE_CS4, 280 }, 
	{ NOTE_E4, 281 }, 
	{ NOTE_DS3, 140 }, 
	{ NOTE_DS3, 70 }, 
	{ NOTE_DS3, 70 }, 
	{ NOTE_DS3, 140 }, 
	{ NOTE_DS3, 140 }, 
	{ NOTE_FS4, 140 }, 
	{ NOTE_AS4, 140 }, 
	{ NOTE_A4, 281 }, 
	{ NOTE_DS3, 140 }, 
	{ NOTE_DS3, 70 }, 
	{ NOTE_DS3, 70 }, 
	{ NOTE_DS3, 140 }, 
	{ NOTE_DS3, 140 }, 
	{ NOTE_F4, 140 }, 
	{ NOTE_F4, 140 }, 
	{ NOTE_GS4, 281 }, 
	{ NOTE_DS3, 140 }, 
	{ NOTE_DS3, 70 }, 
	{ NOTE_DS3, 70 }, 
	{ NOTE_DS3, 140 }, 
	{ NOTE_DS3, 140 }, 
	{ NOTE_FS4, 140 }, 
	{ NOTE_AS4, 140 }, 
	{ NOTE_A4, 281 }, 
	{ NOTE_DS3, 140 }, 
	{ NOTE_DS3, 70 }, 
	{ NOTE_DS3, 70 }, 
	{ NOTE_DS3, 140 }, 
	{ NOTE_DS3, 140 }, 
	{ NOTE_F4, 140 }, 
	{ NOTE_F4, 140 }, 
	{ NOTE_GS4, 281 }, 
	{ NOTE_DS3, 140 }, 
	{ NOTE_DS3, 70 }, 
	{ NOTE_DS3, 70 }, 
	{ NOTE_DS3, 140 }, 
	{ NOTE_DS3, 140 }, 
	{ NOTE_FS4, 140 }, 
	{ NOTE_AS4, 140 }, 
	{ NOTE_A4, 281 }, 
	{ NOTE_DS3, 140 }, 
	{ NOTE_DS3, 70 }, 
	{ NOTE_DS3, 70 }, 
	{ NOTE_DS3, 140 }, 
	{ NOTE_DS3, 140 }, 
	{ NOTE_F4, 140 }, 
	{ NOTE_F4, 140 }, 
	{ NOTE_GS4, 281 }, 
	{ NOTE_DS3, 140 }, 
	{ NOTE_DS3, 70 }, 
	{ NOTE_DS3, 70 }, 
	{ NOTE_DS3, 140 }, 
	{ NOTE_DS3, 140 }, 
	{ NOTE_FS4, 140 }, 
	{ NOTE_AS4, 140 }, 
	{ NOTE_A4, 281 }, 
	{ NOTE_DS3, 140 }, 
	{ NOTE_DS3, 70 }, 
	{ NOTE_DS3, 70 }, 
	{ NOTE_DS3, 140 }, 
	{ NOTE_DS3, 140 }, 
	{ NOTE_F4, 140 }, 
	{ NOTE_F4, 140 }, 
	{ NOTE_GS4, 281 }, 
	{ NOTE_DS3, 140 }, 
	{ NOTE_DS3, 70 }, 
	{ NOTE_DS3, 70 }, 
	{ NOTE_DS3, 140 }, 
	{ NOTE_DS3, 140 }, 
	{ NOTE_FS4, 140 }, 
	{ NOTE_AS4, 140 }, 
	{ NOTE_A4, 281 }, 
	{ NOTE_DS3, 140 }, 
	{ NOTE_DS3, 70 }, 
	{ NOTE_DS3, 70 }, 
	{ NOTE_DS3, 140 }, 
	{ NOTE_DS3, 140 }, 
	{ NOTE_F4, 140 }, 
	{ NOTE_F4, 140 }, 
	{ NOTE_GS4, 281 }, 
	{ NOTE_DS3, 140 }, 
	{ NOTE_DS3, 70 }, 
	{ NOTE_DS3, 70 }, 
	{ NOTE_DS3, 140 }, 
	{ NOTE_DS3, 140 }, 
	{ NOTE_FS4, 140 }, 
	{ NOTE_AS4, 140 }, 
	{ NOTE_A4, 281 }, 
	{ NOTE_DS3, 140 }, 
	{ NOTE_DS3, 70 }, 
	{ NOTE_DS3, 70 }, 
	{ NOTE_DS3, 140 }, 
	{ NOTE_DS3, 140 }, 
	{ NOTE_F4, 140 }, 
	{ NOTE_F4, 140 }, 
	{ NOTE_GS4, 281 }, 
	{ NOTE_DS3, 140 }, 
	{ NOTE_DS3, 70 }, 
	{ NOTE_DS3, 70 }, 
	{ NOTE_DS3, 140 }, 
	{ NOTE_DS3, 140 }, 
	{ NOTE_FS4, 140 }, 
	{ NOTE_AS4, 140 }, 
	{ NOTE_A4, 281 }, 
	{ NOTE_DS3, 140 }, 
	{ NOTE_DS3, 70 }, 
	{ NOTE_DS3, 70 }, 
	{ NOTE_DS3, 140 }, 
	{ NOTE_DS3, 140 }, 
	{ NOTE_F4, 140 }, 
	{ NOTE_F4, 140 }, 
	{ NOTE_GS4, 281 }, 
	{ NOTE_DS3, 140 }, 
	{ NOTE_DS3, 70 }, 
	{ NOTE_DS3, 70 }, 
	{ NOTE_DS3, 140 }, 
	{ NOTE_DS3, 140 }, 
	{ NOTE_FS4, 140 }, 
	{ NOTE_AS4, 140 }, 
	{ NOTE_A4, 281 }, 
	{ NOTE_DS3, 140 }, 
	{ NOTE_DS3, 70 }, 
	{ NOTE_DS3, 70 }, 
	{ NOTE_DS3, 140 }, 
	{ NOTE_DS3, 140 }, 
	{ NOTE_F4, 140 }, 
	{ NOTE_F4, 140 }, 
	{ NOTE_GS4, 281 }, 
	{ NOTE_DS3, 160 }, 
	{ NOTE_DS3, 160 }, 
	{ NOTE_DS3, 160 }, 
	{ NOTE_DS3, 160 }, 
	{ NOTE_DS4, 80 }, 
	{ NOTE_FS4, 80 }, 
	{ NOTE_E4, 80 }, 
	{ NOTE_DS4, 80 }, 
	{ NOTE_E4, 317 }, 
	{ NOTE_DS3, 160 }, 
	{ NOTE_DS3, 160 }, 
	{ NOTE_DS3, 160 }, 
	{ NOTE_DS4, 160 }, 
	{ NOTE_FS4, 160 }, 
	{ NOTE_A4, 160 }, 
	{ NOTE_GS4, 317 }, 
	{ NOTE_A4, 160 }, 
	{ NOTE_A4, 160 }, 
	{ NOTE_A4, 160 }, 
	{ NOTE_A4, 160 }, 
	{ NOTE_A4, 160 }, 
	{ NOTE_A4, 160 }, 
	{ NOTE_A4, 160 }, 
	{ NOTE_A4, 157 }, 
	{ NOTE_A4, 160 }, 
	{ NOTE_A4, 160 }, 
	{ NOTE_A4, 160 }, 
	{ NOTE_A4, 160 }, 
	{ NOTE_DS4, 319 }, 
	{ NOTE_DS4, 318 }, 
	{ NOTE_DS3, 160 }, 
	{ NOTE_DS3, 160 }, 
	{ NOTE_DS3, 160 }, 
	{ NOTE_DS3, 160 }, 
	{ NOTE_DS4, 80 }, 
	{ NOTE_FS4, 80 }, 
	{ NOTE_E4, 80 }, 
	{ NOTE_DS4, 80 }, 
	{ NOTE_E4, 317 }, 
	{ NOTE_DS3, 160 }, 
	{ NOTE_DS3, 160 }, 
	{ NOTE_DS3, 160 }, 
	{ NOTE_DS4, 160 }, 
	{ NOTE_FS4, 160 }, 
	{ NOTE_A4, 160 }, 
	{ NOTE_GS4, 317 }, 
	{ NOTE_A4, 160 }, 
	{ NOTE_A4, 160 }, 
	{ NOTE_A4, 160 }, 
	{ NOTE_A4, 160 }, 
	{ NOTE_A4, 160 }, 
	{ NOTE_A4, 160 }, 
	{ NOTE_A4, 160 }, 
	{ NOTE_A4, 157 }, 
	{ NOTE_A4, 160 }, 
	{ NOTE_A4, 160 }, 
	{ NOTE_A4, 160 }, 
	{ NOTE_A4, 160 }, 
	{ NOTE_DS4, 319 }, 
	{ NOTE_DS4, 318 }, 
	{ NOTE_DS3, 160 }, 
	{ NOTE_DS3, 160 }, 
	{ NOTE_DS3, 160 }, 
	{ NOTE_DS3, 160 }, 
	{ NOTE_DS4, 80 }, 
	{ NOTE_FS4, 80 }, 
	{ NOTE_E4, 80 }, 
	{ NOTE_DS4, 80 }, 
	{ NOTE_E4, 317 }, 
	{ NOTE_DS3, 160 }, 
	{ NOTE_DS3, 160 }, 
	{ NOTE_DS3, 160 }, 
	{ NOTE_DS4, 160 }, 
	{ NOTE_FS4, 160 }, 
	{ NOTE_A4, 160 }, 
	{ NOTE_GS4, 317 }, 
	{ NOTE_A4, 160 }, 
	{ NOTE_A4, 160 }, 
	{ NOTE_A4, 160 }, 
	{ NOTE_A4, 160 }, 
	{ NOTE_A4, 160 }, 
	{ NOTE_A4, 160 }, 
	{ NOTE_A4, 160 }, 
	{ NOTE_A4, 157 }, 
	{ NOTE_A4, 160 }, 
	{ NOTE_A4, 160 }, 
	{ NOTE_A4, 160 }, 
	{ NOTE_A4, 160 }, 
	{ NOTE_DS4, 319 }, 
	{ NOTE_DS4, 318 }, 
	{ NOTE_DS3, 169 }, 
	{ NOTE_DS3, 169 }, 
	{ NOTE_DS3, 169 }, 
	{ NOTE_DS4, 169 }, 
	{ NOTE_A4, 169 }, 
	{ NOTE_AS4, 169 }, 
	{ NOTE_A4, 334 }, 
	{ NOTE_F4, 169 }, 
	{ NOTE_A4, 169 }, 
	{ NOTE_GS4, 337 }, 
	{ NOTE_E4, 169 }, 
	{ NOTE_GS4, 169 }, 
	{ NOTE_G4, 335 }, 
	{ NOTE_DS3, 169 }, 
	{ NOTE_DS3, 169 }, 
	{ NOTE_DS3, 169 }, 
	{ NOTE_DS4, 169 }, 
	{ NOTE_A4, 169 }, 
	{ NOTE_AS4, 169 }, 
	{ NOTE_A4, 334 }, 
	{ NOTE_F4, 169 }, 
	{ NOTE_A4, 169 }, 
	{ NOTE_GS4, 337 }, 
	{ NOTE_E4, 169 }, 
	{ NOTE_GS4, 169 }, 
	{ NOTE_G4, 335 }, 
	{ NOTE_DS3, 169 }, 
	{ NOTE_DS3, 169 }, 
	{ NOTE_DS3, 169 }, 
	{ NOTE_AS4, 169 }, 
	{ NOTE_E5, 169 }, 
	{ NOTE_F5, 169 }, 
	{ NOTE_E5, 334 }, 
	{ NOTE_C5, 169 }, 
	{ NOTE_E5, 169 }, 
	{ NOTE_DS5, 337 }, 
	{ NOTE_B4, 169 }, 
	{ NOTE_DS5, 169 }, 
	{ NOTE_D5, 335 }, 
	{ NOTE_DS3, 169 }, 
	{ NOTE_DS3, 169 }, 
	{ NOTE_DS3, 169 }, 
	{ NOTE_AS4, 169 }, 
	{ NOTE_E5, 169 }, 
	{ NOTE_F5, 169 }, 
	{ NOTE_E5, 334 }, 
	{ NOTE_C5, 169 }, 
	{ NOTE_E5, 169 }, 
	{ NOTE_DS5, 337 }, 
	{ NOTE_B4, 169 }, 
	{ NOTE_DS5, 169 }, 
	{ NOTE_D5, 335 }, 
	{ NOTE_AS3, 169 }, 
	{ NOTE_AS3, 169 }, 
	{ NOTE_REST, 337 }, 
	{ NOTE_AS3, 169 }, 
	{ NOTE_AS3, 169 }, 
	{ NOTE_REST, 335 }, 
	{ NOTE_AS3, 169 }, 
	{ NOTE_AS3, 169 }, 
	{ NOTE_REST, 337 }, 
	{ NOTE_AS3, 169 }, 
	{ NOTE_AS3, 169 }, 
	{ NOTE_REST, 335 }, 
	{ NOTE_AS3, 169 }, 
	{ NOTE_DS4, 169 }, 
	{ NOTE_FS4, 169 }, 
	{ NOTE_AS4, 169 }, 
	{ NOTE_AS3, 169 }, 
	{ NOTE_DS4, 169 }, 
	{ NOTE_FS4, 169 }, 
	{ NOTE_A4, 165 }, 
	{ NOTE_AS3, 169 }, 
	{ NOTE_DS4, 169 }, 
	{ NOTE_FS4, 169 }, 
	{ NOTE_GS4, 169 }, 
	{ NOTE_AS3, 169 }, 
	{ NOTE_DS4, 169 }, 
	{ NOTE_FS4, 169 }, 
	{ NOTE_F4, 165 }, 
	{ NOTE_AS3, 169 }, 
	{ NOTE_DS4, 169 }, 
	{ NOTE_FS4, 169 }, 
	{ NOTE_AS4, 169 }, 
	{ NOTE_AS3, 169 }, 
	{ NOTE_DS4, 169 }, 
	{ NOTE_FS4, 169 }, 
	{ NOTE_A4, 165 }, 
	{ NOTE_AS3, 169 }, 
	{ NOTE_DS4, 169 }, 
	{ NOTE_FS4, 169 }, 
	{ NOTE_GS4, 169 }, 
	{ NOTE_AS3, 169 }, 
	{ NOTE_DS4, 169 }, 
	{ NOTE_FS4, 169 }, 
	{ NOTE_F4, 165 }, 
	{ NOTE_AS3, 169 }, 
	{ NOTE_DS4, 169 }, 
	{ NOTE_FS4, 169 }, 
	{ NOTE_AS4, 169 }, 
	{ NOTE_AS3, 169 }, 
	{ NOTE_DS4, 169 }, 
	{ NOTE_FS4, 169 }, 
	{ NOTE_A4, 165 }, 
	{ NOTE_AS3, 169 }, 
	{ NOTE_DS4, 169 }, 
	{ NOTE_FS4, 169 }, 
	{ NOTE_GS4, 169 }, 
	{ NOTE_AS3, 169 }, 
	{ NOTE_DS4, 169 }, 
	{ NOTE_FS4, 169 }, 
	{ NOTE_F4, 165 }, 
	{ NOTE_AS3, 169 }, 
	{ NOTE_DS4, 169 }, 
	{ NOTE_FS4, 169 }, 
	{ NOTE_AS4, 169 }, 
	{ NOTE_AS3, 169 }, 
	{ NOTE_DS4, 169 }, 
	{ NOTE_FS4, 169 }, 
	{ NOTE_A4, 165 }, 
	{ NOTE_AS3, 169 }, 
	{ NOTE_DS4, 169 }, 
	{ NOTE_FS4, 169 }, 
	{ NOTE_GS4, 169 }, 
	{ NOTE_AS3, 169 }, 
	{ NOTE_DS4, 169 }, 
	{ NOTE_FS4, 169 }, 
	{ NOTE_F4, 165 }, 
	{ NOTE_AS3, 169 }, 
	{ NOTE_DS4, 169 }, 
	{ NOTE_FS4, 169 }, 
	{ NOTE_AS4, 169 }, 
	{ NOTE_AS3, 169 }, 
	{ NOTE_DS4, 169 }, 
	{ NOTE_FS4, 169 }, 
	{ NOTE_A4, 165 }, 
	{ NOTE_AS3, 169 }, 
	{ NOTE_DS4, 169 }, 
	{ NOTE_FS4, 169 }, 
	{ NOTE_GS4, 169 }, 
	{ NOTE_AS3, 169 }, 
	{ NOTE_DS4, 169 }, 
	{ NOTE_FS4, 169 }, 
	{ NOTE_F4, 165 }, 
	{ NOTE_AS3, 169 }, 
	{ NOTE_DS4, 169 }, 
	{ NOTE_FS4, 169 }, 
	{ NOTE_AS4, 169 }, 
	{ NOTE_AS3, 169 }, 
	{ NOTE_DS4, 169 }, 
	{ NOTE_FS4, 169 }, 
	{ NOTE_A4, 165 }, 
	{ NOTE_AS3, 169 }, 
	{ NOTE_DS4, 169 }, 
	{ NOTE_FS4, 169 }, 
	{ NOTE_GS4, 169 }, 
	{ NOTE_AS3, 169 }, 
	{ NOTE_DS4, 169 }, 
	{ NOTE_FS4, 169 }, 
	{ NOTE_F4, 165 }, 
	{ NOTE_DS3, 169 }, 
	{ NOTE_DS3, 169 }, 
	{ NOTE_CS4, 169 }, 
	{ NOTE_F4, 169 }, 
	{ NOTE_DS3, 169 }, 
	{ NOTE_DS3, 169 }, 
	{ NOTE_CS4, 169 }, 
	{ NOTE_E4, 165 }, 
	{ NOTE_DS3, 169 }, 
	{ NOTE_DS3, 169 }, 
	{ NOTE_CS4, 169 }, 
	{ NOTE_DS4, 169 }, 
	{ NOTE_DS3, 169 }, 
	{ NOTE_DS3, 169 }, 
	{ NOTE_CS4, 169 }, 
	{ NOTE_C4, 165 }, 
	{ NOTE_DS3, 169 }, 
	{ NOTE_DS3, 169 }, 
	{ NOTE_CS4, 169 }, 
	{ NOTE_F4, 169 }, 
	{ NOTE_DS3, 169 }, 
	{ NOTE_DS3, 169 }, 
	{ NOTE_CS4, 169 }, 
	{ NOTE_E4, 165 }, 
	{ NOTE_DS3, 169 }, 
	{ NOTE_DS3, 169 }, 
	{ NOTE_CS4, 169 }, 
	{ NOTE_DS4, 169 }, 
	{ NOTE_DS3, 169 }, 
	{ NOTE_DS3, 169 }, 
	{ NOTE_CS4, 169 }, 
	{ NOTE_C4, 165 }, 
	{ NOTE_DS3, 169 }, 
	{ NOTE_DS3, 169 }, 
	{ NOTE_CS4, 169 }, 
	{ NOTE_F4, 169 }, 
	{ NOTE_DS3, 169 }, 
	{ NOTE_DS3, 169 }, 
	{ NOTE_CS4, 169 }, 
	{ NOTE_E4, 165 }, 
	{ NOTE_DS3, 169 }, 
	{ NOTE_DS3, 169 }, 
	{ NOTE_CS4, 169 }, 
	{ NOTE_DS4, 169 }, 
	{ NOTE_DS3, 169 }, 
	{ NOTE_DS3, 169 }, 
	{ NOTE_CS4, 169 }, 
	{ NOTE_C4, 165 }, 
	{ NOTE_DS3, 169 }, 
	{ NOTE_DS3, 169 }, 
	{ NOTE_CS4, 169 }, 
	{ NOTE_F4, 169 }, 
	{ NOTE_DS3, 169 }, 
	{ NOTE_DS3, 169 }, 
	{ NOTE_CS4, 169 }, 
	{ NOTE_E4, 165 }, 
	{ NOTE_DS3, 169 }, 
	{ NOTE_DS3, 169 }, 
	{ NOTE_CS4, 169 }, 
	{ NOTE_DS4, 169 }, 
	{ NOTE_DS3, 169 }, 
	{ NOTE_DS3, 169 }, 
	{ NOTE_CS4, 169 }, 
	{ NOTE_C4, 165 }, 
	{ NOTE_DS3, 84 }, 
	{ NOTE_DS3, 84 }, 
	{ NOTE_DS3, 84 }, 
	{ NOTE_DS3, 84 }, 
	{ NOTE_DS3, 84 }, 
	{ NOTE_DS3, 84 }, 
	{ NOTE_DS3, 84 }, 
	{ NOTE_DS3, 84 }, 
	{ NOTE_DS3, 84 }, 
	{ NOTE_DS3, 84 }, 
	{ NOTE_DS3, 84 }, 
	{ NOTE_DS3, 84 }, 
	{ NOTE_DS3, 84 }, 
	{ NOTE_DS3, 84 }, 
	{ NOTE_DS3, 84 }, 
	{ NOTE_DS3, 88 }, 
	{ NOTE_DS3, 84 }, 
	{ NOTE_DS3, 84 }, 
	{ NOTE_DS3, 84 }, 
	{ NOTE_DS3, 84 }, 
	{ NOTE_DS3, 84 }, 
	{ NOTE_DS3, 84 }, 
	{ NOTE_DS3, 84 }, 
	{ NOTE_DS3, 84 }, 
	{ NOTE_DS3, 84 }, 
	{ NOTE_DS3, 84 }, 
	{ NOTE_DS3, 84 }, 
	{ NOTE_DS3, 84 }, 
	{ NOTE_DS3, 84 }, 
	{ NOTE_DS3, 84 }, 
	{ NOTE_DS3, 84 }, 
	{ NOTE_DS3, 88 }, 
	{ NOTE_DS3, 84 }, 
	{ NOTE_DS3, 84 }, 
	{ NOTE_DS3, 84 }, 
	{ NOTE_DS3, 84 }, 
	{ NOTE_DS3, 84 }, 
	{ NOTE_DS3, 84 }, 
	{ NOTE_DS3, 84 }, 
	{ NOTE_DS3, 86 }, 
	{ NOTE_DS3, 84 }, 
	{ NOTE_DS3, 84 }, 
	{ NOTE_DS3, 84 }, 
	{ NOTE_DS3, 84 }, 
	{ NOTE_DS3, 84 }, 
	{ NOTE_DS3, 84 }, 
	{ NOTE_DS3, 84 }, 
	{ NOTE_DS3, 84 }, 
	{ NOTE_DS3, 84 }, 
	{ NOTE_DS3, 84 }, 
	{ NOTE_DS3, 84 }, 
	{ NOTE_DS3, 84 }, 
	{ NOTE_DS3, 84 }, 
	{ NOTE_DS3, 84 }, 
	{ NOTE_DS3, 84 }, 
	{ NOTE_DS3, 88 }, 
	{ NOTE_DS3, 121 }, 
	{ NOTE_DS3, 121 }, 
	{ NOTE_DS3, 121 }, 
	{ NOTE_DS3, 121 }, 
	{ NOTE_E3, 121 }, 
	{ NOTE_E3, 121 }, 
	{ NOTE_AS3, 121 }, 
	{ NOTE_AS3, 125 }, 
	{ NOTE_A3, 121 }, 
	{ NOTE_A3, 121 }, 
	{ NOTE_A3, 121 }, 
	{ NOTE_FS3, 121 }, 
	{ NOTE_FS3, 121 }, 
	{ NOTE_FS3, 121 }, 
	{ NOTE_FS3, 121 }, 
	{ NOTE_FS3, 125 }, 
	{ NOTE_G3, 121 }, 
	{ NOTE_G3, 121 }, 
	{ NOTE_G3, 121 }, 
	{ NOTE_G3, 121 }, 
	{ NOTE_G3, 121 }, 
	{ NOTE_G3, 121 }, 
	{ NOTE_B3, 121 }, 
	{ NOTE_B3, 125 }, 
	{ NOTE_AS3, 121 }, 
	{ NOTE_AS3, 121 }, 
	{ NOTE_AS3, 121 }, 
	{ NOTE_AS3, 121 }, 
	{ NOTE_AS3, 121 }, 
	{ NOTE_AS3, 121 }, 
	{ NOTE_B3, 121 }, 
	{ NOTE_B3, 125 }, 
	{ NOTE_DS3, 121 }, 
	{ NOTE_DS3, 121 }, 
	{ NOTE_DS3, 121 }, 
	{ NOTE_DS3, 121 }, 
	{ NOTE_E3, 121 }, 
	{ NOTE_E3, 121 }, 
	{ NOTE_AS3, 121 }, 
	{ NOTE_AS3, 125 }, 
	{ NOTE_A3, 121 }, 
	{ NOTE_A3, 121 }, 
	{ NOTE_A3, 121 }, 
	{ NOTE_FS3, 121 }, 
	{ NOTE_FS3, 121 }, 
	{ NOTE_FS3, 121 }, 
	{ NOTE_FS3, 121 }, 
	{ NOTE_FS3, 125 }, 
	{ NOTE_DS3, 121 }, 
	{ NOTE_DS3, 121 }, 
	{ NOTE_DS3, 121 }, 
	{ NOTE_DS3, 121 }, 
	{ NOTE_DS3, 121 }, 
	{ NOTE_DS3, 121 }, 
	{ NOTE_DS3, 121 }, 
	{ NOTE_DS3, 125 }, 
	{ NOTE_DS3, 121 }, 
	{ NOTE_DS3, 121 }, 
	{ NOTE_DS3, 121 }, 
	{ NOTE_DS3, 121 }, 
	{ NOTE_DS3, 121 }, 
	{ NOTE_DS3, 121 }, 
	{ NOTE_DS3, 121 }, 
	{ NOTE_DS3, 125 }, 
	{ NOTE_DS3, 121 }, 
	{ NOTE_DS3, 121 }, 
	{ NOTE_DS3, 121 }, 
	{ NOTE_DS3, 121 }, 
	{ NOTE_DS3, 121 }, 
	{ NOTE_DS3, 121 }, 
	{ NOTE_DS3, 121 }, 
	{ NOTE_DS3, 125 }, 
	{ NOTE_DS3, 121 }, 
	{ NOTE_DS3, 121 }, 
	{ NOTE_DS3, 121 }, 
	{ NOTE_DS3, 121 }, 
	{ NOTE_DS3, 121 }, 
	{ NOTE_REST, 121 }, 
	{ NOTE_REST, 246 }, 
};
const uint16_t NUM_OF_NOTES4 = sizeof(melody4)/sizeof(melody4[0]);

