/*
 * Song: Eugene's Trick Bag by Steve Vai
 *
 *	Melody 0 | Steve Vai
 *	Melody 1 | Steve Vai
 *	Melody 2 | Steve Vai
 *	Melody 3 | Steve Vai
 *	Melody 4 | Steve Vai
*/

#include <Arduino.h>
#include "notes.h"

const Note melody0[] PROGMEM = {
	{ NOTE_REST, 750 }, 
	{ NOTE_REST, 94 }, 
	{ NOTE_A3, 94 }, 
	{ NOTE_B3, 94 }, 
	{ NOTE_A3, 94 }, 
	{ NOTE_C4, 94 }, 
	{ NOTE_A3, 94 }, 
	{ NOTE_B3, 94 }, 
	{ NOTE_A3, 92 }, 
	{ NOTE_C4, 94 }, 
	{ NOTE_A3, 94 }, 
	{ NOTE_B3, 94 }, 
	{ NOTE_A3, 94 }, 
	{ NOTE_C4, 94 }, 
	{ NOTE_A3, 94 }, 
	{ NOTE_B3, 94 }, 
	{ NOTE_A3, 94 }, 
	{ NOTE_C4, 94 }, 
	{ NOTE_A3, 94 }, 
	{ NOTE_B3, 94 }, 
	{ NOTE_A3, 94 }, 
	{ NOTE_C4, 94 }, 
	{ NOTE_A3, 94 }, 
	{ NOTE_B3, 94 }, 
	{ NOTE_A3, 90 }, 
	{ NOTE_C4, 94 }, 
	{ NOTE_A3, 94 }, 
	{ NOTE_B3, 94 }, 
	{ NOTE_A3, 94 }, 
	{ NOTE_C4, 94 }, 
	{ NOTE_A3, 94 }, 
	{ NOTE_B3, 94 }, 
	{ NOTE_A3, 94 }, 
	{ NOTE_C4, 94 }, 
	{ NOTE_A3, 94 }, 
	{ NOTE_B3, 94 }, 
	{ NOTE_A3, 94 }, 
	{ NOTE_C4, 94 }, 
	{ NOTE_A3, 94 }, 
	{ NOTE_B3, 94 }, 
	{ NOTE_A3, 90 }, 
	{ NOTE_C4, 188 }, 
	{ NOTE_A3, 188 }, 
	{ NOTE_B3, 188 }, 
	{ NOTE_A3, 188 }, 
	{ NOTE_C4, 188 }, 
	{ NOTE_A3, 560 }, 
	{ NOTE_A2, 94 }, 
	{ NOTE_C3, 94 }, 
	{ NOTE_E3, 94 }, 
	{ NOTE_A3, 94 }, 
	{ NOTE_C4, 94 }, 
	{ NOTE_E4, 94 }, 
	{ NOTE_A4, 94 }, 
	{ NOTE_C5, 94 }, 
	{ NOTE_E5, 94 }, 
	{ NOTE_C5, 94 }, 
	{ NOTE_A4, 94 }, 
	{ NOTE_E4, 94 }, 
	{ NOTE_C4, 94 }, 
	{ NOTE_A3, 94 }, 
	{ NOTE_D3, 94 }, 
	{ NOTE_C3, 90 }, 
	{ NOTE_B2, 94 }, 
	{ NOTE_D3, 94 }, 
	{ NOTE_E3, 94 }, 
	{ NOTE_GS3, 94 }, 
	{ NOTE_B3, 94 }, 
	{ NOTE_D4, 94 }, 
	{ NOTE_E4, 94 }, 
	{ NOTE_GS4, 94 }, 
	{ NOTE_B4, 94 }, 
	{ NOTE_GS4, 94 }, 
	{ NOTE_E4, 94 }, 
	{ NOTE_D4, 94 }, 
	{ NOTE_B3, 94 }, 
	{ NOTE_GS3, 94 }, 
	{ NOTE_E3, 94 }, 
	{ NOTE_D3, 90 }, 
	{ NOTE_A2, 94 }, 
	{ NOTE_CS3, 94 }, 
	{ NOTE_E3, 94 }, 
	{ NOTE_G3, 94 }, 
	{ NOTE_A3, 94 }, 
	{ NOTE_CS4, 94 }, 
	{ NOTE_E4, 94 }, 
	{ NOTE_G4, 94 }, 
	{ NOTE_A4, 94 }, 
	{ NOTE_G4, 94 }, 
	{ NOTE_E4, 94 }, 
	{ NOTE_CS4, 94 }, 
	{ NOTE_A3, 94 }, 
	{ NOTE_G3, 94 }, 
	{ NOTE_E3, 94 }, 
	{ NOTE_CS3, 90 }, 
	{ NOTE_A2, 94 }, 
	{ NOTE_D3, 94 }, 
	{ NOTE_F3, 94 }, 
	{ NOTE_A3, 94 }, 
	{ NOTE_D4, 94 }, 
	{ NOTE_F4, 94 }, 
	{ NOTE_A4, 94 }, 
	{ NOTE_D5, 94 }, 
	{ NOTE_F5, 94 }, 
	{ NOTE_D5, 94 }, 
	{ NOTE_A4, 94 }, 
	{ NOTE_F4, 94 }, 
	{ NOTE_D4, 94 }, 
	{ NOTE_A3, 94 }, 
	{ NOTE_D3, 94 }, 
	{ NOTE_C3, 90 }, 
	{ NOTE_B2, 94 }, 
	{ NOTE_D3, 94 }, 
	{ NOTE_F3, 94 }, 
	{ NOTE_GS3, 94 }, 
	{ NOTE_B3, 94 }, 
	{ NOTE_D4, 94 }, 
	{ NOTE_F4, 94 }, 
	{ NOTE_GS4, 94 }, 
	{ NOTE_B4, 94 }, 
	{ NOTE_GS4, 94 }, 
	{ NOTE_F4, 94 }, 
	{ NOTE_D4, 94 }, 
	{ NOTE_B3, 94 }, 
	{ NOTE_GS3, 94 }, 
	{ NOTE_F3, 94 }, 
	{ NOTE_B2, 90 }, 
	{ NOTE_A2, 125 }, 
	{ NOTE_E3, 125 }, 
	{ NOTE_C3, 125 }, 
	{ NOTE_A3, 94 }, 
	{ NOTE_E3, 94 }, 
	{ NOTE_C4, 94 }, 
	{ NOTE_A3, 94 }, 
	{ NOTE_E4, 94 }, 
	{ NOTE_C4, 94 }, 
	{ NOTE_A4, 94 }, 
	{ NOTE_E4, 94 }, 
	{ NOTE_C5, 94 }, 
	{ NOTE_A4, 94 }, 
	{ NOTE_E5, 94 }, 
	{ NOTE_C5, 91 }, 
	{ NOTE_E2, 1500 }, 
	{ NOTE_A4, 94 }, 
	{ NOTE_C5, 94 }, 
	{ NOTE_E5, 94 }, 
	{ NOTE_C5, 94 }, 
	{ NOTE_B4, 94 }, 
	{ NOTE_D5, 94 }, 
	{ NOTE_E5, 94 }, 
	{ NOTE_D5, 94 }, 
	{ NOTE_C5, 94 }, 
	{ NOTE_A5, 94 }, 
	{ NOTE_G5, 94 }, 
	{ NOTE_F5, 94 }, 
	{ NOTE_E5, 94 }, 
	{ NOTE_D5, 94 }, 
	{ NOTE_C5, 94 }, 
	{ NOTE_B4, 90 }, 
	{ NOTE_A4, 94 }, 
	{ NOTE_C5, 94 }, 
	{ NOTE_E5, 94 }, 
	{ NOTE_C5, 94 }, 
	{ NOTE_B4, 94 }, 
	{ NOTE_D5, 94 }, 
	{ NOTE_E5, 94 }, 
	{ NOTE_D5, 94 }, 
	{ NOTE_C5, 94 }, 
	{ NOTE_A5, 94 }, 
	{ NOTE_G5, 94 }, 
	{ NOTE_F5, 94 }, 
	{ NOTE_E5, 94 }, 
	{ NOTE_D5, 94 }, 
	{ NOTE_C5, 94 }, 
	{ NOTE_B4, 90 }, 
	{ NOTE_A4, 94 }, 
	{ NOTE_CS5, 94 }, 
	{ NOTE_E5, 94 }, 
	{ NOTE_CS5, 94 }, 
	{ NOTE_A5, 94 }, 
	{ NOTE_G5, 94 }, 
	{ NOTE_F5, 94 }, 
	{ NOTE_E5, 94 }, 
	{ NOTE_CS5, 94 }, 
	{ NOTE_D5, 94 }, 
	{ NOTE_B5, 94 }, 
	{ NOTE_A5, 94 }, 
	{ NOTE_G5, 94 }, 
	{ NOTE_F5, 94 }, 
	{ NOTE_E5, 94 }, 
	{ NOTE_D5, 90 }, 
	{ NOTE_G4, 94 }, 
	{ NOTE_B4, 94 }, 
	{ NOTE_D5, 94 }, 
	{ NOTE_B4, 94 }, 
	{ NOTE_F5, 94 }, 
	{ NOTE_E5, 94 }, 
	{ NOTE_D5, 94 }, 
	{ NOTE_B4, 94 }, 
	{ NOTE_C5, 94 }, 
	{ NOTE_A5, 94 }, 
	{ NOTE_G5, 94 }, 
	{ NOTE_F5, 94 }, 
	{ NOTE_E5, 94 }, 
	{ NOTE_D5, 94 }, 
	{ NOTE_C5, 94 }, 
	{ NOTE_B4, 90 }, 
	{ NOTE_F4, 94 }, 
	{ NOTE_A4, 94 }, 
	{ NOTE_C5, 94 }, 
	{ NOTE_A4, 94 }, 
	{ NOTE_F5, 94 }, 
	{ NOTE_E5, 94 }, 
	{ NOTE_D5, 94 }, 
	{ NOTE_C5, 94 }, 
	{ NOTE_GS4, 94 }, 
	{ NOTE_B4, 94 }, 
	{ NOTE_F5, 94 }, 
	{ NOTE_D5, 94 }, 
	{ NOTE_A4, 94 }, 
	{ NOTE_C5, 94 }, 
	{ NOTE_A5, 94 }, 
	{ NOTE_EB5, 90 }, 
	{ NOTE_E5, 94 }, 
	{ NOTE_GS5, 188 }, 
	{ NOTE_E5, 0 }, 
	{ NOTE_D5, 94 }, 
	{ NOTE_FS5, 188 }, 
	{ NOTE_D5, 0 }, 
	{ NOTE_CS5, 94 }, 
	{ NOTE_E5, 94 }, 
	{ NOTE_E5, 94 }, 
	{ NOTE_CS5, 0 }, 
	{ NOTE_B4, 94 }, 
	{ NOTE_D5, 188 }, 
	{ NOTE_B4, 0 }, 
	{ NOTE_A4, 94 }, 
	{ NOTE_CS5, 188 }, 
	{ NOTE_A4, 0 }, 
	{ NOTE_GS4, 94 }, 
	{ NOTE_B4, 188 }, 
	{ NOTE_GS4, 0 }, 
	{ NOTE_FS4, 94 }, 
	{ NOTE_A4, 94 }, 
	{ NOTE_FS4, 0 }, 
	{ NOTE_E4, 94 }, 
	{ NOTE_GS4, 94 }, 
	{ NOTE_E4, 94 }, 
	{ NOTE_E4, 88 }, 
	{ NOTE_B4, 94 }, 
	{ NOTE_GS4, 94 }, 
	{ NOTE_E4, 94 }, 
	{ NOTE_E4, 94 }, 
	{ NOTE_B4, 94 }, 
	{ NOTE_GS4, 94 }, 
	{ NOTE_E4, 94 }, 
	{ NOTE_E4, 94 }, 
	{ NOTE_B4, 94 }, 
	{ NOTE_GS4, 94 }, 
	{ NOTE_E4, 94 }, 
	{ NOTE_E4, 94 }, 
	{ NOTE_B4, 94 }, 
	{ NOTE_GS4, 94 }, 
	{ NOTE_E4, 94 }, 
	{ NOTE_E4, 90 }, 
	{ NOTE_B4, 94 }, 
	{ NOTE_GS4, 94 }, 
	{ NOTE_E4, 94 }, 
	{ NOTE_E4, 94 }, 
	{ NOTE_B4, 94 }, 
	{ NOTE_GS4, 94 }, 
	{ NOTE_E4, 94 }, 
	{ NOTE_E4, 94 }, 
	{ NOTE_B4, 94 }, 
	{ NOTE_GS4, 94 }, 
	{ NOTE_E4, 94 }, 
	{ NOTE_E4, 94 }, 
	{ NOTE_B4, 94 }, 
	{ NOTE_GS4, 94 }, 
	{ NOTE_E4, 94 }, 
	{ NOTE_E4, 90 }, 
	{ NOTE_B4, 94 }, 
	{ NOTE_GS4, 94 }, 
	{ NOTE_E4, 94 }, 
	{ NOTE_E4, 94 }, 
	{ NOTE_FS5, 94 }, 
	{ NOTE_EB5, 94 }, 
	{ NOTE_B4, 94 }, 
	{ NOTE_E4, 94 }, 
	{ NOTE_A5, 94 }, 
	{ NOTE_FS5, 94 }, 
	{ NOTE_D5, 94 }, 
	{ NOTE_E4, 94 }, 
	{ NOTE_E5, 94 }, 
	{ NOTE_CS5, 94 }, 
	{ NOTE_A4, 94 }, 
	{ NOTE_E4, 90 }, 
	{ NOTE_B4, 94 }, 
	{ NOTE_GS4, 94 }, 
	{ NOTE_E4, 94 }, 
	{ NOTE_E4, 94 }, 
	{ NOTE_FS5, 94 }, 
	{ NOTE_EB5, 94 }, 
	{ NOTE_B4, 94 }, 
	{ NOTE_E4, 94 }, 
	{ NOTE_A5, 94 }, 
	{ NOTE_FS5, 94 }, 
	{ NOTE_D5, 94 }, 
	{ NOTE_E4, 94 }, 
	{ NOTE_E5, 94 }, 
	{ NOTE_CS5, 94 }, 
	{ NOTE_A4, 94 }, 
	{ NOTE_E4, 90 }, 
	{ NOTE_B4, 94 }, 
	{ NOTE_GS4, 94 }, 
	{ NOTE_E4, 94 }, 
	{ NOTE_E4, 94 }, 
	{ NOTE_FS5, 94 }, 
	{ NOTE_EB5, 94 }, 
	{ NOTE_B4, 94 }, 
	{ NOTE_E4, 94 }, 
	{ NOTE_A5, 94 }, 
	{ NOTE_FS5, 94 }, 
	{ NOTE_D5, 94 }, 
	{ NOTE_E4, 94 }, 
	{ NOTE_E5, 94 }, 
	{ NOTE_CS5, 94 }, 
	{ NOTE_A4, 94 }, 
	{ NOTE_E4, 90 }, 
	{ NOTE_B4, 94 }, 
	{ NOTE_GS4, 94 }, 
	{ NOTE_E4, 94 }, 
	{ NOTE_E4, 94 }, 
	{ NOTE_FS5, 94 }, 
	{ NOTE_EB5, 94 }, 
	{ NOTE_B4, 94 }, 
	{ NOTE_E4, 94 }, 
	{ NOTE_A5, 94 }, 
	{ NOTE_FS5, 94 }, 
	{ NOTE_D5, 94 }, 
	{ NOTE_E4, 94 }, 
	{ NOTE_E5, 94 }, 
	{ NOTE_CS5, 94 }, 
	{ NOTE_A4, 94 }, 
	{ NOTE_E4, 90 }, 
	{ NOTE_B5, 94 }, 
	{ NOTE_GS5, 94 }, 
	{ NOTE_E5, 94 }, 
	{ NOTE_E4, 94 }, 
	{ NOTE_B4, 94 }, 
	{ NOTE_GS4, 94 }, 
	{ NOTE_E4, 94 }, 
	{ NOTE_E4, 94 }, 
	{ NOTE_A5, 94 }, 
	{ NOTE_FS5, 94 }, 
	{ NOTE_D5, 94 }, 
	{ NOTE_E4, 94 }, 
	{ NOTE_A4, 94 }, 
	{ NOTE_FS4, 94 }, 
	{ NOTE_D4, 94 }, 
	{ NOTE_E4, 90 }, 
	{ NOTE_B5, 94 }, 
	{ NOTE_GS5, 94 }, 
	{ NOTE_E5, 94 }, 
	{ NOTE_E4, 94 }, 
	{ NOTE_B4, 94 }, 
	{ NOTE_GS4, 94 }, 
	{ NOTE_E4, 94 }, 
	{ NOTE_E4, 94 }, 
	{ NOTE_A5, 94 }, 
	{ NOTE_FS5, 94 }, 
	{ NOTE_D5, 94 }, 
	{ NOTE_E4, 94 }, 
	{ NOTE_A4, 94 }, 
	{ NOTE_FS4, 94 }, 
	{ NOTE_D4, 94 }, 
	{ NOTE_E4, 90 }, 
	{ NOTE_D6, 94 }, 
	{ NOTE_B5, 94 }, 
	{ NOTE_G5, 94 }, 
	{ NOTE_E4, 94 }, 
	{ NOTE_D5, 94 }, 
	{ NOTE_B4, 94 }, 
	{ NOTE_G4, 94 }, 
	{ NOTE_E4, 94 }, 
	{ NOTE_C6, 94 }, 
	{ NOTE_A5, 94 }, 
	{ NOTE_F5, 94 }, 
	{ NOTE_E4, 94 }, 
	{ NOTE_C5, 94 }, 
	{ NOTE_A4, 94 }, 
	{ NOTE_F4, 94 }, 
	{ NOTE_E4, 90 }, 
	{ NOTE_D6, 94 }, 
	{ NOTE_B5, 94 }, 
	{ NOTE_G5, 94 }, 
	{ NOTE_E4, 94 }, 
	{ NOTE_D5, 94 }, 
	{ NOTE_B4, 94 }, 
	{ NOTE_G4, 94 }, 
	{ NOTE_E4, 94 }, 
	{ NOTE_C6, 94 }, 
	{ NOTE_A5, 94 }, 
	{ NOTE_F5, 94 }, 
	{ NOTE_E4, 94 }, 
	{ NOTE_C5, 94 }, 
	{ NOTE_A4, 94 }, 
	{ NOTE_F4, 94 }, 
	{ NOTE_E4, 90 }, 
	{ NOTE_D6, 94 }, 
	{ NOTE_B5, 94 }, 
	{ NOTE_GS5, 94 }, 
	{ NOTE_F5, 94 }, 
	{ NOTE_B5, 94 }, 
	{ NOTE_GS5, 94 }, 
	{ NOTE_F5, 94 }, 
	{ NOTE_D5, 94 }, 
	{ NOTE_GS5, 94 }, 
	{ NOTE_F5, 94 }, 
	{ NOTE_D5, 94 }, 
	{ NOTE_B4, 94 }, 
	{ NOTE_F5, 94 }, 
	{ NOTE_D5, 94 }, 
	{ NOTE_B4, 94 }, 
	{ NOTE_GS4, 90 }, 
	{ NOTE_D5, 94 }, 
	{ NOTE_B4, 94 }, 
	{ NOTE_GS4, 94 }, 
	{ NOTE_F4, 94 }, 
	{ NOTE_B4, 94 }, 
	{ NOTE_GS4, 94 }, 
	{ NOTE_F4, 94 }, 
	{ NOTE_D4, 94 }, 
	{ NOTE_GS4, 94 }, 
	{ NOTE_F4, 94 }, 
	{ NOTE_D4, 94 }, 
	{ NOTE_B3, 94 }, 
	{ NOTE_F4, 94 }, 
	{ NOTE_D4, 94 }, 
	{ NOTE_B3, 94 }, 
	{ NOTE_GS3, 90 }, 
	{ NOTE_A3, 750 }, 
	{ NOTE_A2, 750 }, 
	{ NOTE_E2, 375 }, 
	{ NOTE_E2, 70 }, 
	{ NOTE_E2, 70 }, 
	{ NOTE_E2, 70 }, 
	{ NOTE_E2, 70 }, 
	{ NOTE_E2, 70 }, 
	{ NOTE_E2, 70 }, 
	{ NOTE_E2, 70 }, 
	{ NOTE_E2, 70 }, 
	{ NOTE_E2, 70 }, 
	{ NOTE_E2, 70 }, 
	{ NOTE_E2, 70 }, 
	{ NOTE_E2, 70 }, 
	{ NOTE_E2, 70 }, 
	{ NOTE_E2, 70 }, 
	{ NOTE_E2, 70 }, 
	{ NOTE_E2, 75 }, 
	{ NOTE_E2, 70 }, 
	{ NOTE_E2, 70 }, 
	{ NOTE_E2, 70 }, 
	{ NOTE_E2, 70 }, 
	{ NOTE_E2, 70 }, 
	{ NOTE_E2, 70 }, 
	{ NOTE_E2, 70 }, 
	{ NOTE_E2, 70 }, 
	{ NOTE_E3, 188 }, 
	{ NOTE_B2, 188 }, 
	{ NOTE_E3, 188 }, 
	{ NOTE_E4, 188 }, 
	{ NOTE_E4, 188 }, 
	{ NOTE_E5, 188 }, 
	{ NOTE_B4, 188 }, 
	{ NOTE_E2, 750 }, 
	{ NOTE_REST, 374 }, 
	{ NOTE_A2, 94 }, 
	{ NOTE_B2, 94 }, 
	{ NOTE_C3, 94 }, 
	{ NOTE_D3, 94 }, 
	{ NOTE_E3, 94 }, 
	{ NOTE_F3, 94 }, 
	{ NOTE_GS3, 94 }, 
	{ NOTE_A3, 94 }, 
	{ NOTE_B3, 94 }, 
	{ NOTE_C4, 94 }, 
	{ NOTE_D4, 94 }, 
	{ NOTE_E4, 94 }, 
	{ NOTE_F4, 94 }, 
	{ NOTE_GS4, 94 }, 
	{ NOTE_A4, 94 }, 
	{ NOTE_B4, 90 }, 
	{ NOTE_C5, 94 }, 
	{ NOTE_D5, 94 }, 
	{ NOTE_E5, 94 }, 
	{ NOTE_F5, 94 }, 
	{ NOTE_GS5, 94 }, 
	{ NOTE_A5, 94 }, 
	{ NOTE_B5, 94 }, 
	{ NOTE_C6, 94 }, 
	{ NOTE_D6, 94 }, 
	{ NOTE_REST, 94 }, 
	{ NOTE_REST, 94 }, 
	{ NOTE_REST, 94 }, 
	{ NOTE_REST, 94 }, 
	{ NOTE_REST, 94 }, 
	{ NOTE_E6, 184 }, 
	{ NOTE_E6, 94 }, 
	{ NOTE_F6, 375 }, 
	{ NOTE_E6, 94 }, 
	{ NOTE_GS6, 375 }, 
	{ NOTE_REST, 94 }, 
	{ NOTE_A6, 468 }, 
};
const uint16_t NUM_OF_NOTES0 = sizeof(melody0)/sizeof(melody0[0]);

const Note melody1[] PROGMEM = {
	{ NOTE_REST, 750 }, 
	{ NOTE_REST, 94 }, 
	{ NOTE_A3, 94 }, 
	{ NOTE_B3, 94 }, 
	{ NOTE_A3, 94 }, 
	{ NOTE_C4, 94 }, 
	{ NOTE_A3, 94 }, 
	{ NOTE_B3, 94 }, 
	{ NOTE_A3, 92 }, 
	{ NOTE_C4, 94 }, 
	{ NOTE_A3, 94 }, 
	{ NOTE_B3, 94 }, 
	{ NOTE_A3, 94 }, 
	{ NOTE_C4, 94 }, 
	{ NOTE_A3, 94 }, 
	{ NOTE_B3, 94 }, 
	{ NOTE_A3, 94 }, 
	{ NOTE_C4, 94 }, 
	{ NOTE_A3, 94 }, 
	{ NOTE_B3, 94 }, 
	{ NOTE_A3, 94 }, 
	{ NOTE_C4, 94 }, 
	{ NOTE_A3, 94 }, 
	{ NOTE_B3, 94 }, 
	{ NOTE_A3, 90 }, 
	{ NOTE_C4, 94 }, 
	{ NOTE_A3, 94 }, 
	{ NOTE_B3, 94 }, 
	{ NOTE_A3, 94 }, 
	{ NOTE_C4, 94 }, 
	{ NOTE_A3, 94 }, 
	{ NOTE_B3, 94 }, 
	{ NOTE_A3, 94 }, 
	{ NOTE_C4, 94 }, 
	{ NOTE_A3, 94 }, 
	{ NOTE_B3, 94 }, 
	{ NOTE_A3, 94 }, 
	{ NOTE_C4, 94 }, 
	{ NOTE_A3, 94 }, 
	{ NOTE_B3, 94 }, 
	{ NOTE_A3, 90 }, 
	{ NOTE_C4, 188 }, 
	{ NOTE_A3, 188 }, 
	{ NOTE_B3, 188 }, 
	{ NOTE_A3, 188 }, 
	{ NOTE_C4, 188 }, 
	{ NOTE_A3, 560 }, 
	{ NOTE_A2, 94 }, 
	{ NOTE_C3, 94 }, 
	{ NOTE_E3, 94 }, 
	{ NOTE_A3, 94 }, 
	{ NOTE_C4, 94 }, 
	{ NOTE_E4, 94 }, 
	{ NOTE_A4, 94 }, 
	{ NOTE_C5, 94 }, 
	{ NOTE_E5, 94 }, 
	{ NOTE_C5, 94 }, 
	{ NOTE_A4, 94 }, 
	{ NOTE_E4, 94 }, 
	{ NOTE_C4, 94 }, 
	{ NOTE_A3, 94 }, 
	{ NOTE_D3, 94 }, 
	{ NOTE_C3, 90 }, 
	{ NOTE_B2, 94 }, 
	{ NOTE_D3, 94 }, 
	{ NOTE_E3, 94 }, 
	{ NOTE_GS3, 94 }, 
	{ NOTE_B3, 94 }, 
	{ NOTE_D4, 94 }, 
	{ NOTE_E4, 94 }, 
	{ NOTE_GS4, 94 }, 
	{ NOTE_B4, 94 }, 
	{ NOTE_GS4, 94 }, 
	{ NOTE_E4, 94 }, 
	{ NOTE_D4, 94 }, 
	{ NOTE_B3, 94 }, 
	{ NOTE_GS3, 94 }, 
	{ NOTE_E3, 94 }, 
	{ NOTE_D3, 90 }, 
	{ NOTE_A2, 94 }, 
	{ NOTE_CS3, 94 }, 
	{ NOTE_E3, 94 }, 
	{ NOTE_G3, 94 }, 
	{ NOTE_A3, 94 }, 
	{ NOTE_CS4, 94 }, 
	{ NOTE_E4, 94 }, 
	{ NOTE_G4, 94 }, 
	{ NOTE_A4, 94 }, 
	{ NOTE_G4, 94 }, 
	{ NOTE_E4, 94 }, 
	{ NOTE_CS4, 94 }, 
	{ NOTE_A3, 94 }, 
	{ NOTE_G3, 94 }, 
	{ NOTE_E3, 94 }, 
	{ NOTE_CS3, 90 }, 
	{ NOTE_A2, 94 }, 
	{ NOTE_D3, 94 }, 
	{ NOTE_F3, 94 }, 
	{ NOTE_A3, 94 }, 
	{ NOTE_D4, 94 }, 
	{ NOTE_F4, 94 }, 
	{ NOTE_A4, 94 }, 
	{ NOTE_D5, 94 }, 
	{ NOTE_F5, 94 }, 
	{ NOTE_D5, 94 }, 
	{ NOTE_A4, 94 }, 
	{ NOTE_F4, 94 }, 
	{ NOTE_D4, 94 }, 
	{ NOTE_A3, 94 }, 
	{ NOTE_D3, 94 }, 
	{ NOTE_C3, 90 }, 
	{ NOTE_B2, 94 }, 
	{ NOTE_D3, 94 }, 
	{ NOTE_F3, 94 }, 
	{ NOTE_GS3, 94 }, 
	{ NOTE_B3, 94 }, 
	{ NOTE_D4, 94 }, 
	{ NOTE_F4, 94 }, 
	{ NOTE_GS4, 94 }, 
	{ NOTE_B4, 94 }, 
	{ NOTE_GS4, 94 }, 
	{ NOTE_F4, 94 }, 
	{ NOTE_D4, 94 }, 
	{ NOTE_B3, 94 }, 
	{ NOTE_GS3, 94 }, 
	{ NOTE_F3, 94 }, 
	{ NOTE_B2, 90 }, 
	{ NOTE_A2, 125 }, 
	{ NOTE_E3, 125 }, 
	{ NOTE_C3, 125 }, 
	{ NOTE_A3, 94 }, 
	{ NOTE_E3, 94 }, 
	{ NOTE_C4, 94 }, 
	{ NOTE_A3, 94 }, 
	{ NOTE_E4, 94 }, 
	{ NOTE_C4, 94 }, 
	{ NOTE_A4, 94 }, 
	{ NOTE_E4, 94 }, 
	{ NOTE_C5, 94 }, 
	{ NOTE_A4, 94 }, 
	{ NOTE_E5, 94 }, 
	{ NOTE_C5, 91 }, 
	{ NOTE_GS5, 1500 }, 
	{ NOTE_A4, 94 }, 
	{ NOTE_C5, 94 }, 
	{ NOTE_E5, 94 }, 
	{ NOTE_C5, 94 }, 
	{ NOTE_B4, 94 }, 
	{ NOTE_D5, 94 }, 
	{ NOTE_E5, 94 }, 
	{ NOTE_D5, 94 }, 
	{ NOTE_C5, 94 }, 
	{ NOTE_A5, 94 }, 
	{ NOTE_G5, 94 }, 
	{ NOTE_F5, 94 }, 
	{ NOTE_E5, 94 }, 
	{ NOTE_D5, 94 }, 
	{ NOTE_C5, 94 }, 
	{ NOTE_B4, 90 }, 
	{ NOTE_A4, 94 }, 
	{ NOTE_C5, 94 }, 
	{ NOTE_E5, 94 }, 
	{ NOTE_C5, 94 }, 
	{ NOTE_B4, 94 }, 
	{ NOTE_D5, 94 }, 
	{ NOTE_E5, 94 }, 
	{ NOTE_D5, 94 }, 
	{ NOTE_C5, 94 }, 
	{ NOTE_A5, 94 }, 
	{ NOTE_G5, 94 }, 
	{ NOTE_F5, 94 }, 
	{ NOTE_E5, 94 }, 
	{ NOTE_D5, 94 }, 
	{ NOTE_C5, 94 }, 
	{ NOTE_B4, 90 }, 
	{ NOTE_A4, 94 }, 
	{ NOTE_CS5, 94 }, 
	{ NOTE_E5, 94 }, 
	{ NOTE_CS5, 94 }, 
	{ NOTE_A5, 94 }, 
	{ NOTE_G5, 94 }, 
	{ NOTE_F5, 94 }, 
	{ NOTE_E5, 94 }, 
	{ NOTE_CS5, 94 }, 
	{ NOTE_D5, 94 }, 
	{ NOTE_B5, 94 }, 
	{ NOTE_A5, 94 }, 
	{ NOTE_G5, 94 }, 
	{ NOTE_F5, 94 }, 
	{ NOTE_E5, 94 }, 
	{ NOTE_D5, 90 }, 
	{ NOTE_G4, 94 }, 
	{ NOTE_B4, 94 }, 
	{ NOTE_D5, 94 }, 
	{ NOTE_B4, 94 }, 
	{ NOTE_F5, 94 }, 
	{ NOTE_E5, 94 }, 
	{ NOTE_D5, 94 }, 
	{ NOTE_B4, 94 }, 
	{ NOTE_C5, 94 }, 
	{ NOTE_A5, 94 }, 
	{ NOTE_G5, 94 }, 
	{ NOTE_F5, 94 }, 
	{ NOTE_E5, 94 }, 
	{ NOTE_D5, 94 }, 
	{ NOTE_C5, 94 }, 
	{ NOTE_B4, 90 }, 
	{ NOTE_F4, 94 }, 
	{ NOTE_A4, 94 }, 
	{ NOTE_C5, 94 }, 
	{ NOTE_A4, 94 }, 
	{ NOTE_F5, 94 }, 
	{ NOTE_E5, 94 }, 
	{ NOTE_D5, 94 }, 
	{ NOTE_C5, 94 }, 
	{ NOTE_GS4, 94 }, 
	{ NOTE_B4, 94 }, 
	{ NOTE_F5, 94 }, 
	{ NOTE_D5, 94 }, 
	{ NOTE_A4, 94 }, 
	{ NOTE_C5, 94 }, 
	{ NOTE_A5, 94 }, 
	{ NOTE_EB5, 90 }, 
	{ NOTE_E5, 94 }, 
	{ NOTE_GS5, 188 }, 
	{ NOTE_E5, 0 }, 
	{ NOTE_D5, 94 }, 
	{ NOTE_FS5, 188 }, 
	{ NOTE_D5, 0 }, 
	{ NOTE_CS5, 94 }, 
	{ NOTE_E5, 94 }, 
	{ NOTE_E5, 94 }, 
	{ NOTE_CS5, 0 }, 
	{ NOTE_B4, 94 }, 
	{ NOTE_D5, 188 }, 
	{ NOTE_B4, 0 }, 
	{ NOTE_A4, 94 }, 
	{ NOTE_CS5, 188 }, 
	{ NOTE_A4, 0 }, 
	{ NOTE_GS4, 94 }, 
	{ NOTE_B4, 188 }, 
	{ NOTE_GS4, 0 }, 
	{ NOTE_FS4, 94 }, 
	{ NOTE_A4, 94 }, 
	{ NOTE_FS4, 0 }, 
	{ NOTE_E4, 94 }, 
	{ NOTE_GS4, 94 }, 
	{ NOTE_E4, 94 }, 
	{ NOTE_E4, 88 }, 
	{ NOTE_B4, 94 }, 
	{ NOTE_GS4, 94 }, 
	{ NOTE_E4, 94 }, 
	{ NOTE_E4, 94 }, 
	{ NOTE_B4, 94 }, 
	{ NOTE_GS4, 94 }, 
	{ NOTE_E4, 94 }, 
	{ NOTE_E4, 94 }, 
	{ NOTE_B4, 94 }, 
	{ NOTE_GS4, 94 }, 
	{ NOTE_E4, 94 }, 
	{ NOTE_E4, 94 }, 
	{ NOTE_B4, 94 }, 
	{ NOTE_GS4, 94 }, 
	{ NOTE_E4, 94 }, 
	{ NOTE_E4, 90 }, 
	{ NOTE_B4, 94 }, 
	{ NOTE_GS4, 94 }, 
	{ NOTE_E4, 94 }, 
	{ NOTE_E4, 94 }, 
	{ NOTE_B4, 94 }, 
	{ NOTE_GS4, 94 }, 
	{ NOTE_E4, 94 }, 
	{ NOTE_E4, 94 }, 
	{ NOTE_B4, 94 }, 
	{ NOTE_GS4, 94 }, 
	{ NOTE_E4, 94 }, 
	{ NOTE_E4, 94 }, 
	{ NOTE_B4, 94 }, 
	{ NOTE_GS4, 94 }, 
	{ NOTE_E4, 94 }, 
	{ NOTE_E4, 90 }, 
	{ NOTE_B4, 94 }, 
	{ NOTE_GS4, 94 }, 
	{ NOTE_E4, 94 }, 
	{ NOTE_E4, 94 }, 
	{ NOTE_FS5, 94 }, 
	{ NOTE_EB5, 94 }, 
	{ NOTE_B4, 94 }, 
	{ NOTE_E4, 94 }, 
	{ NOTE_A5, 94 }, 
	{ NOTE_FS5, 94 }, 
	{ NOTE_D5, 94 }, 
	{ NOTE_E4, 94 }, 
	{ NOTE_E5, 94 }, 
	{ NOTE_CS5, 94 }, 
	{ NOTE_A4, 94 }, 
	{ NOTE_E4, 90 }, 
	{ NOTE_B4, 94 }, 
	{ NOTE_GS4, 94 }, 
	{ NOTE_E4, 94 }, 
	{ NOTE_E4, 94 }, 
	{ NOTE_FS5, 94 }, 
	{ NOTE_EB5, 94 }, 
	{ NOTE_B4, 94 }, 
	{ NOTE_E4, 94 }, 
	{ NOTE_A5, 94 }, 
	{ NOTE_FS5, 94 }, 
	{ NOTE_D5, 94 }, 
	{ NOTE_E4, 94 }, 
	{ NOTE_E5, 94 }, 
	{ NOTE_CS5, 94 }, 
	{ NOTE_A4, 94 }, 
	{ NOTE_E4, 90 }, 
	{ NOTE_B4, 94 }, 
	{ NOTE_GS4, 94 }, 
	{ NOTE_E4, 94 }, 
	{ NOTE_E4, 94 }, 
	{ NOTE_FS5, 94 }, 
	{ NOTE_EB5, 94 }, 
	{ NOTE_B4, 94 }, 
	{ NOTE_E4, 94 }, 
	{ NOTE_A5, 94 }, 
	{ NOTE_FS5, 94 }, 
	{ NOTE_D5, 94 }, 
	{ NOTE_E4, 94 }, 
	{ NOTE_E5, 94 }, 
	{ NOTE_CS5, 94 }, 
	{ NOTE_A4, 94 }, 
	{ NOTE_E4, 90 }, 
	{ NOTE_B4, 94 }, 
	{ NOTE_GS4, 94 }, 
	{ NOTE_E4, 94 }, 
	{ NOTE_E4, 94 }, 
	{ NOTE_FS5, 94 }, 
	{ NOTE_EB5, 94 }, 
	{ NOTE_B4, 94 }, 
	{ NOTE_E4, 94 }, 
	{ NOTE_A5, 94 }, 
	{ NOTE_FS5, 94 }, 
	{ NOTE_D5, 94 }, 
	{ NOTE_E4, 94 }, 
	{ NOTE_E5, 94 }, 
	{ NOTE_CS5, 94 }, 
	{ NOTE_A4, 94 }, 
	{ NOTE_E4, 90 }, 
	{ NOTE_B5, 94 }, 
	{ NOTE_GS5, 94 }, 
	{ NOTE_E5, 94 }, 
	{ NOTE_E4, 94 }, 
	{ NOTE_B4, 94 }, 
	{ NOTE_GS4, 94 }, 
	{ NOTE_E4, 94 }, 
	{ NOTE_E4, 94 }, 
	{ NOTE_A5, 94 }, 
	{ NOTE_FS5, 94 }, 
	{ NOTE_D5, 94 }, 
	{ NOTE_E4, 94 }, 
	{ NOTE_A4, 94 }, 
	{ NOTE_FS4, 94 }, 
	{ NOTE_D4, 94 }, 
	{ NOTE_E4, 90 }, 
	{ NOTE_B5, 94 }, 
	{ NOTE_GS5, 94 }, 
	{ NOTE_E5, 94 }, 
	{ NOTE_E4, 94 }, 
	{ NOTE_B4, 94 }, 
	{ NOTE_GS4, 94 }, 
	{ NOTE_E4, 94 }, 
	{ NOTE_E4, 94 }, 
	{ NOTE_A5, 94 }, 
	{ NOTE_FS5, 94 }, 
	{ NOTE_D5, 94 }, 
	{ NOTE_E4, 94 }, 
	{ NOTE_A4, 94 }, 
	{ NOTE_FS4, 94 }, 
	{ NOTE_D4, 94 }, 
	{ NOTE_E4, 90 }, 
	{ NOTE_D6, 94 }, 
	{ NOTE_B5, 94 }, 
	{ NOTE_G5, 94 }, 
	{ NOTE_E4, 94 }, 
	{ NOTE_D5, 94 }, 
	{ NOTE_B4, 94 }, 
	{ NOTE_G4, 94 }, 
	{ NOTE_E4, 94 }, 
	{ NOTE_C6, 94 }, 
	{ NOTE_A5, 94 }, 
	{ NOTE_F5, 94 }, 
	{ NOTE_E4, 94 }, 
	{ NOTE_C5, 94 }, 
	{ NOTE_A4, 94 }, 
	{ NOTE_F4, 94 }, 
	{ NOTE_E4, 90 }, 
	{ NOTE_D6, 94 }, 
	{ NOTE_B5, 94 }, 
	{ NOTE_G5, 94 }, 
	{ NOTE_E4, 94 }, 
	{ NOTE_D5, 94 }, 
	{ NOTE_B4, 94 }, 
	{ NOTE_G4, 94 }, 
	{ NOTE_E4, 94 }, 
	{ NOTE_C6, 94 }, 
	{ NOTE_A5, 94 }, 
	{ NOTE_F5, 94 }, 
	{ NOTE_E4, 94 }, 
	{ NOTE_C5, 94 }, 
	{ NOTE_A4, 94 }, 
	{ NOTE_F4, 94 }, 
	{ NOTE_E4, 90 }, 
	{ NOTE_D6, 94 }, 
	{ NOTE_B5, 94 }, 
	{ NOTE_GS5, 94 }, 
	{ NOTE_F5, 94 }, 
	{ NOTE_B5, 94 }, 
	{ NOTE_GS5, 94 }, 
	{ NOTE_F5, 94 }, 
	{ NOTE_D5, 94 }, 
	{ NOTE_GS5, 94 }, 
	{ NOTE_F5, 94 }, 
	{ NOTE_D5, 94 }, 
	{ NOTE_B4, 94 }, 
	{ NOTE_F5, 94 }, 
	{ NOTE_D5, 94 }, 
	{ NOTE_B4, 94 }, 
	{ NOTE_GS4, 90 }, 
	{ NOTE_D5, 94 }, 
	{ NOTE_B4, 94 }, 
	{ NOTE_GS4, 94 }, 
	{ NOTE_F4, 94 }, 
	{ NOTE_B4, 94 }, 
	{ NOTE_GS4, 94 }, 
	{ NOTE_F4, 94 }, 
	{ NOTE_D4, 94 }, 
	{ NOTE_GS4, 94 }, 
	{ NOTE_F4, 94 }, 
	{ NOTE_D4, 94 }, 
	{ NOTE_B3, 94 }, 
	{ NOTE_F4, 94 }, 
	{ NOTE_D4, 94 }, 
	{ NOTE_B3, 94 }, 
	{ NOTE_GS3, 90 }, 
	{ NOTE_A3, 750 }, 
	{ NOTE_E3, 750 }, 
	{ NOTE_B2, 375 }, 
	{ NOTE_E2, 70 }, 
	{ NOTE_E2, 70 }, 
	{ NOTE_E2, 70 }, 
	{ NOTE_E2, 70 }, 
	{ NOTE_E2, 70 }, 
	{ NOTE_E2, 70 }, 
	{ NOTE_E2, 70 }, 
	{ NOTE_E2, 70 }, 
	{ NOTE_E2, 70 }, 
	{ NOTE_E2, 70 }, 
	{ NOTE_E2, 70 }, 
	{ NOTE_E2, 70 }, 
	{ NOTE_E2, 70 }, 
	{ NOTE_E2, 70 }, 
	{ NOTE_E2, 70 }, 
	{ NOTE_E2, 75 }, 
	{ NOTE_E2, 70 }, 
	{ NOTE_E2, 70 }, 
	{ NOTE_E2, 70 }, 
	{ NOTE_E2, 70 }, 
	{ NOTE_E2, 70 }, 
	{ NOTE_E2, 70 }, 
	{ NOTE_E2, 70 }, 
	{ NOTE_E2, 70 }, 
	{ NOTE_E3, 188 }, 
	{ NOTE_B2, 188 }, 
	{ NOTE_E3, 188 }, 
	{ NOTE_E4, 188 }, 
	{ NOTE_E4, 188 }, 
	{ NOTE_E5, 188 }, 
	{ NOTE_B4, 188 }, 
	{ NOTE_E6, 750 }, 
	{ NOTE_REST, 374 }, 
	{ NOTE_A2, 94 }, 
	{ NOTE_B2, 94 }, 
	{ NOTE_C3, 94 }, 
	{ NOTE_D3, 94 }, 
	{ NOTE_E3, 94 }, 
	{ NOTE_F3, 94 }, 
	{ NOTE_GS3, 94 }, 
	{ NOTE_A3, 94 }, 
	{ NOTE_B3, 94 }, 
	{ NOTE_C4, 94 }, 
	{ NOTE_D4, 94 }, 
	{ NOTE_E4, 94 }, 
	{ NOTE_F4, 94 }, 
	{ NOTE_GS4, 94 }, 
	{ NOTE_A4, 94 }, 
	{ NOTE_B4, 90 }, 
	{ NOTE_C5, 94 }, 
	{ NOTE_D5, 94 }, 
	{ NOTE_E5, 94 }, 
	{ NOTE_F5, 94 }, 
	{ NOTE_GS5, 94 }, 
	{ NOTE_A5, 94 }, 
	{ NOTE_B5, 94 }, 
	{ NOTE_C6, 94 }, 
	{ NOTE_D6, 94 }, 
	{ NOTE_REST, 94 }, 
	{ NOTE_REST, 94 }, 
	{ NOTE_REST, 94 }, 
	{ NOTE_REST, 94 }, 
	{ NOTE_REST, 94 }, 
	{ NOTE_E6, 184 }, 
	{ NOTE_E6, 94 }, 
	{ NOTE_F6, 375 }, 
	{ NOTE_E6, 94 }, 
	{ NOTE_GS6, 375 }, 
	{ NOTE_REST, 94 }, 
	{ NOTE_A6, 468 }, 
};
const uint16_t NUM_OF_NOTES1 = sizeof(melody1)/sizeof(melody1[0]);

const Note melody2[] PROGMEM = {
	{ NOTE_REST, 750 }, 
	{ NOTE_REST, 94 }, 
	{ NOTE_A3, 94 }, 
	{ NOTE_B3, 94 }, 
	{ NOTE_A3, 94 }, 
	{ NOTE_C4, 94 }, 
	{ NOTE_A3, 94 }, 
	{ NOTE_B3, 94 }, 
	{ NOTE_A3, 92 }, 
	{ NOTE_C4, 94 }, 
	{ NOTE_A3, 94 }, 
	{ NOTE_B3, 94 }, 
	{ NOTE_A3, 94 }, 
	{ NOTE_C4, 94 }, 
	{ NOTE_A3, 94 }, 
	{ NOTE_B3, 94 }, 
	{ NOTE_A3, 94 }, 
	{ NOTE_C4, 94 }, 
	{ NOTE_A3, 94 }, 
	{ NOTE_B3, 94 }, 
	{ NOTE_A3, 94 }, 
	{ NOTE_C4, 94 }, 
	{ NOTE_A3, 94 }, 
	{ NOTE_B3, 94 }, 
	{ NOTE_A3, 90 }, 
	{ NOTE_C4, 94 }, 
	{ NOTE_A3, 94 }, 
	{ NOTE_B3, 94 }, 
	{ NOTE_A3, 94 }, 
	{ NOTE_C4, 94 }, 
	{ NOTE_A3, 94 }, 
	{ NOTE_B3, 94 }, 
	{ NOTE_A3, 94 }, 
	{ NOTE_C4, 94 }, 
	{ NOTE_A3, 94 }, 
	{ NOTE_B3, 94 }, 
	{ NOTE_A3, 94 }, 
	{ NOTE_C4, 94 }, 
	{ NOTE_A3, 94 }, 
	{ NOTE_B3, 94 }, 
	{ NOTE_A3, 90 }, 
	{ NOTE_C4, 188 }, 
	{ NOTE_A3, 188 }, 
	{ NOTE_B3, 188 }, 
	{ NOTE_A3, 188 }, 
	{ NOTE_C4, 188 }, 
	{ NOTE_A3, 560 }, 
	{ NOTE_A2, 94 }, 
	{ NOTE_C3, 94 }, 
	{ NOTE_E3, 94 }, 
	{ NOTE_A3, 94 }, 
	{ NOTE_C4, 94 }, 
	{ NOTE_E4, 94 }, 
	{ NOTE_A4, 94 }, 
	{ NOTE_C5, 94 }, 
	{ NOTE_E5, 94 }, 
	{ NOTE_C5, 94 }, 
	{ NOTE_A4, 94 }, 
	{ NOTE_E4, 94 }, 
	{ NOTE_C4, 94 }, 
	{ NOTE_A3, 94 }, 
	{ NOTE_D3, 94 }, 
	{ NOTE_C3, 90 }, 
	{ NOTE_B2, 94 }, 
	{ NOTE_D3, 94 }, 
	{ NOTE_E3, 94 }, 
	{ NOTE_GS3, 94 }, 
	{ NOTE_B3, 94 }, 
	{ NOTE_D4, 94 }, 
	{ NOTE_E4, 94 }, 
	{ NOTE_GS4, 94 }, 
	{ NOTE_B4, 94 }, 
	{ NOTE_GS4, 94 }, 
	{ NOTE_E4, 94 }, 
	{ NOTE_D4, 94 }, 
	{ NOTE_B3, 94 }, 
	{ NOTE_GS3, 94 }, 
	{ NOTE_E3, 94 }, 
	{ NOTE_D3, 90 }, 
	{ NOTE_A2, 94 }, 
	{ NOTE_CS3, 94 }, 
	{ NOTE_E3, 94 }, 
	{ NOTE_G3, 94 }, 
	{ NOTE_A3, 94 }, 
	{ NOTE_CS4, 94 }, 
	{ NOTE_E4, 94 }, 
	{ NOTE_G4, 94 }, 
	{ NOTE_A4, 94 }, 
	{ NOTE_G4, 94 }, 
	{ NOTE_E4, 94 }, 
	{ NOTE_CS4, 94 }, 
	{ NOTE_A3, 94 }, 
	{ NOTE_G3, 94 }, 
	{ NOTE_E3, 94 }, 
	{ NOTE_CS3, 90 }, 
	{ NOTE_A2, 94 }, 
	{ NOTE_D3, 94 }, 
	{ NOTE_F3, 94 }, 
	{ NOTE_A3, 94 }, 
	{ NOTE_D4, 94 }, 
	{ NOTE_F4, 94 }, 
	{ NOTE_A4, 94 }, 
	{ NOTE_D5, 94 }, 
	{ NOTE_F5, 94 }, 
	{ NOTE_D5, 94 }, 
	{ NOTE_A4, 94 }, 
	{ NOTE_F4, 94 }, 
	{ NOTE_D4, 94 }, 
	{ NOTE_A3, 94 }, 
	{ NOTE_D3, 94 }, 
	{ NOTE_C3, 90 }, 
	{ NOTE_B2, 94 }, 
	{ NOTE_D3, 94 }, 
	{ NOTE_F3, 94 }, 
	{ NOTE_GS3, 94 }, 
	{ NOTE_B3, 94 }, 
	{ NOTE_D4, 94 }, 
	{ NOTE_F4, 94 }, 
	{ NOTE_GS4, 94 }, 
	{ NOTE_B4, 94 }, 
	{ NOTE_GS4, 94 }, 
	{ NOTE_F4, 94 }, 
	{ NOTE_D4, 94 }, 
	{ NOTE_B3, 94 }, 
	{ NOTE_GS3, 94 }, 
	{ NOTE_F3, 94 }, 
	{ NOTE_B2, 90 }, 
	{ NOTE_A2, 125 }, 
	{ NOTE_E3, 125 }, 
	{ NOTE_C3, 125 }, 
	{ NOTE_A3, 94 }, 
	{ NOTE_E3, 94 }, 
	{ NOTE_C4, 94 }, 
	{ NOTE_A3, 94 }, 
	{ NOTE_E4, 94 }, 
	{ NOTE_C4, 94 }, 
	{ NOTE_A4, 94 }, 
	{ NOTE_E4, 94 }, 
	{ NOTE_C5, 94 }, 
	{ NOTE_A4, 94 }, 
	{ NOTE_E5, 94 }, 
	{ NOTE_C5, 91 }, 
	{ NOTE_REST, 1500 }, 
	{ NOTE_A4, 94 }, 
	{ NOTE_C5, 94 }, 
	{ NOTE_E5, 94 }, 
	{ NOTE_C5, 94 }, 
	{ NOTE_B4, 94 }, 
	{ NOTE_D5, 94 }, 
	{ NOTE_E5, 94 }, 
	{ NOTE_D5, 94 }, 
	{ NOTE_C5, 94 }, 
	{ NOTE_A5, 94 }, 
	{ NOTE_G5, 94 }, 
	{ NOTE_F5, 94 }, 
	{ NOTE_E5, 94 }, 
	{ NOTE_D5, 94 }, 
	{ NOTE_C5, 94 }, 
	{ NOTE_B4, 90 }, 
	{ NOTE_A4, 94 }, 
	{ NOTE_C5, 94 }, 
	{ NOTE_E5, 94 }, 
	{ NOTE_C5, 94 }, 
	{ NOTE_B4, 94 }, 
	{ NOTE_D5, 94 }, 
	{ NOTE_E5, 94 }, 
	{ NOTE_D5, 94 }, 
	{ NOTE_C5, 94 }, 
	{ NOTE_A5, 94 }, 
	{ NOTE_G5, 94 }, 
	{ NOTE_F5, 94 }, 
	{ NOTE_E5, 94 }, 
	{ NOTE_D5, 94 }, 
	{ NOTE_C5, 94 }, 
	{ NOTE_B4, 90 }, 
	{ NOTE_A4, 94 }, 
	{ NOTE_CS5, 94 }, 
	{ NOTE_E5, 94 }, 
	{ NOTE_CS5, 94 }, 
	{ NOTE_A5, 94 }, 
	{ NOTE_G5, 94 }, 
	{ NOTE_F5, 94 }, 
	{ NOTE_E5, 94 }, 
	{ NOTE_CS5, 94 }, 
	{ NOTE_D5, 94 }, 
	{ NOTE_B5, 94 }, 
	{ NOTE_A5, 94 }, 
	{ NOTE_G5, 94 }, 
	{ NOTE_F5, 94 }, 
	{ NOTE_E5, 94 }, 
	{ NOTE_D5, 90 }, 
	{ NOTE_G4, 94 }, 
	{ NOTE_B4, 94 }, 
	{ NOTE_D5, 94 }, 
	{ NOTE_B4, 94 }, 
	{ NOTE_F5, 94 }, 
	{ NOTE_E5, 94 }, 
	{ NOTE_D5, 94 }, 
	{ NOTE_B4, 94 }, 
	{ NOTE_C5, 94 }, 
	{ NOTE_A5, 94 }, 
	{ NOTE_G5, 94 }, 
	{ NOTE_F5, 94 }, 
	{ NOTE_E5, 94 }, 
	{ NOTE_D5, 94 }, 
	{ NOTE_C5, 94 }, 
	{ NOTE_B4, 90 }, 
	{ NOTE_F4, 94 }, 
	{ NOTE_A4, 94 }, 
	{ NOTE_C5, 94 }, 
	{ NOTE_A4, 94 }, 
	{ NOTE_F5, 94 }, 
	{ NOTE_E5, 94 }, 
	{ NOTE_D5, 94 }, 
	{ NOTE_C5, 94 }, 
	{ NOTE_GS4, 94 }, 
	{ NOTE_B4, 94 }, 
	{ NOTE_F5, 94 }, 
	{ NOTE_D5, 94 }, 
	{ NOTE_A4, 94 }, 
	{ NOTE_C5, 94 }, 
	{ NOTE_A5, 94 }, 
	{ NOTE_EB5, 90 }, 
	{ NOTE_E5, 94 }, 
	{ NOTE_GS5, 188 }, 
	{ NOTE_E5, 0 }, 
	{ NOTE_D5, 94 }, 
	{ NOTE_FS5, 188 }, 
	{ NOTE_D5, 0 }, 
	{ NOTE_CS5, 94 }, 
	{ NOTE_E5, 94 }, 
	{ NOTE_E5, 94 }, 
	{ NOTE_CS5, 0 }, 
	{ NOTE_B4, 94 }, 
	{ NOTE_D5, 188 }, 
	{ NOTE_B4, 0 }, 
	{ NOTE_A4, 94 }, 
	{ NOTE_CS5, 188 }, 
	{ NOTE_A4, 0 }, 
	{ NOTE_GS4, 94 }, 
	{ NOTE_B4, 188 }, 
	{ NOTE_GS4, 0 }, 
	{ NOTE_FS4, 94 }, 
	{ NOTE_A4, 94 }, 
	{ NOTE_FS4, 0 }, 
	{ NOTE_E4, 94 }, 
	{ NOTE_GS4, 94 }, 
	{ NOTE_E4, 94 }, 
	{ NOTE_E4, 88 }, 
	{ NOTE_B4, 94 }, 
	{ NOTE_GS4, 94 }, 
	{ NOTE_E4, 94 }, 
	{ NOTE_E4, 94 }, 
	{ NOTE_B4, 94 }, 
	{ NOTE_GS4, 94 }, 
	{ NOTE_E4, 94 }, 
	{ NOTE_E4, 94 }, 
	{ NOTE_B4, 94 }, 
	{ NOTE_GS4, 94 }, 
	{ NOTE_E4, 94 }, 
	{ NOTE_E4, 94 }, 
	{ NOTE_B4, 94 }, 
	{ NOTE_GS4, 94 }, 
	{ NOTE_E4, 94 }, 
	{ NOTE_E4, 90 }, 
	{ NOTE_B4, 94 }, 
	{ NOTE_GS4, 94 }, 
	{ NOTE_E4, 94 }, 
	{ NOTE_E4, 94 }, 
	{ NOTE_B4, 94 }, 
	{ NOTE_GS4, 94 }, 
	{ NOTE_E4, 94 }, 
	{ NOTE_E4, 94 }, 
	{ NOTE_B4, 94 }, 
	{ NOTE_GS4, 94 }, 
	{ NOTE_E4, 94 }, 
	{ NOTE_E4, 94 }, 
	{ NOTE_B4, 94 }, 
	{ NOTE_GS4, 94 }, 
	{ NOTE_E4, 94 }, 
	{ NOTE_E4, 90 }, 
	{ NOTE_B4, 94 }, 
	{ NOTE_GS4, 94 }, 
	{ NOTE_E4, 94 }, 
	{ NOTE_E4, 94 }, 
	{ NOTE_FS5, 94 }, 
	{ NOTE_EB5, 94 }, 
	{ NOTE_B4, 94 }, 
	{ NOTE_E4, 94 }, 
	{ NOTE_A5, 94 }, 
	{ NOTE_FS5, 94 }, 
	{ NOTE_D5, 94 }, 
	{ NOTE_E4, 94 }, 
	{ NOTE_E5, 94 }, 
	{ NOTE_CS5, 94 }, 
	{ NOTE_A4, 94 }, 
	{ NOTE_E4, 90 }, 
	{ NOTE_B4, 94 }, 
	{ NOTE_GS4, 94 }, 
	{ NOTE_E4, 94 }, 
	{ NOTE_E4, 94 }, 
	{ NOTE_FS5, 94 }, 
	{ NOTE_EB5, 94 }, 
	{ NOTE_B4, 94 }, 
	{ NOTE_E4, 94 }, 
	{ NOTE_A5, 94 }, 
	{ NOTE_FS5, 94 }, 
	{ NOTE_D5, 94 }, 
	{ NOTE_E4, 94 }, 
	{ NOTE_E5, 94 }, 
	{ NOTE_CS5, 94 }, 
	{ NOTE_A4, 94 }, 
	{ NOTE_E4, 90 }, 
	{ NOTE_B4, 94 }, 
	{ NOTE_GS4, 94 }, 
	{ NOTE_E4, 94 }, 
	{ NOTE_E4, 94 }, 
	{ NOTE_FS5, 94 }, 
	{ NOTE_EB5, 94 }, 
	{ NOTE_B4, 94 }, 
	{ NOTE_E4, 94 }, 
	{ NOTE_A5, 94 }, 
	{ NOTE_FS5, 94 }, 
	{ NOTE_D5, 94 }, 
	{ NOTE_E4, 94 }, 
	{ NOTE_E5, 94 }, 
	{ NOTE_CS5, 94 }, 
	{ NOTE_A4, 94 }, 
	{ NOTE_E4, 90 }, 
	{ NOTE_B4, 94 }, 
	{ NOTE_GS4, 94 }, 
	{ NOTE_E4, 94 }, 
	{ NOTE_E4, 94 }, 
	{ NOTE_FS5, 94 }, 
	{ NOTE_EB5, 94 }, 
	{ NOTE_B4, 94 }, 
	{ NOTE_E4, 94 }, 
	{ NOTE_A5, 94 }, 
	{ NOTE_FS5, 94 }, 
	{ NOTE_D5, 94 }, 
	{ NOTE_E4, 94 }, 
	{ NOTE_E5, 94 }, 
	{ NOTE_CS5, 94 }, 
	{ NOTE_A4, 94 }, 
	{ NOTE_E4, 90 }, 
	{ NOTE_B5, 94 }, 
	{ NOTE_GS5, 94 }, 
	{ NOTE_E5, 94 }, 
	{ NOTE_E4, 94 }, 
	{ NOTE_B4, 94 }, 
	{ NOTE_GS4, 94 }, 
	{ NOTE_E4, 94 }, 
	{ NOTE_E4, 94 }, 
	{ NOTE_A5, 94 }, 
	{ NOTE_FS5, 94 }, 
	{ NOTE_D5, 94 }, 
	{ NOTE_E4, 94 }, 
	{ NOTE_A4, 94 }, 
	{ NOTE_FS4, 94 }, 
	{ NOTE_D4, 94 }, 
	{ NOTE_E4, 90 }, 
	{ NOTE_B5, 94 }, 
	{ NOTE_GS5, 94 }, 
	{ NOTE_E5, 94 }, 
	{ NOTE_E4, 94 }, 
	{ NOTE_B4, 94 }, 
	{ NOTE_GS4, 94 }, 
	{ NOTE_E4, 94 }, 
	{ NOTE_E4, 94 }, 
	{ NOTE_A5, 94 }, 
	{ NOTE_FS5, 94 }, 
	{ NOTE_D5, 94 }, 
	{ NOTE_E4, 94 }, 
	{ NOTE_A4, 94 }, 
	{ NOTE_FS4, 94 }, 
	{ NOTE_D4, 94 }, 
	{ NOTE_E4, 90 }, 
	{ NOTE_D6, 94 }, 
	{ NOTE_B5, 94 }, 
	{ NOTE_G5, 94 }, 
	{ NOTE_E4, 94 }, 
	{ NOTE_D5, 94 }, 
	{ NOTE_B4, 94 }, 
	{ NOTE_G4, 94 }, 
	{ NOTE_E4, 94 }, 
	{ NOTE_C6, 94 }, 
	{ NOTE_A5, 94 }, 
	{ NOTE_F5, 94 }, 
	{ NOTE_E4, 94 }, 
	{ NOTE_C5, 94 }, 
	{ NOTE_A4, 94 }, 
	{ NOTE_F4, 94 }, 
	{ NOTE_E4, 90 }, 
	{ NOTE_D6, 94 }, 
	{ NOTE_B5, 94 }, 
	{ NOTE_G5, 94 }, 
	{ NOTE_E4, 94 }, 
	{ NOTE_D5, 94 }, 
	{ NOTE_B4, 94 }, 
	{ NOTE_G4, 94 }, 
	{ NOTE_E4, 94 }, 
	{ NOTE_C6, 94 }, 
	{ NOTE_A5, 94 }, 
	{ NOTE_F5, 94 }, 
	{ NOTE_E4, 94 }, 
	{ NOTE_C5, 94 }, 
	{ NOTE_A4, 94 }, 
	{ NOTE_F4, 94 }, 
	{ NOTE_E4, 90 }, 
	{ NOTE_D6, 94 }, 
	{ NOTE_B5, 94 }, 
	{ NOTE_GS5, 94 }, 
	{ NOTE_F5, 94 }, 
	{ NOTE_B5, 94 }, 
	{ NOTE_GS5, 94 }, 
	{ NOTE_F5, 94 }, 
	{ NOTE_D5, 94 }, 
	{ NOTE_GS5, 94 }, 
	{ NOTE_F5, 94 }, 
	{ NOTE_D5, 94 }, 
	{ NOTE_B4, 94 }, 
	{ NOTE_F5, 94 }, 
	{ NOTE_D5, 94 }, 
	{ NOTE_B4, 94 }, 
	{ NOTE_GS4, 90 }, 
	{ NOTE_D5, 94 }, 
	{ NOTE_B4, 94 }, 
	{ NOTE_GS4, 94 }, 
	{ NOTE_F4, 94 }, 
	{ NOTE_B4, 94 }, 
	{ NOTE_GS4, 94 }, 
	{ NOTE_F4, 94 }, 
	{ NOTE_D4, 94 }, 
	{ NOTE_GS4, 94 }, 
	{ NOTE_F4, 94 }, 
	{ NOTE_D4, 94 }, 
	{ NOTE_B3, 94 }, 
	{ NOTE_F4, 94 }, 
	{ NOTE_D4, 94 }, 
	{ NOTE_B3, 94 }, 
	{ NOTE_GS3, 90 }, 
	{ NOTE_A3, 750 }, 
	{ NOTE_A3, 750 }, 
	{ NOTE_E3, 375 }, 
	{ NOTE_E2, 70 }, 
	{ NOTE_E2, 70 }, 
	{ NOTE_E2, 70 }, 
	{ NOTE_E2, 70 }, 
	{ NOTE_E2, 70 }, 
	{ NOTE_E2, 70 }, 
	{ NOTE_E2, 70 }, 
	{ NOTE_E2, 70 }, 
	{ NOTE_E2, 70 }, 
	{ NOTE_E2, 70 }, 
	{ NOTE_E2, 70 }, 
	{ NOTE_E2, 70 }, 
	{ NOTE_E2, 70 }, 
	{ NOTE_E2, 70 }, 
	{ NOTE_E2, 70 }, 
	{ NOTE_E2, 75 }, 
	{ NOTE_E2, 70 }, 
	{ NOTE_E2, 70 }, 
	{ NOTE_E2, 70 }, 
	{ NOTE_E2, 70 }, 
	{ NOTE_E2, 70 }, 
	{ NOTE_E2, 70 }, 
	{ NOTE_E2, 70 }, 
	{ NOTE_E2, 70 }, 
	{ NOTE_E3, 188 }, 
	{ NOTE_B2, 188 }, 
	{ NOTE_E3, 188 }, 
	{ NOTE_E4, 188 }, 
	{ NOTE_E4, 188 }, 
	{ NOTE_E5, 188 }, 
	{ NOTE_B4, 188 }, 
	{ NOTE_REST, 750 }, 
	{ NOTE_REST, 374 }, 
	{ NOTE_A2, 94 }, 
	{ NOTE_B2, 94 }, 
	{ NOTE_C3, 94 }, 
	{ NOTE_D3, 94 }, 
	{ NOTE_E3, 94 }, 
	{ NOTE_F3, 94 }, 
	{ NOTE_GS3, 94 }, 
	{ NOTE_A3, 94 }, 
	{ NOTE_B3, 94 }, 
	{ NOTE_C4, 94 }, 
	{ NOTE_D4, 94 }, 
	{ NOTE_E4, 94 }, 
	{ NOTE_F4, 94 }, 
	{ NOTE_GS4, 94 }, 
	{ NOTE_A4, 94 }, 
	{ NOTE_B4, 90 }, 
	{ NOTE_C5, 94 }, 
	{ NOTE_D5, 94 }, 
	{ NOTE_E5, 94 }, 
	{ NOTE_F5, 94 }, 
	{ NOTE_GS5, 94 }, 
	{ NOTE_A5, 94 }, 
	{ NOTE_B5, 94 }, 
	{ NOTE_C6, 94 }, 
	{ NOTE_D6, 94 }, 
	{ NOTE_REST, 94 }, 
	{ NOTE_REST, 94 }, 
	{ NOTE_REST, 94 }, 
	{ NOTE_REST, 94 }, 
	{ NOTE_REST, 94 }, 
	{ NOTE_E6, 184 }, 
	{ NOTE_E6, 94 }, 
	{ NOTE_F6, 375 }, 
	{ NOTE_E6, 94 }, 
	{ NOTE_GS6, 375 }, 
	{ NOTE_REST, 94 }, 
	{ NOTE_A6, 468 }, 
};
const uint16_t NUM_OF_NOTES2 = sizeof(melody2)/sizeof(melody2[0]);

const Note melody3[] PROGMEM = {
	{ NOTE_REST, 750 }, 
	{ NOTE_REST, 94 }, 
	{ NOTE_A3, 94 }, 
	{ NOTE_B3, 94 }, 
	{ NOTE_A3, 94 }, 
	{ NOTE_C4, 94 }, 
	{ NOTE_A3, 94 }, 
	{ NOTE_B3, 94 }, 
	{ NOTE_A3, 92 }, 
	{ NOTE_C4, 94 }, 
	{ NOTE_A3, 94 }, 
	{ NOTE_B3, 94 }, 
	{ NOTE_A3, 94 }, 
	{ NOTE_C4, 94 }, 
	{ NOTE_A3, 94 }, 
	{ NOTE_B3, 94 }, 
	{ NOTE_A3, 94 }, 
	{ NOTE_C4, 94 }, 
	{ NOTE_A3, 94 }, 
	{ NOTE_B3, 94 }, 
	{ NOTE_A3, 94 }, 
	{ NOTE_C4, 94 }, 
	{ NOTE_A3, 94 }, 
	{ NOTE_B3, 94 }, 
	{ NOTE_A3, 90 }, 
	{ NOTE_C4, 94 }, 
	{ NOTE_A3, 94 }, 
	{ NOTE_B3, 94 }, 
	{ NOTE_A3, 94 }, 
	{ NOTE_C4, 94 }, 
	{ NOTE_A3, 94 }, 
	{ NOTE_B3, 94 }, 
	{ NOTE_A3, 94 }, 
	{ NOTE_C4, 94 }, 
	{ NOTE_A3, 94 }, 
	{ NOTE_B3, 94 }, 
	{ NOTE_A3, 94 }, 
	{ NOTE_C4, 94 }, 
	{ NOTE_A3, 94 }, 
	{ NOTE_B3, 94 }, 
	{ NOTE_A3, 90 }, 
	{ NOTE_C4, 188 }, 
	{ NOTE_A3, 188 }, 
	{ NOTE_B3, 188 }, 
	{ NOTE_A3, 188 }, 
	{ NOTE_C4, 188 }, 
	{ NOTE_A3, 560 }, 
	{ NOTE_A2, 94 }, 
	{ NOTE_C3, 94 }, 
	{ NOTE_E3, 94 }, 
	{ NOTE_A3, 94 }, 
	{ NOTE_C4, 94 }, 
	{ NOTE_E4, 94 }, 
	{ NOTE_A4, 94 }, 
	{ NOTE_C5, 94 }, 
	{ NOTE_E5, 94 }, 
	{ NOTE_C5, 94 }, 
	{ NOTE_A4, 94 }, 
	{ NOTE_E4, 94 }, 
	{ NOTE_C4, 94 }, 
	{ NOTE_A3, 94 }, 
	{ NOTE_D3, 94 }, 
	{ NOTE_C3, 90 }, 
	{ NOTE_B2, 94 }, 
	{ NOTE_D3, 94 }, 
	{ NOTE_E3, 94 }, 
	{ NOTE_GS3, 94 }, 
	{ NOTE_B3, 94 }, 
	{ NOTE_D4, 94 }, 
	{ NOTE_E4, 94 }, 
	{ NOTE_GS4, 94 }, 
	{ NOTE_B4, 94 }, 
	{ NOTE_GS4, 94 }, 
	{ NOTE_E4, 94 }, 
	{ NOTE_D4, 94 }, 
	{ NOTE_B3, 94 }, 
	{ NOTE_GS3, 94 }, 
	{ NOTE_E3, 94 }, 
	{ NOTE_D3, 90 }, 
	{ NOTE_A2, 94 }, 
	{ NOTE_CS3, 94 }, 
	{ NOTE_E3, 94 }, 
	{ NOTE_G3, 94 }, 
	{ NOTE_A3, 94 }, 
	{ NOTE_CS4, 94 }, 
	{ NOTE_E4, 94 }, 
	{ NOTE_G4, 94 }, 
	{ NOTE_A4, 94 }, 
	{ NOTE_G4, 94 }, 
	{ NOTE_E4, 94 }, 
	{ NOTE_CS4, 94 }, 
	{ NOTE_A3, 94 }, 
	{ NOTE_G3, 94 }, 
	{ NOTE_E3, 94 }, 
	{ NOTE_CS3, 90 }, 
	{ NOTE_A2, 94 }, 
	{ NOTE_D3, 94 }, 
	{ NOTE_F3, 94 }, 
	{ NOTE_A3, 94 }, 
	{ NOTE_D4, 94 }, 
	{ NOTE_F4, 94 }, 
	{ NOTE_A4, 94 }, 
	{ NOTE_D5, 94 }, 
	{ NOTE_F5, 94 }, 
	{ NOTE_D5, 94 }, 
	{ NOTE_A4, 94 }, 
	{ NOTE_F4, 94 }, 
	{ NOTE_D4, 94 }, 
	{ NOTE_A3, 94 }, 
	{ NOTE_D3, 94 }, 
	{ NOTE_C3, 90 }, 
	{ NOTE_B2, 94 }, 
	{ NOTE_D3, 94 }, 
	{ NOTE_F3, 94 }, 
	{ NOTE_GS3, 94 }, 
	{ NOTE_B3, 94 }, 
	{ NOTE_D4, 94 }, 
	{ NOTE_F4, 94 }, 
	{ NOTE_GS4, 94 }, 
	{ NOTE_B4, 94 }, 
	{ NOTE_GS4, 94 }, 
	{ NOTE_F4, 94 }, 
	{ NOTE_D4, 94 }, 
	{ NOTE_B3, 94 }, 
	{ NOTE_GS3, 94 }, 
	{ NOTE_F3, 94 }, 
	{ NOTE_B2, 90 }, 
	{ NOTE_A2, 125 }, 
	{ NOTE_E3, 125 }, 
	{ NOTE_C3, 125 }, 
	{ NOTE_A3, 94 }, 
	{ NOTE_E3, 94 }, 
	{ NOTE_C4, 94 }, 
	{ NOTE_A3, 94 }, 
	{ NOTE_E4, 94 }, 
	{ NOTE_C4, 94 }, 
	{ NOTE_A4, 94 }, 
	{ NOTE_E4, 94 }, 
	{ NOTE_C5, 94 }, 
	{ NOTE_A4, 94 }, 
	{ NOTE_E5, 94 }, 
	{ NOTE_C5, 91 }, 
	{ NOTE_E2, 1500 }, 
	{ NOTE_A4, 94 }, 
	{ NOTE_C5, 94 }, 
	{ NOTE_E5, 94 }, 
	{ NOTE_C5, 94 }, 
	{ NOTE_B4, 94 }, 
	{ NOTE_D5, 94 }, 
	{ NOTE_E5, 94 }, 
	{ NOTE_D5, 94 }, 
	{ NOTE_C5, 94 }, 
	{ NOTE_A5, 94 }, 
	{ NOTE_G5, 94 }, 
	{ NOTE_F5, 94 }, 
	{ NOTE_E5, 94 }, 
	{ NOTE_D5, 94 }, 
	{ NOTE_C5, 94 }, 
	{ NOTE_B4, 90 }, 
	{ NOTE_A4, 94 }, 
	{ NOTE_C5, 94 }, 
	{ NOTE_E5, 94 }, 
	{ NOTE_C5, 94 }, 
	{ NOTE_B4, 94 }, 
	{ NOTE_D5, 94 }, 
	{ NOTE_E5, 94 }, 
	{ NOTE_D5, 94 }, 
	{ NOTE_C5, 94 }, 
	{ NOTE_A5, 94 }, 
	{ NOTE_G5, 94 }, 
	{ NOTE_F5, 94 }, 
	{ NOTE_E5, 94 }, 
	{ NOTE_D5, 94 }, 
	{ NOTE_C5, 94 }, 
	{ NOTE_B4, 90 }, 
	{ NOTE_A4, 94 }, 
	{ NOTE_CS5, 94 }, 
	{ NOTE_E5, 94 }, 
	{ NOTE_CS5, 94 }, 
	{ NOTE_A5, 94 }, 
	{ NOTE_G5, 94 }, 
	{ NOTE_F5, 94 }, 
	{ NOTE_E5, 94 }, 
	{ NOTE_CS5, 94 }, 
	{ NOTE_D5, 94 }, 
	{ NOTE_B5, 94 }, 
	{ NOTE_A5, 94 }, 
	{ NOTE_G5, 94 }, 
	{ NOTE_F5, 94 }, 
	{ NOTE_E5, 94 }, 
	{ NOTE_D5, 90 }, 
	{ NOTE_G4, 94 }, 
	{ NOTE_B4, 94 }, 
	{ NOTE_D5, 94 }, 
	{ NOTE_B4, 94 }, 
	{ NOTE_F5, 94 }, 
	{ NOTE_E5, 94 }, 
	{ NOTE_D5, 94 }, 
	{ NOTE_B4, 94 }, 
	{ NOTE_C5, 94 }, 
	{ NOTE_A5, 94 }, 
	{ NOTE_G5, 94 }, 
	{ NOTE_F5, 94 }, 
	{ NOTE_E5, 94 }, 
	{ NOTE_D5, 94 }, 
	{ NOTE_C5, 94 }, 
	{ NOTE_B4, 90 }, 
	{ NOTE_F4, 94 }, 
	{ NOTE_A4, 94 }, 
	{ NOTE_C5, 94 }, 
	{ NOTE_A4, 94 }, 
	{ NOTE_F5, 94 }, 
	{ NOTE_E5, 94 }, 
	{ NOTE_D5, 94 }, 
	{ NOTE_C5, 94 }, 
	{ NOTE_GS4, 94 }, 
	{ NOTE_B4, 94 }, 
	{ NOTE_F5, 94 }, 
	{ NOTE_D5, 94 }, 
	{ NOTE_A4, 94 }, 
	{ NOTE_C5, 94 }, 
	{ NOTE_A5, 94 }, 
	{ NOTE_EB5, 90 }, 
	{ NOTE_E5, 94 }, 
	{ NOTE_GS5, 188 }, 
	{ NOTE_E5, 0 }, 
	{ NOTE_D5, 94 }, 
	{ NOTE_FS5, 188 }, 
	{ NOTE_D5, 0 }, 
	{ NOTE_CS5, 94 }, 
	{ NOTE_E5, 94 }, 
	{ NOTE_E5, 94 }, 
	{ NOTE_CS5, 0 }, 
	{ NOTE_B4, 94 }, 
	{ NOTE_D5, 188 }, 
	{ NOTE_B4, 0 }, 
	{ NOTE_A4, 94 }, 
	{ NOTE_CS5, 188 }, 
	{ NOTE_A4, 0 }, 
	{ NOTE_GS4, 94 }, 
	{ NOTE_B4, 188 }, 
	{ NOTE_GS4, 0 }, 
	{ NOTE_FS4, 94 }, 
	{ NOTE_A4, 94 }, 
	{ NOTE_FS4, 0 }, 
	{ NOTE_E4, 94 }, 
	{ NOTE_GS4, 94 }, 
	{ NOTE_E4, 94 }, 
	{ NOTE_E4, 88 }, 
	{ NOTE_B4, 94 }, 
	{ NOTE_GS4, 94 }, 
	{ NOTE_E4, 94 }, 
	{ NOTE_E4, 94 }, 
	{ NOTE_B4, 94 }, 
	{ NOTE_GS4, 94 }, 
	{ NOTE_E4, 94 }, 
	{ NOTE_E4, 94 }, 
	{ NOTE_B4, 94 }, 
	{ NOTE_GS4, 94 }, 
	{ NOTE_E4, 94 }, 
	{ NOTE_E4, 94 }, 
	{ NOTE_B4, 94 }, 
	{ NOTE_GS4, 94 }, 
	{ NOTE_E4, 94 }, 
	{ NOTE_E4, 90 }, 
	{ NOTE_B4, 94 }, 
	{ NOTE_GS4, 94 }, 
	{ NOTE_E4, 94 }, 
	{ NOTE_E4, 94 }, 
	{ NOTE_B4, 94 }, 
	{ NOTE_GS4, 94 }, 
	{ NOTE_E4, 94 }, 
	{ NOTE_E4, 94 }, 
	{ NOTE_B4, 94 }, 
	{ NOTE_GS4, 94 }, 
	{ NOTE_E4, 94 }, 
	{ NOTE_E4, 94 }, 
	{ NOTE_B4, 94 }, 
	{ NOTE_GS4, 94 }, 
	{ NOTE_E4, 94 }, 
	{ NOTE_E4, 90 }, 
	{ NOTE_B4, 94 }, 
	{ NOTE_GS4, 94 }, 
	{ NOTE_E4, 94 }, 
	{ NOTE_E4, 94 }, 
	{ NOTE_FS5, 94 }, 
	{ NOTE_EB5, 94 }, 
	{ NOTE_B4, 94 }, 
	{ NOTE_E4, 94 }, 
	{ NOTE_A5, 94 }, 
	{ NOTE_FS5, 94 }, 
	{ NOTE_D5, 94 }, 
	{ NOTE_E4, 94 }, 
	{ NOTE_E5, 94 }, 
	{ NOTE_CS5, 94 }, 
	{ NOTE_A4, 94 }, 
	{ NOTE_E4, 90 }, 
	{ NOTE_B4, 94 }, 
	{ NOTE_GS4, 94 }, 
	{ NOTE_E4, 94 }, 
	{ NOTE_E4, 94 }, 
	{ NOTE_FS5, 94 }, 
	{ NOTE_EB5, 94 }, 
	{ NOTE_B4, 94 }, 
	{ NOTE_E4, 94 }, 
	{ NOTE_A5, 94 }, 
	{ NOTE_FS5, 94 }, 
	{ NOTE_D5, 94 }, 
	{ NOTE_E4, 94 }, 
	{ NOTE_E5, 94 }, 
	{ NOTE_CS5, 94 }, 
	{ NOTE_A4, 94 }, 
	{ NOTE_E4, 90 }, 
	{ NOTE_B4, 94 }, 
	{ NOTE_GS4, 94 }, 
	{ NOTE_E4, 94 }, 
	{ NOTE_E4, 94 }, 
	{ NOTE_FS5, 94 }, 
	{ NOTE_EB5, 94 }, 
	{ NOTE_B4, 94 }, 
	{ NOTE_E4, 94 }, 
	{ NOTE_A5, 94 }, 
	{ NOTE_FS5, 94 }, 
	{ NOTE_D5, 94 }, 
	{ NOTE_E4, 94 }, 
	{ NOTE_E5, 94 }, 
	{ NOTE_CS5, 94 }, 
	{ NOTE_A4, 94 }, 
	{ NOTE_E4, 90 }, 
	{ NOTE_B4, 94 }, 
	{ NOTE_GS4, 94 }, 
	{ NOTE_E4, 94 }, 
	{ NOTE_E4, 94 }, 
	{ NOTE_FS5, 94 }, 
	{ NOTE_EB5, 94 }, 
	{ NOTE_B4, 94 }, 
	{ NOTE_E4, 94 }, 
	{ NOTE_A5, 94 }, 
	{ NOTE_FS5, 94 }, 
	{ NOTE_D5, 94 }, 
	{ NOTE_E4, 94 }, 
	{ NOTE_E5, 94 }, 
	{ NOTE_CS5, 94 }, 
	{ NOTE_A4, 94 }, 
	{ NOTE_E4, 90 }, 
	{ NOTE_B5, 94 }, 
	{ NOTE_GS5, 94 }, 
	{ NOTE_E5, 94 }, 
	{ NOTE_E4, 94 }, 
	{ NOTE_B4, 94 }, 
	{ NOTE_GS4, 94 }, 
	{ NOTE_E4, 94 }, 
	{ NOTE_E4, 94 }, 
	{ NOTE_A5, 94 }, 
	{ NOTE_FS5, 94 }, 
	{ NOTE_D5, 94 }, 
	{ NOTE_E4, 94 }, 
	{ NOTE_A4, 94 }, 
	{ NOTE_FS4, 94 }, 
	{ NOTE_D4, 94 }, 
	{ NOTE_E4, 90 }, 
	{ NOTE_B5, 94 }, 
	{ NOTE_GS5, 94 }, 
	{ NOTE_E5, 94 }, 
	{ NOTE_E4, 94 }, 
	{ NOTE_B4, 94 }, 
	{ NOTE_GS4, 94 }, 
	{ NOTE_E4, 94 }, 
	{ NOTE_E4, 94 }, 
	{ NOTE_A5, 94 }, 
	{ NOTE_FS5, 94 }, 
	{ NOTE_D5, 94 }, 
	{ NOTE_E4, 94 }, 
	{ NOTE_A4, 94 }, 
	{ NOTE_FS4, 94 }, 
	{ NOTE_D4, 94 }, 
	{ NOTE_E4, 90 }, 
	{ NOTE_D6, 94 }, 
	{ NOTE_B5, 94 }, 
	{ NOTE_G5, 94 }, 
	{ NOTE_E4, 94 }, 
	{ NOTE_D5, 94 }, 
	{ NOTE_B4, 94 }, 
	{ NOTE_G4, 94 }, 
	{ NOTE_E4, 94 }, 
	{ NOTE_C6, 94 }, 
	{ NOTE_A5, 94 }, 
	{ NOTE_F5, 94 }, 
	{ NOTE_E4, 94 }, 
	{ NOTE_C5, 94 }, 
	{ NOTE_A4, 94 }, 
	{ NOTE_F4, 94 }, 
	{ NOTE_E4, 90 }, 
	{ NOTE_D6, 94 }, 
	{ NOTE_B5, 94 }, 
	{ NOTE_G5, 94 }, 
	{ NOTE_E4, 94 }, 
	{ NOTE_D5, 94 }, 
	{ NOTE_B4, 94 }, 
	{ NOTE_G4, 94 }, 
	{ NOTE_E4, 94 }, 
	{ NOTE_C6, 94 }, 
	{ NOTE_A5, 94 }, 
	{ NOTE_F5, 94 }, 
	{ NOTE_E4, 94 }, 
	{ NOTE_C5, 94 }, 
	{ NOTE_A4, 94 }, 
	{ NOTE_F4, 94 }, 
	{ NOTE_E4, 90 }, 
	{ NOTE_D6, 94 }, 
	{ NOTE_B5, 94 }, 
	{ NOTE_GS5, 94 }, 
	{ NOTE_F5, 94 }, 
	{ NOTE_B5, 94 }, 
	{ NOTE_GS5, 94 }, 
	{ NOTE_F5, 94 }, 
	{ NOTE_D5, 94 }, 
	{ NOTE_GS5, 94 }, 
	{ NOTE_F5, 94 }, 
	{ NOTE_D5, 94 }, 
	{ NOTE_B4, 94 }, 
	{ NOTE_F5, 94 }, 
	{ NOTE_D5, 94 }, 
	{ NOTE_B4, 94 }, 
	{ NOTE_GS4, 90 }, 
	{ NOTE_D5, 94 }, 
	{ NOTE_B4, 94 }, 
	{ NOTE_GS4, 94 }, 
	{ NOTE_F4, 94 }, 
	{ NOTE_B4, 94 }, 
	{ NOTE_GS4, 94 }, 
	{ NOTE_F4, 94 }, 
	{ NOTE_D4, 94 }, 
	{ NOTE_GS4, 94 }, 
	{ NOTE_F4, 94 }, 
	{ NOTE_D4, 94 }, 
	{ NOTE_B3, 94 }, 
	{ NOTE_F4, 94 }, 
	{ NOTE_D4, 94 }, 
	{ NOTE_B3, 94 }, 
	{ NOTE_GS3, 90 }, 
	{ NOTE_A3, 750 }, 
	{ NOTE_A2, 750 }, 
	{ NOTE_E2, 375 }, 
	{ NOTE_E2, 70 }, 
	{ NOTE_E2, 70 }, 
	{ NOTE_E2, 70 }, 
	{ NOTE_E2, 70 }, 
	{ NOTE_E2, 70 }, 
	{ NOTE_E2, 70 }, 
	{ NOTE_E2, 70 }, 
	{ NOTE_E2, 70 }, 
	{ NOTE_E2, 70 }, 
	{ NOTE_E2, 70 }, 
	{ NOTE_E2, 70 }, 
	{ NOTE_E2, 70 }, 
	{ NOTE_E2, 70 }, 
	{ NOTE_E2, 70 }, 
	{ NOTE_E2, 70 }, 
	{ NOTE_E2, 75 }, 
	{ NOTE_E2, 70 }, 
	{ NOTE_E2, 70 }, 
	{ NOTE_E2, 70 }, 
	{ NOTE_E2, 70 }, 
	{ NOTE_E2, 70 }, 
	{ NOTE_E2, 70 }, 
	{ NOTE_E2, 70 }, 
	{ NOTE_E2, 70 }, 
	{ NOTE_E3, 188 }, 
	{ NOTE_B2, 188 }, 
	{ NOTE_E3, 188 }, 
	{ NOTE_E4, 188 }, 
	{ NOTE_E4, 188 }, 
	{ NOTE_E5, 188 }, 
	{ NOTE_B4, 188 }, 
	{ NOTE_E2, 750 }, 
	{ NOTE_REST, 374 }, 
	{ NOTE_A2, 94 }, 
	{ NOTE_B2, 94 }, 
	{ NOTE_C3, 94 }, 
	{ NOTE_D3, 94 }, 
	{ NOTE_E3, 94 }, 
	{ NOTE_F3, 94 }, 
	{ NOTE_GS3, 94 }, 
	{ NOTE_A3, 94 }, 
	{ NOTE_B3, 94 }, 
	{ NOTE_C4, 94 }, 
	{ NOTE_D4, 94 }, 
	{ NOTE_E4, 94 }, 
	{ NOTE_F4, 94 }, 
	{ NOTE_GS4, 94 }, 
	{ NOTE_A4, 94 }, 
	{ NOTE_B4, 90 }, 
	{ NOTE_C5, 94 }, 
	{ NOTE_D5, 94 }, 
	{ NOTE_E5, 94 }, 
	{ NOTE_F5, 94 }, 
	{ NOTE_GS5, 94 }, 
	{ NOTE_A5, 94 }, 
	{ NOTE_B5, 94 }, 
	{ NOTE_C6, 94 }, 
	{ NOTE_D6, 94 }, 
	{ NOTE_REST, 94 }, 
	{ NOTE_REST, 94 }, 
	{ NOTE_REST, 94 }, 
	{ NOTE_REST, 94 }, 
	{ NOTE_REST, 94 }, 
	{ NOTE_E6, 184 }, 
	{ NOTE_E6, 94 }, 
	{ NOTE_F6, 375 }, 
	{ NOTE_E6, 94 }, 
	{ NOTE_GS6, 375 }, 
	{ NOTE_REST, 94 }, 
	{ NOTE_A6, 468 }, 
};
const uint16_t NUM_OF_NOTES3 = sizeof(melody3)/sizeof(melody3[0]);

const Note melody4[] PROGMEM = {
	{ NOTE_REST, 750 }, 
	{ NOTE_REST, 94 }, 
	{ NOTE_A3, 94 }, 
	{ NOTE_B3, 94 }, 
	{ NOTE_A3, 94 }, 
	{ NOTE_C4, 94 }, 
	{ NOTE_A3, 94 }, 
	{ NOTE_B3, 94 }, 
	{ NOTE_A3, 92 }, 
	{ NOTE_C4, 94 }, 
	{ NOTE_A3, 94 }, 
	{ NOTE_B3, 94 }, 
	{ NOTE_A3, 94 }, 
	{ NOTE_C4, 94 }, 
	{ NOTE_A3, 94 }, 
	{ NOTE_B3, 94 }, 
	{ NOTE_A3, 94 }, 
	{ NOTE_C4, 94 }, 
	{ NOTE_A3, 94 }, 
	{ NOTE_B3, 94 }, 
	{ NOTE_A3, 94 }, 
	{ NOTE_C4, 94 }, 
	{ NOTE_A3, 94 }, 
	{ NOTE_B3, 94 }, 
	{ NOTE_A3, 90 }, 
	{ NOTE_C4, 94 }, 
	{ NOTE_A3, 94 }, 
	{ NOTE_B3, 94 }, 
	{ NOTE_A3, 94 }, 
	{ NOTE_C4, 94 }, 
	{ NOTE_A3, 94 }, 
	{ NOTE_B3, 94 }, 
	{ NOTE_A3, 94 }, 
	{ NOTE_C4, 94 }, 
	{ NOTE_A3, 94 }, 
	{ NOTE_B3, 94 }, 
	{ NOTE_A3, 94 }, 
	{ NOTE_C4, 94 }, 
	{ NOTE_A3, 94 }, 
	{ NOTE_B3, 94 }, 
	{ NOTE_A3, 90 }, 
	{ NOTE_C4, 188 }, 
	{ NOTE_A3, 188 }, 
	{ NOTE_B3, 188 }, 
	{ NOTE_A3, 188 }, 
	{ NOTE_C4, 188 }, 
	{ NOTE_A3, 560 }, 
	{ NOTE_A2, 94 }, 
	{ NOTE_C3, 94 }, 
	{ NOTE_E3, 94 }, 
	{ NOTE_A3, 94 }, 
	{ NOTE_C4, 94 }, 
	{ NOTE_E4, 94 }, 
	{ NOTE_A4, 94 }, 
	{ NOTE_C5, 94 }, 
	{ NOTE_E5, 94 }, 
	{ NOTE_C5, 94 }, 
	{ NOTE_A4, 94 }, 
	{ NOTE_E4, 94 }, 
	{ NOTE_C4, 94 }, 
	{ NOTE_A3, 94 }, 
	{ NOTE_D3, 94 }, 
	{ NOTE_C3, 90 }, 
	{ NOTE_B2, 94 }, 
	{ NOTE_D3, 94 }, 
	{ NOTE_E3, 94 }, 
	{ NOTE_GS3, 94 }, 
	{ NOTE_B3, 94 }, 
	{ NOTE_D4, 94 }, 
	{ NOTE_E4, 94 }, 
	{ NOTE_GS4, 94 }, 
	{ NOTE_B4, 94 }, 
	{ NOTE_GS4, 94 }, 
	{ NOTE_E4, 94 }, 
	{ NOTE_D4, 94 }, 
	{ NOTE_B3, 94 }, 
	{ NOTE_GS3, 94 }, 
	{ NOTE_E3, 94 }, 
	{ NOTE_D3, 90 }, 
	{ NOTE_A2, 94 }, 
	{ NOTE_CS3, 94 }, 
	{ NOTE_E3, 94 }, 
	{ NOTE_G3, 94 }, 
	{ NOTE_A3, 94 }, 
	{ NOTE_CS4, 94 }, 
	{ NOTE_E4, 94 }, 
	{ NOTE_G4, 94 }, 
	{ NOTE_A4, 94 }, 
	{ NOTE_G4, 94 }, 
	{ NOTE_E4, 94 }, 
	{ NOTE_CS4, 94 }, 
	{ NOTE_A3, 94 }, 
	{ NOTE_G3, 94 }, 
	{ NOTE_E3, 94 }, 
	{ NOTE_CS3, 90 }, 
	{ NOTE_A2, 94 }, 
	{ NOTE_D3, 94 }, 
	{ NOTE_F3, 94 }, 
	{ NOTE_A3, 94 }, 
	{ NOTE_D4, 94 }, 
	{ NOTE_F4, 94 }, 
	{ NOTE_A4, 94 }, 
	{ NOTE_D5, 94 }, 
	{ NOTE_F5, 94 }, 
	{ NOTE_D5, 94 }, 
	{ NOTE_A4, 94 }, 
	{ NOTE_F4, 94 }, 
	{ NOTE_D4, 94 }, 
	{ NOTE_A3, 94 }, 
	{ NOTE_D3, 94 }, 
	{ NOTE_C3, 90 }, 
	{ NOTE_B2, 94 }, 
	{ NOTE_D3, 94 }, 
	{ NOTE_F3, 94 }, 
	{ NOTE_GS3, 94 }, 
	{ NOTE_B3, 94 }, 
	{ NOTE_D4, 94 }, 
	{ NOTE_F4, 94 }, 
	{ NOTE_GS4, 94 }, 
	{ NOTE_B4, 94 }, 
	{ NOTE_GS4, 94 }, 
	{ NOTE_F4, 94 }, 
	{ NOTE_D4, 94 }, 
	{ NOTE_B3, 94 }, 
	{ NOTE_GS3, 94 }, 
	{ NOTE_F3, 94 }, 
	{ NOTE_B2, 90 }, 
	{ NOTE_A2, 125 }, 
	{ NOTE_E3, 125 }, 
	{ NOTE_C3, 125 }, 
	{ NOTE_A3, 94 }, 
	{ NOTE_E3, 94 }, 
	{ NOTE_C4, 94 }, 
	{ NOTE_A3, 94 }, 
	{ NOTE_E4, 94 }, 
	{ NOTE_C4, 94 }, 
	{ NOTE_A4, 94 }, 
	{ NOTE_E4, 94 }, 
	{ NOTE_C5, 94 }, 
	{ NOTE_A4, 94 }, 
	{ NOTE_E5, 94 }, 
	{ NOTE_C5, 91 }, 
	{ NOTE_E2, 1500 }, 
	{ NOTE_A4, 94 }, 
	{ NOTE_C5, 94 }, 
	{ NOTE_E5, 94 }, 
	{ NOTE_C5, 94 }, 
	{ NOTE_B4, 94 }, 
	{ NOTE_D5, 94 }, 
	{ NOTE_E5, 94 }, 
	{ NOTE_D5, 94 }, 
	{ NOTE_C5, 94 }, 
	{ NOTE_A5, 94 }, 
	{ NOTE_G5, 94 }, 
	{ NOTE_F5, 94 }, 
	{ NOTE_E5, 94 }, 
	{ NOTE_D5, 94 }, 
	{ NOTE_C5, 94 }, 
	{ NOTE_B4, 90 }, 
	{ NOTE_A4, 94 }, 
	{ NOTE_C5, 94 }, 
	{ NOTE_E5, 94 }, 
	{ NOTE_C5, 94 }, 
	{ NOTE_B4, 94 }, 
	{ NOTE_D5, 94 }, 
	{ NOTE_E5, 94 }, 
	{ NOTE_D5, 94 }, 
	{ NOTE_C5, 94 }, 
	{ NOTE_A5, 94 }, 
	{ NOTE_G5, 94 }, 
	{ NOTE_F5, 94 }, 
	{ NOTE_E5, 94 }, 
	{ NOTE_D5, 94 }, 
	{ NOTE_C5, 94 }, 
	{ NOTE_B4, 90 }, 
	{ NOTE_A4, 94 }, 
	{ NOTE_CS5, 94 }, 
	{ NOTE_E5, 94 }, 
	{ NOTE_CS5, 94 }, 
	{ NOTE_A5, 94 }, 
	{ NOTE_G5, 94 }, 
	{ NOTE_F5, 94 }, 
	{ NOTE_E5, 94 }, 
	{ NOTE_CS5, 94 }, 
	{ NOTE_D5, 94 }, 
	{ NOTE_B5, 94 }, 
	{ NOTE_A5, 94 }, 
	{ NOTE_G5, 94 }, 
	{ NOTE_F5, 94 }, 
	{ NOTE_E5, 94 }, 
	{ NOTE_D5, 90 }, 
	{ NOTE_G4, 94 }, 
	{ NOTE_B4, 94 }, 
	{ NOTE_D5, 94 }, 
	{ NOTE_B4, 94 }, 
	{ NOTE_F5, 94 }, 
	{ NOTE_E5, 94 }, 
	{ NOTE_D5, 94 }, 
	{ NOTE_B4, 94 }, 
	{ NOTE_C5, 94 }, 
	{ NOTE_A5, 94 }, 
	{ NOTE_G5, 94 }, 
	{ NOTE_F5, 94 }, 
	{ NOTE_E5, 94 }, 
	{ NOTE_D5, 94 }, 
	{ NOTE_C5, 94 }, 
	{ NOTE_B4, 90 }, 
	{ NOTE_F4, 94 }, 
	{ NOTE_A4, 94 }, 
	{ NOTE_C5, 94 }, 
	{ NOTE_A4, 94 }, 
	{ NOTE_F5, 94 }, 
	{ NOTE_E5, 94 }, 
	{ NOTE_D5, 94 }, 
	{ NOTE_C5, 94 }, 
	{ NOTE_GS4, 94 }, 
	{ NOTE_B4, 94 }, 
	{ NOTE_F5, 94 }, 
	{ NOTE_D5, 94 }, 
	{ NOTE_A4, 94 }, 
	{ NOTE_C5, 94 }, 
	{ NOTE_A5, 94 }, 
	{ NOTE_EB5, 90 }, 
	{ NOTE_E5, 94 }, 
	{ NOTE_GS5, 188 }, 
	{ NOTE_E5, 0 }, 
	{ NOTE_D5, 94 }, 
	{ NOTE_FS5, 188 }, 
	{ NOTE_D5, 0 }, 
	{ NOTE_CS5, 94 }, 
	{ NOTE_E5, 94 }, 
	{ NOTE_E5, 94 }, 
	{ NOTE_CS5, 0 }, 
	{ NOTE_B4, 94 }, 
	{ NOTE_D5, 188 }, 
	{ NOTE_B4, 0 }, 
	{ NOTE_A4, 94 }, 
	{ NOTE_CS5, 188 }, 
	{ NOTE_A4, 0 }, 
	{ NOTE_GS4, 94 }, 
	{ NOTE_B4, 188 }, 
	{ NOTE_GS4, 0 }, 
	{ NOTE_FS4, 94 }, 
	{ NOTE_A4, 94 }, 
	{ NOTE_FS4, 0 }, 
	{ NOTE_E4, 94 }, 
	{ NOTE_GS4, 94 }, 
	{ NOTE_E4, 94 }, 
	{ NOTE_E4, 88 }, 
	{ NOTE_B4, 94 }, 
	{ NOTE_GS4, 94 }, 
	{ NOTE_E4, 94 }, 
	{ NOTE_E4, 94 }, 
	{ NOTE_B4, 94 }, 
	{ NOTE_GS4, 94 }, 
	{ NOTE_E4, 94 }, 
	{ NOTE_E4, 94 }, 
	{ NOTE_B4, 94 }, 
	{ NOTE_GS4, 94 }, 
	{ NOTE_E4, 94 }, 
	{ NOTE_E4, 94 }, 
	{ NOTE_B4, 94 }, 
	{ NOTE_GS4, 94 }, 
	{ NOTE_E4, 94 }, 
	{ NOTE_E4, 90 }, 
	{ NOTE_B4, 94 }, 
	{ NOTE_GS4, 94 }, 
	{ NOTE_E4, 94 }, 
	{ NOTE_E4, 94 }, 
	{ NOTE_B4, 94 }, 
	{ NOTE_GS4, 94 }, 
	{ NOTE_E4, 94 }, 
	{ NOTE_E4, 94 }, 
	{ NOTE_B4, 94 }, 
	{ NOTE_GS4, 94 }, 
	{ NOTE_E4, 94 }, 
	{ NOTE_E4, 94 }, 
	{ NOTE_B4, 94 }, 
	{ NOTE_GS4, 94 }, 
	{ NOTE_E4, 94 }, 
	{ NOTE_E4, 90 }, 
	{ NOTE_B4, 94 }, 
	{ NOTE_GS4, 94 }, 
	{ NOTE_E4, 94 }, 
	{ NOTE_E4, 94 }, 
	{ NOTE_FS5, 94 }, 
	{ NOTE_EB5, 94 }, 
	{ NOTE_B4, 94 }, 
	{ NOTE_E4, 94 }, 
	{ NOTE_A5, 94 }, 
	{ NOTE_FS5, 94 }, 
	{ NOTE_D5, 94 }, 
	{ NOTE_E4, 94 }, 
	{ NOTE_E5, 94 }, 
	{ NOTE_CS5, 94 }, 
	{ NOTE_A4, 94 }, 
	{ NOTE_E4, 90 }, 
	{ NOTE_B4, 94 }, 
	{ NOTE_GS4, 94 }, 
	{ NOTE_E4, 94 }, 
	{ NOTE_E4, 94 }, 
	{ NOTE_FS5, 94 }, 
	{ NOTE_EB5, 94 }, 
	{ NOTE_B4, 94 }, 
	{ NOTE_E4, 94 }, 
	{ NOTE_A5, 94 }, 
	{ NOTE_FS5, 94 }, 
	{ NOTE_D5, 94 }, 
	{ NOTE_E4, 94 }, 
	{ NOTE_E5, 94 }, 
	{ NOTE_CS5, 94 }, 
	{ NOTE_A4, 94 }, 
	{ NOTE_E4, 90 }, 
	{ NOTE_B4, 94 }, 
	{ NOTE_GS4, 94 }, 
	{ NOTE_E4, 94 }, 
	{ NOTE_E4, 94 }, 
	{ NOTE_FS5, 94 }, 
	{ NOTE_EB5, 94 }, 
	{ NOTE_B4, 94 }, 
	{ NOTE_E4, 94 }, 
	{ NOTE_A5, 94 }, 
	{ NOTE_FS5, 94 }, 
	{ NOTE_D5, 94 }, 
	{ NOTE_E4, 94 }, 
	{ NOTE_E5, 94 }, 
	{ NOTE_CS5, 94 }, 
	{ NOTE_A4, 94 }, 
	{ NOTE_E4, 90 }, 
	{ NOTE_B4, 94 }, 
	{ NOTE_GS4, 94 }, 
	{ NOTE_E4, 94 }, 
	{ NOTE_E4, 94 }, 
	{ NOTE_FS5, 94 }, 
	{ NOTE_EB5, 94 }, 
	{ NOTE_B4, 94 }, 
	{ NOTE_E4, 94 }, 
	{ NOTE_A5, 94 }, 
	{ NOTE_FS5, 94 }, 
	{ NOTE_D5, 94 }, 
	{ NOTE_E4, 94 }, 
	{ NOTE_E5, 94 }, 
	{ NOTE_CS5, 94 }, 
	{ NOTE_A4, 94 }, 
	{ NOTE_E4, 90 }, 
	{ NOTE_B5, 94 }, 
	{ NOTE_GS5, 94 }, 
	{ NOTE_E5, 94 }, 
	{ NOTE_E4, 94 }, 
	{ NOTE_B4, 94 }, 
	{ NOTE_GS4, 94 }, 
	{ NOTE_E4, 94 }, 
	{ NOTE_E4, 94 }, 
	{ NOTE_A5, 94 }, 
	{ NOTE_FS5, 94 }, 
	{ NOTE_D5, 94 }, 
	{ NOTE_E4, 94 }, 
	{ NOTE_A4, 94 }, 
	{ NOTE_FS4, 94 }, 
	{ NOTE_D4, 94 }, 
	{ NOTE_E4, 90 }, 
	{ NOTE_B5, 94 }, 
	{ NOTE_GS5, 94 }, 
	{ NOTE_E5, 94 }, 
	{ NOTE_E4, 94 }, 
	{ NOTE_B4, 94 }, 
	{ NOTE_GS4, 94 }, 
	{ NOTE_E4, 94 }, 
	{ NOTE_E4, 94 }, 
	{ NOTE_A5, 94 }, 
	{ NOTE_FS5, 94 }, 
	{ NOTE_D5, 94 }, 
	{ NOTE_E4, 94 }, 
	{ NOTE_A4, 94 }, 
	{ NOTE_FS4, 94 }, 
	{ NOTE_D4, 94 }, 
	{ NOTE_E4, 90 }, 
	{ NOTE_D6, 94 }, 
	{ NOTE_B5, 94 }, 
	{ NOTE_G5, 94 }, 
	{ NOTE_E4, 94 }, 
	{ NOTE_D5, 94 }, 
	{ NOTE_B4, 94 }, 
	{ NOTE_G4, 94 }, 
	{ NOTE_E4, 94 }, 
	{ NOTE_C6, 94 }, 
	{ NOTE_A5, 94 }, 
	{ NOTE_F5, 94 }, 
	{ NOTE_E4, 94 }, 
	{ NOTE_C5, 94 }, 
	{ NOTE_A4, 94 }, 
	{ NOTE_F4, 94 }, 
	{ NOTE_E4, 90 }, 
	{ NOTE_D6, 94 }, 
	{ NOTE_B5, 94 }, 
	{ NOTE_G5, 94 }, 
	{ NOTE_E4, 94 }, 
	{ NOTE_D5, 94 }, 
	{ NOTE_B4, 94 }, 
	{ NOTE_G4, 94 }, 
	{ NOTE_E4, 94 }, 
	{ NOTE_C6, 94 }, 
	{ NOTE_A5, 94 }, 
	{ NOTE_F5, 94 }, 
	{ NOTE_E4, 94 }, 
	{ NOTE_C5, 94 }, 
	{ NOTE_A4, 94 }, 
	{ NOTE_F4, 94 }, 
	{ NOTE_E4, 90 }, 
	{ NOTE_D6, 94 }, 
	{ NOTE_B5, 94 }, 
	{ NOTE_GS5, 94 }, 
	{ NOTE_F5, 94 }, 
	{ NOTE_B5, 94 }, 
	{ NOTE_GS5, 94 }, 
	{ NOTE_F5, 94 }, 
	{ NOTE_D5, 94 }, 
	{ NOTE_GS5, 94 }, 
	{ NOTE_F5, 94 }, 
	{ NOTE_D5, 94 }, 
	{ NOTE_B4, 94 }, 
	{ NOTE_F5, 94 }, 
	{ NOTE_D5, 94 }, 
	{ NOTE_B4, 94 }, 
	{ NOTE_GS4, 90 }, 
	{ NOTE_D5, 94 }, 
	{ NOTE_B4, 94 }, 
	{ NOTE_GS4, 94 }, 
	{ NOTE_F4, 94 }, 
	{ NOTE_B4, 94 }, 
	{ NOTE_GS4, 94 }, 
	{ NOTE_F4, 94 }, 
	{ NOTE_D4, 94 }, 
	{ NOTE_GS4, 94 }, 
	{ NOTE_F4, 94 }, 
	{ NOTE_D4, 94 }, 
	{ NOTE_B3, 94 }, 
	{ NOTE_F4, 94 }, 
	{ NOTE_D4, 94 }, 
	{ NOTE_B3, 94 }, 
	{ NOTE_GS3, 90 }, 
	{ NOTE_A3, 750 }, 
	{ NOTE_A2, 750 }, 
	{ NOTE_E2, 375 }, 
	{ NOTE_E2, 70 }, 
	{ NOTE_E2, 70 }, 
	{ NOTE_E2, 70 }, 
	{ NOTE_E2, 70 }, 
	{ NOTE_E2, 70 }, 
	{ NOTE_E2, 70 }, 
	{ NOTE_E2, 70 }, 
	{ NOTE_E2, 70 }, 
	{ NOTE_E2, 70 }, 
	{ NOTE_E2, 70 }, 
	{ NOTE_E2, 70 }, 
	{ NOTE_E2, 70 }, 
	{ NOTE_E2, 70 }, 
	{ NOTE_E2, 70 }, 
	{ NOTE_E2, 70 }, 
	{ NOTE_E2, 75 }, 
	{ NOTE_E2, 70 }, 
	{ NOTE_E2, 70 }, 
	{ NOTE_E2, 70 }, 
	{ NOTE_E2, 70 }, 
	{ NOTE_E2, 70 }, 
	{ NOTE_E2, 70 }, 
	{ NOTE_E2, 70 }, 
	{ NOTE_E2, 70 }, 
	{ NOTE_E3, 188 }, 
	{ NOTE_B2, 188 }, 
	{ NOTE_E3, 188 }, 
	{ NOTE_E4, 188 }, 
	{ NOTE_E4, 188 }, 
	{ NOTE_E5, 188 }, 
	{ NOTE_B4, 188 }, 
	{ NOTE_E2, 750 }, 
	{ NOTE_REST, 374 }, 
	{ NOTE_A2, 94 }, 
	{ NOTE_B2, 94 }, 
	{ NOTE_C3, 94 }, 
	{ NOTE_D3, 94 }, 
	{ NOTE_E3, 94 }, 
	{ NOTE_F3, 94 }, 
	{ NOTE_GS3, 94 }, 
	{ NOTE_A3, 94 }, 
	{ NOTE_B3, 94 }, 
	{ NOTE_C4, 94 }, 
	{ NOTE_D4, 94 }, 
	{ NOTE_E4, 94 }, 
	{ NOTE_F4, 94 }, 
	{ NOTE_GS4, 94 }, 
	{ NOTE_A4, 94 }, 
	{ NOTE_B4, 90 }, 
	{ NOTE_C5, 94 }, 
	{ NOTE_D5, 94 }, 
	{ NOTE_E5, 94 }, 
	{ NOTE_F5, 94 }, 
	{ NOTE_GS5, 94 }, 
	{ NOTE_A5, 94 }, 
	{ NOTE_B5, 94 }, 
	{ NOTE_C6, 94 }, 
	{ NOTE_D6, 94 }, 
	{ NOTE_REST, 94 }, 
	{ NOTE_REST, 94 }, 
	{ NOTE_REST, 94 }, 
	{ NOTE_REST, 94 }, 
	{ NOTE_REST, 94 }, 
	{ NOTE_E6, 184 }, 
	{ NOTE_E6, 94 }, 
	{ NOTE_F6, 375 }, 
	{ NOTE_E6, 94 }, 
	{ NOTE_GS6, 375 }, 
	{ NOTE_REST, 94 }, 
	{ NOTE_A6, 468 }, 
};
const uint16_t NUM_OF_NOTES4 = sizeof(melody4)/sizeof(melody4[0]);

