/*
 * Song: Street Fighter II - Vega Stage's Theme
 *
 *	Melody 0 | Bass
 *	Melody 1 | Track
 *	Melody 2 | Track
 *	Melody 3 | Track
 *	Melody 4 | Track
*/

#include <Arduino.h>
#include "notes.h"

const Note melody0[] PROGMEM = {
	{ NOTE_A3, 211 }, 
	{ NOTE_REST, 211 }, 
	{ NOTE_A3, 211 }, 
	{ NOTE_REST, 106 }, 
	{ NOTE_A3, 106 }, 
	{ NOTE_REST, 106 }, 
	{ NOTE_A3, 106 }, 
	{ NOTE_A3, 106 }, 
	{ NOTE_REST, 106 }, 
	{ NOTE_A3, 211 }, 
	{ NOTE_REST, 210 }, 
	{ NOTE_A3, 211 }, 
	{ NOTE_REST, 211 }, 
	{ NOTE_A3, 211 }, 
	{ NOTE_REST, 106 }, 
	{ NOTE_A3, 106 }, 
	{ NOTE_REST, 106 }, 
	{ NOTE_A3, 106 }, 
	{ NOTE_A3, 106 }, 
	{ NOTE_REST, 106 }, 
	{ NOTE_A3, 211 }, 
	{ NOTE_REST, 210 }, 
	{ NOTE_A3, 211 }, 
	{ NOTE_REST, 211 }, 
	{ NOTE_A3, 211 }, 
	{ NOTE_REST, 106 }, 
	{ NOTE_A3, 106 }, 
	{ NOTE_REST, 106 }, 
	{ NOTE_A3, 106 }, 
	{ NOTE_A3, 106 }, 
	{ NOTE_REST, 106 }, 
	{ NOTE_A3, 211 }, 
	{ NOTE_REST, 210 }, 
	{ NOTE_A3, 211 }, 
	{ NOTE_REST, 211 }, 
	{ NOTE_A3, 211 }, 
	{ NOTE_REST, 106 }, 
	{ NOTE_A3, 106 }, 
	{ NOTE_REST, 106 }, 
	{ NOTE_A3, 106 }, 
	{ NOTE_A3, 106 }, 
	{ NOTE_REST, 106 }, 
	{ NOTE_A3, 211 }, 
	{ NOTE_REST, 210 }, 
	{ NOTE_A3, 211 }, 
	{ NOTE_REST, 211 }, 
	{ NOTE_A3, 211 }, 
	{ NOTE_REST, 106 }, 
	{ NOTE_A3, 106 }, 
	{ NOTE_REST, 106 }, 
	{ NOTE_A3, 106 }, 
	{ NOTE_A3, 106 }, 
	{ NOTE_REST, 106 }, 
	{ NOTE_A3, 211 }, 
	{ NOTE_REST, 210 }, 
	{ NOTE_A3, 211 }, 
	{ NOTE_REST, 211 }, 
	{ NOTE_A3, 211 }, 
	{ NOTE_REST, 106 }, 
	{ NOTE_A3, 106 }, 
	{ NOTE_REST, 106 }, 
	{ NOTE_A3, 106 }, 
	{ NOTE_A3, 106 }, 
	{ NOTE_REST, 106 }, 
	{ NOTE_A3, 211 }, 
	{ NOTE_REST, 210 }, 
	{ NOTE_A3, 211 }, 
	{ NOTE_REST, 211 }, 
	{ NOTE_A3, 211 }, 
	{ NOTE_REST, 106 }, 
	{ NOTE_A3, 106 }, 
	{ NOTE_REST, 106 }, 
	{ NOTE_A3, 106 }, 
	{ NOTE_A3, 106 }, 
	{ NOTE_REST, 106 }, 
	{ NOTE_A3, 211 }, 
	{ NOTE_REST, 210 }, 
	{ NOTE_A3, 211 }, 
	{ NOTE_REST, 211 }, 
	{ NOTE_A3, 211 }, 
	{ NOTE_REST, 106 }, 
	{ NOTE_A3, 106 }, 
	{ NOTE_REST, 106 }, 
	{ NOTE_A3, 106 }, 
	{ NOTE_A3, 106 }, 
	{ NOTE_REST, 106 }, 
	{ NOTE_A3, 211 }, 
	{ NOTE_REST, 210 }, 
	{ NOTE_A3, 211 }, 
	{ NOTE_REST, 211 }, 
	{ NOTE_A3, 211 }, 
	{ NOTE_REST, 106 }, 
	{ NOTE_A3, 106 }, 
	{ NOTE_REST, 106 }, 
	{ NOTE_A3, 106 }, 
	{ NOTE_A3, 106 }, 
	{ NOTE_REST, 106 }, 
	{ NOTE_A3, 211 }, 
	{ NOTE_REST, 210 }, 
	{ NOTE_A3, 211 }, 
	{ NOTE_REST, 211 }, 
	{ NOTE_A3, 211 }, 
	{ NOTE_REST, 106 }, 
	{ NOTE_A3, 106 }, 
	{ NOTE_REST, 106 }, 
	{ NOTE_A3, 106 }, 
	{ NOTE_A3, 106 }, 
	{ NOTE_REST, 106 }, 
	{ NOTE_A3, 211 }, 
	{ NOTE_REST, 210 }, 
	{ NOTE_A3, 211 }, 
	{ NOTE_REST, 211 }, 
	{ NOTE_A3, 211 }, 
	{ NOTE_REST, 106 }, 
	{ NOTE_A3, 106 }, 
	{ NOTE_REST, 106 }, 
	{ NOTE_A3, 106 }, 
	{ NOTE_A3, 106 }, 
	{ NOTE_REST, 106 }, 
	{ NOTE_A3, 211 }, 
	{ NOTE_REST, 210 }, 
	{ NOTE_E4, 211 }, 
	{ NOTE_REST, 211 }, 
	{ NOTE_E4, 211 }, 
	{ NOTE_REST, 106 }, 
	{ NOTE_E4, 106 }, 
	{ NOTE_REST, 106 }, 
	{ NOTE_E4, 106 }, 
	{ NOTE_E4, 106 }, 
	{ NOTE_REST, 106 }, 
	{ NOTE_E4, 211 }, 
	{ NOTE_REST, 210 }, 
	{ NOTE_F4, 211 }, 
	{ NOTE_REST, 211 }, 
	{ NOTE_F4, 211 }, 
	{ NOTE_REST, 106 }, 
	{ NOTE_F4, 106 }, 
	{ NOTE_REST, 106 }, 
	{ NOTE_F4, 106 }, 
	{ NOTE_F4, 106 }, 
	{ NOTE_REST, 106 }, 
	{ NOTE_F4, 211 }, 
	{ NOTE_REST, 210 }, 
	{ NOTE_D4, 211 }, 
	{ NOTE_REST, 211 }, 
	{ NOTE_D4, 211 }, 
	{ NOTE_REST, 106 }, 
	{ NOTE_D4, 106 }, 
	{ NOTE_REST, 106 }, 
	{ NOTE_D4, 106 }, 
	{ NOTE_D4, 106 }, 
	{ NOTE_REST, 106 }, 
	{ NOTE_D4, 211 }, 
	{ NOTE_REST, 210 }, 
	{ NOTE_E4, 211 }, 
	{ NOTE_REST, 211 }, 
	{ NOTE_E4, 211 }, 
	{ NOTE_REST, 106 }, 
	{ NOTE_E4, 106 }, 
	{ NOTE_REST, 106 }, 
	{ NOTE_E4, 106 }, 
	{ NOTE_E4, 106 }, 
	{ NOTE_REST, 106 }, 
	{ NOTE_E4, 211 }, 
	{ NOTE_REST, 210 }, 
	{ NOTE_E4, 211 }, 
	{ NOTE_REST, 211 }, 
	{ NOTE_E4, 211 }, 
	{ NOTE_REST, 106 }, 
	{ NOTE_E4, 106 }, 
	{ NOTE_REST, 106 }, 
	{ NOTE_E4, 106 }, 
	{ NOTE_E4, 106 }, 
	{ NOTE_REST, 106 }, 
	{ NOTE_E4, 211 }, 
	{ NOTE_REST, 210 }, 
	{ NOTE_F4, 211 }, 
	{ NOTE_REST, 211 }, 
	{ NOTE_F4, 211 }, 
	{ NOTE_REST, 106 }, 
	{ NOTE_F4, 106 }, 
	{ NOTE_REST, 106 }, 
	{ NOTE_F4, 106 }, 
	{ NOTE_F4, 106 }, 
	{ NOTE_REST, 106 }, 
	{ NOTE_F4, 211 }, 
	{ NOTE_REST, 210 }, 
	{ NOTE_G4, 211 }, 
	{ NOTE_REST, 211 }, 
	{ NOTE_G4, 211 }, 
	{ NOTE_REST, 106 }, 
	{ NOTE_G4, 106 }, 
	{ NOTE_REST, 106 }, 
	{ NOTE_G4, 106 }, 
	{ NOTE_G4, 106 }, 
	{ NOTE_REST, 106 }, 
	{ NOTE_GS4, 211 }, 
	{ NOTE_REST, 210 }, 
	{ NOTE_A3, 211 }, 
	{ NOTE_REST, 211 }, 
	{ NOTE_A3, 211 }, 
	{ NOTE_REST, 211 }, 
	{ NOTE_A3, 211 }, 
	{ NOTE_REST, 211 }, 
	{ NOTE_A3, 211 }, 
	{ NOTE_REST, 213 }, 
	{ NOTE_A3, 211 }, 
	{ NOTE_REST, 211 }, 
	{ NOTE_A3, 211 }, 
	{ NOTE_REST, 211 }, 
	{ NOTE_A3, 211 }, 
	{ NOTE_REST, 211 }, 
	{ NOTE_A3, 211 }, 
	{ NOTE_REST, 213 }, 
	{ NOTE_A3, 211 }, 
	{ NOTE_REST, 211 }, 
	{ NOTE_A3, 211 }, 
	{ NOTE_REST, 106 }, 
	{ NOTE_A3, 106 }, 
	{ NOTE_REST, 106 }, 
	{ NOTE_A3, 106 }, 
	{ NOTE_A3, 106 }, 
	{ NOTE_REST, 106 }, 
	{ NOTE_A3, 211 }, 
	{ NOTE_REST, 210 }, 
	{ NOTE_GS3, 211 }, 
	{ NOTE_REST, 211 }, 
	{ NOTE_GS3, 211 }, 
	{ NOTE_REST, 106 }, 
	{ NOTE_GS3, 106 }, 
	{ NOTE_REST, 106 }, 
	{ NOTE_GS3, 106 }, 
	{ NOTE_GS3, 106 }, 
	{ NOTE_REST, 106 }, 
	{ NOTE_GS3, 211 }, 
	{ NOTE_REST, 210 }, 
	{ NOTE_G3, 211 }, 
	{ NOTE_REST, 211 }, 
	{ NOTE_G3, 211 }, 
	{ NOTE_REST, 106 }, 
	{ NOTE_G3, 106 }, 
	{ NOTE_REST, 106 }, 
	{ NOTE_G3, 106 }, 
	{ NOTE_G3, 106 }, 
	{ NOTE_REST, 106 }, 
	{ NOTE_G3, 211 }, 
	{ NOTE_REST, 210 }, 
	{ NOTE_FS3, 211 }, 
	{ NOTE_REST, 211 }, 
	{ NOTE_FS3, 211 }, 
	{ NOTE_REST, 106 }, 
	{ NOTE_FS3, 106 }, 
	{ NOTE_REST, 106 }, 
	{ NOTE_FS3, 106 }, 
	{ NOTE_FS3, 106 }, 
	{ NOTE_REST, 106 }, 
	{ NOTE_FS3, 211 }, 
	{ NOTE_REST, 210 }, 
	{ NOTE_F3, 211 }, 
	{ NOTE_REST, 211 }, 
	{ NOTE_F3, 211 }, 
	{ NOTE_REST, 106 }, 
	{ NOTE_F3, 106 }, 
	{ NOTE_REST, 106 }, 
	{ NOTE_F3, 106 }, 
	{ NOTE_F3, 106 }, 
	{ NOTE_REST, 106 }, 
	{ NOTE_F3, 211 }, 
	{ NOTE_REST, 210 }, 
	{ NOTE_E3, 211 }, 
	{ NOTE_REST, 211 }, 
	{ NOTE_E3, 211 }, 
	{ NOTE_REST, 106 }, 
	{ NOTE_E3, 106 }, 
	{ NOTE_REST, 106 }, 
	{ NOTE_E3, 106 }, 
	{ NOTE_E3, 106 }, 
	{ NOTE_REST, 106 }, 
	{ NOTE_E3, 211 }, 
	{ NOTE_REST, 210 }, 
	{ NOTE_F3, 211 }, 
	{ NOTE_REST, 211 }, 
	{ NOTE_F3, 211 }, 
	{ NOTE_REST, 106 }, 
	{ NOTE_F3, 106 }, 
	{ NOTE_REST, 106 }, 
	{ NOTE_F3, 106 }, 
	{ NOTE_F3, 106 }, 
	{ NOTE_REST, 106 }, 
	{ NOTE_F3, 211 }, 
	{ NOTE_REST, 210 }, 
	{ NOTE_E3, 211 }, 
	{ NOTE_REST, 211 }, 
	{ NOTE_E3, 211 }, 
	{ NOTE_REST, 106 }, 
	{ NOTE_E3, 106 }, 
	{ NOTE_REST, 106 }, 
	{ NOTE_E3, 106 }, 
	{ NOTE_E3, 106 }, 
	{ NOTE_REST, 106 }, 
	{ NOTE_E3, 211 }, 
	{ NOTE_REST, 210 }, 
	{ NOTE_A3, 211 }, 
	{ NOTE_REST, 211 }, 
	{ NOTE_A3, 211 }, 
	{ NOTE_REST, 106 }, 
	{ NOTE_A3, 106 }, 
	{ NOTE_REST, 106 }, 
	{ NOTE_A3, 106 }, 
	{ NOTE_A3, 106 }, 
	{ NOTE_REST, 106 }, 
	{ NOTE_A3, 211 }, 
	{ NOTE_REST, 210 }, 
	{ NOTE_GS3, 211 }, 
	{ NOTE_REST, 211 }, 
	{ NOTE_GS3, 211 }, 
	{ NOTE_REST, 106 }, 
	{ NOTE_GS3, 106 }, 
	{ NOTE_REST, 106 }, 
	{ NOTE_GS3, 106 }, 
	{ NOTE_GS3, 106 }, 
	{ NOTE_REST, 106 }, 
	{ NOTE_GS3, 211 }, 
	{ NOTE_REST, 210 }, 
	{ NOTE_G3, 211 }, 
	{ NOTE_REST, 211 }, 
	{ NOTE_G3, 211 }, 
	{ NOTE_REST, 106 }, 
	{ NOTE_G3, 106 }, 
	{ NOTE_REST, 106 }, 
	{ NOTE_G3, 106 }, 
	{ NOTE_G3, 106 }, 
	{ NOTE_REST, 106 }, 
	{ NOTE_G3, 211 }, 
	{ NOTE_REST, 210 }, 
	{ NOTE_FS3, 211 }, 
	{ NOTE_REST, 211 }, 
	{ NOTE_FS3, 211 }, 
	{ NOTE_REST, 106 }, 
	{ NOTE_FS3, 106 }, 
	{ NOTE_REST, 106 }, 
	{ NOTE_FS3, 106 }, 
	{ NOTE_FS3, 106 }, 
	{ NOTE_REST, 106 }, 
	{ NOTE_FS3, 211 }, 
	{ NOTE_REST, 210 }, 
	{ NOTE_A3, 1690 }, 
	{ NOTE_E3, 1690 }, 
	{ NOTE_A3, 211 }, 
	{ NOTE_REST, 211 }, 
	{ NOTE_A3, 211 }, 
	{ NOTE_REST, 106 }, 
	{ NOTE_A3, 106 }, 
	{ NOTE_REST, 106 }, 
	{ NOTE_A3, 106 }, 
	{ NOTE_A3, 106 }, 
	{ NOTE_REST, 106 }, 
	{ NOTE_A3, 211 }, 
	{ NOTE_REST, 210 }, 
	{ NOTE_A3, 211 }, 
	{ NOTE_REST, 211 }, 
	{ NOTE_A3, 211 }, 
	{ NOTE_REST, 106 }, 
	{ NOTE_A3, 106 }, 
	{ NOTE_REST, 106 }, 
	{ NOTE_A3, 106 }, 
	{ NOTE_A3, 106 }, 
	{ NOTE_REST, 106 }, 
	{ NOTE_A3, 211 }, 
	{ NOTE_REST, 210 }, 
	{ NOTE_A3, 211 }, 
	{ NOTE_REST, 211 }, 
	{ NOTE_A3, 211 }, 
	{ NOTE_REST, 106 }, 
	{ NOTE_A3, 106 }, 
	{ NOTE_REST, 106 }, 
	{ NOTE_A3, 106 }, 
	{ NOTE_A3, 106 }, 
	{ NOTE_REST, 106 }, 
	{ NOTE_A3, 211 }, 
	{ NOTE_REST, 210 }, 
	{ NOTE_A3, 211 }, 
	{ NOTE_REST, 211 }, 
	{ NOTE_A3, 211 }, 
	{ NOTE_REST, 106 }, 
	{ NOTE_A3, 106 }, 
	{ NOTE_REST, 106 }, 
	{ NOTE_A3, 106 }, 
	{ NOTE_A3, 106 }, 
	{ NOTE_REST, 106 }, 
	{ NOTE_A3, 211 }, 
	{ NOTE_REST, 210 }, 
	{ NOTE_A3, 211 }, 
	{ NOTE_REST, 211 }, 
	{ NOTE_A3, 211 }, 
	{ NOTE_REST, 106 }, 
	{ NOTE_A3, 106 }, 
	{ NOTE_REST, 106 }, 
	{ NOTE_A3, 106 }, 
	{ NOTE_A3, 106 }, 
	{ NOTE_REST, 106 }, 
	{ NOTE_A3, 211 }, 
	{ NOTE_REST, 210 }, 
	{ NOTE_A3, 211 }, 
	{ NOTE_REST, 211 }, 
	{ NOTE_A3, 211 }, 
	{ NOTE_REST, 106 }, 
	{ NOTE_A3, 106 }, 
	{ NOTE_REST, 106 }, 
	{ NOTE_A3, 106 }, 
	{ NOTE_A3, 106 }, 
	{ NOTE_REST, 106 }, 
	{ NOTE_A3, 211 }, 
	{ NOTE_REST, 210 }, 
	{ NOTE_A3, 211 }, 
	{ NOTE_REST, 211 }, 
	{ NOTE_A3, 211 }, 
	{ NOTE_REST, 106 }, 
	{ NOTE_A3, 106 }, 
	{ NOTE_REST, 106 }, 
	{ NOTE_A3, 106 }, 
	{ NOTE_A3, 106 }, 
	{ NOTE_REST, 106 }, 
	{ NOTE_A3, 211 }, 
	{ NOTE_REST, 210 }, 
	{ NOTE_A3, 211 }, 
	{ NOTE_REST, 211 }, 
	{ NOTE_A3, 211 }, 
	{ NOTE_REST, 106 }, 
	{ NOTE_A3, 106 }, 
	{ NOTE_REST, 106 }, 
	{ NOTE_A3, 106 }, 
	{ NOTE_A3, 106 }, 
	{ NOTE_REST, 106 }, 
	{ NOTE_A3, 211 }, 
	{ NOTE_REST, 210 }, 
	{ NOTE_A3, 211 }, 
	{ NOTE_REST, 211 }, 
	{ NOTE_A3, 211 }, 
	{ NOTE_REST, 106 }, 
	{ NOTE_A3, 106 }, 
	{ NOTE_REST, 106 }, 
	{ NOTE_A3, 106 }, 
	{ NOTE_A3, 106 }, 
	{ NOTE_REST, 106 }, 
	{ NOTE_A3, 211 }, 
	{ NOTE_REST, 210 }, 
	{ NOTE_A3, 211 }, 
	{ NOTE_REST, 211 }, 
	{ NOTE_A3, 211 }, 
	{ NOTE_REST, 106 }, 
	{ NOTE_A3, 106 }, 
	{ NOTE_REST, 106 }, 
	{ NOTE_A3, 106 }, 
	{ NOTE_A3, 106 }, 
	{ NOTE_REST, 106 }, 
	{ NOTE_A3, 211 }, 
	{ NOTE_REST, 210 }, 
	{ NOTE_A3, 211 }, 
	{ NOTE_REST, 211 }, 
	{ NOTE_A3, 211 }, 
	{ NOTE_REST, 106 }, 
	{ NOTE_A3, 106 }, 
	{ NOTE_REST, 106 }, 
	{ NOTE_A3, 106 }, 
	{ NOTE_A3, 106 }, 
	{ NOTE_REST, 106 }, 
	{ NOTE_A3, 211 }, 
	{ NOTE_REST, 210 }, 
	{ NOTE_E4, 211 }, 
	{ NOTE_REST, 211 }, 
	{ NOTE_E4, 211 }, 
	{ NOTE_REST, 106 }, 
	{ NOTE_E4, 106 }, 
	{ NOTE_REST, 106 }, 
	{ NOTE_E4, 106 }, 
	{ NOTE_E4, 106 }, 
	{ NOTE_REST, 106 }, 
	{ NOTE_E4, 211 }, 
	{ NOTE_REST, 210 }, 
	{ NOTE_F4, 211 }, 
	{ NOTE_REST, 211 }, 
	{ NOTE_F4, 211 }, 
	{ NOTE_REST, 106 }, 
	{ NOTE_F4, 106 }, 
	{ NOTE_REST, 106 }, 
	{ NOTE_F4, 106 }, 
	{ NOTE_F4, 106 }, 
	{ NOTE_REST, 106 }, 
	{ NOTE_F4, 211 }, 
	{ NOTE_REST, 210 }, 
	{ NOTE_D4, 211 }, 
	{ NOTE_REST, 211 }, 
	{ NOTE_D4, 211 }, 
	{ NOTE_REST, 106 }, 
	{ NOTE_D4, 106 }, 
	{ NOTE_REST, 106 }, 
	{ NOTE_D4, 106 }, 
	{ NOTE_D4, 106 }, 
	{ NOTE_REST, 106 }, 
	{ NOTE_D4, 211 }, 
	{ NOTE_REST, 210 }, 
	{ NOTE_E4, 211 }, 
	{ NOTE_REST, 211 }, 
	{ NOTE_E4, 211 }, 
	{ NOTE_REST, 106 }, 
	{ NOTE_E4, 106 }, 
	{ NOTE_REST, 106 }, 
	{ NOTE_E4, 106 }, 
	{ NOTE_E4, 106 }, 
	{ NOTE_REST, 106 }, 
	{ NOTE_E4, 211 }, 
	{ NOTE_REST, 210 }, 
	{ NOTE_E4, 211 }, 
	{ NOTE_REST, 211 }, 
	{ NOTE_E4, 211 }, 
	{ NOTE_REST, 106 }, 
	{ NOTE_E4, 106 }, 
	{ NOTE_REST, 106 }, 
	{ NOTE_E4, 106 }, 
	{ NOTE_E4, 106 }, 
	{ NOTE_REST, 106 }, 
	{ NOTE_E4, 211 }, 
	{ NOTE_REST, 210 }, 
	{ NOTE_F4, 211 }, 
	{ NOTE_REST, 211 }, 
	{ NOTE_F4, 211 }, 
	{ NOTE_REST, 106 }, 
	{ NOTE_F4, 106 }, 
	{ NOTE_REST, 106 }, 
	{ NOTE_F4, 106 }, 
	{ NOTE_F4, 106 }, 
	{ NOTE_REST, 106 }, 
	{ NOTE_F4, 211 }, 
	{ NOTE_REST, 210 }, 
	{ NOTE_G4, 211 }, 
	{ NOTE_REST, 211 }, 
	{ NOTE_G4, 211 }, 
	{ NOTE_REST, 106 }, 
	{ NOTE_G4, 106 }, 
	{ NOTE_REST, 106 }, 
	{ NOTE_G4, 106 }, 
	{ NOTE_G4, 106 }, 
	{ NOTE_REST, 106 }, 
	{ NOTE_GS4, 211 }, 
	{ NOTE_REST, 210 }, 
	{ NOTE_A3, 211 }, 
	{ NOTE_REST, 211 }, 
	{ NOTE_A3, 211 }, 
	{ NOTE_REST, 211 }, 
	{ NOTE_A3, 211 }, 
	{ NOTE_REST, 211 }, 
	{ NOTE_A3, 211 }, 
	{ NOTE_REST, 213 }, 
	{ NOTE_A3, 211 }, 
	{ NOTE_REST, 211 }, 
	{ NOTE_A3, 211 }, 
	{ NOTE_REST, 211 }, 
	{ NOTE_A3, 211 }, 
	{ NOTE_REST, 211 }, 
	{ NOTE_A3, 211 }, 
	{ NOTE_REST, 213 }, 
	{ NOTE_A3, 211 }, 
	{ NOTE_REST, 211 }, 
	{ NOTE_A3, 211 }, 
	{ NOTE_REST, 106 }, 
	{ NOTE_A3, 106 }, 
	{ NOTE_REST, 106 }, 
	{ NOTE_A3, 106 }, 
	{ NOTE_A3, 106 }, 
	{ NOTE_REST, 106 }, 
	{ NOTE_A3, 211 }, 
	{ NOTE_REST, 210 }, 
	{ NOTE_GS3, 211 }, 
	{ NOTE_REST, 211 }, 
	{ NOTE_GS3, 211 }, 
	{ NOTE_REST, 106 }, 
	{ NOTE_GS3, 106 }, 
	{ NOTE_REST, 106 }, 
	{ NOTE_GS3, 106 }, 
	{ NOTE_GS3, 106 }, 
	{ NOTE_REST, 106 }, 
	{ NOTE_GS3, 211 }, 
	{ NOTE_REST, 210 }, 
	{ NOTE_G3, 211 }, 
	{ NOTE_REST, 211 }, 
	{ NOTE_G3, 211 }, 
	{ NOTE_REST, 106 }, 
	{ NOTE_G3, 106 }, 
	{ NOTE_REST, 106 }, 
	{ NOTE_G3, 106 }, 
	{ NOTE_G3, 106 }, 
	{ NOTE_REST, 106 }, 
	{ NOTE_G3, 211 }, 
	{ NOTE_REST, 210 }, 
	{ NOTE_FS3, 211 }, 
	{ NOTE_REST, 211 }, 
	{ NOTE_FS3, 211 }, 
	{ NOTE_REST, 106 }, 
	{ NOTE_FS3, 106 }, 
	{ NOTE_REST, 106 }, 
	{ NOTE_FS3, 106 }, 
	{ NOTE_FS3, 106 }, 
	{ NOTE_REST, 106 }, 
	{ NOTE_FS3, 211 }, 
	{ NOTE_REST, 210 }, 
	{ NOTE_F3, 211 }, 
	{ NOTE_REST, 211 }, 
	{ NOTE_F3, 211 }, 
	{ NOTE_REST, 106 }, 
	{ NOTE_F3, 106 }, 
	{ NOTE_REST, 106 }, 
	{ NOTE_F3, 106 }, 
	{ NOTE_F3, 106 }, 
	{ NOTE_REST, 106 }, 
	{ NOTE_F3, 211 }, 
	{ NOTE_REST, 210 }, 
	{ NOTE_E3, 211 }, 
	{ NOTE_REST, 211 }, 
	{ NOTE_E3, 211 }, 
	{ NOTE_REST, 106 }, 
	{ NOTE_E3, 106 }, 
	{ NOTE_REST, 106 }, 
	{ NOTE_E3, 106 }, 
	{ NOTE_E3, 106 }, 
	{ NOTE_REST, 106 }, 
	{ NOTE_E3, 211 }, 
	{ NOTE_REST, 210 }, 
	{ NOTE_F3, 211 }, 
	{ NOTE_REST, 211 }, 
	{ NOTE_F3, 211 }, 
	{ NOTE_REST, 106 }, 
	{ NOTE_F3, 106 }, 
	{ NOTE_REST, 106 }, 
	{ NOTE_F3, 106 }, 
	{ NOTE_F3, 106 }, 
	{ NOTE_REST, 106 }, 
	{ NOTE_F3, 211 }, 
	{ NOTE_REST, 210 }, 
	{ NOTE_E3, 211 }, 
	{ NOTE_REST, 211 }, 
	{ NOTE_E3, 211 }, 
	{ NOTE_REST, 106 }, 
	{ NOTE_E3, 106 }, 
	{ NOTE_REST, 106 }, 
	{ NOTE_E3, 106 }, 
	{ NOTE_E3, 106 }, 
	{ NOTE_REST, 106 }, 
	{ NOTE_E3, 211 }, 
	{ NOTE_REST, 210 }, 
	{ NOTE_A3, 211 }, 
	{ NOTE_REST, 211 }, 
	{ NOTE_A3, 211 }, 
	{ NOTE_REST, 106 }, 
	{ NOTE_A3, 106 }, 
	{ NOTE_REST, 106 }, 
	{ NOTE_A3, 106 }, 
	{ NOTE_A3, 106 }, 
	{ NOTE_REST, 106 }, 
	{ NOTE_A3, 211 }, 
	{ NOTE_REST, 210 }, 
	{ NOTE_GS3, 211 }, 
	{ NOTE_REST, 211 }, 
	{ NOTE_GS3, 211 }, 
	{ NOTE_REST, 106 }, 
	{ NOTE_GS3, 106 }, 
	{ NOTE_REST, 106 }, 
	{ NOTE_GS3, 106 }, 
	{ NOTE_GS3, 106 }, 
	{ NOTE_REST, 106 }, 
	{ NOTE_GS3, 211 }, 
	{ NOTE_REST, 210 }, 
	{ NOTE_G3, 211 }, 
	{ NOTE_REST, 211 }, 
	{ NOTE_G3, 211 }, 
	{ NOTE_REST, 106 }, 
	{ NOTE_G3, 106 }, 
	{ NOTE_REST, 106 }, 
	{ NOTE_G3, 106 }, 
	{ NOTE_G3, 106 }, 
	{ NOTE_REST, 106 }, 
	{ NOTE_G3, 211 }, 
	{ NOTE_REST, 210 }, 
	{ NOTE_FS3, 211 }, 
	{ NOTE_REST, 211 }, 
	{ NOTE_FS3, 211 }, 
	{ NOTE_REST, 106 }, 
	{ NOTE_FS3, 106 }, 
	{ NOTE_REST, 106 }, 
	{ NOTE_FS3, 106 }, 
	{ NOTE_FS3, 106 }, 
	{ NOTE_REST, 106 }, 
	{ NOTE_FS3, 211 }, 
	{ NOTE_REST, 210 }, 
	{ NOTE_A3, 1690 }, 
	{ NOTE_E3, 1690 }, 
};
const uint16_t NUM_OF_NOTES0 = sizeof(melody0)/sizeof(melody0[0]);

const Note melody1[] PROGMEM = {
	{ NOTE_E5, 106 }, 
	{ NOTE_REST, 106 }, 
	{ NOTE_E5, 106 }, 
	{ NOTE_E5, 106 }, 
	{ NOTE_E5, 106 }, 
	{ NOTE_REST, 106 }, 
	{ NOTE_E5, 106 }, 
	{ NOTE_E5, 106 }, 
	{ NOTE_E5, 106 }, 
	{ NOTE_REST, 106 }, 
	{ NOTE_E5, 106 }, 
	{ NOTE_REST, 106 }, 
	{ NOTE_E5, 106 }, 
	{ NOTE_REST, 106 }, 
	{ NOTE_E5, 106 }, 
	{ NOTE_E5, 100 }, 
	{ NOTE_F5, 106 }, 
	{ NOTE_REST, 106 }, 
	{ NOTE_F5, 106 }, 
	{ NOTE_F5, 106 }, 
	{ NOTE_F5, 106 }, 
	{ NOTE_REST, 106 }, 
	{ NOTE_F5, 106 }, 
	{ NOTE_F5, 106 }, 
	{ NOTE_F5, 106 }, 
	{ NOTE_REST, 106 }, 
	{ NOTE_F5, 106 }, 
	{ NOTE_REST, 106 }, 
	{ NOTE_G5, 106 }, 
	{ NOTE_REST, 106 }, 
	{ NOTE_F5, 106 }, 
	{ NOTE_F5, 100 }, 
	{ NOTE_E5, 106 }, 
	{ NOTE_REST, 106 }, 
	{ NOTE_E5, 106 }, 
	{ NOTE_E5, 106 }, 
	{ NOTE_E5, 106 }, 
	{ NOTE_REST, 106 }, 
	{ NOTE_E5, 106 }, 
	{ NOTE_E5, 106 }, 
	{ NOTE_E5, 106 }, 
	{ NOTE_REST, 106 }, 
	{ NOTE_E5, 106 }, 
	{ NOTE_REST, 106 }, 
	{ NOTE_E5, 106 }, 
	{ NOTE_REST, 106 }, 
	{ NOTE_E5, 106 }, 
	{ NOTE_E5, 100 }, 
	{ NOTE_D5, 106 }, 
	{ NOTE_REST, 106 }, 
	{ NOTE_D5, 106 }, 
	{ NOTE_D5, 106 }, 
	{ NOTE_D5, 106 }, 
	{ NOTE_REST, 106 }, 
	{ NOTE_D5, 106 }, 
	{ NOTE_D5, 106 }, 
	{ NOTE_D5, 106 }, 
	{ NOTE_REST, 106 }, 
	{ NOTE_D5, 106 }, 
	{ NOTE_REST, 106 }, 
	{ NOTE_D5, 106 }, 
	{ NOTE_REST, 106 }, 
	{ NOTE_D5, 106 }, 
	{ NOTE_D5, 100 }, 
	{ NOTE_E5, 106 }, 
	{ NOTE_REST, 106 }, 
	{ NOTE_E5, 106 }, 
	{ NOTE_E5, 106 }, 
	{ NOTE_E5, 106 }, 
	{ NOTE_REST, 106 }, 
	{ NOTE_E5, 106 }, 
	{ NOTE_E5, 106 }, 
	{ NOTE_E5, 106 }, 
	{ NOTE_REST, 106 }, 
	{ NOTE_E5, 106 }, 
	{ NOTE_REST, 106 }, 
	{ NOTE_E5, 106 }, 
	{ NOTE_REST, 106 }, 
	{ NOTE_E5, 106 }, 
	{ NOTE_E5, 100 }, 
	{ NOTE_F5, 106 }, 
	{ NOTE_REST, 106 }, 
	{ NOTE_F5, 106 }, 
	{ NOTE_F5, 106 }, 
	{ NOTE_F5, 106 }, 
	{ NOTE_REST, 106 }, 
	{ NOTE_F5, 106 }, 
	{ NOTE_F5, 106 }, 
	{ NOTE_F5, 106 }, 
	{ NOTE_REST, 106 }, 
	{ NOTE_F5, 106 }, 
	{ NOTE_REST, 106 }, 
	{ NOTE_G5, 106 }, 
	{ NOTE_REST, 106 }, 
	{ NOTE_F5, 106 }, 
	{ NOTE_F5, 100 }, 
	{ NOTE_E5, 106 }, 
	{ NOTE_REST, 106 }, 
	{ NOTE_E5, 106 }, 
	{ NOTE_E5, 106 }, 
	{ NOTE_E5, 106 }, 
	{ NOTE_REST, 106 }, 
	{ NOTE_E5, 106 }, 
	{ NOTE_E5, 106 }, 
	{ NOTE_E5, 106 }, 
	{ NOTE_REST, 106 }, 
	{ NOTE_E5, 106 }, 
	{ NOTE_REST, 106 }, 
	{ NOTE_E5, 106 }, 
	{ NOTE_REST, 106 }, 
	{ NOTE_E5, 106 }, 
	{ NOTE_E5, 100 }, 
	{ NOTE_D5, 106 }, 
	{ NOTE_REST, 106 }, 
	{ NOTE_D5, 106 }, 
	{ NOTE_D5, 106 }, 
	{ NOTE_D5, 106 }, 
	{ NOTE_REST, 106 }, 
	{ NOTE_D5, 106 }, 
	{ NOTE_D5, 106 }, 
	{ NOTE_D5, 106 }, 
	{ NOTE_REST, 106 }, 
	{ NOTE_D5, 106 }, 
	{ NOTE_REST, 106 }, 
	{ NOTE_D5, 106 }, 
	{ NOTE_REST, 106 }, 
	{ NOTE_D5, 106 }, 
	{ NOTE_D5, 100 }, 
	{ NOTE_E5, 106 }, 
	{ NOTE_REST, 106 }, 
	{ NOTE_E5, 106 }, 
	{ NOTE_E5, 106 }, 
	{ NOTE_E5, 106 }, 
	{ NOTE_REST, 106 }, 
	{ NOTE_E5, 106 }, 
	{ NOTE_E5, 106 }, 
	{ NOTE_E5, 106 }, 
	{ NOTE_REST, 106 }, 
	{ NOTE_E5, 106 }, 
	{ NOTE_REST, 106 }, 
	{ NOTE_E5, 106 }, 
	{ NOTE_REST, 106 }, 
	{ NOTE_E5, 106 }, 
	{ NOTE_E5, 100 }, 
	{ NOTE_F5, 106 }, 
	{ NOTE_REST, 106 }, 
	{ NOTE_F5, 106 }, 
	{ NOTE_F5, 106 }, 
	{ NOTE_F5, 106 }, 
	{ NOTE_REST, 106 }, 
	{ NOTE_F5, 106 }, 
	{ NOTE_F5, 106 }, 
	{ NOTE_F5, 106 }, 
	{ NOTE_REST, 106 }, 
	{ NOTE_F5, 106 }, 
	{ NOTE_REST, 106 }, 
	{ NOTE_G5, 106 }, 
	{ NOTE_REST, 106 }, 
	{ NOTE_F5, 106 }, 
	{ NOTE_F5, 100 }, 
	{ NOTE_E5, 106 }, 
	{ NOTE_REST, 106 }, 
	{ NOTE_E5, 106 }, 
	{ NOTE_E5, 106 }, 
	{ NOTE_E5, 106 }, 
	{ NOTE_REST, 106 }, 
	{ NOTE_E5, 106 }, 
	{ NOTE_E5, 106 }, 
	{ NOTE_E5, 106 }, 
	{ NOTE_REST, 106 }, 
	{ NOTE_E5, 106 }, 
	{ NOTE_REST, 106 }, 
	{ NOTE_E5, 106 }, 
	{ NOTE_REST, 106 }, 
	{ NOTE_E5, 106 }, 
	{ NOTE_E5, 100 }, 
	{ NOTE_D5, 106 }, 
	{ NOTE_REST, 106 }, 
	{ NOTE_D5, 106 }, 
	{ NOTE_D5, 106 }, 
	{ NOTE_D5, 106 }, 
	{ NOTE_REST, 106 }, 
	{ NOTE_D5, 106 }, 
	{ NOTE_D5, 106 }, 
	{ NOTE_D5, 106 }, 
	{ NOTE_REST, 106 }, 
	{ NOTE_D5, 106 }, 
	{ NOTE_REST, 106 }, 
	{ NOTE_D5, 106 }, 
	{ NOTE_REST, 106 }, 
	{ NOTE_D5, 106 }, 
	{ NOTE_D5, 100 }, 
	{ NOTE_F5, 106 }, 
	{ NOTE_REST, 106 }, 
	{ NOTE_F5, 106 }, 
	{ NOTE_F5, 106 }, 
	{ NOTE_F5, 106 }, 
	{ NOTE_REST, 106 }, 
	{ NOTE_F5, 106 }, 
	{ NOTE_F5, 106 }, 
	{ NOTE_F5, 106 }, 
	{ NOTE_REST, 106 }, 
	{ NOTE_F5, 106 }, 
	{ NOTE_REST, 106 }, 
	{ NOTE_F5, 106 }, 
	{ NOTE_REST, 106 }, 
	{ NOTE_F5, 106 }, 
	{ NOTE_F5, 100 }, 
	{ NOTE_D5, 106 }, 
	{ NOTE_REST, 106 }, 
	{ NOTE_D5, 106 }, 
	{ NOTE_D5, 106 }, 
	{ NOTE_D5, 106 }, 
	{ NOTE_REST, 106 }, 
	{ NOTE_D5, 106 }, 
	{ NOTE_D5, 106 }, 
	{ NOTE_D5, 106 }, 
	{ NOTE_REST, 106 }, 
	{ NOTE_D5, 106 }, 
	{ NOTE_REST, 106 }, 
	{ NOTE_D5, 106 }, 
	{ NOTE_REST, 106 }, 
	{ NOTE_D5, 106 }, 
	{ NOTE_D5, 100 }, 
	{ NOTE_E5, 106 }, 
	{ NOTE_REST, 106 }, 
	{ NOTE_E5, 106 }, 
	{ NOTE_E5, 106 }, 
	{ NOTE_E5, 106 }, 
	{ NOTE_REST, 106 }, 
	{ NOTE_E5, 106 }, 
	{ NOTE_E5, 106 }, 
	{ NOTE_E5, 106 }, 
	{ NOTE_REST, 106 }, 
	{ NOTE_E5, 106 }, 
	{ NOTE_REST, 106 }, 
	{ NOTE_E5, 106 }, 
	{ NOTE_REST, 106 }, 
	{ NOTE_E5, 106 }, 
	{ NOTE_E5, 100 }, 
	{ NOTE_E5, 106 }, 
	{ NOTE_REST, 106 }, 
	{ NOTE_E5, 106 }, 
	{ NOTE_E5, 106 }, 
	{ NOTE_E5, 106 }, 
	{ NOTE_REST, 106 }, 
	{ NOTE_E5, 106 }, 
	{ NOTE_E5, 106 }, 
	{ NOTE_E5, 106 }, 
	{ NOTE_REST, 106 }, 
	{ NOTE_E5, 106 }, 
	{ NOTE_REST, 106 }, 
	{ NOTE_E5, 106 }, 
	{ NOTE_REST, 106 }, 
	{ NOTE_E5, 106 }, 
	{ NOTE_E5, 100 }, 
	{ NOTE_F5, 106 }, 
	{ NOTE_REST, 106 }, 
	{ NOTE_F5, 106 }, 
	{ NOTE_F5, 106 }, 
	{ NOTE_F5, 106 }, 
	{ NOTE_REST, 106 }, 
	{ NOTE_F5, 106 }, 
	{ NOTE_F5, 106 }, 
	{ NOTE_F5, 106 }, 
	{ NOTE_REST, 106 }, 
	{ NOTE_F5, 106 }, 
	{ NOTE_REST, 106 }, 
	{ NOTE_F5, 106 }, 
	{ NOTE_REST, 106 }, 
	{ NOTE_F5, 106 }, 
	{ NOTE_F5, 100 }, 
	{ NOTE_G5, 106 }, 
	{ NOTE_REST, 106 }, 
	{ NOTE_G5, 106 }, 
	{ NOTE_G5, 106 }, 
	{ NOTE_G5, 106 }, 
	{ NOTE_REST, 106 }, 
	{ NOTE_G5, 106 }, 
	{ NOTE_G5, 106 }, 
	{ NOTE_G5, 106 }, 
	{ NOTE_REST, 106 }, 
	{ NOTE_G5, 106 }, 
	{ NOTE_REST, 106 }, 
	{ NOTE_G5, 106 }, 
	{ NOTE_REST, 106 }, 
	{ NOTE_GS5, 106 }, 
	{ NOTE_GS5, 100 }, 
	{ NOTE_A5, 3380 }, 
	{ NOTE_E5, 106 }, 
	{ NOTE_REST, 106 }, 
	{ NOTE_E5, 106 }, 
	{ NOTE_E5, 106 }, 
	{ NOTE_E5, 106 }, 
	{ NOTE_REST, 106 }, 
	{ NOTE_E5, 106 }, 
	{ NOTE_E5, 106 }, 
	{ NOTE_E5, 106 }, 
	{ NOTE_REST, 106 }, 
	{ NOTE_E5, 106 }, 
	{ NOTE_REST, 106 }, 
	{ NOTE_E5, 106 }, 
	{ NOTE_REST, 106 }, 
	{ NOTE_E5, 106 }, 
	{ NOTE_E5, 100 }, 
	{ NOTE_D5, 106 }, 
	{ NOTE_REST, 106 }, 
	{ NOTE_D5, 106 }, 
	{ NOTE_D5, 106 }, 
	{ NOTE_D5, 106 }, 
	{ NOTE_REST, 106 }, 
	{ NOTE_D5, 106 }, 
	{ NOTE_D5, 106 }, 
	{ NOTE_D5, 106 }, 
	{ NOTE_REST, 106 }, 
	{ NOTE_D5, 106 }, 
	{ NOTE_REST, 106 }, 
	{ NOTE_D5, 106 }, 
	{ NOTE_REST, 106 }, 
	{ NOTE_D5, 106 }, 
	{ NOTE_D5, 100 }, 
	{ NOTE_C5, 106 }, 
	{ NOTE_REST, 106 }, 
	{ NOTE_C5, 106 }, 
	{ NOTE_C5, 106 }, 
	{ NOTE_C5, 106 }, 
	{ NOTE_REST, 106 }, 
	{ NOTE_C5, 106 }, 
	{ NOTE_C5, 106 }, 
	{ NOTE_C5, 106 }, 
	{ NOTE_REST, 106 }, 
	{ NOTE_C5, 106 }, 
	{ NOTE_REST, 106 }, 
	{ NOTE_C5, 106 }, 
	{ NOTE_REST, 106 }, 
	{ NOTE_C5, 106 }, 
	{ NOTE_C5, 100 }, 
	{ NOTE_B4, 106 }, 
	{ NOTE_REST, 106 }, 
	{ NOTE_B4, 106 }, 
	{ NOTE_B4, 106 }, 
	{ NOTE_B4, 106 }, 
	{ NOTE_REST, 106 }, 
	{ NOTE_B4, 106 }, 
	{ NOTE_B4, 106 }, 
	{ NOTE_B4, 106 }, 
	{ NOTE_REST, 106 }, 
	{ NOTE_B4, 106 }, 
	{ NOTE_REST, 106 }, 
	{ NOTE_B4, 106 }, 
	{ NOTE_REST, 106 }, 
	{ NOTE_B4, 106 }, 
	{ NOTE_B4, 100 }, 
	{ NOTE_F5, 106 }, 
	{ NOTE_REST, 106 }, 
	{ NOTE_F5, 106 }, 
	{ NOTE_F5, 106 }, 
	{ NOTE_F5, 106 }, 
	{ NOTE_REST, 106 }, 
	{ NOTE_F5, 106 }, 
	{ NOTE_F5, 106 }, 
	{ NOTE_F5, 106 }, 
	{ NOTE_REST, 106 }, 
	{ NOTE_F5, 106 }, 
	{ NOTE_REST, 106 }, 
	{ NOTE_F5, 106 }, 
	{ NOTE_REST, 106 }, 
	{ NOTE_F5, 106 }, 
	{ NOTE_F5, 100 }, 
	{ NOTE_E5, 106 }, 
	{ NOTE_REST, 106 }, 
	{ NOTE_E5, 106 }, 
	{ NOTE_E5, 106 }, 
	{ NOTE_E5, 106 }, 
	{ NOTE_REST, 106 }, 
	{ NOTE_E5, 106 }, 
	{ NOTE_E5, 106 }, 
	{ NOTE_E5, 106 }, 
	{ NOTE_REST, 106 }, 
	{ NOTE_E5, 106 }, 
	{ NOTE_REST, 106 }, 
	{ NOTE_E5, 106 }, 
	{ NOTE_REST, 106 }, 
	{ NOTE_E5, 106 }, 
	{ NOTE_E5, 100 }, 
	{ NOTE_D5, 106 }, 
	{ NOTE_REST, 106 }, 
	{ NOTE_D5, 106 }, 
	{ NOTE_D5, 106 }, 
	{ NOTE_D5, 106 }, 
	{ NOTE_REST, 106 }, 
	{ NOTE_D5, 106 }, 
	{ NOTE_D5, 106 }, 
	{ NOTE_D5, 106 }, 
	{ NOTE_REST, 106 }, 
	{ NOTE_D5, 106 }, 
	{ NOTE_REST, 106 }, 
	{ NOTE_D5, 106 }, 
	{ NOTE_REST, 106 }, 
	{ NOTE_D5, 106 }, 
	{ NOTE_D5, 100 }, 
	{ NOTE_DS5, 106 }, 
	{ NOTE_REST, 106 }, 
	{ NOTE_DS5, 106 }, 
	{ NOTE_DS5, 106 }, 
	{ NOTE_DS5, 106 }, 
	{ NOTE_REST, 106 }, 
	{ NOTE_DS5, 106 }, 
	{ NOTE_DS5, 106 }, 
	{ NOTE_DS5, 106 }, 
	{ NOTE_REST, 106 }, 
	{ NOTE_DS5, 106 }, 
	{ NOTE_REST, 106 }, 
	{ NOTE_DS5, 106 }, 
	{ NOTE_REST, 106 }, 
	{ NOTE_DS5, 106 }, 
	{ NOTE_DS5, 100 }, 
	{ NOTE_E5, 106 }, 
	{ NOTE_REST, 106 }, 
	{ NOTE_E5, 106 }, 
	{ NOTE_E5, 106 }, 
	{ NOTE_E5, 106 }, 
	{ NOTE_REST, 106 }, 
	{ NOTE_E5, 106 }, 
	{ NOTE_E5, 106 }, 
	{ NOTE_E5, 106 }, 
	{ NOTE_REST, 106 }, 
	{ NOTE_E5, 106 }, 
	{ NOTE_REST, 106 }, 
	{ NOTE_E5, 106 }, 
	{ NOTE_REST, 106 }, 
	{ NOTE_E5, 106 }, 
	{ NOTE_E5, 100 }, 
	{ NOTE_D5, 106 }, 
	{ NOTE_REST, 106 }, 
	{ NOTE_D5, 106 }, 
	{ NOTE_D5, 106 }, 
	{ NOTE_D5, 106 }, 
	{ NOTE_REST, 106 }, 
	{ NOTE_D5, 106 }, 
	{ NOTE_D5, 106 }, 
	{ NOTE_D5, 106 }, 
	{ NOTE_REST, 106 }, 
	{ NOTE_D5, 106 }, 
	{ NOTE_REST, 106 }, 
	{ NOTE_D5, 106 }, 
	{ NOTE_REST, 106 }, 
	{ NOTE_D5, 106 }, 
	{ NOTE_D5, 100 }, 
	{ NOTE_C5, 106 }, 
	{ NOTE_REST, 106 }, 
	{ NOTE_C5, 106 }, 
	{ NOTE_C5, 106 }, 
	{ NOTE_C5, 106 }, 
	{ NOTE_REST, 106 }, 
	{ NOTE_C5, 106 }, 
	{ NOTE_C5, 106 }, 
	{ NOTE_C5, 106 }, 
	{ NOTE_REST, 106 }, 
	{ NOTE_C5, 106 }, 
	{ NOTE_REST, 106 }, 
	{ NOTE_C5, 106 }, 
	{ NOTE_REST, 106 }, 
	{ NOTE_C5, 106 }, 
	{ NOTE_C5, 100 }, 
	{ NOTE_B4, 106 }, 
	{ NOTE_REST, 106 }, 
	{ NOTE_B4, 106 }, 
	{ NOTE_B4, 106 }, 
	{ NOTE_B4, 106 }, 
	{ NOTE_REST, 106 }, 
	{ NOTE_B4, 106 }, 
	{ NOTE_B4, 106 }, 
	{ NOTE_B4, 106 }, 
	{ NOTE_REST, 106 }, 
	{ NOTE_B4, 106 }, 
	{ NOTE_REST, 106 }, 
	{ NOTE_B4, 106 }, 
	{ NOTE_REST, 106 }, 
	{ NOTE_B4, 106 }, 
	{ NOTE_B4, 100 }, 
	{ NOTE_A3, 211 }, 
	{ NOTE_E5, 1479 }, 
	{ NOTE_E3, 211 }, 
	{ NOTE_E5, 1479 }, 
	{ NOTE_E5, 106 }, 
	{ NOTE_REST, 106 }, 
	{ NOTE_E5, 106 }, 
	{ NOTE_E5, 106 }, 
	{ NOTE_E5, 106 }, 
	{ NOTE_REST, 106 }, 
	{ NOTE_E5, 106 }, 
	{ NOTE_E5, 106 }, 
	{ NOTE_E5, 106 }, 
	{ NOTE_REST, 106 }, 
	{ NOTE_E5, 106 }, 
	{ NOTE_REST, 106 }, 
	{ NOTE_E5, 106 }, 
	{ NOTE_REST, 106 }, 
	{ NOTE_E5, 106 }, 
	{ NOTE_E5, 100 }, 
	{ NOTE_F5, 106 }, 
	{ NOTE_REST, 106 }, 
	{ NOTE_F5, 106 }, 
	{ NOTE_F5, 106 }, 
	{ NOTE_F5, 106 }, 
	{ NOTE_REST, 106 }, 
	{ NOTE_F5, 106 }, 
	{ NOTE_F5, 106 }, 
	{ NOTE_F5, 106 }, 
	{ NOTE_REST, 106 }, 
	{ NOTE_F5, 106 }, 
	{ NOTE_REST, 106 }, 
	{ NOTE_G5, 106 }, 
	{ NOTE_REST, 106 }, 
	{ NOTE_F5, 106 }, 
	{ NOTE_F5, 100 }, 
	{ NOTE_E5, 106 }, 
	{ NOTE_REST, 106 }, 
	{ NOTE_E5, 106 }, 
	{ NOTE_E5, 106 }, 
	{ NOTE_E5, 106 }, 
	{ NOTE_REST, 106 }, 
	{ NOTE_E5, 106 }, 
	{ NOTE_E5, 106 }, 
	{ NOTE_E5, 106 }, 
	{ NOTE_REST, 106 }, 
	{ NOTE_E5, 106 }, 
	{ NOTE_REST, 106 }, 
	{ NOTE_E5, 106 }, 
	{ NOTE_REST, 106 }, 
	{ NOTE_E5, 106 }, 
	{ NOTE_E5, 100 }, 
	{ NOTE_D5, 106 }, 
	{ NOTE_REST, 106 }, 
	{ NOTE_D5, 106 }, 
	{ NOTE_D5, 106 }, 
	{ NOTE_D5, 106 }, 
	{ NOTE_REST, 106 }, 
	{ NOTE_D5, 106 }, 
	{ NOTE_D5, 106 }, 
	{ NOTE_D5, 106 }, 
	{ NOTE_REST, 106 }, 
	{ NOTE_D5, 106 }, 
	{ NOTE_REST, 106 }, 
	{ NOTE_D5, 106 }, 
	{ NOTE_REST, 106 }, 
	{ NOTE_D5, 106 }, 
	{ NOTE_D5, 100 }, 
	{ NOTE_E5, 106 }, 
	{ NOTE_REST, 106 }, 
	{ NOTE_E5, 106 }, 
	{ NOTE_E5, 106 }, 
	{ NOTE_E5, 106 }, 
	{ NOTE_REST, 106 }, 
	{ NOTE_E5, 106 }, 
	{ NOTE_E5, 106 }, 
	{ NOTE_E5, 106 }, 
	{ NOTE_REST, 106 }, 
	{ NOTE_E5, 106 }, 
	{ NOTE_REST, 106 }, 
	{ NOTE_E5, 106 }, 
	{ NOTE_REST, 106 }, 
	{ NOTE_E5, 106 }, 
	{ NOTE_E5, 100 }, 
	{ NOTE_F5, 106 }, 
	{ NOTE_REST, 106 }, 
	{ NOTE_F5, 106 }, 
	{ NOTE_F5, 106 }, 
	{ NOTE_F5, 106 }, 
	{ NOTE_REST, 106 }, 
	{ NOTE_F5, 106 }, 
	{ NOTE_F5, 106 }, 
	{ NOTE_F5, 106 }, 
	{ NOTE_REST, 106 }, 
	{ NOTE_F5, 106 }, 
	{ NOTE_REST, 106 }, 
	{ NOTE_G5, 106 }, 
	{ NOTE_REST, 106 }, 
	{ NOTE_F5, 106 }, 
	{ NOTE_F5, 100 }, 
	{ NOTE_E5, 106 }, 
	{ NOTE_REST, 106 }, 
	{ NOTE_E5, 106 }, 
	{ NOTE_E5, 106 }, 
	{ NOTE_E5, 106 }, 
	{ NOTE_REST, 106 }, 
	{ NOTE_E5, 106 }, 
	{ NOTE_E5, 106 }, 
	{ NOTE_E5, 106 }, 
	{ NOTE_REST, 106 }, 
	{ NOTE_E5, 106 }, 
	{ NOTE_REST, 106 }, 
	{ NOTE_E5, 106 }, 
	{ NOTE_REST, 106 }, 
	{ NOTE_E5, 106 }, 
	{ NOTE_E5, 100 }, 
	{ NOTE_D5, 106 }, 
	{ NOTE_REST, 106 }, 
	{ NOTE_D5, 106 }, 
	{ NOTE_D5, 106 }, 
	{ NOTE_D5, 106 }, 
	{ NOTE_REST, 106 }, 
	{ NOTE_D5, 106 }, 
	{ NOTE_D5, 106 }, 
	{ NOTE_D5, 106 }, 
	{ NOTE_REST, 106 }, 
	{ NOTE_D5, 106 }, 
	{ NOTE_REST, 106 }, 
	{ NOTE_D5, 106 }, 
	{ NOTE_REST, 106 }, 
	{ NOTE_D5, 106 }, 
	{ NOTE_D5, 100 }, 
	{ NOTE_E5, 106 }, 
	{ NOTE_REST, 106 }, 
	{ NOTE_E5, 106 }, 
	{ NOTE_E5, 106 }, 
	{ NOTE_E5, 106 }, 
	{ NOTE_REST, 106 }, 
	{ NOTE_E5, 106 }, 
	{ NOTE_E5, 106 }, 
	{ NOTE_E5, 106 }, 
	{ NOTE_REST, 106 }, 
	{ NOTE_E5, 106 }, 
	{ NOTE_REST, 106 }, 
	{ NOTE_E5, 106 }, 
	{ NOTE_REST, 106 }, 
	{ NOTE_E5, 106 }, 
	{ NOTE_E5, 100 }, 
	{ NOTE_F5, 106 }, 
	{ NOTE_REST, 106 }, 
	{ NOTE_F5, 106 }, 
	{ NOTE_F5, 106 }, 
	{ NOTE_F5, 106 }, 
	{ NOTE_REST, 106 }, 
	{ NOTE_F5, 106 }, 
	{ NOTE_F5, 106 }, 
	{ NOTE_F5, 106 }, 
	{ NOTE_REST, 106 }, 
	{ NOTE_F5, 106 }, 
	{ NOTE_REST, 106 }, 
	{ NOTE_G5, 106 }, 
	{ NOTE_REST, 106 }, 
	{ NOTE_F5, 106 }, 
	{ NOTE_F5, 100 }, 
	{ NOTE_E5, 106 }, 
	{ NOTE_REST, 106 }, 
	{ NOTE_E5, 106 }, 
	{ NOTE_E5, 106 }, 
	{ NOTE_E5, 106 }, 
	{ NOTE_REST, 106 }, 
	{ NOTE_E5, 106 }, 
	{ NOTE_E5, 106 }, 
	{ NOTE_E5, 106 }, 
	{ NOTE_REST, 106 }, 
	{ NOTE_E5, 106 }, 
	{ NOTE_REST, 106 }, 
	{ NOTE_E5, 106 }, 
	{ NOTE_REST, 106 }, 
	{ NOTE_E5, 106 }, 
	{ NOTE_E5, 100 }, 
	{ NOTE_D5, 106 }, 
	{ NOTE_REST, 106 }, 
	{ NOTE_D5, 106 }, 
	{ NOTE_D5, 106 }, 
	{ NOTE_D5, 106 }, 
	{ NOTE_REST, 106 }, 
	{ NOTE_D5, 106 }, 
	{ NOTE_D5, 106 }, 
	{ NOTE_D5, 106 }, 
	{ NOTE_REST, 106 }, 
	{ NOTE_D5, 106 }, 
	{ NOTE_REST, 106 }, 
	{ NOTE_D5, 106 }, 
	{ NOTE_REST, 106 }, 
	{ NOTE_D5, 106 }, 
	{ NOTE_D5, 100 }, 
	{ NOTE_F5, 106 }, 
	{ NOTE_REST, 106 }, 
	{ NOTE_F5, 106 }, 
	{ NOTE_F5, 106 }, 
	{ NOTE_F5, 106 }, 
	{ NOTE_REST, 106 }, 
	{ NOTE_F5, 106 }, 
	{ NOTE_F5, 106 }, 
	{ NOTE_F5, 106 }, 
	{ NOTE_REST, 106 }, 
	{ NOTE_F5, 106 }, 
	{ NOTE_REST, 106 }, 
	{ NOTE_F5, 106 }, 
	{ NOTE_REST, 106 }, 
	{ NOTE_F5, 106 }, 
	{ NOTE_F5, 100 }, 
	{ NOTE_D5, 106 }, 
	{ NOTE_REST, 106 }, 
	{ NOTE_D5, 106 }, 
	{ NOTE_D5, 106 }, 
	{ NOTE_D5, 106 }, 
	{ NOTE_REST, 106 }, 
	{ NOTE_D5, 106 }, 
	{ NOTE_D5, 106 }, 
	{ NOTE_D5, 106 }, 
	{ NOTE_REST, 106 }, 
	{ NOTE_D5, 106 }, 
	{ NOTE_REST, 106 }, 
	{ NOTE_D5, 106 }, 
	{ NOTE_REST, 106 }, 
	{ NOTE_D5, 106 }, 
	{ NOTE_D5, 100 }, 
	{ NOTE_E5, 106 }, 
	{ NOTE_REST, 106 }, 
	{ NOTE_E5, 106 }, 
	{ NOTE_E5, 106 }, 
	{ NOTE_E5, 106 }, 
	{ NOTE_REST, 106 }, 
	{ NOTE_E5, 106 }, 
	{ NOTE_E5, 106 }, 
	{ NOTE_E5, 106 }, 
	{ NOTE_REST, 106 }, 
	{ NOTE_E5, 106 }, 
	{ NOTE_REST, 106 }, 
	{ NOTE_E5, 106 }, 
	{ NOTE_REST, 106 }, 
	{ NOTE_E5, 106 }, 
	{ NOTE_E5, 100 }, 
	{ NOTE_E5, 106 }, 
	{ NOTE_REST, 106 }, 
	{ NOTE_E5, 106 }, 
	{ NOTE_E5, 106 }, 
	{ NOTE_E5, 106 }, 
	{ NOTE_REST, 106 }, 
	{ NOTE_E5, 106 }, 
	{ NOTE_E5, 106 }, 
	{ NOTE_E5, 106 }, 
	{ NOTE_REST, 106 }, 
	{ NOTE_E5, 106 }, 
	{ NOTE_REST, 106 }, 
	{ NOTE_E5, 106 }, 
	{ NOTE_REST, 106 }, 
	{ NOTE_E5, 106 }, 
	{ NOTE_E5, 100 }, 
	{ NOTE_F5, 106 }, 
	{ NOTE_REST, 106 }, 
	{ NOTE_F5, 106 }, 
	{ NOTE_F5, 106 }, 
	{ NOTE_F5, 106 }, 
	{ NOTE_REST, 106 }, 
	{ NOTE_F5, 106 }, 
	{ NOTE_F5, 106 }, 
	{ NOTE_F5, 106 }, 
	{ NOTE_REST, 106 }, 
	{ NOTE_F5, 106 }, 
	{ NOTE_REST, 106 }, 
	{ NOTE_F5, 106 }, 
	{ NOTE_REST, 106 }, 
	{ NOTE_F5, 106 }, 
	{ NOTE_F5, 100 }, 
	{ NOTE_G5, 106 }, 
	{ NOTE_REST, 106 }, 
	{ NOTE_G5, 106 }, 
	{ NOTE_G5, 106 }, 
	{ NOTE_G5, 106 }, 
	{ NOTE_REST, 106 }, 
	{ NOTE_G5, 106 }, 
	{ NOTE_G5, 106 }, 
	{ NOTE_G5, 106 }, 
	{ NOTE_REST, 106 }, 
	{ NOTE_G5, 106 }, 
	{ NOTE_REST, 106 }, 
	{ NOTE_G5, 106 }, 
	{ NOTE_REST, 106 }, 
	{ NOTE_GS5, 106 }, 
	{ NOTE_GS5, 100 }, 
	{ NOTE_A5, 3380 }, 
	{ NOTE_E5, 106 }, 
	{ NOTE_REST, 106 }, 
	{ NOTE_E5, 106 }, 
	{ NOTE_E5, 106 }, 
	{ NOTE_E5, 106 }, 
	{ NOTE_REST, 106 }, 
	{ NOTE_E5, 106 }, 
	{ NOTE_E5, 106 }, 
	{ NOTE_E5, 106 }, 
	{ NOTE_REST, 106 }, 
	{ NOTE_E5, 106 }, 
	{ NOTE_REST, 106 }, 
	{ NOTE_E5, 106 }, 
	{ NOTE_REST, 106 }, 
	{ NOTE_E5, 106 }, 
	{ NOTE_E5, 100 }, 
	{ NOTE_D5, 106 }, 
	{ NOTE_REST, 106 }, 
	{ NOTE_D5, 106 }, 
	{ NOTE_D5, 106 }, 
	{ NOTE_D5, 106 }, 
	{ NOTE_REST, 106 }, 
	{ NOTE_D5, 106 }, 
	{ NOTE_D5, 106 }, 
	{ NOTE_D5, 106 }, 
	{ NOTE_REST, 106 }, 
	{ NOTE_D5, 106 }, 
	{ NOTE_REST, 106 }, 
	{ NOTE_D5, 106 }, 
	{ NOTE_REST, 106 }, 
	{ NOTE_D5, 106 }, 
	{ NOTE_D5, 100 }, 
	{ NOTE_C5, 106 }, 
	{ NOTE_REST, 106 }, 
	{ NOTE_C5, 106 }, 
	{ NOTE_C5, 106 }, 
	{ NOTE_C5, 106 }, 
	{ NOTE_REST, 106 }, 
	{ NOTE_C5, 106 }, 
	{ NOTE_C5, 106 }, 
	{ NOTE_C5, 106 }, 
	{ NOTE_REST, 106 }, 
	{ NOTE_C5, 106 }, 
	{ NOTE_REST, 106 }, 
	{ NOTE_C5, 106 }, 
	{ NOTE_REST, 106 }, 
	{ NOTE_C5, 106 }, 
	{ NOTE_C5, 100 }, 
	{ NOTE_B4, 106 }, 
	{ NOTE_REST, 106 }, 
	{ NOTE_B4, 106 }, 
	{ NOTE_B4, 106 }, 
	{ NOTE_B4, 106 }, 
	{ NOTE_REST, 106 }, 
	{ NOTE_B4, 106 }, 
	{ NOTE_B4, 106 }, 
	{ NOTE_B4, 106 }, 
	{ NOTE_REST, 106 }, 
	{ NOTE_B4, 106 }, 
	{ NOTE_REST, 106 }, 
	{ NOTE_B4, 106 }, 
	{ NOTE_REST, 106 }, 
	{ NOTE_B4, 106 }, 
	{ NOTE_B4, 100 }, 
	{ NOTE_F5, 106 }, 
	{ NOTE_REST, 106 }, 
	{ NOTE_F5, 106 }, 
	{ NOTE_F5, 106 }, 
	{ NOTE_F5, 106 }, 
	{ NOTE_REST, 106 }, 
	{ NOTE_F5, 106 }, 
	{ NOTE_F5, 106 }, 
	{ NOTE_F5, 106 }, 
	{ NOTE_REST, 106 }, 
	{ NOTE_F5, 106 }, 
	{ NOTE_REST, 106 }, 
	{ NOTE_F5, 106 }, 
	{ NOTE_REST, 106 }, 
	{ NOTE_F5, 106 }, 
	{ NOTE_F5, 100 }, 
	{ NOTE_E5, 106 }, 
	{ NOTE_REST, 106 }, 
	{ NOTE_E5, 106 }, 
	{ NOTE_E5, 106 }, 
	{ NOTE_E5, 106 }, 
	{ NOTE_REST, 106 }, 
	{ NOTE_E5, 106 }, 
	{ NOTE_E5, 106 }, 
	{ NOTE_E5, 106 }, 
	{ NOTE_REST, 106 }, 
	{ NOTE_E5, 106 }, 
	{ NOTE_REST, 106 }, 
	{ NOTE_E5, 106 }, 
	{ NOTE_REST, 106 }, 
	{ NOTE_E5, 106 }, 
	{ NOTE_E5, 100 }, 
	{ NOTE_D5, 106 }, 
	{ NOTE_REST, 106 }, 
	{ NOTE_D5, 106 }, 
	{ NOTE_D5, 106 }, 
	{ NOTE_D5, 106 }, 
	{ NOTE_REST, 106 }, 
	{ NOTE_D5, 106 }, 
	{ NOTE_D5, 106 }, 
	{ NOTE_D5, 106 }, 
	{ NOTE_REST, 106 }, 
	{ NOTE_D5, 106 }, 
	{ NOTE_REST, 106 }, 
	{ NOTE_D5, 106 }, 
	{ NOTE_REST, 106 }, 
	{ NOTE_D5, 106 }, 
	{ NOTE_D5, 100 }, 
	{ NOTE_DS5, 106 }, 
	{ NOTE_REST, 106 }, 
	{ NOTE_DS5, 106 }, 
	{ NOTE_DS5, 106 }, 
	{ NOTE_DS5, 106 }, 
	{ NOTE_REST, 106 }, 
	{ NOTE_DS5, 106 }, 
	{ NOTE_DS5, 106 }, 
	{ NOTE_DS5, 106 }, 
	{ NOTE_REST, 106 }, 
	{ NOTE_DS5, 106 }, 
	{ NOTE_REST, 106 }, 
	{ NOTE_DS5, 106 }, 
	{ NOTE_REST, 106 }, 
	{ NOTE_DS5, 106 }, 
	{ NOTE_DS5, 100 }, 
	{ NOTE_E5, 106 }, 
	{ NOTE_REST, 106 }, 
	{ NOTE_E5, 106 }, 
	{ NOTE_E5, 106 }, 
	{ NOTE_E5, 106 }, 
	{ NOTE_REST, 106 }, 
	{ NOTE_E5, 106 }, 
	{ NOTE_E5, 106 }, 
	{ NOTE_E5, 106 }, 
	{ NOTE_REST, 106 }, 
	{ NOTE_E5, 106 }, 
	{ NOTE_REST, 106 }, 
	{ NOTE_E5, 106 }, 
	{ NOTE_REST, 106 }, 
	{ NOTE_E5, 106 }, 
	{ NOTE_E5, 100 }, 
	{ NOTE_D5, 106 }, 
	{ NOTE_REST, 106 }, 
	{ NOTE_D5, 106 }, 
	{ NOTE_D5, 106 }, 
	{ NOTE_D5, 106 }, 
	{ NOTE_REST, 106 }, 
	{ NOTE_D5, 106 }, 
	{ NOTE_D5, 106 }, 
	{ NOTE_D5, 106 }, 
	{ NOTE_REST, 106 }, 
	{ NOTE_D5, 106 }, 
	{ NOTE_REST, 106 }, 
	{ NOTE_D5, 106 }, 
	{ NOTE_REST, 106 }, 
	{ NOTE_D5, 106 }, 
	{ NOTE_D5, 100 }, 
	{ NOTE_C5, 106 }, 
	{ NOTE_REST, 106 }, 
	{ NOTE_C5, 106 }, 
	{ NOTE_C5, 106 }, 
	{ NOTE_C5, 106 }, 
	{ NOTE_REST, 106 }, 
	{ NOTE_C5, 106 }, 
	{ NOTE_C5, 106 }, 
	{ NOTE_C5, 106 }, 
	{ NOTE_REST, 106 }, 
	{ NOTE_C5, 106 }, 
	{ NOTE_REST, 106 }, 
	{ NOTE_C5, 106 }, 
	{ NOTE_REST, 106 }, 
	{ NOTE_C5, 106 }, 
	{ NOTE_C5, 100 }, 
	{ NOTE_B4, 106 }, 
	{ NOTE_REST, 106 }, 
	{ NOTE_B4, 106 }, 
	{ NOTE_B4, 106 }, 
	{ NOTE_B4, 106 }, 
	{ NOTE_REST, 106 }, 
	{ NOTE_B4, 106 }, 
	{ NOTE_B4, 106 }, 
	{ NOTE_B4, 106 }, 
	{ NOTE_REST, 106 }, 
	{ NOTE_B4, 106 }, 
	{ NOTE_REST, 106 }, 
	{ NOTE_B4, 106 }, 
	{ NOTE_REST, 106 }, 
	{ NOTE_B4, 106 }, 
	{ NOTE_B4, 100 }, 
	{ NOTE_A3, 211 }, 
	{ NOTE_E5, 1479 }, 
	{ NOTE_E3, 211 }, 
	{ NOTE_E5, 1479 }, 
};
const uint16_t NUM_OF_NOTES1 = sizeof(melody1)/sizeof(melody1[0]);

const Note melody2[] PROGMEM = {
	{ NOTE_C4, 106 }, 
	{ NOTE_REST, 106 }, 
	{ NOTE_C4, 106 }, 
	{ NOTE_C4, 106 }, 
	{ NOTE_C4, 106 }, 
	{ NOTE_REST, 106 }, 
	{ NOTE_C4, 106 }, 
	{ NOTE_C4, 106 }, 
	{ NOTE_C4, 106 }, 
	{ NOTE_REST, 106 }, 
	{ NOTE_C4, 106 }, 
	{ NOTE_REST, 106 }, 
	{ NOTE_C4, 106 }, 
	{ NOTE_REST, 106 }, 
	{ NOTE_C4, 106 }, 
	{ NOTE_C4, 100 }, 
	{ NOTE_D4, 106 }, 
	{ NOTE_REST, 106 }, 
	{ NOTE_D4, 106 }, 
	{ NOTE_D4, 106 }, 
	{ NOTE_D4, 106 }, 
	{ NOTE_REST, 106 }, 
	{ NOTE_D4, 106 }, 
	{ NOTE_D4, 106 }, 
	{ NOTE_D4, 106 }, 
	{ NOTE_REST, 106 }, 
	{ NOTE_D4, 106 }, 
	{ NOTE_REST, 106 }, 
	{ NOTE_E4, 106 }, 
	{ NOTE_REST, 106 }, 
	{ NOTE_D4, 106 }, 
	{ NOTE_D4, 100 }, 
	{ NOTE_C4, 106 }, 
	{ NOTE_REST, 106 }, 
	{ NOTE_C4, 106 }, 
	{ NOTE_C4, 106 }, 
	{ NOTE_C4, 106 }, 
	{ NOTE_REST, 106 }, 
	{ NOTE_C4, 106 }, 
	{ NOTE_C4, 106 }, 
	{ NOTE_C4, 106 }, 
	{ NOTE_REST, 106 }, 
	{ NOTE_C4, 106 }, 
	{ NOTE_REST, 106 }, 
	{ NOTE_C4, 106 }, 
	{ NOTE_REST, 106 }, 
	{ NOTE_C4, 106 }, 
	{ NOTE_C4, 100 }, 
	{ NOTE_B3, 106 }, 
	{ NOTE_REST, 106 }, 
	{ NOTE_B3, 106 }, 
	{ NOTE_B3, 106 }, 
	{ NOTE_B3, 106 }, 
	{ NOTE_REST, 106 }, 
	{ NOTE_B3, 106 }, 
	{ NOTE_B3, 106 }, 
	{ NOTE_B3, 106 }, 
	{ NOTE_REST, 106 }, 
	{ NOTE_B3, 106 }, 
	{ NOTE_REST, 106 }, 
	{ NOTE_B3, 106 }, 
	{ NOTE_REST, 106 }, 
	{ NOTE_B3, 106 }, 
	{ NOTE_B3, 100 }, 
	{ NOTE_C4, 106 }, 
	{ NOTE_REST, 106 }, 
	{ NOTE_C4, 106 }, 
	{ NOTE_C4, 106 }, 
	{ NOTE_C4, 106 }, 
	{ NOTE_REST, 106 }, 
	{ NOTE_C4, 106 }, 
	{ NOTE_C4, 106 }, 
	{ NOTE_C4, 106 }, 
	{ NOTE_REST, 106 }, 
	{ NOTE_C4, 106 }, 
	{ NOTE_REST, 106 }, 
	{ NOTE_C4, 106 }, 
	{ NOTE_REST, 106 }, 
	{ NOTE_C4, 106 }, 
	{ NOTE_C4, 100 }, 
	{ NOTE_D4, 106 }, 
	{ NOTE_REST, 106 }, 
	{ NOTE_D4, 106 }, 
	{ NOTE_D4, 106 }, 
	{ NOTE_D4, 106 }, 
	{ NOTE_REST, 106 }, 
	{ NOTE_D4, 106 }, 
	{ NOTE_D4, 106 }, 
	{ NOTE_D4, 106 }, 
	{ NOTE_REST, 106 }, 
	{ NOTE_D4, 106 }, 
	{ NOTE_REST, 106 }, 
	{ NOTE_E4, 106 }, 
	{ NOTE_REST, 106 }, 
	{ NOTE_D4, 106 }, 
	{ NOTE_D4, 100 }, 
	{ NOTE_C4, 106 }, 
	{ NOTE_REST, 106 }, 
	{ NOTE_C4, 106 }, 
	{ NOTE_C4, 106 }, 
	{ NOTE_C4, 106 }, 
	{ NOTE_REST, 106 }, 
	{ NOTE_C4, 106 }, 
	{ NOTE_C4, 106 }, 
	{ NOTE_C4, 106 }, 
	{ NOTE_REST, 106 }, 
	{ NOTE_C4, 106 }, 
	{ NOTE_REST, 106 }, 
	{ NOTE_C4, 106 }, 
	{ NOTE_REST, 106 }, 
	{ NOTE_C4, 106 }, 
	{ NOTE_C4, 100 }, 
	{ NOTE_B3, 106 }, 
	{ NOTE_REST, 106 }, 
	{ NOTE_B3, 106 }, 
	{ NOTE_B3, 106 }, 
	{ NOTE_B3, 106 }, 
	{ NOTE_REST, 106 }, 
	{ NOTE_B3, 106 }, 
	{ NOTE_B3, 106 }, 
	{ NOTE_B3, 106 }, 
	{ NOTE_REST, 106 }, 
	{ NOTE_B3, 106 }, 
	{ NOTE_REST, 106 }, 
	{ NOTE_B3, 106 }, 
	{ NOTE_REST, 106 }, 
	{ NOTE_B3, 106 }, 
	{ NOTE_B3, 100 }, 
	{ NOTE_C4, 106 }, 
	{ NOTE_REST, 106 }, 
	{ NOTE_C4, 106 }, 
	{ NOTE_C4, 106 }, 
	{ NOTE_C4, 106 }, 
	{ NOTE_REST, 106 }, 
	{ NOTE_C4, 106 }, 
	{ NOTE_C4, 106 }, 
	{ NOTE_C4, 106 }, 
	{ NOTE_REST, 106 }, 
	{ NOTE_C4, 106 }, 
	{ NOTE_REST, 106 }, 
	{ NOTE_C4, 106 }, 
	{ NOTE_REST, 106 }, 
	{ NOTE_C4, 106 }, 
	{ NOTE_C4, 100 }, 
	{ NOTE_D4, 106 }, 
	{ NOTE_REST, 106 }, 
	{ NOTE_D4, 106 }, 
	{ NOTE_D4, 106 }, 
	{ NOTE_D4, 106 }, 
	{ NOTE_REST, 106 }, 
	{ NOTE_D4, 106 }, 
	{ NOTE_D4, 106 }, 
	{ NOTE_D4, 106 }, 
	{ NOTE_REST, 106 }, 
	{ NOTE_D4, 106 }, 
	{ NOTE_REST, 106 }, 
	{ NOTE_E4, 106 }, 
	{ NOTE_REST, 106 }, 
	{ NOTE_D4, 106 }, 
	{ NOTE_D4, 100 }, 
	{ NOTE_C4, 106 }, 
	{ NOTE_REST, 106 }, 
	{ NOTE_C4, 106 }, 
	{ NOTE_C4, 106 }, 
	{ NOTE_C4, 106 }, 
	{ NOTE_REST, 106 }, 
	{ NOTE_C4, 106 }, 
	{ NOTE_C4, 106 }, 
	{ NOTE_C4, 106 }, 
	{ NOTE_REST, 106 }, 
	{ NOTE_C4, 106 }, 
	{ NOTE_REST, 106 }, 
	{ NOTE_C4, 106 }, 
	{ NOTE_REST, 106 }, 
	{ NOTE_C4, 106 }, 
	{ NOTE_C4, 100 }, 
	{ NOTE_B3, 106 }, 
	{ NOTE_REST, 106 }, 
	{ NOTE_B3, 106 }, 
	{ NOTE_B3, 106 }, 
	{ NOTE_B3, 106 }, 
	{ NOTE_REST, 106 }, 
	{ NOTE_B3, 106 }, 
	{ NOTE_B3, 106 }, 
	{ NOTE_B3, 106 }, 
	{ NOTE_REST, 106 }, 
	{ NOTE_B3, 106 }, 
	{ NOTE_REST, 106 }, 
	{ NOTE_B3, 106 }, 
	{ NOTE_REST, 106 }, 
	{ NOTE_B3, 106 }, 
	{ NOTE_B3, 100 }, 
	{ NOTE_C4, 106 }, 
	{ NOTE_REST, 106 }, 
	{ NOTE_C4, 106 }, 
	{ NOTE_C4, 106 }, 
	{ NOTE_C4, 106 }, 
	{ NOTE_REST, 106 }, 
	{ NOTE_C4, 106 }, 
	{ NOTE_C4, 106 }, 
	{ NOTE_C4, 106 }, 
	{ NOTE_REST, 106 }, 
	{ NOTE_C4, 106 }, 
	{ NOTE_REST, 106 }, 
	{ NOTE_C4, 106 }, 
	{ NOTE_REST, 106 }, 
	{ NOTE_C4, 106 }, 
	{ NOTE_C4, 100 }, 
	{ NOTE_B3, 106 }, 
	{ NOTE_REST, 106 }, 
	{ NOTE_B3, 106 }, 
	{ NOTE_B3, 106 }, 
	{ NOTE_B3, 106 }, 
	{ NOTE_REST, 106 }, 
	{ NOTE_B3, 106 }, 
	{ NOTE_B3, 106 }, 
	{ NOTE_B3, 106 }, 
	{ NOTE_REST, 106 }, 
	{ NOTE_B3, 106 }, 
	{ NOTE_REST, 106 }, 
	{ NOTE_B3, 106 }, 
	{ NOTE_REST, 106 }, 
	{ NOTE_B3, 106 }, 
	{ NOTE_B3, 100 }, 
	{ NOTE_C4, 106 }, 
	{ NOTE_REST, 106 }, 
	{ NOTE_C4, 106 }, 
	{ NOTE_C4, 106 }, 
	{ NOTE_C4, 106 }, 
	{ NOTE_REST, 106 }, 
	{ NOTE_C4, 106 }, 
	{ NOTE_C4, 106 }, 
	{ NOTE_C4, 106 }, 
	{ NOTE_REST, 106 }, 
	{ NOTE_C4, 106 }, 
	{ NOTE_REST, 106 }, 
	{ NOTE_C4, 106 }, 
	{ NOTE_REST, 106 }, 
	{ NOTE_C4, 106 }, 
	{ NOTE_C4, 100 }, 
	{ NOTE_C4, 106 }, 
	{ NOTE_REST, 106 }, 
	{ NOTE_C4, 106 }, 
	{ NOTE_C4, 106 }, 
	{ NOTE_C4, 106 }, 
	{ NOTE_REST, 106 }, 
	{ NOTE_C4, 106 }, 
	{ NOTE_C4, 106 }, 
	{ NOTE_C4, 106 }, 
	{ NOTE_REST, 106 }, 
	{ NOTE_C4, 106 }, 
	{ NOTE_REST, 106 }, 
	{ NOTE_C4, 106 }, 
	{ NOTE_REST, 106 }, 
	{ NOTE_C4, 106 }, 
	{ NOTE_C4, 100 }, 
	{ NOTE_C4, 106 }, 
	{ NOTE_REST, 106 }, 
	{ NOTE_C4, 106 }, 
	{ NOTE_C4, 106 }, 
	{ NOTE_C4, 106 }, 
	{ NOTE_REST, 106 }, 
	{ NOTE_C4, 106 }, 
	{ NOTE_C4, 106 }, 
	{ NOTE_C4, 106 }, 
	{ NOTE_REST, 106 }, 
	{ NOTE_C4, 106 }, 
	{ NOTE_REST, 106 }, 
	{ NOTE_C4, 106 }, 
	{ NOTE_REST, 106 }, 
	{ NOTE_C4, 106 }, 
	{ NOTE_C4, 100 }, 
	{ NOTE_E4, 106 }, 
	{ NOTE_REST, 106 }, 
	{ NOTE_E4, 106 }, 
	{ NOTE_E4, 106 }, 
	{ NOTE_E4, 106 }, 
	{ NOTE_REST, 106 }, 
	{ NOTE_E4, 106 }, 
	{ NOTE_E4, 106 }, 
	{ NOTE_E4, 106 }, 
	{ NOTE_REST, 106 }, 
	{ NOTE_E4, 106 }, 
	{ NOTE_REST, 106 }, 
	{ NOTE_E4, 106 }, 
	{ NOTE_REST, 106 }, 
	{ NOTE_F4, 106 }, 
	{ NOTE_F4, 100 }, 
	{ NOTE_E4, 3380 }, 
	{ NOTE_C4, 106 }, 
	{ NOTE_REST, 106 }, 
	{ NOTE_C4, 106 }, 
	{ NOTE_C4, 106 }, 
	{ NOTE_C4, 106 }, 
	{ NOTE_REST, 106 }, 
	{ NOTE_C4, 106 }, 
	{ NOTE_C4, 106 }, 
	{ NOTE_C4, 106 }, 
	{ NOTE_REST, 106 }, 
	{ NOTE_C4, 106 }, 
	{ NOTE_REST, 106 }, 
	{ NOTE_C4, 106 }, 
	{ NOTE_REST, 106 }, 
	{ NOTE_C4, 106 }, 
	{ NOTE_C4, 100 }, 
	{ NOTE_B3, 106 }, 
	{ NOTE_REST, 106 }, 
	{ NOTE_B3, 106 }, 
	{ NOTE_B3, 106 }, 
	{ NOTE_B3, 106 }, 
	{ NOTE_REST, 106 }, 
	{ NOTE_B3, 106 }, 
	{ NOTE_B3, 106 }, 
	{ NOTE_B3, 106 }, 
	{ NOTE_REST, 106 }, 
	{ NOTE_B3, 106 }, 
	{ NOTE_REST, 106 }, 
	{ NOTE_B3, 106 }, 
	{ NOTE_REST, 106 }, 
	{ NOTE_B3, 106 }, 
	{ NOTE_B3, 100 }, 
	{ NOTE_A3, 106 }, 
	{ NOTE_REST, 106 }, 
	{ NOTE_A3, 106 }, 
	{ NOTE_A3, 106 }, 
	{ NOTE_A3, 106 }, 
	{ NOTE_REST, 106 }, 
	{ NOTE_A3, 106 }, 
	{ NOTE_A3, 106 }, 
	{ NOTE_A3, 106 }, 
	{ NOTE_REST, 106 }, 
	{ NOTE_A3, 106 }, 
	{ NOTE_REST, 106 }, 
	{ NOTE_A3, 106 }, 
	{ NOTE_REST, 106 }, 
	{ NOTE_A3, 106 }, 
	{ NOTE_A3, 100 }, 
	{ NOTE_G3, 106 }, 
	{ NOTE_REST, 106 }, 
	{ NOTE_G3, 106 }, 
	{ NOTE_G3, 106 }, 
	{ NOTE_G3, 106 }, 
	{ NOTE_REST, 106 }, 
	{ NOTE_G3, 106 }, 
	{ NOTE_G3, 106 }, 
	{ NOTE_G3, 106 }, 
	{ NOTE_REST, 106 }, 
	{ NOTE_G3, 106 }, 
	{ NOTE_REST, 106 }, 
	{ NOTE_G3, 106 }, 
	{ NOTE_REST, 106 }, 
	{ NOTE_G3, 106 }, 
	{ NOTE_G3, 100 }, 
	{ NOTE_D4, 106 }, 
	{ NOTE_REST, 106 }, 
	{ NOTE_D4, 106 }, 
	{ NOTE_D4, 106 }, 
	{ NOTE_D4, 106 }, 
	{ NOTE_REST, 106 }, 
	{ NOTE_D4, 106 }, 
	{ NOTE_D4, 106 }, 
	{ NOTE_D4, 106 }, 
	{ NOTE_REST, 106 }, 
	{ NOTE_D4, 106 }, 
	{ NOTE_REST, 106 }, 
	{ NOTE_D4, 106 }, 
	{ NOTE_REST, 106 }, 
	{ NOTE_D4, 106 }, 
	{ NOTE_D4, 100 }, 
	{ NOTE_C4, 106 }, 
	{ NOTE_REST, 106 }, 
	{ NOTE_C4, 106 }, 
	{ NOTE_C4, 106 }, 
	{ NOTE_C4, 106 }, 
	{ NOTE_REST, 106 }, 
	{ NOTE_C4, 106 }, 
	{ NOTE_C4, 106 }, 
	{ NOTE_C4, 106 }, 
	{ NOTE_REST, 106 }, 
	{ NOTE_C4, 106 }, 
	{ NOTE_REST, 106 }, 
	{ NOTE_C4, 106 }, 
	{ NOTE_REST, 106 }, 
	{ NOTE_C4, 106 }, 
	{ NOTE_C4, 100 }, 
	{ NOTE_B3, 106 }, 
	{ NOTE_REST, 106 }, 
	{ NOTE_B3, 106 }, 
	{ NOTE_B3, 106 }, 
	{ NOTE_B3, 106 }, 
	{ NOTE_REST, 106 }, 
	{ NOTE_B3, 106 }, 
	{ NOTE_B3, 106 }, 
	{ NOTE_B3, 106 }, 
	{ NOTE_REST, 106 }, 
	{ NOTE_B3, 106 }, 
	{ NOTE_REST, 106 }, 
	{ NOTE_B3, 106 }, 
	{ NOTE_REST, 106 }, 
	{ NOTE_B3, 106 }, 
	{ NOTE_B3, 100 }, 
	{ NOTE_B3, 106 }, 
	{ NOTE_REST, 106 }, 
	{ NOTE_B3, 106 }, 
	{ NOTE_B3, 106 }, 
	{ NOTE_B3, 106 }, 
	{ NOTE_REST, 106 }, 
	{ NOTE_B3, 106 }, 
	{ NOTE_B3, 106 }, 
	{ NOTE_B3, 106 }, 
	{ NOTE_REST, 106 }, 
	{ NOTE_B3, 106 }, 
	{ NOTE_REST, 106 }, 
	{ NOTE_B3, 106 }, 
	{ NOTE_REST, 106 }, 
	{ NOTE_B3, 106 }, 
	{ NOTE_B3, 100 }, 
	{ NOTE_C4, 106 }, 
	{ NOTE_REST, 106 }, 
	{ NOTE_C4, 106 }, 
	{ NOTE_C4, 106 }, 
	{ NOTE_C4, 106 }, 
	{ NOTE_REST, 106 }, 
	{ NOTE_C4, 106 }, 
	{ NOTE_C4, 106 }, 
	{ NOTE_C4, 106 }, 
	{ NOTE_REST, 106 }, 
	{ NOTE_C4, 106 }, 
	{ NOTE_REST, 106 }, 
	{ NOTE_C4, 106 }, 
	{ NOTE_REST, 106 }, 
	{ NOTE_C4, 106 }, 
	{ NOTE_C4, 100 }, 
	{ NOTE_B3, 106 }, 
	{ NOTE_REST, 106 }, 
	{ NOTE_B3, 106 }, 
	{ NOTE_B3, 106 }, 
	{ NOTE_B3, 106 }, 
	{ NOTE_REST, 106 }, 
	{ NOTE_B3, 106 }, 
	{ NOTE_B3, 106 }, 
	{ NOTE_B3, 106 }, 
	{ NOTE_REST, 106 }, 
	{ NOTE_B3, 106 }, 
	{ NOTE_REST, 106 }, 
	{ NOTE_B3, 106 }, 
	{ NOTE_REST, 106 }, 
	{ NOTE_B3, 106 }, 
	{ NOTE_B3, 100 }, 
	{ NOTE_A3, 106 }, 
	{ NOTE_REST, 106 }, 
	{ NOTE_A3, 106 }, 
	{ NOTE_A3, 106 }, 
	{ NOTE_A3, 106 }, 
	{ NOTE_REST, 106 }, 
	{ NOTE_A3, 106 }, 
	{ NOTE_A3, 106 }, 
	{ NOTE_A3, 106 }, 
	{ NOTE_REST, 106 }, 
	{ NOTE_A3, 106 }, 
	{ NOTE_REST, 106 }, 
	{ NOTE_A3, 106 }, 
	{ NOTE_REST, 106 }, 
	{ NOTE_A3, 106 }, 
	{ NOTE_A3, 100 }, 
	{ NOTE_G3, 106 }, 
	{ NOTE_REST, 106 }, 
	{ NOTE_G3, 106 }, 
	{ NOTE_G3, 106 }, 
	{ NOTE_G3, 106 }, 
	{ NOTE_REST, 106 }, 
	{ NOTE_G3, 106 }, 
	{ NOTE_G3, 106 }, 
	{ NOTE_G3, 106 }, 
	{ NOTE_REST, 106 }, 
	{ NOTE_G3, 106 }, 
	{ NOTE_REST, 106 }, 
	{ NOTE_G3, 106 }, 
	{ NOTE_REST, 106 }, 
	{ NOTE_G3, 106 }, 
	{ NOTE_G3, 100 }, 
	{ NOTE_A2, 211 }, 
	{ NOTE_C4, 1479 }, 
	{ NOTE_E2, 211 }, 
	{ NOTE_C4, 1479 }, 
	{ NOTE_C4, 106 }, 
	{ NOTE_REST, 106 }, 
	{ NOTE_C4, 106 }, 
	{ NOTE_C4, 106 }, 
	{ NOTE_C4, 106 }, 
	{ NOTE_REST, 106 }, 
	{ NOTE_C4, 106 }, 
	{ NOTE_C4, 106 }, 
	{ NOTE_C4, 106 }, 
	{ NOTE_REST, 106 }, 
	{ NOTE_C4, 106 }, 
	{ NOTE_REST, 106 }, 
	{ NOTE_C4, 106 }, 
	{ NOTE_REST, 106 }, 
	{ NOTE_C4, 106 }, 
	{ NOTE_C4, 100 }, 
	{ NOTE_D4, 106 }, 
	{ NOTE_REST, 106 }, 
	{ NOTE_D4, 106 }, 
	{ NOTE_D4, 106 }, 
	{ NOTE_D4, 106 }, 
	{ NOTE_REST, 106 }, 
	{ NOTE_D4, 106 }, 
	{ NOTE_D4, 106 }, 
	{ NOTE_D4, 106 }, 
	{ NOTE_REST, 106 }, 
	{ NOTE_D4, 106 }, 
	{ NOTE_REST, 106 }, 
	{ NOTE_E4, 106 }, 
	{ NOTE_REST, 106 }, 
	{ NOTE_D4, 106 }, 
	{ NOTE_D4, 100 }, 
	{ NOTE_C4, 106 }, 
	{ NOTE_REST, 106 }, 
	{ NOTE_C4, 106 }, 
	{ NOTE_C4, 106 }, 
	{ NOTE_C4, 106 }, 
	{ NOTE_REST, 106 }, 
	{ NOTE_C4, 106 }, 
	{ NOTE_C4, 106 }, 
	{ NOTE_C4, 106 }, 
	{ NOTE_REST, 106 }, 
	{ NOTE_C4, 106 }, 
	{ NOTE_REST, 106 }, 
	{ NOTE_C4, 106 }, 
	{ NOTE_REST, 106 }, 
	{ NOTE_C4, 106 }, 
	{ NOTE_C4, 100 }, 
	{ NOTE_B3, 106 }, 
	{ NOTE_REST, 106 }, 
	{ NOTE_B3, 106 }, 
	{ NOTE_B3, 106 }, 
	{ NOTE_B3, 106 }, 
	{ NOTE_REST, 106 }, 
	{ NOTE_B3, 106 }, 
	{ NOTE_B3, 106 }, 
	{ NOTE_B3, 106 }, 
	{ NOTE_REST, 106 }, 
	{ NOTE_B3, 106 }, 
	{ NOTE_REST, 106 }, 
	{ NOTE_B3, 106 }, 
	{ NOTE_REST, 106 }, 
	{ NOTE_B3, 106 }, 
	{ NOTE_B3, 100 }, 
	{ NOTE_C4, 106 }, 
	{ NOTE_REST, 106 }, 
	{ NOTE_C4, 106 }, 
	{ NOTE_C4, 106 }, 
	{ NOTE_C4, 106 }, 
	{ NOTE_REST, 106 }, 
	{ NOTE_C4, 106 }, 
	{ NOTE_C4, 106 }, 
	{ NOTE_C4, 106 }, 
	{ NOTE_REST, 106 }, 
	{ NOTE_C4, 106 }, 
	{ NOTE_REST, 106 }, 
	{ NOTE_C4, 106 }, 
	{ NOTE_REST, 106 }, 
	{ NOTE_C4, 106 }, 
	{ NOTE_C4, 100 }, 
	{ NOTE_D4, 106 }, 
	{ NOTE_REST, 106 }, 
	{ NOTE_D4, 106 }, 
	{ NOTE_D4, 106 }, 
	{ NOTE_D4, 106 }, 
	{ NOTE_REST, 106 }, 
	{ NOTE_D4, 106 }, 
	{ NOTE_D4, 106 }, 
	{ NOTE_D4, 106 }, 
	{ NOTE_REST, 106 }, 
	{ NOTE_D4, 106 }, 
	{ NOTE_REST, 106 }, 
	{ NOTE_E4, 106 }, 
	{ NOTE_REST, 106 }, 
	{ NOTE_D4, 106 }, 
	{ NOTE_D4, 100 }, 
	{ NOTE_C4, 106 }, 
	{ NOTE_REST, 106 }, 
	{ NOTE_C4, 106 }, 
	{ NOTE_C4, 106 }, 
	{ NOTE_C4, 106 }, 
	{ NOTE_REST, 106 }, 
	{ NOTE_C4, 106 }, 
	{ NOTE_C4, 106 }, 
	{ NOTE_C4, 106 }, 
	{ NOTE_REST, 106 }, 
	{ NOTE_C4, 106 }, 
	{ NOTE_REST, 106 }, 
	{ NOTE_C4, 106 }, 
	{ NOTE_REST, 106 }, 
	{ NOTE_C4, 106 }, 
	{ NOTE_C4, 100 }, 
	{ NOTE_B3, 106 }, 
	{ NOTE_REST, 106 }, 
	{ NOTE_B3, 106 }, 
	{ NOTE_B3, 106 }, 
	{ NOTE_B3, 106 }, 
	{ NOTE_REST, 106 }, 
	{ NOTE_B3, 106 }, 
	{ NOTE_B3, 106 }, 
	{ NOTE_B3, 106 }, 
	{ NOTE_REST, 106 }, 
	{ NOTE_B3, 106 }, 
	{ NOTE_REST, 106 }, 
	{ NOTE_B3, 106 }, 
	{ NOTE_REST, 106 }, 
	{ NOTE_B3, 106 }, 
	{ NOTE_B3, 100 }, 
	{ NOTE_C4, 106 }, 
	{ NOTE_REST, 106 }, 
	{ NOTE_C4, 106 }, 
	{ NOTE_C4, 106 }, 
	{ NOTE_C4, 106 }, 
	{ NOTE_REST, 106 }, 
	{ NOTE_C4, 106 }, 
	{ NOTE_C4, 106 }, 
	{ NOTE_C4, 106 }, 
	{ NOTE_REST, 106 }, 
	{ NOTE_C4, 106 }, 
	{ NOTE_REST, 106 }, 
	{ NOTE_C4, 106 }, 
	{ NOTE_REST, 106 }, 
	{ NOTE_C4, 106 }, 
	{ NOTE_C4, 100 }, 
	{ NOTE_D4, 106 }, 
	{ NOTE_REST, 106 }, 
	{ NOTE_D4, 106 }, 
	{ NOTE_D4, 106 }, 
	{ NOTE_D4, 106 }, 
	{ NOTE_REST, 106 }, 
	{ NOTE_D4, 106 }, 
	{ NOTE_D4, 106 }, 
	{ NOTE_D4, 106 }, 
	{ NOTE_REST, 106 }, 
	{ NOTE_D4, 106 }, 
	{ NOTE_REST, 106 }, 
	{ NOTE_E4, 106 }, 
	{ NOTE_REST, 106 }, 
	{ NOTE_D4, 106 }, 
	{ NOTE_D4, 100 }, 
	{ NOTE_C4, 106 }, 
	{ NOTE_REST, 106 }, 
	{ NOTE_C4, 106 }, 
	{ NOTE_C4, 106 }, 
	{ NOTE_C4, 106 }, 
	{ NOTE_REST, 106 }, 
	{ NOTE_C4, 106 }, 
	{ NOTE_C4, 106 }, 
	{ NOTE_C4, 106 }, 
	{ NOTE_REST, 106 }, 
	{ NOTE_C4, 106 }, 
	{ NOTE_REST, 106 }, 
	{ NOTE_C4, 106 }, 
	{ NOTE_REST, 106 }, 
	{ NOTE_C4, 106 }, 
	{ NOTE_C4, 100 }, 
	{ NOTE_B3, 106 }, 
	{ NOTE_REST, 106 }, 
	{ NOTE_B3, 106 }, 
	{ NOTE_B3, 106 }, 
	{ NOTE_B3, 106 }, 
	{ NOTE_REST, 106 }, 
	{ NOTE_B3, 106 }, 
	{ NOTE_B3, 106 }, 
	{ NOTE_B3, 106 }, 
	{ NOTE_REST, 106 }, 
	{ NOTE_B3, 106 }, 
	{ NOTE_REST, 106 }, 
	{ NOTE_B3, 106 }, 
	{ NOTE_REST, 106 }, 
	{ NOTE_B3, 106 }, 
	{ NOTE_B3, 100 }, 
	{ NOTE_C4, 106 }, 
	{ NOTE_REST, 106 }, 
	{ NOTE_C4, 106 }, 
	{ NOTE_C4, 106 }, 
	{ NOTE_C4, 106 }, 
	{ NOTE_REST, 106 }, 
	{ NOTE_C4, 106 }, 
	{ NOTE_C4, 106 }, 
	{ NOTE_C4, 106 }, 
	{ NOTE_REST, 106 }, 
	{ NOTE_C4, 106 }, 
	{ NOTE_REST, 106 }, 
	{ NOTE_C4, 106 }, 
	{ NOTE_REST, 106 }, 
	{ NOTE_C4, 106 }, 
	{ NOTE_C4, 100 }, 
	{ NOTE_B3, 106 }, 
	{ NOTE_REST, 106 }, 
	{ NOTE_B3, 106 }, 
	{ NOTE_B3, 106 }, 
	{ NOTE_B3, 106 }, 
	{ NOTE_REST, 106 }, 
	{ NOTE_B3, 106 }, 
	{ NOTE_B3, 106 }, 
	{ NOTE_B3, 106 }, 
	{ NOTE_REST, 106 }, 
	{ NOTE_B3, 106 }, 
	{ NOTE_REST, 106 }, 
	{ NOTE_B3, 106 }, 
	{ NOTE_REST, 106 }, 
	{ NOTE_B3, 106 }, 
	{ NOTE_B3, 100 }, 
	{ NOTE_C4, 106 }, 
	{ NOTE_REST, 106 }, 
	{ NOTE_C4, 106 }, 
	{ NOTE_C4, 106 }, 
	{ NOTE_C4, 106 }, 
	{ NOTE_REST, 106 }, 
	{ NOTE_C4, 106 }, 
	{ NOTE_C4, 106 }, 
	{ NOTE_C4, 106 }, 
	{ NOTE_REST, 106 }, 
	{ NOTE_C4, 106 }, 
	{ NOTE_REST, 106 }, 
	{ NOTE_C4, 106 }, 
	{ NOTE_REST, 106 }, 
	{ NOTE_C4, 106 }, 
	{ NOTE_C4, 100 }, 
	{ NOTE_C4, 106 }, 
	{ NOTE_REST, 106 }, 
	{ NOTE_C4, 106 }, 
	{ NOTE_C4, 106 }, 
	{ NOTE_C4, 106 }, 
	{ NOTE_REST, 106 }, 
	{ NOTE_C4, 106 }, 
	{ NOTE_C4, 106 }, 
	{ NOTE_C4, 106 }, 
	{ NOTE_REST, 106 }, 
	{ NOTE_C4, 106 }, 
	{ NOTE_REST, 106 }, 
	{ NOTE_C4, 106 }, 
	{ NOTE_REST, 106 }, 
	{ NOTE_C4, 106 }, 
	{ NOTE_C4, 100 }, 
	{ NOTE_C4, 106 }, 
	{ NOTE_REST, 106 }, 
	{ NOTE_C4, 106 }, 
	{ NOTE_C4, 106 }, 
	{ NOTE_C4, 106 }, 
	{ NOTE_REST, 106 }, 
	{ NOTE_C4, 106 }, 
	{ NOTE_C4, 106 }, 
	{ NOTE_C4, 106 }, 
	{ NOTE_REST, 106 }, 
	{ NOTE_C4, 106 }, 
	{ NOTE_REST, 106 }, 
	{ NOTE_C4, 106 }, 
	{ NOTE_REST, 106 }, 
	{ NOTE_C4, 106 }, 
	{ NOTE_C4, 100 }, 
	{ NOTE_E4, 106 }, 
	{ NOTE_REST, 106 }, 
	{ NOTE_E4, 106 }, 
	{ NOTE_E4, 106 }, 
	{ NOTE_E4, 106 }, 
	{ NOTE_REST, 106 }, 
	{ NOTE_E4, 106 }, 
	{ NOTE_E4, 106 }, 
	{ NOTE_E4, 106 }, 
	{ NOTE_REST, 106 }, 
	{ NOTE_E4, 106 }, 
	{ NOTE_REST, 106 }, 
	{ NOTE_E4, 106 }, 
	{ NOTE_REST, 106 }, 
	{ NOTE_F4, 106 }, 
	{ NOTE_F4, 100 }, 
	{ NOTE_E4, 3380 }, 
	{ NOTE_C4, 106 }, 
	{ NOTE_REST, 106 }, 
	{ NOTE_C4, 106 }, 
	{ NOTE_C4, 106 }, 
	{ NOTE_C4, 106 }, 
	{ NOTE_REST, 106 }, 
	{ NOTE_C4, 106 }, 
	{ NOTE_C4, 106 }, 
	{ NOTE_C4, 106 }, 
	{ NOTE_REST, 106 }, 
	{ NOTE_C4, 106 }, 
	{ NOTE_REST, 106 }, 
	{ NOTE_C4, 106 }, 
	{ NOTE_REST, 106 }, 
	{ NOTE_C4, 106 }, 
	{ NOTE_C4, 100 }, 
	{ NOTE_B3, 106 }, 
	{ NOTE_REST, 106 }, 
	{ NOTE_B3, 106 }, 
	{ NOTE_B3, 106 }, 
	{ NOTE_B3, 106 }, 
	{ NOTE_REST, 106 }, 
	{ NOTE_B3, 106 }, 
	{ NOTE_B3, 106 }, 
	{ NOTE_B3, 106 }, 
	{ NOTE_REST, 106 }, 
	{ NOTE_B3, 106 }, 
	{ NOTE_REST, 106 }, 
	{ NOTE_B3, 106 }, 
	{ NOTE_REST, 106 }, 
	{ NOTE_B3, 106 }, 
	{ NOTE_B3, 100 }, 
	{ NOTE_A3, 106 }, 
	{ NOTE_REST, 106 }, 
	{ NOTE_A3, 106 }, 
	{ NOTE_A3, 106 }, 
	{ NOTE_A3, 106 }, 
	{ NOTE_REST, 106 }, 
	{ NOTE_A3, 106 }, 
	{ NOTE_A3, 106 }, 
	{ NOTE_A3, 106 }, 
	{ NOTE_REST, 106 }, 
	{ NOTE_A3, 106 }, 
	{ NOTE_REST, 106 }, 
	{ NOTE_A3, 106 }, 
	{ NOTE_REST, 106 }, 
	{ NOTE_A3, 106 }, 
	{ NOTE_A3, 100 }, 
	{ NOTE_G3, 106 }, 
	{ NOTE_REST, 106 }, 
	{ NOTE_G3, 106 }, 
	{ NOTE_G3, 106 }, 
	{ NOTE_G3, 106 }, 
	{ NOTE_REST, 106 }, 
	{ NOTE_G3, 106 }, 
	{ NOTE_G3, 106 }, 
	{ NOTE_G3, 106 }, 
	{ NOTE_REST, 106 }, 
	{ NOTE_G3, 106 }, 
	{ NOTE_REST, 106 }, 
	{ NOTE_G3, 106 }, 
	{ NOTE_REST, 106 }, 
	{ NOTE_G3, 106 }, 
	{ NOTE_G3, 100 }, 
	{ NOTE_D4, 106 }, 
	{ NOTE_REST, 106 }, 
	{ NOTE_D4, 106 }, 
	{ NOTE_D4, 106 }, 
	{ NOTE_D4, 106 }, 
	{ NOTE_REST, 106 }, 
	{ NOTE_D4, 106 }, 
	{ NOTE_D4, 106 }, 
	{ NOTE_D4, 106 }, 
	{ NOTE_REST, 106 }, 
	{ NOTE_D4, 106 }, 
	{ NOTE_REST, 106 }, 
	{ NOTE_D4, 106 }, 
	{ NOTE_REST, 106 }, 
	{ NOTE_D4, 106 }, 
	{ NOTE_D4, 100 }, 
	{ NOTE_C4, 106 }, 
	{ NOTE_REST, 106 }, 
	{ NOTE_C4, 106 }, 
	{ NOTE_C4, 106 }, 
	{ NOTE_C4, 106 }, 
	{ NOTE_REST, 106 }, 
	{ NOTE_C4, 106 }, 
	{ NOTE_C4, 106 }, 
	{ NOTE_C4, 106 }, 
	{ NOTE_REST, 106 }, 
	{ NOTE_C4, 106 }, 
	{ NOTE_REST, 106 }, 
	{ NOTE_C4, 106 }, 
	{ NOTE_REST, 106 }, 
	{ NOTE_C4, 106 }, 
	{ NOTE_C4, 100 }, 
	{ NOTE_B3, 106 }, 
	{ NOTE_REST, 106 }, 
	{ NOTE_B3, 106 }, 
	{ NOTE_B3, 106 }, 
	{ NOTE_B3, 106 }, 
	{ NOTE_REST, 106 }, 
	{ NOTE_B3, 106 }, 
	{ NOTE_B3, 106 }, 
	{ NOTE_B3, 106 }, 
	{ NOTE_REST, 106 }, 
	{ NOTE_B3, 106 }, 
	{ NOTE_REST, 106 }, 
	{ NOTE_B3, 106 }, 
	{ NOTE_REST, 106 }, 
	{ NOTE_B3, 106 }, 
	{ NOTE_B3, 100 }, 
	{ NOTE_B3, 106 }, 
	{ NOTE_REST, 106 }, 
	{ NOTE_B3, 106 }, 
	{ NOTE_B3, 106 }, 
	{ NOTE_B3, 106 }, 
	{ NOTE_REST, 106 }, 
	{ NOTE_B3, 106 }, 
	{ NOTE_B3, 106 }, 
	{ NOTE_B3, 106 }, 
	{ NOTE_REST, 106 }, 
	{ NOTE_B3, 106 }, 
	{ NOTE_REST, 106 }, 
	{ NOTE_B3, 106 }, 
	{ NOTE_REST, 106 }, 
	{ NOTE_B3, 106 }, 
	{ NOTE_B3, 100 }, 
	{ NOTE_C4, 106 }, 
	{ NOTE_REST, 106 }, 
	{ NOTE_C4, 106 }, 
	{ NOTE_C4, 106 }, 
	{ NOTE_C4, 106 }, 
	{ NOTE_REST, 106 }, 
	{ NOTE_C4, 106 }, 
	{ NOTE_C4, 106 }, 
	{ NOTE_C4, 106 }, 
	{ NOTE_REST, 106 }, 
	{ NOTE_C4, 106 }, 
	{ NOTE_REST, 106 }, 
	{ NOTE_C4, 106 }, 
	{ NOTE_REST, 106 }, 
	{ NOTE_C4, 106 }, 
	{ NOTE_C4, 100 }, 
	{ NOTE_B3, 106 }, 
	{ NOTE_REST, 106 }, 
	{ NOTE_B3, 106 }, 
	{ NOTE_B3, 106 }, 
	{ NOTE_B3, 106 }, 
	{ NOTE_REST, 106 }, 
	{ NOTE_B3, 106 }, 
	{ NOTE_B3, 106 }, 
	{ NOTE_B3, 106 }, 
	{ NOTE_REST, 106 }, 
	{ NOTE_B3, 106 }, 
	{ NOTE_REST, 106 }, 
	{ NOTE_B3, 106 }, 
	{ NOTE_REST, 106 }, 
	{ NOTE_B3, 106 }, 
	{ NOTE_B3, 100 }, 
	{ NOTE_A3, 106 }, 
	{ NOTE_REST, 106 }, 
	{ NOTE_A3, 106 }, 
	{ NOTE_A3, 106 }, 
	{ NOTE_A3, 106 }, 
	{ NOTE_REST, 106 }, 
	{ NOTE_A3, 106 }, 
	{ NOTE_A3, 106 }, 
	{ NOTE_A3, 106 }, 
	{ NOTE_REST, 106 }, 
	{ NOTE_A3, 106 }, 
	{ NOTE_REST, 106 }, 
	{ NOTE_A3, 106 }, 
	{ NOTE_REST, 106 }, 
	{ NOTE_A3, 106 }, 
	{ NOTE_A3, 100 }, 
	{ NOTE_G3, 106 }, 
	{ NOTE_REST, 106 }, 
	{ NOTE_G3, 106 }, 
	{ NOTE_G3, 106 }, 
	{ NOTE_G3, 106 }, 
	{ NOTE_REST, 106 }, 
	{ NOTE_G3, 106 }, 
	{ NOTE_G3, 106 }, 
	{ NOTE_G3, 106 }, 
	{ NOTE_REST, 106 }, 
	{ NOTE_G3, 106 }, 
	{ NOTE_REST, 106 }, 
	{ NOTE_G3, 106 }, 
	{ NOTE_REST, 106 }, 
	{ NOTE_G3, 106 }, 
	{ NOTE_G3, 100 }, 
	{ NOTE_A2, 211 }, 
	{ NOTE_C4, 1479 }, 
	{ NOTE_E2, 211 }, 
	{ NOTE_C4, 1479 }, 
};
const uint16_t NUM_OF_NOTES2 = sizeof(melody2)/sizeof(melody2[0]);

const Note melody3[] PROGMEM = {
	{ NOTE_REST, 1690 }, 
	{ NOTE_REST, 1690 }, 
	{ NOTE_REST, 1690 }, 
	{ NOTE_REST, 1690 }, 
	{ NOTE_E5, 845 }, 
	{ NOTE_C6, 1268 }, 
	{ NOTE_B5, 423 }, 
	{ NOTE_A5, 211 }, 
	{ NOTE_G5, 211 }, 
	{ NOTE_F5, 422 }, 
	{ NOTE_E5, 106 }, 
	{ NOTE_F5, 106 }, 
	{ NOTE_E5, 106 }, 
	{ NOTE_D5, 106 }, 
	{ NOTE_E5, 1266 }, 
	{ NOTE_REST, 282 }, 
	{ NOTE_B4, 282 }, 
	{ NOTE_C5, 282 }, 
	{ NOTE_D5, 282 }, 
	{ NOTE_E5, 282 }, 
	{ NOTE_F5, 280 }, 
	{ NOTE_E5, 845 }, 
	{ NOTE_E6, 1268 }, 
	{ NOTE_D6, 211 }, 
	{ NOTE_E6, 211 }, 
	{ NOTE_D6, 282 }, 
	{ NOTE_C6, 282 }, 
	{ NOTE_B5, 281 }, 
	{ NOTE_E5, 1690 }, 
	{ NOTE_REST, 282 }, 
	{ NOTE_D5, 282 }, 
	{ NOTE_E5, 282 }, 
	{ NOTE_F5, 282 }, 
	{ NOTE_G5, 282 }, 
	{ NOTE_B5, 280 }, 
	{ NOTE_A5, 845 }, 
	{ NOTE_C6, 845 }, 
	{ NOTE_REST, 282 }, 
	{ NOTE_A5, 282 }, 
	{ NOTE_B5, 282 }, 
	{ NOTE_C6, 282 }, 
	{ NOTE_B5, 282 }, 
	{ NOTE_A5, 280 }, 
	{ NOTE_E5, 106 }, 
	{ NOTE_F5, 106 }, 
	{ NOTE_E5, 106 }, 
	{ NOTE_D5, 106 }, 
	{ NOTE_E5, 1266 }, 
	{ NOTE_REST, 1690 }, 
	{ NOTE_E5, 106 }, 
	{ NOTE_F5, 106 }, 
	{ NOTE_E5, 106 }, 
	{ NOTE_D5, 106 }, 
	{ NOTE_E5, 423 }, 
	{ NOTE_E6, 843 }, 
	{ NOTE_REST, 282 }, 
	{ NOTE_C6, 282 }, 
	{ NOTE_D6, 282 }, 
	{ NOTE_E6, 282 }, 
	{ NOTE_F6, 282 }, 
	{ NOTE_G6, 280 }, 
	{ NOTE_E6, 106 }, 
	{ NOTE_F6, 106 }, 
	{ NOTE_E6, 106 }, 
	{ NOTE_D6, 106 }, 
	{ NOTE_E6, 1266 }, 
	{ NOTE_REST, 1690 }, 
	{ NOTE_E5, 423 }, 
	{ NOTE_C6, 635 }, 
	{ NOTE_B5, 106 }, 
	{ NOTE_C6, 106 }, 
	{ NOTE_D6, 106 }, 
	{ NOTE_C6, 106 }, 
	{ NOTE_B5, 106 }, 
	{ NOTE_A5, 102 }, 
	{ NOTE_B5, 423 }, 
	{ NOTE_E5, 635 }, 
	{ NOTE_B5, 106 }, 
	{ NOTE_C6, 106 }, 
	{ NOTE_D6, 106 }, 
	{ NOTE_C6, 106 }, 
	{ NOTE_B5, 106 }, 
	{ NOTE_A5, 102 }, 
	{ NOTE_B5, 423 }, 
	{ NOTE_E6, 1056 }, 
	{ NOTE_B5, 106 }, 
	{ NOTE_C6, 105 }, 
	{ NOTE_D6, 1690 }, 
	{ NOTE_REST, 423 }, 
	{ NOTE_A5, 423 }, 
	{ NOTE_D6, 317 }, 
	{ NOTE_C6, 317 }, 
	{ NOTE_D6, 210 }, 
	{ NOTE_C6, 423 }, 
	{ NOTE_G5, 1267 }, 
	{ NOTE_FS5, 423 }, 
	{ NOTE_G5, 423 }, 
	{ NOTE_D6, 317 }, 
	{ NOTE_C6, 317 }, 
	{ NOTE_D6, 210 }, 
	{ NOTE_B5, 106 }, 
	{ NOTE_C6, 106 }, 
	{ NOTE_B5, 106 }, 
	{ NOTE_A5, 106 }, 
	{ NOTE_B5, 1266 }, 
	{ NOTE_E5, 423 }, 
	{ NOTE_C6, 635 }, 
	{ NOTE_B5, 106 }, 
	{ NOTE_C6, 106 }, 
	{ NOTE_D6, 106 }, 
	{ NOTE_C6, 106 }, 
	{ NOTE_B5, 106 }, 
	{ NOTE_A5, 102 }, 
	{ NOTE_B5, 423 }, 
	{ NOTE_E5, 635 }, 
	{ NOTE_B5, 106 }, 
	{ NOTE_C6, 106 }, 
	{ NOTE_D6, 106 }, 
	{ NOTE_C6, 106 }, 
	{ NOTE_B5, 106 }, 
	{ NOTE_A5, 102 }, 
	{ NOTE_B5, 423 }, 
	{ NOTE_E6, 1056 }, 
	{ NOTE_B5, 106 }, 
	{ NOTE_C6, 105 }, 
	{ NOTE_D6, 1690 }, 
	{ NOTE_A5, 106 }, 
	{ NOTE_REST, 106 }, 
	{ NOTE_E6, 106 }, 
	{ NOTE_F6, 106 }, 
	{ NOTE_G6, 106 }, 
	{ NOTE_F6, 106 }, 
	{ NOTE_E6, 106 }, 
	{ NOTE_DS6, 106 }, 
	{ NOTE_E6, 423 }, 
	{ NOTE_REST, 211 }, 
	{ NOTE_REST, 208 }, 
	{ NOTE_E5, 106 }, 
	{ NOTE_REST, 106 }, 
	{ NOTE_B5, 106 }, 
	{ NOTE_C6, 106 }, 
	{ NOTE_D6, 106 }, 
	{ NOTE_C6, 106 }, 
	{ NOTE_B5, 106 }, 
	{ NOTE_AS5, 106 }, 
	{ NOTE_B5, 211 }, 
	{ NOTE_REST, 211 }, 
	{ NOTE_DS6, 420 }, 
	{ NOTE_REST, 1690 }, 
	{ NOTE_REST, 1690 }, 
	{ NOTE_REST, 1690 }, 
	{ NOTE_REST, 1690 }, 
	{ NOTE_E5, 845 }, 
	{ NOTE_C6, 1268 }, 
	{ NOTE_B5, 423 }, 
	{ NOTE_A5, 211 }, 
	{ NOTE_G5, 211 }, 
	{ NOTE_F5, 422 }, 
	{ NOTE_E5, 106 }, 
	{ NOTE_F5, 106 }, 
	{ NOTE_E5, 106 }, 
	{ NOTE_D5, 106 }, 
	{ NOTE_E5, 1266 }, 
	{ NOTE_REST, 282 }, 
	{ NOTE_B4, 282 }, 
	{ NOTE_C5, 282 }, 
	{ NOTE_D5, 282 }, 
	{ NOTE_E5, 282 }, 
	{ NOTE_F5, 280 }, 
	{ NOTE_E5, 845 }, 
	{ NOTE_E6, 1268 }, 
	{ NOTE_D6, 211 }, 
	{ NOTE_E6, 211 }, 
	{ NOTE_D6, 282 }, 
	{ NOTE_C6, 282 }, 
	{ NOTE_B5, 281 }, 
	{ NOTE_E5, 1690 }, 
	{ NOTE_REST, 282 }, 
	{ NOTE_D5, 282 }, 
	{ NOTE_E5, 282 }, 
	{ NOTE_F5, 282 }, 
	{ NOTE_G5, 282 }, 
	{ NOTE_B5, 280 }, 
	{ NOTE_A5, 845 }, 
	{ NOTE_C6, 845 }, 
	{ NOTE_REST, 282 }, 
	{ NOTE_A5, 282 }, 
	{ NOTE_B5, 282 }, 
	{ NOTE_C6, 282 }, 
	{ NOTE_B5, 282 }, 
	{ NOTE_A5, 280 }, 
	{ NOTE_E5, 106 }, 
	{ NOTE_F5, 106 }, 
	{ NOTE_E5, 106 }, 
	{ NOTE_D5, 106 }, 
	{ NOTE_E5, 1266 }, 
	{ NOTE_REST, 1690 }, 
	{ NOTE_E5, 106 }, 
	{ NOTE_F5, 106 }, 
	{ NOTE_E5, 106 }, 
	{ NOTE_D5, 106 }, 
	{ NOTE_E5, 423 }, 
	{ NOTE_E6, 843 }, 
	{ NOTE_REST, 282 }, 
	{ NOTE_C6, 282 }, 
	{ NOTE_D6, 282 }, 
	{ NOTE_E6, 282 }, 
	{ NOTE_F6, 282 }, 
	{ NOTE_G6, 280 }, 
	{ NOTE_E6, 106 }, 
	{ NOTE_F6, 106 }, 
	{ NOTE_E6, 106 }, 
	{ NOTE_D6, 106 }, 
	{ NOTE_E6, 1266 }, 
	{ NOTE_REST, 1690 }, 
	{ NOTE_E5, 423 }, 
	{ NOTE_C6, 635 }, 
	{ NOTE_B5, 106 }, 
	{ NOTE_C6, 106 }, 
	{ NOTE_D6, 106 }, 
	{ NOTE_C6, 106 }, 
	{ NOTE_B5, 106 }, 
	{ NOTE_A5, 102 }, 
	{ NOTE_B5, 423 }, 
	{ NOTE_E5, 635 }, 
	{ NOTE_B5, 106 }, 
	{ NOTE_C6, 106 }, 
	{ NOTE_D6, 106 }, 
	{ NOTE_C6, 106 }, 
	{ NOTE_B5, 106 }, 
	{ NOTE_A5, 102 }, 
	{ NOTE_B5, 423 }, 
	{ NOTE_E6, 1056 }, 
	{ NOTE_B5, 106 }, 
	{ NOTE_C6, 105 }, 
	{ NOTE_D6, 1690 }, 
	{ NOTE_REST, 423 }, 
	{ NOTE_A5, 423 }, 
	{ NOTE_D6, 317 }, 
	{ NOTE_C6, 317 }, 
	{ NOTE_D6, 210 }, 
	{ NOTE_C6, 423 }, 
	{ NOTE_G5, 1267 }, 
	{ NOTE_FS5, 423 }, 
	{ NOTE_G5, 423 }, 
	{ NOTE_D6, 317 }, 
	{ NOTE_C6, 317 }, 
	{ NOTE_D6, 210 }, 
	{ NOTE_B5, 106 }, 
	{ NOTE_C6, 106 }, 
	{ NOTE_B5, 106 }, 
	{ NOTE_A5, 106 }, 
	{ NOTE_B5, 1266 }, 
	{ NOTE_E5, 423 }, 
	{ NOTE_C6, 635 }, 
	{ NOTE_B5, 106 }, 
	{ NOTE_C6, 106 }, 
	{ NOTE_D6, 106 }, 
	{ NOTE_C6, 106 }, 
	{ NOTE_B5, 106 }, 
	{ NOTE_A5, 102 }, 
	{ NOTE_B5, 423 }, 
	{ NOTE_E5, 635 }, 
	{ NOTE_B5, 106 }, 
	{ NOTE_C6, 106 }, 
	{ NOTE_D6, 106 }, 
	{ NOTE_C6, 106 }, 
	{ NOTE_B5, 106 }, 
	{ NOTE_A5, 102 }, 
	{ NOTE_B5, 423 }, 
	{ NOTE_E6, 1056 }, 
	{ NOTE_B5, 106 }, 
	{ NOTE_C6, 105 }, 
	{ NOTE_D6, 1690 }, 
	{ NOTE_A5, 106 }, 
	{ NOTE_REST, 106 }, 
	{ NOTE_E6, 106 }, 
	{ NOTE_F6, 106 }, 
	{ NOTE_G6, 106 }, 
	{ NOTE_F6, 106 }, 
	{ NOTE_E6, 106 }, 
	{ NOTE_DS6, 106 }, 
	{ NOTE_E6, 423 }, 
	{ NOTE_REST, 211 }, 
	{ NOTE_REST, 208 }, 
	{ NOTE_E5, 106 }, 
	{ NOTE_REST, 106 }, 
	{ NOTE_B5, 106 }, 
	{ NOTE_C6, 106 }, 
	{ NOTE_D6, 106 }, 
	{ NOTE_C6, 106 }, 
	{ NOTE_B5, 106 }, 
	{ NOTE_AS5, 106 }, 
	{ NOTE_B5, 211 }, 
	{ NOTE_REST, 211 }, 
	{ NOTE_DS6, 420 }, 
};
const uint16_t NUM_OF_NOTES3 = sizeof(melody3)/sizeof(melody3[0]);

const Note melody4[] PROGMEM = {
	{ NOTE_REST, 1690 }, 
	{ NOTE_REST, 1690 }, 
	{ NOTE_REST, 1690 }, 
	{ NOTE_REST, 1690 }, 
	{ NOTE_E5, 845 }, 
	{ NOTE_C6, 1268 }, 
	{ NOTE_B5, 423 }, 
	{ NOTE_A5, 211 }, 
	{ NOTE_G5, 211 }, 
	{ NOTE_F5, 422 }, 
	{ NOTE_E5, 106 }, 
	{ NOTE_F5, 106 }, 
	{ NOTE_E5, 106 }, 
	{ NOTE_D5, 106 }, 
	{ NOTE_E5, 1266 }, 
	{ NOTE_REST, 282 }, 
	{ NOTE_B4, 282 }, 
	{ NOTE_C5, 282 }, 
	{ NOTE_D5, 282 }, 
	{ NOTE_E5, 282 }, 
	{ NOTE_F5, 280 }, 
	{ NOTE_E5, 845 }, 
	{ NOTE_E6, 1268 }, 
	{ NOTE_D6, 211 }, 
	{ NOTE_E6, 211 }, 
	{ NOTE_D6, 282 }, 
	{ NOTE_C6, 282 }, 
	{ NOTE_B5, 281 }, 
	{ NOTE_E5, 1690 }, 
	{ NOTE_REST, 282 }, 
	{ NOTE_D5, 282 }, 
	{ NOTE_E5, 282 }, 
	{ NOTE_F5, 282 }, 
	{ NOTE_G5, 282 }, 
	{ NOTE_B5, 280 }, 
	{ NOTE_A5, 845 }, 
	{ NOTE_C6, 845 }, 
	{ NOTE_REST, 282 }, 
	{ NOTE_A5, 282 }, 
	{ NOTE_B5, 282 }, 
	{ NOTE_C6, 282 }, 
	{ NOTE_B5, 282 }, 
	{ NOTE_A5, 280 }, 
	{ NOTE_E5, 106 }, 
	{ NOTE_F5, 106 }, 
	{ NOTE_E5, 106 }, 
	{ NOTE_D5, 106 }, 
	{ NOTE_E5, 1266 }, 
	{ NOTE_REST, 1690 }, 
	{ NOTE_E5, 106 }, 
	{ NOTE_F5, 106 }, 
	{ NOTE_E5, 106 }, 
	{ NOTE_D5, 106 }, 
	{ NOTE_E5, 423 }, 
	{ NOTE_E6, 843 }, 
	{ NOTE_REST, 282 }, 
	{ NOTE_C6, 282 }, 
	{ NOTE_D6, 282 }, 
	{ NOTE_E6, 282 }, 
	{ NOTE_F6, 282 }, 
	{ NOTE_G6, 280 }, 
	{ NOTE_E6, 106 }, 
	{ NOTE_F6, 106 }, 
	{ NOTE_E6, 106 }, 
	{ NOTE_D6, 106 }, 
	{ NOTE_E6, 1266 }, 
	{ NOTE_REST, 1690 }, 
	{ NOTE_E5, 423 }, 
	{ NOTE_C6, 635 }, 
	{ NOTE_G5, 106 }, 
	{ NOTE_A5, 106 }, 
	{ NOTE_B5, 106 }, 
	{ NOTE_A5, 106 }, 
	{ NOTE_G5, 106 }, 
	{ NOTE_F5, 102 }, 
	{ NOTE_B5, 423 }, 
	{ NOTE_E5, 635 }, 
	{ NOTE_B5, 106 }, 
	{ NOTE_C6, 106 }, 
	{ NOTE_D6, 106 }, 
	{ NOTE_C6, 106 }, 
	{ NOTE_B5, 106 }, 
	{ NOTE_A5, 102 }, 
	{ NOTE_B5, 423 }, 
	{ NOTE_E6, 1056 }, 
	{ NOTE_B5, 106 }, 
	{ NOTE_C6, 105 }, 
	{ NOTE_B5, 1690 }, 
	{ NOTE_REST, 423 }, 
	{ NOTE_A5, 423 }, 
	{ NOTE_D6, 317 }, 
	{ NOTE_C6, 317 }, 
	{ NOTE_D6, 210 }, 
	{ NOTE_C6, 423 }, 
	{ NOTE_G5, 1267 }, 
	{ NOTE_FS5, 423 }, 
	{ NOTE_G5, 423 }, 
	{ NOTE_D6, 317 }, 
	{ NOTE_C6, 317 }, 
	{ NOTE_D6, 210 }, 
	{ NOTE_B5, 106 }, 
	{ NOTE_C6, 106 }, 
	{ NOTE_B5, 106 }, 
	{ NOTE_A5, 106 }, 
	{ NOTE_B5, 1266 }, 
	{ NOTE_E5, 423 }, 
	{ NOTE_C6, 635 }, 
	{ NOTE_G5, 106 }, 
	{ NOTE_A5, 106 }, 
	{ NOTE_B5, 106 }, 
	{ NOTE_A5, 106 }, 
	{ NOTE_G5, 106 }, 
	{ NOTE_F5, 102 }, 
	{ NOTE_B5, 423 }, 
	{ NOTE_E5, 635 }, 
	{ NOTE_B5, 106 }, 
	{ NOTE_C6, 106 }, 
	{ NOTE_D6, 106 }, 
	{ NOTE_C6, 106 }, 
	{ NOTE_B5, 106 }, 
	{ NOTE_A5, 102 }, 
	{ NOTE_B5, 423 }, 
	{ NOTE_E6, 1056 }, 
	{ NOTE_B5, 106 }, 
	{ NOTE_C6, 105 }, 
	{ NOTE_B5, 1690 }, 
	{ NOTE_A5, 106 }, 
	{ NOTE_REST, 106 }, 
	{ NOTE_E6, 106 }, 
	{ NOTE_F6, 106 }, 
	{ NOTE_G6, 106 }, 
	{ NOTE_F6, 106 }, 
	{ NOTE_E6, 106 }, 
	{ NOTE_DS6, 106 }, 
	{ NOTE_E6, 423 }, 
	{ NOTE_REST, 211 }, 
	{ NOTE_REST, 208 }, 
	{ NOTE_E5, 106 }, 
	{ NOTE_REST, 106 }, 
	{ NOTE_B5, 106 }, 
	{ NOTE_C6, 106 }, 
	{ NOTE_D6, 106 }, 
	{ NOTE_C6, 106 }, 
	{ NOTE_B5, 106 }, 
	{ NOTE_AS5, 106 }, 
	{ NOTE_G5, 211 }, 
	{ NOTE_REST, 211 }, 
	{ NOTE_B5, 420 }, 
	{ NOTE_REST, 1690 }, 
	{ NOTE_REST, 1690 }, 
	{ NOTE_REST, 1690 }, 
	{ NOTE_REST, 1690 }, 
	{ NOTE_E5, 845 }, 
	{ NOTE_C6, 1268 }, 
	{ NOTE_B5, 423 }, 
	{ NOTE_A5, 211 }, 
	{ NOTE_G5, 211 }, 
	{ NOTE_F5, 422 }, 
	{ NOTE_E5, 106 }, 
	{ NOTE_F5, 106 }, 
	{ NOTE_E5, 106 }, 
	{ NOTE_D5, 106 }, 
	{ NOTE_E5, 1266 }, 
	{ NOTE_REST, 282 }, 
	{ NOTE_B4, 282 }, 
	{ NOTE_C5, 282 }, 
	{ NOTE_D5, 282 }, 
	{ NOTE_E5, 282 }, 
	{ NOTE_F5, 280 }, 
	{ NOTE_E5, 845 }, 
	{ NOTE_E6, 1268 }, 
	{ NOTE_D6, 211 }, 
	{ NOTE_E6, 211 }, 
	{ NOTE_D6, 282 }, 
	{ NOTE_C6, 282 }, 
	{ NOTE_B5, 281 }, 
	{ NOTE_E5, 1690 }, 
	{ NOTE_REST, 282 }, 
	{ NOTE_D5, 282 }, 
	{ NOTE_E5, 282 }, 
	{ NOTE_F5, 282 }, 
	{ NOTE_G5, 282 }, 
	{ NOTE_B5, 280 }, 
	{ NOTE_A5, 845 }, 
	{ NOTE_C6, 845 }, 
	{ NOTE_REST, 282 }, 
	{ NOTE_A5, 282 }, 
	{ NOTE_B5, 282 }, 
	{ NOTE_C6, 282 }, 
	{ NOTE_B5, 282 }, 
	{ NOTE_A5, 280 }, 
	{ NOTE_E5, 106 }, 
	{ NOTE_F5, 106 }, 
	{ NOTE_E5, 106 }, 
	{ NOTE_D5, 106 }, 
	{ NOTE_E5, 1266 }, 
	{ NOTE_REST, 1690 }, 
	{ NOTE_E5, 106 }, 
	{ NOTE_F5, 106 }, 
	{ NOTE_E5, 106 }, 
	{ NOTE_D5, 106 }, 
	{ NOTE_E5, 423 }, 
	{ NOTE_E6, 843 }, 
	{ NOTE_REST, 282 }, 
	{ NOTE_C6, 282 }, 
	{ NOTE_D6, 282 }, 
	{ NOTE_E6, 282 }, 
	{ NOTE_F6, 282 }, 
	{ NOTE_G6, 280 }, 
	{ NOTE_E6, 106 }, 
	{ NOTE_F6, 106 }, 
	{ NOTE_E6, 106 }, 
	{ NOTE_D6, 106 }, 
	{ NOTE_E6, 1266 }, 
	{ NOTE_REST, 1690 }, 
	{ NOTE_E5, 423 }, 
	{ NOTE_C6, 635 }, 
	{ NOTE_G5, 106 }, 
	{ NOTE_A5, 106 }, 
	{ NOTE_B5, 106 }, 
	{ NOTE_A5, 106 }, 
	{ NOTE_G5, 106 }, 
	{ NOTE_F5, 102 }, 
	{ NOTE_B5, 423 }, 
	{ NOTE_E5, 635 }, 
	{ NOTE_B5, 106 }, 
	{ NOTE_C6, 106 }, 
	{ NOTE_D6, 106 }, 
	{ NOTE_C6, 106 }, 
	{ NOTE_B5, 106 }, 
	{ NOTE_A5, 102 }, 
	{ NOTE_B5, 423 }, 
	{ NOTE_E6, 1056 }, 
	{ NOTE_B5, 106 }, 
	{ NOTE_C6, 105 }, 
	{ NOTE_B5, 1690 }, 
	{ NOTE_REST, 423 }, 
	{ NOTE_A5, 423 }, 
	{ NOTE_D6, 317 }, 
	{ NOTE_C6, 317 }, 
	{ NOTE_D6, 210 }, 
	{ NOTE_C6, 423 }, 
	{ NOTE_G5, 1267 }, 
	{ NOTE_FS5, 423 }, 
	{ NOTE_G5, 423 }, 
	{ NOTE_D6, 317 }, 
	{ NOTE_C6, 317 }, 
	{ NOTE_D6, 210 }, 
	{ NOTE_B5, 106 }, 
	{ NOTE_C6, 106 }, 
	{ NOTE_B5, 106 }, 
	{ NOTE_A5, 106 }, 
	{ NOTE_B5, 1266 }, 
	{ NOTE_E5, 423 }, 
	{ NOTE_C6, 635 }, 
	{ NOTE_G5, 106 }, 
	{ NOTE_A5, 106 }, 
	{ NOTE_B5, 106 }, 
	{ NOTE_A5, 106 }, 
	{ NOTE_G5, 106 }, 
	{ NOTE_F5, 102 }, 
	{ NOTE_B5, 423 }, 
	{ NOTE_E5, 635 }, 
	{ NOTE_B5, 106 }, 
	{ NOTE_C6, 106 }, 
	{ NOTE_D6, 106 }, 
	{ NOTE_C6, 106 }, 
	{ NOTE_B5, 106 }, 
	{ NOTE_A5, 102 }, 
	{ NOTE_B5, 423 }, 
	{ NOTE_E6, 1056 }, 
	{ NOTE_B5, 106 }, 
	{ NOTE_C6, 105 }, 
	{ NOTE_B5, 1690 }, 
	{ NOTE_A5, 106 }, 
	{ NOTE_REST, 106 }, 
	{ NOTE_E6, 106 }, 
	{ NOTE_F6, 106 }, 
	{ NOTE_G6, 106 }, 
	{ NOTE_F6, 106 }, 
	{ NOTE_E6, 106 }, 
	{ NOTE_DS6, 106 }, 
	{ NOTE_E6, 423 }, 
	{ NOTE_REST, 211 }, 
	{ NOTE_REST, 208 }, 
	{ NOTE_E5, 106 }, 
	{ NOTE_REST, 106 }, 
	{ NOTE_B5, 106 }, 
	{ NOTE_C6, 106 }, 
	{ NOTE_D6, 106 }, 
	{ NOTE_C6, 106 }, 
	{ NOTE_B5, 106 }, 
	{ NOTE_AS5, 106 }, 
	{ NOTE_G5, 211 }, 
	{ NOTE_REST, 211 }, 
	{ NOTE_B5, 420 }, 
};
const uint16_t NUM_OF_NOTES4 = sizeof(melody4)/sizeof(melody4[0]);

