/*
 * Song: Street Fighter II - Ryu Stage's Theme 
 *
 *	Melody 0 | Lead guitar
 *	Melody 1 | Lead guitar
 *	Melody 2 | Brass
 *	Melody 3 | Brass
 *	Melody 4 | Bass
*/

#include <Arduino.h>
#include "notes.h"

const Note melody0[] PROGMEM = {
	{ NOTE_REST, 1818 }, 
	{ NOTE_REST, 1818 }, 
	{ NOTE_REST, 1818 }, 
	{ NOTE_REST, 1818 }, 
	{ NOTE_D4, 909 }, 
	{ NOTE_REST, 227 }, 
	{ NOTE_D4, 227 }, 
	{ NOTE_E4, 227 }, 
	{ NOTE_F4, 228 }, 
	{ NOTE_G4, 682 }, 
	{ NOTE_F4, 114 }, 
	{ NOTE_E4, 114 }, 
	{ NOTE_F4, 341 }, 
	{ NOTE_D4, 341 }, 
	{ NOTE_F4, 226 }, 
	{ NOTE_E4, 909 }, 
	{ NOTE_REST, 227 }, 
	{ NOTE_F4, 227 }, 
	{ NOTE_G4, 227 }, 
	{ NOTE_AS3, 228 }, 
	{ NOTE_A3, 455 }, 
	{ NOTE_AS4, 682 }, 
	{ NOTE_A4, 227 }, 
	{ NOTE_G4, 227 }, 
	{ NOTE_F4, 227 }, 
	{ NOTE_E4, 114 }, 
	{ NOTE_D4, 114 }, 
	{ NOTE_REST, 114 }, 
	{ NOTE_D4, 569 }, 
	{ NOTE_REST, 227 }, 
	{ NOTE_D4, 227 }, 
	{ NOTE_E4, 227 }, 
	{ NOTE_F4, 226 }, 
	{ NOTE_A4, 114 }, 
	{ NOTE_G4, 114 }, 
	{ NOTE_REST, 114 }, 
	{ NOTE_G4, 1023 }, 
	{ NOTE_F4, 341 }, 
	{ NOTE_E4, 0 }, 
	{ NOTE_F4, 112 }, 
	{ NOTE_E4, 909 }, 
	{ NOTE_REST, 227 }, 
	{ NOTE_F4, 227 }, 
	{ NOTE_G4, 227 }, 
	{ NOTE_A4, 228 }, 
	{ NOTE_AS4, 341 }, 
	{ NOTE_C5, 114 }, 
	{ NOTE_A4, 455 }, 
	{ NOTE_REST, 227 }, 
	{ NOTE_G4, 455 }, 
	{ NOTE_A4, 226 }, 
	{ NOTE_F4, 909 }, 
	{ NOTE_REST, 227 }, 
	{ NOTE_D4, 227 }, 
	{ NOTE_E4, 114 }, 
	{ NOTE_F4, 341 }, 
	{ NOTE_G4, 909 }, 
	{ NOTE_REST, 227 }, 
	{ NOTE_F4, 227 }, 
	{ NOTE_E4, 114 }, 
	{ NOTE_A3, 341 }, 
	{ NOTE_D4, 341 }, 
	{ NOTE_E4, 341 }, 
	{ NOTE_F4, 341 }, 
	{ NOTE_G4, 341 }, 
	{ NOTE_A4, 454 }, 
	{ NOTE_F4, 909 }, 
	{ NOTE_REST, 227 }, 
	{ NOTE_D4, 227 }, 
	{ NOTE_E4, 114 }, 
	{ NOTE_F4, 341 }, 
	{ NOTE_G4, 909 }, 
	{ NOTE_REST, 227 }, 
	{ NOTE_E4, 227 }, 
	{ NOTE_F4, 114 }, 
	{ NOTE_G4, 455 }, 
	{ NOTE_A4, 341 }, 
	{ NOTE_G4, 114 }, 
	{ NOTE_F4, 341 }, 
	{ NOTE_E4, 227 }, 
	{ NOTE_F4, 114 }, 
	{ NOTE_E4, 227 }, 
	{ NOTE_D4, 227 }, 
	{ NOTE_E4, 0 }, 
	{ NOTE_D4, 113 }, 
	{ NOTE_CS4, 909 }, 
	{ NOTE_REST, 909 }, 
	{ NOTE_REST, 455 }, 
	{ NOTE_A3, 455 }, 
	{ NOTE_E4, 227 }, 
	{ NOTE_F4, 114 }, 
	{ NOTE_G4, 227 }, 
	{ NOTE_A4, 227 }, 
	{ NOTE_F4, 568 }, 
	{ NOTE_A3, 455 }, 
	{ NOTE_E4, 227 }, 
	{ NOTE_F4, 114 }, 
	{ NOTE_G4, 227 }, 
	{ NOTE_A4, 227 }, 
	{ NOTE_F4, 340 }, 
	{ NOTE_E4, 114 }, 
	{ NOTE_D4, 796 }, 
	{ NOTE_D4, 227 }, 
	{ NOTE_E4, 227 }, 
	{ NOTE_F4, 227 }, 
	{ NOTE_G4, 114 }, 
	{ NOTE_E4, 114 }, 
	{ NOTE_AS3, 114 }, 
	{ NOTE_A3, 1476 }, 
	{ NOTE_REST, 455 }, 
	{ NOTE_A3, 455 }, 
	{ NOTE_E4, 227 }, 
	{ NOTE_F4, 114 }, 
	{ NOTE_G4, 227 }, 
	{ NOTE_A4, 227 }, 
	{ NOTE_F4, 568 }, 
	{ NOTE_A3, 455 }, 
	{ NOTE_E4, 227 }, 
	{ NOTE_F4, 114 }, 
	{ NOTE_G4, 114 }, 
	{ NOTE_REST, 114 }, 
	{ NOTE_A4, 227 }, 
	{ NOTE_G4, 226 }, 
	{ NOTE_F4, 114 }, 
	{ NOTE_E4, 114 }, 
	{ NOTE_D4, 796 }, 
	{ NOTE_E4, 227 }, 
	{ NOTE_F4, 227 }, 
	{ NOTE_AS3, 226 }, 
	{ NOTE_A3, 455 }, 
	{ NOTE_G4, 682 }, 
	{ NOTE_G4, 227 }, 
	{ NOTE_F4, 227 }, 
	{ NOTE_CS4, 227 }, 
	{ NOTE_E4, 114 }, 
	{ NOTE_D4, 227 }, 
	{ NOTE_D4, 2841 }, 
	{ NOTE_REST, 454 }, 
	{ NOTE_REST, 1818 }, 
	{ NOTE_REST, 1818 }, 
	{ NOTE_REST, 1818 }, 
};
const uint16_t NUM_OF_NOTES0 = sizeof(melody0)/sizeof(melody0[0]);

const Note melody1[] PROGMEM = {
	{ NOTE_REST, 1818 }, 
	{ NOTE_REST, 1818 }, 
	{ NOTE_REST, 1818 }, 
	{ NOTE_REST, 1818 }, 
	{ NOTE_D5, 909 }, 
	{ NOTE_REST, 227 }, 
	{ NOTE_D5, 227 }, 
	{ NOTE_E5, 227 }, 
	{ NOTE_F5, 228 }, 
	{ NOTE_G5, 682 }, 
	{ NOTE_F5, 114 }, 
	{ NOTE_E5, 114 }, 
	{ NOTE_F5, 341 }, 
	{ NOTE_D5, 341 }, 
	{ NOTE_F5, 226 }, 
	{ NOTE_E5, 909 }, 
	{ NOTE_REST, 227 }, 
	{ NOTE_F5, 227 }, 
	{ NOTE_G5, 227 }, 
	{ NOTE_AS4, 228 }, 
	{ NOTE_A4, 455 }, 
	{ NOTE_AS5, 682 }, 
	{ NOTE_A5, 227 }, 
	{ NOTE_G5, 227 }, 
	{ NOTE_F5, 227 }, 
	{ NOTE_E5, 114 }, 
	{ NOTE_D5, 114 }, 
	{ NOTE_REST, 114 }, 
	{ NOTE_D5, 569 }, 
	{ NOTE_REST, 227 }, 
	{ NOTE_D5, 227 }, 
	{ NOTE_E5, 227 }, 
	{ NOTE_F5, 226 }, 
	{ NOTE_A5, 114 }, 
	{ NOTE_G5, 114 }, 
	{ NOTE_REST, 114 }, 
	{ NOTE_G5, 1023 }, 
	{ NOTE_F5, 341 }, 
	{ NOTE_E5, 0 }, 
	{ NOTE_F5, 112 }, 
	{ NOTE_E5, 909 }, 
	{ NOTE_REST, 227 }, 
	{ NOTE_F5, 227 }, 
	{ NOTE_G5, 227 }, 
	{ NOTE_A5, 228 }, 
	{ NOTE_AS5, 341 }, 
	{ NOTE_C6, 114 }, 
	{ NOTE_A5, 455 }, 
	{ NOTE_REST, 227 }, 
	{ NOTE_G5, 455 }, 
	{ NOTE_A5, 226 }, 
	{ NOTE_F5, 909 }, 
	{ NOTE_REST, 227 }, 
	{ NOTE_D5, 227 }, 
	{ NOTE_E5, 114 }, 
	{ NOTE_F5, 341 }, 
	{ NOTE_G5, 909 }, 
	{ NOTE_REST, 227 }, 
	{ NOTE_F5, 227 }, 
	{ NOTE_E5, 114 }, 
	{ NOTE_A4, 341 }, 
	{ NOTE_D5, 341 }, 
	{ NOTE_E5, 341 }, 
	{ NOTE_F5, 341 }, 
	{ NOTE_G5, 341 }, 
	{ NOTE_A5, 454 }, 
	{ NOTE_F5, 909 }, 
	{ NOTE_REST, 227 }, 
	{ NOTE_D5, 227 }, 
	{ NOTE_E5, 114 }, 
	{ NOTE_F5, 341 }, 
	{ NOTE_G5, 909 }, 
	{ NOTE_REST, 227 }, 
	{ NOTE_E5, 227 }, 
	{ NOTE_F5, 114 }, 
	{ NOTE_G5, 455 }, 
	{ NOTE_A5, 341 }, 
	{ NOTE_G5, 114 }, 
	{ NOTE_F5, 341 }, 
	{ NOTE_E5, 227 }, 
	{ NOTE_F5, 114 }, 
	{ NOTE_E5, 227 }, 
	{ NOTE_D5, 227 }, 
	{ NOTE_E5, 0 }, 
	{ NOTE_D5, 113 }, 
	{ NOTE_CS5, 909 }, 
	{ NOTE_REST, 909 }, 
	{ NOTE_REST, 455 }, 
	{ NOTE_A4, 455 }, 
	{ NOTE_E5, 227 }, 
	{ NOTE_F5, 114 }, 
	{ NOTE_G5, 227 }, 
	{ NOTE_A5, 227 }, 
	{ NOTE_F5, 568 }, 
	{ NOTE_A4, 455 }, 
	{ NOTE_E5, 227 }, 
	{ NOTE_F5, 114 }, 
	{ NOTE_G5, 227 }, 
	{ NOTE_A5, 227 }, 
	{ NOTE_F5, 340 }, 
	{ NOTE_E5, 114 }, 
	{ NOTE_D5, 796 }, 
	{ NOTE_D5, 227 }, 
	{ NOTE_E5, 227 }, 
	{ NOTE_F5, 227 }, 
	{ NOTE_G5, 114 }, 
	{ NOTE_E5, 114 }, 
	{ NOTE_AS4, 114 }, 
	{ NOTE_A4, 1476 }, 
	{ NOTE_REST, 455 }, 
	{ NOTE_A4, 455 }, 
	{ NOTE_E5, 227 }, 
	{ NOTE_F5, 114 }, 
	{ NOTE_G5, 227 }, 
	{ NOTE_A5, 227 }, 
	{ NOTE_F5, 568 }, 
	{ NOTE_A4, 455 }, 
	{ NOTE_E5, 227 }, 
	{ NOTE_F5, 114 }, 
	{ NOTE_G5, 114 }, 
	{ NOTE_REST, 114 }, 
	{ NOTE_A5, 227 }, 
	{ NOTE_G5, 226 }, 
	{ NOTE_F5, 114 }, 
	{ NOTE_E5, 114 }, 
	{ NOTE_D5, 796 }, 
	{ NOTE_E5, 227 }, 
	{ NOTE_F5, 227 }, 
	{ NOTE_AS4, 226 }, 
	{ NOTE_A4, 455 }, 
	{ NOTE_G5, 682 }, 
	{ NOTE_G5, 227 }, 
	{ NOTE_F5, 227 }, 
	{ NOTE_CS5, 227 }, 
	{ NOTE_E5, 114 }, 
	{ NOTE_D5, 227 }, 
	{ NOTE_D5, 2841 }, 
	{ NOTE_REST, 454 }, 
	{ NOTE_REST, 1818 }, 
	{ NOTE_REST, 1818 }, 
	{ NOTE_REST, 1818 }, 
};
const uint16_t NUM_OF_NOTES1 = sizeof(melody1)/sizeof(melody1[0]);

const Note melody2[] PROGMEM = {
	{ NOTE_REST, 1818 }, 
	{ NOTE_REST, 1818 }, 
	{ NOTE_A4, 114 }, 
	{ NOTE_A4, 114 }, 
	{ NOTE_REST, 682 }, 
	{ NOTE_A4, 114 }, 
	{ NOTE_A4, 114 }, 
	{ NOTE_REST, 680 }, 
	{ NOTE_A4, 114 }, 
	{ NOTE_A4, 114 }, 
	{ NOTE_REST, 909 }, 
	{ NOTE_G4, 455 }, 
	{ NOTE_A4, 226 }, 
	{ NOTE_REST, 455 }, 
	{ NOTE_D5, 455 }, 
	{ NOTE_REST, 908 }, 
	{ NOTE_REST, 455 }, 
	{ NOTE_D5, 114 }, 
	{ NOTE_C5, 114 }, 
	{ NOTE_D5, 114 }, 
	{ NOTE_F5, 114 }, 
	{ NOTE_F6, 227 }, 
	{ NOTE_D5, 227 }, 
	{ NOTE_C5, 114 }, 
	{ NOTE_D5, 339 }, 
	{ NOTE_REST, 1818 }, 
	{ NOTE_A4, 909 }, 
	{ NOTE_G4, 455 }, 
	{ NOTE_A4, 454 }, 
	{ NOTE_D4, 1818 }, 
	{ NOTE_REST, 227 }, 
	{ NOTE_D5, 114 }, 
	{ NOTE_D5, 114 }, 
	{ NOTE_C5, 114 }, 
	{ NOTE_D5, 114 }, 
	{ NOTE_REST, 227 }, 
	{ NOTE_D5, 114 }, 
	{ NOTE_D5, 114 }, 
	{ NOTE_C5, 114 }, 
	{ NOTE_D5, 114 }, 
	{ NOTE_REST, 452 }, 
	{ NOTE_A4, 1818 }, 
	{ NOTE_A4, 227 }, 
	{ NOTE_REST, 227 }, 
	{ NOTE_CS5, 1364 }, 
	{ NOTE_D4, 682 }, 
	{ NOTE_D5, 1136 }, 
	{ NOTE_C4, 682 }, 
	{ NOTE_G4, 682 }, 
	{ NOTE_E4, 454 }, 
	{ NOTE_D4, 341 }, 
	{ NOTE_E4, 341 }, 
	{ NOTE_F4, 341 }, 
	{ NOTE_G4, 341 }, 
	{ NOTE_A4, 454 }, 
	{ NOTE_D5, 3636 }, 
	{ NOTE_REST, 227 }, 
	{ NOTE_A4, 114 }, 
	{ NOTE_A4, 114 }, 
	{ NOTE_A4, 114 }, 
	{ NOTE_A4, 227 }, 
	{ NOTE_C5, 341 }, 
	{ NOTE_A4, 114 }, 
	{ NOTE_G4, 114 }, 
	{ NOTE_A4, 114 }, 
	{ NOTE_G4, 114 }, 
	{ NOTE_D4, 114 }, 
	{ NOTE_E4, 111 }, 
	{ NOTE_A5, 114 }, 
	{ NOTE_A5, 114 }, 
	{ NOTE_A5, 114 }, 
	{ NOTE_AS5, 114 }, 
	{ NOTE_REST, 114 }, 
	{ NOTE_C5, 114 }, 
	{ NOTE_REST, 114 }, 
	{ NOTE_A4, 114 }, 
	{ NOTE_REST, 906 }, 
	{ NOTE_REST, 455 }, 
	{ NOTE_D5, 455 }, 
	{ NOTE_REST, 908 }, 
	{ NOTE_REST, 455 }, 
	{ NOTE_D5, 114 }, 
	{ NOTE_C5, 114 }, 
	{ NOTE_D5, 114 }, 
	{ NOTE_F5, 114 }, 
	{ NOTE_F6, 227 }, 
	{ NOTE_D5, 227 }, 
	{ NOTE_C5, 114 }, 
	{ NOTE_D5, 339 }, 
	{ NOTE_REST, 1818 }, 
	{ NOTE_REST, 455 }, 
	{ NOTE_AS4, 455 }, 
	{ NOTE_A4, 908 }, 
	{ NOTE_REST, 455 }, 
	{ NOTE_D5, 455 }, 
	{ NOTE_REST, 908 }, 
	{ NOTE_REST, 455 }, 
	{ NOTE_D5, 114 }, 
	{ NOTE_C5, 114 }, 
	{ NOTE_D5, 114 }, 
	{ NOTE_F5, 114 }, 
	{ NOTE_F6, 227 }, 
	{ NOTE_D5, 227 }, 
	{ NOTE_C5, 114 }, 
	{ NOTE_D5, 339 }, 
	{ NOTE_REST, 1818 }, 
	{ NOTE_REST, 455 }, 
	{ NOTE_AS4, 455 }, 
	{ NOTE_A4, 908 }, 
	{ NOTE_A4, 3182 }, 
	{ NOTE_REST, 454 }, 
	{ NOTE_G4, 114 }, 
	{ NOTE_GS4, 114 }, 
	{ NOTE_A4, 114 }, 
	{ NOTE_C5, 227 }, 
	{ NOTE_A4, 114 }, 
	{ NOTE_C5, 227 }, 
	{ NOTE_C5, 114 }, 
	{ NOTE_C5, 2158 }, 
	{ NOTE_A4, 454 }, 
	{ NOTE_C5, 455 }, 
	{ NOTE_D5, 455 }, 
	{ NOTE_C5, 57 }, 
	{ NOTE_AS4, 57 }, 
	{ NOTE_A4, 57 }, 
	{ NOTE_G4, 57 }, 
	{ NOTE_F4, 57 }, 
	{ NOTE_E4, 57 }, 
	{ NOTE_D4, 57 }, 
	{ NOTE_C4, 57 }, 
	{ NOTE_AS3, 57 }, 
	{ NOTE_A3, 57 }, 
	{ NOTE_G3, 57 }, 
	{ NOTE_FS3, 57 }, 
	{ NOTE_F3, 57 }, 
	{ NOTE_E3, 57 }, 
	{ NOTE_DS3, 57 }, 
	{ NOTE_D3, 53 }, 
};
const uint16_t NUM_OF_NOTES2 = sizeof(melody2)/sizeof(melody2[0]);

const Note melody3[] PROGMEM = {
	{ NOTE_REST, 1818 }, 
	{ NOTE_REST, 1818 }, 
	{ NOTE_D5, 114 }, 
	{ NOTE_D5, 114 }, 
	{ NOTE_REST, 682 }, 
	{ NOTE_D5, 114 }, 
	{ NOTE_D5, 114 }, 
	{ NOTE_REST, 680 }, 
	{ NOTE_D5, 114 }, 
	{ NOTE_D5, 114 }, 
	{ NOTE_REST, 909 }, 
	{ NOTE_C5, 455 }, 
	{ NOTE_D5, 226 }, 
	{ NOTE_REST, 455 }, 
	{ NOTE_D6, 455 }, 
	{ NOTE_REST, 908 }, 
	{ NOTE_REST, 455 }, 
	{ NOTE_D6, 114 }, 
	{ NOTE_C6, 114 }, 
	{ NOTE_D6, 114 }, 
	{ NOTE_E6, 114 }, 
	{ NOTE_F6, 227 }, 
	{ NOTE_D6, 227 }, 
	{ NOTE_C6, 114 }, 
	{ NOTE_D6, 339 }, 
	{ NOTE_REST, 1818 }, 
	{ NOTE_F5, 909 }, 
	{ NOTE_E5, 455 }, 
	{ NOTE_G5, 454 }, 
	{ NOTE_F5, 1818 }, 
	{ NOTE_REST, 227 }, 
	{ NOTE_D6, 114 }, 
	{ NOTE_D6, 114 }, 
	{ NOTE_C6, 114 }, 
	{ NOTE_D6, 114 }, 
	{ NOTE_REST, 227 }, 
	{ NOTE_D6, 114 }, 
	{ NOTE_D6, 114 }, 
	{ NOTE_C6, 114 }, 
	{ NOTE_D6, 114 }, 
	{ NOTE_REST, 452 }, 
	{ NOTE_E5, 1818 }, 
	{ NOTE_CS5, 227 }, 
	{ NOTE_REST, 227 }, 
	{ NOTE_G5, 1364 }, 
	{ NOTE_A4, 682 }, 
	{ NOTE_D5, 1136 }, 
	{ NOTE_C5, 682 }, 
	{ NOTE_G4, 682 }, 
	{ NOTE_C5, 454 }, 
	{ NOTE_D5, 341 }, 
	{ NOTE_E5, 341 }, 
	{ NOTE_F5, 341 }, 
	{ NOTE_G5, 341 }, 
	{ NOTE_A5, 454 }, 
	{ NOTE_D6, 3636 }, 
	{ NOTE_REST, 227 }, 
	{ NOTE_A5, 114 }, 
	{ NOTE_A5, 114 }, 
	{ NOTE_G5, 114 }, 
	{ NOTE_A5, 227 }, 
	{ NOTE_C6, 341 }, 
	{ NOTE_A5, 114 }, 
	{ NOTE_G5, 114 }, 
	{ NOTE_A5, 114 }, 
	{ NOTE_G5, 114 }, 
	{ NOTE_D5, 114 }, 
	{ NOTE_E5, 111 }, 
	{ NOTE_A5, 114 }, 
	{ NOTE_A5, 114 }, 
	{ NOTE_A5, 114 }, 
	{ NOTE_AS5, 114 }, 
	{ NOTE_REST, 114 }, 
	{ NOTE_C6, 114 }, 
	{ NOTE_REST, 114 }, 
	{ NOTE_A5, 114 }, 
	{ NOTE_REST, 906 }, 
	{ NOTE_REST, 455 }, 
	{ NOTE_D6, 455 }, 
	{ NOTE_REST, 908 }, 
	{ NOTE_REST, 455 }, 
	{ NOTE_D6, 114 }, 
	{ NOTE_C6, 114 }, 
	{ NOTE_D6, 114 }, 
	{ NOTE_E6, 114 }, 
	{ NOTE_F6, 227 }, 
	{ NOTE_D6, 227 }, 
	{ NOTE_C6, 114 }, 
	{ NOTE_D6, 339 }, 
	{ NOTE_REST, 1818 }, 
	{ NOTE_REST, 455 }, 
	{ NOTE_D5, 455 }, 
	{ NOTE_CS5, 908 }, 
	{ NOTE_REST, 455 }, 
	{ NOTE_D6, 455 }, 
	{ NOTE_REST, 908 }, 
	{ NOTE_REST, 455 }, 
	{ NOTE_D6, 114 }, 
	{ NOTE_C6, 114 }, 
	{ NOTE_D6, 114 }, 
	{ NOTE_E6, 114 }, 
	{ NOTE_F6, 227 }, 
	{ NOTE_D6, 227 }, 
	{ NOTE_C6, 114 }, 
	{ NOTE_D6, 339 }, 
	{ NOTE_REST, 1818 }, 
	{ NOTE_REST, 455 }, 
	{ NOTE_D5, 455 }, 
	{ NOTE_CS5, 908 }, 
	{ NOTE_D5, 3182 }, 
	{ NOTE_REST, 454 }, 
	{ NOTE_C5, 114 }, 
	{ NOTE_CS5, 114 }, 
	{ NOTE_D5, 114 }, 
	{ NOTE_F5, 227 }, 
	{ NOTE_D5, 114 }, 
	{ NOTE_G5, 227 }, 
	{ NOTE_G5, 114 }, 
	{ NOTE_F5, 2158 }, 
	{ NOTE_C5, 454 }, 
	{ NOTE_E5, 455 }, 
	{ NOTE_D6, 455 }, 
	{ NOTE_C6, 57 }, 
	{ NOTE_AS5, 57 }, 
	{ NOTE_A5, 57 }, 
	{ NOTE_G5, 57 }, 
	{ NOTE_F5, 57 }, 
	{ NOTE_E5, 57 }, 
	{ NOTE_D5, 57 }, 
	{ NOTE_C5, 57 }, 
	{ NOTE_AS4, 57 }, 
	{ NOTE_A4, 57 }, 
	{ NOTE_G4, 57 }, 
	{ NOTE_FS4, 57 }, 
	{ NOTE_F4, 57 }, 
	{ NOTE_E4, 57 }, 
	{ NOTE_DS4, 57 }, 
	{ NOTE_D4, 53 }, 
};
const uint16_t NUM_OF_NOTES3 = sizeof(melody3)/sizeof(melody3[0]);

const Note melody4[] PROGMEM = {
	{ NOTE_D3, 227 }, 
	{ NOTE_REST, 114 }, 
	{ NOTE_C3, 114 }, 
	{ NOTE_D3, 114 }, 
	{ NOTE_C3, 114 }, 
	{ NOTE_D3, 114 }, 
	{ NOTE_C3, 114 }, 
	{ NOTE_D3, 114 }, 
	{ NOTE_F3, 114 }, 
	{ NOTE_REST, 114 }, 
	{ NOTE_E3, 114 }, 
	{ NOTE_REST, 114 }, 
	{ NOTE_C3, 114 }, 
	{ NOTE_G2, 114 }, 
	{ NOTE_A2, 109 }, 
	{ NOTE_D3, 227 }, 
	{ NOTE_REST, 114 }, 
	{ NOTE_C3, 114 }, 
	{ NOTE_D3, 114 }, 
	{ NOTE_C3, 114 }, 
	{ NOTE_D3, 114 }, 
	{ NOTE_C3, 114 }, 
	{ NOTE_D3, 114 }, 
	{ NOTE_F3, 114 }, 
	{ NOTE_REST, 114 }, 
	{ NOTE_G3, 114 }, 
	{ NOTE_REST, 114 }, 
	{ NOTE_GS3, 114 }, 
	{ NOTE_REST, 114 }, 
	{ NOTE_A3, 109 }, 
	{ NOTE_D3, 227 }, 
	{ NOTE_REST, 114 }, 
	{ NOTE_C3, 114 }, 
	{ NOTE_D3, 114 }, 
	{ NOTE_C3, 114 }, 
	{ NOTE_D3, 114 }, 
	{ NOTE_C3, 114 }, 
	{ NOTE_D3, 114 }, 
	{ NOTE_F3, 114 }, 
	{ NOTE_REST, 114 }, 
	{ NOTE_E3, 114 }, 
	{ NOTE_REST, 114 }, 
	{ NOTE_C3, 114 }, 
	{ NOTE_G2, 114 }, 
	{ NOTE_A2, 109 }, 
	{ NOTE_D3, 227 }, 
	{ NOTE_REST, 114 }, 
	{ NOTE_C3, 114 }, 
	{ NOTE_D3, 114 }, 
	{ NOTE_C3, 114 }, 
	{ NOTE_D3, 114 }, 
	{ NOTE_C3, 114 }, 
	{ NOTE_D3, 114 }, 
	{ NOTE_F3, 114 }, 
	{ NOTE_REST, 114 }, 
	{ NOTE_G3, 114 }, 
	{ NOTE_REST, 114 }, 
	{ NOTE_GS3, 114 }, 
	{ NOTE_REST, 114 }, 
	{ NOTE_A3, 109 }, 
	{ NOTE_D3, 227 }, 
	{ NOTE_REST, 114 }, 
	{ NOTE_C3, 114 }, 
	{ NOTE_D3, 114 }, 
	{ NOTE_C3, 114 }, 
	{ NOTE_D3, 114 }, 
	{ NOTE_C3, 114 }, 
	{ NOTE_D3, 114 }, 
	{ NOTE_F3, 114 }, 
	{ NOTE_REST, 114 }, 
	{ NOTE_E3, 114 }, 
	{ NOTE_REST, 114 }, 
	{ NOTE_C3, 114 }, 
	{ NOTE_G2, 114 }, 
	{ NOTE_A2, 109 }, 
	{ NOTE_AS2, 227 }, 
	{ NOTE_REST, 114 }, 
	{ NOTE_A2, 114 }, 
	{ NOTE_AS2, 114 }, 
	{ NOTE_A2, 114 }, 
	{ NOTE_AS2, 114 }, 
	{ NOTE_A2, 114 }, 
	{ NOTE_AS2, 114 }, 
	{ NOTE_C3, 114 }, 
	{ NOTE_REST, 114 }, 
	{ NOTE_D3, 114 }, 
	{ NOTE_REST, 114 }, 
	{ NOTE_E3, 114 }, 
	{ NOTE_REST, 114 }, 
	{ NOTE_F3, 109 }, 
	{ NOTE_C3, 227 }, 
	{ NOTE_REST, 114 }, 
	{ NOTE_B2, 114 }, 
	{ NOTE_C3, 114 }, 
	{ NOTE_B2, 114 }, 
	{ NOTE_C3, 114 }, 
	{ NOTE_B2, 114 }, 
	{ NOTE_C3, 114 }, 
	{ NOTE_E3, 114 }, 
	{ NOTE_REST, 114 }, 
	{ NOTE_F3, 114 }, 
	{ NOTE_REST, 114 }, 
	{ NOTE_G3, 114 }, 
	{ NOTE_AS2, 114 }, 
	{ NOTE_C3, 109 }, 
	{ NOTE_F3, 227 }, 
	{ NOTE_REST, 114 }, 
	{ NOTE_E3, 114 }, 
	{ NOTE_F3, 114 }, 
	{ NOTE_E3, 114 }, 
	{ NOTE_F3, 114 }, 
	{ NOTE_E3, 114 }, 
	{ NOTE_F2, 114 }, 
	{ NOTE_C3, 114 }, 
	{ NOTE_REST, 114 }, 
	{ NOTE_F3, 114 }, 
	{ NOTE_REST, 114 }, 
	{ NOTE_E3, 114 }, 
	{ NOTE_D3, 114 }, 
	{ NOTE_A2, 109 }, 
	{ NOTE_AS2, 227 }, 
	{ NOTE_REST, 114 }, 
	{ NOTE_A2, 114 }, 
	{ NOTE_AS2, 114 }, 
	{ NOTE_A2, 114 }, 
	{ NOTE_AS2, 114 }, 
	{ NOTE_A2, 114 }, 
	{ NOTE_AS2, 114 }, 
	{ NOTE_C3, 114 }, 
	{ NOTE_REST, 114 }, 
	{ NOTE_D3, 114 }, 
	{ NOTE_REST, 114 }, 
	{ NOTE_F3, 114 }, 
	{ NOTE_A2, 114 }, 
	{ NOTE_AS2, 109 }, 
	{ NOTE_G2, 227 }, 
	{ NOTE_REST, 114 }, 
	{ NOTE_F2, 114 }, 
	{ NOTE_G2, 114 }, 
	{ NOTE_F2, 114 }, 
	{ NOTE_G2, 114 }, 
	{ NOTE_F2, 114 }, 
	{ NOTE_G2, 114 }, 
	{ NOTE_A2, 114 }, 
	{ NOTE_REST, 114 }, 
	{ NOTE_AS2, 114 }, 
	{ NOTE_REST, 114 }, 
	{ NOTE_C3, 114 }, 
	{ NOTE_REST, 114 }, 
	{ NOTE_D3, 109 }, 
	{ NOTE_A2, 227 }, 
	{ NOTE_REST, 114 }, 
	{ NOTE_G2, 114 }, 
	{ NOTE_A2, 114 }, 
	{ NOTE_G2, 114 }, 
	{ NOTE_A2, 114 }, 
	{ NOTE_G2, 114 }, 
	{ NOTE_A2, 114 }, 
	{ NOTE_CS3, 114 }, 
	{ NOTE_REST, 114 }, 
	{ NOTE_D3, 114 }, 
	{ NOTE_REST, 114 }, 
	{ NOTE_DS3, 114 }, 
	{ NOTE_E3, 114 }, 
	{ NOTE_G2, 109 }, 
	{ NOTE_A2, 455 }, 
	{ NOTE_A3, 909 }, 
	{ NOTE_A2, 454 }, 
	{ NOTE_AS2, 227 }, 
	{ NOTE_REST, 114 }, 
	{ NOTE_A2, 114 }, 
	{ NOTE_AS2, 114 }, 
	{ NOTE_A2, 114 }, 
	{ NOTE_AS2, 114 }, 
	{ NOTE_A2, 114 }, 
	{ NOTE_AS2, 114 }, 
	{ NOTE_C3, 114 }, 
	{ NOTE_REST, 114 }, 
	{ NOTE_D3, 114 }, 
	{ NOTE_REST, 114 }, 
	{ NOTE_F3, 114 }, 
	{ NOTE_G2, 114 }, 
	{ NOTE_GS2, 109 }, 
	{ NOTE_A2, 227 }, 
	{ NOTE_REST, 114 }, 
	{ NOTE_G2, 114 }, 
	{ NOTE_A2, 114 }, 
	{ NOTE_G2, 114 }, 
	{ NOTE_A2, 114 }, 
	{ NOTE_G2, 114 }, 
	{ NOTE_A2, 114 }, 
	{ NOTE_REST, 114 }, 
	{ NOTE_CS3, 114 }, 
	{ NOTE_D3, 114 }, 
	{ NOTE_REST, 114 }, 
	{ NOTE_DS3, 114 }, 
	{ NOTE_REST, 114 }, 
	{ NOTE_E3, 109 }, 
	{ NOTE_D3, 341 }, 
	{ NOTE_D4, 341 }, 
	{ NOTE_CS4, 341 }, 
	{ NOTE_C3, 341 }, 
	{ NOTE_B2, 454 }, 
	{ NOTE_AS2, 227 }, 
	{ NOTE_REST, 114 }, 
	{ NOTE_A2, 114 }, 
	{ NOTE_AS2, 114 }, 
	{ NOTE_A2, 114 }, 
	{ NOTE_AS2, 114 }, 
	{ NOTE_A2, 114 }, 
	{ NOTE_AS2, 114 }, 
	{ NOTE_C3, 114 }, 
	{ NOTE_REST, 114 }, 
	{ NOTE_D3, 114 }, 
	{ NOTE_REST, 114 }, 
	{ NOTE_F3, 114 }, 
	{ NOTE_A2, 114 }, 
	{ NOTE_AS2, 109 }, 
	{ NOTE_G2, 227 }, 
	{ NOTE_REST, 114 }, 
	{ NOTE_F2, 114 }, 
	{ NOTE_G2, 114 }, 
	{ NOTE_F2, 114 }, 
	{ NOTE_G2, 114 }, 
	{ NOTE_F2, 114 }, 
	{ NOTE_G2, 114 }, 
	{ NOTE_A2, 114 }, 
	{ NOTE_REST, 114 }, 
	{ NOTE_AS2, 114 }, 
	{ NOTE_REST, 114 }, 
	{ NOTE_C3, 114 }, 
	{ NOTE_REST, 114 }, 
	{ NOTE_D3, 109 }, 
	{ NOTE_A2, 227 }, 
	{ NOTE_A2, 114 }, 
	{ NOTE_A2, 114 }, 
	{ NOTE_A2, 227 }, 
	{ NOTE_A2, 114 }, 
	{ NOTE_A2, 114 }, 
	{ NOTE_A2, 227 }, 
	{ NOTE_A2, 114 }, 
	{ NOTE_A2, 114 }, 
	{ NOTE_A2, 227 }, 
	{ NOTE_A2, 114 }, 
	{ NOTE_A2, 112 }, 
	{ NOTE_A2, 227 }, 
	{ NOTE_A2, 114 }, 
	{ NOTE_A2, 114 }, 
	{ NOTE_A2, 114 }, 
	{ NOTE_A2, 114 }, 
	{ NOTE_A2, 114 }, 
	{ NOTE_A2, 114 }, 
	{ NOTE_REST, 114 }, 
	{ NOTE_A2, 114 }, 
	{ NOTE_E2, 227 }, 
	{ NOTE_D3, 227 }, 
	{ NOTE_E2, 225 }, 
	{ NOTE_D3, 227 }, 
	{ NOTE_REST, 114 }, 
	{ NOTE_C3, 114 }, 
	{ NOTE_D3, 114 }, 
	{ NOTE_C3, 114 }, 
	{ NOTE_D3, 114 }, 
	{ NOTE_C3, 114 }, 
	{ NOTE_D3, 114 }, 
	{ NOTE_F3, 114 }, 
	{ NOTE_REST, 114 }, 
	{ NOTE_E3, 114 }, 
	{ NOTE_REST, 114 }, 
	{ NOTE_C3, 114 }, 
	{ NOTE_G2, 114 }, 
	{ NOTE_A2, 109 }, 
	{ NOTE_CS3, 227 }, 
	{ NOTE_REST, 114 }, 
	{ NOTE_C3, 114 }, 
	{ NOTE_CS3, 114 }, 
	{ NOTE_C3, 114 }, 
	{ NOTE_CS3, 114 }, 
	{ NOTE_C3, 114 }, 
	{ NOTE_CS3, 114 }, 
	{ NOTE_E3, 114 }, 
	{ NOTE_REST, 114 }, 
	{ NOTE_D3, 114 }, 
	{ NOTE_REST, 114 }, 
	{ NOTE_G2, 114 }, 
	{ NOTE_GS2, 114 }, 
	{ NOTE_A2, 109 }, 
	{ NOTE_C3, 227 }, 
	{ NOTE_REST, 114 }, 
	{ NOTE_B2, 114 }, 
	{ NOTE_C3, 114 }, 
	{ NOTE_B2, 114 }, 
	{ NOTE_C3, 114 }, 
	{ NOTE_B2, 114 }, 
	{ NOTE_C3, 114 }, 
	{ NOTE_E3, 114 }, 
	{ NOTE_REST, 114 }, 
	{ NOTE_D3, 114 }, 
	{ NOTE_REST, 114 }, 
	{ NOTE_G2, 114 }, 
	{ NOTE_GS2, 114 }, 
	{ NOTE_A2, 109 }, 
	{ NOTE_AS2, 227 }, 
	{ NOTE_REST, 114 }, 
	{ NOTE_A2, 114 }, 
	{ NOTE_AS2, 114 }, 
	{ NOTE_A2, 114 }, 
	{ NOTE_AS2, 114 }, 
	{ NOTE_A2, 114 }, 
	{ NOTE_A2, 114 }, 
	{ NOTE_CS3, 114 }, 
	{ NOTE_REST, 114 }, 
	{ NOTE_D3, 114 }, 
	{ NOTE_REST, 114 }, 
	{ NOTE_DS3, 114 }, 
	{ NOTE_REST, 114 }, 
	{ NOTE_E3, 109 }, 
	{ NOTE_D3, 227 }, 
	{ NOTE_REST, 114 }, 
	{ NOTE_C3, 114 }, 
	{ NOTE_D3, 114 }, 
	{ NOTE_C3, 114 }, 
	{ NOTE_D3, 114 }, 
	{ NOTE_C3, 114 }, 
	{ NOTE_D3, 114 }, 
	{ NOTE_F3, 114 }, 
	{ NOTE_REST, 114 }, 
	{ NOTE_E3, 114 }, 
	{ NOTE_REST, 114 }, 
	{ NOTE_C3, 114 }, 
	{ NOTE_G2, 114 }, 
	{ NOTE_A2, 109 }, 
	{ NOTE_CS3, 227 }, 
	{ NOTE_REST, 114 }, 
	{ NOTE_C3, 114 }, 
	{ NOTE_CS3, 114 }, 
	{ NOTE_C3, 114 }, 
	{ NOTE_CS3, 114 }, 
	{ NOTE_C3, 114 }, 
	{ NOTE_CS3, 114 }, 
	{ NOTE_E3, 114 }, 
	{ NOTE_REST, 114 }, 
	{ NOTE_D3, 114 }, 
	{ NOTE_REST, 114 }, 
	{ NOTE_G2, 114 }, 
	{ NOTE_GS2, 114 }, 
	{ NOTE_A2, 109 }, 
	{ NOTE_C3, 227 }, 
	{ NOTE_REST, 114 }, 
	{ NOTE_B2, 114 }, 
	{ NOTE_C3, 114 }, 
	{ NOTE_B2, 114 }, 
	{ NOTE_C3, 114 }, 
	{ NOTE_B2, 114 }, 
	{ NOTE_C3, 114 }, 
	{ NOTE_E3, 114 }, 
	{ NOTE_REST, 114 }, 
	{ NOTE_D3, 114 }, 
	{ NOTE_REST, 114 }, 
	{ NOTE_G2, 114 }, 
	{ NOTE_GS2, 114 }, 
	{ NOTE_A2, 109 }, 
	{ NOTE_AS2, 227 }, 
	{ NOTE_REST, 114 }, 
	{ NOTE_A2, 114 }, 
	{ NOTE_AS2, 114 }, 
	{ NOTE_A2, 114 }, 
	{ NOTE_AS2, 114 }, 
	{ NOTE_A2, 114 }, 
	{ NOTE_A2, 114 }, 
	{ NOTE_CS3, 114 }, 
	{ NOTE_REST, 114 }, 
	{ NOTE_D3, 114 }, 
	{ NOTE_REST, 114 }, 
	{ NOTE_DS3, 114 }, 
	{ NOTE_REST, 114 }, 
	{ NOTE_E3, 109 }, 
	{ NOTE_D3, 227 }, 
	{ NOTE_REST, 114 }, 
	{ NOTE_C3, 114 }, 
	{ NOTE_D3, 114 }, 
	{ NOTE_C3, 114 }, 
	{ NOTE_D3, 114 }, 
	{ NOTE_C3, 114 }, 
	{ NOTE_D3, 114 }, 
	{ NOTE_F3, 114 }, 
	{ NOTE_REST, 114 }, 
	{ NOTE_E3, 114 }, 
	{ NOTE_REST, 114 }, 
	{ NOTE_C3, 114 }, 
	{ NOTE_G2, 114 }, 
	{ NOTE_A2, 109 }, 
	{ NOTE_AS2, 227 }, 
	{ NOTE_REST, 114 }, 
	{ NOTE_A2, 114 }, 
	{ NOTE_AS2, 114 }, 
	{ NOTE_A2, 114 }, 
	{ NOTE_AS2, 114 }, 
	{ NOTE_A2, 114 }, 
	{ NOTE_AS2, 114 }, 
	{ NOTE_C3, 114 }, 
	{ NOTE_REST, 114 }, 
	{ NOTE_D3, 114 }, 
	{ NOTE_REST, 114 }, 
	{ NOTE_E3, 114 }, 
	{ NOTE_REST, 114 }, 
	{ NOTE_F3, 109 }, 
	{ NOTE_D3, 341 }, 
	{ NOTE_CS3, 341 }, 
	{ NOTE_C3, 682 }, 
	{ NOTE_G2, 341 }, 
	{ NOTE_C3, 340 }, 
	{ NOTE_AS2, 1136 }, 
	{ NOTE_A2, 455 }, 
	{ NOTE_C3, 455 }, 
	{ NOTE_D3, 227 }, 
	{ NOTE_REST, 114 }, 
	{ NOTE_C3, 114 }, 
	{ NOTE_D3, 114 }, 
	{ NOTE_C3, 114 }, 
	{ NOTE_D3, 114 }, 
	{ NOTE_C3, 114 }, 
	{ NOTE_D3, 114 }, 
	{ NOTE_F3, 114 }, 
	{ NOTE_REST, 114 }, 
	{ NOTE_E3, 110 }, 
};
const uint16_t NUM_OF_NOTES4 = sizeof(melody4)/sizeof(melody4[0]);

