/*
 * Song: Street Fighter II - Guile Stage's Theme
 *
 *	Melody 0 | Trumpet
 *	Melody 1 | Effect 1
 *	Melody 2 | Effect 1
 *	Melody 3 | Effect 2
 *	Melody 4 | Bass
*/

#include <Arduino.h>
#include "notes.h"

const Note melody0[] PROGMEM = {
	{ NOTE_DS6, 120 }, 
	{ NOTE_REST, 120 }, 
	{ NOTE_DS6, 120 }, 
	{ NOTE_D6, 120 }, 
	{ NOTE_REST, 120 }, 
	{ NOTE_D6, 120 }, 
	{ NOTE_DS6, 960 }, 
	{ NOTE_D6, 120 }, 
	{ NOTE_REST, 120 }, 
	{ NOTE_DS6, 120 }, 
	{ NOTE_REST, 120 }, 
	{ NOTE_DS6, 120 }, 
	{ NOTE_D6, 120 }, 
	{ NOTE_REST, 120 }, 
	{ NOTE_D6, 120 }, 
	{ NOTE_DS6, 960 }, 
	{ NOTE_D6, 120 }, 
	{ NOTE_REST, 120 }, 
	{ NOTE_DS6, 120 }, 
	{ NOTE_D6, 120 }, 
	{ NOTE_REST, 120 }, 
	{ NOTE_DS6, 120 }, 
	{ NOTE_REST, 120 }, 
	{ NOTE_D6, 120 }, 
	{ NOTE_REST, 120 }, 
	{ NOTE_F6, 120 }, 
	{ NOTE_REST, 120 }, 
	{ NOTE_F6, 120 }, 
	{ NOTE_DS6, 240 }, 
	{ NOTE_D6, 240 }, 
	{ NOTE_AS5, 240 }, 
	{ NOTE_DS6, 120 }, 
	{ NOTE_REST, 120 }, 
	{ NOTE_DS6, 120 }, 
	{ NOTE_D6, 120 }, 
	{ NOTE_REST, 120 }, 
	{ NOTE_D6, 120 }, 
	{ NOTE_DS6, 960 }, 
	{ NOTE_D6, 120 }, 
	{ NOTE_REST, 120 }, 
	{ NOTE_DS6, 120 }, 
	{ NOTE_REST, 120 }, 
	{ NOTE_DS6, 120 }, 
	{ NOTE_D6, 120 }, 
	{ NOTE_REST, 120 }, 
	{ NOTE_D6, 120 }, 
	{ NOTE_DS6, 960 }, 
	{ NOTE_D6, 120 }, 
	{ NOTE_REST, 120 }, 
	{ NOTE_DS6, 120 }, 
	{ NOTE_D6, 120 }, 
	{ NOTE_REST, 120 }, 
	{ NOTE_DS6, 120 }, 
	{ NOTE_REST, 120 }, 
	{ NOTE_D6, 120 }, 
	{ NOTE_REST, 120 }, 
	{ NOTE_F6, 120 }, 
	{ NOTE_REST, 120 }, 
	{ NOTE_F6, 120 }, 
	{ NOTE_DS6, 120 }, 
	{ NOTE_REST, 120 }, 
	{ NOTE_D6, 120 }, 
	{ NOTE_REST, 120 }, 
	{ NOTE_AS5, 120 }, 
	{ NOTE_REST, 120 }, 
	{ NOTE_C5, 1200 }, 
	{ NOTE_D5, 240 }, 
	{ NOTE_DS5, 120 }, 
	{ NOTE_F5, 360 }, 
	{ NOTE_G5, 360 }, 
	{ NOTE_G5, 120 }, 
	{ NOTE_F5, 240 }, 
	{ NOTE_AS5, 480 }, 
	{ NOTE_GS5, 240 }, 
	{ NOTE_G5, 120 }, 
	{ NOTE_GS5, 360 }, 
	{ NOTE_D5, 240 }, 
	{ NOTE_REST, 120 }, 
	{ NOTE_DS5, 240 }, 
	{ NOTE_REST, 120 }, 
	{ NOTE_F5, 240 }, 
	{ NOTE_REST, 240 }, 
	{ NOTE_AS4, 240 }, 
	{ NOTE_D5, 240 }, 
	{ NOTE_F5, 240 }, 
	{ NOTE_GS5, 360 }, 
	{ NOTE_AS5, 360 }, 
	{ NOTE_G5, 240 }, 
	{ NOTE_REST, 240 }, 
	{ NOTE_G5, 240 }, 
	{ NOTE_F5, 240 }, 
	{ NOTE_D5, 240 }, 
	{ NOTE_C5, 1200 }, 
	{ NOTE_D5, 120 }, 
	{ NOTE_REST, 120 }, 
	{ NOTE_DS5, 120 }, 
	{ NOTE_F5, 240 }, 
	{ NOTE_REST, 120 }, 
	{ NOTE_G5, 360 }, 
	{ NOTE_G5, 120 }, 
	{ NOTE_GS5, 240 }, 
	{ NOTE_F5, 240 }, 
	{ NOTE_REST, 240 }, 
	{ NOTE_F5, 120 }, 
	{ NOTE_REST, 120 }, 
	{ NOTE_G5, 120 }, 
	{ NOTE_GS5, 120 }, 
	{ NOTE_REST, 240 }, 
	{ NOTE_AS5, 1200 }, 
	{ NOTE_C6, 120 }, 
	{ NOTE_REST, 120 }, 
	{ NOTE_D6, 120 }, 
	{ NOTE_DS6, 240 }, 
	{ NOTE_REST, 120 }, 
	{ NOTE_G6, 360 }, 
	{ NOTE_REST, 120 }, 
	{ NOTE_F6, 360 }, 
	{ NOTE_REST, 120 }, 
	{ NOTE_D6, 360 }, 
	{ NOTE_REST, 120 }, 
	{ NOTE_AS5, 360 }, 
	{ NOTE_REST, 120 }, 
	{ NOTE_C6, 1200 }, 
	{ NOTE_D6, 240 }, 
	{ NOTE_DS6, 240 }, 
	{ NOTE_F6, 240 }, 
	{ NOTE_C6, 1200 }, 
	{ NOTE_D6, 240 }, 
	{ NOTE_DS6, 240 }, 
	{ NOTE_F6, 240 }, 
	{ NOTE_G6, 3360 }, 
	{ NOTE_C6, 240 }, 
	{ NOTE_C6, 240 }, 
	{ NOTE_GS6, 1200 }, 
	{ NOTE_G6, 120 }, 
	{ NOTE_REST, 120 }, 
	{ NOTE_F6, 120 }, 
	{ NOTE_G6, 240 }, 
	{ NOTE_REST, 120 }, 
	{ NOTE_F6, 360 }, 
	{ NOTE_REST, 120 }, 
	{ NOTE_DS6, 360 }, 
	{ NOTE_REST, 120 }, 
	{ NOTE_D6, 360 }, 
	{ NOTE_REST, 120 }, 
	{ NOTE_AS5, 360 }, 
	{ NOTE_REST, 120 }, 
	{ NOTE_C6, 360 }, 
	{ NOTE_REST, 120 }, 
	{ NOTE_G5, 2880 }, 
	{ NOTE_AS5, 240 }, 
	{ NOTE_AS5, 240 }, 
	{ NOTE_C6, 1200 }, 
	{ NOTE_D6, 120 }, 
	{ NOTE_REST, 120 }, 
	{ NOTE_DS6, 120 }, 
	{ NOTE_F6, 120 }, 
	{ NOTE_REST, 120 }, 
	{ NOTE_G6, 480 }, 
	{ NOTE_GS6, 240 }, 
	{ NOTE_REST, 120 }, 
	{ NOTE_F6, 240 }, 
	{ NOTE_REST, 240 }, 
	{ NOTE_D6, 120 }, 
	{ NOTE_REST, 120 }, 
	{ NOTE_C6, 120 }, 
	{ NOTE_D6, 240 }, 
	{ NOTE_REST, 120 }, 
	{ NOTE_D6, 480 }, 
	{ NOTE_DS6, 360 }, 
	{ NOTE_F6, 120 }, 
	{ NOTE_REST, 360 }, 
	{ NOTE_AS5, 240 }, 
	{ NOTE_D6, 120 }, 
	{ NOTE_REST, 120 }, 
	{ NOTE_GS6, 840 }, 
	{ NOTE_G6, 120 }, 
	{ NOTE_F6, 120 }, 
	{ NOTE_G6, 360 }, 
	{ NOTE_REST, 120 }, 
	{ NOTE_F6, 240 }, 
	{ NOTE_DS6, 240 }, 
	{ NOTE_C6, 1200 }, 
	{ NOTE_D6, 240 }, 
	{ NOTE_DS6, 240 }, 
	{ NOTE_F6, 240 }, 
	{ NOTE_F6, 1200 }, 
	{ NOTE_G6, 240 }, 
	{ NOTE_DS6, 120 }, 
	{ NOTE_D6, 240 }, 
	{ NOTE_REST, 120 }, 
	{ NOTE_D6, 240 }, 
	{ NOTE_DS6, 120 }, 
	{ NOTE_C6, 2880 }, 
	{ NOTE_REST, 120 }, 
	{ NOTE_AS5, 120 }, 
	{ NOTE_REST, 120 }, 
	{ NOTE_AS5, 120 }, 
	{ NOTE_REST, 120 }, 
	{ NOTE_C6, 960 }, 
	{ NOTE_REST, 240 }, 
	{ NOTE_D6, 120 }, 
	{ NOTE_REST, 120 }, 
	{ NOTE_DS6, 120 }, 
	{ NOTE_F6, 120 }, 
	{ NOTE_REST, 120 }, 
	{ NOTE_G6, 600 }, 
	{ NOTE_C6, 360 }, 
	{ NOTE_AS6, 360 }, 
	{ NOTE_GS6, 240 }, 
	{ NOTE_G6, 240 }, 
	{ NOTE_F6, 240 }, 
	{ NOTE_D6, 240 }, 
	{ NOTE_DS6, 120 }, 
	{ NOTE_C6, 3360 }, 
	{ NOTE_REST, 120 }, 
};
const uint16_t NUM_OF_NOTES0 = sizeof(melody0)/sizeof(melody0[0]);

const Note melody1[] PROGMEM = {
	{ NOTE_G4, 120 }, 
	{ NOTE_REST, 120 }, 
	{ NOTE_G4, 120 }, 
	{ NOTE_F4, 120 }, 
	{ NOTE_REST, 120 }, 
	{ NOTE_F4, 120 }, 
	{ NOTE_G4, 840 }, 
	{ NOTE_G4, 120 }, 
	{ NOTE_F4, 120 }, 
	{ NOTE_REST, 120 }, 
	{ NOTE_G4, 120 }, 
	{ NOTE_REST, 120 }, 
	{ NOTE_G4, 120 }, 
	{ NOTE_F4, 120 }, 
	{ NOTE_REST, 120 }, 
	{ NOTE_F4, 120 }, 
	{ NOTE_G4, 840 }, 
	{ NOTE_G4, 120 }, 
	{ NOTE_F4, 120 }, 
	{ NOTE_REST, 120 }, 
	{ NOTE_G4, 120 }, 
	{ NOTE_F4, 120 }, 
	{ NOTE_REST, 120 }, 
	{ NOTE_G4, 120 }, 
	{ NOTE_REST, 120 }, 
	{ NOTE_F4, 120 }, 
	{ NOTE_REST, 120 }, 
	{ NOTE_GS4, 120 }, 
	{ NOTE_REST, 120 }, 
	{ NOTE_GS4, 120 }, 
	{ NOTE_G4, 240 }, 
	{ NOTE_F4, 240 }, 
	{ NOTE_D4, 240 }, 
	{ NOTE_G4, 120 }, 
	{ NOTE_REST, 120 }, 
	{ NOTE_G4, 120 }, 
	{ NOTE_F4, 120 }, 
	{ NOTE_REST, 120 }, 
	{ NOTE_F4, 120 }, 
	{ NOTE_G4, 840 }, 
	{ NOTE_G4, 120 }, 
	{ NOTE_F4, 120 }, 
	{ NOTE_REST, 120 }, 
	{ NOTE_G4, 120 }, 
	{ NOTE_REST, 120 }, 
	{ NOTE_G4, 120 }, 
	{ NOTE_F4, 120 }, 
	{ NOTE_REST, 120 }, 
	{ NOTE_F4, 120 }, 
	{ NOTE_G4, 840 }, 
	{ NOTE_G4, 120 }, 
	{ NOTE_F4, 120 }, 
	{ NOTE_REST, 120 }, 
	{ NOTE_G4, 120 }, 
	{ NOTE_F4, 120 }, 
	{ NOTE_REST, 120 }, 
	{ NOTE_G4, 120 }, 
	{ NOTE_REST, 120 }, 
	{ NOTE_F4, 120 }, 
	{ NOTE_REST, 120 }, 
	{ NOTE_GS4, 120 }, 
	{ NOTE_REST, 120 }, 
	{ NOTE_GS4, 120 }, 
	{ NOTE_G4, 240 }, 
	{ NOTE_F4, 240 }, 
	{ NOTE_D4, 240 }, 
	{ NOTE_C4, 120 }, 
	{ NOTE_AS3, 120 }, 
	{ NOTE_REST, 120 }, 
	{ NOTE_C4, 840 }, 
	{ NOTE_AS3, 120 }, 
	{ NOTE_REST, 240 }, 
	{ NOTE_C4, 240 }, 
	{ NOTE_REST, 120 }, 
	{ NOTE_C4, 120 }, 
	{ NOTE_AS3, 120 }, 
	{ NOTE_REST, 120 }, 
	{ NOTE_C4, 840 }, 
	{ NOTE_AS3, 120 }, 
	{ NOTE_REST, 240 }, 
	{ NOTE_C4, 240 }, 
	{ NOTE_REST, 120 }, 
	{ NOTE_D4, 120 }, 
	{ NOTE_C4, 120 }, 
	{ NOTE_REST, 120 }, 
	{ NOTE_D4, 840 }, 
	{ NOTE_C4, 120 }, 
	{ NOTE_REST, 240 }, 
	{ NOTE_D4, 240 }, 
	{ NOTE_REST, 120 }, 
	{ NOTE_D4, 120 }, 
	{ NOTE_D4, 120 }, 
	{ NOTE_REST, 240 }, 
	{ NOTE_D4, 720 }, 
	{ NOTE_D4, 120 }, 
	{ NOTE_REST, 240 }, 
	{ NOTE_D4, 360 }, 
	{ NOTE_C4, 120 }, 
	{ NOTE_AS3, 120 }, 
	{ NOTE_REST, 120 }, 
	{ NOTE_C4, 840 }, 
	{ NOTE_AS3, 120 }, 
	{ NOTE_REST, 240 }, 
	{ NOTE_C4, 240 }, 
	{ NOTE_REST, 120 }, 
	{ NOTE_C4, 120 }, 
	{ NOTE_AS3, 120 }, 
	{ NOTE_REST, 120 }, 
	{ NOTE_C4, 840 }, 
	{ NOTE_AS3, 120 }, 
	{ NOTE_REST, 240 }, 
	{ NOTE_C4, 240 }, 
	{ NOTE_REST, 120 }, 
	{ NOTE_D4, 120 }, 
	{ NOTE_C4, 120 }, 
	{ NOTE_REST, 120 }, 
	{ NOTE_D4, 840 }, 
	{ NOTE_C4, 120 }, 
	{ NOTE_REST, 240 }, 
	{ NOTE_D4, 240 }, 
	{ NOTE_REST, 120 }, 
	{ NOTE_D4, 120 }, 
	{ NOTE_D4, 120 }, 
	{ NOTE_REST, 240 }, 
	{ NOTE_D4, 720 }, 
	{ NOTE_D4, 120 }, 
	{ NOTE_REST, 240 }, 
	{ NOTE_D4, 360 }, 
	{ NOTE_DS4, 1920 }, 
	{ NOTE_F4, 960 }, 
	{ NOTE_D4, 960 }, 
	{ NOTE_C5, 120 }, 
	{ NOTE_AS4, 120 }, 
	{ NOTE_REST, 120 }, 
	{ NOTE_C5, 1320 }, 
	{ NOTE_AS4, 240 }, 
	{ NOTE_C5, 120 }, 
	{ NOTE_REST, 120 }, 
	{ NOTE_C5, 120 }, 
	{ NOTE_AS4, 120 }, 
	{ NOTE_REST, 120 }, 
	{ NOTE_AS4, 120 }, 
	{ NOTE_C5, 1200 }, 
	{ NOTE_DS4, 1920 }, 
	{ NOTE_F4, 960 }, 
	{ NOTE_D4, 960 }, 
	{ NOTE_C5, 120 }, 
	{ NOTE_AS4, 120 }, 
	{ NOTE_REST, 120 }, 
	{ NOTE_C5, 1320 }, 
	{ NOTE_AS4, 240 }, 
	{ NOTE_C5, 120 }, 
	{ NOTE_REST, 120 }, 
	{ NOTE_C5, 120 }, 
	{ NOTE_AS4, 120 }, 
	{ NOTE_REST, 120 }, 
	{ NOTE_AS4, 120 }, 
	{ NOTE_C5, 720 }, 
	{ NOTE_C5, 240 }, 
	{ NOTE_AS4, 240 }, 
	{ NOTE_C4, 120 }, 
	{ NOTE_AS3, 120 }, 
	{ NOTE_REST, 120 }, 
	{ NOTE_C4, 840 }, 
	{ NOTE_AS3, 120 }, 
	{ NOTE_REST, 240 }, 
	{ NOTE_C4, 240 }, 
	{ NOTE_C4, 480 }, 
	{ NOTE_C4, 360 }, 
	{ NOTE_C4, 240 }, 
	{ NOTE_C4, 120 }, 
	{ NOTE_REST, 120 }, 
	{ NOTE_C4, 120 }, 
	{ NOTE_REST, 120 }, 
	{ NOTE_C4, 120 }, 
	{ NOTE_C4, 360 }, 
	{ NOTE_D4, 120 }, 
	{ NOTE_C4, 120 }, 
	{ NOTE_REST, 240 }, 
	{ NOTE_D4, 720 }, 
	{ NOTE_AS3, 120 }, 
	{ NOTE_REST, 240 }, 
	{ NOTE_D4, 240 }, 
	{ NOTE_DS4, 840 }, 
	{ NOTE_D4, 240 }, 
	{ NOTE_DS4, 120 }, 
	{ NOTE_REST, 120 }, 
	{ NOTE_DS4, 120 }, 
	{ NOTE_REST, 120 }, 
	{ NOTE_DS4, 120 }, 
	{ NOTE_D4, 360 }, 
	{ NOTE_C4, 1920 }, 
	{ NOTE_AS3, 960 }, 
	{ NOTE_D4, 960 }, 
	{ NOTE_C4, 120 }, 
	{ NOTE_AS3, 120 }, 
	{ NOTE_REST, 120 }, 
	{ NOTE_C4, 1320 }, 
	{ NOTE_AS3, 240 }, 
	{ NOTE_C4, 120 }, 
	{ NOTE_REST, 120 }, 
	{ NOTE_C4, 120 }, 
	{ NOTE_AS3, 120 }, 
	{ NOTE_REST, 120 }, 
	{ NOTE_AS3, 120 }, 
	{ NOTE_C4, 720 }, 
	{ NOTE_DS4, 120 }, 
	{ NOTE_REST, 120 }, 
	{ NOTE_D4, 120 }, 
	{ NOTE_REST, 120 }, 
	{ NOTE_C4, 1920 }, 
	{ NOTE_AS3, 960 }, 
	{ NOTE_D4, 960 }, 
	{ NOTE_C4, 120 }, 
	{ NOTE_AS3, 120 }, 
	{ NOTE_REST, 120 }, 
	{ NOTE_C4, 1320 }, 
	{ NOTE_AS3, 240 }, 
	{ NOTE_C4, 120 }, 
	{ NOTE_REST, 120 }, 
	{ NOTE_C4, 120 }, 
	{ NOTE_AS3, 120 }, 
	{ NOTE_REST, 120 }, 
	{ NOTE_AS3, 120 }, 
	{ NOTE_C4, 720 }, 
	{ NOTE_C4, 120 }, 
	{ NOTE_REST, 120 }, 
	{ NOTE_AS3, 120 }, 
	{ NOTE_REST, 120 }, 
};
const uint16_t NUM_OF_NOTES1 = sizeof(melody1)/sizeof(melody1[0]);

const Note melody2[] PROGMEM = {
	{ NOTE_C5, 120 }, 
	{ NOTE_REST, 120 }, 
	{ NOTE_C5, 120 }, 
	{ NOTE_AS4, 120 }, 
	{ NOTE_REST, 120 }, 
	{ NOTE_AS4, 120 }, 
	{ NOTE_C5, 840 }, 
	{ NOTE_C5, 120 }, 
	{ NOTE_AS4, 120 }, 
	{ NOTE_REST, 120 }, 
	{ NOTE_C5, 120 }, 
	{ NOTE_REST, 120 }, 
	{ NOTE_C5, 120 }, 
	{ NOTE_AS4, 120 }, 
	{ NOTE_REST, 120 }, 
	{ NOTE_AS4, 120 }, 
	{ NOTE_C5, 840 }, 
	{ NOTE_C5, 120 }, 
	{ NOTE_AS4, 120 }, 
	{ NOTE_REST, 120 }, 
	{ NOTE_C5, 120 }, 
	{ NOTE_AS4, 120 }, 
	{ NOTE_REST, 120 }, 
	{ NOTE_C5, 120 }, 
	{ NOTE_REST, 120 }, 
	{ NOTE_AS4, 120 }, 
	{ NOTE_REST, 120 }, 
	{ NOTE_C5, 120 }, 
	{ NOTE_REST, 120 }, 
	{ NOTE_C5, 120 }, 
	{ NOTE_AS4, 240 }, 
	{ NOTE_AS4, 240 }, 
	{ NOTE_F4, 240 }, 
	{ NOTE_C5, 120 }, 
	{ NOTE_REST, 120 }, 
	{ NOTE_C5, 120 }, 
	{ NOTE_AS4, 120 }, 
	{ NOTE_REST, 120 }, 
	{ NOTE_AS4, 120 }, 
	{ NOTE_C5, 840 }, 
	{ NOTE_C5, 120 }, 
	{ NOTE_AS4, 120 }, 
	{ NOTE_REST, 120 }, 
	{ NOTE_C5, 120 }, 
	{ NOTE_REST, 120 }, 
	{ NOTE_C5, 120 }, 
	{ NOTE_AS4, 120 }, 
	{ NOTE_REST, 120 }, 
	{ NOTE_AS4, 120 }, 
	{ NOTE_C5, 840 }, 
	{ NOTE_C5, 120 }, 
	{ NOTE_AS4, 120 }, 
	{ NOTE_REST, 120 }, 
	{ NOTE_C5, 120 }, 
	{ NOTE_AS4, 120 }, 
	{ NOTE_REST, 120 }, 
	{ NOTE_C5, 120 }, 
	{ NOTE_REST, 120 }, 
	{ NOTE_AS4, 120 }, 
	{ NOTE_REST, 120 }, 
	{ NOTE_C5, 120 }, 
	{ NOTE_REST, 120 }, 
	{ NOTE_C5, 120 }, 
	{ NOTE_AS4, 240 }, 
	{ NOTE_AS4, 240 }, 
	{ NOTE_F4, 240 }, 
	{ NOTE_DS4, 120 }, 
	{ NOTE_D4, 120 }, 
	{ NOTE_REST, 120 }, 
	{ NOTE_DS4, 840 }, 
	{ NOTE_D4, 120 }, 
	{ NOTE_REST, 240 }, 
	{ NOTE_DS4, 240 }, 
	{ NOTE_REST, 120 }, 
	{ NOTE_DS4, 120 }, 
	{ NOTE_D4, 120 }, 
	{ NOTE_REST, 120 }, 
	{ NOTE_DS4, 840 }, 
	{ NOTE_D4, 120 }, 
	{ NOTE_REST, 240 }, 
	{ NOTE_DS4, 240 }, 
	{ NOTE_REST, 120 }, 
	{ NOTE_F4, 120 }, 
	{ NOTE_DS4, 120 }, 
	{ NOTE_REST, 120 }, 
	{ NOTE_F4, 840 }, 
	{ NOTE_DS4, 120 }, 
	{ NOTE_REST, 240 }, 
	{ NOTE_F4, 240 }, 
	{ NOTE_REST, 120 }, 
	{ NOTE_F4, 120 }, 
	{ NOTE_F4, 120 }, 
	{ NOTE_REST, 240 }, 
	{ NOTE_G4, 720 }, 
	{ NOTE_F4, 120 }, 
	{ NOTE_REST, 240 }, 
	{ NOTE_G4, 360 }, 
	{ NOTE_DS4, 120 }, 
	{ NOTE_D4, 120 }, 
	{ NOTE_REST, 120 }, 
	{ NOTE_DS4, 840 }, 
	{ NOTE_D4, 120 }, 
	{ NOTE_REST, 240 }, 
	{ NOTE_DS4, 240 }, 
	{ NOTE_REST, 120 }, 
	{ NOTE_DS4, 120 }, 
	{ NOTE_D4, 120 }, 
	{ NOTE_REST, 120 }, 
	{ NOTE_DS4, 840 }, 
	{ NOTE_D4, 120 }, 
	{ NOTE_REST, 240 }, 
	{ NOTE_DS4, 240 }, 
	{ NOTE_REST, 120 }, 
	{ NOTE_F4, 120 }, 
	{ NOTE_DS4, 120 }, 
	{ NOTE_REST, 120 }, 
	{ NOTE_F4, 840 }, 
	{ NOTE_DS4, 120 }, 
	{ NOTE_REST, 240 }, 
	{ NOTE_F4, 240 }, 
	{ NOTE_REST, 120 }, 
	{ NOTE_F4, 120 }, 
	{ NOTE_F4, 120 }, 
	{ NOTE_REST, 240 }, 
	{ NOTE_G4, 720 }, 
	{ NOTE_F4, 120 }, 
	{ NOTE_REST, 240 }, 
	{ NOTE_G4, 360 }, 
	{ NOTE_G4, 1920 }, 
	{ NOTE_F4, 960 }, 
	{ NOTE_D4, 960 }, 
	{ NOTE_DS5, 120 }, 
	{ NOTE_D5, 120 }, 
	{ NOTE_REST, 120 }, 
	{ NOTE_DS5, 1320 }, 
	{ NOTE_D5, 240 }, 
	{ NOTE_DS5, 120 }, 
	{ NOTE_REST, 120 }, 
	{ NOTE_DS5, 120 }, 
	{ NOTE_D5, 120 }, 
	{ NOTE_REST, 120 }, 
	{ NOTE_D5, 120 }, 
	{ NOTE_DS5, 1200 }, 
	{ NOTE_G4, 1920 }, 
	{ NOTE_F4, 960 }, 
	{ NOTE_D4, 960 }, 
	{ NOTE_DS5, 120 }, 
	{ NOTE_D5, 120 }, 
	{ NOTE_REST, 120 }, 
	{ NOTE_DS5, 1320 }, 
	{ NOTE_D5, 240 }, 
	{ NOTE_DS5, 120 }, 
	{ NOTE_REST, 120 }, 
	{ NOTE_DS5, 120 }, 
	{ NOTE_D5, 120 }, 
	{ NOTE_REST, 120 }, 
	{ NOTE_D5, 120 }, 
	{ NOTE_DS5, 720 }, 
	{ NOTE_DS5, 240 }, 
	{ NOTE_D5, 240 }, 
	{ NOTE_DS4, 120 }, 
	{ NOTE_D4, 120 }, 
	{ NOTE_REST, 120 }, 
	{ NOTE_DS4, 840 }, 
	{ NOTE_D4, 120 }, 
	{ NOTE_REST, 240 }, 
	{ NOTE_DS4, 240 }, 
	{ NOTE_DS4, 480 }, 
	{ NOTE_F4, 360 }, 
	{ NOTE_DS4, 240 }, 
	{ NOTE_F4, 120 }, 
	{ NOTE_REST, 120 }, 
	{ NOTE_F4, 120 }, 
	{ NOTE_REST, 120 }, 
	{ NOTE_F4, 120 }, 
	{ NOTE_DS4, 360 }, 
	{ NOTE_F4, 120 }, 
	{ NOTE_DS4, 120 }, 
	{ NOTE_REST, 240 }, 
	{ NOTE_F4, 720 }, 
	{ NOTE_D4, 120 }, 
	{ NOTE_REST, 240 }, 
	{ NOTE_F4, 240 }, 
	{ NOTE_G4, 840 }, 
	{ NOTE_F4, 240 }, 
	{ NOTE_G4, 120 }, 
	{ NOTE_REST, 120 }, 
	{ NOTE_G4, 120 }, 
	{ NOTE_REST, 120 }, 
	{ NOTE_G4, 120 }, 
	{ NOTE_F4, 360 }, 
	{ NOTE_DS4, 1920 }, 
	{ NOTE_AS3, 960 }, 
	{ NOTE_D4, 960 }, 
	{ NOTE_DS4, 120 }, 
	{ NOTE_D4, 120 }, 
	{ NOTE_REST, 120 }, 
	{ NOTE_DS4, 1320 }, 
	{ NOTE_D4, 240 }, 
	{ NOTE_DS4, 120 }, 
	{ NOTE_REST, 120 }, 
	{ NOTE_DS4, 120 }, 
	{ NOTE_D4, 120 }, 
	{ NOTE_REST, 120 }, 
	{ NOTE_D4, 120 }, 
	{ NOTE_DS4, 720 }, 
	{ NOTE_G4, 120 }, 
	{ NOTE_REST, 120 }, 
	{ NOTE_F4, 120 }, 
	{ NOTE_REST, 120 }, 
	{ NOTE_DS4, 1920 }, 
	{ NOTE_AS3, 960 }, 
	{ NOTE_D4, 960 }, 
	{ NOTE_DS4, 120 }, 
	{ NOTE_D4, 120 }, 
	{ NOTE_REST, 120 }, 
	{ NOTE_DS4, 1320 }, 
	{ NOTE_D4, 240 }, 
	{ NOTE_DS4, 120 }, 
	{ NOTE_REST, 120 }, 
	{ NOTE_DS4, 120 }, 
	{ NOTE_D4, 120 }, 
	{ NOTE_REST, 120 }, 
	{ NOTE_D4, 120 }, 
	{ NOTE_DS4, 720 }, 
	{ NOTE_DS4, 120 }, 
	{ NOTE_REST, 120 }, 
	{ NOTE_D4, 120 }, 
	{ NOTE_REST, 120 }, 
};
const uint16_t NUM_OF_NOTES2 = sizeof(melody2)/sizeof(melody2[0]);

const Note melody3[] PROGMEM = {
	{ NOTE_REST, 1920 }, 
	{ NOTE_REST, 1920 }, 
	{ NOTE_REST, 1920 }, 
	{ NOTE_REST, 1920 }, 
	{ NOTE_REST, 1920 }, 
	{ NOTE_REST, 1920 }, 
	{ NOTE_DS3, 1200 }, 
	{ NOTE_F3, 240 }, 
	{ NOTE_G3, 120 }, 
	{ NOTE_GS3, 360 }, 
	{ NOTE_AS3, 720 }, 
	{ NOTE_C4, 720 }, 
	{ NOTE_AS3, 120 }, 
	{ NOTE_C4, 360 }, 
	{ NOTE_AS3, 360 }, 
	{ NOTE_C4, 360 }, 
	{ NOTE_D4, 240 }, 
	{ NOTE_REST, 240 }, 
	{ NOTE_F3, 240 }, 
	{ NOTE_GS3, 240 }, 
	{ NOTE_D4, 240 }, 
	{ NOTE_F4, 360 }, 
	{ NOTE_G4, 360 }, 
	{ NOTE_D4, 240 }, 
	{ NOTE_REST, 240 }, 
	{ NOTE_AS3, 240 }, 
	{ NOTE_AS3, 240 }, 
	{ NOTE_REST, 240 }, 
	{ NOTE_DS3, 1200 }, 
	{ NOTE_F3, 120 }, 
	{ NOTE_REST, 120 }, 
	{ NOTE_G3, 120 }, 
	{ NOTE_GS3, 240 }, 
	{ NOTE_REST, 120 }, 
	{ NOTE_C4, 1440 }, 
	{ NOTE_DS4, 480 }, 
	{ NOTE_F4, 1200 }, 
	{ NOTE_G4, 120 }, 
	{ NOTE_REST, 120 }, 
	{ NOTE_F4, 120 }, 
	{ NOTE_DS4, 360 }, 
	{ NOTE_D4, 960 }, 
	{ NOTE_F4, 480 }, 
	{ NOTE_G4, 480 }, 
	{ NOTE_REST, 1920 }, 
	{ NOTE_REST, 1920 }, 
	{ NOTE_REST, 1920 }, 
	{ NOTE_REST, 1920 }, 
	{ NOTE_DS4, 1920 }, 
	{ NOTE_F4, 960 }, 
	{ NOTE_D4, 960 }, 
	{ NOTE_REST, 1920 }, 
	{ NOTE_REST, 1920 }, 
	{ NOTE_DS4, 1200 }, 
	{ NOTE_F4, 120 }, 
	{ NOTE_REST, 120 }, 
	{ NOTE_G4, 360 }, 
	{ NOTE_AS4, 480 }, 
	{ NOTE_C5, 360 }, 
	{ NOTE_GS4, 120 }, 
	{ NOTE_REST, 360 }, 
	{ NOTE_F4, 120 }, 
	{ NOTE_REST, 120 }, 
	{ NOTE_F4, 120 }, 
	{ NOTE_F4, 240 }, 
	{ NOTE_REST, 120 }, 
	{ NOTE_AS3, 480 }, 
	{ NOTE_C4, 360 }, 
	{ NOTE_D4, 120 }, 
	{ NOTE_REST, 360 }, 
	{ NOTE_D4, 240 }, 
	{ NOTE_D4, 240 }, 
	{ NOTE_F4, 720 }, 
	{ NOTE_REST, 120 }, 
	{ NOTE_DS4, 120 }, 
	{ NOTE_D4, 120 }, 
	{ NOTE_DS4, 480 }, 
	{ NOTE_D4, 240 }, 
	{ NOTE_C4, 240 }, 
	{ NOTE_DS4, 1200 }, 
	{ NOTE_G4, 240 }, 
	{ NOTE_GS4, 240 }, 
	{ NOTE_G4, 240 }, 
	{ NOTE_AS4, 960 }, 
	{ NOTE_GS4, 480 }, 
	{ NOTE_G4, 480 }, 
	{ NOTE_F4, 360 }, 
	{ NOTE_DS4, 1440 }, 
	{ NOTE_REST, 120 }, 
	{ NOTE_REST, 1920 }, 
	{ NOTE_DS4, 1200 }, 
	{ NOTE_F4, 240 }, 
	{ NOTE_G4, 120 }, 
	{ NOTE_GS4, 240 }, 
	{ NOTE_AS4, 480 }, 
	{ NOTE_REST, 120 }, 
	{ NOTE_G4, 360 }, 
	{ NOTE_G4, 360 }, 
	{ NOTE_F4, 240 }, 
	{ NOTE_DS4, 240 }, 
	{ NOTE_D4, 240 }, 
	{ NOTE_F4, 360 }, 
	{ NOTE_DS4, 1440 }, 
	{ NOTE_REST, 120 }, 
	{ NOTE_REST, 1920 }, 
};
const uint16_t NUM_OF_NOTES3 = sizeof(melody3)/sizeof(melody3[0]);

const Note melody4[] PROGMEM = {
	{ NOTE_C4, 960 }, 
	{ NOTE_REST, 120 }, 
	{ NOTE_F4, 120 }, 
	{ NOTE_G4, 120 }, 
	{ NOTE_F4, 120 }, 
	{ NOTE_DS4, 120 }, 
	{ NOTE_D4, 120 }, 
	{ NOTE_C4, 120 }, 
	{ NOTE_AS3, 120 }, 
	{ NOTE_GS3, 960 }, 
	{ NOTE_REST, 120 }, 
	{ NOTE_GS3, 120 }, 
	{ NOTE_G4, 120 }, 
	{ NOTE_GS4, 120 }, 
	{ NOTE_REST, 120 }, 
	{ NOTE_GS4, 120 }, 
	{ NOTE_REST, 120 }, 
	{ NOTE_GS4, 120 }, 
	{ NOTE_F3, 120 }, 
	{ NOTE_F3, 120 }, 
	{ NOTE_REST, 120 }, 
	{ NOTE_F3, 480 }, 
	{ NOTE_G3, 120 }, 
	{ NOTE_REST, 120 }, 
	{ NOTE_G3, 120 }, 
	{ NOTE_REST, 120 }, 
	{ NOTE_G3, 120 }, 
	{ NOTE_G3, 120 }, 
	{ NOTE_REST, 120 }, 
	{ NOTE_AS3, 120 }, 
	{ NOTE_REST, 120 }, 
	{ NOTE_C4, 120 }, 
	{ NOTE_REST, 120 }, 
	{ NOTE_AS4, 120 }, 
	{ NOTE_C5, 120 }, 
	{ NOTE_REST, 120 }, 
	{ NOTE_AS4, 120 }, 
	{ NOTE_C5, 120 }, 
	{ NOTE_C4, 120 }, 
	{ NOTE_REST, 120 }, 
	{ NOTE_F4, 120 }, 
	{ NOTE_G4, 120 }, 
	{ NOTE_F4, 120 }, 
	{ NOTE_DS4, 120 }, 
	{ NOTE_D4, 120 }, 
	{ NOTE_C4, 120 }, 
	{ NOTE_AS3, 120 }, 
	{ NOTE_GS3, 120 }, 
	{ NOTE_REST, 120 }, 
	{ NOTE_G4, 120 }, 
	{ NOTE_GS4, 120 }, 
	{ NOTE_REST, 120 }, 
	{ NOTE_G4, 120 }, 
	{ NOTE_GS4, 120 }, 
	{ NOTE_GS3, 120 }, 
	{ NOTE_REST, 120 }, 
	{ NOTE_GS3, 120 }, 
	{ NOTE_G4, 120 }, 
	{ NOTE_GS4, 120 }, 
	{ NOTE_REST, 120 }, 
	{ NOTE_GS4, 120 }, 
	{ NOTE_REST, 120 }, 
	{ NOTE_GS4, 120 }, 
	{ NOTE_F3, 120 }, 
	{ NOTE_F3, 120 }, 
	{ NOTE_REST, 120 }, 
	{ NOTE_F3, 480 }, 
	{ NOTE_G3, 120 }, 
	{ NOTE_REST, 120 }, 
	{ NOTE_G3, 120 }, 
	{ NOTE_REST, 120 }, 
	{ NOTE_G3, 120 }, 
	{ NOTE_G3, 120 }, 
	{ NOTE_REST, 120 }, 
	{ NOTE_AS3, 120 }, 
	{ NOTE_REST, 120 }, 
	{ NOTE_C4, 120 }, 
	{ NOTE_C4, 120 }, 
	{ NOTE_REST, 120 }, 
	{ NOTE_C4, 120 }, 
	{ NOTE_C4, 480 }, 
	{ NOTE_REST, 240 }, 
	{ NOTE_C4, 120 }, 
	{ NOTE_REST, 120 }, 
	{ NOTE_C4, 120 }, 
	{ NOTE_C4, 360 }, 
	{ NOTE_GS3, 120 }, 
	{ NOTE_GS3, 120 }, 
	{ NOTE_REST, 120 }, 
	{ NOTE_GS3, 120 }, 
	{ NOTE_GS3, 480 }, 
	{ NOTE_REST, 240 }, 
	{ NOTE_GS3, 120 }, 
	{ NOTE_REST, 120 }, 
	{ NOTE_GS3, 120 }, 
	{ NOTE_GS3, 360 }, 
	{ NOTE_AS3, 120 }, 
	{ NOTE_AS3, 120 }, 
	{ NOTE_REST, 120 }, 
	{ NOTE_AS3, 120 }, 
	{ NOTE_AS3, 480 }, 
	{ NOTE_REST, 240 }, 
	{ NOTE_AS3, 120 }, 
	{ NOTE_REST, 120 }, 
	{ NOTE_AS3, 120 }, 
	{ NOTE_AS3, 360 }, 
	{ NOTE_G3, 120 }, 
	{ NOTE_G3, 120 }, 
	{ NOTE_REST, 240 }, 
	{ NOTE_G3, 480 }, 
	{ NOTE_REST, 120 }, 
	{ NOTE_D4, 120 }, 
	{ NOTE_DS4, 120 }, 
	{ NOTE_F4, 120 }, 
	{ NOTE_G4, 120 }, 
	{ NOTE_F4, 120 }, 
	{ NOTE_DS4, 120 }, 
	{ NOTE_AS3, 120 }, 
	{ NOTE_C4, 120 }, 
	{ NOTE_C4, 120 }, 
	{ NOTE_REST, 120 }, 
	{ NOTE_C4, 120 }, 
	{ NOTE_C4, 480 }, 
	{ NOTE_REST, 240 }, 
	{ NOTE_C4, 120 }, 
	{ NOTE_REST, 120 }, 
	{ NOTE_C4, 120 }, 
	{ NOTE_C4, 360 }, 
	{ NOTE_GS3, 120 }, 
	{ NOTE_GS3, 120 }, 
	{ NOTE_REST, 120 }, 
	{ NOTE_GS3, 120 }, 
	{ NOTE_GS3, 480 }, 
	{ NOTE_REST, 240 }, 
	{ NOTE_GS3, 120 }, 
	{ NOTE_REST, 120 }, 
	{ NOTE_GS3, 120 }, 
	{ NOTE_GS3, 360 }, 
	{ NOTE_AS3, 120 }, 
	{ NOTE_AS3, 120 }, 
	{ NOTE_REST, 120 }, 
	{ NOTE_AS3, 120 }, 
	{ NOTE_AS3, 480 }, 
	{ NOTE_REST, 240 }, 
	{ NOTE_AS3, 120 }, 
	{ NOTE_REST, 120 }, 
	{ NOTE_AS3, 120 }, 
	{ NOTE_AS3, 360 }, 
	{ NOTE_G3, 120 }, 
	{ NOTE_G3, 120 }, 
	{ NOTE_REST, 240 }, 
	{ NOTE_G3, 480 }, 
	{ NOTE_REST, 120 }, 
	{ NOTE_D4, 120 }, 
	{ NOTE_DS4, 120 }, 
	{ NOTE_F4, 120 }, 
	{ NOTE_G4, 120 }, 
	{ NOTE_F4, 120 }, 
	{ NOTE_DS4, 120 }, 
	{ NOTE_AS3, 120 }, 
	{ NOTE_GS3, 120 }, 
	{ NOTE_REST, 240 }, 
	{ NOTE_GS3, 120 }, 
	{ NOTE_GS3, 120 }, 
	{ NOTE_GS3, 120 }, 
	{ NOTE_REST, 120 }, 
	{ NOTE_GS3, 120 }, 
	{ NOTE_GS3, 480 }, 
	{ NOTE_REST, 240 }, 
	{ NOTE_F4, 120 }, 
	{ NOTE_G4, 120 }, 
	{ NOTE_AS3, 120 }, 
	{ NOTE_REST, 240 }, 
	{ NOTE_AS3, 120 }, 
	{ NOTE_AS3, 120 }, 
	{ NOTE_AS3, 120 }, 
	{ NOTE_REST, 120 }, 
	{ NOTE_AS3, 120 }, 
	{ NOTE_AS3, 480 }, 
	{ NOTE_REST, 240 }, 
	{ NOTE_F4, 120 }, 
	{ NOTE_G4, 120 }, 
	{ NOTE_C4, 120 }, 
	{ NOTE_AS3, 120 }, 
	{ NOTE_REST, 120 }, 
	{ NOTE_C4, 720 }, 
	{ NOTE_REST, 120 }, 
	{ NOTE_C4, 120 }, 
	{ NOTE_C4, 120 }, 
	{ NOTE_C4, 480 }, 
	{ NOTE_AS3, 120 }, 
	{ NOTE_C4, 120 }, 
	{ NOTE_REST, 120 }, 
	{ NOTE_C4, 480 }, 
	{ NOTE_REST, 240 }, 
	{ NOTE_C4, 120 }, 
	{ NOTE_DS4, 120 }, 
	{ NOTE_F4, 120 }, 
	{ NOTE_G4, 120 }, 
	{ NOTE_F4, 120 }, 
	{ NOTE_D4, 120 }, 
	{ NOTE_AS3, 120 }, 
	{ NOTE_GS3, 120 }, 
	{ NOTE_REST, 240 }, 
	{ NOTE_GS3, 120 }, 
	{ NOTE_GS3, 120 }, 
	{ NOTE_GS3, 120 }, 
	{ NOTE_REST, 120 }, 
	{ NOTE_GS3, 120 }, 
	{ NOTE_GS3, 480 }, 
	{ NOTE_REST, 240 }, 
	{ NOTE_F4, 120 }, 
	{ NOTE_G4, 120 }, 
	{ NOTE_AS3, 120 }, 
	{ NOTE_REST, 240 }, 
	{ NOTE_AS3, 120 }, 
	{ NOTE_AS3, 120 }, 
	{ NOTE_AS3, 120 }, 
	{ NOTE_REST, 120 }, 
	{ NOTE_AS3, 120 }, 
	{ NOTE_AS3, 480 }, 
	{ NOTE_REST, 240 }, 
	{ NOTE_F4, 120 }, 
	{ NOTE_G4, 120 }, 
	{ NOTE_C4, 120 }, 
	{ NOTE_AS3, 120 }, 
	{ NOTE_REST, 120 }, 
	{ NOTE_C4, 720 }, 
	{ NOTE_REST, 120 }, 
	{ NOTE_C4, 120 }, 
	{ NOTE_C4, 120 }, 
	{ NOTE_C4, 480 }, 
	{ NOTE_C4, 120 }, 
	{ NOTE_REST, 120 }, 
	{ NOTE_AS3, 120 }, 
	{ NOTE_C4, 120 }, 
	{ NOTE_REST, 120 }, 
	{ NOTE_AS3, 120 }, 
	{ NOTE_C4, 360 }, 
	{ NOTE_C4, 120 }, 
	{ NOTE_DS4, 120 }, 
	{ NOTE_F4, 120 }, 
	{ NOTE_G4, 120 }, 
	{ NOTE_F4, 120 }, 
	{ NOTE_D4, 120 }, 
	{ NOTE_AS3, 120 }, 
	{ NOTE_AS3, 120 }, 
	{ NOTE_C4, 120 }, 
	{ NOTE_REST, 120 }, 
	{ NOTE_C4, 720 }, 
	{ NOTE_REST, 120 }, 
	{ NOTE_C4, 120 }, 
	{ NOTE_REST, 240 }, 
	{ NOTE_C4, 120 }, 
	{ NOTE_DS4, 480 }, 
	{ NOTE_REST, 120 }, 
	{ NOTE_F4, 120 }, 
	{ NOTE_REST, 240 }, 
	{ NOTE_F4, 120 }, 
	{ NOTE_REST, 360 }, 
	{ NOTE_F4, 120 }, 
	{ NOTE_REST, 120 }, 
	{ NOTE_DS4, 120 }, 
	{ NOTE_REST, 120 }, 
	{ NOTE_DS4, 120 }, 
	{ NOTE_F4, 120 }, 
	{ NOTE_GS3, 120 }, 
	{ NOTE_AS3, 120 }, 
	{ NOTE_REST, 120 }, 
	{ NOTE_AS3, 780 }, 
	{ NOTE_REST, 60 }, 
	{ NOTE_AS3, 240 }, 
	{ NOTE_REST, 120 }, 
	{ NOTE_C4, 120 }, 
	{ NOTE_REST, 120 }, 
	{ NOTE_DS4, 360 }, 
	{ NOTE_REST, 120 }, 
	{ NOTE_DS4, 120 }, 
	{ NOTE_DS4, 120 }, 
	{ NOTE_REST, 120 }, 
	{ NOTE_DS4, 120 }, 
	{ NOTE_REST, 120 }, 
	{ NOTE_DS4, 120 }, 
	{ NOTE_REST, 240 }, 
	{ NOTE_DS4, 120 }, 
	{ NOTE_REST, 120 }, 
	{ NOTE_DS4, 120 }, 
	{ NOTE_REST, 120 }, 
	{ NOTE_DS4, 120 }, 
	{ NOTE_G3, 360 }, 
	{ NOTE_GS3, 120 }, 
	{ NOTE_REST, 120 }, 
	{ NOTE_GS3, 120 }, 
	{ NOTE_REST, 120 }, 
	{ NOTE_GS3, 120 }, 
	{ NOTE_GS3, 480 }, 
	{ NOTE_REST, 240 }, 
	{ NOTE_G4, 120 }, 
	{ NOTE_GS4, 120 }, 
	{ NOTE_GS3, 360 }, 
	{ NOTE_AS3, 120 }, 
	{ NOTE_REST, 120 }, 
	{ NOTE_AS3, 120 }, 
	{ NOTE_REST, 120 }, 
	{ NOTE_AS3, 120 }, 
	{ NOTE_AS3, 480 }, 
	{ NOTE_REST, 240 }, 
	{ NOTE_AS3, 120 }, 
	{ NOTE_AS3, 120 }, 
	{ NOTE_AS3, 120 }, 
	{ NOTE_REST, 240 }, 
	{ NOTE_C4, 600 }, 
	{ NOTE_REST, 120 }, 
	{ NOTE_C4, 120 }, 
	{ NOTE_REST, 240 }, 
	{ NOTE_C4, 120 }, 
	{ NOTE_REST, 360 }, 
	{ NOTE_AS3, 120 }, 
	{ NOTE_C4, 120 }, 
	{ NOTE_REST, 120 }, 
	{ NOTE_C4, 600 }, 
	{ NOTE_REST, 120 }, 
	{ NOTE_C4, 120 }, 
	{ NOTE_DS4, 120 }, 
	{ NOTE_F4, 120 }, 
	{ NOTE_G4, 120 }, 
	{ NOTE_F4, 120 }, 
	{ NOTE_DS4, 120 }, 
	{ NOTE_AS3, 120 }, 
	{ NOTE_G3, 360 }, 
	{ NOTE_GS3, 120 }, 
	{ NOTE_REST, 120 }, 
	{ NOTE_GS3, 120 }, 
	{ NOTE_REST, 120 }, 
	{ NOTE_GS3, 120 }, 
	{ NOTE_GS3, 480 }, 
	{ NOTE_REST, 240 }, 
	{ NOTE_G4, 120 }, 
	{ NOTE_GS4, 120 }, 
	{ NOTE_GS3, 360 }, 
	{ NOTE_AS3, 120 }, 
	{ NOTE_REST, 120 }, 
	{ NOTE_AS3, 120 }, 
	{ NOTE_REST, 120 }, 
	{ NOTE_AS3, 120 }, 
	{ NOTE_AS3, 480 }, 
	{ NOTE_REST, 240 }, 
	{ NOTE_AS3, 120 }, 
	{ NOTE_AS3, 120 }, 
	{ NOTE_AS3, 120 }, 
	{ NOTE_REST, 240 }, 
	{ NOTE_C4, 600 }, 
	{ NOTE_REST, 120 }, 
	{ NOTE_C4, 120 }, 
	{ NOTE_REST, 240 }, 
	{ NOTE_C4, 480 }, 
	{ NOTE_AS3, 120 }, 
	{ NOTE_C4, 120 }, 
	{ NOTE_REST, 120 }, 
	{ NOTE_C4, 600 }, 
	{ NOTE_REST, 120 }, 
	{ NOTE_C4, 120 }, 
	{ NOTE_DS4, 120 }, 
	{ NOTE_F4, 120 }, 
	{ NOTE_G4, 120 }, 
	{ NOTE_F4, 120 }, 
	{ NOTE_DS4, 120 }, 
	{ NOTE_AS3, 120 }, 
};
const uint16_t NUM_OF_NOTES4 = sizeof(melody4)/sizeof(melody4[0]);

