/*
 * Song: Street Fighter II - Ken Stage's Theme
 *
 *	Melody 0 | Solo
 *	Melody 1 | Solo
 *	Melody 2 | Base
 *	Melody 3 | Base
 *	Melody 4 | Bass
*/

#include <Arduino.h>
#include "notes.h"

const Note melody0[] PROGMEM = {
	{ NOTE_REST, 1333 }, 
	{ NOTE_REST, 1333 }, 
	{ NOTE_REST, 1333 }, 
	{ NOTE_REST, 1333 }, 
	{ NOTE_REST, 1333 }, 
	{ NOTE_REST, 1333 }, 
	{ NOTE_REST, 1333 }, 
	{ NOTE_REST, 1333 }, 
	{ NOTE_REST, 333 }, 
	{ NOTE_C4, 333 }, 
	{ NOTE_F4, 333 }, 
	{ NOTE_AS4, 167 }, 
	{ NOTE_GS4, 334 }, 
	{ NOTE_G4, 167 }, 
	{ NOTE_F4, 500 }, 
	{ NOTE_DS4, 333 }, 
	{ NOTE_F4, 499 }, 
	{ NOTE_C4, 333 }, 
	{ NOTE_F4, 333 }, 
	{ NOTE_AS4, 167 }, 
	{ NOTE_GS4, 334 }, 
	{ NOTE_G4, 167 }, 
	{ NOTE_F4, 500 }, 
	{ NOTE_DS4, 333 }, 
	{ NOTE_F4, 499 }, 
	{ NOTE_C4, 333 }, 
	{ NOTE_F4, 333 }, 
	{ NOTE_AS4, 167 }, 
	{ NOTE_C5, 334 }, 
	{ NOTE_CS5, 167 }, 
	{ NOTE_C5, 167 }, 
	{ NOTE_AS4, 333 }, 
	{ NOTE_GS4, 167 }, 
	{ NOTE_AS4, 167 }, 
	{ NOTE_C5, 665 }, 
	{ NOTE_AS4, 500 }, 
	{ NOTE_GS4, 333 }, 
	{ NOTE_G4, 333 }, 
	{ NOTE_F4, 167 }, 
	{ NOTE_E4, 833 }, 
	{ NOTE_REST, 333 }, 
	{ NOTE_C4, 333 }, 
	{ NOTE_F4, 333 }, 
	{ NOTE_AS4, 167 }, 
	{ NOTE_GS4, 334 }, 
	{ NOTE_G4, 167 }, 
	{ NOTE_F4, 500 }, 
	{ NOTE_DS4, 333 }, 
	{ NOTE_F4, 499 }, 
	{ NOTE_C4, 333 }, 
	{ NOTE_F4, 333 }, 
	{ NOTE_AS4, 167 }, 
	{ NOTE_GS4, 334 }, 
	{ NOTE_G4, 167 }, 
	{ NOTE_F4, 500 }, 
	{ NOTE_DS4, 333 }, 
	{ NOTE_F4, 499 }, 
	{ NOTE_C4, 333 }, 
	{ NOTE_F4, 333 }, 
	{ NOTE_AS4, 167 }, 
	{ NOTE_C5, 334 }, 
	{ NOTE_CS5, 167 }, 
	{ NOTE_C5, 167 }, 
	{ NOTE_AS4, 333 }, 
	{ NOTE_GS4, 167 }, 
	{ NOTE_G4, 167 }, 
	{ NOTE_C5, 665 }, 
	{ NOTE_AS4, 500 }, 
	{ NOTE_GS4, 333 }, 
	{ NOTE_G4, 333 }, 
	{ NOTE_GS4, 167 }, 
	{ NOTE_G4, 833 }, 
	{ NOTE_F4, 500 }, 
	{ NOTE_G4, 833 }, 
	{ NOTE_GS4, 500 }, 
	{ NOTE_AS4, 333 }, 
	{ NOTE_GS4, 167 }, 
	{ NOTE_G4, 167 }, 
	{ NOTE_F4, 166 }, 
	{ NOTE_CS4, 500 }, 
	{ NOTE_C5, 1833 }, 
	{ NOTE_AS4, 167 }, 
	{ NOTE_C5, 2499 }, 
	{ NOTE_REST, 167 }, 
	{ NOTE_F4, 666 }, 
	{ NOTE_G4, 833 }, 
	{ NOTE_GS4, 500 }, 
	{ NOTE_AS4, 333 }, 
	{ NOTE_GS4, 167 }, 
	{ NOTE_G4, 167 }, 
	{ NOTE_F4, 166 }, 
	{ NOTE_CS4, 500 }, 
	{ NOTE_C5, 1833 }, 
	{ NOTE_AS4, 167 }, 
	{ NOTE_C5, 2666 }, 
	{ NOTE_REST, 166 }, 
	{ NOTE_REST, 333 }, 
	{ NOTE_C4, 333 }, 
	{ NOTE_F4, 333 }, 
	{ NOTE_AS4, 167 }, 
	{ NOTE_C5, 500 }, 
	{ NOTE_AS4, 167 }, 
	{ NOTE_GS4, 333 }, 
	{ NOTE_G4, 333 }, 
	{ NOTE_GS4, 500 }, 
	{ NOTE_G4, 167 }, 
	{ NOTE_F4, 333 }, 
	{ NOTE_DS4, 333 }, 
	{ NOTE_F4, 834 }, 
	{ NOTE_G4, 167 }, 
	{ NOTE_GS4, 167 }, 
	{ NOTE_REST, 332 }, 
	{ NOTE_REST, 333 }, 
	{ NOTE_AS4, 333 }, 
	{ NOTE_GS4, 333 }, 
	{ NOTE_G4, 167 }, 
	{ NOTE_AS4, 334 }, 
	{ NOTE_AS4, 167 }, 
	{ NOTE_GS4, 333 }, 
	{ NOTE_G4, 333 }, 
	{ NOTE_GS4, 167 }, 
	{ NOTE_G4, 499 }, 
	{ NOTE_F4, 333 }, 
	{ NOTE_E4, 333 }, 
	{ NOTE_F4, 167 }, 
	{ NOTE_C5, 334 }, 
	{ NOTE_C5, 167 }, 
	{ NOTE_C5, 167 }, 
	{ NOTE_C5, 167 }, 
	{ NOTE_C5, 167 }, 
	{ NOTE_C5, 333 }, 
	{ NOTE_C5, 498 }, 
	{ NOTE_AS4, 333 }, 
	{ NOTE_GS4, 333 }, 
	{ NOTE_AS4, 167 }, 
	{ NOTE_GS4, 334 }, 
	{ NOTE_G4, 333 }, 
	{ NOTE_F4, 333 }, 
	{ NOTE_C4, 333 }, 
	{ NOTE_GS4, 500 }, 
	{ NOTE_G4, 167 }, 
	{ NOTE_F4, 333 }, 
	{ NOTE_DS4, 333 }, 
	{ NOTE_F4, 834 }, 
	{ NOTE_G4, 167 }, 
	{ NOTE_GS4, 167 }, 
	{ NOTE_REST, 332 }, 
	{ NOTE_REST, 333 }, 
	{ NOTE_AS4, 333 }, 
	{ NOTE_C5, 333 }, 
	{ NOTE_CS5, 167 }, 
	{ NOTE_C5, 334 }, 
	{ NOTE_C5, 167 }, 
	{ NOTE_AS4, 333 }, 
	{ NOTE_GS4, 333 }, 
	{ NOTE_E4, 167 }, 
	{ NOTE_G4, 499 }, 
	{ NOTE_F4, 1000 }, 
	{ NOTE_REST, 1333 }, 
	{ NOTE_REST, 1333 }, 
};
const uint16_t NUM_OF_NOTES0 = sizeof(melody0)/sizeof(melody0[0]);

const Note melody1[] PROGMEM = {
	{ NOTE_REST, 1333 }, 
	{ NOTE_REST, 1333 }, 
	{ NOTE_REST, 1333 }, 
	{ NOTE_REST, 1333 }, 
	{ NOTE_REST, 1333 }, 
	{ NOTE_REST, 1333 }, 
	{ NOTE_REST, 1333 }, 
	{ NOTE_REST, 1333 }, 
	{ NOTE_REST, 333 }, 
	{ NOTE_C4, 333 }, 
	{ NOTE_F4, 333 }, 
	{ NOTE_AS4, 167 }, 
	{ NOTE_GS4, 334 }, 
	{ NOTE_G4, 167 }, 
	{ NOTE_F4, 500 }, 
	{ NOTE_DS4, 333 }, 
	{ NOTE_F4, 499 }, 
	{ NOTE_C4, 333 }, 
	{ NOTE_F4, 333 }, 
	{ NOTE_AS4, 167 }, 
	{ NOTE_GS4, 334 }, 
	{ NOTE_G4, 167 }, 
	{ NOTE_F4, 500 }, 
	{ NOTE_DS4, 333 }, 
	{ NOTE_F4, 499 }, 
	{ NOTE_C4, 333 }, 
	{ NOTE_F4, 333 }, 
	{ NOTE_AS4, 167 }, 
	{ NOTE_C5, 334 }, 
	{ NOTE_CS5, 167 }, 
	{ NOTE_C5, 167 }, 
	{ NOTE_AS4, 333 }, 
	{ NOTE_GS4, 167 }, 
	{ NOTE_AS4, 167 }, 
	{ NOTE_C5, 665 }, 
	{ NOTE_AS4, 500 }, 
	{ NOTE_GS4, 333 }, 
	{ NOTE_G4, 333 }, 
	{ NOTE_F4, 167 }, 
	{ NOTE_E4, 833 }, 
	{ NOTE_REST, 333 }, 
	{ NOTE_C4, 333 }, 
	{ NOTE_F4, 333 }, 
	{ NOTE_AS4, 167 }, 
	{ NOTE_GS4, 334 }, 
	{ NOTE_G4, 167 }, 
	{ NOTE_F4, 500 }, 
	{ NOTE_DS4, 333 }, 
	{ NOTE_F4, 499 }, 
	{ NOTE_C4, 333 }, 
	{ NOTE_F4, 333 }, 
	{ NOTE_AS4, 167 }, 
	{ NOTE_GS4, 334 }, 
	{ NOTE_G4, 167 }, 
	{ NOTE_F4, 500 }, 
	{ NOTE_DS4, 333 }, 
	{ NOTE_F4, 499 }, 
	{ NOTE_C4, 333 }, 
	{ NOTE_F4, 333 }, 
	{ NOTE_AS4, 167 }, 
	{ NOTE_C5, 334 }, 
	{ NOTE_CS5, 167 }, 
	{ NOTE_C5, 167 }, 
	{ NOTE_AS4, 333 }, 
	{ NOTE_GS4, 167 }, 
	{ NOTE_G4, 167 }, 
	{ NOTE_C5, 665 }, 
	{ NOTE_AS4, 500 }, 
	{ NOTE_GS4, 333 }, 
	{ NOTE_G4, 333 }, 
	{ NOTE_GS4, 167 }, 
	{ NOTE_G4, 833 }, 
	{ NOTE_F4, 500 }, 
	{ NOTE_G4, 833 }, 
	{ NOTE_GS4, 500 }, 
	{ NOTE_AS4, 333 }, 
	{ NOTE_GS4, 167 }, 
	{ NOTE_G4, 167 }, 
	{ NOTE_F4, 166 }, 
	{ NOTE_CS4, 500 }, 
	{ NOTE_C5, 1833 }, 
	{ NOTE_AS4, 167 }, 
	{ NOTE_C5, 2499 }, 
	{ NOTE_REST, 167 }, 
	{ NOTE_F4, 666 }, 
	{ NOTE_G4, 833 }, 
	{ NOTE_GS4, 500 }, 
	{ NOTE_AS4, 333 }, 
	{ NOTE_GS4, 167 }, 
	{ NOTE_G4, 167 }, 
	{ NOTE_F4, 166 }, 
	{ NOTE_CS4, 500 }, 
	{ NOTE_C5, 1833 }, 
	{ NOTE_AS4, 167 }, 
	{ NOTE_C5, 2666 }, 
	{ NOTE_REST, 166 }, 
	{ NOTE_REST, 333 }, 
	{ NOTE_C4, 333 }, 
	{ NOTE_F4, 333 }, 
	{ NOTE_AS4, 167 }, 
	{ NOTE_C5, 500 }, 
	{ NOTE_AS4, 167 }, 
	{ NOTE_GS4, 333 }, 
	{ NOTE_G4, 333 }, 
	{ NOTE_GS4, 500 }, 
	{ NOTE_G4, 167 }, 
	{ NOTE_F4, 333 }, 
	{ NOTE_DS4, 333 }, 
	{ NOTE_F4, 834 }, 
	{ NOTE_G4, 167 }, 
	{ NOTE_GS4, 167 }, 
	{ NOTE_REST, 332 }, 
	{ NOTE_REST, 333 }, 
	{ NOTE_AS4, 333 }, 
	{ NOTE_GS4, 333 }, 
	{ NOTE_G4, 167 }, 
	{ NOTE_AS4, 334 }, 
	{ NOTE_AS4, 167 }, 
	{ NOTE_GS4, 333 }, 
	{ NOTE_G4, 333 }, 
	{ NOTE_GS4, 167 }, 
	{ NOTE_G4, 499 }, 
	{ NOTE_F4, 333 }, 
	{ NOTE_E4, 333 }, 
	{ NOTE_F4, 167 }, 
	{ NOTE_C5, 334 }, 
	{ NOTE_C5, 167 }, 
	{ NOTE_C5, 167 }, 
	{ NOTE_C5, 167 }, 
	{ NOTE_C5, 167 }, 
	{ NOTE_C5, 333 }, 
	{ NOTE_C5, 498 }, 
	{ NOTE_AS4, 333 }, 
	{ NOTE_GS4, 333 }, 
	{ NOTE_AS4, 167 }, 
	{ NOTE_GS4, 334 }, 
	{ NOTE_G4, 333 }, 
	{ NOTE_F4, 333 }, 
	{ NOTE_C4, 333 }, 
	{ NOTE_GS4, 500 }, 
	{ NOTE_G4, 167 }, 
	{ NOTE_F4, 333 }, 
	{ NOTE_DS4, 333 }, 
	{ NOTE_F4, 834 }, 
	{ NOTE_G4, 167 }, 
	{ NOTE_GS4, 167 }, 
	{ NOTE_REST, 332 }, 
	{ NOTE_REST, 333 }, 
	{ NOTE_AS4, 333 }, 
	{ NOTE_C5, 333 }, 
	{ NOTE_CS5, 167 }, 
	{ NOTE_C5, 334 }, 
	{ NOTE_C5, 167 }, 
	{ NOTE_AS4, 333 }, 
	{ NOTE_GS4, 333 }, 
	{ NOTE_E4, 167 }, 
	{ NOTE_G4, 499 }, 
	{ NOTE_F4, 1000 }, 
	{ NOTE_REST, 1333 }, 
	{ NOTE_REST, 1333 }, 
};
const uint16_t NUM_OF_NOTES1 = sizeof(melody1)/sizeof(melody1[0]);

const Note melody2[] PROGMEM = {
	{ NOTE_C4, 2000 }, 
	{ NOTE_C4, 167 }, 
	{ NOTE_AS3, 167 }, 
	{ NOTE_REST, 167 }, 
	{ NOTE_AS3, 332 }, 
	{ NOTE_GS3, 167 }, 
	{ NOTE_REST, 167 }, 
	{ NOTE_GS3, 1665 }, 
	{ NOTE_GS3, 167 }, 
	{ NOTE_AS3, 167 }, 
	{ NOTE_AS3, 499 }, 
	{ NOTE_AS3, 167 }, 
	{ NOTE_AS3, 167 }, 
	{ NOTE_AS3, 167 }, 
	{ NOTE_AS3, 167 }, 
	{ NOTE_AS3, 167 }, 
	{ NOTE_AS3, 165 }, 
	{ NOTE_AS3, 167 }, 
	{ NOTE_AS3, 167 }, 
	{ NOTE_AS3, 167 }, 
	{ NOTE_AS3, 167 }, 
	{ NOTE_AS3, 167 }, 
	{ NOTE_AS3, 167 }, 
	{ NOTE_AS3, 167 }, 
	{ NOTE_C4, 497 }, 
	{ NOTE_C4, 167 }, 
	{ NOTE_C4, 167 }, 
	{ NOTE_C4, 167 }, 
	{ NOTE_C4, 167 }, 
	{ NOTE_C4, 167 }, 
	{ NOTE_C4, 165 }, 
	{ NOTE_C4, 167 }, 
	{ NOTE_C4, 167 }, 
	{ NOTE_C4, 167 }, 
	{ NOTE_C4, 167 }, 
	{ NOTE_C4, 167 }, 
	{ NOTE_C4, 333 }, 
	{ NOTE_F3, 332 }, 
	{ NOTE_F3, 167 }, 
	{ NOTE_F3, 167 }, 
	{ NOTE_F3, 167 }, 
	{ NOTE_F3, 167 }, 
	{ NOTE_F3, 167 }, 
	{ NOTE_F3, 167 }, 
	{ NOTE_F3, 164 }, 
	{ NOTE_F3, 167 }, 
	{ NOTE_F3, 167 }, 
	{ NOTE_F3, 167 }, 
	{ NOTE_F3, 167 }, 
	{ NOTE_F3, 167 }, 
	{ NOTE_F3, 167 }, 
	{ NOTE_F3, 167 }, 
	{ NOTE_CS4, 331 }, 
	{ NOTE_CS4, 167 }, 
	{ NOTE_CS4, 167 }, 
	{ NOTE_CS4, 167 }, 
	{ NOTE_CS4, 167 }, 
	{ NOTE_CS4, 167 }, 
	{ NOTE_CS4, 167 }, 
	{ NOTE_CS4, 164 }, 
	{ NOTE_CS4, 167 }, 
	{ NOTE_CS4, 167 }, 
	{ NOTE_CS4, 167 }, 
	{ NOTE_CS4, 167 }, 
	{ NOTE_CS4, 167 }, 
	{ NOTE_CS4, 167 }, 
	{ NOTE_CS4, 167 }, 
	{ NOTE_AS3, 331 }, 
	{ NOTE_AS3, 167 }, 
	{ NOTE_AS3, 167 }, 
	{ NOTE_AS3, 167 }, 
	{ NOTE_AS3, 167 }, 
	{ NOTE_AS3, 167 }, 
	{ NOTE_AS3, 167 }, 
	{ NOTE_AS3, 164 }, 
	{ NOTE_AS3, 167 }, 
	{ NOTE_AS3, 167 }, 
	{ NOTE_AS3, 167 }, 
	{ NOTE_AS3, 167 }, 
	{ NOTE_AS3, 167 }, 
	{ NOTE_AS3, 167 }, 
	{ NOTE_AS3, 167 }, 
	{ NOTE_C4, 1497 }, 
	{ NOTE_C4, 167 }, 
	{ NOTE_C4, 167 }, 
	{ NOTE_C4, 167 }, 
	{ NOTE_C4, 167 }, 
	{ NOTE_C4, 167 }, 
	{ NOTE_C4, 167 }, 
	{ NOTE_C4, 167 }, 
	{ NOTE_F3, 331 }, 
	{ NOTE_F3, 167 }, 
	{ NOTE_F3, 167 }, 
	{ NOTE_F3, 167 }, 
	{ NOTE_F3, 167 }, 
	{ NOTE_F3, 167 }, 
	{ NOTE_F3, 167 }, 
	{ NOTE_F3, 164 }, 
	{ NOTE_F3, 167 }, 
	{ NOTE_F3, 167 }, 
	{ NOTE_F3, 167 }, 
	{ NOTE_F3, 167 }, 
	{ NOTE_F3, 167 }, 
	{ NOTE_F3, 167 }, 
	{ NOTE_F3, 167 }, 
	{ NOTE_CS4, 331 }, 
	{ NOTE_CS4, 167 }, 
	{ NOTE_CS4, 167 }, 
	{ NOTE_CS4, 167 }, 
	{ NOTE_CS4, 167 }, 
	{ NOTE_CS4, 167 }, 
	{ NOTE_CS4, 167 }, 
	{ NOTE_CS4, 164 }, 
	{ NOTE_CS4, 167 }, 
	{ NOTE_CS4, 167 }, 
	{ NOTE_CS4, 167 }, 
	{ NOTE_CS4, 167 }, 
	{ NOTE_CS4, 167 }, 
	{ NOTE_CS4, 167 }, 
	{ NOTE_CS4, 167 }, 
	{ NOTE_AS3, 331 }, 
	{ NOTE_AS3, 167 }, 
	{ NOTE_AS3, 167 }, 
	{ NOTE_AS3, 167 }, 
	{ NOTE_AS3, 167 }, 
	{ NOTE_AS3, 167 }, 
	{ NOTE_AS3, 167 }, 
	{ NOTE_AS3, 164 }, 
	{ NOTE_AS3, 167 }, 
	{ NOTE_AS3, 167 }, 
	{ NOTE_AS3, 167 }, 
	{ NOTE_AS3, 167 }, 
	{ NOTE_AS3, 167 }, 
	{ NOTE_AS3, 167 }, 
	{ NOTE_AS3, 167 }, 
	{ NOTE_C4, 1497 }, 
	{ NOTE_C4, 167 }, 
	{ NOTE_C4, 167 }, 
	{ NOTE_C4, 167 }, 
	{ NOTE_C4, 167 }, 
	{ NOTE_C4, 167 }, 
	{ NOTE_C4, 167 }, 
	{ NOTE_C4, 167 }, 
	{ NOTE_C4, 164 }, 
	{ NOTE_CS4, 2666 }, 
	{ NOTE_AS3, 2500 }, 
	{ NOTE_F3, 2666 }, 
	{ NOTE_CS4, 2832 }, 
	{ NOTE_DS4, 2500 }, 
	{ NOTE_C4, 2666 }, 
	{ NOTE_F3, 333 }, 
	{ NOTE_F3, 167 }, 
	{ NOTE_F3, 167 }, 
	{ NOTE_F3, 167 }, 
	{ NOTE_F3, 167 }, 
	{ NOTE_F3, 167 }, 
	{ NOTE_F3, 167 }, 
	{ NOTE_F3, 164 }, 
	{ NOTE_F3, 167 }, 
	{ NOTE_F3, 167 }, 
	{ NOTE_F3, 167 }, 
	{ NOTE_F3, 167 }, 
	{ NOTE_F3, 167 }, 
	{ NOTE_F3, 167 }, 
	{ NOTE_F3, 167 }, 
	{ NOTE_CS4, 331 }, 
	{ NOTE_CS4, 167 }, 
	{ NOTE_CS4, 167 }, 
	{ NOTE_CS4, 167 }, 
	{ NOTE_CS4, 167 }, 
	{ NOTE_CS4, 167 }, 
	{ NOTE_CS4, 167 }, 
	{ NOTE_CS4, 164 }, 
	{ NOTE_CS4, 167 }, 
	{ NOTE_CS4, 167 }, 
	{ NOTE_CS4, 167 }, 
	{ NOTE_CS4, 167 }, 
	{ NOTE_CS4, 167 }, 
	{ NOTE_CS4, 167 }, 
	{ NOTE_CS4, 167 }, 
	{ NOTE_AS3, 331 }, 
	{ NOTE_AS3, 167 }, 
	{ NOTE_AS3, 167 }, 
	{ NOTE_AS3, 167 }, 
	{ NOTE_AS3, 167 }, 
	{ NOTE_AS3, 167 }, 
	{ NOTE_AS3, 167 }, 
	{ NOTE_AS3, 164 }, 
	{ NOTE_AS3, 167 }, 
	{ NOTE_AS3, 167 }, 
	{ NOTE_AS3, 167 }, 
	{ NOTE_AS3, 167 }, 
	{ NOTE_AS3, 167 }, 
	{ NOTE_AS3, 167 }, 
	{ NOTE_AS3, 167 }, 
	{ NOTE_C4, 1664 }, 
	{ NOTE_C4, 167 }, 
	{ NOTE_C4, 167 }, 
	{ NOTE_C4, 167 }, 
	{ NOTE_C4, 167 }, 
	{ NOTE_C4, 167 }, 
	{ NOTE_C4, 167 }, 
	{ NOTE_F3, 331 }, 
	{ NOTE_F3, 167 }, 
	{ NOTE_F3, 167 }, 
	{ NOTE_F3, 167 }, 
	{ NOTE_F3, 167 }, 
	{ NOTE_F3, 167 }, 
	{ NOTE_F3, 167 }, 
	{ NOTE_F3, 164 }, 
	{ NOTE_F3, 167 }, 
	{ NOTE_F3, 167 }, 
	{ NOTE_F3, 167 }, 
	{ NOTE_F3, 167 }, 
	{ NOTE_F3, 167 }, 
	{ NOTE_F3, 167 }, 
	{ NOTE_F3, 167 }, 
	{ NOTE_CS4, 331 }, 
	{ NOTE_CS4, 167 }, 
	{ NOTE_CS4, 167 }, 
	{ NOTE_CS4, 167 }, 
	{ NOTE_CS4, 167 }, 
	{ NOTE_CS4, 167 }, 
	{ NOTE_CS4, 167 }, 
	{ NOTE_CS4, 164 }, 
	{ NOTE_CS4, 167 }, 
	{ NOTE_CS4, 167 }, 
	{ NOTE_CS4, 167 }, 
	{ NOTE_CS4, 167 }, 
	{ NOTE_CS4, 167 }, 
	{ NOTE_CS4, 167 }, 
	{ NOTE_CS4, 167 }, 
	{ NOTE_DS4, 1331 }, 
	{ NOTE_C4, 1333 }, 
	{ NOTE_C4, 1499 }, 
	{ NOTE_C4, 167 }, 
	{ NOTE_C4, 167 }, 
	{ NOTE_C4, 167 }, 
	{ NOTE_C4, 167 }, 
	{ NOTE_C4, 167 }, 
	{ NOTE_C4, 167 }, 
	{ NOTE_C4, 167 }, 
	{ NOTE_C4, 831 }, 
	{ NOTE_REST, 666 }, 
};
const uint16_t NUM_OF_NOTES2 = sizeof(melody2)/sizeof(melody2[0]);

const Note melody3[] PROGMEM = {
	{ NOTE_F4, 2000 }, 
	{ NOTE_F4, 167 }, 
	{ NOTE_DS4, 167 }, 
	{ NOTE_REST, 167 }, 
	{ NOTE_DS4, 332 }, 
	{ NOTE_CS4, 167 }, 
	{ NOTE_REST, 167 }, 
	{ NOTE_CS4, 1665 }, 
	{ NOTE_CS4, 167 }, 
	{ NOTE_DS4, 167 }, 
	{ NOTE_F4, 499 }, 
	{ NOTE_F4, 167 }, 
	{ NOTE_AS3, 167 }, 
	{ NOTE_AS3, 167 }, 
	{ NOTE_F4, 167 }, 
	{ NOTE_AS3, 167 }, 
	{ NOTE_AS3, 165 }, 
	{ NOTE_F4, 167 }, 
	{ NOTE_AS3, 167 }, 
	{ NOTE_AS3, 167 }, 
	{ NOTE_F4, 167 }, 
	{ NOTE_AS3, 167 }, 
	{ NOTE_F4, 167 }, 
	{ NOTE_AS3, 167 }, 
	{ NOTE_G4, 497 }, 
	{ NOTE_G4, 167 }, 
	{ NOTE_C4, 167 }, 
	{ NOTE_C4, 167 }, 
	{ NOTE_G4, 167 }, 
	{ NOTE_C4, 167 }, 
	{ NOTE_C4, 165 }, 
	{ NOTE_G4, 167 }, 
	{ NOTE_C4, 167 }, 
	{ NOTE_C4, 167 }, 
	{ NOTE_G4, 167 }, 
	{ NOTE_C4, 167 }, 
	{ NOTE_G4, 333 }, 
	{ NOTE_C4, 332 }, 
	{ NOTE_F3, 167 }, 
	{ NOTE_F3, 167 }, 
	{ NOTE_F3, 167 }, 
	{ NOTE_F3, 167 }, 
	{ NOTE_F3, 167 }, 
	{ NOTE_F3, 167 }, 
	{ NOTE_F3, 164 }, 
	{ NOTE_F3, 167 }, 
	{ NOTE_C4, 167 }, 
	{ NOTE_F3, 167 }, 
	{ NOTE_F3, 167 }, 
	{ NOTE_C4, 167 }, 
	{ NOTE_F3, 167 }, 
	{ NOTE_F3, 167 }, 
	{ NOTE_GS4, 331 }, 
	{ NOTE_CS4, 167 }, 
	{ NOTE_CS4, 167 }, 
	{ NOTE_CS4, 167 }, 
	{ NOTE_CS4, 167 }, 
	{ NOTE_CS4, 167 }, 
	{ NOTE_CS4, 167 }, 
	{ NOTE_CS4, 164 }, 
	{ NOTE_CS4, 167 }, 
	{ NOTE_GS4, 167 }, 
	{ NOTE_CS4, 167 }, 
	{ NOTE_CS4, 167 }, 
	{ NOTE_GS4, 167 }, 
	{ NOTE_CS4, 167 }, 
	{ NOTE_CS4, 167 }, 
	{ NOTE_F4, 331 }, 
	{ NOTE_AS3, 167 }, 
	{ NOTE_AS3, 167 }, 
	{ NOTE_AS3, 167 }, 
	{ NOTE_AS3, 167 }, 
	{ NOTE_AS3, 167 }, 
	{ NOTE_AS3, 167 }, 
	{ NOTE_AS3, 164 }, 
	{ NOTE_AS3, 167 }, 
	{ NOTE_F4, 167 }, 
	{ NOTE_AS3, 167 }, 
	{ NOTE_AS3, 167 }, 
	{ NOTE_F4, 167 }, 
	{ NOTE_AS3, 167 }, 
	{ NOTE_AS3, 167 }, 
	{ NOTE_G4, 1497 }, 
	{ NOTE_C4, 167 }, 
	{ NOTE_G4, 167 }, 
	{ NOTE_C4, 167 }, 
	{ NOTE_C4, 167 }, 
	{ NOTE_G4, 167 }, 
	{ NOTE_C4, 167 }, 
	{ NOTE_C4, 167 }, 
	{ NOTE_C4, 331 }, 
	{ NOTE_F3, 167 }, 
	{ NOTE_F3, 167 }, 
	{ NOTE_F3, 167 }, 
	{ NOTE_F3, 167 }, 
	{ NOTE_F3, 167 }, 
	{ NOTE_F3, 167 }, 
	{ NOTE_F3, 164 }, 
	{ NOTE_F3, 167 }, 
	{ NOTE_C4, 167 }, 
	{ NOTE_F3, 167 }, 
	{ NOTE_F3, 167 }, 
	{ NOTE_C4, 167 }, 
	{ NOTE_F3, 167 }, 
	{ NOTE_F3, 167 }, 
	{ NOTE_GS4, 331 }, 
	{ NOTE_CS4, 167 }, 
	{ NOTE_CS4, 167 }, 
	{ NOTE_CS4, 167 }, 
	{ NOTE_CS4, 167 }, 
	{ NOTE_CS4, 167 }, 
	{ NOTE_CS4, 167 }, 
	{ NOTE_CS4, 164 }, 
	{ NOTE_CS4, 167 }, 
	{ NOTE_GS4, 167 }, 
	{ NOTE_CS4, 167 }, 
	{ NOTE_CS4, 167 }, 
	{ NOTE_GS4, 167 }, 
	{ NOTE_CS4, 167 }, 
	{ NOTE_CS4, 167 }, 
	{ NOTE_F4, 331 }, 
	{ NOTE_AS3, 167 }, 
	{ NOTE_AS3, 167 }, 
	{ NOTE_AS3, 167 }, 
	{ NOTE_AS3, 167 }, 
	{ NOTE_AS3, 167 }, 
	{ NOTE_AS3, 167 }, 
	{ NOTE_AS3, 164 }, 
	{ NOTE_AS3, 167 }, 
	{ NOTE_F4, 167 }, 
	{ NOTE_AS3, 167 }, 
	{ NOTE_AS3, 167 }, 
	{ NOTE_F4, 167 }, 
	{ NOTE_AS3, 167 }, 
	{ NOTE_AS3, 167 }, 
	{ NOTE_G4, 1497 }, 
	{ NOTE_C4, 167 }, 
	{ NOTE_G4, 167 }, 
	{ NOTE_C4, 167 }, 
	{ NOTE_C4, 167 }, 
	{ NOTE_G4, 167 }, 
	{ NOTE_C4, 167 }, 
	{ NOTE_C4, 167 }, 
	{ NOTE_G4, 164 }, 
	{ NOTE_GS4, 2666 }, 
	{ NOTE_F4, 2500 }, 
	{ NOTE_C4, 2666 }, 
	{ NOTE_GS4, 2832 }, 
	{ NOTE_AS4, 2500 }, 
	{ NOTE_G4, 2666 }, 
	{ NOTE_C4, 333 }, 
	{ NOTE_F3, 167 }, 
	{ NOTE_F3, 167 }, 
	{ NOTE_F3, 167 }, 
	{ NOTE_F3, 167 }, 
	{ NOTE_F3, 167 }, 
	{ NOTE_F3, 167 }, 
	{ NOTE_F3, 164 }, 
	{ NOTE_F3, 167 }, 
	{ NOTE_C4, 167 }, 
	{ NOTE_F3, 167 }, 
	{ NOTE_F3, 167 }, 
	{ NOTE_C4, 167 }, 
	{ NOTE_F3, 167 }, 
	{ NOTE_F3, 167 }, 
	{ NOTE_GS4, 331 }, 
	{ NOTE_CS4, 167 }, 
	{ NOTE_CS4, 167 }, 
	{ NOTE_CS4, 167 }, 
	{ NOTE_CS4, 167 }, 
	{ NOTE_CS4, 167 }, 
	{ NOTE_CS4, 167 }, 
	{ NOTE_CS4, 164 }, 
	{ NOTE_CS4, 167 }, 
	{ NOTE_GS4, 167 }, 
	{ NOTE_CS4, 167 }, 
	{ NOTE_CS4, 167 }, 
	{ NOTE_GS4, 167 }, 
	{ NOTE_CS4, 167 }, 
	{ NOTE_CS4, 167 }, 
	{ NOTE_F4, 331 }, 
	{ NOTE_AS3, 167 }, 
	{ NOTE_AS3, 167 }, 
	{ NOTE_AS3, 167 }, 
	{ NOTE_AS3, 167 }, 
	{ NOTE_AS3, 167 }, 
	{ NOTE_AS3, 167 }, 
	{ NOTE_AS3, 164 }, 
	{ NOTE_AS3, 167 }, 
	{ NOTE_AS3, 167 }, 
	{ NOTE_AS3, 167 }, 
	{ NOTE_AS3, 167 }, 
	{ NOTE_AS3, 167 }, 
	{ NOTE_AS3, 167 }, 
	{ NOTE_AS3, 167 }, 
	{ NOTE_G4, 1664 }, 
	{ NOTE_G4, 167 }, 
	{ NOTE_C4, 167 }, 
	{ NOTE_C4, 167 }, 
	{ NOTE_G4, 167 }, 
	{ NOTE_C4, 167 }, 
	{ NOTE_C4, 167 }, 
	{ NOTE_C4, 331 }, 
	{ NOTE_F3, 167 }, 
	{ NOTE_F3, 167 }, 
	{ NOTE_F3, 167 }, 
	{ NOTE_F3, 167 }, 
	{ NOTE_F3, 167 }, 
	{ NOTE_F3, 167 }, 
	{ NOTE_F3, 164 }, 
	{ NOTE_F3, 167 }, 
	{ NOTE_C4, 167 }, 
	{ NOTE_F3, 167 }, 
	{ NOTE_F3, 167 }, 
	{ NOTE_C4, 167 }, 
	{ NOTE_F3, 167 }, 
	{ NOTE_F3, 167 }, 
	{ NOTE_GS4, 331 }, 
	{ NOTE_CS4, 167 }, 
	{ NOTE_CS4, 167 }, 
	{ NOTE_CS4, 167 }, 
	{ NOTE_CS4, 167 }, 
	{ NOTE_CS4, 167 }, 
	{ NOTE_CS4, 167 }, 
	{ NOTE_CS4, 164 }, 
	{ NOTE_CS4, 167 }, 
	{ NOTE_GS4, 167 }, 
	{ NOTE_CS4, 167 }, 
	{ NOTE_CS4, 167 }, 
	{ NOTE_GS4, 167 }, 
	{ NOTE_CS4, 167 }, 
	{ NOTE_CS4, 167 }, 
	{ NOTE_AS4, 1331 }, 
	{ NOTE_G4, 1333 }, 
	{ NOTE_F4, 1499 }, 
	{ NOTE_C4, 167 }, 
	{ NOTE_F4, 167 }, 
	{ NOTE_C4, 167 }, 
	{ NOTE_C4, 167 }, 
	{ NOTE_F4, 167 }, 
	{ NOTE_F4, 167 }, 
	{ NOTE_C4, 167 }, 
	{ NOTE_F4, 831 }, 
	{ NOTE_REST, 666 }, 
};
const uint16_t NUM_OF_NOTES3 = sizeof(melody3)/sizeof(melody3[0]);

const Note melody4[] PROGMEM = {
	{ NOTE_F2, 1833 }, 
	{ NOTE_F2, 167 }, 
	{ NOTE_F3, 167 }, 
	{ NOTE_DS3, 333 }, 
	{ NOTE_CS3, 2333 }, 
	{ NOTE_CS3, 167 }, 
	{ NOTE_C3, 167 }, 
	{ NOTE_AS2, 332 }, 
	{ NOTE_AS2, 167 }, 
	{ NOTE_AS2, 167 }, 
	{ NOTE_AS2, 167 }, 
	{ NOTE_AS2, 167 }, 
	{ NOTE_AS2, 167 }, 
	{ NOTE_AS2, 167 }, 
	{ NOTE_AS2, 164 }, 
	{ NOTE_AS2, 167 }, 
	{ NOTE_AS2, 167 }, 
	{ NOTE_AS2, 167 }, 
	{ NOTE_AS2, 167 }, 
	{ NOTE_AS2, 167 }, 
	{ NOTE_AS2, 167 }, 
	{ NOTE_AS2, 167 }, 
	{ NOTE_C3, 331 }, 
	{ NOTE_C3, 167 }, 
	{ NOTE_C3, 167 }, 
	{ NOTE_C3, 167 }, 
	{ NOTE_C3, 167 }, 
	{ NOTE_C3, 167 }, 
	{ NOTE_C3, 167 }, 
	{ NOTE_C3, 164 }, 
	{ NOTE_C3, 167 }, 
	{ NOTE_C3, 167 }, 
	{ NOTE_C3, 167 }, 
	{ NOTE_C3, 167 }, 
	{ NOTE_C3, 167 }, 
	{ NOTE_C3, 167 }, 
	{ NOTE_C3, 167 }, 
	{ NOTE_F3, 331 }, 
	{ NOTE_F3, 167 }, 
	{ NOTE_F3, 167 }, 
	{ NOTE_F3, 167 }, 
	{ NOTE_F3, 167 }, 
	{ NOTE_F3, 167 }, 
	{ NOTE_F3, 167 }, 
	{ NOTE_F3, 164 }, 
	{ NOTE_F3, 167 }, 
	{ NOTE_F3, 167 }, 
	{ NOTE_F3, 167 }, 
	{ NOTE_C3, 167 }, 
	{ NOTE_F3, 167 }, 
	{ NOTE_DS3, 333 }, 
	{ NOTE_CS3, 332 }, 
	{ NOTE_CS3, 167 }, 
	{ NOTE_CS3, 167 }, 
	{ NOTE_CS3, 167 }, 
	{ NOTE_CS3, 167 }, 
	{ NOTE_CS3, 167 }, 
	{ NOTE_CS3, 167 }, 
	{ NOTE_CS3, 164 }, 
	{ NOTE_CS3, 167 }, 
	{ NOTE_CS3, 167 }, 
	{ NOTE_CS3, 167 }, 
	{ NOTE_CS3, 167 }, 
	{ NOTE_CS3, 167 }, 
	{ NOTE_CS3, 167 }, 
	{ NOTE_C3, 167 }, 
	{ NOTE_AS2, 331 }, 
	{ NOTE_AS2, 167 }, 
	{ NOTE_AS2, 167 }, 
	{ NOTE_AS2, 167 }, 
	{ NOTE_AS2, 167 }, 
	{ NOTE_AS2, 167 }, 
	{ NOTE_AS2, 167 }, 
	{ NOTE_AS2, 164 }, 
	{ NOTE_AS2, 167 }, 
	{ NOTE_AS2, 167 }, 
	{ NOTE_AS2, 167 }, 
	{ NOTE_AS2, 167 }, 
	{ NOTE_AS2, 167 }, 
	{ NOTE_AS2, 167 }, 
	{ NOTE_AS2, 167 }, 
	{ NOTE_C3, 331 }, 
	{ NOTE_C3, 167 }, 
	{ NOTE_C3, 167 }, 
	{ NOTE_C3, 167 }, 
	{ NOTE_C3, 167 }, 
	{ NOTE_C3, 167 }, 
	{ NOTE_C3, 167 }, 
	{ NOTE_C3, 164 }, 
	{ NOTE_C3, 167 }, 
	{ NOTE_C3, 167 }, 
	{ NOTE_C3, 167 }, 
	{ NOTE_C3, 167 }, 
	{ NOTE_C3, 167 }, 
	{ NOTE_C3, 167 }, 
	{ NOTE_C3, 167 }, 
	{ NOTE_F3, 331 }, 
	{ NOTE_F3, 167 }, 
	{ NOTE_F3, 167 }, 
	{ NOTE_F3, 167 }, 
	{ NOTE_F3, 167 }, 
	{ NOTE_F3, 167 }, 
	{ NOTE_F3, 167 }, 
	{ NOTE_F3, 164 }, 
	{ NOTE_F3, 167 }, 
	{ NOTE_F3, 167 }, 
	{ NOTE_F3, 167 }, 
	{ NOTE_C3, 167 }, 
	{ NOTE_F3, 167 }, 
	{ NOTE_DS3, 333 }, 
	{ NOTE_CS3, 332 }, 
	{ NOTE_CS3, 167 }, 
	{ NOTE_CS3, 167 }, 
	{ NOTE_CS3, 167 }, 
	{ NOTE_CS3, 167 }, 
	{ NOTE_CS3, 167 }, 
	{ NOTE_CS3, 167 }, 
	{ NOTE_CS3, 164 }, 
	{ NOTE_CS3, 167 }, 
	{ NOTE_CS3, 167 }, 
	{ NOTE_CS3, 167 }, 
	{ NOTE_CS3, 167 }, 
	{ NOTE_CS3, 167 }, 
	{ NOTE_CS3, 167 }, 
	{ NOTE_C3, 167 }, 
	{ NOTE_AS2, 331 }, 
	{ NOTE_AS2, 167 }, 
	{ NOTE_AS2, 167 }, 
	{ NOTE_AS2, 167 }, 
	{ NOTE_AS2, 167 }, 
	{ NOTE_AS2, 167 }, 
	{ NOTE_AS2, 167 }, 
	{ NOTE_AS2, 164 }, 
	{ NOTE_AS2, 167 }, 
	{ NOTE_AS2, 167 }, 
	{ NOTE_AS2, 167 }, 
	{ NOTE_AS2, 167 }, 
	{ NOTE_AS2, 167 }, 
	{ NOTE_AS2, 167 }, 
	{ NOTE_AS2, 167 }, 
	{ NOTE_C3, 331 }, 
	{ NOTE_C3, 167 }, 
	{ NOTE_C3, 167 }, 
	{ NOTE_C3, 167 }, 
	{ NOTE_C3, 167 }, 
	{ NOTE_C3, 167 }, 
	{ NOTE_C3, 167 }, 
	{ NOTE_C3, 164 }, 
	{ NOTE_C3, 167 }, 
	{ NOTE_C3, 167 }, 
	{ NOTE_C3, 167 }, 
	{ NOTE_C3, 167 }, 
	{ NOTE_C3, 167 }, 
	{ NOTE_C3, 167 }, 
	{ NOTE_C3, 167 }, 
	{ NOTE_C3, 164 }, 
	{ NOTE_CS3, 500 }, 
	{ NOTE_CS3, 833 }, 
	{ NOTE_CS3, 500 }, 
	{ NOTE_CS3, 333 }, 
	{ NOTE_CS3, 167 }, 
	{ NOTE_C3, 333 }, 
	{ NOTE_AS2, 500 }, 
	{ NOTE_AS2, 833 }, 
	{ NOTE_AS2, 500 }, 
	{ NOTE_AS2, 667 }, 
	{ NOTE_F2, 333 }, 
	{ NOTE_F2, 167 }, 
	{ NOTE_GS2, 167 }, 
	{ NOTE_C3, 167 }, 
	{ NOTE_GS3, 167 }, 
	{ NOTE_F3, 333 }, 
	{ NOTE_F2, 165 }, 
	{ NOTE_GS2, 167 }, 
	{ NOTE_C3, 167 }, 
	{ NOTE_GS3, 167 }, 
	{ NOTE_F3, 667 }, 
	{ NOTE_CS3, 665 }, 
	{ NOTE_CS3, 833 }, 
	{ NOTE_CS3, 500 }, 
	{ NOTE_CS3, 333 }, 
	{ NOTE_CS3, 167 }, 
	{ NOTE_CS3, 333 }, 
	{ NOTE_DS3, 500 }, 
	{ NOTE_DS3, 833 }, 
	{ NOTE_DS3, 500 }, 
	{ NOTE_DS3, 667 }, 
	{ NOTE_C3, 333 }, 
	{ NOTE_C3, 167 }, 
	{ NOTE_E3, 167 }, 
	{ NOTE_G3, 167 }, 
	{ NOTE_C4, 167 }, 
	{ NOTE_AS3, 333 }, 
	{ NOTE_C4, 332 }, 
	{ NOTE_C3, 167 }, 
	{ NOTE_C3, 167 }, 
	{ NOTE_C3, 167 }, 
	{ NOTE_C3, 167 }, 
	{ NOTE_C3, 167 }, 
	{ NOTE_C3, 167 }, 
	{ NOTE_F3, 331 }, 
	{ NOTE_F3, 167 }, 
	{ NOTE_F3, 167 }, 
	{ NOTE_F3, 167 }, 
	{ NOTE_F3, 167 }, 
	{ NOTE_F3, 167 }, 
	{ NOTE_F3, 167 }, 
	{ NOTE_F3, 164 }, 
	{ NOTE_F3, 167 }, 
	{ NOTE_F3, 167 }, 
	{ NOTE_F3, 167 }, 
	{ NOTE_C3, 167 }, 
	{ NOTE_F3, 167 }, 
	{ NOTE_DS3, 333 }, 
	{ NOTE_CS3, 332 }, 
	{ NOTE_CS3, 167 }, 
	{ NOTE_CS3, 167 }, 
	{ NOTE_CS3, 167 }, 
	{ NOTE_CS3, 167 }, 
	{ NOTE_CS3, 167 }, 
	{ NOTE_CS3, 167 }, 
	{ NOTE_CS3, 164 }, 
	{ NOTE_CS3, 167 }, 
	{ NOTE_CS3, 167 }, 
	{ NOTE_CS3, 167 }, 
	{ NOTE_CS3, 167 }, 
	{ NOTE_CS3, 167 }, 
	{ NOTE_CS3, 167 }, 
	{ NOTE_C3, 167 }, 
	{ NOTE_AS2, 331 }, 
	{ NOTE_AS2, 167 }, 
	{ NOTE_AS2, 167 }, 
	{ NOTE_AS2, 167 }, 
	{ NOTE_AS2, 167 }, 
	{ NOTE_AS2, 167 }, 
	{ NOTE_AS2, 167 }, 
	{ NOTE_AS2, 164 }, 
	{ NOTE_AS2, 167 }, 
	{ NOTE_AS2, 167 }, 
	{ NOTE_AS2, 167 }, 
	{ NOTE_AS2, 167 }, 
	{ NOTE_AS2, 167 }, 
	{ NOTE_AS2, 167 }, 
	{ NOTE_AS2, 167 }, 
	{ NOTE_C3, 331 }, 
	{ NOTE_C3, 167 }, 
	{ NOTE_C3, 167 }, 
	{ NOTE_C3, 167 }, 
	{ NOTE_C3, 167 }, 
	{ NOTE_C3, 167 }, 
	{ NOTE_C3, 167 }, 
	{ NOTE_C3, 164 }, 
	{ NOTE_C3, 167 }, 
	{ NOTE_C3, 167 }, 
	{ NOTE_C3, 167 }, 
	{ NOTE_C3, 167 }, 
	{ NOTE_C3, 167 }, 
	{ NOTE_C3, 167 }, 
	{ NOTE_C3, 167 }, 
	{ NOTE_F3, 331 }, 
	{ NOTE_F3, 167 }, 
	{ NOTE_F3, 167 }, 
	{ NOTE_F3, 167 }, 
	{ NOTE_F3, 167 }, 
	{ NOTE_F3, 167 }, 
	{ NOTE_F3, 167 }, 
	{ NOTE_F3, 164 }, 
	{ NOTE_F3, 167 }, 
	{ NOTE_F3, 167 }, 
	{ NOTE_F3, 167 }, 
	{ NOTE_C3, 167 }, 
	{ NOTE_F3, 167 }, 
	{ NOTE_DS3, 333 }, 
	{ NOTE_CS3, 332 }, 
	{ NOTE_CS3, 167 }, 
	{ NOTE_CS3, 167 }, 
	{ NOTE_CS3, 167 }, 
	{ NOTE_CS3, 167 }, 
	{ NOTE_CS3, 167 }, 
	{ NOTE_CS3, 167 }, 
	{ NOTE_CS3, 164 }, 
	{ NOTE_CS3, 167 }, 
	{ NOTE_CS3, 167 }, 
	{ NOTE_CS3, 167 }, 
	{ NOTE_CS3, 167 }, 
	{ NOTE_CS3, 167 }, 
	{ NOTE_CS3, 167 }, 
	{ NOTE_CS3, 167 }, 
	{ NOTE_DS3, 331 }, 
	{ NOTE_DS3, 167 }, 
	{ NOTE_DS3, 167 }, 
	{ NOTE_DS3, 167 }, 
	{ NOTE_DS3, 167 }, 
	{ NOTE_DS3, 167 }, 
	{ NOTE_DS3, 167 }, 
	{ NOTE_E3, 331 }, 
	{ NOTE_E3, 167 }, 
	{ NOTE_E3, 167 }, 
	{ NOTE_E3, 167 }, 
	{ NOTE_E3, 167 }, 
	{ NOTE_E3, 167 }, 
	{ NOTE_E3, 167 }, 
	{ NOTE_F3, 1497 }, 
	{ NOTE_F2, 167 }, 
	{ NOTE_F3, 167 }, 
	{ NOTE_F2, 167 }, 
	{ NOTE_F2, 167 }, 
	{ NOTE_F3, 167 }, 
	{ NOTE_F3, 167 }, 
	{ NOTE_F2, 167 }, 
	{ NOTE_F3, 831 }, 
	{ NOTE_REST, 666 }, 
};
const uint16_t NUM_OF_NOTES4 = sizeof(melody4)/sizeof(melody4[0]);

