/*
 * Song: Out of the Ashes by Symphony X
 *
 *	Melody 0 | Michael Romeo Lead
 *	Melody 1 | Michael Pinella Lead
 *	Melody 2 | Michael Romeo Solos
 *	Melody 3 | Michael Pinella Solos
 *	Melody 4 | Thomas Miller
*/

#include <Arduino.h>
#include "notes.h"

const Note melody0[] PROGMEM = {
	{ NOTE_AS3, 222 }, 
	{ NOTE_AS3, 222 }, 
	{ NOTE_AS3, 222 }, 
	{ NOTE_AS3, 222 }, 
	{ NOTE_AS3, 222 }, 
	{ NOTE_AS3, 222 }, 
	{ NOTE_AS3, 222 }, 
	{ NOTE_AS3, 224 }, 
	{ NOTE_AS3, 222 }, 
	{ NOTE_AS3, 222 }, 
	{ NOTE_AS3, 222 }, 
	{ NOTE_AS3, 222 }, 
	{ NOTE_AS3, 222 }, 
	{ NOTE_AS3, 222 }, 
	{ NOTE_AS3, 222 }, 
	{ NOTE_AS3, 111 }, 
	{ NOTE_AS3, 113 }, 
	{ NOTE_AS3, 222 }, 
	{ NOTE_AS3, 222 }, 
	{ NOTE_AS3, 222 }, 
	{ NOTE_AS3, 222 }, 
	{ NOTE_AS3, 222 }, 
	{ NOTE_AS3, 222 }, 
	{ NOTE_AS3, 222 }, 
	{ NOTE_AS3, 224 }, 
	{ NOTE_AS3, 222 }, 
	{ NOTE_AS3, 222 }, 
	{ NOTE_AS3, 111 }, 
	{ NOTE_AS3, 111 }, 
	{ NOTE_AS3, 111 }, 
	{ NOTE_AS3, 112 }, 
	{ NOTE_C4, 444 }, 
	{ NOTE_AS3, 444 }, 
	{ NOTE_GS3, 444 }, 
	{ NOTE_E3, 446 }, 
	{ NOTE_F3, 444 }, 
	{ NOTE_B3, 444 }, 
	{ NOTE_C4, 890 }, 
	{ NOTE_F3, 222 }, 
	{ NOTE_F3, 222 }, 
	{ NOTE_F3, 222 }, 
	{ NOTE_F3, 222 }, 
	{ NOTE_F3, 222 }, 
	{ NOTE_G3, 222 }, 
	{ NOTE_GS3, 222 }, 
	{ NOTE_AS3, 222 }, 
	{ NOTE_C4, 222 }, 
	{ NOTE_G3, 222 }, 
	{ NOTE_C4, 222 }, 
	{ NOTE_D4, 222 }, 
	{ NOTE_E4, 222 }, 
	{ NOTE_C4, 225 }, 
	{ NOTE_F4, 222 }, 
	{ NOTE_F3, 222 }, 
	{ NOTE_CS4, 222 }, 
	{ NOTE_C4, 222 }, 
	{ NOTE_AS3, 222 }, 
	{ NOTE_CS4, 222 }, 
	{ NOTE_G3, 222 }, 
	{ NOTE_B3, 222 }, 
	{ NOTE_C4, 222 }, 
	{ NOTE_CS4, 222 }, 
	{ NOTE_C4, 222 }, 
	{ NOTE_AS3, 222 }, 
	{ NOTE_GS3, 222 }, 
	{ NOTE_G3, 225 }, 
	{ NOTE_F3, 222 }, 
	{ NOTE_F3, 222 }, 
	{ NOTE_F3, 222 }, 
	{ NOTE_F3, 222 }, 
	{ NOTE_F3, 222 }, 
	{ NOTE_G3, 222 }, 
	{ NOTE_GS3, 222 }, 
	{ NOTE_AS3, 222 }, 
	{ NOTE_C4, 222 }, 
	{ NOTE_G3, 222 }, 
	{ NOTE_C4, 222 }, 
	{ NOTE_D4, 222 }, 
	{ NOTE_E4, 222 }, 
	{ NOTE_C4, 225 }, 
	{ NOTE_F4, 222 }, 
	{ NOTE_F3, 222 }, 
	{ NOTE_CS4, 222 }, 
	{ NOTE_C4, 222 }, 
	{ NOTE_AS3, 222 }, 
	{ NOTE_CS4, 222 }, 
	{ NOTE_G3, 222 }, 
	{ NOTE_B3, 222 }, 
	{ NOTE_C4, 222 }, 
	{ NOTE_CS4, 222 }, 
	{ NOTE_C4, 222 }, 
	{ NOTE_AS3, 222 }, 
	{ NOTE_GS3, 222 }, 
	{ NOTE_G3, 225 }, 
	{ NOTE_F3, 444 }, 
	{ NOTE_CS4, 444 }, 
	{ NOTE_F3, 444 }, 
	{ NOTE_G3, 446 }, 
	{ NOTE_C4, 444 }, 
	{ NOTE_F3, 444 }, 
	{ NOTE_B3, 444 }, 
	{ NOTE_C4, 446 }, 
	{ NOTE_GS3, 444 }, 
	{ NOTE_F3, 444 }, 
	{ NOTE_G3, 667 }, 
	{ NOTE_GS3, 223 }, 
	{ NOTE_A3, 444 }, 
	{ NOTE_D3, 444 }, 
	{ NOTE_GS3, 444 }, 
	{ NOTE_A3, 446 }, 
	{ NOTE_F3, 444 }, 
	{ NOTE_D3, 444 }, 
	{ NOTE_E3, 890 }, 
	{ NOTE_A3, 222 }, 
	{ NOTE_A3, 222 }, 
	{ NOTE_A3, 222 }, 
	{ NOTE_A3, 222 }, 
	{ NOTE_A3, 222 }, 
	{ NOTE_B3, 222 }, 
	{ NOTE_C4, 222 }, 
	{ NOTE_D4, 222 }, 
	{ NOTE_E4, 222 }, 
	{ NOTE_B3, 222 }, 
	{ NOTE_E4, 222 }, 
	{ NOTE_FS4, 222 }, 
	{ NOTE_GS4, 222 }, 
	{ NOTE_E4, 225 }, 
	{ NOTE_A4, 222 }, 
	{ NOTE_A3, 222 }, 
	{ NOTE_F4, 222 }, 
	{ NOTE_E4, 222 }, 
	{ NOTE_D4, 222 }, 
	{ NOTE_F4, 222 }, 
	{ NOTE_B3, 222 }, 
	{ NOTE_DS4, 222 }, 
	{ NOTE_E4, 222 }, 
	{ NOTE_F4, 222 }, 
	{ NOTE_E4, 222 }, 
	{ NOTE_D4, 222 }, 
	{ NOTE_C4, 222 }, 
	{ NOTE_B3, 225 }, 
	{ NOTE_A3, 444 }, 
	{ NOTE_F4, 444 }, 
	{ NOTE_A3, 444 }, 
	{ NOTE_B3, 446 }, 
	{ NOTE_REST, 222 }, 
	{ NOTE_A3, 222 }, 
	{ NOTE_REST, 222 }, 
	{ NOTE_F4, 222 }, 
	{ NOTE_REST, 222 }, 
	{ NOTE_A3, 222 }, 
	{ NOTE_REST, 222 }, 
	{ NOTE_B3, 224 }, 
	{ NOTE_C4, 1778 }, 
	{ NOTE_C4, 111 }, 
	{ NOTE_D4, 111 }, 
	{ NOTE_G3, 111 }, 
	{ NOTE_G3, 111 }, 
	{ NOTE_G3, 111 }, 
	{ NOTE_G3, 111 }, 
	{ NOTE_G3, 111 }, 
	{ NOTE_G3, 111 }, 
	{ NOTE_G3, 111 }, 
	{ NOTE_G3, 111 }, 
	{ NOTE_G3, 111 }, 
	{ NOTE_G3, 111 }, 
	{ NOTE_G3, 111 }, 
	{ NOTE_G3, 111 }, 
	{ NOTE_G3, 111 }, 
	{ NOTE_G3, 113 }, 
	{ NOTE_C4, 111 }, 
	{ NOTE_D4, 111 }, 
	{ NOTE_G3, 111 }, 
	{ NOTE_DS4, 111 }, 
	{ NOTE_D4, 111 }, 
	{ NOTE_G3, 111 }, 
	{ NOTE_C4, 111 }, 
	{ NOTE_D4, 111 }, 
	{ NOTE_G3, 111 }, 
	{ NOTE_G3, 111 }, 
	{ NOTE_G3, 111 }, 
	{ NOTE_G3, 111 }, 
	{ NOTE_G3, 111 }, 
	{ NOTE_G3, 111 }, 
	{ NOTE_G3, 111 }, 
	{ NOTE_G3, 113 }, 
	{ NOTE_C4, 111 }, 
	{ NOTE_D4, 111 }, 
	{ NOTE_G3, 111 }, 
	{ NOTE_G3, 111 }, 
	{ NOTE_G3, 111 }, 
	{ NOTE_G3, 111 }, 
	{ NOTE_G3, 111 }, 
	{ NOTE_G3, 111 }, 
	{ NOTE_G3, 111 }, 
	{ NOTE_G3, 111 }, 
	{ NOTE_G3, 111 }, 
	{ NOTE_G3, 111 }, 
	{ NOTE_G3, 111 }, 
	{ NOTE_G3, 111 }, 
	{ NOTE_G3, 111 }, 
	{ NOTE_G3, 113 }, 
	{ NOTE_C4, 111 }, 
	{ NOTE_D4, 111 }, 
	{ NOTE_G3, 111 }, 
	{ NOTE_DS4, 111 }, 
	{ NOTE_D4, 111 }, 
	{ NOTE_G3, 111 }, 
	{ NOTE_C4, 111 }, 
	{ NOTE_D4, 111 }, 
	{ NOTE_G3, 111 }, 
	{ NOTE_G3, 111 }, 
	{ NOTE_G3, 111 }, 
	{ NOTE_G3, 111 }, 
	{ NOTE_G3, 111 }, 
	{ NOTE_G3, 111 }, 
	{ NOTE_G3, 111 }, 
	{ NOTE_G3, 113 }, 
	{ NOTE_C4, 111 }, 
	{ NOTE_D4, 111 }, 
	{ NOTE_G3, 111 }, 
	{ NOTE_G3, 111 }, 
	{ NOTE_G3, 111 }, 
	{ NOTE_G3, 111 }, 
	{ NOTE_G3, 111 }, 
	{ NOTE_G3, 111 }, 
	{ NOTE_G3, 111 }, 
	{ NOTE_G3, 111 }, 
	{ NOTE_G3, 111 }, 
	{ NOTE_G3, 111 }, 
	{ NOTE_G3, 111 }, 
	{ NOTE_G3, 111 }, 
	{ NOTE_G3, 111 }, 
	{ NOTE_G3, 113 }, 
	{ NOTE_C4, 111 }, 
	{ NOTE_D4, 111 }, 
	{ NOTE_G3, 111 }, 
	{ NOTE_DS4, 111 }, 
	{ NOTE_D4, 111 }, 
	{ NOTE_G3, 111 }, 
	{ NOTE_C4, 111 }, 
	{ NOTE_D4, 111 }, 
	{ NOTE_G3, 111 }, 
	{ NOTE_G3, 111 }, 
	{ NOTE_G3, 111 }, 
	{ NOTE_G3, 111 }, 
	{ NOTE_G3, 111 }, 
	{ NOTE_G3, 111 }, 
	{ NOTE_G3, 111 }, 
	{ NOTE_G3, 113 }, 
	{ NOTE_C4, 111 }, 
	{ NOTE_D4, 111 }, 
	{ NOTE_G3, 111 }, 
	{ NOTE_G3, 111 }, 
	{ NOTE_G3, 111 }, 
	{ NOTE_G3, 111 }, 
	{ NOTE_G3, 111 }, 
	{ NOTE_G3, 111 }, 
	{ NOTE_G3, 111 }, 
	{ NOTE_G3, 111 }, 
	{ NOTE_G3, 111 }, 
	{ NOTE_G3, 111 }, 
	{ NOTE_G3, 111 }, 
	{ NOTE_G3, 111 }, 
	{ NOTE_G3, 111 }, 
	{ NOTE_G3, 113 }, 
	{ NOTE_C4, 111 }, 
	{ NOTE_D4, 111 }, 
	{ NOTE_G3, 111 }, 
	{ NOTE_DS4, 111 }, 
	{ NOTE_D4, 111 }, 
	{ NOTE_G3, 111 }, 
	{ NOTE_C4, 111 }, 
	{ NOTE_D4, 111 }, 
	{ NOTE_G3, 111 }, 
	{ NOTE_G3, 111 }, 
	{ NOTE_G3, 111 }, 
	{ NOTE_G3, 111 }, 
	{ NOTE_G3, 111 }, 
	{ NOTE_G3, 111 }, 
	{ NOTE_G3, 111 }, 
	{ NOTE_G3, 113 }, 
	{ NOTE_A3, 111 }, 
	{ NOTE_B3, 333 }, 
	{ NOTE_A3, 111 }, 
	{ NOTE_B3, 222 }, 
	{ NOTE_F3, 111 }, 
	{ NOTE_REST, 111 }, 
	{ NOTE_D3, 111 }, 
	{ NOTE_E3, 111 }, 
	{ NOTE_F3, 111 }, 
	{ NOTE_B3, 444 }, 
	{ NOTE_A3, 111 }, 
	{ NOTE_B3, 222 }, 
	{ NOTE_F3, 111 }, 
	{ NOTE_REST, 111 }, 
	{ NOTE_D3, 111 }, 
	{ NOTE_E3, 111 }, 
	{ NOTE_F3, 111 }, 
	{ NOTE_A3, 111 }, 
	{ NOTE_B3, 111 }, 
	{ NOTE_D4, 111 }, 
	{ NOTE_E4, 114 }, 
	{ NOTE_A3, 111 }, 
	{ NOTE_B3, 333 }, 
	{ NOTE_A3, 111 }, 
	{ NOTE_B3, 222 }, 
	{ NOTE_F3, 111 }, 
	{ NOTE_REST, 111 }, 
	{ NOTE_D3, 111 }, 
	{ NOTE_E3, 111 }, 
	{ NOTE_F3, 111 }, 
	{ NOTE_B3, 444 }, 
	{ NOTE_A3, 111 }, 
	{ NOTE_B3, 222 }, 
	{ NOTE_F3, 111 }, 
	{ NOTE_REST, 111 }, 
	{ NOTE_D3, 111 }, 
	{ NOTE_E3, 111 }, 
	{ NOTE_F3, 111 }, 
	{ NOTE_A3, 111 }, 
	{ NOTE_B3, 111 }, 
	{ NOTE_D4, 111 }, 
	{ NOTE_E4, 114 }, 
	{ NOTE_A3, 111 }, 
	{ NOTE_B3, 333 }, 
	{ NOTE_A3, 111 }, 
	{ NOTE_B3, 222 }, 
	{ NOTE_F3, 111 }, 
	{ NOTE_REST, 111 }, 
	{ NOTE_D3, 111 }, 
	{ NOTE_E3, 111 }, 
	{ NOTE_F3, 111 }, 
	{ NOTE_B3, 444 }, 
	{ NOTE_A3, 111 }, 
	{ NOTE_B3, 222 }, 
	{ NOTE_F3, 111 }, 
	{ NOTE_REST, 111 }, 
	{ NOTE_D3, 111 }, 
	{ NOTE_E3, 111 }, 
	{ NOTE_F3, 111 }, 
	{ NOTE_A3, 111 }, 
	{ NOTE_B3, 111 }, 
	{ NOTE_D4, 111 }, 
	{ NOTE_E4, 114 }, 
	{ NOTE_D3, 889 }, 
	{ NOTE_D3, 889 }, 
	{ NOTE_DS3, 889 }, 
	{ NOTE_DS3, 889 }, 
	{ NOTE_B3, 444 }, 
	{ NOTE_REST, 1778 }, 
	{ NOTE_REST, 445 }, 
	{ NOTE_G3, 111 }, 
	{ NOTE_G3, 111 }, 
	{ NOTE_G3, 111 }, 
	{ NOTE_G3, 111 }, 
	{ NOTE_G3, 111 }, 
	{ NOTE_G3, 111 }, 
	{ NOTE_G3, 111 }, 
	{ NOTE_G3, 111 }, 
	{ NOTE_AS3, 111 }, 
	{ NOTE_AS3, 111 }, 
	{ NOTE_AS3, 111 }, 
	{ NOTE_AS3, 111 }, 
	{ NOTE_AS3, 111 }, 
	{ NOTE_AS3, 111 }, 
	{ NOTE_AS3, 111 }, 
	{ NOTE_AS3, 113 }, 
	{ NOTE_B3, 111 }, 
	{ NOTE_B3, 111 }, 
	{ NOTE_B3, 111 }, 
	{ NOTE_B3, 111 }, 
	{ NOTE_B3, 111 }, 
	{ NOTE_B3, 111 }, 
	{ NOTE_B3, 111 }, 
	{ NOTE_B3, 111 }, 
	{ NOTE_A3, 111 }, 
	{ NOTE_A3, 111 }, 
	{ NOTE_A3, 111 }, 
	{ NOTE_A3, 111 }, 
	{ NOTE_A3, 111 }, 
	{ NOTE_A3, 111 }, 
	{ NOTE_A3, 111 }, 
	{ NOTE_A3, 113 }, 
	{ NOTE_E3, 111 }, 
	{ NOTE_E3, 111 }, 
	{ NOTE_E3, 111 }, 
	{ NOTE_E3, 111 }, 
	{ NOTE_E3, 111 }, 
	{ NOTE_E3, 111 }, 
	{ NOTE_E3, 111 }, 
	{ NOTE_E3, 111 }, 
	{ NOTE_FS3, 111 }, 
	{ NOTE_FS3, 111 }, 
	{ NOTE_FS3, 111 }, 
	{ NOTE_FS3, 111 }, 
	{ NOTE_FS3, 111 }, 
	{ NOTE_FS3, 111 }, 
	{ NOTE_FS3, 111 }, 
	{ NOTE_FS3, 113 }, 
	{ NOTE_B3, 111 }, 
	{ NOTE_B3, 111 }, 
	{ NOTE_B3, 111 }, 
	{ NOTE_B3, 111 }, 
	{ NOTE_B3, 111 }, 
	{ NOTE_B3, 111 }, 
	{ NOTE_B3, 111 }, 
	{ NOTE_B3, 111 }, 
	{ NOTE_B3, 111 }, 
	{ NOTE_B3, 111 }, 
	{ NOTE_B3, 111 }, 
	{ NOTE_B3, 111 }, 
	{ NOTE_B3, 111 }, 
	{ NOTE_A3, 111 }, 
	{ NOTE_G3, 111 }, 
	{ NOTE_FS3, 113 }, 
	{ NOTE_G3, 111 }, 
	{ NOTE_G3, 111 }, 
	{ NOTE_G3, 111 }, 
	{ NOTE_G3, 111 }, 
	{ NOTE_G3, 111 }, 
	{ NOTE_G3, 111 }, 
	{ NOTE_G3, 111 }, 
	{ NOTE_G3, 111 }, 
	{ NOTE_AS3, 111 }, 
	{ NOTE_AS3, 111 }, 
	{ NOTE_AS3, 111 }, 
	{ NOTE_AS3, 111 }, 
	{ NOTE_AS3, 111 }, 
	{ NOTE_AS3, 111 }, 
	{ NOTE_AS3, 111 }, 
	{ NOTE_AS3, 113 }, 
	{ NOTE_B3, 111 }, 
	{ NOTE_B3, 111 }, 
	{ NOTE_B3, 111 }, 
	{ NOTE_B3, 111 }, 
	{ NOTE_B3, 111 }, 
	{ NOTE_B3, 111 }, 
	{ NOTE_B3, 111 }, 
	{ NOTE_B3, 111 }, 
	{ NOTE_G3, 111 }, 
	{ NOTE_G3, 111 }, 
	{ NOTE_G3, 111 }, 
	{ NOTE_G3, 111 }, 
	{ NOTE_G3, 111 }, 
	{ NOTE_G3, 111 }, 
	{ NOTE_G3, 111 }, 
	{ NOTE_G3, 113 }, 
	{ NOTE_E3, 111 }, 
	{ NOTE_E3, 111 }, 
	{ NOTE_E3, 111 }, 
	{ NOTE_E3, 111 }, 
	{ NOTE_E3, 111 }, 
	{ NOTE_E3, 111 }, 
	{ NOTE_E3, 111 }, 
	{ NOTE_E3, 111 }, 
	{ NOTE_F3, 111 }, 
	{ NOTE_F3, 111 }, 
	{ NOTE_F3, 111 }, 
	{ NOTE_F3, 111 }, 
	{ NOTE_F3, 111 }, 
	{ NOTE_F3, 111 }, 
	{ NOTE_F3, 111 }, 
	{ NOTE_F3, 113 }, 
	{ NOTE_FS3, 111 }, 
	{ NOTE_FS3, 111 }, 
	{ NOTE_FS3, 111 }, 
	{ NOTE_FS3, 111 }, 
	{ NOTE_FS3, 111 }, 
	{ NOTE_FS3, 111 }, 
	{ NOTE_FS3, 111 }, 
	{ NOTE_FS3, 111 }, 
	{ NOTE_FS3, 111 }, 
	{ NOTE_FS3, 111 }, 
	{ NOTE_FS3, 111 }, 
	{ NOTE_FS3, 111 }, 
	{ NOTE_FS3, 111 }, 
	{ NOTE_FS3, 111 }, 
	{ NOTE_FS3, 111 }, 
	{ NOTE_FS3, 113 }, 
	{ NOTE_FS3, 333 }, 
	{ NOTE_FS3, 222 }, 
	{ NOTE_REST, 111 }, 
	{ NOTE_FS3, 222 }, 
	{ NOTE_FS3, 111 }, 
	{ NOTE_FS3, 111 }, 
	{ NOTE_FS3, 111 }, 
	{ NOTE_FS3, 111 }, 
	{ NOTE_FS3, 111 }, 
	{ NOTE_FS3, 111 }, 
	{ NOTE_FS3, 111 }, 
	{ NOTE_REST, 113 }, 
	{ NOTE_AS3, 1778 }, 
	{ NOTE_AS3, 1778 }, 
	{ NOTE_AS3, 1778 }, 
	{ NOTE_DS3, 889 }, 
	{ NOTE_D3, 889 }, 
	{ NOTE_C4, 111 }, 
	{ NOTE_D4, 111 }, 
	{ NOTE_G3, 111 }, 
	{ NOTE_G3, 111 }, 
	{ NOTE_G3, 111 }, 
	{ NOTE_G3, 111 }, 
	{ NOTE_G3, 111 }, 
	{ NOTE_G3, 111 }, 
	{ NOTE_G3, 111 }, 
	{ NOTE_G3, 111 }, 
	{ NOTE_G3, 111 }, 
	{ NOTE_G3, 111 }, 
	{ NOTE_G3, 111 }, 
	{ NOTE_G3, 111 }, 
	{ NOTE_G3, 111 }, 
	{ NOTE_G3, 113 }, 
	{ NOTE_C4, 111 }, 
	{ NOTE_D4, 111 }, 
	{ NOTE_G3, 111 }, 
	{ NOTE_DS4, 111 }, 
	{ NOTE_D4, 111 }, 
	{ NOTE_G3, 111 }, 
	{ NOTE_C4, 111 }, 
	{ NOTE_D4, 111 }, 
	{ NOTE_G3, 111 }, 
	{ NOTE_G3, 111 }, 
	{ NOTE_G3, 111 }, 
	{ NOTE_G3, 111 }, 
	{ NOTE_G3, 111 }, 
	{ NOTE_G3, 111 }, 
	{ NOTE_G3, 111 }, 
	{ NOTE_G3, 113 }, 
	{ NOTE_C4, 111 }, 
	{ NOTE_D4, 111 }, 
	{ NOTE_G3, 111 }, 
	{ NOTE_G3, 111 }, 
	{ NOTE_G3, 111 }, 
	{ NOTE_G3, 111 }, 
	{ NOTE_G3, 111 }, 
	{ NOTE_G3, 111 }, 
	{ NOTE_G3, 111 }, 
	{ NOTE_G3, 111 }, 
	{ NOTE_G3, 111 }, 
	{ NOTE_G3, 111 }, 
	{ NOTE_G3, 111 }, 
	{ NOTE_G3, 111 }, 
	{ NOTE_G3, 111 }, 
	{ NOTE_G3, 113 }, 
	{ NOTE_C4, 111 }, 
	{ NOTE_D4, 111 }, 
	{ NOTE_G3, 111 }, 
	{ NOTE_DS4, 111 }, 
	{ NOTE_D4, 111 }, 
	{ NOTE_G3, 111 }, 
	{ NOTE_C4, 111 }, 
	{ NOTE_D4, 111 }, 
	{ NOTE_G3, 111 }, 
	{ NOTE_G3, 111 }, 
	{ NOTE_G3, 111 }, 
	{ NOTE_G3, 111 }, 
	{ NOTE_G3, 111 }, 
	{ NOTE_G3, 111 }, 
	{ NOTE_G3, 111 }, 
	{ NOTE_G3, 113 }, 
	{ NOTE_G3, 222 }, 
	{ NOTE_REST, 111 }, 
	{ NOTE_G3, 222 }, 
	{ NOTE_REST, 111 }, 
	{ NOTE_G3, 111 }, 
	{ NOTE_REST, 111 }, 
	{ NOTE_G3, 111 }, 
	{ NOTE_G3, 111 }, 
	{ NOTE_G3, 222 }, 
	{ NOTE_REST, 111 }, 
	{ NOTE_G3, 222 }, 
	{ NOTE_REST, 113 }, 
	{ NOTE_G3, 111 }, 
	{ NOTE_REST, 111 }, 
	{ NOTE_G3, 111 }, 
	{ NOTE_G3, 111 }, 
	{ NOTE_G3, 222 }, 
	{ NOTE_REST, 111 }, 
	{ NOTE_G3, 222 }, 
	{ NOTE_REST, 111 }, 
	{ NOTE_G3, 111 }, 
	{ NOTE_REST, 111 }, 
	{ NOTE_G3, 111 }, 
	{ NOTE_G3, 111 }, 
	{ NOTE_G3, 111 }, 
	{ NOTE_G3, 113 }, 
	{ NOTE_C4, 111 }, 
	{ NOTE_D4, 111 }, 
	{ NOTE_G3, 111 }, 
	{ NOTE_G3, 111 }, 
	{ NOTE_G3, 111 }, 
	{ NOTE_G3, 111 }, 
	{ NOTE_G3, 111 }, 
	{ NOTE_G3, 111 }, 
	{ NOTE_G3, 111 }, 
	{ NOTE_G3, 111 }, 
	{ NOTE_G3, 111 }, 
	{ NOTE_G3, 111 }, 
	{ NOTE_G3, 111 }, 
	{ NOTE_G3, 111 }, 
	{ NOTE_G3, 111 }, 
	{ NOTE_G3, 113 }, 
	{ NOTE_C4, 111 }, 
	{ NOTE_D4, 111 }, 
	{ NOTE_G3, 111 }, 
	{ NOTE_DS4, 111 }, 
	{ NOTE_D4, 111 }, 
	{ NOTE_G3, 111 }, 
	{ NOTE_C4, 111 }, 
	{ NOTE_D4, 111 }, 
	{ NOTE_G3, 111 }, 
	{ NOTE_G3, 111 }, 
	{ NOTE_G3, 111 }, 
	{ NOTE_G3, 111 }, 
	{ NOTE_G3, 111 }, 
	{ NOTE_G3, 111 }, 
	{ NOTE_G3, 111 }, 
	{ NOTE_G3, 113 }, 
	{ NOTE_A3, 111 }, 
	{ NOTE_B3, 333 }, 
	{ NOTE_A3, 111 }, 
	{ NOTE_B3, 222 }, 
	{ NOTE_F3, 111 }, 
	{ NOTE_REST, 111 }, 
	{ NOTE_D3, 111 }, 
	{ NOTE_E3, 111 }, 
	{ NOTE_F3, 111 }, 
	{ NOTE_B3, 444 }, 
	{ NOTE_A3, 111 }, 
	{ NOTE_B3, 222 }, 
	{ NOTE_F3, 111 }, 
	{ NOTE_REST, 111 }, 
	{ NOTE_D3, 111 }, 
	{ NOTE_E3, 111 }, 
	{ NOTE_F3, 111 }, 
	{ NOTE_A3, 111 }, 
	{ NOTE_B3, 111 }, 
	{ NOTE_D4, 111 }, 
	{ NOTE_E4, 114 }, 
	{ NOTE_A3, 111 }, 
	{ NOTE_B3, 333 }, 
	{ NOTE_A3, 111 }, 
	{ NOTE_B3, 222 }, 
	{ NOTE_F3, 111 }, 
	{ NOTE_REST, 111 }, 
	{ NOTE_D3, 111 }, 
	{ NOTE_E3, 111 }, 
	{ NOTE_F3, 111 }, 
	{ NOTE_B3, 444 }, 
	{ NOTE_A3, 111 }, 
	{ NOTE_B3, 222 }, 
	{ NOTE_F3, 111 }, 
	{ NOTE_REST, 111 }, 
	{ NOTE_D3, 111 }, 
	{ NOTE_E3, 111 }, 
	{ NOTE_F3, 111 }, 
	{ NOTE_A3, 111 }, 
	{ NOTE_B3, 111 }, 
	{ NOTE_D4, 111 }, 
	{ NOTE_E4, 114 }, 
	{ NOTE_A3, 111 }, 
	{ NOTE_B3, 333 }, 
	{ NOTE_A3, 111 }, 
	{ NOTE_B3, 222 }, 
	{ NOTE_F3, 111 }, 
	{ NOTE_REST, 111 }, 
	{ NOTE_D3, 111 }, 
	{ NOTE_E3, 111 }, 
	{ NOTE_F3, 111 }, 
	{ NOTE_B3, 444 }, 
	{ NOTE_A3, 111 }, 
	{ NOTE_B3, 222 }, 
	{ NOTE_F3, 111 }, 
	{ NOTE_REST, 111 }, 
	{ NOTE_D3, 111 }, 
	{ NOTE_E3, 111 }, 
	{ NOTE_F3, 111 }, 
	{ NOTE_A3, 111 }, 
	{ NOTE_B3, 111 }, 
	{ NOTE_D4, 111 }, 
	{ NOTE_E4, 114 }, 
	{ NOTE_D3, 889 }, 
	{ NOTE_D3, 889 }, 
	{ NOTE_DS3, 889 }, 
	{ NOTE_DS3, 889 }, 
	{ NOTE_B3, 444 }, 
	{ NOTE_REST, 1778 }, 
	{ NOTE_REST, 445 }, 
	{ NOTE_G3, 111 }, 
	{ NOTE_G3, 111 }, 
	{ NOTE_G3, 111 }, 
	{ NOTE_G3, 111 }, 
	{ NOTE_G3, 111 }, 
	{ NOTE_G3, 111 }, 
	{ NOTE_G3, 111 }, 
	{ NOTE_G3, 111 }, 
	{ NOTE_AS3, 111 }, 
	{ NOTE_AS3, 111 }, 
	{ NOTE_AS3, 111 }, 
	{ NOTE_AS3, 111 }, 
	{ NOTE_AS3, 111 }, 
	{ NOTE_AS3, 111 }, 
	{ NOTE_AS3, 111 }, 
	{ NOTE_AS3, 113 }, 
	{ NOTE_B3, 111 }, 
	{ NOTE_B3, 111 }, 
	{ NOTE_B3, 111 }, 
	{ NOTE_B3, 111 }, 
	{ NOTE_B3, 111 }, 
	{ NOTE_B3, 111 }, 
	{ NOTE_B3, 111 }, 
	{ NOTE_B3, 111 }, 
	{ NOTE_A3, 111 }, 
	{ NOTE_A3, 111 }, 
	{ NOTE_A3, 111 }, 
	{ NOTE_A3, 111 }, 
	{ NOTE_A3, 111 }, 
	{ NOTE_A3, 111 }, 
	{ NOTE_A3, 111 }, 
	{ NOTE_A3, 113 }, 
	{ NOTE_E3, 111 }, 
	{ NOTE_E3, 111 }, 
	{ NOTE_E3, 111 }, 
	{ NOTE_E3, 111 }, 
	{ NOTE_E3, 111 }, 
	{ NOTE_E3, 111 }, 
	{ NOTE_E3, 111 }, 
	{ NOTE_E3, 111 }, 
	{ NOTE_FS3, 111 }, 
	{ NOTE_FS3, 111 }, 
	{ NOTE_FS3, 111 }, 
	{ NOTE_FS3, 111 }, 
	{ NOTE_FS3, 111 }, 
	{ NOTE_FS3, 111 }, 
	{ NOTE_FS3, 111 }, 
	{ NOTE_FS3, 113 }, 
	{ NOTE_B3, 111 }, 
	{ NOTE_B3, 111 }, 
	{ NOTE_B3, 111 }, 
	{ NOTE_B3, 111 }, 
	{ NOTE_B3, 111 }, 
	{ NOTE_B3, 111 }, 
	{ NOTE_B3, 111 }, 
	{ NOTE_B3, 111 }, 
	{ NOTE_B3, 111 }, 
	{ NOTE_B3, 111 }, 
	{ NOTE_B3, 111 }, 
	{ NOTE_B3, 111 }, 
	{ NOTE_B3, 111 }, 
	{ NOTE_A3, 111 }, 
	{ NOTE_G3, 111 }, 
	{ NOTE_FS3, 113 }, 
	{ NOTE_G3, 111 }, 
	{ NOTE_G3, 111 }, 
	{ NOTE_G3, 111 }, 
	{ NOTE_G3, 111 }, 
	{ NOTE_G3, 111 }, 
	{ NOTE_G3, 111 }, 
	{ NOTE_G3, 111 }, 
	{ NOTE_G3, 111 }, 
	{ NOTE_AS3, 111 }, 
	{ NOTE_AS3, 111 }, 
	{ NOTE_AS3, 111 }, 
	{ NOTE_AS3, 111 }, 
	{ NOTE_AS3, 111 }, 
	{ NOTE_AS3, 111 }, 
	{ NOTE_AS3, 111 }, 
	{ NOTE_AS3, 113 }, 
	{ NOTE_B3, 111 }, 
	{ NOTE_B3, 111 }, 
	{ NOTE_B3, 111 }, 
	{ NOTE_B3, 111 }, 
	{ NOTE_B3, 111 }, 
	{ NOTE_B3, 111 }, 
	{ NOTE_B3, 111 }, 
	{ NOTE_B3, 111 }, 
	{ NOTE_G3, 111 }, 
	{ NOTE_G3, 111 }, 
	{ NOTE_G3, 111 }, 
	{ NOTE_G3, 111 }, 
	{ NOTE_G3, 111 }, 
	{ NOTE_G3, 111 }, 
	{ NOTE_G3, 111 }, 
	{ NOTE_G3, 113 }, 
	{ NOTE_E3, 111 }, 
	{ NOTE_E3, 111 }, 
	{ NOTE_E3, 111 }, 
	{ NOTE_E3, 111 }, 
	{ NOTE_E3, 111 }, 
	{ NOTE_E3, 111 }, 
	{ NOTE_E3, 111 }, 
	{ NOTE_E3, 111 }, 
	{ NOTE_F3, 111 }, 
	{ NOTE_F3, 111 }, 
	{ NOTE_F3, 111 }, 
	{ NOTE_F3, 111 }, 
	{ NOTE_F3, 111 }, 
	{ NOTE_F3, 111 }, 
	{ NOTE_F3, 111 }, 
	{ NOTE_F3, 113 }, 
	{ NOTE_FS3, 111 }, 
	{ NOTE_FS3, 111 }, 
	{ NOTE_FS3, 111 }, 
	{ NOTE_FS3, 111 }, 
	{ NOTE_FS3, 111 }, 
	{ NOTE_FS3, 111 }, 
	{ NOTE_FS3, 111 }, 
	{ NOTE_FS3, 111 }, 
	{ NOTE_FS3, 111 }, 
	{ NOTE_FS3, 111 }, 
	{ NOTE_FS3, 111 }, 
	{ NOTE_FS3, 111 }, 
	{ NOTE_FS3, 111 }, 
	{ NOTE_FS3, 111 }, 
	{ NOTE_FS3, 111 }, 
	{ NOTE_FS3, 113 }, 
	{ NOTE_FS3, 333 }, 
	{ NOTE_FS3, 222 }, 
	{ NOTE_REST, 111 }, 
	{ NOTE_FS3, 222 }, 
	{ NOTE_FS3, 111 }, 
	{ NOTE_FS3, 111 }, 
	{ NOTE_FS3, 111 }, 
	{ NOTE_FS3, 111 }, 
	{ NOTE_FS3, 111 }, 
	{ NOTE_FS3, 111 }, 
	{ NOTE_FS3, 111 }, 
	{ NOTE_REST, 113 }, 
	{ NOTE_B3, 1778 }, 
	{ NOTE_REST, 1778 }, 
	{ NOTE_E3, 222 }, 
	{ NOTE_D3, 111 }, 
	{ NOTE_E3, 111 }, 
	{ NOTE_F3, 111 }, 
	{ NOTE_E3, 111 }, 
	{ NOTE_REST, 333 }, 
	{ NOTE_D3, 111 }, 
	{ NOTE_E3, 111 }, 
	{ NOTE_F3, 111 }, 
	{ NOTE_GS3, 111 }, 
	{ NOTE_A3, 111 }, 
	{ NOTE_B3, 111 }, 
	{ NOTE_C4, 113 }, 
	{ NOTE_E3, 222 }, 
	{ NOTE_D3, 111 }, 
	{ NOTE_E3, 111 }, 
	{ NOTE_F3, 111 }, 
	{ NOTE_E3, 111 }, 
	{ NOTE_REST, 444 }, 
	{ NOTE_F3, 444 }, 
	{ NOTE_F3, 224 }, 
	{ NOTE_E3, 222 }, 
	{ NOTE_D3, 111 }, 
	{ NOTE_E3, 111 }, 
	{ NOTE_F3, 111 }, 
	{ NOTE_E3, 111 }, 
	{ NOTE_REST, 333 }, 
	{ NOTE_D3, 111 }, 
	{ NOTE_E3, 111 }, 
	{ NOTE_F3, 111 }, 
	{ NOTE_GS3, 111 }, 
	{ NOTE_A3, 111 }, 
	{ NOTE_B3, 111 }, 
	{ NOTE_C4, 113 }, 
	{ NOTE_E3, 222 }, 
	{ NOTE_D3, 111 }, 
	{ NOTE_E3, 111 }, 
	{ NOTE_F3, 111 }, 
	{ NOTE_E3, 111 }, 
	{ NOTE_REST, 222 }, 
	{ NOTE_AS3, 111 }, 
	{ NOTE_AS3, 111 }, 
	{ NOTE_AS3, 111 }, 
	{ NOTE_AS3, 111 }, 
	{ NOTE_AS3, 111 }, 
	{ NOTE_AS3, 111 }, 
	{ NOTE_AS3, 111 }, 
	{ NOTE_AS3, 113 }, 
	{ NOTE_E3, 222 }, 
	{ NOTE_D3, 111 }, 
	{ NOTE_E3, 111 }, 
	{ NOTE_F3, 111 }, 
	{ NOTE_E3, 111 }, 
	{ NOTE_REST, 333 }, 
	{ NOTE_D3, 111 }, 
	{ NOTE_E3, 111 }, 
	{ NOTE_F3, 111 }, 
	{ NOTE_GS3, 111 }, 
	{ NOTE_A3, 111 }, 
	{ NOTE_B3, 111 }, 
	{ NOTE_C4, 113 }, 
	{ NOTE_E3, 222 }, 
	{ NOTE_D3, 111 }, 
	{ NOTE_E3, 111 }, 
	{ NOTE_F3, 111 }, 
	{ NOTE_E3, 111 }, 
	{ NOTE_REST, 444 }, 
	{ NOTE_F3, 444 }, 
	{ NOTE_F3, 224 }, 
	{ NOTE_E3, 222 }, 
	{ NOTE_D3, 111 }, 
	{ NOTE_E3, 111 }, 
	{ NOTE_F3, 111 }, 
	{ NOTE_E3, 111 }, 
	{ NOTE_REST, 333 }, 
	{ NOTE_D3, 111 }, 
	{ NOTE_E3, 111 }, 
	{ NOTE_F3, 111 }, 
	{ NOTE_GS3, 111 }, 
	{ NOTE_A3, 111 }, 
	{ NOTE_B3, 111 }, 
	{ NOTE_C4, 113 }, 
	{ NOTE_E4, 444 }, 
	{ NOTE_D4, 444 }, 
	{ NOTE_C4, 444 }, 
	{ NOTE_B3, 446 }, 
	{ NOTE_AS3, 444 }, 
	{ NOTE_REST, 1334 }, 
	{ NOTE_A3, 222 }, 
	{ NOTE_G3, 111 }, 
	{ NOTE_A3, 111 }, 
	{ NOTE_AS3, 111 }, 
	{ NOTE_A3, 111 }, 
	{ NOTE_REST, 333 }, 
	{ NOTE_G3, 111 }, 
	{ NOTE_A3, 111 }, 
	{ NOTE_AS3, 111 }, 
	{ NOTE_CS4, 111 }, 
	{ NOTE_D4, 111 }, 
	{ NOTE_E4, 111 }, 
	{ NOTE_F4, 113 }, 
	{ NOTE_A3, 222 }, 
	{ NOTE_G3, 111 }, 
	{ NOTE_A3, 111 }, 
	{ NOTE_AS3, 111 }, 
	{ NOTE_A3, 111 }, 
	{ NOTE_REST, 444 }, 
	{ NOTE_AS3, 444 }, 
	{ NOTE_AS3, 224 }, 
	{ NOTE_A3, 222 }, 
	{ NOTE_G3, 111 }, 
	{ NOTE_A3, 111 }, 
	{ NOTE_AS3, 111 }, 
	{ NOTE_A3, 111 }, 
	{ NOTE_REST, 333 }, 
	{ NOTE_G3, 111 }, 
	{ NOTE_A3, 111 }, 
	{ NOTE_AS3, 111 }, 
	{ NOTE_CS4, 111 }, 
	{ NOTE_D4, 111 }, 
	{ NOTE_E4, 111 }, 
	{ NOTE_F4, 113 }, 
	{ NOTE_A3, 222 }, 
	{ NOTE_G3, 111 }, 
	{ NOTE_A3, 111 }, 
	{ NOTE_AS3, 111 }, 
	{ NOTE_A3, 111 }, 
	{ NOTE_REST, 222 }, 
	{ NOTE_DS4, 111 }, 
	{ NOTE_DS4, 111 }, 
	{ NOTE_DS4, 111 }, 
	{ NOTE_DS4, 111 }, 
	{ NOTE_DS4, 111 }, 
	{ NOTE_DS4, 111 }, 
	{ NOTE_DS4, 111 }, 
	{ NOTE_DS4, 113 }, 
	{ NOTE_A3, 222 }, 
	{ NOTE_G3, 111 }, 
	{ NOTE_A3, 111 }, 
	{ NOTE_AS3, 111 }, 
	{ NOTE_A3, 111 }, 
	{ NOTE_REST, 333 }, 
	{ NOTE_G3, 111 }, 
	{ NOTE_A3, 111 }, 
	{ NOTE_AS3, 111 }, 
	{ NOTE_CS4, 111 }, 
	{ NOTE_D4, 111 }, 
	{ NOTE_E4, 111 }, 
	{ NOTE_F4, 113 }, 
	{ NOTE_A3, 222 }, 
	{ NOTE_G3, 111 }, 
	{ NOTE_A3, 111 }, 
	{ NOTE_AS3, 111 }, 
	{ NOTE_A3, 111 }, 
	{ NOTE_REST, 444 }, 
	{ NOTE_AS3, 444 }, 
	{ NOTE_AS3, 224 }, 
	{ NOTE_A3, 222 }, 
	{ NOTE_G3, 111 }, 
	{ NOTE_A3, 111 }, 
	{ NOTE_AS3, 111 }, 
	{ NOTE_A3, 111 }, 
	{ NOTE_REST, 333 }, 
	{ NOTE_G3, 111 }, 
	{ NOTE_A3, 111 }, 
	{ NOTE_AS3, 111 }, 
	{ NOTE_CS4, 111 }, 
	{ NOTE_D4, 111 }, 
	{ NOTE_E4, 111 }, 
	{ NOTE_F4, 113 }, 
	{ NOTE_A3, 222 }, 
	{ NOTE_A3, 222 }, 
	{ NOTE_A3, 222 }, 
	{ NOTE_A3, 222 }, 
	{ NOTE_A3, 222 }, 
	{ NOTE_A3, 56 }, 
	{ NOTE_A3, 56 }, 
	{ NOTE_REST, 56 }, 
	{ NOTE_A3, 56 }, 
	{ NOTE_A3, 222 }, 
	{ NOTE_A3, 222 }, 
	{ NOTE_AS3, 111 }, 
	{ NOTE_A3, 111 }, 
	{ NOTE_G3, 111 }, 
	{ NOTE_E4, 111 }, 
	{ NOTE_D4, 111 }, 
	{ NOTE_CS4, 111 }, 
	{ NOTE_F4, 111 }, 
	{ NOTE_E4, 111 }, 
	{ NOTE_D4, 111 }, 
	{ NOTE_AS4, 111 }, 
	{ NOTE_A4, 111 }, 
	{ NOTE_G4, 111 }, 
	{ NOTE_E5, 111 }, 
	{ NOTE_D5, 111 }, 
	{ NOTE_CS5, 111 }, 
	{ NOTE_F5, 113 }, 
	{ NOTE_E5, 111 }, 
	{ NOTE_D5, 111 }, 
	{ NOTE_CS5, 111 }, 
	{ NOTE_AS4, 111 }, 
	{ NOTE_A4, 111 }, 
	{ NOTE_G4, 111 }, 
	{ NOTE_F4, 111 }, 
	{ NOTE_E4, 111 }, 
	{ NOTE_D4, 111 }, 
	{ NOTE_E4, 111 }, 
	{ NOTE_AS4, 111 }, 
	{ NOTE_A4, 111 }, 
	{ NOTE_G4, 111 }, 
	{ NOTE_F4, 111 }, 
	{ NOTE_E4, 111 }, 
	{ NOTE_D4, 113 }, 
	{ NOTE_CS4, 111 }, 
	{ NOTE_D4, 111 }, 
	{ NOTE_A4, 111 }, 
	{ NOTE_G4, 111 }, 
	{ NOTE_F4, 111 }, 
	{ NOTE_E4, 111 }, 
	{ NOTE_D4, 111 }, 
	{ NOTE_CS4, 111 }, 
	{ NOTE_AS3, 111 }, 
	{ NOTE_A3, 111 }, 
	{ NOTE_G3, 111 }, 
	{ NOTE_A3, 111 }, 
	{ NOTE_AS3, 111 }, 
	{ NOTE_CS4, 111 }, 
	{ NOTE_D4, 111 }, 
	{ NOTE_E4, 113 }, 
	{ NOTE_F4, 444 }, 
	{ NOTE_FS4, 445 }, 
	{ NOTE_G3, 111 }, 
	{ NOTE_G3, 111 }, 
	{ NOTE_G3, 111 }, 
	{ NOTE_G3, 111 }, 
	{ NOTE_G3, 111 }, 
	{ NOTE_G3, 111 }, 
	{ NOTE_G3, 111 }, 
	{ NOTE_G3, 111 }, 
	{ NOTE_AS3, 111 }, 
	{ NOTE_AS3, 111 }, 
	{ NOTE_AS3, 111 }, 
	{ NOTE_AS3, 111 }, 
	{ NOTE_AS3, 111 }, 
	{ NOTE_AS3, 111 }, 
	{ NOTE_AS3, 111 }, 
	{ NOTE_AS3, 113 }, 
	{ NOTE_B3, 111 }, 
	{ NOTE_B3, 111 }, 
	{ NOTE_B3, 111 }, 
	{ NOTE_B3, 111 }, 
	{ NOTE_B3, 111 }, 
	{ NOTE_B3, 111 }, 
	{ NOTE_B3, 111 }, 
	{ NOTE_B3, 111 }, 
	{ NOTE_A3, 111 }, 
	{ NOTE_A3, 111 }, 
	{ NOTE_A3, 111 }, 
	{ NOTE_A3, 111 }, 
	{ NOTE_A3, 111 }, 
	{ NOTE_A3, 111 }, 
	{ NOTE_A3, 111 }, 
	{ NOTE_A3, 113 }, 
	{ NOTE_E3, 111 }, 
	{ NOTE_E3, 111 }, 
	{ NOTE_E3, 111 }, 
	{ NOTE_E3, 111 }, 
	{ NOTE_E3, 111 }, 
	{ NOTE_E3, 111 }, 
	{ NOTE_E3, 111 }, 
	{ NOTE_E3, 111 }, 
	{ NOTE_FS3, 111 }, 
	{ NOTE_FS3, 111 }, 
	{ NOTE_FS3, 111 }, 
	{ NOTE_FS3, 111 }, 
	{ NOTE_FS3, 111 }, 
	{ NOTE_FS3, 111 }, 
	{ NOTE_FS3, 111 }, 
	{ NOTE_FS3, 113 }, 
	{ NOTE_B3, 111 }, 
	{ NOTE_B3, 111 }, 
	{ NOTE_B3, 111 }, 
	{ NOTE_B3, 111 }, 
	{ NOTE_B3, 111 }, 
	{ NOTE_B3, 111 }, 
	{ NOTE_B3, 111 }, 
	{ NOTE_B3, 111 }, 
	{ NOTE_B3, 111 }, 
	{ NOTE_B3, 111 }, 
	{ NOTE_B3, 111 }, 
	{ NOTE_B3, 111 }, 
	{ NOTE_B3, 111 }, 
	{ NOTE_A3, 111 }, 
	{ NOTE_G3, 111 }, 
	{ NOTE_FS3, 113 }, 
	{ NOTE_G3, 111 }, 
	{ NOTE_G3, 111 }, 
	{ NOTE_G3, 111 }, 
	{ NOTE_G3, 111 }, 
	{ NOTE_G3, 111 }, 
	{ NOTE_G3, 111 }, 
	{ NOTE_G3, 111 }, 
	{ NOTE_G3, 111 }, 
	{ NOTE_AS3, 111 }, 
	{ NOTE_AS3, 111 }, 
	{ NOTE_AS3, 111 }, 
	{ NOTE_AS3, 111 }, 
	{ NOTE_AS3, 111 }, 
	{ NOTE_AS3, 111 }, 
	{ NOTE_AS3, 111 }, 
	{ NOTE_AS3, 113 }, 
	{ NOTE_B3, 111 }, 
	{ NOTE_B3, 111 }, 
	{ NOTE_B3, 111 }, 
	{ NOTE_B3, 111 }, 
	{ NOTE_B3, 111 }, 
	{ NOTE_B3, 111 }, 
	{ NOTE_B3, 111 }, 
	{ NOTE_B3, 111 }, 
	{ NOTE_G3, 111 }, 
	{ NOTE_G3, 111 }, 
	{ NOTE_G3, 111 }, 
	{ NOTE_G3, 111 }, 
	{ NOTE_G3, 111 }, 
	{ NOTE_G3, 111 }, 
	{ NOTE_G3, 111 }, 
	{ NOTE_G3, 113 }, 
	{ NOTE_E3, 111 }, 
	{ NOTE_E3, 111 }, 
	{ NOTE_E3, 111 }, 
	{ NOTE_E3, 111 }, 
	{ NOTE_E3, 111 }, 
	{ NOTE_E3, 111 }, 
	{ NOTE_E3, 111 }, 
	{ NOTE_E3, 111 }, 
	{ NOTE_F3, 111 }, 
	{ NOTE_F3, 111 }, 
	{ NOTE_F3, 111 }, 
	{ NOTE_F3, 111 }, 
	{ NOTE_F3, 111 }, 
	{ NOTE_F3, 111 }, 
	{ NOTE_F3, 111 }, 
	{ NOTE_F3, 113 }, 
	{ NOTE_FS3, 111 }, 
	{ NOTE_FS3, 111 }, 
	{ NOTE_FS3, 111 }, 
	{ NOTE_FS3, 111 }, 
	{ NOTE_FS3, 111 }, 
	{ NOTE_FS3, 111 }, 
	{ NOTE_FS3, 111 }, 
	{ NOTE_FS3, 111 }, 
	{ NOTE_FS3, 111 }, 
	{ NOTE_FS3, 111 }, 
	{ NOTE_FS3, 111 }, 
	{ NOTE_FS3, 111 }, 
	{ NOTE_FS3, 111 }, 
	{ NOTE_FS3, 111 }, 
	{ NOTE_FS3, 111 }, 
	{ NOTE_FS3, 113 }, 
	{ NOTE_FS3, 333 }, 
	{ NOTE_FS3, 222 }, 
	{ NOTE_REST, 111 }, 
	{ NOTE_FS3, 222 }, 
	{ NOTE_FS3, 111 }, 
	{ NOTE_FS3, 111 }, 
	{ NOTE_FS3, 111 }, 
	{ NOTE_FS3, 111 }, 
	{ NOTE_FS3, 111 }, 
	{ NOTE_FS3, 111 }, 
	{ NOTE_FS3, 111 }, 
	{ NOTE_REST, 113 }, 
	{ NOTE_G3, 111 }, 
	{ NOTE_G3, 111 }, 
	{ NOTE_G3, 111 }, 
	{ NOTE_G3, 111 }, 
	{ NOTE_G3, 111 }, 
	{ NOTE_G3, 111 }, 
	{ NOTE_G3, 111 }, 
	{ NOTE_G3, 111 }, 
	{ NOTE_AS3, 111 }, 
	{ NOTE_AS3, 111 }, 
	{ NOTE_AS3, 111 }, 
	{ NOTE_AS3, 111 }, 
	{ NOTE_AS3, 111 }, 
	{ NOTE_AS3, 111 }, 
	{ NOTE_AS3, 111 }, 
	{ NOTE_AS3, 113 }, 
	{ NOTE_B3, 111 }, 
	{ NOTE_B3, 111 }, 
	{ NOTE_B3, 111 }, 
	{ NOTE_B3, 111 }, 
	{ NOTE_B3, 111 }, 
	{ NOTE_B3, 111 }, 
	{ NOTE_B3, 111 }, 
	{ NOTE_B3, 111 }, 
	{ NOTE_A3, 111 }, 
	{ NOTE_A3, 111 }, 
	{ NOTE_A3, 111 }, 
	{ NOTE_A3, 111 }, 
	{ NOTE_A3, 111 }, 
	{ NOTE_A3, 111 }, 
	{ NOTE_A3, 111 }, 
	{ NOTE_A3, 113 }, 
	{ NOTE_E3, 111 }, 
	{ NOTE_E3, 111 }, 
	{ NOTE_E3, 111 }, 
	{ NOTE_E3, 111 }, 
	{ NOTE_E3, 111 }, 
	{ NOTE_E3, 111 }, 
	{ NOTE_E3, 111 }, 
	{ NOTE_E3, 111 }, 
	{ NOTE_FS3, 111 }, 
	{ NOTE_FS3, 111 }, 
	{ NOTE_FS3, 111 }, 
	{ NOTE_FS3, 111 }, 
	{ NOTE_FS3, 111 }, 
	{ NOTE_FS3, 111 }, 
	{ NOTE_FS3, 111 }, 
	{ NOTE_FS3, 113 }, 
	{ NOTE_B3, 111 }, 
	{ NOTE_B3, 111 }, 
	{ NOTE_B3, 111 }, 
	{ NOTE_B3, 111 }, 
	{ NOTE_B3, 111 }, 
	{ NOTE_B3, 111 }, 
	{ NOTE_B3, 111 }, 
	{ NOTE_B3, 111 }, 
	{ NOTE_B3, 111 }, 
	{ NOTE_B3, 111 }, 
	{ NOTE_B3, 111 }, 
	{ NOTE_B3, 111 }, 
	{ NOTE_B3, 111 }, 
	{ NOTE_A3, 111 }, 
	{ NOTE_G3, 111 }, 
	{ NOTE_FS3, 113 }, 
	{ NOTE_G3, 111 }, 
	{ NOTE_G3, 111 }, 
	{ NOTE_G3, 111 }, 
	{ NOTE_G3, 111 }, 
	{ NOTE_G3, 111 }, 
	{ NOTE_G3, 111 }, 
	{ NOTE_G3, 111 }, 
	{ NOTE_G3, 111 }, 
	{ NOTE_AS3, 111 }, 
	{ NOTE_AS3, 111 }, 
	{ NOTE_AS3, 111 }, 
	{ NOTE_AS3, 111 }, 
	{ NOTE_AS3, 111 }, 
	{ NOTE_AS3, 111 }, 
	{ NOTE_AS3, 111 }, 
	{ NOTE_AS3, 113 }, 
	{ NOTE_B3, 111 }, 
	{ NOTE_B3, 111 }, 
	{ NOTE_B3, 111 }, 
	{ NOTE_B3, 111 }, 
	{ NOTE_B3, 111 }, 
	{ NOTE_B3, 111 }, 
	{ NOTE_B3, 111 }, 
	{ NOTE_B3, 111 }, 
	{ NOTE_G3, 111 }, 
	{ NOTE_G3, 111 }, 
	{ NOTE_G3, 111 }, 
	{ NOTE_G3, 111 }, 
	{ NOTE_G3, 111 }, 
	{ NOTE_G3, 111 }, 
	{ NOTE_G3, 111 }, 
	{ NOTE_G3, 113 }, 
	{ NOTE_E3, 111 }, 
	{ NOTE_E3, 111 }, 
	{ NOTE_E3, 111 }, 
	{ NOTE_E3, 111 }, 
	{ NOTE_E3, 111 }, 
	{ NOTE_E3, 111 }, 
	{ NOTE_E3, 111 }, 
	{ NOTE_E3, 111 }, 
	{ NOTE_F3, 111 }, 
	{ NOTE_F3, 111 }, 
	{ NOTE_F3, 111 }, 
	{ NOTE_F3, 111 }, 
	{ NOTE_F3, 111 }, 
	{ NOTE_F3, 111 }, 
	{ NOTE_F3, 111 }, 
	{ NOTE_F3, 113 }, 
	{ NOTE_FS3, 111 }, 
	{ NOTE_FS3, 111 }, 
	{ NOTE_FS3, 111 }, 
	{ NOTE_FS3, 111 }, 
	{ NOTE_FS3, 111 }, 
	{ NOTE_FS3, 111 }, 
	{ NOTE_FS3, 111 }, 
	{ NOTE_FS3, 111 }, 
	{ NOTE_FS3, 111 }, 
	{ NOTE_FS3, 111 }, 
	{ NOTE_FS3, 111 }, 
	{ NOTE_FS3, 111 }, 
	{ NOTE_FS3, 111 }, 
	{ NOTE_FS3, 111 }, 
	{ NOTE_FS3, 111 }, 
	{ NOTE_FS3, 113 }, 
	{ NOTE_FS3, 333 }, 
	{ NOTE_FS3, 222 }, 
	{ NOTE_REST, 111 }, 
	{ NOTE_FS3, 222 }, 
	{ NOTE_FS3, 111 }, 
	{ NOTE_FS3, 111 }, 
	{ NOTE_FS3, 111 }, 
	{ NOTE_FS3, 111 }, 
	{ NOTE_FS3, 111 }, 
	{ NOTE_FS3, 111 }, 
	{ NOTE_FS3, 111 }, 
	{ NOTE_REST, 113 }, 
	{ NOTE_CS5, 111 }, 
	{ NOTE_B4, 111 }, 
	{ NOTE_AS4, 111 }, 
	{ NOTE_G4, 111 }, 
	{ NOTE_FS4, 111 }, 
	{ NOTE_E4, 111 }, 
	{ NOTE_D4, 111 }, 
	{ NOTE_CS4, 111 }, 
	{ NOTE_B3, 111 }, 
	{ NOTE_AS3, 111 }, 
	{ NOTE_CS4, 111 }, 
	{ NOTE_G4, 111 }, 
	{ NOTE_FS4, 111 }, 
	{ NOTE_E4, 111 }, 
	{ NOTE_D4, 111 }, 
	{ NOTE_CS4, 113 }, 
	{ NOTE_B3, 111 }, 
	{ NOTE_AS3, 111 }, 
	{ NOTE_B3, 111 }, 
	{ NOTE_FS4, 111 }, 
	{ NOTE_E4, 111 }, 
	{ NOTE_D4, 111 }, 
	{ NOTE_CS4, 111 }, 
	{ NOTE_B3, 111 }, 
	{ NOTE_AS3, 890 }, 
	{ NOTE_AS3, 889 }, 
	{ NOTE_B3, 889 }, 
	{ NOTE_REST, 1778 }, 
	{ NOTE_REST, 1778 }, 
	{ NOTE_REST, 1778 }, 
};
const uint16_t NUM_OF_NOTES0 = sizeof(melody0)/sizeof(melody0[0]);

const Note melody1[] PROGMEM = {
	{ NOTE_AS5, 111 }, 
	{ NOTE_F5, 111 }, 
	{ NOTE_CS5, 111 }, 
	{ NOTE_F4, 111 }, 
	{ NOTE_AS4, 111 }, 
	{ NOTE_CS5, 111 }, 
	{ NOTE_F5, 111 }, 
	{ NOTE_GS5, 111 }, 
	{ NOTE_FS5, 111 }, 
	{ NOTE_CS5, 111 }, 
	{ NOTE_AS4, 111 }, 
	{ NOTE_F4, 111 }, 
	{ NOTE_AS4, 111 }, 
	{ NOTE_CS5, 111 }, 
	{ NOTE_FS5, 111 }, 
	{ NOTE_E5, 113 }, 
	{ NOTE_F5, 111 }, 
	{ NOTE_CS5, 111 }, 
	{ NOTE_AS4, 111 }, 
	{ NOTE_F4, 111 }, 
	{ NOTE_AS4, 111 }, 
	{ NOTE_CS5, 111 }, 
	{ NOTE_F5, 111 }, 
	{ NOTE_DS5, 111 }, 
	{ NOTE_E5, 111 }, 
	{ NOTE_C5, 111 }, 
	{ NOTE_G4, 111 }, 
	{ NOTE_E4, 111 }, 
	{ NOTE_G4, 111 }, 
	{ NOTE_C5, 111 }, 
	{ NOTE_E5, 111 }, 
	{ NOTE_G5, 113 }, 
	{ NOTE_AS5, 111 }, 
	{ NOTE_F5, 111 }, 
	{ NOTE_CS5, 111 }, 
	{ NOTE_F4, 111 }, 
	{ NOTE_AS4, 111 }, 
	{ NOTE_CS5, 111 }, 
	{ NOTE_F5, 111 }, 
	{ NOTE_GS5, 111 }, 
	{ NOTE_FS5, 111 }, 
	{ NOTE_CS5, 111 }, 
	{ NOTE_AS4, 111 }, 
	{ NOTE_F4, 111 }, 
	{ NOTE_AS4, 111 }, 
	{ NOTE_CS5, 111 }, 
	{ NOTE_FS5, 111 }, 
	{ NOTE_E5, 113 }, 
	{ NOTE_F5, 111 }, 
	{ NOTE_CS5, 111 }, 
	{ NOTE_AS4, 111 }, 
	{ NOTE_F4, 111 }, 
	{ NOTE_AS4, 111 }, 
	{ NOTE_CS5, 111 }, 
	{ NOTE_F5, 111 }, 
	{ NOTE_DS5, 112 }, 
	{ NOTE_GS5, 111 }, 
	{ NOTE_F5, 111 }, 
	{ NOTE_C5, 111 }, 
	{ NOTE_GS4, 111 }, 
	{ NOTE_F5, 111 }, 
	{ NOTE_C5, 111 }, 
	{ NOTE_GS4, 111 }, 
	{ NOTE_F4, 111 }, 
	{ NOTE_E4, 111 }, 
	{ NOTE_G4, 111 }, 
	{ NOTE_AS4, 111 }, 
	{ NOTE_CS5, 111 }, 
	{ NOTE_E5, 111 }, 
	{ NOTE_CS5, 111 }, 
	{ NOTE_C5, 111 }, 
	{ NOTE_AS4, 113 }, 
	{ NOTE_C5, 111 }, 
	{ NOTE_G4, 111 }, 
	{ NOTE_F4, 111 }, 
	{ NOTE_E4, 111 }, 
	{ NOTE_AS4, 111 }, 
	{ NOTE_GS4, 111 }, 
	{ NOTE_G4, 111 }, 
	{ NOTE_F4, 111 }, 
	{ NOTE_E4, 111 }, 
	{ NOTE_G4, 111 }, 
	{ NOTE_AS4, 111 }, 
	{ NOTE_CS5, 111 }, 
	{ NOTE_C5, 111 }, 
	{ NOTE_AS4, 111 }, 
	{ NOTE_GS4, 111 }, 
	{ NOTE_G4, 113 }, 
	{ NOTE_C5, 111 }, 
	{ NOTE_GS4, 111 }, 
	{ NOTE_F4, 111 }, 
	{ NOTE_C4, 111 }, 
	{ NOTE_F4, 111 }, 
	{ NOTE_C4, 111 }, 
	{ NOTE_D4, 111 }, 
	{ NOTE_E4, 111 }, 
	{ NOTE_F4, 111 }, 
	{ NOTE_G4, 111 }, 
	{ NOTE_GS4, 111 }, 
	{ NOTE_AS4, 111 }, 
	{ NOTE_GS4, 111 }, 
	{ NOTE_F4, 111 }, 
	{ NOTE_GS4, 111 }, 
	{ NOTE_AS4, 111 }, 
	{ NOTE_C5, 111 }, 
	{ NOTE_G4, 111 }, 
	{ NOTE_A4, 111 }, 
	{ NOTE_B4, 111 }, 
	{ NOTE_C5, 111 }, 
	{ NOTE_D5, 111 }, 
	{ NOTE_E5, 111 }, 
	{ NOTE_F5, 111 }, 
	{ NOTE_E5, 111 }, 
	{ NOTE_C5, 111 }, 
	{ NOTE_D5, 111 }, 
	{ NOTE_E5, 114 }, 
	{ NOTE_F5, 111 }, 
	{ NOTE_C5, 111 }, 
	{ NOTE_GS4, 111 }, 
	{ NOTE_C5, 111 }, 
	{ NOTE_F5, 111 }, 
	{ NOTE_DS5, 111 }, 
	{ NOTE_CS5, 111 }, 
	{ NOTE_C5, 111 }, 
	{ NOTE_AS4, 111 }, 
	{ NOTE_GS5, 111 }, 
	{ NOTE_G5, 111 }, 
	{ NOTE_F5, 111 }, 
	{ NOTE_G5, 111 }, 
	{ NOTE_D5, 111 }, 
	{ NOTE_E5, 111 }, 
	{ NOTE_F5, 111 }, 
	{ NOTE_E5, 111 }, 
	{ NOTE_F5, 111 }, 
	{ NOTE_G5, 111 }, 
	{ NOTE_F5, 111 }, 
	{ NOTE_E5, 111 }, 
	{ NOTE_CS5, 111 }, 
	{ NOTE_C5, 111 }, 
	{ NOTE_AS4, 111 }, 
	{ NOTE_GS4, 111 }, 
	{ NOTE_G4, 111 }, 
	{ NOTE_F4, 111 }, 
	{ NOTE_E4, 114 }, 
	{ NOTE_C5, 111 }, 
	{ NOTE_GS4, 111 }, 
	{ NOTE_F4, 111 }, 
	{ NOTE_C4, 111 }, 
	{ NOTE_F4, 111 }, 
	{ NOTE_C4, 111 }, 
	{ NOTE_D4, 111 }, 
	{ NOTE_E4, 111 }, 
	{ NOTE_F4, 111 }, 
	{ NOTE_G4, 111 }, 
	{ NOTE_GS4, 111 }, 
	{ NOTE_AS4, 111 }, 
	{ NOTE_GS4, 111 }, 
	{ NOTE_F4, 111 }, 
	{ NOTE_GS4, 111 }, 
	{ NOTE_AS4, 111 }, 
	{ NOTE_C5, 111 }, 
	{ NOTE_G4, 111 }, 
	{ NOTE_A4, 111 }, 
	{ NOTE_B4, 111 }, 
	{ NOTE_C5, 111 }, 
	{ NOTE_D5, 111 }, 
	{ NOTE_E5, 111 }, 
	{ NOTE_F5, 111 }, 
	{ NOTE_E5, 111 }, 
	{ NOTE_C5, 111 }, 
	{ NOTE_D5, 111 }, 
	{ NOTE_E5, 114 }, 
	{ NOTE_F5, 111 }, 
	{ NOTE_C5, 111 }, 
	{ NOTE_GS4, 111 }, 
	{ NOTE_C5, 111 }, 
	{ NOTE_F5, 111 }, 
	{ NOTE_DS5, 111 }, 
	{ NOTE_CS5, 111 }, 
	{ NOTE_C5, 111 }, 
	{ NOTE_AS4, 111 }, 
	{ NOTE_GS5, 111 }, 
	{ NOTE_G5, 111 }, 
	{ NOTE_F5, 111 }, 
	{ NOTE_G5, 111 }, 
	{ NOTE_D5, 111 }, 
	{ NOTE_E5, 111 }, 
	{ NOTE_F5, 111 }, 
	{ NOTE_E5, 111 }, 
	{ NOTE_F5, 111 }, 
	{ NOTE_G5, 111 }, 
	{ NOTE_F5, 111 }, 
	{ NOTE_E5, 111 }, 
	{ NOTE_CS5, 111 }, 
	{ NOTE_C5, 111 }, 
	{ NOTE_AS4, 111 }, 
	{ NOTE_GS4, 111 }, 
	{ NOTE_G4, 111 }, 
	{ NOTE_F4, 111 }, 
	{ NOTE_E4, 114 }, 
	{ NOTE_F4, 111 }, 
	{ NOTE_GS4, 111 }, 
	{ NOTE_C5, 111 }, 
	{ NOTE_GS4, 111 }, 
	{ NOTE_F4, 111 }, 
	{ NOTE_GS4, 111 }, 
	{ NOTE_CS5, 111 }, 
	{ NOTE_GS4, 111 }, 
	{ NOTE_F4, 111 }, 
	{ NOTE_GS4, 111 }, 
	{ NOTE_C5, 111 }, 
	{ NOTE_GS4, 111 }, 
	{ NOTE_D5, 111 }, 
	{ NOTE_B4, 111 }, 
	{ NOTE_G4, 111 }, 
	{ NOTE_D4, 113 }, 
	{ NOTE_C4, 111 }, 
	{ NOTE_G4, 111 }, 
	{ NOTE_F4, 111 }, 
	{ NOTE_G4, 111 }, 
	{ NOTE_GS4, 111 }, 
	{ NOTE_F4, 111 }, 
	{ NOTE_DS4, 111 }, 
	{ NOTE_F4, 111 }, 
	{ NOTE_D4, 111 }, 
	{ NOTE_F4, 111 }, 
	{ NOTE_DS4, 111 }, 
	{ NOTE_F4, 111 }, 
	{ NOTE_G4, 111 }, 
	{ NOTE_DS4, 111 }, 
	{ NOTE_D4, 111 }, 
	{ NOTE_DS4, 113 }, 
	{ NOTE_C4, 111 }, 
	{ NOTE_DS4, 111 }, 
	{ NOTE_D4, 111 }, 
	{ NOTE_DS4, 111 }, 
	{ NOTE_F4, 111 }, 
	{ NOTE_D4, 111 }, 
	{ NOTE_C4, 111 }, 
	{ NOTE_D4, 111 }, 
	{ NOTE_D4, 111 }, 
	{ NOTE_B3, 111 }, 
	{ NOTE_G3, 111 }, 
	{ NOTE_D3, 111 }, 
	{ NOTE_G3, 111 }, 
	{ NOTE_B3, 111 }, 
	{ NOTE_C4, 111 }, 
	{ NOTE_B3, 113 }, 
	{ NOTE_A4, 111 }, 
	{ NOTE_E5, 111 }, 
	{ NOTE_D5, 111 }, 
	{ NOTE_E5, 111 }, 
	{ NOTE_F5, 111 }, 
	{ NOTE_D5, 111 }, 
	{ NOTE_C5, 111 }, 
	{ NOTE_D5, 111 }, 
	{ NOTE_B4, 111 }, 
	{ NOTE_D5, 111 }, 
	{ NOTE_C5, 111 }, 
	{ NOTE_D5, 111 }, 
	{ NOTE_E5, 111 }, 
	{ NOTE_C5, 111 }, 
	{ NOTE_B4, 111 }, 
	{ NOTE_C5, 113 }, 
	{ NOTE_A4, 111 }, 
	{ NOTE_C5, 111 }, 
	{ NOTE_B4, 111 }, 
	{ NOTE_C5, 111 }, 
	{ NOTE_D5, 111 }, 
	{ NOTE_B4, 111 }, 
	{ NOTE_A4, 111 }, 
	{ NOTE_B4, 111 }, 
	{ NOTE_GS4, 111 }, 
	{ NOTE_B4, 111 }, 
	{ NOTE_D5, 111 }, 
	{ NOTE_F5, 111 }, 
	{ NOTE_E5, 111 }, 
	{ NOTE_D5, 111 }, 
	{ NOTE_C5, 111 }, 
	{ NOTE_B4, 113 }, 
	{ NOTE_E5, 111 }, 
	{ NOTE_C5, 111 }, 
	{ NOTE_A4, 111 }, 
	{ NOTE_E4, 111 }, 
	{ NOTE_A4, 111 }, 
	{ NOTE_E4, 111 }, 
	{ NOTE_FS4, 111 }, 
	{ NOTE_GS4, 111 }, 
	{ NOTE_A4, 111 }, 
	{ NOTE_B4, 111 }, 
	{ NOTE_C5, 111 }, 
	{ NOTE_D5, 111 }, 
	{ NOTE_C5, 111 }, 
	{ NOTE_A4, 111 }, 
	{ NOTE_C5, 111 }, 
	{ NOTE_D5, 111 }, 
	{ NOTE_E5, 111 }, 
	{ NOTE_B4, 111 }, 
	{ NOTE_CS5, 111 }, 
	{ NOTE_DS5, 111 }, 
	{ NOTE_E5, 111 }, 
	{ NOTE_FS5, 111 }, 
	{ NOTE_GS5, 111 }, 
	{ NOTE_A5, 111 }, 
	{ NOTE_GS5, 111 }, 
	{ NOTE_E5, 111 }, 
	{ NOTE_FS5, 111 }, 
	{ NOTE_GS5, 114 }, 
	{ NOTE_A5, 111 }, 
	{ NOTE_E5, 111 }, 
	{ NOTE_C5, 111 }, 
	{ NOTE_E5, 111 }, 
	{ NOTE_A5, 111 }, 
	{ NOTE_G5, 111 }, 
	{ NOTE_F5, 111 }, 
	{ NOTE_E5, 111 }, 
	{ NOTE_D5, 111 }, 
	{ NOTE_C6, 111 }, 
	{ NOTE_B5, 111 }, 
	{ NOTE_A5, 111 }, 
	{ NOTE_B5, 111 }, 
	{ NOTE_FS5, 111 }, 
	{ NOTE_GS5, 111 }, 
	{ NOTE_A5, 111 }, 
	{ NOTE_GS5, 111 }, 
	{ NOTE_A5, 111 }, 
	{ NOTE_B5, 111 }, 
	{ NOTE_A5, 111 }, 
	{ NOTE_GS5, 111 }, 
	{ NOTE_F5, 111 }, 
	{ NOTE_E5, 111 }, 
	{ NOTE_D5, 111 }, 
	{ NOTE_C5, 111 }, 
	{ NOTE_B4, 111 }, 
	{ NOTE_A4, 111 }, 
	{ NOTE_GS4, 114 }, 
	{ NOTE_A4, 444 }, 
	{ NOTE_F5, 444 }, 
	{ NOTE_A4, 444 }, 
	{ NOTE_B4, 446 }, 
	{ NOTE_REST, 222 }, 
	{ NOTE_A4, 222 }, 
	{ NOTE_REST, 222 }, 
	{ NOTE_F5, 222 }, 
	{ NOTE_REST, 222 }, 
	{ NOTE_A4, 222 }, 
	{ NOTE_REST, 222 }, 
	{ NOTE_B4, 224 }, 
	{ NOTE_C5, 1778 }, 
	{ NOTE_REST, 1778 }, 
	{ NOTE_REST, 1778 }, 
	{ NOTE_REST, 1778 }, 
	{ NOTE_REST, 1778 }, 
	{ NOTE_REST, 1778 }, 
	{ NOTE_REST, 1778 }, 
	{ NOTE_REST, 1778 }, 
	{ NOTE_REST, 1778 }, 
	{ NOTE_D4, 3111 }, 
	{ NOTE_D4, 3111 }, 
	{ NOTE_E4, 3111 }, 
	{ NOTE_D4, 1778 }, 
	{ NOTE_DS4, 1778 }, 
	{ NOTE_B2, 444 }, 
	{ NOTE_AS2, 444 }, 
	{ NOTE_B2, 444 }, 
	{ NOTE_CS3, 444 }, 
	{ NOTE_D3, 444 }, 
	{ NOTE_FS3, 447 }, 
	{ NOTE_G4, 889 }, 
	{ NOTE_AS4, 889 }, 
	{ NOTE_B4, 889 }, 
	{ NOTE_A4, 889 }, 
	{ NOTE_E4, 889 }, 
	{ NOTE_FS4, 889 }, 
	{ NOTE_FS4, 444 }, 
	{ NOTE_B5, 444 }, 
	{ NOTE_A5, 444 }, 
	{ NOTE_FS5, 446 }, 
	{ NOTE_G4, 444 }, 
	{ NOTE_D5, 444 }, 
	{ NOTE_AS4, 444 }, 
	{ NOTE_B4, 446 }, 
	{ NOTE_FS4, 444 }, 
	{ NOTE_D5, 444 }, 
	{ NOTE_G4, 444 }, 
	{ NOTE_D5, 446 }, 
	{ NOTE_E4, 444 }, 
	{ NOTE_D5, 444 }, 
	{ NOTE_F4, 444 }, 
	{ NOTE_F5, 446 }, 
	{ NOTE_FS4, 888 }, 
	{ NOTE_FS5, 890 }, 
	{ NOTE_FS4, 1778 }, 
	{ NOTE_REST, 1778 }, 
	{ NOTE_REST, 1778 }, 
	{ NOTE_REST, 1778 }, 
	{ NOTE_REST, 1778 }, 
	{ NOTE_REST, 1778 }, 
	{ NOTE_REST, 1778 }, 
	{ NOTE_REST, 1778 }, 
	{ NOTE_REST, 1778 }, 
	{ NOTE_AS4, 1111 }, 
	{ NOTE_A4, 333 }, 
	{ NOTE_G4, 334 }, 
	{ NOTE_FS4, 444 }, 
	{ NOTE_G4, 889 }, 
	{ NOTE_REST, 445 }, 
	{ NOTE_REST, 1778 }, 
	{ NOTE_REST, 1778 }, 
	{ NOTE_D4, 3111 }, 
	{ NOTE_D4, 3111 }, 
	{ NOTE_E4, 3111 }, 
	{ NOTE_D4, 1778 }, 
	{ NOTE_DS4, 1778 }, 
	{ NOTE_B2, 444 }, 
	{ NOTE_AS2, 444 }, 
	{ NOTE_B2, 444 }, 
	{ NOTE_CS3, 444 }, 
	{ NOTE_D3, 444 }, 
	{ NOTE_FS3, 447 }, 
	{ NOTE_G4, 889 }, 
	{ NOTE_AS4, 889 }, 
	{ NOTE_B4, 889 }, 
	{ NOTE_A4, 889 }, 
	{ NOTE_E4, 889 }, 
	{ NOTE_FS4, 889 }, 
	{ NOTE_FS4, 444 }, 
	{ NOTE_B5, 444 }, 
	{ NOTE_A5, 444 }, 
	{ NOTE_FS5, 446 }, 
	{ NOTE_G4, 444 }, 
	{ NOTE_D5, 444 }, 
	{ NOTE_AS4, 444 }, 
	{ NOTE_B4, 446 }, 
	{ NOTE_FS4, 444 }, 
	{ NOTE_D5, 444 }, 
	{ NOTE_G4, 444 }, 
	{ NOTE_D5, 446 }, 
	{ NOTE_E4, 444 }, 
	{ NOTE_D5, 444 }, 
	{ NOTE_F4, 444 }, 
	{ NOTE_F5, 446 }, 
	{ NOTE_FS4, 888 }, 
	{ NOTE_FS5, 890 }, 
	{ NOTE_FS4, 1778 }, 
	{ NOTE_D4, 3556 }, 
	{ NOTE_REST, 1778 }, 
	{ NOTE_REST, 1778 }, 
	{ NOTE_REST, 1778 }, 
	{ NOTE_REST, 1778 }, 
	{ NOTE_REST, 1778 }, 
	{ NOTE_REST, 1778 }, 
	{ NOTE_REST, 1778 }, 
	{ NOTE_REST, 1778 }, 
	{ NOTE_REST, 1778 }, 
	{ NOTE_G4, 74 }, 
	{ NOTE_A4, 74 }, 
	{ NOTE_AS4, 74 }, 
	{ NOTE_CS5, 111 }, 
	{ NOTE_AS4, 111 }, 
	{ NOTE_A4, 111 }, 
	{ NOTE_G4, 74 }, 
	{ NOTE_A4, 74 }, 
	{ NOTE_AS4, 74 }, 
	{ NOTE_CS5, 111 }, 
	{ NOTE_AS4, 111 }, 
	{ NOTE_A4, 111 }, 
	{ NOTE_G4, 74 }, 
	{ NOTE_A4, 74 }, 
	{ NOTE_AS4, 74 }, 
	{ NOTE_CS5, 111 }, 
	{ NOTE_AS4, 111 }, 
	{ NOTE_A4, 111 }, 
	{ NOTE_G4, 113 }, 
	{ NOTE_A4, 74 }, 
	{ NOTE_AS4, 74 }, 
	{ NOTE_CS5, 74 }, 
	{ NOTE_AS4, 111 }, 
	{ NOTE_A4, 111 }, 
	{ NOTE_G4, 74 }, 
	{ NOTE_A4, 74 }, 
	{ NOTE_AS4, 74 }, 
	{ NOTE_CS5, 111 }, 
	{ NOTE_D5, 111 }, 
	{ NOTE_E5, 74 }, 
	{ NOTE_F5, 74 }, 
	{ NOTE_E5, 74 }, 
	{ NOTE_D5, 74 }, 
	{ NOTE_CS5, 74 }, 
	{ NOTE_D5, 74 }, 
	{ NOTE_E5, 74 }, 
	{ NOTE_F5, 74 }, 
	{ NOTE_G5, 74 }, 
	{ NOTE_A5, 224 }, 
	{ NOTE_A5, 111 }, 
	{ NOTE_G5, 111 }, 
	{ NOTE_F5, 111 }, 
	{ NOTE_D6, 222 }, 
	{ NOTE_D6, 111 }, 
	{ NOTE_CS6, 111 }, 
	{ NOTE_D6, 111 }, 
	{ NOTE_CS6, 111 }, 
	{ NOTE_A5, 222 }, 
	{ NOTE_A5, 111 }, 
	{ NOTE_G5, 111 }, 
	{ NOTE_D6, 111 }, 
	{ NOTE_AS5, 111 }, 
	{ NOTE_A5, 113 }, 
	{ NOTE_G5, 111 }, 
	{ NOTE_F5, 111 }, 
	{ NOTE_E5, 111 }, 
	{ NOTE_D5, 111 }, 
	{ NOTE_CS5, 111 }, 
	{ NOTE_D5, 111 }, 
	{ NOTE_E5, 111 }, 
	{ NOTE_F5, 111 }, 
	{ NOTE_A4, 111 }, 
	{ NOTE_AS4, 111 }, 
	{ NOTE_C5, 111 }, 
	{ NOTE_B4, 444 }, 
	{ NOTE_AS4, 113 }, 
	{ NOTE_A4, 111 }, 
	{ NOTE_G4, 111 }, 
	{ NOTE_D5, 111 }, 
	{ NOTE_E5, 444 }, 
	{ NOTE_CS5, 111 }, 
	{ NOTE_B4, 111 }, 
	{ NOTE_G5, 444 }, 
	{ NOTE_E5, 111 }, 
	{ NOTE_G5, 111 }, 
	{ NOTE_AS5, 113 }, 
	{ NOTE_G5, 111 }, 
	{ NOTE_AS5, 111 }, 
	{ NOTE_CS6, 111 }, 
	{ NOTE_AS5, 111 }, 
	{ NOTE_G5, 111 }, 
	{ NOTE_D6, 111 }, 
	{ NOTE_AS5, 111 }, 
	{ NOTE_G5, 111 }, 
	{ NOTE_DS6, 111 }, 
	{ NOTE_AS5, 111 }, 
	{ NOTE_G5, 111 }, 
	{ NOTE_CS6, 111 }, 
	{ NOTE_AS5, 111 }, 
	{ NOTE_G5, 111 }, 
	{ NOTE_AS5, 111 }, 
	{ NOTE_CS6, 113 }, 
	{ NOTE_AS5, 111 }, 
	{ NOTE_G5, 111 }, 
	{ NOTE_A5, 111 }, 
	{ NOTE_AS5, 111 }, 
	{ NOTE_A5, 111 }, 
	{ NOTE_G5, 111 }, 
	{ NOTE_F5, 111 }, 
	{ NOTE_E5, 111 }, 
	{ NOTE_D5, 111 }, 
	{ NOTE_CS5, 111 }, 
	{ NOTE_D5, 111 }, 
	{ NOTE_E5, 111 }, 
	{ NOTE_F5, 111 }, 
	{ NOTE_G5, 111 }, 
	{ NOTE_F5, 111 }, 
	{ NOTE_E5, 113 }, 
	{ NOTE_D5, 111 }, 
	{ NOTE_CS5, 111 }, 
	{ NOTE_AS4, 111 }, 
	{ NOTE_A4, 111 }, 
	{ NOTE_E5, 111 }, 
	{ NOTE_AS4, 111 }, 
	{ NOTE_A4, 111 }, 
	{ NOTE_D5, 111 }, 
	{ NOTE_A4, 111 }, 
	{ NOTE_G4, 111 }, 
	{ NOTE_A4, 111 }, 
	{ NOTE_CS5, 111 }, 
	{ NOTE_CS5, 111 }, 
	{ NOTE_A4, 111 }, 
	{ NOTE_G4, 224 }, 
	{ NOTE_GS4, 111 }, 
	{ NOTE_G4, 111 }, 
	{ NOTE_F4, 111 }, 
	{ NOTE_D5, 111 }, 
	{ NOTE_C5, 111 }, 
	{ NOTE_B4, 111 }, 
	{ NOTE_DS5, 111 }, 
	{ NOTE_D5, 111 }, 
	{ NOTE_C5, 111 }, 
	{ NOTE_GS5, 111 }, 
	{ NOTE_G5, 111 }, 
	{ NOTE_F5, 111 }, 
	{ NOTE_D6, 111 }, 
	{ NOTE_C6, 111 }, 
	{ NOTE_B5, 111 }, 
	{ NOTE_DS6, 113 }, 
	{ NOTE_D6, 111 }, 
	{ NOTE_C6, 111 }, 
	{ NOTE_B5, 111 }, 
	{ NOTE_GS5, 111 }, 
	{ NOTE_G5, 111 }, 
	{ NOTE_F5, 111 }, 
	{ NOTE_DS5, 111 }, 
	{ NOTE_D5, 111 }, 
	{ NOTE_C5, 111 }, 
	{ NOTE_D5, 111 }, 
	{ NOTE_GS5, 111 }, 
	{ NOTE_G5, 111 }, 
	{ NOTE_F5, 111 }, 
	{ NOTE_DS5, 111 }, 
	{ NOTE_D5, 111 }, 
	{ NOTE_C5, 113 }, 
	{ NOTE_B4, 111 }, 
	{ NOTE_C5, 111 }, 
	{ NOTE_G5, 111 }, 
	{ NOTE_F5, 111 }, 
	{ NOTE_DS5, 111 }, 
	{ NOTE_D5, 111 }, 
	{ NOTE_C5, 111 }, 
	{ NOTE_B4, 111 }, 
	{ NOTE_GS4, 111 }, 
	{ NOTE_G4, 111 }, 
	{ NOTE_F4, 111 }, 
	{ NOTE_G4, 111 }, 
	{ NOTE_GS4, 111 }, 
	{ NOTE_B4, 111 }, 
	{ NOTE_C5, 111 }, 
	{ NOTE_D5, 113 }, 
	{ NOTE_DS5, 444 }, 
	{ NOTE_E5, 445 }, 
	{ NOTE_G4, 889 }, 
	{ NOTE_AS4, 889 }, 
	{ NOTE_B4, 889 }, 
	{ NOTE_A4, 889 }, 
	{ NOTE_E4, 889 }, 
	{ NOTE_FS4, 889 }, 
	{ NOTE_FS4, 444 }, 
	{ NOTE_B5, 444 }, 
	{ NOTE_A5, 444 }, 
	{ NOTE_FS5, 446 }, 
	{ NOTE_G4, 444 }, 
	{ NOTE_D5, 444 }, 
	{ NOTE_AS4, 444 }, 
	{ NOTE_B4, 446 }, 
	{ NOTE_B4, 444 }, 
	{ NOTE_D5, 444 }, 
	{ NOTE_G4, 444 }, 
	{ NOTE_D5, 446 }, 
	{ NOTE_E4, 444 }, 
	{ NOTE_D5, 444 }, 
	{ NOTE_F4, 444 }, 
	{ NOTE_F5, 446 }, 
	{ NOTE_FS4, 889 }, 
	{ NOTE_FS5, 889 }, 
	{ NOTE_FS4, 1778 }, 
	{ NOTE_G4, 889 }, 
	{ NOTE_AS4, 889 }, 
	{ NOTE_B4, 889 }, 
	{ NOTE_A4, 889 }, 
	{ NOTE_E4, 889 }, 
	{ NOTE_FS4, 889 }, 
	{ NOTE_FS4, 444 }, 
	{ NOTE_B5, 444 }, 
	{ NOTE_A5, 444 }, 
	{ NOTE_FS5, 446 }, 
	{ NOTE_G4, 444 }, 
	{ NOTE_D5, 444 }, 
	{ NOTE_AS4, 444 }, 
	{ NOTE_B4, 446 }, 
	{ NOTE_B4, 444 }, 
	{ NOTE_D5, 444 }, 
	{ NOTE_G4, 444 }, 
	{ NOTE_D5, 446 }, 
	{ NOTE_E4, 444 }, 
	{ NOTE_D5, 444 }, 
	{ NOTE_F4, 444 }, 
	{ NOTE_F5, 446 }, 
	{ NOTE_FS4, 889 }, 
	{ NOTE_FS5, 889 }, 
	{ NOTE_FS4, 1778 }, 
	{ NOTE_CS6, 111 }, 
	{ NOTE_B5, 111 }, 
	{ NOTE_AS5, 111 }, 
	{ NOTE_G5, 111 }, 
	{ NOTE_FS5, 111 }, 
	{ NOTE_E5, 111 }, 
	{ NOTE_D5, 111 }, 
	{ NOTE_CS5, 111 }, 
	{ NOTE_B4, 111 }, 
	{ NOTE_CS5, 111 }, 
	{ NOTE_G5, 111 }, 
	{ NOTE_FS5, 111 }, 
	{ NOTE_E5, 111 }, 
	{ NOTE_D5, 111 }, 
	{ NOTE_CS5, 111 }, 
	{ NOTE_B4, 113 }, 
	{ NOTE_AS4, 111 }, 
	{ NOTE_B4, 111 }, 
	{ NOTE_FS5, 111 }, 
	{ NOTE_E5, 111 }, 
	{ NOTE_D5, 111 }, 
	{ NOTE_CS5, 111 }, 
	{ NOTE_B4, 111 }, 
	{ NOTE_AS4, 111 }, 
	{ NOTE_G4, 890 }, 
	{ NOTE_AS4, 889 }, 
	{ NOTE_B4, 889 }, 
	{ NOTE_REST, 1778 }, 
	{ NOTE_REST, 1778 }, 
	{ NOTE_REST, 1778 }, 
};
const uint16_t NUM_OF_NOTES1 = sizeof(melody1)/sizeof(melody1[0]);

const Note melody2[] PROGMEM = {
	{ NOTE_REST, 1778 }, 
	{ NOTE_REST, 1778 }, 
	{ NOTE_REST, 1778 }, 
	{ NOTE_REST, 889 }, 
	{ NOTE_REST, 1778 }, 
	{ NOTE_REST, 1778 }, 
	{ NOTE_C6, 111 }, 
	{ NOTE_GS5, 111 }, 
	{ NOTE_F5, 111 }, 
	{ NOTE_C5, 111 }, 
	{ NOTE_F5, 111 }, 
	{ NOTE_C5, 111 }, 
	{ NOTE_D5, 111 }, 
	{ NOTE_E5, 111 }, 
	{ NOTE_F5, 111 }, 
	{ NOTE_G5, 111 }, 
	{ NOTE_GS5, 111 }, 
	{ NOTE_AS5, 111 }, 
	{ NOTE_GS5, 111 }, 
	{ NOTE_F5, 111 }, 
	{ NOTE_GS5, 111 }, 
	{ NOTE_AS5, 111 }, 
	{ NOTE_C6, 111 }, 
	{ NOTE_G5, 111 }, 
	{ NOTE_A5, 111 }, 
	{ NOTE_B5, 111 }, 
	{ NOTE_C6, 111 }, 
	{ NOTE_D6, 111 }, 
	{ NOTE_E6, 111 }, 
	{ NOTE_F6, 111 }, 
	{ NOTE_E6, 111 }, 
	{ NOTE_C6, 111 }, 
	{ NOTE_D6, 111 }, 
	{ NOTE_E6, 114 }, 
	{ NOTE_F6, 111 }, 
	{ NOTE_C6, 111 }, 
	{ NOTE_GS5, 111 }, 
	{ NOTE_C6, 111 }, 
	{ NOTE_F6, 111 }, 
	{ NOTE_DS6, 111 }, 
	{ NOTE_CS6, 111 }, 
	{ NOTE_C6, 111 }, 
	{ NOTE_AS5, 111 }, 
	{ NOTE_GS6, 111 }, 
	{ NOTE_G6, 111 }, 
	{ NOTE_F6, 111 }, 
	{ NOTE_G6, 111 }, 
	{ NOTE_D6, 111 }, 
	{ NOTE_E6, 111 }, 
	{ NOTE_F6, 111 }, 
	{ NOTE_E6, 111 }, 
	{ NOTE_F6, 111 }, 
	{ NOTE_G6, 111 }, 
	{ NOTE_F6, 111 }, 
	{ NOTE_E6, 111 }, 
	{ NOTE_CS6, 111 }, 
	{ NOTE_C6, 111 }, 
	{ NOTE_AS5, 111 }, 
	{ NOTE_GS5, 111 }, 
	{ NOTE_G5, 111 }, 
	{ NOTE_F5, 111 }, 
	{ NOTE_E5, 114 }, 
	{ NOTE_C6, 111 }, 
	{ NOTE_GS5, 111 }, 
	{ NOTE_F5, 111 }, 
	{ NOTE_C5, 111 }, 
	{ NOTE_F5, 111 }, 
	{ NOTE_C5, 111 }, 
	{ NOTE_D5, 111 }, 
	{ NOTE_E5, 111 }, 
	{ NOTE_F5, 111 }, 
	{ NOTE_G5, 111 }, 
	{ NOTE_GS5, 111 }, 
	{ NOTE_AS5, 111 }, 
	{ NOTE_GS5, 111 }, 
	{ NOTE_F5, 111 }, 
	{ NOTE_GS5, 111 }, 
	{ NOTE_AS5, 111 }, 
	{ NOTE_C6, 111 }, 
	{ NOTE_G5, 111 }, 
	{ NOTE_A5, 111 }, 
	{ NOTE_B5, 111 }, 
	{ NOTE_C6, 111 }, 
	{ NOTE_D6, 111 }, 
	{ NOTE_E6, 111 }, 
	{ NOTE_F6, 111 }, 
	{ NOTE_E6, 111 }, 
	{ NOTE_C6, 111 }, 
	{ NOTE_D6, 111 }, 
	{ NOTE_E6, 114 }, 
	{ NOTE_F6, 111 }, 
	{ NOTE_C6, 111 }, 
	{ NOTE_GS5, 111 }, 
	{ NOTE_C6, 111 }, 
	{ NOTE_F6, 111 }, 
	{ NOTE_DS6, 111 }, 
	{ NOTE_CS6, 111 }, 
	{ NOTE_C6, 111 }, 
	{ NOTE_AS5, 111 }, 
	{ NOTE_GS6, 111 }, 
	{ NOTE_G6, 111 }, 
	{ NOTE_F6, 111 }, 
	{ NOTE_G6, 111 }, 
	{ NOTE_D6, 111 }, 
	{ NOTE_E6, 111 }, 
	{ NOTE_F6, 111 }, 
	{ NOTE_E6, 111 }, 
	{ NOTE_F6, 111 }, 
	{ NOTE_G6, 111 }, 
	{ NOTE_F6, 111 }, 
	{ NOTE_E6, 111 }, 
	{ NOTE_CS6, 111 }, 
	{ NOTE_C6, 111 }, 
	{ NOTE_AS5, 111 }, 
	{ NOTE_GS5, 111 }, 
	{ NOTE_G5, 111 }, 
	{ NOTE_F5, 111 }, 
	{ NOTE_E5, 114 }, 
	{ NOTE_F5, 111 }, 
	{ NOTE_GS5, 111 }, 
	{ NOTE_C6, 111 }, 
	{ NOTE_GS5, 111 }, 
	{ NOTE_F5, 111 }, 
	{ NOTE_GS5, 111 }, 
	{ NOTE_CS6, 111 }, 
	{ NOTE_GS5, 111 }, 
	{ NOTE_F5, 111 }, 
	{ NOTE_GS5, 111 }, 
	{ NOTE_C6, 111 }, 
	{ NOTE_GS5, 111 }, 
	{ NOTE_B5, 111 }, 
	{ NOTE_C6, 111 }, 
	{ NOTE_B5, 111 }, 
	{ NOTE_C6, 113 }, 
	{ NOTE_C5, 111 }, 
	{ NOTE_G5, 111 }, 
	{ NOTE_F5, 111 }, 
	{ NOTE_G5, 111 }, 
	{ NOTE_GS5, 111 }, 
	{ NOTE_F5, 111 }, 
	{ NOTE_DS5, 111 }, 
	{ NOTE_F5, 111 }, 
	{ NOTE_D5, 111 }, 
	{ NOTE_F5, 111 }, 
	{ NOTE_DS5, 111 }, 
	{ NOTE_F5, 111 }, 
	{ NOTE_G5, 111 }, 
	{ NOTE_DS5, 111 }, 
	{ NOTE_D5, 111 }, 
	{ NOTE_DS5, 113 }, 
	{ NOTE_C5, 111 }, 
	{ NOTE_DS5, 111 }, 
	{ NOTE_D5, 111 }, 
	{ NOTE_DS5, 111 }, 
	{ NOTE_F5, 111 }, 
	{ NOTE_D5, 111 }, 
	{ NOTE_C5, 111 }, 
	{ NOTE_D5, 111 }, 
	{ NOTE_B4, 111 }, 
	{ NOTE_C5, 111 }, 
	{ NOTE_B4, 111 }, 
	{ NOTE_C5, 111 }, 
	{ NOTE_B4, 111 }, 
	{ NOTE_C5, 111 }, 
	{ NOTE_B4, 111 }, 
	{ NOTE_C5, 113 }, 
	{ NOTE_A5, 111 }, 
	{ NOTE_E6, 111 }, 
	{ NOTE_D6, 111 }, 
	{ NOTE_E6, 111 }, 
	{ NOTE_F6, 111 }, 
	{ NOTE_D6, 111 }, 
	{ NOTE_C6, 111 }, 
	{ NOTE_D6, 111 }, 
	{ NOTE_B5, 111 }, 
	{ NOTE_D6, 111 }, 
	{ NOTE_C6, 111 }, 
	{ NOTE_D6, 111 }, 
	{ NOTE_E6, 111 }, 
	{ NOTE_C6, 111 }, 
	{ NOTE_B5, 111 }, 
	{ NOTE_C6, 113 }, 
	{ NOTE_A5, 111 }, 
	{ NOTE_C6, 111 }, 
	{ NOTE_B5, 111 }, 
	{ NOTE_C6, 111 }, 
	{ NOTE_D6, 111 }, 
	{ NOTE_B5, 111 }, 
	{ NOTE_A5, 111 }, 
	{ NOTE_B5, 111 }, 
	{ NOTE_GS5, 111 }, 
	{ NOTE_B5, 111 }, 
	{ NOTE_D6, 111 }, 
	{ NOTE_F6, 111 }, 
	{ NOTE_E6, 111 }, 
	{ NOTE_D6, 111 }, 
	{ NOTE_C6, 111 }, 
	{ NOTE_B5, 113 }, 
	{ NOTE_A4, 111 }, 
	{ NOTE_A4, 111 }, 
	{ NOTE_A4, 111 }, 
	{ NOTE_A4, 111 }, 
	{ NOTE_A4, 111 }, 
	{ NOTE_E5, 111 }, 
	{ NOTE_D5, 111 }, 
	{ NOTE_E5, 111 }, 
	{ NOTE_C5, 111 }, 
	{ NOTE_E5, 111 }, 
	{ NOTE_B4, 111 }, 
	{ NOTE_E5, 111 }, 
	{ NOTE_A4, 111 }, 
	{ NOTE_E5, 111 }, 
	{ NOTE_C5, 111 }, 
	{ NOTE_E5, 111 }, 
	{ NOTE_B4, 111 }, 
	{ NOTE_E5, 111 }, 
	{ NOTE_A4, 111 }, 
	{ NOTE_E5, 111 }, 
	{ NOTE_GS4, 111 }, 
	{ NOTE_E5, 111 }, 
	{ NOTE_FS4, 111 }, 
	{ NOTE_E5, 111 }, 
	{ NOTE_E4, 111 }, 
	{ NOTE_E5, 111 }, 
	{ NOTE_DS5, 111 }, 
	{ NOTE_E5, 114 }, 
	{ NOTE_A4, 111 }, 
	{ NOTE_A4, 111 }, 
	{ NOTE_A4, 111 }, 
	{ NOTE_A4, 111 }, 
	{ NOTE_A4, 111 }, 
	{ NOTE_A4, 111 }, 
	{ NOTE_A5, 111 }, 
	{ NOTE_A5, 111 }, 
	{ NOTE_GS5, 111 }, 
	{ NOTE_A5, 111 }, 
	{ NOTE_F5, 111 }, 
	{ NOTE_A5, 111 }, 
	{ NOTE_E5, 111 }, 
	{ NOTE_A5, 111 }, 
	{ NOTE_DS5, 111 }, 
	{ NOTE_A5, 111 }, 
	{ NOTE_FS5, 111 }, 
	{ NOTE_A5, 111 }, 
	{ NOTE_GS5, 111 }, 
	{ NOTE_A5, 111 }, 
	{ NOTE_B5, 111 }, 
	{ NOTE_F5, 111 }, 
	{ NOTE_E5, 111 }, 
	{ NOTE_D5, 111 }, 
	{ NOTE_C5, 111 }, 
	{ NOTE_B4, 111 }, 
	{ NOTE_A4, 111 }, 
	{ NOTE_GS4, 114 }, 
	{ NOTE_A4, 444 }, 
	{ NOTE_F5, 444 }, 
	{ NOTE_A4, 444 }, 
	{ NOTE_B4, 446 }, 
	{ NOTE_REST, 222 }, 
	{ NOTE_A4, 222 }, 
	{ NOTE_REST, 222 }, 
	{ NOTE_F5, 222 }, 
	{ NOTE_REST, 222 }, 
	{ NOTE_A4, 222 }, 
	{ NOTE_REST, 222 }, 
	{ NOTE_B4, 224 }, 
	{ NOTE_C5, 1778 }, 
	{ NOTE_REST, 1778 }, 
	{ NOTE_REST, 1778 }, 
	{ NOTE_REST, 1778 }, 
	{ NOTE_REST, 1778 }, 
	{ NOTE_REST, 1778 }, 
	{ NOTE_REST, 1778 }, 
	{ NOTE_REST, 1778 }, 
	{ NOTE_REST, 1778 }, 
	{ NOTE_REST, 3111 }, 
	{ NOTE_REST, 3111 }, 
	{ NOTE_REST, 3111 }, 
	{ NOTE_REST, 1778 }, 
	{ NOTE_REST, 1778 }, 
	{ NOTE_REST, 2667 }, 
	{ NOTE_REST, 1778 }, 
	{ NOTE_REST, 1778 }, 
	{ NOTE_REST, 1778 }, 
	{ NOTE_REST, 1778 }, 
	{ NOTE_REST, 1778 }, 
	{ NOTE_REST, 1778 }, 
	{ NOTE_REST, 1778 }, 
	{ NOTE_REST, 1778 }, 
	{ NOTE_REST, 1333 }, 
	{ NOTE_REST, 333 }, 
	{ NOTE_DS6, 112 }, 
	{ NOTE_F6, 222 }, 
	{ NOTE_CS6, 74 }, 
	{ NOTE_F6, 74 }, 
	{ NOTE_CS6, 74 }, 
	{ NOTE_AS5, 111 }, 
	{ NOTE_F5, 111 }, 
	{ NOTE_F5, 111 }, 
	{ NOTE_F5, 111 }, 
	{ NOTE_AS5, 111 }, 
	{ NOTE_F5, 111 }, 
	{ NOTE_C6, 111 }, 
	{ NOTE_F5, 111 }, 
	{ NOTE_CS6, 111 }, 
	{ NOTE_F5, 111 }, 
	{ NOTE_C6, 111 }, 
	{ NOTE_F5, 113 }, 
	{ NOTE_AS5, 111 }, 
	{ NOTE_F5, 111 }, 
	{ NOTE_C6, 111 }, 
	{ NOTE_F5, 111 }, 
	{ NOTE_CS6, 111 }, 
	{ NOTE_C6, 111 }, 
	{ NOTE_AS5, 111 }, 
	{ NOTE_GS6, 1001 }, 
	{ NOTE_GS6, 444 }, 
	{ NOTE_GS6, 444 }, 
	{ NOTE_F6, 74 }, 
	{ NOTE_GS6, 74 }, 
	{ NOTE_G6, 74 }, 
	{ NOTE_CS6, 74 }, 
	{ NOTE_GS5, 74 }, 
	{ NOTE_AS5, 520 }, 
	{ NOTE_G5, 111 }, 
	{ NOTE_AS5, 111 }, 
	{ NOTE_G5, 111 }, 
	{ NOTE_DS5, 111 }, 
	{ NOTE_G5, 111 }, 
	{ NOTE_AS5, 111 }, 
	{ NOTE_DS6, 111 }, 
	{ NOTE_G6, 111 }, 
	{ NOTE_A6, 111 }, 
	{ NOTE_FS6, 74 }, 
	{ NOTE_D6, 74 }, 
	{ NOTE_A5, 74 }, 
	{ NOTE_FS5, 74 }, 
	{ NOTE_D5, 74 }, 
	{ NOTE_A4, 409 }, 
	{ NOTE_REST, 1778 }, 
	{ NOTE_REST, 1778 }, 
	{ NOTE_REST, 1778 }, 
	{ NOTE_REST, 1778 }, 
	{ NOTE_REST, 1778 }, 
	{ NOTE_REST, 1778 }, 
	{ NOTE_REST, 1778 }, 
	{ NOTE_REST, 1778 }, 
	{ NOTE_REST, 3111 }, 
	{ NOTE_REST, 3111 }, 
	{ NOTE_REST, 3111 }, 
	{ NOTE_REST, 1778 }, 
	{ NOTE_REST, 1778 }, 
	{ NOTE_REST, 2667 }, 
	{ NOTE_REST, 1778 }, 
	{ NOTE_REST, 1778 }, 
	{ NOTE_REST, 1778 }, 
	{ NOTE_REST, 1778 }, 
	{ NOTE_REST, 1778 }, 
	{ NOTE_REST, 1778 }, 
	{ NOTE_REST, 1778 }, 
	{ NOTE_REST, 1778 }, 
	{ NOTE_REST, 1778 }, 
	{ NOTE_DS6, 74 }, 
	{ NOTE_E6, 74 }, 
	{ NOTE_DS6, 74 }, 
	{ NOTE_B5, 74 }, 
	{ NOTE_DS6, 74 }, 
	{ NOTE_E6, 74 }, 
	{ NOTE_DS6, 74 }, 
	{ NOTE_C6, 74 }, 
	{ NOTE_B5, 74 }, 
	{ NOTE_C6, 74 }, 
	{ NOTE_DS6, 74 }, 
	{ NOTE_E6, 74 }, 
	{ NOTE_DS6, 74 }, 
	{ NOTE_C6, 74 }, 
	{ NOTE_DS6, 74 }, 
	{ NOTE_E6, 74 }, 
	{ NOTE_DS6, 74 }, 
	{ NOTE_C6, 74 }, 
	{ NOTE_B5, 74 }, 
	{ NOTE_C6, 74 }, 
	{ NOTE_DS6, 74 }, 
	{ NOTE_E6, 74 }, 
	{ NOTE_DS6, 74 }, 
	{ NOTE_B5, 76 }, 
	{ NOTE_DS6, 74 }, 
	{ NOTE_E6, 74 }, 
	{ NOTE_DS6, 74 }, 
	{ NOTE_C6, 74 }, 
	{ NOTE_B5, 74 }, 
	{ NOTE_C6, 74 }, 
	{ NOTE_DS6, 74 }, 
	{ NOTE_E6, 74 }, 
	{ NOTE_DS6, 74 }, 
	{ NOTE_E6, 74 }, 
	{ NOTE_FS6, 74 }, 
	{ NOTE_E6, 74 }, 
	{ NOTE_DS6, 74 }, 
	{ NOTE_C6, 74 }, 
	{ NOTE_AS5, 74 }, 
	{ NOTE_FS6, 74 }, 
	{ NOTE_E6, 74 }, 
	{ NOTE_DS6, 74 }, 
	{ NOTE_C6, 74 }, 
	{ NOTE_B5, 74 }, 
	{ NOTE_A5, 298 }, 
	{ NOTE_B5, 222 }, 
	{ NOTE_B5, 667 }, 
	{ NOTE_GS5, 111 }, 
	{ NOTE_G5, 74 }, 
	{ NOTE_GS5, 74 }, 
	{ NOTE_A5, 74 }, 
	{ NOTE_GS5, 333 }, 
	{ NOTE_A5, 74 }, 
	{ NOTE_B5, 74 }, 
	{ NOTE_D6, 75 }, 
	{ NOTE_D6, 74 }, 
	{ NOTE_E6, 74 }, 
	{ NOTE_F6, 74 }, 
	{ NOTE_E6, 74 }, 
	{ NOTE_D6, 74 }, 
	{ NOTE_C6, 74 }, 
	{ NOTE_B5, 74 }, 
	{ NOTE_A5, 74 }, 
	{ NOTE_B5, 74 }, 
	{ NOTE_A5, 74 }, 
	{ NOTE_GS5, 74 }, 
	{ NOTE_F5, 74 }, 
	{ NOTE_E5, 74 }, 
	{ NOTE_G5, 74 }, 
	{ NOTE_F5, 74 }, 
	{ NOTE_E5, 74 }, 
	{ NOTE_D5, 74 }, 
	{ NOTE_C5, 74 }, 
	{ NOTE_B4, 74 }, 
	{ NOTE_A4, 74 }, 
	{ NOTE_GS4, 298 }, 
	{ NOTE_C5, 111 }, 
	{ NOTE_B4, 111 }, 
	{ NOTE_D5, 111 }, 
	{ NOTE_C5, 111 }, 
	{ NOTE_E5, 111 }, 
	{ NOTE_D5, 111 }, 
	{ NOTE_F5, 111 }, 
	{ NOTE_E5, 111 }, 
	{ NOTE_G5, 111 }, 
	{ NOTE_F5, 111 }, 
	{ NOTE_GS5, 111 }, 
	{ NOTE_F5, 111 }, 
	{ NOTE_GS5, 111 }, 
	{ NOTE_B5, 111 }, 
	{ NOTE_D6, 111 }, 
	{ NOTE_B5, 113 }, 
	{ NOTE_D6, 74 }, 
	{ NOTE_F6, 74 }, 
	{ NOTE_D6, 74 }, 
	{ NOTE_F6, 74 }, 
	{ NOTE_D6, 74 }, 
	{ NOTE_F6, 74 }, 
	{ NOTE_GS6, 74 }, 
	{ NOTE_F6, 74 }, 
	{ NOTE_GS6, 74 }, 
	{ NOTE_F6, 74 }, 
	{ NOTE_GS6, 74 }, 
	{ NOTE_D6, 74 }, 
	{ NOTE_F6, 74 }, 
	{ NOTE_D6, 74 }, 
	{ NOTE_AS5, 74 }, 
	{ NOTE_F5, 74 }, 
	{ NOTE_D5, 74 }, 
	{ NOTE_AS4, 520 }, 
	{ NOTE_E4, 74 }, 
	{ NOTE_GS4, 74 }, 
	{ NOTE_B4, 74 }, 
	{ NOTE_D5, 74 }, 
	{ NOTE_E5, 74 }, 
	{ NOTE_GS5, 74 }, 
	{ NOTE_E5, 74 }, 
	{ NOTE_D5, 74 }, 
	{ NOTE_B4, 74 }, 
	{ NOTE_GS4, 74 }, 
	{ NOTE_E4, 74 }, 
	{ NOTE_GS4, 74 }, 
	{ NOTE_B4, 74 }, 
	{ NOTE_D5, 74 }, 
	{ NOTE_E5, 74 }, 
	{ NOTE_GS5, 74 }, 
	{ NOTE_B5, 74 }, 
	{ NOTE_D6, 74 }, 
	{ NOTE_E6, 74 }, 
	{ NOTE_D6, 74 }, 
	{ NOTE_B5, 74 }, 
	{ NOTE_GS5, 74 }, 
	{ NOTE_E5, 74 }, 
	{ NOTE_D5, 76 }, 
	{ NOTE_B4, 74 }, 
	{ NOTE_GS4, 74 }, 
	{ NOTE_E4, 74 }, 
	{ NOTE_GS4, 74 }, 
	{ NOTE_B4, 74 }, 
	{ NOTE_D5, 74 }, 
	{ NOTE_E5, 74 }, 
	{ NOTE_GS5, 74 }, 
	{ NOTE_B5, 74 }, 
	{ NOTE_D6, 74 }, 
	{ NOTE_E6, 74 }, 
	{ NOTE_D6, 74 }, 
	{ NOTE_B5, 74 }, 
	{ NOTE_D6, 74 }, 
	{ NOTE_GS6, 74 }, 
	{ NOTE_D6, 74 }, 
	{ NOTE_B5, 74 }, 
	{ NOTE_D6, 74 }, 
	{ NOTE_F6, 74 }, 
	{ NOTE_D6, 74 }, 
	{ NOTE_B5, 74 }, 
	{ NOTE_D6, 74 }, 
	{ NOTE_GS6, 74 }, 
	{ NOTE_D6, 76 }, 
	{ NOTE_GS5, 444 }, 
	{ NOTE_F5, 111 }, 
	{ NOTE_GS5, 111 }, 
	{ NOTE_F5, 111 }, 
	{ NOTE_E5, 222 }, 
	{ NOTE_F5, 111 }, 
	{ NOTE_E5, 111 }, 
	{ NOTE_D5, 111 }, 
	{ NOTE_D3, 1335 }, 
	{ NOTE_E4, 889 }, 
	{ NOTE_AS6, 222 }, 
	{ NOTE_FS6, 74 }, 
	{ NOTE_AS6, 74 }, 
	{ NOTE_FS6, 296 }, 
	{ NOTE_CS6, 74 }, 
	{ NOTE_FS6, 74 }, 
	{ NOTE_CS6, 296 }, 
	{ NOTE_AS5, 74 }, 
	{ NOTE_CS6, 74 }, 
	{ NOTE_AS5, 74 }, 
	{ NOTE_FS5, 74 }, 
	{ NOTE_CS5, 74 }, 
	{ NOTE_AS4, 74 }, 
	{ NOTE_FS4, 224 }, 
	{ NOTE_REST, 1778 }, 
	{ NOTE_REST, 1778 }, 
	{ NOTE_REST, 1778 }, 
	{ NOTE_REST, 1778 }, 
	{ NOTE_REST, 1778 }, 
	{ NOTE_REST, 1778 }, 
	{ NOTE_REST, 1778 }, 
	{ NOTE_REST, 1778 }, 
	{ NOTE_REST, 1778 }, 
	{ NOTE_REST, 1778 }, 
	{ NOTE_REST, 1778 }, 
	{ NOTE_REST, 889 }, 
	{ NOTE_REST, 1778 }, 
	{ NOTE_REST, 1778 }, 
	{ NOTE_REST, 1778 }, 
	{ NOTE_REST, 1778 }, 
	{ NOTE_REST, 1778 }, 
	{ NOTE_REST, 1778 }, 
	{ NOTE_REST, 1778 }, 
	{ NOTE_REST, 1778 }, 
	{ NOTE_REST, 1778 }, 
	{ NOTE_REST, 1778 }, 
	{ NOTE_REST, 1778 }, 
	{ NOTE_REST, 1778 }, 
	{ NOTE_REST, 1778 }, 
	{ NOTE_REST, 1778 }, 
	{ NOTE_REST, 1778 }, 
	{ NOTE_REST, 1778 }, 
	{ NOTE_REST, 1778 }, 
	{ NOTE_REST, 1778 }, 
	{ NOTE_REST, 1778 }, 
	{ NOTE_REST, 1778 }, 
	{ NOTE_REST, 1778 }, 
	{ NOTE_REST, 1778 }, 
	{ NOTE_REST, 1778 }, 
	{ NOTE_REST, 1778 }, 
};
const uint16_t NUM_OF_NOTES2 = sizeof(melody2)/sizeof(melody2[0]);

const Note melody3[] PROGMEM = {
	{ NOTE_REST, 1778 }, 
	{ NOTE_REST, 1778 }, 
	{ NOTE_REST, 1778 }, 
	{ NOTE_REST, 889 }, 
	{ NOTE_REST, 1778 }, 
	{ NOTE_REST, 1778 }, 
	{ NOTE_REST, 3111 }, 
	{ NOTE_REST, 3111 }, 
	{ NOTE_REST, 3111 }, 
	{ NOTE_REST, 3111 }, 
	{ NOTE_REST, 1778 }, 
	{ NOTE_REST, 1778 }, 
	{ NOTE_REST, 1778 }, 
	{ NOTE_REST, 1778 }, 
	{ NOTE_REST, 1778 }, 
	{ NOTE_REST, 3111 }, 
	{ NOTE_REST, 3111 }, 
	{ NOTE_REST, 1778 }, 
	{ NOTE_REST, 1778 }, 
	{ NOTE_REST, 1778 }, 
	{ NOTE_REST, 1778 }, 
	{ NOTE_REST, 1778 }, 
	{ NOTE_REST, 1778 }, 
	{ NOTE_REST, 1778 }, 
	{ NOTE_REST, 1778 }, 
	{ NOTE_REST, 1778 }, 
	{ NOTE_REST, 1778 }, 
	{ NOTE_REST, 1778 }, 
	{ NOTE_REST, 3111 }, 
	{ NOTE_REST, 3111 }, 
	{ NOTE_REST, 3111 }, 
	{ NOTE_REST, 1778 }, 
	{ NOTE_REST, 1778 }, 
	{ NOTE_REST, 2667 }, 
	{ NOTE_REST, 1778 }, 
	{ NOTE_REST, 1778 }, 
	{ NOTE_REST, 1778 }, 
	{ NOTE_REST, 1778 }, 
	{ NOTE_REST, 1778 }, 
	{ NOTE_REST, 1778 }, 
	{ NOTE_REST, 1778 }, 
	{ NOTE_REST, 1778 }, 
	{ NOTE_REST, 1778 }, 
	{ NOTE_REST, 1778 }, 
	{ NOTE_REST, 1778 }, 
	{ NOTE_REST, 1778 }, 
	{ NOTE_REST, 1778 }, 
	{ NOTE_REST, 1778 }, 
	{ NOTE_REST, 1778 }, 
	{ NOTE_REST, 1778 }, 
	{ NOTE_REST, 1778 }, 
	{ NOTE_REST, 1778 }, 
	{ NOTE_REST, 1778 }, 
	{ NOTE_REST, 1778 }, 
	{ NOTE_REST, 1778 }, 
	{ NOTE_REST, 3111 }, 
	{ NOTE_REST, 3111 }, 
	{ NOTE_REST, 3111 }, 
	{ NOTE_REST, 1778 }, 
	{ NOTE_REST, 1778 }, 
	{ NOTE_REST, 2667 }, 
	{ NOTE_REST, 1778 }, 
	{ NOTE_REST, 1778 }, 
	{ NOTE_REST, 1778 }, 
	{ NOTE_REST, 1778 }, 
	{ NOTE_REST, 1778 }, 
	{ NOTE_REST, 1778 }, 
	{ NOTE_REST, 1778 }, 
	{ NOTE_REST, 1778 }, 
	{ NOTE_REST, 1778 }, 
	{ NOTE_REST, 1778 }, 
	{ NOTE_REST, 1778 }, 
	{ NOTE_REST, 1778 }, 
	{ NOTE_REST, 1778 }, 
	{ NOTE_REST, 1778 }, 
	{ NOTE_REST, 1778 }, 
	{ NOTE_REST, 1778 }, 
	{ NOTE_REST, 1778 }, 
	{ NOTE_REST, 1778 }, 
	{ NOTE_REST, 1778 }, 
	{ NOTE_REST, 1778 }, 
	{ NOTE_G4, 74 }, 
	{ NOTE_A4, 74 }, 
	{ NOTE_AS4, 74 }, 
	{ NOTE_CS5, 111 }, 
	{ NOTE_AS4, 111 }, 
	{ NOTE_A4, 111 }, 
	{ NOTE_G4, 74 }, 
	{ NOTE_A4, 74 }, 
	{ NOTE_AS4, 74 }, 
	{ NOTE_CS5, 111 }, 
	{ NOTE_AS4, 111 }, 
	{ NOTE_A4, 111 }, 
	{ NOTE_G4, 74 }, 
	{ NOTE_A4, 74 }, 
	{ NOTE_AS4, 74 }, 
	{ NOTE_CS5, 111 }, 
	{ NOTE_AS4, 111 }, 
	{ NOTE_A4, 111 }, 
	{ NOTE_G4, 113 }, 
	{ NOTE_A4, 74 }, 
	{ NOTE_AS4, 74 }, 
	{ NOTE_CS5, 74 }, 
	{ NOTE_AS4, 111 }, 
	{ NOTE_A4, 111 }, 
	{ NOTE_G4, 74 }, 
	{ NOTE_A4, 74 }, 
	{ NOTE_AS4, 74 }, 
	{ NOTE_CS5, 111 }, 
	{ NOTE_D5, 111 }, 
	{ NOTE_E5, 74 }, 
	{ NOTE_F5, 74 }, 
	{ NOTE_E5, 74 }, 
	{ NOTE_D5, 74 }, 
	{ NOTE_CS5, 74 }, 
	{ NOTE_D5, 74 }, 
	{ NOTE_E5, 74 }, 
	{ NOTE_F5, 74 }, 
	{ NOTE_G5, 74 }, 
	{ NOTE_A5, 224 }, 
	{ NOTE_A5, 111 }, 
	{ NOTE_G5, 111 }, 
	{ NOTE_F5, 111 }, 
	{ NOTE_D6, 222 }, 
	{ NOTE_D6, 111 }, 
	{ NOTE_CS6, 111 }, 
	{ NOTE_D6, 111 }, 
	{ NOTE_CS6, 111 }, 
	{ NOTE_A5, 222 }, 
	{ NOTE_A5, 111 }, 
	{ NOTE_G5, 111 }, 
	{ NOTE_D6, 111 }, 
	{ NOTE_AS5, 111 }, 
	{ NOTE_A5, 113 }, 
	{ NOTE_G5, 111 }, 
	{ NOTE_F5, 111 }, 
	{ NOTE_E5, 111 }, 
	{ NOTE_D5, 111 }, 
	{ NOTE_CS5, 111 }, 
	{ NOTE_D5, 111 }, 
	{ NOTE_E5, 111 }, 
	{ NOTE_F5, 111 }, 
	{ NOTE_A4, 111 }, 
	{ NOTE_AS4, 111 }, 
	{ NOTE_C5, 111 }, 
	{ NOTE_B4, 444 }, 
	{ NOTE_AS4, 113 }, 
	{ NOTE_A4, 111 }, 
	{ NOTE_G4, 111 }, 
	{ NOTE_D5, 111 }, 
	{ NOTE_E5, 444 }, 
	{ NOTE_CS5, 111 }, 
	{ NOTE_B4, 111 }, 
	{ NOTE_G5, 444 }, 
	{ NOTE_E5, 111 }, 
	{ NOTE_G5, 111 }, 
	{ NOTE_AS5, 113 }, 
	{ NOTE_G5, 111 }, 
	{ NOTE_AS5, 111 }, 
	{ NOTE_CS6, 111 }, 
	{ NOTE_AS5, 111 }, 
	{ NOTE_G5, 111 }, 
	{ NOTE_D6, 111 }, 
	{ NOTE_AS5, 111 }, 
	{ NOTE_G5, 111 }, 
	{ NOTE_DS6, 111 }, 
	{ NOTE_AS5, 111 }, 
	{ NOTE_G5, 111 }, 
	{ NOTE_CS6, 111 }, 
	{ NOTE_AS5, 111 }, 
	{ NOTE_G5, 111 }, 
	{ NOTE_AS5, 111 }, 
	{ NOTE_CS6, 113 }, 
	{ NOTE_AS5, 111 }, 
	{ NOTE_G5, 111 }, 
	{ NOTE_A5, 111 }, 
	{ NOTE_AS5, 111 }, 
	{ NOTE_A5, 111 }, 
	{ NOTE_G5, 111 }, 
	{ NOTE_F5, 111 }, 
	{ NOTE_E5, 111 }, 
	{ NOTE_D5, 111 }, 
	{ NOTE_CS5, 111 }, 
	{ NOTE_D5, 111 }, 
	{ NOTE_E5, 111 }, 
	{ NOTE_F5, 111 }, 
	{ NOTE_G5, 111 }, 
	{ NOTE_F5, 111 }, 
	{ NOTE_E5, 113 }, 
	{ NOTE_D5, 111 }, 
	{ NOTE_CS5, 111 }, 
	{ NOTE_AS4, 111 }, 
	{ NOTE_A4, 111 }, 
	{ NOTE_E5, 111 }, 
	{ NOTE_AS4, 111 }, 
	{ NOTE_A4, 111 }, 
	{ NOTE_D5, 111 }, 
	{ NOTE_A4, 111 }, 
	{ NOTE_G4, 111 }, 
	{ NOTE_A4, 111 }, 
	{ NOTE_CS5, 111 }, 
	{ NOTE_CS5, 111 }, 
	{ NOTE_A4, 111 }, 
	{ NOTE_G4, 224 }, 
	{ NOTE_GS4, 111 }, 
	{ NOTE_G4, 111 }, 
	{ NOTE_F4, 111 }, 
	{ NOTE_D5, 111 }, 
	{ NOTE_C5, 111 }, 
	{ NOTE_B4, 111 }, 
	{ NOTE_DS5, 111 }, 
	{ NOTE_D5, 111 }, 
	{ NOTE_C5, 111 }, 
	{ NOTE_GS5, 111 }, 
	{ NOTE_G5, 111 }, 
	{ NOTE_F5, 111 }, 
	{ NOTE_D6, 111 }, 
	{ NOTE_C6, 111 }, 
	{ NOTE_B5, 111 }, 
	{ NOTE_DS6, 113 }, 
	{ NOTE_D6, 111 }, 
	{ NOTE_C6, 111 }, 
	{ NOTE_B5, 111 }, 
	{ NOTE_GS5, 111 }, 
	{ NOTE_G5, 111 }, 
	{ NOTE_F5, 111 }, 
	{ NOTE_DS5, 111 }, 
	{ NOTE_D5, 111 }, 
	{ NOTE_C5, 111 }, 
	{ NOTE_D5, 111 }, 
	{ NOTE_GS5, 111 }, 
	{ NOTE_G5, 111 }, 
	{ NOTE_F5, 111 }, 
	{ NOTE_DS5, 111 }, 
	{ NOTE_D5, 111 }, 
	{ NOTE_C5, 113 }, 
	{ NOTE_B4, 111 }, 
	{ NOTE_C5, 111 }, 
	{ NOTE_G5, 111 }, 
	{ NOTE_F5, 111 }, 
	{ NOTE_DS5, 111 }, 
	{ NOTE_D5, 111 }, 
	{ NOTE_C5, 111 }, 
	{ NOTE_B4, 111 }, 
	{ NOTE_GS4, 111 }, 
	{ NOTE_G4, 111 }, 
	{ NOTE_F4, 111 }, 
	{ NOTE_G4, 111 }, 
	{ NOTE_GS4, 111 }, 
	{ NOTE_B4, 111 }, 
	{ NOTE_C5, 111 }, 
	{ NOTE_D5, 113 }, 
	{ NOTE_DS5, 444 }, 
	{ NOTE_E5, 445 }, 
	{ NOTE_REST, 1778 }, 
	{ NOTE_REST, 1778 }, 
	{ NOTE_REST, 1778 }, 
	{ NOTE_REST, 1778 }, 
	{ NOTE_REST, 1778 }, 
	{ NOTE_REST, 1778 }, 
	{ NOTE_REST, 1778 }, 
	{ NOTE_REST, 1778 }, 
	{ NOTE_REST, 1778 }, 
	{ NOTE_REST, 1778 }, 
	{ NOTE_REST, 1778 }, 
	{ NOTE_REST, 1778 }, 
	{ NOTE_REST, 1778 }, 
	{ NOTE_REST, 1778 }, 
	{ NOTE_REST, 1778 }, 
	{ NOTE_REST, 1778 }, 
	{ NOTE_REST, 1778 }, 
	{ NOTE_REST, 1778 }, 
	{ NOTE_REST, 1778 }, 
	{ NOTE_REST, 1778 }, 
	{ NOTE_REST, 1778 }, 
	{ NOTE_REST, 1778 }, 
	{ NOTE_REST, 1778 }, 
	{ NOTE_REST, 1778 }, 
};
const uint16_t NUM_OF_NOTES3 = sizeof(melody3)/sizeof(melody3[0]);

const Note melody4[] PROGMEM = {
	{ NOTE_AS3, 222 }, 
	{ NOTE_AS3, 222 }, 
	{ NOTE_AS3, 222 }, 
	{ NOTE_AS3, 222 }, 
	{ NOTE_AS3, 222 }, 
	{ NOTE_AS3, 222 }, 
	{ NOTE_AS3, 222 }, 
	{ NOTE_AS3, 224 }, 
	{ NOTE_AS3, 222 }, 
	{ NOTE_AS3, 222 }, 
	{ NOTE_AS3, 222 }, 
	{ NOTE_AS3, 222 }, 
	{ NOTE_AS3, 222 }, 
	{ NOTE_AS3, 222 }, 
	{ NOTE_AS3, 222 }, 
	{ NOTE_AS3, 111 }, 
	{ NOTE_AS3, 113 }, 
	{ NOTE_AS3, 222 }, 
	{ NOTE_AS3, 222 }, 
	{ NOTE_AS3, 222 }, 
	{ NOTE_AS3, 222 }, 
	{ NOTE_AS3, 222 }, 
	{ NOTE_AS3, 222 }, 
	{ NOTE_AS3, 222 }, 
	{ NOTE_AS3, 224 }, 
	{ NOTE_AS3, 222 }, 
	{ NOTE_AS3, 222 }, 
	{ NOTE_AS3, 111 }, 
	{ NOTE_AS3, 111 }, 
	{ NOTE_AS3, 111 }, 
	{ NOTE_AS3, 112 }, 
	{ NOTE_C4, 444 }, 
	{ NOTE_AS3, 444 }, 
	{ NOTE_GS3, 444 }, 
	{ NOTE_E3, 446 }, 
	{ NOTE_F3, 444 }, 
	{ NOTE_B3, 444 }, 
	{ NOTE_C4, 890 }, 
	{ NOTE_F3, 222 }, 
	{ NOTE_F3, 222 }, 
	{ NOTE_F3, 222 }, 
	{ NOTE_F3, 222 }, 
	{ NOTE_F3, 222 }, 
	{ NOTE_G3, 222 }, 
	{ NOTE_GS3, 222 }, 
	{ NOTE_AS3, 222 }, 
	{ NOTE_C4, 222 }, 
	{ NOTE_G3, 222 }, 
	{ NOTE_C4, 222 }, 
	{ NOTE_D4, 222 }, 
	{ NOTE_E4, 222 }, 
	{ NOTE_C4, 225 }, 
	{ NOTE_F4, 222 }, 
	{ NOTE_F4, 222 }, 
	{ NOTE_CS4, 222 }, 
	{ NOTE_C4, 222 }, 
	{ NOTE_AS3, 222 }, 
	{ NOTE_CS4, 222 }, 
	{ NOTE_G3, 222 }, 
	{ NOTE_B3, 222 }, 
	{ NOTE_C4, 222 }, 
	{ NOTE_CS4, 222 }, 
	{ NOTE_C4, 222 }, 
	{ NOTE_AS3, 222 }, 
	{ NOTE_GS3, 222 }, 
	{ NOTE_G3, 225 }, 
	{ NOTE_F3, 222 }, 
	{ NOTE_F3, 222 }, 
	{ NOTE_F3, 222 }, 
	{ NOTE_F3, 222 }, 
	{ NOTE_F3, 222 }, 
	{ NOTE_G3, 222 }, 
	{ NOTE_GS3, 222 }, 
	{ NOTE_AS3, 222 }, 
	{ NOTE_C4, 222 }, 
	{ NOTE_G3, 222 }, 
	{ NOTE_C4, 222 }, 
	{ NOTE_D4, 222 }, 
	{ NOTE_E4, 222 }, 
	{ NOTE_C4, 225 }, 
	{ NOTE_F4, 222 }, 
	{ NOTE_F4, 222 }, 
	{ NOTE_CS4, 222 }, 
	{ NOTE_C4, 222 }, 
	{ NOTE_AS3, 222 }, 
	{ NOTE_CS4, 222 }, 
	{ NOTE_G3, 222 }, 
	{ NOTE_B3, 222 }, 
	{ NOTE_C4, 222 }, 
	{ NOTE_CS4, 222 }, 
	{ NOTE_C4, 222 }, 
	{ NOTE_AS3, 222 }, 
	{ NOTE_GS3, 222 }, 
	{ NOTE_G3, 225 }, 
	{ NOTE_F3, 444 }, 
	{ NOTE_CS4, 444 }, 
	{ NOTE_F3, 444 }, 
	{ NOTE_G3, 446 }, 
	{ NOTE_C4, 444 }, 
	{ NOTE_F3, 444 }, 
	{ NOTE_B3, 444 }, 
	{ NOTE_C4, 446 }, 
	{ NOTE_GS3, 444 }, 
	{ NOTE_F3, 444 }, 
	{ NOTE_G3, 667 }, 
	{ NOTE_GS3, 223 }, 
	{ NOTE_A3, 444 }, 
	{ NOTE_D3, 444 }, 
	{ NOTE_GS3, 444 }, 
	{ NOTE_A3, 446 }, 
	{ NOTE_F3, 444 }, 
	{ NOTE_D3, 444 }, 
	{ NOTE_E3, 890 }, 
	{ NOTE_A3, 222 }, 
	{ NOTE_A3, 222 }, 
	{ NOTE_A3, 222 }, 
	{ NOTE_A3, 222 }, 
	{ NOTE_A3, 222 }, 
	{ NOTE_B3, 222 }, 
	{ NOTE_C4, 222 }, 
	{ NOTE_D4, 222 }, 
	{ NOTE_E4, 222 }, 
	{ NOTE_B3, 222 }, 
	{ NOTE_E4, 222 }, 
	{ NOTE_FS4, 222 }, 
	{ NOTE_GS4, 222 }, 
	{ NOTE_E4, 225 }, 
	{ NOTE_A4, 222 }, 
	{ NOTE_A4, 222 }, 
	{ NOTE_F4, 222 }, 
	{ NOTE_E4, 222 }, 
	{ NOTE_D4, 222 }, 
	{ NOTE_F4, 222 }, 
	{ NOTE_B3, 222 }, 
	{ NOTE_DS4, 222 }, 
	{ NOTE_E4, 222 }, 
	{ NOTE_F4, 222 }, 
	{ NOTE_E4, 222 }, 
	{ NOTE_D4, 222 }, 
	{ NOTE_C4, 222 }, 
	{ NOTE_B3, 225 }, 
	{ NOTE_A3, 444 }, 
	{ NOTE_F4, 444 }, 
	{ NOTE_A3, 444 }, 
	{ NOTE_B3, 446 }, 
	{ NOTE_REST, 222 }, 
	{ NOTE_A3, 222 }, 
	{ NOTE_REST, 222 }, 
	{ NOTE_F4, 222 }, 
	{ NOTE_REST, 222 }, 
	{ NOTE_A3, 222 }, 
	{ NOTE_REST, 222 }, 
	{ NOTE_B3, 224 }, 
	{ NOTE_C4, 1778 }, 
	{ NOTE_C4, 111 }, 
	{ NOTE_D4, 111 }, 
	{ NOTE_G3, 111 }, 
	{ NOTE_G3, 111 }, 
	{ NOTE_G3, 111 }, 
	{ NOTE_G3, 111 }, 
	{ NOTE_G3, 111 }, 
	{ NOTE_G3, 111 }, 
	{ NOTE_G3, 111 }, 
	{ NOTE_G3, 111 }, 
	{ NOTE_G3, 111 }, 
	{ NOTE_G3, 111 }, 
	{ NOTE_G3, 111 }, 
	{ NOTE_G3, 111 }, 
	{ NOTE_G3, 111 }, 
	{ NOTE_G3, 113 }, 
	{ NOTE_C4, 111 }, 
	{ NOTE_D4, 111 }, 
	{ NOTE_G3, 111 }, 
	{ NOTE_DS4, 111 }, 
	{ NOTE_D4, 111 }, 
	{ NOTE_G3, 111 }, 
	{ NOTE_C4, 111 }, 
	{ NOTE_D4, 111 }, 
	{ NOTE_G3, 111 }, 
	{ NOTE_G3, 111 }, 
	{ NOTE_G3, 111 }, 
	{ NOTE_G3, 111 }, 
	{ NOTE_G3, 111 }, 
	{ NOTE_G3, 111 }, 
	{ NOTE_G3, 111 }, 
	{ NOTE_G3, 113 }, 
	{ NOTE_C4, 111 }, 
	{ NOTE_D4, 111 }, 
	{ NOTE_G3, 111 }, 
	{ NOTE_G3, 111 }, 
	{ NOTE_G3, 111 }, 
	{ NOTE_G3, 111 }, 
	{ NOTE_G3, 111 }, 
	{ NOTE_G3, 111 }, 
	{ NOTE_G3, 111 }, 
	{ NOTE_G3, 111 }, 
	{ NOTE_G3, 111 }, 
	{ NOTE_G3, 111 }, 
	{ NOTE_G3, 111 }, 
	{ NOTE_G3, 111 }, 
	{ NOTE_G3, 111 }, 
	{ NOTE_G3, 113 }, 
	{ NOTE_C4, 111 }, 
	{ NOTE_D4, 111 }, 
	{ NOTE_G3, 111 }, 
	{ NOTE_DS4, 111 }, 
	{ NOTE_D4, 111 }, 
	{ NOTE_G3, 111 }, 
	{ NOTE_C4, 111 }, 
	{ NOTE_D4, 111 }, 
	{ NOTE_G3, 111 }, 
	{ NOTE_G3, 111 }, 
	{ NOTE_G3, 111 }, 
	{ NOTE_G3, 111 }, 
	{ NOTE_G3, 111 }, 
	{ NOTE_G3, 111 }, 
	{ NOTE_G3, 111 }, 
	{ NOTE_G3, 113 }, 
	{ NOTE_C4, 111 }, 
	{ NOTE_D4, 111 }, 
	{ NOTE_G3, 111 }, 
	{ NOTE_G3, 111 }, 
	{ NOTE_G3, 111 }, 
	{ NOTE_G3, 111 }, 
	{ NOTE_G3, 111 }, 
	{ NOTE_G3, 111 }, 
	{ NOTE_G3, 111 }, 
	{ NOTE_G3, 111 }, 
	{ NOTE_G3, 111 }, 
	{ NOTE_G3, 111 }, 
	{ NOTE_G3, 111 }, 
	{ NOTE_G3, 111 }, 
	{ NOTE_G3, 111 }, 
	{ NOTE_G3, 113 }, 
	{ NOTE_C4, 111 }, 
	{ NOTE_D4, 111 }, 
	{ NOTE_G3, 111 }, 
	{ NOTE_DS4, 111 }, 
	{ NOTE_D4, 111 }, 
	{ NOTE_G3, 111 }, 
	{ NOTE_C4, 111 }, 
	{ NOTE_D4, 111 }, 
	{ NOTE_G3, 111 }, 
	{ NOTE_G3, 111 }, 
	{ NOTE_G3, 111 }, 
	{ NOTE_G3, 111 }, 
	{ NOTE_G3, 111 }, 
	{ NOTE_G3, 111 }, 
	{ NOTE_G3, 111 }, 
	{ NOTE_G3, 113 }, 
	{ NOTE_C4, 111 }, 
	{ NOTE_D4, 111 }, 
	{ NOTE_G3, 111 }, 
	{ NOTE_G3, 111 }, 
	{ NOTE_G3, 111 }, 
	{ NOTE_G3, 111 }, 
	{ NOTE_G3, 111 }, 
	{ NOTE_G3, 111 }, 
	{ NOTE_G3, 111 }, 
	{ NOTE_G3, 111 }, 
	{ NOTE_G3, 111 }, 
	{ NOTE_G3, 111 }, 
	{ NOTE_G3, 111 }, 
	{ NOTE_G3, 111 }, 
	{ NOTE_G3, 111 }, 
	{ NOTE_G3, 113 }, 
	{ NOTE_C4, 111 }, 
	{ NOTE_D4, 111 }, 
	{ NOTE_G3, 111 }, 
	{ NOTE_DS4, 111 }, 
	{ NOTE_D4, 111 }, 
	{ NOTE_G3, 111 }, 
	{ NOTE_C4, 111 }, 
	{ NOTE_D4, 111 }, 
	{ NOTE_G3, 111 }, 
	{ NOTE_G3, 111 }, 
	{ NOTE_G3, 111 }, 
	{ NOTE_G3, 111 }, 
	{ NOTE_G3, 111 }, 
	{ NOTE_G3, 111 }, 
	{ NOTE_G3, 111 }, 
	{ NOTE_G3, 113 }, 
	{ NOTE_A3, 111 }, 
	{ NOTE_B3, 333 }, 
	{ NOTE_A3, 111 }, 
	{ NOTE_B3, 222 }, 
	{ NOTE_F3, 111 }, 
	{ NOTE_REST, 111 }, 
	{ NOTE_D3, 111 }, 
	{ NOTE_E3, 111 }, 
	{ NOTE_F3, 111 }, 
	{ NOTE_B3, 444 }, 
	{ NOTE_A3, 111 }, 
	{ NOTE_B3, 222 }, 
	{ NOTE_F3, 111 }, 
	{ NOTE_REST, 111 }, 
	{ NOTE_D3, 111 }, 
	{ NOTE_E3, 111 }, 
	{ NOTE_F3, 111 }, 
	{ NOTE_A3, 111 }, 
	{ NOTE_B3, 111 }, 
	{ NOTE_D4, 111 }, 
	{ NOTE_E4, 114 }, 
	{ NOTE_A3, 111 }, 
	{ NOTE_B3, 333 }, 
	{ NOTE_A3, 111 }, 
	{ NOTE_B3, 222 }, 
	{ NOTE_F3, 111 }, 
	{ NOTE_REST, 111 }, 
	{ NOTE_D3, 111 }, 
	{ NOTE_E3, 111 }, 
	{ NOTE_F3, 111 }, 
	{ NOTE_B3, 444 }, 
	{ NOTE_A3, 111 }, 
	{ NOTE_B3, 222 }, 
	{ NOTE_F3, 111 }, 
	{ NOTE_REST, 111 }, 
	{ NOTE_D3, 111 }, 
	{ NOTE_E3, 111 }, 
	{ NOTE_F3, 111 }, 
	{ NOTE_A3, 111 }, 
	{ NOTE_B3, 111 }, 
	{ NOTE_D4, 111 }, 
	{ NOTE_E4, 114 }, 
	{ NOTE_A3, 111 }, 
	{ NOTE_B3, 333 }, 
	{ NOTE_A3, 111 }, 
	{ NOTE_B3, 222 }, 
	{ NOTE_F3, 111 }, 
	{ NOTE_REST, 111 }, 
	{ NOTE_D3, 111 }, 
	{ NOTE_E3, 111 }, 
	{ NOTE_F3, 111 }, 
	{ NOTE_B3, 444 }, 
	{ NOTE_A3, 111 }, 
	{ NOTE_B3, 222 }, 
	{ NOTE_F3, 111 }, 
	{ NOTE_REST, 111 }, 
	{ NOTE_D3, 111 }, 
	{ NOTE_E3, 111 }, 
	{ NOTE_F3, 111 }, 
	{ NOTE_A3, 111 }, 
	{ NOTE_B3, 111 }, 
	{ NOTE_D4, 111 }, 
	{ NOTE_E4, 114 }, 
	{ NOTE_D3, 889 }, 
	{ NOTE_D3, 889 }, 
	{ NOTE_DS3, 889 }, 
	{ NOTE_DS3, 889 }, 
	{ NOTE_B3, 444 }, 
	{ NOTE_REST, 1778 }, 
	{ NOTE_REST, 445 }, 
	{ NOTE_G3, 111 }, 
	{ NOTE_G3, 111 }, 
	{ NOTE_G3, 111 }, 
	{ NOTE_G3, 111 }, 
	{ NOTE_G3, 111 }, 
	{ NOTE_G3, 111 }, 
	{ NOTE_G3, 111 }, 
	{ NOTE_G3, 111 }, 
	{ NOTE_AS3, 111 }, 
	{ NOTE_AS3, 111 }, 
	{ NOTE_AS3, 111 }, 
	{ NOTE_AS3, 111 }, 
	{ NOTE_AS3, 111 }, 
	{ NOTE_AS3, 111 }, 
	{ NOTE_AS3, 111 }, 
	{ NOTE_AS3, 113 }, 
	{ NOTE_B3, 111 }, 
	{ NOTE_B3, 111 }, 
	{ NOTE_B3, 111 }, 
	{ NOTE_B3, 111 }, 
	{ NOTE_B3, 111 }, 
	{ NOTE_B3, 111 }, 
	{ NOTE_B3, 111 }, 
	{ NOTE_B3, 111 }, 
	{ NOTE_A3, 111 }, 
	{ NOTE_A3, 111 }, 
	{ NOTE_A3, 111 }, 
	{ NOTE_A3, 111 }, 
	{ NOTE_A3, 111 }, 
	{ NOTE_A3, 111 }, 
	{ NOTE_A3, 111 }, 
	{ NOTE_A3, 113 }, 
	{ NOTE_E3, 111 }, 
	{ NOTE_E3, 111 }, 
	{ NOTE_E3, 111 }, 
	{ NOTE_E3, 111 }, 
	{ NOTE_E3, 111 }, 
	{ NOTE_E3, 111 }, 
	{ NOTE_E3, 111 }, 
	{ NOTE_E3, 111 }, 
	{ NOTE_FS3, 111 }, 
	{ NOTE_FS3, 111 }, 
	{ NOTE_FS3, 111 }, 
	{ NOTE_FS3, 111 }, 
	{ NOTE_FS3, 111 }, 
	{ NOTE_FS3, 111 }, 
	{ NOTE_FS3, 111 }, 
	{ NOTE_FS3, 113 }, 
	{ NOTE_B3, 111 }, 
	{ NOTE_B3, 111 }, 
	{ NOTE_B3, 111 }, 
	{ NOTE_B3, 111 }, 
	{ NOTE_B3, 111 }, 
	{ NOTE_B3, 111 }, 
	{ NOTE_B3, 111 }, 
	{ NOTE_B3, 111 }, 
	{ NOTE_B3, 111 }, 
	{ NOTE_B3, 111 }, 
	{ NOTE_B3, 111 }, 
	{ NOTE_B3, 111 }, 
	{ NOTE_B3, 111 }, 
	{ NOTE_A3, 111 }, 
	{ NOTE_G3, 111 }, 
	{ NOTE_FS3, 113 }, 
	{ NOTE_G3, 111 }, 
	{ NOTE_G3, 111 }, 
	{ NOTE_G3, 111 }, 
	{ NOTE_G3, 111 }, 
	{ NOTE_G3, 111 }, 
	{ NOTE_G3, 111 }, 
	{ NOTE_G3, 111 }, 
	{ NOTE_G3, 111 }, 
	{ NOTE_AS3, 111 }, 
	{ NOTE_AS3, 111 }, 
	{ NOTE_AS3, 111 }, 
	{ NOTE_AS3, 111 }, 
	{ NOTE_AS3, 111 }, 
	{ NOTE_AS3, 111 }, 
	{ NOTE_AS3, 111 }, 
	{ NOTE_AS3, 113 }, 
	{ NOTE_B3, 111 }, 
	{ NOTE_B3, 111 }, 
	{ NOTE_B3, 111 }, 
	{ NOTE_B3, 111 }, 
	{ NOTE_B3, 111 }, 
	{ NOTE_B3, 111 }, 
	{ NOTE_B3, 111 }, 
	{ NOTE_B3, 111 }, 
	{ NOTE_G3, 111 }, 
	{ NOTE_G3, 111 }, 
	{ NOTE_G3, 111 }, 
	{ NOTE_G3, 111 }, 
	{ NOTE_G3, 111 }, 
	{ NOTE_G3, 111 }, 
	{ NOTE_G3, 111 }, 
	{ NOTE_G3, 113 }, 
	{ NOTE_E3, 111 }, 
	{ NOTE_E3, 111 }, 
	{ NOTE_E3, 111 }, 
	{ NOTE_E3, 111 }, 
	{ NOTE_E3, 111 }, 
	{ NOTE_E3, 111 }, 
	{ NOTE_E3, 111 }, 
	{ NOTE_E3, 111 }, 
	{ NOTE_F3, 111 }, 
	{ NOTE_F3, 111 }, 
	{ NOTE_F3, 111 }, 
	{ NOTE_F3, 111 }, 
	{ NOTE_F3, 111 }, 
	{ NOTE_F3, 111 }, 
	{ NOTE_F3, 111 }, 
	{ NOTE_F3, 113 }, 
	{ NOTE_FS3, 111 }, 
	{ NOTE_FS3, 111 }, 
	{ NOTE_FS3, 111 }, 
	{ NOTE_FS3, 111 }, 
	{ NOTE_FS3, 111 }, 
	{ NOTE_FS3, 111 }, 
	{ NOTE_FS3, 111 }, 
	{ NOTE_FS3, 111 }, 
	{ NOTE_FS3, 111 }, 
	{ NOTE_FS3, 111 }, 
	{ NOTE_FS3, 111 }, 
	{ NOTE_FS3, 111 }, 
	{ NOTE_FS3, 111 }, 
	{ NOTE_FS3, 111 }, 
	{ NOTE_FS3, 111 }, 
	{ NOTE_FS3, 113 }, 
	{ NOTE_FS3, 333 }, 
	{ NOTE_FS3, 222 }, 
	{ NOTE_REST, 111 }, 
	{ NOTE_FS3, 222 }, 
	{ NOTE_FS3, 111 }, 
	{ NOTE_FS3, 111 }, 
	{ NOTE_FS3, 111 }, 
	{ NOTE_FS3, 111 }, 
	{ NOTE_FS3, 111 }, 
	{ NOTE_FS3, 111 }, 
	{ NOTE_FS3, 111 }, 
	{ NOTE_REST, 113 }, 
	{ NOTE_AS3, 333 }, 
	{ NOTE_AS3, 111 }, 
	{ NOTE_REST, 111 }, 
	{ NOTE_AS3, 111 }, 
	{ NOTE_AS3, 222 }, 
	{ NOTE_AS3, 111 }, 
	{ NOTE_AS3, 111 }, 
	{ NOTE_AS3, 111 }, 
	{ NOTE_AS3, 111 }, 
	{ NOTE_AS3, 111 }, 
	{ NOTE_AS3, 111 }, 
	{ NOTE_AS3, 111 }, 
	{ NOTE_REST, 113 }, 
	{ NOTE_AS3, 333 }, 
	{ NOTE_AS3, 111 }, 
	{ NOTE_REST, 111 }, 
	{ NOTE_AS3, 111 }, 
	{ NOTE_AS3, 222 }, 
	{ NOTE_AS3, 111 }, 
	{ NOTE_AS3, 111 }, 
	{ NOTE_AS3, 111 }, 
	{ NOTE_AS3, 111 }, 
	{ NOTE_AS3, 111 }, 
	{ NOTE_AS3, 111 }, 
	{ NOTE_AS3, 111 }, 
	{ NOTE_REST, 113 }, 
	{ NOTE_AS3, 333 }, 
	{ NOTE_AS3, 111 }, 
	{ NOTE_REST, 111 }, 
	{ NOTE_AS3, 111 }, 
	{ NOTE_AS3, 222 }, 
	{ NOTE_AS3, 111 }, 
	{ NOTE_AS3, 111 }, 
	{ NOTE_AS3, 111 }, 
	{ NOTE_AS3, 111 }, 
	{ NOTE_AS3, 111 }, 
	{ NOTE_AS3, 111 }, 
	{ NOTE_AS3, 111 }, 
	{ NOTE_REST, 113 }, 
	{ NOTE_DS4, 889 }, 
	{ NOTE_D4, 889 }, 
	{ NOTE_C4, 111 }, 
	{ NOTE_D4, 111 }, 
	{ NOTE_G3, 111 }, 
	{ NOTE_G3, 111 }, 
	{ NOTE_G3, 111 }, 
	{ NOTE_G3, 111 }, 
	{ NOTE_G3, 111 }, 
	{ NOTE_G3, 111 }, 
	{ NOTE_G3, 111 }, 
	{ NOTE_G3, 111 }, 
	{ NOTE_G3, 111 }, 
	{ NOTE_G3, 111 }, 
	{ NOTE_G3, 111 }, 
	{ NOTE_G3, 111 }, 
	{ NOTE_G3, 111 }, 
	{ NOTE_G3, 113 }, 
	{ NOTE_C4, 111 }, 
	{ NOTE_D4, 111 }, 
	{ NOTE_G3, 111 }, 
	{ NOTE_DS4, 111 }, 
	{ NOTE_D4, 111 }, 
	{ NOTE_G3, 111 }, 
	{ NOTE_C4, 111 }, 
	{ NOTE_D4, 111 }, 
	{ NOTE_G3, 111 }, 
	{ NOTE_G3, 111 }, 
	{ NOTE_G3, 111 }, 
	{ NOTE_G3, 111 }, 
	{ NOTE_G3, 111 }, 
	{ NOTE_G3, 111 }, 
	{ NOTE_G3, 111 }, 
	{ NOTE_G3, 113 }, 
	{ NOTE_C4, 111 }, 
	{ NOTE_D4, 111 }, 
	{ NOTE_G3, 111 }, 
	{ NOTE_G3, 111 }, 
	{ NOTE_G3, 111 }, 
	{ NOTE_G3, 111 }, 
	{ NOTE_G3, 111 }, 
	{ NOTE_G3, 111 }, 
	{ NOTE_G3, 111 }, 
	{ NOTE_G3, 111 }, 
	{ NOTE_G3, 111 }, 
	{ NOTE_G3, 111 }, 
	{ NOTE_G3, 111 }, 
	{ NOTE_G3, 111 }, 
	{ NOTE_G3, 111 }, 
	{ NOTE_G3, 113 }, 
	{ NOTE_C4, 111 }, 
	{ NOTE_D4, 111 }, 
	{ NOTE_G3, 111 }, 
	{ NOTE_DS4, 111 }, 
	{ NOTE_D4, 111 }, 
	{ NOTE_G3, 111 }, 
	{ NOTE_C4, 111 }, 
	{ NOTE_D4, 111 }, 
	{ NOTE_G3, 111 }, 
	{ NOTE_G3, 111 }, 
	{ NOTE_G3, 111 }, 
	{ NOTE_G3, 111 }, 
	{ NOTE_G3, 111 }, 
	{ NOTE_G3, 111 }, 
	{ NOTE_G3, 111 }, 
	{ NOTE_G3, 113 }, 
	{ NOTE_G3, 222 }, 
	{ NOTE_REST, 111 }, 
	{ NOTE_G3, 222 }, 
	{ NOTE_REST, 111 }, 
	{ NOTE_G3, 111 }, 
	{ NOTE_REST, 111 }, 
	{ NOTE_G3, 111 }, 
	{ NOTE_G3, 111 }, 
	{ NOTE_G3, 222 }, 
	{ NOTE_REST, 111 }, 
	{ NOTE_G3, 222 }, 
	{ NOTE_REST, 113 }, 
	{ NOTE_G3, 111 }, 
	{ NOTE_REST, 111 }, 
	{ NOTE_G3, 111 }, 
	{ NOTE_G3, 111 }, 
	{ NOTE_G3, 222 }, 
	{ NOTE_REST, 111 }, 
	{ NOTE_G3, 222 }, 
	{ NOTE_REST, 111 }, 
	{ NOTE_G3, 111 }, 
	{ NOTE_REST, 111 }, 
	{ NOTE_G3, 111 }, 
	{ NOTE_G3, 111 }, 
	{ NOTE_G3, 111 }, 
	{ NOTE_G3, 113 }, 
	{ NOTE_C4, 111 }, 
	{ NOTE_D4, 111 }, 
	{ NOTE_G3, 111 }, 
	{ NOTE_G3, 111 }, 
	{ NOTE_G3, 111 }, 
	{ NOTE_G3, 111 }, 
	{ NOTE_G3, 111 }, 
	{ NOTE_G3, 111 }, 
	{ NOTE_G3, 111 }, 
	{ NOTE_G3, 111 }, 
	{ NOTE_G3, 111 }, 
	{ NOTE_G3, 111 }, 
	{ NOTE_G3, 111 }, 
	{ NOTE_G3, 111 }, 
	{ NOTE_G3, 111 }, 
	{ NOTE_G3, 113 }, 
	{ NOTE_C4, 111 }, 
	{ NOTE_D4, 111 }, 
	{ NOTE_G3, 111 }, 
	{ NOTE_DS4, 111 }, 
	{ NOTE_D4, 111 }, 
	{ NOTE_G3, 111 }, 
	{ NOTE_C4, 111 }, 
	{ NOTE_D4, 111 }, 
	{ NOTE_G3, 111 }, 
	{ NOTE_G3, 111 }, 
	{ NOTE_G3, 111 }, 
	{ NOTE_G3, 111 }, 
	{ NOTE_G3, 111 }, 
	{ NOTE_G3, 111 }, 
	{ NOTE_G3, 111 }, 
	{ NOTE_G3, 113 }, 
	{ NOTE_A3, 111 }, 
	{ NOTE_B3, 333 }, 
	{ NOTE_A3, 111 }, 
	{ NOTE_B3, 222 }, 
	{ NOTE_F3, 111 }, 
	{ NOTE_REST, 111 }, 
	{ NOTE_D3, 111 }, 
	{ NOTE_E3, 111 }, 
	{ NOTE_F3, 111 }, 
	{ NOTE_B3, 444 }, 
	{ NOTE_A3, 111 }, 
	{ NOTE_B3, 222 }, 
	{ NOTE_F3, 111 }, 
	{ NOTE_REST, 111 }, 
	{ NOTE_D3, 111 }, 
	{ NOTE_E3, 111 }, 
	{ NOTE_F3, 111 }, 
	{ NOTE_A3, 111 }, 
	{ NOTE_B3, 111 }, 
	{ NOTE_D4, 111 }, 
	{ NOTE_E4, 114 }, 
	{ NOTE_A3, 111 }, 
	{ NOTE_B3, 333 }, 
	{ NOTE_A3, 111 }, 
	{ NOTE_B3, 222 }, 
	{ NOTE_F3, 111 }, 
	{ NOTE_REST, 111 }, 
	{ NOTE_D3, 111 }, 
	{ NOTE_E3, 111 }, 
	{ NOTE_F3, 111 }, 
	{ NOTE_B3, 444 }, 
	{ NOTE_A3, 111 }, 
	{ NOTE_B3, 222 }, 
	{ NOTE_F3, 111 }, 
	{ NOTE_REST, 111 }, 
	{ NOTE_D3, 111 }, 
	{ NOTE_E3, 111 }, 
	{ NOTE_F3, 111 }, 
	{ NOTE_A3, 111 }, 
	{ NOTE_B3, 111 }, 
	{ NOTE_D4, 111 }, 
	{ NOTE_E4, 114 }, 
	{ NOTE_A3, 111 }, 
	{ NOTE_B3, 333 }, 
	{ NOTE_A3, 111 }, 
	{ NOTE_B3, 222 }, 
	{ NOTE_F3, 111 }, 
	{ NOTE_REST, 111 }, 
	{ NOTE_D3, 111 }, 
	{ NOTE_E3, 111 }, 
	{ NOTE_F3, 111 }, 
	{ NOTE_B3, 444 }, 
	{ NOTE_A3, 111 }, 
	{ NOTE_B3, 222 }, 
	{ NOTE_F3, 111 }, 
	{ NOTE_REST, 111 }, 
	{ NOTE_D3, 111 }, 
	{ NOTE_E3, 111 }, 
	{ NOTE_F3, 111 }, 
	{ NOTE_A3, 111 }, 
	{ NOTE_B3, 111 }, 
	{ NOTE_D4, 111 }, 
	{ NOTE_E4, 114 }, 
	{ NOTE_D3, 889 }, 
	{ NOTE_D3, 889 }, 
	{ NOTE_DS3, 889 }, 
	{ NOTE_DS3, 889 }, 
	{ NOTE_B3, 444 }, 
	{ NOTE_REST, 1778 }, 
	{ NOTE_REST, 445 }, 
	{ NOTE_G3, 111 }, 
	{ NOTE_G3, 111 }, 
	{ NOTE_G3, 111 }, 
	{ NOTE_G3, 111 }, 
	{ NOTE_G3, 111 }, 
	{ NOTE_G3, 111 }, 
	{ NOTE_G3, 111 }, 
	{ NOTE_G3, 111 }, 
	{ NOTE_AS3, 111 }, 
	{ NOTE_AS3, 111 }, 
	{ NOTE_AS3, 111 }, 
	{ NOTE_AS3, 111 }, 
	{ NOTE_AS3, 111 }, 
	{ NOTE_AS3, 111 }, 
	{ NOTE_AS3, 111 }, 
	{ NOTE_AS3, 113 }, 
	{ NOTE_B3, 111 }, 
	{ NOTE_B3, 111 }, 
	{ NOTE_B3, 111 }, 
	{ NOTE_B3, 111 }, 
	{ NOTE_B3, 111 }, 
	{ NOTE_B3, 111 }, 
	{ NOTE_B3, 111 }, 
	{ NOTE_B3, 111 }, 
	{ NOTE_A3, 111 }, 
	{ NOTE_A3, 111 }, 
	{ NOTE_A3, 111 }, 
	{ NOTE_A3, 111 }, 
	{ NOTE_A3, 111 }, 
	{ NOTE_A3, 111 }, 
	{ NOTE_A3, 111 }, 
	{ NOTE_A3, 113 }, 
	{ NOTE_E3, 111 }, 
	{ NOTE_E3, 111 }, 
	{ NOTE_E3, 111 }, 
	{ NOTE_E3, 111 }, 
	{ NOTE_E3, 111 }, 
	{ NOTE_E3, 111 }, 
	{ NOTE_E3, 111 }, 
	{ NOTE_E3, 111 }, 
	{ NOTE_FS3, 111 }, 
	{ NOTE_FS3, 111 }, 
	{ NOTE_FS3, 111 }, 
	{ NOTE_FS3, 111 }, 
	{ NOTE_FS3, 111 }, 
	{ NOTE_FS3, 111 }, 
	{ NOTE_FS3, 111 }, 
	{ NOTE_FS3, 113 }, 
	{ NOTE_B3, 111 }, 
	{ NOTE_B3, 111 }, 
	{ NOTE_B3, 111 }, 
	{ NOTE_B3, 111 }, 
	{ NOTE_B3, 111 }, 
	{ NOTE_B3, 111 }, 
	{ NOTE_B3, 111 }, 
	{ NOTE_B3, 111 }, 
	{ NOTE_B3, 111 }, 
	{ NOTE_B3, 111 }, 
	{ NOTE_B3, 111 }, 
	{ NOTE_B3, 111 }, 
	{ NOTE_B3, 111 }, 
	{ NOTE_A3, 111 }, 
	{ NOTE_G3, 111 }, 
	{ NOTE_FS3, 113 }, 
	{ NOTE_G3, 111 }, 
	{ NOTE_G3, 111 }, 
	{ NOTE_G3, 111 }, 
	{ NOTE_G3, 111 }, 
	{ NOTE_G3, 111 }, 
	{ NOTE_G3, 111 }, 
	{ NOTE_G3, 111 }, 
	{ NOTE_G3, 111 }, 
	{ NOTE_AS3, 111 }, 
	{ NOTE_AS3, 111 }, 
	{ NOTE_AS3, 111 }, 
	{ NOTE_AS3, 111 }, 
	{ NOTE_AS3, 111 }, 
	{ NOTE_AS3, 111 }, 
	{ NOTE_AS3, 111 }, 
	{ NOTE_AS3, 113 }, 
	{ NOTE_B3, 111 }, 
	{ NOTE_B3, 111 }, 
	{ NOTE_B3, 111 }, 
	{ NOTE_B3, 111 }, 
	{ NOTE_B3, 111 }, 
	{ NOTE_B3, 111 }, 
	{ NOTE_B3, 111 }, 
	{ NOTE_B3, 111 }, 
	{ NOTE_G3, 111 }, 
	{ NOTE_G3, 111 }, 
	{ NOTE_G3, 111 }, 
	{ NOTE_G3, 111 }, 
	{ NOTE_G3, 111 }, 
	{ NOTE_G3, 111 }, 
	{ NOTE_G3, 111 }, 
	{ NOTE_G3, 113 }, 
	{ NOTE_E3, 111 }, 
	{ NOTE_E3, 111 }, 
	{ NOTE_E3, 111 }, 
	{ NOTE_E3, 111 }, 
	{ NOTE_E3, 111 }, 
	{ NOTE_E3, 111 }, 
	{ NOTE_E3, 111 }, 
	{ NOTE_E3, 111 }, 
	{ NOTE_F3, 111 }, 
	{ NOTE_F3, 111 }, 
	{ NOTE_F3, 111 }, 
	{ NOTE_F3, 111 }, 
	{ NOTE_F3, 111 }, 
	{ NOTE_F3, 111 }, 
	{ NOTE_F3, 111 }, 
	{ NOTE_F3, 113 }, 
	{ NOTE_FS3, 111 }, 
	{ NOTE_FS3, 111 }, 
	{ NOTE_FS3, 111 }, 
	{ NOTE_FS3, 111 }, 
	{ NOTE_FS3, 111 }, 
	{ NOTE_FS3, 111 }, 
	{ NOTE_FS3, 111 }, 
	{ NOTE_FS3, 111 }, 
	{ NOTE_FS3, 111 }, 
	{ NOTE_FS3, 111 }, 
	{ NOTE_FS3, 111 }, 
	{ NOTE_FS3, 111 }, 
	{ NOTE_FS3, 111 }, 
	{ NOTE_FS3, 111 }, 
	{ NOTE_FS3, 111 }, 
	{ NOTE_FS3, 113 }, 
	{ NOTE_FS3, 333 }, 
	{ NOTE_FS3, 222 }, 
	{ NOTE_REST, 111 }, 
	{ NOTE_FS3, 222 }, 
	{ NOTE_FS3, 111 }, 
	{ NOTE_FS3, 111 }, 
	{ NOTE_FS3, 111 }, 
	{ NOTE_FS3, 111 }, 
	{ NOTE_FS3, 111 }, 
	{ NOTE_FS3, 111 }, 
	{ NOTE_FS3, 111 }, 
	{ NOTE_REST, 113 }, 
	{ NOTE_B3, 1778 }, 
	{ NOTE_REST, 1778 }, 
	{ NOTE_E3, 222 }, 
	{ NOTE_D3, 111 }, 
	{ NOTE_E3, 111 }, 
	{ NOTE_F3, 111 }, 
	{ NOTE_E3, 111 }, 
	{ NOTE_REST, 333 }, 
	{ NOTE_D3, 111 }, 
	{ NOTE_E3, 111 }, 
	{ NOTE_F3, 111 }, 
	{ NOTE_GS3, 111 }, 
	{ NOTE_A3, 111 }, 
	{ NOTE_B3, 111 }, 
	{ NOTE_C4, 113 }, 
	{ NOTE_E3, 222 }, 
	{ NOTE_D3, 111 }, 
	{ NOTE_E3, 111 }, 
	{ NOTE_F3, 111 }, 
	{ NOTE_E3, 111 }, 
	{ NOTE_REST, 444 }, 
	{ NOTE_F3, 444 }, 
	{ NOTE_F3, 224 }, 
	{ NOTE_E3, 222 }, 
	{ NOTE_D3, 111 }, 
	{ NOTE_E3, 111 }, 
	{ NOTE_F3, 111 }, 
	{ NOTE_E3, 111 }, 
	{ NOTE_REST, 333 }, 
	{ NOTE_D3, 111 }, 
	{ NOTE_E3, 111 }, 
	{ NOTE_F3, 111 }, 
	{ NOTE_GS3, 111 }, 
	{ NOTE_A3, 111 }, 
	{ NOTE_B3, 111 }, 
	{ NOTE_C4, 113 }, 
	{ NOTE_E3, 222 }, 
	{ NOTE_D3, 111 }, 
	{ NOTE_E3, 111 }, 
	{ NOTE_F3, 111 }, 
	{ NOTE_E3, 111 }, 
	{ NOTE_REST, 222 }, 
	{ NOTE_AS3, 111 }, 
	{ NOTE_AS3, 111 }, 
	{ NOTE_AS3, 111 }, 
	{ NOTE_AS3, 111 }, 
	{ NOTE_AS3, 111 }, 
	{ NOTE_AS3, 111 }, 
	{ NOTE_AS3, 111 }, 
	{ NOTE_AS3, 113 }, 
	{ NOTE_E3, 222 }, 
	{ NOTE_D3, 111 }, 
	{ NOTE_E3, 111 }, 
	{ NOTE_F3, 111 }, 
	{ NOTE_E3, 111 }, 
	{ NOTE_REST, 333 }, 
	{ NOTE_D3, 111 }, 
	{ NOTE_E3, 111 }, 
	{ NOTE_F3, 111 }, 
	{ NOTE_GS3, 111 }, 
	{ NOTE_A3, 111 }, 
	{ NOTE_B3, 111 }, 
	{ NOTE_C4, 113 }, 
	{ NOTE_E3, 222 }, 
	{ NOTE_D3, 111 }, 
	{ NOTE_E3, 111 }, 
	{ NOTE_F3, 111 }, 
	{ NOTE_E3, 111 }, 
	{ NOTE_REST, 444 }, 
	{ NOTE_F3, 444 }, 
	{ NOTE_F3, 224 }, 
	{ NOTE_E3, 222 }, 
	{ NOTE_D3, 111 }, 
	{ NOTE_E3, 111 }, 
	{ NOTE_F3, 111 }, 
	{ NOTE_E3, 111 }, 
	{ NOTE_REST, 333 }, 
	{ NOTE_D3, 111 }, 
	{ NOTE_E3, 111 }, 
	{ NOTE_F3, 111 }, 
	{ NOTE_GS3, 111 }, 
	{ NOTE_A3, 111 }, 
	{ NOTE_B3, 111 }, 
	{ NOTE_C4, 113 }, 
	{ NOTE_E4, 444 }, 
	{ NOTE_D4, 444 }, 
	{ NOTE_C4, 444 }, 
	{ NOTE_B3, 446 }, 
	{ NOTE_AS3, 444 }, 
	{ NOTE_REST, 1334 }, 
	{ NOTE_A3, 222 }, 
	{ NOTE_G3, 111 }, 
	{ NOTE_A3, 111 }, 
	{ NOTE_AS3, 111 }, 
	{ NOTE_A3, 111 }, 
	{ NOTE_REST, 333 }, 
	{ NOTE_G3, 111 }, 
	{ NOTE_A3, 111 }, 
	{ NOTE_AS3, 111 }, 
	{ NOTE_CS4, 111 }, 
	{ NOTE_D4, 111 }, 
	{ NOTE_E4, 111 }, 
	{ NOTE_F4, 113 }, 
	{ NOTE_A3, 222 }, 
	{ NOTE_G3, 111 }, 
	{ NOTE_A3, 111 }, 
	{ NOTE_AS3, 111 }, 
	{ NOTE_A3, 111 }, 
	{ NOTE_REST, 444 }, 
	{ NOTE_AS3, 444 }, 
	{ NOTE_AS3, 224 }, 
	{ NOTE_A3, 222 }, 
	{ NOTE_G3, 111 }, 
	{ NOTE_A3, 111 }, 
	{ NOTE_AS3, 111 }, 
	{ NOTE_A3, 111 }, 
	{ NOTE_REST, 333 }, 
	{ NOTE_G3, 111 }, 
	{ NOTE_A3, 111 }, 
	{ NOTE_AS3, 111 }, 
	{ NOTE_CS4, 111 }, 
	{ NOTE_D4, 111 }, 
	{ NOTE_E4, 111 }, 
	{ NOTE_F4, 113 }, 
	{ NOTE_A3, 222 }, 
	{ NOTE_G3, 111 }, 
	{ NOTE_A3, 111 }, 
	{ NOTE_AS3, 111 }, 
	{ NOTE_A3, 111 }, 
	{ NOTE_REST, 222 }, 
	{ NOTE_DS4, 111 }, 
	{ NOTE_DS4, 111 }, 
	{ NOTE_DS4, 111 }, 
	{ NOTE_DS4, 111 }, 
	{ NOTE_DS4, 111 }, 
	{ NOTE_DS4, 111 }, 
	{ NOTE_DS4, 111 }, 
	{ NOTE_DS4, 113 }, 
	{ NOTE_A3, 222 }, 
	{ NOTE_G3, 111 }, 
	{ NOTE_A3, 111 }, 
	{ NOTE_AS3, 111 }, 
	{ NOTE_A3, 111 }, 
	{ NOTE_REST, 333 }, 
	{ NOTE_G3, 111 }, 
	{ NOTE_A3, 111 }, 
	{ NOTE_AS3, 111 }, 
	{ NOTE_CS4, 111 }, 
	{ NOTE_D4, 111 }, 
	{ NOTE_E4, 111 }, 
	{ NOTE_F4, 113 }, 
	{ NOTE_A3, 222 }, 
	{ NOTE_G3, 111 }, 
	{ NOTE_A3, 111 }, 
	{ NOTE_AS3, 111 }, 
	{ NOTE_A3, 111 }, 
	{ NOTE_REST, 444 }, 
	{ NOTE_AS3, 444 }, 
	{ NOTE_AS3, 224 }, 
	{ NOTE_A3, 222 }, 
	{ NOTE_G3, 111 }, 
	{ NOTE_A3, 111 }, 
	{ NOTE_AS3, 111 }, 
	{ NOTE_A3, 111 }, 
	{ NOTE_REST, 333 }, 
	{ NOTE_G3, 111 }, 
	{ NOTE_A3, 111 }, 
	{ NOTE_AS3, 111 }, 
	{ NOTE_CS4, 111 }, 
	{ NOTE_D4, 111 }, 
	{ NOTE_E4, 111 }, 
	{ NOTE_F4, 113 }, 
	{ NOTE_A3, 222 }, 
	{ NOTE_A3, 222 }, 
	{ NOTE_A3, 222 }, 
	{ NOTE_A3, 222 }, 
	{ NOTE_A3, 222 }, 
	{ NOTE_A3, 56 }, 
	{ NOTE_A3, 56 }, 
	{ NOTE_REST, 56 }, 
	{ NOTE_A3, 56 }, 
	{ NOTE_A3, 222 }, 
	{ NOTE_A3, 222 }, 
	{ NOTE_AS3, 111 }, 
	{ NOTE_A3, 111 }, 
	{ NOTE_G3, 111 }, 
	{ NOTE_E4, 111 }, 
	{ NOTE_D4, 111 }, 
	{ NOTE_CS4, 111 }, 
	{ NOTE_F4, 111 }, 
	{ NOTE_E4, 111 }, 
	{ NOTE_D4, 111 }, 
	{ NOTE_AS4, 111 }, 
	{ NOTE_A4, 111 }, 
	{ NOTE_G4, 111 }, 
	{ NOTE_E5, 111 }, 
	{ NOTE_D5, 111 }, 
	{ NOTE_CS5, 111 }, 
	{ NOTE_F5, 113 }, 
	{ NOTE_E5, 111 }, 
	{ NOTE_D5, 111 }, 
	{ NOTE_CS5, 111 }, 
	{ NOTE_AS4, 111 }, 
	{ NOTE_A4, 111 }, 
	{ NOTE_G4, 111 }, 
	{ NOTE_F4, 111 }, 
	{ NOTE_E4, 111 }, 
	{ NOTE_D4, 111 }, 
	{ NOTE_E4, 111 }, 
	{ NOTE_AS4, 111 }, 
	{ NOTE_A4, 111 }, 
	{ NOTE_G4, 111 }, 
	{ NOTE_F4, 111 }, 
	{ NOTE_E4, 111 }, 
	{ NOTE_D4, 113 }, 
	{ NOTE_CS4, 111 }, 
	{ NOTE_D4, 111 }, 
	{ NOTE_A4, 111 }, 
	{ NOTE_G4, 111 }, 
	{ NOTE_F4, 111 }, 
	{ NOTE_E4, 111 }, 
	{ NOTE_D4, 111 }, 
	{ NOTE_CS4, 111 }, 
	{ NOTE_AS3, 111 }, 
	{ NOTE_A3, 111 }, 
	{ NOTE_G3, 111 }, 
	{ NOTE_A3, 111 }, 
	{ NOTE_AS3, 111 }, 
	{ NOTE_CS4, 111 }, 
	{ NOTE_D4, 111 }, 
	{ NOTE_E4, 113 }, 
	{ NOTE_F4, 444 }, 
	{ NOTE_FS4, 445 }, 
	{ NOTE_G3, 111 }, 
	{ NOTE_G3, 111 }, 
	{ NOTE_G3, 111 }, 
	{ NOTE_G3, 111 }, 
	{ NOTE_G3, 111 }, 
	{ NOTE_G3, 111 }, 
	{ NOTE_G3, 111 }, 
	{ NOTE_G3, 111 }, 
	{ NOTE_AS3, 111 }, 
	{ NOTE_AS3, 111 }, 
	{ NOTE_AS3, 111 }, 
	{ NOTE_AS3, 111 }, 
	{ NOTE_AS3, 111 }, 
	{ NOTE_AS3, 111 }, 
	{ NOTE_AS3, 111 }, 
	{ NOTE_AS3, 113 }, 
	{ NOTE_B3, 111 }, 
	{ NOTE_B3, 111 }, 
	{ NOTE_B3, 111 }, 
	{ NOTE_B3, 111 }, 
	{ NOTE_B3, 111 }, 
	{ NOTE_B3, 111 }, 
	{ NOTE_B3, 111 }, 
	{ NOTE_B3, 111 }, 
	{ NOTE_A3, 111 }, 
	{ NOTE_A3, 111 }, 
	{ NOTE_A3, 111 }, 
	{ NOTE_A3, 111 }, 
	{ NOTE_A3, 111 }, 
	{ NOTE_A3, 111 }, 
	{ NOTE_A3, 111 }, 
	{ NOTE_A3, 113 }, 
	{ NOTE_E3, 111 }, 
	{ NOTE_E3, 111 }, 
	{ NOTE_E3, 111 }, 
	{ NOTE_E3, 111 }, 
	{ NOTE_E3, 111 }, 
	{ NOTE_E3, 111 }, 
	{ NOTE_E3, 111 }, 
	{ NOTE_E3, 111 }, 
	{ NOTE_FS3, 111 }, 
	{ NOTE_FS3, 111 }, 
	{ NOTE_FS3, 111 }, 
	{ NOTE_FS3, 111 }, 
	{ NOTE_FS3, 111 }, 
	{ NOTE_FS3, 111 }, 
	{ NOTE_FS3, 111 }, 
	{ NOTE_FS3, 113 }, 
	{ NOTE_B3, 111 }, 
	{ NOTE_B3, 111 }, 
	{ NOTE_B3, 111 }, 
	{ NOTE_B3, 111 }, 
	{ NOTE_B3, 111 }, 
	{ NOTE_B3, 111 }, 
	{ NOTE_B3, 111 }, 
	{ NOTE_B3, 111 }, 
	{ NOTE_B3, 111 }, 
	{ NOTE_B3, 111 }, 
	{ NOTE_B3, 111 }, 
	{ NOTE_B3, 111 }, 
	{ NOTE_B3, 111 }, 
	{ NOTE_A3, 111 }, 
	{ NOTE_G3, 111 }, 
	{ NOTE_FS3, 113 }, 
	{ NOTE_G3, 111 }, 
	{ NOTE_G3, 111 }, 
	{ NOTE_G3, 111 }, 
	{ NOTE_G3, 111 }, 
	{ NOTE_G3, 111 }, 
	{ NOTE_G3, 111 }, 
	{ NOTE_G3, 111 }, 
	{ NOTE_G3, 111 }, 
	{ NOTE_AS3, 111 }, 
	{ NOTE_AS3, 111 }, 
	{ NOTE_AS3, 111 }, 
	{ NOTE_AS3, 111 }, 
	{ NOTE_AS3, 111 }, 
	{ NOTE_AS3, 111 }, 
	{ NOTE_AS3, 111 }, 
	{ NOTE_AS3, 113 }, 
	{ NOTE_B3, 111 }, 
	{ NOTE_B3, 111 }, 
	{ NOTE_B3, 111 }, 
	{ NOTE_B3, 111 }, 
	{ NOTE_B3, 111 }, 
	{ NOTE_B3, 111 }, 
	{ NOTE_B3, 111 }, 
	{ NOTE_B3, 111 }, 
	{ NOTE_G3, 111 }, 
	{ NOTE_G3, 111 }, 
	{ NOTE_G3, 111 }, 
	{ NOTE_G3, 111 }, 
	{ NOTE_G3, 111 }, 
	{ NOTE_G3, 111 }, 
	{ NOTE_G3, 111 }, 
	{ NOTE_G3, 113 }, 
	{ NOTE_E3, 111 }, 
	{ NOTE_E3, 111 }, 
	{ NOTE_E3, 111 }, 
	{ NOTE_E3, 111 }, 
	{ NOTE_E3, 111 }, 
	{ NOTE_E3, 111 }, 
	{ NOTE_E3, 111 }, 
	{ NOTE_E3, 111 }, 
	{ NOTE_F3, 111 }, 
	{ NOTE_F3, 111 }, 
	{ NOTE_F3, 111 }, 
	{ NOTE_F3, 111 }, 
	{ NOTE_F3, 111 }, 
	{ NOTE_F3, 111 }, 
	{ NOTE_F3, 111 }, 
	{ NOTE_F3, 113 }, 
	{ NOTE_FS3, 111 }, 
	{ NOTE_FS3, 111 }, 
	{ NOTE_FS3, 111 }, 
	{ NOTE_FS3, 111 }, 
	{ NOTE_FS3, 111 }, 
	{ NOTE_FS3, 111 }, 
	{ NOTE_FS3, 111 }, 
	{ NOTE_FS3, 111 }, 
	{ NOTE_FS3, 111 }, 
	{ NOTE_FS3, 111 }, 
	{ NOTE_FS3, 111 }, 
	{ NOTE_FS3, 111 }, 
	{ NOTE_FS3, 111 }, 
	{ NOTE_FS3, 111 }, 
	{ NOTE_FS3, 111 }, 
	{ NOTE_FS3, 113 }, 
	{ NOTE_FS3, 333 }, 
	{ NOTE_FS3, 222 }, 
	{ NOTE_REST, 111 }, 
	{ NOTE_FS3, 222 }, 
	{ NOTE_FS3, 111 }, 
	{ NOTE_FS3, 111 }, 
	{ NOTE_FS3, 111 }, 
	{ NOTE_FS3, 111 }, 
	{ NOTE_FS3, 111 }, 
	{ NOTE_FS3, 111 }, 
	{ NOTE_FS3, 111 }, 
	{ NOTE_REST, 113 }, 
	{ NOTE_G3, 111 }, 
	{ NOTE_G3, 111 }, 
	{ NOTE_G3, 111 }, 
	{ NOTE_G3, 111 }, 
	{ NOTE_G3, 111 }, 
	{ NOTE_G3, 111 }, 
	{ NOTE_G3, 111 }, 
	{ NOTE_G3, 111 }, 
	{ NOTE_AS3, 111 }, 
	{ NOTE_AS3, 111 }, 
	{ NOTE_AS3, 111 }, 
	{ NOTE_AS3, 111 }, 
	{ NOTE_AS3, 111 }, 
	{ NOTE_AS3, 111 }, 
	{ NOTE_AS3, 111 }, 
	{ NOTE_AS3, 113 }, 
	{ NOTE_B3, 111 }, 
	{ NOTE_B3, 111 }, 
	{ NOTE_B3, 111 }, 
	{ NOTE_B3, 111 }, 
	{ NOTE_B3, 111 }, 
	{ NOTE_B3, 111 }, 
	{ NOTE_B3, 111 }, 
	{ NOTE_B3, 111 }, 
	{ NOTE_A3, 111 }, 
	{ NOTE_A3, 111 }, 
	{ NOTE_A3, 111 }, 
	{ NOTE_A3, 111 }, 
	{ NOTE_A3, 111 }, 
	{ NOTE_A3, 111 }, 
	{ NOTE_A3, 111 }, 
	{ NOTE_A3, 113 }, 
	{ NOTE_E3, 111 }, 
	{ NOTE_E3, 111 }, 
	{ NOTE_E3, 111 }, 
	{ NOTE_E3, 111 }, 
	{ NOTE_E3, 111 }, 
	{ NOTE_E3, 111 }, 
	{ NOTE_E3, 111 }, 
	{ NOTE_E3, 111 }, 
	{ NOTE_FS3, 111 }, 
	{ NOTE_FS3, 111 }, 
	{ NOTE_FS3, 111 }, 
	{ NOTE_FS3, 111 }, 
	{ NOTE_FS3, 111 }, 
	{ NOTE_FS3, 111 }, 
	{ NOTE_FS3, 111 }, 
	{ NOTE_FS3, 113 }, 
	{ NOTE_B3, 111 }, 
	{ NOTE_B3, 111 }, 
	{ NOTE_B3, 111 }, 
	{ NOTE_B3, 111 }, 
	{ NOTE_B3, 111 }, 
	{ NOTE_B3, 111 }, 
	{ NOTE_B3, 111 }, 
	{ NOTE_B3, 111 }, 
	{ NOTE_B3, 111 }, 
	{ NOTE_B3, 111 }, 
	{ NOTE_B3, 111 }, 
	{ NOTE_B3, 111 }, 
	{ NOTE_B3, 111 }, 
	{ NOTE_A3, 111 }, 
	{ NOTE_G3, 111 }, 
	{ NOTE_FS3, 113 }, 
	{ NOTE_G3, 111 }, 
	{ NOTE_G3, 111 }, 
	{ NOTE_G3, 111 }, 
	{ NOTE_G3, 111 }, 
	{ NOTE_G3, 111 }, 
	{ NOTE_G3, 111 }, 
	{ NOTE_G3, 111 }, 
	{ NOTE_G3, 111 }, 
	{ NOTE_AS3, 111 }, 
	{ NOTE_AS3, 111 }, 
	{ NOTE_AS3, 111 }, 
	{ NOTE_AS3, 111 }, 
	{ NOTE_AS3, 111 }, 
	{ NOTE_AS3, 111 }, 
	{ NOTE_AS3, 111 }, 
	{ NOTE_AS3, 113 }, 
	{ NOTE_B3, 111 }, 
	{ NOTE_B3, 111 }, 
	{ NOTE_B3, 111 }, 
	{ NOTE_B3, 111 }, 
	{ NOTE_B3, 111 }, 
	{ NOTE_B3, 111 }, 
	{ NOTE_B3, 111 }, 
	{ NOTE_B3, 111 }, 
	{ NOTE_G3, 111 }, 
	{ NOTE_G3, 111 }, 
	{ NOTE_G3, 111 }, 
	{ NOTE_G3, 111 }, 
	{ NOTE_G3, 111 }, 
	{ NOTE_G3, 111 }, 
	{ NOTE_G3, 111 }, 
	{ NOTE_G3, 113 }, 
	{ NOTE_E3, 111 }, 
	{ NOTE_E3, 111 }, 
	{ NOTE_E3, 111 }, 
	{ NOTE_E3, 111 }, 
	{ NOTE_E3, 111 }, 
	{ NOTE_E3, 111 }, 
	{ NOTE_E3, 111 }, 
	{ NOTE_E3, 111 }, 
	{ NOTE_F3, 111 }, 
	{ NOTE_F3, 111 }, 
	{ NOTE_F3, 111 }, 
	{ NOTE_F3, 111 }, 
	{ NOTE_F3, 111 }, 
	{ NOTE_F3, 111 }, 
	{ NOTE_F3, 111 }, 
	{ NOTE_F3, 113 }, 
	{ NOTE_FS3, 111 }, 
	{ NOTE_FS3, 111 }, 
	{ NOTE_FS3, 111 }, 
	{ NOTE_FS3, 111 }, 
	{ NOTE_FS3, 111 }, 
	{ NOTE_FS3, 111 }, 
	{ NOTE_FS3, 111 }, 
	{ NOTE_FS3, 111 }, 
	{ NOTE_FS3, 111 }, 
	{ NOTE_FS3, 111 }, 
	{ NOTE_FS3, 111 }, 
	{ NOTE_FS3, 111 }, 
	{ NOTE_FS3, 111 }, 
	{ NOTE_FS3, 111 }, 
	{ NOTE_FS3, 111 }, 
	{ NOTE_FS3, 113 }, 
	{ NOTE_FS3, 333 }, 
	{ NOTE_FS3, 222 }, 
	{ NOTE_REST, 111 }, 
	{ NOTE_FS3, 222 }, 
	{ NOTE_FS3, 111 }, 
	{ NOTE_FS3, 111 }, 
	{ NOTE_FS3, 111 }, 
	{ NOTE_FS3, 111 }, 
	{ NOTE_FS3, 111 }, 
	{ NOTE_FS3, 111 }, 
	{ NOTE_FS3, 111 }, 
	{ NOTE_REST, 113 }, 
	{ NOTE_CS5, 111 }, 
	{ NOTE_B4, 111 }, 
	{ NOTE_AS4, 111 }, 
	{ NOTE_G4, 111 }, 
	{ NOTE_FS4, 111 }, 
	{ NOTE_E4, 111 }, 
	{ NOTE_D4, 111 }, 
	{ NOTE_CS4, 111 }, 
	{ NOTE_B3, 111 }, 
	{ NOTE_CS4, 111 }, 
	{ NOTE_G4, 111 }, 
	{ NOTE_FS4, 111 }, 
	{ NOTE_E4, 111 }, 
	{ NOTE_D4, 111 }, 
	{ NOTE_CS4, 111 }, 
	{ NOTE_B3, 113 }, 
	{ NOTE_AS3, 111 }, 
	{ NOTE_B3, 111 }, 
	{ NOTE_FS4, 111 }, 
	{ NOTE_E4, 111 }, 
	{ NOTE_D4, 111 }, 
	{ NOTE_CS4, 111 }, 
	{ NOTE_B3, 111 }, 
	{ NOTE_AS3, 111 }, 
	{ NOTE_G3, 890 }, 
	{ NOTE_AS3, 889 }, 
	{ NOTE_B3, 889 }, 
	{ NOTE_REST, 1778 }, 
	{ NOTE_REST, 1778 }, 
	{ NOTE_REST, 1778 }, 
};
const uint16_t NUM_OF_NOTES4 = sizeof(melody4)/sizeof(melody4[0]);

