/*
 * Song: Dance of the Sugar Plum Fairy by Tchaikovski
 *
 *	Melody 0 | Piano Right Hand
 *	Melody 1 | Piano Right Hand
 *	Melody 2 | Piano Right Hand
 *	Melody 3 | Piano Left Hand
 *	Melody 4 | Piano Left Hand
*/

#include <Arduino.h>
#include "notes.h"

const Note melody0[] PROGMEM = {
	{ NOTE_REST, 429 }, 
	{ NOTE_G3, 429 }, 
	{ NOTE_REST, 429 }, 
	{ NOTE_A3, 427 }, 
	{ NOTE_REST, 429 }, 
	{ NOTE_AS3, 429 }, 
	{ NOTE_REST, 429 }, 
	{ NOTE_A3, 427 }, 
	{ NOTE_REST, 429 }, 
	{ NOTE_G3, 429 }, 
	{ NOTE_REST, 429 }, 
	{ NOTE_A3, 427 }, 
	{ NOTE_REST, 429 }, 
	{ NOTE_AS3, 429 }, 
	{ NOTE_REST, 429 }, 
	{ NOTE_A3, 427 }, 
	{ NOTE_REST, 429 }, 
	{ NOTE_B5, 214 }, 
	{ NOTE_G5, 214 }, 
	{ NOTE_B5, 429 }, 
	{ NOTE_A5, 428 }, 
	{ NOTE_FS5, 429 }, 
	{ NOTE_G5, 429 }, 
	{ NOTE_F5, 214 }, 
	{ NOTE_F5, 214 }, 
	{ NOTE_F5, 428 }, 
	{ NOTE_E5, 214 }, 
	{ NOTE_E5, 214 }, 
	{ NOTE_E5, 429 }, 
	{ NOTE_DS5, 214 }, 
	{ NOTE_DS5, 214 }, 
	{ NOTE_DS5, 429 }, 
	{ NOTE_G5, 214 }, 
	{ NOTE_E6, 214 }, 
	{ NOTE_A5, 214 }, 
	{ NOTE_E6, 214 }, 
	{ NOTE_G5, 429 }, 
	{ NOTE_REST, 429 }, 
	{ NOTE_REST, 429 }, 
	{ NOTE_C5, 214 }, 
	{ NOTE_G4, 214 }, 
	{ NOTE_C5, 429 }, 
	{ NOTE_C5, 428 }, 
	{ NOTE_DS5, 429 }, 
	{ NOTE_E5, 429 }, 
	{ NOTE_AS5, 214 }, 
	{ NOTE_AS5, 214 }, 
	{ NOTE_AS5, 428 }, 
	{ NOTE_GS5, 214 }, 
	{ NOTE_GS5, 214 }, 
	{ NOTE_GS5, 429 }, 
	{ NOTE_FS5, 214 }, 
	{ NOTE_FS5, 214 }, 
	{ NOTE_FS5, 429 }, 
	{ NOTE_B5, 214 }, 
	{ NOTE_FS6, 214 }, 
	{ NOTE_A5, 214 }, 
	{ NOTE_FS6, 214 }, 
	{ NOTE_B5, 429 }, 
	{ NOTE_REST, 429 }, 
	{ NOTE_REST, 429 }, 
	{ NOTE_B5, 214 }, 
	{ NOTE_G5, 214 }, 
	{ NOTE_B5, 429 }, 
	{ NOTE_A5, 428 }, 
	{ NOTE_FS5, 429 }, 
	{ NOTE_G5, 429 }, 
	{ NOTE_F5, 214 }, 
	{ NOTE_F5, 214 }, 
	{ NOTE_F5, 428 }, 
	{ NOTE_E5, 214 }, 
	{ NOTE_E5, 214 }, 
	{ NOTE_E5, 429 }, 
	{ NOTE_DS5, 214 }, 
	{ NOTE_DS5, 214 }, 
	{ NOTE_DS5, 429 }, 
	{ NOTE_G5, 214 }, 
	{ NOTE_E6, 214 }, 
	{ NOTE_A5, 214 }, 
	{ NOTE_E6, 214 }, 
	{ NOTE_G5, 429 }, 
	{ NOTE_REST, 429 }, 
	{ NOTE_REST, 429 }, 
	{ NOTE_AS4, 214 }, 
	{ NOTE_FS4, 214 }, 
	{ NOTE_AS4, 429 }, 
	{ NOTE_A4, 428 }, 
	{ NOTE_REST, 429 }, 
	{ NOTE_GS4, 214 }, 
	{ NOTE_E4, 214 }, 
	{ NOTE_GS4, 429 }, 
	{ NOTE_G4, 428 }, 
	{ NOTE_REST, 429 }, 
	{ NOTE_FS4, 214 }, 
	{ NOTE_D4, 214 }, 
	{ NOTE_FS4, 429 }, 
	{ NOTE_G4, 428 }, 
	{ NOTE_REST, 429 }, 
	{ NOTE_B4, 107 }, 
	{ NOTE_DS5, 107 }, 
	{ NOTE_FS5, 107 }, 
	{ NOTE_B5, 107 }, 
	{ NOTE_E5, 429 }, 
	{ NOTE_B3, 428 }, 
	{ NOTE_REST, 214 }, 
	{ NOTE_E4, 214 }, 
	{ NOTE_REST, 214 }, 
	{ NOTE_FS4, 214 }, 
	{ NOTE_REST, 214 }, 
	{ NOTE_G4, 214 }, 
	{ NOTE_REST, 214 }, 
	{ NOTE_A4, 216 }, 
	{ NOTE_REST, 214 }, 
	{ NOTE_B4, 214 }, 
	{ NOTE_REST, 214 }, 
	{ NOTE_G4, 214 }, 
	{ NOTE_REST, 214 }, 
	{ NOTE_FS4, 214 }, 
	{ NOTE_B3, 143 }, 
	{ NOTE_CS4, 143 }, 
	{ NOTE_B3, 144 }, 
	{ NOTE_A3, 143 }, 
	{ NOTE_G3, 143 }, 
	{ NOTE_A3, 143 }, 
	{ NOTE_G3, 143 }, 
	{ NOTE_B3, 143 }, 
	{ NOTE_G3, 143 }, 
	{ NOTE_B3, 143 }, 
	{ NOTE_G3, 143 }, 
	{ NOTE_B3, 143 }, 
	{ NOTE_G3, 143 }, 
	{ NOTE_B3, 143 }, 
	{ NOTE_A3, 141 }, 
	{ NOTE_G3, 143 }, 
	{ NOTE_FS3, 143 }, 
	{ NOTE_A3, 143 }, 
	{ NOTE_FS3, 143 }, 
	{ NOTE_A3, 143 }, 
	{ NOTE_FS3, 143 }, 
	{ NOTE_A3, 143 }, 
	{ NOTE_FS3, 143 }, 
	{ NOTE_A3, 143 }, 
	{ NOTE_B3, 427 }, 
	{ NOTE_REST, 214 }, 
	{ NOTE_E4, 214 }, 
	{ NOTE_REST, 214 }, 
	{ NOTE_FS4, 214 }, 
	{ NOTE_REST, 214 }, 
	{ NOTE_G4, 214 }, 
	{ NOTE_REST, 214 }, 
	{ NOTE_A4, 216 }, 
	{ NOTE_REST, 214 }, 
	{ NOTE_B4, 214 }, 
	{ NOTE_REST, 214 }, 
	{ NOTE_G4, 214 }, 
	{ NOTE_REST, 214 }, 
	{ NOTE_FS4, 214 }, 
	{ NOTE_B3, 143 }, 
	{ NOTE_CS4, 143 }, 
	{ NOTE_B3, 144 }, 
	{ NOTE_A3, 143 }, 
	{ NOTE_G3, 143 }, 
	{ NOTE_B3, 143 }, 
	{ NOTE_G3, 143 }, 
	{ NOTE_B3, 143 }, 
	{ NOTE_G3, 143 }, 
	{ NOTE_B3, 143 }, 
	{ NOTE_G3, 143 }, 
	{ NOTE_B3, 143 }, 
	{ NOTE_G3, 143 }, 
	{ NOTE_B3, 143 }, 
	{ NOTE_A3, 141 }, 
	{ NOTE_G3, 143 }, 
	{ NOTE_FS3, 143 }, 
	{ NOTE_A3, 143 }, 
	{ NOTE_FS3, 143 }, 
	{ NOTE_A3, 143 }, 
	{ NOTE_FS3, 143 }, 
	{ NOTE_A3, 143 }, 
	{ NOTE_FS3, 143 }, 
	{ NOTE_A3, 143 }, 
	{ NOTE_B3, 427 }, 
	{ NOTE_REST, 214 }, 
	{ NOTE_E4, 214 }, 
	{ NOTE_REST, 214 }, 
	{ NOTE_FS4, 214 }, 
	{ NOTE_REST, 214 }, 
	{ NOTE_G4, 214 }, 
	{ NOTE_B3, 430 }, 
	{ NOTE_REST, 214 }, 
	{ NOTE_FS4, 214 }, 
	{ NOTE_REST, 214 }, 
	{ NOTE_G4, 214 }, 
	{ NOTE_REST, 214 }, 
	{ NOTE_A4, 214 }, 
	{ NOTE_B3, 430 }, 
	{ NOTE_REST, 214 }, 
	{ NOTE_G4, 214 }, 
	{ NOTE_REST, 214 }, 
	{ NOTE_A4, 214 }, 
	{ NOTE_REST, 214 }, 
	{ NOTE_B4, 214 }, 
	{ NOTE_REST, 214 }, 
	{ NOTE_B4, 216 }, 
	{ NOTE_C5, 214 }, 
	{ NOTE_C5, 214 }, 
	{ NOTE_REST, 214 }, 
	{ NOTE_C5, 214 }, 
	{ NOTE_B4, 429 }, 
	{ NOTE_REST, 54 }, 
	{ NOTE_REST, 161 }, 
	{ NOTE_D5, 54 }, 
	{ NOTE_FS5, 54 }, 
	{ NOTE_A5, 54 }, 
	{ NOTE_C6, 52 }, 
	{ NOTE_REST, 214 }, 
	{ NOTE_DS5, 54 }, 
	{ NOTE_FS5, 54 }, 
	{ NOTE_A5, 54 }, 
	{ NOTE_B5, 54 }, 
	{ NOTE_REST, 214 }, 
	{ NOTE_D5, 54 }, 
	{ NOTE_FS5, 54 }, 
	{ NOTE_A5, 54 }, 
	{ NOTE_C6, 54 }, 
	{ NOTE_REST, 214 }, 
	{ NOTE_DS5, 54 }, 
	{ NOTE_FS5, 54 }, 
	{ NOTE_A5, 54 }, 
	{ NOTE_B5, 54 }, 
	{ NOTE_REST, 214 }, 
	{ NOTE_F5, 54 }, 
	{ NOTE_A5, 54 }, 
	{ NOTE_C6, 54 }, 
	{ NOTE_E6, 48 }, 
	{ NOTE_REST, 214 }, 
	{ NOTE_DS5, 54 }, 
	{ NOTE_FS5, 54 }, 
	{ NOTE_A5, 54 }, 
	{ NOTE_B5, 54 }, 
	{ NOTE_REST, 214 }, 
	{ NOTE_D5, 54 }, 
	{ NOTE_FS5, 54 }, 
	{ NOTE_A5, 54 }, 
	{ NOTE_C6, 54 }, 
	{ NOTE_REST, 214 }, 
	{ NOTE_DS5, 54 }, 
	{ NOTE_FS5, 54 }, 
	{ NOTE_A5, 54 }, 
	{ NOTE_B5, 54 }, 
	{ NOTE_REST, 214 }, 
	{ NOTE_F5, 54 }, 
	{ NOTE_A5, 54 }, 
	{ NOTE_C6, 54 }, 
	{ NOTE_E6, 48 }, 
	{ NOTE_REST, 214 }, 
	{ NOTE_DS5, 54 }, 
	{ NOTE_FS5, 54 }, 
	{ NOTE_A5, 54 }, 
	{ NOTE_DS6, 54 }, 
	{ NOTE_REST, 214 }, 
	{ NOTE_F5, 54 }, 
	{ NOTE_A5, 54 }, 
	{ NOTE_C6, 54 }, 
	{ NOTE_E6, 54 }, 
	{ NOTE_REST, 214 }, 
	{ NOTE_FS5, 54 }, 
	{ NOTE_A5, 54 }, 
	{ NOTE_B5, 54 }, 
	{ NOTE_DS6, 54 }, 
	{ NOTE_REST, 214 }, 
	{ NOTE_A5, 54 }, 
	{ NOTE_C6, 54 }, 
	{ NOTE_DS6, 54 }, 
	{ NOTE_G6, 48 }, 
	{ NOTE_REST, 214 }, 
	{ NOTE_B5, 71 }, 
	{ NOTE_DS6, 71 }, 
	{ NOTE_FS6, 71 }, 
	{ NOTE_REST, 214 }, 
	{ NOTE_A5, 54 }, 
	{ NOTE_C6, 54 }, 
	{ NOTE_DS6, 54 }, 
	{ NOTE_G6, 54 }, 
	{ NOTE_REST, 214 }, 
	{ NOTE_B5, 71 }, 
	{ NOTE_DS6, 71 }, 
	{ NOTE_FS6, 71 }, 
	{ NOTE_REST, 214 }, 
	{ NOTE_D6, 54 }, 
	{ NOTE_FS6, 54 }, 
	{ NOTE_A6, 54 }, 
	{ NOTE_C7, 54 }, 
	{ NOTE_REST, 214 }, 
	{ NOTE_DS6, 54 }, 
	{ NOTE_A6, 54 }, 
	{ NOTE_C7, 54 }, 
	{ NOTE_D7, 54 }, 
	{ NOTE_REST, 214 }, 
	{ NOTE_D6, 54 }, 
	{ NOTE_FS6, 54 }, 
	{ NOTE_A6, 54 }, 
	{ NOTE_C7, 54 }, 
	{ NOTE_REST, 214 }, 
	{ NOTE_DS6, 54 }, 
	{ NOTE_FS6, 54 }, 
	{ NOTE_A6, 54 }, 
	{ NOTE_B6, 54 }, 
	{ NOTE_REST, 424 }, 
	{ NOTE_REST, 429 }, 
	{ NOTE_B6, 214 }, 
	{ NOTE_G6, 214 }, 
	{ NOTE_B6, 429 }, 
	{ NOTE_A6, 428 }, 
	{ NOTE_FS6, 429 }, 
	{ NOTE_G6, 429 }, 
	{ NOTE_F6, 214 }, 
	{ NOTE_F6, 214 }, 
	{ NOTE_F6, 428 }, 
	{ NOTE_E6, 214 }, 
	{ NOTE_E6, 214 }, 
	{ NOTE_E6, 429 }, 
	{ NOTE_DS6, 214 }, 
	{ NOTE_DS6, 214 }, 
	{ NOTE_DS6, 429 }, 
	{ NOTE_G6, 214 }, 
	{ NOTE_E6, 214 }, 
	{ NOTE_A6, 214 }, 
	{ NOTE_E6, 214 }, 
	{ NOTE_G6, 429 }, 
	{ NOTE_REST, 429 }, 
	{ NOTE_REST, 429 }, 
	{ NOTE_C6, 214 }, 
	{ NOTE_G5, 214 }, 
	{ NOTE_C6, 429 }, 
	{ NOTE_C6, 428 }, 
	{ NOTE_DS6, 429 }, 
	{ NOTE_E6, 429 }, 
	{ NOTE_AS6, 214 }, 
	{ NOTE_AS6, 214 }, 
	{ NOTE_AS6, 428 }, 
	{ NOTE_GS6, 214 }, 
	{ NOTE_GS6, 214 }, 
	{ NOTE_GS6, 429 }, 
	{ NOTE_FS6, 214 }, 
	{ NOTE_FS6, 214 }, 
	{ NOTE_FS6, 429 }, 
	{ NOTE_B6, 214 }, 
	{ NOTE_FS7, 214 }, 
	{ NOTE_A6, 214 }, 
	{ NOTE_FS7, 214 }, 
	{ NOTE_B6, 429 }, 
	{ NOTE_REST, 429 }, 
	{ NOTE_REST, 429 }, 
	{ NOTE_B6, 214 }, 
	{ NOTE_G6, 214 }, 
	{ NOTE_B6, 429 }, 
	{ NOTE_A6, 428 }, 
	{ NOTE_FS6, 429 }, 
	{ NOTE_G6, 429 }, 
	{ NOTE_F6, 214 }, 
	{ NOTE_F6, 214 }, 
	{ NOTE_F6, 428 }, 
	{ NOTE_E6, 214 }, 
	{ NOTE_E6, 214 }, 
	{ NOTE_E6, 429 }, 
	{ NOTE_DS6, 214 }, 
	{ NOTE_DS6, 214 }, 
	{ NOTE_DS6, 429 }, 
	{ NOTE_G6, 214 }, 
	{ NOTE_E7, 214 }, 
	{ NOTE_A6, 214 }, 
	{ NOTE_E7, 214 }, 
	{ NOTE_G6, 429 }, 
	{ NOTE_REST, 429 }, 
	{ NOTE_REST, 429 }, 
	{ NOTE_AS6, 214 }, 
	{ NOTE_FS6, 214 }, 
	{ NOTE_AS6, 429 }, 
	{ NOTE_A6, 428 }, 
	{ NOTE_REST, 429 }, 
	{ NOTE_GS6, 214 }, 
	{ NOTE_E6, 214 }, 
	{ NOTE_GS6, 429 }, 
	{ NOTE_G6, 428 }, 
	{ NOTE_REST, 429 }, 
	{ NOTE_FS6, 214 }, 
	{ NOTE_D6, 214 }, 
	{ NOTE_FS6, 429 }, 
	{ NOTE_G6, 428 }, 
	{ NOTE_REST, 429 }, 
	{ NOTE_B6, 107 }, 
	{ NOTE_DS7, 107 }, 
	{ NOTE_FS7, 107 }, 
	{ NOTE_B7, 107 }, 
	{ NOTE_B6, 429 }, 
	{ NOTE_G5, 428 }, 
};
const uint16_t NUM_OF_NOTES0 = sizeof(melody0)/sizeof(melody0[0]);

const Note melody1[] PROGMEM = {
	{ NOTE_REST, 429 }, 
	{ NOTE_B3, 429 }, 
	{ NOTE_REST, 429 }, 
	{ NOTE_C4, 427 }, 
	{ NOTE_REST, 429 }, 
	{ NOTE_CS4, 429 }, 
	{ NOTE_REST, 429 }, 
	{ NOTE_C4, 427 }, 
	{ NOTE_REST, 429 }, 
	{ NOTE_B3, 429 }, 
	{ NOTE_REST, 429 }, 
	{ NOTE_C4, 427 }, 
	{ NOTE_REST, 429 }, 
	{ NOTE_CS4, 429 }, 
	{ NOTE_REST, 429 }, 
	{ NOTE_C4, 427 }, 
	{ NOTE_REST, 429 }, 
	{ NOTE_G6, 214 }, 
	{ NOTE_E6, 214 }, 
	{ NOTE_G6, 429 }, 
	{ NOTE_FS6, 428 }, 
	{ NOTE_DS6, 429 }, 
	{ NOTE_E6, 429 }, 
	{ NOTE_GS5, 214 }, 
	{ NOTE_GS5, 214 }, 
	{ NOTE_GS5, 428 }, 
	{ NOTE_G5, 214 }, 
	{ NOTE_G5, 214 }, 
	{ NOTE_G5, 429 }, 
	{ NOTE_FS5, 214 }, 
	{ NOTE_FS5, 214 }, 
	{ NOTE_FS5, 429 }, 
	{ NOTE_B5, 214 }, 
	{ NOTE_E6, 214 }, 
	{ NOTE_C6, 214 }, 
	{ NOTE_E6, 214 }, 
	{ NOTE_B5, 429 }, 
	{ NOTE_REST, 429 }, 
	{ NOTE_REST, 429 }, 
	{ NOTE_G5, 214 }, 
	{ NOTE_E5, 214 }, 
	{ NOTE_G5, 429 }, 
	{ NOTE_FS5, 428 }, 
	{ NOTE_FS5, 429 }, 
	{ NOTE_G5, 429 }, 
	{ NOTE_CS6, 214 }, 
	{ NOTE_CS6, 214 }, 
	{ NOTE_CS6, 428 }, 
	{ NOTE_B5, 214 }, 
	{ NOTE_B5, 214 }, 
	{ NOTE_B5, 429 }, 
	{ NOTE_AS5, 214 }, 
	{ NOTE_AS5, 214 }, 
	{ NOTE_AS5, 429 }, 
	{ NOTE_DS6, 214 }, 
	{ NOTE_FS6, 214 }, 
	{ NOTE_E6, 214 }, 
	{ NOTE_FS6, 214 }, 
	{ NOTE_DS6, 429 }, 
	{ NOTE_REST, 429 }, 
	{ NOTE_REST, 429 }, 
	{ NOTE_G6, 214 }, 
	{ NOTE_E6, 214 }, 
	{ NOTE_G6, 429 }, 
	{ NOTE_FS6, 428 }, 
	{ NOTE_DS6, 429 }, 
	{ NOTE_E6, 429 }, 
	{ NOTE_GS5, 214 }, 
	{ NOTE_GS5, 214 }, 
	{ NOTE_GS5, 428 }, 
	{ NOTE_G5, 214 }, 
	{ NOTE_G5, 214 }, 
	{ NOTE_G5, 429 }, 
	{ NOTE_FS5, 214 }, 
	{ NOTE_FS5, 214 }, 
	{ NOTE_FS5, 429 }, 
	{ NOTE_B5, 214 }, 
	{ NOTE_E6, 214 }, 
	{ NOTE_C6, 214 }, 
	{ NOTE_E6, 214 }, 
	{ NOTE_B5, 429 }, 
	{ NOTE_REST, 429 }, 
	{ NOTE_REST, 429 }, 
	{ NOTE_E5, 214 }, 
	{ NOTE_CS5, 214 }, 
	{ NOTE_E5, 429 }, 
	{ NOTE_B4, 428 }, 
	{ NOTE_REST, 429 }, 
	{ NOTE_D5, 214 }, 
	{ NOTE_B4, 214 }, 
	{ NOTE_D5, 429 }, 
	{ NOTE_A4, 428 }, 
	{ NOTE_REST, 429 }, 
	{ NOTE_C5, 214 }, 
	{ NOTE_A4, 214 }, 
	{ NOTE_C5, 429 }, 
	{ NOTE_B4, 428 }, 
	{ NOTE_REST, 429 }, 
	{ NOTE_B4, 107 }, 
	{ NOTE_DS5, 107 }, 
	{ NOTE_FS5, 107 }, 
	{ NOTE_B5, 107 }, 
	{ NOTE_E5, 429 }, 
	{ NOTE_B3, 428 }, 
	{ NOTE_REST, 214 }, 
	{ NOTE_G4, 214 }, 
	{ NOTE_REST, 214 }, 
	{ NOTE_A4, 214 }, 
	{ NOTE_REST, 214 }, 
	{ NOTE_CS5, 214 }, 
	{ NOTE_REST, 214 }, 
	{ NOTE_DS5, 216 }, 
	{ NOTE_REST, 214 }, 
	{ NOTE_E5, 214 }, 
	{ NOTE_REST, 214 }, 
	{ NOTE_CS5, 214 }, 
	{ NOTE_REST, 214 }, 
	{ NOTE_B4, 214 }, 
	{ NOTE_B3, 143 }, 
	{ NOTE_CS4, 143 }, 
	{ NOTE_B3, 144 }, 
	{ NOTE_A3, 143 }, 
	{ NOTE_G3, 143 }, 
	{ NOTE_A3, 143 }, 
	{ NOTE_G3, 143 }, 
	{ NOTE_B3, 143 }, 
	{ NOTE_G3, 143 }, 
	{ NOTE_B3, 143 }, 
	{ NOTE_G3, 143 }, 
	{ NOTE_B3, 143 }, 
	{ NOTE_G3, 143 }, 
	{ NOTE_B3, 143 }, 
	{ NOTE_A3, 141 }, 
	{ NOTE_G3, 143 }, 
	{ NOTE_FS3, 143 }, 
	{ NOTE_A3, 143 }, 
	{ NOTE_FS3, 143 }, 
	{ NOTE_A3, 143 }, 
	{ NOTE_FS3, 143 }, 
	{ NOTE_A3, 143 }, 
	{ NOTE_FS3, 143 }, 
	{ NOTE_A3, 143 }, 
	{ NOTE_B3, 427 }, 
	{ NOTE_REST, 214 }, 
	{ NOTE_G4, 214 }, 
	{ NOTE_REST, 214 }, 
	{ NOTE_A4, 214 }, 
	{ NOTE_REST, 214 }, 
	{ NOTE_CS5, 214 }, 
	{ NOTE_REST, 214 }, 
	{ NOTE_DS5, 216 }, 
	{ NOTE_REST, 214 }, 
	{ NOTE_E5, 214 }, 
	{ NOTE_REST, 214 }, 
	{ NOTE_CS5, 214 }, 
	{ NOTE_REST, 214 }, 
	{ NOTE_B4, 214 }, 
	{ NOTE_B3, 143 }, 
	{ NOTE_CS4, 143 }, 
	{ NOTE_B3, 144 }, 
	{ NOTE_A3, 143 }, 
	{ NOTE_G3, 143 }, 
	{ NOTE_B3, 143 }, 
	{ NOTE_G3, 143 }, 
	{ NOTE_B3, 143 }, 
	{ NOTE_G3, 143 }, 
	{ NOTE_B3, 143 }, 
	{ NOTE_G3, 143 }, 
	{ NOTE_B3, 143 }, 
	{ NOTE_G3, 143 }, 
	{ NOTE_B3, 143 }, 
	{ NOTE_A3, 141 }, 
	{ NOTE_G3, 143 }, 
	{ NOTE_FS3, 143 }, 
	{ NOTE_A3, 143 }, 
	{ NOTE_FS3, 143 }, 
	{ NOTE_A3, 143 }, 
	{ NOTE_FS3, 143 }, 
	{ NOTE_A3, 143 }, 
	{ NOTE_FS3, 143 }, 
	{ NOTE_A3, 143 }, 
	{ NOTE_B3, 427 }, 
	{ NOTE_REST, 214 }, 
	{ NOTE_G4, 214 }, 
	{ NOTE_REST, 214 }, 
	{ NOTE_A4, 214 }, 
	{ NOTE_REST, 214 }, 
	{ NOTE_CS5, 214 }, 
	{ NOTE_B3, 430 }, 
	{ NOTE_REST, 214 }, 
	{ NOTE_A4, 214 }, 
	{ NOTE_REST, 214 }, 
	{ NOTE_CS5, 214 }, 
	{ NOTE_REST, 214 }, 
	{ NOTE_DS5, 214 }, 
	{ NOTE_B3, 430 }, 
	{ NOTE_REST, 214 }, 
	{ NOTE_CS5, 214 }, 
	{ NOTE_REST, 214 }, 
	{ NOTE_D5, 214 }, 
	{ NOTE_REST, 214 }, 
	{ NOTE_E5, 214 }, 
	{ NOTE_REST, 214 }, 
	{ NOTE_E5, 216 }, 
	{ NOTE_E5, 214 }, 
	{ NOTE_E5, 214 }, 
	{ NOTE_REST, 214 }, 
	{ NOTE_E5, 214 }, 
	{ NOTE_DS5, 429 }, 
	{ NOTE_REST, 54 }, 
	{ NOTE_REST, 161 }, 
	{ NOTE_D5, 54 }, 
	{ NOTE_FS5, 54 }, 
	{ NOTE_A5, 54 }, 
	{ NOTE_C6, 52 }, 
	{ NOTE_REST, 214 }, 
	{ NOTE_DS5, 54 }, 
	{ NOTE_FS5, 54 }, 
	{ NOTE_A5, 54 }, 
	{ NOTE_B5, 54 }, 
	{ NOTE_REST, 214 }, 
	{ NOTE_D5, 54 }, 
	{ NOTE_FS5, 54 }, 
	{ NOTE_A5, 54 }, 
	{ NOTE_C6, 54 }, 
	{ NOTE_REST, 214 }, 
	{ NOTE_DS5, 54 }, 
	{ NOTE_FS5, 54 }, 
	{ NOTE_A5, 54 }, 
	{ NOTE_B5, 54 }, 
	{ NOTE_REST, 214 }, 
	{ NOTE_F5, 54 }, 
	{ NOTE_A5, 54 }, 
	{ NOTE_C6, 54 }, 
	{ NOTE_E6, 48 }, 
	{ NOTE_REST, 214 }, 
	{ NOTE_DS5, 54 }, 
	{ NOTE_FS5, 54 }, 
	{ NOTE_A5, 54 }, 
	{ NOTE_B5, 54 }, 
	{ NOTE_REST, 214 }, 
	{ NOTE_D5, 54 }, 
	{ NOTE_FS5, 54 }, 
	{ NOTE_A5, 54 }, 
	{ NOTE_C6, 54 }, 
	{ NOTE_REST, 214 }, 
	{ NOTE_DS5, 54 }, 
	{ NOTE_FS5, 54 }, 
	{ NOTE_A5, 54 }, 
	{ NOTE_B5, 54 }, 
	{ NOTE_REST, 214 }, 
	{ NOTE_F5, 54 }, 
	{ NOTE_A5, 54 }, 
	{ NOTE_C6, 54 }, 
	{ NOTE_E6, 48 }, 
	{ NOTE_REST, 214 }, 
	{ NOTE_DS5, 54 }, 
	{ NOTE_FS5, 54 }, 
	{ NOTE_A5, 54 }, 
	{ NOTE_DS6, 54 }, 
	{ NOTE_REST, 214 }, 
	{ NOTE_F5, 54 }, 
	{ NOTE_A5, 54 }, 
	{ NOTE_C6, 54 }, 
	{ NOTE_E6, 54 }, 
	{ NOTE_REST, 214 }, 
	{ NOTE_FS5, 54 }, 
	{ NOTE_A5, 54 }, 
	{ NOTE_B5, 54 }, 
	{ NOTE_DS6, 54 }, 
	{ NOTE_REST, 214 }, 
	{ NOTE_A5, 54 }, 
	{ NOTE_C6, 54 }, 
	{ NOTE_DS6, 54 }, 
	{ NOTE_G6, 48 }, 
	{ NOTE_REST, 214 }, 
	{ NOTE_B5, 71 }, 
	{ NOTE_DS6, 71 }, 
	{ NOTE_FS6, 71 }, 
	{ NOTE_REST, 214 }, 
	{ NOTE_A5, 54 }, 
	{ NOTE_C6, 54 }, 
	{ NOTE_DS6, 54 }, 
	{ NOTE_G6, 54 }, 
	{ NOTE_REST, 214 }, 
	{ NOTE_B5, 71 }, 
	{ NOTE_DS6, 71 }, 
	{ NOTE_FS6, 71 }, 
	{ NOTE_REST, 214 }, 
	{ NOTE_D6, 54 }, 
	{ NOTE_FS6, 54 }, 
	{ NOTE_A6, 54 }, 
	{ NOTE_C7, 54 }, 
	{ NOTE_REST, 214 }, 
	{ NOTE_DS6, 54 }, 
	{ NOTE_A6, 54 }, 
	{ NOTE_C7, 54 }, 
	{ NOTE_D7, 54 }, 
	{ NOTE_REST, 214 }, 
	{ NOTE_D6, 54 }, 
	{ NOTE_FS6, 54 }, 
	{ NOTE_A6, 54 }, 
	{ NOTE_C7, 54 }, 
	{ NOTE_REST, 214 }, 
	{ NOTE_DS6, 54 }, 
	{ NOTE_FS6, 54 }, 
	{ NOTE_A6, 54 }, 
	{ NOTE_B6, 54 }, 
	{ NOTE_REST, 424 }, 
	{ NOTE_REST, 429 }, 
	{ NOTE_G7, 214 }, 
	{ NOTE_E7, 214 }, 
	{ NOTE_G7, 429 }, 
	{ NOTE_FS7, 428 }, 
	{ NOTE_DS7, 429 }, 
	{ NOTE_E7, 429 }, 
	{ NOTE_GS6, 214 }, 
	{ NOTE_GS6, 214 }, 
	{ NOTE_GS6, 428 }, 
	{ NOTE_G6, 214 }, 
	{ NOTE_G6, 214 }, 
	{ NOTE_G6, 429 }, 
	{ NOTE_FS6, 214 }, 
	{ NOTE_FS6, 214 }, 
	{ NOTE_FS6, 429 }, 
	{ NOTE_B6, 214 }, 
	{ NOTE_E7, 214 }, 
	{ NOTE_C7, 214 }, 
	{ NOTE_E7, 214 }, 
	{ NOTE_B6, 429 }, 
	{ NOTE_REST, 429 }, 
	{ NOTE_REST, 429 }, 
	{ NOTE_G6, 214 }, 
	{ NOTE_E6, 214 }, 
	{ NOTE_G6, 429 }, 
	{ NOTE_FS6, 428 }, 
	{ NOTE_FS6, 429 }, 
	{ NOTE_G6, 429 }, 
	{ NOTE_CS7, 214 }, 
	{ NOTE_CS7, 214 }, 
	{ NOTE_CS7, 428 }, 
	{ NOTE_B6, 214 }, 
	{ NOTE_B6, 214 }, 
	{ NOTE_B6, 429 }, 
	{ NOTE_AS6, 214 }, 
	{ NOTE_AS6, 214 }, 
	{ NOTE_AS6, 429 }, 
	{ NOTE_DS7, 214 }, 
	{ NOTE_FS7, 214 }, 
	{ NOTE_E7, 214 }, 
	{ NOTE_FS7, 214 }, 
	{ NOTE_DS7, 429 }, 
	{ NOTE_REST, 429 }, 
	{ NOTE_REST, 429 }, 
	{ NOTE_G7, 214 }, 
	{ NOTE_E7, 214 }, 
	{ NOTE_G7, 429 }, 
	{ NOTE_FS7, 428 }, 
	{ NOTE_DS7, 429 }, 
	{ NOTE_E7, 429 }, 
	{ NOTE_GS6, 214 }, 
	{ NOTE_GS6, 214 }, 
	{ NOTE_GS6, 428 }, 
	{ NOTE_G6, 214 }, 
	{ NOTE_G6, 214 }, 
	{ NOTE_G6, 429 }, 
	{ NOTE_FS6, 214 }, 
	{ NOTE_FS6, 214 }, 
	{ NOTE_FS6, 429 }, 
	{ NOTE_B6, 214 }, 
	{ NOTE_E7, 214 }, 
	{ NOTE_C7, 214 }, 
	{ NOTE_E7, 214 }, 
	{ NOTE_B6, 429 }, 
	{ NOTE_REST, 429 }, 
	{ NOTE_REST, 429 }, 
	{ NOTE_E7, 214 }, 
	{ NOTE_CS7, 214 }, 
	{ NOTE_E7, 429 }, 
	{ NOTE_B6, 428 }, 
	{ NOTE_REST, 429 }, 
	{ NOTE_D7, 214 }, 
	{ NOTE_B6, 214 }, 
	{ NOTE_D7, 429 }, 
	{ NOTE_A6, 428 }, 
	{ NOTE_REST, 429 }, 
	{ NOTE_C7, 214 }, 
	{ NOTE_A6, 214 }, 
	{ NOTE_C7, 429 }, 
	{ NOTE_B6, 428 }, 
	{ NOTE_REST, 429 }, 
	{ NOTE_B6, 107 }, 
	{ NOTE_DS7, 107 }, 
	{ NOTE_FS7, 107 }, 
	{ NOTE_B7, 107 }, 
	{ NOTE_E7, 429 }, 
	{ NOTE_B5, 428 }, 
};
const uint16_t NUM_OF_NOTES1 = sizeof(melody1)/sizeof(melody1[0]);

const Note melody2[] PROGMEM = {
	{ NOTE_REST, 429 }, 
	{ NOTE_E4, 429 }, 
	{ NOTE_REST, 429 }, 
	{ NOTE_FS4, 427 }, 
	{ NOTE_REST, 429 }, 
	{ NOTE_G4, 429 }, 
	{ NOTE_REST, 429 }, 
	{ NOTE_DS4, 427 }, 
	{ NOTE_REST, 429 }, 
	{ NOTE_E4, 429 }, 
	{ NOTE_REST, 429 }, 
	{ NOTE_FS4, 427 }, 
	{ NOTE_REST, 429 }, 
	{ NOTE_G4, 429 }, 
	{ NOTE_REST, 429 }, 
	{ NOTE_DS4, 427 }, 
	{ NOTE_REST, 429 }, 
	{ NOTE_REST, 214 }, 
	{ NOTE_REST, 214 }, 
	{ NOTE_REST, 429 }, 
	{ NOTE_REST, 428 }, 
	{ NOTE_REST, 429 }, 
	{ NOTE_REST, 429 }, 
	{ NOTE_D6, 214 }, 
	{ NOTE_D6, 214 }, 
	{ NOTE_D6, 428 }, 
	{ NOTE_AS5, 214 }, 
	{ NOTE_AS5, 214 }, 
	{ NOTE_AS5, 429 }, 
	{ NOTE_A5, 214 }, 
	{ NOTE_A5, 214 }, 
	{ NOTE_A5, 429 }, 
	{ NOTE_REST, 214 }, 
	{ NOTE_E6, 214 }, 
	{ NOTE_REST, 214 }, 
	{ NOTE_E6, 214 }, 
	{ NOTE_REST, 429 }, 
	{ NOTE_REST, 429 }, 
	{ NOTE_REST, 429 }, 
	{ NOTE_REST, 214 }, 
	{ NOTE_REST, 214 }, 
	{ NOTE_REST, 429 }, 
	{ NOTE_REST, 428 }, 
	{ NOTE_C6, 429 }, 
	{ NOTE_B5, 429 }, 
	{ NOTE_E6, 214 }, 
	{ NOTE_E6, 214 }, 
	{ NOTE_E6, 428 }, 
	{ NOTE_D6, 214 }, 
	{ NOTE_D6, 214 }, 
	{ NOTE_D6, 429 }, 
	{ NOTE_CS6, 214 }, 
	{ NOTE_CS6, 214 }, 
	{ NOTE_CS6, 429 }, 
	{ NOTE_REST, 214 }, 
	{ NOTE_FS6, 214 }, 
	{ NOTE_REST, 214 }, 
	{ NOTE_FS6, 214 }, 
	{ NOTE_REST, 429 }, 
	{ NOTE_REST, 429 }, 
	{ NOTE_REST, 429 }, 
	{ NOTE_REST, 214 }, 
	{ NOTE_REST, 214 }, 
	{ NOTE_REST, 429 }, 
	{ NOTE_REST, 428 }, 
	{ NOTE_REST, 429 }, 
	{ NOTE_REST, 429 }, 
	{ NOTE_D6, 214 }, 
	{ NOTE_D6, 214 }, 
	{ NOTE_D6, 428 }, 
	{ NOTE_AS5, 214 }, 
	{ NOTE_AS5, 214 }, 
	{ NOTE_AS5, 429 }, 
	{ NOTE_A5, 214 }, 
	{ NOTE_A5, 214 }, 
	{ NOTE_A5, 429 }, 
	{ NOTE_REST, 214 }, 
	{ NOTE_E6, 214 }, 
	{ NOTE_REST, 214 }, 
	{ NOTE_E6, 214 }, 
	{ NOTE_REST, 429 }, 
	{ NOTE_REST, 429 }, 
	{ NOTE_REST, 429 }, 
	{ NOTE_REST, 214 }, 
	{ NOTE_REST, 214 }, 
	{ NOTE_REST, 429 }, 
	{ NOTE_DS5, 428 }, 
	{ NOTE_REST, 429 }, 
	{ NOTE_REST, 214 }, 
	{ NOTE_REST, 214 }, 
	{ NOTE_REST, 429 }, 
	{ NOTE_CS5, 428 }, 
	{ NOTE_REST, 429 }, 
	{ NOTE_REST, 214 }, 
	{ NOTE_REST, 214 }, 
	{ NOTE_REST, 429 }, 
	{ NOTE_REST, 428 }, 
	{ NOTE_REST, 429 }, 
	{ NOTE_B4, 107 }, 
	{ NOTE_DS5, 107 }, 
	{ NOTE_FS5, 107 }, 
	{ NOTE_B5, 107 }, 
	{ NOTE_E5, 429 }, 
	{ NOTE_B3, 428 }, 
	{ NOTE_REST, 214 }, 
	{ NOTE_CS5, 214 }, 
	{ NOTE_REST, 214 }, 
	{ NOTE_DS5, 214 }, 
	{ NOTE_REST, 214 }, 
	{ NOTE_E5, 214 }, 
	{ NOTE_REST, 214 }, 
	{ NOTE_FS5, 216 }, 
	{ NOTE_REST, 214 }, 
	{ NOTE_G5, 214 }, 
	{ NOTE_REST, 214 }, 
	{ NOTE_E5, 214 }, 
	{ NOTE_REST, 214 }, 
	{ NOTE_DS5, 214 }, 
	{ NOTE_B3, 143 }, 
	{ NOTE_CS4, 143 }, 
	{ NOTE_B3, 144 }, 
	{ NOTE_A3, 143 }, 
	{ NOTE_G3, 143 }, 
	{ NOTE_A3, 143 }, 
	{ NOTE_G3, 143 }, 
	{ NOTE_B3, 143 }, 
	{ NOTE_G3, 143 }, 
	{ NOTE_B3, 143 }, 
	{ NOTE_G3, 143 }, 
	{ NOTE_B3, 143 }, 
	{ NOTE_G3, 143 }, 
	{ NOTE_B3, 143 }, 
	{ NOTE_A3, 141 }, 
	{ NOTE_G3, 143 }, 
	{ NOTE_FS3, 143 }, 
	{ NOTE_A3, 143 }, 
	{ NOTE_FS3, 143 }, 
	{ NOTE_A3, 143 }, 
	{ NOTE_FS3, 143 }, 
	{ NOTE_A3, 143 }, 
	{ NOTE_FS3, 143 }, 
	{ NOTE_A3, 143 }, 
	{ NOTE_B3, 427 }, 
	{ NOTE_REST, 214 }, 
	{ NOTE_CS5, 214 }, 
	{ NOTE_REST, 214 }, 
	{ NOTE_DS5, 214 }, 
	{ NOTE_REST, 214 }, 
	{ NOTE_E5, 214 }, 
	{ NOTE_REST, 214 }, 
	{ NOTE_FS5, 216 }, 
	{ NOTE_REST, 214 }, 
	{ NOTE_G5, 214 }, 
	{ NOTE_REST, 214 }, 
	{ NOTE_E5, 214 }, 
	{ NOTE_REST, 214 }, 
	{ NOTE_DS5, 214 }, 
	{ NOTE_B3, 143 }, 
	{ NOTE_CS4, 143 }, 
	{ NOTE_B3, 144 }, 
	{ NOTE_A3, 143 }, 
	{ NOTE_G3, 143 }, 
	{ NOTE_B3, 143 }, 
	{ NOTE_G3, 143 }, 
	{ NOTE_B3, 143 }, 
	{ NOTE_G3, 143 }, 
	{ NOTE_B3, 143 }, 
	{ NOTE_G3, 143 }, 
	{ NOTE_B3, 143 }, 
	{ NOTE_G3, 143 }, 
	{ NOTE_B3, 143 }, 
	{ NOTE_A3, 141 }, 
	{ NOTE_G3, 143 }, 
	{ NOTE_FS3, 143 }, 
	{ NOTE_A3, 143 }, 
	{ NOTE_FS3, 143 }, 
	{ NOTE_A3, 143 }, 
	{ NOTE_FS3, 143 }, 
	{ NOTE_A3, 143 }, 
	{ NOTE_FS3, 143 }, 
	{ NOTE_A3, 143 }, 
	{ NOTE_B3, 427 }, 
	{ NOTE_REST, 214 }, 
	{ NOTE_CS5, 214 }, 
	{ NOTE_REST, 214 }, 
	{ NOTE_DS5, 214 }, 
	{ NOTE_REST, 214 }, 
	{ NOTE_E5, 214 }, 
	{ NOTE_B3, 430 }, 
	{ NOTE_REST, 214 }, 
	{ NOTE_DS5, 214 }, 
	{ NOTE_REST, 214 }, 
	{ NOTE_E5, 214 }, 
	{ NOTE_REST, 214 }, 
	{ NOTE_FS5, 214 }, 
	{ NOTE_B3, 430 }, 
	{ NOTE_REST, 214 }, 
	{ NOTE_E5, 214 }, 
	{ NOTE_REST, 214 }, 
	{ NOTE_FS5, 214 }, 
	{ NOTE_REST, 214 }, 
	{ NOTE_G5, 214 }, 
	{ NOTE_REST, 214 }, 
	{ NOTE_G5, 216 }, 
	{ NOTE_A5, 214 }, 
	{ NOTE_A5, 214 }, 
	{ NOTE_REST, 214 }, 
	{ NOTE_A5, 214 }, 
	{ NOTE_FS5, 429 }, 
	{ NOTE_REST, 54 }, 
	{ NOTE_REST, 161 }, 
	{ NOTE_D5, 54 }, 
	{ NOTE_FS5, 54 }, 
	{ NOTE_A5, 54 }, 
	{ NOTE_C6, 52 }, 
	{ NOTE_REST, 214 }, 
	{ NOTE_DS5, 54 }, 
	{ NOTE_FS5, 54 }, 
	{ NOTE_A5, 54 }, 
	{ NOTE_B5, 54 }, 
	{ NOTE_REST, 214 }, 
	{ NOTE_D5, 54 }, 
	{ NOTE_FS5, 54 }, 
	{ NOTE_A5, 54 }, 
	{ NOTE_C6, 54 }, 
	{ NOTE_REST, 214 }, 
	{ NOTE_DS5, 54 }, 
	{ NOTE_FS5, 54 }, 
	{ NOTE_A5, 54 }, 
	{ NOTE_B5, 54 }, 
	{ NOTE_REST, 214 }, 
	{ NOTE_F5, 54 }, 
	{ NOTE_A5, 54 }, 
	{ NOTE_C6, 54 }, 
	{ NOTE_E6, 48 }, 
	{ NOTE_REST, 214 }, 
	{ NOTE_DS5, 54 }, 
	{ NOTE_FS5, 54 }, 
	{ NOTE_A5, 54 }, 
	{ NOTE_B5, 54 }, 
	{ NOTE_REST, 214 }, 
	{ NOTE_D5, 54 }, 
	{ NOTE_FS5, 54 }, 
	{ NOTE_A5, 54 }, 
	{ NOTE_C6, 54 }, 
	{ NOTE_REST, 214 }, 
	{ NOTE_DS5, 54 }, 
	{ NOTE_FS5, 54 }, 
	{ NOTE_A5, 54 }, 
	{ NOTE_B5, 54 }, 
	{ NOTE_REST, 214 }, 
	{ NOTE_F5, 54 }, 
	{ NOTE_A5, 54 }, 
	{ NOTE_C6, 54 }, 
	{ NOTE_E6, 48 }, 
	{ NOTE_REST, 214 }, 
	{ NOTE_DS5, 54 }, 
	{ NOTE_FS5, 54 }, 
	{ NOTE_A5, 54 }, 
	{ NOTE_DS6, 54 }, 
	{ NOTE_REST, 214 }, 
	{ NOTE_F5, 54 }, 
	{ NOTE_A5, 54 }, 
	{ NOTE_C6, 54 }, 
	{ NOTE_E6, 54 }, 
	{ NOTE_REST, 214 }, 
	{ NOTE_FS5, 54 }, 
	{ NOTE_A5, 54 }, 
	{ NOTE_B5, 54 }, 
	{ NOTE_DS6, 54 }, 
	{ NOTE_REST, 214 }, 
	{ NOTE_A5, 54 }, 
	{ NOTE_C6, 54 }, 
	{ NOTE_DS6, 54 }, 
	{ NOTE_G6, 48 }, 
	{ NOTE_REST, 214 }, 
	{ NOTE_B5, 71 }, 
	{ NOTE_DS6, 71 }, 
	{ NOTE_FS6, 71 }, 
	{ NOTE_REST, 214 }, 
	{ NOTE_A5, 54 }, 
	{ NOTE_C6, 54 }, 
	{ NOTE_DS6, 54 }, 
	{ NOTE_G6, 54 }, 
	{ NOTE_REST, 214 }, 
	{ NOTE_B5, 71 }, 
	{ NOTE_DS6, 71 }, 
	{ NOTE_FS6, 71 }, 
	{ NOTE_REST, 214 }, 
	{ NOTE_D6, 54 }, 
	{ NOTE_FS6, 54 }, 
	{ NOTE_A6, 54 }, 
	{ NOTE_C7, 54 }, 
	{ NOTE_REST, 214 }, 
	{ NOTE_DS6, 54 }, 
	{ NOTE_A6, 54 }, 
	{ NOTE_C7, 54 }, 
	{ NOTE_D7, 54 }, 
	{ NOTE_REST, 214 }, 
	{ NOTE_D6, 54 }, 
	{ NOTE_FS6, 54 }, 
	{ NOTE_A6, 54 }, 
	{ NOTE_C7, 54 }, 
	{ NOTE_REST, 214 }, 
	{ NOTE_DS6, 54 }, 
	{ NOTE_FS6, 54 }, 
	{ NOTE_A6, 54 }, 
	{ NOTE_B6, 54 }, 
	{ NOTE_REST, 424 }, 
	{ NOTE_REST, 429 }, 
	{ NOTE_REST, 214 }, 
	{ NOTE_REST, 214 }, 
	{ NOTE_REST, 429 }, 
	{ NOTE_REST, 428 }, 
	{ NOTE_REST, 429 }, 
	{ NOTE_REST, 429 }, 
	{ NOTE_D7, 214 }, 
	{ NOTE_D7, 214 }, 
	{ NOTE_D7, 428 }, 
	{ NOTE_AS6, 214 }, 
	{ NOTE_AS6, 214 }, 
	{ NOTE_AS6, 429 }, 
	{ NOTE_A6, 214 }, 
	{ NOTE_A6, 214 }, 
	{ NOTE_A6, 429 }, 
	{ NOTE_REST, 214 }, 
	{ NOTE_REST, 214 }, 
	{ NOTE_REST, 214 }, 
	{ NOTE_REST, 214 }, 
	{ NOTE_REST, 429 }, 
	{ NOTE_REST, 429 }, 
	{ NOTE_REST, 429 }, 
	{ NOTE_REST, 214 }, 
	{ NOTE_REST, 214 }, 
	{ NOTE_REST, 429 }, 
	{ NOTE_REST, 428 }, 
	{ NOTE_C7, 429 }, 
	{ NOTE_B6, 429 }, 
	{ NOTE_E7, 214 }, 
	{ NOTE_E7, 214 }, 
	{ NOTE_E7, 428 }, 
	{ NOTE_D7, 214 }, 
	{ NOTE_D7, 214 }, 
	{ NOTE_D7, 429 }, 
	{ NOTE_CS7, 214 }, 
	{ NOTE_CS7, 214 }, 
	{ NOTE_CS7, 429 }, 
	{ NOTE_REST, 214 }, 
	{ NOTE_FS7, 214 }, 
	{ NOTE_REST, 214 }, 
	{ NOTE_FS7, 214 }, 
	{ NOTE_REST, 429 }, 
	{ NOTE_REST, 429 }, 
	{ NOTE_REST, 429 }, 
	{ NOTE_REST, 214 }, 
	{ NOTE_REST, 214 }, 
	{ NOTE_REST, 429 }, 
	{ NOTE_REST, 428 }, 
	{ NOTE_REST, 429 }, 
	{ NOTE_REST, 429 }, 
	{ NOTE_D7, 214 }, 
	{ NOTE_D7, 214 }, 
	{ NOTE_D7, 428 }, 
	{ NOTE_AS6, 214 }, 
	{ NOTE_AS6, 214 }, 
	{ NOTE_AS6, 429 }, 
	{ NOTE_A6, 214 }, 
	{ NOTE_A6, 214 }, 
	{ NOTE_A6, 429 }, 
	{ NOTE_REST, 214 }, 
	{ NOTE_E7, 214 }, 
	{ NOTE_REST, 214 }, 
	{ NOTE_E7, 214 }, 
	{ NOTE_REST, 429 }, 
	{ NOTE_REST, 429 }, 
	{ NOTE_REST, 429 }, 
	{ NOTE_REST, 214 }, 
	{ NOTE_REST, 214 }, 
	{ NOTE_REST, 429 }, 
	{ NOTE_DS7, 428 }, 
	{ NOTE_REST, 429 }, 
	{ NOTE_REST, 214 }, 
	{ NOTE_REST, 214 }, 
	{ NOTE_REST, 429 }, 
	{ NOTE_CS7, 428 }, 
	{ NOTE_REST, 429 }, 
	{ NOTE_REST, 214 }, 
	{ NOTE_REST, 214 }, 
	{ NOTE_REST, 429 }, 
	{ NOTE_REST, 428 }, 
	{ NOTE_REST, 429 }, 
	{ NOTE_B6, 107 }, 
	{ NOTE_DS7, 107 }, 
	{ NOTE_FS7, 107 }, 
	{ NOTE_B7, 107 }, 
	{ NOTE_REST, 429 }, 
	{ NOTE_E6, 428 }, 
};
const uint16_t NUM_OF_NOTES2 = sizeof(melody2)/sizeof(melody2[0]);

const Note melody3[] PROGMEM = {
	{ NOTE_E4, 429 }, 
	{ NOTE_REST, 429 }, 
	{ NOTE_E4, 429 }, 
	{ NOTE_REST, 427 }, 
	{ NOTE_E4, 429 }, 
	{ NOTE_REST, 429 }, 
	{ NOTE_E4, 429 }, 
	{ NOTE_REST, 427 }, 
	{ NOTE_E4, 429 }, 
	{ NOTE_REST, 429 }, 
	{ NOTE_E4, 429 }, 
	{ NOTE_REST, 427 }, 
	{ NOTE_E4, 429 }, 
	{ NOTE_REST, 429 }, 
	{ NOTE_E4, 429 }, 
	{ NOTE_REST, 427 }, 
	{ NOTE_E4, 429 }, 
	{ NOTE_B4, 429 }, 
	{ NOTE_E4, 429 }, 
	{ NOTE_C5, 427 }, 
	{ NOTE_E4, 429 }, 
	{ NOTE_CS5, 429 }, 
	{ NOTE_E4, 429 }, 
	{ NOTE_D5, 427 }, 
	{ NOTE_E4, 429 }, 
	{ NOTE_E5, 429 }, 
	{ NOTE_E4, 429 }, 
	{ NOTE_FS5, 427 }, 
	{ NOTE_G5, 429 }, 
	{ NOTE_FS5, 429 }, 
	{ NOTE_G5, 429 }, 
	{ NOTE_E4, 107 }, 
	{ NOTE_D4, 107 }, 
	{ NOTE_C4, 107 }, 
	{ NOTE_B3, 106 }, 
	{ NOTE_AS3, 429 }, 
	{ NOTE_G4, 429 }, 
	{ NOTE_A3, 429 }, 
	{ NOTE_FS4, 427 }, 
	{ NOTE_G3, 429 }, 
	{ NOTE_G4, 429 }, 
	{ NOTE_FS3, 429 }, 
	{ NOTE_AS4, 427 }, 
	{ NOTE_FS4, 429 }, 
	{ NOTE_B4, 429 }, 
	{ NOTE_FS4, 429 }, 
	{ NOTE_CS5, 427 }, 
	{ NOTE_FS4, 429 }, 
	{ NOTE_FS4, 429 }, 
	{ NOTE_FS4, 429 }, 
	{ NOTE_B3, 107 }, 
	{ NOTE_A3, 107 }, 
	{ NOTE_G3, 107 }, 
	{ NOTE_FS3, 106 }, 
	{ NOTE_E3, 429 }, 
	{ NOTE_B4, 429 }, 
	{ NOTE_E4, 429 }, 
	{ NOTE_C5, 427 }, 
	{ NOTE_E4, 429 }, 
	{ NOTE_CS5, 429 }, 
	{ NOTE_E4, 429 }, 
	{ NOTE_D5, 427 }, 
	{ NOTE_E4, 429 }, 
	{ NOTE_E5, 429 }, 
	{ NOTE_E4, 429 }, 
	{ NOTE_FS5, 427 }, 
	{ NOTE_G5, 429 }, 
	{ NOTE_FS5, 429 }, 
	{ NOTE_G5, 429 }, 
	{ NOTE_G5, 107 }, 
	{ NOTE_FS5, 107 }, 
	{ NOTE_E5, 107 }, 
	{ NOTE_D5, 106 }, 
	{ NOTE_CS5, 429 }, 
	{ NOTE_CS5, 857 }, 
	{ NOTE_FS5, 107 }, 
	{ NOTE_E5, 107 }, 
	{ NOTE_DS5, 107 }, 
	{ NOTE_CS5, 107 }, 
	{ NOTE_B4, 429 }, 
	{ NOTE_B4, 857 }, 
	{ NOTE_E5, 107 }, 
	{ NOTE_D5, 107 }, 
	{ NOTE_CS5, 107 }, 
	{ NOTE_B4, 107 }, 
	{ NOTE_A4, 429 }, 
	{ NOTE_A4, 857 }, 
	{ NOTE_D5, 107 }, 
	{ NOTE_C5, 107 }, 
	{ NOTE_B4, 107 }, 
	{ NOTE_A4, 107 }, 
	{ NOTE_G4, 429 }, 
	{ NOTE_A4, 429 }, 
	{ NOTE_G4, 429 }, 
	{ NOTE_B3, 427 }, 
	{ NOTE_G4, 214 }, 
	{ NOTE_REST, 214 }, 
	{ NOTE_A4, 214 }, 
	{ NOTE_REST, 214 }, 
	{ NOTE_CS5, 214 }, 
	{ NOTE_REST, 214 }, 
	{ NOTE_DS5, 214 }, 
	{ NOTE_REST, 216 }, 
	{ NOTE_E5, 214 }, 
	{ NOTE_REST, 214 }, 
	{ NOTE_CS5, 214 }, 
	{ NOTE_REST, 214 }, 
	{ NOTE_B4, 214 }, 
	{ NOTE_REST, 214 }, 
	{ NOTE_FS4, 430 }, 
	{ NOTE_E4, 429 }, 
	{ NOTE_DS5, 429 }, 
	{ NOTE_E5, 429 }, 
	{ NOTE_E4, 427 }, 
	{ NOTE_D4, 429 }, 
	{ NOTE_CS5, 429 }, 
	{ NOTE_D5, 429 }, 
	{ NOTE_B4, 427 }, 
	{ NOTE_G4, 214 }, 
	{ NOTE_REST, 214 }, 
	{ NOTE_A4, 214 }, 
	{ NOTE_REST, 214 }, 
	{ NOTE_CS5, 214 }, 
	{ NOTE_REST, 214 }, 
	{ NOTE_DS5, 214 }, 
	{ NOTE_REST, 216 }, 
	{ NOTE_E5, 214 }, 
	{ NOTE_REST, 214 }, 
	{ NOTE_CS5, 214 }, 
	{ NOTE_REST, 214 }, 
	{ NOTE_B4, 214 }, 
	{ NOTE_REST, 214 }, 
	{ NOTE_FS4, 430 }, 
	{ NOTE_E4, 429 }, 
	{ NOTE_DS5, 429 }, 
	{ NOTE_E5, 429 }, 
	{ NOTE_E4, 427 }, 
	{ NOTE_D4, 429 }, 
	{ NOTE_CS5, 429 }, 
	{ NOTE_D5, 429 }, 
	{ NOTE_B3, 427 }, 
	{ NOTE_G4, 214 }, 
	{ NOTE_REST, 214 }, 
	{ NOTE_A4, 214 }, 
	{ NOTE_REST, 214 }, 
	{ NOTE_CS5, 214 }, 
	{ NOTE_REST, 214 }, 
	{ NOTE_B3, 430 }, 
	{ NOTE_A4, 214 }, 
	{ NOTE_REST, 214 }, 
	{ NOTE_CS5, 214 }, 
	{ NOTE_REST, 214 }, 
	{ NOTE_DS5, 214 }, 
	{ NOTE_REST, 214 }, 
	{ NOTE_B3, 430 }, 
	{ NOTE_CS5, 214 }, 
	{ NOTE_REST, 214 }, 
	{ NOTE_DS5, 214 }, 
	{ NOTE_REST, 214 }, 
	{ NOTE_E5, 214 }, 
	{ NOTE_REST, 214 }, 
	{ NOTE_G5, 430 }, 
	{ NOTE_A5, 214 }, 
	{ NOTE_A5, 214 }, 
	{ NOTE_REST, 214 }, 
	{ NOTE_A5, 214 }, 
	{ NOTE_FS5, 429 }, 
	{ NOTE_REST, 429 }, 
	{ NOTE_DS5, 54 }, 
	{ NOTE_FS5, 54 }, 
	{ NOTE_B5, 54 }, 
	{ NOTE_DS6, 54 }, 
	{ NOTE_REST, 214 }, 
	{ NOTE_F5, 54 }, 
	{ NOTE_A5, 54 }, 
	{ NOTE_C6, 54 }, 
	{ NOTE_E6, 54 }, 
	{ NOTE_REST, 214 }, 
	{ NOTE_DS5, 54 }, 
	{ NOTE_F5, 54 }, 
	{ NOTE_B5, 54 }, 
	{ NOTE_DS6, 54 }, 
	{ NOTE_REST, 214 }, 
	{ NOTE_A5, 54 }, 
	{ NOTE_C6, 54 }, 
	{ NOTE_DS6, 54 }, 
	{ NOTE_G6, 54 }, 
	{ NOTE_REST, 208 }, 
	{ NOTE_DS5, 54 }, 
	{ NOTE_FS5, 54 }, 
	{ NOTE_A5, 54 }, 
	{ NOTE_B5, 54 }, 
	{ NOTE_REST, 214 }, 
	{ NOTE_D5, 54 }, 
	{ NOTE_FS5, 54 }, 
	{ NOTE_A5, 54 }, 
	{ NOTE_C6, 54 }, 
	{ NOTE_REST, 214 }, 
	{ NOTE_FS5, 54 }, 
	{ NOTE_A5, 54 }, 
	{ NOTE_B5, 54 }, 
	{ NOTE_D6, 54 }, 
	{ NOTE_REST, 214 }, 
	{ NOTE_F5, 54 }, 
	{ NOTE_A5, 54 }, 
	{ NOTE_C6, 54 }, 
	{ NOTE_E6, 54 }, 
	{ NOTE_REST, 208 }, 
	{ NOTE_FS5, 54 }, 
	{ NOTE_A5, 54 }, 
	{ NOTE_B5, 54 }, 
	{ NOTE_DS6, 54 }, 
	{ NOTE_REST, 214 }, 
	{ NOTE_F5, 54 }, 
	{ NOTE_A5, 54 }, 
	{ NOTE_C6, 54 }, 
	{ NOTE_E6, 54 }, 
	{ NOTE_REST, 214 }, 
	{ NOTE_FS5, 54 }, 
	{ NOTE_A5, 54 }, 
	{ NOTE_B5, 54 }, 
	{ NOTE_DS6, 54 }, 
	{ NOTE_REST, 214 }, 
	{ NOTE_A5, 54 }, 
	{ NOTE_C6, 54 }, 
	{ NOTE_DS6, 54 }, 
	{ NOTE_G6, 54 }, 
	{ NOTE_REST, 208 }, 
	{ NOTE_B5, 71 }, 
	{ NOTE_DS6, 71 }, 
	{ NOTE_FS6, 71 }, 
	{ NOTE_REST, 214 }, 
	{ NOTE_A5, 54 }, 
	{ NOTE_C6, 54 }, 
	{ NOTE_DS6, 54 }, 
	{ NOTE_G6, 54 }, 
	{ NOTE_REST, 214 }, 
	{ NOTE_B5, 71 }, 
	{ NOTE_DS6, 71 }, 
	{ NOTE_FS6, 71 }, 
	{ NOTE_REST, 214 }, 
	{ NOTE_D6, 54 }, 
	{ NOTE_FS6, 54 }, 
	{ NOTE_A6, 54 }, 
	{ NOTE_C7, 54 }, 
	{ NOTE_REST, 214 }, 
	{ NOTE_DS6, 54 }, 
	{ NOTE_A6, 54 }, 
	{ NOTE_C7, 54 }, 
	{ NOTE_D7, 54 }, 
	{ NOTE_REST, 214 }, 
	{ NOTE_D6, 54 }, 
	{ NOTE_FS6, 54 }, 
	{ NOTE_A6, 54 }, 
	{ NOTE_C7, 54 }, 
	{ NOTE_REST, 214 }, 
	{ NOTE_D6, 54 }, 
	{ NOTE_FS6, 54 }, 
	{ NOTE_A6, 54 }, 
	{ NOTE_B6, 54 }, 
	{ NOTE_REST, 214 }, 
	{ NOTE_B4, 107 }, 
	{ NOTE_A4, 107 }, 
	{ NOTE_G4, 107 }, 
	{ NOTE_FS4, 103 }, 
	{ NOTE_E4, 429 }, 
	{ NOTE_B4, 429 }, 
	{ NOTE_E4, 429 }, 
	{ NOTE_C5, 427 }, 
	{ NOTE_E4, 429 }, 
	{ NOTE_CS5, 429 }, 
	{ NOTE_E4, 429 }, 
	{ NOTE_D5, 427 }, 
	{ NOTE_E4, 429 }, 
	{ NOTE_E5, 429 }, 
	{ NOTE_E4, 429 }, 
	{ NOTE_FS5, 427 }, 
	{ NOTE_G5, 429 }, 
	{ NOTE_FS5, 429 }, 
	{ NOTE_G5, 429 }, 
	{ NOTE_E5, 107 }, 
	{ NOTE_D5, 107 }, 
	{ NOTE_C5, 107 }, 
	{ NOTE_B4, 106 }, 
	{ NOTE_AS4, 429 }, 
	{ NOTE_G5, 429 }, 
	{ NOTE_A4, 429 }, 
	{ NOTE_FS5, 427 }, 
	{ NOTE_G4, 429 }, 
	{ NOTE_G5, 429 }, 
	{ NOTE_FS5, 429 }, 
	{ NOTE_AS5, 427 }, 
	{ NOTE_FS4, 429 }, 
	{ NOTE_B5, 429 }, 
	{ NOTE_FS5, 429 }, 
	{ NOTE_CS6, 427 }, 
	{ NOTE_FS5, 429 }, 
	{ NOTE_FS5, 429 }, 
	{ NOTE_FS5, 429 }, 
	{ NOTE_B5, 107 }, 
	{ NOTE_A5, 107 }, 
	{ NOTE_G5, 107 }, 
	{ NOTE_FS5, 106 }, 
	{ NOTE_E5, 429 }, 
	{ NOTE_B5, 429 }, 
	{ NOTE_E5, 429 }, 
	{ NOTE_A5, 427 }, 
	{ NOTE_E5, 429 }, 
	{ NOTE_CS6, 429 }, 
	{ NOTE_E5, 429 }, 
	{ NOTE_D6, 427 }, 
	{ NOTE_E5, 429 }, 
	{ NOTE_E6, 429 }, 
	{ NOTE_E5, 429 }, 
	{ NOTE_FS6, 427 }, 
	{ NOTE_G6, 429 }, 
	{ NOTE_FS6, 429 }, 
	{ NOTE_G6, 429 }, 
	{ NOTE_G6, 107 }, 
	{ NOTE_FS6, 107 }, 
	{ NOTE_E6, 107 }, 
	{ NOTE_D6, 106 }, 
	{ NOTE_CS6, 429 }, 
	{ NOTE_CS6, 857 }, 
	{ NOTE_FS6, 107 }, 
	{ NOTE_E6, 107 }, 
	{ NOTE_DS6, 107 }, 
	{ NOTE_CS6, 107 }, 
	{ NOTE_B5, 429 }, 
	{ NOTE_B5, 857 }, 
	{ NOTE_E6, 107 }, 
	{ NOTE_D6, 107 }, 
	{ NOTE_CS6, 107 }, 
	{ NOTE_B5, 107 }, 
	{ NOTE_A5, 429 }, 
	{ NOTE_A5, 857 }, 
	{ NOTE_D6, 107 }, 
	{ NOTE_C6, 107 }, 
	{ NOTE_B5, 107 }, 
	{ NOTE_A5, 107 }, 
	{ NOTE_B5, 429 }, 
	{ NOTE_B5, 429 }, 
	{ NOTE_G5, 429 }, 
	{ NOTE_G4, 427 }, 
};
const uint16_t NUM_OF_NOTES3 = sizeof(melody3)/sizeof(melody3[0]);

const Note melody4[] PROGMEM = {
	{ NOTE_E3, 429 }, 
	{ NOTE_REST, 429 }, 
	{ NOTE_E3, 429 }, 
	{ NOTE_REST, 427 }, 
	{ NOTE_E3, 429 }, 
	{ NOTE_REST, 429 }, 
	{ NOTE_E3, 429 }, 
	{ NOTE_REST, 427 }, 
	{ NOTE_E3, 429 }, 
	{ NOTE_REST, 429 }, 
	{ NOTE_E3, 429 }, 
	{ NOTE_REST, 427 }, 
	{ NOTE_E3, 429 }, 
	{ NOTE_REST, 429 }, 
	{ NOTE_E3, 429 }, 
	{ NOTE_REST, 427 }, 
	{ NOTE_E3, 429 }, 
	{ NOTE_G4, 429 }, 
	{ NOTE_E4, 429 }, 
	{ NOTE_A4, 427 }, 
	{ NOTE_E4, 429 }, 
	{ NOTE_AS4, 429 }, 
	{ NOTE_E4, 429 }, 
	{ NOTE_B4, 427 }, 
	{ NOTE_E4, 429 }, 
	{ NOTE_CS5, 429 }, 
	{ NOTE_E4, 429 }, 
	{ NOTE_DS5, 427 }, 
	{ NOTE_E5, 429 }, 
	{ NOTE_E5, 429 }, 
	{ NOTE_E5, 429 }, 
	{ NOTE_E4, 107 }, 
	{ NOTE_D4, 107 }, 
	{ NOTE_C4, 107 }, 
	{ NOTE_B3, 106 }, 
	{ NOTE_AS3, 429 }, 
	{ NOTE_E4, 429 }, 
	{ NOTE_A3, 429 }, 
	{ NOTE_DS4, 427 }, 
	{ NOTE_G3, 429 }, 
	{ NOTE_E4, 429 }, 
	{ NOTE_FS3, 429 }, 
	{ NOTE_FS4, 427 }, 
	{ NOTE_FS4, 429 }, 
	{ NOTE_GS4, 429 }, 
	{ NOTE_FS4, 429 }, 
	{ NOTE_AS4, 427 }, 
	{ NOTE_B3, 429 }, 
	{ NOTE_C4, 429 }, 
	{ NOTE_B3, 429 }, 
	{ NOTE_B3, 107 }, 
	{ NOTE_A3, 107 }, 
	{ NOTE_G3, 107 }, 
	{ NOTE_FS3, 106 }, 
	{ NOTE_E3, 429 }, 
	{ NOTE_G4, 429 }, 
	{ NOTE_E4, 429 }, 
	{ NOTE_A4, 427 }, 
	{ NOTE_E4, 429 }, 
	{ NOTE_AS4, 429 }, 
	{ NOTE_E4, 429 }, 
	{ NOTE_B4, 427 }, 
	{ NOTE_E4, 429 }, 
	{ NOTE_CS5, 429 }, 
	{ NOTE_E4, 429 }, 
	{ NOTE_DS5, 427 }, 
	{ NOTE_E5, 429 }, 
	{ NOTE_E5, 429 }, 
	{ NOTE_E5, 429 }, 
	{ NOTE_G5, 107 }, 
	{ NOTE_FS5, 107 }, 
	{ NOTE_E5, 107 }, 
	{ NOTE_D5, 106 }, 
	{ NOTE_CS5, 429 }, 
	{ NOTE_FS4, 857 }, 
	{ NOTE_FS5, 107 }, 
	{ NOTE_E5, 107 }, 
	{ NOTE_DS5, 107 }, 
	{ NOTE_CS5, 107 }, 
	{ NOTE_B4, 429 }, 
	{ NOTE_E4, 857 }, 
	{ NOTE_E5, 107 }, 
	{ NOTE_D5, 107 }, 
	{ NOTE_CS5, 107 }, 
	{ NOTE_B4, 107 }, 
	{ NOTE_A4, 429 }, 
	{ NOTE_D4, 857 }, 
	{ NOTE_D5, 107 }, 
	{ NOTE_C5, 107 }, 
	{ NOTE_B4, 107 }, 
	{ NOTE_A4, 107 }, 
	{ NOTE_G4, 429 }, 
	{ NOTE_FS4, 429 }, 
	{ NOTE_E4, 429 }, 
	{ NOTE_B2, 427 }, 
	{ NOTE_E4, 214 }, 
	{ NOTE_REST, 214 }, 
	{ NOTE_FS4, 214 }, 
	{ NOTE_REST, 214 }, 
	{ NOTE_G4, 214 }, 
	{ NOTE_REST, 214 }, 
	{ NOTE_A4, 214 }, 
	{ NOTE_REST, 216 }, 
	{ NOTE_B4, 214 }, 
	{ NOTE_REST, 214 }, 
	{ NOTE_G4, 214 }, 
	{ NOTE_REST, 214 }, 
	{ NOTE_FS4, 214 }, 
	{ NOTE_REST, 214 }, 
	{ NOTE_DS4, 430 }, 
	{ NOTE_E4, 429 }, 
	{ NOTE_DS5, 429 }, 
	{ NOTE_E5, 429 }, 
	{ NOTE_CS4, 427 }, 
	{ NOTE_D4, 429 }, 
	{ NOTE_CS5, 429 }, 
	{ NOTE_D5, 429 }, 
	{ NOTE_B3, 427 }, 
	{ NOTE_E4, 214 }, 
	{ NOTE_REST, 214 }, 
	{ NOTE_FS4, 214 }, 
	{ NOTE_REST, 214 }, 
	{ NOTE_G4, 214 }, 
	{ NOTE_REST, 214 }, 
	{ NOTE_A4, 214 }, 
	{ NOTE_REST, 216 }, 
	{ NOTE_B4, 214 }, 
	{ NOTE_REST, 214 }, 
	{ NOTE_G4, 214 }, 
	{ NOTE_REST, 214 }, 
	{ NOTE_FS4, 214 }, 
	{ NOTE_REST, 214 }, 
	{ NOTE_DS4, 430 }, 
	{ NOTE_E4, 429 }, 
	{ NOTE_DS5, 429 }, 
	{ NOTE_E5, 429 }, 
	{ NOTE_CS4, 427 }, 
	{ NOTE_D4, 429 }, 
	{ NOTE_CS5, 429 }, 
	{ NOTE_D5, 429 }, 
	{ NOTE_B2, 427 }, 
	{ NOTE_E4, 214 }, 
	{ NOTE_REST, 214 }, 
	{ NOTE_FS4, 214 }, 
	{ NOTE_REST, 214 }, 
	{ NOTE_G4, 214 }, 
	{ NOTE_REST, 214 }, 
	{ NOTE_B2, 430 }, 
	{ NOTE_FS4, 214 }, 
	{ NOTE_REST, 214 }, 
	{ NOTE_G4, 214 }, 
	{ NOTE_REST, 214 }, 
	{ NOTE_A4, 214 }, 
	{ NOTE_REST, 214 }, 
	{ NOTE_B2, 430 }, 
	{ NOTE_G4, 214 }, 
	{ NOTE_REST, 214 }, 
	{ NOTE_A4, 214 }, 
	{ NOTE_REST, 214 }, 
	{ NOTE_B4, 214 }, 
	{ NOTE_REST, 214 }, 
	{ NOTE_E5, 430 }, 
	{ NOTE_E5, 214 }, 
	{ NOTE_E5, 214 }, 
	{ NOTE_REST, 214 }, 
	{ NOTE_E5, 214 }, 
	{ NOTE_DS5, 429 }, 
	{ NOTE_REST, 429 }, 
	{ NOTE_DS5, 54 }, 
	{ NOTE_FS5, 54 }, 
	{ NOTE_B5, 54 }, 
	{ NOTE_DS6, 54 }, 
	{ NOTE_REST, 214 }, 
	{ NOTE_F5, 54 }, 
	{ NOTE_A5, 54 }, 
	{ NOTE_C6, 54 }, 
	{ NOTE_E6, 54 }, 
	{ NOTE_REST, 214 }, 
	{ NOTE_DS5, 54 }, 
	{ NOTE_F5, 54 }, 
	{ NOTE_B5, 54 }, 
	{ NOTE_DS6, 54 }, 
	{ NOTE_REST, 214 }, 
	{ NOTE_A5, 54 }, 
	{ NOTE_C6, 54 }, 
	{ NOTE_DS6, 54 }, 
	{ NOTE_G6, 54 }, 
	{ NOTE_REST, 208 }, 
	{ NOTE_DS5, 54 }, 
	{ NOTE_FS5, 54 }, 
	{ NOTE_A5, 54 }, 
	{ NOTE_B5, 54 }, 
	{ NOTE_REST, 214 }, 
	{ NOTE_D5, 54 }, 
	{ NOTE_FS5, 54 }, 
	{ NOTE_A5, 54 }, 
	{ NOTE_C6, 54 }, 
	{ NOTE_REST, 214 }, 
	{ NOTE_FS5, 54 }, 
	{ NOTE_A5, 54 }, 
	{ NOTE_B5, 54 }, 
	{ NOTE_D6, 54 }, 
	{ NOTE_REST, 214 }, 
	{ NOTE_F5, 54 }, 
	{ NOTE_A5, 54 }, 
	{ NOTE_C6, 54 }, 
	{ NOTE_E6, 54 }, 
	{ NOTE_REST, 208 }, 
	{ NOTE_FS5, 54 }, 
	{ NOTE_A5, 54 }, 
	{ NOTE_B5, 54 }, 
	{ NOTE_DS6, 54 }, 
	{ NOTE_REST, 214 }, 
	{ NOTE_F5, 54 }, 
	{ NOTE_A5, 54 }, 
	{ NOTE_C6, 54 }, 
	{ NOTE_E6, 54 }, 
	{ NOTE_REST, 214 }, 
	{ NOTE_FS5, 54 }, 
	{ NOTE_A5, 54 }, 
	{ NOTE_B5, 54 }, 
	{ NOTE_DS6, 54 }, 
	{ NOTE_REST, 214 }, 
	{ NOTE_A5, 54 }, 
	{ NOTE_C6, 54 }, 
	{ NOTE_DS6, 54 }, 
	{ NOTE_G6, 54 }, 
	{ NOTE_REST, 208 }, 
	{ NOTE_B5, 71 }, 
	{ NOTE_DS6, 71 }, 
	{ NOTE_FS6, 71 }, 
	{ NOTE_REST, 214 }, 
	{ NOTE_A5, 54 }, 
	{ NOTE_C6, 54 }, 
	{ NOTE_DS6, 54 }, 
	{ NOTE_G6, 54 }, 
	{ NOTE_REST, 214 }, 
	{ NOTE_B5, 71 }, 
	{ NOTE_DS6, 71 }, 
	{ NOTE_FS6, 71 }, 
	{ NOTE_REST, 214 }, 
	{ NOTE_D6, 54 }, 
	{ NOTE_FS6, 54 }, 
	{ NOTE_A6, 54 }, 
	{ NOTE_C7, 54 }, 
	{ NOTE_REST, 214 }, 
	{ NOTE_DS6, 54 }, 
	{ NOTE_A6, 54 }, 
	{ NOTE_C7, 54 }, 
	{ NOTE_D7, 54 }, 
	{ NOTE_REST, 214 }, 
	{ NOTE_D6, 54 }, 
	{ NOTE_FS6, 54 }, 
	{ NOTE_A6, 54 }, 
	{ NOTE_C7, 54 }, 
	{ NOTE_REST, 214 }, 
	{ NOTE_D6, 54 }, 
	{ NOTE_FS6, 54 }, 
	{ NOTE_A6, 54 }, 
	{ NOTE_B6, 54 }, 
	{ NOTE_REST, 214 }, 
	{ NOTE_B4, 107 }, 
	{ NOTE_A4, 107 }, 
	{ NOTE_G4, 107 }, 
	{ NOTE_FS4, 103 }, 
	{ NOTE_E3, 429 }, 
	{ NOTE_G4, 429 }, 
	{ NOTE_E4, 429 }, 
	{ NOTE_A4, 427 }, 
	{ NOTE_E4, 429 }, 
	{ NOTE_AS4, 429 }, 
	{ NOTE_E4, 429 }, 
	{ NOTE_B4, 427 }, 
	{ NOTE_E4, 429 }, 
	{ NOTE_CS5, 429 }, 
	{ NOTE_E4, 429 }, 
	{ NOTE_DS5, 427 }, 
	{ NOTE_E5, 429 }, 
	{ NOTE_E5, 429 }, 
	{ NOTE_E5, 429 }, 
	{ NOTE_E5, 107 }, 
	{ NOTE_D5, 107 }, 
	{ NOTE_C5, 107 }, 
	{ NOTE_B4, 106 }, 
	{ NOTE_AS4, 429 }, 
	{ NOTE_E5, 429 }, 
	{ NOTE_A4, 429 }, 
	{ NOTE_DS5, 427 }, 
	{ NOTE_G4, 429 }, 
	{ NOTE_E5, 429 }, 
	{ NOTE_FS4, 429 }, 
	{ NOTE_FS5, 427 }, 
	{ NOTE_FS4, 429 }, 
	{ NOTE_GS5, 429 }, 
	{ NOTE_FS5, 429 }, 
	{ NOTE_AS5, 427 }, 
	{ NOTE_B4, 429 }, 
	{ NOTE_C5, 429 }, 
	{ NOTE_B4, 429 }, 
	{ NOTE_B5, 107 }, 
	{ NOTE_A5, 107 }, 
	{ NOTE_G5, 107 }, 
	{ NOTE_FS5, 106 }, 
	{ NOTE_E5, 429 }, 
	{ NOTE_G5, 429 }, 
	{ NOTE_E5, 429 }, 
	{ NOTE_FS5, 427 }, 
	{ NOTE_E5, 429 }, 
	{ NOTE_AS5, 429 }, 
	{ NOTE_E5, 429 }, 
	{ NOTE_B5, 427 }, 
	{ NOTE_E5, 429 }, 
	{ NOTE_CS6, 429 }, 
	{ NOTE_E5, 429 }, 
	{ NOTE_DS6, 427 }, 
	{ NOTE_E6, 429 }, 
	{ NOTE_E6, 429 }, 
	{ NOTE_E6, 429 }, 
	{ NOTE_G6, 107 }, 
	{ NOTE_FS6, 107 }, 
	{ NOTE_E6, 107 }, 
	{ NOTE_D6, 106 }, 
	{ NOTE_CS6, 429 }, 
	{ NOTE_FS5, 857 }, 
	{ NOTE_FS6, 107 }, 
	{ NOTE_E6, 107 }, 
	{ NOTE_DS6, 107 }, 
	{ NOTE_CS6, 107 }, 
	{ NOTE_B5, 429 }, 
	{ NOTE_E5, 857 }, 
	{ NOTE_E6, 107 }, 
	{ NOTE_D6, 107 }, 
	{ NOTE_CS6, 107 }, 
	{ NOTE_B5, 107 }, 
	{ NOTE_A5, 429 }, 
	{ NOTE_D5, 857 }, 
	{ NOTE_D6, 107 }, 
	{ NOTE_C6, 107 }, 
	{ NOTE_B5, 107 }, 
	{ NOTE_A5, 107 }, 
	{ NOTE_G5, 429 }, 
	{ NOTE_FS5, 429 }, 
	{ NOTE_E5, 429 }, 
	{ NOTE_E4, 427 }, 
};
const uint16_t NUM_OF_NOTES4 = sizeof(melody4)/sizeof(melody4[0]);

