/*
 * Song: Eleanor Rigby by The Beatles
 *
 *	Melody 0 | Vocal
 *	Melody 1 | Chorus
 *	Melody 2 | Guitar
 *	Melody 3 | Guitar
 *	Melody 4 | Guitar
*/

#include <Arduino.h>
#include "notes.h"

const Note melody0[] PROGMEM = {
	{ NOTE_E4, 1095 }, 
	{ NOTE_FS4, 219 }, 
	{ NOTE_G4, 219 }, 
	{ NOTE_G4, 109 }, 
	{ NOTE_A4, 329 }, 
	{ NOTE_G4, 438 }, 
	{ NOTE_FS4, 438 }, 
	{ NOTE_E4, 438 }, 
	{ NOTE_B3, 109 }, 
	{ NOTE_A3, 110 }, 
	{ NOTE_A3, 219 }, 
	{ NOTE_G3, 438 }, 
	{ NOTE_REST, 657 }, 
	{ NOTE_A4, 109 }, 
	{ NOTE_REST, 109 }, 
	{ NOTE_B4, 109 }, 
	{ NOTE_REST, 111 }, 
	{ NOTE_G4, 109 }, 
	{ NOTE_REST, 109 }, 
	{ NOTE_B4, 109 }, 
	{ NOTE_REST, 109 }, 
	{ NOTE_FS4, 109 }, 
	{ NOTE_REST, 109 }, 
	{ NOTE_B4, 109 }, 
	{ NOTE_REST, 109 }, 
	{ NOTE_G4, 109 }, 
	{ NOTE_REST, 109 }, 
	{ NOTE_B4, 109 }, 
	{ NOTE_REST, 109 }, 
	{ NOTE_E4, 109 }, 
	{ NOTE_REST, 109 }, 
	{ NOTE_B4, 109 }, 
	{ NOTE_REST, 117 }, 
	{ NOTE_E4, 1095 }, 
	{ NOTE_FS4, 219 }, 
	{ NOTE_G4, 219 }, 
	{ NOTE_G4, 109 }, 
	{ NOTE_A4, 329 }, 
	{ NOTE_G4, 438 }, 
	{ NOTE_FS4, 438 }, 
	{ NOTE_E4, 438 }, 
	{ NOTE_B3, 109 }, 
	{ NOTE_A3, 110 }, 
	{ NOTE_A3, 219 }, 
	{ NOTE_G3, 438 }, 
	{ NOTE_REST, 657 }, 
	{ NOTE_A4, 109 }, 
	{ NOTE_REST, 109 }, 
	{ NOTE_B4, 109 }, 
	{ NOTE_REST, 111 }, 
	{ NOTE_G4, 109 }, 
	{ NOTE_REST, 109 }, 
	{ NOTE_B4, 109 }, 
	{ NOTE_REST, 109 }, 
	{ NOTE_FS4, 109 }, 
	{ NOTE_REST, 109 }, 
	{ NOTE_B4, 109 }, 
	{ NOTE_REST, 109 }, 
	{ NOTE_G4, 109 }, 
	{ NOTE_REST, 109 }, 
	{ NOTE_B4, 109 }, 
	{ NOTE_REST, 109 }, 
	{ NOTE_E4, 109 }, 
	{ NOTE_REST, 109 }, 
	{ NOTE_B4, 109 }, 
	{ NOTE_REST, 117 }, 
	{ NOTE_A3, 219 }, 
	{ NOTE_A3, 219 }, 
	{ NOTE_B3, 219 }, 
	{ NOTE_G3, 219 }, 
	{ NOTE_REST, 219 }, 
	{ NOTE_E3, 438 }, 
	{ NOTE_REST, 219 }, 
	{ NOTE_G3, 219 }, 
	{ NOTE_A3, 219 }, 
	{ NOTE_B3, 219 }, 
	{ NOTE_B3, 109 }, 
	{ NOTE_D4, 328 }, 
	{ NOTE_CS4, 219 }, 
	{ NOTE_B3, 219 }, 
	{ NOTE_CS4, 439 }, 
	{ NOTE_B3, 219 }, 
	{ NOTE_A3, 219 }, 
	{ NOTE_B3, 438 }, 
	{ NOTE_A3, 219 }, 
	{ NOTE_G3, 219 }, 
	{ NOTE_A3, 657 }, 
	{ NOTE_REST, 438 }, 
	{ NOTE_REST, 876 }, 
	{ NOTE_G3, 219 }, 
	{ NOTE_A3, 219 }, 
	{ NOTE_B3, 219 }, 
	{ NOTE_C4, 438 }, 
	{ NOTE_B3, 438 }, 
	{ NOTE_REST, 219 }, 
	{ NOTE_A3, 219 }, 
	{ NOTE_A3, 219 }, 
	{ NOTE_B3, 219 }, 
	{ NOTE_G3, 438 }, 
	{ NOTE_E3, 438 }, 
	{ NOTE_REST, 219 }, 
	{ NOTE_G3, 219 }, 
	{ NOTE_A3, 219 }, 
	{ NOTE_B3, 219 }, 
	{ NOTE_D4, 438 }, 
	{ NOTE_CS4, 219 }, 
	{ NOTE_B3, 219 }, 
	{ NOTE_CS4, 438 }, 
	{ NOTE_B3, 219 }, 
	{ NOTE_A3, 219 }, 
	{ NOTE_B3, 219 }, 
	{ NOTE_A3, 219 }, 
	{ NOTE_A3, 219 }, 
	{ NOTE_G3, 219 }, 
	{ NOTE_A3, 657 }, 
	{ NOTE_REST, 438 }, 
	{ NOTE_REST, 876 }, 
	{ NOTE_G3, 219 }, 
	{ NOTE_A3, 219 }, 
	{ NOTE_B3, 219 }, 
	{ NOTE_C4, 438 }, 
	{ NOTE_B3, 438 }, 
	{ NOTE_REST, 219 }, 
	{ NOTE_A3, 438 }, 
	{ NOTE_G3, 219 }, 
	{ NOTE_A3, 657 }, 
	{ NOTE_B3, 219 }, 
	{ NOTE_G3, 438 }, 
	{ NOTE_E3, 438 }, 
	{ NOTE_REST, 219 }, 
	{ NOTE_REST, 438 }, 
	{ NOTE_E3, 219 }, 
	{ NOTE_D4, 109 }, 
	{ NOTE_E4, 548 }, 
	{ NOTE_AS3, 219 }, 
	{ NOTE_A3, 219 }, 
	{ NOTE_G3, 219 }, 
	{ NOTE_G3, 438 }, 
	{ NOTE_E3, 657 }, 
	{ NOTE_REST, 438 }, 
	{ NOTE_REST, 876 }, 
	{ NOTE_G3, 109 }, 
	{ NOTE_A3, 328 }, 
	{ NOTE_G3, 219 }, 
	{ NOTE_A3, 657 }, 
	{ NOTE_B3, 219 }, 
	{ NOTE_G3, 439 }, 
	{ NOTE_E3, 438 }, 
	{ NOTE_REST, 219 }, 
	{ NOTE_REST, 438 }, 
	{ NOTE_E3, 219 }, 
	{ NOTE_E4, 109 }, 
	{ NOTE_G4, 548 }, 
	{ NOTE_E4, 219 }, 
	{ NOTE_B3, 219 }, 
	{ NOTE_A3, 219 }, 
	{ NOTE_A3, 438 }, 
	{ NOTE_G3, 657 }, 
	{ NOTE_REST, 438 }, 
	{ NOTE_REST, 876 }, 
	{ NOTE_A3, 219 }, 
	{ NOTE_A3, 219 }, 
	{ NOTE_B3, 219 }, 
	{ NOTE_G3, 438 }, 
	{ NOTE_E3, 438 }, 
	{ NOTE_REST, 219 }, 
	{ NOTE_G3, 219 }, 
	{ NOTE_A3, 219 }, 
	{ NOTE_B3, 219 }, 
	{ NOTE_D4, 438 }, 
	{ NOTE_CS4, 219 }, 
	{ NOTE_B3, 219 }, 
	{ NOTE_CS4, 438 }, 
	{ NOTE_B3, 219 }, 
	{ NOTE_A3, 219 }, 
	{ NOTE_B3, 438 }, 
	{ NOTE_A3, 219 }, 
	{ NOTE_G3, 219 }, 
	{ NOTE_A3, 657 }, 
	{ NOTE_REST, 438 }, 
	{ NOTE_REST, 438 }, 
	{ NOTE_REST, 219 }, 
	{ NOTE_G3, 511 }, 
	{ NOTE_A3, 292 }, 
	{ NOTE_B3, 292 }, 
	{ NOTE_C4, 219 }, 
	{ NOTE_B3, 438 }, 
	{ NOTE_REST, 219 }, 
	{ NOTE_A3, 219 }, 
	{ NOTE_A3, 219 }, 
	{ NOTE_B3, 219 }, 
	{ NOTE_G3, 438 }, 
	{ NOTE_E3, 438 }, 
	{ NOTE_REST, 219 }, 
	{ NOTE_G3, 219 }, 
	{ NOTE_A3, 219 }, 
	{ NOTE_B3, 219 }, 
	{ NOTE_D4, 438 }, 
	{ NOTE_CS4, 219 }, 
	{ NOTE_B3, 219 }, 
	{ NOTE_D4, 438 }, 
	{ NOTE_B3, 219 }, 
	{ NOTE_A3, 219 }, 
	{ NOTE_B3, 219 }, 
	{ NOTE_A3, 219 }, 
	{ NOTE_A3, 219 }, 
	{ NOTE_G3, 219 }, 
	{ NOTE_A3, 657 }, 
	{ NOTE_REST, 438 }, 
	{ NOTE_REST, 876 }, 
	{ NOTE_G3, 219 }, 
	{ NOTE_A3, 219 }, 
	{ NOTE_B3, 219 }, 
	{ NOTE_C4, 438 }, 
	{ NOTE_B3, 438 }, 
	{ NOTE_REST, 219 }, 
	{ NOTE_A3, 438 }, 
	{ NOTE_G3, 219 }, 
	{ NOTE_A3, 657 }, 
	{ NOTE_B3, 219 }, 
	{ NOTE_G3, 438 }, 
	{ NOTE_E3, 438 }, 
	{ NOTE_REST, 219 }, 
	{ NOTE_REST, 438 }, 
	{ NOTE_E3, 219 }, 
	{ NOTE_B3, 109 }, 
	{ NOTE_E4, 548 }, 
	{ NOTE_AS3, 0 }, 
	{ NOTE_B3, 219 }, 
	{ NOTE_A3, 219 }, 
	{ NOTE_G3, 219 }, 
	{ NOTE_G3, 438 }, 
	{ NOTE_E3, 657 }, 
	{ NOTE_REST, 438 }, 
	{ NOTE_REST, 876 }, 
	{ NOTE_G3, 109 }, 
	{ NOTE_A3, 328 }, 
	{ NOTE_G3, 219 }, 
	{ NOTE_A3, 657 }, 
	{ NOTE_B3, 219 }, 
	{ NOTE_G3, 439 }, 
	{ NOTE_E3, 657 }, 
	{ NOTE_REST, 438 }, 
	{ NOTE_E3, 219 }, 
	{ NOTE_E4, 109 }, 
	{ NOTE_G4, 548 }, 
	{ NOTE_E4, 219 }, 
	{ NOTE_B3, 219 }, 
	{ NOTE_A3, 219 }, 
	{ NOTE_A3, 438 }, 
	{ NOTE_G3, 657 }, 
	{ NOTE_REST, 438 }, 
	{ NOTE_REST, 876 }, 
	{ NOTE_D4, 0 }, 
	{ NOTE_E4, 1095 }, 
	{ NOTE_FS4, 219 }, 
	{ NOTE_G4, 219 }, 
	{ NOTE_G4, 109 }, 
	{ NOTE_A4, 329 }, 
	{ NOTE_G4, 438 }, 
	{ NOTE_FS4, 438 }, 
	{ NOTE_E4, 438 }, 
	{ NOTE_B3, 109 }, 
	{ NOTE_A3, 329 }, 
	{ NOTE_G3, 438 }, 
	{ NOTE_REST, 219 }, 
	{ NOTE_REST, 876 }, 
	{ NOTE_REST, 1752 }, 
	{ NOTE_D4, 0 }, 
	{ NOTE_E4, 1095 }, 
	{ NOTE_FS4, 219 }, 
	{ NOTE_G4, 219 }, 
	{ NOTE_G4, 109 }, 
	{ NOTE_A4, 329 }, 
	{ NOTE_G4, 438 }, 
	{ NOTE_FS4, 438 }, 
	{ NOTE_E4, 438 }, 
	{ NOTE_B3, 109 }, 
	{ NOTE_A3, 329 }, 
	{ NOTE_G3, 438 }, 
	{ NOTE_REST, 219 }, 
	{ NOTE_REST, 876 }, 
	{ NOTE_REST, 1752 }, 
	{ NOTE_A3, 219 }, 
	{ NOTE_A3, 219 }, 
	{ NOTE_B3, 219 }, 
	{ NOTE_G3, 219 }, 
	{ NOTE_REST, 219 }, 
	{ NOTE_E3, 438 }, 
	{ NOTE_REST, 219 }, 
	{ NOTE_G3, 219 }, 
	{ NOTE_A3, 219 }, 
	{ NOTE_B3, 219 }, 
	{ NOTE_D4, 438 }, 
	{ NOTE_CS4, 219 }, 
	{ NOTE_B3, 219 }, 
	{ NOTE_CS4, 438 }, 
	{ NOTE_B3, 219 }, 
	{ NOTE_A3, 219 }, 
	{ NOTE_B3, 438 }, 
	{ NOTE_A3, 219 }, 
	{ NOTE_G3, 219 }, 
	{ NOTE_A3, 657 }, 
	{ NOTE_REST, 438 }, 
	{ NOTE_REST, 876 }, 
	{ NOTE_G3, 219 }, 
	{ NOTE_A3, 219 }, 
	{ NOTE_B3, 219 }, 
	{ NOTE_C4, 438 }, 
	{ NOTE_B3, 438 }, 
	{ NOTE_REST, 219 }, 
	{ NOTE_A3, 219 }, 
	{ NOTE_A3, 219 }, 
	{ NOTE_B3, 219 }, 
	{ NOTE_G3, 438 }, 
	{ NOTE_E3, 438 }, 
	{ NOTE_REST, 219 }, 
	{ NOTE_G3, 219 }, 
	{ NOTE_A3, 219 }, 
	{ NOTE_B3, 219 }, 
	{ NOTE_D4, 438 }, 
	{ NOTE_CS4, 219 }, 
	{ NOTE_B3, 219 }, 
	{ NOTE_CS4, 438 }, 
	{ NOTE_B3, 219 }, 
	{ NOTE_A3, 219 }, 
	{ NOTE_B3, 219 }, 
	{ NOTE_A3, 219 }, 
	{ NOTE_A3, 219 }, 
	{ NOTE_G3, 219 }, 
	{ NOTE_A3, 1095 }, 
	{ NOTE_REST, 876 }, 
	{ NOTE_G3, 219 }, 
	{ NOTE_A3, 219 }, 
	{ NOTE_B3, 219 }, 
	{ NOTE_C4, 438 }, 
	{ NOTE_B3, 438 }, 
	{ NOTE_REST, 219 }, 
	{ NOTE_E4, 1095 }, 
	{ NOTE_FS4, 219 }, 
	{ NOTE_G4, 219 }, 
	{ NOTE_G4, 0 }, 
	{ NOTE_A4, 438 }, 
	{ NOTE_G4, 438 }, 
	{ NOTE_FS4, 438 }, 
	{ NOTE_E4, 438 }, 
	{ NOTE_AS3, 109 }, 
	{ NOTE_A3, 329 }, 
	{ NOTE_G3, 657 }, 
	{ NOTE_REST, 876 }, 
	{ NOTE_REST, 1752 }, 
	{ NOTE_E4, 1095 }, 
	{ NOTE_FS4, 219 }, 
	{ NOTE_G4, 219 }, 
	{ NOTE_G4, 0 }, 
	{ NOTE_A4, 438 }, 
	{ NOTE_G4, 438 }, 
	{ NOTE_FS4, 438 }, 
	{ NOTE_E4, 438 }, 
	{ NOTE_AS3, 109 }, 
	{ NOTE_A3, 329 }, 
	{ NOTE_G3, 657 }, 
	{ NOTE_REST, 876 }, 
	{ NOTE_REST, 1752 }, 
	{ NOTE_REST, 1752 }, 
};
const uint16_t NUM_OF_NOTES0 = sizeof(melody0)/sizeof(melody0[0]);

const Note melody1[] PROGMEM = {
	{ NOTE_G3, 1095 }, 
	{ NOTE_A3, 219 }, 
	{ NOTE_B3, 219 }, 
	{ NOTE_B3, 109 }, 
	{ NOTE_C4, 329 }, 
	{ NOTE_B3, 438 }, 
	{ NOTE_A3, 438 }, 
	{ NOTE_G3, 438 }, 
	{ NOTE_B2, 109 }, 
	{ NOTE_A2, 329 }, 
	{ NOTE_A2, 438 }, 
	{ NOTE_REST, 219 }, 
	{ NOTE_REST, 876 }, 
	{ NOTE_REST, 1752 }, 
	{ NOTE_G3, 1095 }, 
	{ NOTE_A3, 219 }, 
	{ NOTE_B3, 219 }, 
	{ NOTE_B3, 109 }, 
	{ NOTE_C4, 329 }, 
	{ NOTE_B3, 438 }, 
	{ NOTE_A3, 438 }, 
	{ NOTE_G3, 438 }, 
	{ NOTE_B2, 109 }, 
	{ NOTE_A2, 329 }, 
	{ NOTE_A2, 438 }, 
	{ NOTE_REST, 219 }, 
	{ NOTE_REST, 876 }, 
	{ NOTE_REST, 1752 }, 
	{ NOTE_A3, 219 }, 
	{ NOTE_A3, 219 }, 
	{ NOTE_B3, 219 }, 
	{ NOTE_G3, 219 }, 
	{ NOTE_REST, 219 }, 
	{ NOTE_E3, 438 }, 
	{ NOTE_REST, 219 }, 
	{ NOTE_G3, 219 }, 
	{ NOTE_A3, 219 }, 
	{ NOTE_B3, 219 }, 
	{ NOTE_B3, 109 }, 
	{ NOTE_D4, 328 }, 
	{ NOTE_CS4, 219 }, 
	{ NOTE_B3, 219 }, 
	{ NOTE_CS4, 439 }, 
	{ NOTE_B3, 219 }, 
	{ NOTE_A3, 219 }, 
	{ NOTE_B3, 438 }, 
	{ NOTE_A3, 219 }, 
	{ NOTE_G3, 219 }, 
	{ NOTE_A3, 657 }, 
	{ NOTE_REST, 438 }, 
	{ NOTE_REST, 876 }, 
	{ NOTE_G3, 219 }, 
	{ NOTE_A3, 219 }, 
	{ NOTE_B3, 219 }, 
	{ NOTE_C4, 438 }, 
	{ NOTE_B3, 438 }, 
	{ NOTE_REST, 219 }, 
	{ NOTE_A3, 219 }, 
	{ NOTE_A3, 219 }, 
	{ NOTE_B3, 219 }, 
	{ NOTE_G3, 438 }, 
	{ NOTE_E3, 438 }, 
	{ NOTE_REST, 219 }, 
	{ NOTE_G3, 219 }, 
	{ NOTE_A3, 219 }, 
	{ NOTE_B3, 219 }, 
	{ NOTE_D4, 438 }, 
	{ NOTE_CS4, 219 }, 
	{ NOTE_B3, 219 }, 
	{ NOTE_CS4, 438 }, 
	{ NOTE_B3, 219 }, 
	{ NOTE_A3, 219 }, 
	{ NOTE_B3, 219 }, 
	{ NOTE_A3, 219 }, 
	{ NOTE_A3, 219 }, 
	{ NOTE_G3, 219 }, 
	{ NOTE_A3, 657 }, 
	{ NOTE_REST, 438 }, 
	{ NOTE_REST, 876 }, 
	{ NOTE_G3, 219 }, 
	{ NOTE_A3, 219 }, 
	{ NOTE_B3, 219 }, 
	{ NOTE_C4, 438 }, 
	{ NOTE_B3, 438 }, 
	{ NOTE_REST, 219 }, 
	{ NOTE_A3, 438 }, 
	{ NOTE_G3, 219 }, 
	{ NOTE_A3, 657 }, 
	{ NOTE_B3, 219 }, 
	{ NOTE_G3, 438 }, 
	{ NOTE_E3, 438 }, 
	{ NOTE_REST, 219 }, 
	{ NOTE_REST, 438 }, 
	{ NOTE_E3, 219 }, 
	{ NOTE_D4, 109 }, 
	{ NOTE_E4, 548 }, 
	{ NOTE_AS3, 219 }, 
	{ NOTE_A3, 219 }, 
	{ NOTE_G3, 219 }, 
	{ NOTE_G3, 438 }, 
	{ NOTE_E3, 657 }, 
	{ NOTE_REST, 438 }, 
	{ NOTE_REST, 876 }, 
	{ NOTE_G3, 109 }, 
	{ NOTE_A3, 328 }, 
	{ NOTE_G3, 219 }, 
	{ NOTE_A3, 657 }, 
	{ NOTE_B3, 219 }, 
	{ NOTE_G3, 439 }, 
	{ NOTE_E3, 438 }, 
	{ NOTE_REST, 219 }, 
	{ NOTE_REST, 438 }, 
	{ NOTE_E3, 219 }, 
	{ NOTE_E4, 109 }, 
	{ NOTE_G4, 548 }, 
	{ NOTE_E4, 219 }, 
	{ NOTE_B3, 219 }, 
	{ NOTE_A3, 219 }, 
	{ NOTE_A3, 438 }, 
	{ NOTE_G3, 657 }, 
	{ NOTE_REST, 438 }, 
	{ NOTE_REST, 876 }, 
	{ NOTE_A3, 219 }, 
	{ NOTE_A3, 219 }, 
	{ NOTE_B3, 219 }, 
	{ NOTE_G3, 438 }, 
	{ NOTE_E3, 438 }, 
	{ NOTE_REST, 219 }, 
	{ NOTE_G3, 219 }, 
	{ NOTE_A3, 219 }, 
	{ NOTE_B3, 219 }, 
	{ NOTE_D4, 438 }, 
	{ NOTE_CS4, 219 }, 
	{ NOTE_B3, 219 }, 
	{ NOTE_CS4, 438 }, 
	{ NOTE_B3, 219 }, 
	{ NOTE_A3, 219 }, 
	{ NOTE_B3, 438 }, 
	{ NOTE_A3, 219 }, 
	{ NOTE_G3, 219 }, 
	{ NOTE_A3, 657 }, 
	{ NOTE_REST, 438 }, 
	{ NOTE_REST, 438 }, 
	{ NOTE_REST, 219 }, 
	{ NOTE_G3, 511 }, 
	{ NOTE_A3, 292 }, 
	{ NOTE_B3, 292 }, 
	{ NOTE_C4, 219 }, 
	{ NOTE_B3, 438 }, 
	{ NOTE_REST, 219 }, 
	{ NOTE_A3, 219 }, 
	{ NOTE_A3, 219 }, 
	{ NOTE_B3, 219 }, 
	{ NOTE_G3, 438 }, 
	{ NOTE_E3, 438 }, 
	{ NOTE_REST, 219 }, 
	{ NOTE_G3, 219 }, 
	{ NOTE_A3, 219 }, 
	{ NOTE_B3, 219 }, 
	{ NOTE_D4, 438 }, 
	{ NOTE_CS4, 219 }, 
	{ NOTE_B3, 219 }, 
	{ NOTE_D4, 438 }, 
	{ NOTE_B3, 219 }, 
	{ NOTE_A3, 219 }, 
	{ NOTE_B3, 219 }, 
	{ NOTE_A3, 219 }, 
	{ NOTE_A3, 219 }, 
	{ NOTE_G3, 219 }, 
	{ NOTE_A3, 657 }, 
	{ NOTE_REST, 438 }, 
	{ NOTE_REST, 876 }, 
	{ NOTE_G3, 219 }, 
	{ NOTE_A3, 219 }, 
	{ NOTE_B3, 219 }, 
	{ NOTE_C4, 438 }, 
	{ NOTE_B3, 438 }, 
	{ NOTE_REST, 219 }, 
	{ NOTE_A3, 438 }, 
	{ NOTE_G3, 219 }, 
	{ NOTE_A3, 657 }, 
	{ NOTE_B3, 219 }, 
	{ NOTE_G3, 438 }, 
	{ NOTE_E3, 438 }, 
	{ NOTE_REST, 219 }, 
	{ NOTE_REST, 438 }, 
	{ NOTE_E3, 219 }, 
	{ NOTE_B3, 109 }, 
	{ NOTE_E4, 548 }, 
	{ NOTE_AS3, 0 }, 
	{ NOTE_B3, 219 }, 
	{ NOTE_A3, 219 }, 
	{ NOTE_G3, 219 }, 
	{ NOTE_G3, 438 }, 
	{ NOTE_E3, 657 }, 
	{ NOTE_REST, 438 }, 
	{ NOTE_REST, 876 }, 
	{ NOTE_G3, 109 }, 
	{ NOTE_A3, 328 }, 
	{ NOTE_G3, 219 }, 
	{ NOTE_A3, 657 }, 
	{ NOTE_B3, 219 }, 
	{ NOTE_G3, 439 }, 
	{ NOTE_E3, 657 }, 
	{ NOTE_REST, 438 }, 
	{ NOTE_E3, 219 }, 
	{ NOTE_E4, 109 }, 
	{ NOTE_G4, 548 }, 
	{ NOTE_E4, 219 }, 
	{ NOTE_B3, 219 }, 
	{ NOTE_A3, 219 }, 
	{ NOTE_A3, 438 }, 
	{ NOTE_G3, 657 }, 
	{ NOTE_REST, 438 }, 
	{ NOTE_REST, 876 }, 
	{ NOTE_G3, 1095 }, 
	{ NOTE_A3, 219 }, 
	{ NOTE_B3, 219 }, 
	{ NOTE_B3, 109 }, 
	{ NOTE_C4, 329 }, 
	{ NOTE_B3, 438 }, 
	{ NOTE_A3, 438 }, 
	{ NOTE_G3, 438 }, 
	{ NOTE_B2, 109 }, 
	{ NOTE_A2, 329 }, 
	{ NOTE_A2, 438 }, 
	{ NOTE_REST, 219 }, 
	{ NOTE_REST, 876 }, 
	{ NOTE_REST, 1752 }, 
	{ NOTE_F3, 0 }, 
	{ NOTE_G3, 1095 }, 
	{ NOTE_A3, 219 }, 
	{ NOTE_B3, 219 }, 
	{ NOTE_B3, 109 }, 
	{ NOTE_C4, 329 }, 
	{ NOTE_B3, 438 }, 
	{ NOTE_A3, 438 }, 
	{ NOTE_G3, 438 }, 
	{ NOTE_B2, 109 }, 
	{ NOTE_A2, 329 }, 
	{ NOTE_A2, 438 }, 
	{ NOTE_REST, 219 }, 
	{ NOTE_REST, 876 }, 
	{ NOTE_REST, 1752 }, 
	{ NOTE_A3, 219 }, 
	{ NOTE_A3, 219 }, 
	{ NOTE_B3, 219 }, 
	{ NOTE_G3, 219 }, 
	{ NOTE_REST, 219 }, 
	{ NOTE_E3, 438 }, 
	{ NOTE_REST, 219 }, 
	{ NOTE_G3, 219 }, 
	{ NOTE_A3, 219 }, 
	{ NOTE_B3, 219 }, 
	{ NOTE_D4, 438 }, 
	{ NOTE_CS4, 219 }, 
	{ NOTE_B3, 219 }, 
	{ NOTE_CS4, 438 }, 
	{ NOTE_B3, 219 }, 
	{ NOTE_A3, 219 }, 
	{ NOTE_B3, 438 }, 
	{ NOTE_A3, 219 }, 
	{ NOTE_G3, 219 }, 
	{ NOTE_A3, 657 }, 
	{ NOTE_REST, 438 }, 
	{ NOTE_REST, 876 }, 
	{ NOTE_G3, 219 }, 
	{ NOTE_A3, 219 }, 
	{ NOTE_B3, 219 }, 
	{ NOTE_C4, 438 }, 
	{ NOTE_B3, 438 }, 
	{ NOTE_REST, 219 }, 
	{ NOTE_A3, 219 }, 
	{ NOTE_A3, 219 }, 
	{ NOTE_B3, 219 }, 
	{ NOTE_G3, 438 }, 
	{ NOTE_E3, 438 }, 
	{ NOTE_REST, 219 }, 
	{ NOTE_G3, 219 }, 
	{ NOTE_A3, 219 }, 
	{ NOTE_B3, 219 }, 
	{ NOTE_D4, 438 }, 
	{ NOTE_CS4, 219 }, 
	{ NOTE_B3, 219 }, 
	{ NOTE_CS4, 438 }, 
	{ NOTE_B3, 219 }, 
	{ NOTE_A3, 219 }, 
	{ NOTE_B3, 219 }, 
	{ NOTE_A3, 219 }, 
	{ NOTE_A3, 219 }, 
	{ NOTE_G3, 219 }, 
	{ NOTE_A3, 1095 }, 
	{ NOTE_REST, 876 }, 
	{ NOTE_G3, 219 }, 
	{ NOTE_A3, 219 }, 
	{ NOTE_B3, 219 }, 
	{ NOTE_C4, 438 }, 
	{ NOTE_B3, 438 }, 
	{ NOTE_REST, 219 }, 
	{ NOTE_A3, 438 }, 
	{ NOTE_G3, 219 }, 
	{ NOTE_A3, 657 }, 
	{ NOTE_B3, 219 }, 
	{ NOTE_G3, 438 }, 
	{ NOTE_E3, 657 }, 
	{ NOTE_REST, 438 }, 
	{ NOTE_E3, 219 }, 
	{ NOTE_AS3, 109 }, 
	{ NOTE_E4, 548 }, 
	{ NOTE_AS3, 219 }, 
	{ NOTE_A3, 219 }, 
	{ NOTE_G3, 219 }, 
	{ NOTE_G3, 438 }, 
	{ NOTE_E3, 657 }, 
	{ NOTE_REST, 438 }, 
	{ NOTE_REST, 876 }, 
	{ NOTE_G3, 109 }, 
	{ NOTE_A3, 328 }, 
	{ NOTE_G3, 219 }, 
	{ NOTE_A3, 657 }, 
	{ NOTE_B3, 219 }, 
	{ NOTE_G3, 439 }, 
	{ NOTE_E3, 657 }, 
	{ NOTE_REST, 438 }, 
	{ NOTE_E3, 219 }, 
	{ NOTE_E4, 109 }, 
	{ NOTE_A4, 548 }, 
	{ NOTE_E4, 219 }, 
	{ NOTE_B3, 109 }, 
	{ NOTE_A3, 328 }, 
	{ NOTE_A3, 438 }, 
	{ NOTE_G3, 1534 }, 
	{ NOTE_REST, 438 }, 
	{ NOTE_REST, 1752 }, 
};
const uint16_t NUM_OF_NOTES1 = sizeof(melody1)/sizeof(melody1[0]);

const Note melody2[] PROGMEM = {
	{ NOTE_C4, 109 }, 
	{ NOTE_REST, 328 }, 
	{ NOTE_C4, 109 }, 
	{ NOTE_REST, 328 }, 
	{ NOTE_C4, 109 }, 
	{ NOTE_REST, 328 }, 
	{ NOTE_C4, 109 }, 
	{ NOTE_REST, 332 }, 
	{ NOTE_C4, 109 }, 
	{ NOTE_REST, 328 }, 
	{ NOTE_C4, 109 }, 
	{ NOTE_REST, 328 }, 
	{ NOTE_C4, 109 }, 
	{ NOTE_REST, 328 }, 
	{ NOTE_C4, 109 }, 
	{ NOTE_REST, 332 }, 
	{ NOTE_B3, 109 }, 
	{ NOTE_REST, 328 }, 
	{ NOTE_B3, 109 }, 
	{ NOTE_REST, 328 }, 
	{ NOTE_B3, 109 }, 
	{ NOTE_REST, 328 }, 
	{ NOTE_B3, 109 }, 
	{ NOTE_REST, 332 }, 
	{ NOTE_B3, 109 }, 
	{ NOTE_REST, 328 }, 
	{ NOTE_B3, 109 }, 
	{ NOTE_REST, 328 }, 
	{ NOTE_B3, 109 }, 
	{ NOTE_REST, 328 }, 
	{ NOTE_B3, 109 }, 
	{ NOTE_REST, 332 }, 
	{ NOTE_C4, 109 }, 
	{ NOTE_REST, 328 }, 
	{ NOTE_C4, 109 }, 
	{ NOTE_REST, 328 }, 
	{ NOTE_C4, 109 }, 
	{ NOTE_REST, 328 }, 
	{ NOTE_C4, 109 }, 
	{ NOTE_REST, 332 }, 
	{ NOTE_C4, 109 }, 
	{ NOTE_REST, 328 }, 
	{ NOTE_C4, 109 }, 
	{ NOTE_REST, 328 }, 
	{ NOTE_C4, 109 }, 
	{ NOTE_REST, 328 }, 
	{ NOTE_C4, 109 }, 
	{ NOTE_REST, 332 }, 
	{ NOTE_B3, 109 }, 
	{ NOTE_REST, 328 }, 
	{ NOTE_B3, 109 }, 
	{ NOTE_REST, 328 }, 
	{ NOTE_B3, 109 }, 
	{ NOTE_REST, 328 }, 
	{ NOTE_B3, 109 }, 
	{ NOTE_REST, 332 }, 
	{ NOTE_B3, 109 }, 
	{ NOTE_REST, 328 }, 
	{ NOTE_B3, 109 }, 
	{ NOTE_REST, 328 }, 
	{ NOTE_B3, 109 }, 
	{ NOTE_REST, 328 }, 
	{ NOTE_B3, 109 }, 
	{ NOTE_REST, 332 }, 
	{ NOTE_B3, 109 }, 
	{ NOTE_REST, 328 }, 
	{ NOTE_B3, 109 }, 
	{ NOTE_REST, 328 }, 
	{ NOTE_B3, 109 }, 
	{ NOTE_REST, 328 }, 
	{ NOTE_B3, 109 }, 
	{ NOTE_REST, 332 }, 
	{ NOTE_B3, 109 }, 
	{ NOTE_REST, 328 }, 
	{ NOTE_B3, 109 }, 
	{ NOTE_REST, 328 }, 
	{ NOTE_B3, 109 }, 
	{ NOTE_REST, 328 }, 
	{ NOTE_B3, 109 }, 
	{ NOTE_REST, 332 }, 
	{ NOTE_B3, 109 }, 
	{ NOTE_REST, 328 }, 
	{ NOTE_B3, 109 }, 
	{ NOTE_REST, 328 }, 
	{ NOTE_B3, 109 }, 
	{ NOTE_REST, 328 }, 
	{ NOTE_B3, 109 }, 
	{ NOTE_REST, 332 }, 
	{ NOTE_C4, 109 }, 
	{ NOTE_REST, 328 }, 
	{ NOTE_C4, 109 }, 
	{ NOTE_REST, 328 }, 
	{ NOTE_C4, 109 }, 
	{ NOTE_REST, 328 }, 
	{ NOTE_C4, 109 }, 
	{ NOTE_REST, 332 }, 
	{ NOTE_C4, 109 }, 
	{ NOTE_REST, 328 }, 
	{ NOTE_C4, 109 }, 
	{ NOTE_REST, 328 }, 
	{ NOTE_B3, 109 }, 
	{ NOTE_REST, 328 }, 
	{ NOTE_B3, 109 }, 
	{ NOTE_REST, 332 }, 
	{ NOTE_E4, 109 }, 
	{ NOTE_REST, 109 }, 
	{ NOTE_G4, 109 }, 
	{ NOTE_REST, 109 }, 
	{ NOTE_E4, 109 }, 
	{ NOTE_REST, 109 }, 
	{ NOTE_G4, 109 }, 
	{ NOTE_REST, 109 }, 
	{ NOTE_E4, 109 }, 
	{ NOTE_REST, 109 }, 
	{ NOTE_G4, 109 }, 
	{ NOTE_REST, 109 }, 
	{ NOTE_E4, 109 }, 
	{ NOTE_REST, 109 }, 
	{ NOTE_G4, 109 }, 
	{ NOTE_REST, 117 }, 
	{ NOTE_E4, 109 }, 
	{ NOTE_REST, 109 }, 
	{ NOTE_G4, 109 }, 
	{ NOTE_REST, 109 }, 
	{ NOTE_E4, 109 }, 
	{ NOTE_REST, 109 }, 
	{ NOTE_G4, 109 }, 
	{ NOTE_REST, 109 }, 
	{ NOTE_E4, 109 }, 
	{ NOTE_REST, 109 }, 
	{ NOTE_G4, 109 }, 
	{ NOTE_REST, 109 }, 
	{ NOTE_E4, 109 }, 
	{ NOTE_REST, 109 }, 
	{ NOTE_G4, 109 }, 
	{ NOTE_REST, 117 }, 
	{ NOTE_E4, 109 }, 
	{ NOTE_REST, 109 }, 
	{ NOTE_G4, 109 }, 
	{ NOTE_REST, 109 }, 
	{ NOTE_E4, 109 }, 
	{ NOTE_REST, 109 }, 
	{ NOTE_G4, 109 }, 
	{ NOTE_REST, 109 }, 
	{ NOTE_E4, 109 }, 
	{ NOTE_REST, 109 }, 
	{ NOTE_G4, 109 }, 
	{ NOTE_REST, 109 }, 
	{ NOTE_E4, 109 }, 
	{ NOTE_REST, 109 }, 
	{ NOTE_G4, 109 }, 
	{ NOTE_REST, 117 }, 
	{ NOTE_E4, 109 }, 
	{ NOTE_REST, 109 }, 
	{ NOTE_E4, 109 }, 
	{ NOTE_REST, 109 }, 
	{ NOTE_E4, 109 }, 
	{ NOTE_REST, 109 }, 
	{ NOTE_E4, 109 }, 
	{ NOTE_REST, 109 }, 
	{ NOTE_E4, 109 }, 
	{ NOTE_REST, 109 }, 
	{ NOTE_E4, 109 }, 
	{ NOTE_REST, 109 }, 
	{ NOTE_E4, 109 }, 
	{ NOTE_REST, 109 }, 
	{ NOTE_E4, 109 }, 
	{ NOTE_REST, 117 }, 
	{ NOTE_E4, 109 }, 
	{ NOTE_REST, 109 }, 
	{ NOTE_E4, 109 }, 
	{ NOTE_REST, 109 }, 
	{ NOTE_E4, 109 }, 
	{ NOTE_REST, 109 }, 
	{ NOTE_E4, 109 }, 
	{ NOTE_REST, 109 }, 
	{ NOTE_E4, 109 }, 
	{ NOTE_REST, 109 }, 
	{ NOTE_G4, 109 }, 
	{ NOTE_REST, 109 }, 
	{ NOTE_E4, 109 }, 
	{ NOTE_REST, 109 }, 
	{ NOTE_G4, 109 }, 
	{ NOTE_REST, 117 }, 
	{ NOTE_G4, 109 }, 
	{ NOTE_REST, 328 }, 
	{ NOTE_G4, 109 }, 
	{ NOTE_REST, 328 }, 
	{ NOTE_G4, 109 }, 
	{ NOTE_REST, 328 }, 
	{ NOTE_G4, 109 }, 
	{ NOTE_REST, 332 }, 
	{ NOTE_G4, 109 }, 
	{ NOTE_REST, 328 }, 
	{ NOTE_G4, 109 }, 
	{ NOTE_REST, 328 }, 
	{ NOTE_G4, 109 }, 
	{ NOTE_REST, 328 }, 
	{ NOTE_G4, 109 }, 
	{ NOTE_REST, 332 }, 
	{ NOTE_G4, 109 }, 
	{ NOTE_REST, 328 }, 
	{ NOTE_G4, 109 }, 
	{ NOTE_REST, 328 }, 
	{ NOTE_G4, 109 }, 
	{ NOTE_REST, 328 }, 
	{ NOTE_G4, 109 }, 
	{ NOTE_REST, 332 }, 
	{ NOTE_G4, 109 }, 
	{ NOTE_REST, 328 }, 
	{ NOTE_G4, 109 }, 
	{ NOTE_REST, 328 }, 
	{ NOTE_G4, 109 }, 
	{ NOTE_REST, 328 }, 
	{ NOTE_G4, 109 }, 
	{ NOTE_REST, 332 }, 
	{ NOTE_G4, 109 }, 
	{ NOTE_REST, 328 }, 
	{ NOTE_G4, 109 }, 
	{ NOTE_REST, 328 }, 
	{ NOTE_G4, 109 }, 
	{ NOTE_REST, 328 }, 
	{ NOTE_G4, 109 }, 
	{ NOTE_REST, 332 }, 
	{ NOTE_G4, 109 }, 
	{ NOTE_REST, 328 }, 
	{ NOTE_G4, 109 }, 
	{ NOTE_REST, 328 }, 
	{ NOTE_G4, 109 }, 
	{ NOTE_REST, 328 }, 
	{ NOTE_G4, 109 }, 
	{ NOTE_REST, 332 }, 
	{ NOTE_G4, 109 }, 
	{ NOTE_REST, 328 }, 
	{ NOTE_G4, 109 }, 
	{ NOTE_REST, 328 }, 
	{ NOTE_G4, 109 }, 
	{ NOTE_REST, 328 }, 
	{ NOTE_G4, 109 }, 
	{ NOTE_REST, 332 }, 
	{ NOTE_G4, 109 }, 
	{ NOTE_REST, 328 }, 
	{ NOTE_G4, 109 }, 
	{ NOTE_REST, 328 }, 
	{ NOTE_G4, 109 }, 
	{ NOTE_REST, 328 }, 
	{ NOTE_G4, 109 }, 
	{ NOTE_REST, 332 }, 
	{ NOTE_B3, 109 }, 
	{ NOTE_REST, 328 }, 
	{ NOTE_B3, 109 }, 
	{ NOTE_REST, 328 }, 
	{ NOTE_B3, 109 }, 
	{ NOTE_REST, 328 }, 
	{ NOTE_B3, 109 }, 
	{ NOTE_REST, 332 }, 
	{ NOTE_B3, 109 }, 
	{ NOTE_REST, 328 }, 
	{ NOTE_B3, 109 }, 
	{ NOTE_REST, 328 }, 
	{ NOTE_B3, 109 }, 
	{ NOTE_REST, 328 }, 
	{ NOTE_B3, 109 }, 
	{ NOTE_REST, 332 }, 
	{ NOTE_B3, 109 }, 
	{ NOTE_REST, 328 }, 
	{ NOTE_B3, 109 }, 
	{ NOTE_REST, 328 }, 
	{ NOTE_B3, 109 }, 
	{ NOTE_REST, 328 }, 
	{ NOTE_B3, 109 }, 
	{ NOTE_REST, 332 }, 
	{ NOTE_C4, 109 }, 
	{ NOTE_REST, 328 }, 
	{ NOTE_C4, 109 }, 
	{ NOTE_REST, 328 }, 
	{ NOTE_C4, 109 }, 
	{ NOTE_REST, 328 }, 
	{ NOTE_C4, 109 }, 
	{ NOTE_REST, 332 }, 
	{ NOTE_C4, 109 }, 
	{ NOTE_REST, 328 }, 
	{ NOTE_C4, 109 }, 
	{ NOTE_REST, 328 }, 
	{ NOTE_B3, 109 }, 
	{ NOTE_REST, 328 }, 
	{ NOTE_B3, 109 }, 
	{ NOTE_REST, 332 }, 
	{ NOTE_B3, 109 }, 
	{ NOTE_REST, 328 }, 
	{ NOTE_G3, 109 }, 
	{ NOTE_REST, 328 }, 
	{ NOTE_B3, 109 }, 
	{ NOTE_REST, 328 }, 
	{ NOTE_G3, 109 }, 
	{ NOTE_REST, 332 }, 
	{ NOTE_B3, 109 }, 
	{ NOTE_REST, 328 }, 
	{ NOTE_G3, 109 }, 
	{ NOTE_REST, 328 }, 
	{ NOTE_B3, 109 }, 
	{ NOTE_REST, 328 }, 
	{ NOTE_G3, 109 }, 
	{ NOTE_REST, 332 }, 
	{ NOTE_B3, 109 }, 
	{ NOTE_REST, 328 }, 
	{ NOTE_G3, 109 }, 
	{ NOTE_REST, 328 }, 
	{ NOTE_B3, 109 }, 
	{ NOTE_REST, 328 }, 
	{ NOTE_G3, 109 }, 
	{ NOTE_REST, 332 }, 
	{ NOTE_C4, 109 }, 
	{ NOTE_REST, 328 }, 
	{ NOTE_G3, 109 }, 
	{ NOTE_REST, 328 }, 
	{ NOTE_C4, 109 }, 
	{ NOTE_REST, 328 }, 
	{ NOTE_G3, 109 }, 
	{ NOTE_REST, 332 }, 
	{ NOTE_C4, 109 }, 
	{ NOTE_REST, 328 }, 
	{ NOTE_G3, 109 }, 
	{ NOTE_REST, 328 }, 
	{ NOTE_B3, 109 }, 
	{ NOTE_REST, 328 }, 
	{ NOTE_G3, 109 }, 
	{ NOTE_REST, 332 }, 
	{ NOTE_G4, 109 }, 
	{ NOTE_REST, 328 }, 
	{ NOTE_G4, 109 }, 
	{ NOTE_REST, 328 }, 
	{ NOTE_G4, 109 }, 
	{ NOTE_REST, 328 }, 
	{ NOTE_G4, 109 }, 
	{ NOTE_REST, 332 }, 
	{ NOTE_G4, 109 }, 
	{ NOTE_REST, 328 }, 
	{ NOTE_G4, 109 }, 
	{ NOTE_REST, 328 }, 
	{ NOTE_G4, 109 }, 
	{ NOTE_REST, 328 }, 
	{ NOTE_G4, 109 }, 
	{ NOTE_REST, 332 }, 
	{ NOTE_G4, 109 }, 
	{ NOTE_REST, 328 }, 
	{ NOTE_G4, 109 }, 
	{ NOTE_REST, 328 }, 
	{ NOTE_G4, 109 }, 
	{ NOTE_REST, 328 }, 
	{ NOTE_G4, 109 }, 
	{ NOTE_REST, 332 }, 
	{ NOTE_G4, 109 }, 
	{ NOTE_REST, 328 }, 
	{ NOTE_G4, 109 }, 
	{ NOTE_REST, 328 }, 
	{ NOTE_G4, 109 }, 
	{ NOTE_REST, 328 }, 
	{ NOTE_G4, 109 }, 
	{ NOTE_REST, 332 }, 
	{ NOTE_G4, 109 }, 
	{ NOTE_REST, 328 }, 
	{ NOTE_G4, 109 }, 
	{ NOTE_REST, 328 }, 
	{ NOTE_G4, 109 }, 
	{ NOTE_REST, 328 }, 
	{ NOTE_G4, 109 }, 
	{ NOTE_REST, 332 }, 
	{ NOTE_G4, 109 }, 
	{ NOTE_REST, 328 }, 
	{ NOTE_G4, 109 }, 
	{ NOTE_REST, 328 }, 
	{ NOTE_G4, 109 }, 
	{ NOTE_REST, 328 }, 
	{ NOTE_G4, 109 }, 
	{ NOTE_REST, 332 }, 
	{ NOTE_G4, 109 }, 
	{ NOTE_REST, 328 }, 
	{ NOTE_G4, 109 }, 
	{ NOTE_REST, 328 }, 
	{ NOTE_G4, 109 }, 
	{ NOTE_REST, 328 }, 
	{ NOTE_G4, 109 }, 
	{ NOTE_REST, 332 }, 
	{ NOTE_G4, 109 }, 
	{ NOTE_REST, 328 }, 
	{ NOTE_G4, 109 }, 
	{ NOTE_REST, 328 }, 
	{ NOTE_G4, 109 }, 
	{ NOTE_REST, 328 }, 
	{ NOTE_G4, 109 }, 
	{ NOTE_REST, 332 }, 
	{ NOTE_C4, 109 }, 
	{ NOTE_REST, 328 }, 
	{ NOTE_C4, 109 }, 
	{ NOTE_REST, 328 }, 
	{ NOTE_C4, 109 }, 
	{ NOTE_REST, 328 }, 
	{ NOTE_C4, 109 }, 
	{ NOTE_REST, 332 }, 
	{ NOTE_C4, 109 }, 
	{ NOTE_REST, 328 }, 
	{ NOTE_C4, 109 }, 
	{ NOTE_REST, 328 }, 
	{ NOTE_C4, 109 }, 
	{ NOTE_REST, 328 }, 
	{ NOTE_C4, 109 }, 
	{ NOTE_REST, 332 }, 
	{ NOTE_B3, 109 }, 
	{ NOTE_REST, 328 }, 
	{ NOTE_B3, 109 }, 
	{ NOTE_REST, 328 }, 
	{ NOTE_B3, 109 }, 
	{ NOTE_REST, 328 }, 
	{ NOTE_B3, 109 }, 
	{ NOTE_REST, 332 }, 
	{ NOTE_B3, 109 }, 
	{ NOTE_REST, 328 }, 
	{ NOTE_B3, 109 }, 
	{ NOTE_REST, 328 }, 
	{ NOTE_B3, 109 }, 
	{ NOTE_REST, 328 }, 
	{ NOTE_B3, 109 }, 
	{ NOTE_REST, 332 }, 
	{ NOTE_C4, 109 }, 
	{ NOTE_REST, 328 }, 
	{ NOTE_C4, 109 }, 
	{ NOTE_REST, 328 }, 
	{ NOTE_C4, 109 }, 
	{ NOTE_REST, 328 }, 
	{ NOTE_C4, 109 }, 
	{ NOTE_REST, 332 }, 
	{ NOTE_C4, 109 }, 
	{ NOTE_REST, 328 }, 
	{ NOTE_C4, 109 }, 
	{ NOTE_REST, 328 }, 
	{ NOTE_C4, 109 }, 
	{ NOTE_REST, 328 }, 
	{ NOTE_C4, 109 }, 
	{ NOTE_REST, 332 }, 
	{ NOTE_B3, 109 }, 
	{ NOTE_REST, 328 }, 
	{ NOTE_B3, 109 }, 
	{ NOTE_REST, 328 }, 
	{ NOTE_B3, 109 }, 
	{ NOTE_REST, 328 }, 
	{ NOTE_B3, 109 }, 
	{ NOTE_REST, 332 }, 
	{ NOTE_B3, 109 }, 
	{ NOTE_REST, 328 }, 
	{ NOTE_B3, 109 }, 
	{ NOTE_REST, 328 }, 
	{ NOTE_B3, 109 }, 
	{ NOTE_REST, 328 }, 
	{ NOTE_B3, 109 }, 
	{ NOTE_REST, 332 }, 
	{ NOTE_REST, 1752 }, 
	{ NOTE_REST, 438 }, 
	{ NOTE_REST, 219 }, 
	{ NOTE_B4, 876 }, 
	{ NOTE_A4, 876 }, 
	{ NOTE_G4, 876 }, 
	{ NOTE_C4, 1971 }, 
	{ NOTE_C4, 657 }, 
	{ NOTE_E4, 876 }, 
	{ NOTE_REST, 219 }, 
	{ NOTE_G4, 109 }, 
	{ NOTE_REST, 328 }, 
	{ NOTE_G4, 109 }, 
	{ NOTE_REST, 328 }, 
	{ NOTE_G4, 109 }, 
	{ NOTE_REST, 328 }, 
	{ NOTE_G4, 109 }, 
	{ NOTE_REST, 332 }, 
	{ NOTE_G4, 109 }, 
	{ NOTE_REST, 328 }, 
	{ NOTE_G4, 109 }, 
	{ NOTE_REST, 328 }, 
	{ NOTE_G4, 109 }, 
	{ NOTE_REST, 328 }, 
	{ NOTE_G4, 109 }, 
	{ NOTE_REST, 332 }, 
	{ NOTE_G4, 109 }, 
	{ NOTE_REST, 328 }, 
	{ NOTE_G4, 109 }, 
	{ NOTE_REST, 328 }, 
	{ NOTE_G4, 109 }, 
	{ NOTE_REST, 328 }, 
	{ NOTE_G4, 109 }, 
	{ NOTE_REST, 332 }, 
	{ NOTE_A4, 109 }, 
	{ NOTE_REST, 328 }, 
	{ NOTE_A4, 109 }, 
	{ NOTE_REST, 328 }, 
	{ NOTE_A4, 109 }, 
	{ NOTE_REST, 328 }, 
	{ NOTE_A4, 109 }, 
	{ NOTE_REST, 332 }, 
	{ NOTE_A4, 109 }, 
	{ NOTE_REST, 328 }, 
	{ NOTE_A4, 109 }, 
	{ NOTE_REST, 328 }, 
	{ NOTE_G4, 109 }, 
	{ NOTE_REST, 328 }, 
	{ NOTE_G4, 109 }, 
	{ NOTE_REST, 332 }, 
	{ NOTE_G4, 109 }, 
	{ NOTE_REST, 328 }, 
	{ NOTE_G4, 109 }, 
	{ NOTE_REST, 328 }, 
	{ NOTE_G4, 109 }, 
	{ NOTE_REST, 328 }, 
	{ NOTE_G4, 109 }, 
	{ NOTE_REST, 332 }, 
	{ NOTE_G4, 109 }, 
	{ NOTE_REST, 328 }, 
	{ NOTE_G4, 109 }, 
	{ NOTE_REST, 328 }, 
	{ NOTE_G4, 109 }, 
	{ NOTE_REST, 328 }, 
	{ NOTE_G4, 109 }, 
	{ NOTE_REST, 332 }, 
	{ NOTE_G4, 109 }, 
	{ NOTE_REST, 328 }, 
	{ NOTE_G4, 109 }, 
	{ NOTE_REST, 328 }, 
	{ NOTE_G4, 109 }, 
	{ NOTE_REST, 328 }, 
	{ NOTE_G4, 109 }, 
	{ NOTE_REST, 332 }, 
	{ NOTE_G4, 109 }, 
	{ NOTE_REST, 328 }, 
	{ NOTE_G4, 109 }, 
	{ NOTE_REST, 328 }, 
	{ NOTE_G4, 109 }, 
	{ NOTE_REST, 328 }, 
	{ NOTE_G4, 109 }, 
	{ NOTE_REST, 332 }, 
	{ NOTE_G4, 109 }, 
	{ NOTE_REST, 328 }, 
	{ NOTE_G4, 109 }, 
	{ NOTE_REST, 328 }, 
	{ NOTE_G4, 109 }, 
	{ NOTE_REST, 328 }, 
	{ NOTE_G4, 109 }, 
	{ NOTE_REST, 332 }, 
	{ NOTE_G4, 109 }, 
	{ NOTE_REST, 328 }, 
	{ NOTE_G4, 109 }, 
	{ NOTE_REST, 328 }, 
	{ NOTE_G4, 109 }, 
	{ NOTE_REST, 328 }, 
	{ NOTE_G4, 109 }, 
	{ NOTE_REST, 332 }, 
	{ NOTE_G4, 109 }, 
	{ NOTE_REST, 328 }, 
	{ NOTE_G4, 109 }, 
	{ NOTE_REST, 328 }, 
	{ NOTE_G4, 109 }, 
	{ NOTE_REST, 328 }, 
	{ NOTE_G4, 109 }, 
	{ NOTE_REST, 332 }, 
	{ NOTE_E4, 109 }, 
	{ NOTE_REST, 328 }, 
	{ NOTE_FS4, 109 }, 
	{ NOTE_REST, 328 }, 
	{ NOTE_G4, 109 }, 
	{ NOTE_REST, 328 }, 
	{ NOTE_FS4, 109 }, 
	{ NOTE_REST, 332 }, 
	{ NOTE_E4, 1314 }, 
	{ NOTE_REST, 438 }, 
};
const uint16_t NUM_OF_NOTES2 = sizeof(melody2)/sizeof(melody2[0]);

const Note melody3[] PROGMEM = {
	{ NOTE_E4, 109 }, 
	{ NOTE_REST, 328 }, 
	{ NOTE_E4, 109 }, 
	{ NOTE_REST, 328 }, 
	{ NOTE_E4, 109 }, 
	{ NOTE_REST, 328 }, 
	{ NOTE_E4, 109 }, 
	{ NOTE_REST, 332 }, 
	{ NOTE_E4, 109 }, 
	{ NOTE_REST, 328 }, 
	{ NOTE_E4, 109 }, 
	{ NOTE_REST, 328 }, 
	{ NOTE_E4, 109 }, 
	{ NOTE_REST, 328 }, 
	{ NOTE_E4, 109 }, 
	{ NOTE_REST, 332 }, 
	{ NOTE_E4, 109 }, 
	{ NOTE_REST, 328 }, 
	{ NOTE_E4, 109 }, 
	{ NOTE_REST, 328 }, 
	{ NOTE_E4, 109 }, 
	{ NOTE_REST, 328 }, 
	{ NOTE_E4, 109 }, 
	{ NOTE_REST, 332 }, 
	{ NOTE_E4, 109 }, 
	{ NOTE_REST, 328 }, 
	{ NOTE_E4, 109 }, 
	{ NOTE_REST, 328 }, 
	{ NOTE_E4, 109 }, 
	{ NOTE_REST, 328 }, 
	{ NOTE_E4, 109 }, 
	{ NOTE_REST, 332 }, 
	{ NOTE_E4, 109 }, 
	{ NOTE_REST, 328 }, 
	{ NOTE_E4, 109 }, 
	{ NOTE_REST, 328 }, 
	{ NOTE_E4, 109 }, 
	{ NOTE_REST, 328 }, 
	{ NOTE_E4, 109 }, 
	{ NOTE_REST, 332 }, 
	{ NOTE_E4, 109 }, 
	{ NOTE_REST, 328 }, 
	{ NOTE_E4, 109 }, 
	{ NOTE_REST, 328 }, 
	{ NOTE_E4, 109 }, 
	{ NOTE_REST, 328 }, 
	{ NOTE_E4, 109 }, 
	{ NOTE_REST, 332 }, 
	{ NOTE_E4, 109 }, 
	{ NOTE_REST, 328 }, 
	{ NOTE_E4, 109 }, 
	{ NOTE_REST, 328 }, 
	{ NOTE_E4, 109 }, 
	{ NOTE_REST, 328 }, 
	{ NOTE_E4, 109 }, 
	{ NOTE_REST, 332 }, 
	{ NOTE_E4, 109 }, 
	{ NOTE_REST, 328 }, 
	{ NOTE_E4, 109 }, 
	{ NOTE_REST, 328 }, 
	{ NOTE_E4, 109 }, 
	{ NOTE_REST, 328 }, 
	{ NOTE_E4, 109 }, 
	{ NOTE_REST, 332 }, 
	{ NOTE_E4, 109 }, 
	{ NOTE_REST, 328 }, 
	{ NOTE_E4, 109 }, 
	{ NOTE_REST, 328 }, 
	{ NOTE_E4, 109 }, 
	{ NOTE_REST, 328 }, 
	{ NOTE_E4, 109 }, 
	{ NOTE_REST, 332 }, 
	{ NOTE_E4, 109 }, 
	{ NOTE_REST, 328 }, 
	{ NOTE_E4, 109 }, 
	{ NOTE_REST, 328 }, 
	{ NOTE_E4, 109 }, 
	{ NOTE_REST, 328 }, 
	{ NOTE_E4, 109 }, 
	{ NOTE_REST, 332 }, 
	{ NOTE_E4, 109 }, 
	{ NOTE_REST, 328 }, 
	{ NOTE_E4, 109 }, 
	{ NOTE_REST, 328 }, 
	{ NOTE_E4, 109 }, 
	{ NOTE_REST, 328 }, 
	{ NOTE_E4, 109 }, 
	{ NOTE_REST, 332 }, 
	{ NOTE_E4, 109 }, 
	{ NOTE_REST, 328 }, 
	{ NOTE_E4, 109 }, 
	{ NOTE_REST, 328 }, 
	{ NOTE_E4, 109 }, 
	{ NOTE_REST, 328 }, 
	{ NOTE_E4, 109 }, 
	{ NOTE_REST, 332 }, 
	{ NOTE_E4, 109 }, 
	{ NOTE_REST, 328 }, 
	{ NOTE_E4, 109 }, 
	{ NOTE_REST, 328 }, 
	{ NOTE_E4, 109 }, 
	{ NOTE_REST, 328 }, 
	{ NOTE_E4, 109 }, 
	{ NOTE_REST, 332 }, 
	{ NOTE_G4, 109 }, 
	{ NOTE_REST, 109 }, 
	{ NOTE_B4, 109 }, 
	{ NOTE_REST, 109 }, 
	{ NOTE_G4, 109 }, 
	{ NOTE_REST, 109 }, 
	{ NOTE_B4, 109 }, 
	{ NOTE_REST, 109 }, 
	{ NOTE_G4, 109 }, 
	{ NOTE_REST, 109 }, 
	{ NOTE_B4, 109 }, 
	{ NOTE_REST, 109 }, 
	{ NOTE_G4, 109 }, 
	{ NOTE_REST, 109 }, 
	{ NOTE_B4, 109 }, 
	{ NOTE_REST, 117 }, 
	{ NOTE_G4, 109 }, 
	{ NOTE_REST, 109 }, 
	{ NOTE_B4, 109 }, 
	{ NOTE_REST, 109 }, 
	{ NOTE_G4, 109 }, 
	{ NOTE_REST, 109 }, 
	{ NOTE_B4, 109 }, 
	{ NOTE_REST, 109 }, 
	{ NOTE_G4, 109 }, 
	{ NOTE_REST, 109 }, 
	{ NOTE_B4, 109 }, 
	{ NOTE_REST, 109 }, 
	{ NOTE_G4, 109 }, 
	{ NOTE_REST, 109 }, 
	{ NOTE_B4, 109 }, 
	{ NOTE_REST, 117 }, 
	{ NOTE_G4, 109 }, 
	{ NOTE_REST, 109 }, 
	{ NOTE_B4, 109 }, 
	{ NOTE_REST, 109 }, 
	{ NOTE_G4, 109 }, 
	{ NOTE_REST, 109 }, 
	{ NOTE_B4, 109 }, 
	{ NOTE_REST, 109 }, 
	{ NOTE_G4, 109 }, 
	{ NOTE_REST, 109 }, 
	{ NOTE_B4, 109 }, 
	{ NOTE_REST, 109 }, 
	{ NOTE_G4, 109 }, 
	{ NOTE_REST, 109 }, 
	{ NOTE_B4, 109 }, 
	{ NOTE_REST, 117 }, 
	{ NOTE_C5, 109 }, 
	{ NOTE_REST, 109 }, 
	{ NOTE_C5, 109 }, 
	{ NOTE_REST, 109 }, 
	{ NOTE_C5, 109 }, 
	{ NOTE_REST, 109 }, 
	{ NOTE_C5, 109 }, 
	{ NOTE_REST, 109 }, 
	{ NOTE_C5, 109 }, 
	{ NOTE_REST, 109 }, 
	{ NOTE_C5, 109 }, 
	{ NOTE_REST, 109 }, 
	{ NOTE_C5, 109 }, 
	{ NOTE_REST, 109 }, 
	{ NOTE_C5, 109 }, 
	{ NOTE_REST, 117 }, 
	{ NOTE_C5, 109 }, 
	{ NOTE_REST, 109 }, 
	{ NOTE_C5, 109 }, 
	{ NOTE_REST, 109 }, 
	{ NOTE_C5, 109 }, 
	{ NOTE_REST, 109 }, 
	{ NOTE_C5, 109 }, 
	{ NOTE_REST, 109 }, 
	{ NOTE_B4, 109 }, 
	{ NOTE_REST, 109 }, 
	{ NOTE_B4, 109 }, 
	{ NOTE_REST, 109 }, 
	{ NOTE_B4, 109 }, 
	{ NOTE_REST, 109 }, 
	{ NOTE_B4, 109 }, 
	{ NOTE_REST, 117 }, 
	{ NOTE_B4, 109 }, 
	{ NOTE_REST, 328 }, 
	{ NOTE_B4, 109 }, 
	{ NOTE_REST, 328 }, 
	{ NOTE_B4, 109 }, 
	{ NOTE_REST, 328 }, 
	{ NOTE_B4, 109 }, 
	{ NOTE_REST, 332 }, 
	{ NOTE_B4, 109 }, 
	{ NOTE_REST, 328 }, 
	{ NOTE_B4, 109 }, 
	{ NOTE_REST, 328 }, 
	{ NOTE_B4, 109 }, 
	{ NOTE_REST, 328 }, 
	{ NOTE_B4, 109 }, 
	{ NOTE_REST, 332 }, 
	{ NOTE_B4, 109 }, 
	{ NOTE_REST, 328 }, 
	{ NOTE_B4, 109 }, 
	{ NOTE_REST, 328 }, 
	{ NOTE_B4, 109 }, 
	{ NOTE_REST, 328 }, 
	{ NOTE_B4, 109 }, 
	{ NOTE_REST, 332 }, 
	{ NOTE_B4, 109 }, 
	{ NOTE_REST, 328 }, 
	{ NOTE_B4, 109 }, 
	{ NOTE_REST, 328 }, 
	{ NOTE_B4, 109 }, 
	{ NOTE_REST, 328 }, 
	{ NOTE_B4, 109 }, 
	{ NOTE_REST, 332 }, 
	{ NOTE_B4, 109 }, 
	{ NOTE_REST, 328 }, 
	{ NOTE_B4, 109 }, 
	{ NOTE_REST, 328 }, 
	{ NOTE_B4, 109 }, 
	{ NOTE_REST, 328 }, 
	{ NOTE_B4, 109 }, 
	{ NOTE_REST, 332 }, 
	{ NOTE_B4, 109 }, 
	{ NOTE_REST, 328 }, 
	{ NOTE_B4, 109 }, 
	{ NOTE_REST, 328 }, 
	{ NOTE_B4, 109 }, 
	{ NOTE_REST, 328 }, 
	{ NOTE_B4, 109 }, 
	{ NOTE_REST, 332 }, 
	{ NOTE_B4, 109 }, 
	{ NOTE_REST, 328 }, 
	{ NOTE_B4, 109 }, 
	{ NOTE_REST, 328 }, 
	{ NOTE_B4, 109 }, 
	{ NOTE_REST, 328 }, 
	{ NOTE_B4, 109 }, 
	{ NOTE_REST, 332 }, 
	{ NOTE_B4, 109 }, 
	{ NOTE_REST, 328 }, 
	{ NOTE_B4, 109 }, 
	{ NOTE_REST, 328 }, 
	{ NOTE_B4, 109 }, 
	{ NOTE_REST, 328 }, 
	{ NOTE_B4, 109 }, 
	{ NOTE_REST, 332 }, 
	{ NOTE_E4, 109 }, 
	{ NOTE_REST, 328 }, 
	{ NOTE_E4, 109 }, 
	{ NOTE_REST, 328 }, 
	{ NOTE_E4, 109 }, 
	{ NOTE_REST, 328 }, 
	{ NOTE_E4, 109 }, 
	{ NOTE_REST, 332 }, 
	{ NOTE_E4, 109 }, 
	{ NOTE_REST, 328 }, 
	{ NOTE_E4, 109 }, 
	{ NOTE_REST, 328 }, 
	{ NOTE_E4, 109 }, 
	{ NOTE_REST, 328 }, 
	{ NOTE_E4, 109 }, 
	{ NOTE_REST, 332 }, 
	{ NOTE_E4, 109 }, 
	{ NOTE_REST, 328 }, 
	{ NOTE_E4, 109 }, 
	{ NOTE_REST, 328 }, 
	{ NOTE_E4, 109 }, 
	{ NOTE_REST, 328 }, 
	{ NOTE_E4, 109 }, 
	{ NOTE_REST, 332 }, 
	{ NOTE_E4, 109 }, 
	{ NOTE_REST, 328 }, 
	{ NOTE_E4, 109 }, 
	{ NOTE_REST, 328 }, 
	{ NOTE_E4, 109 }, 
	{ NOTE_REST, 328 }, 
	{ NOTE_E4, 109 }, 
	{ NOTE_REST, 332 }, 
	{ NOTE_E4, 109 }, 
	{ NOTE_REST, 328 }, 
	{ NOTE_E4, 109 }, 
	{ NOTE_REST, 328 }, 
	{ NOTE_E4, 109 }, 
	{ NOTE_REST, 328 }, 
	{ NOTE_E4, 109 }, 
	{ NOTE_REST, 332 }, 
	{ NOTE_E4, 109 }, 
	{ NOTE_REST, 328 }, 
	{ NOTE_E4, 109 }, 
	{ NOTE_REST, 328 }, 
	{ NOTE_E4, 109 }, 
	{ NOTE_REST, 328 }, 
	{ NOTE_E4, 109 }, 
	{ NOTE_REST, 332 }, 
	{ NOTE_E4, 109 }, 
	{ NOTE_REST, 328 }, 
	{ NOTE_E4, 109 }, 
	{ NOTE_REST, 328 }, 
	{ NOTE_E4, 109 }, 
	{ NOTE_REST, 328 }, 
	{ NOTE_E4, 109 }, 
	{ NOTE_REST, 332 }, 
	{ NOTE_E4, 109 }, 
	{ NOTE_REST, 328 }, 
	{ NOTE_E4, 109 }, 
	{ NOTE_REST, 328 }, 
	{ NOTE_E4, 109 }, 
	{ NOTE_REST, 328 }, 
	{ NOTE_E4, 109 }, 
	{ NOTE_REST, 332 }, 
	{ NOTE_E4, 109 }, 
	{ NOTE_REST, 328 }, 
	{ NOTE_E4, 109 }, 
	{ NOTE_REST, 328 }, 
	{ NOTE_E4, 109 }, 
	{ NOTE_REST, 328 }, 
	{ NOTE_E4, 109 }, 
	{ NOTE_REST, 332 }, 
	{ NOTE_E4, 109 }, 
	{ NOTE_REST, 328 }, 
	{ NOTE_E4, 109 }, 
	{ NOTE_REST, 328 }, 
	{ NOTE_E4, 109 }, 
	{ NOTE_REST, 328 }, 
	{ NOTE_E4, 109 }, 
	{ NOTE_REST, 332 }, 
	{ NOTE_B4, 109 }, 
	{ NOTE_REST, 328 }, 
	{ NOTE_B4, 109 }, 
	{ NOTE_REST, 328 }, 
	{ NOTE_B4, 109 }, 
	{ NOTE_REST, 328 }, 
	{ NOTE_B4, 109 }, 
	{ NOTE_REST, 332 }, 
	{ NOTE_B4, 109 }, 
	{ NOTE_REST, 328 }, 
	{ NOTE_B4, 109 }, 
	{ NOTE_REST, 328 }, 
	{ NOTE_B4, 109 }, 
	{ NOTE_REST, 328 }, 
	{ NOTE_B4, 109 }, 
	{ NOTE_REST, 332 }, 
	{ NOTE_B4, 109 }, 
	{ NOTE_REST, 328 }, 
	{ NOTE_B4, 109 }, 
	{ NOTE_REST, 328 }, 
	{ NOTE_B4, 109 }, 
	{ NOTE_REST, 328 }, 
	{ NOTE_B4, 109 }, 
	{ NOTE_REST, 332 }, 
	{ NOTE_B4, 109 }, 
	{ NOTE_REST, 328 }, 
	{ NOTE_B4, 109 }, 
	{ NOTE_REST, 328 }, 
	{ NOTE_B4, 109 }, 
	{ NOTE_REST, 328 }, 
	{ NOTE_B4, 109 }, 
	{ NOTE_REST, 332 }, 
	{ NOTE_B4, 109 }, 
	{ NOTE_REST, 328 }, 
	{ NOTE_B4, 109 }, 
	{ NOTE_REST, 328 }, 
	{ NOTE_B4, 109 }, 
	{ NOTE_REST, 328 }, 
	{ NOTE_B4, 109 }, 
	{ NOTE_REST, 332 }, 
	{ NOTE_B4, 109 }, 
	{ NOTE_REST, 328 }, 
	{ NOTE_B4, 109 }, 
	{ NOTE_REST, 328 }, 
	{ NOTE_B4, 109 }, 
	{ NOTE_REST, 328 }, 
	{ NOTE_B4, 109 }, 
	{ NOTE_REST, 332 }, 
	{ NOTE_B4, 109 }, 
	{ NOTE_REST, 328 }, 
	{ NOTE_B4, 109 }, 
	{ NOTE_REST, 328 }, 
	{ NOTE_B4, 109 }, 
	{ NOTE_REST, 328 }, 
	{ NOTE_B4, 109 }, 
	{ NOTE_REST, 332 }, 
	{ NOTE_B4, 109 }, 
	{ NOTE_REST, 328 }, 
	{ NOTE_B4, 109 }, 
	{ NOTE_REST, 328 }, 
	{ NOTE_G4, 109 }, 
	{ NOTE_REST, 328 }, 
	{ NOTE_B4, 109 }, 
	{ NOTE_REST, 332 }, 
	{ NOTE_E4, 109 }, 
	{ NOTE_REST, 328 }, 
	{ NOTE_E4, 109 }, 
	{ NOTE_REST, 328 }, 
	{ NOTE_E4, 109 }, 
	{ NOTE_REST, 328 }, 
	{ NOTE_E4, 109 }, 
	{ NOTE_REST, 332 }, 
	{ NOTE_E4, 109 }, 
	{ NOTE_REST, 328 }, 
	{ NOTE_E4, 109 }, 
	{ NOTE_REST, 328 }, 
	{ NOTE_E4, 109 }, 
	{ NOTE_REST, 328 }, 
	{ NOTE_E4, 109 }, 
	{ NOTE_REST, 332 }, 
	{ NOTE_E4, 109 }, 
	{ NOTE_REST, 328 }, 
	{ NOTE_E4, 109 }, 
	{ NOTE_REST, 328 }, 
	{ NOTE_E4, 109 }, 
	{ NOTE_REST, 328 }, 
	{ NOTE_E4, 109 }, 
	{ NOTE_REST, 332 }, 
	{ NOTE_E4, 109 }, 
	{ NOTE_REST, 328 }, 
	{ NOTE_E4, 109 }, 
	{ NOTE_REST, 328 }, 
	{ NOTE_E4, 109 }, 
	{ NOTE_REST, 328 }, 
	{ NOTE_E4, 109 }, 
	{ NOTE_REST, 332 }, 
	{ NOTE_E4, 109 }, 
	{ NOTE_REST, 328 }, 
	{ NOTE_E4, 109 }, 
	{ NOTE_REST, 328 }, 
	{ NOTE_E4, 109 }, 
	{ NOTE_REST, 328 }, 
	{ NOTE_E4, 109 }, 
	{ NOTE_REST, 332 }, 
	{ NOTE_E4, 109 }, 
	{ NOTE_REST, 328 }, 
	{ NOTE_E4, 109 }, 
	{ NOTE_REST, 328 }, 
	{ NOTE_E4, 109 }, 
	{ NOTE_REST, 328 }, 
	{ NOTE_E4, 109 }, 
	{ NOTE_REST, 332 }, 
	{ NOTE_E4, 109 }, 
	{ NOTE_REST, 328 }, 
	{ NOTE_E4, 109 }, 
	{ NOTE_REST, 328 }, 
	{ NOTE_E4, 109 }, 
	{ NOTE_REST, 328 }, 
	{ NOTE_E4, 109 }, 
	{ NOTE_REST, 332 }, 
	{ NOTE_E4, 109 }, 
	{ NOTE_REST, 328 }, 
	{ NOTE_E4, 109 }, 
	{ NOTE_REST, 328 }, 
	{ NOTE_E4, 109 }, 
	{ NOTE_REST, 328 }, 
	{ NOTE_E4, 109 }, 
	{ NOTE_REST, 332 }, 
	{ NOTE_REST, 1752 }, 
	{ NOTE_REST, 438 }, 
	{ NOTE_REST, 219 }, 
	{ NOTE_B4, 876 }, 
	{ NOTE_A4, 876 }, 
	{ NOTE_G4, 876 }, 
	{ NOTE_A4, 1971 }, 
	{ NOTE_C4, 657 }, 
	{ NOTE_E4, 876 }, 
	{ NOTE_REST, 219 }, 
	{ NOTE_B4, 109 }, 
	{ NOTE_REST, 328 }, 
	{ NOTE_B4, 109 }, 
	{ NOTE_REST, 328 }, 
	{ NOTE_B4, 109 }, 
	{ NOTE_REST, 328 }, 
	{ NOTE_B4, 109 }, 
	{ NOTE_REST, 332 }, 
	{ NOTE_B4, 109 }, 
	{ NOTE_REST, 328 }, 
	{ NOTE_B4, 109 }, 
	{ NOTE_REST, 328 }, 
	{ NOTE_B4, 109 }, 
	{ NOTE_REST, 328 }, 
	{ NOTE_B4, 109 }, 
	{ NOTE_REST, 332 }, 
	{ NOTE_B4, 109 }, 
	{ NOTE_REST, 328 }, 
	{ NOTE_B4, 109 }, 
	{ NOTE_REST, 328 }, 
	{ NOTE_B4, 109 }, 
	{ NOTE_REST, 328 }, 
	{ NOTE_B4, 109 }, 
	{ NOTE_REST, 332 }, 
	{ NOTE_C5, 109 }, 
	{ NOTE_REST, 328 }, 
	{ NOTE_C5, 109 }, 
	{ NOTE_REST, 328 }, 
	{ NOTE_C5, 109 }, 
	{ NOTE_REST, 328 }, 
	{ NOTE_C5, 109 }, 
	{ NOTE_REST, 332 }, 
	{ NOTE_C5, 109 }, 
	{ NOTE_REST, 328 }, 
	{ NOTE_C5, 109 }, 
	{ NOTE_REST, 328 }, 
	{ NOTE_B4, 109 }, 
	{ NOTE_REST, 328 }, 
	{ NOTE_B4, 109 }, 
	{ NOTE_REST, 332 }, 
	{ NOTE_G4, 109 }, 
	{ NOTE_REST, 328 }, 
	{ NOTE_G4, 109 }, 
	{ NOTE_REST, 328 }, 
	{ NOTE_G4, 109 }, 
	{ NOTE_REST, 328 }, 
	{ NOTE_G4, 109 }, 
	{ NOTE_REST, 332 }, 
	{ NOTE_G4, 109 }, 
	{ NOTE_REST, 328 }, 
	{ NOTE_G4, 109 }, 
	{ NOTE_REST, 328 }, 
	{ NOTE_G4, 109 }, 
	{ NOTE_REST, 328 }, 
	{ NOTE_G4, 109 }, 
	{ NOTE_REST, 332 }, 
	{ NOTE_G4, 109 }, 
	{ NOTE_REST, 328 }, 
	{ NOTE_G4, 109 }, 
	{ NOTE_REST, 328 }, 
	{ NOTE_G4, 109 }, 
	{ NOTE_REST, 328 }, 
	{ NOTE_G4, 109 }, 
	{ NOTE_REST, 332 }, 
	{ NOTE_G4, 109 }, 
	{ NOTE_REST, 328 }, 
	{ NOTE_G4, 109 }, 
	{ NOTE_REST, 328 }, 
	{ NOTE_G4, 109 }, 
	{ NOTE_REST, 328 }, 
	{ NOTE_G4, 109 }, 
	{ NOTE_REST, 332 }, 
	{ NOTE_G4, 109 }, 
	{ NOTE_REST, 328 }, 
	{ NOTE_G4, 109 }, 
	{ NOTE_REST, 328 }, 
	{ NOTE_G4, 109 }, 
	{ NOTE_REST, 328 }, 
	{ NOTE_G4, 109 }, 
	{ NOTE_REST, 332 }, 
	{ NOTE_G4, 109 }, 
	{ NOTE_REST, 328 }, 
	{ NOTE_G4, 109 }, 
	{ NOTE_REST, 328 }, 
	{ NOTE_G4, 109 }, 
	{ NOTE_REST, 328 }, 
	{ NOTE_G4, 109 }, 
	{ NOTE_REST, 332 }, 
	{ NOTE_G4, 109 }, 
	{ NOTE_REST, 328 }, 
	{ NOTE_G4, 109 }, 
	{ NOTE_REST, 328 }, 
	{ NOTE_G4, 109 }, 
	{ NOTE_REST, 328 }, 
	{ NOTE_G4, 109 }, 
	{ NOTE_REST, 332 }, 
	{ NOTE_E4, 109 }, 
	{ NOTE_REST, 328 }, 
	{ NOTE_FS4, 109 }, 
	{ NOTE_REST, 328 }, 
	{ NOTE_G4, 109 }, 
	{ NOTE_REST, 328 }, 
	{ NOTE_FS4, 109 }, 
	{ NOTE_REST, 332 }, 
	{ NOTE_E4, 1314 }, 
	{ NOTE_REST, 438 }, 
};
const uint16_t NUM_OF_NOTES3 = sizeof(melody3)/sizeof(melody3[0]);

const Note melody4[] PROGMEM = {
	{ NOTE_REST, 219 }, 
	{ NOTE_G2, 219 }, 
	{ NOTE_B2, 219 }, 
	{ NOTE_C3, 1971 }, 
	{ NOTE_C3, 657 }, 
	{ NOTE_B2, 219 }, 
	{ NOTE_B2, 219 }, 
	{ NOTE_REST, 219 }, 
	{ NOTE_FS2, 109 }, 
	{ NOTE_FS2, 109 }, 
	{ NOTE_G2, 219 }, 
	{ NOTE_E2, 2410 }, 
	{ NOTE_REST, 219 }, 
	{ NOTE_C4, 219 }, 
	{ NOTE_G3, 219 }, 
	{ NOTE_E3, 219 }, 
	{ NOTE_C3, 2847 }, 
	{ NOTE_REST, 219 }, 
	{ NOTE_B2, 219 }, 
	{ NOTE_G2, 219 }, 
	{ NOTE_E2, 2847 }, 
	{ NOTE_E2, 109 }, 
	{ NOTE_REST, 328 }, 
	{ NOTE_E2, 109 }, 
	{ NOTE_REST, 328 }, 
	{ NOTE_E2, 109 }, 
	{ NOTE_REST, 328 }, 
	{ NOTE_E2, 109 }, 
	{ NOTE_REST, 332 }, 
	{ NOTE_E2, 109 }, 
	{ NOTE_REST, 328 }, 
	{ NOTE_E2, 109 }, 
	{ NOTE_REST, 328 }, 
	{ NOTE_E2, 109 }, 
	{ NOTE_REST, 328 }, 
	{ NOTE_E2, 109 }, 
	{ NOTE_REST, 332 }, 
	{ NOTE_E2, 109 }, 
	{ NOTE_REST, 328 }, 
	{ NOTE_E2, 109 }, 
	{ NOTE_REST, 328 }, 
	{ NOTE_E2, 109 }, 
	{ NOTE_REST, 328 }, 
	{ NOTE_E2, 109 }, 
	{ NOTE_REST, 332 }, 
	{ NOTE_C3, 109 }, 
	{ NOTE_REST, 328 }, 
	{ NOTE_G3, 109 }, 
	{ NOTE_REST, 328 }, 
	{ NOTE_C4, 109 }, 
	{ NOTE_REST, 328 }, 
	{ NOTE_G3, 109 }, 
	{ NOTE_REST, 332 }, 
	{ NOTE_C3, 109 }, 
	{ NOTE_REST, 328 }, 
	{ NOTE_C3, 109 }, 
	{ NOTE_REST, 328 }, 
	{ NOTE_E3, 109 }, 
	{ NOTE_REST, 328 }, 
	{ NOTE_E2, 109 }, 
	{ NOTE_REST, 332 }, 
	{ NOTE_E3, 109 }, 
	{ NOTE_REST, 328 }, 
	{ NOTE_E3, 109 }, 
	{ NOTE_REST, 328 }, 
	{ NOTE_E3, 109 }, 
	{ NOTE_REST, 328 }, 
	{ NOTE_E3, 109 }, 
	{ NOTE_REST, 332 }, 
	{ NOTE_E3, 109 }, 
	{ NOTE_REST, 328 }, 
	{ NOTE_E3, 109 }, 
	{ NOTE_REST, 328 }, 
	{ NOTE_E3, 109 }, 
	{ NOTE_REST, 328 }, 
	{ NOTE_E3, 109 }, 
	{ NOTE_REST, 332 }, 
	{ NOTE_E3, 109 }, 
	{ NOTE_REST, 328 }, 
	{ NOTE_E3, 109 }, 
	{ NOTE_REST, 328 }, 
	{ NOTE_D3, 109 }, 
	{ NOTE_REST, 328 }, 
	{ NOTE_D3, 109 }, 
	{ NOTE_REST, 332 }, 
	{ NOTE_C3, 109 }, 
	{ NOTE_REST, 328 }, 
	{ NOTE_G3, 109 }, 
	{ NOTE_REST, 328 }, 
	{ NOTE_C4, 109 }, 
	{ NOTE_REST, 328 }, 
	{ NOTE_G3, 109 }, 
	{ NOTE_REST, 332 }, 
	{ NOTE_C3, 109 }, 
	{ NOTE_REST, 328 }, 
	{ NOTE_D3, 109 }, 
	{ NOTE_REST, 328 }, 
	{ NOTE_E3, 109 }, 
	{ NOTE_REST, 328 }, 
	{ NOTE_E2, 109 }, 
	{ NOTE_REST, 332 }, 
	{ NOTE_E2, 3504 }, 
	{ NOTE_E2, 3504 }, 
	{ NOTE_E2, 3504 }, 
	{ NOTE_E2, 3066 }, 
	{ NOTE_REST, 438 }, 
	{ NOTE_E2, 109 }, 
	{ NOTE_REST, 328 }, 
	{ NOTE_E2, 109 }, 
	{ NOTE_REST, 328 }, 
	{ NOTE_E2, 109 }, 
	{ NOTE_REST, 328 }, 
	{ NOTE_E2, 109 }, 
	{ NOTE_REST, 332 }, 
	{ NOTE_E2, 109 }, 
	{ NOTE_REST, 328 }, 
	{ NOTE_E2, 109 }, 
	{ NOTE_REST, 328 }, 
	{ NOTE_E2, 109 }, 
	{ NOTE_REST, 328 }, 
	{ NOTE_E2, 109 }, 
	{ NOTE_REST, 332 }, 
	{ NOTE_E2, 109 }, 
	{ NOTE_REST, 328 }, 
	{ NOTE_E2, 109 }, 
	{ NOTE_REST, 328 }, 
	{ NOTE_E2, 109 }, 
	{ NOTE_REST, 328 }, 
	{ NOTE_E2, 109 }, 
	{ NOTE_REST, 332 }, 
	{ NOTE_C3, 219 }, 
	{ NOTE_D3, 219 }, 
	{ NOTE_E3, 219 }, 
	{ NOTE_FS3, 219 }, 
	{ NOTE_G3, 219 }, 
	{ NOTE_A3, 219 }, 
	{ NOTE_B3, 219 }, 
	{ NOTE_C4, 657 }, 
	{ NOTE_REST, 219 }, 
	{ NOTE_E3, 876 }, 
	{ NOTE_REST, 219 }, 
	{ NOTE_E2, 109 }, 
	{ NOTE_REST, 328 }, 
	{ NOTE_E2, 109 }, 
	{ NOTE_REST, 328 }, 
	{ NOTE_E2, 109 }, 
	{ NOTE_REST, 328 }, 
	{ NOTE_E2, 109 }, 
	{ NOTE_REST, 332 }, 
	{ NOTE_E2, 109 }, 
	{ NOTE_REST, 328 }, 
	{ NOTE_E2, 109 }, 
	{ NOTE_REST, 328 }, 
	{ NOTE_E2, 109 }, 
	{ NOTE_REST, 328 }, 
	{ NOTE_E2, 109 }, 
	{ NOTE_REST, 332 }, 
	{ NOTE_E2, 109 }, 
	{ NOTE_REST, 328 }, 
	{ NOTE_E2, 109 }, 
	{ NOTE_REST, 328 }, 
	{ NOTE_E2, 109 }, 
	{ NOTE_REST, 328 }, 
	{ NOTE_E2, 109 }, 
	{ NOTE_REST, 332 }, 
	{ NOTE_C3, 109 }, 
	{ NOTE_REST, 109 }, 
	{ NOTE_D3, 109 }, 
	{ NOTE_REST, 109 }, 
	{ NOTE_E3, 109 }, 
	{ NOTE_REST, 109 }, 
	{ NOTE_FS3, 109 }, 
	{ NOTE_REST, 109 }, 
	{ NOTE_G3, 109 }, 
	{ NOTE_REST, 109 }, 
	{ NOTE_A3, 109 }, 
	{ NOTE_REST, 109 }, 
	{ NOTE_B3, 109 }, 
	{ NOTE_REST, 109 }, 
	{ NOTE_C4, 664 }, 
	{ NOTE_REST, 219 }, 
	{ NOTE_E3, 1095 }, 
	{ NOTE_E2, 3504 }, 
	{ NOTE_E2, 3504 }, 
	{ NOTE_E2, 3504 }, 
	{ NOTE_E2, 3504 }, 
	{ NOTE_C3, 219 }, 
	{ NOTE_G2, 219 }, 
	{ NOTE_B2, 219 }, 
	{ NOTE_C3, 2409 }, 
	{ NOTE_C3, 219 }, 
	{ NOTE_B2, 219 }, 
	{ NOTE_B2, 219 }, 
	{ NOTE_REST, 219 }, 
	{ NOTE_REST, 219 }, 
	{ NOTE_G2, 219 }, 
	{ NOTE_E2, 2628 }, 
	{ NOTE_REST, 219 }, 
	{ NOTE_G3, 219 }, 
	{ NOTE_E3, 219 }, 
	{ NOTE_C3, 2847 }, 
	{ NOTE_REST, 219 }, 
	{ NOTE_B2, 219 }, 
	{ NOTE_G2, 219 }, 
	{ NOTE_E2, 2409 }, 
	{ NOTE_REST, 438 }, 
	{ NOTE_E2, 109 }, 
	{ NOTE_REST, 328 }, 
	{ NOTE_E2, 109 }, 
	{ NOTE_REST, 328 }, 
	{ NOTE_E2, 109 }, 
	{ NOTE_REST, 328 }, 
	{ NOTE_E2, 109 }, 
	{ NOTE_REST, 332 }, 
	{ NOTE_E2, 109 }, 
	{ NOTE_REST, 328 }, 
	{ NOTE_E2, 109 }, 
	{ NOTE_REST, 328 }, 
	{ NOTE_E2, 109 }, 
	{ NOTE_REST, 328 }, 
	{ NOTE_E2, 109 }, 
	{ NOTE_REST, 332 }, 
	{ NOTE_E2, 109 }, 
	{ NOTE_REST, 328 }, 
	{ NOTE_E2, 109 }, 
	{ NOTE_REST, 328 }, 
	{ NOTE_E2, 109 }, 
	{ NOTE_REST, 328 }, 
	{ NOTE_E2, 109 }, 
	{ NOTE_REST, 332 }, 
	{ NOTE_E2, 109 }, 
	{ NOTE_REST, 328 }, 
	{ NOTE_E2, 109 }, 
	{ NOTE_REST, 328 }, 
	{ NOTE_E2, 109 }, 
	{ NOTE_REST, 328 }, 
	{ NOTE_E2, 109 }, 
	{ NOTE_REST, 332 }, 
	{ NOTE_E2, 109 }, 
	{ NOTE_REST, 328 }, 
	{ NOTE_E2, 109 }, 
	{ NOTE_REST, 328 }, 
	{ NOTE_E2, 109 }, 
	{ NOTE_REST, 328 }, 
	{ NOTE_E2, 109 }, 
	{ NOTE_REST, 332 }, 
	{ NOTE_REST, 876 }, 
	{ NOTE_REST, 219 }, 
	{ NOTE_B2, 109 }, 
	{ NOTE_REST, 109 }, 
	{ NOTE_E3, 109 }, 
	{ NOTE_REST, 109 }, 
	{ NOTE_FS3, 109 }, 
	{ NOTE_REST, 112 }, 
	{ NOTE_G3, 109 }, 
	{ NOTE_REST, 109 }, 
	{ NOTE_A3, 109 }, 
	{ NOTE_REST, 109 }, 
	{ NOTE_B3, 109 }, 
	{ NOTE_REST, 109 }, 
	{ NOTE_D4, 438 }, 
	{ NOTE_CS4, 109 }, 
	{ NOTE_REST, 109 }, 
	{ NOTE_B3, 109 }, 
	{ NOTE_REST, 109 }, 
	{ NOTE_CS4, 443 }, 
	{ NOTE_B3, 109 }, 
	{ NOTE_REST, 109 }, 
	{ NOTE_A3, 109 }, 
	{ NOTE_REST, 109 }, 
	{ NOTE_B3, 438 }, 
	{ NOTE_A3, 109 }, 
	{ NOTE_REST, 109 }, 
	{ NOTE_G3, 109 }, 
	{ NOTE_REST, 109 }, 
	{ NOTE_A3, 1318 }, 
	{ NOTE_E3, 219 }, 
	{ NOTE_C3, 219 }, 
	{ NOTE_E3, 219 }, 
	{ NOTE_A2, 876 }, 
	{ NOTE_E2, 876 }, 
	{ NOTE_E2, 3504 }, 
	{ NOTE_E2, 3504 }, 
	{ NOTE_E2, 3504 }, 
	{ NOTE_E2, 1752 }, 
	{ NOTE_E3, 109 }, 
	{ NOTE_REST, 328 }, 
	{ NOTE_B2, 109 }, 
	{ NOTE_REST, 328 }, 
	{ NOTE_G2, 109 }, 
	{ NOTE_REST, 328 }, 
	{ NOTE_FS2, 109 }, 
	{ NOTE_REST, 332 }, 
	{ NOTE_E2, 1314 }, 
	{ NOTE_REST, 438 }, 
};
const uint16_t NUM_OF_NOTES4 = sizeof(melody4)/sizeof(melody4[0]);

