/*
 * Song: The Simpsons Theme
 *
 *	Melody 0 | Strings arco
 *	Melody 1 | Strings pizz
 *	Melody 2 | Strings pizz
 *	Melody 3 | Sax
 *	Melody 4 | Winds
*/

#include <Arduino.h>
#include "notes.h"

const Note melody0[] PROGMEM = {
	{ NOTE_REST, 2106 }, 
	{ NOTE_REST, 702 }, 
	{ NOTE_FS4, 702 }, 
	{ NOTE_G4, 2106 }, 
	{ NOTE_REST, 1404 }, 
	{ NOTE_E5, 2808 }, 
	{ NOTE_C5, 526 }, 
	{ NOTE_E5, 351 }, 
	{ NOTE_FS5, 351 }, 
	{ NOTE_A5, 176 }, 
	{ NOTE_G5, 526 }, 
	{ NOTE_E5, 351 }, 
	{ NOTE_C5, 351 }, 
	{ NOTE_A4, 176 }, 
	{ NOTE_FS4, 175 }, 
	{ NOTE_FS4, 175 }, 
	{ NOTE_FS4, 175 }, 
	{ NOTE_G4, 702 }, 
	{ NOTE_REST, 177 }, 
	{ NOTE_REST, 175 }, 
	{ NOTE_FS4, 175 }, 
	{ NOTE_FS4, 175 }, 
	{ NOTE_FS4, 175 }, 
	{ NOTE_G4, 175 }, 
	{ NOTE_AS4, 529 }, 
	{ NOTE_REST, 1404 }, 
	{ NOTE_REST, 1404 }, 
	{ NOTE_B3, 88 }, 
	{ NOTE_AS3, 88 }, 
	{ NOTE_B3, 88 }, 
	{ NOTE_CS4, 88 }, 
	{ NOTE_DS4, 88 }, 
	{ NOTE_CS4, 88 }, 
	{ NOTE_DS4, 88 }, 
	{ NOTE_F4, 88 }, 
	{ NOTE_FS4, 88 }, 
	{ NOTE_F4, 88 }, 
	{ NOTE_FS4, 88 }, 
	{ NOTE_GS4, 88 }, 
	{ NOTE_A4, 88 }, 
	{ NOTE_GS4, 88 }, 
	{ NOTE_A4, 88 }, 
	{ NOTE_B4, 84 }, 
	{ NOTE_F5, 88 }, 
	{ NOTE_DS5, 88 }, 
	{ NOTE_CS5, 88 }, 
	{ NOTE_B4, 88 }, 
	{ NOTE_DS5, 88 }, 
	{ NOTE_CS5, 88 }, 
	{ NOTE_B4, 88 }, 
	{ NOTE_A4, 88 }, 
	{ NOTE_CS5, 88 }, 
	{ NOTE_B4, 88 }, 
	{ NOTE_A4, 88 }, 
	{ NOTE_G4, 88 }, 
	{ NOTE_B4, 88 }, 
	{ NOTE_A4, 88 }, 
	{ NOTE_G4, 88 }, 
	{ NOTE_F4, 84 }, 
	{ NOTE_B3, 526 }, 
	{ NOTE_DS4, 351 }, 
	{ NOTE_F4, 351 }, 
	{ NOTE_DS5, 176 }, 
	{ NOTE_CS5, 526 }, 
	{ NOTE_B4, 351 }, 
	{ NOTE_A4, 351 }, 
	{ NOTE_F4, 176 }, 
	{ NOTE_REST, 175 }, 
	{ NOTE_REST, 175 }, 
	{ NOTE_REST, 175 }, 
	{ NOTE_REST, 175 }, 
	{ NOTE_REST, 704 }, 
	{ NOTE_B4, 88 }, 
	{ NOTE_DS5, 88 }, 
	{ NOTE_F5, 88 }, 
	{ NOTE_A5, 88 }, 
	{ NOTE_B5, 88 }, 
	{ NOTE_A5, 88 }, 
	{ NOTE_FS5, 88 }, 
	{ NOTE_DS5, 88 }, 
	{ NOTE_A5, 88 }, 
	{ NOTE_G5, 88 }, 
	{ NOTE_F5, 88 }, 
	{ NOTE_CS5, 88 }, 
	{ NOTE_G5, 88 }, 
	{ NOTE_F5, 88 }, 
	{ NOTE_DS5, 88 }, 
	{ NOTE_B4, 84 }, 
	{ NOTE_E4, 702 }, 
	{ NOTE_E4, 1404 }, 
	{ NOTE_FS4, 351 }, 
	{ NOTE_AS4, 351 }, 
	{ NOTE_GS4, 702 }, 
	{ NOTE_E4, 351 }, 
	{ NOTE_E4, 351 }, 
	{ NOTE_AS3, 88 }, 
	{ NOTE_GS5, 88 }, 
	{ NOTE_FS5, 88 }, 
	{ NOTE_E5, 88 }, 
	{ NOTE_GS5, 88 }, 
	{ NOTE_FS5, 88 }, 
	{ NOTE_E5, 88 }, 
	{ NOTE_D5, 88 }, 
	{ NOTE_FS5, 88 }, 
	{ NOTE_E5, 88 }, 
	{ NOTE_D5, 88 }, 
	{ NOTE_C5, 88 }, 
	{ NOTE_E5, 88 }, 
	{ NOTE_D5, 88 }, 
	{ NOTE_C5, 88 }, 
	{ NOTE_AS4, 84 }, 
	{ NOTE_E4, 175 }, 
	{ NOTE_FS4, 88 }, 
	{ NOTE_GS4, 88 }, 
	{ NOTE_AS4, 175 }, 
	{ NOTE_GS4, 88 }, 
	{ NOTE_FS4, 88 }, 
	{ NOTE_E4, 175 }, 
	{ NOTE_FS4, 88 }, 
	{ NOTE_GS4, 88 }, 
	{ NOTE_AS4, 175 }, 
	{ NOTE_GS4, 88 }, 
	{ NOTE_FS4, 88 }, 
	{ NOTE_REST, 1404 }, 
	{ NOTE_G4, 526 }, 
	{ NOTE_C5, 351 }, 
	{ NOTE_D5, 351 }, 
	{ NOTE_FS5, 176 }, 
	{ NOTE_FS5, 526 }, 
	{ NOTE_C5, 351 }, 
	{ NOTE_B4, 351 }, 
	{ NOTE_E4, 176 }, 
	{ NOTE_DS4, 175 }, 
	{ NOTE_DS4, 175 }, 
	{ NOTE_DS4, 175 }, 
	{ NOTE_E4, 879 }, 
	{ NOTE_FS4, 526 }, 
	{ NOTE_G4, 351 }, 
	{ NOTE_C5, 351 }, 
	{ NOTE_REST, 176 }, 
	{ NOTE_REST, 1404 }, 
	{ NOTE_REST, 1404 }, 
	{ NOTE_REST, 1404 }, 
	{ NOTE_REST, 1404 }, 
	{ NOTE_REST, 1404 }, 
	{ NOTE_REST, 1404 }, 
	{ NOTE_B3, 88 }, 
	{ NOTE_AS3, 88 }, 
	{ NOTE_B3, 88 }, 
	{ NOTE_CS4, 88 }, 
	{ NOTE_DS4, 88 }, 
	{ NOTE_CS4, 88 }, 
	{ NOTE_DS4, 88 }, 
	{ NOTE_F4, 88 }, 
	{ NOTE_FS4, 88 }, 
	{ NOTE_F4, 88 }, 
	{ NOTE_FS4, 88 }, 
	{ NOTE_GS4, 88 }, 
	{ NOTE_A4, 88 }, 
	{ NOTE_GS4, 88 }, 
	{ NOTE_A4, 88 }, 
	{ NOTE_B4, 84 }, 
	{ NOTE_F5, 88 }, 
	{ NOTE_DS5, 88 }, 
	{ NOTE_CS5, 88 }, 
	{ NOTE_B4, 88 }, 
	{ NOTE_DS5, 88 }, 
	{ NOTE_CS5, 88 }, 
	{ NOTE_B4, 88 }, 
	{ NOTE_A4, 88 }, 
	{ NOTE_CS5, 88 }, 
	{ NOTE_B4, 88 }, 
	{ NOTE_A4, 88 }, 
	{ NOTE_G4, 88 }, 
	{ NOTE_B4, 88 }, 
	{ NOTE_A4, 88 }, 
	{ NOTE_G4, 88 }, 
	{ NOTE_F4, 84 }, 
	{ NOTE_B3, 526 }, 
	{ NOTE_DS4, 351 }, 
	{ NOTE_F4, 351 }, 
	{ NOTE_DS5, 176 }, 
	{ NOTE_CS5, 526 }, 
	{ NOTE_B4, 351 }, 
	{ NOTE_A4, 351 }, 
	{ NOTE_F4, 176 }, 
	{ NOTE_REST, 175 }, 
	{ NOTE_REST, 175 }, 
	{ NOTE_REST, 175 }, 
	{ NOTE_REST, 175 }, 
	{ NOTE_REST, 704 }, 
	{ NOTE_REST, 175 }, 
	{ NOTE_CS5, 175 }, 
	{ NOTE_CS5, 175 }, 
	{ NOTE_CS5, 175 }, 
	{ NOTE_DS5, 175 }, 
	{ NOTE_DS5, 175 }, 
	{ NOTE_F5, 175 }, 
	{ NOTE_F5, 179 }, 
	{ NOTE_C5, 175 }, 
	{ NOTE_B4, 175 }, 
	{ NOTE_A4, 175 }, 
	{ NOTE_G4, 175 }, 
	{ NOTE_A4, 175 }, 
	{ NOTE_G4, 175 }, 
	{ NOTE_FS4, 175 }, 
	{ NOTE_E4, 179 }, 
	{ NOTE_A4, 175 }, 
	{ NOTE_G4, 175 }, 
	{ NOTE_FS4, 175 }, 
	{ NOTE_E4, 175 }, 
	{ NOTE_D4, 175 }, 
	{ NOTE_E4, 175 }, 
	{ NOTE_FS4, 175 }, 
	{ NOTE_E4, 179 }, 
	{ NOTE_REST, 1404 }, 
	{ NOTE_C4, 88 }, 
	{ NOTE_B3, 88 }, 
	{ NOTE_C4, 88 }, 
	{ NOTE_D4, 88 }, 
	{ NOTE_E4, 88 }, 
	{ NOTE_D4, 88 }, 
	{ NOTE_E4, 88 }, 
	{ NOTE_FS4, 88 }, 
	{ NOTE_G4, 88 }, 
	{ NOTE_FS4, 88 }, 
	{ NOTE_G4, 88 }, 
	{ NOTE_A4, 88 }, 
	{ NOTE_AS4, 88 }, 
	{ NOTE_G4, 88 }, 
	{ NOTE_E4, 88 }, 
	{ NOTE_C4, 84 }, 
	{ NOTE_DS5, 702 }, 
	{ NOTE_G5, 1404 }, 
	{ NOTE_A5, 351 }, 
	{ NOTE_C6, 351 }, 
	{ NOTE_AS5, 702 }, 
	{ NOTE_G5, 351 }, 
	{ NOTE_DS5, 351 }, 
	{ NOTE_A4, 351 }, 
	{ NOTE_REST, 1053 }, 
	{ NOTE_DS5, 175 }, 
	{ NOTE_F5, 88 }, 
	{ NOTE_G5, 88 }, 
	{ NOTE_A5, 175 }, 
	{ NOTE_G5, 88 }, 
	{ NOTE_F5, 88 }, 
	{ NOTE_DS5, 175 }, 
	{ NOTE_F5, 88 }, 
	{ NOTE_G5, 88 }, 
	{ NOTE_A5, 175 }, 
	{ NOTE_G5, 88 }, 
	{ NOTE_F5, 88 }, 
	{ NOTE_DS4, 175 }, 
	{ NOTE_F4, 88 }, 
	{ NOTE_G4, 88 }, 
	{ NOTE_A4, 175 }, 
	{ NOTE_G4, 88 }, 
	{ NOTE_F4, 88 }, 
	{ NOTE_DS4, 175 }, 
	{ NOTE_F4, 88 }, 
	{ NOTE_G4, 88 }, 
	{ NOTE_A4, 175 }, 
	{ NOTE_G4, 88 }, 
	{ NOTE_F4, 88 }, 
	{ NOTE_REST, 1404 }, 
	{ NOTE_DS4, 88 }, 
	{ NOTE_D4, 88 }, 
	{ NOTE_DS4, 88 }, 
	{ NOTE_F4, 88 }, 
	{ NOTE_G4, 88 }, 
	{ NOTE_F4, 88 }, 
	{ NOTE_G4, 88 }, 
	{ NOTE_A4, 88 }, 
	{ NOTE_AS4, 88 }, 
	{ NOTE_C5, 88 }, 
	{ NOTE_CS5, 88 }, 
	{ NOTE_DS5, 88 }, 
	{ NOTE_G5, 88 }, 
	{ NOTE_F5, 88 }, 
	{ NOTE_DS5, 88 }, 
	{ NOTE_C5, 84 }, 
	{ NOTE_CS5, 702 }, 
	{ NOTE_REST, 702 }, 
	{ NOTE_G5, 88 }, 
	{ NOTE_F5, 88 }, 
	{ NOTE_DS5, 88 }, 
	{ NOTE_CS5, 88 }, 
	{ NOTE_F5, 88 }, 
	{ NOTE_DS5, 88 }, 
	{ NOTE_CS5, 88 }, 
	{ NOTE_B4, 88 }, 
	{ NOTE_DS5, 88 }, 
	{ NOTE_CS5, 88 }, 
	{ NOTE_B4, 88 }, 
	{ NOTE_A4, 88 }, 
	{ NOTE_CS5, 88 }, 
	{ NOTE_B4, 88 }, 
	{ NOTE_A4, 88 }, 
	{ NOTE_G4, 84 }, 
	{ NOTE_REST, 1404 }, 
	{ NOTE_REST, 1404 }, 
	{ NOTE_REST, 1404 }, 
	{ NOTE_GS5, 88 }, 
	{ NOTE_F5, 88 }, 
	{ NOTE_DS5, 88 }, 
	{ NOTE_CS5, 88 }, 
	{ NOTE_F5, 88 }, 
	{ NOTE_DS5, 88 }, 
	{ NOTE_CS5, 88 }, 
	{ NOTE_B4, 88 }, 
	{ NOTE_DS5, 88 }, 
	{ NOTE_CS5, 88 }, 
	{ NOTE_B4, 88 }, 
	{ NOTE_A4, 88 }, 
	{ NOTE_CS5, 88 }, 
	{ NOTE_B4, 88 }, 
	{ NOTE_A4, 88 }, 
	{ NOTE_G4, 84 }, 
	{ NOTE_B4, 88 }, 
	{ NOTE_A4, 88 }, 
	{ NOTE_G4, 88 }, 
	{ NOTE_F4, 88 }, 
	{ NOTE_A4, 88 }, 
	{ NOTE_G4, 88 }, 
	{ NOTE_F4, 88 }, 
	{ NOTE_DS4, 88 }, 
	{ NOTE_REST, 175 }, 
	{ NOTE_G4, 175 }, 
	{ NOTE_G4, 175 }, 
	{ NOTE_GS4, 175 }, 
	{ NOTE_REST, 175 }, 
	{ NOTE_G4, 175 }, 
	{ NOTE_G4, 175 }, 
	{ NOTE_G4, 175 }, 
	{ NOTE_GS4, 175 }, 
	{ NOTE_CS5, 529 }, 
	{ NOTE_CS5, 175 }, 
	{ NOTE_CS5, 175 }, 
	{ NOTE_CS5, 175 }, 
	{ NOTE_CS5, 175 }, 
	{ NOTE_REST, 704 }, 
};
const uint16_t NUM_OF_NOTES0 = sizeof(melody0)/sizeof(melody0[0]);

const Note melody1[] PROGMEM = {
	{ NOTE_E5, 2106 }, 
	{ NOTE_C4, 702 }, 
	{ NOTE_DS4, 702 }, 
	{ NOTE_E4, 2106 }, 
	{ NOTE_C3, 175 }, 
	{ NOTE_FS4, 175 }, 
	{ NOTE_FS4, 175 }, 
	{ NOTE_REST, 175 }, 
	{ NOTE_REST, 175 }, 
	{ NOTE_FS4, 175 }, 
	{ NOTE_FS4, 175 }, 
	{ NOTE_FS4, 179 }, 
	{ NOTE_C3, 175 }, 
	{ NOTE_FS4, 175 }, 
	{ NOTE_FS4, 175 }, 
	{ NOTE_REST, 175 }, 
	{ NOTE_FS4, 175 }, 
	{ NOTE_REST, 175 }, 
	{ NOTE_FS4, 175 }, 
	{ NOTE_REST, 179 }, 
	{ NOTE_C3, 175 }, 
	{ NOTE_FS4, 175 }, 
	{ NOTE_FS4, 175 }, 
	{ NOTE_REST, 175 }, 
	{ NOTE_REST, 175 }, 
	{ NOTE_FS4, 175 }, 
	{ NOTE_FS4, 175 }, 
	{ NOTE_FS4, 179 }, 
	{ NOTE_C3, 175 }, 
	{ NOTE_FS4, 175 }, 
	{ NOTE_FS4, 175 }, 
	{ NOTE_REST, 175 }, 
	{ NOTE_FS4, 175 }, 
	{ NOTE_REST, 175 }, 
	{ NOTE_FS4, 175 }, 
	{ NOTE_REST, 179 }, 
	{ NOTE_C3, 175 }, 
	{ NOTE_FS4, 175 }, 
	{ NOTE_FS4, 175 }, 
	{ NOTE_REST, 175 }, 
	{ NOTE_REST, 175 }, 
	{ NOTE_FS4, 175 }, 
	{ NOTE_FS4, 175 }, 
	{ NOTE_FS4, 179 }, 
	{ NOTE_C3, 175 }, 
	{ NOTE_FS4, 175 }, 
	{ NOTE_FS4, 175 }, 
	{ NOTE_REST, 175 }, 
	{ NOTE_FS4, 175 }, 
	{ NOTE_REST, 175 }, 
	{ NOTE_FS4, 175 }, 
	{ NOTE_REST, 179 }, 
	{ NOTE_C3, 175 }, 
	{ NOTE_FS4, 175 }, 
	{ NOTE_FS4, 175 }, 
	{ NOTE_REST, 175 }, 
	{ NOTE_FS4, 175 }, 
	{ NOTE_REST, 175 }, 
	{ NOTE_FS4, 175 }, 
	{ NOTE_REST, 179 }, 
	{ NOTE_REST, 175 }, 
	{ NOTE_DS4, 175 }, 
	{ NOTE_DS4, 175 }, 
	{ NOTE_F2, 175 }, 
	{ NOTE_REST, 175 }, 
	{ NOTE_DS4, 175 }, 
	{ NOTE_DS4, 175 }, 
	{ NOTE_DS4, 179 }, 
	{ NOTE_B2, 175 }, 
	{ NOTE_DS4, 175 }, 
	{ NOTE_DS4, 175 }, 
	{ NOTE_F2, 175 }, 
	{ NOTE_DS4, 175 }, 
	{ NOTE_F2, 175 }, 
	{ NOTE_DS4, 175 }, 
	{ NOTE_F2, 179 }, 
	{ NOTE_B2, 175 }, 
	{ NOTE_DS4, 175 }, 
	{ NOTE_DS4, 175 }, 
	{ NOTE_F2, 175 }, 
	{ NOTE_REST, 175 }, 
	{ NOTE_DS4, 175 }, 
	{ NOTE_DS4, 175 }, 
	{ NOTE_DS4, 179 }, 
	{ NOTE_B2, 175 }, 
	{ NOTE_DS4, 175 }, 
	{ NOTE_DS4, 175 }, 
	{ NOTE_F2, 175 }, 
	{ NOTE_DS4, 175 }, 
	{ NOTE_F2, 175 }, 
	{ NOTE_DS4, 175 }, 
	{ NOTE_F2, 179 }, 
	{ NOTE_B2, 175 }, 
	{ NOTE_DS4, 175 }, 
	{ NOTE_DS4, 175 }, 
	{ NOTE_F2, 175 }, 
	{ NOTE_REST, 175 }, 
	{ NOTE_DS4, 175 }, 
	{ NOTE_DS4, 175 }, 
	{ NOTE_DS4, 179 }, 
	{ NOTE_B2, 175 }, 
	{ NOTE_DS4, 175 }, 
	{ NOTE_DS4, 175 }, 
	{ NOTE_F2, 175 }, 
	{ NOTE_DS4, 175 }, 
	{ NOTE_F2, 175 }, 
	{ NOTE_DS4, 175 }, 
	{ NOTE_F2, 179 }, 
	{ NOTE_B2, 175 }, 
	{ NOTE_DS4, 175 }, 
	{ NOTE_DS4, 175 }, 
	{ NOTE_F2, 175 }, 
	{ NOTE_REST, 175 }, 
	{ NOTE_DS4, 175 }, 
	{ NOTE_DS4, 175 }, 
	{ NOTE_DS4, 179 }, 
	{ NOTE_B2, 175 }, 
	{ NOTE_DS4, 175 }, 
	{ NOTE_DS4, 175 }, 
	{ NOTE_F2, 175 }, 
	{ NOTE_DS4, 175 }, 
	{ NOTE_F2, 175 }, 
	{ NOTE_DS4, 175 }, 
	{ NOTE_F2, 179 }, 
	{ NOTE_E2, 175 }, 
	{ NOTE_AS4, 175 }, 
	{ NOTE_REST, 175 }, 
	{ NOTE_AS4, 175 }, 
	{ NOTE_E2, 175 }, 
	{ NOTE_AS4, 175 }, 
	{ NOTE_REST, 175 }, 
	{ NOTE_AS4, 179 }, 
	{ NOTE_E2, 175 }, 
	{ NOTE_AS4, 175 }, 
	{ NOTE_REST, 175 }, 
	{ NOTE_AS4, 175 }, 
	{ NOTE_FS2, 175 }, 
	{ NOTE_B4, 175 }, 
	{ NOTE_REST, 175 }, 
	{ NOTE_B4, 179 }, 
	{ NOTE_E2, 175 }, 
	{ NOTE_B4, 175 }, 
	{ NOTE_REST, 175 }, 
	{ NOTE_B4, 175 }, 
	{ NOTE_E2, 175 }, 
	{ NOTE_B4, 175 }, 
	{ NOTE_REST, 175 }, 
	{ NOTE_B4, 179 }, 
	{ NOTE_E2, 175 }, 
	{ NOTE_AS4, 175 }, 
	{ NOTE_REST, 175 }, 
	{ NOTE_AS4, 175 }, 
	{ NOTE_E2, 175 }, 
	{ NOTE_AS4, 175 }, 
	{ NOTE_REST, 175 }, 
	{ NOTE_AS4, 179 }, 
	{ NOTE_E2, 175 }, 
	{ NOTE_AS4, 175 }, 
	{ NOTE_REST, 175 }, 
	{ NOTE_AS4, 175 }, 
	{ NOTE_E2, 175 }, 
	{ NOTE_AS4, 175 }, 
	{ NOTE_REST, 175 }, 
	{ NOTE_AS4, 179 }, 
	{ NOTE_E2, 175 }, 
	{ NOTE_AS4, 175 }, 
	{ NOTE_REST, 175 }, 
	{ NOTE_AS4, 175 }, 
	{ NOTE_E2, 175 }, 
	{ NOTE_AS4, 175 }, 
	{ NOTE_REST, 175 }, 
	{ NOTE_AS4, 179 }, 
	{ NOTE_C3, 351 }, 
	{ NOTE_REST, 351 }, 
	{ NOTE_G2, 351 }, 
	{ NOTE_REST, 351 }, 
	{ NOTE_CS3, 351 }, 
	{ NOTE_REST, 351 }, 
	{ NOTE_G2, 351 }, 
	{ NOTE_REST, 351 }, 
	{ NOTE_F2, 175 }, 
	{ NOTE_F2, 175 }, 
	{ NOTE_F2, 175 }, 
	{ NOTE_E2, 879 }, 
	{ NOTE_REST, 1404 }, 
	{ NOTE_REST, 1404 }, 
	{ NOTE_REST, 1404 }, 
	{ NOTE_REST, 175 }, 
	{ NOTE_G4, 175 }, 
	{ NOTE_REST, 175 }, 
	{ NOTE_G4, 175 }, 
	{ NOTE_G4, 175 }, 
	{ NOTE_G4, 175 }, 
	{ NOTE_REST, 175 }, 
	{ NOTE_G4, 179 }, 
	{ NOTE_REST, 175 }, 
	{ NOTE_G4, 175 }, 
	{ NOTE_REST, 175 }, 
	{ NOTE_G4, 175 }, 
	{ NOTE_G4, 175 }, 
	{ NOTE_G4, 175 }, 
	{ NOTE_REST, 175 }, 
	{ NOTE_G4, 179 }, 
	{ NOTE_REST, 175 }, 
	{ NOTE_DS4, 175 }, 
	{ NOTE_DS4, 175 }, 
	{ NOTE_REST, 175 }, 
	{ NOTE_REST, 175 }, 
	{ NOTE_DS4, 175 }, 
	{ NOTE_DS4, 175 }, 
	{ NOTE_DS4, 179 }, 
	{ NOTE_REST, 175 }, 
	{ NOTE_DS4, 175 }, 
	{ NOTE_DS4, 175 }, 
	{ NOTE_REST, 175 }, 
	{ NOTE_DS4, 175 }, 
	{ NOTE_REST, 175 }, 
	{ NOTE_DS4, 175 }, 
	{ NOTE_REST, 179 }, 
	{ NOTE_REST, 175 }, 
	{ NOTE_DS4, 175 }, 
	{ NOTE_DS4, 175 }, 
	{ NOTE_REST, 175 }, 
	{ NOTE_REST, 175 }, 
	{ NOTE_DS4, 175 }, 
	{ NOTE_DS4, 175 }, 
	{ NOTE_DS4, 179 }, 
	{ NOTE_REST, 175 }, 
	{ NOTE_DS4, 175 }, 
	{ NOTE_DS4, 175 }, 
	{ NOTE_REST, 175 }, 
	{ NOTE_DS4, 175 }, 
	{ NOTE_REST, 175 }, 
	{ NOTE_DS4, 175 }, 
	{ NOTE_REST, 179 }, 
	{ NOTE_REST, 175 }, 
	{ NOTE_DS4, 175 }, 
	{ NOTE_DS4, 175 }, 
	{ NOTE_REST, 175 }, 
	{ NOTE_REST, 175 }, 
	{ NOTE_DS4, 175 }, 
	{ NOTE_DS4, 175 }, 
	{ NOTE_DS4, 179 }, 
	{ NOTE_REST, 175 }, 
	{ NOTE_DS4, 175 }, 
	{ NOTE_DS4, 175 }, 
	{ NOTE_REST, 175 }, 
	{ NOTE_DS4, 175 }, 
	{ NOTE_REST, 175 }, 
	{ NOTE_DS4, 175 }, 
	{ NOTE_REST, 179 }, 
	{ NOTE_REST, 175 }, 
	{ NOTE_DS4, 175 }, 
	{ NOTE_DS4, 175 }, 
	{ NOTE_REST, 175 }, 
	{ NOTE_REST, 175 }, 
	{ NOTE_DS4, 175 }, 
	{ NOTE_DS4, 175 }, 
	{ NOTE_DS4, 179 }, 
	{ NOTE_REST, 175 }, 
	{ NOTE_DS4, 175 }, 
	{ NOTE_DS4, 175 }, 
	{ NOTE_REST, 175 }, 
	{ NOTE_DS4, 175 }, 
	{ NOTE_REST, 175 }, 
	{ NOTE_DS4, 175 }, 
	{ NOTE_REST, 179 }, 
	{ NOTE_C3, 175 }, 
	{ NOTE_REST, 175 }, 
	{ NOTE_G2, 175 }, 
	{ NOTE_REST, 175 }, 
	{ NOTE_C3, 175 }, 
	{ NOTE_REST, 175 }, 
	{ NOTE_G2, 175 }, 
	{ NOTE_REST, 179 }, 
	{ NOTE_C3, 175 }, 
	{ NOTE_REST, 175 }, 
	{ NOTE_G2, 175 }, 
	{ NOTE_REST, 175 }, 
	{ NOTE_C3, 175 }, 
	{ NOTE_REST, 175 }, 
	{ NOTE_G2, 175 }, 
	{ NOTE_REST, 179 }, 
	{ NOTE_C3, 175 }, 
	{ NOTE_REST, 175 }, 
	{ NOTE_G2, 175 }, 
	{ NOTE_REST, 175 }, 
	{ NOTE_C3, 175 }, 
	{ NOTE_REST, 175 }, 
	{ NOTE_G2, 175 }, 
	{ NOTE_REST, 179 }, 
	{ NOTE_C3, 175 }, 
	{ NOTE_REST, 175 }, 
	{ NOTE_G2, 175 }, 
	{ NOTE_REST, 175 }, 
	{ NOTE_C3, 175 }, 
	{ NOTE_REST, 175 }, 
	{ NOTE_G2, 175 }, 
	{ NOTE_REST, 179 }, 
	{ NOTE_DS3, 351 }, 
	{ NOTE_A2, 351 }, 
	{ NOTE_DS3, 351 }, 
	{ NOTE_A2, 351 }, 
	{ NOTE_DS3, 351 }, 
	{ NOTE_A2, 351 }, 
	{ NOTE_DS3, 351 }, 
	{ NOTE_A2, 351 }, 
	{ NOTE_DS3, 351 }, 
	{ NOTE_A2, 351 }, 
	{ NOTE_DS3, 351 }, 
	{ NOTE_A2, 351 }, 
	{ NOTE_DS3, 351 }, 
	{ NOTE_A2, 351 }, 
	{ NOTE_DS3, 351 }, 
	{ NOTE_A2, 351 }, 
	{ NOTE_DS3, 351 }, 
	{ NOTE_A2, 351 }, 
	{ NOTE_DS3, 351 }, 
	{ NOTE_A2, 351 }, 
	{ NOTE_DS3, 351 }, 
	{ NOTE_A2, 351 }, 
	{ NOTE_DS3, 351 }, 
	{ NOTE_A2, 351 }, 
	{ NOTE_DS3, 351 }, 
	{ NOTE_A2, 351 }, 
	{ NOTE_DS3, 351 }, 
	{ NOTE_A2, 351 }, 
	{ NOTE_DS3, 351 }, 
	{ NOTE_G2, 351 }, 
	{ NOTE_A2, 351 }, 
	{ NOTE_C3, 351 }, 
	{ NOTE_CS3, 175 }, 
	{ NOTE_G4, 175 }, 
	{ NOTE_G4, 175 }, 
	{ NOTE_G2, 175 }, 
	{ NOTE_REST, 175 }, 
	{ NOTE_G4, 175 }, 
	{ NOTE_G4, 175 }, 
	{ NOTE_G4, 179 }, 
	{ NOTE_CS3, 175 }, 
	{ NOTE_G4, 175 }, 
	{ NOTE_G4, 175 }, 
	{ NOTE_G2, 175 }, 
	{ NOTE_G4, 175 }, 
	{ NOTE_G2, 175 }, 
	{ NOTE_G4, 175 }, 
	{ NOTE_G2, 179 }, 
	{ NOTE_CS3, 175 }, 
	{ NOTE_G4, 175 }, 
	{ NOTE_G4, 175 }, 
	{ NOTE_G2, 175 }, 
	{ NOTE_REST, 175 }, 
	{ NOTE_G4, 175 }, 
	{ NOTE_G4, 175 }, 
	{ NOTE_G4, 179 }, 
	{ NOTE_CS3, 175 }, 
	{ NOTE_G4, 175 }, 
	{ NOTE_G4, 175 }, 
	{ NOTE_G2, 175 }, 
	{ NOTE_G4, 175 }, 
	{ NOTE_G2, 175 }, 
	{ NOTE_G4, 175 }, 
	{ NOTE_G2, 179 }, 
	{ NOTE_CS3, 175 }, 
	{ NOTE_G4, 175 }, 
	{ NOTE_G4, 175 }, 
	{ NOTE_G2, 175 }, 
	{ NOTE_REST, 175 }, 
	{ NOTE_G4, 175 }, 
	{ NOTE_G4, 175 }, 
	{ NOTE_G4, 179 }, 
	{ NOTE_CS3, 175 }, 
	{ NOTE_G4, 175 }, 
	{ NOTE_G4, 175 }, 
	{ NOTE_G2, 175 }, 
	{ NOTE_G4, 175 }, 
	{ NOTE_G2, 175 }, 
	{ NOTE_G4, 175 }, 
	{ NOTE_G2, 179 }, 
	{ NOTE_CS3, 175 }, 
	{ NOTE_G4, 175 }, 
	{ NOTE_G4, 175 }, 
	{ NOTE_G2, 175 }, 
	{ NOTE_REST, 704 }, 
	{ NOTE_CS3, 175 }, 
	{ NOTE_REST, 351 }, 
	{ NOTE_G2, 175 }, 
	{ NOTE_REST, 175 }, 
	{ NOTE_G2, 175 }, 
	{ NOTE_REST, 353 }, 
	{ NOTE_CS3, 175 }, 
	{ NOTE_CS3, 175 }, 
	{ NOTE_CS3, 175 }, 
	{ NOTE_CS3, 175 }, 
	{ NOTE_REST, 704 }, 
};
const uint16_t NUM_OF_NOTES1 = sizeof(melody1)/sizeof(melody1[0]);

const Note melody2[] PROGMEM = {
	{ NOTE_G4, 2106 }, 
	{ NOTE_E3, 702 }, 
	{ NOTE_A3, 702 }, 
	{ NOTE_A3, 2106 }, 
	{ NOTE_C3, 175 }, 
	{ NOTE_C4, 175 }, 
	{ NOTE_C4, 175 }, 
	{ NOTE_FS2, 175 }, 
	{ NOTE_REST, 175 }, 
	{ NOTE_C4, 175 }, 
	{ NOTE_C4, 175 }, 
	{ NOTE_C4, 179 }, 
	{ NOTE_C3, 175 }, 
	{ NOTE_C4, 175 }, 
	{ NOTE_C4, 175 }, 
	{ NOTE_FS2, 175 }, 
	{ NOTE_C4, 175 }, 
	{ NOTE_FS2, 175 }, 
	{ NOTE_C4, 175 }, 
	{ NOTE_FS2, 179 }, 
	{ NOTE_C3, 175 }, 
	{ NOTE_C4, 175 }, 
	{ NOTE_C4, 175 }, 
	{ NOTE_FS2, 175 }, 
	{ NOTE_REST, 175 }, 
	{ NOTE_C4, 175 }, 
	{ NOTE_C4, 175 }, 
	{ NOTE_C4, 179 }, 
	{ NOTE_C3, 175 }, 
	{ NOTE_C4, 175 }, 
	{ NOTE_C4, 175 }, 
	{ NOTE_FS2, 175 }, 
	{ NOTE_C4, 175 }, 
	{ NOTE_FS2, 175 }, 
	{ NOTE_C4, 175 }, 
	{ NOTE_FS2, 179 }, 
	{ NOTE_C3, 175 }, 
	{ NOTE_C4, 175 }, 
	{ NOTE_C4, 175 }, 
	{ NOTE_FS2, 175 }, 
	{ NOTE_REST, 175 }, 
	{ NOTE_C4, 175 }, 
	{ NOTE_C4, 175 }, 
	{ NOTE_C4, 179 }, 
	{ NOTE_C3, 175 }, 
	{ NOTE_C4, 175 }, 
	{ NOTE_C4, 175 }, 
	{ NOTE_FS2, 175 }, 
	{ NOTE_C4, 175 }, 
	{ NOTE_FS2, 175 }, 
	{ NOTE_C4, 175 }, 
	{ NOTE_FS2, 179 }, 
	{ NOTE_C3, 175 }, 
	{ NOTE_C4, 175 }, 
	{ NOTE_C4, 175 }, 
	{ NOTE_FS2, 175 }, 
	{ NOTE_C4, 175 }, 
	{ NOTE_FS2, 175 }, 
	{ NOTE_C4, 175 }, 
	{ NOTE_FS2, 179 }, 
	{ NOTE_B2, 175 }, 
	{ NOTE_A3, 175 }, 
	{ NOTE_A3, 175 }, 
	{ NOTE_F2, 175 }, 
	{ NOTE_REST, 175 }, 
	{ NOTE_A3, 175 }, 
	{ NOTE_A3, 175 }, 
	{ NOTE_A3, 179 }, 
	{ NOTE_B2, 175 }, 
	{ NOTE_A3, 175 }, 
	{ NOTE_A3, 175 }, 
	{ NOTE_F2, 175 }, 
	{ NOTE_A3, 175 }, 
	{ NOTE_F2, 175 }, 
	{ NOTE_A3, 175 }, 
	{ NOTE_F2, 179 }, 
	{ NOTE_B2, 175 }, 
	{ NOTE_A3, 175 }, 
	{ NOTE_A3, 175 }, 
	{ NOTE_F2, 175 }, 
	{ NOTE_REST, 175 }, 
	{ NOTE_A3, 175 }, 
	{ NOTE_A3, 175 }, 
	{ NOTE_A3, 179 }, 
	{ NOTE_B2, 175 }, 
	{ NOTE_A3, 175 }, 
	{ NOTE_A3, 175 }, 
	{ NOTE_F2, 175 }, 
	{ NOTE_A3, 175 }, 
	{ NOTE_F2, 175 }, 
	{ NOTE_A3, 175 }, 
	{ NOTE_F2, 179 }, 
	{ NOTE_B2, 175 }, 
	{ NOTE_A3, 175 }, 
	{ NOTE_A3, 175 }, 
	{ NOTE_F2, 175 }, 
	{ NOTE_REST, 175 }, 
	{ NOTE_A3, 175 }, 
	{ NOTE_A3, 175 }, 
	{ NOTE_A3, 179 }, 
	{ NOTE_B2, 175 }, 
	{ NOTE_A3, 175 }, 
	{ NOTE_A3, 175 }, 
	{ NOTE_F2, 175 }, 
	{ NOTE_A3, 175 }, 
	{ NOTE_F2, 175 }, 
	{ NOTE_A3, 175 }, 
	{ NOTE_F2, 179 }, 
	{ NOTE_B2, 175 }, 
	{ NOTE_A3, 175 }, 
	{ NOTE_A3, 175 }, 
	{ NOTE_F2, 175 }, 
	{ NOTE_REST, 175 }, 
	{ NOTE_A3, 175 }, 
	{ NOTE_A3, 175 }, 
	{ NOTE_A3, 179 }, 
	{ NOTE_B2, 175 }, 
	{ NOTE_A3, 175 }, 
	{ NOTE_A3, 175 }, 
	{ NOTE_F2, 175 }, 
	{ NOTE_A3, 175 }, 
	{ NOTE_F2, 175 }, 
	{ NOTE_A3, 175 }, 
	{ NOTE_F2, 179 }, 
	{ NOTE_E2, 175 }, 
	{ NOTE_E4, 175 }, 
	{ NOTE_REST, 175 }, 
	{ NOTE_E4, 175 }, 
	{ NOTE_E2, 175 }, 
	{ NOTE_E4, 175 }, 
	{ NOTE_REST, 175 }, 
	{ NOTE_E4, 179 }, 
	{ NOTE_E2, 175 }, 
	{ NOTE_E4, 175 }, 
	{ NOTE_REST, 175 }, 
	{ NOTE_E4, 175 }, 
	{ NOTE_FS2, 175 }, 
	{ NOTE_E4, 175 }, 
	{ NOTE_REST, 175 }, 
	{ NOTE_E4, 179 }, 
	{ NOTE_E2, 175 }, 
	{ NOTE_E4, 175 }, 
	{ NOTE_REST, 175 }, 
	{ NOTE_E4, 175 }, 
	{ NOTE_E2, 175 }, 
	{ NOTE_E4, 175 }, 
	{ NOTE_REST, 175 }, 
	{ NOTE_E4, 179 }, 
	{ NOTE_E2, 175 }, 
	{ NOTE_E4, 175 }, 
	{ NOTE_REST, 175 }, 
	{ NOTE_E4, 175 }, 
	{ NOTE_E2, 175 }, 
	{ NOTE_E4, 175 }, 
	{ NOTE_REST, 175 }, 
	{ NOTE_E4, 179 }, 
	{ NOTE_E2, 175 }, 
	{ NOTE_E4, 175 }, 
	{ NOTE_REST, 175 }, 
	{ NOTE_E4, 175 }, 
	{ NOTE_E2, 175 }, 
	{ NOTE_E4, 175 }, 
	{ NOTE_REST, 175 }, 
	{ NOTE_E4, 179 }, 
	{ NOTE_E2, 175 }, 
	{ NOTE_E4, 175 }, 
	{ NOTE_REST, 175 }, 
	{ NOTE_E4, 175 }, 
	{ NOTE_E2, 175 }, 
	{ NOTE_E4, 175 }, 
	{ NOTE_REST, 175 }, 
	{ NOTE_E4, 179 }, 
	{ NOTE_C3, 351 }, 
	{ NOTE_REST, 351 }, 
	{ NOTE_G2, 351 }, 
	{ NOTE_REST, 351 }, 
	{ NOTE_CS3, 351 }, 
	{ NOTE_REST, 351 }, 
	{ NOTE_G2, 351 }, 
	{ NOTE_REST, 351 }, 
	{ NOTE_F2, 175 }, 
	{ NOTE_F2, 175 }, 
	{ NOTE_F2, 175 }, 
	{ NOTE_E2, 879 }, 
	{ NOTE_REST, 1404 }, 
	{ NOTE_REST, 1404 }, 
	{ NOTE_REST, 1404 }, 
	{ NOTE_REST, 175 }, 
	{ NOTE_CS4, 175 }, 
	{ NOTE_REST, 175 }, 
	{ NOTE_CS4, 175 }, 
	{ NOTE_CS4, 175 }, 
	{ NOTE_CS4, 175 }, 
	{ NOTE_REST, 175 }, 
	{ NOTE_CS4, 179 }, 
	{ NOTE_REST, 175 }, 
	{ NOTE_CS4, 175 }, 
	{ NOTE_REST, 175 }, 
	{ NOTE_CS4, 175 }, 
	{ NOTE_CS4, 175 }, 
	{ NOTE_CS4, 175 }, 
	{ NOTE_REST, 175 }, 
	{ NOTE_CS4, 179 }, 
	{ NOTE_REST, 175 }, 
	{ NOTE_A3, 175 }, 
	{ NOTE_A3, 175 }, 
	{ NOTE_REST, 175 }, 
	{ NOTE_REST, 175 }, 
	{ NOTE_A3, 175 }, 
	{ NOTE_A3, 175 }, 
	{ NOTE_A3, 179 }, 
	{ NOTE_REST, 175 }, 
	{ NOTE_A3, 175 }, 
	{ NOTE_A3, 175 }, 
	{ NOTE_REST, 175 }, 
	{ NOTE_A3, 175 }, 
	{ NOTE_REST, 175 }, 
	{ NOTE_A3, 175 }, 
	{ NOTE_REST, 179 }, 
	{ NOTE_REST, 175 }, 
	{ NOTE_A3, 175 }, 
	{ NOTE_A3, 175 }, 
	{ NOTE_REST, 175 }, 
	{ NOTE_REST, 175 }, 
	{ NOTE_A3, 175 }, 
	{ NOTE_A3, 175 }, 
	{ NOTE_A3, 179 }, 
	{ NOTE_REST, 175 }, 
	{ NOTE_A3, 175 }, 
	{ NOTE_A3, 175 }, 
	{ NOTE_REST, 175 }, 
	{ NOTE_A3, 175 }, 
	{ NOTE_REST, 175 }, 
	{ NOTE_A3, 175 }, 
	{ NOTE_REST, 179 }, 
	{ NOTE_REST, 175 }, 
	{ NOTE_A3, 175 }, 
	{ NOTE_A3, 175 }, 
	{ NOTE_REST, 175 }, 
	{ NOTE_REST, 175 }, 
	{ NOTE_A3, 175 }, 
	{ NOTE_A3, 175 }, 
	{ NOTE_A3, 179 }, 
	{ NOTE_REST, 175 }, 
	{ NOTE_A3, 175 }, 
	{ NOTE_A3, 175 }, 
	{ NOTE_REST, 175 }, 
	{ NOTE_A3, 175 }, 
	{ NOTE_REST, 175 }, 
	{ NOTE_A3, 175 }, 
	{ NOTE_REST, 179 }, 
	{ NOTE_REST, 175 }, 
	{ NOTE_A3, 175 }, 
	{ NOTE_A3, 175 }, 
	{ NOTE_REST, 175 }, 
	{ NOTE_REST, 175 }, 
	{ NOTE_A3, 175 }, 
	{ NOTE_A3, 175 }, 
	{ NOTE_A3, 179 }, 
	{ NOTE_REST, 175 }, 
	{ NOTE_A3, 175 }, 
	{ NOTE_A3, 175 }, 
	{ NOTE_REST, 175 }, 
	{ NOTE_A3, 175 }, 
	{ NOTE_REST, 175 }, 
	{ NOTE_A3, 175 }, 
	{ NOTE_REST, 179 }, 
	{ NOTE_C3, 175 }, 
	{ NOTE_E3, 175 }, 
	{ NOTE_G2, 175 }, 
	{ NOTE_E3, 175 }, 
	{ NOTE_C3, 175 }, 
	{ NOTE_E3, 175 }, 
	{ NOTE_G2, 175 }, 
	{ NOTE_E3, 179 }, 
	{ NOTE_C3, 175 }, 
	{ NOTE_E3, 175 }, 
	{ NOTE_G2, 175 }, 
	{ NOTE_E3, 175 }, 
	{ NOTE_C3, 175 }, 
	{ NOTE_E3, 175 }, 
	{ NOTE_G2, 175 }, 
	{ NOTE_E3, 179 }, 
	{ NOTE_C3, 175 }, 
	{ NOTE_E3, 175 }, 
	{ NOTE_G2, 175 }, 
	{ NOTE_E3, 175 }, 
	{ NOTE_C3, 175 }, 
	{ NOTE_E3, 175 }, 
	{ NOTE_G2, 175 }, 
	{ NOTE_E3, 179 }, 
	{ NOTE_C3, 175 }, 
	{ NOTE_E3, 175 }, 
	{ NOTE_G2, 175 }, 
	{ NOTE_E3, 175 }, 
	{ NOTE_C3, 175 }, 
	{ NOTE_E3, 175 }, 
	{ NOTE_G2, 175 }, 
	{ NOTE_E3, 179 }, 
	{ NOTE_DS3, 351 }, 
	{ NOTE_A2, 351 }, 
	{ NOTE_DS3, 351 }, 
	{ NOTE_A2, 351 }, 
	{ NOTE_DS3, 351 }, 
	{ NOTE_A2, 351 }, 
	{ NOTE_DS3, 351 }, 
	{ NOTE_A2, 351 }, 
	{ NOTE_DS3, 351 }, 
	{ NOTE_A2, 351 }, 
	{ NOTE_DS3, 351 }, 
	{ NOTE_A2, 351 }, 
	{ NOTE_DS3, 351 }, 
	{ NOTE_A2, 351 }, 
	{ NOTE_DS3, 351 }, 
	{ NOTE_A2, 351 }, 
	{ NOTE_DS3, 351 }, 
	{ NOTE_A2, 351 }, 
	{ NOTE_DS3, 351 }, 
	{ NOTE_A2, 351 }, 
	{ NOTE_DS3, 351 }, 
	{ NOTE_A2, 351 }, 
	{ NOTE_DS3, 351 }, 
	{ NOTE_A2, 351 }, 
	{ NOTE_DS3, 351 }, 
	{ NOTE_A2, 351 }, 
	{ NOTE_DS3, 351 }, 
	{ NOTE_A2, 351 }, 
	{ NOTE_DS3, 351 }, 
	{ NOTE_G2, 351 }, 
	{ NOTE_A2, 351 }, 
	{ NOTE_C3, 351 }, 
	{ NOTE_CS3, 175 }, 
	{ NOTE_CS4, 175 }, 
	{ NOTE_CS4, 175 }, 
	{ NOTE_G2, 175 }, 
	{ NOTE_REST, 175 }, 
	{ NOTE_CS4, 175 }, 
	{ NOTE_CS4, 175 }, 
	{ NOTE_CS4, 179 }, 
	{ NOTE_CS3, 175 }, 
	{ NOTE_CS4, 175 }, 
	{ NOTE_CS4, 175 }, 
	{ NOTE_G2, 175 }, 
	{ NOTE_CS4, 175 }, 
	{ NOTE_G2, 175 }, 
	{ NOTE_CS4, 175 }, 
	{ NOTE_G2, 179 }, 
	{ NOTE_CS3, 175 }, 
	{ NOTE_CS4, 175 }, 
	{ NOTE_CS4, 175 }, 
	{ NOTE_G2, 175 }, 
	{ NOTE_REST, 175 }, 
	{ NOTE_CS4, 175 }, 
	{ NOTE_CS4, 175 }, 
	{ NOTE_CS4, 179 }, 
	{ NOTE_CS3, 175 }, 
	{ NOTE_CS4, 175 }, 
	{ NOTE_CS4, 175 }, 
	{ NOTE_G2, 175 }, 
	{ NOTE_CS4, 175 }, 
	{ NOTE_G2, 175 }, 
	{ NOTE_CS4, 175 }, 
	{ NOTE_G2, 179 }, 
	{ NOTE_CS3, 175 }, 
	{ NOTE_CS4, 175 }, 
	{ NOTE_CS4, 175 }, 
	{ NOTE_G2, 175 }, 
	{ NOTE_REST, 175 }, 
	{ NOTE_CS4, 175 }, 
	{ NOTE_CS4, 175 }, 
	{ NOTE_CS4, 179 }, 
	{ NOTE_CS3, 175 }, 
	{ NOTE_CS4, 175 }, 
	{ NOTE_CS4, 175 }, 
	{ NOTE_G2, 175 }, 
	{ NOTE_CS4, 175 }, 
	{ NOTE_G2, 175 }, 
	{ NOTE_CS4, 175 }, 
	{ NOTE_G2, 179 }, 
	{ NOTE_CS3, 175 }, 
	{ NOTE_CS4, 175 }, 
	{ NOTE_CS4, 175 }, 
	{ NOTE_G2, 175 }, 
	{ NOTE_REST, 704 }, 
	{ NOTE_CS3, 175 }, 
	{ NOTE_REST, 351 }, 
	{ NOTE_G2, 175 }, 
	{ NOTE_REST, 175 }, 
	{ NOTE_G2, 175 }, 
	{ NOTE_REST, 353 }, 
	{ NOTE_CS3, 175 }, 
	{ NOTE_CS3, 175 }, 
	{ NOTE_CS3, 175 }, 
	{ NOTE_CS3, 175 }, 
	{ NOTE_REST, 704 }, 
};
const uint16_t NUM_OF_NOTES2 = sizeof(melody2)/sizeof(melody2[0]);

const Note melody3[] PROGMEM = {
	{ NOTE_REST, 1404 }, 
	{ NOTE_REST, 1404 }, 
	{ NOTE_REST, 1404 }, 
	{ NOTE_REST, 1404 }, 
	{ NOTE_REST, 1404 }, 
	{ NOTE_REST, 1404 }, 
	{ NOTE_REST, 1404 }, 
	{ NOTE_C4, 526 }, 
	{ NOTE_E4, 351 }, 
	{ NOTE_FS4, 351 }, 
	{ NOTE_A4, 176 }, 
	{ NOTE_G4, 526 }, 
	{ NOTE_E4, 351 }, 
	{ NOTE_C4, 351 }, 
	{ NOTE_A3, 176 }, 
	{ NOTE_FS3, 175 }, 
	{ NOTE_FS3, 175 }, 
	{ NOTE_FS3, 175 }, 
	{ NOTE_G3, 702 }, 
	{ NOTE_REST, 177 }, 
	{ NOTE_REST, 1404 }, 
	{ NOTE_REST, 1404 }, 
	{ NOTE_REST, 1404 }, 
	{ NOTE_REST, 1404 }, 
	{ NOTE_REST, 1404 }, 
	{ NOTE_B2, 526 }, 
	{ NOTE_DS3, 351 }, 
	{ NOTE_F3, 351 }, 
	{ NOTE_DS4, 176 }, 
	{ NOTE_CS4, 526 }, 
	{ NOTE_B3, 351 }, 
	{ NOTE_A3, 351 }, 
	{ NOTE_F3, 176 }, 
	{ NOTE_A3, 175 }, 
	{ NOTE_A3, 175 }, 
	{ NOTE_A3, 175 }, 
	{ NOTE_B3, 175 }, 
	{ NOTE_REST, 704 }, 
	{ NOTE_REST, 1404 }, 
	{ NOTE_E4, 702 }, 
	{ NOTE_GS4, 1404 }, 
	{ NOTE_REST, 702 }, 
	{ NOTE_REST, 1404 }, 
	{ NOTE_REST, 1404 }, 
	{ NOTE_D4, 175 }, 
	{ NOTE_E4, 88 }, 
	{ NOTE_FS4, 88 }, 
	{ NOTE_GS4, 175 }, 
	{ NOTE_FS4, 88 }, 
	{ NOTE_E4, 88 }, 
	{ NOTE_D4, 175 }, 
	{ NOTE_E4, 88 }, 
	{ NOTE_FS4, 88 }, 
	{ NOTE_GS4, 175 }, 
	{ NOTE_FS4, 88 }, 
	{ NOTE_E4, 88 }, 
	{ NOTE_REST, 1404 }, 
	{ NOTE_REST, 702 }, 
	{ NOTE_B4, 175 }, 
	{ NOTE_C5, 1931 }, 
	{ NOTE_FS4, 88 }, 
	{ NOTE_G4, 88 }, 
	{ NOTE_GS4, 702 }, 
	{ NOTE_B4, 175 }, 
	{ NOTE_E4, 175 }, 
	{ NOTE_FS4, 176 }, 
	{ NOTE_G4, 175 }, 
	{ NOTE_FS4, 175 }, 
	{ NOTE_E4, 175 }, 
	{ NOTE_B3, 88 }, 
	{ NOTE_C4, 614 }, 
	{ NOTE_E4, 352 }, 
	{ NOTE_FS4, 351 }, 
	{ NOTE_A4, 175 }, 
	{ NOTE_G4, 526 }, 
	{ NOTE_E4, 352 }, 
	{ NOTE_C4, 351 }, 
	{ NOTE_C5, 175 }, 
	{ NOTE_DS5, 175 }, 
	{ NOTE_C5, 175 }, 
	{ NOTE_D5, 175 }, 
	{ NOTE_C5, 178 }, 
	{ NOTE_REST, 1404 }, 
	{ NOTE_REST, 1404 }, 
	{ NOTE_B3, 526 }, 
	{ NOTE_DS4, 175 }, 
	{ NOTE_DS3, 175 }, 
	{ NOTE_F4, 351 }, 
	{ NOTE_GS4, 177 }, 
	{ NOTE_FS4, 526 }, 
	{ NOTE_DS4, 351 }, 
	{ NOTE_B3, 351 }, 
	{ NOTE_GS3, 176 }, 
	{ NOTE_F3, 175 }, 
	{ NOTE_F3, 175 }, 
	{ NOTE_F3, 175 }, 
	{ NOTE_FS3, 175 }, 
	{ NOTE_REST, 704 }, 
	{ NOTE_REST, 1404 }, 
	{ NOTE_REST, 1404 }, 
	{ NOTE_REST, 1404 }, 
	{ NOTE_REST, 1404 }, 
	{ NOTE_REST, 1404 }, 
	{ NOTE_REST, 1404 }, 
	{ NOTE_REST, 1404 }, 
	{ NOTE_AS3, 175 }, 
	{ NOTE_A3, 175 }, 
	{ NOTE_AS3, 1054 }, 
	{ NOTE_AS3, 175 }, 
	{ NOTE_AS3, 175 }, 
	{ NOTE_REST, 175 }, 
	{ NOTE_AS3, 175 }, 
	{ NOTE_REST, 175 }, 
	{ NOTE_AS3, 175 }, 
	{ NOTE_REST, 354 }, 
	{ NOTE_REST, 702 }, 
	{ NOTE_DS4, 702 }, 
	{ NOTE_G4, 702 }, 
	{ NOTE_A4, 351 }, 
	{ NOTE_C5, 351 }, 
	{ NOTE_AS4, 1404 }, 
	{ NOTE_CS4, 175 }, 
	{ NOTE_CS4, 175 }, 
	{ NOTE_CS4, 175 }, 
	{ NOTE_CS4, 175 }, 
	{ NOTE_REST, 175 }, 
	{ NOTE_CS4, 175 }, 
	{ NOTE_CS4, 175 }, 
	{ NOTE_CS4, 179 }, 
	{ NOTE_DS4, 175 }, 
	{ NOTE_F4, 88 }, 
	{ NOTE_G4, 88 }, 
	{ NOTE_A4, 175 }, 
	{ NOTE_G4, 88 }, 
	{ NOTE_F4, 88 }, 
	{ NOTE_DS4, 175 }, 
	{ NOTE_F4, 88 }, 
	{ NOTE_G4, 88 }, 
	{ NOTE_A4, 175 }, 
	{ NOTE_G4, 88 }, 
	{ NOTE_F4, 88 }, 
	{ NOTE_DS3, 175 }, 
	{ NOTE_F3, 88 }, 
	{ NOTE_G3, 88 }, 
	{ NOTE_A3, 175 }, 
	{ NOTE_G3, 88 }, 
	{ NOTE_F3, 88 }, 
	{ NOTE_DS3, 175 }, 
	{ NOTE_F3, 88 }, 
	{ NOTE_G3, 88 }, 
	{ NOTE_A3, 175 }, 
	{ NOTE_G3, 88 }, 
	{ NOTE_F3, 88 }, 
	{ NOTE_REST, 1404 }, 
	{ NOTE_REST, 1404 }, 
	{ NOTE_REST, 1404 }, 
	{ NOTE_REST, 1404 }, 
	{ NOTE_REST, 1404 }, 
	{ NOTE_REST, 1404 }, 
	{ NOTE_CS4, 526 }, 
	{ NOTE_F4, 351 }, 
	{ NOTE_G4, 351 }, 
	{ NOTE_AS4, 176 }, 
	{ NOTE_GS4, 526 }, 
	{ NOTE_F4, 351 }, 
	{ NOTE_CS4, 351 }, 
	{ NOTE_AS3, 176 }, 
	{ NOTE_G3, 175 }, 
	{ NOTE_G3, 175 }, 
	{ NOTE_G3, 175 }, 
	{ NOTE_GS3, 175 }, 
	{ NOTE_REST, 704 }, 
	{ NOTE_REST, 1404 }, 
	{ NOTE_REST, 1404 }, 
};
const uint16_t NUM_OF_NOTES3 = sizeof(melody3)/sizeof(melody3[0]);

const Note melody4[] PROGMEM = {
	{ NOTE_G4, 2106 }, 
	{ NOTE_E3, 702 }, 
	{ NOTE_A3, 702 }, 
	{ NOTE_A3, 2106 }, 
	{ NOTE_REST, 1404 }, 
	{ NOTE_E4, 2808 }, 
	{ NOTE_C4, 526 }, 
	{ NOTE_E4, 351 }, 
	{ NOTE_FS4, 351 }, 
	{ NOTE_A4, 176 }, 
	{ NOTE_G4, 526 }, 
	{ NOTE_E4, 351 }, 
	{ NOTE_C4, 351 }, 
	{ NOTE_A3, 176 }, 
	{ NOTE_FS3, 175 }, 
	{ NOTE_FS3, 175 }, 
	{ NOTE_FS3, 175 }, 
	{ NOTE_G3, 702 }, 
	{ NOTE_REST, 177 }, 
	{ NOTE_REST, 175 }, 
	{ NOTE_C4, 175 }, 
	{ NOTE_C4, 175 }, 
	{ NOTE_C4, 175 }, 
	{ NOTE_C4, 175 }, 
	{ NOTE_C4, 529 }, 
	{ NOTE_B3, 351 }, 
	{ NOTE_REST, 1053 }, 
	{ NOTE_REST, 175 }, 
	{ NOTE_E4, 175 }, 
	{ NOTE_E4, 175 }, 
	{ NOTE_E4, 175 }, 
	{ NOTE_E4, 175 }, 
	{ NOTE_E4, 351 }, 
	{ NOTE_E4, 178 }, 
	{ NOTE_REST, 1404 }, 
	{ NOTE_REST, 1404 }, 
	{ NOTE_B2, 526 }, 
	{ NOTE_DS3, 351 }, 
	{ NOTE_F3, 351 }, 
	{ NOTE_DS4, 176 }, 
	{ NOTE_CS4, 526 }, 
	{ NOTE_B3, 351 }, 
	{ NOTE_A3, 351 }, 
	{ NOTE_F3, 176 }, 
	{ NOTE_A3, 175 }, 
	{ NOTE_A3, 175 }, 
	{ NOTE_A3, 175 }, 
	{ NOTE_B3, 175 }, 
	{ NOTE_REST, 704 }, 
	{ NOTE_B4, 88 }, 
	{ NOTE_DS5, 88 }, 
	{ NOTE_F5, 88 }, 
	{ NOTE_A5, 88 }, 
	{ NOTE_B5, 88 }, 
	{ NOTE_A5, 88 }, 
	{ NOTE_FS5, 88 }, 
	{ NOTE_DS5, 88 }, 
	{ NOTE_A5, 88 }, 
	{ NOTE_G5, 88 }, 
	{ NOTE_F5, 88 }, 
	{ NOTE_CS5, 88 }, 
	{ NOTE_G5, 88 }, 
	{ NOTE_F5, 88 }, 
	{ NOTE_DS5, 88 }, 
	{ NOTE_B4, 84 }, 
	{ NOTE_REST, 1404 }, 
	{ NOTE_REST, 1404 }, 
	{ NOTE_REST, 1404 }, 
	{ NOTE_REST, 1404 }, 
	{ NOTE_D4, 175 }, 
	{ NOTE_E4, 88 }, 
	{ NOTE_FS4, 88 }, 
	{ NOTE_GS4, 175 }, 
	{ NOTE_FS4, 88 }, 
	{ NOTE_E4, 88 }, 
	{ NOTE_D4, 175 }, 
	{ NOTE_E4, 88 }, 
	{ NOTE_FS4, 88 }, 
	{ NOTE_GS4, 175 }, 
	{ NOTE_FS4, 88 }, 
	{ NOTE_E4, 88 }, 
	{ NOTE_GS4, 351 }, 
	{ NOTE_E4, 351 }, 
	{ NOTE_GS4, 351 }, 
	{ NOTE_D4, 351 }, 
	{ NOTE_REST, 702 }, 
	{ NOTE_B4, 175 }, 
	{ NOTE_C5, 1931 }, 
	{ NOTE_FS4, 88 }, 
	{ NOTE_G4, 88 }, 
	{ NOTE_GS4, 702 }, 
	{ NOTE_B4, 175 }, 
	{ NOTE_E4, 175 }, 
	{ NOTE_FS4, 176 }, 
	{ NOTE_G4, 175 }, 
	{ NOTE_FS4, 175 }, 
	{ NOTE_E4, 175 }, 
	{ NOTE_B3, 88 }, 
	{ NOTE_C4, 614 }, 
	{ NOTE_E4, 352 }, 
	{ NOTE_FS4, 351 }, 
	{ NOTE_A4, 175 }, 
	{ NOTE_G4, 526 }, 
	{ NOTE_E4, 352 }, 
	{ NOTE_C4, 351 }, 
	{ NOTE_C5, 175 }, 
	{ NOTE_DS5, 175 }, 
	{ NOTE_C5, 175 }, 
	{ NOTE_D5, 175 }, 
	{ NOTE_C5, 178 }, 
	{ NOTE_DS3, 175 }, 
	{ NOTE_REST, 175 }, 
	{ NOTE_A2, 175 }, 
	{ NOTE_REST, 175 }, 
	{ NOTE_DS3, 175 }, 
	{ NOTE_REST, 175 }, 
	{ NOTE_A2, 175 }, 
	{ NOTE_REST, 179 }, 
	{ NOTE_DS3, 351 }, 
	{ NOTE_G3, 351 }, 
	{ NOTE_A3, 351 }, 
	{ NOTE_C4, 351 }, 
	{ NOTE_B2, 526 }, 
	{ NOTE_F2, 175 }, 
	{ NOTE_DS3, 175 }, 
	{ NOTE_F4, 351 }, 
	{ NOTE_GS4, 177 }, 
	{ NOTE_B2, 526 }, 
	{ NOTE_F2, 351 }, 
	{ NOTE_F2, 351 }, 
	{ NOTE_F2, 176 }, 
	{ NOTE_B2, 175 }, 
	{ NOTE_F3, 175 }, 
	{ NOTE_F3, 175 }, 
	{ NOTE_F2, 175 }, 
	{ NOTE_REST, 526 }, 
	{ NOTE_B3, 178 }, 
	{ NOTE_B2, 175 }, 
	{ NOTE_REST, 351 }, 
	{ NOTE_F2, 175 }, 
	{ NOTE_REST, 175 }, 
	{ NOTE_F2, 175 }, 
	{ NOTE_REST, 175 }, 
	{ NOTE_F2, 178 }, 
	{ NOTE_B2, 175 }, 
	{ NOTE_REST, 351 }, 
	{ NOTE_F2, 175 }, 
	{ NOTE_REST, 703 }, 
	{ NOTE_B2, 175 }, 
	{ NOTE_REST, 351 }, 
	{ NOTE_F2, 175 }, 
	{ NOTE_REST, 175 }, 
	{ NOTE_F2, 175 }, 
	{ NOTE_REST, 353 }, 
	{ NOTE_F5, 88 }, 
	{ NOTE_DS5, 88 }, 
	{ NOTE_CS5, 88 }, 
	{ NOTE_B4, 88 }, 
	{ NOTE_DS5, 88 }, 
	{ NOTE_CS5, 88 }, 
	{ NOTE_B4, 88 }, 
	{ NOTE_A4, 88 }, 
	{ NOTE_CS5, 88 }, 
	{ NOTE_B4, 88 }, 
	{ NOTE_A4, 88 }, 
	{ NOTE_G4, 88 }, 
	{ NOTE_B4, 88 }, 
	{ NOTE_A4, 88 }, 
	{ NOTE_G4, 88 }, 
	{ NOTE_F4, 84 }, 
	{ NOTE_REST, 175 }, 
	{ NOTE_B3, 175 }, 
	{ NOTE_B3, 175 }, 
	{ NOTE_B3, 175 }, 
	{ NOTE_B3, 175 }, 
	{ NOTE_B3, 175 }, 
	{ NOTE_B3, 175 }, 
	{ NOTE_B3, 179 }, 
	{ NOTE_C4, 351 }, 
	{ NOTE_REST, 1053 }, 
	{ NOTE_REST, 1404 }, 
	{ NOTE_AS3, 175 }, 
	{ NOTE_A3, 175 }, 
	{ NOTE_AS3, 1054 }, 
	{ NOTE_AS3, 175 }, 
	{ NOTE_AS3, 175 }, 
	{ NOTE_REST, 175 }, 
	{ NOTE_AS3, 175 }, 
	{ NOTE_REST, 175 }, 
	{ NOTE_AS3, 175 }, 
	{ NOTE_REST, 354 }, 
	{ NOTE_REST, 702 }, 
	{ NOTE_DS4, 702 }, 
	{ NOTE_G4, 702 }, 
	{ NOTE_A4, 351 }, 
	{ NOTE_C5, 351 }, 
	{ NOTE_AS4, 1404 }, 
	{ NOTE_CS4, 175 }, 
	{ NOTE_CS4, 175 }, 
	{ NOTE_CS4, 175 }, 
	{ NOTE_CS4, 175 }, 
	{ NOTE_REST, 175 }, 
	{ NOTE_CS4, 175 }, 
	{ NOTE_CS4, 175 }, 
	{ NOTE_CS4, 179 }, 
	{ NOTE_REST, 175 }, 
	{ NOTE_DS4, 175 }, 
	{ NOTE_REST, 175 }, 
	{ NOTE_DS4, 175 }, 
	{ NOTE_REST, 175 }, 
	{ NOTE_DS4, 175 }, 
	{ NOTE_REST, 175 }, 
	{ NOTE_DS4, 179 }, 
	{ NOTE_REST, 175 }, 
	{ NOTE_DS4, 175 }, 
	{ NOTE_REST, 175 }, 
	{ NOTE_DS4, 175 }, 
	{ NOTE_REST, 175 }, 
	{ NOTE_DS4, 175 }, 
	{ NOTE_REST, 175 }, 
	{ NOTE_DS4, 179 }, 
	{ NOTE_REST, 175 }, 
	{ NOTE_DS4, 175 }, 
	{ NOTE_REST, 175 }, 
	{ NOTE_DS4, 175 }, 
	{ NOTE_REST, 175 }, 
	{ NOTE_DS4, 175 }, 
	{ NOTE_REST, 175 }, 
	{ NOTE_DS4, 179 }, 
	{ NOTE_REST, 175 }, 
	{ NOTE_DS4, 175 }, 
	{ NOTE_REST, 175 }, 
	{ NOTE_DS4, 175 }, 
	{ NOTE_REST, 175 }, 
	{ NOTE_DS4, 175 }, 
	{ NOTE_REST, 175 }, 
	{ NOTE_DS4, 179 }, 
	{ NOTE_CS5, 44 }, 
	{ NOTE_DS5, 44 }, 
	{ NOTE_CS5, 44 }, 
	{ NOTE_DS5, 44 }, 
	{ NOTE_CS5, 44 }, 
	{ NOTE_DS5, 44 }, 
	{ NOTE_CS5, 44 }, 
	{ NOTE_DS5, 44 }, 
	{ NOTE_CS5, 44 }, 
	{ NOTE_DS5, 44 }, 
	{ NOTE_CS5, 44 }, 
	{ NOTE_DS5, 44 }, 
	{ NOTE_CS5, 44 }, 
	{ NOTE_DS5, 44 }, 
	{ NOTE_CS5, 44 }, 
	{ NOTE_DS5, 44 }, 
	{ NOTE_CS5, 44 }, 
	{ NOTE_DS5, 44 }, 
	{ NOTE_CS5, 44 }, 
	{ NOTE_DS5, 44 }, 
	{ NOTE_CS5, 44 }, 
	{ NOTE_DS5, 44 }, 
	{ NOTE_CS5, 44 }, 
	{ NOTE_DS5, 44 }, 
	{ NOTE_CS5, 44 }, 
	{ NOTE_DS5, 44 }, 
	{ NOTE_CS5, 44 }, 
	{ NOTE_DS5, 44 }, 
	{ NOTE_CS5, 44 }, 
	{ NOTE_DS5, 44 }, 
	{ NOTE_CS5, 44 }, 
	{ NOTE_DS5, 40 }, 
	{ NOTE_REST, 1404 }, 
	{ NOTE_REST, 1404 }, 
	{ NOTE_REST, 1404 }, 
	{ NOTE_CS4, 526 }, 
	{ NOTE_F4, 351 }, 
	{ NOTE_G4, 351 }, 
	{ NOTE_AS4, 176 }, 
	{ NOTE_GS4, 526 }, 
	{ NOTE_F4, 351 }, 
	{ NOTE_CS4, 351 }, 
	{ NOTE_AS3, 176 }, 
	{ NOTE_G3, 175 }, 
	{ NOTE_G3, 175 }, 
	{ NOTE_G3, 175 }, 
	{ NOTE_GS3, 175 }, 
	{ NOTE_REST, 704 }, 
	{ NOTE_REST, 175 }, 
	{ NOTE_CS4, 175 }, 
	{ NOTE_CS4, 175 }, 
	{ NOTE_CS4, 175 }, 
	{ NOTE_GS3, 175 }, 
	{ NOTE_B3, 529 }, 
	{ NOTE_CS3, 175 }, 
	{ NOTE_CS3, 175 }, 
	{ NOTE_CS3, 175 }, 
	{ NOTE_CS3, 175 }, 
	{ NOTE_REST, 704 }, 
};
const uint16_t NUM_OF_NOTES4 = sizeof(melody4)/sizeof(melody4[0]);

