/*
 * Song: Tico Tico No Fuba by Zequinha de Abreu
 *
 *	Melody 0 | Piano
 *	Melody 1 | Piano
 *	Melody 2 | Piano
 *	Melody 3 | Piano
 *	Melody 4 | Piano
*/

#include <Arduino.h>
#include "notes.h"

const Note melody0[] PROGMEM = {
	{ NOTE_E5, 150 }, 
	{ NOTE_D5, 300 }, 
	{ NOTE_C5, 150 }, 
	{ NOTE_B4, 300 }, 
	{ NOTE_A4, 300 }, 
	{ NOTE_GS4, 300 }, 
	{ NOTE_B4, 300 }, 
	{ NOTE_C5, 300 }, 
	{ NOTE_D5, 300 }, 
	{ NOTE_E5, 300 }, 
	{ NOTE_REST, 300 }, 
	{ NOTE_E5, 300 }, 
	{ NOTE_REST, 300 }, 
	{ NOTE_REST, 600 }, 
	{ NOTE_REST, 150 }, 
	{ NOTE_E4, 150 }, 
	{ NOTE_DS4, 150 }, 
	{ NOTE_E4, 150 }, 
	{ NOTE_F4, 150 }, 
	{ NOTE_E4, 150 }, 
	{ NOTE_A4, 450 }, 
	{ NOTE_E4, 150 }, 
	{ NOTE_DS4, 150 }, 
	{ NOTE_E4, 150 }, 
	{ NOTE_F4, 150 }, 
	{ NOTE_E4, 150 }, 
	{ NOTE_GS4, 450 }, 
	{ NOTE_E4, 150 }, 
	{ NOTE_DS4, 150 }, 
	{ NOTE_E4, 150 }, 
	{ NOTE_F4, 150 }, 
	{ NOTE_E4, 150 }, 
	{ NOTE_D5, 150 }, 
	{ NOTE_B4, 150 }, 
	{ NOTE_GS4, 150 }, 
	{ NOTE_F4, 150 }, 
	{ NOTE_D4, 150 }, 
	{ NOTE_DB4, 150 }, 
	{ NOTE_E4, 300 }, 
	{ NOTE_E4, 150 }, 
	{ NOTE_C4, 300 }, 
	{ NOTE_A4, 150 }, 
	{ NOTE_AB4, 150 }, 
	{ NOTE_G4, 150 }, 
	{ NOTE_F4, 150 }, 
	{ NOTE_A4, 150 }, 
	{ NOTE_D5, 450 }, 
	{ NOTE_C5, 150 }, 
	{ NOTE_A4, 150 }, 
	{ NOTE_F4, 150 }, 
	{ NOTE_E4, 150 }, 
	{ NOTE_A4, 150 }, 
	{ NOTE_C5, 450 }, 
	{ NOTE_C5, 150 }, 
	{ NOTE_B4, 150 }, 
	{ NOTE_AS4, 150 }, 
	{ NOTE_B4, 150 }, 
	{ NOTE_B3, 150 }, 
	{ NOTE_DS4, 150 }, 
	{ NOTE_FS4, 150 }, 
	{ NOTE_B4, 150 }, 
	{ NOTE_D5, 150 }, 
	{ NOTE_B5, 150 }, 
	{ NOTE_A5, 150 }, 
	{ NOTE_GS5, 150 }, 
	{ NOTE_E5, 300 }, 
	{ NOTE_E5, 150 }, 
	{ NOTE_E5, 75 }, 
	{ NOTE_REST, 75 }, 
	{ NOTE_E4, 150 }, 
	{ NOTE_DS4, 150 }, 
	{ NOTE_E4, 150 }, 
	{ NOTE_F4, 150 }, 
	{ NOTE_E4, 150 }, 
	{ NOTE_A4, 450 }, 
	{ NOTE_E4, 150 }, 
	{ NOTE_DS4, 150 }, 
	{ NOTE_E4, 150 }, 
	{ NOTE_F4, 150 }, 
	{ NOTE_E4, 150 }, 
	{ NOTE_GS4, 450 }, 
	{ NOTE_E4, 150 }, 
	{ NOTE_DS4, 150 }, 
	{ NOTE_E4, 150 }, 
	{ NOTE_F4, 150 }, 
	{ NOTE_E4, 150 }, 
	{ NOTE_D5, 150 }, 
	{ NOTE_B4, 150 }, 
	{ NOTE_GS4, 150 }, 
	{ NOTE_F4, 150 }, 
	{ NOTE_D4, 150 }, 
	{ NOTE_DB4, 150 }, 
	{ NOTE_E4, 300 }, 
	{ NOTE_E4, 150 }, 
	{ NOTE_C4, 300 }, 
	{ NOTE_A4, 150 }, 
	{ NOTE_AB4, 150 }, 
	{ NOTE_G4, 150 }, 
	{ NOTE_F4, 150 }, 
	{ NOTE_A4, 150 }, 
	{ NOTE_F4, 450 }, 
	{ NOTE_A4, 150 }, 
	{ NOTE_F4, 150 }, 
	{ NOTE_A4, 150 }, 
	{ NOTE_REST, 150 }, 
	{ NOTE_A4, 150 }, 
	{ NOTE_E4, 150 }, 
	{ NOTE_A4, 150 }, 
	{ NOTE_REST, 150 }, 
	{ NOTE_A4, 150 }, 
	{ NOTE_E4, 150 }, 
	{ NOTE_A4, 150 }, 
	{ NOTE_REST, 150 }, 
	{ NOTE_E4, 150 }, 
	{ NOTE_GS4, 150 }, 
	{ NOTE_B4, 150 }, 
	{ NOTE_E5, 150 }, 
	{ NOTE_D5, 150 }, 
	{ NOTE_C5, 150 }, 
	{ NOTE_B4, 150 }, 
	{ NOTE_A4, 300 }, 
	{ NOTE_E5, 300 }, 
	{ NOTE_E5, 600 }, 
	{ NOTE_E4, 150 }, 
	{ NOTE_DS4, 150 }, 
	{ NOTE_E4, 900 }, 
	{ NOTE_A4, 300 }, 
	{ NOTE_E5, 300 }, 
	{ NOTE_A4, 150 }, 
	{ NOTE_A4, 150 }, 
	{ NOTE_CS5, 150 }, 
	{ NOTE_E5, 150 }, 
	{ NOTE_A5, 150 }, 
	{ NOTE_A4, 150 }, 
	{ NOTE_CS5, 150 }, 
	{ NOTE_GS5, 300 }, 
	{ NOTE_A4, 150 }, 
	{ NOTE_CS5, 150 }, 
	{ NOTE_FS5, 150 }, 
	{ NOTE_FS5, 150 }, 
	{ NOTE_A4, 150 }, 
	{ NOTE_CS5, 150 }, 
	{ NOTE_E5, 300 }, 
	{ NOTE_A4, 150 }, 
	{ NOTE_CS5, 150 }, 
	{ NOTE_FS5, 150 }, 
	{ NOTE_FS5, 150 }, 
	{ NOTE_A4, 150 }, 
	{ NOTE_CS5, 150 }, 
	{ NOTE_E5, 300 }, 
	{ NOTE_A4, 150 }, 
	{ NOTE_CS5, 150 }, 
	{ NOTE_FS5, 150 }, 
	{ NOTE_FS5, 150 }, 
	{ NOTE_GS4, 150 }, 
	{ NOTE_B4, 150 }, 
	{ NOTE_E5, 300 }, 
	{ NOTE_D5, 150 }, 
	{ NOTE_E5, 150 }, 
	{ NOTE_FS5, 150 }, 
	{ NOTE_A5, 150 }, 
	{ NOTE_D5, 150 }, 
	{ NOTE_E5, 150 }, 
	{ NOTE_GS5, 300 }, 
	{ NOTE_D5, 150 }, 
	{ NOTE_E5, 150 }, 
	{ NOTE_FS5, 150 }, 
	{ NOTE_FS5, 150 }, 
	{ NOTE_B4, 150 }, 
	{ NOTE_D5, 150 }, 
	{ NOTE_E5, 300 }, 
	{ NOTE_D5, 150 }, 
	{ NOTE_E5, 150 }, 
	{ NOTE_FS5, 150 }, 
	{ NOTE_A5, 150 }, 
	{ NOTE_D5, 150 }, 
	{ NOTE_E5, 150 }, 
	{ NOTE_GS5, 300 }, 
	{ NOTE_D5, 150 }, 
	{ NOTE_E5, 150 }, 
	{ NOTE_FS5, 150 }, 
	{ NOTE_FS5, 150 }, 
	{ NOTE_A4, 150 }, 
	{ NOTE_CS5, 150 }, 
	{ NOTE_E5, 300 }, 
	{ NOTE_A4, 150 }, 
	{ NOTE_CS5, 150 }, 
	{ NOTE_E5, 150 }, 
	{ NOTE_A5, 150 }, 
	{ NOTE_A4, 150 }, 
	{ NOTE_CS5, 150 }, 
	{ NOTE_GS5, 300 }, 
	{ NOTE_A4, 150 }, 
	{ NOTE_CS5, 150 }, 
	{ NOTE_FS5, 150 }, 
	{ NOTE_FS5, 150 }, 
	{ NOTE_A4, 150 }, 
	{ NOTE_CS5, 150 }, 
	{ NOTE_E5, 300 }, 
	{ NOTE_A4, 150 }, 
	{ NOTE_CS5, 150 }, 
	{ NOTE_E5, 150 }, 
	{ NOTE_FS5, 150 }, 
	{ NOTE_E5, 150 }, 
	{ NOTE_CS5, 150 }, 
	{ NOTE_AS4, 150 }, 
	{ NOTE_FS5, 150 }, 
	{ NOTE_E5, 150 }, 
	{ NOTE_CS5, 150 }, 
	{ NOTE_AS4, 150 }, 
	{ NOTE_B4, 150 }, 
	{ NOTE_AS4, 150 }, 
	{ NOTE_B4, 150 }, 
	{ NOTE_CS5, 150 }, 
	{ NOTE_D5, 300 }, 
	{ NOTE_REST, 300 }, 
	{ NOTE_D4, 150 }, 
	{ NOTE_CS4, 150 }, 
	{ NOTE_D4, 150 }, 
	{ NOTE_E4, 150 }, 
	{ NOTE_FS4, 150 }, 
	{ NOTE_GS4, 150 }, 
	{ NOTE_A4, 150 }, 
	{ NOTE_B4, 150 }, 
	{ NOTE_CS5, 150 }, 
	{ NOTE_D5, 150 }, 
	{ NOTE_DS5, 150 }, 
	{ NOTE_E5, 150 }, 
	{ NOTE_FS5, 150 }, 
	{ NOTE_E5, 150 }, 
	{ NOTE_D5, 150 }, 
	{ NOTE_CS5, 150 }, 
	{ NOTE_B4, 150 }, 
	{ NOTE_A4, 150 }, 
	{ NOTE_GS4, 150 }, 
	{ NOTE_FS4, 150 }, 
	{ NOTE_E4, 150 }, 
	{ NOTE_D4, 150 }, 
	{ NOTE_CS4, 150 }, 
	{ NOTE_B3, 150 }, 
	{ NOTE_A3, 300 }, 
	{ NOTE_E4, 300 }, 
	{ NOTE_A4, 150 }, 
	{ NOTE_A4, 150 }, 
	{ NOTE_CS5, 150 }, 
	{ NOTE_E5, 150 }, 
	{ NOTE_A3, 300 }, 
	{ NOTE_E4, 300 }, 
	{ NOTE_E5, 150 }, 
	{ NOTE_E4, 150 }, 
	{ NOTE_DS4, 150 }, 
	{ NOTE_E4, 150 }, 
	{ NOTE_A4, 300 }, 
	{ NOTE_D4, 300 }, 
	{ NOTE_CS4, 75 }, 
	{ NOTE_REST, 75 }, 
	{ NOTE_B3, 150 }, 
	{ NOTE_A3, 150 }, 
	{ NOTE_AB3, 150 }, 
	{ NOTE_G3, 150 }, 
	{ NOTE_C4, 150 }, 
	{ NOTE_E4, 150 }, 
	{ NOTE_G4, 150 }, 
	{ NOTE_C5, 150 }, 
	{ NOTE_E5, 150 }, 
	{ NOTE_G4, 150 }, 
	{ NOTE_GS4, 150 }, 
	{ NOTE_A4, 300 }, 
	{ NOTE_F4, 450 }, 
	{ NOTE_B3, 150 }, 
	{ NOTE_A3, 150 }, 
	{ NOTE_AB3, 150 }, 
	{ NOTE_G3, 150 }, 
	{ NOTE_B3, 150 }, 
	{ NOTE_D4, 150 }, 
	{ NOTE_F4, 150 }, 
	{ NOTE_B4, 150 }, 
	{ NOTE_D5, 150 }, 
	{ NOTE_F4, 150 }, 
	{ NOTE_G4, 150 }, 
	{ NOTE_A4, 300 }, 
	{ NOTE_E4, 450 }, 
	{ NOTE_A5, 150 }, 
	{ NOTE_C5, 150 }, 
	{ NOTE_A5, 150 }, 
	{ NOTE_A5, 300 }, 
	{ NOTE_G5, 150 }, 
	{ NOTE_G4, 150 }, 
	{ NOTE_G5, 300 }, 
	{ NOTE_F5, 150 }, 
	{ NOTE_A4, 150 }, 
	{ NOTE_F5, 750 }, 
	{ NOTE_G5, 150 }, 
	{ NOTE_B4, 150 }, 
	{ NOTE_G5, 150 }, 
	{ NOTE_G5, 300 }, 
	{ NOTE_F5, 150 }, 
	{ NOTE_A4, 150 }, 
	{ NOTE_F5, 300 }, 
	{ NOTE_F5, 150 }, 
	{ NOTE_A4, 150 }, 
	{ NOTE_B4, 300 }, 
	{ NOTE_E5, 150 }, 
	{ NOTE_C5, 150 }, 
	{ NOTE_G4, 150 }, 
	{ NOTE_E4, 150 }, 
	{ NOTE_C4, 150 }, 
	{ NOTE_A3, 150 }, 
	{ NOTE_G3, 150 }, 
	{ NOTE_C4, 150 }, 
	{ NOTE_E4, 150 }, 
	{ NOTE_G4, 150 }, 
	{ NOTE_C5, 150 }, 
	{ NOTE_E5, 150 }, 
	{ NOTE_G4, 150 }, 
	{ NOTE_GS4, 150 }, 
	{ NOTE_A4, 300 }, 
	{ NOTE_F4, 450 }, 
	{ NOTE_B3, 150 }, 
	{ NOTE_A3, 150 }, 
	{ NOTE_AB3, 150 }, 
	{ NOTE_G3, 150 }, 
	{ NOTE_B3, 150 }, 
	{ NOTE_D4, 150 }, 
	{ NOTE_F4, 150 }, 
	{ NOTE_B4, 150 }, 
	{ NOTE_D5, 150 }, 
	{ NOTE_F4, 150 }, 
	{ NOTE_G4, 150 }, 
	{ NOTE_A4, 300 }, 
	{ NOTE_E4, 450 }, 
	{ NOTE_C5, 150 }, 
	{ NOTE_B4, 150 }, 
	{ NOTE_BB4, 150 }, 
	{ NOTE_A4, 150 }, 
	{ NOTE_GS4, 150 }, 
	{ NOTE_A4, 150 }, 
	{ NOTE_B4, 150 }, 
	{ NOTE_D5, 150 }, 
	{ NOTE_C5, 150 }, 
	{ NOTE_B4, 150 }, 
	{ NOTE_C5, 150 }, 
	{ NOTE_E5, 150 }, 
	{ NOTE_G4, 150 }, 
	{ NOTE_C5, 150 }, 
	{ NOTE_E5, 150 }, 
	{ NOTE_G5, 150 }, 
	{ NOTE_FS5, 150 }, 
	{ NOTE_F5, 150 }, 
	{ NOTE_E5, 150 }, 
	{ NOTE_D5, 150 }, 
	{ NOTE_C5, 150 }, 
	{ NOTE_B4, 150 }, 
	{ NOTE_A4, 150 }, 
	{ NOTE_G4, 150 }, 
	{ NOTE_F4, 150 }, 
	{ NOTE_E4, 150 }, 
	{ NOTE_D4, 150 }, 
	{ NOTE_C4, 300 }, 
	{ NOTE_REST, 300 }, 
	{ NOTE_E4, 150 }, 
	{ NOTE_B3, 150 }, 
	{ NOTE_BB3, 150 }, 
	{ NOTE_A3, 150 }, 
	{ NOTE_C4, 300 }, 
	{ NOTE_REST, 300 }, 
	{ NOTE_E4, 150 }, 
	{ NOTE_E4, 150 }, 
	{ NOTE_DS4, 150 }, 
	{ NOTE_E4, 150 }, 
};
const uint16_t NUM_OF_NOTES0 = sizeof(melody0)/sizeof(melody0[0]);

const Note melody1[] PROGMEM = {
	{ NOTE_E6, 150 }, 
	{ NOTE_D6, 300 }, 
	{ NOTE_C6, 150 }, 
	{ NOTE_B5, 300 }, 
	{ NOTE_A5, 300 }, 
	{ NOTE_GS5, 300 }, 
	{ NOTE_B5, 300 }, 
	{ NOTE_C6, 300 }, 
	{ NOTE_D6, 300 }, 
	{ NOTE_E6, 300 }, 
	{ NOTE_REST, 300 }, 
	{ NOTE_GS5, 300 }, 
	{ NOTE_REST, 300 }, 
	{ NOTE_REST, 600 }, 
	{ NOTE_REST, 150 }, 
	{ NOTE_E4, 150 }, 
	{ NOTE_DS4, 150 }, 
	{ NOTE_E4, 150 }, 
	{ NOTE_F4, 150 }, 
	{ NOTE_E4, 150 }, 
	{ NOTE_E5, 450 }, 
	{ NOTE_E4, 150 }, 
	{ NOTE_DS4, 150 }, 
	{ NOTE_E4, 150 }, 
	{ NOTE_F4, 150 }, 
	{ NOTE_E4, 150 }, 
	{ NOTE_E5, 450 }, 
	{ NOTE_E4, 150 }, 
	{ NOTE_DS4, 150 }, 
	{ NOTE_E4, 150 }, 
	{ NOTE_F4, 150 }, 
	{ NOTE_E4, 150 }, 
	{ NOTE_D5, 150 }, 
	{ NOTE_B4, 150 }, 
	{ NOTE_GS4, 150 }, 
	{ NOTE_F4, 150 }, 
	{ NOTE_D4, 150 }, 
	{ NOTE_DB4, 150 }, 
	{ NOTE_A4, 300 }, 
	{ NOTE_A4, 150 }, 
	{ NOTE_C4, 300 }, 
	{ NOTE_A4, 150 }, 
	{ NOTE_AB4, 150 }, 
	{ NOTE_G4, 150 }, 
	{ NOTE_F4, 150 }, 
	{ NOTE_A4, 150 }, 
	{ NOTE_D5, 450 }, 
	{ NOTE_C5, 150 }, 
	{ NOTE_A4, 150 }, 
	{ NOTE_F4, 150 }, 
	{ NOTE_E4, 150 }, 
	{ NOTE_A4, 150 }, 
	{ NOTE_C5, 450 }, 
	{ NOTE_C5, 150 }, 
	{ NOTE_B4, 150 }, 
	{ NOTE_AS4, 150 }, 
	{ NOTE_B4, 150 }, 
	{ NOTE_B3, 150 }, 
	{ NOTE_DS4, 150 }, 
	{ NOTE_FS4, 150 }, 
	{ NOTE_B4, 150 }, 
	{ NOTE_D5, 150 }, 
	{ NOTE_B5, 150 }, 
	{ NOTE_A5, 150 }, 
	{ NOTE_GS5, 150 }, 
	{ NOTE_GS5, 300 }, 
	{ NOTE_GS5, 150 }, 
	{ NOTE_GS5, 75 }, 
	{ NOTE_REST, 75 }, 
	{ NOTE_E4, 150 }, 
	{ NOTE_DS4, 150 }, 
	{ NOTE_E4, 150 }, 
	{ NOTE_F4, 150 }, 
	{ NOTE_E4, 150 }, 
	{ NOTE_E5, 450 }, 
	{ NOTE_E4, 150 }, 
	{ NOTE_DS4, 150 }, 
	{ NOTE_E4, 150 }, 
	{ NOTE_F4, 150 }, 
	{ NOTE_E4, 150 }, 
	{ NOTE_E5, 450 }, 
	{ NOTE_E4, 150 }, 
	{ NOTE_DS4, 150 }, 
	{ NOTE_E4, 150 }, 
	{ NOTE_F4, 150 }, 
	{ NOTE_E4, 150 }, 
	{ NOTE_D5, 150 }, 
	{ NOTE_B4, 150 }, 
	{ NOTE_GS4, 150 }, 
	{ NOTE_F4, 150 }, 
	{ NOTE_D4, 150 }, 
	{ NOTE_DB4, 150 }, 
	{ NOTE_A4, 300 }, 
	{ NOTE_A4, 150 }, 
	{ NOTE_C4, 300 }, 
	{ NOTE_A4, 150 }, 
	{ NOTE_AB4, 150 }, 
	{ NOTE_G4, 150 }, 
	{ NOTE_F4, 150 }, 
	{ NOTE_A4, 150 }, 
	{ NOTE_D5, 450 }, 
	{ NOTE_D5, 150 }, 
	{ NOTE_F4, 150 }, 
	{ NOTE_D5, 150 }, 
	{ NOTE_REST, 150 }, 
	{ NOTE_C5, 150 }, 
	{ NOTE_E4, 150 }, 
	{ NOTE_C5, 150 }, 
	{ NOTE_REST, 150 }, 
	{ NOTE_C5, 150 }, 
	{ NOTE_E4, 150 }, 
	{ NOTE_C5, 150 }, 
	{ NOTE_REST, 150 }, 
	{ NOTE_E4, 150 }, 
	{ NOTE_GS4, 150 }, 
	{ NOTE_B4, 150 }, 
	{ NOTE_E5, 150 }, 
	{ NOTE_D5, 150 }, 
	{ NOTE_C5, 150 }, 
	{ NOTE_B4, 150 }, 
	{ NOTE_A4, 300 }, 
	{ NOTE_E5, 300 }, 
	{ NOTE_A5, 600 }, 
	{ NOTE_E4, 150 }, 
	{ NOTE_DS4, 150 }, 
	{ NOTE_E4, 900 }, 
	{ NOTE_A4, 300 }, 
	{ NOTE_E5, 300 }, 
	{ NOTE_C5, 150 }, 
	{ NOTE_A4, 150 }, 
	{ NOTE_CS5, 150 }, 
	{ NOTE_E5, 150 }, 
	{ NOTE_A5, 150 }, 
	{ NOTE_A4, 150 }, 
	{ NOTE_CS5, 150 }, 
	{ NOTE_GS5, 300 }, 
	{ NOTE_A4, 150 }, 
	{ NOTE_CS5, 150 }, 
	{ NOTE_FS5, 150 }, 
	{ NOTE_FS5, 150 }, 
	{ NOTE_A4, 150 }, 
	{ NOTE_CS5, 150 }, 
	{ NOTE_E5, 300 }, 
	{ NOTE_A4, 150 }, 
	{ NOTE_CS5, 150 }, 
	{ NOTE_FS5, 150 }, 
	{ NOTE_FS5, 150 }, 
	{ NOTE_A4, 150 }, 
	{ NOTE_CS5, 150 }, 
	{ NOTE_E5, 300 }, 
	{ NOTE_A4, 150 }, 
	{ NOTE_CS5, 150 }, 
	{ NOTE_FS5, 150 }, 
	{ NOTE_FS5, 150 }, 
	{ NOTE_GS4, 150 }, 
	{ NOTE_B4, 150 }, 
	{ NOTE_E5, 300 }, 
	{ NOTE_D5, 150 }, 
	{ NOTE_E5, 150 }, 
	{ NOTE_FS5, 150 }, 
	{ NOTE_A5, 150 }, 
	{ NOTE_D5, 150 }, 
	{ NOTE_E5, 150 }, 
	{ NOTE_GS5, 300 }, 
	{ NOTE_D5, 150 }, 
	{ NOTE_E5, 150 }, 
	{ NOTE_FS5, 150 }, 
	{ NOTE_FS5, 150 }, 
	{ NOTE_B4, 150 }, 
	{ NOTE_D5, 150 }, 
	{ NOTE_E5, 300 }, 
	{ NOTE_D5, 150 }, 
	{ NOTE_E5, 150 }, 
	{ NOTE_FS5, 150 }, 
	{ NOTE_A5, 150 }, 
	{ NOTE_D5, 150 }, 
	{ NOTE_E5, 150 }, 
	{ NOTE_GS5, 300 }, 
	{ NOTE_D5, 150 }, 
	{ NOTE_E5, 150 }, 
	{ NOTE_FS5, 150 }, 
	{ NOTE_FS5, 150 }, 
	{ NOTE_A4, 150 }, 
	{ NOTE_CS5, 150 }, 
	{ NOTE_E5, 300 }, 
	{ NOTE_A4, 150 }, 
	{ NOTE_CS5, 150 }, 
	{ NOTE_E5, 150 }, 
	{ NOTE_A5, 150 }, 
	{ NOTE_A4, 150 }, 
	{ NOTE_CS5, 150 }, 
	{ NOTE_GS5, 300 }, 
	{ NOTE_A4, 150 }, 
	{ NOTE_CS5, 150 }, 
	{ NOTE_FS5, 150 }, 
	{ NOTE_FS5, 150 }, 
	{ NOTE_A4, 150 }, 
	{ NOTE_CS5, 150 }, 
	{ NOTE_E5, 300 }, 
	{ NOTE_A4, 150 }, 
	{ NOTE_CS5, 150 }, 
	{ NOTE_E5, 150 }, 
	{ NOTE_FS5, 150 }, 
	{ NOTE_E5, 150 }, 
	{ NOTE_CS5, 150 }, 
	{ NOTE_AS4, 150 }, 
	{ NOTE_FS5, 150 }, 
	{ NOTE_E5, 150 }, 
	{ NOTE_CS5, 150 }, 
	{ NOTE_AS4, 150 }, 
	{ NOTE_B4, 150 }, 
	{ NOTE_AS4, 150 }, 
	{ NOTE_B4, 150 }, 
	{ NOTE_CS5, 150 }, 
	{ NOTE_D5, 300 }, 
	{ NOTE_REST, 300 }, 
	{ NOTE_D4, 150 }, 
	{ NOTE_CS4, 150 }, 
	{ NOTE_D4, 150 }, 
	{ NOTE_E4, 150 }, 
	{ NOTE_FS4, 150 }, 
	{ NOTE_GS4, 150 }, 
	{ NOTE_A4, 150 }, 
	{ NOTE_B4, 150 }, 
	{ NOTE_CS5, 150 }, 
	{ NOTE_D5, 150 }, 
	{ NOTE_DS5, 150 }, 
	{ NOTE_E5, 150 }, 
	{ NOTE_FS5, 150 }, 
	{ NOTE_E5, 150 }, 
	{ NOTE_D5, 150 }, 
	{ NOTE_CS5, 150 }, 
	{ NOTE_B4, 150 }, 
	{ NOTE_A4, 150 }, 
	{ NOTE_GS4, 150 }, 
	{ NOTE_FS4, 150 }, 
	{ NOTE_E4, 150 }, 
	{ NOTE_D4, 150 }, 
	{ NOTE_CS4, 150 }, 
	{ NOTE_B3, 150 }, 
	{ NOTE_A3, 300 }, 
	{ NOTE_E4, 300 }, 
	{ NOTE_E5, 150 }, 
	{ NOTE_A4, 150 }, 
	{ NOTE_CS5, 150 }, 
	{ NOTE_E5, 150 }, 
	{ NOTE_A3, 300 }, 
	{ NOTE_E4, 300 }, 
	{ NOTE_A5, 150 }, 
	{ NOTE_E4, 150 }, 
	{ NOTE_DS4, 150 }, 
	{ NOTE_E4, 150 }, 
	{ NOTE_A4, 300 }, 
	{ NOTE_E4, 300 }, 
	{ NOTE_E4, 75 }, 
	{ NOTE_REST, 75 }, 
	{ NOTE_B3, 150 }, 
	{ NOTE_A3, 150 }, 
	{ NOTE_AB3, 150 }, 
	{ NOTE_G3, 150 }, 
	{ NOTE_C4, 150 }, 
	{ NOTE_E4, 150 }, 
	{ NOTE_G4, 150 }, 
	{ NOTE_C5, 150 }, 
	{ NOTE_E5, 150 }, 
	{ NOTE_G5, 150 }, 
	{ NOTE_GS5, 150 }, 
	{ NOTE_A5, 300 }, 
	{ NOTE_F5, 450 }, 
	{ NOTE_B3, 150 }, 
	{ NOTE_A3, 150 }, 
	{ NOTE_AB3, 150 }, 
	{ NOTE_G3, 150 }, 
	{ NOTE_B3, 150 }, 
	{ NOTE_D4, 150 }, 
	{ NOTE_F4, 150 }, 
	{ NOTE_B4, 150 }, 
	{ NOTE_D5, 150 }, 
	{ NOTE_F5, 150 }, 
	{ NOTE_G5, 150 }, 
	{ NOTE_A5, 300 }, 
	{ NOTE_E5, 450 }, 
	{ NOTE_C6, 150 }, 
	{ NOTE_C5, 150 }, 
	{ NOTE_C6, 150 }, 
	{ NOTE_C6, 300 }, 
	{ NOTE_B5, 150 }, 
	{ NOTE_G4, 150 }, 
	{ NOTE_B5, 300 }, 
	{ NOTE_A5, 150 }, 
	{ NOTE_A4, 150 }, 
	{ NOTE_A5, 750 }, 
	{ NOTE_B5, 150 }, 
	{ NOTE_B4, 150 }, 
	{ NOTE_B5, 150 }, 
	{ NOTE_B5, 300 }, 
	{ NOTE_A5, 150 }, 
	{ NOTE_A4, 150 }, 
	{ NOTE_A5, 300 }, 
	{ NOTE_A5, 150 }, 
	{ NOTE_A4, 150 }, 
	{ NOTE_E5, 300 }, 
	{ NOTE_E5, 150 }, 
	{ NOTE_C5, 150 }, 
	{ NOTE_G4, 150 }, 
	{ NOTE_E4, 150 }, 
	{ NOTE_C4, 150 }, 
	{ NOTE_A3, 150 }, 
	{ NOTE_G3, 150 }, 
	{ NOTE_C4, 150 }, 
	{ NOTE_E4, 150 }, 
	{ NOTE_G4, 150 }, 
	{ NOTE_C5, 150 }, 
	{ NOTE_E5, 150 }, 
	{ NOTE_G5, 150 }, 
	{ NOTE_GS5, 150 }, 
	{ NOTE_A5, 300 }, 
	{ NOTE_F5, 450 }, 
	{ NOTE_B3, 150 }, 
	{ NOTE_A3, 150 }, 
	{ NOTE_AB3, 150 }, 
	{ NOTE_G3, 150 }, 
	{ NOTE_B3, 150 }, 
	{ NOTE_D4, 150 }, 
	{ NOTE_F4, 150 }, 
	{ NOTE_B4, 150 }, 
	{ NOTE_D5, 150 }, 
	{ NOTE_F5, 150 }, 
	{ NOTE_G5, 150 }, 
	{ NOTE_A5, 300 }, 
	{ NOTE_E5, 450 }, 
	{ NOTE_C5, 150 }, 
	{ NOTE_B4, 150 }, 
	{ NOTE_BB4, 150 }, 
	{ NOTE_A4, 150 }, 
	{ NOTE_GS4, 150 }, 
	{ NOTE_A4, 150 }, 
	{ NOTE_B4, 150 }, 
	{ NOTE_D5, 150 }, 
	{ NOTE_C5, 150 }, 
	{ NOTE_B4, 150 }, 
	{ NOTE_C5, 150 }, 
	{ NOTE_E5, 150 }, 
	{ NOTE_G4, 150 }, 
	{ NOTE_C5, 150 }, 
	{ NOTE_E5, 150 }, 
	{ NOTE_G5, 150 }, 
	{ NOTE_FS5, 150 }, 
	{ NOTE_F5, 150 }, 
	{ NOTE_E5, 150 }, 
	{ NOTE_D5, 150 }, 
	{ NOTE_C5, 150 }, 
	{ NOTE_B4, 150 }, 
	{ NOTE_A4, 150 }, 
	{ NOTE_G4, 150 }, 
	{ NOTE_F4, 150 }, 
	{ NOTE_E4, 150 }, 
	{ NOTE_D4, 150 }, 
	{ NOTE_C4, 300 }, 
	{ NOTE_REST, 300 }, 
	{ NOTE_G4, 150 }, 
	{ NOTE_B3, 150 }, 
	{ NOTE_BB3, 150 }, 
	{ NOTE_A3, 150 }, 
	{ NOTE_C4, 300 }, 
	{ NOTE_REST, 300 }, 
	{ NOTE_G4, 150 }, 
	{ NOTE_E4, 150 }, 
	{ NOTE_DS4, 150 }, 
	{ NOTE_E4, 150 }, 
};
const uint16_t NUM_OF_NOTES1 = sizeof(melody1)/sizeof(melody1[0]);

const Note melody2[] PROGMEM = {
	{ NOTE_REST, 150 }, 
	{ NOTE_REST, 300 }, 
	{ NOTE_REST, 150 }, 
	{ NOTE_REST, 300 }, 
	{ NOTE_REST, 300 }, 
	{ NOTE_REST, 300 }, 
	{ NOTE_REST, 300 }, 
	{ NOTE_REST, 300 }, 
	{ NOTE_REST, 300 }, 
	{ NOTE_REST, 300 }, 
	{ NOTE_REST, 300 }, 
	{ NOTE_B5, 300 }, 
	{ NOTE_REST, 300 }, 
	{ NOTE_REST, 600 }, 
	{ NOTE_REST, 150 }, 
	{ NOTE_E4, 150 }, 
	{ NOTE_DS4, 150 }, 
	{ NOTE_E4, 150 }, 
	{ NOTE_F4, 150 }, 
	{ NOTE_E4, 150 }, 
	{ NOTE_REST, 450 }, 
	{ NOTE_E4, 150 }, 
	{ NOTE_DS4, 150 }, 
	{ NOTE_E4, 150 }, 
	{ NOTE_F4, 150 }, 
	{ NOTE_E4, 150 }, 
	{ NOTE_REST, 450 }, 
	{ NOTE_E4, 150 }, 
	{ NOTE_DS4, 150 }, 
	{ NOTE_E4, 150 }, 
	{ NOTE_F4, 150 }, 
	{ NOTE_E4, 150 }, 
	{ NOTE_D5, 150 }, 
	{ NOTE_B4, 150 }, 
	{ NOTE_GS4, 150 }, 
	{ NOTE_F4, 150 }, 
	{ NOTE_D4, 150 }, 
	{ NOTE_DB4, 150 }, 
	{ NOTE_REST, 300 }, 
	{ NOTE_REST, 150 }, 
	{ NOTE_C4, 300 }, 
	{ NOTE_A4, 150 }, 
	{ NOTE_AB4, 150 }, 
	{ NOTE_G4, 150 }, 
	{ NOTE_F4, 150 }, 
	{ NOTE_A4, 150 }, 
	{ NOTE_D5, 450 }, 
	{ NOTE_C5, 150 }, 
	{ NOTE_A4, 150 }, 
	{ NOTE_F4, 150 }, 
	{ NOTE_E4, 150 }, 
	{ NOTE_A4, 150 }, 
	{ NOTE_C5, 450 }, 
	{ NOTE_C5, 150 }, 
	{ NOTE_B4, 150 }, 
	{ NOTE_AS4, 150 }, 
	{ NOTE_B4, 150 }, 
	{ NOTE_B3, 150 }, 
	{ NOTE_DS4, 150 }, 
	{ NOTE_FS4, 150 }, 
	{ NOTE_B4, 150 }, 
	{ NOTE_D5, 150 }, 
	{ NOTE_B5, 150 }, 
	{ NOTE_A5, 150 }, 
	{ NOTE_GS5, 150 }, 
	{ NOTE_B5, 300 }, 
	{ NOTE_REST, 150 }, 
	{ NOTE_B5, 75 }, 
	{ NOTE_REST, 75 }, 
	{ NOTE_E4, 150 }, 
	{ NOTE_DS4, 150 }, 
	{ NOTE_E4, 150 }, 
	{ NOTE_F4, 150 }, 
	{ NOTE_E4, 150 }, 
	{ NOTE_REST, 450 }, 
	{ NOTE_E4, 150 }, 
	{ NOTE_DS4, 150 }, 
	{ NOTE_E4, 150 }, 
	{ NOTE_F4, 150 }, 
	{ NOTE_E4, 150 }, 
	{ NOTE_REST, 450 }, 
	{ NOTE_E4, 150 }, 
	{ NOTE_DS4, 150 }, 
	{ NOTE_E4, 150 }, 
	{ NOTE_F4, 150 }, 
	{ NOTE_E4, 150 }, 
	{ NOTE_D5, 150 }, 
	{ NOTE_B4, 150 }, 
	{ NOTE_GS4, 150 }, 
	{ NOTE_F4, 150 }, 
	{ NOTE_D4, 150 }, 
	{ NOTE_DB4, 150 }, 
	{ NOTE_REST, 300 }, 
	{ NOTE_REST, 150 }, 
	{ NOTE_C4, 300 }, 
	{ NOTE_A4, 150 }, 
	{ NOTE_AB4, 150 }, 
	{ NOTE_G4, 150 }, 
	{ NOTE_F4, 150 }, 
	{ NOTE_A4, 150 }, 
	{ NOTE_REST, 450 }, 
	{ NOTE_REST, 150 }, 
	{ NOTE_F4, 150 }, 
	{ NOTE_REST, 150 }, 
	{ NOTE_REST, 150 }, 
	{ NOTE_REST, 150 }, 
	{ NOTE_E4, 150 }, 
	{ NOTE_REST, 150 }, 
	{ NOTE_REST, 150 }, 
	{ NOTE_REST, 150 }, 
	{ NOTE_E4, 150 }, 
	{ NOTE_REST, 150 }, 
	{ NOTE_REST, 150 }, 
	{ NOTE_E4, 150 }, 
	{ NOTE_GS4, 150 }, 
	{ NOTE_B4, 150 }, 
	{ NOTE_E5, 150 }, 
	{ NOTE_D5, 150 }, 
	{ NOTE_C5, 150 }, 
	{ NOTE_B4, 150 }, 
	{ NOTE_A4, 300 }, 
	{ NOTE_E5, 300 }, 
	{ NOTE_REST, 600 }, 
	{ NOTE_E4, 150 }, 
	{ NOTE_DS4, 150 }, 
	{ NOTE_E4, 900 }, 
	{ NOTE_A4, 300 }, 
	{ NOTE_E5, 300 }, 
	{ NOTE_E5, 150 }, 
	{ NOTE_A4, 150 }, 
	{ NOTE_CS5, 150 }, 
	{ NOTE_E5, 150 }, 
	{ NOTE_A5, 150 }, 
	{ NOTE_A4, 150 }, 
	{ NOTE_CS5, 150 }, 
	{ NOTE_GS5, 300 }, 
	{ NOTE_A4, 150 }, 
	{ NOTE_CS5, 150 }, 
	{ NOTE_FS5, 150 }, 
	{ NOTE_FS5, 150 }, 
	{ NOTE_A4, 150 }, 
	{ NOTE_CS5, 150 }, 
	{ NOTE_E5, 300 }, 
	{ NOTE_A4, 150 }, 
	{ NOTE_CS5, 150 }, 
	{ NOTE_FS5, 150 }, 
	{ NOTE_FS5, 150 }, 
	{ NOTE_A4, 150 }, 
	{ NOTE_CS5, 150 }, 
	{ NOTE_E5, 300 }, 
	{ NOTE_A4, 150 }, 
	{ NOTE_CS5, 150 }, 
	{ NOTE_FS5, 150 }, 
	{ NOTE_FS5, 150 }, 
	{ NOTE_GS4, 150 }, 
	{ NOTE_B4, 150 }, 
	{ NOTE_E5, 300 }, 
	{ NOTE_D5, 150 }, 
	{ NOTE_E5, 150 }, 
	{ NOTE_FS5, 150 }, 
	{ NOTE_A5, 150 }, 
	{ NOTE_D5, 150 }, 
	{ NOTE_E5, 150 }, 
	{ NOTE_GS5, 300 }, 
	{ NOTE_D5, 150 }, 
	{ NOTE_E5, 150 }, 
	{ NOTE_FS5, 150 }, 
	{ NOTE_FS5, 150 }, 
	{ NOTE_B4, 150 }, 
	{ NOTE_D5, 150 }, 
	{ NOTE_E5, 300 }, 
	{ NOTE_D5, 150 }, 
	{ NOTE_E5, 150 }, 
	{ NOTE_FS5, 150 }, 
	{ NOTE_A5, 150 }, 
	{ NOTE_D5, 150 }, 
	{ NOTE_E5, 150 }, 
	{ NOTE_GS5, 300 }, 
	{ NOTE_D5, 150 }, 
	{ NOTE_E5, 150 }, 
	{ NOTE_FS5, 150 }, 
	{ NOTE_FS5, 150 }, 
	{ NOTE_A4, 150 }, 
	{ NOTE_CS5, 150 }, 
	{ NOTE_E5, 300 }, 
	{ NOTE_A4, 150 }, 
	{ NOTE_CS5, 150 }, 
	{ NOTE_E5, 150 }, 
	{ NOTE_A5, 150 }, 
	{ NOTE_A4, 150 }, 
	{ NOTE_CS5, 150 }, 
	{ NOTE_GS5, 300 }, 
	{ NOTE_A4, 150 }, 
	{ NOTE_CS5, 150 }, 
	{ NOTE_FS5, 150 }, 
	{ NOTE_FS5, 150 }, 
	{ NOTE_A4, 150 }, 
	{ NOTE_CS5, 150 }, 
	{ NOTE_E5, 300 }, 
	{ NOTE_A4, 150 }, 
	{ NOTE_CS5, 150 }, 
	{ NOTE_E5, 150 }, 
	{ NOTE_FS5, 150 }, 
	{ NOTE_E5, 150 }, 
	{ NOTE_CS5, 150 }, 
	{ NOTE_AS4, 150 }, 
	{ NOTE_FS5, 150 }, 
	{ NOTE_E5, 150 }, 
	{ NOTE_CS5, 150 }, 
	{ NOTE_AS4, 150 }, 
	{ NOTE_B4, 150 }, 
	{ NOTE_AS4, 150 }, 
	{ NOTE_B4, 150 }, 
	{ NOTE_CS5, 150 }, 
	{ NOTE_D5, 300 }, 
	{ NOTE_REST, 300 }, 
	{ NOTE_D4, 150 }, 
	{ NOTE_CS4, 150 }, 
	{ NOTE_D4, 150 }, 
	{ NOTE_E4, 150 }, 
	{ NOTE_FS4, 150 }, 
	{ NOTE_GS4, 150 }, 
	{ NOTE_A4, 150 }, 
	{ NOTE_B4, 150 }, 
	{ NOTE_CS5, 150 }, 
	{ NOTE_D5, 150 }, 
	{ NOTE_DS5, 150 }, 
	{ NOTE_E5, 150 }, 
	{ NOTE_FS5, 150 }, 
	{ NOTE_E5, 150 }, 
	{ NOTE_D5, 150 }, 
	{ NOTE_CS5, 150 }, 
	{ NOTE_B4, 150 }, 
	{ NOTE_A4, 150 }, 
	{ NOTE_GS4, 150 }, 
	{ NOTE_FS4, 150 }, 
	{ NOTE_E4, 150 }, 
	{ NOTE_D4, 150 }, 
	{ NOTE_CS4, 150 }, 
	{ NOTE_B3, 150 }, 
	{ NOTE_A3, 300 }, 
	{ NOTE_E4, 300 }, 
	{ NOTE_A5, 150 }, 
	{ NOTE_A4, 150 }, 
	{ NOTE_CS5, 150 }, 
	{ NOTE_E5, 150 }, 
	{ NOTE_A3, 300 }, 
	{ NOTE_E4, 300 }, 
	{ NOTE_REST, 150 }, 
	{ NOTE_E4, 150 }, 
	{ NOTE_DS4, 150 }, 
	{ NOTE_E4, 150 }, 
	{ NOTE_A4, 300 }, 
	{ NOTE_GS4, 300 }, 
	{ NOTE_A4, 75 }, 
	{ NOTE_REST, 75 }, 
	{ NOTE_B3, 150 }, 
	{ NOTE_A3, 150 }, 
	{ NOTE_AB3, 150 }, 
	{ NOTE_G3, 150 }, 
	{ NOTE_C4, 150 }, 
	{ NOTE_E4, 150 }, 
	{ NOTE_G4, 150 }, 
	{ NOTE_C5, 150 }, 
	{ NOTE_E5, 150 }, 
	{ NOTE_REST, 150 }, 
	{ NOTE_REST, 150 }, 
	{ NOTE_REST, 300 }, 
	{ NOTE_REST, 450 }, 
	{ NOTE_B3, 150 }, 
	{ NOTE_A3, 150 }, 
	{ NOTE_AB3, 150 }, 
	{ NOTE_G3, 150 }, 
	{ NOTE_B3, 150 }, 
	{ NOTE_D4, 150 }, 
	{ NOTE_F4, 150 }, 
	{ NOTE_B4, 150 }, 
	{ NOTE_D5, 150 }, 
	{ NOTE_REST, 150 }, 
	{ NOTE_REST, 150 }, 
	{ NOTE_REST, 300 }, 
	{ NOTE_REST, 450 }, 
	{ NOTE_REST, 150 }, 
	{ NOTE_C5, 150 }, 
	{ NOTE_REST, 150 }, 
	{ NOTE_REST, 300 }, 
	{ NOTE_REST, 150 }, 
	{ NOTE_G4, 150 }, 
	{ NOTE_REST, 300 }, 
	{ NOTE_REST, 150 }, 
	{ NOTE_A4, 150 }, 
	{ NOTE_REST, 750 }, 
	{ NOTE_REST, 150 }, 
	{ NOTE_B4, 150 }, 
	{ NOTE_REST, 150 }, 
	{ NOTE_REST, 300 }, 
	{ NOTE_REST, 150 }, 
	{ NOTE_A4, 150 }, 
	{ NOTE_REST, 300 }, 
	{ NOTE_REST, 150 }, 
	{ NOTE_A4, 150 }, 
	{ NOTE_G5, 300 }, 
	{ NOTE_E5, 150 }, 
	{ NOTE_C5, 150 }, 
	{ NOTE_G4, 150 }, 
	{ NOTE_E4, 150 }, 
	{ NOTE_C4, 150 }, 
	{ NOTE_A3, 150 }, 
	{ NOTE_G3, 150 }, 
	{ NOTE_C4, 150 }, 
	{ NOTE_E4, 150 }, 
	{ NOTE_G4, 150 }, 
	{ NOTE_C5, 150 }, 
	{ NOTE_E5, 150 }, 
	{ NOTE_REST, 150 }, 
	{ NOTE_REST, 150 }, 
	{ NOTE_REST, 300 }, 
	{ NOTE_REST, 450 }, 
	{ NOTE_B3, 150 }, 
	{ NOTE_A3, 150 }, 
	{ NOTE_AB3, 150 }, 
	{ NOTE_G3, 150 }, 
	{ NOTE_B3, 150 }, 
	{ NOTE_D4, 150 }, 
	{ NOTE_F4, 150 }, 
	{ NOTE_B4, 150 }, 
	{ NOTE_D5, 150 }, 
	{ NOTE_REST, 150 }, 
	{ NOTE_REST, 150 }, 
	{ NOTE_REST, 300 }, 
	{ NOTE_REST, 450 }, 
	{ NOTE_C5, 150 }, 
	{ NOTE_B4, 150 }, 
	{ NOTE_BB4, 150 }, 
	{ NOTE_A4, 150 }, 
	{ NOTE_GS4, 150 }, 
	{ NOTE_A4, 150 }, 
	{ NOTE_B4, 150 }, 
	{ NOTE_D5, 150 }, 
	{ NOTE_C5, 150 }, 
	{ NOTE_B4, 150 }, 
	{ NOTE_C5, 150 }, 
	{ NOTE_E5, 150 }, 
	{ NOTE_G4, 150 }, 
	{ NOTE_C5, 150 }, 
	{ NOTE_E5, 150 }, 
	{ NOTE_G5, 150 }, 
	{ NOTE_FS5, 150 }, 
	{ NOTE_F5, 150 }, 
	{ NOTE_E5, 150 }, 
	{ NOTE_D5, 150 }, 
	{ NOTE_C5, 150 }, 
	{ NOTE_B4, 150 }, 
	{ NOTE_A4, 150 }, 
	{ NOTE_G4, 150 }, 
	{ NOTE_F4, 150 }, 
	{ NOTE_E4, 150 }, 
	{ NOTE_D4, 150 }, 
	{ NOTE_C4, 300 }, 
	{ NOTE_REST, 300 }, 
	{ NOTE_C5, 150 }, 
	{ NOTE_B3, 150 }, 
	{ NOTE_BB3, 150 }, 
	{ NOTE_A3, 150 }, 
	{ NOTE_C4, 300 }, 
	{ NOTE_REST, 300 }, 
	{ NOTE_C5, 150 }, 
	{ NOTE_E4, 150 }, 
	{ NOTE_DS4, 150 }, 
	{ NOTE_E4, 150 }, 
};
const uint16_t NUM_OF_NOTES2 = sizeof(melody2)/sizeof(melody2[0]);

const Note melody3[] PROGMEM = {
	{ NOTE_E5, 150 }, 
	{ NOTE_D5, 300 }, 
	{ NOTE_C5, 150 }, 
	{ NOTE_B4, 300 }, 
	{ NOTE_A4, 300 }, 
	{ NOTE_GS4, 300 }, 
	{ NOTE_G4, 300 }, 
	{ NOTE_FS4, 300 }, 
	{ NOTE_F4, 300 }, 
	{ NOTE_E4, 300 }, 
	{ NOTE_REST, 300 }, 
	{ NOTE_E4, 300 }, 
	{ NOTE_REST, 300 }, 
	{ NOTE_E3, 600 }, 
	{ NOTE_REST, 600 }, 
	{ NOTE_A3, 450 }, 
	{ NOTE_C5, 150 }, 
	{ NOTE_E4, 300 }, 
	{ NOTE_C4, 300 }, 
	{ NOTE_B3, 150 }, 
	{ NOTE_B4, 300 }, 
	{ NOTE_B4, 150 }, 
	{ NOTE_B3, 300 }, 
	{ NOTE_B4, 300 }, 
	{ NOTE_E4, 150 }, 
	{ NOTE_B4, 300 }, 
	{ NOTE_B4, 150 }, 
	{ NOTE_D4, 300 }, 
	{ NOTE_B4, 300 }, 
	{ NOTE_C4, 150 }, 
	{ NOTE_A4, 300 }, 
	{ NOTE_A4, 150 }, 
	{ NOTE_C4, 300 }, 
	{ NOTE_A4, 300 }, 
	{ NOTE_D4, 150 }, 
	{ NOTE_A4, 300 }, 
	{ NOTE_A4, 150 }, 
	{ NOTE_D4, 300 }, 
	{ NOTE_DS4, 300 }, 
	{ NOTE_E4, 150 }, 
	{ NOTE_C5, 300 }, 
	{ NOTE_C5, 150 }, 
	{ NOTE_E4, 300 }, 
	{ NOTE_C5, 300 }, 
	{ NOTE_B2, 450 }, 
	{ NOTE_B3, 150 }, 
	{ NOTE_B2, 300 }, 
	{ NOTE_DS4, 300 }, 
	{ NOTE_E4, 150 }, 
	{ NOTE_B3, 300 }, 
	{ NOTE_B3, 150 }, 
	{ NOTE_E4, 150 }, 
	{ NOTE_REST, 150 }, 
	{ NOTE_REST, 300 }, 
	{ NOTE_A3, 450 }, 
	{ NOTE_C5, 150 }, 
	{ NOTE_E4, 300 }, 
	{ NOTE_C4, 300 }, 
	{ NOTE_B3, 150 }, 
	{ NOTE_B4, 300 }, 
	{ NOTE_B4, 150 }, 
	{ NOTE_B3, 300 }, 
	{ NOTE_B4, 300 }, 
	{ NOTE_E4, 150 }, 
	{ NOTE_B4, 300 }, 
	{ NOTE_B4, 150 }, 
	{ NOTE_D4, 300 }, 
	{ NOTE_B4, 300 }, 
	{ NOTE_C4, 150 }, 
	{ NOTE_A4, 300 }, 
	{ NOTE_A4, 150 }, 
	{ NOTE_C4, 300 }, 
	{ NOTE_A4, 300 }, 
	{ NOTE_F4, 450 }, 
	{ NOTE_D5, 150 }, 
	{ NOTE_F4, 300 }, 
	{ NOTE_F4, 300 }, 
	{ NOTE_E4, 450 }, 
	{ NOTE_C5, 150 }, 
	{ NOTE_E4, 300 }, 
	{ NOTE_C4, 300 }, 
	{ NOTE_B3, 450 }, 
	{ NOTE_B4, 150 }, 
	{ NOTE_E4, 300 }, 
	{ NOTE_GS4, 300 }, 
	{ NOTE_A4, 300 }, 
	{ NOTE_E4, 300 }, 
	{ NOTE_A4, 600 }, 
	{ NOTE_REST, 300 }, 
	{ NOTE_REST, 900 }, 
	{ NOTE_A4, 300 }, 
	{ NOTE_C4, 300 }, 
	{ NOTE_A4, 300 }, 
	{ NOTE_REST, 300 }, 
	{ NOTE_A4, 150 }, 
	{ NOTE_E5, 300 }, 
	{ NOTE_A4, 150 }, 
	{ NOTE_E4, 300 }, 
	{ NOTE_E5, 300 }, 
	{ NOTE_A4, 150 }, 
	{ NOTE_E5, 300 }, 
	{ NOTE_A4, 150 }, 
	{ NOTE_E4, 300 }, 
	{ NOTE_E5, 300 }, 
	{ NOTE_A4, 150 }, 
	{ NOTE_E5, 300 }, 
	{ NOTE_A4, 150 }, 
	{ NOTE_E4, 300 }, 
	{ NOTE_AS4, 300 }, 
	{ NOTE_B4, 150 }, 
	{ NOTE_E5, 300 }, 
	{ NOTE_E5, 150 }, 
	{ NOTE_E4, 300 }, 
	{ NOTE_E5, 300 }, 
	{ NOTE_GS4, 150 }, 
	{ NOTE_E5, 300 }, 
	{ NOTE_E5, 150 }, 
	{ NOTE_E4, 300 }, 
	{ NOTE_E5, 300 }, 
	{ NOTE_GS4, 150 }, 
	{ NOTE_E5, 300 }, 
	{ NOTE_E5, 150 }, 
	{ NOTE_E4, 300 }, 
	{ NOTE_E5, 300 }, 
	{ NOTE_GS4, 150 }, 
	{ NOTE_E5, 300 }, 
	{ NOTE_E5, 150 }, 
	{ NOTE_E4, 300 }, 
	{ NOTE_C5, 300 }, 
	{ NOTE_CS5, 150 }, 
	{ NOTE_E5, 300 }, 
	{ NOTE_E5, 150 }, 
	{ NOTE_E4, 300 }, 
	{ NOTE_E5, 300 }, 
	{ NOTE_A4, 150 }, 
	{ NOTE_E5, 300 }, 
	{ NOTE_E5, 150 }, 
	{ NOTE_E4, 300 }, 
	{ NOTE_E5, 300 }, 
	{ NOTE_A4, 150 }, 
	{ NOTE_E5, 300 }, 
	{ NOTE_E5, 150 }, 
	{ NOTE_E4, 300 }, 
	{ NOTE_E5, 300 }, 
	{ NOTE_FS3, 450 }, 
	{ NOTE_FS4, 150 }, 
	{ NOTE_FS3, 300 }, 
	{ NOTE_AS4, 300 }, 
	{ NOTE_B4, 450 }, 
	{ NOTE_FS4, 150 }, 
	{ NOTE_D4, 300 }, 
	{ NOTE_REST, 300 }, 
	{ NOTE_D4, 450 }, 
	{ NOTE_FS4, 150 }, 
	{ NOTE_D4, 300 }, 
	{ NOTE_DS4, 300 }, 
	{ NOTE_E4, 450 }, 
	{ NOTE_CS5, 150 }, 
	{ NOTE_E4, 300 }, 
	{ NOTE_CS5, 300 }, 
	{ NOTE_E4, 450 }, 
	{ NOTE_B4, 150 }, 
	{ NOTE_E4, 300 }, 
	{ NOTE_E4, 300 }, 
	{ NOTE_A3, 300 }, 
	{ NOTE_E3, 300 }, 
	{ NOTE_A3, 300 }, 
	{ NOTE_REST, 300 }, 
	{ NOTE_A3, 300 }, 
	{ NOTE_E3, 300 }, 
	{ NOTE_A3, 300 }, 
	{ NOTE_REST, 300 }, 
	{ NOTE_A4, 300 }, 
	{ NOTE_E4, 300 }, 
	{ NOTE_A4, 300 }, 
	{ NOTE_REST, 300 }, 
	{ NOTE_A2, 450 }, 
	{ NOTE_A3, 150 }, 
	{ NOTE_C3, 300 }, 
	{ NOTE_CS4, 300 }, 
	{ NOTE_D4, 450 }, 
	{ NOTE_B4, 150 }, 
	{ NOTE_F4, 300 }, 
	{ NOTE_REST, 300 }, 
	{ NOTE_G2, 450 }, 
	{ NOTE_G3, 150 }, 
	{ NOTE_G2, 300 }, 
	{ NOTE_B3, 300 }, 
	{ NOTE_C4, 450 }, 
	{ NOTE_G4, 150 }, 
	{ NOTE_E4, 300 }, 
	{ NOTE_REST, 300 }, 
	{ NOTE_C3, 450 }, 
	{ NOTE_C4, 150 }, 
	{ NOTE_C3, 300 }, 
	{ NOTE_CS4, 300 }, 
	{ NOTE_D4, 450 }, 
	{ NOTE_B4, 150 }, 
	{ NOTE_F4, 300 }, 
	{ NOTE_D4, 300 }, 
	{ NOTE_G3, 450 }, 
	{ NOTE_G4, 150 }, 
	{ NOTE_G3, 300 }, 
	{ NOTE_F4, 300 }, 
	{ NOTE_E4, 450 }, 
	{ NOTE_G4, 150 }, 
	{ NOTE_E4, 300 }, 
	{ NOTE_G3, 300 }, 
	{ NOTE_C3, 450 }, 
	{ NOTE_C4, 150 }, 
	{ NOTE_C3, 300 }, 
	{ NOTE_CS4, 300 }, 
	{ NOTE_D4, 450 }, 
	{ NOTE_B4, 150 }, 
	{ NOTE_F4, 300 }, 
	{ NOTE_REST, 300 }, 
	{ NOTE_G2, 450 }, 
	{ NOTE_A3, 150 }, 
	{ NOTE_B2, 300 }, 
	{ NOTE_B3, 300 }, 
	{ NOTE_C4, 450 }, 
	{ NOTE_G4, 150 }, 
	{ NOTE_E4, 300 }, 
	{ NOTE_REST, 300 }, 
	{ NOTE_F4, 450 }, 
	{ NOTE_D5, 150 }, 
	{ NOTE_F4, 300 }, 
	{ NOTE_FS4, 300 }, 
	{ NOTE_G4, 150 }, 
	{ NOTE_E5, 300 }, 
	{ NOTE_E5, 150 }, 
	{ NOTE_G4, 300 }, 
	{ NOTE_E5, 300 }, 
	{ NOTE_D4, 150 }, 
	{ NOTE_G4, 300 }, 
	{ NOTE_G4, 150 }, 
	{ NOTE_G3, 300 }, 
	{ NOTE_G4, 300 }, 
	{ NOTE_C4, 300 }, 
	{ NOTE_G4, 300 }, 
	{ NOTE_C4, 300 }, 
	{ NOTE_REST, 300 }, 
	{ NOTE_C4, 300 }, 
	{ NOTE_G4, 300 }, 
	{ NOTE_C4, 300 }, 
	{ NOTE_REST, 300 }, 
};
const uint16_t NUM_OF_NOTES3 = sizeof(melody3)/sizeof(melody3[0]);

const Note melody4[] PROGMEM = {
	{ NOTE_E4, 150 }, 
	{ NOTE_D4, 300 }, 
	{ NOTE_C4, 150 }, 
	{ NOTE_B3, 300 }, 
	{ NOTE_A3, 300 }, 
	{ NOTE_GS3, 300 }, 
	{ NOTE_G3, 300 }, 
	{ NOTE_FS3, 300 }, 
	{ NOTE_F3, 300 }, 
	{ NOTE_E3, 300 }, 
	{ NOTE_REST, 300 }, 
	{ NOTE_E3, 300 }, 
	{ NOTE_REST, 300 }, 
	{ NOTE_E2, 600 }, 
	{ NOTE_REST, 600 }, 
	{ NOTE_A3, 450 }, 
	{ NOTE_A4, 150 }, 
	{ NOTE_E4, 300 }, 
	{ NOTE_C4, 300 }, 
	{ NOTE_B3, 150 }, 
	{ NOTE_GS4, 300 }, 
	{ NOTE_GS4, 150 }, 
	{ NOTE_B3, 300 }, 
	{ NOTE_GS4, 300 }, 
	{ NOTE_E4, 150 }, 
	{ NOTE_GS4, 300 }, 
	{ NOTE_GS4, 150 }, 
	{ NOTE_D4, 300 }, 
	{ NOTE_GS4, 300 }, 
	{ NOTE_C4, 150 }, 
	{ NOTE_E4, 300 }, 
	{ NOTE_E4, 150 }, 
	{ NOTE_C4, 300 }, 
	{ NOTE_E4, 300 }, 
	{ NOTE_D4, 150 }, 
	{ NOTE_F4, 300 }, 
	{ NOTE_F4, 150 }, 
	{ NOTE_D4, 300 }, 
	{ NOTE_DS4, 300 }, 
	{ NOTE_E4, 150 }, 
	{ NOTE_A4, 300 }, 
	{ NOTE_A4, 150 }, 
	{ NOTE_E4, 300 }, 
	{ NOTE_A4, 300 }, 
	{ NOTE_B2, 450 }, 
	{ NOTE_B3, 150 }, 
	{ NOTE_B2, 300 }, 
	{ NOTE_DS3, 300 }, 
	{ NOTE_E3, 150 }, 
	{ NOTE_B3, 300 }, 
	{ NOTE_B3, 150 }, 
	{ NOTE_E3, 150 }, 
	{ NOTE_REST, 150 }, 
	{ NOTE_REST, 300 }, 
	{ NOTE_A3, 450 }, 
	{ NOTE_A4, 150 }, 
	{ NOTE_E4, 300 }, 
	{ NOTE_C4, 300 }, 
	{ NOTE_B3, 150 }, 
	{ NOTE_GS4, 300 }, 
	{ NOTE_GS4, 150 }, 
	{ NOTE_B3, 300 }, 
	{ NOTE_GS4, 300 }, 
	{ NOTE_E4, 150 }, 
	{ NOTE_GS4, 300 }, 
	{ NOTE_GS4, 150 }, 
	{ NOTE_D4, 300 }, 
	{ NOTE_GS4, 300 }, 
	{ NOTE_C4, 150 }, 
	{ NOTE_E4, 300 }, 
	{ NOTE_E4, 150 }, 
	{ NOTE_C4, 300 }, 
	{ NOTE_E4, 300 }, 
	{ NOTE_F4, 450 }, 
	{ NOTE_A4, 150 }, 
	{ NOTE_F4, 300 }, 
	{ NOTE_F3, 300 }, 
	{ NOTE_E3, 450 }, 
	{ NOTE_A4, 150 }, 
	{ NOTE_E4, 300 }, 
	{ NOTE_C3, 300 }, 
	{ NOTE_B2, 450 }, 
	{ NOTE_GS4, 150 }, 
	{ NOTE_E4, 300 }, 
	{ NOTE_GS3, 300 }, 
	{ NOTE_A3, 300 }, 
	{ NOTE_E4, 300 }, 
	{ NOTE_A4, 600 }, 
	{ NOTE_REST, 300 }, 
	{ NOTE_REST, 900 }, 
	{ NOTE_A3, 300 }, 
	{ NOTE_C4, 300 }, 
	{ NOTE_A3, 300 }, 
	{ NOTE_REST, 300 }, 
	{ NOTE_A4, 150 }, 
	{ NOTE_CS5, 300 }, 
	{ NOTE_A4, 150 }, 
	{ NOTE_E4, 300 }, 
	{ NOTE_CS5, 300 }, 
	{ NOTE_A4, 150 }, 
	{ NOTE_CS5, 300 }, 
	{ NOTE_A4, 150 }, 
	{ NOTE_E4, 300 }, 
	{ NOTE_CS5, 300 }, 
	{ NOTE_A4, 150 }, 
	{ NOTE_CS5, 300 }, 
	{ NOTE_A4, 150 }, 
	{ NOTE_E4, 300 }, 
	{ NOTE_AS3, 300 }, 
	{ NOTE_B3, 150 }, 
	{ NOTE_D5, 300 }, 
	{ NOTE_D5, 150 }, 
	{ NOTE_E4, 300 }, 
	{ NOTE_D5, 300 }, 
	{ NOTE_GS4, 150 }, 
	{ NOTE_D5, 300 }, 
	{ NOTE_D5, 150 }, 
	{ NOTE_E4, 300 }, 
	{ NOTE_D5, 300 }, 
	{ NOTE_GS4, 150 }, 
	{ NOTE_D5, 300 }, 
	{ NOTE_D5, 150 }, 
	{ NOTE_E4, 300 }, 
	{ NOTE_D5, 300 }, 
	{ NOTE_GS4, 150 }, 
	{ NOTE_D5, 300 }, 
	{ NOTE_D5, 150 }, 
	{ NOTE_E4, 300 }, 
	{ NOTE_C4, 300 }, 
	{ NOTE_CS4, 150 }, 
	{ NOTE_CS5, 300 }, 
	{ NOTE_CS5, 150 }, 
	{ NOTE_E4, 300 }, 
	{ NOTE_CS5, 300 }, 
	{ NOTE_A4, 150 }, 
	{ NOTE_CS5, 300 }, 
	{ NOTE_CS5, 150 }, 
	{ NOTE_E4, 300 }, 
	{ NOTE_CS5, 300 }, 
	{ NOTE_A4, 150 }, 
	{ NOTE_CS5, 300 }, 
	{ NOTE_CS5, 150 }, 
	{ NOTE_E4, 300 }, 
	{ NOTE_CS5, 300 }, 
	{ NOTE_FS3, 450 }, 
	{ NOTE_FS4, 150 }, 
	{ NOTE_FS3, 300 }, 
	{ NOTE_AS3, 300 }, 
	{ NOTE_B3, 450 }, 
	{ NOTE_FS4, 150 }, 
	{ NOTE_D4, 300 }, 
	{ NOTE_REST, 300 }, 
	{ NOTE_D3, 450 }, 
	{ NOTE_FS3, 150 }, 
	{ NOTE_D3, 300 }, 
	{ NOTE_DS3, 300 }, 
	{ NOTE_E3, 450 }, 
	{ NOTE_A4, 150 }, 
	{ NOTE_E4, 300 }, 
	{ NOTE_A4, 300 }, 
	{ NOTE_E4, 450 }, 
	{ NOTE_GS4, 150 }, 
	{ NOTE_E4, 300 }, 
	{ NOTE_E3, 300 }, 
	{ NOTE_A2, 300 }, 
	{ NOTE_E3, 300 }, 
	{ NOTE_A2, 300 }, 
	{ NOTE_REST, 300 }, 
	{ NOTE_A2, 300 }, 
	{ NOTE_E3, 300 }, 
	{ NOTE_A2, 300 }, 
	{ NOTE_REST, 300 }, 
	{ NOTE_A3, 300 }, 
	{ NOTE_E3, 300 }, 
	{ NOTE_A3, 300 }, 
	{ NOTE_REST, 300 }, 
	{ NOTE_A2, 450 }, 
	{ NOTE_A3, 150 }, 
	{ NOTE_C3, 300 }, 
	{ NOTE_CS3, 300 }, 
	{ NOTE_D3, 450 }, 
	{ NOTE_G4, 150 }, 
	{ NOTE_F4, 300 }, 
	{ NOTE_REST, 300 }, 
	{ NOTE_G2, 450 }, 
	{ NOTE_G3, 150 }, 
	{ NOTE_G2, 300 }, 
	{ NOTE_B2, 300 }, 
	{ NOTE_C3, 450 }, 
	{ NOTE_G4, 150 }, 
	{ NOTE_E4, 300 }, 
	{ NOTE_REST, 300 }, 
	{ NOTE_C3, 450 }, 
	{ NOTE_C4, 150 }, 
	{ NOTE_C3, 300 }, 
	{ NOTE_CS3, 300 }, 
	{ NOTE_D3, 450 }, 
	{ NOTE_G4, 150 }, 
	{ NOTE_F4, 300 }, 
	{ NOTE_D3, 300 }, 
	{ NOTE_G3, 450 }, 
	{ NOTE_G4, 150 }, 
	{ NOTE_G3, 300 }, 
	{ NOTE_F3, 300 }, 
	{ NOTE_E3, 450 }, 
	{ NOTE_G4, 150 }, 
	{ NOTE_E4, 300 }, 
	{ NOTE_G3, 300 }, 
	{ NOTE_C3, 450 }, 
	{ NOTE_C4, 150 }, 
	{ NOTE_C3, 300 }, 
	{ NOTE_CS3, 300 }, 
	{ NOTE_D3, 450 }, 
	{ NOTE_G4, 150 }, 
	{ NOTE_F4, 300 }, 
	{ NOTE_REST, 300 }, 
	{ NOTE_G2, 450 }, 
	{ NOTE_A3, 150 }, 
	{ NOTE_B2, 300 }, 
	{ NOTE_B2, 300 }, 
	{ NOTE_C3, 450 }, 
	{ NOTE_G4, 150 }, 
	{ NOTE_E4, 300 }, 
	{ NOTE_REST, 300 }, 
	{ NOTE_F3, 450 }, 
	{ NOTE_A4, 150 }, 
	{ NOTE_F4, 300 }, 
	{ NOTE_FS4, 300 }, 
	{ NOTE_G4, 150 }, 
	{ NOTE_C5, 300 }, 
	{ NOTE_C5, 150 }, 
	{ NOTE_G4, 300 }, 
	{ NOTE_C5, 300 }, 
	{ NOTE_D4, 150 }, 
	{ NOTE_F4, 300 }, 
	{ NOTE_F4, 150 }, 
	{ NOTE_G3, 300 }, 
	{ NOTE_F4, 300 }, 
	{ NOTE_C4, 300 }, 
	{ NOTE_G3, 300 }, 
	{ NOTE_C3, 300 }, 
	{ NOTE_REST, 300 }, 
	{ NOTE_C4, 300 }, 
	{ NOTE_G3, 300 }, 
	{ NOTE_C3, 300 }, 
	{ NOTE_REST, 300 }, 
};
const uint16_t NUM_OF_NOTES4 = sizeof(melody4)/sizeof(melody4[0]);

