/*
 * Song: The Girl From Ipanema by Antônio Carlos Jobim
 *
 *	Melody 0 | Melody
 *	Melody 1 | Melody
 *	Melody 2 | Guitar
 *	Melody 3 | Guitar
 *	Melody 4 | Bass
*/

#include <Arduino.h>
#include "notes.h"

const Note melody0[] PROGMEM = {
	{ NOTE_REST, 1920 }, 
	{ NOTE_REST, 1920 }, 
	{ NOTE_REST, 1920 }, 
	{ NOTE_FS4, 0 }, 
	{ NOTE_G4, 240 }, 
	{ NOTE_REST, 240 }, 
	{ NOTE_G4, 240 }, 
	{ NOTE_E4, 240 }, 
	{ NOTE_E4, 240 }, 
	{ NOTE_REST, 240 }, 
	{ NOTE_E4, 240 }, 
	{ NOTE_D4, 240 }, 
	{ NOTE_FS4, 0 }, 
	{ NOTE_G4, 480 }, 
	{ NOTE_G4, 240 }, 
	{ NOTE_E4, 240 }, 
	{ NOTE_E4, 240 }, 
	{ NOTE_E4, 240 }, 
	{ NOTE_D4, 240 }, 
	{ NOTE_G4, 240 }, 
	{ NOTE_G4, 240 }, 
	{ NOTE_REST, 240 }, 
	{ NOTE_G4, 240 }, 
	{ NOTE_E4, 360 }, 
	{ NOTE_E4, 120 }, 
	{ NOTE_REST, 240 }, 
	{ NOTE_E4, 240 }, 
	{ NOTE_D4, 240 }, 
	{ NOTE_FS4, 0 }, 
	{ NOTE_G4, 240 }, 
	{ NOTE_REST, 240 }, 
	{ NOTE_G4, 240 }, 
	{ NOTE_E4, 240 }, 
	{ NOTE_E4, 240 }, 
	{ NOTE_REST, 240 }, 
	{ NOTE_D4, 240 }, 
	{ NOTE_F4, 240 }, 
	{ NOTE_F4, 240 }, 
	{ NOTE_F4, 480 }, 
	{ NOTE_D4, 240 }, 
	{ NOTE_D4, 240 }, 
	{ NOTE_D4, 240 }, 
	{ NOTE_C4, 240 }, 
	{ NOTE_E4, 240 }, 
	{ NOTE_E4, 320 }, 
	{ NOTE_E4, 320 }, 
	{ NOTE_B3, 0 }, 
	{ NOTE_C4, 320 }, 
	{ NOTE_C4, 320 }, 
	{ NOTE_C4, 320 }, 
	{ NOTE_AS3, 320 }, 
	{ NOTE_C4, 1920 }, 
	{ NOTE_DS4, 120 }, 
	{ NOTE_REST, 120 }, 
	{ NOTE_REST, 240 }, 
	{ NOTE_DS4, 960 }, 
	{ NOTE_REST, 480 }, 
	{ NOTE_G4, 240 }, 
	{ NOTE_REST, 240 }, 
	{ NOTE_G4, 240 }, 
	{ NOTE_E4, 240 }, 
	{ NOTE_E4, 240 }, 
	{ NOTE_REST, 240 }, 
	{ NOTE_E4, 240 }, 
	{ NOTE_D4, 240 }, 
	{ NOTE_FS4, 0 }, 
	{ NOTE_G4, 480 }, 
	{ NOTE_G4, 240 }, 
	{ NOTE_E4, 240 }, 
	{ NOTE_E4, 240 }, 
	{ NOTE_E4, 240 }, 
	{ NOTE_D4, 240 }, 
	{ NOTE_G4, 240 }, 
	{ NOTE_G4, 240 }, 
	{ NOTE_REST, 240 }, 
	{ NOTE_G4, 240 }, 
	{ NOTE_E4, 360 }, 
	{ NOTE_E4, 120 }, 
	{ NOTE_REST, 240 }, 
	{ NOTE_E4, 240 }, 
	{ NOTE_D4, 240 }, 
	{ NOTE_FS4, 0 }, 
	{ NOTE_G4, 240 }, 
	{ NOTE_REST, 240 }, 
	{ NOTE_G4, 240 }, 
	{ NOTE_E4, 240 }, 
	{ NOTE_E4, 240 }, 
	{ NOTE_REST, 240 }, 
	{ NOTE_D4, 240 }, 
	{ NOTE_F4, 240 }, 
	{ NOTE_F4, 240 }, 
	{ NOTE_F4, 480 }, 
	{ NOTE_D4, 240 }, 
	{ NOTE_D4, 240 }, 
	{ NOTE_D4, 240 }, 
	{ NOTE_C4, 240 }, 
	{ NOTE_E4, 240 }, 
	{ NOTE_E4, 320 }, 
	{ NOTE_E4, 320 }, 
	{ NOTE_B3, 0 }, 
	{ NOTE_C4, 320 }, 
	{ NOTE_C4, 320 }, 
	{ NOTE_C4, 320 }, 
	{ NOTE_AS3, 320 }, 
	{ NOTE_C4, 1920 }, 
	{ NOTE_C4, 960 }, 
	{ NOTE_REST, 960 }, 
	{ NOTE_F4, 1920 }, 
	{ NOTE_F4, 320 }, 
	{ NOTE_F4, 0 }, 
	{ NOTE_FS4, 320 }, 
	{ NOTE_F4, 320 }, 
	{ NOTE_DS4, 320 }, 
	{ NOTE_F4, 320 }, 
	{ NOTE_DS4, 320 }, 
	{ NOTE_CS4, 720 }, 
	{ NOTE_DS4, 960 }, 
	{ NOTE_REST, 240 }, 
	{ NOTE_DS4, 960 }, 
	{ NOTE_REST, 960 }, 
	{ NOTE_GS4, 1920 }, 
	{ NOTE_REST, 320 }, 
	{ NOTE_GS4, 0 }, 
	{ NOTE_A4, 320 }, 
	{ NOTE_GS4, 320 }, 
	{ NOTE_FS4, 320 }, 
	{ NOTE_GS4, 320 }, 
	{ NOTE_FS4, 320 }, 
	{ NOTE_E4, 720 }, 
	{ NOTE_FS4, 960 }, 
	{ NOTE_REST, 240 }, 
	{ NOTE_FS4, 960 }, 
	{ NOTE_REST, 960 }, 
	{ NOTE_A4, 1920 }, 
	{ NOTE_REST, 320 }, 
	{ NOTE_A4, 0 }, 
	{ NOTE_AS4, 320 }, 
	{ NOTE_A4, 320 }, 
	{ NOTE_G4, 320 }, 
	{ NOTE_A4, 320 }, 
	{ NOTE_G4, 320 }, 
	{ NOTE_F4, 720 }, 
	{ NOTE_REST, 240 }, 
	{ NOTE_FS4, 0 }, 
	{ NOTE_G4, 960 }, 
	{ NOTE_G4, 960 }, 
	{ NOTE_REST, 320 }, 
	{ NOTE_A4, 160 }, 
	{ NOTE_REST, 160 }, 
	{ NOTE_AS4, 160 }, 
	{ NOTE_REST, 160 }, 
	{ NOTE_C5, 320 }, 
	{ NOTE_C4, 320 }, 
	{ NOTE_D4, 320 }, 
	{ NOTE_E4, 320 }, 
	{ NOTE_F4, 320 }, 
	{ NOTE_G4, 320 }, 
	{ NOTE_GS4, 1440 }, 
	{ NOTE_A4, 240 }, 
	{ NOTE_REST, 240 }, 
	{ NOTE_A4, 0 }, 
	{ NOTE_AS4, 320 }, 
	{ NOTE_AS3, 320 }, 
	{ NOTE_C4, 320 }, 
	{ NOTE_D4, 320 }, 
	{ NOTE_E4, 320 }, 
	{ NOTE_F4, 320 }, 
	{ NOTE_FS4, 720 }, 
	{ NOTE_G4, 960 }, 
	{ NOTE_REST, 240 }, 
	{ NOTE_F4, 0 }, 
	{ NOTE_G4, 240 }, 
	{ NOTE_REST, 480 }, 
	{ NOTE_E4, 240 }, 
	{ NOTE_E4, 480 }, 
	{ NOTE_REST, 240 }, 
	{ NOTE_D4, 240 }, 
	{ NOTE_G4, 480 }, 
	{ NOTE_REST, 240 }, 
	{ NOTE_E4, 240 }, 
	{ NOTE_REST, 240 }, 
	{ NOTE_E4, 240 }, 
	{ NOTE_D4, 240 }, 
	{ NOTE_G4, 240 }, 
	{ NOTE_G4, 240 }, 
	{ NOTE_G4, 480 }, 
	{ NOTE_E4, 240 }, 
	{ NOTE_E4, 480 }, 
	{ NOTE_REST, 240 }, 
	{ NOTE_D4, 240 }, 
	{ NOTE_G4, 480 }, 
	{ NOTE_REST, 240 }, 
	{ NOTE_E4, 240 }, 
	{ NOTE_REST, 240 }, 
	{ NOTE_E4, 240 }, 
	{ NOTE_D4, 240 }, 
	{ NOTE_A4, 240 }, 
	{ NOTE_A4, 240 }, 
	{ NOTE_A4, 240 }, 
	{ NOTE_REST, 240 }, 
	{ NOTE_F4, 240 }, 
	{ NOTE_F4, 320 }, 
	{ NOTE_F4, 320 }, 
	{ NOTE_D4, 320 }, 
	{ NOTE_C5, 320 }, 
	{ NOTE_C5, 320 }, 
	{ NOTE_E4, 320 }, 
	{ NOTE_E4, 320 }, 
	{ NOTE_E4, 320 }, 
	{ NOTE_D4, 320 }, 
	{ NOTE_E4, 1920 }, 
	{ NOTE_REST, 320 }, 
	{ NOTE_REST, 320 }, 
	{ NOTE_DS4, 0 }, 
	{ NOTE_E4, 320 }, 
	{ NOTE_DS4, 0 }, 
	{ NOTE_E4, 320 }, 
	{ NOTE_E4, 320 }, 
	{ NOTE_D4, 320 }, 
	{ NOTE_E4, 1920 }, 
	{ NOTE_G4, 480 }, 
	{ NOTE_FS4, 0 }, 
	{ NOTE_G4, 240 }, 
	{ NOTE_E4, 240 }, 
	{ NOTE_E4, 240 }, 
	{ NOTE_REST, 240 }, 
	{ NOTE_E4, 240 }, 
	{ NOTE_D4, 240 }, 
	{ NOTE_G4, 480 }, 
	{ NOTE_G4, 240 }, 
	{ NOTE_E4, 240 }, 
	{ NOTE_E4, 240 }, 
	{ NOTE_E4, 240 }, 
	{ NOTE_D4, 240 }, 
	{ NOTE_G4, 240 }, 
	{ NOTE_REST, 240 }, 
	{ NOTE_G4, 480 }, 
	{ NOTE_E4, 240 }, 
	{ NOTE_E4, 480 }, 
	{ NOTE_E4, 240 }, 
	{ NOTE_D4, 240 }, 
	{ NOTE_FS4, 0 }, 
	{ NOTE_G4, 240 }, 
	{ NOTE_REST, 240 }, 
	{ NOTE_G4, 240 }, 
	{ NOTE_E4, 240 }, 
	{ NOTE_E4, 240 }, 
	{ NOTE_REST, 240 }, 
	{ NOTE_D4, 240 }, 
	{ NOTE_F4, 240 }, 
	{ NOTE_REST, 240 }, 
	{ NOTE_F4, 480 }, 
	{ NOTE_D4, 240 }, 
	{ NOTE_D4, 240 }, 
	{ NOTE_D4, 240 }, 
	{ NOTE_C4, 240 }, 
	{ NOTE_E4, 240 }, 
	{ NOTE_E4, 320 }, 
	{ NOTE_E4, 320 }, 
	{ NOTE_C4, 320 }, 
	{ NOTE_C4, 320 }, 
	{ NOTE_C4, 320 }, 
	{ NOTE_AS3, 320 }, 
	{ NOTE_C4, 1920 }, 
	{ NOTE_DS4, 120 }, 
	{ NOTE_REST, 120 }, 
	{ NOTE_REST, 240 }, 
	{ NOTE_DS4, 960 }, 
	{ NOTE_DS4, 480 }, 
	{ NOTE_F4, 1920 }, 
	{ NOTE_F4, 320 }, 
	{ NOTE_F4, 0 }, 
	{ NOTE_FS4, 320 }, 
	{ NOTE_F4, 320 }, 
	{ NOTE_DS4, 320 }, 
	{ NOTE_F4, 320 }, 
	{ NOTE_DS4, 320 }, 
	{ NOTE_CS4, 720 }, 
	{ NOTE_DS4, 960 }, 
	{ NOTE_REST, 240 }, 
	{ NOTE_DS4, 960 }, 
	{ NOTE_REST, 960 }, 
	{ NOTE_GS4, 1920 }, 
	{ NOTE_REST, 320 }, 
	{ NOTE_GS4, 0 }, 
	{ NOTE_A4, 320 }, 
	{ NOTE_GS4, 320 }, 
	{ NOTE_FS4, 320 }, 
	{ NOTE_GS4, 320 }, 
	{ NOTE_FS4, 320 }, 
	{ NOTE_E4, 720 }, 
	{ NOTE_FS4, 960 }, 
	{ NOTE_REST, 240 }, 
	{ NOTE_FS4, 960 }, 
	{ NOTE_REST, 960 }, 
	{ NOTE_A4, 1920 }, 
	{ NOTE_REST, 320 }, 
	{ NOTE_A4, 0 }, 
	{ NOTE_AS4, 320 }, 
	{ NOTE_A4, 320 }, 
	{ NOTE_G4, 320 }, 
	{ NOTE_A4, 320 }, 
	{ NOTE_G4, 320 }, 
	{ NOTE_F4, 720 }, 
	{ NOTE_REST, 240 }, 
	{ NOTE_FS4, 0 }, 
	{ NOTE_G4, 960 }, 
	{ NOTE_G4, 960 }, 
	{ NOTE_REST, 320 }, 
	{ NOTE_A4, 320 }, 
	{ NOTE_AS4, 320 }, 
	{ NOTE_C5, 320 }, 
	{ NOTE_C4, 320 }, 
	{ NOTE_D4, 320 }, 
	{ NOTE_E4, 320 }, 
	{ NOTE_F4, 320 }, 
	{ NOTE_G4, 320 }, 
	{ NOTE_GS4, 1440 }, 
	{ NOTE_A4, 240 }, 
	{ NOTE_REST, 240 }, 
	{ NOTE_A4, 0 }, 
	{ NOTE_AS4, 320 }, 
	{ NOTE_AS3, 320 }, 
	{ NOTE_C4, 320 }, 
	{ NOTE_D4, 320 }, 
	{ NOTE_E4, 320 }, 
	{ NOTE_F4, 320 }, 
	{ NOTE_FS4, 720 }, 
	{ NOTE_G4, 960 }, 
	{ NOTE_REST, 240 }, 
	{ NOTE_F4, 0 }, 
	{ NOTE_G4, 240 }, 
	{ NOTE_REST, 480 }, 
	{ NOTE_E4, 240 }, 
	{ NOTE_E4, 480 }, 
	{ NOTE_REST, 240 }, 
	{ NOTE_D4, 240 }, 
	{ NOTE_G4, 480 }, 
	{ NOTE_REST, 240 }, 
	{ NOTE_E4, 240 }, 
	{ NOTE_REST, 240 }, 
	{ NOTE_E4, 240 }, 
	{ NOTE_D4, 240 }, 
	{ NOTE_G4, 240 }, 
	{ NOTE_G4, 240 }, 
	{ NOTE_G4, 480 }, 
	{ NOTE_REST, 240 }, 
	{ NOTE_E4, 480 }, 
	{ NOTE_REST, 240 }, 
	{ NOTE_D4, 240 }, 
	{ NOTE_G4, 480 }, 
	{ NOTE_REST, 240 }, 
	{ NOTE_E4, 240 }, 
	{ NOTE_REST, 240 }, 
	{ NOTE_E4, 240 }, 
	{ NOTE_D4, 240 }, 
	{ NOTE_GS4, 0 }, 
	{ NOTE_A4, 240 }, 
	{ NOTE_A4, 240 }, 
	{ NOTE_A4, 240 }, 
	{ NOTE_REST, 240 }, 
	{ NOTE_F4, 240 }, 
	{ NOTE_F4, 320 }, 
	{ NOTE_F4, 320 }, 
	{ NOTE_D4, 320 }, 
	{ NOTE_B4, 0 }, 
	{ NOTE_C5, 320 }, 
	{ NOTE_C5, 320 }, 
	{ NOTE_E4, 320 }, 
	{ NOTE_E4, 320 }, 
	{ NOTE_E4, 320 }, 
	{ NOTE_D4, 320 }, 
	{ NOTE_E4, 1920 }, 
	{ NOTE_REST, 320 }, 
	{ NOTE_REST, 320 }, 
	{ NOTE_DS4, 0 }, 
	{ NOTE_E4, 320 }, 
	{ NOTE_DS4, 0 }, 
	{ NOTE_E4, 320 }, 
	{ NOTE_E4, 320 }, 
	{ NOTE_D4, 320 }, 
	{ NOTE_E4, 1920 }, 
	{ NOTE_E4, 1920 }, 
	{ NOTE_E4, 1920 }, 
	{ NOTE_REST, 1920 }, 
};
const uint16_t NUM_OF_NOTES0 = sizeof(melody0)/sizeof(melody0[0]);

const Note melody1[] PROGMEM = {
	{ NOTE_REST, 1920 }, 
	{ NOTE_REST, 1920 }, 
	{ NOTE_REST, 1920 }, 
	{ NOTE_FS5, 0 }, 
	{ NOTE_G5, 240 }, 
	{ NOTE_REST, 240 }, 
	{ NOTE_G5, 240 }, 
	{ NOTE_E5, 240 }, 
	{ NOTE_E5, 240 }, 
	{ NOTE_REST, 240 }, 
	{ NOTE_E5, 240 }, 
	{ NOTE_D5, 240 }, 
	{ NOTE_FS5, 0 }, 
	{ NOTE_G5, 480 }, 
	{ NOTE_G5, 240 }, 
	{ NOTE_E5, 240 }, 
	{ NOTE_E5, 240 }, 
	{ NOTE_E5, 240 }, 
	{ NOTE_D5, 240 }, 
	{ NOTE_G5, 240 }, 
	{ NOTE_G5, 240 }, 
	{ NOTE_REST, 240 }, 
	{ NOTE_G5, 240 }, 
	{ NOTE_E5, 360 }, 
	{ NOTE_E5, 120 }, 
	{ NOTE_REST, 240 }, 
	{ NOTE_E5, 240 }, 
	{ NOTE_D5, 240 }, 
	{ NOTE_FS5, 0 }, 
	{ NOTE_G5, 240 }, 
	{ NOTE_REST, 240 }, 
	{ NOTE_G5, 240 }, 
	{ NOTE_E5, 240 }, 
	{ NOTE_E5, 240 }, 
	{ NOTE_REST, 240 }, 
	{ NOTE_D5, 240 }, 
	{ NOTE_F5, 240 }, 
	{ NOTE_F5, 240 }, 
	{ NOTE_F5, 480 }, 
	{ NOTE_D5, 240 }, 
	{ NOTE_D5, 240 }, 
	{ NOTE_D5, 240 }, 
	{ NOTE_C5, 240 }, 
	{ NOTE_E5, 240 }, 
	{ NOTE_E5, 320 }, 
	{ NOTE_E5, 320 }, 
	{ NOTE_B4, 0 }, 
	{ NOTE_C5, 320 }, 
	{ NOTE_C5, 320 }, 
	{ NOTE_C5, 320 }, 
	{ NOTE_AS4, 320 }, 
	{ NOTE_C5, 1920 }, 
	{ NOTE_DS5, 120 }, 
	{ NOTE_REST, 120 }, 
	{ NOTE_REST, 240 }, 
	{ NOTE_DS5, 960 }, 
	{ NOTE_REST, 480 }, 
	{ NOTE_G5, 240 }, 
	{ NOTE_REST, 240 }, 
	{ NOTE_G5, 240 }, 
	{ NOTE_E5, 240 }, 
	{ NOTE_E5, 240 }, 
	{ NOTE_REST, 240 }, 
	{ NOTE_E5, 240 }, 
	{ NOTE_D5, 240 }, 
	{ NOTE_FS5, 0 }, 
	{ NOTE_G5, 480 }, 
	{ NOTE_G5, 240 }, 
	{ NOTE_E5, 240 }, 
	{ NOTE_E5, 240 }, 
	{ NOTE_E5, 240 }, 
	{ NOTE_D5, 240 }, 
	{ NOTE_G5, 240 }, 
	{ NOTE_G5, 240 }, 
	{ NOTE_REST, 240 }, 
	{ NOTE_G5, 240 }, 
	{ NOTE_E5, 360 }, 
	{ NOTE_E5, 120 }, 
	{ NOTE_REST, 240 }, 
	{ NOTE_E5, 240 }, 
	{ NOTE_D5, 240 }, 
	{ NOTE_FS5, 0 }, 
	{ NOTE_G5, 240 }, 
	{ NOTE_REST, 240 }, 
	{ NOTE_G5, 240 }, 
	{ NOTE_E5, 240 }, 
	{ NOTE_E5, 240 }, 
	{ NOTE_REST, 240 }, 
	{ NOTE_D5, 240 }, 
	{ NOTE_F5, 240 }, 
	{ NOTE_F5, 240 }, 
	{ NOTE_F5, 480 }, 
	{ NOTE_D5, 240 }, 
	{ NOTE_D5, 240 }, 
	{ NOTE_D5, 240 }, 
	{ NOTE_C5, 240 }, 
	{ NOTE_E5, 240 }, 
	{ NOTE_E5, 320 }, 
	{ NOTE_E5, 320 }, 
	{ NOTE_B4, 0 }, 
	{ NOTE_C5, 320 }, 
	{ NOTE_C5, 320 }, 
	{ NOTE_C5, 320 }, 
	{ NOTE_AS4, 320 }, 
	{ NOTE_C5, 1920 }, 
	{ NOTE_C5, 960 }, 
	{ NOTE_REST, 960 }, 
	{ NOTE_F5, 1920 }, 
	{ NOTE_F5, 320 }, 
	{ NOTE_F5, 0 }, 
	{ NOTE_FS5, 320 }, 
	{ NOTE_F5, 320 }, 
	{ NOTE_DS5, 320 }, 
	{ NOTE_F5, 320 }, 
	{ NOTE_DS5, 320 }, 
	{ NOTE_CS5, 720 }, 
	{ NOTE_DS5, 960 }, 
	{ NOTE_REST, 240 }, 
	{ NOTE_DS5, 960 }, 
	{ NOTE_REST, 960 }, 
	{ NOTE_GS5, 1920 }, 
	{ NOTE_REST, 320 }, 
	{ NOTE_GS5, 0 }, 
	{ NOTE_A5, 320 }, 
	{ NOTE_GS5, 320 }, 
	{ NOTE_FS5, 320 }, 
	{ NOTE_GS5, 320 }, 
	{ NOTE_FS5, 320 }, 
	{ NOTE_E5, 720 }, 
	{ NOTE_FS5, 960 }, 
	{ NOTE_REST, 240 }, 
	{ NOTE_FS5, 960 }, 
	{ NOTE_REST, 960 }, 
	{ NOTE_A5, 1920 }, 
	{ NOTE_REST, 320 }, 
	{ NOTE_A5, 0 }, 
	{ NOTE_AS5, 320 }, 
	{ NOTE_A5, 320 }, 
	{ NOTE_G5, 320 }, 
	{ NOTE_A5, 320 }, 
	{ NOTE_G5, 320 }, 
	{ NOTE_F5, 720 }, 
	{ NOTE_REST, 240 }, 
	{ NOTE_FS5, 0 }, 
	{ NOTE_G5, 960 }, 
	{ NOTE_G5, 960 }, 
	{ NOTE_REST, 320 }, 
	{ NOTE_A5, 160 }, 
	{ NOTE_REST, 160 }, 
	{ NOTE_AS5, 160 }, 
	{ NOTE_REST, 160 }, 
	{ NOTE_C6, 320 }, 
	{ NOTE_C5, 320 }, 
	{ NOTE_D5, 320 }, 
	{ NOTE_E5, 320 }, 
	{ NOTE_F5, 320 }, 
	{ NOTE_G5, 320 }, 
	{ NOTE_GS5, 1440 }, 
	{ NOTE_A5, 240 }, 
	{ NOTE_REST, 240 }, 
	{ NOTE_A5, 0 }, 
	{ NOTE_AS5, 320 }, 
	{ NOTE_AS4, 320 }, 
	{ NOTE_C5, 320 }, 
	{ NOTE_D5, 320 }, 
	{ NOTE_E5, 320 }, 
	{ NOTE_F5, 320 }, 
	{ NOTE_FS5, 720 }, 
	{ NOTE_G5, 960 }, 
	{ NOTE_REST, 240 }, 
	{ NOTE_F5, 0 }, 
	{ NOTE_G5, 240 }, 
	{ NOTE_REST, 480 }, 
	{ NOTE_E5, 240 }, 
	{ NOTE_E5, 480 }, 
	{ NOTE_REST, 240 }, 
	{ NOTE_D5, 240 }, 
	{ NOTE_G5, 480 }, 
	{ NOTE_REST, 240 }, 
	{ NOTE_E5, 240 }, 
	{ NOTE_REST, 240 }, 
	{ NOTE_E5, 240 }, 
	{ NOTE_D5, 240 }, 
	{ NOTE_G5, 240 }, 
	{ NOTE_G5, 240 }, 
	{ NOTE_G5, 480 }, 
	{ NOTE_E5, 240 }, 
	{ NOTE_E5, 480 }, 
	{ NOTE_REST, 240 }, 
	{ NOTE_D5, 240 }, 
	{ NOTE_G5, 480 }, 
	{ NOTE_REST, 240 }, 
	{ NOTE_E5, 240 }, 
	{ NOTE_REST, 240 }, 
	{ NOTE_E5, 240 }, 
	{ NOTE_D5, 240 }, 
	{ NOTE_A5, 240 }, 
	{ NOTE_A5, 240 }, 
	{ NOTE_A5, 240 }, 
	{ NOTE_REST, 240 }, 
	{ NOTE_F5, 240 }, 
	{ NOTE_F5, 320 }, 
	{ NOTE_F5, 320 }, 
	{ NOTE_D5, 320 }, 
	{ NOTE_C6, 320 }, 
	{ NOTE_C6, 320 }, 
	{ NOTE_E5, 320 }, 
	{ NOTE_E5, 320 }, 
	{ NOTE_E5, 320 }, 
	{ NOTE_D5, 320 }, 
	{ NOTE_E5, 1920 }, 
	{ NOTE_REST, 320 }, 
	{ NOTE_REST, 320 }, 
	{ NOTE_DS5, 0 }, 
	{ NOTE_E5, 320 }, 
	{ NOTE_DS5, 0 }, 
	{ NOTE_E5, 320 }, 
	{ NOTE_E5, 320 }, 
	{ NOTE_D5, 320 }, 
	{ NOTE_E5, 1920 }, 
	{ NOTE_G5, 480 }, 
	{ NOTE_FS5, 0 }, 
	{ NOTE_G5, 240 }, 
	{ NOTE_E5, 240 }, 
	{ NOTE_E5, 240 }, 
	{ NOTE_REST, 240 }, 
	{ NOTE_E5, 240 }, 
	{ NOTE_D5, 240 }, 
	{ NOTE_G5, 480 }, 
	{ NOTE_G5, 240 }, 
	{ NOTE_E5, 240 }, 
	{ NOTE_E5, 240 }, 
	{ NOTE_E5, 240 }, 
	{ NOTE_D5, 240 }, 
	{ NOTE_G5, 240 }, 
	{ NOTE_REST, 240 }, 
	{ NOTE_G5, 480 }, 
	{ NOTE_E5, 240 }, 
	{ NOTE_E5, 480 }, 
	{ NOTE_E5, 240 }, 
	{ NOTE_D5, 240 }, 
	{ NOTE_FS5, 0 }, 
	{ NOTE_G5, 240 }, 
	{ NOTE_REST, 240 }, 
	{ NOTE_G5, 240 }, 
	{ NOTE_E5, 240 }, 
	{ NOTE_E5, 240 }, 
	{ NOTE_REST, 240 }, 
	{ NOTE_D5, 240 }, 
	{ NOTE_F5, 240 }, 
	{ NOTE_REST, 240 }, 
	{ NOTE_F5, 480 }, 
	{ NOTE_D5, 240 }, 
	{ NOTE_D5, 240 }, 
	{ NOTE_D5, 240 }, 
	{ NOTE_C5, 240 }, 
	{ NOTE_E5, 240 }, 
	{ NOTE_E5, 320 }, 
	{ NOTE_E5, 320 }, 
	{ NOTE_C5, 320 }, 
	{ NOTE_C5, 320 }, 
	{ NOTE_C5, 320 }, 
	{ NOTE_AS4, 320 }, 
	{ NOTE_C5, 1920 }, 
	{ NOTE_DS5, 120 }, 
	{ NOTE_REST, 120 }, 
	{ NOTE_REST, 240 }, 
	{ NOTE_DS5, 960 }, 
	{ NOTE_DS5, 480 }, 
	{ NOTE_F5, 1920 }, 
	{ NOTE_F5, 320 }, 
	{ NOTE_F5, 0 }, 
	{ NOTE_FS5, 320 }, 
	{ NOTE_F5, 320 }, 
	{ NOTE_DS5, 320 }, 
	{ NOTE_F5, 320 }, 
	{ NOTE_DS5, 320 }, 
	{ NOTE_CS5, 720 }, 
	{ NOTE_DS5, 960 }, 
	{ NOTE_REST, 240 }, 
	{ NOTE_DS5, 960 }, 
	{ NOTE_REST, 960 }, 
	{ NOTE_GS5, 1920 }, 
	{ NOTE_REST, 320 }, 
	{ NOTE_GS5, 0 }, 
	{ NOTE_A5, 320 }, 
	{ NOTE_GS5, 320 }, 
	{ NOTE_FS5, 320 }, 
	{ NOTE_GS5, 320 }, 
	{ NOTE_FS5, 320 }, 
	{ NOTE_E5, 720 }, 
	{ NOTE_FS5, 960 }, 
	{ NOTE_REST, 240 }, 
	{ NOTE_FS5, 960 }, 
	{ NOTE_REST, 960 }, 
	{ NOTE_A5, 1920 }, 
	{ NOTE_REST, 320 }, 
	{ NOTE_A5, 0 }, 
	{ NOTE_AS5, 320 }, 
	{ NOTE_A5, 320 }, 
	{ NOTE_G5, 320 }, 
	{ NOTE_A5, 320 }, 
	{ NOTE_G5, 320 }, 
	{ NOTE_F5, 720 }, 
	{ NOTE_REST, 240 }, 
	{ NOTE_FS5, 0 }, 
	{ NOTE_G5, 960 }, 
	{ NOTE_G5, 960 }, 
	{ NOTE_REST, 320 }, 
	{ NOTE_A5, 320 }, 
	{ NOTE_AS5, 320 }, 
	{ NOTE_C6, 320 }, 
	{ NOTE_C5, 320 }, 
	{ NOTE_D5, 320 }, 
	{ NOTE_E5, 320 }, 
	{ NOTE_F5, 320 }, 
	{ NOTE_G5, 320 }, 
	{ NOTE_GS5, 1440 }, 
	{ NOTE_A5, 240 }, 
	{ NOTE_REST, 240 }, 
	{ NOTE_A5, 0 }, 
	{ NOTE_AS5, 320 }, 
	{ NOTE_AS4, 320 }, 
	{ NOTE_C5, 320 }, 
	{ NOTE_D5, 320 }, 
	{ NOTE_E5, 320 }, 
	{ NOTE_F5, 320 }, 
	{ NOTE_FS5, 720 }, 
	{ NOTE_G5, 960 }, 
	{ NOTE_REST, 240 }, 
	{ NOTE_F5, 0 }, 
	{ NOTE_G5, 240 }, 
	{ NOTE_REST, 480 }, 
	{ NOTE_E5, 240 }, 
	{ NOTE_E5, 480 }, 
	{ NOTE_REST, 240 }, 
	{ NOTE_D5, 240 }, 
	{ NOTE_G5, 480 }, 
	{ NOTE_REST, 240 }, 
	{ NOTE_E5, 240 }, 
	{ NOTE_REST, 240 }, 
	{ NOTE_E5, 240 }, 
	{ NOTE_D5, 240 }, 
	{ NOTE_G5, 240 }, 
	{ NOTE_G5, 240 }, 
	{ NOTE_G5, 480 }, 
	{ NOTE_REST, 240 }, 
	{ NOTE_E5, 480 }, 
	{ NOTE_REST, 240 }, 
	{ NOTE_D5, 240 }, 
	{ NOTE_G5, 480 }, 
	{ NOTE_REST, 240 }, 
	{ NOTE_E5, 240 }, 
	{ NOTE_REST, 240 }, 
	{ NOTE_E5, 240 }, 
	{ NOTE_D5, 240 }, 
	{ NOTE_GS5, 0 }, 
	{ NOTE_A5, 240 }, 
	{ NOTE_A5, 240 }, 
	{ NOTE_A5, 240 }, 
	{ NOTE_REST, 240 }, 
	{ NOTE_F5, 240 }, 
	{ NOTE_F5, 320 }, 
	{ NOTE_F5, 320 }, 
	{ NOTE_D5, 320 }, 
	{ NOTE_B5, 0 }, 
	{ NOTE_C6, 320 }, 
	{ NOTE_C6, 320 }, 
	{ NOTE_E5, 320 }, 
	{ NOTE_E5, 320 }, 
	{ NOTE_E5, 320 }, 
	{ NOTE_D5, 320 }, 
	{ NOTE_E5, 1920 }, 
	{ NOTE_REST, 320 }, 
	{ NOTE_REST, 320 }, 
	{ NOTE_DS5, 0 }, 
	{ NOTE_E5, 320 }, 
	{ NOTE_DS5, 0 }, 
	{ NOTE_E5, 320 }, 
	{ NOTE_E5, 320 }, 
	{ NOTE_D5, 320 }, 
	{ NOTE_E5, 1920 }, 
	{ NOTE_E5, 1920 }, 
	{ NOTE_E5, 1920 }, 
	{ NOTE_REST, 1920 }, 
};
const uint16_t NUM_OF_NOTES1 = sizeof(melody1)/sizeof(melody1[0]);

const Note melody2[] PROGMEM = {
	{ NOTE_REST, 960 }, 
	{ NOTE_REST, 720 }, 
	{ NOTE_E3, 240 }, 
	{ NOTE_F3, 480 }, 
	{ NOTE_E5, 480 }, 
	{ NOTE_F3, 240 }, 
	{ NOTE_E5, 240 }, 
	{ NOTE_E3, 240 }, 
	{ NOTE_E3, 240 }, 
	{ NOTE_F3, 480 }, 
	{ NOTE_E5, 480 }, 
	{ NOTE_F3, 240 }, 
	{ NOTE_E5, 240 }, 
	{ NOTE_E3, 240 }, 
	{ NOTE_E3, 240 }, 
	{ NOTE_F3, 480 }, 
	{ NOTE_E5, 480 }, 
	{ NOTE_F3, 240 }, 
	{ NOTE_E5, 240 }, 
	{ NOTE_E5, 480 }, 
	{ NOTE_F3, 480 }, 
	{ NOTE_E5, 480 }, 
	{ NOTE_F3, 240 }, 
	{ NOTE_E5, 240 }, 
	{ NOTE_C5, 120 }, 
	{ NOTE_REST, 120 }, 
	{ NOTE_REST, 120 }, 
	{ NOTE_REST, 120 }, 
	{ NOTE_G3, 480 }, 
	{ NOTE_E5, 480 }, 
	{ NOTE_G3, 240 }, 
	{ NOTE_E5, 240 }, 
	{ NOTE_E5, 480 }, 
	{ NOTE_G3, 480 }, 
	{ NOTE_E5, 480 }, 
	{ NOTE_G3, 240 }, 
	{ NOTE_E5, 240 }, 
	{ NOTE_E5, 240 }, 
	{ NOTE_REST, 120 }, 
	{ NOTE_REST, 120 }, 
	{ NOTE_G3, 480 }, 
	{ NOTE_F5, 480 }, 
	{ NOTE_G3, 240 }, 
	{ NOTE_F5, 240 }, 
	{ NOTE_F5, 240 }, 
	{ NOTE_FS3, 120 }, 
	{ NOTE_REST, 120 }, 
	{ NOTE_G3, 480 }, 
	{ NOTE_F5, 480 }, 
	{ NOTE_G3, 240 }, 
	{ NOTE_F5, 240 }, 
	{ NOTE_D5, 120 }, 
	{ NOTE_REST, 120 }, 
	{ NOTE_FS3, 120 }, 
	{ NOTE_REST, 120 }, 
	{ NOTE_F3, 480 }, 
	{ NOTE_C5, 480 }, 
	{ NOTE_F3, 240 }, 
	{ NOTE_C5, 240 }, 
	{ NOTE_C5, 480 }, 
	{ NOTE_AS4, 480 }, 
	{ NOTE_AS4, 480 }, 
	{ NOTE_REST, 960 }, 
	{ NOTE_F3, 480 }, 
	{ NOTE_E5, 480 }, 
	{ NOTE_F3, 240 }, 
	{ NOTE_E5, 240 }, 
	{ NOTE_E5, 480 }, 
	{ NOTE_F3, 480 }, 
	{ NOTE_E5, 480 }, 
	{ NOTE_F3, 240 }, 
	{ NOTE_E5, 240 }, 
	{ NOTE_C5, 120 }, 
	{ NOTE_REST, 120 }, 
	{ NOTE_REST, 120 }, 
	{ NOTE_REST, 120 }, 
	{ NOTE_G3, 480 }, 
	{ NOTE_E5, 480 }, 
	{ NOTE_G3, 240 }, 
	{ NOTE_E5, 240 }, 
	{ NOTE_E5, 480 }, 
	{ NOTE_G3, 480 }, 
	{ NOTE_E5, 480 }, 
	{ NOTE_G3, 240 }, 
	{ NOTE_E5, 240 }, 
	{ NOTE_E5, 240 }, 
	{ NOTE_REST, 120 }, 
	{ NOTE_REST, 120 }, 
	{ NOTE_G3, 480 }, 
	{ NOTE_F5, 480 }, 
	{ NOTE_G3, 240 }, 
	{ NOTE_F5, 240 }, 
	{ NOTE_F5, 240 }, 
	{ NOTE_FS3, 120 }, 
	{ NOTE_REST, 120 }, 
	{ NOTE_G3, 480 }, 
	{ NOTE_F5, 480 }, 
	{ NOTE_G3, 240 }, 
	{ NOTE_F5, 240 }, 
	{ NOTE_D5, 120 }, 
	{ NOTE_REST, 120 }, 
	{ NOTE_FS3, 120 }, 
	{ NOTE_REST, 120 }, 
	{ NOTE_F3, 480 }, 
	{ NOTE_C5, 480 }, 
	{ NOTE_F3, 240 }, 
	{ NOTE_C5, 240 }, 
	{ NOTE_REST, 240 }, 
	{ NOTE_C5, 120 }, 
	{ NOTE_REST, 120 }, 
	{ NOTE_F3, 480 }, 
	{ NOTE_C5, 480 }, 
	{ NOTE_F3, 240 }, 
	{ NOTE_C5, 240 }, 
	{ NOTE_REST, 240 }, 
	{ NOTE_C5, 120 }, 
	{ NOTE_REST, 120 }, 
	{ NOTE_FS3, 480 }, 
	{ NOTE_CS5, 480 }, 
	{ NOTE_FS3, 240 }, 
	{ NOTE_CS5, 240 }, 
	{ NOTE_REST, 240 }, 
	{ NOTE_CS5, 120 }, 
	{ NOTE_REST, 120 }, 
	{ NOTE_FS3, 480 }, 
	{ NOTE_CS5, 480 }, 
	{ NOTE_FS3, 240 }, 
	{ NOTE_CS5, 240 }, 
	{ NOTE_REST, 240 }, 
	{ NOTE_CS5, 120 }, 
	{ NOTE_REST, 120 }, 
	{ NOTE_FS3, 480 }, 
	{ NOTE_CS5, 480 }, 
	{ NOTE_FS3, 240 }, 
	{ NOTE_CS5, 240 }, 
	{ NOTE_REST, 240 }, 
	{ NOTE_CS5, 120 }, 
	{ NOTE_REST, 120 }, 
	{ NOTE_FS3, 480 }, 
	{ NOTE_CS5, 480 }, 
	{ NOTE_FS3, 240 }, 
	{ NOTE_DS5, 240 }, 
	{ NOTE_REST, 240 }, 
	{ NOTE_GS3, 240 }, 
	{ NOTE_A3, 480 }, 
	{ NOTE_E5, 480 }, 
	{ NOTE_A3, 240 }, 
	{ NOTE_E5, 240 }, 
	{ NOTE_REST, 240 }, 
	{ NOTE_E5, 240 }, 
	{ NOTE_A3, 480 }, 
	{ NOTE_E5, 480 }, 
	{ NOTE_A3, 240 }, 
	{ NOTE_E5, 240 }, 
	{ NOTE_REST, 240 }, 
	{ NOTE_E5, 120 }, 
	{ NOTE_REST, 120 }, 
	{ NOTE_A3, 480 }, 
	{ NOTE_C5, 480 }, 
	{ NOTE_A3, 240 }, 
	{ NOTE_C5, 240 }, 
	{ NOTE_REST, 240 }, 
	{ NOTE_E5, 120 }, 
	{ NOTE_REST, 120 }, 
	{ NOTE_A3, 480 }, 
	{ NOTE_C5, 480 }, 
	{ NOTE_A3, 240 }, 
	{ NOTE_C5, 240 }, 
	{ NOTE_REST, 240 }, 
	{ NOTE_E5, 120 }, 
	{ NOTE_REST, 120 }, 
	{ NOTE_AS3, 480 }, 
	{ NOTE_F5, 480 }, 
	{ NOTE_AS3, 240 }, 
	{ NOTE_F5, 240 }, 
	{ NOTE_REST, 240 }, 
	{ NOTE_F5, 120 }, 
	{ NOTE_REST, 120 }, 
	{ NOTE_AS3, 480 }, 
	{ NOTE_F5, 480 }, 
	{ NOTE_AS3, 240 }, 
	{ NOTE_F5, 240 }, 
	{ NOTE_REST, 240 }, 
	{ NOTE_F5, 120 }, 
	{ NOTE_REST, 120 }, 
	{ NOTE_AS3, 480 }, 
	{ NOTE_CS5, 480 }, 
	{ NOTE_AS3, 240 }, 
	{ NOTE_CS5, 240 }, 
	{ NOTE_REST, 240 }, 
	{ NOTE_REST, 120 }, 
	{ NOTE_E3, 120 }, 
	{ NOTE_AS3, 480 }, 
	{ NOTE_CS5, 480 }, 
	{ NOTE_AS3, 240 }, 
	{ NOTE_CS5, 240 }, 
	{ NOTE_REST, 240 }, 
	{ NOTE_F5, 120 }, 
	{ NOTE_REST, 120 }, 
	{ NOTE_G4, 320 }, 
	{ NOTE_REST, 320 }, 
	{ NOTE_C5, 320 }, 
	{ NOTE_REST, 320 }, 
	{ NOTE_C5, 320 }, 
	{ NOTE_REST, 320 }, 
	{ NOTE_C5, 480 }, 
	{ NOTE_A3, 480 }, 
	{ NOTE_DS5, 240 }, 
	{ NOTE_D4, 240 }, 
	{ NOTE_REST, 240 }, 
	{ NOTE_DS5, 120 }, 
	{ NOTE_REST, 120 }, 
	{ NOTE_F4, 320 }, 
	{ NOTE_REST, 320 }, 
	{ NOTE_AS4, 320 }, 
	{ NOTE_REST, 320 }, 
	{ NOTE_AS4, 320 }, 
	{ NOTE_REST, 320 }, 
	{ NOTE_AS4, 480 }, 
	{ NOTE_G3, 480 }, 
	{ NOTE_CS5, 240 }, 
	{ NOTE_C4, 240 }, 
	{ NOTE_REST, 240 }, 
	{ NOTE_CS5, 120 }, 
	{ NOTE_REST, 120 }, 
	{ NOTE_F3, 480 }, 
	{ NOTE_E5, 480 }, 
	{ NOTE_F3, 240 }, 
	{ NOTE_E5, 240 }, 
	{ NOTE_REST, 240 }, 
	{ NOTE_E5, 120 }, 
	{ NOTE_REST, 120 }, 
	{ NOTE_F3, 480 }, 
	{ NOTE_E5, 480 }, 
	{ NOTE_F3, 240 }, 
	{ NOTE_E5, 240 }, 
	{ NOTE_C5, 120 }, 
	{ NOTE_REST, 120 }, 
	{ NOTE_FS3, 120 }, 
	{ NOTE_REST, 120 }, 
	{ NOTE_G3, 480 }, 
	{ NOTE_E5, 480 }, 
	{ NOTE_G3, 240 }, 
	{ NOTE_E5, 240 }, 
	{ NOTE_E5, 480 }, 
	{ NOTE_G3, 480 }, 
	{ NOTE_E5, 480 }, 
	{ NOTE_G3, 240 }, 
	{ NOTE_E5, 240 }, 
	{ NOTE_E5, 240 }, 
	{ NOTE_FS3, 120 }, 
	{ NOTE_REST, 120 }, 
	{ NOTE_G3, 480 }, 
	{ NOTE_F5, 480 }, 
	{ NOTE_G3, 240 }, 
	{ NOTE_F5, 240 }, 
	{ NOTE_F5, 240 }, 
	{ NOTE_FS3, 120 }, 
	{ NOTE_REST, 120 }, 
	{ NOTE_G3, 480 }, 
	{ NOTE_F5, 480 }, 
	{ NOTE_G3, 240 }, 
	{ NOTE_F5, 240 }, 
	{ NOTE_D5, 120 }, 
	{ NOTE_REST, 120 }, 
	{ NOTE_FS3, 120 }, 
	{ NOTE_REST, 120 }, 
	{ NOTE_F3, 480 }, 
	{ NOTE_C5, 480 }, 
	{ NOTE_C5, 960 }, 
	{ NOTE_G3, 480 }, 
	{ NOTE_F5, 480 }, 
	{ NOTE_G3, 240 }, 
	{ NOTE_F5, 240 }, 
	{ NOTE_D5, 120 }, 
	{ NOTE_REST, 120 }, 
	{ NOTE_FS3, 120 }, 
	{ NOTE_REST, 120 }, 
	{ NOTE_F3, 480 }, 
	{ NOTE_C5, 480 }, 
	{ NOTE_C5, 960 }, 
	{ NOTE_F3, 480 }, 
	{ NOTE_E5, 480 }, 
	{ NOTE_F3, 240 }, 
	{ NOTE_E5, 240 }, 
	{ NOTE_E5, 480 }, 
	{ NOTE_F3, 480 }, 
	{ NOTE_E5, 480 }, 
	{ NOTE_F3, 240 }, 
	{ NOTE_E5, 240 }, 
	{ NOTE_C5, 120 }, 
	{ NOTE_REST, 120 }, 
	{ NOTE_FS3, 120 }, 
	{ NOTE_REST, 120 }, 
	{ NOTE_G3, 480 }, 
	{ NOTE_E5, 480 }, 
	{ NOTE_G3, 240 }, 
	{ NOTE_E5, 240 }, 
	{ NOTE_E5, 480 }, 
	{ NOTE_G3, 480 }, 
	{ NOTE_E5, 480 }, 
	{ NOTE_G3, 240 }, 
	{ NOTE_E5, 240 }, 
	{ NOTE_E5, 240 }, 
	{ NOTE_FS3, 120 }, 
	{ NOTE_REST, 120 }, 
	{ NOTE_G3, 480 }, 
	{ NOTE_F5, 480 }, 
	{ NOTE_G3, 240 }, 
	{ NOTE_F5, 240 }, 
	{ NOTE_F5, 240 }, 
	{ NOTE_FS3, 120 }, 
	{ NOTE_REST, 120 }, 
	{ NOTE_G3, 480 }, 
	{ NOTE_F5, 480 }, 
	{ NOTE_G3, 240 }, 
	{ NOTE_F5, 240 }, 
	{ NOTE_D5, 120 }, 
	{ NOTE_REST, 120 }, 
	{ NOTE_FS3, 120 }, 
	{ NOTE_REST, 120 }, 
	{ NOTE_F3, 480 }, 
	{ NOTE_C5, 480 }, 
	{ NOTE_F3, 240 }, 
	{ NOTE_C5, 240 }, 
	{ NOTE_C5, 480 }, 
	{ NOTE_AS4, 480 }, 
	{ NOTE_AS4, 480 }, 
	{ NOTE_REST, 960 }, 
	{ NOTE_FS3, 480 }, 
	{ NOTE_CS5, 480 }, 
	{ NOTE_FS3, 240 }, 
	{ NOTE_CS5, 240 }, 
	{ NOTE_REST, 240 }, 
	{ NOTE_CS5, 120 }, 
	{ NOTE_REST, 120 }, 
	{ NOTE_FS3, 480 }, 
	{ NOTE_CS5, 480 }, 
	{ NOTE_FS3, 240 }, 
	{ NOTE_CS5, 240 }, 
	{ NOTE_REST, 240 }, 
	{ NOTE_CS5, 120 }, 
	{ NOTE_REST, 120 }, 
	{ NOTE_FS3, 480 }, 
	{ NOTE_CS5, 480 }, 
	{ NOTE_FS3, 240 }, 
	{ NOTE_CS5, 240 }, 
	{ NOTE_REST, 240 }, 
	{ NOTE_CS5, 120 }, 
	{ NOTE_REST, 120 }, 
	{ NOTE_FS3, 480 }, 
	{ NOTE_CS5, 480 }, 
	{ NOTE_FS3, 240 }, 
	{ NOTE_DS5, 240 }, 
	{ NOTE_REST, 240 }, 
	{ NOTE_GS3, 240 }, 
	{ NOTE_A3, 480 }, 
	{ NOTE_E5, 480 }, 
	{ NOTE_A3, 240 }, 
	{ NOTE_E5, 240 }, 
	{ NOTE_REST, 240 }, 
	{ NOTE_E5, 240 }, 
	{ NOTE_A3, 480 }, 
	{ NOTE_E5, 480 }, 
	{ NOTE_A3, 240 }, 
	{ NOTE_E5, 240 }, 
	{ NOTE_REST, 240 }, 
	{ NOTE_E5, 120 }, 
	{ NOTE_REST, 120 }, 
	{ NOTE_A3, 480 }, 
	{ NOTE_C5, 480 }, 
	{ NOTE_A3, 240 }, 
	{ NOTE_C5, 240 }, 
	{ NOTE_REST, 240 }, 
	{ NOTE_E5, 120 }, 
	{ NOTE_REST, 120 }, 
	{ NOTE_A3, 480 }, 
	{ NOTE_C5, 480 }, 
	{ NOTE_A3, 240 }, 
	{ NOTE_C5, 240 }, 
	{ NOTE_REST, 240 }, 
	{ NOTE_E5, 120 }, 
	{ NOTE_REST, 120 }, 
	{ NOTE_AS3, 480 }, 
	{ NOTE_F5, 480 }, 
	{ NOTE_AS3, 240 }, 
	{ NOTE_F5, 240 }, 
	{ NOTE_REST, 240 }, 
	{ NOTE_F5, 120 }, 
	{ NOTE_REST, 120 }, 
	{ NOTE_AS3, 480 }, 
	{ NOTE_F5, 480 }, 
	{ NOTE_AS3, 240 }, 
	{ NOTE_F5, 240 }, 
	{ NOTE_REST, 240 }, 
	{ NOTE_F5, 120 }, 
	{ NOTE_REST, 120 }, 
	{ NOTE_AS3, 480 }, 
	{ NOTE_CS5, 480 }, 
	{ NOTE_AS3, 240 }, 
	{ NOTE_REST, 240 }, 
	{ NOTE_REST, 240 }, 
	{ NOTE_F5, 120 }, 
	{ NOTE_REST, 120 }, 
	{ NOTE_AS3, 480 }, 
	{ NOTE_CS5, 480 }, 
	{ NOTE_AS3, 240 }, 
	{ NOTE_CS5, 240 }, 
	{ NOTE_REST, 240 }, 
	{ NOTE_F5, 120 }, 
	{ NOTE_REST, 120 }, 
	{ NOTE_G4, 320 }, 
	{ NOTE_REST, 320 }, 
	{ NOTE_C5, 320 }, 
	{ NOTE_REST, 320 }, 
	{ NOTE_C5, 320 }, 
	{ NOTE_REST, 320 }, 
	{ NOTE_C5, 480 }, 
	{ NOTE_A3, 480 }, 
	{ NOTE_DS5, 240 }, 
	{ NOTE_D4, 240 }, 
	{ NOTE_REST, 240 }, 
	{ NOTE_DS5, 120 }, 
	{ NOTE_REST, 120 }, 
	{ NOTE_F4, 320 }, 
	{ NOTE_REST, 320 }, 
	{ NOTE_AS4, 320 }, 
	{ NOTE_REST, 320 }, 
	{ NOTE_AS4, 320 }, 
	{ NOTE_REST, 320 }, 
	{ NOTE_AS4, 480 }, 
	{ NOTE_G3, 480 }, 
	{ NOTE_CS5, 240 }, 
	{ NOTE_C4, 240 }, 
	{ NOTE_REST, 240 }, 
	{ NOTE_CS5, 120 }, 
	{ NOTE_REST, 120 }, 
	{ NOTE_F3, 480 }, 
	{ NOTE_E5, 480 }, 
	{ NOTE_F3, 240 }, 
	{ NOTE_E5, 240 }, 
	{ NOTE_E5, 480 }, 
	{ NOTE_F3, 480 }, 
	{ NOTE_E5, 480 }, 
	{ NOTE_F3, 240 }, 
	{ NOTE_E5, 240 }, 
	{ NOTE_C5, 120 }, 
	{ NOTE_REST, 120 }, 
	{ NOTE_FS3, 120 }, 
	{ NOTE_REST, 120 }, 
	{ NOTE_G3, 480 }, 
	{ NOTE_E5, 480 }, 
	{ NOTE_G3, 240 }, 
	{ NOTE_E5, 240 }, 
	{ NOTE_E5, 480 }, 
	{ NOTE_G3, 480 }, 
	{ NOTE_E5, 480 }, 
	{ NOTE_G3, 240 }, 
	{ NOTE_E5, 240 }, 
	{ NOTE_E5, 240 }, 
	{ NOTE_FS3, 120 }, 
	{ NOTE_REST, 120 }, 
	{ NOTE_G3, 480 }, 
	{ NOTE_F5, 480 }, 
	{ NOTE_G3, 240 }, 
	{ NOTE_F5, 240 }, 
	{ NOTE_F5, 240 }, 
	{ NOTE_FS3, 120 }, 
	{ NOTE_REST, 120 }, 
	{ NOTE_G3, 480 }, 
	{ NOTE_F5, 480 }, 
	{ NOTE_G3, 240 }, 
	{ NOTE_F5, 240 }, 
	{ NOTE_D5, 120 }, 
	{ NOTE_REST, 120 }, 
	{ NOTE_FS3, 120 }, 
	{ NOTE_REST, 120 }, 
	{ NOTE_F3, 480 }, 
	{ NOTE_C5, 480 }, 
	{ NOTE_F3, 240 }, 
	{ NOTE_C5, 240 }, 
	{ NOTE_C5, 480 }, 
	{ NOTE_G3, 480 }, 
	{ NOTE_F5, 480 }, 
	{ NOTE_G3, 240 }, 
	{ NOTE_F5, 240 }, 
	{ NOTE_D5, 120 }, 
	{ NOTE_REST, 120 }, 
	{ NOTE_FS3, 120 }, 
	{ NOTE_REST, 120 }, 
	{ NOTE_F3, 480 }, 
	{ NOTE_C5, 480 }, 
	{ NOTE_F3, 240 }, 
	{ NOTE_C5, 240 }, 
	{ NOTE_C5, 480 }, 
	{ NOTE_E4, 1920 }, 
	{ NOTE_E4, 1920 }, 
	{ NOTE_REST, 1920 }, 
};
const uint16_t NUM_OF_NOTES2 = sizeof(melody2)/sizeof(melody2[0]);

const Note melody3[] PROGMEM = {
	{ NOTE_REST, 960 }, 
	{ NOTE_REST, 720 }, 
	{ NOTE_E3, 240 }, 
	{ NOTE_F3, 480 }, 
	{ NOTE_C5, 480 }, 
	{ NOTE_F3, 240 }, 
	{ NOTE_C5, 240 }, 
	{ NOTE_E3, 240 }, 
	{ NOTE_E3, 240 }, 
	{ NOTE_F3, 480 }, 
	{ NOTE_C5, 480 }, 
	{ NOTE_F3, 240 }, 
	{ NOTE_C5, 240 }, 
	{ NOTE_E3, 240 }, 
	{ NOTE_E3, 240 }, 
	{ NOTE_F3, 480 }, 
	{ NOTE_C5, 480 }, 
	{ NOTE_F3, 240 }, 
	{ NOTE_C5, 240 }, 
	{ NOTE_C5, 480 }, 
	{ NOTE_F3, 480 }, 
	{ NOTE_C5, 480 }, 
	{ NOTE_F3, 240 }, 
	{ NOTE_C5, 240 }, 
	{ NOTE_A4, 120 }, 
	{ NOTE_REST, 120 }, 
	{ NOTE_REST, 120 }, 
	{ NOTE_REST, 120 }, 
	{ NOTE_G3, 480 }, 
	{ NOTE_B4, 480 }, 
	{ NOTE_G3, 240 }, 
	{ NOTE_B4, 240 }, 
	{ NOTE_B4, 480 }, 
	{ NOTE_G3, 480 }, 
	{ NOTE_B4, 480 }, 
	{ NOTE_G3, 240 }, 
	{ NOTE_B4, 240 }, 
	{ NOTE_B4, 240 }, 
	{ NOTE_REST, 120 }, 
	{ NOTE_REST, 120 }, 
	{ NOTE_G3, 480 }, 
	{ NOTE_D5, 480 }, 
	{ NOTE_G3, 240 }, 
	{ NOTE_D5, 240 }, 
	{ NOTE_D5, 240 }, 
	{ NOTE_FS3, 120 }, 
	{ NOTE_REST, 120 }, 
	{ NOTE_G3, 480 }, 
	{ NOTE_D5, 480 }, 
	{ NOTE_G3, 240 }, 
	{ NOTE_D5, 240 }, 
	{ NOTE_AS4, 120 }, 
	{ NOTE_REST, 120 }, 
	{ NOTE_FS3, 120 }, 
	{ NOTE_REST, 120 }, 
	{ NOTE_F3, 480 }, 
	{ NOTE_A4, 480 }, 
	{ NOTE_F3, 240 }, 
	{ NOTE_A4, 240 }, 
	{ NOTE_A4, 480 }, 
	{ NOTE_F4, 480 }, 
	{ NOTE_F4, 480 }, 
	{ NOTE_REST, 960 }, 
	{ NOTE_F3, 480 }, 
	{ NOTE_C5, 480 }, 
	{ NOTE_F3, 240 }, 
	{ NOTE_C5, 240 }, 
	{ NOTE_C5, 480 }, 
	{ NOTE_F3, 480 }, 
	{ NOTE_C5, 480 }, 
	{ NOTE_F3, 240 }, 
	{ NOTE_C5, 240 }, 
	{ NOTE_A4, 120 }, 
	{ NOTE_REST, 120 }, 
	{ NOTE_REST, 120 }, 
	{ NOTE_REST, 120 }, 
	{ NOTE_G3, 480 }, 
	{ NOTE_B4, 480 }, 
	{ NOTE_G3, 240 }, 
	{ NOTE_B4, 240 }, 
	{ NOTE_B4, 480 }, 
	{ NOTE_G3, 480 }, 
	{ NOTE_B4, 480 }, 
	{ NOTE_G3, 240 }, 
	{ NOTE_B4, 240 }, 
	{ NOTE_B4, 240 }, 
	{ NOTE_REST, 120 }, 
	{ NOTE_REST, 120 }, 
	{ NOTE_G3, 480 }, 
	{ NOTE_D5, 480 }, 
	{ NOTE_G3, 240 }, 
	{ NOTE_D5, 240 }, 
	{ NOTE_D5, 240 }, 
	{ NOTE_FS3, 120 }, 
	{ NOTE_REST, 120 }, 
	{ NOTE_G3, 480 }, 
	{ NOTE_D5, 480 }, 
	{ NOTE_G3, 240 }, 
	{ NOTE_D5, 240 }, 
	{ NOTE_AS4, 120 }, 
	{ NOTE_REST, 120 }, 
	{ NOTE_FS3, 120 }, 
	{ NOTE_REST, 120 }, 
	{ NOTE_F3, 480 }, 
	{ NOTE_A4, 480 }, 
	{ NOTE_F3, 240 }, 
	{ NOTE_A4, 240 }, 
	{ NOTE_REST, 240 }, 
	{ NOTE_A4, 120 }, 
	{ NOTE_REST, 120 }, 
	{ NOTE_F3, 480 }, 
	{ NOTE_A4, 480 }, 
	{ NOTE_F3, 240 }, 
	{ NOTE_A4, 240 }, 
	{ NOTE_REST, 240 }, 
	{ NOTE_A4, 120 }, 
	{ NOTE_REST, 120 }, 
	{ NOTE_FS3, 480 }, 
	{ NOTE_AS4, 480 }, 
	{ NOTE_FS3, 240 }, 
	{ NOTE_AS4, 240 }, 
	{ NOTE_REST, 240 }, 
	{ NOTE_AS4, 120 }, 
	{ NOTE_REST, 120 }, 
	{ NOTE_FS3, 480 }, 
	{ NOTE_AS4, 480 }, 
	{ NOTE_FS3, 240 }, 
	{ NOTE_AS4, 240 }, 
	{ NOTE_REST, 240 }, 
	{ NOTE_AS4, 120 }, 
	{ NOTE_REST, 120 }, 
	{ NOTE_FS3, 480 }, 
	{ NOTE_A4, 480 }, 
	{ NOTE_FS3, 240 }, 
	{ NOTE_A4, 240 }, 
	{ NOTE_REST, 240 }, 
	{ NOTE_A4, 120 }, 
	{ NOTE_REST, 120 }, 
	{ NOTE_FS3, 480 }, 
	{ NOTE_A4, 480 }, 
	{ NOTE_FS3, 240 }, 
	{ NOTE_A4, 240 }, 
	{ NOTE_REST, 240 }, 
	{ NOTE_GS3, 240 }, 
	{ NOTE_A3, 480 }, 
	{ NOTE_CS5, 480 }, 
	{ NOTE_A3, 240 }, 
	{ NOTE_CS5, 240 }, 
	{ NOTE_REST, 240 }, 
	{ NOTE_CS5, 240 }, 
	{ NOTE_A3, 480 }, 
	{ NOTE_CS5, 480 }, 
	{ NOTE_A3, 240 }, 
	{ NOTE_CS5, 240 }, 
	{ NOTE_REST, 240 }, 
	{ NOTE_CS5, 120 }, 
	{ NOTE_REST, 120 }, 
	{ NOTE_A3, 480 }, 
	{ NOTE_FS4, 480 }, 
	{ NOTE_A3, 240 }, 
	{ NOTE_FS4, 240 }, 
	{ NOTE_REST, 240 }, 
	{ NOTE_C5, 120 }, 
	{ NOTE_REST, 120 }, 
	{ NOTE_A3, 480 }, 
	{ NOTE_FS4, 480 }, 
	{ NOTE_A3, 240 }, 
	{ NOTE_FS4, 240 }, 
	{ NOTE_REST, 240 }, 
	{ NOTE_C5, 120 }, 
	{ NOTE_REST, 120 }, 
	{ NOTE_AS3, 480 }, 
	{ NOTE_D5, 480 }, 
	{ NOTE_AS3, 240 }, 
	{ NOTE_D5, 240 }, 
	{ NOTE_REST, 240 }, 
	{ NOTE_D5, 120 }, 
	{ NOTE_REST, 120 }, 
	{ NOTE_AS3, 480 }, 
	{ NOTE_D5, 480 }, 
	{ NOTE_AS3, 240 }, 
	{ NOTE_D5, 240 }, 
	{ NOTE_REST, 240 }, 
	{ NOTE_D5, 120 }, 
	{ NOTE_REST, 120 }, 
	{ NOTE_AS3, 480 }, 
	{ NOTE_G4, 480 }, 
	{ NOTE_AS3, 240 }, 
	{ NOTE_G4, 240 }, 
	{ NOTE_REST, 240 }, 
	{ NOTE_REST, 120 }, 
	{ NOTE_E3, 120 }, 
	{ NOTE_AS3, 480 }, 
	{ NOTE_G4, 480 }, 
	{ NOTE_AS3, 240 }, 
	{ NOTE_G4, 240 }, 
	{ NOTE_REST, 240 }, 
	{ NOTE_CS5, 120 }, 
	{ NOTE_REST, 120 }, 
	{ NOTE_E4, 320 }, 
	{ NOTE_REST, 320 }, 
	{ NOTE_G4, 320 }, 
	{ NOTE_REST, 320 }, 
	{ NOTE_G4, 320 }, 
	{ NOTE_REST, 320 }, 
	{ NOTE_FS4, 480 }, 
	{ NOTE_A3, 480 }, 
	{ NOTE_C5, 240 }, 
	{ NOTE_D4, 240 }, 
	{ NOTE_REST, 240 }, 
	{ NOTE_C5, 120 }, 
	{ NOTE_REST, 120 }, 
	{ NOTE_D4, 320 }, 
	{ NOTE_REST, 320 }, 
	{ NOTE_F4, 320 }, 
	{ NOTE_REST, 320 }, 
	{ NOTE_F4, 320 }, 
	{ NOTE_REST, 320 }, 
	{ NOTE_E4, 480 }, 
	{ NOTE_G3, 480 }, 
	{ NOTE_AS4, 240 }, 
	{ NOTE_C4, 240 }, 
	{ NOTE_REST, 240 }, 
	{ NOTE_AS4, 120 }, 
	{ NOTE_REST, 120 }, 
	{ NOTE_F3, 480 }, 
	{ NOTE_C5, 480 }, 
	{ NOTE_F3, 240 }, 
	{ NOTE_C5, 240 }, 
	{ NOTE_REST, 240 }, 
	{ NOTE_C5, 120 }, 
	{ NOTE_REST, 120 }, 
	{ NOTE_F3, 480 }, 
	{ NOTE_C5, 480 }, 
	{ NOTE_F3, 240 }, 
	{ NOTE_C5, 240 }, 
	{ NOTE_A4, 120 }, 
	{ NOTE_REST, 120 }, 
	{ NOTE_FS3, 120 }, 
	{ NOTE_REST, 120 }, 
	{ NOTE_G3, 480 }, 
	{ NOTE_B4, 480 }, 
	{ NOTE_G3, 240 }, 
	{ NOTE_B4, 240 }, 
	{ NOTE_B4, 480 }, 
	{ NOTE_G3, 480 }, 
	{ NOTE_B4, 480 }, 
	{ NOTE_G3, 240 }, 
	{ NOTE_B4, 240 }, 
	{ NOTE_B4, 240 }, 
	{ NOTE_FS3, 120 }, 
	{ NOTE_REST, 120 }, 
	{ NOTE_G3, 480 }, 
	{ NOTE_D5, 480 }, 
	{ NOTE_G3, 240 }, 
	{ NOTE_D5, 240 }, 
	{ NOTE_D5, 240 }, 
	{ NOTE_FS3, 120 }, 
	{ NOTE_REST, 120 }, 
	{ NOTE_G3, 480 }, 
	{ NOTE_D5, 480 }, 
	{ NOTE_G3, 240 }, 
	{ NOTE_D5, 240 }, 
	{ NOTE_AS4, 120 }, 
	{ NOTE_REST, 120 }, 
	{ NOTE_FS3, 120 }, 
	{ NOTE_REST, 120 }, 
	{ NOTE_F3, 480 }, 
	{ NOTE_A4, 480 }, 
	{ NOTE_A4, 960 }, 
	{ NOTE_G3, 480 }, 
	{ NOTE_D5, 480 }, 
	{ NOTE_G3, 240 }, 
	{ NOTE_D5, 240 }, 
	{ NOTE_AS4, 120 }, 
	{ NOTE_REST, 120 }, 
	{ NOTE_FS3, 120 }, 
	{ NOTE_REST, 120 }, 
	{ NOTE_F3, 480 }, 
	{ NOTE_A4, 480 }, 
	{ NOTE_A4, 960 }, 
	{ NOTE_F3, 480 }, 
	{ NOTE_C5, 480 }, 
	{ NOTE_F3, 240 }, 
	{ NOTE_C5, 240 }, 
	{ NOTE_C5, 480 }, 
	{ NOTE_F3, 480 }, 
	{ NOTE_C5, 480 }, 
	{ NOTE_F3, 240 }, 
	{ NOTE_C5, 240 }, 
	{ NOTE_A4, 120 }, 
	{ NOTE_REST, 120 }, 
	{ NOTE_FS3, 120 }, 
	{ NOTE_REST, 120 }, 
	{ NOTE_G3, 480 }, 
	{ NOTE_B4, 480 }, 
	{ NOTE_G3, 240 }, 
	{ NOTE_B4, 240 }, 
	{ NOTE_B4, 480 }, 
	{ NOTE_G3, 480 }, 
	{ NOTE_B4, 480 }, 
	{ NOTE_G3, 240 }, 
	{ NOTE_B4, 240 }, 
	{ NOTE_B4, 240 }, 
	{ NOTE_FS3, 120 }, 
	{ NOTE_REST, 120 }, 
	{ NOTE_G3, 480 }, 
	{ NOTE_D5, 480 }, 
	{ NOTE_G3, 240 }, 
	{ NOTE_D5, 240 }, 
	{ NOTE_D5, 240 }, 
	{ NOTE_FS3, 120 }, 
	{ NOTE_REST, 120 }, 
	{ NOTE_G3, 480 }, 
	{ NOTE_D5, 480 }, 
	{ NOTE_G3, 240 }, 
	{ NOTE_D5, 240 }, 
	{ NOTE_AS4, 120 }, 
	{ NOTE_REST, 120 }, 
	{ NOTE_FS3, 120 }, 
	{ NOTE_REST, 120 }, 
	{ NOTE_F3, 480 }, 
	{ NOTE_A4, 480 }, 
	{ NOTE_F3, 240 }, 
	{ NOTE_A4, 240 }, 
	{ NOTE_A4, 480 }, 
	{ NOTE_F4, 480 }, 
	{ NOTE_F4, 480 }, 
	{ NOTE_REST, 960 }, 
	{ NOTE_FS3, 480 }, 
	{ NOTE_AS4, 480 }, 
	{ NOTE_FS3, 240 }, 
	{ NOTE_AS4, 240 }, 
	{ NOTE_REST, 240 }, 
	{ NOTE_AS4, 120 }, 
	{ NOTE_REST, 120 }, 
	{ NOTE_FS3, 480 }, 
	{ NOTE_AS4, 480 }, 
	{ NOTE_FS3, 240 }, 
	{ NOTE_AS4, 240 }, 
	{ NOTE_REST, 240 }, 
	{ NOTE_AS4, 120 }, 
	{ NOTE_REST, 120 }, 
	{ NOTE_FS3, 480 }, 
	{ NOTE_A4, 480 }, 
	{ NOTE_FS3, 240 }, 
	{ NOTE_A4, 240 }, 
	{ NOTE_REST, 240 }, 
	{ NOTE_A4, 120 }, 
	{ NOTE_REST, 120 }, 
	{ NOTE_FS3, 480 }, 
	{ NOTE_A4, 480 }, 
	{ NOTE_FS3, 240 }, 
	{ NOTE_A4, 240 }, 
	{ NOTE_REST, 240 }, 
	{ NOTE_GS3, 240 }, 
	{ NOTE_A3, 480 }, 
	{ NOTE_CS5, 480 }, 
	{ NOTE_A3, 240 }, 
	{ NOTE_CS5, 240 }, 
	{ NOTE_REST, 240 }, 
	{ NOTE_CS5, 240 }, 
	{ NOTE_A3, 480 }, 
	{ NOTE_CS5, 480 }, 
	{ NOTE_A3, 240 }, 
	{ NOTE_CS5, 240 }, 
	{ NOTE_REST, 240 }, 
	{ NOTE_CS5, 120 }, 
	{ NOTE_REST, 120 }, 
	{ NOTE_A3, 480 }, 
	{ NOTE_FS4, 480 }, 
	{ NOTE_A3, 240 }, 
	{ NOTE_FS4, 240 }, 
	{ NOTE_REST, 240 }, 
	{ NOTE_C5, 120 }, 
	{ NOTE_REST, 120 }, 
	{ NOTE_A3, 480 }, 
	{ NOTE_FS4, 480 }, 
	{ NOTE_A3, 240 }, 
	{ NOTE_FS4, 240 }, 
	{ NOTE_REST, 240 }, 
	{ NOTE_C5, 120 }, 
	{ NOTE_REST, 120 }, 
	{ NOTE_AS3, 480 }, 
	{ NOTE_D5, 480 }, 
	{ NOTE_AS3, 240 }, 
	{ NOTE_D5, 240 }, 
	{ NOTE_REST, 240 }, 
	{ NOTE_D5, 120 }, 
	{ NOTE_REST, 120 }, 
	{ NOTE_AS3, 480 }, 
	{ NOTE_D5, 480 }, 
	{ NOTE_AS3, 240 }, 
	{ NOTE_D5, 240 }, 
	{ NOTE_REST, 240 }, 
	{ NOTE_D5, 120 }, 
	{ NOTE_REST, 120 }, 
	{ NOTE_AS3, 480 }, 
	{ NOTE_G4, 480 }, 
	{ NOTE_AS3, 240 }, 
	{ NOTE_REST, 240 }, 
	{ NOTE_REST, 240 }, 
	{ NOTE_CS5, 120 }, 
	{ NOTE_REST, 120 }, 
	{ NOTE_AS3, 480 }, 
	{ NOTE_G4, 480 }, 
	{ NOTE_AS3, 240 }, 
	{ NOTE_G4, 240 }, 
	{ NOTE_REST, 240 }, 
	{ NOTE_CS5, 120 }, 
	{ NOTE_REST, 120 }, 
	{ NOTE_E4, 320 }, 
	{ NOTE_REST, 320 }, 
	{ NOTE_G4, 320 }, 
	{ NOTE_REST, 320 }, 
	{ NOTE_G4, 320 }, 
	{ NOTE_REST, 320 }, 
	{ NOTE_FS4, 480 }, 
	{ NOTE_A3, 480 }, 
	{ NOTE_C5, 240 }, 
	{ NOTE_D4, 240 }, 
	{ NOTE_REST, 240 }, 
	{ NOTE_C5, 120 }, 
	{ NOTE_REST, 120 }, 
	{ NOTE_D4, 320 }, 
	{ NOTE_REST, 320 }, 
	{ NOTE_F4, 320 }, 
	{ NOTE_REST, 320 }, 
	{ NOTE_F4, 320 }, 
	{ NOTE_REST, 320 }, 
	{ NOTE_E4, 480 }, 
	{ NOTE_G3, 480 }, 
	{ NOTE_AS4, 240 }, 
	{ NOTE_C4, 240 }, 
	{ NOTE_REST, 240 }, 
	{ NOTE_AS4, 120 }, 
	{ NOTE_REST, 120 }, 
	{ NOTE_F3, 480 }, 
	{ NOTE_C5, 480 }, 
	{ NOTE_F3, 240 }, 
	{ NOTE_C5, 240 }, 
	{ NOTE_C5, 480 }, 
	{ NOTE_F3, 480 }, 
	{ NOTE_C5, 480 }, 
	{ NOTE_F3, 240 }, 
	{ NOTE_C5, 240 }, 
	{ NOTE_A4, 120 }, 
	{ NOTE_REST, 120 }, 
	{ NOTE_FS3, 120 }, 
	{ NOTE_REST, 120 }, 
	{ NOTE_G3, 480 }, 
	{ NOTE_B4, 480 }, 
	{ NOTE_G3, 240 }, 
	{ NOTE_B4, 240 }, 
	{ NOTE_B4, 480 }, 
	{ NOTE_G3, 480 }, 
	{ NOTE_B4, 480 }, 
	{ NOTE_G3, 240 }, 
	{ NOTE_B4, 240 }, 
	{ NOTE_B4, 240 }, 
	{ NOTE_FS3, 120 }, 
	{ NOTE_REST, 120 }, 
	{ NOTE_G3, 480 }, 
	{ NOTE_D5, 480 }, 
	{ NOTE_G3, 240 }, 
	{ NOTE_D5, 240 }, 
	{ NOTE_D5, 240 }, 
	{ NOTE_FS3, 120 }, 
	{ NOTE_REST, 120 }, 
	{ NOTE_G3, 480 }, 
	{ NOTE_D5, 480 }, 
	{ NOTE_G3, 240 }, 
	{ NOTE_D5, 240 }, 
	{ NOTE_AS4, 120 }, 
	{ NOTE_REST, 120 }, 
	{ NOTE_FS3, 120 }, 
	{ NOTE_REST, 120 }, 
	{ NOTE_F3, 480 }, 
	{ NOTE_A4, 480 }, 
	{ NOTE_F3, 240 }, 
	{ NOTE_A4, 240 }, 
	{ NOTE_A4, 480 }, 
	{ NOTE_G3, 480 }, 
	{ NOTE_D5, 480 }, 
	{ NOTE_G3, 240 }, 
	{ NOTE_D5, 240 }, 
	{ NOTE_AS4, 120 }, 
	{ NOTE_REST, 120 }, 
	{ NOTE_FS3, 120 }, 
	{ NOTE_REST, 120 }, 
	{ NOTE_F3, 480 }, 
	{ NOTE_A4, 480 }, 
	{ NOTE_F3, 240 }, 
	{ NOTE_A4, 240 }, 
	{ NOTE_A4, 480 }, 
	{ NOTE_C4, 1920 }, 
	{ NOTE_C4, 1920 }, 
	{ NOTE_REST, 1920 }, 
};
const uint16_t NUM_OF_NOTES3 = sizeof(melody3)/sizeof(melody3[0]);

const Note melody4[] PROGMEM = {
	{ NOTE_REST, 1920 }, 
	{ NOTE_REST, 1920 }, 
	{ NOTE_REST, 960 }, 
	{ NOTE_REST, 720 }, 
	{ NOTE_E3, 120 }, 
	{ NOTE_REST, 120 }, 
	{ NOTE_F3, 960 }, 
	{ NOTE_REST, 240 }, 
	{ NOTE_C4, 240 }, 
	{ NOTE_REST, 240 }, 
	{ NOTE_F3, 120 }, 
	{ NOTE_REST, 120 }, 
	{ NOTE_F3, 480 }, 
	{ NOTE_REST, 240 }, 
	{ NOTE_C4, 240 }, 
	{ NOTE_REST, 240 }, 
	{ NOTE_F3, 240 }, 
	{ NOTE_REST, 240 }, 
	{ NOTE_F3, 120 }, 
	{ NOTE_REST, 120 }, 
	{ NOTE_G3, 960 }, 
	{ NOTE_REST, 240 }, 
	{ NOTE_D4, 240 }, 
	{ NOTE_REST, 240 }, 
	{ NOTE_G3, 120 }, 
	{ NOTE_REST, 120 }, 
	{ NOTE_G3, 480 }, 
	{ NOTE_REST, 240 }, 
	{ NOTE_G4, 240 }, 
	{ NOTE_REST, 240 }, 
	{ NOTE_G3, 240 }, 
	{ NOTE_REST, 120 }, 
	{ NOTE_REST, 120 }, 
	{ NOTE_G3, 120 }, 
	{ NOTE_REST, 120 }, 
	{ NOTE_G3, 960 }, 
	{ NOTE_REST, 240 }, 
	{ NOTE_D4, 240 }, 
	{ NOTE_G3, 240 }, 
	{ NOTE_E3, 120 }, 
	{ NOTE_REST, 120 }, 
	{ NOTE_G3, 960 }, 
	{ NOTE_REST, 240 }, 
	{ NOTE_D4, 240 }, 
	{ NOTE_REST, 240 }, 
	{ NOTE_E3, 120 }, 
	{ NOTE_REST, 120 }, 
	{ NOTE_F3, 480 }, 
	{ NOTE_C4, 240 }, 
	{ NOTE_REST, 240 }, 
	{ NOTE_REST, 240 }, 
	{ NOTE_F3, 480 }, 
	{ NOTE_C4, 120 }, 
	{ NOTE_REST, 120 }, 
	{ NOTE_CS4, 480 }, 
	{ NOTE_CS4, 480 }, 
	{ NOTE_REST, 240 }, 
	{ NOTE_CS4, 120 }, 
	{ NOTE_REST, 120 }, 
	{ NOTE_B3, 120 }, 
	{ NOTE_REST, 120 }, 
	{ NOTE_F3, 120 }, 
	{ NOTE_REST, 120 }, 
	{ NOTE_F3, 960 }, 
	{ NOTE_REST, 240 }, 
	{ NOTE_C4, 240 }, 
	{ NOTE_REST, 240 }, 
	{ NOTE_F3, 120 }, 
	{ NOTE_REST, 120 }, 
	{ NOTE_F3, 480 }, 
	{ NOTE_REST, 240 }, 
	{ NOTE_C4, 240 }, 
	{ NOTE_REST, 240 }, 
	{ NOTE_F3, 240 }, 
	{ NOTE_REST, 240 }, 
	{ NOTE_F3, 120 }, 
	{ NOTE_REST, 120 }, 
	{ NOTE_G3, 960 }, 
	{ NOTE_REST, 240 }, 
	{ NOTE_D4, 240 }, 
	{ NOTE_REST, 240 }, 
	{ NOTE_G3, 120 }, 
	{ NOTE_REST, 120 }, 
	{ NOTE_G3, 480 }, 
	{ NOTE_REST, 240 }, 
	{ NOTE_G4, 240 }, 
	{ NOTE_REST, 240 }, 
	{ NOTE_G3, 240 }, 
	{ NOTE_REST, 120 }, 
	{ NOTE_REST, 120 }, 
	{ NOTE_G3, 120 }, 
	{ NOTE_REST, 120 }, 
	{ NOTE_G3, 960 }, 
	{ NOTE_REST, 240 }, 
	{ NOTE_D4, 240 }, 
	{ NOTE_G3, 240 }, 
	{ NOTE_E3, 120 }, 
	{ NOTE_REST, 120 }, 
	{ NOTE_G3, 960 }, 
	{ NOTE_REST, 240 }, 
	{ NOTE_D4, 240 }, 
	{ NOTE_REST, 240 }, 
	{ NOTE_E3, 120 }, 
	{ NOTE_REST, 120 }, 
	{ NOTE_F3, 480 }, 
	{ NOTE_REST, 240 }, 
	{ NOTE_C4, 240 }, 
	{ NOTE_REST, 240 }, 
	{ NOTE_F3, 240 }, 
	{ NOTE_REST, 240 }, 
	{ NOTE_F3, 120 }, 
	{ NOTE_REST, 120 }, 
	{ NOTE_F3, 480 }, 
	{ NOTE_REST, 240 }, 
	{ NOTE_C4, 240 }, 
	{ NOTE_REST, 240 }, 
	{ NOTE_F3, 240 }, 
	{ NOTE_REST, 240 }, 
	{ NOTE_FS3, 120 }, 
	{ NOTE_REST, 120 }, 
	{ NOTE_FS3, 960 }, 
	{ NOTE_REST, 240 }, 
	{ NOTE_CS4, 240 }, 
	{ NOTE_REST, 120 }, 
	{ NOTE_REST, 120 }, 
	{ NOTE_F3, 120 }, 
	{ NOTE_REST, 120 }, 
	{ NOTE_FS3, 960 }, 
	{ NOTE_REST, 240 }, 
	{ NOTE_CS4, 240 }, 
	{ NOTE_REST, 240 }, 
	{ NOTE_E3, 120 }, 
	{ NOTE_REST, 120 }, 
	{ NOTE_FS3, 960 }, 
	{ NOTE_REST, 240 }, 
	{ NOTE_CS4, 240 }, 
	{ NOTE_B3, 120 }, 
	{ NOTE_REST, 120 }, 
	{ NOTE_C4, 120 }, 
	{ NOTE_REST, 120 }, 
	{ NOTE_FS3, 960 }, 
	{ NOTE_REST, 240 }, 
	{ NOTE_CS4, 240 }, 
	{ NOTE_B3, 120 }, 
	{ NOTE_REST, 120 }, 
	{ NOTE_C4, 120 }, 
	{ NOTE_REST, 120 }, 
	{ NOTE_A3, 960 }, 
	{ NOTE_REST, 240 }, 
	{ NOTE_E4, 240 }, 
	{ NOTE_REST, 240 }, 
	{ NOTE_E3, 120 }, 
	{ NOTE_REST, 120 }, 
	{ NOTE_A3, 960 }, 
	{ NOTE_REST, 240 }, 
	{ NOTE_E4, 240 }, 
	{ NOTE_REST, 240 }, 
	{ NOTE_E3, 120 }, 
	{ NOTE_REST, 120 }, 
	{ NOTE_A3, 960 }, 
	{ NOTE_G4, 240 }, 
	{ NOTE_REST, 240 }, 
	{ NOTE_A4, 240 }, 
	{ NOTE_E3, 120 }, 
	{ NOTE_REST, 120 }, 
	{ NOTE_A3, 960 }, 
	{ NOTE_G4, 240 }, 
	{ NOTE_REST, 240 }, 
	{ NOTE_A4, 240 }, 
	{ NOTE_E3, 120 }, 
	{ NOTE_REST, 120 }, 
	{ NOTE_AS3, 960 }, 
	{ NOTE_F4, 240 }, 
	{ NOTE_REST, 240 }, 
	{ NOTE_REST, 240 }, 
	{ NOTE_E3, 120 }, 
	{ NOTE_REST, 120 }, 
	{ NOTE_AS3, 960 }, 
	{ NOTE_REST, 240 }, 
	{ NOTE_F4, 240 }, 
	{ NOTE_REST, 240 }, 
	{ NOTE_E3, 120 }, 
	{ NOTE_REST, 120 }, 
	{ NOTE_AS3, 960 }, 
	{ NOTE_GS4, 240 }, 
	{ NOTE_REST, 240 }, 
	{ NOTE_AS4, 240 }, 
	{ NOTE_E3, 120 }, 
	{ NOTE_REST, 120 }, 
	{ NOTE_AS3, 960 }, 
	{ NOTE_GS4, 240 }, 
	{ NOTE_REST, 240 }, 
	{ NOTE_AS4, 240 }, 
	{ NOTE_E3, 120 }, 
	{ NOTE_REST, 120 }, 
	{ NOTE_A3, 320 }, 
	{ NOTE_REST, 320 }, 
	{ NOTE_AS3, 320 }, 
	{ NOTE_B3, 320 }, 
	{ NOTE_REST, 320 }, 
	{ NOTE_CS4, 320 }, 
	{ NOTE_D4, 960 }, 
	{ NOTE_FS4, 240 }, 
	{ NOTE_FS4, 240 }, 
	{ NOTE_A3, 240 }, 
	{ NOTE_GS3, 120 }, 
	{ NOTE_REST, 120 }, 
	{ NOTE_G3, 320 }, 
	{ NOTE_REST, 320 }, 
	{ NOTE_GS3, 320 }, 
	{ NOTE_A3, 320 }, 
	{ NOTE_REST, 320 }, 
	{ NOTE_B3, 320 }, 
	{ NOTE_C4, 960 }, 
	{ NOTE_E4, 240 }, 
	{ NOTE_REST, 240 }, 
	{ NOTE_G3, 240 }, 
	{ NOTE_FS3, 120 }, 
	{ NOTE_REST, 120 }, 
	{ NOTE_F3, 960 }, 
	{ NOTE_AS3, 240 }, 
	{ NOTE_REST, 240 }, 
	{ NOTE_C4, 240 }, 
	{ NOTE_F3, 120 }, 
	{ NOTE_REST, 120 }, 
	{ NOTE_F3, 480 }, 
	{ NOTE_AS3, 240 }, 
	{ NOTE_REST, 240 }, 
	{ NOTE_C4, 240 }, 
	{ NOTE_REST, 240 }, 
	{ NOTE_C4, 240 }, 
	{ NOTE_F3, 120 }, 
	{ NOTE_REST, 120 }, 
	{ NOTE_G3, 960 }, 
	{ NOTE_C4, 240 }, 
	{ NOTE_REST, 240 }, 
	{ NOTE_D4, 240 }, 
	{ NOTE_G3, 120 }, 
	{ NOTE_REST, 120 }, 
	{ NOTE_G3, 480 }, 
	{ NOTE_F4, 240 }, 
	{ NOTE_REST, 240 }, 
	{ NOTE_G4, 240 }, 
	{ NOTE_G3, 240 }, 
	{ NOTE_G4, 120 }, 
	{ NOTE_REST, 120 }, 
	{ NOTE_G3, 120 }, 
	{ NOTE_REST, 120 }, 
	{ NOTE_G3, 960 }, 
	{ NOTE_D4, 240 }, 
	{ NOTE_REST, 240 }, 
	{ NOTE_G3, 240 }, 
	{ NOTE_E3, 120 }, 
	{ NOTE_REST, 120 }, 
	{ NOTE_G3, 960 }, 
	{ NOTE_REST, 240 }, 
	{ NOTE_CS4, 240 }, 
	{ NOTE_D4, 240 }, 
	{ NOTE_E3, 120 }, 
	{ NOTE_REST, 120 }, 
	{ NOTE_F3, 480 }, 
	{ NOTE_C4, 480 }, 
	{ NOTE_C4, 480 }, 
	{ NOTE_REST, 240 }, 
	{ NOTE_E3, 240 }, 
	{ NOTE_G3, 960 }, 
	{ NOTE_C4, 240 }, 
	{ NOTE_CS4, 240 }, 
	{ NOTE_D4, 240 }, 
	{ NOTE_E3, 120 }, 
	{ NOTE_REST, 120 }, 
	{ NOTE_F3, 480 }, 
	{ NOTE_C4, 480 }, 
	{ NOTE_C4, 480 }, 
	{ NOTE_REST, 240 }, 
	{ NOTE_E3, 240 }, 
	{ NOTE_F3, 960 }, 
	{ NOTE_C4, 240 }, 
	{ NOTE_C4, 240 }, 
	{ NOTE_REST, 240 }, 
	{ NOTE_F3, 120 }, 
	{ NOTE_REST, 120 }, 
	{ NOTE_F3, 480 }, 
	{ NOTE_C4, 240 }, 
	{ NOTE_C4, 240 }, 
	{ NOTE_REST, 240 }, 
	{ NOTE_F3, 240 }, 
	{ NOTE_C4, 240 }, 
	{ NOTE_F3, 120 }, 
	{ NOTE_REST, 120 }, 
	{ NOTE_G3, 960 }, 
	{ NOTE_REST, 240 }, 
	{ NOTE_D4, 240 }, 
	{ NOTE_REST, 240 }, 
	{ NOTE_G3, 120 }, 
	{ NOTE_REST, 120 }, 
	{ NOTE_G3, 480 }, 
	{ NOTE_REST, 240 }, 
	{ NOTE_G4, 240 }, 
	{ NOTE_REST, 240 }, 
	{ NOTE_G3, 240 }, 
	{ NOTE_G4, 120 }, 
	{ NOTE_REST, 120 }, 
	{ NOTE_G3, 120 }, 
	{ NOTE_REST, 120 }, 
	{ NOTE_G3, 960 }, 
	{ NOTE_D4, 240 }, 
	{ NOTE_REST, 240 }, 
	{ NOTE_G3, 240 }, 
	{ NOTE_E3, 120 }, 
	{ NOTE_REST, 120 }, 
	{ NOTE_G3, 960 }, 
	{ NOTE_D4, 240 }, 
	{ NOTE_REST, 240 }, 
	{ NOTE_REST, 240 }, 
	{ NOTE_E3, 120 }, 
	{ NOTE_REST, 120 }, 
	{ NOTE_F3, 480 }, 
	{ NOTE_REST, 240 }, 
	{ NOTE_C4, 240 }, 
	{ NOTE_REST, 240 }, 
	{ NOTE_F3, 480 }, 
	{ NOTE_C4, 120 }, 
	{ NOTE_REST, 120 }, 
	{ NOTE_CS4, 480 }, 
	{ NOTE_CS4, 480 }, 
	{ NOTE_REST, 240 }, 
	{ NOTE_CS4, 120 }, 
	{ NOTE_REST, 120 }, 
	{ NOTE_B3, 120 }, 
	{ NOTE_REST, 120 }, 
	{ NOTE_F3, 120 }, 
	{ NOTE_REST, 120 }, 
	{ NOTE_FS3, 960 }, 
	{ NOTE_REST, 240 }, 
	{ NOTE_CS4, 240 }, 
	{ NOTE_REST, 120 }, 
	{ NOTE_REST, 120 }, 
	{ NOTE_F3, 120 }, 
	{ NOTE_REST, 120 }, 
	{ NOTE_FS3, 960 }, 
	{ NOTE_REST, 240 }, 
	{ NOTE_CS4, 240 }, 
	{ NOTE_REST, 240 }, 
	{ NOTE_E3, 120 }, 
	{ NOTE_REST, 120 }, 
	{ NOTE_FS3, 960 }, 
	{ NOTE_REST, 240 }, 
	{ NOTE_CS4, 240 }, 
	{ NOTE_REST, 120 }, 
	{ NOTE_REST, 120 }, 
	{ NOTE_C4, 120 }, 
	{ NOTE_REST, 120 }, 
	{ NOTE_FS3, 960 }, 
	{ NOTE_CS4, 240 }, 
	{ NOTE_REST, 240 }, 
	{ NOTE_B3, 120 }, 
	{ NOTE_REST, 120 }, 
	{ NOTE_C4, 120 }, 
	{ NOTE_REST, 120 }, 
	{ NOTE_A3, 960 }, 
	{ NOTE_E4, 240 }, 
	{ NOTE_REST, 240 }, 
	{ NOTE_REST, 240 }, 
	{ NOTE_E3, 120 }, 
	{ NOTE_REST, 120 }, 
	{ NOTE_A3, 960 }, 
	{ NOTE_REST, 240 }, 
	{ NOTE_E4, 240 }, 
	{ NOTE_REST, 240 }, 
	{ NOTE_E3, 120 }, 
	{ NOTE_REST, 120 }, 
	{ NOTE_A3, 960 }, 
	{ NOTE_REST, 240 }, 
	{ NOTE_GS4, 240 }, 
	{ NOTE_A4, 240 }, 
	{ NOTE_E3, 120 }, 
	{ NOTE_REST, 120 }, 
	{ NOTE_A3, 960 }, 
	{ NOTE_G4, 240 }, 
	{ NOTE_REST, 240 }, 
	{ NOTE_A4, 240 }, 
	{ NOTE_E3, 120 }, 
	{ NOTE_REST, 120 }, 
	{ NOTE_AS3, 960 }, 
	{ NOTE_F4, 240 }, 
	{ NOTE_REST, 240 }, 
	{ NOTE_REST, 240 }, 
	{ NOTE_E3, 120 }, 
	{ NOTE_REST, 120 }, 
	{ NOTE_AS3, 960 }, 
	{ NOTE_REST, 240 }, 
	{ NOTE_F4, 240 }, 
	{ NOTE_REST, 240 }, 
	{ NOTE_E3, 120 }, 
	{ NOTE_REST, 120 }, 
	{ NOTE_AS3, 960 }, 
	{ NOTE_REST, 240 }, 
	{ NOTE_A4, 240 }, 
	{ NOTE_AS4, 240 }, 
	{ NOTE_E3, 120 }, 
	{ NOTE_REST, 120 }, 
	{ NOTE_AS3, 960 }, 
	{ NOTE_GS4, 240 }, 
	{ NOTE_REST, 240 }, 
	{ NOTE_AS4, 240 }, 
	{ NOTE_E3, 120 }, 
	{ NOTE_REST, 120 }, 
	{ NOTE_A3, 320 }, 
	{ NOTE_REST, 320 }, 
	{ NOTE_AS3, 320 }, 
	{ NOTE_B3, 320 }, 
	{ NOTE_REST, 320 }, 
	{ NOTE_CS4, 320 }, 
	{ NOTE_D4, 960 }, 
	{ NOTE_FS4, 240 }, 
	{ NOTE_REST, 240 }, 
	{ NOTE_A3, 240 }, 
	{ NOTE_GS3, 120 }, 
	{ NOTE_REST, 120 }, 
	{ NOTE_G3, 320 }, 
	{ NOTE_REST, 320 }, 
	{ NOTE_GS3, 320 }, 
	{ NOTE_A3, 320 }, 
	{ NOTE_REST, 320 }, 
	{ NOTE_B3, 320 }, 
	{ NOTE_C4, 960 }, 
	{ NOTE_E4, 240 }, 
	{ NOTE_REST, 240 }, 
	{ NOTE_G3, 240 }, 
	{ NOTE_FS3, 120 }, 
	{ NOTE_REST, 120 }, 
	{ NOTE_F3, 960 }, 
	{ NOTE_AS3, 240 }, 
	{ NOTE_REST, 240 }, 
	{ NOTE_C4, 240 }, 
	{ NOTE_F3, 120 }, 
	{ NOTE_REST, 120 }, 
	{ NOTE_F3, 480 }, 
	{ NOTE_AS3, 240 }, 
	{ NOTE_REST, 240 }, 
	{ NOTE_C4, 240 }, 
	{ NOTE_F3, 240 }, 
	{ NOTE_REST, 240 }, 
	{ NOTE_F3, 120 }, 
	{ NOTE_REST, 120 }, 
	{ NOTE_G3, 960 }, 
	{ NOTE_C4, 240 }, 
	{ NOTE_REST, 240 }, 
	{ NOTE_D4, 240 }, 
	{ NOTE_G3, 120 }, 
	{ NOTE_REST, 120 }, 
	{ NOTE_G3, 480 }, 
	{ NOTE_F4, 240 }, 
	{ NOTE_REST, 240 }, 
	{ NOTE_G4, 240 }, 
	{ NOTE_G3, 240 }, 
	{ NOTE_G4, 120 }, 
	{ NOTE_REST, 120 }, 
	{ NOTE_G3, 120 }, 
	{ NOTE_REST, 120 }, 
	{ NOTE_G3, 960 }, 
	{ NOTE_REST, 240 }, 
	{ NOTE_D4, 240 }, 
	{ NOTE_G3, 240 }, 
	{ NOTE_E3, 120 }, 
	{ NOTE_REST, 120 }, 
	{ NOTE_G3, 960 }, 
	{ NOTE_REST, 240 }, 
	{ NOTE_D4, 240 }, 
	{ NOTE_REST, 240 }, 
	{ NOTE_E3, 120 }, 
	{ NOTE_REST, 120 }, 
	{ NOTE_F3, 480 }, 
	{ NOTE_REST, 240 }, 
	{ NOTE_C4, 240 }, 
	{ NOTE_REST, 240 }, 
	{ NOTE_F3, 480 }, 
	{ NOTE_C4, 120 }, 
	{ NOTE_REST, 120 }, 
	{ NOTE_G3, 960 }, 
	{ NOTE_REST, 240 }, 
	{ NOTE_D4, 240 }, 
	{ NOTE_REST, 240 }, 
	{ NOTE_E3, 120 }, 
	{ NOTE_REST, 120 }, 
	{ NOTE_F3, 480 }, 
	{ NOTE_REST, 240 }, 
	{ NOTE_C4, 240 }, 
	{ NOTE_REST, 240 }, 
	{ NOTE_F3, 480 }, 
	{ NOTE_C4, 120 }, 
	{ NOTE_REST, 120 }, 
	{ NOTE_F3, 1920 }, 
	{ NOTE_F3, 1920 }, 
	{ NOTE_REST, 1920 }, 
};
const uint16_t NUM_OF_NOTES4 = sizeof(melody4)/sizeof(melody4[0]);

