/*
 * Song: Winter by Vivaldi
 *
 *	Melody 0 | Violin
 *	Melody 1 | Viola
 *	Melody 2 | Violin
 *	Melody 3 | Violin
 *	Melody 4 | Violoncello
*/

#include <Arduino.h>
#include "notes.h"

const Note melody0[] PROGMEM = {
	{ NOTE_REST, 3333 }, 
	{ NOTE_REST, 3333 }, 
	{ NOTE_REST, 3333 }, 
	{ NOTE_AS5, 417 }, 
	{ NOTE_AS5, 417 }, 
	{ NOTE_AS5, 417 }, 
	{ NOTE_AS5, 417 }, 
	{ NOTE_AS5, 417 }, 
	{ NOTE_AS5, 417 }, 
	{ NOTE_AS5, 417 }, 
	{ NOTE_AS5, 414 }, 
	{ NOTE_AS5, 417 }, 
	{ NOTE_AS5, 417 }, 
	{ NOTE_AS5, 417 }, 
	{ NOTE_AS5, 417 }, 
	{ NOTE_AS5, 417 }, 
	{ NOTE_AS5, 417 }, 
	{ NOTE_AS5, 417 }, 
	{ NOTE_AS5, 414 }, 
	{ NOTE_GS5, 417 }, 
	{ NOTE_GS5, 417 }, 
	{ NOTE_GS5, 417 }, 
	{ NOTE_GS5, 417 }, 
	{ NOTE_GS5, 417 }, 
	{ NOTE_GS5, 417 }, 
	{ NOTE_GS5, 417 }, 
	{ NOTE_GS5, 414 }, 
	{ NOTE_CS5, 417 }, 
	{ NOTE_CS5, 417 }, 
	{ NOTE_CS5, 417 }, 
	{ NOTE_CS5, 417 }, 
	{ NOTE_CS5, 417 }, 
	{ NOTE_CS5, 417 }, 
	{ NOTE_CS5, 417 }, 
	{ NOTE_CS5, 414 }, 
	{ NOTE_DS5, 417 }, 
	{ NOTE_DS5, 417 }, 
	{ NOTE_DS5, 417 }, 
	{ NOTE_DS5, 417 }, 
	{ NOTE_DS5, 417 }, 
	{ NOTE_DS5, 417 }, 
	{ NOTE_DS5, 417 }, 
	{ NOTE_DS5, 414 }, 
	{ NOTE_D5, 417 }, 
	{ NOTE_D5, 417 }, 
	{ NOTE_D5, 417 }, 
	{ NOTE_D5, 417 }, 
	{ NOTE_D5, 417 }, 
	{ NOTE_D5, 417 }, 
	{ NOTE_D5, 417 }, 
	{ NOTE_D5, 414 }, 
	{ NOTE_DS5, 417 }, 
	{ NOTE_DS5, 417 }, 
	{ NOTE_DS5, 417 }, 
	{ NOTE_DS5, 417 }, 
	{ NOTE_DS5, 417 }, 
	{ NOTE_DS5, 417 }, 
	{ NOTE_DS5, 417 }, 
	{ NOTE_DS5, 414 }, 
	{ NOTE_D5, 417 }, 
	{ NOTE_D5, 417 }, 
	{ NOTE_D5, 417 }, 
	{ NOTE_D5, 417 }, 
	{ NOTE_D5, 417 }, 
	{ NOTE_D5, 417 }, 
	{ NOTE_D5, 417 }, 
	{ NOTE_D5, 414 }, 
	{ NOTE_C5, 104 }, 
	{ NOTE_C6, 104 }, 
	{ NOTE_C6, 104 }, 
	{ NOTE_G5, 104 }, 
	{ NOTE_G5, 104 }, 
	{ NOTE_DS5, 104 }, 
	{ NOTE_DS5, 104 }, 
	{ NOTE_C5, 104 }, 
	{ NOTE_C5, 104 }, 
	{ NOTE_C6, 104 }, 
	{ NOTE_C6, 104 }, 
	{ NOTE_G5, 104 }, 
	{ NOTE_G5, 104 }, 
	{ NOTE_DS5, 104 }, 
	{ NOTE_DS5, 104 }, 
	{ NOTE_C5, 104 }, 
	{ NOTE_C5, 104 }, 
	{ NOTE_C6, 104 }, 
	{ NOTE_AS5, 104 }, 
	{ NOTE_GS5, 104 }, 
	{ NOTE_G5, 104 }, 
	{ NOTE_F5, 104 }, 
	{ NOTE_DS5, 104 }, 
	{ NOTE_D5, 104 }, 
	{ NOTE_C5, 104 }, 
	{ NOTE_C6, 104 }, 
	{ NOTE_AS5, 104 }, 
	{ NOTE_GS5, 104 }, 
	{ NOTE_G5, 104 }, 
	{ NOTE_F5, 104 }, 
	{ NOTE_DS5, 104 }, 
	{ NOTE_D5, 109 }, 
	{ NOTE_C5, 104 }, 
	{ NOTE_G4, 104 }, 
	{ NOTE_C5, 104 }, 
	{ NOTE_DS5, 104 }, 
	{ NOTE_C5, 104 }, 
	{ NOTE_G4, 104 }, 
	{ NOTE_C5, 104 }, 
	{ NOTE_DS5, 104 }, 
	{ NOTE_C5, 104 }, 
	{ NOTE_G4, 104 }, 
	{ NOTE_C5, 104 }, 
	{ NOTE_DS5, 104 }, 
	{ NOTE_C5, 104 }, 
	{ NOTE_G4, 104 }, 
	{ NOTE_C5, 104 }, 
	{ NOTE_DS5, 104 }, 
	{ NOTE_C4, 1669 }, 
	{ NOTE_REST, 1667 }, 
	{ NOTE_DS5, 104 }, 
	{ NOTE_DS6, 104 }, 
	{ NOTE_DS6, 104 }, 
	{ NOTE_C6, 104 }, 
	{ NOTE_C6, 104 }, 
	{ NOTE_G5, 104 }, 
	{ NOTE_G5, 104 }, 
	{ NOTE_DS5, 104 }, 
	{ NOTE_DS5, 104 }, 
	{ NOTE_DS6, 104 }, 
	{ NOTE_DS6, 104 }, 
	{ NOTE_C6, 104 }, 
	{ NOTE_C6, 104 }, 
	{ NOTE_G5, 104 }, 
	{ NOTE_G5, 104 }, 
	{ NOTE_DS5, 106 }, 
	{ NOTE_DS5, 104 }, 
	{ NOTE_DS6, 104 }, 
	{ NOTE_D6, 104 }, 
	{ NOTE_C6, 104 }, 
	{ NOTE_B5, 104 }, 
	{ NOTE_A5, 104 }, 
	{ NOTE_G5, 104 }, 
	{ NOTE_F5, 104 }, 
	{ NOTE_DS5, 104 }, 
	{ NOTE_DS6, 104 }, 
	{ NOTE_D6, 104 }, 
	{ NOTE_C6, 104 }, 
	{ NOTE_B5, 104 }, 
	{ NOTE_A5, 104 }, 
	{ NOTE_G5, 104 }, 
	{ NOTE_F5, 104 }, 
	{ NOTE_DS5, 104 }, 
	{ NOTE_C5, 104 }, 
	{ NOTE_DS5, 104 }, 
	{ NOTE_G5, 104 }, 
	{ NOTE_DS5, 104 }, 
	{ NOTE_C5, 104 }, 
	{ NOTE_DS5, 104 }, 
	{ NOTE_G5, 104 }, 
	{ NOTE_DS5, 104 }, 
	{ NOTE_C5, 104 }, 
	{ NOTE_DS5, 104 }, 
	{ NOTE_G5, 104 }, 
	{ NOTE_DS5, 104 }, 
	{ NOTE_C5, 104 }, 
	{ NOTE_DS5, 104 }, 
	{ NOTE_G5, 109 }, 
	{ NOTE_DS4, 1667 }, 
	{ NOTE_REST, 1666 }, 
	{ NOTE_G5, 104 }, 
	{ NOTE_G6, 104 }, 
	{ NOTE_G6, 104 }, 
	{ NOTE_DS6, 104 }, 
	{ NOTE_DS6, 104 }, 
	{ NOTE_C6, 104 }, 
	{ NOTE_C6, 104 }, 
	{ NOTE_G5, 104 }, 
	{ NOTE_G5, 104 }, 
	{ NOTE_G6, 104 }, 
	{ NOTE_G6, 104 }, 
	{ NOTE_DS6, 104 }, 
	{ NOTE_DS6, 104 }, 
	{ NOTE_C6, 104 }, 
	{ NOTE_C6, 104 }, 
	{ NOTE_G5, 104 }, 
	{ NOTE_G5, 104 }, 
	{ NOTE_G6, 104 }, 
	{ NOTE_F6, 104 }, 
	{ NOTE_DS6, 104 }, 
	{ NOTE_D6, 104 }, 
	{ NOTE_C6, 104 }, 
	{ NOTE_B5, 104 }, 
	{ NOTE_A5, 104 }, 
	{ NOTE_G5, 104 }, 
	{ NOTE_G6, 104 }, 
	{ NOTE_F6, 104 }, 
	{ NOTE_DS6, 104 }, 
	{ NOTE_D6, 104 }, 
	{ NOTE_C6, 104 }, 
	{ NOTE_B5, 104 }, 
	{ NOTE_A5, 109 }, 
	{ NOTE_G5, 104 }, 
	{ NOTE_DS5, 104 }, 
	{ NOTE_G5, 104 }, 
	{ NOTE_C6, 104 }, 
	{ NOTE_G5, 104 }, 
	{ NOTE_DS5, 104 }, 
	{ NOTE_G5, 104 }, 
	{ NOTE_C6, 104 }, 
	{ NOTE_G5, 104 }, 
	{ NOTE_DS5, 104 }, 
	{ NOTE_G5, 104 }, 
	{ NOTE_C6, 104 }, 
	{ NOTE_G5, 104 }, 
	{ NOTE_DS5, 104 }, 
	{ NOTE_G5, 104 }, 
	{ NOTE_C6, 104 }, 
	{ NOTE_C5, 833 }, 
	{ NOTE_REST, 836 }, 
	{ NOTE_CS5, 417 }, 
	{ NOTE_CS5, 417 }, 
	{ NOTE_CS5, 417 }, 
	{ NOTE_CS5, 417 }, 
	{ NOTE_E5, 417 }, 
	{ NOTE_E5, 417 }, 
	{ NOTE_E5, 417 }, 
	{ NOTE_E5, 414 }, 
	{ NOTE_F5, 208 }, 
	{ NOTE_F4, 208 }, 
	{ NOTE_F4, 208 }, 
	{ NOTE_F4, 208 }, 
	{ NOTE_F4, 208 }, 
	{ NOTE_F4, 208 }, 
	{ NOTE_F4, 208 }, 
	{ NOTE_F4, 208 }, 
	{ NOTE_F4, 208 }, 
	{ NOTE_F4, 208 }, 
	{ NOTE_F4, 208 }, 
	{ NOTE_F4, 208 }, 
	{ NOTE_F4, 208 }, 
	{ NOTE_F4, 208 }, 
	{ NOTE_F4, 208 }, 
	{ NOTE_F4, 213 }, 
	{ NOTE_F4, 208 }, 
	{ NOTE_F4, 208 }, 
	{ NOTE_F4, 208 }, 
	{ NOTE_F4, 208 }, 
	{ NOTE_F4, 208 }, 
	{ NOTE_F4, 208 }, 
	{ NOTE_F4, 208 }, 
	{ NOTE_F4, 208 }, 
	{ NOTE_F4, 208 }, 
	{ NOTE_F4, 208 }, 
	{ NOTE_F4, 208 }, 
	{ NOTE_F4, 208 }, 
	{ NOTE_F4, 208 }, 
	{ NOTE_F4, 208 }, 
	{ NOTE_F4, 208 }, 
	{ NOTE_F4, 213 }, 
	{ NOTE_F4, 208 }, 
	{ NOTE_F4, 208 }, 
	{ NOTE_F4, 208 }, 
	{ NOTE_F4, 208 }, 
	{ NOTE_F4, 208 }, 
	{ NOTE_F4, 208 }, 
	{ NOTE_F4, 208 }, 
	{ NOTE_F4, 208 }, 
	{ NOTE_E4, 208 }, 
	{ NOTE_G5, 104 }, 
	{ NOTE_G5, 104 }, 
	{ NOTE_G5, 104 }, 
	{ NOTE_G5, 104 }, 
	{ NOTE_G5, 104 }, 
	{ NOTE_G5, 104 }, 
	{ NOTE_G5, 208 }, 
	{ NOTE_G5, 208 }, 
	{ NOTE_G5, 208 }, 
	{ NOTE_G5, 213 }, 
	{ NOTE_GS5, 208 }, 
	{ NOTE_C5, 208 }, 
	{ NOTE_GS5, 208 }, 
	{ NOTE_C5, 208 }, 
	{ NOTE_GS5, 208 }, 
	{ NOTE_C5, 208 }, 
	{ NOTE_GS5, 208 }, 
	{ NOTE_C5, 208 }, 
	{ NOTE_CS5, 208 }, 
	{ NOTE_CS5, 104 }, 
	{ NOTE_CS5, 104 }, 
	{ NOTE_CS5, 104 }, 
	{ NOTE_CS5, 104 }, 
	{ NOTE_CS5, 104 }, 
	{ NOTE_CS5, 104 }, 
	{ NOTE_CS5, 208 }, 
	{ NOTE_CS5, 208 }, 
	{ NOTE_CS5, 208 }, 
	{ NOTE_CS5, 213 }, 
	{ NOTE_G5, 208 }, 
	{ NOTE_CS5, 208 }, 
	{ NOTE_G5, 208 }, 
	{ NOTE_CS5, 208 }, 
	{ NOTE_G5, 208 }, 
	{ NOTE_CS5, 208 }, 
	{ NOTE_G5, 208 }, 
	{ NOTE_CS5, 208 }, 
	{ NOTE_C5, 208 }, 
	{ NOTE_C5, 104 }, 
	{ NOTE_C5, 104 }, 
	{ NOTE_C5, 104 }, 
	{ NOTE_C5, 104 }, 
	{ NOTE_C5, 104 }, 
	{ NOTE_C5, 104 }, 
	{ NOTE_C5, 208 }, 
	{ NOTE_C5, 208 }, 
	{ NOTE_C5, 208 }, 
	{ NOTE_C5, 213 }, 
	{ NOTE_F5, 208 }, 
	{ NOTE_C5, 208 }, 
	{ NOTE_F5, 208 }, 
	{ NOTE_C5, 208 }, 
	{ NOTE_F5, 208 }, 
	{ NOTE_C5, 208 }, 
	{ NOTE_F5, 208 }, 
	{ NOTE_C5, 208 }, 
	{ NOTE_AS4, 208 }, 
	{ NOTE_AS4, 104 }, 
	{ NOTE_AS4, 104 }, 
	{ NOTE_AS4, 104 }, 
	{ NOTE_AS4, 104 }, 
	{ NOTE_AS4, 104 }, 
	{ NOTE_AS4, 104 }, 
	{ NOTE_AS4, 208 }, 
	{ NOTE_AS4, 208 }, 
	{ NOTE_AS4, 208 }, 
	{ NOTE_AS4, 213 }, 
	{ NOTE_E5, 208 }, 
	{ NOTE_AS4, 208 }, 
	{ NOTE_E5, 208 }, 
	{ NOTE_AS4, 208 }, 
	{ NOTE_E5, 208 }, 
	{ NOTE_AS4, 208 }, 
	{ NOTE_E5, 208 }, 
	{ NOTE_AS4, 208 }, 
	{ NOTE_F5, 104 }, 
	{ NOTE_E5, 104 }, 
	{ NOTE_F5, 104 }, 
	{ NOTE_G5, 104 }, 
	{ NOTE_F5, 104 }, 
	{ NOTE_G5, 104 }, 
	{ NOTE_E5, 104 }, 
	{ NOTE_F5, 104 }, 
	{ NOTE_G5, 104 }, 
	{ NOTE_F5, 104 }, 
	{ NOTE_G5, 104 }, 
	{ NOTE_GS5, 104 }, 
	{ NOTE_G5, 104 }, 
	{ NOTE_GS5, 104 }, 
	{ NOTE_F5, 104 }, 
	{ NOTE_G5, 109 }, 
	{ NOTE_GS5, 104 }, 
	{ NOTE_G5, 104 }, 
	{ NOTE_GS5, 104 }, 
	{ NOTE_AS5, 104 }, 
	{ NOTE_GS5, 104 }, 
	{ NOTE_AS5, 104 }, 
	{ NOTE_G5, 104 }, 
	{ NOTE_GS5, 104 }, 
	{ NOTE_AS5, 104 }, 
	{ NOTE_GS5, 104 }, 
	{ NOTE_AS5, 104 }, 
	{ NOTE_C6, 104 }, 
	{ NOTE_AS5, 104 }, 
	{ NOTE_C6, 104 }, 
	{ NOTE_GS5, 104 }, 
	{ NOTE_AS5, 104 }, 
	{ NOTE_C6, 417 }, 
	{ NOTE_REST, 104 }, 
	{ NOTE_C6, 104 }, 
	{ NOTE_CS6, 104 }, 
	{ NOTE_DS6, 104 }, 
	{ NOTE_F6, 104 }, 
	{ NOTE_C6, 104 }, 
	{ NOTE_CS6, 104 }, 
	{ NOTE_DS6, 104 }, 
	{ NOTE_F6, 104 }, 
	{ NOTE_C6, 104 }, 
	{ NOTE_CS6, 104 }, 
	{ NOTE_DS6, 108 }, 
	{ NOTE_F6, 104 }, 
	{ NOTE_DS6, 104 }, 
	{ NOTE_CS6, 104 }, 
	{ NOTE_C6, 104 }, 
	{ NOTE_F6, 104 }, 
	{ NOTE_DS6, 104 }, 
	{ NOTE_CS6, 104 }, 
	{ NOTE_C6, 104 }, 
	{ NOTE_F6, 104 }, 
	{ NOTE_DS6, 104 }, 
	{ NOTE_CS6, 104 }, 
	{ NOTE_C6, 104 }, 
	{ NOTE_F6, 104 }, 
	{ NOTE_DS6, 104 }, 
	{ NOTE_CS6, 104 }, 
	{ NOTE_C6, 104 }, 
	{ NOTE_F5, 104 }, 
	{ NOTE_G5, 104 }, 
	{ NOTE_GS5, 104 }, 
	{ NOTE_AS5, 104 }, 
	{ NOTE_C6, 104 }, 
	{ NOTE_CS6, 104 }, 
	{ NOTE_DS6, 104 }, 
	{ NOTE_F6, 104 }, 
	{ NOTE_F5, 104 }, 
	{ NOTE_G5, 104 }, 
	{ NOTE_GS5, 104 }, 
	{ NOTE_AS5, 104 }, 
	{ NOTE_C6, 104 }, 
	{ NOTE_CS6, 104 }, 
	{ NOTE_DS6, 104 }, 
	{ NOTE_F6, 109 }, 
	{ NOTE_CS6, 417 }, 
	{ NOTE_REST, 104 }, 
	{ NOTE_AS5, 104 }, 
	{ NOTE_C6, 104 }, 
	{ NOTE_CS6, 104 }, 
	{ NOTE_DS6, 104 }, 
	{ NOTE_AS5, 104 }, 
	{ NOTE_C6, 104 }, 
	{ NOTE_CS6, 104 }, 
	{ NOTE_DS6, 104 }, 
	{ NOTE_AS5, 104 }, 
	{ NOTE_C6, 104 }, 
	{ NOTE_CS6, 104 }, 
	{ NOTE_DS6, 104 }, 
	{ NOTE_CS6, 104 }, 
	{ NOTE_C6, 104 }, 
	{ NOTE_AS5, 104 }, 
	{ NOTE_DS6, 104 }, 
	{ NOTE_CS6, 104 }, 
	{ NOTE_C6, 104 }, 
	{ NOTE_AS5, 104 }, 
	{ NOTE_DS6, 104 }, 
	{ NOTE_CS6, 104 }, 
	{ NOTE_C6, 104 }, 
	{ NOTE_AS5, 104 }, 
	{ NOTE_DS6, 104 }, 
	{ NOTE_CS6, 104 }, 
	{ NOTE_C6, 104 }, 
	{ NOTE_AS5, 108 }, 
	{ NOTE_DS5, 104 }, 
	{ NOTE_F5, 104 }, 
	{ NOTE_G5, 104 }, 
	{ NOTE_GS5, 104 }, 
	{ NOTE_AS5, 104 }, 
	{ NOTE_C6, 104 }, 
	{ NOTE_CS6, 104 }, 
	{ NOTE_DS6, 104 }, 
	{ NOTE_DS5, 104 }, 
	{ NOTE_F5, 104 }, 
	{ NOTE_G5, 104 }, 
	{ NOTE_GS5, 104 }, 
	{ NOTE_AS5, 104 }, 
	{ NOTE_C6, 104 }, 
	{ NOTE_CS6, 104 }, 
	{ NOTE_DS6, 104 }, 
	{ NOTE_C6, 417 }, 
	{ NOTE_REST, 104 }, 
	{ NOTE_GS5, 104 }, 
	{ NOTE_AS5, 104 }, 
	{ NOTE_C6, 104 }, 
	{ NOTE_CS6, 104 }, 
	{ NOTE_GS5, 104 }, 
	{ NOTE_AS5, 104 }, 
	{ NOTE_C6, 104 }, 
	{ NOTE_CS6, 104 }, 
	{ NOTE_GS5, 104 }, 
	{ NOTE_AS5, 104 }, 
	{ NOTE_C6, 108 }, 
	{ NOTE_CS6, 104 }, 
	{ NOTE_C6, 104 }, 
	{ NOTE_AS5, 104 }, 
	{ NOTE_GS5, 104 }, 
	{ NOTE_CS6, 104 }, 
	{ NOTE_C6, 104 }, 
	{ NOTE_AS5, 104 }, 
	{ NOTE_GS5, 104 }, 
	{ NOTE_CS6, 104 }, 
	{ NOTE_C6, 104 }, 
	{ NOTE_AS5, 104 }, 
	{ NOTE_GS5, 104 }, 
	{ NOTE_CS6, 104 }, 
	{ NOTE_C6, 104 }, 
	{ NOTE_AS5, 104 }, 
	{ NOTE_GS5, 104 }, 
	{ NOTE_G5, 104 }, 
	{ NOTE_AS5, 104 }, 
	{ NOTE_GS5, 104 }, 
	{ NOTE_G5, 104 }, 
	{ NOTE_C6, 104 }, 
	{ NOTE_AS5, 104 }, 
	{ NOTE_GS5, 104 }, 
	{ NOTE_G5, 104 }, 
	{ NOTE_F5, 104 }, 
	{ NOTE_GS5, 104 }, 
	{ NOTE_G5, 104 }, 
	{ NOTE_F5, 104 }, 
	{ NOTE_AS5, 104 }, 
	{ NOTE_GS5, 104 }, 
	{ NOTE_G5, 104 }, 
	{ NOTE_F5, 109 }, 
	{ NOTE_E5, 104 }, 
	{ NOTE_C5, 104 }, 
	{ NOTE_AS4, 104 }, 
	{ NOTE_C5, 104 }, 
	{ NOTE_G4, 104 }, 
	{ NOTE_C5, 104 }, 
	{ NOTE_AS4, 104 }, 
	{ NOTE_C5, 104 }, 
	{ NOTE_E5, 104 }, 
	{ NOTE_G5, 104 }, 
	{ NOTE_F5, 104 }, 
	{ NOTE_G5, 104 }, 
	{ NOTE_AS5, 104 }, 
	{ NOTE_G5, 104 }, 
	{ NOTE_F5, 104 }, 
	{ NOTE_G5, 104 }, 
	{ NOTE_E5, 104 }, 
	{ NOTE_C5, 104 }, 
	{ NOTE_AS4, 104 }, 
	{ NOTE_C5, 104 }, 
	{ NOTE_G4, 104 }, 
	{ NOTE_C5, 104 }, 
	{ NOTE_AS4, 104 }, 
	{ NOTE_C5, 104 }, 
	{ NOTE_E5, 104 }, 
	{ NOTE_G5, 104 }, 
	{ NOTE_F5, 104 }, 
	{ NOTE_G5, 104 }, 
	{ NOTE_AS5, 104 }, 
	{ NOTE_G5, 104 }, 
	{ NOTE_F5, 104 }, 
	{ NOTE_G5, 109 }, 
	{ NOTE_E5, 104 }, 
	{ NOTE_AS5, 104 }, 
	{ NOTE_GS5, 104 }, 
	{ NOTE_AS5, 104 }, 
	{ NOTE_E5, 104 }, 
	{ NOTE_G5, 104 }, 
	{ NOTE_F5, 104 }, 
	{ NOTE_G5, 104 }, 
	{ NOTE_AS4, 104 }, 
	{ NOTE_CS5, 104 }, 
	{ NOTE_C5, 104 }, 
	{ NOTE_CS5, 104 }, 
	{ NOTE_E4, 104 }, 
	{ NOTE_G4, 104 }, 
	{ NOTE_F4, 104 }, 
	{ NOTE_G4, 104 }, 
	{ NOTE_AS3, 833 }, 
	{ NOTE_REST, 836 }, 
	{ NOTE_REST, 104 }, 
	{ NOTE_C5, 104 }, 
	{ NOTE_AS4, 104 }, 
	{ NOTE_C5, 104 }, 
	{ NOTE_GS4, 104 }, 
	{ NOTE_C5, 104 }, 
	{ NOTE_AS4, 104 }, 
	{ NOTE_C5, 104 }, 
	{ NOTE_F5, 104 }, 
	{ NOTE_C5, 104 }, 
	{ NOTE_AS4, 104 }, 
	{ NOTE_C5, 104 }, 
	{ NOTE_GS4, 104 }, 
	{ NOTE_C5, 104 }, 
	{ NOTE_AS4, 104 }, 
	{ NOTE_C5, 104 }, 
	{ NOTE_A5, 104 }, 
	{ NOTE_A5, 104 }, 
	{ NOTE_A5, 104 }, 
	{ NOTE_A5, 104 }, 
	{ NOTE_A5, 104 }, 
	{ NOTE_A5, 104 }, 
	{ NOTE_A5, 104 }, 
	{ NOTE_A5, 104 }, 
	{ NOTE_A5, 104 }, 
	{ NOTE_A5, 104 }, 
	{ NOTE_A5, 104 }, 
	{ NOTE_A5, 104 }, 
	{ NOTE_A5, 104 }, 
	{ NOTE_A5, 104 }, 
	{ NOTE_A5, 104 }, 
	{ NOTE_A5, 109 }, 
	{ NOTE_AS5, 104 }, 
	{ NOTE_D5, 104 }, 
	{ NOTE_C5, 104 }, 
	{ NOTE_D5, 104 }, 
	{ NOTE_F5, 104 }, 
	{ NOTE_D5, 104 }, 
	{ NOTE_C5, 104 }, 
	{ NOTE_D5, 104 }, 
	{ NOTE_AS4, 104 }, 
	{ NOTE_D5, 104 }, 
	{ NOTE_C5, 104 }, 
	{ NOTE_D5, 104 }, 
	{ NOTE_F5, 104 }, 
	{ NOTE_D5, 104 }, 
	{ NOTE_C5, 104 }, 
	{ NOTE_D5, 104 }, 
	{ NOTE_B5, 104 }, 
	{ NOTE_B5, 104 }, 
	{ NOTE_B5, 104 }, 
	{ NOTE_B5, 104 }, 
	{ NOTE_B5, 104 }, 
	{ NOTE_B5, 104 }, 
	{ NOTE_B5, 104 }, 
	{ NOTE_B5, 104 }, 
	{ NOTE_B5, 104 }, 
	{ NOTE_B5, 104 }, 
	{ NOTE_B5, 104 }, 
	{ NOTE_B5, 104 }, 
	{ NOTE_B5, 104 }, 
	{ NOTE_B5, 104 }, 
	{ NOTE_B5, 104 }, 
	{ NOTE_B5, 109 }, 
	{ NOTE_C6, 104 }, 
	{ NOTE_DS5, 104 }, 
	{ NOTE_D5, 104 }, 
	{ NOTE_DS5, 104 }, 
	{ NOTE_G5, 104 }, 
	{ NOTE_DS5, 104 }, 
	{ NOTE_D5, 104 }, 
	{ NOTE_DS5, 104 }, 
	{ NOTE_C6, 104 }, 
	{ NOTE_DS5, 104 }, 
	{ NOTE_D5, 104 }, 
	{ NOTE_DS5, 104 }, 
	{ NOTE_G5, 104 }, 
	{ NOTE_DS5, 104 }, 
	{ NOTE_D5, 104 }, 
	{ NOTE_C5, 104 }, 
	{ NOTE_D5, 104 }, 
	{ NOTE_D5, 104 }, 
	{ NOTE_D5, 104 }, 
	{ NOTE_D5, 104 }, 
	{ NOTE_D5, 104 }, 
	{ NOTE_D5, 104 }, 
	{ NOTE_D5, 104 }, 
	{ NOTE_D5, 104 }, 
	{ NOTE_D5, 104 }, 
	{ NOTE_D5, 104 }, 
	{ NOTE_D5, 104 }, 
	{ NOTE_D5, 104 }, 
	{ NOTE_D5, 104 }, 
	{ NOTE_D5, 104 }, 
	{ NOTE_D5, 104 }, 
	{ NOTE_D5, 109 }, 
	{ NOTE_DS5, 104 }, 
	{ NOTE_G4, 104 }, 
	{ NOTE_F4, 104 }, 
	{ NOTE_G4, 104 }, 
	{ NOTE_DS5, 104 }, 
	{ NOTE_G4, 104 }, 
	{ NOTE_F4, 104 }, 
	{ NOTE_G4, 104 }, 
	{ NOTE_DS5, 104 }, 
	{ NOTE_G4, 104 }, 
	{ NOTE_F4, 104 }, 
	{ NOTE_G4, 104 }, 
	{ NOTE_DS5, 104 }, 
	{ NOTE_G4, 104 }, 
	{ NOTE_F4, 104 }, 
	{ NOTE_G4, 104 }, 
	{ NOTE_DS5, 104 }, 
	{ NOTE_DS5, 104 }, 
	{ NOTE_DS5, 104 }, 
	{ NOTE_DS5, 104 }, 
	{ NOTE_DS5, 104 }, 
	{ NOTE_DS5, 104 }, 
	{ NOTE_DS5, 104 }, 
	{ NOTE_DS5, 104 }, 
	{ NOTE_DS5, 104 }, 
	{ NOTE_DS5, 104 }, 
	{ NOTE_DS5, 104 }, 
	{ NOTE_DS5, 104 }, 
	{ NOTE_DS5, 104 }, 
	{ NOTE_DS5, 104 }, 
	{ NOTE_DS5, 104 }, 
	{ NOTE_DS5, 109 }, 
	{ NOTE_D5, 104 }, 
	{ NOTE_D5, 104 }, 
	{ NOTE_D5, 104 }, 
	{ NOTE_D5, 104 }, 
	{ NOTE_D5, 104 }, 
	{ NOTE_D5, 104 }, 
	{ NOTE_D5, 104 }, 
	{ NOTE_D5, 104 }, 
	{ NOTE_D5, 104 }, 
	{ NOTE_D5, 104 }, 
	{ NOTE_D5, 104 }, 
	{ NOTE_D5, 104 }, 
	{ NOTE_D5, 104 }, 
	{ NOTE_D5, 104 }, 
	{ NOTE_D5, 104 }, 
	{ NOTE_D5, 104 }, 
	{ NOTE_DS5, 833 }, 
	{ NOTE_REST, 836 }, 
	{ NOTE_REST, 3333 }, 
	{ NOTE_AS4, 417 }, 
	{ NOTE_AS4, 417 }, 
	{ NOTE_AS4, 417 }, 
	{ NOTE_AS4, 417 }, 
	{ NOTE_AS4, 417 }, 
	{ NOTE_AS4, 417 }, 
	{ NOTE_AS4, 417 }, 
	{ NOTE_AS4, 414 }, 
	{ NOTE_AS4, 417 }, 
	{ NOTE_AS4, 417 }, 
	{ NOTE_AS4, 417 }, 
	{ NOTE_AS4, 417 }, 
	{ NOTE_CS5, 208 }, 
	{ NOTE_CS5, 208 }, 
	{ NOTE_CS5, 208 }, 
	{ NOTE_CS5, 208 }, 
	{ NOTE_CS5, 208 }, 
	{ NOTE_CS5, 208 }, 
	{ NOTE_CS5, 208 }, 
	{ NOTE_CS5, 209 }, 
	{ NOTE_C5, 417 }, 
	{ NOTE_C5, 417 }, 
	{ NOTE_C5, 417 }, 
	{ NOTE_C5, 417 }, 
	{ NOTE_DS5, 208 }, 
	{ NOTE_DS5, 208 }, 
	{ NOTE_DS5, 208 }, 
	{ NOTE_DS5, 208 }, 
	{ NOTE_DS5, 208 }, 
	{ NOTE_DS5, 208 }, 
	{ NOTE_DS5, 208 }, 
	{ NOTE_DS5, 209 }, 
	{ NOTE_D5, 417 }, 
	{ NOTE_D5, 417 }, 
	{ NOTE_D5, 417 }, 
	{ NOTE_D5, 417 }, 
	{ NOTE_GS5, 208 }, 
	{ NOTE_GS5, 208 }, 
	{ NOTE_GS5, 208 }, 
	{ NOTE_GS5, 208 }, 
	{ NOTE_GS5, 208 }, 
	{ NOTE_GS5, 208 }, 
	{ NOTE_GS5, 208 }, 
	{ NOTE_GS5, 209 }, 
	{ NOTE_G5, 208 }, 
	{ NOTE_DS6, 208 }, 
	{ NOTE_DS6, 208 }, 
	{ NOTE_AS5, 208 }, 
	{ NOTE_AS5, 208 }, 
	{ NOTE_G5, 208 }, 
	{ NOTE_G5, 208 }, 
	{ NOTE_DS5, 208 }, 
	{ NOTE_DS5, 417 }, 
	{ NOTE_G5, 417 }, 
	{ NOTE_AS5, 417 }, 
	{ NOTE_CS6, 418 }, 
	{ NOTE_C6, 208 }, 
	{ NOTE_F6, 208 }, 
	{ NOTE_F6, 208 }, 
	{ NOTE_C6, 208 }, 
	{ NOTE_C6, 208 }, 
	{ NOTE_A5, 208 }, 
	{ NOTE_A5, 208 }, 
	{ NOTE_F5, 208 }, 
	{ NOTE_F5, 417 }, 
	{ NOTE_A5, 417 }, 
	{ NOTE_C6, 417 }, 
	{ NOTE_DS6, 418 }, 
	{ NOTE_D6, 208 }, 
	{ NOTE_G6, 208 }, 
	{ NOTE_G6, 208 }, 
	{ NOTE_D6, 208 }, 
	{ NOTE_D6, 208 }, 
	{ NOTE_B5, 208 }, 
	{ NOTE_B5, 208 }, 
	{ NOTE_G5, 208 }, 
	{ NOTE_G5, 417 }, 
	{ NOTE_B5, 417 }, 
	{ NOTE_D6, 417 }, 
	{ NOTE_F6, 418 }, 
	{ NOTE_DS6, 104 }, 
	{ NOTE_DS6, 104 }, 
	{ NOTE_DS6, 104 }, 
	{ NOTE_DS6, 104 }, 
	{ NOTE_DS6, 104 }, 
	{ NOTE_DS6, 104 }, 
	{ NOTE_DS6, 104 }, 
	{ NOTE_DS6, 104 }, 
	{ NOTE_DS6, 104 }, 
	{ NOTE_DS6, 104 }, 
	{ NOTE_DS6, 104 }, 
	{ NOTE_DS6, 104 }, 
	{ NOTE_DS6, 104 }, 
	{ NOTE_DS6, 104 }, 
	{ NOTE_DS6, 104 }, 
	{ NOTE_DS6, 104 }, 
	{ NOTE_D6, 104 }, 
	{ NOTE_D6, 104 }, 
	{ NOTE_D6, 104 }, 
	{ NOTE_D6, 104 }, 
	{ NOTE_D6, 104 }, 
	{ NOTE_D6, 104 }, 
	{ NOTE_D6, 104 }, 
	{ NOTE_D6, 104 }, 
	{ NOTE_D6, 104 }, 
	{ NOTE_D6, 104 }, 
	{ NOTE_D6, 104 }, 
	{ NOTE_D6, 104 }, 
	{ NOTE_D6, 104 }, 
	{ NOTE_D6, 104 }, 
	{ NOTE_D6, 104 }, 
	{ NOTE_D6, 109 }, 
	{ NOTE_D6, 104 }, 
	{ NOTE_D6, 104 }, 
	{ NOTE_D6, 104 }, 
	{ NOTE_D6, 104 }, 
	{ NOTE_D6, 104 }, 
	{ NOTE_D6, 104 }, 
	{ NOTE_D6, 104 }, 
	{ NOTE_D6, 104 }, 
	{ NOTE_D6, 104 }, 
	{ NOTE_D6, 104 }, 
	{ NOTE_D6, 104 }, 
	{ NOTE_D6, 104 }, 
	{ NOTE_D6, 104 }, 
	{ NOTE_D6, 104 }, 
	{ NOTE_D6, 104 }, 
	{ NOTE_D6, 104 }, 
	{ NOTE_G6, 104 }, 
	{ NOTE_G6, 104 }, 
	{ NOTE_G6, 104 }, 
	{ NOTE_G6, 104 }, 
	{ NOTE_G6, 104 }, 
	{ NOTE_G6, 104 }, 
	{ NOTE_G6, 104 }, 
	{ NOTE_G6, 104 }, 
	{ NOTE_G6, 104 }, 
	{ NOTE_G6, 104 }, 
	{ NOTE_G6, 104 }, 
	{ NOTE_G6, 104 }, 
	{ NOTE_G6, 104 }, 
	{ NOTE_G6, 104 }, 
	{ NOTE_G6, 104 }, 
	{ NOTE_G6, 109 }, 
	{ NOTE_G6, 104 }, 
	{ NOTE_G6, 104 }, 
	{ NOTE_G6, 104 }, 
	{ NOTE_G6, 104 }, 
	{ NOTE_G6, 104 }, 
	{ NOTE_G6, 104 }, 
	{ NOTE_G6, 104 }, 
	{ NOTE_G6, 104 }, 
	{ NOTE_G6, 104 }, 
	{ NOTE_G6, 104 }, 
	{ NOTE_G6, 104 }, 
	{ NOTE_G6, 104 }, 
	{ NOTE_G6, 104 }, 
	{ NOTE_G6, 104 }, 
	{ NOTE_G6, 104 }, 
	{ NOTE_G6, 104 }, 
	{ NOTE_F6, 104 }, 
	{ NOTE_F6, 104 }, 
	{ NOTE_F6, 104 }, 
	{ NOTE_F6, 104 }, 
	{ NOTE_F6, 104 }, 
	{ NOTE_F6, 104 }, 
	{ NOTE_F6, 104 }, 
	{ NOTE_F6, 104 }, 
	{ NOTE_F6, 104 }, 
	{ NOTE_F6, 104 }, 
	{ NOTE_F6, 104 }, 
	{ NOTE_F6, 104 }, 
	{ NOTE_F6, 104 }, 
	{ NOTE_F6, 104 }, 
	{ NOTE_F6, 104 }, 
	{ NOTE_F6, 109 }, 
	{ NOTE_F6, 104 }, 
	{ NOTE_F6, 104 }, 
	{ NOTE_F6, 104 }, 
	{ NOTE_F6, 104 }, 
	{ NOTE_F6, 104 }, 
	{ NOTE_F6, 104 }, 
	{ NOTE_F6, 104 }, 
	{ NOTE_F6, 104 }, 
	{ NOTE_F6, 104 }, 
	{ NOTE_F6, 104 }, 
	{ NOTE_F6, 104 }, 
	{ NOTE_F6, 104 }, 
	{ NOTE_F6, 104 }, 
	{ NOTE_F6, 104 }, 
	{ NOTE_F6, 104 }, 
	{ NOTE_F6, 104 }, 
	{ NOTE_DS6, 104 }, 
	{ NOTE_DS6, 104 }, 
	{ NOTE_DS6, 104 }, 
	{ NOTE_DS6, 104 }, 
	{ NOTE_DS6, 104 }, 
	{ NOTE_DS6, 104 }, 
	{ NOTE_DS6, 104 }, 
	{ NOTE_DS6, 104 }, 
	{ NOTE_DS6, 104 }, 
	{ NOTE_DS6, 104 }, 
	{ NOTE_DS6, 104 }, 
	{ NOTE_DS6, 104 }, 
	{ NOTE_DS6, 104 }, 
	{ NOTE_DS6, 104 }, 
	{ NOTE_DS6, 104 }, 
	{ NOTE_DS6, 109 }, 
	{ NOTE_CS6, 104 }, 
	{ NOTE_CS6, 104 }, 
	{ NOTE_CS6, 104 }, 
	{ NOTE_CS6, 104 }, 
	{ NOTE_CS6, 104 }, 
	{ NOTE_CS6, 104 }, 
	{ NOTE_CS6, 104 }, 
	{ NOTE_CS6, 104 }, 
	{ NOTE_CS6, 104 }, 
	{ NOTE_CS6, 104 }, 
	{ NOTE_CS6, 104 }, 
	{ NOTE_CS6, 104 }, 
	{ NOTE_CS6, 104 }, 
	{ NOTE_CS6, 104 }, 
	{ NOTE_CS6, 104 }, 
	{ NOTE_CS6, 104 }, 
	{ NOTE_C6, 104 }, 
	{ NOTE_C6, 104 }, 
	{ NOTE_C6, 104 }, 
	{ NOTE_C6, 104 }, 
	{ NOTE_C6, 104 }, 
	{ NOTE_C6, 104 }, 
	{ NOTE_C6, 104 }, 
	{ NOTE_C6, 104 }, 
	{ NOTE_C6, 104 }, 
	{ NOTE_C6, 104 }, 
	{ NOTE_C6, 104 }, 
	{ NOTE_C6, 104 }, 
	{ NOTE_C6, 104 }, 
	{ NOTE_C6, 104 }, 
	{ NOTE_C6, 104 }, 
	{ NOTE_C6, 109 }, 
	{ NOTE_AS5, 104 }, 
	{ NOTE_AS5, 104 }, 
	{ NOTE_AS5, 104 }, 
	{ NOTE_AS5, 104 }, 
	{ NOTE_AS5, 104 }, 
	{ NOTE_AS5, 104 }, 
	{ NOTE_AS5, 104 }, 
	{ NOTE_AS5, 104 }, 
	{ NOTE_AS5, 104 }, 
	{ NOTE_AS5, 104 }, 
	{ NOTE_AS5, 104 }, 
	{ NOTE_AS5, 104 }, 
	{ NOTE_AS5, 104 }, 
	{ NOTE_AS5, 104 }, 
	{ NOTE_AS5, 104 }, 
	{ NOTE_AS5, 104 }, 
	{ NOTE_GS5, 104 }, 
	{ NOTE_GS5, 104 }, 
	{ NOTE_GS5, 104 }, 
	{ NOTE_GS5, 104 }, 
	{ NOTE_GS5, 104 }, 
	{ NOTE_GS5, 104 }, 
	{ NOTE_GS5, 104 }, 
	{ NOTE_GS5, 104 }, 
	{ NOTE_GS5, 104 }, 
	{ NOTE_GS5, 104 }, 
	{ NOTE_GS5, 104 }, 
	{ NOTE_GS5, 104 }, 
	{ NOTE_GS5, 104 }, 
	{ NOTE_GS5, 104 }, 
	{ NOTE_GS5, 104 }, 
	{ NOTE_GS5, 109 }, 
	{ NOTE_GS5, 104 }, 
	{ NOTE_GS5, 104 }, 
	{ NOTE_GS5, 104 }, 
	{ NOTE_GS5, 104 }, 
	{ NOTE_GS5, 104 }, 
	{ NOTE_GS5, 104 }, 
	{ NOTE_GS5, 104 }, 
	{ NOTE_GS5, 104 }, 
	{ NOTE_GS5, 104 }, 
	{ NOTE_GS5, 104 }, 
	{ NOTE_GS5, 104 }, 
	{ NOTE_GS5, 104 }, 
	{ NOTE_GS5, 104 }, 
	{ NOTE_GS5, 104 }, 
	{ NOTE_GS5, 104 }, 
	{ NOTE_GS5, 104 }, 
	{ NOTE_F5, 104 }, 
	{ NOTE_F5, 104 }, 
	{ NOTE_F5, 104 }, 
	{ NOTE_F5, 104 }, 
	{ NOTE_F5, 104 }, 
	{ NOTE_F5, 104 }, 
	{ NOTE_F5, 104 }, 
	{ NOTE_F5, 104 }, 
	{ NOTE_F5, 104 }, 
	{ NOTE_F5, 104 }, 
	{ NOTE_F5, 104 }, 
	{ NOTE_F5, 104 }, 
	{ NOTE_F5, 104 }, 
	{ NOTE_F5, 104 }, 
	{ NOTE_F5, 104 }, 
	{ NOTE_F5, 109 }, 
	{ NOTE_E5, 104 }, 
	{ NOTE_E5, 104 }, 
	{ NOTE_E5, 104 }, 
	{ NOTE_E5, 104 }, 
	{ NOTE_E5, 104 }, 
	{ NOTE_E5, 104 }, 
	{ NOTE_E5, 104 }, 
	{ NOTE_E5, 104 }, 
	{ NOTE_F5, 104 }, 
	{ NOTE_F5, 104 }, 
	{ NOTE_F5, 104 }, 
	{ NOTE_F5, 104 }, 
	{ NOTE_F5, 104 }, 
	{ NOTE_F5, 104 }, 
	{ NOTE_F5, 104 }, 
	{ NOTE_F5, 104 }, 
	{ NOTE_G5, 104 }, 
	{ NOTE_G5, 104 }, 
	{ NOTE_G5, 104 }, 
	{ NOTE_G5, 104 }, 
	{ NOTE_G5, 104 }, 
	{ NOTE_G5, 104 }, 
	{ NOTE_G5, 104 }, 
	{ NOTE_G5, 104 }, 
	{ NOTE_GS5, 104 }, 
	{ NOTE_GS5, 104 }, 
	{ NOTE_GS5, 104 }, 
	{ NOTE_GS5, 104 }, 
	{ NOTE_GS5, 104 }, 
	{ NOTE_GS5, 104 }, 
	{ NOTE_GS5, 104 }, 
	{ NOTE_GS5, 109 }, 
	{ NOTE_AS5, 104 }, 
	{ NOTE_AS5, 104 }, 
	{ NOTE_AS5, 104 }, 
	{ NOTE_AS5, 104 }, 
	{ NOTE_AS5, 104 }, 
	{ NOTE_AS5, 104 }, 
	{ NOTE_AS5, 104 }, 
	{ NOTE_AS5, 104 }, 
	{ NOTE_GS5, 104 }, 
	{ NOTE_GS5, 104 }, 
	{ NOTE_GS5, 104 }, 
	{ NOTE_GS5, 104 }, 
	{ NOTE_GS5, 104 }, 
	{ NOTE_GS5, 104 }, 
	{ NOTE_GS5, 104 }, 
	{ NOTE_GS5, 104 }, 
	{ NOTE_G5, 104 }, 
	{ NOTE_G5, 104 }, 
	{ NOTE_G5, 104 }, 
	{ NOTE_G5, 104 }, 
	{ NOTE_G5, 104 }, 
	{ NOTE_G5, 104 }, 
	{ NOTE_G5, 104 }, 
	{ NOTE_G5, 104 }, 
	{ NOTE_F5, 104 }, 
	{ NOTE_F5, 104 }, 
	{ NOTE_F5, 104 }, 
	{ NOTE_F5, 104 }, 
	{ NOTE_F5, 104 }, 
	{ NOTE_F5, 104 }, 
	{ NOTE_F5, 104 }, 
	{ NOTE_F5, 109 }, 
	{ NOTE_C5, 208 }, 
	{ NOTE_G5, 104 }, 
	{ NOTE_G5, 104 }, 
	{ NOTE_G5, 104 }, 
	{ NOTE_G5, 104 }, 
	{ NOTE_G5, 104 }, 
	{ NOTE_G5, 104 }, 
	{ NOTE_G5, 208 }, 
	{ NOTE_G5, 208 }, 
	{ NOTE_G5, 208 }, 
	{ NOTE_G5, 208 }, 
	{ NOTE_GS5, 208 }, 
	{ NOTE_C5, 208 }, 
	{ NOTE_GS5, 208 }, 
	{ NOTE_C5, 208 }, 
	{ NOTE_GS5, 208 }, 
	{ NOTE_C5, 208 }, 
	{ NOTE_GS5, 208 }, 
	{ NOTE_C5, 213 }, 
	{ NOTE_CS5, 208 }, 
	{ NOTE_CS5, 104 }, 
	{ NOTE_CS5, 104 }, 
	{ NOTE_CS5, 104 }, 
	{ NOTE_CS5, 104 }, 
	{ NOTE_CS5, 104 }, 
	{ NOTE_CS5, 104 }, 
	{ NOTE_CS5, 208 }, 
	{ NOTE_CS5, 208 }, 
	{ NOTE_CS5, 208 }, 
	{ NOTE_CS5, 208 }, 
	{ NOTE_G5, 208 }, 
	{ NOTE_CS5, 208 }, 
	{ NOTE_G5, 208 }, 
	{ NOTE_CS5, 208 }, 
	{ NOTE_G5, 208 }, 
	{ NOTE_CS5, 208 }, 
	{ NOTE_G5, 208 }, 
	{ NOTE_CS5, 213 }, 
	{ NOTE_C5, 208 }, 
	{ NOTE_C5, 104 }, 
	{ NOTE_C5, 104 }, 
	{ NOTE_C5, 104 }, 
	{ NOTE_C5, 104 }, 
	{ NOTE_C5, 104 }, 
	{ NOTE_C5, 104 }, 
	{ NOTE_C5, 208 }, 
	{ NOTE_C5, 208 }, 
	{ NOTE_C5, 208 }, 
	{ NOTE_C5, 208 }, 
	{ NOTE_F5, 208 }, 
	{ NOTE_C5, 208 }, 
	{ NOTE_F5, 208 }, 
	{ NOTE_C5, 208 }, 
	{ NOTE_F5, 208 }, 
	{ NOTE_C5, 208 }, 
	{ NOTE_F5, 208 }, 
	{ NOTE_C5, 213 }, 
	{ NOTE_AS4, 208 }, 
	{ NOTE_AS4, 104 }, 
	{ NOTE_AS4, 104 }, 
	{ NOTE_AS4, 104 }, 
	{ NOTE_AS4, 104 }, 
	{ NOTE_AS4, 104 }, 
	{ NOTE_AS4, 104 }, 
	{ NOTE_AS4, 208 }, 
	{ NOTE_AS4, 208 }, 
	{ NOTE_AS4, 208 }, 
	{ NOTE_AS4, 208 }, 
	{ NOTE_E5, 104 }, 
	{ NOTE_G5, 104 }, 
	{ NOTE_AS5, 104 }, 
	{ NOTE_G5, 104 }, 
	{ NOTE_E5, 104 }, 
	{ NOTE_G5, 104 }, 
	{ NOTE_AS5, 104 }, 
	{ NOTE_G5, 104 }, 
	{ NOTE_E5, 104 }, 
	{ NOTE_G5, 104 }, 
	{ NOTE_AS5, 104 }, 
	{ NOTE_G5, 104 }, 
	{ NOTE_E5, 104 }, 
	{ NOTE_G5, 104 }, 
	{ NOTE_AS5, 104 }, 
	{ NOTE_G5, 109 }, 
	{ NOTE_GS5, 208 }, 
	{ NOTE_GS5, 104 }, 
	{ NOTE_GS5, 104 }, 
	{ NOTE_GS5, 104 }, 
	{ NOTE_GS5, 104 }, 
	{ NOTE_GS5, 104 }, 
	{ NOTE_GS5, 104 }, 
	{ NOTE_GS5, 208 }, 
	{ NOTE_GS5, 208 }, 
	{ NOTE_GS5, 208 }, 
	{ NOTE_GS5, 208 }, 
	{ NOTE_G5, 208 }, 
	{ NOTE_G5, 104 }, 
	{ NOTE_G5, 104 }, 
	{ NOTE_G5, 104 }, 
	{ NOTE_G5, 104 }, 
	{ NOTE_G5, 104 }, 
	{ NOTE_G5, 104 }, 
	{ NOTE_G5, 208 }, 
	{ NOTE_G5, 208 }, 
	{ NOTE_G5, 208 }, 
	{ NOTE_G5, 213 }, 
	{ NOTE_G5, 208 }, 
	{ NOTE_G5, 104 }, 
	{ NOTE_G5, 104 }, 
	{ NOTE_G5, 104 }, 
	{ NOTE_G5, 104 }, 
	{ NOTE_G5, 104 }, 
	{ NOTE_G5, 104 }, 
	{ NOTE_G5, 208 }, 
	{ NOTE_G5, 208 }, 
	{ NOTE_G5, 208 }, 
	{ NOTE_G5, 208 }, 
	{ NOTE_F5, 208 }, 
	{ NOTE_GS4, 104 }, 
	{ NOTE_GS4, 104 }, 
	{ NOTE_GS4, 104 }, 
	{ NOTE_GS4, 104 }, 
	{ NOTE_GS4, 104 }, 
	{ NOTE_GS4, 104 }, 
	{ NOTE_GS4, 208 }, 
	{ NOTE_GS4, 208 }, 
	{ NOTE_GS4, 208 }, 
	{ NOTE_GS4, 213 }, 
	{ NOTE_G4, 208 }, 
	{ NOTE_G4, 104 }, 
	{ NOTE_G4, 104 }, 
	{ NOTE_G4, 104 }, 
	{ NOTE_G4, 104 }, 
	{ NOTE_G4, 104 }, 
	{ NOTE_G4, 104 }, 
	{ NOTE_G4, 208 }, 
	{ NOTE_G4, 208 }, 
	{ NOTE_G4, 208 }, 
	{ NOTE_G4, 208 }, 
	{ NOTE_G4, 208 }, 
	{ NOTE_G4, 104 }, 
	{ NOTE_G4, 104 }, 
	{ NOTE_G4, 104 }, 
	{ NOTE_G4, 104 }, 
	{ NOTE_G4, 104 }, 
	{ NOTE_G4, 104 }, 
	{ NOTE_G4, 208 }, 
	{ NOTE_G4, 208 }, 
	{ NOTE_G4, 208 }, 
	{ NOTE_G4, 213 }, 
	{ NOTE_F4, 3333 }, 
};
const uint16_t NUM_OF_NOTES0 = sizeof(melody0)/sizeof(melody0[0]);

const Note melody1[] PROGMEM = {
	{ NOTE_REST, 3333 }, 
	{ NOTE_G4, 417 }, 
	{ NOTE_G4, 417 }, 
	{ NOTE_G4, 417 }, 
	{ NOTE_G4, 417 }, 
	{ NOTE_G4, 417 }, 
	{ NOTE_G4, 417 }, 
	{ NOTE_G4, 417 }, 
	{ NOTE_G4, 414 }, 
	{ NOTE_G4, 417 }, 
	{ NOTE_G4, 417 }, 
	{ NOTE_G4, 417 }, 
	{ NOTE_G4, 417 }, 
	{ NOTE_G4, 417 }, 
	{ NOTE_G4, 417 }, 
	{ NOTE_G4, 417 }, 
	{ NOTE_G4, 414 }, 
	{ NOTE_CS5, 417 }, 
	{ NOTE_CS5, 417 }, 
	{ NOTE_CS5, 417 }, 
	{ NOTE_CS5, 417 }, 
	{ NOTE_CS5, 417 }, 
	{ NOTE_CS5, 417 }, 
	{ NOTE_CS5, 417 }, 
	{ NOTE_CS5, 414 }, 
	{ NOTE_CS5, 417 }, 
	{ NOTE_CS5, 417 }, 
	{ NOTE_CS5, 417 }, 
	{ NOTE_CS5, 417 }, 
	{ NOTE_CS5, 417 }, 
	{ NOTE_CS5, 417 }, 
	{ NOTE_CS5, 417 }, 
	{ NOTE_CS5, 414 }, 
	{ NOTE_B4, 417 }, 
	{ NOTE_B4, 417 }, 
	{ NOTE_B4, 417 }, 
	{ NOTE_B4, 417 }, 
	{ NOTE_B4, 417 }, 
	{ NOTE_B4, 417 }, 
	{ NOTE_B4, 417 }, 
	{ NOTE_B4, 414 }, 
	{ NOTE_E4, 417 }, 
	{ NOTE_E4, 417 }, 
	{ NOTE_E4, 417 }, 
	{ NOTE_E4, 417 }, 
	{ NOTE_E4, 417 }, 
	{ NOTE_E4, 417 }, 
	{ NOTE_E4, 417 }, 
	{ NOTE_E4, 414 }, 
	{ NOTE_FS4, 417 }, 
	{ NOTE_FS4, 417 }, 
	{ NOTE_FS4, 417 }, 
	{ NOTE_FS4, 417 }, 
	{ NOTE_FS4, 417 }, 
	{ NOTE_FS4, 417 }, 
	{ NOTE_FS4, 417 }, 
	{ NOTE_FS4, 414 }, 
	{ NOTE_F4, 417 }, 
	{ NOTE_F4, 417 }, 
	{ NOTE_F4, 417 }, 
	{ NOTE_F4, 417 }, 
	{ NOTE_F4, 417 }, 
	{ NOTE_F4, 417 }, 
	{ NOTE_F4, 417 }, 
	{ NOTE_F4, 414 }, 
	{ NOTE_FS4, 417 }, 
	{ NOTE_FS4, 417 }, 
	{ NOTE_FS4, 417 }, 
	{ NOTE_FS4, 417 }, 
	{ NOTE_FS4, 417 }, 
	{ NOTE_FS4, 417 }, 
	{ NOTE_FS4, 417 }, 
	{ NOTE_FS4, 414 }, 
	{ NOTE_F4, 417 }, 
	{ NOTE_F4, 417 }, 
	{ NOTE_F4, 417 }, 
	{ NOTE_F4, 417 }, 
	{ NOTE_F4, 417 }, 
	{ NOTE_F4, 417 }, 
	{ NOTE_F4, 417 }, 
	{ NOTE_F4, 414 }, 
	{ NOTE_C4, 104 }, 
	{ NOTE_C5, 208 }, 
	{ NOTE_G4, 208 }, 
	{ NOTE_DS4, 208 }, 
	{ NOTE_C4, 208 }, 
	{ NOTE_C5, 208 }, 
	{ NOTE_G4, 208 }, 
	{ NOTE_DS4, 208 }, 
	{ NOTE_C4, 208 }, 
	{ NOTE_C5, 104 }, 
	{ NOTE_AS4, 104 }, 
	{ NOTE_GS4, 104 }, 
	{ NOTE_G4, 104 }, 
	{ NOTE_F4, 104 }, 
	{ NOTE_DS4, 104 }, 
	{ NOTE_D4, 104 }, 
	{ NOTE_C4, 104 }, 
	{ NOTE_C5, 104 }, 
	{ NOTE_AS4, 104 }, 
	{ NOTE_GS4, 104 }, 
	{ NOTE_G4, 104 }, 
	{ NOTE_F4, 104 }, 
	{ NOTE_DS4, 104 }, 
	{ NOTE_D4, 109 }, 
	{ NOTE_C4, 104 }, 
	{ NOTE_G3, 104 }, 
	{ NOTE_C4, 104 }, 
	{ NOTE_DS4, 104 }, 
	{ NOTE_C4, 104 }, 
	{ NOTE_G3, 104 }, 
	{ NOTE_C4, 104 }, 
	{ NOTE_DS4, 104 }, 
	{ NOTE_C4, 104 }, 
	{ NOTE_G3, 104 }, 
	{ NOTE_C4, 104 }, 
	{ NOTE_DS4, 104 }, 
	{ NOTE_C4, 104 }, 
	{ NOTE_G3, 104 }, 
	{ NOTE_C4, 104 }, 
	{ NOTE_DS4, 104 }, 
	{ NOTE_C3, 1669 }, 
	{ NOTE_REST, 1667 }, 
	{ NOTE_DS4, 104 }, 
	{ NOTE_DS5, 208 }, 
	{ NOTE_C5, 208 }, 
	{ NOTE_G4, 208 }, 
	{ NOTE_DS4, 208 }, 
	{ NOTE_DS5, 208 }, 
	{ NOTE_C5, 208 }, 
	{ NOTE_G4, 208 }, 
	{ NOTE_DS4, 210 }, 
	{ NOTE_DS5, 104 }, 
	{ NOTE_D5, 104 }, 
	{ NOTE_C5, 104 }, 
	{ NOTE_B4, 104 }, 
	{ NOTE_A4, 104 }, 
	{ NOTE_G4, 104 }, 
	{ NOTE_F4, 104 }, 
	{ NOTE_DS4, 104 }, 
	{ NOTE_DS5, 104 }, 
	{ NOTE_D5, 104 }, 
	{ NOTE_C5, 104 }, 
	{ NOTE_B4, 104 }, 
	{ NOTE_A4, 104 }, 
	{ NOTE_G4, 104 }, 
	{ NOTE_F4, 104 }, 
	{ NOTE_DS4, 104 }, 
	{ NOTE_C4, 104 }, 
	{ NOTE_DS4, 104 }, 
	{ NOTE_G4, 104 }, 
	{ NOTE_DS4, 104 }, 
	{ NOTE_C4, 104 }, 
	{ NOTE_DS4, 104 }, 
	{ NOTE_G4, 104 }, 
	{ NOTE_DS4, 104 }, 
	{ NOTE_C4, 104 }, 
	{ NOTE_DS4, 104 }, 
	{ NOTE_G4, 104 }, 
	{ NOTE_DS4, 104 }, 
	{ NOTE_C4, 104 }, 
	{ NOTE_DS4, 104 }, 
	{ NOTE_G4, 109 }, 
	{ NOTE_DS3, 1667 }, 
	{ NOTE_REST, 1666 }, 
	{ NOTE_G3, 104 }, 
	{ NOTE_G4, 208 }, 
	{ NOTE_DS4, 208 }, 
	{ NOTE_C4, 208 }, 
	{ NOTE_G3, 208 }, 
	{ NOTE_G4, 208 }, 
	{ NOTE_DS4, 208 }, 
	{ NOTE_C4, 208 }, 
	{ NOTE_G3, 208 }, 
	{ NOTE_G4, 104 }, 
	{ NOTE_F4, 104 }, 
	{ NOTE_DS4, 104 }, 
	{ NOTE_D4, 104 }, 
	{ NOTE_C4, 104 }, 
	{ NOTE_B3, 104 }, 
	{ NOTE_A3, 104 }, 
	{ NOTE_G3, 104 }, 
	{ NOTE_G4, 104 }, 
	{ NOTE_F4, 104 }, 
	{ NOTE_DS4, 104 }, 
	{ NOTE_D4, 104 }, 
	{ NOTE_C4, 104 }, 
	{ NOTE_B3, 104 }, 
	{ NOTE_A3, 109 }, 
	{ NOTE_G3, 104 }, 
	{ NOTE_DS3, 104 }, 
	{ NOTE_G3, 104 }, 
	{ NOTE_C4, 104 }, 
	{ NOTE_G3, 104 }, 
	{ NOTE_DS3, 104 }, 
	{ NOTE_G3, 104 }, 
	{ NOTE_C4, 104 }, 
	{ NOTE_G3, 104 }, 
	{ NOTE_DS3, 104 }, 
	{ NOTE_G3, 104 }, 
	{ NOTE_C4, 104 }, 
	{ NOTE_G3, 104 }, 
	{ NOTE_DS3, 104 }, 
	{ NOTE_G3, 104 }, 
	{ NOTE_C4, 104 }, 
	{ NOTE_C3, 833 }, 
	{ NOTE_REST, 836 }, 
	{ NOTE_CS3, 417 }, 
	{ NOTE_CS3, 417 }, 
	{ NOTE_CS3, 417 }, 
	{ NOTE_CS3, 417 }, 
	{ NOTE_E3, 417 }, 
	{ NOTE_E3, 417 }, 
	{ NOTE_E3, 417 }, 
	{ NOTE_E3, 414 }, 
	{ NOTE_F4, 208 }, 
	{ NOTE_F3, 208 }, 
	{ NOTE_F3, 208 }, 
	{ NOTE_F3, 208 }, 
	{ NOTE_F3, 208 }, 
	{ NOTE_F3, 208 }, 
	{ NOTE_F3, 208 }, 
	{ NOTE_F3, 208 }, 
	{ NOTE_F3, 208 }, 
	{ NOTE_F3, 208 }, 
	{ NOTE_F3, 208 }, 
	{ NOTE_F3, 208 }, 
	{ NOTE_F3, 208 }, 
	{ NOTE_F3, 208 }, 
	{ NOTE_F3, 208 }, 
	{ NOTE_F3, 213 }, 
	{ NOTE_F3, 208 }, 
	{ NOTE_F3, 208 }, 
	{ NOTE_F3, 208 }, 
	{ NOTE_F3, 208 }, 
	{ NOTE_F3, 208 }, 
	{ NOTE_F3, 208 }, 
	{ NOTE_F3, 208 }, 
	{ NOTE_F3, 208 }, 
	{ NOTE_F3, 208 }, 
	{ NOTE_F3, 208 }, 
	{ NOTE_F3, 208 }, 
	{ NOTE_F3, 208 }, 
	{ NOTE_F3, 208 }, 
	{ NOTE_F3, 208 }, 
	{ NOTE_F3, 208 }, 
	{ NOTE_F3, 213 }, 
	{ NOTE_F3, 208 }, 
	{ NOTE_F3, 208 }, 
	{ NOTE_F3, 208 }, 
	{ NOTE_F3, 208 }, 
	{ NOTE_F3, 208 }, 
	{ NOTE_F3, 208 }, 
	{ NOTE_F3, 208 }, 
	{ NOTE_F3, 208 }, 
	{ NOTE_E3, 208 }, 
	{ NOTE_G4, 104 }, 
	{ NOTE_G4, 104 }, 
	{ NOTE_G4, 104 }, 
	{ NOTE_G4, 104 }, 
	{ NOTE_G4, 104 }, 
	{ NOTE_G4, 104 }, 
	{ NOTE_G4, 208 }, 
	{ NOTE_G4, 208 }, 
	{ NOTE_G4, 208 }, 
	{ NOTE_G4, 213 }, 
	{ NOTE_GS4, 208 }, 
	{ NOTE_C4, 208 }, 
	{ NOTE_GS4, 208 }, 
	{ NOTE_C4, 208 }, 
	{ NOTE_GS4, 208 }, 
	{ NOTE_C4, 208 }, 
	{ NOTE_GS4, 208 }, 
	{ NOTE_C4, 208 }, 
	{ NOTE_CS4, 208 }, 
	{ NOTE_CS4, 104 }, 
	{ NOTE_CS4, 104 }, 
	{ NOTE_CS4, 104 }, 
	{ NOTE_CS4, 104 }, 
	{ NOTE_CS4, 104 }, 
	{ NOTE_CS4, 104 }, 
	{ NOTE_CS4, 208 }, 
	{ NOTE_CS4, 208 }, 
	{ NOTE_CS4, 208 }, 
	{ NOTE_CS4, 213 }, 
	{ NOTE_G4, 208 }, 
	{ NOTE_CS4, 208 }, 
	{ NOTE_G4, 208 }, 
	{ NOTE_CS4, 208 }, 
	{ NOTE_G4, 208 }, 
	{ NOTE_CS4, 208 }, 
	{ NOTE_G4, 208 }, 
	{ NOTE_CS4, 208 }, 
	{ NOTE_C4, 208 }, 
	{ NOTE_C4, 104 }, 
	{ NOTE_C4, 104 }, 
	{ NOTE_C4, 104 }, 
	{ NOTE_C4, 104 }, 
	{ NOTE_C4, 104 }, 
	{ NOTE_C4, 104 }, 
	{ NOTE_C4, 208 }, 
	{ NOTE_C4, 208 }, 
	{ NOTE_C4, 208 }, 
	{ NOTE_C4, 213 }, 
	{ NOTE_F4, 208 }, 
	{ NOTE_C4, 208 }, 
	{ NOTE_F4, 208 }, 
	{ NOTE_C4, 208 }, 
	{ NOTE_F4, 208 }, 
	{ NOTE_C4, 208 }, 
	{ NOTE_F4, 208 }, 
	{ NOTE_C4, 208 }, 
	{ NOTE_AS3, 208 }, 
	{ NOTE_AS3, 104 }, 
	{ NOTE_AS3, 104 }, 
	{ NOTE_AS3, 104 }, 
	{ NOTE_AS3, 104 }, 
	{ NOTE_AS3, 104 }, 
	{ NOTE_AS3, 104 }, 
	{ NOTE_AS3, 208 }, 
	{ NOTE_AS3, 208 }, 
	{ NOTE_AS3, 208 }, 
	{ NOTE_AS3, 213 }, 
	{ NOTE_E4, 208 }, 
	{ NOTE_AS3, 208 }, 
	{ NOTE_E4, 208 }, 
	{ NOTE_AS3, 208 }, 
	{ NOTE_E4, 208 }, 
	{ NOTE_AS3, 208 }, 
	{ NOTE_E4, 208 }, 
	{ NOTE_AS3, 208 }, 
	{ NOTE_F3, 104 }, 
	{ NOTE_E3, 104 }, 
	{ NOTE_F3, 104 }, 
	{ NOTE_G3, 104 }, 
	{ NOTE_F3, 104 }, 
	{ NOTE_G3, 104 }, 
	{ NOTE_E3, 104 }, 
	{ NOTE_F3, 104 }, 
	{ NOTE_G3, 104 }, 
	{ NOTE_F3, 104 }, 
	{ NOTE_G3, 104 }, 
	{ NOTE_GS3, 104 }, 
	{ NOTE_G3, 104 }, 
	{ NOTE_GS3, 104 }, 
	{ NOTE_F3, 104 }, 
	{ NOTE_G3, 109 }, 
	{ NOTE_GS3, 104 }, 
	{ NOTE_G3, 104 }, 
	{ NOTE_GS3, 104 }, 
	{ NOTE_AS3, 104 }, 
	{ NOTE_GS3, 104 }, 
	{ NOTE_AS3, 104 }, 
	{ NOTE_G3, 104 }, 
	{ NOTE_GS3, 104 }, 
	{ NOTE_AS3, 104 }, 
	{ NOTE_GS3, 104 }, 
	{ NOTE_AS3, 104 }, 
	{ NOTE_C4, 104 }, 
	{ NOTE_AS3, 104 }, 
	{ NOTE_C4, 104 }, 
	{ NOTE_GS3, 104 }, 
	{ NOTE_AS3, 104 }, 
	{ NOTE_C4, 417 }, 
	{ NOTE_REST, 104 }, 
	{ NOTE_C4, 104 }, 
	{ NOTE_CS4, 104 }, 
	{ NOTE_DS4, 104 }, 
	{ NOTE_F4, 104 }, 
	{ NOTE_C4, 104 }, 
	{ NOTE_CS4, 104 }, 
	{ NOTE_DS4, 104 }, 
	{ NOTE_F4, 104 }, 
	{ NOTE_C4, 104 }, 
	{ NOTE_CS4, 104 }, 
	{ NOTE_DS4, 108 }, 
	{ NOTE_F4, 104 }, 
	{ NOTE_DS4, 104 }, 
	{ NOTE_CS4, 104 }, 
	{ NOTE_C4, 104 }, 
	{ NOTE_F4, 104 }, 
	{ NOTE_DS4, 104 }, 
	{ NOTE_CS4, 104 }, 
	{ NOTE_C4, 104 }, 
	{ NOTE_F4, 104 }, 
	{ NOTE_DS4, 104 }, 
	{ NOTE_CS4, 104 }, 
	{ NOTE_C4, 104 }, 
	{ NOTE_F4, 104 }, 
	{ NOTE_DS4, 104 }, 
	{ NOTE_CS4, 104 }, 
	{ NOTE_C4, 104 }, 
	{ NOTE_F3, 104 }, 
	{ NOTE_G3, 104 }, 
	{ NOTE_GS3, 104 }, 
	{ NOTE_AS3, 104 }, 
	{ NOTE_C4, 104 }, 
	{ NOTE_CS4, 104 }, 
	{ NOTE_DS4, 104 }, 
	{ NOTE_F4, 104 }, 
	{ NOTE_F3, 104 }, 
	{ NOTE_G3, 104 }, 
	{ NOTE_GS3, 104 }, 
	{ NOTE_AS3, 104 }, 
	{ NOTE_C4, 104 }, 
	{ NOTE_CS4, 104 }, 
	{ NOTE_DS4, 104 }, 
	{ NOTE_F4, 109 }, 
	{ NOTE_CS4, 417 }, 
	{ NOTE_REST, 104 }, 
	{ NOTE_AS3, 104 }, 
	{ NOTE_C4, 104 }, 
	{ NOTE_CS4, 104 }, 
	{ NOTE_DS4, 104 }, 
	{ NOTE_AS3, 104 }, 
	{ NOTE_C4, 104 }, 
	{ NOTE_CS4, 104 }, 
	{ NOTE_DS4, 104 }, 
	{ NOTE_AS3, 104 }, 
	{ NOTE_C4, 104 }, 
	{ NOTE_CS4, 104 }, 
	{ NOTE_DS4, 104 }, 
	{ NOTE_CS4, 104 }, 
	{ NOTE_C4, 104 }, 
	{ NOTE_AS3, 104 }, 
	{ NOTE_DS4, 104 }, 
	{ NOTE_CS4, 104 }, 
	{ NOTE_C4, 104 }, 
	{ NOTE_AS3, 104 }, 
	{ NOTE_DS4, 104 }, 
	{ NOTE_CS4, 104 }, 
	{ NOTE_C4, 104 }, 
	{ NOTE_AS3, 104 }, 
	{ NOTE_DS4, 104 }, 
	{ NOTE_CS4, 104 }, 
	{ NOTE_C4, 104 }, 
	{ NOTE_AS3, 108 }, 
	{ NOTE_DS3, 104 }, 
	{ NOTE_F3, 104 }, 
	{ NOTE_G3, 104 }, 
	{ NOTE_GS3, 104 }, 
	{ NOTE_AS3, 104 }, 
	{ NOTE_C4, 104 }, 
	{ NOTE_CS4, 104 }, 
	{ NOTE_DS4, 104 }, 
	{ NOTE_DS3, 104 }, 
	{ NOTE_F3, 104 }, 
	{ NOTE_G3, 104 }, 
	{ NOTE_GS3, 104 }, 
	{ NOTE_AS3, 104 }, 
	{ NOTE_C4, 104 }, 
	{ NOTE_CS4, 104 }, 
	{ NOTE_DS4, 104 }, 
	{ NOTE_C4, 417 }, 
	{ NOTE_REST, 104 }, 
	{ NOTE_GS3, 104 }, 
	{ NOTE_AS3, 104 }, 
	{ NOTE_C4, 104 }, 
	{ NOTE_CS4, 104 }, 
	{ NOTE_GS3, 104 }, 
	{ NOTE_AS3, 104 }, 
	{ NOTE_C4, 104 }, 
	{ NOTE_CS4, 104 }, 
	{ NOTE_GS3, 104 }, 
	{ NOTE_AS3, 104 }, 
	{ NOTE_C4, 108 }, 
	{ NOTE_CS4, 104 }, 
	{ NOTE_C4, 104 }, 
	{ NOTE_AS3, 104 }, 
	{ NOTE_GS3, 104 }, 
	{ NOTE_CS4, 104 }, 
	{ NOTE_C4, 104 }, 
	{ NOTE_AS3, 104 }, 
	{ NOTE_GS3, 104 }, 
	{ NOTE_CS4, 104 }, 
	{ NOTE_C4, 104 }, 
	{ NOTE_AS3, 104 }, 
	{ NOTE_GS3, 104 }, 
	{ NOTE_CS4, 104 }, 
	{ NOTE_C4, 104 }, 
	{ NOTE_AS3, 104 }, 
	{ NOTE_GS3, 104 }, 
	{ NOTE_G3, 104 }, 
	{ NOTE_AS3, 104 }, 
	{ NOTE_GS3, 104 }, 
	{ NOTE_G3, 104 }, 
	{ NOTE_C4, 104 }, 
	{ NOTE_AS3, 104 }, 
	{ NOTE_GS3, 104 }, 
	{ NOTE_G3, 104 }, 
	{ NOTE_F3, 104 }, 
	{ NOTE_GS3, 104 }, 
	{ NOTE_G3, 104 }, 
	{ NOTE_F3, 104 }, 
	{ NOTE_AS3, 104 }, 
	{ NOTE_GS3, 104 }, 
	{ NOTE_G3, 104 }, 
	{ NOTE_F3, 109 }, 
	{ NOTE_E4, 104 }, 
	{ NOTE_C4, 104 }, 
	{ NOTE_AS3, 104 }, 
	{ NOTE_C4, 104 }, 
	{ NOTE_G3, 104 }, 
	{ NOTE_C4, 104 }, 
	{ NOTE_AS3, 104 }, 
	{ NOTE_C4, 104 }, 
	{ NOTE_E4, 104 }, 
	{ NOTE_G4, 104 }, 
	{ NOTE_F4, 104 }, 
	{ NOTE_G4, 104 }, 
	{ NOTE_AS4, 104 }, 
	{ NOTE_G4, 104 }, 
	{ NOTE_F4, 104 }, 
	{ NOTE_G4, 104 }, 
	{ NOTE_E4, 104 }, 
	{ NOTE_C4, 104 }, 
	{ NOTE_AS3, 104 }, 
	{ NOTE_C4, 104 }, 
	{ NOTE_G3, 104 }, 
	{ NOTE_C4, 104 }, 
	{ NOTE_AS3, 104 }, 
	{ NOTE_C4, 104 }, 
	{ NOTE_E4, 104 }, 
	{ NOTE_G4, 104 }, 
	{ NOTE_F4, 104 }, 
	{ NOTE_G4, 104 }, 
	{ NOTE_AS4, 104 }, 
	{ NOTE_G4, 104 }, 
	{ NOTE_F4, 104 }, 
	{ NOTE_G4, 109 }, 
	{ NOTE_E4, 104 }, 
	{ NOTE_AS4, 104 }, 
	{ NOTE_GS4, 104 }, 
	{ NOTE_AS4, 104 }, 
	{ NOTE_E4, 104 }, 
	{ NOTE_G4, 104 }, 
	{ NOTE_F4, 104 }, 
	{ NOTE_G4, 104 }, 
	{ NOTE_AS3, 104 }, 
	{ NOTE_CS4, 104 }, 
	{ NOTE_C4, 104 }, 
	{ NOTE_CS4, 104 }, 
	{ NOTE_E3, 104 }, 
	{ NOTE_G3, 104 }, 
	{ NOTE_F3, 104 }, 
	{ NOTE_G3, 104 }, 
	{ NOTE_AS3, 833 }, 
	{ NOTE_REST, 836 }, 
	{ NOTE_REST, 104 }, 
	{ NOTE_C4, 104 }, 
	{ NOTE_AS3, 104 }, 
	{ NOTE_C4, 104 }, 
	{ NOTE_GS3, 104 }, 
	{ NOTE_C4, 104 }, 
	{ NOTE_AS3, 104 }, 
	{ NOTE_C4, 104 }, 
	{ NOTE_F4, 104 }, 
	{ NOTE_C4, 104 }, 
	{ NOTE_AS3, 104 }, 
	{ NOTE_C4, 104 }, 
	{ NOTE_GS3, 104 }, 
	{ NOTE_C4, 104 }, 
	{ NOTE_AS3, 104 }, 
	{ NOTE_C4, 104 }, 
	{ NOTE_A3, 104 }, 
	{ NOTE_A3, 104 }, 
	{ NOTE_A3, 104 }, 
	{ NOTE_A3, 104 }, 
	{ NOTE_A3, 104 }, 
	{ NOTE_A3, 104 }, 
	{ NOTE_A3, 104 }, 
	{ NOTE_A3, 104 }, 
	{ NOTE_A3, 104 }, 
	{ NOTE_A3, 104 }, 
	{ NOTE_A3, 104 }, 
	{ NOTE_A3, 104 }, 
	{ NOTE_A3, 104 }, 
	{ NOTE_A3, 104 }, 
	{ NOTE_A3, 104 }, 
	{ NOTE_A3, 109 }, 
	{ NOTE_AS4, 104 }, 
	{ NOTE_D4, 104 }, 
	{ NOTE_C4, 104 }, 
	{ NOTE_D4, 104 }, 
	{ NOTE_F4, 104 }, 
	{ NOTE_D4, 104 }, 
	{ NOTE_C4, 104 }, 
	{ NOTE_D4, 104 }, 
	{ NOTE_AS3, 104 }, 
	{ NOTE_D4, 104 }, 
	{ NOTE_C4, 104 }, 
	{ NOTE_D4, 104 }, 
	{ NOTE_F4, 104 }, 
	{ NOTE_D4, 104 }, 
	{ NOTE_C4, 104 }, 
	{ NOTE_D4, 104 }, 
	{ NOTE_B3, 104 }, 
	{ NOTE_B3, 104 }, 
	{ NOTE_B3, 104 }, 
	{ NOTE_B3, 104 }, 
	{ NOTE_B3, 104 }, 
	{ NOTE_B3, 104 }, 
	{ NOTE_B3, 104 }, 
	{ NOTE_B3, 104 }, 
	{ NOTE_B3, 104 }, 
	{ NOTE_B3, 104 }, 
	{ NOTE_B3, 104 }, 
	{ NOTE_B3, 104 }, 
	{ NOTE_B3, 104 }, 
	{ NOTE_B3, 104 }, 
	{ NOTE_B3, 104 }, 
	{ NOTE_B3, 109 }, 
	{ NOTE_C4, 104 }, 
	{ NOTE_DS3, 104 }, 
	{ NOTE_D3, 104 }, 
	{ NOTE_DS3, 104 }, 
	{ NOTE_G3, 104 }, 
	{ NOTE_DS3, 104 }, 
	{ NOTE_D3, 104 }, 
	{ NOTE_DS3, 104 }, 
	{ NOTE_C4, 104 }, 
	{ NOTE_DS3, 104 }, 
	{ NOTE_D3, 104 }, 
	{ NOTE_DS3, 104 }, 
	{ NOTE_G3, 104 }, 
	{ NOTE_DS3, 104 }, 
	{ NOTE_D3, 104 }, 
	{ NOTE_C3, 104 }, 
	{ NOTE_D3, 104 }, 
	{ NOTE_D3, 104 }, 
	{ NOTE_D3, 104 }, 
	{ NOTE_D3, 104 }, 
	{ NOTE_D3, 104 }, 
	{ NOTE_D3, 104 }, 
	{ NOTE_D3, 104 }, 
	{ NOTE_D3, 104 }, 
	{ NOTE_D3, 104 }, 
	{ NOTE_D3, 104 }, 
	{ NOTE_D3, 104 }, 
	{ NOTE_D3, 104 }, 
	{ NOTE_D3, 104 }, 
	{ NOTE_D3, 104 }, 
	{ NOTE_D3, 104 }, 
	{ NOTE_D3, 109 }, 
	{ NOTE_DS4, 104 }, 
	{ NOTE_G3, 104 }, 
	{ NOTE_F3, 104 }, 
	{ NOTE_G3, 104 }, 
	{ NOTE_DS4, 104 }, 
	{ NOTE_G3, 104 }, 
	{ NOTE_F3, 104 }, 
	{ NOTE_G3, 104 }, 
	{ NOTE_DS4, 104 }, 
	{ NOTE_G3, 104 }, 
	{ NOTE_F3, 104 }, 
	{ NOTE_G3, 104 }, 
	{ NOTE_DS4, 104 }, 
	{ NOTE_G3, 104 }, 
	{ NOTE_F3, 104 }, 
	{ NOTE_G3, 104 }, 
	{ NOTE_DS4, 104 }, 
	{ NOTE_DS4, 104 }, 
	{ NOTE_DS4, 104 }, 
	{ NOTE_DS4, 104 }, 
	{ NOTE_DS4, 104 }, 
	{ NOTE_DS4, 104 }, 
	{ NOTE_DS4, 104 }, 
	{ NOTE_DS4, 104 }, 
	{ NOTE_DS4, 104 }, 
	{ NOTE_DS4, 104 }, 
	{ NOTE_DS4, 104 }, 
	{ NOTE_DS4, 104 }, 
	{ NOTE_DS4, 104 }, 
	{ NOTE_DS4, 104 }, 
	{ NOTE_DS4, 104 }, 
	{ NOTE_DS4, 109 }, 
	{ NOTE_D4, 104 }, 
	{ NOTE_D4, 104 }, 
	{ NOTE_D4, 104 }, 
	{ NOTE_D4, 104 }, 
	{ NOTE_D4, 104 }, 
	{ NOTE_D4, 104 }, 
	{ NOTE_D4, 104 }, 
	{ NOTE_D4, 104 }, 
	{ NOTE_D4, 104 }, 
	{ NOTE_D4, 104 }, 
	{ NOTE_D4, 104 }, 
	{ NOTE_D4, 104 }, 
	{ NOTE_D4, 104 }, 
	{ NOTE_D4, 104 }, 
	{ NOTE_D4, 104 }, 
	{ NOTE_D4, 104 }, 
	{ NOTE_DS4, 833 }, 
	{ NOTE_REST, 836 }, 
	{ NOTE_REST, 3333 }, 
	{ NOTE_AS3, 417 }, 
	{ NOTE_AS3, 417 }, 
	{ NOTE_AS3, 417 }, 
	{ NOTE_AS3, 417 }, 
	{ NOTE_AS3, 417 }, 
	{ NOTE_AS3, 417 }, 
	{ NOTE_AS3, 417 }, 
	{ NOTE_AS3, 414 }, 
	{ NOTE_AS3, 417 }, 
	{ NOTE_AS3, 417 }, 
	{ NOTE_AS3, 417 }, 
	{ NOTE_AS3, 417 }, 
	{ NOTE_CS4, 208 }, 
	{ NOTE_CS4, 208 }, 
	{ NOTE_CS4, 208 }, 
	{ NOTE_CS4, 208 }, 
	{ NOTE_CS4, 208 }, 
	{ NOTE_CS4, 208 }, 
	{ NOTE_CS4, 208 }, 
	{ NOTE_CS4, 209 }, 
	{ NOTE_C4, 417 }, 
	{ NOTE_C4, 417 }, 
	{ NOTE_C4, 417 }, 
	{ NOTE_C4, 417 }, 
	{ NOTE_DS4, 208 }, 
	{ NOTE_DS4, 208 }, 
	{ NOTE_DS4, 208 }, 
	{ NOTE_DS4, 208 }, 
	{ NOTE_DS4, 208 }, 
	{ NOTE_DS4, 208 }, 
	{ NOTE_DS4, 208 }, 
	{ NOTE_DS4, 209 }, 
	{ NOTE_D4, 417 }, 
	{ NOTE_D4, 417 }, 
	{ NOTE_D4, 417 }, 
	{ NOTE_D4, 417 }, 
	{ NOTE_GS4, 208 }, 
	{ NOTE_GS4, 208 }, 
	{ NOTE_GS4, 208 }, 
	{ NOTE_GS4, 208 }, 
	{ NOTE_GS4, 208 }, 
	{ NOTE_GS4, 208 }, 
	{ NOTE_GS4, 208 }, 
	{ NOTE_GS4, 209 }, 
	{ NOTE_G3, 208 }, 
	{ NOTE_DS4, 208 }, 
	{ NOTE_DS4, 208 }, 
	{ NOTE_AS3, 208 }, 
	{ NOTE_AS3, 208 }, 
	{ NOTE_G3, 208 }, 
	{ NOTE_G3, 208 }, 
	{ NOTE_DS3, 208 }, 
	{ NOTE_DS3, 417 }, 
	{ NOTE_G3, 417 }, 
	{ NOTE_AS3, 417 }, 
	{ NOTE_CS4, 418 }, 
	{ NOTE_C4, 208 }, 
	{ NOTE_F4, 208 }, 
	{ NOTE_F4, 208 }, 
	{ NOTE_C4, 208 }, 
	{ NOTE_C4, 208 }, 
	{ NOTE_A3, 208 }, 
	{ NOTE_A3, 208 }, 
	{ NOTE_F3, 208 }, 
	{ NOTE_F3, 417 }, 
	{ NOTE_A3, 417 }, 
	{ NOTE_C4, 417 }, 
	{ NOTE_DS4, 418 }, 
	{ NOTE_D4, 208 }, 
	{ NOTE_G4, 208 }, 
	{ NOTE_G4, 208 }, 
	{ NOTE_D4, 208 }, 
	{ NOTE_D4, 208 }, 
	{ NOTE_B3, 208 }, 
	{ NOTE_B3, 208 }, 
	{ NOTE_G3, 208 }, 
	{ NOTE_G3, 417 }, 
	{ NOTE_B3, 417 }, 
	{ NOTE_D4, 417 }, 
	{ NOTE_F4, 418 }, 
	{ NOTE_DS4, 104 }, 
	{ NOTE_DS4, 104 }, 
	{ NOTE_DS4, 104 }, 
	{ NOTE_DS4, 104 }, 
	{ NOTE_DS4, 104 }, 
	{ NOTE_DS4, 104 }, 
	{ NOTE_DS4, 104 }, 
	{ NOTE_DS4, 104 }, 
	{ NOTE_DS4, 104 }, 
	{ NOTE_DS4, 104 }, 
	{ NOTE_DS4, 104 }, 
	{ NOTE_DS4, 104 }, 
	{ NOTE_DS4, 104 }, 
	{ NOTE_DS4, 104 }, 
	{ NOTE_DS4, 104 }, 
	{ NOTE_DS4, 104 }, 
	{ NOTE_D4, 104 }, 
	{ NOTE_D4, 104 }, 
	{ NOTE_D4, 104 }, 
	{ NOTE_D4, 104 }, 
	{ NOTE_D4, 104 }, 
	{ NOTE_D4, 104 }, 
	{ NOTE_D4, 104 }, 
	{ NOTE_D4, 104 }, 
	{ NOTE_D4, 104 }, 
	{ NOTE_D4, 104 }, 
	{ NOTE_D4, 104 }, 
	{ NOTE_D4, 104 }, 
	{ NOTE_D4, 104 }, 
	{ NOTE_D4, 104 }, 
	{ NOTE_D4, 104 }, 
	{ NOTE_D4, 109 }, 
	{ NOTE_D4, 104 }, 
	{ NOTE_D4, 104 }, 
	{ NOTE_D4, 104 }, 
	{ NOTE_D4, 104 }, 
	{ NOTE_D4, 104 }, 
	{ NOTE_D4, 104 }, 
	{ NOTE_D4, 104 }, 
	{ NOTE_D4, 104 }, 
	{ NOTE_D4, 104 }, 
	{ NOTE_D4, 104 }, 
	{ NOTE_D4, 104 }, 
	{ NOTE_D4, 104 }, 
	{ NOTE_D4, 104 }, 
	{ NOTE_D4, 104 }, 
	{ NOTE_D4, 104 }, 
	{ NOTE_D4, 104 }, 
	{ NOTE_G4, 104 }, 
	{ NOTE_G4, 104 }, 
	{ NOTE_G4, 104 }, 
	{ NOTE_G4, 104 }, 
	{ NOTE_G4, 104 }, 
	{ NOTE_G4, 104 }, 
	{ NOTE_G4, 104 }, 
	{ NOTE_G4, 104 }, 
	{ NOTE_G4, 104 }, 
	{ NOTE_G4, 104 }, 
	{ NOTE_G4, 104 }, 
	{ NOTE_G4, 104 }, 
	{ NOTE_G4, 104 }, 
	{ NOTE_G4, 104 }, 
	{ NOTE_G4, 104 }, 
	{ NOTE_G4, 109 }, 
	{ NOTE_G4, 104 }, 
	{ NOTE_G4, 104 }, 
	{ NOTE_G4, 104 }, 
	{ NOTE_G4, 104 }, 
	{ NOTE_G4, 104 }, 
	{ NOTE_G4, 104 }, 
	{ NOTE_G4, 104 }, 
	{ NOTE_G4, 104 }, 
	{ NOTE_G4, 104 }, 
	{ NOTE_G4, 104 }, 
	{ NOTE_G4, 104 }, 
	{ NOTE_G4, 104 }, 
	{ NOTE_G4, 104 }, 
	{ NOTE_G4, 104 }, 
	{ NOTE_G4, 104 }, 
	{ NOTE_G4, 104 }, 
	{ NOTE_F4, 104 }, 
	{ NOTE_F4, 104 }, 
	{ NOTE_F4, 104 }, 
	{ NOTE_F4, 104 }, 
	{ NOTE_F4, 104 }, 
	{ NOTE_F4, 104 }, 
	{ NOTE_F4, 104 }, 
	{ NOTE_F4, 104 }, 
	{ NOTE_F4, 104 }, 
	{ NOTE_F4, 104 }, 
	{ NOTE_F4, 104 }, 
	{ NOTE_F4, 104 }, 
	{ NOTE_F4, 104 }, 
	{ NOTE_F4, 104 }, 
	{ NOTE_F4, 104 }, 
	{ NOTE_F4, 109 }, 
	{ NOTE_F4, 104 }, 
	{ NOTE_F4, 104 }, 
	{ NOTE_F4, 104 }, 
	{ NOTE_F4, 104 }, 
	{ NOTE_F4, 104 }, 
	{ NOTE_F4, 104 }, 
	{ NOTE_F4, 104 }, 
	{ NOTE_F4, 104 }, 
	{ NOTE_F4, 104 }, 
	{ NOTE_F4, 104 }, 
	{ NOTE_F4, 104 }, 
	{ NOTE_F4, 104 }, 
	{ NOTE_F4, 104 }, 
	{ NOTE_F4, 104 }, 
	{ NOTE_F4, 104 }, 
	{ NOTE_F4, 104 }, 
	{ NOTE_DS4, 104 }, 
	{ NOTE_DS4, 104 }, 
	{ NOTE_DS4, 104 }, 
	{ NOTE_DS4, 104 }, 
	{ NOTE_DS4, 104 }, 
	{ NOTE_DS4, 104 }, 
	{ NOTE_DS4, 104 }, 
	{ NOTE_DS4, 104 }, 
	{ NOTE_DS4, 104 }, 
	{ NOTE_DS4, 104 }, 
	{ NOTE_DS4, 104 }, 
	{ NOTE_DS4, 104 }, 
	{ NOTE_DS4, 104 }, 
	{ NOTE_DS4, 104 }, 
	{ NOTE_DS4, 104 }, 
	{ NOTE_DS4, 109 }, 
	{ NOTE_CS4, 104 }, 
	{ NOTE_CS4, 104 }, 
	{ NOTE_CS4, 104 }, 
	{ NOTE_CS4, 104 }, 
	{ NOTE_CS4, 104 }, 
	{ NOTE_CS4, 104 }, 
	{ NOTE_CS4, 104 }, 
	{ NOTE_CS4, 104 }, 
	{ NOTE_CS4, 104 }, 
	{ NOTE_CS4, 104 }, 
	{ NOTE_CS4, 104 }, 
	{ NOTE_CS4, 104 }, 
	{ NOTE_CS4, 104 }, 
	{ NOTE_CS4, 104 }, 
	{ NOTE_CS4, 104 }, 
	{ NOTE_CS4, 104 }, 
	{ NOTE_C4, 104 }, 
	{ NOTE_C4, 104 }, 
	{ NOTE_C4, 104 }, 
	{ NOTE_C4, 104 }, 
	{ NOTE_C4, 104 }, 
	{ NOTE_C4, 104 }, 
	{ NOTE_C4, 104 }, 
	{ NOTE_C4, 104 }, 
	{ NOTE_C4, 104 }, 
	{ NOTE_C4, 104 }, 
	{ NOTE_C4, 104 }, 
	{ NOTE_C4, 104 }, 
	{ NOTE_C4, 104 }, 
	{ NOTE_C4, 104 }, 
	{ NOTE_C4, 104 }, 
	{ NOTE_C4, 109 }, 
	{ NOTE_AS3, 104 }, 
	{ NOTE_AS3, 104 }, 
	{ NOTE_AS3, 104 }, 
	{ NOTE_AS3, 104 }, 
	{ NOTE_AS3, 104 }, 
	{ NOTE_AS3, 104 }, 
	{ NOTE_AS3, 104 }, 
	{ NOTE_AS3, 104 }, 
	{ NOTE_AS3, 104 }, 
	{ NOTE_AS3, 104 }, 
	{ NOTE_AS3, 104 }, 
	{ NOTE_AS3, 104 }, 
	{ NOTE_AS3, 104 }, 
	{ NOTE_AS3, 104 }, 
	{ NOTE_AS3, 104 }, 
	{ NOTE_AS3, 104 }, 
	{ NOTE_GS3, 104 }, 
	{ NOTE_GS3, 104 }, 
	{ NOTE_GS3, 104 }, 
	{ NOTE_GS3, 104 }, 
	{ NOTE_GS3, 104 }, 
	{ NOTE_GS3, 104 }, 
	{ NOTE_GS3, 104 }, 
	{ NOTE_GS3, 104 }, 
	{ NOTE_GS3, 104 }, 
	{ NOTE_GS3, 104 }, 
	{ NOTE_GS3, 104 }, 
	{ NOTE_GS3, 104 }, 
	{ NOTE_GS3, 104 }, 
	{ NOTE_GS3, 104 }, 
	{ NOTE_GS3, 104 }, 
	{ NOTE_GS3, 109 }, 
	{ NOTE_GS3, 104 }, 
	{ NOTE_GS3, 104 }, 
	{ NOTE_GS3, 104 }, 
	{ NOTE_GS3, 104 }, 
	{ NOTE_GS3, 104 }, 
	{ NOTE_GS3, 104 }, 
	{ NOTE_GS3, 104 }, 
	{ NOTE_GS3, 104 }, 
	{ NOTE_GS3, 104 }, 
	{ NOTE_GS3, 104 }, 
	{ NOTE_GS3, 104 }, 
	{ NOTE_GS3, 104 }, 
	{ NOTE_GS3, 104 }, 
	{ NOTE_GS3, 104 }, 
	{ NOTE_GS3, 104 }, 
	{ NOTE_GS3, 104 }, 
	{ NOTE_F3, 104 }, 
	{ NOTE_F3, 104 }, 
	{ NOTE_F3, 104 }, 
	{ NOTE_F3, 104 }, 
	{ NOTE_F3, 104 }, 
	{ NOTE_F3, 104 }, 
	{ NOTE_F3, 104 }, 
	{ NOTE_F3, 104 }, 
	{ NOTE_F3, 104 }, 
	{ NOTE_F3, 104 }, 
	{ NOTE_F3, 104 }, 
	{ NOTE_F3, 104 }, 
	{ NOTE_F3, 104 }, 
	{ NOTE_F3, 104 }, 
	{ NOTE_F3, 104 }, 
	{ NOTE_F3, 109 }, 
	{ NOTE_E3, 104 }, 
	{ NOTE_E3, 104 }, 
	{ NOTE_E3, 104 }, 
	{ NOTE_E3, 104 }, 
	{ NOTE_E3, 104 }, 
	{ NOTE_E3, 104 }, 
	{ NOTE_E3, 104 }, 
	{ NOTE_E3, 104 }, 
	{ NOTE_F3, 104 }, 
	{ NOTE_F3, 104 }, 
	{ NOTE_F3, 104 }, 
	{ NOTE_F3, 104 }, 
	{ NOTE_F3, 104 }, 
	{ NOTE_F3, 104 }, 
	{ NOTE_F3, 104 }, 
	{ NOTE_F3, 104 }, 
	{ NOTE_G3, 104 }, 
	{ NOTE_G3, 104 }, 
	{ NOTE_G3, 104 }, 
	{ NOTE_G3, 104 }, 
	{ NOTE_G3, 104 }, 
	{ NOTE_G3, 104 }, 
	{ NOTE_G3, 104 }, 
	{ NOTE_G3, 104 }, 
	{ NOTE_GS3, 104 }, 
	{ NOTE_GS3, 104 }, 
	{ NOTE_GS3, 104 }, 
	{ NOTE_GS3, 104 }, 
	{ NOTE_GS3, 104 }, 
	{ NOTE_GS3, 104 }, 
	{ NOTE_GS3, 104 }, 
	{ NOTE_GS3, 109 }, 
	{ NOTE_AS3, 104 }, 
	{ NOTE_AS3, 104 }, 
	{ NOTE_AS3, 104 }, 
	{ NOTE_AS3, 104 }, 
	{ NOTE_AS3, 104 }, 
	{ NOTE_AS3, 104 }, 
	{ NOTE_AS3, 104 }, 
	{ NOTE_AS3, 104 }, 
	{ NOTE_GS3, 104 }, 
	{ NOTE_GS3, 104 }, 
	{ NOTE_GS3, 104 }, 
	{ NOTE_GS3, 104 }, 
	{ NOTE_GS3, 104 }, 
	{ NOTE_GS3, 104 }, 
	{ NOTE_GS3, 104 }, 
	{ NOTE_GS3, 104 }, 
	{ NOTE_G3, 104 }, 
	{ NOTE_G3, 104 }, 
	{ NOTE_G3, 104 }, 
	{ NOTE_G3, 104 }, 
	{ NOTE_G3, 104 }, 
	{ NOTE_G3, 104 }, 
	{ NOTE_G3, 104 }, 
	{ NOTE_G3, 104 }, 
	{ NOTE_F3, 104 }, 
	{ NOTE_F3, 104 }, 
	{ NOTE_F3, 104 }, 
	{ NOTE_F3, 104 }, 
	{ NOTE_F3, 104 }, 
	{ NOTE_F3, 104 }, 
	{ NOTE_F3, 104 }, 
	{ NOTE_F3, 109 }, 
	{ NOTE_C4, 208 }, 
	{ NOTE_G4, 104 }, 
	{ NOTE_G4, 104 }, 
	{ NOTE_G4, 104 }, 
	{ NOTE_G4, 104 }, 
	{ NOTE_G4, 104 }, 
	{ NOTE_G4, 104 }, 
	{ NOTE_G4, 208 }, 
	{ NOTE_G4, 208 }, 
	{ NOTE_G4, 208 }, 
	{ NOTE_G4, 208 }, 
	{ NOTE_GS4, 208 }, 
	{ NOTE_C4, 208 }, 
	{ NOTE_GS4, 208 }, 
	{ NOTE_C4, 208 }, 
	{ NOTE_GS4, 208 }, 
	{ NOTE_C4, 208 }, 
	{ NOTE_GS4, 208 }, 
	{ NOTE_C4, 213 }, 
	{ NOTE_CS4, 208 }, 
	{ NOTE_CS4, 104 }, 
	{ NOTE_CS4, 104 }, 
	{ NOTE_CS4, 104 }, 
	{ NOTE_CS4, 104 }, 
	{ NOTE_CS4, 104 }, 
	{ NOTE_CS4, 104 }, 
	{ NOTE_CS4, 208 }, 
	{ NOTE_CS4, 208 }, 
	{ NOTE_CS4, 208 }, 
	{ NOTE_CS4, 208 }, 
	{ NOTE_G4, 208 }, 
	{ NOTE_CS4, 208 }, 
	{ NOTE_G4, 208 }, 
	{ NOTE_CS4, 208 }, 
	{ NOTE_G4, 208 }, 
	{ NOTE_CS4, 208 }, 
	{ NOTE_G4, 208 }, 
	{ NOTE_CS4, 213 }, 
	{ NOTE_C4, 208 }, 
	{ NOTE_C4, 104 }, 
	{ NOTE_C4, 104 }, 
	{ NOTE_C4, 104 }, 
	{ NOTE_C4, 104 }, 
	{ NOTE_C4, 104 }, 
	{ NOTE_C4, 104 }, 
	{ NOTE_C4, 208 }, 
	{ NOTE_C4, 208 }, 
	{ NOTE_C4, 208 }, 
	{ NOTE_C4, 208 }, 
	{ NOTE_F4, 208 }, 
	{ NOTE_C4, 208 }, 
	{ NOTE_F4, 208 }, 
	{ NOTE_C4, 208 }, 
	{ NOTE_F4, 208 }, 
	{ NOTE_C4, 208 }, 
	{ NOTE_F4, 208 }, 
	{ NOTE_C4, 213 }, 
	{ NOTE_AS3, 208 }, 
	{ NOTE_AS3, 104 }, 
	{ NOTE_AS3, 104 }, 
	{ NOTE_AS3, 104 }, 
	{ NOTE_AS3, 104 }, 
	{ NOTE_AS3, 104 }, 
	{ NOTE_AS3, 104 }, 
	{ NOTE_AS3, 208 }, 
	{ NOTE_AS3, 208 }, 
	{ NOTE_AS3, 208 }, 
	{ NOTE_AS3, 208 }, 
	{ NOTE_E3, 104 }, 
	{ NOTE_G3, 104 }, 
	{ NOTE_AS3, 104 }, 
	{ NOTE_G3, 104 }, 
	{ NOTE_E3, 104 }, 
	{ NOTE_G3, 104 }, 
	{ NOTE_AS3, 104 }, 
	{ NOTE_G3, 104 }, 
	{ NOTE_E3, 104 }, 
	{ NOTE_G3, 104 }, 
	{ NOTE_AS3, 104 }, 
	{ NOTE_G3, 104 }, 
	{ NOTE_E3, 104 }, 
	{ NOTE_G3, 104 }, 
	{ NOTE_AS3, 104 }, 
	{ NOTE_G3, 109 }, 
	{ NOTE_GS3, 208 }, 
	{ NOTE_GS3, 104 }, 
	{ NOTE_GS3, 104 }, 
	{ NOTE_GS3, 104 }, 
	{ NOTE_GS3, 104 }, 
	{ NOTE_GS3, 104 }, 
	{ NOTE_GS3, 104 }, 
	{ NOTE_GS3, 208 }, 
	{ NOTE_GS3, 208 }, 
	{ NOTE_GS3, 208 }, 
	{ NOTE_GS3, 208 }, 
	{ NOTE_G3, 208 }, 
	{ NOTE_G3, 104 }, 
	{ NOTE_G3, 104 }, 
	{ NOTE_G3, 104 }, 
	{ NOTE_G3, 104 }, 
	{ NOTE_G3, 104 }, 
	{ NOTE_G3, 104 }, 
	{ NOTE_G3, 208 }, 
	{ NOTE_G3, 208 }, 
	{ NOTE_G3, 208 }, 
	{ NOTE_G3, 213 }, 
	{ NOTE_G3, 208 }, 
	{ NOTE_G3, 104 }, 
	{ NOTE_G3, 104 }, 
	{ NOTE_G3, 104 }, 
	{ NOTE_G3, 104 }, 
	{ NOTE_G3, 104 }, 
	{ NOTE_G3, 104 }, 
	{ NOTE_G3, 208 }, 
	{ NOTE_G3, 208 }, 
	{ NOTE_G3, 208 }, 
	{ NOTE_G3, 208 }, 
	{ NOTE_F3, 208 }, 
	{ NOTE_GS3, 104 }, 
	{ NOTE_GS3, 104 }, 
	{ NOTE_GS3, 104 }, 
	{ NOTE_GS3, 104 }, 
	{ NOTE_GS3, 104 }, 
	{ NOTE_GS3, 104 }, 
	{ NOTE_GS3, 208 }, 
	{ NOTE_GS3, 208 }, 
	{ NOTE_GS3, 208 }, 
	{ NOTE_GS3, 213 }, 
	{ NOTE_G3, 208 }, 
	{ NOTE_G3, 104 }, 
	{ NOTE_G3, 104 }, 
	{ NOTE_G3, 104 }, 
	{ NOTE_G3, 104 }, 
	{ NOTE_G3, 104 }, 
	{ NOTE_G3, 104 }, 
	{ NOTE_G3, 208 }, 
	{ NOTE_G3, 208 }, 
	{ NOTE_G3, 208 }, 
	{ NOTE_G3, 208 }, 
	{ NOTE_G3, 208 }, 
	{ NOTE_G3, 104 }, 
	{ NOTE_G3, 104 }, 
	{ NOTE_G3, 104 }, 
	{ NOTE_G3, 104 }, 
	{ NOTE_G3, 104 }, 
	{ NOTE_G3, 104 }, 
	{ NOTE_G3, 208 }, 
	{ NOTE_G3, 208 }, 
	{ NOTE_G3, 208 }, 
	{ NOTE_G3, 213 }, 
	{ NOTE_F3, 3333 }, 
};
const uint16_t NUM_OF_NOTES1 = sizeof(melody1)/sizeof(melody1[0]);

const Note melody2[] PROGMEM = {
	{ NOTE_REST, 3333 }, 
	{ NOTE_REST, 3333 }, 
	{ NOTE_REST, 3333 }, 
	{ NOTE_AS5, 417 }, 
	{ NOTE_AS5, 417 }, 
	{ NOTE_AS5, 417 }, 
	{ NOTE_AS5, 417 }, 
	{ NOTE_AS5, 417 }, 
	{ NOTE_AS5, 417 }, 
	{ NOTE_AS5, 417 }, 
	{ NOTE_AS5, 414 }, 
	{ NOTE_AS5, 417 }, 
	{ NOTE_AS5, 417 }, 
	{ NOTE_AS5, 417 }, 
	{ NOTE_AS5, 417 }, 
	{ NOTE_AS5, 417 }, 
	{ NOTE_AS5, 417 }, 
	{ NOTE_AS5, 417 }, 
	{ NOTE_AS5, 414 }, 
	{ NOTE_GS5, 417 }, 
	{ NOTE_GS5, 417 }, 
	{ NOTE_GS5, 417 }, 
	{ NOTE_GS5, 417 }, 
	{ NOTE_GS5, 417 }, 
	{ NOTE_GS5, 417 }, 
	{ NOTE_GS5, 417 }, 
	{ NOTE_GS5, 414 }, 
	{ NOTE_CS5, 417 }, 
	{ NOTE_CS5, 417 }, 
	{ NOTE_CS5, 417 }, 
	{ NOTE_CS5, 417 }, 
	{ NOTE_CS5, 417 }, 
	{ NOTE_CS5, 417 }, 
	{ NOTE_CS5, 417 }, 
	{ NOTE_CS5, 414 }, 
	{ NOTE_DS5, 417 }, 
	{ NOTE_DS5, 417 }, 
	{ NOTE_DS5, 417 }, 
	{ NOTE_DS5, 417 }, 
	{ NOTE_DS5, 417 }, 
	{ NOTE_DS5, 417 }, 
	{ NOTE_DS5, 417 }, 
	{ NOTE_DS5, 414 }, 
	{ NOTE_D5, 417 }, 
	{ NOTE_D5, 417 }, 
	{ NOTE_D5, 417 }, 
	{ NOTE_D5, 417 }, 
	{ NOTE_D5, 417 }, 
	{ NOTE_D5, 417 }, 
	{ NOTE_D5, 417 }, 
	{ NOTE_D5, 414 }, 
	{ NOTE_DS5, 417 }, 
	{ NOTE_DS5, 417 }, 
	{ NOTE_DS5, 417 }, 
	{ NOTE_DS5, 417 }, 
	{ NOTE_DS5, 417 }, 
	{ NOTE_DS5, 417 }, 
	{ NOTE_DS5, 417 }, 
	{ NOTE_DS5, 414 }, 
	{ NOTE_D5, 417 }, 
	{ NOTE_D5, 417 }, 
	{ NOTE_D5, 417 }, 
	{ NOTE_D5, 417 }, 
	{ NOTE_D5, 417 }, 
	{ NOTE_D5, 417 }, 
	{ NOTE_D5, 417 }, 
	{ NOTE_D5, 414 }, 
	{ NOTE_C5, 833 }, 
	{ NOTE_REST, 833 }, 
	{ NOTE_REST, 1667 }, 
	{ NOTE_REST, 1667 }, 
	{ NOTE_G4, 417 }, 
	{ NOTE_G4, 417 }, 
	{ NOTE_G4, 417 }, 
	{ NOTE_G4, 415 }, 
	{ NOTE_G4, 417 }, 
	{ NOTE_G4, 417 }, 
	{ NOTE_G4, 417 }, 
	{ NOTE_G4, 417 }, 
	{ NOTE_G4, 833 }, 
	{ NOTE_REST, 832 }, 
	{ NOTE_REST, 3333 }, 
	{ NOTE_G4, 417 }, 
	{ NOTE_G4, 417 }, 
	{ NOTE_G4, 417 }, 
	{ NOTE_G4, 417 }, 
	{ NOTE_G4, 417 }, 
	{ NOTE_G4, 417 }, 
	{ NOTE_G4, 417 }, 
	{ NOTE_G4, 414 }, 
	{ NOTE_G4, 833 }, 
	{ NOTE_REST, 833 }, 
	{ NOTE_REST, 1667 }, 
	{ NOTE_REST, 3333 }, 
	{ NOTE_CS5, 417 }, 
	{ NOTE_CS5, 417 }, 
	{ NOTE_CS5, 417 }, 
	{ NOTE_CS5, 417 }, 
	{ NOTE_E5, 417 }, 
	{ NOTE_E5, 417 }, 
	{ NOTE_E5, 417 }, 
	{ NOTE_E5, 414 }, 
	{ NOTE_F5, 208 }, 
	{ NOTE_F4, 208 }, 
	{ NOTE_F4, 208 }, 
	{ NOTE_F4, 208 }, 
	{ NOTE_F4, 208 }, 
	{ NOTE_F4, 208 }, 
	{ NOTE_F4, 208 }, 
	{ NOTE_F4, 208 }, 
	{ NOTE_F4, 208 }, 
	{ NOTE_F4, 208 }, 
	{ NOTE_F4, 208 }, 
	{ NOTE_F4, 208 }, 
	{ NOTE_F4, 208 }, 
	{ NOTE_F4, 208 }, 
	{ NOTE_F4, 208 }, 
	{ NOTE_F4, 213 }, 
	{ NOTE_F4, 208 }, 
	{ NOTE_F4, 208 }, 
	{ NOTE_F4, 208 }, 
	{ NOTE_F4, 208 }, 
	{ NOTE_F4, 208 }, 
	{ NOTE_F4, 208 }, 
	{ NOTE_F4, 208 }, 
	{ NOTE_F4, 208 }, 
	{ NOTE_F4, 208 }, 
	{ NOTE_F4, 208 }, 
	{ NOTE_F4, 208 }, 
	{ NOTE_F4, 208 }, 
	{ NOTE_F4, 208 }, 
	{ NOTE_F4, 208 }, 
	{ NOTE_F4, 208 }, 
	{ NOTE_F4, 213 }, 
	{ NOTE_F4, 208 }, 
	{ NOTE_F4, 208 }, 
	{ NOTE_F4, 208 }, 
	{ NOTE_F4, 208 }, 
	{ NOTE_F4, 208 }, 
	{ NOTE_F4, 208 }, 
	{ NOTE_F4, 208 }, 
	{ NOTE_F4, 208 }, 
	{ NOTE_E4, 208 }, 
	{ NOTE_G5, 104 }, 
	{ NOTE_G5, 104 }, 
	{ NOTE_G5, 104 }, 
	{ NOTE_G5, 104 }, 
	{ NOTE_G5, 104 }, 
	{ NOTE_G5, 104 }, 
	{ NOTE_G5, 208 }, 
	{ NOTE_G5, 208 }, 
	{ NOTE_G5, 208 }, 
	{ NOTE_G5, 213 }, 
	{ NOTE_GS5, 208 }, 
	{ NOTE_C5, 208 }, 
	{ NOTE_GS5, 208 }, 
	{ NOTE_C5, 208 }, 
	{ NOTE_GS5, 208 }, 
	{ NOTE_C5, 208 }, 
	{ NOTE_GS5, 208 }, 
	{ NOTE_C5, 208 }, 
	{ NOTE_CS5, 208 }, 
	{ NOTE_CS5, 104 }, 
	{ NOTE_CS5, 104 }, 
	{ NOTE_CS5, 104 }, 
	{ NOTE_CS5, 104 }, 
	{ NOTE_CS5, 104 }, 
	{ NOTE_CS5, 104 }, 
	{ NOTE_CS5, 208 }, 
	{ NOTE_CS5, 208 }, 
	{ NOTE_CS5, 208 }, 
	{ NOTE_CS5, 213 }, 
	{ NOTE_G5, 208 }, 
	{ NOTE_CS5, 208 }, 
	{ NOTE_G5, 208 }, 
	{ NOTE_CS5, 208 }, 
	{ NOTE_G5, 208 }, 
	{ NOTE_CS5, 208 }, 
	{ NOTE_G5, 208 }, 
	{ NOTE_CS5, 208 }, 
	{ NOTE_C5, 208 }, 
	{ NOTE_C5, 104 }, 
	{ NOTE_C5, 104 }, 
	{ NOTE_C5, 104 }, 
	{ NOTE_C5, 104 }, 
	{ NOTE_C5, 104 }, 
	{ NOTE_C5, 104 }, 
	{ NOTE_C5, 208 }, 
	{ NOTE_C5, 208 }, 
	{ NOTE_C5, 208 }, 
	{ NOTE_C5, 213 }, 
	{ NOTE_F5, 208 }, 
	{ NOTE_C5, 208 }, 
	{ NOTE_F5, 208 }, 
	{ NOTE_C5, 208 }, 
	{ NOTE_F5, 208 }, 
	{ NOTE_C5, 208 }, 
	{ NOTE_F5, 208 }, 
	{ NOTE_C5, 208 }, 
	{ NOTE_AS4, 208 }, 
	{ NOTE_AS4, 104 }, 
	{ NOTE_AS4, 104 }, 
	{ NOTE_AS4, 104 }, 
	{ NOTE_AS4, 104 }, 
	{ NOTE_AS4, 104 }, 
	{ NOTE_AS4, 104 }, 
	{ NOTE_AS4, 208 }, 
	{ NOTE_AS4, 208 }, 
	{ NOTE_AS4, 208 }, 
	{ NOTE_AS4, 213 }, 
	{ NOTE_E5, 208 }, 
	{ NOTE_AS4, 208 }, 
	{ NOTE_E5, 208 }, 
	{ NOTE_AS4, 208 }, 
	{ NOTE_E5, 208 }, 
	{ NOTE_AS4, 208 }, 
	{ NOTE_E5, 208 }, 
	{ NOTE_AS4, 208 }, 
	{ NOTE_F5, 833 }, 
	{ NOTE_REST, 836 }, 
	{ NOTE_REST, 3333 }, 
	{ NOTE_REST, 3333 }, 
	{ NOTE_REST, 3333 }, 
	{ NOTE_REST, 3333 }, 
	{ NOTE_REST, 3333 }, 
	{ NOTE_REST, 3333 }, 
	{ NOTE_REST, 1667 }, 
	{ NOTE_E4, 104 }, 
	{ NOTE_E4, 104 }, 
	{ NOTE_E4, 104 }, 
	{ NOTE_E4, 104 }, 
	{ NOTE_E4, 104 }, 
	{ NOTE_E4, 104 }, 
	{ NOTE_E4, 104 }, 
	{ NOTE_E4, 104 }, 
	{ NOTE_E4, 104 }, 
	{ NOTE_E4, 104 }, 
	{ NOTE_E4, 104 }, 
	{ NOTE_E4, 104 }, 
	{ NOTE_E4, 104 }, 
	{ NOTE_E4, 104 }, 
	{ NOTE_E4, 104 }, 
	{ NOTE_E4, 106 }, 
	{ NOTE_F4, 833 }, 
	{ NOTE_REST, 833 }, 
	{ NOTE_A5, 104 }, 
	{ NOTE_A5, 104 }, 
	{ NOTE_A5, 104 }, 
	{ NOTE_A5, 104 }, 
	{ NOTE_A5, 104 }, 
	{ NOTE_A5, 104 }, 
	{ NOTE_A5, 104 }, 
	{ NOTE_A5, 104 }, 
	{ NOTE_A5, 104 }, 
	{ NOTE_A5, 104 }, 
	{ NOTE_A5, 104 }, 
	{ NOTE_A5, 104 }, 
	{ NOTE_A5, 104 }, 
	{ NOTE_A5, 104 }, 
	{ NOTE_A5, 104 }, 
	{ NOTE_A5, 107 }, 
	{ NOTE_AS5, 833 }, 
	{ NOTE_REST, 833 }, 
	{ NOTE_B5, 104 }, 
	{ NOTE_B5, 104 }, 
	{ NOTE_B5, 104 }, 
	{ NOTE_B5, 104 }, 
	{ NOTE_B5, 104 }, 
	{ NOTE_B5, 104 }, 
	{ NOTE_B5, 104 }, 
	{ NOTE_B5, 104 }, 
	{ NOTE_B5, 104 }, 
	{ NOTE_B5, 104 }, 
	{ NOTE_B5, 104 }, 
	{ NOTE_B5, 104 }, 
	{ NOTE_B5, 104 }, 
	{ NOTE_B5, 104 }, 
	{ NOTE_B5, 104 }, 
	{ NOTE_B5, 107 }, 
	{ NOTE_C6, 833 }, 
	{ NOTE_REST, 833 }, 
	{ NOTE_D5, 104 }, 
	{ NOTE_D5, 104 }, 
	{ NOTE_D5, 104 }, 
	{ NOTE_D5, 104 }, 
	{ NOTE_D5, 104 }, 
	{ NOTE_D5, 104 }, 
	{ NOTE_D5, 104 }, 
	{ NOTE_D5, 104 }, 
	{ NOTE_D5, 104 }, 
	{ NOTE_D5, 104 }, 
	{ NOTE_D5, 104 }, 
	{ NOTE_D5, 104 }, 
	{ NOTE_D5, 104 }, 
	{ NOTE_D5, 104 }, 
	{ NOTE_D5, 104 }, 
	{ NOTE_D5, 107 }, 
	{ NOTE_DS5, 833 }, 
	{ NOTE_REST, 833 }, 
	{ NOTE_DS5, 104 }, 
	{ NOTE_DS5, 104 }, 
	{ NOTE_DS5, 104 }, 
	{ NOTE_DS5, 104 }, 
	{ NOTE_DS5, 104 }, 
	{ NOTE_DS5, 104 }, 
	{ NOTE_DS5, 104 }, 
	{ NOTE_DS5, 104 }, 
	{ NOTE_DS5, 104 }, 
	{ NOTE_DS5, 104 }, 
	{ NOTE_DS5, 104 }, 
	{ NOTE_DS5, 104 }, 
	{ NOTE_DS5, 104 }, 
	{ NOTE_DS5, 104 }, 
	{ NOTE_DS5, 104 }, 
	{ NOTE_DS5, 107 }, 
	{ NOTE_D5, 104 }, 
	{ NOTE_D5, 104 }, 
	{ NOTE_D5, 104 }, 
	{ NOTE_D5, 104 }, 
	{ NOTE_D5, 104 }, 
	{ NOTE_D5, 104 }, 
	{ NOTE_D5, 104 }, 
	{ NOTE_D5, 104 }, 
	{ NOTE_D5, 104 }, 
	{ NOTE_D5, 104 }, 
	{ NOTE_D5, 104 }, 
	{ NOTE_D5, 104 }, 
	{ NOTE_D5, 104 }, 
	{ NOTE_D5, 104 }, 
	{ NOTE_D5, 104 }, 
	{ NOTE_D5, 104 }, 
	{ NOTE_DS5, 833 }, 
	{ NOTE_REST, 836 }, 
	{ NOTE_REST, 3333 }, 
	{ NOTE_AS4, 417 }, 
	{ NOTE_AS4, 417 }, 
	{ NOTE_AS4, 417 }, 
	{ NOTE_AS4, 417 }, 
	{ NOTE_AS4, 417 }, 
	{ NOTE_AS4, 417 }, 
	{ NOTE_AS4, 417 }, 
	{ NOTE_AS4, 414 }, 
	{ NOTE_AS4, 417 }, 
	{ NOTE_AS4, 417 }, 
	{ NOTE_AS4, 417 }, 
	{ NOTE_AS4, 417 }, 
	{ NOTE_CS5, 208 }, 
	{ NOTE_CS5, 208 }, 
	{ NOTE_CS5, 208 }, 
	{ NOTE_CS5, 208 }, 
	{ NOTE_CS5, 208 }, 
	{ NOTE_CS5, 208 }, 
	{ NOTE_CS5, 208 }, 
	{ NOTE_CS5, 209 }, 
	{ NOTE_C5, 417 }, 
	{ NOTE_C5, 417 }, 
	{ NOTE_C5, 417 }, 
	{ NOTE_C5, 417 }, 
	{ NOTE_DS5, 208 }, 
	{ NOTE_DS5, 208 }, 
	{ NOTE_DS5, 208 }, 
	{ NOTE_DS5, 208 }, 
	{ NOTE_DS5, 208 }, 
	{ NOTE_DS5, 208 }, 
	{ NOTE_DS5, 208 }, 
	{ NOTE_DS5, 209 }, 
	{ NOTE_D5, 417 }, 
	{ NOTE_D5, 417 }, 
	{ NOTE_D5, 417 }, 
	{ NOTE_D5, 417 }, 
	{ NOTE_GS5, 208 }, 
	{ NOTE_GS5, 208 }, 
	{ NOTE_GS5, 208 }, 
	{ NOTE_GS5, 208 }, 
	{ NOTE_GS5, 208 }, 
	{ NOTE_GS5, 208 }, 
	{ NOTE_GS5, 208 }, 
	{ NOTE_GS5, 209 }, 
	{ NOTE_G5, 833 }, 
	{ NOTE_REST, 833 }, 
	{ NOTE_REST, 1667 }, 
	{ NOTE_REST, 3333 }, 
	{ NOTE_REST, 3333 }, 
	{ NOTE_C6, 208 }, 
	{ NOTE_C6, 208 }, 
	{ NOTE_C6, 208 }, 
	{ NOTE_C6, 208 }, 
	{ NOTE_C6, 208 }, 
	{ NOTE_C6, 208 }, 
	{ NOTE_C6, 208 }, 
	{ NOTE_C6, 208 }, 
	{ NOTE_C6, 208 }, 
	{ NOTE_C6, 208 }, 
	{ NOTE_C6, 208 }, 
	{ NOTE_C6, 208 }, 
	{ NOTE_C6, 208 }, 
	{ NOTE_C6, 208 }, 
	{ NOTE_C6, 208 }, 
	{ NOTE_C6, 213 }, 
	{ NOTE_AS5, 208 }, 
	{ NOTE_AS5, 208 }, 
	{ NOTE_AS5, 208 }, 
	{ NOTE_AS5, 208 }, 
	{ NOTE_AS5, 208 }, 
	{ NOTE_AS5, 208 }, 
	{ NOTE_AS5, 208 }, 
	{ NOTE_AS5, 208 }, 
	{ NOTE_AS5, 208 }, 
	{ NOTE_AS5, 208 }, 
	{ NOTE_AS5, 208 }, 
	{ NOTE_AS5, 208 }, 
	{ NOTE_AS5, 208 }, 
	{ NOTE_AS5, 208 }, 
	{ NOTE_AS5, 208 }, 
	{ NOTE_AS5, 213 }, 
	{ NOTE_GS5, 208 }, 
	{ NOTE_GS5, 208 }, 
	{ NOTE_GS5, 208 }, 
	{ NOTE_GS5, 208 }, 
	{ NOTE_GS5, 208 }, 
	{ NOTE_GS5, 208 }, 
	{ NOTE_GS5, 208 }, 
	{ NOTE_GS5, 208 }, 
	{ NOTE_GS5, 208 }, 
	{ NOTE_GS5, 208 }, 
	{ NOTE_GS5, 208 }, 
	{ NOTE_GS5, 208 }, 
	{ NOTE_GS5, 208 }, 
	{ NOTE_GS5, 208 }, 
	{ NOTE_GS5, 208 }, 
	{ NOTE_GS5, 213 }, 
	{ NOTE_G5, 208 }, 
	{ NOTE_G5, 208 }, 
	{ NOTE_G5, 208 }, 
	{ NOTE_G5, 208 }, 
	{ NOTE_G5, 208 }, 
	{ NOTE_G5, 208 }, 
	{ NOTE_G5, 208 }, 
	{ NOTE_G5, 208 }, 
	{ NOTE_C6, 208 }, 
	{ NOTE_C6, 208 }, 
	{ NOTE_C6, 208 }, 
	{ NOTE_C6, 208 }, 
	{ NOTE_C6, 208 }, 
	{ NOTE_C6, 208 }, 
	{ NOTE_C6, 208 }, 
	{ NOTE_C6, 213 }, 
	{ NOTE_C6, 208 }, 
	{ NOTE_C6, 208 }, 
	{ NOTE_C6, 208 }, 
	{ NOTE_C6, 208 }, 
	{ NOTE_AS5, 208 }, 
	{ NOTE_AS5, 208 }, 
	{ NOTE_AS5, 208 }, 
	{ NOTE_AS5, 208 }, 
	{ NOTE_AS5, 208 }, 
	{ NOTE_AS5, 208 }, 
	{ NOTE_AS5, 208 }, 
	{ NOTE_AS5, 208 }, 
	{ NOTE_GS5, 208 }, 
	{ NOTE_GS5, 208 }, 
	{ NOTE_GS5, 208 }, 
	{ NOTE_GS5, 213 }, 
	{ NOTE_GS5, 208 }, 
	{ NOTE_GS5, 208 }, 
	{ NOTE_GS5, 208 }, 
	{ NOTE_GS5, 208 }, 
	{ NOTE_G5, 208 }, 
	{ NOTE_G5, 208 }, 
	{ NOTE_G5, 208 }, 
	{ NOTE_G5, 208 }, 
	{ NOTE_G5, 208 }, 
	{ NOTE_G5, 208 }, 
	{ NOTE_G5, 208 }, 
	{ NOTE_G5, 208 }, 
	{ NOTE_F5, 208 }, 
	{ NOTE_F5, 208 }, 
	{ NOTE_F5, 208 }, 
	{ NOTE_F5, 213 }, 
	{ NOTE_F5, 208 }, 
	{ NOTE_F5, 208 }, 
	{ NOTE_F5, 208 }, 
	{ NOTE_F5, 208 }, 
	{ NOTE_DS5, 208 }, 
	{ NOTE_DS5, 208 }, 
	{ NOTE_DS5, 208 }, 
	{ NOTE_DS5, 208 }, 
	{ NOTE_DS5, 208 }, 
	{ NOTE_DS5, 208 }, 
	{ NOTE_DS5, 208 }, 
	{ NOTE_DS5, 208 }, 
	{ NOTE_CS5, 208 }, 
	{ NOTE_CS5, 208 }, 
	{ NOTE_CS5, 208 }, 
	{ NOTE_CS5, 213 }, 
	{ NOTE_E5, 208 }, 
	{ NOTE_E5, 208 }, 
	{ NOTE_E5, 208 }, 
	{ NOTE_E5, 208 }, 
	{ NOTE_F5, 208 }, 
	{ NOTE_F5, 208 }, 
	{ NOTE_F5, 208 }, 
	{ NOTE_F5, 208 }, 
	{ NOTE_G5, 208 }, 
	{ NOTE_G5, 208 }, 
	{ NOTE_G5, 208 }, 
	{ NOTE_G5, 208 }, 
	{ NOTE_GS5, 208 }, 
	{ NOTE_GS5, 208 }, 
	{ NOTE_GS5, 208 }, 
	{ NOTE_GS5, 213 }, 
	{ NOTE_AS5, 208 }, 
	{ NOTE_AS5, 208 }, 
	{ NOTE_AS5, 208 }, 
	{ NOTE_AS5, 208 }, 
	{ NOTE_GS5, 208 }, 
	{ NOTE_GS5, 208 }, 
	{ NOTE_GS5, 208 }, 
	{ NOTE_GS5, 208 }, 
	{ NOTE_G5, 208 }, 
	{ NOTE_G5, 208 }, 
	{ NOTE_G5, 208 }, 
	{ NOTE_G5, 208 }, 
	{ NOTE_F5, 208 }, 
	{ NOTE_F5, 208 }, 
	{ NOTE_F5, 208 }, 
	{ NOTE_F5, 213 }, 
	{ NOTE_E5, 208 }, 
	{ NOTE_G5, 104 }, 
	{ NOTE_G5, 104 }, 
	{ NOTE_G5, 104 }, 
	{ NOTE_G5, 104 }, 
	{ NOTE_G5, 104 }, 
	{ NOTE_G5, 104 }, 
	{ NOTE_G5, 208 }, 
	{ NOTE_G5, 208 }, 
	{ NOTE_G5, 208 }, 
	{ NOTE_G5, 208 }, 
	{ NOTE_GS5, 208 }, 
	{ NOTE_C5, 208 }, 
	{ NOTE_GS5, 208 }, 
	{ NOTE_C5, 208 }, 
	{ NOTE_GS5, 208 }, 
	{ NOTE_C5, 208 }, 
	{ NOTE_GS5, 208 }, 
	{ NOTE_C5, 213 }, 
	{ NOTE_CS5, 208 }, 
	{ NOTE_CS5, 104 }, 
	{ NOTE_CS5, 104 }, 
	{ NOTE_CS5, 104 }, 
	{ NOTE_CS5, 104 }, 
	{ NOTE_CS5, 104 }, 
	{ NOTE_CS5, 104 }, 
	{ NOTE_CS5, 208 }, 
	{ NOTE_CS5, 208 }, 
	{ NOTE_CS5, 208 }, 
	{ NOTE_CS5, 208 }, 
	{ NOTE_G5, 208 }, 
	{ NOTE_CS5, 208 }, 
	{ NOTE_G5, 208 }, 
	{ NOTE_CS5, 208 }, 
	{ NOTE_G5, 208 }, 
	{ NOTE_CS5, 208 }, 
	{ NOTE_G5, 208 }, 
	{ NOTE_CS5, 213 }, 
	{ NOTE_C5, 208 }, 
	{ NOTE_C5, 104 }, 
	{ NOTE_C5, 104 }, 
	{ NOTE_C5, 104 }, 
	{ NOTE_C5, 104 }, 
	{ NOTE_C5, 104 }, 
	{ NOTE_C5, 104 }, 
	{ NOTE_C5, 208 }, 
	{ NOTE_C5, 208 }, 
	{ NOTE_C5, 208 }, 
	{ NOTE_C5, 208 }, 
	{ NOTE_F5, 208 }, 
	{ NOTE_C5, 208 }, 
	{ NOTE_F5, 208 }, 
	{ NOTE_C5, 208 }, 
	{ NOTE_F5, 208 }, 
	{ NOTE_C5, 208 }, 
	{ NOTE_F5, 208 }, 
	{ NOTE_C5, 213 }, 
	{ NOTE_AS4, 208 }, 
	{ NOTE_AS4, 104 }, 
	{ NOTE_AS4, 104 }, 
	{ NOTE_AS4, 104 }, 
	{ NOTE_AS4, 104 }, 
	{ NOTE_AS4, 104 }, 
	{ NOTE_AS4, 104 }, 
	{ NOTE_AS4, 208 }, 
	{ NOTE_AS4, 208 }, 
	{ NOTE_AS4, 208 }, 
	{ NOTE_AS4, 208 }, 
	{ NOTE_E5, 104 }, 
	{ NOTE_G5, 104 }, 
	{ NOTE_AS5, 104 }, 
	{ NOTE_G5, 104 }, 
	{ NOTE_E5, 104 }, 
	{ NOTE_G5, 104 }, 
	{ NOTE_AS5, 104 }, 
	{ NOTE_G5, 104 }, 
	{ NOTE_E5, 104 }, 
	{ NOTE_G5, 104 }, 
	{ NOTE_AS5, 104 }, 
	{ NOTE_G5, 104 }, 
	{ NOTE_E5, 104 }, 
	{ NOTE_G5, 104 }, 
	{ NOTE_AS5, 104 }, 
	{ NOTE_G5, 109 }, 
	{ NOTE_GS5, 208 }, 
	{ NOTE_GS5, 104 }, 
	{ NOTE_GS5, 104 }, 
	{ NOTE_GS5, 104 }, 
	{ NOTE_GS5, 104 }, 
	{ NOTE_GS5, 104 }, 
	{ NOTE_GS5, 104 }, 
	{ NOTE_GS5, 208 }, 
	{ NOTE_GS5, 208 }, 
	{ NOTE_GS5, 208 }, 
	{ NOTE_GS5, 208 }, 
	{ NOTE_G5, 208 }, 
	{ NOTE_G5, 104 }, 
	{ NOTE_G5, 104 }, 
	{ NOTE_G5, 104 }, 
	{ NOTE_G5, 104 }, 
	{ NOTE_G5, 104 }, 
	{ NOTE_G5, 104 }, 
	{ NOTE_G5, 208 }, 
	{ NOTE_G5, 208 }, 
	{ NOTE_G5, 208 }, 
	{ NOTE_G5, 213 }, 
	{ NOTE_G5, 208 }, 
	{ NOTE_G5, 104 }, 
	{ NOTE_G5, 104 }, 
	{ NOTE_G5, 104 }, 
	{ NOTE_G5, 104 }, 
	{ NOTE_G5, 104 }, 
	{ NOTE_G5, 104 }, 
	{ NOTE_G5, 208 }, 
	{ NOTE_G5, 208 }, 
	{ NOTE_G5, 208 }, 
	{ NOTE_G5, 208 }, 
	{ NOTE_F5, 208 }, 
	{ NOTE_GS4, 104 }, 
	{ NOTE_GS4, 104 }, 
	{ NOTE_GS4, 104 }, 
	{ NOTE_GS4, 104 }, 
	{ NOTE_GS4, 104 }, 
	{ NOTE_GS4, 104 }, 
	{ NOTE_GS4, 208 }, 
	{ NOTE_GS4, 208 }, 
	{ NOTE_GS4, 208 }, 
	{ NOTE_GS4, 213 }, 
	{ NOTE_G4, 208 }, 
	{ NOTE_G4, 104 }, 
	{ NOTE_G4, 104 }, 
	{ NOTE_G4, 104 }, 
	{ NOTE_G4, 104 }, 
	{ NOTE_G4, 104 }, 
	{ NOTE_G4, 104 }, 
	{ NOTE_G4, 208 }, 
	{ NOTE_G4, 208 }, 
	{ NOTE_G4, 208 }, 
	{ NOTE_G4, 208 }, 
	{ NOTE_G4, 208 }, 
	{ NOTE_G4, 104 }, 
	{ NOTE_G4, 104 }, 
	{ NOTE_G4, 104 }, 
	{ NOTE_G4, 104 }, 
	{ NOTE_G4, 104 }, 
	{ NOTE_G4, 104 }, 
	{ NOTE_G4, 208 }, 
	{ NOTE_G4, 208 }, 
	{ NOTE_G4, 208 }, 
	{ NOTE_G4, 213 }, 
	{ NOTE_F4, 3333 }, 
};
const uint16_t NUM_OF_NOTES2 = sizeof(melody2)/sizeof(melody2[0]);

const Note melody3[] PROGMEM = {
	{ NOTE_REST, 3333 }, 
	{ NOTE_REST, 3333 }, 
	{ NOTE_CS5, 417 }, 
	{ NOTE_CS5, 417 }, 
	{ NOTE_CS5, 417 }, 
	{ NOTE_CS5, 417 }, 
	{ NOTE_CS5, 417 }, 
	{ NOTE_CS5, 417 }, 
	{ NOTE_CS5, 417 }, 
	{ NOTE_CS5, 414 }, 
	{ NOTE_CS5, 417 }, 
	{ NOTE_CS5, 417 }, 
	{ NOTE_CS5, 417 }, 
	{ NOTE_CS5, 417 }, 
	{ NOTE_CS5, 417 }, 
	{ NOTE_CS5, 417 }, 
	{ NOTE_CS5, 417 }, 
	{ NOTE_CS5, 414 }, 
	{ NOTE_CS5, 417 }, 
	{ NOTE_CS5, 417 }, 
	{ NOTE_CS5, 417 }, 
	{ NOTE_CS5, 417 }, 
	{ NOTE_CS5, 417 }, 
	{ NOTE_CS5, 417 }, 
	{ NOTE_CS5, 417 }, 
	{ NOTE_CS5, 414 }, 
	{ NOTE_C5, 417 }, 
	{ NOTE_C5, 417 }, 
	{ NOTE_C5, 417 }, 
	{ NOTE_C5, 417 }, 
	{ NOTE_C5, 417 }, 
	{ NOTE_C5, 417 }, 
	{ NOTE_C5, 417 }, 
	{ NOTE_C5, 414 }, 
	{ NOTE_AS4, 417 }, 
	{ NOTE_AS4, 417 }, 
	{ NOTE_AS4, 417 }, 
	{ NOTE_AS4, 417 }, 
	{ NOTE_AS4, 417 }, 
	{ NOTE_AS4, 417 }, 
	{ NOTE_AS4, 417 }, 
	{ NOTE_AS4, 414 }, 
	{ NOTE_C5, 417 }, 
	{ NOTE_C5, 417 }, 
	{ NOTE_C5, 417 }, 
	{ NOTE_C5, 417 }, 
	{ NOTE_C5, 417 }, 
	{ NOTE_C5, 417 }, 
	{ NOTE_C5, 417 }, 
	{ NOTE_C5, 414 }, 
	{ NOTE_B4, 417 }, 
	{ NOTE_B4, 417 }, 
	{ NOTE_B4, 417 }, 
	{ NOTE_B4, 417 }, 
	{ NOTE_B4, 417 }, 
	{ NOTE_B4, 417 }, 
	{ NOTE_B4, 417 }, 
	{ NOTE_B4, 414 }, 
	{ NOTE_C5, 417 }, 
	{ NOTE_C5, 417 }, 
	{ NOTE_C5, 417 }, 
	{ NOTE_C5, 417 }, 
	{ NOTE_C5, 417 }, 
	{ NOTE_C5, 417 }, 
	{ NOTE_C5, 417 }, 
	{ NOTE_C5, 414 }, 
	{ NOTE_C5, 417 }, 
	{ NOTE_C5, 417 }, 
	{ NOTE_C5, 417 }, 
	{ NOTE_C5, 417 }, 
	{ NOTE_B4, 417 }, 
	{ NOTE_B4, 417 }, 
	{ NOTE_B4, 417 }, 
	{ NOTE_B4, 414 }, 
	{ NOTE_C5, 833 }, 
	{ NOTE_REST, 833 }, 
	{ NOTE_REST, 1667 }, 
	{ NOTE_REST, 1667 }, 
	{ NOTE_DS4, 417 }, 
	{ NOTE_DS4, 417 }, 
	{ NOTE_DS4, 417 }, 
	{ NOTE_DS4, 415 }, 
	{ NOTE_DS4, 417 }, 
	{ NOTE_DS4, 417 }, 
	{ NOTE_DS4, 417 }, 
	{ NOTE_DS4, 417 }, 
	{ NOTE_DS4, 833 }, 
	{ NOTE_REST, 832 }, 
	{ NOTE_REST, 3333 }, 
	{ NOTE_DS4, 417 }, 
	{ NOTE_DS4, 417 }, 
	{ NOTE_DS4, 417 }, 
	{ NOTE_DS4, 417 }, 
	{ NOTE_DS4, 417 }, 
	{ NOTE_DS4, 417 }, 
	{ NOTE_DS4, 417 }, 
	{ NOTE_DS4, 414 }, 
	{ NOTE_DS4, 833 }, 
	{ NOTE_REST, 833 }, 
	{ NOTE_REST, 1667 }, 
	{ NOTE_REST, 1667 }, 
	{ NOTE_C5, 417 }, 
	{ NOTE_C5, 417 }, 
	{ NOTE_C5, 417 }, 
	{ NOTE_C5, 415 }, 
	{ NOTE_C5, 417 }, 
	{ NOTE_C5, 417 }, 
	{ NOTE_C5, 417 }, 
	{ NOTE_C5, 417 }, 
	{ NOTE_AS4, 417 }, 
	{ NOTE_AS4, 417 }, 
	{ NOTE_AS4, 417 }, 
	{ NOTE_AS4, 414 }, 
	{ NOTE_GS4, 417 }, 
	{ NOTE_GS4, 417 }, 
	{ NOTE_GS4, 417 }, 
	{ NOTE_GS4, 417 }, 
	{ NOTE_AS4, 417 }, 
	{ NOTE_AS4, 417 }, 
	{ NOTE_AS4, 417 }, 
	{ NOTE_AS4, 414 }, 
	{ NOTE_C5, 417 }, 
	{ NOTE_C5, 417 }, 
	{ NOTE_C5, 417 }, 
	{ NOTE_C5, 417 }, 
	{ NOTE_CS5, 417 }, 
	{ NOTE_CS5, 417 }, 
	{ NOTE_CS5, 417 }, 
	{ NOTE_CS5, 414 }, 
	{ NOTE_CS5, 417 }, 
	{ NOTE_CS5, 417 }, 
	{ NOTE_CS5, 417 }, 
	{ NOTE_CS5, 417 }, 
	{ NOTE_G4, 208 }, 
	{ NOTE_E5, 104 }, 
	{ NOTE_E5, 104 }, 
	{ NOTE_E5, 104 }, 
	{ NOTE_E5, 104 }, 
	{ NOTE_E5, 104 }, 
	{ NOTE_E5, 104 }, 
	{ NOTE_E5, 208 }, 
	{ NOTE_E5, 208 }, 
	{ NOTE_E5, 208 }, 
	{ NOTE_E5, 209 }, 
	{ NOTE_F5, 208 }, 
	{ NOTE_C5, 208 }, 
	{ NOTE_F5, 208 }, 
	{ NOTE_C5, 208 }, 
	{ NOTE_F5, 208 }, 
	{ NOTE_C5, 208 }, 
	{ NOTE_F5, 208 }, 
	{ NOTE_C5, 208 }, 
	{ NOTE_F5, 208 }, 
	{ NOTE_F5, 104 }, 
	{ NOTE_F5, 104 }, 
	{ NOTE_F5, 104 }, 
	{ NOTE_F5, 104 }, 
	{ NOTE_F5, 104 }, 
	{ NOTE_F5, 104 }, 
	{ NOTE_F5, 208 }, 
	{ NOTE_F5, 208 }, 
	{ NOTE_F5, 208 }, 
	{ NOTE_F5, 213 }, 
	{ NOTE_DS5, 208 }, 
	{ NOTE_AS4, 208 }, 
	{ NOTE_DS5, 208 }, 
	{ NOTE_AS4, 208 }, 
	{ NOTE_DS5, 208 }, 
	{ NOTE_AS4, 208 }, 
	{ NOTE_DS5, 208 }, 
	{ NOTE_AS4, 208 }, 
	{ NOTE_DS5, 208 }, 
	{ NOTE_DS5, 104 }, 
	{ NOTE_DS5, 104 }, 
	{ NOTE_DS5, 104 }, 
	{ NOTE_DS5, 104 }, 
	{ NOTE_DS5, 104 }, 
	{ NOTE_DS5, 104 }, 
	{ NOTE_DS5, 208 }, 
	{ NOTE_DS5, 208 }, 
	{ NOTE_DS5, 208 }, 
	{ NOTE_DS5, 213 }, 
	{ NOTE_CS5, 208 }, 
	{ NOTE_GS4, 208 }, 
	{ NOTE_CS5, 208 }, 
	{ NOTE_GS4, 208 }, 
	{ NOTE_CS5, 208 }, 
	{ NOTE_GS4, 208 }, 
	{ NOTE_CS5, 208 }, 
	{ NOTE_GS4, 208 }, 
	{ NOTE_CS5, 208 }, 
	{ NOTE_CS5, 104 }, 
	{ NOTE_CS5, 104 }, 
	{ NOTE_CS5, 104 }, 
	{ NOTE_CS5, 104 }, 
	{ NOTE_CS5, 104 }, 
	{ NOTE_CS5, 104 }, 
	{ NOTE_CS5, 208 }, 
	{ NOTE_CS5, 208 }, 
	{ NOTE_CS5, 208 }, 
	{ NOTE_CS5, 213 }, 
	{ NOTE_C5, 208 }, 
	{ NOTE_G4, 208 }, 
	{ NOTE_C5, 208 }, 
	{ NOTE_G4, 208 }, 
	{ NOTE_C5, 208 }, 
	{ NOTE_G4, 208 }, 
	{ NOTE_C5, 208 }, 
	{ NOTE_G4, 208 }, 
	{ NOTE_GS4, 833 }, 
	{ NOTE_REST, 836 }, 
	{ NOTE_REST, 3333 }, 
	{ NOTE_REST, 3333 }, 
	{ NOTE_REST, 3333 }, 
	{ NOTE_REST, 3333 }, 
	{ NOTE_REST, 3333 }, 
	{ NOTE_REST, 3333 }, 
	{ NOTE_REST, 1667 }, 
	{ NOTE_AS4, 104 }, 
	{ NOTE_AS4, 104 }, 
	{ NOTE_AS4, 104 }, 
	{ NOTE_AS4, 104 }, 
	{ NOTE_AS4, 104 }, 
	{ NOTE_AS4, 104 }, 
	{ NOTE_AS4, 104 }, 
	{ NOTE_AS4, 104 }, 
	{ NOTE_AS4, 104 }, 
	{ NOTE_AS4, 104 }, 
	{ NOTE_AS4, 104 }, 
	{ NOTE_AS4, 104 }, 
	{ NOTE_AS4, 104 }, 
	{ NOTE_AS4, 104 }, 
	{ NOTE_AS4, 104 }, 
	{ NOTE_AS4, 106 }, 
	{ NOTE_GS4, 833 }, 
	{ NOTE_REST, 833 }, 
	{ NOTE_DS5, 104 }, 
	{ NOTE_DS5, 104 }, 
	{ NOTE_DS5, 104 }, 
	{ NOTE_DS5, 104 }, 
	{ NOTE_DS5, 104 }, 
	{ NOTE_DS5, 104 }, 
	{ NOTE_DS5, 104 }, 
	{ NOTE_DS5, 104 }, 
	{ NOTE_DS5, 104 }, 
	{ NOTE_DS5, 104 }, 
	{ NOTE_DS5, 104 }, 
	{ NOTE_DS5, 104 }, 
	{ NOTE_DS5, 104 }, 
	{ NOTE_DS5, 104 }, 
	{ NOTE_DS5, 104 }, 
	{ NOTE_DS5, 107 }, 
	{ NOTE_D5, 833 }, 
	{ NOTE_REST, 833 }, 
	{ NOTE_F5, 104 }, 
	{ NOTE_F5, 104 }, 
	{ NOTE_F5, 104 }, 
	{ NOTE_F5, 104 }, 
	{ NOTE_F5, 104 }, 
	{ NOTE_F5, 104 }, 
	{ NOTE_F5, 104 }, 
	{ NOTE_F5, 104 }, 
	{ NOTE_F5, 104 }, 
	{ NOTE_F5, 104 }, 
	{ NOTE_F5, 104 }, 
	{ NOTE_F5, 104 }, 
	{ NOTE_F5, 104 }, 
	{ NOTE_F5, 104 }, 
	{ NOTE_F5, 104 }, 
	{ NOTE_F5, 107 }, 
	{ NOTE_DS5, 833 }, 
	{ NOTE_REST, 833 }, 
	{ NOTE_GS4, 104 }, 
	{ NOTE_GS4, 104 }, 
	{ NOTE_GS4, 104 }, 
	{ NOTE_GS4, 104 }, 
	{ NOTE_GS4, 104 }, 
	{ NOTE_GS4, 104 }, 
	{ NOTE_GS4, 104 }, 
	{ NOTE_GS4, 104 }, 
	{ NOTE_GS4, 104 }, 
	{ NOTE_GS4, 104 }, 
	{ NOTE_GS4, 104 }, 
	{ NOTE_GS4, 104 }, 
	{ NOTE_GS4, 104 }, 
	{ NOTE_GS4, 104 }, 
	{ NOTE_GS4, 104 }, 
	{ NOTE_GS4, 107 }, 
	{ NOTE_G4, 833 }, 
	{ NOTE_REST, 833 }, 
	{ NOTE_F4, 104 }, 
	{ NOTE_F4, 104 }, 
	{ NOTE_F4, 104 }, 
	{ NOTE_F4, 104 }, 
	{ NOTE_F4, 104 }, 
	{ NOTE_F4, 104 }, 
	{ NOTE_F4, 104 }, 
	{ NOTE_F4, 104 }, 
	{ NOTE_F4, 104 }, 
	{ NOTE_F4, 104 }, 
	{ NOTE_F4, 104 }, 
	{ NOTE_F4, 104 }, 
	{ NOTE_F4, 104 }, 
	{ NOTE_F4, 104 }, 
	{ NOTE_F4, 104 }, 
	{ NOTE_F4, 107 }, 
	{ NOTE_F4, 104 }, 
	{ NOTE_F4, 104 }, 
	{ NOTE_F4, 104 }, 
	{ NOTE_F4, 104 }, 
	{ NOTE_F4, 104 }, 
	{ NOTE_F4, 104 }, 
	{ NOTE_F4, 104 }, 
	{ NOTE_F4, 104 }, 
	{ NOTE_F4, 104 }, 
	{ NOTE_F4, 104 }, 
	{ NOTE_F4, 104 }, 
	{ NOTE_F4, 104 }, 
	{ NOTE_F4, 104 }, 
	{ NOTE_F4, 104 }, 
	{ NOTE_F4, 104 }, 
	{ NOTE_F4, 104 }, 
	{ NOTE_G4, 833 }, 
	{ NOTE_REST, 836 }, 
	{ NOTE_REST, 1667 }, 
	{ NOTE_GS4, 417 }, 
	{ NOTE_GS4, 417 }, 
	{ NOTE_GS4, 417 }, 
	{ NOTE_GS4, 415 }, 
	{ NOTE_GS4, 417 }, 
	{ NOTE_GS4, 417 }, 
	{ NOTE_GS4, 417 }, 
	{ NOTE_GS4, 417 }, 
	{ NOTE_GS4, 417 }, 
	{ NOTE_GS4, 417 }, 
	{ NOTE_GS4, 417 }, 
	{ NOTE_GS4, 414 }, 
	{ NOTE_G4, 417 }, 
	{ NOTE_G4, 417 }, 
	{ NOTE_G4, 417 }, 
	{ NOTE_G4, 417 }, 
	{ NOTE_G4, 417 }, 
	{ NOTE_G4, 417 }, 
	{ NOTE_G4, 417 }, 
	{ NOTE_G4, 414 }, 
	{ NOTE_DS4, 417 }, 
	{ NOTE_DS4, 417 }, 
	{ NOTE_DS4, 417 }, 
	{ NOTE_DS4, 417 }, 
	{ NOTE_A4, 417 }, 
	{ NOTE_A4, 417 }, 
	{ NOTE_A4, 417 }, 
	{ NOTE_A4, 414 }, 
	{ NOTE_F4, 417 }, 
	{ NOTE_F4, 417 }, 
	{ NOTE_F4, 417 }, 
	{ NOTE_F4, 417 }, 
	{ NOTE_F5, 417 }, 
	{ NOTE_F5, 417 }, 
	{ NOTE_F5, 417 }, 
	{ NOTE_F5, 414 }, 
	{ NOTE_DS5, 833 }, 
	{ NOTE_REST, 833 }, 
	{ NOTE_REST, 1667 }, 
	{ NOTE_REST, 3333 }, 
	{ NOTE_REST, 3333 }, 
	{ NOTE_DS5, 208 }, 
	{ NOTE_DS5, 208 }, 
	{ NOTE_DS5, 208 }, 
	{ NOTE_DS5, 208 }, 
	{ NOTE_DS5, 208 }, 
	{ NOTE_DS5, 208 }, 
	{ NOTE_DS5, 208 }, 
	{ NOTE_DS5, 208 }, 
	{ NOTE_D5, 208 }, 
	{ NOTE_D5, 208 }, 
	{ NOTE_D5, 208 }, 
	{ NOTE_D5, 208 }, 
	{ NOTE_D5, 208 }, 
	{ NOTE_D5, 208 }, 
	{ NOTE_D5, 208 }, 
	{ NOTE_D5, 213 }, 
	{ NOTE_CS5, 208 }, 
	{ NOTE_CS5, 208 }, 
	{ NOTE_CS5, 208 }, 
	{ NOTE_CS5, 208 }, 
	{ NOTE_CS5, 208 }, 
	{ NOTE_CS5, 208 }, 
	{ NOTE_CS5, 208 }, 
	{ NOTE_CS5, 208 }, 
	{ NOTE_G5, 208 }, 
	{ NOTE_G5, 208 }, 
	{ NOTE_G5, 208 }, 
	{ NOTE_G5, 208 }, 
	{ NOTE_G5, 208 }, 
	{ NOTE_G5, 208 }, 
	{ NOTE_G5, 208 }, 
	{ NOTE_G5, 213 }, 
	{ NOTE_G5, 208 }, 
	{ NOTE_G5, 208 }, 
	{ NOTE_G5, 208 }, 
	{ NOTE_G5, 208 }, 
	{ NOTE_G5, 208 }, 
	{ NOTE_G5, 208 }, 
	{ NOTE_G5, 208 }, 
	{ NOTE_G5, 208 }, 
	{ NOTE_F5, 208 }, 
	{ NOTE_F5, 208 }, 
	{ NOTE_F5, 208 }, 
	{ NOTE_F5, 208 }, 
	{ NOTE_F5, 208 }, 
	{ NOTE_F5, 208 }, 
	{ NOTE_F5, 208 }, 
	{ NOTE_F5, 213 }, 
	{ NOTE_F5, 208 }, 
	{ NOTE_F5, 208 }, 
	{ NOTE_F5, 208 }, 
	{ NOTE_F5, 208 }, 
	{ NOTE_F5, 208 }, 
	{ NOTE_F5, 208 }, 
	{ NOTE_F5, 208 }, 
	{ NOTE_F5, 208 }, 
	{ NOTE_DS5, 208 }, 
	{ NOTE_DS5, 208 }, 
	{ NOTE_DS5, 208 }, 
	{ NOTE_DS5, 208 }, 
	{ NOTE_DS5, 208 }, 
	{ NOTE_DS5, 208 }, 
	{ NOTE_DS5, 208 }, 
	{ NOTE_DS5, 213 }, 
	{ NOTE_CS5, 208 }, 
	{ NOTE_CS5, 208 }, 
	{ NOTE_CS5, 208 }, 
	{ NOTE_CS5, 208 }, 
	{ NOTE_CS5, 208 }, 
	{ NOTE_CS5, 208 }, 
	{ NOTE_CS5, 208 }, 
	{ NOTE_CS5, 208 }, 
	{ NOTE_C5, 208 }, 
	{ NOTE_C5, 208 }, 
	{ NOTE_C5, 208 }, 
	{ NOTE_C5, 208 }, 
	{ NOTE_C5, 208 }, 
	{ NOTE_C5, 208 }, 
	{ NOTE_C5, 208 }, 
	{ NOTE_C5, 213 }, 
	{ NOTE_AS4, 208 }, 
	{ NOTE_AS4, 208 }, 
	{ NOTE_AS4, 208 }, 
	{ NOTE_AS4, 208 }, 
	{ NOTE_AS4, 208 }, 
	{ NOTE_AS4, 208 }, 
	{ NOTE_AS4, 208 }, 
	{ NOTE_AS4, 208 }, 
	{ NOTE_GS4, 208 }, 
	{ NOTE_GS4, 208 }, 
	{ NOTE_GS4, 208 }, 
	{ NOTE_GS4, 208 }, 
	{ NOTE_GS4, 208 }, 
	{ NOTE_GS4, 208 }, 
	{ NOTE_GS4, 208 }, 
	{ NOTE_GS4, 213 }, 
	{ NOTE_G4, 208 }, 
	{ NOTE_G4, 208 }, 
	{ NOTE_G4, 208 }, 
	{ NOTE_G4, 208 }, 
	{ NOTE_G5, 208 }, 
	{ NOTE_G5, 208 }, 
	{ NOTE_G5, 208 }, 
	{ NOTE_G5, 208 }, 
	{ NOTE_F5, 208 }, 
	{ NOTE_F5, 208 }, 
	{ NOTE_F5, 208 }, 
	{ NOTE_F5, 208 }, 
	{ NOTE_F5, 208 }, 
	{ NOTE_F5, 208 }, 
	{ NOTE_F5, 208 }, 
	{ NOTE_F5, 213 }, 
	{ NOTE_G5, 208 }, 
	{ NOTE_G5, 208 }, 
	{ NOTE_G5, 208 }, 
	{ NOTE_G5, 208 }, 
	{ NOTE_GS5, 208 }, 
	{ NOTE_GS5, 208 }, 
	{ NOTE_GS5, 208 }, 
	{ NOTE_GS5, 208 }, 
	{ NOTE_E5, 208 }, 
	{ NOTE_E5, 208 }, 
	{ NOTE_E5, 208 }, 
	{ NOTE_E5, 208 }, 
	{ NOTE_F5, 208 }, 
	{ NOTE_F5, 208 }, 
	{ NOTE_F5, 208 }, 
	{ NOTE_F5, 213 }, 
	{ NOTE_G5, 208 }, 
	{ NOTE_G5, 208 }, 
	{ NOTE_G5, 208 }, 
	{ NOTE_G5, 208 }, 
	{ NOTE_F5, 208 }, 
	{ NOTE_F5, 208 }, 
	{ NOTE_F5, 208 }, 
	{ NOTE_F5, 208 }, 
	{ NOTE_E5, 208 }, 
	{ NOTE_E5, 208 }, 
	{ NOTE_E5, 208 }, 
	{ NOTE_E5, 208 }, 
	{ NOTE_GS5, 208 }, 
	{ NOTE_GS5, 208 }, 
	{ NOTE_GS5, 208 }, 
	{ NOTE_GS5, 213 }, 
	{ NOTE_G5, 208 }, 
	{ NOTE_E5, 104 }, 
	{ NOTE_E5, 104 }, 
	{ NOTE_E5, 104 }, 
	{ NOTE_E5, 104 }, 
	{ NOTE_E5, 104 }, 
	{ NOTE_E5, 104 }, 
	{ NOTE_E5, 208 }, 
	{ NOTE_E5, 208 }, 
	{ NOTE_E5, 208 }, 
	{ NOTE_E5, 208 }, 
	{ NOTE_F5, 208 }, 
	{ NOTE_C5, 208 }, 
	{ NOTE_F5, 208 }, 
	{ NOTE_C5, 208 }, 
	{ NOTE_F5, 208 }, 
	{ NOTE_C5, 208 }, 
	{ NOTE_F5, 208 }, 
	{ NOTE_C5, 213 }, 
	{ NOTE_F5, 208 }, 
	{ NOTE_F5, 104 }, 
	{ NOTE_F5, 104 }, 
	{ NOTE_F5, 104 }, 
	{ NOTE_F5, 104 }, 
	{ NOTE_F5, 104 }, 
	{ NOTE_F5, 104 }, 
	{ NOTE_F5, 208 }, 
	{ NOTE_F5, 208 }, 
	{ NOTE_F5, 208 }, 
	{ NOTE_F5, 208 }, 
	{ NOTE_DS5, 208 }, 
	{ NOTE_AS4, 208 }, 
	{ NOTE_DS5, 208 }, 
	{ NOTE_AS4, 208 }, 
	{ NOTE_DS5, 208 }, 
	{ NOTE_AS4, 208 }, 
	{ NOTE_DS5, 208 }, 
	{ NOTE_AS4, 213 }, 
	{ NOTE_DS5, 208 }, 
	{ NOTE_DS5, 104 }, 
	{ NOTE_DS5, 104 }, 
	{ NOTE_DS5, 104 }, 
	{ NOTE_DS5, 104 }, 
	{ NOTE_DS5, 104 }, 
	{ NOTE_DS5, 104 }, 
	{ NOTE_DS5, 208 }, 
	{ NOTE_DS5, 208 }, 
	{ NOTE_DS5, 208 }, 
	{ NOTE_DS5, 208 }, 
	{ NOTE_CS5, 208 }, 
	{ NOTE_GS4, 208 }, 
	{ NOTE_CS5, 208 }, 
	{ NOTE_GS4, 208 }, 
	{ NOTE_CS5, 208 }, 
	{ NOTE_GS4, 208 }, 
	{ NOTE_CS5, 208 }, 
	{ NOTE_GS4, 213 }, 
	{ NOTE_CS5, 208 }, 
	{ NOTE_CS5, 104 }, 
	{ NOTE_CS5, 104 }, 
	{ NOTE_CS5, 104 }, 
	{ NOTE_CS5, 104 }, 
	{ NOTE_CS5, 104 }, 
	{ NOTE_CS5, 104 }, 
	{ NOTE_CS5, 208 }, 
	{ NOTE_CS5, 208 }, 
	{ NOTE_CS5, 208 }, 
	{ NOTE_CS5, 208 }, 
	{ NOTE_C5, 104 }, 
	{ NOTE_E5, 104 }, 
	{ NOTE_G5, 104 }, 
	{ NOTE_E5, 104 }, 
	{ NOTE_C5, 104 }, 
	{ NOTE_E5, 104 }, 
	{ NOTE_G5, 104 }, 
	{ NOTE_E5, 104 }, 
	{ NOTE_C5, 104 }, 
	{ NOTE_E5, 104 }, 
	{ NOTE_G5, 104 }, 
	{ NOTE_E5, 104 }, 
	{ NOTE_C5, 104 }, 
	{ NOTE_E5, 104 }, 
	{ NOTE_G5, 104 }, 
	{ NOTE_E5, 109 }, 
	{ NOTE_F5, 208 }, 
	{ NOTE_F5, 104 }, 
	{ NOTE_F5, 104 }, 
	{ NOTE_F5, 104 }, 
	{ NOTE_F5, 104 }, 
	{ NOTE_F5, 104 }, 
	{ NOTE_F5, 104 }, 
	{ NOTE_F5, 208 }, 
	{ NOTE_F5, 208 }, 
	{ NOTE_F5, 208 }, 
	{ NOTE_F5, 208 }, 
	{ NOTE_F5, 208 }, 
	{ NOTE_F5, 104 }, 
	{ NOTE_F5, 104 }, 
	{ NOTE_F5, 104 }, 
	{ NOTE_F5, 104 }, 
	{ NOTE_F5, 104 }, 
	{ NOTE_F5, 104 }, 
	{ NOTE_F5, 208 }, 
	{ NOTE_F5, 208 }, 
	{ NOTE_F5, 208 }, 
	{ NOTE_F5, 213 }, 
	{ NOTE_E5, 208 }, 
	{ NOTE_E5, 104 }, 
	{ NOTE_E5, 104 }, 
	{ NOTE_E5, 104 }, 
	{ NOTE_E5, 104 }, 
	{ NOTE_E5, 104 }, 
	{ NOTE_E5, 104 }, 
	{ NOTE_E5, 208 }, 
	{ NOTE_E5, 208 }, 
	{ NOTE_E5, 208 }, 
	{ NOTE_E5, 208 }, 
	{ NOTE_F5, 208 }, 
	{ NOTE_F4, 104 }, 
	{ NOTE_F4, 104 }, 
	{ NOTE_F4, 104 }, 
	{ NOTE_F4, 104 }, 
	{ NOTE_F4, 104 }, 
	{ NOTE_F4, 104 }, 
	{ NOTE_F4, 208 }, 
	{ NOTE_F4, 208 }, 
	{ NOTE_F4, 208 }, 
	{ NOTE_F4, 213 }, 
	{ NOTE_F4, 208 }, 
	{ NOTE_F4, 104 }, 
	{ NOTE_F4, 104 }, 
	{ NOTE_F4, 104 }, 
	{ NOTE_F4, 104 }, 
	{ NOTE_F4, 104 }, 
	{ NOTE_F4, 104 }, 
	{ NOTE_F4, 208 }, 
	{ NOTE_F4, 208 }, 
	{ NOTE_F4, 208 }, 
	{ NOTE_F4, 208 }, 
	{ NOTE_E4, 208 }, 
	{ NOTE_E4, 104 }, 
	{ NOTE_E4, 104 }, 
	{ NOTE_E4, 104 }, 
	{ NOTE_E4, 104 }, 
	{ NOTE_E4, 104 }, 
	{ NOTE_E4, 104 }, 
	{ NOTE_E4, 208 }, 
	{ NOTE_E4, 208 }, 
	{ NOTE_E4, 208 }, 
	{ NOTE_E4, 213 }, 
	{ NOTE_F4, 3333 }, 
};
const uint16_t NUM_OF_NOTES3 = sizeof(melody3)/sizeof(melody3[0]);

const Note melody4[] PROGMEM = {
	{ NOTE_F4, 417 }, 
	{ NOTE_F4, 417 }, 
	{ NOTE_F4, 417 }, 
	{ NOTE_F4, 417 }, 
	{ NOTE_F4, 417 }, 
	{ NOTE_F4, 417 }, 
	{ NOTE_F4, 417 }, 
	{ NOTE_F4, 414 }, 
	{ NOTE_F4, 417 }, 
	{ NOTE_F4, 417 }, 
	{ NOTE_F4, 417 }, 
	{ NOTE_F4, 417 }, 
	{ NOTE_F4, 417 }, 
	{ NOTE_F4, 417 }, 
	{ NOTE_F4, 417 }, 
	{ NOTE_F4, 414 }, 
	{ NOTE_F4, 417 }, 
	{ NOTE_F4, 417 }, 
	{ NOTE_F4, 417 }, 
	{ NOTE_F4, 417 }, 
	{ NOTE_F4, 417 }, 
	{ NOTE_F4, 417 }, 
	{ NOTE_F4, 417 }, 
	{ NOTE_F4, 414 }, 
	{ NOTE_F4, 417 }, 
	{ NOTE_F4, 417 }, 
	{ NOTE_F4, 417 }, 
	{ NOTE_F4, 417 }, 
	{ NOTE_F4, 417 }, 
	{ NOTE_F4, 417 }, 
	{ NOTE_F4, 417 }, 
	{ NOTE_F4, 414 }, 
	{ NOTE_E4, 417 }, 
	{ NOTE_E4, 417 }, 
	{ NOTE_E4, 417 }, 
	{ NOTE_E4, 417 }, 
	{ NOTE_E4, 417 }, 
	{ NOTE_E4, 417 }, 
	{ NOTE_E4, 417 }, 
	{ NOTE_E4, 414 }, 
	{ NOTE_F4, 417 }, 
	{ NOTE_F4, 417 }, 
	{ NOTE_F4, 417 }, 
	{ NOTE_F4, 417 }, 
	{ NOTE_F4, 417 }, 
	{ NOTE_F4, 417 }, 
	{ NOTE_F4, 417 }, 
	{ NOTE_F4, 414 }, 
	{ NOTE_F4, 417 }, 
	{ NOTE_F4, 417 }, 
	{ NOTE_F4, 417 }, 
	{ NOTE_F4, 417 }, 
	{ NOTE_F4, 417 }, 
	{ NOTE_F4, 417 }, 
	{ NOTE_F4, 417 }, 
	{ NOTE_F4, 414 }, 
	{ NOTE_F4, 417 }, 
	{ NOTE_F4, 417 }, 
	{ NOTE_F4, 417 }, 
	{ NOTE_F4, 417 }, 
	{ NOTE_F4, 417 }, 
	{ NOTE_F4, 417 }, 
	{ NOTE_F4, 417 }, 
	{ NOTE_F4, 414 }, 
	{ NOTE_F4, 417 }, 
	{ NOTE_F4, 417 }, 
	{ NOTE_F4, 417 }, 
	{ NOTE_F4, 417 }, 
	{ NOTE_F4, 417 }, 
	{ NOTE_F4, 417 }, 
	{ NOTE_F4, 417 }, 
	{ NOTE_F4, 414 }, 
	{ NOTE_FS4, 417 }, 
	{ NOTE_FS4, 417 }, 
	{ NOTE_FS4, 417 }, 
	{ NOTE_FS4, 417 }, 
	{ NOTE_FS4, 417 }, 
	{ NOTE_FS4, 417 }, 
	{ NOTE_FS4, 417 }, 
	{ NOTE_FS4, 414 }, 
	{ NOTE_G4, 417 }, 
	{ NOTE_G4, 417 }, 
	{ NOTE_G4, 417 }, 
	{ NOTE_G4, 417 }, 
	{ NOTE_G3, 417 }, 
	{ NOTE_G3, 417 }, 
	{ NOTE_G3, 417 }, 
	{ NOTE_G3, 414 }, 
	{ NOTE_C4, 833 }, 
	{ NOTE_REST, 833 }, 
	{ NOTE_REST, 1667 }, 
	{ NOTE_REST, 1667 }, 
	{ NOTE_C4, 417 }, 
	{ NOTE_C4, 417 }, 
	{ NOTE_C4, 417 }, 
	{ NOTE_C4, 415 }, 
	{ NOTE_C4, 417 }, 
	{ NOTE_C4, 417 }, 
	{ NOTE_C4, 417 }, 
	{ NOTE_C4, 417 }, 
	{ NOTE_C4, 833 }, 
	{ NOTE_REST, 832 }, 
	{ NOTE_REST, 3333 }, 
	{ NOTE_C4, 417 }, 
	{ NOTE_C4, 417 }, 
	{ NOTE_C4, 417 }, 
	{ NOTE_C4, 417 }, 
	{ NOTE_C4, 417 }, 
	{ NOTE_C4, 417 }, 
	{ NOTE_C4, 417 }, 
	{ NOTE_C4, 414 }, 
	{ NOTE_C4, 833 }, 
	{ NOTE_REST, 833 }, 
	{ NOTE_REST, 1667 }, 
	{ NOTE_REST, 3333 }, 
	{ NOTE_REST, 3333 }, 
	{ NOTE_F4, 417 }, 
	{ NOTE_F4, 417 }, 
	{ NOTE_F4, 417 }, 
	{ NOTE_F4, 417 }, 
	{ NOTE_F4, 417 }, 
	{ NOTE_F4, 417 }, 
	{ NOTE_F4, 417 }, 
	{ NOTE_F4, 414 }, 
	{ NOTE_DS4, 417 }, 
	{ NOTE_DS4, 417 }, 
	{ NOTE_DS4, 417 }, 
	{ NOTE_DS4, 417 }, 
	{ NOTE_CS4, 417 }, 
	{ NOTE_CS4, 417 }, 
	{ NOTE_CS4, 417 }, 
	{ NOTE_CS4, 414 }, 
	{ NOTE_CS4, 417 }, 
	{ NOTE_CS4, 417 }, 
	{ NOTE_CS4, 417 }, 
	{ NOTE_CS4, 417 }, 
	{ NOTE_C4, 833 }, 
	{ NOTE_REST, 832 }, 
	{ NOTE_F4, 208 }, 
	{ NOTE_F3, 208 }, 
	{ NOTE_F4, 208 }, 
	{ NOTE_F3, 208 }, 
	{ NOTE_F4, 208 }, 
	{ NOTE_F3, 208 }, 
	{ NOTE_F4, 208 }, 
	{ NOTE_F3, 208 }, 
	{ NOTE_AS3, 833 }, 
	{ NOTE_REST, 836 }, 
	{ NOTE_DS4, 208 }, 
	{ NOTE_DS3, 208 }, 
	{ NOTE_DS4, 208 }, 
	{ NOTE_DS3, 208 }, 
	{ NOTE_DS4, 208 }, 
	{ NOTE_DS3, 208 }, 
	{ NOTE_DS4, 208 }, 
	{ NOTE_DS3, 208 }, 
	{ NOTE_GS3, 833 }, 
	{ NOTE_REST, 836 }, 
	{ NOTE_CS4, 208 }, 
	{ NOTE_CS3, 208 }, 
	{ NOTE_CS4, 208 }, 
	{ NOTE_CS3, 208 }, 
	{ NOTE_CS4, 208 }, 
	{ NOTE_CS3, 208 }, 
	{ NOTE_CS4, 208 }, 
	{ NOTE_CS3, 208 }, 
	{ NOTE_G3, 833 }, 
	{ NOTE_REST, 836 }, 
	{ NOTE_C4, 208 }, 
	{ NOTE_C3, 208 }, 
	{ NOTE_C4, 208 }, 
	{ NOTE_C3, 208 }, 
	{ NOTE_C4, 208 }, 
	{ NOTE_C3, 208 }, 
	{ NOTE_C4, 208 }, 
	{ NOTE_C3, 208 }, 
	{ NOTE_F4, 417 }, 
	{ NOTE_F4, 417 }, 
	{ NOTE_E4, 417 }, 
	{ NOTE_E4, 418 }, 
	{ NOTE_F4, 417 }, 
	{ NOTE_F4, 417 }, 
	{ NOTE_G4, 417 }, 
	{ NOTE_G4, 417 }, 
	{ NOTE_GS4, 417 }, 
	{ NOTE_GS4, 417 }, 
	{ NOTE_GS4, 417 }, 
	{ NOTE_GS4, 414 }, 
	{ NOTE_GS4, 417 }, 
	{ NOTE_GS4, 417 }, 
	{ NOTE_GS4, 417 }, 
	{ NOTE_GS4, 417 }, 
	{ NOTE_GS4, 417 }, 
	{ NOTE_GS4, 417 }, 
	{ NOTE_GS4, 417 }, 
	{ NOTE_GS4, 414 }, 
	{ NOTE_AS4, 417 }, 
	{ NOTE_AS4, 417 }, 
	{ NOTE_G4, 417 }, 
	{ NOTE_G4, 417 }, 
	{ NOTE_G4, 417 }, 
	{ NOTE_G4, 417 }, 
	{ NOTE_G4, 417 }, 
	{ NOTE_G4, 414 }, 
	{ NOTE_G4, 417 }, 
	{ NOTE_G4, 417 }, 
	{ NOTE_G4, 417 }, 
	{ NOTE_G4, 417 }, 
	{ NOTE_GS4, 417 }, 
	{ NOTE_GS4, 417 }, 
	{ NOTE_F4, 417 }, 
	{ NOTE_F4, 414 }, 
	{ NOTE_F4, 417 }, 
	{ NOTE_F4, 417 }, 
	{ NOTE_F4, 417 }, 
	{ NOTE_F4, 417 }, 
	{ NOTE_E4, 417 }, 
	{ NOTE_DS4, 417 }, 
	{ NOTE_D4, 417 }, 
	{ NOTE_CS4, 414 }, 
	{ NOTE_C4, 417 }, 
	{ NOTE_C4, 417 }, 
	{ NOTE_C4, 417 }, 
	{ NOTE_C4, 417 }, 
	{ NOTE_C4, 417 }, 
	{ NOTE_C4, 417 }, 
	{ NOTE_C4, 417 }, 
	{ NOTE_C4, 414 }, 
	{ NOTE_C4, 417 }, 
	{ NOTE_C4, 417 }, 
	{ NOTE_C4, 417 }, 
	{ NOTE_C4, 417 }, 
	{ NOTE_C4, 104 }, 
	{ NOTE_C4, 104 }, 
	{ NOTE_C4, 104 }, 
	{ NOTE_C4, 104 }, 
	{ NOTE_C4, 104 }, 
	{ NOTE_C4, 104 }, 
	{ NOTE_C4, 104 }, 
	{ NOTE_C4, 104 }, 
	{ NOTE_C4, 104 }, 
	{ NOTE_C4, 104 }, 
	{ NOTE_C4, 104 }, 
	{ NOTE_C4, 104 }, 
	{ NOTE_C4, 104 }, 
	{ NOTE_C4, 104 }, 
	{ NOTE_C4, 104 }, 
	{ NOTE_C4, 105 }, 
	{ NOTE_F4, 833 }, 
	{ NOTE_REST, 833 }, 
	{ NOTE_F4, 104 }, 
	{ NOTE_F4, 104 }, 
	{ NOTE_F4, 104 }, 
	{ NOTE_F4, 104 }, 
	{ NOTE_F4, 104 }, 
	{ NOTE_F4, 104 }, 
	{ NOTE_F4, 104 }, 
	{ NOTE_F4, 104 }, 
	{ NOTE_F4, 104 }, 
	{ NOTE_F4, 104 }, 
	{ NOTE_F4, 104 }, 
	{ NOTE_F4, 104 }, 
	{ NOTE_F4, 104 }, 
	{ NOTE_F4, 104 }, 
	{ NOTE_F4, 104 }, 
	{ NOTE_F4, 107 }, 
	{ NOTE_AS3, 833 }, 
	{ NOTE_REST, 833 }, 
	{ NOTE_G4, 104 }, 
	{ NOTE_G4, 104 }, 
	{ NOTE_G4, 104 }, 
	{ NOTE_G4, 104 }, 
	{ NOTE_G4, 104 }, 
	{ NOTE_G4, 104 }, 
	{ NOTE_G4, 104 }, 
	{ NOTE_G4, 104 }, 
	{ NOTE_G4, 104 }, 
	{ NOTE_G4, 104 }, 
	{ NOTE_G4, 104 }, 
	{ NOTE_G4, 104 }, 
	{ NOTE_G4, 104 }, 
	{ NOTE_G4, 104 }, 
	{ NOTE_G4, 104 }, 
	{ NOTE_G4, 107 }, 
	{ NOTE_C4, 833 }, 
	{ NOTE_REST, 833 }, 
	{ NOTE_AS3, 104 }, 
	{ NOTE_AS3, 104 }, 
	{ NOTE_AS3, 104 }, 
	{ NOTE_AS3, 104 }, 
	{ NOTE_AS3, 104 }, 
	{ NOTE_AS3, 104 }, 
	{ NOTE_AS3, 104 }, 
	{ NOTE_AS3, 104 }, 
	{ NOTE_AS3, 104 }, 
	{ NOTE_AS3, 104 }, 
	{ NOTE_AS3, 104 }, 
	{ NOTE_AS3, 104 }, 
	{ NOTE_AS3, 104 }, 
	{ NOTE_AS3, 104 }, 
	{ NOTE_AS3, 104 }, 
	{ NOTE_AS3, 52 }, 
	{ NOTE_AS3, 55 }, 
	{ NOTE_DS4, 833 }, 
	{ NOTE_REST, 833 }, 
	{ NOTE_GS3, 104 }, 
	{ NOTE_GS3, 104 }, 
	{ NOTE_GS3, 104 }, 
	{ NOTE_GS3, 104 }, 
	{ NOTE_GS3, 104 }, 
	{ NOTE_GS3, 104 }, 
	{ NOTE_GS3, 104 }, 
	{ NOTE_GS3, 104 }, 
	{ NOTE_GS3, 104 }, 
	{ NOTE_GS3, 104 }, 
	{ NOTE_GS3, 104 }, 
	{ NOTE_GS3, 104 }, 
	{ NOTE_GS3, 104 }, 
	{ NOTE_GS3, 104 }, 
	{ NOTE_GS3, 104 }, 
	{ NOTE_GS3, 107 }, 
	{ NOTE_AS3, 104 }, 
	{ NOTE_AS3, 104 }, 
	{ NOTE_AS3, 104 }, 
	{ NOTE_AS3, 104 }, 
	{ NOTE_AS3, 104 }, 
	{ NOTE_AS3, 104 }, 
	{ NOTE_AS3, 104 }, 
	{ NOTE_AS3, 104 }, 
	{ NOTE_AS3, 104 }, 
	{ NOTE_AS3, 104 }, 
	{ NOTE_AS3, 104 }, 
	{ NOTE_AS3, 104 }, 
	{ NOTE_AS3, 104 }, 
	{ NOTE_AS3, 104 }, 
	{ NOTE_AS3, 104 }, 
	{ NOTE_AS3, 104 }, 
	{ NOTE_DS4, 417 }, 
	{ NOTE_DS4, 417 }, 
	{ NOTE_DS4, 417 }, 
	{ NOTE_DS4, 418 }, 
	{ NOTE_DS4, 417 }, 
	{ NOTE_DS4, 417 }, 
	{ NOTE_DS4, 417 }, 
	{ NOTE_DS4, 417 }, 
	{ NOTE_DS4, 417 }, 
	{ NOTE_DS4, 417 }, 
	{ NOTE_DS4, 417 }, 
	{ NOTE_DS4, 414 }, 
	{ NOTE_DS4, 417 }, 
	{ NOTE_DS4, 417 }, 
	{ NOTE_DS4, 417 }, 
	{ NOTE_DS4, 417 }, 
	{ NOTE_D4, 417 }, 
	{ NOTE_D4, 417 }, 
	{ NOTE_D4, 417 }, 
	{ NOTE_D4, 414 }, 
	{ NOTE_DS4, 417 }, 
	{ NOTE_DS4, 417 }, 
	{ NOTE_DS4, 417 }, 
	{ NOTE_DS4, 417 }, 
	{ NOTE_DS4, 417 }, 
	{ NOTE_DS4, 417 }, 
	{ NOTE_DS4, 417 }, 
	{ NOTE_DS4, 414 }, 
	{ NOTE_GS3, 417 }, 
	{ NOTE_GS3, 417 }, 
	{ NOTE_GS3, 417 }, 
	{ NOTE_GS3, 417 }, 
	{ NOTE_F3, 417 }, 
	{ NOTE_F3, 417 }, 
	{ NOTE_F3, 417 }, 
	{ NOTE_F3, 414 }, 
	{ NOTE_AS3, 417 }, 
	{ NOTE_AS3, 417 }, 
	{ NOTE_AS3, 417 }, 
	{ NOTE_AS3, 417 }, 
	{ NOTE_AS3, 417 }, 
	{ NOTE_AS3, 417 }, 
	{ NOTE_AS3, 417 }, 
	{ NOTE_AS3, 414 }, 
	{ NOTE_DS4, 833 }, 
	{ NOTE_REST, 833 }, 
	{ NOTE_G4, 833 }, 
	{ NOTE_DS4, 834 }, 
	{ NOTE_GS3, 833 }, 
	{ NOTE_REST, 833 }, 
	{ NOTE_A4, 833 }, 
	{ NOTE_F4, 834 }, 
	{ NOTE_AS3, 833 }, 
	{ NOTE_REST, 833 }, 
	{ NOTE_B4, 833 }, 
	{ NOTE_G4, 834 }, 
	{ NOTE_C4, 833 }, 
	{ NOTE_REST, 833 }, 
	{ NOTE_REST, 1667 }, 
	{ NOTE_REST, 3333 }, 
	{ NOTE_REST, 3333 }, 
	{ NOTE_REST, 3333 }, 
	{ NOTE_REST, 3333 }, 
	{ NOTE_REST, 3333 }, 
	{ NOTE_REST, 3333 }, 
	{ NOTE_REST, 3333 }, 
	{ NOTE_REST, 3333 }, 
	{ NOTE_C4, 833 }, 
	{ NOTE_REST, 833 }, 
	{ NOTE_F4, 208 }, 
	{ NOTE_F3, 208 }, 
	{ NOTE_F4, 208 }, 
	{ NOTE_F3, 208 }, 
	{ NOTE_F4, 208 }, 
	{ NOTE_F3, 208 }, 
	{ NOTE_F4, 208 }, 
	{ NOTE_F3, 211 }, 
	{ NOTE_AS3, 833 }, 
	{ NOTE_REST, 833 }, 
	{ NOTE_DS4, 208 }, 
	{ NOTE_DS3, 208 }, 
	{ NOTE_DS4, 208 }, 
	{ NOTE_DS3, 208 }, 
	{ NOTE_DS4, 208 }, 
	{ NOTE_DS3, 208 }, 
	{ NOTE_DS4, 208 }, 
	{ NOTE_DS3, 211 }, 
	{ NOTE_GS3, 833 }, 
	{ NOTE_REST, 833 }, 
	{ NOTE_CS4, 208 }, 
	{ NOTE_CS3, 208 }, 
	{ NOTE_CS4, 208 }, 
	{ NOTE_CS3, 208 }, 
	{ NOTE_CS4, 208 }, 
	{ NOTE_CS3, 208 }, 
	{ NOTE_CS4, 208 }, 
	{ NOTE_CS3, 211 }, 
	{ NOTE_G3, 833 }, 
	{ NOTE_REST, 833 }, 
	{ NOTE_C5, 208 }, 
	{ NOTE_C4, 208 }, 
	{ NOTE_C5, 208 }, 
	{ NOTE_C4, 208 }, 
	{ NOTE_C5, 208 }, 
	{ NOTE_C4, 208 }, 
	{ NOTE_C5, 208 }, 
	{ NOTE_C4, 211 }, 
	{ NOTE_F4, 208 }, 
	{ NOTE_F4, 104 }, 
	{ NOTE_F4, 104 }, 
	{ NOTE_F4, 104 }, 
	{ NOTE_F4, 104 }, 
	{ NOTE_F4, 104 }, 
	{ NOTE_F4, 104 }, 
	{ NOTE_F4, 208 }, 
	{ NOTE_F4, 208 }, 
	{ NOTE_F4, 208 }, 
	{ NOTE_F4, 208 }, 
	{ NOTE_AS3, 208 }, 
	{ NOTE_AS3, 104 }, 
	{ NOTE_AS3, 104 }, 
	{ NOTE_AS3, 104 }, 
	{ NOTE_AS3, 104 }, 
	{ NOTE_AS3, 104 }, 
	{ NOTE_AS3, 104 }, 
	{ NOTE_AS3, 208 }, 
	{ NOTE_AS3, 208 }, 
	{ NOTE_AS3, 208 }, 
	{ NOTE_AS3, 213 }, 
	{ NOTE_C4, 208 }, 
	{ NOTE_C4, 104 }, 
	{ NOTE_C4, 104 }, 
	{ NOTE_C4, 104 }, 
	{ NOTE_C4, 104 }, 
	{ NOTE_C4, 104 }, 
	{ NOTE_C4, 104 }, 
	{ NOTE_C4, 208 }, 
	{ NOTE_C4, 208 }, 
	{ NOTE_C4, 208 }, 
	{ NOTE_C4, 208 }, 
	{ NOTE_F3, 208 }, 
	{ NOTE_F4, 104 }, 
	{ NOTE_F4, 104 }, 
	{ NOTE_F4, 104 }, 
	{ NOTE_F4, 104 }, 
	{ NOTE_F4, 104 }, 
	{ NOTE_F4, 104 }, 
	{ NOTE_F4, 208 }, 
	{ NOTE_F4, 208 }, 
	{ NOTE_F4, 208 }, 
	{ NOTE_F4, 213 }, 
	{ NOTE_AS3, 208 }, 
	{ NOTE_AS3, 104 }, 
	{ NOTE_AS3, 104 }, 
	{ NOTE_AS3, 104 }, 
	{ NOTE_AS3, 104 }, 
	{ NOTE_AS3, 104 }, 
	{ NOTE_AS3, 104 }, 
	{ NOTE_AS3, 208 }, 
	{ NOTE_AS3, 208 }, 
	{ NOTE_AS3, 208 }, 
	{ NOTE_AS3, 208 }, 
	{ NOTE_C4, 208 }, 
	{ NOTE_C4, 104 }, 
	{ NOTE_C4, 104 }, 
	{ NOTE_C4, 104 }, 
	{ NOTE_C4, 104 }, 
	{ NOTE_C4, 104 }, 
	{ NOTE_C4, 104 }, 
	{ NOTE_C4, 208 }, 
	{ NOTE_C4, 208 }, 
	{ NOTE_C4, 208 }, 
	{ NOTE_C4, 213 }, 
	{ NOTE_F3, 3333 }, 
};
const uint16_t NUM_OF_NOTES4 = sizeof(melody4)/sizeof(melody4[0]);

