/*
 * Song: Summer by Vivaldi
 *
 *	Melody 0 | Violin
 *	Melody 1 | Violin I
 *	Melody 2 | Violin II
 *	Melody 3 | Viola
 *	Melody 4 | Violoncello
*/

#include <Arduino.h>
#include "notes.h"

const Note melody0[] PROGMEM = {
	{ NOTE_G4, 200 }, 
	{ NOTE_G3, 100 }, 
	{ NOTE_G3, 100 }, 
	{ NOTE_G3, 100 }, 
	{ NOTE_G3, 100 }, 
	{ NOTE_G3, 100 }, 
	{ NOTE_G3, 100 }, 
	{ NOTE_G3, 100 }, 
	{ NOTE_G3, 100 }, 
	{ NOTE_G3, 100 }, 
	{ NOTE_G3, 100 }, 
	{ NOTE_F4, 100 }, 
	{ NOTE_G3, 100 }, 
	{ NOTE_G3, 100 }, 
	{ NOTE_G3, 100 }, 
	{ NOTE_G3, 100 }, 
	{ NOTE_G3, 100 }, 
	{ NOTE_G3, 100 }, 
	{ NOTE_G3, 100 }, 
	{ NOTE_G3, 100 }, 
	{ NOTE_G3, 100 }, 
	{ NOTE_G3, 100 }, 
	{ NOTE_G3, 100 }, 
	{ NOTE_EB4, 100 }, 
	{ NOTE_G3, 100 }, 
	{ NOTE_G3, 100 }, 
	{ NOTE_G3, 100 }, 
	{ NOTE_G3, 100 }, 
	{ NOTE_G3, 100 }, 
	{ NOTE_G3, 100 }, 
	{ NOTE_G3, 100 }, 
	{ NOTE_G3, 100 }, 
	{ NOTE_G3, 100 }, 
	{ NOTE_G3, 100 }, 
	{ NOTE_G3, 100 }, 
	{ NOTE_D4, 100 }, 
	{ NOTE_G3, 100 }, 
	{ NOTE_G3, 100 }, 
	{ NOTE_G3, 100 }, 
	{ NOTE_G3, 100 }, 
	{ NOTE_G3, 100 }, 
	{ NOTE_G3, 100 }, 
	{ NOTE_G3, 100 }, 
	{ NOTE_G3, 100 }, 
	{ NOTE_G3, 100 }, 
	{ NOTE_REST, 200 }, 
	{ NOTE_REST, 1200 }, 
	{ NOTE_D5, 100 }, 
	{ NOTE_D4, 100 }, 
	{ NOTE_D4, 100 }, 
	{ NOTE_D4, 100 }, 
	{ NOTE_D4, 100 }, 
	{ NOTE_D4, 100 }, 
	{ NOTE_D4, 100 }, 
	{ NOTE_D4, 100 }, 
	{ NOTE_D4, 100 }, 
	{ NOTE_D4, 100 }, 
	{ NOTE_D4, 100 }, 
	{ NOTE_D4, 100 }, 
	{ NOTE_C5, 100 }, 
	{ NOTE_D4, 100 }, 
	{ NOTE_D4, 100 }, 
	{ NOTE_D4, 100 }, 
	{ NOTE_D4, 100 }, 
	{ NOTE_D4, 100 }, 
	{ NOTE_D4, 100 }, 
	{ NOTE_D4, 100 }, 
	{ NOTE_D4, 100 }, 
	{ NOTE_D4, 100 }, 
	{ NOTE_D4, 100 }, 
	{ NOTE_D4, 100 }, 
	{ NOTE_BB4, 100 }, 
	{ NOTE_D4, 100 }, 
	{ NOTE_D4, 100 }, 
	{ NOTE_D4, 100 }, 
	{ NOTE_D4, 100 }, 
	{ NOTE_D4, 100 }, 
	{ NOTE_D4, 100 }, 
	{ NOTE_D4, 100 }, 
	{ NOTE_D4, 100 }, 
	{ NOTE_D4, 100 }, 
	{ NOTE_D4, 100 }, 
	{ NOTE_D4, 100 }, 
	{ NOTE_A4, 100 }, 
	{ NOTE_D4, 100 }, 
	{ NOTE_D4, 100 }, 
	{ NOTE_D4, 100 }, 
	{ NOTE_D4, 100 }, 
	{ NOTE_D4, 100 }, 
	{ NOTE_D4, 100 }, 
	{ NOTE_D4, 100 }, 
	{ NOTE_D4, 100 }, 
	{ NOTE_D4, 100 }, 
	{ NOTE_REST, 200 }, 
	{ NOTE_REST, 100 }, 
	{ NOTE_D5, 100 }, 
	{ NOTE_C5, 100 }, 
	{ NOTE_BB4, 100 }, 
	{ NOTE_A4, 100 }, 
	{ NOTE_G4, 100 }, 
	{ NOTE_FS4, 100 }, 
	{ NOTE_E4, 100 }, 
	{ NOTE_D4, 100 }, 
	{ NOTE_C4, 100 }, 
	{ NOTE_BB3, 100 }, 
	{ NOTE_A3, 100 }, 
	{ NOTE_G3, 100 }, 
	{ NOTE_G3, 100 }, 
	{ NOTE_G3, 100 }, 
	{ NOTE_G3, 100 }, 
	{ NOTE_G3, 100 }, 
	{ NOTE_G3, 100 }, 
	{ NOTE_G3, 100 }, 
	{ NOTE_G3, 100 }, 
	{ NOTE_G3, 100 }, 
	{ NOTE_G3, 100 }, 
	{ NOTE_G3, 100 }, 
	{ NOTE_G3, 100 }, 
	{ NOTE_G3, 100 }, 
	{ NOTE_G5, 100 }, 
	{ NOTE_F5, 100 }, 
	{ NOTE_EB5, 100 }, 
	{ NOTE_D5, 100 }, 
	{ NOTE_C5, 100 }, 
	{ NOTE_BB4, 100 }, 
	{ NOTE_A4, 100 }, 
	{ NOTE_G4, 100 }, 
	{ NOTE_F4, 100 }, 
	{ NOTE_EB4, 100 }, 
	{ NOTE_D4, 100 }, 
	{ NOTE_C4, 100 }, 
	{ NOTE_C4, 100 }, 
	{ NOTE_C4, 100 }, 
	{ NOTE_C4, 100 }, 
	{ NOTE_C4, 100 }, 
	{ NOTE_C4, 100 }, 
	{ NOTE_C4, 100 }, 
	{ NOTE_C4, 100 }, 
	{ NOTE_C4, 100 }, 
	{ NOTE_C4, 100 }, 
	{ NOTE_C4, 100 }, 
	{ NOTE_C4, 100 }, 
	{ NOTE_C4, 100 }, 
	{ NOTE_BB5, 100 }, 
	{ NOTE_A5, 100 }, 
	{ NOTE_G5, 100 }, 
	{ NOTE_F5, 100 }, 
	{ NOTE_EB5, 100 }, 
	{ NOTE_D5, 100 }, 
	{ NOTE_C5, 100 }, 
	{ NOTE_BB4, 100 }, 
	{ NOTE_A4, 100 }, 
	{ NOTE_G4, 100 }, 
	{ NOTE_F4, 100 }, 
	{ NOTE_EB4, 100 }, 
	{ NOTE_EB4, 100 }, 
	{ NOTE_EB4, 100 }, 
	{ NOTE_EB4, 100 }, 
	{ NOTE_EB4, 100 }, 
	{ NOTE_EB4, 100 }, 
	{ NOTE_EB4, 100 }, 
	{ NOTE_EB4, 100 }, 
	{ NOTE_EB4, 100 }, 
	{ NOTE_EB4, 100 }, 
	{ NOTE_EB4, 100 }, 
	{ NOTE_EB4, 100 }, 
	{ NOTE_EB4, 100 }, 
	{ NOTE_D6, 100 }, 
	{ NOTE_C6, 100 }, 
	{ NOTE_BB5, 100 }, 
	{ NOTE_A5, 100 }, 
	{ NOTE_G5, 100 }, 
	{ NOTE_FS5, 100 }, 
	{ NOTE_E5, 100 }, 
	{ NOTE_D5, 100 }, 
	{ NOTE_C5, 100 }, 
	{ NOTE_BB4, 100 }, 
	{ NOTE_A4, 100 }, 
	{ NOTE_G4, 100 }, 
	{ NOTE_G4, 100 }, 
	{ NOTE_G4, 100 }, 
	{ NOTE_G4, 100 }, 
	{ NOTE_G4, 100 }, 
	{ NOTE_G4, 100 }, 
	{ NOTE_G4, 100 }, 
	{ NOTE_G4, 100 }, 
	{ NOTE_G4, 100 }, 
	{ NOTE_G4, 100 }, 
	{ NOTE_G4, 100 }, 
	{ NOTE_G4, 100 }, 
	{ NOTE_EB4, 100 }, 
	{ NOTE_D6, 100 }, 
	{ NOTE_C6, 100 }, 
	{ NOTE_BB5, 100 }, 
	{ NOTE_A5, 100 }, 
	{ NOTE_G5, 100 }, 
	{ NOTE_F5, 100 }, 
	{ NOTE_E5, 100 }, 
	{ NOTE_D5, 100 }, 
	{ NOTE_C5, 100 }, 
	{ NOTE_BB4, 100 }, 
	{ NOTE_A4, 100 }, 
	{ NOTE_G4, 100 }, 
	{ NOTE_G4, 100 }, 
	{ NOTE_G4, 100 }, 
	{ NOTE_G4, 100 }, 
	{ NOTE_G4, 100 }, 
	{ NOTE_G4, 100 }, 
	{ NOTE_G4, 100 }, 
	{ NOTE_G4, 100 }, 
	{ NOTE_G4, 100 }, 
	{ NOTE_G4, 100 }, 
	{ NOTE_G4, 100 }, 
	{ NOTE_G4, 100 }, 
	{ NOTE_D5, 100 }, 
	{ NOTE_G4, 100 }, 
	{ NOTE_G4, 100 }, 
	{ NOTE_G4, 100 }, 
	{ NOTE_D5, 100 }, 
	{ NOTE_G4, 100 }, 
	{ NOTE_G4, 100 }, 
	{ NOTE_G4, 100 }, 
	{ NOTE_D5, 100 }, 
	{ NOTE_G4, 100 }, 
	{ NOTE_G4, 100 }, 
	{ NOTE_G4, 100 }, 
	{ NOTE_D4, 100 }, 
	{ NOTE_A4, 100 }, 
	{ NOTE_BB4, 100 }, 
	{ NOTE_C5, 100 }, 
	{ NOTE_D5, 100 }, 
	{ NOTE_E5, 100 }, 
	{ NOTE_FS5, 100 }, 
	{ NOTE_G5, 100 }, 
	{ NOTE_A5, 200 }, 
	{ NOTE_REST, 200 }, 
	{ NOTE_REST, 100 }, 
	{ NOTE_A4, 100 }, 
	{ NOTE_BB4, 100 }, 
	{ NOTE_C5, 100 }, 
	{ NOTE_D5, 100 }, 
	{ NOTE_E5, 100 }, 
	{ NOTE_FS5, 100 }, 
	{ NOTE_G5, 100 }, 
	{ NOTE_A5, 200 }, 
	{ NOTE_REST, 200 }, 
	{ NOTE_REST, 100 }, 
	{ NOTE_BB4, 100 }, 
	{ NOTE_C5, 100 }, 
	{ NOTE_D5, 100 }, 
	{ NOTE_EB5, 100 }, 
	{ NOTE_FS5, 100 }, 
	{ NOTE_G5, 100 }, 
	{ NOTE_A5, 100 }, 
	{ NOTE_BB5, 200 }, 
	{ NOTE_REST, 200 }, 
	{ NOTE_REST, 100 }, 
	{ NOTE_D5, 100 }, 
	{ NOTE_E5, 100 }, 
	{ NOTE_FS5, 100 }, 
	{ NOTE_G5, 100 }, 
	{ NOTE_A5, 100 }, 
	{ NOTE_BB5, 100 }, 
	{ NOTE_C6, 100 }, 
	{ NOTE_D6, 200 }, 
	{ NOTE_REST, 200 }, 
	{ NOTE_REST, 100 }, 
	{ NOTE_D5, 100 }, 
	{ NOTE_E5, 100 }, 
	{ NOTE_FS5, 100 }, 
	{ NOTE_G5, 100 }, 
	{ NOTE_A5, 100 }, 
	{ NOTE_BB5, 100 }, 
	{ NOTE_C6, 100 }, 
	{ NOTE_D6, 200 }, 
	{ NOTE_REST, 200 }, 
	{ NOTE_REST, 100 }, 
	{ NOTE_A4, 100 }, 
	{ NOTE_BB4, 100 }, 
	{ NOTE_C5, 100 }, 
	{ NOTE_D5, 100 }, 
	{ NOTE_E5, 100 }, 
	{ NOTE_FS5, 100 }, 
	{ NOTE_G5, 100 }, 
	{ NOTE_A5, 200 }, 
	{ NOTE_REST, 200 }, 
	{ NOTE_REST, 100 }, 
	{ NOTE_BB4, 100 }, 
	{ NOTE_C5, 100 }, 
	{ NOTE_D5, 100 }, 
	{ NOTE_EB5, 100 }, 
	{ NOTE_FS5, 100 }, 
	{ NOTE_G5, 100 }, 
	{ NOTE_A5, 100 }, 
	{ NOTE_BB5, 200 }, 
	{ NOTE_REST, 200 }, 
	{ NOTE_REST, 100 }, 
	{ NOTE_D5, 100 }, 
	{ NOTE_E5, 100 }, 
	{ NOTE_FS5, 100 }, 
	{ NOTE_G5, 100 }, 
	{ NOTE_A5, 100 }, 
	{ NOTE_BB5, 100 }, 
	{ NOTE_C6, 100 }, 
	{ NOTE_D6, 200 }, 
	{ NOTE_REST, 200 }, 
	{ NOTE_BB5, 100 }, 
	{ NOTE_G5, 100 }, 
	{ NOTE_D5, 100 }, 
	{ NOTE_BB4, 100 }, 
	{ NOTE_BB5, 100 }, 
	{ NOTE_G5, 100 }, 
	{ NOTE_D5, 100 }, 
	{ NOTE_BB4, 100 }, 
	{ NOTE_BB5, 100 }, 
	{ NOTE_G5, 100 }, 
	{ NOTE_D5, 100 }, 
	{ NOTE_BB4, 100 }, 
	{ NOTE_D5, 100 }, 
	{ NOTE_BB4, 100 }, 
	{ NOTE_G4, 100 }, 
	{ NOTE_D4, 100 }, 
	{ NOTE_D5, 100 }, 
	{ NOTE_BB4, 100 }, 
	{ NOTE_G4, 100 }, 
	{ NOTE_D4, 100 }, 
	{ NOTE_D5, 100 }, 
	{ NOTE_BB4, 100 }, 
	{ NOTE_G4, 100 }, 
	{ NOTE_D4, 100 }, 
	{ NOTE_G4, 100 }, 
	{ NOTE_D4, 100 }, 
	{ NOTE_BB3, 100 }, 
	{ NOTE_G3, 100 }, 
	{ NOTE_G4, 100 }, 
	{ NOTE_D4, 100 }, 
	{ NOTE_BB3, 100 }, 
	{ NOTE_G3, 100 }, 
	{ NOTE_G4, 100 }, 
	{ NOTE_D4, 100 }, 
	{ NOTE_BB3, 100 }, 
	{ NOTE_G3, 100 }, 
	{ NOTE_G4, 100 }, 
	{ NOTE_B4, 100 }, 
	{ NOTE_G4, 100 }, 
	{ NOTE_B4, 100 }, 
	{ NOTE_G4, 100 }, 
	{ NOTE_B4, 100 }, 
	{ NOTE_G4, 100 }, 
	{ NOTE_B4, 100 }, 
	{ NOTE_G4, 100 }, 
	{ NOTE_B4, 100 }, 
	{ NOTE_G4, 100 }, 
	{ NOTE_B4, 100 }, 
	{ NOTE_G4, 100 }, 
	{ NOTE_C5, 100 }, 
	{ NOTE_G4, 100 }, 
	{ NOTE_C5, 100 }, 
	{ NOTE_G4, 100 }, 
	{ NOTE_C5, 100 }, 
	{ NOTE_G4, 100 }, 
	{ NOTE_C5, 100 }, 
	{ NOTE_G4, 100 }, 
	{ NOTE_C5, 100 }, 
	{ NOTE_G4, 100 }, 
	{ NOTE_C5, 100 }, 
	{ NOTE_G4, 100 }, 
	{ NOTE_CS5, 100 }, 
	{ NOTE_G4, 100 }, 
	{ NOTE_CS5, 100 }, 
	{ NOTE_G4, 100 }, 
	{ NOTE_CS5, 100 }, 
	{ NOTE_G4, 100 }, 
	{ NOTE_CS5, 100 }, 
	{ NOTE_G4, 100 }, 
	{ NOTE_CS5, 100 }, 
	{ NOTE_G4, 100 }, 
	{ NOTE_CS5, 100 }, 
	{ NOTE_A4, 100 }, 
	{ NOTE_D5, 100 }, 
	{ NOTE_A4, 100 }, 
	{ NOTE_D5, 100 }, 
	{ NOTE_A4, 100 }, 
	{ NOTE_D5, 100 }, 
	{ NOTE_A4, 100 }, 
	{ NOTE_D5, 100 }, 
	{ NOTE_A4, 100 }, 
	{ NOTE_D5, 100 }, 
	{ NOTE_A4, 100 }, 
	{ NOTE_D5, 100 }, 
	{ NOTE_A4, 100 }, 
	{ NOTE_D5, 100 }, 
	{ NOTE_A4, 100 }, 
	{ NOTE_D5, 100 }, 
	{ NOTE_A4, 100 }, 
	{ NOTE_D5, 100 }, 
	{ NOTE_A4, 100 }, 
	{ NOTE_D5, 100 }, 
	{ NOTE_A4, 100 }, 
	{ NOTE_D5, 100 }, 
	{ NOTE_A4, 100 }, 
	{ NOTE_D5, 100 }, 
	{ NOTE_A4, 100 }, 
	{ NOTE_CS5, 100 }, 
	{ NOTE_A4, 100 }, 
	{ NOTE_CS5, 100 }, 
	{ NOTE_A4, 100 }, 
	{ NOTE_CS5, 100 }, 
	{ NOTE_A4, 100 }, 
	{ NOTE_CS5, 100 }, 
	{ NOTE_A4, 100 }, 
	{ NOTE_CS5, 100 }, 
	{ NOTE_A4, 100 }, 
	{ NOTE_CS5, 100 }, 
	{ NOTE_D5, 100 }, 
	{ NOTE_D4, 100 }, 
	{ NOTE_E4, 100 }, 
	{ NOTE_F4, 100 }, 
	{ NOTE_G4, 100 }, 
	{ NOTE_A4, 100 }, 
	{ NOTE_B4, 100 }, 
	{ NOTE_CS5, 100 }, 
	{ NOTE_D5, 100 }, 
	{ NOTE_A4, 100 }, 
	{ NOTE_B4, 100 }, 
	{ NOTE_CS5, 100 }, 
	{ NOTE_D5, 100 }, 
	{ NOTE_E5, 100 }, 
	{ NOTE_F5, 100 }, 
	{ NOTE_G5, 100 }, 
	{ NOTE_A5, 100 }, 
	{ NOTE_D5, 100 }, 
	{ NOTE_E5, 100 }, 
	{ NOTE_F5, 100 }, 
	{ NOTE_G5, 100 }, 
	{ NOTE_A5, 100 }, 
	{ NOTE_B5, 100 }, 
	{ NOTE_CS6, 100 }, 
	{ NOTE_D6, 400 }, 
	{ NOTE_REST, 100 }, 
	{ NOTE_A5, 100 }, 
	{ NOTE_A5, 100 }, 
	{ NOTE_CS6, 100 }, 
	{ NOTE_CS6, 100 }, 
	{ NOTE_E6, 100 }, 
	{ NOTE_E6, 100 }, 
	{ NOTE_A6, 100 }, 
	{ NOTE_A6, 100 }, 
	{ NOTE_A5, 100 }, 
	{ NOTE_D4, 100 }, 
	{ NOTE_A5, 100 }, 
	{ NOTE_G6, 100 }, 
	{ NOTE_A5, 100 }, 
	{ NOTE_D4, 100 }, 
	{ NOTE_A5, 100 }, 
	{ NOTE_F6, 100 }, 
	{ NOTE_A5, 100 }, 
	{ NOTE_D4, 100 }, 
	{ NOTE_A5, 100 }, 
	{ NOTE_E6, 100 }, 
	{ NOTE_A5, 100 }, 
	{ NOTE_D4, 100 }, 
	{ NOTE_A5, 100 }, 
	{ NOTE_F6, 100 }, 
	{ NOTE_A5, 100 }, 
	{ NOTE_D4, 100 }, 
	{ NOTE_A5, 100 }, 
	{ NOTE_G6, 100 }, 
	{ NOTE_A5, 100 }, 
	{ NOTE_D4, 100 }, 
	{ NOTE_A5, 100 }, 
	{ NOTE_A6, 100 }, 
	{ NOTE_A5, 100 }, 
	{ NOTE_D4, 100 }, 
	{ NOTE_A5, 100 }, 
	{ NOTE_G6, 100 }, 
	{ NOTE_A5, 100 }, 
	{ NOTE_D4, 100 }, 
	{ NOTE_A5, 100 }, 
	{ NOTE_F6, 100 }, 
	{ NOTE_A5, 100 }, 
	{ NOTE_D4, 100 }, 
	{ NOTE_A5, 100 }, 
	{ NOTE_D4, 400 }, 
	{ NOTE_REST, 100 }, 
	{ NOTE_D5, 100 }, 
	{ NOTE_D5, 100 }, 
	{ NOTE_F5, 100 }, 
	{ NOTE_F5, 100 }, 
	{ NOTE_A5, 100 }, 
	{ NOTE_A5, 100 }, 
	{ NOTE_D6, 100 }, 
	{ NOTE_D6, 100 }, 
	{ NOTE_D5, 100 }, 
	{ NOTE_D4, 100 }, 
	{ NOTE_D5, 100 }, 
	{ NOTE_C6, 100 }, 
	{ NOTE_D5, 100 }, 
	{ NOTE_D4, 100 }, 
	{ NOTE_D5, 100 }, 
	{ NOTE_BB5, 100 }, 
	{ NOTE_D5, 100 }, 
	{ NOTE_D4, 100 }, 
	{ NOTE_D5, 100 }, 
	{ NOTE_A5, 100 }, 
	{ NOTE_D5, 100 }, 
	{ NOTE_D4, 100 }, 
	{ NOTE_D5, 100 }, 
	{ NOTE_BB5, 100 }, 
	{ NOTE_D5, 100 }, 
	{ NOTE_D4, 100 }, 
	{ NOTE_D5, 100 }, 
	{ NOTE_CS6, 100 }, 
	{ NOTE_D5, 100 }, 
	{ NOTE_D4, 100 }, 
	{ NOTE_D5, 100 }, 
	{ NOTE_D6, 100 }, 
	{ NOTE_D5, 100 }, 
	{ NOTE_D4, 100 }, 
	{ NOTE_D5, 100 }, 
	{ NOTE_C6, 100 }, 
	{ NOTE_D5, 100 }, 
	{ NOTE_D4, 100 }, 
	{ NOTE_D5, 100 }, 
	{ NOTE_BB5, 100 }, 
	{ NOTE_D5, 100 }, 
	{ NOTE_D4, 100 }, 
	{ NOTE_D5, 100 }, 
	{ NOTE_D4, 400 }, 
	{ NOTE_REST, 100 }, 
	{ NOTE_A6, 100 }, 
	{ NOTE_A6, 100 }, 
	{ NOTE_G6, 100 }, 
	{ NOTE_G6, 100 }, 
	{ NOTE_F6, 100 }, 
	{ NOTE_F6, 100 }, 
	{ NOTE_EB6, 100 }, 
	{ NOTE_EB6, 100 }, 
	{ NOTE_D6, 100 }, 
	{ NOTE_D6, 100 }, 
	{ NOTE_C6, 100 }, 
	{ NOTE_C6, 100 }, 
	{ NOTE_BB5, 100 }, 
	{ NOTE_BB5, 100 }, 
	{ NOTE_A5, 100 }, 
	{ NOTE_A5, 100 }, 
	{ NOTE_G5, 100 }, 
	{ NOTE_G5, 100 }, 
	{ NOTE_F5, 100 }, 
	{ NOTE_F5, 100 }, 
	{ NOTE_EB5, 100 }, 
	{ NOTE_EB5, 100 }, 
	{ NOTE_D5, 100 }, 
	{ NOTE_D5, 100 }, 
	{ NOTE_C5, 100 }, 
	{ NOTE_C5, 100 }, 
	{ NOTE_BB4, 100 }, 
	{ NOTE_BB4, 100 }, 
	{ NOTE_A4, 100 }, 
	{ NOTE_A4, 100 }, 
	{ NOTE_GS4, 100 }, 
	{ NOTE_A4, 200 }, 
	{ NOTE_GS4, 200 }, 
	{ NOTE_A4, 200 }, 
	{ NOTE_GS4, 200 }, 
	{ NOTE_A4, 200 }, 
	{ NOTE_F4, 200 }, 
	{ NOTE_G4, 200 }, 
	{ NOTE_EB4, 200 }, 
	{ NOTE_F4, 200 }, 
	{ NOTE_D4, 200 }, 
	{ NOTE_EB4, 200 }, 
	{ NOTE_CS4, 200 }, 
	{ NOTE_D4, 200 }, 
	{ NOTE_CS4, 200 }, 
	{ NOTE_D4, 200 }, 
	{ NOTE_CS4, 200 }, 
	{ NOTE_D4, 200 }, 
	{ NOTE_CS4, 200 }, 
	{ NOTE_D4, 200 }, 
	{ NOTE_CS4, 200 }, 
	{ NOTE_D4, 200 }, 
	{ NOTE_CS4, 200 }, 
	{ NOTE_D4, 200 }, 
	{ NOTE_CS4, 200 }, 
	{ NOTE_D4, 200 }, 
	{ NOTE_D4, 200 }, 
	{ NOTE_D4, 200 }, 
	{ NOTE_D5, 200 }, 
	{ NOTE_F5, 200 }, 
	{ NOTE_A5, 200 }, 
	{ NOTE_BB5, 200 }, 
	{ NOTE_D4, 200 }, 
	{ NOTE_D4, 200 }, 
	{ NOTE_D5, 200 }, 
	{ NOTE_G5, 200 }, 
	{ NOTE_BB5, 200 }, 
	{ NOTE_BB5, 200 }, 
	{ NOTE_E4, 200 }, 
	{ NOTE_E4, 200 }, 
	{ NOTE_E5, 200 }, 
	{ NOTE_G5, 200 }, 
	{ NOTE_BB5, 200 }, 
	{ NOTE_A5, 200 }, 
	{ NOTE_F4, 200 }, 
	{ NOTE_F4, 200 }, 
	{ NOTE_C5, 200 }, 
	{ NOTE_F5, 200 }, 
	{ NOTE_A5, 200 }, 
	{ NOTE_A5, 200 }, 
	{ NOTE_D4, 200 }, 
	{ NOTE_D4, 200 }, 
	{ NOTE_D5, 200 }, 
	{ NOTE_F5, 200 }, 
	{ NOTE_A5, 200 }, 
	{ NOTE_G5, 200 }, 
	{ NOTE_EB4, 200 }, 
	{ NOTE_EB4, 200 }, 
	{ NOTE_BB4, 200 }, 
	{ NOTE_EB5, 200 }, 
	{ NOTE_G5, 200 }, 
	{ NOTE_G5, 200 }, 
	{ NOTE_C4, 200 }, 
	{ NOTE_C4, 200 }, 
	{ NOTE_C5, 200 }, 
	{ NOTE_EB5, 200 }, 
	{ NOTE_G5, 200 }, 
	{ NOTE_G5, 200 }, 
	{ NOTE_D4, 200 }, 
	{ NOTE_D4, 200 }, 
	{ NOTE_B4, 200 }, 
	{ NOTE_EB5, 200 }, 
	{ NOTE_G5, 200 }, 
	{ NOTE_F5, 200 }, 
	{ NOTE_D4, 200 }, 
	{ NOTE_D4, 200 }, 
	{ NOTE_B4, 200 }, 
	{ NOTE_EB5, 200 }, 
	{ NOTE_F5, 200 }, 
	{ NOTE_EB5, 100 }, 
	{ NOTE_EB4, 100 }, 
	{ NOTE_F4, 100 }, 
	{ NOTE_G4, 100 }, 
	{ NOTE_AB4, 100 }, 
	{ NOTE_B4, 100 }, 
	{ NOTE_C5, 100 }, 
	{ NOTE_D5, 100 }, 
	{ NOTE_EB5, 200 }, 
	{ NOTE_REST, 200 }, 
	{ NOTE_REST, 100 }, 
	{ NOTE_EB4, 100 }, 
	{ NOTE_F4, 100 }, 
	{ NOTE_G4, 100 }, 
	{ NOTE_AB4, 100 }, 
	{ NOTE_B4, 100 }, 
	{ NOTE_C5, 100 }, 
	{ NOTE_D5, 100 }, 
	{ NOTE_EB5, 200 }, 
	{ NOTE_REST, 200 }, 
	{ NOTE_REST, 100 }, 
	{ NOTE_EB4, 100 }, 
	{ NOTE_F4, 100 }, 
	{ NOTE_G4, 100 }, 
	{ NOTE_AB4, 100 }, 
	{ NOTE_B4, 100 }, 
	{ NOTE_C5, 100 }, 
	{ NOTE_D5, 100 }, 
	{ NOTE_EB5, 200 }, 
	{ NOTE_REST, 200 }, 
	{ NOTE_EB4, 100 }, 
	{ NOTE_C5, 100 }, 
	{ NOTE_BB4, 100 }, 
	{ NOTE_C5, 100 }, 
	{ NOTE_EB4, 100 }, 
	{ NOTE_C5, 100 }, 
	{ NOTE_BB4, 100 }, 
	{ NOTE_C5, 100 }, 
	{ NOTE_EB4, 100 }, 
	{ NOTE_C5, 100 }, 
	{ NOTE_BB4, 100 }, 
	{ NOTE_C5, 100 }, 
	{ NOTE_F4, 100 }, 
	{ NOTE_C5, 100 }, 
	{ NOTE_BB4, 100 }, 
	{ NOTE_C5, 100 }, 
	{ NOTE_F4, 100 }, 
	{ NOTE_C5, 100 }, 
	{ NOTE_BB4, 100 }, 
	{ NOTE_C5, 100 }, 
	{ NOTE_F4, 100 }, 
	{ NOTE_C5, 100 }, 
	{ NOTE_BB4, 100 }, 
	{ NOTE_C5, 100 }, 
	{ NOTE_G4, 100 }, 
	{ NOTE_C5, 100 }, 
	{ NOTE_B4, 100 }, 
	{ NOTE_C5, 100 }, 
	{ NOTE_G4, 100 }, 
	{ NOTE_C5, 100 }, 
	{ NOTE_B4, 100 }, 
	{ NOTE_C5, 100 }, 
	{ NOTE_G4, 100 }, 
	{ NOTE_B4, 100 }, 
	{ NOTE_A4, 100 }, 
	{ NOTE_B4, 100 }, 
	{ NOTE_C5, 100 }, 
	{ NOTE_C4, 100 }, 
	{ NOTE_C4, 100 }, 
	{ NOTE_C4, 100 }, 
	{ NOTE_C4, 100 }, 
	{ NOTE_C4, 100 }, 
	{ NOTE_C4, 100 }, 
	{ NOTE_C4, 100 }, 
	{ NOTE_C4, 100 }, 
	{ NOTE_C4, 100 }, 
	{ NOTE_C4, 100 }, 
	{ NOTE_C4, 100 }, 
	{ NOTE_BB4, 100 }, 
	{ NOTE_C4, 100 }, 
	{ NOTE_C4, 100 }, 
	{ NOTE_C4, 100 }, 
	{ NOTE_C4, 100 }, 
	{ NOTE_C4, 100 }, 
	{ NOTE_C4, 100 }, 
	{ NOTE_C4, 100 }, 
	{ NOTE_C4, 100 }, 
	{ NOTE_C4, 100 }, 
	{ NOTE_C4, 100 }, 
	{ NOTE_C4, 100 }, 
	{ NOTE_AB4, 100 }, 
	{ NOTE_C4, 100 }, 
	{ NOTE_C4, 100 }, 
	{ NOTE_C4, 100 }, 
	{ NOTE_C4, 100 }, 
	{ NOTE_C4, 100 }, 
	{ NOTE_C4, 100 }, 
	{ NOTE_C4, 100 }, 
	{ NOTE_C4, 100 }, 
	{ NOTE_C4, 100 }, 
	{ NOTE_C4, 100 }, 
	{ NOTE_C4, 100 }, 
	{ NOTE_G4, 100 }, 
	{ NOTE_C4, 100 }, 
	{ NOTE_C4, 100 }, 
	{ NOTE_C4, 100 }, 
	{ NOTE_C4, 100 }, 
	{ NOTE_C4, 100 }, 
	{ NOTE_C4, 100 }, 
	{ NOTE_C4, 100 }, 
	{ NOTE_C4, 200 }, 
	{ NOTE_REST, 200 }, 
	{ NOTE_EB5, 100 }, 
	{ NOTE_C5, 100 }, 
	{ NOTE_EB5, 100 }, 
	{ NOTE_C5, 100 }, 
	{ NOTE_EB5, 100 }, 
	{ NOTE_C5, 100 }, 
	{ NOTE_EB5, 100 }, 
	{ NOTE_C5, 100 }, 
	{ NOTE_EB5, 100 }, 
	{ NOTE_C5, 100 }, 
	{ NOTE_EB5, 100 }, 
	{ NOTE_C5, 100 }, 
	{ NOTE_D5, 100 }, 
	{ NOTE_B4, 100 }, 
	{ NOTE_D5, 100 }, 
	{ NOTE_B4, 100 }, 
	{ NOTE_D5, 100 }, 
	{ NOTE_B4, 100 }, 
	{ NOTE_D5, 100 }, 
	{ NOTE_B4, 100 }, 
	{ NOTE_D5, 100 }, 
	{ NOTE_B4, 100 }, 
	{ NOTE_D5, 100 }, 
	{ NOTE_B4, 100 }, 
	{ NOTE_EB5, 100 }, 
	{ NOTE_C5, 100 }, 
	{ NOTE_EB5, 100 }, 
	{ NOTE_C5, 100 }, 
	{ NOTE_EB5, 100 }, 
	{ NOTE_C5, 100 }, 
	{ NOTE_EB5, 100 }, 
	{ NOTE_C5, 100 }, 
	{ NOTE_EB5, 100 }, 
	{ NOTE_C5, 100 }, 
	{ NOTE_EB5, 100 }, 
	{ NOTE_C5, 100 }, 
	{ NOTE_D5, 100 }, 
	{ NOTE_BB4, 100 }, 
	{ NOTE_D5, 100 }, 
	{ NOTE_BB4, 100 }, 
	{ NOTE_D5, 100 }, 
	{ NOTE_BB4, 100 }, 
	{ NOTE_D5, 100 }, 
	{ NOTE_BB4, 100 }, 
	{ NOTE_D5, 100 }, 
	{ NOTE_BB4, 100 }, 
	{ NOTE_D5, 100 }, 
	{ NOTE_BB4, 100 }, 
	{ NOTE_EB5, 100 }, 
	{ NOTE_C5, 100 }, 
	{ NOTE_EB5, 100 }, 
	{ NOTE_C5, 100 }, 
	{ NOTE_EB5, 100 }, 
	{ NOTE_C5, 100 }, 
	{ NOTE_EB5, 100 }, 
	{ NOTE_C5, 100 }, 
	{ NOTE_EB5, 100 }, 
	{ NOTE_C5, 100 }, 
	{ NOTE_EB5, 100 }, 
	{ NOTE_C5, 100 }, 
	{ NOTE_EB5, 100 }, 
	{ NOTE_G5, 100 }, 
	{ NOTE_G5, 100 }, 
	{ NOTE_AB5, 100 }, 
	{ NOTE_AB5, 100 }, 
	{ NOTE_BB5, 100 }, 
	{ NOTE_BB5, 100 }, 
	{ NOTE_C6, 100 }, 
	{ NOTE_C6, 100 }, 
	{ NOTE_D6, 100 }, 
	{ NOTE_D6, 100 }, 
	{ NOTE_EB6, 100 }, 
	{ NOTE_EB6, 100 }, 
	{ NOTE_BB5, 100 }, 
	{ NOTE_G5, 100 }, 
	{ NOTE_EB5, 100 }, 
	{ NOTE_EB6, 100 }, 
	{ NOTE_BB5, 100 }, 
	{ NOTE_G5, 100 }, 
	{ NOTE_EB5, 100 }, 
	{ NOTE_EB6, 100 }, 
	{ NOTE_BB5, 100 }, 
	{ NOTE_G5, 100 }, 
	{ NOTE_EB5, 100 }, 
	{ NOTE_F5, 100 }, 
	{ NOTE_A5, 100 }, 
	{ NOTE_A5, 100 }, 
	{ NOTE_BB5, 100 }, 
	{ NOTE_BB5, 100 }, 
	{ NOTE_C6, 100 }, 
	{ NOTE_C6, 100 }, 
	{ NOTE_D6, 100 }, 
	{ NOTE_D6, 100 }, 
	{ NOTE_EB6, 100 }, 
	{ NOTE_EB6, 100 }, 
	{ NOTE_F6, 100 }, 
	{ NOTE_F6, 100 }, 
	{ NOTE_C6, 100 }, 
	{ NOTE_A5, 100 }, 
	{ NOTE_F5, 100 }, 
	{ NOTE_F6, 100 }, 
	{ NOTE_C6, 100 }, 
	{ NOTE_A5, 100 }, 
	{ NOTE_F5, 100 }, 
	{ NOTE_F6, 100 }, 
	{ NOTE_C6, 100 }, 
	{ NOTE_A5, 100 }, 
	{ NOTE_F5, 100 }, 
	{ NOTE_G5, 100 }, 
	{ NOTE_BB5, 100 }, 
	{ NOTE_BB5, 100 }, 
	{ NOTE_C6, 100 }, 
	{ NOTE_C6, 100 }, 
	{ NOTE_D6, 100 }, 
	{ NOTE_D6, 100 }, 
	{ NOTE_EB6, 100 }, 
	{ NOTE_EB6, 100 }, 
	{ NOTE_F6, 100 }, 
	{ NOTE_F6, 100 }, 
	{ NOTE_G6, 100 }, 
	{ NOTE_G6, 100 }, 
	{ NOTE_D6, 100 }, 
	{ NOTE_B5, 100 }, 
	{ NOTE_G5, 100 }, 
	{ NOTE_G6, 100 }, 
	{ NOTE_D6, 100 }, 
	{ NOTE_B5, 100 }, 
	{ NOTE_G5, 100 }, 
	{ NOTE_G6, 100 }, 
	{ NOTE_D6, 100 }, 
	{ NOTE_B5, 100 }, 
	{ NOTE_G5, 100 }, 
	{ NOTE_EB6, 100 }, 
	{ NOTE_C4, 100 }, 
	{ NOTE_C4, 100 }, 
	{ NOTE_C4, 100 }, 
	{ NOTE_C4, 100 }, 
	{ NOTE_C4, 100 }, 
	{ NOTE_C4, 100 }, 
	{ NOTE_C4, 100 }, 
	{ NOTE_C4, 100 }, 
	{ NOTE_C4, 100 }, 
	{ NOTE_C4, 100 }, 
	{ NOTE_C4, 100 }, 
	{ NOTE_AB4, 100 }, 
	{ NOTE_C4, 100 }, 
	{ NOTE_C4, 100 }, 
	{ NOTE_C4, 100 }, 
	{ NOTE_AB4, 100 }, 
	{ NOTE_C4, 100 }, 
	{ NOTE_C4, 100 }, 
	{ NOTE_C4, 100 }, 
	{ NOTE_AB4, 100 }, 
	{ NOTE_C4, 100 }, 
	{ NOTE_C4, 100 }, 
	{ NOTE_C4, 100 }, 
	{ NOTE_B3, 100 }, 
	{ NOTE_B3, 100 }, 
	{ NOTE_B3, 100 }, 
	{ NOTE_B3, 100 }, 
	{ NOTE_B3, 100 }, 
	{ NOTE_B3, 100 }, 
	{ NOTE_B3, 100 }, 
	{ NOTE_B3, 100 }, 
	{ NOTE_B3, 100 }, 
	{ NOTE_B3, 100 }, 
	{ NOTE_B3, 100 }, 
	{ NOTE_B3, 100 }, 
	{ NOTE_G4, 100 }, 
	{ NOTE_BB3, 100 }, 
	{ NOTE_BB3, 100 }, 
	{ NOTE_BB3, 100 }, 
	{ NOTE_G4, 100 }, 
	{ NOTE_BB3, 100 }, 
	{ NOTE_BB3, 100 }, 
	{ NOTE_BB3, 100 }, 
	{ NOTE_G4, 100 }, 
	{ NOTE_BB3, 100 }, 
	{ NOTE_BB3, 100 }, 
	{ NOTE_BB3, 100 }, 
	{ NOTE_A3, 100 }, 
	{ NOTE_A3, 100 }, 
	{ NOTE_A3, 100 }, 
	{ NOTE_A3, 100 }, 
	{ NOTE_A3, 100 }, 
	{ NOTE_A3, 100 }, 
	{ NOTE_A3, 100 }, 
	{ NOTE_A3, 100 }, 
	{ NOTE_A3, 100 }, 
	{ NOTE_A3, 100 }, 
	{ NOTE_A3, 100 }, 
	{ NOTE_A3, 100 }, 
	{ NOTE_F4, 100 }, 
	{ NOTE_AB3, 100 }, 
	{ NOTE_AB3, 100 }, 
	{ NOTE_AB3, 100 }, 
	{ NOTE_F4, 100 }, 
	{ NOTE_AB3, 100 }, 
	{ NOTE_AB3, 100 }, 
	{ NOTE_AB3, 100 }, 
	{ NOTE_F4, 100 }, 
	{ NOTE_AB3, 100 }, 
	{ NOTE_AB3, 100 }, 
	{ NOTE_AB3, 100 }, 
	{ NOTE_G3, 100 }, 
	{ NOTE_G4, 100 }, 
	{ NOTE_G4, 100 }, 
	{ NOTE_G4, 100 }, 
	{ NOTE_G4, 100 }, 
	{ NOTE_G4, 100 }, 
	{ NOTE_G4, 100 }, 
	{ NOTE_G4, 100 }, 
	{ NOTE_G4, 100 }, 
	{ NOTE_G4, 100 }, 
	{ NOTE_G4, 100 }, 
	{ NOTE_G4, 100 }, 
	{ NOTE_EB5, 100 }, 
	{ NOTE_G4, 100 }, 
	{ NOTE_G4, 100 }, 
	{ NOTE_G4, 100 }, 
	{ NOTE_EB5, 100 }, 
	{ NOTE_G4, 100 }, 
	{ NOTE_G4, 100 }, 
	{ NOTE_G4, 100 }, 
	{ NOTE_EB5, 100 }, 
	{ NOTE_G4, 100 }, 
	{ NOTE_G4, 100 }, 
	{ NOTE_G4, 100 }, 
	{ NOTE_FS4, 100 }, 
	{ NOTE_FS4, 100 }, 
	{ NOTE_FS4, 100 }, 
	{ NOTE_FS4, 100 }, 
	{ NOTE_FS4, 100 }, 
	{ NOTE_FS4, 100 }, 
	{ NOTE_FS4, 100 }, 
	{ NOTE_FS4, 100 }, 
	{ NOTE_FS4, 100 }, 
	{ NOTE_FS4, 100 }, 
	{ NOTE_FS4, 100 }, 
	{ NOTE_FS4, 100 }, 
	{ NOTE_D5, 100 }, 
	{ NOTE_F4, 100 }, 
	{ NOTE_F4, 100 }, 
	{ NOTE_F4, 100 }, 
	{ NOTE_D5, 100 }, 
	{ NOTE_F4, 100 }, 
	{ NOTE_F4, 100 }, 
	{ NOTE_F4, 100 }, 
	{ NOTE_D5, 100 }, 
	{ NOTE_F4, 100 }, 
	{ NOTE_F4, 100 }, 
	{ NOTE_F4, 100 }, 
	{ NOTE_E4, 100 }, 
	{ NOTE_E4, 100 }, 
	{ NOTE_E4, 100 }, 
	{ NOTE_E4, 100 }, 
	{ NOTE_E4, 100 }, 
	{ NOTE_E4, 100 }, 
	{ NOTE_E4, 100 }, 
	{ NOTE_E4, 100 }, 
	{ NOTE_E4, 100 }, 
	{ NOTE_E4, 100 }, 
	{ NOTE_E4, 100 }, 
	{ NOTE_E4, 100 }, 
	{ NOTE_C5, 100 }, 
	{ NOTE_EB4, 100 }, 
	{ NOTE_EB4, 100 }, 
	{ NOTE_EB4, 100 }, 
	{ NOTE_C5, 100 }, 
	{ NOTE_EB4, 100 }, 
	{ NOTE_EB4, 100 }, 
	{ NOTE_EB4, 100 }, 
	{ NOTE_C5, 100 }, 
	{ NOTE_EB4, 100 }, 
	{ NOTE_EB4, 100 }, 
	{ NOTE_EB4, 100 }, 
	{ NOTE_D4, 100 }, 
	{ NOTE_D4, 100 }, 
	{ NOTE_D4, 100 }, 
	{ NOTE_D4, 100 }, 
	{ NOTE_FS4, 100 }, 
	{ NOTE_D4, 100 }, 
	{ NOTE_D4, 100 }, 
	{ NOTE_D4, 100 }, 
	{ NOTE_A4, 100 }, 
	{ NOTE_D4, 100 }, 
	{ NOTE_D4, 100 }, 
	{ NOTE_D4, 100 }, 
	{ NOTE_BB4, 100 }, 
	{ NOTE_D4, 100 }, 
	{ NOTE_D4, 100 }, 
	{ NOTE_D4, 100 }, 
	{ NOTE_C5, 100 }, 
	{ NOTE_D4, 100 }, 
	{ NOTE_D4, 100 }, 
	{ NOTE_D4, 100 }, 
	{ NOTE_D5, 100 }, 
	{ NOTE_D4, 100 }, 
	{ NOTE_D4, 100 }, 
	{ NOTE_D4, 100 }, 
	{ NOTE_EB5, 100 }, 
	{ NOTE_D4, 100 }, 
	{ NOTE_D4, 100 }, 
	{ NOTE_D4, 100 }, 
	{ NOTE_FS5, 100 }, 
	{ NOTE_D4, 100 }, 
	{ NOTE_D4, 100 }, 
	{ NOTE_D4, 100 }, 
	{ NOTE_G5, 100 }, 
	{ NOTE_D4, 100 }, 
	{ NOTE_D4, 100 }, 
	{ NOTE_D4, 100 }, 
	{ NOTE_A5, 100 }, 
	{ NOTE_D4, 100 }, 
	{ NOTE_D4, 100 }, 
	{ NOTE_D4, 100 }, 
	{ NOTE_BB5, 100 }, 
	{ NOTE_D4, 100 }, 
	{ NOTE_D4, 100 }, 
	{ NOTE_D4, 100 }, 
	{ NOTE_C6, 100 }, 
	{ NOTE_D4, 100 }, 
	{ NOTE_D4, 100 }, 
	{ NOTE_D4, 100 }, 
	{ NOTE_D6, 100 }, 
	{ NOTE_D5, 100 }, 
	{ NOTE_C5, 100 }, 
	{ NOTE_BB4, 100 }, 
	{ NOTE_A4, 100 }, 
	{ NOTE_G4, 100 }, 
	{ NOTE_FS4, 100 }, 
	{ NOTE_E4, 100 }, 
	{ NOTE_D4, 100 }, 
	{ NOTE_C4, 100 }, 
	{ NOTE_BB3, 100 }, 
	{ NOTE_A3, 100 }, 
	{ NOTE_G3, 100 }, 
	{ NOTE_G3, 100 }, 
	{ NOTE_G3, 100 }, 
	{ NOTE_G3, 100 }, 
	{ NOTE_G3, 100 }, 
	{ NOTE_G3, 100 }, 
	{ NOTE_G3, 100 }, 
	{ NOTE_G3, 100 }, 
	{ NOTE_G3, 100 }, 
	{ NOTE_G3, 100 }, 
	{ NOTE_G3, 100 }, 
	{ NOTE_G3, 100 }, 
	{ NOTE_G3, 100 }, 
	{ NOTE_G5, 100 }, 
	{ NOTE_F5, 100 }, 
	{ NOTE_EB5, 100 }, 
	{ NOTE_D5, 100 }, 
	{ NOTE_C5, 100 }, 
	{ NOTE_BB4, 100 }, 
	{ NOTE_A4, 100 }, 
	{ NOTE_G4, 100 }, 
	{ NOTE_F4, 100 }, 
	{ NOTE_EB4, 100 }, 
	{ NOTE_D4, 100 }, 
	{ NOTE_C4, 100 }, 
	{ NOTE_C4, 100 }, 
	{ NOTE_C4, 100 }, 
	{ NOTE_C4, 100 }, 
	{ NOTE_C4, 100 }, 
	{ NOTE_C4, 100 }, 
	{ NOTE_C4, 100 }, 
	{ NOTE_C4, 100 }, 
	{ NOTE_C4, 100 }, 
	{ NOTE_C4, 100 }, 
	{ NOTE_C4, 100 }, 
	{ NOTE_C4, 100 }, 
	{ NOTE_C4, 100 }, 
	{ NOTE_BB5, 100 }, 
	{ NOTE_A5, 100 }, 
	{ NOTE_G5, 100 }, 
	{ NOTE_F5, 100 }, 
	{ NOTE_EB5, 100 }, 
	{ NOTE_D5, 100 }, 
	{ NOTE_C5, 100 }, 
	{ NOTE_BB4, 100 }, 
	{ NOTE_A4, 100 }, 
	{ NOTE_G4, 100 }, 
	{ NOTE_F4, 100 }, 
	{ NOTE_EB4, 100 }, 
	{ NOTE_EB4, 100 }, 
	{ NOTE_EB4, 100 }, 
	{ NOTE_EB4, 100 }, 
	{ NOTE_EB4, 100 }, 
	{ NOTE_EB4, 100 }, 
	{ NOTE_EB4, 100 }, 
	{ NOTE_EB4, 100 }, 
	{ NOTE_EB4, 100 }, 
	{ NOTE_EB4, 100 }, 
	{ NOTE_EB4, 100 }, 
	{ NOTE_EB4, 100 }, 
	{ NOTE_EB4, 100 }, 
	{ NOTE_D6, 100 }, 
	{ NOTE_C6, 100 }, 
	{ NOTE_BB5, 100 }, 
	{ NOTE_A5, 100 }, 
	{ NOTE_G5, 100 }, 
	{ NOTE_FS5, 100 }, 
	{ NOTE_E5, 100 }, 
	{ NOTE_D5, 100 }, 
	{ NOTE_C5, 100 }, 
	{ NOTE_BB4, 100 }, 
	{ NOTE_A4, 100 }, 
	{ NOTE_G4, 100 }, 
	{ NOTE_G4, 100 }, 
	{ NOTE_G4, 100 }, 
	{ NOTE_G4, 100 }, 
	{ NOTE_G4, 100 }, 
	{ NOTE_G4, 100 }, 
	{ NOTE_G4, 100 }, 
	{ NOTE_G4, 100 }, 
	{ NOTE_G4, 100 }, 
	{ NOTE_G4, 100 }, 
	{ NOTE_G4, 100 }, 
	{ NOTE_G4, 100 }, 
	{ NOTE_D5, 100 }, 
	{ NOTE_G4, 100 }, 
	{ NOTE_G3, 100 }, 
	{ NOTE_G4, 100 }, 
	{ NOTE_EB5, 100 }, 
	{ NOTE_G4, 100 }, 
	{ NOTE_G3, 100 }, 
	{ NOTE_G4, 100 }, 
	{ NOTE_FS5, 100 }, 
	{ NOTE_G4, 100 }, 
	{ NOTE_G3, 100 }, 
	{ NOTE_G4, 100 }, 
	{ NOTE_G5, 100 }, 
	{ NOTE_G4, 100 }, 
	{ NOTE_G3, 100 }, 
	{ NOTE_G4, 100 }, 
	{ NOTE_F5, 100 }, 
	{ NOTE_G4, 100 }, 
	{ NOTE_G3, 100 }, 
	{ NOTE_G4, 100 }, 
	{ NOTE_EB5, 100 }, 
	{ NOTE_G4, 100 }, 
	{ NOTE_G3, 100 }, 
	{ NOTE_G4, 100 }, 
	{ NOTE_D5, 100 }, 
	{ NOTE_G4, 100 }, 
	{ NOTE_G3, 100 }, 
	{ NOTE_G4, 100 }, 
	{ NOTE_EB5, 100 }, 
	{ NOTE_G4, 100 }, 
	{ NOTE_G3, 100 }, 
	{ NOTE_G4, 100 }, 
	{ NOTE_FS5, 100 }, 
	{ NOTE_G4, 100 }, 
	{ NOTE_G3, 100 }, 
	{ NOTE_G4, 100 }, 
	{ NOTE_G5, 100 }, 
	{ NOTE_G4, 100 }, 
	{ NOTE_G3, 100 }, 
	{ NOTE_G4, 100 }, 
	{ NOTE_F5, 100 }, 
	{ NOTE_G4, 100 }, 
	{ NOTE_G3, 100 }, 
	{ NOTE_G4, 100 }, 
	{ NOTE_EB5, 100 }, 
	{ NOTE_G4, 100 }, 
	{ NOTE_G3, 100 }, 
	{ NOTE_G4, 100 }, 
	{ NOTE_G3, 100 }, 
	{ NOTE_G4, 100 }, 
	{ NOTE_A4, 100 }, 
	{ NOTE_BB4, 100 }, 
	{ NOTE_C5, 100 }, 
	{ NOTE_D5, 100 }, 
	{ NOTE_E5, 100 }, 
	{ NOTE_FS5, 100 }, 
	{ NOTE_G5, 100 }, 
	{ NOTE_A5, 100 }, 
	{ NOTE_BB5, 100 }, 
	{ NOTE_A5, 100 }, 
	{ NOTE_G5, 100 }, 
	{ NOTE_F5, 100 }, 
	{ NOTE_EB5, 100 }, 
	{ NOTE_D5, 100 }, 
	{ NOTE_C5, 100 }, 
	{ NOTE_BB4, 100 }, 
	{ NOTE_A4, 100 }, 
	{ NOTE_G4, 100 }, 
	{ NOTE_FS4, 100 }, 
	{ NOTE_E4, 100 }, 
	{ NOTE_D4, 100 }, 
	{ NOTE_C4, 100 }, 
	{ NOTE_BB3, 100 }, 
	{ NOTE_G3, 100 }, 
	{ NOTE_BB3, 100 }, 
	{ NOTE_G3, 100 }, 
	{ NOTE_BB3, 100 }, 
	{ NOTE_G3, 100 }, 
	{ NOTE_BB3, 100 }, 
	{ NOTE_G3, 100 }, 
	{ NOTE_BB3, 100 }, 
	{ NOTE_G3, 100 }, 
	{ NOTE_BB3, 100 }, 
	{ NOTE_G3, 100 }, 
	{ NOTE_EB4, 100 }, 
	{ NOTE_D4, 100 }, 
	{ NOTE_FS4, 100 }, 
	{ NOTE_E4, 100 }, 
	{ NOTE_G4, 100 }, 
	{ NOTE_FS4, 100 }, 
	{ NOTE_A4, 100 }, 
	{ NOTE_G4, 100 }, 
	{ NOTE_BB4, 100 }, 
	{ NOTE_A4, 100 }, 
	{ NOTE_C5, 100 }, 
	{ NOTE_BB4, 100 }, 
	{ NOTE_D5, 100 }, 
	{ NOTE_C5, 100 }, 
	{ NOTE_EB5, 100 }, 
	{ NOTE_D5, 100 }, 
	{ NOTE_F5, 100 }, 
	{ NOTE_E5, 100 }, 
	{ NOTE_G5, 100 }, 
	{ NOTE_FS5, 100 }, 
	{ NOTE_A5, 100 }, 
	{ NOTE_G5, 100 }, 
	{ NOTE_BB5, 100 }, 
	{ NOTE_A5, 100 }, 
	{ NOTE_EB4, 100 }, 
	{ NOTE_D4, 100 }, 
	{ NOTE_FS4, 100 }, 
	{ NOTE_E4, 100 }, 
	{ NOTE_G4, 100 }, 
	{ NOTE_FS4, 100 }, 
	{ NOTE_A4, 100 }, 
	{ NOTE_G4, 100 }, 
	{ NOTE_BB4, 100 }, 
	{ NOTE_A4, 100 }, 
	{ NOTE_C5, 100 }, 
	{ NOTE_BB4, 100 }, 
	{ NOTE_D5, 100 }, 
	{ NOTE_C5, 100 }, 
	{ NOTE_EB5, 100 }, 
	{ NOTE_D5, 100 }, 
	{ NOTE_F5, 100 }, 
	{ NOTE_E5, 100 }, 
	{ NOTE_G5, 100 }, 
	{ NOTE_FS5, 100 }, 
	{ NOTE_A5, 100 }, 
	{ NOTE_G5, 100 }, 
	{ NOTE_BB5, 100 }, 
	{ NOTE_A5, 100 }, 
	{ NOTE_D4, 100 }, 
	{ NOTE_D4, 100 }, 
	{ NOTE_D4, 100 }, 
	{ NOTE_D4, 100 }, 
	{ NOTE_D4, 100 }, 
	{ NOTE_D4, 100 }, 
	{ NOTE_D4, 100 }, 
	{ NOTE_D4, 100 }, 
	{ NOTE_D4, 100 }, 
	{ NOTE_D4, 100 }, 
	{ NOTE_D4, 100 }, 
	{ NOTE_D4, 100 }, 
	{ NOTE_G4, 100 }, 
	{ NOTE_D4, 100 }, 
	{ NOTE_BB3, 100 }, 
	{ NOTE_G3, 100 }, 
	{ NOTE_G4, 100 }, 
	{ NOTE_D4, 100 }, 
	{ NOTE_BB3, 100 }, 
	{ NOTE_G3, 100 }, 
	{ NOTE_G4, 100 }, 
	{ NOTE_D4, 100 }, 
	{ NOTE_BB3, 100 }, 
	{ NOTE_G3, 100 }, 
	{ NOTE_G4, 100 }, 
	{ NOTE_G4, 100 }, 
	{ NOTE_G4, 100 }, 
	{ NOTE_G4, 100 }, 
	{ NOTE_G4, 100 }, 
	{ NOTE_G4, 100 }, 
	{ NOTE_G4, 100 }, 
	{ NOTE_G4, 100 }, 
	{ NOTE_G4, 100 }, 
	{ NOTE_G4, 100 }, 
	{ NOTE_G4, 100 }, 
	{ NOTE_G4, 100 }, 
	{ NOTE_FS4, 100 }, 
	{ NOTE_FS4, 100 }, 
	{ NOTE_FS4, 100 }, 
	{ NOTE_FS4, 100 }, 
	{ NOTE_FS4, 100 }, 
	{ NOTE_FS4, 100 }, 
	{ NOTE_FS4, 100 }, 
	{ NOTE_FS4, 100 }, 
	{ NOTE_FS4, 100 }, 
	{ NOTE_FS4, 100 }, 
	{ NOTE_FS4, 100 }, 
	{ NOTE_FS4, 100 }, 
	{ NOTE_G4, 100 }, 
	{ NOTE_D4, 100 }, 
	{ NOTE_BB3, 100 }, 
	{ NOTE_G3, 100 }, 
	{ NOTE_G4, 100 }, 
	{ NOTE_D4, 100 }, 
	{ NOTE_BB3, 100 }, 
	{ NOTE_G3, 100 }, 
	{ NOTE_G4, 100 }, 
	{ NOTE_D4, 100 }, 
	{ NOTE_BB3, 100 }, 
	{ NOTE_G3, 100 }, 
	{ NOTE_G4, 100 }, 
	{ NOTE_G4, 100 }, 
	{ NOTE_G4, 100 }, 
	{ NOTE_G4, 100 }, 
	{ NOTE_G4, 100 }, 
	{ NOTE_G4, 100 }, 
	{ NOTE_G4, 100 }, 
	{ NOTE_G4, 100 }, 
	{ NOTE_G4, 100 }, 
	{ NOTE_G4, 100 }, 
	{ NOTE_G4, 100 }, 
	{ NOTE_G4, 100 }, 
	{ NOTE_FS4, 100 }, 
	{ NOTE_FS4, 100 }, 
	{ NOTE_FS4, 100 }, 
	{ NOTE_FS4, 100 }, 
	{ NOTE_FS4, 100 }, 
	{ NOTE_FS4, 100 }, 
	{ NOTE_FS4, 100 }, 
	{ NOTE_FS4, 100 }, 
	{ NOTE_FS4, 100 }, 
	{ NOTE_FS4, 100 }, 
	{ NOTE_FS4, 100 }, 
	{ NOTE_FS4, 100 }, 
	{ NOTE_G4, 100 }, 
	{ NOTE_G4, 100 }, 
	{ NOTE_G4, 100 }, 
	{ NOTE_G4, 100 }, 
	{ NOTE_BB4, 100 }, 
	{ NOTE_BB4, 100 }, 
	{ NOTE_BB4, 100 }, 
	{ NOTE_BB4, 100 }, 
	{ NOTE_D5, 100 }, 
	{ NOTE_D5, 100 }, 
	{ NOTE_D5, 100 }, 
	{ NOTE_D5, 100 }, 
	{ NOTE_G5, 100 }, 
	{ NOTE_G5, 100 }, 
	{ NOTE_G5, 100 }, 
	{ NOTE_G5, 100 }, 
	{ NOTE_BB5, 100 }, 
	{ NOTE_BB5, 100 }, 
	{ NOTE_BB5, 100 }, 
	{ NOTE_BB5, 100 }, 
	{ NOTE_G5, 100 }, 
	{ NOTE_G5, 100 }, 
	{ NOTE_G5, 100 }, 
	{ NOTE_G5, 100 }, 
	{ NOTE_D5, 100 }, 
	{ NOTE_D5, 100 }, 
	{ NOTE_D5, 100 }, 
	{ NOTE_D5, 100 }, 
	{ NOTE_BB4, 100 }, 
	{ NOTE_BB4, 100 }, 
	{ NOTE_BB4, 100 }, 
	{ NOTE_BB4, 100 }, 
	{ NOTE_G4, 100 }, 
	{ NOTE_G4, 100 }, 
	{ NOTE_G4, 100 }, 
	{ NOTE_G4, 100 }, 
	{ NOTE_G3, 1200 }, 
};
const uint16_t NUM_OF_NOTES0 = sizeof(melody0)/sizeof(melody0[0]);

const Note melody1[] PROGMEM = {
	{ NOTE_G4, 100 }, 
	{ NOTE_G3, 100 }, 
	{ NOTE_G3, 100 }, 
	{ NOTE_G3, 100 }, 
	{ NOTE_G3, 100 }, 
	{ NOTE_G3, 100 }, 
	{ NOTE_G3, 100 }, 
	{ NOTE_G3, 100 }, 
	{ NOTE_G3, 100 }, 
	{ NOTE_G3, 100 }, 
	{ NOTE_G3, 100 }, 
	{ NOTE_G3, 100 }, 
	{ NOTE_F4, 100 }, 
	{ NOTE_G3, 100 }, 
	{ NOTE_G3, 100 }, 
	{ NOTE_G3, 100 }, 
	{ NOTE_G3, 100 }, 
	{ NOTE_G3, 100 }, 
	{ NOTE_G3, 100 }, 
	{ NOTE_G3, 100 }, 
	{ NOTE_G3, 100 }, 
	{ NOTE_G3, 100 }, 
	{ NOTE_G3, 100 }, 
	{ NOTE_G3, 100 }, 
	{ NOTE_EB4, 100 }, 
	{ NOTE_G3, 100 }, 
	{ NOTE_G3, 100 }, 
	{ NOTE_G3, 100 }, 
	{ NOTE_G3, 100 }, 
	{ NOTE_G3, 100 }, 
	{ NOTE_G3, 100 }, 
	{ NOTE_G3, 100 }, 
	{ NOTE_G3, 100 }, 
	{ NOTE_G3, 100 }, 
	{ NOTE_G3, 100 }, 
	{ NOTE_G3, 100 }, 
	{ NOTE_D4, 100 }, 
	{ NOTE_G3, 100 }, 
	{ NOTE_G3, 100 }, 
	{ NOTE_G3, 100 }, 
	{ NOTE_G3, 100 }, 
	{ NOTE_G3, 100 }, 
	{ NOTE_G3, 100 }, 
	{ NOTE_G3, 100 }, 
	{ NOTE_G3, 100 }, 
	{ NOTE_G3, 100 }, 
	{ NOTE_REST, 200 }, 
	{ NOTE_REST, 1200 }, 
	{ NOTE_D5, 100 }, 
	{ NOTE_D4, 100 }, 
	{ NOTE_D4, 100 }, 
	{ NOTE_D4, 100 }, 
	{ NOTE_D4, 100 }, 
	{ NOTE_D4, 100 }, 
	{ NOTE_D4, 100 }, 
	{ NOTE_D4, 100 }, 
	{ NOTE_D4, 100 }, 
	{ NOTE_D4, 100 }, 
	{ NOTE_D4, 100 }, 
	{ NOTE_D4, 100 }, 
	{ NOTE_C5, 100 }, 
	{ NOTE_D4, 100 }, 
	{ NOTE_D4, 100 }, 
	{ NOTE_D4, 100 }, 
	{ NOTE_D4, 100 }, 
	{ NOTE_D4, 100 }, 
	{ NOTE_D4, 100 }, 
	{ NOTE_D4, 100 }, 
	{ NOTE_D4, 100 }, 
	{ NOTE_D4, 100 }, 
	{ NOTE_D4, 100 }, 
	{ NOTE_D4, 100 }, 
	{ NOTE_BB4, 100 }, 
	{ NOTE_D4, 100 }, 
	{ NOTE_D4, 100 }, 
	{ NOTE_D4, 100 }, 
	{ NOTE_D4, 100 }, 
	{ NOTE_D4, 100 }, 
	{ NOTE_D4, 100 }, 
	{ NOTE_D4, 100 }, 
	{ NOTE_D4, 100 }, 
	{ NOTE_D4, 100 }, 
	{ NOTE_D4, 100 }, 
	{ NOTE_D4, 100 }, 
	{ NOTE_A4, 100 }, 
	{ NOTE_D4, 100 }, 
	{ NOTE_D4, 100 }, 
	{ NOTE_D4, 100 }, 
	{ NOTE_D4, 100 }, 
	{ NOTE_D4, 100 }, 
	{ NOTE_D4, 100 }, 
	{ NOTE_D4, 100 }, 
	{ NOTE_D4, 100 }, 
	{ NOTE_D4, 100 }, 
	{ NOTE_REST, 200 }, 
	{ NOTE_REST, 100 }, 
	{ NOTE_D5, 100 }, 
	{ NOTE_C5, 100 }, 
	{ NOTE_BB4, 100 }, 
	{ NOTE_A4, 100 }, 
	{ NOTE_G4, 100 }, 
	{ NOTE_FS4, 100 }, 
	{ NOTE_E4, 100 }, 
	{ NOTE_D4, 100 }, 
	{ NOTE_C4, 100 }, 
	{ NOTE_BB3, 100 }, 
	{ NOTE_A3, 100 }, 
	{ NOTE_G3, 100 }, 
	{ NOTE_G3, 100 }, 
	{ NOTE_G3, 100 }, 
	{ NOTE_G3, 100 }, 
	{ NOTE_G3, 100 }, 
	{ NOTE_G3, 100 }, 
	{ NOTE_G3, 100 }, 
	{ NOTE_G3, 100 }, 
	{ NOTE_G3, 100 }, 
	{ NOTE_G3, 100 }, 
	{ NOTE_G3, 100 }, 
	{ NOTE_G3, 100 }, 
	{ NOTE_G3, 100 }, 
	{ NOTE_G5, 100 }, 
	{ NOTE_F5, 100 }, 
	{ NOTE_EB5, 100 }, 
	{ NOTE_D5, 100 }, 
	{ NOTE_C5, 100 }, 
	{ NOTE_BB4, 100 }, 
	{ NOTE_A4, 100 }, 
	{ NOTE_G4, 100 }, 
	{ NOTE_F4, 100 }, 
	{ NOTE_EB4, 100 }, 
	{ NOTE_D4, 100 }, 
	{ NOTE_C4, 100 }, 
	{ NOTE_C4, 100 }, 
	{ NOTE_C4, 100 }, 
	{ NOTE_C4, 100 }, 
	{ NOTE_C4, 100 }, 
	{ NOTE_C4, 100 }, 
	{ NOTE_C4, 100 }, 
	{ NOTE_C4, 100 }, 
	{ NOTE_C4, 100 }, 
	{ NOTE_C4, 100 }, 
	{ NOTE_C4, 100 }, 
	{ NOTE_C4, 100 }, 
	{ NOTE_C4, 100 }, 
	{ NOTE_BB5, 100 }, 
	{ NOTE_A5, 100 }, 
	{ NOTE_G5, 100 }, 
	{ NOTE_F5, 100 }, 
	{ NOTE_EB5, 100 }, 
	{ NOTE_D5, 100 }, 
	{ NOTE_C5, 100 }, 
	{ NOTE_BB4, 100 }, 
	{ NOTE_A4, 100 }, 
	{ NOTE_G4, 100 }, 
	{ NOTE_F4, 100 }, 
	{ NOTE_EB4, 100 }, 
	{ NOTE_EB4, 100 }, 
	{ NOTE_EB4, 100 }, 
	{ NOTE_EB4, 100 }, 
	{ NOTE_EB4, 100 }, 
	{ NOTE_EB4, 100 }, 
	{ NOTE_EB4, 100 }, 
	{ NOTE_EB4, 100 }, 
	{ NOTE_EB4, 100 }, 
	{ NOTE_EB4, 100 }, 
	{ NOTE_EB4, 100 }, 
	{ NOTE_EB4, 100 }, 
	{ NOTE_EB4, 100 }, 
	{ NOTE_D6, 100 }, 
	{ NOTE_C6, 100 }, 
	{ NOTE_BB5, 100 }, 
	{ NOTE_A5, 100 }, 
	{ NOTE_G5, 100 }, 
	{ NOTE_FS5, 100 }, 
	{ NOTE_E5, 100 }, 
	{ NOTE_D5, 100 }, 
	{ NOTE_C5, 100 }, 
	{ NOTE_BB4, 100 }, 
	{ NOTE_A4, 100 }, 
	{ NOTE_G4, 100 }, 
	{ NOTE_G4, 100 }, 
	{ NOTE_G4, 100 }, 
	{ NOTE_G4, 100 }, 
	{ NOTE_G4, 100 }, 
	{ NOTE_G4, 100 }, 
	{ NOTE_G4, 100 }, 
	{ NOTE_G4, 100 }, 
	{ NOTE_G4, 100 }, 
	{ NOTE_G4, 100 }, 
	{ NOTE_G4, 100 }, 
	{ NOTE_G4, 100 }, 
	{ NOTE_EB4, 100 }, 
	{ NOTE_D6, 100 }, 
	{ NOTE_C6, 100 }, 
	{ NOTE_BB5, 100 }, 
	{ NOTE_A5, 100 }, 
	{ NOTE_G5, 100 }, 
	{ NOTE_F5, 100 }, 
	{ NOTE_E5, 100 }, 
	{ NOTE_D5, 100 }, 
	{ NOTE_C5, 100 }, 
	{ NOTE_BB4, 100 }, 
	{ NOTE_A4, 100 }, 
	{ NOTE_G4, 100 }, 
	{ NOTE_G4, 100 }, 
	{ NOTE_G4, 100 }, 
	{ NOTE_G4, 100 }, 
	{ NOTE_G4, 100 }, 
	{ NOTE_G4, 100 }, 
	{ NOTE_G4, 100 }, 
	{ NOTE_G4, 100 }, 
	{ NOTE_G4, 100 }, 
	{ NOTE_G4, 100 }, 
	{ NOTE_G4, 100 }, 
	{ NOTE_G4, 100 }, 
	{ NOTE_D5, 100 }, 
	{ NOTE_G4, 100 }, 
	{ NOTE_G4, 100 }, 
	{ NOTE_G4, 100 }, 
	{ NOTE_D5, 100 }, 
	{ NOTE_G4, 100 }, 
	{ NOTE_G4, 100 }, 
	{ NOTE_G4, 100 }, 
	{ NOTE_D5, 100 }, 
	{ NOTE_G4, 100 }, 
	{ NOTE_G4, 100 }, 
	{ NOTE_G4, 100 }, 
	{ NOTE_D4, 100 }, 
	{ NOTE_A4, 100 }, 
	{ NOTE_BB4, 100 }, 
	{ NOTE_C5, 100 }, 
	{ NOTE_D5, 100 }, 
	{ NOTE_E5, 100 }, 
	{ NOTE_FS5, 100 }, 
	{ NOTE_G5, 100 }, 
	{ NOTE_A5, 200 }, 
	{ NOTE_REST, 200 }, 
	{ NOTE_REST, 100 }, 
	{ NOTE_A4, 100 }, 
	{ NOTE_BB4, 100 }, 
	{ NOTE_C5, 100 }, 
	{ NOTE_D5, 100 }, 
	{ NOTE_E5, 100 }, 
	{ NOTE_FS5, 100 }, 
	{ NOTE_G5, 100 }, 
	{ NOTE_A5, 200 }, 
	{ NOTE_REST, 200 }, 
	{ NOTE_REST, 100 }, 
	{ NOTE_BB4, 100 }, 
	{ NOTE_C5, 100 }, 
	{ NOTE_D5, 100 }, 
	{ NOTE_EB5, 100 }, 
	{ NOTE_FS5, 100 }, 
	{ NOTE_G5, 100 }, 
	{ NOTE_A5, 100 }, 
	{ NOTE_BB5, 200 }, 
	{ NOTE_REST, 200 }, 
	{ NOTE_REST, 100 }, 
	{ NOTE_D5, 100 }, 
	{ NOTE_E5, 100 }, 
	{ NOTE_FS5, 100 }, 
	{ NOTE_G5, 100 }, 
	{ NOTE_A5, 100 }, 
	{ NOTE_BB5, 100 }, 
	{ NOTE_C6, 100 }, 
	{ NOTE_D6, 200 }, 
	{ NOTE_REST, 200 }, 
	{ NOTE_REST, 100 }, 
	{ NOTE_D5, 100 }, 
	{ NOTE_E5, 100 }, 
	{ NOTE_FS5, 100 }, 
	{ NOTE_G5, 100 }, 
	{ NOTE_A5, 100 }, 
	{ NOTE_BB5, 100 }, 
	{ NOTE_C6, 100 }, 
	{ NOTE_D6, 200 }, 
	{ NOTE_REST, 200 }, 
	{ NOTE_REST, 100 }, 
	{ NOTE_A4, 100 }, 
	{ NOTE_BB4, 100 }, 
	{ NOTE_C5, 100 }, 
	{ NOTE_D5, 100 }, 
	{ NOTE_E5, 100 }, 
	{ NOTE_FS5, 100 }, 
	{ NOTE_G5, 100 }, 
	{ NOTE_A5, 200 }, 
	{ NOTE_REST, 200 }, 
	{ NOTE_REST, 100 }, 
	{ NOTE_BB4, 100 }, 
	{ NOTE_C5, 100 }, 
	{ NOTE_D5, 100 }, 
	{ NOTE_EB5, 100 }, 
	{ NOTE_FS5, 100 }, 
	{ NOTE_G5, 100 }, 
	{ NOTE_A5, 100 }, 
	{ NOTE_BB5, 200 }, 
	{ NOTE_REST, 200 }, 
	{ NOTE_REST, 100 }, 
	{ NOTE_D5, 100 }, 
	{ NOTE_E5, 100 }, 
	{ NOTE_FS5, 100 }, 
	{ NOTE_G5, 100 }, 
	{ NOTE_A5, 100 }, 
	{ NOTE_BB5, 100 }, 
	{ NOTE_C6, 100 }, 
	{ NOTE_D6, 200 }, 
	{ NOTE_REST, 200 }, 
	{ NOTE_BB5, 100 }, 
	{ NOTE_G5, 100 }, 
	{ NOTE_D5, 100 }, 
	{ NOTE_BB4, 100 }, 
	{ NOTE_BB5, 100 }, 
	{ NOTE_G5, 100 }, 
	{ NOTE_D5, 100 }, 
	{ NOTE_BB4, 100 }, 
	{ NOTE_BB5, 100 }, 
	{ NOTE_G5, 100 }, 
	{ NOTE_D5, 100 }, 
	{ NOTE_BB4, 100 }, 
	{ NOTE_D5, 100 }, 
	{ NOTE_BB4, 100 }, 
	{ NOTE_G4, 100 }, 
	{ NOTE_D4, 100 }, 
	{ NOTE_D5, 100 }, 
	{ NOTE_BB4, 100 }, 
	{ NOTE_G4, 100 }, 
	{ NOTE_D4, 100 }, 
	{ NOTE_D5, 100 }, 
	{ NOTE_BB4, 100 }, 
	{ NOTE_G4, 100 }, 
	{ NOTE_D4, 100 }, 
	{ NOTE_G4, 100 }, 
	{ NOTE_D4, 100 }, 
	{ NOTE_BB3, 100 }, 
	{ NOTE_G3, 100 }, 
	{ NOTE_G4, 100 }, 
	{ NOTE_D4, 100 }, 
	{ NOTE_BB3, 100 }, 
	{ NOTE_G3, 100 }, 
	{ NOTE_G4, 100 }, 
	{ NOTE_D4, 100 }, 
	{ NOTE_BB3, 100 }, 
	{ NOTE_G3, 100 }, 
	{ NOTE_G4, 100 }, 
	{ NOTE_B4, 100 }, 
	{ NOTE_G4, 100 }, 
	{ NOTE_B4, 100 }, 
	{ NOTE_G4, 100 }, 
	{ NOTE_B4, 100 }, 
	{ NOTE_G4, 100 }, 
	{ NOTE_B4, 100 }, 
	{ NOTE_G4, 100 }, 
	{ NOTE_B4, 100 }, 
	{ NOTE_G4, 100 }, 
	{ NOTE_B4, 100 }, 
	{ NOTE_G4, 100 }, 
	{ NOTE_C5, 100 }, 
	{ NOTE_G4, 100 }, 
	{ NOTE_C5, 100 }, 
	{ NOTE_G4, 100 }, 
	{ NOTE_C5, 100 }, 
	{ NOTE_G4, 100 }, 
	{ NOTE_C5, 100 }, 
	{ NOTE_G4, 100 }, 
	{ NOTE_C5, 100 }, 
	{ NOTE_G4, 100 }, 
	{ NOTE_C5, 100 }, 
	{ NOTE_G4, 100 }, 
	{ NOTE_CS5, 100 }, 
	{ NOTE_G4, 100 }, 
	{ NOTE_CS5, 100 }, 
	{ NOTE_G4, 100 }, 
	{ NOTE_CS5, 100 }, 
	{ NOTE_G4, 100 }, 
	{ NOTE_CS5, 100 }, 
	{ NOTE_G4, 100 }, 
	{ NOTE_CS5, 100 }, 
	{ NOTE_G4, 100 }, 
	{ NOTE_CS5, 100 }, 
	{ NOTE_A4, 100 }, 
	{ NOTE_D5, 100 }, 
	{ NOTE_A4, 100 }, 
	{ NOTE_D5, 100 }, 
	{ NOTE_A4, 100 }, 
	{ NOTE_D5, 100 }, 
	{ NOTE_A4, 100 }, 
	{ NOTE_D5, 100 }, 
	{ NOTE_A4, 100 }, 
	{ NOTE_D5, 100 }, 
	{ NOTE_A4, 100 }, 
	{ NOTE_D5, 100 }, 
	{ NOTE_A4, 100 }, 
	{ NOTE_D5, 100 }, 
	{ NOTE_A4, 100 }, 
	{ NOTE_D5, 100 }, 
	{ NOTE_A4, 100 }, 
	{ NOTE_D5, 100 }, 
	{ NOTE_A4, 100 }, 
	{ NOTE_D5, 100 }, 
	{ NOTE_A4, 100 }, 
	{ NOTE_D5, 100 }, 
	{ NOTE_A4, 100 }, 
	{ NOTE_D5, 100 }, 
	{ NOTE_A4, 100 }, 
	{ NOTE_CS5, 100 }, 
	{ NOTE_A4, 100 }, 
	{ NOTE_CS5, 100 }, 
	{ NOTE_A4, 100 }, 
	{ NOTE_CS5, 100 }, 
	{ NOTE_A4, 100 }, 
	{ NOTE_CS5, 100 }, 
	{ NOTE_A4, 100 }, 
	{ NOTE_CS5, 100 }, 
	{ NOTE_A4, 100 }, 
	{ NOTE_CS5, 100 }, 
	{ NOTE_D5, 100 }, 
	{ NOTE_D4, 100 }, 
	{ NOTE_E4, 100 }, 
	{ NOTE_F4, 100 }, 
	{ NOTE_G4, 100 }, 
	{ NOTE_A4, 100 }, 
	{ NOTE_B4, 100 }, 
	{ NOTE_CS5, 100 }, 
	{ NOTE_D5, 100 }, 
	{ NOTE_A4, 100 }, 
	{ NOTE_B4, 100 }, 
	{ NOTE_CS5, 100 }, 
	{ NOTE_D5, 100 }, 
	{ NOTE_E5, 100 }, 
	{ NOTE_F5, 100 }, 
	{ NOTE_G5, 100 }, 
	{ NOTE_A5, 100 }, 
	{ NOTE_D5, 100 }, 
	{ NOTE_E5, 100 }, 
	{ NOTE_F5, 100 }, 
	{ NOTE_G5, 100 }, 
	{ NOTE_A5, 100 }, 
	{ NOTE_B5, 100 }, 
	{ NOTE_CS6, 100 }, 
	{ NOTE_D6, 400 }, 
	{ NOTE_REST, 800 }, 
	{ NOTE_D4, 400 }, 
	{ NOTE_D4, 400 }, 
	{ NOTE_D4, 400 }, 
	{ NOTE_D4, 400 }, 
	{ NOTE_D4, 400 }, 
	{ NOTE_D4, 400 }, 
	{ NOTE_D4, 400 }, 
	{ NOTE_D4, 400 }, 
	{ NOTE_D4, 400 }, 
	{ NOTE_D4, 400 }, 
	{ NOTE_REST, 800 }, 
	{ NOTE_D4, 400 }, 
	{ NOTE_D4, 400 }, 
	{ NOTE_D4, 400 }, 
	{ NOTE_D4, 400 }, 
	{ NOTE_D4, 400 }, 
	{ NOTE_D4, 400 }, 
	{ NOTE_D4, 400 }, 
	{ NOTE_D4, 400 }, 
	{ NOTE_D4, 400 }, 
	{ NOTE_D4, 400 }, 
	{ NOTE_REST, 800 }, 
	{ NOTE_REST, 1200 }, 
	{ NOTE_REST, 1200 }, 
	{ NOTE_REST, 1200 }, 
	{ NOTE_REST, 1200 }, 
	{ NOTE_REST, 1200 }, 
	{ NOTE_REST, 1200 }, 
	{ NOTE_A5, 200 }, 
	{ NOTE_D4, 200 }, 
	{ NOTE_D4, 200 }, 
	{ NOTE_D5, 200 }, 
	{ NOTE_F5, 200 }, 
	{ NOTE_A5, 200 }, 
	{ NOTE_A5, 200 }, 
	{ NOTE_D4, 200 }, 
	{ NOTE_D4, 200 }, 
	{ NOTE_D5, 200 }, 
	{ NOTE_F5, 200 }, 
	{ NOTE_A5, 200 }, 
	{ NOTE_BB5, 200 }, 
	{ NOTE_E4, 200 }, 
	{ NOTE_E4, 200 }, 
	{ NOTE_E5, 200 }, 
	{ NOTE_G5, 200 }, 
	{ NOTE_BB5, 200 }, 
	{ NOTE_A5, 200 }, 
	{ NOTE_F4, 200 }, 
	{ NOTE_F4, 200 }, 
	{ NOTE_C5, 200 }, 
	{ NOTE_F5, 200 }, 
	{ NOTE_A5, 200 }, 
	{ NOTE_A5, 200 }, 
	{ NOTE_F4, 200 }, 
	{ NOTE_F4, 200 }, 
	{ NOTE_C5, 200 }, 
	{ NOTE_F5, 200 }, 
	{ NOTE_A5, 200 }, 
	{ NOTE_G5, 200 }, 
	{ NOTE_EB4, 200 }, 
	{ NOTE_EB4, 200 }, 
	{ NOTE_BB4, 200 }, 
	{ NOTE_EB5, 200 }, 
	{ NOTE_G5, 200 }, 
	{ NOTE_G5, 200 }, 
	{ NOTE_C4, 200 }, 
	{ NOTE_C4, 200 }, 
	{ NOTE_C5, 200 }, 
	{ NOTE_EB5, 200 }, 
	{ NOTE_G5, 200 }, 
	{ NOTE_G5, 200 }, 
	{ NOTE_D4, 200 }, 
	{ NOTE_D4, 200 }, 
	{ NOTE_B4, 200 }, 
	{ NOTE_EB5, 200 }, 
	{ NOTE_G5, 200 }, 
	{ NOTE_F5, 200 }, 
	{ NOTE_EB4, 200 }, 
	{ NOTE_EB4, 200 }, 
	{ NOTE_B4, 200 }, 
	{ NOTE_EB5, 200 }, 
	{ NOTE_F5, 200 }, 
	{ NOTE_EB5, 100 }, 
	{ NOTE_EB4, 100 }, 
	{ NOTE_F4, 100 }, 
	{ NOTE_G4, 100 }, 
	{ NOTE_AB4, 100 }, 
	{ NOTE_B4, 100 }, 
	{ NOTE_C5, 100 }, 
	{ NOTE_D5, 100 }, 
	{ NOTE_EB5, 200 }, 
	{ NOTE_REST, 200 }, 
	{ NOTE_REST, 100 }, 
	{ NOTE_EB4, 100 }, 
	{ NOTE_F4, 100 }, 
	{ NOTE_G4, 100 }, 
	{ NOTE_AB4, 100 }, 
	{ NOTE_B4, 100 }, 
	{ NOTE_C5, 100 }, 
	{ NOTE_D5, 100 }, 
	{ NOTE_EB5, 200 }, 
	{ NOTE_REST, 200 }, 
	{ NOTE_REST, 100 }, 
	{ NOTE_EB4, 100 }, 
	{ NOTE_F4, 100 }, 
	{ NOTE_G4, 100 }, 
	{ NOTE_AB4, 100 }, 
	{ NOTE_B4, 100 }, 
	{ NOTE_C5, 100 }, 
	{ NOTE_D5, 100 }, 
	{ NOTE_EB5, 200 }, 
	{ NOTE_REST, 200 }, 
	{ NOTE_EB4, 100 }, 
	{ NOTE_C5, 100 }, 
	{ NOTE_BB4, 100 }, 
	{ NOTE_C5, 100 }, 
	{ NOTE_EB4, 100 }, 
	{ NOTE_C5, 100 }, 
	{ NOTE_BB4, 100 }, 
	{ NOTE_C5, 100 }, 
	{ NOTE_EB4, 100 }, 
	{ NOTE_C5, 100 }, 
	{ NOTE_BB4, 100 }, 
	{ NOTE_C5, 100 }, 
	{ NOTE_F4, 100 }, 
	{ NOTE_C5, 100 }, 
	{ NOTE_BB4, 100 }, 
	{ NOTE_C5, 100 }, 
	{ NOTE_F4, 100 }, 
	{ NOTE_C5, 100 }, 
	{ NOTE_BB4, 100 }, 
	{ NOTE_C5, 100 }, 
	{ NOTE_F4, 100 }, 
	{ NOTE_C5, 100 }, 
	{ NOTE_BB4, 100 }, 
	{ NOTE_C5, 100 }, 
	{ NOTE_G4, 100 }, 
	{ NOTE_C5, 100 }, 
	{ NOTE_B4, 100 }, 
	{ NOTE_C5, 100 }, 
	{ NOTE_G4, 100 }, 
	{ NOTE_C5, 100 }, 
	{ NOTE_B4, 100 }, 
	{ NOTE_C5, 100 }, 
	{ NOTE_G4, 100 }, 
	{ NOTE_B4, 100 }, 
	{ NOTE_A4, 100 }, 
	{ NOTE_B4, 100 }, 
	{ NOTE_C5, 100 }, 
	{ NOTE_C4, 100 }, 
	{ NOTE_C4, 100 }, 
	{ NOTE_C4, 100 }, 
	{ NOTE_C4, 100 }, 
	{ NOTE_C4, 100 }, 
	{ NOTE_C4, 100 }, 
	{ NOTE_C4, 100 }, 
	{ NOTE_C4, 100 }, 
	{ NOTE_C4, 100 }, 
	{ NOTE_C4, 100 }, 
	{ NOTE_C4, 100 }, 
	{ NOTE_BB4, 100 }, 
	{ NOTE_C4, 100 }, 
	{ NOTE_C4, 100 }, 
	{ NOTE_C4, 100 }, 
	{ NOTE_C4, 100 }, 
	{ NOTE_C4, 100 }, 
	{ NOTE_C4, 100 }, 
	{ NOTE_C4, 100 }, 
	{ NOTE_C4, 100 }, 
	{ NOTE_C4, 100 }, 
	{ NOTE_C4, 100 }, 
	{ NOTE_C4, 100 }, 
	{ NOTE_AB4, 100 }, 
	{ NOTE_C4, 100 }, 
	{ NOTE_C4, 100 }, 
	{ NOTE_C4, 100 }, 
	{ NOTE_C4, 100 }, 
	{ NOTE_C4, 100 }, 
	{ NOTE_C4, 100 }, 
	{ NOTE_C4, 100 }, 
	{ NOTE_C4, 100 }, 
	{ NOTE_C4, 100 }, 
	{ NOTE_C4, 100 }, 
	{ NOTE_C4, 100 }, 
	{ NOTE_G4, 100 }, 
	{ NOTE_C4, 100 }, 
	{ NOTE_C4, 100 }, 
	{ NOTE_C4, 100 }, 
	{ NOTE_C4, 100 }, 
	{ NOTE_C4, 100 }, 
	{ NOTE_C4, 100 }, 
	{ NOTE_C4, 100 }, 
	{ NOTE_C4, 200 }, 
	{ NOTE_REST, 200 }, 
	{ NOTE_REST, 1200 }, 
	{ NOTE_REST, 1200 }, 
	{ NOTE_REST, 1200 }, 
	{ NOTE_REST, 1200 }, 
	{ NOTE_REST, 1200 }, 
	{ NOTE_REST, 1200 }, 
	{ NOTE_REST, 1200 }, 
	{ NOTE_REST, 1200 }, 
	{ NOTE_REST, 1200 }, 
	{ NOTE_REST, 1200 }, 
	{ NOTE_REST, 1200 }, 
	{ NOTE_C4, 100 }, 
	{ NOTE_C4, 100 }, 
	{ NOTE_C4, 100 }, 
	{ NOTE_C4, 100 }, 
	{ NOTE_C4, 100 }, 
	{ NOTE_C4, 100 }, 
	{ NOTE_C4, 100 }, 
	{ NOTE_C4, 100 }, 
	{ NOTE_C4, 100 }, 
	{ NOTE_C4, 100 }, 
	{ NOTE_C4, 100 }, 
	{ NOTE_C4, 100 }, 
	{ NOTE_AB4, 100 }, 
	{ NOTE_C4, 100 }, 
	{ NOTE_C4, 100 }, 
	{ NOTE_C4, 100 }, 
	{ NOTE_AB4, 100 }, 
	{ NOTE_C4, 100 }, 
	{ NOTE_C4, 100 }, 
	{ NOTE_C4, 100 }, 
	{ NOTE_AB4, 100 }, 
	{ NOTE_C4, 100 }, 
	{ NOTE_C4, 100 }, 
	{ NOTE_C4, 100 }, 
	{ NOTE_B3, 100 }, 
	{ NOTE_B3, 100 }, 
	{ NOTE_B3, 100 }, 
	{ NOTE_B3, 100 }, 
	{ NOTE_B3, 100 }, 
	{ NOTE_B3, 100 }, 
	{ NOTE_B3, 100 }, 
	{ NOTE_B3, 100 }, 
	{ NOTE_B3, 100 }, 
	{ NOTE_B3, 100 }, 
	{ NOTE_B3, 100 }, 
	{ NOTE_B3, 100 }, 
	{ NOTE_G4, 100 }, 
	{ NOTE_BB3, 100 }, 
	{ NOTE_BB3, 100 }, 
	{ NOTE_BB3, 100 }, 
	{ NOTE_G4, 100 }, 
	{ NOTE_BB3, 100 }, 
	{ NOTE_BB3, 100 }, 
	{ NOTE_BB3, 100 }, 
	{ NOTE_G4, 100 }, 
	{ NOTE_BB3, 100 }, 
	{ NOTE_BB3, 100 }, 
	{ NOTE_BB3, 100 }, 
	{ NOTE_A3, 100 }, 
	{ NOTE_A3, 100 }, 
	{ NOTE_A3, 100 }, 
	{ NOTE_A3, 100 }, 
	{ NOTE_A3, 100 }, 
	{ NOTE_A3, 100 }, 
	{ NOTE_A3, 100 }, 
	{ NOTE_A3, 100 }, 
	{ NOTE_A3, 100 }, 
	{ NOTE_A3, 100 }, 
	{ NOTE_A3, 100 }, 
	{ NOTE_A3, 100 }, 
	{ NOTE_F4, 100 }, 
	{ NOTE_AB3, 100 }, 
	{ NOTE_AB3, 100 }, 
	{ NOTE_AB3, 100 }, 
	{ NOTE_F4, 100 }, 
	{ NOTE_AB3, 100 }, 
	{ NOTE_AB3, 100 }, 
	{ NOTE_AB3, 100 }, 
	{ NOTE_F4, 100 }, 
	{ NOTE_AB3, 100 }, 
	{ NOTE_AB3, 100 }, 
	{ NOTE_AB3, 100 }, 
	{ NOTE_G3, 100 }, 
	{ NOTE_G4, 100 }, 
	{ NOTE_G4, 100 }, 
	{ NOTE_G4, 100 }, 
	{ NOTE_G4, 100 }, 
	{ NOTE_G4, 100 }, 
	{ NOTE_G4, 100 }, 
	{ NOTE_G4, 100 }, 
	{ NOTE_G4, 100 }, 
	{ NOTE_G4, 100 }, 
	{ NOTE_G4, 100 }, 
	{ NOTE_G4, 100 }, 
	{ NOTE_EB5, 100 }, 
	{ NOTE_G4, 100 }, 
	{ NOTE_G4, 100 }, 
	{ NOTE_G4, 100 }, 
	{ NOTE_EB5, 100 }, 
	{ NOTE_G4, 100 }, 
	{ NOTE_G4, 100 }, 
	{ NOTE_G4, 100 }, 
	{ NOTE_EB5, 100 }, 
	{ NOTE_G4, 100 }, 
	{ NOTE_G4, 100 }, 
	{ NOTE_G4, 100 }, 
	{ NOTE_FS4, 100 }, 
	{ NOTE_FS4, 100 }, 
	{ NOTE_FS4, 100 }, 
	{ NOTE_FS4, 100 }, 
	{ NOTE_FS4, 100 }, 
	{ NOTE_FS4, 100 }, 
	{ NOTE_FS4, 100 }, 
	{ NOTE_FS4, 100 }, 
	{ NOTE_FS4, 100 }, 
	{ NOTE_FS4, 100 }, 
	{ NOTE_FS4, 100 }, 
	{ NOTE_FS4, 100 }, 
	{ NOTE_D5, 100 }, 
	{ NOTE_F4, 100 }, 
	{ NOTE_F4, 100 }, 
	{ NOTE_F4, 100 }, 
	{ NOTE_D5, 100 }, 
	{ NOTE_F4, 100 }, 
	{ NOTE_F4, 100 }, 
	{ NOTE_F4, 100 }, 
	{ NOTE_D5, 100 }, 
	{ NOTE_F4, 100 }, 
	{ NOTE_F4, 100 }, 
	{ NOTE_F4, 100 }, 
	{ NOTE_E4, 100 }, 
	{ NOTE_E4, 100 }, 
	{ NOTE_E4, 100 }, 
	{ NOTE_E4, 100 }, 
	{ NOTE_E4, 100 }, 
	{ NOTE_E4, 100 }, 
	{ NOTE_E4, 100 }, 
	{ NOTE_E4, 100 }, 
	{ NOTE_E4, 100 }, 
	{ NOTE_E4, 100 }, 
	{ NOTE_E4, 100 }, 
	{ NOTE_E4, 100 }, 
	{ NOTE_C5, 100 }, 
	{ NOTE_EB4, 100 }, 
	{ NOTE_EB4, 100 }, 
	{ NOTE_EB4, 100 }, 
	{ NOTE_C5, 100 }, 
	{ NOTE_EB4, 100 }, 
	{ NOTE_EB4, 100 }, 
	{ NOTE_EB4, 100 }, 
	{ NOTE_C5, 100 }, 
	{ NOTE_EB4, 100 }, 
	{ NOTE_EB4, 100 }, 
	{ NOTE_EB4, 100 }, 
	{ NOTE_D4, 400 }, 
	{ NOTE_REST, 800 }, 
	{ NOTE_REST, 1200 }, 
	{ NOTE_REST, 1200 }, 
	{ NOTE_REST, 1200 }, 
	{ NOTE_REST, 100 }, 
	{ NOTE_D5, 100 }, 
	{ NOTE_C5, 100 }, 
	{ NOTE_BB4, 100 }, 
	{ NOTE_A4, 100 }, 
	{ NOTE_G4, 100 }, 
	{ NOTE_FS4, 100 }, 
	{ NOTE_E4, 100 }, 
	{ NOTE_D4, 100 }, 
	{ NOTE_C4, 100 }, 
	{ NOTE_BB3, 100 }, 
	{ NOTE_A3, 100 }, 
	{ NOTE_G3, 100 }, 
	{ NOTE_G3, 100 }, 
	{ NOTE_G3, 100 }, 
	{ NOTE_G3, 100 }, 
	{ NOTE_G3, 100 }, 
	{ NOTE_G3, 100 }, 
	{ NOTE_G3, 100 }, 
	{ NOTE_G3, 100 }, 
	{ NOTE_G3, 100 }, 
	{ NOTE_G3, 100 }, 
	{ NOTE_G3, 100 }, 
	{ NOTE_G3, 100 }, 
	{ NOTE_G3, 100 }, 
	{ NOTE_G5, 100 }, 
	{ NOTE_F5, 100 }, 
	{ NOTE_EB5, 100 }, 
	{ NOTE_D5, 100 }, 
	{ NOTE_C5, 100 }, 
	{ NOTE_BB4, 100 }, 
	{ NOTE_A4, 100 }, 
	{ NOTE_G4, 100 }, 
	{ NOTE_F4, 100 }, 
	{ NOTE_EB4, 100 }, 
	{ NOTE_D4, 100 }, 
	{ NOTE_C4, 100 }, 
	{ NOTE_C4, 100 }, 
	{ NOTE_C4, 100 }, 
	{ NOTE_C4, 100 }, 
	{ NOTE_C4, 100 }, 
	{ NOTE_C4, 100 }, 
	{ NOTE_C4, 100 }, 
	{ NOTE_C4, 100 }, 
	{ NOTE_C4, 100 }, 
	{ NOTE_C4, 100 }, 
	{ NOTE_C4, 100 }, 
	{ NOTE_C4, 100 }, 
	{ NOTE_C4, 100 }, 
	{ NOTE_BB5, 100 }, 
	{ NOTE_A5, 100 }, 
	{ NOTE_G5, 100 }, 
	{ NOTE_F5, 100 }, 
	{ NOTE_EB5, 100 }, 
	{ NOTE_D5, 100 }, 
	{ NOTE_C5, 100 }, 
	{ NOTE_BB4, 100 }, 
	{ NOTE_A4, 100 }, 
	{ NOTE_G4, 100 }, 
	{ NOTE_F4, 100 }, 
	{ NOTE_EB4, 100 }, 
	{ NOTE_EB4, 100 }, 
	{ NOTE_EB4, 100 }, 
	{ NOTE_EB4, 100 }, 
	{ NOTE_EB4, 100 }, 
	{ NOTE_EB4, 100 }, 
	{ NOTE_EB4, 100 }, 
	{ NOTE_EB4, 100 }, 
	{ NOTE_EB4, 100 }, 
	{ NOTE_EB4, 100 }, 
	{ NOTE_EB4, 100 }, 
	{ NOTE_EB4, 100 }, 
	{ NOTE_EB4, 100 }, 
	{ NOTE_D6, 100 }, 
	{ NOTE_C6, 100 }, 
	{ NOTE_BB5, 100 }, 
	{ NOTE_A5, 100 }, 
	{ NOTE_G5, 100 }, 
	{ NOTE_FS5, 100 }, 
	{ NOTE_E5, 100 }, 
	{ NOTE_D5, 100 }, 
	{ NOTE_C5, 100 }, 
	{ NOTE_BB4, 100 }, 
	{ NOTE_A4, 100 }, 
	{ NOTE_G4, 100 }, 
	{ NOTE_G4, 100 }, 
	{ NOTE_G4, 100 }, 
	{ NOTE_G4, 100 }, 
	{ NOTE_G4, 100 }, 
	{ NOTE_G4, 100 }, 
	{ NOTE_G4, 100 }, 
	{ NOTE_G4, 100 }, 
	{ NOTE_G4, 100 }, 
	{ NOTE_G4, 100 }, 
	{ NOTE_G4, 100 }, 
	{ NOTE_G4, 100 }, 
	{ NOTE_G4, 400 }, 
	{ NOTE_G3, 400 }, 
	{ NOTE_G3, 400 }, 
	{ NOTE_G3, 400 }, 
	{ NOTE_G3, 400 }, 
	{ NOTE_G3, 400 }, 
	{ NOTE_G3, 400 }, 
	{ NOTE_G3, 400 }, 
	{ NOTE_G3, 400 }, 
	{ NOTE_G3, 400 }, 
	{ NOTE_G3, 400 }, 
	{ NOTE_G3, 400 }, 
	{ NOTE_G3, 100 }, 
	{ NOTE_G4, 100 }, 
	{ NOTE_A4, 100 }, 
	{ NOTE_BB4, 100 }, 
	{ NOTE_C5, 100 }, 
	{ NOTE_D5, 100 }, 
	{ NOTE_E5, 100 }, 
	{ NOTE_FS5, 100 }, 
	{ NOTE_G5, 100 }, 
	{ NOTE_A5, 100 }, 
	{ NOTE_BB5, 100 }, 
	{ NOTE_A5, 100 }, 
	{ NOTE_G5, 100 }, 
	{ NOTE_F5, 100 }, 
	{ NOTE_EB5, 100 }, 
	{ NOTE_D5, 100 }, 
	{ NOTE_C5, 100 }, 
	{ NOTE_BB4, 100 }, 
	{ NOTE_A4, 100 }, 
	{ NOTE_G4, 100 }, 
	{ NOTE_FS4, 100 }, 
	{ NOTE_E4, 100 }, 
	{ NOTE_D4, 100 }, 
	{ NOTE_C4, 100 }, 
	{ NOTE_BB3, 100 }, 
	{ NOTE_G3, 100 }, 
	{ NOTE_BB3, 100 }, 
	{ NOTE_G3, 100 }, 
	{ NOTE_BB3, 100 }, 
	{ NOTE_G3, 100 }, 
	{ NOTE_BB3, 100 }, 
	{ NOTE_G3, 100 }, 
	{ NOTE_BB3, 100 }, 
	{ NOTE_G3, 100 }, 
	{ NOTE_BB3, 100 }, 
	{ NOTE_G3, 100 }, 
	{ NOTE_D4, 400 }, 
	{ NOTE_REST, 800 }, 
	{ NOTE_REST, 1200 }, 
	{ NOTE_REST, 1200 }, 
	{ NOTE_REST, 1200 }, 
	{ NOTE_D4, 100 }, 
	{ NOTE_D4, 100 }, 
	{ NOTE_D4, 100 }, 
	{ NOTE_D4, 100 }, 
	{ NOTE_D4, 100 }, 
	{ NOTE_D4, 100 }, 
	{ NOTE_D4, 100 }, 
	{ NOTE_D4, 100 }, 
	{ NOTE_D4, 100 }, 
	{ NOTE_D4, 100 }, 
	{ NOTE_D4, 100 }, 
	{ NOTE_D4, 100 }, 
	{ NOTE_G4, 100 }, 
	{ NOTE_D4, 100 }, 
	{ NOTE_BB3, 100 }, 
	{ NOTE_G3, 100 }, 
	{ NOTE_G4, 100 }, 
	{ NOTE_D4, 100 }, 
	{ NOTE_BB3, 100 }, 
	{ NOTE_G3, 100 }, 
	{ NOTE_G4, 100 }, 
	{ NOTE_D4, 100 }, 
	{ NOTE_BB3, 100 }, 
	{ NOTE_G3, 100 }, 
	{ NOTE_G4, 100 }, 
	{ NOTE_G4, 100 }, 
	{ NOTE_G4, 100 }, 
	{ NOTE_G4, 100 }, 
	{ NOTE_G4, 100 }, 
	{ NOTE_G4, 100 }, 
	{ NOTE_G4, 100 }, 
	{ NOTE_G4, 100 }, 
	{ NOTE_G4, 100 }, 
	{ NOTE_G4, 100 }, 
	{ NOTE_G4, 100 }, 
	{ NOTE_G4, 100 }, 
	{ NOTE_FS4, 100 }, 
	{ NOTE_FS4, 100 }, 
	{ NOTE_FS4, 100 }, 
	{ NOTE_FS4, 100 }, 
	{ NOTE_FS4, 100 }, 
	{ NOTE_FS4, 100 }, 
	{ NOTE_FS4, 100 }, 
	{ NOTE_FS4, 100 }, 
	{ NOTE_FS4, 100 }, 
	{ NOTE_FS4, 100 }, 
	{ NOTE_FS4, 100 }, 
	{ NOTE_FS4, 100 }, 
	{ NOTE_G4, 100 }, 
	{ NOTE_D4, 100 }, 
	{ NOTE_BB3, 100 }, 
	{ NOTE_G3, 100 }, 
	{ NOTE_G4, 100 }, 
	{ NOTE_D4, 100 }, 
	{ NOTE_BB3, 100 }, 
	{ NOTE_G3, 100 }, 
	{ NOTE_G4, 100 }, 
	{ NOTE_D4, 100 }, 
	{ NOTE_BB3, 100 }, 
	{ NOTE_G3, 100 }, 
	{ NOTE_G4, 100 }, 
	{ NOTE_G4, 100 }, 
	{ NOTE_G4, 100 }, 
	{ NOTE_G4, 100 }, 
	{ NOTE_G4, 100 }, 
	{ NOTE_G4, 100 }, 
	{ NOTE_G4, 100 }, 
	{ NOTE_G4, 100 }, 
	{ NOTE_G4, 100 }, 
	{ NOTE_G4, 100 }, 
	{ NOTE_G4, 100 }, 
	{ NOTE_G4, 100 }, 
	{ NOTE_FS4, 100 }, 
	{ NOTE_FS4, 100 }, 
	{ NOTE_FS4, 100 }, 
	{ NOTE_FS4, 100 }, 
	{ NOTE_FS4, 100 }, 
	{ NOTE_FS4, 100 }, 
	{ NOTE_FS4, 100 }, 
	{ NOTE_FS4, 100 }, 
	{ NOTE_FS4, 100 }, 
	{ NOTE_FS4, 100 }, 
	{ NOTE_FS4, 100 }, 
	{ NOTE_FS4, 100 }, 
	{ NOTE_G4, 100 }, 
	{ NOTE_G4, 100 }, 
	{ NOTE_G4, 100 }, 
	{ NOTE_G4, 100 }, 
	{ NOTE_BB4, 100 }, 
	{ NOTE_BB4, 100 }, 
	{ NOTE_BB4, 100 }, 
	{ NOTE_BB4, 100 }, 
	{ NOTE_D5, 100 }, 
	{ NOTE_D5, 100 }, 
	{ NOTE_D5, 100 }, 
	{ NOTE_D5, 100 }, 
	{ NOTE_G5, 100 }, 
	{ NOTE_G5, 100 }, 
	{ NOTE_G5, 100 }, 
	{ NOTE_G5, 100 }, 
	{ NOTE_BB5, 100 }, 
	{ NOTE_BB5, 100 }, 
	{ NOTE_BB5, 100 }, 
	{ NOTE_BB5, 100 }, 
	{ NOTE_G5, 100 }, 
	{ NOTE_G5, 100 }, 
	{ NOTE_G5, 100 }, 
	{ NOTE_G5, 100 }, 
	{ NOTE_D5, 100 }, 
	{ NOTE_D5, 100 }, 
	{ NOTE_D5, 100 }, 
	{ NOTE_D5, 100 }, 
	{ NOTE_BB4, 100 }, 
	{ NOTE_BB4, 100 }, 
	{ NOTE_BB4, 100 }, 
	{ NOTE_BB4, 100 }, 
	{ NOTE_G4, 100 }, 
	{ NOTE_G4, 100 }, 
	{ NOTE_G4, 100 }, 
	{ NOTE_G4, 100 }, 
	{ NOTE_G3, 1200 }, 
};
const uint16_t NUM_OF_NOTES1 = sizeof(melody1)/sizeof(melody1[0]);

const Note melody2[] PROGMEM = {
	{ NOTE_G4, 100 }, 
	{ NOTE_G3, 100 }, 
	{ NOTE_G3, 100 }, 
	{ NOTE_G3, 100 }, 
	{ NOTE_G3, 100 }, 
	{ NOTE_G3, 100 }, 
	{ NOTE_G3, 100 }, 
	{ NOTE_G3, 100 }, 
	{ NOTE_G3, 100 }, 
	{ NOTE_G3, 100 }, 
	{ NOTE_G3, 100 }, 
	{ NOTE_G3, 100 }, 
	{ NOTE_F4, 100 }, 
	{ NOTE_G3, 100 }, 
	{ NOTE_G3, 100 }, 
	{ NOTE_G3, 100 }, 
	{ NOTE_G3, 100 }, 
	{ NOTE_G3, 100 }, 
	{ NOTE_G3, 100 }, 
	{ NOTE_G3, 100 }, 
	{ NOTE_G3, 100 }, 
	{ NOTE_G3, 100 }, 
	{ NOTE_G3, 100 }, 
	{ NOTE_G3, 100 }, 
	{ NOTE_EB4, 100 }, 
	{ NOTE_G3, 100 }, 
	{ NOTE_G3, 100 }, 
	{ NOTE_G3, 100 }, 
	{ NOTE_G3, 100 }, 
	{ NOTE_G3, 100 }, 
	{ NOTE_G3, 100 }, 
	{ NOTE_G3, 100 }, 
	{ NOTE_G3, 100 }, 
	{ NOTE_G3, 100 }, 
	{ NOTE_G3, 100 }, 
	{ NOTE_G3, 100 }, 
	{ NOTE_D4, 100 }, 
	{ NOTE_G3, 100 }, 
	{ NOTE_G3, 100 }, 
	{ NOTE_G3, 100 }, 
	{ NOTE_G3, 100 }, 
	{ NOTE_G3, 100 }, 
	{ NOTE_G3, 100 }, 
	{ NOTE_G3, 100 }, 
	{ NOTE_G3, 100 }, 
	{ NOTE_G3, 100 }, 
	{ NOTE_REST, 200 }, 
	{ NOTE_REST, 1200 }, 
	{ NOTE_D5, 100 }, 
	{ NOTE_D4, 100 }, 
	{ NOTE_D4, 100 }, 
	{ NOTE_D4, 100 }, 
	{ NOTE_D4, 100 }, 
	{ NOTE_D4, 100 }, 
	{ NOTE_D4, 100 }, 
	{ NOTE_D4, 100 }, 
	{ NOTE_D4, 100 }, 
	{ NOTE_D4, 100 }, 
	{ NOTE_D4, 100 }, 
	{ NOTE_D4, 100 }, 
	{ NOTE_C5, 100 }, 
	{ NOTE_D4, 100 }, 
	{ NOTE_D4, 100 }, 
	{ NOTE_D4, 100 }, 
	{ NOTE_D4, 100 }, 
	{ NOTE_D4, 100 }, 
	{ NOTE_D4, 100 }, 
	{ NOTE_D4, 100 }, 
	{ NOTE_D4, 100 }, 
	{ NOTE_D4, 100 }, 
	{ NOTE_D4, 100 }, 
	{ NOTE_D4, 100 }, 
	{ NOTE_BB4, 100 }, 
	{ NOTE_D4, 100 }, 
	{ NOTE_D4, 100 }, 
	{ NOTE_D4, 100 }, 
	{ NOTE_D4, 100 }, 
	{ NOTE_D4, 100 }, 
	{ NOTE_D4, 100 }, 
	{ NOTE_D4, 100 }, 
	{ NOTE_D4, 100 }, 
	{ NOTE_D4, 100 }, 
	{ NOTE_D4, 100 }, 
	{ NOTE_D4, 100 }, 
	{ NOTE_A4, 100 }, 
	{ NOTE_D4, 100 }, 
	{ NOTE_D4, 100 }, 
	{ NOTE_D4, 100 }, 
	{ NOTE_D4, 100 }, 
	{ NOTE_D4, 100 }, 
	{ NOTE_D4, 100 }, 
	{ NOTE_D4, 100 }, 
	{ NOTE_D4, 100 }, 
	{ NOTE_D4, 100 }, 
	{ NOTE_REST, 200 }, 
	{ NOTE_REST, 1200 }, 
	{ NOTE_REST, 100 }, 
	{ NOTE_D5, 100 }, 
	{ NOTE_C5, 100 }, 
	{ NOTE_BB4, 100 }, 
	{ NOTE_A4, 100 }, 
	{ NOTE_G4, 100 }, 
	{ NOTE_FS4, 100 }, 
	{ NOTE_E4, 100 }, 
	{ NOTE_D4, 100 }, 
	{ NOTE_C4, 100 }, 
	{ NOTE_BB3, 100 }, 
	{ NOTE_A3, 100 }, 
	{ NOTE_G3, 100 }, 
	{ NOTE_G3, 100 }, 
	{ NOTE_G3, 100 }, 
	{ NOTE_G3, 100 }, 
	{ NOTE_G3, 100 }, 
	{ NOTE_G3, 100 }, 
	{ NOTE_G3, 100 }, 
	{ NOTE_G3, 100 }, 
	{ NOTE_G3, 100 }, 
	{ NOTE_G3, 100 }, 
	{ NOTE_G3, 100 }, 
	{ NOTE_G3, 100 }, 
	{ NOTE_G3, 100 }, 
	{ NOTE_G5, 100 }, 
	{ NOTE_F5, 100 }, 
	{ NOTE_EB5, 100 }, 
	{ NOTE_D5, 100 }, 
	{ NOTE_C5, 100 }, 
	{ NOTE_BB4, 100 }, 
	{ NOTE_A4, 100 }, 
	{ NOTE_G4, 100 }, 
	{ NOTE_F4, 100 }, 
	{ NOTE_EB4, 100 }, 
	{ NOTE_D4, 100 }, 
	{ NOTE_C4, 100 }, 
	{ NOTE_C4, 100 }, 
	{ NOTE_C4, 100 }, 
	{ NOTE_C4, 100 }, 
	{ NOTE_C4, 100 }, 
	{ NOTE_C4, 100 }, 
	{ NOTE_C4, 100 }, 
	{ NOTE_C4, 100 }, 
	{ NOTE_C4, 100 }, 
	{ NOTE_C4, 100 }, 
	{ NOTE_C4, 100 }, 
	{ NOTE_C4, 100 }, 
	{ NOTE_C4, 100 }, 
	{ NOTE_BB5, 100 }, 
	{ NOTE_A5, 100 }, 
	{ NOTE_G5, 100 }, 
	{ NOTE_F5, 100 }, 
	{ NOTE_EB5, 100 }, 
	{ NOTE_D5, 100 }, 
	{ NOTE_C5, 100 }, 
	{ NOTE_BB4, 100 }, 
	{ NOTE_A4, 100 }, 
	{ NOTE_G4, 100 }, 
	{ NOTE_F4, 100 }, 
	{ NOTE_EB4, 100 }, 
	{ NOTE_EB4, 100 }, 
	{ NOTE_EB4, 100 }, 
	{ NOTE_EB4, 100 }, 
	{ NOTE_EB4, 100 }, 
	{ NOTE_EB4, 100 }, 
	{ NOTE_EB4, 100 }, 
	{ NOTE_EB4, 100 }, 
	{ NOTE_EB4, 100 }, 
	{ NOTE_EB4, 100 }, 
	{ NOTE_EB4, 100 }, 
	{ NOTE_EB4, 100 }, 
	{ NOTE_EB4, 100 }, 
	{ NOTE_D6, 100 }, 
	{ NOTE_C6, 100 }, 
	{ NOTE_BB5, 100 }, 
	{ NOTE_A5, 100 }, 
	{ NOTE_G5, 100 }, 
	{ NOTE_FS5, 100 }, 
	{ NOTE_E5, 100 }, 
	{ NOTE_D5, 100 }, 
	{ NOTE_C5, 100 }, 
	{ NOTE_BB4, 100 }, 
	{ NOTE_A4, 100 }, 
	{ NOTE_G4, 100 }, 
	{ NOTE_G4, 100 }, 
	{ NOTE_G4, 100 }, 
	{ NOTE_G4, 100 }, 
	{ NOTE_G4, 100 }, 
	{ NOTE_G4, 100 }, 
	{ NOTE_G4, 100 }, 
	{ NOTE_G4, 100 }, 
	{ NOTE_G4, 100 }, 
	{ NOTE_G4, 100 }, 
	{ NOTE_G4, 100 }, 
	{ NOTE_G4, 100 }, 
	{ NOTE_EB4, 100 }, 
	{ NOTE_D6, 100 }, 
	{ NOTE_C6, 100 }, 
	{ NOTE_BB5, 100 }, 
	{ NOTE_A5, 100 }, 
	{ NOTE_G5, 100 }, 
	{ NOTE_F5, 100 }, 
	{ NOTE_E5, 100 }, 
	{ NOTE_D5, 100 }, 
	{ NOTE_C5, 100 }, 
	{ NOTE_BB4, 100 }, 
	{ NOTE_A4, 100 }, 
	{ NOTE_G4, 100 }, 
	{ NOTE_G4, 100 }, 
	{ NOTE_G4, 100 }, 
	{ NOTE_G4, 100 }, 
	{ NOTE_D5, 100 }, 
	{ NOTE_G4, 100 }, 
	{ NOTE_G4, 100 }, 
	{ NOTE_G4, 100 }, 
	{ NOTE_D5, 100 }, 
	{ NOTE_G4, 100 }, 
	{ NOTE_G4, 100 }, 
	{ NOTE_G4, 100 }, 
	{ NOTE_D4, 100 }, 
	{ NOTE_FS4, 100 }, 
	{ NOTE_G4, 100 }, 
	{ NOTE_A4, 100 }, 
	{ NOTE_BB4, 100 }, 
	{ NOTE_C5, 100 }, 
	{ NOTE_D5, 100 }, 
	{ NOTE_E5, 100 }, 
	{ NOTE_FS5, 200 }, 
	{ NOTE_REST, 200 }, 
	{ NOTE_REST, 100 }, 
	{ NOTE_FS4, 100 }, 
	{ NOTE_G4, 100 }, 
	{ NOTE_A4, 100 }, 
	{ NOTE_BB4, 100 }, 
	{ NOTE_C5, 100 }, 
	{ NOTE_D5, 100 }, 
	{ NOTE_E5, 100 }, 
	{ NOTE_FS5, 200 }, 
	{ NOTE_REST, 200 }, 
	{ NOTE_REST, 100 }, 
	{ NOTE_G4, 100 }, 
	{ NOTE_A4, 100 }, 
	{ NOTE_BB4, 100 }, 
	{ NOTE_C5, 100 }, 
	{ NOTE_D5, 100 }, 
	{ NOTE_EB5, 100 }, 
	{ NOTE_FS5, 100 }, 
	{ NOTE_G5, 200 }, 
	{ NOTE_REST, 200 }, 
	{ NOTE_REST, 100 }, 
	{ NOTE_FS4, 100 }, 
	{ NOTE_G4, 100 }, 
	{ NOTE_A4, 100 }, 
	{ NOTE_BB4, 100 }, 
	{ NOTE_C5, 100 }, 
	{ NOTE_D5, 100 }, 
	{ NOTE_E5, 100 }, 
	{ NOTE_FS5, 200 }, 
	{ NOTE_REST, 200 }, 
	{ NOTE_REST, 100 }, 
	{ NOTE_FS4, 100 }, 
	{ NOTE_G4, 100 }, 
	{ NOTE_A4, 100 }, 
	{ NOTE_BB4, 100 }, 
	{ NOTE_C5, 100 }, 
	{ NOTE_D5, 100 }, 
	{ NOTE_E5, 100 }, 
	{ NOTE_FS5, 200 }, 
	{ NOTE_REST, 200 }, 
	{ NOTE_REST, 100 }, 
	{ NOTE_FS4, 100 }, 
	{ NOTE_G4, 100 }, 
	{ NOTE_A4, 100 }, 
	{ NOTE_BB4, 100 }, 
	{ NOTE_C5, 100 }, 
	{ NOTE_D5, 100 }, 
	{ NOTE_E5, 100 }, 
	{ NOTE_FS5, 200 }, 
	{ NOTE_REST, 200 }, 
	{ NOTE_REST, 100 }, 
	{ NOTE_G4, 100 }, 
	{ NOTE_A4, 100 }, 
	{ NOTE_BB4, 100 }, 
	{ NOTE_C5, 100 }, 
	{ NOTE_D5, 100 }, 
	{ NOTE_EB5, 100 }, 
	{ NOTE_FS5, 100 }, 
	{ NOTE_G5, 200 }, 
	{ NOTE_REST, 200 }, 
	{ NOTE_REST, 100 }, 
	{ NOTE_FS4, 100 }, 
	{ NOTE_G4, 100 }, 
	{ NOTE_A4, 100 }, 
	{ NOTE_BB4, 100 }, 
	{ NOTE_C5, 100 }, 
	{ NOTE_D5, 100 }, 
	{ NOTE_E5, 100 }, 
	{ NOTE_FS5, 200 }, 
	{ NOTE_REST, 200 }, 
	{ NOTE_BB4, 100 }, 
	{ NOTE_D5, 100 }, 
	{ NOTE_G5, 100 }, 
	{ NOTE_BB5, 100 }, 
	{ NOTE_BB4, 100 }, 
	{ NOTE_D5, 100 }, 
	{ NOTE_G5, 100 }, 
	{ NOTE_BB5, 100 }, 
	{ NOTE_BB4, 100 }, 
	{ NOTE_D5, 100 }, 
	{ NOTE_G5, 100 }, 
	{ NOTE_BB5, 100 }, 
	{ NOTE_D4, 100 }, 
	{ NOTE_G4, 100 }, 
	{ NOTE_BB4, 100 }, 
	{ NOTE_D5, 100 }, 
	{ NOTE_D4, 100 }, 
	{ NOTE_G4, 100 }, 
	{ NOTE_BB4, 100 }, 
	{ NOTE_D5, 100 }, 
	{ NOTE_D4, 100 }, 
	{ NOTE_G4, 100 }, 
	{ NOTE_BB4, 100 }, 
	{ NOTE_D5, 100 }, 
	{ NOTE_G3, 100 }, 
	{ NOTE_BB3, 100 }, 
	{ NOTE_D4, 100 }, 
	{ NOTE_G4, 100 }, 
	{ NOTE_G3, 100 }, 
	{ NOTE_BB3, 100 }, 
	{ NOTE_D4, 100 }, 
	{ NOTE_G4, 100 }, 
	{ NOTE_G3, 100 }, 
	{ NOTE_BB3, 100 }, 
	{ NOTE_D4, 100 }, 
	{ NOTE_G4, 100 }, 
	{ NOTE_D4, 100 }, 
	{ NOTE_G4, 100 }, 
	{ NOTE_D4, 100 }, 
	{ NOTE_G4, 100 }, 
	{ NOTE_D4, 100 }, 
	{ NOTE_G4, 100 }, 
	{ NOTE_D4, 100 }, 
	{ NOTE_G4, 100 }, 
	{ NOTE_D4, 100 }, 
	{ NOTE_G4, 100 }, 
	{ NOTE_D4, 100 }, 
	{ NOTE_G4, 100 }, 
	{ NOTE_EB4, 100 }, 
	{ NOTE_G4, 100 }, 
	{ NOTE_EB4, 100 }, 
	{ NOTE_G4, 100 }, 
	{ NOTE_EB4, 100 }, 
	{ NOTE_G4, 100 }, 
	{ NOTE_EB4, 100 }, 
	{ NOTE_G4, 100 }, 
	{ NOTE_EB4, 100 }, 
	{ NOTE_C4, 100 }, 
	{ NOTE_EB4, 100 }, 
	{ NOTE_C4, 100 }, 
	{ NOTE_E4, 100 }, 
	{ NOTE_G4, 100 }, 
	{ NOTE_E4, 100 }, 
	{ NOTE_G4, 100 }, 
	{ NOTE_E4, 100 }, 
	{ NOTE_G4, 100 }, 
	{ NOTE_E4, 100 }, 
	{ NOTE_G4, 100 }, 
	{ NOTE_E4, 100 }, 
	{ NOTE_G4, 100 }, 
	{ NOTE_E4, 100 }, 
	{ NOTE_G4, 100 }, 
	{ NOTE_F4, 100 }, 
	{ NOTE_A4, 100 }, 
	{ NOTE_F4, 100 }, 
	{ NOTE_A4, 100 }, 
	{ NOTE_F4, 100 }, 
	{ NOTE_A4, 100 }, 
	{ NOTE_F4, 100 }, 
	{ NOTE_A4, 100 }, 
	{ NOTE_F4, 100 }, 
	{ NOTE_A4, 100 }, 
	{ NOTE_F4, 100 }, 
	{ NOTE_A4, 100 }, 
	{ NOTE_E4, 100 }, 
	{ NOTE_A4, 100 }, 
	{ NOTE_E4, 100 }, 
	{ NOTE_A4, 100 }, 
	{ NOTE_E4, 100 }, 
	{ NOTE_A4, 100 }, 
	{ NOTE_E4, 100 }, 
	{ NOTE_A4, 100 }, 
	{ NOTE_E4, 100 }, 
	{ NOTE_A4, 100 }, 
	{ NOTE_E4, 100 }, 
	{ NOTE_A4, 100 }, 
	{ NOTE_E4, 100 }, 
	{ NOTE_A4, 100 }, 
	{ NOTE_E4, 100 }, 
	{ NOTE_A4, 100 }, 
	{ NOTE_E4, 100 }, 
	{ NOTE_A4, 100 }, 
	{ NOTE_E4, 100 }, 
	{ NOTE_A4, 100 }, 
	{ NOTE_E4, 100 }, 
	{ NOTE_A4, 100 }, 
	{ NOTE_E4, 100 }, 
	{ NOTE_A4, 100 }, 
	{ NOTE_F4, 100 }, 
	{ NOTE_D4, 100 }, 
	{ NOTE_E4, 100 }, 
	{ NOTE_F4, 100 }, 
	{ NOTE_G4, 100 }, 
	{ NOTE_A4, 100 }, 
	{ NOTE_B4, 100 }, 
	{ NOTE_CS5, 100 }, 
	{ NOTE_D5, 100 }, 
	{ NOTE_A4, 100 }, 
	{ NOTE_B4, 100 }, 
	{ NOTE_CS5, 100 }, 
	{ NOTE_D5, 100 }, 
	{ NOTE_E5, 100 }, 
	{ NOTE_F5, 100 }, 
	{ NOTE_G5, 100 }, 
	{ NOTE_A5, 100 }, 
	{ NOTE_D5, 100 }, 
	{ NOTE_E5, 100 }, 
	{ NOTE_F5, 100 }, 
	{ NOTE_G5, 100 }, 
	{ NOTE_A5, 100 }, 
	{ NOTE_B5, 100 }, 
	{ NOTE_CS6, 100 }, 
	{ NOTE_D6, 400 }, 
	{ NOTE_REST, 800 }, 
	{ NOTE_D4, 400 }, 
	{ NOTE_D4, 400 }, 
	{ NOTE_D4, 400 }, 
	{ NOTE_D4, 400 }, 
	{ NOTE_D4, 400 }, 
	{ NOTE_D4, 400 }, 
	{ NOTE_D4, 400 }, 
	{ NOTE_D4, 400 }, 
	{ NOTE_D4, 400 }, 
	{ NOTE_D4, 400 }, 
	{ NOTE_REST, 800 }, 
	{ NOTE_D4, 400 }, 
	{ NOTE_D4, 400 }, 
	{ NOTE_D4, 400 }, 
	{ NOTE_D4, 400 }, 
	{ NOTE_D4, 400 }, 
	{ NOTE_D4, 400 }, 
	{ NOTE_D4, 400 }, 
	{ NOTE_D4, 400 }, 
	{ NOTE_D4, 400 }, 
	{ NOTE_D4, 400 }, 
	{ NOTE_REST, 800 }, 
	{ NOTE_REST, 1200 }, 
	{ NOTE_REST, 1200 }, 
	{ NOTE_REST, 1200 }, 
	{ NOTE_REST, 1200 }, 
	{ NOTE_REST, 1200 }, 
	{ NOTE_REST, 1200 }, 
	{ NOTE_F5, 200 }, 
	{ NOTE_A3, 200 }, 
	{ NOTE_A3, 200 }, 
	{ NOTE_A4, 200 }, 
	{ NOTE_D5, 200 }, 
	{ NOTE_F5, 200 }, 
	{ NOTE_G5, 200 }, 
	{ NOTE_BB3, 200 }, 
	{ NOTE_BB3, 200 }, 
	{ NOTE_BB4, 200 }, 
	{ NOTE_D5, 200 }, 
	{ NOTE_G5, 200 }, 
	{ NOTE_G5, 200 }, 
	{ NOTE_C4, 200 }, 
	{ NOTE_C4, 200 }, 
	{ NOTE_C5, 200 }, 
	{ NOTE_E5, 200 }, 
	{ NOTE_G5, 200 }, 
	{ NOTE_F5, 200 }, 
	{ NOTE_C4, 200 }, 
	{ NOTE_C4, 200 }, 
	{ NOTE_A4, 200 }, 
	{ NOTE_C5, 200 }, 
	{ NOTE_F5, 200 }, 
	{ NOTE_F5, 200 }, 
	{ NOTE_BB3, 200 }, 
	{ NOTE_BB3, 200 }, 
	{ NOTE_BB4, 200 }, 
	{ NOTE_D5, 200 }, 
	{ NOTE_F5, 200 }, 
	{ NOTE_EB5, 200 }, 
	{ NOTE_BB3, 200 }, 
	{ NOTE_BB3, 200 }, 
	{ NOTE_G4, 200 }, 
	{ NOTE_BB4, 200 }, 
	{ NOTE_EB5, 200 }, 
	{ NOTE_EB5, 200 }, 
	{ NOTE_AB3, 200 }, 
	{ NOTE_AB3, 200 }, 
	{ NOTE_AB4, 200 }, 
	{ NOTE_C5, 200 }, 
	{ NOTE_EB5, 200 }, 
	{ NOTE_EB5, 200 }, 
	{ NOTE_B3, 200 }, 
	{ NOTE_B3, 200 }, 
	{ NOTE_G4, 200 }, 
	{ NOTE_B4, 200 }, 
	{ NOTE_D5, 200 }, 
	{ NOTE_D5, 200 }, 
	{ NOTE_B3, 200 }, 
	{ NOTE_B3, 200 }, 
	{ NOTE_G4, 200 }, 
	{ NOTE_B4, 200 }, 
	{ NOTE_D5, 200 }, 
	{ NOTE_C5, 100 }, 
	{ NOTE_C4, 100 }, 
	{ NOTE_D4, 100 }, 
	{ NOTE_EB4, 100 }, 
	{ NOTE_F4, 100 }, 
	{ NOTE_G4, 100 }, 
	{ NOTE_A4, 100 }, 
	{ NOTE_B4, 100 }, 
	{ NOTE_C5, 200 }, 
	{ NOTE_REST, 200 }, 
	{ NOTE_REST, 100 }, 
	{ NOTE_C4, 100 }, 
	{ NOTE_D4, 100 }, 
	{ NOTE_EB4, 100 }, 
	{ NOTE_F4, 100 }, 
	{ NOTE_G4, 100 }, 
	{ NOTE_A4, 100 }, 
	{ NOTE_B4, 100 }, 
	{ NOTE_C5, 200 }, 
	{ NOTE_REST, 200 }, 
	{ NOTE_REST, 100 }, 
	{ NOTE_C4, 100 }, 
	{ NOTE_D4, 100 }, 
	{ NOTE_EB4, 100 }, 
	{ NOTE_F4, 100 }, 
	{ NOTE_G4, 100 }, 
	{ NOTE_A4, 100 }, 
	{ NOTE_B4, 100 }, 
	{ NOTE_C5, 200 }, 
	{ NOTE_REST, 200 }, 
	{ NOTE_EB4, 100 }, 
	{ NOTE_C5, 100 }, 
	{ NOTE_BB4, 100 }, 
	{ NOTE_C5, 100 }, 
	{ NOTE_EB4, 100 }, 
	{ NOTE_C5, 100 }, 
	{ NOTE_BB4, 100 }, 
	{ NOTE_C5, 100 }, 
	{ NOTE_EB4, 100 }, 
	{ NOTE_C5, 100 }, 
	{ NOTE_BB4, 100 }, 
	{ NOTE_C5, 100 }, 
	{ NOTE_F4, 100 }, 
	{ NOTE_C5, 100 }, 
	{ NOTE_BB4, 100 }, 
	{ NOTE_C5, 100 }, 
	{ NOTE_F4, 100 }, 
	{ NOTE_C5, 100 }, 
	{ NOTE_BB4, 100 }, 
	{ NOTE_C5, 100 }, 
	{ NOTE_F4, 100 }, 
	{ NOTE_C5, 100 }, 
	{ NOTE_BB4, 100 }, 
	{ NOTE_C5, 100 }, 
	{ NOTE_G4, 100 }, 
	{ NOTE_C5, 100 }, 
	{ NOTE_B4, 100 }, 
	{ NOTE_C5, 100 }, 
	{ NOTE_G4, 100 }, 
	{ NOTE_C5, 100 }, 
	{ NOTE_B4, 100 }, 
	{ NOTE_C5, 100 }, 
	{ NOTE_G4, 100 }, 
	{ NOTE_B4, 100 }, 
	{ NOTE_A4, 100 }, 
	{ NOTE_B4, 100 }, 
	{ NOTE_C5, 100 }, 
	{ NOTE_C4, 100 }, 
	{ NOTE_C4, 100 }, 
	{ NOTE_C4, 100 }, 
	{ NOTE_C4, 100 }, 
	{ NOTE_C4, 100 }, 
	{ NOTE_C4, 100 }, 
	{ NOTE_C4, 100 }, 
	{ NOTE_C4, 100 }, 
	{ NOTE_C4, 100 }, 
	{ NOTE_C4, 100 }, 
	{ NOTE_C4, 100 }, 
	{ NOTE_BB4, 100 }, 
	{ NOTE_C4, 100 }, 
	{ NOTE_C4, 100 }, 
	{ NOTE_C4, 100 }, 
	{ NOTE_C4, 100 }, 
	{ NOTE_C4, 100 }, 
	{ NOTE_C4, 100 }, 
	{ NOTE_C4, 100 }, 
	{ NOTE_C4, 100 }, 
	{ NOTE_C4, 100 }, 
	{ NOTE_C4, 100 }, 
	{ NOTE_C4, 100 }, 
	{ NOTE_AB4, 100 }, 
	{ NOTE_C4, 100 }, 
	{ NOTE_C4, 100 }, 
	{ NOTE_C4, 100 }, 
	{ NOTE_C4, 100 }, 
	{ NOTE_C4, 100 }, 
	{ NOTE_C4, 100 }, 
	{ NOTE_C4, 100 }, 
	{ NOTE_C4, 100 }, 
	{ NOTE_C4, 100 }, 
	{ NOTE_C4, 100 }, 
	{ NOTE_C4, 100 }, 
	{ NOTE_G4, 100 }, 
	{ NOTE_C4, 100 }, 
	{ NOTE_C4, 100 }, 
	{ NOTE_C4, 100 }, 
	{ NOTE_C4, 100 }, 
	{ NOTE_C4, 100 }, 
	{ NOTE_C4, 100 }, 
	{ NOTE_C4, 100 }, 
	{ NOTE_C4, 200 }, 
	{ NOTE_REST, 200 }, 
	{ NOTE_REST, 1200 }, 
	{ NOTE_REST, 1200 }, 
	{ NOTE_REST, 1200 }, 
	{ NOTE_REST, 1200 }, 
	{ NOTE_REST, 1200 }, 
	{ NOTE_REST, 1200 }, 
	{ NOTE_REST, 1200 }, 
	{ NOTE_REST, 1200 }, 
	{ NOTE_REST, 1200 }, 
	{ NOTE_REST, 1200 }, 
	{ NOTE_REST, 1200 }, 
	{ NOTE_C4, 100 }, 
	{ NOTE_C4, 100 }, 
	{ NOTE_C4, 100 }, 
	{ NOTE_C4, 100 }, 
	{ NOTE_C4, 100 }, 
	{ NOTE_C4, 100 }, 
	{ NOTE_C4, 100 }, 
	{ NOTE_C4, 100 }, 
	{ NOTE_C4, 100 }, 
	{ NOTE_C4, 100 }, 
	{ NOTE_C4, 100 }, 
	{ NOTE_C4, 100 }, 
	{ NOTE_AB4, 100 }, 
	{ NOTE_C4, 100 }, 
	{ NOTE_C4, 100 }, 
	{ NOTE_C4, 100 }, 
	{ NOTE_AB4, 100 }, 
	{ NOTE_C4, 100 }, 
	{ NOTE_C4, 100 }, 
	{ NOTE_C4, 100 }, 
	{ NOTE_AB4, 100 }, 
	{ NOTE_C4, 100 }, 
	{ NOTE_C4, 100 }, 
	{ NOTE_C4, 100 }, 
	{ NOTE_B3, 100 }, 
	{ NOTE_B3, 100 }, 
	{ NOTE_B3, 100 }, 
	{ NOTE_B3, 100 }, 
	{ NOTE_B3, 100 }, 
	{ NOTE_B3, 100 }, 
	{ NOTE_B3, 100 }, 
	{ NOTE_B3, 100 }, 
	{ NOTE_B3, 100 }, 
	{ NOTE_B3, 100 }, 
	{ NOTE_B3, 100 }, 
	{ NOTE_B3, 100 }, 
	{ NOTE_G4, 100 }, 
	{ NOTE_BB3, 100 }, 
	{ NOTE_BB3, 100 }, 
	{ NOTE_BB3, 100 }, 
	{ NOTE_G4, 100 }, 
	{ NOTE_BB3, 100 }, 
	{ NOTE_BB3, 100 }, 
	{ NOTE_BB3, 100 }, 
	{ NOTE_G4, 100 }, 
	{ NOTE_BB3, 100 }, 
	{ NOTE_BB3, 100 }, 
	{ NOTE_BB3, 100 }, 
	{ NOTE_A3, 100 }, 
	{ NOTE_A3, 100 }, 
	{ NOTE_A3, 100 }, 
	{ NOTE_A3, 100 }, 
	{ NOTE_A3, 100 }, 
	{ NOTE_A3, 100 }, 
	{ NOTE_A3, 100 }, 
	{ NOTE_A3, 100 }, 
	{ NOTE_A3, 100 }, 
	{ NOTE_A3, 100 }, 
	{ NOTE_A3, 100 }, 
	{ NOTE_A3, 100 }, 
	{ NOTE_F4, 100 }, 
	{ NOTE_AB3, 100 }, 
	{ NOTE_AB3, 100 }, 
	{ NOTE_AB3, 100 }, 
	{ NOTE_F4, 100 }, 
	{ NOTE_AB3, 100 }, 
	{ NOTE_AB3, 100 }, 
	{ NOTE_AB3, 100 }, 
	{ NOTE_F4, 100 }, 
	{ NOTE_AB3, 100 }, 
	{ NOTE_AB3, 100 }, 
	{ NOTE_AB3, 100 }, 
	{ NOTE_G3, 100 }, 
	{ NOTE_G4, 100 }, 
	{ NOTE_G4, 100 }, 
	{ NOTE_G4, 100 }, 
	{ NOTE_G4, 100 }, 
	{ NOTE_G4, 100 }, 
	{ NOTE_G4, 100 }, 
	{ NOTE_G4, 100 }, 
	{ NOTE_G4, 100 }, 
	{ NOTE_G4, 100 }, 
	{ NOTE_G4, 100 }, 
	{ NOTE_G4, 100 }, 
	{ NOTE_EB5, 100 }, 
	{ NOTE_G4, 100 }, 
	{ NOTE_G4, 100 }, 
	{ NOTE_G4, 100 }, 
	{ NOTE_EB5, 100 }, 
	{ NOTE_G4, 100 }, 
	{ NOTE_G4, 100 }, 
	{ NOTE_G4, 100 }, 
	{ NOTE_EB5, 100 }, 
	{ NOTE_G4, 100 }, 
	{ NOTE_G4, 100 }, 
	{ NOTE_G4, 100 }, 
	{ NOTE_FS4, 100 }, 
	{ NOTE_FS4, 100 }, 
	{ NOTE_FS4, 100 }, 
	{ NOTE_FS4, 100 }, 
	{ NOTE_FS4, 100 }, 
	{ NOTE_FS4, 100 }, 
	{ NOTE_FS4, 100 }, 
	{ NOTE_FS4, 100 }, 
	{ NOTE_FS4, 100 }, 
	{ NOTE_FS4, 100 }, 
	{ NOTE_FS4, 100 }, 
	{ NOTE_FS4, 100 }, 
	{ NOTE_D5, 100 }, 
	{ NOTE_F4, 100 }, 
	{ NOTE_F4, 100 }, 
	{ NOTE_F4, 100 }, 
	{ NOTE_D5, 100 }, 
	{ NOTE_F4, 100 }, 
	{ NOTE_F4, 100 }, 
	{ NOTE_F4, 100 }, 
	{ NOTE_D5, 100 }, 
	{ NOTE_F4, 100 }, 
	{ NOTE_F4, 100 }, 
	{ NOTE_F4, 100 }, 
	{ NOTE_E4, 100 }, 
	{ NOTE_E4, 100 }, 
	{ NOTE_E4, 100 }, 
	{ NOTE_E4, 100 }, 
	{ NOTE_E4, 100 }, 
	{ NOTE_E4, 100 }, 
	{ NOTE_E4, 100 }, 
	{ NOTE_E4, 100 }, 
	{ NOTE_E4, 100 }, 
	{ NOTE_E4, 100 }, 
	{ NOTE_E4, 100 }, 
	{ NOTE_E4, 100 }, 
	{ NOTE_C5, 100 }, 
	{ NOTE_EB4, 100 }, 
	{ NOTE_EB4, 100 }, 
	{ NOTE_EB4, 100 }, 
	{ NOTE_C5, 100 }, 
	{ NOTE_EB4, 100 }, 
	{ NOTE_EB4, 100 }, 
	{ NOTE_EB4, 100 }, 
	{ NOTE_C5, 100 }, 
	{ NOTE_EB4, 100 }, 
	{ NOTE_EB4, 100 }, 
	{ NOTE_EB4, 100 }, 
	{ NOTE_D4, 400 }, 
	{ NOTE_REST, 800 }, 
	{ NOTE_REST, 1200 }, 
	{ NOTE_REST, 1200 }, 
	{ NOTE_REST, 1200 }, 
	{ NOTE_REST, 1200 }, 
	{ NOTE_REST, 100 }, 
	{ NOTE_D5, 100 }, 
	{ NOTE_C5, 100 }, 
	{ NOTE_BB4, 100 }, 
	{ NOTE_A4, 100 }, 
	{ NOTE_G4, 100 }, 
	{ NOTE_FS4, 100 }, 
	{ NOTE_E4, 100 }, 
	{ NOTE_D4, 100 }, 
	{ NOTE_C4, 100 }, 
	{ NOTE_BB3, 100 }, 
	{ NOTE_A3, 100 }, 
	{ NOTE_G3, 100 }, 
	{ NOTE_G3, 100 }, 
	{ NOTE_G3, 100 }, 
	{ NOTE_G3, 100 }, 
	{ NOTE_G3, 100 }, 
	{ NOTE_G3, 100 }, 
	{ NOTE_G3, 100 }, 
	{ NOTE_G3, 100 }, 
	{ NOTE_G3, 100 }, 
	{ NOTE_G3, 100 }, 
	{ NOTE_G3, 100 }, 
	{ NOTE_G3, 100 }, 
	{ NOTE_EB4, 100 }, 
	{ NOTE_G5, 100 }, 
	{ NOTE_F5, 100 }, 
	{ NOTE_EB5, 100 }, 
	{ NOTE_D5, 100 }, 
	{ NOTE_C5, 100 }, 
	{ NOTE_BB4, 100 }, 
	{ NOTE_A4, 100 }, 
	{ NOTE_G4, 100 }, 
	{ NOTE_F4, 100 }, 
	{ NOTE_EB4, 100 }, 
	{ NOTE_D4, 100 }, 
	{ NOTE_C4, 100 }, 
	{ NOTE_C4, 100 }, 
	{ NOTE_C4, 100 }, 
	{ NOTE_C4, 100 }, 
	{ NOTE_C4, 100 }, 
	{ NOTE_C4, 100 }, 
	{ NOTE_C4, 100 }, 
	{ NOTE_C4, 100 }, 
	{ NOTE_C4, 100 }, 
	{ NOTE_C4, 100 }, 
	{ NOTE_C4, 100 }, 
	{ NOTE_C4, 100 }, 
	{ NOTE_G4, 100 }, 
	{ NOTE_BB5, 100 }, 
	{ NOTE_A5, 100 }, 
	{ NOTE_G5, 100 }, 
	{ NOTE_F5, 100 }, 
	{ NOTE_EB5, 100 }, 
	{ NOTE_D5, 100 }, 
	{ NOTE_C5, 100 }, 
	{ NOTE_BB4, 100 }, 
	{ NOTE_A4, 100 }, 
	{ NOTE_G4, 100 }, 
	{ NOTE_F4, 100 }, 
	{ NOTE_EB4, 100 }, 
	{ NOTE_EB4, 100 }, 
	{ NOTE_EB4, 100 }, 
	{ NOTE_EB4, 100 }, 
	{ NOTE_EB4, 100 }, 
	{ NOTE_EB4, 100 }, 
	{ NOTE_EB4, 100 }, 
	{ NOTE_EB4, 100 }, 
	{ NOTE_EB4, 100 }, 
	{ NOTE_EB4, 100 }, 
	{ NOTE_EB4, 100 }, 
	{ NOTE_EB4, 100 }, 
	{ NOTE_BB4, 100 }, 
	{ NOTE_D6, 100 }, 
	{ NOTE_C6, 100 }, 
	{ NOTE_BB5, 100 }, 
	{ NOTE_A5, 100 }, 
	{ NOTE_G5, 100 }, 
	{ NOTE_FS5, 100 }, 
	{ NOTE_E5, 100 }, 
	{ NOTE_D5, 100 }, 
	{ NOTE_C5, 100 }, 
	{ NOTE_BB4, 100 }, 
	{ NOTE_A4, 100 }, 
	{ NOTE_G4, 400 }, 
	{ NOTE_G3, 400 }, 
	{ NOTE_G3, 400 }, 
	{ NOTE_G3, 400 }, 
	{ NOTE_G3, 400 }, 
	{ NOTE_G3, 400 }, 
	{ NOTE_G3, 400 }, 
	{ NOTE_G3, 400 }, 
	{ NOTE_G3, 400 }, 
	{ NOTE_G3, 400 }, 
	{ NOTE_G3, 400 }, 
	{ NOTE_G3, 400 }, 
	{ NOTE_G3, 100 }, 
	{ NOTE_G4, 100 }, 
	{ NOTE_A4, 100 }, 
	{ NOTE_BB4, 100 }, 
	{ NOTE_C5, 100 }, 
	{ NOTE_D5, 100 }, 
	{ NOTE_E5, 100 }, 
	{ NOTE_FS5, 100 }, 
	{ NOTE_G5, 100 }, 
	{ NOTE_A5, 100 }, 
	{ NOTE_BB5, 100 }, 
	{ NOTE_A5, 100 }, 
	{ NOTE_G5, 100 }, 
	{ NOTE_F5, 100 }, 
	{ NOTE_EB5, 100 }, 
	{ NOTE_D5, 100 }, 
	{ NOTE_C5, 100 }, 
	{ NOTE_BB4, 100 }, 
	{ NOTE_A4, 100 }, 
	{ NOTE_G4, 100 }, 
	{ NOTE_FS4, 100 }, 
	{ NOTE_E4, 100 }, 
	{ NOTE_D4, 100 }, 
	{ NOTE_C4, 100 }, 
	{ NOTE_BB3, 100 }, 
	{ NOTE_G3, 100 }, 
	{ NOTE_BB3, 100 }, 
	{ NOTE_G3, 100 }, 
	{ NOTE_BB3, 100 }, 
	{ NOTE_G3, 100 }, 
	{ NOTE_BB3, 100 }, 
	{ NOTE_G3, 100 }, 
	{ NOTE_BB3, 100 }, 
	{ NOTE_G3, 100 }, 
	{ NOTE_BB3, 100 }, 
	{ NOTE_G3, 100 }, 
	{ NOTE_D4, 400 }, 
	{ NOTE_REST, 800 }, 
	{ NOTE_REST, 1200 }, 
	{ NOTE_REST, 1200 }, 
	{ NOTE_REST, 1200 }, 
	{ NOTE_D4, 100 }, 
	{ NOTE_D4, 100 }, 
	{ NOTE_D4, 100 }, 
	{ NOTE_D4, 100 }, 
	{ NOTE_D4, 100 }, 
	{ NOTE_D4, 100 }, 
	{ NOTE_D4, 100 }, 
	{ NOTE_D4, 100 }, 
	{ NOTE_D4, 100 }, 
	{ NOTE_D4, 100 }, 
	{ NOTE_D4, 100 }, 
	{ NOTE_D4, 100 }, 
	{ NOTE_G4, 100 }, 
	{ NOTE_D4, 100 }, 
	{ NOTE_BB3, 100 }, 
	{ NOTE_G3, 100 }, 
	{ NOTE_G4, 100 }, 
	{ NOTE_D4, 100 }, 
	{ NOTE_BB3, 100 }, 
	{ NOTE_G3, 100 }, 
	{ NOTE_G4, 100 }, 
	{ NOTE_D4, 100 }, 
	{ NOTE_BB3, 100 }, 
	{ NOTE_G3, 100 }, 
	{ NOTE_A3, 100 }, 
	{ NOTE_A3, 100 }, 
	{ NOTE_A3, 100 }, 
	{ NOTE_A3, 100 }, 
	{ NOTE_A3, 100 }, 
	{ NOTE_A3, 100 }, 
	{ NOTE_A3, 100 }, 
	{ NOTE_A3, 100 }, 
	{ NOTE_A3, 100 }, 
	{ NOTE_A3, 100 }, 
	{ NOTE_A3, 100 }, 
	{ NOTE_A3, 100 }, 
	{ NOTE_A3, 100 }, 
	{ NOTE_A3, 100 }, 
	{ NOTE_A3, 100 }, 
	{ NOTE_A3, 100 }, 
	{ NOTE_A3, 100 }, 
	{ NOTE_A3, 100 }, 
	{ NOTE_A3, 100 }, 
	{ NOTE_A3, 100 }, 
	{ NOTE_A3, 100 }, 
	{ NOTE_A3, 100 }, 
	{ NOTE_A3, 100 }, 
	{ NOTE_A3, 100 }, 
	{ NOTE_G4, 100 }, 
	{ NOTE_D4, 100 }, 
	{ NOTE_BB3, 100 }, 
	{ NOTE_G3, 100 }, 
	{ NOTE_G4, 100 }, 
	{ NOTE_D4, 100 }, 
	{ NOTE_BB3, 100 }, 
	{ NOTE_G3, 100 }, 
	{ NOTE_G4, 100 }, 
	{ NOTE_D4, 100 }, 
	{ NOTE_BB3, 100 }, 
	{ NOTE_G3, 100 }, 
	{ NOTE_A3, 100 }, 
	{ NOTE_A3, 100 }, 
	{ NOTE_A3, 100 }, 
	{ NOTE_A3, 100 }, 
	{ NOTE_A3, 100 }, 
	{ NOTE_A3, 100 }, 
	{ NOTE_A3, 100 }, 
	{ NOTE_A3, 100 }, 
	{ NOTE_A3, 100 }, 
	{ NOTE_A3, 100 }, 
	{ NOTE_A3, 100 }, 
	{ NOTE_A3, 100 }, 
	{ NOTE_A3, 100 }, 
	{ NOTE_A3, 100 }, 
	{ NOTE_A3, 100 }, 
	{ NOTE_A3, 100 }, 
	{ NOTE_A3, 100 }, 
	{ NOTE_A3, 100 }, 
	{ NOTE_A3, 100 }, 
	{ NOTE_A3, 100 }, 
	{ NOTE_A3, 100 }, 
	{ NOTE_A3, 100 }, 
	{ NOTE_A3, 100 }, 
	{ NOTE_A3, 100 }, 
	{ NOTE_BB3, 100 }, 
	{ NOTE_D4, 100 }, 
	{ NOTE_D4, 100 }, 
	{ NOTE_D4, 100 }, 
	{ NOTE_G4, 100 }, 
	{ NOTE_G4, 100 }, 
	{ NOTE_G4, 100 }, 
	{ NOTE_G4, 100 }, 
	{ NOTE_BB4, 100 }, 
	{ NOTE_BB4, 100 }, 
	{ NOTE_BB4, 100 }, 
	{ NOTE_BB4, 100 }, 
	{ NOTE_D5, 100 }, 
	{ NOTE_D5, 100 }, 
	{ NOTE_D5, 100 }, 
	{ NOTE_D5, 100 }, 
	{ NOTE_G5, 100 }, 
	{ NOTE_G5, 100 }, 
	{ NOTE_G5, 100 }, 
	{ NOTE_G5, 100 }, 
	{ NOTE_BB5, 100 }, 
	{ NOTE_BB5, 100 }, 
	{ NOTE_BB5, 100 }, 
	{ NOTE_BB5, 100 }, 
	{ NOTE_G5, 100 }, 
	{ NOTE_G5, 100 }, 
	{ NOTE_G5, 100 }, 
	{ NOTE_G5, 100 }, 
	{ NOTE_D5, 100 }, 
	{ NOTE_D5, 100 }, 
	{ NOTE_D5, 100 }, 
	{ NOTE_D5, 100 }, 
	{ NOTE_BB4, 100 }, 
	{ NOTE_BB4, 100 }, 
	{ NOTE_BB4, 100 }, 
	{ NOTE_BB4, 100 }, 
	{ NOTE_G3, 1200 }, 
};
const uint16_t NUM_OF_NOTES2 = sizeof(melody2)/sizeof(melody2[0]);

const Note melody3[] PROGMEM = {
	{ NOTE_G4, 100 }, 
	{ NOTE_G3, 100 }, 
	{ NOTE_G3, 100 }, 
	{ NOTE_G3, 100 }, 
	{ NOTE_G3, 100 }, 
	{ NOTE_G3, 100 }, 
	{ NOTE_G3, 100 }, 
	{ NOTE_G3, 100 }, 
	{ NOTE_G3, 100 }, 
	{ NOTE_G3, 100 }, 
	{ NOTE_G3, 100 }, 
	{ NOTE_G3, 100 }, 
	{ NOTE_F4, 100 }, 
	{ NOTE_G3, 100 }, 
	{ NOTE_G3, 100 }, 
	{ NOTE_G3, 100 }, 
	{ NOTE_G3, 100 }, 
	{ NOTE_G3, 100 }, 
	{ NOTE_G3, 100 }, 
	{ NOTE_G3, 100 }, 
	{ NOTE_G3, 100 }, 
	{ NOTE_G3, 100 }, 
	{ NOTE_G3, 100 }, 
	{ NOTE_G3, 100 }, 
	{ NOTE_EB4, 100 }, 
	{ NOTE_G3, 100 }, 
	{ NOTE_G3, 100 }, 
	{ NOTE_G3, 100 }, 
	{ NOTE_G3, 100 }, 
	{ NOTE_G3, 100 }, 
	{ NOTE_G3, 100 }, 
	{ NOTE_G3, 100 }, 
	{ NOTE_G3, 100 }, 
	{ NOTE_G3, 100 }, 
	{ NOTE_G3, 100 }, 
	{ NOTE_G3, 100 }, 
	{ NOTE_D4, 100 }, 
	{ NOTE_G3, 100 }, 
	{ NOTE_G3, 100 }, 
	{ NOTE_G3, 100 }, 
	{ NOTE_G3, 100 }, 
	{ NOTE_G3, 100 }, 
	{ NOTE_G3, 100 }, 
	{ NOTE_G3, 100 }, 
	{ NOTE_G3, 100 }, 
	{ NOTE_G3, 100 }, 
	{ NOTE_REST, 200 }, 
	{ NOTE_REST, 1200 }, 
	{ NOTE_D5, 100 }, 
	{ NOTE_D4, 100 }, 
	{ NOTE_D4, 100 }, 
	{ NOTE_D4, 100 }, 
	{ NOTE_D4, 100 }, 
	{ NOTE_D4, 100 }, 
	{ NOTE_D4, 100 }, 
	{ NOTE_D4, 100 }, 
	{ NOTE_D4, 100 }, 
	{ NOTE_D4, 100 }, 
	{ NOTE_D4, 100 }, 
	{ NOTE_D4, 100 }, 
	{ NOTE_C5, 100 }, 
	{ NOTE_D4, 100 }, 
	{ NOTE_D4, 100 }, 
	{ NOTE_D4, 100 }, 
	{ NOTE_D4, 100 }, 
	{ NOTE_D4, 100 }, 
	{ NOTE_D4, 100 }, 
	{ NOTE_D4, 100 }, 
	{ NOTE_D4, 100 }, 
	{ NOTE_D4, 100 }, 
	{ NOTE_D4, 100 }, 
	{ NOTE_D4, 100 }, 
	{ NOTE_BB4, 100 }, 
	{ NOTE_D4, 100 }, 
	{ NOTE_D4, 100 }, 
	{ NOTE_D4, 100 }, 
	{ NOTE_D4, 100 }, 
	{ NOTE_D4, 100 }, 
	{ NOTE_D4, 100 }, 
	{ NOTE_D4, 100 }, 
	{ NOTE_D4, 100 }, 
	{ NOTE_D4, 100 }, 
	{ NOTE_D4, 100 }, 
	{ NOTE_D4, 100 }, 
	{ NOTE_A4, 100 }, 
	{ NOTE_D4, 100 }, 
	{ NOTE_D4, 100 }, 
	{ NOTE_D4, 100 }, 
	{ NOTE_D4, 100 }, 
	{ NOTE_D4, 100 }, 
	{ NOTE_D4, 100 }, 
	{ NOTE_D4, 100 }, 
	{ NOTE_D4, 100 }, 
	{ NOTE_D4, 100 }, 
	{ NOTE_REST, 200 }, 
	{ NOTE_REST, 1200 }, 
	{ NOTE_G3, 100 }, 
	{ NOTE_G3, 100 }, 
	{ NOTE_G3, 100 }, 
	{ NOTE_G3, 100 }, 
	{ NOTE_G3, 100 }, 
	{ NOTE_G3, 100 }, 
	{ NOTE_G3, 100 }, 
	{ NOTE_G3, 100 }, 
	{ NOTE_G3, 100 }, 
	{ NOTE_G3, 100 }, 
	{ NOTE_G3, 100 }, 
	{ NOTE_G3, 100 }, 
	{ NOTE_G3, 100 }, 
	{ NOTE_G3, 100 }, 
	{ NOTE_G3, 100 }, 
	{ NOTE_G3, 100 }, 
	{ NOTE_G3, 100 }, 
	{ NOTE_G3, 100 }, 
	{ NOTE_G3, 100 }, 
	{ NOTE_G3, 100 }, 
	{ NOTE_G3, 100 }, 
	{ NOTE_G3, 100 }, 
	{ NOTE_G3, 100 }, 
	{ NOTE_G3, 100 }, 
	{ NOTE_C4, 100 }, 
	{ NOTE_C4, 100 }, 
	{ NOTE_C4, 100 }, 
	{ NOTE_C4, 100 }, 
	{ NOTE_C4, 100 }, 
	{ NOTE_C4, 100 }, 
	{ NOTE_C4, 100 }, 
	{ NOTE_C4, 100 }, 
	{ NOTE_C4, 100 }, 
	{ NOTE_C4, 100 }, 
	{ NOTE_C4, 100 }, 
	{ NOTE_C4, 100 }, 
	{ NOTE_C4, 100 }, 
	{ NOTE_C4, 100 }, 
	{ NOTE_C4, 100 }, 
	{ NOTE_C4, 100 }, 
	{ NOTE_C4, 100 }, 
	{ NOTE_C4, 100 }, 
	{ NOTE_C4, 100 }, 
	{ NOTE_C4, 100 }, 
	{ NOTE_C4, 100 }, 
	{ NOTE_C4, 100 }, 
	{ NOTE_C4, 100 }, 
	{ NOTE_C4, 100 }, 
	{ NOTE_EB4, 100 }, 
	{ NOTE_EB4, 100 }, 
	{ NOTE_EB4, 100 }, 
	{ NOTE_EB4, 100 }, 
	{ NOTE_EB4, 100 }, 
	{ NOTE_EB4, 100 }, 
	{ NOTE_EB4, 100 }, 
	{ NOTE_EB4, 100 }, 
	{ NOTE_EB4, 100 }, 
	{ NOTE_EB4, 100 }, 
	{ NOTE_EB4, 100 }, 
	{ NOTE_EB4, 100 }, 
	{ NOTE_EB4, 100 }, 
	{ NOTE_EB4, 100 }, 
	{ NOTE_EB4, 100 }, 
	{ NOTE_EB4, 100 }, 
	{ NOTE_EB4, 100 }, 
	{ NOTE_EB4, 100 }, 
	{ NOTE_EB4, 100 }, 
	{ NOTE_EB4, 100 }, 
	{ NOTE_EB4, 100 }, 
	{ NOTE_EB4, 100 }, 
	{ NOTE_EB4, 100 }, 
	{ NOTE_EB4, 100 }, 
	{ NOTE_G4, 100 }, 
	{ NOTE_G4, 100 }, 
	{ NOTE_G4, 100 }, 
	{ NOTE_G4, 100 }, 
	{ NOTE_G4, 100 }, 
	{ NOTE_G4, 100 }, 
	{ NOTE_G4, 100 }, 
	{ NOTE_G4, 100 }, 
	{ NOTE_G4, 100 }, 
	{ NOTE_G4, 100 }, 
	{ NOTE_G4, 100 }, 
	{ NOTE_G4, 100 }, 
	{ NOTE_G4, 100 }, 
	{ NOTE_G4, 100 }, 
	{ NOTE_G4, 100 }, 
	{ NOTE_G4, 100 }, 
	{ NOTE_G4, 100 }, 
	{ NOTE_G4, 100 }, 
	{ NOTE_G4, 100 }, 
	{ NOTE_G4, 100 }, 
	{ NOTE_G4, 100 }, 
	{ NOTE_G4, 100 }, 
	{ NOTE_G4, 100 }, 
	{ NOTE_G4, 100 }, 
	{ NOTE_G4, 100 }, 
	{ NOTE_G4, 100 }, 
	{ NOTE_G4, 100 }, 
	{ NOTE_G4, 100 }, 
	{ NOTE_G4, 100 }, 
	{ NOTE_G4, 100 }, 
	{ NOTE_G4, 100 }, 
	{ NOTE_G4, 100 }, 
	{ NOTE_G4, 100 }, 
	{ NOTE_G4, 100 }, 
	{ NOTE_G4, 100 }, 
	{ NOTE_G4, 100 }, 
	{ NOTE_G4, 100 }, 
	{ NOTE_G4, 100 }, 
	{ NOTE_G4, 100 }, 
	{ NOTE_G4, 100 }, 
	{ NOTE_D5, 100 }, 
	{ NOTE_G4, 100 }, 
	{ NOTE_G4, 100 }, 
	{ NOTE_G4, 100 }, 
	{ NOTE_D5, 100 }, 
	{ NOTE_G4, 100 }, 
	{ NOTE_G4, 100 }, 
	{ NOTE_G4, 100 }, 
	{ NOTE_FS4, 400 }, 
	{ NOTE_REST, 400 }, 
	{ NOTE_REST, 100 }, 
	{ NOTE_D5, 100 }, 
	{ NOTE_A4, 100 }, 
	{ NOTE_FS4, 100 }, 
	{ NOTE_D4, 400 }, 
	{ NOTE_REST, 400 }, 
	{ NOTE_REST, 100 }, 
	{ NOTE_D5, 100 }, 
	{ NOTE_A4, 100 }, 
	{ NOTE_FS4, 100 }, 
	{ NOTE_G4, 400 }, 
	{ NOTE_REST, 400 }, 
	{ NOTE_REST, 100 }, 
	{ NOTE_D5, 100 }, 
	{ NOTE_BB4, 100 }, 
	{ NOTE_G4, 100 }, 
	{ NOTE_FS4, 400 }, 
	{ NOTE_REST, 400 }, 
	{ NOTE_REST, 100 }, 
	{ NOTE_D5, 100 }, 
	{ NOTE_A4, 100 }, 
	{ NOTE_FS4, 100 }, 
	{ NOTE_D4, 400 }, 
	{ NOTE_REST, 400 }, 
	{ NOTE_REST, 100 }, 
	{ NOTE_D5, 100 }, 
	{ NOTE_A4, 100 }, 
	{ NOTE_FS4, 100 }, 
	{ NOTE_D4, 400 }, 
	{ NOTE_REST, 400 }, 
	{ NOTE_REST, 100 }, 
	{ NOTE_D5, 100 }, 
	{ NOTE_A4, 100 }, 
	{ NOTE_FS4, 100 }, 
	{ NOTE_G4, 400 }, 
	{ NOTE_REST, 400 }, 
	{ NOTE_REST, 100 }, 
	{ NOTE_D5, 100 }, 
	{ NOTE_BB4, 100 }, 
	{ NOTE_G4, 100 }, 
	{ NOTE_FS4, 400 }, 
	{ NOTE_REST, 400 }, 
	{ NOTE_REST, 100 }, 
	{ NOTE_D5, 100 }, 
	{ NOTE_A4, 100 }, 
	{ NOTE_FS4, 100 }, 
	{ NOTE_D4, 200 }, 
	{ NOTE_D4, 200 }, 
	{ NOTE_D4, 200 }, 
	{ NOTE_D4, 200 }, 
	{ NOTE_D4, 200 }, 
	{ NOTE_D4, 200 }, 
	{ NOTE_D4, 200 }, 
	{ NOTE_D4, 200 }, 
	{ NOTE_D4, 200 }, 
	{ NOTE_D4, 200 }, 
	{ NOTE_D4, 200 }, 
	{ NOTE_D4, 200 }, 
	{ NOTE_D4, 200 }, 
	{ NOTE_D4, 200 }, 
	{ NOTE_D4, 200 }, 
	{ NOTE_D4, 200 }, 
	{ NOTE_D4, 200 }, 
	{ NOTE_D4, 200 }, 
	{ NOTE_B3, 100 }, 
	{ NOTE_D4, 100 }, 
	{ NOTE_B3, 100 }, 
	{ NOTE_D4, 100 }, 
	{ NOTE_B3, 100 }, 
	{ NOTE_D4, 100 }, 
	{ NOTE_B3, 100 }, 
	{ NOTE_D4, 100 }, 
	{ NOTE_B3, 100 }, 
	{ NOTE_D4, 100 }, 
	{ NOTE_B3, 100 }, 
	{ NOTE_D4, 100 }, 
	{ NOTE_C4, 100 }, 
	{ NOTE_EB4, 100 }, 
	{ NOTE_C4, 100 }, 
	{ NOTE_EB4, 100 }, 
	{ NOTE_C4, 100 }, 
	{ NOTE_EB4, 100 }, 
	{ NOTE_C4, 100 }, 
	{ NOTE_EB4, 100 }, 
	{ NOTE_C4, 100 }, 
	{ NOTE_EB4, 100 }, 
	{ NOTE_C4, 100 }, 
	{ NOTE_EB4, 100 }, 
	{ NOTE_CS4, 100 }, 
	{ NOTE_E4, 100 }, 
	{ NOTE_CS4, 100 }, 
	{ NOTE_E4, 100 }, 
	{ NOTE_CS4, 100 }, 
	{ NOTE_E4, 100 }, 
	{ NOTE_CS4, 100 }, 
	{ NOTE_E4, 100 }, 
	{ NOTE_CS4, 100 }, 
	{ NOTE_E4, 100 }, 
	{ NOTE_CS4, 100 }, 
	{ NOTE_E4, 100 }, 
	{ NOTE_D4, 100 }, 
	{ NOTE_F4, 100 }, 
	{ NOTE_D4, 100 }, 
	{ NOTE_F4, 100 }, 
	{ NOTE_D4, 100 }, 
	{ NOTE_F4, 100 }, 
	{ NOTE_D4, 100 }, 
	{ NOTE_F4, 100 }, 
	{ NOTE_D4, 100 }, 
	{ NOTE_F4, 100 }, 
	{ NOTE_D4, 100 }, 
	{ NOTE_F4, 100 }, 
	{ NOTE_D4, 100 }, 
	{ NOTE_E4, 100 }, 
	{ NOTE_D4, 100 }, 
	{ NOTE_E4, 100 }, 
	{ NOTE_D4, 100 }, 
	{ NOTE_E4, 100 }, 
	{ NOTE_D4, 100 }, 
	{ NOTE_E4, 100 }, 
	{ NOTE_D4, 100 }, 
	{ NOTE_E4, 100 }, 
	{ NOTE_D4, 100 }, 
	{ NOTE_E4, 100 }, 
	{ NOTE_CS4, 100 }, 
	{ NOTE_E4, 100 }, 
	{ NOTE_CS4, 100 }, 
	{ NOTE_E4, 100 }, 
	{ NOTE_CS4, 100 }, 
	{ NOTE_E4, 100 }, 
	{ NOTE_CS4, 100 }, 
	{ NOTE_E4, 100 }, 
	{ NOTE_CS4, 100 }, 
	{ NOTE_E4, 100 }, 
	{ NOTE_CS4, 100 }, 
	{ NOTE_E4, 100 }, 
	{ NOTE_D4, 400 }, 
	{ NOTE_REST, 800 }, 
	{ NOTE_REST, 1200 }, 
	{ NOTE_F4, 400 }, 
	{ NOTE_REST, 800 }, 
	{ NOTE_D4, 400 }, 
	{ NOTE_D4, 400 }, 
	{ NOTE_D4, 400 }, 
	{ NOTE_D4, 400 }, 
	{ NOTE_D4, 400 }, 
	{ NOTE_D4, 400 }, 
	{ NOTE_D4, 400 }, 
	{ NOTE_D4, 400 }, 
	{ NOTE_D4, 400 }, 
	{ NOTE_D4, 400 }, 
	{ NOTE_REST, 800 }, 
	{ NOTE_D4, 400 }, 
	{ NOTE_D4, 400 }, 
	{ NOTE_D4, 400 }, 
	{ NOTE_D4, 400 }, 
	{ NOTE_D4, 400 }, 
	{ NOTE_D4, 400 }, 
	{ NOTE_D4, 400 }, 
	{ NOTE_D4, 400 }, 
	{ NOTE_D4, 400 }, 
	{ NOTE_D4, 400 }, 
	{ NOTE_REST, 800 }, 
	{ NOTE_REST, 1200 }, 
	{ NOTE_REST, 1200 }, 
	{ NOTE_REST, 1200 }, 
	{ NOTE_REST, 1200 }, 
	{ NOTE_REST, 1200 }, 
	{ NOTE_REST, 1200 }, 
	{ NOTE_D4, 400 }, 
	{ NOTE_REST, 200 }, 
	{ NOTE_A4, 200 }, 
	{ NOTE_F4, 100 }, 
	{ NOTE_G4, 100 }, 
	{ NOTE_F4, 100 }, 
	{ NOTE_E4, 100 }, 
	{ NOTE_D4, 400 }, 
	{ NOTE_REST, 200 }, 
	{ NOTE_D5, 200 }, 
	{ NOTE_BB4, 100 }, 
	{ NOTE_A4, 100 }, 
	{ NOTE_G4, 100 }, 
	{ NOTE_F4, 100 }, 
	{ NOTE_E4, 400 }, 
	{ NOTE_REST, 200 }, 
	{ NOTE_G4, 200 }, 
	{ NOTE_E4, 100 }, 
	{ NOTE_D4, 100 }, 
	{ NOTE_C4, 100 }, 
	{ NOTE_BB3, 100 }, 
	{ NOTE_C4, 400 }, 
	{ NOTE_REST, 200 }, 
	{ NOTE_C5, 200 }, 
	{ NOTE_A4, 100 }, 
	{ NOTE_G4, 100 }, 
	{ NOTE_F4, 100 }, 
	{ NOTE_EB4, 100 }, 
	{ NOTE_D4, 400 }, 
	{ NOTE_REST, 200 }, 
	{ NOTE_F4, 200 }, 
	{ NOTE_D4, 100 }, 
	{ NOTE_C4, 100 }, 
	{ NOTE_BB3, 100 }, 
	{ NOTE_A3, 100 }, 
	{ NOTE_BB3, 400 }, 
	{ NOTE_REST, 200 }, 
	{ NOTE_BB4, 200 }, 
	{ NOTE_G4, 100 }, 
	{ NOTE_F4, 100 }, 
	{ NOTE_EB4, 100 }, 
	{ NOTE_D4, 100 }, 
	{ NOTE_C4, 400 }, 
	{ NOTE_REST, 200 }, 
	{ NOTE_EB4, 200 }, 
	{ NOTE_C4, 100 }, 
	{ NOTE_BB3, 100 }, 
	{ NOTE_AB3, 100 }, 
	{ NOTE_G3, 100 }, 
	{ NOTE_D4, 400 }, 
	{ NOTE_REST, 200 }, 
	{ NOTE_F4, 200 }, 
	{ NOTE_D4, 100 }, 
	{ NOTE_C4, 100 }, 
	{ NOTE_B3, 100 }, 
	{ NOTE_A3, 100 }, 
	{ NOTE_B3, 400 }, 
	{ NOTE_REST, 200 }, 
	{ NOTE_D4, 200 }, 
	{ NOTE_B3, 100 }, 
	{ NOTE_A3, 100 }, 
	{ NOTE_G3, 100 }, 
	{ NOTE_F3, 100 }, 
	{ NOTE_G3, 400 }, 
	{ NOTE_REST, 400 }, 
	{ NOTE_C5, 100 }, 
	{ NOTE_G4, 100 }, 
	{ NOTE_EB4, 100 }, 
	{ NOTE_C4, 100 }, 
	{ NOTE_G3, 400 }, 
	{ NOTE_REST, 400 }, 
	{ NOTE_C5, 100 }, 
	{ NOTE_G4, 100 }, 
	{ NOTE_EB4, 100 }, 
	{ NOTE_C4, 100 }, 
	{ NOTE_G3, 400 }, 
	{ NOTE_REST, 400 }, 
	{ NOTE_C5, 100 }, 
	{ NOTE_G4, 100 }, 
	{ NOTE_EB4, 100 }, 
	{ NOTE_C4, 100 }, 
	{ NOTE_G3, 200 }, 
	{ NOTE_G3, 200 }, 
	{ NOTE_G3, 200 }, 
	{ NOTE_G3, 200 }, 
	{ NOTE_G3, 200 }, 
	{ NOTE_G3, 200 }, 
	{ NOTE_AB3, 200 }, 
	{ NOTE_AB3, 200 }, 
	{ NOTE_AB3, 200 }, 
	{ NOTE_AB3, 200 }, 
	{ NOTE_AB4, 200 }, 
	{ NOTE_AB4, 200 }, 
	{ NOTE_D4, 200 }, 
	{ NOTE_D4, 200 }, 
	{ NOTE_D4, 200 }, 
	{ NOTE_D4, 200 }, 
	{ NOTE_D4, 200 }, 
	{ NOTE_D4, 200 }, 
	{ NOTE_EB4, 100 }, 
	{ NOTE_C4, 100 }, 
	{ NOTE_C4, 100 }, 
	{ NOTE_C4, 100 }, 
	{ NOTE_C4, 100 }, 
	{ NOTE_C4, 100 }, 
	{ NOTE_C4, 100 }, 
	{ NOTE_C4, 100 }, 
	{ NOTE_C4, 100 }, 
	{ NOTE_C4, 100 }, 
	{ NOTE_C4, 100 }, 
	{ NOTE_C4, 100 }, 
	{ NOTE_BB4, 100 }, 
	{ NOTE_C4, 100 }, 
	{ NOTE_C4, 100 }, 
	{ NOTE_C4, 100 }, 
	{ NOTE_C4, 100 }, 
	{ NOTE_C4, 100 }, 
	{ NOTE_C4, 100 }, 
	{ NOTE_C4, 100 }, 
	{ NOTE_C4, 100 }, 
	{ NOTE_C4, 100 }, 
	{ NOTE_C4, 100 }, 
	{ NOTE_C4, 100 }, 
	{ NOTE_AB4, 100 }, 
	{ NOTE_C4, 100 }, 
	{ NOTE_C4, 100 }, 
	{ NOTE_C4, 100 }, 
	{ NOTE_C4, 100 }, 
	{ NOTE_C4, 100 }, 
	{ NOTE_C4, 100 }, 
	{ NOTE_C4, 100 }, 
	{ NOTE_C4, 100 }, 
	{ NOTE_C4, 100 }, 
	{ NOTE_C4, 100 }, 
	{ NOTE_C4, 100 }, 
	{ NOTE_G4, 100 }, 
	{ NOTE_C4, 100 }, 
	{ NOTE_C4, 100 }, 
	{ NOTE_C4, 100 }, 
	{ NOTE_C4, 100 }, 
	{ NOTE_C4, 100 }, 
	{ NOTE_C4, 100 }, 
	{ NOTE_C4, 100 }, 
	{ NOTE_C4, 200 }, 
	{ NOTE_REST, 200 }, 
	{ NOTE_REST, 1200 }, 
	{ NOTE_REST, 1200 }, 
	{ NOTE_REST, 1200 }, 
	{ NOTE_REST, 1200 }, 
	{ NOTE_REST, 1200 }, 
	{ NOTE_REST, 1200 }, 
	{ NOTE_REST, 1200 }, 
	{ NOTE_REST, 1200 }, 
	{ NOTE_REST, 1200 }, 
	{ NOTE_REST, 1200 }, 
	{ NOTE_REST, 1200 }, 
	{ NOTE_C4, 100 }, 
	{ NOTE_C4, 100 }, 
	{ NOTE_C4, 100 }, 
	{ NOTE_C4, 100 }, 
	{ NOTE_C4, 100 }, 
	{ NOTE_C4, 100 }, 
	{ NOTE_C4, 100 }, 
	{ NOTE_C4, 100 }, 
	{ NOTE_C4, 100 }, 
	{ NOTE_C4, 100 }, 
	{ NOTE_C4, 100 }, 
	{ NOTE_C4, 100 }, 
	{ NOTE_AB4, 100 }, 
	{ NOTE_C4, 100 }, 
	{ NOTE_C4, 100 }, 
	{ NOTE_C4, 100 }, 
	{ NOTE_AB4, 100 }, 
	{ NOTE_C4, 100 }, 
	{ NOTE_C4, 100 }, 
	{ NOTE_C4, 100 }, 
	{ NOTE_AB4, 100 }, 
	{ NOTE_C4, 100 }, 
	{ NOTE_C4, 100 }, 
	{ NOTE_C4, 100 }, 
	{ NOTE_B3, 100 }, 
	{ NOTE_B3, 100 }, 
	{ NOTE_B3, 100 }, 
	{ NOTE_B3, 100 }, 
	{ NOTE_B3, 100 }, 
	{ NOTE_B3, 100 }, 
	{ NOTE_B3, 100 }, 
	{ NOTE_B3, 100 }, 
	{ NOTE_B3, 100 }, 
	{ NOTE_B3, 100 }, 
	{ NOTE_B3, 100 }, 
	{ NOTE_B3, 100 }, 
	{ NOTE_G4, 100 }, 
	{ NOTE_BB3, 100 }, 
	{ NOTE_BB3, 100 }, 
	{ NOTE_BB3, 100 }, 
	{ NOTE_G4, 100 }, 
	{ NOTE_BB3, 100 }, 
	{ NOTE_BB3, 100 }, 
	{ NOTE_BB3, 100 }, 
	{ NOTE_G4, 100 }, 
	{ NOTE_BB3, 100 }, 
	{ NOTE_BB3, 100 }, 
	{ NOTE_BB3, 100 }, 
	{ NOTE_A3, 100 }, 
	{ NOTE_A3, 100 }, 
	{ NOTE_A3, 100 }, 
	{ NOTE_A3, 100 }, 
	{ NOTE_A3, 100 }, 
	{ NOTE_A3, 100 }, 
	{ NOTE_A3, 100 }, 
	{ NOTE_A3, 100 }, 
	{ NOTE_A3, 100 }, 
	{ NOTE_A3, 100 }, 
	{ NOTE_A3, 100 }, 
	{ NOTE_A3, 100 }, 
	{ NOTE_F4, 100 }, 
	{ NOTE_AB3, 100 }, 
	{ NOTE_AB3, 100 }, 
	{ NOTE_AB3, 100 }, 
	{ NOTE_F4, 100 }, 
	{ NOTE_AB3, 100 }, 
	{ NOTE_AB3, 100 }, 
	{ NOTE_AB3, 100 }, 
	{ NOTE_F4, 100 }, 
	{ NOTE_AB3, 100 }, 
	{ NOTE_AB3, 100 }, 
	{ NOTE_AB3, 100 }, 
	{ NOTE_G3, 100 }, 
	{ NOTE_G4, 100 }, 
	{ NOTE_G4, 100 }, 
	{ NOTE_G4, 100 }, 
	{ NOTE_G4, 100 }, 
	{ NOTE_G4, 100 }, 
	{ NOTE_G4, 100 }, 
	{ NOTE_G4, 100 }, 
	{ NOTE_G4, 100 }, 
	{ NOTE_G4, 100 }, 
	{ NOTE_G4, 100 }, 
	{ NOTE_G4, 100 }, 
	{ NOTE_EB5, 100 }, 
	{ NOTE_G4, 100 }, 
	{ NOTE_G4, 100 }, 
	{ NOTE_G4, 100 }, 
	{ NOTE_EB5, 100 }, 
	{ NOTE_G4, 100 }, 
	{ NOTE_G4, 100 }, 
	{ NOTE_G4, 100 }, 
	{ NOTE_EB5, 100 }, 
	{ NOTE_G4, 100 }, 
	{ NOTE_G4, 100 }, 
	{ NOTE_G4, 100 }, 
	{ NOTE_FS4, 100 }, 
	{ NOTE_FS4, 100 }, 
	{ NOTE_FS4, 100 }, 
	{ NOTE_FS4, 100 }, 
	{ NOTE_FS4, 100 }, 
	{ NOTE_FS4, 100 }, 
	{ NOTE_FS4, 100 }, 
	{ NOTE_FS4, 100 }, 
	{ NOTE_FS4, 100 }, 
	{ NOTE_FS4, 100 }, 
	{ NOTE_FS4, 100 }, 
	{ NOTE_FS4, 100 }, 
	{ NOTE_D5, 100 }, 
	{ NOTE_F4, 100 }, 
	{ NOTE_F4, 100 }, 
	{ NOTE_F4, 100 }, 
	{ NOTE_D5, 100 }, 
	{ NOTE_F4, 100 }, 
	{ NOTE_F4, 100 }, 
	{ NOTE_F4, 100 }, 
	{ NOTE_D5, 100 }, 
	{ NOTE_F4, 100 }, 
	{ NOTE_F4, 100 }, 
	{ NOTE_F4, 100 }, 
	{ NOTE_E4, 100 }, 
	{ NOTE_E4, 100 }, 
	{ NOTE_E4, 100 }, 
	{ NOTE_E4, 100 }, 
	{ NOTE_E4, 100 }, 
	{ NOTE_E4, 100 }, 
	{ NOTE_E4, 100 }, 
	{ NOTE_E4, 100 }, 
	{ NOTE_E4, 100 }, 
	{ NOTE_E4, 100 }, 
	{ NOTE_E4, 100 }, 
	{ NOTE_E4, 100 }, 
	{ NOTE_C5, 100 }, 
	{ NOTE_EB4, 100 }, 
	{ NOTE_EB4, 100 }, 
	{ NOTE_EB4, 100 }, 
	{ NOTE_C5, 100 }, 
	{ NOTE_EB4, 100 }, 
	{ NOTE_EB4, 100 }, 
	{ NOTE_EB4, 100 }, 
	{ NOTE_C5, 100 }, 
	{ NOTE_EB4, 100 }, 
	{ NOTE_EB4, 100 }, 
	{ NOTE_EB4, 100 }, 
	{ NOTE_D4, 400 }, 
	{ NOTE_REST, 800 }, 
	{ NOTE_REST, 1200 }, 
	{ NOTE_REST, 1200 }, 
	{ NOTE_REST, 1200 }, 
	{ NOTE_REST, 1200 }, 
	{ NOTE_G3, 100 }, 
	{ NOTE_G3, 100 }, 
	{ NOTE_G3, 100 }, 
	{ NOTE_G3, 100 }, 
	{ NOTE_G3, 100 }, 
	{ NOTE_G3, 100 }, 
	{ NOTE_G3, 100 }, 
	{ NOTE_G3, 100 }, 
	{ NOTE_G3, 100 }, 
	{ NOTE_G3, 100 }, 
	{ NOTE_G3, 100 }, 
	{ NOTE_G3, 100 }, 
	{ NOTE_G3, 100 }, 
	{ NOTE_G3, 100 }, 
	{ NOTE_G3, 100 }, 
	{ NOTE_G3, 100 }, 
	{ NOTE_G3, 100 }, 
	{ NOTE_G3, 100 }, 
	{ NOTE_G3, 100 }, 
	{ NOTE_G3, 100 }, 
	{ NOTE_G3, 100 }, 
	{ NOTE_G3, 100 }, 
	{ NOTE_G3, 100 }, 
	{ NOTE_G3, 100 }, 
	{ NOTE_C4, 100 }, 
	{ NOTE_C4, 100 }, 
	{ NOTE_C4, 100 }, 
	{ NOTE_C4, 100 }, 
	{ NOTE_C4, 100 }, 
	{ NOTE_C4, 100 }, 
	{ NOTE_C4, 100 }, 
	{ NOTE_C4, 100 }, 
	{ NOTE_C4, 100 }, 
	{ NOTE_C4, 100 }, 
	{ NOTE_C4, 100 }, 
	{ NOTE_C4, 100 }, 
	{ NOTE_C4, 100 }, 
	{ NOTE_C4, 100 }, 
	{ NOTE_C4, 100 }, 
	{ NOTE_C4, 100 }, 
	{ NOTE_C4, 100 }, 
	{ NOTE_C4, 100 }, 
	{ NOTE_C4, 100 }, 
	{ NOTE_C4, 100 }, 
	{ NOTE_C4, 100 }, 
	{ NOTE_C4, 100 }, 
	{ NOTE_C4, 100 }, 
	{ NOTE_C4, 100 }, 
	{ NOTE_EB4, 100 }, 
	{ NOTE_EB4, 100 }, 
	{ NOTE_EB4, 100 }, 
	{ NOTE_EB4, 100 }, 
	{ NOTE_EB4, 100 }, 
	{ NOTE_EB4, 100 }, 
	{ NOTE_EB4, 100 }, 
	{ NOTE_EB4, 100 }, 
	{ NOTE_EB4, 100 }, 
	{ NOTE_EB4, 100 }, 
	{ NOTE_EB4, 100 }, 
	{ NOTE_EB4, 100 }, 
	{ NOTE_EB4, 100 }, 
	{ NOTE_EB4, 100 }, 
	{ NOTE_EB4, 100 }, 
	{ NOTE_EB4, 100 }, 
	{ NOTE_EB4, 100 }, 
	{ NOTE_EB4, 100 }, 
	{ NOTE_EB4, 100 }, 
	{ NOTE_EB4, 100 }, 
	{ NOTE_EB4, 100 }, 
	{ NOTE_EB4, 100 }, 
	{ NOTE_EB4, 100 }, 
	{ NOTE_EB4, 100 }, 
	{ NOTE_G4, 100 }, 
	{ NOTE_G4, 100 }, 
	{ NOTE_G4, 100 }, 
	{ NOTE_G4, 100 }, 
	{ NOTE_G4, 100 }, 
	{ NOTE_G4, 100 }, 
	{ NOTE_G4, 100 }, 
	{ NOTE_G4, 100 }, 
	{ NOTE_G4, 100 }, 
	{ NOTE_G4, 100 }, 
	{ NOTE_G4, 100 }, 
	{ NOTE_G4, 100 }, 
	{ NOTE_G4, 400 }, 
	{ NOTE_G3, 400 }, 
	{ NOTE_G3, 400 }, 
	{ NOTE_G3, 400 }, 
	{ NOTE_G3, 400 }, 
	{ NOTE_G3, 400 }, 
	{ NOTE_G3, 400 }, 
	{ NOTE_G3, 400 }, 
	{ NOTE_G3, 400 }, 
	{ NOTE_G3, 400 }, 
	{ NOTE_G3, 400 }, 
	{ NOTE_G3, 400 }, 
	{ NOTE_G3, 400 }, 
	{ NOTE_REST, 800 }, 
	{ NOTE_REST, 1200 }, 
	{ NOTE_BB3, 100 }, 
	{ NOTE_G3, 100 }, 
	{ NOTE_BB3, 100 }, 
	{ NOTE_G3, 100 }, 
	{ NOTE_BB3, 100 }, 
	{ NOTE_G3, 100 }, 
	{ NOTE_BB3, 100 }, 
	{ NOTE_G3, 100 }, 
	{ NOTE_BB3, 100 }, 
	{ NOTE_G3, 100 }, 
	{ NOTE_BB3, 100 }, 
	{ NOTE_G3, 100 }, 
	{ NOTE_D4, 400 }, 
	{ NOTE_REST, 800 }, 
	{ NOTE_REST, 1200 }, 
	{ NOTE_REST, 1200 }, 
	{ NOTE_REST, 1200 }, 
	{ NOTE_D4, 400 }, 
	{ NOTE_REST, 100 }, 
	{ NOTE_D5, 100 }, 
	{ NOTE_C5, 100 }, 
	{ NOTE_BB4, 100 }, 
	{ NOTE_A4, 100 }, 
	{ NOTE_G4, 100 }, 
	{ NOTE_FS4, 100 }, 
	{ NOTE_E4, 100 }, 
	{ NOTE_D4, 100 }, 
	{ NOTE_D4, 100 }, 
	{ NOTE_D4, 100 }, 
	{ NOTE_D4, 100 }, 
	{ NOTE_D4, 100 }, 
	{ NOTE_D4, 100 }, 
	{ NOTE_D4, 100 }, 
	{ NOTE_D4, 100 }, 
	{ NOTE_D4, 100 }, 
	{ NOTE_D4, 100 }, 
	{ NOTE_D4, 100 }, 
	{ NOTE_D4, 100 }, 
	{ NOTE_EB4, 100 }, 
	{ NOTE_EB4, 100 }, 
	{ NOTE_EB4, 100 }, 
	{ NOTE_EB4, 100 }, 
	{ NOTE_EB4, 100 }, 
	{ NOTE_EB4, 100 }, 
	{ NOTE_EB4, 100 }, 
	{ NOTE_EB4, 100 }, 
	{ NOTE_EB4, 100 }, 
	{ NOTE_EB4, 100 }, 
	{ NOTE_EB4, 100 }, 
	{ NOTE_EB4, 100 }, 
	{ NOTE_D4, 100 }, 
	{ NOTE_D4, 100 }, 
	{ NOTE_D4, 100 }, 
	{ NOTE_D4, 100 }, 
	{ NOTE_D4, 100 }, 
	{ NOTE_D4, 100 }, 
	{ NOTE_D4, 100 }, 
	{ NOTE_D4, 100 }, 
	{ NOTE_D4, 100 }, 
	{ NOTE_D4, 100 }, 
	{ NOTE_D4, 100 }, 
	{ NOTE_D4, 100 }, 
	{ NOTE_BB3, 100 }, 
	{ NOTE_BB3, 100 }, 
	{ NOTE_BB3, 100 }, 
	{ NOTE_BB3, 100 }, 
	{ NOTE_D4, 100 }, 
	{ NOTE_D4, 100 }, 
	{ NOTE_D4, 100 }, 
	{ NOTE_D4, 100 }, 
	{ NOTE_D4, 100 }, 
	{ NOTE_D4, 100 }, 
	{ NOTE_D4, 100 }, 
	{ NOTE_D4, 100 }, 
	{ NOTE_EB4, 100 }, 
	{ NOTE_EB4, 100 }, 
	{ NOTE_EB4, 100 }, 
	{ NOTE_EB4, 100 }, 
	{ NOTE_EB4, 100 }, 
	{ NOTE_EB4, 100 }, 
	{ NOTE_EB4, 100 }, 
	{ NOTE_EB4, 100 }, 
	{ NOTE_EB4, 100 }, 
	{ NOTE_EB4, 100 }, 
	{ NOTE_EB4, 100 }, 
	{ NOTE_EB4, 100 }, 
	{ NOTE_D4, 100 }, 
	{ NOTE_D4, 100 }, 
	{ NOTE_D4, 100 }, 
	{ NOTE_D4, 100 }, 
	{ NOTE_D4, 100 }, 
	{ NOTE_D4, 100 }, 
	{ NOTE_D4, 100 }, 
	{ NOTE_D4, 100 }, 
	{ NOTE_D4, 100 }, 
	{ NOTE_D4, 100 }, 
	{ NOTE_D4, 100 }, 
	{ NOTE_D4, 100 }, 
	{ NOTE_D4, 100 }, 
	{ NOTE_BB3, 100 }, 
	{ NOTE_BB3, 100 }, 
	{ NOTE_BB3, 100 }, 
	{ NOTE_D4, 100 }, 
	{ NOTE_D4, 100 }, 
	{ NOTE_D4, 100 }, 
	{ NOTE_D4, 100 }, 
	{ NOTE_G4, 100 }, 
	{ NOTE_G4, 100 }, 
	{ NOTE_G4, 100 }, 
	{ NOTE_G4, 100 }, 
	{ NOTE_BB4, 100 }, 
	{ NOTE_BB4, 100 }, 
	{ NOTE_BB4, 100 }, 
	{ NOTE_BB4, 100 }, 
	{ NOTE_D5, 100 }, 
	{ NOTE_D5, 100 }, 
	{ NOTE_D5, 100 }, 
	{ NOTE_D5, 100 }, 
	{ NOTE_D4, 100 }, 
	{ NOTE_D4, 100 }, 
	{ NOTE_D4, 100 }, 
	{ NOTE_D4, 100 }, 
	{ NOTE_BB3, 100 }, 
	{ NOTE_BB3, 100 }, 
	{ NOTE_BB3, 100 }, 
	{ NOTE_BB3, 100 }, 
	{ NOTE_G3, 100 }, 
	{ NOTE_G3, 100 }, 
	{ NOTE_G3, 100 }, 
	{ NOTE_G3, 100 }, 
	{ NOTE_D4, 100 }, 
	{ NOTE_D4, 100 }, 
	{ NOTE_D4, 100 }, 
	{ NOTE_D4, 100 }, 
	{ NOTE_G3, 1200 }, 
};
const uint16_t NUM_OF_NOTES3 = sizeof(melody3)/sizeof(melody3[0]);

const Note melody4[] PROGMEM = {
	{ NOTE_G3, 100 }, 
	{ NOTE_G2, 100 }, 
	{ NOTE_G2, 100 }, 
	{ NOTE_G2, 100 }, 
	{ NOTE_G2, 100 }, 
	{ NOTE_G2, 100 }, 
	{ NOTE_G2, 100 }, 
	{ NOTE_G2, 100 }, 
	{ NOTE_G2, 100 }, 
	{ NOTE_G2, 100 }, 
	{ NOTE_G2, 100 }, 
	{ NOTE_G2, 100 }, 
	{ NOTE_F3, 100 }, 
	{ NOTE_G2, 100 }, 
	{ NOTE_G2, 100 }, 
	{ NOTE_G2, 100 }, 
	{ NOTE_G2, 100 }, 
	{ NOTE_G2, 100 }, 
	{ NOTE_G2, 100 }, 
	{ NOTE_G2, 100 }, 
	{ NOTE_G2, 100 }, 
	{ NOTE_G2, 100 }, 
	{ NOTE_G2, 100 }, 
	{ NOTE_G2, 100 }, 
	{ NOTE_EB3, 100 }, 
	{ NOTE_G2, 100 }, 
	{ NOTE_G2, 100 }, 
	{ NOTE_G2, 100 }, 
	{ NOTE_G2, 100 }, 
	{ NOTE_G2, 100 }, 
	{ NOTE_G2, 100 }, 
	{ NOTE_G2, 100 }, 
	{ NOTE_G2, 100 }, 
	{ NOTE_G2, 100 }, 
	{ NOTE_G2, 100 }, 
	{ NOTE_G2, 100 }, 
	{ NOTE_D3, 100 }, 
	{ NOTE_G2, 100 }, 
	{ NOTE_G2, 100 }, 
	{ NOTE_G2, 100 }, 
	{ NOTE_G2, 100 }, 
	{ NOTE_G2, 100 }, 
	{ NOTE_G2, 100 }, 
	{ NOTE_G2, 100 }, 
	{ NOTE_G2, 100 }, 
	{ NOTE_G2, 100 }, 
	{ NOTE_REST, 200 }, 
	{ NOTE_REST, 1200 }, 
	{ NOTE_D4, 100 }, 
	{ NOTE_D3, 100 }, 
	{ NOTE_D3, 100 }, 
	{ NOTE_D3, 100 }, 
	{ NOTE_D3, 100 }, 
	{ NOTE_D3, 100 }, 
	{ NOTE_D3, 100 }, 
	{ NOTE_D3, 100 }, 
	{ NOTE_D3, 100 }, 
	{ NOTE_D3, 100 }, 
	{ NOTE_D3, 100 }, 
	{ NOTE_D3, 100 }, 
	{ NOTE_C4, 100 }, 
	{ NOTE_D3, 100 }, 
	{ NOTE_D3, 100 }, 
	{ NOTE_D3, 100 }, 
	{ NOTE_D3, 100 }, 
	{ NOTE_D3, 100 }, 
	{ NOTE_D3, 100 }, 
	{ NOTE_D3, 100 }, 
	{ NOTE_D3, 100 }, 
	{ NOTE_D3, 100 }, 
	{ NOTE_D3, 100 }, 
	{ NOTE_D3, 100 }, 
	{ NOTE_BB3, 100 }, 
	{ NOTE_D3, 100 }, 
	{ NOTE_D3, 100 }, 
	{ NOTE_D3, 100 }, 
	{ NOTE_D3, 100 }, 
	{ NOTE_D3, 100 }, 
	{ NOTE_D3, 100 }, 
	{ NOTE_D3, 100 }, 
	{ NOTE_D3, 100 }, 
	{ NOTE_D3, 100 }, 
	{ NOTE_D3, 100 }, 
	{ NOTE_D3, 100 }, 
	{ NOTE_A3, 100 }, 
	{ NOTE_D3, 100 }, 
	{ NOTE_D3, 100 }, 
	{ NOTE_D3, 100 }, 
	{ NOTE_D3, 100 }, 
	{ NOTE_D3, 100 }, 
	{ NOTE_D3, 100 }, 
	{ NOTE_D3, 100 }, 
	{ NOTE_D3, 100 }, 
	{ NOTE_D3, 100 }, 
	{ NOTE_REST, 200 }, 
	{ NOTE_REST, 1200 }, 
	{ NOTE_G2, 200 }, 
	{ NOTE_G2, 200 }, 
	{ NOTE_G2, 200 }, 
	{ NOTE_G2, 200 }, 
	{ NOTE_G2, 200 }, 
	{ NOTE_G2, 200 }, 
	{ NOTE_G2, 200 }, 
	{ NOTE_G2, 200 }, 
	{ NOTE_G2, 200 }, 
	{ NOTE_G2, 200 }, 
	{ NOTE_G2, 200 }, 
	{ NOTE_G2, 200 }, 
	{ NOTE_C3, 200 }, 
	{ NOTE_C3, 200 }, 
	{ NOTE_C3, 200 }, 
	{ NOTE_C3, 200 }, 
	{ NOTE_C3, 200 }, 
	{ NOTE_C3, 200 }, 
	{ NOTE_C3, 200 }, 
	{ NOTE_C3, 200 }, 
	{ NOTE_C3, 200 }, 
	{ NOTE_C3, 200 }, 
	{ NOTE_C3, 200 }, 
	{ NOTE_C3, 200 }, 
	{ NOTE_EB3, 200 }, 
	{ NOTE_EB3, 200 }, 
	{ NOTE_EB3, 200 }, 
	{ NOTE_EB3, 200 }, 
	{ NOTE_EB3, 200 }, 
	{ NOTE_EB3, 200 }, 
	{ NOTE_EB3, 200 }, 
	{ NOTE_EB3, 200 }, 
	{ NOTE_EB3, 200 }, 
	{ NOTE_EB3, 200 }, 
	{ NOTE_EB3, 200 }, 
	{ NOTE_EB3, 200 }, 
	{ NOTE_G3, 200 }, 
	{ NOTE_G3, 200 }, 
	{ NOTE_G3, 200 }, 
	{ NOTE_G3, 200 }, 
	{ NOTE_G3, 200 }, 
	{ NOTE_G3, 200 }, 
	{ NOTE_G3, 200 }, 
	{ NOTE_G3, 200 }, 
	{ NOTE_G3, 200 }, 
	{ NOTE_G3, 200 }, 
	{ NOTE_G3, 200 }, 
	{ NOTE_G3, 200 }, 
	{ NOTE_G3, 200 }, 
	{ NOTE_G3, 200 }, 
	{ NOTE_G3, 200 }, 
	{ NOTE_G3, 200 }, 
	{ NOTE_G3, 200 }, 
	{ NOTE_G3, 200 }, 
	{ NOTE_G3, 100 }, 
	{ NOTE_G3, 100 }, 
	{ NOTE_G3, 100 }, 
	{ NOTE_G3, 100 }, 
	{ NOTE_D4, 100 }, 
	{ NOTE_G3, 100 }, 
	{ NOTE_G3, 100 }, 
	{ NOTE_G3, 100 }, 
	{ NOTE_D4, 100 }, 
	{ NOTE_G3, 100 }, 
	{ NOTE_G3, 100 }, 
	{ NOTE_G3, 100 }, 
	{ NOTE_D3, 100 }, 
	{ NOTE_D4, 100 }, 
	{ NOTE_D3, 100 }, 
	{ NOTE_D4, 100 }, 
	{ NOTE_D3, 100 }, 
	{ NOTE_D4, 100 }, 
	{ NOTE_D3, 100 }, 
	{ NOTE_D4, 100 }, 
	{ NOTE_D3, 100 }, 
	{ NOTE_D4, 100 }, 
	{ NOTE_D3, 100 }, 
	{ NOTE_D4, 100 }, 
	{ NOTE_D3, 100 }, 
	{ NOTE_C4, 100 }, 
	{ NOTE_D3, 100 }, 
	{ NOTE_C4, 100 }, 
	{ NOTE_D3, 100 }, 
	{ NOTE_C4, 100 }, 
	{ NOTE_D3, 100 }, 
	{ NOTE_C4, 100 }, 
	{ NOTE_D3, 100 }, 
	{ NOTE_C4, 100 }, 
	{ NOTE_D3, 100 }, 
	{ NOTE_C4, 100 }, 
	{ NOTE_D3, 100 }, 
	{ NOTE_BB3, 100 }, 
	{ NOTE_D3, 100 }, 
	{ NOTE_BB3, 100 }, 
	{ NOTE_D3, 100 }, 
	{ NOTE_BB3, 100 }, 
	{ NOTE_D3, 100 }, 
	{ NOTE_BB3, 100 }, 
	{ NOTE_D3, 100 }, 
	{ NOTE_BB3, 100 }, 
	{ NOTE_D3, 100 }, 
	{ NOTE_BB3, 100 }, 
	{ NOTE_D3, 100 }, 
	{ NOTE_A3, 100 }, 
	{ NOTE_D3, 100 }, 
	{ NOTE_A3, 100 }, 
	{ NOTE_D3, 100 }, 
	{ NOTE_A3, 100 }, 
	{ NOTE_D3, 100 }, 
	{ NOTE_A3, 100 }, 
	{ NOTE_D3, 100 }, 
	{ NOTE_A3, 100 }, 
	{ NOTE_D3, 100 }, 
	{ NOTE_A3, 100 }, 
	{ NOTE_D3, 100 }, 
	{ NOTE_D4, 100 }, 
	{ NOTE_D3, 100 }, 
	{ NOTE_D4, 100 }, 
	{ NOTE_D3, 100 }, 
	{ NOTE_D4, 100 }, 
	{ NOTE_D3, 100 }, 
	{ NOTE_D4, 100 }, 
	{ NOTE_D3, 100 }, 
	{ NOTE_D4, 100 }, 
	{ NOTE_D3, 100 }, 
	{ NOTE_D4, 100 }, 
	{ NOTE_D3, 100 }, 
	{ NOTE_C4, 100 }, 
	{ NOTE_D3, 100 }, 
	{ NOTE_C4, 100 }, 
	{ NOTE_D3, 100 }, 
	{ NOTE_C4, 100 }, 
	{ NOTE_D3, 100 }, 
	{ NOTE_C4, 100 }, 
	{ NOTE_D3, 100 }, 
	{ NOTE_C4, 100 }, 
	{ NOTE_D3, 100 }, 
	{ NOTE_C4, 100 }, 
	{ NOTE_D3, 100 }, 
	{ NOTE_BB3, 100 }, 
	{ NOTE_D3, 100 }, 
	{ NOTE_BB3, 100 }, 
	{ NOTE_D3, 100 }, 
	{ NOTE_BB3, 100 }, 
	{ NOTE_D3, 100 }, 
	{ NOTE_BB3, 100 }, 
	{ NOTE_D3, 100 }, 
	{ NOTE_BB3, 100 }, 
	{ NOTE_D3, 100 }, 
	{ NOTE_BB3, 100 }, 
	{ NOTE_D3, 100 }, 
	{ NOTE_A3, 100 }, 
	{ NOTE_D3, 100 }, 
	{ NOTE_A3, 100 }, 
	{ NOTE_D3, 100 }, 
	{ NOTE_A3, 100 }, 
	{ NOTE_D3, 100 }, 
	{ NOTE_A3, 100 }, 
	{ NOTE_D3, 100 }, 
	{ NOTE_A3, 100 }, 
	{ NOTE_D3, 100 }, 
	{ NOTE_A3, 100 }, 
	{ NOTE_G2, 200 }, 
	{ NOTE_G2, 200 }, 
	{ NOTE_G2, 200 }, 
	{ NOTE_G2, 200 }, 
	{ NOTE_G2, 200 }, 
	{ NOTE_G2, 200 }, 
	{ NOTE_G2, 200 }, 
	{ NOTE_G2, 200 }, 
	{ NOTE_G2, 200 }, 
	{ NOTE_G2, 200 }, 
	{ NOTE_G2, 200 }, 
	{ NOTE_G2, 200 }, 
	{ NOTE_G2, 200 }, 
	{ NOTE_G2, 200 }, 
	{ NOTE_G2, 200 }, 
	{ NOTE_G2, 200 }, 
	{ NOTE_G2, 200 }, 
	{ NOTE_G2, 200 }, 
	{ NOTE_G2, 100 }, 
	{ NOTE_G3, 100 }, 
	{ NOTE_G2, 100 }, 
	{ NOTE_G3, 100 }, 
	{ NOTE_G2, 100 }, 
	{ NOTE_G3, 100 }, 
	{ NOTE_G2, 100 }, 
	{ NOTE_G3, 100 }, 
	{ NOTE_G2, 100 }, 
	{ NOTE_G3, 100 }, 
	{ NOTE_G2, 100 }, 
	{ NOTE_G3, 100 }, 
	{ NOTE_C3, 100 }, 
	{ NOTE_C4, 100 }, 
	{ NOTE_C3, 100 }, 
	{ NOTE_C4, 100 }, 
	{ NOTE_C3, 100 }, 
	{ NOTE_C4, 100 }, 
	{ NOTE_C3, 100 }, 
	{ NOTE_C4, 100 }, 
	{ NOTE_C3, 100 }, 
	{ NOTE_C4, 100 }, 
	{ NOTE_C3, 100 }, 
	{ NOTE_C4, 100 }, 
	{ NOTE_A2, 100 }, 
	{ NOTE_A3, 100 }, 
	{ NOTE_A2, 100 }, 
	{ NOTE_A3, 100 }, 
	{ NOTE_A2, 100 }, 
	{ NOTE_A3, 100 }, 
	{ NOTE_A2, 100 }, 
	{ NOTE_A3, 100 }, 
	{ NOTE_A2, 100 }, 
	{ NOTE_A3, 100 }, 
	{ NOTE_A2, 100 }, 
	{ NOTE_A3, 100 }, 
	{ NOTE_D3, 100 }, 
	{ NOTE_D4, 100 }, 
	{ NOTE_D3, 100 }, 
	{ NOTE_D4, 100 }, 
	{ NOTE_D3, 100 }, 
	{ NOTE_D4, 100 }, 
	{ NOTE_D3, 100 }, 
	{ NOTE_D4, 100 }, 
	{ NOTE_D3, 100 }, 
	{ NOTE_D4, 100 }, 
	{ NOTE_D3, 100 }, 
	{ NOTE_D4, 100 }, 
	{ NOTE_A2, 100 }, 
	{ NOTE_A3, 100 }, 
	{ NOTE_A2, 100 }, 
	{ NOTE_A3, 100 }, 
	{ NOTE_A2, 100 }, 
	{ NOTE_A3, 100 }, 
	{ NOTE_A2, 100 }, 
	{ NOTE_A3, 100 }, 
	{ NOTE_A2, 100 }, 
	{ NOTE_A3, 100 }, 
	{ NOTE_A2, 100 }, 
	{ NOTE_A3, 100 }, 
	{ NOTE_A2, 100 }, 
	{ NOTE_A3, 100 }, 
	{ NOTE_A2, 100 }, 
	{ NOTE_A3, 100 }, 
	{ NOTE_A2, 100 }, 
	{ NOTE_A3, 100 }, 
	{ NOTE_A2, 100 }, 
	{ NOTE_A3, 100 }, 
	{ NOTE_A2, 100 }, 
	{ NOTE_A3, 100 }, 
	{ NOTE_A2, 100 }, 
	{ NOTE_A3, 100 }, 
	{ NOTE_D3, 400 }, 
	{ NOTE_REST, 800 }, 
	{ NOTE_REST, 1200 }, 
	{ NOTE_D3, 400 }, 
	{ NOTE_REST, 800 }, 
	{ NOTE_REST, 1200 }, 
	{ NOTE_REST, 1200 }, 
	{ NOTE_REST, 1200 }, 
	{ NOTE_REST, 1200 }, 
	{ NOTE_REST, 1200 }, 
	{ NOTE_REST, 1200 }, 
	{ NOTE_REST, 1200 }, 
	{ NOTE_REST, 1200 }, 
	{ NOTE_REST, 1200 }, 
	{ NOTE_REST, 1200 }, 
	{ NOTE_REST, 1200 }, 
	{ NOTE_REST, 1200 }, 
	{ NOTE_D3, 200 }, 
	{ NOTE_A2, 200 }, 
	{ NOTE_D3, 200 }, 
	{ NOTE_A2, 200 }, 
	{ NOTE_D3, 200 }, 
	{ NOTE_A2, 200 }, 
	{ NOTE_D3, 200 }, 
	{ NOTE_A2, 200 }, 
	{ NOTE_D3, 200 }, 
	{ NOTE_A2, 200 }, 
	{ NOTE_D3, 200 }, 
	{ NOTE_A2, 200 }, 
	{ NOTE_D3, 100 }, 
	{ NOTE_D4, 100 }, 
	{ NOTE_C4, 100 }, 
	{ NOTE_BB3, 100 }, 
	{ NOTE_A3, 100 }, 
	{ NOTE_G3, 100 }, 
	{ NOTE_F3, 100 }, 
	{ NOTE_E3, 100 }, 
	{ NOTE_D3, 200 }, 
	{ NOTE_REST, 200 }, 
	{ NOTE_G2, 100 }, 
	{ NOTE_G3, 100 }, 
	{ NOTE_F3, 100 }, 
	{ NOTE_EB3, 100 }, 
	{ NOTE_D3, 100 }, 
	{ NOTE_C3, 100 }, 
	{ NOTE_BB2, 100 }, 
	{ NOTE_A2, 100 }, 
	{ NOTE_G2, 200 }, 
	{ NOTE_REST, 200 }, 
	{ NOTE_C3, 100 }, 
	{ NOTE_C4, 100 }, 
	{ NOTE_BB3, 100 }, 
	{ NOTE_A3, 100 }, 
	{ NOTE_G3, 100 }, 
	{ NOTE_F3, 100 }, 
	{ NOTE_E3, 100 }, 
	{ NOTE_D3, 100 }, 
	{ NOTE_C3, 200 }, 
	{ NOTE_REST, 200 }, 
	{ NOTE_F2, 100 }, 
	{ NOTE_F3, 100 }, 
	{ NOTE_E3, 100 }, 
	{ NOTE_D3, 100 }, 
	{ NOTE_C3, 100 }, 
	{ NOTE_BB2, 100 }, 
	{ NOTE_A2, 100 }, 
	{ NOTE_G2, 100 }, 
	{ NOTE_F2, 200 }, 
	{ NOTE_REST, 200 }, 
	{ NOTE_BB2, 100 }, 
	{ NOTE_BB3, 100 }, 
	{ NOTE_A3, 100 }, 
	{ NOTE_G3, 100 }, 
	{ NOTE_F3, 100 }, 
	{ NOTE_EB3, 100 }, 
	{ NOTE_D3, 100 }, 
	{ NOTE_C3, 100 }, 
	{ NOTE_BB2, 200 }, 
	{ NOTE_REST, 200 }, 
	{ NOTE_EB2, 100 }, 
	{ NOTE_EB3, 100 }, 
	{ NOTE_D3, 100 }, 
	{ NOTE_C3, 100 }, 
	{ NOTE_BB2, 100 }, 
	{ NOTE_A2, 100 }, 
	{ NOTE_G2, 100 }, 
	{ NOTE_F2, 100 }, 
	{ NOTE_EB2, 200 }, 
	{ NOTE_REST, 200 }, 
	{ NOTE_AB2, 100 }, 
	{ NOTE_AB3, 100 }, 
	{ NOTE_G3, 100 }, 
	{ NOTE_F3, 100 }, 
	{ NOTE_EB3, 100 }, 
	{ NOTE_D3, 100 }, 
	{ NOTE_C3, 100 }, 
	{ NOTE_BB2, 100 }, 
	{ NOTE_A2, 200 }, 
	{ NOTE_REST, 200 }, 
	{ NOTE_B2, 100 }, 
	{ NOTE_B3, 100 }, 
	{ NOTE_A3, 100 }, 
	{ NOTE_G3, 100 }, 
	{ NOTE_F3, 100 }, 
	{ NOTE_EB3, 100 }, 
	{ NOTE_D3, 100 }, 
	{ NOTE_C3, 100 }, 
	{ NOTE_B2, 200 }, 
	{ NOTE_REST, 200 }, 
	{ NOTE_G2, 100 }, 
	{ NOTE_G3, 100 }, 
	{ NOTE_F3, 100 }, 
	{ NOTE_EB3, 100 }, 
	{ NOTE_D3, 100 }, 
	{ NOTE_C3, 100 }, 
	{ NOTE_B2, 100 }, 
	{ NOTE_A2, 100 }, 
	{ NOTE_G2, 200 }, 
	{ NOTE_REST, 200 }, 
	{ NOTE_C3, 100 }, 
	{ NOTE_C4, 100 }, 
	{ NOTE_BB3, 100 }, 
	{ NOTE_AB3, 100 }, 
	{ NOTE_G3, 100 }, 
	{ NOTE_F3, 100 }, 
	{ NOTE_EB3, 100 }, 
	{ NOTE_D3, 100 }, 
	{ NOTE_C3, 200 }, 
	{ NOTE_REST, 200 }, 
	{ NOTE_REST, 100 }, 
	{ NOTE_C4, 100 }, 
	{ NOTE_BB3, 100 }, 
	{ NOTE_AB3, 100 }, 
	{ NOTE_G3, 100 }, 
	{ NOTE_F3, 100 }, 
	{ NOTE_EB3, 100 }, 
	{ NOTE_D3, 100 }, 
	{ NOTE_C3, 200 }, 
	{ NOTE_REST, 200 }, 
	{ NOTE_REST, 100 }, 
	{ NOTE_C4, 100 }, 
	{ NOTE_BB3, 100 }, 
	{ NOTE_AB3, 100 }, 
	{ NOTE_G3, 100 }, 
	{ NOTE_F3, 100 }, 
	{ NOTE_EB3, 100 }, 
	{ NOTE_D3, 100 }, 
	{ NOTE_C3, 200 }, 
	{ NOTE_REST, 200 }, 
	{ NOTE_EB3, 200 }, 
	{ NOTE_EB3, 200 }, 
	{ NOTE_EB3, 200 }, 
	{ NOTE_EB3, 200 }, 
	{ NOTE_EB3, 200 }, 
	{ NOTE_EB3, 200 }, 
	{ NOTE_F3, 200 }, 
	{ NOTE_F3, 200 }, 
	{ NOTE_F3, 200 }, 
	{ NOTE_F3, 200 }, 
	{ NOTE_F3, 200 }, 
	{ NOTE_F3, 200 }, 
	{ NOTE_G3, 200 }, 
	{ NOTE_G3, 200 }, 
	{ NOTE_G3, 200 }, 
	{ NOTE_G3, 200 }, 
	{ NOTE_G2, 200 }, 
	{ NOTE_G2, 200 }, 
	{ NOTE_C3, 100 }, 
	{ NOTE_C3, 100 }, 
	{ NOTE_C3, 100 }, 
	{ NOTE_C3, 100 }, 
	{ NOTE_C3, 100 }, 
	{ NOTE_C3, 100 }, 
	{ NOTE_C3, 100 }, 
	{ NOTE_C3, 100 }, 
	{ NOTE_C3, 100 }, 
	{ NOTE_C3, 100 }, 
	{ NOTE_C3, 100 }, 
	{ NOTE_C3, 100 }, 
	{ NOTE_BB3, 100 }, 
	{ NOTE_C3, 100 }, 
	{ NOTE_C3, 100 }, 
	{ NOTE_C3, 100 }, 
	{ NOTE_C3, 100 }, 
	{ NOTE_C3, 100 }, 
	{ NOTE_C3, 100 }, 
	{ NOTE_C3, 100 }, 
	{ NOTE_C3, 100 }, 
	{ NOTE_C3, 100 }, 
	{ NOTE_C3, 100 }, 
	{ NOTE_C3, 100 }, 
	{ NOTE_AB3, 100 }, 
	{ NOTE_C3, 100 }, 
	{ NOTE_C3, 100 }, 
	{ NOTE_C3, 100 }, 
	{ NOTE_C3, 100 }, 
	{ NOTE_C3, 100 }, 
	{ NOTE_C3, 100 }, 
	{ NOTE_C3, 100 }, 
	{ NOTE_C3, 100 }, 
	{ NOTE_C3, 100 }, 
	{ NOTE_C3, 100 }, 
	{ NOTE_C3, 100 }, 
	{ NOTE_G3, 100 }, 
	{ NOTE_C3, 100 }, 
	{ NOTE_C3, 100 }, 
	{ NOTE_C3, 100 }, 
	{ NOTE_C3, 100 }, 
	{ NOTE_C3, 100 }, 
	{ NOTE_C3, 100 }, 
	{ NOTE_C3, 100 }, 
	{ NOTE_C3, 200 }, 
	{ NOTE_REST, 200 }, 
	{ NOTE_C3, 200 }, 
	{ NOTE_C4, 100 }, 
	{ NOTE_B3, 100 }, 
	{ NOTE_C4, 200 }, 
	{ NOTE_C3, 200 }, 
	{ NOTE_C3, 200 }, 
	{ NOTE_C4, 200 }, 
	{ NOTE_G2, 400 }, 
	{ NOTE_REST, 800 }, 
	{ NOTE_C3, 200 }, 
	{ NOTE_C4, 100 }, 
	{ NOTE_B3, 100 }, 
	{ NOTE_C4, 200 }, 
	{ NOTE_C3, 200 }, 
	{ NOTE_C3, 200 }, 
	{ NOTE_C4, 200 }, 
	{ NOTE_BB2, 400 }, 
	{ NOTE_REST, 800 }, 
	{ NOTE_EB2, 200 }, 
	{ NOTE_EB3, 100 }, 
	{ NOTE_D3, 100 }, 
	{ NOTE_EB3, 200 }, 
	{ NOTE_EB2, 200 }, 
	{ NOTE_EB2, 200 }, 
	{ NOTE_EB3, 200 }, 
	{ NOTE_G2, 400 }, 
	{ NOTE_REST, 800 }, 
	{ NOTE_G2, 200 }, 
	{ NOTE_G3, 100 }, 
	{ NOTE_F3, 100 }, 
	{ NOTE_G3, 200 }, 
	{ NOTE_G2, 200 }, 
	{ NOTE_G2, 200 }, 
	{ NOTE_G3, 200 }, 
	{ NOTE_AB2, 400 }, 
	{ NOTE_REST, 800 }, 
	{ NOTE_A2, 200 }, 
	{ NOTE_A3, 100 }, 
	{ NOTE_G3, 100 }, 
	{ NOTE_A3, 200 }, 
	{ NOTE_A2, 200 }, 
	{ NOTE_A2, 200 }, 
	{ NOTE_A3, 200 }, 
	{ NOTE_BB2, 400 }, 
	{ NOTE_REST, 800 }, 
	{ NOTE_B2, 200 }, 
	{ NOTE_B3, 100 }, 
	{ NOTE_A3, 100 }, 
	{ NOTE_B3, 200 }, 
	{ NOTE_B2, 200 }, 
	{ NOTE_B2, 200 }, 
	{ NOTE_B3, 200 }, 
	{ NOTE_C3, 100 }, 
	{ NOTE_C3, 100 }, 
	{ NOTE_C3, 100 }, 
	{ NOTE_C3, 100 }, 
	{ NOTE_C3, 100 }, 
	{ NOTE_C3, 100 }, 
	{ NOTE_C3, 100 }, 
	{ NOTE_C3, 100 }, 
	{ NOTE_C3, 100 }, 
	{ NOTE_C3, 100 }, 
	{ NOTE_C3, 100 }, 
	{ NOTE_C3, 100 }, 
	{ NOTE_AB3, 100 }, 
	{ NOTE_C3, 100 }, 
	{ NOTE_C3, 100 }, 
	{ NOTE_C3, 100 }, 
	{ NOTE_AB3, 100 }, 
	{ NOTE_C3, 100 }, 
	{ NOTE_C3, 100 }, 
	{ NOTE_C3, 100 }, 
	{ NOTE_AB3, 100 }, 
	{ NOTE_C3, 100 }, 
	{ NOTE_C3, 100 }, 
	{ NOTE_C3, 100 }, 
	{ NOTE_B2, 100 }, 
	{ NOTE_B2, 100 }, 
	{ NOTE_B2, 100 }, 
	{ NOTE_B2, 100 }, 
	{ NOTE_B2, 100 }, 
	{ NOTE_B2, 100 }, 
	{ NOTE_B2, 100 }, 
	{ NOTE_B2, 100 }, 
	{ NOTE_B2, 100 }, 
	{ NOTE_B2, 100 }, 
	{ NOTE_B2, 100 }, 
	{ NOTE_B2, 100 }, 
	{ NOTE_G3, 100 }, 
	{ NOTE_BB2, 100 }, 
	{ NOTE_BB2, 100 }, 
	{ NOTE_BB2, 100 }, 
	{ NOTE_G3, 100 }, 
	{ NOTE_BB2, 100 }, 
	{ NOTE_BB2, 100 }, 
	{ NOTE_BB2, 100 }, 
	{ NOTE_G3, 100 }, 
	{ NOTE_BB2, 100 }, 
	{ NOTE_BB2, 100 }, 
	{ NOTE_BB2, 100 }, 
	{ NOTE_A2, 100 }, 
	{ NOTE_A2, 100 }, 
	{ NOTE_A2, 100 }, 
	{ NOTE_A2, 100 }, 
	{ NOTE_A2, 100 }, 
	{ NOTE_A2, 100 }, 
	{ NOTE_A2, 100 }, 
	{ NOTE_A2, 100 }, 
	{ NOTE_A2, 100 }, 
	{ NOTE_A2, 100 }, 
	{ NOTE_A2, 100 }, 
	{ NOTE_A2, 100 }, 
	{ NOTE_F3, 100 }, 
	{ NOTE_AB2, 100 }, 
	{ NOTE_AB2, 100 }, 
	{ NOTE_AB2, 100 }, 
	{ NOTE_F3, 100 }, 
	{ NOTE_AB2, 100 }, 
	{ NOTE_AB2, 100 }, 
	{ NOTE_AB2, 100 }, 
	{ NOTE_F3, 100 }, 
	{ NOTE_AB2, 100 }, 
	{ NOTE_AB2, 100 }, 
	{ NOTE_AB2, 100 }, 
	{ NOTE_G2, 100 }, 
	{ NOTE_G3, 100 }, 
	{ NOTE_G3, 100 }, 
	{ NOTE_G3, 100 }, 
	{ NOTE_G3, 100 }, 
	{ NOTE_G3, 100 }, 
	{ NOTE_G3, 100 }, 
	{ NOTE_G3, 100 }, 
	{ NOTE_G3, 100 }, 
	{ NOTE_G3, 100 }, 
	{ NOTE_G3, 100 }, 
	{ NOTE_G3, 100 }, 
	{ NOTE_EB4, 100 }, 
	{ NOTE_G3, 100 }, 
	{ NOTE_G3, 100 }, 
	{ NOTE_G3, 100 }, 
	{ NOTE_EB4, 100 }, 
	{ NOTE_G3, 100 }, 
	{ NOTE_G3, 100 }, 
	{ NOTE_G3, 100 }, 
	{ NOTE_EB4, 100 }, 
	{ NOTE_G3, 100 }, 
	{ NOTE_G3, 100 }, 
	{ NOTE_G3, 100 }, 
	{ NOTE_FS3, 100 }, 
	{ NOTE_FS3, 100 }, 
	{ NOTE_FS3, 100 }, 
	{ NOTE_FS3, 100 }, 
	{ NOTE_FS3, 100 }, 
	{ NOTE_FS3, 100 }, 
	{ NOTE_FS3, 100 }, 
	{ NOTE_FS3, 100 }, 
	{ NOTE_FS3, 100 }, 
	{ NOTE_FS3, 100 }, 
	{ NOTE_FS3, 100 }, 
	{ NOTE_FS3, 100 }, 
	{ NOTE_D4, 100 }, 
	{ NOTE_F3, 100 }, 
	{ NOTE_F3, 100 }, 
	{ NOTE_F3, 100 }, 
	{ NOTE_D4, 100 }, 
	{ NOTE_F3, 100 }, 
	{ NOTE_F3, 100 }, 
	{ NOTE_F3, 100 }, 
	{ NOTE_D4, 100 }, 
	{ NOTE_F3, 100 }, 
	{ NOTE_F3, 100 }, 
	{ NOTE_F3, 100 }, 
	{ NOTE_E3, 100 }, 
	{ NOTE_E3, 100 }, 
	{ NOTE_E3, 100 }, 
	{ NOTE_E3, 100 }, 
	{ NOTE_E3, 100 }, 
	{ NOTE_E3, 100 }, 
	{ NOTE_E3, 100 }, 
	{ NOTE_E3, 100 }, 
	{ NOTE_E3, 100 }, 
	{ NOTE_E3, 100 }, 
	{ NOTE_E3, 100 }, 
	{ NOTE_E3, 100 }, 
	{ NOTE_C4, 100 }, 
	{ NOTE_EB3, 100 }, 
	{ NOTE_EB3, 100 }, 
	{ NOTE_EB3, 100 }, 
	{ NOTE_C4, 100 }, 
	{ NOTE_EB3, 100 }, 
	{ NOTE_EB3, 100 }, 
	{ NOTE_EB3, 100 }, 
	{ NOTE_C4, 100 }, 
	{ NOTE_EB3, 100 }, 
	{ NOTE_EB3, 100 }, 
	{ NOTE_EB3, 100 }, 
	{ NOTE_D3, 400 }, 
	{ NOTE_REST, 800 }, 
	{ NOTE_REST, 1200 }, 
	{ NOTE_REST, 1200 }, 
	{ NOTE_REST, 1200 }, 
	{ NOTE_REST, 1200 }, 
	{ NOTE_G2, 200 }, 
	{ NOTE_G2, 200 }, 
	{ NOTE_G2, 200 }, 
	{ NOTE_G2, 200 }, 
	{ NOTE_G2, 200 }, 
	{ NOTE_G2, 200 }, 
	{ NOTE_G2, 200 }, 
	{ NOTE_G2, 200 }, 
	{ NOTE_G2, 200 }, 
	{ NOTE_G2, 200 }, 
	{ NOTE_G2, 200 }, 
	{ NOTE_G2, 200 }, 
	{ NOTE_C3, 200 }, 
	{ NOTE_C3, 200 }, 
	{ NOTE_C3, 200 }, 
	{ NOTE_C3, 200 }, 
	{ NOTE_C3, 200 }, 
	{ NOTE_C3, 200 }, 
	{ NOTE_C3, 200 }, 
	{ NOTE_C3, 200 }, 
	{ NOTE_C3, 200 }, 
	{ NOTE_C3, 200 }, 
	{ NOTE_C3, 200 }, 
	{ NOTE_C3, 200 }, 
	{ NOTE_EB3, 200 }, 
	{ NOTE_EB3, 200 }, 
	{ NOTE_EB3, 200 }, 
	{ NOTE_EB3, 200 }, 
	{ NOTE_EB3, 200 }, 
	{ NOTE_EB3, 200 }, 
	{ NOTE_EB3, 200 }, 
	{ NOTE_EB3, 200 }, 
	{ NOTE_EB3, 200 }, 
	{ NOTE_EB3, 200 }, 
	{ NOTE_EB3, 200 }, 
	{ NOTE_EB3, 200 }, 
	{ NOTE_G3, 200 }, 
	{ NOTE_G3, 200 }, 
	{ NOTE_G3, 200 }, 
	{ NOTE_G3, 200 }, 
	{ NOTE_G3, 200 }, 
	{ NOTE_G3, 200 }, 
	{ NOTE_G3, 400 }, 
	{ NOTE_G2, 400 }, 
	{ NOTE_G2, 400 }, 
	{ NOTE_G2, 400 }, 
	{ NOTE_G2, 400 }, 
	{ NOTE_G2, 400 }, 
	{ NOTE_G2, 400 }, 
	{ NOTE_G2, 400 }, 
	{ NOTE_G2, 400 }, 
	{ NOTE_G2, 400 }, 
	{ NOTE_G2, 400 }, 
	{ NOTE_G2, 400 }, 
	{ NOTE_G2, 400 }, 
	{ NOTE_REST, 800 }, 
	{ NOTE_REST, 1200 }, 
	{ NOTE_BB2, 100 }, 
	{ NOTE_G2, 100 }, 
	{ NOTE_BB2, 100 }, 
	{ NOTE_G2, 100 }, 
	{ NOTE_BB2, 100 }, 
	{ NOTE_G2, 100 }, 
	{ NOTE_BB2, 100 }, 
	{ NOTE_G2, 100 }, 
	{ NOTE_BB2, 100 }, 
	{ NOTE_G2, 100 }, 
	{ NOTE_BB2, 100 }, 
	{ NOTE_G2, 100 }, 
	{ NOTE_D3, 400 }, 
	{ NOTE_REST, 800 }, 
	{ NOTE_REST, 1200 }, 
	{ NOTE_REST, 1200 }, 
	{ NOTE_REST, 1200 }, 
	{ NOTE_D3, 100 }, 
	{ NOTE_D4, 100 }, 
	{ NOTE_C4, 100 }, 
	{ NOTE_BB3, 100 }, 
	{ NOTE_A3, 100 }, 
	{ NOTE_BB3, 100 }, 
	{ NOTE_A3, 100 }, 
	{ NOTE_G3, 100 }, 
	{ NOTE_FS3, 100 }, 
	{ NOTE_E3, 100 }, 
	{ NOTE_D3, 100 }, 
	{ NOTE_C3, 100 }, 
	{ NOTE_BB2, 100 }, 
	{ NOTE_BB2, 100 }, 
	{ NOTE_BB2, 100 }, 
	{ NOTE_BB2, 100 }, 
	{ NOTE_BB2, 100 }, 
	{ NOTE_BB2, 100 }, 
	{ NOTE_BB2, 100 }, 
	{ NOTE_BB2, 100 }, 
	{ NOTE_BB2, 100 }, 
	{ NOTE_BB2, 100 }, 
	{ NOTE_BB2, 100 }, 
	{ NOTE_BB2, 100 }, 
	{ NOTE_C3, 100 }, 
	{ NOTE_C3, 100 }, 
	{ NOTE_C3, 100 }, 
	{ NOTE_C3, 100 }, 
	{ NOTE_C3, 100 }, 
	{ NOTE_C3, 100 }, 
	{ NOTE_C3, 100 }, 
	{ NOTE_C3, 100 }, 
	{ NOTE_C3, 100 }, 
	{ NOTE_C3, 100 }, 
	{ NOTE_C3, 100 }, 
	{ NOTE_C3, 100 }, 
	{ NOTE_D3, 100 }, 
	{ NOTE_D3, 100 }, 
	{ NOTE_D3, 100 }, 
	{ NOTE_D3, 100 }, 
	{ NOTE_D3, 100 }, 
	{ NOTE_D3, 100 }, 
	{ NOTE_D3, 100 }, 
	{ NOTE_D3, 100 }, 
	{ NOTE_D3, 100 }, 
	{ NOTE_D3, 100 }, 
	{ NOTE_D3, 100 }, 
	{ NOTE_D3, 100 }, 
	{ NOTE_G2, 100 }, 
	{ NOTE_G2, 100 }, 
	{ NOTE_G2, 100 }, 
	{ NOTE_G2, 100 }, 
	{ NOTE_BB2, 100 }, 
	{ NOTE_BB2, 100 }, 
	{ NOTE_BB2, 100 }, 
	{ NOTE_BB2, 100 }, 
	{ NOTE_BB2, 100 }, 
	{ NOTE_BB2, 100 }, 
	{ NOTE_BB2, 100 }, 
	{ NOTE_BB2, 100 }, 
	{ NOTE_C3, 100 }, 
	{ NOTE_C3, 100 }, 
	{ NOTE_C3, 100 }, 
	{ NOTE_C3, 100 }, 
	{ NOTE_C3, 100 }, 
	{ NOTE_C3, 100 }, 
	{ NOTE_C3, 100 }, 
	{ NOTE_C3, 100 }, 
	{ NOTE_C3, 100 }, 
	{ NOTE_C3, 100 }, 
	{ NOTE_C3, 100 }, 
	{ NOTE_C3, 100 }, 
	{ NOTE_D3, 100 }, 
	{ NOTE_D3, 100 }, 
	{ NOTE_D3, 100 }, 
	{ NOTE_D3, 100 }, 
	{ NOTE_D3, 100 }, 
	{ NOTE_D3, 100 }, 
	{ NOTE_D3, 100 }, 
	{ NOTE_D3, 100 }, 
	{ NOTE_D3, 100 }, 
	{ NOTE_D3, 100 }, 
	{ NOTE_D3, 100 }, 
	{ NOTE_D3, 100 }, 
	{ NOTE_G2, 100 }, 
	{ NOTE_G3, 100 }, 
	{ NOTE_G2, 100 }, 
	{ NOTE_G3, 100 }, 
	{ NOTE_G2, 100 }, 
	{ NOTE_G3, 100 }, 
	{ NOTE_G2, 100 }, 
	{ NOTE_G3, 100 }, 
	{ NOTE_G2, 100 }, 
	{ NOTE_G3, 100 }, 
	{ NOTE_G2, 100 }, 
	{ NOTE_G3, 100 }, 
	{ NOTE_G2, 100 }, 
	{ NOTE_G3, 100 }, 
	{ NOTE_G2, 100 }, 
	{ NOTE_G3, 100 }, 
	{ NOTE_G2, 100 }, 
	{ NOTE_G3, 100 }, 
	{ NOTE_G2, 100 }, 
	{ NOTE_G3, 100 }, 
	{ NOTE_G2, 100 }, 
	{ NOTE_G3, 100 }, 
	{ NOTE_G2, 100 }, 
	{ NOTE_G3, 100 }, 
	{ NOTE_G2, 100 }, 
	{ NOTE_G3, 100 }, 
	{ NOTE_G2, 100 }, 
	{ NOTE_G3, 100 }, 
	{ NOTE_G2, 100 }, 
	{ NOTE_G3, 100 }, 
	{ NOTE_G2, 100 }, 
	{ NOTE_G3, 100 }, 
	{ NOTE_G2, 100 }, 
	{ NOTE_G3, 100 }, 
	{ NOTE_G2, 100 }, 
	{ NOTE_G3, 100 }, 
	{ NOTE_G2, 1200 }, 
};
const uint16_t NUM_OF_NOTES4 = sizeof(melody4)/sizeof(melody4[0]);

