/*
 * Song: Spring by Vivaldi
 *
 *	Melody 0 | Solo - Tom
 *	Melody 1 | Solo - Tilda
 *	Melody 2 | Solo - Emma
 *	Melody 3 | Cello - Emile
 *	Melody 4 | Cello - Emile
*/

#include <Arduino.h>
#include "notes.h"

const Note melody0[] PROGMEM = {
	{ NOTE_REST, 1698 }, 
	{ NOTE_REST, 283 }, 
	{ NOTE_E5, 283 }, 
	{ NOTE_GS5, 283 }, 
	{ NOTE_GS5, 283 }, 
	{ NOTE_GS5, 283 }, 
	{ NOTE_FS5, 142 }, 
	{ NOTE_E5, 142 }, 
	{ NOTE_B5, 849 }, 
	{ NOTE_B5, 142 }, 
	{ NOTE_A5, 140 }, 
	{ NOTE_GS5, 283 }, 
	{ NOTE_GS5, 283 }, 
	{ NOTE_GS5, 283 }, 
	{ NOTE_FS5, 142 }, 
	{ NOTE_E5, 142 }, 
	{ NOTE_B5, 849 }, 
	{ NOTE_B5, 142 }, 
	{ NOTE_A5, 140 }, 
	{ NOTE_GS5, 283 }, 
	{ NOTE_A5, 142 }, 
	{ NOTE_B5, 142 }, 
	{ NOTE_A5, 283 }, 
	{ NOTE_GS5, 283 }, 
	{ NOTE_FS5, 283 }, 
	{ NOTE_DS5, 283 }, 
	{ NOTE_B4, 283 }, 
	{ NOTE_E5, 282 }, 
	{ NOTE_GS5, 283 }, 
	{ NOTE_GS5, 283 }, 
	{ NOTE_GS5, 283 }, 
	{ NOTE_FS5, 142 }, 
	{ NOTE_E5, 142 }, 
	{ NOTE_B5, 849 }, 
	{ NOTE_B5, 142 }, 
	{ NOTE_A5, 140 }, 
	{ NOTE_GS5, 283 }, 
	{ NOTE_GS5, 283 }, 
	{ NOTE_GS5, 283 }, 
	{ NOTE_FS5, 142 }, 
	{ NOTE_E5, 142 }, 
	{ NOTE_B5, 849 }, 
	{ NOTE_B5, 142 }, 
	{ NOTE_A5, 140 }, 
	{ NOTE_GS5, 283 }, 
	{ NOTE_A5, 142 }, 
	{ NOTE_B5, 142 }, 
	{ NOTE_A5, 283 }, 
	{ NOTE_GS5, 283 }, 
	{ NOTE_FS5, 566 }, 
	{ NOTE_REST, 283 }, 
	{ NOTE_E5, 282 }, 
	{ NOTE_B5, 283 }, 
	{ NOTE_A5, 142 }, 
	{ NOTE_GS5, 142 }, 
	{ NOTE_A5, 283 }, 
	{ NOTE_B5, 283 }, 
	{ NOTE_CS6, 283 }, 
	{ NOTE_B5, 566 }, 
	{ NOTE_E5, 282 }, 
	{ NOTE_B5, 283 }, 
	{ NOTE_A5, 142 }, 
	{ NOTE_GS5, 142 }, 
	{ NOTE_A5, 283 }, 
	{ NOTE_B5, 283 }, 
	{ NOTE_CS6, 283 }, 
	{ NOTE_B5, 566 }, 
	{ NOTE_E5, 282 }, 
	{ NOTE_CS6, 283 }, 
	{ NOTE_B5, 566 }, 
	{ NOTE_A5, 283 }, 
	{ NOTE_GS5, 283 }, 
	{ NOTE_FS5, 142 }, 
	{ NOTE_E5, 142 }, 
	{ NOTE_FS5, 71 }, 
	{ NOTE_E5, 71 }, 
	{ NOTE_FS5, 71 }, 
	{ NOTE_E5, 71 }, 
	{ NOTE_FS5, 71 }, 
	{ NOTE_E5, 71 }, 
	{ NOTE_FS5, 71 }, 
	{ NOTE_E5, 68 }, 
	{ NOTE_E5, 566 }, 
	{ NOTE_REST, 283 }, 
	{ NOTE_E5, 283 }, 
	{ NOTE_B5, 283 }, 
	{ NOTE_A5, 142 }, 
	{ NOTE_GS5, 142 }, 
	{ NOTE_A5, 283 }, 
	{ NOTE_B5, 282 }, 
	{ NOTE_CS6, 283 }, 
	{ NOTE_B5, 566 }, 
	{ NOTE_E5, 283 }, 
	{ NOTE_B5, 283 }, 
	{ NOTE_A5, 142 }, 
	{ NOTE_GS5, 142 }, 
	{ NOTE_A5, 283 }, 
	{ NOTE_B5, 282 }, 
	{ NOTE_CS6, 283 }, 
	{ NOTE_B5, 566 }, 
	{ NOTE_E5, 283 }, 
	{ NOTE_CS6, 283 }, 
	{ NOTE_B5, 566 }, 
	{ NOTE_A5, 283 }, 
	{ NOTE_GS5, 283 }, 
	{ NOTE_FS5, 142 }, 
	{ NOTE_E5, 142 }, 
	{ NOTE_FS5, 71 }, 
	{ NOTE_E5, 71 }, 
	{ NOTE_FS5, 71 }, 
	{ NOTE_E5, 71 }, 
	{ NOTE_FS5, 71 }, 
	{ NOTE_E5, 71 }, 
	{ NOTE_FS5, 71 }, 
	{ NOTE_E5, 71 }, 
	{ NOTE_B5, 566 }, 
	{ NOTE_B5, 563 }, 
	{ NOTE_B5, 566 }, 
	{ NOTE_B5, 566 }, 
	{ NOTE_B5, 566 }, 
	{ NOTE_B5, 566 }, 
	{ NOTE_B5, 283 }, 
	{ NOTE_B5, 283 }, 
	{ NOTE_B5, 283 }, 
	{ NOTE_B5, 283 }, 
	{ NOTE_B5, 283 }, 
	{ NOTE_B5, 283 }, 
	{ NOTE_B5, 283 }, 
	{ NOTE_B5, 283 }, 
	{ NOTE_B5, 283 }, 
	{ NOTE_B5, 283 }, 
	{ NOTE_B5, 283 }, 
	{ NOTE_B5, 283 }, 
	{ NOTE_B5, 283 }, 
	{ NOTE_B5, 283 }, 
	{ NOTE_B5, 283 }, 
	{ NOTE_CS6, 142 }, 
	{ NOTE_DS6, 141 }, 
	{ NOTE_E6, 142 }, 
	{ NOTE_DS6, 142 }, 
	{ NOTE_CS6, 142 }, 
	{ NOTE_B5, 142 }, 
	{ NOTE_A5, 142 }, 
	{ NOTE_GS5, 142 }, 
	{ NOTE_FS5, 142 }, 
	{ NOTE_E5, 142 }, 
	{ NOTE_REST, 1128 }, 
	{ NOTE_REST, 2264 }, 
	{ NOTE_REST, 849 }, 
	{ NOTE_E6, 283 }, 
	{ NOTE_E6, 283 }, 
	{ NOTE_E6, 283 }, 
	{ NOTE_E6, 283 }, 
	{ NOTE_E6, 283 }, 
	{ NOTE_E5, 71 }, 
	{ NOTE_FS5, 71 }, 
	{ NOTE_E5, 71 }, 
	{ NOTE_FS5, 71 }, 
	{ NOTE_E5, 71 }, 
	{ NOTE_FS5, 71 }, 
	{ NOTE_E5, 71 }, 
	{ NOTE_FS5, 71 }, 
	{ NOTE_E5, 71 }, 
	{ NOTE_FS5, 71 }, 
	{ NOTE_E5, 71 }, 
	{ NOTE_FS5, 71 }, 
	{ NOTE_E6, 283 }, 
	{ NOTE_E6, 283 }, 
	{ NOTE_E6, 283 }, 
	{ NOTE_E6, 283 }, 
	{ NOTE_REST, 280 }, 
	{ NOTE_E5, 71 }, 
	{ NOTE_FS5, 71 }, 
	{ NOTE_E5, 71 }, 
	{ NOTE_FS5, 71 }, 
	{ NOTE_E5, 71 }, 
	{ NOTE_FS5, 71 }, 
	{ NOTE_E5, 71 }, 
	{ NOTE_FS5, 71 }, 
	{ NOTE_REST, 566 }, 
	{ NOTE_B5, 708 }, 
	{ NOTE_E6, 142 }, 
	{ NOTE_B5, 142 }, 
	{ NOTE_CS6, 138 }, 
	{ NOTE_B5, 708 }, 
	{ NOTE_E6, 142 }, 
	{ NOTE_B5, 142 }, 
	{ NOTE_CS6, 142 }, 
	{ NOTE_B5, 142 }, 
	{ NOTE_E6, 142 }, 
	{ NOTE_B5, 142 }, 
	{ NOTE_CS6, 142 }, 
	{ NOTE_B5, 142 }, 
	{ NOTE_E6, 142 }, 
	{ NOTE_B5, 142 }, 
	{ NOTE_CS6, 136 }, 
	{ NOTE_B5, 142 }, 
	{ NOTE_E6, 142 }, 
	{ NOTE_B5, 142 }, 
	{ NOTE_CS6, 142 }, 
	{ NOTE_B5, 142 }, 
	{ NOTE_E6, 142 }, 
	{ NOTE_B5, 142 }, 
	{ NOTE_CS6, 142 }, 
	{ NOTE_B5, 283 }, 
	{ NOTE_E5, 283 }, 
	{ NOTE_GS5, 71 }, 
	{ NOTE_FS5, 71 }, 
	{ NOTE_GS5, 71 }, 
	{ NOTE_FS5, 71 }, 
	{ NOTE_GS5, 71 }, 
	{ NOTE_FS5, 71 }, 
	{ NOTE_GS5, 71 }, 
	{ NOTE_FS5, 65 }, 
	{ NOTE_GS5, 71 }, 
	{ NOTE_FS5, 71 }, 
	{ NOTE_GS5, 71 }, 
	{ NOTE_FS5, 71 }, 
	{ NOTE_GS5, 71 }, 
	{ NOTE_FS5, 71 }, 
	{ NOTE_GS5, 71 }, 
	{ NOTE_FS5, 71 }, 
	{ NOTE_GS5, 71 }, 
	{ NOTE_FS5, 71 }, 
	{ NOTE_GS5, 71 }, 
	{ NOTE_FS5, 71 }, 
	{ NOTE_GS5, 71 }, 
	{ NOTE_FS5, 71 }, 
	{ NOTE_GS5, 71 }, 
	{ NOTE_FS5, 71 }, 
	{ NOTE_GS5, 71 }, 
	{ NOTE_FS5, 71 }, 
	{ NOTE_GS5, 71 }, 
	{ NOTE_FS5, 71 }, 
	{ NOTE_GS5, 71 }, 
	{ NOTE_FS5, 71 }, 
	{ NOTE_GS5, 71 }, 
	{ NOTE_FS5, 71 }, 
	{ NOTE_GS5, 71 }, 
	{ NOTE_FS5, 71 }, 
	{ NOTE_GS5, 71 }, 
	{ NOTE_FS5, 71 }, 
	{ NOTE_GS5, 71 }, 
	{ NOTE_FS5, 71 }, 
	{ NOTE_GS5, 71 }, 
	{ NOTE_FS5, 63 }, 
	{ NOTE_REST, 566 }, 
	{ NOTE_GS5, 71 }, 
	{ NOTE_FS5, 71 }, 
	{ NOTE_GS5, 71 }, 
	{ NOTE_FS5, 71 }, 
	{ NOTE_GS5, 71 }, 
	{ NOTE_FS5, 71 }, 
	{ NOTE_GS5, 71 }, 
	{ NOTE_FS5, 71 }, 
	{ NOTE_E6, 1130 }, 
	{ NOTE_E6, 71 }, 
	{ NOTE_DS6, 71 }, 
	{ NOTE_E6, 71 }, 
	{ NOTE_DS6, 71 }, 
	{ NOTE_E6, 71 }, 
	{ NOTE_DS6, 71 }, 
	{ NOTE_E6, 71 }, 
	{ NOTE_DS6, 71 }, 
	{ NOTE_E6, 71 }, 
	{ NOTE_DS6, 71 }, 
	{ NOTE_E6, 71 }, 
	{ NOTE_DS6, 71 }, 
	{ NOTE_E6, 71 }, 
	{ NOTE_DS6, 71 }, 
	{ NOTE_E6, 71 }, 
	{ NOTE_DS6, 71 }, 
	{ NOTE_E6, 1128 }, 
	{ NOTE_E6, 71 }, 
	{ NOTE_DS6, 71 }, 
	{ NOTE_E6, 71 }, 
	{ NOTE_DS6, 71 }, 
	{ NOTE_E6, 71 }, 
	{ NOTE_DS6, 71 }, 
	{ NOTE_E6, 71 }, 
	{ NOTE_DS6, 71 }, 
	{ NOTE_E6, 71 }, 
	{ NOTE_DS6, 71 }, 
	{ NOTE_E6, 71 }, 
	{ NOTE_DS6, 71 }, 
	{ NOTE_E6, 71 }, 
	{ NOTE_DS6, 71 }, 
	{ NOTE_E6, 71 }, 
	{ NOTE_DS6, 71 }, 
	{ NOTE_REST, 566 }, 
	{ NOTE_REST, 283 }, 
	{ NOTE_E5, 279 }, 
	{ NOTE_B5, 283 }, 
	{ NOTE_A5, 142 }, 
	{ NOTE_GS5, 142 }, 
	{ NOTE_A5, 283 }, 
	{ NOTE_B5, 283 }, 
	{ NOTE_CS6, 283 }, 
	{ NOTE_B5, 566 }, 
	{ NOTE_E5, 282 }, 
	{ NOTE_B5, 283 }, 
	{ NOTE_A5, 142 }, 
	{ NOTE_GS5, 142 }, 
	{ NOTE_A5, 283 }, 
	{ NOTE_B5, 283 }, 
	{ NOTE_CS6, 283 }, 
	{ NOTE_B5, 566 }, 
	{ NOTE_E5, 282 }, 
	{ NOTE_CS6, 283 }, 
	{ NOTE_B5, 566 }, 
	{ NOTE_A5, 283 }, 
	{ NOTE_GS5, 283 }, 
	{ NOTE_FS5, 142 }, 
	{ NOTE_E5, 142 }, 
	{ NOTE_FS5, 71 }, 
	{ NOTE_E5, 71 }, 
	{ NOTE_FS5, 71 }, 
	{ NOTE_E5, 71 }, 
	{ NOTE_FS5, 71 }, 
	{ NOTE_E5, 71 }, 
	{ NOTE_FS5, 71 }, 
	{ NOTE_E5, 68 }, 
	{ NOTE_E5, 283 }, 
	{ NOTE_GS4, 142 }, 
	{ NOTE_A4, 142 }, 
	{ NOTE_B4, 142 }, 
	{ NOTE_A4, 142 }, 
	{ NOTE_B4, 142 }, 
	{ NOTE_A4, 142 }, 
	{ NOTE_GS4, 142 }, 
	{ NOTE_A4, 142 }, 
	{ NOTE_GS4, 142 }, 
	{ NOTE_A4, 142 }, 
	{ NOTE_B4, 142 }, 
	{ NOTE_A4, 142 }, 
	{ NOTE_B4, 142 }, 
	{ NOTE_A4, 135 }, 
	{ NOTE_GS4, 142 }, 
	{ NOTE_A4, 142 }, 
	{ NOTE_GS4, 142 }, 
	{ NOTE_A4, 142 }, 
	{ NOTE_B4, 142 }, 
	{ NOTE_A4, 142 }, 
	{ NOTE_B4, 142 }, 
	{ NOTE_A4, 142 }, 
	{ NOTE_GS4, 142 }, 
	{ NOTE_A4, 142 }, 
	{ NOTE_GS4, 142 }, 
	{ NOTE_A4, 142 }, 
	{ NOTE_B4, 142 }, 
	{ NOTE_CS5, 142 }, 
	{ NOTE_B4, 142 }, 
	{ NOTE_CS5, 134 }, 
	{ NOTE_DS5, 142 }, 
	{ NOTE_E5, 142 }, 
	{ NOTE_DS5, 142 }, 
	{ NOTE_E5, 142 }, 
	{ NOTE_FS5, 142 }, 
	{ NOTE_E5, 142 }, 
	{ NOTE_FS5, 142 }, 
	{ NOTE_E5, 142 }, 
	{ NOTE_DS5, 142 }, 
	{ NOTE_E5, 142 }, 
	{ NOTE_DS5, 142 }, 
	{ NOTE_E5, 142 }, 
	{ NOTE_FS5, 142 }, 
	{ NOTE_E5, 142 }, 
	{ NOTE_FS5, 142 }, 
	{ NOTE_E5, 134 }, 
	{ NOTE_DS5, 142 }, 
	{ NOTE_E5, 142 }, 
	{ NOTE_DS5, 142 }, 
	{ NOTE_E5, 142 }, 
	{ NOTE_FS5, 142 }, 
	{ NOTE_GS5, 142 }, 
	{ NOTE_FS5, 142 }, 
	{ NOTE_GS5, 142 }, 
	{ NOTE_A5, 142 }, 
	{ NOTE_GS5, 142 }, 
	{ NOTE_A5, 142 }, 
	{ NOTE_GS5, 142 }, 
	{ NOTE_FS5, 142 }, 
	{ NOTE_A5, 142 }, 
	{ NOTE_GS5, 142 }, 
	{ NOTE_FS5, 134 }, 
	{ NOTE_GS5, 283 }, 
	{ NOTE_FS5, 142 }, 
	{ NOTE_E5, 142 }, 
	{ NOTE_DS5, 142 }, 
	{ NOTE_CS5, 142 }, 
	{ NOTE_B4, 142 }, 
	{ NOTE_A4, 142 }, 
	{ NOTE_GS4, 142 }, 
	{ NOTE_A4, 142 }, 
	{ NOTE_GS4, 142 }, 
	{ NOTE_A4, 142 }, 
	{ NOTE_B4, 142 }, 
	{ NOTE_A4, 142 }, 
	{ NOTE_B4, 142 }, 
	{ NOTE_A4, 135 }, 
	{ NOTE_GS4, 142 }, 
	{ NOTE_A4, 142 }, 
	{ NOTE_GS4, 142 }, 
	{ NOTE_A4, 142 }, 
	{ NOTE_B4, 142 }, 
	{ NOTE_A4, 142 }, 
	{ NOTE_B4, 142 }, 
	{ NOTE_A4, 142 }, 
	{ NOTE_GS4, 142 }, 
	{ NOTE_A4, 142 }, 
	{ NOTE_GS4, 142 }, 
	{ NOTE_A4, 142 }, 
	{ NOTE_B4, 142 }, 
	{ NOTE_A4, 142 }, 
	{ NOTE_B4, 142 }, 
	{ NOTE_A4, 134 }, 
	{ NOTE_GS4, 566 }, 
	{ NOTE_REST, 283 }, 
	{ NOTE_GS5, 283 }, 
	{ NOTE_A5, 1132 }, 
	{ NOTE_GS5, 1132 }, 
	{ NOTE_FS5, 1132 }, 
	{ NOTE_GS5, 1132 }, 
	{ NOTE_A5, 1132 }, 
	{ NOTE_GS5, 1132 }, 
	{ NOTE_FS5, 566 }, 
	{ NOTE_REST, 283 }, 
	{ NOTE_B4, 283 }, 
	{ NOTE_FS5, 283 }, 
	{ NOTE_E5, 142 }, 
	{ NOTE_DS5, 142 }, 
	{ NOTE_E5, 283 }, 
	{ NOTE_FS5, 283 }, 
	{ NOTE_GS5, 283 }, 
	{ NOTE_FS5, 566 }, 
	{ NOTE_B4, 282 }, 
	{ NOTE_FS5, 283 }, 
	{ NOTE_E5, 142 }, 
	{ NOTE_DS5, 142 }, 
	{ NOTE_E5, 283 }, 
	{ NOTE_FS5, 283 }, 
	{ NOTE_GS5, 283 }, 
	{ NOTE_FS5, 566 }, 
	{ NOTE_B4, 282 }, 
	{ NOTE_GS5, 283 }, 
	{ NOTE_FS5, 566 }, 
	{ NOTE_E5, 283 }, 
	{ NOTE_DS5, 283 }, 
	{ NOTE_CS5, 142 }, 
	{ NOTE_B4, 142 }, 
	{ NOTE_CS5, 71 }, 
	{ NOTE_B4, 71 }, 
	{ NOTE_CS5, 71 }, 
	{ NOTE_B4, 71 }, 
	{ NOTE_CS5, 71 }, 
	{ NOTE_B4, 71 }, 
	{ NOTE_CS5, 71 }, 
	{ NOTE_B4, 68 }, 
	{ NOTE_B4, 142 }, 
	{ NOTE_B3, 71 }, 
	{ NOTE_B3, 71 }, 
	{ NOTE_B3, 71 }, 
	{ NOTE_B3, 71 }, 
	{ NOTE_B3, 71 }, 
	{ NOTE_B3, 71 }, 
	{ NOTE_B3, 71 }, 
	{ NOTE_B3, 71 }, 
	{ NOTE_B3, 71 }, 
	{ NOTE_B3, 71 }, 
	{ NOTE_B3, 71 }, 
	{ NOTE_B3, 71 }, 
	{ NOTE_B3, 71 }, 
	{ NOTE_B3, 71 }, 
	{ NOTE_B3, 71 }, 
	{ NOTE_B3, 71 }, 
	{ NOTE_B3, 71 }, 
	{ NOTE_B3, 71 }, 
	{ NOTE_B3, 71 }, 
	{ NOTE_B3, 71 }, 
	{ NOTE_B3, 71 }, 
	{ NOTE_B3, 71 }, 
	{ NOTE_B3, 71 }, 
	{ NOTE_B3, 71 }, 
	{ NOTE_B3, 71 }, 
	{ NOTE_B3, 71 }, 
	{ NOTE_B3, 71 }, 
	{ NOTE_B3, 71 }, 
	{ NOTE_B3, 71 }, 
	{ NOTE_B3, 63 }, 
	{ NOTE_B4, 71 }, 
	{ NOTE_CS5, 71 }, 
	{ NOTE_DS5, 71 }, 
	{ NOTE_E5, 71 }, 
	{ NOTE_FS5, 71 }, 
	{ NOTE_GS5, 71 }, 
	{ NOTE_A5, 71 }, 
	{ NOTE_B5, 71 }, 
	{ NOTE_REST, 566 }, 
	{ NOTE_B4, 71 }, 
	{ NOTE_CS5, 71 }, 
	{ NOTE_DS5, 71 }, 
	{ NOTE_E5, 71 }, 
	{ NOTE_FS5, 71 }, 
	{ NOTE_GS5, 71 }, 
	{ NOTE_A5, 71 }, 
	{ NOTE_B5, 71 }, 
	{ NOTE_REST, 562 }, 
	{ NOTE_B3, 71 }, 
	{ NOTE_B3, 71 }, 
	{ NOTE_B3, 71 }, 
	{ NOTE_B3, 71 }, 
	{ NOTE_B3, 71 }, 
	{ NOTE_B3, 71 }, 
	{ NOTE_B3, 71 }, 
	{ NOTE_B3, 71 }, 
	{ NOTE_B3, 71 }, 
	{ NOTE_B3, 71 }, 
	{ NOTE_B3, 71 }, 
	{ NOTE_B3, 71 }, 
	{ NOTE_B3, 71 }, 
	{ NOTE_B3, 71 }, 
	{ NOTE_B3, 71 }, 
	{ NOTE_B3, 71 }, 
	{ NOTE_B3, 71 }, 
	{ NOTE_B3, 71 }, 
	{ NOTE_B3, 71 }, 
	{ NOTE_B3, 71 }, 
	{ NOTE_B3, 71 }, 
	{ NOTE_B3, 71 }, 
	{ NOTE_B3, 71 }, 
	{ NOTE_B3, 71 }, 
	{ NOTE_B3, 71 }, 
	{ NOTE_B3, 71 }, 
	{ NOTE_B3, 71 }, 
	{ NOTE_B3, 71 }, 
	{ NOTE_B3, 71 }, 
	{ NOTE_B3, 71 }, 
	{ NOTE_B3, 71 }, 
	{ NOTE_B3, 63 }, 
	{ NOTE_B5, 94 }, 
	{ NOTE_GS5, 94 }, 
	{ NOTE_B5, 94 }, 
	{ NOTE_E6, 94 }, 
	{ NOTE_B5, 94 }, 
	{ NOTE_E6, 94 }, 
	{ NOTE_B5, 94 }, 
	{ NOTE_GS5, 94 }, 
	{ NOTE_B5, 94 }, 
	{ NOTE_E6, 94 }, 
	{ NOTE_B5, 94 }, 
	{ NOTE_E6, 94 }, 
	{ NOTE_B5, 94 }, 
	{ NOTE_GS5, 94 }, 
	{ NOTE_B5, 94 }, 
	{ NOTE_DS6, 94 }, 
	{ NOTE_B5, 94 }, 
	{ NOTE_DS6, 94 }, 
	{ NOTE_B5, 94 }, 
	{ NOTE_GS5, 94 }, 
	{ NOTE_B5, 94 }, 
	{ NOTE_DS6, 94 }, 
	{ NOTE_B5, 94 }, 
	{ NOTE_DS6, 102 }, 
	{ NOTE_CS6, 566 }, 
	{ NOTE_REST, 283 }, 
	{ NOTE_REST, 283 }, 
	{ NOTE_CS6, 94 }, 
	{ NOTE_AS5, 94 }, 
	{ NOTE_CS6, 94 }, 
	{ NOTE_FS6, 94 }, 
	{ NOTE_CS6, 94 }, 
	{ NOTE_FS6, 94 }, 
	{ NOTE_CS6, 94 }, 
	{ NOTE_AS5, 94 }, 
	{ NOTE_CS6, 94 }, 
	{ NOTE_FS6, 94 }, 
	{ NOTE_CS6, 94 }, 
	{ NOTE_FS6, 98 }, 
	{ NOTE_CS6, 94 }, 
	{ NOTE_AS5, 94 }, 
	{ NOTE_CS6, 94 }, 
	{ NOTE_E6, 94 }, 
	{ NOTE_CS6, 94 }, 
	{ NOTE_E6, 94 }, 
	{ NOTE_CS6, 94 }, 
	{ NOTE_AS5, 94 }, 
	{ NOTE_CS6, 94 }, 
	{ NOTE_E6, 94 }, 
	{ NOTE_CS6, 94 }, 
	{ NOTE_E6, 94 }, 
	{ NOTE_DS6, 566 }, 
	{ NOTE_REST, 283 }, 
	{ NOTE_REST, 287 }, 
	{ NOTE_DS6, 94 }, 
	{ NOTE_C5, 94 }, 
	{ NOTE_DS6, 94 }, 
	{ NOTE_GS6, 94 }, 
	{ NOTE_DS6, 94 }, 
	{ NOTE_GS6, 94 }, 
	{ NOTE_DS6, 94 }, 
	{ NOTE_C5, 94 }, 
	{ NOTE_DS6, 94 }, 
	{ NOTE_GS6, 94 }, 
	{ NOTE_DS6, 94 }, 
	{ NOTE_GS6, 94 }, 
	{ NOTE_DS6, 94 }, 
	{ NOTE_C5, 94 }, 
	{ NOTE_DS6, 94 }, 
	{ NOTE_FS6, 94 }, 
	{ NOTE_DS6, 94 }, 
	{ NOTE_FS6, 94 }, 
	{ NOTE_DS6, 94 }, 
	{ NOTE_C5, 94 }, 
	{ NOTE_DS6, 94 }, 
	{ NOTE_FS6, 94 }, 
	{ NOTE_DS6, 94 }, 
	{ NOTE_FS6, 102 }, 
	{ NOTE_E6, 566 }, 
	{ NOTE_REST, 283 }, 
	{ NOTE_REST, 283 }, 
	{ NOTE_E6, 94 }, 
	{ NOTE_CS6, 94 }, 
	{ NOTE_E6, 94 }, 
	{ NOTE_GS6, 94 }, 
	{ NOTE_E6, 94 }, 
	{ NOTE_GS6, 94 }, 
	{ NOTE_E6, 94 }, 
	{ NOTE_CS6, 94 }, 
	{ NOTE_E6, 94 }, 
	{ NOTE_GS6, 94 }, 
	{ NOTE_E6, 94 }, 
	{ NOTE_GS6, 98 }, 
	{ NOTE_DS6, 94 }, 
	{ NOTE_B5, 94 }, 
	{ NOTE_DS6, 94 }, 
	{ NOTE_GS6, 94 }, 
	{ NOTE_DS6, 94 }, 
	{ NOTE_GS6, 94 }, 
	{ NOTE_DS6, 94 }, 
	{ NOTE_B5, 94 }, 
	{ NOTE_DS6, 94 }, 
	{ NOTE_GS6, 94 }, 
	{ NOTE_DS6, 94 }, 
	{ NOTE_GS6, 94 }, 
	{ NOTE_CS6, 94 }, 
	{ NOTE_A5, 94 }, 
	{ NOTE_CS6, 94 }, 
	{ NOTE_FS6, 94 }, 
	{ NOTE_CS6, 94 }, 
	{ NOTE_FS6, 94 }, 
	{ NOTE_CS6, 94 }, 
	{ NOTE_A5, 94 }, 
	{ NOTE_CS6, 94 }, 
	{ NOTE_FS6, 94 }, 
	{ NOTE_CS6, 94 }, 
	{ NOTE_FS6, 102 }, 
	{ NOTE_B5, 94 }, 
	{ NOTE_GS5, 94 }, 
	{ NOTE_B5, 94 }, 
	{ NOTE_E6, 94 }, 
	{ NOTE_B5, 94 }, 
	{ NOTE_E6, 94 }, 
	{ NOTE_B5, 94 }, 
	{ NOTE_GS5, 94 }, 
	{ NOTE_B5, 94 }, 
	{ NOTE_E6, 94 }, 
	{ NOTE_B5, 94 }, 
	{ NOTE_E6, 94 }, 
	{ NOTE_A5, 94 }, 
	{ NOTE_FS5, 94 }, 
	{ NOTE_A5, 94 }, 
	{ NOTE_DS6, 94 }, 
	{ NOTE_A5, 94 }, 
	{ NOTE_DS6, 94 }, 
	{ NOTE_A5, 94 }, 
	{ NOTE_FS5, 94 }, 
	{ NOTE_A5, 94 }, 
	{ NOTE_DS6, 94 }, 
	{ NOTE_A5, 94 }, 
	{ NOTE_DS6, 102 }, 
	{ NOTE_GS5, 94 }, 
	{ NOTE_E5, 94 }, 
	{ NOTE_GS5, 94 }, 
	{ NOTE_CS6, 94 }, 
	{ NOTE_GS5, 94 }, 
	{ NOTE_CS6, 94 }, 
	{ NOTE_GS5, 94 }, 
	{ NOTE_E5, 94 }, 
	{ NOTE_GS5, 94 }, 
	{ NOTE_CS6, 94 }, 
	{ NOTE_GS5, 94 }, 
	{ NOTE_CS6, 94 }, 
	{ NOTE_GS5, 94 }, 
	{ NOTE_DS5, 94 }, 
	{ NOTE_GS5, 94 }, 
	{ NOTE_CS6, 94 }, 
	{ NOTE_GS5, 94 }, 
	{ NOTE_CS6, 94 }, 
	{ NOTE_GS5, 94 }, 
	{ NOTE_DS5, 94 }, 
	{ NOTE_GS5, 94 }, 
	{ NOTE_CS6, 94 }, 
	{ NOTE_GS5, 94 }, 
	{ NOTE_CS6, 102 }, 
	{ NOTE_GS5, 94 }, 
	{ NOTE_DS5, 94 }, 
	{ NOTE_GS5, 94 }, 
	{ NOTE_C5, 94 }, 
	{ NOTE_GS5, 94 }, 
	{ NOTE_C5, 94 }, 
	{ NOTE_GS5, 94 }, 
	{ NOTE_DS5, 94 }, 
	{ NOTE_GS5, 94 }, 
	{ NOTE_C5, 94 }, 
	{ NOTE_GS5, 94 }, 
	{ NOTE_C5, 94 }, 
	{ NOTE_CS6, 566 }, 
	{ NOTE_REST, 283 }, 
	{ NOTE_CS5, 287 }, 
	{ NOTE_GS5, 283 }, 
	{ NOTE_FS5, 142 }, 
	{ NOTE_E5, 142 }, 
	{ NOTE_FS5, 283 }, 
	{ NOTE_GS5, 283 }, 
	{ NOTE_A5, 283 }, 
	{ NOTE_GS5, 566 }, 
	{ NOTE_CS5, 282 }, 
	{ NOTE_GS5, 283 }, 
	{ NOTE_FS5, 142 }, 
	{ NOTE_E5, 142 }, 
	{ NOTE_FS5, 283 }, 
	{ NOTE_GS5, 283 }, 
	{ NOTE_A5, 283 }, 
	{ NOTE_GS5, 566 }, 
	{ NOTE_CS5, 282 }, 
	{ NOTE_A5, 283 }, 
	{ NOTE_GS5, 566 }, 
	{ NOTE_FS5, 283 }, 
	{ NOTE_E5, 283 }, 
	{ NOTE_DS5, 142 }, 
	{ NOTE_CS5, 142 }, 
	{ NOTE_DS5, 71 }, 
	{ NOTE_CS5, 71 }, 
	{ NOTE_DS5, 71 }, 
	{ NOTE_CS5, 71 }, 
	{ NOTE_DS5, 71 }, 
	{ NOTE_CS5, 71 }, 
	{ NOTE_DS5, 71 }, 
	{ NOTE_CS5, 68 }, 
	{ NOTE_CS5, 566 }, 
	{ NOTE_REST, 566 }, 
	{ NOTE_REST, 1132 }, 
	{ NOTE_REST, 2264 }, 
	{ NOTE_REST, 283 }, 
	{ NOTE_CS5, 283 }, 
	{ NOTE_CS5, 283 }, 
	{ NOTE_CS5, 283 }, 
	{ NOTE_CS5, 283 }, 
	{ NOTE_CS5, 283 }, 
	{ NOTE_CS5, 283 }, 
	{ NOTE_DS5, 283 }, 
	{ NOTE_E5, 283 }, 
	{ NOTE_E5, 283 }, 
	{ NOTE_F5, 283 }, 
	{ NOTE_F5, 283 }, 
	{ NOTE_FS5, 283 }, 
	{ NOTE_FS5, 283 }, 
	{ NOTE_G5, 283 }, 
	{ NOTE_G5, 283 }, 
	{ NOTE_CS6, 142 }, 
	{ NOTE_DS6, 142 }, 
	{ NOTE_CS6, 142 }, 
	{ NOTE_DS6, 142 }, 
	{ NOTE_CS6, 566 }, 
	{ NOTE_CS6, 142 }, 
	{ NOTE_DS6, 142 }, 
	{ NOTE_CS6, 142 }, 
	{ NOTE_DS6, 142 }, 
	{ NOTE_CS6, 704 }, 
	{ NOTE_DS6, 142 }, 
	{ NOTE_CS6, 142 }, 
	{ NOTE_DS6, 142 }, 
	{ NOTE_CS6, 142 }, 
	{ NOTE_DS6, 142 }, 
	{ NOTE_CS6, 142 }, 
	{ NOTE_DS6, 142 }, 
	{ NOTE_CS6, 71 }, 
	{ NOTE_B5, 71 }, 
	{ NOTE_CS6, 71 }, 
	{ NOTE_B5, 71 }, 
	{ NOTE_CS6, 71 }, 
	{ NOTE_B5, 71 }, 
	{ NOTE_CS6, 71 }, 
	{ NOTE_B5, 71 }, 
	{ NOTE_CS6, 71 }, 
	{ NOTE_B5, 71 }, 
	{ NOTE_CS6, 71 }, 
	{ NOTE_B5, 71 }, 
	{ NOTE_CS6, 71 }, 
	{ NOTE_B5, 71 }, 
	{ NOTE_CS6, 71 }, 
	{ NOTE_CS6, 134 }, 
	{ NOTE_DS6, 71 }, 
	{ NOTE_CS6, 71 }, 
	{ NOTE_DS6, 71 }, 
	{ NOTE_CS6, 71 }, 
	{ NOTE_DS6, 71 }, 
	{ NOTE_CS6, 71 }, 
	{ NOTE_DS6, 71 }, 
	{ NOTE_CS6, 71 }, 
	{ NOTE_DS6, 71 }, 
	{ NOTE_CS6, 71 }, 
	{ NOTE_DS6, 71 }, 
	{ NOTE_CS6, 71 }, 
	{ NOTE_DS6, 71 }, 
	{ NOTE_CS6, 71 }, 
	{ NOTE_DS6, 71 }, 
	{ NOTE_CS6, 71 }, 
	{ NOTE_B5, 71 }, 
	{ NOTE_CS6, 71 }, 
	{ NOTE_B5, 71 }, 
	{ NOTE_CS6, 71 }, 
	{ NOTE_B5, 71 }, 
	{ NOTE_CS6, 71 }, 
	{ NOTE_B5, 71 }, 
	{ NOTE_CS6, 71 }, 
	{ NOTE_B5, 71 }, 
	{ NOTE_CS6, 71 }, 
	{ NOTE_B5, 71 }, 
	{ NOTE_CS6, 71 }, 
	{ NOTE_B5, 71 }, 
	{ NOTE_CS6, 71 }, 
	{ NOTE_B5, 63 }, 
	{ NOTE_GS5, 283 }, 
	{ NOTE_GS5, 283 }, 
	{ NOTE_GS5, 283 }, 
	{ NOTE_FS5, 142 }, 
	{ NOTE_GS5, 142 }, 
	{ NOTE_A5, 849 }, 
	{ NOTE_A5, 142 }, 
	{ NOTE_GS5, 140 }, 
	{ NOTE_FS5, 283 }, 
	{ NOTE_FS5, 283 }, 
	{ NOTE_FS5, 283 }, 
	{ NOTE_E5, 142 }, 
	{ NOTE_FS5, 142 }, 
	{ NOTE_GS5, 849 }, 
	{ NOTE_GS5, 142 }, 
	{ NOTE_A5, 140 }, 
	{ NOTE_B5, 283 }, 
	{ NOTE_B5, 283 }, 
	{ NOTE_B5, 283 }, 
	{ NOTE_B5, 142 }, 
	{ NOTE_A5, 142 }, 
	{ NOTE_GS5, 283 }, 
	{ NOTE_GS5, 283 }, 
	{ NOTE_GS5, 283 }, 
	{ NOTE_GS5, 142 }, 
	{ NOTE_A5, 140 }, 
	{ NOTE_B5, 283 }, 
	{ NOTE_B5, 283 }, 
	{ NOTE_B5, 283 }, 
	{ NOTE_B5, 142 }, 
	{ NOTE_A5, 142 }, 
	{ NOTE_GS5, 283 }, 
	{ NOTE_GS5, 283 }, 
	{ NOTE_GS5, 283 }, 
	{ NOTE_GS5, 142 }, 
	{ NOTE_A5, 140 }, 
	{ NOTE_B5, 283 }, 
	{ NOTE_B5, 283 }, 
	{ NOTE_B5, 283 }, 
	{ NOTE_A5, 142 }, 
	{ NOTE_GS5, 142 }, 
	{ NOTE_FS5, 566 }, 
	{ NOTE_REST, 565 }, 
	{ NOTE_REST, 2264 }, 
	{ NOTE_REST, 142 }, 
	{ NOTE_REST, 142 }, 
	{ NOTE_REST, 142 }, 
	{ NOTE_REST, 142 }, 
	{ NOTE_REST, 142 }, 
	{ NOTE_REST, 142 }, 
	{ NOTE_REST, 142 }, 
	{ NOTE_REST, 142 }, 
	{ NOTE_GS5, 142 }, 
	{ NOTE_E5, 142 }, 
	{ NOTE_FS5, 142 }, 
	{ NOTE_E5, 142 }, 
	{ NOTE_GS5, 142 }, 
	{ NOTE_E5, 142 }, 
	{ NOTE_FS5, 142 }, 
	{ NOTE_E5, 134 }, 
	{ NOTE_A5, 142 }, 
	{ NOTE_E5, 142 }, 
	{ NOTE_FS5, 142 }, 
	{ NOTE_E5, 142 }, 
	{ NOTE_A5, 142 }, 
	{ NOTE_E5, 142 }, 
	{ NOTE_FS5, 142 }, 
	{ NOTE_E5, 142 }, 
	{ NOTE_B5, 142 }, 
	{ NOTE_E5, 142 }, 
	{ NOTE_FS5, 142 }, 
	{ NOTE_E5, 142 }, 
	{ NOTE_B5, 142 }, 
	{ NOTE_E5, 142 }, 
	{ NOTE_FS5, 142 }, 
	{ NOTE_E5, 134 }, 
	{ NOTE_CS6, 283 }, 
	{ NOTE_DS6, 283 }, 
	{ NOTE_E6, 566 }, 
	{ NOTE_E6, 142 }, 
	{ NOTE_B5, 142 }, 
	{ NOTE_E6, 142 }, 
	{ NOTE_B5, 142 }, 
	{ NOTE_CS6, 142 }, 
	{ NOTE_B5, 142 }, 
	{ NOTE_E6, 142 }, 
	{ NOTE_B5, 138 }, 
	{ NOTE_CS6, 142 }, 
	{ NOTE_B5, 142 }, 
	{ NOTE_E6, 142 }, 
	{ NOTE_B5, 142 }, 
	{ NOTE_CS6, 142 }, 
	{ NOTE_B5, 142 }, 
	{ NOTE_E6, 142 }, 
	{ NOTE_B5, 142 }, 
	{ NOTE_E6, 283 }, 
	{ NOTE_E5, 283 }, 
	{ NOTE_FS5, 71 }, 
	{ NOTE_E5, 71 }, 
	{ NOTE_FS5, 71 }, 
	{ NOTE_E5, 71 }, 
	{ NOTE_FS5, 71 }, 
	{ NOTE_E5, 71 }, 
	{ NOTE_FS5, 71 }, 
	{ NOTE_E5, 65 }, 
	{ NOTE_B5, 283 }, 
	{ NOTE_A5, 283 }, 
	{ NOTE_GS5, 283 }, 
	{ NOTE_A5, 142 }, 
	{ NOTE_B5, 142 }, 
	{ NOTE_CS6, 283 }, 
	{ NOTE_B5, 566 }, 
	{ NOTE_E5, 282 }, 
	{ NOTE_B5, 283 }, 
	{ NOTE_A5, 142 }, 
	{ NOTE_GS5, 142 }, 
	{ NOTE_A5, 283 }, 
	{ NOTE_B5, 283 }, 
	{ NOTE_CS6, 283 }, 
	{ NOTE_B5, 566 }, 
	{ NOTE_E5, 282 }, 
	{ NOTE_CS6, 283 }, 
	{ NOTE_B5, 566 }, 
	{ NOTE_A5, 283 }, 
	{ NOTE_GS5, 283 }, 
	{ NOTE_FS5, 142 }, 
	{ NOTE_E5, 142 }, 
	{ NOTE_FS5, 71 }, 
	{ NOTE_E5, 71 }, 
	{ NOTE_FS5, 71 }, 
	{ NOTE_E5, 71 }, 
	{ NOTE_FS5, 71 }, 
	{ NOTE_E5, 71 }, 
	{ NOTE_FS5, 71 }, 
	{ NOTE_E5, 68 }, 
	{ NOTE_E5, 566 }, 
	{ NOTE_REST, 283 }, 
	{ NOTE_E5, 283 }, 
	{ NOTE_B5, 283 }, 
	{ NOTE_A5, 142 }, 
	{ NOTE_GS5, 142 }, 
	{ NOTE_A5, 283 }, 
	{ NOTE_B5, 282 }, 
	{ NOTE_CS6, 283 }, 
	{ NOTE_B5, 566 }, 
	{ NOTE_E5, 283 }, 
	{ NOTE_B5, 283 }, 
	{ NOTE_A5, 142 }, 
	{ NOTE_GS5, 142 }, 
	{ NOTE_A5, 283 }, 
	{ NOTE_B5, 282 }, 
	{ NOTE_CS6, 283 }, 
	{ NOTE_B5, 566 }, 
	{ NOTE_E5, 283 }, 
	{ NOTE_CS6, 283 }, 
	{ NOTE_B5, 566 }, 
	{ NOTE_A5, 283 }, 
	{ NOTE_GS5, 283 }, 
	{ NOTE_FS5, 142 }, 
	{ NOTE_E5, 142 }, 
	{ NOTE_FS5, 71 }, 
	{ NOTE_E5, 71 }, 
	{ NOTE_FS5, 71 }, 
	{ NOTE_E5, 71 }, 
	{ NOTE_FS5, 71 }, 
	{ NOTE_E5, 71 }, 
	{ NOTE_FS5, 71 }, 
	{ NOTE_E5, 71 }, 
	{ NOTE_E5, 1129 }, 
};
const uint16_t NUM_OF_NOTES0 = sizeof(melody0)/sizeof(melody0[0]);

const Note melody1[] PROGMEM = {
	{ NOTE_REST, 2264 }, 
	{ NOTE_GS5, 283 }, 
	{ NOTE_GS5, 283 }, 
	{ NOTE_GS5, 283 }, 
	{ NOTE_FS5, 142 }, 
	{ NOTE_E5, 142 }, 
	{ NOTE_B5, 849 }, 
	{ NOTE_B5, 142 }, 
	{ NOTE_A5, 140 }, 
	{ NOTE_GS5, 283 }, 
	{ NOTE_GS5, 283 }, 
	{ NOTE_GS5, 283 }, 
	{ NOTE_FS5, 142 }, 
	{ NOTE_E5, 142 }, 
	{ NOTE_B5, 849 }, 
	{ NOTE_B5, 142 }, 
	{ NOTE_A5, 140 }, 
	{ NOTE_GS5, 283 }, 
	{ NOTE_A5, 142 }, 
	{ NOTE_B5, 142 }, 
	{ NOTE_A5, 283 }, 
	{ NOTE_GS5, 283 }, 
	{ NOTE_FS5, 283 }, 
	{ NOTE_DS5, 283 }, 
	{ NOTE_B4, 283 }, 
	{ NOTE_E5, 282 }, 
	{ NOTE_GS5, 283 }, 
	{ NOTE_GS5, 283 }, 
	{ NOTE_GS5, 283 }, 
	{ NOTE_FS5, 142 }, 
	{ NOTE_E5, 142 }, 
	{ NOTE_B5, 849 }, 
	{ NOTE_B5, 142 }, 
	{ NOTE_A5, 140 }, 
	{ NOTE_GS5, 283 }, 
	{ NOTE_GS5, 283 }, 
	{ NOTE_GS5, 283 }, 
	{ NOTE_FS5, 142 }, 
	{ NOTE_E5, 142 }, 
	{ NOTE_B5, 849 }, 
	{ NOTE_B5, 142 }, 
	{ NOTE_A5, 140 }, 
	{ NOTE_GS5, 283 }, 
	{ NOTE_A5, 142 }, 
	{ NOTE_B5, 142 }, 
	{ NOTE_A5, 283 }, 
	{ NOTE_GS5, 283 }, 
	{ NOTE_FS5, 566 }, 
	{ NOTE_REST, 283 }, 
	{ NOTE_E5, 282 }, 
	{ NOTE_B5, 283 }, 
	{ NOTE_A5, 142 }, 
	{ NOTE_GS5, 142 }, 
	{ NOTE_A5, 283 }, 
	{ NOTE_B5, 283 }, 
	{ NOTE_CS6, 283 }, 
	{ NOTE_B5, 566 }, 
	{ NOTE_E5, 282 }, 
	{ NOTE_B5, 283 }, 
	{ NOTE_A5, 142 }, 
	{ NOTE_GS5, 142 }, 
	{ NOTE_A5, 283 }, 
	{ NOTE_B5, 283 }, 
	{ NOTE_CS6, 283 }, 
	{ NOTE_B5, 566 }, 
	{ NOTE_E5, 282 }, 
	{ NOTE_CS6, 283 }, 
	{ NOTE_B5, 566 }, 
	{ NOTE_A5, 283 }, 
	{ NOTE_GS5, 283 }, 
	{ NOTE_FS5, 142 }, 
	{ NOTE_E5, 142 }, 
	{ NOTE_FS5, 71 }, 
	{ NOTE_E5, 71 }, 
	{ NOTE_FS5, 71 }, 
	{ NOTE_E5, 71 }, 
	{ NOTE_FS5, 71 }, 
	{ NOTE_E5, 71 }, 
	{ NOTE_FS5, 71 }, 
	{ NOTE_E5, 68 }, 
	{ NOTE_E5, 566 }, 
	{ NOTE_REST, 283 }, 
	{ NOTE_E5, 283 }, 
	{ NOTE_B5, 283 }, 
	{ NOTE_A5, 142 }, 
	{ NOTE_GS5, 142 }, 
	{ NOTE_A5, 283 }, 
	{ NOTE_B5, 282 }, 
	{ NOTE_CS6, 283 }, 
	{ NOTE_B5, 566 }, 
	{ NOTE_E5, 283 }, 
	{ NOTE_B5, 283 }, 
	{ NOTE_A5, 142 }, 
	{ NOTE_GS5, 142 }, 
	{ NOTE_A5, 283 }, 
	{ NOTE_B5, 282 }, 
	{ NOTE_CS6, 283 }, 
	{ NOTE_B5, 566 }, 
	{ NOTE_E5, 283 }, 
	{ NOTE_CS6, 283 }, 
	{ NOTE_B5, 566 }, 
	{ NOTE_A5, 283 }, 
	{ NOTE_GS5, 283 }, 
	{ NOTE_FS5, 142 }, 
	{ NOTE_E5, 142 }, 
	{ NOTE_FS5, 71 }, 
	{ NOTE_E5, 71 }, 
	{ NOTE_FS5, 71 }, 
	{ NOTE_E5, 71 }, 
	{ NOTE_FS5, 71 }, 
	{ NOTE_E5, 71 }, 
	{ NOTE_FS5, 71 }, 
	{ NOTE_E5, 71 }, 
	{ NOTE_E5, 566 }, 
	{ NOTE_REST, 563 }, 
	{ NOTE_REST, 142 }, 
	{ NOTE_A5, 142 }, 
	{ NOTE_GS5, 142 }, 
	{ NOTE_A5, 142 }, 
	{ NOTE_GS5, 71 }, 
	{ NOTE_FS5, 71 }, 
	{ NOTE_GS5, 71 }, 
	{ NOTE_FS5, 71 }, 
	{ NOTE_GS5, 71 }, 
	{ NOTE_FS5, 71 }, 
	{ NOTE_GS5, 71 }, 
	{ NOTE_FS5, 71 }, 
	{ NOTE_REST, 142 }, 
	{ NOTE_A5, 142 }, 
	{ NOTE_GS5, 142 }, 
	{ NOTE_A5, 142 }, 
	{ NOTE_GS5, 71 }, 
	{ NOTE_FS5, 71 }, 
	{ NOTE_GS5, 71 }, 
	{ NOTE_FS5, 71 }, 
	{ NOTE_GS5, 71 }, 
	{ NOTE_FS5, 71 }, 
	{ NOTE_GS5, 71 }, 
	{ NOTE_FS5, 63 }, 
	{ NOTE_REST, 283 }, 
	{ NOTE_B5, 71 }, 
	{ NOTE_A5, 71 }, 
	{ NOTE_GS5, 71 }, 
	{ NOTE_FS5, 71 }, 
	{ NOTE_E5, 566 }, 
	{ NOTE_REST, 283 }, 
	{ NOTE_B5, 71 }, 
	{ NOTE_A5, 71 }, 
	{ NOTE_GS5, 71 }, 
	{ NOTE_FS5, 71 }, 
	{ NOTE_E5, 564 }, 
	{ NOTE_REST, 142 }, 
	{ NOTE_A5, 142 }, 
	{ NOTE_GS5, 142 }, 
	{ NOTE_A5, 142 }, 
	{ NOTE_GS5, 71 }, 
	{ NOTE_FS5, 71 }, 
	{ NOTE_GS5, 71 }, 
	{ NOTE_FS5, 71 }, 
	{ NOTE_GS5, 71 }, 
	{ NOTE_FS5, 71 }, 
	{ NOTE_GS5, 71 }, 
	{ NOTE_FS5, 71 }, 
	{ NOTE_REST, 142 }, 
	{ NOTE_A5, 142 }, 
	{ NOTE_GS5, 142 }, 
	{ NOTE_A5, 142 }, 
	{ NOTE_GS5, 71 }, 
	{ NOTE_FS5, 71 }, 
	{ NOTE_GS5, 71 }, 
	{ NOTE_FS5, 71 }, 
	{ NOTE_GS5, 71 }, 
	{ NOTE_FS5, 71 }, 
	{ NOTE_GS5, 71 }, 
	{ NOTE_FS5, 63 }, 
	{ NOTE_REST, 1132 }, 
	{ NOTE_REST, 283 }, 
	{ NOTE_B5, 71 }, 
	{ NOTE_A5, 71 }, 
	{ NOTE_GS5, 71 }, 
	{ NOTE_FS5, 71 }, 
	{ NOTE_E5, 565 }, 
	{ NOTE_B5, 283 }, 
	{ NOTE_B5, 283 }, 
	{ NOTE_B5, 283 }, 
	{ NOTE_B5, 283 }, 
	{ NOTE_B5, 283 }, 
	{ NOTE_B5, 283 }, 
	{ NOTE_B5, 283 }, 
	{ NOTE_CS6, 142 }, 
	{ NOTE_DS6, 141 }, 
	{ NOTE_E6, 142 }, 
	{ NOTE_DS6, 142 }, 
	{ NOTE_CS6, 142 }, 
	{ NOTE_B5, 142 }, 
	{ NOTE_A5, 142 }, 
	{ NOTE_GS5, 142 }, 
	{ NOTE_FS5, 142 }, 
	{ NOTE_E5, 142 }, 
	{ NOTE_REST, 849 }, 
	{ NOTE_E6, 279 }, 
	{ NOTE_E6, 283 }, 
	{ NOTE_E6, 283 }, 
	{ NOTE_E6, 283 }, 
	{ NOTE_E6, 283 }, 
	{ NOTE_E5, 71 }, 
	{ NOTE_FS5, 71 }, 
	{ NOTE_E5, 71 }, 
	{ NOTE_FS5, 71 }, 
	{ NOTE_E5, 71 }, 
	{ NOTE_FS5, 71 }, 
	{ NOTE_E5, 71 }, 
	{ NOTE_FS5, 71 }, 
	{ NOTE_FS5, 71 }, 
	{ NOTE_E5, 71 }, 
	{ NOTE_FS5, 71 }, 
	{ NOTE_E5, 71 }, 
	{ NOTE_E6, 280 }, 
	{ NOTE_E6, 283 }, 
	{ NOTE_E6, 283 }, 
	{ NOTE_E6, 283 }, 
	{ NOTE_E6, 283 }, 
	{ NOTE_E5, 71 }, 
	{ NOTE_FS5, 71 }, 
	{ NOTE_E5, 71 }, 
	{ NOTE_E5, 71 }, 
	{ NOTE_FS5, 71 }, 
	{ NOTE_E5, 71 }, 
	{ NOTE_FS5, 71 }, 
	{ NOTE_E5, 71 }, 
	{ NOTE_GS5, 71 }, 
	{ NOTE_FS5, 71 }, 
	{ NOTE_GS5, 71 }, 
	{ NOTE_FS5, 71 }, 
	{ NOTE_GS5, 71 }, 
	{ NOTE_FS5, 71 }, 
	{ NOTE_GS5, 71 }, 
	{ NOTE_FS5, 67 }, 
	{ NOTE_GS5, 71 }, 
	{ NOTE_FS5, 71 }, 
	{ NOTE_GS5, 71 }, 
	{ NOTE_FS5, 71 }, 
	{ NOTE_GS5, 71 }, 
	{ NOTE_FS5, 71 }, 
	{ NOTE_GS5, 71 }, 
	{ NOTE_FS5, 71 }, 
	{ NOTE_GS5, 71 }, 
	{ NOTE_FS5, 71 }, 
	{ NOTE_GS5, 71 }, 
	{ NOTE_FS5, 71 }, 
	{ NOTE_GS5, 71 }, 
	{ NOTE_FS5, 71 }, 
	{ NOTE_GS5, 71 }, 
	{ NOTE_FS5, 71 }, 
	{ NOTE_GS5, 71 }, 
	{ NOTE_FS5, 71 }, 
	{ NOTE_GS5, 71 }, 
	{ NOTE_FS5, 71 }, 
	{ NOTE_GS5, 71 }, 
	{ NOTE_FS5, 71 }, 
	{ NOTE_GS5, 71 }, 
	{ NOTE_FS5, 71 }, 
	{ NOTE_GS5, 71 }, 
	{ NOTE_FS5, 71 }, 
	{ NOTE_GS5, 71 }, 
	{ NOTE_FS5, 71 }, 
	{ NOTE_GS5, 71 }, 
	{ NOTE_FS5, 71 }, 
	{ NOTE_GS5, 71 }, 
	{ NOTE_FS5, 63 }, 
	{ NOTE_GS5, 71 }, 
	{ NOTE_FS5, 71 }, 
	{ NOTE_GS5, 71 }, 
	{ NOTE_FS5, 71 }, 
	{ NOTE_GS5, 71 }, 
	{ NOTE_FS5, 71 }, 
	{ NOTE_GS5, 71 }, 
	{ NOTE_FS5, 71 }, 
	{ NOTE_GS5, 71 }, 
	{ NOTE_FS5, 71 }, 
	{ NOTE_GS5, 71 }, 
	{ NOTE_FS5, 71 }, 
	{ NOTE_GS5, 71 }, 
	{ NOTE_FS5, 71 }, 
	{ NOTE_GS5, 71 }, 
	{ NOTE_FS5, 71 }, 
	{ NOTE_B5, 708 }, 
	{ NOTE_E6, 142 }, 
	{ NOTE_B5, 142 }, 
	{ NOTE_CS6, 136 }, 
	{ NOTE_B5, 708 }, 
	{ NOTE_E6, 142 }, 
	{ NOTE_B5, 142 }, 
	{ NOTE_CS6, 142 }, 
	{ NOTE_B5, 142 }, 
	{ NOTE_E6, 142 }, 
	{ NOTE_B5, 142 }, 
	{ NOTE_CS6, 142 }, 
	{ NOTE_B5, 142 }, 
	{ NOTE_E6, 142 }, 
	{ NOTE_B5, 142 }, 
	{ NOTE_CS6, 136 }, 
	{ NOTE_B5, 142 }, 
	{ NOTE_E6, 142 }, 
	{ NOTE_B5, 142 }, 
	{ NOTE_CS6, 142 }, 
	{ NOTE_B5, 142 }, 
	{ NOTE_E6, 142 }, 
	{ NOTE_B5, 142 }, 
	{ NOTE_CS6, 142 }, 
	{ NOTE_B5, 283 }, 
	{ NOTE_E5, 283 }, 
	{ NOTE_REST, 562 }, 
	{ NOTE_E6, 1132 }, 
	{ NOTE_E6, 71 }, 
	{ NOTE_DS6, 71 }, 
	{ NOTE_E6, 71 }, 
	{ NOTE_DS6, 71 }, 
	{ NOTE_E6, 71 }, 
	{ NOTE_DS6, 71 }, 
	{ NOTE_E6, 71 }, 
	{ NOTE_DS6, 71 }, 
	{ NOTE_E6, 71 }, 
	{ NOTE_DS6, 71 }, 
	{ NOTE_E6, 71 }, 
	{ NOTE_DS6, 71 }, 
	{ NOTE_E6, 71 }, 
	{ NOTE_DS6, 71 }, 
	{ NOTE_E6, 71 }, 
	{ NOTE_DS6, 67 }, 
	{ NOTE_E6, 1132 }, 
	{ NOTE_E6, 71 }, 
	{ NOTE_DS6, 71 }, 
	{ NOTE_E6, 71 }, 
	{ NOTE_DS6, 71 }, 
	{ NOTE_E6, 71 }, 
	{ NOTE_DS6, 71 }, 
	{ NOTE_E6, 71 }, 
	{ NOTE_DS6, 71 }, 
	{ NOTE_REST, 283 }, 
	{ NOTE_E5, 281 }, 
	{ NOTE_B5, 283 }, 
	{ NOTE_A5, 142 }, 
	{ NOTE_GS5, 142 }, 
	{ NOTE_A5, 283 }, 
	{ NOTE_B5, 283 }, 
	{ NOTE_CS6, 283 }, 
	{ NOTE_B5, 566 }, 
	{ NOTE_E5, 282 }, 
	{ NOTE_B5, 283 }, 
	{ NOTE_A5, 142 }, 
	{ NOTE_GS5, 142 }, 
	{ NOTE_A5, 283 }, 
	{ NOTE_B5, 283 }, 
	{ NOTE_CS6, 283 }, 
	{ NOTE_B5, 566 }, 
	{ NOTE_E5, 282 }, 
	{ NOTE_CS6, 283 }, 
	{ NOTE_B5, 566 }, 
	{ NOTE_A5, 283 }, 
	{ NOTE_GS5, 283 }, 
	{ NOTE_FS5, 142 }, 
	{ NOTE_E5, 142 }, 
	{ NOTE_FS5, 71 }, 
	{ NOTE_E5, 71 }, 
	{ NOTE_FS5, 71 }, 
	{ NOTE_E5, 71 }, 
	{ NOTE_FS5, 71 }, 
	{ NOTE_E5, 71 }, 
	{ NOTE_FS5, 71 }, 
	{ NOTE_E5, 68 }, 
	{ NOTE_E5, 283 }, 
	{ NOTE_GS4, 142 }, 
	{ NOTE_A4, 142 }, 
	{ NOTE_B4, 142 }, 
	{ NOTE_A4, 142 }, 
	{ NOTE_B4, 142 }, 
	{ NOTE_A4, 142 }, 
	{ NOTE_GS4, 142 }, 
	{ NOTE_A4, 142 }, 
	{ NOTE_GS4, 142 }, 
	{ NOTE_A4, 142 }, 
	{ NOTE_B4, 142 }, 
	{ NOTE_A4, 142 }, 
	{ NOTE_B4, 142 }, 
	{ NOTE_A4, 135 }, 
	{ NOTE_GS4, 142 }, 
	{ NOTE_A4, 142 }, 
	{ NOTE_GS4, 142 }, 
	{ NOTE_A4, 142 }, 
	{ NOTE_B4, 142 }, 
	{ NOTE_A4, 142 }, 
	{ NOTE_B4, 142 }, 
	{ NOTE_A4, 142 }, 
	{ NOTE_GS4, 142 }, 
	{ NOTE_A4, 142 }, 
	{ NOTE_GS4, 142 }, 
	{ NOTE_A4, 142 }, 
	{ NOTE_B4, 142 }, 
	{ NOTE_CS5, 142 }, 
	{ NOTE_B4, 142 }, 
	{ NOTE_CS5, 134 }, 
	{ NOTE_DS5, 142 }, 
	{ NOTE_E5, 142 }, 
	{ NOTE_DS5, 142 }, 
	{ NOTE_E5, 142 }, 
	{ NOTE_FS5, 142 }, 
	{ NOTE_E5, 142 }, 
	{ NOTE_FS5, 142 }, 
	{ NOTE_E5, 142 }, 
	{ NOTE_DS5, 142 }, 
	{ NOTE_E5, 142 }, 
	{ NOTE_DS5, 142 }, 
	{ NOTE_E5, 142 }, 
	{ NOTE_FS5, 142 }, 
	{ NOTE_E5, 142 }, 
	{ NOTE_FS5, 142 }, 
	{ NOTE_E5, 134 }, 
	{ NOTE_DS5, 142 }, 
	{ NOTE_E5, 142 }, 
	{ NOTE_DS5, 142 }, 
	{ NOTE_E5, 142 }, 
	{ NOTE_FS5, 142 }, 
	{ NOTE_GS5, 142 }, 
	{ NOTE_FS5, 142 }, 
	{ NOTE_GS5, 142 }, 
	{ NOTE_A5, 142 }, 
	{ NOTE_GS5, 142 }, 
	{ NOTE_A5, 142 }, 
	{ NOTE_GS5, 142 }, 
	{ NOTE_FS5, 142 }, 
	{ NOTE_A5, 142 }, 
	{ NOTE_GS5, 142 }, 
	{ NOTE_FS5, 134 }, 
	{ NOTE_GS5, 283 }, 
	{ NOTE_FS5, 142 }, 
	{ NOTE_E5, 142 }, 
	{ NOTE_DS5, 142 }, 
	{ NOTE_CS5, 142 }, 
	{ NOTE_B4, 142 }, 
	{ NOTE_A4, 142 }, 
	{ NOTE_GS4, 142 }, 
	{ NOTE_A4, 142 }, 
	{ NOTE_GS4, 142 }, 
	{ NOTE_A4, 142 }, 
	{ NOTE_B4, 142 }, 
	{ NOTE_A4, 142 }, 
	{ NOTE_B4, 142 }, 
	{ NOTE_A4, 135 }, 
	{ NOTE_GS4, 142 }, 
	{ NOTE_A4, 142 }, 
	{ NOTE_GS4, 142 }, 
	{ NOTE_A4, 142 }, 
	{ NOTE_B4, 142 }, 
	{ NOTE_A4, 142 }, 
	{ NOTE_B4, 142 }, 
	{ NOTE_A4, 142 }, 
	{ NOTE_GS4, 142 }, 
	{ NOTE_A4, 142 }, 
	{ NOTE_GS4, 142 }, 
	{ NOTE_A4, 142 }, 
	{ NOTE_B4, 142 }, 
	{ NOTE_A4, 142 }, 
	{ NOTE_B4, 142 }, 
	{ NOTE_A4, 134 }, 
	{ NOTE_GS4, 566 }, 
	{ NOTE_REST, 283 }, 
	{ NOTE_GS5, 283 }, 
	{ NOTE_A5, 1132 }, 
	{ NOTE_GS5, 1132 }, 
	{ NOTE_FS5, 1132 }, 
	{ NOTE_GS5, 1132 }, 
	{ NOTE_A5, 1132 }, 
	{ NOTE_GS5, 1132 }, 
	{ NOTE_FS5, 566 }, 
	{ NOTE_REST, 283 }, 
	{ NOTE_B4, 283 }, 
	{ NOTE_FS5, 283 }, 
	{ NOTE_E5, 142 }, 
	{ NOTE_DS5, 142 }, 
	{ NOTE_E5, 283 }, 
	{ NOTE_FS5, 283 }, 
	{ NOTE_GS5, 283 }, 
	{ NOTE_FS5, 566 }, 
	{ NOTE_B4, 282 }, 
	{ NOTE_FS5, 283 }, 
	{ NOTE_E5, 142 }, 
	{ NOTE_DS5, 142 }, 
	{ NOTE_E5, 283 }, 
	{ NOTE_FS5, 283 }, 
	{ NOTE_GS5, 283 }, 
	{ NOTE_FS5, 566 }, 
	{ NOTE_B4, 282 }, 
	{ NOTE_GS5, 283 }, 
	{ NOTE_FS5, 566 }, 
	{ NOTE_E5, 283 }, 
	{ NOTE_DS5, 283 }, 
	{ NOTE_CS5, 142 }, 
	{ NOTE_B4, 142 }, 
	{ NOTE_CS5, 71 }, 
	{ NOTE_B4, 71 }, 
	{ NOTE_CS5, 71 }, 
	{ NOTE_B4, 71 }, 
	{ NOTE_CS5, 71 }, 
	{ NOTE_B4, 71 }, 
	{ NOTE_CS5, 71 }, 
	{ NOTE_B4, 68 }, 
	{ NOTE_B4, 142 }, 
	{ NOTE_B3, 71 }, 
	{ NOTE_B3, 71 }, 
	{ NOTE_B3, 71 }, 
	{ NOTE_B3, 71 }, 
	{ NOTE_B3, 71 }, 
	{ NOTE_B3, 71 }, 
	{ NOTE_B3, 71 }, 
	{ NOTE_B3, 71 }, 
	{ NOTE_B3, 71 }, 
	{ NOTE_B3, 71 }, 
	{ NOTE_B3, 71 }, 
	{ NOTE_B3, 71 }, 
	{ NOTE_B3, 71 }, 
	{ NOTE_B3, 71 }, 
	{ NOTE_B3, 71 }, 
	{ NOTE_B3, 71 }, 
	{ NOTE_B3, 71 }, 
	{ NOTE_B3, 71 }, 
	{ NOTE_B3, 71 }, 
	{ NOTE_B3, 71 }, 
	{ NOTE_B3, 71 }, 
	{ NOTE_B3, 71 }, 
	{ NOTE_B3, 71 }, 
	{ NOTE_B3, 71 }, 
	{ NOTE_B3, 71 }, 
	{ NOTE_B3, 71 }, 
	{ NOTE_B3, 71 }, 
	{ NOTE_B3, 71 }, 
	{ NOTE_B3, 71 }, 
	{ NOTE_B3, 63 }, 
	{ NOTE_B4, 71 }, 
	{ NOTE_CS5, 71 }, 
	{ NOTE_DS5, 71 }, 
	{ NOTE_E5, 71 }, 
	{ NOTE_FS5, 71 }, 
	{ NOTE_GS5, 71 }, 
	{ NOTE_A5, 71 }, 
	{ NOTE_B5, 71 }, 
	{ NOTE_REST, 566 }, 
	{ NOTE_B4, 71 }, 
	{ NOTE_CS5, 71 }, 
	{ NOTE_DS5, 71 }, 
	{ NOTE_E5, 71 }, 
	{ NOTE_FS5, 71 }, 
	{ NOTE_GS5, 71 }, 
	{ NOTE_A5, 71 }, 
	{ NOTE_B5, 71 }, 
	{ NOTE_REST, 562 }, 
	{ NOTE_B3, 71 }, 
	{ NOTE_B3, 71 }, 
	{ NOTE_B3, 71 }, 
	{ NOTE_B3, 71 }, 
	{ NOTE_B3, 71 }, 
	{ NOTE_B3, 71 }, 
	{ NOTE_B3, 71 }, 
	{ NOTE_B3, 71 }, 
	{ NOTE_B3, 71 }, 
	{ NOTE_B3, 71 }, 
	{ NOTE_B3, 71 }, 
	{ NOTE_B3, 71 }, 
	{ NOTE_B3, 71 }, 
	{ NOTE_B3, 71 }, 
	{ NOTE_B3, 71 }, 
	{ NOTE_B3, 71 }, 
	{ NOTE_B3, 71 }, 
	{ NOTE_B3, 71 }, 
	{ NOTE_B3, 71 }, 
	{ NOTE_B3, 71 }, 
	{ NOTE_B3, 71 }, 
	{ NOTE_B3, 71 }, 
	{ NOTE_B3, 71 }, 
	{ NOTE_B3, 71 }, 
	{ NOTE_B3, 71 }, 
	{ NOTE_B3, 71 }, 
	{ NOTE_B3, 71 }, 
	{ NOTE_B3, 71 }, 
	{ NOTE_B3, 71 }, 
	{ NOTE_B3, 71 }, 
	{ NOTE_B3, 71 }, 
	{ NOTE_B3, 63 }, 
	{ NOTE_GS3, 566 }, 
	{ NOTE_REST, 566 }, 
	{ NOTE_REST, 1132 }, 
	{ NOTE_A3, 71 }, 
	{ NOTE_A3, 71 }, 
	{ NOTE_A3, 71 }, 
	{ NOTE_A3, 71 }, 
	{ NOTE_A3, 71 }, 
	{ NOTE_A3, 71 }, 
	{ NOTE_A3, 71 }, 
	{ NOTE_A3, 71 }, 
	{ NOTE_A3, 71 }, 
	{ NOTE_A3, 71 }, 
	{ NOTE_A3, 71 }, 
	{ NOTE_A3, 71 }, 
	{ NOTE_A3, 71 }, 
	{ NOTE_A3, 71 }, 
	{ NOTE_A3, 71 }, 
	{ NOTE_A3, 71 }, 
	{ NOTE_AS3, 566 }, 
	{ NOTE_REST, 562 }, 
	{ NOTE_REST, 1132 }, 
	{ NOTE_B3, 71 }, 
	{ NOTE_B3, 71 }, 
	{ NOTE_B3, 71 }, 
	{ NOTE_B3, 71 }, 
	{ NOTE_B3, 71 }, 
	{ NOTE_B3, 71 }, 
	{ NOTE_B3, 71 }, 
	{ NOTE_B3, 71 }, 
	{ NOTE_B3, 71 }, 
	{ NOTE_B3, 71 }, 
	{ NOTE_B3, 71 }, 
	{ NOTE_B3, 71 }, 
	{ NOTE_B3, 71 }, 
	{ NOTE_B3, 71 }, 
	{ NOTE_B3, 71 }, 
	{ NOTE_B3, 67 }, 
	{ NOTE_C3, 566 }, 
	{ NOTE_REST, 566 }, 
	{ NOTE_REST, 1132 }, 
	{ NOTE_CS4, 71 }, 
	{ NOTE_CS4, 71 }, 
	{ NOTE_CS4, 71 }, 
	{ NOTE_CS4, 71 }, 
	{ NOTE_CS4, 71 }, 
	{ NOTE_CS4, 71 }, 
	{ NOTE_CS4, 71 }, 
	{ NOTE_CS4, 71 }, 
	{ NOTE_CS4, 71 }, 
	{ NOTE_CS4, 71 }, 
	{ NOTE_CS4, 71 }, 
	{ NOTE_CS4, 71 }, 
	{ NOTE_CS4, 71 }, 
	{ NOTE_CS4, 71 }, 
	{ NOTE_CS4, 71 }, 
	{ NOTE_CS4, 71 }, 
	{ NOTE_CS4, 566 }, 
	{ NOTE_REST, 562 }, 
	{ NOTE_B3, 71 }, 
	{ NOTE_B3, 71 }, 
	{ NOTE_B3, 71 }, 
	{ NOTE_B3, 71 }, 
	{ NOTE_B3, 71 }, 
	{ NOTE_B3, 71 }, 
	{ NOTE_B3, 71 }, 
	{ NOTE_B3, 71 }, 
	{ NOTE_B3, 71 }, 
	{ NOTE_B3, 71 }, 
	{ NOTE_B3, 71 }, 
	{ NOTE_B3, 71 }, 
	{ NOTE_B3, 71 }, 
	{ NOTE_B3, 71 }, 
	{ NOTE_B3, 71 }, 
	{ NOTE_B3, 71 }, 
	{ NOTE_A3, 566 }, 
	{ NOTE_REST, 562 }, 
	{ NOTE_GS4, 71 }, 
	{ NOTE_GS4, 71 }, 
	{ NOTE_GS4, 71 }, 
	{ NOTE_GS4, 71 }, 
	{ NOTE_GS4, 71 }, 
	{ NOTE_GS4, 71 }, 
	{ NOTE_GS4, 71 }, 
	{ NOTE_GS4, 71 }, 
	{ NOTE_GS4, 71 }, 
	{ NOTE_GS4, 71 }, 
	{ NOTE_GS4, 71 }, 
	{ NOTE_GS4, 71 }, 
	{ NOTE_GS4, 71 }, 
	{ NOTE_GS4, 71 }, 
	{ NOTE_GS4, 71 }, 
	{ NOTE_GS4, 71 }, 
	{ NOTE_FS4, 566 }, 
	{ NOTE_REST, 562 }, 
	{ NOTE_E4, 71 }, 
	{ NOTE_E4, 71 }, 
	{ NOTE_E4, 71 }, 
	{ NOTE_E4, 71 }, 
	{ NOTE_E4, 71 }, 
	{ NOTE_E4, 71 }, 
	{ NOTE_E4, 71 }, 
	{ NOTE_E4, 71 }, 
	{ NOTE_CS4, 71 }, 
	{ NOTE_CS4, 71 }, 
	{ NOTE_CS4, 71 }, 
	{ NOTE_CS4, 71 }, 
	{ NOTE_CS4, 71 }, 
	{ NOTE_CS4, 71 }, 
	{ NOTE_CS4, 71 }, 
	{ NOTE_CS4, 71 }, 
	{ NOTE_GS3, 71 }, 
	{ NOTE_GS3, 71 }, 
	{ NOTE_GS3, 71 }, 
	{ NOTE_GS3, 71 }, 
	{ NOTE_GS3, 71 }, 
	{ NOTE_GS3, 71 }, 
	{ NOTE_GS3, 71 }, 
	{ NOTE_GS3, 71 }, 
	{ NOTE_GS3, 71 }, 
	{ NOTE_GS3, 71 }, 
	{ NOTE_GS3, 71 }, 
	{ NOTE_GS3, 71 }, 
	{ NOTE_GS3, 71 }, 
	{ NOTE_GS3, 71 }, 
	{ NOTE_GS3, 71 }, 
	{ NOTE_GS3, 63 }, 
	{ NOTE_GS3, 71 }, 
	{ NOTE_GS3, 71 }, 
	{ NOTE_GS3, 71 }, 
	{ NOTE_GS3, 71 }, 
	{ NOTE_GS3, 71 }, 
	{ NOTE_GS3, 71 }, 
	{ NOTE_GS3, 71 }, 
	{ NOTE_GS3, 71 }, 
	{ NOTE_GS3, 71 }, 
	{ NOTE_GS3, 71 }, 
	{ NOTE_GS3, 71 }, 
	{ NOTE_GS3, 71 }, 
	{ NOTE_GS3, 71 }, 
	{ NOTE_GS3, 71 }, 
	{ NOTE_GS3, 71 }, 
	{ NOTE_GS3, 71 }, 
	{ NOTE_CS4, 566 }, 
	{ NOTE_REST, 283 }, 
	{ NOTE_CS5, 279 }, 
	{ NOTE_GS5, 283 }, 
	{ NOTE_FS5, 142 }, 
	{ NOTE_E5, 142 }, 
	{ NOTE_FS5, 283 }, 
	{ NOTE_GS5, 283 }, 
	{ NOTE_A5, 283 }, 
	{ NOTE_GS5, 566 }, 
	{ NOTE_CS5, 282 }, 
	{ NOTE_GS5, 283 }, 
	{ NOTE_FS5, 142 }, 
	{ NOTE_E5, 142 }, 
	{ NOTE_FS5, 283 }, 
	{ NOTE_GS5, 283 }, 
	{ NOTE_A5, 283 }, 
	{ NOTE_GS5, 566 }, 
	{ NOTE_CS5, 282 }, 
	{ NOTE_A5, 283 }, 
	{ NOTE_GS5, 566 }, 
	{ NOTE_FS5, 283 }, 
	{ NOTE_E5, 283 }, 
	{ NOTE_DS5, 142 }, 
	{ NOTE_CS5, 142 }, 
	{ NOTE_DS5, 71 }, 
	{ NOTE_CS5, 71 }, 
	{ NOTE_DS5, 71 }, 
	{ NOTE_CS5, 71 }, 
	{ NOTE_DS5, 71 }, 
	{ NOTE_CS5, 71 }, 
	{ NOTE_DS5, 71 }, 
	{ NOTE_CS5, 68 }, 
	{ NOTE_CS5, 283 }, 
	{ NOTE_GS5, 283 }, 
	{ NOTE_GS5, 283 }, 
	{ NOTE_GS5, 283 }, 
	{ NOTE_GS5, 283 }, 
	{ NOTE_GS5, 283 }, 
	{ NOTE_GS5, 283 }, 
	{ NOTE_GS5, 283 }, 
	{ NOTE_A5, 283 }, 
	{ NOTE_A5, 283 }, 
	{ NOTE_AS5, 283 }, 
	{ NOTE_AS5, 283 }, 
	{ NOTE_B5, 283 }, 
	{ NOTE_B5, 283 }, 
	{ NOTE_C5, 283 }, 
	{ NOTE_C5, 283 }, 
	{ NOTE_CS6, 71 }, 
	{ NOTE_B5, 71 }, 
	{ NOTE_CS6, 71 }, 
	{ NOTE_B5, 71 }, 
	{ NOTE_CS6, 71 }, 
	{ NOTE_B5, 71 }, 
	{ NOTE_CS6, 71 }, 
	{ NOTE_B5, 71 }, 
	{ NOTE_CS6, 71 }, 
	{ NOTE_B5, 71 }, 
	{ NOTE_CS6, 71 }, 
	{ NOTE_B5, 71 }, 
	{ NOTE_CS6, 71 }, 
	{ NOTE_B5, 71 }, 
	{ NOTE_CS6, 71 }, 
	{ NOTE_B5, 71 }, 
	{ NOTE_CS6, 71 }, 
	{ NOTE_B5, 71 }, 
	{ NOTE_CS6, 71 }, 
	{ NOTE_B5, 71 }, 
	{ NOTE_CS6, 71 }, 
	{ NOTE_B5, 71 }, 
	{ NOTE_CS6, 71 }, 
	{ NOTE_B5, 71 }, 
	{ NOTE_CS6, 71 }, 
	{ NOTE_B5, 71 }, 
	{ NOTE_CS6, 71 }, 
	{ NOTE_B5, 71 }, 
	{ NOTE_CS6, 71 }, 
	{ NOTE_B5, 71 }, 
	{ NOTE_CS6, 71 }, 
	{ NOTE_B5, 63 }, 
	{ NOTE_CS6, 71 }, 
	{ NOTE_B5, 71 }, 
	{ NOTE_CS6, 71 }, 
	{ NOTE_B5, 71 }, 
	{ NOTE_CS6, 71 }, 
	{ NOTE_B5, 71 }, 
	{ NOTE_CS6, 71 }, 
	{ NOTE_B5, 71 }, 
	{ NOTE_CS6, 71 }, 
	{ NOTE_B5, 71 }, 
	{ NOTE_CS6, 71 }, 
	{ NOTE_B5, 71 }, 
	{ NOTE_CS6, 71 }, 
	{ NOTE_B5, 71 }, 
	{ NOTE_CS6, 71 }, 
	{ NOTE_B5, 71 }, 
	{ NOTE_CS6, 71 }, 
	{ NOTE_B5, 71 }, 
	{ NOTE_CS6, 71 }, 
	{ NOTE_B5, 71 }, 
	{ NOTE_CS6, 71 }, 
	{ NOTE_B5, 71 }, 
	{ NOTE_CS6, 71 }, 
	{ NOTE_B5, 71 }, 
	{ NOTE_CS6, 71 }, 
	{ NOTE_B5, 71 }, 
	{ NOTE_CS6, 71 }, 
	{ NOTE_B5, 71 }, 
	{ NOTE_CS6, 71 }, 
	{ NOTE_B5, 71 }, 
	{ NOTE_CS6, 71 }, 
	{ NOTE_B5, 63 }, 
	{ NOTE_GS5, 708 }, 
	{ NOTE_A5, 142 }, 
	{ NOTE_GS5, 142 }, 
	{ NOTE_A5, 142 }, 
	{ NOTE_GS5, 708 }, 
	{ NOTE_A5, 142 }, 
	{ NOTE_GS5, 142 }, 
	{ NOTE_A5, 138 }, 
	{ NOTE_GS5, 71 }, 
	{ NOTE_FS5, 71 }, 
	{ NOTE_GS5, 71 }, 
	{ NOTE_FS5, 71 }, 
	{ NOTE_GS5, 71 }, 
	{ NOTE_FS5, 71 }, 
	{ NOTE_GS5, 71 }, 
	{ NOTE_FS5, 71 }, 
	{ NOTE_GS5, 71 }, 
	{ NOTE_FS5, 71 }, 
	{ NOTE_GS5, 71 }, 
	{ NOTE_FS5, 71 }, 
	{ NOTE_GS5, 71 }, 
	{ NOTE_FS5, 71 }, 
	{ NOTE_GS5, 71 }, 
	{ NOTE_FS5, 71 }, 
	{ NOTE_GS5, 142 }, 
	{ NOTE_A5, 142 }, 
	{ NOTE_GS5, 142 }, 
	{ NOTE_A5, 142 }, 
	{ NOTE_GS5, 142 }, 
	{ NOTE_A5, 142 }, 
	{ NOTE_GS5, 142 }, 
	{ NOTE_A5, 134 }, 
	{ NOTE_GS5, 71 }, 
	{ NOTE_FS5, 71 }, 
	{ NOTE_GS5, 71 }, 
	{ NOTE_FS5, 71 }, 
	{ NOTE_GS5, 71 }, 
	{ NOTE_FS5, 71 }, 
	{ NOTE_GS5, 71 }, 
	{ NOTE_FS5, 71 }, 
	{ NOTE_GS5, 71 }, 
	{ NOTE_FS5, 71 }, 
	{ NOTE_GS5, 71 }, 
	{ NOTE_FS5, 71 }, 
	{ NOTE_GS5, 71 }, 
	{ NOTE_FS5, 71 }, 
	{ NOTE_GS5, 71 }, 
	{ NOTE_FS5, 71 }, 
	{ NOTE_GS5, 71 }, 
	{ NOTE_A5, 71 }, 
	{ NOTE_GS5, 71 }, 
	{ NOTE_A5, 71 }, 
	{ NOTE_GS5, 71 }, 
	{ NOTE_A5, 71 }, 
	{ NOTE_GS5, 71 }, 
	{ NOTE_A5, 71 }, 
	{ NOTE_GS5, 71 }, 
	{ NOTE_A5, 71 }, 
	{ NOTE_GS5, 71 }, 
	{ NOTE_A5, 71 }, 
	{ NOTE_GS5, 71 }, 
	{ NOTE_A5, 71 }, 
	{ NOTE_GS5, 71 }, 
	{ NOTE_A5, 63 }, 
	{ NOTE_GS5, 283 }, 
	{ NOTE_GS5, 283 }, 
	{ NOTE_GS5, 283 }, 
	{ NOTE_FS5, 142 }, 
	{ NOTE_GS5, 142 }, 
	{ NOTE_A5, 849 }, 
	{ NOTE_A5, 142 }, 
	{ NOTE_GS5, 140 }, 
	{ NOTE_FS5, 283 }, 
	{ NOTE_FS5, 283 }, 
	{ NOTE_FS5, 283 }, 
	{ NOTE_E5, 142 }, 
	{ NOTE_FS5, 142 }, 
	{ NOTE_GS5, 849 }, 
	{ NOTE_GS5, 142 }, 
	{ NOTE_A5, 140 }, 
	{ NOTE_B5, 283 }, 
	{ NOTE_B5, 283 }, 
	{ NOTE_B5, 283 }, 
	{ NOTE_B5, 142 }, 
	{ NOTE_A5, 142 }, 
	{ NOTE_GS5, 283 }, 
	{ NOTE_GS5, 283 }, 
	{ NOTE_GS5, 283 }, 
	{ NOTE_GS5, 142 }, 
	{ NOTE_A5, 140 }, 
	{ NOTE_B5, 283 }, 
	{ NOTE_B5, 283 }, 
	{ NOTE_B5, 283 }, 
	{ NOTE_B5, 142 }, 
	{ NOTE_A5, 142 }, 
	{ NOTE_GS5, 283 }, 
	{ NOTE_GS5, 283 }, 
	{ NOTE_GS5, 283 }, 
	{ NOTE_GS5, 142 }, 
	{ NOTE_A5, 140 }, 
	{ NOTE_B5, 283 }, 
	{ NOTE_B5, 283 }, 
	{ NOTE_B5, 283 }, 
	{ NOTE_A5, 142 }, 
	{ NOTE_GS5, 142 }, 
	{ NOTE_FS5, 142 }, 
	{ NOTE_B4, 142 }, 
	{ NOTE_CS5, 142 }, 
	{ NOTE_B4, 142 }, 
	{ NOTE_DS5, 142 }, 
	{ NOTE_CS5, 142 }, 
	{ NOTE_E5, 142 }, 
	{ NOTE_DS5, 137 }, 
	{ NOTE_FS5, 142 }, 
	{ NOTE_E5, 142 }, 
	{ NOTE_GS5, 142 }, 
	{ NOTE_FS5, 142 }, 
	{ NOTE_A5, 142 }, 
	{ NOTE_GS5, 142 }, 
	{ NOTE_B5, 142 }, 
	{ NOTE_A5, 142 }, 
	{ NOTE_B4, 142 }, 
	{ NOTE_A4, 142 }, 
	{ NOTE_CS5, 142 }, 
	{ NOTE_B4, 142 }, 
	{ NOTE_DS5, 142 }, 
	{ NOTE_CS5, 142 }, 
	{ NOTE_E5, 142 }, 
	{ NOTE_DS5, 134 }, 
	{ NOTE_FS5, 142 }, 
	{ NOTE_E5, 142 }, 
	{ NOTE_GS5, 142 }, 
	{ NOTE_FS5, 142 }, 
	{ NOTE_A5, 142 }, 
	{ NOTE_GS5, 142 }, 
	{ NOTE_B5, 142 }, 
	{ NOTE_A5, 142 }, 
	{ NOTE_REST, 142 }, 
	{ NOTE_REST, 142 }, 
	{ NOTE_REST, 142 }, 
	{ NOTE_REST, 142 }, 
	{ NOTE_REST, 142 }, 
	{ NOTE_REST, 142 }, 
	{ NOTE_REST, 142 }, 
	{ NOTE_REST, 134 }, 
	{ NOTE_REST, 2264 }, 
	{ NOTE_REST, 2264 }, 
	{ NOTE_REST, 2264 }, 
	{ NOTE_B5, 283 }, 
	{ NOTE_A5, 283 }, 
	{ NOTE_GS5, 283 }, 
	{ NOTE_A5, 142 }, 
	{ NOTE_B5, 142 }, 
	{ NOTE_CS6, 283 }, 
	{ NOTE_B5, 566 }, 
	{ NOTE_E5, 282 }, 
	{ NOTE_B5, 283 }, 
	{ NOTE_A5, 142 }, 
	{ NOTE_GS5, 142 }, 
	{ NOTE_A5, 283 }, 
	{ NOTE_B5, 283 }, 
	{ NOTE_CS6, 283 }, 
	{ NOTE_B5, 566 }, 
	{ NOTE_E5, 282 }, 
	{ NOTE_CS6, 283 }, 
	{ NOTE_B5, 566 }, 
	{ NOTE_A5, 283 }, 
	{ NOTE_GS5, 283 }, 
	{ NOTE_FS5, 142 }, 
	{ NOTE_E5, 142 }, 
	{ NOTE_FS5, 71 }, 
	{ NOTE_E5, 71 }, 
	{ NOTE_FS5, 71 }, 
	{ NOTE_E5, 71 }, 
	{ NOTE_FS5, 71 }, 
	{ NOTE_E5, 71 }, 
	{ NOTE_FS5, 71 }, 
	{ NOTE_E5, 68 }, 
	{ NOTE_E5, 566 }, 
	{ NOTE_REST, 283 }, 
	{ NOTE_E5, 283 }, 
	{ NOTE_B5, 283 }, 
	{ NOTE_A5, 142 }, 
	{ NOTE_GS5, 142 }, 
	{ NOTE_A5, 283 }, 
	{ NOTE_B5, 282 }, 
	{ NOTE_CS6, 283 }, 
	{ NOTE_B5, 566 }, 
	{ NOTE_E5, 283 }, 
	{ NOTE_B5, 283 }, 
	{ NOTE_A5, 142 }, 
	{ NOTE_GS5, 142 }, 
	{ NOTE_A5, 283 }, 
	{ NOTE_B5, 282 }, 
	{ NOTE_CS6, 283 }, 
	{ NOTE_B5, 566 }, 
	{ NOTE_E5, 283 }, 
	{ NOTE_CS6, 283 }, 
	{ NOTE_B5, 566 }, 
	{ NOTE_A5, 283 }, 
	{ NOTE_GS5, 283 }, 
	{ NOTE_FS5, 142 }, 
	{ NOTE_E5, 142 }, 
	{ NOTE_FS5, 71 }, 
	{ NOTE_E5, 71 }, 
	{ NOTE_FS5, 71 }, 
	{ NOTE_E5, 71 }, 
	{ NOTE_FS5, 71 }, 
	{ NOTE_E5, 71 }, 
	{ NOTE_FS5, 71 }, 
	{ NOTE_E5, 71 }, 
	{ NOTE_E5, 1129 }, 
};
const uint16_t NUM_OF_NOTES1 = sizeof(melody1)/sizeof(melody1[0]);

const Note melody2[] PROGMEM = {
	{ NOTE_REST, 2264 }, 
	{ NOTE_E5, 283 }, 
	{ NOTE_E5, 283 }, 
	{ NOTE_E5, 283 }, 
	{ NOTE_E5, 283 }, 
	{ NOTE_GS5, 849 }, 
	{ NOTE_GS5, 142 }, 
	{ NOTE_FS5, 141 }, 
	{ NOTE_E5, 283 }, 
	{ NOTE_E5, 283 }, 
	{ NOTE_E5, 283 }, 
	{ NOTE_E5, 283 }, 
	{ NOTE_GS5, 849 }, 
	{ NOTE_GS5, 142 }, 
	{ NOTE_FS5, 141 }, 
	{ NOTE_E5, 283 }, 
	{ NOTE_FS5, 142 }, 
	{ NOTE_GS5, 142 }, 
	{ NOTE_FS5, 283 }, 
	{ NOTE_E5, 283 }, 
	{ NOTE_DS5, 566 }, 
	{ NOTE_REST, 283 }, 
	{ NOTE_B4, 282 }, 
	{ NOTE_E5, 283 }, 
	{ NOTE_E5, 283 }, 
	{ NOTE_E5, 283 }, 
	{ NOTE_E5, 283 }, 
	{ NOTE_GS5, 849 }, 
	{ NOTE_GS5, 142 }, 
	{ NOTE_FS5, 141 }, 
	{ NOTE_E5, 283 }, 
	{ NOTE_E5, 283 }, 
	{ NOTE_E5, 283 }, 
	{ NOTE_E5, 283 }, 
	{ NOTE_GS5, 849 }, 
	{ NOTE_GS5, 142 }, 
	{ NOTE_FS5, 141 }, 
	{ NOTE_E5, 283 }, 
	{ NOTE_FS5, 142 }, 
	{ NOTE_GS5, 142 }, 
	{ NOTE_FS5, 283 }, 
	{ NOTE_E5, 283 }, 
	{ NOTE_DS5, 566 }, 
	{ NOTE_REST, 283 }, 
	{ NOTE_GS5, 282 }, 
	{ NOTE_GS5, 283 }, 
	{ NOTE_FS5, 142 }, 
	{ NOTE_E5, 142 }, 
	{ NOTE_FS5, 283 }, 
	{ NOTE_GS5, 283 }, 
	{ NOTE_A5, 283 }, 
	{ NOTE_GS5, 566 }, 
	{ NOTE_GS5, 282 }, 
	{ NOTE_GS5, 283 }, 
	{ NOTE_FS5, 142 }, 
	{ NOTE_E5, 142 }, 
	{ NOTE_FS5, 283 }, 
	{ NOTE_GS5, 283 }, 
	{ NOTE_A5, 283 }, 
	{ NOTE_GS5, 566 }, 
	{ NOTE_GS5, 282 }, 
	{ NOTE_A5, 283 }, 
	{ NOTE_GS5, 566 }, 
	{ NOTE_FS5, 283 }, 
	{ NOTE_E5, 566 }, 
	{ NOTE_DS5, 566 }, 
	{ NOTE_E5, 566 }, 
	{ NOTE_REST, 283 }, 
	{ NOTE_GS5, 283 }, 
	{ NOTE_GS5, 283 }, 
	{ NOTE_FS5, 142 }, 
	{ NOTE_E5, 142 }, 
	{ NOTE_FS5, 283 }, 
	{ NOTE_GS5, 282 }, 
	{ NOTE_A5, 283 }, 
	{ NOTE_GS5, 566 }, 
	{ NOTE_GS5, 283 }, 
	{ NOTE_GS5, 283 }, 
	{ NOTE_FS5, 142 }, 
	{ NOTE_E5, 142 }, 
	{ NOTE_FS5, 283 }, 
	{ NOTE_GS5, 282 }, 
	{ NOTE_A5, 283 }, 
	{ NOTE_GS5, 566 }, 
	{ NOTE_GS5, 283 }, 
	{ NOTE_A5, 283 }, 
	{ NOTE_GS5, 566 }, 
	{ NOTE_FS5, 283 }, 
	{ NOTE_E5, 566 }, 
	{ NOTE_DS5, 566 }, 
	{ NOTE_E5, 566 }, 
	{ NOTE_REST, 566 }, 
	{ NOTE_REST, 2264 }, 
	{ NOTE_REST, 1132 }, 
	{ NOTE_B5, 566 }, 
	{ NOTE_B5, 566 }, 
	{ NOTE_B5, 566 }, 
	{ NOTE_B5, 566 }, 
	{ NOTE_B5, 566 }, 
	{ NOTE_B5, 566 }, 
	{ NOTE_B5, 283 }, 
	{ NOTE_B5, 283 }, 
	{ NOTE_B5, 283 }, 
	{ NOTE_B5, 283 }, 
	{ NOTE_B5, 283 }, 
	{ NOTE_B5, 283 }, 
	{ NOTE_B5, 283 }, 
	{ NOTE_B5, 283 }, 
	{ NOTE_REST, 283 }, 
	{ NOTE_B5, 71 }, 
	{ NOTE_A5, 71 }, 
	{ NOTE_GS5, 71 }, 
	{ NOTE_FS5, 71 }, 
	{ NOTE_E5, 566 }, 
	{ NOTE_REST, 283 }, 
	{ NOTE_B5, 71 }, 
	{ NOTE_A5, 71 }, 
	{ NOTE_GS5, 71 }, 
	{ NOTE_FS5, 71 }, 
	{ NOTE_E5, 564 }, 
	{ NOTE_REST, 1132 }, 
	{ NOTE_GS5, 425 }, 
	{ NOTE_A5, 142 }, 
	{ NOTE_GS5, 425 }, 
	{ NOTE_A5, 140 }, 
	{ NOTE_GS5, 425 }, 
	{ NOTE_A5, 142 }, 
	{ NOTE_GS5, 425 }, 
	{ NOTE_A5, 142 }, 
	{ NOTE_GS5, 142 }, 
	{ NOTE_A5, 142 }, 
	{ NOTE_GS5, 142 }, 
	{ NOTE_A5, 142 }, 
	{ NOTE_GS5, 142 }, 
	{ NOTE_A5, 142 }, 
	{ NOTE_GS5, 142 }, 
	{ NOTE_A5, 136 }, 
	{ NOTE_GS5, 71 }, 
	{ NOTE_A5, 71 }, 
	{ NOTE_GS5, 71 }, 
	{ NOTE_A5, 71 }, 
	{ NOTE_GS5, 71 }, 
	{ NOTE_A5, 71 }, 
	{ NOTE_GS5, 71 }, 
	{ NOTE_A5, 71 }, 
	{ NOTE_GS5, 71 }, 
	{ NOTE_A5, 71 }, 
	{ NOTE_GS5, 71 }, 
	{ NOTE_A5, 71 }, 
	{ NOTE_GS5, 71 }, 
	{ NOTE_A5, 71 }, 
	{ NOTE_GS5, 71 }, 
	{ NOTE_A5, 71 }, 
	{ NOTE_GS5, 71 }, 
	{ NOTE_FS5, 71 }, 
	{ NOTE_GS5, 71 }, 
	{ NOTE_FS5, 71 }, 
	{ NOTE_GS5, 71 }, 
	{ NOTE_FS5, 71 }, 
	{ NOTE_GS5, 71 }, 
	{ NOTE_FS5, 71 }, 
	{ NOTE_REST, 560 }, 
	{ NOTE_GS5, 71 }, 
	{ NOTE_FS5, 71 }, 
	{ NOTE_GS5, 71 }, 
	{ NOTE_FS5, 71 }, 
	{ NOTE_GS5, 71 }, 
	{ NOTE_FS5, 71 }, 
	{ NOTE_GS5, 71 }, 
	{ NOTE_FS5, 71 }, 
	{ NOTE_REST, 566 }, 
	{ NOTE_GS5, 71 }, 
	{ NOTE_FS5, 71 }, 
	{ NOTE_GS5, 71 }, 
	{ NOTE_FS5, 71 }, 
	{ NOTE_GS5, 71 }, 
	{ NOTE_FS5, 71 }, 
	{ NOTE_GS5, 71 }, 
	{ NOTE_FS5, 71 }, 
	{ NOTE_REST, 562 }, 
	{ NOTE_GS5, 71 }, 
	{ NOTE_FS5, 71 }, 
	{ NOTE_GS5, 71 }, 
	{ NOTE_FS5, 71 }, 
	{ NOTE_GS5, 71 }, 
	{ NOTE_FS5, 71 }, 
	{ NOTE_GS5, 71 }, 
	{ NOTE_FS5, 71 }, 
	{ NOTE_REST, 566 }, 
	{ NOTE_GS5, 71 }, 
	{ NOTE_FS5, 71 }, 
	{ NOTE_GS5, 71 }, 
	{ NOTE_FS5, 71 }, 
	{ NOTE_GS5, 71 }, 
	{ NOTE_FS5, 71 }, 
	{ NOTE_GS5, 71 }, 
	{ NOTE_FS5, 71 }, 
	{ NOTE_REST, 562 }, 
	{ NOTE_GS5, 71 }, 
	{ NOTE_FS5, 71 }, 
	{ NOTE_GS5, 71 }, 
	{ NOTE_FS5, 71 }, 
	{ NOTE_GS5, 71 }, 
	{ NOTE_FS5, 71 }, 
	{ NOTE_GS5, 71 }, 
	{ NOTE_FS5, 71 }, 
	{ NOTE_REST, 566 }, 
	{ NOTE_GS5, 71 }, 
	{ NOTE_FS5, 71 }, 
	{ NOTE_GS5, 71 }, 
	{ NOTE_FS5, 71 }, 
	{ NOTE_GS5, 71 }, 
	{ NOTE_FS5, 71 }, 
	{ NOTE_GS5, 71 }, 
	{ NOTE_FS5, 71 }, 
	{ NOTE_REST, 562 }, 
	{ NOTE_GS5, 71 }, 
	{ NOTE_FS5, 71 }, 
	{ NOTE_GS5, 71 }, 
	{ NOTE_FS5, 71 }, 
	{ NOTE_GS5, 71 }, 
	{ NOTE_FS5, 71 }, 
	{ NOTE_GS5, 71 }, 
	{ NOTE_FS5, 71 }, 
	{ NOTE_REST, 566 }, 
	{ NOTE_E5, 708 }, 
	{ NOTE_B5, 142 }, 
	{ NOTE_E5, 142 }, 
	{ NOTE_FS5, 138 }, 
	{ NOTE_E5, 708 }, 
	{ NOTE_B5, 142 }, 
	{ NOTE_E5, 142 }, 
	{ NOTE_FS5, 142 }, 
	{ NOTE_E5, 142 }, 
	{ NOTE_B5, 142 }, 
	{ NOTE_E5, 142 }, 
	{ NOTE_FS5, 142 }, 
	{ NOTE_E5, 142 }, 
	{ NOTE_B5, 142 }, 
	{ NOTE_E5, 142 }, 
	{ NOTE_FS5, 136 }, 
	{ NOTE_E5, 142 }, 
	{ NOTE_B5, 142 }, 
	{ NOTE_E5, 142 }, 
	{ NOTE_FS5, 142 }, 
	{ NOTE_E5, 142 }, 
	{ NOTE_B5, 142 }, 
	{ NOTE_E5, 142 }, 
	{ NOTE_FS5, 142 }, 
	{ NOTE_E5, 566 }, 
	{ NOTE_REST, 283 }, 
	{ NOTE_E5, 279 }, 
	{ NOTE_GS5, 283 }, 
	{ NOTE_FS5, 142 }, 
	{ NOTE_E5, 142 }, 
	{ NOTE_FS5, 283 }, 
	{ NOTE_GS5, 283 }, 
	{ NOTE_A5, 283 }, 
	{ NOTE_GS5, 566 }, 
	{ NOTE_GS5, 282 }, 
	{ NOTE_GS5, 283 }, 
	{ NOTE_FS5, 142 }, 
	{ NOTE_E5, 142 }, 
	{ NOTE_FS5, 283 }, 
	{ NOTE_GS5, 283 }, 
	{ NOTE_A5, 283 }, 
	{ NOTE_GS5, 566 }, 
	{ NOTE_GS5, 282 }, 
	{ NOTE_A5, 283 }, 
	{ NOTE_GS5, 566 }, 
	{ NOTE_FS5, 283 }, 
	{ NOTE_E5, 566 }, 
	{ NOTE_DS5, 566 }, 
	{ NOTE_E5, 283 }, 
	{ NOTE_E4, 142 }, 
	{ NOTE_FS4, 142 }, 
	{ NOTE_GS4, 142 }, 
	{ NOTE_FS4, 142 }, 
	{ NOTE_GS4, 142 }, 
	{ NOTE_FS4, 142 }, 
	{ NOTE_E4, 142 }, 
	{ NOTE_FS4, 142 }, 
	{ NOTE_E4, 142 }, 
	{ NOTE_FS4, 142 }, 
	{ NOTE_GS4, 142 }, 
	{ NOTE_FS4, 142 }, 
	{ NOTE_GS4, 142 }, 
	{ NOTE_FS4, 135 }, 
	{ NOTE_E4, 142 }, 
	{ NOTE_FS4, 142 }, 
	{ NOTE_E4, 142 }, 
	{ NOTE_FS4, 142 }, 
	{ NOTE_GS4, 142 }, 
	{ NOTE_FS4, 142 }, 
	{ NOTE_GS4, 142 }, 
	{ NOTE_FS4, 142 }, 
	{ NOTE_E4, 142 }, 
	{ NOTE_FS4, 142 }, 
	{ NOTE_E4, 142 }, 
	{ NOTE_FS4, 142 }, 
	{ NOTE_GS4, 142 }, 
	{ NOTE_A4, 142 }, 
	{ NOTE_GS4, 142 }, 
	{ NOTE_A4, 134 }, 
	{ NOTE_B4, 142 }, 
	{ NOTE_CS5, 142 }, 
	{ NOTE_B4, 142 }, 
	{ NOTE_CS5, 142 }, 
	{ NOTE_DS5, 142 }, 
	{ NOTE_CS5, 142 }, 
	{ NOTE_DS5, 142 }, 
	{ NOTE_CS5, 142 }, 
	{ NOTE_B4, 142 }, 
	{ NOTE_CS5, 142 }, 
	{ NOTE_B4, 142 }, 
	{ NOTE_CS5, 142 }, 
	{ NOTE_DS5, 142 }, 
	{ NOTE_CS5, 142 }, 
	{ NOTE_DS5, 142 }, 
	{ NOTE_CS5, 134 }, 
	{ NOTE_B4, 142 }, 
	{ NOTE_CS5, 142 }, 
	{ NOTE_B4, 142 }, 
	{ NOTE_CS5, 142 }, 
	{ NOTE_DS5, 142 }, 
	{ NOTE_E5, 142 }, 
	{ NOTE_DS5, 142 }, 
	{ NOTE_E5, 142 }, 
	{ NOTE_FS5, 142 }, 
	{ NOTE_E5, 142 }, 
	{ NOTE_FS5, 142 }, 
	{ NOTE_E5, 142 }, 
	{ NOTE_DS5, 142 }, 
	{ NOTE_FS5, 142 }, 
	{ NOTE_E5, 142 }, 
	{ NOTE_DS5, 134 }, 
	{ NOTE_E5, 283 }, 
	{ NOTE_DS5, 142 }, 
	{ NOTE_CS5, 142 }, 
	{ NOTE_B4, 142 }, 
	{ NOTE_A4, 142 }, 
	{ NOTE_GS4, 142 }, 
	{ NOTE_FS4, 142 }, 
	{ NOTE_E4, 142 }, 
	{ NOTE_FS4, 142 }, 
	{ NOTE_E4, 142 }, 
	{ NOTE_FS4, 142 }, 
	{ NOTE_GS4, 142 }, 
	{ NOTE_FS4, 142 }, 
	{ NOTE_GS4, 142 }, 
	{ NOTE_FS4, 135 }, 
	{ NOTE_E4, 142 }, 
	{ NOTE_FS4, 142 }, 
	{ NOTE_E4, 142 }, 
	{ NOTE_FS4, 142 }, 
	{ NOTE_GS4, 142 }, 
	{ NOTE_FS4, 142 }, 
	{ NOTE_GS4, 142 }, 
	{ NOTE_FS4, 142 }, 
	{ NOTE_E4, 142 }, 
	{ NOTE_FS4, 142 }, 
	{ NOTE_E4, 142 }, 
	{ NOTE_FS4, 142 }, 
	{ NOTE_GS4, 142 }, 
	{ NOTE_FS4, 142 }, 
	{ NOTE_GS4, 142 }, 
	{ NOTE_FS4, 134 }, 
	{ NOTE_E4, 566 }, 
	{ NOTE_REST, 283 }, 
	{ NOTE_E5, 283 }, 
	{ NOTE_FS5, 1132 }, 
	{ NOTE_E5, 1132 }, 
	{ NOTE_DS5, 1132 }, 
	{ NOTE_E5, 1132 }, 
	{ NOTE_FS5, 1132 }, 
	{ NOTE_E5, 1132 }, 
	{ NOTE_DS5, 566 }, 
	{ NOTE_REST, 283 }, 
	{ NOTE_DS5, 283 }, 
	{ NOTE_DS5, 283 }, 
	{ NOTE_CS5, 142 }, 
	{ NOTE_B4, 142 }, 
	{ NOTE_CS5, 283 }, 
	{ NOTE_DS5, 283 }, 
	{ NOTE_E5, 283 }, 
	{ NOTE_DS5, 566 }, 
	{ NOTE_DS5, 282 }, 
	{ NOTE_DS5, 283 }, 
	{ NOTE_CS5, 142 }, 
	{ NOTE_B4, 142 }, 
	{ NOTE_CS5, 283 }, 
	{ NOTE_DS5, 283 }, 
	{ NOTE_E5, 283 }, 
	{ NOTE_DS5, 566 }, 
	{ NOTE_DS5, 282 }, 
	{ NOTE_E5, 283 }, 
	{ NOTE_DS5, 566 }, 
	{ NOTE_CS5, 283 }, 
	{ NOTE_B4, 566 }, 
	{ NOTE_AS4, 566 }, 
	{ NOTE_B4, 142 }, 
	{ NOTE_B3, 71 }, 
	{ NOTE_B3, 71 }, 
	{ NOTE_B3, 71 }, 
	{ NOTE_B3, 71 }, 
	{ NOTE_B3, 71 }, 
	{ NOTE_B3, 71 }, 
	{ NOTE_B3, 71 }, 
	{ NOTE_B3, 71 }, 
	{ NOTE_B3, 71 }, 
	{ NOTE_B3, 71 }, 
	{ NOTE_B3, 71 }, 
	{ NOTE_B3, 71 }, 
	{ NOTE_B3, 71 }, 
	{ NOTE_B3, 71 }, 
	{ NOTE_B3, 71 }, 
	{ NOTE_B3, 71 }, 
	{ NOTE_B3, 71 }, 
	{ NOTE_B3, 71 }, 
	{ NOTE_B3, 71 }, 
	{ NOTE_B3, 71 }, 
	{ NOTE_B3, 71 }, 
	{ NOTE_B3, 71 }, 
	{ NOTE_B3, 71 }, 
	{ NOTE_B3, 71 }, 
	{ NOTE_B3, 71 }, 
	{ NOTE_B3, 71 }, 
	{ NOTE_B3, 71 }, 
	{ NOTE_B3, 71 }, 
	{ NOTE_B3, 71 }, 
	{ NOTE_B3, 63 }, 
	{ NOTE_B4, 71 }, 
	{ NOTE_CS5, 71 }, 
	{ NOTE_DS5, 71 }, 
	{ NOTE_E5, 71 }, 
	{ NOTE_FS5, 71 }, 
	{ NOTE_GS5, 71 }, 
	{ NOTE_A5, 71 }, 
	{ NOTE_B5, 71 }, 
	{ NOTE_REST, 566 }, 
	{ NOTE_B4, 71 }, 
	{ NOTE_CS5, 71 }, 
	{ NOTE_DS5, 71 }, 
	{ NOTE_E5, 71 }, 
	{ NOTE_FS5, 71 }, 
	{ NOTE_GS5, 71 }, 
	{ NOTE_A5, 71 }, 
	{ NOTE_B5, 71 }, 
	{ NOTE_REST, 562 }, 
	{ NOTE_B3, 71 }, 
	{ NOTE_B3, 71 }, 
	{ NOTE_B3, 71 }, 
	{ NOTE_B3, 71 }, 
	{ NOTE_B3, 71 }, 
	{ NOTE_B3, 71 }, 
	{ NOTE_B3, 71 }, 
	{ NOTE_B3, 71 }, 
	{ NOTE_B3, 71 }, 
	{ NOTE_B3, 71 }, 
	{ NOTE_B3, 71 }, 
	{ NOTE_B3, 71 }, 
	{ NOTE_B3, 71 }, 
	{ NOTE_B3, 71 }, 
	{ NOTE_B3, 71 }, 
	{ NOTE_B3, 71 }, 
	{ NOTE_B3, 71 }, 
	{ NOTE_B3, 71 }, 
	{ NOTE_B3, 71 }, 
	{ NOTE_B3, 71 }, 
	{ NOTE_B3, 71 }, 
	{ NOTE_B3, 71 }, 
	{ NOTE_B3, 71 }, 
	{ NOTE_B3, 71 }, 
	{ NOTE_B3, 71 }, 
	{ NOTE_B3, 71 }, 
	{ NOTE_B3, 71 }, 
	{ NOTE_B3, 71 }, 
	{ NOTE_B3, 71 }, 
	{ NOTE_B3, 71 }, 
	{ NOTE_B3, 71 }, 
	{ NOTE_B3, 63 }, 
	{ NOTE_GS3, 566 }, 
	{ NOTE_REST, 566 }, 
	{ NOTE_REST, 1132 }, 
	{ NOTE_A3, 71 }, 
	{ NOTE_A3, 71 }, 
	{ NOTE_A3, 71 }, 
	{ NOTE_A3, 71 }, 
	{ NOTE_A3, 71 }, 
	{ NOTE_A3, 71 }, 
	{ NOTE_A3, 71 }, 
	{ NOTE_A3, 71 }, 
	{ NOTE_A3, 71 }, 
	{ NOTE_A3, 71 }, 
	{ NOTE_A3, 71 }, 
	{ NOTE_A3, 71 }, 
	{ NOTE_A3, 71 }, 
	{ NOTE_A3, 71 }, 
	{ NOTE_A3, 71 }, 
	{ NOTE_A3, 71 }, 
	{ NOTE_AS3, 566 }, 
	{ NOTE_REST, 562 }, 
	{ NOTE_REST, 1132 }, 
	{ NOTE_B3, 71 }, 
	{ NOTE_B3, 71 }, 
	{ NOTE_B3, 71 }, 
	{ NOTE_B3, 71 }, 
	{ NOTE_B3, 71 }, 
	{ NOTE_B3, 71 }, 
	{ NOTE_B3, 71 }, 
	{ NOTE_B3, 71 }, 
	{ NOTE_B3, 71 }, 
	{ NOTE_B3, 71 }, 
	{ NOTE_B3, 71 }, 
	{ NOTE_B3, 71 }, 
	{ NOTE_B3, 71 }, 
	{ NOTE_B3, 71 }, 
	{ NOTE_B3, 71 }, 
	{ NOTE_B3, 67 }, 
	{ NOTE_C3, 566 }, 
	{ NOTE_REST, 566 }, 
	{ NOTE_REST, 1132 }, 
	{ NOTE_CS4, 71 }, 
	{ NOTE_CS4, 71 }, 
	{ NOTE_CS4, 71 }, 
	{ NOTE_CS4, 71 }, 
	{ NOTE_CS4, 71 }, 
	{ NOTE_CS4, 71 }, 
	{ NOTE_CS4, 71 }, 
	{ NOTE_CS4, 71 }, 
	{ NOTE_CS4, 71 }, 
	{ NOTE_CS4, 71 }, 
	{ NOTE_CS4, 71 }, 
	{ NOTE_CS4, 71 }, 
	{ NOTE_CS4, 71 }, 
	{ NOTE_CS4, 71 }, 
	{ NOTE_CS4, 71 }, 
	{ NOTE_CS4, 71 }, 
	{ NOTE_CS4, 566 }, 
	{ NOTE_REST, 562 }, 
	{ NOTE_B3, 71 }, 
	{ NOTE_B3, 71 }, 
	{ NOTE_B3, 71 }, 
	{ NOTE_B3, 71 }, 
	{ NOTE_B3, 71 }, 
	{ NOTE_B3, 71 }, 
	{ NOTE_B3, 71 }, 
	{ NOTE_B3, 71 }, 
	{ NOTE_B3, 71 }, 
	{ NOTE_B3, 71 }, 
	{ NOTE_B3, 71 }, 
	{ NOTE_B3, 71 }, 
	{ NOTE_B3, 71 }, 
	{ NOTE_B3, 71 }, 
	{ NOTE_B3, 71 }, 
	{ NOTE_B3, 71 }, 
	{ NOTE_A3, 566 }, 
	{ NOTE_REST, 562 }, 
	{ NOTE_GS4, 71 }, 
	{ NOTE_GS4, 71 }, 
	{ NOTE_GS4, 71 }, 
	{ NOTE_GS4, 71 }, 
	{ NOTE_GS4, 71 }, 
	{ NOTE_GS4, 71 }, 
	{ NOTE_GS4, 71 }, 
	{ NOTE_GS4, 71 }, 
	{ NOTE_GS4, 71 }, 
	{ NOTE_GS4, 71 }, 
	{ NOTE_GS4, 71 }, 
	{ NOTE_GS4, 71 }, 
	{ NOTE_GS4, 71 }, 
	{ NOTE_GS4, 71 }, 
	{ NOTE_GS4, 71 }, 
	{ NOTE_GS4, 71 }, 
	{ NOTE_FS4, 566 }, 
	{ NOTE_REST, 562 }, 
	{ NOTE_E4, 71 }, 
	{ NOTE_E4, 71 }, 
	{ NOTE_E4, 71 }, 
	{ NOTE_E4, 71 }, 
	{ NOTE_E4, 71 }, 
	{ NOTE_E4, 71 }, 
	{ NOTE_E4, 71 }, 
	{ NOTE_E4, 71 }, 
	{ NOTE_CS4, 71 }, 
	{ NOTE_CS4, 71 }, 
	{ NOTE_CS4, 71 }, 
	{ NOTE_CS4, 71 }, 
	{ NOTE_CS4, 71 }, 
	{ NOTE_CS4, 71 }, 
	{ NOTE_CS4, 71 }, 
	{ NOTE_CS4, 71 }, 
	{ NOTE_GS3, 71 }, 
	{ NOTE_GS3, 71 }, 
	{ NOTE_GS3, 71 }, 
	{ NOTE_GS3, 71 }, 
	{ NOTE_GS3, 71 }, 
	{ NOTE_GS3, 71 }, 
	{ NOTE_GS3, 71 }, 
	{ NOTE_GS3, 71 }, 
	{ NOTE_GS3, 71 }, 
	{ NOTE_GS3, 71 }, 
	{ NOTE_GS3, 71 }, 
	{ NOTE_GS3, 71 }, 
	{ NOTE_GS3, 71 }, 
	{ NOTE_GS3, 71 }, 
	{ NOTE_GS3, 71 }, 
	{ NOTE_GS3, 63 }, 
	{ NOTE_GS3, 71 }, 
	{ NOTE_GS3, 71 }, 
	{ NOTE_GS3, 71 }, 
	{ NOTE_GS3, 71 }, 
	{ NOTE_GS3, 71 }, 
	{ NOTE_GS3, 71 }, 
	{ NOTE_GS3, 71 }, 
	{ NOTE_GS3, 71 }, 
	{ NOTE_GS3, 71 }, 
	{ NOTE_GS3, 71 }, 
	{ NOTE_GS3, 71 }, 
	{ NOTE_GS3, 71 }, 
	{ NOTE_GS3, 71 }, 
	{ NOTE_GS3, 71 }, 
	{ NOTE_GS3, 71 }, 
	{ NOTE_GS3, 71 }, 
	{ NOTE_CS4, 566 }, 
	{ NOTE_REST, 283 }, 
	{ NOTE_GS4, 279 }, 
	{ NOTE_E5, 283 }, 
	{ NOTE_DS5, 142 }, 
	{ NOTE_CS5, 142 }, 
	{ NOTE_DS5, 283 }, 
	{ NOTE_E5, 283 }, 
	{ NOTE_FS5, 283 }, 
	{ NOTE_E5, 566 }, 
	{ NOTE_E5, 282 }, 
	{ NOTE_E5, 283 }, 
	{ NOTE_DS5, 142 }, 
	{ NOTE_CS5, 142 }, 
	{ NOTE_DS5, 283 }, 
	{ NOTE_E5, 283 }, 
	{ NOTE_FS5, 283 }, 
	{ NOTE_E5, 566 }, 
	{ NOTE_E5, 282 }, 
	{ NOTE_FS5, 283 }, 
	{ NOTE_E5, 566 }, 
	{ NOTE_DS5, 283 }, 
	{ NOTE_CS5, 566 }, 
	{ NOTE_C4, 566 }, 
	{ NOTE_CS5, 566 }, 
	{ NOTE_REST, 566 }, 
	{ NOTE_REST, 1132 }, 
	{ NOTE_REST, 2264 }, 
	{ NOTE_REST, 2264 }, 
	{ NOTE_REST, 2264 }, 
	{ NOTE_E5, 708 }, 
	{ NOTE_FS5, 142 }, 
	{ NOTE_E5, 142 }, 
	{ NOTE_FS5, 142 }, 
	{ NOTE_E5, 708 }, 
	{ NOTE_FS5, 142 }, 
	{ NOTE_E5, 142 }, 
	{ NOTE_FS5, 138 }, 
	{ NOTE_E5, 71 }, 
	{ NOTE_FS5, 71 }, 
	{ NOTE_E5, 71 }, 
	{ NOTE_FS5, 71 }, 
	{ NOTE_E5, 71 }, 
	{ NOTE_FS5, 71 }, 
	{ NOTE_E5, 71 }, 
	{ NOTE_FS5, 71 }, 
	{ NOTE_E5, 71 }, 
	{ NOTE_FS5, 71 }, 
	{ NOTE_E5, 71 }, 
	{ NOTE_FS5, 71 }, 
	{ NOTE_E5, 71 }, 
	{ NOTE_FS5, 71 }, 
	{ NOTE_E5, 71 }, 
	{ NOTE_FS5, 71 }, 
	{ NOTE_E5, 142 }, 
	{ NOTE_FS5, 142 }, 
	{ NOTE_E5, 142 }, 
	{ NOTE_FS5, 142 }, 
	{ NOTE_E5, 142 }, 
	{ NOTE_FS5, 142 }, 
	{ NOTE_E5, 142 }, 
	{ NOTE_FS5, 134 }, 
	{ NOTE_E5, 71 }, 
	{ NOTE_FS5, 71 }, 
	{ NOTE_E5, 71 }, 
	{ NOTE_FS5, 71 }, 
	{ NOTE_E5, 71 }, 
	{ NOTE_FS5, 71 }, 
	{ NOTE_E5, 71 }, 
	{ NOTE_FS5, 71 }, 
	{ NOTE_E5, 71 }, 
	{ NOTE_FS5, 71 }, 
	{ NOTE_E5, 71 }, 
	{ NOTE_FS5, 71 }, 
	{ NOTE_E5, 71 }, 
	{ NOTE_FS5, 71 }, 
	{ NOTE_E5, 71 }, 
	{ NOTE_FS5, 71 }, 
	{ NOTE_E5, 71 }, 
	{ NOTE_FS5, 71 }, 
	{ NOTE_E5, 71 }, 
	{ NOTE_FS5, 71 }, 
	{ NOTE_E5, 71 }, 
	{ NOTE_FS5, 71 }, 
	{ NOTE_E5, 71 }, 
	{ NOTE_FS5, 71 }, 
	{ NOTE_E5, 71 }, 
	{ NOTE_FS5, 71 }, 
	{ NOTE_E5, 71 }, 
	{ NOTE_FS5, 71 }, 
	{ NOTE_E5, 71 }, 
	{ NOTE_FS5, 71 }, 
	{ NOTE_E5, 71 }, 
	{ NOTE_FS5, 63 }, 
	{ NOTE_E5, 283 }, 
	{ NOTE_E5, 283 }, 
	{ NOTE_E5, 283 }, 
	{ NOTE_DS5, 142 }, 
	{ NOTE_E5, 142 }, 
	{ NOTE_FS5, 849 }, 
	{ NOTE_FS5, 142 }, 
	{ NOTE_E5, 140 }, 
	{ NOTE_DS5, 283 }, 
	{ NOTE_DS5, 283 }, 
	{ NOTE_DS5, 283 }, 
	{ NOTE_CS5, 142 }, 
	{ NOTE_DS5, 142 }, 
	{ NOTE_E5, 849 }, 
	{ NOTE_FS5, 142 }, 
	{ NOTE_GS5, 140 }, 
	{ NOTE_GS5, 283 }, 
	{ NOTE_GS5, 283 }, 
	{ NOTE_GS5, 283 }, 
	{ NOTE_GS5, 142 }, 
	{ NOTE_FS5, 142 }, 
	{ NOTE_E5, 283 }, 
	{ NOTE_E5, 283 }, 
	{ NOTE_E5, 283 }, 
	{ NOTE_E5, 142 }, 
	{ NOTE_FS5, 140 }, 
	{ NOTE_GS5, 283 }, 
	{ NOTE_GS5, 283 }, 
	{ NOTE_GS5, 283 }, 
	{ NOTE_GS5, 142 }, 
	{ NOTE_FS5, 142 }, 
	{ NOTE_E5, 283 }, 
	{ NOTE_E5, 283 }, 
	{ NOTE_E5, 283 }, 
	{ NOTE_E5, 142 }, 
	{ NOTE_FS5, 140 }, 
	{ NOTE_GS5, 283 }, 
	{ NOTE_GS5, 283 }, 
	{ NOTE_GS5, 283 }, 
	{ NOTE_FS5, 142 }, 
	{ NOTE_E5, 142 }, 
	{ NOTE_DS5, 566 }, 
	{ NOTE_REST, 565 }, 
	{ NOTE_REST, 2264 }, 
	{ NOTE_REST, 2264 }, 
	{ NOTE_REST, 2264 }, 
	{ NOTE_REST, 2264 }, 
	{ NOTE_REST, 2264 }, 
	{ NOTE_GS5, 283 }, 
	{ NOTE_FS5, 142 }, 
	{ NOTE_E5, 142 }, 
	{ NOTE_FS5, 283 }, 
	{ NOTE_GS5, 283 }, 
	{ NOTE_A5, 283 }, 
	{ NOTE_GS5, 566 }, 
	{ NOTE_GS5, 282 }, 
	{ NOTE_GS5, 283 }, 
	{ NOTE_FS5, 142 }, 
	{ NOTE_E5, 142 }, 
	{ NOTE_FS5, 283 }, 
	{ NOTE_GS5, 283 }, 
	{ NOTE_A5, 283 }, 
	{ NOTE_GS5, 566 }, 
	{ NOTE_GS5, 282 }, 
	{ NOTE_A5, 283 }, 
	{ NOTE_GS5, 566 }, 
	{ NOTE_FS5, 283 }, 
	{ NOTE_E5, 566 }, 
	{ NOTE_DS5, 566 }, 
	{ NOTE_E5, 566 }, 
	{ NOTE_REST, 283 }, 
	{ NOTE_GS5, 283 }, 
	{ NOTE_GS5, 283 }, 
	{ NOTE_FS5, 142 }, 
	{ NOTE_E5, 142 }, 
	{ NOTE_FS5, 283 }, 
	{ NOTE_GS5, 282 }, 
	{ NOTE_A5, 283 }, 
	{ NOTE_GS5, 566 }, 
	{ NOTE_GS5, 283 }, 
	{ NOTE_GS5, 283 }, 
	{ NOTE_FS5, 142 }, 
	{ NOTE_E5, 142 }, 
	{ NOTE_FS5, 283 }, 
	{ NOTE_GS5, 282 }, 
	{ NOTE_A5, 283 }, 
	{ NOTE_GS5, 566 }, 
	{ NOTE_GS5, 283 }, 
	{ NOTE_A5, 283 }, 
	{ NOTE_GS5, 566 }, 
	{ NOTE_FS5, 283 }, 
	{ NOTE_E5, 566 }, 
	{ NOTE_DS5, 566 }, 
	{ NOTE_E5, 1132 }, 
};
const uint16_t NUM_OF_NOTES2 = sizeof(melody2)/sizeof(melody2[0]);

const Note melody3[] PROGMEM = {
	{ NOTE_REST, 2264 }, 
	{ NOTE_E3, 566 }, 
	{ NOTE_E3, 566 }, 
	{ NOTE_E3, 566 }, 
	{ NOTE_E3, 566 }, 
	{ NOTE_E3, 566 }, 
	{ NOTE_E3, 566 }, 
	{ NOTE_E3, 566 }, 
	{ NOTE_E3, 566 }, 
	{ NOTE_E3, 283 }, 
	{ NOTE_E3, 283 }, 
	{ NOTE_A2, 283 }, 
	{ NOTE_AS2, 283 }, 
	{ NOTE_B2, 566 }, 
	{ NOTE_REST, 283 }, 
	{ NOTE_E3, 283 }, 
	{ NOTE_E3, 566 }, 
	{ NOTE_E3, 566 }, 
	{ NOTE_E3, 566 }, 
	{ NOTE_E3, 566 }, 
	{ NOTE_E3, 566 }, 
	{ NOTE_E3, 566 }, 
	{ NOTE_E3, 566 }, 
	{ NOTE_E3, 566 }, 
	{ NOTE_E3, 283 }, 
	{ NOTE_E3, 283 }, 
	{ NOTE_A2, 283 }, 
	{ NOTE_AS2, 283 }, 
	{ NOTE_B2, 566 }, 
	{ NOTE_REST, 283 }, 
	{ NOTE_E3, 283 }, 
	{ NOTE_E3, 566 }, 
	{ NOTE_E3, 566 }, 
	{ NOTE_E3, 566 }, 
	{ NOTE_E3, 566 }, 
	{ NOTE_E3, 566 }, 
	{ NOTE_E3, 566 }, 
	{ NOTE_E3, 566 }, 
	{ NOTE_E3, 566 }, 
	{ NOTE_E3, 566 }, 
	{ NOTE_FS3, 283 }, 
	{ NOTE_B2, 283 }, 
	{ NOTE_E3, 283 }, 
	{ NOTE_E2, 283 }, 
	{ NOTE_B3, 283 }, 
	{ NOTE_B2, 283 }, 
	{ NOTE_E2, 566 }, 
	{ NOTE_REST, 283 }, 
	{ NOTE_E3, 283 }, 
	{ NOTE_E3, 566 }, 
	{ NOTE_E3, 566 }, 
	{ NOTE_E3, 566 }, 
	{ NOTE_E3, 566 }, 
	{ NOTE_E3, 566 }, 
	{ NOTE_E3, 566 }, 
	{ NOTE_E3, 566 }, 
	{ NOTE_E3, 566 }, 
	{ NOTE_E3, 566 }, 
	{ NOTE_E3, 566 }, 
	{ NOTE_E3, 283 }, 
	{ NOTE_E2, 283 }, 
	{ NOTE_B3, 283 }, 
	{ NOTE_B2, 283 }, 
	{ NOTE_E2, 566 }, 
	{ NOTE_REST, 566 }, 
	{ NOTE_REST, 2264 }, 
	{ NOTE_REST, 2264 }, 
	{ NOTE_REST, 2264 }, 
	{ NOTE_REST, 2264 }, 
	{ NOTE_REST, 2264 }, 
	{ NOTE_REST, 2264 }, 
	{ NOTE_REST, 2264 }, 
	{ NOTE_REST, 2264 }, 
	{ NOTE_REST, 2264 }, 
	{ NOTE_REST, 2264 }, 
	{ NOTE_REST, 2264 }, 
	{ NOTE_REST, 2264 }, 
	{ NOTE_REST, 2264 }, 
	{ NOTE_REST, 1132 }, 
	{ NOTE_REST, 566 }, 
	{ NOTE_REST, 283 }, 
	{ NOTE_E3, 283 }, 
	{ NOTE_E3, 566 }, 
	{ NOTE_E3, 566 }, 
	{ NOTE_E3, 566 }, 
	{ NOTE_E3, 566 }, 
	{ NOTE_E3, 566 }, 
	{ NOTE_E3, 566 }, 
	{ NOTE_E3, 566 }, 
	{ NOTE_E3, 566 }, 
	{ NOTE_E3, 566 }, 
	{ NOTE_E3, 283 }, 
	{ NOTE_B2, 283 }, 
	{ NOTE_E3, 283 }, 
	{ NOTE_E2, 283 }, 
	{ NOTE_B3, 283 }, 
	{ NOTE_B2, 283 }, 
	{ NOTE_E3, 283 }, 
	{ NOTE_E3, 283 }, 
	{ NOTE_E3, 283 }, 
	{ NOTE_E3, 283 }, 
	{ NOTE_E3, 283 }, 
	{ NOTE_E3, 283 }, 
	{ NOTE_E3, 283 }, 
	{ NOTE_E3, 283 }, 
	{ NOTE_E3, 283 }, 
	{ NOTE_E3, 283 }, 
	{ NOTE_E3, 283 }, 
	{ NOTE_E3, 283 }, 
	{ NOTE_E3, 283 }, 
	{ NOTE_E3, 283 }, 
	{ NOTE_E3, 283 }, 
	{ NOTE_E3, 283 }, 
	{ NOTE_B2, 283 }, 
	{ NOTE_B2, 283 }, 
	{ NOTE_B2, 283 }, 
	{ NOTE_B2, 283 }, 
	{ NOTE_B2, 283 }, 
	{ NOTE_B2, 283 }, 
	{ NOTE_B2, 283 }, 
	{ NOTE_B2, 283 }, 
	{ NOTE_B2, 283 }, 
	{ NOTE_B2, 283 }, 
	{ NOTE_B2, 283 }, 
	{ NOTE_B2, 283 }, 
	{ NOTE_B2, 283 }, 
	{ NOTE_B2, 283 }, 
	{ NOTE_B2, 283 }, 
	{ NOTE_B2, 283 }, 
	{ NOTE_E3, 283 }, 
	{ NOTE_E3, 283 }, 
	{ NOTE_E3, 283 }, 
	{ NOTE_E3, 283 }, 
	{ NOTE_E3, 283 }, 
	{ NOTE_E3, 283 }, 
	{ NOTE_E3, 283 }, 
	{ NOTE_E3, 283 }, 
	{ NOTE_E3, 283 }, 
	{ NOTE_E3, 283 }, 
	{ NOTE_E3, 283 }, 
	{ NOTE_E3, 283 }, 
	{ NOTE_E3, 283 }, 
	{ NOTE_E3, 283 }, 
	{ NOTE_E3, 283 }, 
	{ NOTE_E3, 283 }, 
	{ NOTE_E3, 142 }, 
	{ NOTE_B2, 142 }, 
	{ NOTE_E3, 142 }, 
	{ NOTE_B2, 142 }, 
	{ NOTE_E3, 142 }, 
	{ NOTE_B2, 142 }, 
	{ NOTE_E3, 142 }, 
	{ NOTE_B2, 142 }, 
	{ NOTE_DS3, 142 }, 
	{ NOTE_B2, 142 }, 
	{ NOTE_DS3, 142 }, 
	{ NOTE_B2, 142 }, 
	{ NOTE_DS3, 142 }, 
	{ NOTE_B2, 142 }, 
	{ NOTE_DS3, 142 }, 
	{ NOTE_B2, 134 }, 
	{ NOTE_E3, 142 }, 
	{ NOTE_B2, 142 }, 
	{ NOTE_E3, 142 }, 
	{ NOTE_B2, 142 }, 
	{ NOTE_E3, 142 }, 
	{ NOTE_B2, 142 }, 
	{ NOTE_E3, 142 }, 
	{ NOTE_B2, 142 }, 
	{ NOTE_FS3, 142 }, 
	{ NOTE_B2, 142 }, 
	{ NOTE_FS3, 142 }, 
	{ NOTE_B2, 142 }, 
	{ NOTE_FS3, 142 }, 
	{ NOTE_B2, 142 }, 
	{ NOTE_FS3, 142 }, 
	{ NOTE_B2, 134 }, 
	{ NOTE_E3, 142 }, 
	{ NOTE_B2, 142 }, 
	{ NOTE_E3, 142 }, 
	{ NOTE_B2, 142 }, 
	{ NOTE_E3, 142 }, 
	{ NOTE_B2, 142 }, 
	{ NOTE_E3, 142 }, 
	{ NOTE_B2, 142 }, 
	{ NOTE_DS3, 142 }, 
	{ NOTE_B2, 142 }, 
	{ NOTE_DS3, 142 }, 
	{ NOTE_B2, 142 }, 
	{ NOTE_DS3, 142 }, 
	{ NOTE_B2, 142 }, 
	{ NOTE_DS3, 142 }, 
	{ NOTE_B2, 134 }, 
	{ NOTE_E3, 142 }, 
	{ NOTE_B2, 142 }, 
	{ NOTE_E3, 142 }, 
	{ NOTE_B2, 142 }, 
	{ NOTE_E3, 142 }, 
	{ NOTE_B2, 142 }, 
	{ NOTE_E3, 142 }, 
	{ NOTE_B2, 142 }, 
	{ NOTE_B2, 566 }, 
	{ NOTE_REST, 283 }, 
	{ NOTE_B2, 279 }, 
	{ NOTE_B2, 566 }, 
	{ NOTE_B2, 566 }, 
	{ NOTE_B2, 566 }, 
	{ NOTE_B2, 566 }, 
	{ NOTE_B2, 566 }, 
	{ NOTE_B2, 566 }, 
	{ NOTE_B2, 566 }, 
	{ NOTE_B2, 566 }, 
	{ NOTE_B2, 566 }, 
	{ NOTE_B2, 283 }, 
	{ NOTE_FS3, 283 }, 
	{ NOTE_B3, 283 }, 
	{ NOTE_B2, 283 }, 
	{ NOTE_FS3, 283 }, 
	{ NOTE_FS2, 283 }, 
	{ NOTE_B2, 71 }, 
	{ NOTE_B2, 71 }, 
	{ NOTE_B2, 71 }, 
	{ NOTE_B2, 71 }, 
	{ NOTE_B2, 71 }, 
	{ NOTE_B2, 71 }, 
	{ NOTE_B2, 71 }, 
	{ NOTE_B2, 71 }, 
	{ NOTE_B2, 71 }, 
	{ NOTE_B2, 71 }, 
	{ NOTE_B2, 71 }, 
	{ NOTE_B2, 71 }, 
	{ NOTE_B2, 71 }, 
	{ NOTE_B2, 71 }, 
	{ NOTE_B2, 71 }, 
	{ NOTE_B2, 71 }, 
	{ NOTE_B2, 71 }, 
	{ NOTE_B2, 71 }, 
	{ NOTE_B2, 71 }, 
	{ NOTE_B2, 71 }, 
	{ NOTE_B2, 71 }, 
	{ NOTE_B2, 71 }, 
	{ NOTE_B2, 71 }, 
	{ NOTE_B2, 71 }, 
	{ NOTE_B2, 71 }, 
	{ NOTE_B2, 71 }, 
	{ NOTE_B2, 71 }, 
	{ NOTE_B2, 71 }, 
	{ NOTE_B2, 71 }, 
	{ NOTE_B2, 71 }, 
	{ NOTE_B2, 71 }, 
	{ NOTE_B2, 63 }, 
	{ NOTE_B2, 283 }, 
	{ NOTE_REST, 283 }, 
	{ NOTE_B2, 283 }, 
	{ NOTE_REST, 283 }, 
	{ NOTE_B2, 283 }, 
	{ NOTE_REST, 283 }, 
	{ NOTE_B2, 283 }, 
	{ NOTE_REST, 283 }, 
	{ NOTE_B2, 71 }, 
	{ NOTE_B2, 71 }, 
	{ NOTE_B2, 71 }, 
	{ NOTE_B2, 71 }, 
	{ NOTE_B2, 71 }, 
	{ NOTE_B2, 71 }, 
	{ NOTE_B2, 71 }, 
	{ NOTE_B2, 71 }, 
	{ NOTE_B2, 71 }, 
	{ NOTE_B2, 71 }, 
	{ NOTE_B2, 71 }, 
	{ NOTE_B2, 71 }, 
	{ NOTE_B2, 71 }, 
	{ NOTE_B2, 71 }, 
	{ NOTE_B2, 71 }, 
	{ NOTE_B2, 71 }, 
	{ NOTE_A2, 71 }, 
	{ NOTE_A2, 71 }, 
	{ NOTE_A2, 71 }, 
	{ NOTE_A2, 71 }, 
	{ NOTE_A2, 71 }, 
	{ NOTE_A2, 71 }, 
	{ NOTE_A2, 71 }, 
	{ NOTE_A2, 71 }, 
	{ NOTE_A2, 71 }, 
	{ NOTE_A2, 71 }, 
	{ NOTE_A2, 71 }, 
	{ NOTE_A2, 71 }, 
	{ NOTE_A2, 71 }, 
	{ NOTE_A2, 71 }, 
	{ NOTE_A2, 71 }, 
	{ NOTE_A2, 63 }, 
	{ NOTE_GS2, 566 }, 
	{ NOTE_REST, 566 }, 
	{ NOTE_REST, 1132 }, 
	{ NOTE_A2, 71 }, 
	{ NOTE_A2, 71 }, 
	{ NOTE_A2, 71 }, 
	{ NOTE_A2, 71 }, 
	{ NOTE_A2, 71 }, 
	{ NOTE_A2, 71 }, 
	{ NOTE_A2, 71 }, 
	{ NOTE_A2, 71 }, 
	{ NOTE_A2, 71 }, 
	{ NOTE_A2, 71 }, 
	{ NOTE_A2, 71 }, 
	{ NOTE_A2, 71 }, 
	{ NOTE_A2, 71 }, 
	{ NOTE_A2, 71 }, 
	{ NOTE_A2, 71 }, 
	{ NOTE_A2, 71 }, 
	{ NOTE_AS2, 566 }, 
	{ NOTE_REST, 562 }, 
	{ NOTE_REST, 1132 }, 
	{ NOTE_B2, 71 }, 
	{ NOTE_B2, 71 }, 
	{ NOTE_B2, 71 }, 
	{ NOTE_B2, 71 }, 
	{ NOTE_B2, 71 }, 
	{ NOTE_B2, 71 }, 
	{ NOTE_B2, 71 }, 
	{ NOTE_B2, 71 }, 
	{ NOTE_B2, 71 }, 
	{ NOTE_B2, 71 }, 
	{ NOTE_B2, 71 }, 
	{ NOTE_B2, 71 }, 
	{ NOTE_B2, 71 }, 
	{ NOTE_B2, 71 }, 
	{ NOTE_B2, 71 }, 
	{ NOTE_B2, 67 }, 
	{ NOTE_C2, 566 }, 
	{ NOTE_REST, 566 }, 
	{ NOTE_REST, 1132 }, 
	{ NOTE_CS3, 71 }, 
	{ NOTE_CS3, 71 }, 
	{ NOTE_CS3, 71 }, 
	{ NOTE_CS3, 71 }, 
	{ NOTE_CS3, 71 }, 
	{ NOTE_CS3, 71 }, 
	{ NOTE_CS3, 71 }, 
	{ NOTE_CS3, 71 }, 
	{ NOTE_CS3, 71 }, 
	{ NOTE_CS3, 71 }, 
	{ NOTE_CS3, 71 }, 
	{ NOTE_CS3, 71 }, 
	{ NOTE_CS3, 71 }, 
	{ NOTE_CS3, 71 }, 
	{ NOTE_CS3, 71 }, 
	{ NOTE_CS3, 71 }, 
	{ NOTE_CS3, 566 }, 
	{ NOTE_REST, 562 }, 
	{ NOTE_B2, 71 }, 
	{ NOTE_B2, 71 }, 
	{ NOTE_B2, 71 }, 
	{ NOTE_B2, 71 }, 
	{ NOTE_B2, 71 }, 
	{ NOTE_B2, 71 }, 
	{ NOTE_B2, 71 }, 
	{ NOTE_B2, 71 }, 
	{ NOTE_B2, 71 }, 
	{ NOTE_B2, 71 }, 
	{ NOTE_B2, 71 }, 
	{ NOTE_B2, 71 }, 
	{ NOTE_B2, 71 }, 
	{ NOTE_B2, 71 }, 
	{ NOTE_B2, 71 }, 
	{ NOTE_B2, 71 }, 
	{ NOTE_A2, 566 }, 
	{ NOTE_REST, 562 }, 
	{ NOTE_GS3, 71 }, 
	{ NOTE_GS3, 71 }, 
	{ NOTE_GS3, 71 }, 
	{ NOTE_GS3, 71 }, 
	{ NOTE_GS3, 71 }, 
	{ NOTE_GS3, 71 }, 
	{ NOTE_GS3, 71 }, 
	{ NOTE_GS3, 71 }, 
	{ NOTE_GS3, 71 }, 
	{ NOTE_GS3, 71 }, 
	{ NOTE_GS3, 71 }, 
	{ NOTE_GS3, 71 }, 
	{ NOTE_GS3, 71 }, 
	{ NOTE_GS3, 71 }, 
	{ NOTE_GS3, 71 }, 
	{ NOTE_GS3, 71 }, 
	{ NOTE_FS3, 566 }, 
	{ NOTE_REST, 562 }, 
	{ NOTE_E3, 71 }, 
	{ NOTE_E3, 71 }, 
	{ NOTE_E3, 71 }, 
	{ NOTE_E3, 71 }, 
	{ NOTE_E3, 71 }, 
	{ NOTE_E3, 71 }, 
	{ NOTE_E3, 71 }, 
	{ NOTE_E3, 71 }, 
	{ NOTE_CS3, 71 }, 
	{ NOTE_CS3, 71 }, 
	{ NOTE_CS3, 71 }, 
	{ NOTE_CS3, 71 }, 
	{ NOTE_CS3, 71 }, 
	{ NOTE_CS3, 71 }, 
	{ NOTE_CS3, 71 }, 
	{ NOTE_CS3, 71 }, 
	{ NOTE_GS2, 71 }, 
	{ NOTE_GS2, 71 }, 
	{ NOTE_GS2, 71 }, 
	{ NOTE_GS2, 71 }, 
	{ NOTE_GS2, 71 }, 
	{ NOTE_GS2, 71 }, 
	{ NOTE_GS2, 71 }, 
	{ NOTE_GS2, 71 }, 
	{ NOTE_GS2, 71 }, 
	{ NOTE_GS2, 71 }, 
	{ NOTE_GS2, 71 }, 
	{ NOTE_GS2, 71 }, 
	{ NOTE_GS2, 71 }, 
	{ NOTE_GS2, 71 }, 
	{ NOTE_GS2, 71 }, 
	{ NOTE_GS2, 63 }, 
	{ NOTE_GS2, 71 }, 
	{ NOTE_GS2, 71 }, 
	{ NOTE_GS2, 71 }, 
	{ NOTE_GS2, 71 }, 
	{ NOTE_GS2, 71 }, 
	{ NOTE_GS2, 71 }, 
	{ NOTE_GS2, 71 }, 
	{ NOTE_GS2, 71 }, 
	{ NOTE_GS2, 71 }, 
	{ NOTE_GS2, 71 }, 
	{ NOTE_GS2, 71 }, 
	{ NOTE_GS2, 71 }, 
	{ NOTE_GS2, 71 }, 
	{ NOTE_GS2, 71 }, 
	{ NOTE_GS2, 71 }, 
	{ NOTE_GS2, 71 }, 
	{ NOTE_CS3, 566 }, 
	{ NOTE_REST, 283 }, 
	{ NOTE_CS3, 279 }, 
	{ NOTE_CS3, 566 }, 
	{ NOTE_CS3, 566 }, 
	{ NOTE_CS3, 566 }, 
	{ NOTE_CS3, 566 }, 
	{ NOTE_CS3, 566 }, 
	{ NOTE_CS3, 566 }, 
	{ NOTE_CS3, 566 }, 
	{ NOTE_CS3, 566 }, 
	{ NOTE_CS3, 566 }, 
	{ NOTE_CS3, 283 }, 
	{ NOTE_GS3, 283 }, 
	{ NOTE_CS4, 283 }, 
	{ NOTE_CS3, 566 }, 
	{ NOTE_GS2, 283 }, 
	{ NOTE_CS3, 15848 }, 
	{ NOTE_CS3, 283 }, 
	{ NOTE_CS3, 283 }, 
	{ NOTE_CS3, 283 }, 
	{ NOTE_CS3, 283 }, 
	{ NOTE_FS3, 283 }, 
	{ NOTE_FS3, 283 }, 
	{ NOTE_FS3, 283 }, 
	{ NOTE_FS3, 283 }, 
	{ NOTE_B2, 283 }, 
	{ NOTE_B2, 283 }, 
	{ NOTE_B2, 283 }, 
	{ NOTE_B2, 283 }, 
	{ NOTE_E3, 283 }, 
	{ NOTE_E3, 283 }, 
	{ NOTE_E3, 283 }, 
	{ NOTE_B2, 283 }, 
	{ NOTE_E3, 283 }, 
	{ NOTE_E3, 283 }, 
	{ NOTE_E3, 283 }, 
	{ NOTE_B2, 283 }, 
	{ NOTE_E3, 283 }, 
	{ NOTE_E3, 283 }, 
	{ NOTE_E3, 283 }, 
	{ NOTE_B2, 283 }, 
	{ NOTE_E3, 283 }, 
	{ NOTE_E3, 283 }, 
	{ NOTE_E3, 283 }, 
	{ NOTE_B2, 283 }, 
	{ NOTE_E3, 283 }, 
	{ NOTE_E3, 283 }, 
	{ NOTE_E3, 283 }, 
	{ NOTE_B2, 283 }, 
	{ NOTE_E3, 283 }, 
	{ NOTE_E3, 283 }, 
	{ NOTE_E3, 283 }, 
	{ NOTE_B2, 283 }, 
	{ NOTE_B2, 4528 }, 
	{ NOTE_E3, 566 }, 
	{ NOTE_E3, 566 }, 
	{ NOTE_FS3, 566 }, 
	{ NOTE_FS3, 566 }, 
	{ NOTE_GS3, 566 }, 
	{ NOTE_GS3, 566 }, 
	{ NOTE_A3, 566 }, 
	{ NOTE_GS3, 283 }, 
	{ NOTE_FS3, 283 }, 
	{ NOTE_E3, 566 }, 
	{ NOTE_REST, 566 }, 
	{ NOTE_E3, 566 }, 
	{ NOTE_REST, 566 }, 
	{ NOTE_E3, 566 }, 
	{ NOTE_B2, 566 }, 
	{ NOTE_E3, 566 }, 
	{ NOTE_E3, 566 }, 
	{ NOTE_E3, 566 }, 
	{ NOTE_E3, 566 }, 
	{ NOTE_E3, 566 }, 
	{ NOTE_E3, 566 }, 
	{ NOTE_E3, 566 }, 
	{ NOTE_E3, 566 }, 
	{ NOTE_E3, 566 }, 
	{ NOTE_E3, 283 }, 
	{ NOTE_B2, 283 }, 
	{ NOTE_E3, 283 }, 
	{ NOTE_E2, 283 }, 
	{ NOTE_B3, 283 }, 
	{ NOTE_B2, 283 }, 
	{ NOTE_E2, 566 }, 
	{ NOTE_REST, 283 }, 
	{ NOTE_E3, 283 }, 
	{ NOTE_E3, 566 }, 
	{ NOTE_E3, 566 }, 
	{ NOTE_E3, 566 }, 
	{ NOTE_E3, 566 }, 
	{ NOTE_E3, 566 }, 
	{ NOTE_E3, 566 }, 
	{ NOTE_E3, 566 }, 
	{ NOTE_E3, 566 }, 
	{ NOTE_E3, 566 }, 
	{ NOTE_E3, 283 }, 
	{ NOTE_B2, 283 }, 
	{ NOTE_E3, 283 }, 
	{ NOTE_E2, 283 }, 
	{ NOTE_B3, 283 }, 
	{ NOTE_B2, 283 }, 
	{ NOTE_E2, 1132 }, 
};
const uint16_t NUM_OF_NOTES3 = sizeof(melody3)/sizeof(melody3[0]);

const Note melody4[] PROGMEM = {
	{ NOTE_REST, 2264 }, 
	{ NOTE_E4, 566 }, 
	{ NOTE_E4, 566 }, 
	{ NOTE_E4, 566 }, 
	{ NOTE_E4, 566 }, 
	{ NOTE_E4, 566 }, 
	{ NOTE_E4, 566 }, 
	{ NOTE_E4, 566 }, 
	{ NOTE_E4, 566 }, 
	{ NOTE_E4, 283 }, 
	{ NOTE_E4, 283 }, 
	{ NOTE_A3, 283 }, 
	{ NOTE_AS3, 283 }, 
	{ NOTE_B3, 566 }, 
	{ NOTE_REST, 283 }, 
	{ NOTE_E4, 283 }, 
	{ NOTE_E4, 566 }, 
	{ NOTE_E4, 566 }, 
	{ NOTE_E4, 566 }, 
	{ NOTE_E4, 566 }, 
	{ NOTE_E4, 566 }, 
	{ NOTE_E4, 566 }, 
	{ NOTE_E4, 566 }, 
	{ NOTE_E4, 566 }, 
	{ NOTE_E4, 283 }, 
	{ NOTE_E4, 283 }, 
	{ NOTE_A3, 283 }, 
	{ NOTE_AS3, 283 }, 
	{ NOTE_B3, 566 }, 
	{ NOTE_REST, 283 }, 
	{ NOTE_E4, 283 }, 
	{ NOTE_E4, 566 }, 
	{ NOTE_E4, 566 }, 
	{ NOTE_E4, 566 }, 
	{ NOTE_E4, 566 }, 
	{ NOTE_E4, 566 }, 
	{ NOTE_E4, 566 }, 
	{ NOTE_E4, 566 }, 
	{ NOTE_E4, 566 }, 
	{ NOTE_E4, 566 }, 
	{ NOTE_FS4, 283 }, 
	{ NOTE_B3, 283 }, 
	{ NOTE_E4, 283 }, 
	{ NOTE_E3, 283 }, 
	{ NOTE_B4, 283 }, 
	{ NOTE_B3, 283 }, 
	{ NOTE_E3, 566 }, 
	{ NOTE_REST, 283 }, 
	{ NOTE_E4, 283 }, 
	{ NOTE_E4, 566 }, 
	{ NOTE_E4, 566 }, 
	{ NOTE_E4, 566 }, 
	{ NOTE_E4, 566 }, 
	{ NOTE_E4, 566 }, 
	{ NOTE_E4, 566 }, 
	{ NOTE_E4, 566 }, 
	{ NOTE_E4, 566 }, 
	{ NOTE_E4, 566 }, 
	{ NOTE_E4, 566 }, 
	{ NOTE_E4, 283 }, 
	{ NOTE_E3, 283 }, 
	{ NOTE_B4, 283 }, 
	{ NOTE_B3, 283 }, 
	{ NOTE_E3, 566 }, 
	{ NOTE_REST, 566 }, 
	{ NOTE_REST, 2264 }, 
	{ NOTE_REST, 2264 }, 
	{ NOTE_REST, 2264 }, 
	{ NOTE_REST, 2264 }, 
	{ NOTE_REST, 2264 }, 
	{ NOTE_REST, 2264 }, 
	{ NOTE_REST, 2264 }, 
	{ NOTE_REST, 2264 }, 
	{ NOTE_REST, 2264 }, 
	{ NOTE_REST, 2264 }, 
	{ NOTE_REST, 2264 }, 
	{ NOTE_REST, 2264 }, 
	{ NOTE_REST, 2264 }, 
	{ NOTE_REST, 1132 }, 
	{ NOTE_REST, 566 }, 
	{ NOTE_REST, 283 }, 
	{ NOTE_E4, 283 }, 
	{ NOTE_E4, 566 }, 
	{ NOTE_E4, 566 }, 
	{ NOTE_E4, 566 }, 
	{ NOTE_E4, 566 }, 
	{ NOTE_E4, 566 }, 
	{ NOTE_E4, 566 }, 
	{ NOTE_E4, 566 }, 
	{ NOTE_E4, 566 }, 
	{ NOTE_E4, 566 }, 
	{ NOTE_E4, 283 }, 
	{ NOTE_B3, 283 }, 
	{ NOTE_E4, 283 }, 
	{ NOTE_E3, 283 }, 
	{ NOTE_B4, 283 }, 
	{ NOTE_B3, 283 }, 
	{ NOTE_E4, 283 }, 
	{ NOTE_E4, 283 }, 
	{ NOTE_E4, 283 }, 
	{ NOTE_E4, 283 }, 
	{ NOTE_E4, 283 }, 
	{ NOTE_E4, 283 }, 
	{ NOTE_E4, 283 }, 
	{ NOTE_E4, 283 }, 
	{ NOTE_E4, 283 }, 
	{ NOTE_E4, 283 }, 
	{ NOTE_E4, 283 }, 
	{ NOTE_E4, 283 }, 
	{ NOTE_E4, 283 }, 
	{ NOTE_E4, 283 }, 
	{ NOTE_E4, 283 }, 
	{ NOTE_E4, 283 }, 
	{ NOTE_B3, 283 }, 
	{ NOTE_B3, 283 }, 
	{ NOTE_B3, 283 }, 
	{ NOTE_B3, 283 }, 
	{ NOTE_B3, 283 }, 
	{ NOTE_B3, 283 }, 
	{ NOTE_B3, 283 }, 
	{ NOTE_B3, 283 }, 
	{ NOTE_B3, 283 }, 
	{ NOTE_B3, 283 }, 
	{ NOTE_B3, 283 }, 
	{ NOTE_B3, 283 }, 
	{ NOTE_B3, 283 }, 
	{ NOTE_B3, 283 }, 
	{ NOTE_B3, 283 }, 
	{ NOTE_B3, 283 }, 
	{ NOTE_E4, 283 }, 
	{ NOTE_E4, 283 }, 
	{ NOTE_E4, 283 }, 
	{ NOTE_E4, 283 }, 
	{ NOTE_E4, 283 }, 
	{ NOTE_E4, 283 }, 
	{ NOTE_E4, 283 }, 
	{ NOTE_E4, 283 }, 
	{ NOTE_E4, 283 }, 
	{ NOTE_E4, 283 }, 
	{ NOTE_E4, 283 }, 
	{ NOTE_E4, 283 }, 
	{ NOTE_E4, 283 }, 
	{ NOTE_E4, 283 }, 
	{ NOTE_E4, 283 }, 
	{ NOTE_E4, 283 }, 
	{ NOTE_E4, 142 }, 
	{ NOTE_B3, 142 }, 
	{ NOTE_E4, 142 }, 
	{ NOTE_B3, 142 }, 
	{ NOTE_E4, 142 }, 
	{ NOTE_B3, 142 }, 
	{ NOTE_E4, 142 }, 
	{ NOTE_B3, 142 }, 
	{ NOTE_DS4, 142 }, 
	{ NOTE_B3, 142 }, 
	{ NOTE_DS4, 142 }, 
	{ NOTE_B3, 142 }, 
	{ NOTE_DS4, 142 }, 
	{ NOTE_B3, 142 }, 
	{ NOTE_DS4, 142 }, 
	{ NOTE_B3, 134 }, 
	{ NOTE_E4, 142 }, 
	{ NOTE_B3, 142 }, 
	{ NOTE_E4, 142 }, 
	{ NOTE_B3, 142 }, 
	{ NOTE_E4, 142 }, 
	{ NOTE_B3, 142 }, 
	{ NOTE_E4, 142 }, 
	{ NOTE_B3, 142 }, 
	{ NOTE_FS4, 142 }, 
	{ NOTE_B3, 142 }, 
	{ NOTE_FS4, 142 }, 
	{ NOTE_B3, 142 }, 
	{ NOTE_FS4, 142 }, 
	{ NOTE_B3, 142 }, 
	{ NOTE_FS4, 142 }, 
	{ NOTE_B3, 134 }, 
	{ NOTE_E4, 142 }, 
	{ NOTE_B3, 142 }, 
	{ NOTE_E4, 142 }, 
	{ NOTE_B3, 142 }, 
	{ NOTE_E4, 142 }, 
	{ NOTE_B3, 142 }, 
	{ NOTE_E4, 142 }, 
	{ NOTE_B3, 142 }, 
	{ NOTE_DS4, 142 }, 
	{ NOTE_B3, 142 }, 
	{ NOTE_DS4, 142 }, 
	{ NOTE_B3, 142 }, 
	{ NOTE_DS4, 142 }, 
	{ NOTE_B3, 142 }, 
	{ NOTE_DS4, 142 }, 
	{ NOTE_B3, 134 }, 
	{ NOTE_E4, 142 }, 
	{ NOTE_B3, 142 }, 
	{ NOTE_E4, 142 }, 
	{ NOTE_B3, 142 }, 
	{ NOTE_E4, 142 }, 
	{ NOTE_B3, 142 }, 
	{ NOTE_E4, 142 }, 
	{ NOTE_B3, 142 }, 
	{ NOTE_B3, 566 }, 
	{ NOTE_REST, 283 }, 
	{ NOTE_B3, 279 }, 
	{ NOTE_B3, 566 }, 
	{ NOTE_B3, 566 }, 
	{ NOTE_B3, 566 }, 
	{ NOTE_B3, 566 }, 
	{ NOTE_B3, 566 }, 
	{ NOTE_B3, 566 }, 
	{ NOTE_B3, 566 }, 
	{ NOTE_B3, 566 }, 
	{ NOTE_B3, 566 }, 
	{ NOTE_B3, 283 }, 
	{ NOTE_FS4, 283 }, 
	{ NOTE_B4, 283 }, 
	{ NOTE_B3, 283 }, 
	{ NOTE_FS4, 283 }, 
	{ NOTE_FS3, 283 }, 
	{ NOTE_B3, 71 }, 
	{ NOTE_B3, 71 }, 
	{ NOTE_B3, 71 }, 
	{ NOTE_B3, 71 }, 
	{ NOTE_B3, 71 }, 
	{ NOTE_B3, 71 }, 
	{ NOTE_B3, 71 }, 
	{ NOTE_B3, 71 }, 
	{ NOTE_B3, 71 }, 
	{ NOTE_B3, 71 }, 
	{ NOTE_B3, 71 }, 
	{ NOTE_B3, 71 }, 
	{ NOTE_B3, 71 }, 
	{ NOTE_B3, 71 }, 
	{ NOTE_B3, 71 }, 
	{ NOTE_B3, 71 }, 
	{ NOTE_B3, 71 }, 
	{ NOTE_B3, 71 }, 
	{ NOTE_B3, 71 }, 
	{ NOTE_B3, 71 }, 
	{ NOTE_B3, 71 }, 
	{ NOTE_B3, 71 }, 
	{ NOTE_B3, 71 }, 
	{ NOTE_B3, 71 }, 
	{ NOTE_B3, 71 }, 
	{ NOTE_B3, 71 }, 
	{ NOTE_B3, 71 }, 
	{ NOTE_B3, 71 }, 
	{ NOTE_B3, 71 }, 
	{ NOTE_B3, 71 }, 
	{ NOTE_B3, 71 }, 
	{ NOTE_B3, 63 }, 
	{ NOTE_B3, 283 }, 
	{ NOTE_REST, 283 }, 
	{ NOTE_B3, 283 }, 
	{ NOTE_REST, 283 }, 
	{ NOTE_B3, 283 }, 
	{ NOTE_REST, 283 }, 
	{ NOTE_B3, 283 }, 
	{ NOTE_REST, 283 }, 
	{ NOTE_B3, 71 }, 
	{ NOTE_B3, 71 }, 
	{ NOTE_B3, 71 }, 
	{ NOTE_B3, 71 }, 
	{ NOTE_B3, 71 }, 
	{ NOTE_B3, 71 }, 
	{ NOTE_B3, 71 }, 
	{ NOTE_B3, 71 }, 
	{ NOTE_B3, 71 }, 
	{ NOTE_B3, 71 }, 
	{ NOTE_B3, 71 }, 
	{ NOTE_B3, 71 }, 
	{ NOTE_B3, 71 }, 
	{ NOTE_B3, 71 }, 
	{ NOTE_B3, 71 }, 
	{ NOTE_B3, 71 }, 
	{ NOTE_A3, 71 }, 
	{ NOTE_A3, 71 }, 
	{ NOTE_A3, 71 }, 
	{ NOTE_A3, 71 }, 
	{ NOTE_A3, 71 }, 
	{ NOTE_A3, 71 }, 
	{ NOTE_A3, 71 }, 
	{ NOTE_A3, 71 }, 
	{ NOTE_A3, 71 }, 
	{ NOTE_A3, 71 }, 
	{ NOTE_A3, 71 }, 
	{ NOTE_A3, 71 }, 
	{ NOTE_A3, 71 }, 
	{ NOTE_A3, 71 }, 
	{ NOTE_A3, 71 }, 
	{ NOTE_A3, 63 }, 
	{ NOTE_GS3, 566 }, 
	{ NOTE_REST, 566 }, 
	{ NOTE_REST, 1132 }, 
	{ NOTE_A3, 71 }, 
	{ NOTE_A3, 71 }, 
	{ NOTE_A3, 71 }, 
	{ NOTE_A3, 71 }, 
	{ NOTE_A3, 71 }, 
	{ NOTE_A3, 71 }, 
	{ NOTE_A3, 71 }, 
	{ NOTE_A3, 71 }, 
	{ NOTE_A3, 71 }, 
	{ NOTE_A3, 71 }, 
	{ NOTE_A3, 71 }, 
	{ NOTE_A3, 71 }, 
	{ NOTE_A3, 71 }, 
	{ NOTE_A3, 71 }, 
	{ NOTE_A3, 71 }, 
	{ NOTE_A3, 71 }, 
	{ NOTE_AS3, 566 }, 
	{ NOTE_REST, 562 }, 
	{ NOTE_REST, 1132 }, 
	{ NOTE_B3, 71 }, 
	{ NOTE_B3, 71 }, 
	{ NOTE_B3, 71 }, 
	{ NOTE_B3, 71 }, 
	{ NOTE_B3, 71 }, 
	{ NOTE_B3, 71 }, 
	{ NOTE_B3, 71 }, 
	{ NOTE_B3, 71 }, 
	{ NOTE_B3, 71 }, 
	{ NOTE_B3, 71 }, 
	{ NOTE_B3, 71 }, 
	{ NOTE_B3, 71 }, 
	{ NOTE_B3, 71 }, 
	{ NOTE_B3, 71 }, 
	{ NOTE_B3, 71 }, 
	{ NOTE_B3, 67 }, 
	{ NOTE_C3, 566 }, 
	{ NOTE_REST, 566 }, 
	{ NOTE_REST, 1132 }, 
	{ NOTE_CS4, 71 }, 
	{ NOTE_CS4, 71 }, 
	{ NOTE_CS4, 71 }, 
	{ NOTE_CS4, 71 }, 
	{ NOTE_CS4, 71 }, 
	{ NOTE_CS4, 71 }, 
	{ NOTE_CS4, 71 }, 
	{ NOTE_CS4, 71 }, 
	{ NOTE_CS4, 71 }, 
	{ NOTE_CS4, 71 }, 
	{ NOTE_CS4, 71 }, 
	{ NOTE_CS4, 71 }, 
	{ NOTE_CS4, 71 }, 
	{ NOTE_CS4, 71 }, 
	{ NOTE_CS4, 71 }, 
	{ NOTE_CS4, 71 }, 
	{ NOTE_CS4, 566 }, 
	{ NOTE_REST, 562 }, 
	{ NOTE_B3, 71 }, 
	{ NOTE_B3, 71 }, 
	{ NOTE_B3, 71 }, 
	{ NOTE_B3, 71 }, 
	{ NOTE_B3, 71 }, 
	{ NOTE_B3, 71 }, 
	{ NOTE_B3, 71 }, 
	{ NOTE_B3, 71 }, 
	{ NOTE_B3, 71 }, 
	{ NOTE_B3, 71 }, 
	{ NOTE_B3, 71 }, 
	{ NOTE_B3, 71 }, 
	{ NOTE_B3, 71 }, 
	{ NOTE_B3, 71 }, 
	{ NOTE_B3, 71 }, 
	{ NOTE_B3, 71 }, 
	{ NOTE_A3, 566 }, 
	{ NOTE_REST, 562 }, 
	{ NOTE_GS4, 71 }, 
	{ NOTE_GS4, 71 }, 
	{ NOTE_GS4, 71 }, 
	{ NOTE_GS4, 71 }, 
	{ NOTE_GS4, 71 }, 
	{ NOTE_GS4, 71 }, 
	{ NOTE_GS4, 71 }, 
	{ NOTE_GS4, 71 }, 
	{ NOTE_GS4, 71 }, 
	{ NOTE_GS4, 71 }, 
	{ NOTE_GS4, 71 }, 
	{ NOTE_GS4, 71 }, 
	{ NOTE_GS4, 71 }, 
	{ NOTE_GS4, 71 }, 
	{ NOTE_GS4, 71 }, 
	{ NOTE_GS4, 71 }, 
	{ NOTE_FS4, 566 }, 
	{ NOTE_REST, 562 }, 
	{ NOTE_E4, 71 }, 
	{ NOTE_E4, 71 }, 
	{ NOTE_E4, 71 }, 
	{ NOTE_E4, 71 }, 
	{ NOTE_E4, 71 }, 
	{ NOTE_E4, 71 }, 
	{ NOTE_E4, 71 }, 
	{ NOTE_E4, 71 }, 
	{ NOTE_CS4, 71 }, 
	{ NOTE_CS4, 71 }, 
	{ NOTE_CS4, 71 }, 
	{ NOTE_CS4, 71 }, 
	{ NOTE_CS4, 71 }, 
	{ NOTE_CS4, 71 }, 
	{ NOTE_CS4, 71 }, 
	{ NOTE_CS4, 71 }, 
	{ NOTE_GS3, 71 }, 
	{ NOTE_GS3, 71 }, 
	{ NOTE_GS3, 71 }, 
	{ NOTE_GS3, 71 }, 
	{ NOTE_GS3, 71 }, 
	{ NOTE_GS3, 71 }, 
	{ NOTE_GS3, 71 }, 
	{ NOTE_GS3, 71 }, 
	{ NOTE_GS3, 71 }, 
	{ NOTE_GS3, 71 }, 
	{ NOTE_GS3, 71 }, 
	{ NOTE_GS3, 71 }, 
	{ NOTE_GS3, 71 }, 
	{ NOTE_GS3, 71 }, 
	{ NOTE_GS3, 71 }, 
	{ NOTE_GS3, 63 }, 
	{ NOTE_GS3, 71 }, 
	{ NOTE_GS3, 71 }, 
	{ NOTE_GS3, 71 }, 
	{ NOTE_GS3, 71 }, 
	{ NOTE_GS3, 71 }, 
	{ NOTE_GS3, 71 }, 
	{ NOTE_GS3, 71 }, 
	{ NOTE_GS3, 71 }, 
	{ NOTE_GS3, 71 }, 
	{ NOTE_GS3, 71 }, 
	{ NOTE_GS3, 71 }, 
	{ NOTE_GS3, 71 }, 
	{ NOTE_GS3, 71 }, 
	{ NOTE_GS3, 71 }, 
	{ NOTE_GS3, 71 }, 
	{ NOTE_GS3, 71 }, 
	{ NOTE_CS4, 566 }, 
	{ NOTE_REST, 283 }, 
	{ NOTE_CS4, 279 }, 
	{ NOTE_CS4, 566 }, 
	{ NOTE_CS4, 566 }, 
	{ NOTE_CS4, 566 }, 
	{ NOTE_CS4, 566 }, 
	{ NOTE_CS4, 566 }, 
	{ NOTE_CS4, 566 }, 
	{ NOTE_CS4, 566 }, 
	{ NOTE_CS4, 566 }, 
	{ NOTE_CS4, 566 }, 
	{ NOTE_CS4, 283 }, 
	{ NOTE_GS4, 283 }, 
	{ NOTE_CS5, 283 }, 
	{ NOTE_CS4, 566 }, 
	{ NOTE_GS3, 283 }, 
	{ NOTE_CS4, 15848 }, 
	{ NOTE_CS4, 283 }, 
	{ NOTE_CS4, 283 }, 
	{ NOTE_CS4, 283 }, 
	{ NOTE_CS4, 283 }, 
	{ NOTE_FS4, 283 }, 
	{ NOTE_FS4, 283 }, 
	{ NOTE_FS4, 283 }, 
	{ NOTE_FS4, 283 }, 
	{ NOTE_B3, 283 }, 
	{ NOTE_B3, 283 }, 
	{ NOTE_B3, 283 }, 
	{ NOTE_B3, 283 }, 
	{ NOTE_E4, 283 }, 
	{ NOTE_E4, 283 }, 
	{ NOTE_E4, 283 }, 
	{ NOTE_B3, 283 }, 
	{ NOTE_E4, 283 }, 
	{ NOTE_E4, 283 }, 
	{ NOTE_E4, 283 }, 
	{ NOTE_B3, 283 }, 
	{ NOTE_E4, 283 }, 
	{ NOTE_E4, 283 }, 
	{ NOTE_E4, 283 }, 
	{ NOTE_B3, 283 }, 
	{ NOTE_E4, 283 }, 
	{ NOTE_E4, 283 }, 
	{ NOTE_E4, 283 }, 
	{ NOTE_B3, 283 }, 
	{ NOTE_E4, 283 }, 
	{ NOTE_E4, 283 }, 
	{ NOTE_E4, 283 }, 
	{ NOTE_B3, 283 }, 
	{ NOTE_E4, 283 }, 
	{ NOTE_E4, 283 }, 
	{ NOTE_E4, 283 }, 
	{ NOTE_B3, 283 }, 
	{ NOTE_B3, 4528 }, 
	{ NOTE_E4, 566 }, 
	{ NOTE_E4, 566 }, 
	{ NOTE_FS4, 566 }, 
	{ NOTE_FS4, 566 }, 
	{ NOTE_GS4, 566 }, 
	{ NOTE_GS4, 566 }, 
	{ NOTE_A4, 566 }, 
	{ NOTE_GS4, 283 }, 
	{ NOTE_FS4, 283 }, 
	{ NOTE_E4, 566 }, 
	{ NOTE_REST, 566 }, 
	{ NOTE_E4, 566 }, 
	{ NOTE_REST, 566 }, 
	{ NOTE_E4, 566 }, 
	{ NOTE_B3, 566 }, 
	{ NOTE_E4, 566 }, 
	{ NOTE_E4, 566 }, 
	{ NOTE_E4, 566 }, 
	{ NOTE_E4, 566 }, 
	{ NOTE_E4, 566 }, 
	{ NOTE_E4, 566 }, 
	{ NOTE_E4, 566 }, 
	{ NOTE_E4, 566 }, 
	{ NOTE_E4, 566 }, 
	{ NOTE_E4, 283 }, 
	{ NOTE_B3, 283 }, 
	{ NOTE_E4, 283 }, 
	{ NOTE_E3, 283 }, 
	{ NOTE_B4, 283 }, 
	{ NOTE_B3, 283 }, 
	{ NOTE_E3, 566 }, 
	{ NOTE_REST, 283 }, 
	{ NOTE_E4, 283 }, 
	{ NOTE_E4, 566 }, 
	{ NOTE_E4, 566 }, 
	{ NOTE_E4, 566 }, 
	{ NOTE_E4, 566 }, 
	{ NOTE_E4, 566 }, 
	{ NOTE_E4, 566 }, 
	{ NOTE_E4, 566 }, 
	{ NOTE_E4, 566 }, 
	{ NOTE_E4, 566 }, 
	{ NOTE_E4, 283 }, 
	{ NOTE_B3, 283 }, 
	{ NOTE_E4, 283 }, 
	{ NOTE_E3, 283 }, 
	{ NOTE_B4, 283 }, 
	{ NOTE_B3, 283 }, 
	{ NOTE_E3, 1132 }, 
};
const uint16_t NUM_OF_NOTES4 = sizeof(melody4)/sizeof(melody4[0]);

